<?xml version="1.0" encoding="utf-8" standalone="no"?>
<!DOCTYPE svg PUBLIC "-//W3C//DTD SVG 1.1//EN"
  "http://www.w3.org/Graphics/SVG/1.1/DTD/svg11.dtd">
<svg height="304.616762pt" version="1.1" viewBox="0 0 565.054785 304.616762" width="565.054785pt" xmlns="http://www.w3.org/2000/svg" xmlns:xlink="http://www.w3.org/1999/xlink">
 <metadata>
  <rdf:RDF xmlns:cc="http://creativecommons.org/ns#" xmlns:dc="http://purl.org/dc/elements/1.1/" xmlns:rdf="http://www.w3.org/1999/02/22-rdf-syntax-ns#">
   <cc:Work>
    <dc:type rdf:resource="http://purl.org/dc/dcmitype/StillImage"/>
    <dc:format>image/svg+xml</dc:format>
    <dc:creator>
     <cc:Agent>
      <dc:title>Matplotlib v3.4.3, https://matplotlib.org/</dc:title>
     </cc:Agent>
    </dc:creator>
   </cc:Work>
  </rdf:RDF>
 </metadata>
 <defs>
  <style type="text/css">*{stroke-linecap:butt;stroke-linejoin:round;}</style>
 </defs>
 <g id="figure_1">
  <g id="patch_1">
   <path d="M 0 304.616762 
L 565.054785 304.616762 
L 565.054785 0 
L 0 0 
z
" style="fill:#ffffff;"/>
  </g>
  <g id="axes_1">
   <g id="patch_2">
    <path d="M 60.444904 233.928824 
L 339.444904 233.928824 
L 339.444904 12.168824 
L 60.444904 12.168824 
z
" style="fill:#ffffff;"/>
   </g>
   <g id="patch_3">
    <path clip-path="url(#pd1fd13d688)" d="M 60.633418 233.928824 
L 62.141526 233.928824 
L 62.141526 215.021972 
L 60.633418 215.021972 
z
" style="fill:#1f77b4;"/>
   </g>
   <g id="patch_4">
    <path clip-path="url(#pd1fd13d688)" d="M 62.518553 233.928824 
L 64.026661 233.928824 
L 64.026661 215.38107 
L 62.518553 215.38107 
z
" style="fill:#1f77b4;"/>
   </g>
   <g id="patch_5">
    <path clip-path="url(#pd1fd13d688)" d="M 64.403688 233.928824 
L 65.911796 233.928824 
L 65.911796 215.909554 
L 64.403688 215.909554 
z
" style="fill:#1f77b4;"/>
   </g>
   <g id="patch_6">
    <path clip-path="url(#pd1fd13d688)" d="M 66.288823 233.928824 
L 67.796931 233.928824 
L 67.796931 216.502404 
L 66.288823 216.502404 
z
" style="fill:#1f77b4;"/>
   </g>
   <g id="patch_7">
    <path clip-path="url(#pd1fd13d688)" d="M 68.173958 233.928824 
L 69.682067 233.928824 
L 69.682067 216.654852 
L 68.173958 216.654852 
z
" style="fill:#1f77b4;"/>
   </g>
   <g id="patch_8">
    <path clip-path="url(#pd1fd13d688)" d="M 70.059094 233.928824 
L 71.567202 233.928824 
L 71.567202 216.515955 
L 70.059094 216.515955 
z
" style="fill:#1f77b4;"/>
   </g>
   <g id="patch_9">
    <path clip-path="url(#pd1fd13d688)" d="M 71.944229 233.928824 
L 73.452337 233.928824 
L 73.452337 216.19751 
L 71.944229 216.19751 
z
" style="fill:#1f77b4;"/>
   </g>
   <g id="patch_10">
    <path clip-path="url(#pd1fd13d688)" d="M 73.829364 233.928824 
L 75.337472 233.928824 
L 75.337472 216.109429 
L 73.829364 216.109429 
z
" style="fill:#1f77b4;"/>
   </g>
   <g id="patch_11">
    <path clip-path="url(#pd1fd13d688)" d="M 75.714499 233.928824 
L 77.222607 233.928824 
L 77.222607 215.801147 
L 75.714499 215.801147 
z
" style="fill:#1f77b4;"/>
   </g>
   <g id="patch_12">
    <path clip-path="url(#pd1fd13d688)" d="M 77.599634 233.928824 
L 79.107742 233.928824 
L 79.107742 215.028747 
L 77.599634 215.028747 
z
" style="fill:#1f77b4;"/>
   </g>
   <g id="patch_13">
    <path clip-path="url(#pd1fd13d688)" d="M 79.484769 233.928824 
L 80.992877 233.928824 
L 80.992877 214.236021 
L 79.484769 214.236021 
z
" style="fill:#1f77b4;"/>
   </g>
   <g id="patch_14">
    <path clip-path="url(#pd1fd13d688)" d="M 81.369904 233.928824 
L 82.878012 233.928824 
L 82.878012 212.50151 
L 81.369904 212.50151 
z
" style="fill:#1f77b4;"/>
   </g>
   <g id="patch_15">
    <path clip-path="url(#pd1fd13d688)" d="M 83.255039 233.928824 
L 84.763148 233.928824 
L 84.763148 210.48243 
L 83.255039 210.48243 
z
" style="fill:#1f77b4;"/>
   </g>
   <g id="patch_16">
    <path clip-path="url(#pd1fd13d688)" d="M 85.140175 233.928824 
L 86.648283 233.928824 
L 86.648283 208.896978 
L 85.140175 208.896978 
z
" style="fill:#1f77b4;"/>
   </g>
   <g id="patch_17">
    <path clip-path="url(#pd1fd13d688)" d="M 87.02531 233.928824 
L 88.533418 233.928824 
L 88.533418 206.921939 
L 87.02531 206.921939 
z
" style="fill:#1f77b4;"/>
   </g>
   <g id="patch_18">
    <path clip-path="url(#pd1fd13d688)" d="M 88.910445 233.928824 
L 90.418553 233.928824 
L 90.418553 205.53975 
L 88.910445 205.53975 
z
" style="fill:#1f77b4;"/>
   </g>
   <g id="patch_19">
    <path clip-path="url(#pd1fd13d688)" d="M 90.79558 233.928824 
L 92.303688 233.928824 
L 92.303688 203.415651 
L 90.79558 203.415651 
z
" style="fill:#1f77b4;"/>
   </g>
   <g id="patch_20">
    <path clip-path="url(#pd1fd13d688)" d="M 92.680715 233.928824 
L 94.188823 233.928824 
L 94.188823 199.54349 
L 92.680715 199.54349 
z
" style="fill:#1f77b4;"/>
   </g>
   <g id="patch_21">
    <path clip-path="url(#pd1fd13d688)" d="M 94.56585 233.928824 
L 96.073958 233.928824 
L 96.073958 195.949121 
L 94.56585 195.949121 
z
" style="fill:#1f77b4;"/>
   </g>
   <g id="patch_22">
    <path clip-path="url(#pd1fd13d688)" d="M 96.450985 233.928824 
L 97.959094 233.928824 
L 97.959094 190.840443 
L 96.450985 190.840443 
z
" style="fill:#1f77b4;"/>
   </g>
   <g id="patch_23">
    <path clip-path="url(#pd1fd13d688)" d="M 98.336121 233.928824 
L 99.844229 233.928824 
L 99.844229 185.010181 
L 98.336121 185.010181 
z
" style="fill:#1f77b4;"/>
   </g>
   <g id="patch_24">
    <path clip-path="url(#pd1fd13d688)" d="M 100.221256 233.928824 
L 101.729364 233.928824 
L 101.729364 179.129103 
L 100.221256 179.129103 
z
" style="fill:#1f77b4;"/>
   </g>
   <g id="patch_25">
    <path clip-path="url(#pd1fd13d688)" d="M 102.106391 233.928824 
L 103.614499 233.928824 
L 103.614499 175.118045 
L 102.106391 175.118045 
z
" style="fill:#1f77b4;"/>
   </g>
   <g id="patch_26">
    <path clip-path="url(#pd1fd13d688)" d="M 103.991526 233.928824 
L 105.499634 233.928824 
L 105.499634 168.261304 
L 103.991526 168.261304 
z
" style="fill:#1f77b4;"/>
   </g>
   <g id="patch_27">
    <path clip-path="url(#pd1fd13d688)" d="M 105.876661 233.928824 
L 107.384769 233.928824 
L 107.384769 161.126771 
L 105.876661 161.126771 
z
" style="fill:#1f77b4;"/>
   </g>
   <g id="patch_28">
    <path clip-path="url(#pd1fd13d688)" d="M 107.761796 233.928824 
L 109.269904 233.928824 
L 109.269904 152.31193 
L 107.761796 152.31193 
z
" style="fill:#1f77b4;"/>
   </g>
   <g id="patch_29">
    <path clip-path="url(#pd1fd13d688)" d="M 109.646931 233.928824 
L 111.155039 233.928824 
L 111.155039 144.706503 
L 109.646931 144.706503 
z
" style="fill:#1f77b4;"/>
   </g>
   <g id="patch_30">
    <path clip-path="url(#pd1fd13d688)" d="M 111.532067 233.928824 
L 113.040175 233.928824 
L 113.040175 137.866701 
L 111.532067 137.866701 
z
" style="fill:#1f77b4;"/>
   </g>
   <g id="patch_31">
    <path clip-path="url(#pd1fd13d688)" d="M 113.417202 233.928824 
L 114.92531 233.928824 
L 114.92531 132.39215 
L 113.417202 132.39215 
z
" style="fill:#1f77b4;"/>
   </g>
   <g id="patch_32">
    <path clip-path="url(#pd1fd13d688)" d="M 115.302337 233.928824 
L 116.810445 233.928824 
L 116.810445 128.851985 
L 115.302337 128.851985 
z
" style="fill:#1f77b4;"/>
   </g>
   <g id="patch_33">
    <path clip-path="url(#pd1fd13d688)" d="M 117.187472 233.928824 
L 118.69558 233.928824 
L 118.69558 125.586225 
L 117.187472 125.586225 
z
" style="fill:#1f77b4;"/>
   </g>
   <g id="patch_34">
    <path clip-path="url(#pd1fd13d688)" d="M 119.072607 233.928824 
L 120.580715 233.928824 
L 120.580715 120.718074 
L 119.072607 120.718074 
z
" style="fill:#1f77b4;"/>
   </g>
   <g id="patch_35">
    <path clip-path="url(#pd1fd13d688)" d="M 120.957742 233.928824 
L 122.46585 233.928824 
L 122.46585 116.944157 
L 120.957742 116.944157 
z
" style="fill:#1f77b4;"/>
   </g>
   <g id="patch_36">
    <path clip-path="url(#pd1fd13d688)" d="M 122.842877 233.928824 
L 124.350985 233.928824 
L 124.350985 111.943886 
L 122.842877 111.943886 
z
" style="fill:#1f77b4;"/>
   </g>
   <g id="patch_37">
    <path clip-path="url(#pd1fd13d688)" d="M 124.728012 233.928824 
L 126.236121 233.928824 
L 126.236121 107.292549 
L 124.728012 107.292549 
z
" style="fill:#1f77b4;"/>
   </g>
   <g id="patch_38">
    <path clip-path="url(#pd1fd13d688)" d="M 126.613148 233.928824 
L 128.121256 233.928824 
L 128.121256 105.334448 
L 126.613148 105.334448 
z
" style="fill:#1f77b4;"/>
   </g>
   <g id="patch_39">
    <path clip-path="url(#pd1fd13d688)" d="M 128.498283 233.928824 
L 130.006391 233.928824 
L 130.006391 105.087145 
L 128.498283 105.087145 
z
" style="fill:#1f77b4;"/>
   </g>
   <g id="patch_40">
    <path clip-path="url(#pd1fd13d688)" d="M 130.383418 233.928824 
L 131.891526 233.928824 
L 131.891526 103.992912 
L 130.383418 103.992912 
z
" style="fill:#1f77b4;"/>
   </g>
   <g id="patch_41">
    <path clip-path="url(#pd1fd13d688)" d="M 132.268553 233.928824 
L 133.776661 233.928824 
L 133.776661 100.943966 
L 132.268553 100.943966 
z
" style="fill:#1f77b4;"/>
   </g>
   <g id="patch_42">
    <path clip-path="url(#pd1fd13d688)" d="M 134.153688 233.928824 
L 135.661796 233.928824 
L 135.661796 97.356373 
L 134.153688 97.356373 
z
" style="fill:#1f77b4;"/>
   </g>
   <g id="patch_43">
    <path clip-path="url(#pd1fd13d688)" d="M 136.038823 233.928824 
L 137.546931 233.928824 
L 137.546931 97.424128 
L 136.038823 97.424128 
z
" style="fill:#1f77b4;"/>
   </g>
   <g id="patch_44">
    <path clip-path="url(#pd1fd13d688)" d="M 137.923958 233.928824 
L 139.432067 233.928824 
L 139.432067 96.106305 
L 137.923958 96.106305 
z
" style="fill:#1f77b4;"/>
   </g>
   <g id="patch_45">
    <path clip-path="url(#pd1fd13d688)" d="M 139.809094 233.928824 
L 141.317202 233.928824 
L 141.317202 94.70379 
L 139.809094 94.70379 
z
" style="fill:#1f77b4;"/>
   </g>
   <g id="patch_46">
    <path clip-path="url(#pd1fd13d688)" d="M 141.694229 233.928824 
L 143.202337 233.928824 
L 143.202337 91.282195 
L 141.694229 91.282195 
z
" style="fill:#1f77b4;"/>
   </g>
   <g id="patch_47">
    <path clip-path="url(#pd1fd13d688)" d="M 143.579364 233.928824 
L 145.087472 233.928824 
L 145.087472 88.602511 
L 143.579364 88.602511 
z
" style="fill:#1f77b4;"/>
   </g>
   <g id="patch_48">
    <path clip-path="url(#pd1fd13d688)" d="M 145.464499 233.928824 
L 146.972607 233.928824 
L 146.972607 87.34228 
L 145.464499 87.34228 
z
" style="fill:#1f77b4;"/>
   </g>
   <g id="patch_49">
    <path clip-path="url(#pd1fd13d688)" d="M 147.349634 233.928824 
L 148.857742 233.928824 
L 148.857742 87.206771 
L 147.349634 87.206771 
z
" style="fill:#1f77b4;"/>
   </g>
   <g id="patch_50">
    <path clip-path="url(#pd1fd13d688)" d="M 149.234769 233.928824 
L 150.742877 233.928824 
L 150.742877 84.46272 
L 149.234769 84.46272 
z
" style="fill:#1f77b4;"/>
   </g>
   <g id="patch_51">
    <path clip-path="url(#pd1fd13d688)" d="M 151.119904 233.928824 
L 152.628012 233.928824 
L 152.628012 83.493832 
L 151.119904 83.493832 
z
" style="fill:#1f77b4;"/>
   </g>
   <g id="patch_52">
    <path clip-path="url(#pd1fd13d688)" d="M 153.005039 233.928824 
L 154.513148 233.928824 
L 154.513148 83.73436 
L 153.005039 83.73436 
z
" style="fill:#1f77b4;"/>
   </g>
   <g id="patch_53">
    <path clip-path="url(#pd1fd13d688)" d="M 154.890175 233.928824 
L 156.398283 233.928824 
L 156.398283 85.5163 
L 154.890175 85.5163 
z
" style="fill:#1f77b4;"/>
   </g>
   <g id="patch_54">
    <path clip-path="url(#pd1fd13d688)" d="M 156.77531 233.928824 
L 158.283418 233.928824 
L 158.283418 86.746041 
L 156.77531 86.746041 
z
" style="fill:#1f77b4;"/>
   </g>
   <g id="patch_55">
    <path clip-path="url(#pd1fd13d688)" d="M 158.660445 233.928824 
L 160.168553 233.928824 
L 160.168553 86.088824 
L 158.660445 86.088824 
z
" style="fill:#1f77b4;"/>
   </g>
   <g id="patch_56">
    <path clip-path="url(#pd1fd13d688)" d="M 160.54558 233.928824 
L 162.053688 233.928824 
L 162.053688 86.122701 
L 160.54558 86.122701 
z
" style="fill:#1f77b4;"/>
   </g>
   <g id="patch_57">
    <path clip-path="url(#pd1fd13d688)" d="M 162.430715 233.928824 
L 163.938823 233.928824 
L 163.938823 86.749429 
L 162.430715 86.749429 
z
" style="fill:#1f77b4;"/>
   </g>
   <g id="patch_58">
    <path clip-path="url(#pd1fd13d688)" d="M 164.31585 233.928824 
L 165.823958 233.928824 
L 165.823958 85.794093 
L 164.31585 85.794093 
z
" style="fill:#1f77b4;"/>
   </g>
   <g id="patch_59">
    <path clip-path="url(#pd1fd13d688)" d="M 166.200985 233.928824 
L 167.709094 233.928824 
L 167.709094 84.916674 
L 166.200985 84.916674 
z
" style="fill:#1f77b4;"/>
   </g>
   <g id="patch_60">
    <path clip-path="url(#pd1fd13d688)" d="M 168.086121 233.928824 
L 169.594229 233.928824 
L 169.594229 83.243141 
L 168.086121 83.243141 
z
" style="fill:#1f77b4;"/>
   </g>
   <g id="patch_61">
    <path clip-path="url(#pd1fd13d688)" d="M 169.971256 233.928824 
L 171.479364 233.928824 
L 171.479364 80.522804 
L 169.971256 80.522804 
z
" style="fill:#1f77b4;"/>
   </g>
   <g id="patch_62">
    <path clip-path="url(#pd1fd13d688)" d="M 171.856391 233.928824 
L 173.364499 233.928824 
L 173.364499 79.215145 
L 171.856391 79.215145 
z
" style="fill:#1f77b4;"/>
   </g>
   <g id="patch_63">
    <path clip-path="url(#pd1fd13d688)" d="M 173.741526 233.928824 
L 175.249634 233.928824 
L 175.249634 79.347266 
L 173.741526 79.347266 
z
" style="fill:#1f77b4;"/>
   </g>
   <g id="patch_64">
    <path clip-path="url(#pd1fd13d688)" d="M 175.626661 233.928824 
L 177.134769 233.928824 
L 177.134769 77.30786 
L 175.626661 77.30786 
z
" style="fill:#1f77b4;"/>
   </g>
   <g id="patch_65">
    <path clip-path="url(#pd1fd13d688)" d="M 177.511796 233.928824 
L 179.019904 233.928824 
L 179.019904 79.374368 
L 177.511796 79.374368 
z
" style="fill:#1f77b4;"/>
   </g>
   <g id="patch_66">
    <path clip-path="url(#pd1fd13d688)" d="M 179.396931 233.928824 
L 180.905039 233.928824 
L 180.905039 79.25241 
L 179.396931 79.25241 
z
" style="fill:#1f77b4;"/>
   </g>
   <g id="patch_67">
    <path clip-path="url(#pd1fd13d688)" d="M 181.282067 233.928824 
L 182.790175 233.928824 
L 182.790175 78.950903 
L 181.282067 78.950903 
z
" style="fill:#1f77b4;"/>
   </g>
   <g id="patch_68">
    <path clip-path="url(#pd1fd13d688)" d="M 183.167202 233.928824 
L 184.67531 233.928824 
L 184.67531 80.909004 
L 183.167202 80.909004 
z
" style="fill:#1f77b4;"/>
   </g>
   <g id="patch_69">
    <path clip-path="url(#pd1fd13d688)" d="M 185.052337 233.928824 
L 186.560445 233.928824 
L 186.560445 84.449169 
L 185.052337 84.449169 
z
" style="fill:#1f77b4;"/>
   </g>
   <g id="patch_70">
    <path clip-path="url(#pd1fd13d688)" d="M 186.937472 233.928824 
L 188.44558 233.928824 
L 188.44558 86.007519 
L 186.937472 86.007519 
z
" style="fill:#1f77b4;"/>
   </g>
   <g id="patch_71">
    <path clip-path="url(#pd1fd13d688)" d="M 188.822607 233.928824 
L 190.330715 233.928824 
L 190.330715 89.703519 
L 188.822607 89.703519 
z
" style="fill:#1f77b4;"/>
   </g>
   <g id="patch_72">
    <path clip-path="url(#pd1fd13d688)" d="M 190.707742 233.928824 
L 192.21585 233.928824 
L 192.21585 92.085084 
L 190.707742 92.085084 
z
" style="fill:#1f77b4;"/>
   </g>
   <g id="patch_73">
    <path clip-path="url(#pd1fd13d688)" d="M 192.592877 233.928824 
L 194.100985 233.928824 
L 194.100985 94.266775 
L 192.592877 94.266775 
z
" style="fill:#1f77b4;"/>
   </g>
   <g id="patch_74">
    <path clip-path="url(#pd1fd13d688)" d="M 194.478012 233.928824 
L 195.986121 233.928824 
L 195.986121 97.30217 
L 194.478012 97.30217 
z
" style="fill:#1f77b4;"/>
   </g>
   <g id="patch_75">
    <path clip-path="url(#pd1fd13d688)" d="M 196.363148 233.928824 
L 197.871256 233.928824 
L 197.871256 99.937814 
L 196.363148 99.937814 
z
" style="fill:#1f77b4;"/>
   </g>
   <g id="patch_76">
    <path clip-path="url(#pd1fd13d688)" d="M 198.248283 233.928824 
L 199.756391 233.928824 
L 199.756391 101.90269 
L 198.248283 101.90269 
z
" style="fill:#1f77b4;"/>
   </g>
   <g id="patch_77">
    <path clip-path="url(#pd1fd13d688)" d="M 200.133418 233.928824 
L 201.641526 233.928824 
L 201.641526 106.100073 
L 200.133418 106.100073 
z
" style="fill:#1f77b4;"/>
   </g>
   <g id="patch_78">
    <path clip-path="url(#pd1fd13d688)" d="M 202.018553 233.928824 
L 203.526661 233.928824 
L 203.526661 109.87399 
L 202.018553 109.87399 
z
" style="fill:#1f77b4;"/>
   </g>
   <g id="patch_79">
    <path clip-path="url(#pd1fd13d688)" d="M 203.903688 233.928824 
L 205.411796 233.928824 
L 205.411796 113.13975 
L 203.903688 113.13975 
z
" style="fill:#1f77b4;"/>
   </g>
   <g id="patch_80">
    <path clip-path="url(#pd1fd13d688)" d="M 205.788823 233.928824 
L 207.296931 233.928824 
L 207.296931 115.345154 
L 205.788823 115.345154 
z
" style="fill:#1f77b4;"/>
   </g>
   <g id="patch_81">
    <path clip-path="url(#pd1fd13d688)" d="M 207.673958 233.928824 
L 209.182067 233.928824 
L 209.182067 117.245664 
L 207.673958 117.245664 
z
" style="fill:#1f77b4;"/>
   </g>
   <g id="patch_82">
    <path clip-path="url(#pd1fd13d688)" d="M 209.559094 233.928824 
L 211.067202 233.928824 
L 211.067202 119.613678 
L 209.559094 119.613678 
z
" style="fill:#1f77b4;"/>
   </g>
   <g id="patch_83">
    <path clip-path="url(#pd1fd13d688)" d="M 211.444229 233.928824 
L 212.952337 233.928824 
L 212.952337 123.316454 
L 211.444229 123.316454 
z
" style="fill:#1f77b4;"/>
   </g>
   <g id="patch_84">
    <path clip-path="url(#pd1fd13d688)" d="M 213.329364 233.928824 
L 214.837472 233.928824 
L 214.837472 124.68848 
L 213.329364 124.68848 
z
" style="fill:#1f77b4;"/>
   </g>
   <g id="patch_85">
    <path clip-path="url(#pd1fd13d688)" d="M 215.214499 233.928824 
L 216.722607 233.928824 
L 216.722607 128.30995 
L 215.214499 128.30995 
z
" style="fill:#1f77b4;"/>
   </g>
   <g id="patch_86">
    <path clip-path="url(#pd1fd13d688)" d="M 217.099634 233.928824 
L 218.607742 233.928824 
L 218.607742 130.393396 
L 217.099634 130.393396 
z
" style="fill:#1f77b4;"/>
   </g>
   <g id="patch_87">
    <path clip-path="url(#pd1fd13d688)" d="M 218.984769 233.928824 
L 220.492877 233.928824 
L 220.492877 133.191651 
L 218.984769 133.191651 
z
" style="fill:#1f77b4;"/>
   </g>
   <g id="patch_88">
    <path clip-path="url(#pd1fd13d688)" d="M 220.869904 233.928824 
L 222.378012 233.928824 
L 222.378012 134.523024 
L 220.869904 134.523024 
z
" style="fill:#1f77b4;"/>
   </g>
   <g id="patch_89">
    <path clip-path="url(#pd1fd13d688)" d="M 222.755039 233.928824 
L 224.263148 233.928824 
L 224.263148 136.704714 
L 222.755039 136.704714 
z
" style="fill:#1f77b4;"/>
   </g>
   <g id="patch_90">
    <path clip-path="url(#pd1fd13d688)" d="M 224.640175 233.928824 
L 226.148283 233.928824 
L 226.148283 139.618151 
L 224.640175 139.618151 
z
" style="fill:#1f77b4;"/>
   </g>
   <g id="patch_91">
    <path clip-path="url(#pd1fd13d688)" d="M 226.52531 233.928824 
L 228.033418 233.928824 
L 228.033418 143.195581 
L 226.52531 143.195581 
z
" style="fill:#1f77b4;"/>
   </g>
   <g id="patch_92">
    <path clip-path="url(#pd1fd13d688)" d="M 228.410445 233.928824 
L 229.918553 233.928824 
L 229.918553 145.753308 
L 228.410445 145.753308 
z
" style="fill:#1f77b4;"/>
   </g>
   <g id="patch_93">
    <path clip-path="url(#pd1fd13d688)" d="M 230.29558 233.928824 
L 231.803688 233.928824 
L 231.803688 149.320575 
L 230.29558 149.320575 
z
" style="fill:#1f77b4;"/>
   </g>
   <g id="patch_94">
    <path clip-path="url(#pd1fd13d688)" d="M 232.180715 233.928824 
L 233.688823 233.928824 
L 233.688823 151.824098 
L 232.180715 151.824098 
z
" style="fill:#1f77b4;"/>
   </g>
   <g id="patch_95">
    <path clip-path="url(#pd1fd13d688)" d="M 234.06585 233.928824 
L 235.573958 233.928824 
L 235.573958 153.975299 
L 234.06585 153.975299 
z
" style="fill:#1f77b4;"/>
   </g>
   <g id="patch_96">
    <path clip-path="url(#pd1fd13d688)" d="M 235.950985 233.928824 
L 237.459094 233.928824 
L 237.459094 155.303284 
L 235.950985 155.303284 
z
" style="fill:#1f77b4;"/>
   </g>
   <g id="patch_97">
    <path clip-path="url(#pd1fd13d688)" d="M 237.836121 233.928824 
L 239.344229 233.928824 
L 239.344229 157.871174 
L 237.836121 157.871174 
z
" style="fill:#1f77b4;"/>
   </g>
   <g id="patch_98">
    <path clip-path="url(#pd1fd13d688)" d="M 239.721256 233.928824 
L 241.229364 233.928824 
L 241.229364 158.741818 
L 239.721256 158.741818 
z
" style="fill:#1f77b4;"/>
   </g>
   <g id="patch_99">
    <path clip-path="url(#pd1fd13d688)" d="M 241.606391 233.928824 
L 243.114499 233.928824 
L 243.114499 160.069803 
L 241.606391 160.069803 
z
" style="fill:#1f77b4;"/>
   </g>
   <g id="patch_100">
    <path clip-path="url(#pd1fd13d688)" d="M 243.491526 233.928824 
L 244.999634 233.928824 
L 244.999634 160.791387 
L 243.491526 160.791387 
z
" style="fill:#1f77b4;"/>
   </g>
   <g id="patch_101">
    <path clip-path="url(#pd1fd13d688)" d="M 245.376661 233.928824 
L 246.884769 233.928824 
L 246.884769 161.235178 
L 245.376661 161.235178 
z
" style="fill:#1f77b4;"/>
   </g>
   <g id="patch_102">
    <path clip-path="url(#pd1fd13d688)" d="M 247.261796 233.928824 
L 248.769904 233.928824 
L 248.769904 161.777213 
L 247.261796 161.777213 
z
" style="fill:#1f77b4;"/>
   </g>
   <g id="patch_103">
    <path clip-path="url(#pd1fd13d688)" d="M 249.146931 233.928824 
L 250.655039 233.928824 
L 250.655039 163.535438 
L 249.146931 163.535438 
z
" style="fill:#1f77b4;"/>
   </g>
   <g id="patch_104">
    <path clip-path="url(#pd1fd13d688)" d="M 251.032067 233.928824 
L 252.540175 233.928824 
L 252.540175 163.457521 
L 251.032067 163.457521 
z
" style="fill:#1f77b4;"/>
   </g>
   <g id="patch_105">
    <path clip-path="url(#pd1fd13d688)" d="M 252.917202 233.928824 
L 254.42531 233.928824 
L 254.42531 166.391284 
L 252.917202 166.391284 
z
" style="fill:#1f77b4;"/>
   </g>
   <g id="patch_106">
    <path clip-path="url(#pd1fd13d688)" d="M 254.802337 233.928824 
L 256.310445 233.928824 
L 256.310445 167.685392 
L 254.802337 167.685392 
z
" style="fill:#1f77b4;"/>
   </g>
   <g id="patch_107">
    <path clip-path="url(#pd1fd13d688)" d="M 256.687472 233.928824 
L 258.19558 233.928824 
L 258.19558 169.596065 
L 256.687472 169.596065 
z
" style="fill:#1f77b4;"/>
   </g>
   <g id="patch_108">
    <path clip-path="url(#pd1fd13d688)" d="M 258.572607 233.928824 
L 260.080715 233.928824 
L 260.080715 171.93359 
L 258.572607 171.93359 
z
" style="fill:#1f77b4;"/>
   </g>
   <g id="patch_109">
    <path clip-path="url(#pd1fd13d688)" d="M 260.457742 233.928824 
L 261.96585 233.928824 
L 261.96585 172.258811 
L 260.457742 172.258811 
z
" style="fill:#1f77b4;"/>
   </g>
   <g id="patch_110">
    <path clip-path="url(#pd1fd13d688)" d="M 262.342877 233.928824 
L 263.850985 233.928824 
L 263.850985 172.163955 
L 262.342877 172.163955 
z
" style="fill:#1f77b4;"/>
   </g>
   <g id="patch_111">
    <path clip-path="url(#pd1fd13d688)" d="M 264.228012 233.928824 
L 265.736121 233.928824 
L 265.736121 173.732469 
L 264.228012 173.732469 
z
" style="fill:#1f77b4;"/>
   </g>
   <g id="patch_112">
    <path clip-path="url(#pd1fd13d688)" d="M 266.113148 233.928824 
L 267.621256 233.928824 
L 267.621256 174.647152 
L 266.113148 174.647152 
z
" style="fill:#1f77b4;"/>
   </g>
   <g id="patch_113">
    <path clip-path="url(#pd1fd13d688)" d="M 267.998283 233.928824 
L 269.506391 233.928824 
L 269.506391 175.632978 
L 267.998283 175.632978 
z
" style="fill:#1f77b4;"/>
   </g>
   <g id="patch_114">
    <path clip-path="url(#pd1fd13d688)" d="M 269.883418 233.928824 
L 271.391526 233.928824 
L 271.391526 174.836865 
L 269.883418 174.836865 
z
" style="fill:#1f77b4;"/>
   </g>
   <g id="patch_115">
    <path clip-path="url(#pd1fd13d688)" d="M 271.768553 233.928824 
L 273.276661 233.928824 
L 273.276661 174.298217 
L 271.768553 174.298217 
z
" style="fill:#1f77b4;"/>
   </g>
   <g id="patch_116">
    <path clip-path="url(#pd1fd13d688)" d="M 273.653688 233.928824 
L 275.161796 233.928824 
L 275.161796 174.023812 
L 273.653688 174.023812 
z
" style="fill:#1f77b4;"/>
   </g>
   <g id="patch_117">
    <path clip-path="url(#pd1fd13d688)" d="M 275.538823 233.928824 
L 277.046931 233.928824 
L 277.046931 173.336106 
L 275.538823 173.336106 
z
" style="fill:#1f77b4;"/>
   </g>
   <g id="patch_118">
    <path clip-path="url(#pd1fd13d688)" d="M 277.423958 233.928824 
L 278.932067 233.928824 
L 278.932067 170.185528 
L 277.423958 170.185528 
z
" style="fill:#1f77b4;"/>
   </g>
   <g id="patch_119">
    <path clip-path="url(#pd1fd13d688)" d="M 279.309094 233.928824 
L 280.817202 233.928824 
L 280.817202 166.370958 
L 279.309094 166.370958 
z
" style="fill:#1f77b4;"/>
   </g>
   <g id="patch_120">
    <path clip-path="url(#pd1fd13d688)" d="M 281.194229 233.928824 
L 282.702337 233.928824 
L 282.702337 162.475083 
L 281.194229 162.475083 
z
" style="fill:#1f77b4;"/>
   </g>
   <g id="patch_121">
    <path clip-path="url(#pd1fd13d688)" d="M 283.079364 233.928824 
L 284.587472 233.928824 
L 284.587472 159.341444 
L 283.079364 159.341444 
z
" style="fill:#1f77b4;"/>
   </g>
   <g id="patch_122">
    <path clip-path="url(#pd1fd13d688)" d="M 284.964499 233.928824 
L 286.472607 233.928824 
L 286.472607 154.978063 
L 284.964499 154.978063 
z
" style="fill:#1f77b4;"/>
   </g>
   <g id="patch_123">
    <path clip-path="url(#pd1fd13d688)" d="M 286.849634 233.928824 
L 288.357742 233.928824 
L 288.357742 151.800384 
L 286.849634 151.800384 
z
" style="fill:#1f77b4;"/>
   </g>
   <g id="patch_124">
    <path clip-path="url(#pd1fd13d688)" d="M 288.734769 233.928824 
L 290.242877 233.928824 
L 290.242877 147.203251 
L 288.734769 147.203251 
z
" style="fill:#1f77b4;"/>
   </g>
   <g id="patch_125">
    <path clip-path="url(#pd1fd13d688)" d="M 290.619904 233.928824 
L 292.128012 233.928824 
L 292.128012 144.167856 
L 290.619904 144.167856 
z
" style="fill:#1f77b4;"/>
   </g>
   <g id="patch_126">
    <path clip-path="url(#pd1fd13d688)" d="M 292.505039 233.928824 
L 294.013148 233.928824 
L 294.013148 140.536223 
L 292.505039 140.536223 
z
" style="fill:#1f77b4;"/>
   </g>
   <g id="patch_127">
    <path clip-path="url(#pd1fd13d688)" d="M 294.390175 233.928824 
L 295.898283 233.928824 
L 295.898283 135.613869 
L 294.390175 135.613869 
z
" style="fill:#1f77b4;"/>
   </g>
   <g id="patch_128">
    <path clip-path="url(#pd1fd13d688)" d="M 296.27531 233.928824 
L 297.783418 233.928824 
L 297.783418 132.327783 
L 296.27531 132.327783 
z
" style="fill:#1f77b4;"/>
   </g>
   <g id="patch_129">
    <path clip-path="url(#pd1fd13d688)" d="M 298.160445 233.928824 
L 299.668553 233.928824 
L 299.668553 129.614221 
L 298.160445 129.614221 
z
" style="fill:#1f77b4;"/>
   </g>
   <g id="patch_130">
    <path clip-path="url(#pd1fd13d688)" d="M 300.04558 233.928824 
L 301.553688 233.928824 
L 301.553688 128.655497 
L 300.04558 128.655497 
z
" style="fill:#1f77b4;"/>
   </g>
   <g id="patch_131">
    <path clip-path="url(#pd1fd13d688)" d="M 301.930715 233.928824 
L 303.438823 233.928824 
L 303.438823 132.788513 
L 301.930715 132.788513 
z
" style="fill:#1f77b4;"/>
   </g>
   <g id="patch_132">
    <path clip-path="url(#pd1fd13d688)" d="M 303.81585 233.928824 
L 305.323958 233.928824 
L 305.323958 130.789759 
L 303.81585 130.789759 
z
" style="fill:#1f77b4;"/>
   </g>
   <g id="patch_133">
    <path clip-path="url(#pd1fd13d688)" d="M 305.700985 233.928824 
L 307.209094 233.928824 
L 307.209094 127.26992 
L 305.700985 127.26992 
z
" style="fill:#1f77b4;"/>
   </g>
   <g id="patch_134">
    <path clip-path="url(#pd1fd13d688)" d="M 307.586121 233.928824 
L 309.094229 233.928824 
L 309.094229 122.428872 
L 307.586121 122.428872 
z
" style="fill:#1f77b4;"/>
   </g>
   <g id="patch_135">
    <path clip-path="url(#pd1fd13d688)" d="M 309.471256 233.928824 
L 310.979364 233.928824 
L 310.979364 116.039636 
L 309.471256 116.039636 
z
" style="fill:#1f77b4;"/>
   </g>
   <g id="patch_136">
    <path clip-path="url(#pd1fd13d688)" d="M 311.356391 233.928824 
L 312.864499 233.928824 
L 312.864499 111.649154 
L 311.356391 111.649154 
z
" style="fill:#1f77b4;"/>
   </g>
   <g id="patch_137">
    <path clip-path="url(#pd1fd13d688)" d="M 313.241526 233.928824 
L 314.749634 233.928824 
L 314.749634 106.977491 
L 313.241526 106.977491 
z
" style="fill:#1f77b4;"/>
   </g>
   <g id="patch_138">
    <path clip-path="url(#pd1fd13d688)" d="M 315.126661 233.928824 
L 316.634769 233.928824 
L 316.634769 96.14357 
L 315.126661 96.14357 
z
" style="fill:#1f77b4;"/>
   </g>
   <g id="patch_139">
    <path clip-path="url(#pd1fd13d688)" d="M 317.011796 233.928824 
L 318.519904 233.928824 
L 318.519904 86.986569 
L 317.011796 86.986569 
z
" style="fill:#1f77b4;"/>
   </g>
   <g id="patch_140">
    <path clip-path="url(#pd1fd13d688)" d="M 318.896931 233.928824 
L 320.405039 233.928824 
L 320.405039 77.961689 
L 318.896931 77.961689 
z
" style="fill:#1f77b4;"/>
   </g>
   <g id="patch_141">
    <path clip-path="url(#pd1fd13d688)" d="M 320.782067 233.928824 
L 322.290175 233.928824 
L 322.290175 72.026408 
L 320.782067 72.026408 
z
" style="fill:#1f77b4;"/>
   </g>
   <g id="patch_142">
    <path clip-path="url(#pd1fd13d688)" d="M 322.667202 233.928824 
L 324.17531 233.928824 
L 324.17531 65.996271 
L 322.667202 65.996271 
z
" style="fill:#1f77b4;"/>
   </g>
   <g id="patch_143">
    <path clip-path="url(#pd1fd13d688)" d="M 324.552337 233.928824 
L 326.060445 233.928824 
L 326.060445 60.077928 
L 324.552337 60.077928 
z
" style="fill:#1f77b4;"/>
   </g>
   <g id="patch_144">
    <path clip-path="url(#pd1fd13d688)" d="M 326.437472 233.928824 
L 327.94558 233.928824 
L 327.94558 56.869759 
L 326.437472 56.869759 
z
" style="fill:#1f77b4;"/>
   </g>
   <g id="patch_145">
    <path clip-path="url(#pd1fd13d688)" d="M 328.322607 233.928824 
L 329.830715 233.928824 
L 329.830715 51.225821 
L 328.322607 51.225821 
z
" style="fill:#1f77b4;"/>
   </g>
   <g id="patch_146">
    <path clip-path="url(#pd1fd13d688)" d="M 330.207742 233.928824 
L 331.71585 233.928824 
L 331.71585 43.498437 
L 330.207742 43.498437 
z
" style="fill:#1f77b4;"/>
   </g>
   <g id="patch_147">
    <path clip-path="url(#pd1fd13d688)" d="M 332.092877 233.928824 
L 333.600985 233.928824 
L 333.600985 36.489249 
L 332.092877 36.489249 
z
" style="fill:#1f77b4;"/>
   </g>
   <g id="patch_148">
    <path clip-path="url(#pd1fd13d688)" d="M 333.978012 233.928824 
L 335.486121 233.928824 
L 335.486121 29.618958 
L 333.978012 29.618958 
z
" style="fill:#1f77b4;"/>
   </g>
   <g id="patch_149">
    <path clip-path="url(#pd1fd13d688)" d="M 335.863148 233.928824 
L 337.371256 233.928824 
L 337.371256 19.41854 
L 335.863148 19.41854 
z
" style="fill:#1f77b4;"/>
   </g>
   <g id="patch_150">
    <path clip-path="url(#pd1fd13d688)" d="M 337.748283 233.928824 
L 339.256391 233.928824 
L 339.256391 12.168824 
L 337.748283 12.168824 
z
" style="fill:#1f77b4;"/>
   </g>
   <g id="matplotlib.axis_1">
    <g id="xtick_1">
     <g id="line2d_1">
      <defs>
       <path d="M 0 0 
L 0 3.5 
" id="m71faa3389c" style="stroke:#000000;stroke-width:0.8;"/>
      </defs>
      <g>
       <use style="stroke:#000000;stroke-width:0.8;" x="68.928012" xlink:href="#m71faa3389c" y="233.928824"/>
      </g>
     </g>
     <g id="text_1">
      <!-- $\mathdefault{2021{-}07{-}01}$ -->
      <g transform="translate(71.087426 297.416762)rotate(-90)scale(0.1 -0.1)">
       <defs>
        <path d="M 102 160 
L 102 0 
C 1299 0 1299 0 1530 0 
C 1760 0 1760 0 2995 0 
C 2982 125 2982 186 2982 269 
C 2982 348 2982 407 2995 539 
C 2259 539 1965 539 781 539 
L 1946 1761 
C 2566 2414 2758 2763 2758 3238 
C 2758 3966 2259 4416 1446 4416 
C 986 4416 672 4288 358 3969 
L 250 3099 
L 435 3099 
L 518 3393 
C 621 3763 851 3923 1280 3923 
C 1830 3923 2182 3577 2182 3035 
C 2182 2555 1914 2083 1190 1316 
L 102 160 
z
" id="URWPalladioL-Roma-32" transform="scale(0.015625)"/>
        <path d="M 1683 4416 
C 691 4416 186 3628 186 2077 
C 186 1326 320 680 544 366 
C 768 51 1126 -128 1523 -128 
C 2490 -128 2976 705 2976 2346 
C 2976 3749 2560 4416 1683 4416 
z
M 1568 4192 
C 2189 4192 2438 3564 2438 2025 
C 2438 661 2195 96 1606 96 
C 986 96 723 744 723 2308 
C 723 3660 960 4192 1568 4192 
z
" id="URWPalladioL-Roma-30" transform="scale(0.015625)"/>
        <path d="M 429 3584 
L 493 3584 
L 1318 3956 
C 1325 3962 1331 3962 1338 3962 
C 1376 3962 1389 3905 1389 3751 
L 1389 613 
C 1389 276 1318 205 973 205 
L 614 205 
L 614 0 
C 1600 0 1600 0 1670 0 
C 1754 0 1894 0 2112 0 
C 2189 0 2413 0 2675 0 
L 2675 205 
L 2342 205 
C 1990 205 1926 276 1926 612 
L 1926 4443 
L 1837 4475 
C 1421 4257 966 4065 384 3860 
L 429 3584 
z
" id="URWPalladioL-Roma-31" transform="scale(0.015625)"/>
        <path d="M 4218 1472 
C 4326 1472 4442 1472 4442 1600 
C 4442 1728 4326 1728 4218 1728 
L 755 1728 
C 646 1728 531 1728 531 1600 
C 531 1472 646 1472 755 1472 
L 4218 1472 
z
" id="CMSY10-0" transform="scale(0.015625)"/>
        <path d="M 358 32 
L 416 -51 
C 666 -32 666 -32 710 -32 
C 755 -32 755 -32 1005 -51 
C 1274 649 1587 1317 2010 2087 
L 3181 4199 
L 3181 4372 
C 2490 4372 2266 4372 1747 4372 
C 1280 4372 966 4372 346 4372 
L 282 4359 
C 301 3750 301 3750 301 3685 
C 301 3614 301 3614 282 3031 
L 474 3031 
L 518 3390 
C 570 3789 614 3840 909 3840 
L 2618 3840 
C 2362 3313 2163 2941 1920 2549 
L 358 32 
z
" id="URWPalladioL-Roma-37" transform="scale(0.015625)"/>
       </defs>
       <use transform="scale(0.996264)" xlink:href="#URWPalladioL-Roma-32"/>
       <use transform="translate(49.8132 0)scale(0.996264)" xlink:href="#URWPalladioL-Roma-30"/>
       <use transform="translate(99.626401 0)scale(0.996264)" xlink:href="#URWPalladioL-Roma-32"/>
       <use transform="translate(149.439601 0)scale(0.996264)" xlink:href="#URWPalladioL-Roma-31"/>
       <use transform="translate(200.498102 0)scale(1.038107)" xlink:href="#CMSY10-0"/>
       <use transform="translate(282.439798 0)scale(0.996264)" xlink:href="#URWPalladioL-Roma-30"/>
       <use transform="translate(332.252998 0)scale(0.996264)" xlink:href="#URWPalladioL-Roma-37"/>
       <use transform="translate(383.311499 0)scale(1.038107)" xlink:href="#CMSY10-0"/>
       <use transform="translate(465.253195 0)scale(0.996264)" xlink:href="#URWPalladioL-Roma-30"/>
       <use transform="translate(515.066395 0)scale(0.996264)" xlink:href="#URWPalladioL-Roma-31"/>
      </g>
     </g>
    </g>
    <g id="xtick_2">
     <g id="line2d_2">
      <g>
       <use style="stroke:#000000;stroke-width:0.8;" x="95.319904" xlink:href="#m71faa3389c" y="233.928824"/>
      </g>
     </g>
     <g id="text_2">
      <!-- $\mathdefault{2021{-}07{-}15}$ -->
      <g transform="translate(97.479318 297.416762)rotate(-90)scale(0.1 -0.1)">
       <defs>
        <path d="M 813 3877 
C 1638 3877 1997 3877 2765 3877 
L 2797 3907 
C 2784 4016 2784 4064 2784 4144 
C 2784 4229 2784 4277 2797 4386 
L 2765 4416 
C 2285 4416 1997 4416 1651 4416 
C 1299 4416 1018 4416 538 4416 
L 506 4403 
C 512 4011 518 3729 518 3523 
C 518 2977 499 2360 480 2077 
L 608 2038 
C 909 2341 1082 2432 1395 2432 
C 2010 2432 2394 1993 2394 1296 
C 2394 580 1984 160 1286 160 
C 941 160 621 277 531 444 
L 237 973 
L 83 883 
C 230 516 307 310 397 27 
C 576 -71 832 -128 1107 -128 
C 1536 -128 1990 59 2342 368 
C 2733 716 2938 1154 2938 1630 
C 2938 2359 2419 2874 1690 2874 
C 1382 2874 1152 2791 755 2554 
L 813 3877 
z
" id="URWPalladioL-Roma-35" transform="scale(0.015625)"/>
       </defs>
       <use transform="scale(0.996264)" xlink:href="#URWPalladioL-Roma-32"/>
       <use transform="translate(49.8132 0)scale(0.996264)" xlink:href="#URWPalladioL-Roma-30"/>
       <use transform="translate(99.626401 0)scale(0.996264)" xlink:href="#URWPalladioL-Roma-32"/>
       <use transform="translate(149.439601 0)scale(0.996264)" xlink:href="#URWPalladioL-Roma-31"/>
       <use transform="translate(200.498102 0)scale(1.038107)" xlink:href="#CMSY10-0"/>
       <use transform="translate(282.439798 0)scale(0.996264)" xlink:href="#URWPalladioL-Roma-30"/>
       <use transform="translate(332.252998 0)scale(0.996264)" xlink:href="#URWPalladioL-Roma-37"/>
       <use transform="translate(383.311499 0)scale(1.038107)" xlink:href="#CMSY10-0"/>
       <use transform="translate(465.253195 0)scale(0.996264)" xlink:href="#URWPalladioL-Roma-31"/>
       <use transform="translate(515.066395 0)scale(0.996264)" xlink:href="#URWPalladioL-Roma-35"/>
      </g>
     </g>
    </g>
    <g id="xtick_3">
     <g id="line2d_3">
      <g>
       <use style="stroke:#000000;stroke-width:0.8;" x="127.367202" xlink:href="#m71faa3389c" y="233.928824"/>
      </g>
     </g>
     <g id="text_3">
      <!-- $\mathdefault{2021{-}08{-}01}$ -->
      <g transform="translate(129.526615 297.416762)rotate(-90)scale(0.1 -0.1)">
       <defs>
        <path d="M 1075 2211 
C 813 2090 704 2019 563 1884 
C 320 1641 192 1352 192 1019 
C 192 359 723 -128 1446 -128 
C 2278 -128 2970 526 2970 1320 
C 2970 1833 2733 2109 2003 2442 
C 2586 2840 2790 3109 2790 3493 
C 2790 4044 2336 4416 1658 4416 
C 896 4416 339 3929 339 3257 
C 339 2821 512 2577 1075 2211 
z
M 1818 1891 
C 2221 1711 2464 1397 2464 1052 
C 2464 513 2061 90 1542 90 
C 998 90 646 475 646 1071 
C 646 1538 832 1833 1306 2122 
L 1818 1891 
z
M 1427 2712 
C 1024 2910 819 3167 819 3487 
C 819 3910 1126 4198 1581 4198 
C 2048 4198 2355 3891 2355 3422 
C 2355 3058 2195 2808 1779 2538 
L 1427 2712 
z
" id="URWPalladioL-Roma-38" transform="scale(0.015625)"/>
       </defs>
       <use transform="scale(0.996264)" xlink:href="#URWPalladioL-Roma-32"/>
       <use transform="translate(49.8132 0)scale(0.996264)" xlink:href="#URWPalladioL-Roma-30"/>
       <use transform="translate(99.626401 0)scale(0.996264)" xlink:href="#URWPalladioL-Roma-32"/>
       <use transform="translate(149.439601 0)scale(0.996264)" xlink:href="#URWPalladioL-Roma-31"/>
       <use transform="translate(200.498102 0)scale(1.038107)" xlink:href="#CMSY10-0"/>
       <use transform="translate(282.439798 0)scale(0.996264)" xlink:href="#URWPalladioL-Roma-30"/>
       <use transform="translate(332.252998 0)scale(0.996264)" xlink:href="#URWPalladioL-Roma-38"/>
       <use transform="translate(383.311499 0)scale(1.038107)" xlink:href="#CMSY10-0"/>
       <use transform="translate(465.253195 0)scale(0.996264)" xlink:href="#URWPalladioL-Roma-30"/>
       <use transform="translate(515.066395 0)scale(0.996264)" xlink:href="#URWPalladioL-Roma-31"/>
      </g>
     </g>
    </g>
    <g id="xtick_4">
     <g id="line2d_4">
      <g>
       <use style="stroke:#000000;stroke-width:0.8;" x="153.759094" xlink:href="#m71faa3389c" y="233.928824"/>
      </g>
     </g>
     <g id="text_4">
      <!-- $\mathdefault{2021{-}08{-}15}$ -->
      <g transform="translate(155.918507 297.416762)rotate(-90)scale(0.1 -0.1)">
       <use transform="scale(0.996264)" xlink:href="#URWPalladioL-Roma-32"/>
       <use transform="translate(49.8132 0)scale(0.996264)" xlink:href="#URWPalladioL-Roma-30"/>
       <use transform="translate(99.626401 0)scale(0.996264)" xlink:href="#URWPalladioL-Roma-32"/>
       <use transform="translate(149.439601 0)scale(0.996264)" xlink:href="#URWPalladioL-Roma-31"/>
       <use transform="translate(200.498102 0)scale(1.038107)" xlink:href="#CMSY10-0"/>
       <use transform="translate(282.439798 0)scale(0.996264)" xlink:href="#URWPalladioL-Roma-30"/>
       <use transform="translate(332.252998 0)scale(0.996264)" xlink:href="#URWPalladioL-Roma-38"/>
       <use transform="translate(383.311499 0)scale(1.038107)" xlink:href="#CMSY10-0"/>
       <use transform="translate(465.253195 0)scale(0.996264)" xlink:href="#URWPalladioL-Roma-31"/>
       <use transform="translate(515.066395 0)scale(0.996264)" xlink:href="#URWPalladioL-Roma-35"/>
      </g>
     </g>
    </g>
    <g id="xtick_5">
     <g id="line2d_5">
      <g>
       <use style="stroke:#000000;stroke-width:0.8;" x="185.806391" xlink:href="#m71faa3389c" y="233.928824"/>
      </g>
     </g>
     <g id="text_5">
      <!-- $\mathdefault{2021{-}09{-}01}$ -->
      <g transform="translate(187.965804 297.416762)rotate(-90)scale(0.1 -0.1)">
       <defs>
        <path d="M 614 -106 
C 1325 125 1632 272 1978 566 
C 2598 1098 2925 1835 2925 2693 
C 2925 3776 2406 4435 1562 4435 
C 742 4435 128 3795 128 2938 
C 128 2201 608 1664 1274 1664 
C 1491 1664 1741 1734 1856 1830 
L 2304 2202 
C 2253 1125 1555 336 397 54 
L 397 3 
L 614 -106 
z
M 1536 4224 
C 1824 4224 2035 4102 2176 3846 
C 2291 3641 2368 3328 2368 3040 
C 2368 2451 2029 2055 1536 2055 
C 1024 2055 678 2509 678 3174 
C 678 3821 1011 4224 1536 4224 
z
" id="URWPalladioL-Roma-39" transform="scale(0.015625)"/>
       </defs>
       <use transform="scale(0.996264)" xlink:href="#URWPalladioL-Roma-32"/>
       <use transform="translate(49.8132 0)scale(0.996264)" xlink:href="#URWPalladioL-Roma-30"/>
       <use transform="translate(99.626401 0)scale(0.996264)" xlink:href="#URWPalladioL-Roma-32"/>
       <use transform="translate(149.439601 0)scale(0.996264)" xlink:href="#URWPalladioL-Roma-31"/>
       <use transform="translate(200.498102 0)scale(1.038107)" xlink:href="#CMSY10-0"/>
       <use transform="translate(282.439798 0)scale(0.996264)" xlink:href="#URWPalladioL-Roma-30"/>
       <use transform="translate(332.252998 0)scale(0.996264)" xlink:href="#URWPalladioL-Roma-39"/>
       <use transform="translate(383.311499 0)scale(1.038107)" xlink:href="#CMSY10-0"/>
       <use transform="translate(465.253195 0)scale(0.996264)" xlink:href="#URWPalladioL-Roma-30"/>
       <use transform="translate(515.066395 0)scale(0.996264)" xlink:href="#URWPalladioL-Roma-31"/>
      </g>
     </g>
    </g>
    <g id="xtick_6">
     <g id="line2d_6">
      <g>
       <use style="stroke:#000000;stroke-width:0.8;" x="212.198283" xlink:href="#m71faa3389c" y="233.928824"/>
      </g>
     </g>
     <g id="text_6">
      <!-- $\mathdefault{2021{-}09{-}15}$ -->
      <g transform="translate(214.357696 297.416762)rotate(-90)scale(0.1 -0.1)">
       <use transform="scale(0.996264)" xlink:href="#URWPalladioL-Roma-32"/>
       <use transform="translate(49.8132 0)scale(0.996264)" xlink:href="#URWPalladioL-Roma-30"/>
       <use transform="translate(99.626401 0)scale(0.996264)" xlink:href="#URWPalladioL-Roma-32"/>
       <use transform="translate(149.439601 0)scale(0.996264)" xlink:href="#URWPalladioL-Roma-31"/>
       <use transform="translate(200.498102 0)scale(1.038107)" xlink:href="#CMSY10-0"/>
       <use transform="translate(282.439798 0)scale(0.996264)" xlink:href="#URWPalladioL-Roma-30"/>
       <use transform="translate(332.252998 0)scale(0.996264)" xlink:href="#URWPalladioL-Roma-39"/>
       <use transform="translate(383.311499 0)scale(1.038107)" xlink:href="#CMSY10-0"/>
       <use transform="translate(465.253195 0)scale(0.996264)" xlink:href="#URWPalladioL-Roma-31"/>
       <use transform="translate(515.066395 0)scale(0.996264)" xlink:href="#URWPalladioL-Roma-35"/>
      </g>
     </g>
    </g>
    <g id="xtick_7">
     <g id="line2d_7">
      <g>
       <use style="stroke:#000000;stroke-width:0.8;" x="242.360445" xlink:href="#m71faa3389c" y="233.928824"/>
      </g>
     </g>
     <g id="text_7">
      <!-- $\mathdefault{2021{-}10{-}01}$ -->
      <g transform="translate(244.519858 297.416762)rotate(-90)scale(0.1 -0.1)">
       <use transform="scale(0.996264)" xlink:href="#URWPalladioL-Roma-32"/>
       <use transform="translate(49.8132 0)scale(0.996264)" xlink:href="#URWPalladioL-Roma-30"/>
       <use transform="translate(99.626401 0)scale(0.996264)" xlink:href="#URWPalladioL-Roma-32"/>
       <use transform="translate(149.439601 0)scale(0.996264)" xlink:href="#URWPalladioL-Roma-31"/>
       <use transform="translate(200.498102 0)scale(1.038107)" xlink:href="#CMSY10-0"/>
       <use transform="translate(282.439798 0)scale(0.996264)" xlink:href="#URWPalladioL-Roma-31"/>
       <use transform="translate(332.252998 0)scale(0.996264)" xlink:href="#URWPalladioL-Roma-30"/>
       <use transform="translate(383.311499 0)scale(1.038107)" xlink:href="#CMSY10-0"/>
       <use transform="translate(465.253195 0)scale(0.996264)" xlink:href="#URWPalladioL-Roma-30"/>
       <use transform="translate(515.066395 0)scale(0.996264)" xlink:href="#URWPalladioL-Roma-31"/>
      </g>
     </g>
    </g>
    <g id="xtick_8">
     <g id="line2d_8">
      <g>
       <use style="stroke:#000000;stroke-width:0.8;" x="268.752337" xlink:href="#m71faa3389c" y="233.928824"/>
      </g>
     </g>
     <g id="text_8">
      <!-- $\mathdefault{2021{-}10{-}15}$ -->
      <g transform="translate(270.91175 297.416762)rotate(-90)scale(0.1 -0.1)">
       <use transform="scale(0.996264)" xlink:href="#URWPalladioL-Roma-32"/>
       <use transform="translate(49.8132 0)scale(0.996264)" xlink:href="#URWPalladioL-Roma-30"/>
       <use transform="translate(99.626401 0)scale(0.996264)" xlink:href="#URWPalladioL-Roma-32"/>
       <use transform="translate(149.439601 0)scale(0.996264)" xlink:href="#URWPalladioL-Roma-31"/>
       <use transform="translate(200.498102 0)scale(1.038107)" xlink:href="#CMSY10-0"/>
       <use transform="translate(282.439798 0)scale(0.996264)" xlink:href="#URWPalladioL-Roma-31"/>
       <use transform="translate(332.252998 0)scale(0.996264)" xlink:href="#URWPalladioL-Roma-30"/>
       <use transform="translate(383.311499 0)scale(1.038107)" xlink:href="#CMSY10-0"/>
       <use transform="translate(465.253195 0)scale(0.996264)" xlink:href="#URWPalladioL-Roma-31"/>
       <use transform="translate(515.066395 0)scale(0.996264)" xlink:href="#URWPalladioL-Roma-35"/>
      </g>
     </g>
    </g>
    <g id="xtick_9">
     <g id="line2d_9">
      <g>
       <use style="stroke:#000000;stroke-width:0.8;" x="300.799634" xlink:href="#m71faa3389c" y="233.928824"/>
      </g>
     </g>
     <g id="text_9">
      <!-- $\mathdefault{2021{-}11{-}01}$ -->
      <g transform="translate(302.959047 297.416762)rotate(-90)scale(0.1 -0.1)">
       <use transform="scale(0.996264)" xlink:href="#URWPalladioL-Roma-32"/>
       <use transform="translate(49.8132 0)scale(0.996264)" xlink:href="#URWPalladioL-Roma-30"/>
       <use transform="translate(99.626401 0)scale(0.996264)" xlink:href="#URWPalladioL-Roma-32"/>
       <use transform="translate(149.439601 0)scale(0.996264)" xlink:href="#URWPalladioL-Roma-31"/>
       <use transform="translate(200.498102 0)scale(1.038107)" xlink:href="#CMSY10-0"/>
       <use transform="translate(282.439798 0)scale(0.996264)" xlink:href="#URWPalladioL-Roma-31"/>
       <use transform="translate(332.252998 0)scale(0.996264)" xlink:href="#URWPalladioL-Roma-31"/>
       <use transform="translate(383.311499 0)scale(1.038107)" xlink:href="#CMSY10-0"/>
       <use transform="translate(465.253195 0)scale(0.996264)" xlink:href="#URWPalladioL-Roma-30"/>
       <use transform="translate(515.066395 0)scale(0.996264)" xlink:href="#URWPalladioL-Roma-31"/>
      </g>
     </g>
    </g>
    <g id="xtick_10">
     <g id="line2d_10">
      <g>
       <use style="stroke:#000000;stroke-width:0.8;" x="327.191526" xlink:href="#m71faa3389c" y="233.928824"/>
      </g>
     </g>
     <g id="text_10">
      <!-- $\mathdefault{2021{-}11{-}15}$ -->
      <g transform="translate(329.350939 297.416762)rotate(-90)scale(0.1 -0.1)">
       <use transform="scale(0.996264)" xlink:href="#URWPalladioL-Roma-32"/>
       <use transform="translate(49.8132 0)scale(0.996264)" xlink:href="#URWPalladioL-Roma-30"/>
       <use transform="translate(99.626401 0)scale(0.996264)" xlink:href="#URWPalladioL-Roma-32"/>
       <use transform="translate(149.439601 0)scale(0.996264)" xlink:href="#URWPalladioL-Roma-31"/>
       <use transform="translate(200.498102 0)scale(1.038107)" xlink:href="#CMSY10-0"/>
       <use transform="translate(282.439798 0)scale(0.996264)" xlink:href="#URWPalladioL-Roma-31"/>
       <use transform="translate(332.252998 0)scale(0.996264)" xlink:href="#URWPalladioL-Roma-31"/>
       <use transform="translate(383.311499 0)scale(1.038107)" xlink:href="#CMSY10-0"/>
       <use transform="translate(465.253195 0)scale(0.996264)" xlink:href="#URWPalladioL-Roma-31"/>
       <use transform="translate(515.066395 0)scale(0.996264)" xlink:href="#URWPalladioL-Roma-35"/>
      </g>
     </g>
    </g>
   </g>
   <g id="matplotlib.axis_2">
    <g id="ytick_1">
     <g id="line2d_11">
      <defs>
       <path d="M 0 0 
L -3.5 0 
" id="m313365cf59" style="stroke:#000000;stroke-width:0.8;"/>
      </defs>
      <g>
       <use style="stroke:#000000;stroke-width:0.8;" x="60.444904" xlink:href="#m313365cf59" y="233.928824"/>
      </g>
     </g>
     <g id="text_11">
      <!-- $\mathdefault{0}$ -->
      <g transform="translate(48.463584 237.492943)scale(0.1 -0.1)">
       <use transform="scale(0.996264)" xlink:href="#URWPalladioL-Roma-30"/>
      </g>
     </g>
    </g>
    <g id="ytick_2">
     <g id="line2d_12">
      <g>
       <use style="stroke:#000000;stroke-width:0.8;" x="60.444904" xlink:href="#m313365cf59" y="193.032296"/>
      </g>
     </g>
     <g id="text_12">
      <!-- $\mathdefault{20}$ -->
      <g transform="translate(43.482264 196.596415)scale(0.1 -0.1)">
       <use transform="scale(0.996264)" xlink:href="#URWPalladioL-Roma-32"/>
       <use transform="translate(49.8132 0)scale(0.996264)" xlink:href="#URWPalladioL-Roma-30"/>
      </g>
     </g>
    </g>
    <g id="ytick_3">
     <g id="line2d_13">
      <g>
       <use style="stroke:#000000;stroke-width:0.8;" x="60.444904" xlink:href="#m313365cf59" y="152.135768"/>
      </g>
     </g>
     <g id="text_13">
      <!-- $\mathdefault{40}$ -->
      <g transform="translate(43.482264 155.699887)scale(0.1 -0.1)">
       <defs>
        <path d="M 1792 1152 
L 1792 673 
C 1792 289 1722 199 1408 199 
L 1011 199 
L 1011 0 
C 1862 0 1862 0 2016 0 
C 2170 0 2170 0 3021 0 
L 3021 199 
L 2714 199 
C 2400 199 2330 282 2330 669 
L 2330 1152 
C 2707 1152 2842 1152 3021 1133 
L 3021 1588 
C 2720 1563 2598 1563 2502 1563 
L 2483 1563 
L 2330 1563 
L 2330 2457 
C 2330 3600 2342 4152 2374 4416 
L 2298 4448 
L 1824 4275 
L 13 1299 
L 83 1152 
L 1792 1152 
z
M 1792 1563 
L 416 1563 
L 1792 3826 
L 1792 1563 
z
" id="URWPalladioL-Roma-34" transform="scale(0.015625)"/>
       </defs>
       <use transform="scale(0.996264)" xlink:href="#URWPalladioL-Roma-34"/>
       <use transform="translate(49.8132 0)scale(0.996264)" xlink:href="#URWPalladioL-Roma-30"/>
      </g>
     </g>
    </g>
    <g id="ytick_4">
     <g id="line2d_14">
      <g>
       <use style="stroke:#000000;stroke-width:0.8;" x="60.444904" xlink:href="#m313365cf59" y="111.23924"/>
      </g>
     </g>
     <g id="text_14">
      <!-- $\mathdefault{60}$ -->
      <g transform="translate(43.482264 114.803359)scale(0.1 -0.1)">
       <defs>
        <path d="M 2662 4310 
L 2426 4419 
C 1811 4214 1549 4086 1222 3804 
C 563 3246 205 2464 205 1585 
C 205 526 717 -128 1542 -128 
C 2374 -128 2995 532 2995 1405 
C 2995 2143 2554 2624 1875 2624 
C 1555 2624 1363 2540 986 2239 
C 915 2181 909 2175 838 2124 
C 973 3284 1510 3913 2662 4259 
L 2662 4310 
z
M 1632 2239 
C 2118 2239 2445 1816 2445 1181 
C 2445 513 2118 83 1626 83 
C 1082 83 787 551 787 1412 
C 787 1636 813 1758 883 1867 
C 1024 2085 1325 2239 1632 2239 
z
" id="URWPalladioL-Roma-36" transform="scale(0.015625)"/>
       </defs>
       <use transform="scale(0.996264)" xlink:href="#URWPalladioL-Roma-36"/>
       <use transform="translate(49.8132 0)scale(0.996264)" xlink:href="#URWPalladioL-Roma-30"/>
      </g>
     </g>
    </g>
    <g id="ytick_5">
     <g id="line2d_15">
      <g>
       <use style="stroke:#000000;stroke-width:0.8;" x="60.444904" xlink:href="#m313365cf59" y="70.342712"/>
      </g>
     </g>
     <g id="text_15">
      <!-- $\mathdefault{80}$ -->
      <g transform="translate(43.482264 73.906831)scale(0.1 -0.1)">
       <use transform="scale(0.996264)" xlink:href="#URWPalladioL-Roma-38"/>
       <use transform="translate(49.8132 0)scale(0.996264)" xlink:href="#URWPalladioL-Roma-30"/>
      </g>
     </g>
    </g>
    <g id="ytick_6">
     <g id="line2d_16">
      <g>
       <use style="stroke:#000000;stroke-width:0.8;" x="60.444904" xlink:href="#m313365cf59" y="29.446184"/>
      </g>
     </g>
     <g id="text_16">
      <!-- $\mathdefault{100}$ -->
      <g transform="translate(38.500944 33.010303)scale(0.1 -0.1)">
       <use transform="scale(0.996264)" xlink:href="#URWPalladioL-Roma-31"/>
       <use transform="translate(49.8132 0)scale(0.996264)" xlink:href="#URWPalladioL-Roma-30"/>
       <use transform="translate(99.626401 0)scale(0.996264)" xlink:href="#URWPalladioL-Roma-30"/>
      </g>
     </g>
    </g>
    <g id="text_17">
     <!-- case incidence (WHO) -->
     <g transform="translate(14.328237 172.03466)rotate(-90)scale(0.1 -0.1)">
      <defs>
       <path d="M 2554 1994 
C 2554 2289 2586 2552 2643 2783 
C 2387 2937 2163 3008 1901 3008 
C 1594 3008 1235 2886 851 2642 
C 403 2360 166 1911 166 1347 
C 166 481 774 -128 1632 -128 
C 1965 -128 2445 -6 2509 90 
L 2643 295 
L 2579 391 
C 2342 263 2138 205 1907 205 
C 1197 205 730 757 730 1603 
C 730 2289 1050 2674 1626 2674 
C 1907 2674 2214 2546 2330 2386 
L 2374 1994 
L 2554 1994 
z
" id="URWPalladioL-Roma-63" transform="scale(0.015625)"/>
       <path d="M 2074 538 
L 2042 -1 
C 2458 -1 2458 -1 2541 -1 
C 2573 -1 2733 -1 3014 -1 
L 3014 192 
L 2765 192 
C 2611 192 2586 244 2586 558 
L 2586 1731 
C 2586 2668 2317 3008 1574 3008 
C 1299 3008 1043 2937 800 2791 
L 461 2585 
L 461 2171 
L 627 2126 
L 710 2323 
C 845 2623 909 2668 1203 2668 
C 1805 2668 2054 2431 2074 1852 
L 1440 1736 
C 570 1577 205 1277 205 722 
C 205 224 506 -64 1011 -64 
C 1126 -64 1235 -45 1280 -13 
L 2074 538 
z
M 2074 806 
C 1888 544 1485 302 1235 302 
C 979 302 755 538 755 812 
C 755 1048 883 1271 1075 1392 
C 1235 1488 1587 1577 2074 1648 
L 2074 806 
z
" id="URWPalladioL-Roma-61" transform="scale(0.015625)"/>
       <path d="M 262 917 
C 262 475 243 282 192 26 
C 525 -83 774 -128 1069 -128 
C 1907 -128 2502 321 2502 949 
C 2502 1148 2445 1295 2323 1424 
C 2157 1584 1946 1661 1382 1770 
C 858 1873 685 2001 685 2296 
C 685 2616 909 2796 1299 2796 
C 1728 2796 2054 2572 2054 2270 
L 2054 2123 
L 2234 2123 
C 2240 2495 2246 2648 2266 2847 
C 1926 2963 1696 3008 1434 3008 
C 691 3008 237 2655 237 2078 
C 237 1770 378 1552 672 1417 
C 845 1340 1184 1238 1619 1141 
C 1907 1077 2029 943 2029 699 
C 2029 353 1709 109 1254 109 
C 787 109 454 333 454 654 
L 454 917 
L 262 917 
z
" id="URWPalladioL-Roma-73" transform="scale(0.015625)"/>
       <path d="M 2797 447 
L 2714 511 
C 2304 269 2157 212 1882 212 
C 1466 212 1120 398 941 711 
C 819 921 774 1101 762 1472 
L 1696 1472 
C 2138 1472 2413 1472 2854 1544 
C 2861 1634 2867 1693 2867 1771 
C 2867 2520 2394 3008 1677 3008 
C 1440 3008 1165 2924 902 2770 
C 378 2469 166 2071 166 1404 
C 166 1000 262 654 435 410 
C 691 71 1120 -128 1600 -128 
C 1837 -128 2074 -77 2336 37 
C 2509 108 2643 191 2669 230 
L 2797 447 
z
M 2298 1690 
C 1965 1690 1811 1690 1581 1690 
C 1286 1690 1120 1690 774 1722 
C 774 2027 800 2169 883 2337 
C 1018 2622 1293 2796 1600 2796 
C 1811 2796 1978 2711 2093 2534 
C 2234 2319 2278 2129 2298 1690 
z
" id="URWPalladioL-Roma-65" transform="scale(0.015625)"/>
       <path d="M 1203 2993 
L 1146 3019 
C 819 2884 486 2793 147 2755 
L 147 2576 
L 384 2576 
C 640 2576 666 2531 666 2105 
L 666 651 
C 666 244 646 199 429 199 
L 134 199 
L 134 0 
C 774 0 774 0 934 0 
C 1094 0 1094 0 1734 0 
L 1734 199 
L 1440 199 
C 1222 199 1203 244 1203 651 
L 1203 2993 
z
M 909 4416 
C 717 4416 550 4249 550 4056 
C 550 3870 717 3704 902 3704 
C 1088 3704 1261 3870 1261 4056 
C 1261 4236 1088 4416 909 4416 
z
" id="URWPalladioL-Roma-69" transform="scale(0.015625)"/>
       <path d="M 2624 -7 
C 3014 -7 3021 -7 3130 -7 
C 3219 -7 3219 -7 3661 -7 
L 3661 179 
L 3398 205 
C 3181 205 3162 244 3162 654 
L 3162 1892 
C 3162 2642 2810 3008 2093 3008 
C 1856 3008 1722 2963 1587 2847 
L 1101 2424 
L 1101 2982 
L 1043 3008 
C 717 2873 384 2783 45 2745 
L 45 2565 
L 282 2565 
C 538 2565 563 2520 563 2094 
L 563 643 
C 563 237 544 192 326 192 
L 38 192 
L 38 -7 
C 474 -7 646 -7 832 -7 
C 1018 -7 1190 -7 1626 -7 
L 1626 192 
L 1338 192 
C 1120 192 1101 237 1101 643 
L 1101 2011 
C 1101 2300 1523 2616 1914 2616 
C 2342 2616 2624 2297 2624 1806 
L 2624 -7 
z
" id="URWPalladioL-Roma-6e" transform="scale(0.015625)"/>
       <path d="M 2637 2802 
C 2278 2956 2099 3008 1875 3008 
C 1702 3008 1549 2969 1389 2887 
L 826 2593 
C 461 2401 224 1935 224 1392 
C 224 881 397 460 710 204 
C 928 19 1229 -64 1645 -64 
C 1773 -64 1920 -38 1952 -13 
L 2662 583 
L 2630 -7 
C 2944 -7 3046 -7 3123 -7 
C 3174 -7 3264 -7 3398 -7 
C 3443 -7 3571 -7 3706 -7 
L 3706 192 
L 3411 192 
C 3194 192 3174 237 3174 643 
L 3174 4607 
L 3117 4659 
C 2835 4550 2624 4498 2118 4421 
L 2118 4242 
L 2477 4242 
C 2592 4242 2637 4171 2637 3978 
L 2637 2802 
z
M 2637 1424 
C 2637 1009 2624 946 2541 799 
C 2362 499 2048 302 1747 302 
C 1184 302 781 844 781 1603 
C 781 2298 1126 2706 1702 2706 
C 1946 2706 2202 2623 2426 2470 
C 2560 2381 2637 2298 2637 2246 
L 2637 1424 
z
" id="URWPalladioL-Roma-64" transform="scale(0.015625)"/>
       <path d="M 1926 -1244 
C 1466 -673 1299 -366 1133 212 
C 998 673 934 1161 934 1706 
C 934 2238 998 2693 1120 3110 
C 1286 3642 1459 3944 1926 4489 
L 1805 4656 
C 1139 4059 877 3707 634 3078 
C 467 2648 384 2193 384 1706 
C 384 1020 544 372 851 -205 
C 1075 -635 1280 -885 1805 -1379 
L 1926 -1244 
z
" id="URWPalladioL-Roma-28" transform="scale(0.015625)"/>
       <path d="M 4698 -64 
C 4723 32 4742 122 4749 154 
C 4768 218 4819 411 4870 584 
L 5850 4032 
C 5888 4147 5952 4205 6093 4218 
L 6298 4237 
L 6298 4416 
L 5626 4416 
C 5562 4416 5562 4416 4954 4416 
L 4954 4237 
L 5210 4218 
C 5434 4199 5504 4167 5510 4063 
C 5510 4044 5510 4025 5504 4005 
L 4659 872 
L 3610 3826 
C 3469 4211 3450 4262 3398 4480 
L 3194 4480 
C 3059 4082 2950 3795 2618 2935 
L 1824 917 
L 1184 3795 
C 1165 3872 1158 3942 1158 4006 
C 1158 4147 1222 4205 1395 4218 
L 1664 4237 
L 1664 4416 
L 858 4416 
C 813 4416 544 4416 51 4416 
L 51 4237 
L 230 4218 
C 416 4199 493 4128 550 3897 
L 1312 597 
C 1395 231 1395 225 1459 -64 
L 1779 -64 
C 1837 141 1888 295 2010 597 
L 3123 3429 
L 3923 1256 
C 4134 687 4154 635 4378 -64 
L 4698 -64 
z
" id="URWPalladioL-Roma-57" transform="scale(0.015625)"/>
       <path d="M 3942 773 
C 3942 257 3910 205 3616 205 
L 3309 205 
L 3309 0 
C 3686 0 3910 0 4243 0 
C 4576 0 4806 0 5184 0 
L 5184 205 
L 4877 205 
C 4582 205 4550 256 4550 766 
L 4550 3663 
C 4550 4172 4582 4224 4877 4224 
L 5184 4224 
L 5184 4423 
C 4717 4423 4576 4423 4243 4423 
C 3923 4423 3770 4423 3309 4423 
L 3309 4224 
L 3616 4224 
C 3910 4224 3942 4172 3942 3668 
L 3942 2529 
C 3808 2529 3674 2529 3411 2529 
L 1914 2529 
C 1651 2529 1510 2529 1382 2529 
L 1382 3668 
C 1382 4172 1414 4224 1709 4224 
L 2016 4224 
L 2016 4423 
C 1549 4423 1408 4423 1075 4423 
C 755 4423 602 4423 141 4423 
L 141 4224 
L 448 4224 
C 742 4224 774 4172 774 3663 
L 774 766 
C 774 256 742 205 448 205 
L 141 205 
L 141 0 
C 518 0 742 0 1075 0 
C 1408 0 1638 0 2016 0 
L 2016 205 
L 1709 205 
C 1414 205 1382 257 1382 773 
L 1382 2227 
C 1555 2240 1658 2240 1914 2240 
L 3411 2240 
C 3667 2240 3770 2240 3942 2227 
L 3942 773 
z
" id="URWPalladioL-Roma-48" transform="scale(0.015625)"/>
       <path d="M 2573 4544 
C 1114 4544 141 3596 141 2186 
C 141 839 1075 -128 2368 -128 
C 3802 -128 4890 942 4890 2351 
C 4890 3698 3994 4544 2573 4544 
z
M 2464 4274 
C 3558 4274 4205 3493 4205 2160 
C 4205 890 3616 141 2624 141 
C 1549 141 826 1051 826 2422 
C 826 3607 1414 4274 2464 4274 
z
" id="URWPalladioL-Roma-4f" transform="scale(0.015625)"/>
       <path d="M 326 -1379 
C 768 -962 954 -750 1152 -436 
C 1542 186 1747 930 1747 1699 
C 1747 2193 1664 2648 1498 3078 
C 1254 3700 992 4053 326 4656 
L 205 4489 
C 672 3937 845 3636 1005 3110 
C 1133 2693 1197 2238 1197 1706 
C 1197 1161 1133 673 998 212 
C 832 -366 666 -673 205 -1244 
L 326 -1379 
z
" id="URWPalladioL-Roma-29" transform="scale(0.015625)"/>
      </defs>
      <use transform="scale(0.996264)" xlink:href="#URWPalladioL-Roma-63"/>
      <use transform="translate(44.233569 0)scale(0.996264)" xlink:href="#URWPalladioL-Roma-61"/>
      <use transform="translate(94.046769 0)scale(0.996264)" xlink:href="#URWPalladioL-Roma-73"/>
      <use transform="translate(136.288236 0)scale(0.996264)" xlink:href="#URWPalladioL-Roma-65"/>
      <use transform="translate(208.915131 0)scale(0.996264)" xlink:href="#URWPalladioL-Roma-69"/>
      <use transform="translate(237.905492 0)scale(0.996264)" xlink:href="#URWPalladioL-Roma-6e"/>
      <use transform="translate(295.887553 0)scale(0.996264)" xlink:href="#URWPalladioL-Roma-63"/>
      <use transform="translate(340.121122 0)scale(0.996264)" xlink:href="#URWPalladioL-Roma-69"/>
      <use transform="translate(369.111483 0)scale(0.996264)" xlink:href="#URWPalladioL-Roma-64"/>
      <use transform="translate(429.983114 0)scale(0.996264)" xlink:href="#URWPalladioL-Roma-65"/>
      <use transform="translate(477.703409 0)scale(0.996264)" xlink:href="#URWPalladioL-Roma-6e"/>
      <use transform="translate(535.68547 0)scale(0.996264)" xlink:href="#URWPalladioL-Roma-63"/>
      <use transform="translate(579.919038 0)scale(0.996264)" xlink:href="#URWPalladioL-Roma-65"/>
      <use transform="translate(652.545934 0)scale(0.996264)" xlink:href="#URWPalladioL-Roma-28"/>
      <use transform="translate(685.721163 0)scale(0.996264)" xlink:href="#URWPalladioL-Roma-57"/>
      <use transform="translate(785.347564 0)scale(0.996264)" xlink:href="#URWPalladioL-Roma-48"/>
      <use transform="translate(868.236225 0)scale(0.996264)" xlink:href="#URWPalladioL-Roma-4f"/>
      <use transform="translate(946.542507 0)scale(0.996264)" xlink:href="#URWPalladioL-Roma-29"/>
     </g>
     <!-- new cases over 7 days per 100000 -->
     <g transform="translate(25.691533 196.358394)rotate(-90)scale(0.1 -0.1)">
      <defs>
       <path d="M 2643 3008 
C 2118 1788 2022 1571 1626 677 
L 1088 2444 
C 1069 2502 1062 2553 1062 2604 
C 1062 2700 1146 2752 1306 2752 
L 1562 2752 
L 1562 2932 
C 928 2932 928 2932 800 2932 
C 672 2932 672 2932 38 2932 
L 38 2765 
L 218 2752 
C 397 2739 480 2612 640 2114 
L 1293 -32 
L 1594 -32 
L 2221 1437 
C 2253 1514 2323 1667 2426 1884 
L 2554 2152 
L 3424 -32 
L 3718 -32 
C 3763 102 3814 249 3866 389 
C 3994 767 4134 1162 4160 1201 
L 4595 2196 
C 4787 2625 4864 2733 5005 2752 
L 5171 2765 
L 5171 2932 
C 4646 2932 4646 2932 4544 2932 
C 4442 2932 4442 2932 3917 2932 
L 3917 2752 
L 4134 2752 
C 4294 2752 4384 2675 4384 2559 
C 4384 2489 4371 2412 4339 2329 
L 4019 1433 
C 3968 1292 3917 1163 3712 638 
L 2976 2490 
C 2886 2707 2842 2835 2790 3008 
L 2643 3008 
z
" id="URWPalladioL-Roma-77" transform="scale(0.015625)"/>
       <path d="M 1786 3008 
C 851 3008 205 2347 205 1392 
C 205 487 774 -128 1600 -128 
C 2586 -128 3290 558 3290 1520 
C 3290 2386 2662 3008 1786 3008 
z
M 1670 2796 
C 2259 2796 2694 2155 2694 1283 
C 2694 545 2368 83 1850 83 
C 1222 83 800 699 800 1610 
C 800 2379 1107 2796 1670 2796 
z
" id="URWPalladioL-Roma-6f" transform="scale(0.015625)"/>
       <path d="M 3450 2752 
L 3450 2932 
C 3066 2932 2950 2932 2848 2932 
C 2746 2932 2630 2932 2246 2932 
L 2246 2752 
L 2509 2752 
C 2611 2752 2662 2694 2662 2591 
C 2662 2489 2618 2317 2541 2124 
L 2272 1445 
C 2195 1259 2118 1080 1875 549 
L 1114 2393 
C 1075 2482 1056 2566 1056 2636 
C 1056 2707 1114 2752 1216 2752 
L 1530 2752 
L 1530 2932 
C 902 2932 902 2932 781 2932 
C 659 2932 352 2932 38 2932 
L 38 2752 
L 256 2752 
C 352 2739 384 2701 454 2541 
L 1555 -32 
L 1875 -32 
C 1914 77 1978 243 1978 256 
C 2048 447 2131 664 2138 664 
L 2893 2324 
C 3034 2625 3123 2739 3251 2752 
L 3450 2752 
z
" id="URWPalladioL-Roma-76" transform="scale(0.015625)"/>
       <path d="M 147 2565 
L 384 2565 
C 640 2565 666 2520 666 2094 
L 666 643 
C 666 237 646 192 429 192 
L 134 192 
L 134 -7 
C 595 -7 762 -7 922 -7 
C 1050 -7 1050 -7 1837 -7 
L 1837 192 
L 1504 192 
C 1216 192 1203 211 1203 638 
L 1203 1751 
C 1203 2139 1459 2463 1773 2463 
C 1965 2463 2099 2373 2202 2169 
L 2336 2169 
L 2394 2937 
C 2323 2982 2208 3008 2093 3008 
C 1901 3008 1696 2905 1562 2745 
L 1203 2322 
L 1203 2982 
L 1146 3008 
C 819 2873 486 2783 147 2745 
L 147 2565 
z
" id="URWPalladioL-Roma-72" transform="scale(0.015625)"/>
       <path d="M 1901 564 
C 1760 808 1690 956 1574 1270 
L 1165 2347 
C 1126 2456 1101 2552 1101 2618 
C 1101 2710 1171 2764 1318 2764 
L 1562 2764 
L 1562 2944 
C 941 2944 941 2944 819 2944 
C 698 2944 698 2944 77 2944 
L 77 2777 
L 192 2764 
C 352 2745 429 2674 525 2451 
L 1222 775 
C 1402 340 1466 186 1581 -134 
L 1434 -524 
C 1229 -1062 979 -1362 736 -1362 
C 634 -1362 518 -1311 410 -1215 
L 326 -1215 
L 173 -1696 
C 294 -1760 397 -1792 518 -1792 
C 947 -1792 1222 -1562 1466 -1005 
L 2765 1990 
C 3021 2572 3142 2745 3302 2764 
L 3482 2777 
L 3482 2944 
C 2976 2944 2976 2944 2874 2944 
C 2771 2944 2771 2944 2266 2944 
L 2266 2777 
L 2432 2764 
C 2611 2751 2701 2694 2701 2604 
C 2701 2559 2688 2501 2662 2437 
L 1901 564 
z
" id="URWPalladioL-Roma-79" transform="scale(0.015625)"/>
       <path d="M 64 2565 
L 301 2565 
C 557 2565 582 2520 582 2095 
L 582 -1142 
C 582 -1548 563 -1593 346 -1593 
L 51 -1593 
L 51 -1792 
C 691 -1792 691 -1792 851 -1792 
C 1011 -1792 1011 -1792 1651 -1792 
L 1651 -1593 
L 1357 -1593 
C 1139 -1593 1120 -1547 1120 -1138 
L 1120 89 
C 1312 -26 1517 -71 1805 -71 
C 1990 -71 2157 -32 2259 32 
L 2989 505 
C 3245 672 3546 1330 3546 1740 
C 3546 2451 2957 3008 2214 3008 
C 1978 3008 1747 2943 1645 2847 
L 1120 2367 
L 1120 2982 
L 1062 3008 
C 736 2873 403 2783 64 2745 
L 64 2565 
z
M 1120 1964 
C 1120 2053 1152 2124 1235 2233 
C 1421 2469 1683 2591 2003 2591 
C 2605 2591 2989 2169 2989 1504 
C 2989 787 2560 256 1984 256 
C 1632 256 1370 372 1120 633 
L 1120 1964 
z
" id="URWPalladioL-Roma-70" transform="scale(0.015625)"/>
      </defs>
      <use transform="scale(0.996264)" xlink:href="#URWPalladioL-Roma-6e"/>
      <use transform="translate(57.982061 0)scale(0.996264)" xlink:href="#URWPalladioL-Roma-65"/>
      <use transform="translate(105.702356 0)scale(0.996264)" xlink:href="#URWPalladioL-Roma-77"/>
      <use transform="translate(213.697049 0)scale(0.996264)" xlink:href="#URWPalladioL-Roma-63"/>
      <use transform="translate(257.930618 0)scale(0.996264)" xlink:href="#URWPalladioL-Roma-61"/>
      <use transform="translate(307.743818 0)scale(0.996264)" xlink:href="#URWPalladioL-Roma-73"/>
      <use transform="translate(349.985285 0)scale(0.996264)" xlink:href="#URWPalladioL-Roma-65"/>
      <use transform="translate(397.70558 0)scale(0.996264)" xlink:href="#URWPalladioL-Roma-73"/>
      <use transform="translate(464.853646 0)scale(0.996264)" xlink:href="#URWPalladioL-Roma-6f"/>
      <use transform="translate(519.249227 0)scale(0.996264)" xlink:href="#URWPalladioL-Roma-76"/>
      <use transform="translate(575.53714 0)scale(0.996264)" xlink:href="#URWPalladioL-Roma-65"/>
      <use transform="translate(623.257435 0)scale(0.996264)" xlink:href="#URWPalladioL-Roma-72"/>
      <use transform="translate(687.515931 0)scale(0.996264)" xlink:href="#URWPalladioL-Roma-37"/>
      <use transform="translate(762.235732 0)scale(0.996264)" xlink:href="#URWPalladioL-Roma-64"/>
      <use transform="translate(823.107363 0)scale(0.996264)" xlink:href="#URWPalladioL-Roma-61"/>
      <use transform="translate(872.920563 0)scale(0.996264)" xlink:href="#URWPalladioL-Roma-79"/>
      <use transform="translate(928.31224 0)scale(0.996264)" xlink:href="#URWPalladioL-Roma-73"/>
      <use transform="translate(995.460307 0)scale(0.996264)" xlink:href="#URWPalladioL-Roma-70"/>
      <use transform="translate(1055.334701 0)scale(0.996264)" xlink:href="#URWPalladioL-Roma-65"/>
      <use transform="translate(1103.054996 0)scale(0.996264)" xlink:href="#URWPalladioL-Roma-72"/>
      <use transform="translate(1167.313492 0)scale(0.996264)" xlink:href="#URWPalladioL-Roma-31"/>
      <use transform="translate(1217.126693 0)scale(0.996264)" xlink:href="#URWPalladioL-Roma-30"/>
      <use transform="translate(1266.939893 0)scale(0.996264)" xlink:href="#URWPalladioL-Roma-30"/>
      <use transform="translate(1316.753094 0)scale(0.996264)" xlink:href="#URWPalladioL-Roma-30"/>
      <use transform="translate(1366.566294 0)scale(0.996264)" xlink:href="#URWPalladioL-Roma-30"/>
      <use transform="translate(1416.379495 0)scale(0.996264)" xlink:href="#URWPalladioL-Roma-30"/>
     </g>
    </g>
   </g>
   <g id="line2d_17">
    <path clip-path="url(#pd1fd13d688)" d="M 60.444904 193.032296 
L 339.444904 193.032296 
" style="fill:none;stroke:#ffff00;stroke-linecap:square;stroke-width:1.5;"/>
   </g>
   <g id="line2d_18">
    <path clip-path="url(#pd1fd13d688)" d="M 60.444904 131.687504 
L 339.444904 131.687504 
" style="fill:none;stroke:#ffa500;stroke-linecap:square;stroke-width:1.5;"/>
   </g>
   <g id="line2d_19">
    <path clip-path="url(#pd1fd13d688)" style="fill:none;stroke:#ff0000;stroke-linecap:square;stroke-width:1.5;"/>
   </g>
   <g id="patch_151">
    <path d="M 60.444904 233.928824 
L 60.444904 12.168824 
" style="fill:none;stroke:#000000;stroke-linecap:square;stroke-linejoin:miter;stroke-width:0.8;"/>
   </g>
   <g id="patch_152">
    <path d="M 60.444904 233.928824 
L 339.444904 233.928824 
" style="fill:none;stroke:#000000;stroke-linecap:square;stroke-linejoin:miter;stroke-width:0.8;"/>
   </g>
   <g id="text_18">
    <!-- low incidence of community transmission -->
    <g style="fill:#ffff00;" transform="translate(347.814904 195.191709)scale(0.1 -0.1)">
     <defs>
      <path d="M 147 4256 
L 506 4256 
C 621 4256 666 4185 666 3992 
L 666 651 
C 666 244 646 199 429 199 
L 134 199 
L 134 0 
C 774 0 774 0 934 0 
C 1094 0 1094 0 1734 0 
L 1734 199 
L 1440 199 
C 1222 199 1203 244 1203 650 
L 1203 4621 
L 1146 4673 
C 864 4564 653 4512 147 4435 
L 147 4256 
z
" id="URWPalladioL-Roma-6c" transform="scale(0.015625)"/>
      <path d="M 2182 4601 
C 2048 4652 1971 4672 1888 4672 
C 1683 4672 1459 4563 1318 4404 
L 947 3985 
C 762 3775 678 3490 678 3070 
L 678 2803 
L 237 2604 
L 237 2476 
L 678 2476 
L 678 651 
C 678 244 659 199 442 199 
L 147 199 
L 147 0 
C 787 0 787 0 947 0 
C 1107 0 1107 0 1747 0 
L 1747 199 
L 1453 199 
C 1235 199 1216 245 1216 653 
L 1216 2489 
L 2010 2489 
L 2054 2816 
L 1216 2816 
L 1216 3350 
C 1216 4073 1299 4248 1664 4248 
C 1837 4248 1952 4204 2106 4071 
L 2182 4109 
L 2182 4601 
z
" id="URWPalladioL-Roma-66" transform="scale(0.015625)"/>
      <path d="M 115 2565 
L 352 2565 
C 608 2565 634 2520 634 2094 
L 634 643 
C 634 237 614 192 397 192 
L 102 192 
L 102 -7 
C 717 -7 736 -7 915 -7 
C 1094 -7 1261 -7 1677 -7 
L 1677 179 
L 1408 205 
C 1190 205 1171 250 1171 654 
L 1171 2014 
C 1171 2302 1594 2616 1978 2616 
C 2323 2616 2560 2287 2560 1798 
L 2560 643 
C 2560 237 2541 192 2323 192 
L 2029 192 
L 2029 -7 
C 2669 -7 2669 -7 2829 -7 
C 2989 -7 2989 -7 3629 -7 
L 3629 192 
L 3334 192 
C 3117 192 3098 237 3098 643 
L 3098 2011 
C 3098 2300 3520 2616 3904 2616 
C 4250 2616 4486 2291 4486 1806 
L 4486 -7 
C 4877 -7 4883 -7 4992 -7 
C 5075 -7 5075 -7 5562 -7 
L 5562 192 
L 5261 192 
C 5043 192 5024 237 5024 643 
L 5024 1970 
C 5024 2608 4653 3008 4064 3008 
C 3840 3008 3654 2950 3539 2847 
L 3053 2412 
C 2848 2834 2586 3008 2144 3008 
C 1907 3008 1728 2950 1613 2847 
L 1171 2437 
L 1171 2982 
L 1114 3008 
C 787 2873 454 2783 115 2745 
L 115 2565 
z
" id="URWPalladioL-Roma-6d" transform="scale(0.015625)"/>
      <path d="M 3219 3009 
L 3162 3035 
C 2835 2900 2502 2810 2163 2772 
L 2163 2592 
L 2400 2592 
C 2656 2592 2682 2547 2682 2121 
L 2682 1070 
C 2682 928 2592 747 2445 599 
C 2266 418 2061 327 1811 327 
C 1587 327 1408 398 1306 521 
C 1216 624 1171 824 1171 1107 
L 1171 3009 
L 1114 3035 
C 787 2900 454 2810 115 2772 
L 115 2592 
L 352 2592 
C 608 2592 634 2547 634 2122 
L 634 1039 
C 634 587 672 387 787 227 
C 928 33 1171 -64 1536 -64 
C 1824 -64 2080 26 2253 186 
L 2682 585 
C 2682 401 2675 298 2656 0 
C 3085 0 3091 0 3187 0 
C 3277 0 3277 0 3718 0 
L 3718 186 
L 3456 212 
C 3238 212 3219 251 3219 664 
L 3219 3009 
z
" id="URWPalladioL-Roma-75" transform="scale(0.015625)"/>
      <path d="M 627 2476 
L 627 619 
C 627 142 838 -64 1331 -64 
C 1478 -64 1632 -32 1670 13 
L 1978 353 
L 1894 463 
C 1734 372 1638 340 1517 340 
C 1267 340 1165 470 1165 788 
L 1165 2489 
L 1984 2489 
L 2042 2816 
L 1165 2816 
L 1165 3056 
C 1165 3321 1184 3547 1235 3951 
L 1158 4021 
C 1005 3925 813 3842 614 3778 
C 634 3585 640 3463 640 3271 
L 640 2822 
L 141 2598 
L 141 2476 
L 627 2476 
z
" id="URWPalladioL-Roma-74" transform="scale(0.015625)"/>
     </defs>
     <use transform="scale(0.996264)" xlink:href="#URWPalladioL-Roma-6c"/>
     <use transform="translate(28.990361 0)scale(0.996264)" xlink:href="#URWPalladioL-Roma-6f"/>
     <use transform="translate(83.385942 0)scale(0.996264)" xlink:href="#URWPalladioL-Roma-77"/>
     <use transform="translate(191.380635 0)scale(0.996264)" xlink:href="#URWPalladioL-Roma-69"/>
     <use transform="translate(220.370996 0)scale(0.996264)" xlink:href="#URWPalladioL-Roma-6e"/>
     <use transform="translate(278.353057 0)scale(0.996264)" xlink:href="#URWPalladioL-Roma-63"/>
     <use transform="translate(322.586626 0)scale(0.996264)" xlink:href="#URWPalladioL-Roma-69"/>
     <use transform="translate(351.576987 0)scale(0.996264)" xlink:href="#URWPalladioL-Roma-64"/>
     <use transform="translate(412.448618 0)scale(0.996264)" xlink:href="#URWPalladioL-Roma-65"/>
     <use transform="translate(460.168913 0)scale(0.996264)" xlink:href="#URWPalladioL-Roma-6e"/>
     <use transform="translate(518.150974 0)scale(0.996264)" xlink:href="#URWPalladioL-Roma-63"/>
     <use transform="translate(562.384542 0)scale(0.996264)" xlink:href="#URWPalladioL-Roma-65"/>
     <use transform="translate(635.011438 0)scale(0.996264)" xlink:href="#URWPalladioL-Roma-6f"/>
     <use transform="translate(689.407018 0)scale(0.996264)" xlink:href="#URWPalladioL-Roma-66"/>
     <use transform="translate(747.488848 0)scale(0.996264)" xlink:href="#URWPalladioL-Roma-63"/>
     <use transform="translate(791.722417 0)scale(0.996264)" xlink:href="#URWPalladioL-Roma-6f"/>
     <use transform="translate(846.117997 0)scale(0.996264)" xlink:href="#URWPalladioL-Roma-6d"/>
     <use transform="translate(934.087671 0)scale(0.996264)" xlink:href="#URWPalladioL-Roma-6d"/>
     <use transform="translate(1022.057345 0)scale(0.996264)" xlink:href="#URWPalladioL-Roma-75"/>
     <use transform="translate(1082.13108 0)scale(0.996264)" xlink:href="#URWPalladioL-Roma-6e"/>
     <use transform="translate(1140.113141 0)scale(0.996264)" xlink:href="#URWPalladioL-Roma-69"/>
     <use transform="translate(1169.103502 0)scale(0.996264)" xlink:href="#URWPalladioL-Roma-74"/>
     <use transform="translate(1201.58059 0)scale(0.996264)" xlink:href="#URWPalladioL-Roma-79"/>
     <use transform="translate(1281.878867 0)scale(0.996264)" xlink:href="#URWPalladioL-Roma-74"/>
     <use transform="translate(1314.355955 0)scale(0.996264)" xlink:href="#URWPalladioL-Roma-72"/>
     <use transform="translate(1353.707852 0)scale(0.996264)" xlink:href="#URWPalladioL-Roma-61"/>
     <use transform="translate(1403.521052 0)scale(0.996264)" xlink:href="#URWPalladioL-Roma-6e"/>
     <use transform="translate(1461.503113 0)scale(0.996264)" xlink:href="#URWPalladioL-Roma-73"/>
     <use transform="translate(1503.744579 0)scale(0.996264)" xlink:href="#URWPalladioL-Roma-6d"/>
     <use transform="translate(1591.714253 0)scale(0.996264)" xlink:href="#URWPalladioL-Roma-69"/>
     <use transform="translate(1620.704615 0)scale(0.996264)" xlink:href="#URWPalladioL-Roma-73"/>
     <use transform="translate(1662.946081 0)scale(0.996264)" xlink:href="#URWPalladioL-Roma-73"/>
     <use transform="translate(1705.187547 0)scale(0.996264)" xlink:href="#URWPalladioL-Roma-69"/>
     <use transform="translate(1734.177909 0)scale(0.996264)" xlink:href="#URWPalladioL-Roma-6f"/>
     <use transform="translate(1788.573489 0)scale(0.996264)" xlink:href="#URWPalladioL-Roma-6e"/>
    </g>
   </g>
   <g id="text_19">
    <!-- moderate incidence of community transmission -->
    <g style="fill:#ffa500;" transform="translate(347.814904 133.846917)scale(0.1 -0.1)">
     <use transform="scale(0.996264)" xlink:href="#URWPalladioL-Roma-6d"/>
     <use transform="translate(87.969674 0)scale(0.996264)" xlink:href="#URWPalladioL-Roma-6f"/>
     <use transform="translate(142.365254 0)scale(0.996264)" xlink:href="#URWPalladioL-Roma-64"/>
     <use transform="translate(203.236885 0)scale(0.996264)" xlink:href="#URWPalladioL-Roma-65"/>
     <use transform="translate(250.95718 0)scale(0.996264)" xlink:href="#URWPalladioL-Roma-72"/>
     <use transform="translate(290.309077 0)scale(0.996264)" xlink:href="#URWPalladioL-Roma-61"/>
     <use transform="translate(340.122277 0)scale(0.996264)" xlink:href="#URWPalladioL-Roma-74"/>
     <use transform="translate(372.599365 0)scale(0.996264)" xlink:href="#URWPalladioL-Roma-65"/>
     <use transform="translate(445.22626 0)scale(0.996264)" xlink:href="#URWPalladioL-Roma-69"/>
     <use transform="translate(474.216622 0)scale(0.996264)" xlink:href="#URWPalladioL-Roma-6e"/>
     <use transform="translate(532.198682 0)scale(0.996264)" xlink:href="#URWPalladioL-Roma-63"/>
     <use transform="translate(576.432251 0)scale(0.996264)" xlink:href="#URWPalladioL-Roma-69"/>
     <use transform="translate(605.422613 0)scale(0.996264)" xlink:href="#URWPalladioL-Roma-64"/>
     <use transform="translate(666.294243 0)scale(0.996264)" xlink:href="#URWPalladioL-Roma-65"/>
     <use transform="translate(714.014538 0)scale(0.996264)" xlink:href="#URWPalladioL-Roma-6e"/>
     <use transform="translate(771.996599 0)scale(0.996264)" xlink:href="#URWPalladioL-Roma-63"/>
     <use transform="translate(816.230168 0)scale(0.996264)" xlink:href="#URWPalladioL-Roma-65"/>
     <use transform="translate(888.857063 0)scale(0.996264)" xlink:href="#URWPalladioL-Roma-6f"/>
     <use transform="translate(943.252643 0)scale(0.996264)" xlink:href="#URWPalladioL-Roma-66"/>
     <use transform="translate(1001.334473 0)scale(0.996264)" xlink:href="#URWPalladioL-Roma-63"/>
     <use transform="translate(1045.568042 0)scale(0.996264)" xlink:href="#URWPalladioL-Roma-6f"/>
     <use transform="translate(1099.963622 0)scale(0.996264)" xlink:href="#URWPalladioL-Roma-6d"/>
     <use transform="translate(1187.933296 0)scale(0.996264)" xlink:href="#URWPalladioL-Roma-6d"/>
     <use transform="translate(1275.902971 0)scale(0.996264)" xlink:href="#URWPalladioL-Roma-75"/>
     <use transform="translate(1335.976705 0)scale(0.996264)" xlink:href="#URWPalladioL-Roma-6e"/>
     <use transform="translate(1393.958766 0)scale(0.996264)" xlink:href="#URWPalladioL-Roma-69"/>
     <use transform="translate(1422.949128 0)scale(0.996264)" xlink:href="#URWPalladioL-Roma-74"/>
     <use transform="translate(1455.426215 0)scale(0.996264)" xlink:href="#URWPalladioL-Roma-79"/>
     <use transform="translate(1535.724493 0)scale(0.996264)" xlink:href="#URWPalladioL-Roma-74"/>
     <use transform="translate(1568.20158 0)scale(0.996264)" xlink:href="#URWPalladioL-Roma-72"/>
     <use transform="translate(1607.553477 0)scale(0.996264)" xlink:href="#URWPalladioL-Roma-61"/>
     <use transform="translate(1657.366677 0)scale(0.996264)" xlink:href="#URWPalladioL-Roma-6e"/>
     <use transform="translate(1715.348738 0)scale(0.996264)" xlink:href="#URWPalladioL-Roma-73"/>
     <use transform="translate(1757.590204 0)scale(0.996264)" xlink:href="#URWPalladioL-Roma-6d"/>
     <use transform="translate(1845.559879 0)scale(0.996264)" xlink:href="#URWPalladioL-Roma-69"/>
     <use transform="translate(1874.55024 0)scale(0.996264)" xlink:href="#URWPalladioL-Roma-73"/>
     <use transform="translate(1916.791706 0)scale(0.996264)" xlink:href="#URWPalladioL-Roma-73"/>
     <use transform="translate(1959.033173 0)scale(0.996264)" xlink:href="#URWPalladioL-Roma-69"/>
     <use transform="translate(1988.023534 0)scale(0.996264)" xlink:href="#URWPalladioL-Roma-6f"/>
     <use transform="translate(2042.419114 0)scale(0.996264)" xlink:href="#URWPalladioL-Roma-6e"/>
    </g>
   </g>
   <g id="text_20">
    <!-- high incidence of community transmission -->
    <g style="fill:#ff0000;" transform="translate(347.814904 14.328237)scale(0.1 -0.1)">
     <defs>
      <path d="M 45 4248 
L 403 4248 
C 518 4248 563 4177 563 3984 
L 563 643 
C 563 237 544 192 326 192 
L 38 192 
L 38 -7 
C 474 -7 646 -7 832 -7 
C 1018 -7 1190 -7 1626 -7 
L 1626 192 
L 1338 192 
C 1120 192 1101 237 1101 643 
L 1101 2011 
C 1101 2300 1523 2616 1914 2616 
C 2342 2616 2624 2297 2624 1806 
L 2624 -7 
C 3014 -7 3021 -7 3130 -7 
C 3219 -7 3219 -7 3661 -7 
L 3661 179 
L 3398 205 
C 3181 205 3162 244 3162 654 
L 3162 1892 
C 3162 2642 2810 3008 2093 3008 
C 1856 3008 1722 2963 1587 2847 
L 1101 2424 
L 1101 4613 
L 1043 4665 
C 762 4556 550 4504 45 4427 
L 45 4248 
z
" id="URWPalladioL-Roma-68" transform="scale(0.015625)"/>
      <path d="M 3322 2432 
L 3482 2695 
L 3456 2759 
L 2547 2759 
C 2310 2937 2080 3008 1766 3008 
C 1485 3008 1158 2920 896 2768 
C 538 2567 352 2258 352 1874 
C 352 1408 646 1087 1120 1036 
L 614 640 
C 550 543 518 459 518 361 
C 518 180 634 76 941 -14 
L 384 -316 
C 294 -367 205 -604 205 -803 
C 205 -1388 774 -1792 1587 -1792 
C 2554 -1792 3315 -1182 3315 -399 
C 3315 63 3008 384 2560 384 
L 1536 384 
C 1203 384 1050 462 1050 639 
C 1050 724 1101 795 1267 939 
C 1306 972 1318 985 1344 1011 
C 1408 1004 1446 998 1498 998 
C 1773 998 2112 1118 2374 1300 
C 2662 1507 2803 1759 2803 2093 
C 2803 2218 2784 2300 2733 2432 
L 3322 2432 
z
M 1536 2790 
C 1971 2790 2266 2438 2266 1905 
C 2266 1499 1997 1216 1606 1216 
C 1178 1216 890 1542 890 2025 
C 890 2507 1126 2790 1536 2790 
z
M 1837 -65 
C 2560 -65 2810 -212 2810 -630 
C 2810 -1182 2304 -1593 1632 -1593 
C 1075 -1593 691 -1266 691 -790 
C 691 -502 858 -238 1114 -129 
C 1216 -78 1395 -65 1837 -65 
z
" id="URWPalladioL-Roma-67" transform="scale(0.015625)"/>
     </defs>
     <use transform="scale(0.996264)" xlink:href="#URWPalladioL-Roma-68"/>
     <use transform="translate(57.982061 0)scale(0.996264)" xlink:href="#URWPalladioL-Roma-69"/>
     <use transform="translate(86.972422 0)scale(0.996264)" xlink:href="#URWPalladioL-Roma-67"/>
     <use transform="translate(142.364099 0)scale(0.996264)" xlink:href="#URWPalladioL-Roma-68"/>
     <use transform="translate(225.25276 0)scale(0.996264)" xlink:href="#URWPalladioL-Roma-69"/>
     <use transform="translate(254.243121 0)scale(0.996264)" xlink:href="#URWPalladioL-Roma-6e"/>
     <use transform="translate(312.225182 0)scale(0.996264)" xlink:href="#URWPalladioL-Roma-63"/>
     <use transform="translate(356.458751 0)scale(0.996264)" xlink:href="#URWPalladioL-Roma-69"/>
     <use transform="translate(385.449112 0)scale(0.996264)" xlink:href="#URWPalladioL-Roma-64"/>
     <use transform="translate(446.320743 0)scale(0.996264)" xlink:href="#URWPalladioL-Roma-65"/>
     <use transform="translate(494.041038 0)scale(0.996264)" xlink:href="#URWPalladioL-Roma-6e"/>
     <use transform="translate(552.023099 0)scale(0.996264)" xlink:href="#URWPalladioL-Roma-63"/>
     <use transform="translate(596.256668 0)scale(0.996264)" xlink:href="#URWPalladioL-Roma-65"/>
     <use transform="translate(668.883563 0)scale(0.996264)" xlink:href="#URWPalladioL-Roma-6f"/>
     <use transform="translate(723.279143 0)scale(0.996264)" xlink:href="#URWPalladioL-Roma-66"/>
     <use transform="translate(781.360973 0)scale(0.996264)" xlink:href="#URWPalladioL-Roma-63"/>
     <use transform="translate(825.594542 0)scale(0.996264)" xlink:href="#URWPalladioL-Roma-6f"/>
     <use transform="translate(879.990122 0)scale(0.996264)" xlink:href="#URWPalladioL-Roma-6d"/>
     <use transform="translate(967.959796 0)scale(0.996264)" xlink:href="#URWPalladioL-Roma-6d"/>
     <use transform="translate(1055.92947 0)scale(0.996264)" xlink:href="#URWPalladioL-Roma-75"/>
     <use transform="translate(1116.003205 0)scale(0.996264)" xlink:href="#URWPalladioL-Roma-6e"/>
     <use transform="translate(1173.985266 0)scale(0.996264)" xlink:href="#URWPalladioL-Roma-69"/>
     <use transform="translate(1202.975627 0)scale(0.996264)" xlink:href="#URWPalladioL-Roma-74"/>
     <use transform="translate(1235.452715 0)scale(0.996264)" xlink:href="#URWPalladioL-Roma-79"/>
     <use transform="translate(1315.750992 0)scale(0.996264)" xlink:href="#URWPalladioL-Roma-74"/>
     <use transform="translate(1348.22808 0)scale(0.996264)" xlink:href="#URWPalladioL-Roma-72"/>
     <use transform="translate(1387.579977 0)scale(0.996264)" xlink:href="#URWPalladioL-Roma-61"/>
     <use transform="translate(1437.393177 0)scale(0.996264)" xlink:href="#URWPalladioL-Roma-6e"/>
     <use transform="translate(1495.375238 0)scale(0.996264)" xlink:href="#URWPalladioL-Roma-73"/>
     <use transform="translate(1537.616704 0)scale(0.996264)" xlink:href="#URWPalladioL-Roma-6d"/>
     <use transform="translate(1625.586378 0)scale(0.996264)" xlink:href="#URWPalladioL-Roma-69"/>
     <use transform="translate(1654.57674 0)scale(0.996264)" xlink:href="#URWPalladioL-Roma-73"/>
     <use transform="translate(1696.818206 0)scale(0.996264)" xlink:href="#URWPalladioL-Roma-73"/>
     <use transform="translate(1739.059672 0)scale(0.996264)" xlink:href="#URWPalladioL-Roma-69"/>
     <use transform="translate(1768.050034 0)scale(0.996264)" xlink:href="#URWPalladioL-Roma-6f"/>
     <use transform="translate(1822.445614 0)scale(0.996264)" xlink:href="#URWPalladioL-Roma-6e"/>
    </g>
   </g>
  </g>
 </g>
 <defs>
  <clipPath id="pd1fd13d688">
   <rect height="221.76" width="279" x="60.444904" y="12.168824"/>
  </clipPath>
 </defs>
</svg>
