<?xml version="1.0" encoding="utf-8" standalone="no"?>
<!DOCTYPE svg PUBLIC "-//W3C//DTD SVG 1.1//EN"
  "http://www.w3.org/Graphics/SVG/1.1/DTD/svg11.dtd">
<svg xmlns:xlink="http://www.w3.org/1999/xlink" width="570.036105pt" height="281.366609pt" viewBox="0 0 570.036105 281.366609" xmlns="http://www.w3.org/2000/svg" version="1.1">
 <metadata>
  <rdf:RDF xmlns:dc="http://purl.org/dc/elements/1.1/" xmlns:cc="http://creativecommons.org/ns#" xmlns:rdf="http://www.w3.org/1999/02/22-rdf-syntax-ns#">
   <cc:Work>
    <dc:type rdf:resource="http://purl.org/dc/dcmitype/StillImage"/>
    <dc:format>image/svg+xml</dc:format>
    <dc:creator>
     <cc:Agent>
      <dc:title>Matplotlib v3.5.1, https://matplotlib.org/</dc:title>
     </cc:Agent>
    </dc:creator>
   </cc:Work>
  </rdf:RDF>
 </metadata>
 <defs>
  <style type="text/css">*{stroke-linejoin: round; stroke-linecap: butt}</style>
 </defs>
 <g id="figure_1">
  <g id="patch_1">
   <path d="M 0 281.366609 
L 570.036105 281.366609 
L 570.036105 0 
L 0 0 
z
" style="fill: #ffffff"/>
  </g>
  <g id="axes_1">
   <g id="patch_2">
    <path d="M 65.426224 228.96 
L 344.426224 228.96 
L 344.426224 7.2 
L 65.426224 7.2 
z
" style="fill: #ffffff"/>
   </g>
   <g id="patch_3">
    <path d="M 65.570784 228.96 
L 66.727261 228.96 
L 66.727261 227.587191 
L 65.570784 227.587191 
z
" clip-path="url(#p7b17340d87)" style="fill: #1f77b4"/>
   </g>
   <g id="patch_4">
    <path d="M 67.01638 228.96 
L 68.172857 228.96 
L 68.172857 227.613264 
L 67.01638 227.613264 
z
" clip-path="url(#p7b17340d87)" style="fill: #1f77b4"/>
   </g>
   <g id="patch_5">
    <path d="M 68.461976 228.96 
L 69.618452 228.96 
L 69.618452 227.651637 
L 68.461976 227.651637 
z
" clip-path="url(#p7b17340d87)" style="fill: #1f77b4"/>
   </g>
   <g id="patch_6">
    <path d="M 69.907572 228.96 
L 71.064048 228.96 
L 71.064048 227.694683 
L 69.907572 227.694683 
z
" clip-path="url(#p7b17340d87)" style="fill: #1f77b4"/>
   </g>
   <g id="patch_7">
    <path d="M 71.353167 228.96 
L 72.509644 228.96 
L 72.509644 227.705753 
L 71.353167 227.705753 
z
" clip-path="url(#p7b17340d87)" style="fill: #1f77b4"/>
   </g>
   <g id="patch_8">
    <path d="M 72.798763 228.96 
L 73.95524 228.96 
L 73.95524 227.695667 
L 72.798763 227.695667 
z
" clip-path="url(#p7b17340d87)" style="fill: #1f77b4"/>
   </g>
   <g id="patch_9">
    <path d="M 74.244359 228.96 
L 75.400836 228.96 
L 75.400836 227.672545 
L 74.244359 227.672545 
z
" clip-path="url(#p7b17340d87)" style="fill: #1f77b4"/>
   </g>
   <g id="patch_10">
    <path d="M 75.689955 228.96 
L 76.846432 228.96 
L 76.846432 227.66615 
L 75.689955 227.66615 
z
" clip-path="url(#p7b17340d87)" style="fill: #1f77b4"/>
   </g>
   <g id="patch_11">
    <path d="M 77.135551 228.96 
L 78.292028 228.96 
L 78.292028 227.643766 
L 77.135551 227.643766 
z
" clip-path="url(#p7b17340d87)" style="fill: #1f77b4"/>
   </g>
   <g id="patch_12">
    <path d="M 78.581147 228.96 
L 79.737623 228.96 
L 79.737623 227.587683 
L 78.581147 227.587683 
z
" clip-path="url(#p7b17340d87)" style="fill: #1f77b4"/>
   </g>
   <g id="patch_13">
    <path d="M 80.026743 228.96 
L 81.183219 228.96 
L 81.183219 227.530123 
L 80.026743 227.530123 
z
" clip-path="url(#p7b17340d87)" style="fill: #1f77b4"/>
   </g>
   <g id="patch_14">
    <path d="M 81.472338 228.96 
L 82.628815 228.96 
L 82.628815 227.404182 
L 81.472338 227.404182 
z
" clip-path="url(#p7b17340d87)" style="fill: #1f77b4"/>
   </g>
   <g id="patch_15">
    <path d="M 82.917934 228.96 
L 84.074411 228.96 
L 84.074411 227.257579 
L 82.917934 227.257579 
z
" clip-path="url(#p7b17340d87)" style="fill: #1f77b4"/>
   </g>
   <g id="patch_16">
    <path d="M 84.36353 228.96 
L 85.520007 228.96 
L 85.520007 227.14246 
L 84.36353 227.14246 
z
" clip-path="url(#p7b17340d87)" style="fill: #1f77b4"/>
   </g>
   <g id="patch_17">
    <path d="M 85.809126 228.96 
L 86.965603 228.96 
L 86.965603 226.999055 
L 85.809126 226.999055 
z
" clip-path="url(#p7b17340d87)" style="fill: #1f77b4"/>
   </g>
   <g id="patch_18">
    <path d="M 87.254722 228.96 
L 88.411199 228.96 
L 88.411199 226.898695 
L 87.254722 226.898695 
z
" clip-path="url(#p7b17340d87)" style="fill: #1f77b4"/>
   </g>
   <g id="patch_19">
    <path d="M 88.700318 228.96 
L 89.856794 228.96 
L 89.856794 226.744466 
L 88.700318 226.744466 
z
" clip-path="url(#p7b17340d87)" style="fill: #1f77b4"/>
   </g>
   <g id="patch_20">
    <path d="M 90.145914 228.96 
L 91.30239 228.96 
L 91.30239 226.463312 
L 90.145914 226.463312 
z
" clip-path="url(#p7b17340d87)" style="fill: #1f77b4"/>
   </g>
   <g id="patch_21">
    <path d="M 91.591509 228.96 
L 92.747986 228.96 
L 92.747986 226.202328 
L 91.591509 226.202328 
z
" clip-path="url(#p7b17340d87)" style="fill: #1f77b4"/>
   </g>
   <g id="patch_22">
    <path d="M 93.037105 228.96 
L 94.193582 228.96 
L 94.193582 225.831392 
L 93.037105 225.831392 
z
" clip-path="url(#p7b17340d87)" style="fill: #1f77b4"/>
   </g>
   <g id="patch_23">
    <path d="M 94.482701 228.96 
L 95.639178 228.96 
L 95.639178 225.408062 
L 94.482701 225.408062 
z
" clip-path="url(#p7b17340d87)" style="fill: #1f77b4"/>
   </g>
   <g id="patch_24">
    <path d="M 95.928297 228.96 
L 97.084774 228.96 
L 97.084774 224.981042 
L 95.928297 224.981042 
z
" clip-path="url(#p7b17340d87)" style="fill: #1f77b4"/>
   </g>
   <g id="patch_25">
    <path d="M 97.373893 228.96 
L 98.530369 228.96 
L 98.530369 224.689803 
L 97.373893 224.689803 
z
" clip-path="url(#p7b17340d87)" style="fill: #1f77b4"/>
   </g>
   <g id="patch_26">
    <path d="M 98.819489 228.96 
L 99.975965 228.96 
L 99.975965 224.191941 
L 98.819489 224.191941 
z
" clip-path="url(#p7b17340d87)" style="fill: #1f77b4"/>
   </g>
   <g id="patch_27">
    <path d="M 100.265085 228.96 
L 101.421561 228.96 
L 101.421561 223.673909 
L 100.265085 223.673909 
z
" clip-path="url(#p7b17340d87)" style="fill: #1f77b4"/>
   </g>
   <g id="patch_28">
    <path d="M 101.71068 228.96 
L 102.867157 228.96 
L 102.867157 223.033871 
L 101.71068 223.033871 
z
" clip-path="url(#p7b17340d87)" style="fill: #1f77b4"/>
   </g>
   <g id="patch_29">
    <path d="M 103.156276 228.96 
L 104.312753 228.96 
L 104.312753 222.481648 
L 103.156276 222.481648 
z
" clip-path="url(#p7b17340d87)" style="fill: #1f77b4"/>
   </g>
   <g id="patch_30">
    <path d="M 104.601872 228.96 
L 105.758349 228.96 
L 105.758349 221.985017 
L 104.601872 221.985017 
z
" clip-path="url(#p7b17340d87)" style="fill: #1f77b4"/>
   </g>
   <g id="patch_31">
    <path d="M 106.047468 228.96 
L 107.203945 228.96 
L 107.203945 221.587514 
L 106.047468 221.587514 
z
" clip-path="url(#p7b17340d87)" style="fill: #1f77b4"/>
   </g>
   <g id="patch_32">
    <path d="M 107.493064 228.96 
L 108.64954 228.96 
L 108.64954 221.330466 
L 107.493064 221.330466 
z
" clip-path="url(#p7b17340d87)" style="fill: #1f77b4"/>
   </g>
   <g id="patch_33">
    <path d="M 108.93866 228.96 
L 110.095136 228.96 
L 110.095136 221.093342 
L 108.93866 221.093342 
z
" clip-path="url(#p7b17340d87)" style="fill: #1f77b4"/>
   </g>
   <g id="patch_34">
    <path d="M 110.384256 228.96 
L 111.540732 228.96 
L 111.540732 220.73987 
L 110.384256 220.73987 
z
" clip-path="url(#p7b17340d87)" style="fill: #1f77b4"/>
   </g>
   <g id="patch_35">
    <path d="M 111.829851 228.96 
L 112.986328 228.96 
L 112.986328 220.46585 
L 111.829851 220.46585 
z
" clip-path="url(#p7b17340d87)" style="fill: #1f77b4"/>
   </g>
   <g id="patch_36">
    <path d="M 113.275447 228.96 
L 114.431924 228.96 
L 114.431924 220.102784 
L 113.275447 220.102784 
z
" clip-path="url(#p7b17340d87)" style="fill: #1f77b4"/>
   </g>
   <g id="patch_37">
    <path d="M 114.721043 228.96 
L 115.87752 228.96 
L 115.87752 219.765055 
L 114.721043 219.765055 
z
" clip-path="url(#p7b17340d87)" style="fill: #1f77b4"/>
   </g>
   <g id="patch_38">
    <path d="M 116.166639 228.96 
L 117.323116 228.96 
L 117.323116 219.622879 
L 116.166639 219.622879 
z
" clip-path="url(#p7b17340d87)" style="fill: #1f77b4"/>
   </g>
   <g id="patch_39">
    <path d="M 117.612235 228.96 
L 118.768711 228.96 
L 118.768711 219.604923 
L 117.612235 219.604923 
z
" clip-path="url(#p7b17340d87)" style="fill: #1f77b4"/>
   </g>
   <g id="patch_40">
    <path d="M 119.057831 228.96 
L 120.214307 228.96 
L 120.214307 219.525472 
L 119.057831 219.525472 
z
" clip-path="url(#p7b17340d87)" style="fill: #1f77b4"/>
   </g>
   <g id="patch_41">
    <path d="M 120.503426 228.96 
L 121.659903 228.96 
L 121.659903 219.30409 
L 120.503426 219.30409 
z
" clip-path="url(#p7b17340d87)" style="fill: #1f77b4"/>
   </g>
   <g id="patch_42">
    <path d="M 121.949022 228.96 
L 123.105499 228.96 
L 123.105499 219.043598 
L 121.949022 219.043598 
z
" clip-path="url(#p7b17340d87)" style="fill: #1f77b4"/>
   </g>
   <g id="patch_43">
    <path d="M 123.394618 228.96 
L 124.551095 228.96 
L 124.551095 219.048518 
L 123.394618 219.048518 
z
" clip-path="url(#p7b17340d87)" style="fill: #1f77b4"/>
   </g>
   <g id="patch_44">
    <path d="M 124.840214 228.96 
L 125.996691 228.96 
L 125.996691 218.952832 
L 124.840214 218.952832 
z
" clip-path="url(#p7b17340d87)" style="fill: #1f77b4"/>
   </g>
   <g id="patch_45">
    <path d="M 126.28581 228.96 
L 127.442287 228.96 
L 127.442287 218.850997 
L 126.28581 218.850997 
z
" clip-path="url(#p7b17340d87)" style="fill: #1f77b4"/>
   </g>
   <g id="patch_46">
    <path d="M 127.731406 228.96 
L 128.887882 228.96 
L 128.887882 218.602558 
L 127.731406 218.602558 
z
" clip-path="url(#p7b17340d87)" style="fill: #1f77b4"/>
   </g>
   <g id="patch_47">
    <path d="M 129.177002 228.96 
L 130.333478 228.96 
L 130.333478 218.407988 
L 129.177002 218.407988 
z
" clip-path="url(#p7b17340d87)" style="fill: #1f77b4"/>
   </g>
   <g id="patch_48">
    <path d="M 130.622597 228.96 
L 131.779074 228.96 
L 131.779074 218.316484 
L 130.622597 218.316484 
z
" clip-path="url(#p7b17340d87)" style="fill: #1f77b4"/>
   </g>
   <g id="patch_49">
    <path d="M 132.068193 228.96 
L 133.22467 228.96 
L 133.22467 218.306645 
L 132.068193 218.306645 
z
" clip-path="url(#p7b17340d87)" style="fill: #1f77b4"/>
   </g>
   <g id="patch_50">
    <path d="M 133.513789 228.96 
L 134.670266 228.96 
L 134.670266 218.107402 
L 133.513789 218.107402 
z
" clip-path="url(#p7b17340d87)" style="fill: #1f77b4"/>
   </g>
   <g id="patch_51">
    <path d="M 134.959385 228.96 
L 136.115862 228.96 
L 136.115862 218.037052 
L 134.959385 218.037052 
z
" clip-path="url(#p7b17340d87)" style="fill: #1f77b4"/>
   </g>
   <g id="patch_52">
    <path d="M 136.404981 228.96 
L 137.561458 228.96 
L 137.561458 218.054516 
L 136.404981 218.054516 
z
" clip-path="url(#p7b17340d87)" style="fill: #1f77b4"/>
   </g>
   <g id="patch_53">
    <path d="M 137.850577 228.96 
L 139.007053 228.96 
L 139.007053 218.183902 
L 137.850577 218.183902 
z
" clip-path="url(#p7b17340d87)" style="fill: #1f77b4"/>
   </g>
   <g id="patch_54">
    <path d="M 139.296173 228.96 
L 140.452649 228.96 
L 140.452649 218.273192 
L 139.296173 218.273192 
z
" clip-path="url(#p7b17340d87)" style="fill: #1f77b4"/>
   </g>
   <g id="patch_55">
    <path d="M 140.741768 228.96 
L 141.898245 228.96 
L 141.898245 218.225472 
L 140.741768 218.225472 
z
" clip-path="url(#p7b17340d87)" style="fill: #1f77b4"/>
   </g>
   <g id="patch_56">
    <path d="M 142.187364 228.96 
L 143.343841 228.96 
L 143.343841 218.227932 
L 142.187364 218.227932 
z
" clip-path="url(#p7b17340d87)" style="fill: #1f77b4"/>
   </g>
   <g id="patch_57">
    <path d="M 143.63296 228.96 
L 144.789437 228.96 
L 144.789437 218.273438 
L 143.63296 218.273438 
z
" clip-path="url(#p7b17340d87)" style="fill: #1f77b4"/>
   </g>
   <g id="patch_58">
    <path d="M 145.078556 228.96 
L 146.235033 228.96 
L 146.235033 218.204072 
L 145.078556 218.204072 
z
" clip-path="url(#p7b17340d87)" style="fill: #1f77b4"/>
   </g>
   <g id="patch_59">
    <path d="M 146.524152 228.96 
L 147.680629 228.96 
L 147.680629 218.140363 
L 146.524152 218.140363 
z
" clip-path="url(#p7b17340d87)" style="fill: #1f77b4"/>
   </g>
   <g id="patch_60">
    <path d="M 147.969748 228.96 
L 149.126224 228.96 
L 149.126224 218.01885 
L 147.969748 218.01885 
z
" clip-path="url(#p7b17340d87)" style="fill: #1f77b4"/>
   </g>
   <g id="patch_61">
    <path d="M 149.415344 228.96 
L 150.57182 228.96 
L 150.57182 217.821328 
L 149.415344 217.821328 
z
" clip-path="url(#p7b17340d87)" style="fill: #1f77b4"/>
   </g>
   <g id="patch_62">
    <path d="M 150.860939 228.96 
L 152.017416 228.96 
L 152.017416 217.72638 
L 150.860939 217.72638 
z
" clip-path="url(#p7b17340d87)" style="fill: #1f77b4"/>
   </g>
   <g id="patch_63">
    <path d="M 152.306535 228.96 
L 153.463012 228.96 
L 153.463012 217.735974 
L 152.306535 217.735974 
z
" clip-path="url(#p7b17340d87)" style="fill: #1f77b4"/>
   </g>
   <g id="patch_64">
    <path d="M 153.752131 228.96 
L 154.908608 228.96 
L 154.908608 217.587894 
L 153.752131 217.587894 
z
" clip-path="url(#p7b17340d87)" style="fill: #1f77b4"/>
   </g>
   <g id="patch_65">
    <path d="M 155.197727 228.96 
L 156.354204 228.96 
L 156.354204 217.737941 
L 155.197727 217.737941 
z
" clip-path="url(#p7b17340d87)" style="fill: #1f77b4"/>
   </g>
   <g id="patch_66">
    <path d="M 156.643323 228.96 
L 157.7998 228.96 
L 157.7998 217.729086 
L 156.643323 217.729086 
z
" clip-path="url(#p7b17340d87)" style="fill: #1f77b4"/>
   </g>
   <g id="patch_67">
    <path d="M 158.088919 228.96 
L 159.245395 228.96 
L 159.245395 217.707194 
L 158.088919 217.707194 
z
" clip-path="url(#p7b17340d87)" style="fill: #1f77b4"/>
   </g>
   <g id="patch_68">
    <path d="M 159.534515 228.96 
L 160.690991 228.96 
L 160.690991 217.84937 
L 159.534515 217.84937 
z
" clip-path="url(#p7b17340d87)" style="fill: #1f77b4"/>
   </g>
   <g id="patch_69">
    <path d="M 160.98011 228.96 
L 162.136587 228.96 
L 162.136587 218.106418 
L 160.98011 218.106418 
z
" clip-path="url(#p7b17340d87)" style="fill: #1f77b4"/>
   </g>
   <g id="patch_70">
    <path d="M 162.425706 228.96 
L 163.582183 228.96 
L 163.582183 218.219568 
L 162.425706 218.219568 
z
" clip-path="url(#p7b17340d87)" style="fill: #1f77b4"/>
   </g>
   <g id="patch_71">
    <path d="M 163.871302 228.96 
L 165.027779 228.96 
L 165.027779 218.487932 
L 163.871302 218.487932 
z
" clip-path="url(#p7b17340d87)" style="fill: #1f77b4"/>
   </g>
   <g id="patch_72">
    <path d="M 165.316898 228.96 
L 166.473375 228.96 
L 166.473375 218.660855 
L 165.316898 218.660855 
z
" clip-path="url(#p7b17340d87)" style="fill: #1f77b4"/>
   </g>
   <g id="patch_73">
    <path d="M 166.762494 228.96 
L 167.918971 228.96 
L 167.918971 218.819266 
L 166.762494 218.819266 
z
" clip-path="url(#p7b17340d87)" style="fill: #1f77b4"/>
   </g>
   <g id="patch_74">
    <path d="M 168.20809 228.96 
L 169.364566 228.96 
L 169.364566 219.039663 
L 168.20809 219.039663 
z
" clip-path="url(#p7b17340d87)" style="fill: #1f77b4"/>
   </g>
   <g id="patch_75">
    <path d="M 169.653686 228.96 
L 170.810162 228.96 
L 170.810162 219.231035 
L 169.653686 219.231035 
z
" clip-path="url(#p7b17340d87)" style="fill: #1f77b4"/>
   </g>
   <g id="patch_76">
    <path d="M 171.099281 228.96 
L 172.255758 228.96 
L 172.255758 219.373702 
L 171.099281 219.373702 
z
" clip-path="url(#p7b17340d87)" style="fill: #1f77b4"/>
   </g>
   <g id="patch_77">
    <path d="M 172.544877 228.96 
L 173.701354 228.96 
L 173.701354 219.678471 
L 172.544877 219.678471 
z
" clip-path="url(#p7b17340d87)" style="fill: #1f77b4"/>
   </g>
   <g id="patch_78">
    <path d="M 173.990473 228.96 
L 175.14695 228.96 
L 175.14695 219.952491 
L 173.990473 219.952491 
z
" clip-path="url(#p7b17340d87)" style="fill: #1f77b4"/>
   </g>
   <g id="patch_79">
    <path d="M 175.436069 228.96 
L 176.592546 228.96 
L 176.592546 220.189615 
L 175.436069 220.189615 
z
" clip-path="url(#p7b17340d87)" style="fill: #1f77b4"/>
   </g>
   <g id="patch_80">
    <path d="M 176.881665 228.96 
L 178.038142 228.96 
L 178.038142 220.349747 
L 176.881665 220.349747 
z
" clip-path="url(#p7b17340d87)" style="fill: #1f77b4"/>
   </g>
   <g id="patch_81">
    <path d="M 178.327261 228.96 
L 179.483737 228.96 
L 179.483737 220.487742 
L 178.327261 220.487742 
z
" clip-path="url(#p7b17340d87)" style="fill: #1f77b4"/>
   </g>
   <g id="patch_82">
    <path d="M 179.772857 228.96 
L 180.929333 228.96 
L 180.929333 220.659681 
L 179.772857 220.659681 
z
" clip-path="url(#p7b17340d87)" style="fill: #1f77b4"/>
   </g>
   <g id="patch_83">
    <path d="M 181.218452 228.96 
L 182.374929 228.96 
L 182.374929 220.928536 
L 181.218452 220.928536 
z
" clip-path="url(#p7b17340d87)" style="fill: #1f77b4"/>
   </g>
   <g id="patch_84">
    <path d="M 182.664048 228.96 
L 183.820525 228.96 
L 183.820525 221.028158 
L 182.664048 221.028158 
z
" clip-path="url(#p7b17340d87)" style="fill: #1f77b4"/>
   </g>
   <g id="patch_85">
    <path d="M 184.109644 228.96 
L 185.266121 228.96 
L 185.266121 221.29111 
L 184.109644 221.29111 
z
" clip-path="url(#p7b17340d87)" style="fill: #1f77b4"/>
   </g>
   <g id="patch_86">
    <path d="M 185.55524 228.96 
L 186.711717 228.96 
L 186.711717 221.442387 
L 185.55524 221.442387 
z
" clip-path="url(#p7b17340d87)" style="fill: #1f77b4"/>
   </g>
   <g id="patch_87">
    <path d="M 187.000836 228.96 
L 188.157312 228.96 
L 188.157312 221.645565 
L 187.000836 221.645565 
z
" clip-path="url(#p7b17340d87)" style="fill: #1f77b4"/>
   </g>
   <g id="patch_88">
    <path d="M 188.446432 228.96 
L 189.602908 228.96 
L 189.602908 221.742235 
L 188.446432 221.742235 
z
" clip-path="url(#p7b17340d87)" style="fill: #1f77b4"/>
   </g>
   <g id="patch_89">
    <path d="M 189.892028 228.96 
L 191.048504 228.96 
L 191.048504 221.900646 
L 189.892028 221.900646 
z
" clip-path="url(#p7b17340d87)" style="fill: #1f77b4"/>
   </g>
   <g id="patch_90">
    <path d="M 191.337623 228.96 
L 192.4941 228.96 
L 192.4941 222.112188 
L 191.337623 222.112188 
z
" clip-path="url(#p7b17340d87)" style="fill: #1f77b4"/>
   </g>
   <g id="patch_91">
    <path d="M 192.783219 228.96 
L 193.939696 228.96 
L 193.939696 222.371942 
L 192.783219 222.371942 
z
" clip-path="url(#p7b17340d87)" style="fill: #1f77b4"/>
   </g>
   <g id="patch_92">
    <path d="M 194.228815 228.96 
L 195.385292 228.96 
L 195.385292 222.557656 
L 194.228815 222.557656 
z
" clip-path="url(#p7b17340d87)" style="fill: #1f77b4"/>
   </g>
   <g id="patch_93">
    <path d="M 195.674411 228.96 
L 196.830888 228.96 
L 196.830888 222.816672 
L 195.674411 222.816672 
z
" clip-path="url(#p7b17340d87)" style="fill: #1f77b4"/>
   </g>
   <g id="patch_94">
    <path d="M 197.120007 228.96 
L 198.276483 228.96 
L 198.276483 222.99845 
L 197.120007 222.99845 
z
" clip-path="url(#p7b17340d87)" style="fill: #1f77b4"/>
   </g>
   <g id="patch_95">
    <path d="M 198.565603 228.96 
L 199.722079 228.96 
L 199.722079 223.154647 
L 198.565603 223.154647 
z
" clip-path="url(#p7b17340d87)" style="fill: #1f77b4"/>
   </g>
   <g id="patch_96">
    <path d="M 200.011199 228.96 
L 201.167675 228.96 
L 201.167675 223.251071 
L 200.011199 223.251071 
z
" clip-path="url(#p7b17340d87)" style="fill: #1f77b4"/>
   </g>
   <g id="patch_97">
    <path d="M 201.456794 228.96 
L 202.613271 228.96 
L 202.613271 223.437523 
L 201.456794 223.437523 
z
" clip-path="url(#p7b17340d87)" style="fill: #1f77b4"/>
   </g>
   <g id="patch_98">
    <path d="M 202.90239 228.96 
L 204.058867 228.96 
L 204.058867 223.50074 
L 202.90239 223.50074 
z
" clip-path="url(#p7b17340d87)" style="fill: #1f77b4"/>
   </g>
   <g id="patch_99">
    <path d="M 204.347986 228.96 
L 205.504463 228.96 
L 205.504463 223.597164 
L 204.347986 223.597164 
z
" clip-path="url(#p7b17340d87)" style="fill: #1f77b4"/>
   </g>
   <g id="patch_100">
    <path d="M 205.793582 228.96 
L 206.950059 228.96 
L 206.950059 223.649557 
L 205.793582 223.649557 
z
" clip-path="url(#p7b17340d87)" style="fill: #1f77b4"/>
   </g>
   <g id="patch_101">
    <path d="M 207.239178 228.96 
L 208.395654 228.96 
L 208.395654 223.68178 
L 207.239178 223.68178 
z
" clip-path="url(#p7b17340d87)" style="fill: #1f77b4"/>
   </g>
   <g id="patch_102">
    <path d="M 208.684774 228.96 
L 209.84125 228.96 
L 209.84125 223.721137 
L 208.684774 223.721137 
z
" clip-path="url(#p7b17340d87)" style="fill: #1f77b4"/>
   </g>
   <g id="patch_103">
    <path d="M 210.130369 228.96 
L 211.286846 228.96 
L 211.286846 223.8488 
L 210.130369 223.8488 
z
" clip-path="url(#p7b17340d87)" style="fill: #1f77b4"/>
   </g>
   <g id="patch_104">
    <path d="M 211.575965 228.96 
L 212.732442 228.96 
L 212.732442 223.843143 
L 211.575965 223.843143 
z
" clip-path="url(#p7b17340d87)" style="fill: #1f77b4"/>
   </g>
   <g id="patch_105">
    <path d="M 213.021561 228.96 
L 214.178038 228.96 
L 214.178038 224.056161 
L 213.021561 224.056161 
z
" clip-path="url(#p7b17340d87)" style="fill: #1f77b4"/>
   </g>
   <g id="patch_106">
    <path d="M 214.467157 228.96 
L 215.623634 228.96 
L 215.623634 224.150125 
L 214.467157 224.150125 
z
" clip-path="url(#p7b17340d87)" style="fill: #1f77b4"/>
   </g>
   <g id="patch_107">
    <path d="M 215.912753 228.96 
L 217.06923 228.96 
L 217.06923 224.288857 
L 215.912753 224.288857 
z
" clip-path="url(#p7b17340d87)" style="fill: #1f77b4"/>
   </g>
   <g id="patch_108">
    <path d="M 217.358349 228.96 
L 218.514825 228.96 
L 218.514825 224.458582 
L 217.358349 224.458582 
z
" clip-path="url(#p7b17340d87)" style="fill: #1f77b4"/>
   </g>
   <g id="patch_109">
    <path d="M 218.803945 228.96 
L 219.960421 228.96 
L 219.960421 224.482196 
L 218.803945 224.482196 
z
" clip-path="url(#p7b17340d87)" style="fill: #1f77b4"/>
   </g>
   <g id="patch_110">
    <path d="M 220.24954 228.96 
L 221.406017 228.96 
L 221.406017 224.475309 
L 220.24954 224.475309 
z
" clip-path="url(#p7b17340d87)" style="fill: #1f77b4"/>
   </g>
   <g id="patch_111">
    <path d="M 221.695136 228.96 
L 222.851613 228.96 
L 222.851613 224.589197 
L 221.695136 224.589197 
z
" clip-path="url(#p7b17340d87)" style="fill: #1f77b4"/>
   </g>
   <g id="patch_112">
    <path d="M 223.140732 228.96 
L 224.297209 228.96 
L 224.297209 224.655612 
L 223.140732 224.655612 
z
" clip-path="url(#p7b17340d87)" style="fill: #1f77b4"/>
   </g>
   <g id="patch_113">
    <path d="M 224.586328 228.96 
L 225.742805 228.96 
L 225.742805 224.727192 
L 224.586328 224.727192 
z
" clip-path="url(#p7b17340d87)" style="fill: #1f77b4"/>
   </g>
   <g id="patch_114">
    <path d="M 226.031924 228.96 
L 227.188401 228.96 
L 227.188401 224.669387 
L 226.031924 224.669387 
z
" clip-path="url(#p7b17340d87)" style="fill: #1f77b4"/>
   </g>
   <g id="patch_115">
    <path d="M 227.47752 228.96 
L 228.633996 228.96 
L 228.633996 224.630276 
L 227.47752 224.630276 
z
" clip-path="url(#p7b17340d87)" style="fill: #1f77b4"/>
   </g>
   <g id="patch_116">
    <path d="M 228.923116 228.96 
L 230.079592 228.96 
L 230.079592 224.610352 
L 228.923116 224.610352 
z
" clip-path="url(#p7b17340d87)" style="fill: #1f77b4"/>
   </g>
   <g id="patch_117">
    <path d="M 230.368711 228.96 
L 231.525188 228.96 
L 231.525188 224.560418 
L 230.368711 224.560418 
z
" clip-path="url(#p7b17340d87)" style="fill: #1f77b4"/>
   </g>
   <g id="patch_118">
    <path d="M 231.814307 228.96 
L 232.970784 228.96 
L 232.970784 224.331657 
L 231.814307 224.331657 
z
" clip-path="url(#p7b17340d87)" style="fill: #1f77b4"/>
   </g>
   <g id="patch_119">
    <path d="M 233.259903 228.96 
L 234.41638 228.96 
L 234.41638 224.054685 
L 233.259903 224.054685 
z
" clip-path="url(#p7b17340d87)" style="fill: #1f77b4"/>
   </g>
   <g id="patch_120">
    <path d="M 234.705499 228.96 
L 235.861976 228.96 
L 235.861976 223.771809 
L 234.705499 223.771809 
z
" clip-path="url(#p7b17340d87)" style="fill: #1f77b4"/>
   </g>
   <g id="patch_121">
    <path d="M 236.151095 228.96 
L 237.307572 228.96 
L 237.307572 223.544278 
L 236.151095 223.544278 
z
" clip-path="url(#p7b17340d87)" style="fill: #1f77b4"/>
   </g>
   <g id="patch_122">
    <path d="M 237.596691 228.96 
L 238.753167 228.96 
L 238.753167 223.227457 
L 237.596691 223.227457 
z
" clip-path="url(#p7b17340d87)" style="fill: #1f77b4"/>
   </g>
   <g id="patch_123">
    <path d="M 239.042287 228.96 
L 240.198763 228.96 
L 240.198763 222.996729 
L 239.042287 222.996729 
z
" clip-path="url(#p7b17340d87)" style="fill: #1f77b4"/>
   </g>
   <g id="patch_124">
    <path d="M 240.487882 228.96 
L 241.644359 228.96 
L 241.644359 222.662935 
L 240.487882 222.662935 
z
" clip-path="url(#p7b17340d87)" style="fill: #1f77b4"/>
   </g>
   <g id="patch_125">
    <path d="M 241.933478 228.96 
L 243.089955 228.96 
L 243.089955 222.442538 
L 241.933478 222.442538 
z
" clip-path="url(#p7b17340d87)" style="fill: #1f77b4"/>
   </g>
   <g id="patch_126">
    <path d="M 243.379074 228.96 
L 244.535551 228.96 
L 244.535551 222.178848 
L 243.379074 222.178848 
z
" clip-path="url(#p7b17340d87)" style="fill: #1f77b4"/>
   </g>
   <g id="patch_127">
    <path d="M 244.82467 228.96 
L 245.981147 228.96 
L 245.981147 221.82144 
L 244.82467 221.82144 
z
" clip-path="url(#p7b17340d87)" style="fill: #1f77b4"/>
   </g>
   <g id="patch_128">
    <path d="M 246.270266 228.96 
L 247.426743 228.96 
L 247.426743 221.582841 
L 246.270266 221.582841 
z
" clip-path="url(#p7b17340d87)" style="fill: #1f77b4"/>
   </g>
   <g id="patch_129">
    <path d="M 247.715862 228.96 
L 248.872338 228.96 
L 248.872338 221.385811 
L 247.715862 221.385811 
z
" clip-path="url(#p7b17340d87)" style="fill: #1f77b4"/>
   </g>
   <g id="patch_130">
    <path d="M 249.161458 228.96 
L 250.317934 228.96 
L 250.317934 221.316199 
L 249.161458 221.316199 
z
" clip-path="url(#p7b17340d87)" style="fill: #1f77b4"/>
   </g>
   <g id="patch_131">
    <path d="M 250.607053 228.96 
L 251.76353 228.96 
L 251.76353 221.616294 
L 250.607053 221.616294 
z
" clip-path="url(#p7b17340d87)" style="fill: #1f77b4"/>
   </g>
   <g id="patch_132">
    <path d="M 252.052649 228.96 
L 253.209126 228.96 
L 253.209126 221.471166 
L 252.052649 221.471166 
z
" clip-path="url(#p7b17340d87)" style="fill: #1f77b4"/>
   </g>
   <g id="patch_133">
    <path d="M 253.498245 228.96 
L 254.654722 228.96 
L 254.654722 221.215594 
L 253.498245 221.215594 
z
" clip-path="url(#p7b17340d87)" style="fill: #1f77b4"/>
   </g>
   <g id="patch_134">
    <path d="M 254.943841 228.96 
L 256.100318 228.96 
L 256.100318 220.86409 
L 254.943841 220.86409 
z
" clip-path="url(#p7b17340d87)" style="fill: #1f77b4"/>
   </g>
   <g id="patch_135">
    <path d="M 256.389437 228.96 
L 257.545914 228.96 
L 257.545914 220.400173 
L 256.389437 220.400173 
z
" clip-path="url(#p7b17340d87)" style="fill: #1f77b4"/>
   </g>
   <g id="patch_136">
    <path d="M 257.835033 228.96 
L 258.991509 228.96 
L 258.991509 220.081384 
L 257.835033 220.081384 
z
" clip-path="url(#p7b17340d87)" style="fill: #1f77b4"/>
   </g>
   <g id="patch_137">
    <path d="M 259.280629 228.96 
L 260.437105 228.96 
L 260.437105 219.742179 
L 259.280629 219.742179 
z
" clip-path="url(#p7b17340d87)" style="fill: #1f77b4"/>
   </g>
   <g id="patch_138">
    <path d="M 260.726224 228.96 
L 261.882701 228.96 
L 261.882701 218.955538 
L 260.726224 218.955538 
z
" clip-path="url(#p7b17340d87)" style="fill: #1f77b4"/>
   </g>
   <g id="patch_139">
    <path d="M 262.17182 228.96 
L 263.328297 228.96 
L 263.328297 218.290656 
L 262.17182 218.290656 
z
" clip-path="url(#p7b17340d87)" style="fill: #1f77b4"/>
   </g>
   <g id="patch_140">
    <path d="M 263.617416 228.96 
L 264.773893 228.96 
L 264.773893 217.635368 
L 263.617416 217.635368 
z
" clip-path="url(#p7b17340d87)" style="fill: #1f77b4"/>
   </g>
   <g id="patch_141">
    <path d="M 265.063012 228.96 
L 266.219489 228.96 
L 266.219489 217.204413 
L 265.063012 217.204413 
z
" clip-path="url(#p7b17340d87)" style="fill: #1f77b4"/>
   </g>
   <g id="patch_142">
    <path d="M 266.508608 228.96 
L 267.665085 228.96 
L 267.665085 216.76657 
L 266.508608 216.76657 
z
" clip-path="url(#p7b17340d87)" style="fill: #1f77b4"/>
   </g>
   <g id="patch_143">
    <path d="M 267.954204 228.96 
L 269.11068 228.96 
L 269.11068 216.336844 
L 267.954204 216.336844 
z
" clip-path="url(#p7b17340d87)" style="fill: #1f77b4"/>
   </g>
   <g id="patch_144">
    <path d="M 269.3998 228.96 
L 270.556276 228.96 
L 270.556276 216.103902 
L 269.3998 216.103902 
z
" clip-path="url(#p7b17340d87)" style="fill: #1f77b4"/>
   </g>
   <g id="patch_145">
    <path d="M 270.845395 228.96 
L 272.001872 228.96 
L 272.001872 215.694101 
L 270.845395 215.694101 
z
" clip-path="url(#p7b17340d87)" style="fill: #1f77b4"/>
   </g>
   <g id="patch_146">
    <path d="M 272.290991 228.96 
L 273.447468 228.96 
L 273.447468 215.133023 
L 272.290991 215.133023 
z
" clip-path="url(#p7b17340d87)" style="fill: #1f77b4"/>
   </g>
   <g id="patch_147">
    <path d="M 273.736587 228.96 
L 274.893064 228.96 
L 274.893064 214.624092 
L 273.736587 214.624092 
z
" clip-path="url(#p7b17340d87)" style="fill: #1f77b4"/>
   </g>
   <g id="patch_148">
    <path d="M 275.182183 228.96 
L 276.33866 228.96 
L 276.33866 214.125246 
L 275.182183 214.125246 
z
" clip-path="url(#p7b17340d87)" style="fill: #1f77b4"/>
   </g>
   <g id="patch_149">
    <path d="M 276.627779 228.96 
L 277.784256 228.96 
L 277.784256 213.384603 
L 276.627779 213.384603 
z
" clip-path="url(#p7b17340d87)" style="fill: #1f77b4"/>
   </g>
   <g id="patch_150">
    <path d="M 278.073375 228.96 
L 279.229851 228.96 
L 279.229851 212.858208 
L 278.073375 212.858208 
z
" clip-path="url(#p7b17340d87)" style="fill: #1f77b4"/>
   </g>
   <g id="patch_151">
    <path d="M 279.518971 228.96 
L 280.675447 228.96 
L 280.675447 212.548274 
L 279.518971 212.548274 
z
" clip-path="url(#p7b17340d87)" style="fill: #1f77b4"/>
   </g>
   <g id="patch_152">
    <path d="M 280.964566 228.96 
L 282.121043 228.96 
L 282.121043 211.970469 
L 280.964566 211.970469 
z
" clip-path="url(#p7b17340d87)" style="fill: #1f77b4"/>
   </g>
   <g id="patch_153">
    <path d="M 282.410162 228.96 
L 283.566639 228.96 
L 283.566639 211.410621 
L 282.410162 211.410621 
z
" clip-path="url(#p7b17340d87)" style="fill: #1f77b4"/>
   </g>
   <g id="patch_154">
    <path d="M 283.855758 228.96 
L 285.012235 228.96 
L 285.012235 210.64169 
L 283.855758 210.64169 
z
" clip-path="url(#p7b17340d87)" style="fill: #1f77b4"/>
   </g>
   <g id="patch_155">
    <path d="M 285.301354 228.96 
L 286.457831 228.96 
L 286.457831 209.868824 
L 285.301354 209.868824 
z
" clip-path="url(#p7b17340d87)" style="fill: #1f77b4"/>
   </g>
   <g id="patch_156">
    <path d="M 286.74695 228.96 
L 287.903426 228.96 
L 287.903426 209.54364 
L 286.74695 209.54364 
z
" clip-path="url(#p7b17340d87)" style="fill: #1f77b4"/>
   </g>
   <g id="patch_157">
    <path d="M 288.192546 228.96 
L 289.349022 228.96 
L 289.349022 208.750849 
L 288.192546 208.750849 
z
" clip-path="url(#p7b17340d87)" style="fill: #1f77b4"/>
   </g>
   <g id="patch_158">
    <path d="M 289.638142 228.96 
L 290.794618 228.96 
L 290.794618 208.364416 
L 289.638142 208.364416 
z
" clip-path="url(#p7b17340d87)" style="fill: #1f77b4"/>
   </g>
   <g id="patch_159">
    <path d="M 291.083737 228.96 
L 292.240214 228.96 
L 292.240214 207.696091 
L 291.083737 207.696091 
z
" clip-path="url(#p7b17340d87)" style="fill: #1f77b4"/>
   </g>
   <g id="patch_160">
    <path d="M 292.529333 228.96 
L 293.68581 228.96 
L 293.68581 207.047444 
L 292.529333 207.047444 
z
" clip-path="url(#p7b17340d87)" style="fill: #1f77b4"/>
   </g>
   <g id="patch_161">
    <path d="M 293.974929 228.96 
L 295.131406 228.96 
L 295.131406 206.299175 
L 293.974929 206.299175 
z
" clip-path="url(#p7b17340d87)" style="fill: #1f77b4"/>
   </g>
   <g id="patch_162">
    <path d="M 295.420525 228.96 
L 296.577002 228.96 
L 296.577002 205.476621 
L 295.420525 205.476621 
z
" clip-path="url(#p7b17340d87)" style="fill: #1f77b4"/>
   </g>
   <g id="patch_163">
    <path d="M 296.866121 228.96 
L 298.022597 228.96 
L 298.022597 204.55297 
L 296.866121 204.55297 
z
" clip-path="url(#p7b17340d87)" style="fill: #1f77b4"/>
   </g>
   <g id="patch_164">
    <path d="M 298.311717 228.96 
L 299.468193 228.96 
L 299.468193 204.039119 
L 298.311717 204.039119 
z
" clip-path="url(#p7b17340d87)" style="fill: #1f77b4"/>
   </g>
   <g id="patch_165">
    <path d="M 299.757312 228.96 
L 300.913789 228.96 
L 300.913789 203.663263 
L 299.757312 203.663263 
z
" clip-path="url(#p7b17340d87)" style="fill: #1f77b4"/>
   </g>
   <g id="patch_166">
    <path d="M 301.202908 228.96 
L 302.359385 228.96 
L 302.359385 202.927294 
L 301.202908 202.927294 
z
" clip-path="url(#p7b17340d87)" style="fill: #1f77b4"/>
   </g>
   <g id="patch_167">
    <path d="M 302.648504 228.96 
L 303.804981 228.96 
L 303.804981 202.22035 
L 302.648504 202.22035 
z
" clip-path="url(#p7b17340d87)" style="fill: #1f77b4"/>
   </g>
   <g id="patch_168">
    <path d="M 304.0941 228.96 
L 305.250577 228.96 
L 305.250577 203.272894 
L 304.0941 203.272894 
z
" clip-path="url(#p7b17340d87)" style="fill: #1f77b4"/>
   </g>
   <g id="patch_169">
    <path d="M 305.539696 228.96 
L 306.696173 228.96 
L 306.696173 202.420085 
L 305.539696 202.420085 
z
" clip-path="url(#p7b17340d87)" style="fill: #1f77b4"/>
   </g>
   <g id="patch_170">
    <path d="M 306.985292 228.96 
L 308.141768 228.96 
L 308.141768 201.335317 
L 306.985292 201.335317 
z
" clip-path="url(#p7b17340d87)" style="fill: #1f77b4"/>
   </g>
   <g id="patch_171">
    <path d="M 308.430888 228.96 
L 309.587364 228.96 
L 309.587364 200.303681 
L 308.430888 200.303681 
z
" clip-path="url(#p7b17340d87)" style="fill: #1f77b4"/>
   </g>
   <g id="patch_172">
    <path d="M 309.876483 228.96 
L 311.03296 228.96 
L 311.03296 199.514334 
L 309.876483 199.514334 
z
" clip-path="url(#p7b17340d87)" style="fill: #1f77b4"/>
   </g>
   <g id="patch_173">
    <path d="M 311.322079 228.96 
L 312.478556 228.96 
L 312.478556 198.30387 
L 311.322079 198.30387 
z
" clip-path="url(#p7b17340d87)" style="fill: #1f77b4"/>
   </g>
   <g id="patch_174">
    <path d="M 312.767675 228.96 
L 313.924152 228.96 
L 313.924152 197.015924 
L 312.767675 197.015924 
z
" clip-path="url(#p7b17340d87)" style="fill: #1f77b4"/>
   </g>
   <g id="patch_175">
    <path d="M 314.213271 228.96 
L 315.369748 228.96 
L 315.369748 193.675036 
L 314.213271 193.675036 
z
" clip-path="url(#p7b17340d87)" style="fill: #1f77b4"/>
   </g>
   <g id="patch_176">
    <path d="M 315.658867 228.96 
L 316.815344 228.96 
L 316.815344 191.673996 
L 315.658867 191.673996 
z
" clip-path="url(#p7b17340d87)" style="fill: #1f77b4"/>
   </g>
   <g id="patch_177">
    <path d="M 317.104463 228.96 
L 318.260939 228.96 
L 318.260939 189.94673 
L 317.104463 189.94673 
z
" clip-path="url(#p7b17340d87)" style="fill: #1f77b4"/>
   </g>
   <g id="patch_178">
    <path d="M 318.550059 228.96 
L 319.706535 228.96 
L 319.706535 188.706012 
L 318.550059 188.706012 
z
" clip-path="url(#p7b17340d87)" style="fill: #1f77b4"/>
   </g>
   <g id="patch_179">
    <path d="M 319.995654 228.96 
L 321.152131 228.96 
L 321.152131 187.844839 
L 319.995654 187.844839 
z
" clip-path="url(#p7b17340d87)" style="fill: #1f77b4"/>
   </g>
   <g id="patch_180">
    <path d="M 321.44125 228.96 
L 322.597727 228.96 
L 322.597727 185.355285 
L 321.44125 185.355285 
z
" clip-path="url(#p7b17340d87)" style="fill: #1f77b4"/>
   </g>
   <g id="patch_181">
    <path d="M 322.886846 228.96 
L 324.043323 228.96 
L 324.043323 182.13345 
L 322.886846 182.13345 
z
" clip-path="url(#p7b17340d87)" style="fill: #1f77b4"/>
   </g>
   <g id="patch_182">
    <path d="M 324.332442 228.96 
L 325.488919 228.96 
L 325.488919 177.586281 
L 324.332442 177.586281 
z
" clip-path="url(#p7b17340d87)" style="fill: #1f77b4"/>
   </g>
   <g id="patch_183">
    <path d="M 325.778038 228.96 
L 326.934515 228.96 
L 326.934515 172.182858 
L 325.778038 172.182858 
z
" clip-path="url(#p7b17340d87)" style="fill: #1f77b4"/>
   </g>
   <g id="patch_184">
    <path d="M 327.223634 228.96 
L 328.38011 228.96 
L 328.38011 165.615708 
L 327.223634 165.615708 
z
" clip-path="url(#p7b17340d87)" style="fill: #1f77b4"/>
   </g>
   <g id="patch_185">
    <path d="M 328.66923 228.96 
L 329.825706 228.96 
L 329.825706 165.462217 
L 328.66923 165.462217 
z
" clip-path="url(#p7b17340d87)" style="fill: #1f77b4"/>
   </g>
   <g id="patch_186">
    <path d="M 330.114825 228.96 
L 331.271302 228.96 
L 331.271302 161.87166 
L 330.114825 161.87166 
z
" clip-path="url(#p7b17340d87)" style="fill: #1f77b4"/>
   </g>
   <g id="patch_187">
    <path d="M 331.560421 228.96 
L 332.716898 228.96 
L 332.716898 150.183963 
L 331.560421 150.183963 
z
" clip-path="url(#p7b17340d87)" style="fill: #1f77b4"/>
   </g>
   <g id="patch_188">
    <path d="M 333.006017 228.96 
L 334.162494 228.96 
L 334.162494 134.997951 
L 333.006017 134.997951 
z
" clip-path="url(#p7b17340d87)" style="fill: #1f77b4"/>
   </g>
   <g id="patch_189">
    <path d="M 334.451613 228.96 
L 335.60809 228.96 
L 335.60809 114.755592 
L 334.451613 114.755592 
z
" clip-path="url(#p7b17340d87)" style="fill: #1f77b4"/>
   </g>
   <g id="patch_190">
    <path d="M 335.897209 228.96 
L 337.053686 228.96 
L 337.053686 91.721125 
L 335.897209 91.721125 
z
" clip-path="url(#p7b17340d87)" style="fill: #1f77b4"/>
   </g>
   <g id="patch_191">
    <path d="M 337.342805 228.96 
L 338.499281 228.96 
L 338.499281 70.420319 
L 337.342805 70.420319 
z
" clip-path="url(#p7b17340d87)" style="fill: #1f77b4"/>
   </g>
   <g id="patch_192">
    <path d="M 338.788401 228.96 
L 339.944877 228.96 
L 339.944877 61.524977 
L 338.788401 61.524977 
z
" clip-path="url(#p7b17340d87)" style="fill: #1f77b4"/>
   </g>
   <g id="patch_193">
    <path d="M 340.233996 228.96 
L 341.390473 228.96 
L 341.390473 52.364223 
L 340.233996 52.364223 
z
" clip-path="url(#p7b17340d87)" style="fill: #1f77b4"/>
   </g>
   <g id="patch_194">
    <path d="M 341.679592 228.96 
L 342.836069 228.96 
L 342.836069 29.603531 
L 341.679592 29.603531 
z
" clip-path="url(#p7b17340d87)" style="fill: #1f77b4"/>
   </g>
   <g id="patch_195">
    <path d="M 343.125188 228.96 
L 344.281665 228.96 
L 344.281665 7.2 
L 343.125188 7.2 
z
" clip-path="url(#p7b17340d87)" style="fill: #1f77b4"/>
   </g>
   <g id="matplotlib.axis_1">
    <g id="xtick_1">
     <g id="line2d_1">
      <defs>
       <path id="m13803fab17" d="M 0 0 
L 0 3.5 
" style="stroke: #000000; stroke-width: 0.8"/>
      </defs>
      <g>
       <use xlink:href="#m13803fab17" x="71.931406" y="228.96" style="stroke: #000000; stroke-width: 0.8"/>
      </g>
     </g>
     <g id="text_1">
      <!-- $\mathdefault{2021{-}07}$ -->
      <g transform="translate(74.090819 274.166609)rotate(-90)scale(0.1 -0.1)">
       <defs>
        <path id="URWPalladioL-Roma-32" d="M 102 160 
L 102 0 
C 1299 0 1299 0 1530 0 
C 1760 0 1760 0 2995 0 
C 2982 125 2982 186 2982 269 
C 2982 348 2982 407 2995 539 
C 2259 539 1965 539 781 539 
L 1946 1761 
C 2566 2414 2758 2763 2758 3238 
C 2758 3966 2259 4416 1446 4416 
C 986 4416 672 4288 358 3969 
L 250 3099 
L 435 3099 
L 518 3393 
C 621 3763 851 3923 1280 3923 
C 1830 3923 2182 3577 2182 3035 
C 2182 2555 1914 2083 1190 1316 
L 102 160 
z
" transform="scale(0.015625)"/>
        <path id="URWPalladioL-Roma-30" d="M 1683 4416 
C 691 4416 186 3628 186 2077 
C 186 1326 320 680 544 366 
C 768 51 1126 -128 1523 -128 
C 2490 -128 2976 705 2976 2346 
C 2976 3749 2560 4416 1683 4416 
z
M 1568 4192 
C 2189 4192 2438 3564 2438 2025 
C 2438 661 2195 96 1606 96 
C 986 96 723 744 723 2308 
C 723 3660 960 4192 1568 4192 
z
" transform="scale(0.015625)"/>
        <path id="URWPalladioL-Roma-31" d="M 429 3584 
L 493 3584 
L 1318 3956 
C 1325 3962 1331 3962 1338 3962 
C 1376 3962 1389 3905 1389 3751 
L 1389 613 
C 1389 276 1318 205 973 205 
L 614 205 
L 614 0 
C 1600 0 1600 0 1670 0 
C 1754 0 1894 0 2112 0 
C 2189 0 2413 0 2675 0 
L 2675 205 
L 2342 205 
C 1990 205 1926 276 1926 612 
L 1926 4443 
L 1837 4475 
C 1421 4257 966 4065 384 3860 
L 429 3584 
z
" transform="scale(0.015625)"/>
        <path id="CMSY10-0" d="M 4218 1472 
C 4326 1472 4442 1472 4442 1600 
C 4442 1728 4326 1728 4218 1728 
L 755 1728 
C 646 1728 531 1728 531 1600 
C 531 1472 646 1472 755 1472 
L 4218 1472 
z
" transform="scale(0.015625)"/>
        <path id="URWPalladioL-Roma-37" d="M 358 32 
L 416 -51 
C 666 -32 666 -32 710 -32 
C 755 -32 755 -32 1005 -51 
C 1274 649 1587 1317 2010 2087 
L 3181 4199 
L 3181 4372 
C 2490 4372 2266 4372 1747 4372 
C 1280 4372 966 4372 346 4372 
L 282 4359 
C 301 3750 301 3750 301 3685 
C 301 3614 301 3614 282 3031 
L 474 3031 
L 518 3390 
C 570 3789 614 3840 909 3840 
L 2618 3840 
C 2362 3313 2163 2941 1920 2549 
L 358 32 
z
" transform="scale(0.015625)"/>
       </defs>
       <use xlink:href="#URWPalladioL-Roma-32" transform="scale(0.996264)"/>
       <use xlink:href="#URWPalladioL-Roma-30" transform="translate(49.8132 0)scale(0.996264)"/>
       <use xlink:href="#URWPalladioL-Roma-32" transform="translate(99.626401 0)scale(0.996264)"/>
       <use xlink:href="#URWPalladioL-Roma-31" transform="translate(149.439601 0)scale(0.996264)"/>
       <use xlink:href="#CMSY10-0" transform="translate(200.498102 0)scale(1.038107)"/>
       <use xlink:href="#URWPalladioL-Roma-30" transform="translate(282.439798 0)scale(0.996264)"/>
       <use xlink:href="#URWPalladioL-Roma-37" transform="translate(332.252998 0)scale(0.996264)"/>
      </g>
     </g>
    </g>
    <g id="xtick_2">
     <g id="line2d_2">
      <g>
       <use xlink:href="#m13803fab17" x="116.744877" y="228.96" style="stroke: #000000; stroke-width: 0.8"/>
      </g>
     </g>
     <g id="text_2">
      <!-- $\mathdefault{2021{-}08}$ -->
      <g transform="translate(118.90429 274.166609)rotate(-90)scale(0.1 -0.1)">
       <defs>
        <path id="URWPalladioL-Roma-38" d="M 1075 2211 
C 813 2090 704 2019 563 1884 
C 320 1641 192 1352 192 1019 
C 192 359 723 -128 1446 -128 
C 2278 -128 2970 526 2970 1320 
C 2970 1833 2733 2109 2003 2442 
C 2586 2840 2790 3109 2790 3493 
C 2790 4044 2336 4416 1658 4416 
C 896 4416 339 3929 339 3257 
C 339 2821 512 2577 1075 2211 
z
M 1818 1891 
C 2221 1711 2464 1397 2464 1052 
C 2464 513 2061 90 1542 90 
C 998 90 646 475 646 1071 
C 646 1538 832 1833 1306 2122 
L 1818 1891 
z
M 1427 2712 
C 1024 2910 819 3167 819 3487 
C 819 3910 1126 4198 1581 4198 
C 2048 4198 2355 3891 2355 3422 
C 2355 3058 2195 2808 1779 2538 
L 1427 2712 
z
" transform="scale(0.015625)"/>
       </defs>
       <use xlink:href="#URWPalladioL-Roma-32" transform="scale(0.996264)"/>
       <use xlink:href="#URWPalladioL-Roma-30" transform="translate(49.8132 0)scale(0.996264)"/>
       <use xlink:href="#URWPalladioL-Roma-32" transform="translate(99.626401 0)scale(0.996264)"/>
       <use xlink:href="#URWPalladioL-Roma-31" transform="translate(149.439601 0)scale(0.996264)"/>
       <use xlink:href="#CMSY10-0" transform="translate(200.498102 0)scale(1.038107)"/>
       <use xlink:href="#URWPalladioL-Roma-30" transform="translate(282.439798 0)scale(0.996264)"/>
       <use xlink:href="#URWPalladioL-Roma-38" transform="translate(332.252998 0)scale(0.996264)"/>
      </g>
     </g>
    </g>
    <g id="xtick_3">
     <g id="line2d_3">
      <g>
       <use xlink:href="#m13803fab17" x="161.558349" y="228.96" style="stroke: #000000; stroke-width: 0.8"/>
      </g>
     </g>
     <g id="text_3">
      <!-- $\mathdefault{2021{-}09}$ -->
      <g transform="translate(163.717762 274.166609)rotate(-90)scale(0.1 -0.1)">
       <defs>
        <path id="URWPalladioL-Roma-39" d="M 614 -106 
C 1325 125 1632 272 1978 566 
C 2598 1098 2925 1835 2925 2693 
C 2925 3776 2406 4435 1562 4435 
C 742 4435 128 3795 128 2938 
C 128 2201 608 1664 1274 1664 
C 1491 1664 1741 1734 1856 1830 
L 2304 2202 
C 2253 1125 1555 336 397 54 
L 397 3 
L 614 -106 
z
M 1536 4224 
C 1824 4224 2035 4102 2176 3846 
C 2291 3641 2368 3328 2368 3040 
C 2368 2451 2029 2055 1536 2055 
C 1024 2055 678 2509 678 3174 
C 678 3821 1011 4224 1536 4224 
z
" transform="scale(0.015625)"/>
       </defs>
       <use xlink:href="#URWPalladioL-Roma-32" transform="scale(0.996264)"/>
       <use xlink:href="#URWPalladioL-Roma-30" transform="translate(49.8132 0)scale(0.996264)"/>
       <use xlink:href="#URWPalladioL-Roma-32" transform="translate(99.626401 0)scale(0.996264)"/>
       <use xlink:href="#URWPalladioL-Roma-31" transform="translate(149.439601 0)scale(0.996264)"/>
       <use xlink:href="#CMSY10-0" transform="translate(200.498102 0)scale(1.038107)"/>
       <use xlink:href="#URWPalladioL-Roma-30" transform="translate(282.439798 0)scale(0.996264)"/>
       <use xlink:href="#URWPalladioL-Roma-39" transform="translate(332.252998 0)scale(0.996264)"/>
      </g>
     </g>
    </g>
    <g id="xtick_4">
     <g id="line2d_4">
      <g>
       <use xlink:href="#m13803fab17" x="204.926224" y="228.96" style="stroke: #000000; stroke-width: 0.8"/>
      </g>
     </g>
     <g id="text_4">
      <!-- $\mathdefault{2021{-}10}$ -->
      <g transform="translate(207.085638 274.166609)rotate(-90)scale(0.1 -0.1)">
       <use xlink:href="#URWPalladioL-Roma-32" transform="scale(0.996264)"/>
       <use xlink:href="#URWPalladioL-Roma-30" transform="translate(49.8132 0)scale(0.996264)"/>
       <use xlink:href="#URWPalladioL-Roma-32" transform="translate(99.626401 0)scale(0.996264)"/>
       <use xlink:href="#URWPalladioL-Roma-31" transform="translate(149.439601 0)scale(0.996264)"/>
       <use xlink:href="#CMSY10-0" transform="translate(200.498102 0)scale(1.038107)"/>
       <use xlink:href="#URWPalladioL-Roma-31" transform="translate(282.439798 0)scale(0.996264)"/>
       <use xlink:href="#URWPalladioL-Roma-30" transform="translate(332.252998 0)scale(0.996264)"/>
      </g>
     </g>
    </g>
    <g id="xtick_5">
     <g id="line2d_5">
      <g>
       <use xlink:href="#m13803fab17" x="249.739696" y="228.96" style="stroke: #000000; stroke-width: 0.8"/>
      </g>
     </g>
     <g id="text_5">
      <!-- $\mathdefault{2021{-}11}$ -->
      <g transform="translate(251.899109 274.166609)rotate(-90)scale(0.1 -0.1)">
       <use xlink:href="#URWPalladioL-Roma-32" transform="scale(0.996264)"/>
       <use xlink:href="#URWPalladioL-Roma-30" transform="translate(49.8132 0)scale(0.996264)"/>
       <use xlink:href="#URWPalladioL-Roma-32" transform="translate(99.626401 0)scale(0.996264)"/>
       <use xlink:href="#URWPalladioL-Roma-31" transform="translate(149.439601 0)scale(0.996264)"/>
       <use xlink:href="#CMSY10-0" transform="translate(200.498102 0)scale(1.038107)"/>
       <use xlink:href="#URWPalladioL-Roma-31" transform="translate(282.439798 0)scale(0.996264)"/>
       <use xlink:href="#URWPalladioL-Roma-31" transform="translate(332.252998 0)scale(0.996264)"/>
      </g>
     </g>
    </g>
    <g id="xtick_6">
     <g id="line2d_6">
      <g>
       <use xlink:href="#m13803fab17" x="293.107572" y="228.96" style="stroke: #000000; stroke-width: 0.8"/>
      </g>
     </g>
     <g id="text_6">
      <!-- $\mathdefault{2021{-}12}$ -->
      <g transform="translate(295.266985 274.166609)rotate(-90)scale(0.1 -0.1)">
       <use xlink:href="#URWPalladioL-Roma-32" transform="scale(0.996264)"/>
       <use xlink:href="#URWPalladioL-Roma-30" transform="translate(49.8132 0)scale(0.996264)"/>
       <use xlink:href="#URWPalladioL-Roma-32" transform="translate(99.626401 0)scale(0.996264)"/>
       <use xlink:href="#URWPalladioL-Roma-31" transform="translate(149.439601 0)scale(0.996264)"/>
       <use xlink:href="#CMSY10-0" transform="translate(200.498102 0)scale(1.038107)"/>
       <use xlink:href="#URWPalladioL-Roma-31" transform="translate(282.439798 0)scale(0.996264)"/>
       <use xlink:href="#URWPalladioL-Roma-32" transform="translate(332.252998 0)scale(0.996264)"/>
      </g>
     </g>
    </g>
    <g id="xtick_7">
     <g id="line2d_7">
      <g>
       <use xlink:href="#m13803fab17" x="337.921043" y="228.96" style="stroke: #000000; stroke-width: 0.8"/>
      </g>
     </g>
     <g id="text_7">
      <!-- $\mathdefault{2022{-}01}$ -->
      <g transform="translate(340.080456 274.166609)rotate(-90)scale(0.1 -0.1)">
       <use xlink:href="#URWPalladioL-Roma-32" transform="scale(0.996264)"/>
       <use xlink:href="#URWPalladioL-Roma-30" transform="translate(49.8132 0)scale(0.996264)"/>
       <use xlink:href="#URWPalladioL-Roma-32" transform="translate(99.626401 0)scale(0.996264)"/>
       <use xlink:href="#URWPalladioL-Roma-32" transform="translate(149.439601 0)scale(0.996264)"/>
       <use xlink:href="#CMSY10-0" transform="translate(200.498102 0)scale(1.038107)"/>
       <use xlink:href="#URWPalladioL-Roma-30" transform="translate(282.439798 0)scale(0.996264)"/>
       <use xlink:href="#URWPalladioL-Roma-31" transform="translate(332.252998 0)scale(0.996264)"/>
      </g>
     </g>
    </g>
   </g>
   <g id="matplotlib.axis_2">
    <g id="ytick_1">
     <g id="line2d_8">
      <defs>
       <path id="ma48cbe774f" d="M 0 0 
L -3.5 0 
" style="stroke: #000000; stroke-width: 0.8"/>
      </defs>
      <g>
       <use xlink:href="#ma48cbe774f" x="65.426224" y="228.96" style="stroke: #000000; stroke-width: 0.8"/>
      </g>
     </g>
     <g id="text_8">
      <!-- $\mathdefault{0}$ -->
      <g transform="translate(53.444904 232.524119)scale(0.1 -0.1)">
       <use xlink:href="#URWPalladioL-Roma-30" transform="scale(0.996264)"/>
      </g>
     </g>
    </g>
    <g id="ytick_2">
     <g id="line2d_9">
      <g>
       <use xlink:href="#ma48cbe774f" x="65.426224" y="199.265403" style="stroke: #000000; stroke-width: 0.8"/>
      </g>
     </g>
     <g id="text_9">
      <!-- $\mathdefault{200}$ -->
      <g transform="translate(43.482264 202.829521)scale(0.1 -0.1)">
       <use xlink:href="#URWPalladioL-Roma-32" transform="scale(0.996264)"/>
       <use xlink:href="#URWPalladioL-Roma-30" transform="translate(49.8132 0)scale(0.996264)"/>
       <use xlink:href="#URWPalladioL-Roma-30" transform="translate(99.626401 0)scale(0.996264)"/>
      </g>
     </g>
    </g>
    <g id="ytick_3">
     <g id="line2d_10">
      <g>
       <use xlink:href="#ma48cbe774f" x="65.426224" y="169.570806" style="stroke: #000000; stroke-width: 0.8"/>
      </g>
     </g>
     <g id="text_10">
      <!-- $\mathdefault{400}$ -->
      <g transform="translate(43.482264 173.134924)scale(0.1 -0.1)">
       <defs>
        <path id="URWPalladioL-Roma-34" d="M 1792 1152 
L 1792 673 
C 1792 289 1722 199 1408 199 
L 1011 199 
L 1011 0 
C 1862 0 1862 0 2016 0 
C 2170 0 2170 0 3021 0 
L 3021 199 
L 2714 199 
C 2400 199 2330 282 2330 669 
L 2330 1152 
C 2707 1152 2842 1152 3021 1133 
L 3021 1588 
C 2720 1563 2598 1563 2502 1563 
L 2483 1563 
L 2330 1563 
L 2330 2457 
C 2330 3600 2342 4152 2374 4416 
L 2298 4448 
L 1824 4275 
L 13 1299 
L 83 1152 
L 1792 1152 
z
M 1792 1563 
L 416 1563 
L 1792 3826 
L 1792 1563 
z
" transform="scale(0.015625)"/>
       </defs>
       <use xlink:href="#URWPalladioL-Roma-34" transform="scale(0.996264)"/>
       <use xlink:href="#URWPalladioL-Roma-30" transform="translate(49.8132 0)scale(0.996264)"/>
       <use xlink:href="#URWPalladioL-Roma-30" transform="translate(99.626401 0)scale(0.996264)"/>
      </g>
     </g>
    </g>
    <g id="ytick_4">
     <g id="line2d_11">
      <g>
       <use xlink:href="#ma48cbe774f" x="65.426224" y="139.876208" style="stroke: #000000; stroke-width: 0.8"/>
      </g>
     </g>
     <g id="text_11">
      <!-- $\mathdefault{600}$ -->
      <g transform="translate(43.482264 143.440327)scale(0.1 -0.1)">
       <defs>
        <path id="URWPalladioL-Roma-36" d="M 2662 4310 
L 2426 4419 
C 1811 4214 1549 4086 1222 3804 
C 563 3246 205 2464 205 1585 
C 205 526 717 -128 1542 -128 
C 2374 -128 2995 532 2995 1405 
C 2995 2143 2554 2624 1875 2624 
C 1555 2624 1363 2540 986 2239 
C 915 2181 909 2175 838 2124 
C 973 3284 1510 3913 2662 4259 
L 2662 4310 
z
M 1632 2239 
C 2118 2239 2445 1816 2445 1181 
C 2445 513 2118 83 1626 83 
C 1082 83 787 551 787 1412 
C 787 1636 813 1758 883 1867 
C 1024 2085 1325 2239 1632 2239 
z
" transform="scale(0.015625)"/>
       </defs>
       <use xlink:href="#URWPalladioL-Roma-36" transform="scale(0.996264)"/>
       <use xlink:href="#URWPalladioL-Roma-30" transform="translate(49.8132 0)scale(0.996264)"/>
       <use xlink:href="#URWPalladioL-Roma-30" transform="translate(99.626401 0)scale(0.996264)"/>
      </g>
     </g>
    </g>
    <g id="ytick_5">
     <g id="line2d_12">
      <g>
       <use xlink:href="#ma48cbe774f" x="65.426224" y="110.181611" style="stroke: #000000; stroke-width: 0.8"/>
      </g>
     </g>
     <g id="text_12">
      <!-- $\mathdefault{800}$ -->
      <g transform="translate(43.482264 113.74573)scale(0.1 -0.1)">
       <use xlink:href="#URWPalladioL-Roma-38" transform="scale(0.996264)"/>
       <use xlink:href="#URWPalladioL-Roma-30" transform="translate(49.8132 0)scale(0.996264)"/>
       <use xlink:href="#URWPalladioL-Roma-30" transform="translate(99.626401 0)scale(0.996264)"/>
      </g>
     </g>
    </g>
    <g id="ytick_6">
     <g id="line2d_13">
      <g>
       <use xlink:href="#ma48cbe774f" x="65.426224" y="80.487014" style="stroke: #000000; stroke-width: 0.8"/>
      </g>
     </g>
     <g id="text_13">
      <!-- $\mathdefault{1000}$ -->
      <g transform="translate(38.500944 84.051132)scale(0.1 -0.1)">
       <use xlink:href="#URWPalladioL-Roma-31" transform="scale(0.996264)"/>
       <use xlink:href="#URWPalladioL-Roma-30" transform="translate(49.8132 0)scale(0.996264)"/>
       <use xlink:href="#URWPalladioL-Roma-30" transform="translate(99.626401 0)scale(0.996264)"/>
       <use xlink:href="#URWPalladioL-Roma-30" transform="translate(149.439601 0)scale(0.996264)"/>
      </g>
     </g>
    </g>
    <g id="ytick_7">
     <g id="line2d_14">
      <g>
       <use xlink:href="#ma48cbe774f" x="65.426224" y="50.792417" style="stroke: #000000; stroke-width: 0.8"/>
      </g>
     </g>
     <g id="text_14">
      <!-- $\mathdefault{1200}$ -->
      <g transform="translate(38.500944 54.356535)scale(0.1 -0.1)">
       <use xlink:href="#URWPalladioL-Roma-31" transform="scale(0.996264)"/>
       <use xlink:href="#URWPalladioL-Roma-32" transform="translate(49.8132 0)scale(0.996264)"/>
       <use xlink:href="#URWPalladioL-Roma-30" transform="translate(99.626401 0)scale(0.996264)"/>
       <use xlink:href="#URWPalladioL-Roma-30" transform="translate(149.439601 0)scale(0.996264)"/>
      </g>
     </g>
    </g>
    <g id="ytick_8">
     <g id="line2d_15">
      <g>
       <use xlink:href="#ma48cbe774f" x="65.426224" y="21.097819" style="stroke: #000000; stroke-width: 0.8"/>
      </g>
     </g>
     <g id="text_15">
      <!-- $\mathdefault{1400}$ -->
      <g transform="translate(38.500944 24.661938)scale(0.1 -0.1)">
       <use xlink:href="#URWPalladioL-Roma-31" transform="scale(0.996264)"/>
       <use xlink:href="#URWPalladioL-Roma-34" transform="translate(49.8132 0)scale(0.996264)"/>
       <use xlink:href="#URWPalladioL-Roma-30" transform="translate(99.626401 0)scale(0.996264)"/>
       <use xlink:href="#URWPalladioL-Roma-30" transform="translate(149.439601 0)scale(0.996264)"/>
      </g>
     </g>
    </g>
    <g id="text_16">
     <!-- case incidence (WHO) -->
     <g transform="translate(14.328237 167.065836)rotate(-90)scale(0.1 -0.1)">
      <defs>
       <path id="URWPalladioL-Roma-63" d="M 2554 1994 
C 2554 2289 2586 2552 2643 2783 
C 2387 2937 2163 3008 1901 3008 
C 1594 3008 1235 2886 851 2642 
C 403 2360 166 1911 166 1347 
C 166 481 774 -128 1632 -128 
C 1965 -128 2445 -6 2509 90 
L 2643 295 
L 2579 391 
C 2342 263 2138 205 1907 205 
C 1197 205 730 757 730 1603 
C 730 2289 1050 2674 1626 2674 
C 1907 2674 2214 2546 2330 2386 
L 2374 1994 
L 2554 1994 
z
" transform="scale(0.015625)"/>
       <path id="URWPalladioL-Roma-61" d="M 2074 538 
L 2042 -1 
C 2458 -1 2458 -1 2541 -1 
C 2573 -1 2733 -1 3014 -1 
L 3014 192 
L 2765 192 
C 2611 192 2586 244 2586 558 
L 2586 1731 
C 2586 2668 2317 3008 1574 3008 
C 1299 3008 1043 2937 800 2791 
L 461 2585 
L 461 2171 
L 627 2126 
L 710 2323 
C 845 2623 909 2668 1203 2668 
C 1805 2668 2054 2431 2074 1852 
L 1440 1736 
C 570 1577 205 1277 205 722 
C 205 224 506 -64 1011 -64 
C 1126 -64 1235 -45 1280 -13 
L 2074 538 
z
M 2074 806 
C 1888 544 1485 302 1235 302 
C 979 302 755 538 755 812 
C 755 1048 883 1271 1075 1392 
C 1235 1488 1587 1577 2074 1648 
L 2074 806 
z
" transform="scale(0.015625)"/>
       <path id="URWPalladioL-Roma-73" d="M 262 917 
C 262 475 243 282 192 26 
C 525 -83 774 -128 1069 -128 
C 1907 -128 2502 321 2502 949 
C 2502 1148 2445 1295 2323 1424 
C 2157 1584 1946 1661 1382 1770 
C 858 1873 685 2001 685 2296 
C 685 2616 909 2796 1299 2796 
C 1728 2796 2054 2572 2054 2270 
L 2054 2123 
L 2234 2123 
C 2240 2495 2246 2648 2266 2847 
C 1926 2963 1696 3008 1434 3008 
C 691 3008 237 2655 237 2078 
C 237 1770 378 1552 672 1417 
C 845 1340 1184 1238 1619 1141 
C 1907 1077 2029 943 2029 699 
C 2029 353 1709 109 1254 109 
C 787 109 454 333 454 654 
L 454 917 
L 262 917 
z
" transform="scale(0.015625)"/>
       <path id="URWPalladioL-Roma-65" d="M 2797 447 
L 2714 511 
C 2304 269 2157 212 1882 212 
C 1466 212 1120 398 941 711 
C 819 921 774 1101 762 1472 
L 1696 1472 
C 2138 1472 2413 1472 2854 1544 
C 2861 1634 2867 1693 2867 1771 
C 2867 2520 2394 3008 1677 3008 
C 1440 3008 1165 2924 902 2770 
C 378 2469 166 2071 166 1404 
C 166 1000 262 654 435 410 
C 691 71 1120 -128 1600 -128 
C 1837 -128 2074 -77 2336 37 
C 2509 108 2643 191 2669 230 
L 2797 447 
z
M 2298 1690 
C 1965 1690 1811 1690 1581 1690 
C 1286 1690 1120 1690 774 1722 
C 774 2027 800 2169 883 2337 
C 1018 2622 1293 2796 1600 2796 
C 1811 2796 1978 2711 2093 2534 
C 2234 2319 2278 2129 2298 1690 
z
" transform="scale(0.015625)"/>
       <path id="URWPalladioL-Roma-69" d="M 1203 2993 
L 1146 3019 
C 819 2884 486 2793 147 2755 
L 147 2576 
L 384 2576 
C 640 2576 666 2531 666 2105 
L 666 651 
C 666 244 646 199 429 199 
L 134 199 
L 134 0 
C 774 0 774 0 934 0 
C 1094 0 1094 0 1734 0 
L 1734 199 
L 1440 199 
C 1222 199 1203 244 1203 651 
L 1203 2993 
z
M 909 4416 
C 717 4416 550 4249 550 4056 
C 550 3870 717 3704 902 3704 
C 1088 3704 1261 3870 1261 4056 
C 1261 4236 1088 4416 909 4416 
z
" transform="scale(0.015625)"/>
       <path id="URWPalladioL-Roma-6e" d="M 2624 -7 
C 3014 -7 3021 -7 3130 -7 
C 3219 -7 3219 -7 3661 -7 
L 3661 179 
L 3398 205 
C 3181 205 3162 244 3162 654 
L 3162 1892 
C 3162 2642 2810 3008 2093 3008 
C 1856 3008 1722 2963 1587 2847 
L 1101 2424 
L 1101 2982 
L 1043 3008 
C 717 2873 384 2783 45 2745 
L 45 2565 
L 282 2565 
C 538 2565 563 2520 563 2094 
L 563 643 
C 563 237 544 192 326 192 
L 38 192 
L 38 -7 
C 474 -7 646 -7 832 -7 
C 1018 -7 1190 -7 1626 -7 
L 1626 192 
L 1338 192 
C 1120 192 1101 237 1101 643 
L 1101 2011 
C 1101 2300 1523 2616 1914 2616 
C 2342 2616 2624 2297 2624 1806 
L 2624 -7 
z
" transform="scale(0.015625)"/>
       <path id="URWPalladioL-Roma-64" d="M 2637 2802 
C 2278 2956 2099 3008 1875 3008 
C 1702 3008 1549 2969 1389 2887 
L 826 2593 
C 461 2401 224 1935 224 1392 
C 224 881 397 460 710 204 
C 928 19 1229 -64 1645 -64 
C 1773 -64 1920 -38 1952 -13 
L 2662 583 
L 2630 -7 
C 2944 -7 3046 -7 3123 -7 
C 3174 -7 3264 -7 3398 -7 
C 3443 -7 3571 -7 3706 -7 
L 3706 192 
L 3411 192 
C 3194 192 3174 237 3174 643 
L 3174 4607 
L 3117 4659 
C 2835 4550 2624 4498 2118 4421 
L 2118 4242 
L 2477 4242 
C 2592 4242 2637 4171 2637 3978 
L 2637 2802 
z
M 2637 1424 
C 2637 1009 2624 946 2541 799 
C 2362 499 2048 302 1747 302 
C 1184 302 781 844 781 1603 
C 781 2298 1126 2706 1702 2706 
C 1946 2706 2202 2623 2426 2470 
C 2560 2381 2637 2298 2637 2246 
L 2637 1424 
z
" transform="scale(0.015625)"/>
       <path id="URWPalladioL-Roma-28" d="M 1926 -1244 
C 1466 -673 1299 -366 1133 212 
C 998 673 934 1161 934 1706 
C 934 2238 998 2693 1120 3110 
C 1286 3642 1459 3944 1926 4489 
L 1805 4656 
C 1139 4059 877 3707 634 3078 
C 467 2648 384 2193 384 1706 
C 384 1020 544 372 851 -205 
C 1075 -635 1280 -885 1805 -1379 
L 1926 -1244 
z
" transform="scale(0.015625)"/>
       <path id="URWPalladioL-Roma-57" d="M 4698 -64 
C 4723 32 4742 122 4749 154 
C 4768 218 4819 411 4870 584 
L 5850 4032 
C 5888 4147 5952 4205 6093 4218 
L 6298 4237 
L 6298 4416 
L 5626 4416 
C 5562 4416 5562 4416 4954 4416 
L 4954 4237 
L 5210 4218 
C 5434 4199 5504 4167 5510 4063 
C 5510 4044 5510 4025 5504 4005 
L 4659 872 
L 3610 3826 
C 3469 4211 3450 4262 3398 4480 
L 3194 4480 
C 3059 4082 2950 3795 2618 2935 
L 1824 917 
L 1184 3795 
C 1165 3872 1158 3942 1158 4006 
C 1158 4147 1222 4205 1395 4218 
L 1664 4237 
L 1664 4416 
L 858 4416 
C 813 4416 544 4416 51 4416 
L 51 4237 
L 230 4218 
C 416 4199 493 4128 550 3897 
L 1312 597 
C 1395 231 1395 225 1459 -64 
L 1779 -64 
C 1837 141 1888 295 2010 597 
L 3123 3429 
L 3923 1256 
C 4134 687 4154 635 4378 -64 
L 4698 -64 
z
" transform="scale(0.015625)"/>
       <path id="URWPalladioL-Roma-48" d="M 3942 773 
C 3942 257 3910 205 3616 205 
L 3309 205 
L 3309 0 
C 3686 0 3910 0 4243 0 
C 4576 0 4806 0 5184 0 
L 5184 205 
L 4877 205 
C 4582 205 4550 256 4550 766 
L 4550 3663 
C 4550 4172 4582 4224 4877 4224 
L 5184 4224 
L 5184 4423 
C 4717 4423 4576 4423 4243 4423 
C 3923 4423 3770 4423 3309 4423 
L 3309 4224 
L 3616 4224 
C 3910 4224 3942 4172 3942 3668 
L 3942 2529 
C 3808 2529 3674 2529 3411 2529 
L 1914 2529 
C 1651 2529 1510 2529 1382 2529 
L 1382 3668 
C 1382 4172 1414 4224 1709 4224 
L 2016 4224 
L 2016 4423 
C 1549 4423 1408 4423 1075 4423 
C 755 4423 602 4423 141 4423 
L 141 4224 
L 448 4224 
C 742 4224 774 4172 774 3663 
L 774 766 
C 774 256 742 205 448 205 
L 141 205 
L 141 0 
C 518 0 742 0 1075 0 
C 1408 0 1638 0 2016 0 
L 2016 205 
L 1709 205 
C 1414 205 1382 257 1382 773 
L 1382 2227 
C 1555 2240 1658 2240 1914 2240 
L 3411 2240 
C 3667 2240 3770 2240 3942 2227 
L 3942 773 
z
" transform="scale(0.015625)"/>
       <path id="URWPalladioL-Roma-4f" d="M 2573 4544 
C 1114 4544 141 3596 141 2186 
C 141 839 1075 -128 2368 -128 
C 3802 -128 4890 942 4890 2351 
C 4890 3698 3994 4544 2573 4544 
z
M 2464 4274 
C 3558 4274 4205 3493 4205 2160 
C 4205 890 3616 141 2624 141 
C 1549 141 826 1051 826 2422 
C 826 3607 1414 4274 2464 4274 
z
" transform="scale(0.015625)"/>
       <path id="URWPalladioL-Roma-29" d="M 326 -1379 
C 768 -962 954 -750 1152 -436 
C 1542 186 1747 930 1747 1699 
C 1747 2193 1664 2648 1498 3078 
C 1254 3700 992 4053 326 4656 
L 205 4489 
C 672 3937 845 3636 1005 3110 
C 1133 2693 1197 2238 1197 1706 
C 1197 1161 1133 673 998 212 
C 832 -366 666 -673 205 -1244 
L 326 -1379 
z
" transform="scale(0.015625)"/>
      </defs>
      <use xlink:href="#URWPalladioL-Roma-63" transform="scale(0.996264)"/>
      <use xlink:href="#URWPalladioL-Roma-61" transform="translate(44.233569 0)scale(0.996264)"/>
      <use xlink:href="#URWPalladioL-Roma-73" transform="translate(94.046769 0)scale(0.996264)"/>
      <use xlink:href="#URWPalladioL-Roma-65" transform="translate(136.288236 0)scale(0.996264)"/>
      <use xlink:href="#URWPalladioL-Roma-69" transform="translate(208.915131 0)scale(0.996264)"/>
      <use xlink:href="#URWPalladioL-Roma-6e" transform="translate(237.905492 0)scale(0.996264)"/>
      <use xlink:href="#URWPalladioL-Roma-63" transform="translate(295.887553 0)scale(0.996264)"/>
      <use xlink:href="#URWPalladioL-Roma-69" transform="translate(340.121122 0)scale(0.996264)"/>
      <use xlink:href="#URWPalladioL-Roma-64" transform="translate(369.111483 0)scale(0.996264)"/>
      <use xlink:href="#URWPalladioL-Roma-65" transform="translate(429.983114 0)scale(0.996264)"/>
      <use xlink:href="#URWPalladioL-Roma-6e" transform="translate(477.703409 0)scale(0.996264)"/>
      <use xlink:href="#URWPalladioL-Roma-63" transform="translate(535.68547 0)scale(0.996264)"/>
      <use xlink:href="#URWPalladioL-Roma-65" transform="translate(579.919038 0)scale(0.996264)"/>
      <use xlink:href="#URWPalladioL-Roma-28" transform="translate(652.545934 0)scale(0.996264)"/>
      <use xlink:href="#URWPalladioL-Roma-57" transform="translate(685.721163 0)scale(0.996264)"/>
      <use xlink:href="#URWPalladioL-Roma-48" transform="translate(785.347564 0)scale(0.996264)"/>
      <use xlink:href="#URWPalladioL-Roma-4f" transform="translate(868.236225 0)scale(0.996264)"/>
      <use xlink:href="#URWPalladioL-Roma-29" transform="translate(946.542507 0)scale(0.996264)"/>
     </g>
     <!-- new cases over 7 days per 100000 -->
     <g transform="translate(25.691533 191.389569)rotate(-90)scale(0.1 -0.1)">
      <defs>
       <path id="URWPalladioL-Roma-77" d="M 2643 3008 
C 2118 1788 2022 1571 1626 677 
L 1088 2444 
C 1069 2502 1062 2553 1062 2604 
C 1062 2700 1146 2752 1306 2752 
L 1562 2752 
L 1562 2932 
C 928 2932 928 2932 800 2932 
C 672 2932 672 2932 38 2932 
L 38 2765 
L 218 2752 
C 397 2739 480 2612 640 2114 
L 1293 -32 
L 1594 -32 
L 2221 1437 
C 2253 1514 2323 1667 2426 1884 
L 2554 2152 
L 3424 -32 
L 3718 -32 
C 3763 102 3814 249 3866 389 
C 3994 767 4134 1162 4160 1201 
L 4595 2196 
C 4787 2625 4864 2733 5005 2752 
L 5171 2765 
L 5171 2932 
C 4646 2932 4646 2932 4544 2932 
C 4442 2932 4442 2932 3917 2932 
L 3917 2752 
L 4134 2752 
C 4294 2752 4384 2675 4384 2559 
C 4384 2489 4371 2412 4339 2329 
L 4019 1433 
C 3968 1292 3917 1163 3712 638 
L 2976 2490 
C 2886 2707 2842 2835 2790 3008 
L 2643 3008 
z
" transform="scale(0.015625)"/>
       <path id="URWPalladioL-Roma-6f" d="M 1786 3008 
C 851 3008 205 2347 205 1392 
C 205 487 774 -128 1600 -128 
C 2586 -128 3290 558 3290 1520 
C 3290 2386 2662 3008 1786 3008 
z
M 1670 2796 
C 2259 2796 2694 2155 2694 1283 
C 2694 545 2368 83 1850 83 
C 1222 83 800 699 800 1610 
C 800 2379 1107 2796 1670 2796 
z
" transform="scale(0.015625)"/>
       <path id="URWPalladioL-Roma-76" d="M 3450 2752 
L 3450 2932 
C 3066 2932 2950 2932 2848 2932 
C 2746 2932 2630 2932 2246 2932 
L 2246 2752 
L 2509 2752 
C 2611 2752 2662 2694 2662 2591 
C 2662 2489 2618 2317 2541 2124 
L 2272 1445 
C 2195 1259 2118 1080 1875 549 
L 1114 2393 
C 1075 2482 1056 2566 1056 2636 
C 1056 2707 1114 2752 1216 2752 
L 1530 2752 
L 1530 2932 
C 902 2932 902 2932 781 2932 
C 659 2932 352 2932 38 2932 
L 38 2752 
L 256 2752 
C 352 2739 384 2701 454 2541 
L 1555 -32 
L 1875 -32 
C 1914 77 1978 243 1978 256 
C 2048 447 2131 664 2138 664 
L 2893 2324 
C 3034 2625 3123 2739 3251 2752 
L 3450 2752 
z
" transform="scale(0.015625)"/>
       <path id="URWPalladioL-Roma-72" d="M 147 2565 
L 384 2565 
C 640 2565 666 2520 666 2094 
L 666 643 
C 666 237 646 192 429 192 
L 134 192 
L 134 -7 
C 595 -7 762 -7 922 -7 
C 1050 -7 1050 -7 1837 -7 
L 1837 192 
L 1504 192 
C 1216 192 1203 211 1203 638 
L 1203 1751 
C 1203 2139 1459 2463 1773 2463 
C 1965 2463 2099 2373 2202 2169 
L 2336 2169 
L 2394 2937 
C 2323 2982 2208 3008 2093 3008 
C 1901 3008 1696 2905 1562 2745 
L 1203 2322 
L 1203 2982 
L 1146 3008 
C 819 2873 486 2783 147 2745 
L 147 2565 
z
" transform="scale(0.015625)"/>
       <path id="URWPalladioL-Roma-79" d="M 1901 564 
C 1760 808 1690 956 1574 1270 
L 1165 2347 
C 1126 2456 1101 2552 1101 2618 
C 1101 2710 1171 2764 1318 2764 
L 1562 2764 
L 1562 2944 
C 941 2944 941 2944 819 2944 
C 698 2944 698 2944 77 2944 
L 77 2777 
L 192 2764 
C 352 2745 429 2674 525 2451 
L 1222 775 
C 1402 340 1466 186 1581 -134 
L 1434 -524 
C 1229 -1062 979 -1362 736 -1362 
C 634 -1362 518 -1311 410 -1215 
L 326 -1215 
L 173 -1696 
C 294 -1760 397 -1792 518 -1792 
C 947 -1792 1222 -1562 1466 -1005 
L 2765 1990 
C 3021 2572 3142 2745 3302 2764 
L 3482 2777 
L 3482 2944 
C 2976 2944 2976 2944 2874 2944 
C 2771 2944 2771 2944 2266 2944 
L 2266 2777 
L 2432 2764 
C 2611 2751 2701 2694 2701 2604 
C 2701 2559 2688 2501 2662 2437 
L 1901 564 
z
" transform="scale(0.015625)"/>
       <path id="URWPalladioL-Roma-70" d="M 64 2565 
L 301 2565 
C 557 2565 582 2520 582 2095 
L 582 -1142 
C 582 -1548 563 -1593 346 -1593 
L 51 -1593 
L 51 -1792 
C 691 -1792 691 -1792 851 -1792 
C 1011 -1792 1011 -1792 1651 -1792 
L 1651 -1593 
L 1357 -1593 
C 1139 -1593 1120 -1547 1120 -1138 
L 1120 89 
C 1312 -26 1517 -71 1805 -71 
C 1990 -71 2157 -32 2259 32 
L 2989 505 
C 3245 672 3546 1330 3546 1740 
C 3546 2451 2957 3008 2214 3008 
C 1978 3008 1747 2943 1645 2847 
L 1120 2367 
L 1120 2982 
L 1062 3008 
C 736 2873 403 2783 64 2745 
L 64 2565 
z
M 1120 1964 
C 1120 2053 1152 2124 1235 2233 
C 1421 2469 1683 2591 2003 2591 
C 2605 2591 2989 2169 2989 1504 
C 2989 787 2560 256 1984 256 
C 1632 256 1370 372 1120 633 
L 1120 1964 
z
" transform="scale(0.015625)"/>
      </defs>
      <use xlink:href="#URWPalladioL-Roma-6e" transform="scale(0.996264)"/>
      <use xlink:href="#URWPalladioL-Roma-65" transform="translate(57.982061 0)scale(0.996264)"/>
      <use xlink:href="#URWPalladioL-Roma-77" transform="translate(105.702356 0)scale(0.996264)"/>
      <use xlink:href="#URWPalladioL-Roma-63" transform="translate(213.697049 0)scale(0.996264)"/>
      <use xlink:href="#URWPalladioL-Roma-61" transform="translate(257.930618 0)scale(0.996264)"/>
      <use xlink:href="#URWPalladioL-Roma-73" transform="translate(307.743818 0)scale(0.996264)"/>
      <use xlink:href="#URWPalladioL-Roma-65" transform="translate(349.985285 0)scale(0.996264)"/>
      <use xlink:href="#URWPalladioL-Roma-73" transform="translate(397.70558 0)scale(0.996264)"/>
      <use xlink:href="#URWPalladioL-Roma-6f" transform="translate(464.853646 0)scale(0.996264)"/>
      <use xlink:href="#URWPalladioL-Roma-76" transform="translate(519.249227 0)scale(0.996264)"/>
      <use xlink:href="#URWPalladioL-Roma-65" transform="translate(575.53714 0)scale(0.996264)"/>
      <use xlink:href="#URWPalladioL-Roma-72" transform="translate(623.257435 0)scale(0.996264)"/>
      <use xlink:href="#URWPalladioL-Roma-37" transform="translate(687.515931 0)scale(0.996264)"/>
      <use xlink:href="#URWPalladioL-Roma-64" transform="translate(762.235732 0)scale(0.996264)"/>
      <use xlink:href="#URWPalladioL-Roma-61" transform="translate(823.107363 0)scale(0.996264)"/>
      <use xlink:href="#URWPalladioL-Roma-79" transform="translate(872.920563 0)scale(0.996264)"/>
      <use xlink:href="#URWPalladioL-Roma-73" transform="translate(928.31224 0)scale(0.996264)"/>
      <use xlink:href="#URWPalladioL-Roma-70" transform="translate(995.460307 0)scale(0.996264)"/>
      <use xlink:href="#URWPalladioL-Roma-65" transform="translate(1055.334701 0)scale(0.996264)"/>
      <use xlink:href="#URWPalladioL-Roma-72" transform="translate(1103.054996 0)scale(0.996264)"/>
      <use xlink:href="#URWPalladioL-Roma-31" transform="translate(1167.313492 0)scale(0.996264)"/>
      <use xlink:href="#URWPalladioL-Roma-30" transform="translate(1217.126693 0)scale(0.996264)"/>
      <use xlink:href="#URWPalladioL-Roma-30" transform="translate(1266.939893 0)scale(0.996264)"/>
      <use xlink:href="#URWPalladioL-Roma-30" transform="translate(1316.753094 0)scale(0.996264)"/>
      <use xlink:href="#URWPalladioL-Roma-30" transform="translate(1366.566294 0)scale(0.996264)"/>
      <use xlink:href="#URWPalladioL-Roma-30" transform="translate(1416.379495 0)scale(0.996264)"/>
     </g>
    </g>
   </g>
   <g id="line2d_16">
    <path d="M 65.426224 225.99054 
L 344.426224 225.99054 
" clip-path="url(#p7b17340d87)" style="fill: none; stroke: #ffff00; stroke-width: 1.5; stroke-linecap: square"/>
   </g>
   <g id="line2d_17">
    <path d="M 65.426224 221.536351 
L 344.426224 221.536351 
" clip-path="url(#p7b17340d87)" style="fill: none; stroke: #ffa500; stroke-width: 1.5; stroke-linecap: square"/>
   </g>
   <g id="line2d_18">
    <path d="M 65.426224 206.689052 
L 344.426224 206.689052 
" clip-path="url(#p7b17340d87)" style="fill: none; stroke: #ff0000; stroke-width: 1.5; stroke-linecap: square"/>
   </g>
   <g id="patch_196">
    <path d="M 65.426224 228.96 
L 65.426224 7.2 
" style="fill: none; stroke: #000000; stroke-width: 0.8; stroke-linejoin: miter; stroke-linecap: square"/>
   </g>
   <g id="patch_197">
    <path d="M 65.426224 228.96 
L 344.426224 228.96 
" style="fill: none; stroke: #000000; stroke-width: 0.8; stroke-linejoin: miter; stroke-linecap: square"/>
   </g>
   <g id="text_17">
    <!-- low incidence of community transmission -->
    <g style="fill: #ffff00" transform="translate(352.796224 230.922859)scale(0.1 -0.1)">
     <defs>
      <path id="URWPalladioL-Roma-6c" d="M 147 4256 
L 506 4256 
C 621 4256 666 4185 666 3992 
L 666 651 
C 666 244 646 199 429 199 
L 134 199 
L 134 0 
C 774 0 774 0 934 0 
C 1094 0 1094 0 1734 0 
L 1734 199 
L 1440 199 
C 1222 199 1203 244 1203 650 
L 1203 4621 
L 1146 4673 
C 864 4564 653 4512 147 4435 
L 147 4256 
z
" transform="scale(0.015625)"/>
      <path id="URWPalladioL-Roma-66" d="M 2182 4601 
C 2048 4652 1971 4672 1888 4672 
C 1683 4672 1459 4563 1318 4404 
L 947 3985 
C 762 3775 678 3490 678 3070 
L 678 2803 
L 237 2604 
L 237 2476 
L 678 2476 
L 678 651 
C 678 244 659 199 442 199 
L 147 199 
L 147 0 
C 787 0 787 0 947 0 
C 1107 0 1107 0 1747 0 
L 1747 199 
L 1453 199 
C 1235 199 1216 245 1216 653 
L 1216 2489 
L 2010 2489 
L 2054 2816 
L 1216 2816 
L 1216 3350 
C 1216 4073 1299 4248 1664 4248 
C 1837 4248 1952 4204 2106 4071 
L 2182 4109 
L 2182 4601 
z
" transform="scale(0.015625)"/>
      <path id="URWPalladioL-Roma-6d" d="M 115 2565 
L 352 2565 
C 608 2565 634 2520 634 2094 
L 634 643 
C 634 237 614 192 397 192 
L 102 192 
L 102 -7 
C 717 -7 736 -7 915 -7 
C 1094 -7 1261 -7 1677 -7 
L 1677 179 
L 1408 205 
C 1190 205 1171 250 1171 654 
L 1171 2014 
C 1171 2302 1594 2616 1978 2616 
C 2323 2616 2560 2287 2560 1798 
L 2560 643 
C 2560 237 2541 192 2323 192 
L 2029 192 
L 2029 -7 
C 2669 -7 2669 -7 2829 -7 
C 2989 -7 2989 -7 3629 -7 
L 3629 192 
L 3334 192 
C 3117 192 3098 237 3098 643 
L 3098 2011 
C 3098 2300 3520 2616 3904 2616 
C 4250 2616 4486 2291 4486 1806 
L 4486 -7 
C 4877 -7 4883 -7 4992 -7 
C 5075 -7 5075 -7 5562 -7 
L 5562 192 
L 5261 192 
C 5043 192 5024 237 5024 643 
L 5024 1970 
C 5024 2608 4653 3008 4064 3008 
C 3840 3008 3654 2950 3539 2847 
L 3053 2412 
C 2848 2834 2586 3008 2144 3008 
C 1907 3008 1728 2950 1613 2847 
L 1171 2437 
L 1171 2982 
L 1114 3008 
C 787 2873 454 2783 115 2745 
L 115 2565 
z
" transform="scale(0.015625)"/>
      <path id="URWPalladioL-Roma-75" d="M 3219 3009 
L 3162 3035 
C 2835 2900 2502 2810 2163 2772 
L 2163 2592 
L 2400 2592 
C 2656 2592 2682 2547 2682 2121 
L 2682 1070 
C 2682 928 2592 747 2445 599 
C 2266 418 2061 327 1811 327 
C 1587 327 1408 398 1306 521 
C 1216 624 1171 824 1171 1107 
L 1171 3009 
L 1114 3035 
C 787 2900 454 2810 115 2772 
L 115 2592 
L 352 2592 
C 608 2592 634 2547 634 2122 
L 634 1039 
C 634 587 672 387 787 227 
C 928 33 1171 -64 1536 -64 
C 1824 -64 2080 26 2253 186 
L 2682 585 
C 2682 401 2675 298 2656 0 
C 3085 0 3091 0 3187 0 
C 3277 0 3277 0 3718 0 
L 3718 186 
L 3456 212 
C 3238 212 3219 251 3219 664 
L 3219 3009 
z
" transform="scale(0.015625)"/>
      <path id="URWPalladioL-Roma-74" d="M 627 2476 
L 627 619 
C 627 142 838 -64 1331 -64 
C 1478 -64 1632 -32 1670 13 
L 1978 353 
L 1894 463 
C 1734 372 1638 340 1517 340 
C 1267 340 1165 470 1165 788 
L 1165 2489 
L 1984 2489 
L 2042 2816 
L 1165 2816 
L 1165 3056 
C 1165 3321 1184 3547 1235 3951 
L 1158 4021 
C 1005 3925 813 3842 614 3778 
C 634 3585 640 3463 640 3271 
L 640 2822 
L 141 2598 
L 141 2476 
L 627 2476 
z
" transform="scale(0.015625)"/>
     </defs>
     <use xlink:href="#URWPalladioL-Roma-6c" transform="scale(0.996264)"/>
     <use xlink:href="#URWPalladioL-Roma-6f" transform="translate(28.990361 0)scale(0.996264)"/>
     <use xlink:href="#URWPalladioL-Roma-77" transform="translate(83.385942 0)scale(0.996264)"/>
     <use xlink:href="#URWPalladioL-Roma-69" transform="translate(191.380635 0)scale(0.996264)"/>
     <use xlink:href="#URWPalladioL-Roma-6e" transform="translate(220.370996 0)scale(0.996264)"/>
     <use xlink:href="#URWPalladioL-Roma-63" transform="translate(278.353057 0)scale(0.996264)"/>
     <use xlink:href="#URWPalladioL-Roma-69" transform="translate(322.586626 0)scale(0.996264)"/>
     <use xlink:href="#URWPalladioL-Roma-64" transform="translate(351.576987 0)scale(0.996264)"/>
     <use xlink:href="#URWPalladioL-Roma-65" transform="translate(412.448618 0)scale(0.996264)"/>
     <use xlink:href="#URWPalladioL-Roma-6e" transform="translate(460.168913 0)scale(0.996264)"/>
     <use xlink:href="#URWPalladioL-Roma-63" transform="translate(518.150974 0)scale(0.996264)"/>
     <use xlink:href="#URWPalladioL-Roma-65" transform="translate(562.384542 0)scale(0.996264)"/>
     <use xlink:href="#URWPalladioL-Roma-6f" transform="translate(635.011438 0)scale(0.996264)"/>
     <use xlink:href="#URWPalladioL-Roma-66" transform="translate(689.407018 0)scale(0.996264)"/>
     <use xlink:href="#URWPalladioL-Roma-63" transform="translate(747.488848 0)scale(0.996264)"/>
     <use xlink:href="#URWPalladioL-Roma-6f" transform="translate(791.722417 0)scale(0.996264)"/>
     <use xlink:href="#URWPalladioL-Roma-6d" transform="translate(846.117997 0)scale(0.996264)"/>
     <use xlink:href="#URWPalladioL-Roma-6d" transform="translate(934.087671 0)scale(0.996264)"/>
     <use xlink:href="#URWPalladioL-Roma-75" transform="translate(1022.057345 0)scale(0.996264)"/>
     <use xlink:href="#URWPalladioL-Roma-6e" transform="translate(1082.13108 0)scale(0.996264)"/>
     <use xlink:href="#URWPalladioL-Roma-69" transform="translate(1140.113141 0)scale(0.996264)"/>
     <use xlink:href="#URWPalladioL-Roma-74" transform="translate(1169.103502 0)scale(0.996264)"/>
     <use xlink:href="#URWPalladioL-Roma-79" transform="translate(1201.58059 0)scale(0.996264)"/>
     <use xlink:href="#URWPalladioL-Roma-74" transform="translate(1281.878867 0)scale(0.996264)"/>
     <use xlink:href="#URWPalladioL-Roma-72" transform="translate(1314.355955 0)scale(0.996264)"/>
     <use xlink:href="#URWPalladioL-Roma-61" transform="translate(1353.707852 0)scale(0.996264)"/>
     <use xlink:href="#URWPalladioL-Roma-6e" transform="translate(1403.521052 0)scale(0.996264)"/>
     <use xlink:href="#URWPalladioL-Roma-73" transform="translate(1461.503113 0)scale(0.996264)"/>
     <use xlink:href="#URWPalladioL-Roma-6d" transform="translate(1503.744579 0)scale(0.996264)"/>
     <use xlink:href="#URWPalladioL-Roma-69" transform="translate(1591.714253 0)scale(0.996264)"/>
     <use xlink:href="#URWPalladioL-Roma-73" transform="translate(1620.704615 0)scale(0.996264)"/>
     <use xlink:href="#URWPalladioL-Roma-73" transform="translate(1662.946081 0)scale(0.996264)"/>
     <use xlink:href="#URWPalladioL-Roma-69" transform="translate(1705.187547 0)scale(0.996264)"/>
     <use xlink:href="#URWPalladioL-Roma-6f" transform="translate(1734.177909 0)scale(0.996264)"/>
     <use xlink:href="#URWPalladioL-Roma-6e" transform="translate(1788.573489 0)scale(0.996264)"/>
    </g>
   </g>
   <g id="text_18">
    <!-- moderate incidence of community transmission -->
    <g style="fill: #ffa500" transform="translate(352.796224 220.922859)scale(0.1 -0.1)">
     <use xlink:href="#URWPalladioL-Roma-6d" transform="scale(0.996264)"/>
     <use xlink:href="#URWPalladioL-Roma-6f" transform="translate(87.969674 0)scale(0.996264)"/>
     <use xlink:href="#URWPalladioL-Roma-64" transform="translate(142.365254 0)scale(0.996264)"/>
     <use xlink:href="#URWPalladioL-Roma-65" transform="translate(203.236885 0)scale(0.996264)"/>
     <use xlink:href="#URWPalladioL-Roma-72" transform="translate(250.95718 0)scale(0.996264)"/>
     <use xlink:href="#URWPalladioL-Roma-61" transform="translate(290.309077 0)scale(0.996264)"/>
     <use xlink:href="#URWPalladioL-Roma-74" transform="translate(340.122277 0)scale(0.996264)"/>
     <use xlink:href="#URWPalladioL-Roma-65" transform="translate(372.599365 0)scale(0.996264)"/>
     <use xlink:href="#URWPalladioL-Roma-69" transform="translate(445.22626 0)scale(0.996264)"/>
     <use xlink:href="#URWPalladioL-Roma-6e" transform="translate(474.216622 0)scale(0.996264)"/>
     <use xlink:href="#URWPalladioL-Roma-63" transform="translate(532.198682 0)scale(0.996264)"/>
     <use xlink:href="#URWPalladioL-Roma-69" transform="translate(576.432251 0)scale(0.996264)"/>
     <use xlink:href="#URWPalladioL-Roma-64" transform="translate(605.422613 0)scale(0.996264)"/>
     <use xlink:href="#URWPalladioL-Roma-65" transform="translate(666.294243 0)scale(0.996264)"/>
     <use xlink:href="#URWPalladioL-Roma-6e" transform="translate(714.014538 0)scale(0.996264)"/>
     <use xlink:href="#URWPalladioL-Roma-63" transform="translate(771.996599 0)scale(0.996264)"/>
     <use xlink:href="#URWPalladioL-Roma-65" transform="translate(816.230168 0)scale(0.996264)"/>
     <use xlink:href="#URWPalladioL-Roma-6f" transform="translate(888.857063 0)scale(0.996264)"/>
     <use xlink:href="#URWPalladioL-Roma-66" transform="translate(943.252643 0)scale(0.996264)"/>
     <use xlink:href="#URWPalladioL-Roma-63" transform="translate(1001.334473 0)scale(0.996264)"/>
     <use xlink:href="#URWPalladioL-Roma-6f" transform="translate(1045.568042 0)scale(0.996264)"/>
     <use xlink:href="#URWPalladioL-Roma-6d" transform="translate(1099.963622 0)scale(0.996264)"/>
     <use xlink:href="#URWPalladioL-Roma-6d" transform="translate(1187.933296 0)scale(0.996264)"/>
     <use xlink:href="#URWPalladioL-Roma-75" transform="translate(1275.902971 0)scale(0.996264)"/>
     <use xlink:href="#URWPalladioL-Roma-6e" transform="translate(1335.976705 0)scale(0.996264)"/>
     <use xlink:href="#URWPalladioL-Roma-69" transform="translate(1393.958766 0)scale(0.996264)"/>
     <use xlink:href="#URWPalladioL-Roma-74" transform="translate(1422.949128 0)scale(0.996264)"/>
     <use xlink:href="#URWPalladioL-Roma-79" transform="translate(1455.426215 0)scale(0.996264)"/>
     <use xlink:href="#URWPalladioL-Roma-74" transform="translate(1535.724493 0)scale(0.996264)"/>
     <use xlink:href="#URWPalladioL-Roma-72" transform="translate(1568.20158 0)scale(0.996264)"/>
     <use xlink:href="#URWPalladioL-Roma-61" transform="translate(1607.553477 0)scale(0.996264)"/>
     <use xlink:href="#URWPalladioL-Roma-6e" transform="translate(1657.366677 0)scale(0.996264)"/>
     <use xlink:href="#URWPalladioL-Roma-73" transform="translate(1715.348738 0)scale(0.996264)"/>
     <use xlink:href="#URWPalladioL-Roma-6d" transform="translate(1757.590204 0)scale(0.996264)"/>
     <use xlink:href="#URWPalladioL-Roma-69" transform="translate(1845.559879 0)scale(0.996264)"/>
     <use xlink:href="#URWPalladioL-Roma-73" transform="translate(1874.55024 0)scale(0.996264)"/>
     <use xlink:href="#URWPalladioL-Roma-73" transform="translate(1916.791706 0)scale(0.996264)"/>
     <use xlink:href="#URWPalladioL-Roma-69" transform="translate(1959.033173 0)scale(0.996264)"/>
     <use xlink:href="#URWPalladioL-Roma-6f" transform="translate(1988.023534 0)scale(0.996264)"/>
     <use xlink:href="#URWPalladioL-Roma-6e" transform="translate(2042.419114 0)scale(0.996264)"/>
    </g>
   </g>
   <g id="text_19">
    <!-- high incidence of community transmission -->
    <g style="fill: #ff0000" transform="translate(352.796224 208.848465)scale(0.1 -0.1)">
     <defs>
      <path id="URWPalladioL-Roma-68" d="M 45 4248 
L 403 4248 
C 518 4248 563 4177 563 3984 
L 563 643 
C 563 237 544 192 326 192 
L 38 192 
L 38 -7 
C 474 -7 646 -7 832 -7 
C 1018 -7 1190 -7 1626 -7 
L 1626 192 
L 1338 192 
C 1120 192 1101 237 1101 643 
L 1101 2011 
C 1101 2300 1523 2616 1914 2616 
C 2342 2616 2624 2297 2624 1806 
L 2624 -7 
C 3014 -7 3021 -7 3130 -7 
C 3219 -7 3219 -7 3661 -7 
L 3661 179 
L 3398 205 
C 3181 205 3162 244 3162 654 
L 3162 1892 
C 3162 2642 2810 3008 2093 3008 
C 1856 3008 1722 2963 1587 2847 
L 1101 2424 
L 1101 4613 
L 1043 4665 
C 762 4556 550 4504 45 4427 
L 45 4248 
z
" transform="scale(0.015625)"/>
      <path id="URWPalladioL-Roma-67" d="M 3322 2432 
L 3482 2695 
L 3456 2759 
L 2547 2759 
C 2310 2937 2080 3008 1766 3008 
C 1485 3008 1158 2920 896 2768 
C 538 2567 352 2258 352 1874 
C 352 1408 646 1087 1120 1036 
L 614 640 
C 550 543 518 459 518 361 
C 518 180 634 76 941 -14 
L 384 -316 
C 294 -367 205 -604 205 -803 
C 205 -1388 774 -1792 1587 -1792 
C 2554 -1792 3315 -1182 3315 -399 
C 3315 63 3008 384 2560 384 
L 1536 384 
C 1203 384 1050 462 1050 639 
C 1050 724 1101 795 1267 939 
C 1306 972 1318 985 1344 1011 
C 1408 1004 1446 998 1498 998 
C 1773 998 2112 1118 2374 1300 
C 2662 1507 2803 1759 2803 2093 
C 2803 2218 2784 2300 2733 2432 
L 3322 2432 
z
M 1536 2790 
C 1971 2790 2266 2438 2266 1905 
C 2266 1499 1997 1216 1606 1216 
C 1178 1216 890 1542 890 2025 
C 890 2507 1126 2790 1536 2790 
z
M 1837 -65 
C 2560 -65 2810 -212 2810 -630 
C 2810 -1182 2304 -1593 1632 -1593 
C 1075 -1593 691 -1266 691 -790 
C 691 -502 858 -238 1114 -129 
C 1216 -78 1395 -65 1837 -65 
z
" transform="scale(0.015625)"/>
     </defs>
     <use xlink:href="#URWPalladioL-Roma-68" transform="scale(0.996264)"/>
     <use xlink:href="#URWPalladioL-Roma-69" transform="translate(57.982061 0)scale(0.996264)"/>
     <use xlink:href="#URWPalladioL-Roma-67" transform="translate(86.972422 0)scale(0.996264)"/>
     <use xlink:href="#URWPalladioL-Roma-68" transform="translate(142.364099 0)scale(0.996264)"/>
     <use xlink:href="#URWPalladioL-Roma-69" transform="translate(225.25276 0)scale(0.996264)"/>
     <use xlink:href="#URWPalladioL-Roma-6e" transform="translate(254.243121 0)scale(0.996264)"/>
     <use xlink:href="#URWPalladioL-Roma-63" transform="translate(312.225182 0)scale(0.996264)"/>
     <use xlink:href="#URWPalladioL-Roma-69" transform="translate(356.458751 0)scale(0.996264)"/>
     <use xlink:href="#URWPalladioL-Roma-64" transform="translate(385.449112 0)scale(0.996264)"/>
     <use xlink:href="#URWPalladioL-Roma-65" transform="translate(446.320743 0)scale(0.996264)"/>
     <use xlink:href="#URWPalladioL-Roma-6e" transform="translate(494.041038 0)scale(0.996264)"/>
     <use xlink:href="#URWPalladioL-Roma-63" transform="translate(552.023099 0)scale(0.996264)"/>
     <use xlink:href="#URWPalladioL-Roma-65" transform="translate(596.256668 0)scale(0.996264)"/>
     <use xlink:href="#URWPalladioL-Roma-6f" transform="translate(668.883563 0)scale(0.996264)"/>
     <use xlink:href="#URWPalladioL-Roma-66" transform="translate(723.279143 0)scale(0.996264)"/>
     <use xlink:href="#URWPalladioL-Roma-63" transform="translate(781.360973 0)scale(0.996264)"/>
     <use xlink:href="#URWPalladioL-Roma-6f" transform="translate(825.594542 0)scale(0.996264)"/>
     <use xlink:href="#URWPalladioL-Roma-6d" transform="translate(879.990122 0)scale(0.996264)"/>
     <use xlink:href="#URWPalladioL-Roma-6d" transform="translate(967.959796 0)scale(0.996264)"/>
     <use xlink:href="#URWPalladioL-Roma-75" transform="translate(1055.92947 0)scale(0.996264)"/>
     <use xlink:href="#URWPalladioL-Roma-6e" transform="translate(1116.003205 0)scale(0.996264)"/>
     <use xlink:href="#URWPalladioL-Roma-69" transform="translate(1173.985266 0)scale(0.996264)"/>
     <use xlink:href="#URWPalladioL-Roma-74" transform="translate(1202.975627 0)scale(0.996264)"/>
     <use xlink:href="#URWPalladioL-Roma-79" transform="translate(1235.452715 0)scale(0.996264)"/>
     <use xlink:href="#URWPalladioL-Roma-74" transform="translate(1315.750992 0)scale(0.996264)"/>
     <use xlink:href="#URWPalladioL-Roma-72" transform="translate(1348.22808 0)scale(0.996264)"/>
     <use xlink:href="#URWPalladioL-Roma-61" transform="translate(1387.579977 0)scale(0.996264)"/>
     <use xlink:href="#URWPalladioL-Roma-6e" transform="translate(1437.393177 0)scale(0.996264)"/>
     <use xlink:href="#URWPalladioL-Roma-73" transform="translate(1495.375238 0)scale(0.996264)"/>
     <use xlink:href="#URWPalladioL-Roma-6d" transform="translate(1537.616704 0)scale(0.996264)"/>
     <use xlink:href="#URWPalladioL-Roma-69" transform="translate(1625.586378 0)scale(0.996264)"/>
     <use xlink:href="#URWPalladioL-Roma-73" transform="translate(1654.57674 0)scale(0.996264)"/>
     <use xlink:href="#URWPalladioL-Roma-73" transform="translate(1696.818206 0)scale(0.996264)"/>
     <use xlink:href="#URWPalladioL-Roma-69" transform="translate(1739.059672 0)scale(0.996264)"/>
     <use xlink:href="#URWPalladioL-Roma-6f" transform="translate(1768.050034 0)scale(0.996264)"/>
     <use xlink:href="#URWPalladioL-Roma-6e" transform="translate(1822.445614 0)scale(0.996264)"/>
    </g>
   </g>
  </g>
 </g>
 <defs>
  <clipPath id="p7b17340d87">
   <rect x="65.426224" y="7.2" width="279" height="221.76"/>
  </clipPath>
 </defs>
</svg>
