<?xml version="1.0" encoding="utf-8" standalone="no"?>
<!DOCTYPE svg PUBLIC "-//W3C//DTD SVG 1.1//EN"
  "http://www.w3.org/Graphics/SVG/1.1/DTD/svg11.dtd">
<svg height="304.616762pt" version="1.1" viewBox="0 0 560.073465 304.616762" width="560.073465pt" xmlns="http://www.w3.org/2000/svg" xmlns:xlink="http://www.w3.org/1999/xlink">
 <metadata>
  <rdf:RDF xmlns:cc="http://creativecommons.org/ns#" xmlns:dc="http://purl.org/dc/elements/1.1/" xmlns:rdf="http://www.w3.org/1999/02/22-rdf-syntax-ns#">
   <cc:Work>
    <dc:type rdf:resource="http://purl.org/dc/dcmitype/StillImage"/>
    <dc:format>image/svg+xml</dc:format>
    <dc:creator>
     <cc:Agent>
      <dc:title>Matplotlib v3.4.3, https://matplotlib.org/</dc:title>
     </cc:Agent>
    </dc:creator>
   </cc:Work>
  </rdf:RDF>
 </metadata>
 <defs>
  <style type="text/css">*{stroke-linecap:butt;stroke-linejoin:round;}</style>
 </defs>
 <g id="figure_1">
  <g id="patch_1">
   <path d="M 0 304.616762 
L 560.073465 304.616762 
L 560.073465 0 
L 0 0 
z
" style="fill:#ffffff;"/>
  </g>
  <g id="axes_1">
   <g id="patch_2">
    <path d="M 55.463584 233.928824 
L 334.463584 233.928824 
L 334.463584 12.168824 
L 55.463584 12.168824 
z
" style="fill:#ffffff;"/>
   </g>
   <g id="patch_3">
    <path clip-path="url(#p2376872d0e)" d="M 55.655998 233.928824 
L 57.195308 233.928824 
L 57.195308 212.693043 
L 55.655998 212.693043 
z
" style="fill:#1f77b4;"/>
   </g>
   <g id="patch_4">
    <path clip-path="url(#p2376872d0e)" d="M 57.580136 233.928824 
L 59.119446 233.928824 
L 59.119446 213.096375 
L 57.580136 213.096375 
z
" style="fill:#1f77b4;"/>
   </g>
   <g id="patch_5">
    <path clip-path="url(#p2376872d0e)" d="M 59.504274 233.928824 
L 61.043584 233.928824 
L 61.043584 213.689957 
L 59.504274 213.689957 
z
" style="fill:#1f77b4;"/>
   </g>
   <g id="patch_6">
    <path clip-path="url(#p2376872d0e)" d="M 61.428412 233.928824 
L 62.967722 233.928824 
L 62.967722 214.355834 
L 61.428412 214.355834 
z
" style="fill:#1f77b4;"/>
   </g>
   <g id="patch_7">
    <path clip-path="url(#p2376872d0e)" d="M 63.35255 233.928824 
L 64.89186 233.928824 
L 64.89186 214.52706 
L 63.35255 214.52706 
z
" style="fill:#1f77b4;"/>
   </g>
   <g id="patch_8">
    <path clip-path="url(#p2376872d0e)" d="M 65.276688 233.928824 
L 66.815998 233.928824 
L 66.815998 214.371054 
L 65.276688 214.371054 
z
" style="fill:#1f77b4;"/>
   </g>
   <g id="patch_9">
    <path clip-path="url(#p2376872d0e)" d="M 67.200826 233.928824 
L 68.740136 233.928824 
L 68.740136 214.013383 
L 67.200826 214.013383 
z
" style="fill:#1f77b4;"/>
   </g>
   <g id="patch_10">
    <path clip-path="url(#p2376872d0e)" d="M 69.124964 233.928824 
L 70.664274 233.928824 
L 70.664274 213.914452 
L 69.124964 213.914452 
z
" style="fill:#1f77b4;"/>
   </g>
   <g id="patch_11">
    <path clip-path="url(#p2376872d0e)" d="M 71.049102 233.928824 
L 72.588412 233.928824 
L 72.588412 213.568196 
L 71.049102 213.568196 
z
" style="fill:#1f77b4;"/>
   </g>
   <g id="patch_12">
    <path clip-path="url(#p2376872d0e)" d="M 72.973239 233.928824 
L 74.51255 233.928824 
L 74.51255 212.700653 
L 72.973239 212.700653 
z
" style="fill:#1f77b4;"/>
   </g>
   <g id="patch_13">
    <path clip-path="url(#p2376872d0e)" d="M 74.897377 233.928824 
L 76.436688 233.928824 
L 76.436688 211.81028 
L 74.897377 211.81028 
z
" style="fill:#1f77b4;"/>
   </g>
   <g id="patch_14">
    <path clip-path="url(#p2376872d0e)" d="M 76.821515 233.928824 
L 78.360826 233.928824 
L 78.360826 209.862113 
L 76.821515 209.862113 
z
" style="fill:#1f77b4;"/>
   </g>
   <g id="patch_15">
    <path clip-path="url(#p2376872d0e)" d="M 78.745653 233.928824 
L 80.284964 233.928824 
L 80.284964 207.594325 
L 78.745653 207.594325 
z
" style="fill:#1f77b4;"/>
   </g>
   <g id="patch_16">
    <path clip-path="url(#p2376872d0e)" d="M 80.669791 233.928824 
L 82.209102 233.928824 
L 82.209102 205.813578 
L 80.669791 205.813578 
z
" style="fill:#1f77b4;"/>
   </g>
   <g id="patch_17">
    <path clip-path="url(#p2376872d0e)" d="M 82.593929 233.928824 
L 84.133239 233.928824 
L 84.133239 203.595255 
L 82.593929 203.595255 
z
" style="fill:#1f77b4;"/>
   </g>
   <g id="patch_18">
    <path clip-path="url(#p2376872d0e)" d="M 84.518067 233.928824 
L 86.057377 233.928824 
L 86.057377 202.04281 
L 84.518067 202.04281 
z
" style="fill:#1f77b4;"/>
   </g>
   <g id="patch_19">
    <path clip-path="url(#p2376872d0e)" d="M 86.442205 233.928824 
L 87.981515 233.928824 
L 87.981515 199.657066 
L 86.442205 199.657066 
z
" style="fill:#1f77b4;"/>
   </g>
   <g id="patch_20">
    <path clip-path="url(#p2376872d0e)" d="M 88.366343 233.928824 
L 89.905653 233.928824 
L 89.905653 195.307936 
L 88.366343 195.307936 
z
" style="fill:#1f77b4;"/>
   </g>
   <g id="patch_21">
    <path clip-path="url(#p2376872d0e)" d="M 90.290481 233.928824 
L 91.829791 233.928824 
L 91.829791 191.270816 
L 90.290481 191.270816 
z
" style="fill:#1f77b4;"/>
   </g>
   <g id="patch_22">
    <path clip-path="url(#p2376872d0e)" d="M 92.214619 233.928824 
L 93.753929 233.928824 
L 93.753929 185.532856 
L 92.214619 185.532856 
z
" style="fill:#1f77b4;"/>
   </g>
   <g id="patch_23">
    <path clip-path="url(#p2376872d0e)" d="M 94.138757 233.928824 
L 95.678067 233.928824 
L 95.678067 178.984427 
L 94.138757 178.984427 
z
" style="fill:#1f77b4;"/>
   </g>
   <g id="patch_24">
    <path clip-path="url(#p2376872d0e)" d="M 96.062895 233.928824 
L 97.602205 233.928824 
L 97.602205 172.378924 
L 96.062895 172.378924 
z
" style="fill:#1f77b4;"/>
   </g>
   <g id="patch_25">
    <path clip-path="url(#p2376872d0e)" d="M 97.987033 233.928824 
L 99.526343 233.928824 
L 99.526343 167.873787 
L 97.987033 167.873787 
z
" style="fill:#1f77b4;"/>
   </g>
   <g id="patch_26">
    <path clip-path="url(#p2376872d0e)" d="M 99.911171 233.928824 
L 101.450481 233.928824 
L 101.450481 160.17244 
L 99.911171 160.17244 
z
" style="fill:#1f77b4;"/>
   </g>
   <g id="patch_27">
    <path clip-path="url(#p2376872d0e)" d="M 101.835308 233.928824 
L 103.374619 233.928824 
L 103.374619 152.159081 
L 101.835308 152.159081 
z
" style="fill:#1f77b4;"/>
   </g>
   <g id="patch_28">
    <path clip-path="url(#p2376872d0e)" d="M 103.759446 233.928824 
L 105.298757 233.928824 
L 105.298757 142.258436 
L 103.759446 142.258436 
z
" style="fill:#1f77b4;"/>
   </g>
   <g id="patch_29">
    <path clip-path="url(#p2376872d0e)" d="M 105.683584 233.928824 
L 107.222895 233.928824 
L 107.222895 133.71618 
L 105.683584 133.71618 
z
" style="fill:#1f77b4;"/>
   </g>
   <g id="patch_30">
    <path clip-path="url(#p2376872d0e)" d="M 107.607722 233.928824 
L 109.147033 233.928824 
L 109.147033 126.033857 
L 107.607722 126.033857 
z
" style="fill:#1f77b4;"/>
   </g>
   <g id="patch_31">
    <path clip-path="url(#p2376872d0e)" d="M 109.53186 233.928824 
L 111.071171 233.928824 
L 111.071171 119.884955 
L 109.53186 119.884955 
z
" style="fill:#1f77b4;"/>
   </g>
   <g id="patch_32">
    <path clip-path="url(#p2376872d0e)" d="M 111.455998 233.928824 
L 112.995308 233.928824 
L 112.995308 115.908716 
L 111.455998 115.908716 
z
" style="fill:#1f77b4;"/>
   </g>
   <g id="patch_33">
    <path clip-path="url(#p2376872d0e)" d="M 113.380136 233.928824 
L 114.919446 233.928824 
L 114.919446 112.240683 
L 113.380136 112.240683 
z
" style="fill:#1f77b4;"/>
   </g>
   <g id="patch_34">
    <path clip-path="url(#p2376872d0e)" d="M 115.304274 233.928824 
L 116.843584 233.928824 
L 116.843584 106.772878 
L 115.304274 106.772878 
z
" style="fill:#1f77b4;"/>
   </g>
   <g id="patch_35">
    <path clip-path="url(#p2376872d0e)" d="M 117.228412 233.928824 
L 118.767722 233.928824 
L 118.767722 102.534093 
L 117.228412 102.534093 
z
" style="fill:#1f77b4;"/>
   </g>
   <g id="patch_36">
    <path clip-path="url(#p2376872d0e)" d="M 119.15255 233.928824 
L 120.69186 233.928824 
L 120.69186 96.917893 
L 119.15255 96.917893 
z
" style="fill:#1f77b4;"/>
   </g>
   <g id="patch_37">
    <path clip-path="url(#p2376872d0e)" d="M 121.076688 233.928824 
L 122.615998 233.928824 
L 122.615998 91.693609 
L 121.076688 91.693609 
z
" style="fill:#1f77b4;"/>
   </g>
   <g id="patch_38">
    <path clip-path="url(#p2376872d0e)" d="M 123.000826 233.928824 
L 124.540136 233.928824 
L 124.540136 89.494311 
L 123.000826 89.494311 
z
" style="fill:#1f77b4;"/>
   </g>
   <g id="patch_39">
    <path clip-path="url(#p2376872d0e)" d="M 124.924964 233.928824 
L 126.464274 233.928824 
L 126.464274 89.216545 
L 124.924964 89.216545 
z
" style="fill:#1f77b4;"/>
   </g>
   <g id="patch_40">
    <path clip-path="url(#p2376872d0e)" d="M 126.849102 233.928824 
L 128.388412 233.928824 
L 128.388412 87.987526 
L 126.849102 87.987526 
z
" style="fill:#1f77b4;"/>
   </g>
   <g id="patch_41">
    <path clip-path="url(#p2376872d0e)" d="M 128.773239 233.928824 
L 130.31255 233.928824 
L 130.31255 84.563014 
L 128.773239 84.563014 
z
" style="fill:#1f77b4;"/>
   </g>
   <g id="patch_42">
    <path clip-path="url(#p2376872d0e)" d="M 130.697377 233.928824 
L 132.236688 233.928824 
L 132.236688 80.533504 
L 130.697377 80.533504 
z
" style="fill:#1f77b4;"/>
   </g>
   <g id="patch_43">
    <path clip-path="url(#p2376872d0e)" d="M 132.621515 233.928824 
L 134.160826 233.928824 
L 134.160826 80.609605 
L 132.621515 80.609605 
z
" style="fill:#1f77b4;"/>
   </g>
   <g id="patch_44">
    <path clip-path="url(#p2376872d0e)" d="M 134.545653 233.928824 
L 136.084964 233.928824 
L 136.084964 79.129454 
L 134.545653 79.129454 
z
" style="fill:#1f77b4;"/>
   </g>
   <g id="patch_45">
    <path clip-path="url(#p2376872d0e)" d="M 136.469791 233.928824 
L 138.009102 233.928824 
L 138.009102 77.554179 
L 136.469791 77.554179 
z
" style="fill:#1f77b4;"/>
   </g>
   <g id="patch_46">
    <path clip-path="url(#p2376872d0e)" d="M 138.393929 233.928824 
L 139.933239 233.928824 
L 139.933239 73.711115 
L 138.393929 73.711115 
z
" style="fill:#1f77b4;"/>
   </g>
   <g id="patch_47">
    <path clip-path="url(#p2376872d0e)" d="M 140.318067 233.928824 
L 141.857377 233.928824 
L 141.857377 70.701349 
L 140.318067 70.701349 
z
" style="fill:#1f77b4;"/>
   </g>
   <g id="patch_48">
    <path clip-path="url(#p2376872d0e)" d="M 142.242205 233.928824 
L 143.781515 233.928824 
L 143.781515 69.285884 
L 142.242205 69.285884 
z
" style="fill:#1f77b4;"/>
   </g>
   <g id="patch_49">
    <path clip-path="url(#p2376872d0e)" d="M 144.166343 233.928824 
L 145.705653 233.928824 
L 145.705653 69.133683 
L 144.166343 69.133683 
z
" style="fill:#1f77b4;"/>
   </g>
   <g id="patch_50">
    <path clip-path="url(#p2376872d0e)" d="M 146.090481 233.928824 
L 147.629791 233.928824 
L 147.629791 66.051622 
L 146.090481 66.051622 
z
" style="fill:#1f77b4;"/>
   </g>
   <g id="patch_51">
    <path clip-path="url(#p2376872d0e)" d="M 148.014619 233.928824 
L 149.553929 233.928824 
L 149.553929 64.963388 
L 148.014619 64.963388 
z
" style="fill:#1f77b4;"/>
   </g>
   <g id="patch_52">
    <path clip-path="url(#p2376872d0e)" d="M 149.938757 233.928824 
L 151.478067 233.928824 
L 151.478067 65.233544 
L 149.938757 65.233544 
z
" style="fill:#1f77b4;"/>
   </g>
   <g id="patch_53">
    <path clip-path="url(#p2376872d0e)" d="M 151.862895 233.928824 
L 153.402205 233.928824 
L 153.402205 67.234982 
L 151.862895 67.234982 
z
" style="fill:#1f77b4;"/>
   </g>
   <g id="patch_54">
    <path clip-path="url(#p2376872d0e)" d="M 153.787033 233.928824 
L 155.326343 233.928824 
L 155.326343 68.616202 
L 153.787033 68.616202 
z
" style="fill:#1f77b4;"/>
   </g>
   <g id="patch_55">
    <path clip-path="url(#p2376872d0e)" d="M 155.711171 233.928824 
L 157.250481 233.928824 
L 157.250481 67.878029 
L 155.711171 67.878029 
z
" style="fill:#1f77b4;"/>
   </g>
   <g id="patch_56">
    <path clip-path="url(#p2376872d0e)" d="M 157.635308 233.928824 
L 159.174619 233.928824 
L 159.174619 67.916079 
L 157.635308 67.916079 
z
" style="fill:#1f77b4;"/>
   </g>
   <g id="patch_57">
    <path clip-path="url(#p2376872d0e)" d="M 159.559446 233.928824 
L 161.098757 233.928824 
L 161.098757 68.620007 
L 159.559446 68.620007 
z
" style="fill:#1f77b4;"/>
   </g>
   <g id="patch_58">
    <path clip-path="url(#p2376872d0e)" d="M 161.483584 233.928824 
L 163.022895 233.928824 
L 163.022895 67.546993 
L 161.483584 67.546993 
z
" style="fill:#1f77b4;"/>
   </g>
   <g id="patch_59">
    <path clip-path="url(#p2376872d0e)" d="M 163.407722 233.928824 
L 164.947033 233.928824 
L 164.947033 66.561494 
L 163.407722 66.561494 
z
" style="fill:#1f77b4;"/>
   </g>
   <g id="patch_60">
    <path clip-path="url(#p2376872d0e)" d="M 165.33186 233.928824 
L 166.871171 233.928824 
L 166.871171 64.681817 
L 165.33186 64.681817 
z
" style="fill:#1f77b4;"/>
   </g>
   <g id="patch_61">
    <path clip-path="url(#p2376872d0e)" d="M 167.255998 233.928824 
L 168.795308 233.928824 
L 168.795308 61.626391 
L 167.255998 61.626391 
z
" style="fill:#1f77b4;"/>
   </g>
   <g id="patch_62">
    <path clip-path="url(#p2376872d0e)" d="M 169.180136 233.928824 
L 170.719446 233.928824 
L 170.719446 60.157656 
L 169.180136 60.157656 
z
" style="fill:#1f77b4;"/>
   </g>
   <g id="patch_63">
    <path clip-path="url(#p2376872d0e)" d="M 171.104274 233.928824 
L 172.643584 233.928824 
L 172.643584 60.306052 
L 171.104274 60.306052 
z
" style="fill:#1f77b4;"/>
   </g>
   <g id="patch_64">
    <path clip-path="url(#p2376872d0e)" d="M 173.028412 233.928824 
L 174.567722 233.928824 
L 174.567722 58.015434 
L 173.028412 58.015434 
z
" style="fill:#1f77b4;"/>
   </g>
   <g id="patch_65">
    <path clip-path="url(#p2376872d0e)" d="M 174.95255 233.928824 
L 176.49186 233.928824 
L 176.49186 60.336492 
L 174.95255 60.336492 
z
" style="fill:#1f77b4;"/>
   </g>
   <g id="patch_66">
    <path clip-path="url(#p2376872d0e)" d="M 176.876688 233.928824 
L 178.415998 233.928824 
L 178.415998 60.199511 
L 176.876688 60.199511 
z
" style="fill:#1f77b4;"/>
   </g>
   <g id="patch_67">
    <path clip-path="url(#p2376872d0e)" d="M 178.800826 233.928824 
L 180.340136 233.928824 
L 180.340136 59.860865 
L 178.800826 59.860865 
z
" style="fill:#1f77b4;"/>
   </g>
   <g id="patch_68">
    <path clip-path="url(#p2376872d0e)" d="M 180.724964 233.928824 
L 182.264274 233.928824 
L 182.264274 62.060163 
L 180.724964 62.060163 
z
" style="fill:#1f77b4;"/>
   </g>
   <g id="patch_69">
    <path clip-path="url(#p2376872d0e)" d="M 182.649102 233.928824 
L 184.188412 233.928824 
L 184.188412 66.036402 
L 182.649102 66.036402 
z
" style="fill:#1f77b4;"/>
   </g>
   <g id="patch_70">
    <path clip-path="url(#p2376872d0e)" d="M 184.573239 233.928824 
L 186.11255 233.928824 
L 186.11255 67.786709 
L 184.573239 67.786709 
z
" style="fill:#1f77b4;"/>
   </g>
   <g id="patch_71">
    <path clip-path="url(#p2376872d0e)" d="M 186.497377 233.928824 
L 188.036688 233.928824 
L 188.036688 71.937978 
L 186.497377 71.937978 
z
" style="fill:#1f77b4;"/>
   </g>
   <g id="patch_72">
    <path clip-path="url(#p2376872d0e)" d="M 188.421515 233.928824 
L 189.960826 233.928824 
L 189.960826 74.612903 
L 188.421515 74.612903 
z
" style="fill:#1f77b4;"/>
   </g>
   <g id="patch_73">
    <path clip-path="url(#p2376872d0e)" d="M 190.345653 233.928824 
L 191.884964 233.928824 
L 191.884964 77.063332 
L 190.345653 77.063332 
z
" style="fill:#1f77b4;"/>
   </g>
   <g id="patch_74">
    <path clip-path="url(#p2376872d0e)" d="M 192.269791 233.928824 
L 193.809102 233.928824 
L 193.809102 80.472624 
L 192.269791 80.472624 
z
" style="fill:#1f77b4;"/>
   </g>
   <g id="patch_75">
    <path clip-path="url(#p2376872d0e)" d="M 194.193929 233.928824 
L 195.733239 233.928824 
L 195.733239 83.432925 
L 194.193929 83.432925 
z
" style="fill:#1f77b4;"/>
   </g>
   <g id="patch_76">
    <path clip-path="url(#p2376872d0e)" d="M 196.118067 233.928824 
L 197.657377 233.928824 
L 197.657377 85.639833 
L 196.118067 85.639833 
z
" style="fill:#1f77b4;"/>
   </g>
   <g id="patch_77">
    <path clip-path="url(#p2376872d0e)" d="M 198.042205 233.928824 
L 199.581515 233.928824 
L 199.581515 90.354244 
L 198.042205 90.354244 
z
" style="fill:#1f77b4;"/>
   </g>
   <g id="patch_78">
    <path clip-path="url(#p2376872d0e)" d="M 199.966343 233.928824 
L 201.505653 233.928824 
L 201.505653 94.59303 
L 199.966343 94.59303 
z
" style="fill:#1f77b4;"/>
   </g>
   <g id="patch_79">
    <path clip-path="url(#p2376872d0e)" d="M 201.890481 233.928824 
L 203.429791 233.928824 
L 203.429791 98.261063 
L 201.890481 98.261063 
z
" style="fill:#1f77b4;"/>
   </g>
   <g id="patch_80">
    <path clip-path="url(#p2376872d0e)" d="M 203.814619 233.928824 
L 205.353929 233.928824 
L 205.353929 100.738127 
L 203.814619 100.738127 
z
" style="fill:#1f77b4;"/>
   </g>
   <g id="patch_81">
    <path clip-path="url(#p2376872d0e)" d="M 205.738757 233.928824 
L 207.278067 233.928824 
L 207.278067 102.872739 
L 205.738757 102.872739 
z
" style="fill:#1f77b4;"/>
   </g>
   <g id="patch_82">
    <path clip-path="url(#p2376872d0e)" d="M 207.662895 233.928824 
L 209.202205 233.928824 
L 209.202205 105.532444 
L 207.662895 105.532444 
z
" style="fill:#1f77b4;"/>
   </g>
   <g id="patch_83">
    <path clip-path="url(#p2376872d0e)" d="M 209.587033 233.928824 
L 211.126343 233.928824 
L 211.126343 109.691324 
L 209.587033 109.691324 
z
" style="fill:#1f77b4;"/>
   </g>
   <g id="patch_84">
    <path clip-path="url(#p2376872d0e)" d="M 211.511171 233.928824 
L 213.050481 233.928824 
L 213.050481 111.232354 
L 211.511171 111.232354 
z
" style="fill:#1f77b4;"/>
   </g>
   <g id="patch_85">
    <path clip-path="url(#p2376872d0e)" d="M 213.435308 233.928824 
L 214.974619 233.928824 
L 214.974619 115.299914 
L 213.435308 115.299914 
z
" style="fill:#1f77b4;"/>
   </g>
   <g id="patch_86">
    <path clip-path="url(#p2376872d0e)" d="M 215.359446 233.928824 
L 216.898757 233.928824 
L 216.898757 117.639997 
L 215.359446 117.639997 
z
" style="fill:#1f77b4;"/>
   </g>
   <g id="patch_87">
    <path clip-path="url(#p2376872d0e)" d="M 217.283584 233.928824 
L 218.822895 233.928824 
L 218.822895 120.782939 
L 217.283584 120.782939 
z
" style="fill:#1f77b4;"/>
   </g>
   <g id="patch_88">
    <path clip-path="url(#p2376872d0e)" d="M 219.207722 233.928824 
L 220.747033 233.928824 
L 220.747033 122.278309 
L 219.207722 122.278309 
z
" style="fill:#1f77b4;"/>
   </g>
   <g id="patch_89">
    <path clip-path="url(#p2376872d0e)" d="M 221.13186 233.928824 
L 222.671171 233.928824 
L 222.671171 124.728738 
L 221.13186 124.728738 
z
" style="fill:#1f77b4;"/>
   </g>
   <g id="patch_90">
    <path clip-path="url(#p2376872d0e)" d="M 223.055998 233.928824 
L 224.595308 233.928824 
L 224.595308 128.001049 
L 223.055998 128.001049 
z
" style="fill:#1f77b4;"/>
   </g>
   <g id="patch_91">
    <path clip-path="url(#p2376872d0e)" d="M 224.980136 233.928824 
L 226.519446 233.928824 
L 226.519446 132.019144 
L 224.980136 132.019144 
z
" style="fill:#1f77b4;"/>
   </g>
   <g id="patch_92">
    <path clip-path="url(#p2376872d0e)" d="M 226.904274 233.928824 
L 228.443584 233.928824 
L 228.443584 134.891929 
L 226.904274 134.891929 
z
" style="fill:#1f77b4;"/>
   </g>
   <g id="patch_93">
    <path clip-path="url(#p2376872d0e)" d="M 228.828412 233.928824 
L 230.367722 233.928824 
L 230.367722 138.898609 
L 228.828412 138.898609 
z
" style="fill:#1f77b4;"/>
   </g>
   <g id="patch_94">
    <path clip-path="url(#p2376872d0e)" d="M 230.75255 233.928824 
L 232.29186 233.928824 
L 232.29186 141.710514 
L 230.75255 141.710514 
z
" style="fill:#1f77b4;"/>
   </g>
   <g id="patch_95">
    <path clip-path="url(#p2376872d0e)" d="M 232.676688 233.928824 
L 234.215998 233.928824 
L 234.215998 144.126697 
L 232.676688 144.126697 
z
" style="fill:#1f77b4;"/>
   </g>
   <g id="patch_96">
    <path clip-path="url(#p2376872d0e)" d="M 234.600826 233.928824 
L 236.140136 233.928824 
L 236.140136 145.618263 
L 234.600826 145.618263 
z
" style="fill:#1f77b4;"/>
   </g>
   <g id="patch_97">
    <path clip-path="url(#p2376872d0e)" d="M 236.524964 233.928824 
L 238.064274 233.928824 
L 238.064274 148.502463 
L 236.524964 148.502463 
z
" style="fill:#1f77b4;"/>
   </g>
   <g id="patch_98">
    <path clip-path="url(#p2376872d0e)" d="M 238.449102 233.928824 
L 239.988412 233.928824 
L 239.988412 149.480351 
L 238.449102 149.480351 
z
" style="fill:#1f77b4;"/>
   </g>
   <g id="patch_99">
    <path clip-path="url(#p2376872d0e)" d="M 240.373239 233.928824 
L 241.91255 233.928824 
L 241.91255 150.971917 
L 240.373239 150.971917 
z
" style="fill:#1f77b4;"/>
   </g>
   <g id="patch_100">
    <path clip-path="url(#p2376872d0e)" d="M 242.297377 233.928824 
L 243.836688 233.928824 
L 243.836688 151.782385 
L 242.297377 151.782385 
z
" style="fill:#1f77b4;"/>
   </g>
   <g id="patch_101">
    <path clip-path="url(#p2376872d0e)" d="M 244.221515 233.928824 
L 245.760826 233.928824 
L 245.760826 152.280841 
L 244.221515 152.280841 
z
" style="fill:#1f77b4;"/>
   </g>
   <g id="patch_102">
    <path clip-path="url(#p2376872d0e)" d="M 246.145653 233.928824 
L 247.684964 233.928824 
L 247.684964 152.889644 
L 246.145653 152.889644 
z
" style="fill:#1f77b4;"/>
   </g>
   <g id="patch_103">
    <path clip-path="url(#p2376872d0e)" d="M 248.069791 233.928824 
L 249.609102 233.928824 
L 249.609102 154.864446 
L 248.069791 154.864446 
z
" style="fill:#1f77b4;"/>
   </g>
   <g id="patch_104">
    <path clip-path="url(#p2376872d0e)" d="M 249.993929 233.928824 
L 251.533239 233.928824 
L 251.533239 154.77693 
L 249.993929 154.77693 
z
" style="fill:#1f77b4;"/>
   </g>
   <g id="patch_105">
    <path clip-path="url(#p2376872d0e)" d="M 251.918067 233.928824 
L 253.457377 233.928824 
L 253.457377 158.072072 
L 251.918067 158.072072 
z
" style="fill:#1f77b4;"/>
   </g>
   <g id="patch_106">
    <path clip-path="url(#p2376872d0e)" d="M 253.842205 233.928824 
L 255.381515 233.928824 
L 255.381515 159.525587 
L 253.842205 159.525587 
z
" style="fill:#1f77b4;"/>
   </g>
   <g id="patch_107">
    <path clip-path="url(#p2376872d0e)" d="M 255.766343 233.928824 
L 257.305653 233.928824 
L 257.305653 161.671615 
L 255.766343 161.671615 
z
" style="fill:#1f77b4;"/>
   </g>
   <g id="patch_108">
    <path clip-path="url(#p2376872d0e)" d="M 257.690481 233.928824 
L 259.229791 233.928824 
L 259.229791 164.297075 
L 257.690481 164.297075 
z
" style="fill:#1f77b4;"/>
   </g>
   <g id="patch_109">
    <path clip-path="url(#p2376872d0e)" d="M 259.614619 233.928824 
L 261.153929 233.928824 
L 261.153929 164.662356 
L 259.614619 164.662356 
z
" style="fill:#1f77b4;"/>
   </g>
   <g id="patch_110">
    <path clip-path="url(#p2376872d0e)" d="M 261.538757 233.928824 
L 263.078067 233.928824 
L 263.078067 164.555815 
L 261.538757 164.555815 
z
" style="fill:#1f77b4;"/>
   </g>
   <g id="patch_111">
    <path clip-path="url(#p2376872d0e)" d="M 263.462895 233.928824 
L 265.002205 233.928824 
L 265.002205 166.317537 
L 263.462895 166.317537 
z
" style="fill:#1f77b4;"/>
   </g>
   <g id="patch_112">
    <path clip-path="url(#p2376872d0e)" d="M 265.387033 233.928824 
L 266.926343 233.928824 
L 266.926343 167.34489 
L 265.387033 167.34489 
z
" style="fill:#1f77b4;"/>
   </g>
   <g id="patch_113">
    <path clip-path="url(#p2376872d0e)" d="M 267.311171 233.928824 
L 268.850481 233.928824 
L 268.850481 168.452149 
L 267.311171 168.452149 
z
" style="fill:#1f77b4;"/>
   </g>
   <g id="patch_114">
    <path clip-path="url(#p2376872d0e)" d="M 269.235308 233.928824 
L 270.774619 233.928824 
L 270.774619 167.557971 
L 269.235308 167.557971 
z
" style="fill:#1f77b4;"/>
   </g>
   <g id="patch_115">
    <path clip-path="url(#p2376872d0e)" d="M 271.159446 233.928824 
L 272.698757 233.928824 
L 272.698757 166.952974 
L 271.159446 166.952974 
z
" style="fill:#1f77b4;"/>
   </g>
   <g id="patch_116">
    <path clip-path="url(#p2376872d0e)" d="M 273.083584 233.928824 
L 274.622895 233.928824 
L 274.622895 166.644768 
L 273.083584 166.644768 
z
" style="fill:#1f77b4;"/>
   </g>
   <g id="patch_117">
    <path clip-path="url(#p2376872d0e)" d="M 275.007722 233.928824 
L 276.547033 233.928824 
L 276.547033 165.87235 
L 275.007722 165.87235 
z
" style="fill:#1f77b4;"/>
   </g>
   <g id="patch_118">
    <path clip-path="url(#p2376872d0e)" d="M 276.93186 233.928824 
L 278.471171 233.928824 
L 278.471171 162.333688 
L 276.93186 162.333688 
z
" style="fill:#1f77b4;"/>
   </g>
   <g id="patch_119">
    <path clip-path="url(#p2376872d0e)" d="M 278.855998 233.928824 
L 280.395308 233.928824 
L 280.395308 158.049242 
L 278.855998 158.049242 
z
" style="fill:#1f77b4;"/>
   </g>
   <g id="patch_120">
    <path clip-path="url(#p2376872d0e)" d="M 280.780136 233.928824 
L 282.319446 233.928824 
L 282.319446 153.673476 
L 280.780136 153.673476 
z
" style="fill:#1f77b4;"/>
   </g>
   <g id="patch_121">
    <path clip-path="url(#p2376872d0e)" d="M 282.704274 233.928824 
L 284.243584 233.928824 
L 284.243584 150.153839 
L 282.704274 150.153839 
z
" style="fill:#1f77b4;"/>
   </g>
   <g id="patch_122">
    <path clip-path="url(#p2376872d0e)" d="M 284.628412 233.928824 
L 286.167722 233.928824 
L 286.167722 145.252981 
L 284.628412 145.252981 
z
" style="fill:#1f77b4;"/>
   </g>
   <g id="patch_123">
    <path clip-path="url(#p2376872d0e)" d="M 286.55255 233.928824 
L 288.09186 233.928824 
L 288.09186 141.683878 
L 286.55255 141.683878 
z
" style="fill:#1f77b4;"/>
   </g>
   <g id="patch_124">
    <path clip-path="url(#p2376872d0e)" d="M 288.476688 233.928824 
L 290.015998 233.928824 
L 290.015998 136.520475 
L 288.476688 136.520475 
z
" style="fill:#1f77b4;"/>
   </g>
   <g id="patch_125">
    <path clip-path="url(#p2376872d0e)" d="M 290.400826 233.928824 
L 291.940136 233.928824 
L 291.940136 133.111183 
L 290.400826 133.111183 
z
" style="fill:#1f77b4;"/>
   </g>
   <g id="patch_126">
    <path clip-path="url(#p2376872d0e)" d="M 292.324964 233.928824 
L 293.864274 233.928824 
L 293.864274 129.032208 
L 292.324964 129.032208 
z
" style="fill:#1f77b4;"/>
   </g>
   <g id="patch_127">
    <path clip-path="url(#p2376872d0e)" d="M 294.249102 233.928824 
L 295.788412 233.928824 
L 295.788412 123.503523 
L 294.249102 123.503523 
z
" style="fill:#1f77b4;"/>
   </g>
   <g id="patch_128">
    <path clip-path="url(#p2376872d0e)" d="M 296.173239 233.928824 
L 297.71255 233.928824 
L 297.71255 119.81266 
L 296.173239 119.81266 
z
" style="fill:#1f77b4;"/>
   </g>
   <g id="patch_129">
    <path clip-path="url(#p2376872d0e)" d="M 298.097377 233.928824 
L 299.636688 233.928824 
L 299.636688 116.764844 
L 298.097377 116.764844 
z
" style="fill:#1f77b4;"/>
   </g>
   <g id="patch_130">
    <path clip-path="url(#p2376872d0e)" d="M 300.021515 233.928824 
L 301.560826 233.928824 
L 301.560826 115.688025 
L 300.021515 115.688025 
z
" style="fill:#1f77b4;"/>
   </g>
   <g id="patch_131">
    <path clip-path="url(#p2376872d0e)" d="M 301.945653 233.928824 
L 303.484964 233.928824 
L 303.484964 120.330142 
L 301.945653 120.330142 
z
" style="fill:#1f77b4;"/>
   </g>
   <g id="patch_132">
    <path clip-path="url(#p2376872d0e)" d="M 303.869791 233.928824 
L 305.409102 233.928824 
L 305.409102 118.085184 
L 303.869791 118.085184 
z
" style="fill:#1f77b4;"/>
   </g>
   <g id="patch_133">
    <path clip-path="url(#p2376872d0e)" d="M 305.793929 233.928824 
L 307.333239 233.928824 
L 307.333239 114.131775 
L 305.793929 114.131775 
z
" style="fill:#1f77b4;"/>
   </g>
   <g id="patch_134">
    <path clip-path="url(#p2376872d0e)" d="M 307.718067 233.928824 
L 309.257377 233.928824 
L 309.257377 108.69441 
L 307.718067 108.69441 
z
" style="fill:#1f77b4;"/>
   </g>
   <g id="patch_135">
    <path clip-path="url(#p2376872d0e)" d="M 309.642205 233.928824 
L 311.181515 233.928824 
L 311.181515 101.518154 
L 309.642205 101.518154 
z
" style="fill:#1f77b4;"/>
   </g>
   <g id="patch_136">
    <path clip-path="url(#p2376872d0e)" d="M 311.566343 233.928824 
L 313.105653 233.928824 
L 313.105653 96.586857 
L 311.566343 96.586857 
z
" style="fill:#1f77b4;"/>
   </g>
   <g id="patch_137">
    <path clip-path="url(#p2376872d0e)" d="M 313.490481 233.928824 
L 315.029791 233.928824 
L 315.029791 91.339743 
L 313.490481 91.339743 
z
" style="fill:#1f77b4;"/>
   </g>
   <g id="patch_138">
    <path clip-path="url(#p2376872d0e)" d="M 315.414619 233.928824 
L 316.953929 233.928824 
L 316.953929 79.171309 
L 315.414619 79.171309 
z
" style="fill:#1f77b4;"/>
   </g>
   <g id="patch_139">
    <path clip-path="url(#p2376872d0e)" d="M 317.338757 233.928824 
L 318.878067 233.928824 
L 318.878067 68.886358 
L 317.338757 68.886358 
z
" style="fill:#1f77b4;"/>
   </g>
   <g id="patch_140">
    <path clip-path="url(#p2376872d0e)" d="M 319.262895 233.928824 
L 320.802205 233.928824 
L 320.802205 58.749801 
L 319.262895 58.749801 
z
" style="fill:#1f77b4;"/>
   </g>
   <g id="patch_141">
    <path clip-path="url(#p2376872d0e)" d="M 321.187033 233.928824 
L 322.726343 233.928824 
L 322.726343 52.083417 
L 321.187033 52.083417 
z
" style="fill:#1f77b4;"/>
   </g>
   <g id="patch_142">
    <path clip-path="url(#p2376872d0e)" d="M 323.111171 233.928824 
L 324.650481 233.928824 
L 324.650481 45.310493 
L 323.111171 45.310493 
z
" style="fill:#1f77b4;"/>
   </g>
   <g id="patch_143">
    <path clip-path="url(#p2376872d0e)" d="M 325.035308 233.928824 
L 326.574619 233.928824 
L 326.574619 38.663134 
L 325.035308 38.663134 
z
" style="fill:#1f77b4;"/>
   </g>
   <g id="patch_144">
    <path clip-path="url(#p2376872d0e)" d="M 326.959446 233.928824 
L 328.498757 233.928824 
L 328.498757 35.059786 
L 326.959446 35.059786 
z
" style="fill:#1f77b4;"/>
   </g>
   <g id="patch_145">
    <path clip-path="url(#p2376872d0e)" d="M 328.883584 233.928824 
L 330.422895 233.928824 
L 330.422895 28.720634 
L 328.883584 28.720634 
z
" style="fill:#1f77b4;"/>
   </g>
   <g id="patch_146">
    <path clip-path="url(#p2376872d0e)" d="M 330.807722 233.928824 
L 332.347033 233.928824 
L 332.347033 20.041397 
L 330.807722 20.041397 
z
" style="fill:#1f77b4;"/>
   </g>
   <g id="patch_147">
    <path clip-path="url(#p2376872d0e)" d="M 332.73186 233.928824 
L 334.271171 233.928824 
L 334.271171 12.168824 
L 332.73186 12.168824 
z
" style="fill:#1f77b4;"/>
   </g>
   <g id="matplotlib.axis_1">
    <g id="xtick_1">
     <g id="line2d_1">
      <defs>
       <path d="M 0 0 
L 0 3.5 
" id="m3abef2f453" style="stroke:#000000;stroke-width:0.8;"/>
      </defs>
      <g>
       <use style="stroke:#000000;stroke-width:0.8;" x="64.122205" xlink:href="#m3abef2f453" y="233.928824"/>
      </g>
     </g>
     <g id="text_1">
      <!-- $\mathdefault{2021{-}07{-}01}$ -->
      <g transform="translate(66.281618 297.416762)rotate(-90)scale(0.1 -0.1)">
       <defs>
        <path d="M 102 160 
L 102 0 
C 1299 0 1299 0 1530 0 
C 1760 0 1760 0 2995 0 
C 2982 125 2982 186 2982 269 
C 2982 348 2982 407 2995 539 
C 2259 539 1965 539 781 539 
L 1946 1761 
C 2566 2414 2758 2763 2758 3238 
C 2758 3966 2259 4416 1446 4416 
C 986 4416 672 4288 358 3969 
L 250 3099 
L 435 3099 
L 518 3393 
C 621 3763 851 3923 1280 3923 
C 1830 3923 2182 3577 2182 3035 
C 2182 2555 1914 2083 1190 1316 
L 102 160 
z
" id="URWPalladioL-Roma-32" transform="scale(0.015625)"/>
        <path d="M 1683 4416 
C 691 4416 186 3628 186 2077 
C 186 1326 320 680 544 366 
C 768 51 1126 -128 1523 -128 
C 2490 -128 2976 705 2976 2346 
C 2976 3749 2560 4416 1683 4416 
z
M 1568 4192 
C 2189 4192 2438 3564 2438 2025 
C 2438 661 2195 96 1606 96 
C 986 96 723 744 723 2308 
C 723 3660 960 4192 1568 4192 
z
" id="URWPalladioL-Roma-30" transform="scale(0.015625)"/>
        <path d="M 429 3584 
L 493 3584 
L 1318 3956 
C 1325 3962 1331 3962 1338 3962 
C 1376 3962 1389 3905 1389 3751 
L 1389 613 
C 1389 276 1318 205 973 205 
L 614 205 
L 614 0 
C 1600 0 1600 0 1670 0 
C 1754 0 1894 0 2112 0 
C 2189 0 2413 0 2675 0 
L 2675 205 
L 2342 205 
C 1990 205 1926 276 1926 612 
L 1926 4443 
L 1837 4475 
C 1421 4257 966 4065 384 3860 
L 429 3584 
z
" id="URWPalladioL-Roma-31" transform="scale(0.015625)"/>
        <path d="M 4218 1472 
C 4326 1472 4442 1472 4442 1600 
C 4442 1728 4326 1728 4218 1728 
L 755 1728 
C 646 1728 531 1728 531 1600 
C 531 1472 646 1472 755 1472 
L 4218 1472 
z
" id="CMSY10-0" transform="scale(0.015625)"/>
        <path d="M 358 32 
L 416 -51 
C 666 -32 666 -32 710 -32 
C 755 -32 755 -32 1005 -51 
C 1274 649 1587 1317 2010 2087 
L 3181 4199 
L 3181 4372 
C 2490 4372 2266 4372 1747 4372 
C 1280 4372 966 4372 346 4372 
L 282 4359 
C 301 3750 301 3750 301 3685 
C 301 3614 301 3614 282 3031 
L 474 3031 
L 518 3390 
C 570 3789 614 3840 909 3840 
L 2618 3840 
C 2362 3313 2163 2941 1920 2549 
L 358 32 
z
" id="URWPalladioL-Roma-37" transform="scale(0.015625)"/>
       </defs>
       <use transform="scale(0.996264)" xlink:href="#URWPalladioL-Roma-32"/>
       <use transform="translate(49.8132 0)scale(0.996264)" xlink:href="#URWPalladioL-Roma-30"/>
       <use transform="translate(99.626401 0)scale(0.996264)" xlink:href="#URWPalladioL-Roma-32"/>
       <use transform="translate(149.439601 0)scale(0.996264)" xlink:href="#URWPalladioL-Roma-31"/>
       <use transform="translate(200.498102 0)scale(1.038107)" xlink:href="#CMSY10-0"/>
       <use transform="translate(282.439798 0)scale(0.996264)" xlink:href="#URWPalladioL-Roma-30"/>
       <use transform="translate(332.252998 0)scale(0.996264)" xlink:href="#URWPalladioL-Roma-37"/>
       <use transform="translate(383.311499 0)scale(1.038107)" xlink:href="#CMSY10-0"/>
       <use transform="translate(465.253195 0)scale(0.996264)" xlink:href="#URWPalladioL-Roma-30"/>
       <use transform="translate(515.066395 0)scale(0.996264)" xlink:href="#URWPalladioL-Roma-31"/>
      </g>
     </g>
    </g>
    <g id="xtick_2">
     <g id="line2d_2">
      <g>
       <use style="stroke:#000000;stroke-width:0.8;" x="91.060136" xlink:href="#m3abef2f453" y="233.928824"/>
      </g>
     </g>
     <g id="text_2">
      <!-- $\mathdefault{2021{-}07{-}15}$ -->
      <g transform="translate(93.219549 297.416762)rotate(-90)scale(0.1 -0.1)">
       <defs>
        <path d="M 813 3877 
C 1638 3877 1997 3877 2765 3877 
L 2797 3907 
C 2784 4016 2784 4064 2784 4144 
C 2784 4229 2784 4277 2797 4386 
L 2765 4416 
C 2285 4416 1997 4416 1651 4416 
C 1299 4416 1018 4416 538 4416 
L 506 4403 
C 512 4011 518 3729 518 3523 
C 518 2977 499 2360 480 2077 
L 608 2038 
C 909 2341 1082 2432 1395 2432 
C 2010 2432 2394 1993 2394 1296 
C 2394 580 1984 160 1286 160 
C 941 160 621 277 531 444 
L 237 973 
L 83 883 
C 230 516 307 310 397 27 
C 576 -71 832 -128 1107 -128 
C 1536 -128 1990 59 2342 368 
C 2733 716 2938 1154 2938 1630 
C 2938 2359 2419 2874 1690 2874 
C 1382 2874 1152 2791 755 2554 
L 813 3877 
z
" id="URWPalladioL-Roma-35" transform="scale(0.015625)"/>
       </defs>
       <use transform="scale(0.996264)" xlink:href="#URWPalladioL-Roma-32"/>
       <use transform="translate(49.8132 0)scale(0.996264)" xlink:href="#URWPalladioL-Roma-30"/>
       <use transform="translate(99.626401 0)scale(0.996264)" xlink:href="#URWPalladioL-Roma-32"/>
       <use transform="translate(149.439601 0)scale(0.996264)" xlink:href="#URWPalladioL-Roma-31"/>
       <use transform="translate(200.498102 0)scale(1.038107)" xlink:href="#CMSY10-0"/>
       <use transform="translate(282.439798 0)scale(0.996264)" xlink:href="#URWPalladioL-Roma-30"/>
       <use transform="translate(332.252998 0)scale(0.996264)" xlink:href="#URWPalladioL-Roma-37"/>
       <use transform="translate(383.311499 0)scale(1.038107)" xlink:href="#CMSY10-0"/>
       <use transform="translate(465.253195 0)scale(0.996264)" xlink:href="#URWPalladioL-Roma-31"/>
       <use transform="translate(515.066395 0)scale(0.996264)" xlink:href="#URWPalladioL-Roma-35"/>
      </g>
     </g>
    </g>
    <g id="xtick_3">
     <g id="line2d_3">
      <g>
       <use style="stroke:#000000;stroke-width:0.8;" x="123.770481" xlink:href="#m3abef2f453" y="233.928824"/>
      </g>
     </g>
     <g id="text_3">
      <!-- $\mathdefault{2021{-}08{-}01}$ -->
      <g transform="translate(125.929894 297.416762)rotate(-90)scale(0.1 -0.1)">
       <defs>
        <path d="M 1075 2211 
C 813 2090 704 2019 563 1884 
C 320 1641 192 1352 192 1019 
C 192 359 723 -128 1446 -128 
C 2278 -128 2970 526 2970 1320 
C 2970 1833 2733 2109 2003 2442 
C 2586 2840 2790 3109 2790 3493 
C 2790 4044 2336 4416 1658 4416 
C 896 4416 339 3929 339 3257 
C 339 2821 512 2577 1075 2211 
z
M 1818 1891 
C 2221 1711 2464 1397 2464 1052 
C 2464 513 2061 90 1542 90 
C 998 90 646 475 646 1071 
C 646 1538 832 1833 1306 2122 
L 1818 1891 
z
M 1427 2712 
C 1024 2910 819 3167 819 3487 
C 819 3910 1126 4198 1581 4198 
C 2048 4198 2355 3891 2355 3422 
C 2355 3058 2195 2808 1779 2538 
L 1427 2712 
z
" id="URWPalladioL-Roma-38" transform="scale(0.015625)"/>
       </defs>
       <use transform="scale(0.996264)" xlink:href="#URWPalladioL-Roma-32"/>
       <use transform="translate(49.8132 0)scale(0.996264)" xlink:href="#URWPalladioL-Roma-30"/>
       <use transform="translate(99.626401 0)scale(0.996264)" xlink:href="#URWPalladioL-Roma-32"/>
       <use transform="translate(149.439601 0)scale(0.996264)" xlink:href="#URWPalladioL-Roma-31"/>
       <use transform="translate(200.498102 0)scale(1.038107)" xlink:href="#CMSY10-0"/>
       <use transform="translate(282.439798 0)scale(0.996264)" xlink:href="#URWPalladioL-Roma-30"/>
       <use transform="translate(332.252998 0)scale(0.996264)" xlink:href="#URWPalladioL-Roma-38"/>
       <use transform="translate(383.311499 0)scale(1.038107)" xlink:href="#CMSY10-0"/>
       <use transform="translate(465.253195 0)scale(0.996264)" xlink:href="#URWPalladioL-Roma-30"/>
       <use transform="translate(515.066395 0)scale(0.996264)" xlink:href="#URWPalladioL-Roma-31"/>
      </g>
     </g>
    </g>
    <g id="xtick_4">
     <g id="line2d_4">
      <g>
       <use style="stroke:#000000;stroke-width:0.8;" x="150.708412" xlink:href="#m3abef2f453" y="233.928824"/>
      </g>
     </g>
     <g id="text_4">
      <!-- $\mathdefault{2021{-}08{-}15}$ -->
      <g transform="translate(152.867825 297.416762)rotate(-90)scale(0.1 -0.1)">
       <use transform="scale(0.996264)" xlink:href="#URWPalladioL-Roma-32"/>
       <use transform="translate(49.8132 0)scale(0.996264)" xlink:href="#URWPalladioL-Roma-30"/>
       <use transform="translate(99.626401 0)scale(0.996264)" xlink:href="#URWPalladioL-Roma-32"/>
       <use transform="translate(149.439601 0)scale(0.996264)" xlink:href="#URWPalladioL-Roma-31"/>
       <use transform="translate(200.498102 0)scale(1.038107)" xlink:href="#CMSY10-0"/>
       <use transform="translate(282.439798 0)scale(0.996264)" xlink:href="#URWPalladioL-Roma-30"/>
       <use transform="translate(332.252998 0)scale(0.996264)" xlink:href="#URWPalladioL-Roma-38"/>
       <use transform="translate(383.311499 0)scale(1.038107)" xlink:href="#CMSY10-0"/>
       <use transform="translate(465.253195 0)scale(0.996264)" xlink:href="#URWPalladioL-Roma-31"/>
       <use transform="translate(515.066395 0)scale(0.996264)" xlink:href="#URWPalladioL-Roma-35"/>
      </g>
     </g>
    </g>
    <g id="xtick_5">
     <g id="line2d_5">
      <g>
       <use style="stroke:#000000;stroke-width:0.8;" x="183.418757" xlink:href="#m3abef2f453" y="233.928824"/>
      </g>
     </g>
     <g id="text_5">
      <!-- $\mathdefault{2021{-}09{-}01}$ -->
      <g transform="translate(185.57817 297.416762)rotate(-90)scale(0.1 -0.1)">
       <defs>
        <path d="M 614 -106 
C 1325 125 1632 272 1978 566 
C 2598 1098 2925 1835 2925 2693 
C 2925 3776 2406 4435 1562 4435 
C 742 4435 128 3795 128 2938 
C 128 2201 608 1664 1274 1664 
C 1491 1664 1741 1734 1856 1830 
L 2304 2202 
C 2253 1125 1555 336 397 54 
L 397 3 
L 614 -106 
z
M 1536 4224 
C 1824 4224 2035 4102 2176 3846 
C 2291 3641 2368 3328 2368 3040 
C 2368 2451 2029 2055 1536 2055 
C 1024 2055 678 2509 678 3174 
C 678 3821 1011 4224 1536 4224 
z
" id="URWPalladioL-Roma-39" transform="scale(0.015625)"/>
       </defs>
       <use transform="scale(0.996264)" xlink:href="#URWPalladioL-Roma-32"/>
       <use transform="translate(49.8132 0)scale(0.996264)" xlink:href="#URWPalladioL-Roma-30"/>
       <use transform="translate(99.626401 0)scale(0.996264)" xlink:href="#URWPalladioL-Roma-32"/>
       <use transform="translate(149.439601 0)scale(0.996264)" xlink:href="#URWPalladioL-Roma-31"/>
       <use transform="translate(200.498102 0)scale(1.038107)" xlink:href="#CMSY10-0"/>
       <use transform="translate(282.439798 0)scale(0.996264)" xlink:href="#URWPalladioL-Roma-30"/>
       <use transform="translate(332.252998 0)scale(0.996264)" xlink:href="#URWPalladioL-Roma-39"/>
       <use transform="translate(383.311499 0)scale(1.038107)" xlink:href="#CMSY10-0"/>
       <use transform="translate(465.253195 0)scale(0.996264)" xlink:href="#URWPalladioL-Roma-30"/>
       <use transform="translate(515.066395 0)scale(0.996264)" xlink:href="#URWPalladioL-Roma-31"/>
      </g>
     </g>
    </g>
    <g id="xtick_6">
     <g id="line2d_6">
      <g>
       <use style="stroke:#000000;stroke-width:0.8;" x="210.356688" xlink:href="#m3abef2f453" y="233.928824"/>
      </g>
     </g>
     <g id="text_6">
      <!-- $\mathdefault{2021{-}09{-}15}$ -->
      <g transform="translate(212.516101 297.416762)rotate(-90)scale(0.1 -0.1)">
       <use transform="scale(0.996264)" xlink:href="#URWPalladioL-Roma-32"/>
       <use transform="translate(49.8132 0)scale(0.996264)" xlink:href="#URWPalladioL-Roma-30"/>
       <use transform="translate(99.626401 0)scale(0.996264)" xlink:href="#URWPalladioL-Roma-32"/>
       <use transform="translate(149.439601 0)scale(0.996264)" xlink:href="#URWPalladioL-Roma-31"/>
       <use transform="translate(200.498102 0)scale(1.038107)" xlink:href="#CMSY10-0"/>
       <use transform="translate(282.439798 0)scale(0.996264)" xlink:href="#URWPalladioL-Roma-30"/>
       <use transform="translate(332.252998 0)scale(0.996264)" xlink:href="#URWPalladioL-Roma-39"/>
       <use transform="translate(383.311499 0)scale(1.038107)" xlink:href="#CMSY10-0"/>
       <use transform="translate(465.253195 0)scale(0.996264)" xlink:href="#URWPalladioL-Roma-31"/>
       <use transform="translate(515.066395 0)scale(0.996264)" xlink:href="#URWPalladioL-Roma-35"/>
      </g>
     </g>
    </g>
    <g id="xtick_7">
     <g id="line2d_7">
      <g>
       <use style="stroke:#000000;stroke-width:0.8;" x="241.142895" xlink:href="#m3abef2f453" y="233.928824"/>
      </g>
     </g>
     <g id="text_7">
      <!-- $\mathdefault{2021{-}10{-}01}$ -->
      <g transform="translate(243.302308 297.416762)rotate(-90)scale(0.1 -0.1)">
       <use transform="scale(0.996264)" xlink:href="#URWPalladioL-Roma-32"/>
       <use transform="translate(49.8132 0)scale(0.996264)" xlink:href="#URWPalladioL-Roma-30"/>
       <use transform="translate(99.626401 0)scale(0.996264)" xlink:href="#URWPalladioL-Roma-32"/>
       <use transform="translate(149.439601 0)scale(0.996264)" xlink:href="#URWPalladioL-Roma-31"/>
       <use transform="translate(200.498102 0)scale(1.038107)" xlink:href="#CMSY10-0"/>
       <use transform="translate(282.439798 0)scale(0.996264)" xlink:href="#URWPalladioL-Roma-31"/>
       <use transform="translate(332.252998 0)scale(0.996264)" xlink:href="#URWPalladioL-Roma-30"/>
       <use transform="translate(383.311499 0)scale(1.038107)" xlink:href="#CMSY10-0"/>
       <use transform="translate(465.253195 0)scale(0.996264)" xlink:href="#URWPalladioL-Roma-30"/>
       <use transform="translate(515.066395 0)scale(0.996264)" xlink:href="#URWPalladioL-Roma-31"/>
      </g>
     </g>
    </g>
    <g id="xtick_8">
     <g id="line2d_8">
      <g>
       <use style="stroke:#000000;stroke-width:0.8;" x="268.080826" xlink:href="#m3abef2f453" y="233.928824"/>
      </g>
     </g>
     <g id="text_8">
      <!-- $\mathdefault{2021{-}10{-}15}$ -->
      <g transform="translate(270.240239 297.416762)rotate(-90)scale(0.1 -0.1)">
       <use transform="scale(0.996264)" xlink:href="#URWPalladioL-Roma-32"/>
       <use transform="translate(49.8132 0)scale(0.996264)" xlink:href="#URWPalladioL-Roma-30"/>
       <use transform="translate(99.626401 0)scale(0.996264)" xlink:href="#URWPalladioL-Roma-32"/>
       <use transform="translate(149.439601 0)scale(0.996264)" xlink:href="#URWPalladioL-Roma-31"/>
       <use transform="translate(200.498102 0)scale(1.038107)" xlink:href="#CMSY10-0"/>
       <use transform="translate(282.439798 0)scale(0.996264)" xlink:href="#URWPalladioL-Roma-31"/>
       <use transform="translate(332.252998 0)scale(0.996264)" xlink:href="#URWPalladioL-Roma-30"/>
       <use transform="translate(383.311499 0)scale(1.038107)" xlink:href="#CMSY10-0"/>
       <use transform="translate(465.253195 0)scale(0.996264)" xlink:href="#URWPalladioL-Roma-31"/>
       <use transform="translate(515.066395 0)scale(0.996264)" xlink:href="#URWPalladioL-Roma-35"/>
      </g>
     </g>
    </g>
    <g id="xtick_9">
     <g id="line2d_9">
      <g>
       <use style="stroke:#000000;stroke-width:0.8;" x="300.791171" xlink:href="#m3abef2f453" y="233.928824"/>
      </g>
     </g>
     <g id="text_9">
      <!-- $\mathdefault{2021{-}11{-}01}$ -->
      <g transform="translate(302.950584 297.416762)rotate(-90)scale(0.1 -0.1)">
       <use transform="scale(0.996264)" xlink:href="#URWPalladioL-Roma-32"/>
       <use transform="translate(49.8132 0)scale(0.996264)" xlink:href="#URWPalladioL-Roma-30"/>
       <use transform="translate(99.626401 0)scale(0.996264)" xlink:href="#URWPalladioL-Roma-32"/>
       <use transform="translate(149.439601 0)scale(0.996264)" xlink:href="#URWPalladioL-Roma-31"/>
       <use transform="translate(200.498102 0)scale(1.038107)" xlink:href="#CMSY10-0"/>
       <use transform="translate(282.439798 0)scale(0.996264)" xlink:href="#URWPalladioL-Roma-31"/>
       <use transform="translate(332.252998 0)scale(0.996264)" xlink:href="#URWPalladioL-Roma-31"/>
       <use transform="translate(383.311499 0)scale(1.038107)" xlink:href="#CMSY10-0"/>
       <use transform="translate(465.253195 0)scale(0.996264)" xlink:href="#URWPalladioL-Roma-30"/>
       <use transform="translate(515.066395 0)scale(0.996264)" xlink:href="#URWPalladioL-Roma-31"/>
      </g>
     </g>
    </g>
    <g id="xtick_10">
     <g id="line2d_10">
      <g>
       <use style="stroke:#000000;stroke-width:0.8;" x="327.729102" xlink:href="#m3abef2f453" y="233.928824"/>
      </g>
     </g>
     <g id="text_10">
      <!-- $\mathdefault{2021{-}11{-}15}$ -->
      <g transform="translate(329.888515 297.416762)rotate(-90)scale(0.1 -0.1)">
       <use transform="scale(0.996264)" xlink:href="#URWPalladioL-Roma-32"/>
       <use transform="translate(49.8132 0)scale(0.996264)" xlink:href="#URWPalladioL-Roma-30"/>
       <use transform="translate(99.626401 0)scale(0.996264)" xlink:href="#URWPalladioL-Roma-32"/>
       <use transform="translate(149.439601 0)scale(0.996264)" xlink:href="#URWPalladioL-Roma-31"/>
       <use transform="translate(200.498102 0)scale(1.038107)" xlink:href="#CMSY10-0"/>
       <use transform="translate(282.439798 0)scale(0.996264)" xlink:href="#URWPalladioL-Roma-31"/>
       <use transform="translate(332.252998 0)scale(0.996264)" xlink:href="#URWPalladioL-Roma-31"/>
       <use transform="translate(383.311499 0)scale(1.038107)" xlink:href="#CMSY10-0"/>
       <use transform="translate(465.253195 0)scale(0.996264)" xlink:href="#URWPalladioL-Roma-31"/>
       <use transform="translate(515.066395 0)scale(0.996264)" xlink:href="#URWPalladioL-Roma-35"/>
      </g>
     </g>
    </g>
   </g>
   <g id="matplotlib.axis_2">
    <g id="ytick_1">
     <g id="line2d_11">
      <defs>
       <path d="M 0 0 
L -3.5 0 
" id="m38d4582eff" style="stroke:#000000;stroke-width:0.8;"/>
      </defs>
      <g>
       <use style="stroke:#000000;stroke-width:0.8;" x="55.463584" xlink:href="#m38d4582eff" y="233.928824"/>
      </g>
     </g>
     <g id="text_11">
      <!-- $\mathdefault{0}$ -->
      <g transform="translate(43.482264 237.492943)scale(0.1 -0.1)">
       <use transform="scale(0.996264)" xlink:href="#URWPalladioL-Roma-30"/>
      </g>
     </g>
    </g>
    <g id="ytick_2">
     <g id="line2d_12">
      <g>
       <use style="stroke:#000000;stroke-width:0.8;" x="55.463584" xlink:href="#m38d4582eff" y="187.9947"/>
      </g>
     </g>
     <g id="text_12">
      <!-- $\mathdefault{20}$ -->
      <g transform="translate(38.500944 191.558818)scale(0.1 -0.1)">
       <use transform="scale(0.996264)" xlink:href="#URWPalladioL-Roma-32"/>
       <use transform="translate(49.8132 0)scale(0.996264)" xlink:href="#URWPalladioL-Roma-30"/>
      </g>
     </g>
    </g>
    <g id="ytick_3">
     <g id="line2d_13">
      <g>
       <use style="stroke:#000000;stroke-width:0.8;" x="55.463584" xlink:href="#m38d4582eff" y="142.060575"/>
      </g>
     </g>
     <g id="text_13">
      <!-- $\mathdefault{40}$ -->
      <g transform="translate(38.500944 145.624694)scale(0.1 -0.1)">
       <defs>
        <path d="M 1792 1152 
L 1792 673 
C 1792 289 1722 199 1408 199 
L 1011 199 
L 1011 0 
C 1862 0 1862 0 2016 0 
C 2170 0 2170 0 3021 0 
L 3021 199 
L 2714 199 
C 2400 199 2330 282 2330 669 
L 2330 1152 
C 2707 1152 2842 1152 3021 1133 
L 3021 1588 
C 2720 1563 2598 1563 2502 1563 
L 2483 1563 
L 2330 1563 
L 2330 2457 
C 2330 3600 2342 4152 2374 4416 
L 2298 4448 
L 1824 4275 
L 13 1299 
L 83 1152 
L 1792 1152 
z
M 1792 1563 
L 416 1563 
L 1792 3826 
L 1792 1563 
z
" id="URWPalladioL-Roma-34" transform="scale(0.015625)"/>
       </defs>
       <use transform="scale(0.996264)" xlink:href="#URWPalladioL-Roma-34"/>
       <use transform="translate(49.8132 0)scale(0.996264)" xlink:href="#URWPalladioL-Roma-30"/>
      </g>
     </g>
    </g>
    <g id="ytick_4">
     <g id="line2d_14">
      <g>
       <use style="stroke:#000000;stroke-width:0.8;" x="55.463584" xlink:href="#m38d4582eff" y="96.12645"/>
      </g>
     </g>
     <g id="text_14">
      <!-- $\mathdefault{60}$ -->
      <g transform="translate(38.500944 99.690569)scale(0.1 -0.1)">
       <defs>
        <path d="M 2662 4310 
L 2426 4419 
C 1811 4214 1549 4086 1222 3804 
C 563 3246 205 2464 205 1585 
C 205 526 717 -128 1542 -128 
C 2374 -128 2995 532 2995 1405 
C 2995 2143 2554 2624 1875 2624 
C 1555 2624 1363 2540 986 2239 
C 915 2181 909 2175 838 2124 
C 973 3284 1510 3913 2662 4259 
L 2662 4310 
z
M 1632 2239 
C 2118 2239 2445 1816 2445 1181 
C 2445 513 2118 83 1626 83 
C 1082 83 787 551 787 1412 
C 787 1636 813 1758 883 1867 
C 1024 2085 1325 2239 1632 2239 
z
" id="URWPalladioL-Roma-36" transform="scale(0.015625)"/>
       </defs>
       <use transform="scale(0.996264)" xlink:href="#URWPalladioL-Roma-36"/>
       <use transform="translate(49.8132 0)scale(0.996264)" xlink:href="#URWPalladioL-Roma-30"/>
      </g>
     </g>
    </g>
    <g id="ytick_5">
     <g id="line2d_15">
      <g>
       <use style="stroke:#000000;stroke-width:0.8;" x="55.463584" xlink:href="#m38d4582eff" y="50.192325"/>
      </g>
     </g>
     <g id="text_15">
      <!-- $\mathdefault{80}$ -->
      <g transform="translate(38.500944 53.756444)scale(0.1 -0.1)">
       <use transform="scale(0.996264)" xlink:href="#URWPalladioL-Roma-38"/>
       <use transform="translate(49.8132 0)scale(0.996264)" xlink:href="#URWPalladioL-Roma-30"/>
      </g>
     </g>
    </g>
    <g id="text_16">
     <!-- case incidence (WHO) -->
     <g transform="translate(14.328237 172.03466)rotate(-90)scale(0.1 -0.1)">
      <defs>
       <path d="M 2554 1994 
C 2554 2289 2586 2552 2643 2783 
C 2387 2937 2163 3008 1901 3008 
C 1594 3008 1235 2886 851 2642 
C 403 2360 166 1911 166 1347 
C 166 481 774 -128 1632 -128 
C 1965 -128 2445 -6 2509 90 
L 2643 295 
L 2579 391 
C 2342 263 2138 205 1907 205 
C 1197 205 730 757 730 1603 
C 730 2289 1050 2674 1626 2674 
C 1907 2674 2214 2546 2330 2386 
L 2374 1994 
L 2554 1994 
z
" id="URWPalladioL-Roma-63" transform="scale(0.015625)"/>
       <path d="M 2074 538 
L 2042 -1 
C 2458 -1 2458 -1 2541 -1 
C 2573 -1 2733 -1 3014 -1 
L 3014 192 
L 2765 192 
C 2611 192 2586 244 2586 558 
L 2586 1731 
C 2586 2668 2317 3008 1574 3008 
C 1299 3008 1043 2937 800 2791 
L 461 2585 
L 461 2171 
L 627 2126 
L 710 2323 
C 845 2623 909 2668 1203 2668 
C 1805 2668 2054 2431 2074 1852 
L 1440 1736 
C 570 1577 205 1277 205 722 
C 205 224 506 -64 1011 -64 
C 1126 -64 1235 -45 1280 -13 
L 2074 538 
z
M 2074 806 
C 1888 544 1485 302 1235 302 
C 979 302 755 538 755 812 
C 755 1048 883 1271 1075 1392 
C 1235 1488 1587 1577 2074 1648 
L 2074 806 
z
" id="URWPalladioL-Roma-61" transform="scale(0.015625)"/>
       <path d="M 262 917 
C 262 475 243 282 192 26 
C 525 -83 774 -128 1069 -128 
C 1907 -128 2502 321 2502 949 
C 2502 1148 2445 1295 2323 1424 
C 2157 1584 1946 1661 1382 1770 
C 858 1873 685 2001 685 2296 
C 685 2616 909 2796 1299 2796 
C 1728 2796 2054 2572 2054 2270 
L 2054 2123 
L 2234 2123 
C 2240 2495 2246 2648 2266 2847 
C 1926 2963 1696 3008 1434 3008 
C 691 3008 237 2655 237 2078 
C 237 1770 378 1552 672 1417 
C 845 1340 1184 1238 1619 1141 
C 1907 1077 2029 943 2029 699 
C 2029 353 1709 109 1254 109 
C 787 109 454 333 454 654 
L 454 917 
L 262 917 
z
" id="URWPalladioL-Roma-73" transform="scale(0.015625)"/>
       <path d="M 2797 447 
L 2714 511 
C 2304 269 2157 212 1882 212 
C 1466 212 1120 398 941 711 
C 819 921 774 1101 762 1472 
L 1696 1472 
C 2138 1472 2413 1472 2854 1544 
C 2861 1634 2867 1693 2867 1771 
C 2867 2520 2394 3008 1677 3008 
C 1440 3008 1165 2924 902 2770 
C 378 2469 166 2071 166 1404 
C 166 1000 262 654 435 410 
C 691 71 1120 -128 1600 -128 
C 1837 -128 2074 -77 2336 37 
C 2509 108 2643 191 2669 230 
L 2797 447 
z
M 2298 1690 
C 1965 1690 1811 1690 1581 1690 
C 1286 1690 1120 1690 774 1722 
C 774 2027 800 2169 883 2337 
C 1018 2622 1293 2796 1600 2796 
C 1811 2796 1978 2711 2093 2534 
C 2234 2319 2278 2129 2298 1690 
z
" id="URWPalladioL-Roma-65" transform="scale(0.015625)"/>
       <path d="M 1203 2993 
L 1146 3019 
C 819 2884 486 2793 147 2755 
L 147 2576 
L 384 2576 
C 640 2576 666 2531 666 2105 
L 666 651 
C 666 244 646 199 429 199 
L 134 199 
L 134 0 
C 774 0 774 0 934 0 
C 1094 0 1094 0 1734 0 
L 1734 199 
L 1440 199 
C 1222 199 1203 244 1203 651 
L 1203 2993 
z
M 909 4416 
C 717 4416 550 4249 550 4056 
C 550 3870 717 3704 902 3704 
C 1088 3704 1261 3870 1261 4056 
C 1261 4236 1088 4416 909 4416 
z
" id="URWPalladioL-Roma-69" transform="scale(0.015625)"/>
       <path d="M 2624 -7 
C 3014 -7 3021 -7 3130 -7 
C 3219 -7 3219 -7 3661 -7 
L 3661 179 
L 3398 205 
C 3181 205 3162 244 3162 654 
L 3162 1892 
C 3162 2642 2810 3008 2093 3008 
C 1856 3008 1722 2963 1587 2847 
L 1101 2424 
L 1101 2982 
L 1043 3008 
C 717 2873 384 2783 45 2745 
L 45 2565 
L 282 2565 
C 538 2565 563 2520 563 2094 
L 563 643 
C 563 237 544 192 326 192 
L 38 192 
L 38 -7 
C 474 -7 646 -7 832 -7 
C 1018 -7 1190 -7 1626 -7 
L 1626 192 
L 1338 192 
C 1120 192 1101 237 1101 643 
L 1101 2011 
C 1101 2300 1523 2616 1914 2616 
C 2342 2616 2624 2297 2624 1806 
L 2624 -7 
z
" id="URWPalladioL-Roma-6e" transform="scale(0.015625)"/>
       <path d="M 2637 2802 
C 2278 2956 2099 3008 1875 3008 
C 1702 3008 1549 2969 1389 2887 
L 826 2593 
C 461 2401 224 1935 224 1392 
C 224 881 397 460 710 204 
C 928 19 1229 -64 1645 -64 
C 1773 -64 1920 -38 1952 -13 
L 2662 583 
L 2630 -7 
C 2944 -7 3046 -7 3123 -7 
C 3174 -7 3264 -7 3398 -7 
C 3443 -7 3571 -7 3706 -7 
L 3706 192 
L 3411 192 
C 3194 192 3174 237 3174 643 
L 3174 4607 
L 3117 4659 
C 2835 4550 2624 4498 2118 4421 
L 2118 4242 
L 2477 4242 
C 2592 4242 2637 4171 2637 3978 
L 2637 2802 
z
M 2637 1424 
C 2637 1009 2624 946 2541 799 
C 2362 499 2048 302 1747 302 
C 1184 302 781 844 781 1603 
C 781 2298 1126 2706 1702 2706 
C 1946 2706 2202 2623 2426 2470 
C 2560 2381 2637 2298 2637 2246 
L 2637 1424 
z
" id="URWPalladioL-Roma-64" transform="scale(0.015625)"/>
       <path d="M 1926 -1244 
C 1466 -673 1299 -366 1133 212 
C 998 673 934 1161 934 1706 
C 934 2238 998 2693 1120 3110 
C 1286 3642 1459 3944 1926 4489 
L 1805 4656 
C 1139 4059 877 3707 634 3078 
C 467 2648 384 2193 384 1706 
C 384 1020 544 372 851 -205 
C 1075 -635 1280 -885 1805 -1379 
L 1926 -1244 
z
" id="URWPalladioL-Roma-28" transform="scale(0.015625)"/>
       <path d="M 4698 -64 
C 4723 32 4742 122 4749 154 
C 4768 218 4819 411 4870 584 
L 5850 4032 
C 5888 4147 5952 4205 6093 4218 
L 6298 4237 
L 6298 4416 
L 5626 4416 
C 5562 4416 5562 4416 4954 4416 
L 4954 4237 
L 5210 4218 
C 5434 4199 5504 4167 5510 4063 
C 5510 4044 5510 4025 5504 4005 
L 4659 872 
L 3610 3826 
C 3469 4211 3450 4262 3398 4480 
L 3194 4480 
C 3059 4082 2950 3795 2618 2935 
L 1824 917 
L 1184 3795 
C 1165 3872 1158 3942 1158 4006 
C 1158 4147 1222 4205 1395 4218 
L 1664 4237 
L 1664 4416 
L 858 4416 
C 813 4416 544 4416 51 4416 
L 51 4237 
L 230 4218 
C 416 4199 493 4128 550 3897 
L 1312 597 
C 1395 231 1395 225 1459 -64 
L 1779 -64 
C 1837 141 1888 295 2010 597 
L 3123 3429 
L 3923 1256 
C 4134 687 4154 635 4378 -64 
L 4698 -64 
z
" id="URWPalladioL-Roma-57" transform="scale(0.015625)"/>
       <path d="M 3942 773 
C 3942 257 3910 205 3616 205 
L 3309 205 
L 3309 0 
C 3686 0 3910 0 4243 0 
C 4576 0 4806 0 5184 0 
L 5184 205 
L 4877 205 
C 4582 205 4550 256 4550 766 
L 4550 3663 
C 4550 4172 4582 4224 4877 4224 
L 5184 4224 
L 5184 4423 
C 4717 4423 4576 4423 4243 4423 
C 3923 4423 3770 4423 3309 4423 
L 3309 4224 
L 3616 4224 
C 3910 4224 3942 4172 3942 3668 
L 3942 2529 
C 3808 2529 3674 2529 3411 2529 
L 1914 2529 
C 1651 2529 1510 2529 1382 2529 
L 1382 3668 
C 1382 4172 1414 4224 1709 4224 
L 2016 4224 
L 2016 4423 
C 1549 4423 1408 4423 1075 4423 
C 755 4423 602 4423 141 4423 
L 141 4224 
L 448 4224 
C 742 4224 774 4172 774 3663 
L 774 766 
C 774 256 742 205 448 205 
L 141 205 
L 141 0 
C 518 0 742 0 1075 0 
C 1408 0 1638 0 2016 0 
L 2016 205 
L 1709 205 
C 1414 205 1382 257 1382 773 
L 1382 2227 
C 1555 2240 1658 2240 1914 2240 
L 3411 2240 
C 3667 2240 3770 2240 3942 2227 
L 3942 773 
z
" id="URWPalladioL-Roma-48" transform="scale(0.015625)"/>
       <path d="M 2573 4544 
C 1114 4544 141 3596 141 2186 
C 141 839 1075 -128 2368 -128 
C 3802 -128 4890 942 4890 2351 
C 4890 3698 3994 4544 2573 4544 
z
M 2464 4274 
C 3558 4274 4205 3493 4205 2160 
C 4205 890 3616 141 2624 141 
C 1549 141 826 1051 826 2422 
C 826 3607 1414 4274 2464 4274 
z
" id="URWPalladioL-Roma-4f" transform="scale(0.015625)"/>
       <path d="M 326 -1379 
C 768 -962 954 -750 1152 -436 
C 1542 186 1747 930 1747 1699 
C 1747 2193 1664 2648 1498 3078 
C 1254 3700 992 4053 326 4656 
L 205 4489 
C 672 3937 845 3636 1005 3110 
C 1133 2693 1197 2238 1197 1706 
C 1197 1161 1133 673 998 212 
C 832 -366 666 -673 205 -1244 
L 326 -1379 
z
" id="URWPalladioL-Roma-29" transform="scale(0.015625)"/>
      </defs>
      <use transform="scale(0.996264)" xlink:href="#URWPalladioL-Roma-63"/>
      <use transform="translate(44.233569 0)scale(0.996264)" xlink:href="#URWPalladioL-Roma-61"/>
      <use transform="translate(94.046769 0)scale(0.996264)" xlink:href="#URWPalladioL-Roma-73"/>
      <use transform="translate(136.288236 0)scale(0.996264)" xlink:href="#URWPalladioL-Roma-65"/>
      <use transform="translate(208.915131 0)scale(0.996264)" xlink:href="#URWPalladioL-Roma-69"/>
      <use transform="translate(237.905492 0)scale(0.996264)" xlink:href="#URWPalladioL-Roma-6e"/>
      <use transform="translate(295.887553 0)scale(0.996264)" xlink:href="#URWPalladioL-Roma-63"/>
      <use transform="translate(340.121122 0)scale(0.996264)" xlink:href="#URWPalladioL-Roma-69"/>
      <use transform="translate(369.111483 0)scale(0.996264)" xlink:href="#URWPalladioL-Roma-64"/>
      <use transform="translate(429.983114 0)scale(0.996264)" xlink:href="#URWPalladioL-Roma-65"/>
      <use transform="translate(477.703409 0)scale(0.996264)" xlink:href="#URWPalladioL-Roma-6e"/>
      <use transform="translate(535.68547 0)scale(0.996264)" xlink:href="#URWPalladioL-Roma-63"/>
      <use transform="translate(579.919038 0)scale(0.996264)" xlink:href="#URWPalladioL-Roma-65"/>
      <use transform="translate(652.545934 0)scale(0.996264)" xlink:href="#URWPalladioL-Roma-28"/>
      <use transform="translate(685.721163 0)scale(0.996264)" xlink:href="#URWPalladioL-Roma-57"/>
      <use transform="translate(785.347564 0)scale(0.996264)" xlink:href="#URWPalladioL-Roma-48"/>
      <use transform="translate(868.236225 0)scale(0.996264)" xlink:href="#URWPalladioL-Roma-4f"/>
      <use transform="translate(946.542507 0)scale(0.996264)" xlink:href="#URWPalladioL-Roma-29"/>
     </g>
     <!-- new cases over 7 days per 100000 -->
     <g transform="translate(25.691533 196.358394)rotate(-90)scale(0.1 -0.1)">
      <defs>
       <path d="M 2643 3008 
C 2118 1788 2022 1571 1626 677 
L 1088 2444 
C 1069 2502 1062 2553 1062 2604 
C 1062 2700 1146 2752 1306 2752 
L 1562 2752 
L 1562 2932 
C 928 2932 928 2932 800 2932 
C 672 2932 672 2932 38 2932 
L 38 2765 
L 218 2752 
C 397 2739 480 2612 640 2114 
L 1293 -32 
L 1594 -32 
L 2221 1437 
C 2253 1514 2323 1667 2426 1884 
L 2554 2152 
L 3424 -32 
L 3718 -32 
C 3763 102 3814 249 3866 389 
C 3994 767 4134 1162 4160 1201 
L 4595 2196 
C 4787 2625 4864 2733 5005 2752 
L 5171 2765 
L 5171 2932 
C 4646 2932 4646 2932 4544 2932 
C 4442 2932 4442 2932 3917 2932 
L 3917 2752 
L 4134 2752 
C 4294 2752 4384 2675 4384 2559 
C 4384 2489 4371 2412 4339 2329 
L 4019 1433 
C 3968 1292 3917 1163 3712 638 
L 2976 2490 
C 2886 2707 2842 2835 2790 3008 
L 2643 3008 
z
" id="URWPalladioL-Roma-77" transform="scale(0.015625)"/>
       <path d="M 1786 3008 
C 851 3008 205 2347 205 1392 
C 205 487 774 -128 1600 -128 
C 2586 -128 3290 558 3290 1520 
C 3290 2386 2662 3008 1786 3008 
z
M 1670 2796 
C 2259 2796 2694 2155 2694 1283 
C 2694 545 2368 83 1850 83 
C 1222 83 800 699 800 1610 
C 800 2379 1107 2796 1670 2796 
z
" id="URWPalladioL-Roma-6f" transform="scale(0.015625)"/>
       <path d="M 3450 2752 
L 3450 2932 
C 3066 2932 2950 2932 2848 2932 
C 2746 2932 2630 2932 2246 2932 
L 2246 2752 
L 2509 2752 
C 2611 2752 2662 2694 2662 2591 
C 2662 2489 2618 2317 2541 2124 
L 2272 1445 
C 2195 1259 2118 1080 1875 549 
L 1114 2393 
C 1075 2482 1056 2566 1056 2636 
C 1056 2707 1114 2752 1216 2752 
L 1530 2752 
L 1530 2932 
C 902 2932 902 2932 781 2932 
C 659 2932 352 2932 38 2932 
L 38 2752 
L 256 2752 
C 352 2739 384 2701 454 2541 
L 1555 -32 
L 1875 -32 
C 1914 77 1978 243 1978 256 
C 2048 447 2131 664 2138 664 
L 2893 2324 
C 3034 2625 3123 2739 3251 2752 
L 3450 2752 
z
" id="URWPalladioL-Roma-76" transform="scale(0.015625)"/>
       <path d="M 147 2565 
L 384 2565 
C 640 2565 666 2520 666 2094 
L 666 643 
C 666 237 646 192 429 192 
L 134 192 
L 134 -7 
C 595 -7 762 -7 922 -7 
C 1050 -7 1050 -7 1837 -7 
L 1837 192 
L 1504 192 
C 1216 192 1203 211 1203 638 
L 1203 1751 
C 1203 2139 1459 2463 1773 2463 
C 1965 2463 2099 2373 2202 2169 
L 2336 2169 
L 2394 2937 
C 2323 2982 2208 3008 2093 3008 
C 1901 3008 1696 2905 1562 2745 
L 1203 2322 
L 1203 2982 
L 1146 3008 
C 819 2873 486 2783 147 2745 
L 147 2565 
z
" id="URWPalladioL-Roma-72" transform="scale(0.015625)"/>
       <path d="M 1901 564 
C 1760 808 1690 956 1574 1270 
L 1165 2347 
C 1126 2456 1101 2552 1101 2618 
C 1101 2710 1171 2764 1318 2764 
L 1562 2764 
L 1562 2944 
C 941 2944 941 2944 819 2944 
C 698 2944 698 2944 77 2944 
L 77 2777 
L 192 2764 
C 352 2745 429 2674 525 2451 
L 1222 775 
C 1402 340 1466 186 1581 -134 
L 1434 -524 
C 1229 -1062 979 -1362 736 -1362 
C 634 -1362 518 -1311 410 -1215 
L 326 -1215 
L 173 -1696 
C 294 -1760 397 -1792 518 -1792 
C 947 -1792 1222 -1562 1466 -1005 
L 2765 1990 
C 3021 2572 3142 2745 3302 2764 
L 3482 2777 
L 3482 2944 
C 2976 2944 2976 2944 2874 2944 
C 2771 2944 2771 2944 2266 2944 
L 2266 2777 
L 2432 2764 
C 2611 2751 2701 2694 2701 2604 
C 2701 2559 2688 2501 2662 2437 
L 1901 564 
z
" id="URWPalladioL-Roma-79" transform="scale(0.015625)"/>
       <path d="M 64 2565 
L 301 2565 
C 557 2565 582 2520 582 2095 
L 582 -1142 
C 582 -1548 563 -1593 346 -1593 
L 51 -1593 
L 51 -1792 
C 691 -1792 691 -1792 851 -1792 
C 1011 -1792 1011 -1792 1651 -1792 
L 1651 -1593 
L 1357 -1593 
C 1139 -1593 1120 -1547 1120 -1138 
L 1120 89 
C 1312 -26 1517 -71 1805 -71 
C 1990 -71 2157 -32 2259 32 
L 2989 505 
C 3245 672 3546 1330 3546 1740 
C 3546 2451 2957 3008 2214 3008 
C 1978 3008 1747 2943 1645 2847 
L 1120 2367 
L 1120 2982 
L 1062 3008 
C 736 2873 403 2783 64 2745 
L 64 2565 
z
M 1120 1964 
C 1120 2053 1152 2124 1235 2233 
C 1421 2469 1683 2591 2003 2591 
C 2605 2591 2989 2169 2989 1504 
C 2989 787 2560 256 1984 256 
C 1632 256 1370 372 1120 633 
L 1120 1964 
z
" id="URWPalladioL-Roma-70" transform="scale(0.015625)"/>
      </defs>
      <use transform="scale(0.996264)" xlink:href="#URWPalladioL-Roma-6e"/>
      <use transform="translate(57.982061 0)scale(0.996264)" xlink:href="#URWPalladioL-Roma-65"/>
      <use transform="translate(105.702356 0)scale(0.996264)" xlink:href="#URWPalladioL-Roma-77"/>
      <use transform="translate(213.697049 0)scale(0.996264)" xlink:href="#URWPalladioL-Roma-63"/>
      <use transform="translate(257.930618 0)scale(0.996264)" xlink:href="#URWPalladioL-Roma-61"/>
      <use transform="translate(307.743818 0)scale(0.996264)" xlink:href="#URWPalladioL-Roma-73"/>
      <use transform="translate(349.985285 0)scale(0.996264)" xlink:href="#URWPalladioL-Roma-65"/>
      <use transform="translate(397.70558 0)scale(0.996264)" xlink:href="#URWPalladioL-Roma-73"/>
      <use transform="translate(464.853646 0)scale(0.996264)" xlink:href="#URWPalladioL-Roma-6f"/>
      <use transform="translate(519.249227 0)scale(0.996264)" xlink:href="#URWPalladioL-Roma-76"/>
      <use transform="translate(575.53714 0)scale(0.996264)" xlink:href="#URWPalladioL-Roma-65"/>
      <use transform="translate(623.257435 0)scale(0.996264)" xlink:href="#URWPalladioL-Roma-72"/>
      <use transform="translate(687.515931 0)scale(0.996264)" xlink:href="#URWPalladioL-Roma-37"/>
      <use transform="translate(762.235732 0)scale(0.996264)" xlink:href="#URWPalladioL-Roma-64"/>
      <use transform="translate(823.107363 0)scale(0.996264)" xlink:href="#URWPalladioL-Roma-61"/>
      <use transform="translate(872.920563 0)scale(0.996264)" xlink:href="#URWPalladioL-Roma-79"/>
      <use transform="translate(928.31224 0)scale(0.996264)" xlink:href="#URWPalladioL-Roma-73"/>
      <use transform="translate(995.460307 0)scale(0.996264)" xlink:href="#URWPalladioL-Roma-70"/>
      <use transform="translate(1055.334701 0)scale(0.996264)" xlink:href="#URWPalladioL-Roma-65"/>
      <use transform="translate(1103.054996 0)scale(0.996264)" xlink:href="#URWPalladioL-Roma-72"/>
      <use transform="translate(1167.313492 0)scale(0.996264)" xlink:href="#URWPalladioL-Roma-31"/>
      <use transform="translate(1217.126693 0)scale(0.996264)" xlink:href="#URWPalladioL-Roma-30"/>
      <use transform="translate(1266.939893 0)scale(0.996264)" xlink:href="#URWPalladioL-Roma-30"/>
      <use transform="translate(1316.753094 0)scale(0.996264)" xlink:href="#URWPalladioL-Roma-30"/>
      <use transform="translate(1366.566294 0)scale(0.996264)" xlink:href="#URWPalladioL-Roma-30"/>
      <use transform="translate(1416.379495 0)scale(0.996264)" xlink:href="#URWPalladioL-Roma-30"/>
     </g>
    </g>
   </g>
   <g id="line2d_16">
    <path clip-path="url(#p2376872d0e)" d="M 55.463584 187.9947 
L 334.463584 187.9947 
" style="fill:none;stroke:#ffff00;stroke-linecap:square;stroke-width:1.5;"/>
   </g>
   <g id="line2d_17">
    <path clip-path="url(#p2376872d0e)" d="M 55.463584 119.093513 
L 334.463584 119.093513 
" style="fill:none;stroke:#ffa500;stroke-linecap:square;stroke-width:1.5;"/>
   </g>
   <g id="line2d_18">
    <path clip-path="url(#p2376872d0e)" style="fill:none;stroke:#ff0000;stroke-linecap:square;stroke-width:1.5;"/>
   </g>
   <g id="patch_148">
    <path d="M 55.463584 233.928824 
L 55.463584 12.168824 
" style="fill:none;stroke:#000000;stroke-linecap:square;stroke-linejoin:miter;stroke-width:0.8;"/>
   </g>
   <g id="patch_149">
    <path d="M 55.463584 233.928824 
L 334.463584 233.928824 
" style="fill:none;stroke:#000000;stroke-linecap:square;stroke-linejoin:miter;stroke-width:0.8;"/>
   </g>
   <g id="text_17">
    <!-- low incidence of community transmission -->
    <g style="fill:#ffff00;" transform="translate(342.833584 190.154113)scale(0.1 -0.1)">
     <defs>
      <path d="M 147 4256 
L 506 4256 
C 621 4256 666 4185 666 3992 
L 666 651 
C 666 244 646 199 429 199 
L 134 199 
L 134 0 
C 774 0 774 0 934 0 
C 1094 0 1094 0 1734 0 
L 1734 199 
L 1440 199 
C 1222 199 1203 244 1203 650 
L 1203 4621 
L 1146 4673 
C 864 4564 653 4512 147 4435 
L 147 4256 
z
" id="URWPalladioL-Roma-6c" transform="scale(0.015625)"/>
      <path d="M 2182 4601 
C 2048 4652 1971 4672 1888 4672 
C 1683 4672 1459 4563 1318 4404 
L 947 3985 
C 762 3775 678 3490 678 3070 
L 678 2803 
L 237 2604 
L 237 2476 
L 678 2476 
L 678 651 
C 678 244 659 199 442 199 
L 147 199 
L 147 0 
C 787 0 787 0 947 0 
C 1107 0 1107 0 1747 0 
L 1747 199 
L 1453 199 
C 1235 199 1216 245 1216 653 
L 1216 2489 
L 2010 2489 
L 2054 2816 
L 1216 2816 
L 1216 3350 
C 1216 4073 1299 4248 1664 4248 
C 1837 4248 1952 4204 2106 4071 
L 2182 4109 
L 2182 4601 
z
" id="URWPalladioL-Roma-66" transform="scale(0.015625)"/>
      <path d="M 115 2565 
L 352 2565 
C 608 2565 634 2520 634 2094 
L 634 643 
C 634 237 614 192 397 192 
L 102 192 
L 102 -7 
C 717 -7 736 -7 915 -7 
C 1094 -7 1261 -7 1677 -7 
L 1677 179 
L 1408 205 
C 1190 205 1171 250 1171 654 
L 1171 2014 
C 1171 2302 1594 2616 1978 2616 
C 2323 2616 2560 2287 2560 1798 
L 2560 643 
C 2560 237 2541 192 2323 192 
L 2029 192 
L 2029 -7 
C 2669 -7 2669 -7 2829 -7 
C 2989 -7 2989 -7 3629 -7 
L 3629 192 
L 3334 192 
C 3117 192 3098 237 3098 643 
L 3098 2011 
C 3098 2300 3520 2616 3904 2616 
C 4250 2616 4486 2291 4486 1806 
L 4486 -7 
C 4877 -7 4883 -7 4992 -7 
C 5075 -7 5075 -7 5562 -7 
L 5562 192 
L 5261 192 
C 5043 192 5024 237 5024 643 
L 5024 1970 
C 5024 2608 4653 3008 4064 3008 
C 3840 3008 3654 2950 3539 2847 
L 3053 2412 
C 2848 2834 2586 3008 2144 3008 
C 1907 3008 1728 2950 1613 2847 
L 1171 2437 
L 1171 2982 
L 1114 3008 
C 787 2873 454 2783 115 2745 
L 115 2565 
z
" id="URWPalladioL-Roma-6d" transform="scale(0.015625)"/>
      <path d="M 3219 3009 
L 3162 3035 
C 2835 2900 2502 2810 2163 2772 
L 2163 2592 
L 2400 2592 
C 2656 2592 2682 2547 2682 2121 
L 2682 1070 
C 2682 928 2592 747 2445 599 
C 2266 418 2061 327 1811 327 
C 1587 327 1408 398 1306 521 
C 1216 624 1171 824 1171 1107 
L 1171 3009 
L 1114 3035 
C 787 2900 454 2810 115 2772 
L 115 2592 
L 352 2592 
C 608 2592 634 2547 634 2122 
L 634 1039 
C 634 587 672 387 787 227 
C 928 33 1171 -64 1536 -64 
C 1824 -64 2080 26 2253 186 
L 2682 585 
C 2682 401 2675 298 2656 0 
C 3085 0 3091 0 3187 0 
C 3277 0 3277 0 3718 0 
L 3718 186 
L 3456 212 
C 3238 212 3219 251 3219 664 
L 3219 3009 
z
" id="URWPalladioL-Roma-75" transform="scale(0.015625)"/>
      <path d="M 627 2476 
L 627 619 
C 627 142 838 -64 1331 -64 
C 1478 -64 1632 -32 1670 13 
L 1978 353 
L 1894 463 
C 1734 372 1638 340 1517 340 
C 1267 340 1165 470 1165 788 
L 1165 2489 
L 1984 2489 
L 2042 2816 
L 1165 2816 
L 1165 3056 
C 1165 3321 1184 3547 1235 3951 
L 1158 4021 
C 1005 3925 813 3842 614 3778 
C 634 3585 640 3463 640 3271 
L 640 2822 
L 141 2598 
L 141 2476 
L 627 2476 
z
" id="URWPalladioL-Roma-74" transform="scale(0.015625)"/>
     </defs>
     <use transform="scale(0.996264)" xlink:href="#URWPalladioL-Roma-6c"/>
     <use transform="translate(28.990361 0)scale(0.996264)" xlink:href="#URWPalladioL-Roma-6f"/>
     <use transform="translate(83.385942 0)scale(0.996264)" xlink:href="#URWPalladioL-Roma-77"/>
     <use transform="translate(191.380635 0)scale(0.996264)" xlink:href="#URWPalladioL-Roma-69"/>
     <use transform="translate(220.370996 0)scale(0.996264)" xlink:href="#URWPalladioL-Roma-6e"/>
     <use transform="translate(278.353057 0)scale(0.996264)" xlink:href="#URWPalladioL-Roma-63"/>
     <use transform="translate(322.586626 0)scale(0.996264)" xlink:href="#URWPalladioL-Roma-69"/>
     <use transform="translate(351.576987 0)scale(0.996264)" xlink:href="#URWPalladioL-Roma-64"/>
     <use transform="translate(412.448618 0)scale(0.996264)" xlink:href="#URWPalladioL-Roma-65"/>
     <use transform="translate(460.168913 0)scale(0.996264)" xlink:href="#URWPalladioL-Roma-6e"/>
     <use transform="translate(518.150974 0)scale(0.996264)" xlink:href="#URWPalladioL-Roma-63"/>
     <use transform="translate(562.384542 0)scale(0.996264)" xlink:href="#URWPalladioL-Roma-65"/>
     <use transform="translate(635.011438 0)scale(0.996264)" xlink:href="#URWPalladioL-Roma-6f"/>
     <use transform="translate(689.407018 0)scale(0.996264)" xlink:href="#URWPalladioL-Roma-66"/>
     <use transform="translate(747.488848 0)scale(0.996264)" xlink:href="#URWPalladioL-Roma-63"/>
     <use transform="translate(791.722417 0)scale(0.996264)" xlink:href="#URWPalladioL-Roma-6f"/>
     <use transform="translate(846.117997 0)scale(0.996264)" xlink:href="#URWPalladioL-Roma-6d"/>
     <use transform="translate(934.087671 0)scale(0.996264)" xlink:href="#URWPalladioL-Roma-6d"/>
     <use transform="translate(1022.057345 0)scale(0.996264)" xlink:href="#URWPalladioL-Roma-75"/>
     <use transform="translate(1082.13108 0)scale(0.996264)" xlink:href="#URWPalladioL-Roma-6e"/>
     <use transform="translate(1140.113141 0)scale(0.996264)" xlink:href="#URWPalladioL-Roma-69"/>
     <use transform="translate(1169.103502 0)scale(0.996264)" xlink:href="#URWPalladioL-Roma-74"/>
     <use transform="translate(1201.58059 0)scale(0.996264)" xlink:href="#URWPalladioL-Roma-79"/>
     <use transform="translate(1281.878867 0)scale(0.996264)" xlink:href="#URWPalladioL-Roma-74"/>
     <use transform="translate(1314.355955 0)scale(0.996264)" xlink:href="#URWPalladioL-Roma-72"/>
     <use transform="translate(1353.707852 0)scale(0.996264)" xlink:href="#URWPalladioL-Roma-61"/>
     <use transform="translate(1403.521052 0)scale(0.996264)" xlink:href="#URWPalladioL-Roma-6e"/>
     <use transform="translate(1461.503113 0)scale(0.996264)" xlink:href="#URWPalladioL-Roma-73"/>
     <use transform="translate(1503.744579 0)scale(0.996264)" xlink:href="#URWPalladioL-Roma-6d"/>
     <use transform="translate(1591.714253 0)scale(0.996264)" xlink:href="#URWPalladioL-Roma-69"/>
     <use transform="translate(1620.704615 0)scale(0.996264)" xlink:href="#URWPalladioL-Roma-73"/>
     <use transform="translate(1662.946081 0)scale(0.996264)" xlink:href="#URWPalladioL-Roma-73"/>
     <use transform="translate(1705.187547 0)scale(0.996264)" xlink:href="#URWPalladioL-Roma-69"/>
     <use transform="translate(1734.177909 0)scale(0.996264)" xlink:href="#URWPalladioL-Roma-6f"/>
     <use transform="translate(1788.573489 0)scale(0.996264)" xlink:href="#URWPalladioL-Roma-6e"/>
    </g>
   </g>
   <g id="text_18">
    <!-- moderate incidence of community transmission -->
    <g style="fill:#ffa500;" transform="translate(342.833584 121.252926)scale(0.1 -0.1)">
     <use transform="scale(0.996264)" xlink:href="#URWPalladioL-Roma-6d"/>
     <use transform="translate(87.969674 0)scale(0.996264)" xlink:href="#URWPalladioL-Roma-6f"/>
     <use transform="translate(142.365254 0)scale(0.996264)" xlink:href="#URWPalladioL-Roma-64"/>
     <use transform="translate(203.236885 0)scale(0.996264)" xlink:href="#URWPalladioL-Roma-65"/>
     <use transform="translate(250.95718 0)scale(0.996264)" xlink:href="#URWPalladioL-Roma-72"/>
     <use transform="translate(290.309077 0)scale(0.996264)" xlink:href="#URWPalladioL-Roma-61"/>
     <use transform="translate(340.122277 0)scale(0.996264)" xlink:href="#URWPalladioL-Roma-74"/>
     <use transform="translate(372.599365 0)scale(0.996264)" xlink:href="#URWPalladioL-Roma-65"/>
     <use transform="translate(445.22626 0)scale(0.996264)" xlink:href="#URWPalladioL-Roma-69"/>
     <use transform="translate(474.216622 0)scale(0.996264)" xlink:href="#URWPalladioL-Roma-6e"/>
     <use transform="translate(532.198682 0)scale(0.996264)" xlink:href="#URWPalladioL-Roma-63"/>
     <use transform="translate(576.432251 0)scale(0.996264)" xlink:href="#URWPalladioL-Roma-69"/>
     <use transform="translate(605.422613 0)scale(0.996264)" xlink:href="#URWPalladioL-Roma-64"/>
     <use transform="translate(666.294243 0)scale(0.996264)" xlink:href="#URWPalladioL-Roma-65"/>
     <use transform="translate(714.014538 0)scale(0.996264)" xlink:href="#URWPalladioL-Roma-6e"/>
     <use transform="translate(771.996599 0)scale(0.996264)" xlink:href="#URWPalladioL-Roma-63"/>
     <use transform="translate(816.230168 0)scale(0.996264)" xlink:href="#URWPalladioL-Roma-65"/>
     <use transform="translate(888.857063 0)scale(0.996264)" xlink:href="#URWPalladioL-Roma-6f"/>
     <use transform="translate(943.252643 0)scale(0.996264)" xlink:href="#URWPalladioL-Roma-66"/>
     <use transform="translate(1001.334473 0)scale(0.996264)" xlink:href="#URWPalladioL-Roma-63"/>
     <use transform="translate(1045.568042 0)scale(0.996264)" xlink:href="#URWPalladioL-Roma-6f"/>
     <use transform="translate(1099.963622 0)scale(0.996264)" xlink:href="#URWPalladioL-Roma-6d"/>
     <use transform="translate(1187.933296 0)scale(0.996264)" xlink:href="#URWPalladioL-Roma-6d"/>
     <use transform="translate(1275.902971 0)scale(0.996264)" xlink:href="#URWPalladioL-Roma-75"/>
     <use transform="translate(1335.976705 0)scale(0.996264)" xlink:href="#URWPalladioL-Roma-6e"/>
     <use transform="translate(1393.958766 0)scale(0.996264)" xlink:href="#URWPalladioL-Roma-69"/>
     <use transform="translate(1422.949128 0)scale(0.996264)" xlink:href="#URWPalladioL-Roma-74"/>
     <use transform="translate(1455.426215 0)scale(0.996264)" xlink:href="#URWPalladioL-Roma-79"/>
     <use transform="translate(1535.724493 0)scale(0.996264)" xlink:href="#URWPalladioL-Roma-74"/>
     <use transform="translate(1568.20158 0)scale(0.996264)" xlink:href="#URWPalladioL-Roma-72"/>
     <use transform="translate(1607.553477 0)scale(0.996264)" xlink:href="#URWPalladioL-Roma-61"/>
     <use transform="translate(1657.366677 0)scale(0.996264)" xlink:href="#URWPalladioL-Roma-6e"/>
     <use transform="translate(1715.348738 0)scale(0.996264)" xlink:href="#URWPalladioL-Roma-73"/>
     <use transform="translate(1757.590204 0)scale(0.996264)" xlink:href="#URWPalladioL-Roma-6d"/>
     <use transform="translate(1845.559879 0)scale(0.996264)" xlink:href="#URWPalladioL-Roma-69"/>
     <use transform="translate(1874.55024 0)scale(0.996264)" xlink:href="#URWPalladioL-Roma-73"/>
     <use transform="translate(1916.791706 0)scale(0.996264)" xlink:href="#URWPalladioL-Roma-73"/>
     <use transform="translate(1959.033173 0)scale(0.996264)" xlink:href="#URWPalladioL-Roma-69"/>
     <use transform="translate(1988.023534 0)scale(0.996264)" xlink:href="#URWPalladioL-Roma-6f"/>
     <use transform="translate(2042.419114 0)scale(0.996264)" xlink:href="#URWPalladioL-Roma-6e"/>
    </g>
   </g>
   <g id="text_19">
    <!-- high incidence of community transmission -->
    <g style="fill:#ff0000;" transform="translate(342.833584 14.328237)scale(0.1 -0.1)">
     <defs>
      <path d="M 45 4248 
L 403 4248 
C 518 4248 563 4177 563 3984 
L 563 643 
C 563 237 544 192 326 192 
L 38 192 
L 38 -7 
C 474 -7 646 -7 832 -7 
C 1018 -7 1190 -7 1626 -7 
L 1626 192 
L 1338 192 
C 1120 192 1101 237 1101 643 
L 1101 2011 
C 1101 2300 1523 2616 1914 2616 
C 2342 2616 2624 2297 2624 1806 
L 2624 -7 
C 3014 -7 3021 -7 3130 -7 
C 3219 -7 3219 -7 3661 -7 
L 3661 179 
L 3398 205 
C 3181 205 3162 244 3162 654 
L 3162 1892 
C 3162 2642 2810 3008 2093 3008 
C 1856 3008 1722 2963 1587 2847 
L 1101 2424 
L 1101 4613 
L 1043 4665 
C 762 4556 550 4504 45 4427 
L 45 4248 
z
" id="URWPalladioL-Roma-68" transform="scale(0.015625)"/>
      <path d="M 3322 2432 
L 3482 2695 
L 3456 2759 
L 2547 2759 
C 2310 2937 2080 3008 1766 3008 
C 1485 3008 1158 2920 896 2768 
C 538 2567 352 2258 352 1874 
C 352 1408 646 1087 1120 1036 
L 614 640 
C 550 543 518 459 518 361 
C 518 180 634 76 941 -14 
L 384 -316 
C 294 -367 205 -604 205 -803 
C 205 -1388 774 -1792 1587 -1792 
C 2554 -1792 3315 -1182 3315 -399 
C 3315 63 3008 384 2560 384 
L 1536 384 
C 1203 384 1050 462 1050 639 
C 1050 724 1101 795 1267 939 
C 1306 972 1318 985 1344 1011 
C 1408 1004 1446 998 1498 998 
C 1773 998 2112 1118 2374 1300 
C 2662 1507 2803 1759 2803 2093 
C 2803 2218 2784 2300 2733 2432 
L 3322 2432 
z
M 1536 2790 
C 1971 2790 2266 2438 2266 1905 
C 2266 1499 1997 1216 1606 1216 
C 1178 1216 890 1542 890 2025 
C 890 2507 1126 2790 1536 2790 
z
M 1837 -65 
C 2560 -65 2810 -212 2810 -630 
C 2810 -1182 2304 -1593 1632 -1593 
C 1075 -1593 691 -1266 691 -790 
C 691 -502 858 -238 1114 -129 
C 1216 -78 1395 -65 1837 -65 
z
" id="URWPalladioL-Roma-67" transform="scale(0.015625)"/>
     </defs>
     <use transform="scale(0.996264)" xlink:href="#URWPalladioL-Roma-68"/>
     <use transform="translate(57.982061 0)scale(0.996264)" xlink:href="#URWPalladioL-Roma-69"/>
     <use transform="translate(86.972422 0)scale(0.996264)" xlink:href="#URWPalladioL-Roma-67"/>
     <use transform="translate(142.364099 0)scale(0.996264)" xlink:href="#URWPalladioL-Roma-68"/>
     <use transform="translate(225.25276 0)scale(0.996264)" xlink:href="#URWPalladioL-Roma-69"/>
     <use transform="translate(254.243121 0)scale(0.996264)" xlink:href="#URWPalladioL-Roma-6e"/>
     <use transform="translate(312.225182 0)scale(0.996264)" xlink:href="#URWPalladioL-Roma-63"/>
     <use transform="translate(356.458751 0)scale(0.996264)" xlink:href="#URWPalladioL-Roma-69"/>
     <use transform="translate(385.449112 0)scale(0.996264)" xlink:href="#URWPalladioL-Roma-64"/>
     <use transform="translate(446.320743 0)scale(0.996264)" xlink:href="#URWPalladioL-Roma-65"/>
     <use transform="translate(494.041038 0)scale(0.996264)" xlink:href="#URWPalladioL-Roma-6e"/>
     <use transform="translate(552.023099 0)scale(0.996264)" xlink:href="#URWPalladioL-Roma-63"/>
     <use transform="translate(596.256668 0)scale(0.996264)" xlink:href="#URWPalladioL-Roma-65"/>
     <use transform="translate(668.883563 0)scale(0.996264)" xlink:href="#URWPalladioL-Roma-6f"/>
     <use transform="translate(723.279143 0)scale(0.996264)" xlink:href="#URWPalladioL-Roma-66"/>
     <use transform="translate(781.360973 0)scale(0.996264)" xlink:href="#URWPalladioL-Roma-63"/>
     <use transform="translate(825.594542 0)scale(0.996264)" xlink:href="#URWPalladioL-Roma-6f"/>
     <use transform="translate(879.990122 0)scale(0.996264)" xlink:href="#URWPalladioL-Roma-6d"/>
     <use transform="translate(967.959796 0)scale(0.996264)" xlink:href="#URWPalladioL-Roma-6d"/>
     <use transform="translate(1055.92947 0)scale(0.996264)" xlink:href="#URWPalladioL-Roma-75"/>
     <use transform="translate(1116.003205 0)scale(0.996264)" xlink:href="#URWPalladioL-Roma-6e"/>
     <use transform="translate(1173.985266 0)scale(0.996264)" xlink:href="#URWPalladioL-Roma-69"/>
     <use transform="translate(1202.975627 0)scale(0.996264)" xlink:href="#URWPalladioL-Roma-74"/>
     <use transform="translate(1235.452715 0)scale(0.996264)" xlink:href="#URWPalladioL-Roma-79"/>
     <use transform="translate(1315.750992 0)scale(0.996264)" xlink:href="#URWPalladioL-Roma-74"/>
     <use transform="translate(1348.22808 0)scale(0.996264)" xlink:href="#URWPalladioL-Roma-72"/>
     <use transform="translate(1387.579977 0)scale(0.996264)" xlink:href="#URWPalladioL-Roma-61"/>
     <use transform="translate(1437.393177 0)scale(0.996264)" xlink:href="#URWPalladioL-Roma-6e"/>
     <use transform="translate(1495.375238 0)scale(0.996264)" xlink:href="#URWPalladioL-Roma-73"/>
     <use transform="translate(1537.616704 0)scale(0.996264)" xlink:href="#URWPalladioL-Roma-6d"/>
     <use transform="translate(1625.586378 0)scale(0.996264)" xlink:href="#URWPalladioL-Roma-69"/>
     <use transform="translate(1654.57674 0)scale(0.996264)" xlink:href="#URWPalladioL-Roma-73"/>
     <use transform="translate(1696.818206 0)scale(0.996264)" xlink:href="#URWPalladioL-Roma-73"/>
     <use transform="translate(1739.059672 0)scale(0.996264)" xlink:href="#URWPalladioL-Roma-69"/>
     <use transform="translate(1768.050034 0)scale(0.996264)" xlink:href="#URWPalladioL-Roma-6f"/>
     <use transform="translate(1822.445614 0)scale(0.996264)" xlink:href="#URWPalladioL-Roma-6e"/>
    </g>
   </g>
  </g>
 </g>
 <defs>
  <clipPath id="p2376872d0e">
   <rect height="221.76" width="279" x="55.463584" y="12.168824"/>
  </clipPath>
 </defs>
</svg>
