<?xml version="1.0" encoding="utf-8" standalone="no"?>
<!DOCTYPE svg PUBLIC "-//W3C//DTD SVG 1.1//EN"
  "http://www.w3.org/Graphics/SVG/1.1/DTD/svg11.dtd">
<svg height="325.718609pt" version="1.1" viewBox="0 0 638.375985 325.718609" width="638.375985pt" xmlns="http://www.w3.org/2000/svg" xmlns:xlink="http://www.w3.org/1999/xlink">
 <metadata>
  <rdf:RDF xmlns:cc="http://creativecommons.org/ns#" xmlns:dc="http://purl.org/dc/elements/1.1/" xmlns:rdf="http://www.w3.org/1999/02/22-rdf-syntax-ns#">
   <cc:Work>
    <dc:type rdf:resource="http://purl.org/dc/dcmitype/StillImage"/>
    <dc:format>image/svg+xml</dc:format>
    <dc:creator>
     <cc:Agent>
      <dc:title>Matplotlib v3.4.1, https://matplotlib.org/</dc:title>
     </cc:Agent>
    </dc:creator>
   </cc:Work>
  </rdf:RDF>
 </metadata>
 <defs>
  <style type="text/css">*{stroke-linecap:butt;stroke-linejoin:round;}</style>
 </defs>
 <g id="figure_1">
  <g id="patch_1">
   <path d="M 0 325.718609 
L 638.375985 325.718609 
L 638.375985 0 
L 0 0 
z
" style="fill:#ffffff;"/>
  </g>
  <g id="axes_1">
   <g id="patch_2">
    <path d="M 60.444904 273.312 
L 417.564904 273.312 
L 417.564904 7.2 
L 60.444904 7.2 
z
" style="fill:#ffffff;"/>
   </g>
   <g id="patch_3">
    <path clip-path="url(#p238039b133)" d="M 60.621696 273.312 
L 62.036033 273.312 
L 62.036033 238.646459 
L 60.621696 238.646459 
z
" style="fill:#1f77b4;"/>
   </g>
   <g id="patch_4">
    <path clip-path="url(#p238039b133)" d="M 62.389617 273.312 
L 63.803954 273.312 
L 63.803954 235.152159 
L 62.389617 235.152159 
z
" style="fill:#1f77b4;"/>
   </g>
   <g id="patch_5">
    <path clip-path="url(#p238039b133)" d="M 64.157538 273.312 
L 65.571875 273.312 
L 65.571875 231.191807 
L 64.157538 231.191807 
z
" style="fill:#1f77b4;"/>
   </g>
   <g id="patch_6">
    <path clip-path="url(#p238039b133)" d="M 65.925459 273.312 
L 67.339795 273.312 
L 67.339795 226.481438 
L 65.925459 226.481438 
z
" style="fill:#1f77b4;"/>
   </g>
   <g id="patch_7">
    <path clip-path="url(#p238039b133)" d="M 67.69338 273.312 
L 69.107716 273.312 
L 69.107716 221.454588 
L 67.69338 221.454588 
z
" style="fill:#1f77b4;"/>
   </g>
   <g id="patch_8">
    <path clip-path="url(#p238039b133)" d="M 69.4613 273.312 
L 70.875637 273.312 
L 70.875637 215.817536 
L 69.4613 215.817536 
z
" style="fill:#1f77b4;"/>
   </g>
   <g id="patch_9">
    <path clip-path="url(#p238039b133)" d="M 71.229221 273.312 
L 72.643558 273.312 
L 72.643558 209.044619 
L 71.229221 209.044619 
z
" style="fill:#1f77b4;"/>
   </g>
   <g id="patch_10">
    <path clip-path="url(#p238039b133)" d="M 72.997142 273.312 
L 74.411479 273.312 
L 74.411479 203.929978 
L 72.997142 203.929978 
z
" style="fill:#1f77b4;"/>
   </g>
   <g id="patch_11">
    <path clip-path="url(#p238039b133)" d="M 74.765063 273.312 
L 76.179399 273.312 
L 76.179399 198.540041 
L 74.765063 198.540041 
z
" style="fill:#1f77b4;"/>
   </g>
   <g id="patch_12">
    <path clip-path="url(#p238039b133)" d="M 76.532984 273.312 
L 77.94732 273.312 
L 77.94732 190.013472 
L 76.532984 190.013472 
z
" style="fill:#1f77b4;"/>
   </g>
   <g id="patch_13">
    <path clip-path="url(#p238039b133)" d="M 78.300904 273.312 
L 79.715241 273.312 
L 79.715241 182.128535 
L 78.300904 182.128535 
z
" style="fill:#1f77b4;"/>
   </g>
   <g id="patch_14">
    <path clip-path="url(#p238039b133)" d="M 80.068825 273.312 
L 81.483162 273.312 
L 81.483162 172.229824 
L 80.068825 172.229824 
z
" style="fill:#1f77b4;"/>
   </g>
   <g id="patch_15">
    <path clip-path="url(#p238039b133)" d="M 81.836746 273.312 
L 83.251083 273.312 
L 83.251083 162.779822 
L 81.836746 162.779822 
z
" style="fill:#1f77b4;"/>
   </g>
   <g id="patch_16">
    <path clip-path="url(#p238039b133)" d="M 83.604667 273.312 
L 85.019003 273.312 
L 85.019003 152.409641 
L 83.604667 152.409641 
z
" style="fill:#1f77b4;"/>
   </g>
   <g id="patch_17">
    <path clip-path="url(#p238039b133)" d="M 85.372588 273.312 
L 86.786924 273.312 
L 86.786924 144.092252 
L 85.372588 144.092252 
z
" style="fill:#1f77b4;"/>
   </g>
   <g id="patch_18">
    <path clip-path="url(#p238039b133)" d="M 87.140508 273.312 
L 88.554845 273.312 
L 88.554845 132.03995 
L 87.140508 132.03995 
z
" style="fill:#1f77b4;"/>
   </g>
   <g id="patch_19">
    <path clip-path="url(#p238039b133)" d="M 88.908429 273.312 
L 90.322766 273.312 
L 90.322766 121.426988 
L 88.908429 121.426988 
z
" style="fill:#1f77b4;"/>
   </g>
   <g id="patch_20">
    <path clip-path="url(#p238039b133)" d="M 90.67635 273.312 
L 92.090687 273.312 
L 92.090687 109.77354 
L 90.67635 109.77354 
z
" style="fill:#1f77b4;"/>
   </g>
   <g id="patch_21">
    <path clip-path="url(#p238039b133)" d="M 92.444271 273.312 
L 93.858607 273.312 
L 93.858607 96.831406 
L 92.444271 96.831406 
z
" style="fill:#1f77b4;"/>
   </g>
   <g id="patch_22">
    <path clip-path="url(#p238039b133)" d="M 94.212191 273.312 
L 95.626528 273.312 
L 95.626528 83.701767 
L 94.212191 83.701767 
z
" style="fill:#1f77b4;"/>
   </g>
   <g id="patch_23">
    <path clip-path="url(#p238039b133)" d="M 95.980112 273.312 
L 97.394449 273.312 
L 97.394449 74.343892 
L 95.980112 74.343892 
z
" style="fill:#1f77b4;"/>
   </g>
   <g id="patch_24">
    <path clip-path="url(#p238039b133)" d="M 97.748033 273.312 
L 99.16237 273.312 
L 99.16237 68.663486 
L 97.748033 68.663486 
z
" style="fill:#1f77b4;"/>
   </g>
   <g id="patch_25">
    <path clip-path="url(#p238039b133)" d="M 99.515954 273.312 
L 100.930291 273.312 
L 100.930291 61.889486 
L 99.515954 61.889486 
z
" style="fill:#1f77b4;"/>
   </g>
   <g id="patch_26">
    <path clip-path="url(#p238039b133)" d="M 101.283875 273.312 
L 102.698211 273.312 
L 102.698211 55.864419 
L 101.283875 55.864419 
z
" style="fill:#1f77b4;"/>
   </g>
   <g id="patch_27">
    <path clip-path="url(#p238039b133)" d="M 103.051795 273.312 
L 104.466132 273.312 
L 104.466132 47.54703 
L 103.051795 47.54703 
z
" style="fill:#1f77b4;"/>
   </g>
   <g id="patch_28">
    <path clip-path="url(#p238039b133)" d="M 104.819716 273.312 
L 106.234053 273.312 
L 106.234053 40.258206 
L 104.819716 40.258206 
z
" style="fill:#1f77b4;"/>
   </g>
   <g id="patch_29">
    <path clip-path="url(#p238039b133)" d="M 106.587637 273.312 
L 108.001974 273.312 
L 108.001974 31.530042 
L 106.587637 31.530042 
z
" style="fill:#1f77b4;"/>
   </g>
   <g id="patch_30">
    <path clip-path="url(#p238039b133)" d="M 108.355558 273.312 
L 109.769894 273.312 
L 109.769894 28.593919 
L 108.355558 28.593919 
z
" style="fill:#1f77b4;"/>
   </g>
   <g id="patch_31">
    <path clip-path="url(#p238039b133)" d="M 110.123479 273.312 
L 111.537815 273.312 
L 111.537815 25.32289 
L 110.123479 25.32289 
z
" style="fill:#1f77b4;"/>
   </g>
   <g id="patch_32">
    <path clip-path="url(#p238039b133)" d="M 111.891399 273.312 
L 113.305736 273.312 
L 113.305736 17.89425 
L 111.891399 17.89425 
z
" style="fill:#1f77b4;"/>
   </g>
   <g id="patch_33">
    <path clip-path="url(#p238039b133)" d="M 113.65932 273.312 
L 115.073657 273.312 
L 115.073657 15.281112 
L 113.65932 15.281112 
z
" style="fill:#1f77b4;"/>
   </g>
   <g id="patch_34">
    <path clip-path="url(#p238039b133)" d="M 115.427241 273.312 
L 116.841578 273.312 
L 116.841578 11.516935 
L 115.427241 11.516935 
z
" style="fill:#1f77b4;"/>
   </g>
   <g id="patch_35">
    <path clip-path="url(#p238039b133)" d="M 117.195162 273.312 
L 118.609498 273.312 
L 118.609498 8.164618 
L 117.195162 8.164618 
z
" style="fill:#1f77b4;"/>
   </g>
   <g id="patch_36">
    <path clip-path="url(#p238039b133)" d="M 118.963083 273.312 
L 120.377419 273.312 
L 120.377419 10.934913 
L 118.963083 10.934913 
z
" style="fill:#1f77b4;"/>
   </g>
   <g id="patch_37">
    <path clip-path="url(#p238039b133)" d="M 120.731003 273.312 
L 122.14534 273.312 
L 122.14534 9.457639 
L 120.731003 9.457639 
z
" style="fill:#1f77b4;"/>
   </g>
   <g id="patch_38">
    <path clip-path="url(#p238039b133)" d="M 122.498924 273.312 
L 123.913261 273.312 
L 123.913261 7.2 
L 122.498924 7.2 
z
" style="fill:#1f77b4;"/>
   </g>
   <g id="patch_39">
    <path clip-path="url(#p238039b133)" d="M 124.266845 273.312 
L 125.681182 273.312 
L 125.681182 10.350723 
L 124.266845 10.350723 
z
" style="fill:#1f77b4;"/>
   </g>
   <g id="patch_40">
    <path clip-path="url(#p238039b133)" d="M 126.034766 273.312 
L 127.449102 273.312 
L 127.449102 8.91897 
L 126.034766 8.91897 
z
" style="fill:#1f77b4;"/>
   </g>
   <g id="patch_41">
    <path clip-path="url(#p238039b133)" d="M 127.802687 273.312 
L 129.217023 273.312 
L 129.217023 10.87205 
L 127.802687 10.87205 
z
" style="fill:#1f77b4;"/>
   </g>
   <g id="patch_42">
    <path clip-path="url(#p238039b133)" d="M 129.570607 273.312 
L 130.984944 273.312 
L 130.984944 14.838905 
L 129.570607 14.838905 
z
" style="fill:#1f77b4;"/>
   </g>
   <g id="patch_43">
    <path clip-path="url(#p238039b133)" d="M 131.338528 273.312 
L 132.752865 273.312 
L 132.752865 17.535499 
L 131.338528 17.535499 
z
" style="fill:#1f77b4;"/>
   </g>
   <g id="patch_44">
    <path clip-path="url(#p238039b133)" d="M 133.106449 273.312 
L 134.520786 273.312 
L 134.520786 23.650525 
L 133.106449 23.650525 
z
" style="fill:#1f77b4;"/>
   </g>
   <g id="patch_45">
    <path clip-path="url(#p238039b133)" d="M 134.87437 273.312 
L 136.288706 273.312 
L 136.288706 28.445433 
L 134.87437 28.445433 
z
" style="fill:#1f77b4;"/>
   </g>
   <g id="patch_46">
    <path clip-path="url(#p238039b133)" d="M 136.642291 273.312 
L 138.056627 273.312 
L 138.056627 38.155556 
L 136.642291 38.155556 
z
" style="fill:#1f77b4;"/>
   </g>
   <g id="patch_47">
    <path clip-path="url(#p238039b133)" d="M 138.410211 273.312 
L 139.824548 273.312 
L 139.824548 47.291244 
L 138.410211 47.291244 
z
" style="fill:#1f77b4;"/>
   </g>
   <g id="patch_48">
    <path clip-path="url(#p238039b133)" d="M 140.178132 273.312 
L 141.592469 273.312 
L 141.592469 55.065629 
L 140.178132 55.065629 
z
" style="fill:#1f77b4;"/>
   </g>
   <g id="patch_49">
    <path clip-path="url(#p238039b133)" d="M 141.946053 273.312 
L 143.36039 273.312 
L 143.36039 64.700967 
L 141.946053 64.700967 
z
" style="fill:#1f77b4;"/>
   </g>
   <g id="patch_50">
    <path clip-path="url(#p238039b133)" d="M 143.713974 273.312 
L 145.12831 273.312 
L 145.12831 73.852913 
L 143.713974 73.852913 
z
" style="fill:#1f77b4;"/>
   </g>
   <g id="patch_51">
    <path clip-path="url(#p238039b133)" d="M 145.481894 273.312 
L 146.896231 273.312 
L 146.896231 82.186559 
L 145.481894 82.186559 
z
" style="fill:#1f77b4;"/>
   </g>
   <g id="patch_52">
    <path clip-path="url(#p238039b133)" d="M 147.249815 273.312 
L 148.664152 273.312 
L 148.664152 89.288963 
L 147.249815 89.288963 
z
" style="fill:#1f77b4;"/>
   </g>
   <g id="patch_53">
    <path clip-path="url(#p238039b133)" d="M 149.017736 273.312 
L 150.432073 273.312 
L 150.432073 93.49643 
L 149.017736 93.49643 
z
" style="fill:#1f77b4;"/>
   </g>
   <g id="patch_54">
    <path clip-path="url(#p238039b133)" d="M 150.785657 273.312 
L 152.199993 273.312 
L 152.199993 99.071703 
L 150.785657 99.071703 
z
" style="fill:#1f77b4;"/>
   </g>
   <g id="patch_55">
    <path clip-path="url(#p238039b133)" d="M 152.553578 273.312 
L 153.967914 273.312 
L 153.967914 105.334131 
L 152.553578 105.334131 
z
" style="fill:#1f77b4;"/>
   </g>
   <g id="patch_56">
    <path clip-path="url(#p238039b133)" d="M 154.321498 273.312 
L 155.735835 273.312 
L 155.735835 109.943703 
L 154.321498 109.943703 
z
" style="fill:#1f77b4;"/>
   </g>
   <g id="patch_57">
    <path clip-path="url(#p238039b133)" d="M 156.089419 273.312 
L 157.503756 273.312 
L 157.503756 115.656624 
L 156.089419 115.656624 
z
" style="fill:#1f77b4;"/>
   </g>
   <g id="patch_58">
    <path clip-path="url(#p238039b133)" d="M 157.85734 273.312 
L 159.271677 273.312 
L 159.271677 117.565266 
L 157.85734 117.565266 
z
" style="fill:#1f77b4;"/>
   </g>
   <g id="patch_59">
    <path clip-path="url(#p238039b133)" d="M 159.625261 273.312 
L 161.039597 273.312 
L 161.039597 120.445029 
L 159.625261 120.445029 
z
" style="fill:#1f77b4;"/>
   </g>
   <g id="patch_60">
    <path clip-path="url(#p238039b133)" d="M 161.393182 273.312 
L 162.807518 273.312 
L 162.807518 125.33098 
L 161.393182 125.33098 
z
" style="fill:#1f77b4;"/>
   </g>
   <g id="patch_61">
    <path clip-path="url(#p238039b133)" d="M 163.161102 273.312 
L 164.575439 273.312 
L 164.575439 133.95076 
L 163.161102 133.95076 
z
" style="fill:#1f77b4;"/>
   </g>
   <g id="patch_62">
    <path clip-path="url(#p238039b133)" d="M 164.929023 273.312 
L 166.34336 273.312 
L 166.34336 140.698749 
L 164.929023 140.698749 
z
" style="fill:#1f77b4;"/>
   </g>
   <g id="patch_63">
    <path clip-path="url(#p238039b133)" d="M 166.696944 273.312 
L 168.111281 273.312 
L 168.111281 146.521138 
L 166.696944 146.521138 
z
" style="fill:#1f77b4;"/>
   </g>
   <g id="patch_64">
    <path clip-path="url(#p238039b133)" d="M 168.464865 273.312 
L 169.879201 273.312 
L 169.879201 147.76647 
L 168.464865 147.76647 
z
" style="fill:#1f77b4;"/>
   </g>
   <g id="patch_65">
    <path clip-path="url(#p238039b133)" d="M 170.232786 273.312 
L 171.647122 273.312 
L 171.647122 148.795034 
L 170.232786 148.795034 
z
" style="fill:#1f77b4;"/>
   </g>
   <g id="patch_66">
    <path clip-path="url(#p238039b133)" d="M 172.000706 273.312 
L 173.415043 273.312 
L 173.415043 150.626724 
L 172.000706 150.626724 
z
" style="fill:#1f77b4;"/>
   </g>
   <g id="patch_67">
    <path clip-path="url(#p238039b133)" d="M 173.768627 273.312 
L 175.182964 273.312 
L 175.182964 150.624556 
L 173.768627 150.624556 
z
" style="fill:#1f77b4;"/>
   </g>
   <g id="patch_68">
    <path clip-path="url(#p238039b133)" d="M 175.536548 273.312 
L 176.950885 273.312 
L 176.950885 145.404782 
L 175.536548 145.404782 
z
" style="fill:#1f77b4;"/>
   </g>
   <g id="patch_69">
    <path clip-path="url(#p238039b133)" d="M 177.304469 273.312 
L 178.718805 273.312 
L 178.718805 144.064072 
L 177.304469 144.064072 
z
" style="fill:#1f77b4;"/>
   </g>
   <g id="patch_70">
    <path clip-path="url(#p238039b133)" d="M 179.07239 273.312 
L 180.486726 273.312 
L 180.486726 144.860695 
L 179.07239 144.860695 
z
" style="fill:#1f77b4;"/>
   </g>
   <g id="patch_71">
    <path clip-path="url(#p238039b133)" d="M 180.84031 273.312 
L 182.254647 273.312 
L 182.254647 148.7571 
L 180.84031 148.7571 
z
" style="fill:#1f77b4;"/>
   </g>
   <g id="patch_72">
    <path clip-path="url(#p238039b133)" d="M 182.608231 273.312 
L 184.022568 273.312 
L 184.022568 151.828702 
L 182.608231 151.828702 
z
" style="fill:#1f77b4;"/>
   </g>
   <g id="patch_73">
    <path clip-path="url(#p238039b133)" d="M 184.376152 273.312 
L 185.790489 273.312 
L 185.790489 153.083789 
L 184.376152 153.083789 
z
" style="fill:#1f77b4;"/>
   </g>
   <g id="patch_74">
    <path clip-path="url(#p238039b133)" d="M 186.144073 273.312 
L 187.558409 273.312 
L 187.558409 154.737729 
L 186.144073 154.737729 
z
" style="fill:#1f77b4;"/>
   </g>
   <g id="patch_75">
    <path clip-path="url(#p238039b133)" d="M 187.911993 273.312 
L 189.32633 273.312 
L 189.32633 158.043441 
L 187.911993 158.043441 
z
" style="fill:#1f77b4;"/>
   </g>
   <g id="patch_76">
    <path clip-path="url(#p238039b133)" d="M 189.679914 273.312 
L 191.094251 273.312 
L 191.094251 158.255874 
L 189.679914 158.255874 
z
" style="fill:#1f77b4;"/>
   </g>
   <g id="patch_77">
    <path clip-path="url(#p238039b133)" d="M 191.447835 273.312 
L 192.862172 273.312 
L 192.862172 157.123261 
L 191.447835 157.123261 
z
" style="fill:#1f77b4;"/>
   </g>
   <g id="patch_78">
    <path clip-path="url(#p238039b133)" d="M 193.215756 273.312 
L 194.630092 273.312 
L 194.630092 163.492989 
L 193.215756 163.492989 
z
" style="fill:#1f77b4;"/>
   </g>
   <g id="patch_79">
    <path clip-path="url(#p238039b133)" d="M 194.983677 273.312 
L 196.398013 273.312 
L 196.398013 170.203043 
L 194.983677 170.203043 
z
" style="fill:#1f77b4;"/>
   </g>
   <g id="patch_80">
    <path clip-path="url(#p238039b133)" d="M 196.751597 273.312 
L 198.165934 273.312 
L 198.165934 172.681785 
L 196.751597 172.681785 
z
" style="fill:#1f77b4;"/>
   </g>
   <g id="patch_81">
    <path clip-path="url(#p238039b133)" d="M 198.519518 273.312 
L 199.933855 273.312 
L 199.933855 174.951346 
L 198.519518 174.951346 
z
" style="fill:#1f77b4;"/>
   </g>
   <g id="patch_82">
    <path clip-path="url(#p238039b133)" d="M 200.287439 273.312 
L 201.701776 273.312 
L 201.701776 173.130495 
L 200.287439 173.130495 
z
" style="fill:#1f77b4;"/>
   </g>
   <g id="patch_83">
    <path clip-path="url(#p238039b133)" d="M 202.05536 273.312 
L 203.469696 273.312 
L 203.469696 167.237657 
L 202.05536 167.237657 
z
" style="fill:#1f77b4;"/>
   </g>
   <g id="patch_84">
    <path clip-path="url(#p238039b133)" d="M 203.823281 273.312 
L 205.237617 273.312 
L 205.237617 163.797548 
L 203.823281 163.797548 
z
" style="fill:#1f77b4;"/>
   </g>
   <g id="patch_85">
    <path clip-path="url(#p238039b133)" d="M 205.591201 273.312 
L 207.005538 273.312 
L 207.005538 162.280172 
L 205.591201 162.280172 
z
" style="fill:#1f77b4;"/>
   </g>
   <g id="patch_86">
    <path clip-path="url(#p238039b133)" d="M 207.359122 273.312 
L 208.773459 273.312 
L 208.773459 156.501137 
L 207.359122 156.501137 
z
" style="fill:#1f77b4;"/>
   </g>
   <g id="patch_87">
    <path clip-path="url(#p238039b133)" d="M 209.127043 273.312 
L 210.54138 273.312 
L 210.54138 154.100431 
L 209.127043 154.100431 
z
" style="fill:#1f77b4;"/>
   </g>
   <g id="patch_88">
    <path clip-path="url(#p238039b133)" d="M 210.894964 273.312 
L 212.3093 273.312 
L 212.3093 149.598159 
L 210.894964 149.598159 
z
" style="fill:#1f77b4;"/>
   </g>
   <g id="patch_89">
    <path clip-path="url(#p238039b133)" d="M 212.662885 273.312 
L 214.077221 273.312 
L 214.077221 145.122984 
L 212.662885 145.122984 
z
" style="fill:#1f77b4;"/>
   </g>
   <g id="patch_90">
    <path clip-path="url(#p238039b133)" d="M 214.430805 273.312 
L 215.845142 273.312 
L 215.845142 151.037499 
L 214.430805 151.037499 
z
" style="fill:#1f77b4;"/>
   </g>
   <g id="patch_91">
    <path clip-path="url(#p238039b133)" d="M 216.198726 273.312 
L 217.613063 273.312 
L 217.613063 156.107703 
L 216.198726 156.107703 
z
" style="fill:#1f77b4;"/>
   </g>
   <g id="patch_92">
    <path clip-path="url(#p238039b133)" d="M 217.966647 273.312 
L 219.380984 273.312 
L 219.380984 147.277658 
L 217.966647 147.277658 
z
" style="fill:#1f77b4;"/>
   </g>
   <g id="patch_93">
    <path clip-path="url(#p238039b133)" d="M 219.734568 273.312 
L 221.148904 273.312 
L 221.148904 142.528271 
L 219.734568 142.528271 
z
" style="fill:#1f77b4;"/>
   </g>
   <g id="patch_94">
    <path clip-path="url(#p238039b133)" d="M 221.502489 273.312 
L 222.916825 273.312 
L 222.916825 140.65106 
L 221.502489 140.65106 
z
" style="fill:#1f77b4;"/>
   </g>
   <g id="patch_95">
    <path clip-path="url(#p238039b133)" d="M 223.270409 273.312 
L 224.684746 273.312 
L 224.684746 141.882302 
L 223.270409 141.882302 
z
" style="fill:#1f77b4;"/>
   </g>
   <g id="patch_96">
    <path clip-path="url(#p238039b133)" d="M 225.03833 273.312 
L 226.452667 273.312 
L 226.452667 146.821361 
L 225.03833 146.821361 
z
" style="fill:#1f77b4;"/>
   </g>
   <g id="patch_97">
    <path clip-path="url(#p238039b133)" d="M 226.806251 273.312 
L 228.220588 273.312 
L 228.220588 147.660253 
L 226.806251 147.660253 
z
" style="fill:#1f77b4;"/>
   </g>
   <g id="patch_98">
    <path clip-path="url(#p238039b133)" d="M 228.574172 273.312 
L 229.988508 273.312 
L 229.988508 149.16354 
L 228.574172 149.16354 
z
" style="fill:#1f77b4;"/>
   </g>
   <g id="patch_99">
    <path clip-path="url(#p238039b133)" d="M 230.342092 273.312 
L 231.756429 273.312 
L 231.756429 153.139065 
L 230.342092 153.139065 
z
" style="fill:#1f77b4;"/>
   </g>
   <g id="patch_100">
    <path clip-path="url(#p238039b133)" d="M 232.110013 273.312 
L 233.52435 273.312 
L 233.52435 159.73098 
L 232.110013 159.73098 
z
" style="fill:#1f77b4;"/>
   </g>
   <g id="patch_101">
    <path clip-path="url(#p238039b133)" d="M 233.877934 273.312 
L 235.292271 273.312 
L 235.292271 163.748775 
L 233.877934 163.748775 
z
" style="fill:#1f77b4;"/>
   </g>
   <g id="patch_102">
    <path clip-path="url(#p238039b133)" d="M 235.645855 273.312 
L 237.060191 273.312 
L 237.060191 167.807756 
L 235.645855 167.807756 
z
" style="fill:#1f77b4;"/>
   </g>
   <g id="patch_103">
    <path clip-path="url(#p238039b133)" d="M 237.413776 273.312 
L 238.828112 273.312 
L 238.828112 170.195456 
L 237.413776 170.195456 
z
" style="fill:#1f77b4;"/>
   </g>
   <g id="patch_104">
    <path clip-path="url(#p238039b133)" d="M 239.181696 273.312 
L 240.596033 273.312 
L 240.596033 173.629061 
L 239.181696 173.629061 
z
" style="fill:#1f77b4;"/>
   </g>
   <g id="patch_105">
    <path clip-path="url(#p238039b133)" d="M 240.949617 273.312 
L 242.363954 273.312 
L 242.363954 176.352751 
L 240.949617 176.352751 
z
" style="fill:#1f77b4;"/>
   </g>
   <g id="patch_106">
    <path clip-path="url(#p238039b133)" d="M 242.717538 273.312 
L 244.131875 273.312 
L 244.131875 179.581511 
L 242.717538 179.581511 
z
" style="fill:#1f77b4;"/>
   </g>
   <g id="patch_107">
    <path clip-path="url(#p238039b133)" d="M 244.485459 273.312 
L 245.899795 273.312 
L 245.899795 180.574309 
L 244.485459 180.574309 
z
" style="fill:#1f77b4;"/>
   </g>
   <g id="patch_108">
    <path clip-path="url(#p238039b133)" d="M 246.25338 273.312 
L 247.667716 273.312 
L 247.667716 180.859358 
L 246.25338 180.859358 
z
" style="fill:#1f77b4;"/>
   </g>
   <g id="patch_109">
    <path clip-path="url(#p238039b133)" d="M 248.0213 273.312 
L 249.435637 273.312 
L 249.435637 180.75531 
L 248.0213 180.75531 
z
" style="fill:#1f77b4;"/>
   </g>
   <g id="patch_110">
    <path clip-path="url(#p238039b133)" d="M 249.789221 273.312 
L 251.203558 273.312 
L 251.203558 178.985399 
L 249.789221 178.985399 
z
" style="fill:#1f77b4;"/>
   </g>
   <g id="patch_111">
    <path clip-path="url(#p238039b133)" d="M 251.557142 273.312 
L 252.971479 273.312 
L 252.971479 178.66675 
L 251.557142 178.66675 
z
" style="fill:#1f77b4;"/>
   </g>
   <g id="patch_112">
    <path clip-path="url(#p238039b133)" d="M 253.325063 273.312 
L 254.739399 273.312 
L 254.739399 178.730697 
L 253.325063 178.730697 
z
" style="fill:#1f77b4;"/>
   </g>
   <g id="patch_113">
    <path clip-path="url(#p238039b133)" d="M 255.092984 273.312 
L 256.50732 273.312 
L 256.50732 179.398342 
L 255.092984 179.398342 
z
" style="fill:#1f77b4;"/>
   </g>
   <g id="patch_114">
    <path clip-path="url(#p238039b133)" d="M 256.860904 273.312 
L 258.275241 273.312 
L 258.275241 179.80695 
L 256.860904 179.80695 
z
" style="fill:#1f77b4;"/>
   </g>
   <g id="patch_115">
    <path clip-path="url(#p238039b133)" d="M 258.628825 273.312 
L 260.043162 273.312 
L 260.043162 180.497356 
L 258.628825 180.497356 
z
" style="fill:#1f77b4;"/>
   </g>
   <g id="patch_116">
    <path clip-path="url(#p238039b133)" d="M 260.396746 273.312 
L 261.811083 273.312 
L 261.811083 181.508579 
L 260.396746 181.508579 
z
" style="fill:#1f77b4;"/>
   </g>
   <g id="patch_117">
    <path clip-path="url(#p238039b133)" d="M 262.164667 273.312 
L 263.579003 273.312 
L 263.579003 183.692516 
L 262.164667 183.692516 
z
" style="fill:#1f77b4;"/>
   </g>
   <g id="patch_118">
    <path clip-path="url(#p238039b133)" d="M 263.932588 273.312 
L 265.346924 273.312 
L 265.346924 184.465294 
L 263.932588 184.465294 
z
" style="fill:#1f77b4;"/>
   </g>
   <g id="patch_119">
    <path clip-path="url(#p238039b133)" d="M 265.700508 273.312 
L 267.114845 273.312 
L 267.114845 183.767301 
L 265.700508 183.767301 
z
" style="fill:#1f77b4;"/>
   </g>
   <g id="patch_120">
    <path clip-path="url(#p238039b133)" d="M 267.468429 273.312 
L 268.882766 273.312 
L 268.882766 182.97935 
L 267.468429 182.97935 
z
" style="fill:#1f77b4;"/>
   </g>
   <g id="patch_121">
    <path clip-path="url(#p238039b133)" d="M 269.23635 273.312 
L 270.650687 273.312 
L 270.650687 182.557736 
L 269.23635 182.557736 
z
" style="fill:#1f77b4;"/>
   </g>
   <g id="patch_122">
    <path clip-path="url(#p238039b133)" d="M 271.004271 273.312 
L 272.418607 273.312 
L 272.418607 182.508963 
L 271.004271 182.508963 
z
" style="fill:#1f77b4;"/>
   </g>
   <g id="patch_123">
    <path clip-path="url(#p238039b133)" d="M 272.772191 273.312 
L 274.186528 273.312 
L 274.186528 181.457638 
L 272.772191 181.457638 
z
" style="fill:#1f77b4;"/>
   </g>
   <g id="patch_124">
    <path clip-path="url(#p238039b133)" d="M 274.540112 273.312 
L 275.954449 273.312 
L 275.954449 181.710173 
L 274.540112 181.710173 
z
" style="fill:#1f77b4;"/>
   </g>
   <g id="patch_125">
    <path clip-path="url(#p238039b133)" d="M 276.308033 273.312 
L 277.72237 273.312 
L 277.72237 180.098503 
L 276.308033 180.098503 
z
" style="fill:#1f77b4;"/>
   </g>
   <g id="patch_126">
    <path clip-path="url(#p238039b133)" d="M 278.075954 273.312 
L 279.490291 273.312 
L 279.490291 180.434493 
L 278.075954 180.434493 
z
" style="fill:#1f77b4;"/>
   </g>
   <g id="patch_127">
    <path clip-path="url(#p238039b133)" d="M 279.843875 273.312 
L 281.258211 273.312 
L 281.258211 180.336948 
L 279.843875 180.336948 
z
" style="fill:#1f77b4;"/>
   </g>
   <g id="patch_128">
    <path clip-path="url(#p238039b133)" d="M 281.611795 273.312 
L 283.026132 273.312 
L 283.026132 180.957988 
L 281.611795 180.957988 
z
" style="fill:#1f77b4;"/>
   </g>
   <g id="patch_129">
    <path clip-path="url(#p238039b133)" d="M 283.379716 273.312 
L 284.794053 273.312 
L 284.794053 181.628885 
L 283.379716 181.628885 
z
" style="fill:#1f77b4;"/>
   </g>
   <g id="patch_130">
    <path clip-path="url(#p238039b133)" d="M 285.147637 273.312 
L 286.561974 273.312 
L 286.561974 181.893342 
L 285.147637 181.893342 
z
" style="fill:#1f77b4;"/>
   </g>
   <g id="patch_131">
    <path clip-path="url(#p238039b133)" d="M 286.915558 273.312 
L 288.329894 273.312 
L 288.329894 182.849289 
L 286.915558 182.849289 
z
" style="fill:#1f77b4;"/>
   </g>
   <g id="patch_132">
    <path clip-path="url(#p238039b133)" d="M 288.683479 273.312 
L 290.097815 273.312 
L 290.097815 184.349324 
L 288.683479 184.349324 
z
" style="fill:#1f77b4;"/>
   </g>
   <g id="patch_133">
    <path clip-path="url(#p238039b133)" d="M 290.451399 273.312 
L 291.865736 273.312 
L 291.865736 182.646611 
L 290.451399 182.646611 
z
" style="fill:#1f77b4;"/>
   </g>
   <g id="patch_134">
    <path clip-path="url(#p238039b133)" d="M 292.21932 273.312 
L 293.633657 273.312 
L 293.633657 181.130319 
L 292.21932 181.130319 
z
" style="fill:#1f77b4;"/>
   </g>
   <g id="patch_135">
    <path clip-path="url(#p238039b133)" d="M 293.987241 273.312 
L 295.401578 273.312 
L 295.401578 178.546444 
L 293.987241 178.546444 
z
" style="fill:#1f77b4;"/>
   </g>
   <g id="patch_136">
    <path clip-path="url(#p238039b133)" d="M 295.755162 273.312 
L 297.169498 273.312 
L 297.169498 176.076372 
L 295.755162 176.076372 
z
" style="fill:#1f77b4;"/>
   </g>
   <g id="patch_137">
    <path clip-path="url(#p238039b133)" d="M 297.523083 273.312 
L 298.937419 273.312 
L 298.937419 172.902889 
L 297.523083 172.902889 
z
" style="fill:#1f77b4;"/>
   </g>
   <g id="patch_138">
    <path clip-path="url(#p238039b133)" d="M 299.291003 273.312 
L 300.70534 273.312 
L 300.70534 168.188184 
L 299.291003 168.188184 
z
" style="fill:#1f77b4;"/>
   </g>
   <g id="patch_139">
    <path clip-path="url(#p238039b133)" d="M 301.058924 273.312 
L 302.473261 273.312 
L 302.473261 161.550748 
L 301.058924 161.550748 
z
" style="fill:#1f77b4;"/>
   </g>
   <g id="patch_140">
    <path clip-path="url(#p238039b133)" d="M 302.826845 273.312 
L 304.241182 273.312 
L 304.241182 156.109871 
L 302.826845 156.109871 
z
" style="fill:#1f77b4;"/>
   </g>
   <g id="patch_141">
    <path clip-path="url(#p238039b133)" d="M 304.594766 273.312 
L 306.009102 273.312 
L 306.009102 151.790768 
L 304.594766 151.790768 
z
" style="fill:#1f77b4;"/>
   </g>
   <g id="patch_142">
    <path clip-path="url(#p238039b133)" d="M 306.362687 273.312 
L 307.777023 273.312 
L 307.777023 147.452156 
L 306.362687 147.452156 
z
" style="fill:#1f77b4;"/>
   </g>
   <g id="patch_143">
    <path clip-path="url(#p238039b133)" d="M 308.130607 273.312 
L 309.544944 273.312 
L 309.544944 143.676057 
L 308.130607 143.676057 
z
" style="fill:#1f77b4;"/>
   </g>
   <g id="patch_144">
    <path clip-path="url(#p238039b133)" d="M 309.898528 273.312 
L 311.312865 273.312 
L 311.312865 139.591064 
L 309.898528 139.591064 
z
" style="fill:#1f77b4;"/>
   </g>
   <g id="patch_145">
    <path clip-path="url(#p238039b133)" d="M 311.666449 273.312 
L 313.080786 273.312 
L 313.080786 134.757137 
L 311.666449 134.757137 
z
" style="fill:#1f77b4;"/>
   </g>
   <g id="patch_146">
    <path clip-path="url(#p238039b133)" d="M 313.43437 273.312 
L 314.848706 273.312 
L 314.848706 131.528378 
L 313.43437 131.528378 
z
" style="fill:#1f77b4;"/>
   </g>
   <g id="patch_147">
    <path clip-path="url(#p238039b133)" d="M 315.202291 273.312 
L 316.616627 273.312 
L 316.616627 127.694836 
L 315.202291 127.694836 
z
" style="fill:#1f77b4;"/>
   </g>
   <g id="patch_148">
    <path clip-path="url(#p238039b133)" d="M 316.970211 273.312 
L 318.384548 273.312 
L 318.384548 122.573691 
L 316.970211 122.573691 
z
" style="fill:#1f77b4;"/>
   </g>
   <g id="patch_149">
    <path clip-path="url(#p238039b133)" d="M 318.738132 273.312 
L 320.152469 273.312 
L 320.152469 118.986181 
L 318.738132 118.986181 
z
" style="fill:#1f77b4;"/>
   </g>
   <g id="patch_150">
    <path clip-path="url(#p238039b133)" d="M 320.506053 273.312 
L 321.92039 273.312 
L 321.92039 118.132115 
L 320.506053 118.132115 
z
" style="fill:#1f77b4;"/>
   </g>
   <g id="patch_151">
    <path clip-path="url(#p238039b133)" d="M 322.273974 273.312 
L 323.68831 273.312 
L 323.68831 115.242597 
L 322.273974 115.242597 
z
" style="fill:#1f77b4;"/>
   </g>
   <g id="patch_152">
    <path clip-path="url(#p238039b133)" d="M 324.041894 273.312 
L 325.456231 273.312 
L 325.456231 113.589741 
L 324.041894 113.589741 
z
" style="fill:#1f77b4;"/>
   </g>
   <g id="patch_153">
    <path clip-path="url(#p238039b133)" d="M 325.809815 273.312 
L 327.224152 273.312 
L 327.224152 110.546318 
L 325.809815 110.546318 
z
" style="fill:#1f77b4;"/>
   </g>
   <g id="patch_154">
    <path clip-path="url(#p238039b133)" d="M 327.577736 273.312 
L 328.992073 273.312 
L 328.992073 107.524572 
L 327.577736 107.524572 
z
" style="fill:#1f77b4;"/>
   </g>
   <g id="patch_155">
    <path clip-path="url(#p238039b133)" d="M 329.345657 273.312 
L 330.759993 273.312 
L 330.759993 104.900595 
L 329.345657 104.900595 
z
" style="fill:#1f77b4;"/>
   </g>
   <g id="patch_156">
    <path clip-path="url(#p238039b133)" d="M 331.113578 273.312 
L 332.527914 273.312 
L 332.527914 104.304483 
L 331.113578 104.304483 
z
" style="fill:#1f77b4;"/>
   </g>
   <g id="patch_157">
    <path clip-path="url(#p238039b133)" d="M 332.881498 273.312 
L 334.295835 273.312 
L 334.295835 102.825041 
L 332.881498 102.825041 
z
" style="fill:#1f77b4;"/>
   </g>
   <g id="patch_158">
    <path clip-path="url(#p238039b133)" d="M 334.649419 273.312 
L 336.063756 273.312 
L 336.063756 102.123797 
L 334.649419 102.123797 
z
" style="fill:#1f77b4;"/>
   </g>
   <g id="patch_159">
    <path clip-path="url(#p238039b133)" d="M 336.41734 273.312 
L 337.831677 273.312 
L 337.831677 101.419301 
L 336.41734 101.419301 
z
" style="fill:#1f77b4;"/>
   </g>
   <g id="patch_160">
    <path clip-path="url(#p238039b133)" d="M 338.185261 273.312 
L 339.599597 273.312 
L 339.599597 102.219175 
L 338.185261 102.219175 
z
" style="fill:#1f77b4;"/>
   </g>
   <g id="patch_161">
    <path clip-path="url(#p238039b133)" d="M 339.953182 273.312 
L 341.367518 273.312 
L 341.367518 103.399477 
L 339.953182 103.399477 
z
" style="fill:#1f77b4;"/>
   </g>
   <g id="patch_162">
    <path clip-path="url(#p238039b133)" d="M 341.721102 273.312 
L 343.135439 273.312 
L 343.135439 105.81644 
L 341.721102 105.81644 
z
" style="fill:#1f77b4;"/>
   </g>
   <g id="patch_163">
    <path clip-path="url(#p238039b133)" d="M 343.489023 273.312 
L 344.90336 273.312 
L 344.90336 107.069359 
L 343.489023 107.069359 
z
" style="fill:#1f77b4;"/>
   </g>
   <g id="patch_164">
    <path clip-path="url(#p238039b133)" d="M 345.256944 273.312 
L 346.671281 273.312 
L 346.671281 108.609496 
L 345.256944 108.609496 
z
" style="fill:#1f77b4;"/>
   </g>
   <g id="patch_165">
    <path clip-path="url(#p238039b133)" d="M 347.024865 273.312 
L 348.439201 273.312 
L 348.439201 110.377239 
L 347.024865 110.377239 
z
" style="fill:#1f77b4;"/>
   </g>
   <g id="patch_166">
    <path clip-path="url(#p238039b133)" d="M 348.792786 273.312 
L 350.207122 273.312 
L 350.207122 112.31948 
L 348.792786 112.31948 
z
" style="fill:#1f77b4;"/>
   </g>
   <g id="patch_167">
    <path clip-path="url(#p238039b133)" d="M 350.560706 273.312 
L 351.975043 273.312 
L 351.975043 113.551807 
L 350.560706 113.551807 
z
" style="fill:#1f77b4;"/>
   </g>
   <g id="patch_168">
    <path clip-path="url(#p238039b133)" d="M 352.328627 273.312 
L 353.742964 273.312 
L 353.742964 115.446359 
L 352.328627 115.446359 
z
" style="fill:#1f77b4;"/>
   </g>
   <g id="patch_169">
    <path clip-path="url(#p238039b133)" d="M 354.096548 273.312 
L 355.510885 273.312 
L 355.510885 115.507054 
L 354.096548 115.507054 
z
" style="fill:#1f77b4;"/>
   </g>
   <g id="patch_170">
    <path clip-path="url(#p238039b133)" d="M 355.864469 273.312 
L 357.278805 273.312 
L 357.278805 116.100998 
L 355.864469 116.100998 
z
" style="fill:#1f77b4;"/>
   </g>
   <g id="patch_171">
    <path clip-path="url(#p238039b133)" d="M 357.63239 273.312 
L 359.046726 273.312 
L 359.046726 117.10897 
L 357.63239 117.10897 
z
" style="fill:#1f77b4;"/>
   </g>
   <g id="patch_172">
    <path clip-path="url(#p238039b133)" d="M 359.40031 273.312 
L 360.814647 273.312 
L 360.814647 120.091697 
L 359.40031 120.091697 
z
" style="fill:#1f77b4;"/>
   </g>
   <g id="patch_173">
    <path clip-path="url(#p238039b133)" d="M 361.168231 273.312 
L 362.582568 273.312 
L 362.582568 118.737981 
L 361.168231 118.737981 
z
" style="fill:#1f77b4;"/>
   </g>
   <g id="patch_174">
    <path clip-path="url(#p238039b133)" d="M 362.936152 273.312 
L 364.350489 273.312 
L 364.350489 118.899473 
L 362.936152 118.899473 
z
" style="fill:#1f77b4;"/>
   </g>
   <g id="patch_175">
    <path clip-path="url(#p238039b133)" d="M 364.704073 273.312 
L 366.118409 273.312 
L 366.118409 121.126765 
L 364.704073 121.126765 
z
" style="fill:#1f77b4;"/>
   </g>
   <g id="patch_176">
    <path clip-path="url(#p238039b133)" d="M 366.471993 273.312 
L 367.88633 273.312 
L 367.88633 123.852623 
L 366.471993 123.852623 
z
" style="fill:#1f77b4;"/>
   </g>
   <g id="patch_177">
    <path clip-path="url(#p238039b133)" d="M 368.239914 273.312 
L 369.654251 273.312 
L 369.654251 125.571593 
L 368.239914 125.571593 
z
" style="fill:#1f77b4;"/>
   </g>
   <g id="patch_178">
    <path clip-path="url(#p238039b133)" d="M 370.007835 273.312 
L 371.422172 273.312 
L 371.422172 127.995059 
L 370.007835 127.995059 
z
" style="fill:#1f77b4;"/>
   </g>
   <g id="patch_179">
    <path clip-path="url(#p238039b133)" d="M 371.775756 273.312 
L 373.190092 273.312 
L 373.190092 136.932404 
L 371.775756 136.932404 
z
" style="fill:#1f77b4;"/>
   </g>
   <g id="patch_180">
    <path clip-path="url(#p238039b133)" d="M 373.543677 273.312 
L 374.958013 273.312 
L 374.958013 146.478868 
L 373.543677 146.478868 
z
" style="fill:#1f77b4;"/>
   </g>
   <g id="patch_181">
    <path clip-path="url(#p238039b133)" d="M 375.311597 273.312 
L 376.725934 273.312 
L 376.725934 153.445792 
L 375.311597 153.445792 
z
" style="fill:#1f77b4;"/>
   </g>
   <g id="patch_182">
    <path clip-path="url(#p238039b133)" d="M 377.079518 273.312 
L 378.493855 273.312 
L 378.493855 156.690809 
L 377.079518 156.690809 
z
" style="fill:#1f77b4;"/>
   </g>
   <g id="patch_183">
    <path clip-path="url(#p238039b133)" d="M 378.847439 273.312 
L 380.261776 273.312 
L 380.261776 160.694514 
L 378.847439 160.694514 
z
" style="fill:#1f77b4;"/>
   </g>
   <g id="patch_184">
    <path clip-path="url(#p238039b133)" d="M 380.61536 273.312 
L 382.029696 273.312 
L 382.029696 163.164586 
L 380.61536 163.164586 
z
" style="fill:#1f77b4;"/>
   </g>
   <g id="patch_185">
    <path clip-path="url(#p238039b133)" d="M 382.383281 273.312 
L 383.797617 273.312 
L 383.797617 164.130287 
L 382.383281 164.130287 
z
" style="fill:#1f77b4;"/>
   </g>
   <g id="patch_186">
    <path clip-path="url(#p238039b133)" d="M 384.151201 273.312 
L 385.565538 273.312 
L 385.565538 157.974075 
L 384.151201 157.974075 
z
" style="fill:#1f77b4;"/>
   </g>
   <g id="patch_187">
    <path clip-path="url(#p238039b133)" d="M 385.919122 273.312 
L 387.333459 273.312 
L 387.333459 155.307829 
L 385.919122 155.307829 
z
" style="fill:#1f77b4;"/>
   </g>
   <g id="patch_188">
    <path clip-path="url(#p238039b133)" d="M 387.687043 273.312 
L 389.10138 273.312 
L 389.10138 155.575537 
L 387.687043 155.575537 
z
" style="fill:#1f77b4;"/>
   </g>
   <g id="patch_189">
    <path clip-path="url(#p238039b133)" d="M 389.454964 273.312 
L 390.8693 273.312 
L 390.8693 158.821638 
L 389.454964 158.821638 
z
" style="fill:#1f77b4;"/>
   </g>
   <g id="patch_190">
    <path clip-path="url(#p238039b133)" d="M 391.222885 273.312 
L 392.637221 273.312 
L 392.637221 161.202835 
L 391.222885 161.202835 
z
" style="fill:#1f77b4;"/>
   </g>
   <g id="patch_191">
    <path clip-path="url(#p238039b133)" d="M 392.990805 273.312 
L 394.405142 273.312 
L 394.405142 164.510715 
L 392.990805 164.510715 
z
" style="fill:#1f77b4;"/>
   </g>
   <g id="patch_192">
    <path clip-path="url(#p238039b133)" d="M 394.758726 273.312 
L 396.173063 273.312 
L 396.173063 165.513267 
L 394.758726 165.513267 
z
" style="fill:#1f77b4;"/>
   </g>
   <g id="patch_193">
    <path clip-path="url(#p238039b133)" d="M 396.526647 273.312 
L 397.940984 273.312 
L 397.940984 167.001379 
L 396.526647 167.001379 
z
" style="fill:#1f77b4;"/>
   </g>
   <g id="patch_194">
    <path clip-path="url(#p238039b133)" d="M 398.294568 273.312 
L 399.708904 273.312 
L 399.708904 169.520224 
L 398.294568 169.520224 
z
" style="fill:#1f77b4;"/>
   </g>
   <g id="patch_195">
    <path clip-path="url(#p238039b133)" d="M 400.062489 273.312 
L 401.476825 273.312 
L 401.476825 170.521692 
L 400.062489 170.521692 
z
" style="fill:#1f77b4;"/>
   </g>
   <g id="patch_196">
    <path clip-path="url(#p238039b133)" d="M 401.830409 273.312 
L 403.244746 273.312 
L 403.244746 171.802791 
L 401.830409 171.802791 
z
" style="fill:#1f77b4;"/>
   </g>
   <g id="patch_197">
    <path clip-path="url(#p238039b133)" d="M 403.59833 273.312 
L 405.012667 273.312 
L 405.012667 173.485995 
L 403.59833 173.485995 
z
" style="fill:#1f77b4;"/>
   </g>
   <g id="patch_198">
    <path clip-path="url(#p238039b133)" d="M 405.366251 273.312 
L 406.780588 273.312 
L 406.780588 172.983093 
L 405.366251 172.983093 
z
" style="fill:#1f77b4;"/>
   </g>
   <g id="patch_199">
    <path clip-path="url(#p238039b133)" d="M 407.134172 273.312 
L 408.548508 273.312 
L 408.548508 173.438306 
L 407.134172 173.438306 
z
" style="fill:#1f77b4;"/>
   </g>
   <g id="patch_200">
    <path clip-path="url(#p238039b133)" d="M 408.902092 273.312 
L 410.316429 273.312 
L 410.316429 175.248318 
L 408.902092 175.248318 
z
" style="fill:#1f77b4;"/>
   </g>
   <g id="patch_201">
    <path clip-path="url(#p238039b133)" d="M 410.670013 273.312 
L 412.08435 273.312 
L 412.08435 175.745801 
L 410.670013 175.745801 
z
" style="fill:#1f77b4;"/>
   </g>
   <g id="patch_202">
    <path clip-path="url(#p238039b133)" d="M 412.437934 273.312 
L 413.852271 273.312 
L 413.852271 177.620844 
L 412.437934 177.620844 
z
" style="fill:#1f77b4;"/>
   </g>
   <g id="patch_203">
    <path clip-path="url(#p238039b133)" d="M 414.205855 273.312 
L 415.620191 273.312 
L 415.620191 179.046094 
L 414.205855 179.046094 
z
" style="fill:#1f77b4;"/>
   </g>
   <g id="patch_204">
    <path clip-path="url(#p238039b133)" d="M 415.973776 273.312 
L 417.388112 273.312 
L 417.388112 179.969526 
L 415.973776 179.969526 
z
" style="fill:#1f77b4;"/>
   </g>
   <g id="matplotlib.axis_1">
    <g id="xtick_1">
     <g id="line2d_1">
      <defs>
       <path d="M 0 0 
L 0 3.5 
" id="mf0940ff02f" style="stroke:#000000;stroke-width:0.8;"/>
      </defs>
      <g>
       <use style="stroke:#000000;stroke-width:0.8;" x="96.687281" xlink:href="#mf0940ff02f" y="273.312"/>
      </g>
     </g>
     <g id="text_1">
      <!-- $\mathdefault{2020{-}11}$ -->
      <g transform="translate(98.846694 318.518609)rotate(-90)scale(0.1 -0.1)">
       <defs>
        <path d="M 102 160 
L 102 0 
C 1299 0 1299 0 1530 0 
C 1760 0 1760 0 2995 0 
C 2982 125 2982 186 2982 269 
C 2982 348 2982 407 2995 539 
C 2259 539 1965 539 781 539 
L 1946 1761 
C 2566 2414 2758 2763 2758 3238 
C 2758 3966 2259 4416 1446 4416 
C 986 4416 672 4288 358 3969 
L 250 3099 
L 435 3099 
L 518 3393 
C 621 3763 851 3923 1280 3923 
C 1830 3923 2182 3577 2182 3035 
C 2182 2555 1914 2083 1190 1316 
L 102 160 
z
" id="URWPalladioL-Roma-32" transform="scale(0.015625)"/>
        <path d="M 1683 4416 
C 691 4416 186 3628 186 2077 
C 186 1326 320 680 544 366 
C 768 51 1126 -128 1523 -128 
C 2490 -128 2976 705 2976 2346 
C 2976 3749 2560 4416 1683 4416 
z
M 1568 4192 
C 2189 4192 2438 3564 2438 2025 
C 2438 661 2195 96 1606 96 
C 986 96 723 744 723 2308 
C 723 3660 960 4192 1568 4192 
z
" id="URWPalladioL-Roma-30" transform="scale(0.015625)"/>
        <path d="M 4218 1472 
C 4326 1472 4442 1472 4442 1600 
C 4442 1728 4326 1728 4218 1728 
L 755 1728 
C 646 1728 531 1728 531 1600 
C 531 1472 646 1472 755 1472 
L 4218 1472 
z
" id="CMSY10-0" transform="scale(0.015625)"/>
        <path d="M 429 3584 
L 493 3584 
L 1318 3956 
C 1325 3962 1331 3962 1338 3962 
C 1376 3962 1389 3905 1389 3751 
L 1389 613 
C 1389 276 1318 205 973 205 
L 614 205 
L 614 0 
C 1600 0 1600 0 1670 0 
C 1754 0 1894 0 2112 0 
C 2189 0 2413 0 2675 0 
L 2675 205 
L 2342 205 
C 1990 205 1926 276 1926 612 
L 1926 4443 
L 1837 4475 
C 1421 4257 966 4065 384 3860 
L 429 3584 
z
" id="URWPalladioL-Roma-31" transform="scale(0.015625)"/>
       </defs>
       <use transform="scale(0.996264)" xlink:href="#URWPalladioL-Roma-32"/>
       <use transform="translate(49.8132 0)scale(0.996264)" xlink:href="#URWPalladioL-Roma-30"/>
       <use transform="translate(99.626401 0)scale(0.996264)" xlink:href="#URWPalladioL-Roma-32"/>
       <use transform="translate(149.439601 0)scale(0.996264)" xlink:href="#URWPalladioL-Roma-30"/>
       <use transform="translate(200.498102 0)scale(1.038107)" xlink:href="#CMSY10-0"/>
       <use transform="translate(282.439798 0)scale(0.996264)" xlink:href="#URWPalladioL-Roma-31"/>
       <use transform="translate(332.252998 0)scale(0.996264)" xlink:href="#URWPalladioL-Roma-31"/>
      </g>
     </g>
    </g>
    <g id="xtick_2">
     <g id="line2d_2">
      <g>
       <use style="stroke:#000000;stroke-width:0.8;" x="149.724904" xlink:href="#mf0940ff02f" y="273.312"/>
      </g>
     </g>
     <g id="text_2">
      <!-- $\mathdefault{2020{-}12}$ -->
      <g transform="translate(151.884318 318.518609)rotate(-90)scale(0.1 -0.1)">
       <use transform="scale(0.996264)" xlink:href="#URWPalladioL-Roma-32"/>
       <use transform="translate(49.8132 0)scale(0.996264)" xlink:href="#URWPalladioL-Roma-30"/>
       <use transform="translate(99.626401 0)scale(0.996264)" xlink:href="#URWPalladioL-Roma-32"/>
       <use transform="translate(149.439601 0)scale(0.996264)" xlink:href="#URWPalladioL-Roma-30"/>
       <use transform="translate(200.498102 0)scale(1.038107)" xlink:href="#CMSY10-0"/>
       <use transform="translate(282.439798 0)scale(0.996264)" xlink:href="#URWPalladioL-Roma-31"/>
       <use transform="translate(332.252998 0)scale(0.996264)" xlink:href="#URWPalladioL-Roma-32"/>
      </g>
     </g>
    </g>
    <g id="xtick_3">
     <g id="line2d_3">
      <g>
       <use style="stroke:#000000;stroke-width:0.8;" x="204.530449" xlink:href="#mf0940ff02f" y="273.312"/>
      </g>
     </g>
     <g id="text_3">
      <!-- $\mathdefault{2021{-}01}$ -->
      <g transform="translate(206.689862 318.518609)rotate(-90)scale(0.1 -0.1)">
       <use transform="scale(0.996264)" xlink:href="#URWPalladioL-Roma-32"/>
       <use transform="translate(49.8132 0)scale(0.996264)" xlink:href="#URWPalladioL-Roma-30"/>
       <use transform="translate(99.626401 0)scale(0.996264)" xlink:href="#URWPalladioL-Roma-32"/>
       <use transform="translate(149.439601 0)scale(0.996264)" xlink:href="#URWPalladioL-Roma-31"/>
       <use transform="translate(200.498102 0)scale(1.038107)" xlink:href="#CMSY10-0"/>
       <use transform="translate(282.439798 0)scale(0.996264)" xlink:href="#URWPalladioL-Roma-30"/>
       <use transform="translate(332.252998 0)scale(0.996264)" xlink:href="#URWPalladioL-Roma-31"/>
      </g>
     </g>
    </g>
    <g id="xtick_4">
     <g id="line2d_4">
      <g>
       <use style="stroke:#000000;stroke-width:0.8;" x="259.335993" xlink:href="#mf0940ff02f" y="273.312"/>
      </g>
     </g>
     <g id="text_4">
      <!-- $\mathdefault{2021{-}02}$ -->
      <g transform="translate(261.495407 318.518609)rotate(-90)scale(0.1 -0.1)">
       <use transform="scale(0.996264)" xlink:href="#URWPalladioL-Roma-32"/>
       <use transform="translate(49.8132 0)scale(0.996264)" xlink:href="#URWPalladioL-Roma-30"/>
       <use transform="translate(99.626401 0)scale(0.996264)" xlink:href="#URWPalladioL-Roma-32"/>
       <use transform="translate(149.439601 0)scale(0.996264)" xlink:href="#URWPalladioL-Roma-31"/>
       <use transform="translate(200.498102 0)scale(1.038107)" xlink:href="#CMSY10-0"/>
       <use transform="translate(282.439798 0)scale(0.996264)" xlink:href="#URWPalladioL-Roma-30"/>
       <use transform="translate(332.252998 0)scale(0.996264)" xlink:href="#URWPalladioL-Roma-32"/>
      </g>
     </g>
    </g>
    <g id="xtick_5">
     <g id="line2d_5">
      <g>
       <use style="stroke:#000000;stroke-width:0.8;" x="308.837776" xlink:href="#mf0940ff02f" y="273.312"/>
      </g>
     </g>
     <g id="text_5">
      <!-- $\mathdefault{2021{-}03}$ -->
      <g transform="translate(310.997189 318.518609)rotate(-90)scale(0.1 -0.1)">
       <defs>
        <path d="M 275 3197 
L 474 3197 
L 589 3554 
C 659 3770 1062 3987 1395 3987 
C 1811 3987 2150 3649 2150 3248 
C 2150 2770 1773 2368 1318 2368 
C 1267 2368 1197 2368 1114 2381 
L 1018 2381 
L 941 2047 
L 986 2008 
C 1229 2118 1350 2150 1523 2150 
C 2054 2150 2362 1809 2362 1222 
C 2362 566 1971 135 1376 135 
C 1082 135 819 231 627 411 
C 474 553 390 701 269 1049 
L 96 985 
C 230 593 282 361 320 39 
C 659 -77 941 -128 1178 -128 
C 1690 -128 2278 161 2630 593 
C 2848 857 2957 1140 2957 1442 
C 2957 1751 2829 2022 2598 2182 
C 2438 2298 2291 2350 1971 2407 
C 2483 2803 2675 3096 2675 3472 
C 2675 4040 2202 4416 1491 4416 
C 1056 4416 768 4295 461 3989 
L 275 3197 
z
" id="URWPalladioL-Roma-33" transform="scale(0.015625)"/>
       </defs>
       <use transform="scale(0.996264)" xlink:href="#URWPalladioL-Roma-32"/>
       <use transform="translate(49.8132 0)scale(0.996264)" xlink:href="#URWPalladioL-Roma-30"/>
       <use transform="translate(99.626401 0)scale(0.996264)" xlink:href="#URWPalladioL-Roma-32"/>
       <use transform="translate(149.439601 0)scale(0.996264)" xlink:href="#URWPalladioL-Roma-31"/>
       <use transform="translate(200.498102 0)scale(1.038107)" xlink:href="#CMSY10-0"/>
       <use transform="translate(282.439798 0)scale(0.996264)" xlink:href="#URWPalladioL-Roma-30"/>
       <use transform="translate(332.252998 0)scale(0.996264)" xlink:href="#URWPalladioL-Roma-33"/>
      </g>
     </g>
    </g>
    <g id="xtick_6">
     <g id="line2d_6">
      <g>
       <use style="stroke:#000000;stroke-width:0.8;" x="363.64332" xlink:href="#mf0940ff02f" y="273.312"/>
      </g>
     </g>
     <g id="text_6">
      <!-- $\mathdefault{2021{-}04}$ -->
      <g transform="translate(365.802733 318.518609)rotate(-90)scale(0.1 -0.1)">
       <defs>
        <path d="M 1792 1152 
L 1792 673 
C 1792 289 1722 199 1408 199 
L 1011 199 
L 1011 0 
C 1862 0 1862 0 2016 0 
C 2170 0 2170 0 3021 0 
L 3021 199 
L 2714 199 
C 2400 199 2330 282 2330 669 
L 2330 1152 
C 2707 1152 2842 1152 3021 1133 
L 3021 1588 
C 2720 1563 2598 1563 2502 1563 
L 2483 1563 
L 2330 1563 
L 2330 2457 
C 2330 3600 2342 4152 2374 4416 
L 2298 4448 
L 1824 4275 
L 13 1299 
L 83 1152 
L 1792 1152 
z
M 1792 1563 
L 416 1563 
L 1792 3826 
L 1792 1563 
z
" id="URWPalladioL-Roma-34" transform="scale(0.015625)"/>
       </defs>
       <use transform="scale(0.996264)" xlink:href="#URWPalladioL-Roma-32"/>
       <use transform="translate(49.8132 0)scale(0.996264)" xlink:href="#URWPalladioL-Roma-30"/>
       <use transform="translate(99.626401 0)scale(0.996264)" xlink:href="#URWPalladioL-Roma-32"/>
       <use transform="translate(149.439601 0)scale(0.996264)" xlink:href="#URWPalladioL-Roma-31"/>
       <use transform="translate(200.498102 0)scale(1.038107)" xlink:href="#CMSY10-0"/>
       <use transform="translate(282.439798 0)scale(0.996264)" xlink:href="#URWPalladioL-Roma-30"/>
       <use transform="translate(332.252998 0)scale(0.996264)" xlink:href="#URWPalladioL-Roma-34"/>
      </g>
     </g>
    </g>
    <g id="xtick_7">
     <g id="line2d_7">
      <g>
       <use style="stroke:#000000;stroke-width:0.8;" x="416.680944" xlink:href="#mf0940ff02f" y="273.312"/>
      </g>
     </g>
     <g id="text_7">
      <!-- $\mathdefault{2021{-}05}$ -->
      <g transform="translate(418.840357 318.518609)rotate(-90)scale(0.1 -0.1)">
       <defs>
        <path d="M 813 3877 
C 1638 3877 1997 3877 2765 3877 
L 2797 3907 
C 2784 4016 2784 4064 2784 4144 
C 2784 4229 2784 4277 2797 4386 
L 2765 4416 
C 2285 4416 1997 4416 1651 4416 
C 1299 4416 1018 4416 538 4416 
L 506 4403 
C 512 4011 518 3729 518 3523 
C 518 2977 499 2360 480 2077 
L 608 2038 
C 909 2341 1082 2432 1395 2432 
C 2010 2432 2394 1993 2394 1296 
C 2394 580 1984 160 1286 160 
C 941 160 621 277 531 444 
L 237 973 
L 83 883 
C 230 516 307 310 397 27 
C 576 -71 832 -128 1107 -128 
C 1536 -128 1990 59 2342 368 
C 2733 716 2938 1154 2938 1630 
C 2938 2359 2419 2874 1690 2874 
C 1382 2874 1152 2791 755 2554 
L 813 3877 
z
" id="URWPalladioL-Roma-35" transform="scale(0.015625)"/>
       </defs>
       <use transform="scale(0.996264)" xlink:href="#URWPalladioL-Roma-32"/>
       <use transform="translate(49.8132 0)scale(0.996264)" xlink:href="#URWPalladioL-Roma-30"/>
       <use transform="translate(99.626401 0)scale(0.996264)" xlink:href="#URWPalladioL-Roma-32"/>
       <use transform="translate(149.439601 0)scale(0.996264)" xlink:href="#URWPalladioL-Roma-31"/>
       <use transform="translate(200.498102 0)scale(1.038107)" xlink:href="#CMSY10-0"/>
       <use transform="translate(282.439798 0)scale(0.996264)" xlink:href="#URWPalladioL-Roma-30"/>
       <use transform="translate(332.252998 0)scale(0.996264)" xlink:href="#URWPalladioL-Roma-35"/>
      </g>
     </g>
    </g>
   </g>
   <g id="matplotlib.axis_2">
    <g id="ytick_1">
     <g id="line2d_8">
      <defs>
       <path d="M 0 0 
L -3.5 0 
" id="m0af7d5932b" style="stroke:#000000;stroke-width:0.8;"/>
      </defs>
      <g>
       <use style="stroke:#000000;stroke-width:0.8;" x="60.444904" xlink:href="#m0af7d5932b" y="273.312"/>
      </g>
     </g>
     <g id="text_8">
      <!-- $\mathdefault{0}$ -->
      <g transform="translate(48.463584 276.876119)scale(0.1 -0.1)">
       <use transform="scale(0.996264)" xlink:href="#URWPalladioL-Roma-30"/>
      </g>
     </g>
    </g>
    <g id="ytick_2">
     <g id="line2d_9">
      <g>
       <use style="stroke:#000000;stroke-width:0.8;" x="60.444904" xlink:href="#m0af7d5932b" y="240.601707"/>
      </g>
     </g>
     <g id="text_9">
      <!-- $\mathdefault{50}$ -->
      <g transform="translate(43.482264 244.165825)scale(0.1 -0.1)">
       <use transform="scale(0.996264)" xlink:href="#URWPalladioL-Roma-35"/>
       <use transform="translate(49.8132 0)scale(0.996264)" xlink:href="#URWPalladioL-Roma-30"/>
      </g>
     </g>
    </g>
    <g id="ytick_3">
     <g id="line2d_10">
      <g>
       <use style="stroke:#000000;stroke-width:0.8;" x="60.444904" xlink:href="#m0af7d5932b" y="207.891414"/>
      </g>
     </g>
     <g id="text_10">
      <!-- $\mathdefault{100}$ -->
      <g transform="translate(38.500944 211.455532)scale(0.1 -0.1)">
       <use transform="scale(0.996264)" xlink:href="#URWPalladioL-Roma-31"/>
       <use transform="translate(49.8132 0)scale(0.996264)" xlink:href="#URWPalladioL-Roma-30"/>
       <use transform="translate(99.626401 0)scale(0.996264)" xlink:href="#URWPalladioL-Roma-30"/>
      </g>
     </g>
    </g>
    <g id="ytick_4">
     <g id="line2d_11">
      <g>
       <use style="stroke:#000000;stroke-width:0.8;" x="60.444904" xlink:href="#m0af7d5932b" y="175.18112"/>
      </g>
     </g>
     <g id="text_11">
      <!-- $\mathdefault{150}$ -->
      <g transform="translate(38.500944 178.745239)scale(0.1 -0.1)">
       <use transform="scale(0.996264)" xlink:href="#URWPalladioL-Roma-31"/>
       <use transform="translate(49.8132 0)scale(0.996264)" xlink:href="#URWPalladioL-Roma-35"/>
       <use transform="translate(99.626401 0)scale(0.996264)" xlink:href="#URWPalladioL-Roma-30"/>
      </g>
     </g>
    </g>
    <g id="ytick_5">
     <g id="line2d_12">
      <g>
       <use style="stroke:#000000;stroke-width:0.8;" x="60.444904" xlink:href="#m0af7d5932b" y="142.470827"/>
      </g>
     </g>
     <g id="text_12">
      <!-- $\mathdefault{200}$ -->
      <g transform="translate(38.500944 146.034946)scale(0.1 -0.1)">
       <use transform="scale(0.996264)" xlink:href="#URWPalladioL-Roma-32"/>
       <use transform="translate(49.8132 0)scale(0.996264)" xlink:href="#URWPalladioL-Roma-30"/>
       <use transform="translate(99.626401 0)scale(0.996264)" xlink:href="#URWPalladioL-Roma-30"/>
      </g>
     </g>
    </g>
    <g id="ytick_6">
     <g id="line2d_13">
      <g>
       <use style="stroke:#000000;stroke-width:0.8;" x="60.444904" xlink:href="#m0af7d5932b" y="109.760534"/>
      </g>
     </g>
     <g id="text_13">
      <!-- $\mathdefault{250}$ -->
      <g transform="translate(38.500944 113.324653)scale(0.1 -0.1)">
       <use transform="scale(0.996264)" xlink:href="#URWPalladioL-Roma-32"/>
       <use transform="translate(49.8132 0)scale(0.996264)" xlink:href="#URWPalladioL-Roma-35"/>
       <use transform="translate(99.626401 0)scale(0.996264)" xlink:href="#URWPalladioL-Roma-30"/>
      </g>
     </g>
    </g>
    <g id="ytick_7">
     <g id="line2d_14">
      <g>
       <use style="stroke:#000000;stroke-width:0.8;" x="60.444904" xlink:href="#m0af7d5932b" y="77.050241"/>
      </g>
     </g>
     <g id="text_14">
      <!-- $\mathdefault{300}$ -->
      <g transform="translate(38.500944 80.614359)scale(0.1 -0.1)">
       <use transform="scale(0.996264)" xlink:href="#URWPalladioL-Roma-33"/>
       <use transform="translate(49.8132 0)scale(0.996264)" xlink:href="#URWPalladioL-Roma-30"/>
       <use transform="translate(99.626401 0)scale(0.996264)" xlink:href="#URWPalladioL-Roma-30"/>
      </g>
     </g>
    </g>
    <g id="ytick_8">
     <g id="line2d_15">
      <g>
       <use style="stroke:#000000;stroke-width:0.8;" x="60.444904" xlink:href="#m0af7d5932b" y="44.339948"/>
      </g>
     </g>
     <g id="text_15">
      <!-- $\mathdefault{350}$ -->
      <g transform="translate(38.500944 47.904066)scale(0.1 -0.1)">
       <use transform="scale(0.996264)" xlink:href="#URWPalladioL-Roma-33"/>
       <use transform="translate(49.8132 0)scale(0.996264)" xlink:href="#URWPalladioL-Roma-35"/>
       <use transform="translate(99.626401 0)scale(0.996264)" xlink:href="#URWPalladioL-Roma-30"/>
      </g>
     </g>
    </g>
    <g id="ytick_9">
     <g id="line2d_16">
      <g>
       <use style="stroke:#000000;stroke-width:0.8;" x="60.444904" xlink:href="#m0af7d5932b" y="11.629654"/>
      </g>
     </g>
     <g id="text_16">
      <!-- $\mathdefault{400}$ -->
      <g transform="translate(38.500944 15.193773)scale(0.1 -0.1)">
       <use transform="scale(0.996264)" xlink:href="#URWPalladioL-Roma-34"/>
       <use transform="translate(49.8132 0)scale(0.996264)" xlink:href="#URWPalladioL-Roma-30"/>
       <use transform="translate(99.626401 0)scale(0.996264)" xlink:href="#URWPalladioL-Roma-30"/>
      </g>
     </g>
    </g>
    <g id="text_17">
     <!-- case incidence (WHO) -->
     <g transform="translate(14.328237 189.241836)rotate(-90)scale(0.1 -0.1)">
      <defs>
       <path d="M 2554 1994 
C 2554 2289 2586 2552 2643 2783 
C 2387 2937 2163 3008 1901 3008 
C 1594 3008 1235 2886 851 2642 
C 403 2360 166 1911 166 1347 
C 166 481 774 -128 1632 -128 
C 1965 -128 2445 -6 2509 90 
L 2643 295 
L 2579 391 
C 2342 263 2138 205 1907 205 
C 1197 205 730 757 730 1603 
C 730 2289 1050 2674 1626 2674 
C 1907 2674 2214 2546 2330 2386 
L 2374 1994 
L 2554 1994 
z
" id="URWPalladioL-Roma-63" transform="scale(0.015625)"/>
       <path d="M 2074 538 
L 2042 -1 
C 2458 -1 2458 -1 2541 -1 
C 2573 -1 2733 -1 3014 -1 
L 3014 192 
L 2765 192 
C 2611 192 2586 244 2586 558 
L 2586 1731 
C 2586 2668 2317 3008 1574 3008 
C 1299 3008 1043 2937 800 2791 
L 461 2585 
L 461 2171 
L 627 2126 
L 710 2323 
C 845 2623 909 2668 1203 2668 
C 1805 2668 2054 2431 2074 1852 
L 1440 1736 
C 570 1577 205 1277 205 722 
C 205 224 506 -64 1011 -64 
C 1126 -64 1235 -45 1280 -13 
L 2074 538 
z
M 2074 806 
C 1888 544 1485 302 1235 302 
C 979 302 755 538 755 812 
C 755 1048 883 1271 1075 1392 
C 1235 1488 1587 1577 2074 1648 
L 2074 806 
z
" id="URWPalladioL-Roma-61" transform="scale(0.015625)"/>
       <path d="M 262 917 
C 262 475 243 282 192 26 
C 525 -83 774 -128 1069 -128 
C 1907 -128 2502 321 2502 949 
C 2502 1148 2445 1295 2323 1424 
C 2157 1584 1946 1661 1382 1770 
C 858 1873 685 2001 685 2296 
C 685 2616 909 2796 1299 2796 
C 1728 2796 2054 2572 2054 2270 
L 2054 2123 
L 2234 2123 
C 2240 2495 2246 2648 2266 2847 
C 1926 2963 1696 3008 1434 3008 
C 691 3008 237 2655 237 2078 
C 237 1770 378 1552 672 1417 
C 845 1340 1184 1238 1619 1141 
C 1907 1077 2029 943 2029 699 
C 2029 353 1709 109 1254 109 
C 787 109 454 333 454 654 
L 454 917 
L 262 917 
z
" id="URWPalladioL-Roma-73" transform="scale(0.015625)"/>
       <path d="M 2797 447 
L 2714 511 
C 2304 269 2157 212 1882 212 
C 1466 212 1120 398 941 711 
C 819 921 774 1101 762 1472 
L 1696 1472 
C 2138 1472 2413 1472 2854 1544 
C 2861 1634 2867 1693 2867 1771 
C 2867 2520 2394 3008 1677 3008 
C 1440 3008 1165 2924 902 2770 
C 378 2469 166 2071 166 1404 
C 166 1000 262 654 435 410 
C 691 71 1120 -128 1600 -128 
C 1837 -128 2074 -77 2336 37 
C 2509 108 2643 191 2669 230 
L 2797 447 
z
M 2298 1690 
C 1965 1690 1811 1690 1581 1690 
C 1286 1690 1120 1690 774 1722 
C 774 2027 800 2169 883 2337 
C 1018 2622 1293 2796 1600 2796 
C 1811 2796 1978 2711 2093 2534 
C 2234 2319 2278 2129 2298 1690 
z
" id="URWPalladioL-Roma-65" transform="scale(0.015625)"/>
       <path d="M 1203 2993 
L 1146 3019 
C 819 2884 486 2793 147 2755 
L 147 2576 
L 384 2576 
C 640 2576 666 2531 666 2105 
L 666 651 
C 666 244 646 199 429 199 
L 134 199 
L 134 0 
C 774 0 774 0 934 0 
C 1094 0 1094 0 1734 0 
L 1734 199 
L 1440 199 
C 1222 199 1203 244 1203 651 
L 1203 2993 
z
M 909 4416 
C 717 4416 550 4249 550 4056 
C 550 3870 717 3704 902 3704 
C 1088 3704 1261 3870 1261 4056 
C 1261 4236 1088 4416 909 4416 
z
" id="URWPalladioL-Roma-69" transform="scale(0.015625)"/>
       <path d="M 2624 -7 
C 3014 -7 3021 -7 3130 -7 
C 3219 -7 3219 -7 3661 -7 
L 3661 179 
L 3398 205 
C 3181 205 3162 244 3162 654 
L 3162 1892 
C 3162 2642 2810 3008 2093 3008 
C 1856 3008 1722 2963 1587 2847 
L 1101 2424 
L 1101 2982 
L 1043 3008 
C 717 2873 384 2783 45 2745 
L 45 2565 
L 282 2565 
C 538 2565 563 2520 563 2094 
L 563 643 
C 563 237 544 192 326 192 
L 38 192 
L 38 -7 
C 474 -7 646 -7 832 -7 
C 1018 -7 1190 -7 1626 -7 
L 1626 192 
L 1338 192 
C 1120 192 1101 237 1101 643 
L 1101 2011 
C 1101 2300 1523 2616 1914 2616 
C 2342 2616 2624 2297 2624 1806 
L 2624 -7 
z
" id="URWPalladioL-Roma-6e" transform="scale(0.015625)"/>
       <path d="M 2637 2802 
C 2278 2956 2099 3008 1875 3008 
C 1702 3008 1549 2969 1389 2887 
L 826 2593 
C 461 2401 224 1935 224 1392 
C 224 881 397 460 710 204 
C 928 19 1229 -64 1645 -64 
C 1773 -64 1920 -38 1952 -13 
L 2662 583 
L 2630 -7 
C 2944 -7 3046 -7 3123 -7 
C 3174 -7 3264 -7 3398 -7 
C 3443 -7 3571 -7 3706 -7 
L 3706 192 
L 3411 192 
C 3194 192 3174 237 3174 643 
L 3174 4607 
L 3117 4659 
C 2835 4550 2624 4498 2118 4421 
L 2118 4242 
L 2477 4242 
C 2592 4242 2637 4171 2637 3978 
L 2637 2802 
z
M 2637 1424 
C 2637 1009 2624 946 2541 799 
C 2362 499 2048 302 1747 302 
C 1184 302 781 844 781 1603 
C 781 2298 1126 2706 1702 2706 
C 1946 2706 2202 2623 2426 2470 
C 2560 2381 2637 2298 2637 2246 
L 2637 1424 
z
" id="URWPalladioL-Roma-64" transform="scale(0.015625)"/>
       <path d="M 1926 -1244 
C 1466 -673 1299 -366 1133 212 
C 998 673 934 1161 934 1706 
C 934 2238 998 2693 1120 3110 
C 1286 3642 1459 3944 1926 4489 
L 1805 4656 
C 1139 4059 877 3707 634 3078 
C 467 2648 384 2193 384 1706 
C 384 1020 544 372 851 -205 
C 1075 -635 1280 -885 1805 -1379 
L 1926 -1244 
z
" id="URWPalladioL-Roma-28" transform="scale(0.015625)"/>
       <path d="M 4698 -64 
C 4723 32 4742 122 4749 154 
C 4768 218 4819 411 4870 584 
L 5850 4032 
C 5888 4147 5952 4205 6093 4218 
L 6298 4237 
L 6298 4416 
L 5626 4416 
C 5562 4416 5562 4416 4954 4416 
L 4954 4237 
L 5210 4218 
C 5434 4199 5504 4167 5510 4063 
C 5510 4044 5510 4025 5504 4005 
L 4659 872 
L 3610 3826 
C 3469 4211 3450 4262 3398 4480 
L 3194 4480 
C 3059 4082 2950 3795 2618 2935 
L 1824 917 
L 1184 3795 
C 1165 3872 1158 3942 1158 4006 
C 1158 4147 1222 4205 1395 4218 
L 1664 4237 
L 1664 4416 
L 858 4416 
C 813 4416 544 4416 51 4416 
L 51 4237 
L 230 4218 
C 416 4199 493 4128 550 3897 
L 1312 597 
C 1395 231 1395 225 1459 -64 
L 1779 -64 
C 1837 141 1888 295 2010 597 
L 3123 3429 
L 3923 1256 
C 4134 687 4154 635 4378 -64 
L 4698 -64 
z
" id="URWPalladioL-Roma-57" transform="scale(0.015625)"/>
       <path d="M 3942 773 
C 3942 257 3910 205 3616 205 
L 3309 205 
L 3309 0 
C 3686 0 3910 0 4243 0 
C 4576 0 4806 0 5184 0 
L 5184 205 
L 4877 205 
C 4582 205 4550 256 4550 766 
L 4550 3663 
C 4550 4172 4582 4224 4877 4224 
L 5184 4224 
L 5184 4423 
C 4717 4423 4576 4423 4243 4423 
C 3923 4423 3770 4423 3309 4423 
L 3309 4224 
L 3616 4224 
C 3910 4224 3942 4172 3942 3668 
L 3942 2529 
C 3808 2529 3674 2529 3411 2529 
L 1914 2529 
C 1651 2529 1510 2529 1382 2529 
L 1382 3668 
C 1382 4172 1414 4224 1709 4224 
L 2016 4224 
L 2016 4423 
C 1549 4423 1408 4423 1075 4423 
C 755 4423 602 4423 141 4423 
L 141 4224 
L 448 4224 
C 742 4224 774 4172 774 3663 
L 774 766 
C 774 256 742 205 448 205 
L 141 205 
L 141 0 
C 518 0 742 0 1075 0 
C 1408 0 1638 0 2016 0 
L 2016 205 
L 1709 205 
C 1414 205 1382 257 1382 773 
L 1382 2227 
C 1555 2240 1658 2240 1914 2240 
L 3411 2240 
C 3667 2240 3770 2240 3942 2227 
L 3942 773 
z
" id="URWPalladioL-Roma-48" transform="scale(0.015625)"/>
       <path d="M 2573 4544 
C 1114 4544 141 3596 141 2186 
C 141 839 1075 -128 2368 -128 
C 3802 -128 4890 942 4890 2351 
C 4890 3698 3994 4544 2573 4544 
z
M 2464 4274 
C 3558 4274 4205 3493 4205 2160 
C 4205 890 3616 141 2624 141 
C 1549 141 826 1051 826 2422 
C 826 3607 1414 4274 2464 4274 
z
" id="URWPalladioL-Roma-4f" transform="scale(0.015625)"/>
       <path d="M 326 -1379 
C 768 -962 954 -750 1152 -436 
C 1542 186 1747 930 1747 1699 
C 1747 2193 1664 2648 1498 3078 
C 1254 3700 992 4053 326 4656 
L 205 4489 
C 672 3937 845 3636 1005 3110 
C 1133 2693 1197 2238 1197 1706 
C 1197 1161 1133 673 998 212 
C 832 -366 666 -673 205 -1244 
L 326 -1379 
z
" id="URWPalladioL-Roma-29" transform="scale(0.015625)"/>
      </defs>
      <use transform="scale(0.996264)" xlink:href="#URWPalladioL-Roma-63"/>
      <use transform="translate(44.233569 0)scale(0.996264)" xlink:href="#URWPalladioL-Roma-61"/>
      <use transform="translate(94.046769 0)scale(0.996264)" xlink:href="#URWPalladioL-Roma-73"/>
      <use transform="translate(136.288236 0)scale(0.996264)" xlink:href="#URWPalladioL-Roma-65"/>
      <use transform="translate(208.915131 0)scale(0.996264)" xlink:href="#URWPalladioL-Roma-69"/>
      <use transform="translate(237.905492 0)scale(0.996264)" xlink:href="#URWPalladioL-Roma-6e"/>
      <use transform="translate(295.887553 0)scale(0.996264)" xlink:href="#URWPalladioL-Roma-63"/>
      <use transform="translate(340.121122 0)scale(0.996264)" xlink:href="#URWPalladioL-Roma-69"/>
      <use transform="translate(369.111483 0)scale(0.996264)" xlink:href="#URWPalladioL-Roma-64"/>
      <use transform="translate(429.983114 0)scale(0.996264)" xlink:href="#URWPalladioL-Roma-65"/>
      <use transform="translate(477.703409 0)scale(0.996264)" xlink:href="#URWPalladioL-Roma-6e"/>
      <use transform="translate(535.68547 0)scale(0.996264)" xlink:href="#URWPalladioL-Roma-63"/>
      <use transform="translate(579.919038 0)scale(0.996264)" xlink:href="#URWPalladioL-Roma-65"/>
      <use transform="translate(652.545934 0)scale(0.996264)" xlink:href="#URWPalladioL-Roma-28"/>
      <use transform="translate(685.721163 0)scale(0.996264)" xlink:href="#URWPalladioL-Roma-57"/>
      <use transform="translate(785.347564 0)scale(0.996264)" xlink:href="#URWPalladioL-Roma-48"/>
      <use transform="translate(868.236225 0)scale(0.996264)" xlink:href="#URWPalladioL-Roma-4f"/>
      <use transform="translate(946.542507 0)scale(0.996264)" xlink:href="#URWPalladioL-Roma-29"/>
     </g>
     <!-- new cases over 7 days per 100000 -->
     <g transform="translate(25.691533 213.565569)rotate(-90)scale(0.1 -0.1)">
      <defs>
       <path d="M 2643 3008 
C 2118 1788 2022 1571 1626 677 
L 1088 2444 
C 1069 2502 1062 2553 1062 2604 
C 1062 2700 1146 2752 1306 2752 
L 1562 2752 
L 1562 2932 
C 928 2932 928 2932 800 2932 
C 672 2932 672 2932 38 2932 
L 38 2765 
L 218 2752 
C 397 2739 480 2612 640 2114 
L 1293 -32 
L 1594 -32 
L 2221 1437 
C 2253 1514 2323 1667 2426 1884 
L 2554 2152 
L 3424 -32 
L 3718 -32 
C 3763 102 3814 249 3866 389 
C 3994 767 4134 1162 4160 1201 
L 4595 2196 
C 4787 2625 4864 2733 5005 2752 
L 5171 2765 
L 5171 2932 
C 4646 2932 4646 2932 4544 2932 
C 4442 2932 4442 2932 3917 2932 
L 3917 2752 
L 4134 2752 
C 4294 2752 4384 2675 4384 2559 
C 4384 2489 4371 2412 4339 2329 
L 4019 1433 
C 3968 1292 3917 1163 3712 638 
L 2976 2490 
C 2886 2707 2842 2835 2790 3008 
L 2643 3008 
z
" id="URWPalladioL-Roma-77" transform="scale(0.015625)"/>
       <path d="M 1786 3008 
C 851 3008 205 2347 205 1392 
C 205 487 774 -128 1600 -128 
C 2586 -128 3290 558 3290 1520 
C 3290 2386 2662 3008 1786 3008 
z
M 1670 2796 
C 2259 2796 2694 2155 2694 1283 
C 2694 545 2368 83 1850 83 
C 1222 83 800 699 800 1610 
C 800 2379 1107 2796 1670 2796 
z
" id="URWPalladioL-Roma-6f" transform="scale(0.015625)"/>
       <path d="M 3450 2752 
L 3450 2932 
C 3066 2932 2950 2932 2848 2932 
C 2746 2932 2630 2932 2246 2932 
L 2246 2752 
L 2509 2752 
C 2611 2752 2662 2694 2662 2591 
C 2662 2489 2618 2317 2541 2124 
L 2272 1445 
C 2195 1259 2118 1080 1875 549 
L 1114 2393 
C 1075 2482 1056 2566 1056 2636 
C 1056 2707 1114 2752 1216 2752 
L 1530 2752 
L 1530 2932 
C 902 2932 902 2932 781 2932 
C 659 2932 352 2932 38 2932 
L 38 2752 
L 256 2752 
C 352 2739 384 2701 454 2541 
L 1555 -32 
L 1875 -32 
C 1914 77 1978 243 1978 256 
C 2048 447 2131 664 2138 664 
L 2893 2324 
C 3034 2625 3123 2739 3251 2752 
L 3450 2752 
z
" id="URWPalladioL-Roma-76" transform="scale(0.015625)"/>
       <path d="M 147 2565 
L 384 2565 
C 640 2565 666 2520 666 2094 
L 666 643 
C 666 237 646 192 429 192 
L 134 192 
L 134 -7 
C 595 -7 762 -7 922 -7 
C 1050 -7 1050 -7 1837 -7 
L 1837 192 
L 1504 192 
C 1216 192 1203 211 1203 638 
L 1203 1751 
C 1203 2139 1459 2463 1773 2463 
C 1965 2463 2099 2373 2202 2169 
L 2336 2169 
L 2394 2937 
C 2323 2982 2208 3008 2093 3008 
C 1901 3008 1696 2905 1562 2745 
L 1203 2322 
L 1203 2982 
L 1146 3008 
C 819 2873 486 2783 147 2745 
L 147 2565 
z
" id="URWPalladioL-Roma-72" transform="scale(0.015625)"/>
       <path d="M 358 32 
L 416 -51 
C 666 -32 666 -32 710 -32 
C 755 -32 755 -32 1005 -51 
C 1274 649 1587 1317 2010 2087 
L 3181 4199 
L 3181 4372 
C 2490 4372 2266 4372 1747 4372 
C 1280 4372 966 4372 346 4372 
L 282 4359 
C 301 3750 301 3750 301 3685 
C 301 3614 301 3614 282 3031 
L 474 3031 
L 518 3390 
C 570 3789 614 3840 909 3840 
L 2618 3840 
C 2362 3313 2163 2941 1920 2549 
L 358 32 
z
" id="URWPalladioL-Roma-37" transform="scale(0.015625)"/>
       <path d="M 1901 564 
C 1760 808 1690 956 1574 1270 
L 1165 2347 
C 1126 2456 1101 2552 1101 2618 
C 1101 2710 1171 2764 1318 2764 
L 1562 2764 
L 1562 2944 
C 941 2944 941 2944 819 2944 
C 698 2944 698 2944 77 2944 
L 77 2777 
L 192 2764 
C 352 2745 429 2674 525 2451 
L 1222 775 
C 1402 340 1466 186 1581 -134 
L 1434 -524 
C 1229 -1062 979 -1362 736 -1362 
C 634 -1362 518 -1311 410 -1215 
L 326 -1215 
L 173 -1696 
C 294 -1760 397 -1792 518 -1792 
C 947 -1792 1222 -1562 1466 -1005 
L 2765 1990 
C 3021 2572 3142 2745 3302 2764 
L 3482 2777 
L 3482 2944 
C 2976 2944 2976 2944 2874 2944 
C 2771 2944 2771 2944 2266 2944 
L 2266 2777 
L 2432 2764 
C 2611 2751 2701 2694 2701 2604 
C 2701 2559 2688 2501 2662 2437 
L 1901 564 
z
" id="URWPalladioL-Roma-79" transform="scale(0.015625)"/>
       <path d="M 64 2565 
L 301 2565 
C 557 2565 582 2520 582 2095 
L 582 -1142 
C 582 -1548 563 -1593 346 -1593 
L 51 -1593 
L 51 -1792 
C 691 -1792 691 -1792 851 -1792 
C 1011 -1792 1011 -1792 1651 -1792 
L 1651 -1593 
L 1357 -1593 
C 1139 -1593 1120 -1547 1120 -1138 
L 1120 89 
C 1312 -26 1517 -71 1805 -71 
C 1990 -71 2157 -32 2259 32 
L 2989 505 
C 3245 672 3546 1330 3546 1740 
C 3546 2451 2957 3008 2214 3008 
C 1978 3008 1747 2943 1645 2847 
L 1120 2367 
L 1120 2982 
L 1062 3008 
C 736 2873 403 2783 64 2745 
L 64 2565 
z
M 1120 1964 
C 1120 2053 1152 2124 1235 2233 
C 1421 2469 1683 2591 2003 2591 
C 2605 2591 2989 2169 2989 1504 
C 2989 787 2560 256 1984 256 
C 1632 256 1370 372 1120 633 
L 1120 1964 
z
" id="URWPalladioL-Roma-70" transform="scale(0.015625)"/>
      </defs>
      <use transform="scale(0.996264)" xlink:href="#URWPalladioL-Roma-6e"/>
      <use transform="translate(57.982061 0)scale(0.996264)" xlink:href="#URWPalladioL-Roma-65"/>
      <use transform="translate(105.702356 0)scale(0.996264)" xlink:href="#URWPalladioL-Roma-77"/>
      <use transform="translate(213.697049 0)scale(0.996264)" xlink:href="#URWPalladioL-Roma-63"/>
      <use transform="translate(257.930618 0)scale(0.996264)" xlink:href="#URWPalladioL-Roma-61"/>
      <use transform="translate(307.743818 0)scale(0.996264)" xlink:href="#URWPalladioL-Roma-73"/>
      <use transform="translate(349.985285 0)scale(0.996264)" xlink:href="#URWPalladioL-Roma-65"/>
      <use transform="translate(397.70558 0)scale(0.996264)" xlink:href="#URWPalladioL-Roma-73"/>
      <use transform="translate(464.853646 0)scale(0.996264)" xlink:href="#URWPalladioL-Roma-6f"/>
      <use transform="translate(519.249227 0)scale(0.996264)" xlink:href="#URWPalladioL-Roma-76"/>
      <use transform="translate(575.53714 0)scale(0.996264)" xlink:href="#URWPalladioL-Roma-65"/>
      <use transform="translate(623.257435 0)scale(0.996264)" xlink:href="#URWPalladioL-Roma-72"/>
      <use transform="translate(687.515931 0)scale(0.996264)" xlink:href="#URWPalladioL-Roma-37"/>
      <use transform="translate(762.235732 0)scale(0.996264)" xlink:href="#URWPalladioL-Roma-64"/>
      <use transform="translate(823.107363 0)scale(0.996264)" xlink:href="#URWPalladioL-Roma-61"/>
      <use transform="translate(872.920563 0)scale(0.996264)" xlink:href="#URWPalladioL-Roma-79"/>
      <use transform="translate(928.31224 0)scale(0.996264)" xlink:href="#URWPalladioL-Roma-73"/>
      <use transform="translate(995.460307 0)scale(0.996264)" xlink:href="#URWPalladioL-Roma-70"/>
      <use transform="translate(1055.334701 0)scale(0.996264)" xlink:href="#URWPalladioL-Roma-65"/>
      <use transform="translate(1103.054996 0)scale(0.996264)" xlink:href="#URWPalladioL-Roma-72"/>
      <use transform="translate(1167.313492 0)scale(0.996264)" xlink:href="#URWPalladioL-Roma-31"/>
      <use transform="translate(1217.126693 0)scale(0.996264)" xlink:href="#URWPalladioL-Roma-30"/>
      <use transform="translate(1266.939893 0)scale(0.996264)" xlink:href="#URWPalladioL-Roma-30"/>
      <use transform="translate(1316.753094 0)scale(0.996264)" xlink:href="#URWPalladioL-Roma-30"/>
      <use transform="translate(1366.566294 0)scale(0.996264)" xlink:href="#URWPalladioL-Roma-30"/>
      <use transform="translate(1416.379495 0)scale(0.996264)" xlink:href="#URWPalladioL-Roma-30"/>
     </g>
    </g>
   </g>
   <g id="line2d_17">
    <path clip-path="url(#p238039b133)" d="M 60.444904 260.227883 
L 417.564904 260.227883 
" style="fill:none;stroke:#ffff00;stroke-linecap:square;stroke-width:1.5;"/>
   </g>
   <g id="line2d_18">
    <path clip-path="url(#p238039b133)" d="M 60.444904 240.601707 
L 417.564904 240.601707 
" style="fill:none;stroke:#ffa500;stroke-linecap:square;stroke-width:1.5;"/>
   </g>
   <g id="line2d_19">
    <path clip-path="url(#p238039b133)" d="M 60.444904 175.18112 
L 417.564904 175.18112 
" style="fill:none;stroke:#ff0000;stroke-linecap:square;stroke-width:1.5;"/>
   </g>
   <g id="patch_205">
    <path d="M 60.444904 273.312 
L 60.444904 7.2 
" style="fill:none;stroke:#000000;stroke-linecap:square;stroke-linejoin:miter;stroke-width:0.8;"/>
   </g>
   <g id="patch_206">
    <path d="M 60.444904 273.312 
L 417.564904 273.312 
" style="fill:none;stroke:#000000;stroke-linecap:square;stroke-linejoin:miter;stroke-width:0.8;"/>
   </g>
   <g id="text_18">
    <!-- low incidence of community transmission -->
    <g style="fill:#ffff00;" transform="translate(421.136104 262.387296)scale(0.1 -0.1)">
     <defs>
      <path d="M 147 4256 
L 506 4256 
C 621 4256 666 4185 666 3992 
L 666 651 
C 666 244 646 199 429 199 
L 134 199 
L 134 0 
C 774 0 774 0 934 0 
C 1094 0 1094 0 1734 0 
L 1734 199 
L 1440 199 
C 1222 199 1203 244 1203 650 
L 1203 4621 
L 1146 4673 
C 864 4564 653 4512 147 4435 
L 147 4256 
z
" id="URWPalladioL-Roma-6c" transform="scale(0.015625)"/>
      <path d="M 2182 4601 
C 2048 4652 1971 4672 1888 4672 
C 1683 4672 1459 4563 1318 4404 
L 947 3985 
C 762 3775 678 3490 678 3070 
L 678 2803 
L 237 2604 
L 237 2476 
L 678 2476 
L 678 651 
C 678 244 659 199 442 199 
L 147 199 
L 147 0 
C 787 0 787 0 947 0 
C 1107 0 1107 0 1747 0 
L 1747 199 
L 1453 199 
C 1235 199 1216 245 1216 653 
L 1216 2489 
L 2010 2489 
L 2054 2816 
L 1216 2816 
L 1216 3350 
C 1216 4073 1299 4248 1664 4248 
C 1837 4248 1952 4204 2106 4071 
L 2182 4109 
L 2182 4601 
z
" id="URWPalladioL-Roma-66" transform="scale(0.015625)"/>
      <path d="M 115 2565 
L 352 2565 
C 608 2565 634 2520 634 2094 
L 634 643 
C 634 237 614 192 397 192 
L 102 192 
L 102 -7 
C 717 -7 736 -7 915 -7 
C 1094 -7 1261 -7 1677 -7 
L 1677 179 
L 1408 205 
C 1190 205 1171 250 1171 654 
L 1171 2014 
C 1171 2302 1594 2616 1978 2616 
C 2323 2616 2560 2287 2560 1798 
L 2560 643 
C 2560 237 2541 192 2323 192 
L 2029 192 
L 2029 -7 
C 2669 -7 2669 -7 2829 -7 
C 2989 -7 2989 -7 3629 -7 
L 3629 192 
L 3334 192 
C 3117 192 3098 237 3098 643 
L 3098 2011 
C 3098 2300 3520 2616 3904 2616 
C 4250 2616 4486 2291 4486 1806 
L 4486 -7 
C 4877 -7 4883 -7 4992 -7 
C 5075 -7 5075 -7 5562 -7 
L 5562 192 
L 5261 192 
C 5043 192 5024 237 5024 643 
L 5024 1970 
C 5024 2608 4653 3008 4064 3008 
C 3840 3008 3654 2950 3539 2847 
L 3053 2412 
C 2848 2834 2586 3008 2144 3008 
C 1907 3008 1728 2950 1613 2847 
L 1171 2437 
L 1171 2982 
L 1114 3008 
C 787 2873 454 2783 115 2745 
L 115 2565 
z
" id="URWPalladioL-Roma-6d" transform="scale(0.015625)"/>
      <path d="M 3219 3009 
L 3162 3035 
C 2835 2900 2502 2810 2163 2772 
L 2163 2592 
L 2400 2592 
C 2656 2592 2682 2547 2682 2121 
L 2682 1070 
C 2682 928 2592 747 2445 599 
C 2266 418 2061 327 1811 327 
C 1587 327 1408 398 1306 521 
C 1216 624 1171 824 1171 1107 
L 1171 3009 
L 1114 3035 
C 787 2900 454 2810 115 2772 
L 115 2592 
L 352 2592 
C 608 2592 634 2547 634 2122 
L 634 1039 
C 634 587 672 387 787 227 
C 928 33 1171 -64 1536 -64 
C 1824 -64 2080 26 2253 186 
L 2682 585 
C 2682 401 2675 298 2656 0 
C 3085 0 3091 0 3187 0 
C 3277 0 3277 0 3718 0 
L 3718 186 
L 3456 212 
C 3238 212 3219 251 3219 664 
L 3219 3009 
z
" id="URWPalladioL-Roma-75" transform="scale(0.015625)"/>
      <path d="M 627 2476 
L 627 619 
C 627 142 838 -64 1331 -64 
C 1478 -64 1632 -32 1670 13 
L 1978 353 
L 1894 463 
C 1734 372 1638 340 1517 340 
C 1267 340 1165 470 1165 788 
L 1165 2489 
L 1984 2489 
L 2042 2816 
L 1165 2816 
L 1165 3056 
C 1165 3321 1184 3547 1235 3951 
L 1158 4021 
C 1005 3925 813 3842 614 3778 
C 634 3585 640 3463 640 3271 
L 640 2822 
L 141 2598 
L 141 2476 
L 627 2476 
z
" id="URWPalladioL-Roma-74" transform="scale(0.015625)"/>
     </defs>
     <use transform="scale(0.996264)" xlink:href="#URWPalladioL-Roma-6c"/>
     <use transform="translate(28.990361 0)scale(0.996264)" xlink:href="#URWPalladioL-Roma-6f"/>
     <use transform="translate(83.385942 0)scale(0.996264)" xlink:href="#URWPalladioL-Roma-77"/>
     <use transform="translate(191.380635 0)scale(0.996264)" xlink:href="#URWPalladioL-Roma-69"/>
     <use transform="translate(220.370996 0)scale(0.996264)" xlink:href="#URWPalladioL-Roma-6e"/>
     <use transform="translate(278.353057 0)scale(0.996264)" xlink:href="#URWPalladioL-Roma-63"/>
     <use transform="translate(322.586626 0)scale(0.996264)" xlink:href="#URWPalladioL-Roma-69"/>
     <use transform="translate(351.576987 0)scale(0.996264)" xlink:href="#URWPalladioL-Roma-64"/>
     <use transform="translate(412.448618 0)scale(0.996264)" xlink:href="#URWPalladioL-Roma-65"/>
     <use transform="translate(460.168913 0)scale(0.996264)" xlink:href="#URWPalladioL-Roma-6e"/>
     <use transform="translate(518.150974 0)scale(0.996264)" xlink:href="#URWPalladioL-Roma-63"/>
     <use transform="translate(562.384542 0)scale(0.996264)" xlink:href="#URWPalladioL-Roma-65"/>
     <use transform="translate(635.011438 0)scale(0.996264)" xlink:href="#URWPalladioL-Roma-6f"/>
     <use transform="translate(689.407018 0)scale(0.996264)" xlink:href="#URWPalladioL-Roma-66"/>
     <use transform="translate(747.488848 0)scale(0.996264)" xlink:href="#URWPalladioL-Roma-63"/>
     <use transform="translate(791.722417 0)scale(0.996264)" xlink:href="#URWPalladioL-Roma-6f"/>
     <use transform="translate(846.117997 0)scale(0.996264)" xlink:href="#URWPalladioL-Roma-6d"/>
     <use transform="translate(934.087671 0)scale(0.996264)" xlink:href="#URWPalladioL-Roma-6d"/>
     <use transform="translate(1022.057345 0)scale(0.996264)" xlink:href="#URWPalladioL-Roma-75"/>
     <use transform="translate(1082.13108 0)scale(0.996264)" xlink:href="#URWPalladioL-Roma-6e"/>
     <use transform="translate(1140.113141 0)scale(0.996264)" xlink:href="#URWPalladioL-Roma-69"/>
     <use transform="translate(1169.103502 0)scale(0.996264)" xlink:href="#URWPalladioL-Roma-74"/>
     <use transform="translate(1201.58059 0)scale(0.996264)" xlink:href="#URWPalladioL-Roma-79"/>
     <use transform="translate(1281.878867 0)scale(0.996264)" xlink:href="#URWPalladioL-Roma-74"/>
     <use transform="translate(1314.355955 0)scale(0.996264)" xlink:href="#URWPalladioL-Roma-72"/>
     <use transform="translate(1353.707852 0)scale(0.996264)" xlink:href="#URWPalladioL-Roma-61"/>
     <use transform="translate(1403.521052 0)scale(0.996264)" xlink:href="#URWPalladioL-Roma-6e"/>
     <use transform="translate(1461.503113 0)scale(0.996264)" xlink:href="#URWPalladioL-Roma-73"/>
     <use transform="translate(1503.744579 0)scale(0.996264)" xlink:href="#URWPalladioL-Roma-6d"/>
     <use transform="translate(1591.714253 0)scale(0.996264)" xlink:href="#URWPalladioL-Roma-69"/>
     <use transform="translate(1620.704615 0)scale(0.996264)" xlink:href="#URWPalladioL-Roma-73"/>
     <use transform="translate(1662.946081 0)scale(0.996264)" xlink:href="#URWPalladioL-Roma-73"/>
     <use transform="translate(1705.187547 0)scale(0.996264)" xlink:href="#URWPalladioL-Roma-69"/>
     <use transform="translate(1734.177909 0)scale(0.996264)" xlink:href="#URWPalladioL-Roma-6f"/>
     <use transform="translate(1788.573489 0)scale(0.996264)" xlink:href="#URWPalladioL-Roma-6e"/>
    </g>
   </g>
   <g id="text_19">
    <!-- moderate incidence of community transmission -->
    <g style="fill:#ffa500;" transform="translate(421.136104 242.76112)scale(0.1 -0.1)">
     <use transform="scale(0.996264)" xlink:href="#URWPalladioL-Roma-6d"/>
     <use transform="translate(87.969674 0)scale(0.996264)" xlink:href="#URWPalladioL-Roma-6f"/>
     <use transform="translate(142.365254 0)scale(0.996264)" xlink:href="#URWPalladioL-Roma-64"/>
     <use transform="translate(203.236885 0)scale(0.996264)" xlink:href="#URWPalladioL-Roma-65"/>
     <use transform="translate(250.95718 0)scale(0.996264)" xlink:href="#URWPalladioL-Roma-72"/>
     <use transform="translate(290.309077 0)scale(0.996264)" xlink:href="#URWPalladioL-Roma-61"/>
     <use transform="translate(340.122277 0)scale(0.996264)" xlink:href="#URWPalladioL-Roma-74"/>
     <use transform="translate(372.599365 0)scale(0.996264)" xlink:href="#URWPalladioL-Roma-65"/>
     <use transform="translate(445.22626 0)scale(0.996264)" xlink:href="#URWPalladioL-Roma-69"/>
     <use transform="translate(474.216622 0)scale(0.996264)" xlink:href="#URWPalladioL-Roma-6e"/>
     <use transform="translate(532.198682 0)scale(0.996264)" xlink:href="#URWPalladioL-Roma-63"/>
     <use transform="translate(576.432251 0)scale(0.996264)" xlink:href="#URWPalladioL-Roma-69"/>
     <use transform="translate(605.422613 0)scale(0.996264)" xlink:href="#URWPalladioL-Roma-64"/>
     <use transform="translate(666.294243 0)scale(0.996264)" xlink:href="#URWPalladioL-Roma-65"/>
     <use transform="translate(714.014538 0)scale(0.996264)" xlink:href="#URWPalladioL-Roma-6e"/>
     <use transform="translate(771.996599 0)scale(0.996264)" xlink:href="#URWPalladioL-Roma-63"/>
     <use transform="translate(816.230168 0)scale(0.996264)" xlink:href="#URWPalladioL-Roma-65"/>
     <use transform="translate(888.857063 0)scale(0.996264)" xlink:href="#URWPalladioL-Roma-6f"/>
     <use transform="translate(943.252643 0)scale(0.996264)" xlink:href="#URWPalladioL-Roma-66"/>
     <use transform="translate(1001.334473 0)scale(0.996264)" xlink:href="#URWPalladioL-Roma-63"/>
     <use transform="translate(1045.568042 0)scale(0.996264)" xlink:href="#URWPalladioL-Roma-6f"/>
     <use transform="translate(1099.963622 0)scale(0.996264)" xlink:href="#URWPalladioL-Roma-6d"/>
     <use transform="translate(1187.933296 0)scale(0.996264)" xlink:href="#URWPalladioL-Roma-6d"/>
     <use transform="translate(1275.902971 0)scale(0.996264)" xlink:href="#URWPalladioL-Roma-75"/>
     <use transform="translate(1335.976705 0)scale(0.996264)" xlink:href="#URWPalladioL-Roma-6e"/>
     <use transform="translate(1393.958766 0)scale(0.996264)" xlink:href="#URWPalladioL-Roma-69"/>
     <use transform="translate(1422.949128 0)scale(0.996264)" xlink:href="#URWPalladioL-Roma-74"/>
     <use transform="translate(1455.426215 0)scale(0.996264)" xlink:href="#URWPalladioL-Roma-79"/>
     <use transform="translate(1535.724493 0)scale(0.996264)" xlink:href="#URWPalladioL-Roma-74"/>
     <use transform="translate(1568.20158 0)scale(0.996264)" xlink:href="#URWPalladioL-Roma-72"/>
     <use transform="translate(1607.553477 0)scale(0.996264)" xlink:href="#URWPalladioL-Roma-61"/>
     <use transform="translate(1657.366677 0)scale(0.996264)" xlink:href="#URWPalladioL-Roma-6e"/>
     <use transform="translate(1715.348738 0)scale(0.996264)" xlink:href="#URWPalladioL-Roma-73"/>
     <use transform="translate(1757.590204 0)scale(0.996264)" xlink:href="#URWPalladioL-Roma-6d"/>
     <use transform="translate(1845.559879 0)scale(0.996264)" xlink:href="#URWPalladioL-Roma-69"/>
     <use transform="translate(1874.55024 0)scale(0.996264)" xlink:href="#URWPalladioL-Roma-73"/>
     <use transform="translate(1916.791706 0)scale(0.996264)" xlink:href="#URWPalladioL-Roma-73"/>
     <use transform="translate(1959.033173 0)scale(0.996264)" xlink:href="#URWPalladioL-Roma-69"/>
     <use transform="translate(1988.023534 0)scale(0.996264)" xlink:href="#URWPalladioL-Roma-6f"/>
     <use transform="translate(2042.419114 0)scale(0.996264)" xlink:href="#URWPalladioL-Roma-6e"/>
    </g>
   </g>
   <g id="text_20">
    <!-- high incidence of community transmission -->
    <g style="fill:#ff0000;" transform="translate(421.136104 177.340534)scale(0.1 -0.1)">
     <defs>
      <path d="M 45 4248 
L 403 4248 
C 518 4248 563 4177 563 3984 
L 563 643 
C 563 237 544 192 326 192 
L 38 192 
L 38 -7 
C 474 -7 646 -7 832 -7 
C 1018 -7 1190 -7 1626 -7 
L 1626 192 
L 1338 192 
C 1120 192 1101 237 1101 643 
L 1101 2011 
C 1101 2300 1523 2616 1914 2616 
C 2342 2616 2624 2297 2624 1806 
L 2624 -7 
C 3014 -7 3021 -7 3130 -7 
C 3219 -7 3219 -7 3661 -7 
L 3661 179 
L 3398 205 
C 3181 205 3162 244 3162 654 
L 3162 1892 
C 3162 2642 2810 3008 2093 3008 
C 1856 3008 1722 2963 1587 2847 
L 1101 2424 
L 1101 4613 
L 1043 4665 
C 762 4556 550 4504 45 4427 
L 45 4248 
z
" id="URWPalladioL-Roma-68" transform="scale(0.015625)"/>
      <path d="M 3322 2432 
L 3482 2695 
L 3456 2759 
L 2547 2759 
C 2310 2937 2080 3008 1766 3008 
C 1485 3008 1158 2920 896 2768 
C 538 2567 352 2258 352 1874 
C 352 1408 646 1087 1120 1036 
L 614 640 
C 550 543 518 459 518 361 
C 518 180 634 76 941 -14 
L 384 -316 
C 294 -367 205 -604 205 -803 
C 205 -1388 774 -1792 1587 -1792 
C 2554 -1792 3315 -1182 3315 -399 
C 3315 63 3008 384 2560 384 
L 1536 384 
C 1203 384 1050 462 1050 639 
C 1050 724 1101 795 1267 939 
C 1306 972 1318 985 1344 1011 
C 1408 1004 1446 998 1498 998 
C 1773 998 2112 1118 2374 1300 
C 2662 1507 2803 1759 2803 2093 
C 2803 2218 2784 2300 2733 2432 
L 3322 2432 
z
M 1536 2790 
C 1971 2790 2266 2438 2266 1905 
C 2266 1499 1997 1216 1606 1216 
C 1178 1216 890 1542 890 2025 
C 890 2507 1126 2790 1536 2790 
z
M 1837 -65 
C 2560 -65 2810 -212 2810 -630 
C 2810 -1182 2304 -1593 1632 -1593 
C 1075 -1593 691 -1266 691 -790 
C 691 -502 858 -238 1114 -129 
C 1216 -78 1395 -65 1837 -65 
z
" id="URWPalladioL-Roma-67" transform="scale(0.015625)"/>
     </defs>
     <use transform="scale(0.996264)" xlink:href="#URWPalladioL-Roma-68"/>
     <use transform="translate(57.982061 0)scale(0.996264)" xlink:href="#URWPalladioL-Roma-69"/>
     <use transform="translate(86.972422 0)scale(0.996264)" xlink:href="#URWPalladioL-Roma-67"/>
     <use transform="translate(142.364099 0)scale(0.996264)" xlink:href="#URWPalladioL-Roma-68"/>
     <use transform="translate(225.25276 0)scale(0.996264)" xlink:href="#URWPalladioL-Roma-69"/>
     <use transform="translate(254.243121 0)scale(0.996264)" xlink:href="#URWPalladioL-Roma-6e"/>
     <use transform="translate(312.225182 0)scale(0.996264)" xlink:href="#URWPalladioL-Roma-63"/>
     <use transform="translate(356.458751 0)scale(0.996264)" xlink:href="#URWPalladioL-Roma-69"/>
     <use transform="translate(385.449112 0)scale(0.996264)" xlink:href="#URWPalladioL-Roma-64"/>
     <use transform="translate(446.320743 0)scale(0.996264)" xlink:href="#URWPalladioL-Roma-65"/>
     <use transform="translate(494.041038 0)scale(0.996264)" xlink:href="#URWPalladioL-Roma-6e"/>
     <use transform="translate(552.023099 0)scale(0.996264)" xlink:href="#URWPalladioL-Roma-63"/>
     <use transform="translate(596.256668 0)scale(0.996264)" xlink:href="#URWPalladioL-Roma-65"/>
     <use transform="translate(668.883563 0)scale(0.996264)" xlink:href="#URWPalladioL-Roma-6f"/>
     <use transform="translate(723.279143 0)scale(0.996264)" xlink:href="#URWPalladioL-Roma-66"/>
     <use transform="translate(781.360973 0)scale(0.996264)" xlink:href="#URWPalladioL-Roma-63"/>
     <use transform="translate(825.594542 0)scale(0.996264)" xlink:href="#URWPalladioL-Roma-6f"/>
     <use transform="translate(879.990122 0)scale(0.996264)" xlink:href="#URWPalladioL-Roma-6d"/>
     <use transform="translate(967.959796 0)scale(0.996264)" xlink:href="#URWPalladioL-Roma-6d"/>
     <use transform="translate(1055.92947 0)scale(0.996264)" xlink:href="#URWPalladioL-Roma-75"/>
     <use transform="translate(1116.003205 0)scale(0.996264)" xlink:href="#URWPalladioL-Roma-6e"/>
     <use transform="translate(1173.985266 0)scale(0.996264)" xlink:href="#URWPalladioL-Roma-69"/>
     <use transform="translate(1202.975627 0)scale(0.996264)" xlink:href="#URWPalladioL-Roma-74"/>
     <use transform="translate(1235.452715 0)scale(0.996264)" xlink:href="#URWPalladioL-Roma-79"/>
     <use transform="translate(1315.750992 0)scale(0.996264)" xlink:href="#URWPalladioL-Roma-74"/>
     <use transform="translate(1348.22808 0)scale(0.996264)" xlink:href="#URWPalladioL-Roma-72"/>
     <use transform="translate(1387.579977 0)scale(0.996264)" xlink:href="#URWPalladioL-Roma-61"/>
     <use transform="translate(1437.393177 0)scale(0.996264)" xlink:href="#URWPalladioL-Roma-6e"/>
     <use transform="translate(1495.375238 0)scale(0.996264)" xlink:href="#URWPalladioL-Roma-73"/>
     <use transform="translate(1537.616704 0)scale(0.996264)" xlink:href="#URWPalladioL-Roma-6d"/>
     <use transform="translate(1625.586378 0)scale(0.996264)" xlink:href="#URWPalladioL-Roma-69"/>
     <use transform="translate(1654.57674 0)scale(0.996264)" xlink:href="#URWPalladioL-Roma-73"/>
     <use transform="translate(1696.818206 0)scale(0.996264)" xlink:href="#URWPalladioL-Roma-73"/>
     <use transform="translate(1739.059672 0)scale(0.996264)" xlink:href="#URWPalladioL-Roma-69"/>
     <use transform="translate(1768.050034 0)scale(0.996264)" xlink:href="#URWPalladioL-Roma-6f"/>
     <use transform="translate(1822.445614 0)scale(0.996264)" xlink:href="#URWPalladioL-Roma-6e"/>
    </g>
   </g>
  </g>
 </g>
 <defs>
  <clipPath id="p238039b133">
   <rect height="266.112" width="357.12" x="60.444904" y="7.2"/>
  </clipPath>
 </defs>
</svg>
