<?xml version="1.0" encoding="utf-8" standalone="no"?>
<!DOCTYPE svg PUBLIC "-//W3C//DTD SVG 1.1//EN"
  "http://www.w3.org/Graphics/SVG/1.1/DTD/svg11.dtd">
<svg xmlns:xlink="http://www.w3.org/1999/xlink" width="565.054785pt" height="281.366609pt" viewBox="0 0 565.054785 281.366609" xmlns="http://www.w3.org/2000/svg" version="1.1">
 <metadata>
  <rdf:RDF xmlns:dc="http://purl.org/dc/elements/1.1/" xmlns:cc="http://creativecommons.org/ns#" xmlns:rdf="http://www.w3.org/1999/02/22-rdf-syntax-ns#">
   <cc:Work>
    <dc:type rdf:resource="http://purl.org/dc/dcmitype/StillImage"/>
    <dc:format>image/svg+xml</dc:format>
    <dc:creator>
     <cc:Agent>
      <dc:title>Matplotlib v3.5.0, https://matplotlib.org/</dc:title>
     </cc:Agent>
    </dc:creator>
   </cc:Work>
  </rdf:RDF>
 </metadata>
 <defs>
  <style type="text/css">*{stroke-linejoin: round; stroke-linecap: butt}</style>
 </defs>
 <g id="figure_1">
  <g id="patch_1">
   <path d="M 0 281.366609 
L 565.054785 281.366609 
L 565.054785 0 
L 0 0 
z
" style="fill: #ffffff"/>
  </g>
  <g id="axes_1">
   <g id="patch_2">
    <path d="M 60.444904 228.96 
L 339.444904 228.96 
L 339.444904 7.2 
L 60.444904 7.2 
z
" style="fill: #ffffff"/>
   </g>
   <g id="patch_3">
    <path d="M 60.603427 228.96 
L 61.871609 228.96 
L 61.871609 221.397167 
L 60.603427 221.397167 
z
" clip-path="url(#p6d0e667b46)" style="fill: #1f77b4"/>
   </g>
   <g id="patch_4">
    <path d="M 62.188654 228.96 
L 63.456836 228.96 
L 63.456836 221.540808 
L 62.188654 221.540808 
z
" clip-path="url(#p6d0e667b46)" style="fill: #1f77b4"/>
   </g>
   <g id="patch_5">
    <path d="M 63.773882 228.96 
L 65.042063 228.96 
L 65.042063 221.752204 
L 63.773882 221.752204 
z
" clip-path="url(#p6d0e667b46)" style="fill: #1f77b4"/>
   </g>
   <g id="patch_6">
    <path d="M 65.359109 228.96 
L 66.627291 228.96 
L 66.627291 221.989347 
L 65.359109 221.989347 
z
" clip-path="url(#p6d0e667b46)" style="fill: #1f77b4"/>
   </g>
   <g id="patch_7">
    <path d="M 66.944336 228.96 
L 68.212518 228.96 
L 68.212518 222.050327 
L 66.944336 222.050327 
z
" clip-path="url(#p6d0e667b46)" style="fill: #1f77b4"/>
   </g>
   <g id="patch_8">
    <path d="M 68.529563 228.96 
L 69.797745 228.96 
L 69.797745 221.994767 
L 68.529563 221.994767 
z
" clip-path="url(#p6d0e667b46)" style="fill: #1f77b4"/>
   </g>
   <g id="patch_9">
    <path d="M 70.114791 228.96 
L 71.382973 228.96 
L 71.382973 221.867388 
L 70.114791 221.867388 
z
" clip-path="url(#p6d0e667b46)" style="fill: #1f77b4"/>
   </g>
   <g id="patch_10">
    <path d="M 71.700018 228.96 
L 72.9682 228.96 
L 72.9682 221.832155 
L 71.700018 221.832155 
z
" clip-path="url(#p6d0e667b46)" style="fill: #1f77b4"/>
   </g>
   <g id="patch_11">
    <path d="M 73.285245 228.96 
L 74.553427 228.96 
L 74.553427 221.70884 
L 73.285245 221.70884 
z
" clip-path="url(#p6d0e667b46)" style="fill: #1f77b4"/>
   </g>
   <g id="patch_12">
    <path d="M 74.870473 228.96 
L 76.138654 228.96 
L 76.138654 221.399877 
L 74.870473 221.399877 
z
" clip-path="url(#p6d0e667b46)" style="fill: #1f77b4"/>
   </g>
   <g id="patch_13">
    <path d="M 76.4557 228.96 
L 77.723882 228.96 
L 77.723882 221.082783 
L 76.4557 221.082783 
z
" clip-path="url(#p6d0e667b46)" style="fill: #1f77b4"/>
   </g>
   <g id="patch_14">
    <path d="M 78.040927 228.96 
L 79.309109 228.96 
L 79.309109 220.388969 
L 78.040927 220.388969 
z
" clip-path="url(#p6d0e667b46)" style="fill: #1f77b4"/>
   </g>
   <g id="patch_15">
    <path d="M 79.626154 228.96 
L 80.894336 228.96 
L 80.894336 219.581328 
L 79.626154 219.581328 
z
" clip-path="url(#p6d0e667b46)" style="fill: #1f77b4"/>
   </g>
   <g id="patch_16">
    <path d="M 81.211382 228.96 
L 82.479563 228.96 
L 82.479563 218.947139 
L 81.211382 218.947139 
z
" clip-path="url(#p6d0e667b46)" style="fill: #1f77b4"/>
   </g>
   <g id="patch_17">
    <path d="M 82.796609 228.96 
L 84.064791 228.96 
L 84.064791 218.157114 
L 82.796609 218.157114 
z
" clip-path="url(#p6d0e667b46)" style="fill: #1f77b4"/>
   </g>
   <g id="patch_18">
    <path d="M 84.381836 228.96 
L 85.650018 228.96 
L 85.650018 217.604232 
L 84.381836 217.604232 
z
" clip-path="url(#p6d0e667b46)" style="fill: #1f77b4"/>
   </g>
   <g id="patch_19">
    <path d="M 85.967063 228.96 
L 87.235245 228.96 
L 87.235245 216.754582 
L 85.967063 216.754582 
z
" clip-path="url(#p6d0e667b46)" style="fill: #1f77b4"/>
   </g>
   <g id="patch_20">
    <path d="M 87.552291 228.96 
L 88.820473 228.96 
L 88.820473 215.205698 
L 87.552291 215.205698 
z
" clip-path="url(#p6d0e667b46)" style="fill: #1f77b4"/>
   </g>
   <g id="patch_21">
    <path d="M 89.137518 228.96 
L 90.4057 228.96 
L 90.4057 213.767933 
L 89.137518 213.767933 
z
" clip-path="url(#p6d0e667b46)" style="fill: #1f77b4"/>
   </g>
   <g id="patch_22">
    <path d="M 90.722745 228.96 
L 91.990927 228.96 
L 91.990927 211.724437 
L 90.722745 211.724437 
z
" clip-path="url(#p6d0e667b46)" style="fill: #1f77b4"/>
   </g>
   <g id="patch_23">
    <path d="M 92.307973 228.96 
L 93.576154 228.96 
L 93.576154 209.392303 
L 92.307973 209.392303 
z
" clip-path="url(#p6d0e667b46)" style="fill: #1f77b4"/>
   </g>
   <g id="patch_24">
    <path d="M 93.8932 228.96 
L 95.161382 228.96 
L 95.161382 207.039844 
L 93.8932 207.039844 
z
" clip-path="url(#p6d0e667b46)" style="fill: #1f77b4"/>
   </g>
   <g id="patch_25">
    <path d="M 95.478427 228.96 
L 96.746609 228.96 
L 96.746609 205.435401 
L 95.478427 205.435401 
z
" clip-path="url(#p6d0e667b46)" style="fill: #1f77b4"/>
   </g>
   <g id="patch_26">
    <path d="M 97.063654 228.96 
L 98.331836 228.96 
L 98.331836 202.692671 
L 97.063654 202.692671 
z
" clip-path="url(#p6d0e667b46)" style="fill: #1f77b4"/>
   </g>
   <g id="patch_27">
    <path d="M 98.648882 228.96 
L 99.917063 228.96 
L 99.917063 199.838823 
L 98.648882 199.838823 
z
" clip-path="url(#p6d0e667b46)" style="fill: #1f77b4"/>
   </g>
   <g id="patch_28">
    <path d="M 100.234109 228.96 
L 101.502291 228.96 
L 101.502291 196.312843 
L 100.234109 196.312843 
z
" clip-path="url(#p6d0e667b46)" style="fill: #1f77b4"/>
   </g>
   <g id="patch_29">
    <path d="M 101.819336 228.96 
L 103.087518 228.96 
L 103.087518 193.270636 
L 101.819336 193.270636 
z
" clip-path="url(#p6d0e667b46)" style="fill: #1f77b4"/>
   </g>
   <g id="patch_30">
    <path d="M 103.404563 228.96 
L 104.672745 228.96 
L 104.672745 190.534681 
L 103.404563 190.534681 
z
" clip-path="url(#p6d0e667b46)" style="fill: #1f77b4"/>
   </g>
   <g id="patch_31">
    <path d="M 104.989791 228.96 
L 106.257973 228.96 
L 106.257973 188.344834 
L 104.989791 188.344834 
z
" clip-path="url(#p6d0e667b46)" style="fill: #1f77b4"/>
   </g>
   <g id="patch_32">
    <path d="M 106.575018 228.96 
L 107.8432 228.96 
L 107.8432 186.92875 
L 106.575018 186.92875 
z
" clip-path="url(#p6d0e667b46)" style="fill: #1f77b4"/>
   </g>
   <g id="patch_33">
    <path d="M 108.160245 228.96 
L 109.428427 228.96 
L 109.428427 185.622431 
L 108.160245 185.622431 
z
" clip-path="url(#p6d0e667b46)" style="fill: #1f77b4"/>
   </g>
   <g id="patch_34">
    <path d="M 109.745473 228.96 
L 111.013654 228.96 
L 111.013654 183.675147 
L 109.745473 183.675147 
z
" clip-path="url(#p6d0e667b46)" style="fill: #1f77b4"/>
   </g>
   <g id="patch_35">
    <path d="M 111.3307 228.96 
L 112.598882 228.96 
L 112.598882 182.165561 
L 111.3307 182.165561 
z
" clip-path="url(#p6d0e667b46)" style="fill: #1f77b4"/>
   </g>
   <g id="patch_36">
    <path d="M 112.915927 228.96 
L 114.184109 228.96 
L 114.184109 180.165428 
L 112.915927 180.165428 
z
" clip-path="url(#p6d0e667b46)" style="fill: #1f77b4"/>
   </g>
   <g id="patch_37">
    <path d="M 114.501154 228.96 
L 115.769336 228.96 
L 115.769336 178.304871 
L 114.501154 178.304871 
z
" clip-path="url(#p6d0e667b46)" style="fill: #1f77b4"/>
   </g>
   <g id="patch_38">
    <path d="M 116.086382 228.96 
L 117.354563 228.96 
L 117.354563 177.521621 
L 116.086382 177.521621 
z
" clip-path="url(#p6d0e667b46)" style="fill: #1f77b4"/>
   </g>
   <g id="patch_39">
    <path d="M 117.671609 228.96 
L 118.939791 228.96 
L 118.939791 177.422698 
L 117.671609 177.422698 
z
" clip-path="url(#p6d0e667b46)" style="fill: #1f77b4"/>
   </g>
   <g id="patch_40">
    <path d="M 119.256836 228.96 
L 120.525018 228.96 
L 120.525018 176.985 
L 119.256836 176.985 
z
" clip-path="url(#p6d0e667b46)" style="fill: #1f77b4"/>
   </g>
   <g id="patch_41">
    <path d="M 120.842063 228.96 
L 122.110245 228.96 
L 122.110245 175.765407 
L 120.842063 175.765407 
z
" clip-path="url(#p6d0e667b46)" style="fill: #1f77b4"/>
   </g>
   <g id="patch_42">
    <path d="M 122.427291 228.96 
L 123.695473 228.96 
L 123.695473 174.330352 
L 122.427291 174.330352 
z
" clip-path="url(#p6d0e667b46)" style="fill: #1f77b4"/>
   </g>
   <g id="patch_43">
    <path d="M 124.012518 228.96 
L 125.2807 228.96 
L 125.2807 174.357454 
L 124.012518 174.357454 
z
" clip-path="url(#p6d0e667b46)" style="fill: #1f77b4"/>
   </g>
   <g id="patch_44">
    <path d="M 125.597745 228.96 
L 126.865927 228.96 
L 126.865927 173.830319 
L 125.597745 173.830319 
z
" clip-path="url(#p6d0e667b46)" style="fill: #1f77b4"/>
   </g>
   <g id="patch_45">
    <path d="M 127.182973 228.96 
L 128.451154 228.96 
L 128.451154 173.269306 
L 127.182973 173.269306 
z
" clip-path="url(#p6d0e667b46)" style="fill: #1f77b4"/>
   </g>
   <g id="patch_46">
    <path d="M 128.7682 228.96 
L 130.036382 228.96 
L 130.036382 171.900651 
L 128.7682 171.900651 
z
" clip-path="url(#p6d0e667b46)" style="fill: #1f77b4"/>
   </g>
   <g id="patch_47">
    <path d="M 130.353427 228.96 
L 131.621609 228.96 
L 131.621609 170.828764 
L 130.353427 170.828764 
z
" clip-path="url(#p6d0e667b46)" style="fill: #1f77b4"/>
   </g>
   <g id="patch_48">
    <path d="M 131.938654 228.96 
L 133.206836 228.96 
L 133.206836 170.324666 
L 131.938654 170.324666 
z
" clip-path="url(#p6d0e667b46)" style="fill: #1f77b4"/>
   </g>
   <g id="patch_49">
    <path d="M 133.523882 228.96 
L 134.792063 228.96 
L 134.792063 170.270461 
L 133.523882 170.270461 
z
" clip-path="url(#p6d0e667b46)" style="fill: #1f77b4"/>
   </g>
   <g id="patch_50">
    <path d="M 135.109109 228.96 
L 136.377291 228.96 
L 136.377291 169.172828 
L 135.109109 169.172828 
z
" clip-path="url(#p6d0e667b46)" style="fill: #1f77b4"/>
   </g>
   <g id="patch_51">
    <path d="M 136.694336 228.96 
L 137.962518 228.96 
L 137.962518 168.785268 
L 136.694336 168.785268 
z
" clip-path="url(#p6d0e667b46)" style="fill: #1f77b4"/>
   </g>
   <g id="patch_52">
    <path d="M 138.279563 228.96 
L 139.547745 228.96 
L 139.547745 168.88148 
L 138.279563 168.88148 
z
" clip-path="url(#p6d0e667b46)" style="fill: #1f77b4"/>
   </g>
   <g id="patch_53">
    <path d="M 139.864791 228.96 
L 141.132973 228.96 
L 141.132973 169.594265 
L 139.864791 169.594265 
z
" clip-path="url(#p6d0e667b46)" style="fill: #1f77b4"/>
   </g>
   <g id="patch_54">
    <path d="M 141.450018 228.96 
L 142.7182 228.96 
L 142.7182 170.086167 
L 141.450018 170.086167 
z
" clip-path="url(#p6d0e667b46)" style="fill: #1f77b4"/>
   </g>
   <g id="patch_55">
    <path d="M 143.035245 228.96 
L 144.303427 228.96 
L 144.303427 169.823277 
L 143.035245 169.823277 
z
" clip-path="url(#p6d0e667b46)" style="fill: #1f77b4"/>
   </g>
   <g id="patch_56">
    <path d="M 144.620473 228.96 
L 145.888654 228.96 
L 145.888654 169.836828 
L 144.620473 169.836828 
z
" clip-path="url(#p6d0e667b46)" style="fill: #1f77b4"/>
   </g>
   <g id="patch_57">
    <path d="M 146.2057 228.96 
L 147.473882 228.96 
L 147.473882 170.087522 
L 146.2057 170.087522 
z
" clip-path="url(#p6d0e667b46)" style="fill: #1f77b4"/>
   </g>
   <g id="patch_58">
    <path d="M 147.790927 228.96 
L 149.059109 228.96 
L 149.059109 169.705383 
L 147.790927 169.705383 
z
" clip-path="url(#p6d0e667b46)" style="fill: #1f77b4"/>
   </g>
   <g id="patch_59">
    <path d="M 149.376154 228.96 
L 150.644336 228.96 
L 150.644336 169.354411 
L 149.376154 169.354411 
z
" clip-path="url(#p6d0e667b46)" style="fill: #1f77b4"/>
   </g>
   <g id="patch_60">
    <path d="M 150.961382 228.96 
L 152.229563 228.96 
L 152.229563 168.68499 
L 150.961382 168.68499 
z
" clip-path="url(#p6d0e667b46)" style="fill: #1f77b4"/>
   </g>
   <g id="patch_61">
    <path d="M 152.546609 228.96 
L 153.814791 228.96 
L 153.814791 167.596842 
L 152.546609 167.596842 
z
" clip-path="url(#p6d0e667b46)" style="fill: #1f77b4"/>
   </g>
   <g id="patch_62">
    <path d="M 154.131836 228.96 
L 155.400018 228.96 
L 155.400018 167.073772 
L 154.131836 167.073772 
z
" clip-path="url(#p6d0e667b46)" style="fill: #1f77b4"/>
   </g>
   <g id="patch_63">
    <path d="M 155.717063 228.96 
L 156.985245 228.96 
L 156.985245 167.126621 
L 155.717063 167.126621 
z
" clip-path="url(#p6d0e667b46)" style="fill: #1f77b4"/>
   </g>
   <g id="patch_64">
    <path d="M 157.302291 228.96 
L 158.570473 228.96 
L 158.570473 166.310849 
L 157.302291 166.310849 
z
" clip-path="url(#p6d0e667b46)" style="fill: #1f77b4"/>
   </g>
   <g id="patch_65">
    <path d="M 158.887518 228.96 
L 160.1557 228.96 
L 160.1557 167.137462 
L 158.887518 167.137462 
z
" clip-path="url(#p6d0e667b46)" style="fill: #1f77b4"/>
   </g>
   <g id="patch_66">
    <path d="M 160.472745 228.96 
L 161.740927 228.96 
L 161.740927 167.088678 
L 160.472745 167.088678 
z
" clip-path="url(#p6d0e667b46)" style="fill: #1f77b4"/>
   </g>
   <g id="patch_67">
    <path d="M 162.057973 228.96 
L 163.326154 228.96 
L 163.326154 166.968074 
L 162.057973 166.968074 
z
" clip-path="url(#p6d0e667b46)" style="fill: #1f77b4"/>
   </g>
   <g id="patch_68">
    <path d="M 163.6432 228.96 
L 164.911382 228.96 
L 164.911382 167.751324 
L 163.6432 167.751324 
z
" clip-path="url(#p6d0e667b46)" style="fill: #1f77b4"/>
   </g>
   <g id="patch_69">
    <path d="M 165.228427 228.96 
L 166.496609 228.96 
L 166.496609 169.167407 
L 165.228427 169.167407 
z
" clip-path="url(#p6d0e667b46)" style="fill: #1f77b4"/>
   </g>
   <g id="patch_70">
    <path d="M 166.813654 228.96 
L 168.081836 228.96 
L 168.081836 169.790755 
L 166.813654 169.790755 
z
" clip-path="url(#p6d0e667b46)" style="fill: #1f77b4"/>
   </g>
   <g id="patch_71">
    <path d="M 168.398882 228.96 
L 169.667063 228.96 
L 169.667063 171.269173 
L 168.398882 171.269173 
z
" clip-path="url(#p6d0e667b46)" style="fill: #1f77b4"/>
   </g>
   <g id="patch_72">
    <path d="M 169.984109 228.96 
L 171.252291 228.96 
L 171.252291 172.221811 
L 169.984109 172.221811 
z
" clip-path="url(#p6d0e667b46)" style="fill: #1f77b4"/>
   </g>
   <g id="patch_73">
    <path d="M 171.569336 228.96 
L 172.837518 228.96 
L 172.837518 173.094497 
L 171.569336 173.094497 
z
" clip-path="url(#p6d0e667b46)" style="fill: #1f77b4"/>
   </g>
   <g id="patch_74">
    <path d="M 173.154563 228.96 
L 174.422745 228.96 
L 174.422745 174.30867 
L 173.154563 174.30867 
z
" clip-path="url(#p6d0e667b46)" style="fill: #1f77b4"/>
   </g>
   <g id="patch_75">
    <path d="M 174.739791 228.96 
L 176.007973 228.96 
L 176.007973 175.362941 
L 174.739791 175.362941 
z
" clip-path="url(#p6d0e667b46)" style="fill: #1f77b4"/>
   </g>
   <g id="patch_76">
    <path d="M 176.325018 228.96 
L 177.5932 228.96 
L 177.5932 176.148901 
L 176.325018 176.148901 
z
" clip-path="url(#p6d0e667b46)" style="fill: #1f77b4"/>
   </g>
   <g id="patch_77">
    <path d="M 177.910245 228.96 
L 179.178427 228.96 
L 179.178427 177.827874 
L 177.910245 177.827874 
z
" clip-path="url(#p6d0e667b46)" style="fill: #1f77b4"/>
   </g>
   <g id="patch_78">
    <path d="M 179.495473 228.96 
L 180.763654 228.96 
L 180.763654 179.33746 
L 179.495473 179.33746 
z
" clip-path="url(#p6d0e667b46)" style="fill: #1f77b4"/>
   </g>
   <g id="patch_79">
    <path d="M 181.0807 228.96 
L 182.348882 228.96 
L 182.348882 180.64378 
L 181.0807 180.64378 
z
" clip-path="url(#p6d0e667b46)" style="fill: #1f77b4"/>
   </g>
   <g id="patch_80">
    <path d="M 182.665927 228.96 
L 183.934109 228.96 
L 183.934109 181.525952 
L 182.665927 181.525952 
z
" clip-path="url(#p6d0e667b46)" style="fill: #1f77b4"/>
   </g>
   <g id="patch_81">
    <path d="M 184.251154 228.96 
L 185.519336 228.96 
L 185.519336 182.286165 
L 184.251154 182.286165 
z
" clip-path="url(#p6d0e667b46)" style="fill: #1f77b4"/>
   </g>
   <g id="patch_82">
    <path d="M 185.836382 228.96 
L 187.104563 228.96 
L 187.104563 183.233383 
L 185.836382 183.233383 
z
" clip-path="url(#p6d0e667b46)" style="fill: #1f77b4"/>
   </g>
   <g id="patch_83">
    <path d="M 187.421609 228.96 
L 188.689791 228.96 
L 188.689791 184.714511 
L 187.421609 184.714511 
z
" clip-path="url(#p6d0e667b46)" style="fill: #1f77b4"/>
   </g>
   <g id="patch_84">
    <path d="M 189.006836 228.96 
L 190.275018 228.96 
L 190.275018 185.263328 
L 189.006836 185.263328 
z
" clip-path="url(#p6d0e667b46)" style="fill: #1f77b4"/>
   </g>
   <g id="patch_85">
    <path d="M 190.592063 228.96 
L 191.860245 228.96 
L 191.860245 186.711934 
L 190.592063 186.711934 
z
" clip-path="url(#p6d0e667b46)" style="fill: #1f77b4"/>
   </g>
   <g id="patch_86">
    <path d="M 192.177291 228.96 
L 193.445473 228.96 
L 193.445473 187.545323 
L 192.177291 187.545323 
z
" clip-path="url(#p6d0e667b46)" style="fill: #1f77b4"/>
   </g>
   <g id="patch_87">
    <path d="M 193.762518 228.96 
L 195.0307 228.96 
L 195.0307 188.664638 
L 193.762518 188.664638 
z
" clip-path="url(#p6d0e667b46)" style="fill: #1f77b4"/>
   </g>
   <g id="patch_88">
    <path d="M 195.347745 228.96 
L 196.615927 228.96 
L 196.615927 189.197194 
L 195.347745 189.197194 
z
" clip-path="url(#p6d0e667b46)" style="fill: #1f77b4"/>
   </g>
   <g id="patch_89">
    <path d="M 196.932973 228.96 
L 198.201154 228.96 
L 198.201154 190.069881 
L 196.932973 190.069881 
z
" clip-path="url(#p6d0e667b46)" style="fill: #1f77b4"/>
   </g>
   <g id="patch_90">
    <path d="M 198.5182 228.96 
L 199.786382 228.96 
L 199.786382 191.23527 
L 198.5182 191.23527 
z
" clip-path="url(#p6d0e667b46)" style="fill: #1f77b4"/>
   </g>
   <g id="patch_91">
    <path d="M 200.103427 228.96 
L 201.371609 228.96 
L 201.371609 192.666259 
L 200.103427 192.666259 
z
" clip-path="url(#p6d0e667b46)" style="fill: #1f77b4"/>
   </g>
   <g id="patch_92">
    <path d="M 201.688654 228.96 
L 202.956836 228.96 
L 202.956836 193.689363 
L 201.688654 193.689363 
z
" clip-path="url(#p6d0e667b46)" style="fill: #1f77b4"/>
   </g>
   <g id="patch_93">
    <path d="M 203.273882 228.96 
L 204.542063 228.96 
L 204.542063 195.116287 
L 203.273882 195.116287 
z
" clip-path="url(#p6d0e667b46)" style="fill: #1f77b4"/>
   </g>
   <g id="patch_94">
    <path d="M 204.859109 228.96 
L 206.127291 228.96 
L 206.127291 196.117708 
L 204.859109 196.117708 
z
" clip-path="url(#p6d0e667b46)" style="fill: #1f77b4"/>
   </g>
   <g id="patch_95">
    <path d="M 206.444336 228.96 
L 207.712518 228.96 
L 207.712518 196.978199 
L 206.444336 196.978199 
z
" clip-path="url(#p6d0e667b46)" style="fill: #1f77b4"/>
   </g>
   <g id="patch_96">
    <path d="M 208.029563 228.96 
L 209.297745 228.96 
L 209.297745 197.5094 
L 208.029563 197.5094 
z
" clip-path="url(#p6d0e667b46)" style="fill: #1f77b4"/>
   </g>
   <g id="patch_97">
    <path d="M 209.614791 228.96 
L 210.882973 228.96 
L 210.882973 198.536568 
L 209.614791 198.536568 
z
" clip-path="url(#p6d0e667b46)" style="fill: #1f77b4"/>
   </g>
   <g id="patch_98">
    <path d="M 211.200018 228.96 
L 212.4682 228.96 
L 212.4682 198.88483 
L 211.200018 198.88483 
z
" clip-path="url(#p6d0e667b46)" style="fill: #1f77b4"/>
   </g>
   <g id="patch_99">
    <path d="M 212.785245 228.96 
L 214.053427 228.96 
L 214.053427 199.416031 
L 212.785245 199.416031 
z
" clip-path="url(#p6d0e667b46)" style="fill: #1f77b4"/>
   </g>
   <g id="patch_100">
    <path d="M 214.370473 228.96 
L 215.638654 228.96 
L 215.638654 199.704668 
L 214.370473 199.704668 
z
" clip-path="url(#p6d0e667b46)" style="fill: #1f77b4"/>
   </g>
   <g id="patch_101">
    <path d="M 215.9557 228.96 
L 217.223882 228.96 
L 217.223882 199.882186 
L 215.9557 199.882186 
z
" clip-path="url(#p6d0e667b46)" style="fill: #1f77b4"/>
   </g>
   <g id="patch_102">
    <path d="M 217.540927 228.96 
L 218.809109 228.96 
L 218.809109 200.099003 
L 217.540927 200.099003 
z
" clip-path="url(#p6d0e667b46)" style="fill: #1f77b4"/>
   </g>
   <g id="patch_103">
    <path d="M 219.126154 228.96 
L 220.394336 228.96 
L 220.394336 200.802302 
L 219.126154 200.802302 
z
" clip-path="url(#p6d0e667b46)" style="fill: #1f77b4"/>
   </g>
   <g id="patch_104">
    <path d="M 220.711382 228.96 
L 221.979563 228.96 
L 221.979563 200.771134 
L 220.711382 200.771134 
z
" clip-path="url(#p6d0e667b46)" style="fill: #1f77b4"/>
   </g>
   <g id="patch_105">
    <path d="M 222.296609 228.96 
L 223.564791 228.96 
L 223.564791 201.944654 
L 222.296609 201.944654 
z
" clip-path="url(#p6d0e667b46)" style="fill: #1f77b4"/>
   </g>
   <g id="patch_106">
    <path d="M 223.881836 228.96 
L 225.150018 228.96 
L 225.150018 202.462303 
L 223.881836 202.462303 
z
" clip-path="url(#p6d0e667b46)" style="fill: #1f77b4"/>
   </g>
   <g id="patch_107">
    <path d="M 225.467063 228.96 
L 226.735245 228.96 
L 226.735245 203.226582 
L 225.467063 203.226582 
z
" clip-path="url(#p6d0e667b46)" style="fill: #1f77b4"/>
   </g>
   <g id="patch_108">
    <path d="M 227.052291 228.96 
L 228.320473 228.96 
L 228.320473 204.161603 
L 227.052291 204.161603 
z
" clip-path="url(#p6d0e667b46)" style="fill: #1f77b4"/>
   </g>
   <g id="patch_109">
    <path d="M 228.637518 228.96 
L 229.9057 228.96 
L 229.9057 204.291693 
L 228.637518 204.291693 
z
" clip-path="url(#p6d0e667b46)" style="fill: #1f77b4"/>
   </g>
   <g id="patch_110">
    <path d="M 230.222745 228.96 
L 231.490927 228.96 
L 231.490927 204.25375 
L 230.222745 204.25375 
z
" clip-path="url(#p6d0e667b46)" style="fill: #1f77b4"/>
   </g>
   <g id="patch_111">
    <path d="M 231.807973 228.96 
L 233.076154 228.96 
L 233.076154 204.881163 
L 231.807973 204.881163 
z
" clip-path="url(#p6d0e667b46)" style="fill: #1f77b4"/>
   </g>
   <g id="patch_112">
    <path d="M 233.3932 228.96 
L 234.661382 228.96 
L 234.661382 205.247041 
L 233.3932 205.247041 
z
" clip-path="url(#p6d0e667b46)" style="fill: #1f77b4"/>
   </g>
   <g id="patch_113">
    <path d="M 234.978427 228.96 
L 236.246609 228.96 
L 236.246609 205.641377 
L 234.978427 205.641377 
z
" clip-path="url(#p6d0e667b46)" style="fill: #1f77b4"/>
   </g>
   <g id="patch_114">
    <path d="M 236.563654 228.96 
L 237.831836 228.96 
L 237.831836 205.322927 
L 236.563654 205.322927 
z
" clip-path="url(#p6d0e667b46)" style="fill: #1f77b4"/>
   </g>
   <g id="patch_115">
    <path d="M 238.148882 228.96 
L 239.417063 228.96 
L 239.417063 205.107466 
L 238.148882 205.107466 
z
" clip-path="url(#p6d0e667b46)" style="fill: #1f77b4"/>
   </g>
   <g id="patch_116">
    <path d="M 239.734109 228.96 
L 241.002291 228.96 
L 241.002291 204.997702 
L 239.734109 204.997702 
z
" clip-path="url(#p6d0e667b46)" style="fill: #1f77b4"/>
   </g>
   <g id="patch_117">
    <path d="M 241.319336 228.96 
L 242.587518 228.96 
L 242.587518 204.722616 
L 241.319336 204.722616 
z
" clip-path="url(#p6d0e667b46)" style="fill: #1f77b4"/>
   </g>
   <g id="patch_118">
    <path d="M 242.904563 228.96 
L 244.172745 228.96 
L 244.172745 203.46237 
L 242.904563 203.46237 
z
" clip-path="url(#p6d0e667b46)" style="fill: #1f77b4"/>
   </g>
   <g id="patch_119">
    <path d="M 244.489791 228.96 
L 245.757973 228.96 
L 245.757973 201.936523 
L 244.489791 201.936523 
z
" clip-path="url(#p6d0e667b46)" style="fill: #1f77b4"/>
   </g>
   <g id="patch_120">
    <path d="M 246.075018 228.96 
L 247.3432 228.96 
L 247.3432 200.378154 
L 246.075018 200.378154 
z
" clip-path="url(#p6d0e667b46)" style="fill: #1f77b4"/>
   </g>
   <g id="patch_121">
    <path d="M 247.660245 228.96 
L 248.928427 228.96 
L 248.928427 199.124683 
L 247.660245 199.124683 
z
" clip-path="url(#p6d0e667b46)" style="fill: #1f77b4"/>
   </g>
   <g id="patch_122">
    <path d="M 249.245473 228.96 
L 250.513654 228.96 
L 250.513654 197.37931 
L 249.245473 197.37931 
z
" clip-path="url(#p6d0e667b46)" style="fill: #1f77b4"/>
   </g>
   <g id="patch_123">
    <path d="M 250.8307 228.96 
L 252.098882 228.96 
L 252.098882 196.108223 
L 250.8307 196.108223 
z
" clip-path="url(#p6d0e667b46)" style="fill: #1f77b4"/>
   </g>
   <g id="patch_124">
    <path d="M 252.415927 228.96 
L 253.684109 228.96 
L 253.684109 194.269347 
L 252.415927 194.269347 
z
" clip-path="url(#p6d0e667b46)" style="fill: #1f77b4"/>
   </g>
   <g id="patch_125">
    <path d="M 254.001154 228.96 
L 255.269336 228.96 
L 255.269336 193.055174 
L 254.001154 193.055174 
z
" clip-path="url(#p6d0e667b46)" style="fill: #1f77b4"/>
   </g>
   <g id="patch_126">
    <path d="M 255.586382 228.96 
L 256.854563 228.96 
L 256.854563 191.602503 
L 255.586382 191.602503 
z
" clip-path="url(#p6d0e667b46)" style="fill: #1f77b4"/>
   </g>
   <g id="patch_127">
    <path d="M 257.171609 228.96 
L 258.439791 228.96 
L 258.439791 189.633537 
L 257.171609 189.633537 
z
" clip-path="url(#p6d0e667b46)" style="fill: #1f77b4"/>
   </g>
   <g id="patch_128">
    <path d="M 258.756836 228.96 
L 260.025018 228.96 
L 260.025018 188.319087 
L 258.756836 188.319087 
z
" clip-path="url(#p6d0e667b46)" style="fill: #1f77b4"/>
   </g>
   <g id="patch_129">
    <path d="M 260.342063 228.96 
L 261.610245 228.96 
L 261.610245 187.233649 
L 260.342063 187.233649 
z
" clip-path="url(#p6d0e667b46)" style="fill: #1f77b4"/>
   </g>
   <g id="patch_130">
    <path d="M 261.927291 228.96 
L 263.195473 228.96 
L 263.195473 186.850154 
L 261.927291 186.850154 
z
" clip-path="url(#p6d0e667b46)" style="fill: #1f77b4"/>
   </g>
   <g id="patch_131">
    <path d="M 263.512518 228.96 
L 264.7807 228.96 
L 264.7807 188.503381 
L 263.512518 188.503381 
z
" clip-path="url(#p6d0e667b46)" style="fill: #1f77b4"/>
   </g>
   <g id="patch_132">
    <path d="M 265.097745 228.96 
L 266.365927 228.96 
L 266.365927 187.70387 
L 265.097745 187.70387 
z
" clip-path="url(#p6d0e667b46)" style="fill: #1f77b4"/>
   </g>
   <g id="patch_133">
    <path d="M 266.682973 228.96 
L 267.951154 228.96 
L 267.951154 186.295917 
L 266.682973 186.295917 
z
" clip-path="url(#p6d0e667b46)" style="fill: #1f77b4"/>
   </g>
   <g id="patch_134">
    <path d="M 268.2682 228.96 
L 269.536382 228.96 
L 269.536382 184.359474 
L 268.2682 184.359474 
z
" clip-path="url(#p6d0e667b46)" style="fill: #1f77b4"/>
   </g>
   <g id="patch_135">
    <path d="M 269.853427 228.96 
L 271.121609 228.96 
L 271.121609 181.803749 
L 269.853427 181.803749 
z
" clip-path="url(#p6d0e667b46)" style="fill: #1f77b4"/>
   </g>
   <g id="patch_136">
    <path d="M 271.438654 228.96 
L 272.706836 228.96 
L 272.706836 180.047534 
L 271.438654 180.047534 
z
" clip-path="url(#p6d0e667b46)" style="fill: #1f77b4"/>
   </g>
   <g id="patch_137">
    <path d="M 273.023882 228.96 
L 274.292063 228.96 
L 274.292063 178.178846 
L 273.023882 178.178846 
z
" clip-path="url(#p6d0e667b46)" style="fill: #1f77b4"/>
   </g>
   <g id="patch_138">
    <path d="M 274.609109 228.96 
L 275.877291 228.96 
L 275.877291 173.845225 
L 274.609109 173.845225 
z
" clip-path="url(#p6d0e667b46)" style="fill: #1f77b4"/>
   </g>
   <g id="patch_139">
    <path d="M 276.194336 228.96 
L 277.462518 228.96 
L 277.462518 170.18238 
L 276.194336 170.18238 
z
" clip-path="url(#p6d0e667b46)" style="fill: #1f77b4"/>
   </g>
   <g id="patch_140">
    <path d="M 277.779563 228.96 
L 279.047745 228.96 
L 279.047745 166.572384 
L 277.779563 166.572384 
z
" clip-path="url(#p6d0e667b46)" style="fill: #1f77b4"/>
   </g>
   <g id="patch_141">
    <path d="M 279.364791 228.96 
L 280.632973 228.96 
L 280.632973 164.198242 
L 279.364791 164.198242 
z
" clip-path="url(#p6d0e667b46)" style="fill: #1f77b4"/>
   </g>
   <g id="patch_142">
    <path d="M 280.950018 228.96 
L 282.2182 228.96 
L 282.2182 161.786158 
L 280.950018 161.786158 
z
" clip-path="url(#p6d0e667b46)" style="fill: #1f77b4"/>
   </g>
   <g id="patch_143">
    <path d="M 282.535245 228.96 
L 283.803427 228.96 
L 283.803427 159.418792 
L 282.535245 159.418792 
z
" clip-path="url(#p6d0e667b46)" style="fill: #1f77b4"/>
   </g>
   <g id="patch_144">
    <path d="M 284.120473 228.96 
L 285.388654 228.96 
L 285.388654 158.135508 
L 284.120473 158.135508 
z
" clip-path="url(#p6d0e667b46)" style="fill: #1f77b4"/>
   </g>
   <g id="patch_145">
    <path d="M 285.7057 228.96 
L 286.973882 228.96 
L 286.973882 155.877906 
L 285.7057 155.877906 
z
" clip-path="url(#p6d0e667b46)" style="fill: #1f77b4"/>
   </g>
   <g id="patch_146">
    <path d="M 287.290927 228.96 
L 288.559109 228.96 
L 288.559109 152.786914 
L 287.290927 152.786914 
z
" clip-path="url(#p6d0e667b46)" style="fill: #1f77b4"/>
   </g>
   <g id="patch_147">
    <path d="M 288.876154 228.96 
L 290.144336 228.96 
L 290.144336 149.983205 
L 288.876154 149.983205 
z
" clip-path="url(#p6d0e667b46)" style="fill: #1f77b4"/>
   </g>
   <g id="patch_148">
    <path d="M 290.461382 228.96 
L 291.729563 228.96 
L 291.729563 147.235055 
L 290.461382 147.235055 
z
" clip-path="url(#p6d0e667b46)" style="fill: #1f77b4"/>
   </g>
   <g id="patch_149">
    <path d="M 292.046609 228.96 
L 293.314791 228.96 
L 293.314791 143.154838 
L 292.046609 143.154838 
z
" clip-path="url(#p6d0e667b46)" style="fill: #1f77b4"/>
   </g>
   <g id="patch_150">
    <path d="M 293.631836 228.96 
L 294.900018 228.96 
L 294.900018 140.254916 
L 293.631836 140.254916 
z
" clip-path="url(#p6d0e667b46)" style="fill: #1f77b4"/>
   </g>
   <g id="patch_151">
    <path d="M 295.217063 228.96 
L 296.485245 228.96 
L 296.485245 138.547485 
L 295.217063 138.547485 
z
" clip-path="url(#p6d0e667b46)" style="fill: #1f77b4"/>
   </g>
   <g id="patch_152">
    <path d="M 296.802291 228.96 
L 298.070473 228.96 
L 298.070473 135.364347 
L 296.802291 135.364347 
z
" clip-path="url(#p6d0e667b46)" style="fill: #1f77b4"/>
   </g>
   <g id="patch_153">
    <path d="M 298.387518 228.96 
L 299.6557 228.96 
L 299.6557 132.280131 
L 298.387518 132.280131 
z
" clip-path="url(#p6d0e667b46)" style="fill: #1f77b4"/>
   </g>
   <g id="patch_154">
    <path d="M 299.972745 228.96 
L 301.240927 228.96 
L 301.240927 128.044077 
L 299.972745 128.044077 
z
" clip-path="url(#p6d0e667b46)" style="fill: #1f77b4"/>
   </g>
   <g id="patch_155">
    <path d="M 301.557973 228.96 
L 302.826154 228.96 
L 302.826154 123.786341 
L 301.557973 123.786341 
z
" clip-path="url(#p6d0e667b46)" style="fill: #1f77b4"/>
   </g>
   <g id="patch_156">
    <path d="M 303.1432 228.96 
L 304.411382 228.96 
L 304.411382 121.994894 
L 303.1432 121.994894 
z
" clip-path="url(#p6d0e667b46)" style="fill: #1f77b4"/>
   </g>
   <g id="patch_157">
    <path d="M 304.728427 228.96 
L 305.996609 228.96 
L 305.996609 117.627395 
L 304.728427 117.627395 
z
" clip-path="url(#p6d0e667b46)" style="fill: #1f77b4"/>
   </g>
   <g id="patch_158">
    <path d="M 306.313654 228.96 
L 307.581836 228.96 
L 307.581836 115.498528 
L 306.313654 115.498528 
z
" clip-path="url(#p6d0e667b46)" style="fill: #1f77b4"/>
   </g>
   <g id="patch_159">
    <path d="M 307.898882 228.96 
L 309.167063 228.96 
L 309.167063 111.816711 
L 307.898882 111.816711 
z
" clip-path="url(#p6d0e667b46)" style="fill: #1f77b4"/>
   </g>
   <g id="patch_160">
    <path d="M 309.484109 228.96 
L 310.752291 228.96 
L 310.752291 108.243303 
L 309.484109 108.243303 
z
" clip-path="url(#p6d0e667b46)" style="fill: #1f77b4"/>
   </g>
   <g id="patch_161">
    <path d="M 311.069336 228.96 
L 312.337518 228.96 
L 312.337518 104.121077 
L 311.069336 104.121077 
z
" clip-path="url(#p6d0e667b46)" style="fill: #1f77b4"/>
   </g>
   <g id="patch_162">
    <path d="M 312.654563 228.96 
L 313.922745 228.96 
L 313.922745 99.589611 
L 312.654563 99.589611 
z
" clip-path="url(#p6d0e667b46)" style="fill: #1f77b4"/>
   </g>
   <g id="patch_163">
    <path d="M 314.239791 228.96 
L 315.507973 228.96 
L 315.507973 94.501197 
L 314.239791 94.501197 
z
" clip-path="url(#p6d0e667b46)" style="fill: #1f77b4"/>
   </g>
   <g id="patch_164">
    <path d="M 315.825018 228.96 
L 317.0932 228.96 
L 317.0932 91.670385 
L 315.825018 91.670385 
z
" clip-path="url(#p6d0e667b46)" style="fill: #1f77b4"/>
   </g>
   <g id="patch_165">
    <path d="M 317.410245 228.96 
L 318.678427 228.96 
L 318.678427 89.599787 
L 317.410245 89.599787 
z
" clip-path="url(#p6d0e667b46)" style="fill: #1f77b4"/>
   </g>
   <g id="patch_166">
    <path d="M 318.995473 228.96 
L 320.263654 228.96 
L 320.263654 85.545317 
L 318.995473 85.545317 
z
" clip-path="url(#p6d0e667b46)" style="fill: #1f77b4"/>
   </g>
   <g id="patch_167">
    <path d="M 320.5807 228.96 
L 321.848882 228.96 
L 321.848882 81.650749 
L 320.5807 81.650749 
z
" clip-path="url(#p6d0e667b46)" style="fill: #1f77b4"/>
   </g>
   <g id="patch_168">
    <path d="M 322.165927 228.96 
L 323.434109 228.96 
L 323.434109 87.449237 
L 322.165927 87.449237 
z
" clip-path="url(#p6d0e667b46)" style="fill: #1f77b4"/>
   </g>
   <g id="patch_169">
    <path d="M 323.751154 228.96 
L 325.019336 228.96 
L 325.019336 82.751093 
L 323.751154 82.751093 
z
" clip-path="url(#p6d0e667b46)" style="fill: #1f77b4"/>
   </g>
   <g id="patch_170">
    <path d="M 325.336382 228.96 
L 326.604563 228.96 
L 326.604563 76.775086 
L 325.336382 76.775086 
z
" clip-path="url(#p6d0e667b46)" style="fill: #1f77b4"/>
   </g>
   <g id="patch_171">
    <path d="M 326.921609 228.96 
L 328.189791 228.96 
L 328.189791 71.091781 
L 326.921609 71.091781 
z
" clip-path="url(#p6d0e667b46)" style="fill: #1f77b4"/>
   </g>
   <g id="patch_172">
    <path d="M 328.506836 228.96 
L 329.775018 228.96 
L 329.775018 66.743254 
L 328.506836 66.743254 
z
" clip-path="url(#p6d0e667b46)" style="fill: #1f77b4"/>
   </g>
   <g id="patch_173">
    <path d="M 330.092063 228.96 
L 331.360245 228.96 
L 331.360245 60.074789 
L 330.092063 60.074789 
z
" clip-path="url(#p6d0e667b46)" style="fill: #1f77b4"/>
   </g>
   <g id="patch_174">
    <path d="M 331.677291 228.96 
L 332.945473 228.96 
L 332.945473 52.979466 
L 331.677291 52.979466 
z
" clip-path="url(#p6d0e667b46)" style="fill: #1f77b4"/>
   </g>
   <g id="patch_175">
    <path d="M 333.262518 228.96 
L 334.5307 228.96 
L 334.5307 34.574449 
L 333.262518 34.574449 
z
" clip-path="url(#p6d0e667b46)" style="fill: #1f77b4"/>
   </g>
   <g id="patch_176">
    <path d="M 334.847745 228.96 
L 336.115927 228.96 
L 336.115927 23.55068 
L 334.847745 23.55068 
z
" clip-path="url(#p6d0e667b46)" style="fill: #1f77b4"/>
   </g>
   <g id="patch_177">
    <path d="M 336.432973 228.96 
L 337.701154 228.96 
L 337.701154 14.035143 
L 336.432973 14.035143 
z
" clip-path="url(#p6d0e667b46)" style="fill: #1f77b4"/>
   </g>
   <g id="patch_178">
    <path d="M 338.0182 228.96 
L 339.286382 228.96 
L 339.286382 7.2 
L 338.0182 7.2 
z
" clip-path="url(#p6d0e667b46)" style="fill: #1f77b4"/>
   </g>
   <g id="matplotlib.axis_1">
    <g id="xtick_1">
     <g id="line2d_1">
      <defs>
       <path id="m5317c667b1" d="M 0 0 
L 0 3.5 
" style="stroke: #000000; stroke-width: 0.8"/>
      </defs>
      <g>
       <use xlink:href="#m5317c667b1" x="67.578427" y="228.96" style="stroke: #000000; stroke-width: 0.8"/>
      </g>
     </g>
     <g id="text_1">
      <!-- $\mathdefault{2021{-}07}$ -->
      <g transform="translate(69.73784 274.166609)rotate(-90)scale(0.1 -0.1)">
       <defs>
        <path id="URWPalladioL-Roma-32" d="M 102 160 
L 102 0 
C 1299 0 1299 0 1530 0 
C 1760 0 1760 0 2995 0 
C 2982 125 2982 186 2982 269 
C 2982 348 2982 407 2995 539 
C 2259 539 1965 539 781 539 
L 1946 1761 
C 2566 2414 2758 2763 2758 3238 
C 2758 3966 2259 4416 1446 4416 
C 986 4416 672 4288 358 3969 
L 250 3099 
L 435 3099 
L 518 3393 
C 621 3763 851 3923 1280 3923 
C 1830 3923 2182 3577 2182 3035 
C 2182 2555 1914 2083 1190 1316 
L 102 160 
z
" transform="scale(0.015625)"/>
        <path id="URWPalladioL-Roma-30" d="M 1683 4416 
C 691 4416 186 3628 186 2077 
C 186 1326 320 680 544 366 
C 768 51 1126 -128 1523 -128 
C 2490 -128 2976 705 2976 2346 
C 2976 3749 2560 4416 1683 4416 
z
M 1568 4192 
C 2189 4192 2438 3564 2438 2025 
C 2438 661 2195 96 1606 96 
C 986 96 723 744 723 2308 
C 723 3660 960 4192 1568 4192 
z
" transform="scale(0.015625)"/>
        <path id="URWPalladioL-Roma-31" d="M 429 3584 
L 493 3584 
L 1318 3956 
C 1325 3962 1331 3962 1338 3962 
C 1376 3962 1389 3905 1389 3751 
L 1389 613 
C 1389 276 1318 205 973 205 
L 614 205 
L 614 0 
C 1600 0 1600 0 1670 0 
C 1754 0 1894 0 2112 0 
C 2189 0 2413 0 2675 0 
L 2675 205 
L 2342 205 
C 1990 205 1926 276 1926 612 
L 1926 4443 
L 1837 4475 
C 1421 4257 966 4065 384 3860 
L 429 3584 
z
" transform="scale(0.015625)"/>
        <path id="CMSY10-0" d="M 4218 1472 
C 4326 1472 4442 1472 4442 1600 
C 4442 1728 4326 1728 4218 1728 
L 755 1728 
C 646 1728 531 1728 531 1600 
C 531 1472 646 1472 755 1472 
L 4218 1472 
z
" transform="scale(0.015625)"/>
        <path id="URWPalladioL-Roma-37" d="M 358 32 
L 416 -51 
C 666 -32 666 -32 710 -32 
C 755 -32 755 -32 1005 -51 
C 1274 649 1587 1317 2010 2087 
L 3181 4199 
L 3181 4372 
C 2490 4372 2266 4372 1747 4372 
C 1280 4372 966 4372 346 4372 
L 282 4359 
C 301 3750 301 3750 301 3685 
C 301 3614 301 3614 282 3031 
L 474 3031 
L 518 3390 
C 570 3789 614 3840 909 3840 
L 2618 3840 
C 2362 3313 2163 2941 1920 2549 
L 358 32 
z
" transform="scale(0.015625)"/>
       </defs>
       <use xlink:href="#URWPalladioL-Roma-32" transform="scale(0.996264)"/>
       <use xlink:href="#URWPalladioL-Roma-30" transform="translate(49.8132 0)scale(0.996264)"/>
       <use xlink:href="#URWPalladioL-Roma-32" transform="translate(99.626401 0)scale(0.996264)"/>
       <use xlink:href="#URWPalladioL-Roma-31" transform="translate(149.439601 0)scale(0.996264)"/>
       <use xlink:href="#CMSY10-0" transform="translate(200.498102 0)scale(1.038107)"/>
       <use xlink:href="#URWPalladioL-Roma-30" transform="translate(282.439798 0)scale(0.996264)"/>
       <use xlink:href="#URWPalladioL-Roma-37" transform="translate(332.252998 0)scale(0.996264)"/>
      </g>
     </g>
    </g>
    <g id="xtick_2">
     <g id="line2d_2">
      <g>
       <use xlink:href="#m5317c667b1" x="116.720473" y="228.96" style="stroke: #000000; stroke-width: 0.8"/>
      </g>
     </g>
     <g id="text_2">
      <!-- $\mathdefault{2021{-}08}$ -->
      <g transform="translate(118.879886 274.166609)rotate(-90)scale(0.1 -0.1)">
       <defs>
        <path id="URWPalladioL-Roma-38" d="M 1075 2211 
C 813 2090 704 2019 563 1884 
C 320 1641 192 1352 192 1019 
C 192 359 723 -128 1446 -128 
C 2278 -128 2970 526 2970 1320 
C 2970 1833 2733 2109 2003 2442 
C 2586 2840 2790 3109 2790 3493 
C 2790 4044 2336 4416 1658 4416 
C 896 4416 339 3929 339 3257 
C 339 2821 512 2577 1075 2211 
z
M 1818 1891 
C 2221 1711 2464 1397 2464 1052 
C 2464 513 2061 90 1542 90 
C 998 90 646 475 646 1071 
C 646 1538 832 1833 1306 2122 
L 1818 1891 
z
M 1427 2712 
C 1024 2910 819 3167 819 3487 
C 819 3910 1126 4198 1581 4198 
C 2048 4198 2355 3891 2355 3422 
C 2355 3058 2195 2808 1779 2538 
L 1427 2712 
z
" transform="scale(0.015625)"/>
       </defs>
       <use xlink:href="#URWPalladioL-Roma-32" transform="scale(0.996264)"/>
       <use xlink:href="#URWPalladioL-Roma-30" transform="translate(49.8132 0)scale(0.996264)"/>
       <use xlink:href="#URWPalladioL-Roma-32" transform="translate(99.626401 0)scale(0.996264)"/>
       <use xlink:href="#URWPalladioL-Roma-31" transform="translate(149.439601 0)scale(0.996264)"/>
       <use xlink:href="#CMSY10-0" transform="translate(200.498102 0)scale(1.038107)"/>
       <use xlink:href="#URWPalladioL-Roma-30" transform="translate(282.439798 0)scale(0.996264)"/>
       <use xlink:href="#URWPalladioL-Roma-38" transform="translate(332.252998 0)scale(0.996264)"/>
      </g>
     </g>
    </g>
    <g id="xtick_3">
     <g id="line2d_3">
      <g>
       <use xlink:href="#m5317c667b1" x="165.862518" y="228.96" style="stroke: #000000; stroke-width: 0.8"/>
      </g>
     </g>
     <g id="text_3">
      <!-- $\mathdefault{2021{-}09}$ -->
      <g transform="translate(168.021931 274.166609)rotate(-90)scale(0.1 -0.1)">
       <defs>
        <path id="URWPalladioL-Roma-39" d="M 614 -106 
C 1325 125 1632 272 1978 566 
C 2598 1098 2925 1835 2925 2693 
C 2925 3776 2406 4435 1562 4435 
C 742 4435 128 3795 128 2938 
C 128 2201 608 1664 1274 1664 
C 1491 1664 1741 1734 1856 1830 
L 2304 2202 
C 2253 1125 1555 336 397 54 
L 397 3 
L 614 -106 
z
M 1536 4224 
C 1824 4224 2035 4102 2176 3846 
C 2291 3641 2368 3328 2368 3040 
C 2368 2451 2029 2055 1536 2055 
C 1024 2055 678 2509 678 3174 
C 678 3821 1011 4224 1536 4224 
z
" transform="scale(0.015625)"/>
       </defs>
       <use xlink:href="#URWPalladioL-Roma-32" transform="scale(0.996264)"/>
       <use xlink:href="#URWPalladioL-Roma-30" transform="translate(49.8132 0)scale(0.996264)"/>
       <use xlink:href="#URWPalladioL-Roma-32" transform="translate(99.626401 0)scale(0.996264)"/>
       <use xlink:href="#URWPalladioL-Roma-31" transform="translate(149.439601 0)scale(0.996264)"/>
       <use xlink:href="#CMSY10-0" transform="translate(200.498102 0)scale(1.038107)"/>
       <use xlink:href="#URWPalladioL-Roma-30" transform="translate(282.439798 0)scale(0.996264)"/>
       <use xlink:href="#URWPalladioL-Roma-39" transform="translate(332.252998 0)scale(0.996264)"/>
      </g>
     </g>
    </g>
    <g id="xtick_4">
     <g id="line2d_4">
      <g>
       <use xlink:href="#m5317c667b1" x="213.419336" y="228.96" style="stroke: #000000; stroke-width: 0.8"/>
      </g>
     </g>
     <g id="text_4">
      <!-- $\mathdefault{2021{-}10}$ -->
      <g transform="translate(215.578749 274.166609)rotate(-90)scale(0.1 -0.1)">
       <use xlink:href="#URWPalladioL-Roma-32" transform="scale(0.996264)"/>
       <use xlink:href="#URWPalladioL-Roma-30" transform="translate(49.8132 0)scale(0.996264)"/>
       <use xlink:href="#URWPalladioL-Roma-32" transform="translate(99.626401 0)scale(0.996264)"/>
       <use xlink:href="#URWPalladioL-Roma-31" transform="translate(149.439601 0)scale(0.996264)"/>
       <use xlink:href="#CMSY10-0" transform="translate(200.498102 0)scale(1.038107)"/>
       <use xlink:href="#URWPalladioL-Roma-31" transform="translate(282.439798 0)scale(0.996264)"/>
       <use xlink:href="#URWPalladioL-Roma-30" transform="translate(332.252998 0)scale(0.996264)"/>
      </g>
     </g>
    </g>
    <g id="xtick_5">
     <g id="line2d_5">
      <g>
       <use xlink:href="#m5317c667b1" x="262.561382" y="228.96" style="stroke: #000000; stroke-width: 0.8"/>
      </g>
     </g>
     <g id="text_5">
      <!-- $\mathdefault{2021{-}11}$ -->
      <g transform="translate(264.720795 274.166609)rotate(-90)scale(0.1 -0.1)">
       <use xlink:href="#URWPalladioL-Roma-32" transform="scale(0.996264)"/>
       <use xlink:href="#URWPalladioL-Roma-30" transform="translate(49.8132 0)scale(0.996264)"/>
       <use xlink:href="#URWPalladioL-Roma-32" transform="translate(99.626401 0)scale(0.996264)"/>
       <use xlink:href="#URWPalladioL-Roma-31" transform="translate(149.439601 0)scale(0.996264)"/>
       <use xlink:href="#CMSY10-0" transform="translate(200.498102 0)scale(1.038107)"/>
       <use xlink:href="#URWPalladioL-Roma-31" transform="translate(282.439798 0)scale(0.996264)"/>
       <use xlink:href="#URWPalladioL-Roma-31" transform="translate(332.252998 0)scale(0.996264)"/>
      </g>
     </g>
    </g>
    <g id="xtick_6">
     <g id="line2d_6">
      <g>
       <use xlink:href="#m5317c667b1" x="310.1182" y="228.96" style="stroke: #000000; stroke-width: 0.8"/>
      </g>
     </g>
     <g id="text_6">
      <!-- $\mathdefault{2021{-}12}$ -->
      <g transform="translate(312.277613 274.166609)rotate(-90)scale(0.1 -0.1)">
       <use xlink:href="#URWPalladioL-Roma-32" transform="scale(0.996264)"/>
       <use xlink:href="#URWPalladioL-Roma-30" transform="translate(49.8132 0)scale(0.996264)"/>
       <use xlink:href="#URWPalladioL-Roma-32" transform="translate(99.626401 0)scale(0.996264)"/>
       <use xlink:href="#URWPalladioL-Roma-31" transform="translate(149.439601 0)scale(0.996264)"/>
       <use xlink:href="#CMSY10-0" transform="translate(200.498102 0)scale(1.038107)"/>
       <use xlink:href="#URWPalladioL-Roma-31" transform="translate(282.439798 0)scale(0.996264)"/>
       <use xlink:href="#URWPalladioL-Roma-32" transform="translate(332.252998 0)scale(0.996264)"/>
      </g>
     </g>
    </g>
   </g>
   <g id="matplotlib.axis_2">
    <g id="ytick_1">
     <g id="line2d_7">
      <defs>
       <path id="mb05d294e01" d="M 0 0 
L -3.5 0 
" style="stroke: #000000; stroke-width: 0.8"/>
      </defs>
      <g>
       <use xlink:href="#mb05d294e01" x="60.444904" y="228.96" style="stroke: #000000; stroke-width: 0.8"/>
      </g>
     </g>
     <g id="text_7">
      <!-- $\mathdefault{0}$ -->
      <g transform="translate(48.463584 232.524119)scale(0.1 -0.1)">
       <use xlink:href="#URWPalladioL-Roma-30" transform="scale(0.996264)"/>
      </g>
     </g>
    </g>
    <g id="ytick_2">
     <g id="line2d_8">
      <g>
       <use xlink:href="#mb05d294e01" x="60.444904" y="188.062972" style="stroke: #000000; stroke-width: 0.8"/>
      </g>
     </g>
     <g id="text_8">
      <!-- $\mathdefault{50}$ -->
      <g transform="translate(43.482264 191.627091)scale(0.1 -0.1)">
       <defs>
        <path id="URWPalladioL-Roma-35" d="M 813 3877 
C 1638 3877 1997 3877 2765 3877 
L 2797 3907 
C 2784 4016 2784 4064 2784 4144 
C 2784 4229 2784 4277 2797 4386 
L 2765 4416 
C 2285 4416 1997 4416 1651 4416 
C 1299 4416 1018 4416 538 4416 
L 506 4403 
C 512 4011 518 3729 518 3523 
C 518 2977 499 2360 480 2077 
L 608 2038 
C 909 2341 1082 2432 1395 2432 
C 2010 2432 2394 1993 2394 1296 
C 2394 580 1984 160 1286 160 
C 941 160 621 277 531 444 
L 237 973 
L 83 883 
C 230 516 307 310 397 27 
C 576 -71 832 -128 1107 -128 
C 1536 -128 1990 59 2342 368 
C 2733 716 2938 1154 2938 1630 
C 2938 2359 2419 2874 1690 2874 
C 1382 2874 1152 2791 755 2554 
L 813 3877 
z
" transform="scale(0.015625)"/>
       </defs>
       <use xlink:href="#URWPalladioL-Roma-35" transform="scale(0.996264)"/>
       <use xlink:href="#URWPalladioL-Roma-30" transform="translate(49.8132 0)scale(0.996264)"/>
      </g>
     </g>
    </g>
    <g id="ytick_3">
     <g id="line2d_9">
      <g>
       <use xlink:href="#mb05d294e01" x="60.444904" y="147.165944" style="stroke: #000000; stroke-width: 0.8"/>
      </g>
     </g>
     <g id="text_9">
      <!-- $\mathdefault{100}$ -->
      <g transform="translate(38.500944 150.730063)scale(0.1 -0.1)">
       <use xlink:href="#URWPalladioL-Roma-31" transform="scale(0.996264)"/>
       <use xlink:href="#URWPalladioL-Roma-30" transform="translate(49.8132 0)scale(0.996264)"/>
       <use xlink:href="#URWPalladioL-Roma-30" transform="translate(99.626401 0)scale(0.996264)"/>
      </g>
     </g>
    </g>
    <g id="ytick_4">
     <g id="line2d_10">
      <g>
       <use xlink:href="#mb05d294e01" x="60.444904" y="106.268917" style="stroke: #000000; stroke-width: 0.8"/>
      </g>
     </g>
     <g id="text_10">
      <!-- $\mathdefault{150}$ -->
      <g transform="translate(38.500944 109.833035)scale(0.1 -0.1)">
       <use xlink:href="#URWPalladioL-Roma-31" transform="scale(0.996264)"/>
       <use xlink:href="#URWPalladioL-Roma-35" transform="translate(49.8132 0)scale(0.996264)"/>
       <use xlink:href="#URWPalladioL-Roma-30" transform="translate(99.626401 0)scale(0.996264)"/>
      </g>
     </g>
    </g>
    <g id="ytick_5">
     <g id="line2d_11">
      <g>
       <use xlink:href="#mb05d294e01" x="60.444904" y="65.371889" style="stroke: #000000; stroke-width: 0.8"/>
      </g>
     </g>
     <g id="text_11">
      <!-- $\mathdefault{200}$ -->
      <g transform="translate(38.500944 68.936008)scale(0.1 -0.1)">
       <use xlink:href="#URWPalladioL-Roma-32" transform="scale(0.996264)"/>
       <use xlink:href="#URWPalladioL-Roma-30" transform="translate(49.8132 0)scale(0.996264)"/>
       <use xlink:href="#URWPalladioL-Roma-30" transform="translate(99.626401 0)scale(0.996264)"/>
      </g>
     </g>
    </g>
    <g id="ytick_6">
     <g id="line2d_12">
      <g>
       <use xlink:href="#mb05d294e01" x="60.444904" y="24.474861" style="stroke: #000000; stroke-width: 0.8"/>
      </g>
     </g>
     <g id="text_12">
      <!-- $\mathdefault{250}$ -->
      <g transform="translate(38.500944 28.03898)scale(0.1 -0.1)">
       <use xlink:href="#URWPalladioL-Roma-32" transform="scale(0.996264)"/>
       <use xlink:href="#URWPalladioL-Roma-35" transform="translate(49.8132 0)scale(0.996264)"/>
       <use xlink:href="#URWPalladioL-Roma-30" transform="translate(99.626401 0)scale(0.996264)"/>
      </g>
     </g>
    </g>
    <g id="text_13">
     <!-- case incidence (WHO) -->
     <g transform="translate(14.328237 167.065836)rotate(-90)scale(0.1 -0.1)">
      <defs>
       <path id="URWPalladioL-Roma-63" d="M 2554 1994 
C 2554 2289 2586 2552 2643 2783 
C 2387 2937 2163 3008 1901 3008 
C 1594 3008 1235 2886 851 2642 
C 403 2360 166 1911 166 1347 
C 166 481 774 -128 1632 -128 
C 1965 -128 2445 -6 2509 90 
L 2643 295 
L 2579 391 
C 2342 263 2138 205 1907 205 
C 1197 205 730 757 730 1603 
C 730 2289 1050 2674 1626 2674 
C 1907 2674 2214 2546 2330 2386 
L 2374 1994 
L 2554 1994 
z
" transform="scale(0.015625)"/>
       <path id="URWPalladioL-Roma-61" d="M 2074 538 
L 2042 -1 
C 2458 -1 2458 -1 2541 -1 
C 2573 -1 2733 -1 3014 -1 
L 3014 192 
L 2765 192 
C 2611 192 2586 244 2586 558 
L 2586 1731 
C 2586 2668 2317 3008 1574 3008 
C 1299 3008 1043 2937 800 2791 
L 461 2585 
L 461 2171 
L 627 2126 
L 710 2323 
C 845 2623 909 2668 1203 2668 
C 1805 2668 2054 2431 2074 1852 
L 1440 1736 
C 570 1577 205 1277 205 722 
C 205 224 506 -64 1011 -64 
C 1126 -64 1235 -45 1280 -13 
L 2074 538 
z
M 2074 806 
C 1888 544 1485 302 1235 302 
C 979 302 755 538 755 812 
C 755 1048 883 1271 1075 1392 
C 1235 1488 1587 1577 2074 1648 
L 2074 806 
z
" transform="scale(0.015625)"/>
       <path id="URWPalladioL-Roma-73" d="M 262 917 
C 262 475 243 282 192 26 
C 525 -83 774 -128 1069 -128 
C 1907 -128 2502 321 2502 949 
C 2502 1148 2445 1295 2323 1424 
C 2157 1584 1946 1661 1382 1770 
C 858 1873 685 2001 685 2296 
C 685 2616 909 2796 1299 2796 
C 1728 2796 2054 2572 2054 2270 
L 2054 2123 
L 2234 2123 
C 2240 2495 2246 2648 2266 2847 
C 1926 2963 1696 3008 1434 3008 
C 691 3008 237 2655 237 2078 
C 237 1770 378 1552 672 1417 
C 845 1340 1184 1238 1619 1141 
C 1907 1077 2029 943 2029 699 
C 2029 353 1709 109 1254 109 
C 787 109 454 333 454 654 
L 454 917 
L 262 917 
z
" transform="scale(0.015625)"/>
       <path id="URWPalladioL-Roma-65" d="M 2797 447 
L 2714 511 
C 2304 269 2157 212 1882 212 
C 1466 212 1120 398 941 711 
C 819 921 774 1101 762 1472 
L 1696 1472 
C 2138 1472 2413 1472 2854 1544 
C 2861 1634 2867 1693 2867 1771 
C 2867 2520 2394 3008 1677 3008 
C 1440 3008 1165 2924 902 2770 
C 378 2469 166 2071 166 1404 
C 166 1000 262 654 435 410 
C 691 71 1120 -128 1600 -128 
C 1837 -128 2074 -77 2336 37 
C 2509 108 2643 191 2669 230 
L 2797 447 
z
M 2298 1690 
C 1965 1690 1811 1690 1581 1690 
C 1286 1690 1120 1690 774 1722 
C 774 2027 800 2169 883 2337 
C 1018 2622 1293 2796 1600 2796 
C 1811 2796 1978 2711 2093 2534 
C 2234 2319 2278 2129 2298 1690 
z
" transform="scale(0.015625)"/>
       <path id="URWPalladioL-Roma-69" d="M 1203 2993 
L 1146 3019 
C 819 2884 486 2793 147 2755 
L 147 2576 
L 384 2576 
C 640 2576 666 2531 666 2105 
L 666 651 
C 666 244 646 199 429 199 
L 134 199 
L 134 0 
C 774 0 774 0 934 0 
C 1094 0 1094 0 1734 0 
L 1734 199 
L 1440 199 
C 1222 199 1203 244 1203 651 
L 1203 2993 
z
M 909 4416 
C 717 4416 550 4249 550 4056 
C 550 3870 717 3704 902 3704 
C 1088 3704 1261 3870 1261 4056 
C 1261 4236 1088 4416 909 4416 
z
" transform="scale(0.015625)"/>
       <path id="URWPalladioL-Roma-6e" d="M 2624 -7 
C 3014 -7 3021 -7 3130 -7 
C 3219 -7 3219 -7 3661 -7 
L 3661 179 
L 3398 205 
C 3181 205 3162 244 3162 654 
L 3162 1892 
C 3162 2642 2810 3008 2093 3008 
C 1856 3008 1722 2963 1587 2847 
L 1101 2424 
L 1101 2982 
L 1043 3008 
C 717 2873 384 2783 45 2745 
L 45 2565 
L 282 2565 
C 538 2565 563 2520 563 2094 
L 563 643 
C 563 237 544 192 326 192 
L 38 192 
L 38 -7 
C 474 -7 646 -7 832 -7 
C 1018 -7 1190 -7 1626 -7 
L 1626 192 
L 1338 192 
C 1120 192 1101 237 1101 643 
L 1101 2011 
C 1101 2300 1523 2616 1914 2616 
C 2342 2616 2624 2297 2624 1806 
L 2624 -7 
z
" transform="scale(0.015625)"/>
       <path id="URWPalladioL-Roma-64" d="M 2637 2802 
C 2278 2956 2099 3008 1875 3008 
C 1702 3008 1549 2969 1389 2887 
L 826 2593 
C 461 2401 224 1935 224 1392 
C 224 881 397 460 710 204 
C 928 19 1229 -64 1645 -64 
C 1773 -64 1920 -38 1952 -13 
L 2662 583 
L 2630 -7 
C 2944 -7 3046 -7 3123 -7 
C 3174 -7 3264 -7 3398 -7 
C 3443 -7 3571 -7 3706 -7 
L 3706 192 
L 3411 192 
C 3194 192 3174 237 3174 643 
L 3174 4607 
L 3117 4659 
C 2835 4550 2624 4498 2118 4421 
L 2118 4242 
L 2477 4242 
C 2592 4242 2637 4171 2637 3978 
L 2637 2802 
z
M 2637 1424 
C 2637 1009 2624 946 2541 799 
C 2362 499 2048 302 1747 302 
C 1184 302 781 844 781 1603 
C 781 2298 1126 2706 1702 2706 
C 1946 2706 2202 2623 2426 2470 
C 2560 2381 2637 2298 2637 2246 
L 2637 1424 
z
" transform="scale(0.015625)"/>
       <path id="URWPalladioL-Roma-28" d="M 1926 -1244 
C 1466 -673 1299 -366 1133 212 
C 998 673 934 1161 934 1706 
C 934 2238 998 2693 1120 3110 
C 1286 3642 1459 3944 1926 4489 
L 1805 4656 
C 1139 4059 877 3707 634 3078 
C 467 2648 384 2193 384 1706 
C 384 1020 544 372 851 -205 
C 1075 -635 1280 -885 1805 -1379 
L 1926 -1244 
z
" transform="scale(0.015625)"/>
       <path id="URWPalladioL-Roma-57" d="M 4698 -64 
C 4723 32 4742 122 4749 154 
C 4768 218 4819 411 4870 584 
L 5850 4032 
C 5888 4147 5952 4205 6093 4218 
L 6298 4237 
L 6298 4416 
L 5626 4416 
C 5562 4416 5562 4416 4954 4416 
L 4954 4237 
L 5210 4218 
C 5434 4199 5504 4167 5510 4063 
C 5510 4044 5510 4025 5504 4005 
L 4659 872 
L 3610 3826 
C 3469 4211 3450 4262 3398 4480 
L 3194 4480 
C 3059 4082 2950 3795 2618 2935 
L 1824 917 
L 1184 3795 
C 1165 3872 1158 3942 1158 4006 
C 1158 4147 1222 4205 1395 4218 
L 1664 4237 
L 1664 4416 
L 858 4416 
C 813 4416 544 4416 51 4416 
L 51 4237 
L 230 4218 
C 416 4199 493 4128 550 3897 
L 1312 597 
C 1395 231 1395 225 1459 -64 
L 1779 -64 
C 1837 141 1888 295 2010 597 
L 3123 3429 
L 3923 1256 
C 4134 687 4154 635 4378 -64 
L 4698 -64 
z
" transform="scale(0.015625)"/>
       <path id="URWPalladioL-Roma-48" d="M 3942 773 
C 3942 257 3910 205 3616 205 
L 3309 205 
L 3309 0 
C 3686 0 3910 0 4243 0 
C 4576 0 4806 0 5184 0 
L 5184 205 
L 4877 205 
C 4582 205 4550 256 4550 766 
L 4550 3663 
C 4550 4172 4582 4224 4877 4224 
L 5184 4224 
L 5184 4423 
C 4717 4423 4576 4423 4243 4423 
C 3923 4423 3770 4423 3309 4423 
L 3309 4224 
L 3616 4224 
C 3910 4224 3942 4172 3942 3668 
L 3942 2529 
C 3808 2529 3674 2529 3411 2529 
L 1914 2529 
C 1651 2529 1510 2529 1382 2529 
L 1382 3668 
C 1382 4172 1414 4224 1709 4224 
L 2016 4224 
L 2016 4423 
C 1549 4423 1408 4423 1075 4423 
C 755 4423 602 4423 141 4423 
L 141 4224 
L 448 4224 
C 742 4224 774 4172 774 3663 
L 774 766 
C 774 256 742 205 448 205 
L 141 205 
L 141 0 
C 518 0 742 0 1075 0 
C 1408 0 1638 0 2016 0 
L 2016 205 
L 1709 205 
C 1414 205 1382 257 1382 773 
L 1382 2227 
C 1555 2240 1658 2240 1914 2240 
L 3411 2240 
C 3667 2240 3770 2240 3942 2227 
L 3942 773 
z
" transform="scale(0.015625)"/>
       <path id="URWPalladioL-Roma-4f" d="M 2573 4544 
C 1114 4544 141 3596 141 2186 
C 141 839 1075 -128 2368 -128 
C 3802 -128 4890 942 4890 2351 
C 4890 3698 3994 4544 2573 4544 
z
M 2464 4274 
C 3558 4274 4205 3493 4205 2160 
C 4205 890 3616 141 2624 141 
C 1549 141 826 1051 826 2422 
C 826 3607 1414 4274 2464 4274 
z
" transform="scale(0.015625)"/>
       <path id="URWPalladioL-Roma-29" d="M 326 -1379 
C 768 -962 954 -750 1152 -436 
C 1542 186 1747 930 1747 1699 
C 1747 2193 1664 2648 1498 3078 
C 1254 3700 992 4053 326 4656 
L 205 4489 
C 672 3937 845 3636 1005 3110 
C 1133 2693 1197 2238 1197 1706 
C 1197 1161 1133 673 998 212 
C 832 -366 666 -673 205 -1244 
L 326 -1379 
z
" transform="scale(0.015625)"/>
      </defs>
      <use xlink:href="#URWPalladioL-Roma-63" transform="scale(0.996264)"/>
      <use xlink:href="#URWPalladioL-Roma-61" transform="translate(44.233569 0)scale(0.996264)"/>
      <use xlink:href="#URWPalladioL-Roma-73" transform="translate(94.046769 0)scale(0.996264)"/>
      <use xlink:href="#URWPalladioL-Roma-65" transform="translate(136.288236 0)scale(0.996264)"/>
      <use xlink:href="#URWPalladioL-Roma-69" transform="translate(208.915131 0)scale(0.996264)"/>
      <use xlink:href="#URWPalladioL-Roma-6e" transform="translate(237.905492 0)scale(0.996264)"/>
      <use xlink:href="#URWPalladioL-Roma-63" transform="translate(295.887553 0)scale(0.996264)"/>
      <use xlink:href="#URWPalladioL-Roma-69" transform="translate(340.121122 0)scale(0.996264)"/>
      <use xlink:href="#URWPalladioL-Roma-64" transform="translate(369.111483 0)scale(0.996264)"/>
      <use xlink:href="#URWPalladioL-Roma-65" transform="translate(429.983114 0)scale(0.996264)"/>
      <use xlink:href="#URWPalladioL-Roma-6e" transform="translate(477.703409 0)scale(0.996264)"/>
      <use xlink:href="#URWPalladioL-Roma-63" transform="translate(535.68547 0)scale(0.996264)"/>
      <use xlink:href="#URWPalladioL-Roma-65" transform="translate(579.919038 0)scale(0.996264)"/>
      <use xlink:href="#URWPalladioL-Roma-28" transform="translate(652.545934 0)scale(0.996264)"/>
      <use xlink:href="#URWPalladioL-Roma-57" transform="translate(685.721163 0)scale(0.996264)"/>
      <use xlink:href="#URWPalladioL-Roma-48" transform="translate(785.347564 0)scale(0.996264)"/>
      <use xlink:href="#URWPalladioL-Roma-4f" transform="translate(868.236225 0)scale(0.996264)"/>
      <use xlink:href="#URWPalladioL-Roma-29" transform="translate(946.542507 0)scale(0.996264)"/>
     </g>
     <!-- new cases over 7 days per 100000 -->
     <g transform="translate(25.691533 191.389569)rotate(-90)scale(0.1 -0.1)">
      <defs>
       <path id="URWPalladioL-Roma-77" d="M 2643 3008 
C 2118 1788 2022 1571 1626 677 
L 1088 2444 
C 1069 2502 1062 2553 1062 2604 
C 1062 2700 1146 2752 1306 2752 
L 1562 2752 
L 1562 2932 
C 928 2932 928 2932 800 2932 
C 672 2932 672 2932 38 2932 
L 38 2765 
L 218 2752 
C 397 2739 480 2612 640 2114 
L 1293 -32 
L 1594 -32 
L 2221 1437 
C 2253 1514 2323 1667 2426 1884 
L 2554 2152 
L 3424 -32 
L 3718 -32 
C 3763 102 3814 249 3866 389 
C 3994 767 4134 1162 4160 1201 
L 4595 2196 
C 4787 2625 4864 2733 5005 2752 
L 5171 2765 
L 5171 2932 
C 4646 2932 4646 2932 4544 2932 
C 4442 2932 4442 2932 3917 2932 
L 3917 2752 
L 4134 2752 
C 4294 2752 4384 2675 4384 2559 
C 4384 2489 4371 2412 4339 2329 
L 4019 1433 
C 3968 1292 3917 1163 3712 638 
L 2976 2490 
C 2886 2707 2842 2835 2790 3008 
L 2643 3008 
z
" transform="scale(0.015625)"/>
       <path id="URWPalladioL-Roma-6f" d="M 1786 3008 
C 851 3008 205 2347 205 1392 
C 205 487 774 -128 1600 -128 
C 2586 -128 3290 558 3290 1520 
C 3290 2386 2662 3008 1786 3008 
z
M 1670 2796 
C 2259 2796 2694 2155 2694 1283 
C 2694 545 2368 83 1850 83 
C 1222 83 800 699 800 1610 
C 800 2379 1107 2796 1670 2796 
z
" transform="scale(0.015625)"/>
       <path id="URWPalladioL-Roma-76" d="M 3450 2752 
L 3450 2932 
C 3066 2932 2950 2932 2848 2932 
C 2746 2932 2630 2932 2246 2932 
L 2246 2752 
L 2509 2752 
C 2611 2752 2662 2694 2662 2591 
C 2662 2489 2618 2317 2541 2124 
L 2272 1445 
C 2195 1259 2118 1080 1875 549 
L 1114 2393 
C 1075 2482 1056 2566 1056 2636 
C 1056 2707 1114 2752 1216 2752 
L 1530 2752 
L 1530 2932 
C 902 2932 902 2932 781 2932 
C 659 2932 352 2932 38 2932 
L 38 2752 
L 256 2752 
C 352 2739 384 2701 454 2541 
L 1555 -32 
L 1875 -32 
C 1914 77 1978 243 1978 256 
C 2048 447 2131 664 2138 664 
L 2893 2324 
C 3034 2625 3123 2739 3251 2752 
L 3450 2752 
z
" transform="scale(0.015625)"/>
       <path id="URWPalladioL-Roma-72" d="M 147 2565 
L 384 2565 
C 640 2565 666 2520 666 2094 
L 666 643 
C 666 237 646 192 429 192 
L 134 192 
L 134 -7 
C 595 -7 762 -7 922 -7 
C 1050 -7 1050 -7 1837 -7 
L 1837 192 
L 1504 192 
C 1216 192 1203 211 1203 638 
L 1203 1751 
C 1203 2139 1459 2463 1773 2463 
C 1965 2463 2099 2373 2202 2169 
L 2336 2169 
L 2394 2937 
C 2323 2982 2208 3008 2093 3008 
C 1901 3008 1696 2905 1562 2745 
L 1203 2322 
L 1203 2982 
L 1146 3008 
C 819 2873 486 2783 147 2745 
L 147 2565 
z
" transform="scale(0.015625)"/>
       <path id="URWPalladioL-Roma-79" d="M 1901 564 
C 1760 808 1690 956 1574 1270 
L 1165 2347 
C 1126 2456 1101 2552 1101 2618 
C 1101 2710 1171 2764 1318 2764 
L 1562 2764 
L 1562 2944 
C 941 2944 941 2944 819 2944 
C 698 2944 698 2944 77 2944 
L 77 2777 
L 192 2764 
C 352 2745 429 2674 525 2451 
L 1222 775 
C 1402 340 1466 186 1581 -134 
L 1434 -524 
C 1229 -1062 979 -1362 736 -1362 
C 634 -1362 518 -1311 410 -1215 
L 326 -1215 
L 173 -1696 
C 294 -1760 397 -1792 518 -1792 
C 947 -1792 1222 -1562 1466 -1005 
L 2765 1990 
C 3021 2572 3142 2745 3302 2764 
L 3482 2777 
L 3482 2944 
C 2976 2944 2976 2944 2874 2944 
C 2771 2944 2771 2944 2266 2944 
L 2266 2777 
L 2432 2764 
C 2611 2751 2701 2694 2701 2604 
C 2701 2559 2688 2501 2662 2437 
L 1901 564 
z
" transform="scale(0.015625)"/>
       <path id="URWPalladioL-Roma-70" d="M 64 2565 
L 301 2565 
C 557 2565 582 2520 582 2095 
L 582 -1142 
C 582 -1548 563 -1593 346 -1593 
L 51 -1593 
L 51 -1792 
C 691 -1792 691 -1792 851 -1792 
C 1011 -1792 1011 -1792 1651 -1792 
L 1651 -1593 
L 1357 -1593 
C 1139 -1593 1120 -1547 1120 -1138 
L 1120 89 
C 1312 -26 1517 -71 1805 -71 
C 1990 -71 2157 -32 2259 32 
L 2989 505 
C 3245 672 3546 1330 3546 1740 
C 3546 2451 2957 3008 2214 3008 
C 1978 3008 1747 2943 1645 2847 
L 1120 2367 
L 1120 2982 
L 1062 3008 
C 736 2873 403 2783 64 2745 
L 64 2565 
z
M 1120 1964 
C 1120 2053 1152 2124 1235 2233 
C 1421 2469 1683 2591 2003 2591 
C 2605 2591 2989 2169 2989 1504 
C 2989 787 2560 256 1984 256 
C 1632 256 1370 372 1120 633 
L 1120 1964 
z
" transform="scale(0.015625)"/>
      </defs>
      <use xlink:href="#URWPalladioL-Roma-6e" transform="scale(0.996264)"/>
      <use xlink:href="#URWPalladioL-Roma-65" transform="translate(57.982061 0)scale(0.996264)"/>
      <use xlink:href="#URWPalladioL-Roma-77" transform="translate(105.702356 0)scale(0.996264)"/>
      <use xlink:href="#URWPalladioL-Roma-63" transform="translate(213.697049 0)scale(0.996264)"/>
      <use xlink:href="#URWPalladioL-Roma-61" transform="translate(257.930618 0)scale(0.996264)"/>
      <use xlink:href="#URWPalladioL-Roma-73" transform="translate(307.743818 0)scale(0.996264)"/>
      <use xlink:href="#URWPalladioL-Roma-65" transform="translate(349.985285 0)scale(0.996264)"/>
      <use xlink:href="#URWPalladioL-Roma-73" transform="translate(397.70558 0)scale(0.996264)"/>
      <use xlink:href="#URWPalladioL-Roma-6f" transform="translate(464.853646 0)scale(0.996264)"/>
      <use xlink:href="#URWPalladioL-Roma-76" transform="translate(519.249227 0)scale(0.996264)"/>
      <use xlink:href="#URWPalladioL-Roma-65" transform="translate(575.53714 0)scale(0.996264)"/>
      <use xlink:href="#URWPalladioL-Roma-72" transform="translate(623.257435 0)scale(0.996264)"/>
      <use xlink:href="#URWPalladioL-Roma-37" transform="translate(687.515931 0)scale(0.996264)"/>
      <use xlink:href="#URWPalladioL-Roma-64" transform="translate(762.235732 0)scale(0.996264)"/>
      <use xlink:href="#URWPalladioL-Roma-61" transform="translate(823.107363 0)scale(0.996264)"/>
      <use xlink:href="#URWPalladioL-Roma-79" transform="translate(872.920563 0)scale(0.996264)"/>
      <use xlink:href="#URWPalladioL-Roma-73" transform="translate(928.31224 0)scale(0.996264)"/>
      <use xlink:href="#URWPalladioL-Roma-70" transform="translate(995.460307 0)scale(0.996264)"/>
      <use xlink:href="#URWPalladioL-Roma-65" transform="translate(1055.334701 0)scale(0.996264)"/>
      <use xlink:href="#URWPalladioL-Roma-72" transform="translate(1103.054996 0)scale(0.996264)"/>
      <use xlink:href="#URWPalladioL-Roma-31" transform="translate(1167.313492 0)scale(0.996264)"/>
      <use xlink:href="#URWPalladioL-Roma-30" transform="translate(1217.126693 0)scale(0.996264)"/>
      <use xlink:href="#URWPalladioL-Roma-30" transform="translate(1266.939893 0)scale(0.996264)"/>
      <use xlink:href="#URWPalladioL-Roma-30" transform="translate(1316.753094 0)scale(0.996264)"/>
      <use xlink:href="#URWPalladioL-Roma-30" transform="translate(1366.566294 0)scale(0.996264)"/>
      <use xlink:href="#URWPalladioL-Roma-30" transform="translate(1416.379495 0)scale(0.996264)"/>
     </g>
    </g>
   </g>
   <g id="line2d_13">
    <path d="M 60.444904 212.601189 
L 339.444904 212.601189 
" clip-path="url(#p6d0e667b46)" style="fill: none; stroke: #ffff00; stroke-width: 1.5; stroke-linecap: square"/>
   </g>
   <g id="line2d_14">
    <path d="M 60.444904 188.062972 
L 339.444904 188.062972 
" clip-path="url(#p6d0e667b46)" style="fill: none; stroke: #ffa500; stroke-width: 1.5; stroke-linecap: square"/>
   </g>
   <g id="line2d_15">
    <path d="M 60.444904 106.268917 
L 339.444904 106.268917 
" clip-path="url(#p6d0e667b46)" style="fill: none; stroke: #ff0000; stroke-width: 1.5; stroke-linecap: square"/>
   </g>
   <g id="patch_179">
    <path d="M 60.444904 228.96 
L 60.444904 7.2 
" style="fill: none; stroke: #000000; stroke-width: 0.8; stroke-linejoin: miter; stroke-linecap: square"/>
   </g>
   <g id="patch_180">
    <path d="M 60.444904 228.96 
L 339.444904 228.96 
" style="fill: none; stroke: #000000; stroke-width: 0.8; stroke-linejoin: miter; stroke-linecap: square"/>
   </g>
   <g id="text_14">
    <!-- low incidence of community transmission -->
    <g style="fill: #ffff00" transform="translate(347.814904 214.760602)scale(0.1 -0.1)">
     <defs>
      <path id="URWPalladioL-Roma-6c" d="M 147 4256 
L 506 4256 
C 621 4256 666 4185 666 3992 
L 666 651 
C 666 244 646 199 429 199 
L 134 199 
L 134 0 
C 774 0 774 0 934 0 
C 1094 0 1094 0 1734 0 
L 1734 199 
L 1440 199 
C 1222 199 1203 244 1203 650 
L 1203 4621 
L 1146 4673 
C 864 4564 653 4512 147 4435 
L 147 4256 
z
" transform="scale(0.015625)"/>
      <path id="URWPalladioL-Roma-66" d="M 2182 4601 
C 2048 4652 1971 4672 1888 4672 
C 1683 4672 1459 4563 1318 4404 
L 947 3985 
C 762 3775 678 3490 678 3070 
L 678 2803 
L 237 2604 
L 237 2476 
L 678 2476 
L 678 651 
C 678 244 659 199 442 199 
L 147 199 
L 147 0 
C 787 0 787 0 947 0 
C 1107 0 1107 0 1747 0 
L 1747 199 
L 1453 199 
C 1235 199 1216 245 1216 653 
L 1216 2489 
L 2010 2489 
L 2054 2816 
L 1216 2816 
L 1216 3350 
C 1216 4073 1299 4248 1664 4248 
C 1837 4248 1952 4204 2106 4071 
L 2182 4109 
L 2182 4601 
z
" transform="scale(0.015625)"/>
      <path id="URWPalladioL-Roma-6d" d="M 115 2565 
L 352 2565 
C 608 2565 634 2520 634 2094 
L 634 643 
C 634 237 614 192 397 192 
L 102 192 
L 102 -7 
C 717 -7 736 -7 915 -7 
C 1094 -7 1261 -7 1677 -7 
L 1677 179 
L 1408 205 
C 1190 205 1171 250 1171 654 
L 1171 2014 
C 1171 2302 1594 2616 1978 2616 
C 2323 2616 2560 2287 2560 1798 
L 2560 643 
C 2560 237 2541 192 2323 192 
L 2029 192 
L 2029 -7 
C 2669 -7 2669 -7 2829 -7 
C 2989 -7 2989 -7 3629 -7 
L 3629 192 
L 3334 192 
C 3117 192 3098 237 3098 643 
L 3098 2011 
C 3098 2300 3520 2616 3904 2616 
C 4250 2616 4486 2291 4486 1806 
L 4486 -7 
C 4877 -7 4883 -7 4992 -7 
C 5075 -7 5075 -7 5562 -7 
L 5562 192 
L 5261 192 
C 5043 192 5024 237 5024 643 
L 5024 1970 
C 5024 2608 4653 3008 4064 3008 
C 3840 3008 3654 2950 3539 2847 
L 3053 2412 
C 2848 2834 2586 3008 2144 3008 
C 1907 3008 1728 2950 1613 2847 
L 1171 2437 
L 1171 2982 
L 1114 3008 
C 787 2873 454 2783 115 2745 
L 115 2565 
z
" transform="scale(0.015625)"/>
      <path id="URWPalladioL-Roma-75" d="M 3219 3009 
L 3162 3035 
C 2835 2900 2502 2810 2163 2772 
L 2163 2592 
L 2400 2592 
C 2656 2592 2682 2547 2682 2121 
L 2682 1070 
C 2682 928 2592 747 2445 599 
C 2266 418 2061 327 1811 327 
C 1587 327 1408 398 1306 521 
C 1216 624 1171 824 1171 1107 
L 1171 3009 
L 1114 3035 
C 787 2900 454 2810 115 2772 
L 115 2592 
L 352 2592 
C 608 2592 634 2547 634 2122 
L 634 1039 
C 634 587 672 387 787 227 
C 928 33 1171 -64 1536 -64 
C 1824 -64 2080 26 2253 186 
L 2682 585 
C 2682 401 2675 298 2656 0 
C 3085 0 3091 0 3187 0 
C 3277 0 3277 0 3718 0 
L 3718 186 
L 3456 212 
C 3238 212 3219 251 3219 664 
L 3219 3009 
z
" transform="scale(0.015625)"/>
      <path id="URWPalladioL-Roma-74" d="M 627 2476 
L 627 619 
C 627 142 838 -64 1331 -64 
C 1478 -64 1632 -32 1670 13 
L 1978 353 
L 1894 463 
C 1734 372 1638 340 1517 340 
C 1267 340 1165 470 1165 788 
L 1165 2489 
L 1984 2489 
L 2042 2816 
L 1165 2816 
L 1165 3056 
C 1165 3321 1184 3547 1235 3951 
L 1158 4021 
C 1005 3925 813 3842 614 3778 
C 634 3585 640 3463 640 3271 
L 640 2822 
L 141 2598 
L 141 2476 
L 627 2476 
z
" transform="scale(0.015625)"/>
     </defs>
     <use xlink:href="#URWPalladioL-Roma-6c" transform="scale(0.996264)"/>
     <use xlink:href="#URWPalladioL-Roma-6f" transform="translate(28.990361 0)scale(0.996264)"/>
     <use xlink:href="#URWPalladioL-Roma-77" transform="translate(83.385942 0)scale(0.996264)"/>
     <use xlink:href="#URWPalladioL-Roma-69" transform="translate(191.380635 0)scale(0.996264)"/>
     <use xlink:href="#URWPalladioL-Roma-6e" transform="translate(220.370996 0)scale(0.996264)"/>
     <use xlink:href="#URWPalladioL-Roma-63" transform="translate(278.353057 0)scale(0.996264)"/>
     <use xlink:href="#URWPalladioL-Roma-69" transform="translate(322.586626 0)scale(0.996264)"/>
     <use xlink:href="#URWPalladioL-Roma-64" transform="translate(351.576987 0)scale(0.996264)"/>
     <use xlink:href="#URWPalladioL-Roma-65" transform="translate(412.448618 0)scale(0.996264)"/>
     <use xlink:href="#URWPalladioL-Roma-6e" transform="translate(460.168913 0)scale(0.996264)"/>
     <use xlink:href="#URWPalladioL-Roma-63" transform="translate(518.150974 0)scale(0.996264)"/>
     <use xlink:href="#URWPalladioL-Roma-65" transform="translate(562.384542 0)scale(0.996264)"/>
     <use xlink:href="#URWPalladioL-Roma-6f" transform="translate(635.011438 0)scale(0.996264)"/>
     <use xlink:href="#URWPalladioL-Roma-66" transform="translate(689.407018 0)scale(0.996264)"/>
     <use xlink:href="#URWPalladioL-Roma-63" transform="translate(747.488848 0)scale(0.996264)"/>
     <use xlink:href="#URWPalladioL-Roma-6f" transform="translate(791.722417 0)scale(0.996264)"/>
     <use xlink:href="#URWPalladioL-Roma-6d" transform="translate(846.117997 0)scale(0.996264)"/>
     <use xlink:href="#URWPalladioL-Roma-6d" transform="translate(934.087671 0)scale(0.996264)"/>
     <use xlink:href="#URWPalladioL-Roma-75" transform="translate(1022.057345 0)scale(0.996264)"/>
     <use xlink:href="#URWPalladioL-Roma-6e" transform="translate(1082.13108 0)scale(0.996264)"/>
     <use xlink:href="#URWPalladioL-Roma-69" transform="translate(1140.113141 0)scale(0.996264)"/>
     <use xlink:href="#URWPalladioL-Roma-74" transform="translate(1169.103502 0)scale(0.996264)"/>
     <use xlink:href="#URWPalladioL-Roma-79" transform="translate(1201.58059 0)scale(0.996264)"/>
     <use xlink:href="#URWPalladioL-Roma-74" transform="translate(1281.878867 0)scale(0.996264)"/>
     <use xlink:href="#URWPalladioL-Roma-72" transform="translate(1314.355955 0)scale(0.996264)"/>
     <use xlink:href="#URWPalladioL-Roma-61" transform="translate(1353.707852 0)scale(0.996264)"/>
     <use xlink:href="#URWPalladioL-Roma-6e" transform="translate(1403.521052 0)scale(0.996264)"/>
     <use xlink:href="#URWPalladioL-Roma-73" transform="translate(1461.503113 0)scale(0.996264)"/>
     <use xlink:href="#URWPalladioL-Roma-6d" transform="translate(1503.744579 0)scale(0.996264)"/>
     <use xlink:href="#URWPalladioL-Roma-69" transform="translate(1591.714253 0)scale(0.996264)"/>
     <use xlink:href="#URWPalladioL-Roma-73" transform="translate(1620.704615 0)scale(0.996264)"/>
     <use xlink:href="#URWPalladioL-Roma-73" transform="translate(1662.946081 0)scale(0.996264)"/>
     <use xlink:href="#URWPalladioL-Roma-69" transform="translate(1705.187547 0)scale(0.996264)"/>
     <use xlink:href="#URWPalladioL-Roma-6f" transform="translate(1734.177909 0)scale(0.996264)"/>
     <use xlink:href="#URWPalladioL-Roma-6e" transform="translate(1788.573489 0)scale(0.996264)"/>
    </g>
   </g>
   <g id="text_15">
    <!-- moderate incidence of community transmission -->
    <g style="fill: #ffa500" transform="translate(347.814904 190.222385)scale(0.1 -0.1)">
     <use xlink:href="#URWPalladioL-Roma-6d" transform="scale(0.996264)"/>
     <use xlink:href="#URWPalladioL-Roma-6f" transform="translate(87.969674 0)scale(0.996264)"/>
     <use xlink:href="#URWPalladioL-Roma-64" transform="translate(142.365254 0)scale(0.996264)"/>
     <use xlink:href="#URWPalladioL-Roma-65" transform="translate(203.236885 0)scale(0.996264)"/>
     <use xlink:href="#URWPalladioL-Roma-72" transform="translate(250.95718 0)scale(0.996264)"/>
     <use xlink:href="#URWPalladioL-Roma-61" transform="translate(290.309077 0)scale(0.996264)"/>
     <use xlink:href="#URWPalladioL-Roma-74" transform="translate(340.122277 0)scale(0.996264)"/>
     <use xlink:href="#URWPalladioL-Roma-65" transform="translate(372.599365 0)scale(0.996264)"/>
     <use xlink:href="#URWPalladioL-Roma-69" transform="translate(445.22626 0)scale(0.996264)"/>
     <use xlink:href="#URWPalladioL-Roma-6e" transform="translate(474.216622 0)scale(0.996264)"/>
     <use xlink:href="#URWPalladioL-Roma-63" transform="translate(532.198682 0)scale(0.996264)"/>
     <use xlink:href="#URWPalladioL-Roma-69" transform="translate(576.432251 0)scale(0.996264)"/>
     <use xlink:href="#URWPalladioL-Roma-64" transform="translate(605.422613 0)scale(0.996264)"/>
     <use xlink:href="#URWPalladioL-Roma-65" transform="translate(666.294243 0)scale(0.996264)"/>
     <use xlink:href="#URWPalladioL-Roma-6e" transform="translate(714.014538 0)scale(0.996264)"/>
     <use xlink:href="#URWPalladioL-Roma-63" transform="translate(771.996599 0)scale(0.996264)"/>
     <use xlink:href="#URWPalladioL-Roma-65" transform="translate(816.230168 0)scale(0.996264)"/>
     <use xlink:href="#URWPalladioL-Roma-6f" transform="translate(888.857063 0)scale(0.996264)"/>
     <use xlink:href="#URWPalladioL-Roma-66" transform="translate(943.252643 0)scale(0.996264)"/>
     <use xlink:href="#URWPalladioL-Roma-63" transform="translate(1001.334473 0)scale(0.996264)"/>
     <use xlink:href="#URWPalladioL-Roma-6f" transform="translate(1045.568042 0)scale(0.996264)"/>
     <use xlink:href="#URWPalladioL-Roma-6d" transform="translate(1099.963622 0)scale(0.996264)"/>
     <use xlink:href="#URWPalladioL-Roma-6d" transform="translate(1187.933296 0)scale(0.996264)"/>
     <use xlink:href="#URWPalladioL-Roma-75" transform="translate(1275.902971 0)scale(0.996264)"/>
     <use xlink:href="#URWPalladioL-Roma-6e" transform="translate(1335.976705 0)scale(0.996264)"/>
     <use xlink:href="#URWPalladioL-Roma-69" transform="translate(1393.958766 0)scale(0.996264)"/>
     <use xlink:href="#URWPalladioL-Roma-74" transform="translate(1422.949128 0)scale(0.996264)"/>
     <use xlink:href="#URWPalladioL-Roma-79" transform="translate(1455.426215 0)scale(0.996264)"/>
     <use xlink:href="#URWPalladioL-Roma-74" transform="translate(1535.724493 0)scale(0.996264)"/>
     <use xlink:href="#URWPalladioL-Roma-72" transform="translate(1568.20158 0)scale(0.996264)"/>
     <use xlink:href="#URWPalladioL-Roma-61" transform="translate(1607.553477 0)scale(0.996264)"/>
     <use xlink:href="#URWPalladioL-Roma-6e" transform="translate(1657.366677 0)scale(0.996264)"/>
     <use xlink:href="#URWPalladioL-Roma-73" transform="translate(1715.348738 0)scale(0.996264)"/>
     <use xlink:href="#URWPalladioL-Roma-6d" transform="translate(1757.590204 0)scale(0.996264)"/>
     <use xlink:href="#URWPalladioL-Roma-69" transform="translate(1845.559879 0)scale(0.996264)"/>
     <use xlink:href="#URWPalladioL-Roma-73" transform="translate(1874.55024 0)scale(0.996264)"/>
     <use xlink:href="#URWPalladioL-Roma-73" transform="translate(1916.791706 0)scale(0.996264)"/>
     <use xlink:href="#URWPalladioL-Roma-69" transform="translate(1959.033173 0)scale(0.996264)"/>
     <use xlink:href="#URWPalladioL-Roma-6f" transform="translate(1988.023534 0)scale(0.996264)"/>
     <use xlink:href="#URWPalladioL-Roma-6e" transform="translate(2042.419114 0)scale(0.996264)"/>
    </g>
   </g>
   <g id="text_16">
    <!-- high incidence of community transmission -->
    <g style="fill: #ff0000" transform="translate(347.814904 108.42833)scale(0.1 -0.1)">
     <defs>
      <path id="URWPalladioL-Roma-68" d="M 45 4248 
L 403 4248 
C 518 4248 563 4177 563 3984 
L 563 643 
C 563 237 544 192 326 192 
L 38 192 
L 38 -7 
C 474 -7 646 -7 832 -7 
C 1018 -7 1190 -7 1626 -7 
L 1626 192 
L 1338 192 
C 1120 192 1101 237 1101 643 
L 1101 2011 
C 1101 2300 1523 2616 1914 2616 
C 2342 2616 2624 2297 2624 1806 
L 2624 -7 
C 3014 -7 3021 -7 3130 -7 
C 3219 -7 3219 -7 3661 -7 
L 3661 179 
L 3398 205 
C 3181 205 3162 244 3162 654 
L 3162 1892 
C 3162 2642 2810 3008 2093 3008 
C 1856 3008 1722 2963 1587 2847 
L 1101 2424 
L 1101 4613 
L 1043 4665 
C 762 4556 550 4504 45 4427 
L 45 4248 
z
" transform="scale(0.015625)"/>
      <path id="URWPalladioL-Roma-67" d="M 3322 2432 
L 3482 2695 
L 3456 2759 
L 2547 2759 
C 2310 2937 2080 3008 1766 3008 
C 1485 3008 1158 2920 896 2768 
C 538 2567 352 2258 352 1874 
C 352 1408 646 1087 1120 1036 
L 614 640 
C 550 543 518 459 518 361 
C 518 180 634 76 941 -14 
L 384 -316 
C 294 -367 205 -604 205 -803 
C 205 -1388 774 -1792 1587 -1792 
C 2554 -1792 3315 -1182 3315 -399 
C 3315 63 3008 384 2560 384 
L 1536 384 
C 1203 384 1050 462 1050 639 
C 1050 724 1101 795 1267 939 
C 1306 972 1318 985 1344 1011 
C 1408 1004 1446 998 1498 998 
C 1773 998 2112 1118 2374 1300 
C 2662 1507 2803 1759 2803 2093 
C 2803 2218 2784 2300 2733 2432 
L 3322 2432 
z
M 1536 2790 
C 1971 2790 2266 2438 2266 1905 
C 2266 1499 1997 1216 1606 1216 
C 1178 1216 890 1542 890 2025 
C 890 2507 1126 2790 1536 2790 
z
M 1837 -65 
C 2560 -65 2810 -212 2810 -630 
C 2810 -1182 2304 -1593 1632 -1593 
C 1075 -1593 691 -1266 691 -790 
C 691 -502 858 -238 1114 -129 
C 1216 -78 1395 -65 1837 -65 
z
" transform="scale(0.015625)"/>
     </defs>
     <use xlink:href="#URWPalladioL-Roma-68" transform="scale(0.996264)"/>
     <use xlink:href="#URWPalladioL-Roma-69" transform="translate(57.982061 0)scale(0.996264)"/>
     <use xlink:href="#URWPalladioL-Roma-67" transform="translate(86.972422 0)scale(0.996264)"/>
     <use xlink:href="#URWPalladioL-Roma-68" transform="translate(142.364099 0)scale(0.996264)"/>
     <use xlink:href="#URWPalladioL-Roma-69" transform="translate(225.25276 0)scale(0.996264)"/>
     <use xlink:href="#URWPalladioL-Roma-6e" transform="translate(254.243121 0)scale(0.996264)"/>
     <use xlink:href="#URWPalladioL-Roma-63" transform="translate(312.225182 0)scale(0.996264)"/>
     <use xlink:href="#URWPalladioL-Roma-69" transform="translate(356.458751 0)scale(0.996264)"/>
     <use xlink:href="#URWPalladioL-Roma-64" transform="translate(385.449112 0)scale(0.996264)"/>
     <use xlink:href="#URWPalladioL-Roma-65" transform="translate(446.320743 0)scale(0.996264)"/>
     <use xlink:href="#URWPalladioL-Roma-6e" transform="translate(494.041038 0)scale(0.996264)"/>
     <use xlink:href="#URWPalladioL-Roma-63" transform="translate(552.023099 0)scale(0.996264)"/>
     <use xlink:href="#URWPalladioL-Roma-65" transform="translate(596.256668 0)scale(0.996264)"/>
     <use xlink:href="#URWPalladioL-Roma-6f" transform="translate(668.883563 0)scale(0.996264)"/>
     <use xlink:href="#URWPalladioL-Roma-66" transform="translate(723.279143 0)scale(0.996264)"/>
     <use xlink:href="#URWPalladioL-Roma-63" transform="translate(781.360973 0)scale(0.996264)"/>
     <use xlink:href="#URWPalladioL-Roma-6f" transform="translate(825.594542 0)scale(0.996264)"/>
     <use xlink:href="#URWPalladioL-Roma-6d" transform="translate(879.990122 0)scale(0.996264)"/>
     <use xlink:href="#URWPalladioL-Roma-6d" transform="translate(967.959796 0)scale(0.996264)"/>
     <use xlink:href="#URWPalladioL-Roma-75" transform="translate(1055.92947 0)scale(0.996264)"/>
     <use xlink:href="#URWPalladioL-Roma-6e" transform="translate(1116.003205 0)scale(0.996264)"/>
     <use xlink:href="#URWPalladioL-Roma-69" transform="translate(1173.985266 0)scale(0.996264)"/>
     <use xlink:href="#URWPalladioL-Roma-74" transform="translate(1202.975627 0)scale(0.996264)"/>
     <use xlink:href="#URWPalladioL-Roma-79" transform="translate(1235.452715 0)scale(0.996264)"/>
     <use xlink:href="#URWPalladioL-Roma-74" transform="translate(1315.750992 0)scale(0.996264)"/>
     <use xlink:href="#URWPalladioL-Roma-72" transform="translate(1348.22808 0)scale(0.996264)"/>
     <use xlink:href="#URWPalladioL-Roma-61" transform="translate(1387.579977 0)scale(0.996264)"/>
     <use xlink:href="#URWPalladioL-Roma-6e" transform="translate(1437.393177 0)scale(0.996264)"/>
     <use xlink:href="#URWPalladioL-Roma-73" transform="translate(1495.375238 0)scale(0.996264)"/>
     <use xlink:href="#URWPalladioL-Roma-6d" transform="translate(1537.616704 0)scale(0.996264)"/>
     <use xlink:href="#URWPalladioL-Roma-69" transform="translate(1625.586378 0)scale(0.996264)"/>
     <use xlink:href="#URWPalladioL-Roma-73" transform="translate(1654.57674 0)scale(0.996264)"/>
     <use xlink:href="#URWPalladioL-Roma-73" transform="translate(1696.818206 0)scale(0.996264)"/>
     <use xlink:href="#URWPalladioL-Roma-69" transform="translate(1739.059672 0)scale(0.996264)"/>
     <use xlink:href="#URWPalladioL-Roma-6f" transform="translate(1768.050034 0)scale(0.996264)"/>
     <use xlink:href="#URWPalladioL-Roma-6e" transform="translate(1822.445614 0)scale(0.996264)"/>
    </g>
   </g>
  </g>
 </g>
 <defs>
  <clipPath id="p6d0e667b46">
   <rect x="60.444904" y="7.2" width="279" height="221.76"/>
  </clipPath>
 </defs>
</svg>
