<?xml version="1.0" encoding="utf-8" standalone="no"?>
<!DOCTYPE svg PUBLIC "-//W3C//DTD SVG 1.1//EN"
  "http://www.w3.org/Graphics/SVG/1.1/DTD/svg11.dtd">
<svg xmlns:xlink="http://www.w3.org/1999/xlink" width="565.054785pt" height="281.366609pt" viewBox="0 0 565.054785 281.366609" xmlns="http://www.w3.org/2000/svg" version="1.1">
 <metadata>
  <rdf:RDF xmlns:dc="http://purl.org/dc/elements/1.1/" xmlns:cc="http://creativecommons.org/ns#" xmlns:rdf="http://www.w3.org/1999/02/22-rdf-syntax-ns#">
   <cc:Work>
    <dc:type rdf:resource="http://purl.org/dc/dcmitype/StillImage"/>
    <dc:format>image/svg+xml</dc:format>
    <dc:creator>
     <cc:Agent>
      <dc:title>Matplotlib v3.5.0, https://matplotlib.org/</dc:title>
     </cc:Agent>
    </dc:creator>
   </cc:Work>
  </rdf:RDF>
 </metadata>
 <defs>
  <style type="text/css">*{stroke-linejoin: round; stroke-linecap: butt}</style>
 </defs>
 <g id="figure_1">
  <g id="patch_1">
   <path d="M 0 281.366609 
L 565.054785 281.366609 
L 565.054785 0 
L 0 0 
z
" style="fill: #ffffff"/>
  </g>
  <g id="axes_1">
   <g id="patch_2">
    <path d="M 60.444904 228.96 
L 339.444904 228.96 
L 339.444904 7.2 
L 60.444904 7.2 
z
" style="fill: #ffffff"/>
   </g>
   <g id="patch_3">
    <path d="M 60.60077 228.96 
L 61.847698 228.96 
L 61.847698 222.458684 
L 60.60077 222.458684 
z
" clip-path="url(#p8bdae32bef)" style="fill: #1f77b4"/>
   </g>
   <g id="patch_4">
    <path d="M 62.15943 228.96 
L 63.406357 228.96 
L 63.406357 222.582163 
L 62.15943 222.582163 
z
" clip-path="url(#p8bdae32bef)" style="fill: #1f77b4"/>
   </g>
   <g id="patch_5">
    <path d="M 63.718089 228.96 
L 64.965016 228.96 
L 64.965016 222.763888 
L 63.718089 222.763888 
z
" clip-path="url(#p8bdae32bef)" style="fill: #1f77b4"/>
   </g>
   <g id="patch_6">
    <path d="M 65.276748 228.96 
L 66.523675 228.96 
L 66.523675 222.967746 
L 65.276748 222.967746 
z
" clip-path="url(#p8bdae32bef)" style="fill: #1f77b4"/>
   </g>
   <g id="patch_7">
    <path d="M 66.835407 228.96 
L 68.082335 228.96 
L 68.082335 223.020166 
L 66.835407 223.020166 
z
" clip-path="url(#p8bdae32bef)" style="fill: #1f77b4"/>
   </g>
   <g id="patch_8">
    <path d="M 68.394066 228.96 
L 69.640994 228.96 
L 69.640994 222.972405 
L 68.394066 222.972405 
z
" clip-path="url(#p8bdae32bef)" style="fill: #1f77b4"/>
   </g>
   <g id="patch_9">
    <path d="M 69.952726 228.96 
L 71.199653 228.96 
L 71.199653 222.862905 
L 69.952726 222.862905 
z
" clip-path="url(#p8bdae32bef)" style="fill: #1f77b4"/>
   </g>
   <g id="patch_10">
    <path d="M 71.511385 228.96 
L 72.758312 228.96 
L 72.758312 222.832617 
L 71.511385 222.832617 
z
" clip-path="url(#p8bdae32bef)" style="fill: #1f77b4"/>
   </g>
   <g id="patch_11">
    <path d="M 73.070044 228.96 
L 74.316971 228.96 
L 74.316971 222.726611 
L 73.070044 222.726611 
z
" clip-path="url(#p8bdae32bef)" style="fill: #1f77b4"/>
   </g>
   <g id="patch_12">
    <path d="M 74.628703 228.96 
L 75.875631 228.96 
L 75.875631 222.461014 
L 74.628703 222.461014 
z
" clip-path="url(#p8bdae32bef)" style="fill: #1f77b4"/>
   </g>
   <g id="patch_13">
    <path d="M 76.187362 228.96 
L 77.43429 228.96 
L 77.43429 222.188427 
L 76.187362 222.188427 
z
" clip-path="url(#p8bdae32bef)" style="fill: #1f77b4"/>
   </g>
   <g id="patch_14">
    <path d="M 77.746022 228.96 
L 78.992949 228.96 
L 78.992949 221.591997 
L 77.746022 221.591997 
z
" clip-path="url(#p8bdae32bef)" style="fill: #1f77b4"/>
   </g>
   <g id="patch_15">
    <path d="M 79.304681 228.96 
L 80.551608 228.96 
L 80.551608 220.897716 
L 79.304681 220.897716 
z
" clip-path="url(#p8bdae32bef)" style="fill: #1f77b4"/>
   </g>
   <g id="patch_16">
    <path d="M 80.86334 228.96 
L 82.110267 228.96 
L 82.110267 220.352542 
L 80.86334 220.352542 
z
" clip-path="url(#p8bdae32bef)" style="fill: #1f77b4"/>
   </g>
   <g id="patch_17">
    <path d="M 82.421999 228.96 
L 83.668927 228.96 
L 83.668927 219.673404 
L 82.421999 219.673404 
z
" clip-path="url(#p8bdae32bef)" style="fill: #1f77b4"/>
   </g>
   <g id="patch_18">
    <path d="M 83.980659 228.96 
L 85.227586 228.96 
L 85.227586 219.198124 
L 83.980659 219.198124 
z
" clip-path="url(#p8bdae32bef)" style="fill: #1f77b4"/>
   </g>
   <g id="patch_19">
    <path d="M 85.539318 228.96 
L 86.786245 228.96 
L 86.786245 218.467731 
L 85.539318 218.467731 
z
" clip-path="url(#p8bdae32bef)" style="fill: #1f77b4"/>
   </g>
   <g id="patch_20">
    <path d="M 87.097977 228.96 
L 88.344904 228.96 
L 88.344904 217.136248 
L 87.097977 217.136248 
z
" clip-path="url(#p8bdae32bef)" style="fill: #1f77b4"/>
   </g>
   <g id="patch_21">
    <path d="M 88.656636 228.96 
L 89.903564 228.96 
L 89.903564 215.900287 
L 88.656636 215.900287 
z
" clip-path="url(#p8bdae32bef)" style="fill: #1f77b4"/>
   </g>
   <g id="patch_22">
    <path d="M 90.215295 228.96 
L 91.462223 228.96 
L 91.462223 214.143616 
L 90.215295 214.143616 
z
" clip-path="url(#p8bdae32bef)" style="fill: #1f77b4"/>
   </g>
   <g id="patch_23">
    <path d="M 91.773955 228.96 
L 93.020882 228.96 
L 93.020882 212.13882 
L 91.773955 212.13882 
z
" clip-path="url(#p8bdae32bef)" style="fill: #1f77b4"/>
   </g>
   <g id="patch_24">
    <path d="M 93.332614 228.96 
L 94.579541 228.96 
L 94.579541 210.116551 
L 93.332614 210.116551 
z
" clip-path="url(#p8bdae32bef)" style="fill: #1f77b4"/>
   </g>
   <g id="patch_25">
    <path d="M 94.891273 228.96 
L 96.1382 228.96 
L 96.1382 208.737307 
L 94.891273 208.737307 
z
" clip-path="url(#p8bdae32bef)" style="fill: #1f77b4"/>
   </g>
   <g id="patch_26">
    <path d="M 96.449932 228.96 
L 97.69686 228.96 
L 97.69686 206.379546 
L 96.449932 206.379546 
z
" clip-path="url(#p8bdae32bef)" style="fill: #1f77b4"/>
   </g>
   <g id="patch_27">
    <path d="M 98.008592 228.96 
L 99.255519 228.96 
L 99.255519 203.926263 
L 98.008592 203.926263 
z
" clip-path="url(#p8bdae32bef)" style="fill: #1f77b4"/>
   </g>
   <g id="patch_28">
    <path d="M 99.567251 228.96 
L 100.814178 228.96 
L 100.814178 200.895189 
L 99.567251 200.895189 
z
" clip-path="url(#p8bdae32bef)" style="fill: #1f77b4"/>
   </g>
   <g id="patch_29">
    <path d="M 101.12591 228.96 
L 102.372837 228.96 
L 102.372837 198.279985 
L 101.12591 198.279985 
z
" clip-path="url(#p8bdae32bef)" style="fill: #1f77b4"/>
   </g>
   <g id="patch_30">
    <path d="M 102.684569 228.96 
L 103.931497 228.96 
L 103.931497 195.928048 
L 102.684569 195.928048 
z
" clip-path="url(#p8bdae32bef)" style="fill: #1f77b4"/>
   </g>
   <g id="patch_31">
    <path d="M 104.243228 228.96 
L 105.490156 228.96 
L 105.490156 194.045567 
L 104.243228 194.045567 
z
" clip-path="url(#p8bdae32bef)" style="fill: #1f77b4"/>
   </g>
   <g id="patch_32">
    <path d="M 105.801888 228.96 
L 107.048815 228.96 
L 107.048815 192.828245 
L 105.801888 192.828245 
z
" clip-path="url(#p8bdae32bef)" style="fill: #1f77b4"/>
   </g>
   <g id="patch_33">
    <path d="M 107.360547 228.96 
L 108.607474 228.96 
L 108.607474 191.70528 
L 107.360547 191.70528 
z
" clip-path="url(#p8bdae32bef)" style="fill: #1f77b4"/>
   </g>
   <g id="patch_34">
    <path d="M 108.919206 228.96 
L 110.166133 228.96 
L 110.166133 190.031316 
L 108.919206 190.031316 
z
" clip-path="url(#p8bdae32bef)" style="fill: #1f77b4"/>
   </g>
   <g id="patch_35">
    <path d="M 110.477865 228.96 
L 111.724793 228.96 
L 111.724793 188.733616 
L 110.477865 188.733616 
z
" clip-path="url(#p8bdae32bef)" style="fill: #1f77b4"/>
   </g>
   <g id="patch_36">
    <path d="M 112.036524 228.96 
L 113.283452 228.96 
L 113.283452 187.014221 
L 112.036524 187.014221 
z
" clip-path="url(#p8bdae32bef)" style="fill: #1f77b4"/>
   </g>
   <g id="patch_37">
    <path d="M 113.595184 228.96 
L 114.842111 228.96 
L 114.842111 185.414811 
L 113.595184 185.414811 
z
" clip-path="url(#p8bdae32bef)" style="fill: #1f77b4"/>
   </g>
   <g id="patch_38">
    <path d="M 115.153843 228.96 
L 116.40077 228.96 
L 116.40077 184.741498 
L 115.153843 184.741498 
z
" clip-path="url(#p8bdae32bef)" style="fill: #1f77b4"/>
   </g>
   <g id="patch_39">
    <path d="M 116.712502 228.96 
L 117.95943 228.96 
L 117.95943 184.65646 
L 116.712502 184.65646 
z
" clip-path="url(#p8bdae32bef)" style="fill: #1f77b4"/>
   </g>
   <g id="patch_40">
    <path d="M 118.271161 228.96 
L 119.518089 228.96 
L 119.518089 184.280197 
L 118.271161 184.280197 
z
" clip-path="url(#p8bdae32bef)" style="fill: #1f77b4"/>
   </g>
   <g id="patch_41">
    <path d="M 119.829821 228.96 
L 121.076748 228.96 
L 121.076748 183.231785 
L 119.829821 183.231785 
z
" clip-path="url(#p8bdae32bef)" style="fill: #1f77b4"/>
   </g>
   <g id="patch_42">
    <path d="M 121.38848 228.96 
L 122.635407 228.96 
L 122.635407 181.998154 
L 121.38848 181.998154 
z
" clip-path="url(#p8bdae32bef)" style="fill: #1f77b4"/>
   </g>
   <g id="patch_43">
    <path d="M 122.947139 228.96 
L 124.194066 228.96 
L 124.194066 182.021452 
L 122.947139 182.021452 
z
" clip-path="url(#p8bdae32bef)" style="fill: #1f77b4"/>
   </g>
   <g id="patch_44">
    <path d="M 124.505798 228.96 
L 125.752726 228.96 
L 125.752726 181.568306 
L 124.505798 181.568306 
z
" clip-path="url(#p8bdae32bef)" style="fill: #1f77b4"/>
   </g>
   <g id="patch_45">
    <path d="M 126.064457 228.96 
L 127.311385 228.96 
L 127.311385 181.086036 
L 126.064457 181.086036 
z
" clip-path="url(#p8bdae32bef)" style="fill: #1f77b4"/>
   </g>
   <g id="patch_46">
    <path d="M 127.623117 228.96 
L 128.870044 228.96 
L 128.870044 179.909486 
L 127.623117 179.909486 
z
" clip-path="url(#p8bdae32bef)" style="fill: #1f77b4"/>
   </g>
   <g id="patch_47">
    <path d="M 129.181776 228.96 
L 130.428703 228.96 
L 130.428703 178.988048 
L 129.181776 178.988048 
z
" clip-path="url(#p8bdae32bef)" style="fill: #1f77b4"/>
   </g>
   <g id="patch_48">
    <path d="M 130.740435 228.96 
L 131.987362 228.96 
L 131.987362 178.554705 
L 130.740435 178.554705 
z
" clip-path="url(#p8bdae32bef)" style="fill: #1f77b4"/>
   </g>
   <g id="patch_49">
    <path d="M 132.299094 228.96 
L 133.546022 228.96 
L 133.546022 178.508109 
L 132.299094 178.508109 
z
" clip-path="url(#p8bdae32bef)" style="fill: #1f77b4"/>
   </g>
   <g id="patch_50">
    <path d="M 133.857754 228.96 
L 135.104681 228.96 
L 135.104681 177.564539 
L 133.857754 177.564539 
z
" clip-path="url(#p8bdae32bef)" style="fill: #1f77b4"/>
   </g>
   <g id="patch_51">
    <path d="M 135.416413 228.96 
L 136.66334 228.96 
L 136.66334 177.231377 
L 135.416413 177.231377 
z
" clip-path="url(#p8bdae32bef)" style="fill: #1f77b4"/>
   </g>
   <g id="patch_52">
    <path d="M 136.975072 228.96 
L 138.221999 228.96 
L 138.221999 177.314085 
L 136.975072 177.314085 
z
" clip-path="url(#p8bdae32bef)" style="fill: #1f77b4"/>
   </g>
   <g id="patch_53">
    <path d="M 138.533731 228.96 
L 139.780659 228.96 
L 139.780659 177.926823 
L 138.533731 177.926823 
z
" clip-path="url(#p8bdae32bef)" style="fill: #1f77b4"/>
   </g>
   <g id="patch_54">
    <path d="M 140.09239 228.96 
L 141.339318 228.96 
L 141.339318 178.349682 
L 140.09239 178.349682 
z
" clip-path="url(#p8bdae32bef)" style="fill: #1f77b4"/>
   </g>
   <g id="patch_55">
    <path d="M 141.65105 228.96 
L 142.897977 228.96 
L 142.897977 178.123691 
L 141.65105 178.123691 
z
" clip-path="url(#p8bdae32bef)" style="fill: #1f77b4"/>
   </g>
   <g id="patch_56">
    <path d="M 143.209709 228.96 
L 144.456636 228.96 
L 144.456636 178.13534 
L 143.209709 178.13534 
z
" clip-path="url(#p8bdae32bef)" style="fill: #1f77b4"/>
   </g>
   <g id="patch_57">
    <path d="M 144.768368 228.96 
L 146.015295 228.96 
L 146.015295 178.350847 
L 144.768368 178.350847 
z
" clip-path="url(#p8bdae32bef)" style="fill: #1f77b4"/>
   </g>
   <g id="patch_58">
    <path d="M 146.327027 228.96 
L 147.573955 228.96 
L 147.573955 178.022345 
L 146.327027 178.022345 
z
" clip-path="url(#p8bdae32bef)" style="fill: #1f77b4"/>
   </g>
   <g id="patch_59">
    <path d="M 147.885686 228.96 
L 149.132614 228.96 
L 149.132614 177.720635 
L 147.885686 177.720635 
z
" clip-path="url(#p8bdae32bef)" style="fill: #1f77b4"/>
   </g>
   <g id="patch_60">
    <path d="M 149.444346 228.96 
L 150.691273 228.96 
L 150.691273 177.145174 
L 149.444346 177.145174 
z
" clip-path="url(#p8bdae32bef)" style="fill: #1f77b4"/>
   </g>
   <g id="patch_61">
    <path d="M 151.003005 228.96 
L 152.249932 228.96 
L 152.249932 176.209758 
L 151.003005 176.209758 
z
" clip-path="url(#p8bdae32bef)" style="fill: #1f77b4"/>
   </g>
   <g id="patch_62">
    <path d="M 152.561664 228.96 
L 153.808592 228.96 
L 153.808592 175.760106 
L 152.561664 175.760106 
z
" clip-path="url(#p8bdae32bef)" style="fill: #1f77b4"/>
   </g>
   <g id="patch_63">
    <path d="M 154.120323 228.96 
L 155.367251 228.96 
L 155.367251 175.805537 
L 154.120323 175.805537 
z
" clip-path="url(#p8bdae32bef)" style="fill: #1f77b4"/>
   </g>
   <g id="patch_64">
    <path d="M 155.678983 228.96 
L 156.92591 228.96 
L 156.92591 175.104266 
L 155.678983 175.104266 
z
" clip-path="url(#p8bdae32bef)" style="fill: #1f77b4"/>
   </g>
   <g id="patch_65">
    <path d="M 157.237642 228.96 
L 158.484569 228.96 
L 158.484569 175.814856 
L 157.237642 175.814856 
z
" clip-path="url(#p8bdae32bef)" style="fill: #1f77b4"/>
   </g>
   <g id="patch_66">
    <path d="M 158.796301 228.96 
L 160.043228 228.96 
L 160.043228 175.77292 
L 158.796301 175.77292 
z
" clip-path="url(#p8bdae32bef)" style="fill: #1f77b4"/>
   </g>
   <g id="patch_67">
    <path d="M 160.35496 228.96 
L 161.601888 228.96 
L 161.601888 175.669244 
L 160.35496 175.669244 
z
" clip-path="url(#p8bdae32bef)" style="fill: #1f77b4"/>
   </g>
   <g id="patch_68">
    <path d="M 161.913619 228.96 
L 163.160547 228.96 
L 163.160547 176.342557 
L 161.913619 176.342557 
z
" clip-path="url(#p8bdae32bef)" style="fill: #1f77b4"/>
   </g>
   <g id="patch_69">
    <path d="M 163.472279 228.96 
L 164.719206 228.96 
L 164.719206 177.559879 
L 163.472279 177.559879 
z
" clip-path="url(#p8bdae32bef)" style="fill: #1f77b4"/>
   </g>
   <g id="patch_70">
    <path d="M 165.030938 228.96 
L 166.277865 228.96 
L 166.277865 178.095734 
L 165.030938 178.095734 
z
" clip-path="url(#p8bdae32bef)" style="fill: #1f77b4"/>
   </g>
   <g id="patch_71">
    <path d="M 166.589597 228.96 
L 167.836524 228.96 
L 167.836524 179.366641 
L 166.589597 179.366641 
z
" clip-path="url(#p8bdae32bef)" style="fill: #1f77b4"/>
   </g>
   <g id="patch_72">
    <path d="M 168.148256 228.96 
L 169.395184 228.96 
L 169.395184 180.185567 
L 168.148256 180.185567 
z
" clip-path="url(#p8bdae32bef)" style="fill: #1f77b4"/>
   </g>
   <g id="patch_73">
    <path d="M 169.706916 228.96 
L 170.953843 228.96 
L 170.953843 180.935764 
L 169.706916 180.935764 
z
" clip-path="url(#p8bdae32bef)" style="fill: #1f77b4"/>
   </g>
   <g id="patch_74">
    <path d="M 171.265575 228.96 
L 172.512502 228.96 
L 172.512502 181.979516 
L 171.265575 181.979516 
z
" clip-path="url(#p8bdae32bef)" style="fill: #1f77b4"/>
   </g>
   <g id="patch_75">
    <path d="M 172.824234 228.96 
L 174.071161 228.96 
L 174.071161 182.885809 
L 172.824234 182.885809 
z
" clip-path="url(#p8bdae32bef)" style="fill: #1f77b4"/>
   </g>
   <g id="patch_76">
    <path d="M 174.382893 228.96 
L 175.629821 228.96 
L 175.629821 183.561452 
L 174.382893 183.561452 
z
" clip-path="url(#p8bdae32bef)" style="fill: #1f77b4"/>
   </g>
   <g id="patch_77">
    <path d="M 175.941552 228.96 
L 177.18848 228.96 
L 177.18848 185.004766 
L 175.941552 185.004766 
z
" clip-path="url(#p8bdae32bef)" style="fill: #1f77b4"/>
   </g>
   <g id="patch_78">
    <path d="M 177.500212 228.96 
L 178.747139 228.96 
L 178.747139 186.302466 
L 177.500212 186.302466 
z
" clip-path="url(#p8bdae32bef)" style="fill: #1f77b4"/>
   </g>
   <g id="patch_79">
    <path d="M 179.058871 228.96 
L 180.305798 228.96 
L 180.305798 187.425431 
L 179.058871 187.425431 
z
" clip-path="url(#p8bdae32bef)" style="fill: #1f77b4"/>
   </g>
   <g id="patch_80">
    <path d="M 180.61753 228.96 
L 181.864457 228.96 
L 181.864457 188.183782 
L 180.61753 188.183782 
z
" clip-path="url(#p8bdae32bef)" style="fill: #1f77b4"/>
   </g>
   <g id="patch_81">
    <path d="M 182.176189 228.96 
L 183.423117 228.96 
L 183.423117 188.837292 
L 182.176189 188.837292 
z
" clip-path="url(#p8bdae32bef)" style="fill: #1f77b4"/>
   </g>
   <g id="patch_82">
    <path d="M 183.734848 228.96 
L 184.981776 228.96 
L 184.981776 189.651558 
L 183.734848 189.651558 
z
" clip-path="url(#p8bdae32bef)" style="fill: #1f77b4"/>
   </g>
   <g id="patch_83">
    <path d="M 185.293508 228.96 
L 186.540435 228.96 
L 186.540435 190.924796 
L 185.293508 190.924796 
z
" clip-path="url(#p8bdae32bef)" style="fill: #1f77b4"/>
   </g>
   <g id="patch_84">
    <path d="M 186.852167 228.96 
L 188.099094 228.96 
L 188.099094 191.396581 
L 186.852167 191.396581 
z
" clip-path="url(#p8bdae32bef)" style="fill: #1f77b4"/>
   </g>
   <g id="patch_85">
    <path d="M 188.410826 228.96 
L 189.657754 228.96 
L 189.657754 192.641861 
L 188.410826 192.641861 
z
" clip-path="url(#p8bdae32bef)" style="fill: #1f77b4"/>
   </g>
   <g id="patch_86">
    <path d="M 189.969485 228.96 
L 191.216413 228.96 
L 191.216413 193.358275 
L 189.969485 193.358275 
z
" clip-path="url(#p8bdae32bef)" style="fill: #1f77b4"/>
   </g>
   <g id="patch_87">
    <path d="M 191.528145 228.96 
L 192.775072 228.96 
L 192.775072 194.320484 
L 191.528145 194.320484 
z
" clip-path="url(#p8bdae32bef)" style="fill: #1f77b4"/>
   </g>
   <g id="patch_88">
    <path d="M 193.086804 228.96 
L 194.333731 228.96 
L 194.333731 194.77829 
L 193.086804 194.77829 
z
" clip-path="url(#p8bdae32bef)" style="fill: #1f77b4"/>
   </g>
   <g id="patch_89">
    <path d="M 194.645463 228.96 
L 195.89239 228.96 
L 195.89239 195.528487 
L 194.645463 195.528487 
z
" clip-path="url(#p8bdae32bef)" style="fill: #1f77b4"/>
   </g>
   <g id="patch_90">
    <path d="M 196.204122 228.96 
L 197.45105 228.96 
L 197.45105 196.530303 
L 196.204122 196.530303 
z
" clip-path="url(#p8bdae32bef)" style="fill: #1f77b4"/>
   </g>
   <g id="patch_91">
    <path d="M 197.762781 228.96 
L 199.009709 228.96 
L 199.009709 197.760439 
L 197.762781 197.760439 
z
" clip-path="url(#p8bdae32bef)" style="fill: #1f77b4"/>
   </g>
   <g id="patch_92">
    <path d="M 199.321441 228.96 
L 200.568368 228.96 
L 200.568368 198.639939 
L 199.321441 198.639939 
z
" clip-path="url(#p8bdae32bef)" style="fill: #1f77b4"/>
   </g>
   <g id="patch_93">
    <path d="M 200.8801 228.96 
L 202.127027 228.96 
L 202.127027 199.866581 
L 200.8801 199.866581 
z
" clip-path="url(#p8bdae32bef)" style="fill: #1f77b4"/>
   </g>
   <g id="patch_94">
    <path d="M 202.438759 228.96 
L 203.685686 228.96 
L 203.685686 200.727443 
L 202.438759 200.727443 
z
" clip-path="url(#p8bdae32bef)" style="fill: #1f77b4"/>
   </g>
   <g id="patch_95">
    <path d="M 203.997418 228.96 
L 205.244346 228.96 
L 205.244346 201.467156 
L 203.997418 201.467156 
z
" clip-path="url(#p8bdae32bef)" style="fill: #1f77b4"/>
   </g>
   <g id="patch_96">
    <path d="M 205.556078 228.96 
L 206.803005 228.96 
L 206.803005 201.923797 
L 205.556078 201.923797 
z
" clip-path="url(#p8bdae32bef)" style="fill: #1f77b4"/>
   </g>
   <g id="patch_97">
    <path d="M 207.114737 228.96 
L 208.361664 228.96 
L 208.361664 202.806793 
L 207.114737 202.806793 
z
" clip-path="url(#p8bdae32bef)" style="fill: #1f77b4"/>
   </g>
   <g id="patch_98">
    <path d="M 208.673396 228.96 
L 209.920323 228.96 
L 209.920323 203.106172 
L 208.673396 203.106172 
z
" clip-path="url(#p8bdae32bef)" style="fill: #1f77b4"/>
   </g>
   <g id="patch_99">
    <path d="M 210.232055 228.96 
L 211.478983 228.96 
L 211.478983 203.562814 
L 210.232055 203.562814 
z
" clip-path="url(#p8bdae32bef)" style="fill: #1f77b4"/>
   </g>
   <g id="patch_100">
    <path d="M 211.790714 228.96 
L 213.037642 228.96 
L 213.037642 203.810938 
L 211.790714 203.810938 
z
" clip-path="url(#p8bdae32bef)" style="fill: #1f77b4"/>
   </g>
   <g id="patch_101">
    <path d="M 213.349374 228.96 
L 214.596301 228.96 
L 214.596301 203.96354 
L 213.349374 203.96354 
z
" clip-path="url(#p8bdae32bef)" style="fill: #1f77b4"/>
   </g>
   <g id="patch_102">
    <path d="M 214.908033 228.96 
L 216.15496 228.96 
L 216.15496 204.149924 
L 214.908033 204.149924 
z
" clip-path="url(#p8bdae32bef)" style="fill: #1f77b4"/>
   </g>
   <g id="patch_103">
    <path d="M 216.466692 228.96 
L 217.713619 228.96 
L 217.713619 204.754508 
L 216.466692 204.754508 
z
" clip-path="url(#p8bdae32bef)" style="fill: #1f77b4"/>
   </g>
   <g id="patch_104">
    <path d="M 218.025351 228.96 
L 219.272279 228.96 
L 219.272279 204.727716 
L 218.025351 204.727716 
z
" clip-path="url(#p8bdae32bef)" style="fill: #1f77b4"/>
   </g>
   <g id="patch_105">
    <path d="M 219.584011 228.96 
L 220.830938 228.96 
L 220.830938 205.73652 
L 219.584011 205.73652 
z
" clip-path="url(#p8bdae32bef)" style="fill: #1f77b4"/>
   </g>
   <g id="patch_106">
    <path d="M 221.14267 228.96 
L 222.389597 228.96 
L 222.389597 206.181513 
L 221.14267 206.181513 
z
" clip-path="url(#p8bdae32bef)" style="fill: #1f77b4"/>
   </g>
   <g id="patch_107">
    <path d="M 222.701329 228.96 
L 223.948256 228.96 
L 223.948256 206.838517 
L 222.701329 206.838517 
z
" clip-path="url(#p8bdae32bef)" style="fill: #1f77b4"/>
   </g>
   <g id="patch_108">
    <path d="M 224.259988 228.96 
L 225.506916 228.96 
L 225.506916 207.6423 
L 224.259988 207.6423 
z
" clip-path="url(#p8bdae32bef)" style="fill: #1f77b4"/>
   </g>
   <g id="patch_109">
    <path d="M 225.818647 228.96 
L 227.065575 228.96 
L 227.065575 207.75413 
L 225.818647 207.75413 
z
" clip-path="url(#p8bdae32bef)" style="fill: #1f77b4"/>
   </g>
   <g id="patch_110">
    <path d="M 227.377307 228.96 
L 228.624234 228.96 
L 228.624234 207.721513 
L 227.377307 207.721513 
z
" clip-path="url(#p8bdae32bef)" style="fill: #1f77b4"/>
   </g>
   <g id="patch_111">
    <path d="M 228.935966 228.96 
L 230.182893 228.96 
L 230.182893 208.260862 
L 228.935966 208.260862 
z
" clip-path="url(#p8bdae32bef)" style="fill: #1f77b4"/>
   </g>
   <g id="patch_112">
    <path d="M 230.494625 228.96 
L 231.741552 228.96 
L 231.741552 208.575386 
L 230.494625 208.575386 
z
" clip-path="url(#p8bdae32bef)" style="fill: #1f77b4"/>
   </g>
   <g id="patch_113">
    <path d="M 232.053284 228.96 
L 233.300212 228.96 
L 233.300212 208.914372 
L 232.053284 208.914372 
z
" clip-path="url(#p8bdae32bef)" style="fill: #1f77b4"/>
   </g>
   <g id="patch_114">
    <path d="M 233.611943 228.96 
L 234.858871 228.96 
L 234.858871 208.64062 
L 233.611943 208.64062 
z
" clip-path="url(#p8bdae32bef)" style="fill: #1f77b4"/>
   </g>
   <g id="patch_115">
    <path d="M 235.170603 228.96 
L 236.41753 228.96 
L 236.41753 208.455401 
L 235.170603 208.455401 
z
" clip-path="url(#p8bdae32bef)" style="fill: #1f77b4"/>
   </g>
   <g id="patch_116">
    <path d="M 236.729262 228.96 
L 237.976189 228.96 
L 237.976189 208.361044 
L 236.729262 208.361044 
z
" clip-path="url(#p8bdae32bef)" style="fill: #1f77b4"/>
   </g>
   <g id="patch_117">
    <path d="M 238.287921 228.96 
L 239.534848 228.96 
L 239.534848 208.124569 
L 238.287921 208.124569 
z
" clip-path="url(#p8bdae32bef)" style="fill: #1f77b4"/>
   </g>
   <g id="patch_118">
    <path d="M 239.84658 228.96 
L 241.093508 228.96 
L 241.093508 207.04121 
L 239.84658 207.04121 
z
" clip-path="url(#p8bdae32bef)" style="fill: #1f77b4"/>
   </g>
   <g id="patch_119">
    <path d="M 241.40524 228.96 
L 242.652167 228.96 
L 242.652167 205.729531 
L 241.40524 205.729531 
z
" clip-path="url(#p8bdae32bef)" style="fill: #1f77b4"/>
   </g>
   <g id="patch_120">
    <path d="M 242.963899 228.96 
L 244.210826 228.96 
L 244.210826 204.389894 
L 242.963899 204.389894 
z
" clip-path="url(#p8bdae32bef)" style="fill: #1f77b4"/>
   </g>
   <g id="patch_121">
    <path d="M 244.522558 228.96 
L 245.769485 228.96 
L 245.769485 203.31236 
L 244.522558 203.31236 
z
" clip-path="url(#p8bdae32bef)" style="fill: #1f77b4"/>
   </g>
   <g id="patch_122">
    <path d="M 246.081217 228.96 
L 247.328145 228.96 
L 247.328145 201.811967 
L 246.081217 201.811967 
z
" clip-path="url(#p8bdae32bef)" style="fill: #1f77b4"/>
   </g>
   <g id="patch_123">
    <path d="M 247.639876 228.96 
L 248.886804 228.96 
L 248.886804 200.719289 
L 247.639876 200.719289 
z
" clip-path="url(#p8bdae32bef)" style="fill: #1f77b4"/>
   </g>
   <g id="patch_124">
    <path d="M 249.198536 228.96 
L 250.445463 228.96 
L 250.445463 199.138517 
L 249.198536 199.138517 
z
" clip-path="url(#p8bdae32bef)" style="fill: #1f77b4"/>
   </g>
   <g id="patch_125">
    <path d="M 250.757195 228.96 
L 252.004122 228.96 
L 252.004122 198.094766 
L 250.757195 198.094766 
z
" clip-path="url(#p8bdae32bef)" style="fill: #1f77b4"/>
   </g>
   <g id="patch_126">
    <path d="M 252.315854 228.96 
L 253.562781 228.96 
L 253.562781 196.845991 
L 252.315854 196.845991 
z
" clip-path="url(#p8bdae32bef)" style="fill: #1f77b4"/>
   </g>
   <g id="patch_127">
    <path d="M 253.874513 228.96 
L 255.121441 228.96 
L 255.121441 195.153389 
L 253.874513 195.153389 
z
" clip-path="url(#p8bdae32bef)" style="fill: #1f77b4"/>
   </g>
   <g id="patch_128">
    <path d="M 255.433173 228.96 
L 256.6801 228.96 
L 256.6801 194.023434 
L 255.433173 194.023434 
z
" clip-path="url(#p8bdae32bef)" style="fill: #1f77b4"/>
   </g>
   <g id="patch_129">
    <path d="M 256.991832 228.96 
L 258.238759 228.96 
L 258.238759 193.090348 
L 256.991832 193.090348 
z
" clip-path="url(#p8bdae32bef)" style="fill: #1f77b4"/>
   </g>
   <g id="patch_130">
    <path d="M 258.550491 228.96 
L 259.797418 228.96 
L 259.797418 192.760681 
L 258.550491 192.760681 
z
" clip-path="url(#p8bdae32bef)" style="fill: #1f77b4"/>
   </g>
   <g id="patch_131">
    <path d="M 260.10915 228.96 
L 261.356078 228.96 
L 261.356078 194.181861 
L 260.10915 194.181861 
z
" clip-path="url(#p8bdae32bef)" style="fill: #1f77b4"/>
   </g>
   <g id="patch_132">
    <path d="M 261.667809 228.96 
L 262.914737 228.96 
L 262.914737 193.494569 
L 261.667809 193.494569 
z
" clip-path="url(#p8bdae32bef)" style="fill: #1f77b4"/>
   </g>
   <g id="patch_133">
    <path d="M 263.226469 228.96 
L 264.473396 228.96 
L 264.473396 192.284236 
L 263.226469 192.284236 
z
" clip-path="url(#p8bdae32bef)" style="fill: #1f77b4"/>
   </g>
   <g id="patch_134">
    <path d="M 264.785128 228.96 
L 266.032055 228.96 
L 266.032055 190.619592 
L 264.785128 190.619592 
z
" clip-path="url(#p8bdae32bef)" style="fill: #1f77b4"/>
   </g>
   <g id="patch_135">
    <path d="M 266.343787 228.96 
L 267.590714 228.96 
L 267.590714 188.422587 
L 266.343787 188.422587 
z
" clip-path="url(#p8bdae32bef)" style="fill: #1f77b4"/>
   </g>
   <g id="patch_136">
    <path d="M 267.902446 228.96 
L 269.149374 228.96 
L 269.149374 186.912874 
L 267.902446 186.912874 
z
" clip-path="url(#p8bdae32bef)" style="fill: #1f77b4"/>
   </g>
   <g id="patch_137">
    <path d="M 269.461105 228.96 
L 270.708033 228.96 
L 270.708033 185.306475 
L 269.461105 185.306475 
z
" clip-path="url(#p8bdae32bef)" style="fill: #1f77b4"/>
   </g>
   <g id="patch_138">
    <path d="M 271.019765 228.96 
L 272.266692 228.96 
L 272.266692 181.58112 
L 271.019765 181.58112 
z
" clip-path="url(#p8bdae32bef)" style="fill: #1f77b4"/>
   </g>
   <g id="patch_139">
    <path d="M 272.578424 228.96 
L 273.825351 228.96 
L 273.825351 178.43239 
L 272.578424 178.43239 
z
" clip-path="url(#p8bdae32bef)" style="fill: #1f77b4"/>
   </g>
   <g id="patch_140">
    <path d="M 274.137083 228.96 
L 275.384011 228.96 
L 275.384011 175.329092 
L 274.137083 175.329092 
z
" clip-path="url(#p8bdae32bef)" style="fill: #1f77b4"/>
   </g>
   <g id="patch_141">
    <path d="M 275.695742 228.96 
L 276.94267 228.96 
L 276.94267 173.288185 
L 275.695742 173.288185 
z
" clip-path="url(#p8bdae32bef)" style="fill: #1f77b4"/>
   </g>
   <g id="patch_142">
    <path d="M 277.254402 228.96 
L 278.501329 228.96 
L 278.501329 171.21466 
L 277.254402 171.21466 
z
" clip-path="url(#p8bdae32bef)" style="fill: #1f77b4"/>
   </g>
   <g id="patch_143">
    <path d="M 278.813061 228.96 
L 280.059988 228.96 
L 280.059988 169.179576 
L 278.813061 169.179576 
z
" clip-path="url(#p8bdae32bef)" style="fill: #1f77b4"/>
   </g>
   <g id="patch_144">
    <path d="M 280.37172 228.96 
L 281.618647 228.96 
L 281.618647 168.076415 
L 280.37172 168.076415 
z
" clip-path="url(#p8bdae32bef)" style="fill: #1f77b4"/>
   </g>
   <g id="patch_145">
    <path d="M 281.930379 228.96 
L 283.177307 228.96 
L 283.177307 166.135688 
L 281.930379 166.135688 
z
" clip-path="url(#p8bdae32bef)" style="fill: #1f77b4"/>
   </g>
   <g id="patch_146">
    <path d="M 283.489038 228.96 
L 284.735966 228.96 
L 284.735966 163.478548 
L 283.489038 163.478548 
z
" clip-path="url(#p8bdae32bef)" style="fill: #1f77b4"/>
   </g>
   <g id="patch_147">
    <path d="M 285.047698 228.96 
L 286.294625 228.96 
L 286.294625 161.068366 
L 285.047698 161.068366 
z
" clip-path="url(#p8bdae32bef)" style="fill: #1f77b4"/>
   </g>
   <g id="patch_148">
    <path d="M 286.606357 228.96 
L 287.853284 228.96 
L 287.853284 158.705946 
L 286.606357 158.705946 
z
" clip-path="url(#p8bdae32bef)" style="fill: #1f77b4"/>
   </g>
   <g id="patch_149">
    <path d="M 288.165016 228.96 
L 289.411943 228.96 
L 289.411943 155.198427 
L 288.165016 155.198427 
z
" clip-path="url(#p8bdae32bef)" style="fill: #1f77b4"/>
   </g>
   <g id="patch_150">
    <path d="M 289.723675 228.96 
L 290.970603 228.96 
L 290.970603 152.705537 
L 289.723675 152.705537 
z
" clip-path="url(#p8bdae32bef)" style="fill: #1f77b4"/>
   </g>
   <g id="patch_151">
    <path d="M 291.282335 228.96 
L 292.529262 228.96 
L 292.529262 151.237761 
L 291.282335 151.237761 
z
" clip-path="url(#p8bdae32bef)" style="fill: #1f77b4"/>
   </g>
   <g id="patch_152">
    <path d="M 292.840994 228.96 
L 294.087921 228.96 
L 294.087921 148.501407 
L 292.840994 148.501407 
z
" clip-path="url(#p8bdae32bef)" style="fill: #1f77b4"/>
   </g>
   <g id="patch_153">
    <path d="M 294.399653 228.96 
L 295.64658 228.96 
L 295.64658 145.850091 
L 294.399653 145.850091 
z
" clip-path="url(#p8bdae32bef)" style="fill: #1f77b4"/>
   </g>
   <g id="patch_154">
    <path d="M 295.958312 228.96 
L 297.20524 228.96 
L 297.20524 142.208608 
L 295.958312 142.208608 
z
" clip-path="url(#p8bdae32bef)" style="fill: #1f77b4"/>
   </g>
   <g id="patch_155">
    <path d="M 297.516971 228.96 
L 298.763899 228.96 
L 298.763899 138.548487 
L 297.516971 138.548487 
z
" clip-path="url(#p8bdae32bef)" style="fill: #1f77b4"/>
   </g>
   <g id="patch_156">
    <path d="M 299.075631 228.96 
L 300.322558 228.96 
L 300.322558 137.008487 
L 299.075631 137.008487 
z
" clip-path="url(#p8bdae32bef)" style="fill: #1f77b4"/>
   </g>
   <g id="patch_157">
    <path d="M 300.63429 228.96 
L 301.881217 228.96 
L 301.881217 133.254009 
L 300.63429 133.254009 
z
" clip-path="url(#p8bdae32bef)" style="fill: #1f77b4"/>
   </g>
   <g id="patch_158">
    <path d="M 302.192949 228.96 
L 303.439876 228.96 
L 303.439876 131.423949 
L 302.192949 131.423949 
z
" clip-path="url(#p8bdae32bef)" style="fill: #1f77b4"/>
   </g>
   <g id="patch_159">
    <path d="M 303.751608 228.96 
L 304.998536 228.96 
L 304.998536 128.258911 
L 303.751608 128.258911 
z
" clip-path="url(#p8bdae32bef)" style="fill: #1f77b4"/>
   </g>
   <g id="patch_160">
    <path d="M 305.310267 228.96 
L 306.557195 228.96 
L 306.557195 125.187065 
L 305.310267 125.187065 
z
" clip-path="url(#p8bdae32bef)" style="fill: #1f77b4"/>
   </g>
   <g id="patch_161">
    <path d="M 306.868927 228.96 
L 308.115854 228.96 
L 308.115854 121.643434 
L 306.868927 121.643434 
z
" clip-path="url(#p8bdae32bef)" style="fill: #1f77b4"/>
   </g>
   <g id="patch_162">
    <path d="M 308.427586 228.96 
L 309.674513 228.96 
L 309.674513 117.748003 
L 308.427586 117.748003 
z
" clip-path="url(#p8bdae32bef)" style="fill: #1f77b4"/>
   </g>
   <g id="patch_163">
    <path d="M 309.986245 228.96 
L 311.233173 228.96 
L 311.233173 113.373797 
L 309.986245 113.373797 
z
" clip-path="url(#p8bdae32bef)" style="fill: #1f77b4"/>
   </g>
   <g id="patch_164">
    <path d="M 311.544904 228.96 
L 312.791832 228.96 
L 312.791832 110.940318 
L 311.544904 110.940318 
z
" clip-path="url(#p8bdae32bef)" style="fill: #1f77b4"/>
   </g>
   <g id="patch_165">
    <path d="M 313.103564 228.96 
L 314.350491 228.96 
L 314.350491 109.160348 
L 313.103564 109.160348 
z
" clip-path="url(#p8bdae32bef)" style="fill: #1f77b4"/>
   </g>
   <g id="patch_166">
    <path d="M 314.662223 228.96 
L 315.90915 228.96 
L 315.90915 105.674962 
L 314.662223 105.674962 
z
" clip-path="url(#p8bdae32bef)" style="fill: #1f77b4"/>
   </g>
   <g id="patch_167">
    <path d="M 316.220882 228.96 
L 317.467809 228.96 
L 317.467809 102.327035 
L 316.220882 102.327035 
z
" clip-path="url(#p8bdae32bef)" style="fill: #1f77b4"/>
   </g>
   <g id="patch_168">
    <path d="M 317.779541 228.96 
L 319.026469 228.96 
L 319.026469 107.311649 
L 317.779541 107.311649 
z
" clip-path="url(#p8bdae32bef)" style="fill: #1f77b4"/>
   </g>
   <g id="patch_169">
    <path d="M 319.3382 228.96 
L 320.585128 228.96 
L 320.585128 103.272935 
L 319.3382 103.272935 
z
" clip-path="url(#p8bdae32bef)" style="fill: #1f77b4"/>
   </g>
   <g id="patch_170">
    <path d="M 320.89686 228.96 
L 322.143787 228.96 
L 322.143787 98.135719 
L 320.89686 98.135719 
z
" clip-path="url(#p8bdae32bef)" style="fill: #1f77b4"/>
   </g>
   <g id="patch_171">
    <path d="M 322.455519 228.96 
L 323.702446 228.96 
L 323.702446 93.250121 
L 322.455519 93.250121 
z
" clip-path="url(#p8bdae32bef)" style="fill: #1f77b4"/>
   </g>
   <g id="patch_172">
    <path d="M 324.014178 228.96 
L 325.261105 228.96 
L 325.261105 89.511952 
L 324.014178 89.511952 
z
" clip-path="url(#p8bdae32bef)" style="fill: #1f77b4"/>
   </g>
   <g id="patch_173">
    <path d="M 325.572837 228.96 
L 326.819765 228.96 
L 326.819765 83.77947 
L 325.572837 83.77947 
z
" clip-path="url(#p8bdae32bef)" style="fill: #1f77b4"/>
   </g>
   <g id="patch_174">
    <path d="M 327.131497 228.96 
L 328.378424 228.96 
L 328.378424 77.680045 
L 327.131497 77.680045 
z
" clip-path="url(#p8bdae32bef)" style="fill: #1f77b4"/>
   </g>
   <g id="patch_175">
    <path d="M 328.690156 228.96 
L 329.937083 228.96 
L 329.937083 61.858351 
L 328.690156 61.858351 
z
" clip-path="url(#p8bdae32bef)" style="fill: #1f77b4"/>
   </g>
   <g id="patch_176">
    <path d="M 330.248815 228.96 
L 331.495742 228.96 
L 331.495742 52.381876 
L 330.248815 52.381876 
z
" clip-path="url(#p8bdae32bef)" style="fill: #1f77b4"/>
   </g>
   <g id="patch_177">
    <path d="M 331.807474 228.96 
L 333.054402 228.96 
L 333.054402 44.201936 
L 331.807474 44.201936 
z
" clip-path="url(#p8bdae32bef)" style="fill: #1f77b4"/>
   </g>
   <g id="patch_178">
    <path d="M 333.366133 228.96 
L 334.613061 228.96 
L 334.613061 38.326172 
L 333.366133 38.326172 
z
" clip-path="url(#p8bdae32bef)" style="fill: #1f77b4"/>
   </g>
   <g id="patch_179">
    <path d="M 334.924793 228.96 
L 336.17172 228.96 
L 336.17172 34.247852 
L 334.924793 34.247852 
z
" clip-path="url(#p8bdae32bef)" style="fill: #1f77b4"/>
   </g>
   <g id="patch_180">
    <path d="M 336.483452 228.96 
L 337.730379 228.96 
L 337.730379 22.457882 
L 336.483452 22.457882 
z
" clip-path="url(#p8bdae32bef)" style="fill: #1f77b4"/>
   </g>
   <g id="patch_181">
    <path d="M 338.042111 228.96 
L 339.289038 228.96 
L 339.289038 7.2 
L 338.042111 7.2 
z
" clip-path="url(#p8bdae32bef)" style="fill: #1f77b4"/>
   </g>
   <g id="matplotlib.axis_1">
    <g id="xtick_1">
     <g id="line2d_1">
      <defs>
       <path id="m001f807e97" d="M 0 0 
L 0 3.5 
" style="stroke: #000000; stroke-width: 0.8"/>
      </defs>
      <g>
       <use xlink:href="#m001f807e97" x="67.458871" y="228.96" style="stroke: #000000; stroke-width: 0.8"/>
      </g>
     </g>
     <g id="text_1">
      <!-- $\mathdefault{2021{-}07}$ -->
      <g transform="translate(69.618284 274.166609)rotate(-90)scale(0.1 -0.1)">
       <defs>
        <path id="URWPalladioL-Roma-32" d="M 102 160 
L 102 0 
C 1299 0 1299 0 1530 0 
C 1760 0 1760 0 2995 0 
C 2982 125 2982 186 2982 269 
C 2982 348 2982 407 2995 539 
C 2259 539 1965 539 781 539 
L 1946 1761 
C 2566 2414 2758 2763 2758 3238 
C 2758 3966 2259 4416 1446 4416 
C 986 4416 672 4288 358 3969 
L 250 3099 
L 435 3099 
L 518 3393 
C 621 3763 851 3923 1280 3923 
C 1830 3923 2182 3577 2182 3035 
C 2182 2555 1914 2083 1190 1316 
L 102 160 
z
" transform="scale(0.015625)"/>
        <path id="URWPalladioL-Roma-30" d="M 1683 4416 
C 691 4416 186 3628 186 2077 
C 186 1326 320 680 544 366 
C 768 51 1126 -128 1523 -128 
C 2490 -128 2976 705 2976 2346 
C 2976 3749 2560 4416 1683 4416 
z
M 1568 4192 
C 2189 4192 2438 3564 2438 2025 
C 2438 661 2195 96 1606 96 
C 986 96 723 744 723 2308 
C 723 3660 960 4192 1568 4192 
z
" transform="scale(0.015625)"/>
        <path id="URWPalladioL-Roma-31" d="M 429 3584 
L 493 3584 
L 1318 3956 
C 1325 3962 1331 3962 1338 3962 
C 1376 3962 1389 3905 1389 3751 
L 1389 613 
C 1389 276 1318 205 973 205 
L 614 205 
L 614 0 
C 1600 0 1600 0 1670 0 
C 1754 0 1894 0 2112 0 
C 2189 0 2413 0 2675 0 
L 2675 205 
L 2342 205 
C 1990 205 1926 276 1926 612 
L 1926 4443 
L 1837 4475 
C 1421 4257 966 4065 384 3860 
L 429 3584 
z
" transform="scale(0.015625)"/>
        <path id="CMSY10-0" d="M 4218 1472 
C 4326 1472 4442 1472 4442 1600 
C 4442 1728 4326 1728 4218 1728 
L 755 1728 
C 646 1728 531 1728 531 1600 
C 531 1472 646 1472 755 1472 
L 4218 1472 
z
" transform="scale(0.015625)"/>
        <path id="URWPalladioL-Roma-37" d="M 358 32 
L 416 -51 
C 666 -32 666 -32 710 -32 
C 755 -32 755 -32 1005 -51 
C 1274 649 1587 1317 2010 2087 
L 3181 4199 
L 3181 4372 
C 2490 4372 2266 4372 1747 4372 
C 1280 4372 966 4372 346 4372 
L 282 4359 
C 301 3750 301 3750 301 3685 
C 301 3614 301 3614 282 3031 
L 474 3031 
L 518 3390 
C 570 3789 614 3840 909 3840 
L 2618 3840 
C 2362 3313 2163 2941 1920 2549 
L 358 32 
z
" transform="scale(0.015625)"/>
       </defs>
       <use xlink:href="#URWPalladioL-Roma-32" transform="scale(0.996264)"/>
       <use xlink:href="#URWPalladioL-Roma-30" transform="translate(49.8132 0)scale(0.996264)"/>
       <use xlink:href="#URWPalladioL-Roma-32" transform="translate(99.626401 0)scale(0.996264)"/>
       <use xlink:href="#URWPalladioL-Roma-31" transform="translate(149.439601 0)scale(0.996264)"/>
       <use xlink:href="#CMSY10-0" transform="translate(200.498102 0)scale(1.038107)"/>
       <use xlink:href="#URWPalladioL-Roma-30" transform="translate(282.439798 0)scale(0.996264)"/>
       <use xlink:href="#URWPalladioL-Roma-37" transform="translate(332.252998 0)scale(0.996264)"/>
      </g>
     </g>
    </g>
    <g id="xtick_2">
     <g id="line2d_2">
      <g>
       <use xlink:href="#m001f807e97" x="115.777307" y="228.96" style="stroke: #000000; stroke-width: 0.8"/>
      </g>
     </g>
     <g id="text_2">
      <!-- $\mathdefault{2021{-}08}$ -->
      <g transform="translate(117.93672 274.166609)rotate(-90)scale(0.1 -0.1)">
       <defs>
        <path id="URWPalladioL-Roma-38" d="M 1075 2211 
C 813 2090 704 2019 563 1884 
C 320 1641 192 1352 192 1019 
C 192 359 723 -128 1446 -128 
C 2278 -128 2970 526 2970 1320 
C 2970 1833 2733 2109 2003 2442 
C 2586 2840 2790 3109 2790 3493 
C 2790 4044 2336 4416 1658 4416 
C 896 4416 339 3929 339 3257 
C 339 2821 512 2577 1075 2211 
z
M 1818 1891 
C 2221 1711 2464 1397 2464 1052 
C 2464 513 2061 90 1542 90 
C 998 90 646 475 646 1071 
C 646 1538 832 1833 1306 2122 
L 1818 1891 
z
M 1427 2712 
C 1024 2910 819 3167 819 3487 
C 819 3910 1126 4198 1581 4198 
C 2048 4198 2355 3891 2355 3422 
C 2355 3058 2195 2808 1779 2538 
L 1427 2712 
z
" transform="scale(0.015625)"/>
       </defs>
       <use xlink:href="#URWPalladioL-Roma-32" transform="scale(0.996264)"/>
       <use xlink:href="#URWPalladioL-Roma-30" transform="translate(49.8132 0)scale(0.996264)"/>
       <use xlink:href="#URWPalladioL-Roma-32" transform="translate(99.626401 0)scale(0.996264)"/>
       <use xlink:href="#URWPalladioL-Roma-31" transform="translate(149.439601 0)scale(0.996264)"/>
       <use xlink:href="#CMSY10-0" transform="translate(200.498102 0)scale(1.038107)"/>
       <use xlink:href="#URWPalladioL-Roma-30" transform="translate(282.439798 0)scale(0.996264)"/>
       <use xlink:href="#URWPalladioL-Roma-38" transform="translate(332.252998 0)scale(0.996264)"/>
      </g>
     </g>
    </g>
    <g id="xtick_3">
     <g id="line2d_3">
      <g>
       <use xlink:href="#m001f807e97" x="164.095742" y="228.96" style="stroke: #000000; stroke-width: 0.8"/>
      </g>
     </g>
     <g id="text_3">
      <!-- $\mathdefault{2021{-}09}$ -->
      <g transform="translate(166.255156 274.166609)rotate(-90)scale(0.1 -0.1)">
       <defs>
        <path id="URWPalladioL-Roma-39" d="M 614 -106 
C 1325 125 1632 272 1978 566 
C 2598 1098 2925 1835 2925 2693 
C 2925 3776 2406 4435 1562 4435 
C 742 4435 128 3795 128 2938 
C 128 2201 608 1664 1274 1664 
C 1491 1664 1741 1734 1856 1830 
L 2304 2202 
C 2253 1125 1555 336 397 54 
L 397 3 
L 614 -106 
z
M 1536 4224 
C 1824 4224 2035 4102 2176 3846 
C 2291 3641 2368 3328 2368 3040 
C 2368 2451 2029 2055 1536 2055 
C 1024 2055 678 2509 678 3174 
C 678 3821 1011 4224 1536 4224 
z
" transform="scale(0.015625)"/>
       </defs>
       <use xlink:href="#URWPalladioL-Roma-32" transform="scale(0.996264)"/>
       <use xlink:href="#URWPalladioL-Roma-30" transform="translate(49.8132 0)scale(0.996264)"/>
       <use xlink:href="#URWPalladioL-Roma-32" transform="translate(99.626401 0)scale(0.996264)"/>
       <use xlink:href="#URWPalladioL-Roma-31" transform="translate(149.439601 0)scale(0.996264)"/>
       <use xlink:href="#CMSY10-0" transform="translate(200.498102 0)scale(1.038107)"/>
       <use xlink:href="#URWPalladioL-Roma-30" transform="translate(282.439798 0)scale(0.996264)"/>
       <use xlink:href="#URWPalladioL-Roma-39" transform="translate(332.252998 0)scale(0.996264)"/>
      </g>
     </g>
    </g>
    <g id="xtick_4">
     <g id="line2d_4">
      <g>
       <use xlink:href="#m001f807e97" x="210.855519" y="228.96" style="stroke: #000000; stroke-width: 0.8"/>
      </g>
     </g>
     <g id="text_4">
      <!-- $\mathdefault{2021{-}10}$ -->
      <g transform="translate(213.014932 274.166609)rotate(-90)scale(0.1 -0.1)">
       <use xlink:href="#URWPalladioL-Roma-32" transform="scale(0.996264)"/>
       <use xlink:href="#URWPalladioL-Roma-30" transform="translate(49.8132 0)scale(0.996264)"/>
       <use xlink:href="#URWPalladioL-Roma-32" transform="translate(99.626401 0)scale(0.996264)"/>
       <use xlink:href="#URWPalladioL-Roma-31" transform="translate(149.439601 0)scale(0.996264)"/>
       <use xlink:href="#CMSY10-0" transform="translate(200.498102 0)scale(1.038107)"/>
       <use xlink:href="#URWPalladioL-Roma-31" transform="translate(282.439798 0)scale(0.996264)"/>
       <use xlink:href="#URWPalladioL-Roma-30" transform="translate(332.252998 0)scale(0.996264)"/>
      </g>
     </g>
    </g>
    <g id="xtick_5">
     <g id="line2d_5">
      <g>
       <use xlink:href="#m001f807e97" x="259.173955" y="228.96" style="stroke: #000000; stroke-width: 0.8"/>
      </g>
     </g>
     <g id="text_5">
      <!-- $\mathdefault{2021{-}11}$ -->
      <g transform="translate(261.333368 274.166609)rotate(-90)scale(0.1 -0.1)">
       <use xlink:href="#URWPalladioL-Roma-32" transform="scale(0.996264)"/>
       <use xlink:href="#URWPalladioL-Roma-30" transform="translate(49.8132 0)scale(0.996264)"/>
       <use xlink:href="#URWPalladioL-Roma-32" transform="translate(99.626401 0)scale(0.996264)"/>
       <use xlink:href="#URWPalladioL-Roma-31" transform="translate(149.439601 0)scale(0.996264)"/>
       <use xlink:href="#CMSY10-0" transform="translate(200.498102 0)scale(1.038107)"/>
       <use xlink:href="#URWPalladioL-Roma-31" transform="translate(282.439798 0)scale(0.996264)"/>
       <use xlink:href="#URWPalladioL-Roma-31" transform="translate(332.252998 0)scale(0.996264)"/>
      </g>
     </g>
    </g>
    <g id="xtick_6">
     <g id="line2d_6">
      <g>
       <use xlink:href="#m001f807e97" x="305.933731" y="228.96" style="stroke: #000000; stroke-width: 0.8"/>
      </g>
     </g>
     <g id="text_6">
      <!-- $\mathdefault{2021{-}12}$ -->
      <g transform="translate(308.093144 274.166609)rotate(-90)scale(0.1 -0.1)">
       <use xlink:href="#URWPalladioL-Roma-32" transform="scale(0.996264)"/>
       <use xlink:href="#URWPalladioL-Roma-30" transform="translate(49.8132 0)scale(0.996264)"/>
       <use xlink:href="#URWPalladioL-Roma-32" transform="translate(99.626401 0)scale(0.996264)"/>
       <use xlink:href="#URWPalladioL-Roma-31" transform="translate(149.439601 0)scale(0.996264)"/>
       <use xlink:href="#CMSY10-0" transform="translate(200.498102 0)scale(1.038107)"/>
       <use xlink:href="#URWPalladioL-Roma-31" transform="translate(282.439798 0)scale(0.996264)"/>
       <use xlink:href="#URWPalladioL-Roma-32" transform="translate(332.252998 0)scale(0.996264)"/>
      </g>
     </g>
    </g>
   </g>
   <g id="matplotlib.axis_2">
    <g id="ytick_1">
     <g id="line2d_7">
      <defs>
       <path id="mff777e1ca5" d="M 0 0 
L -3.5 0 
" style="stroke: #000000; stroke-width: 0.8"/>
      </defs>
      <g>
       <use xlink:href="#mff777e1ca5" x="60.444904" y="228.96" style="stroke: #000000; stroke-width: 0.8"/>
      </g>
     </g>
     <g id="text_7">
      <!-- $\mathdefault{0}$ -->
      <g transform="translate(48.463584 232.524119)scale(0.1 -0.1)">
       <use xlink:href="#URWPalladioL-Roma-30" transform="scale(0.996264)"/>
      </g>
     </g>
    </g>
    <g id="ytick_2">
     <g id="line2d_8">
      <g>
       <use xlink:href="#mff777e1ca5" x="60.444904" y="193.803268" style="stroke: #000000; stroke-width: 0.8"/>
      </g>
     </g>
     <g id="text_8">
      <!-- $\mathdefault{50}$ -->
      <g transform="translate(43.482264 197.367386)scale(0.1 -0.1)">
       <defs>
        <path id="URWPalladioL-Roma-35" d="M 813 3877 
C 1638 3877 1997 3877 2765 3877 
L 2797 3907 
C 2784 4016 2784 4064 2784 4144 
C 2784 4229 2784 4277 2797 4386 
L 2765 4416 
C 2285 4416 1997 4416 1651 4416 
C 1299 4416 1018 4416 538 4416 
L 506 4403 
C 512 4011 518 3729 518 3523 
C 518 2977 499 2360 480 2077 
L 608 2038 
C 909 2341 1082 2432 1395 2432 
C 2010 2432 2394 1993 2394 1296 
C 2394 580 1984 160 1286 160 
C 941 160 621 277 531 444 
L 237 973 
L 83 883 
C 230 516 307 310 397 27 
C 576 -71 832 -128 1107 -128 
C 1536 -128 1990 59 2342 368 
C 2733 716 2938 1154 2938 1630 
C 2938 2359 2419 2874 1690 2874 
C 1382 2874 1152 2791 755 2554 
L 813 3877 
z
" transform="scale(0.015625)"/>
       </defs>
       <use xlink:href="#URWPalladioL-Roma-35" transform="scale(0.996264)"/>
       <use xlink:href="#URWPalladioL-Roma-30" transform="translate(49.8132 0)scale(0.996264)"/>
      </g>
     </g>
    </g>
    <g id="ytick_3">
     <g id="line2d_9">
      <g>
       <use xlink:href="#mff777e1ca5" x="60.444904" y="158.646536" style="stroke: #000000; stroke-width: 0.8"/>
      </g>
     </g>
     <g id="text_9">
      <!-- $\mathdefault{100}$ -->
      <g transform="translate(38.500944 162.210654)scale(0.1 -0.1)">
       <use xlink:href="#URWPalladioL-Roma-31" transform="scale(0.996264)"/>
       <use xlink:href="#URWPalladioL-Roma-30" transform="translate(49.8132 0)scale(0.996264)"/>
       <use xlink:href="#URWPalladioL-Roma-30" transform="translate(99.626401 0)scale(0.996264)"/>
      </g>
     </g>
    </g>
    <g id="ytick_4">
     <g id="line2d_10">
      <g>
       <use xlink:href="#mff777e1ca5" x="60.444904" y="123.489803" style="stroke: #000000; stroke-width: 0.8"/>
      </g>
     </g>
     <g id="text_10">
      <!-- $\mathdefault{150}$ -->
      <g transform="translate(38.500944 127.053922)scale(0.1 -0.1)">
       <use xlink:href="#URWPalladioL-Roma-31" transform="scale(0.996264)"/>
       <use xlink:href="#URWPalladioL-Roma-35" transform="translate(49.8132 0)scale(0.996264)"/>
       <use xlink:href="#URWPalladioL-Roma-30" transform="translate(99.626401 0)scale(0.996264)"/>
      </g>
     </g>
    </g>
    <g id="ytick_5">
     <g id="line2d_11">
      <g>
       <use xlink:href="#mff777e1ca5" x="60.444904" y="88.333071" style="stroke: #000000; stroke-width: 0.8"/>
      </g>
     </g>
     <g id="text_11">
      <!-- $\mathdefault{200}$ -->
      <g transform="translate(38.500944 91.89719)scale(0.1 -0.1)">
       <use xlink:href="#URWPalladioL-Roma-32" transform="scale(0.996264)"/>
       <use xlink:href="#URWPalladioL-Roma-30" transform="translate(49.8132 0)scale(0.996264)"/>
       <use xlink:href="#URWPalladioL-Roma-30" transform="translate(99.626401 0)scale(0.996264)"/>
      </g>
     </g>
    </g>
    <g id="ytick_6">
     <g id="line2d_12">
      <g>
       <use xlink:href="#mff777e1ca5" x="60.444904" y="53.176339" style="stroke: #000000; stroke-width: 0.8"/>
      </g>
     </g>
     <g id="text_12">
      <!-- $\mathdefault{250}$ -->
      <g transform="translate(38.500944 56.740458)scale(0.1 -0.1)">
       <use xlink:href="#URWPalladioL-Roma-32" transform="scale(0.996264)"/>
       <use xlink:href="#URWPalladioL-Roma-35" transform="translate(49.8132 0)scale(0.996264)"/>
       <use xlink:href="#URWPalladioL-Roma-30" transform="translate(99.626401 0)scale(0.996264)"/>
      </g>
     </g>
    </g>
    <g id="ytick_7">
     <g id="line2d_13">
      <g>
       <use xlink:href="#mff777e1ca5" x="60.444904" y="18.019607" style="stroke: #000000; stroke-width: 0.8"/>
      </g>
     </g>
     <g id="text_13">
      <!-- $\mathdefault{300}$ -->
      <g transform="translate(38.500944 21.583725)scale(0.1 -0.1)">
       <defs>
        <path id="URWPalladioL-Roma-33" d="M 275 3197 
L 474 3197 
L 589 3554 
C 659 3770 1062 3987 1395 3987 
C 1811 3987 2150 3649 2150 3248 
C 2150 2770 1773 2368 1318 2368 
C 1267 2368 1197 2368 1114 2381 
L 1018 2381 
L 941 2047 
L 986 2008 
C 1229 2118 1350 2150 1523 2150 
C 2054 2150 2362 1809 2362 1222 
C 2362 566 1971 135 1376 135 
C 1082 135 819 231 627 411 
C 474 553 390 701 269 1049 
L 96 985 
C 230 593 282 361 320 39 
C 659 -77 941 -128 1178 -128 
C 1690 -128 2278 161 2630 593 
C 2848 857 2957 1140 2957 1442 
C 2957 1751 2829 2022 2598 2182 
C 2438 2298 2291 2350 1971 2407 
C 2483 2803 2675 3096 2675 3472 
C 2675 4040 2202 4416 1491 4416 
C 1056 4416 768 4295 461 3989 
L 275 3197 
z
" transform="scale(0.015625)"/>
       </defs>
       <use xlink:href="#URWPalladioL-Roma-33" transform="scale(0.996264)"/>
       <use xlink:href="#URWPalladioL-Roma-30" transform="translate(49.8132 0)scale(0.996264)"/>
       <use xlink:href="#URWPalladioL-Roma-30" transform="translate(99.626401 0)scale(0.996264)"/>
      </g>
     </g>
    </g>
    <g id="text_14">
     <!-- case incidence (WHO) -->
     <g transform="translate(14.328237 167.065836)rotate(-90)scale(0.1 -0.1)">
      <defs>
       <path id="URWPalladioL-Roma-63" d="M 2554 1994 
C 2554 2289 2586 2552 2643 2783 
C 2387 2937 2163 3008 1901 3008 
C 1594 3008 1235 2886 851 2642 
C 403 2360 166 1911 166 1347 
C 166 481 774 -128 1632 -128 
C 1965 -128 2445 -6 2509 90 
L 2643 295 
L 2579 391 
C 2342 263 2138 205 1907 205 
C 1197 205 730 757 730 1603 
C 730 2289 1050 2674 1626 2674 
C 1907 2674 2214 2546 2330 2386 
L 2374 1994 
L 2554 1994 
z
" transform="scale(0.015625)"/>
       <path id="URWPalladioL-Roma-61" d="M 2074 538 
L 2042 -1 
C 2458 -1 2458 -1 2541 -1 
C 2573 -1 2733 -1 3014 -1 
L 3014 192 
L 2765 192 
C 2611 192 2586 244 2586 558 
L 2586 1731 
C 2586 2668 2317 3008 1574 3008 
C 1299 3008 1043 2937 800 2791 
L 461 2585 
L 461 2171 
L 627 2126 
L 710 2323 
C 845 2623 909 2668 1203 2668 
C 1805 2668 2054 2431 2074 1852 
L 1440 1736 
C 570 1577 205 1277 205 722 
C 205 224 506 -64 1011 -64 
C 1126 -64 1235 -45 1280 -13 
L 2074 538 
z
M 2074 806 
C 1888 544 1485 302 1235 302 
C 979 302 755 538 755 812 
C 755 1048 883 1271 1075 1392 
C 1235 1488 1587 1577 2074 1648 
L 2074 806 
z
" transform="scale(0.015625)"/>
       <path id="URWPalladioL-Roma-73" d="M 262 917 
C 262 475 243 282 192 26 
C 525 -83 774 -128 1069 -128 
C 1907 -128 2502 321 2502 949 
C 2502 1148 2445 1295 2323 1424 
C 2157 1584 1946 1661 1382 1770 
C 858 1873 685 2001 685 2296 
C 685 2616 909 2796 1299 2796 
C 1728 2796 2054 2572 2054 2270 
L 2054 2123 
L 2234 2123 
C 2240 2495 2246 2648 2266 2847 
C 1926 2963 1696 3008 1434 3008 
C 691 3008 237 2655 237 2078 
C 237 1770 378 1552 672 1417 
C 845 1340 1184 1238 1619 1141 
C 1907 1077 2029 943 2029 699 
C 2029 353 1709 109 1254 109 
C 787 109 454 333 454 654 
L 454 917 
L 262 917 
z
" transform="scale(0.015625)"/>
       <path id="URWPalladioL-Roma-65" d="M 2797 447 
L 2714 511 
C 2304 269 2157 212 1882 212 
C 1466 212 1120 398 941 711 
C 819 921 774 1101 762 1472 
L 1696 1472 
C 2138 1472 2413 1472 2854 1544 
C 2861 1634 2867 1693 2867 1771 
C 2867 2520 2394 3008 1677 3008 
C 1440 3008 1165 2924 902 2770 
C 378 2469 166 2071 166 1404 
C 166 1000 262 654 435 410 
C 691 71 1120 -128 1600 -128 
C 1837 -128 2074 -77 2336 37 
C 2509 108 2643 191 2669 230 
L 2797 447 
z
M 2298 1690 
C 1965 1690 1811 1690 1581 1690 
C 1286 1690 1120 1690 774 1722 
C 774 2027 800 2169 883 2337 
C 1018 2622 1293 2796 1600 2796 
C 1811 2796 1978 2711 2093 2534 
C 2234 2319 2278 2129 2298 1690 
z
" transform="scale(0.015625)"/>
       <path id="URWPalladioL-Roma-69" d="M 1203 2993 
L 1146 3019 
C 819 2884 486 2793 147 2755 
L 147 2576 
L 384 2576 
C 640 2576 666 2531 666 2105 
L 666 651 
C 666 244 646 199 429 199 
L 134 199 
L 134 0 
C 774 0 774 0 934 0 
C 1094 0 1094 0 1734 0 
L 1734 199 
L 1440 199 
C 1222 199 1203 244 1203 651 
L 1203 2993 
z
M 909 4416 
C 717 4416 550 4249 550 4056 
C 550 3870 717 3704 902 3704 
C 1088 3704 1261 3870 1261 4056 
C 1261 4236 1088 4416 909 4416 
z
" transform="scale(0.015625)"/>
       <path id="URWPalladioL-Roma-6e" d="M 2624 -7 
C 3014 -7 3021 -7 3130 -7 
C 3219 -7 3219 -7 3661 -7 
L 3661 179 
L 3398 205 
C 3181 205 3162 244 3162 654 
L 3162 1892 
C 3162 2642 2810 3008 2093 3008 
C 1856 3008 1722 2963 1587 2847 
L 1101 2424 
L 1101 2982 
L 1043 3008 
C 717 2873 384 2783 45 2745 
L 45 2565 
L 282 2565 
C 538 2565 563 2520 563 2094 
L 563 643 
C 563 237 544 192 326 192 
L 38 192 
L 38 -7 
C 474 -7 646 -7 832 -7 
C 1018 -7 1190 -7 1626 -7 
L 1626 192 
L 1338 192 
C 1120 192 1101 237 1101 643 
L 1101 2011 
C 1101 2300 1523 2616 1914 2616 
C 2342 2616 2624 2297 2624 1806 
L 2624 -7 
z
" transform="scale(0.015625)"/>
       <path id="URWPalladioL-Roma-64" d="M 2637 2802 
C 2278 2956 2099 3008 1875 3008 
C 1702 3008 1549 2969 1389 2887 
L 826 2593 
C 461 2401 224 1935 224 1392 
C 224 881 397 460 710 204 
C 928 19 1229 -64 1645 -64 
C 1773 -64 1920 -38 1952 -13 
L 2662 583 
L 2630 -7 
C 2944 -7 3046 -7 3123 -7 
C 3174 -7 3264 -7 3398 -7 
C 3443 -7 3571 -7 3706 -7 
L 3706 192 
L 3411 192 
C 3194 192 3174 237 3174 643 
L 3174 4607 
L 3117 4659 
C 2835 4550 2624 4498 2118 4421 
L 2118 4242 
L 2477 4242 
C 2592 4242 2637 4171 2637 3978 
L 2637 2802 
z
M 2637 1424 
C 2637 1009 2624 946 2541 799 
C 2362 499 2048 302 1747 302 
C 1184 302 781 844 781 1603 
C 781 2298 1126 2706 1702 2706 
C 1946 2706 2202 2623 2426 2470 
C 2560 2381 2637 2298 2637 2246 
L 2637 1424 
z
" transform="scale(0.015625)"/>
       <path id="URWPalladioL-Roma-28" d="M 1926 -1244 
C 1466 -673 1299 -366 1133 212 
C 998 673 934 1161 934 1706 
C 934 2238 998 2693 1120 3110 
C 1286 3642 1459 3944 1926 4489 
L 1805 4656 
C 1139 4059 877 3707 634 3078 
C 467 2648 384 2193 384 1706 
C 384 1020 544 372 851 -205 
C 1075 -635 1280 -885 1805 -1379 
L 1926 -1244 
z
" transform="scale(0.015625)"/>
       <path id="URWPalladioL-Roma-57" d="M 4698 -64 
C 4723 32 4742 122 4749 154 
C 4768 218 4819 411 4870 584 
L 5850 4032 
C 5888 4147 5952 4205 6093 4218 
L 6298 4237 
L 6298 4416 
L 5626 4416 
C 5562 4416 5562 4416 4954 4416 
L 4954 4237 
L 5210 4218 
C 5434 4199 5504 4167 5510 4063 
C 5510 4044 5510 4025 5504 4005 
L 4659 872 
L 3610 3826 
C 3469 4211 3450 4262 3398 4480 
L 3194 4480 
C 3059 4082 2950 3795 2618 2935 
L 1824 917 
L 1184 3795 
C 1165 3872 1158 3942 1158 4006 
C 1158 4147 1222 4205 1395 4218 
L 1664 4237 
L 1664 4416 
L 858 4416 
C 813 4416 544 4416 51 4416 
L 51 4237 
L 230 4218 
C 416 4199 493 4128 550 3897 
L 1312 597 
C 1395 231 1395 225 1459 -64 
L 1779 -64 
C 1837 141 1888 295 2010 597 
L 3123 3429 
L 3923 1256 
C 4134 687 4154 635 4378 -64 
L 4698 -64 
z
" transform="scale(0.015625)"/>
       <path id="URWPalladioL-Roma-48" d="M 3942 773 
C 3942 257 3910 205 3616 205 
L 3309 205 
L 3309 0 
C 3686 0 3910 0 4243 0 
C 4576 0 4806 0 5184 0 
L 5184 205 
L 4877 205 
C 4582 205 4550 256 4550 766 
L 4550 3663 
C 4550 4172 4582 4224 4877 4224 
L 5184 4224 
L 5184 4423 
C 4717 4423 4576 4423 4243 4423 
C 3923 4423 3770 4423 3309 4423 
L 3309 4224 
L 3616 4224 
C 3910 4224 3942 4172 3942 3668 
L 3942 2529 
C 3808 2529 3674 2529 3411 2529 
L 1914 2529 
C 1651 2529 1510 2529 1382 2529 
L 1382 3668 
C 1382 4172 1414 4224 1709 4224 
L 2016 4224 
L 2016 4423 
C 1549 4423 1408 4423 1075 4423 
C 755 4423 602 4423 141 4423 
L 141 4224 
L 448 4224 
C 742 4224 774 4172 774 3663 
L 774 766 
C 774 256 742 205 448 205 
L 141 205 
L 141 0 
C 518 0 742 0 1075 0 
C 1408 0 1638 0 2016 0 
L 2016 205 
L 1709 205 
C 1414 205 1382 257 1382 773 
L 1382 2227 
C 1555 2240 1658 2240 1914 2240 
L 3411 2240 
C 3667 2240 3770 2240 3942 2227 
L 3942 773 
z
" transform="scale(0.015625)"/>
       <path id="URWPalladioL-Roma-4f" d="M 2573 4544 
C 1114 4544 141 3596 141 2186 
C 141 839 1075 -128 2368 -128 
C 3802 -128 4890 942 4890 2351 
C 4890 3698 3994 4544 2573 4544 
z
M 2464 4274 
C 3558 4274 4205 3493 4205 2160 
C 4205 890 3616 141 2624 141 
C 1549 141 826 1051 826 2422 
C 826 3607 1414 4274 2464 4274 
z
" transform="scale(0.015625)"/>
       <path id="URWPalladioL-Roma-29" d="M 326 -1379 
C 768 -962 954 -750 1152 -436 
C 1542 186 1747 930 1747 1699 
C 1747 2193 1664 2648 1498 3078 
C 1254 3700 992 4053 326 4656 
L 205 4489 
C 672 3937 845 3636 1005 3110 
C 1133 2693 1197 2238 1197 1706 
C 1197 1161 1133 673 998 212 
C 832 -366 666 -673 205 -1244 
L 326 -1379 
z
" transform="scale(0.015625)"/>
      </defs>
      <use xlink:href="#URWPalladioL-Roma-63" transform="scale(0.996264)"/>
      <use xlink:href="#URWPalladioL-Roma-61" transform="translate(44.233569 0)scale(0.996264)"/>
      <use xlink:href="#URWPalladioL-Roma-73" transform="translate(94.046769 0)scale(0.996264)"/>
      <use xlink:href="#URWPalladioL-Roma-65" transform="translate(136.288236 0)scale(0.996264)"/>
      <use xlink:href="#URWPalladioL-Roma-69" transform="translate(208.915131 0)scale(0.996264)"/>
      <use xlink:href="#URWPalladioL-Roma-6e" transform="translate(237.905492 0)scale(0.996264)"/>
      <use xlink:href="#URWPalladioL-Roma-63" transform="translate(295.887553 0)scale(0.996264)"/>
      <use xlink:href="#URWPalladioL-Roma-69" transform="translate(340.121122 0)scale(0.996264)"/>
      <use xlink:href="#URWPalladioL-Roma-64" transform="translate(369.111483 0)scale(0.996264)"/>
      <use xlink:href="#URWPalladioL-Roma-65" transform="translate(429.983114 0)scale(0.996264)"/>
      <use xlink:href="#URWPalladioL-Roma-6e" transform="translate(477.703409 0)scale(0.996264)"/>
      <use xlink:href="#URWPalladioL-Roma-63" transform="translate(535.68547 0)scale(0.996264)"/>
      <use xlink:href="#URWPalladioL-Roma-65" transform="translate(579.919038 0)scale(0.996264)"/>
      <use xlink:href="#URWPalladioL-Roma-28" transform="translate(652.545934 0)scale(0.996264)"/>
      <use xlink:href="#URWPalladioL-Roma-57" transform="translate(685.721163 0)scale(0.996264)"/>
      <use xlink:href="#URWPalladioL-Roma-48" transform="translate(785.347564 0)scale(0.996264)"/>
      <use xlink:href="#URWPalladioL-Roma-4f" transform="translate(868.236225 0)scale(0.996264)"/>
      <use xlink:href="#URWPalladioL-Roma-29" transform="translate(946.542507 0)scale(0.996264)"/>
     </g>
     <!-- new cases over 7 days per 100000 -->
     <g transform="translate(25.691533 191.389569)rotate(-90)scale(0.1 -0.1)">
      <defs>
       <path id="URWPalladioL-Roma-77" d="M 2643 3008 
C 2118 1788 2022 1571 1626 677 
L 1088 2444 
C 1069 2502 1062 2553 1062 2604 
C 1062 2700 1146 2752 1306 2752 
L 1562 2752 
L 1562 2932 
C 928 2932 928 2932 800 2932 
C 672 2932 672 2932 38 2932 
L 38 2765 
L 218 2752 
C 397 2739 480 2612 640 2114 
L 1293 -32 
L 1594 -32 
L 2221 1437 
C 2253 1514 2323 1667 2426 1884 
L 2554 2152 
L 3424 -32 
L 3718 -32 
C 3763 102 3814 249 3866 389 
C 3994 767 4134 1162 4160 1201 
L 4595 2196 
C 4787 2625 4864 2733 5005 2752 
L 5171 2765 
L 5171 2932 
C 4646 2932 4646 2932 4544 2932 
C 4442 2932 4442 2932 3917 2932 
L 3917 2752 
L 4134 2752 
C 4294 2752 4384 2675 4384 2559 
C 4384 2489 4371 2412 4339 2329 
L 4019 1433 
C 3968 1292 3917 1163 3712 638 
L 2976 2490 
C 2886 2707 2842 2835 2790 3008 
L 2643 3008 
z
" transform="scale(0.015625)"/>
       <path id="URWPalladioL-Roma-6f" d="M 1786 3008 
C 851 3008 205 2347 205 1392 
C 205 487 774 -128 1600 -128 
C 2586 -128 3290 558 3290 1520 
C 3290 2386 2662 3008 1786 3008 
z
M 1670 2796 
C 2259 2796 2694 2155 2694 1283 
C 2694 545 2368 83 1850 83 
C 1222 83 800 699 800 1610 
C 800 2379 1107 2796 1670 2796 
z
" transform="scale(0.015625)"/>
       <path id="URWPalladioL-Roma-76" d="M 3450 2752 
L 3450 2932 
C 3066 2932 2950 2932 2848 2932 
C 2746 2932 2630 2932 2246 2932 
L 2246 2752 
L 2509 2752 
C 2611 2752 2662 2694 2662 2591 
C 2662 2489 2618 2317 2541 2124 
L 2272 1445 
C 2195 1259 2118 1080 1875 549 
L 1114 2393 
C 1075 2482 1056 2566 1056 2636 
C 1056 2707 1114 2752 1216 2752 
L 1530 2752 
L 1530 2932 
C 902 2932 902 2932 781 2932 
C 659 2932 352 2932 38 2932 
L 38 2752 
L 256 2752 
C 352 2739 384 2701 454 2541 
L 1555 -32 
L 1875 -32 
C 1914 77 1978 243 1978 256 
C 2048 447 2131 664 2138 664 
L 2893 2324 
C 3034 2625 3123 2739 3251 2752 
L 3450 2752 
z
" transform="scale(0.015625)"/>
       <path id="URWPalladioL-Roma-72" d="M 147 2565 
L 384 2565 
C 640 2565 666 2520 666 2094 
L 666 643 
C 666 237 646 192 429 192 
L 134 192 
L 134 -7 
C 595 -7 762 -7 922 -7 
C 1050 -7 1050 -7 1837 -7 
L 1837 192 
L 1504 192 
C 1216 192 1203 211 1203 638 
L 1203 1751 
C 1203 2139 1459 2463 1773 2463 
C 1965 2463 2099 2373 2202 2169 
L 2336 2169 
L 2394 2937 
C 2323 2982 2208 3008 2093 3008 
C 1901 3008 1696 2905 1562 2745 
L 1203 2322 
L 1203 2982 
L 1146 3008 
C 819 2873 486 2783 147 2745 
L 147 2565 
z
" transform="scale(0.015625)"/>
       <path id="URWPalladioL-Roma-79" d="M 1901 564 
C 1760 808 1690 956 1574 1270 
L 1165 2347 
C 1126 2456 1101 2552 1101 2618 
C 1101 2710 1171 2764 1318 2764 
L 1562 2764 
L 1562 2944 
C 941 2944 941 2944 819 2944 
C 698 2944 698 2944 77 2944 
L 77 2777 
L 192 2764 
C 352 2745 429 2674 525 2451 
L 1222 775 
C 1402 340 1466 186 1581 -134 
L 1434 -524 
C 1229 -1062 979 -1362 736 -1362 
C 634 -1362 518 -1311 410 -1215 
L 326 -1215 
L 173 -1696 
C 294 -1760 397 -1792 518 -1792 
C 947 -1792 1222 -1562 1466 -1005 
L 2765 1990 
C 3021 2572 3142 2745 3302 2764 
L 3482 2777 
L 3482 2944 
C 2976 2944 2976 2944 2874 2944 
C 2771 2944 2771 2944 2266 2944 
L 2266 2777 
L 2432 2764 
C 2611 2751 2701 2694 2701 2604 
C 2701 2559 2688 2501 2662 2437 
L 1901 564 
z
" transform="scale(0.015625)"/>
       <path id="URWPalladioL-Roma-70" d="M 64 2565 
L 301 2565 
C 557 2565 582 2520 582 2095 
L 582 -1142 
C 582 -1548 563 -1593 346 -1593 
L 51 -1593 
L 51 -1792 
C 691 -1792 691 -1792 851 -1792 
C 1011 -1792 1011 -1792 1651 -1792 
L 1651 -1593 
L 1357 -1593 
C 1139 -1593 1120 -1547 1120 -1138 
L 1120 89 
C 1312 -26 1517 -71 1805 -71 
C 1990 -71 2157 -32 2259 32 
L 2989 505 
C 3245 672 3546 1330 3546 1740 
C 3546 2451 2957 3008 2214 3008 
C 1978 3008 1747 2943 1645 2847 
L 1120 2367 
L 1120 2982 
L 1062 3008 
C 736 2873 403 2783 64 2745 
L 64 2565 
z
M 1120 1964 
C 1120 2053 1152 2124 1235 2233 
C 1421 2469 1683 2591 2003 2591 
C 2605 2591 2989 2169 2989 1504 
C 2989 787 2560 256 1984 256 
C 1632 256 1370 372 1120 633 
L 1120 1964 
z
" transform="scale(0.015625)"/>
      </defs>
      <use xlink:href="#URWPalladioL-Roma-6e" transform="scale(0.996264)"/>
      <use xlink:href="#URWPalladioL-Roma-65" transform="translate(57.982061 0)scale(0.996264)"/>
      <use xlink:href="#URWPalladioL-Roma-77" transform="translate(105.702356 0)scale(0.996264)"/>
      <use xlink:href="#URWPalladioL-Roma-63" transform="translate(213.697049 0)scale(0.996264)"/>
      <use xlink:href="#URWPalladioL-Roma-61" transform="translate(257.930618 0)scale(0.996264)"/>
      <use xlink:href="#URWPalladioL-Roma-73" transform="translate(307.743818 0)scale(0.996264)"/>
      <use xlink:href="#URWPalladioL-Roma-65" transform="translate(349.985285 0)scale(0.996264)"/>
      <use xlink:href="#URWPalladioL-Roma-73" transform="translate(397.70558 0)scale(0.996264)"/>
      <use xlink:href="#URWPalladioL-Roma-6f" transform="translate(464.853646 0)scale(0.996264)"/>
      <use xlink:href="#URWPalladioL-Roma-76" transform="translate(519.249227 0)scale(0.996264)"/>
      <use xlink:href="#URWPalladioL-Roma-65" transform="translate(575.53714 0)scale(0.996264)"/>
      <use xlink:href="#URWPalladioL-Roma-72" transform="translate(623.257435 0)scale(0.996264)"/>
      <use xlink:href="#URWPalladioL-Roma-37" transform="translate(687.515931 0)scale(0.996264)"/>
      <use xlink:href="#URWPalladioL-Roma-64" transform="translate(762.235732 0)scale(0.996264)"/>
      <use xlink:href="#URWPalladioL-Roma-61" transform="translate(823.107363 0)scale(0.996264)"/>
      <use xlink:href="#URWPalladioL-Roma-79" transform="translate(872.920563 0)scale(0.996264)"/>
      <use xlink:href="#URWPalladioL-Roma-73" transform="translate(928.31224 0)scale(0.996264)"/>
      <use xlink:href="#URWPalladioL-Roma-70" transform="translate(995.460307 0)scale(0.996264)"/>
      <use xlink:href="#URWPalladioL-Roma-65" transform="translate(1055.334701 0)scale(0.996264)"/>
      <use xlink:href="#URWPalladioL-Roma-72" transform="translate(1103.054996 0)scale(0.996264)"/>
      <use xlink:href="#URWPalladioL-Roma-31" transform="translate(1167.313492 0)scale(0.996264)"/>
      <use xlink:href="#URWPalladioL-Roma-30" transform="translate(1217.126693 0)scale(0.996264)"/>
      <use xlink:href="#URWPalladioL-Roma-30" transform="translate(1266.939893 0)scale(0.996264)"/>
      <use xlink:href="#URWPalladioL-Roma-30" transform="translate(1316.753094 0)scale(0.996264)"/>
      <use xlink:href="#URWPalladioL-Roma-30" transform="translate(1366.566294 0)scale(0.996264)"/>
      <use xlink:href="#URWPalladioL-Roma-30" transform="translate(1416.379495 0)scale(0.996264)"/>
     </g>
    </g>
   </g>
   <g id="line2d_14">
    <path d="M 60.444904 214.897307 
L 339.444904 214.897307 
" clip-path="url(#p8bdae32bef)" style="fill: none; stroke: #ffff00; stroke-width: 1.5; stroke-linecap: square"/>
   </g>
   <g id="line2d_15">
    <path d="M 60.444904 193.803268 
L 339.444904 193.803268 
" clip-path="url(#p8bdae32bef)" style="fill: none; stroke: #ffa500; stroke-width: 1.5; stroke-linecap: square"/>
   </g>
   <g id="line2d_16">
    <path d="M 60.444904 123.489803 
L 339.444904 123.489803 
" clip-path="url(#p8bdae32bef)" style="fill: none; stroke: #ff0000; stroke-width: 1.5; stroke-linecap: square"/>
   </g>
   <g id="patch_182">
    <path d="M 60.444904 228.96 
L 60.444904 7.2 
" style="fill: none; stroke: #000000; stroke-width: 0.8; stroke-linejoin: miter; stroke-linecap: square"/>
   </g>
   <g id="patch_183">
    <path d="M 60.444904 228.96 
L 339.444904 228.96 
" style="fill: none; stroke: #000000; stroke-width: 0.8; stroke-linejoin: miter; stroke-linecap: square"/>
   </g>
   <g id="text_15">
    <!-- low incidence of community transmission -->
    <g style="fill: #ffff00" transform="translate(347.814904 217.05672)scale(0.1 -0.1)">
     <defs>
      <path id="URWPalladioL-Roma-6c" d="M 147 4256 
L 506 4256 
C 621 4256 666 4185 666 3992 
L 666 651 
C 666 244 646 199 429 199 
L 134 199 
L 134 0 
C 774 0 774 0 934 0 
C 1094 0 1094 0 1734 0 
L 1734 199 
L 1440 199 
C 1222 199 1203 244 1203 650 
L 1203 4621 
L 1146 4673 
C 864 4564 653 4512 147 4435 
L 147 4256 
z
" transform="scale(0.015625)"/>
      <path id="URWPalladioL-Roma-66" d="M 2182 4601 
C 2048 4652 1971 4672 1888 4672 
C 1683 4672 1459 4563 1318 4404 
L 947 3985 
C 762 3775 678 3490 678 3070 
L 678 2803 
L 237 2604 
L 237 2476 
L 678 2476 
L 678 651 
C 678 244 659 199 442 199 
L 147 199 
L 147 0 
C 787 0 787 0 947 0 
C 1107 0 1107 0 1747 0 
L 1747 199 
L 1453 199 
C 1235 199 1216 245 1216 653 
L 1216 2489 
L 2010 2489 
L 2054 2816 
L 1216 2816 
L 1216 3350 
C 1216 4073 1299 4248 1664 4248 
C 1837 4248 1952 4204 2106 4071 
L 2182 4109 
L 2182 4601 
z
" transform="scale(0.015625)"/>
      <path id="URWPalladioL-Roma-6d" d="M 115 2565 
L 352 2565 
C 608 2565 634 2520 634 2094 
L 634 643 
C 634 237 614 192 397 192 
L 102 192 
L 102 -7 
C 717 -7 736 -7 915 -7 
C 1094 -7 1261 -7 1677 -7 
L 1677 179 
L 1408 205 
C 1190 205 1171 250 1171 654 
L 1171 2014 
C 1171 2302 1594 2616 1978 2616 
C 2323 2616 2560 2287 2560 1798 
L 2560 643 
C 2560 237 2541 192 2323 192 
L 2029 192 
L 2029 -7 
C 2669 -7 2669 -7 2829 -7 
C 2989 -7 2989 -7 3629 -7 
L 3629 192 
L 3334 192 
C 3117 192 3098 237 3098 643 
L 3098 2011 
C 3098 2300 3520 2616 3904 2616 
C 4250 2616 4486 2291 4486 1806 
L 4486 -7 
C 4877 -7 4883 -7 4992 -7 
C 5075 -7 5075 -7 5562 -7 
L 5562 192 
L 5261 192 
C 5043 192 5024 237 5024 643 
L 5024 1970 
C 5024 2608 4653 3008 4064 3008 
C 3840 3008 3654 2950 3539 2847 
L 3053 2412 
C 2848 2834 2586 3008 2144 3008 
C 1907 3008 1728 2950 1613 2847 
L 1171 2437 
L 1171 2982 
L 1114 3008 
C 787 2873 454 2783 115 2745 
L 115 2565 
z
" transform="scale(0.015625)"/>
      <path id="URWPalladioL-Roma-75" d="M 3219 3009 
L 3162 3035 
C 2835 2900 2502 2810 2163 2772 
L 2163 2592 
L 2400 2592 
C 2656 2592 2682 2547 2682 2121 
L 2682 1070 
C 2682 928 2592 747 2445 599 
C 2266 418 2061 327 1811 327 
C 1587 327 1408 398 1306 521 
C 1216 624 1171 824 1171 1107 
L 1171 3009 
L 1114 3035 
C 787 2900 454 2810 115 2772 
L 115 2592 
L 352 2592 
C 608 2592 634 2547 634 2122 
L 634 1039 
C 634 587 672 387 787 227 
C 928 33 1171 -64 1536 -64 
C 1824 -64 2080 26 2253 186 
L 2682 585 
C 2682 401 2675 298 2656 0 
C 3085 0 3091 0 3187 0 
C 3277 0 3277 0 3718 0 
L 3718 186 
L 3456 212 
C 3238 212 3219 251 3219 664 
L 3219 3009 
z
" transform="scale(0.015625)"/>
      <path id="URWPalladioL-Roma-74" d="M 627 2476 
L 627 619 
C 627 142 838 -64 1331 -64 
C 1478 -64 1632 -32 1670 13 
L 1978 353 
L 1894 463 
C 1734 372 1638 340 1517 340 
C 1267 340 1165 470 1165 788 
L 1165 2489 
L 1984 2489 
L 2042 2816 
L 1165 2816 
L 1165 3056 
C 1165 3321 1184 3547 1235 3951 
L 1158 4021 
C 1005 3925 813 3842 614 3778 
C 634 3585 640 3463 640 3271 
L 640 2822 
L 141 2598 
L 141 2476 
L 627 2476 
z
" transform="scale(0.015625)"/>
     </defs>
     <use xlink:href="#URWPalladioL-Roma-6c" transform="scale(0.996264)"/>
     <use xlink:href="#URWPalladioL-Roma-6f" transform="translate(28.990361 0)scale(0.996264)"/>
     <use xlink:href="#URWPalladioL-Roma-77" transform="translate(83.385942 0)scale(0.996264)"/>
     <use xlink:href="#URWPalladioL-Roma-69" transform="translate(191.380635 0)scale(0.996264)"/>
     <use xlink:href="#URWPalladioL-Roma-6e" transform="translate(220.370996 0)scale(0.996264)"/>
     <use xlink:href="#URWPalladioL-Roma-63" transform="translate(278.353057 0)scale(0.996264)"/>
     <use xlink:href="#URWPalladioL-Roma-69" transform="translate(322.586626 0)scale(0.996264)"/>
     <use xlink:href="#URWPalladioL-Roma-64" transform="translate(351.576987 0)scale(0.996264)"/>
     <use xlink:href="#URWPalladioL-Roma-65" transform="translate(412.448618 0)scale(0.996264)"/>
     <use xlink:href="#URWPalladioL-Roma-6e" transform="translate(460.168913 0)scale(0.996264)"/>
     <use xlink:href="#URWPalladioL-Roma-63" transform="translate(518.150974 0)scale(0.996264)"/>
     <use xlink:href="#URWPalladioL-Roma-65" transform="translate(562.384542 0)scale(0.996264)"/>
     <use xlink:href="#URWPalladioL-Roma-6f" transform="translate(635.011438 0)scale(0.996264)"/>
     <use xlink:href="#URWPalladioL-Roma-66" transform="translate(689.407018 0)scale(0.996264)"/>
     <use xlink:href="#URWPalladioL-Roma-63" transform="translate(747.488848 0)scale(0.996264)"/>
     <use xlink:href="#URWPalladioL-Roma-6f" transform="translate(791.722417 0)scale(0.996264)"/>
     <use xlink:href="#URWPalladioL-Roma-6d" transform="translate(846.117997 0)scale(0.996264)"/>
     <use xlink:href="#URWPalladioL-Roma-6d" transform="translate(934.087671 0)scale(0.996264)"/>
     <use xlink:href="#URWPalladioL-Roma-75" transform="translate(1022.057345 0)scale(0.996264)"/>
     <use xlink:href="#URWPalladioL-Roma-6e" transform="translate(1082.13108 0)scale(0.996264)"/>
     <use xlink:href="#URWPalladioL-Roma-69" transform="translate(1140.113141 0)scale(0.996264)"/>
     <use xlink:href="#URWPalladioL-Roma-74" transform="translate(1169.103502 0)scale(0.996264)"/>
     <use xlink:href="#URWPalladioL-Roma-79" transform="translate(1201.58059 0)scale(0.996264)"/>
     <use xlink:href="#URWPalladioL-Roma-74" transform="translate(1281.878867 0)scale(0.996264)"/>
     <use xlink:href="#URWPalladioL-Roma-72" transform="translate(1314.355955 0)scale(0.996264)"/>
     <use xlink:href="#URWPalladioL-Roma-61" transform="translate(1353.707852 0)scale(0.996264)"/>
     <use xlink:href="#URWPalladioL-Roma-6e" transform="translate(1403.521052 0)scale(0.996264)"/>
     <use xlink:href="#URWPalladioL-Roma-73" transform="translate(1461.503113 0)scale(0.996264)"/>
     <use xlink:href="#URWPalladioL-Roma-6d" transform="translate(1503.744579 0)scale(0.996264)"/>
     <use xlink:href="#URWPalladioL-Roma-69" transform="translate(1591.714253 0)scale(0.996264)"/>
     <use xlink:href="#URWPalladioL-Roma-73" transform="translate(1620.704615 0)scale(0.996264)"/>
     <use xlink:href="#URWPalladioL-Roma-73" transform="translate(1662.946081 0)scale(0.996264)"/>
     <use xlink:href="#URWPalladioL-Roma-69" transform="translate(1705.187547 0)scale(0.996264)"/>
     <use xlink:href="#URWPalladioL-Roma-6f" transform="translate(1734.177909 0)scale(0.996264)"/>
     <use xlink:href="#URWPalladioL-Roma-6e" transform="translate(1788.573489 0)scale(0.996264)"/>
    </g>
   </g>
   <g id="text_16">
    <!-- moderate incidence of community transmission -->
    <g style="fill: #ffa500" transform="translate(347.814904 195.962681)scale(0.1 -0.1)">
     <use xlink:href="#URWPalladioL-Roma-6d" transform="scale(0.996264)"/>
     <use xlink:href="#URWPalladioL-Roma-6f" transform="translate(87.969674 0)scale(0.996264)"/>
     <use xlink:href="#URWPalladioL-Roma-64" transform="translate(142.365254 0)scale(0.996264)"/>
     <use xlink:href="#URWPalladioL-Roma-65" transform="translate(203.236885 0)scale(0.996264)"/>
     <use xlink:href="#URWPalladioL-Roma-72" transform="translate(250.95718 0)scale(0.996264)"/>
     <use xlink:href="#URWPalladioL-Roma-61" transform="translate(290.309077 0)scale(0.996264)"/>
     <use xlink:href="#URWPalladioL-Roma-74" transform="translate(340.122277 0)scale(0.996264)"/>
     <use xlink:href="#URWPalladioL-Roma-65" transform="translate(372.599365 0)scale(0.996264)"/>
     <use xlink:href="#URWPalladioL-Roma-69" transform="translate(445.22626 0)scale(0.996264)"/>
     <use xlink:href="#URWPalladioL-Roma-6e" transform="translate(474.216622 0)scale(0.996264)"/>
     <use xlink:href="#URWPalladioL-Roma-63" transform="translate(532.198682 0)scale(0.996264)"/>
     <use xlink:href="#URWPalladioL-Roma-69" transform="translate(576.432251 0)scale(0.996264)"/>
     <use xlink:href="#URWPalladioL-Roma-64" transform="translate(605.422613 0)scale(0.996264)"/>
     <use xlink:href="#URWPalladioL-Roma-65" transform="translate(666.294243 0)scale(0.996264)"/>
     <use xlink:href="#URWPalladioL-Roma-6e" transform="translate(714.014538 0)scale(0.996264)"/>
     <use xlink:href="#URWPalladioL-Roma-63" transform="translate(771.996599 0)scale(0.996264)"/>
     <use xlink:href="#URWPalladioL-Roma-65" transform="translate(816.230168 0)scale(0.996264)"/>
     <use xlink:href="#URWPalladioL-Roma-6f" transform="translate(888.857063 0)scale(0.996264)"/>
     <use xlink:href="#URWPalladioL-Roma-66" transform="translate(943.252643 0)scale(0.996264)"/>
     <use xlink:href="#URWPalladioL-Roma-63" transform="translate(1001.334473 0)scale(0.996264)"/>
     <use xlink:href="#URWPalladioL-Roma-6f" transform="translate(1045.568042 0)scale(0.996264)"/>
     <use xlink:href="#URWPalladioL-Roma-6d" transform="translate(1099.963622 0)scale(0.996264)"/>
     <use xlink:href="#URWPalladioL-Roma-6d" transform="translate(1187.933296 0)scale(0.996264)"/>
     <use xlink:href="#URWPalladioL-Roma-75" transform="translate(1275.902971 0)scale(0.996264)"/>
     <use xlink:href="#URWPalladioL-Roma-6e" transform="translate(1335.976705 0)scale(0.996264)"/>
     <use xlink:href="#URWPalladioL-Roma-69" transform="translate(1393.958766 0)scale(0.996264)"/>
     <use xlink:href="#URWPalladioL-Roma-74" transform="translate(1422.949128 0)scale(0.996264)"/>
     <use xlink:href="#URWPalladioL-Roma-79" transform="translate(1455.426215 0)scale(0.996264)"/>
     <use xlink:href="#URWPalladioL-Roma-74" transform="translate(1535.724493 0)scale(0.996264)"/>
     <use xlink:href="#URWPalladioL-Roma-72" transform="translate(1568.20158 0)scale(0.996264)"/>
     <use xlink:href="#URWPalladioL-Roma-61" transform="translate(1607.553477 0)scale(0.996264)"/>
     <use xlink:href="#URWPalladioL-Roma-6e" transform="translate(1657.366677 0)scale(0.996264)"/>
     <use xlink:href="#URWPalladioL-Roma-73" transform="translate(1715.348738 0)scale(0.996264)"/>
     <use xlink:href="#URWPalladioL-Roma-6d" transform="translate(1757.590204 0)scale(0.996264)"/>
     <use xlink:href="#URWPalladioL-Roma-69" transform="translate(1845.559879 0)scale(0.996264)"/>
     <use xlink:href="#URWPalladioL-Roma-73" transform="translate(1874.55024 0)scale(0.996264)"/>
     <use xlink:href="#URWPalladioL-Roma-73" transform="translate(1916.791706 0)scale(0.996264)"/>
     <use xlink:href="#URWPalladioL-Roma-69" transform="translate(1959.033173 0)scale(0.996264)"/>
     <use xlink:href="#URWPalladioL-Roma-6f" transform="translate(1988.023534 0)scale(0.996264)"/>
     <use xlink:href="#URWPalladioL-Roma-6e" transform="translate(2042.419114 0)scale(0.996264)"/>
    </g>
   </g>
   <g id="text_17">
    <!-- high incidence of community transmission -->
    <g style="fill: #ff0000" transform="translate(347.814904 125.649217)scale(0.1 -0.1)">
     <defs>
      <path id="URWPalladioL-Roma-68" d="M 45 4248 
L 403 4248 
C 518 4248 563 4177 563 3984 
L 563 643 
C 563 237 544 192 326 192 
L 38 192 
L 38 -7 
C 474 -7 646 -7 832 -7 
C 1018 -7 1190 -7 1626 -7 
L 1626 192 
L 1338 192 
C 1120 192 1101 237 1101 643 
L 1101 2011 
C 1101 2300 1523 2616 1914 2616 
C 2342 2616 2624 2297 2624 1806 
L 2624 -7 
C 3014 -7 3021 -7 3130 -7 
C 3219 -7 3219 -7 3661 -7 
L 3661 179 
L 3398 205 
C 3181 205 3162 244 3162 654 
L 3162 1892 
C 3162 2642 2810 3008 2093 3008 
C 1856 3008 1722 2963 1587 2847 
L 1101 2424 
L 1101 4613 
L 1043 4665 
C 762 4556 550 4504 45 4427 
L 45 4248 
z
" transform="scale(0.015625)"/>
      <path id="URWPalladioL-Roma-67" d="M 3322 2432 
L 3482 2695 
L 3456 2759 
L 2547 2759 
C 2310 2937 2080 3008 1766 3008 
C 1485 3008 1158 2920 896 2768 
C 538 2567 352 2258 352 1874 
C 352 1408 646 1087 1120 1036 
L 614 640 
C 550 543 518 459 518 361 
C 518 180 634 76 941 -14 
L 384 -316 
C 294 -367 205 -604 205 -803 
C 205 -1388 774 -1792 1587 -1792 
C 2554 -1792 3315 -1182 3315 -399 
C 3315 63 3008 384 2560 384 
L 1536 384 
C 1203 384 1050 462 1050 639 
C 1050 724 1101 795 1267 939 
C 1306 972 1318 985 1344 1011 
C 1408 1004 1446 998 1498 998 
C 1773 998 2112 1118 2374 1300 
C 2662 1507 2803 1759 2803 2093 
C 2803 2218 2784 2300 2733 2432 
L 3322 2432 
z
M 1536 2790 
C 1971 2790 2266 2438 2266 1905 
C 2266 1499 1997 1216 1606 1216 
C 1178 1216 890 1542 890 2025 
C 890 2507 1126 2790 1536 2790 
z
M 1837 -65 
C 2560 -65 2810 -212 2810 -630 
C 2810 -1182 2304 -1593 1632 -1593 
C 1075 -1593 691 -1266 691 -790 
C 691 -502 858 -238 1114 -129 
C 1216 -78 1395 -65 1837 -65 
z
" transform="scale(0.015625)"/>
     </defs>
     <use xlink:href="#URWPalladioL-Roma-68" transform="scale(0.996264)"/>
     <use xlink:href="#URWPalladioL-Roma-69" transform="translate(57.982061 0)scale(0.996264)"/>
     <use xlink:href="#URWPalladioL-Roma-67" transform="translate(86.972422 0)scale(0.996264)"/>
     <use xlink:href="#URWPalladioL-Roma-68" transform="translate(142.364099 0)scale(0.996264)"/>
     <use xlink:href="#URWPalladioL-Roma-69" transform="translate(225.25276 0)scale(0.996264)"/>
     <use xlink:href="#URWPalladioL-Roma-6e" transform="translate(254.243121 0)scale(0.996264)"/>
     <use xlink:href="#URWPalladioL-Roma-63" transform="translate(312.225182 0)scale(0.996264)"/>
     <use xlink:href="#URWPalladioL-Roma-69" transform="translate(356.458751 0)scale(0.996264)"/>
     <use xlink:href="#URWPalladioL-Roma-64" transform="translate(385.449112 0)scale(0.996264)"/>
     <use xlink:href="#URWPalladioL-Roma-65" transform="translate(446.320743 0)scale(0.996264)"/>
     <use xlink:href="#URWPalladioL-Roma-6e" transform="translate(494.041038 0)scale(0.996264)"/>
     <use xlink:href="#URWPalladioL-Roma-63" transform="translate(552.023099 0)scale(0.996264)"/>
     <use xlink:href="#URWPalladioL-Roma-65" transform="translate(596.256668 0)scale(0.996264)"/>
     <use xlink:href="#URWPalladioL-Roma-6f" transform="translate(668.883563 0)scale(0.996264)"/>
     <use xlink:href="#URWPalladioL-Roma-66" transform="translate(723.279143 0)scale(0.996264)"/>
     <use xlink:href="#URWPalladioL-Roma-63" transform="translate(781.360973 0)scale(0.996264)"/>
     <use xlink:href="#URWPalladioL-Roma-6f" transform="translate(825.594542 0)scale(0.996264)"/>
     <use xlink:href="#URWPalladioL-Roma-6d" transform="translate(879.990122 0)scale(0.996264)"/>
     <use xlink:href="#URWPalladioL-Roma-6d" transform="translate(967.959796 0)scale(0.996264)"/>
     <use xlink:href="#URWPalladioL-Roma-75" transform="translate(1055.92947 0)scale(0.996264)"/>
     <use xlink:href="#URWPalladioL-Roma-6e" transform="translate(1116.003205 0)scale(0.996264)"/>
     <use xlink:href="#URWPalladioL-Roma-69" transform="translate(1173.985266 0)scale(0.996264)"/>
     <use xlink:href="#URWPalladioL-Roma-74" transform="translate(1202.975627 0)scale(0.996264)"/>
     <use xlink:href="#URWPalladioL-Roma-79" transform="translate(1235.452715 0)scale(0.996264)"/>
     <use xlink:href="#URWPalladioL-Roma-74" transform="translate(1315.750992 0)scale(0.996264)"/>
     <use xlink:href="#URWPalladioL-Roma-72" transform="translate(1348.22808 0)scale(0.996264)"/>
     <use xlink:href="#URWPalladioL-Roma-61" transform="translate(1387.579977 0)scale(0.996264)"/>
     <use xlink:href="#URWPalladioL-Roma-6e" transform="translate(1437.393177 0)scale(0.996264)"/>
     <use xlink:href="#URWPalladioL-Roma-73" transform="translate(1495.375238 0)scale(0.996264)"/>
     <use xlink:href="#URWPalladioL-Roma-6d" transform="translate(1537.616704 0)scale(0.996264)"/>
     <use xlink:href="#URWPalladioL-Roma-69" transform="translate(1625.586378 0)scale(0.996264)"/>
     <use xlink:href="#URWPalladioL-Roma-73" transform="translate(1654.57674 0)scale(0.996264)"/>
     <use xlink:href="#URWPalladioL-Roma-73" transform="translate(1696.818206 0)scale(0.996264)"/>
     <use xlink:href="#URWPalladioL-Roma-69" transform="translate(1739.059672 0)scale(0.996264)"/>
     <use xlink:href="#URWPalladioL-Roma-6f" transform="translate(1768.050034 0)scale(0.996264)"/>
     <use xlink:href="#URWPalladioL-Roma-6e" transform="translate(1822.445614 0)scale(0.996264)"/>
    </g>
   </g>
  </g>
 </g>
 <defs>
  <clipPath id="p8bdae32bef">
   <rect x="60.444904" y="7.2" width="279" height="221.76"/>
  </clipPath>
 </defs>
</svg>
