<?xml version="1.0" encoding="utf-8" standalone="no"?>
<!DOCTYPE svg PUBLIC "-//W3C//DTD SVG 1.1//EN"
  "http://www.w3.org/Graphics/SVG/1.1/DTD/svg11.dtd">
<svg xmlns:xlink="http://www.w3.org/1999/xlink" width="570.036105pt" height="281.366609pt" viewBox="0 0 570.036105 281.366609" xmlns="http://www.w3.org/2000/svg" version="1.1">
 <metadata>
  <rdf:RDF xmlns:dc="http://purl.org/dc/elements/1.1/" xmlns:cc="http://creativecommons.org/ns#" xmlns:rdf="http://www.w3.org/1999/02/22-rdf-syntax-ns#">
   <cc:Work>
    <dc:type rdf:resource="http://purl.org/dc/dcmitype/StillImage"/>
    <dc:format>image/svg+xml</dc:format>
    <dc:creator>
     <cc:Agent>
      <dc:title>Matplotlib v3.5.1, https://matplotlib.org/</dc:title>
     </cc:Agent>
    </dc:creator>
   </cc:Work>
  </rdf:RDF>
 </metadata>
 <defs>
  <style type="text/css">*{stroke-linejoin: round; stroke-linecap: butt}</style>
 </defs>
 <g id="figure_1">
  <g id="patch_1">
   <path d="M 0 281.366609 
L 570.036105 281.366609 
L 570.036105 0 
L 0 0 
z
" style="fill: #ffffff"/>
  </g>
  <g id="axes_1">
   <g id="patch_2">
    <path d="M 65.426224 228.96 
L 344.426224 228.96 
L 344.426224 7.2 
L 65.426224 7.2 
z
" style="fill: #ffffff"/>
   </g>
   <g id="patch_3">
    <path d="M 65.553043 228.96 
L 66.567588 228.96 
L 66.567588 227.963987 
L 65.553043 227.963987 
z
" clip-path="url(#p3d951a899a)" style="fill: #1f77b4"/>
   </g>
   <g id="patch_4">
    <path d="M 66.821224 228.96 
L 67.83577 228.96 
L 67.83577 227.982904 
L 66.821224 227.982904 
z
" clip-path="url(#p3d951a899a)" style="fill: #1f77b4"/>
   </g>
   <g id="patch_5">
    <path d="M 68.089406 228.96 
L 69.103952 228.96 
L 69.103952 228.010745 
L 68.089406 228.010745 
z
" clip-path="url(#p3d951a899a)" style="fill: #1f77b4"/>
   </g>
   <g id="patch_6">
    <path d="M 69.357588 228.96 
L 70.372134 228.96 
L 70.372134 228.041976 
L 69.357588 228.041976 
z
" clip-path="url(#p3d951a899a)" style="fill: #1f77b4"/>
   </g>
   <g id="patch_7">
    <path d="M 70.62577 228.96 
L 71.640315 228.96 
L 71.640315 228.050007 
L 70.62577 228.050007 
z
" clip-path="url(#p3d951a899a)" style="fill: #1f77b4"/>
   </g>
   <g id="patch_8">
    <path d="M 71.893952 228.96 
L 72.908497 228.96 
L 72.908497 228.04269 
L 71.893952 228.04269 
z
" clip-path="url(#p3d951a899a)" style="fill: #1f77b4"/>
   </g>
   <g id="patch_9">
    <path d="M 73.162134 228.96 
L 74.176679 228.96 
L 74.176679 228.025915 
L 73.162134 228.025915 
z
" clip-path="url(#p3d951a899a)" style="fill: #1f77b4"/>
   </g>
   <g id="patch_10">
    <path d="M 74.430315 228.96 
L 75.444861 228.96 
L 75.444861 228.021274 
L 74.430315 228.021274 
z
" clip-path="url(#p3d951a899a)" style="fill: #1f77b4"/>
   </g>
   <g id="patch_11">
    <path d="M 75.698497 228.96 
L 76.713043 228.96 
L 76.713043 228.005034 
L 75.698497 228.005034 
z
" clip-path="url(#p3d951a899a)" style="fill: #1f77b4"/>
   </g>
   <g id="patch_12">
    <path d="M 76.966679 228.96 
L 77.981224 228.96 
L 77.981224 227.964344 
L 76.966679 227.964344 
z
" clip-path="url(#p3d951a899a)" style="fill: #1f77b4"/>
   </g>
   <g id="patch_13">
    <path d="M 78.234861 228.96 
L 79.249406 228.96 
L 79.249406 227.922583 
L 78.234861 227.922583 
z
" clip-path="url(#p3d951a899a)" style="fill: #1f77b4"/>
   </g>
   <g id="patch_14">
    <path d="M 79.503043 228.96 
L 80.517588 228.96 
L 80.517588 227.831209 
L 79.503043 227.831209 
z
" clip-path="url(#p3d951a899a)" style="fill: #1f77b4"/>
   </g>
   <g id="patch_15">
    <path d="M 80.771224 228.96 
L 81.78577 228.96 
L 81.78577 227.724844 
L 80.771224 227.724844 
z
" clip-path="url(#p3d951a899a)" style="fill: #1f77b4"/>
   </g>
   <g id="patch_16">
    <path d="M 82.039406 228.96 
L 83.053952 228.96 
L 83.053952 227.641323 
L 82.039406 227.641323 
z
" clip-path="url(#p3d951a899a)" style="fill: #1f77b4"/>
   </g>
   <g id="patch_17">
    <path d="M 83.307588 228.96 
L 84.322134 228.96 
L 84.322134 227.537277 
L 83.307588 227.537277 
z
" clip-path="url(#p3d951a899a)" style="fill: #1f77b4"/>
   </g>
   <g id="patch_18">
    <path d="M 84.57577 228.96 
L 85.590315 228.96 
L 85.590315 227.464464 
L 84.57577 227.464464 
z
" clip-path="url(#p3d951a899a)" style="fill: #1f77b4"/>
   </g>
   <g id="patch_19">
    <path d="M 85.843952 228.96 
L 86.858497 228.96 
L 86.858497 227.352566 
L 85.843952 227.352566 
z
" clip-path="url(#p3d951a899a)" style="fill: #1f77b4"/>
   </g>
   <g id="patch_20">
    <path d="M 87.112134 228.96 
L 88.126679 228.96 
L 88.126679 227.148581 
L 87.112134 227.148581 
z
" clip-path="url(#p3d951a899a)" style="fill: #1f77b4"/>
   </g>
   <g id="patch_21">
    <path d="M 88.380315 228.96 
L 89.394861 228.96 
L 89.394861 226.95923 
L 88.380315 226.95923 
z
" clip-path="url(#p3d951a899a)" style="fill: #1f77b4"/>
   </g>
   <g id="patch_22">
    <path d="M 89.648497 228.96 
L 90.663043 228.96 
L 90.663043 226.690104 
L 89.648497 226.690104 
z
" clip-path="url(#p3d951a899a)" style="fill: #1f77b4"/>
   </g>
   <g id="patch_23">
    <path d="M 90.916679 228.96 
L 91.931224 228.96 
L 91.931224 226.382966 
L 90.916679 226.382966 
z
" clip-path="url(#p3d951a899a)" style="fill: #1f77b4"/>
   </g>
   <g id="patch_24">
    <path d="M 92.184861 228.96 
L 93.199406 228.96 
L 93.199406 226.073151 
L 92.184861 226.073151 
z
" clip-path="url(#p3d951a899a)" style="fill: #1f77b4"/>
   </g>
   <g id="patch_25">
    <path d="M 93.453043 228.96 
L 94.467588 228.96 
L 94.467588 225.861849 
L 93.453043 225.861849 
z
" clip-path="url(#p3d951a899a)" style="fill: #1f77b4"/>
   </g>
   <g id="patch_26">
    <path d="M 94.721224 228.96 
L 95.73577 228.96 
L 95.73577 225.500636 
L 94.721224 225.500636 
z
" clip-path="url(#p3d951a899a)" style="fill: #1f77b4"/>
   </g>
   <g id="patch_27">
    <path d="M 95.989406 228.96 
L 97.003952 228.96 
L 97.003952 225.124788 
L 95.989406 225.124788 
z
" clip-path="url(#p3d951a899a)" style="fill: #1f77b4"/>
   </g>
   <g id="patch_28">
    <path d="M 97.257588 228.96 
L 98.272134 228.96 
L 98.272134 224.660423 
L 97.257588 224.660423 
z
" clip-path="url(#p3d951a899a)" style="fill: #1f77b4"/>
   </g>
   <g id="patch_29">
    <path d="M 98.52577 228.96 
L 99.540315 228.96 
L 99.540315 224.259769 
L 98.52577 224.259769 
z
" clip-path="url(#p3d951a899a)" style="fill: #1f77b4"/>
   </g>
   <g id="patch_30">
    <path d="M 99.793952 228.96 
L 100.808497 228.96 
L 100.808497 223.899448 
L 99.793952 223.899448 
z
" clip-path="url(#p3d951a899a)" style="fill: #1f77b4"/>
   </g>
   <g id="patch_31">
    <path d="M 101.062134 228.96 
L 102.076679 228.96 
L 102.076679 223.611049 
L 101.062134 223.611049 
z
" clip-path="url(#p3d951a899a)" style="fill: #1f77b4"/>
   </g>
   <g id="patch_32">
    <path d="M 102.330315 228.96 
L 103.344861 228.96 
L 103.344861 223.424553 
L 102.330315 223.424553 
z
" clip-path="url(#p3d951a899a)" style="fill: #1f77b4"/>
   </g>
   <g id="patch_33">
    <path d="M 103.598497 228.96 
L 104.613043 228.96 
L 104.613043 223.252513 
L 103.598497 223.252513 
z
" clip-path="url(#p3d951a899a)" style="fill: #1f77b4"/>
   </g>
   <g id="patch_34">
    <path d="M 104.866679 228.96 
L 105.881224 228.96 
L 105.881224 222.996059 
L 104.866679 222.996059 
z
" clip-path="url(#p3d951a899a)" style="fill: #1f77b4"/>
   </g>
   <g id="patch_35">
    <path d="M 106.134861 228.96 
L 107.149406 228.96 
L 107.149406 222.797249 
L 106.134861 222.797249 
z
" clip-path="url(#p3d951a899a)" style="fill: #1f77b4"/>
   </g>
   <g id="patch_36">
    <path d="M 107.403043 228.96 
L 108.417588 228.96 
L 108.417588 222.533834 
L 107.403043 222.533834 
z
" clip-path="url(#p3d951a899a)" style="fill: #1f77b4"/>
   </g>
   <g id="patch_37">
    <path d="M 108.671224 228.96 
L 109.68577 228.96 
L 109.68577 222.288802 
L 108.671224 222.288802 
z
" clip-path="url(#p3d951a899a)" style="fill: #1f77b4"/>
   </g>
   <g id="patch_38">
    <path d="M 109.939406 228.96 
L 110.953952 228.96 
L 110.953952 222.185649 
L 109.939406 222.185649 
z
" clip-path="url(#p3d951a899a)" style="fill: #1f77b4"/>
   </g>
   <g id="patch_39">
    <path d="M 111.207588 228.96 
L 112.222134 228.96 
L 112.222134 222.172621 
L 111.207588 222.172621 
z
" clip-path="url(#p3d951a899a)" style="fill: #1f77b4"/>
   </g>
   <g id="patch_40">
    <path d="M 112.47577 228.96 
L 113.490315 228.96 
L 113.490315 222.114977 
L 112.47577 222.114977 
z
" clip-path="url(#p3d951a899a)" style="fill: #1f77b4"/>
   </g>
   <g id="patch_41">
    <path d="M 113.743952 228.96 
L 114.758497 228.96 
L 114.758497 221.954359 
L 113.743952 221.954359 
z
" clip-path="url(#p3d951a899a)" style="fill: #1f77b4"/>
   </g>
   <g id="patch_42">
    <path d="M 115.012134 228.96 
L 116.026679 228.96 
L 116.026679 221.765364 
L 115.012134 221.765364 
z
" clip-path="url(#p3d951a899a)" style="fill: #1f77b4"/>
   </g>
   <g id="patch_43">
    <path d="M 116.280315 228.96 
L 117.294861 228.96 
L 117.294861 221.768934 
L 116.280315 221.768934 
z
" clip-path="url(#p3d951a899a)" style="fill: #1f77b4"/>
   </g>
   <g id="patch_44">
    <path d="M 117.548497 228.96 
L 118.563043 228.96 
L 118.563043 221.699511 
L 117.548497 221.699511 
z
" clip-path="url(#p3d951a899a)" style="fill: #1f77b4"/>
   </g>
   <g id="patch_45">
    <path d="M 118.816679 228.96 
L 119.831224 228.96 
L 119.831224 221.625626 
L 118.816679 221.625626 
z
" clip-path="url(#p3d951a899a)" style="fill: #1f77b4"/>
   </g>
   <g id="patch_46">
    <path d="M 120.084861 228.96 
L 121.099406 228.96 
L 121.099406 221.445377 
L 120.084861 221.445377 
z
" clip-path="url(#p3d951a899a)" style="fill: #1f77b4"/>
   </g>
   <g id="patch_47">
    <path d="M 121.353043 228.96 
L 122.367588 228.96 
L 122.367588 221.304211 
L 121.353043 221.304211 
z
" clip-path="url(#p3d951a899a)" style="fill: #1f77b4"/>
   </g>
   <g id="patch_48">
    <path d="M 122.621224 228.96 
L 123.63577 228.96 
L 123.63577 221.237822 
L 122.621224 221.237822 
z
" clip-path="url(#p3d951a899a)" style="fill: #1f77b4"/>
   </g>
   <g id="patch_49">
    <path d="M 123.889406 228.96 
L 124.903952 228.96 
L 124.903952 221.230683 
L 123.889406 221.230683 
z
" clip-path="url(#p3d951a899a)" style="fill: #1f77b4"/>
   </g>
   <g id="patch_50">
    <path d="M 125.157588 228.96 
L 126.172134 228.96 
L 126.172134 221.086127 
L 125.157588 221.086127 
z
" clip-path="url(#p3d951a899a)" style="fill: #1f77b4"/>
   </g>
   <g id="patch_51">
    <path d="M 126.42577 228.96 
L 127.440315 228.96 
L 127.440315 221.035086 
L 126.42577 221.035086 
z
" clip-path="url(#p3d951a899a)" style="fill: #1f77b4"/>
   </g>
   <g id="patch_52">
    <path d="M 127.693952 228.96 
L 128.708497 228.96 
L 128.708497 221.047757 
L 127.693952 221.047757 
z
" clip-path="url(#p3d951a899a)" style="fill: #1f77b4"/>
   </g>
   <g id="patch_53">
    <path d="M 128.962134 228.96 
L 129.976679 228.96 
L 129.976679 221.141629 
L 128.962134 221.141629 
z
" clip-path="url(#p3d951a899a)" style="fill: #1f77b4"/>
   </g>
   <g id="patch_54">
    <path d="M 130.230315 228.96 
L 131.244861 228.96 
L 131.244861 221.206412 
L 130.230315 221.206412 
z
" clip-path="url(#p3d951a899a)" style="fill: #1f77b4"/>
   </g>
   <g id="patch_55">
    <path d="M 131.498497 228.96 
L 132.513043 228.96 
L 132.513043 221.17179 
L 131.498497 221.17179 
z
" clip-path="url(#p3d951a899a)" style="fill: #1f77b4"/>
   </g>
   <g id="patch_56">
    <path d="M 132.766679 228.96 
L 133.781224 228.96 
L 133.781224 221.173575 
L 132.766679 221.173575 
z
" clip-path="url(#p3d951a899a)" style="fill: #1f77b4"/>
   </g>
   <g id="patch_57">
    <path d="M 134.034861 228.96 
L 135.049406 228.96 
L 135.049406 221.206591 
L 134.034861 221.206591 
z
" clip-path="url(#p3d951a899a)" style="fill: #1f77b4"/>
   </g>
   <g id="patch_58">
    <path d="M 135.303043 228.96 
L 136.317588 228.96 
L 136.317588 221.156264 
L 135.303043 221.156264 
z
" clip-path="url(#p3d951a899a)" style="fill: #1f77b4"/>
   </g>
   <g id="patch_59">
    <path d="M 136.571224 228.96 
L 137.58577 228.96 
L 137.58577 221.110041 
L 136.571224 221.110041 
z
" clip-path="url(#p3d951a899a)" style="fill: #1f77b4"/>
   </g>
   <g id="patch_60">
    <path d="M 137.839406 228.96 
L 138.853952 228.96 
L 138.853952 221.021879 
L 137.839406 221.021879 
z
" clip-path="url(#p3d951a899a)" style="fill: #1f77b4"/>
   </g>
   <g id="patch_61">
    <path d="M 139.107588 228.96 
L 140.122134 228.96 
L 140.122134 220.878572 
L 139.107588 220.878572 
z
" clip-path="url(#p3d951a899a)" style="fill: #1f77b4"/>
   </g>
   <g id="patch_62">
    <path d="M 140.37577 228.96 
L 141.390315 228.96 
L 141.390315 220.809685 
L 140.37577 220.809685 
z
" clip-path="url(#p3d951a899a)" style="fill: #1f77b4"/>
   </g>
   <g id="patch_63">
    <path d="M 141.643952 228.96 
L 142.658497 228.96 
L 142.658497 220.816645 
L 141.643952 220.816645 
z
" clip-path="url(#p3d951a899a)" style="fill: #1f77b4"/>
   </g>
   <g id="patch_64">
    <path d="M 142.912134 228.96 
L 143.926679 228.96 
L 143.926679 220.709209 
L 142.912134 220.709209 
z
" clip-path="url(#p3d951a899a)" style="fill: #1f77b4"/>
   </g>
   <g id="patch_65">
    <path d="M 144.180315 228.96 
L 145.194861 228.96 
L 145.194861 220.818072 
L 144.180315 220.818072 
z
" clip-path="url(#p3d951a899a)" style="fill: #1f77b4"/>
   </g>
   <g id="patch_66">
    <path d="M 145.448497 228.96 
L 146.463043 228.96 
L 146.463043 220.811648 
L 145.448497 220.811648 
z
" clip-path="url(#p3d951a899a)" style="fill: #1f77b4"/>
   </g>
   <g id="patch_67">
    <path d="M 146.716679 228.96 
L 147.731224 228.96 
L 147.731224 220.795764 
L 146.716679 220.795764 
z
" clip-path="url(#p3d951a899a)" style="fill: #1f77b4"/>
   </g>
   <g id="patch_68">
    <path d="M 147.984861 228.96 
L 148.999406 228.96 
L 148.999406 220.898917 
L 147.984861 220.898917 
z
" clip-path="url(#p3d951a899a)" style="fill: #1f77b4"/>
   </g>
   <g id="patch_69">
    <path d="M 149.253043 228.96 
L 150.267588 228.96 
L 150.267588 221.085413 
L 149.253043 221.085413 
z
" clip-path="url(#p3d951a899a)" style="fill: #1f77b4"/>
   </g>
   <g id="patch_70">
    <path d="M 150.521224 228.96 
L 151.53577 228.96 
L 151.53577 221.167507 
L 150.521224 221.167507 
z
" clip-path="url(#p3d951a899a)" style="fill: #1f77b4"/>
   </g>
   <g id="patch_71">
    <path d="M 151.789406 228.96 
L 152.803952 228.96 
L 152.803952 221.362212 
L 151.789406 221.362212 
z
" clip-path="url(#p3d951a899a)" style="fill: #1f77b4"/>
   </g>
   <g id="patch_72">
    <path d="M 153.057588 228.96 
L 154.072134 228.96 
L 154.072134 221.487673 
L 153.057588 221.487673 
z
" clip-path="url(#p3d951a899a)" style="fill: #1f77b4"/>
   </g>
   <g id="patch_73">
    <path d="M 154.32577 228.96 
L 155.340315 228.96 
L 155.340315 221.602604 
L 154.32577 221.602604 
z
" clip-path="url(#p3d951a899a)" style="fill: #1f77b4"/>
   </g>
   <g id="patch_74">
    <path d="M 155.593952 228.96 
L 156.608497 228.96 
L 156.608497 221.762509 
L 155.593952 221.762509 
z
" clip-path="url(#p3d951a899a)" style="fill: #1f77b4"/>
   </g>
   <g id="patch_75">
    <path d="M 156.862134 228.96 
L 157.876679 228.96 
L 157.876679 221.901355 
L 156.862134 221.901355 
z
" clip-path="url(#p3d951a899a)" style="fill: #1f77b4"/>
   </g>
   <g id="patch_76">
    <path d="M 158.130315 228.96 
L 159.144861 228.96 
L 159.144861 222.004864 
L 158.130315 222.004864 
z
" clip-path="url(#p3d951a899a)" style="fill: #1f77b4"/>
   </g>
   <g id="patch_77">
    <path d="M 159.398497 228.96 
L 160.413043 228.96 
L 160.413043 222.225982 
L 159.398497 222.225982 
z
" clip-path="url(#p3d951a899a)" style="fill: #1f77b4"/>
   </g>
   <g id="patch_78">
    <path d="M 160.666679 228.96 
L 161.681224 228.96 
L 161.681224 222.424792 
L 160.666679 222.424792 
z
" clip-path="url(#p3d951a899a)" style="fill: #1f77b4"/>
   </g>
   <g id="patch_79">
    <path d="M 161.934861 228.96 
L 162.949406 228.96 
L 162.949406 222.596833 
L 161.934861 222.596833 
z
" clip-path="url(#p3d951a899a)" style="fill: #1f77b4"/>
   </g>
   <g id="patch_80">
    <path d="M 163.203043 228.96 
L 164.217588 228.96 
L 164.217588 222.713013 
L 163.203043 222.713013 
z
" clip-path="url(#p3d951a899a)" style="fill: #1f77b4"/>
   </g>
   <g id="patch_81">
    <path d="M 164.471224 228.96 
L 165.48577 228.96 
L 165.48577 222.813132 
L 164.471224 222.813132 
z
" clip-path="url(#p3d951a899a)" style="fill: #1f77b4"/>
   </g>
   <g id="patch_82">
    <path d="M 165.739406 228.96 
L 166.753952 228.96 
L 166.753952 222.937879 
L 165.739406 222.937879 
z
" clip-path="url(#p3d951a899a)" style="fill: #1f77b4"/>
   </g>
   <g id="patch_83">
    <path d="M 167.007588 228.96 
L 168.022134 228.96 
L 168.022134 223.132941 
L 167.007588 223.132941 
z
" clip-path="url(#p3d951a899a)" style="fill: #1f77b4"/>
   </g>
   <g id="patch_84">
    <path d="M 168.27577 228.96 
L 169.290315 228.96 
L 169.290315 223.20522 
L 168.27577 223.20522 
z
" clip-path="url(#p3d951a899a)" style="fill: #1f77b4"/>
   </g>
   <g id="patch_85">
    <path d="M 169.543952 228.96 
L 170.558497 228.96 
L 170.558497 223.395999 
L 169.543952 223.395999 
z
" clip-path="url(#p3d951a899a)" style="fill: #1f77b4"/>
   </g>
   <g id="patch_86">
    <path d="M 170.812134 228.96 
L 171.826679 228.96 
L 171.826679 223.505754 
L 170.812134 223.505754 
z
" clip-path="url(#p3d951a899a)" style="fill: #1f77b4"/>
   </g>
   <g id="patch_87">
    <path d="M 172.080315 228.96 
L 173.094861 228.96 
L 173.094861 223.653167 
L 172.080315 223.653167 
z
" clip-path="url(#p3d951a899a)" style="fill: #1f77b4"/>
   </g>
   <g id="patch_88">
    <path d="M 173.348497 228.96 
L 174.363043 228.96 
L 174.363043 223.723303 
L 173.348497 223.723303 
z
" clip-path="url(#p3d951a899a)" style="fill: #1f77b4"/>
   </g>
   <g id="patch_89">
    <path d="M 174.616679 228.96 
L 175.631224 228.96 
L 175.631224 223.838235 
L 174.616679 223.838235 
z
" clip-path="url(#p3d951a899a)" style="fill: #1f77b4"/>
   </g>
   <g id="patch_90">
    <path d="M 175.884861 228.96 
L 176.899406 228.96 
L 176.899406 223.991715 
L 175.884861 223.991715 
z
" clip-path="url(#p3d951a899a)" style="fill: #1f77b4"/>
   </g>
   <g id="patch_91">
    <path d="M 177.153043 228.96 
L 178.167588 228.96 
L 178.167588 224.180173 
L 177.153043 224.180173 
z
" clip-path="url(#p3d951a899a)" style="fill: #1f77b4"/>
   </g>
   <g id="patch_92">
    <path d="M 178.421224 228.96 
L 179.43577 228.96 
L 179.43577 224.314915 
L 178.421224 224.314915 
z
" clip-path="url(#p3d951a899a)" style="fill: #1f77b4"/>
   </g>
   <g id="patch_93">
    <path d="M 179.689406 228.96 
L 180.703952 228.96 
L 180.703952 224.502838 
L 179.689406 224.502838 
z
" clip-path="url(#p3d951a899a)" style="fill: #1f77b4"/>
   </g>
   <g id="patch_94">
    <path d="M 180.957588 228.96 
L 181.972134 228.96 
L 181.972134 224.634724 
L 180.957588 224.634724 
z
" clip-path="url(#p3d951a899a)" style="fill: #1f77b4"/>
   </g>
   <g id="patch_95">
    <path d="M 182.22577 228.96 
L 183.240315 228.96 
L 183.240315 224.748049 
L 182.22577 224.748049 
z
" clip-path="url(#p3d951a899a)" style="fill: #1f77b4"/>
   </g>
   <g id="patch_96">
    <path d="M 183.493952 228.96 
L 184.508497 228.96 
L 184.508497 224.818007 
L 183.493952 224.818007 
z
" clip-path="url(#p3d951a899a)" style="fill: #1f77b4"/>
   </g>
   <g id="patch_97">
    <path d="M 184.762134 228.96 
L 185.776679 228.96 
L 185.776679 224.953284 
L 184.762134 224.953284 
z
" clip-path="url(#p3d951a899a)" style="fill: #1f77b4"/>
   </g>
   <g id="patch_98">
    <path d="M 186.030315 228.96 
L 187.044861 228.96 
L 187.044861 224.999149 
L 186.030315 224.999149 
z
" clip-path="url(#p3d951a899a)" style="fill: #1f77b4"/>
   </g>
   <g id="patch_99">
    <path d="M 187.298497 228.96 
L 188.313043 228.96 
L 188.313043 225.069107 
L 187.298497 225.069107 
z
" clip-path="url(#p3d951a899a)" style="fill: #1f77b4"/>
   </g>
   <g id="patch_100">
    <path d="M 188.566679 228.96 
L 189.581224 228.96 
L 189.581224 225.10712 
L 188.566679 225.10712 
z
" clip-path="url(#p3d951a899a)" style="fill: #1f77b4"/>
   </g>
   <g id="patch_101">
    <path d="M 189.834861 228.96 
L 190.849406 228.96 
L 190.849406 225.130499 
L 189.834861 225.130499 
z
" clip-path="url(#p3d951a899a)" style="fill: #1f77b4"/>
   </g>
   <g id="patch_102">
    <path d="M 191.103043 228.96 
L 192.117588 228.96 
L 192.117588 225.159054 
L 191.103043 225.159054 
z
" clip-path="url(#p3d951a899a)" style="fill: #1f77b4"/>
   </g>
   <g id="patch_103">
    <path d="M 192.371224 228.96 
L 193.38577 228.96 
L 193.38577 225.251677 
L 192.371224 225.251677 
z
" clip-path="url(#p3d951a899a)" style="fill: #1f77b4"/>
   </g>
   <g id="patch_104">
    <path d="M 193.639406 228.96 
L 194.653952 228.96 
L 194.653952 225.247572 
L 193.639406 225.247572 
z
" clip-path="url(#p3d951a899a)" style="fill: #1f77b4"/>
   </g>
   <g id="patch_105">
    <path d="M 194.907588 228.96 
L 195.922134 228.96 
L 195.922134 225.402123 
L 194.907588 225.402123 
z
" clip-path="url(#p3d951a899a)" style="fill: #1f77b4"/>
   </g>
   <g id="patch_106">
    <path d="M 196.17577 228.96 
L 197.190315 228.96 
L 197.190315 225.470297 
L 196.17577 225.470297 
z
" clip-path="url(#p3d951a899a)" style="fill: #1f77b4"/>
   </g>
   <g id="patch_107">
    <path d="M 197.443952 228.96 
L 198.458497 228.96 
L 198.458497 225.570951 
L 197.443952 225.570951 
z
" clip-path="url(#p3d951a899a)" style="fill: #1f77b4"/>
   </g>
   <g id="patch_108">
    <path d="M 198.712134 228.96 
L 199.726679 228.96 
L 199.726679 225.694092 
L 198.712134 225.694092 
z
" clip-path="url(#p3d951a899a)" style="fill: #1f77b4"/>
   </g>
   <g id="patch_109">
    <path d="M 199.980315 228.96 
L 200.994861 228.96 
L 200.994861 225.711224 
L 199.980315 225.711224 
z
" clip-path="url(#p3d951a899a)" style="fill: #1f77b4"/>
   </g>
   <g id="patch_110">
    <path d="M 201.248497 228.96 
L 202.263043 228.96 
L 202.263043 225.706227 
L 201.248497 225.706227 
z
" clip-path="url(#p3d951a899a)" style="fill: #1f77b4"/>
   </g>
   <g id="patch_111">
    <path d="M 202.516679 228.96 
L 203.531224 228.96 
L 203.531224 225.788856 
L 202.516679 225.788856 
z
" clip-path="url(#p3d951a899a)" style="fill: #1f77b4"/>
   </g>
   <g id="patch_112">
    <path d="M 203.784861 228.96 
L 204.799406 228.96 
L 204.799406 225.837042 
L 203.784861 225.837042 
z
" clip-path="url(#p3d951a899a)" style="fill: #1f77b4"/>
   </g>
   <g id="patch_113">
    <path d="M 205.053043 228.96 
L 206.067588 228.96 
L 206.067588 225.888975 
L 205.053043 225.888975 
z
" clip-path="url(#p3d951a899a)" style="fill: #1f77b4"/>
   </g>
   <g id="patch_114">
    <path d="M 206.321224 228.96 
L 207.33577 228.96 
L 207.33577 225.847036 
L 206.321224 225.847036 
z
" clip-path="url(#p3d951a899a)" style="fill: #1f77b4"/>
   </g>
   <g id="patch_115">
    <path d="M 207.589406 228.96 
L 208.603952 228.96 
L 208.603952 225.81866 
L 207.589406 225.81866 
z
" clip-path="url(#p3d951a899a)" style="fill: #1f77b4"/>
   </g>
   <g id="patch_116">
    <path d="M 208.857588 228.96 
L 209.872134 228.96 
L 209.872134 225.804204 
L 208.857588 225.804204 
z
" clip-path="url(#p3d951a899a)" style="fill: #1f77b4"/>
   </g>
   <g id="patch_117">
    <path d="M 210.12577 228.96 
L 211.140315 228.96 
L 211.140315 225.767976 
L 210.12577 225.767976 
z
" clip-path="url(#p3d951a899a)" style="fill: #1f77b4"/>
   </g>
   <g id="patch_118">
    <path d="M 211.393952 228.96 
L 212.408497 228.96 
L 212.408497 225.602004 
L 211.393952 225.602004 
z
" clip-path="url(#p3d951a899a)" style="fill: #1f77b4"/>
   </g>
   <g id="patch_119">
    <path d="M 212.662134 228.96 
L 213.676679 228.96 
L 213.676679 225.401052 
L 212.662134 225.401052 
z
" clip-path="url(#p3d951a899a)" style="fill: #1f77b4"/>
   </g>
   <g id="patch_120">
    <path d="M 213.930315 228.96 
L 214.944861 228.96 
L 214.944861 225.195817 
L 213.930315 225.195817 
z
" clip-path="url(#p3d951a899a)" style="fill: #1f77b4"/>
   </g>
   <g id="patch_121">
    <path d="M 215.198497 228.96 
L 216.213043 228.96 
L 216.213043 225.030737 
L 215.198497 225.030737 
z
" clip-path="url(#p3d951a899a)" style="fill: #1f77b4"/>
   </g>
   <g id="patch_122">
    <path d="M 216.466679 228.96 
L 217.481224 228.96 
L 217.481224 224.800875 
L 216.466679 224.800875 
z
" clip-path="url(#p3d951a899a)" style="fill: #1f77b4"/>
   </g>
   <g id="patch_123">
    <path d="M 217.734861 228.96 
L 218.749406 228.96 
L 218.749406 224.633474 
L 217.734861 224.633474 
z
" clip-path="url(#p3d951a899a)" style="fill: #1f77b4"/>
   </g>
   <g id="patch_124">
    <path d="M 219.003043 228.96 
L 220.017588 228.96 
L 220.017588 224.391298 
L 219.003043 224.391298 
z
" clip-path="url(#p3d951a899a)" style="fill: #1f77b4"/>
   </g>
   <g id="patch_125">
    <path d="M 220.271224 228.96 
L 221.28577 228.96 
L 221.28577 224.231393 
L 220.271224 224.231393 
z
" clip-path="url(#p3d951a899a)" style="fill: #1f77b4"/>
   </g>
   <g id="patch_126">
    <path d="M 221.539406 228.96 
L 222.553952 228.96 
L 222.553952 224.040079 
L 221.539406 224.040079 
z
" clip-path="url(#p3d951a899a)" style="fill: #1f77b4"/>
   </g>
   <g id="patch_127">
    <path d="M 222.807588 228.96 
L 223.822134 228.96 
L 223.822134 223.780769 
L 222.807588 223.780769 
z
" clip-path="url(#p3d951a899a)" style="fill: #1f77b4"/>
   </g>
   <g id="patch_128">
    <path d="M 224.07577 228.96 
L 225.090315 228.96 
L 225.090315 223.607658 
L 224.07577 223.607658 
z
" clip-path="url(#p3d951a899a)" style="fill: #1f77b4"/>
   </g>
   <g id="patch_129">
    <path d="M 225.343952 228.96 
L 226.358497 228.96 
L 226.358497 223.464708 
L 225.343952 223.464708 
z
" clip-path="url(#p3d951a899a)" style="fill: #1f77b4"/>
   </g>
   <g id="patch_130">
    <path d="M 226.612134 228.96 
L 227.626679 228.96 
L 227.626679 223.414202 
L 226.612134 223.414202 
z
" clip-path="url(#p3d951a899a)" style="fill: #1f77b4"/>
   </g>
   <g id="patch_131">
    <path d="M 227.880315 228.96 
L 228.894861 228.96 
L 228.894861 223.631929 
L 227.880315 223.631929 
z
" clip-path="url(#p3d951a899a)" style="fill: #1f77b4"/>
   </g>
   <g id="patch_132">
    <path d="M 229.148497 228.96 
L 230.163043 228.96 
L 230.163043 223.526635 
L 229.148497 223.526635 
z
" clip-path="url(#p3d951a899a)" style="fill: #1f77b4"/>
   </g>
   <g id="patch_133">
    <path d="M 230.416679 228.96 
L 231.431224 228.96 
L 231.431224 223.34121 
L 230.416679 223.34121 
z
" clip-path="url(#p3d951a899a)" style="fill: #1f77b4"/>
   </g>
   <g id="patch_134">
    <path d="M 231.684861 228.96 
L 232.699406 228.96 
L 232.699406 223.086183 
L 231.684861 223.086183 
z
" clip-path="url(#p3d951a899a)" style="fill: #1f77b4"/>
   </g>
   <g id="patch_135">
    <path d="M 232.953043 228.96 
L 233.967588 228.96 
L 233.967588 222.749599 
L 232.953043 222.749599 
z
" clip-path="url(#p3d951a899a)" style="fill: #1f77b4"/>
   </g>
   <g id="patch_136">
    <path d="M 234.221224 228.96 
L 235.23577 228.96 
L 235.23577 222.518308 
L 234.221224 222.518308 
z
" clip-path="url(#p3d951a899a)" style="fill: #1f77b4"/>
   </g>
   <g id="patch_137">
    <path d="M 235.489406 228.96 
L 236.503952 228.96 
L 236.503952 222.272205 
L 235.489406 222.272205 
z
" clip-path="url(#p3d951a899a)" style="fill: #1f77b4"/>
   </g>
   <g id="patch_138">
    <path d="M 236.757588 228.96 
L 237.772134 228.96 
L 237.772134 221.701474 
L 236.757588 221.701474 
z
" clip-path="url(#p3d951a899a)" style="fill: #1f77b4"/>
   </g>
   <g id="patch_139">
    <path d="M 238.02577 228.96 
L 239.040315 228.96 
L 239.040315 221.219083 
L 238.02577 221.219083 
z
" clip-path="url(#p3d951a899a)" style="fill: #1f77b4"/>
   </g>
   <g id="patch_140">
    <path d="M 239.293952 228.96 
L 240.308497 228.96 
L 240.308497 220.743653 
L 239.293952 220.743653 
z
" clip-path="url(#p3d951a899a)" style="fill: #1f77b4"/>
   </g>
   <g id="patch_141">
    <path d="M 240.562134 228.96 
L 241.576679 228.96 
L 241.576679 220.430982 
L 240.562134 220.430982 
z
" clip-path="url(#p3d951a899a)" style="fill: #1f77b4"/>
   </g>
   <g id="patch_142">
    <path d="M 241.830315 228.96 
L 242.844861 228.96 
L 242.844861 220.113314 
L 241.830315 220.113314 
z
" clip-path="url(#p3d951a899a)" style="fill: #1f77b4"/>
   </g>
   <g id="patch_143">
    <path d="M 243.098497 228.96 
L 244.113043 228.96 
L 244.113043 219.801536 
L 243.098497 219.801536 
z
" clip-path="url(#p3d951a899a)" style="fill: #1f77b4"/>
   </g>
   <g id="patch_144">
    <path d="M 244.366679 228.96 
L 245.381224 228.96 
L 245.381224 219.63253 
L 244.366679 219.63253 
z
" clip-path="url(#p3d951a899a)" style="fill: #1f77b4"/>
   </g>
   <g id="patch_145">
    <path d="M 245.634861 228.96 
L 246.649406 228.96 
L 246.649406 219.335207 
L 245.634861 219.335207 
z
" clip-path="url(#p3d951a899a)" style="fill: #1f77b4"/>
   </g>
   <g id="patch_146">
    <path d="M 246.903043 228.96 
L 247.917588 228.96 
L 247.917588 218.928129 
L 246.903043 218.928129 
z
" clip-path="url(#p3d951a899a)" style="fill: #1f77b4"/>
   </g>
   <g id="patch_147">
    <path d="M 248.171224 228.96 
L 249.18577 228.96 
L 249.18577 218.558885 
L 248.171224 218.558885 
z
" clip-path="url(#p3d951a899a)" style="fill: #1f77b4"/>
   </g>
   <g id="patch_148">
    <path d="M 249.439406 228.96 
L 250.453952 228.96 
L 250.453952 218.196958 
L 249.439406 218.196958 
z
" clip-path="url(#p3d951a899a)" style="fill: #1f77b4"/>
   </g>
   <g id="patch_149">
    <path d="M 250.707588 228.96 
L 251.722134 228.96 
L 251.722134 217.6596 
L 250.707588 217.6596 
z
" clip-path="url(#p3d951a899a)" style="fill: #1f77b4"/>
   </g>
   <g id="patch_150">
    <path d="M 251.97577 228.96 
L 252.990315 228.96 
L 252.990315 217.277685 
L 251.97577 217.277685 
z
" clip-path="url(#p3d951a899a)" style="fill: #1f77b4"/>
   </g>
   <g id="patch_151">
    <path d="M 253.243952 228.96 
L 254.258497 228.96 
L 254.258497 217.052819 
L 253.243952 217.052819 
z
" clip-path="url(#p3d951a899a)" style="fill: #1f77b4"/>
   </g>
   <g id="patch_152">
    <path d="M 254.512134 228.96 
L 255.526679 228.96 
L 255.526679 216.633605 
L 254.512134 216.633605 
z
" clip-path="url(#p3d951a899a)" style="fill: #1f77b4"/>
   </g>
   <g id="patch_153">
    <path d="M 255.780315 228.96 
L 256.794861 228.96 
L 256.794861 216.227419 
L 255.780315 216.227419 
z
" clip-path="url(#p3d951a899a)" style="fill: #1f77b4"/>
   </g>
   <g id="patch_154">
    <path d="M 257.048497 228.96 
L 258.063043 228.96 
L 258.063043 215.669537 
L 257.048497 215.669537 
z
" clip-path="url(#p3d951a899a)" style="fill: #1f77b4"/>
   </g>
   <g id="patch_155">
    <path d="M 258.316679 228.96 
L 259.331224 228.96 
L 259.331224 215.108801 
L 258.316679 215.108801 
z
" clip-path="url(#p3d951a899a)" style="fill: #1f77b4"/>
   </g>
   <g id="patch_156">
    <path d="M 259.584861 228.96 
L 260.599406 228.96 
L 260.599406 214.87287 
L 259.584861 214.87287 
z
" clip-path="url(#p3d951a899a)" style="fill: #1f77b4"/>
   </g>
   <g id="patch_157">
    <path d="M 260.853043 228.96 
L 261.867588 228.96 
L 261.867588 214.297677 
L 260.853043 214.297677 
z
" clip-path="url(#p3d951a899a)" style="fill: #1f77b4"/>
   </g>
   <g id="patch_158">
    <path d="M 262.121224 228.96 
L 263.13577 228.96 
L 263.13577 214.017309 
L 262.121224 214.017309 
z
" clip-path="url(#p3d951a899a)" style="fill: #1f77b4"/>
   </g>
   <g id="patch_159">
    <path d="M 263.389406 228.96 
L 264.403952 228.96 
L 264.403952 213.53242 
L 263.389406 213.53242 
z
" clip-path="url(#p3d951a899a)" style="fill: #1f77b4"/>
   </g>
   <g id="patch_160">
    <path d="M 264.657588 228.96 
L 265.672134 228.96 
L 265.672134 213.061808 
L 264.657588 213.061808 
z
" clip-path="url(#p3d951a899a)" style="fill: #1f77b4"/>
   </g>
   <g id="patch_161">
    <path d="M 265.92577 228.96 
L 266.940315 228.96 
L 266.940315 212.518917 
L 265.92577 212.518917 
z
" clip-path="url(#p3d951a899a)" style="fill: #1f77b4"/>
   </g>
   <g id="patch_162">
    <path d="M 267.193952 228.96 
L 268.208497 228.96 
L 268.208497 211.922131 
L 267.193952 211.922131 
z
" clip-path="url(#p3d951a899a)" style="fill: #1f77b4"/>
   </g>
   <g id="patch_163">
    <path d="M 268.462134 228.96 
L 269.476679 228.96 
L 269.476679 211.251995 
L 268.462134 211.251995 
z
" clip-path="url(#p3d951a899a)" style="fill: #1f77b4"/>
   </g>
   <g id="patch_164">
    <path d="M 269.730315 228.96 
L 270.744861 228.96 
L 270.744861 210.879181 
L 269.730315 210.879181 
z
" clip-path="url(#p3d951a899a)" style="fill: #1f77b4"/>
   </g>
   <g id="patch_165">
    <path d="M 270.998497 228.96 
L 272.013043 228.96 
L 272.013043 210.606487 
L 270.998497 210.606487 
z
" clip-path="url(#p3d951a899a)" style="fill: #1f77b4"/>
   </g>
   <g id="patch_166">
    <path d="M 272.266679 228.96 
L 273.281224 228.96 
L 273.281224 210.07252 
L 272.266679 210.07252 
z
" clip-path="url(#p3d951a899a)" style="fill: #1f77b4"/>
   </g>
   <g id="patch_167">
    <path d="M 273.534861 228.96 
L 274.549406 228.96 
L 274.549406 209.559612 
L 273.534861 209.559612 
z
" clip-path="url(#p3d951a899a)" style="fill: #1f77b4"/>
   </g>
   <g id="patch_168">
    <path d="M 274.803043 228.96 
L 275.817588 228.96 
L 275.817588 210.323263 
L 274.803043 210.323263 
z
" clip-path="url(#p3d951a899a)" style="fill: #1f77b4"/>
   </g>
   <g id="patch_169">
    <path d="M 276.071224 228.96 
L 277.08577 228.96 
L 277.08577 209.704525 
L 276.071224 209.704525 
z
" clip-path="url(#p3d951a899a)" style="fill: #1f77b4"/>
   </g>
   <g id="patch_170">
    <path d="M 277.339406 228.96 
L 278.353952 228.96 
L 278.353952 208.917495 
L 277.339406 208.917495 
z
" clip-path="url(#p3d951a899a)" style="fill: #1f77b4"/>
   </g>
   <g id="patch_171">
    <path d="M 278.607588 228.96 
L 279.622134 228.96 
L 279.622134 208.169013 
L 278.607588 208.169013 
z
" clip-path="url(#p3d951a899a)" style="fill: #1f77b4"/>
   </g>
   <g id="patch_172">
    <path d="M 279.87577 228.96 
L 280.890315 228.96 
L 280.890315 207.596319 
L 279.87577 207.596319 
z
" clip-path="url(#p3d951a899a)" style="fill: #1f77b4"/>
   </g>
   <g id="patch_173">
    <path d="M 281.143952 228.96 
L 282.158497 228.96 
L 282.158497 206.718093 
L 281.143952 206.718093 
z
" clip-path="url(#p3d951a899a)" style="fill: #1f77b4"/>
   </g>
   <g id="patch_174">
    <path d="M 282.412134 228.96 
L 283.426679 228.96 
L 283.426679 205.78365 
L 282.412134 205.78365 
z
" clip-path="url(#p3d951a899a)" style="fill: #1f77b4"/>
   </g>
   <g id="patch_175">
    <path d="M 283.680315 228.96 
L 284.694861 228.96 
L 284.694861 203.35974 
L 283.680315 203.35974 
z
" clip-path="url(#p3d951a899a)" style="fill: #1f77b4"/>
   </g>
   <g id="patch_176">
    <path d="M 284.948497 228.96 
L 285.963043 228.96 
L 285.963043 201.907927 
L 284.948497 201.907927 
z
" clip-path="url(#p3d951a899a)" style="fill: #1f77b4"/>
   </g>
   <g id="patch_177">
    <path d="M 286.216679 228.96 
L 287.231224 228.96 
L 287.231224 200.654747 
L 286.216679 200.654747 
z
" clip-path="url(#p3d951a899a)" style="fill: #1f77b4"/>
   </g>
   <g id="patch_178">
    <path d="M 287.484861 228.96 
L 288.499406 228.96 
L 288.499406 199.754569 
L 287.484861 199.754569 
z
" clip-path="url(#p3d951a899a)" style="fill: #1f77b4"/>
   </g>
   <g id="patch_179">
    <path d="M 288.753043 228.96 
L 289.767588 228.96 
L 289.767588 199.129764 
L 288.753043 199.129764 
z
" clip-path="url(#p3d951a899a)" style="fill: #1f77b4"/>
   </g>
   <g id="patch_180">
    <path d="M 290.021224 228.96 
L 291.03577 228.96 
L 291.03577 197.32352 
L 290.021224 197.32352 
z
" clip-path="url(#p3d951a899a)" style="fill: #1f77b4"/>
   </g>
   <g id="patch_181">
    <path d="M 291.289406 228.96 
L 292.303952 228.96 
L 292.303952 194.985986 
L 291.289406 194.985986 
z
" clip-path="url(#p3d951a899a)" style="fill: #1f77b4"/>
   </g>
   <g id="patch_182">
    <path d="M 292.557588 228.96 
L 293.572134 228.96 
L 293.572134 191.686883 
L 292.557588 191.686883 
z
" clip-path="url(#p3d951a899a)" style="fill: #1f77b4"/>
   </g>
   <g id="patch_183">
    <path d="M 293.82577 228.96 
L 294.840315 228.96 
L 294.840315 187.766544 
L 293.82577 187.766544 
z
" clip-path="url(#p3d951a899a)" style="fill: #1f77b4"/>
   </g>
   <g id="patch_184">
    <path d="M 295.093952 228.96 
L 296.108497 228.96 
L 296.108497 183.001887 
L 295.093952 183.001887 
z
" clip-path="url(#p3d951a899a)" style="fill: #1f77b4"/>
   </g>
   <g id="patch_185">
    <path d="M 296.362134 228.96 
L 297.376679 228.96 
L 297.376679 182.890525 
L 296.362134 182.890525 
z
" clip-path="url(#p3d951a899a)" style="fill: #1f77b4"/>
   </g>
   <g id="patch_186">
    <path d="M 297.630315 228.96 
L 298.644861 228.96 
L 298.644861 180.285472 
L 297.630315 180.285472 
z
" clip-path="url(#p3d951a899a)" style="fill: #1f77b4"/>
   </g>
   <g id="patch_187">
    <path d="M 298.898497 228.96 
L 299.913043 228.96 
L 299.913043 171.80571 
L 298.898497 171.80571 
z
" clip-path="url(#p3d951a899a)" style="fill: #1f77b4"/>
   </g>
   <g id="patch_188">
    <path d="M 300.166679 228.96 
L 301.181224 228.96 
L 301.181224 160.78782 
L 300.166679 160.78782 
z
" clip-path="url(#p3d951a899a)" style="fill: #1f77b4"/>
   </g>
   <g id="patch_189">
    <path d="M 301.434861 228.96 
L 302.449406 228.96 
L 302.449406 146.101405 
L 301.434861 146.101405 
z
" clip-path="url(#p3d951a899a)" style="fill: #1f77b4"/>
   </g>
   <g id="patch_190">
    <path d="M 302.703043 228.96 
L 303.717588 228.96 
L 303.717588 129.389234 
L 302.703043 129.389234 
z
" clip-path="url(#p3d951a899a)" style="fill: #1f77b4"/>
   </g>
   <g id="patch_191">
    <path d="M 303.971224 228.96 
L 304.98577 228.96 
L 304.98577 113.934884 
L 303.971224 113.934884 
z
" clip-path="url(#p3d951a899a)" style="fill: #1f77b4"/>
   </g>
   <g id="patch_192">
    <path d="M 305.239406 228.96 
L 306.253952 228.96 
L 306.253952 107.481056 
L 305.239406 107.481056 
z
" clip-path="url(#p3d951a899a)" style="fill: #1f77b4"/>
   </g>
   <g id="patch_193">
    <path d="M 306.507588 228.96 
L 307.522134 228.96 
L 307.522134 100.834665 
L 306.507588 100.834665 
z
" clip-path="url(#p3d951a899a)" style="fill: #1f77b4"/>
   </g>
   <g id="patch_194">
    <path d="M 307.77577 228.96 
L 308.790315 228.96 
L 308.790315 84.321126 
L 307.77577 84.321126 
z
" clip-path="url(#p3d951a899a)" style="fill: #1f77b4"/>
   </g>
   <g id="patch_195">
    <path d="M 309.043952 228.96 
L 310.058497 228.96 
L 310.058497 68.066717 
L 309.043952 68.066717 
z
" clip-path="url(#p3d951a899a)" style="fill: #1f77b4"/>
   </g>
   <g id="patch_196">
    <path d="M 310.312134 228.96 
L 311.326679 228.96 
L 311.326679 51.549252 
L 310.312134 51.549252 
z
" clip-path="url(#p3d951a899a)" style="fill: #1f77b4"/>
   </g>
   <g id="patch_197">
    <path d="M 311.580315 228.96 
L 312.594861 228.96 
L 312.594861 57.963103 
L 311.580315 57.963103 
z
" clip-path="url(#p3d951a899a)" style="fill: #1f77b4"/>
   </g>
   <g id="patch_198">
    <path d="M 312.848497 228.96 
L 313.863043 228.96 
L 313.863043 47.934444 
L 312.848497 47.934444 
z
" clip-path="url(#p3d951a899a)" style="fill: #1f77b4"/>
   </g>
   <g id="patch_199">
    <path d="M 314.116679 228.96 
L 315.131224 228.96 
L 315.131224 31.049341 
L 314.116679 31.049341 
z
" clip-path="url(#p3d951a899a)" style="fill: #1f77b4"/>
   </g>
   <g id="patch_200">
    <path d="M 315.384861 228.96 
L 316.399406 228.96 
L 316.399406 25.033288 
L 315.384861 25.033288 
z
" clip-path="url(#p3d951a899a)" style="fill: #1f77b4"/>
   </g>
   <g id="patch_201">
    <path d="M 316.653043 228.96 
L 317.667588 228.96 
L 317.667588 16.165722 
L 316.653043 16.165722 
z
" clip-path="url(#p3d951a899a)" style="fill: #1f77b4"/>
   </g>
   <g id="patch_202">
    <path d="M 317.921224 228.96 
L 318.93577 228.96 
L 318.93577 14.895944 
L 317.921224 14.895944 
z
" clip-path="url(#p3d951a899a)" style="fill: #1f77b4"/>
   </g>
   <g id="patch_203">
    <path d="M 319.189406 228.96 
L 320.203952 228.96 
L 320.203952 21.111164 
L 319.189406 21.111164 
z
" clip-path="url(#p3d951a899a)" style="fill: #1f77b4"/>
   </g>
   <g id="patch_204">
    <path d="M 320.457588 228.96 
L 321.472134 228.96 
L 321.472134 7.2 
L 320.457588 7.2 
z
" clip-path="url(#p3d951a899a)" style="fill: #1f77b4"/>
   </g>
   <g id="patch_205">
    <path d="M 321.72577 228.96 
L 322.740315 228.96 
L 322.740315 10.256391 
L 321.72577 10.256391 
z
" clip-path="url(#p3d951a899a)" style="fill: #1f77b4"/>
   </g>
   <g id="patch_206">
    <path d="M 322.993952 228.96 
L 324.008497 228.96 
L 324.008497 11.353415 
L 322.993952 11.353415 
z
" clip-path="url(#p3d951a899a)" style="fill: #1f77b4"/>
   </g>
   <g id="patch_207">
    <path d="M 324.262134 228.96 
L 325.276679 228.96 
L 325.276679 14.629852 
L 324.262134 14.629852 
z
" clip-path="url(#p3d951a899a)" style="fill: #1f77b4"/>
   </g>
   <g id="patch_208">
    <path d="M 325.530315 228.96 
L 326.544861 228.96 
L 326.544861 16.151801 
L 325.530315 16.151801 
z
" clip-path="url(#p3d951a899a)" style="fill: #1f77b4"/>
   </g>
   <g id="patch_209">
    <path d="M 326.798497 228.96 
L 327.813043 228.96 
L 327.813043 16.848529 
L 326.798497 16.848529 
z
" clip-path="url(#p3d951a899a)" style="fill: #1f77b4"/>
   </g>
   <g id="patch_210">
    <path d="M 328.066679 228.96 
L 329.081224 228.96 
L 329.081224 16.102188 
L 328.066679 16.102188 
z
" clip-path="url(#p3d951a899a)" style="fill: #1f77b4"/>
   </g>
   <g id="patch_211">
    <path d="M 329.334861 228.96 
L 330.349406 228.96 
L 330.349406 17.377677 
L 329.334861 17.377677 
z
" clip-path="url(#p3d951a899a)" style="fill: #1f77b4"/>
   </g>
   <g id="patch_212">
    <path d="M 330.603043 228.96 
L 331.617588 228.96 
L 331.617588 19.012951 
L 330.603043 19.012951 
z
" clip-path="url(#p3d951a899a)" style="fill: #1f77b4"/>
   </g>
   <g id="patch_213">
    <path d="M 331.871224 228.96 
L 332.88577 228.96 
L 332.88577 20.91396 
L 331.871224 20.91396 
z
" clip-path="url(#p3d951a899a)" style="fill: #1f77b4"/>
   </g>
   <g id="patch_214">
    <path d="M 333.139406 228.96 
L 334.153952 228.96 
L 334.153952 21.932459 
L 333.139406 21.932459 
z
" clip-path="url(#p3d951a899a)" style="fill: #1f77b4"/>
   </g>
   <g id="patch_215">
    <path d="M 334.407588 228.96 
L 335.422134 228.96 
L 335.422134 25.767671 
L 334.407588 25.767671 
z
" clip-path="url(#p3d951a899a)" style="fill: #1f77b4"/>
   </g>
   <g id="patch_216">
    <path d="M 335.67577 228.96 
L 336.690315 228.96 
L 336.690315 30.249639 
L 335.67577 30.249639 
z
" clip-path="url(#p3d951a899a)" style="fill: #1f77b4"/>
   </g>
   <g id="patch_217">
    <path d="M 336.943952 228.96 
L 337.958497 228.96 
L 337.958497 36.156829 
L 336.943952 36.156829 
z
" clip-path="url(#p3d951a899a)" style="fill: #1f77b4"/>
   </g>
   <g id="patch_218">
    <path d="M 338.212134 228.96 
L 339.226679 228.96 
L 339.226679 42.440223 
L 338.212134 42.440223 
z
" clip-path="url(#p3d951a899a)" style="fill: #1f77b4"/>
   </g>
   <g id="patch_219">
    <path d="M 339.480315 228.96 
L 340.494861 228.96 
L 340.494861 48.528733 
L 339.480315 48.528733 
z
" clip-path="url(#p3d951a899a)" style="fill: #1f77b4"/>
   </g>
   <g id="patch_220">
    <path d="M 340.748497 228.96 
L 341.763043 228.96 
L 341.763043 54.73842 
L 340.748497 54.73842 
z
" clip-path="url(#p3d951a899a)" style="fill: #1f77b4"/>
   </g>
   <g id="patch_221">
    <path d="M 342.016679 228.96 
L 343.031224 228.96 
L 343.031224 58.304328 
L 342.016679 58.304328 
z
" clip-path="url(#p3d951a899a)" style="fill: #1f77b4"/>
   </g>
   <g id="patch_222">
    <path d="M 343.284861 228.96 
L 344.299406 228.96 
L 344.299406 68.543219 
L 343.284861 68.543219 
z
" clip-path="url(#p3d951a899a)" style="fill: #1f77b4"/>
   </g>
   <g id="matplotlib.axis_1">
    <g id="xtick_1">
     <g id="line2d_1">
      <defs>
       <path id="m2b3550c47b" d="M 0 0 
L 0 3.5 
" style="stroke: #000000; stroke-width: 0.8"/>
      </defs>
      <g>
       <use xlink:href="#m2b3550c47b" x="71.133043" y="228.96" style="stroke: #000000; stroke-width: 0.8"/>
      </g>
     </g>
     <g id="text_1">
      <!-- $\mathdefault{2021{-}07}$ -->
      <g transform="translate(73.292456 274.166609)rotate(-90)scale(0.1 -0.1)">
       <defs>
        <path id="URWPalladioL-Roma-32" d="M 102 160 
L 102 0 
C 1299 0 1299 0 1530 0 
C 1760 0 1760 0 2995 0 
C 2982 125 2982 186 2982 269 
C 2982 348 2982 407 2995 539 
C 2259 539 1965 539 781 539 
L 1946 1761 
C 2566 2414 2758 2763 2758 3238 
C 2758 3966 2259 4416 1446 4416 
C 986 4416 672 4288 358 3969 
L 250 3099 
L 435 3099 
L 518 3393 
C 621 3763 851 3923 1280 3923 
C 1830 3923 2182 3577 2182 3035 
C 2182 2555 1914 2083 1190 1316 
L 102 160 
z
" transform="scale(0.015625)"/>
        <path id="URWPalladioL-Roma-30" d="M 1683 4416 
C 691 4416 186 3628 186 2077 
C 186 1326 320 680 544 366 
C 768 51 1126 -128 1523 -128 
C 2490 -128 2976 705 2976 2346 
C 2976 3749 2560 4416 1683 4416 
z
M 1568 4192 
C 2189 4192 2438 3564 2438 2025 
C 2438 661 2195 96 1606 96 
C 986 96 723 744 723 2308 
C 723 3660 960 4192 1568 4192 
z
" transform="scale(0.015625)"/>
        <path id="URWPalladioL-Roma-31" d="M 429 3584 
L 493 3584 
L 1318 3956 
C 1325 3962 1331 3962 1338 3962 
C 1376 3962 1389 3905 1389 3751 
L 1389 613 
C 1389 276 1318 205 973 205 
L 614 205 
L 614 0 
C 1600 0 1600 0 1670 0 
C 1754 0 1894 0 2112 0 
C 2189 0 2413 0 2675 0 
L 2675 205 
L 2342 205 
C 1990 205 1926 276 1926 612 
L 1926 4443 
L 1837 4475 
C 1421 4257 966 4065 384 3860 
L 429 3584 
z
" transform="scale(0.015625)"/>
        <path id="CMSY10-0" d="M 4218 1472 
C 4326 1472 4442 1472 4442 1600 
C 4442 1728 4326 1728 4218 1728 
L 755 1728 
C 646 1728 531 1728 531 1600 
C 531 1472 646 1472 755 1472 
L 4218 1472 
z
" transform="scale(0.015625)"/>
        <path id="URWPalladioL-Roma-37" d="M 358 32 
L 416 -51 
C 666 -32 666 -32 710 -32 
C 755 -32 755 -32 1005 -51 
C 1274 649 1587 1317 2010 2087 
L 3181 4199 
L 3181 4372 
C 2490 4372 2266 4372 1747 4372 
C 1280 4372 966 4372 346 4372 
L 282 4359 
C 301 3750 301 3750 301 3685 
C 301 3614 301 3614 282 3031 
L 474 3031 
L 518 3390 
C 570 3789 614 3840 909 3840 
L 2618 3840 
C 2362 3313 2163 2941 1920 2549 
L 358 32 
z
" transform="scale(0.015625)"/>
       </defs>
       <use xlink:href="#URWPalladioL-Roma-32" transform="scale(0.996264)"/>
       <use xlink:href="#URWPalladioL-Roma-30" transform="translate(49.8132 0)scale(0.996264)"/>
       <use xlink:href="#URWPalladioL-Roma-32" transform="translate(99.626401 0)scale(0.996264)"/>
       <use xlink:href="#URWPalladioL-Roma-31" transform="translate(149.439601 0)scale(0.996264)"/>
       <use xlink:href="#CMSY10-0" transform="translate(200.498102 0)scale(1.038107)"/>
       <use xlink:href="#URWPalladioL-Roma-30" transform="translate(282.439798 0)scale(0.996264)"/>
       <use xlink:href="#URWPalladioL-Roma-37" transform="translate(332.252998 0)scale(0.996264)"/>
      </g>
     </g>
    </g>
    <g id="xtick_2">
     <g id="line2d_2">
      <g>
       <use xlink:href="#m2b3550c47b" x="110.446679" y="228.96" style="stroke: #000000; stroke-width: 0.8"/>
      </g>
     </g>
     <g id="text_2">
      <!-- $\mathdefault{2021{-}08}$ -->
      <g transform="translate(112.606092 274.166609)rotate(-90)scale(0.1 -0.1)">
       <defs>
        <path id="URWPalladioL-Roma-38" d="M 1075 2211 
C 813 2090 704 2019 563 1884 
C 320 1641 192 1352 192 1019 
C 192 359 723 -128 1446 -128 
C 2278 -128 2970 526 2970 1320 
C 2970 1833 2733 2109 2003 2442 
C 2586 2840 2790 3109 2790 3493 
C 2790 4044 2336 4416 1658 4416 
C 896 4416 339 3929 339 3257 
C 339 2821 512 2577 1075 2211 
z
M 1818 1891 
C 2221 1711 2464 1397 2464 1052 
C 2464 513 2061 90 1542 90 
C 998 90 646 475 646 1071 
C 646 1538 832 1833 1306 2122 
L 1818 1891 
z
M 1427 2712 
C 1024 2910 819 3167 819 3487 
C 819 3910 1126 4198 1581 4198 
C 2048 4198 2355 3891 2355 3422 
C 2355 3058 2195 2808 1779 2538 
L 1427 2712 
z
" transform="scale(0.015625)"/>
       </defs>
       <use xlink:href="#URWPalladioL-Roma-32" transform="scale(0.996264)"/>
       <use xlink:href="#URWPalladioL-Roma-30" transform="translate(49.8132 0)scale(0.996264)"/>
       <use xlink:href="#URWPalladioL-Roma-32" transform="translate(99.626401 0)scale(0.996264)"/>
       <use xlink:href="#URWPalladioL-Roma-31" transform="translate(149.439601 0)scale(0.996264)"/>
       <use xlink:href="#CMSY10-0" transform="translate(200.498102 0)scale(1.038107)"/>
       <use xlink:href="#URWPalladioL-Roma-30" transform="translate(282.439798 0)scale(0.996264)"/>
       <use xlink:href="#URWPalladioL-Roma-38" transform="translate(332.252998 0)scale(0.996264)"/>
      </g>
     </g>
    </g>
    <g id="xtick_3">
     <g id="line2d_3">
      <g>
       <use xlink:href="#m2b3550c47b" x="149.760315" y="228.96" style="stroke: #000000; stroke-width: 0.8"/>
      </g>
     </g>
     <g id="text_3">
      <!-- $\mathdefault{2021{-}09}$ -->
      <g transform="translate(151.919729 274.166609)rotate(-90)scale(0.1 -0.1)">
       <defs>
        <path id="URWPalladioL-Roma-39" d="M 614 -106 
C 1325 125 1632 272 1978 566 
C 2598 1098 2925 1835 2925 2693 
C 2925 3776 2406 4435 1562 4435 
C 742 4435 128 3795 128 2938 
C 128 2201 608 1664 1274 1664 
C 1491 1664 1741 1734 1856 1830 
L 2304 2202 
C 2253 1125 1555 336 397 54 
L 397 3 
L 614 -106 
z
M 1536 4224 
C 1824 4224 2035 4102 2176 3846 
C 2291 3641 2368 3328 2368 3040 
C 2368 2451 2029 2055 1536 2055 
C 1024 2055 678 2509 678 3174 
C 678 3821 1011 4224 1536 4224 
z
" transform="scale(0.015625)"/>
       </defs>
       <use xlink:href="#URWPalladioL-Roma-32" transform="scale(0.996264)"/>
       <use xlink:href="#URWPalladioL-Roma-30" transform="translate(49.8132 0)scale(0.996264)"/>
       <use xlink:href="#URWPalladioL-Roma-32" transform="translate(99.626401 0)scale(0.996264)"/>
       <use xlink:href="#URWPalladioL-Roma-31" transform="translate(149.439601 0)scale(0.996264)"/>
       <use xlink:href="#CMSY10-0" transform="translate(200.498102 0)scale(1.038107)"/>
       <use xlink:href="#URWPalladioL-Roma-30" transform="translate(282.439798 0)scale(0.996264)"/>
       <use xlink:href="#URWPalladioL-Roma-39" transform="translate(332.252998 0)scale(0.996264)"/>
      </g>
     </g>
    </g>
    <g id="xtick_4">
     <g id="line2d_4">
      <g>
       <use xlink:href="#m2b3550c47b" x="187.80577" y="228.96" style="stroke: #000000; stroke-width: 0.8"/>
      </g>
     </g>
     <g id="text_4">
      <!-- $\mathdefault{2021{-}10}$ -->
      <g transform="translate(189.965183 274.166609)rotate(-90)scale(0.1 -0.1)">
       <use xlink:href="#URWPalladioL-Roma-32" transform="scale(0.996264)"/>
       <use xlink:href="#URWPalladioL-Roma-30" transform="translate(49.8132 0)scale(0.996264)"/>
       <use xlink:href="#URWPalladioL-Roma-32" transform="translate(99.626401 0)scale(0.996264)"/>
       <use xlink:href="#URWPalladioL-Roma-31" transform="translate(149.439601 0)scale(0.996264)"/>
       <use xlink:href="#CMSY10-0" transform="translate(200.498102 0)scale(1.038107)"/>
       <use xlink:href="#URWPalladioL-Roma-31" transform="translate(282.439798 0)scale(0.996264)"/>
       <use xlink:href="#URWPalladioL-Roma-30" transform="translate(332.252998 0)scale(0.996264)"/>
      </g>
     </g>
    </g>
    <g id="xtick_5">
     <g id="line2d_5">
      <g>
       <use xlink:href="#m2b3550c47b" x="227.119406" y="228.96" style="stroke: #000000; stroke-width: 0.8"/>
      </g>
     </g>
     <g id="text_5">
      <!-- $\mathdefault{2021{-}11}$ -->
      <g transform="translate(229.278819 274.166609)rotate(-90)scale(0.1 -0.1)">
       <use xlink:href="#URWPalladioL-Roma-32" transform="scale(0.996264)"/>
       <use xlink:href="#URWPalladioL-Roma-30" transform="translate(49.8132 0)scale(0.996264)"/>
       <use xlink:href="#URWPalladioL-Roma-32" transform="translate(99.626401 0)scale(0.996264)"/>
       <use xlink:href="#URWPalladioL-Roma-31" transform="translate(149.439601 0)scale(0.996264)"/>
       <use xlink:href="#CMSY10-0" transform="translate(200.498102 0)scale(1.038107)"/>
       <use xlink:href="#URWPalladioL-Roma-31" transform="translate(282.439798 0)scale(0.996264)"/>
       <use xlink:href="#URWPalladioL-Roma-31" transform="translate(332.252998 0)scale(0.996264)"/>
      </g>
     </g>
    </g>
    <g id="xtick_6">
     <g id="line2d_6">
      <g>
       <use xlink:href="#m2b3550c47b" x="265.164861" y="228.96" style="stroke: #000000; stroke-width: 0.8"/>
      </g>
     </g>
     <g id="text_6">
      <!-- $\mathdefault{2021{-}12}$ -->
      <g transform="translate(267.324274 274.166609)rotate(-90)scale(0.1 -0.1)">
       <use xlink:href="#URWPalladioL-Roma-32" transform="scale(0.996264)"/>
       <use xlink:href="#URWPalladioL-Roma-30" transform="translate(49.8132 0)scale(0.996264)"/>
       <use xlink:href="#URWPalladioL-Roma-32" transform="translate(99.626401 0)scale(0.996264)"/>
       <use xlink:href="#URWPalladioL-Roma-31" transform="translate(149.439601 0)scale(0.996264)"/>
       <use xlink:href="#CMSY10-0" transform="translate(200.498102 0)scale(1.038107)"/>
       <use xlink:href="#URWPalladioL-Roma-31" transform="translate(282.439798 0)scale(0.996264)"/>
       <use xlink:href="#URWPalladioL-Roma-32" transform="translate(332.252998 0)scale(0.996264)"/>
      </g>
     </g>
    </g>
    <g id="xtick_7">
     <g id="line2d_7">
      <g>
       <use xlink:href="#m2b3550c47b" x="304.478497" y="228.96" style="stroke: #000000; stroke-width: 0.8"/>
      </g>
     </g>
     <g id="text_7">
      <!-- $\mathdefault{2022{-}01}$ -->
      <g transform="translate(306.63791 274.166609)rotate(-90)scale(0.1 -0.1)">
       <use xlink:href="#URWPalladioL-Roma-32" transform="scale(0.996264)"/>
       <use xlink:href="#URWPalladioL-Roma-30" transform="translate(49.8132 0)scale(0.996264)"/>
       <use xlink:href="#URWPalladioL-Roma-32" transform="translate(99.626401 0)scale(0.996264)"/>
       <use xlink:href="#URWPalladioL-Roma-32" transform="translate(149.439601 0)scale(0.996264)"/>
       <use xlink:href="#CMSY10-0" transform="translate(200.498102 0)scale(1.038107)"/>
       <use xlink:href="#URWPalladioL-Roma-30" transform="translate(282.439798 0)scale(0.996264)"/>
       <use xlink:href="#URWPalladioL-Roma-31" transform="translate(332.252998 0)scale(0.996264)"/>
      </g>
     </g>
    </g>
    <g id="xtick_8">
     <g id="line2d_8">
      <g>
       <use xlink:href="#m2b3550c47b" x="343.792134" y="228.96" style="stroke: #000000; stroke-width: 0.8"/>
      </g>
     </g>
     <g id="text_8">
      <!-- $\mathdefault{2022{-}02}$ -->
      <g transform="translate(345.951547 274.166609)rotate(-90)scale(0.1 -0.1)">
       <use xlink:href="#URWPalladioL-Roma-32" transform="scale(0.996264)"/>
       <use xlink:href="#URWPalladioL-Roma-30" transform="translate(49.8132 0)scale(0.996264)"/>
       <use xlink:href="#URWPalladioL-Roma-32" transform="translate(99.626401 0)scale(0.996264)"/>
       <use xlink:href="#URWPalladioL-Roma-32" transform="translate(149.439601 0)scale(0.996264)"/>
       <use xlink:href="#CMSY10-0" transform="translate(200.498102 0)scale(1.038107)"/>
       <use xlink:href="#URWPalladioL-Roma-30" transform="translate(282.439798 0)scale(0.996264)"/>
       <use xlink:href="#URWPalladioL-Roma-32" transform="translate(332.252998 0)scale(0.996264)"/>
      </g>
     </g>
    </g>
   </g>
   <g id="matplotlib.axis_2">
    <g id="ytick_1">
     <g id="line2d_9">
      <defs>
       <path id="mae7de42d41" d="M 0 0 
L -3.5 0 
" style="stroke: #000000; stroke-width: 0.8"/>
      </defs>
      <g>
       <use xlink:href="#mae7de42d41" x="65.426224" y="228.96" style="stroke: #000000; stroke-width: 0.8"/>
      </g>
     </g>
     <g id="text_9">
      <!-- $\mathdefault{0}$ -->
      <g transform="translate(53.444904 232.524119)scale(0.1 -0.1)">
       <use xlink:href="#URWPalladioL-Roma-30" transform="scale(0.996264)"/>
      </g>
     </g>
    </g>
    <g id="ytick_2">
     <g id="line2d_10">
      <g>
       <use xlink:href="#mae7de42d41" x="65.426224" y="202.02964" style="stroke: #000000; stroke-width: 0.8"/>
      </g>
     </g>
     <g id="text_10">
      <!-- $\mathdefault{250}$ -->
      <g transform="translate(43.482264 205.593759)scale(0.1 -0.1)">
       <defs>
        <path id="URWPalladioL-Roma-35" d="M 813 3877 
C 1638 3877 1997 3877 2765 3877 
L 2797 3907 
C 2784 4016 2784 4064 2784 4144 
C 2784 4229 2784 4277 2797 4386 
L 2765 4416 
C 2285 4416 1997 4416 1651 4416 
C 1299 4416 1018 4416 538 4416 
L 506 4403 
C 512 4011 518 3729 518 3523 
C 518 2977 499 2360 480 2077 
L 608 2038 
C 909 2341 1082 2432 1395 2432 
C 2010 2432 2394 1993 2394 1296 
C 2394 580 1984 160 1286 160 
C 941 160 621 277 531 444 
L 237 973 
L 83 883 
C 230 516 307 310 397 27 
C 576 -71 832 -128 1107 -128 
C 1536 -128 1990 59 2342 368 
C 2733 716 2938 1154 2938 1630 
C 2938 2359 2419 2874 1690 2874 
C 1382 2874 1152 2791 755 2554 
L 813 3877 
z
" transform="scale(0.015625)"/>
       </defs>
       <use xlink:href="#URWPalladioL-Roma-32" transform="scale(0.996264)"/>
       <use xlink:href="#URWPalladioL-Roma-35" transform="translate(49.8132 0)scale(0.996264)"/>
       <use xlink:href="#URWPalladioL-Roma-30" transform="translate(99.626401 0)scale(0.996264)"/>
      </g>
     </g>
    </g>
    <g id="ytick_3">
     <g id="line2d_11">
      <g>
       <use xlink:href="#mae7de42d41" x="65.426224" y="175.099281" style="stroke: #000000; stroke-width: 0.8"/>
      </g>
     </g>
     <g id="text_11">
      <!-- $\mathdefault{500}$ -->
      <g transform="translate(43.482264 178.6634)scale(0.1 -0.1)">
       <use xlink:href="#URWPalladioL-Roma-35" transform="scale(0.996264)"/>
       <use xlink:href="#URWPalladioL-Roma-30" transform="translate(49.8132 0)scale(0.996264)"/>
       <use xlink:href="#URWPalladioL-Roma-30" transform="translate(99.626401 0)scale(0.996264)"/>
      </g>
     </g>
    </g>
    <g id="ytick_4">
     <g id="line2d_12">
      <g>
       <use xlink:href="#mae7de42d41" x="65.426224" y="148.168921" style="stroke: #000000; stroke-width: 0.8"/>
      </g>
     </g>
     <g id="text_12">
      <!-- $\mathdefault{750}$ -->
      <g transform="translate(43.482264 151.73304)scale(0.1 -0.1)">
       <use xlink:href="#URWPalladioL-Roma-37" transform="scale(0.996264)"/>
       <use xlink:href="#URWPalladioL-Roma-35" transform="translate(49.8132 0)scale(0.996264)"/>
       <use xlink:href="#URWPalladioL-Roma-30" transform="translate(99.626401 0)scale(0.996264)"/>
      </g>
     </g>
    </g>
    <g id="ytick_5">
     <g id="line2d_13">
      <g>
       <use xlink:href="#mae7de42d41" x="65.426224" y="121.238562" style="stroke: #000000; stroke-width: 0.8"/>
      </g>
     </g>
     <g id="text_13">
      <!-- $\mathdefault{1000}$ -->
      <g transform="translate(38.500944 124.80268)scale(0.1 -0.1)">
       <use xlink:href="#URWPalladioL-Roma-31" transform="scale(0.996264)"/>
       <use xlink:href="#URWPalladioL-Roma-30" transform="translate(49.8132 0)scale(0.996264)"/>
       <use xlink:href="#URWPalladioL-Roma-30" transform="translate(99.626401 0)scale(0.996264)"/>
       <use xlink:href="#URWPalladioL-Roma-30" transform="translate(149.439601 0)scale(0.996264)"/>
      </g>
     </g>
    </g>
    <g id="ytick_6">
     <g id="line2d_14">
      <g>
       <use xlink:href="#mae7de42d41" x="65.426224" y="94.308202" style="stroke: #000000; stroke-width: 0.8"/>
      </g>
     </g>
     <g id="text_14">
      <!-- $\mathdefault{1250}$ -->
      <g transform="translate(38.500944 97.872321)scale(0.1 -0.1)">
       <use xlink:href="#URWPalladioL-Roma-31" transform="scale(0.996264)"/>
       <use xlink:href="#URWPalladioL-Roma-32" transform="translate(49.8132 0)scale(0.996264)"/>
       <use xlink:href="#URWPalladioL-Roma-35" transform="translate(99.626401 0)scale(0.996264)"/>
       <use xlink:href="#URWPalladioL-Roma-30" transform="translate(149.439601 0)scale(0.996264)"/>
      </g>
     </g>
    </g>
    <g id="ytick_7">
     <g id="line2d_15">
      <g>
       <use xlink:href="#mae7de42d41" x="65.426224" y="67.377843" style="stroke: #000000; stroke-width: 0.8"/>
      </g>
     </g>
     <g id="text_15">
      <!-- $\mathdefault{1500}$ -->
      <g transform="translate(38.500944 70.941961)scale(0.1 -0.1)">
       <use xlink:href="#URWPalladioL-Roma-31" transform="scale(0.996264)"/>
       <use xlink:href="#URWPalladioL-Roma-35" transform="translate(49.8132 0)scale(0.996264)"/>
       <use xlink:href="#URWPalladioL-Roma-30" transform="translate(99.626401 0)scale(0.996264)"/>
       <use xlink:href="#URWPalladioL-Roma-30" transform="translate(149.439601 0)scale(0.996264)"/>
      </g>
     </g>
    </g>
    <g id="ytick_8">
     <g id="line2d_16">
      <g>
       <use xlink:href="#mae7de42d41" x="65.426224" y="40.447483" style="stroke: #000000; stroke-width: 0.8"/>
      </g>
     </g>
     <g id="text_16">
      <!-- $\mathdefault{1750}$ -->
      <g transform="translate(38.500944 44.011602)scale(0.1 -0.1)">
       <use xlink:href="#URWPalladioL-Roma-31" transform="scale(0.996264)"/>
       <use xlink:href="#URWPalladioL-Roma-37" transform="translate(49.8132 0)scale(0.996264)"/>
       <use xlink:href="#URWPalladioL-Roma-35" transform="translate(99.626401 0)scale(0.996264)"/>
       <use xlink:href="#URWPalladioL-Roma-30" transform="translate(149.439601 0)scale(0.996264)"/>
      </g>
     </g>
    </g>
    <g id="ytick_9">
     <g id="line2d_17">
      <g>
       <use xlink:href="#mae7de42d41" x="65.426224" y="13.517124" style="stroke: #000000; stroke-width: 0.8"/>
      </g>
     </g>
     <g id="text_17">
      <!-- $\mathdefault{2000}$ -->
      <g transform="translate(38.500944 17.081242)scale(0.1 -0.1)">
       <use xlink:href="#URWPalladioL-Roma-32" transform="scale(0.996264)"/>
       <use xlink:href="#URWPalladioL-Roma-30" transform="translate(49.8132 0)scale(0.996264)"/>
       <use xlink:href="#URWPalladioL-Roma-30" transform="translate(99.626401 0)scale(0.996264)"/>
       <use xlink:href="#URWPalladioL-Roma-30" transform="translate(149.439601 0)scale(0.996264)"/>
      </g>
     </g>
    </g>
    <g id="text_18">
     <!-- case incidence (WHO) -->
     <g transform="translate(14.328237 167.065836)rotate(-90)scale(0.1 -0.1)">
      <defs>
       <path id="URWPalladioL-Roma-63" d="M 2554 1994 
C 2554 2289 2586 2552 2643 2783 
C 2387 2937 2163 3008 1901 3008 
C 1594 3008 1235 2886 851 2642 
C 403 2360 166 1911 166 1347 
C 166 481 774 -128 1632 -128 
C 1965 -128 2445 -6 2509 90 
L 2643 295 
L 2579 391 
C 2342 263 2138 205 1907 205 
C 1197 205 730 757 730 1603 
C 730 2289 1050 2674 1626 2674 
C 1907 2674 2214 2546 2330 2386 
L 2374 1994 
L 2554 1994 
z
" transform="scale(0.015625)"/>
       <path id="URWPalladioL-Roma-61" d="M 2074 538 
L 2042 -1 
C 2458 -1 2458 -1 2541 -1 
C 2573 -1 2733 -1 3014 -1 
L 3014 192 
L 2765 192 
C 2611 192 2586 244 2586 558 
L 2586 1731 
C 2586 2668 2317 3008 1574 3008 
C 1299 3008 1043 2937 800 2791 
L 461 2585 
L 461 2171 
L 627 2126 
L 710 2323 
C 845 2623 909 2668 1203 2668 
C 1805 2668 2054 2431 2074 1852 
L 1440 1736 
C 570 1577 205 1277 205 722 
C 205 224 506 -64 1011 -64 
C 1126 -64 1235 -45 1280 -13 
L 2074 538 
z
M 2074 806 
C 1888 544 1485 302 1235 302 
C 979 302 755 538 755 812 
C 755 1048 883 1271 1075 1392 
C 1235 1488 1587 1577 2074 1648 
L 2074 806 
z
" transform="scale(0.015625)"/>
       <path id="URWPalladioL-Roma-73" d="M 262 917 
C 262 475 243 282 192 26 
C 525 -83 774 -128 1069 -128 
C 1907 -128 2502 321 2502 949 
C 2502 1148 2445 1295 2323 1424 
C 2157 1584 1946 1661 1382 1770 
C 858 1873 685 2001 685 2296 
C 685 2616 909 2796 1299 2796 
C 1728 2796 2054 2572 2054 2270 
L 2054 2123 
L 2234 2123 
C 2240 2495 2246 2648 2266 2847 
C 1926 2963 1696 3008 1434 3008 
C 691 3008 237 2655 237 2078 
C 237 1770 378 1552 672 1417 
C 845 1340 1184 1238 1619 1141 
C 1907 1077 2029 943 2029 699 
C 2029 353 1709 109 1254 109 
C 787 109 454 333 454 654 
L 454 917 
L 262 917 
z
" transform="scale(0.015625)"/>
       <path id="URWPalladioL-Roma-65" d="M 2797 447 
L 2714 511 
C 2304 269 2157 212 1882 212 
C 1466 212 1120 398 941 711 
C 819 921 774 1101 762 1472 
L 1696 1472 
C 2138 1472 2413 1472 2854 1544 
C 2861 1634 2867 1693 2867 1771 
C 2867 2520 2394 3008 1677 3008 
C 1440 3008 1165 2924 902 2770 
C 378 2469 166 2071 166 1404 
C 166 1000 262 654 435 410 
C 691 71 1120 -128 1600 -128 
C 1837 -128 2074 -77 2336 37 
C 2509 108 2643 191 2669 230 
L 2797 447 
z
M 2298 1690 
C 1965 1690 1811 1690 1581 1690 
C 1286 1690 1120 1690 774 1722 
C 774 2027 800 2169 883 2337 
C 1018 2622 1293 2796 1600 2796 
C 1811 2796 1978 2711 2093 2534 
C 2234 2319 2278 2129 2298 1690 
z
" transform="scale(0.015625)"/>
       <path id="URWPalladioL-Roma-69" d="M 1203 2993 
L 1146 3019 
C 819 2884 486 2793 147 2755 
L 147 2576 
L 384 2576 
C 640 2576 666 2531 666 2105 
L 666 651 
C 666 244 646 199 429 199 
L 134 199 
L 134 0 
C 774 0 774 0 934 0 
C 1094 0 1094 0 1734 0 
L 1734 199 
L 1440 199 
C 1222 199 1203 244 1203 651 
L 1203 2993 
z
M 909 4416 
C 717 4416 550 4249 550 4056 
C 550 3870 717 3704 902 3704 
C 1088 3704 1261 3870 1261 4056 
C 1261 4236 1088 4416 909 4416 
z
" transform="scale(0.015625)"/>
       <path id="URWPalladioL-Roma-6e" d="M 2624 -7 
C 3014 -7 3021 -7 3130 -7 
C 3219 -7 3219 -7 3661 -7 
L 3661 179 
L 3398 205 
C 3181 205 3162 244 3162 654 
L 3162 1892 
C 3162 2642 2810 3008 2093 3008 
C 1856 3008 1722 2963 1587 2847 
L 1101 2424 
L 1101 2982 
L 1043 3008 
C 717 2873 384 2783 45 2745 
L 45 2565 
L 282 2565 
C 538 2565 563 2520 563 2094 
L 563 643 
C 563 237 544 192 326 192 
L 38 192 
L 38 -7 
C 474 -7 646 -7 832 -7 
C 1018 -7 1190 -7 1626 -7 
L 1626 192 
L 1338 192 
C 1120 192 1101 237 1101 643 
L 1101 2011 
C 1101 2300 1523 2616 1914 2616 
C 2342 2616 2624 2297 2624 1806 
L 2624 -7 
z
" transform="scale(0.015625)"/>
       <path id="URWPalladioL-Roma-64" d="M 2637 2802 
C 2278 2956 2099 3008 1875 3008 
C 1702 3008 1549 2969 1389 2887 
L 826 2593 
C 461 2401 224 1935 224 1392 
C 224 881 397 460 710 204 
C 928 19 1229 -64 1645 -64 
C 1773 -64 1920 -38 1952 -13 
L 2662 583 
L 2630 -7 
C 2944 -7 3046 -7 3123 -7 
C 3174 -7 3264 -7 3398 -7 
C 3443 -7 3571 -7 3706 -7 
L 3706 192 
L 3411 192 
C 3194 192 3174 237 3174 643 
L 3174 4607 
L 3117 4659 
C 2835 4550 2624 4498 2118 4421 
L 2118 4242 
L 2477 4242 
C 2592 4242 2637 4171 2637 3978 
L 2637 2802 
z
M 2637 1424 
C 2637 1009 2624 946 2541 799 
C 2362 499 2048 302 1747 302 
C 1184 302 781 844 781 1603 
C 781 2298 1126 2706 1702 2706 
C 1946 2706 2202 2623 2426 2470 
C 2560 2381 2637 2298 2637 2246 
L 2637 1424 
z
" transform="scale(0.015625)"/>
       <path id="URWPalladioL-Roma-28" d="M 1926 -1244 
C 1466 -673 1299 -366 1133 212 
C 998 673 934 1161 934 1706 
C 934 2238 998 2693 1120 3110 
C 1286 3642 1459 3944 1926 4489 
L 1805 4656 
C 1139 4059 877 3707 634 3078 
C 467 2648 384 2193 384 1706 
C 384 1020 544 372 851 -205 
C 1075 -635 1280 -885 1805 -1379 
L 1926 -1244 
z
" transform="scale(0.015625)"/>
       <path id="URWPalladioL-Roma-57" d="M 4698 -64 
C 4723 32 4742 122 4749 154 
C 4768 218 4819 411 4870 584 
L 5850 4032 
C 5888 4147 5952 4205 6093 4218 
L 6298 4237 
L 6298 4416 
L 5626 4416 
C 5562 4416 5562 4416 4954 4416 
L 4954 4237 
L 5210 4218 
C 5434 4199 5504 4167 5510 4063 
C 5510 4044 5510 4025 5504 4005 
L 4659 872 
L 3610 3826 
C 3469 4211 3450 4262 3398 4480 
L 3194 4480 
C 3059 4082 2950 3795 2618 2935 
L 1824 917 
L 1184 3795 
C 1165 3872 1158 3942 1158 4006 
C 1158 4147 1222 4205 1395 4218 
L 1664 4237 
L 1664 4416 
L 858 4416 
C 813 4416 544 4416 51 4416 
L 51 4237 
L 230 4218 
C 416 4199 493 4128 550 3897 
L 1312 597 
C 1395 231 1395 225 1459 -64 
L 1779 -64 
C 1837 141 1888 295 2010 597 
L 3123 3429 
L 3923 1256 
C 4134 687 4154 635 4378 -64 
L 4698 -64 
z
" transform="scale(0.015625)"/>
       <path id="URWPalladioL-Roma-48" d="M 3942 773 
C 3942 257 3910 205 3616 205 
L 3309 205 
L 3309 0 
C 3686 0 3910 0 4243 0 
C 4576 0 4806 0 5184 0 
L 5184 205 
L 4877 205 
C 4582 205 4550 256 4550 766 
L 4550 3663 
C 4550 4172 4582 4224 4877 4224 
L 5184 4224 
L 5184 4423 
C 4717 4423 4576 4423 4243 4423 
C 3923 4423 3770 4423 3309 4423 
L 3309 4224 
L 3616 4224 
C 3910 4224 3942 4172 3942 3668 
L 3942 2529 
C 3808 2529 3674 2529 3411 2529 
L 1914 2529 
C 1651 2529 1510 2529 1382 2529 
L 1382 3668 
C 1382 4172 1414 4224 1709 4224 
L 2016 4224 
L 2016 4423 
C 1549 4423 1408 4423 1075 4423 
C 755 4423 602 4423 141 4423 
L 141 4224 
L 448 4224 
C 742 4224 774 4172 774 3663 
L 774 766 
C 774 256 742 205 448 205 
L 141 205 
L 141 0 
C 518 0 742 0 1075 0 
C 1408 0 1638 0 2016 0 
L 2016 205 
L 1709 205 
C 1414 205 1382 257 1382 773 
L 1382 2227 
C 1555 2240 1658 2240 1914 2240 
L 3411 2240 
C 3667 2240 3770 2240 3942 2227 
L 3942 773 
z
" transform="scale(0.015625)"/>
       <path id="URWPalladioL-Roma-4f" d="M 2573 4544 
C 1114 4544 141 3596 141 2186 
C 141 839 1075 -128 2368 -128 
C 3802 -128 4890 942 4890 2351 
C 4890 3698 3994 4544 2573 4544 
z
M 2464 4274 
C 3558 4274 4205 3493 4205 2160 
C 4205 890 3616 141 2624 141 
C 1549 141 826 1051 826 2422 
C 826 3607 1414 4274 2464 4274 
z
" transform="scale(0.015625)"/>
       <path id="URWPalladioL-Roma-29" d="M 326 -1379 
C 768 -962 954 -750 1152 -436 
C 1542 186 1747 930 1747 1699 
C 1747 2193 1664 2648 1498 3078 
C 1254 3700 992 4053 326 4656 
L 205 4489 
C 672 3937 845 3636 1005 3110 
C 1133 2693 1197 2238 1197 1706 
C 1197 1161 1133 673 998 212 
C 832 -366 666 -673 205 -1244 
L 326 -1379 
z
" transform="scale(0.015625)"/>
      </defs>
      <use xlink:href="#URWPalladioL-Roma-63" transform="scale(0.996264)"/>
      <use xlink:href="#URWPalladioL-Roma-61" transform="translate(44.233569 0)scale(0.996264)"/>
      <use xlink:href="#URWPalladioL-Roma-73" transform="translate(94.046769 0)scale(0.996264)"/>
      <use xlink:href="#URWPalladioL-Roma-65" transform="translate(136.288236 0)scale(0.996264)"/>
      <use xlink:href="#URWPalladioL-Roma-69" transform="translate(208.915131 0)scale(0.996264)"/>
      <use xlink:href="#URWPalladioL-Roma-6e" transform="translate(237.905492 0)scale(0.996264)"/>
      <use xlink:href="#URWPalladioL-Roma-63" transform="translate(295.887553 0)scale(0.996264)"/>
      <use xlink:href="#URWPalladioL-Roma-69" transform="translate(340.121122 0)scale(0.996264)"/>
      <use xlink:href="#URWPalladioL-Roma-64" transform="translate(369.111483 0)scale(0.996264)"/>
      <use xlink:href="#URWPalladioL-Roma-65" transform="translate(429.983114 0)scale(0.996264)"/>
      <use xlink:href="#URWPalladioL-Roma-6e" transform="translate(477.703409 0)scale(0.996264)"/>
      <use xlink:href="#URWPalladioL-Roma-63" transform="translate(535.68547 0)scale(0.996264)"/>
      <use xlink:href="#URWPalladioL-Roma-65" transform="translate(579.919038 0)scale(0.996264)"/>
      <use xlink:href="#URWPalladioL-Roma-28" transform="translate(652.545934 0)scale(0.996264)"/>
      <use xlink:href="#URWPalladioL-Roma-57" transform="translate(685.721163 0)scale(0.996264)"/>
      <use xlink:href="#URWPalladioL-Roma-48" transform="translate(785.347564 0)scale(0.996264)"/>
      <use xlink:href="#URWPalladioL-Roma-4f" transform="translate(868.236225 0)scale(0.996264)"/>
      <use xlink:href="#URWPalladioL-Roma-29" transform="translate(946.542507 0)scale(0.996264)"/>
     </g>
     <!-- new cases over 7 days per 100000 -->
     <g transform="translate(25.691533 191.389569)rotate(-90)scale(0.1 -0.1)">
      <defs>
       <path id="URWPalladioL-Roma-77" d="M 2643 3008 
C 2118 1788 2022 1571 1626 677 
L 1088 2444 
C 1069 2502 1062 2553 1062 2604 
C 1062 2700 1146 2752 1306 2752 
L 1562 2752 
L 1562 2932 
C 928 2932 928 2932 800 2932 
C 672 2932 672 2932 38 2932 
L 38 2765 
L 218 2752 
C 397 2739 480 2612 640 2114 
L 1293 -32 
L 1594 -32 
L 2221 1437 
C 2253 1514 2323 1667 2426 1884 
L 2554 2152 
L 3424 -32 
L 3718 -32 
C 3763 102 3814 249 3866 389 
C 3994 767 4134 1162 4160 1201 
L 4595 2196 
C 4787 2625 4864 2733 5005 2752 
L 5171 2765 
L 5171 2932 
C 4646 2932 4646 2932 4544 2932 
C 4442 2932 4442 2932 3917 2932 
L 3917 2752 
L 4134 2752 
C 4294 2752 4384 2675 4384 2559 
C 4384 2489 4371 2412 4339 2329 
L 4019 1433 
C 3968 1292 3917 1163 3712 638 
L 2976 2490 
C 2886 2707 2842 2835 2790 3008 
L 2643 3008 
z
" transform="scale(0.015625)"/>
       <path id="URWPalladioL-Roma-6f" d="M 1786 3008 
C 851 3008 205 2347 205 1392 
C 205 487 774 -128 1600 -128 
C 2586 -128 3290 558 3290 1520 
C 3290 2386 2662 3008 1786 3008 
z
M 1670 2796 
C 2259 2796 2694 2155 2694 1283 
C 2694 545 2368 83 1850 83 
C 1222 83 800 699 800 1610 
C 800 2379 1107 2796 1670 2796 
z
" transform="scale(0.015625)"/>
       <path id="URWPalladioL-Roma-76" d="M 3450 2752 
L 3450 2932 
C 3066 2932 2950 2932 2848 2932 
C 2746 2932 2630 2932 2246 2932 
L 2246 2752 
L 2509 2752 
C 2611 2752 2662 2694 2662 2591 
C 2662 2489 2618 2317 2541 2124 
L 2272 1445 
C 2195 1259 2118 1080 1875 549 
L 1114 2393 
C 1075 2482 1056 2566 1056 2636 
C 1056 2707 1114 2752 1216 2752 
L 1530 2752 
L 1530 2932 
C 902 2932 902 2932 781 2932 
C 659 2932 352 2932 38 2932 
L 38 2752 
L 256 2752 
C 352 2739 384 2701 454 2541 
L 1555 -32 
L 1875 -32 
C 1914 77 1978 243 1978 256 
C 2048 447 2131 664 2138 664 
L 2893 2324 
C 3034 2625 3123 2739 3251 2752 
L 3450 2752 
z
" transform="scale(0.015625)"/>
       <path id="URWPalladioL-Roma-72" d="M 147 2565 
L 384 2565 
C 640 2565 666 2520 666 2094 
L 666 643 
C 666 237 646 192 429 192 
L 134 192 
L 134 -7 
C 595 -7 762 -7 922 -7 
C 1050 -7 1050 -7 1837 -7 
L 1837 192 
L 1504 192 
C 1216 192 1203 211 1203 638 
L 1203 1751 
C 1203 2139 1459 2463 1773 2463 
C 1965 2463 2099 2373 2202 2169 
L 2336 2169 
L 2394 2937 
C 2323 2982 2208 3008 2093 3008 
C 1901 3008 1696 2905 1562 2745 
L 1203 2322 
L 1203 2982 
L 1146 3008 
C 819 2873 486 2783 147 2745 
L 147 2565 
z
" transform="scale(0.015625)"/>
       <path id="URWPalladioL-Roma-79" d="M 1901 564 
C 1760 808 1690 956 1574 1270 
L 1165 2347 
C 1126 2456 1101 2552 1101 2618 
C 1101 2710 1171 2764 1318 2764 
L 1562 2764 
L 1562 2944 
C 941 2944 941 2944 819 2944 
C 698 2944 698 2944 77 2944 
L 77 2777 
L 192 2764 
C 352 2745 429 2674 525 2451 
L 1222 775 
C 1402 340 1466 186 1581 -134 
L 1434 -524 
C 1229 -1062 979 -1362 736 -1362 
C 634 -1362 518 -1311 410 -1215 
L 326 -1215 
L 173 -1696 
C 294 -1760 397 -1792 518 -1792 
C 947 -1792 1222 -1562 1466 -1005 
L 2765 1990 
C 3021 2572 3142 2745 3302 2764 
L 3482 2777 
L 3482 2944 
C 2976 2944 2976 2944 2874 2944 
C 2771 2944 2771 2944 2266 2944 
L 2266 2777 
L 2432 2764 
C 2611 2751 2701 2694 2701 2604 
C 2701 2559 2688 2501 2662 2437 
L 1901 564 
z
" transform="scale(0.015625)"/>
       <path id="URWPalladioL-Roma-70" d="M 64 2565 
L 301 2565 
C 557 2565 582 2520 582 2095 
L 582 -1142 
C 582 -1548 563 -1593 346 -1593 
L 51 -1593 
L 51 -1792 
C 691 -1792 691 -1792 851 -1792 
C 1011 -1792 1011 -1792 1651 -1792 
L 1651 -1593 
L 1357 -1593 
C 1139 -1593 1120 -1547 1120 -1138 
L 1120 89 
C 1312 -26 1517 -71 1805 -71 
C 1990 -71 2157 -32 2259 32 
L 2989 505 
C 3245 672 3546 1330 3546 1740 
C 3546 2451 2957 3008 2214 3008 
C 1978 3008 1747 2943 1645 2847 
L 1120 2367 
L 1120 2982 
L 1062 3008 
C 736 2873 403 2783 64 2745 
L 64 2565 
z
M 1120 1964 
C 1120 2053 1152 2124 1235 2233 
C 1421 2469 1683 2591 2003 2591 
C 2605 2591 2989 2169 2989 1504 
C 2989 787 2560 256 1984 256 
C 1632 256 1370 372 1120 633 
L 1120 1964 
z
" transform="scale(0.015625)"/>
      </defs>
      <use xlink:href="#URWPalladioL-Roma-6e" transform="scale(0.996264)"/>
      <use xlink:href="#URWPalladioL-Roma-65" transform="translate(57.982061 0)scale(0.996264)"/>
      <use xlink:href="#URWPalladioL-Roma-77" transform="translate(105.702356 0)scale(0.996264)"/>
      <use xlink:href="#URWPalladioL-Roma-63" transform="translate(213.697049 0)scale(0.996264)"/>
      <use xlink:href="#URWPalladioL-Roma-61" transform="translate(257.930618 0)scale(0.996264)"/>
      <use xlink:href="#URWPalladioL-Roma-73" transform="translate(307.743818 0)scale(0.996264)"/>
      <use xlink:href="#URWPalladioL-Roma-65" transform="translate(349.985285 0)scale(0.996264)"/>
      <use xlink:href="#URWPalladioL-Roma-73" transform="translate(397.70558 0)scale(0.996264)"/>
      <use xlink:href="#URWPalladioL-Roma-6f" transform="translate(464.853646 0)scale(0.996264)"/>
      <use xlink:href="#URWPalladioL-Roma-76" transform="translate(519.249227 0)scale(0.996264)"/>
      <use xlink:href="#URWPalladioL-Roma-65" transform="translate(575.53714 0)scale(0.996264)"/>
      <use xlink:href="#URWPalladioL-Roma-72" transform="translate(623.257435 0)scale(0.996264)"/>
      <use xlink:href="#URWPalladioL-Roma-37" transform="translate(687.515931 0)scale(0.996264)"/>
      <use xlink:href="#URWPalladioL-Roma-64" transform="translate(762.235732 0)scale(0.996264)"/>
      <use xlink:href="#URWPalladioL-Roma-61" transform="translate(823.107363 0)scale(0.996264)"/>
      <use xlink:href="#URWPalladioL-Roma-79" transform="translate(872.920563 0)scale(0.996264)"/>
      <use xlink:href="#URWPalladioL-Roma-73" transform="translate(928.31224 0)scale(0.996264)"/>
      <use xlink:href="#URWPalladioL-Roma-70" transform="translate(995.460307 0)scale(0.996264)"/>
      <use xlink:href="#URWPalladioL-Roma-65" transform="translate(1055.334701 0)scale(0.996264)"/>
      <use xlink:href="#URWPalladioL-Roma-72" transform="translate(1103.054996 0)scale(0.996264)"/>
      <use xlink:href="#URWPalladioL-Roma-31" transform="translate(1167.313492 0)scale(0.996264)"/>
      <use xlink:href="#URWPalladioL-Roma-30" transform="translate(1217.126693 0)scale(0.996264)"/>
      <use xlink:href="#URWPalladioL-Roma-30" transform="translate(1266.939893 0)scale(0.996264)"/>
      <use xlink:href="#URWPalladioL-Roma-30" transform="translate(1316.753094 0)scale(0.996264)"/>
      <use xlink:href="#URWPalladioL-Roma-30" transform="translate(1366.566294 0)scale(0.996264)"/>
      <use xlink:href="#URWPalladioL-Roma-30" transform="translate(1416.379495 0)scale(0.996264)"/>
     </g>
    </g>
   </g>
   <g id="line2d_18">
    <path d="M 65.426224 226.805571 
L 344.426224 226.805571 
" clip-path="url(#p3d951a899a)" style="fill: none; stroke: #ffff00; stroke-width: 1.5; stroke-linecap: square"/>
   </g>
   <g id="line2d_19">
    <path d="M 65.426224 223.573928 
L 344.426224 223.573928 
" clip-path="url(#p3d951a899a)" style="fill: none; stroke: #ffa500; stroke-width: 1.5; stroke-linecap: square"/>
   </g>
   <g id="line2d_20">
    <path d="M 65.426224 212.801784 
L 344.426224 212.801784 
" clip-path="url(#p3d951a899a)" style="fill: none; stroke: #ff0000; stroke-width: 1.5; stroke-linecap: square"/>
   </g>
   <g id="patch_223">
    <path d="M 65.426224 228.96 
L 65.426224 7.2 
" style="fill: none; stroke: #000000; stroke-width: 0.8; stroke-linejoin: miter; stroke-linecap: square"/>
   </g>
   <g id="patch_224">
    <path d="M 65.426224 228.96 
L 344.426224 228.96 
" style="fill: none; stroke: #000000; stroke-width: 0.8; stroke-linejoin: miter; stroke-linecap: square"/>
   </g>
   <g id="text_19">
    <!-- low incidence of community transmission -->
    <g style="fill: #ffff00" transform="translate(352.796224 233.219841)scale(0.1 -0.1)">
     <defs>
      <path id="URWPalladioL-Roma-6c" d="M 147 4256 
L 506 4256 
C 621 4256 666 4185 666 3992 
L 666 651 
C 666 244 646 199 429 199 
L 134 199 
L 134 0 
C 774 0 774 0 934 0 
C 1094 0 1094 0 1734 0 
L 1734 199 
L 1440 199 
C 1222 199 1203 244 1203 650 
L 1203 4621 
L 1146 4673 
C 864 4564 653 4512 147 4435 
L 147 4256 
z
" transform="scale(0.015625)"/>
      <path id="URWPalladioL-Roma-66" d="M 2182 4601 
C 2048 4652 1971 4672 1888 4672 
C 1683 4672 1459 4563 1318 4404 
L 947 3985 
C 762 3775 678 3490 678 3070 
L 678 2803 
L 237 2604 
L 237 2476 
L 678 2476 
L 678 651 
C 678 244 659 199 442 199 
L 147 199 
L 147 0 
C 787 0 787 0 947 0 
C 1107 0 1107 0 1747 0 
L 1747 199 
L 1453 199 
C 1235 199 1216 245 1216 653 
L 1216 2489 
L 2010 2489 
L 2054 2816 
L 1216 2816 
L 1216 3350 
C 1216 4073 1299 4248 1664 4248 
C 1837 4248 1952 4204 2106 4071 
L 2182 4109 
L 2182 4601 
z
" transform="scale(0.015625)"/>
      <path id="URWPalladioL-Roma-6d" d="M 115 2565 
L 352 2565 
C 608 2565 634 2520 634 2094 
L 634 643 
C 634 237 614 192 397 192 
L 102 192 
L 102 -7 
C 717 -7 736 -7 915 -7 
C 1094 -7 1261 -7 1677 -7 
L 1677 179 
L 1408 205 
C 1190 205 1171 250 1171 654 
L 1171 2014 
C 1171 2302 1594 2616 1978 2616 
C 2323 2616 2560 2287 2560 1798 
L 2560 643 
C 2560 237 2541 192 2323 192 
L 2029 192 
L 2029 -7 
C 2669 -7 2669 -7 2829 -7 
C 2989 -7 2989 -7 3629 -7 
L 3629 192 
L 3334 192 
C 3117 192 3098 237 3098 643 
L 3098 2011 
C 3098 2300 3520 2616 3904 2616 
C 4250 2616 4486 2291 4486 1806 
L 4486 -7 
C 4877 -7 4883 -7 4992 -7 
C 5075 -7 5075 -7 5562 -7 
L 5562 192 
L 5261 192 
C 5043 192 5024 237 5024 643 
L 5024 1970 
C 5024 2608 4653 3008 4064 3008 
C 3840 3008 3654 2950 3539 2847 
L 3053 2412 
C 2848 2834 2586 3008 2144 3008 
C 1907 3008 1728 2950 1613 2847 
L 1171 2437 
L 1171 2982 
L 1114 3008 
C 787 2873 454 2783 115 2745 
L 115 2565 
z
" transform="scale(0.015625)"/>
      <path id="URWPalladioL-Roma-75" d="M 3219 3009 
L 3162 3035 
C 2835 2900 2502 2810 2163 2772 
L 2163 2592 
L 2400 2592 
C 2656 2592 2682 2547 2682 2121 
L 2682 1070 
C 2682 928 2592 747 2445 599 
C 2266 418 2061 327 1811 327 
C 1587 327 1408 398 1306 521 
C 1216 624 1171 824 1171 1107 
L 1171 3009 
L 1114 3035 
C 787 2900 454 2810 115 2772 
L 115 2592 
L 352 2592 
C 608 2592 634 2547 634 2122 
L 634 1039 
C 634 587 672 387 787 227 
C 928 33 1171 -64 1536 -64 
C 1824 -64 2080 26 2253 186 
L 2682 585 
C 2682 401 2675 298 2656 0 
C 3085 0 3091 0 3187 0 
C 3277 0 3277 0 3718 0 
L 3718 186 
L 3456 212 
C 3238 212 3219 251 3219 664 
L 3219 3009 
z
" transform="scale(0.015625)"/>
      <path id="URWPalladioL-Roma-74" d="M 627 2476 
L 627 619 
C 627 142 838 -64 1331 -64 
C 1478 -64 1632 -32 1670 13 
L 1978 353 
L 1894 463 
C 1734 372 1638 340 1517 340 
C 1267 340 1165 470 1165 788 
L 1165 2489 
L 1984 2489 
L 2042 2816 
L 1165 2816 
L 1165 3056 
C 1165 3321 1184 3547 1235 3951 
L 1158 4021 
C 1005 3925 813 3842 614 3778 
C 634 3585 640 3463 640 3271 
L 640 2822 
L 141 2598 
L 141 2476 
L 627 2476 
z
" transform="scale(0.015625)"/>
     </defs>
     <use xlink:href="#URWPalladioL-Roma-6c" transform="scale(0.996264)"/>
     <use xlink:href="#URWPalladioL-Roma-6f" transform="translate(28.990361 0)scale(0.996264)"/>
     <use xlink:href="#URWPalladioL-Roma-77" transform="translate(83.385942 0)scale(0.996264)"/>
     <use xlink:href="#URWPalladioL-Roma-69" transform="translate(191.380635 0)scale(0.996264)"/>
     <use xlink:href="#URWPalladioL-Roma-6e" transform="translate(220.370996 0)scale(0.996264)"/>
     <use xlink:href="#URWPalladioL-Roma-63" transform="translate(278.353057 0)scale(0.996264)"/>
     <use xlink:href="#URWPalladioL-Roma-69" transform="translate(322.586626 0)scale(0.996264)"/>
     <use xlink:href="#URWPalladioL-Roma-64" transform="translate(351.576987 0)scale(0.996264)"/>
     <use xlink:href="#URWPalladioL-Roma-65" transform="translate(412.448618 0)scale(0.996264)"/>
     <use xlink:href="#URWPalladioL-Roma-6e" transform="translate(460.168913 0)scale(0.996264)"/>
     <use xlink:href="#URWPalladioL-Roma-63" transform="translate(518.150974 0)scale(0.996264)"/>
     <use xlink:href="#URWPalladioL-Roma-65" transform="translate(562.384542 0)scale(0.996264)"/>
     <use xlink:href="#URWPalladioL-Roma-6f" transform="translate(635.011438 0)scale(0.996264)"/>
     <use xlink:href="#URWPalladioL-Roma-66" transform="translate(689.407018 0)scale(0.996264)"/>
     <use xlink:href="#URWPalladioL-Roma-63" transform="translate(747.488848 0)scale(0.996264)"/>
     <use xlink:href="#URWPalladioL-Roma-6f" transform="translate(791.722417 0)scale(0.996264)"/>
     <use xlink:href="#URWPalladioL-Roma-6d" transform="translate(846.117997 0)scale(0.996264)"/>
     <use xlink:href="#URWPalladioL-Roma-6d" transform="translate(934.087671 0)scale(0.996264)"/>
     <use xlink:href="#URWPalladioL-Roma-75" transform="translate(1022.057345 0)scale(0.996264)"/>
     <use xlink:href="#URWPalladioL-Roma-6e" transform="translate(1082.13108 0)scale(0.996264)"/>
     <use xlink:href="#URWPalladioL-Roma-69" transform="translate(1140.113141 0)scale(0.996264)"/>
     <use xlink:href="#URWPalladioL-Roma-74" transform="translate(1169.103502 0)scale(0.996264)"/>
     <use xlink:href="#URWPalladioL-Roma-79" transform="translate(1201.58059 0)scale(0.996264)"/>
     <use xlink:href="#URWPalladioL-Roma-74" transform="translate(1281.878867 0)scale(0.996264)"/>
     <use xlink:href="#URWPalladioL-Roma-72" transform="translate(1314.355955 0)scale(0.996264)"/>
     <use xlink:href="#URWPalladioL-Roma-61" transform="translate(1353.707852 0)scale(0.996264)"/>
     <use xlink:href="#URWPalladioL-Roma-6e" transform="translate(1403.521052 0)scale(0.996264)"/>
     <use xlink:href="#URWPalladioL-Roma-73" transform="translate(1461.503113 0)scale(0.996264)"/>
     <use xlink:href="#URWPalladioL-Roma-6d" transform="translate(1503.744579 0)scale(0.996264)"/>
     <use xlink:href="#URWPalladioL-Roma-69" transform="translate(1591.714253 0)scale(0.996264)"/>
     <use xlink:href="#URWPalladioL-Roma-73" transform="translate(1620.704615 0)scale(0.996264)"/>
     <use xlink:href="#URWPalladioL-Roma-73" transform="translate(1662.946081 0)scale(0.996264)"/>
     <use xlink:href="#URWPalladioL-Roma-69" transform="translate(1705.187547 0)scale(0.996264)"/>
     <use xlink:href="#URWPalladioL-Roma-6f" transform="translate(1734.177909 0)scale(0.996264)"/>
     <use xlink:href="#URWPalladioL-Roma-6e" transform="translate(1788.573489 0)scale(0.996264)"/>
    </g>
   </g>
   <g id="text_20">
    <!-- moderate incidence of community transmission -->
    <g style="fill: #ffa500" transform="translate(352.796224 223.219841)scale(0.1 -0.1)">
     <use xlink:href="#URWPalladioL-Roma-6d" transform="scale(0.996264)"/>
     <use xlink:href="#URWPalladioL-Roma-6f" transform="translate(87.969674 0)scale(0.996264)"/>
     <use xlink:href="#URWPalladioL-Roma-64" transform="translate(142.365254 0)scale(0.996264)"/>
     <use xlink:href="#URWPalladioL-Roma-65" transform="translate(203.236885 0)scale(0.996264)"/>
     <use xlink:href="#URWPalladioL-Roma-72" transform="translate(250.95718 0)scale(0.996264)"/>
     <use xlink:href="#URWPalladioL-Roma-61" transform="translate(290.309077 0)scale(0.996264)"/>
     <use xlink:href="#URWPalladioL-Roma-74" transform="translate(340.122277 0)scale(0.996264)"/>
     <use xlink:href="#URWPalladioL-Roma-65" transform="translate(372.599365 0)scale(0.996264)"/>
     <use xlink:href="#URWPalladioL-Roma-69" transform="translate(445.22626 0)scale(0.996264)"/>
     <use xlink:href="#URWPalladioL-Roma-6e" transform="translate(474.216622 0)scale(0.996264)"/>
     <use xlink:href="#URWPalladioL-Roma-63" transform="translate(532.198682 0)scale(0.996264)"/>
     <use xlink:href="#URWPalladioL-Roma-69" transform="translate(576.432251 0)scale(0.996264)"/>
     <use xlink:href="#URWPalladioL-Roma-64" transform="translate(605.422613 0)scale(0.996264)"/>
     <use xlink:href="#URWPalladioL-Roma-65" transform="translate(666.294243 0)scale(0.996264)"/>
     <use xlink:href="#URWPalladioL-Roma-6e" transform="translate(714.014538 0)scale(0.996264)"/>
     <use xlink:href="#URWPalladioL-Roma-63" transform="translate(771.996599 0)scale(0.996264)"/>
     <use xlink:href="#URWPalladioL-Roma-65" transform="translate(816.230168 0)scale(0.996264)"/>
     <use xlink:href="#URWPalladioL-Roma-6f" transform="translate(888.857063 0)scale(0.996264)"/>
     <use xlink:href="#URWPalladioL-Roma-66" transform="translate(943.252643 0)scale(0.996264)"/>
     <use xlink:href="#URWPalladioL-Roma-63" transform="translate(1001.334473 0)scale(0.996264)"/>
     <use xlink:href="#URWPalladioL-Roma-6f" transform="translate(1045.568042 0)scale(0.996264)"/>
     <use xlink:href="#URWPalladioL-Roma-6d" transform="translate(1099.963622 0)scale(0.996264)"/>
     <use xlink:href="#URWPalladioL-Roma-6d" transform="translate(1187.933296 0)scale(0.996264)"/>
     <use xlink:href="#URWPalladioL-Roma-75" transform="translate(1275.902971 0)scale(0.996264)"/>
     <use xlink:href="#URWPalladioL-Roma-6e" transform="translate(1335.976705 0)scale(0.996264)"/>
     <use xlink:href="#URWPalladioL-Roma-69" transform="translate(1393.958766 0)scale(0.996264)"/>
     <use xlink:href="#URWPalladioL-Roma-74" transform="translate(1422.949128 0)scale(0.996264)"/>
     <use xlink:href="#URWPalladioL-Roma-79" transform="translate(1455.426215 0)scale(0.996264)"/>
     <use xlink:href="#URWPalladioL-Roma-74" transform="translate(1535.724493 0)scale(0.996264)"/>
     <use xlink:href="#URWPalladioL-Roma-72" transform="translate(1568.20158 0)scale(0.996264)"/>
     <use xlink:href="#URWPalladioL-Roma-61" transform="translate(1607.553477 0)scale(0.996264)"/>
     <use xlink:href="#URWPalladioL-Roma-6e" transform="translate(1657.366677 0)scale(0.996264)"/>
     <use xlink:href="#URWPalladioL-Roma-73" transform="translate(1715.348738 0)scale(0.996264)"/>
     <use xlink:href="#URWPalladioL-Roma-6d" transform="translate(1757.590204 0)scale(0.996264)"/>
     <use xlink:href="#URWPalladioL-Roma-69" transform="translate(1845.559879 0)scale(0.996264)"/>
     <use xlink:href="#URWPalladioL-Roma-73" transform="translate(1874.55024 0)scale(0.996264)"/>
     <use xlink:href="#URWPalladioL-Roma-73" transform="translate(1916.791706 0)scale(0.996264)"/>
     <use xlink:href="#URWPalladioL-Roma-69" transform="translate(1959.033173 0)scale(0.996264)"/>
     <use xlink:href="#URWPalladioL-Roma-6f" transform="translate(1988.023534 0)scale(0.996264)"/>
     <use xlink:href="#URWPalladioL-Roma-6e" transform="translate(2042.419114 0)scale(0.996264)"/>
    </g>
   </g>
   <g id="text_21">
    <!-- high incidence of community transmission -->
    <g style="fill: #ff0000" transform="translate(352.796224 213.219841)scale(0.1 -0.1)">
     <defs>
      <path id="URWPalladioL-Roma-68" d="M 45 4248 
L 403 4248 
C 518 4248 563 4177 563 3984 
L 563 643 
C 563 237 544 192 326 192 
L 38 192 
L 38 -7 
C 474 -7 646 -7 832 -7 
C 1018 -7 1190 -7 1626 -7 
L 1626 192 
L 1338 192 
C 1120 192 1101 237 1101 643 
L 1101 2011 
C 1101 2300 1523 2616 1914 2616 
C 2342 2616 2624 2297 2624 1806 
L 2624 -7 
C 3014 -7 3021 -7 3130 -7 
C 3219 -7 3219 -7 3661 -7 
L 3661 179 
L 3398 205 
C 3181 205 3162 244 3162 654 
L 3162 1892 
C 3162 2642 2810 3008 2093 3008 
C 1856 3008 1722 2963 1587 2847 
L 1101 2424 
L 1101 4613 
L 1043 4665 
C 762 4556 550 4504 45 4427 
L 45 4248 
z
" transform="scale(0.015625)"/>
      <path id="URWPalladioL-Roma-67" d="M 3322 2432 
L 3482 2695 
L 3456 2759 
L 2547 2759 
C 2310 2937 2080 3008 1766 3008 
C 1485 3008 1158 2920 896 2768 
C 538 2567 352 2258 352 1874 
C 352 1408 646 1087 1120 1036 
L 614 640 
C 550 543 518 459 518 361 
C 518 180 634 76 941 -14 
L 384 -316 
C 294 -367 205 -604 205 -803 
C 205 -1388 774 -1792 1587 -1792 
C 2554 -1792 3315 -1182 3315 -399 
C 3315 63 3008 384 2560 384 
L 1536 384 
C 1203 384 1050 462 1050 639 
C 1050 724 1101 795 1267 939 
C 1306 972 1318 985 1344 1011 
C 1408 1004 1446 998 1498 998 
C 1773 998 2112 1118 2374 1300 
C 2662 1507 2803 1759 2803 2093 
C 2803 2218 2784 2300 2733 2432 
L 3322 2432 
z
M 1536 2790 
C 1971 2790 2266 2438 2266 1905 
C 2266 1499 1997 1216 1606 1216 
C 1178 1216 890 1542 890 2025 
C 890 2507 1126 2790 1536 2790 
z
M 1837 -65 
C 2560 -65 2810 -212 2810 -630 
C 2810 -1182 2304 -1593 1632 -1593 
C 1075 -1593 691 -1266 691 -790 
C 691 -502 858 -238 1114 -129 
C 1216 -78 1395 -65 1837 -65 
z
" transform="scale(0.015625)"/>
     </defs>
     <use xlink:href="#URWPalladioL-Roma-68" transform="scale(0.996264)"/>
     <use xlink:href="#URWPalladioL-Roma-69" transform="translate(57.982061 0)scale(0.996264)"/>
     <use xlink:href="#URWPalladioL-Roma-67" transform="translate(86.972422 0)scale(0.996264)"/>
     <use xlink:href="#URWPalladioL-Roma-68" transform="translate(142.364099 0)scale(0.996264)"/>
     <use xlink:href="#URWPalladioL-Roma-69" transform="translate(225.25276 0)scale(0.996264)"/>
     <use xlink:href="#URWPalladioL-Roma-6e" transform="translate(254.243121 0)scale(0.996264)"/>
     <use xlink:href="#URWPalladioL-Roma-63" transform="translate(312.225182 0)scale(0.996264)"/>
     <use xlink:href="#URWPalladioL-Roma-69" transform="translate(356.458751 0)scale(0.996264)"/>
     <use xlink:href="#URWPalladioL-Roma-64" transform="translate(385.449112 0)scale(0.996264)"/>
     <use xlink:href="#URWPalladioL-Roma-65" transform="translate(446.320743 0)scale(0.996264)"/>
     <use xlink:href="#URWPalladioL-Roma-6e" transform="translate(494.041038 0)scale(0.996264)"/>
     <use xlink:href="#URWPalladioL-Roma-63" transform="translate(552.023099 0)scale(0.996264)"/>
     <use xlink:href="#URWPalladioL-Roma-65" transform="translate(596.256668 0)scale(0.996264)"/>
     <use xlink:href="#URWPalladioL-Roma-6f" transform="translate(668.883563 0)scale(0.996264)"/>
     <use xlink:href="#URWPalladioL-Roma-66" transform="translate(723.279143 0)scale(0.996264)"/>
     <use xlink:href="#URWPalladioL-Roma-63" transform="translate(781.360973 0)scale(0.996264)"/>
     <use xlink:href="#URWPalladioL-Roma-6f" transform="translate(825.594542 0)scale(0.996264)"/>
     <use xlink:href="#URWPalladioL-Roma-6d" transform="translate(879.990122 0)scale(0.996264)"/>
     <use xlink:href="#URWPalladioL-Roma-6d" transform="translate(967.959796 0)scale(0.996264)"/>
     <use xlink:href="#URWPalladioL-Roma-75" transform="translate(1055.92947 0)scale(0.996264)"/>
     <use xlink:href="#URWPalladioL-Roma-6e" transform="translate(1116.003205 0)scale(0.996264)"/>
     <use xlink:href="#URWPalladioL-Roma-69" transform="translate(1173.985266 0)scale(0.996264)"/>
     <use xlink:href="#URWPalladioL-Roma-74" transform="translate(1202.975627 0)scale(0.996264)"/>
     <use xlink:href="#URWPalladioL-Roma-79" transform="translate(1235.452715 0)scale(0.996264)"/>
     <use xlink:href="#URWPalladioL-Roma-74" transform="translate(1315.750992 0)scale(0.996264)"/>
     <use xlink:href="#URWPalladioL-Roma-72" transform="translate(1348.22808 0)scale(0.996264)"/>
     <use xlink:href="#URWPalladioL-Roma-61" transform="translate(1387.579977 0)scale(0.996264)"/>
     <use xlink:href="#URWPalladioL-Roma-6e" transform="translate(1437.393177 0)scale(0.996264)"/>
     <use xlink:href="#URWPalladioL-Roma-73" transform="translate(1495.375238 0)scale(0.996264)"/>
     <use xlink:href="#URWPalladioL-Roma-6d" transform="translate(1537.616704 0)scale(0.996264)"/>
     <use xlink:href="#URWPalladioL-Roma-69" transform="translate(1625.586378 0)scale(0.996264)"/>
     <use xlink:href="#URWPalladioL-Roma-73" transform="translate(1654.57674 0)scale(0.996264)"/>
     <use xlink:href="#URWPalladioL-Roma-73" transform="translate(1696.818206 0)scale(0.996264)"/>
     <use xlink:href="#URWPalladioL-Roma-69" transform="translate(1739.059672 0)scale(0.996264)"/>
     <use xlink:href="#URWPalladioL-Roma-6f" transform="translate(1768.050034 0)scale(0.996264)"/>
     <use xlink:href="#URWPalladioL-Roma-6e" transform="translate(1822.445614 0)scale(0.996264)"/>
    </g>
   </g>
  </g>
 </g>
 <defs>
  <clipPath id="p3d951a899a">
   <rect x="65.426224" y="7.2" width="279" height="221.76"/>
  </clipPath>
 </defs>
</svg>
