<?xml version="1.0" encoding="utf-8" standalone="no"?>
<!DOCTYPE svg PUBLIC "-//W3C//DTD SVG 1.1//EN"
  "http://www.w3.org/Graphics/SVG/1.1/DTD/svg11.dtd">
<!-- Created with matplotlib (https://matplotlib.org/) -->
<svg height="320.717436pt" version="1.1" viewBox="0 0 423.364249 320.717436" width="423.364249pt" xmlns="http://www.w3.org/2000/svg" xmlns:xlink="http://www.w3.org/1999/xlink">
 <metadata>
  <rdf:RDF xmlns:cc="http://creativecommons.org/ns#" xmlns:dc="http://purl.org/dc/elements/1.1/" xmlns:rdf="http://www.w3.org/1999/02/22-rdf-syntax-ns#">
   <cc:Work>
    <dc:type rdf:resource="http://purl.org/dc/dcmitype/StillImage"/>
    <dc:date>2021-01-27T11:35:23.615667</dc:date>
    <dc:format>image/svg+xml</dc:format>
    <dc:creator>
     <cc:Agent>
      <dc:title>Matplotlib v3.3.3, https://matplotlib.org/</dc:title>
     </cc:Agent>
    </dc:creator>
   </cc:Work>
  </rdf:RDF>
 </metadata>
 <defs>
  <style type="text/css">*{stroke-linecap:butt;stroke-linejoin:round;}</style>
 </defs>
 <g id="figure_1">
  <g id="patch_1">
   <path d="M 0 320.717436 
L 423.364249 320.717436 
L 423.364249 0 
L 0 0 
z
" style="fill:#ffffff;"/>
  </g>
  <g id="axes_1">
   <g id="patch_2">
    <path d="M 59.044249 273.312 
L 416.164249 273.312 
L 416.164249 7.2 
L 59.044249 7.2 
z
" style="fill:#ffffff;"/>
   </g>
   <g id="patch_3">
    <path clip-path="url(#p15b4da65ab)" d="M 59.156551 273.312 
L 60.054966 273.312 
L 60.054966 268.789687 
L 59.156551 268.789687 
z
" style="fill:#1f77b4;"/>
   </g>
   <g id="patch_4">
    <path clip-path="url(#p15b4da65ab)" d="M 60.279569 273.312 
L 61.177984 273.312 
L 61.177984 267.948855 
L 60.279569 267.948855 
z
" style="fill:#1f77b4;"/>
   </g>
   <g id="patch_5">
    <path clip-path="url(#p15b4da65ab)" d="M 61.402588 273.312 
L 62.301003 273.312 
L 62.301003 266.926221 
L 61.402588 266.926221 
z
" style="fill:#1f77b4;"/>
   </g>
   <g id="patch_6">
    <path clip-path="url(#p15b4da65ab)" d="M 62.525607 273.312 
L 63.424022 273.312 
L 63.424022 265.04003 
L 62.525607 265.04003 
z
" style="fill:#1f77b4;"/>
   </g>
   <g id="patch_7">
    <path clip-path="url(#p15b4da65ab)" d="M 63.648626 273.312 
L 64.547041 273.312 
L 64.547041 263.835595 
L 63.648626 263.835595 
z
" style="fill:#1f77b4;"/>
   </g>
   <g id="patch_8">
    <path clip-path="url(#p15b4da65ab)" d="M 64.771645 273.312 
L 65.67006 273.312 
L 65.67006 261.381274 
L 64.771645 261.381274 
z
" style="fill:#1f77b4;"/>
   </g>
   <g id="patch_9">
    <path clip-path="url(#p15b4da65ab)" d="M 65.894664 273.312 
L 66.793079 273.312 
L 66.793079 259.995037 
L 65.894664 259.995037 
z
" style="fill:#1f77b4;"/>
   </g>
   <g id="patch_10">
    <path clip-path="url(#p15b4da65ab)" d="M 67.017683 273.312 
L 67.916098 273.312 
L 67.916098 258.995129 
L 67.017683 258.995129 
z
" style="fill:#1f77b4;"/>
   </g>
   <g id="patch_11">
    <path clip-path="url(#p15b4da65ab)" d="M 68.140701 273.312 
L 69.039117 273.312 
L 69.039117 258.199747 
L 68.140701 258.199747 
z
" style="fill:#1f77b4;"/>
   </g>
   <g id="patch_12">
    <path clip-path="url(#p15b4da65ab)" d="M 69.26372 273.312 
L 70.162135 273.312 
L 70.162135 256.927136 
L 69.26372 256.927136 
z
" style="fill:#1f77b4;"/>
   </g>
   <g id="patch_13">
    <path clip-path="url(#p15b4da65ab)" d="M 70.386739 273.312 
L 71.285154 273.312 
L 71.285154 256.040854 
L 70.386739 256.040854 
z
" style="fill:#1f77b4;"/>
   </g>
   <g id="patch_14">
    <path clip-path="url(#p15b4da65ab)" d="M 71.509758 273.312 
L 72.408173 273.312 
L 72.408173 254.722793 
L 71.509758 254.722793 
z
" style="fill:#1f77b4;"/>
   </g>
   <g id="patch_15">
    <path clip-path="url(#p15b4da65ab)" d="M 72.632777 273.312 
L 73.531192 273.312 
L 73.531192 252.904777 
L 72.632777 252.904777 
z
" style="fill:#1f77b4;"/>
   </g>
   <g id="patch_16">
    <path clip-path="url(#p15b4da65ab)" d="M 73.755796 273.312 
L 74.654211 273.312 
L 74.654211 251.291289 
L 73.755796 251.291289 
z
" style="fill:#1f77b4;"/>
   </g>
   <g id="patch_17">
    <path clip-path="url(#p15b4da65ab)" d="M 74.878815 273.312 
L 75.77723 273.312 
L 75.77723 248.836968 
L 74.878815 248.836968 
z
" style="fill:#1f77b4;"/>
   </g>
   <g id="patch_18">
    <path clip-path="url(#p15b4da65ab)" d="M 76.001834 273.312 
L 76.900249 273.312 
L 76.900249 247.31438 
L 76.001834 247.31438 
z
" style="fill:#1f77b4;"/>
   </g>
   <g id="patch_19">
    <path clip-path="url(#p15b4da65ab)" d="M 77.124852 273.312 
L 78.023267 273.312 
L 78.023267 247.178029 
L 77.124852 247.178029 
z
" style="fill:#1f77b4;"/>
   </g>
   <g id="patch_20">
    <path clip-path="url(#p15b4da65ab)" d="M 78.247871 273.312 
L 79.146286 273.312 
L 79.146286 246.678075 
L 78.247871 246.678075 
z
" style="fill:#1f77b4;"/>
   </g>
   <g id="patch_21">
    <path clip-path="url(#p15b4da65ab)" d="M 79.37089 273.312 
L 80.269305 273.312 
L 80.269305 246.178121 
L 79.37089 246.178121 
z
" style="fill:#1f77b4;"/>
   </g>
   <g id="patch_22">
    <path clip-path="url(#p15b4da65ab)" d="M 80.493909 273.312 
L 81.392324 273.312 
L 81.392324 245.246388 
L 80.493909 245.246388 
z
" style="fill:#1f77b4;"/>
   </g>
   <g id="patch_23">
    <path clip-path="url(#p15b4da65ab)" d="M 81.616928 273.312 
L 82.515343 273.312 
L 82.515343 243.519273 
L 81.616928 243.519273 
z
" style="fill:#1f77b4;"/>
   </g>
   <g id="patch_24">
    <path clip-path="url(#p15b4da65ab)" d="M 82.739947 273.312 
L 83.638362 273.312 
L 83.638362 243.11022 
L 82.739947 243.11022 
z
" style="fill:#1f77b4;"/>
   </g>
   <g id="patch_25">
    <path clip-path="url(#p15b4da65ab)" d="M 83.862966 273.312 
L 84.761381 273.312 
L 84.761381 241.996685 
L 83.862966 241.996685 
z
" style="fill:#1f77b4;"/>
   </g>
   <g id="patch_26">
    <path clip-path="url(#p15b4da65ab)" d="M 84.985984 273.312 
L 85.8844 273.312 
L 85.8844 241.224029 
L 84.985984 241.224029 
z
" style="fill:#1f77b4;"/>
   </g>
   <g id="patch_27">
    <path clip-path="url(#p15b4da65ab)" d="M 86.109003 273.312 
L 87.007418 273.312 
L 87.007418 240.79225 
L 86.109003 240.79225 
z
" style="fill:#1f77b4;"/>
   </g>
   <g id="patch_28">
    <path clip-path="url(#p15b4da65ab)" d="M 87.232022 273.312 
L 88.130437 273.312 
L 88.130437 240.428647 
L 87.232022 240.428647 
z
" style="fill:#1f77b4;"/>
   </g>
   <g id="patch_29">
    <path clip-path="url(#p15b4da65ab)" d="M 88.355041 273.312 
L 89.253456 273.312 
L 89.253456 239.883242 
L 88.355041 239.883242 
z
" style="fill:#1f77b4;"/>
   </g>
   <g id="patch_30">
    <path clip-path="url(#p15b4da65ab)" d="M 89.47806 273.312 
L 90.376475 273.312 
L 90.376475 239.474189 
L 89.47806 239.474189 
z
" style="fill:#1f77b4;"/>
   </g>
   <g id="patch_31">
    <path clip-path="url(#p15b4da65ab)" d="M 90.601079 273.312 
L 91.499494 273.312 
L 91.499494 238.701532 
L 90.601079 238.701532 
z
" style="fill:#1f77b4;"/>
   </g>
   <g id="patch_32">
    <path clip-path="url(#p15b4da65ab)" d="M 91.724098 273.312 
L 92.622513 273.312 
L 92.622513 237.951601 
L 91.724098 237.951601 
z
" style="fill:#1f77b4;"/>
   </g>
   <g id="patch_33">
    <path clip-path="url(#p15b4da65ab)" d="M 92.847117 273.312 
L 93.745532 273.312 
L 93.745532 237.474372 
L 92.847117 237.474372 
z
" style="fill:#1f77b4;"/>
   </g>
   <g id="patch_34">
    <path clip-path="url(#p15b4da65ab)" d="M 93.970135 273.312 
L 94.868551 273.312 
L 94.868551 237.224395 
L 93.970135 237.224395 
z
" style="fill:#1f77b4;"/>
   </g>
   <g id="patch_35">
    <path clip-path="url(#p15b4da65ab)" d="M 95.093154 273.312 
L 95.991569 273.312 
L 95.991569 237.133494 
L 95.093154 237.133494 
z
" style="fill:#1f77b4;"/>
   </g>
   <g id="patch_36">
    <path clip-path="url(#p15b4da65ab)" d="M 96.216173 273.312 
L 97.114588 273.312 
L 97.114588 237.315296 
L 96.216173 237.315296 
z
" style="fill:#1f77b4;"/>
   </g>
   <g id="patch_37">
    <path clip-path="url(#p15b4da65ab)" d="M 97.339192 273.312 
L 98.237607 273.312 
L 98.237607 237.951601 
L 97.339192 237.951601 
z
" style="fill:#1f77b4;"/>
   </g>
   <g id="patch_38">
    <path clip-path="url(#p15b4da65ab)" d="M 98.462211 273.312 
L 99.360626 273.312 
L 99.360626 237.724349 
L 98.462211 237.724349 
z
" style="fill:#1f77b4;"/>
   </g>
   <g id="patch_39">
    <path clip-path="url(#p15b4da65ab)" d="M 99.58523 273.312 
L 100.483645 273.312 
L 100.483645 238.269754 
L 99.58523 238.269754 
z
" style="fill:#1f77b4;"/>
   </g>
   <g id="patch_40">
    <path clip-path="url(#p15b4da65ab)" d="M 100.708249 273.312 
L 101.606664 273.312 
L 101.606664 238.38338 
L 100.708249 238.38338 
z
" style="fill:#1f77b4;"/>
   </g>
   <g id="patch_41">
    <path clip-path="url(#p15b4da65ab)" d="M 101.831267 273.312 
L 102.729683 273.312 
L 102.729683 238.951509 
L 101.831267 238.951509 
z
" style="fill:#1f77b4;"/>
   </g>
   <g id="patch_42">
    <path clip-path="url(#p15b4da65ab)" d="M 102.954286 273.312 
L 103.852701 273.312 
L 103.852701 239.360563 
L 102.954286 239.360563 
z
" style="fill:#1f77b4;"/>
   </g>
   <g id="patch_43">
    <path clip-path="url(#p15b4da65ab)" d="M 104.077305 273.312 
L 104.97572 273.312 
L 104.97572 248.473365 
L 104.077305 248.473365 
z
" style="fill:#1f77b4;"/>
   </g>
   <g id="patch_44">
    <path clip-path="url(#p15b4da65ab)" d="M 105.200324 273.312 
L 106.098739 273.312 
L 106.098739 249.791426 
L 105.200324 249.791426 
z
" style="fill:#1f77b4;"/>
   </g>
   <g id="patch_45">
    <path clip-path="url(#p15b4da65ab)" d="M 106.323343 273.312 
L 107.221758 273.312 
L 107.221758 250.723159 
L 106.323343 250.723159 
z
" style="fill:#1f77b4;"/>
   </g>
   <g id="patch_46">
    <path clip-path="url(#p15b4da65ab)" d="M 107.446362 273.312 
L 108.344777 273.312 
L 108.344777 251.950319 
L 107.446362 251.950319 
z
" style="fill:#1f77b4;"/>
   </g>
   <g id="patch_47">
    <path clip-path="url(#p15b4da65ab)" d="M 108.569381 273.312 
L 109.467796 273.312 
L 109.467796 252.632075 
L 108.569381 252.632075 
z
" style="fill:#1f77b4;"/>
   </g>
   <g id="patch_48">
    <path clip-path="url(#p15b4da65ab)" d="M 109.6924 273.312 
L 110.590815 273.312 
L 110.590815 254.109213 
L 109.6924 254.109213 
z
" style="fill:#1f77b4;"/>
   </g>
   <g id="patch_49">
    <path clip-path="url(#p15b4da65ab)" d="M 110.815418 273.312 
L 111.713834 273.312 
L 111.713834 255.086396 
L 110.815418 255.086396 
z
" style="fill:#1f77b4;"/>
   </g>
   <g id="patch_50">
    <path clip-path="url(#p15b4da65ab)" d="M 111.938437 273.312 
L 112.836852 273.312 
L 112.836852 256.10903 
L 111.938437 256.10903 
z
" style="fill:#1f77b4;"/>
   </g>
   <g id="patch_51">
    <path clip-path="url(#p15b4da65ab)" d="M 113.061456 273.312 
L 113.959871 273.312 
L 113.959871 257.33619 
L 113.061456 257.33619 
z
" style="fill:#1f77b4;"/>
   </g>
   <g id="patch_52">
    <path clip-path="url(#p15b4da65ab)" d="M 114.184475 273.312 
L 115.08289 273.312 
L 115.08289 258.199747 
L 114.184475 258.199747 
z
" style="fill:#1f77b4;"/>
   </g>
   <g id="patch_53">
    <path clip-path="url(#p15b4da65ab)" d="M 115.307494 273.312 
L 116.205909 273.312 
L 116.205909 258.858778 
L 115.307494 258.858778 
z
" style="fill:#1f77b4;"/>
   </g>
   <g id="patch_54">
    <path clip-path="url(#p15b4da65ab)" d="M 116.430513 273.312 
L 117.328928 273.312 
L 117.328928 259.404182 
L 116.430513 259.404182 
z
" style="fill:#1f77b4;"/>
   </g>
   <g id="patch_55">
    <path clip-path="url(#p15b4da65ab)" d="M 117.553532 273.312 
L 118.451947 273.312 
L 118.451947 260.154114 
L 117.553532 260.154114 
z
" style="fill:#1f77b4;"/>
   </g>
   <g id="patch_56">
    <path clip-path="url(#p15b4da65ab)" d="M 118.676551 273.312 
L 119.574966 273.312 
L 119.574966 260.790419 
L 118.676551 260.790419 
z
" style="fill:#1f77b4;"/>
   </g>
   <g id="patch_57">
    <path clip-path="url(#p15b4da65ab)" d="M 119.799569 273.312 
L 120.697984 273.312 
L 120.697984 261.903954 
L 119.799569 261.903954 
z
" style="fill:#1f77b4;"/>
   </g>
   <g id="patch_58">
    <path clip-path="url(#p15b4da65ab)" d="M 120.922588 273.312 
L 121.821003 273.312 
L 121.821003 262.562984 
L 120.922588 262.562984 
z
" style="fill:#1f77b4;"/>
   </g>
   <g id="patch_59">
    <path clip-path="url(#p15b4da65ab)" d="M 122.045607 273.312 
L 122.944022 273.312 
L 122.944022 262.881137 
L 122.045607 262.881137 
z
" style="fill:#1f77b4;"/>
   </g>
   <g id="patch_60">
    <path clip-path="url(#p15b4da65ab)" d="M 123.168626 273.312 
L 124.067041 273.312 
L 124.067041 263.153839 
L 123.168626 263.153839 
z
" style="fill:#1f77b4;"/>
   </g>
   <g id="patch_61">
    <path clip-path="url(#p15b4da65ab)" d="M 124.291645 273.312 
L 125.19006 273.312 
L 125.19006 263.381091 
L 124.291645 263.381091 
z
" style="fill:#1f77b4;"/>
   </g>
   <g id="patch_62">
    <path clip-path="url(#p15b4da65ab)" d="M 125.414664 273.312 
L 126.313079 273.312 
L 126.313079 263.926496 
L 125.414664 263.926496 
z
" style="fill:#1f77b4;"/>
   </g>
   <g id="patch_63">
    <path clip-path="url(#p15b4da65ab)" d="M 126.537683 273.312 
L 127.436098 273.312 
L 127.436098 264.676427 
L 126.537683 264.676427 
z
" style="fill:#1f77b4;"/>
   </g>
   <g id="patch_64">
    <path clip-path="url(#p15b4da65ab)" d="M 127.660701 273.312 
L 128.559117 273.312 
L 128.559117 265.153656 
L 127.660701 265.153656 
z
" style="fill:#1f77b4;"/>
   </g>
   <g id="patch_65">
    <path clip-path="url(#p15b4da65ab)" d="M 128.78372 273.312 
L 129.682135 273.312 
L 129.682135 265.630885 
L 128.78372 265.630885 
z
" style="fill:#1f77b4;"/>
   </g>
   <g id="patch_66">
    <path clip-path="url(#p15b4da65ab)" d="M 129.906739 273.312 
L 130.805154 273.312 
L 130.805154 266.199015 
L 129.906739 266.199015 
z
" style="fill:#1f77b4;"/>
   </g>
   <g id="patch_67">
    <path clip-path="url(#p15b4da65ab)" d="M 131.029758 273.312 
L 131.928173 273.312 
L 131.928173 266.335366 
L 131.029758 266.335366 
z
" style="fill:#1f77b4;"/>
   </g>
   <g id="patch_68">
    <path clip-path="url(#p15b4da65ab)" d="M 132.152777 273.312 
L 133.051192 273.312 
L 133.051192 266.312641 
L 132.152777 266.312641 
z
" style="fill:#1f77b4;"/>
   </g>
   <g id="patch_69">
    <path clip-path="url(#p15b4da65ab)" d="M 133.275796 273.312 
L 134.174211 273.312 
L 134.174211 267.130748 
L 133.275796 267.130748 
z
" style="fill:#1f77b4;"/>
   </g>
   <g id="patch_70">
    <path clip-path="url(#p15b4da65ab)" d="M 134.398815 273.312 
L 135.29723 273.312 
L 135.29723 267.630702 
L 134.398815 267.630702 
z
" style="fill:#1f77b4;"/>
   </g>
   <g id="patch_71">
    <path clip-path="url(#p15b4da65ab)" d="M 135.521834 273.312 
L 136.420249 273.312 
L 136.420249 268.221557 
L 135.521834 268.221557 
z
" style="fill:#1f77b4;"/>
   </g>
   <g id="patch_72">
    <path clip-path="url(#p15b4da65ab)" d="M 136.644852 273.312 
L 137.543267 273.312 
L 137.543267 268.448809 
L 136.644852 268.448809 
z
" style="fill:#1f77b4;"/>
   </g>
   <g id="patch_73">
    <path clip-path="url(#p15b4da65ab)" d="M 137.767871 273.312 
L 138.666286 273.312 
L 138.666286 268.903313 
L 137.767871 268.903313 
z
" style="fill:#1f77b4;"/>
   </g>
   <g id="patch_74">
    <path clip-path="url(#p15b4da65ab)" d="M 138.89089 273.312 
L 139.789305 273.312 
L 139.789305 269.15329 
L 138.89089 269.15329 
z
" style="fill:#1f77b4;"/>
   </g>
   <g id="patch_75">
    <path clip-path="url(#p15b4da65ab)" d="M 140.013909 273.312 
L 140.912324 273.312 
L 140.912324 269.244191 
L 140.013909 269.244191 
z
" style="fill:#1f77b4;"/>
   </g>
   <g id="patch_76">
    <path clip-path="url(#p15b4da65ab)" d="M 141.136928 273.312 
L 142.035343 273.312 
L 142.035343 269.425992 
L 141.136928 269.425992 
z
" style="fill:#1f77b4;"/>
   </g>
   <g id="patch_77">
    <path clip-path="url(#p15b4da65ab)" d="M 142.259947 273.312 
L 143.158362 273.312 
L 143.158362 269.744145 
L 142.259947 269.744145 
z
" style="fill:#1f77b4;"/>
   </g>
   <g id="patch_78">
    <path clip-path="url(#p15b4da65ab)" d="M 143.382966 273.312 
L 144.281381 273.312 
L 144.281381 269.81232 
L 143.382966 269.81232 
z
" style="fill:#1f77b4;"/>
   </g>
   <g id="patch_79">
    <path clip-path="url(#p15b4da65ab)" d="M 144.505984 273.312 
L 145.4044 273.312 
L 145.4044 270.198649 
L 144.505984 270.198649 
z
" style="fill:#1f77b4;"/>
   </g>
   <g id="patch_80">
    <path clip-path="url(#p15b4da65ab)" d="M 145.629003 273.312 
L 146.527418 273.312 
L 146.527418 270.425901 
L 145.629003 270.425901 
z
" style="fill:#1f77b4;"/>
   </g>
   <g id="patch_81">
    <path clip-path="url(#p15b4da65ab)" d="M 146.752022 273.312 
L 147.650437 273.312 
L 147.650437 270.539527 
L 146.752022 270.539527 
z
" style="fill:#1f77b4;"/>
   </g>
   <g id="patch_82">
    <path clip-path="url(#p15b4da65ab)" d="M 147.875041 273.312 
L 148.773456 273.312 
L 148.773456 270.607702 
L 147.875041 270.607702 
z
" style="fill:#1f77b4;"/>
   </g>
   <g id="patch_83">
    <path clip-path="url(#p15b4da65ab)" d="M 148.99806 273.312 
L 149.896475 273.312 
L 149.896475 270.607702 
L 148.99806 270.607702 
z
" style="fill:#1f77b4;"/>
   </g>
   <g id="patch_84">
    <path clip-path="url(#p15b4da65ab)" d="M 150.121079 273.312 
L 151.019494 273.312 
L 151.019494 270.789504 
L 150.121079 270.789504 
z
" style="fill:#1f77b4;"/>
   </g>
   <g id="patch_85">
    <path clip-path="url(#p15b4da65ab)" d="M 151.244098 273.312 
L 152.142513 273.312 
L 152.142513 271.039481 
L 151.244098 271.039481 
z
" style="fill:#1f77b4;"/>
   </g>
   <g id="patch_86">
    <path clip-path="url(#p15b4da65ab)" d="M 152.367117 273.312 
L 153.265532 273.312 
L 153.265532 271.062206 
L 152.367117 271.062206 
z
" style="fill:#1f77b4;"/>
   </g>
   <g id="patch_87">
    <path clip-path="url(#p15b4da65ab)" d="M 153.490135 273.312 
L 154.388551 273.312 
L 154.388551 271.130382 
L 153.490135 271.130382 
z
" style="fill:#1f77b4;"/>
   </g>
   <g id="patch_88">
    <path clip-path="url(#p15b4da65ab)" d="M 154.613154 273.312 
L 155.511569 273.312 
L 155.511569 271.153107 
L 154.613154 271.153107 
z
" style="fill:#1f77b4;"/>
   </g>
   <g id="patch_89">
    <path clip-path="url(#p15b4da65ab)" d="M 155.736173 273.312 
L 156.634588 273.312 
L 156.634588 271.198557 
L 155.736173 271.198557 
z
" style="fill:#1f77b4;"/>
   </g>
   <g id="patch_90">
    <path clip-path="url(#p15b4da65ab)" d="M 156.859192 273.312 
L 157.757607 273.312 
L 157.757607 271.221282 
L 156.859192 271.221282 
z
" style="fill:#1f77b4;"/>
   </g>
   <g id="patch_91">
    <path clip-path="url(#p15b4da65ab)" d="M 157.982211 273.312 
L 158.880626 273.312 
L 158.880626 271.062206 
L 157.982211 271.062206 
z
" style="fill:#1f77b4;"/>
   </g>
   <g id="patch_92">
    <path clip-path="url(#p15b4da65ab)" d="M 159.10523 273.312 
L 160.003645 273.312 
L 160.003645 271.016756 
L 159.10523 271.016756 
z
" style="fill:#1f77b4;"/>
   </g>
   <g id="patch_93">
    <path clip-path="url(#p15b4da65ab)" d="M 160.228249 273.312 
L 161.126664 273.312 
L 161.126664 271.153107 
L 160.228249 271.153107 
z
" style="fill:#1f77b4;"/>
   </g>
   <g id="patch_94">
    <path clip-path="url(#p15b4da65ab)" d="M 161.351267 273.312 
L 162.249683 273.312 
L 162.249683 271.153107 
L 161.351267 271.153107 
z
" style="fill:#1f77b4;"/>
   </g>
   <g id="patch_95">
    <path clip-path="url(#p15b4da65ab)" d="M 162.474286 273.312 
L 163.372701 273.312 
L 163.372701 271.175832 
L 162.474286 271.175832 
z
" style="fill:#1f77b4;"/>
   </g>
   <g id="patch_96">
    <path clip-path="url(#p15b4da65ab)" d="M 163.597305 273.312 
L 164.49572 273.312 
L 164.49572 271.198557 
L 163.597305 271.198557 
z
" style="fill:#1f77b4;"/>
   </g>
   <g id="patch_97">
    <path clip-path="url(#p15b4da65ab)" d="M 164.720324 273.312 
L 165.618739 273.312 
L 165.618739 271.334908 
L 164.720324 271.334908 
z
" style="fill:#1f77b4;"/>
   </g>
   <g id="patch_98">
    <path clip-path="url(#p15b4da65ab)" d="M 165.843343 273.312 
L 166.741758 273.312 
L 166.741758 271.380359 
L 165.843343 271.380359 
z
" style="fill:#1f77b4;"/>
   </g>
   <g id="patch_99">
    <path clip-path="url(#p15b4da65ab)" d="M 166.966362 273.312 
L 167.864777 273.312 
L 167.864777 271.607611 
L 166.966362 271.607611 
z
" style="fill:#1f77b4;"/>
   </g>
   <g id="patch_100">
    <path clip-path="url(#p15b4da65ab)" d="M 168.089381 273.312 
L 168.987796 273.312 
L 168.987796 271.584885 
L 168.089381 271.584885 
z
" style="fill:#1f77b4;"/>
   </g>
   <g id="patch_101">
    <path clip-path="url(#p15b4da65ab)" d="M 169.2124 273.312 
L 170.110815 273.312 
L 170.110815 271.607611 
L 169.2124 271.607611 
z
" style="fill:#1f77b4;"/>
   </g>
   <g id="patch_102">
    <path clip-path="url(#p15b4da65ab)" d="M 170.335418 273.312 
L 171.233834 273.312 
L 171.233834 271.289458 
L 170.335418 271.289458 
z
" style="fill:#1f77b4;"/>
   </g>
   <g id="patch_103">
    <path clip-path="url(#p15b4da65ab)" d="M 171.458437 273.312 
L 172.356852 273.312 
L 172.356852 271.289458 
L 171.458437 271.289458 
z
" style="fill:#1f77b4;"/>
   </g>
   <g id="patch_104">
    <path clip-path="url(#p15b4da65ab)" d="M 172.581456 273.312 
L 173.479871 273.312 
L 173.479871 271.266733 
L 172.581456 271.266733 
z
" style="fill:#1f77b4;"/>
   </g>
   <g id="patch_105">
    <path clip-path="url(#p15b4da65ab)" d="M 173.704475 273.312 
L 174.60289 273.312 
L 174.60289 271.334908 
L 173.704475 271.334908 
z
" style="fill:#1f77b4;"/>
   </g>
   <g id="patch_106">
    <path clip-path="url(#p15b4da65ab)" d="M 174.827494 273.312 
L 175.725909 273.312 
L 175.725909 271.380359 
L 174.827494 271.380359 
z
" style="fill:#1f77b4;"/>
   </g>
   <g id="patch_107">
    <path clip-path="url(#p15b4da65ab)" d="M 175.950513 273.312 
L 176.848928 273.312 
L 176.848928 271.334908 
L 175.950513 271.334908 
z
" style="fill:#1f77b4;"/>
   </g>
   <g id="patch_108">
    <path clip-path="url(#p15b4da65ab)" d="M 177.073532 273.312 
L 177.971947 273.312 
L 177.971947 271.380359 
L 177.073532 271.380359 
z
" style="fill:#1f77b4;"/>
   </g>
   <g id="patch_109">
    <path clip-path="url(#p15b4da65ab)" d="M 178.196551 273.312 
L 179.094966 273.312 
L 179.094966 271.380359 
L 178.196551 271.380359 
z
" style="fill:#1f77b4;"/>
   </g>
   <g id="patch_110">
    <path clip-path="url(#p15b4da65ab)" d="M 179.319569 273.312 
L 180.217984 273.312 
L 180.217984 271.403084 
L 179.319569 271.403084 
z
" style="fill:#1f77b4;"/>
   </g>
   <g id="patch_111">
    <path clip-path="url(#p15b4da65ab)" d="M 180.442588 273.312 
L 181.341003 273.312 
L 181.341003 271.425809 
L 180.442588 271.425809 
z
" style="fill:#1f77b4;"/>
   </g>
   <g id="patch_112">
    <path clip-path="url(#p15b4da65ab)" d="M 181.565607 273.312 
L 182.464022 273.312 
L 182.464022 271.403084 
L 181.565607 271.403084 
z
" style="fill:#1f77b4;"/>
   </g>
   <g id="patch_113">
    <path clip-path="url(#p15b4da65ab)" d="M 182.688626 273.312 
L 183.587041 273.312 
L 183.587041 271.425809 
L 182.688626 271.425809 
z
" style="fill:#1f77b4;"/>
   </g>
   <g id="patch_114">
    <path clip-path="url(#p15b4da65ab)" d="M 183.811645 273.312 
L 184.71006 273.312 
L 184.71006 271.357633 
L 183.811645 271.357633 
z
" style="fill:#1f77b4;"/>
   </g>
   <g id="patch_115">
    <path clip-path="url(#p15b4da65ab)" d="M 184.934664 273.312 
L 185.833079 273.312 
L 185.833079 271.380359 
L 184.934664 271.380359 
z
" style="fill:#1f77b4;"/>
   </g>
   <g id="patch_116">
    <path clip-path="url(#p15b4da65ab)" d="M 186.057683 273.312 
L 186.956098 273.312 
L 186.956098 271.425809 
L 186.057683 271.425809 
z
" style="fill:#1f77b4;"/>
   </g>
   <g id="patch_117">
    <path clip-path="url(#p15b4da65ab)" d="M 187.180701 273.312 
L 188.079117 273.312 
L 188.079117 271.425809 
L 187.180701 271.425809 
z
" style="fill:#1f77b4;"/>
   </g>
   <g id="patch_118">
    <path clip-path="url(#p15b4da65ab)" d="M 188.30372 273.312 
L 189.202135 273.312 
L 189.202135 271.425809 
L 188.30372 271.425809 
z
" style="fill:#1f77b4;"/>
   </g>
   <g id="patch_119">
    <path clip-path="url(#p15b4da65ab)" d="M 189.426739 273.312 
L 190.325154 273.312 
L 190.325154 271.403084 
L 189.426739 271.403084 
z
" style="fill:#1f77b4;"/>
   </g>
   <g id="patch_120">
    <path clip-path="url(#p15b4da65ab)" d="M 190.549758 273.312 
L 191.448173 273.312 
L 191.448173 271.357633 
L 190.549758 271.357633 
z
" style="fill:#1f77b4;"/>
   </g>
   <g id="patch_121">
    <path clip-path="url(#p15b4da65ab)" d="M 191.672777 273.312 
L 192.571192 273.312 
L 192.571192 271.448534 
L 191.672777 271.448534 
z
" style="fill:#1f77b4;"/>
   </g>
   <g id="patch_122">
    <path clip-path="url(#p15b4da65ab)" d="M 192.795796 273.312 
L 193.694211 273.312 
L 193.694211 271.312183 
L 192.795796 271.312183 
z
" style="fill:#1f77b4;"/>
   </g>
   <g id="patch_123">
    <path clip-path="url(#p15b4da65ab)" d="M 193.918815 273.312 
L 194.81723 273.312 
L 194.81723 271.153107 
L 193.918815 271.153107 
z
" style="fill:#1f77b4;"/>
   </g>
   <g id="patch_124">
    <path clip-path="url(#p15b4da65ab)" d="M 195.041834 273.312 
L 195.940249 273.312 
L 195.940249 271.153107 
L 195.041834 271.153107 
z
" style="fill:#1f77b4;"/>
   </g>
   <g id="patch_125">
    <path clip-path="url(#p15b4da65ab)" d="M 196.164852 273.312 
L 197.063267 273.312 
L 197.063267 271.107656 
L 196.164852 271.107656 
z
" style="fill:#1f77b4;"/>
   </g>
   <g id="patch_126">
    <path clip-path="url(#p15b4da65ab)" d="M 197.287871 273.312 
L 198.186286 273.312 
L 198.186286 271.039481 
L 197.287871 271.039481 
z
" style="fill:#1f77b4;"/>
   </g>
   <g id="patch_127">
    <path clip-path="url(#p15b4da65ab)" d="M 198.41089 273.312 
L 199.309305 273.312 
L 199.309305 271.016756 
L 198.41089 271.016756 
z
" style="fill:#1f77b4;"/>
   </g>
   <g id="patch_128">
    <path clip-path="url(#p15b4da65ab)" d="M 199.533909 273.312 
L 200.432324 273.312 
L 200.432324 271.016756 
L 199.533909 271.016756 
z
" style="fill:#1f77b4;"/>
   </g>
   <g id="patch_129">
    <path clip-path="url(#p15b4da65ab)" d="M 200.656928 273.312 
L 201.555343 273.312 
L 201.555343 271.016756 
L 200.656928 271.016756 
z
" style="fill:#1f77b4;"/>
   </g>
   <g id="patch_130">
    <path clip-path="url(#p15b4da65ab)" d="M 201.779947 273.312 
L 202.678362 273.312 
L 202.678362 271.039481 
L 201.779947 271.039481 
z
" style="fill:#1f77b4;"/>
   </g>
   <g id="patch_131">
    <path clip-path="url(#p15b4da65ab)" d="M 202.902966 273.312 
L 203.801381 273.312 
L 203.801381 271.062206 
L 202.902966 271.062206 
z
" style="fill:#1f77b4;"/>
   </g>
   <g id="patch_132">
    <path clip-path="url(#p15b4da65ab)" d="M 204.025984 273.312 
L 204.9244 273.312 
L 204.9244 271.130382 
L 204.025984 271.130382 
z
" style="fill:#1f77b4;"/>
   </g>
   <g id="patch_133">
    <path clip-path="url(#p15b4da65ab)" d="M 205.149003 273.312 
L 206.047418 273.312 
L 206.047418 271.289458 
L 205.149003 271.289458 
z
" style="fill:#1f77b4;"/>
   </g>
   <g id="patch_134">
    <path clip-path="url(#p15b4da65ab)" d="M 206.272022 273.312 
L 207.170437 273.312 
L 207.170437 271.425809 
L 206.272022 271.425809 
z
" style="fill:#1f77b4;"/>
   </g>
   <g id="patch_135">
    <path clip-path="url(#p15b4da65ab)" d="M 207.395041 273.312 
L 208.293456 273.312 
L 208.293456 271.334908 
L 207.395041 271.334908 
z
" style="fill:#1f77b4;"/>
   </g>
   <g id="patch_136">
    <path clip-path="url(#p15b4da65ab)" d="M 208.51806 273.312 
L 209.416475 273.312 
L 209.416475 271.221282 
L 208.51806 271.221282 
z
" style="fill:#1f77b4;"/>
   </g>
   <g id="patch_137">
    <path clip-path="url(#p15b4da65ab)" d="M 209.641079 273.312 
L 210.539494 273.312 
L 210.539494 271.175832 
L 209.641079 271.175832 
z
" style="fill:#1f77b4;"/>
   </g>
   <g id="patch_138">
    <path clip-path="url(#p15b4da65ab)" d="M 210.764098 273.312 
L 211.662513 273.312 
L 211.662513 271.380359 
L 210.764098 271.380359 
z
" style="fill:#1f77b4;"/>
   </g>
   <g id="patch_139">
    <path clip-path="url(#p15b4da65ab)" d="M 211.887117 273.312 
L 212.785532 273.312 
L 212.785532 271.357633 
L 211.887117 271.357633 
z
" style="fill:#1f77b4;"/>
   </g>
   <g id="patch_140">
    <path clip-path="url(#p15b4da65ab)" d="M 213.010135 273.312 
L 213.908551 273.312 
L 213.908551 271.221282 
L 213.010135 271.221282 
z
" style="fill:#1f77b4;"/>
   </g>
   <g id="patch_141">
    <path clip-path="url(#p15b4da65ab)" d="M 214.133154 273.312 
L 215.031569 273.312 
L 215.031569 270.99403 
L 214.133154 270.99403 
z
" style="fill:#1f77b4;"/>
   </g>
   <g id="patch_142">
    <path clip-path="url(#p15b4da65ab)" d="M 215.256173 273.312 
L 216.154588 273.312 
L 216.154588 270.880404 
L 215.256173 270.880404 
z
" style="fill:#1f77b4;"/>
   </g>
   <g id="patch_143">
    <path clip-path="url(#p15b4da65ab)" d="M 216.379192 273.312 
L 217.277607 273.312 
L 217.277607 270.880404 
L 216.379192 270.880404 
z
" style="fill:#1f77b4;"/>
   </g>
   <g id="patch_144">
    <path clip-path="url(#p15b4da65ab)" d="M 217.502211 273.312 
L 218.400626 273.312 
L 218.400626 270.766778 
L 217.502211 270.766778 
z
" style="fill:#1f77b4;"/>
   </g>
   <g id="patch_145">
    <path clip-path="url(#p15b4da65ab)" d="M 218.62523 273.312 
L 219.523645 273.312 
L 219.523645 270.607702 
L 218.62523 270.607702 
z
" style="fill:#1f77b4;"/>
   </g>
   <g id="patch_146">
    <path clip-path="url(#p15b4da65ab)" d="M 219.748249 273.312 
L 220.646664 273.312 
L 220.646664 270.675878 
L 219.748249 270.675878 
z
" style="fill:#1f77b4;"/>
   </g>
   <g id="patch_147">
    <path clip-path="url(#p15b4da65ab)" d="M 220.871267 273.312 
L 221.769683 273.312 
L 221.769683 270.494076 
L 220.871267 270.494076 
z
" style="fill:#1f77b4;"/>
   </g>
   <g id="patch_148">
    <path clip-path="url(#p15b4da65ab)" d="M 221.994286 273.312 
L 222.892701 273.312 
L 222.892701 270.403175 
L 221.994286 270.403175 
z
" style="fill:#1f77b4;"/>
   </g>
   <g id="patch_149">
    <path clip-path="url(#p15b4da65ab)" d="M 223.117305 273.312 
L 224.01572 273.312 
L 224.01572 270.516801 
L 223.117305 270.516801 
z
" style="fill:#1f77b4;"/>
   </g>
   <g id="patch_150">
    <path clip-path="url(#p15b4da65ab)" d="M 224.240324 273.312 
L 225.138739 273.312 
L 225.138739 270.403175 
L 224.240324 270.403175 
z
" style="fill:#1f77b4;"/>
   </g>
   <g id="patch_151">
    <path clip-path="url(#p15b4da65ab)" d="M 225.363343 273.312 
L 226.261758 273.312 
L 226.261758 270.403175 
L 225.363343 270.403175 
z
" style="fill:#1f77b4;"/>
   </g>
   <g id="patch_152">
    <path clip-path="url(#p15b4da65ab)" d="M 226.486362 273.312 
L 227.384777 273.312 
L 227.384777 270.403175 
L 226.486362 270.403175 
z
" style="fill:#1f77b4;"/>
   </g>
   <g id="patch_153">
    <path clip-path="url(#p15b4da65ab)" d="M 227.609381 273.312 
L 228.507796 273.312 
L 228.507796 270.357725 
L 227.609381 270.357725 
z
" style="fill:#1f77b4;"/>
   </g>
   <g id="patch_154">
    <path clip-path="url(#p15b4da65ab)" d="M 228.7324 273.312 
L 229.630815 273.312 
L 229.630815 270.539527 
L 228.7324 270.539527 
z
" style="fill:#1f77b4;"/>
   </g>
   <g id="patch_155">
    <path clip-path="url(#p15b4da65ab)" d="M 229.855418 273.312 
L 230.753834 273.312 
L 230.753834 270.516801 
L 229.855418 270.516801 
z
" style="fill:#1f77b4;"/>
   </g>
   <g id="patch_156">
    <path clip-path="url(#p15b4da65ab)" d="M 230.978437 273.312 
L 231.876852 273.312 
L 231.876852 270.448626 
L 230.978437 270.448626 
z
" style="fill:#1f77b4;"/>
   </g>
   <g id="patch_157">
    <path clip-path="url(#p15b4da65ab)" d="M 232.101456 273.312 
L 232.999871 273.312 
L 232.999871 270.38045 
L 232.101456 270.38045 
z
" style="fill:#1f77b4;"/>
   </g>
   <g id="patch_158">
    <path clip-path="url(#p15b4da65ab)" d="M 233.224475 273.312 
L 234.12289 273.312 
L 234.12289 270.425901 
L 233.224475 270.425901 
z
" style="fill:#1f77b4;"/>
   </g>
   <g id="patch_159">
    <path clip-path="url(#p15b4da65ab)" d="M 234.347494 273.312 
L 235.245909 273.312 
L 235.245909 270.425901 
L 234.347494 270.425901 
z
" style="fill:#1f77b4;"/>
   </g>
   <g id="patch_160">
    <path clip-path="url(#p15b4da65ab)" d="M 235.470513 273.312 
L 236.368928 273.312 
L 236.368928 270.539527 
L 235.470513 270.539527 
z
" style="fill:#1f77b4;"/>
   </g>
   <g id="patch_161">
    <path clip-path="url(#p15b4da65ab)" d="M 236.593532 273.312 
L 237.491947 273.312 
L 237.491947 270.153198 
L 236.593532 270.153198 
z
" style="fill:#1f77b4;"/>
   </g>
   <g id="patch_162">
    <path clip-path="url(#p15b4da65ab)" d="M 237.716551 273.312 
L 238.614966 273.312 
L 238.614966 270.107748 
L 237.716551 270.107748 
z
" style="fill:#1f77b4;"/>
   </g>
   <g id="patch_163">
    <path clip-path="url(#p15b4da65ab)" d="M 238.839569 273.312 
L 239.737984 273.312 
L 239.737984 270.085023 
L 238.839569 270.085023 
z
" style="fill:#1f77b4;"/>
   </g>
   <g id="patch_164">
    <path clip-path="url(#p15b4da65ab)" d="M 239.962588 273.312 
L 240.861003 273.312 
L 240.861003 269.744145 
L 239.962588 269.744145 
z
" style="fill:#1f77b4;"/>
   </g>
   <g id="patch_165">
    <path clip-path="url(#p15b4da65ab)" d="M 241.085607 273.312 
L 241.984022 273.312 
L 241.984022 269.403267 
L 241.085607 269.403267 
z
" style="fill:#1f77b4;"/>
   </g>
   <g id="patch_166">
    <path clip-path="url(#p15b4da65ab)" d="M 242.208626 273.312 
L 243.107041 273.312 
L 243.107041 269.244191 
L 242.208626 269.244191 
z
" style="fill:#1f77b4;"/>
   </g>
   <g id="patch_167">
    <path clip-path="url(#p15b4da65ab)" d="M 243.331645 273.312 
L 244.23006 273.312 
L 244.23006 269.266916 
L 243.331645 269.266916 
z
" style="fill:#1f77b4;"/>
   </g>
   <g id="patch_168">
    <path clip-path="url(#p15b4da65ab)" d="M 244.454664 273.312 
L 245.353079 273.312 
L 245.353079 269.107839 
L 244.454664 269.107839 
z
" style="fill:#1f77b4;"/>
   </g>
   <g id="patch_169">
    <path clip-path="url(#p15b4da65ab)" d="M 245.577683 273.312 
L 246.476098 273.312 
L 246.476098 269.016939 
L 245.577683 269.016939 
z
" style="fill:#1f77b4;"/>
   </g>
   <g id="patch_170">
    <path clip-path="url(#p15b4da65ab)" d="M 246.700701 273.312 
L 247.599117 273.312 
L 247.599117 268.994213 
L 246.700701 268.994213 
z
" style="fill:#1f77b4;"/>
   </g>
   <g id="patch_171">
    <path clip-path="url(#p15b4da65ab)" d="M 247.82372 273.312 
L 248.722135 273.312 
L 248.722135 268.994213 
L 247.82372 268.994213 
z
" style="fill:#1f77b4;"/>
   </g>
   <g id="patch_172">
    <path clip-path="url(#p15b4da65ab)" d="M 248.946739 273.312 
L 249.845154 273.312 
L 249.845154 268.994213 
L 248.946739 268.994213 
z
" style="fill:#1f77b4;"/>
   </g>
   <g id="patch_173">
    <path clip-path="url(#p15b4da65ab)" d="M 250.069758 273.312 
L 250.968173 273.312 
L 250.968173 268.744236 
L 250.069758 268.744236 
z
" style="fill:#1f77b4;"/>
   </g>
   <g id="patch_174">
    <path clip-path="url(#p15b4da65ab)" d="M 251.192777 273.312 
L 252.091192 273.312 
L 252.091192 268.63061 
L 251.192777 268.63061 
z
" style="fill:#1f77b4;"/>
   </g>
   <g id="patch_175">
    <path clip-path="url(#p15b4da65ab)" d="M 252.315796 273.312 
L 253.214211 273.312 
L 253.214211 268.63061 
L 252.315796 268.63061 
z
" style="fill:#1f77b4;"/>
   </g>
   <g id="patch_176">
    <path clip-path="url(#p15b4da65ab)" d="M 253.438815 273.312 
L 254.33723 273.312 
L 254.33723 268.562435 
L 253.438815 268.562435 
z
" style="fill:#1f77b4;"/>
   </g>
   <g id="patch_177">
    <path clip-path="url(#p15b4da65ab)" d="M 254.561834 273.312 
L 255.460249 273.312 
L 255.460249 268.357908 
L 254.561834 268.357908 
z
" style="fill:#1f77b4;"/>
   </g>
   <g id="patch_178">
    <path clip-path="url(#p15b4da65ab)" d="M 255.684852 273.312 
L 256.583267 273.312 
L 256.583267 268.357908 
L 255.684852 268.357908 
z
" style="fill:#1f77b4;"/>
   </g>
   <g id="patch_179">
    <path clip-path="url(#p15b4da65ab)" d="M 256.807871 273.312 
L 257.706286 273.312 
L 257.706286 268.426084 
L 256.807871 268.426084 
z
" style="fill:#1f77b4;"/>
   </g>
   <g id="patch_180">
    <path clip-path="url(#p15b4da65ab)" d="M 257.93089 273.312 
L 258.829305 273.312 
L 258.829305 268.357908 
L 257.93089 268.357908 
z
" style="fill:#1f77b4;"/>
   </g>
   <g id="patch_181">
    <path clip-path="url(#p15b4da65ab)" d="M 259.053909 273.312 
L 259.952324 273.312 
L 259.952324 268.244282 
L 259.053909 268.244282 
z
" style="fill:#1f77b4;"/>
   </g>
   <g id="patch_182">
    <path clip-path="url(#p15b4da65ab)" d="M 260.176928 273.312 
L 261.075343 273.312 
L 261.075343 267.880679 
L 260.176928 267.880679 
z
" style="fill:#1f77b4;"/>
   </g>
   <g id="patch_183">
    <path clip-path="url(#p15b4da65ab)" d="M 261.299947 273.312 
L 262.198362 273.312 
L 262.198362 267.517076 
L 261.299947 267.517076 
z
" style="fill:#1f77b4;"/>
   </g>
   <g id="patch_184">
    <path clip-path="url(#p15b4da65ab)" d="M 262.422966 273.312 
L 263.321381 273.312 
L 263.321381 267.267099 
L 262.422966 267.267099 
z
" style="fill:#1f77b4;"/>
   </g>
   <g id="patch_185">
    <path clip-path="url(#p15b4da65ab)" d="M 263.545984 273.312 
L 264.4444 273.312 
L 264.4444 266.585343 
L 263.545984 266.585343 
z
" style="fill:#1f77b4;"/>
   </g>
   <g id="patch_186">
    <path clip-path="url(#p15b4da65ab)" d="M 264.669003 273.312 
L 265.567418 273.312 
L 265.567418 266.426267 
L 264.669003 266.426267 
z
" style="fill:#1f77b4;"/>
   </g>
   <g id="patch_187">
    <path clip-path="url(#p15b4da65ab)" d="M 265.792022 273.312 
L 266.690437 273.312 
L 266.690437 266.039939 
L 265.792022 266.039939 
z
" style="fill:#1f77b4;"/>
   </g>
   <g id="patch_188">
    <path clip-path="url(#p15b4da65ab)" d="M 266.915041 273.312 
L 267.813456 273.312 
L 267.813456 265.971763 
L 266.915041 265.971763 
z
" style="fill:#1f77b4;"/>
   </g>
   <g id="patch_189">
    <path clip-path="url(#p15b4da65ab)" d="M 268.03806 273.312 
L 268.936475 273.312 
L 268.936475 265.903587 
L 268.03806 265.903587 
z
" style="fill:#1f77b4;"/>
   </g>
   <g id="patch_190">
    <path clip-path="url(#p15b4da65ab)" d="M 269.161079 273.312 
L 270.059494 273.312 
L 270.059494 264.562801 
L 269.161079 264.562801 
z
" style="fill:#1f77b4;"/>
   </g>
   <g id="patch_191">
    <path clip-path="url(#p15b4da65ab)" d="M 270.284098 273.312 
L 271.182513 273.312 
L 271.182513 264.108297 
L 270.284098 264.108297 
z
" style="fill:#1f77b4;"/>
   </g>
   <g id="patch_192">
    <path clip-path="url(#p15b4da65ab)" d="M 271.407117 273.312 
L 272.305532 273.312 
L 272.305532 263.721969 
L 271.407117 263.721969 
z
" style="fill:#1f77b4;"/>
   </g>
   <g id="patch_193">
    <path clip-path="url(#p15b4da65ab)" d="M 272.530135 273.312 
L 273.428551 273.312 
L 273.428551 263.312915 
L 272.530135 263.312915 
z
" style="fill:#1f77b4;"/>
   </g>
   <g id="patch_194">
    <path clip-path="url(#p15b4da65ab)" d="M 273.653154 273.312 
L 274.551569 273.312 
L 274.551569 263.131114 
L 273.653154 263.131114 
z
" style="fill:#1f77b4;"/>
   </g>
   <g id="patch_195">
    <path clip-path="url(#p15b4da65ab)" d="M 274.776173 273.312 
L 275.674588 273.312 
L 275.674588 262.653885 
L 274.776173 262.653885 
z
" style="fill:#1f77b4;"/>
   </g>
   <g id="patch_196">
    <path clip-path="url(#p15b4da65ab)" d="M 275.899192 273.312 
L 276.797607 273.312 
L 276.797607 262.290282 
L 275.899192 262.290282 
z
" style="fill:#1f77b4;"/>
   </g>
   <g id="patch_197">
    <path clip-path="url(#p15b4da65ab)" d="M 277.022211 273.312 
L 277.920626 273.312 
L 277.920626 261.631251 
L 277.022211 261.631251 
z
" style="fill:#1f77b4;"/>
   </g>
   <g id="patch_198">
    <path clip-path="url(#p15b4da65ab)" d="M 278.14523 273.312 
L 279.043645 273.312 
L 279.043645 261.040396 
L 278.14523 261.040396 
z
" style="fill:#1f77b4;"/>
   </g>
   <g id="patch_199">
    <path clip-path="url(#p15b4da65ab)" d="M 279.268249 273.312 
L 280.166664 273.312 
L 280.166664 260.88132 
L 279.268249 260.88132 
z
" style="fill:#1f77b4;"/>
   </g>
   <g id="patch_200">
    <path clip-path="url(#p15b4da65ab)" d="M 280.391267 273.312 
L 281.289683 273.312 
L 281.289683 260.585892 
L 280.391267 260.585892 
z
" style="fill:#1f77b4;"/>
   </g>
   <g id="patch_201">
    <path clip-path="url(#p15b4da65ab)" d="M 281.514286 273.312 
L 282.412701 273.312 
L 282.412701 260.449541 
L 281.514286 260.449541 
z
" style="fill:#1f77b4;"/>
   </g>
   <g id="patch_202">
    <path clip-path="url(#p15b4da65ab)" d="M 282.637305 273.312 
L 283.53572 273.312 
L 283.53572 260.563167 
L 282.637305 260.563167 
z
" style="fill:#1f77b4;"/>
   </g>
   <g id="patch_203">
    <path clip-path="url(#p15b4da65ab)" d="M 283.760324 273.312 
L 284.658739 273.312 
L 284.658739 260.085938 
L 283.760324 260.085938 
z
" style="fill:#1f77b4;"/>
   </g>
   <g id="patch_204">
    <path clip-path="url(#p15b4da65ab)" d="M 284.883343 273.312 
L 285.781758 273.312 
L 285.781758 260.017763 
L 284.883343 260.017763 
z
" style="fill:#1f77b4;"/>
   </g>
   <g id="patch_205">
    <path clip-path="url(#p15b4da65ab)" d="M 286.006362 273.312 
L 286.904777 273.312 
L 286.904777 259.585984 
L 286.006362 259.585984 
z
" style="fill:#1f77b4;"/>
   </g>
   <g id="patch_206">
    <path clip-path="url(#p15b4da65ab)" d="M 287.129381 273.312 
L 288.027796 273.312 
L 288.027796 259.313282 
L 287.129381 259.313282 
z
" style="fill:#1f77b4;"/>
   </g>
   <g id="patch_207">
    <path clip-path="url(#p15b4da65ab)" d="M 288.2524 273.312 
L 289.150815 273.312 
L 289.150815 259.063305 
L 288.2524 259.063305 
z
" style="fill:#1f77b4;"/>
   </g>
   <g id="patch_208">
    <path clip-path="url(#p15b4da65ab)" d="M 289.375418 273.312 
L 290.273834 273.312 
L 290.273834 258.995129 
L 289.375418 258.995129 
z
" style="fill:#1f77b4;"/>
   </g>
   <g id="patch_209">
    <path clip-path="url(#p15b4da65ab)" d="M 290.498437 273.312 
L 291.396852 273.312 
L 291.396852 258.154297 
L 290.498437 258.154297 
z
" style="fill:#1f77b4;"/>
   </g>
   <g id="patch_210">
    <path clip-path="url(#p15b4da65ab)" d="M 291.621456 273.312 
L 292.519871 273.312 
L 292.519871 256.813511 
L 291.621456 256.813511 
z
" style="fill:#1f77b4;"/>
   </g>
   <g id="patch_211">
    <path clip-path="url(#p15b4da65ab)" d="M 292.744475 273.312 
L 293.64289 273.312 
L 293.64289 255.200022 
L 292.744475 255.200022 
z
" style="fill:#1f77b4;"/>
   </g>
   <g id="patch_212">
    <path clip-path="url(#p15b4da65ab)" d="M 293.867494 273.312 
L 294.765909 273.312 
L 294.765909 253.472907 
L 293.867494 253.472907 
z
" style="fill:#1f77b4;"/>
   </g>
   <g id="patch_213">
    <path clip-path="url(#p15b4da65ab)" d="M 294.990513 273.312 
L 295.888928 273.312 
L 295.888928 251.950319 
L 294.990513 251.950319 
z
" style="fill:#1f77b4;"/>
   </g>
   <g id="patch_214">
    <path clip-path="url(#p15b4da65ab)" d="M 296.113532 273.312 
L 297.011947 273.312 
L 297.011947 251.200388 
L 296.113532 251.200388 
z
" style="fill:#1f77b4;"/>
   </g>
   <g id="patch_215">
    <path clip-path="url(#p15b4da65ab)" d="M 297.236551 273.312 
L 298.134966 273.312 
L 298.134966 250.723159 
L 297.236551 250.723159 
z
" style="fill:#1f77b4;"/>
   </g>
   <g id="patch_216">
    <path clip-path="url(#p15b4da65ab)" d="M 298.359569 273.312 
L 299.257984 273.312 
L 299.257984 247.905235 
L 298.359569 247.905235 
z
" style="fill:#1f77b4;"/>
   </g>
   <g id="patch_217">
    <path clip-path="url(#p15b4da65ab)" d="M 299.482588 273.312 
L 300.381003 273.312 
L 300.381003 246.200846 
L 299.482588 246.200846 
z
" style="fill:#1f77b4;"/>
   </g>
   <g id="patch_218">
    <path clip-path="url(#p15b4da65ab)" d="M 300.605607 273.312 
L 301.504022 273.312 
L 301.504022 243.701075 
L 300.605607 243.701075 
z
" style="fill:#1f77b4;"/>
   </g>
   <g id="patch_219">
    <path clip-path="url(#p15b4da65ab)" d="M 301.728626 273.312 
L 302.627041 273.312 
L 302.627041 240.496823 
L 301.728626 240.496823 
z
" style="fill:#1f77b4;"/>
   </g>
   <g id="patch_220">
    <path clip-path="url(#p15b4da65ab)" d="M 302.851645 273.312 
L 303.75006 273.312 
L 303.75006 236.792616 
L 302.851645 236.792616 
z
" style="fill:#1f77b4;"/>
   </g>
   <g id="patch_221">
    <path clip-path="url(#p15b4da65ab)" d="M 303.974664 273.312 
L 304.873079 273.312 
L 304.873079 234.906425 
L 303.974664 234.906425 
z
" style="fill:#1f77b4;"/>
   </g>
   <g id="patch_222">
    <path clip-path="url(#p15b4da65ab)" d="M 305.097683 273.312 
L 305.996098 273.312 
L 305.996098 230.247761 
L 305.097683 230.247761 
z
" style="fill:#1f77b4;"/>
   </g>
   <g id="patch_223">
    <path clip-path="url(#p15b4da65ab)" d="M 306.220701 273.312 
L 307.119117 273.312 
L 307.119117 226.0436 
L 306.220701 226.0436 
z
" style="fill:#1f77b4;"/>
   </g>
   <g id="patch_224">
    <path clip-path="url(#p15b4da65ab)" d="M 307.34372 273.312 
L 308.242135 273.312 
L 308.242135 220.635005 
L 307.34372 220.635005 
z
" style="fill:#1f77b4;"/>
   </g>
   <g id="patch_225">
    <path clip-path="url(#p15b4da65ab)" d="M 308.466739 273.312 
L 309.365154 273.312 
L 309.365154 214.635554 
L 308.466739 214.635554 
z
" style="fill:#1f77b4;"/>
   </g>
   <g id="patch_226">
    <path clip-path="url(#p15b4da65ab)" d="M 309.589758 273.312 
L 310.488173 273.312 
L 310.488173 208.408851 
L 309.589758 208.408851 
z
" style="fill:#1f77b4;"/>
   </g>
   <g id="patch_227">
    <path clip-path="url(#p15b4da65ab)" d="M 310.712777 273.312 
L 311.611192 273.312 
L 311.611192 200.886813 
L 310.712777 200.886813 
z
" style="fill:#1f77b4;"/>
   </g>
   <g id="patch_228">
    <path clip-path="url(#p15b4da65ab)" d="M 311.835796 273.312 
L 312.734211 273.312 
L 312.734211 193.751102 
L 311.835796 193.751102 
z
" style="fill:#1f77b4;"/>
   </g>
   <g id="patch_229">
    <path clip-path="url(#p15b4da65ab)" d="M 312.958815 273.312 
L 313.85723 273.312 
L 313.85723 188.365232 
L 312.958815 188.365232 
z
" style="fill:#1f77b4;"/>
   </g>
   <g id="patch_230">
    <path clip-path="url(#p15b4da65ab)" d="M 314.081834 273.312 
L 314.980249 273.312 
L 314.980249 184.206522 
L 314.081834 184.206522 
z
" style="fill:#1f77b4;"/>
   </g>
   <g id="patch_231">
    <path clip-path="url(#p15b4da65ab)" d="M 315.204852 273.312 
L 316.103267 273.312 
L 316.103267 177.479865 
L 315.204852 177.479865 
z
" style="fill:#1f77b4;"/>
   </g>
   <g id="patch_232">
    <path clip-path="url(#p15b4da65ab)" d="M 316.327871 273.312 
L 317.226286 273.312 
L 317.226286 169.662399 
L 316.327871 169.662399 
z
" style="fill:#1f77b4;"/>
   </g>
   <g id="patch_233">
    <path clip-path="url(#p15b4da65ab)" d="M 317.45089 273.312 
L 318.349305 273.312 
L 318.349305 157.41352 
L 317.45089 157.41352 
z
" style="fill:#1f77b4;"/>
   </g>
   <g id="patch_234">
    <path clip-path="url(#p15b4da65ab)" d="M 318.573909 273.312 
L 319.472324 273.312 
L 319.472324 145.346443 
L 318.573909 145.346443 
z
" style="fill:#1f77b4;"/>
   </g>
   <g id="patch_235">
    <path clip-path="url(#p15b4da65ab)" d="M 319.696928 273.312 
L 320.595343 273.312 
L 320.595343 135.597336 
L 319.696928 135.597336 
z
" style="fill:#1f77b4;"/>
   </g>
   <g id="patch_236">
    <path clip-path="url(#p15b4da65ab)" d="M 320.819947 273.312 
L 321.718362 273.312 
L 321.718362 124.416541 
L 320.819947 124.416541 
z
" style="fill:#1f77b4;"/>
   </g>
   <g id="patch_237">
    <path clip-path="url(#p15b4da65ab)" d="M 321.942966 273.312 
L 322.841381 273.312 
L 322.841381 118.871594 
L 321.942966 118.871594 
z
" style="fill:#1f77b4;"/>
   </g>
   <g id="patch_238">
    <path clip-path="url(#p15b4da65ab)" d="M 323.065984 273.312 
L 323.9644 273.312 
L 323.9644 101.78225 
L 323.065984 101.78225 
z
" style="fill:#1f77b4;"/>
   </g>
   <g id="patch_239">
    <path clip-path="url(#p15b4da65ab)" d="M 324.189003 273.312 
L 325.087418 273.312 
L 325.087418 113.213021 
L 324.189003 113.213021 
z
" style="fill:#1f77b4;"/>
   </g>
   <g id="patch_240">
    <path clip-path="url(#p15b4da65ab)" d="M 325.312022 273.312 
L 326.210437 273.312 
L 326.210437 103.327563 
L 325.312022 103.327563 
z
" style="fill:#1f77b4;"/>
   </g>
   <g id="patch_241">
    <path clip-path="url(#p15b4da65ab)" d="M 326.435041 273.312 
L 327.333456 273.312 
L 327.333456 91.80589 
L 326.435041 91.80589 
z
" style="fill:#1f77b4;"/>
   </g>
   <g id="patch_242">
    <path clip-path="url(#p15b4da65ab)" d="M 327.55806 273.312 
L 328.456475 273.312 
L 328.456475 82.102233 
L 327.55806 82.102233 
z
" style="fill:#1f77b4;"/>
   </g>
   <g id="patch_243">
    <path clip-path="url(#p15b4da65ab)" d="M 328.681079 273.312 
L 329.579494 273.312 
L 329.579494 76.44366 
L 328.681079 76.44366 
z
" style="fill:#1f77b4;"/>
   </g>
   <g id="patch_244">
    <path clip-path="url(#p15b4da65ab)" d="M 329.804098 273.312 
L 330.702513 273.312 
L 330.702513 71.398668 
L 329.804098 71.398668 
z
" style="fill:#1f77b4;"/>
   </g>
   <g id="patch_245">
    <path clip-path="url(#p15b4da65ab)" d="M 330.927117 273.312 
L 331.825532 273.312 
L 331.825532 63.444851 
L 330.927117 63.444851 
z
" style="fill:#1f77b4;"/>
   </g>
   <g id="patch_246">
    <path clip-path="url(#p15b4da65ab)" d="M 332.050135 273.312 
L 332.948551 273.312 
L 332.948551 52.559484 
L 332.050135 52.559484 
z
" style="fill:#1f77b4;"/>
   </g>
   <g id="patch_247">
    <path clip-path="url(#p15b4da65ab)" d="M 333.173154 273.312 
L 334.071569 273.312 
L 334.071569 44.719292 
L 333.173154 44.719292 
z
" style="fill:#1f77b4;"/>
   </g>
   <g id="patch_248">
    <path clip-path="url(#p15b4da65ab)" d="M 334.296173 273.312 
L 335.194588 273.312 
L 335.194588 39.469773 
L 334.296173 39.469773 
z
" style="fill:#1f77b4;"/>
   </g>
   <g id="patch_249">
    <path clip-path="url(#p15b4da65ab)" d="M 335.419192 273.312 
L 336.317607 273.312 
L 336.317607 33.152169 
L 335.419192 33.152169 
z
" style="fill:#1f77b4;"/>
   </g>
   <g id="patch_250">
    <path clip-path="url(#p15b4da65ab)" d="M 336.542211 273.312 
L 337.440626 273.312 
L 337.440626 30.129719 
L 336.542211 30.129719 
z
" style="fill:#1f77b4;"/>
   </g>
   <g id="patch_251">
    <path clip-path="url(#p15b4da65ab)" d="M 337.66523 273.312 
L 338.563645 273.312 
L 338.563645 25.58468 
L 337.66523 25.58468 
z
" style="fill:#1f77b4;"/>
   </g>
   <g id="patch_252">
    <path clip-path="url(#p15b4da65ab)" d="M 338.788249 273.312 
L 339.686664 273.312 
L 339.686664 18.698947 
L 338.788249 18.698947 
z
" style="fill:#1f77b4;"/>
   </g>
   <g id="patch_253">
    <path clip-path="url(#p15b4da65ab)" d="M 339.911267 273.312 
L 340.809683 273.312 
L 340.809683 11.722313 
L 339.911267 11.722313 
z
" style="fill:#1f77b4;"/>
   </g>
   <g id="patch_254">
    <path clip-path="url(#p15b4da65ab)" d="M 341.034286 273.312 
L 341.932701 273.312 
L 341.932701 7.995382 
L 341.034286 7.995382 
z
" style="fill:#1f77b4;"/>
   </g>
   <g id="patch_255">
    <path clip-path="url(#p15b4da65ab)" d="M 342.157305 273.312 
L 343.05572 273.312 
L 343.05572 9.154367 
L 342.157305 9.154367 
z
" style="fill:#1f77b4;"/>
   </g>
   <g id="patch_256">
    <path clip-path="url(#p15b4da65ab)" d="M 343.280324 273.312 
L 344.178739 273.312 
L 344.178739 9.358893 
L 343.280324 9.358893 
z
" style="fill:#1f77b4;"/>
   </g>
   <g id="patch_257">
    <path clip-path="url(#p15b4da65ab)" d="M 344.403343 273.312 
L 345.301758 273.312 
L 345.301758 8.42716 
L 344.403343 8.42716 
z
" style="fill:#1f77b4;"/>
   </g>
   <g id="patch_258">
    <path clip-path="url(#p15b4da65ab)" d="M 345.526362 273.312 
L 346.424777 273.312 
L 346.424777 9.699771 
L 345.526362 9.699771 
z
" style="fill:#1f77b4;"/>
   </g>
   <g id="patch_259">
    <path clip-path="url(#p15b4da65ab)" d="M 346.649381 273.312 
L 347.547796 273.312 
L 347.547796 13.10855 
L 346.649381 13.10855 
z
" style="fill:#1f77b4;"/>
   </g>
   <g id="patch_260">
    <path clip-path="url(#p15b4da65ab)" d="M 347.7724 273.312 
L 348.670815 273.312 
L 348.670815 12.358619 
L 347.7724 12.358619 
z
" style="fill:#1f77b4;"/>
   </g>
   <g id="patch_261">
    <path clip-path="url(#p15b4da65ab)" d="M 348.895418 273.312 
L 349.793834 273.312 
L 349.793834 10.654229 
L 348.895418 10.654229 
z
" style="fill:#1f77b4;"/>
   </g>
   <g id="patch_262">
    <path clip-path="url(#p15b4da65ab)" d="M 350.018437 273.312 
L 350.916852 273.312 
L 350.916852 15.676497 
L 350.018437 15.676497 
z
" style="fill:#1f77b4;"/>
   </g>
   <g id="patch_263">
    <path clip-path="url(#p15b4da65ab)" d="M 351.141456 273.312 
L 352.039871 273.312 
L 352.039871 16.017375 
L 351.141456 16.017375 
z
" style="fill:#1f77b4;"/>
   </g>
   <g id="patch_264">
    <path clip-path="url(#p15b4da65ab)" d="M 352.264475 273.312 
L 353.16289 273.312 
L 353.16289 16.562779 
L 352.264475 16.562779 
z
" style="fill:#1f77b4;"/>
   </g>
   <g id="patch_265">
    <path clip-path="url(#p15b4da65ab)" d="M 353.387494 273.312 
L 354.285909 273.312 
L 354.285909 15.858298 
L 353.387494 15.858298 
z
" style="fill:#1f77b4;"/>
   </g>
   <g id="patch_266">
    <path clip-path="url(#p15b4da65ab)" d="M 354.510513 273.312 
L 355.408928 273.312 
L 355.408928 18.44897 
L 354.510513 18.44897 
z
" style="fill:#1f77b4;"/>
   </g>
   <g id="patch_267">
    <path clip-path="url(#p15b4da65ab)" d="M 355.633532 273.312 
L 356.531947 273.312 
L 356.531947 19.108001 
L 355.633532 19.108001 
z
" style="fill:#1f77b4;"/>
   </g>
   <g id="patch_268">
    <path clip-path="url(#p15b4da65ab)" d="M 356.756551 273.312 
L 357.654966 273.312 
L 357.654966 20.789665 
L 356.756551 20.789665 
z
" style="fill:#1f77b4;"/>
   </g>
   <g id="patch_269">
    <path clip-path="url(#p15b4da65ab)" d="M 357.879569 273.312 
L 358.777984 273.312 
L 358.777984 25.130177 
L 357.879569 25.130177 
z
" style="fill:#1f77b4;"/>
   </g>
   <g id="patch_270">
    <path clip-path="url(#p15b4da65ab)" d="M 359.002588 273.312 
L 359.901003 273.312 
L 359.901003 25.221077 
L 359.002588 25.221077 
z
" style="fill:#1f77b4;"/>
   </g>
   <g id="patch_271">
    <path clip-path="url(#p15b4da65ab)" d="M 360.125607 273.312 
L 361.024022 273.312 
L 361.024022 25.993734 
L 360.125607 25.993734 
z
" style="fill:#1f77b4;"/>
   </g>
   <g id="patch_272">
    <path clip-path="url(#p15b4da65ab)" d="M 361.248626 273.312 
L 362.147041 273.312 
L 362.147041 25.971009 
L 361.248626 25.971009 
z
" style="fill:#1f77b4;"/>
   </g>
   <g id="patch_273">
    <path clip-path="url(#p15b4da65ab)" d="M 362.371645 273.312 
L 363.27006 273.312 
L 363.27006 29.675215 
L 362.371645 29.675215 
z
" style="fill:#1f77b4;"/>
   </g>
   <g id="patch_274">
    <path clip-path="url(#p15b4da65ab)" d="M 363.494664 273.312 
L 364.393079 273.312 
L 364.393079 31.265978 
L 363.494664 31.265978 
z
" style="fill:#1f77b4;"/>
   </g>
   <g id="patch_275">
    <path clip-path="url(#p15b4da65ab)" d="M 364.617683 273.312 
L 365.516098 273.312 
L 365.516098 31.925009 
L 364.617683 31.925009 
z
" style="fill:#1f77b4;"/>
   </g>
   <g id="patch_276">
    <path clip-path="url(#p15b4da65ab)" d="M 365.740701 273.312 
L 366.639117 273.312 
L 366.639117 32.447688 
L 365.740701 32.447688 
z
" style="fill:#1f77b4;"/>
   </g>
   <g id="patch_277">
    <path clip-path="url(#p15b4da65ab)" d="M 366.86372 273.312 
L 367.762135 273.312 
L 367.762135 32.129536 
L 366.86372 32.129536 
z
" style="fill:#1f77b4;"/>
   </g>
   <g id="patch_278">
    <path clip-path="url(#p15b4da65ab)" d="M 367.986739 273.312 
L 368.885154 273.312 
L 368.885154 31.743208 
L 367.986739 31.743208 
z
" style="fill:#1f77b4;"/>
   </g>
   <g id="patch_279">
    <path clip-path="url(#p15b4da65ab)" d="M 369.109758 273.312 
L 370.008173 273.312 
L 370.008173 31.197803 
L 369.109758 31.197803 
z
" style="fill:#1f77b4;"/>
   </g>
   <g id="patch_280">
    <path clip-path="url(#p15b4da65ab)" d="M 370.232777 273.312 
L 371.131192 273.312 
L 371.131192 29.879742 
L 370.232777 29.879742 
z
" style="fill:#1f77b4;"/>
   </g>
   <g id="patch_281">
    <path clip-path="url(#p15b4da65ab)" d="M 371.355796 273.312 
L 372.254211 273.312 
L 372.254211 29.175261 
L 371.355796 29.175261 
z
" style="fill:#1f77b4;"/>
   </g>
   <g id="patch_282">
    <path clip-path="url(#p15b4da65ab)" d="M 372.478815 273.312 
L 373.37723 273.312 
L 373.37723 27.652673 
L 372.478815 27.652673 
z
" style="fill:#1f77b4;"/>
   </g>
   <g id="patch_283">
    <path clip-path="url(#p15b4da65ab)" d="M 373.601834 273.312 
L 374.500249 273.312 
L 374.500249 59.922446 
L 373.601834 59.922446 
z
" style="fill:#1f77b4;"/>
   </g>
   <g id="patch_284">
    <path clip-path="url(#p15b4da65ab)" d="M 374.724852 273.312 
L 375.623267 273.312 
L 375.623267 27.084543 
L 374.724852 27.084543 
z
" style="fill:#1f77b4;"/>
   </g>
   <g id="patch_285">
    <path clip-path="url(#p15b4da65ab)" d="M 375.847871 273.312 
L 376.746286 273.312 
L 376.746286 26.834566 
L 375.847871 26.834566 
z
" style="fill:#1f77b4;"/>
   </g>
   <g id="patch_286">
    <path clip-path="url(#p15b4da65ab)" d="M 376.97089 273.312 
L 377.869305 273.312 
L 377.869305 29.947917 
L 376.97089 29.947917 
z
" style="fill:#1f77b4;"/>
   </g>
   <g id="patch_287">
    <path clip-path="url(#p15b4da65ab)" d="M 378.093909 273.312 
L 378.992324 273.312 
L 378.992324 32.243162 
L 378.093909 32.243162 
z
" style="fill:#1f77b4;"/>
   </g>
   <g id="patch_288">
    <path clip-path="url(#p15b4da65ab)" d="M 379.216928 273.312 
L 380.115343 273.312 
L 380.115343 33.24307 
L 379.216928 33.24307 
z
" style="fill:#1f77b4;"/>
   </g>
   <g id="patch_289">
    <path clip-path="url(#p15b4da65ab)" d="M 380.339947 273.312 
L 381.238362 273.312 
L 381.238362 33.19762 
L 380.339947 33.19762 
z
" style="fill:#1f77b4;"/>
   </g>
   <g id="patch_290">
    <path clip-path="url(#p15b4da65ab)" d="M 381.462966 273.312 
L 382.361381 273.312 
L 382.361381 32.879467 
L 381.462966 32.879467 
z
" style="fill:#1f77b4;"/>
   </g>
   <g id="patch_291">
    <path clip-path="url(#p15b4da65ab)" d="M 382.585984 273.312 
L 383.4844 273.312 
L 383.4844 32.265887 
L 382.585984 32.265887 
z
" style="fill:#1f77b4;"/>
   </g>
   <g id="patch_292">
    <path clip-path="url(#p15b4da65ab)" d="M 383.709003 273.312 
L 384.607418 273.312 
L 384.607418 30.652398 
L 383.709003 30.652398 
z
" style="fill:#1f77b4;"/>
   </g>
   <g id="patch_293">
    <path clip-path="url(#p15b4da65ab)" d="M 384.832022 273.312 
L 385.730437 273.312 
L 385.730437 32.379513 
L 384.832022 32.379513 
z
" style="fill:#1f77b4;"/>
   </g>
   <g id="patch_294">
    <path clip-path="url(#p15b4da65ab)" d="M 385.955041 273.312 
L 386.853456 273.312 
L 386.853456 30.856925 
L 385.955041 30.856925 
z
" style="fill:#1f77b4;"/>
   </g>
   <g id="patch_295">
    <path clip-path="url(#p15b4da65ab)" d="M 387.07806 273.312 
L 387.976475 273.312 
L 387.976475 28.039001 
L 387.07806 28.039001 
z
" style="fill:#1f77b4;"/>
   </g>
   <g id="patch_296">
    <path clip-path="url(#p15b4da65ab)" d="M 388.201079 273.312 
L 389.099494 273.312 
L 389.099494 27.016368 
L 388.201079 27.016368 
z
" style="fill:#1f77b4;"/>
   </g>
   <g id="patch_297">
    <path clip-path="url(#p15b4da65ab)" d="M 389.324098 273.312 
L 390.222513 273.312 
L 390.222513 26.743665 
L 389.324098 26.743665 
z
" style="fill:#1f77b4;"/>
   </g>
   <g id="patch_298">
    <path clip-path="url(#p15b4da65ab)" d="M 390.447117 273.312 
L 391.345532 273.312 
L 391.345532 27.33452 
L 390.447117 27.33452 
z
" style="fill:#1f77b4;"/>
   </g>
   <g id="patch_299">
    <path clip-path="url(#p15b4da65ab)" d="M 391.570135 273.312 
L 392.468551 273.312 
L 392.468551 25.311978 
L 391.570135 25.311978 
z
" style="fill:#1f77b4;"/>
   </g>
   <g id="patch_300">
    <path clip-path="url(#p15b4da65ab)" d="M 392.693154 273.312 
L 393.591569 273.312 
L 393.591569 20.948741 
L 392.693154 20.948741 
z
" style="fill:#1f77b4;"/>
   </g>
   <g id="patch_301">
    <path clip-path="url(#p15b4da65ab)" d="M 393.816173 273.312 
L 394.714588 273.312 
L 394.714588 17.630863 
L 393.816173 17.630863 
z
" style="fill:#1f77b4;"/>
   </g>
   <g id="patch_302">
    <path clip-path="url(#p15b4da65ab)" d="M 394.939192 273.312 
L 395.837607 273.312 
L 395.837607 15.358344 
L 394.939192 15.358344 
z
" style="fill:#1f77b4;"/>
   </g>
   <g id="patch_303">
    <path clip-path="url(#p15b4da65ab)" d="M 396.062211 273.312 
L 396.960626 273.312 
L 396.960626 11.449611 
L 396.062211 11.449611 
z
" style="fill:#1f77b4;"/>
   </g>
   <g id="patch_304">
    <path clip-path="url(#p15b4da65ab)" d="M 397.18523 273.312 
L 398.083645 273.312 
L 398.083645 8.33626 
L 397.18523 8.33626 
z
" style="fill:#1f77b4;"/>
   </g>
   <g id="patch_305">
    <path clip-path="url(#p15b4da65ab)" d="M 398.308249 273.312 
L 399.206664 273.312 
L 399.206664 7.2 
L 398.308249 7.2 
z
" style="fill:#1f77b4;"/>
   </g>
   <g id="patch_306">
    <path clip-path="url(#p15b4da65ab)" d="M 399.431267 273.312 
L 400.329683 273.312 
L 400.329683 7.518153 
L 399.431267 7.518153 
z
" style="fill:#1f77b4;"/>
   </g>
   <g id="patch_307">
    <path clip-path="url(#p15b4da65ab)" d="M 400.554286 273.312 
L 401.452701 273.312 
L 401.452701 7.995382 
L 400.554286 7.995382 
z
" style="fill:#1f77b4;"/>
   </g>
   <g id="patch_308">
    <path clip-path="url(#p15b4da65ab)" d="M 401.677305 273.312 
L 402.57572 273.312 
L 402.57572 9.586145 
L 401.677305 9.586145 
z
" style="fill:#1f77b4;"/>
   </g>
   <g id="patch_309">
    <path clip-path="url(#p15b4da65ab)" d="M 402.800324 273.312 
L 403.698739 273.312 
L 403.698739 9.631596 
L 402.800324 9.631596 
z
" style="fill:#1f77b4;"/>
   </g>
   <g id="patch_310">
    <path clip-path="url(#p15b4da65ab)" d="M 403.923343 273.312 
L 404.821758 273.312 
L 404.821758 10.154275 
L 403.923343 10.154275 
z
" style="fill:#1f77b4;"/>
   </g>
   <g id="patch_311">
    <path clip-path="url(#p15b4da65ab)" d="M 405.046362 273.312 
L 405.944777 273.312 
L 405.944777 12.585871 
L 405.046362 12.585871 
z
" style="fill:#1f77b4;"/>
   </g>
   <g id="patch_312">
    <path clip-path="url(#p15b4da65ab)" d="M 406.169381 273.312 
L 407.067796 273.312 
L 407.067796 13.472153 
L 406.169381 13.472153 
z
" style="fill:#1f77b4;"/>
   </g>
   <g id="patch_313">
    <path clip-path="url(#p15b4da65ab)" d="M 407.2924 273.312 
L 408.190815 273.312 
L 408.190815 13.154 
L 407.2924 13.154 
z
" style="fill:#1f77b4;"/>
   </g>
   <g id="patch_314">
    <path clip-path="url(#p15b4da65ab)" d="M 408.415418 273.312 
L 409.313834 273.312 
L 409.313834 16.880932 
L 408.415418 16.880932 
z
" style="fill:#1f77b4;"/>
   </g>
   <g id="patch_315">
    <path clip-path="url(#p15b4da65ab)" d="M 409.538437 273.312 
L 410.436852 273.312 
L 410.436852 16.949107 
L 409.538437 16.949107 
z
" style="fill:#1f77b4;"/>
   </g>
   <g id="patch_316">
    <path clip-path="url(#p15b4da65ab)" d="M 410.661456 273.312 
L 411.559871 273.312 
L 411.559871 17.312711 
L 410.661456 17.312711 
z
" style="fill:#1f77b4;"/>
   </g>
   <g id="patch_317">
    <path clip-path="url(#p15b4da65ab)" d="M 411.784475 273.312 
L 412.68289 273.312 
L 412.68289 16.403703 
L 411.784475 16.403703 
z
" style="fill:#1f77b4;"/>
   </g>
   <g id="patch_318">
    <path clip-path="url(#p15b4da65ab)" d="M 412.907494 273.312 
L 413.805909 273.312 
L 413.805909 17.244535 
L 412.907494 17.244535 
z
" style="fill:#1f77b4;"/>
   </g>
   <g id="patch_319">
    <path clip-path="url(#p15b4da65ab)" d="M 414.030513 273.312 
L 414.928928 273.312 
L 414.928928 17.085459 
L 414.030513 17.085459 
z
" style="fill:#1f77b4;"/>
   </g>
   <g id="patch_320">
    <path clip-path="url(#p15b4da65ab)" d="M 415.153532 273.312 
L 416.051947 273.312 
L 416.051947 18.062642 
L 415.153532 18.062642 
z
" style="fill:#1f77b4;"/>
   </g>
   <g id="matplotlib.axis_1">
    <g id="xtick_1">
     <g id="line2d_1">
      <defs>
       <path d="M 0 0 
L 0 3.5 
" id="me27919b722" style="stroke:#000000;stroke-width:0.8;"/>
      </defs>
      <g>
       <use style="stroke:#000000;stroke-width:0.8;" x="78.697079" xlink:href="#me27919b722" y="273.312"/>
      </g>
     </g>
     <g id="text_1">
      <!-- 2020-04 -->
      <g transform="translate(80.856492 313.517436)rotate(-90)scale(0.1 -0.1)">
       <defs>
        <path d="M 1.59375 2.5 
L 1.59375 0 
C 20.296875 0 20.296875 0 23.90625 0 
C 27.5 0 27.5 0 46.796875 0 
C 46.59375 1.953125 46.59375 2.90625 46.59375 4.203125 
C 46.59375 5.4375 46.59375 6.359375 46.796875 8.421875 
C 35.296875 8.421875 30.703125 8.421875 12.203125 8.421875 
L 30.40625 27.515625 
C 40.09375 37.71875 43.09375 43.171875 43.09375 50.59375 
C 43.09375 61.96875 35.296875 69 22.59375 69 
C 15.40625 69 10.5 67 5.59375 62.015625 
L 3.90625 48.421875 
L 6.796875 48.421875 
L 8.09375 53.015625 
C 9.703125 58.796875 13.296875 61.296875 20 61.296875 
C 28.59375 61.296875 34.09375 55.890625 34.09375 47.421875 
C 34.09375 39.921875 29.90625 32.546875 18.59375 20.5625 
z
" id="URW_Palladio_L_Roman-50"/>
        <path d="M 26.296875 69 
C 10.796875 69 2.90625 56.6875 2.90625 32.453125 
C 2.90625 20.71875 5 10.625 8.5 5.71875 
C 12 0.796875 17.59375 -2 23.796875 -2 
C 38.90625 -2 46.5 11.015625 46.5 36.65625 
C 46.5 58.578125 40 69 26.296875 69 
z
M 24.5 65.5 
C 34.203125 65.5 38.09375 55.6875 38.09375 31.640625 
C 38.09375 10.328125 34.296875 1.5 25.09375 1.5 
C 15.40625 1.5 11.296875 11.625 11.296875 36.0625 
C 11.296875 57.1875 15 65.5 24.5 65.5 
z
" id="URW_Palladio_L_Roman-48"/>
        <path d="M 28.203125 22 
L 31.203125 28.703125 
L 30.703125 29.203125 
L 4.40625 29.203125 
L 1.703125 22.5 
L 2.203125 22 
z
" id="URW_Palladio_L_Roman-45"/>
        <path d="M 28 18 
L 28 10.515625 
C 28 4.515625 26.90625 3.109375 22 3.109375 
L 15.796875 3.109375 
L 15.796875 0 
C 29.09375 0 29.09375 0 31.5 0 
C 33.90625 0 33.90625 0 47.203125 0 
L 47.203125 3.109375 
L 42.40625 3.109375 
C 37.5 3.109375 36.40625 4.40625 36.40625 10.453125 
L 36.40625 18 
C 42.296875 18 44.40625 18 47.203125 17.703125 
L 47.203125 24.8125 
C 42.5 24.421875 40.59375 24.421875 39.09375 24.421875 
L 38.796875 24.421875 
L 36.40625 24.421875 
L 36.40625 38.390625 
C 36.40625 56.25 36.59375 64.875 37.09375 69 
L 35.90625 69.5 
L 28.5 66.796875 
L 0.203125 20.296875 
L 1.296875 18 
z
M 28 24.421875 
L 6.5 24.421875 
L 28 59.78125 
z
" id="URW_Palladio_L_Roman-52"/>
       </defs>
       <use transform="scale(0.996264)" xlink:href="#URW_Palladio_L_Roman-50"/>
       <use transform="translate(49.8132 0)scale(0.996264)" xlink:href="#URW_Palladio_L_Roman-48"/>
       <use transform="translate(99.626401 0)scale(0.996264)" xlink:href="#URW_Palladio_L_Roman-50"/>
       <use transform="translate(149.439601 0)scale(0.996264)" xlink:href="#URW_Palladio_L_Roman-48"/>
       <use transform="translate(199.252802 0)scale(0.996264)" xlink:href="#URW_Palladio_L_Roman-45"/>
       <use transform="translate(232.428032 0)scale(0.996264)" xlink:href="#URW_Palladio_L_Roman-48"/>
       <use transform="translate(282.241232 0)scale(0.996264)" xlink:href="#URW_Palladio_L_Roman-52"/>
      </g>
     </g>
    </g>
    <g id="xtick_2">
     <g id="line2d_2">
      <g>
       <use style="stroke:#000000;stroke-width:0.8;" x="112.387645" xlink:href="#me27919b722" y="273.312"/>
      </g>
     </g>
     <g id="text_2">
      <!-- 2020-05 -->
      <g transform="translate(114.547058 313.517436)rotate(-90)scale(0.1 -0.1)">
       <defs>
        <path d="M 12.703125 60.578125 
C 25.59375 60.578125 31.203125 60.578125 43.203125 60.578125 
L 43.703125 61.046875 
C 43.5 62.75 43.5 63.5 43.5 64.75 
C 43.5 66.078125 43.5 66.828125 43.703125 68.53125 
L 43.203125 69 
C 35.703125 69 31.203125 69 25.796875 69 
C 20.296875 69 15.90625 69 8.40625 69 
L 7.90625 68.796875 
C 8 62.671875 8.09375 58.265625 8.09375 55.046875 
C 8.09375 46.515625 7.796875 36.875 7.5 32.453125 
L 9.5 31.84375 
C 14.203125 36.578125 16.90625 38 21.796875 38 
C 31.40625 38 37.40625 31.140625 37.40625 20.25 
C 37.40625 9.0625 31 2.5 20.09375 2.5 
C 14.703125 2.5 9.703125 4.328125 8.296875 6.9375 
L 3.703125 15.203125 
L 1.296875 13.796875 
C 3.59375 8.0625 4.796875 4.84375 6.203125 0.421875 
C 9 -1.109375 13 -2 17.296875 -2 
C 24 -2 31.09375 0.921875 36.59375 5.75 
C 42.703125 11.1875 45.90625 18.03125 45.90625 25.46875 
C 45.90625 36.859375 37.796875 44.90625 26.40625 44.90625 
C 21.59375 44.90625 18 43.609375 11.796875 39.90625 
z
" id="URW_Palladio_L_Roman-53"/>
       </defs>
       <use transform="scale(0.996264)" xlink:href="#URW_Palladio_L_Roman-50"/>
       <use transform="translate(49.8132 0)scale(0.996264)" xlink:href="#URW_Palladio_L_Roman-48"/>
       <use transform="translate(99.626401 0)scale(0.996264)" xlink:href="#URW_Palladio_L_Roman-50"/>
       <use transform="translate(149.439601 0)scale(0.996264)" xlink:href="#URW_Palladio_L_Roman-48"/>
       <use transform="translate(199.252802 0)scale(0.996264)" xlink:href="#URW_Palladio_L_Roman-45"/>
       <use transform="translate(232.428032 0)scale(0.996264)" xlink:href="#URW_Palladio_L_Roman-48"/>
       <use transform="translate(282.241232 0)scale(0.996264)" xlink:href="#URW_Palladio_L_Roman-53"/>
      </g>
     </g>
    </g>
    <g id="xtick_3">
     <g id="line2d_3">
      <g>
       <use style="stroke:#000000;stroke-width:0.8;" x="147.20123" xlink:href="#me27919b722" y="273.312"/>
      </g>
     </g>
     <g id="text_3">
      <!-- 2020-06 -->
      <g transform="translate(149.360643 313.517436)rotate(-90)scale(0.1 -0.1)">
       <defs>
        <path d="M 41.59375 67.34375 
L 37.90625 69.046875 
C 28.296875 65.84375 24.203125 63.84375 19.09375 59.4375 
C 8.796875 50.71875 3.203125 38.5 3.203125 24.765625 
C 3.203125 8.21875 11.203125 -2 24.09375 -2 
C 37.09375 -2 46.796875 8.3125 46.796875 21.953125 
C 46.796875 33.484375 39.90625 41 29.296875 41 
C 24.296875 41 21.296875 39.6875 15.40625 34.984375 
C 14.296875 34.078125 14.203125 33.984375 13.09375 33.1875 
C 15.203125 51.3125 23.59375 61.140625 41.59375 66.546875 
z
M 25.5 34.984375 
C 33.09375 34.984375 38.203125 28.375 38.203125 18.453125 
C 38.203125 8.015625 33.09375 1.296875 25.40625 1.296875 
C 16.90625 1.296875 12.296875 8.609375 12.296875 22.0625 
C 12.296875 25.5625 12.703125 27.46875 13.796875 29.171875 
C 16 32.578125 20.703125 34.984375 25.5 34.984375 
z
" id="URW_Palladio_L_Roman-54"/>
       </defs>
       <use transform="scale(0.996264)" xlink:href="#URW_Palladio_L_Roman-50"/>
       <use transform="translate(49.8132 0)scale(0.996264)" xlink:href="#URW_Palladio_L_Roman-48"/>
       <use transform="translate(99.626401 0)scale(0.996264)" xlink:href="#URW_Palladio_L_Roman-50"/>
       <use transform="translate(149.439601 0)scale(0.996264)" xlink:href="#URW_Palladio_L_Roman-48"/>
       <use transform="translate(199.252802 0)scale(0.996264)" xlink:href="#URW_Palladio_L_Roman-45"/>
       <use transform="translate(232.428032 0)scale(0.996264)" xlink:href="#URW_Palladio_L_Roman-48"/>
       <use transform="translate(282.241232 0)scale(0.996264)" xlink:href="#URW_Palladio_L_Roman-54"/>
      </g>
     </g>
    </g>
    <g id="xtick_4">
     <g id="line2d_4">
      <g>
       <use style="stroke:#000000;stroke-width:0.8;" x="180.891796" xlink:href="#me27919b722" y="273.312"/>
      </g>
     </g>
     <g id="text_4">
      <!-- 2020-07 -->
      <g transform="translate(183.051209 313.517436)rotate(-90)scale(0.1 -0.1)">
       <defs>
        <path d="M 5.59375 0.5 
L 6.5 -0.796875 
C 10.40625 -0.5 10.40625 -0.5 11.09375 -0.5 
C 11.796875 -0.5 11.796875 -0.5 15.703125 -0.796875 
C 19.90625 10.140625 24.796875 20.578125 31.40625 32.609375 
L 49.703125 65.609375 
L 49.703125 68.3125 
C 38.90625 68.3125 35.40625 68.3125 27.296875 68.3125 
C 20 68.3125 15.09375 68.3125 5.40625 68.3125 
L 4.40625 68.109375 
C 4.703125 58.59375 4.703125 58.59375 4.703125 57.578125 
C 4.703125 56.46875 4.703125 56.46875 4.40625 47.359375 
L 7.40625 47.359375 
L 8.09375 52.96875 
C 8.90625 59.203125 9.59375 60 14.203125 60 
L 40.90625 60 
C 36.90625 51.765625 33.796875 45.953125 30 39.828125 
z
" id="URW_Palladio_L_Roman-55"/>
       </defs>
       <use transform="scale(0.996264)" xlink:href="#URW_Palladio_L_Roman-50"/>
       <use transform="translate(49.8132 0)scale(0.996264)" xlink:href="#URW_Palladio_L_Roman-48"/>
       <use transform="translate(99.626401 0)scale(0.996264)" xlink:href="#URW_Palladio_L_Roman-50"/>
       <use transform="translate(149.439601 0)scale(0.996264)" xlink:href="#URW_Palladio_L_Roman-48"/>
       <use transform="translate(199.252802 0)scale(0.996264)" xlink:href="#URW_Palladio_L_Roman-45"/>
       <use transform="translate(232.428032 0)scale(0.996264)" xlink:href="#URW_Palladio_L_Roman-48"/>
       <use transform="translate(282.241232 0)scale(0.996264)" xlink:href="#URW_Palladio_L_Roman-55"/>
      </g>
     </g>
    </g>
    <g id="xtick_5">
     <g id="line2d_5">
      <g>
       <use style="stroke:#000000;stroke-width:0.8;" x="215.705381" xlink:href="#me27919b722" y="273.312"/>
      </g>
     </g>
     <g id="text_5">
      <!-- 2020-08 -->
      <g transform="translate(217.864794 313.517436)rotate(-90)scale(0.1 -0.1)">
       <defs>
        <path d="M 16.796875 34.546875 
C 12.703125 32.65625 11 31.546875 8.796875 29.4375 
C 5 25.640625 3 21.125 3 15.921875 
C 3 5.609375 11.296875 -2 22.59375 -2 
C 35.59375 -2 46.40625 8.21875 46.40625 20.625 
C 46.40625 28.640625 42.703125 32.953125 31.296875 38.15625 
C 40.40625 44.375 43.59375 48.578125 43.59375 54.578125 
C 43.59375 63.1875 36.5 69 25.90625 69 
C 14 69 5.296875 61.390625 5.296875 50.890625 
C 5.296875 44.078125 8 40.265625 16.796875 34.546875 
z
M 28.40625 29.546875 
C 34.703125 26.734375 38.5 21.828125 38.5 16.4375 
C 38.5 8.015625 32.203125 1.40625 24.09375 1.40625 
C 15.59375 1.40625 10.09375 7.421875 10.09375 16.734375 
C 10.09375 24.03125 13 28.640625 20.40625 33.15625 
z
M 22.296875 42.375 
C 16 45.46875 12.796875 49.484375 12.796875 54.484375 
C 12.796875 61.09375 17.59375 65.59375 24.703125 65.59375 
C 32 65.59375 36.796875 60.796875 36.796875 53.46875 
C 36.796875 47.78125 34.296875 43.875 27.796875 39.65625 
z
" id="URW_Palladio_L_Roman-56"/>
       </defs>
       <use transform="scale(0.996264)" xlink:href="#URW_Palladio_L_Roman-50"/>
       <use transform="translate(49.8132 0)scale(0.996264)" xlink:href="#URW_Palladio_L_Roman-48"/>
       <use transform="translate(99.626401 0)scale(0.996264)" xlink:href="#URW_Palladio_L_Roman-50"/>
       <use transform="translate(149.439601 0)scale(0.996264)" xlink:href="#URW_Palladio_L_Roman-48"/>
       <use transform="translate(199.252802 0)scale(0.996264)" xlink:href="#URW_Palladio_L_Roman-45"/>
       <use transform="translate(232.428032 0)scale(0.996264)" xlink:href="#URW_Palladio_L_Roman-48"/>
       <use transform="translate(282.241232 0)scale(0.996264)" xlink:href="#URW_Palladio_L_Roman-56"/>
      </g>
     </g>
    </g>
    <g id="xtick_6">
     <g id="line2d_6">
      <g>
       <use style="stroke:#000000;stroke-width:0.8;" x="250.518966" xlink:href="#me27919b722" y="273.312"/>
      </g>
     </g>
     <g id="text_6">
      <!-- 2020-09 -->
      <g transform="translate(252.678379 313.517436)rotate(-90)scale(0.1 -0.1)">
       <defs>
        <path d="M 9.59375 -1.65625 
C 20.703125 1.953125 25.5 4.25 30.90625 8.84375 
C 40.59375 17.15625 45.703125 28.671875 45.703125 42.078125 
C 45.703125 59 37.59375 69.296875 24.40625 69.296875 
C 11.59375 69.296875 2 59.296875 2 45.90625 
C 2 34.390625 9.5 26 19.90625 26 
C 23.296875 26 27.203125 27.09375 29 28.59375 
L 36 34.40625 
C 35.203125 17.578125 24.296875 5.25 6.203125 0.84375 
L 6.203125 0.046875 
z
M 24 66 
C 28.5 66 31.796875 64.09375 34 60.09375 
C 35.796875 56.890625 37 52 37 47.5 
C 37 38.296875 31.703125 32.109375 24 32.109375 
C 16 32.109375 10.59375 39.203125 10.59375 49.59375 
C 10.59375 59.703125 15.796875 66 24 66 
z
" id="URW_Palladio_L_Roman-57"/>
       </defs>
       <use transform="scale(0.996264)" xlink:href="#URW_Palladio_L_Roman-50"/>
       <use transform="translate(49.8132 0)scale(0.996264)" xlink:href="#URW_Palladio_L_Roman-48"/>
       <use transform="translate(99.626401 0)scale(0.996264)" xlink:href="#URW_Palladio_L_Roman-50"/>
       <use transform="translate(149.439601 0)scale(0.996264)" xlink:href="#URW_Palladio_L_Roman-48"/>
       <use transform="translate(199.252802 0)scale(0.996264)" xlink:href="#URW_Palladio_L_Roman-45"/>
       <use transform="translate(232.428032 0)scale(0.996264)" xlink:href="#URW_Palladio_L_Roman-48"/>
       <use transform="translate(282.241232 0)scale(0.996264)" xlink:href="#URW_Palladio_L_Roman-57"/>
      </g>
     </g>
    </g>
    <g id="xtick_7">
     <g id="line2d_7">
      <g>
       <use style="stroke:#000000;stroke-width:0.8;" x="284.209532" xlink:href="#me27919b722" y="273.312"/>
      </g>
     </g>
     <g id="text_7">
      <!-- 2020-10 -->
      <g transform="translate(286.368945 313.517436)rotate(-90)scale(0.1 -0.1)">
       <defs>
        <path d="M 6.703125 56 
L 7.703125 56 
L 20.59375 61.8125 
C 20.703125 61.90625 20.796875 61.90625 20.90625 61.90625 
C 21.5 61.90625 21.703125 61.015625 21.703125 58.609375 
L 21.703125 9.578125 
C 21.703125 4.3125 20.59375 3.203125 15.203125 3.203125 
L 9.59375 3.203125 
L 9.59375 0 
C 25 0 25 0 26.09375 0 
C 27.40625 0 29.59375 0 33 0 
C 34.203125 0 37.703125 0 41.796875 0 
L 41.796875 3.203125 
L 36.59375 3.203125 
C 31.09375 3.203125 30.09375 4.3125 30.09375 9.5625 
L 30.09375 69.421875 
L 28.703125 69.921875 
C 22.203125 66.515625 15.09375 63.515625 6 60.3125 
z
" id="URW_Palladio_L_Roman-49"/>
       </defs>
       <use transform="scale(0.996264)" xlink:href="#URW_Palladio_L_Roman-50"/>
       <use transform="translate(49.8132 0)scale(0.996264)" xlink:href="#URW_Palladio_L_Roman-48"/>
       <use transform="translate(99.626401 0)scale(0.996264)" xlink:href="#URW_Palladio_L_Roman-50"/>
       <use transform="translate(149.439601 0)scale(0.996264)" xlink:href="#URW_Palladio_L_Roman-48"/>
       <use transform="translate(199.252802 0)scale(0.996264)" xlink:href="#URW_Palladio_L_Roman-45"/>
       <use transform="translate(232.428032 0)scale(0.996264)" xlink:href="#URW_Palladio_L_Roman-49"/>
       <use transform="translate(282.241232 0)scale(0.996264)" xlink:href="#URW_Palladio_L_Roman-48"/>
      </g>
     </g>
    </g>
    <g id="xtick_8">
     <g id="line2d_8">
      <g>
       <use style="stroke:#000000;stroke-width:0.8;" x="319.023117" xlink:href="#me27919b722" y="273.312"/>
      </g>
     </g>
     <g id="text_8">
      <!-- 2020-11 -->
      <g transform="translate(321.18253 313.517436)rotate(-90)scale(0.1 -0.1)">
       <use transform="scale(0.996264)" xlink:href="#URW_Palladio_L_Roman-50"/>
       <use transform="translate(49.8132 0)scale(0.996264)" xlink:href="#URW_Palladio_L_Roman-48"/>
       <use transform="translate(99.626401 0)scale(0.996264)" xlink:href="#URW_Palladio_L_Roman-50"/>
       <use transform="translate(149.439601 0)scale(0.996264)" xlink:href="#URW_Palladio_L_Roman-48"/>
       <use transform="translate(199.252802 0)scale(0.996264)" xlink:href="#URW_Palladio_L_Roman-45"/>
       <use transform="translate(232.428032 0)scale(0.996264)" xlink:href="#URW_Palladio_L_Roman-49"/>
       <use transform="translate(282.241232 0)scale(0.996264)" xlink:href="#URW_Palladio_L_Roman-49"/>
      </g>
     </g>
    </g>
    <g id="xtick_9">
     <g id="line2d_9">
      <g>
       <use style="stroke:#000000;stroke-width:0.8;" x="352.713683" xlink:href="#me27919b722" y="273.312"/>
      </g>
     </g>
     <g id="text_9">
      <!-- 2020-12 -->
      <g transform="translate(354.873096 313.517436)rotate(-90)scale(0.1 -0.1)">
       <use transform="scale(0.996264)" xlink:href="#URW_Palladio_L_Roman-50"/>
       <use transform="translate(49.8132 0)scale(0.996264)" xlink:href="#URW_Palladio_L_Roman-48"/>
       <use transform="translate(99.626401 0)scale(0.996264)" xlink:href="#URW_Palladio_L_Roman-50"/>
       <use transform="translate(149.439601 0)scale(0.996264)" xlink:href="#URW_Palladio_L_Roman-48"/>
       <use transform="translate(199.252802 0)scale(0.996264)" xlink:href="#URW_Palladio_L_Roman-45"/>
       <use transform="translate(232.428032 0)scale(0.996264)" xlink:href="#URW_Palladio_L_Roman-49"/>
       <use transform="translate(282.241232 0)scale(0.996264)" xlink:href="#URW_Palladio_L_Roman-50"/>
      </g>
     </g>
    </g>
    <g id="xtick_10">
     <g id="line2d_10">
      <g>
       <use style="stroke:#000000;stroke-width:0.8;" x="387.527267" xlink:href="#me27919b722" y="273.312"/>
      </g>
     </g>
     <g id="text_10">
      <!-- 2021-01 -->
      <g transform="translate(389.686681 313.517436)rotate(-90)scale(0.1 -0.1)">
       <use transform="scale(0.996264)" xlink:href="#URW_Palladio_L_Roman-50"/>
       <use transform="translate(49.8132 0)scale(0.996264)" xlink:href="#URW_Palladio_L_Roman-48"/>
       <use transform="translate(99.626401 0)scale(0.996264)" xlink:href="#URW_Palladio_L_Roman-50"/>
       <use transform="translate(149.439601 0)scale(0.996264)" xlink:href="#URW_Palladio_L_Roman-49"/>
       <use transform="translate(199.252802 0)scale(0.996264)" xlink:href="#URW_Palladio_L_Roman-45"/>
       <use transform="translate(232.428032 0)scale(0.996264)" xlink:href="#URW_Palladio_L_Roman-48"/>
       <use transform="translate(282.241232 0)scale(0.996264)" xlink:href="#URW_Palladio_L_Roman-49"/>
      </g>
     </g>
    </g>
   </g>
   <g id="matplotlib.axis_2">
    <g id="ytick_1">
     <g id="line2d_11">
      <defs>
       <path d="M 0 0 
L -3.5 0 
" id="m134acf9bcd" style="stroke:#000000;stroke-width:0.8;"/>
      </defs>
      <g>
       <use style="stroke:#000000;stroke-width:0.8;" x="59.044249" xlink:href="#m134acf9bcd" y="273.312"/>
      </g>
     </g>
     <g id="text_11">
      <!-- $\mathdefault{0}$ -->
      <g transform="translate(47.062929 276.876119)scale(0.1 -0.1)">
       <use transform="scale(0.996264)" xlink:href="#URW_Palladio_L_Roman-48"/>
      </g>
     </g>
    </g>
    <g id="ytick_2">
     <g id="line2d_12">
      <g>
       <use style="stroke:#000000;stroke-width:0.8;" x="59.044249" xlink:href="#m134acf9bcd" y="227.861616"/>
      </g>
     </g>
     <g id="text_12">
      <!-- $\mathdefault{2000}$ -->
      <g transform="translate(32.118968 231.425734)scale(0.1 -0.1)">
       <use transform="scale(0.996264)" xlink:href="#URW_Palladio_L_Roman-50"/>
       <use transform="translate(49.8132 0)scale(0.996264)" xlink:href="#URW_Palladio_L_Roman-48"/>
       <use transform="translate(99.626401 0)scale(0.996264)" xlink:href="#URW_Palladio_L_Roman-48"/>
       <use transform="translate(149.439601 0)scale(0.996264)" xlink:href="#URW_Palladio_L_Roman-48"/>
      </g>
     </g>
    </g>
    <g id="ytick_3">
     <g id="line2d_13">
      <g>
       <use style="stroke:#000000;stroke-width:0.8;" x="59.044249" xlink:href="#m134acf9bcd" y="182.411231"/>
      </g>
     </g>
     <g id="text_13">
      <!-- $\mathdefault{4000}$ -->
      <g transform="translate(32.118968 185.97535)scale(0.1 -0.1)">
       <use transform="scale(0.996264)" xlink:href="#URW_Palladio_L_Roman-52"/>
       <use transform="translate(49.8132 0)scale(0.996264)" xlink:href="#URW_Palladio_L_Roman-48"/>
       <use transform="translate(99.626401 0)scale(0.996264)" xlink:href="#URW_Palladio_L_Roman-48"/>
       <use transform="translate(149.439601 0)scale(0.996264)" xlink:href="#URW_Palladio_L_Roman-48"/>
      </g>
     </g>
    </g>
    <g id="ytick_4">
     <g id="line2d_14">
      <g>
       <use style="stroke:#000000;stroke-width:0.8;" x="59.044249" xlink:href="#m134acf9bcd" y="136.960847"/>
      </g>
     </g>
     <g id="text_14">
      <!-- $\mathdefault{6000}$ -->
      <g transform="translate(32.118968 140.524966)scale(0.1 -0.1)">
       <use transform="scale(0.996264)" xlink:href="#URW_Palladio_L_Roman-54"/>
       <use transform="translate(49.8132 0)scale(0.996264)" xlink:href="#URW_Palladio_L_Roman-48"/>
       <use transform="translate(99.626401 0)scale(0.996264)" xlink:href="#URW_Palladio_L_Roman-48"/>
       <use transform="translate(149.439601 0)scale(0.996264)" xlink:href="#URW_Palladio_L_Roman-48"/>
      </g>
     </g>
    </g>
    <g id="ytick_5">
     <g id="line2d_15">
      <g>
       <use style="stroke:#000000;stroke-width:0.8;" x="59.044249" xlink:href="#m134acf9bcd" y="91.510463"/>
      </g>
     </g>
     <g id="text_15">
      <!-- $\mathdefault{8000}$ -->
      <g transform="translate(32.118968 95.074582)scale(0.1 -0.1)">
       <use transform="scale(0.996264)" xlink:href="#URW_Palladio_L_Roman-56"/>
       <use transform="translate(49.8132 0)scale(0.996264)" xlink:href="#URW_Palladio_L_Roman-48"/>
       <use transform="translate(99.626401 0)scale(0.996264)" xlink:href="#URW_Palladio_L_Roman-48"/>
       <use transform="translate(149.439601 0)scale(0.996264)" xlink:href="#URW_Palladio_L_Roman-48"/>
      </g>
     </g>
    </g>
    <g id="ytick_6">
     <g id="line2d_16">
      <g>
       <use style="stroke:#000000;stroke-width:0.8;" x="59.044249" xlink:href="#m134acf9bcd" y="46.060079"/>
      </g>
     </g>
     <g id="text_16">
      <!-- $\mathdefault{10000}$ -->
      <g transform="translate(27.137648 49.624197)scale(0.1 -0.1)">
       <use transform="scale(0.996264)" xlink:href="#URW_Palladio_L_Roman-49"/>
       <use transform="translate(49.8132 0)scale(0.996264)" xlink:href="#URW_Palladio_L_Roman-48"/>
       <use transform="translate(99.626401 0)scale(0.996264)" xlink:href="#URW_Palladio_L_Roman-48"/>
       <use transform="translate(149.439601 0)scale(0.996264)" xlink:href="#URW_Palladio_L_Roman-48"/>
       <use transform="translate(199.252802 0)scale(0.996264)" xlink:href="#URW_Palladio_L_Roman-48"/>
      </g>
     </g>
    </g>
    <g id="text_17">
     <!-- active corona cases -->
     <g transform="translate(14.328237 181.954193)rotate(-90)scale(0.1 -0.1)">
      <defs>
       <path d="M 32.40625 8.40625 
L 31.90625 -0.015625 
C 38.40625 -0.015625 38.40625 -0.015625 39.703125 -0.015625 
C 40.203125 -0.015625 42.703125 -0.015625 47.09375 -0.015625 
L 47.09375 3 
L 43.203125 3 
C 40.796875 3 40.40625 3.8125 40.40625 8.71875 
L 40.40625 27.046875 
C 40.40625 41.6875 36.203125 47 24.59375 47 
C 20.296875 47 16.296875 45.890625 12.5 43.609375 
L 7.203125 40.390625 
L 7.203125 33.921875 
L 9.796875 33.21875 
L 11.09375 36.296875 
C 13.203125 40.984375 14.203125 41.6875 18.796875 41.6875 
C 28.203125 41.6875 32.09375 37.984375 32.40625 28.9375 
L 22.5 27.125 
C 8.90625 24.640625 3.203125 19.953125 3.203125 11.28125 
C 3.203125 3.5 7.90625 -1 15.796875 -1 
C 17.59375 -1 19.296875 -0.703125 20 -0.203125 
z
M 32.40625 12.59375 
C 29.5 8.5 23.203125 4.71875 19.296875 4.71875 
C 15.296875 4.71875 11.796875 8.40625 11.796875 12.6875 
C 11.796875 16.375 13.796875 19.859375 16.796875 21.75 
C 19.296875 23.25 24.796875 24.640625 32.40625 25.75 
z
" id="URW_Palladio_L_Roman-97"/>
       <path d="M 39.90625 31.15625 
C 39.90625 35.765625 40.40625 39.875 41.296875 43.484375 
C 37.296875 45.890625 33.796875 47 29.703125 47 
C 24.90625 47 19.296875 45.09375 13.296875 41.28125 
C 6.296875 36.875 2.59375 29.859375 2.59375 21.046875 
C 2.59375 7.515625 12.09375 -2 25.5 -2 
C 30.703125 -2 38.203125 -0.09375 39.203125 1.40625 
L 41.296875 4.609375 
L 40.296875 6.109375 
C 36.59375 4.109375 33.40625 3.203125 29.796875 3.203125 
C 18.703125 3.203125 11.40625 11.828125 11.40625 25.046875 
C 11.40625 35.765625 16.40625 41.78125 25.40625 41.78125 
C 29.796875 41.78125 34.59375 39.78125 36.40625 37.28125 
L 37.09375 31.15625 
z
" id="URW_Palladio_L_Roman-99"/>
       <path d="M 9.796875 38.6875 
L 9.796875 9.671875 
C 9.796875 2.21875 13.09375 -1 20.796875 -1 
C 23.09375 -1 25.5 -0.5 26.09375 0.203125 
L 30.90625 5.515625 
L 29.59375 7.234375 
C 27.09375 5.8125 25.59375 5.3125 23.703125 5.3125 
C 19.796875 5.3125 18.203125 7.34375 18.203125 12.3125 
L 18.203125 38.890625 
L 31 38.890625 
L 31.90625 44 
L 18.203125 44 
L 18.203125 47.75 
C 18.203125 51.890625 18.5 55.421875 19.296875 61.734375 
L 18.09375 62.828125 
C 15.703125 61.328125 12.703125 60.03125 9.59375 59.03125 
C 9.90625 56.015625 10 54.109375 10 51.109375 
L 10 44.09375 
L 2.203125 40.59375 
L 2.203125 38.6875 
z
" id="URW_Palladio_L_Roman-116"/>
       <path d="M 18.796875 46.765625 
L 17.90625 47.171875 
C 12.796875 45.0625 7.59375 43.640625 2.296875 43.046875 
L 2.296875 40.25 
L 6 40.25 
C 10 40.25 10.40625 39.546875 10.40625 32.890625 
L 10.40625 10.171875 
C 10.40625 3.8125 10.09375 3.109375 6.703125 3.109375 
L 2.09375 3.109375 
L 2.09375 0 
C 12.09375 0 12.09375 0 14.59375 0 
C 17.09375 0 17.09375 0 27.09375 0 
L 27.09375 3.109375 
L 22.5 3.109375 
C 19.09375 3.109375 18.796875 3.8125 18.796875 10.171875 
z
M 14.203125 69 
C 11.203125 69 8.59375 66.390625 8.59375 63.375 
C 8.59375 60.46875 11.203125 57.875 14.09375 57.875 
C 17 57.875 19.703125 60.46875 19.703125 63.375 
C 19.703125 66.1875 17 69 14.203125 69 
z
" id="URW_Palladio_L_Roman-105"/>
       <path d="M 53.90625 43 
L 53.90625 45.8125 
C 47.90625 45.8125 46.09375 45.8125 44.5 45.8125 
C 42.90625 45.8125 41.09375 45.8125 35.09375 45.8125 
L 35.09375 43 
L 39.203125 43 
C 40.796875 43 41.59375 42.09375 41.59375 40.484375 
C 41.59375 38.890625 40.90625 36.203125 39.703125 33.1875 
L 35.5 22.578125 
C 34.296875 19.671875 33.09375 16.875 29.296875 8.578125 
L 17.40625 37.390625 
C 16.796875 38.78125 16.5 40.09375 16.5 41.1875 
C 16.5 42.296875 17.40625 43 19 43 
L 23.90625 43 
L 23.90625 45.8125 
C 14.09375 45.8125 14.09375 45.8125 12.203125 45.8125 
C 10.296875 45.8125 5.5 45.8125 0.59375 45.8125 
L 0.59375 43 
L 4 43 
C 5.5 42.796875 6 42.203125 7.09375 39.703125 
L 24.296875 -0.5 
L 29.296875 -0.5 
C 29.90625 1.203125 30.90625 3.796875 30.90625 4 
C 32 6.984375 33.296875 10.375 33.40625 10.375 
L 45.203125 36.3125 
C 47.40625 41.015625 48.796875 42.796875 50.796875 43 
z
" id="URW_Palladio_L_Roman-118"/>
       <path d="M 43.703125 6.984375 
L 42.40625 7.984375 
C 36 4.203125 33.703125 3.3125 29.40625 3.3125 
C 22.90625 3.3125 17.5 6.21875 14.703125 11.109375 
C 12.796875 14.390625 12.09375 17.203125 11.90625 23 
L 26.5 23 
C 33.40625 23 37.703125 23 44.59375 24.125 
C 44.703125 25.53125 44.796875 26.453125 44.796875 27.671875 
C 44.796875 39.375 37.40625 47 26.203125 47 
C 22.5 47 18.203125 45.6875 14.09375 43.28125 
C 5.90625 38.578125 2.59375 32.359375 2.59375 21.9375 
C 2.59375 15.625 4.09375 10.21875 6.796875 6.40625 
C 10.796875 1.109375 17.5 -2 25 -2 
C 28.703125 -2 32.40625 -1.203125 36.5 0.578125 
C 39.203125 1.6875 41.296875 2.984375 41.703125 3.59375 
z
M 35.90625 26.40625 
C 30.703125 26.40625 28.296875 26.40625 24.703125 26.40625 
C 20.09375 26.40625 17.5 26.40625 12.09375 26.90625 
C 12.09375 31.671875 12.5 33.890625 13.796875 36.515625 
C 15.90625 40.96875 20.203125 43.6875 25 43.6875 
C 28.296875 43.6875 30.90625 42.359375 32.703125 39.59375 
C 34.90625 36.234375 35.59375 33.265625 35.90625 26.40625 
z
" id="URW_Palladio_L_Roman-101"/>
       <path d="M 27.90625 47 
C 13.296875 47 3.203125 36.671875 3.203125 21.75 
C 3.203125 7.609375 12.09375 -2 25 -2 
C 40.40625 -2 51.40625 8.71875 51.40625 23.75 
C 51.40625 37.28125 41.59375 47 27.90625 47 
z
M 26.09375 43.6875 
C 35.296875 43.6875 42.09375 33.671875 42.09375 20.046875 
C 42.09375 8.515625 37 1.296875 28.90625 1.296875 
C 19.09375 1.296875 12.5 10.921875 12.5 25.15625 
C 12.5 37.171875 17.296875 43.6875 26.09375 43.6875 
z
" id="URW_Palladio_L_Roman-111"/>
       <path d="M 2.296875 40.078125 
L 6 40.078125 
C 10 40.078125 10.40625 39.375 10.40625 32.71875 
L 10.40625 10.046875 
C 10.40625 3.703125 10.09375 3 6.703125 3 
L 2.09375 3 
L 2.09375 -0.109375 
C 9.296875 -0.109375 11.90625 -0.109375 14.40625 -0.109375 
C 16.40625 -0.109375 16.40625 -0.109375 28.703125 -0.109375 
L 28.703125 3 
L 23.5 3 
C 19 3 18.796875 3.296875 18.796875 9.96875 
L 18.796875 27.359375 
C 18.796875 33.421875 22.796875 38.484375 27.703125 38.484375 
C 30.703125 38.484375 32.796875 37.078125 34.40625 33.890625 
L 36.5 33.890625 
L 37.40625 45.890625 
C 36.296875 46.59375 34.5 47 32.703125 47 
C 29.703125 47 26.5 45.390625 24.40625 42.890625 
L 18.796875 36.28125 
L 18.796875 46.59375 
L 17.90625 47 
C 12.796875 44.890625 7.59375 43.484375 2.296875 42.890625 
z
" id="URW_Palladio_L_Roman-114"/>
       <path d="M 41 -0.109375 
C 47.09375 -0.109375 47.203125 -0.109375 48.90625 -0.109375 
C 50.296875 -0.109375 50.296875 -0.109375 57.203125 -0.109375 
L 57.203125 2.796875 
L 53.09375 3.203125 
C 49.703125 3.203125 49.40625 3.8125 49.40625 10.21875 
L 49.40625 29.5625 
C 49.40625 41.28125 43.90625 47 32.703125 47 
C 29 47 26.90625 46.296875 24.796875 44.484375 
L 17.203125 37.875 
L 17.203125 46.59375 
L 16.296875 47 
C 11.203125 44.890625 6 43.484375 0.703125 42.890625 
L 0.703125 40.078125 
L 4.40625 40.078125 
C 8.40625 40.078125 8.796875 39.375 8.796875 32.71875 
L 8.796875 10.046875 
C 8.796875 3.703125 8.5 3 5.09375 3 
L 0.59375 3 
L 0.59375 -0.109375 
C 7.40625 -0.109375 10.09375 -0.109375 13 -0.109375 
C 15.90625 -0.109375 18.59375 -0.109375 25.40625 -0.109375 
L 25.40625 3 
L 20.90625 3 
C 17.5 3 17.203125 3.703125 17.203125 10.046875 
L 17.203125 31.421875 
C 17.203125 35.9375 23.796875 40.875 29.90625 40.875 
C 36.59375 40.875 41 35.890625 41 28.21875 
z
" id="URW_Palladio_L_Roman-110"/>
       <path d="M 4.09375 14.328125 
C 4.09375 7.421875 3.796875 4.40625 3 0.40625 
C 8.203125 -1.296875 12.09375 -2 16.703125 -2 
C 29.796875 -2 39.09375 5.015625 39.09375 14.828125 
C 39.09375 17.9375 38.203125 20.234375 36.296875 22.25 
C 33.703125 24.75 30.40625 25.953125 21.59375 27.65625 
C 13.40625 29.265625 10.703125 31.265625 10.703125 35.875 
C 10.703125 40.875 14.203125 43.6875 20.296875 43.6875 
C 27 43.6875 32.09375 40.1875 32.09375 35.46875 
L 32.09375 33.171875 
L 34.90625 33.171875 
C 35 38.984375 35.09375 41.375 35.40625 44.484375 
C 30.09375 46.296875 26.5 47 22.40625 47 
C 10.796875 47 3.703125 41.484375 3.703125 32.46875 
C 3.703125 27.65625 5.90625 24.25 10.5 22.140625 
C 13.203125 20.9375 18.5 19.34375 25.296875 17.828125 
C 29.796875 16.828125 31.703125 14.734375 31.703125 10.921875 
C 31.703125 5.515625 26.703125 1.703125 19.59375 1.703125 
C 12.296875 1.703125 7.09375 5.203125 7.09375 10.21875 
L 7.09375 14.328125 
z
" id="URW_Palladio_L_Roman-115"/>
      </defs>
      <use transform="scale(0.996264)" xlink:href="#URW_Palladio_L_Roman-97"/>
      <use transform="translate(49.8132 0)scale(0.996264)" xlink:href="#URW_Palladio_L_Roman-99"/>
      <use transform="translate(94.046769 0)scale(0.996264)" xlink:href="#URW_Palladio_L_Roman-116"/>
      <use transform="translate(126.523857 0)scale(0.996264)" xlink:href="#URW_Palladio_L_Roman-105"/>
      <use transform="translate(155.514219 0)scale(0.996264)" xlink:href="#URW_Palladio_L_Roman-118"/>
      <use transform="translate(211.802132 0)scale(0.996264)" xlink:href="#URW_Palladio_L_Roman-101"/>
      <use transform="translate(284.429027 0)scale(0.996264)" xlink:href="#URW_Palladio_L_Roman-99"/>
      <use transform="translate(328.662596 0)scale(0.996264)" xlink:href="#URW_Palladio_L_Roman-111"/>
      <use transform="translate(383.058176 0)scale(0.996264)" xlink:href="#URW_Palladio_L_Roman-114"/>
      <use transform="translate(420.617493 0)scale(0.996264)" xlink:href="#URW_Palladio_L_Roman-111"/>
      <use transform="translate(475.013074 0)scale(0.996264)" xlink:href="#URW_Palladio_L_Roman-110"/>
      <use transform="translate(532.995134 0)scale(0.996264)" xlink:href="#URW_Palladio_L_Roman-97"/>
      <use transform="translate(607.714935 0)scale(0.996264)" xlink:href="#URW_Palladio_L_Roman-99"/>
      <use transform="translate(651.948504 0)scale(0.996264)" xlink:href="#URW_Palladio_L_Roman-97"/>
      <use transform="translate(701.761704 0)scale(0.996264)" xlink:href="#URW_Palladio_L_Roman-115"/>
      <use transform="translate(744.00317 0)scale(0.996264)" xlink:href="#URW_Palladio_L_Roman-101"/>
      <use transform="translate(791.723466 0)scale(0.996264)" xlink:href="#URW_Palladio_L_Roman-115"/>
     </g>
    </g>
   </g>
   <g id="patch_321">
    <path d="M 59.044249 273.312 
L 59.044249 7.2 
" style="fill:none;stroke:#000000;stroke-linecap:square;stroke-linejoin:miter;stroke-width:0.8;"/>
   </g>
   <g id="patch_322">
    <path d="M 59.044249 273.312 
L 416.164249 273.312 
" style="fill:none;stroke:#000000;stroke-linecap:square;stroke-linejoin:miter;stroke-width:0.8;"/>
   </g>
  </g>
 </g>
 <defs>
  <clipPath id="p15b4da65ab">
   <rect height="266.112" width="357.12" x="59.044249" y="7.2"/>
  </clipPath>
 </defs>
</svg>
