<?xml version="1.0" encoding="utf-8" standalone="no"?>
<!DOCTYPE svg PUBLIC "-//W3C//DTD SVG 1.1//EN"
  "http://www.w3.org/Graphics/SVG/1.1/DTD/svg11.dtd">
<!-- Created with matplotlib (https://matplotlib.org/) -->
<svg height="364.091062pt" version="1.1" viewBox="0 0 430.010625 364.091062" width="430.010625pt" xmlns="http://www.w3.org/2000/svg" xmlns:xlink="http://www.w3.org/1999/xlink">
 <metadata>
  <rdf:RDF xmlns:cc="http://creativecommons.org/ns#" xmlns:dc="http://purl.org/dc/elements/1.1/" xmlns:rdf="http://www.w3.org/1999/02/22-rdf-syntax-ns#">
   <cc:Work>
    <dc:type rdf:resource="http://purl.org/dc/dcmitype/StillImage"/>
    <dc:date>2020-12-15T12:19:45.888129</dc:date>
    <dc:format>image/svg+xml</dc:format>
    <dc:creator>
     <cc:Agent>
      <dc:title>Matplotlib v3.3.3, https://matplotlib.org/</dc:title>
     </cc:Agent>
    </dc:creator>
   </cc:Work>
  </rdf:RDF>
 </metadata>
 <defs>
  <style type="text/css">*{stroke-linecap:butt;stroke-linejoin:round;}</style>
 </defs>
 <g id="figure_1">
  <g id="patch_1">
   <path d="M 0 364.091062 
L 430.010625 364.091062 
L 430.010625 0 
L 0 0 
z
" style="fill:#ffffff;"/>
  </g>
  <g id="axes_1">
   <g id="patch_2">
    <path d="M 65.690625 288.430125 
L 422.810625 288.430125 
L 422.810625 22.318125 
L 65.690625 22.318125 
z
" style="fill:#ffffff;"/>
   </g>
   <g id="patch_3">
    <path clip-path="url(#p007b663618)" d="M 65.820016 288.430125 
L 66.855147 288.430125 
L 66.855147 283.894255 
L 65.820016 283.894255 
z
" style="fill:#1f77b4;"/>
   </g>
   <g id="patch_4">
    <path clip-path="url(#p007b663618)" d="M 67.113929 288.430125 
L 68.14906 288.430125 
L 68.14906 283.050902 
L 67.113929 283.050902 
z
" style="fill:#1f77b4;"/>
   </g>
   <g id="patch_5">
    <path clip-path="url(#p007b663618)" d="M 68.407842 288.430125 
L 69.442973 288.430125 
L 69.442973 282.025202 
L 68.407842 282.025202 
z
" style="fill:#1f77b4;"/>
   </g>
   <g id="patch_6">
    <path clip-path="url(#p007b663618)" d="M 69.701755 288.430125 
L 70.736886 288.430125 
L 70.736886 280.133357 
L 69.701755 280.133357 
z
" style="fill:#1f77b4;"/>
   </g>
   <g id="patch_7">
    <path clip-path="url(#p007b663618)" d="M 70.995668 288.430125 
L 72.030799 288.430125 
L 72.030799 278.925311 
L 70.995668 278.925311 
z
" style="fill:#1f77b4;"/>
   </g>
   <g id="patch_8">
    <path clip-path="url(#p007b663618)" d="M 72.289582 288.430125 
L 73.324712 288.430125 
L 73.324712 276.463632 
L 72.289582 276.463632 
z
" style="fill:#1f77b4;"/>
   </g>
   <g id="patch_9">
    <path clip-path="url(#p007b663618)" d="M 73.583495 288.430125 
L 74.618625 288.430125 
L 74.618625 275.07324 
L 73.583495 275.07324 
z
" style="fill:#1f77b4;"/>
   </g>
   <g id="patch_10">
    <path clip-path="url(#p007b663618)" d="M 74.877408 288.430125 
L 75.912538 288.430125 
L 75.912538 274.070334 
L 74.877408 274.070334 
z
" style="fill:#1f77b4;"/>
   </g>
   <g id="patch_11">
    <path clip-path="url(#p007b663618)" d="M 76.171321 288.430125 
L 77.206451 288.430125 
L 77.206451 273.272568 
L 76.171321 273.272568 
z
" style="fill:#1f77b4;"/>
   </g>
   <g id="patch_12">
    <path clip-path="url(#p007b663618)" d="M 77.465234 288.430125 
L 78.500364 288.430125 
L 78.500364 271.996142 
L 77.465234 271.996142 
z
" style="fill:#1f77b4;"/>
   </g>
   <g id="patch_13">
    <path clip-path="url(#p007b663618)" d="M 78.759147 288.430125 
L 79.794277 288.430125 
L 79.794277 271.107203 
L 78.759147 271.107203 
z
" style="fill:#1f77b4;"/>
   </g>
   <g id="patch_14">
    <path clip-path="url(#p007b663618)" d="M 80.05306 288.430125 
L 81.08819 288.430125 
L 81.08819 269.78519 
L 80.05306 269.78519 
z
" style="fill:#1f77b4;"/>
   </g>
   <g id="patch_15">
    <path clip-path="url(#p007b663618)" d="M 81.346973 288.430125 
L 82.382103 288.430125 
L 82.382103 267.961724 
L 81.346973 267.961724 
z
" style="fill:#1f77b4;"/>
   </g>
   <g id="patch_16">
    <path clip-path="url(#p007b663618)" d="M 82.640886 288.430125 
L 83.676016 288.430125 
L 83.676016 266.343399 
L 82.640886 266.343399 
z
" style="fill:#1f77b4;"/>
   </g>
   <g id="patch_17">
    <path clip-path="url(#p007b663618)" d="M 83.934799 288.430125 
L 84.969929 288.430125 
L 84.969929 263.88172 
L 83.934799 263.88172 
z
" style="fill:#1f77b4;"/>
   </g>
   <g id="patch_18">
    <path clip-path="url(#p007b663618)" d="M 85.228712 288.430125 
L 86.263842 288.430125 
L 86.263842 262.354568 
L 85.228712 262.354568 
z
" style="fill:#1f77b4;"/>
   </g>
   <g id="patch_19">
    <path clip-path="url(#p007b663618)" d="M 86.522625 288.430125 
L 87.557755 288.430125 
L 87.557755 262.217808 
L 86.522625 262.217808 
z
" style="fill:#1f77b4;"/>
   </g>
   <g id="patch_20">
    <path clip-path="url(#p007b663618)" d="M 87.816538 288.430125 
L 88.851668 288.430125 
L 88.851668 261.716355 
L 87.816538 261.716355 
z
" style="fill:#1f77b4;"/>
   </g>
   <g id="patch_21">
    <path clip-path="url(#p007b663618)" d="M 89.110451 288.430125 
L 90.145582 288.430125 
L 90.145582 261.214902 
L 89.110451 261.214902 
z
" style="fill:#1f77b4;"/>
   </g>
   <g id="patch_22">
    <path clip-path="url(#p007b663618)" d="M 90.404364 288.430125 
L 91.439495 288.430125 
L 91.439495 260.280376 
L 90.404364 260.280376 
z
" style="fill:#1f77b4;"/>
   </g>
   <g id="patch_23">
    <path clip-path="url(#p007b663618)" d="M 91.698277 288.430125 
L 92.733408 288.430125 
L 92.733408 258.548084 
L 91.698277 258.548084 
z
" style="fill:#1f77b4;"/>
   </g>
   <g id="patch_24">
    <path clip-path="url(#p007b663618)" d="M 92.99219 288.430125 
L 94.027321 288.430125 
L 94.027321 258.137804 
L 92.99219 258.137804 
z
" style="fill:#1f77b4;"/>
   </g>
   <g id="patch_25">
    <path clip-path="url(#p007b663618)" d="M 94.286103 288.430125 
L 95.321234 288.430125 
L 95.321234 257.020931 
L 94.286103 257.020931 
z
" style="fill:#1f77b4;"/>
   </g>
   <g id="patch_26">
    <path clip-path="url(#p007b663618)" d="M 95.580016 288.430125 
L 96.615147 288.430125 
L 96.615147 256.245958 
L 95.580016 256.245958 
z
" style="fill:#1f77b4;"/>
   </g>
   <g id="patch_27">
    <path clip-path="url(#p007b663618)" d="M 96.873929 288.430125 
L 97.90906 288.430125 
L 97.90906 255.812885 
L 96.873929 255.812885 
z
" style="fill:#1f77b4;"/>
   </g>
   <g id="patch_28">
    <path clip-path="url(#p007b663618)" d="M 98.167842 288.430125 
L 99.202973 288.430125 
L 99.202973 255.448192 
L 98.167842 255.448192 
z
" style="fill:#1f77b4;"/>
   </g>
   <g id="patch_29">
    <path clip-path="url(#p007b663618)" d="M 99.461755 288.430125 
L 100.496886 288.430125 
L 100.496886 254.901153 
L 99.461755 254.901153 
z
" style="fill:#1f77b4;"/>
   </g>
   <g id="patch_30">
    <path clip-path="url(#p007b663618)" d="M 100.755668 288.430125 
L 101.790799 288.430125 
L 101.790799 254.490873 
L 100.755668 254.490873 
z
" style="fill:#1f77b4;"/>
   </g>
   <g id="patch_31">
    <path clip-path="url(#p007b663618)" d="M 102.049582 288.430125 
L 103.084712 288.430125 
L 103.084712 253.7159 
L 102.049582 253.7159 
z
" style="fill:#1f77b4;"/>
   </g>
   <g id="patch_32">
    <path clip-path="url(#p007b663618)" d="M 103.343495 288.430125 
L 104.378625 288.430125 
L 104.378625 252.963721 
L 103.343495 252.963721 
z
" style="fill:#1f77b4;"/>
   </g>
   <g id="patch_33">
    <path clip-path="url(#p007b663618)" d="M 104.637408 288.430125 
L 105.672538 288.430125 
L 105.672538 252.485061 
L 104.637408 252.485061 
z
" style="fill:#1f77b4;"/>
   </g>
   <g id="patch_34">
    <path clip-path="url(#p007b663618)" d="M 105.931321 288.430125 
L 106.966451 288.430125 
L 106.966451 252.234334 
L 105.931321 252.234334 
z
" style="fill:#1f77b4;"/>
   </g>
   <g id="patch_35">
    <path clip-path="url(#p007b663618)" d="M 107.225234 288.430125 
L 108.260364 288.430125 
L 108.260364 252.143161 
L 107.225234 252.143161 
z
" style="fill:#1f77b4;"/>
   </g>
   <g id="patch_36">
    <path clip-path="url(#p007b663618)" d="M 108.519147 288.430125 
L 109.554277 288.430125 
L 109.554277 252.325508 
L 108.519147 252.325508 
z
" style="fill:#1f77b4;"/>
   </g>
   <g id="patch_37">
    <path clip-path="url(#p007b663618)" d="M 109.81306 288.430125 
L 110.84819 288.430125 
L 110.84819 252.963721 
L 109.81306 252.963721 
z
" style="fill:#1f77b4;"/>
   </g>
   <g id="patch_38">
    <path clip-path="url(#p007b663618)" d="M 111.106973 288.430125 
L 112.142103 288.430125 
L 112.142103 252.735787 
L 111.106973 252.735787 
z
" style="fill:#1f77b4;"/>
   </g>
   <g id="patch_39">
    <path clip-path="url(#p007b663618)" d="M 112.400886 288.430125 
L 113.436016 288.430125 
L 113.436016 253.282827 
L 112.400886 253.282827 
z
" style="fill:#1f77b4;"/>
   </g>
   <g id="patch_40">
    <path clip-path="url(#p007b663618)" d="M 113.694799 288.430125 
L 114.729929 288.430125 
L 114.729929 253.396794 
L 113.694799 253.396794 
z
" style="fill:#1f77b4;"/>
   </g>
   <g id="patch_41">
    <path clip-path="url(#p007b663618)" d="M 114.988712 288.430125 
L 116.023842 288.430125 
L 116.023842 253.966627 
L 114.988712 253.966627 
z
" style="fill:#1f77b4;"/>
   </g>
   <g id="patch_42">
    <path clip-path="url(#p007b663618)" d="M 116.282625 288.430125 
L 117.317755 288.430125 
L 117.317755 254.376906 
L 116.282625 254.376906 
z
" style="fill:#1f77b4;"/>
   </g>
   <g id="patch_43">
    <path clip-path="url(#p007b663618)" d="M 117.576538 288.430125 
L 118.611668 288.430125 
L 118.611668 263.517027 
L 117.576538 263.517027 
z
" style="fill:#1f77b4;"/>
   </g>
   <g id="patch_44">
    <path clip-path="url(#p007b663618)" d="M 118.870451 288.430125 
L 119.905582 288.430125 
L 119.905582 264.83904 
L 118.870451 264.83904 
z
" style="fill:#1f77b4;"/>
   </g>
   <g id="patch_45">
    <path clip-path="url(#p007b663618)" d="M 120.164364 288.430125 
L 121.199495 288.430125 
L 121.199495 265.773566 
L 120.164364 265.773566 
z
" style="fill:#1f77b4;"/>
   </g>
   <g id="patch_46">
    <path clip-path="url(#p007b663618)" d="M 121.458277 288.430125 
L 122.493408 288.430125 
L 122.493408 267.004405 
L 121.458277 267.004405 
z
" style="fill:#1f77b4;"/>
   </g>
   <g id="patch_47">
    <path clip-path="url(#p007b663618)" d="M 122.75219 288.430125 
L 123.787321 288.430125 
L 123.787321 267.688205 
L 122.75219 267.688205 
z
" style="fill:#1f77b4;"/>
   </g>
   <g id="patch_48">
    <path clip-path="url(#p007b663618)" d="M 124.046103 288.430125 
L 125.081234 288.430125 
L 125.081234 269.16977 
L 124.046103 269.16977 
z
" style="fill:#1f77b4;"/>
   </g>
   <g id="patch_49">
    <path clip-path="url(#p007b663618)" d="M 125.340016 288.430125 
L 126.375147 288.430125 
L 126.375147 270.149883 
L 125.340016 270.149883 
z
" style="fill:#1f77b4;"/>
   </g>
   <g id="patch_50">
    <path clip-path="url(#p007b663618)" d="M 126.633929 288.430125 
L 127.66906 288.430125 
L 127.66906 271.175582 
L 126.633929 271.175582 
z
" style="fill:#1f77b4;"/>
   </g>
   <g id="patch_51">
    <path clip-path="url(#p007b663618)" d="M 127.927842 288.430125 
L 128.962973 288.430125 
L 128.962973 272.406422 
L 127.927842 272.406422 
z
" style="fill:#1f77b4;"/>
   </g>
   <g id="patch_52">
    <path clip-path="url(#p007b663618)" d="M 129.221755 288.430125 
L 130.256886 288.430125 
L 130.256886 273.272568 
L 129.221755 273.272568 
z
" style="fill:#1f77b4;"/>
   </g>
   <g id="patch_53">
    <path clip-path="url(#p007b663618)" d="M 130.515668 288.430125 
L 131.550799 288.430125 
L 131.550799 273.933574 
L 130.515668 273.933574 
z
" style="fill:#1f77b4;"/>
   </g>
   <g id="patch_54">
    <path clip-path="url(#p007b663618)" d="M 131.809582 288.430125 
L 132.844712 288.430125 
L 132.844712 274.480614 
L 131.809582 274.480614 
z
" style="fill:#1f77b4;"/>
   </g>
   <g id="patch_55">
    <path clip-path="url(#p007b663618)" d="M 133.103495 288.430125 
L 134.138625 288.430125 
L 134.138625 275.232793 
L 133.103495 275.232793 
z
" style="fill:#1f77b4;"/>
   </g>
   <g id="patch_56">
    <path clip-path="url(#p007b663618)" d="M 134.397408 288.430125 
L 135.432538 288.430125 
L 135.432538 275.871006 
L 134.397408 275.871006 
z
" style="fill:#1f77b4;"/>
   </g>
   <g id="patch_57">
    <path clip-path="url(#p007b663618)" d="M 135.691321 288.430125 
L 136.726451 288.430125 
L 136.726451 276.987879 
L 135.691321 276.987879 
z
" style="fill:#1f77b4;"/>
   </g>
   <g id="patch_58">
    <path clip-path="url(#p007b663618)" d="M 136.985234 288.430125 
L 138.020364 288.430125 
L 138.020364 277.648885 
L 136.985234 277.648885 
z
" style="fill:#1f77b4;"/>
   </g>
   <g id="patch_59">
    <path clip-path="url(#p007b663618)" d="M 138.279147 288.430125 
L 139.314277 288.430125 
L 139.314277 277.967992 
L 138.279147 277.967992 
z
" style="fill:#1f77b4;"/>
   </g>
   <g id="patch_60">
    <path clip-path="url(#p007b663618)" d="M 139.57306 288.430125 
L 140.60819 288.430125 
L 140.60819 278.241511 
L 139.57306 278.241511 
z
" style="fill:#1f77b4;"/>
   </g>
   <g id="patch_61">
    <path clip-path="url(#p007b663618)" d="M 140.866973 288.430125 
L 141.902103 288.430125 
L 141.902103 278.469445 
L 140.866973 278.469445 
z
" style="fill:#1f77b4;"/>
   </g>
   <g id="patch_62">
    <path clip-path="url(#p007b663618)" d="M 142.160886 288.430125 
L 143.196016 288.430125 
L 143.196016 279.016484 
L 142.160886 279.016484 
z
" style="fill:#1f77b4;"/>
   </g>
   <g id="patch_63">
    <path clip-path="url(#p007b663618)" d="M 143.454799 288.430125 
L 144.489929 288.430125 
L 144.489929 279.768664 
L 143.454799 279.768664 
z
" style="fill:#1f77b4;"/>
   </g>
   <g id="patch_64">
    <path clip-path="url(#p007b663618)" d="M 144.748712 288.430125 
L 145.783842 288.430125 
L 145.783842 280.247323 
L 144.748712 280.247323 
z
" style="fill:#1f77b4;"/>
   </g>
   <g id="patch_65">
    <path clip-path="url(#p007b663618)" d="M 146.042625 288.430125 
L 147.077755 288.430125 
L 147.077755 280.725983 
L 146.042625 280.725983 
z
" style="fill:#1f77b4;"/>
   </g>
   <g id="patch_66">
    <path clip-path="url(#p007b663618)" d="M 147.336538 288.430125 
L 148.371668 288.430125 
L 148.371668 281.295816 
L 147.336538 281.295816 
z
" style="fill:#1f77b4;"/>
   </g>
   <g id="patch_67">
    <path clip-path="url(#p007b663618)" d="M 148.630451 288.430125 
L 149.665582 288.430125 
L 149.665582 281.432576 
L 148.630451 281.432576 
z
" style="fill:#1f77b4;"/>
   </g>
   <g id="patch_68">
    <path clip-path="url(#p007b663618)" d="M 149.924364 288.430125 
L 150.959495 288.430125 
L 150.959495 281.409783 
L 149.924364 281.409783 
z
" style="fill:#1f77b4;"/>
   </g>
   <g id="patch_69">
    <path clip-path="url(#p007b663618)" d="M 151.218277 288.430125 
L 152.253408 288.430125 
L 152.253408 282.230342 
L 151.218277 282.230342 
z
" style="fill:#1f77b4;"/>
   </g>
   <g id="patch_70">
    <path clip-path="url(#p007b663618)" d="M 152.51219 288.430125 
L 153.547321 288.430125 
L 153.547321 282.731795 
L 152.51219 282.731795 
z
" style="fill:#1f77b4;"/>
   </g>
   <g id="patch_71">
    <path clip-path="url(#p007b663618)" d="M 153.806103 288.430125 
L 154.841234 288.430125 
L 154.841234 283.324422 
L 153.806103 283.324422 
z
" style="fill:#1f77b4;"/>
   </g>
   <g id="patch_72">
    <path clip-path="url(#p007b663618)" d="M 155.100016 288.430125 
L 156.135147 288.430125 
L 156.135147 283.552355 
L 155.100016 283.552355 
z
" style="fill:#1f77b4;"/>
   </g>
   <g id="patch_73">
    <path clip-path="url(#p007b663618)" d="M 156.393929 288.430125 
L 157.42906 288.430125 
L 157.42906 284.008221 
L 156.393929 284.008221 
z
" style="fill:#1f77b4;"/>
   </g>
   <g id="patch_74">
    <path clip-path="url(#p007b663618)" d="M 157.687842 288.430125 
L 158.722973 288.430125 
L 158.722973 284.258948 
L 157.687842 284.258948 
z
" style="fill:#1f77b4;"/>
   </g>
   <g id="patch_75">
    <path clip-path="url(#p007b663618)" d="M 158.981755 288.430125 
L 160.016886 288.430125 
L 160.016886 284.350121 
L 158.981755 284.350121 
z
" style="fill:#1f77b4;"/>
   </g>
   <g id="patch_76">
    <path clip-path="url(#p007b663618)" d="M 160.275668 288.430125 
L 161.310799 288.430125 
L 161.310799 284.532467 
L 160.275668 284.532467 
z
" style="fill:#1f77b4;"/>
   </g>
   <g id="patch_77">
    <path clip-path="url(#p007b663618)" d="M 161.569582 288.430125 
L 162.604712 288.430125 
L 162.604712 284.851574 
L 161.569582 284.851574 
z
" style="fill:#1f77b4;"/>
   </g>
   <g id="patch_78">
    <path clip-path="url(#p007b663618)" d="M 162.863495 288.430125 
L 163.898625 288.430125 
L 163.898625 284.919954 
L 162.863495 284.919954 
z
" style="fill:#1f77b4;"/>
   </g>
   <g id="patch_79">
    <path clip-path="url(#p007b663618)" d="M 164.157408 288.430125 
L 165.192538 288.430125 
L 165.192538 285.30744 
L 164.157408 285.30744 
z
" style="fill:#1f77b4;"/>
   </g>
   <g id="patch_80">
    <path clip-path="url(#p007b663618)" d="M 165.451321 288.430125 
L 166.486451 288.430125 
L 166.486451 285.535373 
L 165.451321 285.535373 
z
" style="fill:#1f77b4;"/>
   </g>
   <g id="patch_81">
    <path clip-path="url(#p007b663618)" d="M 166.745234 288.430125 
L 167.780364 288.430125 
L 167.780364 285.64934 
L 166.745234 285.64934 
z
" style="fill:#1f77b4;"/>
   </g>
   <g id="patch_82">
    <path clip-path="url(#p007b663618)" d="M 168.039147 288.430125 
L 169.074277 288.430125 
L 169.074277 285.71772 
L 168.039147 285.71772 
z
" style="fill:#1f77b4;"/>
   </g>
   <g id="patch_83">
    <path clip-path="url(#p007b663618)" d="M 169.33306 288.430125 
L 170.36819 288.430125 
L 170.36819 285.71772 
L 169.33306 285.71772 
z
" style="fill:#1f77b4;"/>
   </g>
   <g id="patch_84">
    <path clip-path="url(#p007b663618)" d="M 170.626973 288.430125 
L 171.662103 288.430125 
L 171.662103 285.900067 
L 170.626973 285.900067 
z
" style="fill:#1f77b4;"/>
   </g>
   <g id="patch_85">
    <path clip-path="url(#p007b663618)" d="M 171.920886 288.430125 
L 172.956016 288.430125 
L 172.956016 286.150793 
L 171.920886 286.150793 
z
" style="fill:#1f77b4;"/>
   </g>
   <g id="patch_86">
    <path clip-path="url(#p007b663618)" d="M 173.214799 288.430125 
L 174.249929 288.430125 
L 174.249929 286.173586 
L 173.214799 286.173586 
z
" style="fill:#1f77b4;"/>
   </g>
   <g id="patch_87">
    <path clip-path="url(#p007b663618)" d="M 174.508712 288.430125 
L 175.543842 288.430125 
L 175.543842 286.241966 
L 174.508712 286.241966 
z
" style="fill:#1f77b4;"/>
   </g>
   <g id="patch_88">
    <path clip-path="url(#p007b663618)" d="M 175.802625 288.430125 
L 176.837755 288.430125 
L 176.837755 286.26476 
L 175.802625 286.26476 
z
" style="fill:#1f77b4;"/>
   </g>
   <g id="patch_89">
    <path clip-path="url(#p007b663618)" d="M 177.096538 288.430125 
L 178.131668 288.430125 
L 178.131668 286.310346 
L 177.096538 286.310346 
z
" style="fill:#1f77b4;"/>
   </g>
   <g id="patch_90">
    <path clip-path="url(#p007b663618)" d="M 178.390451 288.430125 
L 179.425582 288.430125 
L 179.425582 286.33314 
L 178.390451 286.33314 
z
" style="fill:#1f77b4;"/>
   </g>
   <g id="patch_91">
    <path clip-path="url(#p007b663618)" d="M 179.684364 288.430125 
L 180.719495 288.430125 
L 180.719495 286.173586 
L 179.684364 286.173586 
z
" style="fill:#1f77b4;"/>
   </g>
   <g id="patch_92">
    <path clip-path="url(#p007b663618)" d="M 180.978277 288.430125 
L 182.013408 288.430125 
L 182.013408 286.128 
L 180.978277 286.128 
z
" style="fill:#1f77b4;"/>
   </g>
   <g id="patch_93">
    <path clip-path="url(#p007b663618)" d="M 182.27219 288.430125 
L 183.307321 288.430125 
L 183.307321 286.26476 
L 182.27219 286.26476 
z
" style="fill:#1f77b4;"/>
   </g>
   <g id="patch_94">
    <path clip-path="url(#p007b663618)" d="M 183.566103 288.430125 
L 184.601234 288.430125 
L 184.601234 286.26476 
L 183.566103 286.26476 
z
" style="fill:#1f77b4;"/>
   </g>
   <g id="patch_95">
    <path clip-path="url(#p007b663618)" d="M 184.860016 288.430125 
L 185.895147 288.430125 
L 185.895147 286.287553 
L 184.860016 286.287553 
z
" style="fill:#1f77b4;"/>
   </g>
   <g id="patch_96">
    <path clip-path="url(#p007b663618)" d="M 186.153929 288.430125 
L 187.18906 288.430125 
L 187.18906 286.310346 
L 186.153929 286.310346 
z
" style="fill:#1f77b4;"/>
   </g>
   <g id="patch_97">
    <path clip-path="url(#p007b663618)" d="M 187.447842 288.430125 
L 188.482973 288.430125 
L 188.482973 286.447106 
L 187.447842 286.447106 
z
" style="fill:#1f77b4;"/>
   </g>
   <g id="patch_98">
    <path clip-path="url(#p007b663618)" d="M 188.741755 288.430125 
L 189.776886 288.430125 
L 189.776886 286.492693 
L 188.741755 286.492693 
z
" style="fill:#1f77b4;"/>
   </g>
   <g id="patch_99">
    <path clip-path="url(#p007b663618)" d="M 190.035668 288.430125 
L 191.070799 288.430125 
L 191.070799 286.720626 
L 190.035668 286.720626 
z
" style="fill:#1f77b4;"/>
   </g>
   <g id="patch_100">
    <path clip-path="url(#p007b663618)" d="M 191.329582 288.430125 
L 192.364712 288.430125 
L 192.364712 286.697833 
L 191.329582 286.697833 
z
" style="fill:#1f77b4;"/>
   </g>
   <g id="patch_101">
    <path clip-path="url(#p007b663618)" d="M 192.623495 288.430125 
L 193.658625 288.430125 
L 193.658625 286.720626 
L 192.623495 286.720626 
z
" style="fill:#1f77b4;"/>
   </g>
   <g id="patch_102">
    <path clip-path="url(#p007b663618)" d="M 193.917408 288.430125 
L 194.952538 288.430125 
L 194.952538 286.40152 
L 193.917408 286.40152 
z
" style="fill:#1f77b4;"/>
   </g>
   <g id="patch_103">
    <path clip-path="url(#p007b663618)" d="M 195.211321 288.430125 
L 196.246451 288.430125 
L 196.246451 286.40152 
L 195.211321 286.40152 
z
" style="fill:#1f77b4;"/>
   </g>
   <g id="patch_104">
    <path clip-path="url(#p007b663618)" d="M 196.505234 288.430125 
L 197.540364 288.430125 
L 197.540364 286.378726 
L 196.505234 286.378726 
z
" style="fill:#1f77b4;"/>
   </g>
   <g id="patch_105">
    <path clip-path="url(#p007b663618)" d="M 197.799147 288.430125 
L 198.834277 288.430125 
L 198.834277 286.447106 
L 197.799147 286.447106 
z
" style="fill:#1f77b4;"/>
   </g>
   <g id="patch_106">
    <path clip-path="url(#p007b663618)" d="M 199.09306 288.430125 
L 200.12819 288.430125 
L 200.12819 286.492693 
L 199.09306 286.492693 
z
" style="fill:#1f77b4;"/>
   </g>
   <g id="patch_107">
    <path clip-path="url(#p007b663618)" d="M 200.386973 288.430125 
L 201.422103 288.430125 
L 201.422103 286.447106 
L 200.386973 286.447106 
z
" style="fill:#1f77b4;"/>
   </g>
   <g id="patch_108">
    <path clip-path="url(#p007b663618)" d="M 201.680886 288.430125 
L 202.716016 288.430125 
L 202.716016 286.492693 
L 201.680886 286.492693 
z
" style="fill:#1f77b4;"/>
   </g>
   <g id="patch_109">
    <path clip-path="url(#p007b663618)" d="M 202.974799 288.430125 
L 204.009929 288.430125 
L 204.009929 286.492693 
L 202.974799 286.492693 
z
" style="fill:#1f77b4;"/>
   </g>
   <g id="patch_110">
    <path clip-path="url(#p007b663618)" d="M 204.268712 288.430125 
L 205.303842 288.430125 
L 205.303842 286.515486 
L 204.268712 286.515486 
z
" style="fill:#1f77b4;"/>
   </g>
   <g id="patch_111">
    <path clip-path="url(#p007b663618)" d="M 205.562625 288.430125 
L 206.597755 288.430125 
L 206.597755 286.53828 
L 205.562625 286.53828 
z
" style="fill:#1f77b4;"/>
   </g>
   <g id="patch_112">
    <path clip-path="url(#p007b663618)" d="M 206.856538 288.430125 
L 207.891668 288.430125 
L 207.891668 286.515486 
L 206.856538 286.515486 
z
" style="fill:#1f77b4;"/>
   </g>
   <g id="patch_113">
    <path clip-path="url(#p007b663618)" d="M 208.150451 288.430125 
L 209.185582 288.430125 
L 209.185582 286.53828 
L 208.150451 286.53828 
z
" style="fill:#1f77b4;"/>
   </g>
   <g id="patch_114">
    <path clip-path="url(#p007b663618)" d="M 209.444364 288.430125 
L 210.479495 288.430125 
L 210.479495 286.4699 
L 209.444364 286.4699 
z
" style="fill:#1f77b4;"/>
   </g>
   <g id="patch_115">
    <path clip-path="url(#p007b663618)" d="M 210.738277 288.430125 
L 211.773408 288.430125 
L 211.773408 286.492693 
L 210.738277 286.492693 
z
" style="fill:#1f77b4;"/>
   </g>
   <g id="patch_116">
    <path clip-path="url(#p007b663618)" d="M 212.03219 288.430125 
L 213.067321 288.430125 
L 213.067321 286.53828 
L 212.03219 286.53828 
z
" style="fill:#1f77b4;"/>
   </g>
   <g id="patch_117">
    <path clip-path="url(#p007b663618)" d="M 213.326103 288.430125 
L 214.361234 288.430125 
L 214.361234 286.53828 
L 213.326103 286.53828 
z
" style="fill:#1f77b4;"/>
   </g>
   <g id="patch_118">
    <path clip-path="url(#p007b663618)" d="M 214.620016 288.430125 
L 215.655147 288.430125 
L 215.655147 286.53828 
L 214.620016 286.53828 
z
" style="fill:#1f77b4;"/>
   </g>
   <g id="patch_119">
    <path clip-path="url(#p007b663618)" d="M 215.913929 288.430125 
L 216.94906 288.430125 
L 216.94906 286.515486 
L 215.913929 286.515486 
z
" style="fill:#1f77b4;"/>
   </g>
   <g id="patch_120">
    <path clip-path="url(#p007b663618)" d="M 217.207842 288.430125 
L 218.242973 288.430125 
L 218.242973 286.4699 
L 217.207842 286.4699 
z
" style="fill:#1f77b4;"/>
   </g>
   <g id="patch_121">
    <path clip-path="url(#p007b663618)" d="M 218.501755 288.430125 
L 219.536886 288.430125 
L 219.536886 286.561073 
L 218.501755 286.561073 
z
" style="fill:#1f77b4;"/>
   </g>
   <g id="patch_122">
    <path clip-path="url(#p007b663618)" d="M 219.795668 288.430125 
L 220.830799 288.430125 
L 220.830799 286.424313 
L 219.795668 286.424313 
z
" style="fill:#1f77b4;"/>
   </g>
   <g id="patch_123">
    <path clip-path="url(#p007b663618)" d="M 221.089582 288.430125 
L 222.124712 288.430125 
L 222.124712 286.26476 
L 221.089582 286.26476 
z
" style="fill:#1f77b4;"/>
   </g>
   <g id="patch_124">
    <path clip-path="url(#p007b663618)" d="M 222.383495 288.430125 
L 223.418625 288.430125 
L 223.418625 286.26476 
L 222.383495 286.26476 
z
" style="fill:#1f77b4;"/>
   </g>
   <g id="patch_125">
    <path clip-path="url(#p007b663618)" d="M 223.677408 288.430125 
L 224.712538 288.430125 
L 224.712538 286.219173 
L 223.677408 286.219173 
z
" style="fill:#1f77b4;"/>
   </g>
   <g id="patch_126">
    <path clip-path="url(#p007b663618)" d="M 224.971321 288.430125 
L 226.006451 288.430125 
L 226.006451 286.150793 
L 224.971321 286.150793 
z
" style="fill:#1f77b4;"/>
   </g>
   <g id="patch_127">
    <path clip-path="url(#p007b663618)" d="M 226.265234 288.430125 
L 227.300364 288.430125 
L 227.300364 286.128 
L 226.265234 286.128 
z
" style="fill:#1f77b4;"/>
   </g>
   <g id="patch_128">
    <path clip-path="url(#p007b663618)" d="M 227.559147 288.430125 
L 228.594277 288.430125 
L 228.594277 286.128 
L 227.559147 286.128 
z
" style="fill:#1f77b4;"/>
   </g>
   <g id="patch_129">
    <path clip-path="url(#p007b663618)" d="M 228.85306 288.430125 
L 229.88819 288.430125 
L 229.88819 286.128 
L 228.85306 286.128 
z
" style="fill:#1f77b4;"/>
   </g>
   <g id="patch_130">
    <path clip-path="url(#p007b663618)" d="M 230.146973 288.430125 
L 231.182103 288.430125 
L 231.182103 286.150793 
L 230.146973 286.150793 
z
" style="fill:#1f77b4;"/>
   </g>
   <g id="patch_131">
    <path clip-path="url(#p007b663618)" d="M 231.440886 288.430125 
L 232.476016 288.430125 
L 232.476016 286.173586 
L 231.440886 286.173586 
z
" style="fill:#1f77b4;"/>
   </g>
   <g id="patch_132">
    <path clip-path="url(#p007b663618)" d="M 232.734799 288.430125 
L 233.769929 288.430125 
L 233.769929 286.241966 
L 232.734799 286.241966 
z
" style="fill:#1f77b4;"/>
   </g>
   <g id="patch_133">
    <path clip-path="url(#p007b663618)" d="M 234.028712 288.430125 
L 235.063842 288.430125 
L 235.063842 286.40152 
L 234.028712 286.40152 
z
" style="fill:#1f77b4;"/>
   </g>
   <g id="patch_134">
    <path clip-path="url(#p007b663618)" d="M 235.322625 288.430125 
L 236.357755 288.430125 
L 236.357755 286.53828 
L 235.322625 286.53828 
z
" style="fill:#1f77b4;"/>
   </g>
   <g id="patch_135">
    <path clip-path="url(#p007b663618)" d="M 236.616538 288.430125 
L 237.651668 288.430125 
L 237.651668 286.447106 
L 236.616538 286.447106 
z
" style="fill:#1f77b4;"/>
   </g>
   <g id="patch_136">
    <path clip-path="url(#p007b663618)" d="M 237.910451 288.430125 
L 238.945582 288.430125 
L 238.945582 286.33314 
L 237.910451 286.33314 
z
" style="fill:#1f77b4;"/>
   </g>
   <g id="patch_137">
    <path clip-path="url(#p007b663618)" d="M 239.204364 288.430125 
L 240.239495 288.430125 
L 240.239495 286.287553 
L 239.204364 286.287553 
z
" style="fill:#1f77b4;"/>
   </g>
   <g id="patch_138">
    <path clip-path="url(#p007b663618)" d="M 240.498277 288.430125 
L 241.533408 288.430125 
L 241.533408 286.492693 
L 240.498277 286.492693 
z
" style="fill:#1f77b4;"/>
   </g>
   <g id="patch_139">
    <path clip-path="url(#p007b663618)" d="M 241.79219 288.430125 
L 242.827321 288.430125 
L 242.827321 286.4699 
L 241.79219 286.4699 
z
" style="fill:#1f77b4;"/>
   </g>
   <g id="patch_140">
    <path clip-path="url(#p007b663618)" d="M 243.086103 288.430125 
L 244.121234 288.430125 
L 244.121234 286.33314 
L 243.086103 286.33314 
z
" style="fill:#1f77b4;"/>
   </g>
   <g id="patch_141">
    <path clip-path="url(#p007b663618)" d="M 244.380016 288.430125 
L 245.415147 288.430125 
L 245.415147 286.105206 
L 244.380016 286.105206 
z
" style="fill:#1f77b4;"/>
   </g>
   <g id="patch_142">
    <path clip-path="url(#p007b663618)" d="M 245.673929 288.430125 
L 246.70906 288.430125 
L 246.70906 285.99124 
L 245.673929 285.99124 
z
" style="fill:#1f77b4;"/>
   </g>
   <g id="patch_143">
    <path clip-path="url(#p007b663618)" d="M 246.967842 288.430125 
L 248.002973 288.430125 
L 248.002973 285.99124 
L 246.967842 285.99124 
z
" style="fill:#1f77b4;"/>
   </g>
   <g id="patch_144">
    <path clip-path="url(#p007b663618)" d="M 248.261755 288.430125 
L 249.296886 288.430125 
L 249.296886 285.877273 
L 248.261755 285.877273 
z
" style="fill:#1f77b4;"/>
   </g>
   <g id="patch_145">
    <path clip-path="url(#p007b663618)" d="M 249.555668 288.430125 
L 250.590799 288.430125 
L 250.590799 285.71772 
L 249.555668 285.71772 
z
" style="fill:#1f77b4;"/>
   </g>
   <g id="patch_146">
    <path clip-path="url(#p007b663618)" d="M 250.849582 288.430125 
L 251.884712 288.430125 
L 251.884712 285.7861 
L 250.849582 285.7861 
z
" style="fill:#1f77b4;"/>
   </g>
   <g id="patch_147">
    <path clip-path="url(#p007b663618)" d="M 252.143495 288.430125 
L 253.178625 288.430125 
L 253.178625 285.603753 
L 252.143495 285.603753 
z
" style="fill:#1f77b4;"/>
   </g>
   <g id="patch_148">
    <path clip-path="url(#p007b663618)" d="M 253.437408 288.430125 
L 254.472538 288.430125 
L 254.472538 285.51258 
L 253.437408 285.51258 
z
" style="fill:#1f77b4;"/>
   </g>
   <g id="patch_149">
    <path clip-path="url(#p007b663618)" d="M 254.731321 288.430125 
L 255.766451 288.430125 
L 255.766451 285.626547 
L 254.731321 285.626547 
z
" style="fill:#1f77b4;"/>
   </g>
   <g id="patch_150">
    <path clip-path="url(#p007b663618)" d="M 256.025234 288.430125 
L 257.060364 288.430125 
L 257.060364 285.51258 
L 256.025234 285.51258 
z
" style="fill:#1f77b4;"/>
   </g>
   <g id="patch_151">
    <path clip-path="url(#p007b663618)" d="M 257.319147 288.430125 
L 258.354277 288.430125 
L 258.354277 285.51258 
L 257.319147 285.51258 
z
" style="fill:#1f77b4;"/>
   </g>
   <g id="patch_152">
    <path clip-path="url(#p007b663618)" d="M 258.61306 288.430125 
L 259.64819 288.430125 
L 259.64819 285.51258 
L 258.61306 285.51258 
z
" style="fill:#1f77b4;"/>
   </g>
   <g id="patch_153">
    <path clip-path="url(#p007b663618)" d="M 259.906973 288.430125 
L 260.942103 288.430125 
L 260.942103 285.466994 
L 259.906973 285.466994 
z
" style="fill:#1f77b4;"/>
   </g>
   <g id="patch_154">
    <path clip-path="url(#p007b663618)" d="M 261.200886 288.430125 
L 262.236016 288.430125 
L 262.236016 285.64934 
L 261.200886 285.64934 
z
" style="fill:#1f77b4;"/>
   </g>
   <g id="patch_155">
    <path clip-path="url(#p007b663618)" d="M 262.494799 288.430125 
L 263.529929 288.430125 
L 263.529929 285.626547 
L 262.494799 285.626547 
z
" style="fill:#1f77b4;"/>
   </g>
   <g id="patch_156">
    <path clip-path="url(#p007b663618)" d="M 263.788712 288.430125 
L 264.823842 288.430125 
L 264.823842 285.558167 
L 263.788712 285.558167 
z
" style="fill:#1f77b4;"/>
   </g>
   <g id="patch_157">
    <path clip-path="url(#p007b663618)" d="M 265.082625 288.430125 
L 266.117755 288.430125 
L 266.117755 285.489787 
L 265.082625 285.489787 
z
" style="fill:#1f77b4;"/>
   </g>
   <g id="patch_158">
    <path clip-path="url(#p007b663618)" d="M 266.376538 288.430125 
L 267.411668 288.430125 
L 267.411668 285.535373 
L 266.376538 285.535373 
z
" style="fill:#1f77b4;"/>
   </g>
   <g id="patch_159">
    <path clip-path="url(#p007b663618)" d="M 267.670451 288.430125 
L 268.705582 288.430125 
L 268.705582 285.535373 
L 267.670451 285.535373 
z
" style="fill:#1f77b4;"/>
   </g>
   <g id="patch_160">
    <path clip-path="url(#p007b663618)" d="M 268.964364 288.430125 
L 269.999495 288.430125 
L 269.999495 285.64934 
L 268.964364 285.64934 
z
" style="fill:#1f77b4;"/>
   </g>
   <g id="patch_161">
    <path clip-path="url(#p007b663618)" d="M 270.258277 288.430125 
L 271.293408 288.430125 
L 271.293408 285.261854 
L 270.258277 285.261854 
z
" style="fill:#1f77b4;"/>
   </g>
   <g id="patch_162">
    <path clip-path="url(#p007b663618)" d="M 271.55219 288.430125 
L 272.587321 288.430125 
L 272.587321 285.216267 
L 271.55219 285.216267 
z
" style="fill:#1f77b4;"/>
   </g>
   <g id="patch_163">
    <path clip-path="url(#p007b663618)" d="M 272.846103 288.430125 
L 273.881234 288.430125 
L 273.881234 285.193474 
L 272.846103 285.193474 
z
" style="fill:#1f77b4;"/>
   </g>
   <g id="patch_164">
    <path clip-path="url(#p007b663618)" d="M 274.140016 288.430125 
L 275.175147 288.430125 
L 275.175147 284.851574 
L 274.140016 284.851574 
z
" style="fill:#1f77b4;"/>
   </g>
   <g id="patch_165">
    <path clip-path="url(#p007b663618)" d="M 275.433929 288.430125 
L 276.46906 288.430125 
L 276.46906 284.509674 
L 275.433929 284.509674 
z
" style="fill:#1f77b4;"/>
   </g>
   <g id="patch_166">
    <path clip-path="url(#p007b663618)" d="M 276.727842 288.430125 
L 277.762973 288.430125 
L 277.762973 284.350121 
L 276.727842 284.350121 
z
" style="fill:#1f77b4;"/>
   </g>
   <g id="patch_167">
    <path clip-path="url(#p007b663618)" d="M 278.021755 288.430125 
L 279.056886 288.430125 
L 279.056886 284.372914 
L 278.021755 284.372914 
z
" style="fill:#1f77b4;"/>
   </g>
   <g id="patch_168">
    <path clip-path="url(#p007b663618)" d="M 279.315668 288.430125 
L 280.350799 288.430125 
L 280.350799 284.213361 
L 279.315668 284.213361 
z
" style="fill:#1f77b4;"/>
   </g>
   <g id="patch_169">
    <path clip-path="url(#p007b663618)" d="M 280.609582 288.430125 
L 281.644712 288.430125 
L 281.644712 284.122188 
L 280.609582 284.122188 
z
" style="fill:#1f77b4;"/>
   </g>
   <g id="patch_170">
    <path clip-path="url(#p007b663618)" d="M 281.903495 288.430125 
L 282.938625 288.430125 
L 282.938625 284.099394 
L 281.903495 284.099394 
z
" style="fill:#1f77b4;"/>
   </g>
   <g id="patch_171">
    <path clip-path="url(#p007b663618)" d="M 283.197408 288.430125 
L 284.232538 288.430125 
L 284.232538 284.099394 
L 283.197408 284.099394 
z
" style="fill:#1f77b4;"/>
   </g>
   <g id="patch_172">
    <path clip-path="url(#p007b663618)" d="M 284.491321 288.430125 
L 285.526451 288.430125 
L 285.526451 284.099394 
L 284.491321 284.099394 
z
" style="fill:#1f77b4;"/>
   </g>
   <g id="patch_173">
    <path clip-path="url(#p007b663618)" d="M 285.785234 288.430125 
L 286.820364 288.430125 
L 286.820364 283.848668 
L 285.785234 283.848668 
z
" style="fill:#1f77b4;"/>
   </g>
   <g id="patch_174">
    <path clip-path="url(#p007b663618)" d="M 287.079147 288.430125 
L 288.114277 288.430125 
L 288.114277 283.734701 
L 287.079147 283.734701 
z
" style="fill:#1f77b4;"/>
   </g>
   <g id="patch_175">
    <path clip-path="url(#p007b663618)" d="M 288.37306 288.430125 
L 289.40819 288.430125 
L 289.40819 283.734701 
L 288.37306 283.734701 
z
" style="fill:#1f77b4;"/>
   </g>
   <g id="patch_176">
    <path clip-path="url(#p007b663618)" d="M 289.666973 288.430125 
L 290.702103 288.430125 
L 290.702103 283.666321 
L 289.666973 283.666321 
z
" style="fill:#1f77b4;"/>
   </g>
   <g id="patch_177">
    <path clip-path="url(#p007b663618)" d="M 290.960886 288.430125 
L 291.996016 288.430125 
L 291.996016 283.461181 
L 290.960886 283.461181 
z
" style="fill:#1f77b4;"/>
   </g>
   <g id="patch_178">
    <path clip-path="url(#p007b663618)" d="M 292.254799 288.430125 
L 293.289929 288.430125 
L 293.289929 283.461181 
L 292.254799 283.461181 
z
" style="fill:#1f77b4;"/>
   </g>
   <g id="patch_179">
    <path clip-path="url(#p007b663618)" d="M 293.548712 288.430125 
L 294.583842 288.430125 
L 294.583842 283.529561 
L 293.548712 283.529561 
z
" style="fill:#1f77b4;"/>
   </g>
   <g id="patch_180">
    <path clip-path="url(#p007b663618)" d="M 294.842625 288.430125 
L 295.877755 288.430125 
L 295.877755 283.461181 
L 294.842625 283.461181 
z
" style="fill:#1f77b4;"/>
   </g>
   <g id="patch_181">
    <path clip-path="url(#p007b663618)" d="M 296.136538 288.430125 
L 297.171668 288.430125 
L 297.171668 283.347215 
L 296.136538 283.347215 
z
" style="fill:#1f77b4;"/>
   </g>
   <g id="patch_182">
    <path clip-path="url(#p007b663618)" d="M 297.430451 288.430125 
L 298.465582 288.430125 
L 298.465582 282.982522 
L 297.430451 282.982522 
z
" style="fill:#1f77b4;"/>
   </g>
   <g id="patch_183">
    <path clip-path="url(#p007b663618)" d="M 298.724364 288.430125 
L 299.759495 288.430125 
L 299.759495 282.617829 
L 298.724364 282.617829 
z
" style="fill:#1f77b4;"/>
   </g>
   <g id="patch_184">
    <path clip-path="url(#p007b663618)" d="M 300.018277 288.430125 
L 301.053408 288.430125 
L 301.053408 282.367102 
L 300.018277 282.367102 
z
" style="fill:#1f77b4;"/>
   </g>
   <g id="patch_185">
    <path clip-path="url(#p007b663618)" d="M 301.31219 288.430125 
L 302.347321 288.430125 
L 302.347321 281.683303 
L 301.31219 281.683303 
z
" style="fill:#1f77b4;"/>
   </g>
   <g id="patch_186">
    <path clip-path="url(#p007b663618)" d="M 302.606103 288.430125 
L 303.641234 288.430125 
L 303.641234 281.523749 
L 302.606103 281.523749 
z
" style="fill:#1f77b4;"/>
   </g>
   <g id="patch_187">
    <path clip-path="url(#p007b663618)" d="M 303.900016 288.430125 
L 304.935147 288.430125 
L 304.935147 281.136263 
L 303.900016 281.136263 
z
" style="fill:#1f77b4;"/>
   </g>
   <g id="patch_188">
    <path clip-path="url(#p007b663618)" d="M 305.193929 288.430125 
L 306.22906 288.430125 
L 306.22906 281.067883 
L 305.193929 281.067883 
z
" style="fill:#1f77b4;"/>
   </g>
   <g id="patch_189">
    <path clip-path="url(#p007b663618)" d="M 306.487842 288.430125 
L 307.522973 288.430125 
L 307.522973 280.999503 
L 306.487842 280.999503 
z
" style="fill:#1f77b4;"/>
   </g>
   <g id="patch_190">
    <path clip-path="url(#p007b663618)" d="M 307.781755 288.430125 
L 308.816886 288.430125 
L 308.816886 279.654697 
L 307.781755 279.654697 
z
" style="fill:#1f77b4;"/>
   </g>
   <g id="patch_191">
    <path clip-path="url(#p007b663618)" d="M 309.075668 288.430125 
L 310.110799 288.430125 
L 310.110799 279.198831 
L 309.075668 279.198831 
z
" style="fill:#1f77b4;"/>
   </g>
   <g id="patch_192">
    <path clip-path="url(#p007b663618)" d="M 310.369582 288.430125 
L 311.404712 288.430125 
L 311.404712 278.811344 
L 310.369582 278.811344 
z
" style="fill:#1f77b4;"/>
   </g>
   <g id="patch_193">
    <path clip-path="url(#p007b663618)" d="M 311.663495 288.430125 
L 312.698625 288.430125 
L 312.698625 278.401065 
L 311.663495 278.401065 
z
" style="fill:#1f77b4;"/>
   </g>
   <g id="patch_194">
    <path clip-path="url(#p007b663618)" d="M 312.957408 288.430125 
L 313.992538 288.430125 
L 313.992538 278.218718 
L 312.957408 278.218718 
z
" style="fill:#1f77b4;"/>
   </g>
   <g id="patch_195">
    <path clip-path="url(#p007b663618)" d="M 314.251321 288.430125 
L 315.286451 288.430125 
L 315.286451 277.740058 
L 314.251321 277.740058 
z
" style="fill:#1f77b4;"/>
   </g>
   <g id="patch_196">
    <path clip-path="url(#p007b663618)" d="M 315.545234 288.430125 
L 316.580364 288.430125 
L 316.580364 277.375365 
L 315.545234 277.375365 
z
" style="fill:#1f77b4;"/>
   </g>
   <g id="patch_197">
    <path clip-path="url(#p007b663618)" d="M 316.839147 288.430125 
L 317.874277 288.430125 
L 317.874277 276.714359 
L 316.839147 276.714359 
z
" style="fill:#1f77b4;"/>
   </g>
   <g id="patch_198">
    <path clip-path="url(#p007b663618)" d="M 318.13306 288.430125 
L 319.16819 288.430125 
L 319.16819 276.121733 
L 318.13306 276.121733 
z
" style="fill:#1f77b4;"/>
   </g>
   <g id="patch_199">
    <path clip-path="url(#p007b663618)" d="M 319.426973 288.430125 
L 320.462103 288.430125 
L 320.462103 275.962179 
L 319.426973 275.962179 
z
" style="fill:#1f77b4;"/>
   </g>
   <g id="patch_200">
    <path clip-path="url(#p007b663618)" d="M 320.720886 288.430125 
L 321.756016 288.430125 
L 321.756016 275.665866 
L 320.720886 275.665866 
z
" style="fill:#1f77b4;"/>
   </g>
   <g id="patch_201">
    <path clip-path="url(#p007b663618)" d="M 322.014799 288.430125 
L 323.049929 288.430125 
L 323.049929 275.529106 
L 322.014799 275.529106 
z
" style="fill:#1f77b4;"/>
   </g>
   <g id="patch_202">
    <path clip-path="url(#p007b663618)" d="M 323.308712 288.430125 
L 324.343842 288.430125 
L 324.343842 275.643073 
L 323.308712 275.643073 
z
" style="fill:#1f77b4;"/>
   </g>
   <g id="patch_203">
    <path clip-path="url(#p007b663618)" d="M 324.602625 288.430125 
L 325.637755 288.430125 
L 325.637755 275.164413 
L 324.602625 275.164413 
z
" style="fill:#1f77b4;"/>
   </g>
   <g id="patch_204">
    <path clip-path="url(#p007b663618)" d="M 325.896538 288.430125 
L 326.931668 288.430125 
L 326.931668 275.096033 
L 325.896538 275.096033 
z
" style="fill:#1f77b4;"/>
   </g>
   <g id="patch_205">
    <path clip-path="url(#p007b663618)" d="M 327.190451 288.430125 
L 328.225582 288.430125 
L 328.225582 274.66296 
L 327.190451 274.66296 
z
" style="fill:#1f77b4;"/>
   </g>
   <g id="patch_206">
    <path clip-path="url(#p007b663618)" d="M 328.484364 288.430125 
L 329.519495 288.430125 
L 329.519495 274.38944 
L 328.484364 274.38944 
z
" style="fill:#1f77b4;"/>
   </g>
   <g id="patch_207">
    <path clip-path="url(#p007b663618)" d="M 329.778277 288.430125 
L 330.813408 288.430125 
L 330.813408 274.138714 
L 329.778277 274.138714 
z
" style="fill:#1f77b4;"/>
   </g>
   <g id="patch_208">
    <path clip-path="url(#p007b663618)" d="M 331.07219 288.430125 
L 332.107321 288.430125 
L 332.107321 274.070334 
L 331.07219 274.070334 
z
" style="fill:#1f77b4;"/>
   </g>
   <g id="patch_209">
    <path clip-path="url(#p007b663618)" d="M 332.366103 288.430125 
L 333.401234 288.430125 
L 333.401234 273.226981 
L 332.366103 273.226981 
z
" style="fill:#1f77b4;"/>
   </g>
   <g id="patch_210">
    <path clip-path="url(#p007b663618)" d="M 333.660016 288.430125 
L 334.695147 288.430125 
L 334.695147 271.882175 
L 333.660016 271.882175 
z
" style="fill:#1f77b4;"/>
   </g>
   <g id="patch_211">
    <path clip-path="url(#p007b663618)" d="M 334.953929 288.430125 
L 335.98906 288.430125 
L 335.98906 270.26385 
L 334.953929 270.26385 
z
" style="fill:#1f77b4;"/>
   </g>
   <g id="patch_212">
    <path clip-path="url(#p007b663618)" d="M 336.247842 288.430125 
L 337.282973 288.430125 
L 337.282973 268.531557 
L 336.247842 268.531557 
z
" style="fill:#1f77b4;"/>
   </g>
   <g id="patch_213">
    <path clip-path="url(#p007b663618)" d="M 337.541755 288.430125 
L 338.576886 288.430125 
L 338.576886 267.004405 
L 337.541755 267.004405 
z
" style="fill:#1f77b4;"/>
   </g>
   <g id="patch_214">
    <path clip-path="url(#p007b663618)" d="M 338.835668 288.430125 
L 339.870799 288.430125 
L 339.870799 266.252226 
L 338.835668 266.252226 
z
" style="fill:#1f77b4;"/>
   </g>
   <g id="patch_215">
    <path clip-path="url(#p007b663618)" d="M 340.129582 288.430125 
L 341.164712 288.430125 
L 341.164712 265.773566 
L 340.129582 265.773566 
z
" style="fill:#1f77b4;"/>
   </g>
   <g id="patch_216">
    <path clip-path="url(#p007b663618)" d="M 341.423495 288.430125 
L 342.458625 288.430125 
L 342.458625 262.947194 
L 341.423495 262.947194 
z
" style="fill:#1f77b4;"/>
   </g>
   <g id="patch_217">
    <path clip-path="url(#p007b663618)" d="M 342.717408 288.430125 
L 343.752538 288.430125 
L 343.752538 261.237695 
L 342.717408 261.237695 
z
" style="fill:#1f77b4;"/>
   </g>
   <g id="patch_218">
    <path clip-path="url(#p007b663618)" d="M 344.011321 288.430125 
L 345.046451 288.430125 
L 345.046451 258.73043 
L 344.011321 258.73043 
z
" style="fill:#1f77b4;"/>
   </g>
   <g id="patch_219">
    <path clip-path="url(#p007b663618)" d="M 345.305234 288.430125 
L 346.340364 288.430125 
L 346.340364 255.516572 
L 345.305234 255.516572 
z
" style="fill:#1f77b4;"/>
   </g>
   <g id="patch_220">
    <path clip-path="url(#p007b663618)" d="M 346.599147 288.430125 
L 347.634277 288.430125 
L 347.634277 251.801261 
L 346.599147 251.801261 
z
" style="fill:#1f77b4;"/>
   </g>
   <g id="patch_221">
    <path clip-path="url(#p007b663618)" d="M 347.89306 288.430125 
L 348.92819 288.430125 
L 348.92819 249.909416 
L 347.89306 249.909416 
z
" style="fill:#1f77b4;"/>
   </g>
   <g id="patch_222">
    <path clip-path="url(#p007b663618)" d="M 349.186973 288.430125 
L 350.222103 288.430125 
L 350.222103 245.236785 
L 349.186973 245.236785 
z
" style="fill:#1f77b4;"/>
   </g>
   <g id="patch_223">
    <path clip-path="url(#p007b663618)" d="M 350.480886 288.430125 
L 351.516016 288.430125 
L 351.516016 241.020021 
L 350.480886 241.020021 
z
" style="fill:#1f77b4;"/>
   </g>
   <g id="patch_224">
    <path clip-path="url(#p007b663618)" d="M 351.774799 288.430125 
L 352.809929 288.430125 
L 352.809929 235.595211 
L 351.774799 235.595211 
z
" style="fill:#1f77b4;"/>
   </g>
   <g id="patch_225">
    <path clip-path="url(#p007b663618)" d="M 353.068712 288.430125 
L 354.103842 288.430125 
L 354.103842 229.577775 
L 353.068712 229.577775 
z
" style="fill:#1f77b4;"/>
   </g>
   <g id="patch_226">
    <path clip-path="url(#p007b663618)" d="M 354.362625 288.430125 
L 355.397755 288.430125 
L 355.397755 223.332406 
L 354.362625 223.332406 
z
" style="fill:#1f77b4;"/>
   </g>
   <g id="patch_227">
    <path clip-path="url(#p007b663618)" d="M 355.656538 288.430125 
L 356.691668 288.430125 
L 356.691668 215.787817 
L 355.656538 215.787817 
z
" style="fill:#1f77b4;"/>
   </g>
   <g id="patch_228">
    <path clip-path="url(#p007b663618)" d="M 356.950451 288.430125 
L 357.985582 288.430125 
L 357.985582 208.630715 
L 356.950451 208.630715 
z
" style="fill:#1f77b4;"/>
   </g>
   <g id="patch_229">
    <path clip-path="url(#p007b663618)" d="M 358.244364 288.430125 
L 359.279495 288.430125 
L 359.279495 203.228698 
L 358.244364 203.228698 
z
" style="fill:#1f77b4;"/>
   </g>
   <g id="patch_230">
    <path clip-path="url(#p007b663618)" d="M 359.538277 288.430125 
L 360.573408 288.430125 
L 360.573408 199.057521 
L 359.538277 199.057521 
z
" style="fill:#1f77b4;"/>
   </g>
   <g id="patch_231">
    <path clip-path="url(#p007b663618)" d="M 360.83219 288.430125 
L 361.867321 288.430125 
L 361.867321 192.310699 
L 360.83219 192.310699 
z
" style="fill:#1f77b4;"/>
   </g>
   <g id="patch_232">
    <path clip-path="url(#p007b663618)" d="M 362.126103 288.430125 
L 363.161234 288.430125 
L 363.161234 184.469797 
L 362.126103 184.469797 
z
" style="fill:#1f77b4;"/>
   </g>
   <g id="patch_233">
    <path clip-path="url(#p007b663618)" d="M 363.420016 288.430125 
L 364.455147 288.430125 
L 364.455147 172.184198 
L 363.420016 172.184198 
z
" style="fill:#1f77b4;"/>
   </g>
   <g id="patch_234">
    <path clip-path="url(#p007b663618)" d="M 364.713929 288.430125 
L 365.74906 288.430125 
L 365.74906 160.080945 
L 364.713929 160.080945 
z
" style="fill:#1f77b4;"/>
   </g>
   <g id="patch_235">
    <path clip-path="url(#p007b663618)" d="M 366.007842 288.430125 
L 367.042973 288.430125 
L 367.042973 150.302612 
L 366.007842 150.302612 
z
" style="fill:#1f77b4;"/>
   </g>
   <g id="patch_236">
    <path clip-path="url(#p007b663618)" d="M 367.301755 288.430125 
L 368.336886 288.430125 
L 368.336886 139.088299 
L 367.301755 139.088299 
z
" style="fill:#1f77b4;"/>
   </g>
   <g id="patch_237">
    <path clip-path="url(#p007b663618)" d="M 368.595668 288.430125 
L 369.630799 288.430125 
L 369.630799 133.526729 
L 368.595668 133.526729 
z
" style="fill:#1f77b4;"/>
   </g>
   <g id="patch_238">
    <path clip-path="url(#p007b663618)" d="M 369.889582 288.430125 
L 370.924712 288.430125 
L 370.924712 116.386153 
L 369.889582 116.386153 
z
" style="fill:#1f77b4;"/>
   </g>
   <g id="patch_239">
    <path clip-path="url(#p007b663618)" d="M 371.183495 288.430125 
L 372.218625 288.430125 
L 372.218625 127.851192 
L 371.183495 127.851192 
z
" style="fill:#1f77b4;"/>
   </g>
   <g id="patch_240">
    <path clip-path="url(#p007b663618)" d="M 372.477408 288.430125 
L 373.512538 288.430125 
L 373.512538 117.936098 
L 372.477408 117.936098 
z
" style="fill:#1f77b4;"/>
   </g>
   <g id="patch_241">
    <path clip-path="url(#p007b663618)" d="M 373.771321 288.430125 
L 374.806451 288.430125 
L 374.806451 106.379886 
L 373.771321 106.379886 
z
" style="fill:#1f77b4;"/>
   </g>
   <g id="patch_242">
    <path clip-path="url(#p007b663618)" d="M 375.065234 288.430125 
L 376.100364 288.430125 
L 376.100364 96.647138 
L 375.065234 96.647138 
z
" style="fill:#1f77b4;"/>
   </g>
   <g id="patch_243">
    <path clip-path="url(#p007b663618)" d="M 376.359147 288.430125 
L 377.394277 288.430125 
L 377.394277 90.971602 
L 376.359147 90.971602 
z
" style="fill:#1f77b4;"/>
   </g>
   <g id="patch_244">
    <path clip-path="url(#p007b663618)" d="M 377.65306 288.430125 
L 378.68819 288.430125 
L 378.68819 85.911485 
L 377.65306 85.911485 
z
" style="fill:#1f77b4;"/>
   </g>
   <g id="patch_245">
    <path clip-path="url(#p007b663618)" d="M 378.946973 288.430125 
L 379.982103 288.430125 
L 379.982103 77.933824 
L 378.946973 77.933824 
z
" style="fill:#1f77b4;"/>
   </g>
   <g id="patch_246">
    <path clip-path="url(#p007b663618)" d="M 380.240886 288.430125 
L 381.276016 288.430125 
L 381.276016 67.015824 
L 380.240886 67.015824 
z
" style="fill:#1f77b4;"/>
   </g>
   <g id="patch_247">
    <path clip-path="url(#p007b663618)" d="M 381.534799 288.430125 
L 382.569929 288.430125 
L 382.569929 59.152129 
L 381.534799 59.152129 
z
" style="fill:#1f77b4;"/>
   </g>
   <g id="patch_248">
    <path clip-path="url(#p007b663618)" d="M 382.828712 288.430125 
L 383.863842 288.430125 
L 383.863842 53.886872 
L 382.828712 53.886872 
z
" style="fill:#1f77b4;"/>
   </g>
   <g id="patch_249">
    <path clip-path="url(#p007b663618)" d="M 384.122625 288.430125 
L 385.157755 288.430125 
L 385.157755 47.550329 
L 384.122625 47.550329 
z
" style="fill:#1f77b4;"/>
   </g>
   <g id="patch_250">
    <path clip-path="url(#p007b663618)" d="M 385.416538 288.430125 
L 386.451668 288.430125 
L 386.451668 44.518818 
L 385.416538 44.518818 
z
" style="fill:#1f77b4;"/>
   </g>
   <g id="patch_251">
    <path clip-path="url(#p007b663618)" d="M 386.710451 288.430125 
L 387.745582 288.430125 
L 387.745582 39.960154 
L 386.710451 39.960154 
z
" style="fill:#1f77b4;"/>
   </g>
   <g id="patch_252">
    <path clip-path="url(#p007b663618)" d="M 388.004364 288.430125 
L 389.039495 288.430125 
L 389.039495 33.053778 
L 388.004364 33.053778 
z
" style="fill:#1f77b4;"/>
   </g>
   <g id="patch_253">
    <path clip-path="url(#p007b663618)" d="M 389.298277 288.430125 
L 390.333408 288.430125 
L 390.333408 26.056229 
L 389.298277 26.056229 
z
" style="fill:#1f77b4;"/>
   </g>
   <g id="patch_254">
    <path clip-path="url(#p007b663618)" d="M 390.59219 288.430125 
L 391.627321 288.430125 
L 391.627321 22.318125 
L 390.59219 22.318125 
z
" style="fill:#1f77b4;"/>
   </g>
   <g id="patch_255">
    <path clip-path="url(#p007b663618)" d="M 391.886103 288.430125 
L 392.921234 288.430125 
L 392.921234 23.480584 
L 391.886103 23.480584 
z
" style="fill:#1f77b4;"/>
   </g>
   <g id="patch_256">
    <path clip-path="url(#p007b663618)" d="M 393.180016 288.430125 
L 394.215147 288.430125 
L 394.215147 23.685724 
L 393.180016 23.685724 
z
" style="fill:#1f77b4;"/>
   </g>
   <g id="patch_257">
    <path clip-path="url(#p007b663618)" d="M 394.473929 288.430125 
L 395.50906 288.430125 
L 395.50906 22.751198 
L 394.473929 22.751198 
z
" style="fill:#1f77b4;"/>
   </g>
   <g id="patch_258">
    <path clip-path="url(#p007b663618)" d="M 395.767842 288.430125 
L 396.802973 288.430125 
L 396.802973 24.027624 
L 395.767842 24.027624 
z
" style="fill:#1f77b4;"/>
   </g>
   <g id="patch_259">
    <path clip-path="url(#p007b663618)" d="M 397.061755 288.430125 
L 398.096886 288.430125 
L 398.096886 27.446622 
L 397.061755 27.446622 
z
" style="fill:#1f77b4;"/>
   </g>
   <g id="patch_260">
    <path clip-path="url(#p007b663618)" d="M 398.355668 288.430125 
L 399.390799 288.430125 
L 399.390799 26.694442 
L 398.355668 26.694442 
z
" style="fill:#1f77b4;"/>
   </g>
   <g id="patch_261">
    <path clip-path="url(#p007b663618)" d="M 399.649582 288.430125 
L 400.684712 288.430125 
L 400.684712 24.984943 
L 399.649582 24.984943 
z
" style="fill:#1f77b4;"/>
   </g>
   <g id="patch_262">
    <path clip-path="url(#p007b663618)" d="M 400.943495 288.430125 
L 401.978625 288.430125 
L 401.978625 30.022267 
L 400.943495 30.022267 
z
" style="fill:#1f77b4;"/>
   </g>
   <g id="patch_263">
    <path clip-path="url(#p007b663618)" d="M 402.237408 288.430125 
L 403.272538 288.430125 
L 403.272538 30.364167 
L 402.237408 30.364167 
z
" style="fill:#1f77b4;"/>
   </g>
   <g id="patch_264">
    <path clip-path="url(#p007b663618)" d="M 403.531321 288.430125 
L 404.566451 288.430125 
L 404.566451 30.911206 
L 403.531321 30.911206 
z
" style="fill:#1f77b4;"/>
   </g>
   <g id="patch_265">
    <path clip-path="url(#p007b663618)" d="M 404.825234 288.430125 
L 405.860364 288.430125 
L 405.860364 30.204613 
L 404.825234 30.204613 
z
" style="fill:#1f77b4;"/>
   </g>
   <g id="patch_266">
    <path clip-path="url(#p007b663618)" d="M 406.119147 288.430125 
L 407.154277 288.430125 
L 407.154277 32.803052 
L 406.119147 32.803052 
z
" style="fill:#1f77b4;"/>
   </g>
   <g id="patch_267">
    <path clip-path="url(#p007b663618)" d="M 407.41306 288.430125 
L 408.44819 288.430125 
L 408.44819 33.464058 
L 407.41306 33.464058 
z
" style="fill:#1f77b4;"/>
   </g>
   <g id="patch_268">
    <path clip-path="url(#p007b663618)" d="M 408.706973 288.430125 
L 409.742103 288.430125 
L 409.742103 35.150764 
L 408.706973 35.150764 
z
" style="fill:#1f77b4;"/>
   </g>
   <g id="patch_269">
    <path clip-path="url(#p007b663618)" d="M 410.000886 288.430125 
L 411.036016 288.430125 
L 411.036016 39.504288 
L 410.000886 39.504288 
z
" style="fill:#1f77b4;"/>
   </g>
   <g id="patch_270">
    <path clip-path="url(#p007b663618)" d="M 411.294799 288.430125 
L 412.329929 288.430125 
L 412.329929 39.595461 
L 411.294799 39.595461 
z
" style="fill:#1f77b4;"/>
   </g>
   <g id="patch_271">
    <path clip-path="url(#p007b663618)" d="M 412.588712 288.430125 
L 413.623842 288.430125 
L 413.623842 40.370434 
L 412.588712 40.370434 
z
" style="fill:#1f77b4;"/>
   </g>
   <g id="patch_272">
    <path clip-path="url(#p007b663618)" d="M 413.882625 288.430125 
L 414.917755 288.430125 
L 414.917755 40.34764 
L 413.882625 40.34764 
z
" style="fill:#1f77b4;"/>
   </g>
   <g id="patch_273">
    <path clip-path="url(#p007b663618)" d="M 415.176538 288.430125 
L 416.211668 288.430125 
L 416.211668 44.062951 
L 415.176538 44.062951 
z
" style="fill:#1f77b4;"/>
   </g>
   <g id="patch_274">
    <path clip-path="url(#p007b663618)" d="M 416.470451 288.430125 
L 417.505582 288.430125 
L 417.505582 45.658484 
L 416.470451 45.658484 
z
" style="fill:#1f77b4;"/>
   </g>
   <g id="patch_275">
    <path clip-path="url(#p007b663618)" d="M 417.764364 288.430125 
L 418.799495 288.430125 
L 418.799495 46.31949 
L 417.764364 46.31949 
z
" style="fill:#1f77b4;"/>
   </g>
   <g id="patch_276">
    <path clip-path="url(#p007b663618)" d="M 419.058277 288.430125 
L 420.093408 288.430125 
L 420.093408 46.843736 
L 419.058277 46.843736 
z
" style="fill:#1f77b4;"/>
   </g>
   <g id="patch_277">
    <path clip-path="url(#p007b663618)" d="M 420.35219 288.430125 
L 421.387321 288.430125 
L 421.387321 46.52463 
L 420.35219 46.52463 
z
" style="fill:#1f77b4;"/>
   </g>
   <g id="patch_278">
    <path clip-path="url(#p007b663618)" d="M 421.646103 288.430125 
L 422.681234 288.430125 
L 422.681234 46.137143 
L 421.646103 46.137143 
z
" style="fill:#1f77b4;"/>
   </g>
   <g id="matplotlib.axis_1">
    <g id="xtick_1">
     <g id="line2d_1">
      <defs>
       <path d="M 0 0 
L 0 3.5 
" id="m31deef28cd" style="stroke:#000000;stroke-width:0.8;"/>
      </defs>
      <g>
       <use style="stroke:#000000;stroke-width:0.8;" x="88.334103" xlink:href="#m31deef28cd" y="288.430125"/>
      </g>
     </g>
     <g id="text_1">
      <!-- 2020-04 -->
      <g transform="translate(91.093478 337.212937)rotate(-90)scale(0.1 -0.1)">
       <defs>
        <path d="M 19.1875 8.296875 
L 53.609375 8.296875 
L 53.609375 0 
L 7.328125 0 
L 7.328125 8.296875 
Q 12.9375 14.109375 22.625 23.890625 
Q 32.328125 33.6875 34.8125 36.53125 
Q 39.546875 41.84375 41.421875 45.53125 
Q 43.3125 49.21875 43.3125 52.78125 
Q 43.3125 58.59375 39.234375 62.25 
Q 35.15625 65.921875 28.609375 65.921875 
Q 23.96875 65.921875 18.8125 64.3125 
Q 13.671875 62.703125 7.8125 59.421875 
L 7.8125 69.390625 
Q 13.765625 71.78125 18.9375 73 
Q 24.125 74.21875 28.421875 74.21875 
Q 39.75 74.21875 46.484375 68.546875 
Q 53.21875 62.890625 53.21875 53.421875 
Q 53.21875 48.921875 51.53125 44.890625 
Q 49.859375 40.875 45.40625 35.40625 
Q 44.1875 33.984375 37.640625 27.21875 
Q 31.109375 20.453125 19.1875 8.296875 
z
" id="DejaVuSans-50"/>
        <path d="M 31.78125 66.40625 
Q 24.171875 66.40625 20.328125 58.90625 
Q 16.5 51.421875 16.5 36.375 
Q 16.5 21.390625 20.328125 13.890625 
Q 24.171875 6.390625 31.78125 6.390625 
Q 39.453125 6.390625 43.28125 13.890625 
Q 47.125 21.390625 47.125 36.375 
Q 47.125 51.421875 43.28125 58.90625 
Q 39.453125 66.40625 31.78125 66.40625 
z
M 31.78125 74.21875 
Q 44.046875 74.21875 50.515625 64.515625 
Q 56.984375 54.828125 56.984375 36.375 
Q 56.984375 17.96875 50.515625 8.265625 
Q 44.046875 -1.421875 31.78125 -1.421875 
Q 19.53125 -1.421875 13.0625 8.265625 
Q 6.59375 17.96875 6.59375 36.375 
Q 6.59375 54.828125 13.0625 64.515625 
Q 19.53125 74.21875 31.78125 74.21875 
z
" id="DejaVuSans-48"/>
        <path d="M 4.890625 31.390625 
L 31.203125 31.390625 
L 31.203125 23.390625 
L 4.890625 23.390625 
z
" id="DejaVuSans-45"/>
        <path d="M 37.796875 64.3125 
L 12.890625 25.390625 
L 37.796875 25.390625 
z
M 35.203125 72.90625 
L 47.609375 72.90625 
L 47.609375 25.390625 
L 58.015625 25.390625 
L 58.015625 17.1875 
L 47.609375 17.1875 
L 47.609375 0 
L 37.796875 0 
L 37.796875 17.1875 
L 4.890625 17.1875 
L 4.890625 26.703125 
z
" id="DejaVuSans-52"/>
       </defs>
       <use xlink:href="#DejaVuSans-50"/>
       <use x="63.623047" xlink:href="#DejaVuSans-48"/>
       <use x="127.246094" xlink:href="#DejaVuSans-50"/>
       <use x="190.869141" xlink:href="#DejaVuSans-48"/>
       <use x="254.492188" xlink:href="#DejaVuSans-45"/>
       <use x="290.576172" xlink:href="#DejaVuSans-48"/>
       <use x="354.199219" xlink:href="#DejaVuSans-52"/>
      </g>
     </g>
    </g>
    <g id="xtick_2">
     <g id="line2d_2">
      <g>
       <use style="stroke:#000000;stroke-width:0.8;" x="127.151495" xlink:href="#m31deef28cd" y="288.430125"/>
      </g>
     </g>
     <g id="text_2">
      <!-- 2020-05 -->
      <g transform="translate(129.91087 337.212937)rotate(-90)scale(0.1 -0.1)">
       <defs>
        <path d="M 10.796875 72.90625 
L 49.515625 72.90625 
L 49.515625 64.59375 
L 19.828125 64.59375 
L 19.828125 46.734375 
Q 21.96875 47.46875 24.109375 47.828125 
Q 26.265625 48.1875 28.421875 48.1875 
Q 40.625 48.1875 47.75 41.5 
Q 54.890625 34.8125 54.890625 23.390625 
Q 54.890625 11.625 47.5625 5.09375 
Q 40.234375 -1.421875 26.90625 -1.421875 
Q 22.3125 -1.421875 17.546875 -0.640625 
Q 12.796875 0.140625 7.71875 1.703125 
L 7.71875 11.625 
Q 12.109375 9.234375 16.796875 8.0625 
Q 21.484375 6.890625 26.703125 6.890625 
Q 35.15625 6.890625 40.078125 11.328125 
Q 45.015625 15.765625 45.015625 23.390625 
Q 45.015625 31 40.078125 35.4375 
Q 35.15625 39.890625 26.703125 39.890625 
Q 22.75 39.890625 18.8125 39.015625 
Q 14.890625 38.140625 10.796875 36.28125 
z
" id="DejaVuSans-53"/>
       </defs>
       <use xlink:href="#DejaVuSans-50"/>
       <use x="63.623047" xlink:href="#DejaVuSans-48"/>
       <use x="127.246094" xlink:href="#DejaVuSans-50"/>
       <use x="190.869141" xlink:href="#DejaVuSans-48"/>
       <use x="254.492188" xlink:href="#DejaVuSans-45"/>
       <use x="290.576172" xlink:href="#DejaVuSans-48"/>
       <use x="354.199219" xlink:href="#DejaVuSans-53"/>
      </g>
     </g>
    </g>
    <g id="xtick_3">
     <g id="line2d_3">
      <g>
       <use style="stroke:#000000;stroke-width:0.8;" x="167.262799" xlink:href="#m31deef28cd" y="288.430125"/>
      </g>
     </g>
     <g id="text_3">
      <!-- 2020-06 -->
      <g transform="translate(170.022174 337.212937)rotate(-90)scale(0.1 -0.1)">
       <defs>
        <path d="M 33.015625 40.375 
Q 26.375 40.375 22.484375 35.828125 
Q 18.609375 31.296875 18.609375 23.390625 
Q 18.609375 15.53125 22.484375 10.953125 
Q 26.375 6.390625 33.015625 6.390625 
Q 39.65625 6.390625 43.53125 10.953125 
Q 47.40625 15.53125 47.40625 23.390625 
Q 47.40625 31.296875 43.53125 35.828125 
Q 39.65625 40.375 33.015625 40.375 
z
M 52.59375 71.296875 
L 52.59375 62.3125 
Q 48.875 64.0625 45.09375 64.984375 
Q 41.3125 65.921875 37.59375 65.921875 
Q 27.828125 65.921875 22.671875 59.328125 
Q 17.53125 52.734375 16.796875 39.40625 
Q 19.671875 43.65625 24.015625 45.921875 
Q 28.375 48.1875 33.59375 48.1875 
Q 44.578125 48.1875 50.953125 41.515625 
Q 57.328125 34.859375 57.328125 23.390625 
Q 57.328125 12.15625 50.6875 5.359375 
Q 44.046875 -1.421875 33.015625 -1.421875 
Q 20.359375 -1.421875 13.671875 8.265625 
Q 6.984375 17.96875 6.984375 36.375 
Q 6.984375 53.65625 15.1875 63.9375 
Q 23.390625 74.21875 37.203125 74.21875 
Q 40.921875 74.21875 44.703125 73.484375 
Q 48.484375 72.75 52.59375 71.296875 
z
" id="DejaVuSans-54"/>
       </defs>
       <use xlink:href="#DejaVuSans-50"/>
       <use x="63.623047" xlink:href="#DejaVuSans-48"/>
       <use x="127.246094" xlink:href="#DejaVuSans-50"/>
       <use x="190.869141" xlink:href="#DejaVuSans-48"/>
       <use x="254.492188" xlink:href="#DejaVuSans-45"/>
       <use x="290.576172" xlink:href="#DejaVuSans-48"/>
       <use x="354.199219" xlink:href="#DejaVuSans-54"/>
      </g>
     </g>
    </g>
    <g id="xtick_4">
     <g id="line2d_4">
      <g>
       <use style="stroke:#000000;stroke-width:0.8;" x="206.08019" xlink:href="#m31deef28cd" y="288.430125"/>
      </g>
     </g>
     <g id="text_4">
      <!-- 2020-07 -->
      <g transform="translate(208.839565 337.212937)rotate(-90)scale(0.1 -0.1)">
       <defs>
        <path d="M 8.203125 72.90625 
L 55.078125 72.90625 
L 55.078125 68.703125 
L 28.609375 0 
L 18.3125 0 
L 43.21875 64.59375 
L 8.203125 64.59375 
z
" id="DejaVuSans-55"/>
       </defs>
       <use xlink:href="#DejaVuSans-50"/>
       <use x="63.623047" xlink:href="#DejaVuSans-48"/>
       <use x="127.246094" xlink:href="#DejaVuSans-50"/>
       <use x="190.869141" xlink:href="#DejaVuSans-48"/>
       <use x="254.492188" xlink:href="#DejaVuSans-45"/>
       <use x="290.576172" xlink:href="#DejaVuSans-48"/>
       <use x="354.199219" xlink:href="#DejaVuSans-55"/>
      </g>
     </g>
    </g>
    <g id="xtick_5">
     <g id="line2d_5">
      <g>
       <use style="stroke:#000000;stroke-width:0.8;" x="246.191495" xlink:href="#m31deef28cd" y="288.430125"/>
      </g>
     </g>
     <g id="text_5">
      <!-- 2020-08 -->
      <g transform="translate(248.95087 337.212937)rotate(-90)scale(0.1 -0.1)">
       <defs>
        <path d="M 31.78125 34.625 
Q 24.75 34.625 20.71875 30.859375 
Q 16.703125 27.09375 16.703125 20.515625 
Q 16.703125 13.921875 20.71875 10.15625 
Q 24.75 6.390625 31.78125 6.390625 
Q 38.8125 6.390625 42.859375 10.171875 
Q 46.921875 13.96875 46.921875 20.515625 
Q 46.921875 27.09375 42.890625 30.859375 
Q 38.875 34.625 31.78125 34.625 
z
M 21.921875 38.8125 
Q 15.578125 40.375 12.03125 44.71875 
Q 8.5 49.078125 8.5 55.328125 
Q 8.5 64.0625 14.71875 69.140625 
Q 20.953125 74.21875 31.78125 74.21875 
Q 42.671875 74.21875 48.875 69.140625 
Q 55.078125 64.0625 55.078125 55.328125 
Q 55.078125 49.078125 51.53125 44.71875 
Q 48 40.375 41.703125 38.8125 
Q 48.828125 37.15625 52.796875 32.3125 
Q 56.78125 27.484375 56.78125 20.515625 
Q 56.78125 9.90625 50.3125 4.234375 
Q 43.84375 -1.421875 31.78125 -1.421875 
Q 19.734375 -1.421875 13.25 4.234375 
Q 6.78125 9.90625 6.78125 20.515625 
Q 6.78125 27.484375 10.78125 32.3125 
Q 14.796875 37.15625 21.921875 38.8125 
z
M 18.3125 54.390625 
Q 18.3125 48.734375 21.84375 45.5625 
Q 25.390625 42.390625 31.78125 42.390625 
Q 38.140625 42.390625 41.71875 45.5625 
Q 45.3125 48.734375 45.3125 54.390625 
Q 45.3125 60.0625 41.71875 63.234375 
Q 38.140625 66.40625 31.78125 66.40625 
Q 25.390625 66.40625 21.84375 63.234375 
Q 18.3125 60.0625 18.3125 54.390625 
z
" id="DejaVuSans-56"/>
       </defs>
       <use xlink:href="#DejaVuSans-50"/>
       <use x="63.623047" xlink:href="#DejaVuSans-48"/>
       <use x="127.246094" xlink:href="#DejaVuSans-50"/>
       <use x="190.869141" xlink:href="#DejaVuSans-48"/>
       <use x="254.492188" xlink:href="#DejaVuSans-45"/>
       <use x="290.576172" xlink:href="#DejaVuSans-48"/>
       <use x="354.199219" xlink:href="#DejaVuSans-56"/>
      </g>
     </g>
    </g>
    <g id="xtick_6">
     <g id="line2d_6">
      <g>
       <use style="stroke:#000000;stroke-width:0.8;" x="286.302799" xlink:href="#m31deef28cd" y="288.430125"/>
      </g>
     </g>
     <g id="text_6">
      <!-- 2020-09 -->
      <g transform="translate(289.062174 337.212937)rotate(-90)scale(0.1 -0.1)">
       <defs>
        <path d="M 10.984375 1.515625 
L 10.984375 10.5 
Q 14.703125 8.734375 18.5 7.8125 
Q 22.3125 6.890625 25.984375 6.890625 
Q 35.75 6.890625 40.890625 13.453125 
Q 46.046875 20.015625 46.78125 33.40625 
Q 43.953125 29.203125 39.59375 26.953125 
Q 35.25 24.703125 29.984375 24.703125 
Q 19.046875 24.703125 12.671875 31.3125 
Q 6.296875 37.9375 6.296875 49.421875 
Q 6.296875 60.640625 12.9375 67.421875 
Q 19.578125 74.21875 30.609375 74.21875 
Q 43.265625 74.21875 49.921875 64.515625 
Q 56.59375 54.828125 56.59375 36.375 
Q 56.59375 19.140625 48.40625 8.859375 
Q 40.234375 -1.421875 26.421875 -1.421875 
Q 22.703125 -1.421875 18.890625 -0.6875 
Q 15.09375 0.046875 10.984375 1.515625 
z
M 30.609375 32.421875 
Q 37.25 32.421875 41.125 36.953125 
Q 45.015625 41.5 45.015625 49.421875 
Q 45.015625 57.28125 41.125 61.84375 
Q 37.25 66.40625 30.609375 66.40625 
Q 23.96875 66.40625 20.09375 61.84375 
Q 16.21875 57.28125 16.21875 49.421875 
Q 16.21875 41.5 20.09375 36.953125 
Q 23.96875 32.421875 30.609375 32.421875 
z
" id="DejaVuSans-57"/>
       </defs>
       <use xlink:href="#DejaVuSans-50"/>
       <use x="63.623047" xlink:href="#DejaVuSans-48"/>
       <use x="127.246094" xlink:href="#DejaVuSans-50"/>
       <use x="190.869141" xlink:href="#DejaVuSans-48"/>
       <use x="254.492188" xlink:href="#DejaVuSans-45"/>
       <use x="290.576172" xlink:href="#DejaVuSans-48"/>
       <use x="354.199219" xlink:href="#DejaVuSans-57"/>
      </g>
     </g>
    </g>
    <g id="xtick_7">
     <g id="line2d_7">
      <g>
       <use style="stroke:#000000;stroke-width:0.8;" x="325.12019" xlink:href="#m31deef28cd" y="288.430125"/>
      </g>
     </g>
     <g id="text_7">
      <!-- 2020-10 -->
      <g transform="translate(327.879565 337.212937)rotate(-90)scale(0.1 -0.1)">
       <defs>
        <path d="M 12.40625 8.296875 
L 28.515625 8.296875 
L 28.515625 63.921875 
L 10.984375 60.40625 
L 10.984375 69.390625 
L 28.421875 72.90625 
L 38.28125 72.90625 
L 38.28125 8.296875 
L 54.390625 8.296875 
L 54.390625 0 
L 12.40625 0 
z
" id="DejaVuSans-49"/>
       </defs>
       <use xlink:href="#DejaVuSans-50"/>
       <use x="63.623047" xlink:href="#DejaVuSans-48"/>
       <use x="127.246094" xlink:href="#DejaVuSans-50"/>
       <use x="190.869141" xlink:href="#DejaVuSans-48"/>
       <use x="254.492188" xlink:href="#DejaVuSans-45"/>
       <use x="290.576172" xlink:href="#DejaVuSans-49"/>
       <use x="354.199219" xlink:href="#DejaVuSans-48"/>
      </g>
     </g>
    </g>
    <g id="xtick_8">
     <g id="line2d_8">
      <g>
       <use style="stroke:#000000;stroke-width:0.8;" x="365.231495" xlink:href="#m31deef28cd" y="288.430125"/>
      </g>
     </g>
     <g id="text_8">
      <!-- 2020-11 -->
      <g transform="translate(367.99087 337.212937)rotate(-90)scale(0.1 -0.1)">
       <use xlink:href="#DejaVuSans-50"/>
       <use x="63.623047" xlink:href="#DejaVuSans-48"/>
       <use x="127.246094" xlink:href="#DejaVuSans-50"/>
       <use x="190.869141" xlink:href="#DejaVuSans-48"/>
       <use x="254.492188" xlink:href="#DejaVuSans-45"/>
       <use x="290.576172" xlink:href="#DejaVuSans-49"/>
       <use x="354.199219" xlink:href="#DejaVuSans-49"/>
      </g>
     </g>
    </g>
    <g id="xtick_9">
     <g id="line2d_9">
      <g>
       <use style="stroke:#000000;stroke-width:0.8;" x="404.048886" xlink:href="#m31deef28cd" y="288.430125"/>
      </g>
     </g>
     <g id="text_9">
      <!-- 2020-12 -->
      <g transform="translate(406.808261 337.212937)rotate(-90)scale(0.1 -0.1)">
       <use xlink:href="#DejaVuSans-50"/>
       <use x="63.623047" xlink:href="#DejaVuSans-48"/>
       <use x="127.246094" xlink:href="#DejaVuSans-50"/>
       <use x="190.869141" xlink:href="#DejaVuSans-48"/>
       <use x="254.492188" xlink:href="#DejaVuSans-45"/>
       <use x="290.576172" xlink:href="#DejaVuSans-49"/>
       <use x="354.199219" xlink:href="#DejaVuSans-50"/>
      </g>
     </g>
    </g>
    <g id="text_10">
     <!-- date -->
     <g transform="translate(232.975625 354.811375)scale(0.1 -0.1)">
      <defs>
       <path d="M 45.40625 46.390625 
L 45.40625 75.984375 
L 54.390625 75.984375 
L 54.390625 0 
L 45.40625 0 
L 45.40625 8.203125 
Q 42.578125 3.328125 38.25 0.953125 
Q 33.9375 -1.421875 27.875 -1.421875 
Q 17.96875 -1.421875 11.734375 6.484375 
Q 5.515625 14.40625 5.515625 27.296875 
Q 5.515625 40.1875 11.734375 48.09375 
Q 17.96875 56 27.875 56 
Q 33.9375 56 38.25 53.625 
Q 42.578125 51.265625 45.40625 46.390625 
z
M 14.796875 27.296875 
Q 14.796875 17.390625 18.875 11.75 
Q 22.953125 6.109375 30.078125 6.109375 
Q 37.203125 6.109375 41.296875 11.75 
Q 45.40625 17.390625 45.40625 27.296875 
Q 45.40625 37.203125 41.296875 42.84375 
Q 37.203125 48.484375 30.078125 48.484375 
Q 22.953125 48.484375 18.875 42.84375 
Q 14.796875 37.203125 14.796875 27.296875 
z
" id="DejaVuSans-100"/>
       <path d="M 34.28125 27.484375 
Q 23.390625 27.484375 19.1875 25 
Q 14.984375 22.515625 14.984375 16.5 
Q 14.984375 11.71875 18.140625 8.90625 
Q 21.296875 6.109375 26.703125 6.109375 
Q 34.1875 6.109375 38.703125 11.40625 
Q 43.21875 16.703125 43.21875 25.484375 
L 43.21875 27.484375 
z
M 52.203125 31.203125 
L 52.203125 0 
L 43.21875 0 
L 43.21875 8.296875 
Q 40.140625 3.328125 35.546875 0.953125 
Q 30.953125 -1.421875 24.3125 -1.421875 
Q 15.921875 -1.421875 10.953125 3.296875 
Q 6 8.015625 6 15.921875 
Q 6 25.140625 12.171875 29.828125 
Q 18.359375 34.515625 30.609375 34.515625 
L 43.21875 34.515625 
L 43.21875 35.40625 
Q 43.21875 41.609375 39.140625 45 
Q 35.0625 48.390625 27.6875 48.390625 
Q 23 48.390625 18.546875 47.265625 
Q 14.109375 46.140625 10.015625 43.890625 
L 10.015625 52.203125 
Q 14.9375 54.109375 19.578125 55.046875 
Q 24.21875 56 28.609375 56 
Q 40.484375 56 46.34375 49.84375 
Q 52.203125 43.703125 52.203125 31.203125 
z
" id="DejaVuSans-97"/>
       <path d="M 18.3125 70.21875 
L 18.3125 54.6875 
L 36.8125 54.6875 
L 36.8125 47.703125 
L 18.3125 47.703125 
L 18.3125 18.015625 
Q 18.3125 11.328125 20.140625 9.421875 
Q 21.96875 7.515625 27.59375 7.515625 
L 36.8125 7.515625 
L 36.8125 0 
L 27.59375 0 
Q 17.1875 0 13.234375 3.875 
Q 9.28125 7.765625 9.28125 18.015625 
L 9.28125 47.703125 
L 2.6875 47.703125 
L 2.6875 54.6875 
L 9.28125 54.6875 
L 9.28125 70.21875 
z
" id="DejaVuSans-116"/>
       <path d="M 56.203125 29.59375 
L 56.203125 25.203125 
L 14.890625 25.203125 
Q 15.484375 15.921875 20.484375 11.0625 
Q 25.484375 6.203125 34.421875 6.203125 
Q 39.59375 6.203125 44.453125 7.46875 
Q 49.3125 8.734375 54.109375 11.28125 
L 54.109375 2.78125 
Q 49.265625 0.734375 44.1875 -0.34375 
Q 39.109375 -1.421875 33.890625 -1.421875 
Q 20.796875 -1.421875 13.15625 6.1875 
Q 5.515625 13.8125 5.515625 26.8125 
Q 5.515625 40.234375 12.765625 48.109375 
Q 20.015625 56 32.328125 56 
Q 43.359375 56 49.78125 48.890625 
Q 56.203125 41.796875 56.203125 29.59375 
z
M 47.21875 32.234375 
Q 47.125 39.59375 43.09375 43.984375 
Q 39.0625 48.390625 32.421875 48.390625 
Q 24.90625 48.390625 20.390625 44.140625 
Q 15.875 39.890625 15.1875 32.171875 
z
" id="DejaVuSans-101"/>
      </defs>
      <use xlink:href="#DejaVuSans-100"/>
      <use x="63.476562" xlink:href="#DejaVuSans-97"/>
      <use x="124.755859" xlink:href="#DejaVuSans-116"/>
      <use x="163.964844" xlink:href="#DejaVuSans-101"/>
     </g>
    </g>
   </g>
   <g id="matplotlib.axis_2">
    <g id="ytick_1">
     <g id="line2d_10">
      <defs>
       <path d="M 0 0 
L -3.5 0 
" id="m1bff7ef060" style="stroke:#000000;stroke-width:0.8;"/>
      </defs>
      <g>
       <use style="stroke:#000000;stroke-width:0.8;" x="65.690625" xlink:href="#m1bff7ef060" y="288.430125"/>
      </g>
     </g>
     <g id="text_11">
      <!-- 0 -->
      <g transform="translate(52.328125 292.229344)scale(0.1 -0.1)">
       <use xlink:href="#DejaVuSans-48"/>
      </g>
     </g>
    </g>
    <g id="ytick_2">
     <g id="line2d_11">
      <g>
       <use style="stroke:#000000;stroke-width:0.8;" x="65.690625" xlink:href="#m1bff7ef060" y="242.843487"/>
      </g>
     </g>
     <g id="text_12">
      <!-- 2000 -->
      <g transform="translate(33.240625 246.642706)scale(0.1 -0.1)">
       <use xlink:href="#DejaVuSans-50"/>
       <use x="63.623047" xlink:href="#DejaVuSans-48"/>
       <use x="127.246094" xlink:href="#DejaVuSans-48"/>
       <use x="190.869141" xlink:href="#DejaVuSans-48"/>
      </g>
     </g>
    </g>
    <g id="ytick_3">
     <g id="line2d_12">
      <g>
       <use style="stroke:#000000;stroke-width:0.8;" x="65.690625" xlink:href="#m1bff7ef060" y="197.256849"/>
      </g>
     </g>
     <g id="text_13">
      <!-- 4000 -->
      <g transform="translate(33.240625 201.056068)scale(0.1 -0.1)">
       <use xlink:href="#DejaVuSans-52"/>
       <use x="63.623047" xlink:href="#DejaVuSans-48"/>
       <use x="127.246094" xlink:href="#DejaVuSans-48"/>
       <use x="190.869141" xlink:href="#DejaVuSans-48"/>
      </g>
     </g>
    </g>
    <g id="ytick_4">
     <g id="line2d_13">
      <g>
       <use style="stroke:#000000;stroke-width:0.8;" x="65.690625" xlink:href="#m1bff7ef060" y="151.670211"/>
      </g>
     </g>
     <g id="text_14">
      <!-- 6000 -->
      <g transform="translate(33.240625 155.469429)scale(0.1 -0.1)">
       <use xlink:href="#DejaVuSans-54"/>
       <use x="63.623047" xlink:href="#DejaVuSans-48"/>
       <use x="127.246094" xlink:href="#DejaVuSans-48"/>
       <use x="190.869141" xlink:href="#DejaVuSans-48"/>
      </g>
     </g>
    </g>
    <g id="ytick_5">
     <g id="line2d_14">
      <g>
       <use style="stroke:#000000;stroke-width:0.8;" x="65.690625" xlink:href="#m1bff7ef060" y="106.083573"/>
      </g>
     </g>
     <g id="text_15">
      <!-- 8000 -->
      <g transform="translate(33.240625 109.882791)scale(0.1 -0.1)">
       <use xlink:href="#DejaVuSans-56"/>
       <use x="63.623047" xlink:href="#DejaVuSans-48"/>
       <use x="127.246094" xlink:href="#DejaVuSans-48"/>
       <use x="190.869141" xlink:href="#DejaVuSans-48"/>
      </g>
     </g>
    </g>
    <g id="ytick_6">
     <g id="line2d_15">
      <g>
       <use style="stroke:#000000;stroke-width:0.8;" x="65.690625" xlink:href="#m1bff7ef060" y="60.496934"/>
      </g>
     </g>
     <g id="text_16">
      <!-- 10000 -->
      <g transform="translate(26.878125 64.296153)scale(0.1 -0.1)">
       <use xlink:href="#DejaVuSans-49"/>
       <use x="63.623047" xlink:href="#DejaVuSans-48"/>
       <use x="127.246094" xlink:href="#DejaVuSans-48"/>
       <use x="190.869141" xlink:href="#DejaVuSans-48"/>
       <use x="254.492188" xlink:href="#DejaVuSans-48"/>
      </g>
     </g>
    </g>
    <g id="text_17">
     <!-- number of active corona cases -->
     <g transform="translate(14.798438 232.405375)rotate(-90)scale(0.1 -0.1)">
      <defs>
       <path d="M 54.890625 33.015625 
L 54.890625 0 
L 45.90625 0 
L 45.90625 32.71875 
Q 45.90625 40.484375 42.875 44.328125 
Q 39.84375 48.1875 33.796875 48.1875 
Q 26.515625 48.1875 22.3125 43.546875 
Q 18.109375 38.921875 18.109375 30.90625 
L 18.109375 0 
L 9.078125 0 
L 9.078125 54.6875 
L 18.109375 54.6875 
L 18.109375 46.1875 
Q 21.34375 51.125 25.703125 53.5625 
Q 30.078125 56 35.796875 56 
Q 45.21875 56 50.046875 50.171875 
Q 54.890625 44.34375 54.890625 33.015625 
z
" id="DejaVuSans-110"/>
       <path d="M 8.5 21.578125 
L 8.5 54.6875 
L 17.484375 54.6875 
L 17.484375 21.921875 
Q 17.484375 14.15625 20.5 10.265625 
Q 23.53125 6.390625 29.59375 6.390625 
Q 36.859375 6.390625 41.078125 11.03125 
Q 45.3125 15.671875 45.3125 23.6875 
L 45.3125 54.6875 
L 54.296875 54.6875 
L 54.296875 0 
L 45.3125 0 
L 45.3125 8.40625 
Q 42.046875 3.421875 37.71875 1 
Q 33.40625 -1.421875 27.6875 -1.421875 
Q 18.265625 -1.421875 13.375 4.4375 
Q 8.5 10.296875 8.5 21.578125 
z
M 31.109375 56 
z
" id="DejaVuSans-117"/>
       <path d="M 52 44.1875 
Q 55.375 50.25 60.0625 53.125 
Q 64.75 56 71.09375 56 
Q 79.640625 56 84.28125 50.015625 
Q 88.921875 44.046875 88.921875 33.015625 
L 88.921875 0 
L 79.890625 0 
L 79.890625 32.71875 
Q 79.890625 40.578125 77.09375 44.375 
Q 74.3125 48.1875 68.609375 48.1875 
Q 61.625 48.1875 57.5625 43.546875 
Q 53.515625 38.921875 53.515625 30.90625 
L 53.515625 0 
L 44.484375 0 
L 44.484375 32.71875 
Q 44.484375 40.625 41.703125 44.40625 
Q 38.921875 48.1875 33.109375 48.1875 
Q 26.21875 48.1875 22.15625 43.53125 
Q 18.109375 38.875 18.109375 30.90625 
L 18.109375 0 
L 9.078125 0 
L 9.078125 54.6875 
L 18.109375 54.6875 
L 18.109375 46.1875 
Q 21.1875 51.21875 25.484375 53.609375 
Q 29.78125 56 35.6875 56 
Q 41.65625 56 45.828125 52.96875 
Q 50 49.953125 52 44.1875 
z
" id="DejaVuSans-109"/>
       <path d="M 48.6875 27.296875 
Q 48.6875 37.203125 44.609375 42.84375 
Q 40.53125 48.484375 33.40625 48.484375 
Q 26.265625 48.484375 22.1875 42.84375 
Q 18.109375 37.203125 18.109375 27.296875 
Q 18.109375 17.390625 22.1875 11.75 
Q 26.265625 6.109375 33.40625 6.109375 
Q 40.53125 6.109375 44.609375 11.75 
Q 48.6875 17.390625 48.6875 27.296875 
z
M 18.109375 46.390625 
Q 20.953125 51.265625 25.265625 53.625 
Q 29.59375 56 35.59375 56 
Q 45.5625 56 51.78125 48.09375 
Q 58.015625 40.1875 58.015625 27.296875 
Q 58.015625 14.40625 51.78125 6.484375 
Q 45.5625 -1.421875 35.59375 -1.421875 
Q 29.59375 -1.421875 25.265625 0.953125 
Q 20.953125 3.328125 18.109375 8.203125 
L 18.109375 0 
L 9.078125 0 
L 9.078125 75.984375 
L 18.109375 75.984375 
z
" id="DejaVuSans-98"/>
       <path d="M 41.109375 46.296875 
Q 39.59375 47.171875 37.8125 47.578125 
Q 36.03125 48 33.890625 48 
Q 26.265625 48 22.1875 43.046875 
Q 18.109375 38.09375 18.109375 28.8125 
L 18.109375 0 
L 9.078125 0 
L 9.078125 54.6875 
L 18.109375 54.6875 
L 18.109375 46.1875 
Q 20.953125 51.171875 25.484375 53.578125 
Q 30.03125 56 36.53125 56 
Q 37.453125 56 38.578125 55.875 
Q 39.703125 55.765625 41.0625 55.515625 
z
" id="DejaVuSans-114"/>
       <path id="DejaVuSans-32"/>
       <path d="M 30.609375 48.390625 
Q 23.390625 48.390625 19.1875 42.75 
Q 14.984375 37.109375 14.984375 27.296875 
Q 14.984375 17.484375 19.15625 11.84375 
Q 23.34375 6.203125 30.609375 6.203125 
Q 37.796875 6.203125 41.984375 11.859375 
Q 46.1875 17.53125 46.1875 27.296875 
Q 46.1875 37.015625 41.984375 42.703125 
Q 37.796875 48.390625 30.609375 48.390625 
z
M 30.609375 56 
Q 42.328125 56 49.015625 48.375 
Q 55.71875 40.765625 55.71875 27.296875 
Q 55.71875 13.875 49.015625 6.21875 
Q 42.328125 -1.421875 30.609375 -1.421875 
Q 18.84375 -1.421875 12.171875 6.21875 
Q 5.515625 13.875 5.515625 27.296875 
Q 5.515625 40.765625 12.171875 48.375 
Q 18.84375 56 30.609375 56 
z
" id="DejaVuSans-111"/>
       <path d="M 37.109375 75.984375 
L 37.109375 68.5 
L 28.515625 68.5 
Q 23.6875 68.5 21.796875 66.546875 
Q 19.921875 64.59375 19.921875 59.515625 
L 19.921875 54.6875 
L 34.71875 54.6875 
L 34.71875 47.703125 
L 19.921875 47.703125 
L 19.921875 0 
L 10.890625 0 
L 10.890625 47.703125 
L 2.296875 47.703125 
L 2.296875 54.6875 
L 10.890625 54.6875 
L 10.890625 58.5 
Q 10.890625 67.625 15.140625 71.796875 
Q 19.390625 75.984375 28.609375 75.984375 
z
" id="DejaVuSans-102"/>
       <path d="M 48.78125 52.59375 
L 48.78125 44.1875 
Q 44.96875 46.296875 41.140625 47.34375 
Q 37.3125 48.390625 33.40625 48.390625 
Q 24.65625 48.390625 19.8125 42.84375 
Q 14.984375 37.3125 14.984375 27.296875 
Q 14.984375 17.28125 19.8125 11.734375 
Q 24.65625 6.203125 33.40625 6.203125 
Q 37.3125 6.203125 41.140625 7.25 
Q 44.96875 8.296875 48.78125 10.40625 
L 48.78125 2.09375 
Q 45.015625 0.34375 40.984375 -0.53125 
Q 36.96875 -1.421875 32.421875 -1.421875 
Q 20.0625 -1.421875 12.78125 6.34375 
Q 5.515625 14.109375 5.515625 27.296875 
Q 5.515625 40.671875 12.859375 48.328125 
Q 20.21875 56 33.015625 56 
Q 37.15625 56 41.109375 55.140625 
Q 45.0625 54.296875 48.78125 52.59375 
z
" id="DejaVuSans-99"/>
       <path d="M 9.421875 54.6875 
L 18.40625 54.6875 
L 18.40625 0 
L 9.421875 0 
z
M 9.421875 75.984375 
L 18.40625 75.984375 
L 18.40625 64.59375 
L 9.421875 64.59375 
z
" id="DejaVuSans-105"/>
       <path d="M 2.984375 54.6875 
L 12.5 54.6875 
L 29.59375 8.796875 
L 46.6875 54.6875 
L 56.203125 54.6875 
L 35.6875 0 
L 23.484375 0 
z
" id="DejaVuSans-118"/>
       <path d="M 44.28125 53.078125 
L 44.28125 44.578125 
Q 40.484375 46.53125 36.375 47.5 
Q 32.28125 48.484375 27.875 48.484375 
Q 21.1875 48.484375 17.84375 46.4375 
Q 14.5 44.390625 14.5 40.28125 
Q 14.5 37.15625 16.890625 35.375 
Q 19.28125 33.59375 26.515625 31.984375 
L 29.59375 31.296875 
Q 39.15625 29.25 43.1875 25.515625 
Q 47.21875 21.78125 47.21875 15.09375 
Q 47.21875 7.46875 41.1875 3.015625 
Q 35.15625 -1.421875 24.609375 -1.421875 
Q 20.21875 -1.421875 15.453125 -0.5625 
Q 10.6875 0.296875 5.421875 2 
L 5.421875 11.28125 
Q 10.40625 8.6875 15.234375 7.390625 
Q 20.0625 6.109375 24.8125 6.109375 
Q 31.15625 6.109375 34.5625 8.28125 
Q 37.984375 10.453125 37.984375 14.40625 
Q 37.984375 18.0625 35.515625 20.015625 
Q 33.0625 21.96875 24.703125 23.78125 
L 21.578125 24.515625 
Q 13.234375 26.265625 9.515625 29.90625 
Q 5.8125 33.546875 5.8125 39.890625 
Q 5.8125 47.609375 11.28125 51.796875 
Q 16.75 56 26.8125 56 
Q 31.78125 56 36.171875 55.265625 
Q 40.578125 54.546875 44.28125 53.078125 
z
" id="DejaVuSans-115"/>
      </defs>
      <use xlink:href="#DejaVuSans-110"/>
      <use x="63.378906" xlink:href="#DejaVuSans-117"/>
      <use x="126.757812" xlink:href="#DejaVuSans-109"/>
      <use x="224.169922" xlink:href="#DejaVuSans-98"/>
      <use x="287.646484" xlink:href="#DejaVuSans-101"/>
      <use x="349.169922" xlink:href="#DejaVuSans-114"/>
      <use x="390.283203" xlink:href="#DejaVuSans-32"/>
      <use x="422.070312" xlink:href="#DejaVuSans-111"/>
      <use x="483.251953" xlink:href="#DejaVuSans-102"/>
      <use x="518.457031" xlink:href="#DejaVuSans-32"/>
      <use x="550.244141" xlink:href="#DejaVuSans-97"/>
      <use x="611.523438" xlink:href="#DejaVuSans-99"/>
      <use x="666.503906" xlink:href="#DejaVuSans-116"/>
      <use x="705.712891" xlink:href="#DejaVuSans-105"/>
      <use x="733.496094" xlink:href="#DejaVuSans-118"/>
      <use x="792.675781" xlink:href="#DejaVuSans-101"/>
      <use x="854.199219" xlink:href="#DejaVuSans-32"/>
      <use x="885.986328" xlink:href="#DejaVuSans-99"/>
      <use x="940.966797" xlink:href="#DejaVuSans-111"/>
      <use x="1002.148438" xlink:href="#DejaVuSans-114"/>
      <use x="1041.011719" xlink:href="#DejaVuSans-111"/>
      <use x="1102.193359" xlink:href="#DejaVuSans-110"/>
      <use x="1165.572266" xlink:href="#DejaVuSans-97"/>
      <use x="1226.851562" xlink:href="#DejaVuSans-32"/>
      <use x="1258.638672" xlink:href="#DejaVuSans-99"/>
      <use x="1313.619141" xlink:href="#DejaVuSans-97"/>
      <use x="1374.898438" xlink:href="#DejaVuSans-115"/>
      <use x="1426.998047" xlink:href="#DejaVuSans-101"/>
      <use x="1488.521484" xlink:href="#DejaVuSans-115"/>
     </g>
    </g>
   </g>
   <g id="patch_279">
    <path d="M 65.690625 288.430125 
L 65.690625 22.318125 
" style="fill:none;stroke:#000000;stroke-linecap:square;stroke-linejoin:miter;stroke-width:0.8;"/>
   </g>
   <g id="patch_280">
    <path d="M 65.690625 288.430125 
L 422.810625 288.430125 
" style="fill:none;stroke:#000000;stroke-linecap:square;stroke-linejoin:miter;stroke-width:0.8;"/>
   </g>
   <g id="text_18">
    <!-- South Tyrol -->
    <g transform="translate(210.958125 16.318125)scale(0.12 -0.12)">
     <defs>
      <path d="M 53.515625 70.515625 
L 53.515625 60.890625 
Q 47.90625 63.578125 42.921875 64.890625 
Q 37.9375 66.21875 33.296875 66.21875 
Q 25.25 66.21875 20.875 63.09375 
Q 16.5 59.96875 16.5 54.203125 
Q 16.5 49.359375 19.40625 46.890625 
Q 22.3125 44.4375 30.421875 42.921875 
L 36.375 41.703125 
Q 47.40625 39.59375 52.65625 34.296875 
Q 57.90625 29 57.90625 20.125 
Q 57.90625 9.515625 50.796875 4.046875 
Q 43.703125 -1.421875 29.984375 -1.421875 
Q 24.8125 -1.421875 18.96875 -0.25 
Q 13.140625 0.921875 6.890625 3.21875 
L 6.890625 13.375 
Q 12.890625 10.015625 18.65625 8.296875 
Q 24.421875 6.59375 29.984375 6.59375 
Q 38.421875 6.59375 43.015625 9.90625 
Q 47.609375 13.234375 47.609375 19.390625 
Q 47.609375 24.75 44.3125 27.78125 
Q 41.015625 30.8125 33.5 32.328125 
L 27.484375 33.5 
Q 16.453125 35.6875 11.515625 40.375 
Q 6.59375 45.0625 6.59375 53.421875 
Q 6.59375 63.09375 13.40625 68.65625 
Q 20.21875 74.21875 32.171875 74.21875 
Q 37.3125 74.21875 42.625 73.28125 
Q 47.953125 72.359375 53.515625 70.515625 
z
" id="DejaVuSans-83"/>
      <path d="M 54.890625 33.015625 
L 54.890625 0 
L 45.90625 0 
L 45.90625 32.71875 
Q 45.90625 40.484375 42.875 44.328125 
Q 39.84375 48.1875 33.796875 48.1875 
Q 26.515625 48.1875 22.3125 43.546875 
Q 18.109375 38.921875 18.109375 30.90625 
L 18.109375 0 
L 9.078125 0 
L 9.078125 75.984375 
L 18.109375 75.984375 
L 18.109375 46.1875 
Q 21.34375 51.125 25.703125 53.5625 
Q 30.078125 56 35.796875 56 
Q 45.21875 56 50.046875 50.171875 
Q 54.890625 44.34375 54.890625 33.015625 
z
" id="DejaVuSans-104"/>
      <path d="M -0.296875 72.90625 
L 61.375 72.90625 
L 61.375 64.59375 
L 35.5 64.59375 
L 35.5 0 
L 25.59375 0 
L 25.59375 64.59375 
L -0.296875 64.59375 
z
" id="DejaVuSans-84"/>
      <path d="M 32.171875 -5.078125 
Q 28.375 -14.84375 24.75 -17.8125 
Q 21.140625 -20.796875 15.09375 -20.796875 
L 7.90625 -20.796875 
L 7.90625 -13.28125 
L 13.1875 -13.28125 
Q 16.890625 -13.28125 18.9375 -11.515625 
Q 21 -9.765625 23.484375 -3.21875 
L 25.09375 0.875 
L 2.984375 54.6875 
L 12.5 54.6875 
L 29.59375 11.921875 
L 46.6875 54.6875 
L 56.203125 54.6875 
z
" id="DejaVuSans-121"/>
      <path d="M 9.421875 75.984375 
L 18.40625 75.984375 
L 18.40625 0 
L 9.421875 0 
z
" id="DejaVuSans-108"/>
     </defs>
     <use xlink:href="#DejaVuSans-83"/>
     <use x="63.476562" xlink:href="#DejaVuSans-111"/>
     <use x="124.658203" xlink:href="#DejaVuSans-117"/>
     <use x="188.037109" xlink:href="#DejaVuSans-116"/>
     <use x="227.246094" xlink:href="#DejaVuSans-104"/>
     <use x="290.625" xlink:href="#DejaVuSans-32"/>
     <use x="322.412109" xlink:href="#DejaVuSans-84"/>
     <use x="367.871094" xlink:href="#DejaVuSans-121"/>
     <use x="427.050781" xlink:href="#DejaVuSans-114"/>
     <use x="465.914062" xlink:href="#DejaVuSans-111"/>
     <use x="527.095703" xlink:href="#DejaVuSans-108"/>
    </g>
   </g>
  </g>
 </g>
 <defs>
  <clipPath id="p007b663618">
   <rect height="266.112" width="357.12" x="65.690625" y="22.318125"/>
  </clipPath>
 </defs>
</svg>
