<?xml version="1.0" encoding="utf-8" standalone="no"?>
<!DOCTYPE svg PUBLIC "-//W3C//DTD SVG 1.1//EN"
  "http://www.w3.org/Graphics/SVG/1.1/DTD/svg11.dtd">
<!-- Created with matplotlib (https://matplotlib.org/) -->
<svg height="364.091062pt" version="1.1" viewBox="0 0 430.010625 364.091062" width="430.010625pt" xmlns="http://www.w3.org/2000/svg" xmlns:xlink="http://www.w3.org/1999/xlink">
 <metadata>
  <rdf:RDF xmlns:cc="http://creativecommons.org/ns#" xmlns:dc="http://purl.org/dc/elements/1.1/" xmlns:rdf="http://www.w3.org/1999/02/22-rdf-syntax-ns#">
   <cc:Work>
    <dc:type rdf:resource="http://purl.org/dc/dcmitype/StillImage"/>
    <dc:date>2020-12-06T11:25:02.285984</dc:date>
    <dc:format>image/svg+xml</dc:format>
    <dc:creator>
     <cc:Agent>
      <dc:title>Matplotlib v3.3.3, https://matplotlib.org/</dc:title>
     </cc:Agent>
    </dc:creator>
   </cc:Work>
  </rdf:RDF>
 </metadata>
 <defs>
  <style type="text/css">*{stroke-linecap:butt;stroke-linejoin:round;}</style>
 </defs>
 <g id="figure_1">
  <g id="patch_1">
   <path d="M 0 364.091062 
L 430.010625 364.091062 
L 430.010625 0 
L 0 0 
z
" style="fill:#ffffff;"/>
  </g>
  <g id="axes_1">
   <g id="patch_2">
    <path d="M 65.690625 288.430125 
L 422.810625 288.430125 
L 422.810625 22.318125 
L 65.690625 22.318125 
z
" style="fill:#ffffff;"/>
   </g>
   <g id="patch_3">
    <path clip-path="url(#pb3d43bf911)" d="M 65.824378 288.430125 
L 66.8944 288.430125 
L 66.8944 283.894255 
L 65.824378 283.894255 
z
" style="fill:#1f77b4;"/>
   </g>
   <g id="patch_4">
    <path clip-path="url(#pb3d43bf911)" d="M 67.161906 288.430125 
L 68.231928 288.430125 
L 68.231928 283.050902 
L 67.161906 283.050902 
z
" style="fill:#1f77b4;"/>
   </g>
   <g id="patch_5">
    <path clip-path="url(#pb3d43bf911)" d="M 68.499434 288.430125 
L 69.569456 288.430125 
L 69.569456 282.025202 
L 68.499434 282.025202 
z
" style="fill:#1f77b4;"/>
   </g>
   <g id="patch_6">
    <path clip-path="url(#pb3d43bf911)" d="M 69.836962 288.430125 
L 70.906985 288.430125 
L 70.906985 280.133357 
L 69.836962 280.133357 
z
" style="fill:#1f77b4;"/>
   </g>
   <g id="patch_7">
    <path clip-path="url(#pb3d43bf911)" d="M 71.17449 288.430125 
L 72.244513 288.430125 
L 72.244513 278.925311 
L 71.17449 278.925311 
z
" style="fill:#1f77b4;"/>
   </g>
   <g id="patch_8">
    <path clip-path="url(#pb3d43bf911)" d="M 72.512018 288.430125 
L 73.582041 288.430125 
L 73.582041 276.463632 
L 72.512018 276.463632 
z
" style="fill:#1f77b4;"/>
   </g>
   <g id="patch_9">
    <path clip-path="url(#pb3d43bf911)" d="M 73.849546 288.430125 
L 74.919569 288.430125 
L 74.919569 275.07324 
L 73.849546 275.07324 
z
" style="fill:#1f77b4;"/>
   </g>
   <g id="patch_10">
    <path clip-path="url(#pb3d43bf911)" d="M 75.187074 288.430125 
L 76.257097 288.430125 
L 76.257097 274.070334 
L 75.187074 274.070334 
z
" style="fill:#1f77b4;"/>
   </g>
   <g id="patch_11">
    <path clip-path="url(#pb3d43bf911)" d="M 76.524603 288.430125 
L 77.594625 288.430125 
L 77.594625 273.272568 
L 76.524603 273.272568 
z
" style="fill:#1f77b4;"/>
   </g>
   <g id="patch_12">
    <path clip-path="url(#pb3d43bf911)" d="M 77.862131 288.430125 
L 78.932153 288.430125 
L 78.932153 271.996142 
L 77.862131 271.996142 
z
" style="fill:#1f77b4;"/>
   </g>
   <g id="patch_13">
    <path clip-path="url(#pb3d43bf911)" d="M 79.199659 288.430125 
L 80.269681 288.430125 
L 80.269681 271.107203 
L 79.199659 271.107203 
z
" style="fill:#1f77b4;"/>
   </g>
   <g id="patch_14">
    <path clip-path="url(#pb3d43bf911)" d="M 80.537187 288.430125 
L 81.607209 288.430125 
L 81.607209 269.78519 
L 80.537187 269.78519 
z
" style="fill:#1f77b4;"/>
   </g>
   <g id="patch_15">
    <path clip-path="url(#pb3d43bf911)" d="M 81.874715 288.430125 
L 82.944737 288.430125 
L 82.944737 267.961724 
L 81.874715 267.961724 
z
" style="fill:#1f77b4;"/>
   </g>
   <g id="patch_16">
    <path clip-path="url(#pb3d43bf911)" d="M 83.212243 288.430125 
L 84.282265 288.430125 
L 84.282265 266.343399 
L 83.212243 266.343399 
z
" style="fill:#1f77b4;"/>
   </g>
   <g id="patch_17">
    <path clip-path="url(#pb3d43bf911)" d="M 84.549771 288.430125 
L 85.619794 288.430125 
L 85.619794 263.88172 
L 84.549771 263.88172 
z
" style="fill:#1f77b4;"/>
   </g>
   <g id="patch_18">
    <path clip-path="url(#pb3d43bf911)" d="M 85.887299 288.430125 
L 86.957322 288.430125 
L 86.957322 262.354568 
L 85.887299 262.354568 
z
" style="fill:#1f77b4;"/>
   </g>
   <g id="patch_19">
    <path clip-path="url(#pb3d43bf911)" d="M 87.224827 288.430125 
L 88.29485 288.430125 
L 88.29485 262.217808 
L 87.224827 262.217808 
z
" style="fill:#1f77b4;"/>
   </g>
   <g id="patch_20">
    <path clip-path="url(#pb3d43bf911)" d="M 88.562355 288.430125 
L 89.632378 288.430125 
L 89.632378 261.716355 
L 88.562355 261.716355 
z
" style="fill:#1f77b4;"/>
   </g>
   <g id="patch_21">
    <path clip-path="url(#pb3d43bf911)" d="M 89.899883 288.430125 
L 90.969906 288.430125 
L 90.969906 261.214902 
L 89.899883 261.214902 
z
" style="fill:#1f77b4;"/>
   </g>
   <g id="patch_22">
    <path clip-path="url(#pb3d43bf911)" d="M 91.237412 288.430125 
L 92.307434 288.430125 
L 92.307434 260.280376 
L 91.237412 260.280376 
z
" style="fill:#1f77b4;"/>
   </g>
   <g id="patch_23">
    <path clip-path="url(#pb3d43bf911)" d="M 92.57494 288.430125 
L 93.644962 288.430125 
L 93.644962 258.548084 
L 92.57494 258.548084 
z
" style="fill:#1f77b4;"/>
   </g>
   <g id="patch_24">
    <path clip-path="url(#pb3d43bf911)" d="M 93.912468 288.430125 
L 94.98249 288.430125 
L 94.98249 258.137804 
L 93.912468 258.137804 
z
" style="fill:#1f77b4;"/>
   </g>
   <g id="patch_25">
    <path clip-path="url(#pb3d43bf911)" d="M 95.249996 288.430125 
L 96.320018 288.430125 
L 96.320018 257.020931 
L 95.249996 257.020931 
z
" style="fill:#1f77b4;"/>
   </g>
   <g id="patch_26">
    <path clip-path="url(#pb3d43bf911)" d="M 96.587524 288.430125 
L 97.657546 288.430125 
L 97.657546 256.245958 
L 96.587524 256.245958 
z
" style="fill:#1f77b4;"/>
   </g>
   <g id="patch_27">
    <path clip-path="url(#pb3d43bf911)" d="M 97.925052 288.430125 
L 98.995074 288.430125 
L 98.995074 255.812885 
L 97.925052 255.812885 
z
" style="fill:#1f77b4;"/>
   </g>
   <g id="patch_28">
    <path clip-path="url(#pb3d43bf911)" d="M 99.26258 288.430125 
L 100.332603 288.430125 
L 100.332603 255.448192 
L 99.26258 255.448192 
z
" style="fill:#1f77b4;"/>
   </g>
   <g id="patch_29">
    <path clip-path="url(#pb3d43bf911)" d="M 100.600108 288.430125 
L 101.670131 288.430125 
L 101.670131 254.901153 
L 100.600108 254.901153 
z
" style="fill:#1f77b4;"/>
   </g>
   <g id="patch_30">
    <path clip-path="url(#pb3d43bf911)" d="M 101.937636 288.430125 
L 103.007659 288.430125 
L 103.007659 254.490873 
L 101.937636 254.490873 
z
" style="fill:#1f77b4;"/>
   </g>
   <g id="patch_31">
    <path clip-path="url(#pb3d43bf911)" d="M 103.275164 288.430125 
L 104.345187 288.430125 
L 104.345187 253.7159 
L 103.275164 253.7159 
z
" style="fill:#1f77b4;"/>
   </g>
   <g id="patch_32">
    <path clip-path="url(#pb3d43bf911)" d="M 104.612692 288.430125 
L 105.682715 288.430125 
L 105.682715 252.963721 
L 104.612692 252.963721 
z
" style="fill:#1f77b4;"/>
   </g>
   <g id="patch_33">
    <path clip-path="url(#pb3d43bf911)" d="M 105.950221 288.430125 
L 107.020243 288.430125 
L 107.020243 252.485061 
L 105.950221 252.485061 
z
" style="fill:#1f77b4;"/>
   </g>
   <g id="patch_34">
    <path clip-path="url(#pb3d43bf911)" d="M 107.287749 288.430125 
L 108.357771 288.430125 
L 108.357771 252.234334 
L 107.287749 252.234334 
z
" style="fill:#1f77b4;"/>
   </g>
   <g id="patch_35">
    <path clip-path="url(#pb3d43bf911)" d="M 108.625277 288.430125 
L 109.695299 288.430125 
L 109.695299 252.143161 
L 108.625277 252.143161 
z
" style="fill:#1f77b4;"/>
   </g>
   <g id="patch_36">
    <path clip-path="url(#pb3d43bf911)" d="M 109.962805 288.430125 
L 111.032827 288.430125 
L 111.032827 252.325508 
L 109.962805 252.325508 
z
" style="fill:#1f77b4;"/>
   </g>
   <g id="patch_37">
    <path clip-path="url(#pb3d43bf911)" d="M 111.300333 288.430125 
L 112.370355 288.430125 
L 112.370355 252.963721 
L 111.300333 252.963721 
z
" style="fill:#1f77b4;"/>
   </g>
   <g id="patch_38">
    <path clip-path="url(#pb3d43bf911)" d="M 112.637861 288.430125 
L 113.707883 288.430125 
L 113.707883 252.735787 
L 112.637861 252.735787 
z
" style="fill:#1f77b4;"/>
   </g>
   <g id="patch_39">
    <path clip-path="url(#pb3d43bf911)" d="M 113.975389 288.430125 
L 115.045412 288.430125 
L 115.045412 253.282827 
L 113.975389 253.282827 
z
" style="fill:#1f77b4;"/>
   </g>
   <g id="patch_40">
    <path clip-path="url(#pb3d43bf911)" d="M 115.312917 288.430125 
L 116.38294 288.430125 
L 116.38294 253.396794 
L 115.312917 253.396794 
z
" style="fill:#1f77b4;"/>
   </g>
   <g id="patch_41">
    <path clip-path="url(#pb3d43bf911)" d="M 116.650445 288.430125 
L 117.720468 288.430125 
L 117.720468 253.966627 
L 116.650445 253.966627 
z
" style="fill:#1f77b4;"/>
   </g>
   <g id="patch_42">
    <path clip-path="url(#pb3d43bf911)" d="M 117.987973 288.430125 
L 119.057996 288.430125 
L 119.057996 254.376906 
L 117.987973 254.376906 
z
" style="fill:#1f77b4;"/>
   </g>
   <g id="patch_43">
    <path clip-path="url(#pb3d43bf911)" d="M 119.325501 288.430125 
L 120.395524 288.430125 
L 120.395524 263.517027 
L 119.325501 263.517027 
z
" style="fill:#1f77b4;"/>
   </g>
   <g id="patch_44">
    <path clip-path="url(#pb3d43bf911)" d="M 120.663029 288.430125 
L 121.733052 288.430125 
L 121.733052 264.83904 
L 120.663029 264.83904 
z
" style="fill:#1f77b4;"/>
   </g>
   <g id="patch_45">
    <path clip-path="url(#pb3d43bf911)" d="M 122.000558 288.430125 
L 123.07058 288.430125 
L 123.07058 265.773566 
L 122.000558 265.773566 
z
" style="fill:#1f77b4;"/>
   </g>
   <g id="patch_46">
    <path clip-path="url(#pb3d43bf911)" d="M 123.338086 288.430125 
L 124.408108 288.430125 
L 124.408108 267.004405 
L 123.338086 267.004405 
z
" style="fill:#1f77b4;"/>
   </g>
   <g id="patch_47">
    <path clip-path="url(#pb3d43bf911)" d="M 124.675614 288.430125 
L 125.745636 288.430125 
L 125.745636 267.688205 
L 124.675614 267.688205 
z
" style="fill:#1f77b4;"/>
   </g>
   <g id="patch_48">
    <path clip-path="url(#pb3d43bf911)" d="M 126.013142 288.430125 
L 127.083164 288.430125 
L 127.083164 269.16977 
L 126.013142 269.16977 
z
" style="fill:#1f77b4;"/>
   </g>
   <g id="patch_49">
    <path clip-path="url(#pb3d43bf911)" d="M 127.35067 288.430125 
L 128.420692 288.430125 
L 128.420692 270.149883 
L 127.35067 270.149883 
z
" style="fill:#1f77b4;"/>
   </g>
   <g id="patch_50">
    <path clip-path="url(#pb3d43bf911)" d="M 128.688198 288.430125 
L 129.758221 288.430125 
L 129.758221 271.175582 
L 128.688198 271.175582 
z
" style="fill:#1f77b4;"/>
   </g>
   <g id="patch_51">
    <path clip-path="url(#pb3d43bf911)" d="M 130.025726 288.430125 
L 131.095749 288.430125 
L 131.095749 272.406422 
L 130.025726 272.406422 
z
" style="fill:#1f77b4;"/>
   </g>
   <g id="patch_52">
    <path clip-path="url(#pb3d43bf911)" d="M 131.363254 288.430125 
L 132.433277 288.430125 
L 132.433277 273.272568 
L 131.363254 273.272568 
z
" style="fill:#1f77b4;"/>
   </g>
   <g id="patch_53">
    <path clip-path="url(#pb3d43bf911)" d="M 132.700782 288.430125 
L 133.770805 288.430125 
L 133.770805 273.933574 
L 132.700782 273.933574 
z
" style="fill:#1f77b4;"/>
   </g>
   <g id="patch_54">
    <path clip-path="url(#pb3d43bf911)" d="M 134.03831 288.430125 
L 135.108333 288.430125 
L 135.108333 274.480614 
L 134.03831 274.480614 
z
" style="fill:#1f77b4;"/>
   </g>
   <g id="patch_55">
    <path clip-path="url(#pb3d43bf911)" d="M 135.375838 288.430125 
L 136.445861 288.430125 
L 136.445861 275.232793 
L 135.375838 275.232793 
z
" style="fill:#1f77b4;"/>
   </g>
   <g id="patch_56">
    <path clip-path="url(#pb3d43bf911)" d="M 136.713367 288.430125 
L 137.783389 288.430125 
L 137.783389 275.871006 
L 136.713367 275.871006 
z
" style="fill:#1f77b4;"/>
   </g>
   <g id="patch_57">
    <path clip-path="url(#pb3d43bf911)" d="M 138.050895 288.430125 
L 139.120917 288.430125 
L 139.120917 276.987879 
L 138.050895 276.987879 
z
" style="fill:#1f77b4;"/>
   </g>
   <g id="patch_58">
    <path clip-path="url(#pb3d43bf911)" d="M 139.388423 288.430125 
L 140.458445 288.430125 
L 140.458445 277.648885 
L 139.388423 277.648885 
z
" style="fill:#1f77b4;"/>
   </g>
   <g id="patch_59">
    <path clip-path="url(#pb3d43bf911)" d="M 140.725951 288.430125 
L 141.795973 288.430125 
L 141.795973 277.967992 
L 140.725951 277.967992 
z
" style="fill:#1f77b4;"/>
   </g>
   <g id="patch_60">
    <path clip-path="url(#pb3d43bf911)" d="M 142.063479 288.430125 
L 143.133501 288.430125 
L 143.133501 278.241511 
L 142.063479 278.241511 
z
" style="fill:#1f77b4;"/>
   </g>
   <g id="patch_61">
    <path clip-path="url(#pb3d43bf911)" d="M 143.401007 288.430125 
L 144.471029 288.430125 
L 144.471029 278.469445 
L 143.401007 278.469445 
z
" style="fill:#1f77b4;"/>
   </g>
   <g id="patch_62">
    <path clip-path="url(#pb3d43bf911)" d="M 144.738535 288.430125 
L 145.808558 288.430125 
L 145.808558 279.016484 
L 144.738535 279.016484 
z
" style="fill:#1f77b4;"/>
   </g>
   <g id="patch_63">
    <path clip-path="url(#pb3d43bf911)" d="M 146.076063 288.430125 
L 147.146086 288.430125 
L 147.146086 279.768664 
L 146.076063 279.768664 
z
" style="fill:#1f77b4;"/>
   </g>
   <g id="patch_64">
    <path clip-path="url(#pb3d43bf911)" d="M 147.413591 288.430125 
L 148.483614 288.430125 
L 148.483614 280.247323 
L 147.413591 280.247323 
z
" style="fill:#1f77b4;"/>
   </g>
   <g id="patch_65">
    <path clip-path="url(#pb3d43bf911)" d="M 148.751119 288.430125 
L 149.821142 288.430125 
L 149.821142 280.725983 
L 148.751119 280.725983 
z
" style="fill:#1f77b4;"/>
   </g>
   <g id="patch_66">
    <path clip-path="url(#pb3d43bf911)" d="M 150.088647 288.430125 
L 151.15867 288.430125 
L 151.15867 281.295816 
L 150.088647 281.295816 
z
" style="fill:#1f77b4;"/>
   </g>
   <g id="patch_67">
    <path clip-path="url(#pb3d43bf911)" d="M 151.426176 288.430125 
L 152.496198 288.430125 
L 152.496198 281.432576 
L 151.426176 281.432576 
z
" style="fill:#1f77b4;"/>
   </g>
   <g id="patch_68">
    <path clip-path="url(#pb3d43bf911)" d="M 152.763704 288.430125 
L 153.833726 288.430125 
L 153.833726 281.409783 
L 152.763704 281.409783 
z
" style="fill:#1f77b4;"/>
   </g>
   <g id="patch_69">
    <path clip-path="url(#pb3d43bf911)" d="M 154.101232 288.430125 
L 155.171254 288.430125 
L 155.171254 282.230342 
L 154.101232 282.230342 
z
" style="fill:#1f77b4;"/>
   </g>
   <g id="patch_70">
    <path clip-path="url(#pb3d43bf911)" d="M 155.43876 288.430125 
L 156.508782 288.430125 
L 156.508782 282.731795 
L 155.43876 282.731795 
z
" style="fill:#1f77b4;"/>
   </g>
   <g id="patch_71">
    <path clip-path="url(#pb3d43bf911)" d="M 156.776288 288.430125 
L 157.84631 288.430125 
L 157.84631 283.324422 
L 156.776288 283.324422 
z
" style="fill:#1f77b4;"/>
   </g>
   <g id="patch_72">
    <path clip-path="url(#pb3d43bf911)" d="M 158.113816 288.430125 
L 159.183838 288.430125 
L 159.183838 283.552355 
L 158.113816 283.552355 
z
" style="fill:#1f77b4;"/>
   </g>
   <g id="patch_73">
    <path clip-path="url(#pb3d43bf911)" d="M 159.451344 288.430125 
L 160.521367 288.430125 
L 160.521367 284.008221 
L 159.451344 284.008221 
z
" style="fill:#1f77b4;"/>
   </g>
   <g id="patch_74">
    <path clip-path="url(#pb3d43bf911)" d="M 160.788872 288.430125 
L 161.858895 288.430125 
L 161.858895 284.258948 
L 160.788872 284.258948 
z
" style="fill:#1f77b4;"/>
   </g>
   <g id="patch_75">
    <path clip-path="url(#pb3d43bf911)" d="M 162.1264 288.430125 
L 163.196423 288.430125 
L 163.196423 284.350121 
L 162.1264 284.350121 
z
" style="fill:#1f77b4;"/>
   </g>
   <g id="patch_76">
    <path clip-path="url(#pb3d43bf911)" d="M 163.463928 288.430125 
L 164.533951 288.430125 
L 164.533951 284.532467 
L 163.463928 284.532467 
z
" style="fill:#1f77b4;"/>
   </g>
   <g id="patch_77">
    <path clip-path="url(#pb3d43bf911)" d="M 164.801456 288.430125 
L 165.871479 288.430125 
L 165.871479 284.851574 
L 164.801456 284.851574 
z
" style="fill:#1f77b4;"/>
   </g>
   <g id="patch_78">
    <path clip-path="url(#pb3d43bf911)" d="M 166.138985 288.430125 
L 167.209007 288.430125 
L 167.209007 284.919954 
L 166.138985 284.919954 
z
" style="fill:#1f77b4;"/>
   </g>
   <g id="patch_79">
    <path clip-path="url(#pb3d43bf911)" d="M 167.476513 288.430125 
L 168.546535 288.430125 
L 168.546535 285.30744 
L 167.476513 285.30744 
z
" style="fill:#1f77b4;"/>
   </g>
   <g id="patch_80">
    <path clip-path="url(#pb3d43bf911)" d="M 168.814041 288.430125 
L 169.884063 288.430125 
L 169.884063 285.535373 
L 168.814041 285.535373 
z
" style="fill:#1f77b4;"/>
   </g>
   <g id="patch_81">
    <path clip-path="url(#pb3d43bf911)" d="M 170.151569 288.430125 
L 171.221591 288.430125 
L 171.221591 285.64934 
L 170.151569 285.64934 
z
" style="fill:#1f77b4;"/>
   </g>
   <g id="patch_82">
    <path clip-path="url(#pb3d43bf911)" d="M 171.489097 288.430125 
L 172.559119 288.430125 
L 172.559119 285.71772 
L 171.489097 285.71772 
z
" style="fill:#1f77b4;"/>
   </g>
   <g id="patch_83">
    <path clip-path="url(#pb3d43bf911)" d="M 172.826625 288.430125 
L 173.896647 288.430125 
L 173.896647 285.71772 
L 172.826625 285.71772 
z
" style="fill:#1f77b4;"/>
   </g>
   <g id="patch_84">
    <path clip-path="url(#pb3d43bf911)" d="M 174.164153 288.430125 
L 175.234176 288.430125 
L 175.234176 285.900067 
L 174.164153 285.900067 
z
" style="fill:#1f77b4;"/>
   </g>
   <g id="patch_85">
    <path clip-path="url(#pb3d43bf911)" d="M 175.501681 288.430125 
L 176.571704 288.430125 
L 176.571704 286.150793 
L 175.501681 286.150793 
z
" style="fill:#1f77b4;"/>
   </g>
   <g id="patch_86">
    <path clip-path="url(#pb3d43bf911)" d="M 176.839209 288.430125 
L 177.909232 288.430125 
L 177.909232 286.173586 
L 176.839209 286.173586 
z
" style="fill:#1f77b4;"/>
   </g>
   <g id="patch_87">
    <path clip-path="url(#pb3d43bf911)" d="M 178.176737 288.430125 
L 179.24676 288.430125 
L 179.24676 286.241966 
L 178.176737 286.241966 
z
" style="fill:#1f77b4;"/>
   </g>
   <g id="patch_88">
    <path clip-path="url(#pb3d43bf911)" d="M 179.514265 288.430125 
L 180.584288 288.430125 
L 180.584288 286.26476 
L 179.514265 286.26476 
z
" style="fill:#1f77b4;"/>
   </g>
   <g id="patch_89">
    <path clip-path="url(#pb3d43bf911)" d="M 180.851794 288.430125 
L 181.921816 288.430125 
L 181.921816 286.310346 
L 180.851794 286.310346 
z
" style="fill:#1f77b4;"/>
   </g>
   <g id="patch_90">
    <path clip-path="url(#pb3d43bf911)" d="M 182.189322 288.430125 
L 183.259344 288.430125 
L 183.259344 286.33314 
L 182.189322 286.33314 
z
" style="fill:#1f77b4;"/>
   </g>
   <g id="patch_91">
    <path clip-path="url(#pb3d43bf911)" d="M 183.52685 288.430125 
L 184.596872 288.430125 
L 184.596872 286.173586 
L 183.52685 286.173586 
z
" style="fill:#1f77b4;"/>
   </g>
   <g id="patch_92">
    <path clip-path="url(#pb3d43bf911)" d="M 184.864378 288.430125 
L 185.9344 288.430125 
L 185.9344 286.128 
L 184.864378 286.128 
z
" style="fill:#1f77b4;"/>
   </g>
   <g id="patch_93">
    <path clip-path="url(#pb3d43bf911)" d="M 186.201906 288.430125 
L 187.271928 288.430125 
L 187.271928 286.26476 
L 186.201906 286.26476 
z
" style="fill:#1f77b4;"/>
   </g>
   <g id="patch_94">
    <path clip-path="url(#pb3d43bf911)" d="M 187.539434 288.430125 
L 188.609456 288.430125 
L 188.609456 286.26476 
L 187.539434 286.26476 
z
" style="fill:#1f77b4;"/>
   </g>
   <g id="patch_95">
    <path clip-path="url(#pb3d43bf911)" d="M 188.876962 288.430125 
L 189.946985 288.430125 
L 189.946985 286.287553 
L 188.876962 286.287553 
z
" style="fill:#1f77b4;"/>
   </g>
   <g id="patch_96">
    <path clip-path="url(#pb3d43bf911)" d="M 190.21449 288.430125 
L 191.284513 288.430125 
L 191.284513 286.310346 
L 190.21449 286.310346 
z
" style="fill:#1f77b4;"/>
   </g>
   <g id="patch_97">
    <path clip-path="url(#pb3d43bf911)" d="M 191.552018 288.430125 
L 192.622041 288.430125 
L 192.622041 286.447106 
L 191.552018 286.447106 
z
" style="fill:#1f77b4;"/>
   </g>
   <g id="patch_98">
    <path clip-path="url(#pb3d43bf911)" d="M 192.889546 288.430125 
L 193.959569 288.430125 
L 193.959569 286.492693 
L 192.889546 286.492693 
z
" style="fill:#1f77b4;"/>
   </g>
   <g id="patch_99">
    <path clip-path="url(#pb3d43bf911)" d="M 194.227074 288.430125 
L 195.297097 288.430125 
L 195.297097 286.720626 
L 194.227074 286.720626 
z
" style="fill:#1f77b4;"/>
   </g>
   <g id="patch_100">
    <path clip-path="url(#pb3d43bf911)" d="M 195.564603 288.430125 
L 196.634625 288.430125 
L 196.634625 286.697833 
L 195.564603 286.697833 
z
" style="fill:#1f77b4;"/>
   </g>
   <g id="patch_101">
    <path clip-path="url(#pb3d43bf911)" d="M 196.902131 288.430125 
L 197.972153 288.430125 
L 197.972153 286.720626 
L 196.902131 286.720626 
z
" style="fill:#1f77b4;"/>
   </g>
   <g id="patch_102">
    <path clip-path="url(#pb3d43bf911)" d="M 198.239659 288.430125 
L 199.309681 288.430125 
L 199.309681 286.40152 
L 198.239659 286.40152 
z
" style="fill:#1f77b4;"/>
   </g>
   <g id="patch_103">
    <path clip-path="url(#pb3d43bf911)" d="M 199.577187 288.430125 
L 200.647209 288.430125 
L 200.647209 286.40152 
L 199.577187 286.40152 
z
" style="fill:#1f77b4;"/>
   </g>
   <g id="patch_104">
    <path clip-path="url(#pb3d43bf911)" d="M 200.914715 288.430125 
L 201.984737 288.430125 
L 201.984737 286.378726 
L 200.914715 286.378726 
z
" style="fill:#1f77b4;"/>
   </g>
   <g id="patch_105">
    <path clip-path="url(#pb3d43bf911)" d="M 202.252243 288.430125 
L 203.322265 288.430125 
L 203.322265 286.447106 
L 202.252243 286.447106 
z
" style="fill:#1f77b4;"/>
   </g>
   <g id="patch_106">
    <path clip-path="url(#pb3d43bf911)" d="M 203.589771 288.430125 
L 204.659794 288.430125 
L 204.659794 286.492693 
L 203.589771 286.492693 
z
" style="fill:#1f77b4;"/>
   </g>
   <g id="patch_107">
    <path clip-path="url(#pb3d43bf911)" d="M 204.927299 288.430125 
L 205.997322 288.430125 
L 205.997322 286.447106 
L 204.927299 286.447106 
z
" style="fill:#1f77b4;"/>
   </g>
   <g id="patch_108">
    <path clip-path="url(#pb3d43bf911)" d="M 206.264827 288.430125 
L 207.33485 288.430125 
L 207.33485 286.492693 
L 206.264827 286.492693 
z
" style="fill:#1f77b4;"/>
   </g>
   <g id="patch_109">
    <path clip-path="url(#pb3d43bf911)" d="M 207.602355 288.430125 
L 208.672378 288.430125 
L 208.672378 286.492693 
L 207.602355 286.492693 
z
" style="fill:#1f77b4;"/>
   </g>
   <g id="patch_110">
    <path clip-path="url(#pb3d43bf911)" d="M 208.939883 288.430125 
L 210.009906 288.430125 
L 210.009906 286.515486 
L 208.939883 286.515486 
z
" style="fill:#1f77b4;"/>
   </g>
   <g id="patch_111">
    <path clip-path="url(#pb3d43bf911)" d="M 210.277412 288.430125 
L 211.347434 288.430125 
L 211.347434 286.53828 
L 210.277412 286.53828 
z
" style="fill:#1f77b4;"/>
   </g>
   <g id="patch_112">
    <path clip-path="url(#pb3d43bf911)" d="M 211.61494 288.430125 
L 212.684962 288.430125 
L 212.684962 286.515486 
L 211.61494 286.515486 
z
" style="fill:#1f77b4;"/>
   </g>
   <g id="patch_113">
    <path clip-path="url(#pb3d43bf911)" d="M 212.952468 288.430125 
L 214.02249 288.430125 
L 214.02249 286.53828 
L 212.952468 286.53828 
z
" style="fill:#1f77b4;"/>
   </g>
   <g id="patch_114">
    <path clip-path="url(#pb3d43bf911)" d="M 214.289996 288.430125 
L 215.360018 288.430125 
L 215.360018 286.4699 
L 214.289996 286.4699 
z
" style="fill:#1f77b4;"/>
   </g>
   <g id="patch_115">
    <path clip-path="url(#pb3d43bf911)" d="M 215.627524 288.430125 
L 216.697546 288.430125 
L 216.697546 286.492693 
L 215.627524 286.492693 
z
" style="fill:#1f77b4;"/>
   </g>
   <g id="patch_116">
    <path clip-path="url(#pb3d43bf911)" d="M 216.965052 288.430125 
L 218.035074 288.430125 
L 218.035074 286.53828 
L 216.965052 286.53828 
z
" style="fill:#1f77b4;"/>
   </g>
   <g id="patch_117">
    <path clip-path="url(#pb3d43bf911)" d="M 218.30258 288.430125 
L 219.372603 288.430125 
L 219.372603 286.53828 
L 218.30258 286.53828 
z
" style="fill:#1f77b4;"/>
   </g>
   <g id="patch_118">
    <path clip-path="url(#pb3d43bf911)" d="M 219.640108 288.430125 
L 220.710131 288.430125 
L 220.710131 286.53828 
L 219.640108 286.53828 
z
" style="fill:#1f77b4;"/>
   </g>
   <g id="patch_119">
    <path clip-path="url(#pb3d43bf911)" d="M 220.977636 288.430125 
L 222.047659 288.430125 
L 222.047659 286.515486 
L 220.977636 286.515486 
z
" style="fill:#1f77b4;"/>
   </g>
   <g id="patch_120">
    <path clip-path="url(#pb3d43bf911)" d="M 222.315164 288.430125 
L 223.385187 288.430125 
L 223.385187 286.4699 
L 222.315164 286.4699 
z
" style="fill:#1f77b4;"/>
   </g>
   <g id="patch_121">
    <path clip-path="url(#pb3d43bf911)" d="M 223.652692 288.430125 
L 224.722715 288.430125 
L 224.722715 286.561073 
L 223.652692 286.561073 
z
" style="fill:#1f77b4;"/>
   </g>
   <g id="patch_122">
    <path clip-path="url(#pb3d43bf911)" d="M 224.990221 288.430125 
L 226.060243 288.430125 
L 226.060243 286.424313 
L 224.990221 286.424313 
z
" style="fill:#1f77b4;"/>
   </g>
   <g id="patch_123">
    <path clip-path="url(#pb3d43bf911)" d="M 226.327749 288.430125 
L 227.397771 288.430125 
L 227.397771 286.26476 
L 226.327749 286.26476 
z
" style="fill:#1f77b4;"/>
   </g>
   <g id="patch_124">
    <path clip-path="url(#pb3d43bf911)" d="M 227.665277 288.430125 
L 228.735299 288.430125 
L 228.735299 286.26476 
L 227.665277 286.26476 
z
" style="fill:#1f77b4;"/>
   </g>
   <g id="patch_125">
    <path clip-path="url(#pb3d43bf911)" d="M 229.002805 288.430125 
L 230.072827 288.430125 
L 230.072827 286.219173 
L 229.002805 286.219173 
z
" style="fill:#1f77b4;"/>
   </g>
   <g id="patch_126">
    <path clip-path="url(#pb3d43bf911)" d="M 230.340333 288.430125 
L 231.410355 288.430125 
L 231.410355 286.150793 
L 230.340333 286.150793 
z
" style="fill:#1f77b4;"/>
   </g>
   <g id="patch_127">
    <path clip-path="url(#pb3d43bf911)" d="M 231.677861 288.430125 
L 232.747883 288.430125 
L 232.747883 286.128 
L 231.677861 286.128 
z
" style="fill:#1f77b4;"/>
   </g>
   <g id="patch_128">
    <path clip-path="url(#pb3d43bf911)" d="M 233.015389 288.430125 
L 234.085412 288.430125 
L 234.085412 286.128 
L 233.015389 286.128 
z
" style="fill:#1f77b4;"/>
   </g>
   <g id="patch_129">
    <path clip-path="url(#pb3d43bf911)" d="M 234.352917 288.430125 
L 235.42294 288.430125 
L 235.42294 286.128 
L 234.352917 286.128 
z
" style="fill:#1f77b4;"/>
   </g>
   <g id="patch_130">
    <path clip-path="url(#pb3d43bf911)" d="M 235.690445 288.430125 
L 236.760468 288.430125 
L 236.760468 286.150793 
L 235.690445 286.150793 
z
" style="fill:#1f77b4;"/>
   </g>
   <g id="patch_131">
    <path clip-path="url(#pb3d43bf911)" d="M 237.027973 288.430125 
L 238.097996 288.430125 
L 238.097996 286.173586 
L 237.027973 286.173586 
z
" style="fill:#1f77b4;"/>
   </g>
   <g id="patch_132">
    <path clip-path="url(#pb3d43bf911)" d="M 238.365501 288.430125 
L 239.435524 288.430125 
L 239.435524 286.241966 
L 238.365501 286.241966 
z
" style="fill:#1f77b4;"/>
   </g>
   <g id="patch_133">
    <path clip-path="url(#pb3d43bf911)" d="M 239.703029 288.430125 
L 240.773052 288.430125 
L 240.773052 286.40152 
L 239.703029 286.40152 
z
" style="fill:#1f77b4;"/>
   </g>
   <g id="patch_134">
    <path clip-path="url(#pb3d43bf911)" d="M 241.040558 288.430125 
L 242.11058 288.430125 
L 242.11058 286.53828 
L 241.040558 286.53828 
z
" style="fill:#1f77b4;"/>
   </g>
   <g id="patch_135">
    <path clip-path="url(#pb3d43bf911)" d="M 242.378086 288.430125 
L 243.448108 288.430125 
L 243.448108 286.447106 
L 242.378086 286.447106 
z
" style="fill:#1f77b4;"/>
   </g>
   <g id="patch_136">
    <path clip-path="url(#pb3d43bf911)" d="M 243.715614 288.430125 
L 244.785636 288.430125 
L 244.785636 286.33314 
L 243.715614 286.33314 
z
" style="fill:#1f77b4;"/>
   </g>
   <g id="patch_137">
    <path clip-path="url(#pb3d43bf911)" d="M 245.053142 288.430125 
L 246.123164 288.430125 
L 246.123164 286.287553 
L 245.053142 286.287553 
z
" style="fill:#1f77b4;"/>
   </g>
   <g id="patch_138">
    <path clip-path="url(#pb3d43bf911)" d="M 246.39067 288.430125 
L 247.460692 288.430125 
L 247.460692 286.492693 
L 246.39067 286.492693 
z
" style="fill:#1f77b4;"/>
   </g>
   <g id="patch_139">
    <path clip-path="url(#pb3d43bf911)" d="M 247.728198 288.430125 
L 248.798221 288.430125 
L 248.798221 286.4699 
L 247.728198 286.4699 
z
" style="fill:#1f77b4;"/>
   </g>
   <g id="patch_140">
    <path clip-path="url(#pb3d43bf911)" d="M 249.065726 288.430125 
L 250.135749 288.430125 
L 250.135749 286.33314 
L 249.065726 286.33314 
z
" style="fill:#1f77b4;"/>
   </g>
   <g id="patch_141">
    <path clip-path="url(#pb3d43bf911)" d="M 250.403254 288.430125 
L 251.473277 288.430125 
L 251.473277 286.105206 
L 250.403254 286.105206 
z
" style="fill:#1f77b4;"/>
   </g>
   <g id="patch_142">
    <path clip-path="url(#pb3d43bf911)" d="M 251.740782 288.430125 
L 252.810805 288.430125 
L 252.810805 285.99124 
L 251.740782 285.99124 
z
" style="fill:#1f77b4;"/>
   </g>
   <g id="patch_143">
    <path clip-path="url(#pb3d43bf911)" d="M 253.07831 288.430125 
L 254.148333 288.430125 
L 254.148333 285.99124 
L 253.07831 285.99124 
z
" style="fill:#1f77b4;"/>
   </g>
   <g id="patch_144">
    <path clip-path="url(#pb3d43bf911)" d="M 254.415838 288.430125 
L 255.485861 288.430125 
L 255.485861 285.877273 
L 254.415838 285.877273 
z
" style="fill:#1f77b4;"/>
   </g>
   <g id="patch_145">
    <path clip-path="url(#pb3d43bf911)" d="M 255.753367 288.430125 
L 256.823389 288.430125 
L 256.823389 285.71772 
L 255.753367 285.71772 
z
" style="fill:#1f77b4;"/>
   </g>
   <g id="patch_146">
    <path clip-path="url(#pb3d43bf911)" d="M 257.090895 288.430125 
L 258.160917 288.430125 
L 258.160917 285.7861 
L 257.090895 285.7861 
z
" style="fill:#1f77b4;"/>
   </g>
   <g id="patch_147">
    <path clip-path="url(#pb3d43bf911)" d="M 258.428423 288.430125 
L 259.498445 288.430125 
L 259.498445 285.603753 
L 258.428423 285.603753 
z
" style="fill:#1f77b4;"/>
   </g>
   <g id="patch_148">
    <path clip-path="url(#pb3d43bf911)" d="M 259.765951 288.430125 
L 260.835973 288.430125 
L 260.835973 285.51258 
L 259.765951 285.51258 
z
" style="fill:#1f77b4;"/>
   </g>
   <g id="patch_149">
    <path clip-path="url(#pb3d43bf911)" d="M 261.103479 288.430125 
L 262.173501 288.430125 
L 262.173501 285.626547 
L 261.103479 285.626547 
z
" style="fill:#1f77b4;"/>
   </g>
   <g id="patch_150">
    <path clip-path="url(#pb3d43bf911)" d="M 262.441007 288.430125 
L 263.511029 288.430125 
L 263.511029 285.51258 
L 262.441007 285.51258 
z
" style="fill:#1f77b4;"/>
   </g>
   <g id="patch_151">
    <path clip-path="url(#pb3d43bf911)" d="M 263.778535 288.430125 
L 264.848558 288.430125 
L 264.848558 285.51258 
L 263.778535 285.51258 
z
" style="fill:#1f77b4;"/>
   </g>
   <g id="patch_152">
    <path clip-path="url(#pb3d43bf911)" d="M 265.116063 288.430125 
L 266.186086 288.430125 
L 266.186086 285.51258 
L 265.116063 285.51258 
z
" style="fill:#1f77b4;"/>
   </g>
   <g id="patch_153">
    <path clip-path="url(#pb3d43bf911)" d="M 266.453591 288.430125 
L 267.523614 288.430125 
L 267.523614 285.466994 
L 266.453591 285.466994 
z
" style="fill:#1f77b4;"/>
   </g>
   <g id="patch_154">
    <path clip-path="url(#pb3d43bf911)" d="M 267.791119 288.430125 
L 268.861142 288.430125 
L 268.861142 285.64934 
L 267.791119 285.64934 
z
" style="fill:#1f77b4;"/>
   </g>
   <g id="patch_155">
    <path clip-path="url(#pb3d43bf911)" d="M 269.128647 288.430125 
L 270.19867 288.430125 
L 270.19867 285.626547 
L 269.128647 285.626547 
z
" style="fill:#1f77b4;"/>
   </g>
   <g id="patch_156">
    <path clip-path="url(#pb3d43bf911)" d="M 270.466176 288.430125 
L 271.536198 288.430125 
L 271.536198 285.558167 
L 270.466176 285.558167 
z
" style="fill:#1f77b4;"/>
   </g>
   <g id="patch_157">
    <path clip-path="url(#pb3d43bf911)" d="M 271.803704 288.430125 
L 272.873726 288.430125 
L 272.873726 285.489787 
L 271.803704 285.489787 
z
" style="fill:#1f77b4;"/>
   </g>
   <g id="patch_158">
    <path clip-path="url(#pb3d43bf911)" d="M 273.141232 288.430125 
L 274.211254 288.430125 
L 274.211254 285.535373 
L 273.141232 285.535373 
z
" style="fill:#1f77b4;"/>
   </g>
   <g id="patch_159">
    <path clip-path="url(#pb3d43bf911)" d="M 274.47876 288.430125 
L 275.548782 288.430125 
L 275.548782 285.535373 
L 274.47876 285.535373 
z
" style="fill:#1f77b4;"/>
   </g>
   <g id="patch_160">
    <path clip-path="url(#pb3d43bf911)" d="M 275.816288 288.430125 
L 276.88631 288.430125 
L 276.88631 285.64934 
L 275.816288 285.64934 
z
" style="fill:#1f77b4;"/>
   </g>
   <g id="patch_161">
    <path clip-path="url(#pb3d43bf911)" d="M 277.153816 288.430125 
L 278.223838 288.430125 
L 278.223838 285.261854 
L 277.153816 285.261854 
z
" style="fill:#1f77b4;"/>
   </g>
   <g id="patch_162">
    <path clip-path="url(#pb3d43bf911)" d="M 278.491344 288.430125 
L 279.561367 288.430125 
L 279.561367 285.216267 
L 278.491344 285.216267 
z
" style="fill:#1f77b4;"/>
   </g>
   <g id="patch_163">
    <path clip-path="url(#pb3d43bf911)" d="M 279.828872 288.430125 
L 280.898895 288.430125 
L 280.898895 285.193474 
L 279.828872 285.193474 
z
" style="fill:#1f77b4;"/>
   </g>
   <g id="patch_164">
    <path clip-path="url(#pb3d43bf911)" d="M 281.1664 288.430125 
L 282.236423 288.430125 
L 282.236423 284.851574 
L 281.1664 284.851574 
z
" style="fill:#1f77b4;"/>
   </g>
   <g id="patch_165">
    <path clip-path="url(#pb3d43bf911)" d="M 282.503928 288.430125 
L 283.573951 288.430125 
L 283.573951 284.509674 
L 282.503928 284.509674 
z
" style="fill:#1f77b4;"/>
   </g>
   <g id="patch_166">
    <path clip-path="url(#pb3d43bf911)" d="M 283.841456 288.430125 
L 284.911479 288.430125 
L 284.911479 284.350121 
L 283.841456 284.350121 
z
" style="fill:#1f77b4;"/>
   </g>
   <g id="patch_167">
    <path clip-path="url(#pb3d43bf911)" d="M 285.178985 288.430125 
L 286.249007 288.430125 
L 286.249007 284.372914 
L 285.178985 284.372914 
z
" style="fill:#1f77b4;"/>
   </g>
   <g id="patch_168">
    <path clip-path="url(#pb3d43bf911)" d="M 286.516513 288.430125 
L 287.586535 288.430125 
L 287.586535 284.213361 
L 286.516513 284.213361 
z
" style="fill:#1f77b4;"/>
   </g>
   <g id="patch_169">
    <path clip-path="url(#pb3d43bf911)" d="M 287.854041 288.430125 
L 288.924063 288.430125 
L 288.924063 284.122188 
L 287.854041 284.122188 
z
" style="fill:#1f77b4;"/>
   </g>
   <g id="patch_170">
    <path clip-path="url(#pb3d43bf911)" d="M 289.191569 288.430125 
L 290.261591 288.430125 
L 290.261591 284.099394 
L 289.191569 284.099394 
z
" style="fill:#1f77b4;"/>
   </g>
   <g id="patch_171">
    <path clip-path="url(#pb3d43bf911)" d="M 290.529097 288.430125 
L 291.599119 288.430125 
L 291.599119 284.099394 
L 290.529097 284.099394 
z
" style="fill:#1f77b4;"/>
   </g>
   <g id="patch_172">
    <path clip-path="url(#pb3d43bf911)" d="M 291.866625 288.430125 
L 292.936647 288.430125 
L 292.936647 284.099394 
L 291.866625 284.099394 
z
" style="fill:#1f77b4;"/>
   </g>
   <g id="patch_173">
    <path clip-path="url(#pb3d43bf911)" d="M 293.204153 288.430125 
L 294.274176 288.430125 
L 294.274176 283.848668 
L 293.204153 283.848668 
z
" style="fill:#1f77b4;"/>
   </g>
   <g id="patch_174">
    <path clip-path="url(#pb3d43bf911)" d="M 294.541681 288.430125 
L 295.611704 288.430125 
L 295.611704 283.734701 
L 294.541681 283.734701 
z
" style="fill:#1f77b4;"/>
   </g>
   <g id="patch_175">
    <path clip-path="url(#pb3d43bf911)" d="M 295.879209 288.430125 
L 296.949232 288.430125 
L 296.949232 283.734701 
L 295.879209 283.734701 
z
" style="fill:#1f77b4;"/>
   </g>
   <g id="patch_176">
    <path clip-path="url(#pb3d43bf911)" d="M 297.216737 288.430125 
L 298.28676 288.430125 
L 298.28676 283.666321 
L 297.216737 283.666321 
z
" style="fill:#1f77b4;"/>
   </g>
   <g id="patch_177">
    <path clip-path="url(#pb3d43bf911)" d="M 298.554265 288.430125 
L 299.624288 288.430125 
L 299.624288 283.461181 
L 298.554265 283.461181 
z
" style="fill:#1f77b4;"/>
   </g>
   <g id="patch_178">
    <path clip-path="url(#pb3d43bf911)" d="M 299.891794 288.430125 
L 300.961816 288.430125 
L 300.961816 283.461181 
L 299.891794 283.461181 
z
" style="fill:#1f77b4;"/>
   </g>
   <g id="patch_179">
    <path clip-path="url(#pb3d43bf911)" d="M 301.229322 288.430125 
L 302.299344 288.430125 
L 302.299344 283.529561 
L 301.229322 283.529561 
z
" style="fill:#1f77b4;"/>
   </g>
   <g id="patch_180">
    <path clip-path="url(#pb3d43bf911)" d="M 302.56685 288.430125 
L 303.636872 288.430125 
L 303.636872 283.461181 
L 302.56685 283.461181 
z
" style="fill:#1f77b4;"/>
   </g>
   <g id="patch_181">
    <path clip-path="url(#pb3d43bf911)" d="M 303.904378 288.430125 
L 304.9744 288.430125 
L 304.9744 283.347215 
L 303.904378 283.347215 
z
" style="fill:#1f77b4;"/>
   </g>
   <g id="patch_182">
    <path clip-path="url(#pb3d43bf911)" d="M 305.241906 288.430125 
L 306.311928 288.430125 
L 306.311928 282.982522 
L 305.241906 282.982522 
z
" style="fill:#1f77b4;"/>
   </g>
   <g id="patch_183">
    <path clip-path="url(#pb3d43bf911)" d="M 306.579434 288.430125 
L 307.649456 288.430125 
L 307.649456 282.617829 
L 306.579434 282.617829 
z
" style="fill:#1f77b4;"/>
   </g>
   <g id="patch_184">
    <path clip-path="url(#pb3d43bf911)" d="M 307.916962 288.430125 
L 308.986985 288.430125 
L 308.986985 282.367102 
L 307.916962 282.367102 
z
" style="fill:#1f77b4;"/>
   </g>
   <g id="patch_185">
    <path clip-path="url(#pb3d43bf911)" d="M 309.25449 288.430125 
L 310.324513 288.430125 
L 310.324513 281.683303 
L 309.25449 281.683303 
z
" style="fill:#1f77b4;"/>
   </g>
   <g id="patch_186">
    <path clip-path="url(#pb3d43bf911)" d="M 310.592018 288.430125 
L 311.662041 288.430125 
L 311.662041 281.523749 
L 310.592018 281.523749 
z
" style="fill:#1f77b4;"/>
   </g>
   <g id="patch_187">
    <path clip-path="url(#pb3d43bf911)" d="M 311.929546 288.430125 
L 312.999569 288.430125 
L 312.999569 281.136263 
L 311.929546 281.136263 
z
" style="fill:#1f77b4;"/>
   </g>
   <g id="patch_188">
    <path clip-path="url(#pb3d43bf911)" d="M 313.267074 288.430125 
L 314.337097 288.430125 
L 314.337097 281.067883 
L 313.267074 281.067883 
z
" style="fill:#1f77b4;"/>
   </g>
   <g id="patch_189">
    <path clip-path="url(#pb3d43bf911)" d="M 314.604603 288.430125 
L 315.674625 288.430125 
L 315.674625 280.999503 
L 314.604603 280.999503 
z
" style="fill:#1f77b4;"/>
   </g>
   <g id="patch_190">
    <path clip-path="url(#pb3d43bf911)" d="M 315.942131 288.430125 
L 317.012153 288.430125 
L 317.012153 279.654697 
L 315.942131 279.654697 
z
" style="fill:#1f77b4;"/>
   </g>
   <g id="patch_191">
    <path clip-path="url(#pb3d43bf911)" d="M 317.279659 288.430125 
L 318.349681 288.430125 
L 318.349681 279.198831 
L 317.279659 279.198831 
z
" style="fill:#1f77b4;"/>
   </g>
   <g id="patch_192">
    <path clip-path="url(#pb3d43bf911)" d="M 318.617187 288.430125 
L 319.687209 288.430125 
L 319.687209 278.811344 
L 318.617187 278.811344 
z
" style="fill:#1f77b4;"/>
   </g>
   <g id="patch_193">
    <path clip-path="url(#pb3d43bf911)" d="M 319.954715 288.430125 
L 321.024737 288.430125 
L 321.024737 278.401065 
L 319.954715 278.401065 
z
" style="fill:#1f77b4;"/>
   </g>
   <g id="patch_194">
    <path clip-path="url(#pb3d43bf911)" d="M 321.292243 288.430125 
L 322.362265 288.430125 
L 322.362265 278.218718 
L 321.292243 278.218718 
z
" style="fill:#1f77b4;"/>
   </g>
   <g id="patch_195">
    <path clip-path="url(#pb3d43bf911)" d="M 322.629771 288.430125 
L 323.699794 288.430125 
L 323.699794 277.740058 
L 322.629771 277.740058 
z
" style="fill:#1f77b4;"/>
   </g>
   <g id="patch_196">
    <path clip-path="url(#pb3d43bf911)" d="M 323.967299 288.430125 
L 325.037322 288.430125 
L 325.037322 277.375365 
L 323.967299 277.375365 
z
" style="fill:#1f77b4;"/>
   </g>
   <g id="patch_197">
    <path clip-path="url(#pb3d43bf911)" d="M 325.304827 288.430125 
L 326.37485 288.430125 
L 326.37485 276.714359 
L 325.304827 276.714359 
z
" style="fill:#1f77b4;"/>
   </g>
   <g id="patch_198">
    <path clip-path="url(#pb3d43bf911)" d="M 326.642355 288.430125 
L 327.712378 288.430125 
L 327.712378 276.121733 
L 326.642355 276.121733 
z
" style="fill:#1f77b4;"/>
   </g>
   <g id="patch_199">
    <path clip-path="url(#pb3d43bf911)" d="M 327.979883 288.430125 
L 329.049906 288.430125 
L 329.049906 275.962179 
L 327.979883 275.962179 
z
" style="fill:#1f77b4;"/>
   </g>
   <g id="patch_200">
    <path clip-path="url(#pb3d43bf911)" d="M 329.317412 288.430125 
L 330.387434 288.430125 
L 330.387434 275.665866 
L 329.317412 275.665866 
z
" style="fill:#1f77b4;"/>
   </g>
   <g id="patch_201">
    <path clip-path="url(#pb3d43bf911)" d="M 330.65494 288.430125 
L 331.724962 288.430125 
L 331.724962 275.529106 
L 330.65494 275.529106 
z
" style="fill:#1f77b4;"/>
   </g>
   <g id="patch_202">
    <path clip-path="url(#pb3d43bf911)" d="M 331.992468 288.430125 
L 333.06249 288.430125 
L 333.06249 275.643073 
L 331.992468 275.643073 
z
" style="fill:#1f77b4;"/>
   </g>
   <g id="patch_203">
    <path clip-path="url(#pb3d43bf911)" d="M 333.329996 288.430125 
L 334.400018 288.430125 
L 334.400018 275.164413 
L 333.329996 275.164413 
z
" style="fill:#1f77b4;"/>
   </g>
   <g id="patch_204">
    <path clip-path="url(#pb3d43bf911)" d="M 334.667524 288.430125 
L 335.737546 288.430125 
L 335.737546 275.096033 
L 334.667524 275.096033 
z
" style="fill:#1f77b4;"/>
   </g>
   <g id="patch_205">
    <path clip-path="url(#pb3d43bf911)" d="M 336.005052 288.430125 
L 337.075074 288.430125 
L 337.075074 274.66296 
L 336.005052 274.66296 
z
" style="fill:#1f77b4;"/>
   </g>
   <g id="patch_206">
    <path clip-path="url(#pb3d43bf911)" d="M 337.34258 288.430125 
L 338.412603 288.430125 
L 338.412603 274.38944 
L 337.34258 274.38944 
z
" style="fill:#1f77b4;"/>
   </g>
   <g id="patch_207">
    <path clip-path="url(#pb3d43bf911)" d="M 338.680108 288.430125 
L 339.750131 288.430125 
L 339.750131 274.138714 
L 338.680108 274.138714 
z
" style="fill:#1f77b4;"/>
   </g>
   <g id="patch_208">
    <path clip-path="url(#pb3d43bf911)" d="M 340.017636 288.430125 
L 341.087659 288.430125 
L 341.087659 274.070334 
L 340.017636 274.070334 
z
" style="fill:#1f77b4;"/>
   </g>
   <g id="patch_209">
    <path clip-path="url(#pb3d43bf911)" d="M 341.355164 288.430125 
L 342.425187 288.430125 
L 342.425187 273.226981 
L 341.355164 273.226981 
z
" style="fill:#1f77b4;"/>
   </g>
   <g id="patch_210">
    <path clip-path="url(#pb3d43bf911)" d="M 342.692692 288.430125 
L 343.762715 288.430125 
L 343.762715 271.882175 
L 342.692692 271.882175 
z
" style="fill:#1f77b4;"/>
   </g>
   <g id="patch_211">
    <path clip-path="url(#pb3d43bf911)" d="M 344.030221 288.430125 
L 345.100243 288.430125 
L 345.100243 270.26385 
L 344.030221 270.26385 
z
" style="fill:#1f77b4;"/>
   </g>
   <g id="patch_212">
    <path clip-path="url(#pb3d43bf911)" d="M 345.367749 288.430125 
L 346.437771 288.430125 
L 346.437771 268.531557 
L 345.367749 268.531557 
z
" style="fill:#1f77b4;"/>
   </g>
   <g id="patch_213">
    <path clip-path="url(#pb3d43bf911)" d="M 346.705277 288.430125 
L 347.775299 288.430125 
L 347.775299 267.004405 
L 346.705277 267.004405 
z
" style="fill:#1f77b4;"/>
   </g>
   <g id="patch_214">
    <path clip-path="url(#pb3d43bf911)" d="M 348.042805 288.430125 
L 349.112827 288.430125 
L 349.112827 266.252226 
L 348.042805 266.252226 
z
" style="fill:#1f77b4;"/>
   </g>
   <g id="patch_215">
    <path clip-path="url(#pb3d43bf911)" d="M 349.380333 288.430125 
L 350.450355 288.430125 
L 350.450355 265.773566 
L 349.380333 265.773566 
z
" style="fill:#1f77b4;"/>
   </g>
   <g id="patch_216">
    <path clip-path="url(#pb3d43bf911)" d="M 350.717861 288.430125 
L 351.787883 288.430125 
L 351.787883 262.947194 
L 350.717861 262.947194 
z
" style="fill:#1f77b4;"/>
   </g>
   <g id="patch_217">
    <path clip-path="url(#pb3d43bf911)" d="M 352.055389 288.430125 
L 353.125412 288.430125 
L 353.125412 261.237695 
L 352.055389 261.237695 
z
" style="fill:#1f77b4;"/>
   </g>
   <g id="patch_218">
    <path clip-path="url(#pb3d43bf911)" d="M 353.392917 288.430125 
L 354.46294 288.430125 
L 354.46294 258.73043 
L 353.392917 258.73043 
z
" style="fill:#1f77b4;"/>
   </g>
   <g id="patch_219">
    <path clip-path="url(#pb3d43bf911)" d="M 354.730445 288.430125 
L 355.800468 288.430125 
L 355.800468 255.516572 
L 354.730445 255.516572 
z
" style="fill:#1f77b4;"/>
   </g>
   <g id="patch_220">
    <path clip-path="url(#pb3d43bf911)" d="M 356.067973 288.430125 
L 357.137996 288.430125 
L 357.137996 251.801261 
L 356.067973 251.801261 
z
" style="fill:#1f77b4;"/>
   </g>
   <g id="patch_221">
    <path clip-path="url(#pb3d43bf911)" d="M 357.405501 288.430125 
L 358.475524 288.430125 
L 358.475524 249.909416 
L 357.405501 249.909416 
z
" style="fill:#1f77b4;"/>
   </g>
   <g id="patch_222">
    <path clip-path="url(#pb3d43bf911)" d="M 358.743029 288.430125 
L 359.813052 288.430125 
L 359.813052 245.236785 
L 358.743029 245.236785 
z
" style="fill:#1f77b4;"/>
   </g>
   <g id="patch_223">
    <path clip-path="url(#pb3d43bf911)" d="M 360.080558 288.430125 
L 361.15058 288.430125 
L 361.15058 241.020021 
L 360.080558 241.020021 
z
" style="fill:#1f77b4;"/>
   </g>
   <g id="patch_224">
    <path clip-path="url(#pb3d43bf911)" d="M 361.418086 288.430125 
L 362.488108 288.430125 
L 362.488108 235.595211 
L 361.418086 235.595211 
z
" style="fill:#1f77b4;"/>
   </g>
   <g id="patch_225">
    <path clip-path="url(#pb3d43bf911)" d="M 362.755614 288.430125 
L 363.825636 288.430125 
L 363.825636 229.577775 
L 362.755614 229.577775 
z
" style="fill:#1f77b4;"/>
   </g>
   <g id="patch_226">
    <path clip-path="url(#pb3d43bf911)" d="M 364.093142 288.430125 
L 365.163164 288.430125 
L 365.163164 223.332406 
L 364.093142 223.332406 
z
" style="fill:#1f77b4;"/>
   </g>
   <g id="patch_227">
    <path clip-path="url(#pb3d43bf911)" d="M 365.43067 288.430125 
L 366.500692 288.430125 
L 366.500692 215.787817 
L 365.43067 215.787817 
z
" style="fill:#1f77b4;"/>
   </g>
   <g id="patch_228">
    <path clip-path="url(#pb3d43bf911)" d="M 366.768198 288.430125 
L 367.838221 288.430125 
L 367.838221 208.630715 
L 366.768198 208.630715 
z
" style="fill:#1f77b4;"/>
   </g>
   <g id="patch_229">
    <path clip-path="url(#pb3d43bf911)" d="M 368.105726 288.430125 
L 369.175749 288.430125 
L 369.175749 203.228698 
L 368.105726 203.228698 
z
" style="fill:#1f77b4;"/>
   </g>
   <g id="patch_230">
    <path clip-path="url(#pb3d43bf911)" d="M 369.443254 288.430125 
L 370.513277 288.430125 
L 370.513277 199.057521 
L 369.443254 199.057521 
z
" style="fill:#1f77b4;"/>
   </g>
   <g id="patch_231">
    <path clip-path="url(#pb3d43bf911)" d="M 370.780782 288.430125 
L 371.850805 288.430125 
L 371.850805 192.310699 
L 370.780782 192.310699 
z
" style="fill:#1f77b4;"/>
   </g>
   <g id="patch_232">
    <path clip-path="url(#pb3d43bf911)" d="M 372.11831 288.430125 
L 373.188333 288.430125 
L 373.188333 184.469797 
L 372.11831 184.469797 
z
" style="fill:#1f77b4;"/>
   </g>
   <g id="patch_233">
    <path clip-path="url(#pb3d43bf911)" d="M 373.455838 288.430125 
L 374.525861 288.430125 
L 374.525861 172.184198 
L 373.455838 172.184198 
z
" style="fill:#1f77b4;"/>
   </g>
   <g id="patch_234">
    <path clip-path="url(#pb3d43bf911)" d="M 374.793367 288.430125 
L 375.863389 288.430125 
L 375.863389 160.080945 
L 374.793367 160.080945 
z
" style="fill:#1f77b4;"/>
   </g>
   <g id="patch_235">
    <path clip-path="url(#pb3d43bf911)" d="M 376.130895 288.430125 
L 377.200917 288.430125 
L 377.200917 150.302612 
L 376.130895 150.302612 
z
" style="fill:#1f77b4;"/>
   </g>
   <g id="patch_236">
    <path clip-path="url(#pb3d43bf911)" d="M 377.468423 288.430125 
L 378.538445 288.430125 
L 378.538445 139.088299 
L 377.468423 139.088299 
z
" style="fill:#1f77b4;"/>
   </g>
   <g id="patch_237">
    <path clip-path="url(#pb3d43bf911)" d="M 378.805951 288.430125 
L 379.875973 288.430125 
L 379.875973 133.526729 
L 378.805951 133.526729 
z
" style="fill:#1f77b4;"/>
   </g>
   <g id="patch_238">
    <path clip-path="url(#pb3d43bf911)" d="M 380.143479 288.430125 
L 381.213501 288.430125 
L 381.213501 116.386153 
L 380.143479 116.386153 
z
" style="fill:#1f77b4;"/>
   </g>
   <g id="patch_239">
    <path clip-path="url(#pb3d43bf911)" d="M 381.481007 288.430125 
L 382.551029 288.430125 
L 382.551029 127.851192 
L 381.481007 127.851192 
z
" style="fill:#1f77b4;"/>
   </g>
   <g id="patch_240">
    <path clip-path="url(#pb3d43bf911)" d="M 382.818535 288.430125 
L 383.888558 288.430125 
L 383.888558 117.936098 
L 382.818535 117.936098 
z
" style="fill:#1f77b4;"/>
   </g>
   <g id="patch_241">
    <path clip-path="url(#pb3d43bf911)" d="M 384.156063 288.430125 
L 385.226086 288.430125 
L 385.226086 106.379886 
L 384.156063 106.379886 
z
" style="fill:#1f77b4;"/>
   </g>
   <g id="patch_242">
    <path clip-path="url(#pb3d43bf911)" d="M 385.493591 288.430125 
L 386.563614 288.430125 
L 386.563614 96.647138 
L 385.493591 96.647138 
z
" style="fill:#1f77b4;"/>
   </g>
   <g id="patch_243">
    <path clip-path="url(#pb3d43bf911)" d="M 386.831119 288.430125 
L 387.901142 288.430125 
L 387.901142 90.971602 
L 386.831119 90.971602 
z
" style="fill:#1f77b4;"/>
   </g>
   <g id="patch_244">
    <path clip-path="url(#pb3d43bf911)" d="M 388.168647 288.430125 
L 389.23867 288.430125 
L 389.23867 85.911485 
L 388.168647 85.911485 
z
" style="fill:#1f77b4;"/>
   </g>
   <g id="patch_245">
    <path clip-path="url(#pb3d43bf911)" d="M 389.506176 288.430125 
L 390.576198 288.430125 
L 390.576198 77.933824 
L 389.506176 77.933824 
z
" style="fill:#1f77b4;"/>
   </g>
   <g id="patch_246">
    <path clip-path="url(#pb3d43bf911)" d="M 390.843704 288.430125 
L 391.913726 288.430125 
L 391.913726 67.015824 
L 390.843704 67.015824 
z
" style="fill:#1f77b4;"/>
   </g>
   <g id="patch_247">
    <path clip-path="url(#pb3d43bf911)" d="M 392.181232 288.430125 
L 393.251254 288.430125 
L 393.251254 59.152129 
L 392.181232 59.152129 
z
" style="fill:#1f77b4;"/>
   </g>
   <g id="patch_248">
    <path clip-path="url(#pb3d43bf911)" d="M 393.51876 288.430125 
L 394.588782 288.430125 
L 394.588782 53.886872 
L 393.51876 53.886872 
z
" style="fill:#1f77b4;"/>
   </g>
   <g id="patch_249">
    <path clip-path="url(#pb3d43bf911)" d="M 394.856288 288.430125 
L 395.92631 288.430125 
L 395.92631 47.550329 
L 394.856288 47.550329 
z
" style="fill:#1f77b4;"/>
   </g>
   <g id="patch_250">
    <path clip-path="url(#pb3d43bf911)" d="M 396.193816 288.430125 
L 397.263838 288.430125 
L 397.263838 44.518818 
L 396.193816 44.518818 
z
" style="fill:#1f77b4;"/>
   </g>
   <g id="patch_251">
    <path clip-path="url(#pb3d43bf911)" d="M 397.531344 288.430125 
L 398.601367 288.430125 
L 398.601367 39.960154 
L 397.531344 39.960154 
z
" style="fill:#1f77b4;"/>
   </g>
   <g id="patch_252">
    <path clip-path="url(#pb3d43bf911)" d="M 398.868872 288.430125 
L 399.938895 288.430125 
L 399.938895 33.053778 
L 398.868872 33.053778 
z
" style="fill:#1f77b4;"/>
   </g>
   <g id="patch_253">
    <path clip-path="url(#pb3d43bf911)" d="M 400.2064 288.430125 
L 401.276423 288.430125 
L 401.276423 26.056229 
L 400.2064 26.056229 
z
" style="fill:#1f77b4;"/>
   </g>
   <g id="patch_254">
    <path clip-path="url(#pb3d43bf911)" d="M 401.543928 288.430125 
L 402.613951 288.430125 
L 402.613951 22.318125 
L 401.543928 22.318125 
z
" style="fill:#1f77b4;"/>
   </g>
   <g id="patch_255">
    <path clip-path="url(#pb3d43bf911)" d="M 402.881456 288.430125 
L 403.951479 288.430125 
L 403.951479 23.480584 
L 402.881456 23.480584 
z
" style="fill:#1f77b4;"/>
   </g>
   <g id="patch_256">
    <path clip-path="url(#pb3d43bf911)" d="M 404.218985 288.430125 
L 405.289007 288.430125 
L 405.289007 23.685724 
L 404.218985 23.685724 
z
" style="fill:#1f77b4;"/>
   </g>
   <g id="patch_257">
    <path clip-path="url(#pb3d43bf911)" d="M 405.556513 288.430125 
L 406.626535 288.430125 
L 406.626535 22.751198 
L 405.556513 22.751198 
z
" style="fill:#1f77b4;"/>
   </g>
   <g id="patch_258">
    <path clip-path="url(#pb3d43bf911)" d="M 406.894041 288.430125 
L 407.964063 288.430125 
L 407.964063 24.027624 
L 406.894041 24.027624 
z
" style="fill:#1f77b4;"/>
   </g>
   <g id="patch_259">
    <path clip-path="url(#pb3d43bf911)" d="M 408.231569 288.430125 
L 409.301591 288.430125 
L 409.301591 27.446622 
L 408.231569 27.446622 
z
" style="fill:#1f77b4;"/>
   </g>
   <g id="patch_260">
    <path clip-path="url(#pb3d43bf911)" d="M 409.569097 288.430125 
L 410.639119 288.430125 
L 410.639119 26.694442 
L 409.569097 26.694442 
z
" style="fill:#1f77b4;"/>
   </g>
   <g id="patch_261">
    <path clip-path="url(#pb3d43bf911)" d="M 410.906625 288.430125 
L 411.976647 288.430125 
L 411.976647 24.984943 
L 410.906625 24.984943 
z
" style="fill:#1f77b4;"/>
   </g>
   <g id="patch_262">
    <path clip-path="url(#pb3d43bf911)" d="M 412.244153 288.430125 
L 413.314176 288.430125 
L 413.314176 30.022267 
L 412.244153 30.022267 
z
" style="fill:#1f77b4;"/>
   </g>
   <g id="patch_263">
    <path clip-path="url(#pb3d43bf911)" d="M 413.581681 288.430125 
L 414.651704 288.430125 
L 414.651704 30.364167 
L 413.581681 30.364167 
z
" style="fill:#1f77b4;"/>
   </g>
   <g id="patch_264">
    <path clip-path="url(#pb3d43bf911)" d="M 414.919209 288.430125 
L 415.989232 288.430125 
L 415.989232 30.911206 
L 414.919209 30.911206 
z
" style="fill:#1f77b4;"/>
   </g>
   <g id="patch_265">
    <path clip-path="url(#pb3d43bf911)" d="M 416.256737 288.430125 
L 417.32676 288.430125 
L 417.32676 30.204613 
L 416.256737 30.204613 
z
" style="fill:#1f77b4;"/>
   </g>
   <g id="patch_266">
    <path clip-path="url(#pb3d43bf911)" d="M 417.594265 288.430125 
L 418.664288 288.430125 
L 418.664288 32.803052 
L 417.594265 32.803052 
z
" style="fill:#1f77b4;"/>
   </g>
   <g id="patch_267">
    <path clip-path="url(#pb3d43bf911)" d="M 418.931794 288.430125 
L 420.001816 288.430125 
L 420.001816 33.464058 
L 418.931794 33.464058 
z
" style="fill:#1f77b4;"/>
   </g>
   <g id="patch_268">
    <path clip-path="url(#pb3d43bf911)" d="M 420.269322 288.430125 
L 421.339344 288.430125 
L 421.339344 35.150764 
L 420.269322 35.150764 
z
" style="fill:#1f77b4;"/>
   </g>
   <g id="patch_269">
    <path clip-path="url(#pb3d43bf911)" d="M 421.60685 288.430125 
L 422.676872 288.430125 
L 422.676872 39.504288 
L 421.60685 39.504288 
z
" style="fill:#1f77b4;"/>
   </g>
   <g id="matplotlib.axis_1">
    <g id="xtick_1">
     <g id="line2d_1">
      <defs>
       <path d="M 0 0 
L 0 3.5 
" id="mfb87b4b4a0" style="stroke:#000000;stroke-width:0.8;"/>
      </defs>
      <g>
       <use style="stroke:#000000;stroke-width:0.8;" x="89.097367" xlink:href="#mfb87b4b4a0" y="288.430125"/>
      </g>
     </g>
     <g id="text_1">
      <!-- 2020-04 -->
      <g transform="translate(91.856742 337.212937)rotate(-90)scale(0.1 -0.1)">
       <defs>
        <path d="M 19.1875 8.296875 
L 53.609375 8.296875 
L 53.609375 0 
L 7.328125 0 
L 7.328125 8.296875 
Q 12.9375 14.109375 22.625 23.890625 
Q 32.328125 33.6875 34.8125 36.53125 
Q 39.546875 41.84375 41.421875 45.53125 
Q 43.3125 49.21875 43.3125 52.78125 
Q 43.3125 58.59375 39.234375 62.25 
Q 35.15625 65.921875 28.609375 65.921875 
Q 23.96875 65.921875 18.8125 64.3125 
Q 13.671875 62.703125 7.8125 59.421875 
L 7.8125 69.390625 
Q 13.765625 71.78125 18.9375 73 
Q 24.125 74.21875 28.421875 74.21875 
Q 39.75 74.21875 46.484375 68.546875 
Q 53.21875 62.890625 53.21875 53.421875 
Q 53.21875 48.921875 51.53125 44.890625 
Q 49.859375 40.875 45.40625 35.40625 
Q 44.1875 33.984375 37.640625 27.21875 
Q 31.109375 20.453125 19.1875 8.296875 
z
" id="DejaVuSans-50"/>
        <path d="M 31.78125 66.40625 
Q 24.171875 66.40625 20.328125 58.90625 
Q 16.5 51.421875 16.5 36.375 
Q 16.5 21.390625 20.328125 13.890625 
Q 24.171875 6.390625 31.78125 6.390625 
Q 39.453125 6.390625 43.28125 13.890625 
Q 47.125 21.390625 47.125 36.375 
Q 47.125 51.421875 43.28125 58.90625 
Q 39.453125 66.40625 31.78125 66.40625 
z
M 31.78125 74.21875 
Q 44.046875 74.21875 50.515625 64.515625 
Q 56.984375 54.828125 56.984375 36.375 
Q 56.984375 17.96875 50.515625 8.265625 
Q 44.046875 -1.421875 31.78125 -1.421875 
Q 19.53125 -1.421875 13.0625 8.265625 
Q 6.59375 17.96875 6.59375 36.375 
Q 6.59375 54.828125 13.0625 64.515625 
Q 19.53125 74.21875 31.78125 74.21875 
z
" id="DejaVuSans-48"/>
        <path d="M 4.890625 31.390625 
L 31.203125 31.390625 
L 31.203125 23.390625 
L 4.890625 23.390625 
z
" id="DejaVuSans-45"/>
        <path d="M 37.796875 64.3125 
L 12.890625 25.390625 
L 37.796875 25.390625 
z
M 35.203125 72.90625 
L 47.609375 72.90625 
L 47.609375 25.390625 
L 58.015625 25.390625 
L 58.015625 17.1875 
L 47.609375 17.1875 
L 47.609375 0 
L 37.796875 0 
L 37.796875 17.1875 
L 4.890625 17.1875 
L 4.890625 26.703125 
z
" id="DejaVuSans-52"/>
       </defs>
       <use xlink:href="#DejaVuSans-50"/>
       <use x="63.623047" xlink:href="#DejaVuSans-48"/>
       <use x="127.246094" xlink:href="#DejaVuSans-50"/>
       <use x="190.869141" xlink:href="#DejaVuSans-48"/>
       <use x="254.492188" xlink:href="#DejaVuSans-45"/>
       <use x="290.576172" xlink:href="#DejaVuSans-48"/>
       <use x="354.199219" xlink:href="#DejaVuSans-52"/>
      </g>
     </g>
    </g>
    <g id="xtick_2">
     <g id="line2d_2">
      <g>
       <use style="stroke:#000000;stroke-width:0.8;" x="129.223209" xlink:href="#mfb87b4b4a0" y="288.430125"/>
      </g>
     </g>
     <g id="text_2">
      <!-- 2020-05 -->
      <g transform="translate(131.982584 337.212937)rotate(-90)scale(0.1 -0.1)">
       <defs>
        <path d="M 10.796875 72.90625 
L 49.515625 72.90625 
L 49.515625 64.59375 
L 19.828125 64.59375 
L 19.828125 46.734375 
Q 21.96875 47.46875 24.109375 47.828125 
Q 26.265625 48.1875 28.421875 48.1875 
Q 40.625 48.1875 47.75 41.5 
Q 54.890625 34.8125 54.890625 23.390625 
Q 54.890625 11.625 47.5625 5.09375 
Q 40.234375 -1.421875 26.90625 -1.421875 
Q 22.3125 -1.421875 17.546875 -0.640625 
Q 12.796875 0.140625 7.71875 1.703125 
L 7.71875 11.625 
Q 12.109375 9.234375 16.796875 8.0625 
Q 21.484375 6.890625 26.703125 6.890625 
Q 35.15625 6.890625 40.078125 11.328125 
Q 45.015625 15.765625 45.015625 23.390625 
Q 45.015625 31 40.078125 35.4375 
Q 35.15625 39.890625 26.703125 39.890625 
Q 22.75 39.890625 18.8125 39.015625 
Q 14.890625 38.140625 10.796875 36.28125 
z
" id="DejaVuSans-53"/>
       </defs>
       <use xlink:href="#DejaVuSans-50"/>
       <use x="63.623047" xlink:href="#DejaVuSans-48"/>
       <use x="127.246094" xlink:href="#DejaVuSans-50"/>
       <use x="190.869141" xlink:href="#DejaVuSans-48"/>
       <use x="254.492188" xlink:href="#DejaVuSans-45"/>
       <use x="290.576172" xlink:href="#DejaVuSans-48"/>
       <use x="354.199219" xlink:href="#DejaVuSans-53"/>
      </g>
     </g>
    </g>
    <g id="xtick_3">
     <g id="line2d_3">
      <g>
       <use style="stroke:#000000;stroke-width:0.8;" x="170.68658" xlink:href="#mfb87b4b4a0" y="288.430125"/>
      </g>
     </g>
     <g id="text_3">
      <!-- 2020-06 -->
      <g transform="translate(173.445955 337.212937)rotate(-90)scale(0.1 -0.1)">
       <defs>
        <path d="M 33.015625 40.375 
Q 26.375 40.375 22.484375 35.828125 
Q 18.609375 31.296875 18.609375 23.390625 
Q 18.609375 15.53125 22.484375 10.953125 
Q 26.375 6.390625 33.015625 6.390625 
Q 39.65625 6.390625 43.53125 10.953125 
Q 47.40625 15.53125 47.40625 23.390625 
Q 47.40625 31.296875 43.53125 35.828125 
Q 39.65625 40.375 33.015625 40.375 
z
M 52.59375 71.296875 
L 52.59375 62.3125 
Q 48.875 64.0625 45.09375 64.984375 
Q 41.3125 65.921875 37.59375 65.921875 
Q 27.828125 65.921875 22.671875 59.328125 
Q 17.53125 52.734375 16.796875 39.40625 
Q 19.671875 43.65625 24.015625 45.921875 
Q 28.375 48.1875 33.59375 48.1875 
Q 44.578125 48.1875 50.953125 41.515625 
Q 57.328125 34.859375 57.328125 23.390625 
Q 57.328125 12.15625 50.6875 5.359375 
Q 44.046875 -1.421875 33.015625 -1.421875 
Q 20.359375 -1.421875 13.671875 8.265625 
Q 6.984375 17.96875 6.984375 36.375 
Q 6.984375 53.65625 15.1875 63.9375 
Q 23.390625 74.21875 37.203125 74.21875 
Q 40.921875 74.21875 44.703125 73.484375 
Q 48.484375 72.75 52.59375 71.296875 
z
" id="DejaVuSans-54"/>
       </defs>
       <use xlink:href="#DejaVuSans-50"/>
       <use x="63.623047" xlink:href="#DejaVuSans-48"/>
       <use x="127.246094" xlink:href="#DejaVuSans-50"/>
       <use x="190.869141" xlink:href="#DejaVuSans-48"/>
       <use x="254.492188" xlink:href="#DejaVuSans-45"/>
       <use x="290.576172" xlink:href="#DejaVuSans-48"/>
       <use x="354.199219" xlink:href="#DejaVuSans-54"/>
      </g>
     </g>
    </g>
    <g id="xtick_4">
     <g id="line2d_4">
      <g>
       <use style="stroke:#000000;stroke-width:0.8;" x="210.812423" xlink:href="#mfb87b4b4a0" y="288.430125"/>
      </g>
     </g>
     <g id="text_4">
      <!-- 2020-07 -->
      <g transform="translate(213.571798 337.212937)rotate(-90)scale(0.1 -0.1)">
       <defs>
        <path d="M 8.203125 72.90625 
L 55.078125 72.90625 
L 55.078125 68.703125 
L 28.609375 0 
L 18.3125 0 
L 43.21875 64.59375 
L 8.203125 64.59375 
z
" id="DejaVuSans-55"/>
       </defs>
       <use xlink:href="#DejaVuSans-50"/>
       <use x="63.623047" xlink:href="#DejaVuSans-48"/>
       <use x="127.246094" xlink:href="#DejaVuSans-50"/>
       <use x="190.869141" xlink:href="#DejaVuSans-48"/>
       <use x="254.492188" xlink:href="#DejaVuSans-45"/>
       <use x="290.576172" xlink:href="#DejaVuSans-48"/>
       <use x="354.199219" xlink:href="#DejaVuSans-55"/>
      </g>
     </g>
    </g>
    <g id="xtick_5">
     <g id="line2d_5">
      <g>
       <use style="stroke:#000000;stroke-width:0.8;" x="252.275794" xlink:href="#mfb87b4b4a0" y="288.430125"/>
      </g>
     </g>
     <g id="text_5">
      <!-- 2020-08 -->
      <g transform="translate(255.035169 337.212937)rotate(-90)scale(0.1 -0.1)">
       <defs>
        <path d="M 31.78125 34.625 
Q 24.75 34.625 20.71875 30.859375 
Q 16.703125 27.09375 16.703125 20.515625 
Q 16.703125 13.921875 20.71875 10.15625 
Q 24.75 6.390625 31.78125 6.390625 
Q 38.8125 6.390625 42.859375 10.171875 
Q 46.921875 13.96875 46.921875 20.515625 
Q 46.921875 27.09375 42.890625 30.859375 
Q 38.875 34.625 31.78125 34.625 
z
M 21.921875 38.8125 
Q 15.578125 40.375 12.03125 44.71875 
Q 8.5 49.078125 8.5 55.328125 
Q 8.5 64.0625 14.71875 69.140625 
Q 20.953125 74.21875 31.78125 74.21875 
Q 42.671875 74.21875 48.875 69.140625 
Q 55.078125 64.0625 55.078125 55.328125 
Q 55.078125 49.078125 51.53125 44.71875 
Q 48 40.375 41.703125 38.8125 
Q 48.828125 37.15625 52.796875 32.3125 
Q 56.78125 27.484375 56.78125 20.515625 
Q 56.78125 9.90625 50.3125 4.234375 
Q 43.84375 -1.421875 31.78125 -1.421875 
Q 19.734375 -1.421875 13.25 4.234375 
Q 6.78125 9.90625 6.78125 20.515625 
Q 6.78125 27.484375 10.78125 32.3125 
Q 14.796875 37.15625 21.921875 38.8125 
z
M 18.3125 54.390625 
Q 18.3125 48.734375 21.84375 45.5625 
Q 25.390625 42.390625 31.78125 42.390625 
Q 38.140625 42.390625 41.71875 45.5625 
Q 45.3125 48.734375 45.3125 54.390625 
Q 45.3125 60.0625 41.71875 63.234375 
Q 38.140625 66.40625 31.78125 66.40625 
Q 25.390625 66.40625 21.84375 63.234375 
Q 18.3125 60.0625 18.3125 54.390625 
z
" id="DejaVuSans-56"/>
       </defs>
       <use xlink:href="#DejaVuSans-50"/>
       <use x="63.623047" xlink:href="#DejaVuSans-48"/>
       <use x="127.246094" xlink:href="#DejaVuSans-50"/>
       <use x="190.869141" xlink:href="#DejaVuSans-48"/>
       <use x="254.492188" xlink:href="#DejaVuSans-45"/>
       <use x="290.576172" xlink:href="#DejaVuSans-48"/>
       <use x="354.199219" xlink:href="#DejaVuSans-56"/>
      </g>
     </g>
    </g>
    <g id="xtick_6">
     <g id="line2d_6">
      <g>
       <use style="stroke:#000000;stroke-width:0.8;" x="293.739164" xlink:href="#mfb87b4b4a0" y="288.430125"/>
      </g>
     </g>
     <g id="text_6">
      <!-- 2020-09 -->
      <g transform="translate(296.498539 337.212937)rotate(-90)scale(0.1 -0.1)">
       <defs>
        <path d="M 10.984375 1.515625 
L 10.984375 10.5 
Q 14.703125 8.734375 18.5 7.8125 
Q 22.3125 6.890625 25.984375 6.890625 
Q 35.75 6.890625 40.890625 13.453125 
Q 46.046875 20.015625 46.78125 33.40625 
Q 43.953125 29.203125 39.59375 26.953125 
Q 35.25 24.703125 29.984375 24.703125 
Q 19.046875 24.703125 12.671875 31.3125 
Q 6.296875 37.9375 6.296875 49.421875 
Q 6.296875 60.640625 12.9375 67.421875 
Q 19.578125 74.21875 30.609375 74.21875 
Q 43.265625 74.21875 49.921875 64.515625 
Q 56.59375 54.828125 56.59375 36.375 
Q 56.59375 19.140625 48.40625 8.859375 
Q 40.234375 -1.421875 26.421875 -1.421875 
Q 22.703125 -1.421875 18.890625 -0.6875 
Q 15.09375 0.046875 10.984375 1.515625 
z
M 30.609375 32.421875 
Q 37.25 32.421875 41.125 36.953125 
Q 45.015625 41.5 45.015625 49.421875 
Q 45.015625 57.28125 41.125 61.84375 
Q 37.25 66.40625 30.609375 66.40625 
Q 23.96875 66.40625 20.09375 61.84375 
Q 16.21875 57.28125 16.21875 49.421875 
Q 16.21875 41.5 20.09375 36.953125 
Q 23.96875 32.421875 30.609375 32.421875 
z
" id="DejaVuSans-57"/>
       </defs>
       <use xlink:href="#DejaVuSans-50"/>
       <use x="63.623047" xlink:href="#DejaVuSans-48"/>
       <use x="127.246094" xlink:href="#DejaVuSans-50"/>
       <use x="190.869141" xlink:href="#DejaVuSans-48"/>
       <use x="254.492188" xlink:href="#DejaVuSans-45"/>
       <use x="290.576172" xlink:href="#DejaVuSans-48"/>
       <use x="354.199219" xlink:href="#DejaVuSans-57"/>
      </g>
     </g>
    </g>
    <g id="xtick_7">
     <g id="line2d_7">
      <g>
       <use style="stroke:#000000;stroke-width:0.8;" x="333.865007" xlink:href="#mfb87b4b4a0" y="288.430125"/>
      </g>
     </g>
     <g id="text_7">
      <!-- 2020-10 -->
      <g transform="translate(336.624382 337.212937)rotate(-90)scale(0.1 -0.1)">
       <defs>
        <path d="M 12.40625 8.296875 
L 28.515625 8.296875 
L 28.515625 63.921875 
L 10.984375 60.40625 
L 10.984375 69.390625 
L 28.421875 72.90625 
L 38.28125 72.90625 
L 38.28125 8.296875 
L 54.390625 8.296875 
L 54.390625 0 
L 12.40625 0 
z
" id="DejaVuSans-49"/>
       </defs>
       <use xlink:href="#DejaVuSans-50"/>
       <use x="63.623047" xlink:href="#DejaVuSans-48"/>
       <use x="127.246094" xlink:href="#DejaVuSans-50"/>
       <use x="190.869141" xlink:href="#DejaVuSans-48"/>
       <use x="254.492188" xlink:href="#DejaVuSans-45"/>
       <use x="290.576172" xlink:href="#DejaVuSans-49"/>
       <use x="354.199219" xlink:href="#DejaVuSans-48"/>
      </g>
     </g>
    </g>
    <g id="xtick_8">
     <g id="line2d_8">
      <g>
       <use style="stroke:#000000;stroke-width:0.8;" x="375.328378" xlink:href="#mfb87b4b4a0" y="288.430125"/>
      </g>
     </g>
     <g id="text_8">
      <!-- 2020-11 -->
      <g transform="translate(378.087753 337.212937)rotate(-90)scale(0.1 -0.1)">
       <use xlink:href="#DejaVuSans-50"/>
       <use x="63.623047" xlink:href="#DejaVuSans-48"/>
       <use x="127.246094" xlink:href="#DejaVuSans-50"/>
       <use x="190.869141" xlink:href="#DejaVuSans-48"/>
       <use x="254.492188" xlink:href="#DejaVuSans-45"/>
       <use x="290.576172" xlink:href="#DejaVuSans-49"/>
       <use x="354.199219" xlink:href="#DejaVuSans-49"/>
      </g>
     </g>
    </g>
    <g id="xtick_9">
     <g id="line2d_9">
      <g>
       <use style="stroke:#000000;stroke-width:0.8;" x="415.454221" xlink:href="#mfb87b4b4a0" y="288.430125"/>
      </g>
     </g>
     <g id="text_9">
      <!-- 2020-12 -->
      <g transform="translate(418.213596 337.212937)rotate(-90)scale(0.1 -0.1)">
       <use xlink:href="#DejaVuSans-50"/>
       <use x="63.623047" xlink:href="#DejaVuSans-48"/>
       <use x="127.246094" xlink:href="#DejaVuSans-50"/>
       <use x="190.869141" xlink:href="#DejaVuSans-48"/>
       <use x="254.492188" xlink:href="#DejaVuSans-45"/>
       <use x="290.576172" xlink:href="#DejaVuSans-49"/>
       <use x="354.199219" xlink:href="#DejaVuSans-50"/>
      </g>
     </g>
    </g>
    <g id="text_10">
     <!-- date -->
     <g transform="translate(232.975625 354.811375)scale(0.1 -0.1)">
      <defs>
       <path d="M 45.40625 46.390625 
L 45.40625 75.984375 
L 54.390625 75.984375 
L 54.390625 0 
L 45.40625 0 
L 45.40625 8.203125 
Q 42.578125 3.328125 38.25 0.953125 
Q 33.9375 -1.421875 27.875 -1.421875 
Q 17.96875 -1.421875 11.734375 6.484375 
Q 5.515625 14.40625 5.515625 27.296875 
Q 5.515625 40.1875 11.734375 48.09375 
Q 17.96875 56 27.875 56 
Q 33.9375 56 38.25 53.625 
Q 42.578125 51.265625 45.40625 46.390625 
z
M 14.796875 27.296875 
Q 14.796875 17.390625 18.875 11.75 
Q 22.953125 6.109375 30.078125 6.109375 
Q 37.203125 6.109375 41.296875 11.75 
Q 45.40625 17.390625 45.40625 27.296875 
Q 45.40625 37.203125 41.296875 42.84375 
Q 37.203125 48.484375 30.078125 48.484375 
Q 22.953125 48.484375 18.875 42.84375 
Q 14.796875 37.203125 14.796875 27.296875 
z
" id="DejaVuSans-100"/>
       <path d="M 34.28125 27.484375 
Q 23.390625 27.484375 19.1875 25 
Q 14.984375 22.515625 14.984375 16.5 
Q 14.984375 11.71875 18.140625 8.90625 
Q 21.296875 6.109375 26.703125 6.109375 
Q 34.1875 6.109375 38.703125 11.40625 
Q 43.21875 16.703125 43.21875 25.484375 
L 43.21875 27.484375 
z
M 52.203125 31.203125 
L 52.203125 0 
L 43.21875 0 
L 43.21875 8.296875 
Q 40.140625 3.328125 35.546875 0.953125 
Q 30.953125 -1.421875 24.3125 -1.421875 
Q 15.921875 -1.421875 10.953125 3.296875 
Q 6 8.015625 6 15.921875 
Q 6 25.140625 12.171875 29.828125 
Q 18.359375 34.515625 30.609375 34.515625 
L 43.21875 34.515625 
L 43.21875 35.40625 
Q 43.21875 41.609375 39.140625 45 
Q 35.0625 48.390625 27.6875 48.390625 
Q 23 48.390625 18.546875 47.265625 
Q 14.109375 46.140625 10.015625 43.890625 
L 10.015625 52.203125 
Q 14.9375 54.109375 19.578125 55.046875 
Q 24.21875 56 28.609375 56 
Q 40.484375 56 46.34375 49.84375 
Q 52.203125 43.703125 52.203125 31.203125 
z
" id="DejaVuSans-97"/>
       <path d="M 18.3125 70.21875 
L 18.3125 54.6875 
L 36.8125 54.6875 
L 36.8125 47.703125 
L 18.3125 47.703125 
L 18.3125 18.015625 
Q 18.3125 11.328125 20.140625 9.421875 
Q 21.96875 7.515625 27.59375 7.515625 
L 36.8125 7.515625 
L 36.8125 0 
L 27.59375 0 
Q 17.1875 0 13.234375 3.875 
Q 9.28125 7.765625 9.28125 18.015625 
L 9.28125 47.703125 
L 2.6875 47.703125 
L 2.6875 54.6875 
L 9.28125 54.6875 
L 9.28125 70.21875 
z
" id="DejaVuSans-116"/>
       <path d="M 56.203125 29.59375 
L 56.203125 25.203125 
L 14.890625 25.203125 
Q 15.484375 15.921875 20.484375 11.0625 
Q 25.484375 6.203125 34.421875 6.203125 
Q 39.59375 6.203125 44.453125 7.46875 
Q 49.3125 8.734375 54.109375 11.28125 
L 54.109375 2.78125 
Q 49.265625 0.734375 44.1875 -0.34375 
Q 39.109375 -1.421875 33.890625 -1.421875 
Q 20.796875 -1.421875 13.15625 6.1875 
Q 5.515625 13.8125 5.515625 26.8125 
Q 5.515625 40.234375 12.765625 48.109375 
Q 20.015625 56 32.328125 56 
Q 43.359375 56 49.78125 48.890625 
Q 56.203125 41.796875 56.203125 29.59375 
z
M 47.21875 32.234375 
Q 47.125 39.59375 43.09375 43.984375 
Q 39.0625 48.390625 32.421875 48.390625 
Q 24.90625 48.390625 20.390625 44.140625 
Q 15.875 39.890625 15.1875 32.171875 
z
" id="DejaVuSans-101"/>
      </defs>
      <use xlink:href="#DejaVuSans-100"/>
      <use x="63.476562" xlink:href="#DejaVuSans-97"/>
      <use x="124.755859" xlink:href="#DejaVuSans-116"/>
      <use x="163.964844" xlink:href="#DejaVuSans-101"/>
     </g>
    </g>
   </g>
   <g id="matplotlib.axis_2">
    <g id="ytick_1">
     <g id="line2d_10">
      <defs>
       <path d="M 0 0 
L -3.5 0 
" id="m0b1dbf6679" style="stroke:#000000;stroke-width:0.8;"/>
      </defs>
      <g>
       <use style="stroke:#000000;stroke-width:0.8;" x="65.690625" xlink:href="#m0b1dbf6679" y="288.430125"/>
      </g>
     </g>
     <g id="text_11">
      <!-- 0 -->
      <g transform="translate(52.328125 292.229344)scale(0.1 -0.1)">
       <use xlink:href="#DejaVuSans-48"/>
      </g>
     </g>
    </g>
    <g id="ytick_2">
     <g id="line2d_11">
      <g>
       <use style="stroke:#000000;stroke-width:0.8;" x="65.690625" xlink:href="#m0b1dbf6679" y="242.843487"/>
      </g>
     </g>
     <g id="text_12">
      <!-- 2000 -->
      <g transform="translate(33.240625 246.642706)scale(0.1 -0.1)">
       <use xlink:href="#DejaVuSans-50"/>
       <use x="63.623047" xlink:href="#DejaVuSans-48"/>
       <use x="127.246094" xlink:href="#DejaVuSans-48"/>
       <use x="190.869141" xlink:href="#DejaVuSans-48"/>
      </g>
     </g>
    </g>
    <g id="ytick_3">
     <g id="line2d_12">
      <g>
       <use style="stroke:#000000;stroke-width:0.8;" x="65.690625" xlink:href="#m0b1dbf6679" y="197.256849"/>
      </g>
     </g>
     <g id="text_13">
      <!-- 4000 -->
      <g transform="translate(33.240625 201.056068)scale(0.1 -0.1)">
       <use xlink:href="#DejaVuSans-52"/>
       <use x="63.623047" xlink:href="#DejaVuSans-48"/>
       <use x="127.246094" xlink:href="#DejaVuSans-48"/>
       <use x="190.869141" xlink:href="#DejaVuSans-48"/>
      </g>
     </g>
    </g>
    <g id="ytick_4">
     <g id="line2d_13">
      <g>
       <use style="stroke:#000000;stroke-width:0.8;" x="65.690625" xlink:href="#m0b1dbf6679" y="151.670211"/>
      </g>
     </g>
     <g id="text_14">
      <!-- 6000 -->
      <g transform="translate(33.240625 155.469429)scale(0.1 -0.1)">
       <use xlink:href="#DejaVuSans-54"/>
       <use x="63.623047" xlink:href="#DejaVuSans-48"/>
       <use x="127.246094" xlink:href="#DejaVuSans-48"/>
       <use x="190.869141" xlink:href="#DejaVuSans-48"/>
      </g>
     </g>
    </g>
    <g id="ytick_5">
     <g id="line2d_14">
      <g>
       <use style="stroke:#000000;stroke-width:0.8;" x="65.690625" xlink:href="#m0b1dbf6679" y="106.083573"/>
      </g>
     </g>
     <g id="text_15">
      <!-- 8000 -->
      <g transform="translate(33.240625 109.882791)scale(0.1 -0.1)">
       <use xlink:href="#DejaVuSans-56"/>
       <use x="63.623047" xlink:href="#DejaVuSans-48"/>
       <use x="127.246094" xlink:href="#DejaVuSans-48"/>
       <use x="190.869141" xlink:href="#DejaVuSans-48"/>
      </g>
     </g>
    </g>
    <g id="ytick_6">
     <g id="line2d_15">
      <g>
       <use style="stroke:#000000;stroke-width:0.8;" x="65.690625" xlink:href="#m0b1dbf6679" y="60.496934"/>
      </g>
     </g>
     <g id="text_16">
      <!-- 10000 -->
      <g transform="translate(26.878125 64.296153)scale(0.1 -0.1)">
       <use xlink:href="#DejaVuSans-49"/>
       <use x="63.623047" xlink:href="#DejaVuSans-48"/>
       <use x="127.246094" xlink:href="#DejaVuSans-48"/>
       <use x="190.869141" xlink:href="#DejaVuSans-48"/>
       <use x="254.492188" xlink:href="#DejaVuSans-48"/>
      </g>
     </g>
    </g>
    <g id="text_17">
     <!-- number of active corona cases -->
     <g transform="translate(14.798438 232.405375)rotate(-90)scale(0.1 -0.1)">
      <defs>
       <path d="M 54.890625 33.015625 
L 54.890625 0 
L 45.90625 0 
L 45.90625 32.71875 
Q 45.90625 40.484375 42.875 44.328125 
Q 39.84375 48.1875 33.796875 48.1875 
Q 26.515625 48.1875 22.3125 43.546875 
Q 18.109375 38.921875 18.109375 30.90625 
L 18.109375 0 
L 9.078125 0 
L 9.078125 54.6875 
L 18.109375 54.6875 
L 18.109375 46.1875 
Q 21.34375 51.125 25.703125 53.5625 
Q 30.078125 56 35.796875 56 
Q 45.21875 56 50.046875 50.171875 
Q 54.890625 44.34375 54.890625 33.015625 
z
" id="DejaVuSans-110"/>
       <path d="M 8.5 21.578125 
L 8.5 54.6875 
L 17.484375 54.6875 
L 17.484375 21.921875 
Q 17.484375 14.15625 20.5 10.265625 
Q 23.53125 6.390625 29.59375 6.390625 
Q 36.859375 6.390625 41.078125 11.03125 
Q 45.3125 15.671875 45.3125 23.6875 
L 45.3125 54.6875 
L 54.296875 54.6875 
L 54.296875 0 
L 45.3125 0 
L 45.3125 8.40625 
Q 42.046875 3.421875 37.71875 1 
Q 33.40625 -1.421875 27.6875 -1.421875 
Q 18.265625 -1.421875 13.375 4.4375 
Q 8.5 10.296875 8.5 21.578125 
z
M 31.109375 56 
z
" id="DejaVuSans-117"/>
       <path d="M 52 44.1875 
Q 55.375 50.25 60.0625 53.125 
Q 64.75 56 71.09375 56 
Q 79.640625 56 84.28125 50.015625 
Q 88.921875 44.046875 88.921875 33.015625 
L 88.921875 0 
L 79.890625 0 
L 79.890625 32.71875 
Q 79.890625 40.578125 77.09375 44.375 
Q 74.3125 48.1875 68.609375 48.1875 
Q 61.625 48.1875 57.5625 43.546875 
Q 53.515625 38.921875 53.515625 30.90625 
L 53.515625 0 
L 44.484375 0 
L 44.484375 32.71875 
Q 44.484375 40.625 41.703125 44.40625 
Q 38.921875 48.1875 33.109375 48.1875 
Q 26.21875 48.1875 22.15625 43.53125 
Q 18.109375 38.875 18.109375 30.90625 
L 18.109375 0 
L 9.078125 0 
L 9.078125 54.6875 
L 18.109375 54.6875 
L 18.109375 46.1875 
Q 21.1875 51.21875 25.484375 53.609375 
Q 29.78125 56 35.6875 56 
Q 41.65625 56 45.828125 52.96875 
Q 50 49.953125 52 44.1875 
z
" id="DejaVuSans-109"/>
       <path d="M 48.6875 27.296875 
Q 48.6875 37.203125 44.609375 42.84375 
Q 40.53125 48.484375 33.40625 48.484375 
Q 26.265625 48.484375 22.1875 42.84375 
Q 18.109375 37.203125 18.109375 27.296875 
Q 18.109375 17.390625 22.1875 11.75 
Q 26.265625 6.109375 33.40625 6.109375 
Q 40.53125 6.109375 44.609375 11.75 
Q 48.6875 17.390625 48.6875 27.296875 
z
M 18.109375 46.390625 
Q 20.953125 51.265625 25.265625 53.625 
Q 29.59375 56 35.59375 56 
Q 45.5625 56 51.78125 48.09375 
Q 58.015625 40.1875 58.015625 27.296875 
Q 58.015625 14.40625 51.78125 6.484375 
Q 45.5625 -1.421875 35.59375 -1.421875 
Q 29.59375 -1.421875 25.265625 0.953125 
Q 20.953125 3.328125 18.109375 8.203125 
L 18.109375 0 
L 9.078125 0 
L 9.078125 75.984375 
L 18.109375 75.984375 
z
" id="DejaVuSans-98"/>
       <path d="M 41.109375 46.296875 
Q 39.59375 47.171875 37.8125 47.578125 
Q 36.03125 48 33.890625 48 
Q 26.265625 48 22.1875 43.046875 
Q 18.109375 38.09375 18.109375 28.8125 
L 18.109375 0 
L 9.078125 0 
L 9.078125 54.6875 
L 18.109375 54.6875 
L 18.109375 46.1875 
Q 20.953125 51.171875 25.484375 53.578125 
Q 30.03125 56 36.53125 56 
Q 37.453125 56 38.578125 55.875 
Q 39.703125 55.765625 41.0625 55.515625 
z
" id="DejaVuSans-114"/>
       <path id="DejaVuSans-32"/>
       <path d="M 30.609375 48.390625 
Q 23.390625 48.390625 19.1875 42.75 
Q 14.984375 37.109375 14.984375 27.296875 
Q 14.984375 17.484375 19.15625 11.84375 
Q 23.34375 6.203125 30.609375 6.203125 
Q 37.796875 6.203125 41.984375 11.859375 
Q 46.1875 17.53125 46.1875 27.296875 
Q 46.1875 37.015625 41.984375 42.703125 
Q 37.796875 48.390625 30.609375 48.390625 
z
M 30.609375 56 
Q 42.328125 56 49.015625 48.375 
Q 55.71875 40.765625 55.71875 27.296875 
Q 55.71875 13.875 49.015625 6.21875 
Q 42.328125 -1.421875 30.609375 -1.421875 
Q 18.84375 -1.421875 12.171875 6.21875 
Q 5.515625 13.875 5.515625 27.296875 
Q 5.515625 40.765625 12.171875 48.375 
Q 18.84375 56 30.609375 56 
z
" id="DejaVuSans-111"/>
       <path d="M 37.109375 75.984375 
L 37.109375 68.5 
L 28.515625 68.5 
Q 23.6875 68.5 21.796875 66.546875 
Q 19.921875 64.59375 19.921875 59.515625 
L 19.921875 54.6875 
L 34.71875 54.6875 
L 34.71875 47.703125 
L 19.921875 47.703125 
L 19.921875 0 
L 10.890625 0 
L 10.890625 47.703125 
L 2.296875 47.703125 
L 2.296875 54.6875 
L 10.890625 54.6875 
L 10.890625 58.5 
Q 10.890625 67.625 15.140625 71.796875 
Q 19.390625 75.984375 28.609375 75.984375 
z
" id="DejaVuSans-102"/>
       <path d="M 48.78125 52.59375 
L 48.78125 44.1875 
Q 44.96875 46.296875 41.140625 47.34375 
Q 37.3125 48.390625 33.40625 48.390625 
Q 24.65625 48.390625 19.8125 42.84375 
Q 14.984375 37.3125 14.984375 27.296875 
Q 14.984375 17.28125 19.8125 11.734375 
Q 24.65625 6.203125 33.40625 6.203125 
Q 37.3125 6.203125 41.140625 7.25 
Q 44.96875 8.296875 48.78125 10.40625 
L 48.78125 2.09375 
Q 45.015625 0.34375 40.984375 -0.53125 
Q 36.96875 -1.421875 32.421875 -1.421875 
Q 20.0625 -1.421875 12.78125 6.34375 
Q 5.515625 14.109375 5.515625 27.296875 
Q 5.515625 40.671875 12.859375 48.328125 
Q 20.21875 56 33.015625 56 
Q 37.15625 56 41.109375 55.140625 
Q 45.0625 54.296875 48.78125 52.59375 
z
" id="DejaVuSans-99"/>
       <path d="M 9.421875 54.6875 
L 18.40625 54.6875 
L 18.40625 0 
L 9.421875 0 
z
M 9.421875 75.984375 
L 18.40625 75.984375 
L 18.40625 64.59375 
L 9.421875 64.59375 
z
" id="DejaVuSans-105"/>
       <path d="M 2.984375 54.6875 
L 12.5 54.6875 
L 29.59375 8.796875 
L 46.6875 54.6875 
L 56.203125 54.6875 
L 35.6875 0 
L 23.484375 0 
z
" id="DejaVuSans-118"/>
       <path d="M 44.28125 53.078125 
L 44.28125 44.578125 
Q 40.484375 46.53125 36.375 47.5 
Q 32.28125 48.484375 27.875 48.484375 
Q 21.1875 48.484375 17.84375 46.4375 
Q 14.5 44.390625 14.5 40.28125 
Q 14.5 37.15625 16.890625 35.375 
Q 19.28125 33.59375 26.515625 31.984375 
L 29.59375 31.296875 
Q 39.15625 29.25 43.1875 25.515625 
Q 47.21875 21.78125 47.21875 15.09375 
Q 47.21875 7.46875 41.1875 3.015625 
Q 35.15625 -1.421875 24.609375 -1.421875 
Q 20.21875 -1.421875 15.453125 -0.5625 
Q 10.6875 0.296875 5.421875 2 
L 5.421875 11.28125 
Q 10.40625 8.6875 15.234375 7.390625 
Q 20.0625 6.109375 24.8125 6.109375 
Q 31.15625 6.109375 34.5625 8.28125 
Q 37.984375 10.453125 37.984375 14.40625 
Q 37.984375 18.0625 35.515625 20.015625 
Q 33.0625 21.96875 24.703125 23.78125 
L 21.578125 24.515625 
Q 13.234375 26.265625 9.515625 29.90625 
Q 5.8125 33.546875 5.8125 39.890625 
Q 5.8125 47.609375 11.28125 51.796875 
Q 16.75 56 26.8125 56 
Q 31.78125 56 36.171875 55.265625 
Q 40.578125 54.546875 44.28125 53.078125 
z
" id="DejaVuSans-115"/>
      </defs>
      <use xlink:href="#DejaVuSans-110"/>
      <use x="63.378906" xlink:href="#DejaVuSans-117"/>
      <use x="126.757812" xlink:href="#DejaVuSans-109"/>
      <use x="224.169922" xlink:href="#DejaVuSans-98"/>
      <use x="287.646484" xlink:href="#DejaVuSans-101"/>
      <use x="349.169922" xlink:href="#DejaVuSans-114"/>
      <use x="390.283203" xlink:href="#DejaVuSans-32"/>
      <use x="422.070312" xlink:href="#DejaVuSans-111"/>
      <use x="483.251953" xlink:href="#DejaVuSans-102"/>
      <use x="518.457031" xlink:href="#DejaVuSans-32"/>
      <use x="550.244141" xlink:href="#DejaVuSans-97"/>
      <use x="611.523438" xlink:href="#DejaVuSans-99"/>
      <use x="666.503906" xlink:href="#DejaVuSans-116"/>
      <use x="705.712891" xlink:href="#DejaVuSans-105"/>
      <use x="733.496094" xlink:href="#DejaVuSans-118"/>
      <use x="792.675781" xlink:href="#DejaVuSans-101"/>
      <use x="854.199219" xlink:href="#DejaVuSans-32"/>
      <use x="885.986328" xlink:href="#DejaVuSans-99"/>
      <use x="940.966797" xlink:href="#DejaVuSans-111"/>
      <use x="1002.148438" xlink:href="#DejaVuSans-114"/>
      <use x="1041.011719" xlink:href="#DejaVuSans-111"/>
      <use x="1102.193359" xlink:href="#DejaVuSans-110"/>
      <use x="1165.572266" xlink:href="#DejaVuSans-97"/>
      <use x="1226.851562" xlink:href="#DejaVuSans-32"/>
      <use x="1258.638672" xlink:href="#DejaVuSans-99"/>
      <use x="1313.619141" xlink:href="#DejaVuSans-97"/>
      <use x="1374.898438" xlink:href="#DejaVuSans-115"/>
      <use x="1426.998047" xlink:href="#DejaVuSans-101"/>
      <use x="1488.521484" xlink:href="#DejaVuSans-115"/>
     </g>
    </g>
   </g>
   <g id="patch_270">
    <path d="M 65.690625 288.430125 
L 65.690625 22.318125 
" style="fill:none;stroke:#000000;stroke-linecap:square;stroke-linejoin:miter;stroke-width:0.8;"/>
   </g>
   <g id="patch_271">
    <path d="M 65.690625 288.430125 
L 422.810625 288.430125 
" style="fill:none;stroke:#000000;stroke-linecap:square;stroke-linejoin:miter;stroke-width:0.8;"/>
   </g>
   <g id="text_18">
    <!-- South Tyrol -->
    <g transform="translate(210.958125 16.318125)scale(0.12 -0.12)">
     <defs>
      <path d="M 53.515625 70.515625 
L 53.515625 60.890625 
Q 47.90625 63.578125 42.921875 64.890625 
Q 37.9375 66.21875 33.296875 66.21875 
Q 25.25 66.21875 20.875 63.09375 
Q 16.5 59.96875 16.5 54.203125 
Q 16.5 49.359375 19.40625 46.890625 
Q 22.3125 44.4375 30.421875 42.921875 
L 36.375 41.703125 
Q 47.40625 39.59375 52.65625 34.296875 
Q 57.90625 29 57.90625 20.125 
Q 57.90625 9.515625 50.796875 4.046875 
Q 43.703125 -1.421875 29.984375 -1.421875 
Q 24.8125 -1.421875 18.96875 -0.25 
Q 13.140625 0.921875 6.890625 3.21875 
L 6.890625 13.375 
Q 12.890625 10.015625 18.65625 8.296875 
Q 24.421875 6.59375 29.984375 6.59375 
Q 38.421875 6.59375 43.015625 9.90625 
Q 47.609375 13.234375 47.609375 19.390625 
Q 47.609375 24.75 44.3125 27.78125 
Q 41.015625 30.8125 33.5 32.328125 
L 27.484375 33.5 
Q 16.453125 35.6875 11.515625 40.375 
Q 6.59375 45.0625 6.59375 53.421875 
Q 6.59375 63.09375 13.40625 68.65625 
Q 20.21875 74.21875 32.171875 74.21875 
Q 37.3125 74.21875 42.625 73.28125 
Q 47.953125 72.359375 53.515625 70.515625 
z
" id="DejaVuSans-83"/>
      <path d="M 54.890625 33.015625 
L 54.890625 0 
L 45.90625 0 
L 45.90625 32.71875 
Q 45.90625 40.484375 42.875 44.328125 
Q 39.84375 48.1875 33.796875 48.1875 
Q 26.515625 48.1875 22.3125 43.546875 
Q 18.109375 38.921875 18.109375 30.90625 
L 18.109375 0 
L 9.078125 0 
L 9.078125 75.984375 
L 18.109375 75.984375 
L 18.109375 46.1875 
Q 21.34375 51.125 25.703125 53.5625 
Q 30.078125 56 35.796875 56 
Q 45.21875 56 50.046875 50.171875 
Q 54.890625 44.34375 54.890625 33.015625 
z
" id="DejaVuSans-104"/>
      <path d="M -0.296875 72.90625 
L 61.375 72.90625 
L 61.375 64.59375 
L 35.5 64.59375 
L 35.5 0 
L 25.59375 0 
L 25.59375 64.59375 
L -0.296875 64.59375 
z
" id="DejaVuSans-84"/>
      <path d="M 32.171875 -5.078125 
Q 28.375 -14.84375 24.75 -17.8125 
Q 21.140625 -20.796875 15.09375 -20.796875 
L 7.90625 -20.796875 
L 7.90625 -13.28125 
L 13.1875 -13.28125 
Q 16.890625 -13.28125 18.9375 -11.515625 
Q 21 -9.765625 23.484375 -3.21875 
L 25.09375 0.875 
L 2.984375 54.6875 
L 12.5 54.6875 
L 29.59375 11.921875 
L 46.6875 54.6875 
L 56.203125 54.6875 
z
" id="DejaVuSans-121"/>
      <path d="M 9.421875 75.984375 
L 18.40625 75.984375 
L 18.40625 0 
L 9.421875 0 
z
" id="DejaVuSans-108"/>
     </defs>
     <use xlink:href="#DejaVuSans-83"/>
     <use x="63.476562" xlink:href="#DejaVuSans-111"/>
     <use x="124.658203" xlink:href="#DejaVuSans-117"/>
     <use x="188.037109" xlink:href="#DejaVuSans-116"/>
     <use x="227.246094" xlink:href="#DejaVuSans-104"/>
     <use x="290.625" xlink:href="#DejaVuSans-32"/>
     <use x="322.412109" xlink:href="#DejaVuSans-84"/>
     <use x="367.871094" xlink:href="#DejaVuSans-121"/>
     <use x="427.050781" xlink:href="#DejaVuSans-114"/>
     <use x="465.914062" xlink:href="#DejaVuSans-111"/>
     <use x="527.095703" xlink:href="#DejaVuSans-108"/>
    </g>
   </g>
  </g>
 </g>
 <defs>
  <clipPath id="pb3d43bf911">
   <rect height="266.112" width="357.12" x="65.690625" y="22.318125"/>
  </clipPath>
 </defs>
</svg>
