<?xml version="1.0" encoding="utf-8" standalone="no"?>
<!DOCTYPE svg PUBLIC "-//W3C//DTD SVG 1.1//EN"
  "http://www.w3.org/Graphics/SVG/1.1/DTD/svg11.dtd">
<!-- Created with matplotlib (https://matplotlib.org/) -->
<svg height="364.091062pt" version="1.1" viewBox="0 0 430.010625 364.091062" width="430.010625pt" xmlns="http://www.w3.org/2000/svg" xmlns:xlink="http://www.w3.org/1999/xlink">
 <metadata>
  <rdf:RDF xmlns:cc="http://creativecommons.org/ns#" xmlns:dc="http://purl.org/dc/elements/1.1/" xmlns:rdf="http://www.w3.org/1999/02/22-rdf-syntax-ns#">
   <cc:Work>
    <dc:type rdf:resource="http://purl.org/dc/dcmitype/StillImage"/>
    <dc:date>2020-12-23T12:58:13.364133</dc:date>
    <dc:format>image/svg+xml</dc:format>
    <dc:creator>
     <cc:Agent>
      <dc:title>Matplotlib v3.3.3, https://matplotlib.org/</dc:title>
     </cc:Agent>
    </dc:creator>
   </cc:Work>
  </rdf:RDF>
 </metadata>
 <defs>
  <style type="text/css">*{stroke-linecap:butt;stroke-linejoin:round;}</style>
 </defs>
 <g id="figure_1">
  <g id="patch_1">
   <path d="M 0 364.091062 
L 430.010625 364.091062 
L 430.010625 0 
L 0 0 
z
" style="fill:#ffffff;"/>
  </g>
  <g id="axes_1">
   <g id="patch_2">
    <path d="M 65.690625 288.430125 
L 422.810625 288.430125 
L 422.810625 22.318125 
L 65.690625 22.318125 
z
" style="fill:#ffffff;"/>
   </g>
   <g id="patch_3">
    <path clip-path="url(#pd5a4fe1e59)" d="M 65.816371 288.430125 
L 66.822343 288.430125 
L 66.822343 283.894255 
L 65.816371 283.894255 
z
" style="fill:#1f77b4;"/>
   </g>
   <g id="patch_4">
    <path clip-path="url(#pd5a4fe1e59)" d="M 67.073836 288.430125 
L 68.079808 288.430125 
L 68.079808 283.050902 
L 67.073836 283.050902 
z
" style="fill:#1f77b4;"/>
   </g>
   <g id="patch_5">
    <path clip-path="url(#pd5a4fe1e59)" d="M 68.331301 288.430125 
L 69.337273 288.430125 
L 69.337273 282.025202 
L 68.331301 282.025202 
z
" style="fill:#1f77b4;"/>
   </g>
   <g id="patch_6">
    <path clip-path="url(#pd5a4fe1e59)" d="M 69.588766 288.430125 
L 70.594738 288.430125 
L 70.594738 280.133357 
L 69.588766 280.133357 
z
" style="fill:#1f77b4;"/>
   </g>
   <g id="patch_7">
    <path clip-path="url(#pd5a4fe1e59)" d="M 70.846231 288.430125 
L 71.852202 288.430125 
L 71.852202 278.925311 
L 70.846231 278.925311 
z
" style="fill:#1f77b4;"/>
   </g>
   <g id="patch_8">
    <path clip-path="url(#pd5a4fe1e59)" d="M 72.103695 288.430125 
L 73.109667 288.430125 
L 73.109667 276.463632 
L 72.103695 276.463632 
z
" style="fill:#1f77b4;"/>
   </g>
   <g id="patch_9">
    <path clip-path="url(#pd5a4fe1e59)" d="M 73.36116 288.430125 
L 74.367132 288.430125 
L 74.367132 275.07324 
L 73.36116 275.07324 
z
" style="fill:#1f77b4;"/>
   </g>
   <g id="patch_10">
    <path clip-path="url(#pd5a4fe1e59)" d="M 74.618625 288.430125 
L 75.624597 288.430125 
L 75.624597 274.070334 
L 74.618625 274.070334 
z
" style="fill:#1f77b4;"/>
   </g>
   <g id="patch_11">
    <path clip-path="url(#pd5a4fe1e59)" d="M 75.87609 288.430125 
L 76.882062 288.430125 
L 76.882062 273.272568 
L 75.87609 273.272568 
z
" style="fill:#1f77b4;"/>
   </g>
   <g id="patch_12">
    <path clip-path="url(#pd5a4fe1e59)" d="M 77.133555 288.430125 
L 78.139526 288.430125 
L 78.139526 271.996142 
L 77.133555 271.996142 
z
" style="fill:#1f77b4;"/>
   </g>
   <g id="patch_13">
    <path clip-path="url(#pd5a4fe1e59)" d="M 78.391019 288.430125 
L 79.396991 288.430125 
L 79.396991 271.107203 
L 78.391019 271.107203 
z
" style="fill:#1f77b4;"/>
   </g>
   <g id="patch_14">
    <path clip-path="url(#pd5a4fe1e59)" d="M 79.648484 288.430125 
L 80.654456 288.430125 
L 80.654456 269.78519 
L 79.648484 269.78519 
z
" style="fill:#1f77b4;"/>
   </g>
   <g id="patch_15">
    <path clip-path="url(#pd5a4fe1e59)" d="M 80.905949 288.430125 
L 81.911921 288.430125 
L 81.911921 267.961724 
L 80.905949 267.961724 
z
" style="fill:#1f77b4;"/>
   </g>
   <g id="patch_16">
    <path clip-path="url(#pd5a4fe1e59)" d="M 82.163414 288.430125 
L 83.169386 288.430125 
L 83.169386 266.343399 
L 82.163414 266.343399 
z
" style="fill:#1f77b4;"/>
   </g>
   <g id="patch_17">
    <path clip-path="url(#pd5a4fe1e59)" d="M 83.420879 288.430125 
L 84.42685 288.430125 
L 84.42685 263.88172 
L 83.420879 263.88172 
z
" style="fill:#1f77b4;"/>
   </g>
   <g id="patch_18">
    <path clip-path="url(#pd5a4fe1e59)" d="M 84.678343 288.430125 
L 85.684315 288.430125 
L 85.684315 262.354568 
L 84.678343 262.354568 
z
" style="fill:#1f77b4;"/>
   </g>
   <g id="patch_19">
    <path clip-path="url(#pd5a4fe1e59)" d="M 85.935808 288.430125 
L 86.94178 288.430125 
L 86.94178 262.217808 
L 85.935808 262.217808 
z
" style="fill:#1f77b4;"/>
   </g>
   <g id="patch_20">
    <path clip-path="url(#pd5a4fe1e59)" d="M 87.193273 288.430125 
L 88.199245 288.430125 
L 88.199245 261.716355 
L 87.193273 261.716355 
z
" style="fill:#1f77b4;"/>
   </g>
   <g id="patch_21">
    <path clip-path="url(#pd5a4fe1e59)" d="M 88.450738 288.430125 
L 89.45671 288.430125 
L 89.45671 261.214902 
L 88.450738 261.214902 
z
" style="fill:#1f77b4;"/>
   </g>
   <g id="patch_22">
    <path clip-path="url(#pd5a4fe1e59)" d="M 89.708202 288.430125 
L 90.714174 288.430125 
L 90.714174 260.280376 
L 89.708202 260.280376 
z
" style="fill:#1f77b4;"/>
   </g>
   <g id="patch_23">
    <path clip-path="url(#pd5a4fe1e59)" d="M 90.965667 288.430125 
L 91.971639 288.430125 
L 91.971639 258.548084 
L 90.965667 258.548084 
z
" style="fill:#1f77b4;"/>
   </g>
   <g id="patch_24">
    <path clip-path="url(#pd5a4fe1e59)" d="M 92.223132 288.430125 
L 93.229104 288.430125 
L 93.229104 258.137804 
L 92.223132 258.137804 
z
" style="fill:#1f77b4;"/>
   </g>
   <g id="patch_25">
    <path clip-path="url(#pd5a4fe1e59)" d="M 93.480597 288.430125 
L 94.486569 288.430125 
L 94.486569 257.020931 
L 93.480597 257.020931 
z
" style="fill:#1f77b4;"/>
   </g>
   <g id="patch_26">
    <path clip-path="url(#pd5a4fe1e59)" d="M 94.738062 288.430125 
L 95.744033 288.430125 
L 95.744033 256.245958 
L 94.738062 256.245958 
z
" style="fill:#1f77b4;"/>
   </g>
   <g id="patch_27">
    <path clip-path="url(#pd5a4fe1e59)" d="M 95.995526 288.430125 
L 97.001498 288.430125 
L 97.001498 255.812885 
L 95.995526 255.812885 
z
" style="fill:#1f77b4;"/>
   </g>
   <g id="patch_28">
    <path clip-path="url(#pd5a4fe1e59)" d="M 97.252991 288.430125 
L 98.258963 288.430125 
L 98.258963 255.448192 
L 97.252991 255.448192 
z
" style="fill:#1f77b4;"/>
   </g>
   <g id="patch_29">
    <path clip-path="url(#pd5a4fe1e59)" d="M 98.510456 288.430125 
L 99.516428 288.430125 
L 99.516428 254.901153 
L 98.510456 254.901153 
z
" style="fill:#1f77b4;"/>
   </g>
   <g id="patch_30">
    <path clip-path="url(#pd5a4fe1e59)" d="M 99.767921 288.430125 
L 100.773893 288.430125 
L 100.773893 254.490873 
L 99.767921 254.490873 
z
" style="fill:#1f77b4;"/>
   </g>
   <g id="patch_31">
    <path clip-path="url(#pd5a4fe1e59)" d="M 101.025386 288.430125 
L 102.031357 288.430125 
L 102.031357 253.7159 
L 101.025386 253.7159 
z
" style="fill:#1f77b4;"/>
   </g>
   <g id="patch_32">
    <path clip-path="url(#pd5a4fe1e59)" d="M 102.28285 288.430125 
L 103.288822 288.430125 
L 103.288822 252.963721 
L 102.28285 252.963721 
z
" style="fill:#1f77b4;"/>
   </g>
   <g id="patch_33">
    <path clip-path="url(#pd5a4fe1e59)" d="M 103.540315 288.430125 
L 104.546287 288.430125 
L 104.546287 252.485061 
L 103.540315 252.485061 
z
" style="fill:#1f77b4;"/>
   </g>
   <g id="patch_34">
    <path clip-path="url(#pd5a4fe1e59)" d="M 104.79778 288.430125 
L 105.803752 288.430125 
L 105.803752 252.234334 
L 104.79778 252.234334 
z
" style="fill:#1f77b4;"/>
   </g>
   <g id="patch_35">
    <path clip-path="url(#pd5a4fe1e59)" d="M 106.055245 288.430125 
L 107.061217 288.430125 
L 107.061217 252.143161 
L 106.055245 252.143161 
z
" style="fill:#1f77b4;"/>
   </g>
   <g id="patch_36">
    <path clip-path="url(#pd5a4fe1e59)" d="M 107.31271 288.430125 
L 108.318681 288.430125 
L 108.318681 252.325508 
L 107.31271 252.325508 
z
" style="fill:#1f77b4;"/>
   </g>
   <g id="patch_37">
    <path clip-path="url(#pd5a4fe1e59)" d="M 108.570174 288.430125 
L 109.576146 288.430125 
L 109.576146 252.963721 
L 108.570174 252.963721 
z
" style="fill:#1f77b4;"/>
   </g>
   <g id="patch_38">
    <path clip-path="url(#pd5a4fe1e59)" d="M 109.827639 288.430125 
L 110.833611 288.430125 
L 110.833611 252.735787 
L 109.827639 252.735787 
z
" style="fill:#1f77b4;"/>
   </g>
   <g id="patch_39">
    <path clip-path="url(#pd5a4fe1e59)" d="M 111.085104 288.430125 
L 112.091076 288.430125 
L 112.091076 253.282827 
L 111.085104 253.282827 
z
" style="fill:#1f77b4;"/>
   </g>
   <g id="patch_40">
    <path clip-path="url(#pd5a4fe1e59)" d="M 112.342569 288.430125 
L 113.34854 288.430125 
L 113.34854 253.396794 
L 112.342569 253.396794 
z
" style="fill:#1f77b4;"/>
   </g>
   <g id="patch_41">
    <path clip-path="url(#pd5a4fe1e59)" d="M 113.600033 288.430125 
L 114.606005 288.430125 
L 114.606005 253.966627 
L 113.600033 253.966627 
z
" style="fill:#1f77b4;"/>
   </g>
   <g id="patch_42">
    <path clip-path="url(#pd5a4fe1e59)" d="M 114.857498 288.430125 
L 115.86347 288.430125 
L 115.86347 254.376906 
L 114.857498 254.376906 
z
" style="fill:#1f77b4;"/>
   </g>
   <g id="patch_43">
    <path clip-path="url(#pd5a4fe1e59)" d="M 116.114963 288.430125 
L 117.120935 288.430125 
L 117.120935 263.517027 
L 116.114963 263.517027 
z
" style="fill:#1f77b4;"/>
   </g>
   <g id="patch_44">
    <path clip-path="url(#pd5a4fe1e59)" d="M 117.372428 288.430125 
L 118.3784 288.430125 
L 118.3784 264.83904 
L 117.372428 264.83904 
z
" style="fill:#1f77b4;"/>
   </g>
   <g id="patch_45">
    <path clip-path="url(#pd5a4fe1e59)" d="M 118.629893 288.430125 
L 119.635864 288.430125 
L 119.635864 265.773566 
L 118.629893 265.773566 
z
" style="fill:#1f77b4;"/>
   </g>
   <g id="patch_46">
    <path clip-path="url(#pd5a4fe1e59)" d="M 119.887357 288.430125 
L 120.893329 288.430125 
L 120.893329 267.004405 
L 119.887357 267.004405 
z
" style="fill:#1f77b4;"/>
   </g>
   <g id="patch_47">
    <path clip-path="url(#pd5a4fe1e59)" d="M 121.144822 288.430125 
L 122.150794 288.430125 
L 122.150794 267.688205 
L 121.144822 267.688205 
z
" style="fill:#1f77b4;"/>
   </g>
   <g id="patch_48">
    <path clip-path="url(#pd5a4fe1e59)" d="M 122.402287 288.430125 
L 123.408259 288.430125 
L 123.408259 269.16977 
L 122.402287 269.16977 
z
" style="fill:#1f77b4;"/>
   </g>
   <g id="patch_49">
    <path clip-path="url(#pd5a4fe1e59)" d="M 123.659752 288.430125 
L 124.665724 288.430125 
L 124.665724 270.149883 
L 123.659752 270.149883 
z
" style="fill:#1f77b4;"/>
   </g>
   <g id="patch_50">
    <path clip-path="url(#pd5a4fe1e59)" d="M 124.917217 288.430125 
L 125.923188 288.430125 
L 125.923188 271.175582 
L 124.917217 271.175582 
z
" style="fill:#1f77b4;"/>
   </g>
   <g id="patch_51">
    <path clip-path="url(#pd5a4fe1e59)" d="M 126.174681 288.430125 
L 127.180653 288.430125 
L 127.180653 272.406422 
L 126.174681 272.406422 
z
" style="fill:#1f77b4;"/>
   </g>
   <g id="patch_52">
    <path clip-path="url(#pd5a4fe1e59)" d="M 127.432146 288.430125 
L 128.438118 288.430125 
L 128.438118 273.272568 
L 127.432146 273.272568 
z
" style="fill:#1f77b4;"/>
   </g>
   <g id="patch_53">
    <path clip-path="url(#pd5a4fe1e59)" d="M 128.689611 288.430125 
L 129.695583 288.430125 
L 129.695583 273.933574 
L 128.689611 273.933574 
z
" style="fill:#1f77b4;"/>
   </g>
   <g id="patch_54">
    <path clip-path="url(#pd5a4fe1e59)" d="M 129.947076 288.430125 
L 130.953048 288.430125 
L 130.953048 274.480614 
L 129.947076 274.480614 
z
" style="fill:#1f77b4;"/>
   </g>
   <g id="patch_55">
    <path clip-path="url(#pd5a4fe1e59)" d="M 131.20454 288.430125 
L 132.210512 288.430125 
L 132.210512 275.232793 
L 131.20454 275.232793 
z
" style="fill:#1f77b4;"/>
   </g>
   <g id="patch_56">
    <path clip-path="url(#pd5a4fe1e59)" d="M 132.462005 288.430125 
L 133.467977 288.430125 
L 133.467977 275.871006 
L 132.462005 275.871006 
z
" style="fill:#1f77b4;"/>
   </g>
   <g id="patch_57">
    <path clip-path="url(#pd5a4fe1e59)" d="M 133.71947 288.430125 
L 134.725442 288.430125 
L 134.725442 276.987879 
L 133.71947 276.987879 
z
" style="fill:#1f77b4;"/>
   </g>
   <g id="patch_58">
    <path clip-path="url(#pd5a4fe1e59)" d="M 134.976935 288.430125 
L 135.982907 288.430125 
L 135.982907 277.648885 
L 134.976935 277.648885 
z
" style="fill:#1f77b4;"/>
   </g>
   <g id="patch_59">
    <path clip-path="url(#pd5a4fe1e59)" d="M 136.2344 288.430125 
L 137.240371 288.430125 
L 137.240371 277.967992 
L 136.2344 277.967992 
z
" style="fill:#1f77b4;"/>
   </g>
   <g id="patch_60">
    <path clip-path="url(#pd5a4fe1e59)" d="M 137.491864 288.430125 
L 138.497836 288.430125 
L 138.497836 278.241511 
L 137.491864 278.241511 
z
" style="fill:#1f77b4;"/>
   </g>
   <g id="patch_61">
    <path clip-path="url(#pd5a4fe1e59)" d="M 138.749329 288.430125 
L 139.755301 288.430125 
L 139.755301 278.469445 
L 138.749329 278.469445 
z
" style="fill:#1f77b4;"/>
   </g>
   <g id="patch_62">
    <path clip-path="url(#pd5a4fe1e59)" d="M 140.006794 288.430125 
L 141.012766 288.430125 
L 141.012766 279.016484 
L 140.006794 279.016484 
z
" style="fill:#1f77b4;"/>
   </g>
   <g id="patch_63">
    <path clip-path="url(#pd5a4fe1e59)" d="M 141.264259 288.430125 
L 142.270231 288.430125 
L 142.270231 279.768664 
L 141.264259 279.768664 
z
" style="fill:#1f77b4;"/>
   </g>
   <g id="patch_64">
    <path clip-path="url(#pd5a4fe1e59)" d="M 142.521724 288.430125 
L 143.527695 288.430125 
L 143.527695 280.247323 
L 142.521724 280.247323 
z
" style="fill:#1f77b4;"/>
   </g>
   <g id="patch_65">
    <path clip-path="url(#pd5a4fe1e59)" d="M 143.779188 288.430125 
L 144.78516 288.430125 
L 144.78516 280.725983 
L 143.779188 280.725983 
z
" style="fill:#1f77b4;"/>
   </g>
   <g id="patch_66">
    <path clip-path="url(#pd5a4fe1e59)" d="M 145.036653 288.430125 
L 146.042625 288.430125 
L 146.042625 281.295816 
L 145.036653 281.295816 
z
" style="fill:#1f77b4;"/>
   </g>
   <g id="patch_67">
    <path clip-path="url(#pd5a4fe1e59)" d="M 146.294118 288.430125 
L 147.30009 288.430125 
L 147.30009 281.432576 
L 146.294118 281.432576 
z
" style="fill:#1f77b4;"/>
   </g>
   <g id="patch_68">
    <path clip-path="url(#pd5a4fe1e59)" d="M 147.551583 288.430125 
L 148.557555 288.430125 
L 148.557555 281.409783 
L 147.551583 281.409783 
z
" style="fill:#1f77b4;"/>
   </g>
   <g id="patch_69">
    <path clip-path="url(#pd5a4fe1e59)" d="M 148.809048 288.430125 
L 149.815019 288.430125 
L 149.815019 282.230342 
L 148.809048 282.230342 
z
" style="fill:#1f77b4;"/>
   </g>
   <g id="patch_70">
    <path clip-path="url(#pd5a4fe1e59)" d="M 150.066512 288.430125 
L 151.072484 288.430125 
L 151.072484 282.731795 
L 150.066512 282.731795 
z
" style="fill:#1f77b4;"/>
   </g>
   <g id="patch_71">
    <path clip-path="url(#pd5a4fe1e59)" d="M 151.323977 288.430125 
L 152.329949 288.430125 
L 152.329949 283.324422 
L 151.323977 283.324422 
z
" style="fill:#1f77b4;"/>
   </g>
   <g id="patch_72">
    <path clip-path="url(#pd5a4fe1e59)" d="M 152.581442 288.430125 
L 153.587414 288.430125 
L 153.587414 283.552355 
L 152.581442 283.552355 
z
" style="fill:#1f77b4;"/>
   </g>
   <g id="patch_73">
    <path clip-path="url(#pd5a4fe1e59)" d="M 153.838907 288.430125 
L 154.844879 288.430125 
L 154.844879 284.008221 
L 153.838907 284.008221 
z
" style="fill:#1f77b4;"/>
   </g>
   <g id="patch_74">
    <path clip-path="url(#pd5a4fe1e59)" d="M 155.096371 288.430125 
L 156.102343 288.430125 
L 156.102343 284.258948 
L 155.096371 284.258948 
z
" style="fill:#1f77b4;"/>
   </g>
   <g id="patch_75">
    <path clip-path="url(#pd5a4fe1e59)" d="M 156.353836 288.430125 
L 157.359808 288.430125 
L 157.359808 284.350121 
L 156.353836 284.350121 
z
" style="fill:#1f77b4;"/>
   </g>
   <g id="patch_76">
    <path clip-path="url(#pd5a4fe1e59)" d="M 157.611301 288.430125 
L 158.617273 288.430125 
L 158.617273 284.532467 
L 157.611301 284.532467 
z
" style="fill:#1f77b4;"/>
   </g>
   <g id="patch_77">
    <path clip-path="url(#pd5a4fe1e59)" d="M 158.868766 288.430125 
L 159.874738 288.430125 
L 159.874738 284.851574 
L 158.868766 284.851574 
z
" style="fill:#1f77b4;"/>
   </g>
   <g id="patch_78">
    <path clip-path="url(#pd5a4fe1e59)" d="M 160.126231 288.430125 
L 161.132202 288.430125 
L 161.132202 284.919954 
L 160.126231 284.919954 
z
" style="fill:#1f77b4;"/>
   </g>
   <g id="patch_79">
    <path clip-path="url(#pd5a4fe1e59)" d="M 161.383695 288.430125 
L 162.389667 288.430125 
L 162.389667 285.30744 
L 161.383695 285.30744 
z
" style="fill:#1f77b4;"/>
   </g>
   <g id="patch_80">
    <path clip-path="url(#pd5a4fe1e59)" d="M 162.64116 288.430125 
L 163.647132 288.430125 
L 163.647132 285.535373 
L 162.64116 285.535373 
z
" style="fill:#1f77b4;"/>
   </g>
   <g id="patch_81">
    <path clip-path="url(#pd5a4fe1e59)" d="M 163.898625 288.430125 
L 164.904597 288.430125 
L 164.904597 285.64934 
L 163.898625 285.64934 
z
" style="fill:#1f77b4;"/>
   </g>
   <g id="patch_82">
    <path clip-path="url(#pd5a4fe1e59)" d="M 165.15609 288.430125 
L 166.162062 288.430125 
L 166.162062 285.71772 
L 165.15609 285.71772 
z
" style="fill:#1f77b4;"/>
   </g>
   <g id="patch_83">
    <path clip-path="url(#pd5a4fe1e59)" d="M 166.413555 288.430125 
L 167.419526 288.430125 
L 167.419526 285.71772 
L 166.413555 285.71772 
z
" style="fill:#1f77b4;"/>
   </g>
   <g id="patch_84">
    <path clip-path="url(#pd5a4fe1e59)" d="M 167.671019 288.430125 
L 168.676991 288.430125 
L 168.676991 285.900067 
L 167.671019 285.900067 
z
" style="fill:#1f77b4;"/>
   </g>
   <g id="patch_85">
    <path clip-path="url(#pd5a4fe1e59)" d="M 168.928484 288.430125 
L 169.934456 288.430125 
L 169.934456 286.150793 
L 168.928484 286.150793 
z
" style="fill:#1f77b4;"/>
   </g>
   <g id="patch_86">
    <path clip-path="url(#pd5a4fe1e59)" d="M 170.185949 288.430125 
L 171.191921 288.430125 
L 171.191921 286.173586 
L 170.185949 286.173586 
z
" style="fill:#1f77b4;"/>
   </g>
   <g id="patch_87">
    <path clip-path="url(#pd5a4fe1e59)" d="M 171.443414 288.430125 
L 172.449386 288.430125 
L 172.449386 286.241966 
L 171.443414 286.241966 
z
" style="fill:#1f77b4;"/>
   </g>
   <g id="patch_88">
    <path clip-path="url(#pd5a4fe1e59)" d="M 172.700879 288.430125 
L 173.70685 288.430125 
L 173.70685 286.26476 
L 172.700879 286.26476 
z
" style="fill:#1f77b4;"/>
   </g>
   <g id="patch_89">
    <path clip-path="url(#pd5a4fe1e59)" d="M 173.958343 288.430125 
L 174.964315 288.430125 
L 174.964315 286.310346 
L 173.958343 286.310346 
z
" style="fill:#1f77b4;"/>
   </g>
   <g id="patch_90">
    <path clip-path="url(#pd5a4fe1e59)" d="M 175.215808 288.430125 
L 176.22178 288.430125 
L 176.22178 286.33314 
L 175.215808 286.33314 
z
" style="fill:#1f77b4;"/>
   </g>
   <g id="patch_91">
    <path clip-path="url(#pd5a4fe1e59)" d="M 176.473273 288.430125 
L 177.479245 288.430125 
L 177.479245 286.173586 
L 176.473273 286.173586 
z
" style="fill:#1f77b4;"/>
   </g>
   <g id="patch_92">
    <path clip-path="url(#pd5a4fe1e59)" d="M 177.730738 288.430125 
L 178.73671 288.430125 
L 178.73671 286.128 
L 177.730738 286.128 
z
" style="fill:#1f77b4;"/>
   </g>
   <g id="patch_93">
    <path clip-path="url(#pd5a4fe1e59)" d="M 178.988202 288.430125 
L 179.994174 288.430125 
L 179.994174 286.26476 
L 178.988202 286.26476 
z
" style="fill:#1f77b4;"/>
   </g>
   <g id="patch_94">
    <path clip-path="url(#pd5a4fe1e59)" d="M 180.245667 288.430125 
L 181.251639 288.430125 
L 181.251639 286.26476 
L 180.245667 286.26476 
z
" style="fill:#1f77b4;"/>
   </g>
   <g id="patch_95">
    <path clip-path="url(#pd5a4fe1e59)" d="M 181.503132 288.430125 
L 182.509104 288.430125 
L 182.509104 286.287553 
L 181.503132 286.287553 
z
" style="fill:#1f77b4;"/>
   </g>
   <g id="patch_96">
    <path clip-path="url(#pd5a4fe1e59)" d="M 182.760597 288.430125 
L 183.766569 288.430125 
L 183.766569 286.310346 
L 182.760597 286.310346 
z
" style="fill:#1f77b4;"/>
   </g>
   <g id="patch_97">
    <path clip-path="url(#pd5a4fe1e59)" d="M 184.018062 288.430125 
L 185.024033 288.430125 
L 185.024033 286.447106 
L 184.018062 286.447106 
z
" style="fill:#1f77b4;"/>
   </g>
   <g id="patch_98">
    <path clip-path="url(#pd5a4fe1e59)" d="M 185.275526 288.430125 
L 186.281498 288.430125 
L 186.281498 286.492693 
L 185.275526 286.492693 
z
" style="fill:#1f77b4;"/>
   </g>
   <g id="patch_99">
    <path clip-path="url(#pd5a4fe1e59)" d="M 186.532991 288.430125 
L 187.538963 288.430125 
L 187.538963 286.720626 
L 186.532991 286.720626 
z
" style="fill:#1f77b4;"/>
   </g>
   <g id="patch_100">
    <path clip-path="url(#pd5a4fe1e59)" d="M 187.790456 288.430125 
L 188.796428 288.430125 
L 188.796428 286.697833 
L 187.790456 286.697833 
z
" style="fill:#1f77b4;"/>
   </g>
   <g id="patch_101">
    <path clip-path="url(#pd5a4fe1e59)" d="M 189.047921 288.430125 
L 190.053893 288.430125 
L 190.053893 286.720626 
L 189.047921 286.720626 
z
" style="fill:#1f77b4;"/>
   </g>
   <g id="patch_102">
    <path clip-path="url(#pd5a4fe1e59)" d="M 190.305386 288.430125 
L 191.311357 288.430125 
L 191.311357 286.40152 
L 190.305386 286.40152 
z
" style="fill:#1f77b4;"/>
   </g>
   <g id="patch_103">
    <path clip-path="url(#pd5a4fe1e59)" d="M 191.56285 288.430125 
L 192.568822 288.430125 
L 192.568822 286.40152 
L 191.56285 286.40152 
z
" style="fill:#1f77b4;"/>
   </g>
   <g id="patch_104">
    <path clip-path="url(#pd5a4fe1e59)" d="M 192.820315 288.430125 
L 193.826287 288.430125 
L 193.826287 286.378726 
L 192.820315 286.378726 
z
" style="fill:#1f77b4;"/>
   </g>
   <g id="patch_105">
    <path clip-path="url(#pd5a4fe1e59)" d="M 194.07778 288.430125 
L 195.083752 288.430125 
L 195.083752 286.447106 
L 194.07778 286.447106 
z
" style="fill:#1f77b4;"/>
   </g>
   <g id="patch_106">
    <path clip-path="url(#pd5a4fe1e59)" d="M 195.335245 288.430125 
L 196.341217 288.430125 
L 196.341217 286.492693 
L 195.335245 286.492693 
z
" style="fill:#1f77b4;"/>
   </g>
   <g id="patch_107">
    <path clip-path="url(#pd5a4fe1e59)" d="M 196.59271 288.430125 
L 197.598681 288.430125 
L 197.598681 286.447106 
L 196.59271 286.447106 
z
" style="fill:#1f77b4;"/>
   </g>
   <g id="patch_108">
    <path clip-path="url(#pd5a4fe1e59)" d="M 197.850174 288.430125 
L 198.856146 288.430125 
L 198.856146 286.492693 
L 197.850174 286.492693 
z
" style="fill:#1f77b4;"/>
   </g>
   <g id="patch_109">
    <path clip-path="url(#pd5a4fe1e59)" d="M 199.107639 288.430125 
L 200.113611 288.430125 
L 200.113611 286.492693 
L 199.107639 286.492693 
z
" style="fill:#1f77b4;"/>
   </g>
   <g id="patch_110">
    <path clip-path="url(#pd5a4fe1e59)" d="M 200.365104 288.430125 
L 201.371076 288.430125 
L 201.371076 286.515486 
L 200.365104 286.515486 
z
" style="fill:#1f77b4;"/>
   </g>
   <g id="patch_111">
    <path clip-path="url(#pd5a4fe1e59)" d="M 201.622569 288.430125 
L 202.62854 288.430125 
L 202.62854 286.53828 
L 201.622569 286.53828 
z
" style="fill:#1f77b4;"/>
   </g>
   <g id="patch_112">
    <path clip-path="url(#pd5a4fe1e59)" d="M 202.880033 288.430125 
L 203.886005 288.430125 
L 203.886005 286.515486 
L 202.880033 286.515486 
z
" style="fill:#1f77b4;"/>
   </g>
   <g id="patch_113">
    <path clip-path="url(#pd5a4fe1e59)" d="M 204.137498 288.430125 
L 205.14347 288.430125 
L 205.14347 286.53828 
L 204.137498 286.53828 
z
" style="fill:#1f77b4;"/>
   </g>
   <g id="patch_114">
    <path clip-path="url(#pd5a4fe1e59)" d="M 205.394963 288.430125 
L 206.400935 288.430125 
L 206.400935 286.4699 
L 205.394963 286.4699 
z
" style="fill:#1f77b4;"/>
   </g>
   <g id="patch_115">
    <path clip-path="url(#pd5a4fe1e59)" d="M 206.652428 288.430125 
L 207.6584 288.430125 
L 207.6584 286.492693 
L 206.652428 286.492693 
z
" style="fill:#1f77b4;"/>
   </g>
   <g id="patch_116">
    <path clip-path="url(#pd5a4fe1e59)" d="M 207.909893 288.430125 
L 208.915864 288.430125 
L 208.915864 286.53828 
L 207.909893 286.53828 
z
" style="fill:#1f77b4;"/>
   </g>
   <g id="patch_117">
    <path clip-path="url(#pd5a4fe1e59)" d="M 209.167357 288.430125 
L 210.173329 288.430125 
L 210.173329 286.53828 
L 209.167357 286.53828 
z
" style="fill:#1f77b4;"/>
   </g>
   <g id="patch_118">
    <path clip-path="url(#pd5a4fe1e59)" d="M 210.424822 288.430125 
L 211.430794 288.430125 
L 211.430794 286.53828 
L 210.424822 286.53828 
z
" style="fill:#1f77b4;"/>
   </g>
   <g id="patch_119">
    <path clip-path="url(#pd5a4fe1e59)" d="M 211.682287 288.430125 
L 212.688259 288.430125 
L 212.688259 286.515486 
L 211.682287 286.515486 
z
" style="fill:#1f77b4;"/>
   </g>
   <g id="patch_120">
    <path clip-path="url(#pd5a4fe1e59)" d="M 212.939752 288.430125 
L 213.945724 288.430125 
L 213.945724 286.4699 
L 212.939752 286.4699 
z
" style="fill:#1f77b4;"/>
   </g>
   <g id="patch_121">
    <path clip-path="url(#pd5a4fe1e59)" d="M 214.197217 288.430125 
L 215.203188 288.430125 
L 215.203188 286.561073 
L 214.197217 286.561073 
z
" style="fill:#1f77b4;"/>
   </g>
   <g id="patch_122">
    <path clip-path="url(#pd5a4fe1e59)" d="M 215.454681 288.430125 
L 216.460653 288.430125 
L 216.460653 286.424313 
L 215.454681 286.424313 
z
" style="fill:#1f77b4;"/>
   </g>
   <g id="patch_123">
    <path clip-path="url(#pd5a4fe1e59)" d="M 216.712146 288.430125 
L 217.718118 288.430125 
L 217.718118 286.26476 
L 216.712146 286.26476 
z
" style="fill:#1f77b4;"/>
   </g>
   <g id="patch_124">
    <path clip-path="url(#pd5a4fe1e59)" d="M 217.969611 288.430125 
L 218.975583 288.430125 
L 218.975583 286.26476 
L 217.969611 286.26476 
z
" style="fill:#1f77b4;"/>
   </g>
   <g id="patch_125">
    <path clip-path="url(#pd5a4fe1e59)" d="M 219.227076 288.430125 
L 220.233048 288.430125 
L 220.233048 286.219173 
L 219.227076 286.219173 
z
" style="fill:#1f77b4;"/>
   </g>
   <g id="patch_126">
    <path clip-path="url(#pd5a4fe1e59)" d="M 220.48454 288.430125 
L 221.490512 288.430125 
L 221.490512 286.150793 
L 220.48454 286.150793 
z
" style="fill:#1f77b4;"/>
   </g>
   <g id="patch_127">
    <path clip-path="url(#pd5a4fe1e59)" d="M 221.742005 288.430125 
L 222.747977 288.430125 
L 222.747977 286.128 
L 221.742005 286.128 
z
" style="fill:#1f77b4;"/>
   </g>
   <g id="patch_128">
    <path clip-path="url(#pd5a4fe1e59)" d="M 222.99947 288.430125 
L 224.005442 288.430125 
L 224.005442 286.128 
L 222.99947 286.128 
z
" style="fill:#1f77b4;"/>
   </g>
   <g id="patch_129">
    <path clip-path="url(#pd5a4fe1e59)" d="M 224.256935 288.430125 
L 225.262907 288.430125 
L 225.262907 286.128 
L 224.256935 286.128 
z
" style="fill:#1f77b4;"/>
   </g>
   <g id="patch_130">
    <path clip-path="url(#pd5a4fe1e59)" d="M 225.5144 288.430125 
L 226.520371 288.430125 
L 226.520371 286.150793 
L 225.5144 286.150793 
z
" style="fill:#1f77b4;"/>
   </g>
   <g id="patch_131">
    <path clip-path="url(#pd5a4fe1e59)" d="M 226.771864 288.430125 
L 227.777836 288.430125 
L 227.777836 286.173586 
L 226.771864 286.173586 
z
" style="fill:#1f77b4;"/>
   </g>
   <g id="patch_132">
    <path clip-path="url(#pd5a4fe1e59)" d="M 228.029329 288.430125 
L 229.035301 288.430125 
L 229.035301 286.241966 
L 228.029329 286.241966 
z
" style="fill:#1f77b4;"/>
   </g>
   <g id="patch_133">
    <path clip-path="url(#pd5a4fe1e59)" d="M 229.286794 288.430125 
L 230.292766 288.430125 
L 230.292766 286.40152 
L 229.286794 286.40152 
z
" style="fill:#1f77b4;"/>
   </g>
   <g id="patch_134">
    <path clip-path="url(#pd5a4fe1e59)" d="M 230.544259 288.430125 
L 231.550231 288.430125 
L 231.550231 286.53828 
L 230.544259 286.53828 
z
" style="fill:#1f77b4;"/>
   </g>
   <g id="patch_135">
    <path clip-path="url(#pd5a4fe1e59)" d="M 231.801724 288.430125 
L 232.807695 288.430125 
L 232.807695 286.447106 
L 231.801724 286.447106 
z
" style="fill:#1f77b4;"/>
   </g>
   <g id="patch_136">
    <path clip-path="url(#pd5a4fe1e59)" d="M 233.059188 288.430125 
L 234.06516 288.430125 
L 234.06516 286.33314 
L 233.059188 286.33314 
z
" style="fill:#1f77b4;"/>
   </g>
   <g id="patch_137">
    <path clip-path="url(#pd5a4fe1e59)" d="M 234.316653 288.430125 
L 235.322625 288.430125 
L 235.322625 286.287553 
L 234.316653 286.287553 
z
" style="fill:#1f77b4;"/>
   </g>
   <g id="patch_138">
    <path clip-path="url(#pd5a4fe1e59)" d="M 235.574118 288.430125 
L 236.58009 288.430125 
L 236.58009 286.492693 
L 235.574118 286.492693 
z
" style="fill:#1f77b4;"/>
   </g>
   <g id="patch_139">
    <path clip-path="url(#pd5a4fe1e59)" d="M 236.831583 288.430125 
L 237.837555 288.430125 
L 237.837555 286.4699 
L 236.831583 286.4699 
z
" style="fill:#1f77b4;"/>
   </g>
   <g id="patch_140">
    <path clip-path="url(#pd5a4fe1e59)" d="M 238.089048 288.430125 
L 239.095019 288.430125 
L 239.095019 286.33314 
L 238.089048 286.33314 
z
" style="fill:#1f77b4;"/>
   </g>
   <g id="patch_141">
    <path clip-path="url(#pd5a4fe1e59)" d="M 239.346512 288.430125 
L 240.352484 288.430125 
L 240.352484 286.105206 
L 239.346512 286.105206 
z
" style="fill:#1f77b4;"/>
   </g>
   <g id="patch_142">
    <path clip-path="url(#pd5a4fe1e59)" d="M 240.603977 288.430125 
L 241.609949 288.430125 
L 241.609949 285.99124 
L 240.603977 285.99124 
z
" style="fill:#1f77b4;"/>
   </g>
   <g id="patch_143">
    <path clip-path="url(#pd5a4fe1e59)" d="M 241.861442 288.430125 
L 242.867414 288.430125 
L 242.867414 285.99124 
L 241.861442 285.99124 
z
" style="fill:#1f77b4;"/>
   </g>
   <g id="patch_144">
    <path clip-path="url(#pd5a4fe1e59)" d="M 243.118907 288.430125 
L 244.124879 288.430125 
L 244.124879 285.877273 
L 243.118907 285.877273 
z
" style="fill:#1f77b4;"/>
   </g>
   <g id="patch_145">
    <path clip-path="url(#pd5a4fe1e59)" d="M 244.376371 288.430125 
L 245.382343 288.430125 
L 245.382343 285.71772 
L 244.376371 285.71772 
z
" style="fill:#1f77b4;"/>
   </g>
   <g id="patch_146">
    <path clip-path="url(#pd5a4fe1e59)" d="M 245.633836 288.430125 
L 246.639808 288.430125 
L 246.639808 285.7861 
L 245.633836 285.7861 
z
" style="fill:#1f77b4;"/>
   </g>
   <g id="patch_147">
    <path clip-path="url(#pd5a4fe1e59)" d="M 246.891301 288.430125 
L 247.897273 288.430125 
L 247.897273 285.603753 
L 246.891301 285.603753 
z
" style="fill:#1f77b4;"/>
   </g>
   <g id="patch_148">
    <path clip-path="url(#pd5a4fe1e59)" d="M 248.148766 288.430125 
L 249.154738 288.430125 
L 249.154738 285.51258 
L 248.148766 285.51258 
z
" style="fill:#1f77b4;"/>
   </g>
   <g id="patch_149">
    <path clip-path="url(#pd5a4fe1e59)" d="M 249.406231 288.430125 
L 250.412202 288.430125 
L 250.412202 285.626547 
L 249.406231 285.626547 
z
" style="fill:#1f77b4;"/>
   </g>
   <g id="patch_150">
    <path clip-path="url(#pd5a4fe1e59)" d="M 250.663695 288.430125 
L 251.669667 288.430125 
L 251.669667 285.51258 
L 250.663695 285.51258 
z
" style="fill:#1f77b4;"/>
   </g>
   <g id="patch_151">
    <path clip-path="url(#pd5a4fe1e59)" d="M 251.92116 288.430125 
L 252.927132 288.430125 
L 252.927132 285.51258 
L 251.92116 285.51258 
z
" style="fill:#1f77b4;"/>
   </g>
   <g id="patch_152">
    <path clip-path="url(#pd5a4fe1e59)" d="M 253.178625 288.430125 
L 254.184597 288.430125 
L 254.184597 285.51258 
L 253.178625 285.51258 
z
" style="fill:#1f77b4;"/>
   </g>
   <g id="patch_153">
    <path clip-path="url(#pd5a4fe1e59)" d="M 254.43609 288.430125 
L 255.442062 288.430125 
L 255.442062 285.466994 
L 254.43609 285.466994 
z
" style="fill:#1f77b4;"/>
   </g>
   <g id="patch_154">
    <path clip-path="url(#pd5a4fe1e59)" d="M 255.693555 288.430125 
L 256.699526 288.430125 
L 256.699526 285.64934 
L 255.693555 285.64934 
z
" style="fill:#1f77b4;"/>
   </g>
   <g id="patch_155">
    <path clip-path="url(#pd5a4fe1e59)" d="M 256.951019 288.430125 
L 257.956991 288.430125 
L 257.956991 285.626547 
L 256.951019 285.626547 
z
" style="fill:#1f77b4;"/>
   </g>
   <g id="patch_156">
    <path clip-path="url(#pd5a4fe1e59)" d="M 258.208484 288.430125 
L 259.214456 288.430125 
L 259.214456 285.558167 
L 258.208484 285.558167 
z
" style="fill:#1f77b4;"/>
   </g>
   <g id="patch_157">
    <path clip-path="url(#pd5a4fe1e59)" d="M 259.465949 288.430125 
L 260.471921 288.430125 
L 260.471921 285.489787 
L 259.465949 285.489787 
z
" style="fill:#1f77b4;"/>
   </g>
   <g id="patch_158">
    <path clip-path="url(#pd5a4fe1e59)" d="M 260.723414 288.430125 
L 261.729386 288.430125 
L 261.729386 285.535373 
L 260.723414 285.535373 
z
" style="fill:#1f77b4;"/>
   </g>
   <g id="patch_159">
    <path clip-path="url(#pd5a4fe1e59)" d="M 261.980879 288.430125 
L 262.98685 288.430125 
L 262.98685 285.535373 
L 261.980879 285.535373 
z
" style="fill:#1f77b4;"/>
   </g>
   <g id="patch_160">
    <path clip-path="url(#pd5a4fe1e59)" d="M 263.238343 288.430125 
L 264.244315 288.430125 
L 264.244315 285.64934 
L 263.238343 285.64934 
z
" style="fill:#1f77b4;"/>
   </g>
   <g id="patch_161">
    <path clip-path="url(#pd5a4fe1e59)" d="M 264.495808 288.430125 
L 265.50178 288.430125 
L 265.50178 285.261854 
L 264.495808 285.261854 
z
" style="fill:#1f77b4;"/>
   </g>
   <g id="patch_162">
    <path clip-path="url(#pd5a4fe1e59)" d="M 265.753273 288.430125 
L 266.759245 288.430125 
L 266.759245 285.216267 
L 265.753273 285.216267 
z
" style="fill:#1f77b4;"/>
   </g>
   <g id="patch_163">
    <path clip-path="url(#pd5a4fe1e59)" d="M 267.010738 288.430125 
L 268.01671 288.430125 
L 268.01671 285.193474 
L 267.010738 285.193474 
z
" style="fill:#1f77b4;"/>
   </g>
   <g id="patch_164">
    <path clip-path="url(#pd5a4fe1e59)" d="M 268.268202 288.430125 
L 269.274174 288.430125 
L 269.274174 284.851574 
L 268.268202 284.851574 
z
" style="fill:#1f77b4;"/>
   </g>
   <g id="patch_165">
    <path clip-path="url(#pd5a4fe1e59)" d="M 269.525667 288.430125 
L 270.531639 288.430125 
L 270.531639 284.509674 
L 269.525667 284.509674 
z
" style="fill:#1f77b4;"/>
   </g>
   <g id="patch_166">
    <path clip-path="url(#pd5a4fe1e59)" d="M 270.783132 288.430125 
L 271.789104 288.430125 
L 271.789104 284.350121 
L 270.783132 284.350121 
z
" style="fill:#1f77b4;"/>
   </g>
   <g id="patch_167">
    <path clip-path="url(#pd5a4fe1e59)" d="M 272.040597 288.430125 
L 273.046569 288.430125 
L 273.046569 284.372914 
L 272.040597 284.372914 
z
" style="fill:#1f77b4;"/>
   </g>
   <g id="patch_168">
    <path clip-path="url(#pd5a4fe1e59)" d="M 273.298062 288.430125 
L 274.304033 288.430125 
L 274.304033 284.213361 
L 273.298062 284.213361 
z
" style="fill:#1f77b4;"/>
   </g>
   <g id="patch_169">
    <path clip-path="url(#pd5a4fe1e59)" d="M 274.555526 288.430125 
L 275.561498 288.430125 
L 275.561498 284.122188 
L 274.555526 284.122188 
z
" style="fill:#1f77b4;"/>
   </g>
   <g id="patch_170">
    <path clip-path="url(#pd5a4fe1e59)" d="M 275.812991 288.430125 
L 276.818963 288.430125 
L 276.818963 284.099394 
L 275.812991 284.099394 
z
" style="fill:#1f77b4;"/>
   </g>
   <g id="patch_171">
    <path clip-path="url(#pd5a4fe1e59)" d="M 277.070456 288.430125 
L 278.076428 288.430125 
L 278.076428 284.099394 
L 277.070456 284.099394 
z
" style="fill:#1f77b4;"/>
   </g>
   <g id="patch_172">
    <path clip-path="url(#pd5a4fe1e59)" d="M 278.327921 288.430125 
L 279.333893 288.430125 
L 279.333893 284.099394 
L 278.327921 284.099394 
z
" style="fill:#1f77b4;"/>
   </g>
   <g id="patch_173">
    <path clip-path="url(#pd5a4fe1e59)" d="M 279.585386 288.430125 
L 280.591357 288.430125 
L 280.591357 283.848668 
L 279.585386 283.848668 
z
" style="fill:#1f77b4;"/>
   </g>
   <g id="patch_174">
    <path clip-path="url(#pd5a4fe1e59)" d="M 280.84285 288.430125 
L 281.848822 288.430125 
L 281.848822 283.734701 
L 280.84285 283.734701 
z
" style="fill:#1f77b4;"/>
   </g>
   <g id="patch_175">
    <path clip-path="url(#pd5a4fe1e59)" d="M 282.100315 288.430125 
L 283.106287 288.430125 
L 283.106287 283.734701 
L 282.100315 283.734701 
z
" style="fill:#1f77b4;"/>
   </g>
   <g id="patch_176">
    <path clip-path="url(#pd5a4fe1e59)" d="M 283.35778 288.430125 
L 284.363752 288.430125 
L 284.363752 283.666321 
L 283.35778 283.666321 
z
" style="fill:#1f77b4;"/>
   </g>
   <g id="patch_177">
    <path clip-path="url(#pd5a4fe1e59)" d="M 284.615245 288.430125 
L 285.621217 288.430125 
L 285.621217 283.461181 
L 284.615245 283.461181 
z
" style="fill:#1f77b4;"/>
   </g>
   <g id="patch_178">
    <path clip-path="url(#pd5a4fe1e59)" d="M 285.87271 288.430125 
L 286.878681 288.430125 
L 286.878681 283.461181 
L 285.87271 283.461181 
z
" style="fill:#1f77b4;"/>
   </g>
   <g id="patch_179">
    <path clip-path="url(#pd5a4fe1e59)" d="M 287.130174 288.430125 
L 288.136146 288.430125 
L 288.136146 283.529561 
L 287.130174 283.529561 
z
" style="fill:#1f77b4;"/>
   </g>
   <g id="patch_180">
    <path clip-path="url(#pd5a4fe1e59)" d="M 288.387639 288.430125 
L 289.393611 288.430125 
L 289.393611 283.461181 
L 288.387639 283.461181 
z
" style="fill:#1f77b4;"/>
   </g>
   <g id="patch_181">
    <path clip-path="url(#pd5a4fe1e59)" d="M 289.645104 288.430125 
L 290.651076 288.430125 
L 290.651076 283.347215 
L 289.645104 283.347215 
z
" style="fill:#1f77b4;"/>
   </g>
   <g id="patch_182">
    <path clip-path="url(#pd5a4fe1e59)" d="M 290.902569 288.430125 
L 291.90854 288.430125 
L 291.90854 282.982522 
L 290.902569 282.982522 
z
" style="fill:#1f77b4;"/>
   </g>
   <g id="patch_183">
    <path clip-path="url(#pd5a4fe1e59)" d="M 292.160033 288.430125 
L 293.166005 288.430125 
L 293.166005 282.617829 
L 292.160033 282.617829 
z
" style="fill:#1f77b4;"/>
   </g>
   <g id="patch_184">
    <path clip-path="url(#pd5a4fe1e59)" d="M 293.417498 288.430125 
L 294.42347 288.430125 
L 294.42347 282.367102 
L 293.417498 282.367102 
z
" style="fill:#1f77b4;"/>
   </g>
   <g id="patch_185">
    <path clip-path="url(#pd5a4fe1e59)" d="M 294.674963 288.430125 
L 295.680935 288.430125 
L 295.680935 281.683303 
L 294.674963 281.683303 
z
" style="fill:#1f77b4;"/>
   </g>
   <g id="patch_186">
    <path clip-path="url(#pd5a4fe1e59)" d="M 295.932428 288.430125 
L 296.9384 288.430125 
L 296.9384 281.523749 
L 295.932428 281.523749 
z
" style="fill:#1f77b4;"/>
   </g>
   <g id="patch_187">
    <path clip-path="url(#pd5a4fe1e59)" d="M 297.189893 288.430125 
L 298.195864 288.430125 
L 298.195864 281.136263 
L 297.189893 281.136263 
z
" style="fill:#1f77b4;"/>
   </g>
   <g id="patch_188">
    <path clip-path="url(#pd5a4fe1e59)" d="M 298.447357 288.430125 
L 299.453329 288.430125 
L 299.453329 281.067883 
L 298.447357 281.067883 
z
" style="fill:#1f77b4;"/>
   </g>
   <g id="patch_189">
    <path clip-path="url(#pd5a4fe1e59)" d="M 299.704822 288.430125 
L 300.710794 288.430125 
L 300.710794 280.999503 
L 299.704822 280.999503 
z
" style="fill:#1f77b4;"/>
   </g>
   <g id="patch_190">
    <path clip-path="url(#pd5a4fe1e59)" d="M 300.962287 288.430125 
L 301.968259 288.430125 
L 301.968259 279.654697 
L 300.962287 279.654697 
z
" style="fill:#1f77b4;"/>
   </g>
   <g id="patch_191">
    <path clip-path="url(#pd5a4fe1e59)" d="M 302.219752 288.430125 
L 303.225724 288.430125 
L 303.225724 279.198831 
L 302.219752 279.198831 
z
" style="fill:#1f77b4;"/>
   </g>
   <g id="patch_192">
    <path clip-path="url(#pd5a4fe1e59)" d="M 303.477217 288.430125 
L 304.483188 288.430125 
L 304.483188 278.811344 
L 303.477217 278.811344 
z
" style="fill:#1f77b4;"/>
   </g>
   <g id="patch_193">
    <path clip-path="url(#pd5a4fe1e59)" d="M 304.734681 288.430125 
L 305.740653 288.430125 
L 305.740653 278.401065 
L 304.734681 278.401065 
z
" style="fill:#1f77b4;"/>
   </g>
   <g id="patch_194">
    <path clip-path="url(#pd5a4fe1e59)" d="M 305.992146 288.430125 
L 306.998118 288.430125 
L 306.998118 278.218718 
L 305.992146 278.218718 
z
" style="fill:#1f77b4;"/>
   </g>
   <g id="patch_195">
    <path clip-path="url(#pd5a4fe1e59)" d="M 307.249611 288.430125 
L 308.255583 288.430125 
L 308.255583 277.740058 
L 307.249611 277.740058 
z
" style="fill:#1f77b4;"/>
   </g>
   <g id="patch_196">
    <path clip-path="url(#pd5a4fe1e59)" d="M 308.507076 288.430125 
L 309.513048 288.430125 
L 309.513048 277.375365 
L 308.507076 277.375365 
z
" style="fill:#1f77b4;"/>
   </g>
   <g id="patch_197">
    <path clip-path="url(#pd5a4fe1e59)" d="M 309.76454 288.430125 
L 310.770512 288.430125 
L 310.770512 276.714359 
L 309.76454 276.714359 
z
" style="fill:#1f77b4;"/>
   </g>
   <g id="patch_198">
    <path clip-path="url(#pd5a4fe1e59)" d="M 311.022005 288.430125 
L 312.027977 288.430125 
L 312.027977 276.121733 
L 311.022005 276.121733 
z
" style="fill:#1f77b4;"/>
   </g>
   <g id="patch_199">
    <path clip-path="url(#pd5a4fe1e59)" d="M 312.27947 288.430125 
L 313.285442 288.430125 
L 313.285442 275.962179 
L 312.27947 275.962179 
z
" style="fill:#1f77b4;"/>
   </g>
   <g id="patch_200">
    <path clip-path="url(#pd5a4fe1e59)" d="M 313.536935 288.430125 
L 314.542907 288.430125 
L 314.542907 275.665866 
L 313.536935 275.665866 
z
" style="fill:#1f77b4;"/>
   </g>
   <g id="patch_201">
    <path clip-path="url(#pd5a4fe1e59)" d="M 314.7944 288.430125 
L 315.800371 288.430125 
L 315.800371 275.529106 
L 314.7944 275.529106 
z
" style="fill:#1f77b4;"/>
   </g>
   <g id="patch_202">
    <path clip-path="url(#pd5a4fe1e59)" d="M 316.051864 288.430125 
L 317.057836 288.430125 
L 317.057836 275.643073 
L 316.051864 275.643073 
z
" style="fill:#1f77b4;"/>
   </g>
   <g id="patch_203">
    <path clip-path="url(#pd5a4fe1e59)" d="M 317.309329 288.430125 
L 318.315301 288.430125 
L 318.315301 275.164413 
L 317.309329 275.164413 
z
" style="fill:#1f77b4;"/>
   </g>
   <g id="patch_204">
    <path clip-path="url(#pd5a4fe1e59)" d="M 318.566794 288.430125 
L 319.572766 288.430125 
L 319.572766 275.096033 
L 318.566794 275.096033 
z
" style="fill:#1f77b4;"/>
   </g>
   <g id="patch_205">
    <path clip-path="url(#pd5a4fe1e59)" d="M 319.824259 288.430125 
L 320.830231 288.430125 
L 320.830231 274.66296 
L 319.824259 274.66296 
z
" style="fill:#1f77b4;"/>
   </g>
   <g id="patch_206">
    <path clip-path="url(#pd5a4fe1e59)" d="M 321.081724 288.430125 
L 322.087695 288.430125 
L 322.087695 274.38944 
L 321.081724 274.38944 
z
" style="fill:#1f77b4;"/>
   </g>
   <g id="patch_207">
    <path clip-path="url(#pd5a4fe1e59)" d="M 322.339188 288.430125 
L 323.34516 288.430125 
L 323.34516 274.138714 
L 322.339188 274.138714 
z
" style="fill:#1f77b4;"/>
   </g>
   <g id="patch_208">
    <path clip-path="url(#pd5a4fe1e59)" d="M 323.596653 288.430125 
L 324.602625 288.430125 
L 324.602625 274.070334 
L 323.596653 274.070334 
z
" style="fill:#1f77b4;"/>
   </g>
   <g id="patch_209">
    <path clip-path="url(#pd5a4fe1e59)" d="M 324.854118 288.430125 
L 325.86009 288.430125 
L 325.86009 273.226981 
L 324.854118 273.226981 
z
" style="fill:#1f77b4;"/>
   </g>
   <g id="patch_210">
    <path clip-path="url(#pd5a4fe1e59)" d="M 326.111583 288.430125 
L 327.117555 288.430125 
L 327.117555 271.882175 
L 326.111583 271.882175 
z
" style="fill:#1f77b4;"/>
   </g>
   <g id="patch_211">
    <path clip-path="url(#pd5a4fe1e59)" d="M 327.369048 288.430125 
L 328.375019 288.430125 
L 328.375019 270.26385 
L 327.369048 270.26385 
z
" style="fill:#1f77b4;"/>
   </g>
   <g id="patch_212">
    <path clip-path="url(#pd5a4fe1e59)" d="M 328.626512 288.430125 
L 329.632484 288.430125 
L 329.632484 268.531557 
L 328.626512 268.531557 
z
" style="fill:#1f77b4;"/>
   </g>
   <g id="patch_213">
    <path clip-path="url(#pd5a4fe1e59)" d="M 329.883977 288.430125 
L 330.889949 288.430125 
L 330.889949 267.004405 
L 329.883977 267.004405 
z
" style="fill:#1f77b4;"/>
   </g>
   <g id="patch_214">
    <path clip-path="url(#pd5a4fe1e59)" d="M 331.141442 288.430125 
L 332.147414 288.430125 
L 332.147414 266.252226 
L 331.141442 266.252226 
z
" style="fill:#1f77b4;"/>
   </g>
   <g id="patch_215">
    <path clip-path="url(#pd5a4fe1e59)" d="M 332.398907 288.430125 
L 333.404879 288.430125 
L 333.404879 265.773566 
L 332.398907 265.773566 
z
" style="fill:#1f77b4;"/>
   </g>
   <g id="patch_216">
    <path clip-path="url(#pd5a4fe1e59)" d="M 333.656371 288.430125 
L 334.662343 288.430125 
L 334.662343 262.947194 
L 333.656371 262.947194 
z
" style="fill:#1f77b4;"/>
   </g>
   <g id="patch_217">
    <path clip-path="url(#pd5a4fe1e59)" d="M 334.913836 288.430125 
L 335.919808 288.430125 
L 335.919808 261.237695 
L 334.913836 261.237695 
z
" style="fill:#1f77b4;"/>
   </g>
   <g id="patch_218">
    <path clip-path="url(#pd5a4fe1e59)" d="M 336.171301 288.430125 
L 337.177273 288.430125 
L 337.177273 258.73043 
L 336.171301 258.73043 
z
" style="fill:#1f77b4;"/>
   </g>
   <g id="patch_219">
    <path clip-path="url(#pd5a4fe1e59)" d="M 337.428766 288.430125 
L 338.434738 288.430125 
L 338.434738 255.516572 
L 337.428766 255.516572 
z
" style="fill:#1f77b4;"/>
   </g>
   <g id="patch_220">
    <path clip-path="url(#pd5a4fe1e59)" d="M 338.686231 288.430125 
L 339.692202 288.430125 
L 339.692202 251.801261 
L 338.686231 251.801261 
z
" style="fill:#1f77b4;"/>
   </g>
   <g id="patch_221">
    <path clip-path="url(#pd5a4fe1e59)" d="M 339.943695 288.430125 
L 340.949667 288.430125 
L 340.949667 249.909416 
L 339.943695 249.909416 
z
" style="fill:#1f77b4;"/>
   </g>
   <g id="patch_222">
    <path clip-path="url(#pd5a4fe1e59)" d="M 341.20116 288.430125 
L 342.207132 288.430125 
L 342.207132 245.236785 
L 341.20116 245.236785 
z
" style="fill:#1f77b4;"/>
   </g>
   <g id="patch_223">
    <path clip-path="url(#pd5a4fe1e59)" d="M 342.458625 288.430125 
L 343.464597 288.430125 
L 343.464597 241.020021 
L 342.458625 241.020021 
z
" style="fill:#1f77b4;"/>
   </g>
   <g id="patch_224">
    <path clip-path="url(#pd5a4fe1e59)" d="M 343.71609 288.430125 
L 344.722062 288.430125 
L 344.722062 235.595211 
L 343.71609 235.595211 
z
" style="fill:#1f77b4;"/>
   </g>
   <g id="patch_225">
    <path clip-path="url(#pd5a4fe1e59)" d="M 344.973555 288.430125 
L 345.979526 288.430125 
L 345.979526 229.577775 
L 344.973555 229.577775 
z
" style="fill:#1f77b4;"/>
   </g>
   <g id="patch_226">
    <path clip-path="url(#pd5a4fe1e59)" d="M 346.231019 288.430125 
L 347.236991 288.430125 
L 347.236991 223.332406 
L 346.231019 223.332406 
z
" style="fill:#1f77b4;"/>
   </g>
   <g id="patch_227">
    <path clip-path="url(#pd5a4fe1e59)" d="M 347.488484 288.430125 
L 348.494456 288.430125 
L 348.494456 215.787817 
L 347.488484 215.787817 
z
" style="fill:#1f77b4;"/>
   </g>
   <g id="patch_228">
    <path clip-path="url(#pd5a4fe1e59)" d="M 348.745949 288.430125 
L 349.751921 288.430125 
L 349.751921 208.630715 
L 348.745949 208.630715 
z
" style="fill:#1f77b4;"/>
   </g>
   <g id="patch_229">
    <path clip-path="url(#pd5a4fe1e59)" d="M 350.003414 288.430125 
L 351.009386 288.430125 
L 351.009386 203.228698 
L 350.003414 203.228698 
z
" style="fill:#1f77b4;"/>
   </g>
   <g id="patch_230">
    <path clip-path="url(#pd5a4fe1e59)" d="M 351.260879 288.430125 
L 352.26685 288.430125 
L 352.26685 199.057521 
L 351.260879 199.057521 
z
" style="fill:#1f77b4;"/>
   </g>
   <g id="patch_231">
    <path clip-path="url(#pd5a4fe1e59)" d="M 352.518343 288.430125 
L 353.524315 288.430125 
L 353.524315 192.310699 
L 352.518343 192.310699 
z
" style="fill:#1f77b4;"/>
   </g>
   <g id="patch_232">
    <path clip-path="url(#pd5a4fe1e59)" d="M 353.775808 288.430125 
L 354.78178 288.430125 
L 354.78178 184.469797 
L 353.775808 184.469797 
z
" style="fill:#1f77b4;"/>
   </g>
   <g id="patch_233">
    <path clip-path="url(#pd5a4fe1e59)" d="M 355.033273 288.430125 
L 356.039245 288.430125 
L 356.039245 172.184198 
L 355.033273 172.184198 
z
" style="fill:#1f77b4;"/>
   </g>
   <g id="patch_234">
    <path clip-path="url(#pd5a4fe1e59)" d="M 356.290738 288.430125 
L 357.29671 288.430125 
L 357.29671 160.080945 
L 356.290738 160.080945 
z
" style="fill:#1f77b4;"/>
   </g>
   <g id="patch_235">
    <path clip-path="url(#pd5a4fe1e59)" d="M 357.548202 288.430125 
L 358.554174 288.430125 
L 358.554174 150.302612 
L 357.548202 150.302612 
z
" style="fill:#1f77b4;"/>
   </g>
   <g id="patch_236">
    <path clip-path="url(#pd5a4fe1e59)" d="M 358.805667 288.430125 
L 359.811639 288.430125 
L 359.811639 139.088299 
L 358.805667 139.088299 
z
" style="fill:#1f77b4;"/>
   </g>
   <g id="patch_237">
    <path clip-path="url(#pd5a4fe1e59)" d="M 360.063132 288.430125 
L 361.069104 288.430125 
L 361.069104 133.526729 
L 360.063132 133.526729 
z
" style="fill:#1f77b4;"/>
   </g>
   <g id="patch_238">
    <path clip-path="url(#pd5a4fe1e59)" d="M 361.320597 288.430125 
L 362.326569 288.430125 
L 362.326569 116.386153 
L 361.320597 116.386153 
z
" style="fill:#1f77b4;"/>
   </g>
   <g id="patch_239">
    <path clip-path="url(#pd5a4fe1e59)" d="M 362.578062 288.430125 
L 363.584033 288.430125 
L 363.584033 127.851192 
L 362.578062 127.851192 
z
" style="fill:#1f77b4;"/>
   </g>
   <g id="patch_240">
    <path clip-path="url(#pd5a4fe1e59)" d="M 363.835526 288.430125 
L 364.841498 288.430125 
L 364.841498 117.936098 
L 363.835526 117.936098 
z
" style="fill:#1f77b4;"/>
   </g>
   <g id="patch_241">
    <path clip-path="url(#pd5a4fe1e59)" d="M 365.092991 288.430125 
L 366.098963 288.430125 
L 366.098963 106.379886 
L 365.092991 106.379886 
z
" style="fill:#1f77b4;"/>
   </g>
   <g id="patch_242">
    <path clip-path="url(#pd5a4fe1e59)" d="M 366.350456 288.430125 
L 367.356428 288.430125 
L 367.356428 96.647138 
L 366.350456 96.647138 
z
" style="fill:#1f77b4;"/>
   </g>
   <g id="patch_243">
    <path clip-path="url(#pd5a4fe1e59)" d="M 367.607921 288.430125 
L 368.613893 288.430125 
L 368.613893 90.971602 
L 367.607921 90.971602 
z
" style="fill:#1f77b4;"/>
   </g>
   <g id="patch_244">
    <path clip-path="url(#pd5a4fe1e59)" d="M 368.865386 288.430125 
L 369.871357 288.430125 
L 369.871357 85.911485 
L 368.865386 85.911485 
z
" style="fill:#1f77b4;"/>
   </g>
   <g id="patch_245">
    <path clip-path="url(#pd5a4fe1e59)" d="M 370.12285 288.430125 
L 371.128822 288.430125 
L 371.128822 77.933824 
L 370.12285 77.933824 
z
" style="fill:#1f77b4;"/>
   </g>
   <g id="patch_246">
    <path clip-path="url(#pd5a4fe1e59)" d="M 371.380315 288.430125 
L 372.386287 288.430125 
L 372.386287 67.015824 
L 371.380315 67.015824 
z
" style="fill:#1f77b4;"/>
   </g>
   <g id="patch_247">
    <path clip-path="url(#pd5a4fe1e59)" d="M 372.63778 288.430125 
L 373.643752 288.430125 
L 373.643752 59.152129 
L 372.63778 59.152129 
z
" style="fill:#1f77b4;"/>
   </g>
   <g id="patch_248">
    <path clip-path="url(#pd5a4fe1e59)" d="M 373.895245 288.430125 
L 374.901217 288.430125 
L 374.901217 53.886872 
L 373.895245 53.886872 
z
" style="fill:#1f77b4;"/>
   </g>
   <g id="patch_249">
    <path clip-path="url(#pd5a4fe1e59)" d="M 375.15271 288.430125 
L 376.158681 288.430125 
L 376.158681 47.550329 
L 375.15271 47.550329 
z
" style="fill:#1f77b4;"/>
   </g>
   <g id="patch_250">
    <path clip-path="url(#pd5a4fe1e59)" d="M 376.410174 288.430125 
L 377.416146 288.430125 
L 377.416146 44.518818 
L 376.410174 44.518818 
z
" style="fill:#1f77b4;"/>
   </g>
   <g id="patch_251">
    <path clip-path="url(#pd5a4fe1e59)" d="M 377.667639 288.430125 
L 378.673611 288.430125 
L 378.673611 39.960154 
L 377.667639 39.960154 
z
" style="fill:#1f77b4;"/>
   </g>
   <g id="patch_252">
    <path clip-path="url(#pd5a4fe1e59)" d="M 378.925104 288.430125 
L 379.931076 288.430125 
L 379.931076 33.053778 
L 378.925104 33.053778 
z
" style="fill:#1f77b4;"/>
   </g>
   <g id="patch_253">
    <path clip-path="url(#pd5a4fe1e59)" d="M 380.182569 288.430125 
L 381.18854 288.430125 
L 381.18854 26.056229 
L 380.182569 26.056229 
z
" style="fill:#1f77b4;"/>
   </g>
   <g id="patch_254">
    <path clip-path="url(#pd5a4fe1e59)" d="M 381.440033 288.430125 
L 382.446005 288.430125 
L 382.446005 22.318125 
L 381.440033 22.318125 
z
" style="fill:#1f77b4;"/>
   </g>
   <g id="patch_255">
    <path clip-path="url(#pd5a4fe1e59)" d="M 382.697498 288.430125 
L 383.70347 288.430125 
L 383.70347 23.480584 
L 382.697498 23.480584 
z
" style="fill:#1f77b4;"/>
   </g>
   <g id="patch_256">
    <path clip-path="url(#pd5a4fe1e59)" d="M 383.954963 288.430125 
L 384.960935 288.430125 
L 384.960935 23.685724 
L 383.954963 23.685724 
z
" style="fill:#1f77b4;"/>
   </g>
   <g id="patch_257">
    <path clip-path="url(#pd5a4fe1e59)" d="M 385.212428 288.430125 
L 386.2184 288.430125 
L 386.2184 22.751198 
L 385.212428 22.751198 
z
" style="fill:#1f77b4;"/>
   </g>
   <g id="patch_258">
    <path clip-path="url(#pd5a4fe1e59)" d="M 386.469893 288.430125 
L 387.475864 288.430125 
L 387.475864 24.027624 
L 386.469893 24.027624 
z
" style="fill:#1f77b4;"/>
   </g>
   <g id="patch_259">
    <path clip-path="url(#pd5a4fe1e59)" d="M 387.727357 288.430125 
L 388.733329 288.430125 
L 388.733329 27.446622 
L 387.727357 27.446622 
z
" style="fill:#1f77b4;"/>
   </g>
   <g id="patch_260">
    <path clip-path="url(#pd5a4fe1e59)" d="M 388.984822 288.430125 
L 389.990794 288.430125 
L 389.990794 26.694442 
L 388.984822 26.694442 
z
" style="fill:#1f77b4;"/>
   </g>
   <g id="patch_261">
    <path clip-path="url(#pd5a4fe1e59)" d="M 390.242287 288.430125 
L 391.248259 288.430125 
L 391.248259 24.984943 
L 390.242287 24.984943 
z
" style="fill:#1f77b4;"/>
   </g>
   <g id="patch_262">
    <path clip-path="url(#pd5a4fe1e59)" d="M 391.499752 288.430125 
L 392.505724 288.430125 
L 392.505724 30.022267 
L 391.499752 30.022267 
z
" style="fill:#1f77b4;"/>
   </g>
   <g id="patch_263">
    <path clip-path="url(#pd5a4fe1e59)" d="M 392.757217 288.430125 
L 393.763188 288.430125 
L 393.763188 30.364167 
L 392.757217 30.364167 
z
" style="fill:#1f77b4;"/>
   </g>
   <g id="patch_264">
    <path clip-path="url(#pd5a4fe1e59)" d="M 394.014681 288.430125 
L 395.020653 288.430125 
L 395.020653 30.911206 
L 394.014681 30.911206 
z
" style="fill:#1f77b4;"/>
   </g>
   <g id="patch_265">
    <path clip-path="url(#pd5a4fe1e59)" d="M 395.272146 288.430125 
L 396.278118 288.430125 
L 396.278118 30.204613 
L 395.272146 30.204613 
z
" style="fill:#1f77b4;"/>
   </g>
   <g id="patch_266">
    <path clip-path="url(#pd5a4fe1e59)" d="M 396.529611 288.430125 
L 397.535583 288.430125 
L 397.535583 32.803052 
L 396.529611 32.803052 
z
" style="fill:#1f77b4;"/>
   </g>
   <g id="patch_267">
    <path clip-path="url(#pd5a4fe1e59)" d="M 397.787076 288.430125 
L 398.793048 288.430125 
L 398.793048 33.464058 
L 397.787076 33.464058 
z
" style="fill:#1f77b4;"/>
   </g>
   <g id="patch_268">
    <path clip-path="url(#pd5a4fe1e59)" d="M 399.04454 288.430125 
L 400.050512 288.430125 
L 400.050512 35.150764 
L 399.04454 35.150764 
z
" style="fill:#1f77b4;"/>
   </g>
   <g id="patch_269">
    <path clip-path="url(#pd5a4fe1e59)" d="M 400.302005 288.430125 
L 401.307977 288.430125 
L 401.307977 39.504288 
L 400.302005 39.504288 
z
" style="fill:#1f77b4;"/>
   </g>
   <g id="patch_270">
    <path clip-path="url(#pd5a4fe1e59)" d="M 401.55947 288.430125 
L 402.565442 288.430125 
L 402.565442 39.595461 
L 401.55947 39.595461 
z
" style="fill:#1f77b4;"/>
   </g>
   <g id="patch_271">
    <path clip-path="url(#pd5a4fe1e59)" d="M 402.816935 288.430125 
L 403.822907 288.430125 
L 403.822907 40.370434 
L 402.816935 40.370434 
z
" style="fill:#1f77b4;"/>
   </g>
   <g id="patch_272">
    <path clip-path="url(#pd5a4fe1e59)" d="M 404.0744 288.430125 
L 405.080371 288.430125 
L 405.080371 40.34764 
L 404.0744 40.34764 
z
" style="fill:#1f77b4;"/>
   </g>
   <g id="patch_273">
    <path clip-path="url(#pd5a4fe1e59)" d="M 405.331864 288.430125 
L 406.337836 288.430125 
L 406.337836 44.062951 
L 405.331864 44.062951 
z
" style="fill:#1f77b4;"/>
   </g>
   <g id="patch_274">
    <path clip-path="url(#pd5a4fe1e59)" d="M 406.589329 288.430125 
L 407.595301 288.430125 
L 407.595301 45.658484 
L 406.589329 45.658484 
z
" style="fill:#1f77b4;"/>
   </g>
   <g id="patch_275">
    <path clip-path="url(#pd5a4fe1e59)" d="M 407.846794 288.430125 
L 408.852766 288.430125 
L 408.852766 46.31949 
L 407.846794 46.31949 
z
" style="fill:#1f77b4;"/>
   </g>
   <g id="patch_276">
    <path clip-path="url(#pd5a4fe1e59)" d="M 409.104259 288.430125 
L 410.110231 288.430125 
L 410.110231 46.843736 
L 409.104259 46.843736 
z
" style="fill:#1f77b4;"/>
   </g>
   <g id="patch_277">
    <path clip-path="url(#pd5a4fe1e59)" d="M 410.361724 288.430125 
L 411.367695 288.430125 
L 411.367695 46.52463 
L 410.361724 46.52463 
z
" style="fill:#1f77b4;"/>
   </g>
   <g id="patch_278">
    <path clip-path="url(#pd5a4fe1e59)" d="M 411.619188 288.430125 
L 412.62516 288.430125 
L 412.62516 46.137143 
L 411.619188 46.137143 
z
" style="fill:#1f77b4;"/>
   </g>
   <g id="patch_279">
    <path clip-path="url(#pd5a4fe1e59)" d="M 412.876653 288.430125 
L 413.882625 288.430125 
L 413.882625 45.590104 
L 412.876653 45.590104 
z
" style="fill:#1f77b4;"/>
   </g>
   <g id="patch_280">
    <path clip-path="url(#pd5a4fe1e59)" d="M 414.134118 288.430125 
L 415.14009 288.430125 
L 415.14009 44.268091 
L 414.134118 44.268091 
z
" style="fill:#1f77b4;"/>
   </g>
   <g id="patch_281">
    <path clip-path="url(#pd5a4fe1e59)" d="M 415.391583 288.430125 
L 416.397555 288.430125 
L 416.397555 43.561498 
L 415.391583 43.561498 
z
" style="fill:#1f77b4;"/>
   </g>
   <g id="patch_282">
    <path clip-path="url(#pd5a4fe1e59)" d="M 416.649048 288.430125 
L 417.655019 288.430125 
L 417.655019 42.034346 
L 416.649048 42.034346 
z
" style="fill:#1f77b4;"/>
   </g>
   <g id="patch_283">
    <path clip-path="url(#pd5a4fe1e59)" d="M 417.906512 288.430125 
L 418.912484 288.430125 
L 418.912484 74.400859 
L 417.906512 74.400859 
z
" style="fill:#1f77b4;"/>
   </g>
   <g id="patch_284">
    <path clip-path="url(#pd5a4fe1e59)" d="M 419.163977 288.430125 
L 420.169949 288.430125 
L 420.169949 41.464513 
L 419.163977 41.464513 
z
" style="fill:#1f77b4;"/>
   </g>
   <g id="patch_285">
    <path clip-path="url(#pd5a4fe1e59)" d="M 420.421442 288.430125 
L 421.427414 288.430125 
L 421.427414 41.213786 
L 420.421442 41.213786 
z
" style="fill:#1f77b4;"/>
   </g>
   <g id="patch_286">
    <path clip-path="url(#pd5a4fe1e59)" d="M 421.678907 288.430125 
L 422.684879 288.430125 
L 422.684879 44.336471 
L 421.678907 44.336471 
z
" style="fill:#1f77b4;"/>
   </g>
   <g id="matplotlib.axis_1">
    <g id="xtick_1">
     <g id="line2d_1">
      <defs>
       <path d="M 0 0 
L 0 3.5 
" id="m4938623452" style="stroke:#000000;stroke-width:0.8;"/>
      </defs>
      <g>
       <use style="stroke:#000000;stroke-width:0.8;" x="87.696259" xlink:href="#m4938623452" y="288.430125"/>
      </g>
     </g>
     <g id="text_1">
      <!-- 2020-04 -->
      <g transform="translate(90.455634 337.212937)rotate(-90)scale(0.1 -0.1)">
       <defs>
        <path d="M 19.1875 8.296875 
L 53.609375 8.296875 
L 53.609375 0 
L 7.328125 0 
L 7.328125 8.296875 
Q 12.9375 14.109375 22.625 23.890625 
Q 32.328125 33.6875 34.8125 36.53125 
Q 39.546875 41.84375 41.421875 45.53125 
Q 43.3125 49.21875 43.3125 52.78125 
Q 43.3125 58.59375 39.234375 62.25 
Q 35.15625 65.921875 28.609375 65.921875 
Q 23.96875 65.921875 18.8125 64.3125 
Q 13.671875 62.703125 7.8125 59.421875 
L 7.8125 69.390625 
Q 13.765625 71.78125 18.9375 73 
Q 24.125 74.21875 28.421875 74.21875 
Q 39.75 74.21875 46.484375 68.546875 
Q 53.21875 62.890625 53.21875 53.421875 
Q 53.21875 48.921875 51.53125 44.890625 
Q 49.859375 40.875 45.40625 35.40625 
Q 44.1875 33.984375 37.640625 27.21875 
Q 31.109375 20.453125 19.1875 8.296875 
z
" id="DejaVuSans-50"/>
        <path d="M 31.78125 66.40625 
Q 24.171875 66.40625 20.328125 58.90625 
Q 16.5 51.421875 16.5 36.375 
Q 16.5 21.390625 20.328125 13.890625 
Q 24.171875 6.390625 31.78125 6.390625 
Q 39.453125 6.390625 43.28125 13.890625 
Q 47.125 21.390625 47.125 36.375 
Q 47.125 51.421875 43.28125 58.90625 
Q 39.453125 66.40625 31.78125 66.40625 
z
M 31.78125 74.21875 
Q 44.046875 74.21875 50.515625 64.515625 
Q 56.984375 54.828125 56.984375 36.375 
Q 56.984375 17.96875 50.515625 8.265625 
Q 44.046875 -1.421875 31.78125 -1.421875 
Q 19.53125 -1.421875 13.0625 8.265625 
Q 6.59375 17.96875 6.59375 36.375 
Q 6.59375 54.828125 13.0625 64.515625 
Q 19.53125 74.21875 31.78125 74.21875 
z
" id="DejaVuSans-48"/>
        <path d="M 4.890625 31.390625 
L 31.203125 31.390625 
L 31.203125 23.390625 
L 4.890625 23.390625 
z
" id="DejaVuSans-45"/>
        <path d="M 37.796875 64.3125 
L 12.890625 25.390625 
L 37.796875 25.390625 
z
M 35.203125 72.90625 
L 47.609375 72.90625 
L 47.609375 25.390625 
L 58.015625 25.390625 
L 58.015625 17.1875 
L 47.609375 17.1875 
L 47.609375 0 
L 37.796875 0 
L 37.796875 17.1875 
L 4.890625 17.1875 
L 4.890625 26.703125 
z
" id="DejaVuSans-52"/>
       </defs>
       <use xlink:href="#DejaVuSans-50"/>
       <use x="63.623047" xlink:href="#DejaVuSans-48"/>
       <use x="127.246094" xlink:href="#DejaVuSans-50"/>
       <use x="190.869141" xlink:href="#DejaVuSans-48"/>
       <use x="254.492188" xlink:href="#DejaVuSans-45"/>
       <use x="290.576172" xlink:href="#DejaVuSans-48"/>
       <use x="354.199219" xlink:href="#DejaVuSans-52"/>
      </g>
     </g>
    </g>
    <g id="xtick_2">
     <g id="line2d_2">
      <g>
       <use style="stroke:#000000;stroke-width:0.8;" x="125.420202" xlink:href="#m4938623452" y="288.430125"/>
      </g>
     </g>
     <g id="text_2">
      <!-- 2020-05 -->
      <g transform="translate(128.179577 337.212937)rotate(-90)scale(0.1 -0.1)">
       <defs>
        <path d="M 10.796875 72.90625 
L 49.515625 72.90625 
L 49.515625 64.59375 
L 19.828125 64.59375 
L 19.828125 46.734375 
Q 21.96875 47.46875 24.109375 47.828125 
Q 26.265625 48.1875 28.421875 48.1875 
Q 40.625 48.1875 47.75 41.5 
Q 54.890625 34.8125 54.890625 23.390625 
Q 54.890625 11.625 47.5625 5.09375 
Q 40.234375 -1.421875 26.90625 -1.421875 
Q 22.3125 -1.421875 17.546875 -0.640625 
Q 12.796875 0.140625 7.71875 1.703125 
L 7.71875 11.625 
Q 12.109375 9.234375 16.796875 8.0625 
Q 21.484375 6.890625 26.703125 6.890625 
Q 35.15625 6.890625 40.078125 11.328125 
Q 45.015625 15.765625 45.015625 23.390625 
Q 45.015625 31 40.078125 35.4375 
Q 35.15625 39.890625 26.703125 39.890625 
Q 22.75 39.890625 18.8125 39.015625 
Q 14.890625 38.140625 10.796875 36.28125 
z
" id="DejaVuSans-53"/>
       </defs>
       <use xlink:href="#DejaVuSans-50"/>
       <use x="63.623047" xlink:href="#DejaVuSans-48"/>
       <use x="127.246094" xlink:href="#DejaVuSans-50"/>
       <use x="190.869141" xlink:href="#DejaVuSans-48"/>
       <use x="254.492188" xlink:href="#DejaVuSans-45"/>
       <use x="290.576172" xlink:href="#DejaVuSans-48"/>
       <use x="354.199219" xlink:href="#DejaVuSans-53"/>
      </g>
     </g>
    </g>
    <g id="xtick_3">
     <g id="line2d_3">
      <g>
       <use style="stroke:#000000;stroke-width:0.8;" x="164.401611" xlink:href="#m4938623452" y="288.430125"/>
      </g>
     </g>
     <g id="text_3">
      <!-- 2020-06 -->
      <g transform="translate(167.160986 337.212937)rotate(-90)scale(0.1 -0.1)">
       <defs>
        <path d="M 33.015625 40.375 
Q 26.375 40.375 22.484375 35.828125 
Q 18.609375 31.296875 18.609375 23.390625 
Q 18.609375 15.53125 22.484375 10.953125 
Q 26.375 6.390625 33.015625 6.390625 
Q 39.65625 6.390625 43.53125 10.953125 
Q 47.40625 15.53125 47.40625 23.390625 
Q 47.40625 31.296875 43.53125 35.828125 
Q 39.65625 40.375 33.015625 40.375 
z
M 52.59375 71.296875 
L 52.59375 62.3125 
Q 48.875 64.0625 45.09375 64.984375 
Q 41.3125 65.921875 37.59375 65.921875 
Q 27.828125 65.921875 22.671875 59.328125 
Q 17.53125 52.734375 16.796875 39.40625 
Q 19.671875 43.65625 24.015625 45.921875 
Q 28.375 48.1875 33.59375 48.1875 
Q 44.578125 48.1875 50.953125 41.515625 
Q 57.328125 34.859375 57.328125 23.390625 
Q 57.328125 12.15625 50.6875 5.359375 
Q 44.046875 -1.421875 33.015625 -1.421875 
Q 20.359375 -1.421875 13.671875 8.265625 
Q 6.984375 17.96875 6.984375 36.375 
Q 6.984375 53.65625 15.1875 63.9375 
Q 23.390625 74.21875 37.203125 74.21875 
Q 40.921875 74.21875 44.703125 73.484375 
Q 48.484375 72.75 52.59375 71.296875 
z
" id="DejaVuSans-54"/>
       </defs>
       <use xlink:href="#DejaVuSans-50"/>
       <use x="63.623047" xlink:href="#DejaVuSans-48"/>
       <use x="127.246094" xlink:href="#DejaVuSans-50"/>
       <use x="190.869141" xlink:href="#DejaVuSans-48"/>
       <use x="254.492188" xlink:href="#DejaVuSans-45"/>
       <use x="290.576172" xlink:href="#DejaVuSans-48"/>
       <use x="354.199219" xlink:href="#DejaVuSans-54"/>
      </g>
     </g>
    </g>
    <g id="xtick_4">
     <g id="line2d_4">
      <g>
       <use style="stroke:#000000;stroke-width:0.8;" x="202.125555" xlink:href="#m4938623452" y="288.430125"/>
      </g>
     </g>
     <g id="text_4">
      <!-- 2020-07 -->
      <g transform="translate(204.88493 337.212937)rotate(-90)scale(0.1 -0.1)">
       <defs>
        <path d="M 8.203125 72.90625 
L 55.078125 72.90625 
L 55.078125 68.703125 
L 28.609375 0 
L 18.3125 0 
L 43.21875 64.59375 
L 8.203125 64.59375 
z
" id="DejaVuSans-55"/>
       </defs>
       <use xlink:href="#DejaVuSans-50"/>
       <use x="63.623047" xlink:href="#DejaVuSans-48"/>
       <use x="127.246094" xlink:href="#DejaVuSans-50"/>
       <use x="190.869141" xlink:href="#DejaVuSans-48"/>
       <use x="254.492188" xlink:href="#DejaVuSans-45"/>
       <use x="290.576172" xlink:href="#DejaVuSans-48"/>
       <use x="354.199219" xlink:href="#DejaVuSans-55"/>
      </g>
     </g>
    </g>
    <g id="xtick_5">
     <g id="line2d_5">
      <g>
       <use style="stroke:#000000;stroke-width:0.8;" x="241.106963" xlink:href="#m4938623452" y="288.430125"/>
      </g>
     </g>
     <g id="text_5">
      <!-- 2020-08 -->
      <g transform="translate(243.866338 337.212937)rotate(-90)scale(0.1 -0.1)">
       <defs>
        <path d="M 31.78125 34.625 
Q 24.75 34.625 20.71875 30.859375 
Q 16.703125 27.09375 16.703125 20.515625 
Q 16.703125 13.921875 20.71875 10.15625 
Q 24.75 6.390625 31.78125 6.390625 
Q 38.8125 6.390625 42.859375 10.171875 
Q 46.921875 13.96875 46.921875 20.515625 
Q 46.921875 27.09375 42.890625 30.859375 
Q 38.875 34.625 31.78125 34.625 
z
M 21.921875 38.8125 
Q 15.578125 40.375 12.03125 44.71875 
Q 8.5 49.078125 8.5 55.328125 
Q 8.5 64.0625 14.71875 69.140625 
Q 20.953125 74.21875 31.78125 74.21875 
Q 42.671875 74.21875 48.875 69.140625 
Q 55.078125 64.0625 55.078125 55.328125 
Q 55.078125 49.078125 51.53125 44.71875 
Q 48 40.375 41.703125 38.8125 
Q 48.828125 37.15625 52.796875 32.3125 
Q 56.78125 27.484375 56.78125 20.515625 
Q 56.78125 9.90625 50.3125 4.234375 
Q 43.84375 -1.421875 31.78125 -1.421875 
Q 19.734375 -1.421875 13.25 4.234375 
Q 6.78125 9.90625 6.78125 20.515625 
Q 6.78125 27.484375 10.78125 32.3125 
Q 14.796875 37.15625 21.921875 38.8125 
z
M 18.3125 54.390625 
Q 18.3125 48.734375 21.84375 45.5625 
Q 25.390625 42.390625 31.78125 42.390625 
Q 38.140625 42.390625 41.71875 45.5625 
Q 45.3125 48.734375 45.3125 54.390625 
Q 45.3125 60.0625 41.71875 63.234375 
Q 38.140625 66.40625 31.78125 66.40625 
Q 25.390625 66.40625 21.84375 63.234375 
Q 18.3125 60.0625 18.3125 54.390625 
z
" id="DejaVuSans-56"/>
       </defs>
       <use xlink:href="#DejaVuSans-50"/>
       <use x="63.623047" xlink:href="#DejaVuSans-48"/>
       <use x="127.246094" xlink:href="#DejaVuSans-50"/>
       <use x="190.869141" xlink:href="#DejaVuSans-48"/>
       <use x="254.492188" xlink:href="#DejaVuSans-45"/>
       <use x="290.576172" xlink:href="#DejaVuSans-48"/>
       <use x="354.199219" xlink:href="#DejaVuSans-56"/>
      </g>
     </g>
    </g>
    <g id="xtick_6">
     <g id="line2d_6">
      <g>
       <use style="stroke:#000000;stroke-width:0.8;" x="280.088371" xlink:href="#m4938623452" y="288.430125"/>
      </g>
     </g>
     <g id="text_6">
      <!-- 2020-09 -->
      <g transform="translate(282.847746 337.212937)rotate(-90)scale(0.1 -0.1)">
       <defs>
        <path d="M 10.984375 1.515625 
L 10.984375 10.5 
Q 14.703125 8.734375 18.5 7.8125 
Q 22.3125 6.890625 25.984375 6.890625 
Q 35.75 6.890625 40.890625 13.453125 
Q 46.046875 20.015625 46.78125 33.40625 
Q 43.953125 29.203125 39.59375 26.953125 
Q 35.25 24.703125 29.984375 24.703125 
Q 19.046875 24.703125 12.671875 31.3125 
Q 6.296875 37.9375 6.296875 49.421875 
Q 6.296875 60.640625 12.9375 67.421875 
Q 19.578125 74.21875 30.609375 74.21875 
Q 43.265625 74.21875 49.921875 64.515625 
Q 56.59375 54.828125 56.59375 36.375 
Q 56.59375 19.140625 48.40625 8.859375 
Q 40.234375 -1.421875 26.421875 -1.421875 
Q 22.703125 -1.421875 18.890625 -0.6875 
Q 15.09375 0.046875 10.984375 1.515625 
z
M 30.609375 32.421875 
Q 37.25 32.421875 41.125 36.953125 
Q 45.015625 41.5 45.015625 49.421875 
Q 45.015625 57.28125 41.125 61.84375 
Q 37.25 66.40625 30.609375 66.40625 
Q 23.96875 66.40625 20.09375 61.84375 
Q 16.21875 57.28125 16.21875 49.421875 
Q 16.21875 41.5 20.09375 36.953125 
Q 23.96875 32.421875 30.609375 32.421875 
z
" id="DejaVuSans-57"/>
       </defs>
       <use xlink:href="#DejaVuSans-50"/>
       <use x="63.623047" xlink:href="#DejaVuSans-48"/>
       <use x="127.246094" xlink:href="#DejaVuSans-50"/>
       <use x="190.869141" xlink:href="#DejaVuSans-48"/>
       <use x="254.492188" xlink:href="#DejaVuSans-45"/>
       <use x="290.576172" xlink:href="#DejaVuSans-48"/>
       <use x="354.199219" xlink:href="#DejaVuSans-57"/>
      </g>
     </g>
    </g>
    <g id="xtick_7">
     <g id="line2d_7">
      <g>
       <use style="stroke:#000000;stroke-width:0.8;" x="317.812315" xlink:href="#m4938623452" y="288.430125"/>
      </g>
     </g>
     <g id="text_7">
      <!-- 2020-10 -->
      <g transform="translate(320.57169 337.212937)rotate(-90)scale(0.1 -0.1)">
       <defs>
        <path d="M 12.40625 8.296875 
L 28.515625 8.296875 
L 28.515625 63.921875 
L 10.984375 60.40625 
L 10.984375 69.390625 
L 28.421875 72.90625 
L 38.28125 72.90625 
L 38.28125 8.296875 
L 54.390625 8.296875 
L 54.390625 0 
L 12.40625 0 
z
" id="DejaVuSans-49"/>
       </defs>
       <use xlink:href="#DejaVuSans-50"/>
       <use x="63.623047" xlink:href="#DejaVuSans-48"/>
       <use x="127.246094" xlink:href="#DejaVuSans-50"/>
       <use x="190.869141" xlink:href="#DejaVuSans-48"/>
       <use x="254.492188" xlink:href="#DejaVuSans-45"/>
       <use x="290.576172" xlink:href="#DejaVuSans-49"/>
       <use x="354.199219" xlink:href="#DejaVuSans-48"/>
      </g>
     </g>
    </g>
    <g id="xtick_8">
     <g id="line2d_8">
      <g>
       <use style="stroke:#000000;stroke-width:0.8;" x="356.793724" xlink:href="#m4938623452" y="288.430125"/>
      </g>
     </g>
     <g id="text_8">
      <!-- 2020-11 -->
      <g transform="translate(359.553099 337.212937)rotate(-90)scale(0.1 -0.1)">
       <use xlink:href="#DejaVuSans-50"/>
       <use x="63.623047" xlink:href="#DejaVuSans-48"/>
       <use x="127.246094" xlink:href="#DejaVuSans-50"/>
       <use x="190.869141" xlink:href="#DejaVuSans-48"/>
       <use x="254.492188" xlink:href="#DejaVuSans-45"/>
       <use x="290.576172" xlink:href="#DejaVuSans-49"/>
       <use x="354.199219" xlink:href="#DejaVuSans-49"/>
      </g>
     </g>
    </g>
    <g id="xtick_9">
     <g id="line2d_9">
      <g>
       <use style="stroke:#000000;stroke-width:0.8;" x="394.517667" xlink:href="#m4938623452" y="288.430125"/>
      </g>
     </g>
     <g id="text_9">
      <!-- 2020-12 -->
      <g transform="translate(397.277042 337.212937)rotate(-90)scale(0.1 -0.1)">
       <use xlink:href="#DejaVuSans-50"/>
       <use x="63.623047" xlink:href="#DejaVuSans-48"/>
       <use x="127.246094" xlink:href="#DejaVuSans-50"/>
       <use x="190.869141" xlink:href="#DejaVuSans-48"/>
       <use x="254.492188" xlink:href="#DejaVuSans-45"/>
       <use x="290.576172" xlink:href="#DejaVuSans-49"/>
       <use x="354.199219" xlink:href="#DejaVuSans-50"/>
      </g>
     </g>
    </g>
    <g id="text_10">
     <!-- date -->
     <g transform="translate(232.975625 354.811375)scale(0.1 -0.1)">
      <defs>
       <path d="M 45.40625 46.390625 
L 45.40625 75.984375 
L 54.390625 75.984375 
L 54.390625 0 
L 45.40625 0 
L 45.40625 8.203125 
Q 42.578125 3.328125 38.25 0.953125 
Q 33.9375 -1.421875 27.875 -1.421875 
Q 17.96875 -1.421875 11.734375 6.484375 
Q 5.515625 14.40625 5.515625 27.296875 
Q 5.515625 40.1875 11.734375 48.09375 
Q 17.96875 56 27.875 56 
Q 33.9375 56 38.25 53.625 
Q 42.578125 51.265625 45.40625 46.390625 
z
M 14.796875 27.296875 
Q 14.796875 17.390625 18.875 11.75 
Q 22.953125 6.109375 30.078125 6.109375 
Q 37.203125 6.109375 41.296875 11.75 
Q 45.40625 17.390625 45.40625 27.296875 
Q 45.40625 37.203125 41.296875 42.84375 
Q 37.203125 48.484375 30.078125 48.484375 
Q 22.953125 48.484375 18.875 42.84375 
Q 14.796875 37.203125 14.796875 27.296875 
z
" id="DejaVuSans-100"/>
       <path d="M 34.28125 27.484375 
Q 23.390625 27.484375 19.1875 25 
Q 14.984375 22.515625 14.984375 16.5 
Q 14.984375 11.71875 18.140625 8.90625 
Q 21.296875 6.109375 26.703125 6.109375 
Q 34.1875 6.109375 38.703125 11.40625 
Q 43.21875 16.703125 43.21875 25.484375 
L 43.21875 27.484375 
z
M 52.203125 31.203125 
L 52.203125 0 
L 43.21875 0 
L 43.21875 8.296875 
Q 40.140625 3.328125 35.546875 0.953125 
Q 30.953125 -1.421875 24.3125 -1.421875 
Q 15.921875 -1.421875 10.953125 3.296875 
Q 6 8.015625 6 15.921875 
Q 6 25.140625 12.171875 29.828125 
Q 18.359375 34.515625 30.609375 34.515625 
L 43.21875 34.515625 
L 43.21875 35.40625 
Q 43.21875 41.609375 39.140625 45 
Q 35.0625 48.390625 27.6875 48.390625 
Q 23 48.390625 18.546875 47.265625 
Q 14.109375 46.140625 10.015625 43.890625 
L 10.015625 52.203125 
Q 14.9375 54.109375 19.578125 55.046875 
Q 24.21875 56 28.609375 56 
Q 40.484375 56 46.34375 49.84375 
Q 52.203125 43.703125 52.203125 31.203125 
z
" id="DejaVuSans-97"/>
       <path d="M 18.3125 70.21875 
L 18.3125 54.6875 
L 36.8125 54.6875 
L 36.8125 47.703125 
L 18.3125 47.703125 
L 18.3125 18.015625 
Q 18.3125 11.328125 20.140625 9.421875 
Q 21.96875 7.515625 27.59375 7.515625 
L 36.8125 7.515625 
L 36.8125 0 
L 27.59375 0 
Q 17.1875 0 13.234375 3.875 
Q 9.28125 7.765625 9.28125 18.015625 
L 9.28125 47.703125 
L 2.6875 47.703125 
L 2.6875 54.6875 
L 9.28125 54.6875 
L 9.28125 70.21875 
z
" id="DejaVuSans-116"/>
       <path d="M 56.203125 29.59375 
L 56.203125 25.203125 
L 14.890625 25.203125 
Q 15.484375 15.921875 20.484375 11.0625 
Q 25.484375 6.203125 34.421875 6.203125 
Q 39.59375 6.203125 44.453125 7.46875 
Q 49.3125 8.734375 54.109375 11.28125 
L 54.109375 2.78125 
Q 49.265625 0.734375 44.1875 -0.34375 
Q 39.109375 -1.421875 33.890625 -1.421875 
Q 20.796875 -1.421875 13.15625 6.1875 
Q 5.515625 13.8125 5.515625 26.8125 
Q 5.515625 40.234375 12.765625 48.109375 
Q 20.015625 56 32.328125 56 
Q 43.359375 56 49.78125 48.890625 
Q 56.203125 41.796875 56.203125 29.59375 
z
M 47.21875 32.234375 
Q 47.125 39.59375 43.09375 43.984375 
Q 39.0625 48.390625 32.421875 48.390625 
Q 24.90625 48.390625 20.390625 44.140625 
Q 15.875 39.890625 15.1875 32.171875 
z
" id="DejaVuSans-101"/>
      </defs>
      <use xlink:href="#DejaVuSans-100"/>
      <use x="63.476562" xlink:href="#DejaVuSans-97"/>
      <use x="124.755859" xlink:href="#DejaVuSans-116"/>
      <use x="163.964844" xlink:href="#DejaVuSans-101"/>
     </g>
    </g>
   </g>
   <g id="matplotlib.axis_2">
    <g id="ytick_1">
     <g id="line2d_10">
      <defs>
       <path d="M 0 0 
L -3.5 0 
" id="m7a99a95726" style="stroke:#000000;stroke-width:0.8;"/>
      </defs>
      <g>
       <use style="stroke:#000000;stroke-width:0.8;" x="65.690625" xlink:href="#m7a99a95726" y="288.430125"/>
      </g>
     </g>
     <g id="text_11">
      <!-- 0 -->
      <g transform="translate(52.328125 292.229344)scale(0.1 -0.1)">
       <use xlink:href="#DejaVuSans-48"/>
      </g>
     </g>
    </g>
    <g id="ytick_2">
     <g id="line2d_11">
      <g>
       <use style="stroke:#000000;stroke-width:0.8;" x="65.690625" xlink:href="#m7a99a95726" y="242.843487"/>
      </g>
     </g>
     <g id="text_12">
      <!-- 2000 -->
      <g transform="translate(33.240625 246.642706)scale(0.1 -0.1)">
       <use xlink:href="#DejaVuSans-50"/>
       <use x="63.623047" xlink:href="#DejaVuSans-48"/>
       <use x="127.246094" xlink:href="#DejaVuSans-48"/>
       <use x="190.869141" xlink:href="#DejaVuSans-48"/>
      </g>
     </g>
    </g>
    <g id="ytick_3">
     <g id="line2d_12">
      <g>
       <use style="stroke:#000000;stroke-width:0.8;" x="65.690625" xlink:href="#m7a99a95726" y="197.256849"/>
      </g>
     </g>
     <g id="text_13">
      <!-- 4000 -->
      <g transform="translate(33.240625 201.056068)scale(0.1 -0.1)">
       <use xlink:href="#DejaVuSans-52"/>
       <use x="63.623047" xlink:href="#DejaVuSans-48"/>
       <use x="127.246094" xlink:href="#DejaVuSans-48"/>
       <use x="190.869141" xlink:href="#DejaVuSans-48"/>
      </g>
     </g>
    </g>
    <g id="ytick_4">
     <g id="line2d_13">
      <g>
       <use style="stroke:#000000;stroke-width:0.8;" x="65.690625" xlink:href="#m7a99a95726" y="151.670211"/>
      </g>
     </g>
     <g id="text_14">
      <!-- 6000 -->
      <g transform="translate(33.240625 155.469429)scale(0.1 -0.1)">
       <use xlink:href="#DejaVuSans-54"/>
       <use x="63.623047" xlink:href="#DejaVuSans-48"/>
       <use x="127.246094" xlink:href="#DejaVuSans-48"/>
       <use x="190.869141" xlink:href="#DejaVuSans-48"/>
      </g>
     </g>
    </g>
    <g id="ytick_5">
     <g id="line2d_14">
      <g>
       <use style="stroke:#000000;stroke-width:0.8;" x="65.690625" xlink:href="#m7a99a95726" y="106.083573"/>
      </g>
     </g>
     <g id="text_15">
      <!-- 8000 -->
      <g transform="translate(33.240625 109.882791)scale(0.1 -0.1)">
       <use xlink:href="#DejaVuSans-56"/>
       <use x="63.623047" xlink:href="#DejaVuSans-48"/>
       <use x="127.246094" xlink:href="#DejaVuSans-48"/>
       <use x="190.869141" xlink:href="#DejaVuSans-48"/>
      </g>
     </g>
    </g>
    <g id="ytick_6">
     <g id="line2d_15">
      <g>
       <use style="stroke:#000000;stroke-width:0.8;" x="65.690625" xlink:href="#m7a99a95726" y="60.496934"/>
      </g>
     </g>
     <g id="text_16">
      <!-- 10000 -->
      <g transform="translate(26.878125 64.296153)scale(0.1 -0.1)">
       <use xlink:href="#DejaVuSans-49"/>
       <use x="63.623047" xlink:href="#DejaVuSans-48"/>
       <use x="127.246094" xlink:href="#DejaVuSans-48"/>
       <use x="190.869141" xlink:href="#DejaVuSans-48"/>
       <use x="254.492188" xlink:href="#DejaVuSans-48"/>
      </g>
     </g>
    </g>
    <g id="text_17">
     <!-- number of active corona cases -->
     <g transform="translate(14.798438 232.405375)rotate(-90)scale(0.1 -0.1)">
      <defs>
       <path d="M 54.890625 33.015625 
L 54.890625 0 
L 45.90625 0 
L 45.90625 32.71875 
Q 45.90625 40.484375 42.875 44.328125 
Q 39.84375 48.1875 33.796875 48.1875 
Q 26.515625 48.1875 22.3125 43.546875 
Q 18.109375 38.921875 18.109375 30.90625 
L 18.109375 0 
L 9.078125 0 
L 9.078125 54.6875 
L 18.109375 54.6875 
L 18.109375 46.1875 
Q 21.34375 51.125 25.703125 53.5625 
Q 30.078125 56 35.796875 56 
Q 45.21875 56 50.046875 50.171875 
Q 54.890625 44.34375 54.890625 33.015625 
z
" id="DejaVuSans-110"/>
       <path d="M 8.5 21.578125 
L 8.5 54.6875 
L 17.484375 54.6875 
L 17.484375 21.921875 
Q 17.484375 14.15625 20.5 10.265625 
Q 23.53125 6.390625 29.59375 6.390625 
Q 36.859375 6.390625 41.078125 11.03125 
Q 45.3125 15.671875 45.3125 23.6875 
L 45.3125 54.6875 
L 54.296875 54.6875 
L 54.296875 0 
L 45.3125 0 
L 45.3125 8.40625 
Q 42.046875 3.421875 37.71875 1 
Q 33.40625 -1.421875 27.6875 -1.421875 
Q 18.265625 -1.421875 13.375 4.4375 
Q 8.5 10.296875 8.5 21.578125 
z
M 31.109375 56 
z
" id="DejaVuSans-117"/>
       <path d="M 52 44.1875 
Q 55.375 50.25 60.0625 53.125 
Q 64.75 56 71.09375 56 
Q 79.640625 56 84.28125 50.015625 
Q 88.921875 44.046875 88.921875 33.015625 
L 88.921875 0 
L 79.890625 0 
L 79.890625 32.71875 
Q 79.890625 40.578125 77.09375 44.375 
Q 74.3125 48.1875 68.609375 48.1875 
Q 61.625 48.1875 57.5625 43.546875 
Q 53.515625 38.921875 53.515625 30.90625 
L 53.515625 0 
L 44.484375 0 
L 44.484375 32.71875 
Q 44.484375 40.625 41.703125 44.40625 
Q 38.921875 48.1875 33.109375 48.1875 
Q 26.21875 48.1875 22.15625 43.53125 
Q 18.109375 38.875 18.109375 30.90625 
L 18.109375 0 
L 9.078125 0 
L 9.078125 54.6875 
L 18.109375 54.6875 
L 18.109375 46.1875 
Q 21.1875 51.21875 25.484375 53.609375 
Q 29.78125 56 35.6875 56 
Q 41.65625 56 45.828125 52.96875 
Q 50 49.953125 52 44.1875 
z
" id="DejaVuSans-109"/>
       <path d="M 48.6875 27.296875 
Q 48.6875 37.203125 44.609375 42.84375 
Q 40.53125 48.484375 33.40625 48.484375 
Q 26.265625 48.484375 22.1875 42.84375 
Q 18.109375 37.203125 18.109375 27.296875 
Q 18.109375 17.390625 22.1875 11.75 
Q 26.265625 6.109375 33.40625 6.109375 
Q 40.53125 6.109375 44.609375 11.75 
Q 48.6875 17.390625 48.6875 27.296875 
z
M 18.109375 46.390625 
Q 20.953125 51.265625 25.265625 53.625 
Q 29.59375 56 35.59375 56 
Q 45.5625 56 51.78125 48.09375 
Q 58.015625 40.1875 58.015625 27.296875 
Q 58.015625 14.40625 51.78125 6.484375 
Q 45.5625 -1.421875 35.59375 -1.421875 
Q 29.59375 -1.421875 25.265625 0.953125 
Q 20.953125 3.328125 18.109375 8.203125 
L 18.109375 0 
L 9.078125 0 
L 9.078125 75.984375 
L 18.109375 75.984375 
z
" id="DejaVuSans-98"/>
       <path d="M 41.109375 46.296875 
Q 39.59375 47.171875 37.8125 47.578125 
Q 36.03125 48 33.890625 48 
Q 26.265625 48 22.1875 43.046875 
Q 18.109375 38.09375 18.109375 28.8125 
L 18.109375 0 
L 9.078125 0 
L 9.078125 54.6875 
L 18.109375 54.6875 
L 18.109375 46.1875 
Q 20.953125 51.171875 25.484375 53.578125 
Q 30.03125 56 36.53125 56 
Q 37.453125 56 38.578125 55.875 
Q 39.703125 55.765625 41.0625 55.515625 
z
" id="DejaVuSans-114"/>
       <path id="DejaVuSans-32"/>
       <path d="M 30.609375 48.390625 
Q 23.390625 48.390625 19.1875 42.75 
Q 14.984375 37.109375 14.984375 27.296875 
Q 14.984375 17.484375 19.15625 11.84375 
Q 23.34375 6.203125 30.609375 6.203125 
Q 37.796875 6.203125 41.984375 11.859375 
Q 46.1875 17.53125 46.1875 27.296875 
Q 46.1875 37.015625 41.984375 42.703125 
Q 37.796875 48.390625 30.609375 48.390625 
z
M 30.609375 56 
Q 42.328125 56 49.015625 48.375 
Q 55.71875 40.765625 55.71875 27.296875 
Q 55.71875 13.875 49.015625 6.21875 
Q 42.328125 -1.421875 30.609375 -1.421875 
Q 18.84375 -1.421875 12.171875 6.21875 
Q 5.515625 13.875 5.515625 27.296875 
Q 5.515625 40.765625 12.171875 48.375 
Q 18.84375 56 30.609375 56 
z
" id="DejaVuSans-111"/>
       <path d="M 37.109375 75.984375 
L 37.109375 68.5 
L 28.515625 68.5 
Q 23.6875 68.5 21.796875 66.546875 
Q 19.921875 64.59375 19.921875 59.515625 
L 19.921875 54.6875 
L 34.71875 54.6875 
L 34.71875 47.703125 
L 19.921875 47.703125 
L 19.921875 0 
L 10.890625 0 
L 10.890625 47.703125 
L 2.296875 47.703125 
L 2.296875 54.6875 
L 10.890625 54.6875 
L 10.890625 58.5 
Q 10.890625 67.625 15.140625 71.796875 
Q 19.390625 75.984375 28.609375 75.984375 
z
" id="DejaVuSans-102"/>
       <path d="M 48.78125 52.59375 
L 48.78125 44.1875 
Q 44.96875 46.296875 41.140625 47.34375 
Q 37.3125 48.390625 33.40625 48.390625 
Q 24.65625 48.390625 19.8125 42.84375 
Q 14.984375 37.3125 14.984375 27.296875 
Q 14.984375 17.28125 19.8125 11.734375 
Q 24.65625 6.203125 33.40625 6.203125 
Q 37.3125 6.203125 41.140625 7.25 
Q 44.96875 8.296875 48.78125 10.40625 
L 48.78125 2.09375 
Q 45.015625 0.34375 40.984375 -0.53125 
Q 36.96875 -1.421875 32.421875 -1.421875 
Q 20.0625 -1.421875 12.78125 6.34375 
Q 5.515625 14.109375 5.515625 27.296875 
Q 5.515625 40.671875 12.859375 48.328125 
Q 20.21875 56 33.015625 56 
Q 37.15625 56 41.109375 55.140625 
Q 45.0625 54.296875 48.78125 52.59375 
z
" id="DejaVuSans-99"/>
       <path d="M 9.421875 54.6875 
L 18.40625 54.6875 
L 18.40625 0 
L 9.421875 0 
z
M 9.421875 75.984375 
L 18.40625 75.984375 
L 18.40625 64.59375 
L 9.421875 64.59375 
z
" id="DejaVuSans-105"/>
       <path d="M 2.984375 54.6875 
L 12.5 54.6875 
L 29.59375 8.796875 
L 46.6875 54.6875 
L 56.203125 54.6875 
L 35.6875 0 
L 23.484375 0 
z
" id="DejaVuSans-118"/>
       <path d="M 44.28125 53.078125 
L 44.28125 44.578125 
Q 40.484375 46.53125 36.375 47.5 
Q 32.28125 48.484375 27.875 48.484375 
Q 21.1875 48.484375 17.84375 46.4375 
Q 14.5 44.390625 14.5 40.28125 
Q 14.5 37.15625 16.890625 35.375 
Q 19.28125 33.59375 26.515625 31.984375 
L 29.59375 31.296875 
Q 39.15625 29.25 43.1875 25.515625 
Q 47.21875 21.78125 47.21875 15.09375 
Q 47.21875 7.46875 41.1875 3.015625 
Q 35.15625 -1.421875 24.609375 -1.421875 
Q 20.21875 -1.421875 15.453125 -0.5625 
Q 10.6875 0.296875 5.421875 2 
L 5.421875 11.28125 
Q 10.40625 8.6875 15.234375 7.390625 
Q 20.0625 6.109375 24.8125 6.109375 
Q 31.15625 6.109375 34.5625 8.28125 
Q 37.984375 10.453125 37.984375 14.40625 
Q 37.984375 18.0625 35.515625 20.015625 
Q 33.0625 21.96875 24.703125 23.78125 
L 21.578125 24.515625 
Q 13.234375 26.265625 9.515625 29.90625 
Q 5.8125 33.546875 5.8125 39.890625 
Q 5.8125 47.609375 11.28125 51.796875 
Q 16.75 56 26.8125 56 
Q 31.78125 56 36.171875 55.265625 
Q 40.578125 54.546875 44.28125 53.078125 
z
" id="DejaVuSans-115"/>
      </defs>
      <use xlink:href="#DejaVuSans-110"/>
      <use x="63.378906" xlink:href="#DejaVuSans-117"/>
      <use x="126.757812" xlink:href="#DejaVuSans-109"/>
      <use x="224.169922" xlink:href="#DejaVuSans-98"/>
      <use x="287.646484" xlink:href="#DejaVuSans-101"/>
      <use x="349.169922" xlink:href="#DejaVuSans-114"/>
      <use x="390.283203" xlink:href="#DejaVuSans-32"/>
      <use x="422.070312" xlink:href="#DejaVuSans-111"/>
      <use x="483.251953" xlink:href="#DejaVuSans-102"/>
      <use x="518.457031" xlink:href="#DejaVuSans-32"/>
      <use x="550.244141" xlink:href="#DejaVuSans-97"/>
      <use x="611.523438" xlink:href="#DejaVuSans-99"/>
      <use x="666.503906" xlink:href="#DejaVuSans-116"/>
      <use x="705.712891" xlink:href="#DejaVuSans-105"/>
      <use x="733.496094" xlink:href="#DejaVuSans-118"/>
      <use x="792.675781" xlink:href="#DejaVuSans-101"/>
      <use x="854.199219" xlink:href="#DejaVuSans-32"/>
      <use x="885.986328" xlink:href="#DejaVuSans-99"/>
      <use x="940.966797" xlink:href="#DejaVuSans-111"/>
      <use x="1002.148438" xlink:href="#DejaVuSans-114"/>
      <use x="1041.011719" xlink:href="#DejaVuSans-111"/>
      <use x="1102.193359" xlink:href="#DejaVuSans-110"/>
      <use x="1165.572266" xlink:href="#DejaVuSans-97"/>
      <use x="1226.851562" xlink:href="#DejaVuSans-32"/>
      <use x="1258.638672" xlink:href="#DejaVuSans-99"/>
      <use x="1313.619141" xlink:href="#DejaVuSans-97"/>
      <use x="1374.898438" xlink:href="#DejaVuSans-115"/>
      <use x="1426.998047" xlink:href="#DejaVuSans-101"/>
      <use x="1488.521484" xlink:href="#DejaVuSans-115"/>
     </g>
    </g>
   </g>
   <g id="patch_287">
    <path d="M 65.690625 288.430125 
L 65.690625 22.318125 
" style="fill:none;stroke:#000000;stroke-linecap:square;stroke-linejoin:miter;stroke-width:0.8;"/>
   </g>
   <g id="patch_288">
    <path d="M 65.690625 288.430125 
L 422.810625 288.430125 
" style="fill:none;stroke:#000000;stroke-linecap:square;stroke-linejoin:miter;stroke-width:0.8;"/>
   </g>
   <g id="text_18">
    <!-- South Tyrol -->
    <g transform="translate(210.958125 16.318125)scale(0.12 -0.12)">
     <defs>
      <path d="M 53.515625 70.515625 
L 53.515625 60.890625 
Q 47.90625 63.578125 42.921875 64.890625 
Q 37.9375 66.21875 33.296875 66.21875 
Q 25.25 66.21875 20.875 63.09375 
Q 16.5 59.96875 16.5 54.203125 
Q 16.5 49.359375 19.40625 46.890625 
Q 22.3125 44.4375 30.421875 42.921875 
L 36.375 41.703125 
Q 47.40625 39.59375 52.65625 34.296875 
Q 57.90625 29 57.90625 20.125 
Q 57.90625 9.515625 50.796875 4.046875 
Q 43.703125 -1.421875 29.984375 -1.421875 
Q 24.8125 -1.421875 18.96875 -0.25 
Q 13.140625 0.921875 6.890625 3.21875 
L 6.890625 13.375 
Q 12.890625 10.015625 18.65625 8.296875 
Q 24.421875 6.59375 29.984375 6.59375 
Q 38.421875 6.59375 43.015625 9.90625 
Q 47.609375 13.234375 47.609375 19.390625 
Q 47.609375 24.75 44.3125 27.78125 
Q 41.015625 30.8125 33.5 32.328125 
L 27.484375 33.5 
Q 16.453125 35.6875 11.515625 40.375 
Q 6.59375 45.0625 6.59375 53.421875 
Q 6.59375 63.09375 13.40625 68.65625 
Q 20.21875 74.21875 32.171875 74.21875 
Q 37.3125 74.21875 42.625 73.28125 
Q 47.953125 72.359375 53.515625 70.515625 
z
" id="DejaVuSans-83"/>
      <path d="M 54.890625 33.015625 
L 54.890625 0 
L 45.90625 0 
L 45.90625 32.71875 
Q 45.90625 40.484375 42.875 44.328125 
Q 39.84375 48.1875 33.796875 48.1875 
Q 26.515625 48.1875 22.3125 43.546875 
Q 18.109375 38.921875 18.109375 30.90625 
L 18.109375 0 
L 9.078125 0 
L 9.078125 75.984375 
L 18.109375 75.984375 
L 18.109375 46.1875 
Q 21.34375 51.125 25.703125 53.5625 
Q 30.078125 56 35.796875 56 
Q 45.21875 56 50.046875 50.171875 
Q 54.890625 44.34375 54.890625 33.015625 
z
" id="DejaVuSans-104"/>
      <path d="M -0.296875 72.90625 
L 61.375 72.90625 
L 61.375 64.59375 
L 35.5 64.59375 
L 35.5 0 
L 25.59375 0 
L 25.59375 64.59375 
L -0.296875 64.59375 
z
" id="DejaVuSans-84"/>
      <path d="M 32.171875 -5.078125 
Q 28.375 -14.84375 24.75 -17.8125 
Q 21.140625 -20.796875 15.09375 -20.796875 
L 7.90625 -20.796875 
L 7.90625 -13.28125 
L 13.1875 -13.28125 
Q 16.890625 -13.28125 18.9375 -11.515625 
Q 21 -9.765625 23.484375 -3.21875 
L 25.09375 0.875 
L 2.984375 54.6875 
L 12.5 54.6875 
L 29.59375 11.921875 
L 46.6875 54.6875 
L 56.203125 54.6875 
z
" id="DejaVuSans-121"/>
      <path d="M 9.421875 75.984375 
L 18.40625 75.984375 
L 18.40625 0 
L 9.421875 0 
z
" id="DejaVuSans-108"/>
     </defs>
     <use xlink:href="#DejaVuSans-83"/>
     <use x="63.476562" xlink:href="#DejaVuSans-111"/>
     <use x="124.658203" xlink:href="#DejaVuSans-117"/>
     <use x="188.037109" xlink:href="#DejaVuSans-116"/>
     <use x="227.246094" xlink:href="#DejaVuSans-104"/>
     <use x="290.625" xlink:href="#DejaVuSans-32"/>
     <use x="322.412109" xlink:href="#DejaVuSans-84"/>
     <use x="367.871094" xlink:href="#DejaVuSans-121"/>
     <use x="427.050781" xlink:href="#DejaVuSans-114"/>
     <use x="465.914062" xlink:href="#DejaVuSans-111"/>
     <use x="527.095703" xlink:href="#DejaVuSans-108"/>
    </g>
   </g>
  </g>
 </g>
 <defs>
  <clipPath id="pd5a4fe1e59">
   <rect height="266.112" width="357.12" x="65.690625" y="22.318125"/>
  </clipPath>
 </defs>
</svg>
