<?xml version="1.0" encoding="utf-8" standalone="no"?>
<!DOCTYPE svg PUBLIC "-//W3C//DTD SVG 1.1//EN"
  "http://www.w3.org/Graphics/SVG/1.1/DTD/svg11.dtd">
<!-- Created with matplotlib (https://matplotlib.org/) -->
<svg height="364.091062pt" version="1.1" viewBox="0 0 420.302647 364.091062" width="420.302647pt" xmlns="http://www.w3.org/2000/svg" xmlns:xlink="http://www.w3.org/1999/xlink">
 <metadata>
  <rdf:RDF xmlns:cc="http://creativecommons.org/ns#" xmlns:dc="http://purl.org/dc/elements/1.1/" xmlns:rdf="http://www.w3.org/1999/02/22-rdf-syntax-ns#">
   <cc:Work>
    <dc:type rdf:resource="http://purl.org/dc/dcmitype/StillImage"/>
    <dc:date>2021-01-02T13:02:56.399248</dc:date>
    <dc:format>image/svg+xml</dc:format>
    <dc:creator>
     <cc:Agent>
      <dc:title>Matplotlib v3.3.3, https://matplotlib.org/</dc:title>
     </cc:Agent>
    </dc:creator>
   </cc:Work>
  </rdf:RDF>
 </metadata>
 <defs>
  <style type="text/css">*{stroke-linecap:butt;stroke-linejoin:round;}</style>
 </defs>
 <g id="figure_1">
  <g id="patch_1">
   <path d="M 0 364.091062 
L 420.302647 364.091062 
L 420.302647 0 
L 0 0 
z
" style="fill:#ffffff;"/>
  </g>
  <g id="axes_1">
   <g id="patch_2">
    <path d="M 52.965625 288.430125 
L 410.085625 288.430125 
L 410.085625 22.318125 
L 52.965625 22.318125 
z
" style="fill:#ffffff;"/>
   </g>
   <g id="patch_3">
    <path clip-path="url(#pb3ecf336e1)" d="M 53.087094 288.430125 
L 54.058849 288.430125 
L 54.058849 286.646533 
L 53.087094 286.646533 
z
" style="fill:#1f77b4;"/>
   </g>
   <g id="patch_4">
    <path clip-path="url(#pb3ecf336e1)" d="M 54.301788 288.430125 
L 55.273543 288.430125 
L 55.273543 286.289814 
L 54.301788 286.289814 
z
" style="fill:#1f77b4;"/>
   </g>
   <g id="patch_5">
    <path clip-path="url(#pb3ecf336e1)" d="M 55.516482 288.430125 
L 56.488237 288.430125 
L 56.488237 285.219659 
L 55.516482 285.219659 
z
" style="fill:#1f77b4;"/>
   </g>
   <g id="patch_6">
    <path clip-path="url(#pb3ecf336e1)" d="M 56.731176 288.430125 
L 57.702931 288.430125 
L 57.702931 284.149503 
L 56.731176 284.149503 
z
" style="fill:#1f77b4;"/>
   </g>
   <g id="patch_7">
    <path clip-path="url(#pb3ecf336e1)" d="M 57.94587 288.430125 
L 58.917625 288.430125 
L 58.917625 282.722629 
L 57.94587 282.722629 
z
" style="fill:#1f77b4;"/>
   </g>
   <g id="patch_8">
    <path clip-path="url(#pb3ecf336e1)" d="M 59.160564 288.430125 
L 60.132319 288.430125 
L 60.132319 281.652474 
L 59.160564 281.652474 
z
" style="fill:#1f77b4;"/>
   </g>
   <g id="patch_9">
    <path clip-path="url(#pb3ecf336e1)" d="M 60.375258 288.430125 
L 61.347013 288.430125 
L 61.347013 279.868881 
L 60.375258 279.868881 
z
" style="fill:#1f77b4;"/>
   </g>
   <g id="patch_10">
    <path clip-path="url(#pb3ecf336e1)" d="M 61.589952 288.430125 
L 62.561707 288.430125 
L 62.561707 277.371852 
L 61.589952 277.371852 
z
" style="fill:#1f77b4;"/>
   </g>
   <g id="patch_11">
    <path clip-path="url(#pb3ecf336e1)" d="M 62.804645 288.430125 
L 63.776401 288.430125 
L 63.776401 275.944978 
L 62.804645 275.944978 
z
" style="fill:#1f77b4;"/>
   </g>
   <g id="patch_12">
    <path clip-path="url(#pb3ecf336e1)" d="M 64.019339 288.430125 
L 64.991094 288.430125 
L 64.991094 272.734511 
L 64.019339 272.734511 
z
" style="fill:#1f77b4;"/>
   </g>
   <g id="patch_13">
    <path clip-path="url(#pb3ecf336e1)" d="M 65.234033 288.430125 
L 66.205788 288.430125 
L 66.205788 272.377793 
L 65.234033 272.377793 
z
" style="fill:#1f77b4;"/>
   </g>
   <g id="patch_14">
    <path clip-path="url(#pb3ecf336e1)" d="M 66.448727 288.430125 
L 67.420482 288.430125 
L 67.420482 269.524045 
L 66.448727 269.524045 
z
" style="fill:#1f77b4;"/>
   </g>
   <g id="patch_15">
    <path clip-path="url(#pb3ecf336e1)" d="M 67.663421 288.430125 
L 68.635176 288.430125 
L 68.635176 267.027015 
L 67.663421 267.027015 
z
" style="fill:#1f77b4;"/>
   </g>
   <g id="patch_16">
    <path clip-path="url(#pb3ecf336e1)" d="M 68.878115 288.430125 
L 69.84987 288.430125 
L 69.84987 265.600141 
L 68.878115 265.600141 
z
" style="fill:#1f77b4;"/>
   </g>
   <g id="patch_17">
    <path clip-path="url(#pb3ecf336e1)" d="M 70.092809 288.430125 
L 71.064564 288.430125 
L 71.064564 263.103112 
L 70.092809 263.103112 
z
" style="fill:#1f77b4;"/>
   </g>
   <g id="patch_18">
    <path clip-path="url(#pb3ecf336e1)" d="M 71.307503 288.430125 
L 72.279258 288.430125 
L 72.279258 262.032956 
L 71.307503 262.032956 
z
" style="fill:#1f77b4;"/>
   </g>
   <g id="patch_19">
    <path clip-path="url(#pb3ecf336e1)" d="M 72.522196 288.430125 
L 73.493952 288.430125 
L 73.493952 249.19109 
L 72.522196 249.19109 
z
" style="fill:#1f77b4;"/>
   </g>
   <g id="patch_20">
    <path clip-path="url(#pb3ecf336e1)" d="M 73.73689 288.430125 
L 74.708645 288.430125 
L 74.708645 245.623905 
L 73.73689 245.623905 
z
" style="fill:#1f77b4;"/>
   </g>
   <g id="patch_21">
    <path clip-path="url(#pb3ecf336e1)" d="M 74.951584 288.430125 
L 75.923339 288.430125 
L 75.923339 242.770157 
L 74.951584 242.770157 
z
" style="fill:#1f77b4;"/>
   </g>
   <g id="patch_22">
    <path clip-path="url(#pb3ecf336e1)" d="M 76.166278 288.430125 
L 77.138033 288.430125 
L 77.138033 237.776098 
L 76.166278 237.776098 
z
" style="fill:#1f77b4;"/>
   </g>
   <g id="patch_23">
    <path clip-path="url(#pb3ecf336e1)" d="M 77.380972 288.430125 
L 78.352727 288.430125 
L 78.352727 236.349224 
L 77.380972 236.349224 
z
" style="fill:#1f77b4;"/>
   </g>
   <g id="patch_24">
    <path clip-path="url(#pb3ecf336e1)" d="M 78.595666 288.430125 
L 79.567421 288.430125 
L 79.567421 232.782039 
L 78.595666 232.782039 
z
" style="fill:#1f77b4;"/>
   </g>
   <g id="patch_25">
    <path clip-path="url(#pb3ecf336e1)" d="M 79.81036 288.430125 
L 80.782115 288.430125 
L 80.782115 229.928291 
L 79.81036 229.928291 
z
" style="fill:#1f77b4;"/>
   </g>
   <g id="patch_26">
    <path clip-path="url(#pb3ecf336e1)" d="M 81.025054 288.430125 
L 81.996809 288.430125 
L 81.996809 227.074543 
L 81.025054 227.074543 
z
" style="fill:#1f77b4;"/>
   </g>
   <g id="patch_27">
    <path clip-path="url(#pb3ecf336e1)" d="M 82.239747 288.430125 
L 83.211503 288.430125 
L 83.211503 224.934232 
L 82.239747 224.934232 
z
" style="fill:#1f77b4;"/>
   </g>
   <g id="patch_28">
    <path clip-path="url(#pb3ecf336e1)" d="M 83.454441 288.430125 
L 84.426196 288.430125 
L 84.426196 221.723766 
L 83.454441 221.723766 
z
" style="fill:#1f77b4;"/>
   </g>
   <g id="patch_29">
    <path clip-path="url(#pb3ecf336e1)" d="M 84.669135 288.430125 
L 85.64089 288.430125 
L 85.64089 219.940173 
L 84.669135 219.940173 
z
" style="fill:#1f77b4;"/>
   </g>
   <g id="patch_30">
    <path clip-path="url(#pb3ecf336e1)" d="M 85.883829 288.430125 
L 86.855584 288.430125 
L 86.855584 217.086425 
L 85.883829 217.086425 
z
" style="fill:#1f77b4;"/>
   </g>
   <g id="patch_31">
    <path clip-path="url(#pb3ecf336e1)" d="M 87.098523 288.430125 
L 88.070278 288.430125 
L 88.070278 215.659551 
L 87.098523 215.659551 
z
" style="fill:#1f77b4;"/>
   </g>
   <g id="patch_32">
    <path clip-path="url(#pb3ecf336e1)" d="M 88.313217 288.430125 
L 89.284972 288.430125 
L 89.284972 211.735648 
L 88.313217 211.735648 
z
" style="fill:#1f77b4;"/>
   </g>
   <g id="patch_33">
    <path clip-path="url(#pb3ecf336e1)" d="M 89.527911 288.430125 
L 90.499666 288.430125 
L 90.499666 211.022211 
L 89.527911 211.022211 
z
" style="fill:#1f77b4;"/>
   </g>
   <g id="patch_34">
    <path clip-path="url(#pb3ecf336e1)" d="M 90.742605 288.430125 
L 91.71436 288.430125 
L 91.71436 209.595337 
L 90.742605 209.595337 
z
" style="fill:#1f77b4;"/>
   </g>
   <g id="patch_35">
    <path clip-path="url(#pb3ecf336e1)" d="M 91.957298 288.430125 
L 92.929054 288.430125 
L 92.929054 207.098307 
L 91.957298 207.098307 
z
" style="fill:#1f77b4;"/>
   </g>
   <g id="patch_36">
    <path clip-path="url(#pb3ecf336e1)" d="M 93.171992 288.430125 
L 94.143747 288.430125 
L 94.143747 205.671433 
L 93.171992 205.671433 
z
" style="fill:#1f77b4;"/>
   </g>
   <g id="patch_37">
    <path clip-path="url(#pb3ecf336e1)" d="M 94.386686 288.430125 
L 95.358441 288.430125 
L 95.358441 203.174404 
L 94.386686 203.174404 
z
" style="fill:#1f77b4;"/>
   </g>
   <g id="patch_38">
    <path clip-path="url(#pb3ecf336e1)" d="M 95.60138 288.430125 
L 96.573135 288.430125 
L 96.573135 201.034093 
L 95.60138 201.034093 
z
" style="fill:#1f77b4;"/>
   </g>
   <g id="patch_39">
    <path clip-path="url(#pb3ecf336e1)" d="M 96.816074 288.430125 
L 97.787829 288.430125 
L 97.787829 199.607219 
L 96.816074 199.607219 
z
" style="fill:#1f77b4;"/>
   </g>
   <g id="patch_40">
    <path clip-path="url(#pb3ecf336e1)" d="M 98.030768 288.430125 
L 99.002523 288.430125 
L 99.002523 198.537063 
L 98.030768 198.537063 
z
" style="fill:#1f77b4;"/>
   </g>
   <g id="patch_41">
    <path clip-path="url(#pb3ecf336e1)" d="M 99.245462 288.430125 
L 100.217217 288.430125 
L 100.217217 197.110189 
L 99.245462 197.110189 
z
" style="fill:#1f77b4;"/>
   </g>
   <g id="patch_42">
    <path clip-path="url(#pb3ecf336e1)" d="M 100.460156 288.430125 
L 101.431911 288.430125 
L 101.431911 195.326597 
L 100.460156 195.326597 
z
" style="fill:#1f77b4;"/>
   </g>
   <g id="patch_43">
    <path clip-path="url(#pb3ecf336e1)" d="M 101.674849 288.430125 
L 102.646605 288.430125 
L 102.646605 194.61316 
L 101.674849 194.61316 
z
" style="fill:#1f77b4;"/>
   </g>
   <g id="patch_44">
    <path clip-path="url(#pb3ecf336e1)" d="M 102.889543 288.430125 
L 103.861298 288.430125 
L 103.861298 193.899723 
L 102.889543 193.899723 
z
" style="fill:#1f77b4;"/>
   </g>
   <g id="patch_45">
    <path clip-path="url(#pb3ecf336e1)" d="M 104.104237 288.430125 
L 105.075992 288.430125 
L 105.075992 192.472849 
L 104.104237 192.472849 
z
" style="fill:#1f77b4;"/>
   </g>
   <g id="patch_46">
    <path clip-path="url(#pb3ecf336e1)" d="M 105.318931 288.430125 
L 106.290686 288.430125 
L 106.290686 192.11613 
L 105.318931 192.11613 
z
" style="fill:#1f77b4;"/>
   </g>
   <g id="patch_47">
    <path clip-path="url(#pb3ecf336e1)" d="M 106.533625 288.430125 
L 107.50538 288.430125 
L 107.50538 191.402693 
L 106.533625 191.402693 
z
" style="fill:#1f77b4;"/>
   </g>
   <g id="patch_48">
    <path clip-path="url(#pb3ecf336e1)" d="M 107.748319 288.430125 
L 108.720074 288.430125 
L 108.720074 190.689256 
L 107.748319 190.689256 
z
" style="fill:#1f77b4;"/>
   </g>
   <g id="patch_49">
    <path clip-path="url(#pb3ecf336e1)" d="M 108.963013 288.430125 
L 109.934768 288.430125 
L 109.934768 190.332538 
L 108.963013 190.332538 
z
" style="fill:#1f77b4;"/>
   </g>
   <g id="patch_50">
    <path clip-path="url(#pb3ecf336e1)" d="M 110.177707 288.430125 
L 111.149462 288.430125 
L 111.149462 189.262382 
L 110.177707 189.262382 
z
" style="fill:#1f77b4;"/>
   </g>
   <g id="patch_51">
    <path clip-path="url(#pb3ecf336e1)" d="M 111.392401 288.430125 
L 112.364156 288.430125 
L 112.364156 188.905664 
L 111.392401 188.905664 
z
" style="fill:#1f77b4;"/>
   </g>
   <g id="patch_52">
    <path clip-path="url(#pb3ecf336e1)" d="M 112.607094 288.430125 
L 113.578849 288.430125 
L 113.578849 188.192227 
L 112.607094 188.192227 
z
" style="fill:#1f77b4;"/>
   </g>
   <g id="patch_53">
    <path clip-path="url(#pb3ecf336e1)" d="M 113.821788 288.430125 
L 114.793543 288.430125 
L 114.793543 187.122071 
L 113.821788 187.122071 
z
" style="fill:#1f77b4;"/>
   </g>
   <g id="patch_54">
    <path clip-path="url(#pb3ecf336e1)" d="M 115.036482 288.430125 
L 116.008237 288.430125 
L 116.008237 186.408634 
L 115.036482 186.408634 
z
" style="fill:#1f77b4;"/>
   </g>
   <g id="patch_55">
    <path clip-path="url(#pb3ecf336e1)" d="M 116.251176 288.430125 
L 117.222931 288.430125 
L 117.222931 186.408634 
L 116.251176 186.408634 
z
" style="fill:#1f77b4;"/>
   </g>
   <g id="patch_56">
    <path clip-path="url(#pb3ecf336e1)" d="M 117.46587 288.430125 
L 118.437625 288.430125 
L 118.437625 186.408634 
L 117.46587 186.408634 
z
" style="fill:#1f77b4;"/>
   </g>
   <g id="patch_57">
    <path clip-path="url(#pb3ecf336e1)" d="M 118.680564 288.430125 
L 119.652319 288.430125 
L 119.652319 185.338479 
L 118.680564 185.338479 
z
" style="fill:#1f77b4;"/>
   </g>
   <g id="patch_58">
    <path clip-path="url(#pb3ecf336e1)" d="M 119.895258 288.430125 
L 120.867013 288.430125 
L 120.867013 184.98176 
L 119.895258 184.98176 
z
" style="fill:#1f77b4;"/>
   </g>
   <g id="patch_59">
    <path clip-path="url(#pb3ecf336e1)" d="M 121.109952 288.430125 
L 122.081707 288.430125 
L 122.081707 184.98176 
L 121.109952 184.98176 
z
" style="fill:#1f77b4;"/>
   </g>
   <g id="patch_60">
    <path clip-path="url(#pb3ecf336e1)" d="M 122.324645 288.430125 
L 123.296401 288.430125 
L 123.296401 184.98176 
L 122.324645 184.98176 
z
" style="fill:#1f77b4;"/>
   </g>
   <g id="patch_61">
    <path clip-path="url(#pb3ecf336e1)" d="M 123.539339 288.430125 
L 124.511094 288.430125 
L 124.511094 184.98176 
L 123.539339 184.98176 
z
" style="fill:#1f77b4;"/>
   </g>
   <g id="patch_62">
    <path clip-path="url(#pb3ecf336e1)" d="M 124.754033 288.430125 
L 125.725788 288.430125 
L 125.725788 184.98176 
L 124.754033 184.98176 
z
" style="fill:#1f77b4;"/>
   </g>
   <g id="patch_63">
    <path clip-path="url(#pb3ecf336e1)" d="M 125.968727 288.430125 
L 126.940482 288.430125 
L 126.940482 184.98176 
L 125.968727 184.98176 
z
" style="fill:#1f77b4;"/>
   </g>
   <g id="patch_64">
    <path clip-path="url(#pb3ecf336e1)" d="M 127.183421 288.430125 
L 128.155176 288.430125 
L 128.155176 184.98176 
L 127.183421 184.98176 
z
" style="fill:#1f77b4;"/>
   </g>
   <g id="patch_65">
    <path clip-path="url(#pb3ecf336e1)" d="M 128.398115 288.430125 
L 129.36987 288.430125 
L 129.36987 184.98176 
L 128.398115 184.98176 
z
" style="fill:#1f77b4;"/>
   </g>
   <g id="patch_66">
    <path clip-path="url(#pb3ecf336e1)" d="M 129.612809 288.430125 
L 130.584564 288.430125 
L 130.584564 184.98176 
L 129.612809 184.98176 
z
" style="fill:#1f77b4;"/>
   </g>
   <g id="patch_67">
    <path clip-path="url(#pb3ecf336e1)" d="M 130.827503 288.430125 
L 131.799258 288.430125 
L 131.799258 184.625042 
L 130.827503 184.625042 
z
" style="fill:#1f77b4;"/>
   </g>
   <g id="patch_68">
    <path clip-path="url(#pb3ecf336e1)" d="M 132.042196 288.430125 
L 133.013952 288.430125 
L 133.013952 184.625042 
L 132.042196 184.625042 
z
" style="fill:#1f77b4;"/>
   </g>
   <g id="patch_69">
    <path clip-path="url(#pb3ecf336e1)" d="M 133.25689 288.430125 
L 134.228645 288.430125 
L 134.228645 184.625042 
L 133.25689 184.625042 
z
" style="fill:#1f77b4;"/>
   </g>
   <g id="patch_70">
    <path clip-path="url(#pb3ecf336e1)" d="M 134.471584 288.430125 
L 135.443339 288.430125 
L 135.443339 184.625042 
L 134.471584 184.625042 
z
" style="fill:#1f77b4;"/>
   </g>
   <g id="patch_71">
    <path clip-path="url(#pb3ecf336e1)" d="M 135.686278 288.430125 
L 136.658033 288.430125 
L 136.658033 184.625042 
L 135.686278 184.625042 
z
" style="fill:#1f77b4;"/>
   </g>
   <g id="patch_72">
    <path clip-path="url(#pb3ecf336e1)" d="M 136.900972 288.430125 
L 137.872727 288.430125 
L 137.872727 184.625042 
L 136.900972 184.625042 
z
" style="fill:#1f77b4;"/>
   </g>
   <g id="patch_73">
    <path clip-path="url(#pb3ecf336e1)" d="M 138.115666 288.430125 
L 139.087421 288.430125 
L 139.087421 184.625042 
L 138.115666 184.625042 
z
" style="fill:#1f77b4;"/>
   </g>
   <g id="patch_74">
    <path clip-path="url(#pb3ecf336e1)" d="M 139.33036 288.430125 
L 140.302115 288.430125 
L 140.302115 184.625042 
L 139.33036 184.625042 
z
" style="fill:#1f77b4;"/>
   </g>
   <g id="patch_75">
    <path clip-path="url(#pb3ecf336e1)" d="M 140.545054 288.430125 
L 141.516809 288.430125 
L 141.516809 184.625042 
L 140.545054 184.625042 
z
" style="fill:#1f77b4;"/>
   </g>
   <g id="patch_76">
    <path clip-path="url(#pb3ecf336e1)" d="M 141.759747 288.430125 
L 142.731503 288.430125 
L 142.731503 184.625042 
L 141.759747 184.625042 
z
" style="fill:#1f77b4;"/>
   </g>
   <g id="patch_77">
    <path clip-path="url(#pb3ecf336e1)" d="M 142.974441 288.430125 
L 143.946196 288.430125 
L 143.946196 184.625042 
L 142.974441 184.625042 
z
" style="fill:#1f77b4;"/>
   </g>
   <g id="patch_78">
    <path clip-path="url(#pb3ecf336e1)" d="M 144.189135 288.430125 
L 145.16089 288.430125 
L 145.16089 184.625042 
L 144.189135 184.625042 
z
" style="fill:#1f77b4;"/>
   </g>
   <g id="patch_79">
    <path clip-path="url(#pb3ecf336e1)" d="M 145.403829 288.430125 
L 146.375584 288.430125 
L 146.375584 184.625042 
L 145.403829 184.625042 
z
" style="fill:#1f77b4;"/>
   </g>
   <g id="patch_80">
    <path clip-path="url(#pb3ecf336e1)" d="M 146.618523 288.430125 
L 147.590278 288.430125 
L 147.590278 184.625042 
L 146.618523 184.625042 
z
" style="fill:#1f77b4;"/>
   </g>
   <g id="patch_81">
    <path clip-path="url(#pb3ecf336e1)" d="M 147.833217 288.430125 
L 148.804972 288.430125 
L 148.804972 184.625042 
L 147.833217 184.625042 
z
" style="fill:#1f77b4;"/>
   </g>
   <g id="patch_82">
    <path clip-path="url(#pb3ecf336e1)" d="M 149.047911 288.430125 
L 150.019666 288.430125 
L 150.019666 184.625042 
L 149.047911 184.625042 
z
" style="fill:#1f77b4;"/>
   </g>
   <g id="patch_83">
    <path clip-path="url(#pb3ecf336e1)" d="M 150.262605 288.430125 
L 151.23436 288.430125 
L 151.23436 184.625042 
L 150.262605 184.625042 
z
" style="fill:#1f77b4;"/>
   </g>
   <g id="patch_84">
    <path clip-path="url(#pb3ecf336e1)" d="M 151.477298 288.430125 
L 152.449054 288.430125 
L 152.449054 184.268323 
L 151.477298 184.268323 
z
" style="fill:#1f77b4;"/>
   </g>
   <g id="patch_85">
    <path clip-path="url(#pb3ecf336e1)" d="M 152.691992 288.430125 
L 153.663747 288.430125 
L 153.663747 184.268323 
L 152.691992 184.268323 
z
" style="fill:#1f77b4;"/>
   </g>
   <g id="patch_86">
    <path clip-path="url(#pb3ecf336e1)" d="M 153.906686 288.430125 
L 154.878441 288.430125 
L 154.878441 184.268323 
L 153.906686 184.268323 
z
" style="fill:#1f77b4;"/>
   </g>
   <g id="patch_87">
    <path clip-path="url(#pb3ecf336e1)" d="M 155.12138 288.430125 
L 156.093135 288.430125 
L 156.093135 184.268323 
L 155.12138 184.268323 
z
" style="fill:#1f77b4;"/>
   </g>
   <g id="patch_88">
    <path clip-path="url(#pb3ecf336e1)" d="M 156.336074 288.430125 
L 157.307829 288.430125 
L 157.307829 184.268323 
L 156.336074 184.268323 
z
" style="fill:#1f77b4;"/>
   </g>
   <g id="patch_89">
    <path clip-path="url(#pb3ecf336e1)" d="M 157.550768 288.430125 
L 158.522523 288.430125 
L 158.522523 184.268323 
L 157.550768 184.268323 
z
" style="fill:#1f77b4;"/>
   </g>
   <g id="patch_90">
    <path clip-path="url(#pb3ecf336e1)" d="M 158.765462 288.430125 
L 159.737217 288.430125 
L 159.737217 184.268323 
L 158.765462 184.268323 
z
" style="fill:#1f77b4;"/>
   </g>
   <g id="patch_91">
    <path clip-path="url(#pb3ecf336e1)" d="M 159.980156 288.430125 
L 160.951911 288.430125 
L 160.951911 184.268323 
L 159.980156 184.268323 
z
" style="fill:#1f77b4;"/>
   </g>
   <g id="patch_92">
    <path clip-path="url(#pb3ecf336e1)" d="M 161.194849 288.430125 
L 162.166605 288.430125 
L 162.166605 184.625042 
L 161.194849 184.625042 
z
" style="fill:#1f77b4;"/>
   </g>
   <g id="patch_93">
    <path clip-path="url(#pb3ecf336e1)" d="M 162.409543 288.430125 
L 163.381298 288.430125 
L 163.381298 184.625042 
L 162.409543 184.625042 
z
" style="fill:#1f77b4;"/>
   </g>
   <g id="patch_94">
    <path clip-path="url(#pb3ecf336e1)" d="M 163.624237 288.430125 
L 164.595992 288.430125 
L 164.595992 184.625042 
L 163.624237 184.625042 
z
" style="fill:#1f77b4;"/>
   </g>
   <g id="patch_95">
    <path clip-path="url(#pb3ecf336e1)" d="M 164.838931 288.430125 
L 165.810686 288.430125 
L 165.810686 184.268323 
L 164.838931 184.268323 
z
" style="fill:#1f77b4;"/>
   </g>
   <g id="patch_96">
    <path clip-path="url(#pb3ecf336e1)" d="M 166.053625 288.430125 
L 167.02538 288.430125 
L 167.02538 184.268323 
L 166.053625 184.268323 
z
" style="fill:#1f77b4;"/>
   </g>
   <g id="patch_97">
    <path clip-path="url(#pb3ecf336e1)" d="M 167.268319 288.430125 
L 168.240074 288.430125 
L 168.240074 184.268323 
L 167.268319 184.268323 
z
" style="fill:#1f77b4;"/>
   </g>
   <g id="patch_98">
    <path clip-path="url(#pb3ecf336e1)" d="M 168.483013 288.430125 
L 169.454768 288.430125 
L 169.454768 184.268323 
L 168.483013 184.268323 
z
" style="fill:#1f77b4;"/>
   </g>
   <g id="patch_99">
    <path clip-path="url(#pb3ecf336e1)" d="M 169.697707 288.430125 
L 170.669462 288.430125 
L 170.669462 184.268323 
L 169.697707 184.268323 
z
" style="fill:#1f77b4;"/>
   </g>
   <g id="patch_100">
    <path clip-path="url(#pb3ecf336e1)" d="M 170.912401 288.430125 
L 171.884156 288.430125 
L 171.884156 184.268323 
L 170.912401 184.268323 
z
" style="fill:#1f77b4;"/>
   </g>
   <g id="patch_101">
    <path clip-path="url(#pb3ecf336e1)" d="M 172.127094 288.430125 
L 173.098849 288.430125 
L 173.098849 184.268323 
L 172.127094 184.268323 
z
" style="fill:#1f77b4;"/>
   </g>
   <g id="patch_102">
    <path clip-path="url(#pb3ecf336e1)" d="M 173.341788 288.430125 
L 174.313543 288.430125 
L 174.313543 184.268323 
L 173.341788 184.268323 
z
" style="fill:#1f77b4;"/>
   </g>
   <g id="patch_103">
    <path clip-path="url(#pb3ecf336e1)" d="M 174.556482 288.430125 
L 175.528237 288.430125 
L 175.528237 184.268323 
L 174.556482 184.268323 
z
" style="fill:#1f77b4;"/>
   </g>
   <g id="patch_104">
    <path clip-path="url(#pb3ecf336e1)" d="M 175.771176 288.430125 
L 176.742931 288.430125 
L 176.742931 184.268323 
L 175.771176 184.268323 
z
" style="fill:#1f77b4;"/>
   </g>
   <g id="patch_105">
    <path clip-path="url(#pb3ecf336e1)" d="M 176.98587 288.430125 
L 177.957625 288.430125 
L 177.957625 184.268323 
L 176.98587 184.268323 
z
" style="fill:#1f77b4;"/>
   </g>
   <g id="patch_106">
    <path clip-path="url(#pb3ecf336e1)" d="M 178.200564 288.430125 
L 179.172319 288.430125 
L 179.172319 184.268323 
L 178.200564 184.268323 
z
" style="fill:#1f77b4;"/>
   </g>
   <g id="patch_107">
    <path clip-path="url(#pb3ecf336e1)" d="M 179.415258 288.430125 
L 180.387013 288.430125 
L 180.387013 184.268323 
L 179.415258 184.268323 
z
" style="fill:#1f77b4;"/>
   </g>
   <g id="patch_108">
    <path clip-path="url(#pb3ecf336e1)" d="M 180.629952 288.430125 
L 181.601707 288.430125 
L 181.601707 184.268323 
L 180.629952 184.268323 
z
" style="fill:#1f77b4;"/>
   </g>
   <g id="patch_109">
    <path clip-path="url(#pb3ecf336e1)" d="M 181.844645 288.430125 
L 182.816401 288.430125 
L 182.816401 184.268323 
L 181.844645 184.268323 
z
" style="fill:#1f77b4;"/>
   </g>
   <g id="patch_110">
    <path clip-path="url(#pb3ecf336e1)" d="M 183.059339 288.430125 
L 184.031094 288.430125 
L 184.031094 184.268323 
L 183.059339 184.268323 
z
" style="fill:#1f77b4;"/>
   </g>
   <g id="patch_111">
    <path clip-path="url(#pb3ecf336e1)" d="M 184.274033 288.430125 
L 185.245788 288.430125 
L 185.245788 184.268323 
L 184.274033 184.268323 
z
" style="fill:#1f77b4;"/>
   </g>
   <g id="patch_112">
    <path clip-path="url(#pb3ecf336e1)" d="M 185.488727 288.430125 
L 186.460482 288.430125 
L 186.460482 184.268323 
L 185.488727 184.268323 
z
" style="fill:#1f77b4;"/>
   </g>
   <g id="patch_113">
    <path clip-path="url(#pb3ecf336e1)" d="M 186.703421 288.430125 
L 187.675176 288.430125 
L 187.675176 184.268323 
L 186.703421 184.268323 
z
" style="fill:#1f77b4;"/>
   </g>
   <g id="patch_114">
    <path clip-path="url(#pb3ecf336e1)" d="M 187.918115 288.430125 
L 188.88987 288.430125 
L 188.88987 184.268323 
L 187.918115 184.268323 
z
" style="fill:#1f77b4;"/>
   </g>
   <g id="patch_115">
    <path clip-path="url(#pb3ecf336e1)" d="M 189.132809 288.430125 
L 190.104564 288.430125 
L 190.104564 184.268323 
L 189.132809 184.268323 
z
" style="fill:#1f77b4;"/>
   </g>
   <g id="patch_116">
    <path clip-path="url(#pb3ecf336e1)" d="M 190.347503 288.430125 
L 191.319258 288.430125 
L 191.319258 184.268323 
L 190.347503 184.268323 
z
" style="fill:#1f77b4;"/>
   </g>
   <g id="patch_117">
    <path clip-path="url(#pb3ecf336e1)" d="M 191.562196 288.430125 
L 192.533952 288.430125 
L 192.533952 184.268323 
L 191.562196 184.268323 
z
" style="fill:#1f77b4;"/>
   </g>
   <g id="patch_118">
    <path clip-path="url(#pb3ecf336e1)" d="M 192.77689 288.430125 
L 193.748645 288.430125 
L 193.748645 184.268323 
L 192.77689 184.268323 
z
" style="fill:#1f77b4;"/>
   </g>
   <g id="patch_119">
    <path clip-path="url(#pb3ecf336e1)" d="M 193.991584 288.430125 
L 194.963339 288.430125 
L 194.963339 184.268323 
L 193.991584 184.268323 
z
" style="fill:#1f77b4;"/>
   </g>
   <g id="patch_120">
    <path clip-path="url(#pb3ecf336e1)" d="M 195.206278 288.430125 
L 196.178033 288.430125 
L 196.178033 184.268323 
L 195.206278 184.268323 
z
" style="fill:#1f77b4;"/>
   </g>
   <g id="patch_121">
    <path clip-path="url(#pb3ecf336e1)" d="M 196.420972 288.430125 
L 197.392727 288.430125 
L 197.392727 184.268323 
L 196.420972 184.268323 
z
" style="fill:#1f77b4;"/>
   </g>
   <g id="patch_122">
    <path clip-path="url(#pb3ecf336e1)" d="M 197.635666 288.430125 
L 198.607421 288.430125 
L 198.607421 184.268323 
L 197.635666 184.268323 
z
" style="fill:#1f77b4;"/>
   </g>
   <g id="patch_123">
    <path clip-path="url(#pb3ecf336e1)" d="M 198.85036 288.430125 
L 199.822115 288.430125 
L 199.822115 184.268323 
L 198.85036 184.268323 
z
" style="fill:#1f77b4;"/>
   </g>
   <g id="patch_124">
    <path clip-path="url(#pb3ecf336e1)" d="M 200.065054 288.430125 
L 201.036809 288.430125 
L 201.036809 184.268323 
L 200.065054 184.268323 
z
" style="fill:#1f77b4;"/>
   </g>
   <g id="patch_125">
    <path clip-path="url(#pb3ecf336e1)" d="M 201.279747 288.430125 
L 202.251503 288.430125 
L 202.251503 184.268323 
L 201.279747 184.268323 
z
" style="fill:#1f77b4;"/>
   </g>
   <g id="patch_126">
    <path clip-path="url(#pb3ecf336e1)" d="M 202.494441 288.430125 
L 203.466196 288.430125 
L 203.466196 184.268323 
L 202.494441 184.268323 
z
" style="fill:#1f77b4;"/>
   </g>
   <g id="patch_127">
    <path clip-path="url(#pb3ecf336e1)" d="M 203.709135 288.430125 
L 204.68089 288.430125 
L 204.68089 184.268323 
L 203.709135 184.268323 
z
" style="fill:#1f77b4;"/>
   </g>
   <g id="patch_128">
    <path clip-path="url(#pb3ecf336e1)" d="M 204.923829 288.430125 
L 205.895584 288.430125 
L 205.895584 184.268323 
L 204.923829 184.268323 
z
" style="fill:#1f77b4;"/>
   </g>
   <g id="patch_129">
    <path clip-path="url(#pb3ecf336e1)" d="M 206.138523 288.430125 
L 207.110278 288.430125 
L 207.110278 184.268323 
L 206.138523 184.268323 
z
" style="fill:#1f77b4;"/>
   </g>
   <g id="patch_130">
    <path clip-path="url(#pb3ecf336e1)" d="M 207.353217 288.430125 
L 208.324972 288.430125 
L 208.324972 184.268323 
L 207.353217 184.268323 
z
" style="fill:#1f77b4;"/>
   </g>
   <g id="patch_131">
    <path clip-path="url(#pb3ecf336e1)" d="M 208.567911 288.430125 
L 209.539666 288.430125 
L 209.539666 184.268323 
L 208.567911 184.268323 
z
" style="fill:#1f77b4;"/>
   </g>
   <g id="patch_132">
    <path clip-path="url(#pb3ecf336e1)" d="M 209.782605 288.430125 
L 210.75436 288.430125 
L 210.75436 184.268323 
L 209.782605 184.268323 
z
" style="fill:#1f77b4;"/>
   </g>
   <g id="patch_133">
    <path clip-path="url(#pb3ecf336e1)" d="M 210.997298 288.430125 
L 211.969054 288.430125 
L 211.969054 184.268323 
L 210.997298 184.268323 
z
" style="fill:#1f77b4;"/>
   </g>
   <g id="patch_134">
    <path clip-path="url(#pb3ecf336e1)" d="M 212.211992 288.430125 
L 213.183747 288.430125 
L 213.183747 184.268323 
L 212.211992 184.268323 
z
" style="fill:#1f77b4;"/>
   </g>
   <g id="patch_135">
    <path clip-path="url(#pb3ecf336e1)" d="M 213.426686 288.430125 
L 214.398441 288.430125 
L 214.398441 184.268323 
L 213.426686 184.268323 
z
" style="fill:#1f77b4;"/>
   </g>
   <g id="patch_136">
    <path clip-path="url(#pb3ecf336e1)" d="M 214.64138 288.430125 
L 215.613135 288.430125 
L 215.613135 184.268323 
L 214.64138 184.268323 
z
" style="fill:#1f77b4;"/>
   </g>
   <g id="patch_137">
    <path clip-path="url(#pb3ecf336e1)" d="M 215.856074 288.430125 
L 216.827829 288.430125 
L 216.827829 184.268323 
L 215.856074 184.268323 
z
" style="fill:#1f77b4;"/>
   </g>
   <g id="patch_138">
    <path clip-path="url(#pb3ecf336e1)" d="M 217.070768 288.430125 
L 218.042523 288.430125 
L 218.042523 184.268323 
L 217.070768 184.268323 
z
" style="fill:#1f77b4;"/>
   </g>
   <g id="patch_139">
    <path clip-path="url(#pb3ecf336e1)" d="M 218.285462 288.430125 
L 219.257217 288.430125 
L 219.257217 184.268323 
L 218.285462 184.268323 
z
" style="fill:#1f77b4;"/>
   </g>
   <g id="patch_140">
    <path clip-path="url(#pb3ecf336e1)" d="M 219.500156 288.430125 
L 220.471911 288.430125 
L 220.471911 184.268323 
L 219.500156 184.268323 
z
" style="fill:#1f77b4;"/>
   </g>
   <g id="patch_141">
    <path clip-path="url(#pb3ecf336e1)" d="M 220.714849 288.430125 
L 221.686605 288.430125 
L 221.686605 184.268323 
L 220.714849 184.268323 
z
" style="fill:#1f77b4;"/>
   </g>
   <g id="patch_142">
    <path clip-path="url(#pb3ecf336e1)" d="M 221.929543 288.430125 
L 222.901298 288.430125 
L 222.901298 184.268323 
L 221.929543 184.268323 
z
" style="fill:#1f77b4;"/>
   </g>
   <g id="patch_143">
    <path clip-path="url(#pb3ecf336e1)" d="M 223.144237 288.430125 
L 224.115992 288.430125 
L 224.115992 184.268323 
L 223.144237 184.268323 
z
" style="fill:#1f77b4;"/>
   </g>
   <g id="patch_144">
    <path clip-path="url(#pb3ecf336e1)" d="M 224.358931 288.430125 
L 225.330686 288.430125 
L 225.330686 184.268323 
L 224.358931 184.268323 
z
" style="fill:#1f77b4;"/>
   </g>
   <g id="patch_145">
    <path clip-path="url(#pb3ecf336e1)" d="M 225.573625 288.430125 
L 226.54538 288.430125 
L 226.54538 184.268323 
L 225.573625 184.268323 
z
" style="fill:#1f77b4;"/>
   </g>
   <g id="patch_146">
    <path clip-path="url(#pb3ecf336e1)" d="M 226.788319 288.430125 
L 227.760074 288.430125 
L 227.760074 184.268323 
L 226.788319 184.268323 
z
" style="fill:#1f77b4;"/>
   </g>
   <g id="patch_147">
    <path clip-path="url(#pb3ecf336e1)" d="M 228.003013 288.430125 
L 228.974768 288.430125 
L 228.974768 184.268323 
L 228.003013 184.268323 
z
" style="fill:#1f77b4;"/>
   </g>
   <g id="patch_148">
    <path clip-path="url(#pb3ecf336e1)" d="M 229.217707 288.430125 
L 230.189462 288.430125 
L 230.189462 184.268323 
L 229.217707 184.268323 
z
" style="fill:#1f77b4;"/>
   </g>
   <g id="patch_149">
    <path clip-path="url(#pb3ecf336e1)" d="M 230.432401 288.430125 
L 231.404156 288.430125 
L 231.404156 184.268323 
L 230.432401 184.268323 
z
" style="fill:#1f77b4;"/>
   </g>
   <g id="patch_150">
    <path clip-path="url(#pb3ecf336e1)" d="M 231.647094 288.430125 
L 232.618849 288.430125 
L 232.618849 184.268323 
L 231.647094 184.268323 
z
" style="fill:#1f77b4;"/>
   </g>
   <g id="patch_151">
    <path clip-path="url(#pb3ecf336e1)" d="M 232.861788 288.430125 
L 233.833543 288.430125 
L 233.833543 184.268323 
L 232.861788 184.268323 
z
" style="fill:#1f77b4;"/>
   </g>
   <g id="patch_152">
    <path clip-path="url(#pb3ecf336e1)" d="M 234.076482 288.430125 
L 235.048237 288.430125 
L 235.048237 184.268323 
L 234.076482 184.268323 
z
" style="fill:#1f77b4;"/>
   </g>
   <g id="patch_153">
    <path clip-path="url(#pb3ecf336e1)" d="M 235.291176 288.430125 
L 236.262931 288.430125 
L 236.262931 184.268323 
L 235.291176 184.268323 
z
" style="fill:#1f77b4;"/>
   </g>
   <g id="patch_154">
    <path clip-path="url(#pb3ecf336e1)" d="M 236.50587 288.430125 
L 237.477625 288.430125 
L 237.477625 184.268323 
L 236.50587 184.268323 
z
" style="fill:#1f77b4;"/>
   </g>
   <g id="patch_155">
    <path clip-path="url(#pb3ecf336e1)" d="M 237.720564 288.430125 
L 238.692319 288.430125 
L 238.692319 184.268323 
L 237.720564 184.268323 
z
" style="fill:#1f77b4;"/>
   </g>
   <g id="patch_156">
    <path clip-path="url(#pb3ecf336e1)" d="M 238.935258 288.430125 
L 239.907013 288.430125 
L 239.907013 184.268323 
L 238.935258 184.268323 
z
" style="fill:#1f77b4;"/>
   </g>
   <g id="patch_157">
    <path clip-path="url(#pb3ecf336e1)" d="M 240.149952 288.430125 
L 241.121707 288.430125 
L 241.121707 184.268323 
L 240.149952 184.268323 
z
" style="fill:#1f77b4;"/>
   </g>
   <g id="patch_158">
    <path clip-path="url(#pb3ecf336e1)" d="M 241.364645 288.430125 
L 242.336401 288.430125 
L 242.336401 184.268323 
L 241.364645 184.268323 
z
" style="fill:#1f77b4;"/>
   </g>
   <g id="patch_159">
    <path clip-path="url(#pb3ecf336e1)" d="M 242.579339 288.430125 
L 243.551094 288.430125 
L 243.551094 184.268323 
L 242.579339 184.268323 
z
" style="fill:#1f77b4;"/>
   </g>
   <g id="patch_160">
    <path clip-path="url(#pb3ecf336e1)" d="M 243.794033 288.430125 
L 244.765788 288.430125 
L 244.765788 184.268323 
L 243.794033 184.268323 
z
" style="fill:#1f77b4;"/>
   </g>
   <g id="patch_161">
    <path clip-path="url(#pb3ecf336e1)" d="M 245.008727 288.430125 
L 245.980482 288.430125 
L 245.980482 184.268323 
L 245.008727 184.268323 
z
" style="fill:#1f77b4;"/>
   </g>
   <g id="patch_162">
    <path clip-path="url(#pb3ecf336e1)" d="M 246.223421 288.430125 
L 247.195176 288.430125 
L 247.195176 184.268323 
L 246.223421 184.268323 
z
" style="fill:#1f77b4;"/>
   </g>
   <g id="patch_163">
    <path clip-path="url(#pb3ecf336e1)" d="M 247.438115 288.430125 
L 248.40987 288.430125 
L 248.40987 184.268323 
L 247.438115 184.268323 
z
" style="fill:#1f77b4;"/>
   </g>
   <g id="patch_164">
    <path clip-path="url(#pb3ecf336e1)" d="M 248.652809 288.430125 
L 249.624564 288.430125 
L 249.624564 184.268323 
L 248.652809 184.268323 
z
" style="fill:#1f77b4;"/>
   </g>
   <g id="patch_165">
    <path clip-path="url(#pb3ecf336e1)" d="M 249.867503 288.430125 
L 250.839258 288.430125 
L 250.839258 184.268323 
L 249.867503 184.268323 
z
" style="fill:#1f77b4;"/>
   </g>
   <g id="patch_166">
    <path clip-path="url(#pb3ecf336e1)" d="M 251.082196 288.430125 
L 252.053952 288.430125 
L 252.053952 184.98176 
L 251.082196 184.98176 
z
" style="fill:#1f77b4;"/>
   </g>
   <g id="patch_167">
    <path clip-path="url(#pb3ecf336e1)" d="M 252.29689 288.430125 
L 253.268645 288.430125 
L 253.268645 184.268323 
L 252.29689 184.268323 
z
" style="fill:#1f77b4;"/>
   </g>
   <g id="patch_168">
    <path clip-path="url(#pb3ecf336e1)" d="M 253.511584 288.430125 
L 254.483339 288.430125 
L 254.483339 184.268323 
L 253.511584 184.268323 
z
" style="fill:#1f77b4;"/>
   </g>
   <g id="patch_169">
    <path clip-path="url(#pb3ecf336e1)" d="M 254.726278 288.430125 
L 255.698033 288.430125 
L 255.698033 184.268323 
L 254.726278 184.268323 
z
" style="fill:#1f77b4;"/>
   </g>
   <g id="patch_170">
    <path clip-path="url(#pb3ecf336e1)" d="M 255.940972 288.430125 
L 256.912727 288.430125 
L 256.912727 184.268323 
L 255.940972 184.268323 
z
" style="fill:#1f77b4;"/>
   </g>
   <g id="patch_171">
    <path clip-path="url(#pb3ecf336e1)" d="M 257.155666 288.430125 
L 258.127421 288.430125 
L 258.127421 184.268323 
L 257.155666 184.268323 
z
" style="fill:#1f77b4;"/>
   </g>
   <g id="patch_172">
    <path clip-path="url(#pb3ecf336e1)" d="M 258.37036 288.430125 
L 259.342115 288.430125 
L 259.342115 184.268323 
L 258.37036 184.268323 
z
" style="fill:#1f77b4;"/>
   </g>
   <g id="patch_173">
    <path clip-path="url(#pb3ecf336e1)" d="M 259.585054 288.430125 
L 260.556809 288.430125 
L 260.556809 184.268323 
L 259.585054 184.268323 
z
" style="fill:#1f77b4;"/>
   </g>
   <g id="patch_174">
    <path clip-path="url(#pb3ecf336e1)" d="M 260.799747 288.430125 
L 261.771503 288.430125 
L 261.771503 184.268323 
L 260.799747 184.268323 
z
" style="fill:#1f77b4;"/>
   </g>
   <g id="patch_175">
    <path clip-path="url(#pb3ecf336e1)" d="M 262.014441 288.430125 
L 262.986196 288.430125 
L 262.986196 184.268323 
L 262.014441 184.268323 
z
" style="fill:#1f77b4;"/>
   </g>
   <g id="patch_176">
    <path clip-path="url(#pb3ecf336e1)" d="M 263.229135 288.430125 
L 264.20089 288.430125 
L 264.20089 184.268323 
L 263.229135 184.268323 
z
" style="fill:#1f77b4;"/>
   </g>
   <g id="patch_177">
    <path clip-path="url(#pb3ecf336e1)" d="M 264.443829 288.430125 
L 265.415584 288.430125 
L 265.415584 184.268323 
L 264.443829 184.268323 
z
" style="fill:#1f77b4;"/>
   </g>
   <g id="patch_178">
    <path clip-path="url(#pb3ecf336e1)" d="M 265.658523 288.430125 
L 266.630278 288.430125 
L 266.630278 184.268323 
L 265.658523 184.268323 
z
" style="fill:#1f77b4;"/>
   </g>
   <g id="patch_179">
    <path clip-path="url(#pb3ecf336e1)" d="M 266.873217 288.430125 
L 267.844972 288.430125 
L 267.844972 184.268323 
L 266.873217 184.268323 
z
" style="fill:#1f77b4;"/>
   </g>
   <g id="patch_180">
    <path clip-path="url(#pb3ecf336e1)" d="M 268.087911 288.430125 
L 269.059666 288.430125 
L 269.059666 184.268323 
L 268.087911 184.268323 
z
" style="fill:#1f77b4;"/>
   </g>
   <g id="patch_181">
    <path clip-path="url(#pb3ecf336e1)" d="M 269.302605 288.430125 
L 270.27436 288.430125 
L 270.27436 184.268323 
L 269.302605 184.268323 
z
" style="fill:#1f77b4;"/>
   </g>
   <g id="patch_182">
    <path clip-path="url(#pb3ecf336e1)" d="M 270.517298 288.430125 
L 271.489054 288.430125 
L 271.489054 184.268323 
L 270.517298 184.268323 
z
" style="fill:#1f77b4;"/>
   </g>
   <g id="patch_183">
    <path clip-path="url(#pb3ecf336e1)" d="M 271.731992 288.430125 
L 272.703747 288.430125 
L 272.703747 184.268323 
L 271.731992 184.268323 
z
" style="fill:#1f77b4;"/>
   </g>
   <g id="patch_184">
    <path clip-path="url(#pb3ecf336e1)" d="M 272.946686 288.430125 
L 273.918441 288.430125 
L 273.918441 184.268323 
L 272.946686 184.268323 
z
" style="fill:#1f77b4;"/>
   </g>
   <g id="patch_185">
    <path clip-path="url(#pb3ecf336e1)" d="M 274.16138 288.430125 
L 275.133135 288.430125 
L 275.133135 184.268323 
L 274.16138 184.268323 
z
" style="fill:#1f77b4;"/>
   </g>
   <g id="patch_186">
    <path clip-path="url(#pb3ecf336e1)" d="M 275.376074 288.430125 
L 276.347829 288.430125 
L 276.347829 184.268323 
L 275.376074 184.268323 
z
" style="fill:#1f77b4;"/>
   </g>
   <g id="patch_187">
    <path clip-path="url(#pb3ecf336e1)" d="M 276.590768 288.430125 
L 277.562523 288.430125 
L 277.562523 184.268323 
L 276.590768 184.268323 
z
" style="fill:#1f77b4;"/>
   </g>
   <g id="patch_188">
    <path clip-path="url(#pb3ecf336e1)" d="M 277.805462 288.430125 
L 278.777217 288.430125 
L 278.777217 184.268323 
L 277.805462 184.268323 
z
" style="fill:#1f77b4;"/>
   </g>
   <g id="patch_189">
    <path clip-path="url(#pb3ecf336e1)" d="M 279.020156 288.430125 
L 279.991911 288.430125 
L 279.991911 184.268323 
L 279.020156 184.268323 
z
" style="fill:#1f77b4;"/>
   </g>
   <g id="patch_190">
    <path clip-path="url(#pb3ecf336e1)" d="M 280.234849 288.430125 
L 281.206605 288.430125 
L 281.206605 184.268323 
L 280.234849 184.268323 
z
" style="fill:#1f77b4;"/>
   </g>
   <g id="patch_191">
    <path clip-path="url(#pb3ecf336e1)" d="M 281.449543 288.430125 
L 282.421298 288.430125 
L 282.421298 184.268323 
L 281.449543 184.268323 
z
" style="fill:#1f77b4;"/>
   </g>
   <g id="patch_192">
    <path clip-path="url(#pb3ecf336e1)" d="M 282.664237 288.430125 
L 283.635992 288.430125 
L 283.635992 184.268323 
L 282.664237 184.268323 
z
" style="fill:#1f77b4;"/>
   </g>
   <g id="patch_193">
    <path clip-path="url(#pb3ecf336e1)" d="M 283.878931 288.430125 
L 284.850686 288.430125 
L 284.850686 184.268323 
L 283.878931 184.268323 
z
" style="fill:#1f77b4;"/>
   </g>
   <g id="patch_194">
    <path clip-path="url(#pb3ecf336e1)" d="M 285.093625 288.430125 
L 286.06538 288.430125 
L 286.06538 184.268323 
L 285.093625 184.268323 
z
" style="fill:#1f77b4;"/>
   </g>
   <g id="patch_195">
    <path clip-path="url(#pb3ecf336e1)" d="M 286.308319 288.430125 
L 287.280074 288.430125 
L 287.280074 184.268323 
L 286.308319 184.268323 
z
" style="fill:#1f77b4;"/>
   </g>
   <g id="patch_196">
    <path clip-path="url(#pb3ecf336e1)" d="M 287.523013 288.430125 
L 288.494768 288.430125 
L 288.494768 184.268323 
L 287.523013 184.268323 
z
" style="fill:#1f77b4;"/>
   </g>
   <g id="patch_197">
    <path clip-path="url(#pb3ecf336e1)" d="M 288.737707 288.430125 
L 289.709462 288.430125 
L 289.709462 184.268323 
L 288.737707 184.268323 
z
" style="fill:#1f77b4;"/>
   </g>
   <g id="patch_198">
    <path clip-path="url(#pb3ecf336e1)" d="M 289.952401 288.430125 
L 290.924156 288.430125 
L 290.924156 184.268323 
L 289.952401 184.268323 
z
" style="fill:#1f77b4;"/>
   </g>
   <g id="patch_199">
    <path clip-path="url(#pb3ecf336e1)" d="M 291.167094 288.430125 
L 292.138849 288.430125 
L 292.138849 184.268323 
L 291.167094 184.268323 
z
" style="fill:#1f77b4;"/>
   </g>
   <g id="patch_200">
    <path clip-path="url(#pb3ecf336e1)" d="M 292.381788 288.430125 
L 293.353543 288.430125 
L 293.353543 184.268323 
L 292.381788 184.268323 
z
" style="fill:#1f77b4;"/>
   </g>
   <g id="patch_201">
    <path clip-path="url(#pb3ecf336e1)" d="M 293.596482 288.430125 
L 294.568237 288.430125 
L 294.568237 184.268323 
L 293.596482 184.268323 
z
" style="fill:#1f77b4;"/>
   </g>
   <g id="patch_202">
    <path clip-path="url(#pb3ecf336e1)" d="M 294.811176 288.430125 
L 295.782931 288.430125 
L 295.782931 184.268323 
L 294.811176 184.268323 
z
" style="fill:#1f77b4;"/>
   </g>
   <g id="patch_203">
    <path clip-path="url(#pb3ecf336e1)" d="M 296.02587 288.430125 
L 296.997625 288.430125 
L 296.997625 184.268323 
L 296.02587 184.268323 
z
" style="fill:#1f77b4;"/>
   </g>
   <g id="patch_204">
    <path clip-path="url(#pb3ecf336e1)" d="M 297.240564 288.430125 
L 298.212319 288.430125 
L 298.212319 184.268323 
L 297.240564 184.268323 
z
" style="fill:#1f77b4;"/>
   </g>
   <g id="patch_205">
    <path clip-path="url(#pb3ecf336e1)" d="M 298.455258 288.430125 
L 299.427013 288.430125 
L 299.427013 184.268323 
L 298.455258 184.268323 
z
" style="fill:#1f77b4;"/>
   </g>
   <g id="patch_206">
    <path clip-path="url(#pb3ecf336e1)" d="M 299.669952 288.430125 
L 300.641707 288.430125 
L 300.641707 184.268323 
L 299.669952 184.268323 
z
" style="fill:#1f77b4;"/>
   </g>
   <g id="patch_207">
    <path clip-path="url(#pb3ecf336e1)" d="M 300.884645 288.430125 
L 301.856401 288.430125 
L 301.856401 184.268323 
L 300.884645 184.268323 
z
" style="fill:#1f77b4;"/>
   </g>
   <g id="patch_208">
    <path clip-path="url(#pb3ecf336e1)" d="M 302.099339 288.430125 
L 303.071094 288.430125 
L 303.071094 184.268323 
L 302.099339 184.268323 
z
" style="fill:#1f77b4;"/>
   </g>
   <g id="patch_209">
    <path clip-path="url(#pb3ecf336e1)" d="M 303.314033 288.430125 
L 304.285788 288.430125 
L 304.285788 184.268323 
L 303.314033 184.268323 
z
" style="fill:#1f77b4;"/>
   </g>
   <g id="patch_210">
    <path clip-path="url(#pb3ecf336e1)" d="M 304.528727 288.430125 
L 305.500482 288.430125 
L 305.500482 184.268323 
L 304.528727 184.268323 
z
" style="fill:#1f77b4;"/>
   </g>
   <g id="patch_211">
    <path clip-path="url(#pb3ecf336e1)" d="M 305.743421 288.430125 
L 306.715176 288.430125 
L 306.715176 184.268323 
L 305.743421 184.268323 
z
" style="fill:#1f77b4;"/>
   </g>
   <g id="patch_212">
    <path clip-path="url(#pb3ecf336e1)" d="M 306.958115 288.430125 
L 307.92987 288.430125 
L 307.92987 184.268323 
L 306.958115 184.268323 
z
" style="fill:#1f77b4;"/>
   </g>
   <g id="patch_213">
    <path clip-path="url(#pb3ecf336e1)" d="M 308.172809 288.430125 
L 309.144564 288.430125 
L 309.144564 183.911605 
L 308.172809 183.911605 
z
" style="fill:#1f77b4;"/>
   </g>
   <g id="patch_214">
    <path clip-path="url(#pb3ecf336e1)" d="M 309.387503 288.430125 
L 310.359258 288.430125 
L 310.359258 183.911605 
L 309.387503 183.911605 
z
" style="fill:#1f77b4;"/>
   </g>
   <g id="patch_215">
    <path clip-path="url(#pb3ecf336e1)" d="M 310.602196 288.430125 
L 311.573952 288.430125 
L 311.573952 183.911605 
L 310.602196 183.911605 
z
" style="fill:#1f77b4;"/>
   </g>
   <g id="patch_216">
    <path clip-path="url(#pb3ecf336e1)" d="M 311.81689 288.430125 
L 312.788645 288.430125 
L 312.788645 183.911605 
L 311.81689 183.911605 
z
" style="fill:#1f77b4;"/>
   </g>
   <g id="patch_217">
    <path clip-path="url(#pb3ecf336e1)" d="M 313.031584 288.430125 
L 314.003339 288.430125 
L 314.003339 183.911605 
L 313.031584 183.911605 
z
" style="fill:#1f77b4;"/>
   </g>
   <g id="patch_218">
    <path clip-path="url(#pb3ecf336e1)" d="M 314.246278 288.430125 
L 315.218033 288.430125 
L 315.218033 183.911605 
L 314.246278 183.911605 
z
" style="fill:#1f77b4;"/>
   </g>
   <g id="patch_219">
    <path clip-path="url(#pb3ecf336e1)" d="M 315.460972 288.430125 
L 316.432727 288.430125 
L 316.432727 183.911605 
L 315.460972 183.911605 
z
" style="fill:#1f77b4;"/>
   </g>
   <g id="patch_220">
    <path clip-path="url(#pb3ecf336e1)" d="M 316.675666 288.430125 
L 317.647421 288.430125 
L 317.647421 183.911605 
L 316.675666 183.911605 
z
" style="fill:#1f77b4;"/>
   </g>
   <g id="patch_221">
    <path clip-path="url(#pb3ecf336e1)" d="M 317.89036 288.430125 
L 318.862115 288.430125 
L 318.862115 183.554886 
L 317.89036 183.554886 
z
" style="fill:#1f77b4;"/>
   </g>
   <g id="patch_222">
    <path clip-path="url(#pb3ecf336e1)" d="M 319.105054 288.430125 
L 320.076809 288.430125 
L 320.076809 183.554886 
L 319.105054 183.554886 
z
" style="fill:#1f77b4;"/>
   </g>
   <g id="patch_223">
    <path clip-path="url(#pb3ecf336e1)" d="M 320.319747 288.430125 
L 321.291503 288.430125 
L 321.291503 182.841449 
L 320.319747 182.841449 
z
" style="fill:#1f77b4;"/>
   </g>
   <g id="patch_224">
    <path clip-path="url(#pb3ecf336e1)" d="M 321.534441 288.430125 
L 322.506196 288.430125 
L 322.506196 182.841449 
L 321.534441 182.841449 
z
" style="fill:#1f77b4;"/>
   </g>
   <g id="patch_225">
    <path clip-path="url(#pb3ecf336e1)" d="M 322.749135 288.430125 
L 323.72089 288.430125 
L 323.72089 182.841449 
L 322.749135 182.841449 
z
" style="fill:#1f77b4;"/>
   </g>
   <g id="patch_226">
    <path clip-path="url(#pb3ecf336e1)" d="M 323.963829 288.430125 
L 324.935584 288.430125 
L 324.935584 182.841449 
L 323.963829 182.841449 
z
" style="fill:#1f77b4;"/>
   </g>
   <g id="patch_227">
    <path clip-path="url(#pb3ecf336e1)" d="M 325.178523 288.430125 
L 326.150278 288.430125 
L 326.150278 182.841449 
L 325.178523 182.841449 
z
" style="fill:#1f77b4;"/>
   </g>
   <g id="patch_228">
    <path clip-path="url(#pb3ecf336e1)" d="M 326.393217 288.430125 
L 327.364972 288.430125 
L 327.364972 181.771294 
L 326.393217 181.771294 
z
" style="fill:#1f77b4;"/>
   </g>
   <g id="patch_229">
    <path clip-path="url(#pb3ecf336e1)" d="M 327.607911 288.430125 
L 328.579666 288.430125 
L 328.579666 181.414575 
L 327.607911 181.414575 
z
" style="fill:#1f77b4;"/>
   </g>
   <g id="patch_230">
    <path clip-path="url(#pb3ecf336e1)" d="M 328.822605 288.430125 
L 329.79436 288.430125 
L 329.79436 179.987701 
L 328.822605 179.987701 
z
" style="fill:#1f77b4;"/>
   </g>
   <g id="patch_231">
    <path clip-path="url(#pb3ecf336e1)" d="M 330.037298 288.430125 
L 331.009054 288.430125 
L 331.009054 179.274264 
L 330.037298 179.274264 
z
" style="fill:#1f77b4;"/>
   </g>
   <g id="patch_232">
    <path clip-path="url(#pb3ecf336e1)" d="M 331.251992 288.430125 
L 332.223747 288.430125 
L 332.223747 178.560827 
L 331.251992 178.560827 
z
" style="fill:#1f77b4;"/>
   </g>
   <g id="patch_233">
    <path clip-path="url(#pb3ecf336e1)" d="M 332.466686 288.430125 
L 333.438441 288.430125 
L 333.438441 177.133953 
L 332.466686 177.133953 
z
" style="fill:#1f77b4;"/>
   </g>
   <g id="patch_234">
    <path clip-path="url(#pb3ecf336e1)" d="M 333.68138 288.430125 
L 334.653135 288.430125 
L 334.653135 176.063798 
L 333.68138 176.063798 
z
" style="fill:#1f77b4;"/>
   </g>
   <g id="patch_235">
    <path clip-path="url(#pb3ecf336e1)" d="M 334.896074 288.430125 
L 335.867829 288.430125 
L 335.867829 174.636924 
L 334.896074 174.636924 
z
" style="fill:#1f77b4;"/>
   </g>
   <g id="patch_236">
    <path clip-path="url(#pb3ecf336e1)" d="M 336.110768 288.430125 
L 337.082523 288.430125 
L 337.082523 174.280205 
L 336.110768 174.280205 
z
" style="fill:#1f77b4;"/>
   </g>
   <g id="patch_237">
    <path clip-path="url(#pb3ecf336e1)" d="M 337.325462 288.430125 
L 338.297217 288.430125 
L 338.297217 173.566768 
L 337.325462 173.566768 
z
" style="fill:#1f77b4;"/>
   </g>
   <g id="patch_238">
    <path clip-path="url(#pb3ecf336e1)" d="M 338.540156 288.430125 
L 339.511911 288.430125 
L 339.511911 172.139894 
L 338.540156 172.139894 
z
" style="fill:#1f77b4;"/>
   </g>
   <g id="patch_239">
    <path clip-path="url(#pb3ecf336e1)" d="M 339.754849 288.430125 
L 340.726605 288.430125 
L 340.726605 170.71302 
L 339.754849 170.71302 
z
" style="fill:#1f77b4;"/>
   </g>
   <g id="patch_240">
    <path clip-path="url(#pb3ecf336e1)" d="M 340.969543 288.430125 
L 341.941298 288.430125 
L 341.941298 168.215991 
L 340.969543 168.215991 
z
" style="fill:#1f77b4;"/>
   </g>
   <g id="patch_241">
    <path clip-path="url(#pb3ecf336e1)" d="M 342.184237 288.430125 
L 343.155992 288.430125 
L 343.155992 166.789117 
L 342.184237 166.789117 
z
" style="fill:#1f77b4;"/>
   </g>
   <g id="patch_242">
    <path clip-path="url(#pb3ecf336e1)" d="M 343.398931 288.430125 
L 344.370686 288.430125 
L 344.370686 165.362243 
L 343.398931 165.362243 
z
" style="fill:#1f77b4;"/>
   </g>
   <g id="patch_243">
    <path clip-path="url(#pb3ecf336e1)" d="M 344.613625 288.430125 
L 345.58538 288.430125 
L 345.58538 163.57865 
L 344.613625 163.57865 
z
" style="fill:#1f77b4;"/>
   </g>
   <g id="patch_244">
    <path clip-path="url(#pb3ecf336e1)" d="M 345.828319 288.430125 
L 346.800074 288.430125 
L 346.800074 160.368184 
L 345.828319 160.368184 
z
" style="fill:#1f77b4;"/>
   </g>
   <g id="patch_245">
    <path clip-path="url(#pb3ecf336e1)" d="M 347.043013 288.430125 
L 348.014768 288.430125 
L 348.014768 158.227873 
L 347.043013 158.227873 
z
" style="fill:#1f77b4;"/>
   </g>
   <g id="patch_246">
    <path clip-path="url(#pb3ecf336e1)" d="M 348.257707 288.430125 
L 349.229462 288.430125 
L 349.229462 155.017407 
L 348.257707 155.017407 
z
" style="fill:#1f77b4;"/>
   </g>
   <g id="patch_247">
    <path clip-path="url(#pb3ecf336e1)" d="M 349.472401 288.430125 
L 350.444156 288.430125 
L 350.444156 153.233814 
L 349.472401 153.233814 
z
" style="fill:#1f77b4;"/>
   </g>
   <g id="patch_248">
    <path clip-path="url(#pb3ecf336e1)" d="M 350.687094 288.430125 
L 351.658849 288.430125 
L 351.658849 146.456163 
L 350.687094 146.456163 
z
" style="fill:#1f77b4;"/>
   </g>
   <g id="patch_249">
    <path clip-path="url(#pb3ecf336e1)" d="M 351.901788 288.430125 
L 352.873543 288.430125 
L 352.873543 143.959133 
L 351.901788 143.959133 
z
" style="fill:#1f77b4;"/>
   </g>
   <g id="patch_250">
    <path clip-path="url(#pb3ecf336e1)" d="M 353.116482 288.430125 
L 354.088237 288.430125 
L 354.088237 140.748667 
L 353.116482 140.748667 
z
" style="fill:#1f77b4;"/>
   </g>
   <g id="patch_251">
    <path clip-path="url(#pb3ecf336e1)" d="M 354.331176 288.430125 
L 355.302931 288.430125 
L 355.302931 136.824763 
L 354.331176 136.824763 
z
" style="fill:#1f77b4;"/>
   </g>
   <g id="patch_252">
    <path clip-path="url(#pb3ecf336e1)" d="M 355.54587 288.430125 
L 356.517625 288.430125 
L 356.517625 132.187423 
L 355.54587 132.187423 
z
" style="fill:#1f77b4;"/>
   </g>
   <g id="patch_253">
    <path clip-path="url(#pb3ecf336e1)" d="M 356.760564 288.430125 
L 357.732319 288.430125 
L 357.732319 129.333675 
L 356.760564 129.333675 
z
" style="fill:#1f77b4;"/>
   </g>
   <g id="patch_254">
    <path clip-path="url(#pb3ecf336e1)" d="M 357.975258 288.430125 
L 358.947013 288.430125 
L 358.947013 123.626179 
L 357.975258 123.626179 
z
" style="fill:#1f77b4;"/>
   </g>
   <g id="patch_255">
    <path clip-path="url(#pb3ecf336e1)" d="M 359.189952 288.430125 
L 360.161707 288.430125 
L 360.161707 121.129149 
L 359.189952 121.129149 
z
" style="fill:#1f77b4;"/>
   </g>
   <g id="patch_256">
    <path clip-path="url(#pb3ecf336e1)" d="M 360.404645 288.430125 
L 361.376401 288.430125 
L 361.376401 119.345557 
L 360.404645 119.345557 
z
" style="fill:#1f77b4;"/>
   </g>
   <g id="patch_257">
    <path clip-path="url(#pb3ecf336e1)" d="M 361.619339 288.430125 
L 362.591094 288.430125 
L 362.591094 113.638061 
L 361.619339 113.638061 
z
" style="fill:#1f77b4;"/>
   </g>
   <g id="patch_258">
    <path clip-path="url(#pb3ecf336e1)" d="M 362.834033 288.430125 
L 363.805788 288.430125 
L 363.805788 110.784313 
L 362.834033 110.784313 
z
" style="fill:#1f77b4;"/>
   </g>
   <g id="patch_259">
    <path clip-path="url(#pb3ecf336e1)" d="M 364.048727 288.430125 
L 365.020482 288.430125 
L 365.020482 106.860409 
L 364.048727 106.860409 
z
" style="fill:#1f77b4;"/>
   </g>
   <g id="patch_260">
    <path clip-path="url(#pb3ecf336e1)" d="M 365.263421 288.430125 
L 366.235176 288.430125 
L 366.235176 102.936506 
L 365.263421 102.936506 
z
" style="fill:#1f77b4;"/>
   </g>
   <g id="patch_261">
    <path clip-path="url(#pb3ecf336e1)" d="M 366.478115 288.430125 
L 367.44987 288.430125 
L 367.44987 101.86635 
L 366.478115 101.86635 
z
" style="fill:#1f77b4;"/>
   </g>
   <g id="patch_262">
    <path clip-path="url(#pb3ecf336e1)" d="M 367.692809 288.430125 
L 368.664564 288.430125 
L 368.664564 99.369321 
L 367.692809 99.369321 
z
" style="fill:#1f77b4;"/>
   </g>
   <g id="patch_263">
    <path clip-path="url(#pb3ecf336e1)" d="M 368.907503 288.430125 
L 369.879258 288.430125 
L 369.879258 99.012602 
L 368.907503 99.012602 
z
" style="fill:#1f77b4;"/>
   </g>
   <g id="patch_264">
    <path clip-path="url(#pb3ecf336e1)" d="M 370.122196 288.430125 
L 371.093952 288.430125 
L 371.093952 97.585728 
L 370.122196 97.585728 
z
" style="fill:#1f77b4;"/>
   </g>
   <g id="patch_265">
    <path clip-path="url(#pb3ecf336e1)" d="M 371.33689 288.430125 
L 372.308645 288.430125 
L 372.308645 95.088699 
L 371.33689 95.088699 
z
" style="fill:#1f77b4;"/>
   </g>
   <g id="patch_266">
    <path clip-path="url(#pb3ecf336e1)" d="M 372.551584 288.430125 
L 373.523339 288.430125 
L 373.523339 89.381203 
L 372.551584 89.381203 
z
" style="fill:#1f77b4;"/>
   </g>
   <g id="patch_267">
    <path clip-path="url(#pb3ecf336e1)" d="M 373.766278 288.430125 
L 374.738033 288.430125 
L 374.738033 85.457299 
L 373.766278 85.457299 
z
" style="fill:#1f77b4;"/>
   </g>
   <g id="patch_268">
    <path clip-path="url(#pb3ecf336e1)" d="M 374.980972 288.430125 
L 375.952727 288.430125 
L 375.952727 84.387144 
L 374.980972 84.387144 
z
" style="fill:#1f77b4;"/>
   </g>
   <g id="patch_269">
    <path clip-path="url(#pb3ecf336e1)" d="M 376.195666 288.430125 
L 377.167421 288.430125 
L 377.167421 82.246833 
L 376.195666 82.246833 
z
" style="fill:#1f77b4;"/>
   </g>
   <g id="patch_270">
    <path clip-path="url(#pb3ecf336e1)" d="M 377.41036 288.430125 
L 378.382115 288.430125 
L 378.382115 80.46324 
L 377.41036 80.46324 
z
" style="fill:#1f77b4;"/>
   </g>
   <g id="patch_271">
    <path clip-path="url(#pb3ecf336e1)" d="M 378.625054 288.430125 
L 379.596809 288.430125 
L 379.596809 76.539337 
L 378.625054 76.539337 
z
" style="fill:#1f77b4;"/>
   </g>
   <g id="patch_272">
    <path clip-path="url(#pb3ecf336e1)" d="M 379.839747 288.430125 
L 380.811503 288.430125 
L 380.811503 72.972152 
L 379.839747 72.972152 
z
" style="fill:#1f77b4;"/>
   </g>
   <g id="patch_273">
    <path clip-path="url(#pb3ecf336e1)" d="M 381.054441 288.430125 
L 382.026196 288.430125 
L 382.026196 70.118404 
L 381.054441 70.118404 
z
" style="fill:#1f77b4;"/>
   </g>
   <g id="patch_274">
    <path clip-path="url(#pb3ecf336e1)" d="M 382.269135 288.430125 
L 383.24089 288.430125 
L 383.24089 64.054189 
L 382.269135 64.054189 
z
" style="fill:#1f77b4;"/>
   </g>
   <g id="patch_275">
    <path clip-path="url(#pb3ecf336e1)" d="M 383.483829 288.430125 
L 384.455584 288.430125 
L 384.455584 62.270597 
L 383.483829 62.270597 
z
" style="fill:#1f77b4;"/>
   </g>
   <g id="patch_276">
    <path clip-path="url(#pb3ecf336e1)" d="M 384.698523 288.430125 
L 385.670278 288.430125 
L 385.670278 60.843723 
L 384.698523 60.843723 
z
" style="fill:#1f77b4;"/>
   </g>
   <g id="patch_277">
    <path clip-path="url(#pb3ecf336e1)" d="M 385.913217 288.430125 
L 386.884972 288.430125 
L 386.884972 57.633256 
L 385.913217 57.633256 
z
" style="fill:#1f77b4;"/>
   </g>
   <g id="patch_278">
    <path clip-path="url(#pb3ecf336e1)" d="M 387.127911 288.430125 
L 388.099666 288.430125 
L 388.099666 54.066071 
L 387.127911 54.066071 
z
" style="fill:#1f77b4;"/>
   </g>
   <g id="patch_279">
    <path clip-path="url(#pb3ecf336e1)" d="M 388.342605 288.430125 
L 389.31436 288.430125 
L 389.31436 50.142168 
L 388.342605 50.142168 
z
" style="fill:#1f77b4;"/>
   </g>
   <g id="patch_280">
    <path clip-path="url(#pb3ecf336e1)" d="M 389.557298 288.430125 
L 390.529054 288.430125 
L 390.529054 48.358575 
L 389.557298 48.358575 
z
" style="fill:#1f77b4;"/>
   </g>
   <g id="patch_281">
    <path clip-path="url(#pb3ecf336e1)" d="M 390.771992 288.430125 
L 391.743747 288.430125 
L 391.743747 46.218264 
L 390.771992 46.218264 
z
" style="fill:#1f77b4;"/>
   </g>
   <g id="patch_282">
    <path clip-path="url(#pb3ecf336e1)" d="M 391.986686 288.430125 
L 392.958441 288.430125 
L 392.958441 43.364516 
L 391.986686 43.364516 
z
" style="fill:#1f77b4;"/>
   </g>
   <g id="patch_283">
    <path clip-path="url(#pb3ecf336e1)" d="M 393.20138 288.430125 
L 394.173135 288.430125 
L 394.173135 42.294361 
L 393.20138 42.294361 
z
" style="fill:#1f77b4;"/>
   </g>
   <g id="patch_284">
    <path clip-path="url(#pb3ecf336e1)" d="M 394.416074 288.430125 
L 395.387829 288.430125 
L 395.387829 41.580924 
L 394.416074 41.580924 
z
" style="fill:#1f77b4;"/>
   </g>
   <g id="patch_285">
    <path clip-path="url(#pb3ecf336e1)" d="M 395.630768 288.430125 
L 396.602523 288.430125 
L 396.602523 39.440613 
L 395.630768 39.440613 
z
" style="fill:#1f77b4;"/>
   </g>
   <g id="patch_286">
    <path clip-path="url(#pb3ecf336e1)" d="M 396.845462 288.430125 
L 397.817217 288.430125 
L 397.817217 39.083894 
L 396.845462 39.083894 
z
" style="fill:#1f77b4;"/>
   </g>
   <g id="patch_287">
    <path clip-path="url(#pb3ecf336e1)" d="M 398.060156 288.430125 
L 399.031911 288.430125 
L 399.031911 37.300302 
L 398.060156 37.300302 
z
" style="fill:#1f77b4;"/>
   </g>
   <g id="patch_288">
    <path clip-path="url(#pb3ecf336e1)" d="M 399.274849 288.430125 
L 400.246605 288.430125 
L 400.246605 34.803272 
L 399.274849 34.803272 
z
" style="fill:#1f77b4;"/>
   </g>
   <g id="patch_289">
    <path clip-path="url(#pb3ecf336e1)" d="M 400.489543 288.430125 
L 401.461298 288.430125 
L 401.461298 32.306243 
L 400.489543 32.306243 
z
" style="fill:#1f77b4;"/>
   </g>
   <g id="patch_290">
    <path clip-path="url(#pb3ecf336e1)" d="M 401.704237 288.430125 
L 402.675992 288.430125 
L 402.675992 31.592806 
L 401.704237 31.592806 
z
" style="fill:#1f77b4;"/>
   </g>
   <g id="patch_291">
    <path clip-path="url(#pb3ecf336e1)" d="M 402.918931 288.430125 
L 403.890686 288.430125 
L 403.890686 30.879369 
L 402.918931 30.879369 
z
" style="fill:#1f77b4;"/>
   </g>
   <g id="patch_292">
    <path clip-path="url(#pb3ecf336e1)" d="M 404.133625 288.430125 
L 405.10538 288.430125 
L 405.10538 28.382339 
L 404.133625 28.382339 
z
" style="fill:#1f77b4;"/>
   </g>
   <g id="patch_293">
    <path clip-path="url(#pb3ecf336e1)" d="M 405.348319 288.430125 
L 406.320074 288.430125 
L 406.320074 27.668902 
L 405.348319 27.668902 
z
" style="fill:#1f77b4;"/>
   </g>
   <g id="patch_294">
    <path clip-path="url(#pb3ecf336e1)" d="M 406.563013 288.430125 
L 407.534768 288.430125 
L 407.534768 24.815154 
L 406.563013 24.815154 
z
" style="fill:#1f77b4;"/>
   </g>
   <g id="patch_295">
    <path clip-path="url(#pb3ecf336e1)" d="M 407.777707 288.430125 
L 408.749462 288.430125 
L 408.749462 23.744999 
L 407.777707 23.744999 
z
" style="fill:#1f77b4;"/>
   </g>
   <g id="patch_296">
    <path clip-path="url(#pb3ecf336e1)" d="M 408.992401 288.430125 
L 409.964156 288.430125 
L 409.964156 22.318125 
L 408.992401 22.318125 
z
" style="fill:#1f77b4;"/>
   </g>
   <g id="matplotlib.axis_1">
    <g id="xtick_1">
     <g id="line2d_1">
      <defs>
       <path d="M 0 0 
L 0 3.5 
" id="mb1eafa17a1" style="stroke:#000000;stroke-width:0.8;"/>
      </defs>
      <g>
       <use style="stroke:#000000;stroke-width:0.8;" x="74.222768" xlink:href="#mb1eafa17a1" y="288.430125"/>
      </g>
     </g>
     <g id="text_1">
      <!-- 2020-04 -->
      <g transform="translate(76.982143 337.212937)rotate(-90)scale(0.1 -0.1)">
       <defs>
        <path d="M 19.1875 8.296875 
L 53.609375 8.296875 
L 53.609375 0 
L 7.328125 0 
L 7.328125 8.296875 
Q 12.9375 14.109375 22.625 23.890625 
Q 32.328125 33.6875 34.8125 36.53125 
Q 39.546875 41.84375 41.421875 45.53125 
Q 43.3125 49.21875 43.3125 52.78125 
Q 43.3125 58.59375 39.234375 62.25 
Q 35.15625 65.921875 28.609375 65.921875 
Q 23.96875 65.921875 18.8125 64.3125 
Q 13.671875 62.703125 7.8125 59.421875 
L 7.8125 69.390625 
Q 13.765625 71.78125 18.9375 73 
Q 24.125 74.21875 28.421875 74.21875 
Q 39.75 74.21875 46.484375 68.546875 
Q 53.21875 62.890625 53.21875 53.421875 
Q 53.21875 48.921875 51.53125 44.890625 
Q 49.859375 40.875 45.40625 35.40625 
Q 44.1875 33.984375 37.640625 27.21875 
Q 31.109375 20.453125 19.1875 8.296875 
z
" id="DejaVuSans-50"/>
        <path d="M 31.78125 66.40625 
Q 24.171875 66.40625 20.328125 58.90625 
Q 16.5 51.421875 16.5 36.375 
Q 16.5 21.390625 20.328125 13.890625 
Q 24.171875 6.390625 31.78125 6.390625 
Q 39.453125 6.390625 43.28125 13.890625 
Q 47.125 21.390625 47.125 36.375 
Q 47.125 51.421875 43.28125 58.90625 
Q 39.453125 66.40625 31.78125 66.40625 
z
M 31.78125 74.21875 
Q 44.046875 74.21875 50.515625 64.515625 
Q 56.984375 54.828125 56.984375 36.375 
Q 56.984375 17.96875 50.515625 8.265625 
Q 44.046875 -1.421875 31.78125 -1.421875 
Q 19.53125 -1.421875 13.0625 8.265625 
Q 6.59375 17.96875 6.59375 36.375 
Q 6.59375 54.828125 13.0625 64.515625 
Q 19.53125 74.21875 31.78125 74.21875 
z
" id="DejaVuSans-48"/>
        <path d="M 4.890625 31.390625 
L 31.203125 31.390625 
L 31.203125 23.390625 
L 4.890625 23.390625 
z
" id="DejaVuSans-45"/>
        <path d="M 37.796875 64.3125 
L 12.890625 25.390625 
L 37.796875 25.390625 
z
M 35.203125 72.90625 
L 47.609375 72.90625 
L 47.609375 25.390625 
L 58.015625 25.390625 
L 58.015625 17.1875 
L 47.609375 17.1875 
L 47.609375 0 
L 37.796875 0 
L 37.796875 17.1875 
L 4.890625 17.1875 
L 4.890625 26.703125 
z
" id="DejaVuSans-52"/>
       </defs>
       <use xlink:href="#DejaVuSans-50"/>
       <use x="63.623047" xlink:href="#DejaVuSans-48"/>
       <use x="127.246094" xlink:href="#DejaVuSans-50"/>
       <use x="190.869141" xlink:href="#DejaVuSans-48"/>
       <use x="254.492188" xlink:href="#DejaVuSans-45"/>
       <use x="290.576172" xlink:href="#DejaVuSans-48"/>
       <use x="354.199219" xlink:href="#DejaVuSans-52"/>
      </g>
     </g>
    </g>
    <g id="xtick_2">
     <g id="line2d_2">
      <g>
       <use style="stroke:#000000;stroke-width:0.8;" x="110.663584" xlink:href="#mb1eafa17a1" y="288.430125"/>
      </g>
     </g>
     <g id="text_2">
      <!-- 2020-05 -->
      <g transform="translate(113.422959 337.212937)rotate(-90)scale(0.1 -0.1)">
       <defs>
        <path d="M 10.796875 72.90625 
L 49.515625 72.90625 
L 49.515625 64.59375 
L 19.828125 64.59375 
L 19.828125 46.734375 
Q 21.96875 47.46875 24.109375 47.828125 
Q 26.265625 48.1875 28.421875 48.1875 
Q 40.625 48.1875 47.75 41.5 
Q 54.890625 34.8125 54.890625 23.390625 
Q 54.890625 11.625 47.5625 5.09375 
Q 40.234375 -1.421875 26.90625 -1.421875 
Q 22.3125 -1.421875 17.546875 -0.640625 
Q 12.796875 0.140625 7.71875 1.703125 
L 7.71875 11.625 
Q 12.109375 9.234375 16.796875 8.0625 
Q 21.484375 6.890625 26.703125 6.890625 
Q 35.15625 6.890625 40.078125 11.328125 
Q 45.015625 15.765625 45.015625 23.390625 
Q 45.015625 31 40.078125 35.4375 
Q 35.15625 39.890625 26.703125 39.890625 
Q 22.75 39.890625 18.8125 39.015625 
Q 14.890625 38.140625 10.796875 36.28125 
z
" id="DejaVuSans-53"/>
       </defs>
       <use xlink:href="#DejaVuSans-50"/>
       <use x="63.623047" xlink:href="#DejaVuSans-48"/>
       <use x="127.246094" xlink:href="#DejaVuSans-50"/>
       <use x="190.869141" xlink:href="#DejaVuSans-48"/>
       <use x="254.492188" xlink:href="#DejaVuSans-45"/>
       <use x="290.576172" xlink:href="#DejaVuSans-48"/>
       <use x="354.199219" xlink:href="#DejaVuSans-53"/>
      </g>
     </g>
    </g>
    <g id="xtick_3">
     <g id="line2d_3">
      <g>
       <use style="stroke:#000000;stroke-width:0.8;" x="148.319094" xlink:href="#mb1eafa17a1" y="288.430125"/>
      </g>
     </g>
     <g id="text_3">
      <!-- 2020-06 -->
      <g transform="translate(151.078469 337.212937)rotate(-90)scale(0.1 -0.1)">
       <defs>
        <path d="M 33.015625 40.375 
Q 26.375 40.375 22.484375 35.828125 
Q 18.609375 31.296875 18.609375 23.390625 
Q 18.609375 15.53125 22.484375 10.953125 
Q 26.375 6.390625 33.015625 6.390625 
Q 39.65625 6.390625 43.53125 10.953125 
Q 47.40625 15.53125 47.40625 23.390625 
Q 47.40625 31.296875 43.53125 35.828125 
Q 39.65625 40.375 33.015625 40.375 
z
M 52.59375 71.296875 
L 52.59375 62.3125 
Q 48.875 64.0625 45.09375 64.984375 
Q 41.3125 65.921875 37.59375 65.921875 
Q 27.828125 65.921875 22.671875 59.328125 
Q 17.53125 52.734375 16.796875 39.40625 
Q 19.671875 43.65625 24.015625 45.921875 
Q 28.375 48.1875 33.59375 48.1875 
Q 44.578125 48.1875 50.953125 41.515625 
Q 57.328125 34.859375 57.328125 23.390625 
Q 57.328125 12.15625 50.6875 5.359375 
Q 44.046875 -1.421875 33.015625 -1.421875 
Q 20.359375 -1.421875 13.671875 8.265625 
Q 6.984375 17.96875 6.984375 36.375 
Q 6.984375 53.65625 15.1875 63.9375 
Q 23.390625 74.21875 37.203125 74.21875 
Q 40.921875 74.21875 44.703125 73.484375 
Q 48.484375 72.75 52.59375 71.296875 
z
" id="DejaVuSans-54"/>
       </defs>
       <use xlink:href="#DejaVuSans-50"/>
       <use x="63.623047" xlink:href="#DejaVuSans-48"/>
       <use x="127.246094" xlink:href="#DejaVuSans-50"/>
       <use x="190.869141" xlink:href="#DejaVuSans-48"/>
       <use x="254.492188" xlink:href="#DejaVuSans-45"/>
       <use x="290.576172" xlink:href="#DejaVuSans-48"/>
       <use x="354.199219" xlink:href="#DejaVuSans-54"/>
      </g>
     </g>
    </g>
    <g id="xtick_4">
     <g id="line2d_4">
      <g>
       <use style="stroke:#000000;stroke-width:0.8;" x="184.759911" xlink:href="#mb1eafa17a1" y="288.430125"/>
      </g>
     </g>
     <g id="text_4">
      <!-- 2020-07 -->
      <g transform="translate(187.519286 337.212937)rotate(-90)scale(0.1 -0.1)">
       <defs>
        <path d="M 8.203125 72.90625 
L 55.078125 72.90625 
L 55.078125 68.703125 
L 28.609375 0 
L 18.3125 0 
L 43.21875 64.59375 
L 8.203125 64.59375 
z
" id="DejaVuSans-55"/>
       </defs>
       <use xlink:href="#DejaVuSans-50"/>
       <use x="63.623047" xlink:href="#DejaVuSans-48"/>
       <use x="127.246094" xlink:href="#DejaVuSans-50"/>
       <use x="190.869141" xlink:href="#DejaVuSans-48"/>
       <use x="254.492188" xlink:href="#DejaVuSans-45"/>
       <use x="290.576172" xlink:href="#DejaVuSans-48"/>
       <use x="354.199219" xlink:href="#DejaVuSans-55"/>
      </g>
     </g>
    </g>
    <g id="xtick_5">
     <g id="line2d_5">
      <g>
       <use style="stroke:#000000;stroke-width:0.8;" x="222.415421" xlink:href="#mb1eafa17a1" y="288.430125"/>
      </g>
     </g>
     <g id="text_5">
      <!-- 2020-08 -->
      <g transform="translate(225.174796 337.212937)rotate(-90)scale(0.1 -0.1)">
       <defs>
        <path d="M 31.78125 34.625 
Q 24.75 34.625 20.71875 30.859375 
Q 16.703125 27.09375 16.703125 20.515625 
Q 16.703125 13.921875 20.71875 10.15625 
Q 24.75 6.390625 31.78125 6.390625 
Q 38.8125 6.390625 42.859375 10.171875 
Q 46.921875 13.96875 46.921875 20.515625 
Q 46.921875 27.09375 42.890625 30.859375 
Q 38.875 34.625 31.78125 34.625 
z
M 21.921875 38.8125 
Q 15.578125 40.375 12.03125 44.71875 
Q 8.5 49.078125 8.5 55.328125 
Q 8.5 64.0625 14.71875 69.140625 
Q 20.953125 74.21875 31.78125 74.21875 
Q 42.671875 74.21875 48.875 69.140625 
Q 55.078125 64.0625 55.078125 55.328125 
Q 55.078125 49.078125 51.53125 44.71875 
Q 48 40.375 41.703125 38.8125 
Q 48.828125 37.15625 52.796875 32.3125 
Q 56.78125 27.484375 56.78125 20.515625 
Q 56.78125 9.90625 50.3125 4.234375 
Q 43.84375 -1.421875 31.78125 -1.421875 
Q 19.734375 -1.421875 13.25 4.234375 
Q 6.78125 9.90625 6.78125 20.515625 
Q 6.78125 27.484375 10.78125 32.3125 
Q 14.796875 37.15625 21.921875 38.8125 
z
M 18.3125 54.390625 
Q 18.3125 48.734375 21.84375 45.5625 
Q 25.390625 42.390625 31.78125 42.390625 
Q 38.140625 42.390625 41.71875 45.5625 
Q 45.3125 48.734375 45.3125 54.390625 
Q 45.3125 60.0625 41.71875 63.234375 
Q 38.140625 66.40625 31.78125 66.40625 
Q 25.390625 66.40625 21.84375 63.234375 
Q 18.3125 60.0625 18.3125 54.390625 
z
" id="DejaVuSans-56"/>
       </defs>
       <use xlink:href="#DejaVuSans-50"/>
       <use x="63.623047" xlink:href="#DejaVuSans-48"/>
       <use x="127.246094" xlink:href="#DejaVuSans-50"/>
       <use x="190.869141" xlink:href="#DejaVuSans-48"/>
       <use x="254.492188" xlink:href="#DejaVuSans-45"/>
       <use x="290.576172" xlink:href="#DejaVuSans-48"/>
       <use x="354.199219" xlink:href="#DejaVuSans-56"/>
      </g>
     </g>
    </g>
    <g id="xtick_6">
     <g id="line2d_6">
      <g>
       <use style="stroke:#000000;stroke-width:0.8;" x="260.070931" xlink:href="#mb1eafa17a1" y="288.430125"/>
      </g>
     </g>
     <g id="text_6">
      <!-- 2020-09 -->
      <g transform="translate(262.830306 337.212937)rotate(-90)scale(0.1 -0.1)">
       <defs>
        <path d="M 10.984375 1.515625 
L 10.984375 10.5 
Q 14.703125 8.734375 18.5 7.8125 
Q 22.3125 6.890625 25.984375 6.890625 
Q 35.75 6.890625 40.890625 13.453125 
Q 46.046875 20.015625 46.78125 33.40625 
Q 43.953125 29.203125 39.59375 26.953125 
Q 35.25 24.703125 29.984375 24.703125 
Q 19.046875 24.703125 12.671875 31.3125 
Q 6.296875 37.9375 6.296875 49.421875 
Q 6.296875 60.640625 12.9375 67.421875 
Q 19.578125 74.21875 30.609375 74.21875 
Q 43.265625 74.21875 49.921875 64.515625 
Q 56.59375 54.828125 56.59375 36.375 
Q 56.59375 19.140625 48.40625 8.859375 
Q 40.234375 -1.421875 26.421875 -1.421875 
Q 22.703125 -1.421875 18.890625 -0.6875 
Q 15.09375 0.046875 10.984375 1.515625 
z
M 30.609375 32.421875 
Q 37.25 32.421875 41.125 36.953125 
Q 45.015625 41.5 45.015625 49.421875 
Q 45.015625 57.28125 41.125 61.84375 
Q 37.25 66.40625 30.609375 66.40625 
Q 23.96875 66.40625 20.09375 61.84375 
Q 16.21875 57.28125 16.21875 49.421875 
Q 16.21875 41.5 20.09375 36.953125 
Q 23.96875 32.421875 30.609375 32.421875 
z
" id="DejaVuSans-57"/>
       </defs>
       <use xlink:href="#DejaVuSans-50"/>
       <use x="63.623047" xlink:href="#DejaVuSans-48"/>
       <use x="127.246094" xlink:href="#DejaVuSans-50"/>
       <use x="190.869141" xlink:href="#DejaVuSans-48"/>
       <use x="254.492188" xlink:href="#DejaVuSans-45"/>
       <use x="290.576172" xlink:href="#DejaVuSans-48"/>
       <use x="354.199219" xlink:href="#DejaVuSans-57"/>
      </g>
     </g>
    </g>
    <g id="xtick_7">
     <g id="line2d_7">
      <g>
       <use style="stroke:#000000;stroke-width:0.8;" x="296.511747" xlink:href="#mb1eafa17a1" y="288.430125"/>
      </g>
     </g>
     <g id="text_7">
      <!-- 2020-10 -->
      <g transform="translate(299.271122 337.212937)rotate(-90)scale(0.1 -0.1)">
       <defs>
        <path d="M 12.40625 8.296875 
L 28.515625 8.296875 
L 28.515625 63.921875 
L 10.984375 60.40625 
L 10.984375 69.390625 
L 28.421875 72.90625 
L 38.28125 72.90625 
L 38.28125 8.296875 
L 54.390625 8.296875 
L 54.390625 0 
L 12.40625 0 
z
" id="DejaVuSans-49"/>
       </defs>
       <use xlink:href="#DejaVuSans-50"/>
       <use x="63.623047" xlink:href="#DejaVuSans-48"/>
       <use x="127.246094" xlink:href="#DejaVuSans-50"/>
       <use x="190.869141" xlink:href="#DejaVuSans-48"/>
       <use x="254.492188" xlink:href="#DejaVuSans-45"/>
       <use x="290.576172" xlink:href="#DejaVuSans-49"/>
       <use x="354.199219" xlink:href="#DejaVuSans-48"/>
      </g>
     </g>
    </g>
    <g id="xtick_8">
     <g id="line2d_8">
      <g>
       <use style="stroke:#000000;stroke-width:0.8;" x="334.167258" xlink:href="#mb1eafa17a1" y="288.430125"/>
      </g>
     </g>
     <g id="text_8">
      <!-- 2020-11 -->
      <g transform="translate(336.926633 337.212937)rotate(-90)scale(0.1 -0.1)">
       <use xlink:href="#DejaVuSans-50"/>
       <use x="63.623047" xlink:href="#DejaVuSans-48"/>
       <use x="127.246094" xlink:href="#DejaVuSans-50"/>
       <use x="190.869141" xlink:href="#DejaVuSans-48"/>
       <use x="254.492188" xlink:href="#DejaVuSans-45"/>
       <use x="290.576172" xlink:href="#DejaVuSans-49"/>
       <use x="354.199219" xlink:href="#DejaVuSans-49"/>
      </g>
     </g>
    </g>
    <g id="xtick_9">
     <g id="line2d_9">
      <g>
       <use style="stroke:#000000;stroke-width:0.8;" x="370.608074" xlink:href="#mb1eafa17a1" y="288.430125"/>
      </g>
     </g>
     <g id="text_9">
      <!-- 2020-12 -->
      <g transform="translate(373.367449 337.212937)rotate(-90)scale(0.1 -0.1)">
       <use xlink:href="#DejaVuSans-50"/>
       <use x="63.623047" xlink:href="#DejaVuSans-48"/>
       <use x="127.246094" xlink:href="#DejaVuSans-50"/>
       <use x="190.869141" xlink:href="#DejaVuSans-48"/>
       <use x="254.492188" xlink:href="#DejaVuSans-45"/>
       <use x="290.576172" xlink:href="#DejaVuSans-49"/>
       <use x="354.199219" xlink:href="#DejaVuSans-50"/>
      </g>
     </g>
    </g>
    <g id="xtick_10">
     <g id="line2d_10">
      <g>
       <use style="stroke:#000000;stroke-width:0.8;" x="408.263584" xlink:href="#mb1eafa17a1" y="288.430125"/>
      </g>
     </g>
     <g id="text_10">
      <!-- 2021-01 -->
      <g transform="translate(411.022959 337.212937)rotate(-90)scale(0.1 -0.1)">
       <use xlink:href="#DejaVuSans-50"/>
       <use x="63.623047" xlink:href="#DejaVuSans-48"/>
       <use x="127.246094" xlink:href="#DejaVuSans-50"/>
       <use x="190.869141" xlink:href="#DejaVuSans-49"/>
       <use x="254.492188" xlink:href="#DejaVuSans-45"/>
       <use x="290.576172" xlink:href="#DejaVuSans-48"/>
       <use x="354.199219" xlink:href="#DejaVuSans-49"/>
      </g>
     </g>
    </g>
    <g id="text_11">
     <!-- date -->
     <g transform="translate(220.250625 354.811375)scale(0.1 -0.1)">
      <defs>
       <path d="M 45.40625 46.390625 
L 45.40625 75.984375 
L 54.390625 75.984375 
L 54.390625 0 
L 45.40625 0 
L 45.40625 8.203125 
Q 42.578125 3.328125 38.25 0.953125 
Q 33.9375 -1.421875 27.875 -1.421875 
Q 17.96875 -1.421875 11.734375 6.484375 
Q 5.515625 14.40625 5.515625 27.296875 
Q 5.515625 40.1875 11.734375 48.09375 
Q 17.96875 56 27.875 56 
Q 33.9375 56 38.25 53.625 
Q 42.578125 51.265625 45.40625 46.390625 
z
M 14.796875 27.296875 
Q 14.796875 17.390625 18.875 11.75 
Q 22.953125 6.109375 30.078125 6.109375 
Q 37.203125 6.109375 41.296875 11.75 
Q 45.40625 17.390625 45.40625 27.296875 
Q 45.40625 37.203125 41.296875 42.84375 
Q 37.203125 48.484375 30.078125 48.484375 
Q 22.953125 48.484375 18.875 42.84375 
Q 14.796875 37.203125 14.796875 27.296875 
z
" id="DejaVuSans-100"/>
       <path d="M 34.28125 27.484375 
Q 23.390625 27.484375 19.1875 25 
Q 14.984375 22.515625 14.984375 16.5 
Q 14.984375 11.71875 18.140625 8.90625 
Q 21.296875 6.109375 26.703125 6.109375 
Q 34.1875 6.109375 38.703125 11.40625 
Q 43.21875 16.703125 43.21875 25.484375 
L 43.21875 27.484375 
z
M 52.203125 31.203125 
L 52.203125 0 
L 43.21875 0 
L 43.21875 8.296875 
Q 40.140625 3.328125 35.546875 0.953125 
Q 30.953125 -1.421875 24.3125 -1.421875 
Q 15.921875 -1.421875 10.953125 3.296875 
Q 6 8.015625 6 15.921875 
Q 6 25.140625 12.171875 29.828125 
Q 18.359375 34.515625 30.609375 34.515625 
L 43.21875 34.515625 
L 43.21875 35.40625 
Q 43.21875 41.609375 39.140625 45 
Q 35.0625 48.390625 27.6875 48.390625 
Q 23 48.390625 18.546875 47.265625 
Q 14.109375 46.140625 10.015625 43.890625 
L 10.015625 52.203125 
Q 14.9375 54.109375 19.578125 55.046875 
Q 24.21875 56 28.609375 56 
Q 40.484375 56 46.34375 49.84375 
Q 52.203125 43.703125 52.203125 31.203125 
z
" id="DejaVuSans-97"/>
       <path d="M 18.3125 70.21875 
L 18.3125 54.6875 
L 36.8125 54.6875 
L 36.8125 47.703125 
L 18.3125 47.703125 
L 18.3125 18.015625 
Q 18.3125 11.328125 20.140625 9.421875 
Q 21.96875 7.515625 27.59375 7.515625 
L 36.8125 7.515625 
L 36.8125 0 
L 27.59375 0 
Q 17.1875 0 13.234375 3.875 
Q 9.28125 7.765625 9.28125 18.015625 
L 9.28125 47.703125 
L 2.6875 47.703125 
L 2.6875 54.6875 
L 9.28125 54.6875 
L 9.28125 70.21875 
z
" id="DejaVuSans-116"/>
       <path d="M 56.203125 29.59375 
L 56.203125 25.203125 
L 14.890625 25.203125 
Q 15.484375 15.921875 20.484375 11.0625 
Q 25.484375 6.203125 34.421875 6.203125 
Q 39.59375 6.203125 44.453125 7.46875 
Q 49.3125 8.734375 54.109375 11.28125 
L 54.109375 2.78125 
Q 49.265625 0.734375 44.1875 -0.34375 
Q 39.109375 -1.421875 33.890625 -1.421875 
Q 20.796875 -1.421875 13.15625 6.1875 
Q 5.515625 13.8125 5.515625 26.8125 
Q 5.515625 40.234375 12.765625 48.109375 
Q 20.015625 56 32.328125 56 
Q 43.359375 56 49.78125 48.890625 
Q 56.203125 41.796875 56.203125 29.59375 
z
M 47.21875 32.234375 
Q 47.125 39.59375 43.09375 43.984375 
Q 39.0625 48.390625 32.421875 48.390625 
Q 24.90625 48.390625 20.390625 44.140625 
Q 15.875 39.890625 15.1875 32.171875 
z
" id="DejaVuSans-101"/>
      </defs>
      <use xlink:href="#DejaVuSans-100"/>
      <use x="63.476562" xlink:href="#DejaVuSans-97"/>
      <use x="124.755859" xlink:href="#DejaVuSans-116"/>
      <use x="163.964844" xlink:href="#DejaVuSans-101"/>
     </g>
    </g>
   </g>
   <g id="matplotlib.axis_2">
    <g id="ytick_1">
     <g id="line2d_11">
      <defs>
       <path d="M 0 0 
L -3.5 0 
" id="mfa2fe15ff7" style="stroke:#000000;stroke-width:0.8;"/>
      </defs>
      <g>
       <use style="stroke:#000000;stroke-width:0.8;" x="52.965625" xlink:href="#mfa2fe15ff7" y="288.430125"/>
      </g>
     </g>
     <g id="text_12">
      <!-- 0 -->
      <g transform="translate(39.603125 292.229344)scale(0.1 -0.1)">
       <use xlink:href="#DejaVuSans-48"/>
      </g>
     </g>
    </g>
    <g id="ytick_2">
     <g id="line2d_12">
      <g>
       <use style="stroke:#000000;stroke-width:0.8;" x="52.965625" xlink:href="#mfa2fe15ff7" y="252.758275"/>
      </g>
     </g>
     <g id="text_13">
      <!-- 100 -->
      <g transform="translate(26.878125 256.557494)scale(0.1 -0.1)">
       <use xlink:href="#DejaVuSans-49"/>
       <use x="63.623047" xlink:href="#DejaVuSans-48"/>
       <use x="127.246094" xlink:href="#DejaVuSans-48"/>
      </g>
     </g>
    </g>
    <g id="ytick_3">
     <g id="line2d_13">
      <g>
       <use style="stroke:#000000;stroke-width:0.8;" x="52.965625" xlink:href="#mfa2fe15ff7" y="217.086425"/>
      </g>
     </g>
     <g id="text_14">
      <!-- 200 -->
      <g transform="translate(26.878125 220.885644)scale(0.1 -0.1)">
       <use xlink:href="#DejaVuSans-50"/>
       <use x="63.623047" xlink:href="#DejaVuSans-48"/>
       <use x="127.246094" xlink:href="#DejaVuSans-48"/>
      </g>
     </g>
    </g>
    <g id="ytick_4">
     <g id="line2d_14">
      <g>
       <use style="stroke:#000000;stroke-width:0.8;" x="52.965625" xlink:href="#mfa2fe15ff7" y="181.414575"/>
      </g>
     </g>
     <g id="text_15">
      <!-- 300 -->
      <g transform="translate(26.878125 185.213794)scale(0.1 -0.1)">
       <defs>
        <path d="M 40.578125 39.3125 
Q 47.65625 37.796875 51.625 33 
Q 55.609375 28.21875 55.609375 21.1875 
Q 55.609375 10.40625 48.1875 4.484375 
Q 40.765625 -1.421875 27.09375 -1.421875 
Q 22.515625 -1.421875 17.65625 -0.515625 
Q 12.796875 0.390625 7.625 2.203125 
L 7.625 11.71875 
Q 11.71875 9.328125 16.59375 8.109375 
Q 21.484375 6.890625 26.8125 6.890625 
Q 36.078125 6.890625 40.9375 10.546875 
Q 45.796875 14.203125 45.796875 21.1875 
Q 45.796875 27.640625 41.28125 31.265625 
Q 36.765625 34.90625 28.71875 34.90625 
L 20.21875 34.90625 
L 20.21875 43.015625 
L 29.109375 43.015625 
Q 36.375 43.015625 40.234375 45.921875 
Q 44.09375 48.828125 44.09375 54.296875 
Q 44.09375 59.90625 40.109375 62.90625 
Q 36.140625 65.921875 28.71875 65.921875 
Q 24.65625 65.921875 20.015625 65.03125 
Q 15.375 64.15625 9.8125 62.3125 
L 9.8125 71.09375 
Q 15.4375 72.65625 20.34375 73.4375 
Q 25.25 74.21875 29.59375 74.21875 
Q 40.828125 74.21875 47.359375 69.109375 
Q 53.90625 64.015625 53.90625 55.328125 
Q 53.90625 49.265625 50.4375 45.09375 
Q 46.96875 40.921875 40.578125 39.3125 
z
" id="DejaVuSans-51"/>
       </defs>
       <use xlink:href="#DejaVuSans-51"/>
       <use x="63.623047" xlink:href="#DejaVuSans-48"/>
       <use x="127.246094" xlink:href="#DejaVuSans-48"/>
      </g>
     </g>
    </g>
    <g id="ytick_5">
     <g id="line2d_15">
      <g>
       <use style="stroke:#000000;stroke-width:0.8;" x="52.965625" xlink:href="#mfa2fe15ff7" y="145.742726"/>
      </g>
     </g>
     <g id="text_16">
      <!-- 400 -->
      <g transform="translate(26.878125 149.541944)scale(0.1 -0.1)">
       <use xlink:href="#DejaVuSans-52"/>
       <use x="63.623047" xlink:href="#DejaVuSans-48"/>
       <use x="127.246094" xlink:href="#DejaVuSans-48"/>
      </g>
     </g>
    </g>
    <g id="ytick_6">
     <g id="line2d_16">
      <g>
       <use style="stroke:#000000;stroke-width:0.8;" x="52.965625" xlink:href="#mfa2fe15ff7" y="110.070876"/>
      </g>
     </g>
     <g id="text_17">
      <!-- 500 -->
      <g transform="translate(26.878125 113.870094)scale(0.1 -0.1)">
       <use xlink:href="#DejaVuSans-53"/>
       <use x="63.623047" xlink:href="#DejaVuSans-48"/>
       <use x="127.246094" xlink:href="#DejaVuSans-48"/>
      </g>
     </g>
    </g>
    <g id="ytick_7">
     <g id="line2d_17">
      <g>
       <use style="stroke:#000000;stroke-width:0.8;" x="52.965625" xlink:href="#mfa2fe15ff7" y="74.399026"/>
      </g>
     </g>
     <g id="text_18">
      <!-- 600 -->
      <g transform="translate(26.878125 78.198245)scale(0.1 -0.1)">
       <use xlink:href="#DejaVuSans-54"/>
       <use x="63.623047" xlink:href="#DejaVuSans-48"/>
       <use x="127.246094" xlink:href="#DejaVuSans-48"/>
      </g>
     </g>
    </g>
    <g id="ytick_8">
     <g id="line2d_18">
      <g>
       <use style="stroke:#000000;stroke-width:0.8;" x="52.965625" xlink:href="#mfa2fe15ff7" y="38.727176"/>
      </g>
     </g>
     <g id="text_19">
      <!-- 700 -->
      <g transform="translate(26.878125 42.526395)scale(0.1 -0.1)">
       <use xlink:href="#DejaVuSans-55"/>
       <use x="63.623047" xlink:href="#DejaVuSans-48"/>
       <use x="127.246094" xlink:href="#DejaVuSans-48"/>
      </g>
     </g>
    </g>
    <g id="text_20">
     <!-- cumulative number of corona fatalities -->
     <g transform="translate(14.798438 252.560062)rotate(-90)scale(0.1 -0.1)">
      <defs>
       <path d="M 48.78125 52.59375 
L 48.78125 44.1875 
Q 44.96875 46.296875 41.140625 47.34375 
Q 37.3125 48.390625 33.40625 48.390625 
Q 24.65625 48.390625 19.8125 42.84375 
Q 14.984375 37.3125 14.984375 27.296875 
Q 14.984375 17.28125 19.8125 11.734375 
Q 24.65625 6.203125 33.40625 6.203125 
Q 37.3125 6.203125 41.140625 7.25 
Q 44.96875 8.296875 48.78125 10.40625 
L 48.78125 2.09375 
Q 45.015625 0.34375 40.984375 -0.53125 
Q 36.96875 -1.421875 32.421875 -1.421875 
Q 20.0625 -1.421875 12.78125 6.34375 
Q 5.515625 14.109375 5.515625 27.296875 
Q 5.515625 40.671875 12.859375 48.328125 
Q 20.21875 56 33.015625 56 
Q 37.15625 56 41.109375 55.140625 
Q 45.0625 54.296875 48.78125 52.59375 
z
" id="DejaVuSans-99"/>
       <path d="M 8.5 21.578125 
L 8.5 54.6875 
L 17.484375 54.6875 
L 17.484375 21.921875 
Q 17.484375 14.15625 20.5 10.265625 
Q 23.53125 6.390625 29.59375 6.390625 
Q 36.859375 6.390625 41.078125 11.03125 
Q 45.3125 15.671875 45.3125 23.6875 
L 45.3125 54.6875 
L 54.296875 54.6875 
L 54.296875 0 
L 45.3125 0 
L 45.3125 8.40625 
Q 42.046875 3.421875 37.71875 1 
Q 33.40625 -1.421875 27.6875 -1.421875 
Q 18.265625 -1.421875 13.375 4.4375 
Q 8.5 10.296875 8.5 21.578125 
z
M 31.109375 56 
z
" id="DejaVuSans-117"/>
       <path d="M 52 44.1875 
Q 55.375 50.25 60.0625 53.125 
Q 64.75 56 71.09375 56 
Q 79.640625 56 84.28125 50.015625 
Q 88.921875 44.046875 88.921875 33.015625 
L 88.921875 0 
L 79.890625 0 
L 79.890625 32.71875 
Q 79.890625 40.578125 77.09375 44.375 
Q 74.3125 48.1875 68.609375 48.1875 
Q 61.625 48.1875 57.5625 43.546875 
Q 53.515625 38.921875 53.515625 30.90625 
L 53.515625 0 
L 44.484375 0 
L 44.484375 32.71875 
Q 44.484375 40.625 41.703125 44.40625 
Q 38.921875 48.1875 33.109375 48.1875 
Q 26.21875 48.1875 22.15625 43.53125 
Q 18.109375 38.875 18.109375 30.90625 
L 18.109375 0 
L 9.078125 0 
L 9.078125 54.6875 
L 18.109375 54.6875 
L 18.109375 46.1875 
Q 21.1875 51.21875 25.484375 53.609375 
Q 29.78125 56 35.6875 56 
Q 41.65625 56 45.828125 52.96875 
Q 50 49.953125 52 44.1875 
z
" id="DejaVuSans-109"/>
       <path d="M 9.421875 75.984375 
L 18.40625 75.984375 
L 18.40625 0 
L 9.421875 0 
z
" id="DejaVuSans-108"/>
       <path d="M 9.421875 54.6875 
L 18.40625 54.6875 
L 18.40625 0 
L 9.421875 0 
z
M 9.421875 75.984375 
L 18.40625 75.984375 
L 18.40625 64.59375 
L 9.421875 64.59375 
z
" id="DejaVuSans-105"/>
       <path d="M 2.984375 54.6875 
L 12.5 54.6875 
L 29.59375 8.796875 
L 46.6875 54.6875 
L 56.203125 54.6875 
L 35.6875 0 
L 23.484375 0 
z
" id="DejaVuSans-118"/>
       <path id="DejaVuSans-32"/>
       <path d="M 54.890625 33.015625 
L 54.890625 0 
L 45.90625 0 
L 45.90625 32.71875 
Q 45.90625 40.484375 42.875 44.328125 
Q 39.84375 48.1875 33.796875 48.1875 
Q 26.515625 48.1875 22.3125 43.546875 
Q 18.109375 38.921875 18.109375 30.90625 
L 18.109375 0 
L 9.078125 0 
L 9.078125 54.6875 
L 18.109375 54.6875 
L 18.109375 46.1875 
Q 21.34375 51.125 25.703125 53.5625 
Q 30.078125 56 35.796875 56 
Q 45.21875 56 50.046875 50.171875 
Q 54.890625 44.34375 54.890625 33.015625 
z
" id="DejaVuSans-110"/>
       <path d="M 48.6875 27.296875 
Q 48.6875 37.203125 44.609375 42.84375 
Q 40.53125 48.484375 33.40625 48.484375 
Q 26.265625 48.484375 22.1875 42.84375 
Q 18.109375 37.203125 18.109375 27.296875 
Q 18.109375 17.390625 22.1875 11.75 
Q 26.265625 6.109375 33.40625 6.109375 
Q 40.53125 6.109375 44.609375 11.75 
Q 48.6875 17.390625 48.6875 27.296875 
z
M 18.109375 46.390625 
Q 20.953125 51.265625 25.265625 53.625 
Q 29.59375 56 35.59375 56 
Q 45.5625 56 51.78125 48.09375 
Q 58.015625 40.1875 58.015625 27.296875 
Q 58.015625 14.40625 51.78125 6.484375 
Q 45.5625 -1.421875 35.59375 -1.421875 
Q 29.59375 -1.421875 25.265625 0.953125 
Q 20.953125 3.328125 18.109375 8.203125 
L 18.109375 0 
L 9.078125 0 
L 9.078125 75.984375 
L 18.109375 75.984375 
z
" id="DejaVuSans-98"/>
       <path d="M 41.109375 46.296875 
Q 39.59375 47.171875 37.8125 47.578125 
Q 36.03125 48 33.890625 48 
Q 26.265625 48 22.1875 43.046875 
Q 18.109375 38.09375 18.109375 28.8125 
L 18.109375 0 
L 9.078125 0 
L 9.078125 54.6875 
L 18.109375 54.6875 
L 18.109375 46.1875 
Q 20.953125 51.171875 25.484375 53.578125 
Q 30.03125 56 36.53125 56 
Q 37.453125 56 38.578125 55.875 
Q 39.703125 55.765625 41.0625 55.515625 
z
" id="DejaVuSans-114"/>
       <path d="M 30.609375 48.390625 
Q 23.390625 48.390625 19.1875 42.75 
Q 14.984375 37.109375 14.984375 27.296875 
Q 14.984375 17.484375 19.15625 11.84375 
Q 23.34375 6.203125 30.609375 6.203125 
Q 37.796875 6.203125 41.984375 11.859375 
Q 46.1875 17.53125 46.1875 27.296875 
Q 46.1875 37.015625 41.984375 42.703125 
Q 37.796875 48.390625 30.609375 48.390625 
z
M 30.609375 56 
Q 42.328125 56 49.015625 48.375 
Q 55.71875 40.765625 55.71875 27.296875 
Q 55.71875 13.875 49.015625 6.21875 
Q 42.328125 -1.421875 30.609375 -1.421875 
Q 18.84375 -1.421875 12.171875 6.21875 
Q 5.515625 13.875 5.515625 27.296875 
Q 5.515625 40.765625 12.171875 48.375 
Q 18.84375 56 30.609375 56 
z
" id="DejaVuSans-111"/>
       <path d="M 37.109375 75.984375 
L 37.109375 68.5 
L 28.515625 68.5 
Q 23.6875 68.5 21.796875 66.546875 
Q 19.921875 64.59375 19.921875 59.515625 
L 19.921875 54.6875 
L 34.71875 54.6875 
L 34.71875 47.703125 
L 19.921875 47.703125 
L 19.921875 0 
L 10.890625 0 
L 10.890625 47.703125 
L 2.296875 47.703125 
L 2.296875 54.6875 
L 10.890625 54.6875 
L 10.890625 58.5 
Q 10.890625 67.625 15.140625 71.796875 
Q 19.390625 75.984375 28.609375 75.984375 
z
" id="DejaVuSans-102"/>
       <path d="M 44.28125 53.078125 
L 44.28125 44.578125 
Q 40.484375 46.53125 36.375 47.5 
Q 32.28125 48.484375 27.875 48.484375 
Q 21.1875 48.484375 17.84375 46.4375 
Q 14.5 44.390625 14.5 40.28125 
Q 14.5 37.15625 16.890625 35.375 
Q 19.28125 33.59375 26.515625 31.984375 
L 29.59375 31.296875 
Q 39.15625 29.25 43.1875 25.515625 
Q 47.21875 21.78125 47.21875 15.09375 
Q 47.21875 7.46875 41.1875 3.015625 
Q 35.15625 -1.421875 24.609375 -1.421875 
Q 20.21875 -1.421875 15.453125 -0.5625 
Q 10.6875 0.296875 5.421875 2 
L 5.421875 11.28125 
Q 10.40625 8.6875 15.234375 7.390625 
Q 20.0625 6.109375 24.8125 6.109375 
Q 31.15625 6.109375 34.5625 8.28125 
Q 37.984375 10.453125 37.984375 14.40625 
Q 37.984375 18.0625 35.515625 20.015625 
Q 33.0625 21.96875 24.703125 23.78125 
L 21.578125 24.515625 
Q 13.234375 26.265625 9.515625 29.90625 
Q 5.8125 33.546875 5.8125 39.890625 
Q 5.8125 47.609375 11.28125 51.796875 
Q 16.75 56 26.8125 56 
Q 31.78125 56 36.171875 55.265625 
Q 40.578125 54.546875 44.28125 53.078125 
z
" id="DejaVuSans-115"/>
      </defs>
      <use xlink:href="#DejaVuSans-99"/>
      <use x="54.980469" xlink:href="#DejaVuSans-117"/>
      <use x="118.359375" xlink:href="#DejaVuSans-109"/>
      <use x="215.771484" xlink:href="#DejaVuSans-117"/>
      <use x="279.150391" xlink:href="#DejaVuSans-108"/>
      <use x="306.933594" xlink:href="#DejaVuSans-97"/>
      <use x="368.212891" xlink:href="#DejaVuSans-116"/>
      <use x="407.421875" xlink:href="#DejaVuSans-105"/>
      <use x="435.205078" xlink:href="#DejaVuSans-118"/>
      <use x="494.384766" xlink:href="#DejaVuSans-101"/>
      <use x="555.908203" xlink:href="#DejaVuSans-32"/>
      <use x="587.695312" xlink:href="#DejaVuSans-110"/>
      <use x="651.074219" xlink:href="#DejaVuSans-117"/>
      <use x="714.453125" xlink:href="#DejaVuSans-109"/>
      <use x="811.865234" xlink:href="#DejaVuSans-98"/>
      <use x="875.341797" xlink:href="#DejaVuSans-101"/>
      <use x="936.865234" xlink:href="#DejaVuSans-114"/>
      <use x="977.978516" xlink:href="#DejaVuSans-32"/>
      <use x="1009.765625" xlink:href="#DejaVuSans-111"/>
      <use x="1070.947266" xlink:href="#DejaVuSans-102"/>
      <use x="1106.152344" xlink:href="#DejaVuSans-32"/>
      <use x="1137.939453" xlink:href="#DejaVuSans-99"/>
      <use x="1192.919922" xlink:href="#DejaVuSans-111"/>
      <use x="1254.101562" xlink:href="#DejaVuSans-114"/>
      <use x="1292.964844" xlink:href="#DejaVuSans-111"/>
      <use x="1354.146484" xlink:href="#DejaVuSans-110"/>
      <use x="1417.525391" xlink:href="#DejaVuSans-97"/>
      <use x="1478.804688" xlink:href="#DejaVuSans-32"/>
      <use x="1510.591797" xlink:href="#DejaVuSans-102"/>
      <use x="1545.796875" xlink:href="#DejaVuSans-97"/>
      <use x="1607.076172" xlink:href="#DejaVuSans-116"/>
      <use x="1646.285156" xlink:href="#DejaVuSans-97"/>
      <use x="1707.564453" xlink:href="#DejaVuSans-108"/>
      <use x="1735.347656" xlink:href="#DejaVuSans-105"/>
      <use x="1763.130859" xlink:href="#DejaVuSans-116"/>
      <use x="1802.339844" xlink:href="#DejaVuSans-105"/>
      <use x="1830.123047" xlink:href="#DejaVuSans-101"/>
      <use x="1891.646484" xlink:href="#DejaVuSans-115"/>
     </g>
    </g>
   </g>
   <g id="patch_297">
    <path d="M 52.965625 288.430125 
L 52.965625 22.318125 
" style="fill:none;stroke:#000000;stroke-linecap:square;stroke-linejoin:miter;stroke-width:0.8;"/>
   </g>
   <g id="patch_298">
    <path d="M 52.965625 288.430125 
L 410.085625 288.430125 
" style="fill:none;stroke:#000000;stroke-linecap:square;stroke-linejoin:miter;stroke-width:0.8;"/>
   </g>
   <g id="text_21">
    <!-- South Tyrol -->
    <g transform="translate(198.233125 16.318125)scale(0.12 -0.12)">
     <defs>
      <path d="M 53.515625 70.515625 
L 53.515625 60.890625 
Q 47.90625 63.578125 42.921875 64.890625 
Q 37.9375 66.21875 33.296875 66.21875 
Q 25.25 66.21875 20.875 63.09375 
Q 16.5 59.96875 16.5 54.203125 
Q 16.5 49.359375 19.40625 46.890625 
Q 22.3125 44.4375 30.421875 42.921875 
L 36.375 41.703125 
Q 47.40625 39.59375 52.65625 34.296875 
Q 57.90625 29 57.90625 20.125 
Q 57.90625 9.515625 50.796875 4.046875 
Q 43.703125 -1.421875 29.984375 -1.421875 
Q 24.8125 -1.421875 18.96875 -0.25 
Q 13.140625 0.921875 6.890625 3.21875 
L 6.890625 13.375 
Q 12.890625 10.015625 18.65625 8.296875 
Q 24.421875 6.59375 29.984375 6.59375 
Q 38.421875 6.59375 43.015625 9.90625 
Q 47.609375 13.234375 47.609375 19.390625 
Q 47.609375 24.75 44.3125 27.78125 
Q 41.015625 30.8125 33.5 32.328125 
L 27.484375 33.5 
Q 16.453125 35.6875 11.515625 40.375 
Q 6.59375 45.0625 6.59375 53.421875 
Q 6.59375 63.09375 13.40625 68.65625 
Q 20.21875 74.21875 32.171875 74.21875 
Q 37.3125 74.21875 42.625 73.28125 
Q 47.953125 72.359375 53.515625 70.515625 
z
" id="DejaVuSans-83"/>
      <path d="M 54.890625 33.015625 
L 54.890625 0 
L 45.90625 0 
L 45.90625 32.71875 
Q 45.90625 40.484375 42.875 44.328125 
Q 39.84375 48.1875 33.796875 48.1875 
Q 26.515625 48.1875 22.3125 43.546875 
Q 18.109375 38.921875 18.109375 30.90625 
L 18.109375 0 
L 9.078125 0 
L 9.078125 75.984375 
L 18.109375 75.984375 
L 18.109375 46.1875 
Q 21.34375 51.125 25.703125 53.5625 
Q 30.078125 56 35.796875 56 
Q 45.21875 56 50.046875 50.171875 
Q 54.890625 44.34375 54.890625 33.015625 
z
" id="DejaVuSans-104"/>
      <path d="M -0.296875 72.90625 
L 61.375 72.90625 
L 61.375 64.59375 
L 35.5 64.59375 
L 35.5 0 
L 25.59375 0 
L 25.59375 64.59375 
L -0.296875 64.59375 
z
" id="DejaVuSans-84"/>
      <path d="M 32.171875 -5.078125 
Q 28.375 -14.84375 24.75 -17.8125 
Q 21.140625 -20.796875 15.09375 -20.796875 
L 7.90625 -20.796875 
L 7.90625 -13.28125 
L 13.1875 -13.28125 
Q 16.890625 -13.28125 18.9375 -11.515625 
Q 21 -9.765625 23.484375 -3.21875 
L 25.09375 0.875 
L 2.984375 54.6875 
L 12.5 54.6875 
L 29.59375 11.921875 
L 46.6875 54.6875 
L 56.203125 54.6875 
z
" id="DejaVuSans-121"/>
     </defs>
     <use xlink:href="#DejaVuSans-83"/>
     <use x="63.476562" xlink:href="#DejaVuSans-111"/>
     <use x="124.658203" xlink:href="#DejaVuSans-117"/>
     <use x="188.037109" xlink:href="#DejaVuSans-116"/>
     <use x="227.246094" xlink:href="#DejaVuSans-104"/>
     <use x="290.625" xlink:href="#DejaVuSans-32"/>
     <use x="322.412109" xlink:href="#DejaVuSans-84"/>
     <use x="367.871094" xlink:href="#DejaVuSans-121"/>
     <use x="427.050781" xlink:href="#DejaVuSans-114"/>
     <use x="465.914062" xlink:href="#DejaVuSans-111"/>
     <use x="527.095703" xlink:href="#DejaVuSans-108"/>
    </g>
   </g>
  </g>
 </g>
 <defs>
  <clipPath id="pb3ecf336e1">
   <rect height="266.112" width="357.12" x="52.965625" y="22.318125"/>
  </clipPath>
 </defs>
</svg>
