<?xml version="1.0" encoding="utf-8" standalone="no"?>
<!DOCTYPE svg PUBLIC "-//W3C//DTD SVG 1.1//EN"
  "http://www.w3.org/Graphics/SVG/1.1/DTD/svg11.dtd">
<!-- Created with matplotlib (https://matplotlib.org/) -->
<svg height="364.091062pt" version="1.1" viewBox="0 0 417.285625 364.091062" width="417.285625pt" xmlns="http://www.w3.org/2000/svg" xmlns:xlink="http://www.w3.org/1999/xlink">
 <metadata>
  <rdf:RDF xmlns:cc="http://creativecommons.org/ns#" xmlns:dc="http://purl.org/dc/elements/1.1/" xmlns:rdf="http://www.w3.org/1999/02/22-rdf-syntax-ns#">
   <cc:Work>
    <dc:type rdf:resource="http://purl.org/dc/dcmitype/StillImage"/>
    <dc:date>2020-12-05T12:51:43.364865</dc:date>
    <dc:format>image/svg+xml</dc:format>
    <dc:creator>
     <cc:Agent>
      <dc:title>Matplotlib v3.3.3, https://matplotlib.org/</dc:title>
     </cc:Agent>
    </dc:creator>
   </cc:Work>
  </rdf:RDF>
 </metadata>
 <defs>
  <style type="text/css">*{stroke-linecap:butt;stroke-linejoin:round;}</style>
 </defs>
 <g id="figure_1">
  <g id="patch_1">
   <path d="M 0 364.091062 
L 417.285625 364.091062 
L 417.285625 0 
L 0 0 
z
" style="fill:#ffffff;"/>
  </g>
  <g id="axes_1">
   <g id="patch_2">
    <path d="M 52.965625 288.430125 
L 410.085625 288.430125 
L 410.085625 22.318125 
L 52.965625 22.318125 
z
" style="fill:#ffffff;"/>
   </g>
   <g id="patch_3">
    <path clip-path="url(#pf4a386f78b)" d="M 53.099881 288.430125 
L 54.173926 288.430125 
L 54.173926 286.103971 
L 53.099881 286.103971 
z
" style="fill:#1f77b4;"/>
   </g>
   <g id="patch_4">
    <path clip-path="url(#pf4a386f78b)" d="M 54.442437 288.430125 
L 55.516482 288.430125 
L 55.516482 285.63874 
L 54.442437 285.63874 
z
" style="fill:#1f77b4;"/>
   </g>
   <g id="patch_5">
    <path clip-path="url(#pf4a386f78b)" d="M 55.784993 288.430125 
L 56.859039 288.430125 
L 56.859039 284.243048 
L 55.784993 284.243048 
z
" style="fill:#1f77b4;"/>
   </g>
   <g id="patch_6">
    <path clip-path="url(#pf4a386f78b)" d="M 57.12755 288.430125 
L 58.201595 288.430125 
L 58.201595 282.847356 
L 57.12755 282.847356 
z
" style="fill:#1f77b4;"/>
   </g>
   <g id="patch_7">
    <path clip-path="url(#pf4a386f78b)" d="M 58.470106 288.430125 
L 59.544151 288.430125 
L 59.544151 280.986433 
L 58.470106 280.986433 
z
" style="fill:#1f77b4;"/>
   </g>
   <g id="patch_8">
    <path clip-path="url(#pf4a386f78b)" d="M 59.812663 288.430125 
L 60.886708 288.430125 
L 60.886708 279.59074 
L 59.812663 279.59074 
z
" style="fill:#1f77b4;"/>
   </g>
   <g id="patch_9">
    <path clip-path="url(#pf4a386f78b)" d="M 61.155219 288.430125 
L 62.229264 288.430125 
L 62.229264 277.264587 
L 61.155219 277.264587 
z
" style="fill:#1f77b4;"/>
   </g>
   <g id="patch_10">
    <path clip-path="url(#pf4a386f78b)" d="M 62.497775 288.430125 
L 63.57182 288.430125 
L 63.57182 274.007971 
L 62.497775 274.007971 
z
" style="fill:#1f77b4;"/>
   </g>
   <g id="patch_11">
    <path clip-path="url(#pf4a386f78b)" d="M 63.840332 288.430125 
L 64.914377 288.430125 
L 64.914377 272.147048 
L 63.840332 272.147048 
z
" style="fill:#1f77b4;"/>
   </g>
   <g id="patch_12">
    <path clip-path="url(#pf4a386f78b)" d="M 65.182888 288.430125 
L 66.256933 288.430125 
L 66.256933 267.959971 
L 65.182888 267.959971 
z
" style="fill:#1f77b4;"/>
   </g>
   <g id="patch_13">
    <path clip-path="url(#pf4a386f78b)" d="M 66.525445 288.430125 
L 67.59949 288.430125 
L 67.59949 267.49474 
L 66.525445 267.49474 
z
" style="fill:#1f77b4;"/>
   </g>
   <g id="patch_14">
    <path clip-path="url(#pf4a386f78b)" d="M 67.868001 288.430125 
L 68.942046 288.430125 
L 68.942046 263.772894 
L 67.868001 263.772894 
z
" style="fill:#1f77b4;"/>
   </g>
   <g id="patch_15">
    <path clip-path="url(#pf4a386f78b)" d="M 69.210557 288.430125 
L 70.284602 288.430125 
L 70.284602 260.516279 
L 69.210557 260.516279 
z
" style="fill:#1f77b4;"/>
   </g>
   <g id="patch_16">
    <path clip-path="url(#pf4a386f78b)" d="M 70.553114 288.430125 
L 71.627159 288.430125 
L 71.627159 258.655356 
L 70.553114 258.655356 
z
" style="fill:#1f77b4;"/>
   </g>
   <g id="patch_17">
    <path clip-path="url(#pf4a386f78b)" d="M 71.89567 288.430125 
L 72.969715 288.430125 
L 72.969715 255.39874 
L 71.89567 255.39874 
z
" style="fill:#1f77b4;"/>
   </g>
   <g id="patch_18">
    <path clip-path="url(#pf4a386f78b)" d="M 73.238227 288.430125 
L 74.312272 288.430125 
L 74.312272 254.003048 
L 73.238227 254.003048 
z
" style="fill:#1f77b4;"/>
   </g>
   <g id="patch_19">
    <path clip-path="url(#pf4a386f78b)" d="M 74.580783 288.430125 
L 75.654828 288.430125 
L 75.654828 237.25474 
L 74.580783 237.25474 
z
" style="fill:#1f77b4;"/>
   </g>
   <g id="patch_20">
    <path clip-path="url(#pf4a386f78b)" d="M 75.923339 288.430125 
L 76.997384 288.430125 
L 76.997384 232.602433 
L 75.923339 232.602433 
z
" style="fill:#1f77b4;"/>
   </g>
   <g id="patch_21">
    <path clip-path="url(#pf4a386f78b)" d="M 77.265896 288.430125 
L 78.339941 288.430125 
L 78.339941 228.880587 
L 77.265896 228.880587 
z
" style="fill:#1f77b4;"/>
   </g>
   <g id="patch_22">
    <path clip-path="url(#pf4a386f78b)" d="M 78.608452 288.430125 
L 79.682497 288.430125 
L 79.682497 222.367356 
L 78.608452 222.367356 
z
" style="fill:#1f77b4;"/>
   </g>
   <g id="patch_23">
    <path clip-path="url(#pf4a386f78b)" d="M 79.951008 288.430125 
L 81.025054 288.430125 
L 81.025054 220.506433 
L 79.951008 220.506433 
z
" style="fill:#1f77b4;"/>
   </g>
   <g id="patch_24">
    <path clip-path="url(#pf4a386f78b)" d="M 81.293565 288.430125 
L 82.36761 288.430125 
L 82.36761 215.854125 
L 81.293565 215.854125 
z
" style="fill:#1f77b4;"/>
   </g>
   <g id="patch_25">
    <path clip-path="url(#pf4a386f78b)" d="M 82.636121 288.430125 
L 83.710166 288.430125 
L 83.710166 212.132279 
L 82.636121 212.132279 
z
" style="fill:#1f77b4;"/>
   </g>
   <g id="patch_26">
    <path clip-path="url(#pf4a386f78b)" d="M 83.978678 288.430125 
L 85.052723 288.430125 
L 85.052723 208.410433 
L 83.978678 208.410433 
z
" style="fill:#1f77b4;"/>
   </g>
   <g id="patch_27">
    <path clip-path="url(#pf4a386f78b)" d="M 85.321234 288.430125 
L 86.395279 288.430125 
L 86.395279 205.619048 
L 85.321234 205.619048 
z
" style="fill:#1f77b4;"/>
   </g>
   <g id="patch_28">
    <path clip-path="url(#pf4a386f78b)" d="M 86.66379 288.430125 
L 87.737836 288.430125 
L 87.737836 201.431971 
L 86.66379 201.431971 
z
" style="fill:#1f77b4;"/>
   </g>
   <g id="patch_29">
    <path clip-path="url(#pf4a386f78b)" d="M 88.006347 288.430125 
L 89.080392 288.430125 
L 89.080392 199.105817 
L 88.006347 199.105817 
z
" style="fill:#1f77b4;"/>
   </g>
   <g id="patch_30">
    <path clip-path="url(#pf4a386f78b)" d="M 89.348903 288.430125 
L 90.422948 288.430125 
L 90.422948 195.383971 
L 89.348903 195.383971 
z
" style="fill:#1f77b4;"/>
   </g>
   <g id="patch_31">
    <path clip-path="url(#pf4a386f78b)" d="M 90.69146 288.430125 
L 91.765505 288.430125 
L 91.765505 193.523048 
L 90.69146 193.523048 
z
" style="fill:#1f77b4;"/>
   </g>
   <g id="patch_32">
    <path clip-path="url(#pf4a386f78b)" d="M 92.034016 288.430125 
L 93.108061 288.430125 
L 93.108061 188.40551 
L 92.034016 188.40551 
z
" style="fill:#1f77b4;"/>
   </g>
   <g id="patch_33">
    <path clip-path="url(#pf4a386f78b)" d="M 93.376572 288.430125 
L 94.450617 288.430125 
L 94.450617 187.475048 
L 93.376572 187.475048 
z
" style="fill:#1f77b4;"/>
   </g>
   <g id="patch_34">
    <path clip-path="url(#pf4a386f78b)" d="M 94.719129 288.430125 
L 95.793174 288.430125 
L 95.793174 185.614125 
L 94.719129 185.614125 
z
" style="fill:#1f77b4;"/>
   </g>
   <g id="patch_35">
    <path clip-path="url(#pf4a386f78b)" d="M 96.061685 288.430125 
L 97.13573 288.430125 
L 97.13573 182.35751 
L 96.061685 182.35751 
z
" style="fill:#1f77b4;"/>
   </g>
   <g id="patch_36">
    <path clip-path="url(#pf4a386f78b)" d="M 97.404242 288.430125 
L 98.478287 288.430125 
L 98.478287 180.496587 
L 97.404242 180.496587 
z
" style="fill:#1f77b4;"/>
   </g>
   <g id="patch_37">
    <path clip-path="url(#pf4a386f78b)" d="M 98.746798 288.430125 
L 99.820843 288.430125 
L 99.820843 177.239971 
L 98.746798 177.239971 
z
" style="fill:#1f77b4;"/>
   </g>
   <g id="patch_38">
    <path clip-path="url(#pf4a386f78b)" d="M 100.089354 288.430125 
L 101.163399 288.430125 
L 101.163399 174.448587 
L 100.089354 174.448587 
z
" style="fill:#1f77b4;"/>
   </g>
   <g id="patch_39">
    <path clip-path="url(#pf4a386f78b)" d="M 101.431911 288.430125 
L 102.505956 288.430125 
L 102.505956 172.587663 
L 101.431911 172.587663 
z
" style="fill:#1f77b4;"/>
   </g>
   <g id="patch_40">
    <path clip-path="url(#pf4a386f78b)" d="M 102.774467 288.430125 
L 103.848512 288.430125 
L 103.848512 171.191971 
L 102.774467 171.191971 
z
" style="fill:#1f77b4;"/>
   </g>
   <g id="patch_41">
    <path clip-path="url(#pf4a386f78b)" d="M 104.117023 288.430125 
L 105.191069 288.430125 
L 105.191069 169.331048 
L 104.117023 169.331048 
z
" style="fill:#1f77b4;"/>
   </g>
   <g id="patch_42">
    <path clip-path="url(#pf4a386f78b)" d="M 105.45958 288.430125 
L 106.533625 288.430125 
L 106.533625 167.004894 
L 105.45958 167.004894 
z
" style="fill:#1f77b4;"/>
   </g>
   <g id="patch_43">
    <path clip-path="url(#pf4a386f78b)" d="M 106.802136 288.430125 
L 107.876181 288.430125 
L 107.876181 166.074433 
L 106.802136 166.074433 
z
" style="fill:#1f77b4;"/>
   </g>
   <g id="patch_44">
    <path clip-path="url(#pf4a386f78b)" d="M 108.144693 288.430125 
L 109.218738 288.430125 
L 109.218738 165.143971 
L 108.144693 165.143971 
z
" style="fill:#1f77b4;"/>
   </g>
   <g id="patch_45">
    <path clip-path="url(#pf4a386f78b)" d="M 109.487249 288.430125 
L 110.561294 288.430125 
L 110.561294 163.283048 
L 109.487249 163.283048 
z
" style="fill:#1f77b4;"/>
   </g>
   <g id="patch_46">
    <path clip-path="url(#pf4a386f78b)" d="M 110.829805 288.430125 
L 111.903851 288.430125 
L 111.903851 162.817817 
L 110.829805 162.817817 
z
" style="fill:#1f77b4;"/>
   </g>
   <g id="patch_47">
    <path clip-path="url(#pf4a386f78b)" d="M 112.172362 288.430125 
L 113.246407 288.430125 
L 113.246407 161.887356 
L 112.172362 161.887356 
z
" style="fill:#1f77b4;"/>
   </g>
   <g id="patch_48">
    <path clip-path="url(#pf4a386f78b)" d="M 113.514918 288.430125 
L 114.588963 288.430125 
L 114.588963 160.956894 
L 113.514918 160.956894 
z
" style="fill:#1f77b4;"/>
   </g>
   <g id="patch_49">
    <path clip-path="url(#pf4a386f78b)" d="M 114.857475 288.430125 
L 115.93152 288.430125 
L 115.93152 160.491663 
L 114.857475 160.491663 
z
" style="fill:#1f77b4;"/>
   </g>
   <g id="patch_50">
    <path clip-path="url(#pf4a386f78b)" d="M 116.200031 288.430125 
L 117.274076 288.430125 
L 117.274076 159.095971 
L 116.200031 159.095971 
z
" style="fill:#1f77b4;"/>
   </g>
   <g id="patch_51">
    <path clip-path="url(#pf4a386f78b)" d="M 117.542587 288.430125 
L 118.616633 288.430125 
L 118.616633 158.63074 
L 117.542587 158.63074 
z
" style="fill:#1f77b4;"/>
   </g>
   <g id="patch_52">
    <path clip-path="url(#pf4a386f78b)" d="M 118.885144 288.430125 
L 119.959189 288.430125 
L 119.959189 157.700279 
L 118.885144 157.700279 
z
" style="fill:#1f77b4;"/>
   </g>
   <g id="patch_53">
    <path clip-path="url(#pf4a386f78b)" d="M 120.2277 288.430125 
L 121.301745 288.430125 
L 121.301745 156.304587 
L 120.2277 156.304587 
z
" style="fill:#1f77b4;"/>
   </g>
   <g id="patch_54">
    <path clip-path="url(#pf4a386f78b)" d="M 121.570257 288.430125 
L 122.644302 288.430125 
L 122.644302 155.374125 
L 121.570257 155.374125 
z
" style="fill:#1f77b4;"/>
   </g>
   <g id="patch_55">
    <path clip-path="url(#pf4a386f78b)" d="M 122.912813 288.430125 
L 123.986858 288.430125 
L 123.986858 155.374125 
L 122.912813 155.374125 
z
" style="fill:#1f77b4;"/>
   </g>
   <g id="patch_56">
    <path clip-path="url(#pf4a386f78b)" d="M 124.255369 288.430125 
L 125.329414 288.430125 
L 125.329414 155.374125 
L 124.255369 155.374125 
z
" style="fill:#1f77b4;"/>
   </g>
   <g id="patch_57">
    <path clip-path="url(#pf4a386f78b)" d="M 125.597926 288.430125 
L 126.671971 288.430125 
L 126.671971 153.978433 
L 125.597926 153.978433 
z
" style="fill:#1f77b4;"/>
   </g>
   <g id="patch_58">
    <path clip-path="url(#pf4a386f78b)" d="M 126.940482 288.430125 
L 128.014527 288.430125 
L 128.014527 153.513202 
L 126.940482 153.513202 
z
" style="fill:#1f77b4;"/>
   </g>
   <g id="patch_59">
    <path clip-path="url(#pf4a386f78b)" d="M 128.283039 288.430125 
L 129.357084 288.430125 
L 129.357084 153.513202 
L 128.283039 153.513202 
z
" style="fill:#1f77b4;"/>
   </g>
   <g id="patch_60">
    <path clip-path="url(#pf4a386f78b)" d="M 129.625595 288.430125 
L 130.69964 288.430125 
L 130.69964 153.513202 
L 129.625595 153.513202 
z
" style="fill:#1f77b4;"/>
   </g>
   <g id="patch_61">
    <path clip-path="url(#pf4a386f78b)" d="M 130.968151 288.430125 
L 132.042196 288.430125 
L 132.042196 153.513202 
L 130.968151 153.513202 
z
" style="fill:#1f77b4;"/>
   </g>
   <g id="patch_62">
    <path clip-path="url(#pf4a386f78b)" d="M 132.310708 288.430125 
L 133.384753 288.430125 
L 133.384753 153.513202 
L 132.310708 153.513202 
z
" style="fill:#1f77b4;"/>
   </g>
   <g id="patch_63">
    <path clip-path="url(#pf4a386f78b)" d="M 133.653264 288.430125 
L 134.727309 288.430125 
L 134.727309 153.513202 
L 133.653264 153.513202 
z
" style="fill:#1f77b4;"/>
   </g>
   <g id="patch_64">
    <path clip-path="url(#pf4a386f78b)" d="M 134.99582 288.430125 
L 136.069866 288.430125 
L 136.069866 153.513202 
L 134.99582 153.513202 
z
" style="fill:#1f77b4;"/>
   </g>
   <g id="patch_65">
    <path clip-path="url(#pf4a386f78b)" d="M 136.338377 288.430125 
L 137.412422 288.430125 
L 137.412422 153.513202 
L 136.338377 153.513202 
z
" style="fill:#1f77b4;"/>
   </g>
   <g id="patch_66">
    <path clip-path="url(#pf4a386f78b)" d="M 137.680933 288.430125 
L 138.754978 288.430125 
L 138.754978 153.513202 
L 137.680933 153.513202 
z
" style="fill:#1f77b4;"/>
   </g>
   <g id="patch_67">
    <path clip-path="url(#pf4a386f78b)" d="M 139.02349 288.430125 
L 140.097535 288.430125 
L 140.097535 153.047971 
L 139.02349 153.047971 
z
" style="fill:#1f77b4;"/>
   </g>
   <g id="patch_68">
    <path clip-path="url(#pf4a386f78b)" d="M 140.366046 288.430125 
L 141.440091 288.430125 
L 141.440091 153.047971 
L 140.366046 153.047971 
z
" style="fill:#1f77b4;"/>
   </g>
   <g id="patch_69">
    <path clip-path="url(#pf4a386f78b)" d="M 141.708602 288.430125 
L 142.782648 288.430125 
L 142.782648 153.047971 
L 141.708602 153.047971 
z
" style="fill:#1f77b4;"/>
   </g>
   <g id="patch_70">
    <path clip-path="url(#pf4a386f78b)" d="M 143.051159 288.430125 
L 144.125204 288.430125 
L 144.125204 153.047971 
L 143.051159 153.047971 
z
" style="fill:#1f77b4;"/>
   </g>
   <g id="patch_71">
    <path clip-path="url(#pf4a386f78b)" d="M 144.393715 288.430125 
L 145.46776 288.430125 
L 145.46776 153.047971 
L 144.393715 153.047971 
z
" style="fill:#1f77b4;"/>
   </g>
   <g id="patch_72">
    <path clip-path="url(#pf4a386f78b)" d="M 145.736272 288.430125 
L 146.810317 288.430125 
L 146.810317 153.047971 
L 145.736272 153.047971 
z
" style="fill:#1f77b4;"/>
   </g>
   <g id="patch_73">
    <path clip-path="url(#pf4a386f78b)" d="M 147.078828 288.430125 
L 148.152873 288.430125 
L 148.152873 153.047971 
L 147.078828 153.047971 
z
" style="fill:#1f77b4;"/>
   </g>
   <g id="patch_74">
    <path clip-path="url(#pf4a386f78b)" d="M 148.421384 288.430125 
L 149.49543 288.430125 
L 149.49543 153.047971 
L 148.421384 153.047971 
z
" style="fill:#1f77b4;"/>
   </g>
   <g id="patch_75">
    <path clip-path="url(#pf4a386f78b)" d="M 149.763941 288.430125 
L 150.837986 288.430125 
L 150.837986 153.047971 
L 149.763941 153.047971 
z
" style="fill:#1f77b4;"/>
   </g>
   <g id="patch_76">
    <path clip-path="url(#pf4a386f78b)" d="M 151.106497 288.430125 
L 152.180542 288.430125 
L 152.180542 153.047971 
L 151.106497 153.047971 
z
" style="fill:#1f77b4;"/>
   </g>
   <g id="patch_77">
    <path clip-path="url(#pf4a386f78b)" d="M 152.449054 288.430125 
L 153.523099 288.430125 
L 153.523099 153.047971 
L 152.449054 153.047971 
z
" style="fill:#1f77b4;"/>
   </g>
   <g id="patch_78">
    <path clip-path="url(#pf4a386f78b)" d="M 153.79161 288.430125 
L 154.865655 288.430125 
L 154.865655 153.047971 
L 153.79161 153.047971 
z
" style="fill:#1f77b4;"/>
   </g>
   <g id="patch_79">
    <path clip-path="url(#pf4a386f78b)" d="M 155.134166 288.430125 
L 156.208211 288.430125 
L 156.208211 153.047971 
L 155.134166 153.047971 
z
" style="fill:#1f77b4;"/>
   </g>
   <g id="patch_80">
    <path clip-path="url(#pf4a386f78b)" d="M 156.476723 288.430125 
L 157.550768 288.430125 
L 157.550768 153.047971 
L 156.476723 153.047971 
z
" style="fill:#1f77b4;"/>
   </g>
   <g id="patch_81">
    <path clip-path="url(#pf4a386f78b)" d="M 157.819279 288.430125 
L 158.893324 288.430125 
L 158.893324 153.047971 
L 157.819279 153.047971 
z
" style="fill:#1f77b4;"/>
   </g>
   <g id="patch_82">
    <path clip-path="url(#pf4a386f78b)" d="M 159.161836 288.430125 
L 160.235881 288.430125 
L 160.235881 153.047971 
L 159.161836 153.047971 
z
" style="fill:#1f77b4;"/>
   </g>
   <g id="patch_83">
    <path clip-path="url(#pf4a386f78b)" d="M 160.504392 288.430125 
L 161.578437 288.430125 
L 161.578437 153.047971 
L 160.504392 153.047971 
z
" style="fill:#1f77b4;"/>
   </g>
   <g id="patch_84">
    <path clip-path="url(#pf4a386f78b)" d="M 161.846948 288.430125 
L 162.920993 288.430125 
L 162.920993 152.58274 
L 161.846948 152.58274 
z
" style="fill:#1f77b4;"/>
   </g>
   <g id="patch_85">
    <path clip-path="url(#pf4a386f78b)" d="M 163.189505 288.430125 
L 164.26355 288.430125 
L 164.26355 152.58274 
L 163.189505 152.58274 
z
" style="fill:#1f77b4;"/>
   </g>
   <g id="patch_86">
    <path clip-path="url(#pf4a386f78b)" d="M 164.532061 288.430125 
L 165.606106 288.430125 
L 165.606106 152.58274 
L 164.532061 152.58274 
z
" style="fill:#1f77b4;"/>
   </g>
   <g id="patch_87">
    <path clip-path="url(#pf4a386f78b)" d="M 165.874617 288.430125 
L 166.948663 288.430125 
L 166.948663 152.58274 
L 165.874617 152.58274 
z
" style="fill:#1f77b4;"/>
   </g>
   <g id="patch_88">
    <path clip-path="url(#pf4a386f78b)" d="M 167.217174 288.430125 
L 168.291219 288.430125 
L 168.291219 152.58274 
L 167.217174 152.58274 
z
" style="fill:#1f77b4;"/>
   </g>
   <g id="patch_89">
    <path clip-path="url(#pf4a386f78b)" d="M 168.55973 288.430125 
L 169.633775 288.430125 
L 169.633775 152.58274 
L 168.55973 152.58274 
z
" style="fill:#1f77b4;"/>
   </g>
   <g id="patch_90">
    <path clip-path="url(#pf4a386f78b)" d="M 169.902287 288.430125 
L 170.976332 288.430125 
L 170.976332 152.58274 
L 169.902287 152.58274 
z
" style="fill:#1f77b4;"/>
   </g>
   <g id="patch_91">
    <path clip-path="url(#pf4a386f78b)" d="M 171.244843 288.430125 
L 172.318888 288.430125 
L 172.318888 152.58274 
L 171.244843 152.58274 
z
" style="fill:#1f77b4;"/>
   </g>
   <g id="patch_92">
    <path clip-path="url(#pf4a386f78b)" d="M 172.587399 288.430125 
L 173.661445 288.430125 
L 173.661445 153.047971 
L 172.587399 153.047971 
z
" style="fill:#1f77b4;"/>
   </g>
   <g id="patch_93">
    <path clip-path="url(#pf4a386f78b)" d="M 173.929956 288.430125 
L 175.004001 288.430125 
L 175.004001 153.047971 
L 173.929956 153.047971 
z
" style="fill:#1f77b4;"/>
   </g>
   <g id="patch_94">
    <path clip-path="url(#pf4a386f78b)" d="M 175.272512 288.430125 
L 176.346557 288.430125 
L 176.346557 153.047971 
L 175.272512 153.047971 
z
" style="fill:#1f77b4;"/>
   </g>
   <g id="patch_95">
    <path clip-path="url(#pf4a386f78b)" d="M 176.615069 288.430125 
L 177.689114 288.430125 
L 177.689114 152.58274 
L 176.615069 152.58274 
z
" style="fill:#1f77b4;"/>
   </g>
   <g id="patch_96">
    <path clip-path="url(#pf4a386f78b)" d="M 177.957625 288.430125 
L 179.03167 288.430125 
L 179.03167 152.58274 
L 177.957625 152.58274 
z
" style="fill:#1f77b4;"/>
   </g>
   <g id="patch_97">
    <path clip-path="url(#pf4a386f78b)" d="M 179.300181 288.430125 
L 180.374227 288.430125 
L 180.374227 152.58274 
L 179.300181 152.58274 
z
" style="fill:#1f77b4;"/>
   </g>
   <g id="patch_98">
    <path clip-path="url(#pf4a386f78b)" d="M 180.642738 288.430125 
L 181.716783 288.430125 
L 181.716783 152.58274 
L 180.642738 152.58274 
z
" style="fill:#1f77b4;"/>
   </g>
   <g id="patch_99">
    <path clip-path="url(#pf4a386f78b)" d="M 181.985294 288.430125 
L 183.059339 288.430125 
L 183.059339 152.58274 
L 181.985294 152.58274 
z
" style="fill:#1f77b4;"/>
   </g>
   <g id="patch_100">
    <path clip-path="url(#pf4a386f78b)" d="M 183.327851 288.430125 
L 184.401896 288.430125 
L 184.401896 152.58274 
L 183.327851 152.58274 
z
" style="fill:#1f77b4;"/>
   </g>
   <g id="patch_101">
    <path clip-path="url(#pf4a386f78b)" d="M 184.670407 288.430125 
L 185.744452 288.430125 
L 185.744452 152.58274 
L 184.670407 152.58274 
z
" style="fill:#1f77b4;"/>
   </g>
   <g id="patch_102">
    <path clip-path="url(#pf4a386f78b)" d="M 186.012963 288.430125 
L 187.087008 288.430125 
L 187.087008 152.58274 
L 186.012963 152.58274 
z
" style="fill:#1f77b4;"/>
   </g>
   <g id="patch_103">
    <path clip-path="url(#pf4a386f78b)" d="M 187.35552 288.430125 
L 188.429565 288.430125 
L 188.429565 152.58274 
L 187.35552 152.58274 
z
" style="fill:#1f77b4;"/>
   </g>
   <g id="patch_104">
    <path clip-path="url(#pf4a386f78b)" d="M 188.698076 288.430125 
L 189.772121 288.430125 
L 189.772121 152.58274 
L 188.698076 152.58274 
z
" style="fill:#1f77b4;"/>
   </g>
   <g id="patch_105">
    <path clip-path="url(#pf4a386f78b)" d="M 190.040633 288.430125 
L 191.114678 288.430125 
L 191.114678 152.58274 
L 190.040633 152.58274 
z
" style="fill:#1f77b4;"/>
   </g>
   <g id="patch_106">
    <path clip-path="url(#pf4a386f78b)" d="M 191.383189 288.430125 
L 192.457234 288.430125 
L 192.457234 152.58274 
L 191.383189 152.58274 
z
" style="fill:#1f77b4;"/>
   </g>
   <g id="patch_107">
    <path clip-path="url(#pf4a386f78b)" d="M 192.725745 288.430125 
L 193.79979 288.430125 
L 193.79979 152.58274 
L 192.725745 152.58274 
z
" style="fill:#1f77b4;"/>
   </g>
   <g id="patch_108">
    <path clip-path="url(#pf4a386f78b)" d="M 194.068302 288.430125 
L 195.142347 288.430125 
L 195.142347 152.58274 
L 194.068302 152.58274 
z
" style="fill:#1f77b4;"/>
   </g>
   <g id="patch_109">
    <path clip-path="url(#pf4a386f78b)" d="M 195.410858 288.430125 
L 196.484903 288.430125 
L 196.484903 152.58274 
L 195.410858 152.58274 
z
" style="fill:#1f77b4;"/>
   </g>
   <g id="patch_110">
    <path clip-path="url(#pf4a386f78b)" d="M 196.753414 288.430125 
L 197.82746 288.430125 
L 197.82746 152.58274 
L 196.753414 152.58274 
z
" style="fill:#1f77b4;"/>
   </g>
   <g id="patch_111">
    <path clip-path="url(#pf4a386f78b)" d="M 198.095971 288.430125 
L 199.170016 288.430125 
L 199.170016 152.58274 
L 198.095971 152.58274 
z
" style="fill:#1f77b4;"/>
   </g>
   <g id="patch_112">
    <path clip-path="url(#pf4a386f78b)" d="M 199.438527 288.430125 
L 200.512572 288.430125 
L 200.512572 152.58274 
L 199.438527 152.58274 
z
" style="fill:#1f77b4;"/>
   </g>
   <g id="patch_113">
    <path clip-path="url(#pf4a386f78b)" d="M 200.781084 288.430125 
L 201.855129 288.430125 
L 201.855129 152.58274 
L 200.781084 152.58274 
z
" style="fill:#1f77b4;"/>
   </g>
   <g id="patch_114">
    <path clip-path="url(#pf4a386f78b)" d="M 202.12364 288.430125 
L 203.197685 288.430125 
L 203.197685 152.58274 
L 202.12364 152.58274 
z
" style="fill:#1f77b4;"/>
   </g>
   <g id="patch_115">
    <path clip-path="url(#pf4a386f78b)" d="M 203.466196 288.430125 
L 204.540242 288.430125 
L 204.540242 152.58274 
L 203.466196 152.58274 
z
" style="fill:#1f77b4;"/>
   </g>
   <g id="patch_116">
    <path clip-path="url(#pf4a386f78b)" d="M 204.808753 288.430125 
L 205.882798 288.430125 
L 205.882798 152.58274 
L 204.808753 152.58274 
z
" style="fill:#1f77b4;"/>
   </g>
   <g id="patch_117">
    <path clip-path="url(#pf4a386f78b)" d="M 206.151309 288.430125 
L 207.225354 288.430125 
L 207.225354 152.58274 
L 206.151309 152.58274 
z
" style="fill:#1f77b4;"/>
   </g>
   <g id="patch_118">
    <path clip-path="url(#pf4a386f78b)" d="M 207.493866 288.430125 
L 208.567911 288.430125 
L 208.567911 152.58274 
L 207.493866 152.58274 
z
" style="fill:#1f77b4;"/>
   </g>
   <g id="patch_119">
    <path clip-path="url(#pf4a386f78b)" d="M 208.836422 288.430125 
L 209.910467 288.430125 
L 209.910467 152.58274 
L 208.836422 152.58274 
z
" style="fill:#1f77b4;"/>
   </g>
   <g id="patch_120">
    <path clip-path="url(#pf4a386f78b)" d="M 210.178978 288.430125 
L 211.253023 288.430125 
L 211.253023 152.58274 
L 210.178978 152.58274 
z
" style="fill:#1f77b4;"/>
   </g>
   <g id="patch_121">
    <path clip-path="url(#pf4a386f78b)" d="M 211.521535 288.430125 
L 212.59558 288.430125 
L 212.59558 152.58274 
L 211.521535 152.58274 
z
" style="fill:#1f77b4;"/>
   </g>
   <g id="patch_122">
    <path clip-path="url(#pf4a386f78b)" d="M 212.864091 288.430125 
L 213.938136 288.430125 
L 213.938136 152.58274 
L 212.864091 152.58274 
z
" style="fill:#1f77b4;"/>
   </g>
   <g id="patch_123">
    <path clip-path="url(#pf4a386f78b)" d="M 214.206648 288.430125 
L 215.280693 288.430125 
L 215.280693 152.58274 
L 214.206648 152.58274 
z
" style="fill:#1f77b4;"/>
   </g>
   <g id="patch_124">
    <path clip-path="url(#pf4a386f78b)" d="M 215.549204 288.430125 
L 216.623249 288.430125 
L 216.623249 152.58274 
L 215.549204 152.58274 
z
" style="fill:#1f77b4;"/>
   </g>
   <g id="patch_125">
    <path clip-path="url(#pf4a386f78b)" d="M 216.89176 288.430125 
L 217.965805 288.430125 
L 217.965805 152.58274 
L 216.89176 152.58274 
z
" style="fill:#1f77b4;"/>
   </g>
   <g id="patch_126">
    <path clip-path="url(#pf4a386f78b)" d="M 218.234317 288.430125 
L 219.308362 288.430125 
L 219.308362 152.58274 
L 218.234317 152.58274 
z
" style="fill:#1f77b4;"/>
   </g>
   <g id="patch_127">
    <path clip-path="url(#pf4a386f78b)" d="M 219.576873 288.430125 
L 220.650918 288.430125 
L 220.650918 152.58274 
L 219.576873 152.58274 
z
" style="fill:#1f77b4;"/>
   </g>
   <g id="patch_128">
    <path clip-path="url(#pf4a386f78b)" d="M 220.91943 288.430125 
L 221.993475 288.430125 
L 221.993475 152.58274 
L 220.91943 152.58274 
z
" style="fill:#1f77b4;"/>
   </g>
   <g id="patch_129">
    <path clip-path="url(#pf4a386f78b)" d="M 222.261986 288.430125 
L 223.336031 288.430125 
L 223.336031 152.58274 
L 222.261986 152.58274 
z
" style="fill:#1f77b4;"/>
   </g>
   <g id="patch_130">
    <path clip-path="url(#pf4a386f78b)" d="M 223.604542 288.430125 
L 224.678587 288.430125 
L 224.678587 152.58274 
L 223.604542 152.58274 
z
" style="fill:#1f77b4;"/>
   </g>
   <g id="patch_131">
    <path clip-path="url(#pf4a386f78b)" d="M 224.947099 288.430125 
L 226.021144 288.430125 
L 226.021144 152.58274 
L 224.947099 152.58274 
z
" style="fill:#1f77b4;"/>
   </g>
   <g id="patch_132">
    <path clip-path="url(#pf4a386f78b)" d="M 226.289655 288.430125 
L 227.3637 288.430125 
L 227.3637 152.58274 
L 226.289655 152.58274 
z
" style="fill:#1f77b4;"/>
   </g>
   <g id="patch_133">
    <path clip-path="url(#pf4a386f78b)" d="M 227.632211 288.430125 
L 228.706257 288.430125 
L 228.706257 152.58274 
L 227.632211 152.58274 
z
" style="fill:#1f77b4;"/>
   </g>
   <g id="patch_134">
    <path clip-path="url(#pf4a386f78b)" d="M 228.974768 288.430125 
L 230.048813 288.430125 
L 230.048813 152.58274 
L 228.974768 152.58274 
z
" style="fill:#1f77b4;"/>
   </g>
   <g id="patch_135">
    <path clip-path="url(#pf4a386f78b)" d="M 230.317324 288.430125 
L 231.391369 288.430125 
L 231.391369 152.58274 
L 230.317324 152.58274 
z
" style="fill:#1f77b4;"/>
   </g>
   <g id="patch_136">
    <path clip-path="url(#pf4a386f78b)" d="M 231.659881 288.430125 
L 232.733926 288.430125 
L 232.733926 152.58274 
L 231.659881 152.58274 
z
" style="fill:#1f77b4;"/>
   </g>
   <g id="patch_137">
    <path clip-path="url(#pf4a386f78b)" d="M 233.002437 288.430125 
L 234.076482 288.430125 
L 234.076482 152.58274 
L 233.002437 152.58274 
z
" style="fill:#1f77b4;"/>
   </g>
   <g id="patch_138">
    <path clip-path="url(#pf4a386f78b)" d="M 234.344993 288.430125 
L 235.419039 288.430125 
L 235.419039 152.58274 
L 234.344993 152.58274 
z
" style="fill:#1f77b4;"/>
   </g>
   <g id="patch_139">
    <path clip-path="url(#pf4a386f78b)" d="M 235.68755 288.430125 
L 236.761595 288.430125 
L 236.761595 152.58274 
L 235.68755 152.58274 
z
" style="fill:#1f77b4;"/>
   </g>
   <g id="patch_140">
    <path clip-path="url(#pf4a386f78b)" d="M 237.030106 288.430125 
L 238.104151 288.430125 
L 238.104151 152.58274 
L 237.030106 152.58274 
z
" style="fill:#1f77b4;"/>
   </g>
   <g id="patch_141">
    <path clip-path="url(#pf4a386f78b)" d="M 238.372663 288.430125 
L 239.446708 288.430125 
L 239.446708 152.58274 
L 238.372663 152.58274 
z
" style="fill:#1f77b4;"/>
   </g>
   <g id="patch_142">
    <path clip-path="url(#pf4a386f78b)" d="M 239.715219 288.430125 
L 240.789264 288.430125 
L 240.789264 152.58274 
L 239.715219 152.58274 
z
" style="fill:#1f77b4;"/>
   </g>
   <g id="patch_143">
    <path clip-path="url(#pf4a386f78b)" d="M 241.057775 288.430125 
L 242.13182 288.430125 
L 242.13182 152.58274 
L 241.057775 152.58274 
z
" style="fill:#1f77b4;"/>
   </g>
   <g id="patch_144">
    <path clip-path="url(#pf4a386f78b)" d="M 242.400332 288.430125 
L 243.474377 288.430125 
L 243.474377 152.58274 
L 242.400332 152.58274 
z
" style="fill:#1f77b4;"/>
   </g>
   <g id="patch_145">
    <path clip-path="url(#pf4a386f78b)" d="M 243.742888 288.430125 
L 244.816933 288.430125 
L 244.816933 152.58274 
L 243.742888 152.58274 
z
" style="fill:#1f77b4;"/>
   </g>
   <g id="patch_146">
    <path clip-path="url(#pf4a386f78b)" d="M 245.085445 288.430125 
L 246.15949 288.430125 
L 246.15949 152.58274 
L 245.085445 152.58274 
z
" style="fill:#1f77b4;"/>
   </g>
   <g id="patch_147">
    <path clip-path="url(#pf4a386f78b)" d="M 246.428001 288.430125 
L 247.502046 288.430125 
L 247.502046 152.58274 
L 246.428001 152.58274 
z
" style="fill:#1f77b4;"/>
   </g>
   <g id="patch_148">
    <path clip-path="url(#pf4a386f78b)" d="M 247.770557 288.430125 
L 248.844602 288.430125 
L 248.844602 152.58274 
L 247.770557 152.58274 
z
" style="fill:#1f77b4;"/>
   </g>
   <g id="patch_149">
    <path clip-path="url(#pf4a386f78b)" d="M 249.113114 288.430125 
L 250.187159 288.430125 
L 250.187159 152.58274 
L 249.113114 152.58274 
z
" style="fill:#1f77b4;"/>
   </g>
   <g id="patch_150">
    <path clip-path="url(#pf4a386f78b)" d="M 250.45567 288.430125 
L 251.529715 288.430125 
L 251.529715 152.58274 
L 250.45567 152.58274 
z
" style="fill:#1f77b4;"/>
   </g>
   <g id="patch_151">
    <path clip-path="url(#pf4a386f78b)" d="M 251.798227 288.430125 
L 252.872272 288.430125 
L 252.872272 152.58274 
L 251.798227 152.58274 
z
" style="fill:#1f77b4;"/>
   </g>
   <g id="patch_152">
    <path clip-path="url(#pf4a386f78b)" d="M 253.140783 288.430125 
L 254.214828 288.430125 
L 254.214828 152.58274 
L 253.140783 152.58274 
z
" style="fill:#1f77b4;"/>
   </g>
   <g id="patch_153">
    <path clip-path="url(#pf4a386f78b)" d="M 254.483339 288.430125 
L 255.557384 288.430125 
L 255.557384 152.58274 
L 254.483339 152.58274 
z
" style="fill:#1f77b4;"/>
   </g>
   <g id="patch_154">
    <path clip-path="url(#pf4a386f78b)" d="M 255.825896 288.430125 
L 256.899941 288.430125 
L 256.899941 152.58274 
L 255.825896 152.58274 
z
" style="fill:#1f77b4;"/>
   </g>
   <g id="patch_155">
    <path clip-path="url(#pf4a386f78b)" d="M 257.168452 288.430125 
L 258.242497 288.430125 
L 258.242497 152.58274 
L 257.168452 152.58274 
z
" style="fill:#1f77b4;"/>
   </g>
   <g id="patch_156">
    <path clip-path="url(#pf4a386f78b)" d="M 258.511008 288.430125 
L 259.585054 288.430125 
L 259.585054 152.58274 
L 258.511008 152.58274 
z
" style="fill:#1f77b4;"/>
   </g>
   <g id="patch_157">
    <path clip-path="url(#pf4a386f78b)" d="M 259.853565 288.430125 
L 260.92761 288.430125 
L 260.92761 152.58274 
L 259.853565 152.58274 
z
" style="fill:#1f77b4;"/>
   </g>
   <g id="patch_158">
    <path clip-path="url(#pf4a386f78b)" d="M 261.196121 288.430125 
L 262.270166 288.430125 
L 262.270166 152.58274 
L 261.196121 152.58274 
z
" style="fill:#1f77b4;"/>
   </g>
   <g id="patch_159">
    <path clip-path="url(#pf4a386f78b)" d="M 262.538678 288.430125 
L 263.612723 288.430125 
L 263.612723 152.58274 
L 262.538678 152.58274 
z
" style="fill:#1f77b4;"/>
   </g>
   <g id="patch_160">
    <path clip-path="url(#pf4a386f78b)" d="M 263.881234 288.430125 
L 264.955279 288.430125 
L 264.955279 152.58274 
L 263.881234 152.58274 
z
" style="fill:#1f77b4;"/>
   </g>
   <g id="patch_161">
    <path clip-path="url(#pf4a386f78b)" d="M 265.22379 288.430125 
L 266.297836 288.430125 
L 266.297836 152.58274 
L 265.22379 152.58274 
z
" style="fill:#1f77b4;"/>
   </g>
   <g id="patch_162">
    <path clip-path="url(#pf4a386f78b)" d="M 266.566347 288.430125 
L 267.640392 288.430125 
L 267.640392 152.58274 
L 266.566347 152.58274 
z
" style="fill:#1f77b4;"/>
   </g>
   <g id="patch_163">
    <path clip-path="url(#pf4a386f78b)" d="M 267.908903 288.430125 
L 268.982948 288.430125 
L 268.982948 152.58274 
L 267.908903 152.58274 
z
" style="fill:#1f77b4;"/>
   </g>
   <g id="patch_164">
    <path clip-path="url(#pf4a386f78b)" d="M 269.25146 288.430125 
L 270.325505 288.430125 
L 270.325505 152.58274 
L 269.25146 152.58274 
z
" style="fill:#1f77b4;"/>
   </g>
   <g id="patch_165">
    <path clip-path="url(#pf4a386f78b)" d="M 270.594016 288.430125 
L 271.668061 288.430125 
L 271.668061 152.58274 
L 270.594016 152.58274 
z
" style="fill:#1f77b4;"/>
   </g>
   <g id="patch_166">
    <path clip-path="url(#pf4a386f78b)" d="M 271.936572 288.430125 
L 273.010617 288.430125 
L 273.010617 153.513202 
L 271.936572 153.513202 
z
" style="fill:#1f77b4;"/>
   </g>
   <g id="patch_167">
    <path clip-path="url(#pf4a386f78b)" d="M 273.279129 288.430125 
L 274.353174 288.430125 
L 274.353174 152.58274 
L 273.279129 152.58274 
z
" style="fill:#1f77b4;"/>
   </g>
   <g id="patch_168">
    <path clip-path="url(#pf4a386f78b)" d="M 274.621685 288.430125 
L 275.69573 288.430125 
L 275.69573 152.58274 
L 274.621685 152.58274 
z
" style="fill:#1f77b4;"/>
   </g>
   <g id="patch_169">
    <path clip-path="url(#pf4a386f78b)" d="M 275.964242 288.430125 
L 277.038287 288.430125 
L 277.038287 152.58274 
L 275.964242 152.58274 
z
" style="fill:#1f77b4;"/>
   </g>
   <g id="patch_170">
    <path clip-path="url(#pf4a386f78b)" d="M 277.306798 288.430125 
L 278.380843 288.430125 
L 278.380843 152.58274 
L 277.306798 152.58274 
z
" style="fill:#1f77b4;"/>
   </g>
   <g id="patch_171">
    <path clip-path="url(#pf4a386f78b)" d="M 278.649354 288.430125 
L 279.723399 288.430125 
L 279.723399 152.58274 
L 278.649354 152.58274 
z
" style="fill:#1f77b4;"/>
   </g>
   <g id="patch_172">
    <path clip-path="url(#pf4a386f78b)" d="M 279.991911 288.430125 
L 281.065956 288.430125 
L 281.065956 152.58274 
L 279.991911 152.58274 
z
" style="fill:#1f77b4;"/>
   </g>
   <g id="patch_173">
    <path clip-path="url(#pf4a386f78b)" d="M 281.334467 288.430125 
L 282.408512 288.430125 
L 282.408512 152.58274 
L 281.334467 152.58274 
z
" style="fill:#1f77b4;"/>
   </g>
   <g id="patch_174">
    <path clip-path="url(#pf4a386f78b)" d="M 282.677023 288.430125 
L 283.751069 288.430125 
L 283.751069 152.58274 
L 282.677023 152.58274 
z
" style="fill:#1f77b4;"/>
   </g>
   <g id="patch_175">
    <path clip-path="url(#pf4a386f78b)" d="M 284.01958 288.430125 
L 285.093625 288.430125 
L 285.093625 152.58274 
L 284.01958 152.58274 
z
" style="fill:#1f77b4;"/>
   </g>
   <g id="patch_176">
    <path clip-path="url(#pf4a386f78b)" d="M 285.362136 288.430125 
L 286.436181 288.430125 
L 286.436181 152.58274 
L 285.362136 152.58274 
z
" style="fill:#1f77b4;"/>
   </g>
   <g id="patch_177">
    <path clip-path="url(#pf4a386f78b)" d="M 286.704693 288.430125 
L 287.778738 288.430125 
L 287.778738 152.58274 
L 286.704693 152.58274 
z
" style="fill:#1f77b4;"/>
   </g>
   <g id="patch_178">
    <path clip-path="url(#pf4a386f78b)" d="M 288.047249 288.430125 
L 289.121294 288.430125 
L 289.121294 152.58274 
L 288.047249 152.58274 
z
" style="fill:#1f77b4;"/>
   </g>
   <g id="patch_179">
    <path clip-path="url(#pf4a386f78b)" d="M 289.389805 288.430125 
L 290.463851 288.430125 
L 290.463851 152.58274 
L 289.389805 152.58274 
z
" style="fill:#1f77b4;"/>
   </g>
   <g id="patch_180">
    <path clip-path="url(#pf4a386f78b)" d="M 290.732362 288.430125 
L 291.806407 288.430125 
L 291.806407 152.58274 
L 290.732362 152.58274 
z
" style="fill:#1f77b4;"/>
   </g>
   <g id="patch_181">
    <path clip-path="url(#pf4a386f78b)" d="M 292.074918 288.430125 
L 293.148963 288.430125 
L 293.148963 152.58274 
L 292.074918 152.58274 
z
" style="fill:#1f77b4;"/>
   </g>
   <g id="patch_182">
    <path clip-path="url(#pf4a386f78b)" d="M 293.417475 288.430125 
L 294.49152 288.430125 
L 294.49152 152.58274 
L 293.417475 152.58274 
z
" style="fill:#1f77b4;"/>
   </g>
   <g id="patch_183">
    <path clip-path="url(#pf4a386f78b)" d="M 294.760031 288.430125 
L 295.834076 288.430125 
L 295.834076 152.58274 
L 294.760031 152.58274 
z
" style="fill:#1f77b4;"/>
   </g>
   <g id="patch_184">
    <path clip-path="url(#pf4a386f78b)" d="M 296.102587 288.430125 
L 297.176633 288.430125 
L 297.176633 152.58274 
L 296.102587 152.58274 
z
" style="fill:#1f77b4;"/>
   </g>
   <g id="patch_185">
    <path clip-path="url(#pf4a386f78b)" d="M 297.445144 288.430125 
L 298.519189 288.430125 
L 298.519189 152.58274 
L 297.445144 152.58274 
z
" style="fill:#1f77b4;"/>
   </g>
   <g id="patch_186">
    <path clip-path="url(#pf4a386f78b)" d="M 298.7877 288.430125 
L 299.861745 288.430125 
L 299.861745 152.58274 
L 298.7877 152.58274 
z
" style="fill:#1f77b4;"/>
   </g>
   <g id="patch_187">
    <path clip-path="url(#pf4a386f78b)" d="M 300.130257 288.430125 
L 301.204302 288.430125 
L 301.204302 152.58274 
L 300.130257 152.58274 
z
" style="fill:#1f77b4;"/>
   </g>
   <g id="patch_188">
    <path clip-path="url(#pf4a386f78b)" d="M 301.472813 288.430125 
L 302.546858 288.430125 
L 302.546858 152.58274 
L 301.472813 152.58274 
z
" style="fill:#1f77b4;"/>
   </g>
   <g id="patch_189">
    <path clip-path="url(#pf4a386f78b)" d="M 302.815369 288.430125 
L 303.889414 288.430125 
L 303.889414 152.58274 
L 302.815369 152.58274 
z
" style="fill:#1f77b4;"/>
   </g>
   <g id="patch_190">
    <path clip-path="url(#pf4a386f78b)" d="M 304.157926 288.430125 
L 305.231971 288.430125 
L 305.231971 152.58274 
L 304.157926 152.58274 
z
" style="fill:#1f77b4;"/>
   </g>
   <g id="patch_191">
    <path clip-path="url(#pf4a386f78b)" d="M 305.500482 288.430125 
L 306.574527 288.430125 
L 306.574527 152.58274 
L 305.500482 152.58274 
z
" style="fill:#1f77b4;"/>
   </g>
   <g id="patch_192">
    <path clip-path="url(#pf4a386f78b)" d="M 306.843039 288.430125 
L 307.917084 288.430125 
L 307.917084 152.58274 
L 306.843039 152.58274 
z
" style="fill:#1f77b4;"/>
   </g>
   <g id="patch_193">
    <path clip-path="url(#pf4a386f78b)" d="M 308.185595 288.430125 
L 309.25964 288.430125 
L 309.25964 152.58274 
L 308.185595 152.58274 
z
" style="fill:#1f77b4;"/>
   </g>
   <g id="patch_194">
    <path clip-path="url(#pf4a386f78b)" d="M 309.528151 288.430125 
L 310.602196 288.430125 
L 310.602196 152.58274 
L 309.528151 152.58274 
z
" style="fill:#1f77b4;"/>
   </g>
   <g id="patch_195">
    <path clip-path="url(#pf4a386f78b)" d="M 310.870708 288.430125 
L 311.944753 288.430125 
L 311.944753 152.58274 
L 310.870708 152.58274 
z
" style="fill:#1f77b4;"/>
   </g>
   <g id="patch_196">
    <path clip-path="url(#pf4a386f78b)" d="M 312.213264 288.430125 
L 313.287309 288.430125 
L 313.287309 152.58274 
L 312.213264 152.58274 
z
" style="fill:#1f77b4;"/>
   </g>
   <g id="patch_197">
    <path clip-path="url(#pf4a386f78b)" d="M 313.55582 288.430125 
L 314.629866 288.430125 
L 314.629866 152.58274 
L 313.55582 152.58274 
z
" style="fill:#1f77b4;"/>
   </g>
   <g id="patch_198">
    <path clip-path="url(#pf4a386f78b)" d="M 314.898377 288.430125 
L 315.972422 288.430125 
L 315.972422 152.58274 
L 314.898377 152.58274 
z
" style="fill:#1f77b4;"/>
   </g>
   <g id="patch_199">
    <path clip-path="url(#pf4a386f78b)" d="M 316.240933 288.430125 
L 317.314978 288.430125 
L 317.314978 152.58274 
L 316.240933 152.58274 
z
" style="fill:#1f77b4;"/>
   </g>
   <g id="patch_200">
    <path clip-path="url(#pf4a386f78b)" d="M 317.58349 288.430125 
L 318.657535 288.430125 
L 318.657535 152.58274 
L 317.58349 152.58274 
z
" style="fill:#1f77b4;"/>
   </g>
   <g id="patch_201">
    <path clip-path="url(#pf4a386f78b)" d="M 318.926046 288.430125 
L 320.000091 288.430125 
L 320.000091 152.58274 
L 318.926046 152.58274 
z
" style="fill:#1f77b4;"/>
   </g>
   <g id="patch_202">
    <path clip-path="url(#pf4a386f78b)" d="M 320.268602 288.430125 
L 321.342648 288.430125 
L 321.342648 152.58274 
L 320.268602 152.58274 
z
" style="fill:#1f77b4;"/>
   </g>
   <g id="patch_203">
    <path clip-path="url(#pf4a386f78b)" d="M 321.611159 288.430125 
L 322.685204 288.430125 
L 322.685204 152.58274 
L 321.611159 152.58274 
z
" style="fill:#1f77b4;"/>
   </g>
   <g id="patch_204">
    <path clip-path="url(#pf4a386f78b)" d="M 322.953715 288.430125 
L 324.02776 288.430125 
L 324.02776 152.58274 
L 322.953715 152.58274 
z
" style="fill:#1f77b4;"/>
   </g>
   <g id="patch_205">
    <path clip-path="url(#pf4a386f78b)" d="M 324.296272 288.430125 
L 325.370317 288.430125 
L 325.370317 152.58274 
L 324.296272 152.58274 
z
" style="fill:#1f77b4;"/>
   </g>
   <g id="patch_206">
    <path clip-path="url(#pf4a386f78b)" d="M 325.638828 288.430125 
L 326.712873 288.430125 
L 326.712873 152.58274 
L 325.638828 152.58274 
z
" style="fill:#1f77b4;"/>
   </g>
   <g id="patch_207">
    <path clip-path="url(#pf4a386f78b)" d="M 326.981384 288.430125 
L 328.05543 288.430125 
L 328.05543 152.58274 
L 326.981384 152.58274 
z
" style="fill:#1f77b4;"/>
   </g>
   <g id="patch_208">
    <path clip-path="url(#pf4a386f78b)" d="M 328.323941 288.430125 
L 329.397986 288.430125 
L 329.397986 152.58274 
L 328.323941 152.58274 
z
" style="fill:#1f77b4;"/>
   </g>
   <g id="patch_209">
    <path clip-path="url(#pf4a386f78b)" d="M 329.666497 288.430125 
L 330.740542 288.430125 
L 330.740542 152.58274 
L 329.666497 152.58274 
z
" style="fill:#1f77b4;"/>
   </g>
   <g id="patch_210">
    <path clip-path="url(#pf4a386f78b)" d="M 331.009054 288.430125 
L 332.083099 288.430125 
L 332.083099 152.58274 
L 331.009054 152.58274 
z
" style="fill:#1f77b4;"/>
   </g>
   <g id="patch_211">
    <path clip-path="url(#pf4a386f78b)" d="M 332.35161 288.430125 
L 333.425655 288.430125 
L 333.425655 152.58274 
L 332.35161 152.58274 
z
" style="fill:#1f77b4;"/>
   </g>
   <g id="patch_212">
    <path clip-path="url(#pf4a386f78b)" d="M 333.694166 288.430125 
L 334.768211 288.430125 
L 334.768211 152.58274 
L 333.694166 152.58274 
z
" style="fill:#1f77b4;"/>
   </g>
   <g id="patch_213">
    <path clip-path="url(#pf4a386f78b)" d="M 335.036723 288.430125 
L 336.110768 288.430125 
L 336.110768 152.11751 
L 335.036723 152.11751 
z
" style="fill:#1f77b4;"/>
   </g>
   <g id="patch_214">
    <path clip-path="url(#pf4a386f78b)" d="M 336.379279 288.430125 
L 337.453324 288.430125 
L 337.453324 152.11751 
L 336.379279 152.11751 
z
" style="fill:#1f77b4;"/>
   </g>
   <g id="patch_215">
    <path clip-path="url(#pf4a386f78b)" d="M 337.721836 288.430125 
L 338.795881 288.430125 
L 338.795881 152.11751 
L 337.721836 152.11751 
z
" style="fill:#1f77b4;"/>
   </g>
   <g id="patch_216">
    <path clip-path="url(#pf4a386f78b)" d="M 339.064392 288.430125 
L 340.138437 288.430125 
L 340.138437 152.11751 
L 339.064392 152.11751 
z
" style="fill:#1f77b4;"/>
   </g>
   <g id="patch_217">
    <path clip-path="url(#pf4a386f78b)" d="M 340.406948 288.430125 
L 341.480993 288.430125 
L 341.480993 152.11751 
L 340.406948 152.11751 
z
" style="fill:#1f77b4;"/>
   </g>
   <g id="patch_218">
    <path clip-path="url(#pf4a386f78b)" d="M 341.749505 288.430125 
L 342.82355 288.430125 
L 342.82355 152.11751 
L 341.749505 152.11751 
z
" style="fill:#1f77b4;"/>
   </g>
   <g id="patch_219">
    <path clip-path="url(#pf4a386f78b)" d="M 343.092061 288.430125 
L 344.166106 288.430125 
L 344.166106 152.11751 
L 343.092061 152.11751 
z
" style="fill:#1f77b4;"/>
   </g>
   <g id="patch_220">
    <path clip-path="url(#pf4a386f78b)" d="M 344.434617 288.430125 
L 345.508663 288.430125 
L 345.508663 152.11751 
L 344.434617 152.11751 
z
" style="fill:#1f77b4;"/>
   </g>
   <g id="patch_221">
    <path clip-path="url(#pf4a386f78b)" d="M 345.777174 288.430125 
L 346.851219 288.430125 
L 346.851219 151.652279 
L 345.777174 151.652279 
z
" style="fill:#1f77b4;"/>
   </g>
   <g id="patch_222">
    <path clip-path="url(#pf4a386f78b)" d="M 347.11973 288.430125 
L 348.193775 288.430125 
L 348.193775 151.652279 
L 347.11973 151.652279 
z
" style="fill:#1f77b4;"/>
   </g>
   <g id="patch_223">
    <path clip-path="url(#pf4a386f78b)" d="M 348.462287 288.430125 
L 349.536332 288.430125 
L 349.536332 150.721817 
L 348.462287 150.721817 
z
" style="fill:#1f77b4;"/>
   </g>
   <g id="patch_224">
    <path clip-path="url(#pf4a386f78b)" d="M 349.804843 288.430125 
L 350.878888 288.430125 
L 350.878888 150.721817 
L 349.804843 150.721817 
z
" style="fill:#1f77b4;"/>
   </g>
   <g id="patch_225">
    <path clip-path="url(#pf4a386f78b)" d="M 351.147399 288.430125 
L 352.221445 288.430125 
L 352.221445 150.721817 
L 351.147399 150.721817 
z
" style="fill:#1f77b4;"/>
   </g>
   <g id="patch_226">
    <path clip-path="url(#pf4a386f78b)" d="M 352.489956 288.430125 
L 353.564001 288.430125 
L 353.564001 150.721817 
L 352.489956 150.721817 
z
" style="fill:#1f77b4;"/>
   </g>
   <g id="patch_227">
    <path clip-path="url(#pf4a386f78b)" d="M 353.832512 288.430125 
L 354.906557 288.430125 
L 354.906557 150.721817 
L 353.832512 150.721817 
z
" style="fill:#1f77b4;"/>
   </g>
   <g id="patch_228">
    <path clip-path="url(#pf4a386f78b)" d="M 355.175069 288.430125 
L 356.249114 288.430125 
L 356.249114 149.326125 
L 355.175069 149.326125 
z
" style="fill:#1f77b4;"/>
   </g>
   <g id="patch_229">
    <path clip-path="url(#pf4a386f78b)" d="M 356.517625 288.430125 
L 357.59167 288.430125 
L 357.59167 148.860894 
L 356.517625 148.860894 
z
" style="fill:#1f77b4;"/>
   </g>
   <g id="patch_230">
    <path clip-path="url(#pf4a386f78b)" d="M 357.860181 288.430125 
L 358.934227 288.430125 
L 358.934227 146.999971 
L 357.860181 146.999971 
z
" style="fill:#1f77b4;"/>
   </g>
   <g id="patch_231">
    <path clip-path="url(#pf4a386f78b)" d="M 359.202738 288.430125 
L 360.276783 288.430125 
L 360.276783 146.06951 
L 359.202738 146.06951 
z
" style="fill:#1f77b4;"/>
   </g>
   <g id="patch_232">
    <path clip-path="url(#pf4a386f78b)" d="M 360.545294 288.430125 
L 361.619339 288.430125 
L 361.619339 145.139048 
L 360.545294 145.139048 
z
" style="fill:#1f77b4;"/>
   </g>
   <g id="patch_233">
    <path clip-path="url(#pf4a386f78b)" d="M 361.887851 288.430125 
L 362.961896 288.430125 
L 362.961896 143.278125 
L 361.887851 143.278125 
z
" style="fill:#1f77b4;"/>
   </g>
   <g id="patch_234">
    <path clip-path="url(#pf4a386f78b)" d="M 363.230407 288.430125 
L 364.304452 288.430125 
L 364.304452 141.882433 
L 363.230407 141.882433 
z
" style="fill:#1f77b4;"/>
   </g>
   <g id="patch_235">
    <path clip-path="url(#pf4a386f78b)" d="M 364.572963 288.430125 
L 365.647008 288.430125 
L 365.647008 140.02151 
L 364.572963 140.02151 
z
" style="fill:#1f77b4;"/>
   </g>
   <g id="patch_236">
    <path clip-path="url(#pf4a386f78b)" d="M 365.91552 288.430125 
L 366.989565 288.430125 
L 366.989565 139.556279 
L 365.91552 139.556279 
z
" style="fill:#1f77b4;"/>
   </g>
   <g id="patch_237">
    <path clip-path="url(#pf4a386f78b)" d="M 367.258076 288.430125 
L 368.332121 288.430125 
L 368.332121 138.625817 
L 367.258076 138.625817 
z
" style="fill:#1f77b4;"/>
   </g>
   <g id="patch_238">
    <path clip-path="url(#pf4a386f78b)" d="M 368.600633 288.430125 
L 369.674678 288.430125 
L 369.674678 136.764894 
L 368.600633 136.764894 
z
" style="fill:#1f77b4;"/>
   </g>
   <g id="patch_239">
    <path clip-path="url(#pf4a386f78b)" d="M 369.943189 288.430125 
L 371.017234 288.430125 
L 371.017234 134.903971 
L 369.943189 134.903971 
z
" style="fill:#1f77b4;"/>
   </g>
   <g id="patch_240">
    <path clip-path="url(#pf4a386f78b)" d="M 371.285745 288.430125 
L 372.35979 288.430125 
L 372.35979 131.647356 
L 371.285745 131.647356 
z
" style="fill:#1f77b4;"/>
   </g>
   <g id="patch_241">
    <path clip-path="url(#pf4a386f78b)" d="M 372.628302 288.430125 
L 373.702347 288.430125 
L 373.702347 129.786433 
L 372.628302 129.786433 
z
" style="fill:#1f77b4;"/>
   </g>
   <g id="patch_242">
    <path clip-path="url(#pf4a386f78b)" d="M 373.970858 288.430125 
L 375.044903 288.430125 
L 375.044903 127.92551 
L 373.970858 127.92551 
z
" style="fill:#1f77b4;"/>
   </g>
   <g id="patch_243">
    <path clip-path="url(#pf4a386f78b)" d="M 375.313414 288.430125 
L 376.38746 288.430125 
L 376.38746 125.599356 
L 375.313414 125.599356 
z
" style="fill:#1f77b4;"/>
   </g>
   <g id="patch_244">
    <path clip-path="url(#pf4a386f78b)" d="M 376.655971 288.430125 
L 377.730016 288.430125 
L 377.730016 121.412279 
L 376.655971 121.412279 
z
" style="fill:#1f77b4;"/>
   </g>
   <g id="patch_245">
    <path clip-path="url(#pf4a386f78b)" d="M 377.998527 288.430125 
L 379.072572 288.430125 
L 379.072572 118.620894 
L 377.998527 118.620894 
z
" style="fill:#1f77b4;"/>
   </g>
   <g id="patch_246">
    <path clip-path="url(#pf4a386f78b)" d="M 379.341084 288.430125 
L 380.415129 288.430125 
L 380.415129 114.433817 
L 379.341084 114.433817 
z
" style="fill:#1f77b4;"/>
   </g>
   <g id="patch_247">
    <path clip-path="url(#pf4a386f78b)" d="M 380.68364 288.430125 
L 381.757685 288.430125 
L 381.757685 112.107663 
L 380.68364 112.107663 
z
" style="fill:#1f77b4;"/>
   </g>
   <g id="patch_248">
    <path clip-path="url(#pf4a386f78b)" d="M 382.026196 288.430125 
L 383.100242 288.430125 
L 383.100242 103.268279 
L 382.026196 103.268279 
z
" style="fill:#1f77b4;"/>
   </g>
   <g id="patch_249">
    <path clip-path="url(#pf4a386f78b)" d="M 383.368753 288.430125 
L 384.442798 288.430125 
L 384.442798 100.011663 
L 383.368753 100.011663 
z
" style="fill:#1f77b4;"/>
   </g>
   <g id="patch_250">
    <path clip-path="url(#pf4a386f78b)" d="M 384.711309 288.430125 
L 385.785354 288.430125 
L 385.785354 95.824587 
L 384.711309 95.824587 
z
" style="fill:#1f77b4;"/>
   </g>
   <g id="patch_251">
    <path clip-path="url(#pf4a386f78b)" d="M 386.053866 288.430125 
L 387.127911 288.430125 
L 387.127911 90.707048 
L 386.053866 90.707048 
z
" style="fill:#1f77b4;"/>
   </g>
   <g id="patch_252">
    <path clip-path="url(#pf4a386f78b)" d="M 387.396422 288.430125 
L 388.470467 288.430125 
L 388.470467 84.659048 
L 387.396422 84.659048 
z
" style="fill:#1f77b4;"/>
   </g>
   <g id="patch_253">
    <path clip-path="url(#pf4a386f78b)" d="M 388.738978 288.430125 
L 389.813023 288.430125 
L 389.813023 80.937202 
L 388.738978 80.937202 
z
" style="fill:#1f77b4;"/>
   </g>
   <g id="patch_254">
    <path clip-path="url(#pf4a386f78b)" d="M 390.081535 288.430125 
L 391.15558 288.430125 
L 391.15558 73.49351 
L 390.081535 73.49351 
z
" style="fill:#1f77b4;"/>
   </g>
   <g id="patch_255">
    <path clip-path="url(#pf4a386f78b)" d="M 391.424091 288.430125 
L 392.498136 288.430125 
L 392.498136 70.236894 
L 391.424091 70.236894 
z
" style="fill:#1f77b4;"/>
   </g>
   <g id="patch_256">
    <path clip-path="url(#pf4a386f78b)" d="M 392.766648 288.430125 
L 393.840693 288.430125 
L 393.840693 67.91074 
L 392.766648 67.91074 
z
" style="fill:#1f77b4;"/>
   </g>
   <g id="patch_257">
    <path clip-path="url(#pf4a386f78b)" d="M 394.109204 288.430125 
L 395.183249 288.430125 
L 395.183249 60.467048 
L 394.109204 60.467048 
z
" style="fill:#1f77b4;"/>
   </g>
   <g id="patch_258">
    <path clip-path="url(#pf4a386f78b)" d="M 395.45176 288.430125 
L 396.525805 288.430125 
L 396.525805 56.745202 
L 395.45176 56.745202 
z
" style="fill:#1f77b4;"/>
   </g>
   <g id="patch_259">
    <path clip-path="url(#pf4a386f78b)" d="M 396.794317 288.430125 
L 397.868362 288.430125 
L 397.868362 51.627663 
L 396.794317 51.627663 
z
" style="fill:#1f77b4;"/>
   </g>
   <g id="patch_260">
    <path clip-path="url(#pf4a386f78b)" d="M 398.136873 288.430125 
L 399.210918 288.430125 
L 399.210918 46.510125 
L 398.136873 46.510125 
z
" style="fill:#1f77b4;"/>
   </g>
   <g id="patch_261">
    <path clip-path="url(#pf4a386f78b)" d="M 399.47943 288.430125 
L 400.553475 288.430125 
L 400.553475 45.114433 
L 399.47943 45.114433 
z
" style="fill:#1f77b4;"/>
   </g>
   <g id="patch_262">
    <path clip-path="url(#pf4a386f78b)" d="M 400.821986 288.430125 
L 401.896031 288.430125 
L 401.896031 41.857817 
L 400.821986 41.857817 
z
" style="fill:#1f77b4;"/>
   </g>
   <g id="patch_263">
    <path clip-path="url(#pf4a386f78b)" d="M 402.164542 288.430125 
L 403.238587 288.430125 
L 403.238587 41.392587 
L 402.164542 41.392587 
z
" style="fill:#1f77b4;"/>
   </g>
   <g id="patch_264">
    <path clip-path="url(#pf4a386f78b)" d="M 403.507099 288.430125 
L 404.581144 288.430125 
L 404.581144 39.531663 
L 403.507099 39.531663 
z
" style="fill:#1f77b4;"/>
   </g>
   <g id="patch_265">
    <path clip-path="url(#pf4a386f78b)" d="M 404.849655 288.430125 
L 405.9237 288.430125 
L 405.9237 36.275048 
L 404.849655 36.275048 
z
" style="fill:#1f77b4;"/>
   </g>
   <g id="patch_266">
    <path clip-path="url(#pf4a386f78b)" d="M 406.192211 288.430125 
L 407.266257 288.430125 
L 407.266257 28.831356 
L 406.192211 28.831356 
z
" style="fill:#1f77b4;"/>
   </g>
   <g id="patch_267">
    <path clip-path="url(#pf4a386f78b)" d="M 407.534768 288.430125 
L 408.608813 288.430125 
L 408.608813 23.713817 
L 407.534768 23.713817 
z
" style="fill:#1f77b4;"/>
   </g>
   <g id="patch_268">
    <path clip-path="url(#pf4a386f78b)" d="M 408.877324 288.430125 
L 409.951369 288.430125 
L 409.951369 22.318125 
L 408.877324 22.318125 
z
" style="fill:#1f77b4;"/>
   </g>
   <g id="matplotlib.axis_1">
    <g id="xtick_1">
     <g id="line2d_1">
      <defs>
       <path d="M 0 0 
L 0 3.5 
" id="m1172abed6b" style="stroke:#000000;stroke-width:0.8;"/>
      </defs>
      <g>
       <use style="stroke:#000000;stroke-width:0.8;" x="76.460362" xlink:href="#m1172abed6b" y="288.430125"/>
      </g>
     </g>
     <g id="text_1">
      <!-- 2020-04 -->
      <g transform="translate(79.219737 337.212937)rotate(-90)scale(0.1 -0.1)">
       <defs>
        <path d="M 19.1875 8.296875 
L 53.609375 8.296875 
L 53.609375 0 
L 7.328125 0 
L 7.328125 8.296875 
Q 12.9375 14.109375 22.625 23.890625 
Q 32.328125 33.6875 34.8125 36.53125 
Q 39.546875 41.84375 41.421875 45.53125 
Q 43.3125 49.21875 43.3125 52.78125 
Q 43.3125 58.59375 39.234375 62.25 
Q 35.15625 65.921875 28.609375 65.921875 
Q 23.96875 65.921875 18.8125 64.3125 
Q 13.671875 62.703125 7.8125 59.421875 
L 7.8125 69.390625 
Q 13.765625 71.78125 18.9375 73 
Q 24.125 74.21875 28.421875 74.21875 
Q 39.75 74.21875 46.484375 68.546875 
Q 53.21875 62.890625 53.21875 53.421875 
Q 53.21875 48.921875 51.53125 44.890625 
Q 49.859375 40.875 45.40625 35.40625 
Q 44.1875 33.984375 37.640625 27.21875 
Q 31.109375 20.453125 19.1875 8.296875 
z
" id="DejaVuSans-50"/>
        <path d="M 31.78125 66.40625 
Q 24.171875 66.40625 20.328125 58.90625 
Q 16.5 51.421875 16.5 36.375 
Q 16.5 21.390625 20.328125 13.890625 
Q 24.171875 6.390625 31.78125 6.390625 
Q 39.453125 6.390625 43.28125 13.890625 
Q 47.125 21.390625 47.125 36.375 
Q 47.125 51.421875 43.28125 58.90625 
Q 39.453125 66.40625 31.78125 66.40625 
z
M 31.78125 74.21875 
Q 44.046875 74.21875 50.515625 64.515625 
Q 56.984375 54.828125 56.984375 36.375 
Q 56.984375 17.96875 50.515625 8.265625 
Q 44.046875 -1.421875 31.78125 -1.421875 
Q 19.53125 -1.421875 13.0625 8.265625 
Q 6.59375 17.96875 6.59375 36.375 
Q 6.59375 54.828125 13.0625 64.515625 
Q 19.53125 74.21875 31.78125 74.21875 
z
" id="DejaVuSans-48"/>
        <path d="M 4.890625 31.390625 
L 31.203125 31.390625 
L 31.203125 23.390625 
L 4.890625 23.390625 
z
" id="DejaVuSans-45"/>
        <path d="M 37.796875 64.3125 
L 12.890625 25.390625 
L 37.796875 25.390625 
z
M 35.203125 72.90625 
L 47.609375 72.90625 
L 47.609375 25.390625 
L 58.015625 25.390625 
L 58.015625 17.1875 
L 47.609375 17.1875 
L 47.609375 0 
L 37.796875 0 
L 37.796875 17.1875 
L 4.890625 17.1875 
L 4.890625 26.703125 
z
" id="DejaVuSans-52"/>
       </defs>
       <use xlink:href="#DejaVuSans-50"/>
       <use x="63.623047" xlink:href="#DejaVuSans-48"/>
       <use x="127.246094" xlink:href="#DejaVuSans-50"/>
       <use x="190.869141" xlink:href="#DejaVuSans-48"/>
       <use x="254.492188" xlink:href="#DejaVuSans-45"/>
       <use x="290.576172" xlink:href="#DejaVuSans-48"/>
       <use x="354.199219" xlink:href="#DejaVuSans-52"/>
      </g>
     </g>
    </g>
    <g id="xtick_2">
     <g id="line2d_2">
      <g>
       <use style="stroke:#000000;stroke-width:0.8;" x="116.737054" xlink:href="#m1172abed6b" y="288.430125"/>
      </g>
     </g>
     <g id="text_2">
      <!-- 2020-05 -->
      <g transform="translate(119.496429 337.212937)rotate(-90)scale(0.1 -0.1)">
       <defs>
        <path d="M 10.796875 72.90625 
L 49.515625 72.90625 
L 49.515625 64.59375 
L 19.828125 64.59375 
L 19.828125 46.734375 
Q 21.96875 47.46875 24.109375 47.828125 
Q 26.265625 48.1875 28.421875 48.1875 
Q 40.625 48.1875 47.75 41.5 
Q 54.890625 34.8125 54.890625 23.390625 
Q 54.890625 11.625 47.5625 5.09375 
Q 40.234375 -1.421875 26.90625 -1.421875 
Q 22.3125 -1.421875 17.546875 -0.640625 
Q 12.796875 0.140625 7.71875 1.703125 
L 7.71875 11.625 
Q 12.109375 9.234375 16.796875 8.0625 
Q 21.484375 6.890625 26.703125 6.890625 
Q 35.15625 6.890625 40.078125 11.328125 
Q 45.015625 15.765625 45.015625 23.390625 
Q 45.015625 31 40.078125 35.4375 
Q 35.15625 39.890625 26.703125 39.890625 
Q 22.75 39.890625 18.8125 39.015625 
Q 14.890625 38.140625 10.796875 36.28125 
z
" id="DejaVuSans-53"/>
       </defs>
       <use xlink:href="#DejaVuSans-50"/>
       <use x="63.623047" xlink:href="#DejaVuSans-48"/>
       <use x="127.246094" xlink:href="#DejaVuSans-50"/>
       <use x="190.869141" xlink:href="#DejaVuSans-48"/>
       <use x="254.492188" xlink:href="#DejaVuSans-45"/>
       <use x="290.576172" xlink:href="#DejaVuSans-48"/>
       <use x="354.199219" xlink:href="#DejaVuSans-53"/>
      </g>
     </g>
    </g>
    <g id="xtick_3">
     <g id="line2d_3">
      <g>
       <use style="stroke:#000000;stroke-width:0.8;" x="158.356302" xlink:href="#m1172abed6b" y="288.430125"/>
      </g>
     </g>
     <g id="text_3">
      <!-- 2020-06 -->
      <g transform="translate(161.115677 337.212937)rotate(-90)scale(0.1 -0.1)">
       <defs>
        <path d="M 33.015625 40.375 
Q 26.375 40.375 22.484375 35.828125 
Q 18.609375 31.296875 18.609375 23.390625 
Q 18.609375 15.53125 22.484375 10.953125 
Q 26.375 6.390625 33.015625 6.390625 
Q 39.65625 6.390625 43.53125 10.953125 
Q 47.40625 15.53125 47.40625 23.390625 
Q 47.40625 31.296875 43.53125 35.828125 
Q 39.65625 40.375 33.015625 40.375 
z
M 52.59375 71.296875 
L 52.59375 62.3125 
Q 48.875 64.0625 45.09375 64.984375 
Q 41.3125 65.921875 37.59375 65.921875 
Q 27.828125 65.921875 22.671875 59.328125 
Q 17.53125 52.734375 16.796875 39.40625 
Q 19.671875 43.65625 24.015625 45.921875 
Q 28.375 48.1875 33.59375 48.1875 
Q 44.578125 48.1875 50.953125 41.515625 
Q 57.328125 34.859375 57.328125 23.390625 
Q 57.328125 12.15625 50.6875 5.359375 
Q 44.046875 -1.421875 33.015625 -1.421875 
Q 20.359375 -1.421875 13.671875 8.265625 
Q 6.984375 17.96875 6.984375 36.375 
Q 6.984375 53.65625 15.1875 63.9375 
Q 23.390625 74.21875 37.203125 74.21875 
Q 40.921875 74.21875 44.703125 73.484375 
Q 48.484375 72.75 52.59375 71.296875 
z
" id="DejaVuSans-54"/>
       </defs>
       <use xlink:href="#DejaVuSans-50"/>
       <use x="63.623047" xlink:href="#DejaVuSans-48"/>
       <use x="127.246094" xlink:href="#DejaVuSans-50"/>
       <use x="190.869141" xlink:href="#DejaVuSans-48"/>
       <use x="254.492188" xlink:href="#DejaVuSans-45"/>
       <use x="290.576172" xlink:href="#DejaVuSans-48"/>
       <use x="354.199219" xlink:href="#DejaVuSans-54"/>
      </g>
     </g>
    </g>
    <g id="xtick_4">
     <g id="line2d_4">
      <g>
       <use style="stroke:#000000;stroke-width:0.8;" x="198.632993" xlink:href="#m1172abed6b" y="288.430125"/>
      </g>
     </g>
     <g id="text_4">
      <!-- 2020-07 -->
      <g transform="translate(201.392368 337.212937)rotate(-90)scale(0.1 -0.1)">
       <defs>
        <path d="M 8.203125 72.90625 
L 55.078125 72.90625 
L 55.078125 68.703125 
L 28.609375 0 
L 18.3125 0 
L 43.21875 64.59375 
L 8.203125 64.59375 
z
" id="DejaVuSans-55"/>
       </defs>
       <use xlink:href="#DejaVuSans-50"/>
       <use x="63.623047" xlink:href="#DejaVuSans-48"/>
       <use x="127.246094" xlink:href="#DejaVuSans-50"/>
       <use x="190.869141" xlink:href="#DejaVuSans-48"/>
       <use x="254.492188" xlink:href="#DejaVuSans-45"/>
       <use x="290.576172" xlink:href="#DejaVuSans-48"/>
       <use x="354.199219" xlink:href="#DejaVuSans-55"/>
      </g>
     </g>
    </g>
    <g id="xtick_5">
     <g id="line2d_5">
      <g>
       <use style="stroke:#000000;stroke-width:0.8;" x="240.252242" xlink:href="#m1172abed6b" y="288.430125"/>
      </g>
     </g>
     <g id="text_5">
      <!-- 2020-08 -->
      <g transform="translate(243.011617 337.212937)rotate(-90)scale(0.1 -0.1)">
       <defs>
        <path d="M 31.78125 34.625 
Q 24.75 34.625 20.71875 30.859375 
Q 16.703125 27.09375 16.703125 20.515625 
Q 16.703125 13.921875 20.71875 10.15625 
Q 24.75 6.390625 31.78125 6.390625 
Q 38.8125 6.390625 42.859375 10.171875 
Q 46.921875 13.96875 46.921875 20.515625 
Q 46.921875 27.09375 42.890625 30.859375 
Q 38.875 34.625 31.78125 34.625 
z
M 21.921875 38.8125 
Q 15.578125 40.375 12.03125 44.71875 
Q 8.5 49.078125 8.5 55.328125 
Q 8.5 64.0625 14.71875 69.140625 
Q 20.953125 74.21875 31.78125 74.21875 
Q 42.671875 74.21875 48.875 69.140625 
Q 55.078125 64.0625 55.078125 55.328125 
Q 55.078125 49.078125 51.53125 44.71875 
Q 48 40.375 41.703125 38.8125 
Q 48.828125 37.15625 52.796875 32.3125 
Q 56.78125 27.484375 56.78125 20.515625 
Q 56.78125 9.90625 50.3125 4.234375 
Q 43.84375 -1.421875 31.78125 -1.421875 
Q 19.734375 -1.421875 13.25 4.234375 
Q 6.78125 9.90625 6.78125 20.515625 
Q 6.78125 27.484375 10.78125 32.3125 
Q 14.796875 37.15625 21.921875 38.8125 
z
M 18.3125 54.390625 
Q 18.3125 48.734375 21.84375 45.5625 
Q 25.390625 42.390625 31.78125 42.390625 
Q 38.140625 42.390625 41.71875 45.5625 
Q 45.3125 48.734375 45.3125 54.390625 
Q 45.3125 60.0625 41.71875 63.234375 
Q 38.140625 66.40625 31.78125 66.40625 
Q 25.390625 66.40625 21.84375 63.234375 
Q 18.3125 60.0625 18.3125 54.390625 
z
" id="DejaVuSans-56"/>
       </defs>
       <use xlink:href="#DejaVuSans-50"/>
       <use x="63.623047" xlink:href="#DejaVuSans-48"/>
       <use x="127.246094" xlink:href="#DejaVuSans-50"/>
       <use x="190.869141" xlink:href="#DejaVuSans-48"/>
       <use x="254.492188" xlink:href="#DejaVuSans-45"/>
       <use x="290.576172" xlink:href="#DejaVuSans-48"/>
       <use x="354.199219" xlink:href="#DejaVuSans-56"/>
      </g>
     </g>
    </g>
    <g id="xtick_6">
     <g id="line2d_6">
      <g>
       <use style="stroke:#000000;stroke-width:0.8;" x="281.87149" xlink:href="#m1172abed6b" y="288.430125"/>
      </g>
     </g>
     <g id="text_6">
      <!-- 2020-09 -->
      <g transform="translate(284.630865 337.212937)rotate(-90)scale(0.1 -0.1)">
       <defs>
        <path d="M 10.984375 1.515625 
L 10.984375 10.5 
Q 14.703125 8.734375 18.5 7.8125 
Q 22.3125 6.890625 25.984375 6.890625 
Q 35.75 6.890625 40.890625 13.453125 
Q 46.046875 20.015625 46.78125 33.40625 
Q 43.953125 29.203125 39.59375 26.953125 
Q 35.25 24.703125 29.984375 24.703125 
Q 19.046875 24.703125 12.671875 31.3125 
Q 6.296875 37.9375 6.296875 49.421875 
Q 6.296875 60.640625 12.9375 67.421875 
Q 19.578125 74.21875 30.609375 74.21875 
Q 43.265625 74.21875 49.921875 64.515625 
Q 56.59375 54.828125 56.59375 36.375 
Q 56.59375 19.140625 48.40625 8.859375 
Q 40.234375 -1.421875 26.421875 -1.421875 
Q 22.703125 -1.421875 18.890625 -0.6875 
Q 15.09375 0.046875 10.984375 1.515625 
z
M 30.609375 32.421875 
Q 37.25 32.421875 41.125 36.953125 
Q 45.015625 41.5 45.015625 49.421875 
Q 45.015625 57.28125 41.125 61.84375 
Q 37.25 66.40625 30.609375 66.40625 
Q 23.96875 66.40625 20.09375 61.84375 
Q 16.21875 57.28125 16.21875 49.421875 
Q 16.21875 41.5 20.09375 36.953125 
Q 23.96875 32.421875 30.609375 32.421875 
z
" id="DejaVuSans-57"/>
       </defs>
       <use xlink:href="#DejaVuSans-50"/>
       <use x="63.623047" xlink:href="#DejaVuSans-48"/>
       <use x="127.246094" xlink:href="#DejaVuSans-50"/>
       <use x="190.869141" xlink:href="#DejaVuSans-48"/>
       <use x="254.492188" xlink:href="#DejaVuSans-45"/>
       <use x="290.576172" xlink:href="#DejaVuSans-48"/>
       <use x="354.199219" xlink:href="#DejaVuSans-57"/>
      </g>
     </g>
    </g>
    <g id="xtick_7">
     <g id="line2d_7">
      <g>
       <use style="stroke:#000000;stroke-width:0.8;" x="322.148181" xlink:href="#m1172abed6b" y="288.430125"/>
      </g>
     </g>
     <g id="text_7">
      <!-- 2020-10 -->
      <g transform="translate(324.907556 337.212937)rotate(-90)scale(0.1 -0.1)">
       <defs>
        <path d="M 12.40625 8.296875 
L 28.515625 8.296875 
L 28.515625 63.921875 
L 10.984375 60.40625 
L 10.984375 69.390625 
L 28.421875 72.90625 
L 38.28125 72.90625 
L 38.28125 8.296875 
L 54.390625 8.296875 
L 54.390625 0 
L 12.40625 0 
z
" id="DejaVuSans-49"/>
       </defs>
       <use xlink:href="#DejaVuSans-50"/>
       <use x="63.623047" xlink:href="#DejaVuSans-48"/>
       <use x="127.246094" xlink:href="#DejaVuSans-50"/>
       <use x="190.869141" xlink:href="#DejaVuSans-48"/>
       <use x="254.492188" xlink:href="#DejaVuSans-45"/>
       <use x="290.576172" xlink:href="#DejaVuSans-49"/>
       <use x="354.199219" xlink:href="#DejaVuSans-48"/>
      </g>
     </g>
    </g>
    <g id="xtick_8">
     <g id="line2d_8">
      <g>
       <use style="stroke:#000000;stroke-width:0.8;" x="363.76743" xlink:href="#m1172abed6b" y="288.430125"/>
      </g>
     </g>
     <g id="text_8">
      <!-- 2020-11 -->
      <g transform="translate(366.526805 337.212937)rotate(-90)scale(0.1 -0.1)">
       <use xlink:href="#DejaVuSans-50"/>
       <use x="63.623047" xlink:href="#DejaVuSans-48"/>
       <use x="127.246094" xlink:href="#DejaVuSans-50"/>
       <use x="190.869141" xlink:href="#DejaVuSans-48"/>
       <use x="254.492188" xlink:href="#DejaVuSans-45"/>
       <use x="290.576172" xlink:href="#DejaVuSans-49"/>
       <use x="354.199219" xlink:href="#DejaVuSans-49"/>
      </g>
     </g>
    </g>
    <g id="xtick_9">
     <g id="line2d_9">
      <g>
       <use style="stroke:#000000;stroke-width:0.8;" x="404.044121" xlink:href="#m1172abed6b" y="288.430125"/>
      </g>
     </g>
     <g id="text_9">
      <!-- 2020-12 -->
      <g transform="translate(406.803496 337.212937)rotate(-90)scale(0.1 -0.1)">
       <use xlink:href="#DejaVuSans-50"/>
       <use x="63.623047" xlink:href="#DejaVuSans-48"/>
       <use x="127.246094" xlink:href="#DejaVuSans-50"/>
       <use x="190.869141" xlink:href="#DejaVuSans-48"/>
       <use x="254.492188" xlink:href="#DejaVuSans-45"/>
       <use x="290.576172" xlink:href="#DejaVuSans-49"/>
       <use x="354.199219" xlink:href="#DejaVuSans-50"/>
      </g>
     </g>
    </g>
    <g id="text_10">
     <!-- date -->
     <g transform="translate(220.250625 354.811375)scale(0.1 -0.1)">
      <defs>
       <path d="M 45.40625 46.390625 
L 45.40625 75.984375 
L 54.390625 75.984375 
L 54.390625 0 
L 45.40625 0 
L 45.40625 8.203125 
Q 42.578125 3.328125 38.25 0.953125 
Q 33.9375 -1.421875 27.875 -1.421875 
Q 17.96875 -1.421875 11.734375 6.484375 
Q 5.515625 14.40625 5.515625 27.296875 
Q 5.515625 40.1875 11.734375 48.09375 
Q 17.96875 56 27.875 56 
Q 33.9375 56 38.25 53.625 
Q 42.578125 51.265625 45.40625 46.390625 
z
M 14.796875 27.296875 
Q 14.796875 17.390625 18.875 11.75 
Q 22.953125 6.109375 30.078125 6.109375 
Q 37.203125 6.109375 41.296875 11.75 
Q 45.40625 17.390625 45.40625 27.296875 
Q 45.40625 37.203125 41.296875 42.84375 
Q 37.203125 48.484375 30.078125 48.484375 
Q 22.953125 48.484375 18.875 42.84375 
Q 14.796875 37.203125 14.796875 27.296875 
z
" id="DejaVuSans-100"/>
       <path d="M 34.28125 27.484375 
Q 23.390625 27.484375 19.1875 25 
Q 14.984375 22.515625 14.984375 16.5 
Q 14.984375 11.71875 18.140625 8.90625 
Q 21.296875 6.109375 26.703125 6.109375 
Q 34.1875 6.109375 38.703125 11.40625 
Q 43.21875 16.703125 43.21875 25.484375 
L 43.21875 27.484375 
z
M 52.203125 31.203125 
L 52.203125 0 
L 43.21875 0 
L 43.21875 8.296875 
Q 40.140625 3.328125 35.546875 0.953125 
Q 30.953125 -1.421875 24.3125 -1.421875 
Q 15.921875 -1.421875 10.953125 3.296875 
Q 6 8.015625 6 15.921875 
Q 6 25.140625 12.171875 29.828125 
Q 18.359375 34.515625 30.609375 34.515625 
L 43.21875 34.515625 
L 43.21875 35.40625 
Q 43.21875 41.609375 39.140625 45 
Q 35.0625 48.390625 27.6875 48.390625 
Q 23 48.390625 18.546875 47.265625 
Q 14.109375 46.140625 10.015625 43.890625 
L 10.015625 52.203125 
Q 14.9375 54.109375 19.578125 55.046875 
Q 24.21875 56 28.609375 56 
Q 40.484375 56 46.34375 49.84375 
Q 52.203125 43.703125 52.203125 31.203125 
z
" id="DejaVuSans-97"/>
       <path d="M 18.3125 70.21875 
L 18.3125 54.6875 
L 36.8125 54.6875 
L 36.8125 47.703125 
L 18.3125 47.703125 
L 18.3125 18.015625 
Q 18.3125 11.328125 20.140625 9.421875 
Q 21.96875 7.515625 27.59375 7.515625 
L 36.8125 7.515625 
L 36.8125 0 
L 27.59375 0 
Q 17.1875 0 13.234375 3.875 
Q 9.28125 7.765625 9.28125 18.015625 
L 9.28125 47.703125 
L 2.6875 47.703125 
L 2.6875 54.6875 
L 9.28125 54.6875 
L 9.28125 70.21875 
z
" id="DejaVuSans-116"/>
       <path d="M 56.203125 29.59375 
L 56.203125 25.203125 
L 14.890625 25.203125 
Q 15.484375 15.921875 20.484375 11.0625 
Q 25.484375 6.203125 34.421875 6.203125 
Q 39.59375 6.203125 44.453125 7.46875 
Q 49.3125 8.734375 54.109375 11.28125 
L 54.109375 2.78125 
Q 49.265625 0.734375 44.1875 -0.34375 
Q 39.109375 -1.421875 33.890625 -1.421875 
Q 20.796875 -1.421875 13.15625 6.1875 
Q 5.515625 13.8125 5.515625 26.8125 
Q 5.515625 40.234375 12.765625 48.109375 
Q 20.015625 56 32.328125 56 
Q 43.359375 56 49.78125 48.890625 
Q 56.203125 41.796875 56.203125 29.59375 
z
M 47.21875 32.234375 
Q 47.125 39.59375 43.09375 43.984375 
Q 39.0625 48.390625 32.421875 48.390625 
Q 24.90625 48.390625 20.390625 44.140625 
Q 15.875 39.890625 15.1875 32.171875 
z
" id="DejaVuSans-101"/>
      </defs>
      <use xlink:href="#DejaVuSans-100"/>
      <use x="63.476562" xlink:href="#DejaVuSans-97"/>
      <use x="124.755859" xlink:href="#DejaVuSans-116"/>
      <use x="163.964844" xlink:href="#DejaVuSans-101"/>
     </g>
    </g>
   </g>
   <g id="matplotlib.axis_2">
    <g id="ytick_1">
     <g id="line2d_10">
      <defs>
       <path d="M 0 0 
L -3.5 0 
" id="m60bc2972be" style="stroke:#000000;stroke-width:0.8;"/>
      </defs>
      <g>
       <use style="stroke:#000000;stroke-width:0.8;" x="52.965625" xlink:href="#m60bc2972be" y="288.430125"/>
      </g>
     </g>
     <g id="text_11">
      <!-- 0 -->
      <g transform="translate(39.603125 292.229344)scale(0.1 -0.1)">
       <use xlink:href="#DejaVuSans-48"/>
      </g>
     </g>
    </g>
    <g id="ytick_2">
     <g id="line2d_11">
      <g>
       <use style="stroke:#000000;stroke-width:0.8;" x="52.965625" xlink:href="#m60bc2972be" y="241.907048"/>
      </g>
     </g>
     <g id="text_12">
      <!-- 100 -->
      <g transform="translate(26.878125 245.706267)scale(0.1 -0.1)">
       <use xlink:href="#DejaVuSans-49"/>
       <use x="63.623047" xlink:href="#DejaVuSans-48"/>
       <use x="127.246094" xlink:href="#DejaVuSans-48"/>
      </g>
     </g>
    </g>
    <g id="ytick_3">
     <g id="line2d_12">
      <g>
       <use style="stroke:#000000;stroke-width:0.8;" x="52.965625" xlink:href="#m60bc2972be" y="195.383971"/>
      </g>
     </g>
     <g id="text_13">
      <!-- 200 -->
      <g transform="translate(26.878125 199.18319)scale(0.1 -0.1)">
       <use xlink:href="#DejaVuSans-50"/>
       <use x="63.623047" xlink:href="#DejaVuSans-48"/>
       <use x="127.246094" xlink:href="#DejaVuSans-48"/>
      </g>
     </g>
    </g>
    <g id="ytick_4">
     <g id="line2d_13">
      <g>
       <use style="stroke:#000000;stroke-width:0.8;" x="52.965625" xlink:href="#m60bc2972be" y="148.860894"/>
      </g>
     </g>
     <g id="text_14">
      <!-- 300 -->
      <g transform="translate(26.878125 152.660113)scale(0.1 -0.1)">
       <defs>
        <path d="M 40.578125 39.3125 
Q 47.65625 37.796875 51.625 33 
Q 55.609375 28.21875 55.609375 21.1875 
Q 55.609375 10.40625 48.1875 4.484375 
Q 40.765625 -1.421875 27.09375 -1.421875 
Q 22.515625 -1.421875 17.65625 -0.515625 
Q 12.796875 0.390625 7.625 2.203125 
L 7.625 11.71875 
Q 11.71875 9.328125 16.59375 8.109375 
Q 21.484375 6.890625 26.8125 6.890625 
Q 36.078125 6.890625 40.9375 10.546875 
Q 45.796875 14.203125 45.796875 21.1875 
Q 45.796875 27.640625 41.28125 31.265625 
Q 36.765625 34.90625 28.71875 34.90625 
L 20.21875 34.90625 
L 20.21875 43.015625 
L 29.109375 43.015625 
Q 36.375 43.015625 40.234375 45.921875 
Q 44.09375 48.828125 44.09375 54.296875 
Q 44.09375 59.90625 40.109375 62.90625 
Q 36.140625 65.921875 28.71875 65.921875 
Q 24.65625 65.921875 20.015625 65.03125 
Q 15.375 64.15625 9.8125 62.3125 
L 9.8125 71.09375 
Q 15.4375 72.65625 20.34375 73.4375 
Q 25.25 74.21875 29.59375 74.21875 
Q 40.828125 74.21875 47.359375 69.109375 
Q 53.90625 64.015625 53.90625 55.328125 
Q 53.90625 49.265625 50.4375 45.09375 
Q 46.96875 40.921875 40.578125 39.3125 
z
" id="DejaVuSans-51"/>
       </defs>
       <use xlink:href="#DejaVuSans-51"/>
       <use x="63.623047" xlink:href="#DejaVuSans-48"/>
       <use x="127.246094" xlink:href="#DejaVuSans-48"/>
      </g>
     </g>
    </g>
    <g id="ytick_5">
     <g id="line2d_14">
      <g>
       <use style="stroke:#000000;stroke-width:0.8;" x="52.965625" xlink:href="#m60bc2972be" y="102.337817"/>
      </g>
     </g>
     <g id="text_15">
      <!-- 400 -->
      <g transform="translate(26.878125 106.137036)scale(0.1 -0.1)">
       <use xlink:href="#DejaVuSans-52"/>
       <use x="63.623047" xlink:href="#DejaVuSans-48"/>
       <use x="127.246094" xlink:href="#DejaVuSans-48"/>
      </g>
     </g>
    </g>
    <g id="ytick_6">
     <g id="line2d_15">
      <g>
       <use style="stroke:#000000;stroke-width:0.8;" x="52.965625" xlink:href="#m60bc2972be" y="55.81474"/>
      </g>
     </g>
     <g id="text_16">
      <!-- 500 -->
      <g transform="translate(26.878125 59.613959)scale(0.1 -0.1)">
       <use xlink:href="#DejaVuSans-53"/>
       <use x="63.623047" xlink:href="#DejaVuSans-48"/>
       <use x="127.246094" xlink:href="#DejaVuSans-48"/>
      </g>
     </g>
    </g>
    <g id="text_17">
     <!-- cumulative number of corona fatalities -->
     <g transform="translate(14.798438 252.560062)rotate(-90)scale(0.1 -0.1)">
      <defs>
       <path d="M 48.78125 52.59375 
L 48.78125 44.1875 
Q 44.96875 46.296875 41.140625 47.34375 
Q 37.3125 48.390625 33.40625 48.390625 
Q 24.65625 48.390625 19.8125 42.84375 
Q 14.984375 37.3125 14.984375 27.296875 
Q 14.984375 17.28125 19.8125 11.734375 
Q 24.65625 6.203125 33.40625 6.203125 
Q 37.3125 6.203125 41.140625 7.25 
Q 44.96875 8.296875 48.78125 10.40625 
L 48.78125 2.09375 
Q 45.015625 0.34375 40.984375 -0.53125 
Q 36.96875 -1.421875 32.421875 -1.421875 
Q 20.0625 -1.421875 12.78125 6.34375 
Q 5.515625 14.109375 5.515625 27.296875 
Q 5.515625 40.671875 12.859375 48.328125 
Q 20.21875 56 33.015625 56 
Q 37.15625 56 41.109375 55.140625 
Q 45.0625 54.296875 48.78125 52.59375 
z
" id="DejaVuSans-99"/>
       <path d="M 8.5 21.578125 
L 8.5 54.6875 
L 17.484375 54.6875 
L 17.484375 21.921875 
Q 17.484375 14.15625 20.5 10.265625 
Q 23.53125 6.390625 29.59375 6.390625 
Q 36.859375 6.390625 41.078125 11.03125 
Q 45.3125 15.671875 45.3125 23.6875 
L 45.3125 54.6875 
L 54.296875 54.6875 
L 54.296875 0 
L 45.3125 0 
L 45.3125 8.40625 
Q 42.046875 3.421875 37.71875 1 
Q 33.40625 -1.421875 27.6875 -1.421875 
Q 18.265625 -1.421875 13.375 4.4375 
Q 8.5 10.296875 8.5 21.578125 
z
M 31.109375 56 
z
" id="DejaVuSans-117"/>
       <path d="M 52 44.1875 
Q 55.375 50.25 60.0625 53.125 
Q 64.75 56 71.09375 56 
Q 79.640625 56 84.28125 50.015625 
Q 88.921875 44.046875 88.921875 33.015625 
L 88.921875 0 
L 79.890625 0 
L 79.890625 32.71875 
Q 79.890625 40.578125 77.09375 44.375 
Q 74.3125 48.1875 68.609375 48.1875 
Q 61.625 48.1875 57.5625 43.546875 
Q 53.515625 38.921875 53.515625 30.90625 
L 53.515625 0 
L 44.484375 0 
L 44.484375 32.71875 
Q 44.484375 40.625 41.703125 44.40625 
Q 38.921875 48.1875 33.109375 48.1875 
Q 26.21875 48.1875 22.15625 43.53125 
Q 18.109375 38.875 18.109375 30.90625 
L 18.109375 0 
L 9.078125 0 
L 9.078125 54.6875 
L 18.109375 54.6875 
L 18.109375 46.1875 
Q 21.1875 51.21875 25.484375 53.609375 
Q 29.78125 56 35.6875 56 
Q 41.65625 56 45.828125 52.96875 
Q 50 49.953125 52 44.1875 
z
" id="DejaVuSans-109"/>
       <path d="M 9.421875 75.984375 
L 18.40625 75.984375 
L 18.40625 0 
L 9.421875 0 
z
" id="DejaVuSans-108"/>
       <path d="M 9.421875 54.6875 
L 18.40625 54.6875 
L 18.40625 0 
L 9.421875 0 
z
M 9.421875 75.984375 
L 18.40625 75.984375 
L 18.40625 64.59375 
L 9.421875 64.59375 
z
" id="DejaVuSans-105"/>
       <path d="M 2.984375 54.6875 
L 12.5 54.6875 
L 29.59375 8.796875 
L 46.6875 54.6875 
L 56.203125 54.6875 
L 35.6875 0 
L 23.484375 0 
z
" id="DejaVuSans-118"/>
       <path id="DejaVuSans-32"/>
       <path d="M 54.890625 33.015625 
L 54.890625 0 
L 45.90625 0 
L 45.90625 32.71875 
Q 45.90625 40.484375 42.875 44.328125 
Q 39.84375 48.1875 33.796875 48.1875 
Q 26.515625 48.1875 22.3125 43.546875 
Q 18.109375 38.921875 18.109375 30.90625 
L 18.109375 0 
L 9.078125 0 
L 9.078125 54.6875 
L 18.109375 54.6875 
L 18.109375 46.1875 
Q 21.34375 51.125 25.703125 53.5625 
Q 30.078125 56 35.796875 56 
Q 45.21875 56 50.046875 50.171875 
Q 54.890625 44.34375 54.890625 33.015625 
z
" id="DejaVuSans-110"/>
       <path d="M 48.6875 27.296875 
Q 48.6875 37.203125 44.609375 42.84375 
Q 40.53125 48.484375 33.40625 48.484375 
Q 26.265625 48.484375 22.1875 42.84375 
Q 18.109375 37.203125 18.109375 27.296875 
Q 18.109375 17.390625 22.1875 11.75 
Q 26.265625 6.109375 33.40625 6.109375 
Q 40.53125 6.109375 44.609375 11.75 
Q 48.6875 17.390625 48.6875 27.296875 
z
M 18.109375 46.390625 
Q 20.953125 51.265625 25.265625 53.625 
Q 29.59375 56 35.59375 56 
Q 45.5625 56 51.78125 48.09375 
Q 58.015625 40.1875 58.015625 27.296875 
Q 58.015625 14.40625 51.78125 6.484375 
Q 45.5625 -1.421875 35.59375 -1.421875 
Q 29.59375 -1.421875 25.265625 0.953125 
Q 20.953125 3.328125 18.109375 8.203125 
L 18.109375 0 
L 9.078125 0 
L 9.078125 75.984375 
L 18.109375 75.984375 
z
" id="DejaVuSans-98"/>
       <path d="M 41.109375 46.296875 
Q 39.59375 47.171875 37.8125 47.578125 
Q 36.03125 48 33.890625 48 
Q 26.265625 48 22.1875 43.046875 
Q 18.109375 38.09375 18.109375 28.8125 
L 18.109375 0 
L 9.078125 0 
L 9.078125 54.6875 
L 18.109375 54.6875 
L 18.109375 46.1875 
Q 20.953125 51.171875 25.484375 53.578125 
Q 30.03125 56 36.53125 56 
Q 37.453125 56 38.578125 55.875 
Q 39.703125 55.765625 41.0625 55.515625 
z
" id="DejaVuSans-114"/>
       <path d="M 30.609375 48.390625 
Q 23.390625 48.390625 19.1875 42.75 
Q 14.984375 37.109375 14.984375 27.296875 
Q 14.984375 17.484375 19.15625 11.84375 
Q 23.34375 6.203125 30.609375 6.203125 
Q 37.796875 6.203125 41.984375 11.859375 
Q 46.1875 17.53125 46.1875 27.296875 
Q 46.1875 37.015625 41.984375 42.703125 
Q 37.796875 48.390625 30.609375 48.390625 
z
M 30.609375 56 
Q 42.328125 56 49.015625 48.375 
Q 55.71875 40.765625 55.71875 27.296875 
Q 55.71875 13.875 49.015625 6.21875 
Q 42.328125 -1.421875 30.609375 -1.421875 
Q 18.84375 -1.421875 12.171875 6.21875 
Q 5.515625 13.875 5.515625 27.296875 
Q 5.515625 40.765625 12.171875 48.375 
Q 18.84375 56 30.609375 56 
z
" id="DejaVuSans-111"/>
       <path d="M 37.109375 75.984375 
L 37.109375 68.5 
L 28.515625 68.5 
Q 23.6875 68.5 21.796875 66.546875 
Q 19.921875 64.59375 19.921875 59.515625 
L 19.921875 54.6875 
L 34.71875 54.6875 
L 34.71875 47.703125 
L 19.921875 47.703125 
L 19.921875 0 
L 10.890625 0 
L 10.890625 47.703125 
L 2.296875 47.703125 
L 2.296875 54.6875 
L 10.890625 54.6875 
L 10.890625 58.5 
Q 10.890625 67.625 15.140625 71.796875 
Q 19.390625 75.984375 28.609375 75.984375 
z
" id="DejaVuSans-102"/>
       <path d="M 44.28125 53.078125 
L 44.28125 44.578125 
Q 40.484375 46.53125 36.375 47.5 
Q 32.28125 48.484375 27.875 48.484375 
Q 21.1875 48.484375 17.84375 46.4375 
Q 14.5 44.390625 14.5 40.28125 
Q 14.5 37.15625 16.890625 35.375 
Q 19.28125 33.59375 26.515625 31.984375 
L 29.59375 31.296875 
Q 39.15625 29.25 43.1875 25.515625 
Q 47.21875 21.78125 47.21875 15.09375 
Q 47.21875 7.46875 41.1875 3.015625 
Q 35.15625 -1.421875 24.609375 -1.421875 
Q 20.21875 -1.421875 15.453125 -0.5625 
Q 10.6875 0.296875 5.421875 2 
L 5.421875 11.28125 
Q 10.40625 8.6875 15.234375 7.390625 
Q 20.0625 6.109375 24.8125 6.109375 
Q 31.15625 6.109375 34.5625 8.28125 
Q 37.984375 10.453125 37.984375 14.40625 
Q 37.984375 18.0625 35.515625 20.015625 
Q 33.0625 21.96875 24.703125 23.78125 
L 21.578125 24.515625 
Q 13.234375 26.265625 9.515625 29.90625 
Q 5.8125 33.546875 5.8125 39.890625 
Q 5.8125 47.609375 11.28125 51.796875 
Q 16.75 56 26.8125 56 
Q 31.78125 56 36.171875 55.265625 
Q 40.578125 54.546875 44.28125 53.078125 
z
" id="DejaVuSans-115"/>
      </defs>
      <use xlink:href="#DejaVuSans-99"/>
      <use x="54.980469" xlink:href="#DejaVuSans-117"/>
      <use x="118.359375" xlink:href="#DejaVuSans-109"/>
      <use x="215.771484" xlink:href="#DejaVuSans-117"/>
      <use x="279.150391" xlink:href="#DejaVuSans-108"/>
      <use x="306.933594" xlink:href="#DejaVuSans-97"/>
      <use x="368.212891" xlink:href="#DejaVuSans-116"/>
      <use x="407.421875" xlink:href="#DejaVuSans-105"/>
      <use x="435.205078" xlink:href="#DejaVuSans-118"/>
      <use x="494.384766" xlink:href="#DejaVuSans-101"/>
      <use x="555.908203" xlink:href="#DejaVuSans-32"/>
      <use x="587.695312" xlink:href="#DejaVuSans-110"/>
      <use x="651.074219" xlink:href="#DejaVuSans-117"/>
      <use x="714.453125" xlink:href="#DejaVuSans-109"/>
      <use x="811.865234" xlink:href="#DejaVuSans-98"/>
      <use x="875.341797" xlink:href="#DejaVuSans-101"/>
      <use x="936.865234" xlink:href="#DejaVuSans-114"/>
      <use x="977.978516" xlink:href="#DejaVuSans-32"/>
      <use x="1009.765625" xlink:href="#DejaVuSans-111"/>
      <use x="1070.947266" xlink:href="#DejaVuSans-102"/>
      <use x="1106.152344" xlink:href="#DejaVuSans-32"/>
      <use x="1137.939453" xlink:href="#DejaVuSans-99"/>
      <use x="1192.919922" xlink:href="#DejaVuSans-111"/>
      <use x="1254.101562" xlink:href="#DejaVuSans-114"/>
      <use x="1292.964844" xlink:href="#DejaVuSans-111"/>
      <use x="1354.146484" xlink:href="#DejaVuSans-110"/>
      <use x="1417.525391" xlink:href="#DejaVuSans-97"/>
      <use x="1478.804688" xlink:href="#DejaVuSans-32"/>
      <use x="1510.591797" xlink:href="#DejaVuSans-102"/>
      <use x="1545.796875" xlink:href="#DejaVuSans-97"/>
      <use x="1607.076172" xlink:href="#DejaVuSans-116"/>
      <use x="1646.285156" xlink:href="#DejaVuSans-97"/>
      <use x="1707.564453" xlink:href="#DejaVuSans-108"/>
      <use x="1735.347656" xlink:href="#DejaVuSans-105"/>
      <use x="1763.130859" xlink:href="#DejaVuSans-116"/>
      <use x="1802.339844" xlink:href="#DejaVuSans-105"/>
      <use x="1830.123047" xlink:href="#DejaVuSans-101"/>
      <use x="1891.646484" xlink:href="#DejaVuSans-115"/>
     </g>
    </g>
   </g>
   <g id="patch_269">
    <path d="M 52.965625 288.430125 
L 52.965625 22.318125 
" style="fill:none;stroke:#000000;stroke-linecap:square;stroke-linejoin:miter;stroke-width:0.8;"/>
   </g>
   <g id="patch_270">
    <path d="M 52.965625 288.430125 
L 410.085625 288.430125 
" style="fill:none;stroke:#000000;stroke-linecap:square;stroke-linejoin:miter;stroke-width:0.8;"/>
   </g>
   <g id="text_18">
    <!-- South Tyrol -->
    <g transform="translate(198.233125 16.318125)scale(0.12 -0.12)">
     <defs>
      <path d="M 53.515625 70.515625 
L 53.515625 60.890625 
Q 47.90625 63.578125 42.921875 64.890625 
Q 37.9375 66.21875 33.296875 66.21875 
Q 25.25 66.21875 20.875 63.09375 
Q 16.5 59.96875 16.5 54.203125 
Q 16.5 49.359375 19.40625 46.890625 
Q 22.3125 44.4375 30.421875 42.921875 
L 36.375 41.703125 
Q 47.40625 39.59375 52.65625 34.296875 
Q 57.90625 29 57.90625 20.125 
Q 57.90625 9.515625 50.796875 4.046875 
Q 43.703125 -1.421875 29.984375 -1.421875 
Q 24.8125 -1.421875 18.96875 -0.25 
Q 13.140625 0.921875 6.890625 3.21875 
L 6.890625 13.375 
Q 12.890625 10.015625 18.65625 8.296875 
Q 24.421875 6.59375 29.984375 6.59375 
Q 38.421875 6.59375 43.015625 9.90625 
Q 47.609375 13.234375 47.609375 19.390625 
Q 47.609375 24.75 44.3125 27.78125 
Q 41.015625 30.8125 33.5 32.328125 
L 27.484375 33.5 
Q 16.453125 35.6875 11.515625 40.375 
Q 6.59375 45.0625 6.59375 53.421875 
Q 6.59375 63.09375 13.40625 68.65625 
Q 20.21875 74.21875 32.171875 74.21875 
Q 37.3125 74.21875 42.625 73.28125 
Q 47.953125 72.359375 53.515625 70.515625 
z
" id="DejaVuSans-83"/>
      <path d="M 54.890625 33.015625 
L 54.890625 0 
L 45.90625 0 
L 45.90625 32.71875 
Q 45.90625 40.484375 42.875 44.328125 
Q 39.84375 48.1875 33.796875 48.1875 
Q 26.515625 48.1875 22.3125 43.546875 
Q 18.109375 38.921875 18.109375 30.90625 
L 18.109375 0 
L 9.078125 0 
L 9.078125 75.984375 
L 18.109375 75.984375 
L 18.109375 46.1875 
Q 21.34375 51.125 25.703125 53.5625 
Q 30.078125 56 35.796875 56 
Q 45.21875 56 50.046875 50.171875 
Q 54.890625 44.34375 54.890625 33.015625 
z
" id="DejaVuSans-104"/>
      <path d="M -0.296875 72.90625 
L 61.375 72.90625 
L 61.375 64.59375 
L 35.5 64.59375 
L 35.5 0 
L 25.59375 0 
L 25.59375 64.59375 
L -0.296875 64.59375 
z
" id="DejaVuSans-84"/>
      <path d="M 32.171875 -5.078125 
Q 28.375 -14.84375 24.75 -17.8125 
Q 21.140625 -20.796875 15.09375 -20.796875 
L 7.90625 -20.796875 
L 7.90625 -13.28125 
L 13.1875 -13.28125 
Q 16.890625 -13.28125 18.9375 -11.515625 
Q 21 -9.765625 23.484375 -3.21875 
L 25.09375 0.875 
L 2.984375 54.6875 
L 12.5 54.6875 
L 29.59375 11.921875 
L 46.6875 54.6875 
L 56.203125 54.6875 
z
" id="DejaVuSans-121"/>
     </defs>
     <use xlink:href="#DejaVuSans-83"/>
     <use x="63.476562" xlink:href="#DejaVuSans-111"/>
     <use x="124.658203" xlink:href="#DejaVuSans-117"/>
     <use x="188.037109" xlink:href="#DejaVuSans-116"/>
     <use x="227.246094" xlink:href="#DejaVuSans-104"/>
     <use x="290.625" xlink:href="#DejaVuSans-32"/>
     <use x="322.412109" xlink:href="#DejaVuSans-84"/>
     <use x="367.871094" xlink:href="#DejaVuSans-121"/>
     <use x="427.050781" xlink:href="#DejaVuSans-114"/>
     <use x="465.914062" xlink:href="#DejaVuSans-111"/>
     <use x="527.095703" xlink:href="#DejaVuSans-108"/>
    </g>
   </g>
  </g>
 </g>
 <defs>
  <clipPath id="pf4a386f78b">
   <rect height="266.112" width="357.12" x="52.965625" y="22.318125"/>
  </clipPath>
 </defs>
</svg>
