<?xml version="1.0" encoding="utf-8" standalone="no"?>
<!DOCTYPE svg PUBLIC "-//W3C//DTD SVG 1.1//EN"
  "http://www.w3.org/Graphics/SVG/1.1/DTD/svg11.dtd">
<!-- Created with matplotlib (https://matplotlib.org/) -->
<svg height="364.091062pt" version="1.1" viewBox="0 0 417.285625 364.091062" width="417.285625pt" xmlns="http://www.w3.org/2000/svg" xmlns:xlink="http://www.w3.org/1999/xlink">
 <metadata>
  <rdf:RDF xmlns:cc="http://creativecommons.org/ns#" xmlns:dc="http://purl.org/dc/elements/1.1/" xmlns:rdf="http://www.w3.org/1999/02/22-rdf-syntax-ns#">
   <cc:Work>
    <dc:type rdf:resource="http://purl.org/dc/dcmitype/StillImage"/>
    <dc:date>2020-12-08T13:14:32.946177</dc:date>
    <dc:format>image/svg+xml</dc:format>
    <dc:creator>
     <cc:Agent>
      <dc:title>Matplotlib v3.3.3, https://matplotlib.org/</dc:title>
     </cc:Agent>
    </dc:creator>
   </cc:Work>
  </rdf:RDF>
 </metadata>
 <defs>
  <style type="text/css">*{stroke-linecap:butt;stroke-linejoin:round;}</style>
 </defs>
 <g id="figure_1">
  <g id="patch_1">
   <path d="M 0 364.091062 
L 417.285625 364.091062 
L 417.285625 0 
L 0 0 
z
" style="fill:#ffffff;"/>
  </g>
  <g id="axes_1">
   <g id="patch_2">
    <path d="M 52.965625 288.430125 
L 410.085625 288.430125 
L 410.085625 22.318125 
L 52.965625 22.318125 
z
" style="fill:#ffffff;"/>
   </g>
   <g id="patch_3">
    <path clip-path="url(#pbba1c45431)" d="M 53.098383 288.430125 
L 54.16045 288.430125 
L 54.16045 286.190125 
L 53.098383 286.190125 
z
" style="fill:#1f77b4;"/>
   </g>
   <g id="patch_4">
    <path clip-path="url(#pbba1c45431)" d="M 54.425967 288.430125 
L 55.488034 288.430125 
L 55.488034 285.742125 
L 54.425967 285.742125 
z
" style="fill:#1f77b4;"/>
   </g>
   <g id="patch_5">
    <path clip-path="url(#pbba1c45431)" d="M 55.753551 288.430125 
L 56.815618 288.430125 
L 56.815618 284.398125 
L 55.753551 284.398125 
z
" style="fill:#1f77b4;"/>
   </g>
   <g id="patch_6">
    <path clip-path="url(#pbba1c45431)" d="M 57.081134 288.430125 
L 58.143201 288.430125 
L 58.143201 283.054125 
L 57.081134 283.054125 
z
" style="fill:#1f77b4;"/>
   </g>
   <g id="patch_7">
    <path clip-path="url(#pbba1c45431)" d="M 58.408718 288.430125 
L 59.470785 288.430125 
L 59.470785 281.262125 
L 58.408718 281.262125 
z
" style="fill:#1f77b4;"/>
   </g>
   <g id="patch_8">
    <path clip-path="url(#pbba1c45431)" d="M 59.736302 288.430125 
L 60.798368 288.430125 
L 60.798368 279.918125 
L 59.736302 279.918125 
z
" style="fill:#1f77b4;"/>
   </g>
   <g id="patch_9">
    <path clip-path="url(#pbba1c45431)" d="M 61.063885 288.430125 
L 62.125952 288.430125 
L 62.125952 277.678125 
L 61.063885 277.678125 
z
" style="fill:#1f77b4;"/>
   </g>
   <g id="patch_10">
    <path clip-path="url(#pbba1c45431)" d="M 62.391469 288.430125 
L 63.453536 288.430125 
L 63.453536 274.542125 
L 62.391469 274.542125 
z
" style="fill:#1f77b4;"/>
   </g>
   <g id="patch_11">
    <path clip-path="url(#pbba1c45431)" d="M 63.719053 288.430125 
L 64.781119 288.430125 
L 64.781119 272.750125 
L 63.719053 272.750125 
z
" style="fill:#1f77b4;"/>
   </g>
   <g id="patch_12">
    <path clip-path="url(#pbba1c45431)" d="M 65.046636 288.430125 
L 66.108703 288.430125 
L 66.108703 268.718125 
L 65.046636 268.718125 
z
" style="fill:#1f77b4;"/>
   </g>
   <g id="patch_13">
    <path clip-path="url(#pbba1c45431)" d="M 66.37422 288.430125 
L 67.436287 288.430125 
L 67.436287 268.270125 
L 66.37422 268.270125 
z
" style="fill:#1f77b4;"/>
   </g>
   <g id="patch_14">
    <path clip-path="url(#pbba1c45431)" d="M 67.701803 288.430125 
L 68.76387 288.430125 
L 68.76387 264.686125 
L 67.701803 264.686125 
z
" style="fill:#1f77b4;"/>
   </g>
   <g id="patch_15">
    <path clip-path="url(#pbba1c45431)" d="M 69.029387 288.430125 
L 70.091454 288.430125 
L 70.091454 261.550125 
L 69.029387 261.550125 
z
" style="fill:#1f77b4;"/>
   </g>
   <g id="patch_16">
    <path clip-path="url(#pbba1c45431)" d="M 70.356971 288.430125 
L 71.419038 288.430125 
L 71.419038 259.758125 
L 70.356971 259.758125 
z
" style="fill:#1f77b4;"/>
   </g>
   <g id="patch_17">
    <path clip-path="url(#pbba1c45431)" d="M 71.684554 288.430125 
L 72.746621 288.430125 
L 72.746621 256.622125 
L 71.684554 256.622125 
z
" style="fill:#1f77b4;"/>
   </g>
   <g id="patch_18">
    <path clip-path="url(#pbba1c45431)" d="M 73.012138 288.430125 
L 74.074205 288.430125 
L 74.074205 255.278125 
L 73.012138 255.278125 
z
" style="fill:#1f77b4;"/>
   </g>
   <g id="patch_19">
    <path clip-path="url(#pbba1c45431)" d="M 74.339722 288.430125 
L 75.401789 288.430125 
L 75.401789 239.150125 
L 74.339722 239.150125 
z
" style="fill:#1f77b4;"/>
   </g>
   <g id="patch_20">
    <path clip-path="url(#pbba1c45431)" d="M 75.667305 288.430125 
L 76.729372 288.430125 
L 76.729372 234.670125 
L 75.667305 234.670125 
z
" style="fill:#1f77b4;"/>
   </g>
   <g id="patch_21">
    <path clip-path="url(#pbba1c45431)" d="M 76.994889 288.430125 
L 78.056956 288.430125 
L 78.056956 231.086125 
L 76.994889 231.086125 
z
" style="fill:#1f77b4;"/>
   </g>
   <g id="patch_22">
    <path clip-path="url(#pbba1c45431)" d="M 78.322473 288.430125 
L 79.384539 288.430125 
L 79.384539 224.814125 
L 78.322473 224.814125 
z
" style="fill:#1f77b4;"/>
   </g>
   <g id="patch_23">
    <path clip-path="url(#pbba1c45431)" d="M 79.650056 288.430125 
L 80.712123 288.430125 
L 80.712123 223.022125 
L 79.650056 223.022125 
z
" style="fill:#1f77b4;"/>
   </g>
   <g id="patch_24">
    <path clip-path="url(#pbba1c45431)" d="M 80.97764 288.430125 
L 82.039707 288.430125 
L 82.039707 218.542125 
L 80.97764 218.542125 
z
" style="fill:#1f77b4;"/>
   </g>
   <g id="patch_25">
    <path clip-path="url(#pbba1c45431)" d="M 82.305224 288.430125 
L 83.36729 288.430125 
L 83.36729 214.958125 
L 82.305224 214.958125 
z
" style="fill:#1f77b4;"/>
   </g>
   <g id="patch_26">
    <path clip-path="url(#pbba1c45431)" d="M 83.632807 288.430125 
L 84.694874 288.430125 
L 84.694874 211.374125 
L 83.632807 211.374125 
z
" style="fill:#1f77b4;"/>
   </g>
   <g id="patch_27">
    <path clip-path="url(#pbba1c45431)" d="M 84.960391 288.430125 
L 86.022458 288.430125 
L 86.022458 208.686125 
L 84.960391 208.686125 
z
" style="fill:#1f77b4;"/>
   </g>
   <g id="patch_28">
    <path clip-path="url(#pbba1c45431)" d="M 86.287974 288.430125 
L 87.350041 288.430125 
L 87.350041 204.654125 
L 86.287974 204.654125 
z
" style="fill:#1f77b4;"/>
   </g>
   <g id="patch_29">
    <path clip-path="url(#pbba1c45431)" d="M 87.615558 288.430125 
L 88.677625 288.430125 
L 88.677625 202.414125 
L 87.615558 202.414125 
z
" style="fill:#1f77b4;"/>
   </g>
   <g id="patch_30">
    <path clip-path="url(#pbba1c45431)" d="M 88.943142 288.430125 
L 90.005209 288.430125 
L 90.005209 198.830125 
L 88.943142 198.830125 
z
" style="fill:#1f77b4;"/>
   </g>
   <g id="patch_31">
    <path clip-path="url(#pbba1c45431)" d="M 90.270725 288.430125 
L 91.332792 288.430125 
L 91.332792 197.038125 
L 90.270725 197.038125 
z
" style="fill:#1f77b4;"/>
   </g>
   <g id="patch_32">
    <path clip-path="url(#pbba1c45431)" d="M 91.598309 288.430125 
L 92.660376 288.430125 
L 92.660376 192.110125 
L 91.598309 192.110125 
z
" style="fill:#1f77b4;"/>
   </g>
   <g id="patch_33">
    <path clip-path="url(#pbba1c45431)" d="M 92.925893 288.430125 
L 93.98796 288.430125 
L 93.98796 191.214125 
L 92.925893 191.214125 
z
" style="fill:#1f77b4;"/>
   </g>
   <g id="patch_34">
    <path clip-path="url(#pbba1c45431)" d="M 94.253476 288.430125 
L 95.315543 288.430125 
L 95.315543 189.422125 
L 94.253476 189.422125 
z
" style="fill:#1f77b4;"/>
   </g>
   <g id="patch_35">
    <path clip-path="url(#pbba1c45431)" d="M 95.58106 288.430125 
L 96.643127 288.430125 
L 96.643127 186.286125 
L 95.58106 186.286125 
z
" style="fill:#1f77b4;"/>
   </g>
   <g id="patch_36">
    <path clip-path="url(#pbba1c45431)" d="M 96.908644 288.430125 
L 97.970711 288.430125 
L 97.970711 184.494125 
L 96.908644 184.494125 
z
" style="fill:#1f77b4;"/>
   </g>
   <g id="patch_37">
    <path clip-path="url(#pbba1c45431)" d="M 98.236227 288.430125 
L 99.298294 288.430125 
L 99.298294 181.358125 
L 98.236227 181.358125 
z
" style="fill:#1f77b4;"/>
   </g>
   <g id="patch_38">
    <path clip-path="url(#pbba1c45431)" d="M 99.563811 288.430125 
L 100.625878 288.430125 
L 100.625878 178.670125 
L 99.563811 178.670125 
z
" style="fill:#1f77b4;"/>
   </g>
   <g id="patch_39">
    <path clip-path="url(#pbba1c45431)" d="M 100.891395 288.430125 
L 101.953461 288.430125 
L 101.953461 176.878125 
L 100.891395 176.878125 
z
" style="fill:#1f77b4;"/>
   </g>
   <g id="patch_40">
    <path clip-path="url(#pbba1c45431)" d="M 102.218978 288.430125 
L 103.281045 288.430125 
L 103.281045 175.534125 
L 102.218978 175.534125 
z
" style="fill:#1f77b4;"/>
   </g>
   <g id="patch_41">
    <path clip-path="url(#pbba1c45431)" d="M 103.546562 288.430125 
L 104.608629 288.430125 
L 104.608629 173.742125 
L 103.546562 173.742125 
z
" style="fill:#1f77b4;"/>
   </g>
   <g id="patch_42">
    <path clip-path="url(#pbba1c45431)" d="M 104.874145 288.430125 
L 105.936212 288.430125 
L 105.936212 171.502125 
L 104.874145 171.502125 
z
" style="fill:#1f77b4;"/>
   </g>
   <g id="patch_43">
    <path clip-path="url(#pbba1c45431)" d="M 106.201729 288.430125 
L 107.263796 288.430125 
L 107.263796 170.606125 
L 106.201729 170.606125 
z
" style="fill:#1f77b4;"/>
   </g>
   <g id="patch_44">
    <path clip-path="url(#pbba1c45431)" d="M 107.529313 288.430125 
L 108.59138 288.430125 
L 108.59138 169.710125 
L 107.529313 169.710125 
z
" style="fill:#1f77b4;"/>
   </g>
   <g id="patch_45">
    <path clip-path="url(#pbba1c45431)" d="M 108.856896 288.430125 
L 109.918963 288.430125 
L 109.918963 167.918125 
L 108.856896 167.918125 
z
" style="fill:#1f77b4;"/>
   </g>
   <g id="patch_46">
    <path clip-path="url(#pbba1c45431)" d="M 110.18448 288.430125 
L 111.246547 288.430125 
L 111.246547 167.470125 
L 110.18448 167.470125 
z
" style="fill:#1f77b4;"/>
   </g>
   <g id="patch_47">
    <path clip-path="url(#pbba1c45431)" d="M 111.512064 288.430125 
L 112.574131 288.430125 
L 112.574131 166.574125 
L 111.512064 166.574125 
z
" style="fill:#1f77b4;"/>
   </g>
   <g id="patch_48">
    <path clip-path="url(#pbba1c45431)" d="M 112.839647 288.430125 
L 113.901714 288.430125 
L 113.901714 165.678125 
L 112.839647 165.678125 
z
" style="fill:#1f77b4;"/>
   </g>
   <g id="patch_49">
    <path clip-path="url(#pbba1c45431)" d="M 114.167231 288.430125 
L 115.229298 288.430125 
L 115.229298 165.230125 
L 114.167231 165.230125 
z
" style="fill:#1f77b4;"/>
   </g>
   <g id="patch_50">
    <path clip-path="url(#pbba1c45431)" d="M 115.494815 288.430125 
L 116.556882 288.430125 
L 116.556882 163.886125 
L 115.494815 163.886125 
z
" style="fill:#1f77b4;"/>
   </g>
   <g id="patch_51">
    <path clip-path="url(#pbba1c45431)" d="M 116.822398 288.430125 
L 117.884465 288.430125 
L 117.884465 163.438125 
L 116.822398 163.438125 
z
" style="fill:#1f77b4;"/>
   </g>
   <g id="patch_52">
    <path clip-path="url(#pbba1c45431)" d="M 118.149982 288.430125 
L 119.212049 288.430125 
L 119.212049 162.542125 
L 118.149982 162.542125 
z
" style="fill:#1f77b4;"/>
   </g>
   <g id="patch_53">
    <path clip-path="url(#pbba1c45431)" d="M 119.477566 288.430125 
L 120.539632 288.430125 
L 120.539632 161.198125 
L 119.477566 161.198125 
z
" style="fill:#1f77b4;"/>
   </g>
   <g id="patch_54">
    <path clip-path="url(#pbba1c45431)" d="M 120.805149 288.430125 
L 121.867216 288.430125 
L 121.867216 160.302125 
L 120.805149 160.302125 
z
" style="fill:#1f77b4;"/>
   </g>
   <g id="patch_55">
    <path clip-path="url(#pbba1c45431)" d="M 122.132733 288.430125 
L 123.1948 288.430125 
L 123.1948 160.302125 
L 122.132733 160.302125 
z
" style="fill:#1f77b4;"/>
   </g>
   <g id="patch_56">
    <path clip-path="url(#pbba1c45431)" d="M 123.460316 288.430125 
L 124.522383 288.430125 
L 124.522383 160.302125 
L 123.460316 160.302125 
z
" style="fill:#1f77b4;"/>
   </g>
   <g id="patch_57">
    <path clip-path="url(#pbba1c45431)" d="M 124.7879 288.430125 
L 125.849967 288.430125 
L 125.849967 158.958125 
L 124.7879 158.958125 
z
" style="fill:#1f77b4;"/>
   </g>
   <g id="patch_58">
    <path clip-path="url(#pbba1c45431)" d="M 126.115484 288.430125 
L 127.177551 288.430125 
L 127.177551 158.510125 
L 126.115484 158.510125 
z
" style="fill:#1f77b4;"/>
   </g>
   <g id="patch_59">
    <path clip-path="url(#pbba1c45431)" d="M 127.443067 288.430125 
L 128.505134 288.430125 
L 128.505134 158.510125 
L 127.443067 158.510125 
z
" style="fill:#1f77b4;"/>
   </g>
   <g id="patch_60">
    <path clip-path="url(#pbba1c45431)" d="M 128.770651 288.430125 
L 129.832718 288.430125 
L 129.832718 158.510125 
L 128.770651 158.510125 
z
" style="fill:#1f77b4;"/>
   </g>
   <g id="patch_61">
    <path clip-path="url(#pbba1c45431)" d="M 130.098235 288.430125 
L 131.160302 288.430125 
L 131.160302 158.510125 
L 130.098235 158.510125 
z
" style="fill:#1f77b4;"/>
   </g>
   <g id="patch_62">
    <path clip-path="url(#pbba1c45431)" d="M 131.425818 288.430125 
L 132.487885 288.430125 
L 132.487885 158.510125 
L 131.425818 158.510125 
z
" style="fill:#1f77b4;"/>
   </g>
   <g id="patch_63">
    <path clip-path="url(#pbba1c45431)" d="M 132.753402 288.430125 
L 133.815469 288.430125 
L 133.815469 158.510125 
L 132.753402 158.510125 
z
" style="fill:#1f77b4;"/>
   </g>
   <g id="patch_64">
    <path clip-path="url(#pbba1c45431)" d="M 134.080986 288.430125 
L 135.143053 288.430125 
L 135.143053 158.510125 
L 134.080986 158.510125 
z
" style="fill:#1f77b4;"/>
   </g>
   <g id="patch_65">
    <path clip-path="url(#pbba1c45431)" d="M 135.408569 288.430125 
L 136.470636 288.430125 
L 136.470636 158.510125 
L 135.408569 158.510125 
z
" style="fill:#1f77b4;"/>
   </g>
   <g id="patch_66">
    <path clip-path="url(#pbba1c45431)" d="M 136.736153 288.430125 
L 137.79822 288.430125 
L 137.79822 158.510125 
L 136.736153 158.510125 
z
" style="fill:#1f77b4;"/>
   </g>
   <g id="patch_67">
    <path clip-path="url(#pbba1c45431)" d="M 138.063737 288.430125 
L 139.125803 288.430125 
L 139.125803 158.062125 
L 138.063737 158.062125 
z
" style="fill:#1f77b4;"/>
   </g>
   <g id="patch_68">
    <path clip-path="url(#pbba1c45431)" d="M 139.39132 288.430125 
L 140.453387 288.430125 
L 140.453387 158.062125 
L 139.39132 158.062125 
z
" style="fill:#1f77b4;"/>
   </g>
   <g id="patch_69">
    <path clip-path="url(#pbba1c45431)" d="M 140.718904 288.430125 
L 141.780971 288.430125 
L 141.780971 158.062125 
L 140.718904 158.062125 
z
" style="fill:#1f77b4;"/>
   </g>
   <g id="patch_70">
    <path clip-path="url(#pbba1c45431)" d="M 142.046487 288.430125 
L 143.108554 288.430125 
L 143.108554 158.062125 
L 142.046487 158.062125 
z
" style="fill:#1f77b4;"/>
   </g>
   <g id="patch_71">
    <path clip-path="url(#pbba1c45431)" d="M 143.374071 288.430125 
L 144.436138 288.430125 
L 144.436138 158.062125 
L 143.374071 158.062125 
z
" style="fill:#1f77b4;"/>
   </g>
   <g id="patch_72">
    <path clip-path="url(#pbba1c45431)" d="M 144.701655 288.430125 
L 145.763722 288.430125 
L 145.763722 158.062125 
L 144.701655 158.062125 
z
" style="fill:#1f77b4;"/>
   </g>
   <g id="patch_73">
    <path clip-path="url(#pbba1c45431)" d="M 146.029238 288.430125 
L 147.091305 288.430125 
L 147.091305 158.062125 
L 146.029238 158.062125 
z
" style="fill:#1f77b4;"/>
   </g>
   <g id="patch_74">
    <path clip-path="url(#pbba1c45431)" d="M 147.356822 288.430125 
L 148.418889 288.430125 
L 148.418889 158.062125 
L 147.356822 158.062125 
z
" style="fill:#1f77b4;"/>
   </g>
   <g id="patch_75">
    <path clip-path="url(#pbba1c45431)" d="M 148.684406 288.430125 
L 149.746473 288.430125 
L 149.746473 158.062125 
L 148.684406 158.062125 
z
" style="fill:#1f77b4;"/>
   </g>
   <g id="patch_76">
    <path clip-path="url(#pbba1c45431)" d="M 150.011989 288.430125 
L 151.074056 288.430125 
L 151.074056 158.062125 
L 150.011989 158.062125 
z
" style="fill:#1f77b4;"/>
   </g>
   <g id="patch_77">
    <path clip-path="url(#pbba1c45431)" d="M 151.339573 288.430125 
L 152.40164 288.430125 
L 152.40164 158.062125 
L 151.339573 158.062125 
z
" style="fill:#1f77b4;"/>
   </g>
   <g id="patch_78">
    <path clip-path="url(#pbba1c45431)" d="M 152.667157 288.430125 
L 153.729224 288.430125 
L 153.729224 158.062125 
L 152.667157 158.062125 
z
" style="fill:#1f77b4;"/>
   </g>
   <g id="patch_79">
    <path clip-path="url(#pbba1c45431)" d="M 153.99474 288.430125 
L 155.056807 288.430125 
L 155.056807 158.062125 
L 153.99474 158.062125 
z
" style="fill:#1f77b4;"/>
   </g>
   <g id="patch_80">
    <path clip-path="url(#pbba1c45431)" d="M 155.322324 288.430125 
L 156.384391 288.430125 
L 156.384391 158.062125 
L 155.322324 158.062125 
z
" style="fill:#1f77b4;"/>
   </g>
   <g id="patch_81">
    <path clip-path="url(#pbba1c45431)" d="M 156.649908 288.430125 
L 157.711974 288.430125 
L 157.711974 158.062125 
L 156.649908 158.062125 
z
" style="fill:#1f77b4;"/>
   </g>
   <g id="patch_82">
    <path clip-path="url(#pbba1c45431)" d="M 157.977491 288.430125 
L 159.039558 288.430125 
L 159.039558 158.062125 
L 157.977491 158.062125 
z
" style="fill:#1f77b4;"/>
   </g>
   <g id="patch_83">
    <path clip-path="url(#pbba1c45431)" d="M 159.305075 288.430125 
L 160.367142 288.430125 
L 160.367142 158.062125 
L 159.305075 158.062125 
z
" style="fill:#1f77b4;"/>
   </g>
   <g id="patch_84">
    <path clip-path="url(#pbba1c45431)" d="M 160.632658 288.430125 
L 161.694725 288.430125 
L 161.694725 157.614125 
L 160.632658 157.614125 
z
" style="fill:#1f77b4;"/>
   </g>
   <g id="patch_85">
    <path clip-path="url(#pbba1c45431)" d="M 161.960242 288.430125 
L 163.022309 288.430125 
L 163.022309 157.614125 
L 161.960242 157.614125 
z
" style="fill:#1f77b4;"/>
   </g>
   <g id="patch_86">
    <path clip-path="url(#pbba1c45431)" d="M 163.287826 288.430125 
L 164.349893 288.430125 
L 164.349893 157.614125 
L 163.287826 157.614125 
z
" style="fill:#1f77b4;"/>
   </g>
   <g id="patch_87">
    <path clip-path="url(#pbba1c45431)" d="M 164.615409 288.430125 
L 165.677476 288.430125 
L 165.677476 157.614125 
L 164.615409 157.614125 
z
" style="fill:#1f77b4;"/>
   </g>
   <g id="patch_88">
    <path clip-path="url(#pbba1c45431)" d="M 165.942993 288.430125 
L 167.00506 288.430125 
L 167.00506 157.614125 
L 165.942993 157.614125 
z
" style="fill:#1f77b4;"/>
   </g>
   <g id="patch_89">
    <path clip-path="url(#pbba1c45431)" d="M 167.270577 288.430125 
L 168.332644 288.430125 
L 168.332644 157.614125 
L 167.270577 157.614125 
z
" style="fill:#1f77b4;"/>
   </g>
   <g id="patch_90">
    <path clip-path="url(#pbba1c45431)" d="M 168.59816 288.430125 
L 169.660227 288.430125 
L 169.660227 157.614125 
L 168.59816 157.614125 
z
" style="fill:#1f77b4;"/>
   </g>
   <g id="patch_91">
    <path clip-path="url(#pbba1c45431)" d="M 169.925744 288.430125 
L 170.987811 288.430125 
L 170.987811 157.614125 
L 169.925744 157.614125 
z
" style="fill:#1f77b4;"/>
   </g>
   <g id="patch_92">
    <path clip-path="url(#pbba1c45431)" d="M 171.253328 288.430125 
L 172.315395 288.430125 
L 172.315395 158.062125 
L 171.253328 158.062125 
z
" style="fill:#1f77b4;"/>
   </g>
   <g id="patch_93">
    <path clip-path="url(#pbba1c45431)" d="M 172.580911 288.430125 
L 173.642978 288.430125 
L 173.642978 158.062125 
L 172.580911 158.062125 
z
" style="fill:#1f77b4;"/>
   </g>
   <g id="patch_94">
    <path clip-path="url(#pbba1c45431)" d="M 173.908495 288.430125 
L 174.970562 288.430125 
L 174.970562 158.062125 
L 173.908495 158.062125 
z
" style="fill:#1f77b4;"/>
   </g>
   <g id="patch_95">
    <path clip-path="url(#pbba1c45431)" d="M 175.236079 288.430125 
L 176.298145 288.430125 
L 176.298145 157.614125 
L 175.236079 157.614125 
z
" style="fill:#1f77b4;"/>
   </g>
   <g id="patch_96">
    <path clip-path="url(#pbba1c45431)" d="M 176.563662 288.430125 
L 177.625729 288.430125 
L 177.625729 157.614125 
L 176.563662 157.614125 
z
" style="fill:#1f77b4;"/>
   </g>
   <g id="patch_97">
    <path clip-path="url(#pbba1c45431)" d="M 177.891246 288.430125 
L 178.953313 288.430125 
L 178.953313 157.614125 
L 177.891246 157.614125 
z
" style="fill:#1f77b4;"/>
   </g>
   <g id="patch_98">
    <path clip-path="url(#pbba1c45431)" d="M 179.218829 288.430125 
L 180.280896 288.430125 
L 180.280896 157.614125 
L 179.218829 157.614125 
z
" style="fill:#1f77b4;"/>
   </g>
   <g id="patch_99">
    <path clip-path="url(#pbba1c45431)" d="M 180.546413 288.430125 
L 181.60848 288.430125 
L 181.60848 157.614125 
L 180.546413 157.614125 
z
" style="fill:#1f77b4;"/>
   </g>
   <g id="patch_100">
    <path clip-path="url(#pbba1c45431)" d="M 181.873997 288.430125 
L 182.936064 288.430125 
L 182.936064 157.614125 
L 181.873997 157.614125 
z
" style="fill:#1f77b4;"/>
   </g>
   <g id="patch_101">
    <path clip-path="url(#pbba1c45431)" d="M 183.20158 288.430125 
L 184.263647 288.430125 
L 184.263647 157.614125 
L 183.20158 157.614125 
z
" style="fill:#1f77b4;"/>
   </g>
   <g id="patch_102">
    <path clip-path="url(#pbba1c45431)" d="M 184.529164 288.430125 
L 185.591231 288.430125 
L 185.591231 157.614125 
L 184.529164 157.614125 
z
" style="fill:#1f77b4;"/>
   </g>
   <g id="patch_103">
    <path clip-path="url(#pbba1c45431)" d="M 185.856748 288.430125 
L 186.918815 288.430125 
L 186.918815 157.614125 
L 185.856748 157.614125 
z
" style="fill:#1f77b4;"/>
   </g>
   <g id="patch_104">
    <path clip-path="url(#pbba1c45431)" d="M 187.184331 288.430125 
L 188.246398 288.430125 
L 188.246398 157.614125 
L 187.184331 157.614125 
z
" style="fill:#1f77b4;"/>
   </g>
   <g id="patch_105">
    <path clip-path="url(#pbba1c45431)" d="M 188.511915 288.430125 
L 189.573982 288.430125 
L 189.573982 157.614125 
L 188.511915 157.614125 
z
" style="fill:#1f77b4;"/>
   </g>
   <g id="patch_106">
    <path clip-path="url(#pbba1c45431)" d="M 189.839499 288.430125 
L 190.901566 288.430125 
L 190.901566 157.614125 
L 189.839499 157.614125 
z
" style="fill:#1f77b4;"/>
   </g>
   <g id="patch_107">
    <path clip-path="url(#pbba1c45431)" d="M 191.167082 288.430125 
L 192.229149 288.430125 
L 192.229149 157.614125 
L 191.167082 157.614125 
z
" style="fill:#1f77b4;"/>
   </g>
   <g id="patch_108">
    <path clip-path="url(#pbba1c45431)" d="M 192.494666 288.430125 
L 193.556733 288.430125 
L 193.556733 157.614125 
L 192.494666 157.614125 
z
" style="fill:#1f77b4;"/>
   </g>
   <g id="patch_109">
    <path clip-path="url(#pbba1c45431)" d="M 193.82225 288.430125 
L 194.884316 288.430125 
L 194.884316 157.614125 
L 193.82225 157.614125 
z
" style="fill:#1f77b4;"/>
   </g>
   <g id="patch_110">
    <path clip-path="url(#pbba1c45431)" d="M 195.149833 288.430125 
L 196.2119 288.430125 
L 196.2119 157.614125 
L 195.149833 157.614125 
z
" style="fill:#1f77b4;"/>
   </g>
   <g id="patch_111">
    <path clip-path="url(#pbba1c45431)" d="M 196.477417 288.430125 
L 197.539484 288.430125 
L 197.539484 157.614125 
L 196.477417 157.614125 
z
" style="fill:#1f77b4;"/>
   </g>
   <g id="patch_112">
    <path clip-path="url(#pbba1c45431)" d="M 197.805 288.430125 
L 198.867067 288.430125 
L 198.867067 157.614125 
L 197.805 157.614125 
z
" style="fill:#1f77b4;"/>
   </g>
   <g id="patch_113">
    <path clip-path="url(#pbba1c45431)" d="M 199.132584 288.430125 
L 200.194651 288.430125 
L 200.194651 157.614125 
L 199.132584 157.614125 
z
" style="fill:#1f77b4;"/>
   </g>
   <g id="patch_114">
    <path clip-path="url(#pbba1c45431)" d="M 200.460168 288.430125 
L 201.522235 288.430125 
L 201.522235 157.614125 
L 200.460168 157.614125 
z
" style="fill:#1f77b4;"/>
   </g>
   <g id="patch_115">
    <path clip-path="url(#pbba1c45431)" d="M 201.787751 288.430125 
L 202.849818 288.430125 
L 202.849818 157.614125 
L 201.787751 157.614125 
z
" style="fill:#1f77b4;"/>
   </g>
   <g id="patch_116">
    <path clip-path="url(#pbba1c45431)" d="M 203.115335 288.430125 
L 204.177402 288.430125 
L 204.177402 157.614125 
L 203.115335 157.614125 
z
" style="fill:#1f77b4;"/>
   </g>
   <g id="patch_117">
    <path clip-path="url(#pbba1c45431)" d="M 204.442919 288.430125 
L 205.504986 288.430125 
L 205.504986 157.614125 
L 204.442919 157.614125 
z
" style="fill:#1f77b4;"/>
   </g>
   <g id="patch_118">
    <path clip-path="url(#pbba1c45431)" d="M 205.770502 288.430125 
L 206.832569 288.430125 
L 206.832569 157.614125 
L 205.770502 157.614125 
z
" style="fill:#1f77b4;"/>
   </g>
   <g id="patch_119">
    <path clip-path="url(#pbba1c45431)" d="M 207.098086 288.430125 
L 208.160153 288.430125 
L 208.160153 157.614125 
L 207.098086 157.614125 
z
" style="fill:#1f77b4;"/>
   </g>
   <g id="patch_120">
    <path clip-path="url(#pbba1c45431)" d="M 208.42567 288.430125 
L 209.487737 288.430125 
L 209.487737 157.614125 
L 208.42567 157.614125 
z
" style="fill:#1f77b4;"/>
   </g>
   <g id="patch_121">
    <path clip-path="url(#pbba1c45431)" d="M 209.753253 288.430125 
L 210.81532 288.430125 
L 210.81532 157.614125 
L 209.753253 157.614125 
z
" style="fill:#1f77b4;"/>
   </g>
   <g id="patch_122">
    <path clip-path="url(#pbba1c45431)" d="M 211.080837 288.430125 
L 212.142904 288.430125 
L 212.142904 157.614125 
L 211.080837 157.614125 
z
" style="fill:#1f77b4;"/>
   </g>
   <g id="patch_123">
    <path clip-path="url(#pbba1c45431)" d="M 212.408421 288.430125 
L 213.470487 288.430125 
L 213.470487 157.614125 
L 212.408421 157.614125 
z
" style="fill:#1f77b4;"/>
   </g>
   <g id="patch_124">
    <path clip-path="url(#pbba1c45431)" d="M 213.736004 288.430125 
L 214.798071 288.430125 
L 214.798071 157.614125 
L 213.736004 157.614125 
z
" style="fill:#1f77b4;"/>
   </g>
   <g id="patch_125">
    <path clip-path="url(#pbba1c45431)" d="M 215.063588 288.430125 
L 216.125655 288.430125 
L 216.125655 157.614125 
L 215.063588 157.614125 
z
" style="fill:#1f77b4;"/>
   </g>
   <g id="patch_126">
    <path clip-path="url(#pbba1c45431)" d="M 216.391171 288.430125 
L 217.453238 288.430125 
L 217.453238 157.614125 
L 216.391171 157.614125 
z
" style="fill:#1f77b4;"/>
   </g>
   <g id="patch_127">
    <path clip-path="url(#pbba1c45431)" d="M 217.718755 288.430125 
L 218.780822 288.430125 
L 218.780822 157.614125 
L 217.718755 157.614125 
z
" style="fill:#1f77b4;"/>
   </g>
   <g id="patch_128">
    <path clip-path="url(#pbba1c45431)" d="M 219.046339 288.430125 
L 220.108406 288.430125 
L 220.108406 157.614125 
L 219.046339 157.614125 
z
" style="fill:#1f77b4;"/>
   </g>
   <g id="patch_129">
    <path clip-path="url(#pbba1c45431)" d="M 220.373922 288.430125 
L 221.435989 288.430125 
L 221.435989 157.614125 
L 220.373922 157.614125 
z
" style="fill:#1f77b4;"/>
   </g>
   <g id="patch_130">
    <path clip-path="url(#pbba1c45431)" d="M 221.701506 288.430125 
L 222.763573 288.430125 
L 222.763573 157.614125 
L 221.701506 157.614125 
z
" style="fill:#1f77b4;"/>
   </g>
   <g id="patch_131">
    <path clip-path="url(#pbba1c45431)" d="M 223.02909 288.430125 
L 224.091157 288.430125 
L 224.091157 157.614125 
L 223.02909 157.614125 
z
" style="fill:#1f77b4;"/>
   </g>
   <g id="patch_132">
    <path clip-path="url(#pbba1c45431)" d="M 224.356673 288.430125 
L 225.41874 288.430125 
L 225.41874 157.614125 
L 224.356673 157.614125 
z
" style="fill:#1f77b4;"/>
   </g>
   <g id="patch_133">
    <path clip-path="url(#pbba1c45431)" d="M 225.684257 288.430125 
L 226.746324 288.430125 
L 226.746324 157.614125 
L 225.684257 157.614125 
z
" style="fill:#1f77b4;"/>
   </g>
   <g id="patch_134">
    <path clip-path="url(#pbba1c45431)" d="M 227.011841 288.430125 
L 228.073908 288.430125 
L 228.073908 157.614125 
L 227.011841 157.614125 
z
" style="fill:#1f77b4;"/>
   </g>
   <g id="patch_135">
    <path clip-path="url(#pbba1c45431)" d="M 228.339424 288.430125 
L 229.401491 288.430125 
L 229.401491 157.614125 
L 228.339424 157.614125 
z
" style="fill:#1f77b4;"/>
   </g>
   <g id="patch_136">
    <path clip-path="url(#pbba1c45431)" d="M 229.667008 288.430125 
L 230.729075 288.430125 
L 230.729075 157.614125 
L 229.667008 157.614125 
z
" style="fill:#1f77b4;"/>
   </g>
   <g id="patch_137">
    <path clip-path="url(#pbba1c45431)" d="M 230.994592 288.430125 
L 232.056658 288.430125 
L 232.056658 157.614125 
L 230.994592 157.614125 
z
" style="fill:#1f77b4;"/>
   </g>
   <g id="patch_138">
    <path clip-path="url(#pbba1c45431)" d="M 232.322175 288.430125 
L 233.384242 288.430125 
L 233.384242 157.614125 
L 232.322175 157.614125 
z
" style="fill:#1f77b4;"/>
   </g>
   <g id="patch_139">
    <path clip-path="url(#pbba1c45431)" d="M 233.649759 288.430125 
L 234.711826 288.430125 
L 234.711826 157.614125 
L 233.649759 157.614125 
z
" style="fill:#1f77b4;"/>
   </g>
   <g id="patch_140">
    <path clip-path="url(#pbba1c45431)" d="M 234.977342 288.430125 
L 236.039409 288.430125 
L 236.039409 157.614125 
L 234.977342 157.614125 
z
" style="fill:#1f77b4;"/>
   </g>
   <g id="patch_141">
    <path clip-path="url(#pbba1c45431)" d="M 236.304926 288.430125 
L 237.366993 288.430125 
L 237.366993 157.614125 
L 236.304926 157.614125 
z
" style="fill:#1f77b4;"/>
   </g>
   <g id="patch_142">
    <path clip-path="url(#pbba1c45431)" d="M 237.63251 288.430125 
L 238.694577 288.430125 
L 238.694577 157.614125 
L 237.63251 157.614125 
z
" style="fill:#1f77b4;"/>
   </g>
   <g id="patch_143">
    <path clip-path="url(#pbba1c45431)" d="M 238.960093 288.430125 
L 240.02216 288.430125 
L 240.02216 157.614125 
L 238.960093 157.614125 
z
" style="fill:#1f77b4;"/>
   </g>
   <g id="patch_144">
    <path clip-path="url(#pbba1c45431)" d="M 240.287677 288.430125 
L 241.349744 288.430125 
L 241.349744 157.614125 
L 240.287677 157.614125 
z
" style="fill:#1f77b4;"/>
   </g>
   <g id="patch_145">
    <path clip-path="url(#pbba1c45431)" d="M 241.615261 288.430125 
L 242.677328 288.430125 
L 242.677328 157.614125 
L 241.615261 157.614125 
z
" style="fill:#1f77b4;"/>
   </g>
   <g id="patch_146">
    <path clip-path="url(#pbba1c45431)" d="M 242.942844 288.430125 
L 244.004911 288.430125 
L 244.004911 157.614125 
L 242.942844 157.614125 
z
" style="fill:#1f77b4;"/>
   </g>
   <g id="patch_147">
    <path clip-path="url(#pbba1c45431)" d="M 244.270428 288.430125 
L 245.332495 288.430125 
L 245.332495 157.614125 
L 244.270428 157.614125 
z
" style="fill:#1f77b4;"/>
   </g>
   <g id="patch_148">
    <path clip-path="url(#pbba1c45431)" d="M 245.598012 288.430125 
L 246.660079 288.430125 
L 246.660079 157.614125 
L 245.598012 157.614125 
z
" style="fill:#1f77b4;"/>
   </g>
   <g id="patch_149">
    <path clip-path="url(#pbba1c45431)" d="M 246.925595 288.430125 
L 247.987662 288.430125 
L 247.987662 157.614125 
L 246.925595 157.614125 
z
" style="fill:#1f77b4;"/>
   </g>
   <g id="patch_150">
    <path clip-path="url(#pbba1c45431)" d="M 248.253179 288.430125 
L 249.315246 288.430125 
L 249.315246 157.614125 
L 248.253179 157.614125 
z
" style="fill:#1f77b4;"/>
   </g>
   <g id="patch_151">
    <path clip-path="url(#pbba1c45431)" d="M 249.580763 288.430125 
L 250.642829 288.430125 
L 250.642829 157.614125 
L 249.580763 157.614125 
z
" style="fill:#1f77b4;"/>
   </g>
   <g id="patch_152">
    <path clip-path="url(#pbba1c45431)" d="M 250.908346 288.430125 
L 251.970413 288.430125 
L 251.970413 157.614125 
L 250.908346 157.614125 
z
" style="fill:#1f77b4;"/>
   </g>
   <g id="patch_153">
    <path clip-path="url(#pbba1c45431)" d="M 252.23593 288.430125 
L 253.297997 288.430125 
L 253.297997 157.614125 
L 252.23593 157.614125 
z
" style="fill:#1f77b4;"/>
   </g>
   <g id="patch_154">
    <path clip-path="url(#pbba1c45431)" d="M 253.563513 288.430125 
L 254.62558 288.430125 
L 254.62558 157.614125 
L 253.563513 157.614125 
z
" style="fill:#1f77b4;"/>
   </g>
   <g id="patch_155">
    <path clip-path="url(#pbba1c45431)" d="M 254.891097 288.430125 
L 255.953164 288.430125 
L 255.953164 157.614125 
L 254.891097 157.614125 
z
" style="fill:#1f77b4;"/>
   </g>
   <g id="patch_156">
    <path clip-path="url(#pbba1c45431)" d="M 256.218681 288.430125 
L 257.280748 288.430125 
L 257.280748 157.614125 
L 256.218681 157.614125 
z
" style="fill:#1f77b4;"/>
   </g>
   <g id="patch_157">
    <path clip-path="url(#pbba1c45431)" d="M 257.546264 288.430125 
L 258.608331 288.430125 
L 258.608331 157.614125 
L 257.546264 157.614125 
z
" style="fill:#1f77b4;"/>
   </g>
   <g id="patch_158">
    <path clip-path="url(#pbba1c45431)" d="M 258.873848 288.430125 
L 259.935915 288.430125 
L 259.935915 157.614125 
L 258.873848 157.614125 
z
" style="fill:#1f77b4;"/>
   </g>
   <g id="patch_159">
    <path clip-path="url(#pbba1c45431)" d="M 260.201432 288.430125 
L 261.263499 288.430125 
L 261.263499 157.614125 
L 260.201432 157.614125 
z
" style="fill:#1f77b4;"/>
   </g>
   <g id="patch_160">
    <path clip-path="url(#pbba1c45431)" d="M 261.529015 288.430125 
L 262.591082 288.430125 
L 262.591082 157.614125 
L 261.529015 157.614125 
z
" style="fill:#1f77b4;"/>
   </g>
   <g id="patch_161">
    <path clip-path="url(#pbba1c45431)" d="M 262.856599 288.430125 
L 263.918666 288.430125 
L 263.918666 157.614125 
L 262.856599 157.614125 
z
" style="fill:#1f77b4;"/>
   </g>
   <g id="patch_162">
    <path clip-path="url(#pbba1c45431)" d="M 264.184183 288.430125 
L 265.24625 288.430125 
L 265.24625 157.614125 
L 264.184183 157.614125 
z
" style="fill:#1f77b4;"/>
   </g>
   <g id="patch_163">
    <path clip-path="url(#pbba1c45431)" d="M 265.511766 288.430125 
L 266.573833 288.430125 
L 266.573833 157.614125 
L 265.511766 157.614125 
z
" style="fill:#1f77b4;"/>
   </g>
   <g id="patch_164">
    <path clip-path="url(#pbba1c45431)" d="M 266.83935 288.430125 
L 267.901417 288.430125 
L 267.901417 157.614125 
L 266.83935 157.614125 
z
" style="fill:#1f77b4;"/>
   </g>
   <g id="patch_165">
    <path clip-path="url(#pbba1c45431)" d="M 268.166934 288.430125 
L 269.229 288.430125 
L 269.229 157.614125 
L 268.166934 157.614125 
z
" style="fill:#1f77b4;"/>
   </g>
   <g id="patch_166">
    <path clip-path="url(#pbba1c45431)" d="M 269.494517 288.430125 
L 270.556584 288.430125 
L 270.556584 158.510125 
L 269.494517 158.510125 
z
" style="fill:#1f77b4;"/>
   </g>
   <g id="patch_167">
    <path clip-path="url(#pbba1c45431)" d="M 270.822101 288.430125 
L 271.884168 288.430125 
L 271.884168 157.614125 
L 270.822101 157.614125 
z
" style="fill:#1f77b4;"/>
   </g>
   <g id="patch_168">
    <path clip-path="url(#pbba1c45431)" d="M 272.149684 288.430125 
L 273.211751 288.430125 
L 273.211751 157.614125 
L 272.149684 157.614125 
z
" style="fill:#1f77b4;"/>
   </g>
   <g id="patch_169">
    <path clip-path="url(#pbba1c45431)" d="M 273.477268 288.430125 
L 274.539335 288.430125 
L 274.539335 157.614125 
L 273.477268 157.614125 
z
" style="fill:#1f77b4;"/>
   </g>
   <g id="patch_170">
    <path clip-path="url(#pbba1c45431)" d="M 274.804852 288.430125 
L 275.866919 288.430125 
L 275.866919 157.614125 
L 274.804852 157.614125 
z
" style="fill:#1f77b4;"/>
   </g>
   <g id="patch_171">
    <path clip-path="url(#pbba1c45431)" d="M 276.132435 288.430125 
L 277.194502 288.430125 
L 277.194502 157.614125 
L 276.132435 157.614125 
z
" style="fill:#1f77b4;"/>
   </g>
   <g id="patch_172">
    <path clip-path="url(#pbba1c45431)" d="M 277.460019 288.430125 
L 278.522086 288.430125 
L 278.522086 157.614125 
L 277.460019 157.614125 
z
" style="fill:#1f77b4;"/>
   </g>
   <g id="patch_173">
    <path clip-path="url(#pbba1c45431)" d="M 278.787603 288.430125 
L 279.84967 288.430125 
L 279.84967 157.614125 
L 278.787603 157.614125 
z
" style="fill:#1f77b4;"/>
   </g>
   <g id="patch_174">
    <path clip-path="url(#pbba1c45431)" d="M 280.115186 288.430125 
L 281.177253 288.430125 
L 281.177253 157.614125 
L 280.115186 157.614125 
z
" style="fill:#1f77b4;"/>
   </g>
   <g id="patch_175">
    <path clip-path="url(#pbba1c45431)" d="M 281.44277 288.430125 
L 282.504837 288.430125 
L 282.504837 157.614125 
L 281.44277 157.614125 
z
" style="fill:#1f77b4;"/>
   </g>
   <g id="patch_176">
    <path clip-path="url(#pbba1c45431)" d="M 282.770354 288.430125 
L 283.832421 288.430125 
L 283.832421 157.614125 
L 282.770354 157.614125 
z
" style="fill:#1f77b4;"/>
   </g>
   <g id="patch_177">
    <path clip-path="url(#pbba1c45431)" d="M 284.097937 288.430125 
L 285.160004 288.430125 
L 285.160004 157.614125 
L 284.097937 157.614125 
z
" style="fill:#1f77b4;"/>
   </g>
   <g id="patch_178">
    <path clip-path="url(#pbba1c45431)" d="M 285.425521 288.430125 
L 286.487588 288.430125 
L 286.487588 157.614125 
L 285.425521 157.614125 
z
" style="fill:#1f77b4;"/>
   </g>
   <g id="patch_179">
    <path clip-path="url(#pbba1c45431)" d="M 286.753105 288.430125 
L 287.815171 288.430125 
L 287.815171 157.614125 
L 286.753105 157.614125 
z
" style="fill:#1f77b4;"/>
   </g>
   <g id="patch_180">
    <path clip-path="url(#pbba1c45431)" d="M 288.080688 288.430125 
L 289.142755 288.430125 
L 289.142755 157.614125 
L 288.080688 157.614125 
z
" style="fill:#1f77b4;"/>
   </g>
   <g id="patch_181">
    <path clip-path="url(#pbba1c45431)" d="M 289.408272 288.430125 
L 290.470339 288.430125 
L 290.470339 157.614125 
L 289.408272 157.614125 
z
" style="fill:#1f77b4;"/>
   </g>
   <g id="patch_182">
    <path clip-path="url(#pbba1c45431)" d="M 290.735855 288.430125 
L 291.797922 288.430125 
L 291.797922 157.614125 
L 290.735855 157.614125 
z
" style="fill:#1f77b4;"/>
   </g>
   <g id="patch_183">
    <path clip-path="url(#pbba1c45431)" d="M 292.063439 288.430125 
L 293.125506 288.430125 
L 293.125506 157.614125 
L 292.063439 157.614125 
z
" style="fill:#1f77b4;"/>
   </g>
   <g id="patch_184">
    <path clip-path="url(#pbba1c45431)" d="M 293.391023 288.430125 
L 294.45309 288.430125 
L 294.45309 157.614125 
L 293.391023 157.614125 
z
" style="fill:#1f77b4;"/>
   </g>
   <g id="patch_185">
    <path clip-path="url(#pbba1c45431)" d="M 294.718606 288.430125 
L 295.780673 288.430125 
L 295.780673 157.614125 
L 294.718606 157.614125 
z
" style="fill:#1f77b4;"/>
   </g>
   <g id="patch_186">
    <path clip-path="url(#pbba1c45431)" d="M 296.04619 288.430125 
L 297.108257 288.430125 
L 297.108257 157.614125 
L 296.04619 157.614125 
z
" style="fill:#1f77b4;"/>
   </g>
   <g id="patch_187">
    <path clip-path="url(#pbba1c45431)" d="M 297.373774 288.430125 
L 298.435841 288.430125 
L 298.435841 157.614125 
L 297.373774 157.614125 
z
" style="fill:#1f77b4;"/>
   </g>
   <g id="patch_188">
    <path clip-path="url(#pbba1c45431)" d="M 298.701357 288.430125 
L 299.763424 288.430125 
L 299.763424 157.614125 
L 298.701357 157.614125 
z
" style="fill:#1f77b4;"/>
   </g>
   <g id="patch_189">
    <path clip-path="url(#pbba1c45431)" d="M 300.028941 288.430125 
L 301.091008 288.430125 
L 301.091008 157.614125 
L 300.028941 157.614125 
z
" style="fill:#1f77b4;"/>
   </g>
   <g id="patch_190">
    <path clip-path="url(#pbba1c45431)" d="M 301.356525 288.430125 
L 302.418592 288.430125 
L 302.418592 157.614125 
L 301.356525 157.614125 
z
" style="fill:#1f77b4;"/>
   </g>
   <g id="patch_191">
    <path clip-path="url(#pbba1c45431)" d="M 302.684108 288.430125 
L 303.746175 288.430125 
L 303.746175 157.614125 
L 302.684108 157.614125 
z
" style="fill:#1f77b4;"/>
   </g>
   <g id="patch_192">
    <path clip-path="url(#pbba1c45431)" d="M 304.011692 288.430125 
L 305.073759 288.430125 
L 305.073759 157.614125 
L 304.011692 157.614125 
z
" style="fill:#1f77b4;"/>
   </g>
   <g id="patch_193">
    <path clip-path="url(#pbba1c45431)" d="M 305.339276 288.430125 
L 306.401342 288.430125 
L 306.401342 157.614125 
L 305.339276 157.614125 
z
" style="fill:#1f77b4;"/>
   </g>
   <g id="patch_194">
    <path clip-path="url(#pbba1c45431)" d="M 306.666859 288.430125 
L 307.728926 288.430125 
L 307.728926 157.614125 
L 306.666859 157.614125 
z
" style="fill:#1f77b4;"/>
   </g>
   <g id="patch_195">
    <path clip-path="url(#pbba1c45431)" d="M 307.994443 288.430125 
L 309.05651 288.430125 
L 309.05651 157.614125 
L 307.994443 157.614125 
z
" style="fill:#1f77b4;"/>
   </g>
   <g id="patch_196">
    <path clip-path="url(#pbba1c45431)" d="M 309.322026 288.430125 
L 310.384093 288.430125 
L 310.384093 157.614125 
L 309.322026 157.614125 
z
" style="fill:#1f77b4;"/>
   </g>
   <g id="patch_197">
    <path clip-path="url(#pbba1c45431)" d="M 310.64961 288.430125 
L 311.711677 288.430125 
L 311.711677 157.614125 
L 310.64961 157.614125 
z
" style="fill:#1f77b4;"/>
   </g>
   <g id="patch_198">
    <path clip-path="url(#pbba1c45431)" d="M 311.977194 288.430125 
L 313.039261 288.430125 
L 313.039261 157.614125 
L 311.977194 157.614125 
z
" style="fill:#1f77b4;"/>
   </g>
   <g id="patch_199">
    <path clip-path="url(#pbba1c45431)" d="M 313.304777 288.430125 
L 314.366844 288.430125 
L 314.366844 157.614125 
L 313.304777 157.614125 
z
" style="fill:#1f77b4;"/>
   </g>
   <g id="patch_200">
    <path clip-path="url(#pbba1c45431)" d="M 314.632361 288.430125 
L 315.694428 288.430125 
L 315.694428 157.614125 
L 314.632361 157.614125 
z
" style="fill:#1f77b4;"/>
   </g>
   <g id="patch_201">
    <path clip-path="url(#pbba1c45431)" d="M 315.959945 288.430125 
L 317.022012 288.430125 
L 317.022012 157.614125 
L 315.959945 157.614125 
z
" style="fill:#1f77b4;"/>
   </g>
   <g id="patch_202">
    <path clip-path="url(#pbba1c45431)" d="M 317.287528 288.430125 
L 318.349595 288.430125 
L 318.349595 157.614125 
L 317.287528 157.614125 
z
" style="fill:#1f77b4;"/>
   </g>
   <g id="patch_203">
    <path clip-path="url(#pbba1c45431)" d="M 318.615112 288.430125 
L 319.677179 288.430125 
L 319.677179 157.614125 
L 318.615112 157.614125 
z
" style="fill:#1f77b4;"/>
   </g>
   <g id="patch_204">
    <path clip-path="url(#pbba1c45431)" d="M 319.942696 288.430125 
L 321.004763 288.430125 
L 321.004763 157.614125 
L 319.942696 157.614125 
z
" style="fill:#1f77b4;"/>
   </g>
   <g id="patch_205">
    <path clip-path="url(#pbba1c45431)" d="M 321.270279 288.430125 
L 322.332346 288.430125 
L 322.332346 157.614125 
L 321.270279 157.614125 
z
" style="fill:#1f77b4;"/>
   </g>
   <g id="patch_206">
    <path clip-path="url(#pbba1c45431)" d="M 322.597863 288.430125 
L 323.65993 288.430125 
L 323.65993 157.614125 
L 322.597863 157.614125 
z
" style="fill:#1f77b4;"/>
   </g>
   <g id="patch_207">
    <path clip-path="url(#pbba1c45431)" d="M 323.925447 288.430125 
L 324.987513 288.430125 
L 324.987513 157.614125 
L 323.925447 157.614125 
z
" style="fill:#1f77b4;"/>
   </g>
   <g id="patch_208">
    <path clip-path="url(#pbba1c45431)" d="M 325.25303 288.430125 
L 326.315097 288.430125 
L 326.315097 157.614125 
L 325.25303 157.614125 
z
" style="fill:#1f77b4;"/>
   </g>
   <g id="patch_209">
    <path clip-path="url(#pbba1c45431)" d="M 326.580614 288.430125 
L 327.642681 288.430125 
L 327.642681 157.614125 
L 326.580614 157.614125 
z
" style="fill:#1f77b4;"/>
   </g>
   <g id="patch_210">
    <path clip-path="url(#pbba1c45431)" d="M 327.908197 288.430125 
L 328.970264 288.430125 
L 328.970264 157.614125 
L 327.908197 157.614125 
z
" style="fill:#1f77b4;"/>
   </g>
   <g id="patch_211">
    <path clip-path="url(#pbba1c45431)" d="M 329.235781 288.430125 
L 330.297848 288.430125 
L 330.297848 157.614125 
L 329.235781 157.614125 
z
" style="fill:#1f77b4;"/>
   </g>
   <g id="patch_212">
    <path clip-path="url(#pbba1c45431)" d="M 330.563365 288.430125 
L 331.625432 288.430125 
L 331.625432 157.614125 
L 330.563365 157.614125 
z
" style="fill:#1f77b4;"/>
   </g>
   <g id="patch_213">
    <path clip-path="url(#pbba1c45431)" d="M 331.890948 288.430125 
L 332.953015 288.430125 
L 332.953015 157.166125 
L 331.890948 157.166125 
z
" style="fill:#1f77b4;"/>
   </g>
   <g id="patch_214">
    <path clip-path="url(#pbba1c45431)" d="M 333.218532 288.430125 
L 334.280599 288.430125 
L 334.280599 157.166125 
L 333.218532 157.166125 
z
" style="fill:#1f77b4;"/>
   </g>
   <g id="patch_215">
    <path clip-path="url(#pbba1c45431)" d="M 334.546116 288.430125 
L 335.608183 288.430125 
L 335.608183 157.166125 
L 334.546116 157.166125 
z
" style="fill:#1f77b4;"/>
   </g>
   <g id="patch_216">
    <path clip-path="url(#pbba1c45431)" d="M 335.873699 288.430125 
L 336.935766 288.430125 
L 336.935766 157.166125 
L 335.873699 157.166125 
z
" style="fill:#1f77b4;"/>
   </g>
   <g id="patch_217">
    <path clip-path="url(#pbba1c45431)" d="M 337.201283 288.430125 
L 338.26335 288.430125 
L 338.26335 157.166125 
L 337.201283 157.166125 
z
" style="fill:#1f77b4;"/>
   </g>
   <g id="patch_218">
    <path clip-path="url(#pbba1c45431)" d="M 338.528867 288.430125 
L 339.590934 288.430125 
L 339.590934 157.166125 
L 338.528867 157.166125 
z
" style="fill:#1f77b4;"/>
   </g>
   <g id="patch_219">
    <path clip-path="url(#pbba1c45431)" d="M 339.85645 288.430125 
L 340.918517 288.430125 
L 340.918517 157.166125 
L 339.85645 157.166125 
z
" style="fill:#1f77b4;"/>
   </g>
   <g id="patch_220">
    <path clip-path="url(#pbba1c45431)" d="M 341.184034 288.430125 
L 342.246101 288.430125 
L 342.246101 157.166125 
L 341.184034 157.166125 
z
" style="fill:#1f77b4;"/>
   </g>
   <g id="patch_221">
    <path clip-path="url(#pbba1c45431)" d="M 342.511618 288.430125 
L 343.573684 288.430125 
L 343.573684 156.718125 
L 342.511618 156.718125 
z
" style="fill:#1f77b4;"/>
   </g>
   <g id="patch_222">
    <path clip-path="url(#pbba1c45431)" d="M 343.839201 288.430125 
L 344.901268 288.430125 
L 344.901268 156.718125 
L 343.839201 156.718125 
z
" style="fill:#1f77b4;"/>
   </g>
   <g id="patch_223">
    <path clip-path="url(#pbba1c45431)" d="M 345.166785 288.430125 
L 346.228852 288.430125 
L 346.228852 155.822125 
L 345.166785 155.822125 
z
" style="fill:#1f77b4;"/>
   </g>
   <g id="patch_224">
    <path clip-path="url(#pbba1c45431)" d="M 346.494368 288.430125 
L 347.556435 288.430125 
L 347.556435 155.822125 
L 346.494368 155.822125 
z
" style="fill:#1f77b4;"/>
   </g>
   <g id="patch_225">
    <path clip-path="url(#pbba1c45431)" d="M 347.821952 288.430125 
L 348.884019 288.430125 
L 348.884019 155.822125 
L 347.821952 155.822125 
z
" style="fill:#1f77b4;"/>
   </g>
   <g id="patch_226">
    <path clip-path="url(#pbba1c45431)" d="M 349.149536 288.430125 
L 350.211603 288.430125 
L 350.211603 155.822125 
L 349.149536 155.822125 
z
" style="fill:#1f77b4;"/>
   </g>
   <g id="patch_227">
    <path clip-path="url(#pbba1c45431)" d="M 350.477119 288.430125 
L 351.539186 288.430125 
L 351.539186 155.822125 
L 350.477119 155.822125 
z
" style="fill:#1f77b4;"/>
   </g>
   <g id="patch_228">
    <path clip-path="url(#pbba1c45431)" d="M 351.804703 288.430125 
L 352.86677 288.430125 
L 352.86677 154.478125 
L 351.804703 154.478125 
z
" style="fill:#1f77b4;"/>
   </g>
   <g id="patch_229">
    <path clip-path="url(#pbba1c45431)" d="M 353.132287 288.430125 
L 354.194354 288.430125 
L 354.194354 154.030125 
L 353.132287 154.030125 
z
" style="fill:#1f77b4;"/>
   </g>
   <g id="patch_230">
    <path clip-path="url(#pbba1c45431)" d="M 354.45987 288.430125 
L 355.521937 288.430125 
L 355.521937 152.238125 
L 354.45987 152.238125 
z
" style="fill:#1f77b4;"/>
   </g>
   <g id="patch_231">
    <path clip-path="url(#pbba1c45431)" d="M 355.787454 288.430125 
L 356.849521 288.430125 
L 356.849521 151.342125 
L 355.787454 151.342125 
z
" style="fill:#1f77b4;"/>
   </g>
   <g id="patch_232">
    <path clip-path="url(#pbba1c45431)" d="M 357.115038 288.430125 
L 358.177105 288.430125 
L 358.177105 150.446125 
L 357.115038 150.446125 
z
" style="fill:#1f77b4;"/>
   </g>
   <g id="patch_233">
    <path clip-path="url(#pbba1c45431)" d="M 358.442621 288.430125 
L 359.504688 288.430125 
L 359.504688 148.654125 
L 358.442621 148.654125 
z
" style="fill:#1f77b4;"/>
   </g>
   <g id="patch_234">
    <path clip-path="url(#pbba1c45431)" d="M 359.770205 288.430125 
L 360.832272 288.430125 
L 360.832272 147.310125 
L 359.770205 147.310125 
z
" style="fill:#1f77b4;"/>
   </g>
   <g id="patch_235">
    <path clip-path="url(#pbba1c45431)" d="M 361.097789 288.430125 
L 362.159855 288.430125 
L 362.159855 145.518125 
L 361.097789 145.518125 
z
" style="fill:#1f77b4;"/>
   </g>
   <g id="patch_236">
    <path clip-path="url(#pbba1c45431)" d="M 362.425372 288.430125 
L 363.487439 288.430125 
L 363.487439 145.070125 
L 362.425372 145.070125 
z
" style="fill:#1f77b4;"/>
   </g>
   <g id="patch_237">
    <path clip-path="url(#pbba1c45431)" d="M 363.752956 288.430125 
L 364.815023 288.430125 
L 364.815023 144.174125 
L 363.752956 144.174125 
z
" style="fill:#1f77b4;"/>
   </g>
   <g id="patch_238">
    <path clip-path="url(#pbba1c45431)" d="M 365.080539 288.430125 
L 366.142606 288.430125 
L 366.142606 142.382125 
L 365.080539 142.382125 
z
" style="fill:#1f77b4;"/>
   </g>
   <g id="patch_239">
    <path clip-path="url(#pbba1c45431)" d="M 366.408123 288.430125 
L 367.47019 288.430125 
L 367.47019 140.590125 
L 366.408123 140.590125 
z
" style="fill:#1f77b4;"/>
   </g>
   <g id="patch_240">
    <path clip-path="url(#pbba1c45431)" d="M 367.735707 288.430125 
L 368.797774 288.430125 
L 368.797774 137.454125 
L 367.735707 137.454125 
z
" style="fill:#1f77b4;"/>
   </g>
   <g id="patch_241">
    <path clip-path="url(#pbba1c45431)" d="M 369.06329 288.430125 
L 370.125357 288.430125 
L 370.125357 135.662125 
L 369.06329 135.662125 
z
" style="fill:#1f77b4;"/>
   </g>
   <g id="patch_242">
    <path clip-path="url(#pbba1c45431)" d="M 370.390874 288.430125 
L 371.452941 288.430125 
L 371.452941 133.870125 
L 370.390874 133.870125 
z
" style="fill:#1f77b4;"/>
   </g>
   <g id="patch_243">
    <path clip-path="url(#pbba1c45431)" d="M 371.718458 288.430125 
L 372.780525 288.430125 
L 372.780525 131.630125 
L 371.718458 131.630125 
z
" style="fill:#1f77b4;"/>
   </g>
   <g id="patch_244">
    <path clip-path="url(#pbba1c45431)" d="M 373.046041 288.430125 
L 374.108108 288.430125 
L 374.108108 127.598125 
L 373.046041 127.598125 
z
" style="fill:#1f77b4;"/>
   </g>
   <g id="patch_245">
    <path clip-path="url(#pbba1c45431)" d="M 374.373625 288.430125 
L 375.435692 288.430125 
L 375.435692 124.910125 
L 374.373625 124.910125 
z
" style="fill:#1f77b4;"/>
   </g>
   <g id="patch_246">
    <path clip-path="url(#pbba1c45431)" d="M 375.701209 288.430125 
L 376.763276 288.430125 
L 376.763276 120.878125 
L 375.701209 120.878125 
z
" style="fill:#1f77b4;"/>
   </g>
   <g id="patch_247">
    <path clip-path="url(#pbba1c45431)" d="M 377.028792 288.430125 
L 378.090859 288.430125 
L 378.090859 118.638125 
L 377.028792 118.638125 
z
" style="fill:#1f77b4;"/>
   </g>
   <g id="patch_248">
    <path clip-path="url(#pbba1c45431)" d="M 378.356376 288.430125 
L 379.418443 288.430125 
L 379.418443 110.126125 
L 378.356376 110.126125 
z
" style="fill:#1f77b4;"/>
   </g>
   <g id="patch_249">
    <path clip-path="url(#pbba1c45431)" d="M 379.68396 288.430125 
L 380.746026 288.430125 
L 380.746026 106.990125 
L 379.68396 106.990125 
z
" style="fill:#1f77b4;"/>
   </g>
   <g id="patch_250">
    <path clip-path="url(#pbba1c45431)" d="M 381.011543 288.430125 
L 382.07361 288.430125 
L 382.07361 102.958125 
L 381.011543 102.958125 
z
" style="fill:#1f77b4;"/>
   </g>
   <g id="patch_251">
    <path clip-path="url(#pbba1c45431)" d="M 382.339127 288.430125 
L 383.401194 288.430125 
L 383.401194 98.030125 
L 382.339127 98.030125 
z
" style="fill:#1f77b4;"/>
   </g>
   <g id="patch_252">
    <path clip-path="url(#pbba1c45431)" d="M 383.666711 288.430125 
L 384.728777 288.430125 
L 384.728777 92.206125 
L 383.666711 92.206125 
z
" style="fill:#1f77b4;"/>
   </g>
   <g id="patch_253">
    <path clip-path="url(#pbba1c45431)" d="M 384.994294 288.430125 
L 386.056361 288.430125 
L 386.056361 88.622125 
L 384.994294 88.622125 
z
" style="fill:#1f77b4;"/>
   </g>
   <g id="patch_254">
    <path clip-path="url(#pbba1c45431)" d="M 386.321878 288.430125 
L 387.383945 288.430125 
L 387.383945 81.454125 
L 386.321878 81.454125 
z
" style="fill:#1f77b4;"/>
   </g>
   <g id="patch_255">
    <path clip-path="url(#pbba1c45431)" d="M 387.649461 288.430125 
L 388.711528 288.430125 
L 388.711528 78.318125 
L 387.649461 78.318125 
z
" style="fill:#1f77b4;"/>
   </g>
   <g id="patch_256">
    <path clip-path="url(#pbba1c45431)" d="M 388.977045 288.430125 
L 390.039112 288.430125 
L 390.039112 76.078125 
L 388.977045 76.078125 
z
" style="fill:#1f77b4;"/>
   </g>
   <g id="patch_257">
    <path clip-path="url(#pbba1c45431)" d="M 390.304629 288.430125 
L 391.366696 288.430125 
L 391.366696 68.910125 
L 390.304629 68.910125 
z
" style="fill:#1f77b4;"/>
   </g>
   <g id="patch_258">
    <path clip-path="url(#pbba1c45431)" d="M 391.632212 288.430125 
L 392.694279 288.430125 
L 392.694279 65.326125 
L 391.632212 65.326125 
z
" style="fill:#1f77b4;"/>
   </g>
   <g id="patch_259">
    <path clip-path="url(#pbba1c45431)" d="M 392.959796 288.430125 
L 394.021863 288.430125 
L 394.021863 60.398125 
L 392.959796 60.398125 
z
" style="fill:#1f77b4;"/>
   </g>
   <g id="patch_260">
    <path clip-path="url(#pbba1c45431)" d="M 394.28738 288.430125 
L 395.349447 288.430125 
L 395.349447 55.470125 
L 394.28738 55.470125 
z
" style="fill:#1f77b4;"/>
   </g>
   <g id="patch_261">
    <path clip-path="url(#pbba1c45431)" d="M 395.614963 288.430125 
L 396.67703 288.430125 
L 396.67703 54.126125 
L 395.614963 54.126125 
z
" style="fill:#1f77b4;"/>
   </g>
   <g id="patch_262">
    <path clip-path="url(#pbba1c45431)" d="M 396.942547 288.430125 
L 398.004614 288.430125 
L 398.004614 50.990125 
L 396.942547 50.990125 
z
" style="fill:#1f77b4;"/>
   </g>
   <g id="patch_263">
    <path clip-path="url(#pbba1c45431)" d="M 398.270131 288.430125 
L 399.332197 288.430125 
L 399.332197 50.542125 
L 398.270131 50.542125 
z
" style="fill:#1f77b4;"/>
   </g>
   <g id="patch_264">
    <path clip-path="url(#pbba1c45431)" d="M 399.597714 288.430125 
L 400.659781 288.430125 
L 400.659781 48.750125 
L 399.597714 48.750125 
z
" style="fill:#1f77b4;"/>
   </g>
   <g id="patch_265">
    <path clip-path="url(#pbba1c45431)" d="M 400.925298 288.430125 
L 401.987365 288.430125 
L 401.987365 45.614125 
L 400.925298 45.614125 
z
" style="fill:#1f77b4;"/>
   </g>
   <g id="patch_266">
    <path clip-path="url(#pbba1c45431)" d="M 402.252882 288.430125 
L 403.314948 288.430125 
L 403.314948 38.446125 
L 402.252882 38.446125 
z
" style="fill:#1f77b4;"/>
   </g>
   <g id="patch_267">
    <path clip-path="url(#pbba1c45431)" d="M 403.580465 288.430125 
L 404.642532 288.430125 
L 404.642532 33.518125 
L 403.580465 33.518125 
z
" style="fill:#1f77b4;"/>
   </g>
   <g id="patch_268">
    <path clip-path="url(#pbba1c45431)" d="M 404.908049 288.430125 
L 405.970116 288.430125 
L 405.970116 32.174125 
L 404.908049 32.174125 
z
" style="fill:#1f77b4;"/>
   </g>
   <g id="patch_269">
    <path clip-path="url(#pbba1c45431)" d="M 406.235632 288.430125 
L 407.297699 288.430125 
L 407.297699 29.486125 
L 406.235632 29.486125 
z
" style="fill:#1f77b4;"/>
   </g>
   <g id="patch_270">
    <path clip-path="url(#pbba1c45431)" d="M 407.563216 288.430125 
L 408.625283 288.430125 
L 408.625283 27.246125 
L 407.563216 27.246125 
z
" style="fill:#1f77b4;"/>
   </g>
   <g id="patch_271">
    <path clip-path="url(#pbba1c45431)" d="M 408.8908 288.430125 
L 409.952867 288.430125 
L 409.952867 22.318125 
L 408.8908 22.318125 
z
" style="fill:#1f77b4;"/>
   </g>
   <g id="matplotlib.axis_1">
    <g id="xtick_1">
     <g id="line2d_1">
      <defs>
       <path d="M 0 0 
L 0 3.5 
" id="m36c9c9ed79" style="stroke:#000000;stroke-width:0.8;"/>
      </defs>
      <g>
       <use style="stroke:#000000;stroke-width:0.8;" x="76.198339" xlink:href="#m36c9c9ed79" y="288.430125"/>
      </g>
     </g>
     <g id="text_1">
      <!-- 2020-04 -->
      <g transform="translate(78.957714 337.212937)rotate(-90)scale(0.1 -0.1)">
       <defs>
        <path d="M 19.1875 8.296875 
L 53.609375 8.296875 
L 53.609375 0 
L 7.328125 0 
L 7.328125 8.296875 
Q 12.9375 14.109375 22.625 23.890625 
Q 32.328125 33.6875 34.8125 36.53125 
Q 39.546875 41.84375 41.421875 45.53125 
Q 43.3125 49.21875 43.3125 52.78125 
Q 43.3125 58.59375 39.234375 62.25 
Q 35.15625 65.921875 28.609375 65.921875 
Q 23.96875 65.921875 18.8125 64.3125 
Q 13.671875 62.703125 7.8125 59.421875 
L 7.8125 69.390625 
Q 13.765625 71.78125 18.9375 73 
Q 24.125 74.21875 28.421875 74.21875 
Q 39.75 74.21875 46.484375 68.546875 
Q 53.21875 62.890625 53.21875 53.421875 
Q 53.21875 48.921875 51.53125 44.890625 
Q 49.859375 40.875 45.40625 35.40625 
Q 44.1875 33.984375 37.640625 27.21875 
Q 31.109375 20.453125 19.1875 8.296875 
z
" id="DejaVuSans-50"/>
        <path d="M 31.78125 66.40625 
Q 24.171875 66.40625 20.328125 58.90625 
Q 16.5 51.421875 16.5 36.375 
Q 16.5 21.390625 20.328125 13.890625 
Q 24.171875 6.390625 31.78125 6.390625 
Q 39.453125 6.390625 43.28125 13.890625 
Q 47.125 21.390625 47.125 36.375 
Q 47.125 51.421875 43.28125 58.90625 
Q 39.453125 66.40625 31.78125 66.40625 
z
M 31.78125 74.21875 
Q 44.046875 74.21875 50.515625 64.515625 
Q 56.984375 54.828125 56.984375 36.375 
Q 56.984375 17.96875 50.515625 8.265625 
Q 44.046875 -1.421875 31.78125 -1.421875 
Q 19.53125 -1.421875 13.0625 8.265625 
Q 6.59375 17.96875 6.59375 36.375 
Q 6.59375 54.828125 13.0625 64.515625 
Q 19.53125 74.21875 31.78125 74.21875 
z
" id="DejaVuSans-48"/>
        <path d="M 4.890625 31.390625 
L 31.203125 31.390625 
L 31.203125 23.390625 
L 4.890625 23.390625 
z
" id="DejaVuSans-45"/>
        <path d="M 37.796875 64.3125 
L 12.890625 25.390625 
L 37.796875 25.390625 
z
M 35.203125 72.90625 
L 47.609375 72.90625 
L 47.609375 25.390625 
L 58.015625 25.390625 
L 58.015625 17.1875 
L 47.609375 17.1875 
L 47.609375 0 
L 37.796875 0 
L 37.796875 17.1875 
L 4.890625 17.1875 
L 4.890625 26.703125 
z
" id="DejaVuSans-52"/>
       </defs>
       <use xlink:href="#DejaVuSans-50"/>
       <use x="63.623047" xlink:href="#DejaVuSans-48"/>
       <use x="127.246094" xlink:href="#DejaVuSans-50"/>
       <use x="190.869141" xlink:href="#DejaVuSans-48"/>
       <use x="254.492188" xlink:href="#DejaVuSans-45"/>
       <use x="290.576172" xlink:href="#DejaVuSans-48"/>
       <use x="354.199219" xlink:href="#DejaVuSans-52"/>
      </g>
     </g>
    </g>
    <g id="xtick_2">
     <g id="line2d_2">
      <g>
       <use style="stroke:#000000;stroke-width:0.8;" x="116.025848" xlink:href="#m36c9c9ed79" y="288.430125"/>
      </g>
     </g>
     <g id="text_2">
      <!-- 2020-05 -->
      <g transform="translate(118.785223 337.212937)rotate(-90)scale(0.1 -0.1)">
       <defs>
        <path d="M 10.796875 72.90625 
L 49.515625 72.90625 
L 49.515625 64.59375 
L 19.828125 64.59375 
L 19.828125 46.734375 
Q 21.96875 47.46875 24.109375 47.828125 
Q 26.265625 48.1875 28.421875 48.1875 
Q 40.625 48.1875 47.75 41.5 
Q 54.890625 34.8125 54.890625 23.390625 
Q 54.890625 11.625 47.5625 5.09375 
Q 40.234375 -1.421875 26.90625 -1.421875 
Q 22.3125 -1.421875 17.546875 -0.640625 
Q 12.796875 0.140625 7.71875 1.703125 
L 7.71875 11.625 
Q 12.109375 9.234375 16.796875 8.0625 
Q 21.484375 6.890625 26.703125 6.890625 
Q 35.15625 6.890625 40.078125 11.328125 
Q 45.015625 15.765625 45.015625 23.390625 
Q 45.015625 31 40.078125 35.4375 
Q 35.15625 39.890625 26.703125 39.890625 
Q 22.75 39.890625 18.8125 39.015625 
Q 14.890625 38.140625 10.796875 36.28125 
z
" id="DejaVuSans-53"/>
       </defs>
       <use xlink:href="#DejaVuSans-50"/>
       <use x="63.623047" xlink:href="#DejaVuSans-48"/>
       <use x="127.246094" xlink:href="#DejaVuSans-50"/>
       <use x="190.869141" xlink:href="#DejaVuSans-48"/>
       <use x="254.492188" xlink:href="#DejaVuSans-45"/>
       <use x="290.576172" xlink:href="#DejaVuSans-48"/>
       <use x="354.199219" xlink:href="#DejaVuSans-53"/>
      </g>
     </g>
    </g>
    <g id="xtick_3">
     <g id="line2d_3">
      <g>
       <use style="stroke:#000000;stroke-width:0.8;" x="157.180941" xlink:href="#m36c9c9ed79" y="288.430125"/>
      </g>
     </g>
     <g id="text_3">
      <!-- 2020-06 -->
      <g transform="translate(159.940316 337.212937)rotate(-90)scale(0.1 -0.1)">
       <defs>
        <path d="M 33.015625 40.375 
Q 26.375 40.375 22.484375 35.828125 
Q 18.609375 31.296875 18.609375 23.390625 
Q 18.609375 15.53125 22.484375 10.953125 
Q 26.375 6.390625 33.015625 6.390625 
Q 39.65625 6.390625 43.53125 10.953125 
Q 47.40625 15.53125 47.40625 23.390625 
Q 47.40625 31.296875 43.53125 35.828125 
Q 39.65625 40.375 33.015625 40.375 
z
M 52.59375 71.296875 
L 52.59375 62.3125 
Q 48.875 64.0625 45.09375 64.984375 
Q 41.3125 65.921875 37.59375 65.921875 
Q 27.828125 65.921875 22.671875 59.328125 
Q 17.53125 52.734375 16.796875 39.40625 
Q 19.671875 43.65625 24.015625 45.921875 
Q 28.375 48.1875 33.59375 48.1875 
Q 44.578125 48.1875 50.953125 41.515625 
Q 57.328125 34.859375 57.328125 23.390625 
Q 57.328125 12.15625 50.6875 5.359375 
Q 44.046875 -1.421875 33.015625 -1.421875 
Q 20.359375 -1.421875 13.671875 8.265625 
Q 6.984375 17.96875 6.984375 36.375 
Q 6.984375 53.65625 15.1875 63.9375 
Q 23.390625 74.21875 37.203125 74.21875 
Q 40.921875 74.21875 44.703125 73.484375 
Q 48.484375 72.75 52.59375 71.296875 
z
" id="DejaVuSans-54"/>
       </defs>
       <use xlink:href="#DejaVuSans-50"/>
       <use x="63.623047" xlink:href="#DejaVuSans-48"/>
       <use x="127.246094" xlink:href="#DejaVuSans-50"/>
       <use x="190.869141" xlink:href="#DejaVuSans-48"/>
       <use x="254.492188" xlink:href="#DejaVuSans-45"/>
       <use x="290.576172" xlink:href="#DejaVuSans-48"/>
       <use x="354.199219" xlink:href="#DejaVuSans-54"/>
      </g>
     </g>
    </g>
    <g id="xtick_4">
     <g id="line2d_4">
      <g>
       <use style="stroke:#000000;stroke-width:0.8;" x="197.00845" xlink:href="#m36c9c9ed79" y="288.430125"/>
      </g>
     </g>
     <g id="text_4">
      <!-- 2020-07 -->
      <g transform="translate(199.767825 337.212937)rotate(-90)scale(0.1 -0.1)">
       <defs>
        <path d="M 8.203125 72.90625 
L 55.078125 72.90625 
L 55.078125 68.703125 
L 28.609375 0 
L 18.3125 0 
L 43.21875 64.59375 
L 8.203125 64.59375 
z
" id="DejaVuSans-55"/>
       </defs>
       <use xlink:href="#DejaVuSans-50"/>
       <use x="63.623047" xlink:href="#DejaVuSans-48"/>
       <use x="127.246094" xlink:href="#DejaVuSans-50"/>
       <use x="190.869141" xlink:href="#DejaVuSans-48"/>
       <use x="254.492188" xlink:href="#DejaVuSans-45"/>
       <use x="290.576172" xlink:href="#DejaVuSans-48"/>
       <use x="354.199219" xlink:href="#DejaVuSans-55"/>
      </g>
     </g>
    </g>
    <g id="xtick_5">
     <g id="line2d_5">
      <g>
       <use style="stroke:#000000;stroke-width:0.8;" x="238.163543" xlink:href="#m36c9c9ed79" y="288.430125"/>
      </g>
     </g>
     <g id="text_5">
      <!-- 2020-08 -->
      <g transform="translate(240.922918 337.212937)rotate(-90)scale(0.1 -0.1)">
       <defs>
        <path d="M 31.78125 34.625 
Q 24.75 34.625 20.71875 30.859375 
Q 16.703125 27.09375 16.703125 20.515625 
Q 16.703125 13.921875 20.71875 10.15625 
Q 24.75 6.390625 31.78125 6.390625 
Q 38.8125 6.390625 42.859375 10.171875 
Q 46.921875 13.96875 46.921875 20.515625 
Q 46.921875 27.09375 42.890625 30.859375 
Q 38.875 34.625 31.78125 34.625 
z
M 21.921875 38.8125 
Q 15.578125 40.375 12.03125 44.71875 
Q 8.5 49.078125 8.5 55.328125 
Q 8.5 64.0625 14.71875 69.140625 
Q 20.953125 74.21875 31.78125 74.21875 
Q 42.671875 74.21875 48.875 69.140625 
Q 55.078125 64.0625 55.078125 55.328125 
Q 55.078125 49.078125 51.53125 44.71875 
Q 48 40.375 41.703125 38.8125 
Q 48.828125 37.15625 52.796875 32.3125 
Q 56.78125 27.484375 56.78125 20.515625 
Q 56.78125 9.90625 50.3125 4.234375 
Q 43.84375 -1.421875 31.78125 -1.421875 
Q 19.734375 -1.421875 13.25 4.234375 
Q 6.78125 9.90625 6.78125 20.515625 
Q 6.78125 27.484375 10.78125 32.3125 
Q 14.796875 37.15625 21.921875 38.8125 
z
M 18.3125 54.390625 
Q 18.3125 48.734375 21.84375 45.5625 
Q 25.390625 42.390625 31.78125 42.390625 
Q 38.140625 42.390625 41.71875 45.5625 
Q 45.3125 48.734375 45.3125 54.390625 
Q 45.3125 60.0625 41.71875 63.234375 
Q 38.140625 66.40625 31.78125 66.40625 
Q 25.390625 66.40625 21.84375 63.234375 
Q 18.3125 60.0625 18.3125 54.390625 
z
" id="DejaVuSans-56"/>
       </defs>
       <use xlink:href="#DejaVuSans-50"/>
       <use x="63.623047" xlink:href="#DejaVuSans-48"/>
       <use x="127.246094" xlink:href="#DejaVuSans-50"/>
       <use x="190.869141" xlink:href="#DejaVuSans-48"/>
       <use x="254.492188" xlink:href="#DejaVuSans-45"/>
       <use x="290.576172" xlink:href="#DejaVuSans-48"/>
       <use x="354.199219" xlink:href="#DejaVuSans-56"/>
      </g>
     </g>
    </g>
    <g id="xtick_6">
     <g id="line2d_6">
      <g>
       <use style="stroke:#000000;stroke-width:0.8;" x="279.318636" xlink:href="#m36c9c9ed79" y="288.430125"/>
      </g>
     </g>
     <g id="text_6">
      <!-- 2020-09 -->
      <g transform="translate(282.078011 337.212937)rotate(-90)scale(0.1 -0.1)">
       <defs>
        <path d="M 10.984375 1.515625 
L 10.984375 10.5 
Q 14.703125 8.734375 18.5 7.8125 
Q 22.3125 6.890625 25.984375 6.890625 
Q 35.75 6.890625 40.890625 13.453125 
Q 46.046875 20.015625 46.78125 33.40625 
Q 43.953125 29.203125 39.59375 26.953125 
Q 35.25 24.703125 29.984375 24.703125 
Q 19.046875 24.703125 12.671875 31.3125 
Q 6.296875 37.9375 6.296875 49.421875 
Q 6.296875 60.640625 12.9375 67.421875 
Q 19.578125 74.21875 30.609375 74.21875 
Q 43.265625 74.21875 49.921875 64.515625 
Q 56.59375 54.828125 56.59375 36.375 
Q 56.59375 19.140625 48.40625 8.859375 
Q 40.234375 -1.421875 26.421875 -1.421875 
Q 22.703125 -1.421875 18.890625 -0.6875 
Q 15.09375 0.046875 10.984375 1.515625 
z
M 30.609375 32.421875 
Q 37.25 32.421875 41.125 36.953125 
Q 45.015625 41.5 45.015625 49.421875 
Q 45.015625 57.28125 41.125 61.84375 
Q 37.25 66.40625 30.609375 66.40625 
Q 23.96875 66.40625 20.09375 61.84375 
Q 16.21875 57.28125 16.21875 49.421875 
Q 16.21875 41.5 20.09375 36.953125 
Q 23.96875 32.421875 30.609375 32.421875 
z
" id="DejaVuSans-57"/>
       </defs>
       <use xlink:href="#DejaVuSans-50"/>
       <use x="63.623047" xlink:href="#DejaVuSans-48"/>
       <use x="127.246094" xlink:href="#DejaVuSans-50"/>
       <use x="190.869141" xlink:href="#DejaVuSans-48"/>
       <use x="254.492188" xlink:href="#DejaVuSans-45"/>
       <use x="290.576172" xlink:href="#DejaVuSans-48"/>
       <use x="354.199219" xlink:href="#DejaVuSans-57"/>
      </g>
     </g>
    </g>
    <g id="xtick_7">
     <g id="line2d_7">
      <g>
       <use style="stroke:#000000;stroke-width:0.8;" x="319.146145" xlink:href="#m36c9c9ed79" y="288.430125"/>
      </g>
     </g>
     <g id="text_7">
      <!-- 2020-10 -->
      <g transform="translate(321.90552 337.212937)rotate(-90)scale(0.1 -0.1)">
       <defs>
        <path d="M 12.40625 8.296875 
L 28.515625 8.296875 
L 28.515625 63.921875 
L 10.984375 60.40625 
L 10.984375 69.390625 
L 28.421875 72.90625 
L 38.28125 72.90625 
L 38.28125 8.296875 
L 54.390625 8.296875 
L 54.390625 0 
L 12.40625 0 
z
" id="DejaVuSans-49"/>
       </defs>
       <use xlink:href="#DejaVuSans-50"/>
       <use x="63.623047" xlink:href="#DejaVuSans-48"/>
       <use x="127.246094" xlink:href="#DejaVuSans-50"/>
       <use x="190.869141" xlink:href="#DejaVuSans-48"/>
       <use x="254.492188" xlink:href="#DejaVuSans-45"/>
       <use x="290.576172" xlink:href="#DejaVuSans-49"/>
       <use x="354.199219" xlink:href="#DejaVuSans-48"/>
      </g>
     </g>
    </g>
    <g id="xtick_8">
     <g id="line2d_8">
      <g>
       <use style="stroke:#000000;stroke-width:0.8;" x="360.301238" xlink:href="#m36c9c9ed79" y="288.430125"/>
      </g>
     </g>
     <g id="text_8">
      <!-- 2020-11 -->
      <g transform="translate(363.060613 337.212937)rotate(-90)scale(0.1 -0.1)">
       <use xlink:href="#DejaVuSans-50"/>
       <use x="63.623047" xlink:href="#DejaVuSans-48"/>
       <use x="127.246094" xlink:href="#DejaVuSans-50"/>
       <use x="190.869141" xlink:href="#DejaVuSans-48"/>
       <use x="254.492188" xlink:href="#DejaVuSans-45"/>
       <use x="290.576172" xlink:href="#DejaVuSans-49"/>
       <use x="354.199219" xlink:href="#DejaVuSans-49"/>
      </g>
     </g>
    </g>
    <g id="xtick_9">
     <g id="line2d_9">
      <g>
       <use style="stroke:#000000;stroke-width:0.8;" x="400.128748" xlink:href="#m36c9c9ed79" y="288.430125"/>
      </g>
     </g>
     <g id="text_9">
      <!-- 2020-12 -->
      <g transform="translate(402.888123 337.212937)rotate(-90)scale(0.1 -0.1)">
       <use xlink:href="#DejaVuSans-50"/>
       <use x="63.623047" xlink:href="#DejaVuSans-48"/>
       <use x="127.246094" xlink:href="#DejaVuSans-50"/>
       <use x="190.869141" xlink:href="#DejaVuSans-48"/>
       <use x="254.492188" xlink:href="#DejaVuSans-45"/>
       <use x="290.576172" xlink:href="#DejaVuSans-49"/>
       <use x="354.199219" xlink:href="#DejaVuSans-50"/>
      </g>
     </g>
    </g>
    <g id="text_10">
     <!-- date -->
     <g transform="translate(220.250625 354.811375)scale(0.1 -0.1)">
      <defs>
       <path d="M 45.40625 46.390625 
L 45.40625 75.984375 
L 54.390625 75.984375 
L 54.390625 0 
L 45.40625 0 
L 45.40625 8.203125 
Q 42.578125 3.328125 38.25 0.953125 
Q 33.9375 -1.421875 27.875 -1.421875 
Q 17.96875 -1.421875 11.734375 6.484375 
Q 5.515625 14.40625 5.515625 27.296875 
Q 5.515625 40.1875 11.734375 48.09375 
Q 17.96875 56 27.875 56 
Q 33.9375 56 38.25 53.625 
Q 42.578125 51.265625 45.40625 46.390625 
z
M 14.796875 27.296875 
Q 14.796875 17.390625 18.875 11.75 
Q 22.953125 6.109375 30.078125 6.109375 
Q 37.203125 6.109375 41.296875 11.75 
Q 45.40625 17.390625 45.40625 27.296875 
Q 45.40625 37.203125 41.296875 42.84375 
Q 37.203125 48.484375 30.078125 48.484375 
Q 22.953125 48.484375 18.875 42.84375 
Q 14.796875 37.203125 14.796875 27.296875 
z
" id="DejaVuSans-100"/>
       <path d="M 34.28125 27.484375 
Q 23.390625 27.484375 19.1875 25 
Q 14.984375 22.515625 14.984375 16.5 
Q 14.984375 11.71875 18.140625 8.90625 
Q 21.296875 6.109375 26.703125 6.109375 
Q 34.1875 6.109375 38.703125 11.40625 
Q 43.21875 16.703125 43.21875 25.484375 
L 43.21875 27.484375 
z
M 52.203125 31.203125 
L 52.203125 0 
L 43.21875 0 
L 43.21875 8.296875 
Q 40.140625 3.328125 35.546875 0.953125 
Q 30.953125 -1.421875 24.3125 -1.421875 
Q 15.921875 -1.421875 10.953125 3.296875 
Q 6 8.015625 6 15.921875 
Q 6 25.140625 12.171875 29.828125 
Q 18.359375 34.515625 30.609375 34.515625 
L 43.21875 34.515625 
L 43.21875 35.40625 
Q 43.21875 41.609375 39.140625 45 
Q 35.0625 48.390625 27.6875 48.390625 
Q 23 48.390625 18.546875 47.265625 
Q 14.109375 46.140625 10.015625 43.890625 
L 10.015625 52.203125 
Q 14.9375 54.109375 19.578125 55.046875 
Q 24.21875 56 28.609375 56 
Q 40.484375 56 46.34375 49.84375 
Q 52.203125 43.703125 52.203125 31.203125 
z
" id="DejaVuSans-97"/>
       <path d="M 18.3125 70.21875 
L 18.3125 54.6875 
L 36.8125 54.6875 
L 36.8125 47.703125 
L 18.3125 47.703125 
L 18.3125 18.015625 
Q 18.3125 11.328125 20.140625 9.421875 
Q 21.96875 7.515625 27.59375 7.515625 
L 36.8125 7.515625 
L 36.8125 0 
L 27.59375 0 
Q 17.1875 0 13.234375 3.875 
Q 9.28125 7.765625 9.28125 18.015625 
L 9.28125 47.703125 
L 2.6875 47.703125 
L 2.6875 54.6875 
L 9.28125 54.6875 
L 9.28125 70.21875 
z
" id="DejaVuSans-116"/>
       <path d="M 56.203125 29.59375 
L 56.203125 25.203125 
L 14.890625 25.203125 
Q 15.484375 15.921875 20.484375 11.0625 
Q 25.484375 6.203125 34.421875 6.203125 
Q 39.59375 6.203125 44.453125 7.46875 
Q 49.3125 8.734375 54.109375 11.28125 
L 54.109375 2.78125 
Q 49.265625 0.734375 44.1875 -0.34375 
Q 39.109375 -1.421875 33.890625 -1.421875 
Q 20.796875 -1.421875 13.15625 6.1875 
Q 5.515625 13.8125 5.515625 26.8125 
Q 5.515625 40.234375 12.765625 48.109375 
Q 20.015625 56 32.328125 56 
Q 43.359375 56 49.78125 48.890625 
Q 56.203125 41.796875 56.203125 29.59375 
z
M 47.21875 32.234375 
Q 47.125 39.59375 43.09375 43.984375 
Q 39.0625 48.390625 32.421875 48.390625 
Q 24.90625 48.390625 20.390625 44.140625 
Q 15.875 39.890625 15.1875 32.171875 
z
" id="DejaVuSans-101"/>
      </defs>
      <use xlink:href="#DejaVuSans-100"/>
      <use x="63.476562" xlink:href="#DejaVuSans-97"/>
      <use x="124.755859" xlink:href="#DejaVuSans-116"/>
      <use x="163.964844" xlink:href="#DejaVuSans-101"/>
     </g>
    </g>
   </g>
   <g id="matplotlib.axis_2">
    <g id="ytick_1">
     <g id="line2d_10">
      <defs>
       <path d="M 0 0 
L -3.5 0 
" id="m49977866ac" style="stroke:#000000;stroke-width:0.8;"/>
      </defs>
      <g>
       <use style="stroke:#000000;stroke-width:0.8;" x="52.965625" xlink:href="#m49977866ac" y="288.430125"/>
      </g>
     </g>
     <g id="text_11">
      <!-- 0 -->
      <g transform="translate(39.603125 292.229344)scale(0.1 -0.1)">
       <use xlink:href="#DejaVuSans-48"/>
      </g>
     </g>
    </g>
    <g id="ytick_2">
     <g id="line2d_11">
      <g>
       <use style="stroke:#000000;stroke-width:0.8;" x="52.965625" xlink:href="#m49977866ac" y="243.630125"/>
      </g>
     </g>
     <g id="text_12">
      <!-- 100 -->
      <g transform="translate(26.878125 247.429344)scale(0.1 -0.1)">
       <use xlink:href="#DejaVuSans-49"/>
       <use x="63.623047" xlink:href="#DejaVuSans-48"/>
       <use x="127.246094" xlink:href="#DejaVuSans-48"/>
      </g>
     </g>
    </g>
    <g id="ytick_3">
     <g id="line2d_12">
      <g>
       <use style="stroke:#000000;stroke-width:0.8;" x="52.965625" xlink:href="#m49977866ac" y="198.830125"/>
      </g>
     </g>
     <g id="text_13">
      <!-- 200 -->
      <g transform="translate(26.878125 202.629344)scale(0.1 -0.1)">
       <use xlink:href="#DejaVuSans-50"/>
       <use x="63.623047" xlink:href="#DejaVuSans-48"/>
       <use x="127.246094" xlink:href="#DejaVuSans-48"/>
      </g>
     </g>
    </g>
    <g id="ytick_4">
     <g id="line2d_13">
      <g>
       <use style="stroke:#000000;stroke-width:0.8;" x="52.965625" xlink:href="#m49977866ac" y="154.030125"/>
      </g>
     </g>
     <g id="text_14">
      <!-- 300 -->
      <g transform="translate(26.878125 157.829344)scale(0.1 -0.1)">
       <defs>
        <path d="M 40.578125 39.3125 
Q 47.65625 37.796875 51.625 33 
Q 55.609375 28.21875 55.609375 21.1875 
Q 55.609375 10.40625 48.1875 4.484375 
Q 40.765625 -1.421875 27.09375 -1.421875 
Q 22.515625 -1.421875 17.65625 -0.515625 
Q 12.796875 0.390625 7.625 2.203125 
L 7.625 11.71875 
Q 11.71875 9.328125 16.59375 8.109375 
Q 21.484375 6.890625 26.8125 6.890625 
Q 36.078125 6.890625 40.9375 10.546875 
Q 45.796875 14.203125 45.796875 21.1875 
Q 45.796875 27.640625 41.28125 31.265625 
Q 36.765625 34.90625 28.71875 34.90625 
L 20.21875 34.90625 
L 20.21875 43.015625 
L 29.109375 43.015625 
Q 36.375 43.015625 40.234375 45.921875 
Q 44.09375 48.828125 44.09375 54.296875 
Q 44.09375 59.90625 40.109375 62.90625 
Q 36.140625 65.921875 28.71875 65.921875 
Q 24.65625 65.921875 20.015625 65.03125 
Q 15.375 64.15625 9.8125 62.3125 
L 9.8125 71.09375 
Q 15.4375 72.65625 20.34375 73.4375 
Q 25.25 74.21875 29.59375 74.21875 
Q 40.828125 74.21875 47.359375 69.109375 
Q 53.90625 64.015625 53.90625 55.328125 
Q 53.90625 49.265625 50.4375 45.09375 
Q 46.96875 40.921875 40.578125 39.3125 
z
" id="DejaVuSans-51"/>
       </defs>
       <use xlink:href="#DejaVuSans-51"/>
       <use x="63.623047" xlink:href="#DejaVuSans-48"/>
       <use x="127.246094" xlink:href="#DejaVuSans-48"/>
      </g>
     </g>
    </g>
    <g id="ytick_5">
     <g id="line2d_14">
      <g>
       <use style="stroke:#000000;stroke-width:0.8;" x="52.965625" xlink:href="#m49977866ac" y="109.230125"/>
      </g>
     </g>
     <g id="text_15">
      <!-- 400 -->
      <g transform="translate(26.878125 113.029344)scale(0.1 -0.1)">
       <use xlink:href="#DejaVuSans-52"/>
       <use x="63.623047" xlink:href="#DejaVuSans-48"/>
       <use x="127.246094" xlink:href="#DejaVuSans-48"/>
      </g>
     </g>
    </g>
    <g id="ytick_6">
     <g id="line2d_15">
      <g>
       <use style="stroke:#000000;stroke-width:0.8;" x="52.965625" xlink:href="#m49977866ac" y="64.430125"/>
      </g>
     </g>
     <g id="text_16">
      <!-- 500 -->
      <g transform="translate(26.878125 68.229344)scale(0.1 -0.1)">
       <use xlink:href="#DejaVuSans-53"/>
       <use x="63.623047" xlink:href="#DejaVuSans-48"/>
       <use x="127.246094" xlink:href="#DejaVuSans-48"/>
      </g>
     </g>
    </g>
    <g id="text_17">
     <!-- cumulative number of corona fatalities -->
     <g transform="translate(14.798438 252.560062)rotate(-90)scale(0.1 -0.1)">
      <defs>
       <path d="M 48.78125 52.59375 
L 48.78125 44.1875 
Q 44.96875 46.296875 41.140625 47.34375 
Q 37.3125 48.390625 33.40625 48.390625 
Q 24.65625 48.390625 19.8125 42.84375 
Q 14.984375 37.3125 14.984375 27.296875 
Q 14.984375 17.28125 19.8125 11.734375 
Q 24.65625 6.203125 33.40625 6.203125 
Q 37.3125 6.203125 41.140625 7.25 
Q 44.96875 8.296875 48.78125 10.40625 
L 48.78125 2.09375 
Q 45.015625 0.34375 40.984375 -0.53125 
Q 36.96875 -1.421875 32.421875 -1.421875 
Q 20.0625 -1.421875 12.78125 6.34375 
Q 5.515625 14.109375 5.515625 27.296875 
Q 5.515625 40.671875 12.859375 48.328125 
Q 20.21875 56 33.015625 56 
Q 37.15625 56 41.109375 55.140625 
Q 45.0625 54.296875 48.78125 52.59375 
z
" id="DejaVuSans-99"/>
       <path d="M 8.5 21.578125 
L 8.5 54.6875 
L 17.484375 54.6875 
L 17.484375 21.921875 
Q 17.484375 14.15625 20.5 10.265625 
Q 23.53125 6.390625 29.59375 6.390625 
Q 36.859375 6.390625 41.078125 11.03125 
Q 45.3125 15.671875 45.3125 23.6875 
L 45.3125 54.6875 
L 54.296875 54.6875 
L 54.296875 0 
L 45.3125 0 
L 45.3125 8.40625 
Q 42.046875 3.421875 37.71875 1 
Q 33.40625 -1.421875 27.6875 -1.421875 
Q 18.265625 -1.421875 13.375 4.4375 
Q 8.5 10.296875 8.5 21.578125 
z
M 31.109375 56 
z
" id="DejaVuSans-117"/>
       <path d="M 52 44.1875 
Q 55.375 50.25 60.0625 53.125 
Q 64.75 56 71.09375 56 
Q 79.640625 56 84.28125 50.015625 
Q 88.921875 44.046875 88.921875 33.015625 
L 88.921875 0 
L 79.890625 0 
L 79.890625 32.71875 
Q 79.890625 40.578125 77.09375 44.375 
Q 74.3125 48.1875 68.609375 48.1875 
Q 61.625 48.1875 57.5625 43.546875 
Q 53.515625 38.921875 53.515625 30.90625 
L 53.515625 0 
L 44.484375 0 
L 44.484375 32.71875 
Q 44.484375 40.625 41.703125 44.40625 
Q 38.921875 48.1875 33.109375 48.1875 
Q 26.21875 48.1875 22.15625 43.53125 
Q 18.109375 38.875 18.109375 30.90625 
L 18.109375 0 
L 9.078125 0 
L 9.078125 54.6875 
L 18.109375 54.6875 
L 18.109375 46.1875 
Q 21.1875 51.21875 25.484375 53.609375 
Q 29.78125 56 35.6875 56 
Q 41.65625 56 45.828125 52.96875 
Q 50 49.953125 52 44.1875 
z
" id="DejaVuSans-109"/>
       <path d="M 9.421875 75.984375 
L 18.40625 75.984375 
L 18.40625 0 
L 9.421875 0 
z
" id="DejaVuSans-108"/>
       <path d="M 9.421875 54.6875 
L 18.40625 54.6875 
L 18.40625 0 
L 9.421875 0 
z
M 9.421875 75.984375 
L 18.40625 75.984375 
L 18.40625 64.59375 
L 9.421875 64.59375 
z
" id="DejaVuSans-105"/>
       <path d="M 2.984375 54.6875 
L 12.5 54.6875 
L 29.59375 8.796875 
L 46.6875 54.6875 
L 56.203125 54.6875 
L 35.6875 0 
L 23.484375 0 
z
" id="DejaVuSans-118"/>
       <path id="DejaVuSans-32"/>
       <path d="M 54.890625 33.015625 
L 54.890625 0 
L 45.90625 0 
L 45.90625 32.71875 
Q 45.90625 40.484375 42.875 44.328125 
Q 39.84375 48.1875 33.796875 48.1875 
Q 26.515625 48.1875 22.3125 43.546875 
Q 18.109375 38.921875 18.109375 30.90625 
L 18.109375 0 
L 9.078125 0 
L 9.078125 54.6875 
L 18.109375 54.6875 
L 18.109375 46.1875 
Q 21.34375 51.125 25.703125 53.5625 
Q 30.078125 56 35.796875 56 
Q 45.21875 56 50.046875 50.171875 
Q 54.890625 44.34375 54.890625 33.015625 
z
" id="DejaVuSans-110"/>
       <path d="M 48.6875 27.296875 
Q 48.6875 37.203125 44.609375 42.84375 
Q 40.53125 48.484375 33.40625 48.484375 
Q 26.265625 48.484375 22.1875 42.84375 
Q 18.109375 37.203125 18.109375 27.296875 
Q 18.109375 17.390625 22.1875 11.75 
Q 26.265625 6.109375 33.40625 6.109375 
Q 40.53125 6.109375 44.609375 11.75 
Q 48.6875 17.390625 48.6875 27.296875 
z
M 18.109375 46.390625 
Q 20.953125 51.265625 25.265625 53.625 
Q 29.59375 56 35.59375 56 
Q 45.5625 56 51.78125 48.09375 
Q 58.015625 40.1875 58.015625 27.296875 
Q 58.015625 14.40625 51.78125 6.484375 
Q 45.5625 -1.421875 35.59375 -1.421875 
Q 29.59375 -1.421875 25.265625 0.953125 
Q 20.953125 3.328125 18.109375 8.203125 
L 18.109375 0 
L 9.078125 0 
L 9.078125 75.984375 
L 18.109375 75.984375 
z
" id="DejaVuSans-98"/>
       <path d="M 41.109375 46.296875 
Q 39.59375 47.171875 37.8125 47.578125 
Q 36.03125 48 33.890625 48 
Q 26.265625 48 22.1875 43.046875 
Q 18.109375 38.09375 18.109375 28.8125 
L 18.109375 0 
L 9.078125 0 
L 9.078125 54.6875 
L 18.109375 54.6875 
L 18.109375 46.1875 
Q 20.953125 51.171875 25.484375 53.578125 
Q 30.03125 56 36.53125 56 
Q 37.453125 56 38.578125 55.875 
Q 39.703125 55.765625 41.0625 55.515625 
z
" id="DejaVuSans-114"/>
       <path d="M 30.609375 48.390625 
Q 23.390625 48.390625 19.1875 42.75 
Q 14.984375 37.109375 14.984375 27.296875 
Q 14.984375 17.484375 19.15625 11.84375 
Q 23.34375 6.203125 30.609375 6.203125 
Q 37.796875 6.203125 41.984375 11.859375 
Q 46.1875 17.53125 46.1875 27.296875 
Q 46.1875 37.015625 41.984375 42.703125 
Q 37.796875 48.390625 30.609375 48.390625 
z
M 30.609375 56 
Q 42.328125 56 49.015625 48.375 
Q 55.71875 40.765625 55.71875 27.296875 
Q 55.71875 13.875 49.015625 6.21875 
Q 42.328125 -1.421875 30.609375 -1.421875 
Q 18.84375 -1.421875 12.171875 6.21875 
Q 5.515625 13.875 5.515625 27.296875 
Q 5.515625 40.765625 12.171875 48.375 
Q 18.84375 56 30.609375 56 
z
" id="DejaVuSans-111"/>
       <path d="M 37.109375 75.984375 
L 37.109375 68.5 
L 28.515625 68.5 
Q 23.6875 68.5 21.796875 66.546875 
Q 19.921875 64.59375 19.921875 59.515625 
L 19.921875 54.6875 
L 34.71875 54.6875 
L 34.71875 47.703125 
L 19.921875 47.703125 
L 19.921875 0 
L 10.890625 0 
L 10.890625 47.703125 
L 2.296875 47.703125 
L 2.296875 54.6875 
L 10.890625 54.6875 
L 10.890625 58.5 
Q 10.890625 67.625 15.140625 71.796875 
Q 19.390625 75.984375 28.609375 75.984375 
z
" id="DejaVuSans-102"/>
       <path d="M 44.28125 53.078125 
L 44.28125 44.578125 
Q 40.484375 46.53125 36.375 47.5 
Q 32.28125 48.484375 27.875 48.484375 
Q 21.1875 48.484375 17.84375 46.4375 
Q 14.5 44.390625 14.5 40.28125 
Q 14.5 37.15625 16.890625 35.375 
Q 19.28125 33.59375 26.515625 31.984375 
L 29.59375 31.296875 
Q 39.15625 29.25 43.1875 25.515625 
Q 47.21875 21.78125 47.21875 15.09375 
Q 47.21875 7.46875 41.1875 3.015625 
Q 35.15625 -1.421875 24.609375 -1.421875 
Q 20.21875 -1.421875 15.453125 -0.5625 
Q 10.6875 0.296875 5.421875 2 
L 5.421875 11.28125 
Q 10.40625 8.6875 15.234375 7.390625 
Q 20.0625 6.109375 24.8125 6.109375 
Q 31.15625 6.109375 34.5625 8.28125 
Q 37.984375 10.453125 37.984375 14.40625 
Q 37.984375 18.0625 35.515625 20.015625 
Q 33.0625 21.96875 24.703125 23.78125 
L 21.578125 24.515625 
Q 13.234375 26.265625 9.515625 29.90625 
Q 5.8125 33.546875 5.8125 39.890625 
Q 5.8125 47.609375 11.28125 51.796875 
Q 16.75 56 26.8125 56 
Q 31.78125 56 36.171875 55.265625 
Q 40.578125 54.546875 44.28125 53.078125 
z
" id="DejaVuSans-115"/>
      </defs>
      <use xlink:href="#DejaVuSans-99"/>
      <use x="54.980469" xlink:href="#DejaVuSans-117"/>
      <use x="118.359375" xlink:href="#DejaVuSans-109"/>
      <use x="215.771484" xlink:href="#DejaVuSans-117"/>
      <use x="279.150391" xlink:href="#DejaVuSans-108"/>
      <use x="306.933594" xlink:href="#DejaVuSans-97"/>
      <use x="368.212891" xlink:href="#DejaVuSans-116"/>
      <use x="407.421875" xlink:href="#DejaVuSans-105"/>
      <use x="435.205078" xlink:href="#DejaVuSans-118"/>
      <use x="494.384766" xlink:href="#DejaVuSans-101"/>
      <use x="555.908203" xlink:href="#DejaVuSans-32"/>
      <use x="587.695312" xlink:href="#DejaVuSans-110"/>
      <use x="651.074219" xlink:href="#DejaVuSans-117"/>
      <use x="714.453125" xlink:href="#DejaVuSans-109"/>
      <use x="811.865234" xlink:href="#DejaVuSans-98"/>
      <use x="875.341797" xlink:href="#DejaVuSans-101"/>
      <use x="936.865234" xlink:href="#DejaVuSans-114"/>
      <use x="977.978516" xlink:href="#DejaVuSans-32"/>
      <use x="1009.765625" xlink:href="#DejaVuSans-111"/>
      <use x="1070.947266" xlink:href="#DejaVuSans-102"/>
      <use x="1106.152344" xlink:href="#DejaVuSans-32"/>
      <use x="1137.939453" xlink:href="#DejaVuSans-99"/>
      <use x="1192.919922" xlink:href="#DejaVuSans-111"/>
      <use x="1254.101562" xlink:href="#DejaVuSans-114"/>
      <use x="1292.964844" xlink:href="#DejaVuSans-111"/>
      <use x="1354.146484" xlink:href="#DejaVuSans-110"/>
      <use x="1417.525391" xlink:href="#DejaVuSans-97"/>
      <use x="1478.804688" xlink:href="#DejaVuSans-32"/>
      <use x="1510.591797" xlink:href="#DejaVuSans-102"/>
      <use x="1545.796875" xlink:href="#DejaVuSans-97"/>
      <use x="1607.076172" xlink:href="#DejaVuSans-116"/>
      <use x="1646.285156" xlink:href="#DejaVuSans-97"/>
      <use x="1707.564453" xlink:href="#DejaVuSans-108"/>
      <use x="1735.347656" xlink:href="#DejaVuSans-105"/>
      <use x="1763.130859" xlink:href="#DejaVuSans-116"/>
      <use x="1802.339844" xlink:href="#DejaVuSans-105"/>
      <use x="1830.123047" xlink:href="#DejaVuSans-101"/>
      <use x="1891.646484" xlink:href="#DejaVuSans-115"/>
     </g>
    </g>
   </g>
   <g id="patch_272">
    <path d="M 52.965625 288.430125 
L 52.965625 22.318125 
" style="fill:none;stroke:#000000;stroke-linecap:square;stroke-linejoin:miter;stroke-width:0.8;"/>
   </g>
   <g id="patch_273">
    <path d="M 52.965625 288.430125 
L 410.085625 288.430125 
" style="fill:none;stroke:#000000;stroke-linecap:square;stroke-linejoin:miter;stroke-width:0.8;"/>
   </g>
   <g id="text_18">
    <!-- South Tyrol -->
    <g transform="translate(198.233125 16.318125)scale(0.12 -0.12)">
     <defs>
      <path d="M 53.515625 70.515625 
L 53.515625 60.890625 
Q 47.90625 63.578125 42.921875 64.890625 
Q 37.9375 66.21875 33.296875 66.21875 
Q 25.25 66.21875 20.875 63.09375 
Q 16.5 59.96875 16.5 54.203125 
Q 16.5 49.359375 19.40625 46.890625 
Q 22.3125 44.4375 30.421875 42.921875 
L 36.375 41.703125 
Q 47.40625 39.59375 52.65625 34.296875 
Q 57.90625 29 57.90625 20.125 
Q 57.90625 9.515625 50.796875 4.046875 
Q 43.703125 -1.421875 29.984375 -1.421875 
Q 24.8125 -1.421875 18.96875 -0.25 
Q 13.140625 0.921875 6.890625 3.21875 
L 6.890625 13.375 
Q 12.890625 10.015625 18.65625 8.296875 
Q 24.421875 6.59375 29.984375 6.59375 
Q 38.421875 6.59375 43.015625 9.90625 
Q 47.609375 13.234375 47.609375 19.390625 
Q 47.609375 24.75 44.3125 27.78125 
Q 41.015625 30.8125 33.5 32.328125 
L 27.484375 33.5 
Q 16.453125 35.6875 11.515625 40.375 
Q 6.59375 45.0625 6.59375 53.421875 
Q 6.59375 63.09375 13.40625 68.65625 
Q 20.21875 74.21875 32.171875 74.21875 
Q 37.3125 74.21875 42.625 73.28125 
Q 47.953125 72.359375 53.515625 70.515625 
z
" id="DejaVuSans-83"/>
      <path d="M 54.890625 33.015625 
L 54.890625 0 
L 45.90625 0 
L 45.90625 32.71875 
Q 45.90625 40.484375 42.875 44.328125 
Q 39.84375 48.1875 33.796875 48.1875 
Q 26.515625 48.1875 22.3125 43.546875 
Q 18.109375 38.921875 18.109375 30.90625 
L 18.109375 0 
L 9.078125 0 
L 9.078125 75.984375 
L 18.109375 75.984375 
L 18.109375 46.1875 
Q 21.34375 51.125 25.703125 53.5625 
Q 30.078125 56 35.796875 56 
Q 45.21875 56 50.046875 50.171875 
Q 54.890625 44.34375 54.890625 33.015625 
z
" id="DejaVuSans-104"/>
      <path d="M -0.296875 72.90625 
L 61.375 72.90625 
L 61.375 64.59375 
L 35.5 64.59375 
L 35.5 0 
L 25.59375 0 
L 25.59375 64.59375 
L -0.296875 64.59375 
z
" id="DejaVuSans-84"/>
      <path d="M 32.171875 -5.078125 
Q 28.375 -14.84375 24.75 -17.8125 
Q 21.140625 -20.796875 15.09375 -20.796875 
L 7.90625 -20.796875 
L 7.90625 -13.28125 
L 13.1875 -13.28125 
Q 16.890625 -13.28125 18.9375 -11.515625 
Q 21 -9.765625 23.484375 -3.21875 
L 25.09375 0.875 
L 2.984375 54.6875 
L 12.5 54.6875 
L 29.59375 11.921875 
L 46.6875 54.6875 
L 56.203125 54.6875 
z
" id="DejaVuSans-121"/>
     </defs>
     <use xlink:href="#DejaVuSans-83"/>
     <use x="63.476562" xlink:href="#DejaVuSans-111"/>
     <use x="124.658203" xlink:href="#DejaVuSans-117"/>
     <use x="188.037109" xlink:href="#DejaVuSans-116"/>
     <use x="227.246094" xlink:href="#DejaVuSans-104"/>
     <use x="290.625" xlink:href="#DejaVuSans-32"/>
     <use x="322.412109" xlink:href="#DejaVuSans-84"/>
     <use x="367.871094" xlink:href="#DejaVuSans-121"/>
     <use x="427.050781" xlink:href="#DejaVuSans-114"/>
     <use x="465.914062" xlink:href="#DejaVuSans-111"/>
     <use x="527.095703" xlink:href="#DejaVuSans-108"/>
    </g>
   </g>
  </g>
 </g>
 <defs>
  <clipPath id="pbba1c45431">
   <rect height="266.112" width="357.12" x="52.965625" y="22.318125"/>
  </clipPath>
 </defs>
</svg>
