<?xml version="1.0" encoding="utf-8" standalone="no"?>
<!DOCTYPE svg PUBLIC "-//W3C//DTD SVG 1.1//EN"
  "http://www.w3.org/Graphics/SVG/1.1/DTD/svg11.dtd">
<!-- Created with matplotlib (https://matplotlib.org/) -->
<svg height="364.091062pt" version="1.1" viewBox="0 0 417.285625 364.091062" width="417.285625pt" xmlns="http://www.w3.org/2000/svg" xmlns:xlink="http://www.w3.org/1999/xlink">
 <metadata>
  <rdf:RDF xmlns:cc="http://creativecommons.org/ns#" xmlns:dc="http://purl.org/dc/elements/1.1/" xmlns:rdf="http://www.w3.org/1999/02/22-rdf-syntax-ns#">
   <cc:Work>
    <dc:type rdf:resource="http://purl.org/dc/dcmitype/StillImage"/>
    <dc:date>2020-12-26T19:01:23.396331</dc:date>
    <dc:format>image/svg+xml</dc:format>
    <dc:creator>
     <cc:Agent>
      <dc:title>Matplotlib v3.3.3, https://matplotlib.org/</dc:title>
     </cc:Agent>
    </dc:creator>
   </cc:Work>
  </rdf:RDF>
 </metadata>
 <defs>
  <style type="text/css">*{stroke-linecap:butt;stroke-linejoin:round;}</style>
 </defs>
 <g id="figure_1">
  <g id="patch_1">
   <path d="M 0 364.091062 
L 417.285625 364.091062 
L 417.285625 0 
L 0 0 
z
" style="fill:#ffffff;"/>
  </g>
  <g id="axes_1">
   <g id="patch_2">
    <path d="M 52.965625 288.430125 
L 410.085625 288.430125 
L 410.085625 22.318125 
L 52.965625 22.318125 
z
" style="fill:#ffffff;"/>
   </g>
   <g id="patch_3">
    <path clip-path="url(#pa2dd50454b)" d="M 53.090057 288.430125 
L 54.085514 288.430125 
L 54.085514 286.576977 
L 53.090057 286.576977 
z
" style="fill:#1f77b4;"/>
   </g>
   <g id="patch_4">
    <path clip-path="url(#pa2dd50454b)" d="M 54.334378 288.430125 
L 55.329834 288.430125 
L 55.329834 286.206348 
L 54.334378 286.206348 
z
" style="fill:#1f77b4;"/>
   </g>
   <g id="patch_5">
    <path clip-path="url(#pa2dd50454b)" d="M 55.578698 288.430125 
L 56.574155 288.430125 
L 56.574155 285.094459 
L 55.578698 285.094459 
z
" style="fill:#1f77b4;"/>
   </g>
   <g id="patch_6">
    <path clip-path="url(#pa2dd50454b)" d="M 56.823019 288.430125 
L 57.818475 288.430125 
L 57.818475 283.982571 
L 56.823019 283.982571 
z
" style="fill:#1f77b4;"/>
   </g>
   <g id="patch_7">
    <path clip-path="url(#pa2dd50454b)" d="M 58.067339 288.430125 
L 59.062796 288.430125 
L 59.062796 282.500053 
L 58.067339 282.500053 
z
" style="fill:#1f77b4;"/>
   </g>
   <g id="patch_8">
    <path clip-path="url(#pa2dd50454b)" d="M 59.31166 288.430125 
L 60.307116 288.430125 
L 60.307116 281.388164 
L 59.31166 281.388164 
z
" style="fill:#1f77b4;"/>
   </g>
   <g id="patch_9">
    <path clip-path="url(#pa2dd50454b)" d="M 60.55598 288.430125 
L 61.551437 288.430125 
L 61.551437 279.535016 
L 60.55598 279.535016 
z
" style="fill:#1f77b4;"/>
   </g>
   <g id="patch_10">
    <path clip-path="url(#pa2dd50454b)" d="M 61.800301 288.430125 
L 62.795757 288.430125 
L 62.795757 276.94061 
L 61.800301 276.94061 
z
" style="fill:#1f77b4;"/>
   </g>
   <g id="patch_11">
    <path clip-path="url(#pa2dd50454b)" d="M 63.044622 288.430125 
L 64.040078 288.430125 
L 64.040078 275.458092 
L 63.044622 275.458092 
z
" style="fill:#1f77b4;"/>
   </g>
   <g id="patch_12">
    <path clip-path="url(#pa2dd50454b)" d="M 64.288942 288.430125 
L 65.284399 288.430125 
L 65.284399 272.122426 
L 64.288942 272.122426 
z
" style="fill:#1f77b4;"/>
   </g>
   <g id="patch_13">
    <path clip-path="url(#pa2dd50454b)" d="M 65.533263 288.430125 
L 66.528719 288.430125 
L 66.528719 271.751796 
L 65.533263 271.751796 
z
" style="fill:#1f77b4;"/>
   </g>
   <g id="patch_14">
    <path clip-path="url(#pa2dd50454b)" d="M 66.777583 288.430125 
L 67.77304 288.430125 
L 67.77304 268.78676 
L 66.777583 268.78676 
z
" style="fill:#1f77b4;"/>
   </g>
   <g id="patch_15">
    <path clip-path="url(#pa2dd50454b)" d="M 68.021904 288.430125 
L 69.01736 288.430125 
L 69.01736 266.192353 
L 68.021904 266.192353 
z
" style="fill:#1f77b4;"/>
   </g>
   <g id="patch_16">
    <path clip-path="url(#pa2dd50454b)" d="M 69.266224 288.430125 
L 70.261681 288.430125 
L 70.261681 264.709835 
L 69.266224 264.709835 
z
" style="fill:#1f77b4;"/>
   </g>
   <g id="patch_17">
    <path clip-path="url(#pa2dd50454b)" d="M 70.510545 288.430125 
L 71.506001 288.430125 
L 71.506001 262.115429 
L 70.510545 262.115429 
z
" style="fill:#1f77b4;"/>
   </g>
   <g id="patch_18">
    <path clip-path="url(#pa2dd50454b)" d="M 71.754865 288.430125 
L 72.750322 288.430125 
L 72.750322 261.00354 
L 71.754865 261.00354 
z
" style="fill:#1f77b4;"/>
   </g>
   <g id="patch_19">
    <path clip-path="url(#pa2dd50454b)" d="M 72.999186 288.430125 
L 73.994642 288.430125 
L 73.994642 247.660877 
L 72.999186 247.660877 
z
" style="fill:#1f77b4;"/>
   </g>
   <g id="patch_20">
    <path clip-path="url(#pa2dd50454b)" d="M 74.243507 288.430125 
L 75.238963 288.430125 
L 75.238963 243.954582 
L 74.243507 243.954582 
z
" style="fill:#1f77b4;"/>
   </g>
   <g id="patch_21">
    <path clip-path="url(#pa2dd50454b)" d="M 75.487827 288.430125 
L 76.483284 288.430125 
L 76.483284 240.989546 
L 75.487827 240.989546 
z
" style="fill:#1f77b4;"/>
   </g>
   <g id="patch_22">
    <path clip-path="url(#pa2dd50454b)" d="M 76.732148 288.430125 
L 77.727604 288.430125 
L 77.727604 235.800732 
L 76.732148 235.800732 
z
" style="fill:#1f77b4;"/>
   </g>
   <g id="patch_23">
    <path clip-path="url(#pa2dd50454b)" d="M 77.976468 288.430125 
L 78.971925 288.430125 
L 78.971925 234.318214 
L 77.976468 234.318214 
z
" style="fill:#1f77b4;"/>
   </g>
   <g id="patch_24">
    <path clip-path="url(#pa2dd50454b)" d="M 79.220789 288.430125 
L 80.216245 288.430125 
L 80.216245 230.611919 
L 79.220789 230.611919 
z
" style="fill:#1f77b4;"/>
   </g>
   <g id="patch_25">
    <path clip-path="url(#pa2dd50454b)" d="M 80.465109 288.430125 
L 81.460566 288.430125 
L 81.460566 227.646883 
L 80.465109 227.646883 
z
" style="fill:#1f77b4;"/>
   </g>
   <g id="patch_26">
    <path clip-path="url(#pa2dd50454b)" d="M 81.70943 288.430125 
L 82.704886 288.430125 
L 82.704886 224.681846 
L 81.70943 224.681846 
z
" style="fill:#1f77b4;"/>
   </g>
   <g id="patch_27">
    <path clip-path="url(#pa2dd50454b)" d="M 82.95375 288.430125 
L 83.949207 288.430125 
L 83.949207 222.458069 
L 82.95375 222.458069 
z
" style="fill:#1f77b4;"/>
   </g>
   <g id="patch_28">
    <path clip-path="url(#pa2dd50454b)" d="M 84.198071 288.430125 
L 85.193527 288.430125 
L 85.193527 219.122404 
L 84.198071 219.122404 
z
" style="fill:#1f77b4;"/>
   </g>
   <g id="patch_29">
    <path clip-path="url(#pa2dd50454b)" d="M 85.442392 288.430125 
L 86.437848 288.430125 
L 86.437848 217.269256 
L 85.442392 217.269256 
z
" style="fill:#1f77b4;"/>
   </g>
   <g id="patch_30">
    <path clip-path="url(#pa2dd50454b)" d="M 86.686712 288.430125 
L 87.682169 288.430125 
L 87.682169 214.30422 
L 86.686712 214.30422 
z
" style="fill:#1f77b4;"/>
   </g>
   <g id="patch_31">
    <path clip-path="url(#pa2dd50454b)" d="M 87.931033 288.430125 
L 88.926489 288.430125 
L 88.926489 212.821702 
L 87.931033 212.821702 
z
" style="fill:#1f77b4;"/>
   </g>
   <g id="patch_32">
    <path clip-path="url(#pa2dd50454b)" d="M 89.175353 288.430125 
L 90.17081 288.430125 
L 90.17081 208.744777 
L 89.175353 208.744777 
z
" style="fill:#1f77b4;"/>
   </g>
   <g id="patch_33">
    <path clip-path="url(#pa2dd50454b)" d="M 90.419674 288.430125 
L 91.41513 288.430125 
L 91.41513 208.003518 
L 90.419674 208.003518 
z
" style="fill:#1f77b4;"/>
   </g>
   <g id="patch_34">
    <path clip-path="url(#pa2dd50454b)" d="M 91.663994 288.430125 
L 92.659451 288.430125 
L 92.659451 206.521 
L 91.663994 206.521 
z
" style="fill:#1f77b4;"/>
   </g>
   <g id="patch_35">
    <path clip-path="url(#pa2dd50454b)" d="M 92.908315 288.430125 
L 93.903771 288.430125 
L 93.903771 203.926593 
L 92.908315 203.926593 
z
" style="fill:#1f77b4;"/>
   </g>
   <g id="patch_36">
    <path clip-path="url(#pa2dd50454b)" d="M 94.152635 288.430125 
L 95.148092 288.430125 
L 95.148092 202.444075 
L 94.152635 202.444075 
z
" style="fill:#1f77b4;"/>
   </g>
   <g id="patch_37">
    <path clip-path="url(#pa2dd50454b)" d="M 95.396956 288.430125 
L 96.392412 288.430125 
L 96.392412 199.849668 
L 95.396956 199.849668 
z
" style="fill:#1f77b4;"/>
   </g>
   <g id="patch_38">
    <path clip-path="url(#pa2dd50454b)" d="M 96.641277 288.430125 
L 97.636733 288.430125 
L 97.636733 197.625891 
L 96.641277 197.625891 
z
" style="fill:#1f77b4;"/>
   </g>
   <g id="patch_39">
    <path clip-path="url(#pa2dd50454b)" d="M 97.885597 288.430125 
L 98.881054 288.430125 
L 98.881054 196.143373 
L 97.885597 196.143373 
z
" style="fill:#1f77b4;"/>
   </g>
   <g id="patch_40">
    <path clip-path="url(#pa2dd50454b)" d="M 99.129918 288.430125 
L 100.125374 288.430125 
L 100.125374 195.031484 
L 99.129918 195.031484 
z
" style="fill:#1f77b4;"/>
   </g>
   <g id="patch_41">
    <path clip-path="url(#pa2dd50454b)" d="M 100.374238 288.430125 
L 101.369695 288.430125 
L 101.369695 193.548966 
L 100.374238 193.548966 
z
" style="fill:#1f77b4;"/>
   </g>
   <g id="patch_42">
    <path clip-path="url(#pa2dd50454b)" d="M 101.618559 288.430125 
L 102.614015 288.430125 
L 102.614015 191.695819 
L 101.618559 191.695819 
z
" style="fill:#1f77b4;"/>
   </g>
   <g id="patch_43">
    <path clip-path="url(#pa2dd50454b)" d="M 102.862879 288.430125 
L 103.858336 288.430125 
L 103.858336 190.95456 
L 102.862879 190.95456 
z
" style="fill:#1f77b4;"/>
   </g>
   <g id="patch_44">
    <path clip-path="url(#pa2dd50454b)" d="M 104.1072 288.430125 
L 105.102656 288.430125 
L 105.102656 190.2133 
L 104.1072 190.2133 
z
" style="fill:#1f77b4;"/>
   </g>
   <g id="patch_45">
    <path clip-path="url(#pa2dd50454b)" d="M 105.35152 288.430125 
L 106.346977 288.430125 
L 106.346977 188.730782 
L 105.35152 188.730782 
z
" style="fill:#1f77b4;"/>
   </g>
   <g id="patch_46">
    <path clip-path="url(#pa2dd50454b)" d="M 106.595841 288.430125 
L 107.591297 288.430125 
L 107.591297 188.360153 
L 106.595841 188.360153 
z
" style="fill:#1f77b4;"/>
   </g>
   <g id="patch_47">
    <path clip-path="url(#pa2dd50454b)" d="M 107.840162 288.430125 
L 108.835618 288.430125 
L 108.835618 187.618894 
L 107.840162 187.618894 
z
" style="fill:#1f77b4;"/>
   </g>
   <g id="patch_48">
    <path clip-path="url(#pa2dd50454b)" d="M 109.084482 288.430125 
L 110.079939 288.430125 
L 110.079939 186.877635 
L 109.084482 186.877635 
z
" style="fill:#1f77b4;"/>
   </g>
   <g id="patch_49">
    <path clip-path="url(#pa2dd50454b)" d="M 110.328803 288.430125 
L 111.324259 288.430125 
L 111.324259 186.507005 
L 110.328803 186.507005 
z
" style="fill:#1f77b4;"/>
   </g>
   <g id="patch_50">
    <path clip-path="url(#pa2dd50454b)" d="M 111.573123 288.430125 
L 112.56858 288.430125 
L 112.56858 185.395117 
L 111.573123 185.395117 
z
" style="fill:#1f77b4;"/>
   </g>
   <g id="patch_51">
    <path clip-path="url(#pa2dd50454b)" d="M 112.817444 288.430125 
L 113.8129 288.430125 
L 113.8129 185.024487 
L 112.817444 185.024487 
z
" style="fill:#1f77b4;"/>
   </g>
   <g id="patch_52">
    <path clip-path="url(#pa2dd50454b)" d="M 114.061764 288.430125 
L 115.057221 288.430125 
L 115.057221 184.283228 
L 114.061764 184.283228 
z
" style="fill:#1f77b4;"/>
   </g>
   <g id="patch_53">
    <path clip-path="url(#pa2dd50454b)" d="M 115.306085 288.430125 
L 116.301541 288.430125 
L 116.301541 183.171339 
L 115.306085 183.171339 
z
" style="fill:#1f77b4;"/>
   </g>
   <g id="patch_54">
    <path clip-path="url(#pa2dd50454b)" d="M 116.550405 288.430125 
L 117.545862 288.430125 
L 117.545862 182.43008 
L 116.550405 182.43008 
z
" style="fill:#1f77b4;"/>
   </g>
   <g id="patch_55">
    <path clip-path="url(#pa2dd50454b)" d="M 117.794726 288.430125 
L 118.790182 288.430125 
L 118.790182 182.43008 
L 117.794726 182.43008 
z
" style="fill:#1f77b4;"/>
   </g>
   <g id="patch_56">
    <path clip-path="url(#pa2dd50454b)" d="M 119.039047 288.430125 
L 120.034503 288.430125 
L 120.034503 182.43008 
L 119.039047 182.43008 
z
" style="fill:#1f77b4;"/>
   </g>
   <g id="patch_57">
    <path clip-path="url(#pa2dd50454b)" d="M 120.283367 288.430125 
L 121.278824 288.430125 
L 121.278824 181.318192 
L 120.283367 181.318192 
z
" style="fill:#1f77b4;"/>
   </g>
   <g id="patch_58">
    <path clip-path="url(#pa2dd50454b)" d="M 121.527688 288.430125 
L 122.523144 288.430125 
L 122.523144 180.947562 
L 121.527688 180.947562 
z
" style="fill:#1f77b4;"/>
   </g>
   <g id="patch_59">
    <path clip-path="url(#pa2dd50454b)" d="M 122.772008 288.430125 
L 123.767465 288.430125 
L 123.767465 180.947562 
L 122.772008 180.947562 
z
" style="fill:#1f77b4;"/>
   </g>
   <g id="patch_60">
    <path clip-path="url(#pa2dd50454b)" d="M 124.016329 288.430125 
L 125.011785 288.430125 
L 125.011785 180.947562 
L 124.016329 180.947562 
z
" style="fill:#1f77b4;"/>
   </g>
   <g id="patch_61">
    <path clip-path="url(#pa2dd50454b)" d="M 125.260649 288.430125 
L 126.256106 288.430125 
L 126.256106 180.947562 
L 125.260649 180.947562 
z
" style="fill:#1f77b4;"/>
   </g>
   <g id="patch_62">
    <path clip-path="url(#pa2dd50454b)" d="M 126.50497 288.430125 
L 127.500426 288.430125 
L 127.500426 180.947562 
L 126.50497 180.947562 
z
" style="fill:#1f77b4;"/>
   </g>
   <g id="patch_63">
    <path clip-path="url(#pa2dd50454b)" d="M 127.749291 288.430125 
L 128.744747 288.430125 
L 128.744747 180.947562 
L 127.749291 180.947562 
z
" style="fill:#1f77b4;"/>
   </g>
   <g id="patch_64">
    <path clip-path="url(#pa2dd50454b)" d="M 128.993611 288.430125 
L 129.989068 288.430125 
L 129.989068 180.947562 
L 128.993611 180.947562 
z
" style="fill:#1f77b4;"/>
   </g>
   <g id="patch_65">
    <path clip-path="url(#pa2dd50454b)" d="M 130.237932 288.430125 
L 131.233388 288.430125 
L 131.233388 180.947562 
L 130.237932 180.947562 
z
" style="fill:#1f77b4;"/>
   </g>
   <g id="patch_66">
    <path clip-path="url(#pa2dd50454b)" d="M 131.482252 288.430125 
L 132.477709 288.430125 
L 132.477709 180.947562 
L 131.482252 180.947562 
z
" style="fill:#1f77b4;"/>
   </g>
   <g id="patch_67">
    <path clip-path="url(#pa2dd50454b)" d="M 132.726573 288.430125 
L 133.722029 288.430125 
L 133.722029 180.576933 
L 132.726573 180.576933 
z
" style="fill:#1f77b4;"/>
   </g>
   <g id="patch_68">
    <path clip-path="url(#pa2dd50454b)" d="M 133.970893 288.430125 
L 134.96635 288.430125 
L 134.96635 180.576933 
L 133.970893 180.576933 
z
" style="fill:#1f77b4;"/>
   </g>
   <g id="patch_69">
    <path clip-path="url(#pa2dd50454b)" d="M 135.215214 288.430125 
L 136.21067 288.430125 
L 136.21067 180.576933 
L 135.215214 180.576933 
z
" style="fill:#1f77b4;"/>
   </g>
   <g id="patch_70">
    <path clip-path="url(#pa2dd50454b)" d="M 136.459534 288.430125 
L 137.454991 288.430125 
L 137.454991 180.576933 
L 136.459534 180.576933 
z
" style="fill:#1f77b4;"/>
   </g>
   <g id="patch_71">
    <path clip-path="url(#pa2dd50454b)" d="M 137.703855 288.430125 
L 138.699311 288.430125 
L 138.699311 180.576933 
L 137.703855 180.576933 
z
" style="fill:#1f77b4;"/>
   </g>
   <g id="patch_72">
    <path clip-path="url(#pa2dd50454b)" d="M 138.948176 288.430125 
L 139.943632 288.430125 
L 139.943632 180.576933 
L 138.948176 180.576933 
z
" style="fill:#1f77b4;"/>
   </g>
   <g id="patch_73">
    <path clip-path="url(#pa2dd50454b)" d="M 140.192496 288.430125 
L 141.187953 288.430125 
L 141.187953 180.576933 
L 140.192496 180.576933 
z
" style="fill:#1f77b4;"/>
   </g>
   <g id="patch_74">
    <path clip-path="url(#pa2dd50454b)" d="M 141.436817 288.430125 
L 142.432273 288.430125 
L 142.432273 180.576933 
L 141.436817 180.576933 
z
" style="fill:#1f77b4;"/>
   </g>
   <g id="patch_75">
    <path clip-path="url(#pa2dd50454b)" d="M 142.681137 288.430125 
L 143.676594 288.430125 
L 143.676594 180.576933 
L 142.681137 180.576933 
z
" style="fill:#1f77b4;"/>
   </g>
   <g id="patch_76">
    <path clip-path="url(#pa2dd50454b)" d="M 143.925458 288.430125 
L 144.920914 288.430125 
L 144.920914 180.576933 
L 143.925458 180.576933 
z
" style="fill:#1f77b4;"/>
   </g>
   <g id="patch_77">
    <path clip-path="url(#pa2dd50454b)" d="M 145.169778 288.430125 
L 146.165235 288.430125 
L 146.165235 180.576933 
L 145.169778 180.576933 
z
" style="fill:#1f77b4;"/>
   </g>
   <g id="patch_78">
    <path clip-path="url(#pa2dd50454b)" d="M 146.414099 288.430125 
L 147.409555 288.430125 
L 147.409555 180.576933 
L 146.414099 180.576933 
z
" style="fill:#1f77b4;"/>
   </g>
   <g id="patch_79">
    <path clip-path="url(#pa2dd50454b)" d="M 147.658419 288.430125 
L 148.653876 288.430125 
L 148.653876 180.576933 
L 147.658419 180.576933 
z
" style="fill:#1f77b4;"/>
   </g>
   <g id="patch_80">
    <path clip-path="url(#pa2dd50454b)" d="M 148.90274 288.430125 
L 149.898196 288.430125 
L 149.898196 180.576933 
L 148.90274 180.576933 
z
" style="fill:#1f77b4;"/>
   </g>
   <g id="patch_81">
    <path clip-path="url(#pa2dd50454b)" d="M 150.147061 288.430125 
L 151.142517 288.430125 
L 151.142517 180.576933 
L 150.147061 180.576933 
z
" style="fill:#1f77b4;"/>
   </g>
   <g id="patch_82">
    <path clip-path="url(#pa2dd50454b)" d="M 151.391381 288.430125 
L 152.386838 288.430125 
L 152.386838 180.576933 
L 151.391381 180.576933 
z
" style="fill:#1f77b4;"/>
   </g>
   <g id="patch_83">
    <path clip-path="url(#pa2dd50454b)" d="M 152.635702 288.430125 
L 153.631158 288.430125 
L 153.631158 180.576933 
L 152.635702 180.576933 
z
" style="fill:#1f77b4;"/>
   </g>
   <g id="patch_84">
    <path clip-path="url(#pa2dd50454b)" d="M 153.880022 288.430125 
L 154.875479 288.430125 
L 154.875479 180.206303 
L 153.880022 180.206303 
z
" style="fill:#1f77b4;"/>
   </g>
   <g id="patch_85">
    <path clip-path="url(#pa2dd50454b)" d="M 155.124343 288.430125 
L 156.119799 288.430125 
L 156.119799 180.206303 
L 155.124343 180.206303 
z
" style="fill:#1f77b4;"/>
   </g>
   <g id="patch_86">
    <path clip-path="url(#pa2dd50454b)" d="M 156.368663 288.430125 
L 157.36412 288.430125 
L 157.36412 180.206303 
L 156.368663 180.206303 
z
" style="fill:#1f77b4;"/>
   </g>
   <g id="patch_87">
    <path clip-path="url(#pa2dd50454b)" d="M 157.612984 288.430125 
L 158.60844 288.430125 
L 158.60844 180.206303 
L 157.612984 180.206303 
z
" style="fill:#1f77b4;"/>
   </g>
   <g id="patch_88">
    <path clip-path="url(#pa2dd50454b)" d="M 158.857304 288.430125 
L 159.852761 288.430125 
L 159.852761 180.206303 
L 158.857304 180.206303 
z
" style="fill:#1f77b4;"/>
   </g>
   <g id="patch_89">
    <path clip-path="url(#pa2dd50454b)" d="M 160.101625 288.430125 
L 161.097081 288.430125 
L 161.097081 180.206303 
L 160.101625 180.206303 
z
" style="fill:#1f77b4;"/>
   </g>
   <g id="patch_90">
    <path clip-path="url(#pa2dd50454b)" d="M 161.345946 288.430125 
L 162.341402 288.430125 
L 162.341402 180.206303 
L 161.345946 180.206303 
z
" style="fill:#1f77b4;"/>
   </g>
   <g id="patch_91">
    <path clip-path="url(#pa2dd50454b)" d="M 162.590266 288.430125 
L 163.585723 288.430125 
L 163.585723 180.206303 
L 162.590266 180.206303 
z
" style="fill:#1f77b4;"/>
   </g>
   <g id="patch_92">
    <path clip-path="url(#pa2dd50454b)" d="M 163.834587 288.430125 
L 164.830043 288.430125 
L 164.830043 180.576933 
L 163.834587 180.576933 
z
" style="fill:#1f77b4;"/>
   </g>
   <g id="patch_93">
    <path clip-path="url(#pa2dd50454b)" d="M 165.078907 288.430125 
L 166.074364 288.430125 
L 166.074364 180.576933 
L 165.078907 180.576933 
z
" style="fill:#1f77b4;"/>
   </g>
   <g id="patch_94">
    <path clip-path="url(#pa2dd50454b)" d="M 166.323228 288.430125 
L 167.318684 288.430125 
L 167.318684 180.576933 
L 166.323228 180.576933 
z
" style="fill:#1f77b4;"/>
   </g>
   <g id="patch_95">
    <path clip-path="url(#pa2dd50454b)" d="M 167.567548 288.430125 
L 168.563005 288.430125 
L 168.563005 180.206303 
L 167.567548 180.206303 
z
" style="fill:#1f77b4;"/>
   </g>
   <g id="patch_96">
    <path clip-path="url(#pa2dd50454b)" d="M 168.811869 288.430125 
L 169.807325 288.430125 
L 169.807325 180.206303 
L 168.811869 180.206303 
z
" style="fill:#1f77b4;"/>
   </g>
   <g id="patch_97">
    <path clip-path="url(#pa2dd50454b)" d="M 170.056189 288.430125 
L 171.051646 288.430125 
L 171.051646 180.206303 
L 170.056189 180.206303 
z
" style="fill:#1f77b4;"/>
   </g>
   <g id="patch_98">
    <path clip-path="url(#pa2dd50454b)" d="M 171.30051 288.430125 
L 172.295966 288.430125 
L 172.295966 180.206303 
L 171.30051 180.206303 
z
" style="fill:#1f77b4;"/>
   </g>
   <g id="patch_99">
    <path clip-path="url(#pa2dd50454b)" d="M 172.544831 288.430125 
L 173.540287 288.430125 
L 173.540287 180.206303 
L 172.544831 180.206303 
z
" style="fill:#1f77b4;"/>
   </g>
   <g id="patch_100">
    <path clip-path="url(#pa2dd50454b)" d="M 173.789151 288.430125 
L 174.784608 288.430125 
L 174.784608 180.206303 
L 173.789151 180.206303 
z
" style="fill:#1f77b4;"/>
   </g>
   <g id="patch_101">
    <path clip-path="url(#pa2dd50454b)" d="M 175.033472 288.430125 
L 176.028928 288.430125 
L 176.028928 180.206303 
L 175.033472 180.206303 
z
" style="fill:#1f77b4;"/>
   </g>
   <g id="patch_102">
    <path clip-path="url(#pa2dd50454b)" d="M 176.277792 288.430125 
L 177.273249 288.430125 
L 177.273249 180.206303 
L 176.277792 180.206303 
z
" style="fill:#1f77b4;"/>
   </g>
   <g id="patch_103">
    <path clip-path="url(#pa2dd50454b)" d="M 177.522113 288.430125 
L 178.517569 288.430125 
L 178.517569 180.206303 
L 177.522113 180.206303 
z
" style="fill:#1f77b4;"/>
   </g>
   <g id="patch_104">
    <path clip-path="url(#pa2dd50454b)" d="M 178.766433 288.430125 
L 179.76189 288.430125 
L 179.76189 180.206303 
L 178.766433 180.206303 
z
" style="fill:#1f77b4;"/>
   </g>
   <g id="patch_105">
    <path clip-path="url(#pa2dd50454b)" d="M 180.010754 288.430125 
L 181.00621 288.430125 
L 181.00621 180.206303 
L 180.010754 180.206303 
z
" style="fill:#1f77b4;"/>
   </g>
   <g id="patch_106">
    <path clip-path="url(#pa2dd50454b)" d="M 181.255074 288.430125 
L 182.250531 288.430125 
L 182.250531 180.206303 
L 181.255074 180.206303 
z
" style="fill:#1f77b4;"/>
   </g>
   <g id="patch_107">
    <path clip-path="url(#pa2dd50454b)" d="M 182.499395 288.430125 
L 183.494851 288.430125 
L 183.494851 180.206303 
L 182.499395 180.206303 
z
" style="fill:#1f77b4;"/>
   </g>
   <g id="patch_108">
    <path clip-path="url(#pa2dd50454b)" d="M 183.743716 288.430125 
L 184.739172 288.430125 
L 184.739172 180.206303 
L 183.743716 180.206303 
z
" style="fill:#1f77b4;"/>
   </g>
   <g id="patch_109">
    <path clip-path="url(#pa2dd50454b)" d="M 184.988036 288.430125 
L 185.983493 288.430125 
L 185.983493 180.206303 
L 184.988036 180.206303 
z
" style="fill:#1f77b4;"/>
   </g>
   <g id="patch_110">
    <path clip-path="url(#pa2dd50454b)" d="M 186.232357 288.430125 
L 187.227813 288.430125 
L 187.227813 180.206303 
L 186.232357 180.206303 
z
" style="fill:#1f77b4;"/>
   </g>
   <g id="patch_111">
    <path clip-path="url(#pa2dd50454b)" d="M 187.476677 288.430125 
L 188.472134 288.430125 
L 188.472134 180.206303 
L 187.476677 180.206303 
z
" style="fill:#1f77b4;"/>
   </g>
   <g id="patch_112">
    <path clip-path="url(#pa2dd50454b)" d="M 188.720998 288.430125 
L 189.716454 288.430125 
L 189.716454 180.206303 
L 188.720998 180.206303 
z
" style="fill:#1f77b4;"/>
   </g>
   <g id="patch_113">
    <path clip-path="url(#pa2dd50454b)" d="M 189.965318 288.430125 
L 190.960775 288.430125 
L 190.960775 180.206303 
L 189.965318 180.206303 
z
" style="fill:#1f77b4;"/>
   </g>
   <g id="patch_114">
    <path clip-path="url(#pa2dd50454b)" d="M 191.209639 288.430125 
L 192.205095 288.430125 
L 192.205095 180.206303 
L 191.209639 180.206303 
z
" style="fill:#1f77b4;"/>
   </g>
   <g id="patch_115">
    <path clip-path="url(#pa2dd50454b)" d="M 192.453959 288.430125 
L 193.449416 288.430125 
L 193.449416 180.206303 
L 192.453959 180.206303 
z
" style="fill:#1f77b4;"/>
   </g>
   <g id="patch_116">
    <path clip-path="url(#pa2dd50454b)" d="M 193.69828 288.430125 
L 194.693736 288.430125 
L 194.693736 180.206303 
L 193.69828 180.206303 
z
" style="fill:#1f77b4;"/>
   </g>
   <g id="patch_117">
    <path clip-path="url(#pa2dd50454b)" d="M 194.942601 288.430125 
L 195.938057 288.430125 
L 195.938057 180.206303 
L 194.942601 180.206303 
z
" style="fill:#1f77b4;"/>
   </g>
   <g id="patch_118">
    <path clip-path="url(#pa2dd50454b)" d="M 196.186921 288.430125 
L 197.182378 288.430125 
L 197.182378 180.206303 
L 196.186921 180.206303 
z
" style="fill:#1f77b4;"/>
   </g>
   <g id="patch_119">
    <path clip-path="url(#pa2dd50454b)" d="M 197.431242 288.430125 
L 198.426698 288.430125 
L 198.426698 180.206303 
L 197.431242 180.206303 
z
" style="fill:#1f77b4;"/>
   </g>
   <g id="patch_120">
    <path clip-path="url(#pa2dd50454b)" d="M 198.675562 288.430125 
L 199.671019 288.430125 
L 199.671019 180.206303 
L 198.675562 180.206303 
z
" style="fill:#1f77b4;"/>
   </g>
   <g id="patch_121">
    <path clip-path="url(#pa2dd50454b)" d="M 199.919883 288.430125 
L 200.915339 288.430125 
L 200.915339 180.206303 
L 199.919883 180.206303 
z
" style="fill:#1f77b4;"/>
   </g>
   <g id="patch_122">
    <path clip-path="url(#pa2dd50454b)" d="M 201.164203 288.430125 
L 202.15966 288.430125 
L 202.15966 180.206303 
L 201.164203 180.206303 
z
" style="fill:#1f77b4;"/>
   </g>
   <g id="patch_123">
    <path clip-path="url(#pa2dd50454b)" d="M 202.408524 288.430125 
L 203.40398 288.430125 
L 203.40398 180.206303 
L 202.408524 180.206303 
z
" style="fill:#1f77b4;"/>
   </g>
   <g id="patch_124">
    <path clip-path="url(#pa2dd50454b)" d="M 203.652845 288.430125 
L 204.648301 288.430125 
L 204.648301 180.206303 
L 203.652845 180.206303 
z
" style="fill:#1f77b4;"/>
   </g>
   <g id="patch_125">
    <path clip-path="url(#pa2dd50454b)" d="M 204.897165 288.430125 
L 205.892622 288.430125 
L 205.892622 180.206303 
L 204.897165 180.206303 
z
" style="fill:#1f77b4;"/>
   </g>
   <g id="patch_126">
    <path clip-path="url(#pa2dd50454b)" d="M 206.141486 288.430125 
L 207.136942 288.430125 
L 207.136942 180.206303 
L 206.141486 180.206303 
z
" style="fill:#1f77b4;"/>
   </g>
   <g id="patch_127">
    <path clip-path="url(#pa2dd50454b)" d="M 207.385806 288.430125 
L 208.381263 288.430125 
L 208.381263 180.206303 
L 207.385806 180.206303 
z
" style="fill:#1f77b4;"/>
   </g>
   <g id="patch_128">
    <path clip-path="url(#pa2dd50454b)" d="M 208.630127 288.430125 
L 209.625583 288.430125 
L 209.625583 180.206303 
L 208.630127 180.206303 
z
" style="fill:#1f77b4;"/>
   </g>
   <g id="patch_129">
    <path clip-path="url(#pa2dd50454b)" d="M 209.874447 288.430125 
L 210.869904 288.430125 
L 210.869904 180.206303 
L 209.874447 180.206303 
z
" style="fill:#1f77b4;"/>
   </g>
   <g id="patch_130">
    <path clip-path="url(#pa2dd50454b)" d="M 211.118768 288.430125 
L 212.114224 288.430125 
L 212.114224 180.206303 
L 211.118768 180.206303 
z
" style="fill:#1f77b4;"/>
   </g>
   <g id="patch_131">
    <path clip-path="url(#pa2dd50454b)" d="M 212.363088 288.430125 
L 213.358545 288.430125 
L 213.358545 180.206303 
L 212.363088 180.206303 
z
" style="fill:#1f77b4;"/>
   </g>
   <g id="patch_132">
    <path clip-path="url(#pa2dd50454b)" d="M 213.607409 288.430125 
L 214.602865 288.430125 
L 214.602865 180.206303 
L 213.607409 180.206303 
z
" style="fill:#1f77b4;"/>
   </g>
   <g id="patch_133">
    <path clip-path="url(#pa2dd50454b)" d="M 214.85173 288.430125 
L 215.847186 288.430125 
L 215.847186 180.206303 
L 214.85173 180.206303 
z
" style="fill:#1f77b4;"/>
   </g>
   <g id="patch_134">
    <path clip-path="url(#pa2dd50454b)" d="M 216.09605 288.430125 
L 217.091507 288.430125 
L 217.091507 180.206303 
L 216.09605 180.206303 
z
" style="fill:#1f77b4;"/>
   </g>
   <g id="patch_135">
    <path clip-path="url(#pa2dd50454b)" d="M 217.340371 288.430125 
L 218.335827 288.430125 
L 218.335827 180.206303 
L 217.340371 180.206303 
z
" style="fill:#1f77b4;"/>
   </g>
   <g id="patch_136">
    <path clip-path="url(#pa2dd50454b)" d="M 218.584691 288.430125 
L 219.580148 288.430125 
L 219.580148 180.206303 
L 218.584691 180.206303 
z
" style="fill:#1f77b4;"/>
   </g>
   <g id="patch_137">
    <path clip-path="url(#pa2dd50454b)" d="M 219.829012 288.430125 
L 220.824468 288.430125 
L 220.824468 180.206303 
L 219.829012 180.206303 
z
" style="fill:#1f77b4;"/>
   </g>
   <g id="patch_138">
    <path clip-path="url(#pa2dd50454b)" d="M 221.073332 288.430125 
L 222.068789 288.430125 
L 222.068789 180.206303 
L 221.073332 180.206303 
z
" style="fill:#1f77b4;"/>
   </g>
   <g id="patch_139">
    <path clip-path="url(#pa2dd50454b)" d="M 222.317653 288.430125 
L 223.313109 288.430125 
L 223.313109 180.206303 
L 222.317653 180.206303 
z
" style="fill:#1f77b4;"/>
   </g>
   <g id="patch_140">
    <path clip-path="url(#pa2dd50454b)" d="M 223.561973 288.430125 
L 224.55743 288.430125 
L 224.55743 180.206303 
L 223.561973 180.206303 
z
" style="fill:#1f77b4;"/>
   </g>
   <g id="patch_141">
    <path clip-path="url(#pa2dd50454b)" d="M 224.806294 288.430125 
L 225.80175 288.430125 
L 225.80175 180.206303 
L 224.806294 180.206303 
z
" style="fill:#1f77b4;"/>
   </g>
   <g id="patch_142">
    <path clip-path="url(#pa2dd50454b)" d="M 226.050615 288.430125 
L 227.046071 288.430125 
L 227.046071 180.206303 
L 226.050615 180.206303 
z
" style="fill:#1f77b4;"/>
   </g>
   <g id="patch_143">
    <path clip-path="url(#pa2dd50454b)" d="M 227.294935 288.430125 
L 228.290392 288.430125 
L 228.290392 180.206303 
L 227.294935 180.206303 
z
" style="fill:#1f77b4;"/>
   </g>
   <g id="patch_144">
    <path clip-path="url(#pa2dd50454b)" d="M 228.539256 288.430125 
L 229.534712 288.430125 
L 229.534712 180.206303 
L 228.539256 180.206303 
z
" style="fill:#1f77b4;"/>
   </g>
   <g id="patch_145">
    <path clip-path="url(#pa2dd50454b)" d="M 229.783576 288.430125 
L 230.779033 288.430125 
L 230.779033 180.206303 
L 229.783576 180.206303 
z
" style="fill:#1f77b4;"/>
   </g>
   <g id="patch_146">
    <path clip-path="url(#pa2dd50454b)" d="M 231.027897 288.430125 
L 232.023353 288.430125 
L 232.023353 180.206303 
L 231.027897 180.206303 
z
" style="fill:#1f77b4;"/>
   </g>
   <g id="patch_147">
    <path clip-path="url(#pa2dd50454b)" d="M 232.272217 288.430125 
L 233.267674 288.430125 
L 233.267674 180.206303 
L 232.272217 180.206303 
z
" style="fill:#1f77b4;"/>
   </g>
   <g id="patch_148">
    <path clip-path="url(#pa2dd50454b)" d="M 233.516538 288.430125 
L 234.511994 288.430125 
L 234.511994 180.206303 
L 233.516538 180.206303 
z
" style="fill:#1f77b4;"/>
   </g>
   <g id="patch_149">
    <path clip-path="url(#pa2dd50454b)" d="M 234.760858 288.430125 
L 235.756315 288.430125 
L 235.756315 180.206303 
L 234.760858 180.206303 
z
" style="fill:#1f77b4;"/>
   </g>
   <g id="patch_150">
    <path clip-path="url(#pa2dd50454b)" d="M 236.005179 288.430125 
L 237.000635 288.430125 
L 237.000635 180.206303 
L 236.005179 180.206303 
z
" style="fill:#1f77b4;"/>
   </g>
   <g id="patch_151">
    <path clip-path="url(#pa2dd50454b)" d="M 237.2495 288.430125 
L 238.244956 288.430125 
L 238.244956 180.206303 
L 237.2495 180.206303 
z
" style="fill:#1f77b4;"/>
   </g>
   <g id="patch_152">
    <path clip-path="url(#pa2dd50454b)" d="M 238.49382 288.430125 
L 239.489277 288.430125 
L 239.489277 180.206303 
L 238.49382 180.206303 
z
" style="fill:#1f77b4;"/>
   </g>
   <g id="patch_153">
    <path clip-path="url(#pa2dd50454b)" d="M 239.738141 288.430125 
L 240.733597 288.430125 
L 240.733597 180.206303 
L 239.738141 180.206303 
z
" style="fill:#1f77b4;"/>
   </g>
   <g id="patch_154">
    <path clip-path="url(#pa2dd50454b)" d="M 240.982461 288.430125 
L 241.977918 288.430125 
L 241.977918 180.206303 
L 240.982461 180.206303 
z
" style="fill:#1f77b4;"/>
   </g>
   <g id="patch_155">
    <path clip-path="url(#pa2dd50454b)" d="M 242.226782 288.430125 
L 243.222238 288.430125 
L 243.222238 180.206303 
L 242.226782 180.206303 
z
" style="fill:#1f77b4;"/>
   </g>
   <g id="patch_156">
    <path clip-path="url(#pa2dd50454b)" d="M 243.471102 288.430125 
L 244.466559 288.430125 
L 244.466559 180.206303 
L 243.471102 180.206303 
z
" style="fill:#1f77b4;"/>
   </g>
   <g id="patch_157">
    <path clip-path="url(#pa2dd50454b)" d="M 244.715423 288.430125 
L 245.710879 288.430125 
L 245.710879 180.206303 
L 244.715423 180.206303 
z
" style="fill:#1f77b4;"/>
   </g>
   <g id="patch_158">
    <path clip-path="url(#pa2dd50454b)" d="M 245.959743 288.430125 
L 246.9552 288.430125 
L 246.9552 180.206303 
L 245.959743 180.206303 
z
" style="fill:#1f77b4;"/>
   </g>
   <g id="patch_159">
    <path clip-path="url(#pa2dd50454b)" d="M 247.204064 288.430125 
L 248.19952 288.430125 
L 248.19952 180.206303 
L 247.204064 180.206303 
z
" style="fill:#1f77b4;"/>
   </g>
   <g id="patch_160">
    <path clip-path="url(#pa2dd50454b)" d="M 248.448385 288.430125 
L 249.443841 288.430125 
L 249.443841 180.206303 
L 248.448385 180.206303 
z
" style="fill:#1f77b4;"/>
   </g>
   <g id="patch_161">
    <path clip-path="url(#pa2dd50454b)" d="M 249.692705 288.430125 
L 250.688162 288.430125 
L 250.688162 180.206303 
L 249.692705 180.206303 
z
" style="fill:#1f77b4;"/>
   </g>
   <g id="patch_162">
    <path clip-path="url(#pa2dd50454b)" d="M 250.937026 288.430125 
L 251.932482 288.430125 
L 251.932482 180.206303 
L 250.937026 180.206303 
z
" style="fill:#1f77b4;"/>
   </g>
   <g id="patch_163">
    <path clip-path="url(#pa2dd50454b)" d="M 252.181346 288.430125 
L 253.176803 288.430125 
L 253.176803 180.206303 
L 252.181346 180.206303 
z
" style="fill:#1f77b4;"/>
   </g>
   <g id="patch_164">
    <path clip-path="url(#pa2dd50454b)" d="M 253.425667 288.430125 
L 254.421123 288.430125 
L 254.421123 180.206303 
L 253.425667 180.206303 
z
" style="fill:#1f77b4;"/>
   </g>
   <g id="patch_165">
    <path clip-path="url(#pa2dd50454b)" d="M 254.669987 288.430125 
L 255.665444 288.430125 
L 255.665444 180.206303 
L 254.669987 180.206303 
z
" style="fill:#1f77b4;"/>
   </g>
   <g id="patch_166">
    <path clip-path="url(#pa2dd50454b)" d="M 255.914308 288.430125 
L 256.909764 288.430125 
L 256.909764 180.947562 
L 255.914308 180.947562 
z
" style="fill:#1f77b4;"/>
   </g>
   <g id="patch_167">
    <path clip-path="url(#pa2dd50454b)" d="M 257.158628 288.430125 
L 258.154085 288.430125 
L 258.154085 180.206303 
L 257.158628 180.206303 
z
" style="fill:#1f77b4;"/>
   </g>
   <g id="patch_168">
    <path clip-path="url(#pa2dd50454b)" d="M 258.402949 288.430125 
L 259.398405 288.430125 
L 259.398405 180.206303 
L 258.402949 180.206303 
z
" style="fill:#1f77b4;"/>
   </g>
   <g id="patch_169">
    <path clip-path="url(#pa2dd50454b)" d="M 259.64727 288.430125 
L 260.642726 288.430125 
L 260.642726 180.206303 
L 259.64727 180.206303 
z
" style="fill:#1f77b4;"/>
   </g>
   <g id="patch_170">
    <path clip-path="url(#pa2dd50454b)" d="M 260.89159 288.430125 
L 261.887047 288.430125 
L 261.887047 180.206303 
L 260.89159 180.206303 
z
" style="fill:#1f77b4;"/>
   </g>
   <g id="patch_171">
    <path clip-path="url(#pa2dd50454b)" d="M 262.135911 288.430125 
L 263.131367 288.430125 
L 263.131367 180.206303 
L 262.135911 180.206303 
z
" style="fill:#1f77b4;"/>
   </g>
   <g id="patch_172">
    <path clip-path="url(#pa2dd50454b)" d="M 263.380231 288.430125 
L 264.375688 288.430125 
L 264.375688 180.206303 
L 263.380231 180.206303 
z
" style="fill:#1f77b4;"/>
   </g>
   <g id="patch_173">
    <path clip-path="url(#pa2dd50454b)" d="M 264.624552 288.430125 
L 265.620008 288.430125 
L 265.620008 180.206303 
L 264.624552 180.206303 
z
" style="fill:#1f77b4;"/>
   </g>
   <g id="patch_174">
    <path clip-path="url(#pa2dd50454b)" d="M 265.868872 288.430125 
L 266.864329 288.430125 
L 266.864329 180.206303 
L 265.868872 180.206303 
z
" style="fill:#1f77b4;"/>
   </g>
   <g id="patch_175">
    <path clip-path="url(#pa2dd50454b)" d="M 267.113193 288.430125 
L 268.108649 288.430125 
L 268.108649 180.206303 
L 267.113193 180.206303 
z
" style="fill:#1f77b4;"/>
   </g>
   <g id="patch_176">
    <path clip-path="url(#pa2dd50454b)" d="M 268.357514 288.430125 
L 269.35297 288.430125 
L 269.35297 180.206303 
L 268.357514 180.206303 
z
" style="fill:#1f77b4;"/>
   </g>
   <g id="patch_177">
    <path clip-path="url(#pa2dd50454b)" d="M 269.601834 288.430125 
L 270.597291 288.430125 
L 270.597291 180.206303 
L 269.601834 180.206303 
z
" style="fill:#1f77b4;"/>
   </g>
   <g id="patch_178">
    <path clip-path="url(#pa2dd50454b)" d="M 270.846155 288.430125 
L 271.841611 288.430125 
L 271.841611 180.206303 
L 270.846155 180.206303 
z
" style="fill:#1f77b4;"/>
   </g>
   <g id="patch_179">
    <path clip-path="url(#pa2dd50454b)" d="M 272.090475 288.430125 
L 273.085932 288.430125 
L 273.085932 180.206303 
L 272.090475 180.206303 
z
" style="fill:#1f77b4;"/>
   </g>
   <g id="patch_180">
    <path clip-path="url(#pa2dd50454b)" d="M 273.334796 288.430125 
L 274.330252 288.430125 
L 274.330252 180.206303 
L 273.334796 180.206303 
z
" style="fill:#1f77b4;"/>
   </g>
   <g id="patch_181">
    <path clip-path="url(#pa2dd50454b)" d="M 274.579116 288.430125 
L 275.574573 288.430125 
L 275.574573 180.206303 
L 274.579116 180.206303 
z
" style="fill:#1f77b4;"/>
   </g>
   <g id="patch_182">
    <path clip-path="url(#pa2dd50454b)" d="M 275.823437 288.430125 
L 276.818893 288.430125 
L 276.818893 180.206303 
L 275.823437 180.206303 
z
" style="fill:#1f77b4;"/>
   </g>
   <g id="patch_183">
    <path clip-path="url(#pa2dd50454b)" d="M 277.067757 288.430125 
L 278.063214 288.430125 
L 278.063214 180.206303 
L 277.067757 180.206303 
z
" style="fill:#1f77b4;"/>
   </g>
   <g id="patch_184">
    <path clip-path="url(#pa2dd50454b)" d="M 278.312078 288.430125 
L 279.307534 288.430125 
L 279.307534 180.206303 
L 278.312078 180.206303 
z
" style="fill:#1f77b4;"/>
   </g>
   <g id="patch_185">
    <path clip-path="url(#pa2dd50454b)" d="M 279.556399 288.430125 
L 280.551855 288.430125 
L 280.551855 180.206303 
L 279.556399 180.206303 
z
" style="fill:#1f77b4;"/>
   </g>
   <g id="patch_186">
    <path clip-path="url(#pa2dd50454b)" d="M 280.800719 288.430125 
L 281.796176 288.430125 
L 281.796176 180.206303 
L 280.800719 180.206303 
z
" style="fill:#1f77b4;"/>
   </g>
   <g id="patch_187">
    <path clip-path="url(#pa2dd50454b)" d="M 282.04504 288.430125 
L 283.040496 288.430125 
L 283.040496 180.206303 
L 282.04504 180.206303 
z
" style="fill:#1f77b4;"/>
   </g>
   <g id="patch_188">
    <path clip-path="url(#pa2dd50454b)" d="M 283.28936 288.430125 
L 284.284817 288.430125 
L 284.284817 180.206303 
L 283.28936 180.206303 
z
" style="fill:#1f77b4;"/>
   </g>
   <g id="patch_189">
    <path clip-path="url(#pa2dd50454b)" d="M 284.533681 288.430125 
L 285.529137 288.430125 
L 285.529137 180.206303 
L 284.533681 180.206303 
z
" style="fill:#1f77b4;"/>
   </g>
   <g id="patch_190">
    <path clip-path="url(#pa2dd50454b)" d="M 285.778001 288.430125 
L 286.773458 288.430125 
L 286.773458 180.206303 
L 285.778001 180.206303 
z
" style="fill:#1f77b4;"/>
   </g>
   <g id="patch_191">
    <path clip-path="url(#pa2dd50454b)" d="M 287.022322 288.430125 
L 288.017778 288.430125 
L 288.017778 180.206303 
L 287.022322 180.206303 
z
" style="fill:#1f77b4;"/>
   </g>
   <g id="patch_192">
    <path clip-path="url(#pa2dd50454b)" d="M 288.266642 288.430125 
L 289.262099 288.430125 
L 289.262099 180.206303 
L 288.266642 180.206303 
z
" style="fill:#1f77b4;"/>
   </g>
   <g id="patch_193">
    <path clip-path="url(#pa2dd50454b)" d="M 289.510963 288.430125 
L 290.506419 288.430125 
L 290.506419 180.206303 
L 289.510963 180.206303 
z
" style="fill:#1f77b4;"/>
   </g>
   <g id="patch_194">
    <path clip-path="url(#pa2dd50454b)" d="M 290.755284 288.430125 
L 291.75074 288.430125 
L 291.75074 180.206303 
L 290.755284 180.206303 
z
" style="fill:#1f77b4;"/>
   </g>
   <g id="patch_195">
    <path clip-path="url(#pa2dd50454b)" d="M 291.999604 288.430125 
L 292.995061 288.430125 
L 292.995061 180.206303 
L 291.999604 180.206303 
z
" style="fill:#1f77b4;"/>
   </g>
   <g id="patch_196">
    <path clip-path="url(#pa2dd50454b)" d="M 293.243925 288.430125 
L 294.239381 288.430125 
L 294.239381 180.206303 
L 293.243925 180.206303 
z
" style="fill:#1f77b4;"/>
   </g>
   <g id="patch_197">
    <path clip-path="url(#pa2dd50454b)" d="M 294.488245 288.430125 
L 295.483702 288.430125 
L 295.483702 180.206303 
L 294.488245 180.206303 
z
" style="fill:#1f77b4;"/>
   </g>
   <g id="patch_198">
    <path clip-path="url(#pa2dd50454b)" d="M 295.732566 288.430125 
L 296.728022 288.430125 
L 296.728022 180.206303 
L 295.732566 180.206303 
z
" style="fill:#1f77b4;"/>
   </g>
   <g id="patch_199">
    <path clip-path="url(#pa2dd50454b)" d="M 296.976886 288.430125 
L 297.972343 288.430125 
L 297.972343 180.206303 
L 296.976886 180.206303 
z
" style="fill:#1f77b4;"/>
   </g>
   <g id="patch_200">
    <path clip-path="url(#pa2dd50454b)" d="M 298.221207 288.430125 
L 299.216663 288.430125 
L 299.216663 180.206303 
L 298.221207 180.206303 
z
" style="fill:#1f77b4;"/>
   </g>
   <g id="patch_201">
    <path clip-path="url(#pa2dd50454b)" d="M 299.465527 288.430125 
L 300.460984 288.430125 
L 300.460984 180.206303 
L 299.465527 180.206303 
z
" style="fill:#1f77b4;"/>
   </g>
   <g id="patch_202">
    <path clip-path="url(#pa2dd50454b)" d="M 300.709848 288.430125 
L 301.705304 288.430125 
L 301.705304 180.206303 
L 300.709848 180.206303 
z
" style="fill:#1f77b4;"/>
   </g>
   <g id="patch_203">
    <path clip-path="url(#pa2dd50454b)" d="M 301.954169 288.430125 
L 302.949625 288.430125 
L 302.949625 180.206303 
L 301.954169 180.206303 
z
" style="fill:#1f77b4;"/>
   </g>
   <g id="patch_204">
    <path clip-path="url(#pa2dd50454b)" d="M 303.198489 288.430125 
L 304.193946 288.430125 
L 304.193946 180.206303 
L 303.198489 180.206303 
z
" style="fill:#1f77b4;"/>
   </g>
   <g id="patch_205">
    <path clip-path="url(#pa2dd50454b)" d="M 304.44281 288.430125 
L 305.438266 288.430125 
L 305.438266 180.206303 
L 304.44281 180.206303 
z
" style="fill:#1f77b4;"/>
   </g>
   <g id="patch_206">
    <path clip-path="url(#pa2dd50454b)" d="M 305.68713 288.430125 
L 306.682587 288.430125 
L 306.682587 180.206303 
L 305.68713 180.206303 
z
" style="fill:#1f77b4;"/>
   </g>
   <g id="patch_207">
    <path clip-path="url(#pa2dd50454b)" d="M 306.931451 288.430125 
L 307.926907 288.430125 
L 307.926907 180.206303 
L 306.931451 180.206303 
z
" style="fill:#1f77b4;"/>
   </g>
   <g id="patch_208">
    <path clip-path="url(#pa2dd50454b)" d="M 308.175771 288.430125 
L 309.171228 288.430125 
L 309.171228 180.206303 
L 308.175771 180.206303 
z
" style="fill:#1f77b4;"/>
   </g>
   <g id="patch_209">
    <path clip-path="url(#pa2dd50454b)" d="M 309.420092 288.430125 
L 310.415548 288.430125 
L 310.415548 180.206303 
L 309.420092 180.206303 
z
" style="fill:#1f77b4;"/>
   </g>
   <g id="patch_210">
    <path clip-path="url(#pa2dd50454b)" d="M 310.664412 288.430125 
L 311.659869 288.430125 
L 311.659869 180.206303 
L 310.664412 180.206303 
z
" style="fill:#1f77b4;"/>
   </g>
   <g id="patch_211">
    <path clip-path="url(#pa2dd50454b)" d="M 311.908733 288.430125 
L 312.904189 288.430125 
L 312.904189 180.206303 
L 311.908733 180.206303 
z
" style="fill:#1f77b4;"/>
   </g>
   <g id="patch_212">
    <path clip-path="url(#pa2dd50454b)" d="M 313.153054 288.430125 
L 314.14851 288.430125 
L 314.14851 180.206303 
L 313.153054 180.206303 
z
" style="fill:#1f77b4;"/>
   </g>
   <g id="patch_213">
    <path clip-path="url(#pa2dd50454b)" d="M 314.397374 288.430125 
L 315.392831 288.430125 
L 315.392831 179.835674 
L 314.397374 179.835674 
z
" style="fill:#1f77b4;"/>
   </g>
   <g id="patch_214">
    <path clip-path="url(#pa2dd50454b)" d="M 315.641695 288.430125 
L 316.637151 288.430125 
L 316.637151 179.835674 
L 315.641695 179.835674 
z
" style="fill:#1f77b4;"/>
   </g>
   <g id="patch_215">
    <path clip-path="url(#pa2dd50454b)" d="M 316.886015 288.430125 
L 317.881472 288.430125 
L 317.881472 179.835674 
L 316.886015 179.835674 
z
" style="fill:#1f77b4;"/>
   </g>
   <g id="patch_216">
    <path clip-path="url(#pa2dd50454b)" d="M 318.130336 288.430125 
L 319.125792 288.430125 
L 319.125792 179.835674 
L 318.130336 179.835674 
z
" style="fill:#1f77b4;"/>
   </g>
   <g id="patch_217">
    <path clip-path="url(#pa2dd50454b)" d="M 319.374656 288.430125 
L 320.370113 288.430125 
L 320.370113 179.835674 
L 319.374656 179.835674 
z
" style="fill:#1f77b4;"/>
   </g>
   <g id="patch_218">
    <path clip-path="url(#pa2dd50454b)" d="M 320.618977 288.430125 
L 321.614433 288.430125 
L 321.614433 179.835674 
L 320.618977 179.835674 
z
" style="fill:#1f77b4;"/>
   </g>
   <g id="patch_219">
    <path clip-path="url(#pa2dd50454b)" d="M 321.863297 288.430125 
L 322.858754 288.430125 
L 322.858754 179.835674 
L 321.863297 179.835674 
z
" style="fill:#1f77b4;"/>
   </g>
   <g id="patch_220">
    <path clip-path="url(#pa2dd50454b)" d="M 323.107618 288.430125 
L 324.103074 288.430125 
L 324.103074 179.835674 
L 323.107618 179.835674 
z
" style="fill:#1f77b4;"/>
   </g>
   <g id="patch_221">
    <path clip-path="url(#pa2dd50454b)" d="M 324.351939 288.430125 
L 325.347395 288.430125 
L 325.347395 179.465044 
L 324.351939 179.465044 
z
" style="fill:#1f77b4;"/>
   </g>
   <g id="patch_222">
    <path clip-path="url(#pa2dd50454b)" d="M 325.596259 288.430125 
L 326.591716 288.430125 
L 326.591716 179.465044 
L 325.596259 179.465044 
z
" style="fill:#1f77b4;"/>
   </g>
   <g id="patch_223">
    <path clip-path="url(#pa2dd50454b)" d="M 326.84058 288.430125 
L 327.836036 288.430125 
L 327.836036 178.723785 
L 326.84058 178.723785 
z
" style="fill:#1f77b4;"/>
   </g>
   <g id="patch_224">
    <path clip-path="url(#pa2dd50454b)" d="M 328.0849 288.430125 
L 329.080357 288.430125 
L 329.080357 178.723785 
L 328.0849 178.723785 
z
" style="fill:#1f77b4;"/>
   </g>
   <g id="patch_225">
    <path clip-path="url(#pa2dd50454b)" d="M 329.329221 288.430125 
L 330.324677 288.430125 
L 330.324677 178.723785 
L 329.329221 178.723785 
z
" style="fill:#1f77b4;"/>
   </g>
   <g id="patch_226">
    <path clip-path="url(#pa2dd50454b)" d="M 330.573541 288.430125 
L 331.568998 288.430125 
L 331.568998 178.723785 
L 330.573541 178.723785 
z
" style="fill:#1f77b4;"/>
   </g>
   <g id="patch_227">
    <path clip-path="url(#pa2dd50454b)" d="M 331.817862 288.430125 
L 332.813318 288.430125 
L 332.813318 178.723785 
L 331.817862 178.723785 
z
" style="fill:#1f77b4;"/>
   </g>
   <g id="patch_228">
    <path clip-path="url(#pa2dd50454b)" d="M 333.062182 288.430125 
L 334.057639 288.430125 
L 334.057639 177.611897 
L 333.062182 177.611897 
z
" style="fill:#1f77b4;"/>
   </g>
   <g id="patch_229">
    <path clip-path="url(#pa2dd50454b)" d="M 334.306503 288.430125 
L 335.301959 288.430125 
L 335.301959 177.241267 
L 334.306503 177.241267 
z
" style="fill:#1f77b4;"/>
   </g>
   <g id="patch_230">
    <path clip-path="url(#pa2dd50454b)" d="M 335.550824 288.430125 
L 336.54628 288.430125 
L 336.54628 175.758749 
L 335.550824 175.758749 
z
" style="fill:#1f77b4;"/>
   </g>
   <g id="patch_231">
    <path clip-path="url(#pa2dd50454b)" d="M 336.795144 288.430125 
L 337.790601 288.430125 
L 337.790601 175.01749 
L 336.795144 175.01749 
z
" style="fill:#1f77b4;"/>
   </g>
   <g id="patch_232">
    <path clip-path="url(#pa2dd50454b)" d="M 338.039465 288.430125 
L 339.034921 288.430125 
L 339.034921 174.276231 
L 338.039465 174.276231 
z
" style="fill:#1f77b4;"/>
   </g>
   <g id="patch_233">
    <path clip-path="url(#pa2dd50454b)" d="M 339.283785 288.430125 
L 340.279242 288.430125 
L 340.279242 172.793713 
L 339.283785 172.793713 
z
" style="fill:#1f77b4;"/>
   </g>
   <g id="patch_234">
    <path clip-path="url(#pa2dd50454b)" d="M 340.528106 288.430125 
L 341.523562 288.430125 
L 341.523562 171.681824 
L 340.528106 171.681824 
z
" style="fill:#1f77b4;"/>
   </g>
   <g id="patch_235">
    <path clip-path="url(#pa2dd50454b)" d="M 341.772426 288.430125 
L 342.767883 288.430125 
L 342.767883 170.199306 
L 341.772426 170.199306 
z
" style="fill:#1f77b4;"/>
   </g>
   <g id="patch_236">
    <path clip-path="url(#pa2dd50454b)" d="M 343.016747 288.430125 
L 344.012203 288.430125 
L 344.012203 169.828677 
L 343.016747 169.828677 
z
" style="fill:#1f77b4;"/>
   </g>
   <g id="patch_237">
    <path clip-path="url(#pa2dd50454b)" d="M 344.261068 288.430125 
L 345.256524 288.430125 
L 345.256524 169.087417 
L 344.261068 169.087417 
z
" style="fill:#1f77b4;"/>
   </g>
   <g id="patch_238">
    <path clip-path="url(#pa2dd50454b)" d="M 345.505388 288.430125 
L 346.500845 288.430125 
L 346.500845 167.604899 
L 345.505388 167.604899 
z
" style="fill:#1f77b4;"/>
   </g>
   <g id="patch_239">
    <path clip-path="url(#pa2dd50454b)" d="M 346.749709 288.430125 
L 347.745165 288.430125 
L 347.745165 166.122381 
L 346.749709 166.122381 
z
" style="fill:#1f77b4;"/>
   </g>
   <g id="patch_240">
    <path clip-path="url(#pa2dd50454b)" d="M 347.994029 288.430125 
L 348.989486 288.430125 
L 348.989486 163.527975 
L 347.994029 163.527975 
z
" style="fill:#1f77b4;"/>
   </g>
   <g id="patch_241">
    <path clip-path="url(#pa2dd50454b)" d="M 349.23835 288.430125 
L 350.233806 288.430125 
L 350.233806 162.045456 
L 349.23835 162.045456 
z
" style="fill:#1f77b4;"/>
   </g>
   <g id="patch_242">
    <path clip-path="url(#pa2dd50454b)" d="M 350.48267 288.430125 
L 351.478127 288.430125 
L 351.478127 160.562938 
L 350.48267 160.562938 
z
" style="fill:#1f77b4;"/>
   </g>
   <g id="patch_243">
    <path clip-path="url(#pa2dd50454b)" d="M 351.726991 288.430125 
L 352.722447 288.430125 
L 352.722447 158.709791 
L 351.726991 158.709791 
z
" style="fill:#1f77b4;"/>
   </g>
   <g id="patch_244">
    <path clip-path="url(#pa2dd50454b)" d="M 352.971311 288.430125 
L 353.966768 288.430125 
L 353.966768 155.374125 
L 352.971311 155.374125 
z
" style="fill:#1f77b4;"/>
   </g>
   <g id="patch_245">
    <path clip-path="url(#pa2dd50454b)" d="M 354.215632 288.430125 
L 355.211088 288.430125 
L 355.211088 153.150348 
L 354.215632 153.150348 
z
" style="fill:#1f77b4;"/>
   </g>
   <g id="patch_246">
    <path clip-path="url(#pa2dd50454b)" d="M 355.459953 288.430125 
L 356.455409 288.430125 
L 356.455409 149.814682 
L 355.459953 149.814682 
z
" style="fill:#1f77b4;"/>
   </g>
   <g id="patch_247">
    <path clip-path="url(#pa2dd50454b)" d="M 356.704273 288.430125 
L 357.69973 288.430125 
L 357.69973 147.961534 
L 356.704273 147.961534 
z
" style="fill:#1f77b4;"/>
   </g>
   <g id="patch_248">
    <path clip-path="url(#pa2dd50454b)" d="M 357.948594 288.430125 
L 358.94405 288.430125 
L 358.94405 140.919573 
L 357.948594 140.919573 
z
" style="fill:#1f77b4;"/>
   </g>
   <g id="patch_249">
    <path clip-path="url(#pa2dd50454b)" d="M 359.192914 288.430125 
L 360.188371 288.430125 
L 360.188371 138.325167 
L 359.192914 138.325167 
z
" style="fill:#1f77b4;"/>
   </g>
   <g id="patch_250">
    <path clip-path="url(#pa2dd50454b)" d="M 360.437235 288.430125 
L 361.432691 288.430125 
L 361.432691 134.989501 
L 360.437235 134.989501 
z
" style="fill:#1f77b4;"/>
   </g>
   <g id="patch_251">
    <path clip-path="url(#pa2dd50454b)" d="M 361.681555 288.430125 
L 362.677012 288.430125 
L 362.677012 130.912576 
L 361.681555 130.912576 
z
" style="fill:#1f77b4;"/>
   </g>
   <g id="patch_252">
    <path clip-path="url(#pa2dd50454b)" d="M 362.925876 288.430125 
L 363.921332 288.430125 
L 363.921332 126.094392 
L 362.925876 126.094392 
z
" style="fill:#1f77b4;"/>
   </g>
   <g id="patch_253">
    <path clip-path="url(#pa2dd50454b)" d="M 364.170196 288.430125 
L 365.165653 288.430125 
L 365.165653 123.129356 
L 364.170196 123.129356 
z
" style="fill:#1f77b4;"/>
   </g>
   <g id="patch_254">
    <path clip-path="url(#pa2dd50454b)" d="M 365.414517 288.430125 
L 366.409973 288.430125 
L 366.409973 117.199284 
L 365.414517 117.199284 
z
" style="fill:#1f77b4;"/>
   </g>
   <g id="patch_255">
    <path clip-path="url(#pa2dd50454b)" d="M 366.658838 288.430125 
L 367.654294 288.430125 
L 367.654294 114.604877 
L 366.658838 114.604877 
z
" style="fill:#1f77b4;"/>
   </g>
   <g id="patch_256">
    <path clip-path="url(#pa2dd50454b)" d="M 367.903158 288.430125 
L 368.898615 288.430125 
L 368.898615 112.751729 
L 367.903158 112.751729 
z
" style="fill:#1f77b4;"/>
   </g>
   <g id="patch_257">
    <path clip-path="url(#pa2dd50454b)" d="M 369.147479 288.430125 
L 370.142935 288.430125 
L 370.142935 106.821657 
L 369.147479 106.821657 
z
" style="fill:#1f77b4;"/>
   </g>
   <g id="patch_258">
    <path clip-path="url(#pa2dd50454b)" d="M 370.391799 288.430125 
L 371.387256 288.430125 
L 371.387256 103.856621 
L 370.391799 103.856621 
z
" style="fill:#1f77b4;"/>
   </g>
   <g id="patch_259">
    <path clip-path="url(#pa2dd50454b)" d="M 371.63612 288.430125 
L 372.631576 288.430125 
L 372.631576 99.779696 
L 371.63612 99.779696 
z
" style="fill:#1f77b4;"/>
   </g>
   <g id="patch_260">
    <path clip-path="url(#pa2dd50454b)" d="M 372.88044 288.430125 
L 373.875897 288.430125 
L 373.875897 95.702771 
L 372.88044 95.702771 
z
" style="fill:#1f77b4;"/>
   </g>
   <g id="patch_261">
    <path clip-path="url(#pa2dd50454b)" d="M 374.124761 288.430125 
L 375.120217 288.430125 
L 375.120217 94.590883 
L 374.124761 94.590883 
z
" style="fill:#1f77b4;"/>
   </g>
   <g id="patch_262">
    <path clip-path="url(#pa2dd50454b)" d="M 375.369081 288.430125 
L 376.364538 288.430125 
L 376.364538 91.996476 
L 375.369081 91.996476 
z
" style="fill:#1f77b4;"/>
   </g>
   <g id="patch_263">
    <path clip-path="url(#pa2dd50454b)" d="M 376.613402 288.430125 
L 377.608858 288.430125 
L 377.608858 91.625846 
L 376.613402 91.625846 
z
" style="fill:#1f77b4;"/>
   </g>
   <g id="patch_264">
    <path clip-path="url(#pa2dd50454b)" d="M 377.857723 288.430125 
L 378.853179 288.430125 
L 378.853179 90.143328 
L 377.857723 90.143328 
z
" style="fill:#1f77b4;"/>
   </g>
   <g id="patch_265">
    <path clip-path="url(#pa2dd50454b)" d="M 379.102043 288.430125 
L 380.0975 288.430125 
L 380.0975 87.548922 
L 379.102043 87.548922 
z
" style="fill:#1f77b4;"/>
   </g>
   <g id="patch_266">
    <path clip-path="url(#pa2dd50454b)" d="M 380.346364 288.430125 
L 381.34182 288.430125 
L 381.34182 81.618849 
L 380.346364 81.618849 
z
" style="fill:#1f77b4;"/>
   </g>
   <g id="patch_267">
    <path clip-path="url(#pa2dd50454b)" d="M 381.590684 288.430125 
L 382.586141 288.430125 
L 382.586141 77.541924 
L 381.590684 77.541924 
z
" style="fill:#1f77b4;"/>
   </g>
   <g id="patch_268">
    <path clip-path="url(#pa2dd50454b)" d="M 382.835005 288.430125 
L 383.830461 288.430125 
L 383.830461 76.430036 
L 382.835005 76.430036 
z
" style="fill:#1f77b4;"/>
   </g>
   <g id="patch_269">
    <path clip-path="url(#pa2dd50454b)" d="M 384.079325 288.430125 
L 385.074782 288.430125 
L 385.074782 74.206259 
L 384.079325 74.206259 
z
" style="fill:#1f77b4;"/>
   </g>
   <g id="patch_270">
    <path clip-path="url(#pa2dd50454b)" d="M 385.323646 288.430125 
L 386.319102 288.430125 
L 386.319102 72.353111 
L 385.323646 72.353111 
z
" style="fill:#1f77b4;"/>
   </g>
   <g id="patch_271">
    <path clip-path="url(#pa2dd50454b)" d="M 386.567966 288.430125 
L 387.563423 288.430125 
L 387.563423 68.276186 
L 386.567966 68.276186 
z
" style="fill:#1f77b4;"/>
   </g>
   <g id="patch_272">
    <path clip-path="url(#pa2dd50454b)" d="M 387.812287 288.430125 
L 388.807743 288.430125 
L 388.807743 64.569891 
L 387.812287 64.569891 
z
" style="fill:#1f77b4;"/>
   </g>
   <g id="patch_273">
    <path clip-path="url(#pa2dd50454b)" d="M 389.056608 288.430125 
L 390.052064 288.430125 
L 390.052064 61.604855 
L 389.056608 61.604855 
z
" style="fill:#1f77b4;"/>
   </g>
   <g id="patch_274">
    <path clip-path="url(#pa2dd50454b)" d="M 390.300928 288.430125 
L 391.296385 288.430125 
L 391.296385 55.304153 
L 390.300928 55.304153 
z
" style="fill:#1f77b4;"/>
   </g>
   <g id="patch_275">
    <path clip-path="url(#pa2dd50454b)" d="M 391.545249 288.430125 
L 392.540705 288.430125 
L 392.540705 53.451005 
L 391.545249 53.451005 
z
" style="fill:#1f77b4;"/>
   </g>
   <g id="patch_276">
    <path clip-path="url(#pa2dd50454b)" d="M 392.789569 288.430125 
L 393.785026 288.430125 
L 393.785026 51.968487 
L 392.789569 51.968487 
z
" style="fill:#1f77b4;"/>
   </g>
   <g id="patch_277">
    <path clip-path="url(#pa2dd50454b)" d="M 394.03389 288.430125 
L 395.029346 288.430125 
L 395.029346 48.632821 
L 394.03389 48.632821 
z
" style="fill:#1f77b4;"/>
   </g>
   <g id="patch_278">
    <path clip-path="url(#pa2dd50454b)" d="M 395.27821 288.430125 
L 396.273667 288.430125 
L 396.273667 44.926526 
L 395.27821 44.926526 
z
" style="fill:#1f77b4;"/>
   </g>
   <g id="patch_279">
    <path clip-path="url(#pa2dd50454b)" d="M 396.522531 288.430125 
L 397.517987 288.430125 
L 397.517987 40.849601 
L 396.522531 40.849601 
z
" style="fill:#1f77b4;"/>
   </g>
   <g id="patch_280">
    <path clip-path="url(#pa2dd50454b)" d="M 397.766851 288.430125 
L 398.762308 288.430125 
L 398.762308 38.996454 
L 397.766851 38.996454 
z
" style="fill:#1f77b4;"/>
   </g>
   <g id="patch_281">
    <path clip-path="url(#pa2dd50454b)" d="M 399.011172 288.430125 
L 400.006628 288.430125 
L 400.006628 36.772677 
L 399.011172 36.772677 
z
" style="fill:#1f77b4;"/>
   </g>
   <g id="patch_282">
    <path clip-path="url(#pa2dd50454b)" d="M 400.255493 288.430125 
L 401.250949 288.430125 
L 401.250949 33.80764 
L 400.255493 33.80764 
z
" style="fill:#1f77b4;"/>
   </g>
   <g id="patch_283">
    <path clip-path="url(#pa2dd50454b)" d="M 401.499813 288.430125 
L 402.49527 288.430125 
L 402.49527 32.695752 
L 401.499813 32.695752 
z
" style="fill:#1f77b4;"/>
   </g>
   <g id="patch_284">
    <path clip-path="url(#pa2dd50454b)" d="M 402.744134 288.430125 
L 403.73959 288.430125 
L 403.73959 31.954493 
L 402.744134 31.954493 
z
" style="fill:#1f77b4;"/>
   </g>
   <g id="patch_285">
    <path clip-path="url(#pa2dd50454b)" d="M 403.988454 288.430125 
L 404.983911 288.430125 
L 404.983911 29.730716 
L 403.988454 29.730716 
z
" style="fill:#1f77b4;"/>
   </g>
   <g id="patch_286">
    <path clip-path="url(#pa2dd50454b)" d="M 405.232775 288.430125 
L 406.228231 288.430125 
L 406.228231 29.360086 
L 405.232775 29.360086 
z
" style="fill:#1f77b4;"/>
   </g>
   <g id="patch_287">
    <path clip-path="url(#pa2dd50454b)" d="M 406.477095 288.430125 
L 407.472552 288.430125 
L 407.472552 27.506938 
L 406.477095 27.506938 
z
" style="fill:#1f77b4;"/>
   </g>
   <g id="patch_288">
    <path clip-path="url(#pa2dd50454b)" d="M 407.721416 288.430125 
L 408.716872 288.430125 
L 408.716872 24.912532 
L 407.721416 24.912532 
z
" style="fill:#1f77b4;"/>
   </g>
   <g id="patch_289">
    <path clip-path="url(#pa2dd50454b)" d="M 408.965736 288.430125 
L 409.961193 288.430125 
L 409.961193 22.318125 
L 408.965736 22.318125 
z
" style="fill:#1f77b4;"/>
   </g>
   <g id="matplotlib.axis_1">
    <g id="xtick_1">
     <g id="line2d_1">
      <defs>
       <path d="M 0 0 
L 0 3.5 
" id="m0d4eae2283" style="stroke:#000000;stroke-width:0.8;"/>
      </defs>
      <g>
       <use style="stroke:#000000;stroke-width:0.8;" x="74.741235" xlink:href="#m0d4eae2283" y="288.430125"/>
      </g>
     </g>
     <g id="text_1">
      <!-- 2020-04 -->
      <g transform="translate(77.50061 337.212937)rotate(-90)scale(0.1 -0.1)">
       <defs>
        <path d="M 19.1875 8.296875 
L 53.609375 8.296875 
L 53.609375 0 
L 7.328125 0 
L 7.328125 8.296875 
Q 12.9375 14.109375 22.625 23.890625 
Q 32.328125 33.6875 34.8125 36.53125 
Q 39.546875 41.84375 41.421875 45.53125 
Q 43.3125 49.21875 43.3125 52.78125 
Q 43.3125 58.59375 39.234375 62.25 
Q 35.15625 65.921875 28.609375 65.921875 
Q 23.96875 65.921875 18.8125 64.3125 
Q 13.671875 62.703125 7.8125 59.421875 
L 7.8125 69.390625 
Q 13.765625 71.78125 18.9375 73 
Q 24.125 74.21875 28.421875 74.21875 
Q 39.75 74.21875 46.484375 68.546875 
Q 53.21875 62.890625 53.21875 53.421875 
Q 53.21875 48.921875 51.53125 44.890625 
Q 49.859375 40.875 45.40625 35.40625 
Q 44.1875 33.984375 37.640625 27.21875 
Q 31.109375 20.453125 19.1875 8.296875 
z
" id="DejaVuSans-50"/>
        <path d="M 31.78125 66.40625 
Q 24.171875 66.40625 20.328125 58.90625 
Q 16.5 51.421875 16.5 36.375 
Q 16.5 21.390625 20.328125 13.890625 
Q 24.171875 6.390625 31.78125 6.390625 
Q 39.453125 6.390625 43.28125 13.890625 
Q 47.125 21.390625 47.125 36.375 
Q 47.125 51.421875 43.28125 58.90625 
Q 39.453125 66.40625 31.78125 66.40625 
z
M 31.78125 74.21875 
Q 44.046875 74.21875 50.515625 64.515625 
Q 56.984375 54.828125 56.984375 36.375 
Q 56.984375 17.96875 50.515625 8.265625 
Q 44.046875 -1.421875 31.78125 -1.421875 
Q 19.53125 -1.421875 13.0625 8.265625 
Q 6.59375 17.96875 6.59375 36.375 
Q 6.59375 54.828125 13.0625 64.515625 
Q 19.53125 74.21875 31.78125 74.21875 
z
" id="DejaVuSans-48"/>
        <path d="M 4.890625 31.390625 
L 31.203125 31.390625 
L 31.203125 23.390625 
L 4.890625 23.390625 
z
" id="DejaVuSans-45"/>
        <path d="M 37.796875 64.3125 
L 12.890625 25.390625 
L 37.796875 25.390625 
z
M 35.203125 72.90625 
L 47.609375 72.90625 
L 47.609375 25.390625 
L 58.015625 25.390625 
L 58.015625 17.1875 
L 47.609375 17.1875 
L 47.609375 0 
L 37.796875 0 
L 37.796875 17.1875 
L 4.890625 17.1875 
L 4.890625 26.703125 
z
" id="DejaVuSans-52"/>
       </defs>
       <use xlink:href="#DejaVuSans-50"/>
       <use x="63.623047" xlink:href="#DejaVuSans-48"/>
       <use x="127.246094" xlink:href="#DejaVuSans-50"/>
       <use x="190.869141" xlink:href="#DejaVuSans-48"/>
       <use x="254.492188" xlink:href="#DejaVuSans-45"/>
       <use x="290.576172" xlink:href="#DejaVuSans-48"/>
       <use x="354.199219" xlink:href="#DejaVuSans-52"/>
      </g>
     </g>
    </g>
    <g id="xtick_2">
     <g id="line2d_2">
      <g>
       <use style="stroke:#000000;stroke-width:0.8;" x="112.070851" xlink:href="#m0d4eae2283" y="288.430125"/>
      </g>
     </g>
     <g id="text_2">
      <!-- 2020-05 -->
      <g transform="translate(114.830226 337.212937)rotate(-90)scale(0.1 -0.1)">
       <defs>
        <path d="M 10.796875 72.90625 
L 49.515625 72.90625 
L 49.515625 64.59375 
L 19.828125 64.59375 
L 19.828125 46.734375 
Q 21.96875 47.46875 24.109375 47.828125 
Q 26.265625 48.1875 28.421875 48.1875 
Q 40.625 48.1875 47.75 41.5 
Q 54.890625 34.8125 54.890625 23.390625 
Q 54.890625 11.625 47.5625 5.09375 
Q 40.234375 -1.421875 26.90625 -1.421875 
Q 22.3125 -1.421875 17.546875 -0.640625 
Q 12.796875 0.140625 7.71875 1.703125 
L 7.71875 11.625 
Q 12.109375 9.234375 16.796875 8.0625 
Q 21.484375 6.890625 26.703125 6.890625 
Q 35.15625 6.890625 40.078125 11.328125 
Q 45.015625 15.765625 45.015625 23.390625 
Q 45.015625 31 40.078125 35.4375 
Q 35.15625 39.890625 26.703125 39.890625 
Q 22.75 39.890625 18.8125 39.015625 
Q 14.890625 38.140625 10.796875 36.28125 
z
" id="DejaVuSans-53"/>
       </defs>
       <use xlink:href="#DejaVuSans-50"/>
       <use x="63.623047" xlink:href="#DejaVuSans-48"/>
       <use x="127.246094" xlink:href="#DejaVuSans-50"/>
       <use x="190.869141" xlink:href="#DejaVuSans-48"/>
       <use x="254.492188" xlink:href="#DejaVuSans-45"/>
       <use x="290.576172" xlink:href="#DejaVuSans-48"/>
       <use x="354.199219" xlink:href="#DejaVuSans-53"/>
      </g>
     </g>
    </g>
    <g id="xtick_3">
     <g id="line2d_3">
      <g>
       <use style="stroke:#000000;stroke-width:0.8;" x="150.644789" xlink:href="#m0d4eae2283" y="288.430125"/>
      </g>
     </g>
     <g id="text_3">
      <!-- 2020-06 -->
      <g transform="translate(153.404164 337.212937)rotate(-90)scale(0.1 -0.1)">
       <defs>
        <path d="M 33.015625 40.375 
Q 26.375 40.375 22.484375 35.828125 
Q 18.609375 31.296875 18.609375 23.390625 
Q 18.609375 15.53125 22.484375 10.953125 
Q 26.375 6.390625 33.015625 6.390625 
Q 39.65625 6.390625 43.53125 10.953125 
Q 47.40625 15.53125 47.40625 23.390625 
Q 47.40625 31.296875 43.53125 35.828125 
Q 39.65625 40.375 33.015625 40.375 
z
M 52.59375 71.296875 
L 52.59375 62.3125 
Q 48.875 64.0625 45.09375 64.984375 
Q 41.3125 65.921875 37.59375 65.921875 
Q 27.828125 65.921875 22.671875 59.328125 
Q 17.53125 52.734375 16.796875 39.40625 
Q 19.671875 43.65625 24.015625 45.921875 
Q 28.375 48.1875 33.59375 48.1875 
Q 44.578125 48.1875 50.953125 41.515625 
Q 57.328125 34.859375 57.328125 23.390625 
Q 57.328125 12.15625 50.6875 5.359375 
Q 44.046875 -1.421875 33.015625 -1.421875 
Q 20.359375 -1.421875 13.671875 8.265625 
Q 6.984375 17.96875 6.984375 36.375 
Q 6.984375 53.65625 15.1875 63.9375 
Q 23.390625 74.21875 37.203125 74.21875 
Q 40.921875 74.21875 44.703125 73.484375 
Q 48.484375 72.75 52.59375 71.296875 
z
" id="DejaVuSans-54"/>
       </defs>
       <use xlink:href="#DejaVuSans-50"/>
       <use x="63.623047" xlink:href="#DejaVuSans-48"/>
       <use x="127.246094" xlink:href="#DejaVuSans-50"/>
       <use x="190.869141" xlink:href="#DejaVuSans-48"/>
       <use x="254.492188" xlink:href="#DejaVuSans-45"/>
       <use x="290.576172" xlink:href="#DejaVuSans-48"/>
       <use x="354.199219" xlink:href="#DejaVuSans-54"/>
      </g>
     </g>
    </g>
    <g id="xtick_4">
     <g id="line2d_4">
      <g>
       <use style="stroke:#000000;stroke-width:0.8;" x="187.974405" xlink:href="#m0d4eae2283" y="288.430125"/>
      </g>
     </g>
     <g id="text_4">
      <!-- 2020-07 -->
      <g transform="translate(190.73378 337.212937)rotate(-90)scale(0.1 -0.1)">
       <defs>
        <path d="M 8.203125 72.90625 
L 55.078125 72.90625 
L 55.078125 68.703125 
L 28.609375 0 
L 18.3125 0 
L 43.21875 64.59375 
L 8.203125 64.59375 
z
" id="DejaVuSans-55"/>
       </defs>
       <use xlink:href="#DejaVuSans-50"/>
       <use x="63.623047" xlink:href="#DejaVuSans-48"/>
       <use x="127.246094" xlink:href="#DejaVuSans-50"/>
       <use x="190.869141" xlink:href="#DejaVuSans-48"/>
       <use x="254.492188" xlink:href="#DejaVuSans-45"/>
       <use x="290.576172" xlink:href="#DejaVuSans-48"/>
       <use x="354.199219" xlink:href="#DejaVuSans-55"/>
      </g>
     </g>
    </g>
    <g id="xtick_5">
     <g id="line2d_5">
      <g>
       <use style="stroke:#000000;stroke-width:0.8;" x="226.548343" xlink:href="#m0d4eae2283" y="288.430125"/>
      </g>
     </g>
     <g id="text_5">
      <!-- 2020-08 -->
      <g transform="translate(229.307718 337.212937)rotate(-90)scale(0.1 -0.1)">
       <defs>
        <path d="M 31.78125 34.625 
Q 24.75 34.625 20.71875 30.859375 
Q 16.703125 27.09375 16.703125 20.515625 
Q 16.703125 13.921875 20.71875 10.15625 
Q 24.75 6.390625 31.78125 6.390625 
Q 38.8125 6.390625 42.859375 10.171875 
Q 46.921875 13.96875 46.921875 20.515625 
Q 46.921875 27.09375 42.890625 30.859375 
Q 38.875 34.625 31.78125 34.625 
z
M 21.921875 38.8125 
Q 15.578125 40.375 12.03125 44.71875 
Q 8.5 49.078125 8.5 55.328125 
Q 8.5 64.0625 14.71875 69.140625 
Q 20.953125 74.21875 31.78125 74.21875 
Q 42.671875 74.21875 48.875 69.140625 
Q 55.078125 64.0625 55.078125 55.328125 
Q 55.078125 49.078125 51.53125 44.71875 
Q 48 40.375 41.703125 38.8125 
Q 48.828125 37.15625 52.796875 32.3125 
Q 56.78125 27.484375 56.78125 20.515625 
Q 56.78125 9.90625 50.3125 4.234375 
Q 43.84375 -1.421875 31.78125 -1.421875 
Q 19.734375 -1.421875 13.25 4.234375 
Q 6.78125 9.90625 6.78125 20.515625 
Q 6.78125 27.484375 10.78125 32.3125 
Q 14.796875 37.15625 21.921875 38.8125 
z
M 18.3125 54.390625 
Q 18.3125 48.734375 21.84375 45.5625 
Q 25.390625 42.390625 31.78125 42.390625 
Q 38.140625 42.390625 41.71875 45.5625 
Q 45.3125 48.734375 45.3125 54.390625 
Q 45.3125 60.0625 41.71875 63.234375 
Q 38.140625 66.40625 31.78125 66.40625 
Q 25.390625 66.40625 21.84375 63.234375 
Q 18.3125 60.0625 18.3125 54.390625 
z
" id="DejaVuSans-56"/>
       </defs>
       <use xlink:href="#DejaVuSans-50"/>
       <use x="63.623047" xlink:href="#DejaVuSans-48"/>
       <use x="127.246094" xlink:href="#DejaVuSans-50"/>
       <use x="190.869141" xlink:href="#DejaVuSans-48"/>
       <use x="254.492188" xlink:href="#DejaVuSans-45"/>
       <use x="290.576172" xlink:href="#DejaVuSans-48"/>
       <use x="354.199219" xlink:href="#DejaVuSans-56"/>
      </g>
     </g>
    </g>
    <g id="xtick_6">
     <g id="line2d_6">
      <g>
       <use style="stroke:#000000;stroke-width:0.8;" x="265.12228" xlink:href="#m0d4eae2283" y="288.430125"/>
      </g>
     </g>
     <g id="text_6">
      <!-- 2020-09 -->
      <g transform="translate(267.881655 337.212937)rotate(-90)scale(0.1 -0.1)">
       <defs>
        <path d="M 10.984375 1.515625 
L 10.984375 10.5 
Q 14.703125 8.734375 18.5 7.8125 
Q 22.3125 6.890625 25.984375 6.890625 
Q 35.75 6.890625 40.890625 13.453125 
Q 46.046875 20.015625 46.78125 33.40625 
Q 43.953125 29.203125 39.59375 26.953125 
Q 35.25 24.703125 29.984375 24.703125 
Q 19.046875 24.703125 12.671875 31.3125 
Q 6.296875 37.9375 6.296875 49.421875 
Q 6.296875 60.640625 12.9375 67.421875 
Q 19.578125 74.21875 30.609375 74.21875 
Q 43.265625 74.21875 49.921875 64.515625 
Q 56.59375 54.828125 56.59375 36.375 
Q 56.59375 19.140625 48.40625 8.859375 
Q 40.234375 -1.421875 26.421875 -1.421875 
Q 22.703125 -1.421875 18.890625 -0.6875 
Q 15.09375 0.046875 10.984375 1.515625 
z
M 30.609375 32.421875 
Q 37.25 32.421875 41.125 36.953125 
Q 45.015625 41.5 45.015625 49.421875 
Q 45.015625 57.28125 41.125 61.84375 
Q 37.25 66.40625 30.609375 66.40625 
Q 23.96875 66.40625 20.09375 61.84375 
Q 16.21875 57.28125 16.21875 49.421875 
Q 16.21875 41.5 20.09375 36.953125 
Q 23.96875 32.421875 30.609375 32.421875 
z
" id="DejaVuSans-57"/>
       </defs>
       <use xlink:href="#DejaVuSans-50"/>
       <use x="63.623047" xlink:href="#DejaVuSans-48"/>
       <use x="127.246094" xlink:href="#DejaVuSans-50"/>
       <use x="190.869141" xlink:href="#DejaVuSans-48"/>
       <use x="254.492188" xlink:href="#DejaVuSans-45"/>
       <use x="290.576172" xlink:href="#DejaVuSans-48"/>
       <use x="354.199219" xlink:href="#DejaVuSans-57"/>
      </g>
     </g>
    </g>
    <g id="xtick_7">
     <g id="line2d_7">
      <g>
       <use style="stroke:#000000;stroke-width:0.8;" x="302.451897" xlink:href="#m0d4eae2283" y="288.430125"/>
      </g>
     </g>
     <g id="text_7">
      <!-- 2020-10 -->
      <g transform="translate(305.211272 337.212937)rotate(-90)scale(0.1 -0.1)">
       <defs>
        <path d="M 12.40625 8.296875 
L 28.515625 8.296875 
L 28.515625 63.921875 
L 10.984375 60.40625 
L 10.984375 69.390625 
L 28.421875 72.90625 
L 38.28125 72.90625 
L 38.28125 8.296875 
L 54.390625 8.296875 
L 54.390625 0 
L 12.40625 0 
z
" id="DejaVuSans-49"/>
       </defs>
       <use xlink:href="#DejaVuSans-50"/>
       <use x="63.623047" xlink:href="#DejaVuSans-48"/>
       <use x="127.246094" xlink:href="#DejaVuSans-50"/>
       <use x="190.869141" xlink:href="#DejaVuSans-48"/>
       <use x="254.492188" xlink:href="#DejaVuSans-45"/>
       <use x="290.576172" xlink:href="#DejaVuSans-49"/>
       <use x="354.199219" xlink:href="#DejaVuSans-48"/>
      </g>
     </g>
    </g>
    <g id="xtick_8">
     <g id="line2d_8">
      <g>
       <use style="stroke:#000000;stroke-width:0.8;" x="341.025834" xlink:href="#m0d4eae2283" y="288.430125"/>
      </g>
     </g>
     <g id="text_8">
      <!-- 2020-11 -->
      <g transform="translate(343.785209 337.212937)rotate(-90)scale(0.1 -0.1)">
       <use xlink:href="#DejaVuSans-50"/>
       <use x="63.623047" xlink:href="#DejaVuSans-48"/>
       <use x="127.246094" xlink:href="#DejaVuSans-50"/>
       <use x="190.869141" xlink:href="#DejaVuSans-48"/>
       <use x="254.492188" xlink:href="#DejaVuSans-45"/>
       <use x="290.576172" xlink:href="#DejaVuSans-49"/>
       <use x="354.199219" xlink:href="#DejaVuSans-49"/>
      </g>
     </g>
    </g>
    <g id="xtick_9">
     <g id="line2d_9">
      <g>
       <use style="stroke:#000000;stroke-width:0.8;" x="378.355451" xlink:href="#m0d4eae2283" y="288.430125"/>
      </g>
     </g>
     <g id="text_9">
      <!-- 2020-12 -->
      <g transform="translate(381.114826 337.212937)rotate(-90)scale(0.1 -0.1)">
       <use xlink:href="#DejaVuSans-50"/>
       <use x="63.623047" xlink:href="#DejaVuSans-48"/>
       <use x="127.246094" xlink:href="#DejaVuSans-50"/>
       <use x="190.869141" xlink:href="#DejaVuSans-48"/>
       <use x="254.492188" xlink:href="#DejaVuSans-45"/>
       <use x="290.576172" xlink:href="#DejaVuSans-49"/>
       <use x="354.199219" xlink:href="#DejaVuSans-50"/>
      </g>
     </g>
    </g>
    <g id="text_10">
     <!-- date -->
     <g transform="translate(220.250625 354.811375)scale(0.1 -0.1)">
      <defs>
       <path d="M 45.40625 46.390625 
L 45.40625 75.984375 
L 54.390625 75.984375 
L 54.390625 0 
L 45.40625 0 
L 45.40625 8.203125 
Q 42.578125 3.328125 38.25 0.953125 
Q 33.9375 -1.421875 27.875 -1.421875 
Q 17.96875 -1.421875 11.734375 6.484375 
Q 5.515625 14.40625 5.515625 27.296875 
Q 5.515625 40.1875 11.734375 48.09375 
Q 17.96875 56 27.875 56 
Q 33.9375 56 38.25 53.625 
Q 42.578125 51.265625 45.40625 46.390625 
z
M 14.796875 27.296875 
Q 14.796875 17.390625 18.875 11.75 
Q 22.953125 6.109375 30.078125 6.109375 
Q 37.203125 6.109375 41.296875 11.75 
Q 45.40625 17.390625 45.40625 27.296875 
Q 45.40625 37.203125 41.296875 42.84375 
Q 37.203125 48.484375 30.078125 48.484375 
Q 22.953125 48.484375 18.875 42.84375 
Q 14.796875 37.203125 14.796875 27.296875 
z
" id="DejaVuSans-100"/>
       <path d="M 34.28125 27.484375 
Q 23.390625 27.484375 19.1875 25 
Q 14.984375 22.515625 14.984375 16.5 
Q 14.984375 11.71875 18.140625 8.90625 
Q 21.296875 6.109375 26.703125 6.109375 
Q 34.1875 6.109375 38.703125 11.40625 
Q 43.21875 16.703125 43.21875 25.484375 
L 43.21875 27.484375 
z
M 52.203125 31.203125 
L 52.203125 0 
L 43.21875 0 
L 43.21875 8.296875 
Q 40.140625 3.328125 35.546875 0.953125 
Q 30.953125 -1.421875 24.3125 -1.421875 
Q 15.921875 -1.421875 10.953125 3.296875 
Q 6 8.015625 6 15.921875 
Q 6 25.140625 12.171875 29.828125 
Q 18.359375 34.515625 30.609375 34.515625 
L 43.21875 34.515625 
L 43.21875 35.40625 
Q 43.21875 41.609375 39.140625 45 
Q 35.0625 48.390625 27.6875 48.390625 
Q 23 48.390625 18.546875 47.265625 
Q 14.109375 46.140625 10.015625 43.890625 
L 10.015625 52.203125 
Q 14.9375 54.109375 19.578125 55.046875 
Q 24.21875 56 28.609375 56 
Q 40.484375 56 46.34375 49.84375 
Q 52.203125 43.703125 52.203125 31.203125 
z
" id="DejaVuSans-97"/>
       <path d="M 18.3125 70.21875 
L 18.3125 54.6875 
L 36.8125 54.6875 
L 36.8125 47.703125 
L 18.3125 47.703125 
L 18.3125 18.015625 
Q 18.3125 11.328125 20.140625 9.421875 
Q 21.96875 7.515625 27.59375 7.515625 
L 36.8125 7.515625 
L 36.8125 0 
L 27.59375 0 
Q 17.1875 0 13.234375 3.875 
Q 9.28125 7.765625 9.28125 18.015625 
L 9.28125 47.703125 
L 2.6875 47.703125 
L 2.6875 54.6875 
L 9.28125 54.6875 
L 9.28125 70.21875 
z
" id="DejaVuSans-116"/>
       <path d="M 56.203125 29.59375 
L 56.203125 25.203125 
L 14.890625 25.203125 
Q 15.484375 15.921875 20.484375 11.0625 
Q 25.484375 6.203125 34.421875 6.203125 
Q 39.59375 6.203125 44.453125 7.46875 
Q 49.3125 8.734375 54.109375 11.28125 
L 54.109375 2.78125 
Q 49.265625 0.734375 44.1875 -0.34375 
Q 39.109375 -1.421875 33.890625 -1.421875 
Q 20.796875 -1.421875 13.15625 6.1875 
Q 5.515625 13.8125 5.515625 26.8125 
Q 5.515625 40.234375 12.765625 48.109375 
Q 20.015625 56 32.328125 56 
Q 43.359375 56 49.78125 48.890625 
Q 56.203125 41.796875 56.203125 29.59375 
z
M 47.21875 32.234375 
Q 47.125 39.59375 43.09375 43.984375 
Q 39.0625 48.390625 32.421875 48.390625 
Q 24.90625 48.390625 20.390625 44.140625 
Q 15.875 39.890625 15.1875 32.171875 
z
" id="DejaVuSans-101"/>
      </defs>
      <use xlink:href="#DejaVuSans-100"/>
      <use x="63.476562" xlink:href="#DejaVuSans-97"/>
      <use x="124.755859" xlink:href="#DejaVuSans-116"/>
      <use x="163.964844" xlink:href="#DejaVuSans-101"/>
     </g>
    </g>
   </g>
   <g id="matplotlib.axis_2">
    <g id="ytick_1">
     <g id="line2d_10">
      <defs>
       <path d="M 0 0 
L -3.5 0 
" id="m9a791af6b4" style="stroke:#000000;stroke-width:0.8;"/>
      </defs>
      <g>
       <use style="stroke:#000000;stroke-width:0.8;" x="52.965625" xlink:href="#m9a791af6b4" y="288.430125"/>
      </g>
     </g>
     <g id="text_11">
      <!-- 0 -->
      <g transform="translate(39.603125 292.229344)scale(0.1 -0.1)">
       <use xlink:href="#DejaVuSans-48"/>
      </g>
     </g>
    </g>
    <g id="ytick_2">
     <g id="line2d_11">
      <g>
       <use style="stroke:#000000;stroke-width:0.8;" x="52.965625" xlink:href="#m9a791af6b4" y="251.367172"/>
      </g>
     </g>
     <g id="text_12">
      <!-- 100 -->
      <g transform="translate(26.878125 255.166391)scale(0.1 -0.1)">
       <use xlink:href="#DejaVuSans-49"/>
       <use x="63.623047" xlink:href="#DejaVuSans-48"/>
       <use x="127.246094" xlink:href="#DejaVuSans-48"/>
      </g>
     </g>
    </g>
    <g id="ytick_3">
     <g id="line2d_12">
      <g>
       <use style="stroke:#000000;stroke-width:0.8;" x="52.965625" xlink:href="#m9a791af6b4" y="214.30422"/>
      </g>
     </g>
     <g id="text_13">
      <!-- 200 -->
      <g transform="translate(26.878125 218.103438)scale(0.1 -0.1)">
       <use xlink:href="#DejaVuSans-50"/>
       <use x="63.623047" xlink:href="#DejaVuSans-48"/>
       <use x="127.246094" xlink:href="#DejaVuSans-48"/>
      </g>
     </g>
    </g>
    <g id="ytick_4">
     <g id="line2d_13">
      <g>
       <use style="stroke:#000000;stroke-width:0.8;" x="52.965625" xlink:href="#m9a791af6b4" y="177.241267"/>
      </g>
     </g>
     <g id="text_14">
      <!-- 300 -->
      <g transform="translate(26.878125 181.040486)scale(0.1 -0.1)">
       <defs>
        <path d="M 40.578125 39.3125 
Q 47.65625 37.796875 51.625 33 
Q 55.609375 28.21875 55.609375 21.1875 
Q 55.609375 10.40625 48.1875 4.484375 
Q 40.765625 -1.421875 27.09375 -1.421875 
Q 22.515625 -1.421875 17.65625 -0.515625 
Q 12.796875 0.390625 7.625 2.203125 
L 7.625 11.71875 
Q 11.71875 9.328125 16.59375 8.109375 
Q 21.484375 6.890625 26.8125 6.890625 
Q 36.078125 6.890625 40.9375 10.546875 
Q 45.796875 14.203125 45.796875 21.1875 
Q 45.796875 27.640625 41.28125 31.265625 
Q 36.765625 34.90625 28.71875 34.90625 
L 20.21875 34.90625 
L 20.21875 43.015625 
L 29.109375 43.015625 
Q 36.375 43.015625 40.234375 45.921875 
Q 44.09375 48.828125 44.09375 54.296875 
Q 44.09375 59.90625 40.109375 62.90625 
Q 36.140625 65.921875 28.71875 65.921875 
Q 24.65625 65.921875 20.015625 65.03125 
Q 15.375 64.15625 9.8125 62.3125 
L 9.8125 71.09375 
Q 15.4375 72.65625 20.34375 73.4375 
Q 25.25 74.21875 29.59375 74.21875 
Q 40.828125 74.21875 47.359375 69.109375 
Q 53.90625 64.015625 53.90625 55.328125 
Q 53.90625 49.265625 50.4375 45.09375 
Q 46.96875 40.921875 40.578125 39.3125 
z
" id="DejaVuSans-51"/>
       </defs>
       <use xlink:href="#DejaVuSans-51"/>
       <use x="63.623047" xlink:href="#DejaVuSans-48"/>
       <use x="127.246094" xlink:href="#DejaVuSans-48"/>
      </g>
     </g>
    </g>
    <g id="ytick_5">
     <g id="line2d_14">
      <g>
       <use style="stroke:#000000;stroke-width:0.8;" x="52.965625" xlink:href="#m9a791af6b4" y="140.178314"/>
      </g>
     </g>
     <g id="text_15">
      <!-- 400 -->
      <g transform="translate(26.878125 143.977533)scale(0.1 -0.1)">
       <use xlink:href="#DejaVuSans-52"/>
       <use x="63.623047" xlink:href="#DejaVuSans-48"/>
       <use x="127.246094" xlink:href="#DejaVuSans-48"/>
      </g>
     </g>
    </g>
    <g id="ytick_6">
     <g id="line2d_15">
      <g>
       <use style="stroke:#000000;stroke-width:0.8;" x="52.965625" xlink:href="#m9a791af6b4" y="103.115362"/>
      </g>
     </g>
     <g id="text_16">
      <!-- 500 -->
      <g transform="translate(26.878125 106.914581)scale(0.1 -0.1)">
       <use xlink:href="#DejaVuSans-53"/>
       <use x="63.623047" xlink:href="#DejaVuSans-48"/>
       <use x="127.246094" xlink:href="#DejaVuSans-48"/>
      </g>
     </g>
    </g>
    <g id="ytick_7">
     <g id="line2d_16">
      <g>
       <use style="stroke:#000000;stroke-width:0.8;" x="52.965625" xlink:href="#m9a791af6b4" y="66.052409"/>
      </g>
     </g>
     <g id="text_17">
      <!-- 600 -->
      <g transform="translate(26.878125 69.851628)scale(0.1 -0.1)">
       <use xlink:href="#DejaVuSans-54"/>
       <use x="63.623047" xlink:href="#DejaVuSans-48"/>
       <use x="127.246094" xlink:href="#DejaVuSans-48"/>
      </g>
     </g>
    </g>
    <g id="ytick_8">
     <g id="line2d_17">
      <g>
       <use style="stroke:#000000;stroke-width:0.8;" x="52.965625" xlink:href="#m9a791af6b4" y="28.989456"/>
      </g>
     </g>
     <g id="text_18">
      <!-- 700 -->
      <g transform="translate(26.878125 32.788675)scale(0.1 -0.1)">
       <use xlink:href="#DejaVuSans-55"/>
       <use x="63.623047" xlink:href="#DejaVuSans-48"/>
       <use x="127.246094" xlink:href="#DejaVuSans-48"/>
      </g>
     </g>
    </g>
    <g id="text_19">
     <!-- cumulative number of corona fatalities -->
     <g transform="translate(14.798438 252.560062)rotate(-90)scale(0.1 -0.1)">
      <defs>
       <path d="M 48.78125 52.59375 
L 48.78125 44.1875 
Q 44.96875 46.296875 41.140625 47.34375 
Q 37.3125 48.390625 33.40625 48.390625 
Q 24.65625 48.390625 19.8125 42.84375 
Q 14.984375 37.3125 14.984375 27.296875 
Q 14.984375 17.28125 19.8125 11.734375 
Q 24.65625 6.203125 33.40625 6.203125 
Q 37.3125 6.203125 41.140625 7.25 
Q 44.96875 8.296875 48.78125 10.40625 
L 48.78125 2.09375 
Q 45.015625 0.34375 40.984375 -0.53125 
Q 36.96875 -1.421875 32.421875 -1.421875 
Q 20.0625 -1.421875 12.78125 6.34375 
Q 5.515625 14.109375 5.515625 27.296875 
Q 5.515625 40.671875 12.859375 48.328125 
Q 20.21875 56 33.015625 56 
Q 37.15625 56 41.109375 55.140625 
Q 45.0625 54.296875 48.78125 52.59375 
z
" id="DejaVuSans-99"/>
       <path d="M 8.5 21.578125 
L 8.5 54.6875 
L 17.484375 54.6875 
L 17.484375 21.921875 
Q 17.484375 14.15625 20.5 10.265625 
Q 23.53125 6.390625 29.59375 6.390625 
Q 36.859375 6.390625 41.078125 11.03125 
Q 45.3125 15.671875 45.3125 23.6875 
L 45.3125 54.6875 
L 54.296875 54.6875 
L 54.296875 0 
L 45.3125 0 
L 45.3125 8.40625 
Q 42.046875 3.421875 37.71875 1 
Q 33.40625 -1.421875 27.6875 -1.421875 
Q 18.265625 -1.421875 13.375 4.4375 
Q 8.5 10.296875 8.5 21.578125 
z
M 31.109375 56 
z
" id="DejaVuSans-117"/>
       <path d="M 52 44.1875 
Q 55.375 50.25 60.0625 53.125 
Q 64.75 56 71.09375 56 
Q 79.640625 56 84.28125 50.015625 
Q 88.921875 44.046875 88.921875 33.015625 
L 88.921875 0 
L 79.890625 0 
L 79.890625 32.71875 
Q 79.890625 40.578125 77.09375 44.375 
Q 74.3125 48.1875 68.609375 48.1875 
Q 61.625 48.1875 57.5625 43.546875 
Q 53.515625 38.921875 53.515625 30.90625 
L 53.515625 0 
L 44.484375 0 
L 44.484375 32.71875 
Q 44.484375 40.625 41.703125 44.40625 
Q 38.921875 48.1875 33.109375 48.1875 
Q 26.21875 48.1875 22.15625 43.53125 
Q 18.109375 38.875 18.109375 30.90625 
L 18.109375 0 
L 9.078125 0 
L 9.078125 54.6875 
L 18.109375 54.6875 
L 18.109375 46.1875 
Q 21.1875 51.21875 25.484375 53.609375 
Q 29.78125 56 35.6875 56 
Q 41.65625 56 45.828125 52.96875 
Q 50 49.953125 52 44.1875 
z
" id="DejaVuSans-109"/>
       <path d="M 9.421875 75.984375 
L 18.40625 75.984375 
L 18.40625 0 
L 9.421875 0 
z
" id="DejaVuSans-108"/>
       <path d="M 9.421875 54.6875 
L 18.40625 54.6875 
L 18.40625 0 
L 9.421875 0 
z
M 9.421875 75.984375 
L 18.40625 75.984375 
L 18.40625 64.59375 
L 9.421875 64.59375 
z
" id="DejaVuSans-105"/>
       <path d="M 2.984375 54.6875 
L 12.5 54.6875 
L 29.59375 8.796875 
L 46.6875 54.6875 
L 56.203125 54.6875 
L 35.6875 0 
L 23.484375 0 
z
" id="DejaVuSans-118"/>
       <path id="DejaVuSans-32"/>
       <path d="M 54.890625 33.015625 
L 54.890625 0 
L 45.90625 0 
L 45.90625 32.71875 
Q 45.90625 40.484375 42.875 44.328125 
Q 39.84375 48.1875 33.796875 48.1875 
Q 26.515625 48.1875 22.3125 43.546875 
Q 18.109375 38.921875 18.109375 30.90625 
L 18.109375 0 
L 9.078125 0 
L 9.078125 54.6875 
L 18.109375 54.6875 
L 18.109375 46.1875 
Q 21.34375 51.125 25.703125 53.5625 
Q 30.078125 56 35.796875 56 
Q 45.21875 56 50.046875 50.171875 
Q 54.890625 44.34375 54.890625 33.015625 
z
" id="DejaVuSans-110"/>
       <path d="M 48.6875 27.296875 
Q 48.6875 37.203125 44.609375 42.84375 
Q 40.53125 48.484375 33.40625 48.484375 
Q 26.265625 48.484375 22.1875 42.84375 
Q 18.109375 37.203125 18.109375 27.296875 
Q 18.109375 17.390625 22.1875 11.75 
Q 26.265625 6.109375 33.40625 6.109375 
Q 40.53125 6.109375 44.609375 11.75 
Q 48.6875 17.390625 48.6875 27.296875 
z
M 18.109375 46.390625 
Q 20.953125 51.265625 25.265625 53.625 
Q 29.59375 56 35.59375 56 
Q 45.5625 56 51.78125 48.09375 
Q 58.015625 40.1875 58.015625 27.296875 
Q 58.015625 14.40625 51.78125 6.484375 
Q 45.5625 -1.421875 35.59375 -1.421875 
Q 29.59375 -1.421875 25.265625 0.953125 
Q 20.953125 3.328125 18.109375 8.203125 
L 18.109375 0 
L 9.078125 0 
L 9.078125 75.984375 
L 18.109375 75.984375 
z
" id="DejaVuSans-98"/>
       <path d="M 41.109375 46.296875 
Q 39.59375 47.171875 37.8125 47.578125 
Q 36.03125 48 33.890625 48 
Q 26.265625 48 22.1875 43.046875 
Q 18.109375 38.09375 18.109375 28.8125 
L 18.109375 0 
L 9.078125 0 
L 9.078125 54.6875 
L 18.109375 54.6875 
L 18.109375 46.1875 
Q 20.953125 51.171875 25.484375 53.578125 
Q 30.03125 56 36.53125 56 
Q 37.453125 56 38.578125 55.875 
Q 39.703125 55.765625 41.0625 55.515625 
z
" id="DejaVuSans-114"/>
       <path d="M 30.609375 48.390625 
Q 23.390625 48.390625 19.1875 42.75 
Q 14.984375 37.109375 14.984375 27.296875 
Q 14.984375 17.484375 19.15625 11.84375 
Q 23.34375 6.203125 30.609375 6.203125 
Q 37.796875 6.203125 41.984375 11.859375 
Q 46.1875 17.53125 46.1875 27.296875 
Q 46.1875 37.015625 41.984375 42.703125 
Q 37.796875 48.390625 30.609375 48.390625 
z
M 30.609375 56 
Q 42.328125 56 49.015625 48.375 
Q 55.71875 40.765625 55.71875 27.296875 
Q 55.71875 13.875 49.015625 6.21875 
Q 42.328125 -1.421875 30.609375 -1.421875 
Q 18.84375 -1.421875 12.171875 6.21875 
Q 5.515625 13.875 5.515625 27.296875 
Q 5.515625 40.765625 12.171875 48.375 
Q 18.84375 56 30.609375 56 
z
" id="DejaVuSans-111"/>
       <path d="M 37.109375 75.984375 
L 37.109375 68.5 
L 28.515625 68.5 
Q 23.6875 68.5 21.796875 66.546875 
Q 19.921875 64.59375 19.921875 59.515625 
L 19.921875 54.6875 
L 34.71875 54.6875 
L 34.71875 47.703125 
L 19.921875 47.703125 
L 19.921875 0 
L 10.890625 0 
L 10.890625 47.703125 
L 2.296875 47.703125 
L 2.296875 54.6875 
L 10.890625 54.6875 
L 10.890625 58.5 
Q 10.890625 67.625 15.140625 71.796875 
Q 19.390625 75.984375 28.609375 75.984375 
z
" id="DejaVuSans-102"/>
       <path d="M 44.28125 53.078125 
L 44.28125 44.578125 
Q 40.484375 46.53125 36.375 47.5 
Q 32.28125 48.484375 27.875 48.484375 
Q 21.1875 48.484375 17.84375 46.4375 
Q 14.5 44.390625 14.5 40.28125 
Q 14.5 37.15625 16.890625 35.375 
Q 19.28125 33.59375 26.515625 31.984375 
L 29.59375 31.296875 
Q 39.15625 29.25 43.1875 25.515625 
Q 47.21875 21.78125 47.21875 15.09375 
Q 47.21875 7.46875 41.1875 3.015625 
Q 35.15625 -1.421875 24.609375 -1.421875 
Q 20.21875 -1.421875 15.453125 -0.5625 
Q 10.6875 0.296875 5.421875 2 
L 5.421875 11.28125 
Q 10.40625 8.6875 15.234375 7.390625 
Q 20.0625 6.109375 24.8125 6.109375 
Q 31.15625 6.109375 34.5625 8.28125 
Q 37.984375 10.453125 37.984375 14.40625 
Q 37.984375 18.0625 35.515625 20.015625 
Q 33.0625 21.96875 24.703125 23.78125 
L 21.578125 24.515625 
Q 13.234375 26.265625 9.515625 29.90625 
Q 5.8125 33.546875 5.8125 39.890625 
Q 5.8125 47.609375 11.28125 51.796875 
Q 16.75 56 26.8125 56 
Q 31.78125 56 36.171875 55.265625 
Q 40.578125 54.546875 44.28125 53.078125 
z
" id="DejaVuSans-115"/>
      </defs>
      <use xlink:href="#DejaVuSans-99"/>
      <use x="54.980469" xlink:href="#DejaVuSans-117"/>
      <use x="118.359375" xlink:href="#DejaVuSans-109"/>
      <use x="215.771484" xlink:href="#DejaVuSans-117"/>
      <use x="279.150391" xlink:href="#DejaVuSans-108"/>
      <use x="306.933594" xlink:href="#DejaVuSans-97"/>
      <use x="368.212891" xlink:href="#DejaVuSans-116"/>
      <use x="407.421875" xlink:href="#DejaVuSans-105"/>
      <use x="435.205078" xlink:href="#DejaVuSans-118"/>
      <use x="494.384766" xlink:href="#DejaVuSans-101"/>
      <use x="555.908203" xlink:href="#DejaVuSans-32"/>
      <use x="587.695312" xlink:href="#DejaVuSans-110"/>
      <use x="651.074219" xlink:href="#DejaVuSans-117"/>
      <use x="714.453125" xlink:href="#DejaVuSans-109"/>
      <use x="811.865234" xlink:href="#DejaVuSans-98"/>
      <use x="875.341797" xlink:href="#DejaVuSans-101"/>
      <use x="936.865234" xlink:href="#DejaVuSans-114"/>
      <use x="977.978516" xlink:href="#DejaVuSans-32"/>
      <use x="1009.765625" xlink:href="#DejaVuSans-111"/>
      <use x="1070.947266" xlink:href="#DejaVuSans-102"/>
      <use x="1106.152344" xlink:href="#DejaVuSans-32"/>
      <use x="1137.939453" xlink:href="#DejaVuSans-99"/>
      <use x="1192.919922" xlink:href="#DejaVuSans-111"/>
      <use x="1254.101562" xlink:href="#DejaVuSans-114"/>
      <use x="1292.964844" xlink:href="#DejaVuSans-111"/>
      <use x="1354.146484" xlink:href="#DejaVuSans-110"/>
      <use x="1417.525391" xlink:href="#DejaVuSans-97"/>
      <use x="1478.804688" xlink:href="#DejaVuSans-32"/>
      <use x="1510.591797" xlink:href="#DejaVuSans-102"/>
      <use x="1545.796875" xlink:href="#DejaVuSans-97"/>
      <use x="1607.076172" xlink:href="#DejaVuSans-116"/>
      <use x="1646.285156" xlink:href="#DejaVuSans-97"/>
      <use x="1707.564453" xlink:href="#DejaVuSans-108"/>
      <use x="1735.347656" xlink:href="#DejaVuSans-105"/>
      <use x="1763.130859" xlink:href="#DejaVuSans-116"/>
      <use x="1802.339844" xlink:href="#DejaVuSans-105"/>
      <use x="1830.123047" xlink:href="#DejaVuSans-101"/>
      <use x="1891.646484" xlink:href="#DejaVuSans-115"/>
     </g>
    </g>
   </g>
   <g id="patch_290">
    <path d="M 52.965625 288.430125 
L 52.965625 22.318125 
" style="fill:none;stroke:#000000;stroke-linecap:square;stroke-linejoin:miter;stroke-width:0.8;"/>
   </g>
   <g id="patch_291">
    <path d="M 52.965625 288.430125 
L 410.085625 288.430125 
" style="fill:none;stroke:#000000;stroke-linecap:square;stroke-linejoin:miter;stroke-width:0.8;"/>
   </g>
   <g id="text_20">
    <!-- South Tyrol -->
    <g transform="translate(198.233125 16.318125)scale(0.12 -0.12)">
     <defs>
      <path d="M 53.515625 70.515625 
L 53.515625 60.890625 
Q 47.90625 63.578125 42.921875 64.890625 
Q 37.9375 66.21875 33.296875 66.21875 
Q 25.25 66.21875 20.875 63.09375 
Q 16.5 59.96875 16.5 54.203125 
Q 16.5 49.359375 19.40625 46.890625 
Q 22.3125 44.4375 30.421875 42.921875 
L 36.375 41.703125 
Q 47.40625 39.59375 52.65625 34.296875 
Q 57.90625 29 57.90625 20.125 
Q 57.90625 9.515625 50.796875 4.046875 
Q 43.703125 -1.421875 29.984375 -1.421875 
Q 24.8125 -1.421875 18.96875 -0.25 
Q 13.140625 0.921875 6.890625 3.21875 
L 6.890625 13.375 
Q 12.890625 10.015625 18.65625 8.296875 
Q 24.421875 6.59375 29.984375 6.59375 
Q 38.421875 6.59375 43.015625 9.90625 
Q 47.609375 13.234375 47.609375 19.390625 
Q 47.609375 24.75 44.3125 27.78125 
Q 41.015625 30.8125 33.5 32.328125 
L 27.484375 33.5 
Q 16.453125 35.6875 11.515625 40.375 
Q 6.59375 45.0625 6.59375 53.421875 
Q 6.59375 63.09375 13.40625 68.65625 
Q 20.21875 74.21875 32.171875 74.21875 
Q 37.3125 74.21875 42.625 73.28125 
Q 47.953125 72.359375 53.515625 70.515625 
z
" id="DejaVuSans-83"/>
      <path d="M 54.890625 33.015625 
L 54.890625 0 
L 45.90625 0 
L 45.90625 32.71875 
Q 45.90625 40.484375 42.875 44.328125 
Q 39.84375 48.1875 33.796875 48.1875 
Q 26.515625 48.1875 22.3125 43.546875 
Q 18.109375 38.921875 18.109375 30.90625 
L 18.109375 0 
L 9.078125 0 
L 9.078125 75.984375 
L 18.109375 75.984375 
L 18.109375 46.1875 
Q 21.34375 51.125 25.703125 53.5625 
Q 30.078125 56 35.796875 56 
Q 45.21875 56 50.046875 50.171875 
Q 54.890625 44.34375 54.890625 33.015625 
z
" id="DejaVuSans-104"/>
      <path d="M -0.296875 72.90625 
L 61.375 72.90625 
L 61.375 64.59375 
L 35.5 64.59375 
L 35.5 0 
L 25.59375 0 
L 25.59375 64.59375 
L -0.296875 64.59375 
z
" id="DejaVuSans-84"/>
      <path d="M 32.171875 -5.078125 
Q 28.375 -14.84375 24.75 -17.8125 
Q 21.140625 -20.796875 15.09375 -20.796875 
L 7.90625 -20.796875 
L 7.90625 -13.28125 
L 13.1875 -13.28125 
Q 16.890625 -13.28125 18.9375 -11.515625 
Q 21 -9.765625 23.484375 -3.21875 
L 25.09375 0.875 
L 2.984375 54.6875 
L 12.5 54.6875 
L 29.59375 11.921875 
L 46.6875 54.6875 
L 56.203125 54.6875 
z
" id="DejaVuSans-121"/>
     </defs>
     <use xlink:href="#DejaVuSans-83"/>
     <use x="63.476562" xlink:href="#DejaVuSans-111"/>
     <use x="124.658203" xlink:href="#DejaVuSans-117"/>
     <use x="188.037109" xlink:href="#DejaVuSans-116"/>
     <use x="227.246094" xlink:href="#DejaVuSans-104"/>
     <use x="290.625" xlink:href="#DejaVuSans-32"/>
     <use x="322.412109" xlink:href="#DejaVuSans-84"/>
     <use x="367.871094" xlink:href="#DejaVuSans-121"/>
     <use x="427.050781" xlink:href="#DejaVuSans-114"/>
     <use x="465.914062" xlink:href="#DejaVuSans-111"/>
     <use x="527.095703" xlink:href="#DejaVuSans-108"/>
    </g>
   </g>
  </g>
 </g>
 <defs>
  <clipPath id="pa2dd50454b">
   <rect height="266.112" width="357.12" x="52.965625" y="22.318125"/>
  </clipPath>
 </defs>
</svg>
