<?xml version="1.0" encoding="utf-8" standalone="no"?>
<!DOCTYPE svg PUBLIC "-//W3C//DTD SVG 1.1//EN"
  "http://www.w3.org/Graphics/SVG/1.1/DTD/svg11.dtd">
<!-- Created with matplotlib (https://matplotlib.org/) -->
<svg height="364.091062pt" version="1.1" viewBox="0 0 417.285625 364.091062" width="417.285625pt" xmlns="http://www.w3.org/2000/svg" xmlns:xlink="http://www.w3.org/1999/xlink">
 <metadata>
  <rdf:RDF xmlns:cc="http://creativecommons.org/ns#" xmlns:dc="http://purl.org/dc/elements/1.1/" xmlns:rdf="http://www.w3.org/1999/02/22-rdf-syntax-ns#">
   <cc:Work>
    <dc:type rdf:resource="http://purl.org/dc/dcmitype/StillImage"/>
    <dc:date>2020-12-18T12:05:58.640195</dc:date>
    <dc:format>image/svg+xml</dc:format>
    <dc:creator>
     <cc:Agent>
      <dc:title>Matplotlib v3.3.3, https://matplotlib.org/</dc:title>
     </cc:Agent>
    </dc:creator>
   </cc:Work>
  </rdf:RDF>
 </metadata>
 <defs>
  <style type="text/css">*{stroke-linecap:butt;stroke-linejoin:round;}</style>
 </defs>
 <g id="figure_1">
  <g id="patch_1">
   <path d="M 0 364.091062 
L 417.285625 364.091062 
L 417.285625 0 
L 0 0 
z
" style="fill:#ffffff;"/>
  </g>
  <g id="axes_1">
   <g id="patch_2">
    <path d="M 52.965625 288.430125 
L 410.085625 288.430125 
L 410.085625 22.318125 
L 52.965625 22.318125 
z
" style="fill:#ffffff;"/>
   </g>
   <g id="patch_3">
    <path clip-path="url(#pb309a7cb6b)" d="M 53.093625 288.430125 
L 54.117625 288.430125 
L 54.117625 286.470537 
L 53.093625 286.470537 
z
" style="fill:#1f77b4;"/>
   </g>
   <g id="patch_4">
    <path clip-path="url(#pb309a7cb6b)" d="M 54.373625 288.430125 
L 55.397625 288.430125 
L 55.397625 286.07862 
L 54.373625 286.07862 
z
" style="fill:#1f77b4;"/>
   </g>
   <g id="patch_5">
    <path clip-path="url(#pb309a7cb6b)" d="M 55.653625 288.430125 
L 56.677625 288.430125 
L 56.677625 284.902867 
L 55.653625 284.902867 
z
" style="fill:#1f77b4;"/>
   </g>
   <g id="patch_6">
    <path clip-path="url(#pb309a7cb6b)" d="M 56.933625 288.430125 
L 57.957625 288.430125 
L 57.957625 283.727115 
L 56.933625 283.727115 
z
" style="fill:#1f77b4;"/>
   </g>
   <g id="patch_7">
    <path clip-path="url(#pb309a7cb6b)" d="M 58.213625 288.430125 
L 59.237625 288.430125 
L 59.237625 282.159445 
L 58.213625 282.159445 
z
" style="fill:#1f77b4;"/>
   </g>
   <g id="patch_8">
    <path clip-path="url(#pb309a7cb6b)" d="M 59.493625 288.430125 
L 60.517625 288.430125 
L 60.517625 280.983692 
L 59.493625 280.983692 
z
" style="fill:#1f77b4;"/>
   </g>
   <g id="patch_9">
    <path clip-path="url(#pb309a7cb6b)" d="M 60.773625 288.430125 
L 61.797625 288.430125 
L 61.797625 279.024104 
L 60.773625 279.024104 
z
" style="fill:#1f77b4;"/>
   </g>
   <g id="patch_10">
    <path clip-path="url(#pb309a7cb6b)" d="M 62.053625 288.430125 
L 63.077625 288.430125 
L 63.077625 276.280682 
L 62.053625 276.280682 
z
" style="fill:#1f77b4;"/>
   </g>
   <g id="patch_11">
    <path clip-path="url(#pb309a7cb6b)" d="M 63.333625 288.430125 
L 64.357625 288.430125 
L 64.357625 274.713012 
L 63.333625 274.713012 
z
" style="fill:#1f77b4;"/>
   </g>
   <g id="patch_12">
    <path clip-path="url(#pb309a7cb6b)" d="M 64.613625 288.430125 
L 65.637625 288.430125 
L 65.637625 271.185754 
L 64.613625 271.185754 
z
" style="fill:#1f77b4;"/>
   </g>
   <g id="patch_13">
    <path clip-path="url(#pb309a7cb6b)" d="M 65.893625 288.430125 
L 66.917625 288.430125 
L 66.917625 270.793836 
L 65.893625 270.793836 
z
" style="fill:#1f77b4;"/>
   </g>
   <g id="patch_14">
    <path clip-path="url(#pb309a7cb6b)" d="M 67.173625 288.430125 
L 68.197625 288.430125 
L 68.197625 267.658496 
L 67.173625 267.658496 
z
" style="fill:#1f77b4;"/>
   </g>
   <g id="patch_15">
    <path clip-path="url(#pb309a7cb6b)" d="M 68.453625 288.430125 
L 69.477625 288.430125 
L 69.477625 264.915073 
L 68.453625 264.915073 
z
" style="fill:#1f77b4;"/>
   </g>
   <g id="patch_16">
    <path clip-path="url(#pb309a7cb6b)" d="M 69.733625 288.430125 
L 70.757625 288.430125 
L 70.757625 263.347403 
L 69.733625 263.347403 
z
" style="fill:#1f77b4;"/>
   </g>
   <g id="patch_17">
    <path clip-path="url(#pb309a7cb6b)" d="M 71.013625 288.430125 
L 72.037625 288.430125 
L 72.037625 260.603981 
L 71.013625 260.603981 
z
" style="fill:#1f77b4;"/>
   </g>
   <g id="patch_18">
    <path clip-path="url(#pb309a7cb6b)" d="M 72.293625 288.430125 
L 73.317625 288.430125 
L 73.317625 259.428228 
L 72.293625 259.428228 
z
" style="fill:#1f77b4;"/>
   </g>
   <g id="patch_19">
    <path clip-path="url(#pb309a7cb6b)" d="M 73.573625 288.430125 
L 74.597625 288.430125 
L 74.597625 245.319197 
L 73.573625 245.319197 
z
" style="fill:#1f77b4;"/>
   </g>
   <g id="patch_20">
    <path clip-path="url(#pb309a7cb6b)" d="M 74.853625 288.430125 
L 75.877625 288.430125 
L 75.877625 241.400022 
L 74.853625 241.400022 
z
" style="fill:#1f77b4;"/>
   </g>
   <g id="patch_21">
    <path clip-path="url(#pb309a7cb6b)" d="M 76.133625 288.430125 
L 77.157625 288.430125 
L 77.157625 238.264682 
L 76.133625 238.264682 
z
" style="fill:#1f77b4;"/>
   </g>
   <g id="patch_22">
    <path clip-path="url(#pb309a7cb6b)" d="M 77.413625 288.430125 
L 78.437625 288.430125 
L 78.437625 232.777836 
L 77.413625 232.777836 
z
" style="fill:#1f77b4;"/>
   </g>
   <g id="patch_23">
    <path clip-path="url(#pb309a7cb6b)" d="M 78.693625 288.430125 
L 79.717625 288.430125 
L 79.717625 231.210166 
L 78.693625 231.210166 
z
" style="fill:#1f77b4;"/>
   </g>
   <g id="patch_24">
    <path clip-path="url(#pb309a7cb6b)" d="M 79.973625 288.430125 
L 80.997625 288.430125 
L 80.997625 227.290991 
L 79.973625 227.290991 
z
" style="fill:#1f77b4;"/>
   </g>
   <g id="patch_25">
    <path clip-path="url(#pb309a7cb6b)" d="M 81.253625 288.430125 
L 82.277625 288.430125 
L 82.277625 224.155651 
L 81.253625 224.155651 
z
" style="fill:#1f77b4;"/>
   </g>
   <g id="patch_26">
    <path clip-path="url(#pb309a7cb6b)" d="M 82.533625 288.430125 
L 83.557625 288.430125 
L 83.557625 221.020311 
L 82.533625 221.020311 
z
" style="fill:#1f77b4;"/>
   </g>
   <g id="patch_27">
    <path clip-path="url(#pb309a7cb6b)" d="M 83.813625 288.430125 
L 84.837625 288.430125 
L 84.837625 218.668805 
L 83.813625 218.668805 
z
" style="fill:#1f77b4;"/>
   </g>
   <g id="patch_28">
    <path clip-path="url(#pb309a7cb6b)" d="M 85.093625 288.430125 
L 86.117625 288.430125 
L 86.117625 215.141548 
L 85.093625 215.141548 
z
" style="fill:#1f77b4;"/>
   </g>
   <g id="patch_29">
    <path clip-path="url(#pb309a7cb6b)" d="M 86.373625 288.430125 
L 87.397625 288.430125 
L 87.397625 213.18196 
L 86.373625 213.18196 
z
" style="fill:#1f77b4;"/>
   </g>
   <g id="patch_30">
    <path clip-path="url(#pb309a7cb6b)" d="M 87.653625 288.430125 
L 88.677625 288.430125 
L 88.677625 210.04662 
L 87.653625 210.04662 
z
" style="fill:#1f77b4;"/>
   </g>
   <g id="patch_31">
    <path clip-path="url(#pb309a7cb6b)" d="M 88.933625 288.430125 
L 89.957625 288.430125 
L 89.957625 208.47895 
L 88.933625 208.47895 
z
" style="fill:#1f77b4;"/>
   </g>
   <g id="patch_32">
    <path clip-path="url(#pb309a7cb6b)" d="M 90.213625 288.430125 
L 91.237625 288.430125 
L 91.237625 204.167857 
L 90.213625 204.167857 
z
" style="fill:#1f77b4;"/>
   </g>
   <g id="patch_33">
    <path clip-path="url(#pb309a7cb6b)" d="M 91.493625 288.430125 
L 92.517625 288.430125 
L 92.517625 203.384022 
L 91.493625 203.384022 
z
" style="fill:#1f77b4;"/>
   </g>
   <g id="patch_34">
    <path clip-path="url(#pb309a7cb6b)" d="M 92.773625 288.430125 
L 93.797625 288.430125 
L 93.797625 201.816352 
L 92.773625 201.816352 
z
" style="fill:#1f77b4;"/>
   </g>
   <g id="patch_35">
    <path clip-path="url(#pb309a7cb6b)" d="M 94.053625 288.430125 
L 95.077625 288.430125 
L 95.077625 199.072929 
L 94.053625 199.072929 
z
" style="fill:#1f77b4;"/>
   </g>
   <g id="patch_36">
    <path clip-path="url(#pb309a7cb6b)" d="M 95.333625 288.430125 
L 96.357625 288.430125 
L 96.357625 197.505259 
L 95.333625 197.505259 
z
" style="fill:#1f77b4;"/>
   </g>
   <g id="patch_37">
    <path clip-path="url(#pb309a7cb6b)" d="M 96.613625 288.430125 
L 97.637625 288.430125 
L 97.637625 194.761836 
L 96.613625 194.761836 
z
" style="fill:#1f77b4;"/>
   </g>
   <g id="patch_38">
    <path clip-path="url(#pb309a7cb6b)" d="M 97.893625 288.430125 
L 98.917625 288.430125 
L 98.917625 192.410331 
L 97.893625 192.410331 
z
" style="fill:#1f77b4;"/>
   </g>
   <g id="patch_39">
    <path clip-path="url(#pb309a7cb6b)" d="M 99.173625 288.430125 
L 100.197625 288.430125 
L 100.197625 190.842661 
L 99.173625 190.842661 
z
" style="fill:#1f77b4;"/>
   </g>
   <g id="patch_40">
    <path clip-path="url(#pb309a7cb6b)" d="M 100.453625 288.430125 
L 101.477625 288.430125 
L 101.477625 189.666909 
L 100.453625 189.666909 
z
" style="fill:#1f77b4;"/>
   </g>
   <g id="patch_41">
    <path clip-path="url(#pb309a7cb6b)" d="M 101.733625 288.430125 
L 102.757625 288.430125 
L 102.757625 188.099238 
L 101.733625 188.099238 
z
" style="fill:#1f77b4;"/>
   </g>
   <g id="patch_42">
    <path clip-path="url(#pb309a7cb6b)" d="M 103.013625 288.430125 
L 104.037625 288.430125 
L 104.037625 186.139651 
L 103.013625 186.139651 
z
" style="fill:#1f77b4;"/>
   </g>
   <g id="patch_43">
    <path clip-path="url(#pb309a7cb6b)" d="M 104.293625 288.430125 
L 105.317625 288.430125 
L 105.317625 185.355816 
L 104.293625 185.355816 
z
" style="fill:#1f77b4;"/>
   </g>
   <g id="patch_44">
    <path clip-path="url(#pb309a7cb6b)" d="M 105.573625 288.430125 
L 106.597625 288.430125 
L 106.597625 184.571981 
L 105.573625 184.571981 
z
" style="fill:#1f77b4;"/>
   </g>
   <g id="patch_45">
    <path clip-path="url(#pb309a7cb6b)" d="M 106.853625 288.430125 
L 107.877625 288.430125 
L 107.877625 183.004311 
L 106.853625 183.004311 
z
" style="fill:#1f77b4;"/>
   </g>
   <g id="patch_46">
    <path clip-path="url(#pb309a7cb6b)" d="M 108.133625 288.430125 
L 109.157625 288.430125 
L 109.157625 182.612393 
L 108.133625 182.612393 
z
" style="fill:#1f77b4;"/>
   </g>
   <g id="patch_47">
    <path clip-path="url(#pb309a7cb6b)" d="M 109.413625 288.430125 
L 110.437625 288.430125 
L 110.437625 181.828558 
L 109.413625 181.828558 
z
" style="fill:#1f77b4;"/>
   </g>
   <g id="patch_48">
    <path clip-path="url(#pb309a7cb6b)" d="M 110.693625 288.430125 
L 111.717625 288.430125 
L 111.717625 181.044723 
L 110.693625 181.044723 
z
" style="fill:#1f77b4;"/>
   </g>
   <g id="patch_49">
    <path clip-path="url(#pb309a7cb6b)" d="M 111.973625 288.430125 
L 112.997625 288.430125 
L 112.997625 180.652805 
L 111.973625 180.652805 
z
" style="fill:#1f77b4;"/>
   </g>
   <g id="patch_50">
    <path clip-path="url(#pb309a7cb6b)" d="M 113.253625 288.430125 
L 114.277625 288.430125 
L 114.277625 179.477053 
L 113.253625 179.477053 
z
" style="fill:#1f77b4;"/>
   </g>
   <g id="patch_51">
    <path clip-path="url(#pb309a7cb6b)" d="M 114.533625 288.430125 
L 115.557625 288.430125 
L 115.557625 179.085135 
L 114.533625 179.085135 
z
" style="fill:#1f77b4;"/>
   </g>
   <g id="patch_52">
    <path clip-path="url(#pb309a7cb6b)" d="M 115.813625 288.430125 
L 116.837625 288.430125 
L 116.837625 178.3013 
L 115.813625 178.3013 
z
" style="fill:#1f77b4;"/>
   </g>
   <g id="patch_53">
    <path clip-path="url(#pb309a7cb6b)" d="M 117.093625 288.430125 
L 118.117625 288.430125 
L 118.117625 177.125548 
L 117.093625 177.125548 
z
" style="fill:#1f77b4;"/>
   </g>
   <g id="patch_54">
    <path clip-path="url(#pb309a7cb6b)" d="M 118.373625 288.430125 
L 119.397625 288.430125 
L 119.397625 176.341713 
L 118.373625 176.341713 
z
" style="fill:#1f77b4;"/>
   </g>
   <g id="patch_55">
    <path clip-path="url(#pb309a7cb6b)" d="M 119.653625 288.430125 
L 120.677625 288.430125 
L 120.677625 176.341713 
L 119.653625 176.341713 
z
" style="fill:#1f77b4;"/>
   </g>
   <g id="patch_56">
    <path clip-path="url(#pb309a7cb6b)" d="M 120.933625 288.430125 
L 121.957625 288.430125 
L 121.957625 176.341713 
L 120.933625 176.341713 
z
" style="fill:#1f77b4;"/>
   </g>
   <g id="patch_57">
    <path clip-path="url(#pb309a7cb6b)" d="M 122.213625 288.430125 
L 123.237625 288.430125 
L 123.237625 175.16596 
L 122.213625 175.16596 
z
" style="fill:#1f77b4;"/>
   </g>
   <g id="patch_58">
    <path clip-path="url(#pb309a7cb6b)" d="M 123.493625 288.430125 
L 124.517625 288.430125 
L 124.517625 174.774043 
L 123.493625 174.774043 
z
" style="fill:#1f77b4;"/>
   </g>
   <g id="patch_59">
    <path clip-path="url(#pb309a7cb6b)" d="M 124.773625 288.430125 
L 125.797625 288.430125 
L 125.797625 174.774043 
L 124.773625 174.774043 
z
" style="fill:#1f77b4;"/>
   </g>
   <g id="patch_60">
    <path clip-path="url(#pb309a7cb6b)" d="M 126.053625 288.430125 
L 127.077625 288.430125 
L 127.077625 174.774043 
L 126.053625 174.774043 
z
" style="fill:#1f77b4;"/>
   </g>
   <g id="patch_61">
    <path clip-path="url(#pb309a7cb6b)" d="M 127.333625 288.430125 
L 128.357625 288.430125 
L 128.357625 174.774043 
L 127.333625 174.774043 
z
" style="fill:#1f77b4;"/>
   </g>
   <g id="patch_62">
    <path clip-path="url(#pb309a7cb6b)" d="M 128.613625 288.430125 
L 129.637625 288.430125 
L 129.637625 174.774043 
L 128.613625 174.774043 
z
" style="fill:#1f77b4;"/>
   </g>
   <g id="patch_63">
    <path clip-path="url(#pb309a7cb6b)" d="M 129.893625 288.430125 
L 130.917625 288.430125 
L 130.917625 174.774043 
L 129.893625 174.774043 
z
" style="fill:#1f77b4;"/>
   </g>
   <g id="patch_64">
    <path clip-path="url(#pb309a7cb6b)" d="M 131.173625 288.430125 
L 132.197625 288.430125 
L 132.197625 174.774043 
L 131.173625 174.774043 
z
" style="fill:#1f77b4;"/>
   </g>
   <g id="patch_65">
    <path clip-path="url(#pb309a7cb6b)" d="M 132.453625 288.430125 
L 133.477625 288.430125 
L 133.477625 174.774043 
L 132.453625 174.774043 
z
" style="fill:#1f77b4;"/>
   </g>
   <g id="patch_66">
    <path clip-path="url(#pb309a7cb6b)" d="M 133.733625 288.430125 
L 134.757625 288.430125 
L 134.757625 174.774043 
L 133.733625 174.774043 
z
" style="fill:#1f77b4;"/>
   </g>
   <g id="patch_67">
    <path clip-path="url(#pb309a7cb6b)" d="M 135.013625 288.430125 
L 136.037625 288.430125 
L 136.037625 174.382125 
L 135.013625 174.382125 
z
" style="fill:#1f77b4;"/>
   </g>
   <g id="patch_68">
    <path clip-path="url(#pb309a7cb6b)" d="M 136.293625 288.430125 
L 137.317625 288.430125 
L 137.317625 174.382125 
L 136.293625 174.382125 
z
" style="fill:#1f77b4;"/>
   </g>
   <g id="patch_69">
    <path clip-path="url(#pb309a7cb6b)" d="M 137.573625 288.430125 
L 138.597625 288.430125 
L 138.597625 174.382125 
L 137.573625 174.382125 
z
" style="fill:#1f77b4;"/>
   </g>
   <g id="patch_70">
    <path clip-path="url(#pb309a7cb6b)" d="M 138.853625 288.430125 
L 139.877625 288.430125 
L 139.877625 174.382125 
L 138.853625 174.382125 
z
" style="fill:#1f77b4;"/>
   </g>
   <g id="patch_71">
    <path clip-path="url(#pb309a7cb6b)" d="M 140.133625 288.430125 
L 141.157625 288.430125 
L 141.157625 174.382125 
L 140.133625 174.382125 
z
" style="fill:#1f77b4;"/>
   </g>
   <g id="patch_72">
    <path clip-path="url(#pb309a7cb6b)" d="M 141.413625 288.430125 
L 142.437625 288.430125 
L 142.437625 174.382125 
L 141.413625 174.382125 
z
" style="fill:#1f77b4;"/>
   </g>
   <g id="patch_73">
    <path clip-path="url(#pb309a7cb6b)" d="M 142.693625 288.430125 
L 143.717625 288.430125 
L 143.717625 174.382125 
L 142.693625 174.382125 
z
" style="fill:#1f77b4;"/>
   </g>
   <g id="patch_74">
    <path clip-path="url(#pb309a7cb6b)" d="M 143.973625 288.430125 
L 144.997625 288.430125 
L 144.997625 174.382125 
L 143.973625 174.382125 
z
" style="fill:#1f77b4;"/>
   </g>
   <g id="patch_75">
    <path clip-path="url(#pb309a7cb6b)" d="M 145.253625 288.430125 
L 146.277625 288.430125 
L 146.277625 174.382125 
L 145.253625 174.382125 
z
" style="fill:#1f77b4;"/>
   </g>
   <g id="patch_76">
    <path clip-path="url(#pb309a7cb6b)" d="M 146.533625 288.430125 
L 147.557625 288.430125 
L 147.557625 174.382125 
L 146.533625 174.382125 
z
" style="fill:#1f77b4;"/>
   </g>
   <g id="patch_77">
    <path clip-path="url(#pb309a7cb6b)" d="M 147.813625 288.430125 
L 148.837625 288.430125 
L 148.837625 174.382125 
L 147.813625 174.382125 
z
" style="fill:#1f77b4;"/>
   </g>
   <g id="patch_78">
    <path clip-path="url(#pb309a7cb6b)" d="M 149.093625 288.430125 
L 150.117625 288.430125 
L 150.117625 174.382125 
L 149.093625 174.382125 
z
" style="fill:#1f77b4;"/>
   </g>
   <g id="patch_79">
    <path clip-path="url(#pb309a7cb6b)" d="M 150.373625 288.430125 
L 151.397625 288.430125 
L 151.397625 174.382125 
L 150.373625 174.382125 
z
" style="fill:#1f77b4;"/>
   </g>
   <g id="patch_80">
    <path clip-path="url(#pb309a7cb6b)" d="M 151.653625 288.430125 
L 152.677625 288.430125 
L 152.677625 174.382125 
L 151.653625 174.382125 
z
" style="fill:#1f77b4;"/>
   </g>
   <g id="patch_81">
    <path clip-path="url(#pb309a7cb6b)" d="M 152.933625 288.430125 
L 153.957625 288.430125 
L 153.957625 174.382125 
L 152.933625 174.382125 
z
" style="fill:#1f77b4;"/>
   </g>
   <g id="patch_82">
    <path clip-path="url(#pb309a7cb6b)" d="M 154.213625 288.430125 
L 155.237625 288.430125 
L 155.237625 174.382125 
L 154.213625 174.382125 
z
" style="fill:#1f77b4;"/>
   </g>
   <g id="patch_83">
    <path clip-path="url(#pb309a7cb6b)" d="M 155.493625 288.430125 
L 156.517625 288.430125 
L 156.517625 174.382125 
L 155.493625 174.382125 
z
" style="fill:#1f77b4;"/>
   </g>
   <g id="patch_84">
    <path clip-path="url(#pb309a7cb6b)" d="M 156.773625 288.430125 
L 157.797625 288.430125 
L 157.797625 173.990207 
L 156.773625 173.990207 
z
" style="fill:#1f77b4;"/>
   </g>
   <g id="patch_85">
    <path clip-path="url(#pb309a7cb6b)" d="M 158.053625 288.430125 
L 159.077625 288.430125 
L 159.077625 173.990207 
L 158.053625 173.990207 
z
" style="fill:#1f77b4;"/>
   </g>
   <g id="patch_86">
    <path clip-path="url(#pb309a7cb6b)" d="M 159.333625 288.430125 
L 160.357625 288.430125 
L 160.357625 173.990207 
L 159.333625 173.990207 
z
" style="fill:#1f77b4;"/>
   </g>
   <g id="patch_87">
    <path clip-path="url(#pb309a7cb6b)" d="M 160.613625 288.430125 
L 161.637625 288.430125 
L 161.637625 173.990207 
L 160.613625 173.990207 
z
" style="fill:#1f77b4;"/>
   </g>
   <g id="patch_88">
    <path clip-path="url(#pb309a7cb6b)" d="M 161.893625 288.430125 
L 162.917625 288.430125 
L 162.917625 173.990207 
L 161.893625 173.990207 
z
" style="fill:#1f77b4;"/>
   </g>
   <g id="patch_89">
    <path clip-path="url(#pb309a7cb6b)" d="M 163.173625 288.430125 
L 164.197625 288.430125 
L 164.197625 173.990207 
L 163.173625 173.990207 
z
" style="fill:#1f77b4;"/>
   </g>
   <g id="patch_90">
    <path clip-path="url(#pb309a7cb6b)" d="M 164.453625 288.430125 
L 165.477625 288.430125 
L 165.477625 173.990207 
L 164.453625 173.990207 
z
" style="fill:#1f77b4;"/>
   </g>
   <g id="patch_91">
    <path clip-path="url(#pb309a7cb6b)" d="M 165.733625 288.430125 
L 166.757625 288.430125 
L 166.757625 173.990207 
L 165.733625 173.990207 
z
" style="fill:#1f77b4;"/>
   </g>
   <g id="patch_92">
    <path clip-path="url(#pb309a7cb6b)" d="M 167.013625 288.430125 
L 168.037625 288.430125 
L 168.037625 174.382125 
L 167.013625 174.382125 
z
" style="fill:#1f77b4;"/>
   </g>
   <g id="patch_93">
    <path clip-path="url(#pb309a7cb6b)" d="M 168.293625 288.430125 
L 169.317625 288.430125 
L 169.317625 174.382125 
L 168.293625 174.382125 
z
" style="fill:#1f77b4;"/>
   </g>
   <g id="patch_94">
    <path clip-path="url(#pb309a7cb6b)" d="M 169.573625 288.430125 
L 170.597625 288.430125 
L 170.597625 174.382125 
L 169.573625 174.382125 
z
" style="fill:#1f77b4;"/>
   </g>
   <g id="patch_95">
    <path clip-path="url(#pb309a7cb6b)" d="M 170.853625 288.430125 
L 171.877625 288.430125 
L 171.877625 173.990207 
L 170.853625 173.990207 
z
" style="fill:#1f77b4;"/>
   </g>
   <g id="patch_96">
    <path clip-path="url(#pb309a7cb6b)" d="M 172.133625 288.430125 
L 173.157625 288.430125 
L 173.157625 173.990207 
L 172.133625 173.990207 
z
" style="fill:#1f77b4;"/>
   </g>
   <g id="patch_97">
    <path clip-path="url(#pb309a7cb6b)" d="M 173.413625 288.430125 
L 174.437625 288.430125 
L 174.437625 173.990207 
L 173.413625 173.990207 
z
" style="fill:#1f77b4;"/>
   </g>
   <g id="patch_98">
    <path clip-path="url(#pb309a7cb6b)" d="M 174.693625 288.430125 
L 175.717625 288.430125 
L 175.717625 173.990207 
L 174.693625 173.990207 
z
" style="fill:#1f77b4;"/>
   </g>
   <g id="patch_99">
    <path clip-path="url(#pb309a7cb6b)" d="M 175.973625 288.430125 
L 176.997625 288.430125 
L 176.997625 173.990207 
L 175.973625 173.990207 
z
" style="fill:#1f77b4;"/>
   </g>
   <g id="patch_100">
    <path clip-path="url(#pb309a7cb6b)" d="M 177.253625 288.430125 
L 178.277625 288.430125 
L 178.277625 173.990207 
L 177.253625 173.990207 
z
" style="fill:#1f77b4;"/>
   </g>
   <g id="patch_101">
    <path clip-path="url(#pb309a7cb6b)" d="M 178.533625 288.430125 
L 179.557625 288.430125 
L 179.557625 173.990207 
L 178.533625 173.990207 
z
" style="fill:#1f77b4;"/>
   </g>
   <g id="patch_102">
    <path clip-path="url(#pb309a7cb6b)" d="M 179.813625 288.430125 
L 180.837625 288.430125 
L 180.837625 173.990207 
L 179.813625 173.990207 
z
" style="fill:#1f77b4;"/>
   </g>
   <g id="patch_103">
    <path clip-path="url(#pb309a7cb6b)" d="M 181.093625 288.430125 
L 182.117625 288.430125 
L 182.117625 173.990207 
L 181.093625 173.990207 
z
" style="fill:#1f77b4;"/>
   </g>
   <g id="patch_104">
    <path clip-path="url(#pb309a7cb6b)" d="M 182.373625 288.430125 
L 183.397625 288.430125 
L 183.397625 173.990207 
L 182.373625 173.990207 
z
" style="fill:#1f77b4;"/>
   </g>
   <g id="patch_105">
    <path clip-path="url(#pb309a7cb6b)" d="M 183.653625 288.430125 
L 184.677625 288.430125 
L 184.677625 173.990207 
L 183.653625 173.990207 
z
" style="fill:#1f77b4;"/>
   </g>
   <g id="patch_106">
    <path clip-path="url(#pb309a7cb6b)" d="M 184.933625 288.430125 
L 185.957625 288.430125 
L 185.957625 173.990207 
L 184.933625 173.990207 
z
" style="fill:#1f77b4;"/>
   </g>
   <g id="patch_107">
    <path clip-path="url(#pb309a7cb6b)" d="M 186.213625 288.430125 
L 187.237625 288.430125 
L 187.237625 173.990207 
L 186.213625 173.990207 
z
" style="fill:#1f77b4;"/>
   </g>
   <g id="patch_108">
    <path clip-path="url(#pb309a7cb6b)" d="M 187.493625 288.430125 
L 188.517625 288.430125 
L 188.517625 173.990207 
L 187.493625 173.990207 
z
" style="fill:#1f77b4;"/>
   </g>
   <g id="patch_109">
    <path clip-path="url(#pb309a7cb6b)" d="M 188.773625 288.430125 
L 189.797625 288.430125 
L 189.797625 173.990207 
L 188.773625 173.990207 
z
" style="fill:#1f77b4;"/>
   </g>
   <g id="patch_110">
    <path clip-path="url(#pb309a7cb6b)" d="M 190.053625 288.430125 
L 191.077625 288.430125 
L 191.077625 173.990207 
L 190.053625 173.990207 
z
" style="fill:#1f77b4;"/>
   </g>
   <g id="patch_111">
    <path clip-path="url(#pb309a7cb6b)" d="M 191.333625 288.430125 
L 192.357625 288.430125 
L 192.357625 173.990207 
L 191.333625 173.990207 
z
" style="fill:#1f77b4;"/>
   </g>
   <g id="patch_112">
    <path clip-path="url(#pb309a7cb6b)" d="M 192.613625 288.430125 
L 193.637625 288.430125 
L 193.637625 173.990207 
L 192.613625 173.990207 
z
" style="fill:#1f77b4;"/>
   </g>
   <g id="patch_113">
    <path clip-path="url(#pb309a7cb6b)" d="M 193.893625 288.430125 
L 194.917625 288.430125 
L 194.917625 173.990207 
L 193.893625 173.990207 
z
" style="fill:#1f77b4;"/>
   </g>
   <g id="patch_114">
    <path clip-path="url(#pb309a7cb6b)" d="M 195.173625 288.430125 
L 196.197625 288.430125 
L 196.197625 173.990207 
L 195.173625 173.990207 
z
" style="fill:#1f77b4;"/>
   </g>
   <g id="patch_115">
    <path clip-path="url(#pb309a7cb6b)" d="M 196.453625 288.430125 
L 197.477625 288.430125 
L 197.477625 173.990207 
L 196.453625 173.990207 
z
" style="fill:#1f77b4;"/>
   </g>
   <g id="patch_116">
    <path clip-path="url(#pb309a7cb6b)" d="M 197.733625 288.430125 
L 198.757625 288.430125 
L 198.757625 173.990207 
L 197.733625 173.990207 
z
" style="fill:#1f77b4;"/>
   </g>
   <g id="patch_117">
    <path clip-path="url(#pb309a7cb6b)" d="M 199.013625 288.430125 
L 200.037625 288.430125 
L 200.037625 173.990207 
L 199.013625 173.990207 
z
" style="fill:#1f77b4;"/>
   </g>
   <g id="patch_118">
    <path clip-path="url(#pb309a7cb6b)" d="M 200.293625 288.430125 
L 201.317625 288.430125 
L 201.317625 173.990207 
L 200.293625 173.990207 
z
" style="fill:#1f77b4;"/>
   </g>
   <g id="patch_119">
    <path clip-path="url(#pb309a7cb6b)" d="M 201.573625 288.430125 
L 202.597625 288.430125 
L 202.597625 173.990207 
L 201.573625 173.990207 
z
" style="fill:#1f77b4;"/>
   </g>
   <g id="patch_120">
    <path clip-path="url(#pb309a7cb6b)" d="M 202.853625 288.430125 
L 203.877625 288.430125 
L 203.877625 173.990207 
L 202.853625 173.990207 
z
" style="fill:#1f77b4;"/>
   </g>
   <g id="patch_121">
    <path clip-path="url(#pb309a7cb6b)" d="M 204.133625 288.430125 
L 205.157625 288.430125 
L 205.157625 173.990207 
L 204.133625 173.990207 
z
" style="fill:#1f77b4;"/>
   </g>
   <g id="patch_122">
    <path clip-path="url(#pb309a7cb6b)" d="M 205.413625 288.430125 
L 206.437625 288.430125 
L 206.437625 173.990207 
L 205.413625 173.990207 
z
" style="fill:#1f77b4;"/>
   </g>
   <g id="patch_123">
    <path clip-path="url(#pb309a7cb6b)" d="M 206.693625 288.430125 
L 207.717625 288.430125 
L 207.717625 173.990207 
L 206.693625 173.990207 
z
" style="fill:#1f77b4;"/>
   </g>
   <g id="patch_124">
    <path clip-path="url(#pb309a7cb6b)" d="M 207.973625 288.430125 
L 208.997625 288.430125 
L 208.997625 173.990207 
L 207.973625 173.990207 
z
" style="fill:#1f77b4;"/>
   </g>
   <g id="patch_125">
    <path clip-path="url(#pb309a7cb6b)" d="M 209.253625 288.430125 
L 210.277625 288.430125 
L 210.277625 173.990207 
L 209.253625 173.990207 
z
" style="fill:#1f77b4;"/>
   </g>
   <g id="patch_126">
    <path clip-path="url(#pb309a7cb6b)" d="M 210.533625 288.430125 
L 211.557625 288.430125 
L 211.557625 173.990207 
L 210.533625 173.990207 
z
" style="fill:#1f77b4;"/>
   </g>
   <g id="patch_127">
    <path clip-path="url(#pb309a7cb6b)" d="M 211.813625 288.430125 
L 212.837625 288.430125 
L 212.837625 173.990207 
L 211.813625 173.990207 
z
" style="fill:#1f77b4;"/>
   </g>
   <g id="patch_128">
    <path clip-path="url(#pb309a7cb6b)" d="M 213.093625 288.430125 
L 214.117625 288.430125 
L 214.117625 173.990207 
L 213.093625 173.990207 
z
" style="fill:#1f77b4;"/>
   </g>
   <g id="patch_129">
    <path clip-path="url(#pb309a7cb6b)" d="M 214.373625 288.430125 
L 215.397625 288.430125 
L 215.397625 173.990207 
L 214.373625 173.990207 
z
" style="fill:#1f77b4;"/>
   </g>
   <g id="patch_130">
    <path clip-path="url(#pb309a7cb6b)" d="M 215.653625 288.430125 
L 216.677625 288.430125 
L 216.677625 173.990207 
L 215.653625 173.990207 
z
" style="fill:#1f77b4;"/>
   </g>
   <g id="patch_131">
    <path clip-path="url(#pb309a7cb6b)" d="M 216.933625 288.430125 
L 217.957625 288.430125 
L 217.957625 173.990207 
L 216.933625 173.990207 
z
" style="fill:#1f77b4;"/>
   </g>
   <g id="patch_132">
    <path clip-path="url(#pb309a7cb6b)" d="M 218.213625 288.430125 
L 219.237625 288.430125 
L 219.237625 173.990207 
L 218.213625 173.990207 
z
" style="fill:#1f77b4;"/>
   </g>
   <g id="patch_133">
    <path clip-path="url(#pb309a7cb6b)" d="M 219.493625 288.430125 
L 220.517625 288.430125 
L 220.517625 173.990207 
L 219.493625 173.990207 
z
" style="fill:#1f77b4;"/>
   </g>
   <g id="patch_134">
    <path clip-path="url(#pb309a7cb6b)" d="M 220.773625 288.430125 
L 221.797625 288.430125 
L 221.797625 173.990207 
L 220.773625 173.990207 
z
" style="fill:#1f77b4;"/>
   </g>
   <g id="patch_135">
    <path clip-path="url(#pb309a7cb6b)" d="M 222.053625 288.430125 
L 223.077625 288.430125 
L 223.077625 173.990207 
L 222.053625 173.990207 
z
" style="fill:#1f77b4;"/>
   </g>
   <g id="patch_136">
    <path clip-path="url(#pb309a7cb6b)" d="M 223.333625 288.430125 
L 224.357625 288.430125 
L 224.357625 173.990207 
L 223.333625 173.990207 
z
" style="fill:#1f77b4;"/>
   </g>
   <g id="patch_137">
    <path clip-path="url(#pb309a7cb6b)" d="M 224.613625 288.430125 
L 225.637625 288.430125 
L 225.637625 173.990207 
L 224.613625 173.990207 
z
" style="fill:#1f77b4;"/>
   </g>
   <g id="patch_138">
    <path clip-path="url(#pb309a7cb6b)" d="M 225.893625 288.430125 
L 226.917625 288.430125 
L 226.917625 173.990207 
L 225.893625 173.990207 
z
" style="fill:#1f77b4;"/>
   </g>
   <g id="patch_139">
    <path clip-path="url(#pb309a7cb6b)" d="M 227.173625 288.430125 
L 228.197625 288.430125 
L 228.197625 173.990207 
L 227.173625 173.990207 
z
" style="fill:#1f77b4;"/>
   </g>
   <g id="patch_140">
    <path clip-path="url(#pb309a7cb6b)" d="M 228.453625 288.430125 
L 229.477625 288.430125 
L 229.477625 173.990207 
L 228.453625 173.990207 
z
" style="fill:#1f77b4;"/>
   </g>
   <g id="patch_141">
    <path clip-path="url(#pb309a7cb6b)" d="M 229.733625 288.430125 
L 230.757625 288.430125 
L 230.757625 173.990207 
L 229.733625 173.990207 
z
" style="fill:#1f77b4;"/>
   </g>
   <g id="patch_142">
    <path clip-path="url(#pb309a7cb6b)" d="M 231.013625 288.430125 
L 232.037625 288.430125 
L 232.037625 173.990207 
L 231.013625 173.990207 
z
" style="fill:#1f77b4;"/>
   </g>
   <g id="patch_143">
    <path clip-path="url(#pb309a7cb6b)" d="M 232.293625 288.430125 
L 233.317625 288.430125 
L 233.317625 173.990207 
L 232.293625 173.990207 
z
" style="fill:#1f77b4;"/>
   </g>
   <g id="patch_144">
    <path clip-path="url(#pb309a7cb6b)" d="M 233.573625 288.430125 
L 234.597625 288.430125 
L 234.597625 173.990207 
L 233.573625 173.990207 
z
" style="fill:#1f77b4;"/>
   </g>
   <g id="patch_145">
    <path clip-path="url(#pb309a7cb6b)" d="M 234.853625 288.430125 
L 235.877625 288.430125 
L 235.877625 173.990207 
L 234.853625 173.990207 
z
" style="fill:#1f77b4;"/>
   </g>
   <g id="patch_146">
    <path clip-path="url(#pb309a7cb6b)" d="M 236.133625 288.430125 
L 237.157625 288.430125 
L 237.157625 173.990207 
L 236.133625 173.990207 
z
" style="fill:#1f77b4;"/>
   </g>
   <g id="patch_147">
    <path clip-path="url(#pb309a7cb6b)" d="M 237.413625 288.430125 
L 238.437625 288.430125 
L 238.437625 173.990207 
L 237.413625 173.990207 
z
" style="fill:#1f77b4;"/>
   </g>
   <g id="patch_148">
    <path clip-path="url(#pb309a7cb6b)" d="M 238.693625 288.430125 
L 239.717625 288.430125 
L 239.717625 173.990207 
L 238.693625 173.990207 
z
" style="fill:#1f77b4;"/>
   </g>
   <g id="patch_149">
    <path clip-path="url(#pb309a7cb6b)" d="M 239.973625 288.430125 
L 240.997625 288.430125 
L 240.997625 173.990207 
L 239.973625 173.990207 
z
" style="fill:#1f77b4;"/>
   </g>
   <g id="patch_150">
    <path clip-path="url(#pb309a7cb6b)" d="M 241.253625 288.430125 
L 242.277625 288.430125 
L 242.277625 173.990207 
L 241.253625 173.990207 
z
" style="fill:#1f77b4;"/>
   </g>
   <g id="patch_151">
    <path clip-path="url(#pb309a7cb6b)" d="M 242.533625 288.430125 
L 243.557625 288.430125 
L 243.557625 173.990207 
L 242.533625 173.990207 
z
" style="fill:#1f77b4;"/>
   </g>
   <g id="patch_152">
    <path clip-path="url(#pb309a7cb6b)" d="M 243.813625 288.430125 
L 244.837625 288.430125 
L 244.837625 173.990207 
L 243.813625 173.990207 
z
" style="fill:#1f77b4;"/>
   </g>
   <g id="patch_153">
    <path clip-path="url(#pb309a7cb6b)" d="M 245.093625 288.430125 
L 246.117625 288.430125 
L 246.117625 173.990207 
L 245.093625 173.990207 
z
" style="fill:#1f77b4;"/>
   </g>
   <g id="patch_154">
    <path clip-path="url(#pb309a7cb6b)" d="M 246.373625 288.430125 
L 247.397625 288.430125 
L 247.397625 173.990207 
L 246.373625 173.990207 
z
" style="fill:#1f77b4;"/>
   </g>
   <g id="patch_155">
    <path clip-path="url(#pb309a7cb6b)" d="M 247.653625 288.430125 
L 248.677625 288.430125 
L 248.677625 173.990207 
L 247.653625 173.990207 
z
" style="fill:#1f77b4;"/>
   </g>
   <g id="patch_156">
    <path clip-path="url(#pb309a7cb6b)" d="M 248.933625 288.430125 
L 249.957625 288.430125 
L 249.957625 173.990207 
L 248.933625 173.990207 
z
" style="fill:#1f77b4;"/>
   </g>
   <g id="patch_157">
    <path clip-path="url(#pb309a7cb6b)" d="M 250.213625 288.430125 
L 251.237625 288.430125 
L 251.237625 173.990207 
L 250.213625 173.990207 
z
" style="fill:#1f77b4;"/>
   </g>
   <g id="patch_158">
    <path clip-path="url(#pb309a7cb6b)" d="M 251.493625 288.430125 
L 252.517625 288.430125 
L 252.517625 173.990207 
L 251.493625 173.990207 
z
" style="fill:#1f77b4;"/>
   </g>
   <g id="patch_159">
    <path clip-path="url(#pb309a7cb6b)" d="M 252.773625 288.430125 
L 253.797625 288.430125 
L 253.797625 173.990207 
L 252.773625 173.990207 
z
" style="fill:#1f77b4;"/>
   </g>
   <g id="patch_160">
    <path clip-path="url(#pb309a7cb6b)" d="M 254.053625 288.430125 
L 255.077625 288.430125 
L 255.077625 173.990207 
L 254.053625 173.990207 
z
" style="fill:#1f77b4;"/>
   </g>
   <g id="patch_161">
    <path clip-path="url(#pb309a7cb6b)" d="M 255.333625 288.430125 
L 256.357625 288.430125 
L 256.357625 173.990207 
L 255.333625 173.990207 
z
" style="fill:#1f77b4;"/>
   </g>
   <g id="patch_162">
    <path clip-path="url(#pb309a7cb6b)" d="M 256.613625 288.430125 
L 257.637625 288.430125 
L 257.637625 173.990207 
L 256.613625 173.990207 
z
" style="fill:#1f77b4;"/>
   </g>
   <g id="patch_163">
    <path clip-path="url(#pb309a7cb6b)" d="M 257.893625 288.430125 
L 258.917625 288.430125 
L 258.917625 173.990207 
L 257.893625 173.990207 
z
" style="fill:#1f77b4;"/>
   </g>
   <g id="patch_164">
    <path clip-path="url(#pb309a7cb6b)" d="M 259.173625 288.430125 
L 260.197625 288.430125 
L 260.197625 173.990207 
L 259.173625 173.990207 
z
" style="fill:#1f77b4;"/>
   </g>
   <g id="patch_165">
    <path clip-path="url(#pb309a7cb6b)" d="M 260.453625 288.430125 
L 261.477625 288.430125 
L 261.477625 173.990207 
L 260.453625 173.990207 
z
" style="fill:#1f77b4;"/>
   </g>
   <g id="patch_166">
    <path clip-path="url(#pb309a7cb6b)" d="M 261.733625 288.430125 
L 262.757625 288.430125 
L 262.757625 174.774043 
L 261.733625 174.774043 
z
" style="fill:#1f77b4;"/>
   </g>
   <g id="patch_167">
    <path clip-path="url(#pb309a7cb6b)" d="M 263.013625 288.430125 
L 264.037625 288.430125 
L 264.037625 173.990207 
L 263.013625 173.990207 
z
" style="fill:#1f77b4;"/>
   </g>
   <g id="patch_168">
    <path clip-path="url(#pb309a7cb6b)" d="M 264.293625 288.430125 
L 265.317625 288.430125 
L 265.317625 173.990207 
L 264.293625 173.990207 
z
" style="fill:#1f77b4;"/>
   </g>
   <g id="patch_169">
    <path clip-path="url(#pb309a7cb6b)" d="M 265.573625 288.430125 
L 266.597625 288.430125 
L 266.597625 173.990207 
L 265.573625 173.990207 
z
" style="fill:#1f77b4;"/>
   </g>
   <g id="patch_170">
    <path clip-path="url(#pb309a7cb6b)" d="M 266.853625 288.430125 
L 267.877625 288.430125 
L 267.877625 173.990207 
L 266.853625 173.990207 
z
" style="fill:#1f77b4;"/>
   </g>
   <g id="patch_171">
    <path clip-path="url(#pb309a7cb6b)" d="M 268.133625 288.430125 
L 269.157625 288.430125 
L 269.157625 173.990207 
L 268.133625 173.990207 
z
" style="fill:#1f77b4;"/>
   </g>
   <g id="patch_172">
    <path clip-path="url(#pb309a7cb6b)" d="M 269.413625 288.430125 
L 270.437625 288.430125 
L 270.437625 173.990207 
L 269.413625 173.990207 
z
" style="fill:#1f77b4;"/>
   </g>
   <g id="patch_173">
    <path clip-path="url(#pb309a7cb6b)" d="M 270.693625 288.430125 
L 271.717625 288.430125 
L 271.717625 173.990207 
L 270.693625 173.990207 
z
" style="fill:#1f77b4;"/>
   </g>
   <g id="patch_174">
    <path clip-path="url(#pb309a7cb6b)" d="M 271.973625 288.430125 
L 272.997625 288.430125 
L 272.997625 173.990207 
L 271.973625 173.990207 
z
" style="fill:#1f77b4;"/>
   </g>
   <g id="patch_175">
    <path clip-path="url(#pb309a7cb6b)" d="M 273.253625 288.430125 
L 274.277625 288.430125 
L 274.277625 173.990207 
L 273.253625 173.990207 
z
" style="fill:#1f77b4;"/>
   </g>
   <g id="patch_176">
    <path clip-path="url(#pb309a7cb6b)" d="M 274.533625 288.430125 
L 275.557625 288.430125 
L 275.557625 173.990207 
L 274.533625 173.990207 
z
" style="fill:#1f77b4;"/>
   </g>
   <g id="patch_177">
    <path clip-path="url(#pb309a7cb6b)" d="M 275.813625 288.430125 
L 276.837625 288.430125 
L 276.837625 173.990207 
L 275.813625 173.990207 
z
" style="fill:#1f77b4;"/>
   </g>
   <g id="patch_178">
    <path clip-path="url(#pb309a7cb6b)" d="M 277.093625 288.430125 
L 278.117625 288.430125 
L 278.117625 173.990207 
L 277.093625 173.990207 
z
" style="fill:#1f77b4;"/>
   </g>
   <g id="patch_179">
    <path clip-path="url(#pb309a7cb6b)" d="M 278.373625 288.430125 
L 279.397625 288.430125 
L 279.397625 173.990207 
L 278.373625 173.990207 
z
" style="fill:#1f77b4;"/>
   </g>
   <g id="patch_180">
    <path clip-path="url(#pb309a7cb6b)" d="M 279.653625 288.430125 
L 280.677625 288.430125 
L 280.677625 173.990207 
L 279.653625 173.990207 
z
" style="fill:#1f77b4;"/>
   </g>
   <g id="patch_181">
    <path clip-path="url(#pb309a7cb6b)" d="M 280.933625 288.430125 
L 281.957625 288.430125 
L 281.957625 173.990207 
L 280.933625 173.990207 
z
" style="fill:#1f77b4;"/>
   </g>
   <g id="patch_182">
    <path clip-path="url(#pb309a7cb6b)" d="M 282.213625 288.430125 
L 283.237625 288.430125 
L 283.237625 173.990207 
L 282.213625 173.990207 
z
" style="fill:#1f77b4;"/>
   </g>
   <g id="patch_183">
    <path clip-path="url(#pb309a7cb6b)" d="M 283.493625 288.430125 
L 284.517625 288.430125 
L 284.517625 173.990207 
L 283.493625 173.990207 
z
" style="fill:#1f77b4;"/>
   </g>
   <g id="patch_184">
    <path clip-path="url(#pb309a7cb6b)" d="M 284.773625 288.430125 
L 285.797625 288.430125 
L 285.797625 173.990207 
L 284.773625 173.990207 
z
" style="fill:#1f77b4;"/>
   </g>
   <g id="patch_185">
    <path clip-path="url(#pb309a7cb6b)" d="M 286.053625 288.430125 
L 287.077625 288.430125 
L 287.077625 173.990207 
L 286.053625 173.990207 
z
" style="fill:#1f77b4;"/>
   </g>
   <g id="patch_186">
    <path clip-path="url(#pb309a7cb6b)" d="M 287.333625 288.430125 
L 288.357625 288.430125 
L 288.357625 173.990207 
L 287.333625 173.990207 
z
" style="fill:#1f77b4;"/>
   </g>
   <g id="patch_187">
    <path clip-path="url(#pb309a7cb6b)" d="M 288.613625 288.430125 
L 289.637625 288.430125 
L 289.637625 173.990207 
L 288.613625 173.990207 
z
" style="fill:#1f77b4;"/>
   </g>
   <g id="patch_188">
    <path clip-path="url(#pb309a7cb6b)" d="M 289.893625 288.430125 
L 290.917625 288.430125 
L 290.917625 173.990207 
L 289.893625 173.990207 
z
" style="fill:#1f77b4;"/>
   </g>
   <g id="patch_189">
    <path clip-path="url(#pb309a7cb6b)" d="M 291.173625 288.430125 
L 292.197625 288.430125 
L 292.197625 173.990207 
L 291.173625 173.990207 
z
" style="fill:#1f77b4;"/>
   </g>
   <g id="patch_190">
    <path clip-path="url(#pb309a7cb6b)" d="M 292.453625 288.430125 
L 293.477625 288.430125 
L 293.477625 173.990207 
L 292.453625 173.990207 
z
" style="fill:#1f77b4;"/>
   </g>
   <g id="patch_191">
    <path clip-path="url(#pb309a7cb6b)" d="M 293.733625 288.430125 
L 294.757625 288.430125 
L 294.757625 173.990207 
L 293.733625 173.990207 
z
" style="fill:#1f77b4;"/>
   </g>
   <g id="patch_192">
    <path clip-path="url(#pb309a7cb6b)" d="M 295.013625 288.430125 
L 296.037625 288.430125 
L 296.037625 173.990207 
L 295.013625 173.990207 
z
" style="fill:#1f77b4;"/>
   </g>
   <g id="patch_193">
    <path clip-path="url(#pb309a7cb6b)" d="M 296.293625 288.430125 
L 297.317625 288.430125 
L 297.317625 173.990207 
L 296.293625 173.990207 
z
" style="fill:#1f77b4;"/>
   </g>
   <g id="patch_194">
    <path clip-path="url(#pb309a7cb6b)" d="M 297.573625 288.430125 
L 298.597625 288.430125 
L 298.597625 173.990207 
L 297.573625 173.990207 
z
" style="fill:#1f77b4;"/>
   </g>
   <g id="patch_195">
    <path clip-path="url(#pb309a7cb6b)" d="M 298.853625 288.430125 
L 299.877625 288.430125 
L 299.877625 173.990207 
L 298.853625 173.990207 
z
" style="fill:#1f77b4;"/>
   </g>
   <g id="patch_196">
    <path clip-path="url(#pb309a7cb6b)" d="M 300.133625 288.430125 
L 301.157625 288.430125 
L 301.157625 173.990207 
L 300.133625 173.990207 
z
" style="fill:#1f77b4;"/>
   </g>
   <g id="patch_197">
    <path clip-path="url(#pb309a7cb6b)" d="M 301.413625 288.430125 
L 302.437625 288.430125 
L 302.437625 173.990207 
L 301.413625 173.990207 
z
" style="fill:#1f77b4;"/>
   </g>
   <g id="patch_198">
    <path clip-path="url(#pb309a7cb6b)" d="M 302.693625 288.430125 
L 303.717625 288.430125 
L 303.717625 173.990207 
L 302.693625 173.990207 
z
" style="fill:#1f77b4;"/>
   </g>
   <g id="patch_199">
    <path clip-path="url(#pb309a7cb6b)" d="M 303.973625 288.430125 
L 304.997625 288.430125 
L 304.997625 173.990207 
L 303.973625 173.990207 
z
" style="fill:#1f77b4;"/>
   </g>
   <g id="patch_200">
    <path clip-path="url(#pb309a7cb6b)" d="M 305.253625 288.430125 
L 306.277625 288.430125 
L 306.277625 173.990207 
L 305.253625 173.990207 
z
" style="fill:#1f77b4;"/>
   </g>
   <g id="patch_201">
    <path clip-path="url(#pb309a7cb6b)" d="M 306.533625 288.430125 
L 307.557625 288.430125 
L 307.557625 173.990207 
L 306.533625 173.990207 
z
" style="fill:#1f77b4;"/>
   </g>
   <g id="patch_202">
    <path clip-path="url(#pb309a7cb6b)" d="M 307.813625 288.430125 
L 308.837625 288.430125 
L 308.837625 173.990207 
L 307.813625 173.990207 
z
" style="fill:#1f77b4;"/>
   </g>
   <g id="patch_203">
    <path clip-path="url(#pb309a7cb6b)" d="M 309.093625 288.430125 
L 310.117625 288.430125 
L 310.117625 173.990207 
L 309.093625 173.990207 
z
" style="fill:#1f77b4;"/>
   </g>
   <g id="patch_204">
    <path clip-path="url(#pb309a7cb6b)" d="M 310.373625 288.430125 
L 311.397625 288.430125 
L 311.397625 173.990207 
L 310.373625 173.990207 
z
" style="fill:#1f77b4;"/>
   </g>
   <g id="patch_205">
    <path clip-path="url(#pb309a7cb6b)" d="M 311.653625 288.430125 
L 312.677625 288.430125 
L 312.677625 173.990207 
L 311.653625 173.990207 
z
" style="fill:#1f77b4;"/>
   </g>
   <g id="patch_206">
    <path clip-path="url(#pb309a7cb6b)" d="M 312.933625 288.430125 
L 313.957625 288.430125 
L 313.957625 173.990207 
L 312.933625 173.990207 
z
" style="fill:#1f77b4;"/>
   </g>
   <g id="patch_207">
    <path clip-path="url(#pb309a7cb6b)" d="M 314.213625 288.430125 
L 315.237625 288.430125 
L 315.237625 173.990207 
L 314.213625 173.990207 
z
" style="fill:#1f77b4;"/>
   </g>
   <g id="patch_208">
    <path clip-path="url(#pb309a7cb6b)" d="M 315.493625 288.430125 
L 316.517625 288.430125 
L 316.517625 173.990207 
L 315.493625 173.990207 
z
" style="fill:#1f77b4;"/>
   </g>
   <g id="patch_209">
    <path clip-path="url(#pb309a7cb6b)" d="M 316.773625 288.430125 
L 317.797625 288.430125 
L 317.797625 173.990207 
L 316.773625 173.990207 
z
" style="fill:#1f77b4;"/>
   </g>
   <g id="patch_210">
    <path clip-path="url(#pb309a7cb6b)" d="M 318.053625 288.430125 
L 319.077625 288.430125 
L 319.077625 173.990207 
L 318.053625 173.990207 
z
" style="fill:#1f77b4;"/>
   </g>
   <g id="patch_211">
    <path clip-path="url(#pb309a7cb6b)" d="M 319.333625 288.430125 
L 320.357625 288.430125 
L 320.357625 173.990207 
L 319.333625 173.990207 
z
" style="fill:#1f77b4;"/>
   </g>
   <g id="patch_212">
    <path clip-path="url(#pb309a7cb6b)" d="M 320.613625 288.430125 
L 321.637625 288.430125 
L 321.637625 173.990207 
L 320.613625 173.990207 
z
" style="fill:#1f77b4;"/>
   </g>
   <g id="patch_213">
    <path clip-path="url(#pb309a7cb6b)" d="M 321.893625 288.430125 
L 322.917625 288.430125 
L 322.917625 173.59829 
L 321.893625 173.59829 
z
" style="fill:#1f77b4;"/>
   </g>
   <g id="patch_214">
    <path clip-path="url(#pb309a7cb6b)" d="M 323.173625 288.430125 
L 324.197625 288.430125 
L 324.197625 173.59829 
L 323.173625 173.59829 
z
" style="fill:#1f77b4;"/>
   </g>
   <g id="patch_215">
    <path clip-path="url(#pb309a7cb6b)" d="M 324.453625 288.430125 
L 325.477625 288.430125 
L 325.477625 173.59829 
L 324.453625 173.59829 
z
" style="fill:#1f77b4;"/>
   </g>
   <g id="patch_216">
    <path clip-path="url(#pb309a7cb6b)" d="M 325.733625 288.430125 
L 326.757625 288.430125 
L 326.757625 173.59829 
L 325.733625 173.59829 
z
" style="fill:#1f77b4;"/>
   </g>
   <g id="patch_217">
    <path clip-path="url(#pb309a7cb6b)" d="M 327.013625 288.430125 
L 328.037625 288.430125 
L 328.037625 173.59829 
L 327.013625 173.59829 
z
" style="fill:#1f77b4;"/>
   </g>
   <g id="patch_218">
    <path clip-path="url(#pb309a7cb6b)" d="M 328.293625 288.430125 
L 329.317625 288.430125 
L 329.317625 173.59829 
L 328.293625 173.59829 
z
" style="fill:#1f77b4;"/>
   </g>
   <g id="patch_219">
    <path clip-path="url(#pb309a7cb6b)" d="M 329.573625 288.430125 
L 330.597625 288.430125 
L 330.597625 173.59829 
L 329.573625 173.59829 
z
" style="fill:#1f77b4;"/>
   </g>
   <g id="patch_220">
    <path clip-path="url(#pb309a7cb6b)" d="M 330.853625 288.430125 
L 331.877625 288.430125 
L 331.877625 173.59829 
L 330.853625 173.59829 
z
" style="fill:#1f77b4;"/>
   </g>
   <g id="patch_221">
    <path clip-path="url(#pb309a7cb6b)" d="M 332.133625 288.430125 
L 333.157625 288.430125 
L 333.157625 173.206372 
L 332.133625 173.206372 
z
" style="fill:#1f77b4;"/>
   </g>
   <g id="patch_222">
    <path clip-path="url(#pb309a7cb6b)" d="M 333.413625 288.430125 
L 334.437625 288.430125 
L 334.437625 173.206372 
L 333.413625 173.206372 
z
" style="fill:#1f77b4;"/>
   </g>
   <g id="patch_223">
    <path clip-path="url(#pb309a7cb6b)" d="M 334.693625 288.430125 
L 335.717625 288.430125 
L 335.717625 172.422537 
L 334.693625 172.422537 
z
" style="fill:#1f77b4;"/>
   </g>
   <g id="patch_224">
    <path clip-path="url(#pb309a7cb6b)" d="M 335.973625 288.430125 
L 336.997625 288.430125 
L 336.997625 172.422537 
L 335.973625 172.422537 
z
" style="fill:#1f77b4;"/>
   </g>
   <g id="patch_225">
    <path clip-path="url(#pb309a7cb6b)" d="M 337.253625 288.430125 
L 338.277625 288.430125 
L 338.277625 172.422537 
L 337.253625 172.422537 
z
" style="fill:#1f77b4;"/>
   </g>
   <g id="patch_226">
    <path clip-path="url(#pb309a7cb6b)" d="M 338.533625 288.430125 
L 339.557625 288.430125 
L 339.557625 172.422537 
L 338.533625 172.422537 
z
" style="fill:#1f77b4;"/>
   </g>
   <g id="patch_227">
    <path clip-path="url(#pb309a7cb6b)" d="M 339.813625 288.430125 
L 340.837625 288.430125 
L 340.837625 172.422537 
L 339.813625 172.422537 
z
" style="fill:#1f77b4;"/>
   </g>
   <g id="patch_228">
    <path clip-path="url(#pb309a7cb6b)" d="M 341.093625 288.430125 
L 342.117625 288.430125 
L 342.117625 171.246785 
L 341.093625 171.246785 
z
" style="fill:#1f77b4;"/>
   </g>
   <g id="patch_229">
    <path clip-path="url(#pb309a7cb6b)" d="M 342.373625 288.430125 
L 343.397625 288.430125 
L 343.397625 170.854867 
L 342.373625 170.854867 
z
" style="fill:#1f77b4;"/>
   </g>
   <g id="patch_230">
    <path clip-path="url(#pb309a7cb6b)" d="M 343.653625 288.430125 
L 344.677625 288.430125 
L 344.677625 169.287197 
L 343.653625 169.287197 
z
" style="fill:#1f77b4;"/>
   </g>
   <g id="patch_231">
    <path clip-path="url(#pb309a7cb6b)" d="M 344.933625 288.430125 
L 345.957625 288.430125 
L 345.957625 168.503362 
L 344.933625 168.503362 
z
" style="fill:#1f77b4;"/>
   </g>
   <g id="patch_232">
    <path clip-path="url(#pb309a7cb6b)" d="M 346.213625 288.430125 
L 347.237625 288.430125 
L 347.237625 167.719527 
L 346.213625 167.719527 
z
" style="fill:#1f77b4;"/>
   </g>
   <g id="patch_233">
    <path clip-path="url(#pb309a7cb6b)" d="M 347.493625 288.430125 
L 348.517625 288.430125 
L 348.517625 166.151857 
L 347.493625 166.151857 
z
" style="fill:#1f77b4;"/>
   </g>
   <g id="patch_234">
    <path clip-path="url(#pb309a7cb6b)" d="M 348.773625 288.430125 
L 349.797625 288.430125 
L 349.797625 164.976104 
L 348.773625 164.976104 
z
" style="fill:#1f77b4;"/>
   </g>
   <g id="patch_235">
    <path clip-path="url(#pb309a7cb6b)" d="M 350.053625 288.430125 
L 351.077625 288.430125 
L 351.077625 163.408434 
L 350.053625 163.408434 
z
" style="fill:#1f77b4;"/>
   </g>
   <g id="patch_236">
    <path clip-path="url(#pb309a7cb6b)" d="M 351.333625 288.430125 
L 352.357625 288.430125 
L 352.357625 163.016517 
L 351.333625 163.016517 
z
" style="fill:#1f77b4;"/>
   </g>
   <g id="patch_237">
    <path clip-path="url(#pb309a7cb6b)" d="M 352.613625 288.430125 
L 353.637625 288.430125 
L 353.637625 162.232682 
L 352.613625 162.232682 
z
" style="fill:#1f77b4;"/>
   </g>
   <g id="patch_238">
    <path clip-path="url(#pb309a7cb6b)" d="M 353.893625 288.430125 
L 354.917625 288.430125 
L 354.917625 160.665012 
L 353.893625 160.665012 
z
" style="fill:#1f77b4;"/>
   </g>
   <g id="patch_239">
    <path clip-path="url(#pb309a7cb6b)" d="M 355.173625 288.430125 
L 356.197625 288.430125 
L 356.197625 159.097341 
L 355.173625 159.097341 
z
" style="fill:#1f77b4;"/>
   </g>
   <g id="patch_240">
    <path clip-path="url(#pb309a7cb6b)" d="M 356.453625 288.430125 
L 357.477625 288.430125 
L 357.477625 156.353919 
L 356.453625 156.353919 
z
" style="fill:#1f77b4;"/>
   </g>
   <g id="patch_241">
    <path clip-path="url(#pb309a7cb6b)" d="M 357.733625 288.430125 
L 358.757625 288.430125 
L 358.757625 154.786249 
L 357.733625 154.786249 
z
" style="fill:#1f77b4;"/>
   </g>
   <g id="patch_242">
    <path clip-path="url(#pb309a7cb6b)" d="M 359.013625 288.430125 
L 360.037625 288.430125 
L 360.037625 153.218579 
L 359.013625 153.218579 
z
" style="fill:#1f77b4;"/>
   </g>
   <g id="patch_243">
    <path clip-path="url(#pb309a7cb6b)" d="M 360.293625 288.430125 
L 361.317625 288.430125 
L 361.317625 151.258991 
L 360.293625 151.258991 
z
" style="fill:#1f77b4;"/>
   </g>
   <g id="patch_244">
    <path clip-path="url(#pb309a7cb6b)" d="M 361.573625 288.430125 
L 362.597625 288.430125 
L 362.597625 147.731733 
L 361.573625 147.731733 
z
" style="fill:#1f77b4;"/>
   </g>
   <g id="patch_245">
    <path clip-path="url(#pb309a7cb6b)" d="M 362.853625 288.430125 
L 363.877625 288.430125 
L 363.877625 145.380228 
L 362.853625 145.380228 
z
" style="fill:#1f77b4;"/>
   </g>
   <g id="patch_246">
    <path clip-path="url(#pb309a7cb6b)" d="M 364.133625 288.430125 
L 365.157625 288.430125 
L 365.157625 141.85297 
L 364.133625 141.85297 
z
" style="fill:#1f77b4;"/>
   </g>
   <g id="patch_247">
    <path clip-path="url(#pb309a7cb6b)" d="M 365.413625 288.430125 
L 366.437625 288.430125 
L 366.437625 139.893383 
L 365.413625 139.893383 
z
" style="fill:#1f77b4;"/>
   </g>
   <g id="patch_248">
    <path clip-path="url(#pb309a7cb6b)" d="M 366.693625 288.430125 
L 367.717625 288.430125 
L 367.717625 132.44695 
L 366.693625 132.44695 
z
" style="fill:#1f77b4;"/>
   </g>
   <g id="patch_249">
    <path clip-path="url(#pb309a7cb6b)" d="M 367.973625 288.430125 
L 368.997625 288.430125 
L 368.997625 129.703527 
L 367.973625 129.703527 
z
" style="fill:#1f77b4;"/>
   </g>
   <g id="patch_250">
    <path clip-path="url(#pb309a7cb6b)" d="M 369.253625 288.430125 
L 370.277625 288.430125 
L 370.277625 126.176269 
L 369.253625 126.176269 
z
" style="fill:#1f77b4;"/>
   </g>
   <g id="patch_251">
    <path clip-path="url(#pb309a7cb6b)" d="M 370.533625 288.430125 
L 371.557625 288.430125 
L 371.557625 121.865177 
L 370.533625 121.865177 
z
" style="fill:#1f77b4;"/>
   </g>
   <g id="patch_252">
    <path clip-path="url(#pb309a7cb6b)" d="M 371.813625 288.430125 
L 372.837625 288.430125 
L 372.837625 116.770249 
L 371.813625 116.770249 
z
" style="fill:#1f77b4;"/>
   </g>
   <g id="patch_253">
    <path clip-path="url(#pb309a7cb6b)" d="M 373.093625 288.430125 
L 374.117625 288.430125 
L 374.117625 113.634909 
L 373.093625 113.634909 
z
" style="fill:#1f77b4;"/>
   </g>
   <g id="patch_254">
    <path clip-path="url(#pb309a7cb6b)" d="M 374.373625 288.430125 
L 375.397625 288.430125 
L 375.397625 107.364228 
L 374.373625 107.364228 
z
" style="fill:#1f77b4;"/>
   </g>
   <g id="patch_255">
    <path clip-path="url(#pb309a7cb6b)" d="M 375.653625 288.430125 
L 376.677625 288.430125 
L 376.677625 104.620805 
L 375.653625 104.620805 
z
" style="fill:#1f77b4;"/>
   </g>
   <g id="patch_256">
    <path clip-path="url(#pb309a7cb6b)" d="M 376.933625 288.430125 
L 377.957625 288.430125 
L 377.957625 102.661218 
L 376.933625 102.661218 
z
" style="fill:#1f77b4;"/>
   </g>
   <g id="patch_257">
    <path clip-path="url(#pb309a7cb6b)" d="M 378.213625 288.430125 
L 379.237625 288.430125 
L 379.237625 96.390537 
L 378.213625 96.390537 
z
" style="fill:#1f77b4;"/>
   </g>
   <g id="patch_258">
    <path clip-path="url(#pb309a7cb6b)" d="M 379.493625 288.430125 
L 380.517625 288.430125 
L 380.517625 93.255197 
L 379.493625 93.255197 
z
" style="fill:#1f77b4;"/>
   </g>
   <g id="patch_259">
    <path clip-path="url(#pb309a7cb6b)" d="M 380.773625 288.430125 
L 381.797625 288.430125 
L 381.797625 88.944104 
L 380.773625 88.944104 
z
" style="fill:#1f77b4;"/>
   </g>
   <g id="patch_260">
    <path clip-path="url(#pb309a7cb6b)" d="M 382.053625 288.430125 
L 383.077625 288.430125 
L 383.077625 84.633012 
L 382.053625 84.633012 
z
" style="fill:#1f77b4;"/>
   </g>
   <g id="patch_261">
    <path clip-path="url(#pb309a7cb6b)" d="M 383.333625 288.430125 
L 384.357625 288.430125 
L 384.357625 83.457259 
L 383.333625 83.457259 
z
" style="fill:#1f77b4;"/>
   </g>
   <g id="patch_262">
    <path clip-path="url(#pb309a7cb6b)" d="M 384.613625 288.430125 
L 385.637625 288.430125 
L 385.637625 80.713836 
L 384.613625 80.713836 
z
" style="fill:#1f77b4;"/>
   </g>
   <g id="patch_263">
    <path clip-path="url(#pb309a7cb6b)" d="M 385.893625 288.430125 
L 386.917625 288.430125 
L 386.917625 80.321919 
L 385.893625 80.321919 
z
" style="fill:#1f77b4;"/>
   </g>
   <g id="patch_264">
    <path clip-path="url(#pb309a7cb6b)" d="M 387.173625 288.430125 
L 388.197625 288.430125 
L 388.197625 78.754249 
L 387.173625 78.754249 
z
" style="fill:#1f77b4;"/>
   </g>
   <g id="patch_265">
    <path clip-path="url(#pb309a7cb6b)" d="M 388.453625 288.430125 
L 389.477625 288.430125 
L 389.477625 76.010826 
L 388.453625 76.010826 
z
" style="fill:#1f77b4;"/>
   </g>
   <g id="patch_266">
    <path clip-path="url(#pb309a7cb6b)" d="M 389.733625 288.430125 
L 390.757625 288.430125 
L 390.757625 69.740146 
L 389.733625 69.740146 
z
" style="fill:#1f77b4;"/>
   </g>
   <g id="patch_267">
    <path clip-path="url(#pb309a7cb6b)" d="M 391.013625 288.430125 
L 392.037625 288.430125 
L 392.037625 65.429053 
L 391.013625 65.429053 
z
" style="fill:#1f77b4;"/>
   </g>
   <g id="patch_268">
    <path clip-path="url(#pb309a7cb6b)" d="M 392.293625 288.430125 
L 393.317625 288.430125 
L 393.317625 64.2533 
L 392.293625 64.2533 
z
" style="fill:#1f77b4;"/>
   </g>
   <g id="patch_269">
    <path clip-path="url(#pb309a7cb6b)" d="M 393.573625 288.430125 
L 394.597625 288.430125 
L 394.597625 61.901795 
L 393.573625 61.901795 
z
" style="fill:#1f77b4;"/>
   </g>
   <g id="patch_270">
    <path clip-path="url(#pb309a7cb6b)" d="M 394.853625 288.430125 
L 395.877625 288.430125 
L 395.877625 59.942207 
L 394.853625 59.942207 
z
" style="fill:#1f77b4;"/>
   </g>
   <g id="patch_271">
    <path clip-path="url(#pb309a7cb6b)" d="M 396.133625 288.430125 
L 397.157625 288.430125 
L 397.157625 55.631115 
L 396.133625 55.631115 
z
" style="fill:#1f77b4;"/>
   </g>
   <g id="patch_272">
    <path clip-path="url(#pb309a7cb6b)" d="M 397.413625 288.430125 
L 398.437625 288.430125 
L 398.437625 51.711939 
L 397.413625 51.711939 
z
" style="fill:#1f77b4;"/>
   </g>
   <g id="patch_273">
    <path clip-path="url(#pb309a7cb6b)" d="M 398.693625 288.430125 
L 399.717625 288.430125 
L 399.717625 48.576599 
L 398.693625 48.576599 
z
" style="fill:#1f77b4;"/>
   </g>
   <g id="patch_274">
    <path clip-path="url(#pb309a7cb6b)" d="M 399.973625 288.430125 
L 400.997625 288.430125 
L 400.997625 41.914001 
L 399.973625 41.914001 
z
" style="fill:#1f77b4;"/>
   </g>
   <g id="patch_275">
    <path clip-path="url(#pb309a7cb6b)" d="M 401.253625 288.430125 
L 402.277625 288.430125 
L 402.277625 39.954414 
L 401.253625 39.954414 
z
" style="fill:#1f77b4;"/>
   </g>
   <g id="patch_276">
    <path clip-path="url(#pb309a7cb6b)" d="M 402.533625 288.430125 
L 403.557625 288.430125 
L 403.557625 38.386744 
L 402.533625 38.386744 
z
" style="fill:#1f77b4;"/>
   </g>
   <g id="patch_277">
    <path clip-path="url(#pb309a7cb6b)" d="M 403.813625 288.430125 
L 404.837625 288.430125 
L 404.837625 34.859486 
L 403.813625 34.859486 
z
" style="fill:#1f77b4;"/>
   </g>
   <g id="patch_278">
    <path clip-path="url(#pb309a7cb6b)" d="M 405.093625 288.430125 
L 406.117625 288.430125 
L 406.117625 30.940311 
L 405.093625 30.940311 
z
" style="fill:#1f77b4;"/>
   </g>
   <g id="patch_279">
    <path clip-path="url(#pb309a7cb6b)" d="M 406.373625 288.430125 
L 407.397625 288.430125 
L 407.397625 26.629218 
L 406.373625 26.629218 
z
" style="fill:#1f77b4;"/>
   </g>
   <g id="patch_280">
    <path clip-path="url(#pb309a7cb6b)" d="M 407.653625 288.430125 
L 408.677625 288.430125 
L 408.677625 24.66963 
L 407.653625 24.66963 
z
" style="fill:#1f77b4;"/>
   </g>
   <g id="patch_281">
    <path clip-path="url(#pb309a7cb6b)" d="M 408.933625 288.430125 
L 409.957625 288.430125 
L 409.957625 22.318125 
L 408.933625 22.318125 
z
" style="fill:#1f77b4;"/>
   </g>
   <g id="matplotlib.axis_1">
    <g id="xtick_1">
     <g id="line2d_1">
      <defs>
       <path d="M 0 0 
L 0 3.5 
" id="mf2e15ab923" style="stroke:#000000;stroke-width:0.8;"/>
      </defs>
      <g>
       <use style="stroke:#000000;stroke-width:0.8;" x="75.365625" xlink:href="#mf2e15ab923" y="288.430125"/>
      </g>
     </g>
     <g id="text_1">
      <!-- 2020-04 -->
      <g transform="translate(78.125 337.212937)rotate(-90)scale(0.1 -0.1)">
       <defs>
        <path d="M 19.1875 8.296875 
L 53.609375 8.296875 
L 53.609375 0 
L 7.328125 0 
L 7.328125 8.296875 
Q 12.9375 14.109375 22.625 23.890625 
Q 32.328125 33.6875 34.8125 36.53125 
Q 39.546875 41.84375 41.421875 45.53125 
Q 43.3125 49.21875 43.3125 52.78125 
Q 43.3125 58.59375 39.234375 62.25 
Q 35.15625 65.921875 28.609375 65.921875 
Q 23.96875 65.921875 18.8125 64.3125 
Q 13.671875 62.703125 7.8125 59.421875 
L 7.8125 69.390625 
Q 13.765625 71.78125 18.9375 73 
Q 24.125 74.21875 28.421875 74.21875 
Q 39.75 74.21875 46.484375 68.546875 
Q 53.21875 62.890625 53.21875 53.421875 
Q 53.21875 48.921875 51.53125 44.890625 
Q 49.859375 40.875 45.40625 35.40625 
Q 44.1875 33.984375 37.640625 27.21875 
Q 31.109375 20.453125 19.1875 8.296875 
z
" id="DejaVuSans-50"/>
        <path d="M 31.78125 66.40625 
Q 24.171875 66.40625 20.328125 58.90625 
Q 16.5 51.421875 16.5 36.375 
Q 16.5 21.390625 20.328125 13.890625 
Q 24.171875 6.390625 31.78125 6.390625 
Q 39.453125 6.390625 43.28125 13.890625 
Q 47.125 21.390625 47.125 36.375 
Q 47.125 51.421875 43.28125 58.90625 
Q 39.453125 66.40625 31.78125 66.40625 
z
M 31.78125 74.21875 
Q 44.046875 74.21875 50.515625 64.515625 
Q 56.984375 54.828125 56.984375 36.375 
Q 56.984375 17.96875 50.515625 8.265625 
Q 44.046875 -1.421875 31.78125 -1.421875 
Q 19.53125 -1.421875 13.0625 8.265625 
Q 6.59375 17.96875 6.59375 36.375 
Q 6.59375 54.828125 13.0625 64.515625 
Q 19.53125 74.21875 31.78125 74.21875 
z
" id="DejaVuSans-48"/>
        <path d="M 4.890625 31.390625 
L 31.203125 31.390625 
L 31.203125 23.390625 
L 4.890625 23.390625 
z
" id="DejaVuSans-45"/>
        <path d="M 37.796875 64.3125 
L 12.890625 25.390625 
L 37.796875 25.390625 
z
M 35.203125 72.90625 
L 47.609375 72.90625 
L 47.609375 25.390625 
L 58.015625 25.390625 
L 58.015625 17.1875 
L 47.609375 17.1875 
L 47.609375 0 
L 37.796875 0 
L 37.796875 17.1875 
L 4.890625 17.1875 
L 4.890625 26.703125 
z
" id="DejaVuSans-52"/>
       </defs>
       <use xlink:href="#DejaVuSans-50"/>
       <use x="63.623047" xlink:href="#DejaVuSans-48"/>
       <use x="127.246094" xlink:href="#DejaVuSans-50"/>
       <use x="190.869141" xlink:href="#DejaVuSans-48"/>
       <use x="254.492188" xlink:href="#DejaVuSans-45"/>
       <use x="290.576172" xlink:href="#DejaVuSans-48"/>
       <use x="354.199219" xlink:href="#DejaVuSans-52"/>
      </g>
     </g>
    </g>
    <g id="xtick_2">
     <g id="line2d_2">
      <g>
       <use style="stroke:#000000;stroke-width:0.8;" x="113.765625" xlink:href="#mf2e15ab923" y="288.430125"/>
      </g>
     </g>
     <g id="text_2">
      <!-- 2020-05 -->
      <g transform="translate(116.525 337.212937)rotate(-90)scale(0.1 -0.1)">
       <defs>
        <path d="M 10.796875 72.90625 
L 49.515625 72.90625 
L 49.515625 64.59375 
L 19.828125 64.59375 
L 19.828125 46.734375 
Q 21.96875 47.46875 24.109375 47.828125 
Q 26.265625 48.1875 28.421875 48.1875 
Q 40.625 48.1875 47.75 41.5 
Q 54.890625 34.8125 54.890625 23.390625 
Q 54.890625 11.625 47.5625 5.09375 
Q 40.234375 -1.421875 26.90625 -1.421875 
Q 22.3125 -1.421875 17.546875 -0.640625 
Q 12.796875 0.140625 7.71875 1.703125 
L 7.71875 11.625 
Q 12.109375 9.234375 16.796875 8.0625 
Q 21.484375 6.890625 26.703125 6.890625 
Q 35.15625 6.890625 40.078125 11.328125 
Q 45.015625 15.765625 45.015625 23.390625 
Q 45.015625 31 40.078125 35.4375 
Q 35.15625 39.890625 26.703125 39.890625 
Q 22.75 39.890625 18.8125 39.015625 
Q 14.890625 38.140625 10.796875 36.28125 
z
" id="DejaVuSans-53"/>
       </defs>
       <use xlink:href="#DejaVuSans-50"/>
       <use x="63.623047" xlink:href="#DejaVuSans-48"/>
       <use x="127.246094" xlink:href="#DejaVuSans-50"/>
       <use x="190.869141" xlink:href="#DejaVuSans-48"/>
       <use x="254.492188" xlink:href="#DejaVuSans-45"/>
       <use x="290.576172" xlink:href="#DejaVuSans-48"/>
       <use x="354.199219" xlink:href="#DejaVuSans-53"/>
      </g>
     </g>
    </g>
    <g id="xtick_3">
     <g id="line2d_3">
      <g>
       <use style="stroke:#000000;stroke-width:0.8;" x="153.445625" xlink:href="#mf2e15ab923" y="288.430125"/>
      </g>
     </g>
     <g id="text_3">
      <!-- 2020-06 -->
      <g transform="translate(156.205 337.212937)rotate(-90)scale(0.1 -0.1)">
       <defs>
        <path d="M 33.015625 40.375 
Q 26.375 40.375 22.484375 35.828125 
Q 18.609375 31.296875 18.609375 23.390625 
Q 18.609375 15.53125 22.484375 10.953125 
Q 26.375 6.390625 33.015625 6.390625 
Q 39.65625 6.390625 43.53125 10.953125 
Q 47.40625 15.53125 47.40625 23.390625 
Q 47.40625 31.296875 43.53125 35.828125 
Q 39.65625 40.375 33.015625 40.375 
z
M 52.59375 71.296875 
L 52.59375 62.3125 
Q 48.875 64.0625 45.09375 64.984375 
Q 41.3125 65.921875 37.59375 65.921875 
Q 27.828125 65.921875 22.671875 59.328125 
Q 17.53125 52.734375 16.796875 39.40625 
Q 19.671875 43.65625 24.015625 45.921875 
Q 28.375 48.1875 33.59375 48.1875 
Q 44.578125 48.1875 50.953125 41.515625 
Q 57.328125 34.859375 57.328125 23.390625 
Q 57.328125 12.15625 50.6875 5.359375 
Q 44.046875 -1.421875 33.015625 -1.421875 
Q 20.359375 -1.421875 13.671875 8.265625 
Q 6.984375 17.96875 6.984375 36.375 
Q 6.984375 53.65625 15.1875 63.9375 
Q 23.390625 74.21875 37.203125 74.21875 
Q 40.921875 74.21875 44.703125 73.484375 
Q 48.484375 72.75 52.59375 71.296875 
z
" id="DejaVuSans-54"/>
       </defs>
       <use xlink:href="#DejaVuSans-50"/>
       <use x="63.623047" xlink:href="#DejaVuSans-48"/>
       <use x="127.246094" xlink:href="#DejaVuSans-50"/>
       <use x="190.869141" xlink:href="#DejaVuSans-48"/>
       <use x="254.492188" xlink:href="#DejaVuSans-45"/>
       <use x="290.576172" xlink:href="#DejaVuSans-48"/>
       <use x="354.199219" xlink:href="#DejaVuSans-54"/>
      </g>
     </g>
    </g>
    <g id="xtick_4">
     <g id="line2d_4">
      <g>
       <use style="stroke:#000000;stroke-width:0.8;" x="191.845625" xlink:href="#mf2e15ab923" y="288.430125"/>
      </g>
     </g>
     <g id="text_4">
      <!-- 2020-07 -->
      <g transform="translate(194.605 337.212937)rotate(-90)scale(0.1 -0.1)">
       <defs>
        <path d="M 8.203125 72.90625 
L 55.078125 72.90625 
L 55.078125 68.703125 
L 28.609375 0 
L 18.3125 0 
L 43.21875 64.59375 
L 8.203125 64.59375 
z
" id="DejaVuSans-55"/>
       </defs>
       <use xlink:href="#DejaVuSans-50"/>
       <use x="63.623047" xlink:href="#DejaVuSans-48"/>
       <use x="127.246094" xlink:href="#DejaVuSans-50"/>
       <use x="190.869141" xlink:href="#DejaVuSans-48"/>
       <use x="254.492188" xlink:href="#DejaVuSans-45"/>
       <use x="290.576172" xlink:href="#DejaVuSans-48"/>
       <use x="354.199219" xlink:href="#DejaVuSans-55"/>
      </g>
     </g>
    </g>
    <g id="xtick_5">
     <g id="line2d_5">
      <g>
       <use style="stroke:#000000;stroke-width:0.8;" x="231.525625" xlink:href="#mf2e15ab923" y="288.430125"/>
      </g>
     </g>
     <g id="text_5">
      <!-- 2020-08 -->
      <g transform="translate(234.285 337.212937)rotate(-90)scale(0.1 -0.1)">
       <defs>
        <path d="M 31.78125 34.625 
Q 24.75 34.625 20.71875 30.859375 
Q 16.703125 27.09375 16.703125 20.515625 
Q 16.703125 13.921875 20.71875 10.15625 
Q 24.75 6.390625 31.78125 6.390625 
Q 38.8125 6.390625 42.859375 10.171875 
Q 46.921875 13.96875 46.921875 20.515625 
Q 46.921875 27.09375 42.890625 30.859375 
Q 38.875 34.625 31.78125 34.625 
z
M 21.921875 38.8125 
Q 15.578125 40.375 12.03125 44.71875 
Q 8.5 49.078125 8.5 55.328125 
Q 8.5 64.0625 14.71875 69.140625 
Q 20.953125 74.21875 31.78125 74.21875 
Q 42.671875 74.21875 48.875 69.140625 
Q 55.078125 64.0625 55.078125 55.328125 
Q 55.078125 49.078125 51.53125 44.71875 
Q 48 40.375 41.703125 38.8125 
Q 48.828125 37.15625 52.796875 32.3125 
Q 56.78125 27.484375 56.78125 20.515625 
Q 56.78125 9.90625 50.3125 4.234375 
Q 43.84375 -1.421875 31.78125 -1.421875 
Q 19.734375 -1.421875 13.25 4.234375 
Q 6.78125 9.90625 6.78125 20.515625 
Q 6.78125 27.484375 10.78125 32.3125 
Q 14.796875 37.15625 21.921875 38.8125 
z
M 18.3125 54.390625 
Q 18.3125 48.734375 21.84375 45.5625 
Q 25.390625 42.390625 31.78125 42.390625 
Q 38.140625 42.390625 41.71875 45.5625 
Q 45.3125 48.734375 45.3125 54.390625 
Q 45.3125 60.0625 41.71875 63.234375 
Q 38.140625 66.40625 31.78125 66.40625 
Q 25.390625 66.40625 21.84375 63.234375 
Q 18.3125 60.0625 18.3125 54.390625 
z
" id="DejaVuSans-56"/>
       </defs>
       <use xlink:href="#DejaVuSans-50"/>
       <use x="63.623047" xlink:href="#DejaVuSans-48"/>
       <use x="127.246094" xlink:href="#DejaVuSans-50"/>
       <use x="190.869141" xlink:href="#DejaVuSans-48"/>
       <use x="254.492188" xlink:href="#DejaVuSans-45"/>
       <use x="290.576172" xlink:href="#DejaVuSans-48"/>
       <use x="354.199219" xlink:href="#DejaVuSans-56"/>
      </g>
     </g>
    </g>
    <g id="xtick_6">
     <g id="line2d_6">
      <g>
       <use style="stroke:#000000;stroke-width:0.8;" x="271.205625" xlink:href="#mf2e15ab923" y="288.430125"/>
      </g>
     </g>
     <g id="text_6">
      <!-- 2020-09 -->
      <g transform="translate(273.965 337.212937)rotate(-90)scale(0.1 -0.1)">
       <defs>
        <path d="M 10.984375 1.515625 
L 10.984375 10.5 
Q 14.703125 8.734375 18.5 7.8125 
Q 22.3125 6.890625 25.984375 6.890625 
Q 35.75 6.890625 40.890625 13.453125 
Q 46.046875 20.015625 46.78125 33.40625 
Q 43.953125 29.203125 39.59375 26.953125 
Q 35.25 24.703125 29.984375 24.703125 
Q 19.046875 24.703125 12.671875 31.3125 
Q 6.296875 37.9375 6.296875 49.421875 
Q 6.296875 60.640625 12.9375 67.421875 
Q 19.578125 74.21875 30.609375 74.21875 
Q 43.265625 74.21875 49.921875 64.515625 
Q 56.59375 54.828125 56.59375 36.375 
Q 56.59375 19.140625 48.40625 8.859375 
Q 40.234375 -1.421875 26.421875 -1.421875 
Q 22.703125 -1.421875 18.890625 -0.6875 
Q 15.09375 0.046875 10.984375 1.515625 
z
M 30.609375 32.421875 
Q 37.25 32.421875 41.125 36.953125 
Q 45.015625 41.5 45.015625 49.421875 
Q 45.015625 57.28125 41.125 61.84375 
Q 37.25 66.40625 30.609375 66.40625 
Q 23.96875 66.40625 20.09375 61.84375 
Q 16.21875 57.28125 16.21875 49.421875 
Q 16.21875 41.5 20.09375 36.953125 
Q 23.96875 32.421875 30.609375 32.421875 
z
" id="DejaVuSans-57"/>
       </defs>
       <use xlink:href="#DejaVuSans-50"/>
       <use x="63.623047" xlink:href="#DejaVuSans-48"/>
       <use x="127.246094" xlink:href="#DejaVuSans-50"/>
       <use x="190.869141" xlink:href="#DejaVuSans-48"/>
       <use x="254.492188" xlink:href="#DejaVuSans-45"/>
       <use x="290.576172" xlink:href="#DejaVuSans-48"/>
       <use x="354.199219" xlink:href="#DejaVuSans-57"/>
      </g>
     </g>
    </g>
    <g id="xtick_7">
     <g id="line2d_7">
      <g>
       <use style="stroke:#000000;stroke-width:0.8;" x="309.605625" xlink:href="#mf2e15ab923" y="288.430125"/>
      </g>
     </g>
     <g id="text_7">
      <!-- 2020-10 -->
      <g transform="translate(312.365 337.212937)rotate(-90)scale(0.1 -0.1)">
       <defs>
        <path d="M 12.40625 8.296875 
L 28.515625 8.296875 
L 28.515625 63.921875 
L 10.984375 60.40625 
L 10.984375 69.390625 
L 28.421875 72.90625 
L 38.28125 72.90625 
L 38.28125 8.296875 
L 54.390625 8.296875 
L 54.390625 0 
L 12.40625 0 
z
" id="DejaVuSans-49"/>
       </defs>
       <use xlink:href="#DejaVuSans-50"/>
       <use x="63.623047" xlink:href="#DejaVuSans-48"/>
       <use x="127.246094" xlink:href="#DejaVuSans-50"/>
       <use x="190.869141" xlink:href="#DejaVuSans-48"/>
       <use x="254.492188" xlink:href="#DejaVuSans-45"/>
       <use x="290.576172" xlink:href="#DejaVuSans-49"/>
       <use x="354.199219" xlink:href="#DejaVuSans-48"/>
      </g>
     </g>
    </g>
    <g id="xtick_8">
     <g id="line2d_8">
      <g>
       <use style="stroke:#000000;stroke-width:0.8;" x="349.285625" xlink:href="#mf2e15ab923" y="288.430125"/>
      </g>
     </g>
     <g id="text_8">
      <!-- 2020-11 -->
      <g transform="translate(352.045 337.212937)rotate(-90)scale(0.1 -0.1)">
       <use xlink:href="#DejaVuSans-50"/>
       <use x="63.623047" xlink:href="#DejaVuSans-48"/>
       <use x="127.246094" xlink:href="#DejaVuSans-50"/>
       <use x="190.869141" xlink:href="#DejaVuSans-48"/>
       <use x="254.492188" xlink:href="#DejaVuSans-45"/>
       <use x="290.576172" xlink:href="#DejaVuSans-49"/>
       <use x="354.199219" xlink:href="#DejaVuSans-49"/>
      </g>
     </g>
    </g>
    <g id="xtick_9">
     <g id="line2d_9">
      <g>
       <use style="stroke:#000000;stroke-width:0.8;" x="387.685625" xlink:href="#mf2e15ab923" y="288.430125"/>
      </g>
     </g>
     <g id="text_9">
      <!-- 2020-12 -->
      <g transform="translate(390.445 337.212937)rotate(-90)scale(0.1 -0.1)">
       <use xlink:href="#DejaVuSans-50"/>
       <use x="63.623047" xlink:href="#DejaVuSans-48"/>
       <use x="127.246094" xlink:href="#DejaVuSans-50"/>
       <use x="190.869141" xlink:href="#DejaVuSans-48"/>
       <use x="254.492188" xlink:href="#DejaVuSans-45"/>
       <use x="290.576172" xlink:href="#DejaVuSans-49"/>
       <use x="354.199219" xlink:href="#DejaVuSans-50"/>
      </g>
     </g>
    </g>
    <g id="text_10">
     <!-- date -->
     <g transform="translate(220.250625 354.811375)scale(0.1 -0.1)">
      <defs>
       <path d="M 45.40625 46.390625 
L 45.40625 75.984375 
L 54.390625 75.984375 
L 54.390625 0 
L 45.40625 0 
L 45.40625 8.203125 
Q 42.578125 3.328125 38.25 0.953125 
Q 33.9375 -1.421875 27.875 -1.421875 
Q 17.96875 -1.421875 11.734375 6.484375 
Q 5.515625 14.40625 5.515625 27.296875 
Q 5.515625 40.1875 11.734375 48.09375 
Q 17.96875 56 27.875 56 
Q 33.9375 56 38.25 53.625 
Q 42.578125 51.265625 45.40625 46.390625 
z
M 14.796875 27.296875 
Q 14.796875 17.390625 18.875 11.75 
Q 22.953125 6.109375 30.078125 6.109375 
Q 37.203125 6.109375 41.296875 11.75 
Q 45.40625 17.390625 45.40625 27.296875 
Q 45.40625 37.203125 41.296875 42.84375 
Q 37.203125 48.484375 30.078125 48.484375 
Q 22.953125 48.484375 18.875 42.84375 
Q 14.796875 37.203125 14.796875 27.296875 
z
" id="DejaVuSans-100"/>
       <path d="M 34.28125 27.484375 
Q 23.390625 27.484375 19.1875 25 
Q 14.984375 22.515625 14.984375 16.5 
Q 14.984375 11.71875 18.140625 8.90625 
Q 21.296875 6.109375 26.703125 6.109375 
Q 34.1875 6.109375 38.703125 11.40625 
Q 43.21875 16.703125 43.21875 25.484375 
L 43.21875 27.484375 
z
M 52.203125 31.203125 
L 52.203125 0 
L 43.21875 0 
L 43.21875 8.296875 
Q 40.140625 3.328125 35.546875 0.953125 
Q 30.953125 -1.421875 24.3125 -1.421875 
Q 15.921875 -1.421875 10.953125 3.296875 
Q 6 8.015625 6 15.921875 
Q 6 25.140625 12.171875 29.828125 
Q 18.359375 34.515625 30.609375 34.515625 
L 43.21875 34.515625 
L 43.21875 35.40625 
Q 43.21875 41.609375 39.140625 45 
Q 35.0625 48.390625 27.6875 48.390625 
Q 23 48.390625 18.546875 47.265625 
Q 14.109375 46.140625 10.015625 43.890625 
L 10.015625 52.203125 
Q 14.9375 54.109375 19.578125 55.046875 
Q 24.21875 56 28.609375 56 
Q 40.484375 56 46.34375 49.84375 
Q 52.203125 43.703125 52.203125 31.203125 
z
" id="DejaVuSans-97"/>
       <path d="M 18.3125 70.21875 
L 18.3125 54.6875 
L 36.8125 54.6875 
L 36.8125 47.703125 
L 18.3125 47.703125 
L 18.3125 18.015625 
Q 18.3125 11.328125 20.140625 9.421875 
Q 21.96875 7.515625 27.59375 7.515625 
L 36.8125 7.515625 
L 36.8125 0 
L 27.59375 0 
Q 17.1875 0 13.234375 3.875 
Q 9.28125 7.765625 9.28125 18.015625 
L 9.28125 47.703125 
L 2.6875 47.703125 
L 2.6875 54.6875 
L 9.28125 54.6875 
L 9.28125 70.21875 
z
" id="DejaVuSans-116"/>
       <path d="M 56.203125 29.59375 
L 56.203125 25.203125 
L 14.890625 25.203125 
Q 15.484375 15.921875 20.484375 11.0625 
Q 25.484375 6.203125 34.421875 6.203125 
Q 39.59375 6.203125 44.453125 7.46875 
Q 49.3125 8.734375 54.109375 11.28125 
L 54.109375 2.78125 
Q 49.265625 0.734375 44.1875 -0.34375 
Q 39.109375 -1.421875 33.890625 -1.421875 
Q 20.796875 -1.421875 13.15625 6.1875 
Q 5.515625 13.8125 5.515625 26.8125 
Q 5.515625 40.234375 12.765625 48.109375 
Q 20.015625 56 32.328125 56 
Q 43.359375 56 49.78125 48.890625 
Q 56.203125 41.796875 56.203125 29.59375 
z
M 47.21875 32.234375 
Q 47.125 39.59375 43.09375 43.984375 
Q 39.0625 48.390625 32.421875 48.390625 
Q 24.90625 48.390625 20.390625 44.140625 
Q 15.875 39.890625 15.1875 32.171875 
z
" id="DejaVuSans-101"/>
      </defs>
      <use xlink:href="#DejaVuSans-100"/>
      <use x="63.476562" xlink:href="#DejaVuSans-97"/>
      <use x="124.755859" xlink:href="#DejaVuSans-116"/>
      <use x="163.964844" xlink:href="#DejaVuSans-101"/>
     </g>
    </g>
   </g>
   <g id="matplotlib.axis_2">
    <g id="ytick_1">
     <g id="line2d_10">
      <defs>
       <path d="M 0 0 
L -3.5 0 
" id="m4ad934702c" style="stroke:#000000;stroke-width:0.8;"/>
      </defs>
      <g>
       <use style="stroke:#000000;stroke-width:0.8;" x="52.965625" xlink:href="#m4ad934702c" y="288.430125"/>
      </g>
     </g>
     <g id="text_11">
      <!-- 0 -->
      <g transform="translate(39.603125 292.229344)scale(0.1 -0.1)">
       <use xlink:href="#DejaVuSans-48"/>
      </g>
     </g>
    </g>
    <g id="ytick_2">
     <g id="line2d_11">
      <g>
       <use style="stroke:#000000;stroke-width:0.8;" x="52.965625" xlink:href="#m4ad934702c" y="249.238372"/>
      </g>
     </g>
     <g id="text_12">
      <!-- 100 -->
      <g transform="translate(26.878125 253.037591)scale(0.1 -0.1)">
       <use xlink:href="#DejaVuSans-49"/>
       <use x="63.623047" xlink:href="#DejaVuSans-48"/>
       <use x="127.246094" xlink:href="#DejaVuSans-48"/>
      </g>
     </g>
    </g>
    <g id="ytick_3">
     <g id="line2d_12">
      <g>
       <use style="stroke:#000000;stroke-width:0.8;" x="52.965625" xlink:href="#m4ad934702c" y="210.04662"/>
      </g>
     </g>
     <g id="text_13">
      <!-- 200 -->
      <g transform="translate(26.878125 213.845839)scale(0.1 -0.1)">
       <use xlink:href="#DejaVuSans-50"/>
       <use x="63.623047" xlink:href="#DejaVuSans-48"/>
       <use x="127.246094" xlink:href="#DejaVuSans-48"/>
      </g>
     </g>
    </g>
    <g id="ytick_4">
     <g id="line2d_13">
      <g>
       <use style="stroke:#000000;stroke-width:0.8;" x="52.965625" xlink:href="#m4ad934702c" y="170.854867"/>
      </g>
     </g>
     <g id="text_14">
      <!-- 300 -->
      <g transform="translate(26.878125 174.654086)scale(0.1 -0.1)">
       <defs>
        <path d="M 40.578125 39.3125 
Q 47.65625 37.796875 51.625 33 
Q 55.609375 28.21875 55.609375 21.1875 
Q 55.609375 10.40625 48.1875 4.484375 
Q 40.765625 -1.421875 27.09375 -1.421875 
Q 22.515625 -1.421875 17.65625 -0.515625 
Q 12.796875 0.390625 7.625 2.203125 
L 7.625 11.71875 
Q 11.71875 9.328125 16.59375 8.109375 
Q 21.484375 6.890625 26.8125 6.890625 
Q 36.078125 6.890625 40.9375 10.546875 
Q 45.796875 14.203125 45.796875 21.1875 
Q 45.796875 27.640625 41.28125 31.265625 
Q 36.765625 34.90625 28.71875 34.90625 
L 20.21875 34.90625 
L 20.21875 43.015625 
L 29.109375 43.015625 
Q 36.375 43.015625 40.234375 45.921875 
Q 44.09375 48.828125 44.09375 54.296875 
Q 44.09375 59.90625 40.109375 62.90625 
Q 36.140625 65.921875 28.71875 65.921875 
Q 24.65625 65.921875 20.015625 65.03125 
Q 15.375 64.15625 9.8125 62.3125 
L 9.8125 71.09375 
Q 15.4375 72.65625 20.34375 73.4375 
Q 25.25 74.21875 29.59375 74.21875 
Q 40.828125 74.21875 47.359375 69.109375 
Q 53.90625 64.015625 53.90625 55.328125 
Q 53.90625 49.265625 50.4375 45.09375 
Q 46.96875 40.921875 40.578125 39.3125 
z
" id="DejaVuSans-51"/>
       </defs>
       <use xlink:href="#DejaVuSans-51"/>
       <use x="63.623047" xlink:href="#DejaVuSans-48"/>
       <use x="127.246094" xlink:href="#DejaVuSans-48"/>
      </g>
     </g>
    </g>
    <g id="ytick_5">
     <g id="line2d_14">
      <g>
       <use style="stroke:#000000;stroke-width:0.8;" x="52.965625" xlink:href="#m4ad934702c" y="131.663115"/>
      </g>
     </g>
     <g id="text_15">
      <!-- 400 -->
      <g transform="translate(26.878125 135.462333)scale(0.1 -0.1)">
       <use xlink:href="#DejaVuSans-52"/>
       <use x="63.623047" xlink:href="#DejaVuSans-48"/>
       <use x="127.246094" xlink:href="#DejaVuSans-48"/>
      </g>
     </g>
    </g>
    <g id="ytick_6">
     <g id="line2d_15">
      <g>
       <use style="stroke:#000000;stroke-width:0.8;" x="52.965625" xlink:href="#m4ad934702c" y="92.471362"/>
      </g>
     </g>
     <g id="text_16">
      <!-- 500 -->
      <g transform="translate(26.878125 96.270581)scale(0.1 -0.1)">
       <use xlink:href="#DejaVuSans-53"/>
       <use x="63.623047" xlink:href="#DejaVuSans-48"/>
       <use x="127.246094" xlink:href="#DejaVuSans-48"/>
      </g>
     </g>
    </g>
    <g id="ytick_7">
     <g id="line2d_16">
      <g>
       <use style="stroke:#000000;stroke-width:0.8;" x="52.965625" xlink:href="#m4ad934702c" y="53.27961"/>
      </g>
     </g>
     <g id="text_17">
      <!-- 600 -->
      <g transform="translate(26.878125 57.078828)scale(0.1 -0.1)">
       <use xlink:href="#DejaVuSans-54"/>
       <use x="63.623047" xlink:href="#DejaVuSans-48"/>
       <use x="127.246094" xlink:href="#DejaVuSans-48"/>
      </g>
     </g>
    </g>
    <g id="text_18">
     <!-- cumulative number of corona fatalities -->
     <g transform="translate(14.798438 252.560062)rotate(-90)scale(0.1 -0.1)">
      <defs>
       <path d="M 48.78125 52.59375 
L 48.78125 44.1875 
Q 44.96875 46.296875 41.140625 47.34375 
Q 37.3125 48.390625 33.40625 48.390625 
Q 24.65625 48.390625 19.8125 42.84375 
Q 14.984375 37.3125 14.984375 27.296875 
Q 14.984375 17.28125 19.8125 11.734375 
Q 24.65625 6.203125 33.40625 6.203125 
Q 37.3125 6.203125 41.140625 7.25 
Q 44.96875 8.296875 48.78125 10.40625 
L 48.78125 2.09375 
Q 45.015625 0.34375 40.984375 -0.53125 
Q 36.96875 -1.421875 32.421875 -1.421875 
Q 20.0625 -1.421875 12.78125 6.34375 
Q 5.515625 14.109375 5.515625 27.296875 
Q 5.515625 40.671875 12.859375 48.328125 
Q 20.21875 56 33.015625 56 
Q 37.15625 56 41.109375 55.140625 
Q 45.0625 54.296875 48.78125 52.59375 
z
" id="DejaVuSans-99"/>
       <path d="M 8.5 21.578125 
L 8.5 54.6875 
L 17.484375 54.6875 
L 17.484375 21.921875 
Q 17.484375 14.15625 20.5 10.265625 
Q 23.53125 6.390625 29.59375 6.390625 
Q 36.859375 6.390625 41.078125 11.03125 
Q 45.3125 15.671875 45.3125 23.6875 
L 45.3125 54.6875 
L 54.296875 54.6875 
L 54.296875 0 
L 45.3125 0 
L 45.3125 8.40625 
Q 42.046875 3.421875 37.71875 1 
Q 33.40625 -1.421875 27.6875 -1.421875 
Q 18.265625 -1.421875 13.375 4.4375 
Q 8.5 10.296875 8.5 21.578125 
z
M 31.109375 56 
z
" id="DejaVuSans-117"/>
       <path d="M 52 44.1875 
Q 55.375 50.25 60.0625 53.125 
Q 64.75 56 71.09375 56 
Q 79.640625 56 84.28125 50.015625 
Q 88.921875 44.046875 88.921875 33.015625 
L 88.921875 0 
L 79.890625 0 
L 79.890625 32.71875 
Q 79.890625 40.578125 77.09375 44.375 
Q 74.3125 48.1875 68.609375 48.1875 
Q 61.625 48.1875 57.5625 43.546875 
Q 53.515625 38.921875 53.515625 30.90625 
L 53.515625 0 
L 44.484375 0 
L 44.484375 32.71875 
Q 44.484375 40.625 41.703125 44.40625 
Q 38.921875 48.1875 33.109375 48.1875 
Q 26.21875 48.1875 22.15625 43.53125 
Q 18.109375 38.875 18.109375 30.90625 
L 18.109375 0 
L 9.078125 0 
L 9.078125 54.6875 
L 18.109375 54.6875 
L 18.109375 46.1875 
Q 21.1875 51.21875 25.484375 53.609375 
Q 29.78125 56 35.6875 56 
Q 41.65625 56 45.828125 52.96875 
Q 50 49.953125 52 44.1875 
z
" id="DejaVuSans-109"/>
       <path d="M 9.421875 75.984375 
L 18.40625 75.984375 
L 18.40625 0 
L 9.421875 0 
z
" id="DejaVuSans-108"/>
       <path d="M 9.421875 54.6875 
L 18.40625 54.6875 
L 18.40625 0 
L 9.421875 0 
z
M 9.421875 75.984375 
L 18.40625 75.984375 
L 18.40625 64.59375 
L 9.421875 64.59375 
z
" id="DejaVuSans-105"/>
       <path d="M 2.984375 54.6875 
L 12.5 54.6875 
L 29.59375 8.796875 
L 46.6875 54.6875 
L 56.203125 54.6875 
L 35.6875 0 
L 23.484375 0 
z
" id="DejaVuSans-118"/>
       <path id="DejaVuSans-32"/>
       <path d="M 54.890625 33.015625 
L 54.890625 0 
L 45.90625 0 
L 45.90625 32.71875 
Q 45.90625 40.484375 42.875 44.328125 
Q 39.84375 48.1875 33.796875 48.1875 
Q 26.515625 48.1875 22.3125 43.546875 
Q 18.109375 38.921875 18.109375 30.90625 
L 18.109375 0 
L 9.078125 0 
L 9.078125 54.6875 
L 18.109375 54.6875 
L 18.109375 46.1875 
Q 21.34375 51.125 25.703125 53.5625 
Q 30.078125 56 35.796875 56 
Q 45.21875 56 50.046875 50.171875 
Q 54.890625 44.34375 54.890625 33.015625 
z
" id="DejaVuSans-110"/>
       <path d="M 48.6875 27.296875 
Q 48.6875 37.203125 44.609375 42.84375 
Q 40.53125 48.484375 33.40625 48.484375 
Q 26.265625 48.484375 22.1875 42.84375 
Q 18.109375 37.203125 18.109375 27.296875 
Q 18.109375 17.390625 22.1875 11.75 
Q 26.265625 6.109375 33.40625 6.109375 
Q 40.53125 6.109375 44.609375 11.75 
Q 48.6875 17.390625 48.6875 27.296875 
z
M 18.109375 46.390625 
Q 20.953125 51.265625 25.265625 53.625 
Q 29.59375 56 35.59375 56 
Q 45.5625 56 51.78125 48.09375 
Q 58.015625 40.1875 58.015625 27.296875 
Q 58.015625 14.40625 51.78125 6.484375 
Q 45.5625 -1.421875 35.59375 -1.421875 
Q 29.59375 -1.421875 25.265625 0.953125 
Q 20.953125 3.328125 18.109375 8.203125 
L 18.109375 0 
L 9.078125 0 
L 9.078125 75.984375 
L 18.109375 75.984375 
z
" id="DejaVuSans-98"/>
       <path d="M 41.109375 46.296875 
Q 39.59375 47.171875 37.8125 47.578125 
Q 36.03125 48 33.890625 48 
Q 26.265625 48 22.1875 43.046875 
Q 18.109375 38.09375 18.109375 28.8125 
L 18.109375 0 
L 9.078125 0 
L 9.078125 54.6875 
L 18.109375 54.6875 
L 18.109375 46.1875 
Q 20.953125 51.171875 25.484375 53.578125 
Q 30.03125 56 36.53125 56 
Q 37.453125 56 38.578125 55.875 
Q 39.703125 55.765625 41.0625 55.515625 
z
" id="DejaVuSans-114"/>
       <path d="M 30.609375 48.390625 
Q 23.390625 48.390625 19.1875 42.75 
Q 14.984375 37.109375 14.984375 27.296875 
Q 14.984375 17.484375 19.15625 11.84375 
Q 23.34375 6.203125 30.609375 6.203125 
Q 37.796875 6.203125 41.984375 11.859375 
Q 46.1875 17.53125 46.1875 27.296875 
Q 46.1875 37.015625 41.984375 42.703125 
Q 37.796875 48.390625 30.609375 48.390625 
z
M 30.609375 56 
Q 42.328125 56 49.015625 48.375 
Q 55.71875 40.765625 55.71875 27.296875 
Q 55.71875 13.875 49.015625 6.21875 
Q 42.328125 -1.421875 30.609375 -1.421875 
Q 18.84375 -1.421875 12.171875 6.21875 
Q 5.515625 13.875 5.515625 27.296875 
Q 5.515625 40.765625 12.171875 48.375 
Q 18.84375 56 30.609375 56 
z
" id="DejaVuSans-111"/>
       <path d="M 37.109375 75.984375 
L 37.109375 68.5 
L 28.515625 68.5 
Q 23.6875 68.5 21.796875 66.546875 
Q 19.921875 64.59375 19.921875 59.515625 
L 19.921875 54.6875 
L 34.71875 54.6875 
L 34.71875 47.703125 
L 19.921875 47.703125 
L 19.921875 0 
L 10.890625 0 
L 10.890625 47.703125 
L 2.296875 47.703125 
L 2.296875 54.6875 
L 10.890625 54.6875 
L 10.890625 58.5 
Q 10.890625 67.625 15.140625 71.796875 
Q 19.390625 75.984375 28.609375 75.984375 
z
" id="DejaVuSans-102"/>
       <path d="M 44.28125 53.078125 
L 44.28125 44.578125 
Q 40.484375 46.53125 36.375 47.5 
Q 32.28125 48.484375 27.875 48.484375 
Q 21.1875 48.484375 17.84375 46.4375 
Q 14.5 44.390625 14.5 40.28125 
Q 14.5 37.15625 16.890625 35.375 
Q 19.28125 33.59375 26.515625 31.984375 
L 29.59375 31.296875 
Q 39.15625 29.25 43.1875 25.515625 
Q 47.21875 21.78125 47.21875 15.09375 
Q 47.21875 7.46875 41.1875 3.015625 
Q 35.15625 -1.421875 24.609375 -1.421875 
Q 20.21875 -1.421875 15.453125 -0.5625 
Q 10.6875 0.296875 5.421875 2 
L 5.421875 11.28125 
Q 10.40625 8.6875 15.234375 7.390625 
Q 20.0625 6.109375 24.8125 6.109375 
Q 31.15625 6.109375 34.5625 8.28125 
Q 37.984375 10.453125 37.984375 14.40625 
Q 37.984375 18.0625 35.515625 20.015625 
Q 33.0625 21.96875 24.703125 23.78125 
L 21.578125 24.515625 
Q 13.234375 26.265625 9.515625 29.90625 
Q 5.8125 33.546875 5.8125 39.890625 
Q 5.8125 47.609375 11.28125 51.796875 
Q 16.75 56 26.8125 56 
Q 31.78125 56 36.171875 55.265625 
Q 40.578125 54.546875 44.28125 53.078125 
z
" id="DejaVuSans-115"/>
      </defs>
      <use xlink:href="#DejaVuSans-99"/>
      <use x="54.980469" xlink:href="#DejaVuSans-117"/>
      <use x="118.359375" xlink:href="#DejaVuSans-109"/>
      <use x="215.771484" xlink:href="#DejaVuSans-117"/>
      <use x="279.150391" xlink:href="#DejaVuSans-108"/>
      <use x="306.933594" xlink:href="#DejaVuSans-97"/>
      <use x="368.212891" xlink:href="#DejaVuSans-116"/>
      <use x="407.421875" xlink:href="#DejaVuSans-105"/>
      <use x="435.205078" xlink:href="#DejaVuSans-118"/>
      <use x="494.384766" xlink:href="#DejaVuSans-101"/>
      <use x="555.908203" xlink:href="#DejaVuSans-32"/>
      <use x="587.695312" xlink:href="#DejaVuSans-110"/>
      <use x="651.074219" xlink:href="#DejaVuSans-117"/>
      <use x="714.453125" xlink:href="#DejaVuSans-109"/>
      <use x="811.865234" xlink:href="#DejaVuSans-98"/>
      <use x="875.341797" xlink:href="#DejaVuSans-101"/>
      <use x="936.865234" xlink:href="#DejaVuSans-114"/>
      <use x="977.978516" xlink:href="#DejaVuSans-32"/>
      <use x="1009.765625" xlink:href="#DejaVuSans-111"/>
      <use x="1070.947266" xlink:href="#DejaVuSans-102"/>
      <use x="1106.152344" xlink:href="#DejaVuSans-32"/>
      <use x="1137.939453" xlink:href="#DejaVuSans-99"/>
      <use x="1192.919922" xlink:href="#DejaVuSans-111"/>
      <use x="1254.101562" xlink:href="#DejaVuSans-114"/>
      <use x="1292.964844" xlink:href="#DejaVuSans-111"/>
      <use x="1354.146484" xlink:href="#DejaVuSans-110"/>
      <use x="1417.525391" xlink:href="#DejaVuSans-97"/>
      <use x="1478.804688" xlink:href="#DejaVuSans-32"/>
      <use x="1510.591797" xlink:href="#DejaVuSans-102"/>
      <use x="1545.796875" xlink:href="#DejaVuSans-97"/>
      <use x="1607.076172" xlink:href="#DejaVuSans-116"/>
      <use x="1646.285156" xlink:href="#DejaVuSans-97"/>
      <use x="1707.564453" xlink:href="#DejaVuSans-108"/>
      <use x="1735.347656" xlink:href="#DejaVuSans-105"/>
      <use x="1763.130859" xlink:href="#DejaVuSans-116"/>
      <use x="1802.339844" xlink:href="#DejaVuSans-105"/>
      <use x="1830.123047" xlink:href="#DejaVuSans-101"/>
      <use x="1891.646484" xlink:href="#DejaVuSans-115"/>
     </g>
    </g>
   </g>
   <g id="patch_282">
    <path d="M 52.965625 288.430125 
L 52.965625 22.318125 
" style="fill:none;stroke:#000000;stroke-linecap:square;stroke-linejoin:miter;stroke-width:0.8;"/>
   </g>
   <g id="patch_283">
    <path d="M 52.965625 288.430125 
L 410.085625 288.430125 
" style="fill:none;stroke:#000000;stroke-linecap:square;stroke-linejoin:miter;stroke-width:0.8;"/>
   </g>
   <g id="text_19">
    <!-- South Tyrol -->
    <g transform="translate(198.233125 16.318125)scale(0.12 -0.12)">
     <defs>
      <path d="M 53.515625 70.515625 
L 53.515625 60.890625 
Q 47.90625 63.578125 42.921875 64.890625 
Q 37.9375 66.21875 33.296875 66.21875 
Q 25.25 66.21875 20.875 63.09375 
Q 16.5 59.96875 16.5 54.203125 
Q 16.5 49.359375 19.40625 46.890625 
Q 22.3125 44.4375 30.421875 42.921875 
L 36.375 41.703125 
Q 47.40625 39.59375 52.65625 34.296875 
Q 57.90625 29 57.90625 20.125 
Q 57.90625 9.515625 50.796875 4.046875 
Q 43.703125 -1.421875 29.984375 -1.421875 
Q 24.8125 -1.421875 18.96875 -0.25 
Q 13.140625 0.921875 6.890625 3.21875 
L 6.890625 13.375 
Q 12.890625 10.015625 18.65625 8.296875 
Q 24.421875 6.59375 29.984375 6.59375 
Q 38.421875 6.59375 43.015625 9.90625 
Q 47.609375 13.234375 47.609375 19.390625 
Q 47.609375 24.75 44.3125 27.78125 
Q 41.015625 30.8125 33.5 32.328125 
L 27.484375 33.5 
Q 16.453125 35.6875 11.515625 40.375 
Q 6.59375 45.0625 6.59375 53.421875 
Q 6.59375 63.09375 13.40625 68.65625 
Q 20.21875 74.21875 32.171875 74.21875 
Q 37.3125 74.21875 42.625 73.28125 
Q 47.953125 72.359375 53.515625 70.515625 
z
" id="DejaVuSans-83"/>
      <path d="M 54.890625 33.015625 
L 54.890625 0 
L 45.90625 0 
L 45.90625 32.71875 
Q 45.90625 40.484375 42.875 44.328125 
Q 39.84375 48.1875 33.796875 48.1875 
Q 26.515625 48.1875 22.3125 43.546875 
Q 18.109375 38.921875 18.109375 30.90625 
L 18.109375 0 
L 9.078125 0 
L 9.078125 75.984375 
L 18.109375 75.984375 
L 18.109375 46.1875 
Q 21.34375 51.125 25.703125 53.5625 
Q 30.078125 56 35.796875 56 
Q 45.21875 56 50.046875 50.171875 
Q 54.890625 44.34375 54.890625 33.015625 
z
" id="DejaVuSans-104"/>
      <path d="M -0.296875 72.90625 
L 61.375 72.90625 
L 61.375 64.59375 
L 35.5 64.59375 
L 35.5 0 
L 25.59375 0 
L 25.59375 64.59375 
L -0.296875 64.59375 
z
" id="DejaVuSans-84"/>
      <path d="M 32.171875 -5.078125 
Q 28.375 -14.84375 24.75 -17.8125 
Q 21.140625 -20.796875 15.09375 -20.796875 
L 7.90625 -20.796875 
L 7.90625 -13.28125 
L 13.1875 -13.28125 
Q 16.890625 -13.28125 18.9375 -11.515625 
Q 21 -9.765625 23.484375 -3.21875 
L 25.09375 0.875 
L 2.984375 54.6875 
L 12.5 54.6875 
L 29.59375 11.921875 
L 46.6875 54.6875 
L 56.203125 54.6875 
z
" id="DejaVuSans-121"/>
     </defs>
     <use xlink:href="#DejaVuSans-83"/>
     <use x="63.476562" xlink:href="#DejaVuSans-111"/>
     <use x="124.658203" xlink:href="#DejaVuSans-117"/>
     <use x="188.037109" xlink:href="#DejaVuSans-116"/>
     <use x="227.246094" xlink:href="#DejaVuSans-104"/>
     <use x="290.625" xlink:href="#DejaVuSans-32"/>
     <use x="322.412109" xlink:href="#DejaVuSans-84"/>
     <use x="367.871094" xlink:href="#DejaVuSans-121"/>
     <use x="427.050781" xlink:href="#DejaVuSans-114"/>
     <use x="465.914062" xlink:href="#DejaVuSans-111"/>
     <use x="527.095703" xlink:href="#DejaVuSans-108"/>
    </g>
   </g>
  </g>
 </g>
 <defs>
  <clipPath id="pb309a7cb6b">
   <rect height="266.112" width="357.12" x="52.965625" y="22.318125"/>
  </clipPath>
 </defs>
</svg>
