<?xml version="1.0" encoding="utf-8" standalone="no"?>
<!DOCTYPE svg PUBLIC "-//W3C//DTD SVG 1.1//EN"
  "http://www.w3.org/Graphics/SVG/1.1/DTD/svg11.dtd">
<!-- Created with matplotlib (https://matplotlib.org/) -->
<svg height="364.091062pt" version="1.1" viewBox="0 0 417.285625 364.091062" width="417.285625pt" xmlns="http://www.w3.org/2000/svg" xmlns:xlink="http://www.w3.org/1999/xlink">
 <metadata>
  <rdf:RDF xmlns:cc="http://creativecommons.org/ns#" xmlns:dc="http://purl.org/dc/elements/1.1/" xmlns:rdf="http://www.w3.org/1999/02/22-rdf-syntax-ns#">
   <cc:Work>
    <dc:type rdf:resource="http://purl.org/dc/dcmitype/StillImage"/>
    <dc:date>2020-12-12T14:11:40.605910</dc:date>
    <dc:format>image/svg+xml</dc:format>
    <dc:creator>
     <cc:Agent>
      <dc:title>Matplotlib v3.3.3, https://matplotlib.org/</dc:title>
     </cc:Agent>
    </dc:creator>
   </cc:Work>
  </rdf:RDF>
 </metadata>
 <defs>
  <style type="text/css">*{stroke-linecap:butt;stroke-linejoin:round;}</style>
 </defs>
 <g id="figure_1">
  <g id="patch_1">
   <path d="M 0 364.091062 
L 417.285625 364.091062 
L 417.285625 0 
L 0 0 
z
" style="fill:#ffffff;"/>
  </g>
  <g id="axes_1">
   <g id="patch_2">
    <path d="M 52.965625 288.430125 
L 410.085625 288.430125 
L 410.085625 22.318125 
L 52.965625 22.318125 
z
" style="fill:#ffffff;"/>
   </g>
   <g id="patch_3">
    <path clip-path="url(#p7a7d92d1a1)" d="M 53.096438 288.430125 
L 54.142944 288.430125 
L 54.142944 286.33145 
L 53.096438 286.33145 
z
" style="fill:#1f77b4;"/>
   </g>
   <g id="patch_4">
    <path clip-path="url(#p7a7d92d1a1)" d="M 54.40457 288.430125 
L 55.451076 288.430125 
L 55.451076 285.911715 
L 54.40457 285.911715 
z
" style="fill:#1f77b4;"/>
   </g>
   <g id="patch_5">
    <path clip-path="url(#p7a7d92d1a1)" d="M 55.712702 288.430125 
L 56.759207 288.430125 
L 56.759207 284.65251 
L 55.712702 284.65251 
z
" style="fill:#1f77b4;"/>
   </g>
   <g id="patch_6">
    <path clip-path="url(#p7a7d92d1a1)" d="M 57.020834 288.430125 
L 58.067339 288.430125 
L 58.067339 283.393305 
L 57.020834 283.393305 
z
" style="fill:#1f77b4;"/>
   </g>
   <g id="patch_7">
    <path clip-path="url(#p7a7d92d1a1)" d="M 58.328966 288.430125 
L 59.375471 288.430125 
L 59.375471 281.714365 
L 58.328966 281.714365 
z
" style="fill:#1f77b4;"/>
   </g>
   <g id="patch_8">
    <path clip-path="url(#p7a7d92d1a1)" d="M 59.637098 288.430125 
L 60.683603 288.430125 
L 60.683603 280.45516 
L 59.637098 280.45516 
z
" style="fill:#1f77b4;"/>
   </g>
   <g id="patch_9">
    <path clip-path="url(#p7a7d92d1a1)" d="M 60.945229 288.430125 
L 61.991735 288.430125 
L 61.991735 278.356485 
L 60.945229 278.356485 
z
" style="fill:#1f77b4;"/>
   </g>
   <g id="patch_10">
    <path clip-path="url(#p7a7d92d1a1)" d="M 62.253361 288.430125 
L 63.299867 288.430125 
L 63.299867 275.41834 
L 62.253361 275.41834 
z
" style="fill:#1f77b4;"/>
   </g>
   <g id="patch_11">
    <path clip-path="url(#p7a7d92d1a1)" d="M 63.561493 288.430125 
L 64.607999 288.430125 
L 64.607999 273.739399 
L 63.561493 273.739399 
z
" style="fill:#1f77b4;"/>
   </g>
   <g id="patch_12">
    <path clip-path="url(#p7a7d92d1a1)" d="M 64.869625 288.430125 
L 65.91613 288.430125 
L 65.91613 269.961784 
L 64.869625 269.961784 
z
" style="fill:#1f77b4;"/>
   </g>
   <g id="patch_13">
    <path clip-path="url(#p7a7d92d1a1)" d="M 66.177757 288.430125 
L 67.224262 288.430125 
L 67.224262 269.542049 
L 66.177757 269.542049 
z
" style="fill:#1f77b4;"/>
   </g>
   <g id="patch_14">
    <path clip-path="url(#p7a7d92d1a1)" d="M 67.485889 288.430125 
L 68.532394 288.430125 
L 68.532394 266.184169 
L 67.485889 266.184169 
z
" style="fill:#1f77b4;"/>
   </g>
   <g id="patch_15">
    <path clip-path="url(#p7a7d92d1a1)" d="M 68.794021 288.430125 
L 69.840526 288.430125 
L 69.840526 263.246024 
L 68.794021 263.246024 
z
" style="fill:#1f77b4;"/>
   </g>
   <g id="patch_16">
    <path clip-path="url(#p7a7d92d1a1)" d="M 70.102152 288.430125 
L 71.148658 288.430125 
L 71.148658 261.567084 
L 70.102152 261.567084 
z
" style="fill:#1f77b4;"/>
   </g>
   <g id="patch_17">
    <path clip-path="url(#p7a7d92d1a1)" d="M 71.410284 288.430125 
L 72.45679 288.430125 
L 72.45679 258.628939 
L 71.410284 258.628939 
z
" style="fill:#1f77b4;"/>
   </g>
   <g id="patch_18">
    <path clip-path="url(#p7a7d92d1a1)" d="M 72.718416 288.430125 
L 73.764922 288.430125 
L 73.764922 257.369734 
L 72.718416 257.369734 
z
" style="fill:#1f77b4;"/>
   </g>
   <g id="patch_19">
    <path clip-path="url(#p7a7d92d1a1)" d="M 74.026548 288.430125 
L 75.073054 288.430125 
L 75.073054 242.259273 
L 74.026548 242.259273 
z
" style="fill:#1f77b4;"/>
   </g>
   <g id="patch_20">
    <path clip-path="url(#p7a7d92d1a1)" d="M 75.33468 288.430125 
L 76.381185 288.430125 
L 76.381185 238.061923 
L 75.33468 238.061923 
z
" style="fill:#1f77b4;"/>
   </g>
   <g id="patch_21">
    <path clip-path="url(#p7a7d92d1a1)" d="M 76.642812 288.430125 
L 77.689317 288.430125 
L 77.689317 234.704043 
L 76.642812 234.704043 
z
" style="fill:#1f77b4;"/>
   </g>
   <g id="patch_22">
    <path clip-path="url(#p7a7d92d1a1)" d="M 77.950944 288.430125 
L 78.997449 288.430125 
L 78.997449 228.827753 
L 77.950944 228.827753 
z
" style="fill:#1f77b4;"/>
   </g>
   <g id="patch_23">
    <path clip-path="url(#p7a7d92d1a1)" d="M 79.259076 288.430125 
L 80.305581 288.430125 
L 80.305581 227.148813 
L 79.259076 227.148813 
z
" style="fill:#1f77b4;"/>
   </g>
   <g id="patch_24">
    <path clip-path="url(#p7a7d92d1a1)" d="M 80.567207 288.430125 
L 81.613713 288.430125 
L 81.613713 222.951463 
L 80.567207 222.951463 
z
" style="fill:#1f77b4;"/>
   </g>
   <g id="patch_25">
    <path clip-path="url(#p7a7d92d1a1)" d="M 81.875339 288.430125 
L 82.921845 288.430125 
L 82.921845 219.593582 
L 81.875339 219.593582 
z
" style="fill:#1f77b4;"/>
   </g>
   <g id="patch_26">
    <path clip-path="url(#p7a7d92d1a1)" d="M 83.183471 288.430125 
L 84.229977 288.430125 
L 84.229977 216.235702 
L 83.183471 216.235702 
z
" style="fill:#1f77b4;"/>
   </g>
   <g id="patch_27">
    <path clip-path="url(#p7a7d92d1a1)" d="M 84.491603 288.430125 
L 85.538109 288.430125 
L 85.538109 213.717292 
L 84.491603 213.717292 
z
" style="fill:#1f77b4;"/>
   </g>
   <g id="patch_28">
    <path clip-path="url(#p7a7d92d1a1)" d="M 85.799735 288.430125 
L 86.84624 288.430125 
L 86.84624 209.939677 
L 85.799735 209.939677 
z
" style="fill:#1f77b4;"/>
   </g>
   <g id="patch_29">
    <path clip-path="url(#p7a7d92d1a1)" d="M 87.107867 288.430125 
L 88.154372 288.430125 
L 88.154372 207.841002 
L 87.107867 207.841002 
z
" style="fill:#1f77b4;"/>
   </g>
   <g id="patch_30">
    <path clip-path="url(#p7a7d92d1a1)" d="M 88.415999 288.430125 
L 89.462504 288.430125 
L 89.462504 204.483122 
L 88.415999 204.483122 
z
" style="fill:#1f77b4;"/>
   </g>
   <g id="patch_31">
    <path clip-path="url(#p7a7d92d1a1)" d="M 89.72413 288.430125 
L 90.770636 288.430125 
L 90.770636 202.804182 
L 89.72413 202.804182 
z
" style="fill:#1f77b4;"/>
   </g>
   <g id="patch_32">
    <path clip-path="url(#p7a7d92d1a1)" d="M 91.032262 288.430125 
L 92.078768 288.430125 
L 92.078768 198.187097 
L 91.032262 198.187097 
z
" style="fill:#1f77b4;"/>
   </g>
   <g id="patch_33">
    <path clip-path="url(#p7a7d92d1a1)" d="M 92.340394 288.430125 
L 93.3869 288.430125 
L 93.3869 197.347627 
L 92.340394 197.347627 
z
" style="fill:#1f77b4;"/>
   </g>
   <g id="patch_34">
    <path clip-path="url(#p7a7d92d1a1)" d="M 93.648526 288.430125 
L 94.695032 288.430125 
L 94.695032 195.668687 
L 93.648526 195.668687 
z
" style="fill:#1f77b4;"/>
   </g>
   <g id="patch_35">
    <path clip-path="url(#p7a7d92d1a1)" d="M 94.956658 288.430125 
L 96.003163 288.430125 
L 96.003163 192.730541 
L 94.956658 192.730541 
z
" style="fill:#1f77b4;"/>
   </g>
   <g id="patch_36">
    <path clip-path="url(#p7a7d92d1a1)" d="M 96.26479 288.430125 
L 97.311295 288.430125 
L 97.311295 191.051601 
L 96.26479 191.051601 
z
" style="fill:#1f77b4;"/>
   </g>
   <g id="patch_37">
    <path clip-path="url(#p7a7d92d1a1)" d="M 97.572922 288.430125 
L 98.619427 288.430125 
L 98.619427 188.113456 
L 97.572922 188.113456 
z
" style="fill:#1f77b4;"/>
   </g>
   <g id="patch_38">
    <path clip-path="url(#p7a7d92d1a1)" d="M 98.881054 288.430125 
L 99.927559 288.430125 
L 99.927559 185.595046 
L 98.881054 185.595046 
z
" style="fill:#1f77b4;"/>
   </g>
   <g id="patch_39">
    <path clip-path="url(#p7a7d92d1a1)" d="M 100.189185 288.430125 
L 101.235691 288.430125 
L 101.235691 183.916106 
L 100.189185 183.916106 
z
" style="fill:#1f77b4;"/>
   </g>
   <g id="patch_40">
    <path clip-path="url(#p7a7d92d1a1)" d="M 101.497317 288.430125 
L 102.543823 288.430125 
L 102.543823 182.656901 
L 101.497317 182.656901 
z
" style="fill:#1f77b4;"/>
   </g>
   <g id="patch_41">
    <path clip-path="url(#p7a7d92d1a1)" d="M 102.805449 288.430125 
L 103.851955 288.430125 
L 103.851955 180.977961 
L 102.805449 180.977961 
z
" style="fill:#1f77b4;"/>
   </g>
   <g id="patch_42">
    <path clip-path="url(#p7a7d92d1a1)" d="M 104.113581 288.430125 
L 105.160087 288.430125 
L 105.160087 178.879286 
L 104.113581 178.879286 
z
" style="fill:#1f77b4;"/>
   </g>
   <g id="patch_43">
    <path clip-path="url(#p7a7d92d1a1)" d="M 105.421713 288.430125 
L 106.468218 288.430125 
L 106.468218 178.039816 
L 105.421713 178.039816 
z
" style="fill:#1f77b4;"/>
   </g>
   <g id="patch_44">
    <path clip-path="url(#p7a7d92d1a1)" d="M 106.729845 288.430125 
L 107.77635 288.430125 
L 107.77635 177.200346 
L 106.729845 177.200346 
z
" style="fill:#1f77b4;"/>
   </g>
   <g id="patch_45">
    <path clip-path="url(#p7a7d92d1a1)" d="M 108.037977 288.430125 
L 109.084482 288.430125 
L 109.084482 175.521406 
L 108.037977 175.521406 
z
" style="fill:#1f77b4;"/>
   </g>
   <g id="patch_46">
    <path clip-path="url(#p7a7d92d1a1)" d="M 109.346109 288.430125 
L 110.392614 288.430125 
L 110.392614 175.101671 
L 109.346109 175.101671 
z
" style="fill:#1f77b4;"/>
   </g>
   <g id="patch_47">
    <path clip-path="url(#p7a7d92d1a1)" d="M 110.65424 288.430125 
L 111.700746 288.430125 
L 111.700746 174.262201 
L 110.65424 174.262201 
z
" style="fill:#1f77b4;"/>
   </g>
   <g id="patch_48">
    <path clip-path="url(#p7a7d92d1a1)" d="M 111.962372 288.430125 
L 113.008878 288.430125 
L 113.008878 173.422731 
L 111.962372 173.422731 
z
" style="fill:#1f77b4;"/>
   </g>
   <g id="patch_49">
    <path clip-path="url(#p7a7d92d1a1)" d="M 113.270504 288.430125 
L 114.31701 288.430125 
L 114.31701 173.002996 
L 113.270504 173.002996 
z
" style="fill:#1f77b4;"/>
   </g>
   <g id="patch_50">
    <path clip-path="url(#p7a7d92d1a1)" d="M 114.578636 288.430125 
L 115.625141 288.430125 
L 115.625141 171.743791 
L 114.578636 171.743791 
z
" style="fill:#1f77b4;"/>
   </g>
   <g id="patch_51">
    <path clip-path="url(#p7a7d92d1a1)" d="M 115.886768 288.430125 
L 116.933273 288.430125 
L 116.933273 171.324056 
L 115.886768 171.324056 
z
" style="fill:#1f77b4;"/>
   </g>
   <g id="patch_52">
    <path clip-path="url(#p7a7d92d1a1)" d="M 117.1949 288.430125 
L 118.241405 288.430125 
L 118.241405 170.484586 
L 117.1949 170.484586 
z
" style="fill:#1f77b4;"/>
   </g>
   <g id="patch_53">
    <path clip-path="url(#p7a7d92d1a1)" d="M 118.503032 288.430125 
L 119.549537 288.430125 
L 119.549537 169.225381 
L 118.503032 169.225381 
z
" style="fill:#1f77b4;"/>
   </g>
   <g id="patch_54">
    <path clip-path="url(#p7a7d92d1a1)" d="M 119.811163 288.430125 
L 120.857669 288.430125 
L 120.857669 168.38591 
L 119.811163 168.38591 
z
" style="fill:#1f77b4;"/>
   </g>
   <g id="patch_55">
    <path clip-path="url(#p7a7d92d1a1)" d="M 121.119295 288.430125 
L 122.165801 288.430125 
L 122.165801 168.38591 
L 121.119295 168.38591 
z
" style="fill:#1f77b4;"/>
   </g>
   <g id="patch_56">
    <path clip-path="url(#p7a7d92d1a1)" d="M 122.427427 288.430125 
L 123.473933 288.430125 
L 123.473933 168.38591 
L 122.427427 168.38591 
z
" style="fill:#1f77b4;"/>
   </g>
   <g id="patch_57">
    <path clip-path="url(#p7a7d92d1a1)" d="M 123.735559 288.430125 
L 124.782065 288.430125 
L 124.782065 167.126705 
L 123.735559 167.126705 
z
" style="fill:#1f77b4;"/>
   </g>
   <g id="patch_58">
    <path clip-path="url(#p7a7d92d1a1)" d="M 125.043691 288.430125 
L 126.090196 288.430125 
L 126.090196 166.70697 
L 125.043691 166.70697 
z
" style="fill:#1f77b4;"/>
   </g>
   <g id="patch_59">
    <path clip-path="url(#p7a7d92d1a1)" d="M 126.351823 288.430125 
L 127.398328 288.430125 
L 127.398328 166.70697 
L 126.351823 166.70697 
z
" style="fill:#1f77b4;"/>
   </g>
   <g id="patch_60">
    <path clip-path="url(#p7a7d92d1a1)" d="M 127.659955 288.430125 
L 128.70646 288.430125 
L 128.70646 166.70697 
L 127.659955 166.70697 
z
" style="fill:#1f77b4;"/>
   </g>
   <g id="patch_61">
    <path clip-path="url(#p7a7d92d1a1)" d="M 128.968087 288.430125 
L 130.014592 288.430125 
L 130.014592 166.70697 
L 128.968087 166.70697 
z
" style="fill:#1f77b4;"/>
   </g>
   <g id="patch_62">
    <path clip-path="url(#p7a7d92d1a1)" d="M 130.276218 288.430125 
L 131.322724 288.430125 
L 131.322724 166.70697 
L 130.276218 166.70697 
z
" style="fill:#1f77b4;"/>
   </g>
   <g id="patch_63">
    <path clip-path="url(#p7a7d92d1a1)" d="M 131.58435 288.430125 
L 132.630856 288.430125 
L 132.630856 166.70697 
L 131.58435 166.70697 
z
" style="fill:#1f77b4;"/>
   </g>
   <g id="patch_64">
    <path clip-path="url(#p7a7d92d1a1)" d="M 132.892482 288.430125 
L 133.938988 288.430125 
L 133.938988 166.70697 
L 132.892482 166.70697 
z
" style="fill:#1f77b4;"/>
   </g>
   <g id="patch_65">
    <path clip-path="url(#p7a7d92d1a1)" d="M 134.200614 288.430125 
L 135.24712 288.430125 
L 135.24712 166.70697 
L 134.200614 166.70697 
z
" style="fill:#1f77b4;"/>
   </g>
   <g id="patch_66">
    <path clip-path="url(#p7a7d92d1a1)" d="M 135.508746 288.430125 
L 136.555251 288.430125 
L 136.555251 166.70697 
L 135.508746 166.70697 
z
" style="fill:#1f77b4;"/>
   </g>
   <g id="patch_67">
    <path clip-path="url(#p7a7d92d1a1)" d="M 136.816878 288.430125 
L 137.863383 288.430125 
L 137.863383 166.287235 
L 136.816878 166.287235 
z
" style="fill:#1f77b4;"/>
   </g>
   <g id="patch_68">
    <path clip-path="url(#p7a7d92d1a1)" d="M 138.12501 288.430125 
L 139.171515 288.430125 
L 139.171515 166.287235 
L 138.12501 166.287235 
z
" style="fill:#1f77b4;"/>
   </g>
   <g id="patch_69">
    <path clip-path="url(#p7a7d92d1a1)" d="M 139.433141 288.430125 
L 140.479647 288.430125 
L 140.479647 166.287235 
L 139.433141 166.287235 
z
" style="fill:#1f77b4;"/>
   </g>
   <g id="patch_70">
    <path clip-path="url(#p7a7d92d1a1)" d="M 140.741273 288.430125 
L 141.787779 288.430125 
L 141.787779 166.287235 
L 140.741273 166.287235 
z
" style="fill:#1f77b4;"/>
   </g>
   <g id="patch_71">
    <path clip-path="url(#p7a7d92d1a1)" d="M 142.049405 288.430125 
L 143.095911 288.430125 
L 143.095911 166.287235 
L 142.049405 166.287235 
z
" style="fill:#1f77b4;"/>
   </g>
   <g id="patch_72">
    <path clip-path="url(#p7a7d92d1a1)" d="M 143.357537 288.430125 
L 144.404043 288.430125 
L 144.404043 166.287235 
L 143.357537 166.287235 
z
" style="fill:#1f77b4;"/>
   </g>
   <g id="patch_73">
    <path clip-path="url(#p7a7d92d1a1)" d="M 144.665669 288.430125 
L 145.712174 288.430125 
L 145.712174 166.287235 
L 144.665669 166.287235 
z
" style="fill:#1f77b4;"/>
   </g>
   <g id="patch_74">
    <path clip-path="url(#p7a7d92d1a1)" d="M 145.973801 288.430125 
L 147.020306 288.430125 
L 147.020306 166.287235 
L 145.973801 166.287235 
z
" style="fill:#1f77b4;"/>
   </g>
   <g id="patch_75">
    <path clip-path="url(#p7a7d92d1a1)" d="M 147.281933 288.430125 
L 148.328438 288.430125 
L 148.328438 166.287235 
L 147.281933 166.287235 
z
" style="fill:#1f77b4;"/>
   </g>
   <g id="patch_76">
    <path clip-path="url(#p7a7d92d1a1)" d="M 148.590065 288.430125 
L 149.63657 288.430125 
L 149.63657 166.287235 
L 148.590065 166.287235 
z
" style="fill:#1f77b4;"/>
   </g>
   <g id="patch_77">
    <path clip-path="url(#p7a7d92d1a1)" d="M 149.898196 288.430125 
L 150.944702 288.430125 
L 150.944702 166.287235 
L 149.898196 166.287235 
z
" style="fill:#1f77b4;"/>
   </g>
   <g id="patch_78">
    <path clip-path="url(#p7a7d92d1a1)" d="M 151.206328 288.430125 
L 152.252834 288.430125 
L 152.252834 166.287235 
L 151.206328 166.287235 
z
" style="fill:#1f77b4;"/>
   </g>
   <g id="patch_79">
    <path clip-path="url(#p7a7d92d1a1)" d="M 152.51446 288.430125 
L 153.560966 288.430125 
L 153.560966 166.287235 
L 152.51446 166.287235 
z
" style="fill:#1f77b4;"/>
   </g>
   <g id="patch_80">
    <path clip-path="url(#p7a7d92d1a1)" d="M 153.822592 288.430125 
L 154.869098 288.430125 
L 154.869098 166.287235 
L 153.822592 166.287235 
z
" style="fill:#1f77b4;"/>
   </g>
   <g id="patch_81">
    <path clip-path="url(#p7a7d92d1a1)" d="M 155.130724 288.430125 
L 156.177229 288.430125 
L 156.177229 166.287235 
L 155.130724 166.287235 
z
" style="fill:#1f77b4;"/>
   </g>
   <g id="patch_82">
    <path clip-path="url(#p7a7d92d1a1)" d="M 156.438856 288.430125 
L 157.485361 288.430125 
L 157.485361 166.287235 
L 156.438856 166.287235 
z
" style="fill:#1f77b4;"/>
   </g>
   <g id="patch_83">
    <path clip-path="url(#p7a7d92d1a1)" d="M 157.746988 288.430125 
L 158.793493 288.430125 
L 158.793493 166.287235 
L 157.746988 166.287235 
z
" style="fill:#1f77b4;"/>
   </g>
   <g id="patch_84">
    <path clip-path="url(#p7a7d92d1a1)" d="M 159.05512 288.430125 
L 160.101625 288.430125 
L 160.101625 165.8675 
L 159.05512 165.8675 
z
" style="fill:#1f77b4;"/>
   </g>
   <g id="patch_85">
    <path clip-path="url(#p7a7d92d1a1)" d="M 160.363251 288.430125 
L 161.409757 288.430125 
L 161.409757 165.8675 
L 160.363251 165.8675 
z
" style="fill:#1f77b4;"/>
   </g>
   <g id="patch_86">
    <path clip-path="url(#p7a7d92d1a1)" d="M 161.671383 288.430125 
L 162.717889 288.430125 
L 162.717889 165.8675 
L 161.671383 165.8675 
z
" style="fill:#1f77b4;"/>
   </g>
   <g id="patch_87">
    <path clip-path="url(#p7a7d92d1a1)" d="M 162.979515 288.430125 
L 164.026021 288.430125 
L 164.026021 165.8675 
L 162.979515 165.8675 
z
" style="fill:#1f77b4;"/>
   </g>
   <g id="patch_88">
    <path clip-path="url(#p7a7d92d1a1)" d="M 164.287647 288.430125 
L 165.334152 288.430125 
L 165.334152 165.8675 
L 164.287647 165.8675 
z
" style="fill:#1f77b4;"/>
   </g>
   <g id="patch_89">
    <path clip-path="url(#p7a7d92d1a1)" d="M 165.595779 288.430125 
L 166.642284 288.430125 
L 166.642284 165.8675 
L 165.595779 165.8675 
z
" style="fill:#1f77b4;"/>
   </g>
   <g id="patch_90">
    <path clip-path="url(#p7a7d92d1a1)" d="M 166.903911 288.430125 
L 167.950416 288.430125 
L 167.950416 165.8675 
L 166.903911 165.8675 
z
" style="fill:#1f77b4;"/>
   </g>
   <g id="patch_91">
    <path clip-path="url(#p7a7d92d1a1)" d="M 168.212043 288.430125 
L 169.258548 288.430125 
L 169.258548 165.8675 
L 168.212043 165.8675 
z
" style="fill:#1f77b4;"/>
   </g>
   <g id="patch_92">
    <path clip-path="url(#p7a7d92d1a1)" d="M 169.520174 288.430125 
L 170.56668 288.430125 
L 170.56668 166.287235 
L 169.520174 166.287235 
z
" style="fill:#1f77b4;"/>
   </g>
   <g id="patch_93">
    <path clip-path="url(#p7a7d92d1a1)" d="M 170.828306 288.430125 
L 171.874812 288.430125 
L 171.874812 166.287235 
L 170.828306 166.287235 
z
" style="fill:#1f77b4;"/>
   </g>
   <g id="patch_94">
    <path clip-path="url(#p7a7d92d1a1)" d="M 172.136438 288.430125 
L 173.182944 288.430125 
L 173.182944 166.287235 
L 172.136438 166.287235 
z
" style="fill:#1f77b4;"/>
   </g>
   <g id="patch_95">
    <path clip-path="url(#p7a7d92d1a1)" d="M 173.44457 288.430125 
L 174.491076 288.430125 
L 174.491076 165.8675 
L 173.44457 165.8675 
z
" style="fill:#1f77b4;"/>
   </g>
   <g id="patch_96">
    <path clip-path="url(#p7a7d92d1a1)" d="M 174.752702 288.430125 
L 175.799207 288.430125 
L 175.799207 165.8675 
L 174.752702 165.8675 
z
" style="fill:#1f77b4;"/>
   </g>
   <g id="patch_97">
    <path clip-path="url(#p7a7d92d1a1)" d="M 176.060834 288.430125 
L 177.107339 288.430125 
L 177.107339 165.8675 
L 176.060834 165.8675 
z
" style="fill:#1f77b4;"/>
   </g>
   <g id="patch_98">
    <path clip-path="url(#p7a7d92d1a1)" d="M 177.368966 288.430125 
L 178.415471 288.430125 
L 178.415471 165.8675 
L 177.368966 165.8675 
z
" style="fill:#1f77b4;"/>
   </g>
   <g id="patch_99">
    <path clip-path="url(#p7a7d92d1a1)" d="M 178.677098 288.430125 
L 179.723603 288.430125 
L 179.723603 165.8675 
L 178.677098 165.8675 
z
" style="fill:#1f77b4;"/>
   </g>
   <g id="patch_100">
    <path clip-path="url(#p7a7d92d1a1)" d="M 179.985229 288.430125 
L 181.031735 288.430125 
L 181.031735 165.8675 
L 179.985229 165.8675 
z
" style="fill:#1f77b4;"/>
   </g>
   <g id="patch_101">
    <path clip-path="url(#p7a7d92d1a1)" d="M 181.293361 288.430125 
L 182.339867 288.430125 
L 182.339867 165.8675 
L 181.293361 165.8675 
z
" style="fill:#1f77b4;"/>
   </g>
   <g id="patch_102">
    <path clip-path="url(#p7a7d92d1a1)" d="M 182.601493 288.430125 
L 183.647999 288.430125 
L 183.647999 165.8675 
L 182.601493 165.8675 
z
" style="fill:#1f77b4;"/>
   </g>
   <g id="patch_103">
    <path clip-path="url(#p7a7d92d1a1)" d="M 183.909625 288.430125 
L 184.95613 288.430125 
L 184.95613 165.8675 
L 183.909625 165.8675 
z
" style="fill:#1f77b4;"/>
   </g>
   <g id="patch_104">
    <path clip-path="url(#p7a7d92d1a1)" d="M 185.217757 288.430125 
L 186.264262 288.430125 
L 186.264262 165.8675 
L 185.217757 165.8675 
z
" style="fill:#1f77b4;"/>
   </g>
   <g id="patch_105">
    <path clip-path="url(#p7a7d92d1a1)" d="M 186.525889 288.430125 
L 187.572394 288.430125 
L 187.572394 165.8675 
L 186.525889 165.8675 
z
" style="fill:#1f77b4;"/>
   </g>
   <g id="patch_106">
    <path clip-path="url(#p7a7d92d1a1)" d="M 187.834021 288.430125 
L 188.880526 288.430125 
L 188.880526 165.8675 
L 187.834021 165.8675 
z
" style="fill:#1f77b4;"/>
   </g>
   <g id="patch_107">
    <path clip-path="url(#p7a7d92d1a1)" d="M 189.142152 288.430125 
L 190.188658 288.430125 
L 190.188658 165.8675 
L 189.142152 165.8675 
z
" style="fill:#1f77b4;"/>
   </g>
   <g id="patch_108">
    <path clip-path="url(#p7a7d92d1a1)" d="M 190.450284 288.430125 
L 191.49679 288.430125 
L 191.49679 165.8675 
L 190.450284 165.8675 
z
" style="fill:#1f77b4;"/>
   </g>
   <g id="patch_109">
    <path clip-path="url(#p7a7d92d1a1)" d="M 191.758416 288.430125 
L 192.804922 288.430125 
L 192.804922 165.8675 
L 191.758416 165.8675 
z
" style="fill:#1f77b4;"/>
   </g>
   <g id="patch_110">
    <path clip-path="url(#p7a7d92d1a1)" d="M 193.066548 288.430125 
L 194.113054 288.430125 
L 194.113054 165.8675 
L 193.066548 165.8675 
z
" style="fill:#1f77b4;"/>
   </g>
   <g id="patch_111">
    <path clip-path="url(#p7a7d92d1a1)" d="M 194.37468 288.430125 
L 195.421185 288.430125 
L 195.421185 165.8675 
L 194.37468 165.8675 
z
" style="fill:#1f77b4;"/>
   </g>
   <g id="patch_112">
    <path clip-path="url(#p7a7d92d1a1)" d="M 195.682812 288.430125 
L 196.729317 288.430125 
L 196.729317 165.8675 
L 195.682812 165.8675 
z
" style="fill:#1f77b4;"/>
   </g>
   <g id="patch_113">
    <path clip-path="url(#p7a7d92d1a1)" d="M 196.990944 288.430125 
L 198.037449 288.430125 
L 198.037449 165.8675 
L 196.990944 165.8675 
z
" style="fill:#1f77b4;"/>
   </g>
   <g id="patch_114">
    <path clip-path="url(#p7a7d92d1a1)" d="M 198.299076 288.430125 
L 199.345581 288.430125 
L 199.345581 165.8675 
L 198.299076 165.8675 
z
" style="fill:#1f77b4;"/>
   </g>
   <g id="patch_115">
    <path clip-path="url(#p7a7d92d1a1)" d="M 199.607207 288.430125 
L 200.653713 288.430125 
L 200.653713 165.8675 
L 199.607207 165.8675 
z
" style="fill:#1f77b4;"/>
   </g>
   <g id="patch_116">
    <path clip-path="url(#p7a7d92d1a1)" d="M 200.915339 288.430125 
L 201.961845 288.430125 
L 201.961845 165.8675 
L 200.915339 165.8675 
z
" style="fill:#1f77b4;"/>
   </g>
   <g id="patch_117">
    <path clip-path="url(#p7a7d92d1a1)" d="M 202.223471 288.430125 
L 203.269977 288.430125 
L 203.269977 165.8675 
L 202.223471 165.8675 
z
" style="fill:#1f77b4;"/>
   </g>
   <g id="patch_118">
    <path clip-path="url(#p7a7d92d1a1)" d="M 203.531603 288.430125 
L 204.578109 288.430125 
L 204.578109 165.8675 
L 203.531603 165.8675 
z
" style="fill:#1f77b4;"/>
   </g>
   <g id="patch_119">
    <path clip-path="url(#p7a7d92d1a1)" d="M 204.839735 288.430125 
L 205.88624 288.430125 
L 205.88624 165.8675 
L 204.839735 165.8675 
z
" style="fill:#1f77b4;"/>
   </g>
   <g id="patch_120">
    <path clip-path="url(#p7a7d92d1a1)" d="M 206.147867 288.430125 
L 207.194372 288.430125 
L 207.194372 165.8675 
L 206.147867 165.8675 
z
" style="fill:#1f77b4;"/>
   </g>
   <g id="patch_121">
    <path clip-path="url(#p7a7d92d1a1)" d="M 207.455999 288.430125 
L 208.502504 288.430125 
L 208.502504 165.8675 
L 207.455999 165.8675 
z
" style="fill:#1f77b4;"/>
   </g>
   <g id="patch_122">
    <path clip-path="url(#p7a7d92d1a1)" d="M 208.76413 288.430125 
L 209.810636 288.430125 
L 209.810636 165.8675 
L 208.76413 165.8675 
z
" style="fill:#1f77b4;"/>
   </g>
   <g id="patch_123">
    <path clip-path="url(#p7a7d92d1a1)" d="M 210.072262 288.430125 
L 211.118768 288.430125 
L 211.118768 165.8675 
L 210.072262 165.8675 
z
" style="fill:#1f77b4;"/>
   </g>
   <g id="patch_124">
    <path clip-path="url(#p7a7d92d1a1)" d="M 211.380394 288.430125 
L 212.4269 288.430125 
L 212.4269 165.8675 
L 211.380394 165.8675 
z
" style="fill:#1f77b4;"/>
   </g>
   <g id="patch_125">
    <path clip-path="url(#p7a7d92d1a1)" d="M 212.688526 288.430125 
L 213.735032 288.430125 
L 213.735032 165.8675 
L 212.688526 165.8675 
z
" style="fill:#1f77b4;"/>
   </g>
   <g id="patch_126">
    <path clip-path="url(#p7a7d92d1a1)" d="M 213.996658 288.430125 
L 215.043163 288.430125 
L 215.043163 165.8675 
L 213.996658 165.8675 
z
" style="fill:#1f77b4;"/>
   </g>
   <g id="patch_127">
    <path clip-path="url(#p7a7d92d1a1)" d="M 215.30479 288.430125 
L 216.351295 288.430125 
L 216.351295 165.8675 
L 215.30479 165.8675 
z
" style="fill:#1f77b4;"/>
   </g>
   <g id="patch_128">
    <path clip-path="url(#p7a7d92d1a1)" d="M 216.612922 288.430125 
L 217.659427 288.430125 
L 217.659427 165.8675 
L 216.612922 165.8675 
z
" style="fill:#1f77b4;"/>
   </g>
   <g id="patch_129">
    <path clip-path="url(#p7a7d92d1a1)" d="M 217.921054 288.430125 
L 218.967559 288.430125 
L 218.967559 165.8675 
L 217.921054 165.8675 
z
" style="fill:#1f77b4;"/>
   </g>
   <g id="patch_130">
    <path clip-path="url(#p7a7d92d1a1)" d="M 219.229185 288.430125 
L 220.275691 288.430125 
L 220.275691 165.8675 
L 219.229185 165.8675 
z
" style="fill:#1f77b4;"/>
   </g>
   <g id="patch_131">
    <path clip-path="url(#p7a7d92d1a1)" d="M 220.537317 288.430125 
L 221.583823 288.430125 
L 221.583823 165.8675 
L 220.537317 165.8675 
z
" style="fill:#1f77b4;"/>
   </g>
   <g id="patch_132">
    <path clip-path="url(#p7a7d92d1a1)" d="M 221.845449 288.430125 
L 222.891955 288.430125 
L 222.891955 165.8675 
L 221.845449 165.8675 
z
" style="fill:#1f77b4;"/>
   </g>
   <g id="patch_133">
    <path clip-path="url(#p7a7d92d1a1)" d="M 223.153581 288.430125 
L 224.200087 288.430125 
L 224.200087 165.8675 
L 223.153581 165.8675 
z
" style="fill:#1f77b4;"/>
   </g>
   <g id="patch_134">
    <path clip-path="url(#p7a7d92d1a1)" d="M 224.461713 288.430125 
L 225.508218 288.430125 
L 225.508218 165.8675 
L 224.461713 165.8675 
z
" style="fill:#1f77b4;"/>
   </g>
   <g id="patch_135">
    <path clip-path="url(#p7a7d92d1a1)" d="M 225.769845 288.430125 
L 226.81635 288.430125 
L 226.81635 165.8675 
L 225.769845 165.8675 
z
" style="fill:#1f77b4;"/>
   </g>
   <g id="patch_136">
    <path clip-path="url(#p7a7d92d1a1)" d="M 227.077977 288.430125 
L 228.124482 288.430125 
L 228.124482 165.8675 
L 227.077977 165.8675 
z
" style="fill:#1f77b4;"/>
   </g>
   <g id="patch_137">
    <path clip-path="url(#p7a7d92d1a1)" d="M 228.386109 288.430125 
L 229.432614 288.430125 
L 229.432614 165.8675 
L 228.386109 165.8675 
z
" style="fill:#1f77b4;"/>
   </g>
   <g id="patch_138">
    <path clip-path="url(#p7a7d92d1a1)" d="M 229.69424 288.430125 
L 230.740746 288.430125 
L 230.740746 165.8675 
L 229.69424 165.8675 
z
" style="fill:#1f77b4;"/>
   </g>
   <g id="patch_139">
    <path clip-path="url(#p7a7d92d1a1)" d="M 231.002372 288.430125 
L 232.048878 288.430125 
L 232.048878 165.8675 
L 231.002372 165.8675 
z
" style="fill:#1f77b4;"/>
   </g>
   <g id="patch_140">
    <path clip-path="url(#p7a7d92d1a1)" d="M 232.310504 288.430125 
L 233.35701 288.430125 
L 233.35701 165.8675 
L 232.310504 165.8675 
z
" style="fill:#1f77b4;"/>
   </g>
   <g id="patch_141">
    <path clip-path="url(#p7a7d92d1a1)" d="M 233.618636 288.430125 
L 234.665141 288.430125 
L 234.665141 165.8675 
L 233.618636 165.8675 
z
" style="fill:#1f77b4;"/>
   </g>
   <g id="patch_142">
    <path clip-path="url(#p7a7d92d1a1)" d="M 234.926768 288.430125 
L 235.973273 288.430125 
L 235.973273 165.8675 
L 234.926768 165.8675 
z
" style="fill:#1f77b4;"/>
   </g>
   <g id="patch_143">
    <path clip-path="url(#p7a7d92d1a1)" d="M 236.2349 288.430125 
L 237.281405 288.430125 
L 237.281405 165.8675 
L 236.2349 165.8675 
z
" style="fill:#1f77b4;"/>
   </g>
   <g id="patch_144">
    <path clip-path="url(#p7a7d92d1a1)" d="M 237.543032 288.430125 
L 238.589537 288.430125 
L 238.589537 165.8675 
L 237.543032 165.8675 
z
" style="fill:#1f77b4;"/>
   </g>
   <g id="patch_145">
    <path clip-path="url(#p7a7d92d1a1)" d="M 238.851163 288.430125 
L 239.897669 288.430125 
L 239.897669 165.8675 
L 238.851163 165.8675 
z
" style="fill:#1f77b4;"/>
   </g>
   <g id="patch_146">
    <path clip-path="url(#p7a7d92d1a1)" d="M 240.159295 288.430125 
L 241.205801 288.430125 
L 241.205801 165.8675 
L 240.159295 165.8675 
z
" style="fill:#1f77b4;"/>
   </g>
   <g id="patch_147">
    <path clip-path="url(#p7a7d92d1a1)" d="M 241.467427 288.430125 
L 242.513933 288.430125 
L 242.513933 165.8675 
L 241.467427 165.8675 
z
" style="fill:#1f77b4;"/>
   </g>
   <g id="patch_148">
    <path clip-path="url(#p7a7d92d1a1)" d="M 242.775559 288.430125 
L 243.822065 288.430125 
L 243.822065 165.8675 
L 242.775559 165.8675 
z
" style="fill:#1f77b4;"/>
   </g>
   <g id="patch_149">
    <path clip-path="url(#p7a7d92d1a1)" d="M 244.083691 288.430125 
L 245.130196 288.430125 
L 245.130196 165.8675 
L 244.083691 165.8675 
z
" style="fill:#1f77b4;"/>
   </g>
   <g id="patch_150">
    <path clip-path="url(#p7a7d92d1a1)" d="M 245.391823 288.430125 
L 246.438328 288.430125 
L 246.438328 165.8675 
L 245.391823 165.8675 
z
" style="fill:#1f77b4;"/>
   </g>
   <g id="patch_151">
    <path clip-path="url(#p7a7d92d1a1)" d="M 246.699955 288.430125 
L 247.74646 288.430125 
L 247.74646 165.8675 
L 246.699955 165.8675 
z
" style="fill:#1f77b4;"/>
   </g>
   <g id="patch_152">
    <path clip-path="url(#p7a7d92d1a1)" d="M 248.008087 288.430125 
L 249.054592 288.430125 
L 249.054592 165.8675 
L 248.008087 165.8675 
z
" style="fill:#1f77b4;"/>
   </g>
   <g id="patch_153">
    <path clip-path="url(#p7a7d92d1a1)" d="M 249.316218 288.430125 
L 250.362724 288.430125 
L 250.362724 165.8675 
L 249.316218 165.8675 
z
" style="fill:#1f77b4;"/>
   </g>
   <g id="patch_154">
    <path clip-path="url(#p7a7d92d1a1)" d="M 250.62435 288.430125 
L 251.670856 288.430125 
L 251.670856 165.8675 
L 250.62435 165.8675 
z
" style="fill:#1f77b4;"/>
   </g>
   <g id="patch_155">
    <path clip-path="url(#p7a7d92d1a1)" d="M 251.932482 288.430125 
L 252.978988 288.430125 
L 252.978988 165.8675 
L 251.932482 165.8675 
z
" style="fill:#1f77b4;"/>
   </g>
   <g id="patch_156">
    <path clip-path="url(#p7a7d92d1a1)" d="M 253.240614 288.430125 
L 254.28712 288.430125 
L 254.28712 165.8675 
L 253.240614 165.8675 
z
" style="fill:#1f77b4;"/>
   </g>
   <g id="patch_157">
    <path clip-path="url(#p7a7d92d1a1)" d="M 254.548746 288.430125 
L 255.595251 288.430125 
L 255.595251 165.8675 
L 254.548746 165.8675 
z
" style="fill:#1f77b4;"/>
   </g>
   <g id="patch_158">
    <path clip-path="url(#p7a7d92d1a1)" d="M 255.856878 288.430125 
L 256.903383 288.430125 
L 256.903383 165.8675 
L 255.856878 165.8675 
z
" style="fill:#1f77b4;"/>
   </g>
   <g id="patch_159">
    <path clip-path="url(#p7a7d92d1a1)" d="M 257.16501 288.430125 
L 258.211515 288.430125 
L 258.211515 165.8675 
L 257.16501 165.8675 
z
" style="fill:#1f77b4;"/>
   </g>
   <g id="patch_160">
    <path clip-path="url(#p7a7d92d1a1)" d="M 258.473141 288.430125 
L 259.519647 288.430125 
L 259.519647 165.8675 
L 258.473141 165.8675 
z
" style="fill:#1f77b4;"/>
   </g>
   <g id="patch_161">
    <path clip-path="url(#p7a7d92d1a1)" d="M 259.781273 288.430125 
L 260.827779 288.430125 
L 260.827779 165.8675 
L 259.781273 165.8675 
z
" style="fill:#1f77b4;"/>
   </g>
   <g id="patch_162">
    <path clip-path="url(#p7a7d92d1a1)" d="M 261.089405 288.430125 
L 262.135911 288.430125 
L 262.135911 165.8675 
L 261.089405 165.8675 
z
" style="fill:#1f77b4;"/>
   </g>
   <g id="patch_163">
    <path clip-path="url(#p7a7d92d1a1)" d="M 262.397537 288.430125 
L 263.444043 288.430125 
L 263.444043 165.8675 
L 262.397537 165.8675 
z
" style="fill:#1f77b4;"/>
   </g>
   <g id="patch_164">
    <path clip-path="url(#p7a7d92d1a1)" d="M 263.705669 288.430125 
L 264.752174 288.430125 
L 264.752174 165.8675 
L 263.705669 165.8675 
z
" style="fill:#1f77b4;"/>
   </g>
   <g id="patch_165">
    <path clip-path="url(#p7a7d92d1a1)" d="M 265.013801 288.430125 
L 266.060306 288.430125 
L 266.060306 165.8675 
L 265.013801 165.8675 
z
" style="fill:#1f77b4;"/>
   </g>
   <g id="patch_166">
    <path clip-path="url(#p7a7d92d1a1)" d="M 266.321933 288.430125 
L 267.368438 288.430125 
L 267.368438 166.70697 
L 266.321933 166.70697 
z
" style="fill:#1f77b4;"/>
   </g>
   <g id="patch_167">
    <path clip-path="url(#p7a7d92d1a1)" d="M 267.630065 288.430125 
L 268.67657 288.430125 
L 268.67657 165.8675 
L 267.630065 165.8675 
z
" style="fill:#1f77b4;"/>
   </g>
   <g id="patch_168">
    <path clip-path="url(#p7a7d92d1a1)" d="M 268.938196 288.430125 
L 269.984702 288.430125 
L 269.984702 165.8675 
L 268.938196 165.8675 
z
" style="fill:#1f77b4;"/>
   </g>
   <g id="patch_169">
    <path clip-path="url(#p7a7d92d1a1)" d="M 270.246328 288.430125 
L 271.292834 288.430125 
L 271.292834 165.8675 
L 270.246328 165.8675 
z
" style="fill:#1f77b4;"/>
   </g>
   <g id="patch_170">
    <path clip-path="url(#p7a7d92d1a1)" d="M 271.55446 288.430125 
L 272.600966 288.430125 
L 272.600966 165.8675 
L 271.55446 165.8675 
z
" style="fill:#1f77b4;"/>
   </g>
   <g id="patch_171">
    <path clip-path="url(#p7a7d92d1a1)" d="M 272.862592 288.430125 
L 273.909098 288.430125 
L 273.909098 165.8675 
L 272.862592 165.8675 
z
" style="fill:#1f77b4;"/>
   </g>
   <g id="patch_172">
    <path clip-path="url(#p7a7d92d1a1)" d="M 274.170724 288.430125 
L 275.217229 288.430125 
L 275.217229 165.8675 
L 274.170724 165.8675 
z
" style="fill:#1f77b4;"/>
   </g>
   <g id="patch_173">
    <path clip-path="url(#p7a7d92d1a1)" d="M 275.478856 288.430125 
L 276.525361 288.430125 
L 276.525361 165.8675 
L 275.478856 165.8675 
z
" style="fill:#1f77b4;"/>
   </g>
   <g id="patch_174">
    <path clip-path="url(#p7a7d92d1a1)" d="M 276.786988 288.430125 
L 277.833493 288.430125 
L 277.833493 165.8675 
L 276.786988 165.8675 
z
" style="fill:#1f77b4;"/>
   </g>
   <g id="patch_175">
    <path clip-path="url(#p7a7d92d1a1)" d="M 278.09512 288.430125 
L 279.141625 288.430125 
L 279.141625 165.8675 
L 278.09512 165.8675 
z
" style="fill:#1f77b4;"/>
   </g>
   <g id="patch_176">
    <path clip-path="url(#p7a7d92d1a1)" d="M 279.403251 288.430125 
L 280.449757 288.430125 
L 280.449757 165.8675 
L 279.403251 165.8675 
z
" style="fill:#1f77b4;"/>
   </g>
   <g id="patch_177">
    <path clip-path="url(#p7a7d92d1a1)" d="M 280.711383 288.430125 
L 281.757889 288.430125 
L 281.757889 165.8675 
L 280.711383 165.8675 
z
" style="fill:#1f77b4;"/>
   </g>
   <g id="patch_178">
    <path clip-path="url(#p7a7d92d1a1)" d="M 282.019515 288.430125 
L 283.066021 288.430125 
L 283.066021 165.8675 
L 282.019515 165.8675 
z
" style="fill:#1f77b4;"/>
   </g>
   <g id="patch_179">
    <path clip-path="url(#p7a7d92d1a1)" d="M 283.327647 288.430125 
L 284.374152 288.430125 
L 284.374152 165.8675 
L 283.327647 165.8675 
z
" style="fill:#1f77b4;"/>
   </g>
   <g id="patch_180">
    <path clip-path="url(#p7a7d92d1a1)" d="M 284.635779 288.430125 
L 285.682284 288.430125 
L 285.682284 165.8675 
L 284.635779 165.8675 
z
" style="fill:#1f77b4;"/>
   </g>
   <g id="patch_181">
    <path clip-path="url(#p7a7d92d1a1)" d="M 285.943911 288.430125 
L 286.990416 288.430125 
L 286.990416 165.8675 
L 285.943911 165.8675 
z
" style="fill:#1f77b4;"/>
   </g>
   <g id="patch_182">
    <path clip-path="url(#p7a7d92d1a1)" d="M 287.252043 288.430125 
L 288.298548 288.430125 
L 288.298548 165.8675 
L 287.252043 165.8675 
z
" style="fill:#1f77b4;"/>
   </g>
   <g id="patch_183">
    <path clip-path="url(#p7a7d92d1a1)" d="M 288.560174 288.430125 
L 289.60668 288.430125 
L 289.60668 165.8675 
L 288.560174 165.8675 
z
" style="fill:#1f77b4;"/>
   </g>
   <g id="patch_184">
    <path clip-path="url(#p7a7d92d1a1)" d="M 289.868306 288.430125 
L 290.914812 288.430125 
L 290.914812 165.8675 
L 289.868306 165.8675 
z
" style="fill:#1f77b4;"/>
   </g>
   <g id="patch_185">
    <path clip-path="url(#p7a7d92d1a1)" d="M 291.176438 288.430125 
L 292.222944 288.430125 
L 292.222944 165.8675 
L 291.176438 165.8675 
z
" style="fill:#1f77b4;"/>
   </g>
   <g id="patch_186">
    <path clip-path="url(#p7a7d92d1a1)" d="M 292.48457 288.430125 
L 293.531076 288.430125 
L 293.531076 165.8675 
L 292.48457 165.8675 
z
" style="fill:#1f77b4;"/>
   </g>
   <g id="patch_187">
    <path clip-path="url(#p7a7d92d1a1)" d="M 293.792702 288.430125 
L 294.839207 288.430125 
L 294.839207 165.8675 
L 293.792702 165.8675 
z
" style="fill:#1f77b4;"/>
   </g>
   <g id="patch_188">
    <path clip-path="url(#p7a7d92d1a1)" d="M 295.100834 288.430125 
L 296.147339 288.430125 
L 296.147339 165.8675 
L 295.100834 165.8675 
z
" style="fill:#1f77b4;"/>
   </g>
   <g id="patch_189">
    <path clip-path="url(#p7a7d92d1a1)" d="M 296.408966 288.430125 
L 297.455471 288.430125 
L 297.455471 165.8675 
L 296.408966 165.8675 
z
" style="fill:#1f77b4;"/>
   </g>
   <g id="patch_190">
    <path clip-path="url(#p7a7d92d1a1)" d="M 297.717098 288.430125 
L 298.763603 288.430125 
L 298.763603 165.8675 
L 297.717098 165.8675 
z
" style="fill:#1f77b4;"/>
   </g>
   <g id="patch_191">
    <path clip-path="url(#p7a7d92d1a1)" d="M 299.025229 288.430125 
L 300.071735 288.430125 
L 300.071735 165.8675 
L 299.025229 165.8675 
z
" style="fill:#1f77b4;"/>
   </g>
   <g id="patch_192">
    <path clip-path="url(#p7a7d92d1a1)" d="M 300.333361 288.430125 
L 301.379867 288.430125 
L 301.379867 165.8675 
L 300.333361 165.8675 
z
" style="fill:#1f77b4;"/>
   </g>
   <g id="patch_193">
    <path clip-path="url(#p7a7d92d1a1)" d="M 301.641493 288.430125 
L 302.687999 288.430125 
L 302.687999 165.8675 
L 301.641493 165.8675 
z
" style="fill:#1f77b4;"/>
   </g>
   <g id="patch_194">
    <path clip-path="url(#p7a7d92d1a1)" d="M 302.949625 288.430125 
L 303.99613 288.430125 
L 303.99613 165.8675 
L 302.949625 165.8675 
z
" style="fill:#1f77b4;"/>
   </g>
   <g id="patch_195">
    <path clip-path="url(#p7a7d92d1a1)" d="M 304.257757 288.430125 
L 305.304262 288.430125 
L 305.304262 165.8675 
L 304.257757 165.8675 
z
" style="fill:#1f77b4;"/>
   </g>
   <g id="patch_196">
    <path clip-path="url(#p7a7d92d1a1)" d="M 305.565889 288.430125 
L 306.612394 288.430125 
L 306.612394 165.8675 
L 305.565889 165.8675 
z
" style="fill:#1f77b4;"/>
   </g>
   <g id="patch_197">
    <path clip-path="url(#p7a7d92d1a1)" d="M 306.874021 288.430125 
L 307.920526 288.430125 
L 307.920526 165.8675 
L 306.874021 165.8675 
z
" style="fill:#1f77b4;"/>
   </g>
   <g id="patch_198">
    <path clip-path="url(#p7a7d92d1a1)" d="M 308.182152 288.430125 
L 309.228658 288.430125 
L 309.228658 165.8675 
L 308.182152 165.8675 
z
" style="fill:#1f77b4;"/>
   </g>
   <g id="patch_199">
    <path clip-path="url(#p7a7d92d1a1)" d="M 309.490284 288.430125 
L 310.53679 288.430125 
L 310.53679 165.8675 
L 309.490284 165.8675 
z
" style="fill:#1f77b4;"/>
   </g>
   <g id="patch_200">
    <path clip-path="url(#p7a7d92d1a1)" d="M 310.798416 288.430125 
L 311.844922 288.430125 
L 311.844922 165.8675 
L 310.798416 165.8675 
z
" style="fill:#1f77b4;"/>
   </g>
   <g id="patch_201">
    <path clip-path="url(#p7a7d92d1a1)" d="M 312.106548 288.430125 
L 313.153054 288.430125 
L 313.153054 165.8675 
L 312.106548 165.8675 
z
" style="fill:#1f77b4;"/>
   </g>
   <g id="patch_202">
    <path clip-path="url(#p7a7d92d1a1)" d="M 313.41468 288.430125 
L 314.461185 288.430125 
L 314.461185 165.8675 
L 313.41468 165.8675 
z
" style="fill:#1f77b4;"/>
   </g>
   <g id="patch_203">
    <path clip-path="url(#p7a7d92d1a1)" d="M 314.722812 288.430125 
L 315.769317 288.430125 
L 315.769317 165.8675 
L 314.722812 165.8675 
z
" style="fill:#1f77b4;"/>
   </g>
   <g id="patch_204">
    <path clip-path="url(#p7a7d92d1a1)" d="M 316.030944 288.430125 
L 317.077449 288.430125 
L 317.077449 165.8675 
L 316.030944 165.8675 
z
" style="fill:#1f77b4;"/>
   </g>
   <g id="patch_205">
    <path clip-path="url(#p7a7d92d1a1)" d="M 317.339076 288.430125 
L 318.385581 288.430125 
L 318.385581 165.8675 
L 317.339076 165.8675 
z
" style="fill:#1f77b4;"/>
   </g>
   <g id="patch_206">
    <path clip-path="url(#p7a7d92d1a1)" d="M 318.647207 288.430125 
L 319.693713 288.430125 
L 319.693713 165.8675 
L 318.647207 165.8675 
z
" style="fill:#1f77b4;"/>
   </g>
   <g id="patch_207">
    <path clip-path="url(#p7a7d92d1a1)" d="M 319.955339 288.430125 
L 321.001845 288.430125 
L 321.001845 165.8675 
L 319.955339 165.8675 
z
" style="fill:#1f77b4;"/>
   </g>
   <g id="patch_208">
    <path clip-path="url(#p7a7d92d1a1)" d="M 321.263471 288.430125 
L 322.309977 288.430125 
L 322.309977 165.8675 
L 321.263471 165.8675 
z
" style="fill:#1f77b4;"/>
   </g>
   <g id="patch_209">
    <path clip-path="url(#p7a7d92d1a1)" d="M 322.571603 288.430125 
L 323.618109 288.430125 
L 323.618109 165.8675 
L 322.571603 165.8675 
z
" style="fill:#1f77b4;"/>
   </g>
   <g id="patch_210">
    <path clip-path="url(#p7a7d92d1a1)" d="M 323.879735 288.430125 
L 324.92624 288.430125 
L 324.92624 165.8675 
L 323.879735 165.8675 
z
" style="fill:#1f77b4;"/>
   </g>
   <g id="patch_211">
    <path clip-path="url(#p7a7d92d1a1)" d="M 325.187867 288.430125 
L 326.234372 288.430125 
L 326.234372 165.8675 
L 325.187867 165.8675 
z
" style="fill:#1f77b4;"/>
   </g>
   <g id="patch_212">
    <path clip-path="url(#p7a7d92d1a1)" d="M 326.495999 288.430125 
L 327.542504 288.430125 
L 327.542504 165.8675 
L 326.495999 165.8675 
z
" style="fill:#1f77b4;"/>
   </g>
   <g id="patch_213">
    <path clip-path="url(#p7a7d92d1a1)" d="M 327.80413 288.430125 
L 328.850636 288.430125 
L 328.850636 165.447765 
L 327.80413 165.447765 
z
" style="fill:#1f77b4;"/>
   </g>
   <g id="patch_214">
    <path clip-path="url(#p7a7d92d1a1)" d="M 329.112262 288.430125 
L 330.158768 288.430125 
L 330.158768 165.447765 
L 329.112262 165.447765 
z
" style="fill:#1f77b4;"/>
   </g>
   <g id="patch_215">
    <path clip-path="url(#p7a7d92d1a1)" d="M 330.420394 288.430125 
L 331.4669 288.430125 
L 331.4669 165.447765 
L 330.420394 165.447765 
z
" style="fill:#1f77b4;"/>
   </g>
   <g id="patch_216">
    <path clip-path="url(#p7a7d92d1a1)" d="M 331.728526 288.430125 
L 332.775032 288.430125 
L 332.775032 165.447765 
L 331.728526 165.447765 
z
" style="fill:#1f77b4;"/>
   </g>
   <g id="patch_217">
    <path clip-path="url(#p7a7d92d1a1)" d="M 333.036658 288.430125 
L 334.083163 288.430125 
L 334.083163 165.447765 
L 333.036658 165.447765 
z
" style="fill:#1f77b4;"/>
   </g>
   <g id="patch_218">
    <path clip-path="url(#p7a7d92d1a1)" d="M 334.34479 288.430125 
L 335.391295 288.430125 
L 335.391295 165.447765 
L 334.34479 165.447765 
z
" style="fill:#1f77b4;"/>
   </g>
   <g id="patch_219">
    <path clip-path="url(#p7a7d92d1a1)" d="M 335.652922 288.430125 
L 336.699427 288.430125 
L 336.699427 165.447765 
L 335.652922 165.447765 
z
" style="fill:#1f77b4;"/>
   </g>
   <g id="patch_220">
    <path clip-path="url(#p7a7d92d1a1)" d="M 336.961054 288.430125 
L 338.007559 288.430125 
L 338.007559 165.447765 
L 336.961054 165.447765 
z
" style="fill:#1f77b4;"/>
   </g>
   <g id="patch_221">
    <path clip-path="url(#p7a7d92d1a1)" d="M 338.269185 288.430125 
L 339.315691 288.430125 
L 339.315691 165.02803 
L 338.269185 165.02803 
z
" style="fill:#1f77b4;"/>
   </g>
   <g id="patch_222">
    <path clip-path="url(#p7a7d92d1a1)" d="M 339.577317 288.430125 
L 340.623823 288.430125 
L 340.623823 165.02803 
L 339.577317 165.02803 
z
" style="fill:#1f77b4;"/>
   </g>
   <g id="patch_223">
    <path clip-path="url(#p7a7d92d1a1)" d="M 340.885449 288.430125 
L 341.931955 288.430125 
L 341.931955 164.18856 
L 340.885449 164.18856 
z
" style="fill:#1f77b4;"/>
   </g>
   <g id="patch_224">
    <path clip-path="url(#p7a7d92d1a1)" d="M 342.193581 288.430125 
L 343.240087 288.430125 
L 343.240087 164.18856 
L 342.193581 164.18856 
z
" style="fill:#1f77b4;"/>
   </g>
   <g id="patch_225">
    <path clip-path="url(#p7a7d92d1a1)" d="M 343.501713 288.430125 
L 344.548218 288.430125 
L 344.548218 164.18856 
L 343.501713 164.18856 
z
" style="fill:#1f77b4;"/>
   </g>
   <g id="patch_226">
    <path clip-path="url(#p7a7d92d1a1)" d="M 344.809845 288.430125 
L 345.85635 288.430125 
L 345.85635 164.18856 
L 344.809845 164.18856 
z
" style="fill:#1f77b4;"/>
   </g>
   <g id="patch_227">
    <path clip-path="url(#p7a7d92d1a1)" d="M 346.117977 288.430125 
L 347.164482 288.430125 
L 347.164482 164.18856 
L 346.117977 164.18856 
z
" style="fill:#1f77b4;"/>
   </g>
   <g id="patch_228">
    <path clip-path="url(#p7a7d92d1a1)" d="M 347.426109 288.430125 
L 348.472614 288.430125 
L 348.472614 162.929355 
L 347.426109 162.929355 
z
" style="fill:#1f77b4;"/>
   </g>
   <g id="patch_229">
    <path clip-path="url(#p7a7d92d1a1)" d="M 348.73424 288.430125 
L 349.780746 288.430125 
L 349.780746 162.50962 
L 348.73424 162.50962 
z
" style="fill:#1f77b4;"/>
   </g>
   <g id="patch_230">
    <path clip-path="url(#p7a7d92d1a1)" d="M 350.042372 288.430125 
L 351.088878 288.430125 
L 351.088878 160.83068 
L 350.042372 160.83068 
z
" style="fill:#1f77b4;"/>
   </g>
   <g id="patch_231">
    <path clip-path="url(#p7a7d92d1a1)" d="M 351.350504 288.430125 
L 352.39701 288.430125 
L 352.39701 159.99121 
L 351.350504 159.99121 
z
" style="fill:#1f77b4;"/>
   </g>
   <g id="patch_232">
    <path clip-path="url(#p7a7d92d1a1)" d="M 352.658636 288.430125 
L 353.705141 288.430125 
L 353.705141 159.15174 
L 352.658636 159.15174 
z
" style="fill:#1f77b4;"/>
   </g>
   <g id="patch_233">
    <path clip-path="url(#p7a7d92d1a1)" d="M 353.966768 288.430125 
L 355.013273 288.430125 
L 355.013273 157.4728 
L 353.966768 157.4728 
z
" style="fill:#1f77b4;"/>
   </g>
   <g id="patch_234">
    <path clip-path="url(#p7a7d92d1a1)" d="M 355.2749 288.430125 
L 356.321405 288.430125 
L 356.321405 156.213595 
L 355.2749 156.213595 
z
" style="fill:#1f77b4;"/>
   </g>
   <g id="patch_235">
    <path clip-path="url(#p7a7d92d1a1)" d="M 356.583032 288.430125 
L 357.629537 288.430125 
L 357.629537 154.534655 
L 356.583032 154.534655 
z
" style="fill:#1f77b4;"/>
   </g>
   <g id="patch_236">
    <path clip-path="url(#p7a7d92d1a1)" d="M 357.891163 288.430125 
L 358.937669 288.430125 
L 358.937669 154.11492 
L 357.891163 154.11492 
z
" style="fill:#1f77b4;"/>
   </g>
   <g id="patch_237">
    <path clip-path="url(#p7a7d92d1a1)" d="M 359.199295 288.430125 
L 360.245801 288.430125 
L 360.245801 153.27545 
L 359.199295 153.27545 
z
" style="fill:#1f77b4;"/>
   </g>
   <g id="patch_238">
    <path clip-path="url(#p7a7d92d1a1)" d="M 360.507427 288.430125 
L 361.553933 288.430125 
L 361.553933 151.59651 
L 360.507427 151.59651 
z
" style="fill:#1f77b4;"/>
   </g>
   <g id="patch_239">
    <path clip-path="url(#p7a7d92d1a1)" d="M 361.815559 288.430125 
L 362.862065 288.430125 
L 362.862065 149.91757 
L 361.815559 149.91757 
z
" style="fill:#1f77b4;"/>
   </g>
   <g id="patch_240">
    <path clip-path="url(#p7a7d92d1a1)" d="M 363.123691 288.430125 
L 364.170196 288.430125 
L 364.170196 146.979425 
L 363.123691 146.979425 
z
" style="fill:#1f77b4;"/>
   </g>
   <g id="patch_241">
    <path clip-path="url(#p7a7d92d1a1)" d="M 364.431823 288.430125 
L 365.478328 288.430125 
L 365.478328 145.300485 
L 364.431823 145.300485 
z
" style="fill:#1f77b4;"/>
   </g>
   <g id="patch_242">
    <path clip-path="url(#p7a7d92d1a1)" d="M 365.739955 288.430125 
L 366.78646 288.430125 
L 366.78646 143.621545 
L 365.739955 143.621545 
z
" style="fill:#1f77b4;"/>
   </g>
   <g id="patch_243">
    <path clip-path="url(#p7a7d92d1a1)" d="M 367.048087 288.430125 
L 368.094592 288.430125 
L 368.094592 141.522869 
L 367.048087 141.522869 
z
" style="fill:#1f77b4;"/>
   </g>
   <g id="patch_244">
    <path clip-path="url(#p7a7d92d1a1)" d="M 368.356218 288.430125 
L 369.402724 288.430125 
L 369.402724 137.745254 
L 368.356218 137.745254 
z
" style="fill:#1f77b4;"/>
   </g>
   <g id="patch_245">
    <path clip-path="url(#p7a7d92d1a1)" d="M 369.66435 288.430125 
L 370.710856 288.430125 
L 370.710856 135.226844 
L 369.66435 135.226844 
z
" style="fill:#1f77b4;"/>
   </g>
   <g id="patch_246">
    <path clip-path="url(#p7a7d92d1a1)" d="M 370.972482 288.430125 
L 372.018988 288.430125 
L 372.018988 131.449229 
L 370.972482 131.449229 
z
" style="fill:#1f77b4;"/>
   </g>
   <g id="patch_247">
    <path clip-path="url(#p7a7d92d1a1)" d="M 372.280614 288.430125 
L 373.32712 288.430125 
L 373.32712 129.350554 
L 372.280614 129.350554 
z
" style="fill:#1f77b4;"/>
   </g>
   <g id="patch_248">
    <path clip-path="url(#p7a7d92d1a1)" d="M 373.588746 288.430125 
L 374.635251 288.430125 
L 374.635251 121.375589 
L 373.588746 121.375589 
z
" style="fill:#1f77b4;"/>
   </g>
   <g id="patch_249">
    <path clip-path="url(#p7a7d92d1a1)" d="M 374.896878 288.430125 
L 375.943383 288.430125 
L 375.943383 118.437444 
L 374.896878 118.437444 
z
" style="fill:#1f77b4;"/>
   </g>
   <g id="patch_250">
    <path clip-path="url(#p7a7d92d1a1)" d="M 376.20501 288.430125 
L 377.251515 288.430125 
L 377.251515 114.659828 
L 376.20501 114.659828 
z
" style="fill:#1f77b4;"/>
   </g>
   <g id="patch_251">
    <path clip-path="url(#p7a7d92d1a1)" d="M 377.513141 288.430125 
L 378.559647 288.430125 
L 378.559647 110.042743 
L 377.513141 110.042743 
z
" style="fill:#1f77b4;"/>
   </g>
   <g id="patch_252">
    <path clip-path="url(#p7a7d92d1a1)" d="M 378.821273 288.430125 
L 379.867779 288.430125 
L 379.867779 104.586188 
L 378.821273 104.586188 
z
" style="fill:#1f77b4;"/>
   </g>
   <g id="patch_253">
    <path clip-path="url(#p7a7d92d1a1)" d="M 380.129405 288.430125 
L 381.175911 288.430125 
L 381.175911 101.228308 
L 380.129405 101.228308 
z
" style="fill:#1f77b4;"/>
   </g>
   <g id="patch_254">
    <path clip-path="url(#p7a7d92d1a1)" d="M 381.437537 288.430125 
L 382.484043 288.430125 
L 382.484043 94.512548 
L 381.437537 94.512548 
z
" style="fill:#1f77b4;"/>
   </g>
   <g id="patch_255">
    <path clip-path="url(#p7a7d92d1a1)" d="M 382.745669 288.430125 
L 383.792174 288.430125 
L 383.792174 91.574403 
L 382.745669 91.574403 
z
" style="fill:#1f77b4;"/>
   </g>
   <g id="patch_256">
    <path clip-path="url(#p7a7d92d1a1)" d="M 384.053801 288.430125 
L 385.100306 288.430125 
L 385.100306 89.475728 
L 384.053801 89.475728 
z
" style="fill:#1f77b4;"/>
   </g>
   <g id="patch_257">
    <path clip-path="url(#p7a7d92d1a1)" d="M 385.361933 288.430125 
L 386.408438 288.430125 
L 386.408438 82.759967 
L 385.361933 82.759967 
z
" style="fill:#1f77b4;"/>
   </g>
   <g id="patch_258">
    <path clip-path="url(#p7a7d92d1a1)" d="M 386.670065 288.430125 
L 387.71657 288.430125 
L 387.71657 79.402087 
L 386.670065 79.402087 
z
" style="fill:#1f77b4;"/>
   </g>
   <g id="patch_259">
    <path clip-path="url(#p7a7d92d1a1)" d="M 387.978196 288.430125 
L 389.024702 288.430125 
L 389.024702 74.785002 
L 387.978196 74.785002 
z
" style="fill:#1f77b4;"/>
   </g>
   <g id="patch_260">
    <path clip-path="url(#p7a7d92d1a1)" d="M 389.286328 288.430125 
L 390.332834 288.430125 
L 390.332834 70.167917 
L 389.286328 70.167917 
z
" style="fill:#1f77b4;"/>
   </g>
   <g id="patch_261">
    <path clip-path="url(#p7a7d92d1a1)" d="M 390.59446 288.430125 
L 391.640966 288.430125 
L 391.640966 68.908712 
L 390.59446 68.908712 
z
" style="fill:#1f77b4;"/>
   </g>
   <g id="patch_262">
    <path clip-path="url(#p7a7d92d1a1)" d="M 391.902592 288.430125 
L 392.949098 288.430125 
L 392.949098 65.970567 
L 391.902592 65.970567 
z
" style="fill:#1f77b4;"/>
   </g>
   <g id="patch_263">
    <path clip-path="url(#p7a7d92d1a1)" d="M 393.210724 288.430125 
L 394.257229 288.430125 
L 394.257229 65.550832 
L 393.210724 65.550832 
z
" style="fill:#1f77b4;"/>
   </g>
   <g id="patch_264">
    <path clip-path="url(#p7a7d92d1a1)" d="M 394.518856 288.430125 
L 395.565361 288.430125 
L 395.565361 63.871892 
L 394.518856 63.871892 
z
" style="fill:#1f77b4;"/>
   </g>
   <g id="patch_265">
    <path clip-path="url(#p7a7d92d1a1)" d="M 395.826988 288.430125 
L 396.873493 288.430125 
L 396.873493 60.933746 
L 395.826988 60.933746 
z
" style="fill:#1f77b4;"/>
   </g>
   <g id="patch_266">
    <path clip-path="url(#p7a7d92d1a1)" d="M 397.13512 288.430125 
L 398.181625 288.430125 
L 398.181625 54.217986 
L 397.13512 54.217986 
z
" style="fill:#1f77b4;"/>
   </g>
   <g id="patch_267">
    <path clip-path="url(#p7a7d92d1a1)" d="M 398.443251 288.430125 
L 399.489757 288.430125 
L 399.489757 49.600901 
L 398.443251 49.600901 
z
" style="fill:#1f77b4;"/>
   </g>
   <g id="patch_268">
    <path clip-path="url(#p7a7d92d1a1)" d="M 399.751383 288.430125 
L 400.797889 288.430125 
L 400.797889 48.341696 
L 399.751383 48.341696 
z
" style="fill:#1f77b4;"/>
   </g>
   <g id="patch_269">
    <path clip-path="url(#p7a7d92d1a1)" d="M 401.059515 288.430125 
L 402.106021 288.430125 
L 402.106021 45.823286 
L 401.059515 45.823286 
z
" style="fill:#1f77b4;"/>
   </g>
   <g id="patch_270">
    <path clip-path="url(#p7a7d92d1a1)" d="M 402.367647 288.430125 
L 403.414152 288.430125 
L 403.414152 43.724611 
L 402.367647 43.724611 
z
" style="fill:#1f77b4;"/>
   </g>
   <g id="patch_271">
    <path clip-path="url(#p7a7d92d1a1)" d="M 403.675779 288.430125 
L 404.722284 288.430125 
L 404.722284 39.107526 
L 403.675779 39.107526 
z
" style="fill:#1f77b4;"/>
   </g>
   <g id="patch_272">
    <path clip-path="url(#p7a7d92d1a1)" d="M 404.983911 288.430125 
L 406.030416 288.430125 
L 406.030416 34.910175 
L 404.983911 34.910175 
z
" style="fill:#1f77b4;"/>
   </g>
   <g id="patch_273">
    <path clip-path="url(#p7a7d92d1a1)" d="M 406.292043 288.430125 
L 407.338548 288.430125 
L 407.338548 31.552295 
L 406.292043 31.552295 
z
" style="fill:#1f77b4;"/>
   </g>
   <g id="patch_274">
    <path clip-path="url(#p7a7d92d1a1)" d="M 407.600174 288.430125 
L 408.64668 288.430125 
L 408.64668 24.4168 
L 407.600174 24.4168 
z
" style="fill:#1f77b4;"/>
   </g>
   <g id="patch_275">
    <path clip-path="url(#p7a7d92d1a1)" d="M 408.908306 288.430125 
L 409.954812 288.430125 
L 409.954812 22.318125 
L 408.908306 22.318125 
z
" style="fill:#1f77b4;"/>
   </g>
   <g id="matplotlib.axis_1">
    <g id="xtick_1">
     <g id="line2d_1">
      <defs>
       <path d="M 0 0 
L 0 3.5 
" id="m3952698cb3" style="stroke:#000000;stroke-width:0.8;"/>
      </defs>
      <g>
       <use style="stroke:#000000;stroke-width:0.8;" x="75.857933" xlink:href="#m3952698cb3" y="288.430125"/>
      </g>
     </g>
     <g id="text_1">
      <!-- 2020-04 -->
      <g transform="translate(78.617308 337.212937)rotate(-90)scale(0.1 -0.1)">
       <defs>
        <path d="M 19.1875 8.296875 
L 53.609375 8.296875 
L 53.609375 0 
L 7.328125 0 
L 7.328125 8.296875 
Q 12.9375 14.109375 22.625 23.890625 
Q 32.328125 33.6875 34.8125 36.53125 
Q 39.546875 41.84375 41.421875 45.53125 
Q 43.3125 49.21875 43.3125 52.78125 
Q 43.3125 58.59375 39.234375 62.25 
Q 35.15625 65.921875 28.609375 65.921875 
Q 23.96875 65.921875 18.8125 64.3125 
Q 13.671875 62.703125 7.8125 59.421875 
L 7.8125 69.390625 
Q 13.765625 71.78125 18.9375 73 
Q 24.125 74.21875 28.421875 74.21875 
Q 39.75 74.21875 46.484375 68.546875 
Q 53.21875 62.890625 53.21875 53.421875 
Q 53.21875 48.921875 51.53125 44.890625 
Q 49.859375 40.875 45.40625 35.40625 
Q 44.1875 33.984375 37.640625 27.21875 
Q 31.109375 20.453125 19.1875 8.296875 
z
" id="DejaVuSans-50"/>
        <path d="M 31.78125 66.40625 
Q 24.171875 66.40625 20.328125 58.90625 
Q 16.5 51.421875 16.5 36.375 
Q 16.5 21.390625 20.328125 13.890625 
Q 24.171875 6.390625 31.78125 6.390625 
Q 39.453125 6.390625 43.28125 13.890625 
Q 47.125 21.390625 47.125 36.375 
Q 47.125 51.421875 43.28125 58.90625 
Q 39.453125 66.40625 31.78125 66.40625 
z
M 31.78125 74.21875 
Q 44.046875 74.21875 50.515625 64.515625 
Q 56.984375 54.828125 56.984375 36.375 
Q 56.984375 17.96875 50.515625 8.265625 
Q 44.046875 -1.421875 31.78125 -1.421875 
Q 19.53125 -1.421875 13.0625 8.265625 
Q 6.59375 17.96875 6.59375 36.375 
Q 6.59375 54.828125 13.0625 64.515625 
Q 19.53125 74.21875 31.78125 74.21875 
z
" id="DejaVuSans-48"/>
        <path d="M 4.890625 31.390625 
L 31.203125 31.390625 
L 31.203125 23.390625 
L 4.890625 23.390625 
z
" id="DejaVuSans-45"/>
        <path d="M 37.796875 64.3125 
L 12.890625 25.390625 
L 37.796875 25.390625 
z
M 35.203125 72.90625 
L 47.609375 72.90625 
L 47.609375 25.390625 
L 58.015625 25.390625 
L 58.015625 17.1875 
L 47.609375 17.1875 
L 47.609375 0 
L 37.796875 0 
L 37.796875 17.1875 
L 4.890625 17.1875 
L 4.890625 26.703125 
z
" id="DejaVuSans-52"/>
       </defs>
       <use xlink:href="#DejaVuSans-50"/>
       <use x="63.623047" xlink:href="#DejaVuSans-48"/>
       <use x="127.246094" xlink:href="#DejaVuSans-50"/>
       <use x="190.869141" xlink:href="#DejaVuSans-48"/>
       <use x="254.492188" xlink:href="#DejaVuSans-45"/>
       <use x="290.576172" xlink:href="#DejaVuSans-48"/>
       <use x="354.199219" xlink:href="#DejaVuSans-52"/>
      </g>
     </g>
    </g>
    <g id="xtick_2">
     <g id="line2d_2">
      <g>
       <use style="stroke:#000000;stroke-width:0.8;" x="115.101889" xlink:href="#m3952698cb3" y="288.430125"/>
      </g>
     </g>
     <g id="text_2">
      <!-- 2020-05 -->
      <g transform="translate(117.861264 337.212937)rotate(-90)scale(0.1 -0.1)">
       <defs>
        <path d="M 10.796875 72.90625 
L 49.515625 72.90625 
L 49.515625 64.59375 
L 19.828125 64.59375 
L 19.828125 46.734375 
Q 21.96875 47.46875 24.109375 47.828125 
Q 26.265625 48.1875 28.421875 48.1875 
Q 40.625 48.1875 47.75 41.5 
Q 54.890625 34.8125 54.890625 23.390625 
Q 54.890625 11.625 47.5625 5.09375 
Q 40.234375 -1.421875 26.90625 -1.421875 
Q 22.3125 -1.421875 17.546875 -0.640625 
Q 12.796875 0.140625 7.71875 1.703125 
L 7.71875 11.625 
Q 12.109375 9.234375 16.796875 8.0625 
Q 21.484375 6.890625 26.703125 6.890625 
Q 35.15625 6.890625 40.078125 11.328125 
Q 45.015625 15.765625 45.015625 23.390625 
Q 45.015625 31 40.078125 35.4375 
Q 35.15625 39.890625 26.703125 39.890625 
Q 22.75 39.890625 18.8125 39.015625 
Q 14.890625 38.140625 10.796875 36.28125 
z
" id="DejaVuSans-53"/>
       </defs>
       <use xlink:href="#DejaVuSans-50"/>
       <use x="63.623047" xlink:href="#DejaVuSans-48"/>
       <use x="127.246094" xlink:href="#DejaVuSans-50"/>
       <use x="190.869141" xlink:href="#DejaVuSans-48"/>
       <use x="254.492188" xlink:href="#DejaVuSans-45"/>
       <use x="290.576172" xlink:href="#DejaVuSans-48"/>
       <use x="354.199219" xlink:href="#DejaVuSans-53"/>
      </g>
     </g>
    </g>
    <g id="xtick_3">
     <g id="line2d_3">
      <g>
       <use style="stroke:#000000;stroke-width:0.8;" x="155.653977" xlink:href="#m3952698cb3" y="288.430125"/>
      </g>
     </g>
     <g id="text_3">
      <!-- 2020-06 -->
      <g transform="translate(158.413352 337.212937)rotate(-90)scale(0.1 -0.1)">
       <defs>
        <path d="M 33.015625 40.375 
Q 26.375 40.375 22.484375 35.828125 
Q 18.609375 31.296875 18.609375 23.390625 
Q 18.609375 15.53125 22.484375 10.953125 
Q 26.375 6.390625 33.015625 6.390625 
Q 39.65625 6.390625 43.53125 10.953125 
Q 47.40625 15.53125 47.40625 23.390625 
Q 47.40625 31.296875 43.53125 35.828125 
Q 39.65625 40.375 33.015625 40.375 
z
M 52.59375 71.296875 
L 52.59375 62.3125 
Q 48.875 64.0625 45.09375 64.984375 
Q 41.3125 65.921875 37.59375 65.921875 
Q 27.828125 65.921875 22.671875 59.328125 
Q 17.53125 52.734375 16.796875 39.40625 
Q 19.671875 43.65625 24.015625 45.921875 
Q 28.375 48.1875 33.59375 48.1875 
Q 44.578125 48.1875 50.953125 41.515625 
Q 57.328125 34.859375 57.328125 23.390625 
Q 57.328125 12.15625 50.6875 5.359375 
Q 44.046875 -1.421875 33.015625 -1.421875 
Q 20.359375 -1.421875 13.671875 8.265625 
Q 6.984375 17.96875 6.984375 36.375 
Q 6.984375 53.65625 15.1875 63.9375 
Q 23.390625 74.21875 37.203125 74.21875 
Q 40.921875 74.21875 44.703125 73.484375 
Q 48.484375 72.75 52.59375 71.296875 
z
" id="DejaVuSans-54"/>
       </defs>
       <use xlink:href="#DejaVuSans-50"/>
       <use x="63.623047" xlink:href="#DejaVuSans-48"/>
       <use x="127.246094" xlink:href="#DejaVuSans-50"/>
       <use x="190.869141" xlink:href="#DejaVuSans-48"/>
       <use x="254.492188" xlink:href="#DejaVuSans-45"/>
       <use x="290.576172" xlink:href="#DejaVuSans-48"/>
       <use x="354.199219" xlink:href="#DejaVuSans-54"/>
      </g>
     </g>
    </g>
    <g id="xtick_4">
     <g id="line2d_4">
      <g>
       <use style="stroke:#000000;stroke-width:0.8;" x="194.897933" xlink:href="#m3952698cb3" y="288.430125"/>
      </g>
     </g>
     <g id="text_4">
      <!-- 2020-07 -->
      <g transform="translate(197.657308 337.212937)rotate(-90)scale(0.1 -0.1)">
       <defs>
        <path d="M 8.203125 72.90625 
L 55.078125 72.90625 
L 55.078125 68.703125 
L 28.609375 0 
L 18.3125 0 
L 43.21875 64.59375 
L 8.203125 64.59375 
z
" id="DejaVuSans-55"/>
       </defs>
       <use xlink:href="#DejaVuSans-50"/>
       <use x="63.623047" xlink:href="#DejaVuSans-48"/>
       <use x="127.246094" xlink:href="#DejaVuSans-50"/>
       <use x="190.869141" xlink:href="#DejaVuSans-48"/>
       <use x="254.492188" xlink:href="#DejaVuSans-45"/>
       <use x="290.576172" xlink:href="#DejaVuSans-48"/>
       <use x="354.199219" xlink:href="#DejaVuSans-55"/>
      </g>
     </g>
    </g>
    <g id="xtick_5">
     <g id="line2d_5">
      <g>
       <use style="stroke:#000000;stroke-width:0.8;" x="235.450021" xlink:href="#m3952698cb3" y="288.430125"/>
      </g>
     </g>
     <g id="text_5">
      <!-- 2020-08 -->
      <g transform="translate(238.209396 337.212937)rotate(-90)scale(0.1 -0.1)">
       <defs>
        <path d="M 31.78125 34.625 
Q 24.75 34.625 20.71875 30.859375 
Q 16.703125 27.09375 16.703125 20.515625 
Q 16.703125 13.921875 20.71875 10.15625 
Q 24.75 6.390625 31.78125 6.390625 
Q 38.8125 6.390625 42.859375 10.171875 
Q 46.921875 13.96875 46.921875 20.515625 
Q 46.921875 27.09375 42.890625 30.859375 
Q 38.875 34.625 31.78125 34.625 
z
M 21.921875 38.8125 
Q 15.578125 40.375 12.03125 44.71875 
Q 8.5 49.078125 8.5 55.328125 
Q 8.5 64.0625 14.71875 69.140625 
Q 20.953125 74.21875 31.78125 74.21875 
Q 42.671875 74.21875 48.875 69.140625 
Q 55.078125 64.0625 55.078125 55.328125 
Q 55.078125 49.078125 51.53125 44.71875 
Q 48 40.375 41.703125 38.8125 
Q 48.828125 37.15625 52.796875 32.3125 
Q 56.78125 27.484375 56.78125 20.515625 
Q 56.78125 9.90625 50.3125 4.234375 
Q 43.84375 -1.421875 31.78125 -1.421875 
Q 19.734375 -1.421875 13.25 4.234375 
Q 6.78125 9.90625 6.78125 20.515625 
Q 6.78125 27.484375 10.78125 32.3125 
Q 14.796875 37.15625 21.921875 38.8125 
z
M 18.3125 54.390625 
Q 18.3125 48.734375 21.84375 45.5625 
Q 25.390625 42.390625 31.78125 42.390625 
Q 38.140625 42.390625 41.71875 45.5625 
Q 45.3125 48.734375 45.3125 54.390625 
Q 45.3125 60.0625 41.71875 63.234375 
Q 38.140625 66.40625 31.78125 66.40625 
Q 25.390625 66.40625 21.84375 63.234375 
Q 18.3125 60.0625 18.3125 54.390625 
z
" id="DejaVuSans-56"/>
       </defs>
       <use xlink:href="#DejaVuSans-50"/>
       <use x="63.623047" xlink:href="#DejaVuSans-48"/>
       <use x="127.246094" xlink:href="#DejaVuSans-50"/>
       <use x="190.869141" xlink:href="#DejaVuSans-48"/>
       <use x="254.492188" xlink:href="#DejaVuSans-45"/>
       <use x="290.576172" xlink:href="#DejaVuSans-48"/>
       <use x="354.199219" xlink:href="#DejaVuSans-56"/>
      </g>
     </g>
    </g>
    <g id="xtick_6">
     <g id="line2d_6">
      <g>
       <use style="stroke:#000000;stroke-width:0.8;" x="276.002109" xlink:href="#m3952698cb3" y="288.430125"/>
      </g>
     </g>
     <g id="text_6">
      <!-- 2020-09 -->
      <g transform="translate(278.761484 337.212937)rotate(-90)scale(0.1 -0.1)">
       <defs>
        <path d="M 10.984375 1.515625 
L 10.984375 10.5 
Q 14.703125 8.734375 18.5 7.8125 
Q 22.3125 6.890625 25.984375 6.890625 
Q 35.75 6.890625 40.890625 13.453125 
Q 46.046875 20.015625 46.78125 33.40625 
Q 43.953125 29.203125 39.59375 26.953125 
Q 35.25 24.703125 29.984375 24.703125 
Q 19.046875 24.703125 12.671875 31.3125 
Q 6.296875 37.9375 6.296875 49.421875 
Q 6.296875 60.640625 12.9375 67.421875 
Q 19.578125 74.21875 30.609375 74.21875 
Q 43.265625 74.21875 49.921875 64.515625 
Q 56.59375 54.828125 56.59375 36.375 
Q 56.59375 19.140625 48.40625 8.859375 
Q 40.234375 -1.421875 26.421875 -1.421875 
Q 22.703125 -1.421875 18.890625 -0.6875 
Q 15.09375 0.046875 10.984375 1.515625 
z
M 30.609375 32.421875 
Q 37.25 32.421875 41.125 36.953125 
Q 45.015625 41.5 45.015625 49.421875 
Q 45.015625 57.28125 41.125 61.84375 
Q 37.25 66.40625 30.609375 66.40625 
Q 23.96875 66.40625 20.09375 61.84375 
Q 16.21875 57.28125 16.21875 49.421875 
Q 16.21875 41.5 20.09375 36.953125 
Q 23.96875 32.421875 30.609375 32.421875 
z
" id="DejaVuSans-57"/>
       </defs>
       <use xlink:href="#DejaVuSans-50"/>
       <use x="63.623047" xlink:href="#DejaVuSans-48"/>
       <use x="127.246094" xlink:href="#DejaVuSans-50"/>
       <use x="190.869141" xlink:href="#DejaVuSans-48"/>
       <use x="254.492188" xlink:href="#DejaVuSans-45"/>
       <use x="290.576172" xlink:href="#DejaVuSans-48"/>
       <use x="354.199219" xlink:href="#DejaVuSans-57"/>
      </g>
     </g>
    </g>
    <g id="xtick_7">
     <g id="line2d_7">
      <g>
       <use style="stroke:#000000;stroke-width:0.8;" x="315.246065" xlink:href="#m3952698cb3" y="288.430125"/>
      </g>
     </g>
     <g id="text_7">
      <!-- 2020-10 -->
      <g transform="translate(318.00544 337.212937)rotate(-90)scale(0.1 -0.1)">
       <defs>
        <path d="M 12.40625 8.296875 
L 28.515625 8.296875 
L 28.515625 63.921875 
L 10.984375 60.40625 
L 10.984375 69.390625 
L 28.421875 72.90625 
L 38.28125 72.90625 
L 38.28125 8.296875 
L 54.390625 8.296875 
L 54.390625 0 
L 12.40625 0 
z
" id="DejaVuSans-49"/>
       </defs>
       <use xlink:href="#DejaVuSans-50"/>
       <use x="63.623047" xlink:href="#DejaVuSans-48"/>
       <use x="127.246094" xlink:href="#DejaVuSans-50"/>
       <use x="190.869141" xlink:href="#DejaVuSans-48"/>
       <use x="254.492188" xlink:href="#DejaVuSans-45"/>
       <use x="290.576172" xlink:href="#DejaVuSans-49"/>
       <use x="354.199219" xlink:href="#DejaVuSans-48"/>
      </g>
     </g>
    </g>
    <g id="xtick_8">
     <g id="line2d_8">
      <g>
       <use style="stroke:#000000;stroke-width:0.8;" x="355.798152" xlink:href="#m3952698cb3" y="288.430125"/>
      </g>
     </g>
     <g id="text_8">
      <!-- 2020-11 -->
      <g transform="translate(358.557527 337.212937)rotate(-90)scale(0.1 -0.1)">
       <use xlink:href="#DejaVuSans-50"/>
       <use x="63.623047" xlink:href="#DejaVuSans-48"/>
       <use x="127.246094" xlink:href="#DejaVuSans-50"/>
       <use x="190.869141" xlink:href="#DejaVuSans-48"/>
       <use x="254.492188" xlink:href="#DejaVuSans-45"/>
       <use x="290.576172" xlink:href="#DejaVuSans-49"/>
       <use x="354.199219" xlink:href="#DejaVuSans-49"/>
      </g>
     </g>
    </g>
    <g id="xtick_9">
     <g id="line2d_9">
      <g>
       <use style="stroke:#000000;stroke-width:0.8;" x="395.042109" xlink:href="#m3952698cb3" y="288.430125"/>
      </g>
     </g>
     <g id="text_9">
      <!-- 2020-12 -->
      <g transform="translate(397.801484 337.212937)rotate(-90)scale(0.1 -0.1)">
       <use xlink:href="#DejaVuSans-50"/>
       <use x="63.623047" xlink:href="#DejaVuSans-48"/>
       <use x="127.246094" xlink:href="#DejaVuSans-50"/>
       <use x="190.869141" xlink:href="#DejaVuSans-48"/>
       <use x="254.492188" xlink:href="#DejaVuSans-45"/>
       <use x="290.576172" xlink:href="#DejaVuSans-49"/>
       <use x="354.199219" xlink:href="#DejaVuSans-50"/>
      </g>
     </g>
    </g>
    <g id="text_10">
     <!-- date -->
     <g transform="translate(220.250625 354.811375)scale(0.1 -0.1)">
      <defs>
       <path d="M 45.40625 46.390625 
L 45.40625 75.984375 
L 54.390625 75.984375 
L 54.390625 0 
L 45.40625 0 
L 45.40625 8.203125 
Q 42.578125 3.328125 38.25 0.953125 
Q 33.9375 -1.421875 27.875 -1.421875 
Q 17.96875 -1.421875 11.734375 6.484375 
Q 5.515625 14.40625 5.515625 27.296875 
Q 5.515625 40.1875 11.734375 48.09375 
Q 17.96875 56 27.875 56 
Q 33.9375 56 38.25 53.625 
Q 42.578125 51.265625 45.40625 46.390625 
z
M 14.796875 27.296875 
Q 14.796875 17.390625 18.875 11.75 
Q 22.953125 6.109375 30.078125 6.109375 
Q 37.203125 6.109375 41.296875 11.75 
Q 45.40625 17.390625 45.40625 27.296875 
Q 45.40625 37.203125 41.296875 42.84375 
Q 37.203125 48.484375 30.078125 48.484375 
Q 22.953125 48.484375 18.875 42.84375 
Q 14.796875 37.203125 14.796875 27.296875 
z
" id="DejaVuSans-100"/>
       <path d="M 34.28125 27.484375 
Q 23.390625 27.484375 19.1875 25 
Q 14.984375 22.515625 14.984375 16.5 
Q 14.984375 11.71875 18.140625 8.90625 
Q 21.296875 6.109375 26.703125 6.109375 
Q 34.1875 6.109375 38.703125 11.40625 
Q 43.21875 16.703125 43.21875 25.484375 
L 43.21875 27.484375 
z
M 52.203125 31.203125 
L 52.203125 0 
L 43.21875 0 
L 43.21875 8.296875 
Q 40.140625 3.328125 35.546875 0.953125 
Q 30.953125 -1.421875 24.3125 -1.421875 
Q 15.921875 -1.421875 10.953125 3.296875 
Q 6 8.015625 6 15.921875 
Q 6 25.140625 12.171875 29.828125 
Q 18.359375 34.515625 30.609375 34.515625 
L 43.21875 34.515625 
L 43.21875 35.40625 
Q 43.21875 41.609375 39.140625 45 
Q 35.0625 48.390625 27.6875 48.390625 
Q 23 48.390625 18.546875 47.265625 
Q 14.109375 46.140625 10.015625 43.890625 
L 10.015625 52.203125 
Q 14.9375 54.109375 19.578125 55.046875 
Q 24.21875 56 28.609375 56 
Q 40.484375 56 46.34375 49.84375 
Q 52.203125 43.703125 52.203125 31.203125 
z
" id="DejaVuSans-97"/>
       <path d="M 18.3125 70.21875 
L 18.3125 54.6875 
L 36.8125 54.6875 
L 36.8125 47.703125 
L 18.3125 47.703125 
L 18.3125 18.015625 
Q 18.3125 11.328125 20.140625 9.421875 
Q 21.96875 7.515625 27.59375 7.515625 
L 36.8125 7.515625 
L 36.8125 0 
L 27.59375 0 
Q 17.1875 0 13.234375 3.875 
Q 9.28125 7.765625 9.28125 18.015625 
L 9.28125 47.703125 
L 2.6875 47.703125 
L 2.6875 54.6875 
L 9.28125 54.6875 
L 9.28125 70.21875 
z
" id="DejaVuSans-116"/>
       <path d="M 56.203125 29.59375 
L 56.203125 25.203125 
L 14.890625 25.203125 
Q 15.484375 15.921875 20.484375 11.0625 
Q 25.484375 6.203125 34.421875 6.203125 
Q 39.59375 6.203125 44.453125 7.46875 
Q 49.3125 8.734375 54.109375 11.28125 
L 54.109375 2.78125 
Q 49.265625 0.734375 44.1875 -0.34375 
Q 39.109375 -1.421875 33.890625 -1.421875 
Q 20.796875 -1.421875 13.15625 6.1875 
Q 5.515625 13.8125 5.515625 26.8125 
Q 5.515625 40.234375 12.765625 48.109375 
Q 20.015625 56 32.328125 56 
Q 43.359375 56 49.78125 48.890625 
Q 56.203125 41.796875 56.203125 29.59375 
z
M 47.21875 32.234375 
Q 47.125 39.59375 43.09375 43.984375 
Q 39.0625 48.390625 32.421875 48.390625 
Q 24.90625 48.390625 20.390625 44.140625 
Q 15.875 39.890625 15.1875 32.171875 
z
" id="DejaVuSans-101"/>
      </defs>
      <use xlink:href="#DejaVuSans-100"/>
      <use x="63.476562" xlink:href="#DejaVuSans-97"/>
      <use x="124.755859" xlink:href="#DejaVuSans-116"/>
      <use x="163.964844" xlink:href="#DejaVuSans-101"/>
     </g>
    </g>
   </g>
   <g id="matplotlib.axis_2">
    <g id="ytick_1">
     <g id="line2d_10">
      <defs>
       <path d="M 0 0 
L -3.5 0 
" id="mb1d9118434" style="stroke:#000000;stroke-width:0.8;"/>
      </defs>
      <g>
       <use style="stroke:#000000;stroke-width:0.8;" x="52.965625" xlink:href="#mb1d9118434" y="288.430125"/>
      </g>
     </g>
     <g id="text_11">
      <!-- 0 -->
      <g transform="translate(39.603125 292.229344)scale(0.1 -0.1)">
       <use xlink:href="#DejaVuSans-48"/>
      </g>
     </g>
    </g>
    <g id="ytick_2">
     <g id="line2d_11">
      <g>
       <use style="stroke:#000000;stroke-width:0.8;" x="52.965625" xlink:href="#mb1d9118434" y="246.456623"/>
      </g>
     </g>
     <g id="text_12">
      <!-- 100 -->
      <g transform="translate(26.878125 250.255842)scale(0.1 -0.1)">
       <use xlink:href="#DejaVuSans-49"/>
       <use x="63.623047" xlink:href="#DejaVuSans-48"/>
       <use x="127.246094" xlink:href="#DejaVuSans-48"/>
      </g>
     </g>
    </g>
    <g id="ytick_3">
     <g id="line2d_12">
      <g>
       <use style="stroke:#000000;stroke-width:0.8;" x="52.965625" xlink:href="#mb1d9118434" y="204.483122"/>
      </g>
     </g>
     <g id="text_13">
      <!-- 200 -->
      <g transform="translate(26.878125 208.282341)scale(0.1 -0.1)">
       <use xlink:href="#DejaVuSans-50"/>
       <use x="63.623047" xlink:href="#DejaVuSans-48"/>
       <use x="127.246094" xlink:href="#DejaVuSans-48"/>
      </g>
     </g>
    </g>
    <g id="ytick_4">
     <g id="line2d_13">
      <g>
       <use style="stroke:#000000;stroke-width:0.8;" x="52.965625" xlink:href="#mb1d9118434" y="162.50962"/>
      </g>
     </g>
     <g id="text_14">
      <!-- 300 -->
      <g transform="translate(26.878125 166.308839)scale(0.1 -0.1)">
       <defs>
        <path d="M 40.578125 39.3125 
Q 47.65625 37.796875 51.625 33 
Q 55.609375 28.21875 55.609375 21.1875 
Q 55.609375 10.40625 48.1875 4.484375 
Q 40.765625 -1.421875 27.09375 -1.421875 
Q 22.515625 -1.421875 17.65625 -0.515625 
Q 12.796875 0.390625 7.625 2.203125 
L 7.625 11.71875 
Q 11.71875 9.328125 16.59375 8.109375 
Q 21.484375 6.890625 26.8125 6.890625 
Q 36.078125 6.890625 40.9375 10.546875 
Q 45.796875 14.203125 45.796875 21.1875 
Q 45.796875 27.640625 41.28125 31.265625 
Q 36.765625 34.90625 28.71875 34.90625 
L 20.21875 34.90625 
L 20.21875 43.015625 
L 29.109375 43.015625 
Q 36.375 43.015625 40.234375 45.921875 
Q 44.09375 48.828125 44.09375 54.296875 
Q 44.09375 59.90625 40.109375 62.90625 
Q 36.140625 65.921875 28.71875 65.921875 
Q 24.65625 65.921875 20.015625 65.03125 
Q 15.375 64.15625 9.8125 62.3125 
L 9.8125 71.09375 
Q 15.4375 72.65625 20.34375 73.4375 
Q 25.25 74.21875 29.59375 74.21875 
Q 40.828125 74.21875 47.359375 69.109375 
Q 53.90625 64.015625 53.90625 55.328125 
Q 53.90625 49.265625 50.4375 45.09375 
Q 46.96875 40.921875 40.578125 39.3125 
z
" id="DejaVuSans-51"/>
       </defs>
       <use xlink:href="#DejaVuSans-51"/>
       <use x="63.623047" xlink:href="#DejaVuSans-48"/>
       <use x="127.246094" xlink:href="#DejaVuSans-48"/>
      </g>
     </g>
    </g>
    <g id="ytick_5">
     <g id="line2d_14">
      <g>
       <use style="stroke:#000000;stroke-width:0.8;" x="52.965625" xlink:href="#mb1d9118434" y="120.536119"/>
      </g>
     </g>
     <g id="text_15">
      <!-- 400 -->
      <g transform="translate(26.878125 124.335337)scale(0.1 -0.1)">
       <use xlink:href="#DejaVuSans-52"/>
       <use x="63.623047" xlink:href="#DejaVuSans-48"/>
       <use x="127.246094" xlink:href="#DejaVuSans-48"/>
      </g>
     </g>
    </g>
    <g id="ytick_6">
     <g id="line2d_15">
      <g>
       <use style="stroke:#000000;stroke-width:0.8;" x="52.965625" xlink:href="#mb1d9118434" y="78.562617"/>
      </g>
     </g>
     <g id="text_16">
      <!-- 500 -->
      <g transform="translate(26.878125 82.361836)scale(0.1 -0.1)">
       <use xlink:href="#DejaVuSans-53"/>
       <use x="63.623047" xlink:href="#DejaVuSans-48"/>
       <use x="127.246094" xlink:href="#DejaVuSans-48"/>
      </g>
     </g>
    </g>
    <g id="ytick_7">
     <g id="line2d_16">
      <g>
       <use style="stroke:#000000;stroke-width:0.8;" x="52.965625" xlink:href="#mb1d9118434" y="36.589116"/>
      </g>
     </g>
     <g id="text_17">
      <!-- 600 -->
      <g transform="translate(26.878125 40.388334)scale(0.1 -0.1)">
       <use xlink:href="#DejaVuSans-54"/>
       <use x="63.623047" xlink:href="#DejaVuSans-48"/>
       <use x="127.246094" xlink:href="#DejaVuSans-48"/>
      </g>
     </g>
    </g>
    <g id="text_18">
     <!-- cumulative number of corona fatalities -->
     <g transform="translate(14.798438 252.560062)rotate(-90)scale(0.1 -0.1)">
      <defs>
       <path d="M 48.78125 52.59375 
L 48.78125 44.1875 
Q 44.96875 46.296875 41.140625 47.34375 
Q 37.3125 48.390625 33.40625 48.390625 
Q 24.65625 48.390625 19.8125 42.84375 
Q 14.984375 37.3125 14.984375 27.296875 
Q 14.984375 17.28125 19.8125 11.734375 
Q 24.65625 6.203125 33.40625 6.203125 
Q 37.3125 6.203125 41.140625 7.25 
Q 44.96875 8.296875 48.78125 10.40625 
L 48.78125 2.09375 
Q 45.015625 0.34375 40.984375 -0.53125 
Q 36.96875 -1.421875 32.421875 -1.421875 
Q 20.0625 -1.421875 12.78125 6.34375 
Q 5.515625 14.109375 5.515625 27.296875 
Q 5.515625 40.671875 12.859375 48.328125 
Q 20.21875 56 33.015625 56 
Q 37.15625 56 41.109375 55.140625 
Q 45.0625 54.296875 48.78125 52.59375 
z
" id="DejaVuSans-99"/>
       <path d="M 8.5 21.578125 
L 8.5 54.6875 
L 17.484375 54.6875 
L 17.484375 21.921875 
Q 17.484375 14.15625 20.5 10.265625 
Q 23.53125 6.390625 29.59375 6.390625 
Q 36.859375 6.390625 41.078125 11.03125 
Q 45.3125 15.671875 45.3125 23.6875 
L 45.3125 54.6875 
L 54.296875 54.6875 
L 54.296875 0 
L 45.3125 0 
L 45.3125 8.40625 
Q 42.046875 3.421875 37.71875 1 
Q 33.40625 -1.421875 27.6875 -1.421875 
Q 18.265625 -1.421875 13.375 4.4375 
Q 8.5 10.296875 8.5 21.578125 
z
M 31.109375 56 
z
" id="DejaVuSans-117"/>
       <path d="M 52 44.1875 
Q 55.375 50.25 60.0625 53.125 
Q 64.75 56 71.09375 56 
Q 79.640625 56 84.28125 50.015625 
Q 88.921875 44.046875 88.921875 33.015625 
L 88.921875 0 
L 79.890625 0 
L 79.890625 32.71875 
Q 79.890625 40.578125 77.09375 44.375 
Q 74.3125 48.1875 68.609375 48.1875 
Q 61.625 48.1875 57.5625 43.546875 
Q 53.515625 38.921875 53.515625 30.90625 
L 53.515625 0 
L 44.484375 0 
L 44.484375 32.71875 
Q 44.484375 40.625 41.703125 44.40625 
Q 38.921875 48.1875 33.109375 48.1875 
Q 26.21875 48.1875 22.15625 43.53125 
Q 18.109375 38.875 18.109375 30.90625 
L 18.109375 0 
L 9.078125 0 
L 9.078125 54.6875 
L 18.109375 54.6875 
L 18.109375 46.1875 
Q 21.1875 51.21875 25.484375 53.609375 
Q 29.78125 56 35.6875 56 
Q 41.65625 56 45.828125 52.96875 
Q 50 49.953125 52 44.1875 
z
" id="DejaVuSans-109"/>
       <path d="M 9.421875 75.984375 
L 18.40625 75.984375 
L 18.40625 0 
L 9.421875 0 
z
" id="DejaVuSans-108"/>
       <path d="M 9.421875 54.6875 
L 18.40625 54.6875 
L 18.40625 0 
L 9.421875 0 
z
M 9.421875 75.984375 
L 18.40625 75.984375 
L 18.40625 64.59375 
L 9.421875 64.59375 
z
" id="DejaVuSans-105"/>
       <path d="M 2.984375 54.6875 
L 12.5 54.6875 
L 29.59375 8.796875 
L 46.6875 54.6875 
L 56.203125 54.6875 
L 35.6875 0 
L 23.484375 0 
z
" id="DejaVuSans-118"/>
       <path id="DejaVuSans-32"/>
       <path d="M 54.890625 33.015625 
L 54.890625 0 
L 45.90625 0 
L 45.90625 32.71875 
Q 45.90625 40.484375 42.875 44.328125 
Q 39.84375 48.1875 33.796875 48.1875 
Q 26.515625 48.1875 22.3125 43.546875 
Q 18.109375 38.921875 18.109375 30.90625 
L 18.109375 0 
L 9.078125 0 
L 9.078125 54.6875 
L 18.109375 54.6875 
L 18.109375 46.1875 
Q 21.34375 51.125 25.703125 53.5625 
Q 30.078125 56 35.796875 56 
Q 45.21875 56 50.046875 50.171875 
Q 54.890625 44.34375 54.890625 33.015625 
z
" id="DejaVuSans-110"/>
       <path d="M 48.6875 27.296875 
Q 48.6875 37.203125 44.609375 42.84375 
Q 40.53125 48.484375 33.40625 48.484375 
Q 26.265625 48.484375 22.1875 42.84375 
Q 18.109375 37.203125 18.109375 27.296875 
Q 18.109375 17.390625 22.1875 11.75 
Q 26.265625 6.109375 33.40625 6.109375 
Q 40.53125 6.109375 44.609375 11.75 
Q 48.6875 17.390625 48.6875 27.296875 
z
M 18.109375 46.390625 
Q 20.953125 51.265625 25.265625 53.625 
Q 29.59375 56 35.59375 56 
Q 45.5625 56 51.78125 48.09375 
Q 58.015625 40.1875 58.015625 27.296875 
Q 58.015625 14.40625 51.78125 6.484375 
Q 45.5625 -1.421875 35.59375 -1.421875 
Q 29.59375 -1.421875 25.265625 0.953125 
Q 20.953125 3.328125 18.109375 8.203125 
L 18.109375 0 
L 9.078125 0 
L 9.078125 75.984375 
L 18.109375 75.984375 
z
" id="DejaVuSans-98"/>
       <path d="M 41.109375 46.296875 
Q 39.59375 47.171875 37.8125 47.578125 
Q 36.03125 48 33.890625 48 
Q 26.265625 48 22.1875 43.046875 
Q 18.109375 38.09375 18.109375 28.8125 
L 18.109375 0 
L 9.078125 0 
L 9.078125 54.6875 
L 18.109375 54.6875 
L 18.109375 46.1875 
Q 20.953125 51.171875 25.484375 53.578125 
Q 30.03125 56 36.53125 56 
Q 37.453125 56 38.578125 55.875 
Q 39.703125 55.765625 41.0625 55.515625 
z
" id="DejaVuSans-114"/>
       <path d="M 30.609375 48.390625 
Q 23.390625 48.390625 19.1875 42.75 
Q 14.984375 37.109375 14.984375 27.296875 
Q 14.984375 17.484375 19.15625 11.84375 
Q 23.34375 6.203125 30.609375 6.203125 
Q 37.796875 6.203125 41.984375 11.859375 
Q 46.1875 17.53125 46.1875 27.296875 
Q 46.1875 37.015625 41.984375 42.703125 
Q 37.796875 48.390625 30.609375 48.390625 
z
M 30.609375 56 
Q 42.328125 56 49.015625 48.375 
Q 55.71875 40.765625 55.71875 27.296875 
Q 55.71875 13.875 49.015625 6.21875 
Q 42.328125 -1.421875 30.609375 -1.421875 
Q 18.84375 -1.421875 12.171875 6.21875 
Q 5.515625 13.875 5.515625 27.296875 
Q 5.515625 40.765625 12.171875 48.375 
Q 18.84375 56 30.609375 56 
z
" id="DejaVuSans-111"/>
       <path d="M 37.109375 75.984375 
L 37.109375 68.5 
L 28.515625 68.5 
Q 23.6875 68.5 21.796875 66.546875 
Q 19.921875 64.59375 19.921875 59.515625 
L 19.921875 54.6875 
L 34.71875 54.6875 
L 34.71875 47.703125 
L 19.921875 47.703125 
L 19.921875 0 
L 10.890625 0 
L 10.890625 47.703125 
L 2.296875 47.703125 
L 2.296875 54.6875 
L 10.890625 54.6875 
L 10.890625 58.5 
Q 10.890625 67.625 15.140625 71.796875 
Q 19.390625 75.984375 28.609375 75.984375 
z
" id="DejaVuSans-102"/>
       <path d="M 44.28125 53.078125 
L 44.28125 44.578125 
Q 40.484375 46.53125 36.375 47.5 
Q 32.28125 48.484375 27.875 48.484375 
Q 21.1875 48.484375 17.84375 46.4375 
Q 14.5 44.390625 14.5 40.28125 
Q 14.5 37.15625 16.890625 35.375 
Q 19.28125 33.59375 26.515625 31.984375 
L 29.59375 31.296875 
Q 39.15625 29.25 43.1875 25.515625 
Q 47.21875 21.78125 47.21875 15.09375 
Q 47.21875 7.46875 41.1875 3.015625 
Q 35.15625 -1.421875 24.609375 -1.421875 
Q 20.21875 -1.421875 15.453125 -0.5625 
Q 10.6875 0.296875 5.421875 2 
L 5.421875 11.28125 
Q 10.40625 8.6875 15.234375 7.390625 
Q 20.0625 6.109375 24.8125 6.109375 
Q 31.15625 6.109375 34.5625 8.28125 
Q 37.984375 10.453125 37.984375 14.40625 
Q 37.984375 18.0625 35.515625 20.015625 
Q 33.0625 21.96875 24.703125 23.78125 
L 21.578125 24.515625 
Q 13.234375 26.265625 9.515625 29.90625 
Q 5.8125 33.546875 5.8125 39.890625 
Q 5.8125 47.609375 11.28125 51.796875 
Q 16.75 56 26.8125 56 
Q 31.78125 56 36.171875 55.265625 
Q 40.578125 54.546875 44.28125 53.078125 
z
" id="DejaVuSans-115"/>
      </defs>
      <use xlink:href="#DejaVuSans-99"/>
      <use x="54.980469" xlink:href="#DejaVuSans-117"/>
      <use x="118.359375" xlink:href="#DejaVuSans-109"/>
      <use x="215.771484" xlink:href="#DejaVuSans-117"/>
      <use x="279.150391" xlink:href="#DejaVuSans-108"/>
      <use x="306.933594" xlink:href="#DejaVuSans-97"/>
      <use x="368.212891" xlink:href="#DejaVuSans-116"/>
      <use x="407.421875" xlink:href="#DejaVuSans-105"/>
      <use x="435.205078" xlink:href="#DejaVuSans-118"/>
      <use x="494.384766" xlink:href="#DejaVuSans-101"/>
      <use x="555.908203" xlink:href="#DejaVuSans-32"/>
      <use x="587.695312" xlink:href="#DejaVuSans-110"/>
      <use x="651.074219" xlink:href="#DejaVuSans-117"/>
      <use x="714.453125" xlink:href="#DejaVuSans-109"/>
      <use x="811.865234" xlink:href="#DejaVuSans-98"/>
      <use x="875.341797" xlink:href="#DejaVuSans-101"/>
      <use x="936.865234" xlink:href="#DejaVuSans-114"/>
      <use x="977.978516" xlink:href="#DejaVuSans-32"/>
      <use x="1009.765625" xlink:href="#DejaVuSans-111"/>
      <use x="1070.947266" xlink:href="#DejaVuSans-102"/>
      <use x="1106.152344" xlink:href="#DejaVuSans-32"/>
      <use x="1137.939453" xlink:href="#DejaVuSans-99"/>
      <use x="1192.919922" xlink:href="#DejaVuSans-111"/>
      <use x="1254.101562" xlink:href="#DejaVuSans-114"/>
      <use x="1292.964844" xlink:href="#DejaVuSans-111"/>
      <use x="1354.146484" xlink:href="#DejaVuSans-110"/>
      <use x="1417.525391" xlink:href="#DejaVuSans-97"/>
      <use x="1478.804688" xlink:href="#DejaVuSans-32"/>
      <use x="1510.591797" xlink:href="#DejaVuSans-102"/>
      <use x="1545.796875" xlink:href="#DejaVuSans-97"/>
      <use x="1607.076172" xlink:href="#DejaVuSans-116"/>
      <use x="1646.285156" xlink:href="#DejaVuSans-97"/>
      <use x="1707.564453" xlink:href="#DejaVuSans-108"/>
      <use x="1735.347656" xlink:href="#DejaVuSans-105"/>
      <use x="1763.130859" xlink:href="#DejaVuSans-116"/>
      <use x="1802.339844" xlink:href="#DejaVuSans-105"/>
      <use x="1830.123047" xlink:href="#DejaVuSans-101"/>
      <use x="1891.646484" xlink:href="#DejaVuSans-115"/>
     </g>
    </g>
   </g>
   <g id="patch_276">
    <path d="M 52.965625 288.430125 
L 52.965625 22.318125 
" style="fill:none;stroke:#000000;stroke-linecap:square;stroke-linejoin:miter;stroke-width:0.8;"/>
   </g>
   <g id="patch_277">
    <path d="M 52.965625 288.430125 
L 410.085625 288.430125 
" style="fill:none;stroke:#000000;stroke-linecap:square;stroke-linejoin:miter;stroke-width:0.8;"/>
   </g>
   <g id="text_19">
    <!-- South Tyrol -->
    <g transform="translate(198.233125 16.318125)scale(0.12 -0.12)">
     <defs>
      <path d="M 53.515625 70.515625 
L 53.515625 60.890625 
Q 47.90625 63.578125 42.921875 64.890625 
Q 37.9375 66.21875 33.296875 66.21875 
Q 25.25 66.21875 20.875 63.09375 
Q 16.5 59.96875 16.5 54.203125 
Q 16.5 49.359375 19.40625 46.890625 
Q 22.3125 44.4375 30.421875 42.921875 
L 36.375 41.703125 
Q 47.40625 39.59375 52.65625 34.296875 
Q 57.90625 29 57.90625 20.125 
Q 57.90625 9.515625 50.796875 4.046875 
Q 43.703125 -1.421875 29.984375 -1.421875 
Q 24.8125 -1.421875 18.96875 -0.25 
Q 13.140625 0.921875 6.890625 3.21875 
L 6.890625 13.375 
Q 12.890625 10.015625 18.65625 8.296875 
Q 24.421875 6.59375 29.984375 6.59375 
Q 38.421875 6.59375 43.015625 9.90625 
Q 47.609375 13.234375 47.609375 19.390625 
Q 47.609375 24.75 44.3125 27.78125 
Q 41.015625 30.8125 33.5 32.328125 
L 27.484375 33.5 
Q 16.453125 35.6875 11.515625 40.375 
Q 6.59375 45.0625 6.59375 53.421875 
Q 6.59375 63.09375 13.40625 68.65625 
Q 20.21875 74.21875 32.171875 74.21875 
Q 37.3125 74.21875 42.625 73.28125 
Q 47.953125 72.359375 53.515625 70.515625 
z
" id="DejaVuSans-83"/>
      <path d="M 54.890625 33.015625 
L 54.890625 0 
L 45.90625 0 
L 45.90625 32.71875 
Q 45.90625 40.484375 42.875 44.328125 
Q 39.84375 48.1875 33.796875 48.1875 
Q 26.515625 48.1875 22.3125 43.546875 
Q 18.109375 38.921875 18.109375 30.90625 
L 18.109375 0 
L 9.078125 0 
L 9.078125 75.984375 
L 18.109375 75.984375 
L 18.109375 46.1875 
Q 21.34375 51.125 25.703125 53.5625 
Q 30.078125 56 35.796875 56 
Q 45.21875 56 50.046875 50.171875 
Q 54.890625 44.34375 54.890625 33.015625 
z
" id="DejaVuSans-104"/>
      <path d="M -0.296875 72.90625 
L 61.375 72.90625 
L 61.375 64.59375 
L 35.5 64.59375 
L 35.5 0 
L 25.59375 0 
L 25.59375 64.59375 
L -0.296875 64.59375 
z
" id="DejaVuSans-84"/>
      <path d="M 32.171875 -5.078125 
Q 28.375 -14.84375 24.75 -17.8125 
Q 21.140625 -20.796875 15.09375 -20.796875 
L 7.90625 -20.796875 
L 7.90625 -13.28125 
L 13.1875 -13.28125 
Q 16.890625 -13.28125 18.9375 -11.515625 
Q 21 -9.765625 23.484375 -3.21875 
L 25.09375 0.875 
L 2.984375 54.6875 
L 12.5 54.6875 
L 29.59375 11.921875 
L 46.6875 54.6875 
L 56.203125 54.6875 
z
" id="DejaVuSans-121"/>
     </defs>
     <use xlink:href="#DejaVuSans-83"/>
     <use x="63.476562" xlink:href="#DejaVuSans-111"/>
     <use x="124.658203" xlink:href="#DejaVuSans-117"/>
     <use x="188.037109" xlink:href="#DejaVuSans-116"/>
     <use x="227.246094" xlink:href="#DejaVuSans-104"/>
     <use x="290.625" xlink:href="#DejaVuSans-32"/>
     <use x="322.412109" xlink:href="#DejaVuSans-84"/>
     <use x="367.871094" xlink:href="#DejaVuSans-121"/>
     <use x="427.050781" xlink:href="#DejaVuSans-114"/>
     <use x="465.914062" xlink:href="#DejaVuSans-111"/>
     <use x="527.095703" xlink:href="#DejaVuSans-108"/>
    </g>
   </g>
  </g>
 </g>
 <defs>
  <clipPath id="p7a7d92d1a1">
   <rect height="266.112" width="357.12" x="52.965625" y="22.318125"/>
  </clipPath>
 </defs>
</svg>
