<?xml version="1.0" encoding="utf-8" standalone="no"?>
<!DOCTYPE svg PUBLIC "-//W3C//DTD SVG 1.1//EN"
  "http://www.w3.org/Graphics/SVG/1.1/DTD/svg11.dtd">
<!-- Created with matplotlib (https://matplotlib.org/) -->
<svg height="364.091062pt" version="1.1" viewBox="0 0 417.285625 364.091062" width="417.285625pt" xmlns="http://www.w3.org/2000/svg" xmlns:xlink="http://www.w3.org/1999/xlink">
 <metadata>
  <rdf:RDF xmlns:cc="http://creativecommons.org/ns#" xmlns:dc="http://purl.org/dc/elements/1.1/" xmlns:rdf="http://www.w3.org/1999/02/22-rdf-syntax-ns#">
   <cc:Work>
    <dc:type rdf:resource="http://purl.org/dc/dcmitype/StillImage"/>
    <dc:date>2020-12-16T12:58:47.374220</dc:date>
    <dc:format>image/svg+xml</dc:format>
    <dc:creator>
     <cc:Agent>
      <dc:title>Matplotlib v3.3.3, https://matplotlib.org/</dc:title>
     </cc:Agent>
    </dc:creator>
   </cc:Work>
  </rdf:RDF>
 </metadata>
 <defs>
  <style type="text/css">*{stroke-linecap:butt;stroke-linejoin:round;}</style>
 </defs>
 <g id="figure_1">
  <g id="patch_1">
   <path d="M 0 364.091062 
L 417.285625 364.091062 
L 417.285625 0 
L 0 0 
z
" style="fill:#ffffff;"/>
  </g>
  <g id="axes_1">
   <g id="patch_2">
    <path d="M 52.965625 288.430125 
L 410.085625 288.430125 
L 410.085625 22.318125 
L 52.965625 22.318125 
z
" style="fill:#ffffff;"/>
   </g>
   <g id="patch_3">
    <path clip-path="url(#p2ae2090a95)" d="M 53.094549 288.430125 
L 54.125943 288.430125 
L 54.125943 286.438269 
L 53.094549 286.438269 
z
" style="fill:#1f77b4;"/>
   </g>
   <g id="patch_4">
    <path clip-path="url(#p2ae2090a95)" d="M 54.383791 288.430125 
L 55.415185 288.430125 
L 55.415185 286.039897 
L 54.383791 286.039897 
z
" style="fill:#1f77b4;"/>
   </g>
   <g id="patch_5">
    <path clip-path="url(#p2ae2090a95)" d="M 55.673033 288.430125 
L 56.704426 288.430125 
L 56.704426 284.844784 
L 55.673033 284.844784 
z
" style="fill:#1f77b4;"/>
   </g>
   <g id="patch_6">
    <path clip-path="url(#p2ae2090a95)" d="M 56.962275 288.430125 
L 57.993668 288.430125 
L 57.993668 283.64967 
L 56.962275 283.64967 
z
" style="fill:#1f77b4;"/>
   </g>
   <g id="patch_7">
    <path clip-path="url(#p2ae2090a95)" d="M 58.251517 288.430125 
L 59.28291 288.430125 
L 59.28291 282.056185 
L 58.251517 282.056185 
z
" style="fill:#1f77b4;"/>
   </g>
   <g id="patch_8">
    <path clip-path="url(#p2ae2090a95)" d="M 59.540759 288.430125 
L 60.572152 288.430125 
L 60.572152 280.861071 
L 59.540759 280.861071 
z
" style="fill:#1f77b4;"/>
   </g>
   <g id="patch_9">
    <path clip-path="url(#p2ae2090a95)" d="M 60.83 288.430125 
L 61.861394 288.430125 
L 61.861394 278.869215 
L 60.83 278.869215 
z
" style="fill:#1f77b4;"/>
   </g>
   <g id="patch_10">
    <path clip-path="url(#p2ae2090a95)" d="M 62.119242 288.430125 
L 63.150636 288.430125 
L 63.150636 276.080616 
L 62.119242 276.080616 
z
" style="fill:#1f77b4;"/>
   </g>
   <g id="patch_11">
    <path clip-path="url(#p2ae2090a95)" d="M 63.408484 288.430125 
L 64.439878 288.430125 
L 64.439878 274.487131 
L 63.408484 274.487131 
z
" style="fill:#1f77b4;"/>
   </g>
   <g id="patch_12">
    <path clip-path="url(#p2ae2090a95)" d="M 64.697726 288.430125 
L 65.72912 288.430125 
L 65.72912 270.90179 
L 64.697726 270.90179 
z
" style="fill:#1f77b4;"/>
   </g>
   <g id="patch_13">
    <path clip-path="url(#p2ae2090a95)" d="M 65.986968 288.430125 
L 67.018361 288.430125 
L 67.018361 270.503418 
L 65.986968 270.503418 
z
" style="fill:#1f77b4;"/>
   </g>
   <g id="patch_14">
    <path clip-path="url(#p2ae2090a95)" d="M 67.27621 288.430125 
L 68.307603 288.430125 
L 68.307603 267.316448 
L 67.27621 267.316448 
z
" style="fill:#1f77b4;"/>
   </g>
   <g id="patch_15">
    <path clip-path="url(#p2ae2090a95)" d="M 68.565452 288.430125 
L 69.596845 288.430125 
L 69.596845 264.52785 
L 68.565452 264.52785 
z
" style="fill:#1f77b4;"/>
   </g>
   <g id="patch_16">
    <path clip-path="url(#p2ae2090a95)" d="M 69.854694 288.430125 
L 70.886087 288.430125 
L 70.886087 262.934365 
L 69.854694 262.934365 
z
" style="fill:#1f77b4;"/>
   </g>
   <g id="patch_17">
    <path clip-path="url(#p2ae2090a95)" d="M 71.143935 288.430125 
L 72.175329 288.430125 
L 72.175329 260.145766 
L 71.143935 260.145766 
z
" style="fill:#1f77b4;"/>
   </g>
   <g id="patch_18">
    <path clip-path="url(#p2ae2090a95)" d="M 72.433177 288.430125 
L 73.464571 288.430125 
L 73.464571 258.950652 
L 72.433177 258.950652 
z
" style="fill:#1f77b4;"/>
   </g>
   <g id="patch_19">
    <path clip-path="url(#p2ae2090a95)" d="M 73.722419 288.430125 
L 74.753813 288.430125 
L 74.753813 244.609287 
L 73.722419 244.609287 
z
" style="fill:#1f77b4;"/>
   </g>
   <g id="patch_20">
    <path clip-path="url(#p2ae2090a95)" d="M 75.011661 288.430125 
L 76.043055 288.430125 
L 76.043055 240.625574 
L 75.011661 240.625574 
z
" style="fill:#1f77b4;"/>
   </g>
   <g id="patch_21">
    <path clip-path="url(#p2ae2090a95)" d="M 76.300903 288.430125 
L 77.332296 288.430125 
L 77.332296 237.438604 
L 76.300903 237.438604 
z
" style="fill:#1f77b4;"/>
   </g>
   <g id="patch_22">
    <path clip-path="url(#p2ae2090a95)" d="M 77.590145 288.430125 
L 78.621538 288.430125 
L 78.621538 231.861406 
L 77.590145 231.861406 
z
" style="fill:#1f77b4;"/>
   </g>
   <g id="patch_23">
    <path clip-path="url(#p2ae2090a95)" d="M 78.879387 288.430125 
L 79.91078 288.430125 
L 79.91078 230.267921 
L 78.879387 230.267921 
z
" style="fill:#1f77b4;"/>
   </g>
   <g id="patch_24">
    <path clip-path="url(#p2ae2090a95)" d="M 80.168629 288.430125 
L 81.200022 288.430125 
L 81.200022 226.284209 
L 80.168629 226.284209 
z
" style="fill:#1f77b4;"/>
   </g>
   <g id="patch_25">
    <path clip-path="url(#p2ae2090a95)" d="M 81.45787 288.430125 
L 82.489264 288.430125 
L 82.489264 223.097239 
L 81.45787 223.097239 
z
" style="fill:#1f77b4;"/>
   </g>
   <g id="patch_26">
    <path clip-path="url(#p2ae2090a95)" d="M 82.747112 288.430125 
L 83.778506 288.430125 
L 83.778506 219.910269 
L 82.747112 219.910269 
z
" style="fill:#1f77b4;"/>
   </g>
   <g id="patch_27">
    <path clip-path="url(#p2ae2090a95)" d="M 84.036354 288.430125 
L 85.067748 288.430125 
L 85.067748 217.520041 
L 84.036354 217.520041 
z
" style="fill:#1f77b4;"/>
   </g>
   <g id="patch_28">
    <path clip-path="url(#p2ae2090a95)" d="M 85.325596 288.430125 
L 86.35699 288.430125 
L 86.35699 213.9347 
L 85.325596 213.9347 
z
" style="fill:#1f77b4;"/>
   </g>
   <g id="patch_29">
    <path clip-path="url(#p2ae2090a95)" d="M 86.614838 288.430125 
L 87.646231 288.430125 
L 87.646231 211.942844 
L 86.614838 211.942844 
z
" style="fill:#1f77b4;"/>
   </g>
   <g id="patch_30">
    <path clip-path="url(#p2ae2090a95)" d="M 87.90408 288.430125 
L 88.935473 288.430125 
L 88.935473 208.755874 
L 87.90408 208.755874 
z
" style="fill:#1f77b4;"/>
   </g>
   <g id="patch_31">
    <path clip-path="url(#p2ae2090a95)" d="M 89.193322 288.430125 
L 90.224715 288.430125 
L 90.224715 207.162388 
L 89.193322 207.162388 
z
" style="fill:#1f77b4;"/>
   </g>
   <g id="patch_32">
    <path clip-path="url(#p2ae2090a95)" d="M 90.482564 288.430125 
L 91.513957 288.430125 
L 91.513957 202.780305 
L 90.482564 202.780305 
z
" style="fill:#1f77b4;"/>
   </g>
   <g id="patch_33">
    <path clip-path="url(#p2ae2090a95)" d="M 91.771806 288.430125 
L 92.803199 288.430125 
L 92.803199 201.983562 
L 91.771806 201.983562 
z
" style="fill:#1f77b4;"/>
   </g>
   <g id="patch_34">
    <path clip-path="url(#p2ae2090a95)" d="M 93.061047 288.430125 
L 94.092441 288.430125 
L 94.092441 200.390077 
L 93.061047 200.390077 
z
" style="fill:#1f77b4;"/>
   </g>
   <g id="patch_35">
    <path clip-path="url(#p2ae2090a95)" d="M 94.350289 288.430125 
L 95.381683 288.430125 
L 95.381683 197.601478 
L 94.350289 197.601478 
z
" style="fill:#1f77b4;"/>
   </g>
   <g id="patch_36">
    <path clip-path="url(#p2ae2090a95)" d="M 95.639531 288.430125 
L 96.670925 288.430125 
L 96.670925 196.007993 
L 95.639531 196.007993 
z
" style="fill:#1f77b4;"/>
   </g>
   <g id="patch_37">
    <path clip-path="url(#p2ae2090a95)" d="M 96.928773 288.430125 
L 97.960167 288.430125 
L 97.960167 193.219394 
L 96.928773 193.219394 
z
" style="fill:#1f77b4;"/>
   </g>
   <g id="patch_38">
    <path clip-path="url(#p2ae2090a95)" d="M 98.218015 288.430125 
L 99.249408 288.430125 
L 99.249408 190.829167 
L 98.218015 190.829167 
z
" style="fill:#1f77b4;"/>
   </g>
   <g id="patch_39">
    <path clip-path="url(#p2ae2090a95)" d="M 99.507257 288.430125 
L 100.53865 288.430125 
L 100.53865 189.235682 
L 99.507257 189.235682 
z
" style="fill:#1f77b4;"/>
   </g>
   <g id="patch_40">
    <path clip-path="url(#p2ae2090a95)" d="M 100.796499 288.430125 
L 101.827892 288.430125 
L 101.827892 188.040568 
L 100.796499 188.040568 
z
" style="fill:#1f77b4;"/>
   </g>
   <g id="patch_41">
    <path clip-path="url(#p2ae2090a95)" d="M 102.085741 288.430125 
L 103.117134 288.430125 
L 103.117134 186.447083 
L 102.085741 186.447083 
z
" style="fill:#1f77b4;"/>
   </g>
   <g id="patch_42">
    <path clip-path="url(#p2ae2090a95)" d="M 103.374982 288.430125 
L 104.406376 288.430125 
L 104.406376 184.455227 
L 103.374982 184.455227 
z
" style="fill:#1f77b4;"/>
   </g>
   <g id="patch_43">
    <path clip-path="url(#p2ae2090a95)" d="M 104.664224 288.430125 
L 105.695618 288.430125 
L 105.695618 183.658484 
L 104.664224 183.658484 
z
" style="fill:#1f77b4;"/>
   </g>
   <g id="patch_44">
    <path clip-path="url(#p2ae2090a95)" d="M 105.953466 288.430125 
L 106.98486 288.430125 
L 106.98486 182.861742 
L 105.953466 182.861742 
z
" style="fill:#1f77b4;"/>
   </g>
   <g id="patch_45">
    <path clip-path="url(#p2ae2090a95)" d="M 107.242708 288.430125 
L 108.274102 288.430125 
L 108.274102 181.268257 
L 107.242708 181.268257 
z
" style="fill:#1f77b4;"/>
   </g>
   <g id="patch_46">
    <path clip-path="url(#p2ae2090a95)" d="M 108.53195 288.430125 
L 109.563343 288.430125 
L 109.563343 180.869885 
L 108.53195 180.869885 
z
" style="fill:#1f77b4;"/>
   </g>
   <g id="patch_47">
    <path clip-path="url(#p2ae2090a95)" d="M 109.821192 288.430125 
L 110.852585 288.430125 
L 110.852585 180.073143 
L 109.821192 180.073143 
z
" style="fill:#1f77b4;"/>
   </g>
   <g id="patch_48">
    <path clip-path="url(#p2ae2090a95)" d="M 111.110434 288.430125 
L 112.141827 288.430125 
L 112.141827 179.2764 
L 111.110434 179.2764 
z
" style="fill:#1f77b4;"/>
   </g>
   <g id="patch_49">
    <path clip-path="url(#p2ae2090a95)" d="M 112.399676 288.430125 
L 113.431069 288.430125 
L 113.431069 178.878029 
L 112.399676 178.878029 
z
" style="fill:#1f77b4;"/>
   </g>
   <g id="patch_50">
    <path clip-path="url(#p2ae2090a95)" d="M 113.688917 288.430125 
L 114.720311 288.430125 
L 114.720311 177.682915 
L 113.688917 177.682915 
z
" style="fill:#1f77b4;"/>
   </g>
   <g id="patch_51">
    <path clip-path="url(#p2ae2090a95)" d="M 114.978159 288.430125 
L 116.009553 288.430125 
L 116.009553 177.284544 
L 114.978159 177.284544 
z
" style="fill:#1f77b4;"/>
   </g>
   <g id="patch_52">
    <path clip-path="url(#p2ae2090a95)" d="M 116.267401 288.430125 
L 117.298795 288.430125 
L 117.298795 176.487802 
L 116.267401 176.487802 
z
" style="fill:#1f77b4;"/>
   </g>
   <g id="patch_53">
    <path clip-path="url(#p2ae2090a95)" d="M 117.556643 288.430125 
L 118.588037 288.430125 
L 118.588037 175.292688 
L 117.556643 175.292688 
z
" style="fill:#1f77b4;"/>
   </g>
   <g id="patch_54">
    <path clip-path="url(#p2ae2090a95)" d="M 118.845885 288.430125 
L 119.877278 288.430125 
L 119.877278 174.495945 
L 118.845885 174.495945 
z
" style="fill:#1f77b4;"/>
   </g>
   <g id="patch_55">
    <path clip-path="url(#p2ae2090a95)" d="M 120.135127 288.430125 
L 121.16652 288.430125 
L 121.16652 174.495945 
L 120.135127 174.495945 
z
" style="fill:#1f77b4;"/>
   </g>
   <g id="patch_56">
    <path clip-path="url(#p2ae2090a95)" d="M 121.424369 288.430125 
L 122.455762 288.430125 
L 122.455762 174.495945 
L 121.424369 174.495945 
z
" style="fill:#1f77b4;"/>
   </g>
   <g id="patch_57">
    <path clip-path="url(#p2ae2090a95)" d="M 122.713611 288.430125 
L 123.745004 288.430125 
L 123.745004 173.300832 
L 122.713611 173.300832 
z
" style="fill:#1f77b4;"/>
   </g>
   <g id="patch_58">
    <path clip-path="url(#p2ae2090a95)" d="M 124.002852 288.430125 
L 125.034246 288.430125 
L 125.034246 172.90246 
L 124.002852 172.90246 
z
" style="fill:#1f77b4;"/>
   </g>
   <g id="patch_59">
    <path clip-path="url(#p2ae2090a95)" d="M 125.292094 288.430125 
L 126.323488 288.430125 
L 126.323488 172.90246 
L 125.292094 172.90246 
z
" style="fill:#1f77b4;"/>
   </g>
   <g id="patch_60">
    <path clip-path="url(#p2ae2090a95)" d="M 126.581336 288.430125 
L 127.61273 288.430125 
L 127.61273 172.90246 
L 126.581336 172.90246 
z
" style="fill:#1f77b4;"/>
   </g>
   <g id="patch_61">
    <path clip-path="url(#p2ae2090a95)" d="M 127.870578 288.430125 
L 128.901972 288.430125 
L 128.901972 172.90246 
L 127.870578 172.90246 
z
" style="fill:#1f77b4;"/>
   </g>
   <g id="patch_62">
    <path clip-path="url(#p2ae2090a95)" d="M 129.15982 288.430125 
L 130.191213 288.430125 
L 130.191213 172.90246 
L 129.15982 172.90246 
z
" style="fill:#1f77b4;"/>
   </g>
   <g id="patch_63">
    <path clip-path="url(#p2ae2090a95)" d="M 130.449062 288.430125 
L 131.480455 288.430125 
L 131.480455 172.90246 
L 130.449062 172.90246 
z
" style="fill:#1f77b4;"/>
   </g>
   <g id="patch_64">
    <path clip-path="url(#p2ae2090a95)" d="M 131.738304 288.430125 
L 132.769697 288.430125 
L 132.769697 172.90246 
L 131.738304 172.90246 
z
" style="fill:#1f77b4;"/>
   </g>
   <g id="patch_65">
    <path clip-path="url(#p2ae2090a95)" d="M 133.027546 288.430125 
L 134.058939 288.430125 
L 134.058939 172.90246 
L 133.027546 172.90246 
z
" style="fill:#1f77b4;"/>
   </g>
   <g id="patch_66">
    <path clip-path="url(#p2ae2090a95)" d="M 134.316787 288.430125 
L 135.348181 288.430125 
L 135.348181 172.90246 
L 134.316787 172.90246 
z
" style="fill:#1f77b4;"/>
   </g>
   <g id="patch_67">
    <path clip-path="url(#p2ae2090a95)" d="M 135.606029 288.430125 
L 136.637423 288.430125 
L 136.637423 172.504089 
L 135.606029 172.504089 
z
" style="fill:#1f77b4;"/>
   </g>
   <g id="patch_68">
    <path clip-path="url(#p2ae2090a95)" d="M 136.895271 288.430125 
L 137.926665 288.430125 
L 137.926665 172.504089 
L 136.895271 172.504089 
z
" style="fill:#1f77b4;"/>
   </g>
   <g id="patch_69">
    <path clip-path="url(#p2ae2090a95)" d="M 138.184513 288.430125 
L 139.215907 288.430125 
L 139.215907 172.504089 
L 138.184513 172.504089 
z
" style="fill:#1f77b4;"/>
   </g>
   <g id="patch_70">
    <path clip-path="url(#p2ae2090a95)" d="M 139.473755 288.430125 
L 140.505148 288.430125 
L 140.505148 172.504089 
L 139.473755 172.504089 
z
" style="fill:#1f77b4;"/>
   </g>
   <g id="patch_71">
    <path clip-path="url(#p2ae2090a95)" d="M 140.762997 288.430125 
L 141.79439 288.430125 
L 141.79439 172.504089 
L 140.762997 172.504089 
z
" style="fill:#1f77b4;"/>
   </g>
   <g id="patch_72">
    <path clip-path="url(#p2ae2090a95)" d="M 142.052239 288.430125 
L 143.083632 288.430125 
L 143.083632 172.504089 
L 142.052239 172.504089 
z
" style="fill:#1f77b4;"/>
   </g>
   <g id="patch_73">
    <path clip-path="url(#p2ae2090a95)" d="M 143.341481 288.430125 
L 144.372874 288.430125 
L 144.372874 172.504089 
L 143.341481 172.504089 
z
" style="fill:#1f77b4;"/>
   </g>
   <g id="patch_74">
    <path clip-path="url(#p2ae2090a95)" d="M 144.630722 288.430125 
L 145.662116 288.430125 
L 145.662116 172.504089 
L 144.630722 172.504089 
z
" style="fill:#1f77b4;"/>
   </g>
   <g id="patch_75">
    <path clip-path="url(#p2ae2090a95)" d="M 145.919964 288.430125 
L 146.951358 288.430125 
L 146.951358 172.504089 
L 145.919964 172.504089 
z
" style="fill:#1f77b4;"/>
   </g>
   <g id="patch_76">
    <path clip-path="url(#p2ae2090a95)" d="M 147.209206 288.430125 
L 148.2406 288.430125 
L 148.2406 172.504089 
L 147.209206 172.504089 
z
" style="fill:#1f77b4;"/>
   </g>
   <g id="patch_77">
    <path clip-path="url(#p2ae2090a95)" d="M 148.498448 288.430125 
L 149.529842 288.430125 
L 149.529842 172.504089 
L 148.498448 172.504089 
z
" style="fill:#1f77b4;"/>
   </g>
   <g id="patch_78">
    <path clip-path="url(#p2ae2090a95)" d="M 149.78769 288.430125 
L 150.819083 288.430125 
L 150.819083 172.504089 
L 149.78769 172.504089 
z
" style="fill:#1f77b4;"/>
   </g>
   <g id="patch_79">
    <path clip-path="url(#p2ae2090a95)" d="M 151.076932 288.430125 
L 152.108325 288.430125 
L 152.108325 172.504089 
L 151.076932 172.504089 
z
" style="fill:#1f77b4;"/>
   </g>
   <g id="patch_80">
    <path clip-path="url(#p2ae2090a95)" d="M 152.366174 288.430125 
L 153.397567 288.430125 
L 153.397567 172.504089 
L 152.366174 172.504089 
z
" style="fill:#1f77b4;"/>
   </g>
   <g id="patch_81">
    <path clip-path="url(#p2ae2090a95)" d="M 153.655416 288.430125 
L 154.686809 288.430125 
L 154.686809 172.504089 
L 153.655416 172.504089 
z
" style="fill:#1f77b4;"/>
   </g>
   <g id="patch_82">
    <path clip-path="url(#p2ae2090a95)" d="M 154.944657 288.430125 
L 155.976051 288.430125 
L 155.976051 172.504089 
L 154.944657 172.504089 
z
" style="fill:#1f77b4;"/>
   </g>
   <g id="patch_83">
    <path clip-path="url(#p2ae2090a95)" d="M 156.233899 288.430125 
L 157.265293 288.430125 
L 157.265293 172.504089 
L 156.233899 172.504089 
z
" style="fill:#1f77b4;"/>
   </g>
   <g id="patch_84">
    <path clip-path="url(#p2ae2090a95)" d="M 157.523141 288.430125 
L 158.554535 288.430125 
L 158.554535 172.105718 
L 157.523141 172.105718 
z
" style="fill:#1f77b4;"/>
   </g>
   <g id="patch_85">
    <path clip-path="url(#p2ae2090a95)" d="M 158.812383 288.430125 
L 159.843777 288.430125 
L 159.843777 172.105718 
L 158.812383 172.105718 
z
" style="fill:#1f77b4;"/>
   </g>
   <g id="patch_86">
    <path clip-path="url(#p2ae2090a95)" d="M 160.101625 288.430125 
L 161.133019 288.430125 
L 161.133019 172.105718 
L 160.101625 172.105718 
z
" style="fill:#1f77b4;"/>
   </g>
   <g id="patch_87">
    <path clip-path="url(#p2ae2090a95)" d="M 161.390867 288.430125 
L 162.42226 288.430125 
L 162.42226 172.105718 
L 161.390867 172.105718 
z
" style="fill:#1f77b4;"/>
   </g>
   <g id="patch_88">
    <path clip-path="url(#p2ae2090a95)" d="M 162.680109 288.430125 
L 163.711502 288.430125 
L 163.711502 172.105718 
L 162.680109 172.105718 
z
" style="fill:#1f77b4;"/>
   </g>
   <g id="patch_89">
    <path clip-path="url(#p2ae2090a95)" d="M 163.969351 288.430125 
L 165.000744 288.430125 
L 165.000744 172.105718 
L 163.969351 172.105718 
z
" style="fill:#1f77b4;"/>
   </g>
   <g id="patch_90">
    <path clip-path="url(#p2ae2090a95)" d="M 165.258593 288.430125 
L 166.289986 288.430125 
L 166.289986 172.105718 
L 165.258593 172.105718 
z
" style="fill:#1f77b4;"/>
   </g>
   <g id="patch_91">
    <path clip-path="url(#p2ae2090a95)" d="M 166.547834 288.430125 
L 167.579228 288.430125 
L 167.579228 172.105718 
L 166.547834 172.105718 
z
" style="fill:#1f77b4;"/>
   </g>
   <g id="patch_92">
    <path clip-path="url(#p2ae2090a95)" d="M 167.837076 288.430125 
L 168.86847 288.430125 
L 168.86847 172.504089 
L 167.837076 172.504089 
z
" style="fill:#1f77b4;"/>
   </g>
   <g id="patch_93">
    <path clip-path="url(#p2ae2090a95)" d="M 169.126318 288.430125 
L 170.157712 288.430125 
L 170.157712 172.504089 
L 169.126318 172.504089 
z
" style="fill:#1f77b4;"/>
   </g>
   <g id="patch_94">
    <path clip-path="url(#p2ae2090a95)" d="M 170.41556 288.430125 
L 171.446954 288.430125 
L 171.446954 172.504089 
L 170.41556 172.504089 
z
" style="fill:#1f77b4;"/>
   </g>
   <g id="patch_95">
    <path clip-path="url(#p2ae2090a95)" d="M 171.704802 288.430125 
L 172.736195 288.430125 
L 172.736195 172.105718 
L 171.704802 172.105718 
z
" style="fill:#1f77b4;"/>
   </g>
   <g id="patch_96">
    <path clip-path="url(#p2ae2090a95)" d="M 172.994044 288.430125 
L 174.025437 288.430125 
L 174.025437 172.105718 
L 172.994044 172.105718 
z
" style="fill:#1f77b4;"/>
   </g>
   <g id="patch_97">
    <path clip-path="url(#p2ae2090a95)" d="M 174.283286 288.430125 
L 175.314679 288.430125 
L 175.314679 172.105718 
L 174.283286 172.105718 
z
" style="fill:#1f77b4;"/>
   </g>
   <g id="patch_98">
    <path clip-path="url(#p2ae2090a95)" d="M 175.572528 288.430125 
L 176.603921 288.430125 
L 176.603921 172.105718 
L 175.572528 172.105718 
z
" style="fill:#1f77b4;"/>
   </g>
   <g id="patch_99">
    <path clip-path="url(#p2ae2090a95)" d="M 176.861769 288.430125 
L 177.893163 288.430125 
L 177.893163 172.105718 
L 176.861769 172.105718 
z
" style="fill:#1f77b4;"/>
   </g>
   <g id="patch_100">
    <path clip-path="url(#p2ae2090a95)" d="M 178.151011 288.430125 
L 179.182405 288.430125 
L 179.182405 172.105718 
L 178.151011 172.105718 
z
" style="fill:#1f77b4;"/>
   </g>
   <g id="patch_101">
    <path clip-path="url(#p2ae2090a95)" d="M 179.440253 288.430125 
L 180.471647 288.430125 
L 180.471647 172.105718 
L 179.440253 172.105718 
z
" style="fill:#1f77b4;"/>
   </g>
   <g id="patch_102">
    <path clip-path="url(#p2ae2090a95)" d="M 180.729495 288.430125 
L 181.760889 288.430125 
L 181.760889 172.105718 
L 180.729495 172.105718 
z
" style="fill:#1f77b4;"/>
   </g>
   <g id="patch_103">
    <path clip-path="url(#p2ae2090a95)" d="M 182.018737 288.430125 
L 183.05013 288.430125 
L 183.05013 172.105718 
L 182.018737 172.105718 
z
" style="fill:#1f77b4;"/>
   </g>
   <g id="patch_104">
    <path clip-path="url(#p2ae2090a95)" d="M 183.307979 288.430125 
L 184.339372 288.430125 
L 184.339372 172.105718 
L 183.307979 172.105718 
z
" style="fill:#1f77b4;"/>
   </g>
   <g id="patch_105">
    <path clip-path="url(#p2ae2090a95)" d="M 184.597221 288.430125 
L 185.628614 288.430125 
L 185.628614 172.105718 
L 184.597221 172.105718 
z
" style="fill:#1f77b4;"/>
   </g>
   <g id="patch_106">
    <path clip-path="url(#p2ae2090a95)" d="M 185.886463 288.430125 
L 186.917856 288.430125 
L 186.917856 172.105718 
L 185.886463 172.105718 
z
" style="fill:#1f77b4;"/>
   </g>
   <g id="patch_107">
    <path clip-path="url(#p2ae2090a95)" d="M 187.175704 288.430125 
L 188.207098 288.430125 
L 188.207098 172.105718 
L 187.175704 172.105718 
z
" style="fill:#1f77b4;"/>
   </g>
   <g id="patch_108">
    <path clip-path="url(#p2ae2090a95)" d="M 188.464946 288.430125 
L 189.49634 288.430125 
L 189.49634 172.105718 
L 188.464946 172.105718 
z
" style="fill:#1f77b4;"/>
   </g>
   <g id="patch_109">
    <path clip-path="url(#p2ae2090a95)" d="M 189.754188 288.430125 
L 190.785582 288.430125 
L 190.785582 172.105718 
L 189.754188 172.105718 
z
" style="fill:#1f77b4;"/>
   </g>
   <g id="patch_110">
    <path clip-path="url(#p2ae2090a95)" d="M 191.04343 288.430125 
L 192.074824 288.430125 
L 192.074824 172.105718 
L 191.04343 172.105718 
z
" style="fill:#1f77b4;"/>
   </g>
   <g id="patch_111">
    <path clip-path="url(#p2ae2090a95)" d="M 192.332672 288.430125 
L 193.364065 288.430125 
L 193.364065 172.105718 
L 192.332672 172.105718 
z
" style="fill:#1f77b4;"/>
   </g>
   <g id="patch_112">
    <path clip-path="url(#p2ae2090a95)" d="M 193.621914 288.430125 
L 194.653307 288.430125 
L 194.653307 172.105718 
L 193.621914 172.105718 
z
" style="fill:#1f77b4;"/>
   </g>
   <g id="patch_113">
    <path clip-path="url(#p2ae2090a95)" d="M 194.911156 288.430125 
L 195.942549 288.430125 
L 195.942549 172.105718 
L 194.911156 172.105718 
z
" style="fill:#1f77b4;"/>
   </g>
   <g id="patch_114">
    <path clip-path="url(#p2ae2090a95)" d="M 196.200398 288.430125 
L 197.231791 288.430125 
L 197.231791 172.105718 
L 196.200398 172.105718 
z
" style="fill:#1f77b4;"/>
   </g>
   <g id="patch_115">
    <path clip-path="url(#p2ae2090a95)" d="M 197.489639 288.430125 
L 198.521033 288.430125 
L 198.521033 172.105718 
L 197.489639 172.105718 
z
" style="fill:#1f77b4;"/>
   </g>
   <g id="patch_116">
    <path clip-path="url(#p2ae2090a95)" d="M 198.778881 288.430125 
L 199.810275 288.430125 
L 199.810275 172.105718 
L 198.778881 172.105718 
z
" style="fill:#1f77b4;"/>
   </g>
   <g id="patch_117">
    <path clip-path="url(#p2ae2090a95)" d="M 200.068123 288.430125 
L 201.099517 288.430125 
L 201.099517 172.105718 
L 200.068123 172.105718 
z
" style="fill:#1f77b4;"/>
   </g>
   <g id="patch_118">
    <path clip-path="url(#p2ae2090a95)" d="M 201.357365 288.430125 
L 202.388759 288.430125 
L 202.388759 172.105718 
L 201.357365 172.105718 
z
" style="fill:#1f77b4;"/>
   </g>
   <g id="patch_119">
    <path clip-path="url(#p2ae2090a95)" d="M 202.646607 288.430125 
L 203.678 288.430125 
L 203.678 172.105718 
L 202.646607 172.105718 
z
" style="fill:#1f77b4;"/>
   </g>
   <g id="patch_120">
    <path clip-path="url(#p2ae2090a95)" d="M 203.935849 288.430125 
L 204.967242 288.430125 
L 204.967242 172.105718 
L 203.935849 172.105718 
z
" style="fill:#1f77b4;"/>
   </g>
   <g id="patch_121">
    <path clip-path="url(#p2ae2090a95)" d="M 205.225091 288.430125 
L 206.256484 288.430125 
L 206.256484 172.105718 
L 205.225091 172.105718 
z
" style="fill:#1f77b4;"/>
   </g>
   <g id="patch_122">
    <path clip-path="url(#p2ae2090a95)" d="M 206.514333 288.430125 
L 207.545726 288.430125 
L 207.545726 172.105718 
L 206.514333 172.105718 
z
" style="fill:#1f77b4;"/>
   </g>
   <g id="patch_123">
    <path clip-path="url(#p2ae2090a95)" d="M 207.803574 288.430125 
L 208.834968 288.430125 
L 208.834968 172.105718 
L 207.803574 172.105718 
z
" style="fill:#1f77b4;"/>
   </g>
   <g id="patch_124">
    <path clip-path="url(#p2ae2090a95)" d="M 209.092816 288.430125 
L 210.12421 288.430125 
L 210.12421 172.105718 
L 209.092816 172.105718 
z
" style="fill:#1f77b4;"/>
   </g>
   <g id="patch_125">
    <path clip-path="url(#p2ae2090a95)" d="M 210.382058 288.430125 
L 211.413452 288.430125 
L 211.413452 172.105718 
L 210.382058 172.105718 
z
" style="fill:#1f77b4;"/>
   </g>
   <g id="patch_126">
    <path clip-path="url(#p2ae2090a95)" d="M 211.6713 288.430125 
L 212.702694 288.430125 
L 212.702694 172.105718 
L 211.6713 172.105718 
z
" style="fill:#1f77b4;"/>
   </g>
   <g id="patch_127">
    <path clip-path="url(#p2ae2090a95)" d="M 212.960542 288.430125 
L 213.991935 288.430125 
L 213.991935 172.105718 
L 212.960542 172.105718 
z
" style="fill:#1f77b4;"/>
   </g>
   <g id="patch_128">
    <path clip-path="url(#p2ae2090a95)" d="M 214.249784 288.430125 
L 215.281177 288.430125 
L 215.281177 172.105718 
L 214.249784 172.105718 
z
" style="fill:#1f77b4;"/>
   </g>
   <g id="patch_129">
    <path clip-path="url(#p2ae2090a95)" d="M 215.539026 288.430125 
L 216.570419 288.430125 
L 216.570419 172.105718 
L 215.539026 172.105718 
z
" style="fill:#1f77b4;"/>
   </g>
   <g id="patch_130">
    <path clip-path="url(#p2ae2090a95)" d="M 216.828268 288.430125 
L 217.859661 288.430125 
L 217.859661 172.105718 
L 216.828268 172.105718 
z
" style="fill:#1f77b4;"/>
   </g>
   <g id="patch_131">
    <path clip-path="url(#p2ae2090a95)" d="M 218.117509 288.430125 
L 219.148903 288.430125 
L 219.148903 172.105718 
L 218.117509 172.105718 
z
" style="fill:#1f77b4;"/>
   </g>
   <g id="patch_132">
    <path clip-path="url(#p2ae2090a95)" d="M 219.406751 288.430125 
L 220.438145 288.430125 
L 220.438145 172.105718 
L 219.406751 172.105718 
z
" style="fill:#1f77b4;"/>
   </g>
   <g id="patch_133">
    <path clip-path="url(#p2ae2090a95)" d="M 220.695993 288.430125 
L 221.727387 288.430125 
L 221.727387 172.105718 
L 220.695993 172.105718 
z
" style="fill:#1f77b4;"/>
   </g>
   <g id="patch_134">
    <path clip-path="url(#p2ae2090a95)" d="M 221.985235 288.430125 
L 223.016629 288.430125 
L 223.016629 172.105718 
L 221.985235 172.105718 
z
" style="fill:#1f77b4;"/>
   </g>
   <g id="patch_135">
    <path clip-path="url(#p2ae2090a95)" d="M 223.274477 288.430125 
L 224.30587 288.430125 
L 224.30587 172.105718 
L 223.274477 172.105718 
z
" style="fill:#1f77b4;"/>
   </g>
   <g id="patch_136">
    <path clip-path="url(#p2ae2090a95)" d="M 224.563719 288.430125 
L 225.595112 288.430125 
L 225.595112 172.105718 
L 224.563719 172.105718 
z
" style="fill:#1f77b4;"/>
   </g>
   <g id="patch_137">
    <path clip-path="url(#p2ae2090a95)" d="M 225.852961 288.430125 
L 226.884354 288.430125 
L 226.884354 172.105718 
L 225.852961 172.105718 
z
" style="fill:#1f77b4;"/>
   </g>
   <g id="patch_138">
    <path clip-path="url(#p2ae2090a95)" d="M 227.142203 288.430125 
L 228.173596 288.430125 
L 228.173596 172.105718 
L 227.142203 172.105718 
z
" style="fill:#1f77b4;"/>
   </g>
   <g id="patch_139">
    <path clip-path="url(#p2ae2090a95)" d="M 228.431444 288.430125 
L 229.462838 288.430125 
L 229.462838 172.105718 
L 228.431444 172.105718 
z
" style="fill:#1f77b4;"/>
   </g>
   <g id="patch_140">
    <path clip-path="url(#p2ae2090a95)" d="M 229.720686 288.430125 
L 230.75208 288.430125 
L 230.75208 172.105718 
L 229.720686 172.105718 
z
" style="fill:#1f77b4;"/>
   </g>
   <g id="patch_141">
    <path clip-path="url(#p2ae2090a95)" d="M 231.009928 288.430125 
L 232.041322 288.430125 
L 232.041322 172.105718 
L 231.009928 172.105718 
z
" style="fill:#1f77b4;"/>
   </g>
   <g id="patch_142">
    <path clip-path="url(#p2ae2090a95)" d="M 232.29917 288.430125 
L 233.330564 288.430125 
L 233.330564 172.105718 
L 232.29917 172.105718 
z
" style="fill:#1f77b4;"/>
   </g>
   <g id="patch_143">
    <path clip-path="url(#p2ae2090a95)" d="M 233.588412 288.430125 
L 234.619806 288.430125 
L 234.619806 172.105718 
L 233.588412 172.105718 
z
" style="fill:#1f77b4;"/>
   </g>
   <g id="patch_144">
    <path clip-path="url(#p2ae2090a95)" d="M 234.877654 288.430125 
L 235.909047 288.430125 
L 235.909047 172.105718 
L 234.877654 172.105718 
z
" style="fill:#1f77b4;"/>
   </g>
   <g id="patch_145">
    <path clip-path="url(#p2ae2090a95)" d="M 236.166896 288.430125 
L 237.198289 288.430125 
L 237.198289 172.105718 
L 236.166896 172.105718 
z
" style="fill:#1f77b4;"/>
   </g>
   <g id="patch_146">
    <path clip-path="url(#p2ae2090a95)" d="M 237.456138 288.430125 
L 238.487531 288.430125 
L 238.487531 172.105718 
L 237.456138 172.105718 
z
" style="fill:#1f77b4;"/>
   </g>
   <g id="patch_147">
    <path clip-path="url(#p2ae2090a95)" d="M 238.74538 288.430125 
L 239.776773 288.430125 
L 239.776773 172.105718 
L 238.74538 172.105718 
z
" style="fill:#1f77b4;"/>
   </g>
   <g id="patch_148">
    <path clip-path="url(#p2ae2090a95)" d="M 240.034621 288.430125 
L 241.066015 288.430125 
L 241.066015 172.105718 
L 240.034621 172.105718 
z
" style="fill:#1f77b4;"/>
   </g>
   <g id="patch_149">
    <path clip-path="url(#p2ae2090a95)" d="M 241.323863 288.430125 
L 242.355257 288.430125 
L 242.355257 172.105718 
L 241.323863 172.105718 
z
" style="fill:#1f77b4;"/>
   </g>
   <g id="patch_150">
    <path clip-path="url(#p2ae2090a95)" d="M 242.613105 288.430125 
L 243.644499 288.430125 
L 243.644499 172.105718 
L 242.613105 172.105718 
z
" style="fill:#1f77b4;"/>
   </g>
   <g id="patch_151">
    <path clip-path="url(#p2ae2090a95)" d="M 243.902347 288.430125 
L 244.933741 288.430125 
L 244.933741 172.105718 
L 243.902347 172.105718 
z
" style="fill:#1f77b4;"/>
   </g>
   <g id="patch_152">
    <path clip-path="url(#p2ae2090a95)" d="M 245.191589 288.430125 
L 246.222982 288.430125 
L 246.222982 172.105718 
L 245.191589 172.105718 
z
" style="fill:#1f77b4;"/>
   </g>
   <g id="patch_153">
    <path clip-path="url(#p2ae2090a95)" d="M 246.480831 288.430125 
L 247.512224 288.430125 
L 247.512224 172.105718 
L 246.480831 172.105718 
z
" style="fill:#1f77b4;"/>
   </g>
   <g id="patch_154">
    <path clip-path="url(#p2ae2090a95)" d="M 247.770073 288.430125 
L 248.801466 288.430125 
L 248.801466 172.105718 
L 247.770073 172.105718 
z
" style="fill:#1f77b4;"/>
   </g>
   <g id="patch_155">
    <path clip-path="url(#p2ae2090a95)" d="M 249.059315 288.430125 
L 250.090708 288.430125 
L 250.090708 172.105718 
L 249.059315 172.105718 
z
" style="fill:#1f77b4;"/>
   </g>
   <g id="patch_156">
    <path clip-path="url(#p2ae2090a95)" d="M 250.348556 288.430125 
L 251.37995 288.430125 
L 251.37995 172.105718 
L 250.348556 172.105718 
z
" style="fill:#1f77b4;"/>
   </g>
   <g id="patch_157">
    <path clip-path="url(#p2ae2090a95)" d="M 251.637798 288.430125 
L 252.669192 288.430125 
L 252.669192 172.105718 
L 251.637798 172.105718 
z
" style="fill:#1f77b4;"/>
   </g>
   <g id="patch_158">
    <path clip-path="url(#p2ae2090a95)" d="M 252.92704 288.430125 
L 253.958434 288.430125 
L 253.958434 172.105718 
L 252.92704 172.105718 
z
" style="fill:#1f77b4;"/>
   </g>
   <g id="patch_159">
    <path clip-path="url(#p2ae2090a95)" d="M 254.216282 288.430125 
L 255.247676 288.430125 
L 255.247676 172.105718 
L 254.216282 172.105718 
z
" style="fill:#1f77b4;"/>
   </g>
   <g id="patch_160">
    <path clip-path="url(#p2ae2090a95)" d="M 255.505524 288.430125 
L 256.536917 288.430125 
L 256.536917 172.105718 
L 255.505524 172.105718 
z
" style="fill:#1f77b4;"/>
   </g>
   <g id="patch_161">
    <path clip-path="url(#p2ae2090a95)" d="M 256.794766 288.430125 
L 257.826159 288.430125 
L 257.826159 172.105718 
L 256.794766 172.105718 
z
" style="fill:#1f77b4;"/>
   </g>
   <g id="patch_162">
    <path clip-path="url(#p2ae2090a95)" d="M 258.084008 288.430125 
L 259.115401 288.430125 
L 259.115401 172.105718 
L 258.084008 172.105718 
z
" style="fill:#1f77b4;"/>
   </g>
   <g id="patch_163">
    <path clip-path="url(#p2ae2090a95)" d="M 259.37325 288.430125 
L 260.404643 288.430125 
L 260.404643 172.105718 
L 259.37325 172.105718 
z
" style="fill:#1f77b4;"/>
   </g>
   <g id="patch_164">
    <path clip-path="url(#p2ae2090a95)" d="M 260.662491 288.430125 
L 261.693885 288.430125 
L 261.693885 172.105718 
L 260.662491 172.105718 
z
" style="fill:#1f77b4;"/>
   </g>
   <g id="patch_165">
    <path clip-path="url(#p2ae2090a95)" d="M 261.951733 288.430125 
L 262.983127 288.430125 
L 262.983127 172.105718 
L 261.951733 172.105718 
z
" style="fill:#1f77b4;"/>
   </g>
   <g id="patch_166">
    <path clip-path="url(#p2ae2090a95)" d="M 263.240975 288.430125 
L 264.272369 288.430125 
L 264.272369 172.90246 
L 263.240975 172.90246 
z
" style="fill:#1f77b4;"/>
   </g>
   <g id="patch_167">
    <path clip-path="url(#p2ae2090a95)" d="M 264.530217 288.430125 
L 265.561611 288.430125 
L 265.561611 172.105718 
L 264.530217 172.105718 
z
" style="fill:#1f77b4;"/>
   </g>
   <g id="patch_168">
    <path clip-path="url(#p2ae2090a95)" d="M 265.819459 288.430125 
L 266.850852 288.430125 
L 266.850852 172.105718 
L 265.819459 172.105718 
z
" style="fill:#1f77b4;"/>
   </g>
   <g id="patch_169">
    <path clip-path="url(#p2ae2090a95)" d="M 267.108701 288.430125 
L 268.140094 288.430125 
L 268.140094 172.105718 
L 267.108701 172.105718 
z
" style="fill:#1f77b4;"/>
   </g>
   <g id="patch_170">
    <path clip-path="url(#p2ae2090a95)" d="M 268.397943 288.430125 
L 269.429336 288.430125 
L 269.429336 172.105718 
L 268.397943 172.105718 
z
" style="fill:#1f77b4;"/>
   </g>
   <g id="patch_171">
    <path clip-path="url(#p2ae2090a95)" d="M 269.687185 288.430125 
L 270.718578 288.430125 
L 270.718578 172.105718 
L 269.687185 172.105718 
z
" style="fill:#1f77b4;"/>
   </g>
   <g id="patch_172">
    <path clip-path="url(#p2ae2090a95)" d="M 270.976426 288.430125 
L 272.00782 288.430125 
L 272.00782 172.105718 
L 270.976426 172.105718 
z
" style="fill:#1f77b4;"/>
   </g>
   <g id="patch_173">
    <path clip-path="url(#p2ae2090a95)" d="M 272.265668 288.430125 
L 273.297062 288.430125 
L 273.297062 172.105718 
L 272.265668 172.105718 
z
" style="fill:#1f77b4;"/>
   </g>
   <g id="patch_174">
    <path clip-path="url(#p2ae2090a95)" d="M 273.55491 288.430125 
L 274.586304 288.430125 
L 274.586304 172.105718 
L 273.55491 172.105718 
z
" style="fill:#1f77b4;"/>
   </g>
   <g id="patch_175">
    <path clip-path="url(#p2ae2090a95)" d="M 274.844152 288.430125 
L 275.875546 288.430125 
L 275.875546 172.105718 
L 274.844152 172.105718 
z
" style="fill:#1f77b4;"/>
   </g>
   <g id="patch_176">
    <path clip-path="url(#p2ae2090a95)" d="M 276.133394 288.430125 
L 277.164787 288.430125 
L 277.164787 172.105718 
L 276.133394 172.105718 
z
" style="fill:#1f77b4;"/>
   </g>
   <g id="patch_177">
    <path clip-path="url(#p2ae2090a95)" d="M 277.422636 288.430125 
L 278.454029 288.430125 
L 278.454029 172.105718 
L 277.422636 172.105718 
z
" style="fill:#1f77b4;"/>
   </g>
   <g id="patch_178">
    <path clip-path="url(#p2ae2090a95)" d="M 278.711878 288.430125 
L 279.743271 288.430125 
L 279.743271 172.105718 
L 278.711878 172.105718 
z
" style="fill:#1f77b4;"/>
   </g>
   <g id="patch_179">
    <path clip-path="url(#p2ae2090a95)" d="M 280.00112 288.430125 
L 281.032513 288.430125 
L 281.032513 172.105718 
L 280.00112 172.105718 
z
" style="fill:#1f77b4;"/>
   </g>
   <g id="patch_180">
    <path clip-path="url(#p2ae2090a95)" d="M 281.290361 288.430125 
L 282.321755 288.430125 
L 282.321755 172.105718 
L 281.290361 172.105718 
z
" style="fill:#1f77b4;"/>
   </g>
   <g id="patch_181">
    <path clip-path="url(#p2ae2090a95)" d="M 282.579603 288.430125 
L 283.610997 288.430125 
L 283.610997 172.105718 
L 282.579603 172.105718 
z
" style="fill:#1f77b4;"/>
   </g>
   <g id="patch_182">
    <path clip-path="url(#p2ae2090a95)" d="M 283.868845 288.430125 
L 284.900239 288.430125 
L 284.900239 172.105718 
L 283.868845 172.105718 
z
" style="fill:#1f77b4;"/>
   </g>
   <g id="patch_183">
    <path clip-path="url(#p2ae2090a95)" d="M 285.158087 288.430125 
L 286.189481 288.430125 
L 286.189481 172.105718 
L 285.158087 172.105718 
z
" style="fill:#1f77b4;"/>
   </g>
   <g id="patch_184">
    <path clip-path="url(#p2ae2090a95)" d="M 286.447329 288.430125 
L 287.478722 288.430125 
L 287.478722 172.105718 
L 286.447329 172.105718 
z
" style="fill:#1f77b4;"/>
   </g>
   <g id="patch_185">
    <path clip-path="url(#p2ae2090a95)" d="M 287.736571 288.430125 
L 288.767964 288.430125 
L 288.767964 172.105718 
L 287.736571 172.105718 
z
" style="fill:#1f77b4;"/>
   </g>
   <g id="patch_186">
    <path clip-path="url(#p2ae2090a95)" d="M 289.025813 288.430125 
L 290.057206 288.430125 
L 290.057206 172.105718 
L 289.025813 172.105718 
z
" style="fill:#1f77b4;"/>
   </g>
   <g id="patch_187">
    <path clip-path="url(#p2ae2090a95)" d="M 290.315055 288.430125 
L 291.346448 288.430125 
L 291.346448 172.105718 
L 290.315055 172.105718 
z
" style="fill:#1f77b4;"/>
   </g>
   <g id="patch_188">
    <path clip-path="url(#p2ae2090a95)" d="M 291.604296 288.430125 
L 292.63569 288.430125 
L 292.63569 172.105718 
L 291.604296 172.105718 
z
" style="fill:#1f77b4;"/>
   </g>
   <g id="patch_189">
    <path clip-path="url(#p2ae2090a95)" d="M 292.893538 288.430125 
L 293.924932 288.430125 
L 293.924932 172.105718 
L 292.893538 172.105718 
z
" style="fill:#1f77b4;"/>
   </g>
   <g id="patch_190">
    <path clip-path="url(#p2ae2090a95)" d="M 294.18278 288.430125 
L 295.214174 288.430125 
L 295.214174 172.105718 
L 294.18278 172.105718 
z
" style="fill:#1f77b4;"/>
   </g>
   <g id="patch_191">
    <path clip-path="url(#p2ae2090a95)" d="M 295.472022 288.430125 
L 296.503416 288.430125 
L 296.503416 172.105718 
L 295.472022 172.105718 
z
" style="fill:#1f77b4;"/>
   </g>
   <g id="patch_192">
    <path clip-path="url(#p2ae2090a95)" d="M 296.761264 288.430125 
L 297.792657 288.430125 
L 297.792657 172.105718 
L 296.761264 172.105718 
z
" style="fill:#1f77b4;"/>
   </g>
   <g id="patch_193">
    <path clip-path="url(#p2ae2090a95)" d="M 298.050506 288.430125 
L 299.081899 288.430125 
L 299.081899 172.105718 
L 298.050506 172.105718 
z
" style="fill:#1f77b4;"/>
   </g>
   <g id="patch_194">
    <path clip-path="url(#p2ae2090a95)" d="M 299.339748 288.430125 
L 300.371141 288.430125 
L 300.371141 172.105718 
L 299.339748 172.105718 
z
" style="fill:#1f77b4;"/>
   </g>
   <g id="patch_195">
    <path clip-path="url(#p2ae2090a95)" d="M 300.62899 288.430125 
L 301.660383 288.430125 
L 301.660383 172.105718 
L 300.62899 172.105718 
z
" style="fill:#1f77b4;"/>
   </g>
   <g id="patch_196">
    <path clip-path="url(#p2ae2090a95)" d="M 301.918231 288.430125 
L 302.949625 288.430125 
L 302.949625 172.105718 
L 301.918231 172.105718 
z
" style="fill:#1f77b4;"/>
   </g>
   <g id="patch_197">
    <path clip-path="url(#p2ae2090a95)" d="M 303.207473 288.430125 
L 304.238867 288.430125 
L 304.238867 172.105718 
L 303.207473 172.105718 
z
" style="fill:#1f77b4;"/>
   </g>
   <g id="patch_198">
    <path clip-path="url(#p2ae2090a95)" d="M 304.496715 288.430125 
L 305.528109 288.430125 
L 305.528109 172.105718 
L 304.496715 172.105718 
z
" style="fill:#1f77b4;"/>
   </g>
   <g id="patch_199">
    <path clip-path="url(#p2ae2090a95)" d="M 305.785957 288.430125 
L 306.817351 288.430125 
L 306.817351 172.105718 
L 305.785957 172.105718 
z
" style="fill:#1f77b4;"/>
   </g>
   <g id="patch_200">
    <path clip-path="url(#p2ae2090a95)" d="M 307.075199 288.430125 
L 308.106593 288.430125 
L 308.106593 172.105718 
L 307.075199 172.105718 
z
" style="fill:#1f77b4;"/>
   </g>
   <g id="patch_201">
    <path clip-path="url(#p2ae2090a95)" d="M 308.364441 288.430125 
L 309.395834 288.430125 
L 309.395834 172.105718 
L 308.364441 172.105718 
z
" style="fill:#1f77b4;"/>
   </g>
   <g id="patch_202">
    <path clip-path="url(#p2ae2090a95)" d="M 309.653683 288.430125 
L 310.685076 288.430125 
L 310.685076 172.105718 
L 309.653683 172.105718 
z
" style="fill:#1f77b4;"/>
   </g>
   <g id="patch_203">
    <path clip-path="url(#p2ae2090a95)" d="M 310.942925 288.430125 
L 311.974318 288.430125 
L 311.974318 172.105718 
L 310.942925 172.105718 
z
" style="fill:#1f77b4;"/>
   </g>
   <g id="patch_204">
    <path clip-path="url(#p2ae2090a95)" d="M 312.232167 288.430125 
L 313.26356 288.430125 
L 313.26356 172.105718 
L 312.232167 172.105718 
z
" style="fill:#1f77b4;"/>
   </g>
   <g id="patch_205">
    <path clip-path="url(#p2ae2090a95)" d="M 313.521408 288.430125 
L 314.552802 288.430125 
L 314.552802 172.105718 
L 313.521408 172.105718 
z
" style="fill:#1f77b4;"/>
   </g>
   <g id="patch_206">
    <path clip-path="url(#p2ae2090a95)" d="M 314.81065 288.430125 
L 315.842044 288.430125 
L 315.842044 172.105718 
L 314.81065 172.105718 
z
" style="fill:#1f77b4;"/>
   </g>
   <g id="patch_207">
    <path clip-path="url(#p2ae2090a95)" d="M 316.099892 288.430125 
L 317.131286 288.430125 
L 317.131286 172.105718 
L 316.099892 172.105718 
z
" style="fill:#1f77b4;"/>
   </g>
   <g id="patch_208">
    <path clip-path="url(#p2ae2090a95)" d="M 317.389134 288.430125 
L 318.420528 288.430125 
L 318.420528 172.105718 
L 317.389134 172.105718 
z
" style="fill:#1f77b4;"/>
   </g>
   <g id="patch_209">
    <path clip-path="url(#p2ae2090a95)" d="M 318.678376 288.430125 
L 319.709769 288.430125 
L 319.709769 172.105718 
L 318.678376 172.105718 
z
" style="fill:#1f77b4;"/>
   </g>
   <g id="patch_210">
    <path clip-path="url(#p2ae2090a95)" d="M 319.967618 288.430125 
L 320.999011 288.430125 
L 320.999011 172.105718 
L 319.967618 172.105718 
z
" style="fill:#1f77b4;"/>
   </g>
   <g id="patch_211">
    <path clip-path="url(#p2ae2090a95)" d="M 321.25686 288.430125 
L 322.288253 288.430125 
L 322.288253 172.105718 
L 321.25686 172.105718 
z
" style="fill:#1f77b4;"/>
   </g>
   <g id="patch_212">
    <path clip-path="url(#p2ae2090a95)" d="M 322.546102 288.430125 
L 323.577495 288.430125 
L 323.577495 172.105718 
L 322.546102 172.105718 
z
" style="fill:#1f77b4;"/>
   </g>
   <g id="patch_213">
    <path clip-path="url(#p2ae2090a95)" d="M 323.835343 288.430125 
L 324.866737 288.430125 
L 324.866737 171.707347 
L 323.835343 171.707347 
z
" style="fill:#1f77b4;"/>
   </g>
   <g id="patch_214">
    <path clip-path="url(#p2ae2090a95)" d="M 325.124585 288.430125 
L 326.155979 288.430125 
L 326.155979 171.707347 
L 325.124585 171.707347 
z
" style="fill:#1f77b4;"/>
   </g>
   <g id="patch_215">
    <path clip-path="url(#p2ae2090a95)" d="M 326.413827 288.430125 
L 327.445221 288.430125 
L 327.445221 171.707347 
L 326.413827 171.707347 
z
" style="fill:#1f77b4;"/>
   </g>
   <g id="patch_216">
    <path clip-path="url(#p2ae2090a95)" d="M 327.703069 288.430125 
L 328.734463 288.430125 
L 328.734463 171.707347 
L 327.703069 171.707347 
z
" style="fill:#1f77b4;"/>
   </g>
   <g id="patch_217">
    <path clip-path="url(#p2ae2090a95)" d="M 328.992311 288.430125 
L 330.023704 288.430125 
L 330.023704 171.707347 
L 328.992311 171.707347 
z
" style="fill:#1f77b4;"/>
   </g>
   <g id="patch_218">
    <path clip-path="url(#p2ae2090a95)" d="M 330.281553 288.430125 
L 331.312946 288.430125 
L 331.312946 171.707347 
L 330.281553 171.707347 
z
" style="fill:#1f77b4;"/>
   </g>
   <g id="patch_219">
    <path clip-path="url(#p2ae2090a95)" d="M 331.570795 288.430125 
L 332.602188 288.430125 
L 332.602188 171.707347 
L 331.570795 171.707347 
z
" style="fill:#1f77b4;"/>
   </g>
   <g id="patch_220">
    <path clip-path="url(#p2ae2090a95)" d="M 332.860037 288.430125 
L 333.89143 288.430125 
L 333.89143 171.707347 
L 332.860037 171.707347 
z
" style="fill:#1f77b4;"/>
   </g>
   <g id="patch_221">
    <path clip-path="url(#p2ae2090a95)" d="M 334.149278 288.430125 
L 335.180672 288.430125 
L 335.180672 171.308975 
L 334.149278 171.308975 
z
" style="fill:#1f77b4;"/>
   </g>
   <g id="patch_222">
    <path clip-path="url(#p2ae2090a95)" d="M 335.43852 288.430125 
L 336.469914 288.430125 
L 336.469914 171.308975 
L 335.43852 171.308975 
z
" style="fill:#1f77b4;"/>
   </g>
   <g id="patch_223">
    <path clip-path="url(#p2ae2090a95)" d="M 336.727762 288.430125 
L 337.759156 288.430125 
L 337.759156 170.512233 
L 336.727762 170.512233 
z
" style="fill:#1f77b4;"/>
   </g>
   <g id="patch_224">
    <path clip-path="url(#p2ae2090a95)" d="M 338.017004 288.430125 
L 339.048398 288.430125 
L 339.048398 170.512233 
L 338.017004 170.512233 
z
" style="fill:#1f77b4;"/>
   </g>
   <g id="patch_225">
    <path clip-path="url(#p2ae2090a95)" d="M 339.306246 288.430125 
L 340.337639 288.430125 
L 340.337639 170.512233 
L 339.306246 170.512233 
z
" style="fill:#1f77b4;"/>
   </g>
   <g id="patch_226">
    <path clip-path="url(#p2ae2090a95)" d="M 340.595488 288.430125 
L 341.626881 288.430125 
L 341.626881 170.512233 
L 340.595488 170.512233 
z
" style="fill:#1f77b4;"/>
   </g>
   <g id="patch_227">
    <path clip-path="url(#p2ae2090a95)" d="M 341.88473 288.430125 
L 342.916123 288.430125 
L 342.916123 170.512233 
L 341.88473 170.512233 
z
" style="fill:#1f77b4;"/>
   </g>
   <g id="patch_228">
    <path clip-path="url(#p2ae2090a95)" d="M 343.173972 288.430125 
L 344.205365 288.430125 
L 344.205365 169.317119 
L 343.173972 169.317119 
z
" style="fill:#1f77b4;"/>
   </g>
   <g id="patch_229">
    <path clip-path="url(#p2ae2090a95)" d="M 344.463213 288.430125 
L 345.494607 288.430125 
L 345.494607 168.918748 
L 344.463213 168.918748 
z
" style="fill:#1f77b4;"/>
   </g>
   <g id="patch_230">
    <path clip-path="url(#p2ae2090a95)" d="M 345.752455 288.430125 
L 346.783849 288.430125 
L 346.783849 167.325263 
L 345.752455 167.325263 
z
" style="fill:#1f77b4;"/>
   </g>
   <g id="patch_231">
    <path clip-path="url(#p2ae2090a95)" d="M 347.041697 288.430125 
L 348.073091 288.430125 
L 348.073091 166.52852 
L 347.041697 166.52852 
z
" style="fill:#1f77b4;"/>
   </g>
   <g id="patch_232">
    <path clip-path="url(#p2ae2090a95)" d="M 348.330939 288.430125 
L 349.362333 288.430125 
L 349.362333 165.731778 
L 348.330939 165.731778 
z
" style="fill:#1f77b4;"/>
   </g>
   <g id="patch_233">
    <path clip-path="url(#p2ae2090a95)" d="M 349.620181 288.430125 
L 350.651574 288.430125 
L 350.651574 164.138293 
L 349.620181 164.138293 
z
" style="fill:#1f77b4;"/>
   </g>
   <g id="patch_234">
    <path clip-path="url(#p2ae2090a95)" d="M 350.909423 288.430125 
L 351.940816 288.430125 
L 351.940816 162.943179 
L 350.909423 162.943179 
z
" style="fill:#1f77b4;"/>
   </g>
   <g id="patch_235">
    <path clip-path="url(#p2ae2090a95)" d="M 352.198665 288.430125 
L 353.230058 288.430125 
L 353.230058 161.349694 
L 352.198665 161.349694 
z
" style="fill:#1f77b4;"/>
   </g>
   <g id="patch_236">
    <path clip-path="url(#p2ae2090a95)" d="M 353.487907 288.430125 
L 354.5193 288.430125 
L 354.5193 160.951323 
L 353.487907 160.951323 
z
" style="fill:#1f77b4;"/>
   </g>
   <g id="patch_237">
    <path clip-path="url(#p2ae2090a95)" d="M 354.777148 288.430125 
L 355.808542 288.430125 
L 355.808542 160.15458 
L 354.777148 160.15458 
z
" style="fill:#1f77b4;"/>
   </g>
   <g id="patch_238">
    <path clip-path="url(#p2ae2090a95)" d="M 356.06639 288.430125 
L 357.097784 288.430125 
L 357.097784 158.561095 
L 356.06639 158.561095 
z
" style="fill:#1f77b4;"/>
   </g>
   <g id="patch_239">
    <path clip-path="url(#p2ae2090a95)" d="M 357.355632 288.430125 
L 358.387026 288.430125 
L 358.387026 156.96761 
L 357.355632 156.96761 
z
" style="fill:#1f77b4;"/>
   </g>
   <g id="patch_240">
    <path clip-path="url(#p2ae2090a95)" d="M 358.644874 288.430125 
L 359.676268 288.430125 
L 359.676268 154.179011 
L 358.644874 154.179011 
z
" style="fill:#1f77b4;"/>
   </g>
   <g id="patch_241">
    <path clip-path="url(#p2ae2090a95)" d="M 359.934116 288.430125 
L 360.965509 288.430125 
L 360.965509 152.585526 
L 359.934116 152.585526 
z
" style="fill:#1f77b4;"/>
   </g>
   <g id="patch_242">
    <path clip-path="url(#p2ae2090a95)" d="M 361.223358 288.430125 
L 362.254751 288.430125 
L 362.254751 150.992041 
L 361.223358 150.992041 
z
" style="fill:#1f77b4;"/>
   </g>
   <g id="patch_243">
    <path clip-path="url(#p2ae2090a95)" d="M 362.5126 288.430125 
L 363.543993 288.430125 
L 363.543993 149.000185 
L 362.5126 149.000185 
z
" style="fill:#1f77b4;"/>
   </g>
   <g id="patch_244">
    <path clip-path="url(#p2ae2090a95)" d="M 363.801842 288.430125 
L 364.833235 288.430125 
L 364.833235 145.414844 
L 363.801842 145.414844 
z
" style="fill:#1f77b4;"/>
   </g>
   <g id="patch_245">
    <path clip-path="url(#p2ae2090a95)" d="M 365.091083 288.430125 
L 366.122477 288.430125 
L 366.122477 143.024616 
L 365.091083 143.024616 
z
" style="fill:#1f77b4;"/>
   </g>
   <g id="patch_246">
    <path clip-path="url(#p2ae2090a95)" d="M 366.380325 288.430125 
L 367.411719 288.430125 
L 367.411719 139.439275 
L 366.380325 139.439275 
z
" style="fill:#1f77b4;"/>
   </g>
   <g id="patch_247">
    <path clip-path="url(#p2ae2090a95)" d="M 367.669567 288.430125 
L 368.700961 288.430125 
L 368.700961 137.447418 
L 367.669567 137.447418 
z
" style="fill:#1f77b4;"/>
   </g>
   <g id="patch_248">
    <path clip-path="url(#p2ae2090a95)" d="M 368.958809 288.430125 
L 369.990203 288.430125 
L 369.990203 129.878365 
L 368.958809 129.878365 
z
" style="fill:#1f77b4;"/>
   </g>
   <g id="patch_249">
    <path clip-path="url(#p2ae2090a95)" d="M 370.248051 288.430125 
L 371.279444 288.430125 
L 371.279444 127.089766 
L 370.248051 127.089766 
z
" style="fill:#1f77b4;"/>
   </g>
   <g id="patch_250">
    <path clip-path="url(#p2ae2090a95)" d="M 371.537293 288.430125 
L 372.568686 288.430125 
L 372.568686 123.504424 
L 371.537293 123.504424 
z
" style="fill:#1f77b4;"/>
   </g>
   <g id="patch_251">
    <path clip-path="url(#p2ae2090a95)" d="M 372.826535 288.430125 
L 373.857928 288.430125 
L 373.857928 119.122341 
L 372.826535 119.122341 
z
" style="fill:#1f77b4;"/>
   </g>
   <g id="patch_252">
    <path clip-path="url(#p2ae2090a95)" d="M 374.115777 288.430125 
L 375.14717 288.430125 
L 375.14717 113.943514 
L 374.115777 113.943514 
z
" style="fill:#1f77b4;"/>
   </g>
   <g id="patch_253">
    <path clip-path="url(#p2ae2090a95)" d="M 375.405019 288.430125 
L 376.436412 288.430125 
L 376.436412 110.756544 
L 375.405019 110.756544 
z
" style="fill:#1f77b4;"/>
   </g>
   <g id="patch_254">
    <path clip-path="url(#p2ae2090a95)" d="M 376.69426 288.430125 
L 377.725654 288.430125 
L 377.725654 104.382604 
L 376.69426 104.382604 
z
" style="fill:#1f77b4;"/>
   </g>
   <g id="patch_255">
    <path clip-path="url(#p2ae2090a95)" d="M 377.983502 288.430125 
L 379.014896 288.430125 
L 379.014896 101.594005 
L 377.983502 101.594005 
z
" style="fill:#1f77b4;"/>
   </g>
   <g id="patch_256">
    <path clip-path="url(#p2ae2090a95)" d="M 379.272744 288.430125 
L 380.304138 288.430125 
L 380.304138 99.602149 
L 379.272744 99.602149 
z
" style="fill:#1f77b4;"/>
   </g>
   <g id="patch_257">
    <path clip-path="url(#p2ae2090a95)" d="M 380.561986 288.430125 
L 381.59338 288.430125 
L 381.59338 93.228209 
L 380.561986 93.228209 
z
" style="fill:#1f77b4;"/>
   </g>
   <g id="patch_258">
    <path clip-path="url(#p2ae2090a95)" d="M 381.851228 288.430125 
L 382.882621 288.430125 
L 382.882621 90.041239 
L 381.851228 90.041239 
z
" style="fill:#1f77b4;"/>
   </g>
   <g id="patch_259">
    <path clip-path="url(#p2ae2090a95)" d="M 383.14047 288.430125 
L 384.171863 288.430125 
L 384.171863 85.659155 
L 383.14047 85.659155 
z
" style="fill:#1f77b4;"/>
   </g>
   <g id="patch_260">
    <path clip-path="url(#p2ae2090a95)" d="M 384.429712 288.430125 
L 385.461105 288.430125 
L 385.461105 81.277071 
L 384.429712 81.277071 
z
" style="fill:#1f77b4;"/>
   </g>
   <g id="patch_261">
    <path clip-path="url(#p2ae2090a95)" d="M 385.718954 288.430125 
L 386.750347 288.430125 
L 386.750347 80.081957 
L 385.718954 80.081957 
z
" style="fill:#1f77b4;"/>
   </g>
   <g id="patch_262">
    <path clip-path="url(#p2ae2090a95)" d="M 387.008195 288.430125 
L 388.039589 288.430125 
L 388.039589 77.293359 
L 387.008195 77.293359 
z
" style="fill:#1f77b4;"/>
   </g>
   <g id="patch_263">
    <path clip-path="url(#p2ae2090a95)" d="M 388.297437 288.430125 
L 389.328831 288.430125 
L 389.328831 76.894987 
L 388.297437 76.894987 
z
" style="fill:#1f77b4;"/>
   </g>
   <g id="patch_264">
    <path clip-path="url(#p2ae2090a95)" d="M 389.586679 288.430125 
L 390.618073 288.430125 
L 390.618073 75.301502 
L 389.586679 75.301502 
z
" style="fill:#1f77b4;"/>
   </g>
   <g id="patch_265">
    <path clip-path="url(#p2ae2090a95)" d="M 390.875921 288.430125 
L 391.907315 288.430125 
L 391.907315 72.512903 
L 390.875921 72.512903 
z
" style="fill:#1f77b4;"/>
   </g>
   <g id="patch_266">
    <path clip-path="url(#p2ae2090a95)" d="M 392.165163 288.430125 
L 393.196556 288.430125 
L 393.196556 66.138963 
L 392.165163 66.138963 
z
" style="fill:#1f77b4;"/>
   </g>
   <g id="patch_267">
    <path clip-path="url(#p2ae2090a95)" d="M 393.454405 288.430125 
L 394.485798 288.430125 
L 394.485798 61.756879 
L 393.454405 61.756879 
z
" style="fill:#1f77b4;"/>
   </g>
   <g id="patch_268">
    <path clip-path="url(#p2ae2090a95)" d="M 394.743647 288.430125 
L 395.77504 288.430125 
L 395.77504 60.561766 
L 394.743647 60.561766 
z
" style="fill:#1f77b4;"/>
   </g>
   <g id="patch_269">
    <path clip-path="url(#p2ae2090a95)" d="M 396.032889 288.430125 
L 397.064282 288.430125 
L 397.064282 58.171538 
L 396.032889 58.171538 
z
" style="fill:#1f77b4;"/>
   </g>
   <g id="patch_270">
    <path clip-path="url(#p2ae2090a95)" d="M 397.32213 288.430125 
L 398.353524 288.430125 
L 398.353524 56.179682 
L 397.32213 56.179682 
z
" style="fill:#1f77b4;"/>
   </g>
   <g id="patch_271">
    <path clip-path="url(#p2ae2090a95)" d="M 398.611372 288.430125 
L 399.642766 288.430125 
L 399.642766 51.797598 
L 398.611372 51.797598 
z
" style="fill:#1f77b4;"/>
   </g>
   <g id="patch_272">
    <path clip-path="url(#p2ae2090a95)" d="M 399.900614 288.430125 
L 400.932008 288.430125 
L 400.932008 47.813885 
L 399.900614 47.813885 
z
" style="fill:#1f77b4;"/>
   </g>
   <g id="patch_273">
    <path clip-path="url(#p2ae2090a95)" d="M 401.189856 288.430125 
L 402.22125 288.430125 
L 402.22125 44.626915 
L 401.189856 44.626915 
z
" style="fill:#1f77b4;"/>
   </g>
   <g id="patch_274">
    <path clip-path="url(#p2ae2090a95)" d="M 402.479098 288.430125 
L 403.510491 288.430125 
L 403.510491 37.854604 
L 402.479098 37.854604 
z
" style="fill:#1f77b4;"/>
   </g>
   <g id="patch_275">
    <path clip-path="url(#p2ae2090a95)" d="M 403.76834 288.430125 
L 404.799733 288.430125 
L 404.799733 35.862748 
L 403.76834 35.862748 
z
" style="fill:#1f77b4;"/>
   </g>
   <g id="patch_276">
    <path clip-path="url(#p2ae2090a95)" d="M 405.057582 288.430125 
L 406.088975 288.430125 
L 406.088975 34.269263 
L 405.057582 34.269263 
z
" style="fill:#1f77b4;"/>
   </g>
   <g id="patch_277">
    <path clip-path="url(#p2ae2090a95)" d="M 406.346824 288.430125 
L 407.378217 288.430125 
L 407.378217 30.683921 
L 406.346824 30.683921 
z
" style="fill:#1f77b4;"/>
   </g>
   <g id="patch_278">
    <path clip-path="url(#p2ae2090a95)" d="M 407.636065 288.430125 
L 408.667459 288.430125 
L 408.667459 26.700209 
L 407.636065 26.700209 
z
" style="fill:#1f77b4;"/>
   </g>
   <g id="patch_279">
    <path clip-path="url(#p2ae2090a95)" d="M 408.925307 288.430125 
L 409.956701 288.430125 
L 409.956701 22.318125 
L 408.925307 22.318125 
z
" style="fill:#1f77b4;"/>
   </g>
   <g id="matplotlib.axis_1">
    <g id="xtick_1">
     <g id="line2d_1">
      <defs>
       <path d="M 0 0 
L 0 3.5 
" id="meb8b3ca248" style="stroke:#000000;stroke-width:0.8;"/>
      </defs>
      <g>
       <use style="stroke:#000000;stroke-width:0.8;" x="75.527358" xlink:href="#meb8b3ca248" y="288.430125"/>
      </g>
     </g>
     <g id="text_1">
      <!-- 2020-04 -->
      <g transform="translate(78.286733 337.212937)rotate(-90)scale(0.1 -0.1)">
       <defs>
        <path d="M 19.1875 8.296875 
L 53.609375 8.296875 
L 53.609375 0 
L 7.328125 0 
L 7.328125 8.296875 
Q 12.9375 14.109375 22.625 23.890625 
Q 32.328125 33.6875 34.8125 36.53125 
Q 39.546875 41.84375 41.421875 45.53125 
Q 43.3125 49.21875 43.3125 52.78125 
Q 43.3125 58.59375 39.234375 62.25 
Q 35.15625 65.921875 28.609375 65.921875 
Q 23.96875 65.921875 18.8125 64.3125 
Q 13.671875 62.703125 7.8125 59.421875 
L 7.8125 69.390625 
Q 13.765625 71.78125 18.9375 73 
Q 24.125 74.21875 28.421875 74.21875 
Q 39.75 74.21875 46.484375 68.546875 
Q 53.21875 62.890625 53.21875 53.421875 
Q 53.21875 48.921875 51.53125 44.890625 
Q 49.859375 40.875 45.40625 35.40625 
Q 44.1875 33.984375 37.640625 27.21875 
Q 31.109375 20.453125 19.1875 8.296875 
z
" id="DejaVuSans-50"/>
        <path d="M 31.78125 66.40625 
Q 24.171875 66.40625 20.328125 58.90625 
Q 16.5 51.421875 16.5 36.375 
Q 16.5 21.390625 20.328125 13.890625 
Q 24.171875 6.390625 31.78125 6.390625 
Q 39.453125 6.390625 43.28125 13.890625 
Q 47.125 21.390625 47.125 36.375 
Q 47.125 51.421875 43.28125 58.90625 
Q 39.453125 66.40625 31.78125 66.40625 
z
M 31.78125 74.21875 
Q 44.046875 74.21875 50.515625 64.515625 
Q 56.984375 54.828125 56.984375 36.375 
Q 56.984375 17.96875 50.515625 8.265625 
Q 44.046875 -1.421875 31.78125 -1.421875 
Q 19.53125 -1.421875 13.0625 8.265625 
Q 6.59375 17.96875 6.59375 36.375 
Q 6.59375 54.828125 13.0625 64.515625 
Q 19.53125 74.21875 31.78125 74.21875 
z
" id="DejaVuSans-48"/>
        <path d="M 4.890625 31.390625 
L 31.203125 31.390625 
L 31.203125 23.390625 
L 4.890625 23.390625 
z
" id="DejaVuSans-45"/>
        <path d="M 37.796875 64.3125 
L 12.890625 25.390625 
L 37.796875 25.390625 
z
M 35.203125 72.90625 
L 47.609375 72.90625 
L 47.609375 25.390625 
L 58.015625 25.390625 
L 58.015625 17.1875 
L 47.609375 17.1875 
L 47.609375 0 
L 37.796875 0 
L 37.796875 17.1875 
L 4.890625 17.1875 
L 4.890625 26.703125 
z
" id="DejaVuSans-52"/>
       </defs>
       <use xlink:href="#DejaVuSans-50"/>
       <use x="63.623047" xlink:href="#DejaVuSans-48"/>
       <use x="127.246094" xlink:href="#DejaVuSans-50"/>
       <use x="190.869141" xlink:href="#DejaVuSans-48"/>
       <use x="254.492188" xlink:href="#DejaVuSans-45"/>
       <use x="290.576172" xlink:href="#DejaVuSans-48"/>
       <use x="354.199219" xlink:href="#DejaVuSans-52"/>
      </g>
     </g>
    </g>
    <g id="xtick_2">
     <g id="line2d_2">
      <g>
       <use style="stroke:#000000;stroke-width:0.8;" x="114.204614" xlink:href="#meb8b3ca248" y="288.430125"/>
      </g>
     </g>
     <g id="text_2">
      <!-- 2020-05 -->
      <g transform="translate(116.963989 337.212937)rotate(-90)scale(0.1 -0.1)">
       <defs>
        <path d="M 10.796875 72.90625 
L 49.515625 72.90625 
L 49.515625 64.59375 
L 19.828125 64.59375 
L 19.828125 46.734375 
Q 21.96875 47.46875 24.109375 47.828125 
Q 26.265625 48.1875 28.421875 48.1875 
Q 40.625 48.1875 47.75 41.5 
Q 54.890625 34.8125 54.890625 23.390625 
Q 54.890625 11.625 47.5625 5.09375 
Q 40.234375 -1.421875 26.90625 -1.421875 
Q 22.3125 -1.421875 17.546875 -0.640625 
Q 12.796875 0.140625 7.71875 1.703125 
L 7.71875 11.625 
Q 12.109375 9.234375 16.796875 8.0625 
Q 21.484375 6.890625 26.703125 6.890625 
Q 35.15625 6.890625 40.078125 11.328125 
Q 45.015625 15.765625 45.015625 23.390625 
Q 45.015625 31 40.078125 35.4375 
Q 35.15625 39.890625 26.703125 39.890625 
Q 22.75 39.890625 18.8125 39.015625 
Q 14.890625 38.140625 10.796875 36.28125 
z
" id="DejaVuSans-53"/>
       </defs>
       <use xlink:href="#DejaVuSans-50"/>
       <use x="63.623047" xlink:href="#DejaVuSans-48"/>
       <use x="127.246094" xlink:href="#DejaVuSans-50"/>
       <use x="190.869141" xlink:href="#DejaVuSans-48"/>
       <use x="254.492188" xlink:href="#DejaVuSans-45"/>
       <use x="290.576172" xlink:href="#DejaVuSans-48"/>
       <use x="354.199219" xlink:href="#DejaVuSans-53"/>
      </g>
     </g>
    </g>
    <g id="xtick_3">
     <g id="line2d_3">
      <g>
       <use style="stroke:#000000;stroke-width:0.8;" x="154.171112" xlink:href="#meb8b3ca248" y="288.430125"/>
      </g>
     </g>
     <g id="text_3">
      <!-- 2020-06 -->
      <g transform="translate(156.930487 337.212937)rotate(-90)scale(0.1 -0.1)">
       <defs>
        <path d="M 33.015625 40.375 
Q 26.375 40.375 22.484375 35.828125 
Q 18.609375 31.296875 18.609375 23.390625 
Q 18.609375 15.53125 22.484375 10.953125 
Q 26.375 6.390625 33.015625 6.390625 
Q 39.65625 6.390625 43.53125 10.953125 
Q 47.40625 15.53125 47.40625 23.390625 
Q 47.40625 31.296875 43.53125 35.828125 
Q 39.65625 40.375 33.015625 40.375 
z
M 52.59375 71.296875 
L 52.59375 62.3125 
Q 48.875 64.0625 45.09375 64.984375 
Q 41.3125 65.921875 37.59375 65.921875 
Q 27.828125 65.921875 22.671875 59.328125 
Q 17.53125 52.734375 16.796875 39.40625 
Q 19.671875 43.65625 24.015625 45.921875 
Q 28.375 48.1875 33.59375 48.1875 
Q 44.578125 48.1875 50.953125 41.515625 
Q 57.328125 34.859375 57.328125 23.390625 
Q 57.328125 12.15625 50.6875 5.359375 
Q 44.046875 -1.421875 33.015625 -1.421875 
Q 20.359375 -1.421875 13.671875 8.265625 
Q 6.984375 17.96875 6.984375 36.375 
Q 6.984375 53.65625 15.1875 63.9375 
Q 23.390625 74.21875 37.203125 74.21875 
Q 40.921875 74.21875 44.703125 73.484375 
Q 48.484375 72.75 52.59375 71.296875 
z
" id="DejaVuSans-54"/>
       </defs>
       <use xlink:href="#DejaVuSans-50"/>
       <use x="63.623047" xlink:href="#DejaVuSans-48"/>
       <use x="127.246094" xlink:href="#DejaVuSans-50"/>
       <use x="190.869141" xlink:href="#DejaVuSans-48"/>
       <use x="254.492188" xlink:href="#DejaVuSans-45"/>
       <use x="290.576172" xlink:href="#DejaVuSans-48"/>
       <use x="354.199219" xlink:href="#DejaVuSans-54"/>
      </g>
     </g>
    </g>
    <g id="xtick_4">
     <g id="line2d_4">
      <g>
       <use style="stroke:#000000;stroke-width:0.8;" x="192.848369" xlink:href="#meb8b3ca248" y="288.430125"/>
      </g>
     </g>
     <g id="text_4">
      <!-- 2020-07 -->
      <g transform="translate(195.607744 337.212937)rotate(-90)scale(0.1 -0.1)">
       <defs>
        <path d="M 8.203125 72.90625 
L 55.078125 72.90625 
L 55.078125 68.703125 
L 28.609375 0 
L 18.3125 0 
L 43.21875 64.59375 
L 8.203125 64.59375 
z
" id="DejaVuSans-55"/>
       </defs>
       <use xlink:href="#DejaVuSans-50"/>
       <use x="63.623047" xlink:href="#DejaVuSans-48"/>
       <use x="127.246094" xlink:href="#DejaVuSans-50"/>
       <use x="190.869141" xlink:href="#DejaVuSans-48"/>
       <use x="254.492188" xlink:href="#DejaVuSans-45"/>
       <use x="290.576172" xlink:href="#DejaVuSans-48"/>
       <use x="354.199219" xlink:href="#DejaVuSans-55"/>
      </g>
     </g>
    </g>
    <g id="xtick_5">
     <g id="line2d_5">
      <g>
       <use style="stroke:#000000;stroke-width:0.8;" x="232.814867" xlink:href="#meb8b3ca248" y="288.430125"/>
      </g>
     </g>
     <g id="text_5">
      <!-- 2020-08 -->
      <g transform="translate(235.574242 337.212937)rotate(-90)scale(0.1 -0.1)">
       <defs>
        <path d="M 31.78125 34.625 
Q 24.75 34.625 20.71875 30.859375 
Q 16.703125 27.09375 16.703125 20.515625 
Q 16.703125 13.921875 20.71875 10.15625 
Q 24.75 6.390625 31.78125 6.390625 
Q 38.8125 6.390625 42.859375 10.171875 
Q 46.921875 13.96875 46.921875 20.515625 
Q 46.921875 27.09375 42.890625 30.859375 
Q 38.875 34.625 31.78125 34.625 
z
M 21.921875 38.8125 
Q 15.578125 40.375 12.03125 44.71875 
Q 8.5 49.078125 8.5 55.328125 
Q 8.5 64.0625 14.71875 69.140625 
Q 20.953125 74.21875 31.78125 74.21875 
Q 42.671875 74.21875 48.875 69.140625 
Q 55.078125 64.0625 55.078125 55.328125 
Q 55.078125 49.078125 51.53125 44.71875 
Q 48 40.375 41.703125 38.8125 
Q 48.828125 37.15625 52.796875 32.3125 
Q 56.78125 27.484375 56.78125 20.515625 
Q 56.78125 9.90625 50.3125 4.234375 
Q 43.84375 -1.421875 31.78125 -1.421875 
Q 19.734375 -1.421875 13.25 4.234375 
Q 6.78125 9.90625 6.78125 20.515625 
Q 6.78125 27.484375 10.78125 32.3125 
Q 14.796875 37.15625 21.921875 38.8125 
z
M 18.3125 54.390625 
Q 18.3125 48.734375 21.84375 45.5625 
Q 25.390625 42.390625 31.78125 42.390625 
Q 38.140625 42.390625 41.71875 45.5625 
Q 45.3125 48.734375 45.3125 54.390625 
Q 45.3125 60.0625 41.71875 63.234375 
Q 38.140625 66.40625 31.78125 66.40625 
Q 25.390625 66.40625 21.84375 63.234375 
Q 18.3125 60.0625 18.3125 54.390625 
z
" id="DejaVuSans-56"/>
       </defs>
       <use xlink:href="#DejaVuSans-50"/>
       <use x="63.623047" xlink:href="#DejaVuSans-48"/>
       <use x="127.246094" xlink:href="#DejaVuSans-50"/>
       <use x="190.869141" xlink:href="#DejaVuSans-48"/>
       <use x="254.492188" xlink:href="#DejaVuSans-45"/>
       <use x="290.576172" xlink:href="#DejaVuSans-48"/>
       <use x="354.199219" xlink:href="#DejaVuSans-56"/>
      </g>
     </g>
    </g>
    <g id="xtick_6">
     <g id="line2d_6">
      <g>
       <use style="stroke:#000000;stroke-width:0.8;" x="272.781365" xlink:href="#meb8b3ca248" y="288.430125"/>
      </g>
     </g>
     <g id="text_6">
      <!-- 2020-09 -->
      <g transform="translate(275.54074 337.212937)rotate(-90)scale(0.1 -0.1)">
       <defs>
        <path d="M 10.984375 1.515625 
L 10.984375 10.5 
Q 14.703125 8.734375 18.5 7.8125 
Q 22.3125 6.890625 25.984375 6.890625 
Q 35.75 6.890625 40.890625 13.453125 
Q 46.046875 20.015625 46.78125 33.40625 
Q 43.953125 29.203125 39.59375 26.953125 
Q 35.25 24.703125 29.984375 24.703125 
Q 19.046875 24.703125 12.671875 31.3125 
Q 6.296875 37.9375 6.296875 49.421875 
Q 6.296875 60.640625 12.9375 67.421875 
Q 19.578125 74.21875 30.609375 74.21875 
Q 43.265625 74.21875 49.921875 64.515625 
Q 56.59375 54.828125 56.59375 36.375 
Q 56.59375 19.140625 48.40625 8.859375 
Q 40.234375 -1.421875 26.421875 -1.421875 
Q 22.703125 -1.421875 18.890625 -0.6875 
Q 15.09375 0.046875 10.984375 1.515625 
z
M 30.609375 32.421875 
Q 37.25 32.421875 41.125 36.953125 
Q 45.015625 41.5 45.015625 49.421875 
Q 45.015625 57.28125 41.125 61.84375 
Q 37.25 66.40625 30.609375 66.40625 
Q 23.96875 66.40625 20.09375 61.84375 
Q 16.21875 57.28125 16.21875 49.421875 
Q 16.21875 41.5 20.09375 36.953125 
Q 23.96875 32.421875 30.609375 32.421875 
z
" id="DejaVuSans-57"/>
       </defs>
       <use xlink:href="#DejaVuSans-50"/>
       <use x="63.623047" xlink:href="#DejaVuSans-48"/>
       <use x="127.246094" xlink:href="#DejaVuSans-50"/>
       <use x="190.869141" xlink:href="#DejaVuSans-48"/>
       <use x="254.492188" xlink:href="#DejaVuSans-45"/>
       <use x="290.576172" xlink:href="#DejaVuSans-48"/>
       <use x="354.199219" xlink:href="#DejaVuSans-57"/>
      </g>
     </g>
    </g>
    <g id="xtick_7">
     <g id="line2d_7">
      <g>
       <use style="stroke:#000000;stroke-width:0.8;" x="311.458621" xlink:href="#meb8b3ca248" y="288.430125"/>
      </g>
     </g>
     <g id="text_7">
      <!-- 2020-10 -->
      <g transform="translate(314.217996 337.212937)rotate(-90)scale(0.1 -0.1)">
       <defs>
        <path d="M 12.40625 8.296875 
L 28.515625 8.296875 
L 28.515625 63.921875 
L 10.984375 60.40625 
L 10.984375 69.390625 
L 28.421875 72.90625 
L 38.28125 72.90625 
L 38.28125 8.296875 
L 54.390625 8.296875 
L 54.390625 0 
L 12.40625 0 
z
" id="DejaVuSans-49"/>
       </defs>
       <use xlink:href="#DejaVuSans-50"/>
       <use x="63.623047" xlink:href="#DejaVuSans-48"/>
       <use x="127.246094" xlink:href="#DejaVuSans-50"/>
       <use x="190.869141" xlink:href="#DejaVuSans-48"/>
       <use x="254.492188" xlink:href="#DejaVuSans-45"/>
       <use x="290.576172" xlink:href="#DejaVuSans-49"/>
       <use x="354.199219" xlink:href="#DejaVuSans-48"/>
      </g>
     </g>
    </g>
    <g id="xtick_8">
     <g id="line2d_8">
      <g>
       <use style="stroke:#000000;stroke-width:0.8;" x="351.42512" xlink:href="#meb8b3ca248" y="288.430125"/>
      </g>
     </g>
     <g id="text_8">
      <!-- 2020-11 -->
      <g transform="translate(354.184495 337.212937)rotate(-90)scale(0.1 -0.1)">
       <use xlink:href="#DejaVuSans-50"/>
       <use x="63.623047" xlink:href="#DejaVuSans-48"/>
       <use x="127.246094" xlink:href="#DejaVuSans-50"/>
       <use x="190.869141" xlink:href="#DejaVuSans-48"/>
       <use x="254.492188" xlink:href="#DejaVuSans-45"/>
       <use x="290.576172" xlink:href="#DejaVuSans-49"/>
       <use x="354.199219" xlink:href="#DejaVuSans-49"/>
      </g>
     </g>
    </g>
    <g id="xtick_9">
     <g id="line2d_9">
      <g>
       <use style="stroke:#000000;stroke-width:0.8;" x="390.102376" xlink:href="#meb8b3ca248" y="288.430125"/>
      </g>
     </g>
     <g id="text_9">
      <!-- 2020-12 -->
      <g transform="translate(392.861751 337.212937)rotate(-90)scale(0.1 -0.1)">
       <use xlink:href="#DejaVuSans-50"/>
       <use x="63.623047" xlink:href="#DejaVuSans-48"/>
       <use x="127.246094" xlink:href="#DejaVuSans-50"/>
       <use x="190.869141" xlink:href="#DejaVuSans-48"/>
       <use x="254.492188" xlink:href="#DejaVuSans-45"/>
       <use x="290.576172" xlink:href="#DejaVuSans-49"/>
       <use x="354.199219" xlink:href="#DejaVuSans-50"/>
      </g>
     </g>
    </g>
    <g id="text_10">
     <!-- date -->
     <g transform="translate(220.250625 354.811375)scale(0.1 -0.1)">
      <defs>
       <path d="M 45.40625 46.390625 
L 45.40625 75.984375 
L 54.390625 75.984375 
L 54.390625 0 
L 45.40625 0 
L 45.40625 8.203125 
Q 42.578125 3.328125 38.25 0.953125 
Q 33.9375 -1.421875 27.875 -1.421875 
Q 17.96875 -1.421875 11.734375 6.484375 
Q 5.515625 14.40625 5.515625 27.296875 
Q 5.515625 40.1875 11.734375 48.09375 
Q 17.96875 56 27.875 56 
Q 33.9375 56 38.25 53.625 
Q 42.578125 51.265625 45.40625 46.390625 
z
M 14.796875 27.296875 
Q 14.796875 17.390625 18.875 11.75 
Q 22.953125 6.109375 30.078125 6.109375 
Q 37.203125 6.109375 41.296875 11.75 
Q 45.40625 17.390625 45.40625 27.296875 
Q 45.40625 37.203125 41.296875 42.84375 
Q 37.203125 48.484375 30.078125 48.484375 
Q 22.953125 48.484375 18.875 42.84375 
Q 14.796875 37.203125 14.796875 27.296875 
z
" id="DejaVuSans-100"/>
       <path d="M 34.28125 27.484375 
Q 23.390625 27.484375 19.1875 25 
Q 14.984375 22.515625 14.984375 16.5 
Q 14.984375 11.71875 18.140625 8.90625 
Q 21.296875 6.109375 26.703125 6.109375 
Q 34.1875 6.109375 38.703125 11.40625 
Q 43.21875 16.703125 43.21875 25.484375 
L 43.21875 27.484375 
z
M 52.203125 31.203125 
L 52.203125 0 
L 43.21875 0 
L 43.21875 8.296875 
Q 40.140625 3.328125 35.546875 0.953125 
Q 30.953125 -1.421875 24.3125 -1.421875 
Q 15.921875 -1.421875 10.953125 3.296875 
Q 6 8.015625 6 15.921875 
Q 6 25.140625 12.171875 29.828125 
Q 18.359375 34.515625 30.609375 34.515625 
L 43.21875 34.515625 
L 43.21875 35.40625 
Q 43.21875 41.609375 39.140625 45 
Q 35.0625 48.390625 27.6875 48.390625 
Q 23 48.390625 18.546875 47.265625 
Q 14.109375 46.140625 10.015625 43.890625 
L 10.015625 52.203125 
Q 14.9375 54.109375 19.578125 55.046875 
Q 24.21875 56 28.609375 56 
Q 40.484375 56 46.34375 49.84375 
Q 52.203125 43.703125 52.203125 31.203125 
z
" id="DejaVuSans-97"/>
       <path d="M 18.3125 70.21875 
L 18.3125 54.6875 
L 36.8125 54.6875 
L 36.8125 47.703125 
L 18.3125 47.703125 
L 18.3125 18.015625 
Q 18.3125 11.328125 20.140625 9.421875 
Q 21.96875 7.515625 27.59375 7.515625 
L 36.8125 7.515625 
L 36.8125 0 
L 27.59375 0 
Q 17.1875 0 13.234375 3.875 
Q 9.28125 7.765625 9.28125 18.015625 
L 9.28125 47.703125 
L 2.6875 47.703125 
L 2.6875 54.6875 
L 9.28125 54.6875 
L 9.28125 70.21875 
z
" id="DejaVuSans-116"/>
       <path d="M 56.203125 29.59375 
L 56.203125 25.203125 
L 14.890625 25.203125 
Q 15.484375 15.921875 20.484375 11.0625 
Q 25.484375 6.203125 34.421875 6.203125 
Q 39.59375 6.203125 44.453125 7.46875 
Q 49.3125 8.734375 54.109375 11.28125 
L 54.109375 2.78125 
Q 49.265625 0.734375 44.1875 -0.34375 
Q 39.109375 -1.421875 33.890625 -1.421875 
Q 20.796875 -1.421875 13.15625 6.1875 
Q 5.515625 13.8125 5.515625 26.8125 
Q 5.515625 40.234375 12.765625 48.109375 
Q 20.015625 56 32.328125 56 
Q 43.359375 56 49.78125 48.890625 
Q 56.203125 41.796875 56.203125 29.59375 
z
M 47.21875 32.234375 
Q 47.125 39.59375 43.09375 43.984375 
Q 39.0625 48.390625 32.421875 48.390625 
Q 24.90625 48.390625 20.390625 44.140625 
Q 15.875 39.890625 15.1875 32.171875 
z
" id="DejaVuSans-101"/>
      </defs>
      <use xlink:href="#DejaVuSans-100"/>
      <use x="63.476562" xlink:href="#DejaVuSans-97"/>
      <use x="124.755859" xlink:href="#DejaVuSans-116"/>
      <use x="163.964844" xlink:href="#DejaVuSans-101"/>
     </g>
    </g>
   </g>
   <g id="matplotlib.axis_2">
    <g id="ytick_1">
     <g id="line2d_10">
      <defs>
       <path d="M 0 0 
L -3.5 0 
" id="m44ec09fe78" style="stroke:#000000;stroke-width:0.8;"/>
      </defs>
      <g>
       <use style="stroke:#000000;stroke-width:0.8;" x="52.965625" xlink:href="#m44ec09fe78" y="288.430125"/>
      </g>
     </g>
     <g id="text_11">
      <!-- 0 -->
      <g transform="translate(39.603125 292.229344)scale(0.1 -0.1)">
       <use xlink:href="#DejaVuSans-48"/>
      </g>
     </g>
    </g>
    <g id="ytick_2">
     <g id="line2d_11">
      <g>
       <use style="stroke:#000000;stroke-width:0.8;" x="52.965625" xlink:href="#m44ec09fe78" y="248.592999"/>
      </g>
     </g>
     <g id="text_12">
      <!-- 100 -->
      <g transform="translate(26.878125 252.392218)scale(0.1 -0.1)">
       <use xlink:href="#DejaVuSans-49"/>
       <use x="63.623047" xlink:href="#DejaVuSans-48"/>
       <use x="127.246094" xlink:href="#DejaVuSans-48"/>
      </g>
     </g>
    </g>
    <g id="ytick_3">
     <g id="line2d_12">
      <g>
       <use style="stroke:#000000;stroke-width:0.8;" x="52.965625" xlink:href="#m44ec09fe78" y="208.755874"/>
      </g>
     </g>
     <g id="text_13">
      <!-- 200 -->
      <g transform="translate(26.878125 212.555092)scale(0.1 -0.1)">
       <use xlink:href="#DejaVuSans-50"/>
       <use x="63.623047" xlink:href="#DejaVuSans-48"/>
       <use x="127.246094" xlink:href="#DejaVuSans-48"/>
      </g>
     </g>
    </g>
    <g id="ytick_4">
     <g id="line2d_13">
      <g>
       <use style="stroke:#000000;stroke-width:0.8;" x="52.965625" xlink:href="#m44ec09fe78" y="168.918748"/>
      </g>
     </g>
     <g id="text_14">
      <!-- 300 -->
      <g transform="translate(26.878125 172.717967)scale(0.1 -0.1)">
       <defs>
        <path d="M 40.578125 39.3125 
Q 47.65625 37.796875 51.625 33 
Q 55.609375 28.21875 55.609375 21.1875 
Q 55.609375 10.40625 48.1875 4.484375 
Q 40.765625 -1.421875 27.09375 -1.421875 
Q 22.515625 -1.421875 17.65625 -0.515625 
Q 12.796875 0.390625 7.625 2.203125 
L 7.625 11.71875 
Q 11.71875 9.328125 16.59375 8.109375 
Q 21.484375 6.890625 26.8125 6.890625 
Q 36.078125 6.890625 40.9375 10.546875 
Q 45.796875 14.203125 45.796875 21.1875 
Q 45.796875 27.640625 41.28125 31.265625 
Q 36.765625 34.90625 28.71875 34.90625 
L 20.21875 34.90625 
L 20.21875 43.015625 
L 29.109375 43.015625 
Q 36.375 43.015625 40.234375 45.921875 
Q 44.09375 48.828125 44.09375 54.296875 
Q 44.09375 59.90625 40.109375 62.90625 
Q 36.140625 65.921875 28.71875 65.921875 
Q 24.65625 65.921875 20.015625 65.03125 
Q 15.375 64.15625 9.8125 62.3125 
L 9.8125 71.09375 
Q 15.4375 72.65625 20.34375 73.4375 
Q 25.25 74.21875 29.59375 74.21875 
Q 40.828125 74.21875 47.359375 69.109375 
Q 53.90625 64.015625 53.90625 55.328125 
Q 53.90625 49.265625 50.4375 45.09375 
Q 46.96875 40.921875 40.578125 39.3125 
z
" id="DejaVuSans-51"/>
       </defs>
       <use xlink:href="#DejaVuSans-51"/>
       <use x="63.623047" xlink:href="#DejaVuSans-48"/>
       <use x="127.246094" xlink:href="#DejaVuSans-48"/>
      </g>
     </g>
    </g>
    <g id="ytick_5">
     <g id="line2d_14">
      <g>
       <use style="stroke:#000000;stroke-width:0.8;" x="52.965625" xlink:href="#m44ec09fe78" y="129.081622"/>
      </g>
     </g>
     <g id="text_15">
      <!-- 400 -->
      <g transform="translate(26.878125 132.880841)scale(0.1 -0.1)">
       <use xlink:href="#DejaVuSans-52"/>
       <use x="63.623047" xlink:href="#DejaVuSans-48"/>
       <use x="127.246094" xlink:href="#DejaVuSans-48"/>
      </g>
     </g>
    </g>
    <g id="ytick_6">
     <g id="line2d_15">
      <g>
       <use style="stroke:#000000;stroke-width:0.8;" x="52.965625" xlink:href="#m44ec09fe78" y="89.244496"/>
      </g>
     </g>
     <g id="text_16">
      <!-- 500 -->
      <g transform="translate(26.878125 93.043715)scale(0.1 -0.1)">
       <use xlink:href="#DejaVuSans-53"/>
       <use x="63.623047" xlink:href="#DejaVuSans-48"/>
       <use x="127.246094" xlink:href="#DejaVuSans-48"/>
      </g>
     </g>
    </g>
    <g id="ytick_7">
     <g id="line2d_16">
      <g>
       <use style="stroke:#000000;stroke-width:0.8;" x="52.965625" xlink:href="#m44ec09fe78" y="49.407371"/>
      </g>
     </g>
     <g id="text_17">
      <!-- 600 -->
      <g transform="translate(26.878125 53.206589)scale(0.1 -0.1)">
       <use xlink:href="#DejaVuSans-54"/>
       <use x="63.623047" xlink:href="#DejaVuSans-48"/>
       <use x="127.246094" xlink:href="#DejaVuSans-48"/>
      </g>
     </g>
    </g>
    <g id="text_18">
     <!-- cumulative number of corona fatalities -->
     <g transform="translate(14.798438 252.560062)rotate(-90)scale(0.1 -0.1)">
      <defs>
       <path d="M 48.78125 52.59375 
L 48.78125 44.1875 
Q 44.96875 46.296875 41.140625 47.34375 
Q 37.3125 48.390625 33.40625 48.390625 
Q 24.65625 48.390625 19.8125 42.84375 
Q 14.984375 37.3125 14.984375 27.296875 
Q 14.984375 17.28125 19.8125 11.734375 
Q 24.65625 6.203125 33.40625 6.203125 
Q 37.3125 6.203125 41.140625 7.25 
Q 44.96875 8.296875 48.78125 10.40625 
L 48.78125 2.09375 
Q 45.015625 0.34375 40.984375 -0.53125 
Q 36.96875 -1.421875 32.421875 -1.421875 
Q 20.0625 -1.421875 12.78125 6.34375 
Q 5.515625 14.109375 5.515625 27.296875 
Q 5.515625 40.671875 12.859375 48.328125 
Q 20.21875 56 33.015625 56 
Q 37.15625 56 41.109375 55.140625 
Q 45.0625 54.296875 48.78125 52.59375 
z
" id="DejaVuSans-99"/>
       <path d="M 8.5 21.578125 
L 8.5 54.6875 
L 17.484375 54.6875 
L 17.484375 21.921875 
Q 17.484375 14.15625 20.5 10.265625 
Q 23.53125 6.390625 29.59375 6.390625 
Q 36.859375 6.390625 41.078125 11.03125 
Q 45.3125 15.671875 45.3125 23.6875 
L 45.3125 54.6875 
L 54.296875 54.6875 
L 54.296875 0 
L 45.3125 0 
L 45.3125 8.40625 
Q 42.046875 3.421875 37.71875 1 
Q 33.40625 -1.421875 27.6875 -1.421875 
Q 18.265625 -1.421875 13.375 4.4375 
Q 8.5 10.296875 8.5 21.578125 
z
M 31.109375 56 
z
" id="DejaVuSans-117"/>
       <path d="M 52 44.1875 
Q 55.375 50.25 60.0625 53.125 
Q 64.75 56 71.09375 56 
Q 79.640625 56 84.28125 50.015625 
Q 88.921875 44.046875 88.921875 33.015625 
L 88.921875 0 
L 79.890625 0 
L 79.890625 32.71875 
Q 79.890625 40.578125 77.09375 44.375 
Q 74.3125 48.1875 68.609375 48.1875 
Q 61.625 48.1875 57.5625 43.546875 
Q 53.515625 38.921875 53.515625 30.90625 
L 53.515625 0 
L 44.484375 0 
L 44.484375 32.71875 
Q 44.484375 40.625 41.703125 44.40625 
Q 38.921875 48.1875 33.109375 48.1875 
Q 26.21875 48.1875 22.15625 43.53125 
Q 18.109375 38.875 18.109375 30.90625 
L 18.109375 0 
L 9.078125 0 
L 9.078125 54.6875 
L 18.109375 54.6875 
L 18.109375 46.1875 
Q 21.1875 51.21875 25.484375 53.609375 
Q 29.78125 56 35.6875 56 
Q 41.65625 56 45.828125 52.96875 
Q 50 49.953125 52 44.1875 
z
" id="DejaVuSans-109"/>
       <path d="M 9.421875 75.984375 
L 18.40625 75.984375 
L 18.40625 0 
L 9.421875 0 
z
" id="DejaVuSans-108"/>
       <path d="M 9.421875 54.6875 
L 18.40625 54.6875 
L 18.40625 0 
L 9.421875 0 
z
M 9.421875 75.984375 
L 18.40625 75.984375 
L 18.40625 64.59375 
L 9.421875 64.59375 
z
" id="DejaVuSans-105"/>
       <path d="M 2.984375 54.6875 
L 12.5 54.6875 
L 29.59375 8.796875 
L 46.6875 54.6875 
L 56.203125 54.6875 
L 35.6875 0 
L 23.484375 0 
z
" id="DejaVuSans-118"/>
       <path id="DejaVuSans-32"/>
       <path d="M 54.890625 33.015625 
L 54.890625 0 
L 45.90625 0 
L 45.90625 32.71875 
Q 45.90625 40.484375 42.875 44.328125 
Q 39.84375 48.1875 33.796875 48.1875 
Q 26.515625 48.1875 22.3125 43.546875 
Q 18.109375 38.921875 18.109375 30.90625 
L 18.109375 0 
L 9.078125 0 
L 9.078125 54.6875 
L 18.109375 54.6875 
L 18.109375 46.1875 
Q 21.34375 51.125 25.703125 53.5625 
Q 30.078125 56 35.796875 56 
Q 45.21875 56 50.046875 50.171875 
Q 54.890625 44.34375 54.890625 33.015625 
z
" id="DejaVuSans-110"/>
       <path d="M 48.6875 27.296875 
Q 48.6875 37.203125 44.609375 42.84375 
Q 40.53125 48.484375 33.40625 48.484375 
Q 26.265625 48.484375 22.1875 42.84375 
Q 18.109375 37.203125 18.109375 27.296875 
Q 18.109375 17.390625 22.1875 11.75 
Q 26.265625 6.109375 33.40625 6.109375 
Q 40.53125 6.109375 44.609375 11.75 
Q 48.6875 17.390625 48.6875 27.296875 
z
M 18.109375 46.390625 
Q 20.953125 51.265625 25.265625 53.625 
Q 29.59375 56 35.59375 56 
Q 45.5625 56 51.78125 48.09375 
Q 58.015625 40.1875 58.015625 27.296875 
Q 58.015625 14.40625 51.78125 6.484375 
Q 45.5625 -1.421875 35.59375 -1.421875 
Q 29.59375 -1.421875 25.265625 0.953125 
Q 20.953125 3.328125 18.109375 8.203125 
L 18.109375 0 
L 9.078125 0 
L 9.078125 75.984375 
L 18.109375 75.984375 
z
" id="DejaVuSans-98"/>
       <path d="M 41.109375 46.296875 
Q 39.59375 47.171875 37.8125 47.578125 
Q 36.03125 48 33.890625 48 
Q 26.265625 48 22.1875 43.046875 
Q 18.109375 38.09375 18.109375 28.8125 
L 18.109375 0 
L 9.078125 0 
L 9.078125 54.6875 
L 18.109375 54.6875 
L 18.109375 46.1875 
Q 20.953125 51.171875 25.484375 53.578125 
Q 30.03125 56 36.53125 56 
Q 37.453125 56 38.578125 55.875 
Q 39.703125 55.765625 41.0625 55.515625 
z
" id="DejaVuSans-114"/>
       <path d="M 30.609375 48.390625 
Q 23.390625 48.390625 19.1875 42.75 
Q 14.984375 37.109375 14.984375 27.296875 
Q 14.984375 17.484375 19.15625 11.84375 
Q 23.34375 6.203125 30.609375 6.203125 
Q 37.796875 6.203125 41.984375 11.859375 
Q 46.1875 17.53125 46.1875 27.296875 
Q 46.1875 37.015625 41.984375 42.703125 
Q 37.796875 48.390625 30.609375 48.390625 
z
M 30.609375 56 
Q 42.328125 56 49.015625 48.375 
Q 55.71875 40.765625 55.71875 27.296875 
Q 55.71875 13.875 49.015625 6.21875 
Q 42.328125 -1.421875 30.609375 -1.421875 
Q 18.84375 -1.421875 12.171875 6.21875 
Q 5.515625 13.875 5.515625 27.296875 
Q 5.515625 40.765625 12.171875 48.375 
Q 18.84375 56 30.609375 56 
z
" id="DejaVuSans-111"/>
       <path d="M 37.109375 75.984375 
L 37.109375 68.5 
L 28.515625 68.5 
Q 23.6875 68.5 21.796875 66.546875 
Q 19.921875 64.59375 19.921875 59.515625 
L 19.921875 54.6875 
L 34.71875 54.6875 
L 34.71875 47.703125 
L 19.921875 47.703125 
L 19.921875 0 
L 10.890625 0 
L 10.890625 47.703125 
L 2.296875 47.703125 
L 2.296875 54.6875 
L 10.890625 54.6875 
L 10.890625 58.5 
Q 10.890625 67.625 15.140625 71.796875 
Q 19.390625 75.984375 28.609375 75.984375 
z
" id="DejaVuSans-102"/>
       <path d="M 44.28125 53.078125 
L 44.28125 44.578125 
Q 40.484375 46.53125 36.375 47.5 
Q 32.28125 48.484375 27.875 48.484375 
Q 21.1875 48.484375 17.84375 46.4375 
Q 14.5 44.390625 14.5 40.28125 
Q 14.5 37.15625 16.890625 35.375 
Q 19.28125 33.59375 26.515625 31.984375 
L 29.59375 31.296875 
Q 39.15625 29.25 43.1875 25.515625 
Q 47.21875 21.78125 47.21875 15.09375 
Q 47.21875 7.46875 41.1875 3.015625 
Q 35.15625 -1.421875 24.609375 -1.421875 
Q 20.21875 -1.421875 15.453125 -0.5625 
Q 10.6875 0.296875 5.421875 2 
L 5.421875 11.28125 
Q 10.40625 8.6875 15.234375 7.390625 
Q 20.0625 6.109375 24.8125 6.109375 
Q 31.15625 6.109375 34.5625 8.28125 
Q 37.984375 10.453125 37.984375 14.40625 
Q 37.984375 18.0625 35.515625 20.015625 
Q 33.0625 21.96875 24.703125 23.78125 
L 21.578125 24.515625 
Q 13.234375 26.265625 9.515625 29.90625 
Q 5.8125 33.546875 5.8125 39.890625 
Q 5.8125 47.609375 11.28125 51.796875 
Q 16.75 56 26.8125 56 
Q 31.78125 56 36.171875 55.265625 
Q 40.578125 54.546875 44.28125 53.078125 
z
" id="DejaVuSans-115"/>
      </defs>
      <use xlink:href="#DejaVuSans-99"/>
      <use x="54.980469" xlink:href="#DejaVuSans-117"/>
      <use x="118.359375" xlink:href="#DejaVuSans-109"/>
      <use x="215.771484" xlink:href="#DejaVuSans-117"/>
      <use x="279.150391" xlink:href="#DejaVuSans-108"/>
      <use x="306.933594" xlink:href="#DejaVuSans-97"/>
      <use x="368.212891" xlink:href="#DejaVuSans-116"/>
      <use x="407.421875" xlink:href="#DejaVuSans-105"/>
      <use x="435.205078" xlink:href="#DejaVuSans-118"/>
      <use x="494.384766" xlink:href="#DejaVuSans-101"/>
      <use x="555.908203" xlink:href="#DejaVuSans-32"/>
      <use x="587.695312" xlink:href="#DejaVuSans-110"/>
      <use x="651.074219" xlink:href="#DejaVuSans-117"/>
      <use x="714.453125" xlink:href="#DejaVuSans-109"/>
      <use x="811.865234" xlink:href="#DejaVuSans-98"/>
      <use x="875.341797" xlink:href="#DejaVuSans-101"/>
      <use x="936.865234" xlink:href="#DejaVuSans-114"/>
      <use x="977.978516" xlink:href="#DejaVuSans-32"/>
      <use x="1009.765625" xlink:href="#DejaVuSans-111"/>
      <use x="1070.947266" xlink:href="#DejaVuSans-102"/>
      <use x="1106.152344" xlink:href="#DejaVuSans-32"/>
      <use x="1137.939453" xlink:href="#DejaVuSans-99"/>
      <use x="1192.919922" xlink:href="#DejaVuSans-111"/>
      <use x="1254.101562" xlink:href="#DejaVuSans-114"/>
      <use x="1292.964844" xlink:href="#DejaVuSans-111"/>
      <use x="1354.146484" xlink:href="#DejaVuSans-110"/>
      <use x="1417.525391" xlink:href="#DejaVuSans-97"/>
      <use x="1478.804688" xlink:href="#DejaVuSans-32"/>
      <use x="1510.591797" xlink:href="#DejaVuSans-102"/>
      <use x="1545.796875" xlink:href="#DejaVuSans-97"/>
      <use x="1607.076172" xlink:href="#DejaVuSans-116"/>
      <use x="1646.285156" xlink:href="#DejaVuSans-97"/>
      <use x="1707.564453" xlink:href="#DejaVuSans-108"/>
      <use x="1735.347656" xlink:href="#DejaVuSans-105"/>
      <use x="1763.130859" xlink:href="#DejaVuSans-116"/>
      <use x="1802.339844" xlink:href="#DejaVuSans-105"/>
      <use x="1830.123047" xlink:href="#DejaVuSans-101"/>
      <use x="1891.646484" xlink:href="#DejaVuSans-115"/>
     </g>
    </g>
   </g>
   <g id="patch_280">
    <path d="M 52.965625 288.430125 
L 52.965625 22.318125 
" style="fill:none;stroke:#000000;stroke-linecap:square;stroke-linejoin:miter;stroke-width:0.8;"/>
   </g>
   <g id="patch_281">
    <path d="M 52.965625 288.430125 
L 410.085625 288.430125 
" style="fill:none;stroke:#000000;stroke-linecap:square;stroke-linejoin:miter;stroke-width:0.8;"/>
   </g>
   <g id="text_19">
    <!-- South Tyrol -->
    <g transform="translate(198.233125 16.318125)scale(0.12 -0.12)">
     <defs>
      <path d="M 53.515625 70.515625 
L 53.515625 60.890625 
Q 47.90625 63.578125 42.921875 64.890625 
Q 37.9375 66.21875 33.296875 66.21875 
Q 25.25 66.21875 20.875 63.09375 
Q 16.5 59.96875 16.5 54.203125 
Q 16.5 49.359375 19.40625 46.890625 
Q 22.3125 44.4375 30.421875 42.921875 
L 36.375 41.703125 
Q 47.40625 39.59375 52.65625 34.296875 
Q 57.90625 29 57.90625 20.125 
Q 57.90625 9.515625 50.796875 4.046875 
Q 43.703125 -1.421875 29.984375 -1.421875 
Q 24.8125 -1.421875 18.96875 -0.25 
Q 13.140625 0.921875 6.890625 3.21875 
L 6.890625 13.375 
Q 12.890625 10.015625 18.65625 8.296875 
Q 24.421875 6.59375 29.984375 6.59375 
Q 38.421875 6.59375 43.015625 9.90625 
Q 47.609375 13.234375 47.609375 19.390625 
Q 47.609375 24.75 44.3125 27.78125 
Q 41.015625 30.8125 33.5 32.328125 
L 27.484375 33.5 
Q 16.453125 35.6875 11.515625 40.375 
Q 6.59375 45.0625 6.59375 53.421875 
Q 6.59375 63.09375 13.40625 68.65625 
Q 20.21875 74.21875 32.171875 74.21875 
Q 37.3125 74.21875 42.625 73.28125 
Q 47.953125 72.359375 53.515625 70.515625 
z
" id="DejaVuSans-83"/>
      <path d="M 54.890625 33.015625 
L 54.890625 0 
L 45.90625 0 
L 45.90625 32.71875 
Q 45.90625 40.484375 42.875 44.328125 
Q 39.84375 48.1875 33.796875 48.1875 
Q 26.515625 48.1875 22.3125 43.546875 
Q 18.109375 38.921875 18.109375 30.90625 
L 18.109375 0 
L 9.078125 0 
L 9.078125 75.984375 
L 18.109375 75.984375 
L 18.109375 46.1875 
Q 21.34375 51.125 25.703125 53.5625 
Q 30.078125 56 35.796875 56 
Q 45.21875 56 50.046875 50.171875 
Q 54.890625 44.34375 54.890625 33.015625 
z
" id="DejaVuSans-104"/>
      <path d="M -0.296875 72.90625 
L 61.375 72.90625 
L 61.375 64.59375 
L 35.5 64.59375 
L 35.5 0 
L 25.59375 0 
L 25.59375 64.59375 
L -0.296875 64.59375 
z
" id="DejaVuSans-84"/>
      <path d="M 32.171875 -5.078125 
Q 28.375 -14.84375 24.75 -17.8125 
Q 21.140625 -20.796875 15.09375 -20.796875 
L 7.90625 -20.796875 
L 7.90625 -13.28125 
L 13.1875 -13.28125 
Q 16.890625 -13.28125 18.9375 -11.515625 
Q 21 -9.765625 23.484375 -3.21875 
L 25.09375 0.875 
L 2.984375 54.6875 
L 12.5 54.6875 
L 29.59375 11.921875 
L 46.6875 54.6875 
L 56.203125 54.6875 
z
" id="DejaVuSans-121"/>
     </defs>
     <use xlink:href="#DejaVuSans-83"/>
     <use x="63.476562" xlink:href="#DejaVuSans-111"/>
     <use x="124.658203" xlink:href="#DejaVuSans-117"/>
     <use x="188.037109" xlink:href="#DejaVuSans-116"/>
     <use x="227.246094" xlink:href="#DejaVuSans-104"/>
     <use x="290.625" xlink:href="#DejaVuSans-32"/>
     <use x="322.412109" xlink:href="#DejaVuSans-84"/>
     <use x="367.871094" xlink:href="#DejaVuSans-121"/>
     <use x="427.050781" xlink:href="#DejaVuSans-114"/>
     <use x="465.914062" xlink:href="#DejaVuSans-111"/>
     <use x="527.095703" xlink:href="#DejaVuSans-108"/>
    </g>
   </g>
  </g>
 </g>
 <defs>
  <clipPath id="p2ae2090a95">
   <rect height="266.112" width="357.12" x="52.965625" y="22.318125"/>
  </clipPath>
 </defs>
</svg>
