<?xml version="1.0" encoding="utf-8" standalone="no"?>
<!DOCTYPE svg PUBLIC "-//W3C//DTD SVG 1.1//EN"
  "http://www.w3.org/Graphics/SVG/1.1/DTD/svg11.dtd">
<!-- Created with matplotlib (https://matplotlib.org/) -->
<svg height="364.091062pt" version="1.1" viewBox="0 0 417.285625 364.091062" width="417.285625pt" xmlns="http://www.w3.org/2000/svg" xmlns:xlink="http://www.w3.org/1999/xlink">
 <metadata>
  <rdf:RDF xmlns:cc="http://creativecommons.org/ns#" xmlns:dc="http://purl.org/dc/elements/1.1/" xmlns:rdf="http://www.w3.org/1999/02/22-rdf-syntax-ns#">
   <cc:Work>
    <dc:type rdf:resource="http://purl.org/dc/dcmitype/StillImage"/>
    <dc:date>2020-12-17T12:32:51.717402</dc:date>
    <dc:format>image/svg+xml</dc:format>
    <dc:creator>
     <cc:Agent>
      <dc:title>Matplotlib v3.3.3, https://matplotlib.org/</dc:title>
     </cc:Agent>
    </dc:creator>
   </cc:Work>
  </rdf:RDF>
 </metadata>
 <defs>
  <style type="text/css">*{stroke-linecap:butt;stroke-linejoin:round;}</style>
 </defs>
 <g id="figure_1">
  <g id="patch_1">
   <path d="M 0 364.091062 
L 417.285625 364.091062 
L 417.285625 0 
L 0 0 
z
" style="fill:#ffffff;"/>
  </g>
  <g id="axes_1">
   <g id="patch_2">
    <path d="M 52.965625 288.430125 
L 410.085625 288.430125 
L 410.085625 22.318125 
L 52.965625 22.318125 
z
" style="fill:#ffffff;"/>
   </g>
   <g id="patch_3">
    <path clip-path="url(#p7f096549fc)" d="M 53.094085 288.430125 
L 54.121769 288.430125 
L 54.121769 286.453067 
L 53.094085 286.453067 
z
" style="fill:#1f77b4;"/>
   </g>
   <g id="patch_4">
    <path clip-path="url(#p7f096549fc)" d="M 54.37869 288.430125 
L 55.406373 288.430125 
L 55.406373 286.057655 
L 54.37869 286.057655 
z
" style="fill:#1f77b4;"/>
   </g>
   <g id="patch_5">
    <path clip-path="url(#p7f096549fc)" d="M 55.663294 288.430125 
L 56.690978 288.430125 
L 56.690978 284.871421 
L 55.663294 284.871421 
z
" style="fill:#1f77b4;"/>
   </g>
   <g id="patch_6">
    <path clip-path="url(#p7f096549fc)" d="M 56.947898 288.430125 
L 57.975582 288.430125 
L 57.975582 283.685186 
L 56.947898 283.685186 
z
" style="fill:#1f77b4;"/>
   </g>
   <g id="patch_7">
    <path clip-path="url(#p7f096549fc)" d="M 58.232503 288.430125 
L 59.260186 288.430125 
L 59.260186 282.10354 
L 58.232503 282.10354 
z
" style="fill:#1f77b4;"/>
   </g>
   <g id="patch_8">
    <path clip-path="url(#p7f096549fc)" d="M 59.517107 288.430125 
L 60.54479 288.430125 
L 60.54479 280.917305 
L 59.517107 280.917305 
z
" style="fill:#1f77b4;"/>
   </g>
   <g id="patch_9">
    <path clip-path="url(#p7f096549fc)" d="M 60.801711 288.430125 
L 61.829395 288.430125 
L 61.829395 278.940247 
L 60.801711 278.940247 
z
" style="fill:#1f77b4;"/>
   </g>
   <g id="patch_10">
    <path clip-path="url(#p7f096549fc)" d="M 62.086316 288.430125 
L 63.113999 288.430125 
L 63.113999 276.172366 
L 62.086316 276.172366 
z
" style="fill:#1f77b4;"/>
   </g>
   <g id="patch_11">
    <path clip-path="url(#p7f096549fc)" d="M 63.37092 288.430125 
L 64.398603 288.430125 
L 64.398603 274.590719 
L 63.37092 274.590719 
z
" style="fill:#1f77b4;"/>
   </g>
   <g id="patch_12">
    <path clip-path="url(#p7f096549fc)" d="M 64.655524 288.430125 
L 65.683208 288.430125 
L 65.683208 271.032015 
L 64.655524 271.032015 
z
" style="fill:#1f77b4;"/>
   </g>
   <g id="patch_13">
    <path clip-path="url(#p7f096549fc)" d="M 65.940129 288.430125 
L 66.967812 288.430125 
L 66.967812 270.636603 
L 65.940129 270.636603 
z
" style="fill:#1f77b4;"/>
   </g>
   <g id="patch_14">
    <path clip-path="url(#p7f096549fc)" d="M 67.224733 288.430125 
L 68.252416 288.430125 
L 68.252416 267.473311 
L 67.224733 267.473311 
z
" style="fill:#1f77b4;"/>
   </g>
   <g id="patch_15">
    <path clip-path="url(#p7f096549fc)" d="M 68.509337 288.430125 
L 69.537021 288.430125 
L 69.537021 264.70543 
L 68.509337 264.70543 
z
" style="fill:#1f77b4;"/>
   </g>
   <g id="patch_16">
    <path clip-path="url(#p7f096549fc)" d="M 69.793942 288.430125 
L 70.821625 288.430125 
L 70.821625 263.123783 
L 69.793942 263.123783 
z
" style="fill:#1f77b4;"/>
   </g>
   <g id="patch_17">
    <path clip-path="url(#p7f096549fc)" d="M 71.078546 288.430125 
L 72.106229 288.430125 
L 72.106229 260.355902 
L 71.078546 260.355902 
z
" style="fill:#1f77b4;"/>
   </g>
   <g id="patch_18">
    <path clip-path="url(#p7f096549fc)" d="M 72.36315 288.430125 
L 73.390834 288.430125 
L 73.390834 259.169667 
L 72.36315 259.169667 
z
" style="fill:#1f77b4;"/>
   </g>
   <g id="patch_19">
    <path clip-path="url(#p7f096549fc)" d="M 73.647754 288.430125 
L 74.675438 288.430125 
L 74.675438 244.93485 
L 73.647754 244.93485 
z
" style="fill:#1f77b4;"/>
   </g>
   <g id="patch_20">
    <path clip-path="url(#p7f096549fc)" d="M 74.932359 288.430125 
L 75.960042 288.430125 
L 75.960042 240.980734 
L 74.932359 240.980734 
z
" style="fill:#1f77b4;"/>
   </g>
   <g id="patch_21">
    <path clip-path="url(#p7f096549fc)" d="M 76.216963 288.430125 
L 77.244647 288.430125 
L 77.244647 237.817441 
L 76.216963 237.817441 
z
" style="fill:#1f77b4;"/>
   </g>
   <g id="patch_22">
    <path clip-path="url(#p7f096549fc)" d="M 77.501567 288.430125 
L 78.529251 288.430125 
L 78.529251 232.281679 
L 77.501567 232.281679 
z
" style="fill:#1f77b4;"/>
   </g>
   <g id="patch_23">
    <path clip-path="url(#p7f096549fc)" d="M 78.786172 288.430125 
L 79.813855 288.430125 
L 79.813855 230.700033 
L 78.786172 230.700033 
z
" style="fill:#1f77b4;"/>
   </g>
   <g id="patch_24">
    <path clip-path="url(#p7f096549fc)" d="M 80.070776 288.430125 
L 81.09846 288.430125 
L 81.09846 226.745917 
L 80.070776 226.745917 
z
" style="fill:#1f77b4;"/>
   </g>
   <g id="patch_25">
    <path clip-path="url(#p7f096549fc)" d="M 81.35538 288.430125 
L 82.383064 288.430125 
L 82.383064 223.582624 
L 81.35538 223.582624 
z
" style="fill:#1f77b4;"/>
   </g>
   <g id="patch_26">
    <path clip-path="url(#p7f096549fc)" d="M 82.639985 288.430125 
L 83.667668 288.430125 
L 83.667668 220.419332 
L 82.639985 220.419332 
z
" style="fill:#1f77b4;"/>
   </g>
   <g id="patch_27">
    <path clip-path="url(#p7f096549fc)" d="M 83.924589 288.430125 
L 84.952272 288.430125 
L 84.952272 218.046862 
L 83.924589 218.046862 
z
" style="fill:#1f77b4;"/>
   </g>
   <g id="patch_28">
    <path clip-path="url(#p7f096549fc)" d="M 85.209193 288.430125 
L 86.236877 288.430125 
L 86.236877 214.488158 
L 85.209193 214.488158 
z
" style="fill:#1f77b4;"/>
   </g>
   <g id="patch_29">
    <path clip-path="url(#p7f096549fc)" d="M 86.493798 288.430125 
L 87.521481 288.430125 
L 87.521481 212.5111 
L 86.493798 212.5111 
z
" style="fill:#1f77b4;"/>
   </g>
   <g id="patch_30">
    <path clip-path="url(#p7f096549fc)" d="M 87.778402 288.430125 
L 88.806085 288.430125 
L 88.806085 209.347807 
L 87.778402 209.347807 
z
" style="fill:#1f77b4;"/>
   </g>
   <g id="patch_31">
    <path clip-path="url(#p7f096549fc)" d="M 89.063006 288.430125 
L 90.09069 288.430125 
L 90.09069 207.766161 
L 89.063006 207.766161 
z
" style="fill:#1f77b4;"/>
   </g>
   <g id="patch_32">
    <path clip-path="url(#p7f096549fc)" d="M 90.347611 288.430125 
L 91.375294 288.430125 
L 91.375294 203.416633 
L 90.347611 203.416633 
z
" style="fill:#1f77b4;"/>
   </g>
   <g id="patch_33">
    <path clip-path="url(#p7f096549fc)" d="M 91.632215 288.430125 
L 92.659898 288.430125 
L 92.659898 202.62581 
L 91.632215 202.62581 
z
" style="fill:#1f77b4;"/>
   </g>
   <g id="patch_34">
    <path clip-path="url(#p7f096549fc)" d="M 92.916819 288.430125 
L 93.944503 288.430125 
L 93.944503 201.044164 
L 92.916819 201.044164 
z
" style="fill:#1f77b4;"/>
   </g>
   <g id="patch_35">
    <path clip-path="url(#p7f096549fc)" d="M 94.201424 288.430125 
L 95.229107 288.430125 
L 95.229107 198.276283 
L 94.201424 198.276283 
z
" style="fill:#1f77b4;"/>
   </g>
   <g id="patch_36">
    <path clip-path="url(#p7f096549fc)" d="M 95.486028 288.430125 
L 96.513711 288.430125 
L 96.513711 196.694636 
L 95.486028 196.694636 
z
" style="fill:#1f77b4;"/>
   </g>
   <g id="patch_37">
    <path clip-path="url(#p7f096549fc)" d="M 96.770632 288.430125 
L 97.798316 288.430125 
L 97.798316 193.926755 
L 96.770632 193.926755 
z
" style="fill:#1f77b4;"/>
   </g>
   <g id="patch_38">
    <path clip-path="url(#p7f096549fc)" d="M 98.055237 288.430125 
L 99.08292 288.430125 
L 99.08292 191.554285 
L 98.055237 191.554285 
z
" style="fill:#1f77b4;"/>
   </g>
   <g id="patch_39">
    <path clip-path="url(#p7f096549fc)" d="M 99.339841 288.430125 
L 100.367524 288.430125 
L 100.367524 189.972639 
L 99.339841 189.972639 
z
" style="fill:#1f77b4;"/>
   </g>
   <g id="patch_40">
    <path clip-path="url(#p7f096549fc)" d="M 100.624445 288.430125 
L 101.652129 288.430125 
L 101.652129 188.786404 
L 100.624445 188.786404 
z
" style="fill:#1f77b4;"/>
   </g>
   <g id="patch_41">
    <path clip-path="url(#p7f096549fc)" d="M 101.909049 288.430125 
L 102.936733 288.430125 
L 102.936733 187.204758 
L 101.909049 187.204758 
z
" style="fill:#1f77b4;"/>
   </g>
   <g id="patch_42">
    <path clip-path="url(#p7f096549fc)" d="M 103.193654 288.430125 
L 104.221337 288.430125 
L 104.221337 185.2277 
L 103.193654 185.2277 
z
" style="fill:#1f77b4;"/>
   </g>
   <g id="patch_43">
    <path clip-path="url(#p7f096549fc)" d="M 104.478258 288.430125 
L 105.505942 288.430125 
L 105.505942 184.436877 
L 104.478258 184.436877 
z
" style="fill:#1f77b4;"/>
   </g>
   <g id="patch_44">
    <path clip-path="url(#p7f096549fc)" d="M 105.762862 288.430125 
L 106.790546 288.430125 
L 106.790546 183.646054 
L 105.762862 183.646054 
z
" style="fill:#1f77b4;"/>
   </g>
   <g id="patch_45">
    <path clip-path="url(#p7f096549fc)" d="M 107.047467 288.430125 
L 108.07515 288.430125 
L 108.07515 182.064407 
L 107.047467 182.064407 
z
" style="fill:#1f77b4;"/>
   </g>
   <g id="patch_46">
    <path clip-path="url(#p7f096549fc)" d="M 108.332071 288.430125 
L 109.359754 288.430125 
L 109.359754 181.668996 
L 108.332071 181.668996 
z
" style="fill:#1f77b4;"/>
   </g>
   <g id="patch_47">
    <path clip-path="url(#p7f096549fc)" d="M 109.616675 288.430125 
L 110.644359 288.430125 
L 110.644359 180.878173 
L 109.616675 180.878173 
z
" style="fill:#1f77b4;"/>
   </g>
   <g id="patch_48">
    <path clip-path="url(#p7f096549fc)" d="M 110.90128 288.430125 
L 111.928963 288.430125 
L 111.928963 180.087349 
L 110.90128 180.087349 
z
" style="fill:#1f77b4;"/>
   </g>
   <g id="patch_49">
    <path clip-path="url(#p7f096549fc)" d="M 112.185884 288.430125 
L 113.213567 288.430125 
L 113.213567 179.691938 
L 112.185884 179.691938 
z
" style="fill:#1f77b4;"/>
   </g>
   <g id="patch_50">
    <path clip-path="url(#p7f096549fc)" d="M 113.470488 288.430125 
L 114.498172 288.430125 
L 114.498172 178.505703 
L 113.470488 178.505703 
z
" style="fill:#1f77b4;"/>
   </g>
   <g id="patch_51">
    <path clip-path="url(#p7f096549fc)" d="M 114.755093 288.430125 
L 115.782776 288.430125 
L 115.782776 178.110291 
L 114.755093 178.110291 
z
" style="fill:#1f77b4;"/>
   </g>
   <g id="patch_52">
    <path clip-path="url(#p7f096549fc)" d="M 116.039697 288.430125 
L 117.06738 288.430125 
L 117.06738 177.319468 
L 116.039697 177.319468 
z
" style="fill:#1f77b4;"/>
   </g>
   <g id="patch_53">
    <path clip-path="url(#p7f096549fc)" d="M 117.324301 288.430125 
L 118.351985 288.430125 
L 118.351985 176.133233 
L 117.324301 176.133233 
z
" style="fill:#1f77b4;"/>
   </g>
   <g id="patch_54">
    <path clip-path="url(#p7f096549fc)" d="M 118.608906 288.430125 
L 119.636589 288.430125 
L 119.636589 175.34241 
L 118.608906 175.34241 
z
" style="fill:#1f77b4;"/>
   </g>
   <g id="patch_55">
    <path clip-path="url(#p7f096549fc)" d="M 119.89351 288.430125 
L 120.921193 288.430125 
L 120.921193 175.34241 
L 119.89351 175.34241 
z
" style="fill:#1f77b4;"/>
   </g>
   <g id="patch_56">
    <path clip-path="url(#p7f096549fc)" d="M 121.178114 288.430125 
L 122.205798 288.430125 
L 122.205798 175.34241 
L 121.178114 175.34241 
z
" style="fill:#1f77b4;"/>
   </g>
   <g id="patch_57">
    <path clip-path="url(#p7f096549fc)" d="M 122.462719 288.430125 
L 123.490402 288.430125 
L 123.490402 174.156176 
L 122.462719 174.156176 
z
" style="fill:#1f77b4;"/>
   </g>
   <g id="patch_58">
    <path clip-path="url(#p7f096549fc)" d="M 123.747323 288.430125 
L 124.775006 288.430125 
L 124.775006 173.760764 
L 123.747323 173.760764 
z
" style="fill:#1f77b4;"/>
   </g>
   <g id="patch_59">
    <path clip-path="url(#p7f096549fc)" d="M 125.031927 288.430125 
L 126.059611 288.430125 
L 126.059611 173.760764 
L 125.031927 173.760764 
z
" style="fill:#1f77b4;"/>
   </g>
   <g id="patch_60">
    <path clip-path="url(#p7f096549fc)" d="M 126.316531 288.430125 
L 127.344215 288.430125 
L 127.344215 173.760764 
L 126.316531 173.760764 
z
" style="fill:#1f77b4;"/>
   </g>
   <g id="patch_61">
    <path clip-path="url(#p7f096549fc)" d="M 127.601136 288.430125 
L 128.628819 288.430125 
L 128.628819 173.760764 
L 127.601136 173.760764 
z
" style="fill:#1f77b4;"/>
   </g>
   <g id="patch_62">
    <path clip-path="url(#p7f096549fc)" d="M 128.88574 288.430125 
L 129.913424 288.430125 
L 129.913424 173.760764 
L 128.88574 173.760764 
z
" style="fill:#1f77b4;"/>
   </g>
   <g id="patch_63">
    <path clip-path="url(#p7f096549fc)" d="M 130.170344 288.430125 
L 131.198028 288.430125 
L 131.198028 173.760764 
L 130.170344 173.760764 
z
" style="fill:#1f77b4;"/>
   </g>
   <g id="patch_64">
    <path clip-path="url(#p7f096549fc)" d="M 131.454949 288.430125 
L 132.482632 288.430125 
L 132.482632 173.760764 
L 131.454949 173.760764 
z
" style="fill:#1f77b4;"/>
   </g>
   <g id="patch_65">
    <path clip-path="url(#p7f096549fc)" d="M 132.739553 288.430125 
L 133.767237 288.430125 
L 133.767237 173.760764 
L 132.739553 173.760764 
z
" style="fill:#1f77b4;"/>
   </g>
   <g id="patch_66">
    <path clip-path="url(#p7f096549fc)" d="M 134.024157 288.430125 
L 135.051841 288.430125 
L 135.051841 173.760764 
L 134.024157 173.760764 
z
" style="fill:#1f77b4;"/>
   </g>
   <g id="patch_67">
    <path clip-path="url(#p7f096549fc)" d="M 135.308762 288.430125 
L 136.336445 288.430125 
L 136.336445 173.365352 
L 135.308762 173.365352 
z
" style="fill:#1f77b4;"/>
   </g>
   <g id="patch_68">
    <path clip-path="url(#p7f096549fc)" d="M 136.593366 288.430125 
L 137.621049 288.430125 
L 137.621049 173.365352 
L 136.593366 173.365352 
z
" style="fill:#1f77b4;"/>
   </g>
   <g id="patch_69">
    <path clip-path="url(#p7f096549fc)" d="M 137.87797 288.430125 
L 138.905654 288.430125 
L 138.905654 173.365352 
L 137.87797 173.365352 
z
" style="fill:#1f77b4;"/>
   </g>
   <g id="patch_70">
    <path clip-path="url(#p7f096549fc)" d="M 139.162575 288.430125 
L 140.190258 288.430125 
L 140.190258 173.365352 
L 139.162575 173.365352 
z
" style="fill:#1f77b4;"/>
   </g>
   <g id="patch_71">
    <path clip-path="url(#p7f096549fc)" d="M 140.447179 288.430125 
L 141.474862 288.430125 
L 141.474862 173.365352 
L 140.447179 173.365352 
z
" style="fill:#1f77b4;"/>
   </g>
   <g id="patch_72">
    <path clip-path="url(#p7f096549fc)" d="M 141.731783 288.430125 
L 142.759467 288.430125 
L 142.759467 173.365352 
L 141.731783 173.365352 
z
" style="fill:#1f77b4;"/>
   </g>
   <g id="patch_73">
    <path clip-path="url(#p7f096549fc)" d="M 143.016388 288.430125 
L 144.044071 288.430125 
L 144.044071 173.365352 
L 143.016388 173.365352 
z
" style="fill:#1f77b4;"/>
   </g>
   <g id="patch_74">
    <path clip-path="url(#p7f096549fc)" d="M 144.300992 288.430125 
L 145.328675 288.430125 
L 145.328675 173.365352 
L 144.300992 173.365352 
z
" style="fill:#1f77b4;"/>
   </g>
   <g id="patch_75">
    <path clip-path="url(#p7f096549fc)" d="M 145.585596 288.430125 
L 146.61328 288.430125 
L 146.61328 173.365352 
L 145.585596 173.365352 
z
" style="fill:#1f77b4;"/>
   </g>
   <g id="patch_76">
    <path clip-path="url(#p7f096549fc)" d="M 146.870201 288.430125 
L 147.897884 288.430125 
L 147.897884 173.365352 
L 146.870201 173.365352 
z
" style="fill:#1f77b4;"/>
   </g>
   <g id="patch_77">
    <path clip-path="url(#p7f096549fc)" d="M 148.154805 288.430125 
L 149.182488 288.430125 
L 149.182488 173.365352 
L 148.154805 173.365352 
z
" style="fill:#1f77b4;"/>
   </g>
   <g id="patch_78">
    <path clip-path="url(#p7f096549fc)" d="M 149.439409 288.430125 
L 150.467093 288.430125 
L 150.467093 173.365352 
L 149.439409 173.365352 
z
" style="fill:#1f77b4;"/>
   </g>
   <g id="patch_79">
    <path clip-path="url(#p7f096549fc)" d="M 150.724013 288.430125 
L 151.751697 288.430125 
L 151.751697 173.365352 
L 150.724013 173.365352 
z
" style="fill:#1f77b4;"/>
   </g>
   <g id="patch_80">
    <path clip-path="url(#p7f096549fc)" d="M 152.008618 288.430125 
L 153.036301 288.430125 
L 153.036301 173.365352 
L 152.008618 173.365352 
z
" style="fill:#1f77b4;"/>
   </g>
   <g id="patch_81">
    <path clip-path="url(#p7f096549fc)" d="M 153.293222 288.430125 
L 154.320906 288.430125 
L 154.320906 173.365352 
L 153.293222 173.365352 
z
" style="fill:#1f77b4;"/>
   </g>
   <g id="patch_82">
    <path clip-path="url(#p7f096549fc)" d="M 154.577826 288.430125 
L 155.60551 288.430125 
L 155.60551 173.365352 
L 154.577826 173.365352 
z
" style="fill:#1f77b4;"/>
   </g>
   <g id="patch_83">
    <path clip-path="url(#p7f096549fc)" d="M 155.862431 288.430125 
L 156.890114 288.430125 
L 156.890114 173.365352 
L 155.862431 173.365352 
z
" style="fill:#1f77b4;"/>
   </g>
   <g id="patch_84">
    <path clip-path="url(#p7f096549fc)" d="M 157.147035 288.430125 
L 158.174719 288.430125 
L 158.174719 172.969941 
L 157.147035 172.969941 
z
" style="fill:#1f77b4;"/>
   </g>
   <g id="patch_85">
    <path clip-path="url(#p7f096549fc)" d="M 158.431639 288.430125 
L 159.459323 288.430125 
L 159.459323 172.969941 
L 158.431639 172.969941 
z
" style="fill:#1f77b4;"/>
   </g>
   <g id="patch_86">
    <path clip-path="url(#p7f096549fc)" d="M 159.716244 288.430125 
L 160.743927 288.430125 
L 160.743927 172.969941 
L 159.716244 172.969941 
z
" style="fill:#1f77b4;"/>
   </g>
   <g id="patch_87">
    <path clip-path="url(#p7f096549fc)" d="M 161.000848 288.430125 
L 162.028531 288.430125 
L 162.028531 172.969941 
L 161.000848 172.969941 
z
" style="fill:#1f77b4;"/>
   </g>
   <g id="patch_88">
    <path clip-path="url(#p7f096549fc)" d="M 162.285452 288.430125 
L 163.313136 288.430125 
L 163.313136 172.969941 
L 162.285452 172.969941 
z
" style="fill:#1f77b4;"/>
   </g>
   <g id="patch_89">
    <path clip-path="url(#p7f096549fc)" d="M 163.570057 288.430125 
L 164.59774 288.430125 
L 164.59774 172.969941 
L 163.570057 172.969941 
z
" style="fill:#1f77b4;"/>
   </g>
   <g id="patch_90">
    <path clip-path="url(#p7f096549fc)" d="M 164.854661 288.430125 
L 165.882344 288.430125 
L 165.882344 172.969941 
L 164.854661 172.969941 
z
" style="fill:#1f77b4;"/>
   </g>
   <g id="patch_91">
    <path clip-path="url(#p7f096549fc)" d="M 166.139265 288.430125 
L 167.166949 288.430125 
L 167.166949 172.969941 
L 166.139265 172.969941 
z
" style="fill:#1f77b4;"/>
   </g>
   <g id="patch_92">
    <path clip-path="url(#p7f096549fc)" d="M 167.42387 288.430125 
L 168.451553 288.430125 
L 168.451553 173.365352 
L 167.42387 173.365352 
z
" style="fill:#1f77b4;"/>
   </g>
   <g id="patch_93">
    <path clip-path="url(#p7f096549fc)" d="M 168.708474 288.430125 
L 169.736157 288.430125 
L 169.736157 173.365352 
L 168.708474 173.365352 
z
" style="fill:#1f77b4;"/>
   </g>
   <g id="patch_94">
    <path clip-path="url(#p7f096549fc)" d="M 169.993078 288.430125 
L 171.020762 288.430125 
L 171.020762 173.365352 
L 169.993078 173.365352 
z
" style="fill:#1f77b4;"/>
   </g>
   <g id="patch_95">
    <path clip-path="url(#p7f096549fc)" d="M 171.277683 288.430125 
L 172.305366 288.430125 
L 172.305366 172.969941 
L 171.277683 172.969941 
z
" style="fill:#1f77b4;"/>
   </g>
   <g id="patch_96">
    <path clip-path="url(#p7f096549fc)" d="M 172.562287 288.430125 
L 173.58997 288.430125 
L 173.58997 172.969941 
L 172.562287 172.969941 
z
" style="fill:#1f77b4;"/>
   </g>
   <g id="patch_97">
    <path clip-path="url(#p7f096549fc)" d="M 173.846891 288.430125 
L 174.874575 288.430125 
L 174.874575 172.969941 
L 173.846891 172.969941 
z
" style="fill:#1f77b4;"/>
   </g>
   <g id="patch_98">
    <path clip-path="url(#p7f096549fc)" d="M 175.131496 288.430125 
L 176.159179 288.430125 
L 176.159179 172.969941 
L 175.131496 172.969941 
z
" style="fill:#1f77b4;"/>
   </g>
   <g id="patch_99">
    <path clip-path="url(#p7f096549fc)" d="M 176.4161 288.430125 
L 177.443783 288.430125 
L 177.443783 172.969941 
L 176.4161 172.969941 
z
" style="fill:#1f77b4;"/>
   </g>
   <g id="patch_100">
    <path clip-path="url(#p7f096549fc)" d="M 177.700704 288.430125 
L 178.728388 288.430125 
L 178.728388 172.969941 
L 177.700704 172.969941 
z
" style="fill:#1f77b4;"/>
   </g>
   <g id="patch_101">
    <path clip-path="url(#p7f096549fc)" d="M 178.985308 288.430125 
L 180.012992 288.430125 
L 180.012992 172.969941 
L 178.985308 172.969941 
z
" style="fill:#1f77b4;"/>
   </g>
   <g id="patch_102">
    <path clip-path="url(#p7f096549fc)" d="M 180.269913 288.430125 
L 181.297596 288.430125 
L 181.297596 172.969941 
L 180.269913 172.969941 
z
" style="fill:#1f77b4;"/>
   </g>
   <g id="patch_103">
    <path clip-path="url(#p7f096549fc)" d="M 181.554517 288.430125 
L 182.582201 288.430125 
L 182.582201 172.969941 
L 181.554517 172.969941 
z
" style="fill:#1f77b4;"/>
   </g>
   <g id="patch_104">
    <path clip-path="url(#p7f096549fc)" d="M 182.839121 288.430125 
L 183.866805 288.430125 
L 183.866805 172.969941 
L 182.839121 172.969941 
z
" style="fill:#1f77b4;"/>
   </g>
   <g id="patch_105">
    <path clip-path="url(#p7f096549fc)" d="M 184.123726 288.430125 
L 185.151409 288.430125 
L 185.151409 172.969941 
L 184.123726 172.969941 
z
" style="fill:#1f77b4;"/>
   </g>
   <g id="patch_106">
    <path clip-path="url(#p7f096549fc)" d="M 185.40833 288.430125 
L 186.436013 288.430125 
L 186.436013 172.969941 
L 185.40833 172.969941 
z
" style="fill:#1f77b4;"/>
   </g>
   <g id="patch_107">
    <path clip-path="url(#p7f096549fc)" d="M 186.692934 288.430125 
L 187.720618 288.430125 
L 187.720618 172.969941 
L 186.692934 172.969941 
z
" style="fill:#1f77b4;"/>
   </g>
   <g id="patch_108">
    <path clip-path="url(#p7f096549fc)" d="M 187.977539 288.430125 
L 189.005222 288.430125 
L 189.005222 172.969941 
L 187.977539 172.969941 
z
" style="fill:#1f77b4;"/>
   </g>
   <g id="patch_109">
    <path clip-path="url(#p7f096549fc)" d="M 189.262143 288.430125 
L 190.289826 288.430125 
L 190.289826 172.969941 
L 189.262143 172.969941 
z
" style="fill:#1f77b4;"/>
   </g>
   <g id="patch_110">
    <path clip-path="url(#p7f096549fc)" d="M 190.546747 288.430125 
L 191.574431 288.430125 
L 191.574431 172.969941 
L 190.546747 172.969941 
z
" style="fill:#1f77b4;"/>
   </g>
   <g id="patch_111">
    <path clip-path="url(#p7f096549fc)" d="M 191.831352 288.430125 
L 192.859035 288.430125 
L 192.859035 172.969941 
L 191.831352 172.969941 
z
" style="fill:#1f77b4;"/>
   </g>
   <g id="patch_112">
    <path clip-path="url(#p7f096549fc)" d="M 193.115956 288.430125 
L 194.143639 288.430125 
L 194.143639 172.969941 
L 193.115956 172.969941 
z
" style="fill:#1f77b4;"/>
   </g>
   <g id="patch_113">
    <path clip-path="url(#p7f096549fc)" d="M 194.40056 288.430125 
L 195.428244 288.430125 
L 195.428244 172.969941 
L 194.40056 172.969941 
z
" style="fill:#1f77b4;"/>
   </g>
   <g id="patch_114">
    <path clip-path="url(#p7f096549fc)" d="M 195.685165 288.430125 
L 196.712848 288.430125 
L 196.712848 172.969941 
L 195.685165 172.969941 
z
" style="fill:#1f77b4;"/>
   </g>
   <g id="patch_115">
    <path clip-path="url(#p7f096549fc)" d="M 196.969769 288.430125 
L 197.997452 288.430125 
L 197.997452 172.969941 
L 196.969769 172.969941 
z
" style="fill:#1f77b4;"/>
   </g>
   <g id="patch_116">
    <path clip-path="url(#p7f096549fc)" d="M 198.254373 288.430125 
L 199.282057 288.430125 
L 199.282057 172.969941 
L 198.254373 172.969941 
z
" style="fill:#1f77b4;"/>
   </g>
   <g id="patch_117">
    <path clip-path="url(#p7f096549fc)" d="M 199.538978 288.430125 
L 200.566661 288.430125 
L 200.566661 172.969941 
L 199.538978 172.969941 
z
" style="fill:#1f77b4;"/>
   </g>
   <g id="patch_118">
    <path clip-path="url(#p7f096549fc)" d="M 200.823582 288.430125 
L 201.851265 288.430125 
L 201.851265 172.969941 
L 200.823582 172.969941 
z
" style="fill:#1f77b4;"/>
   </g>
   <g id="patch_119">
    <path clip-path="url(#p7f096549fc)" d="M 202.108186 288.430125 
L 203.13587 288.430125 
L 203.13587 172.969941 
L 202.108186 172.969941 
z
" style="fill:#1f77b4;"/>
   </g>
   <g id="patch_120">
    <path clip-path="url(#p7f096549fc)" d="M 203.39279 288.430125 
L 204.420474 288.430125 
L 204.420474 172.969941 
L 203.39279 172.969941 
z
" style="fill:#1f77b4;"/>
   </g>
   <g id="patch_121">
    <path clip-path="url(#p7f096549fc)" d="M 204.677395 288.430125 
L 205.705078 288.430125 
L 205.705078 172.969941 
L 204.677395 172.969941 
z
" style="fill:#1f77b4;"/>
   </g>
   <g id="patch_122">
    <path clip-path="url(#p7f096549fc)" d="M 205.961999 288.430125 
L 206.989683 288.430125 
L 206.989683 172.969941 
L 205.961999 172.969941 
z
" style="fill:#1f77b4;"/>
   </g>
   <g id="patch_123">
    <path clip-path="url(#p7f096549fc)" d="M 207.246603 288.430125 
L 208.274287 288.430125 
L 208.274287 172.969941 
L 207.246603 172.969941 
z
" style="fill:#1f77b4;"/>
   </g>
   <g id="patch_124">
    <path clip-path="url(#p7f096549fc)" d="M 208.531208 288.430125 
L 209.558891 288.430125 
L 209.558891 172.969941 
L 208.531208 172.969941 
z
" style="fill:#1f77b4;"/>
   </g>
   <g id="patch_125">
    <path clip-path="url(#p7f096549fc)" d="M 209.815812 288.430125 
L 210.843496 288.430125 
L 210.843496 172.969941 
L 209.815812 172.969941 
z
" style="fill:#1f77b4;"/>
   </g>
   <g id="patch_126">
    <path clip-path="url(#p7f096549fc)" d="M 211.100416 288.430125 
L 212.1281 288.430125 
L 212.1281 172.969941 
L 211.100416 172.969941 
z
" style="fill:#1f77b4;"/>
   </g>
   <g id="patch_127">
    <path clip-path="url(#p7f096549fc)" d="M 212.385021 288.430125 
L 213.412704 288.430125 
L 213.412704 172.969941 
L 212.385021 172.969941 
z
" style="fill:#1f77b4;"/>
   </g>
   <g id="patch_128">
    <path clip-path="url(#p7f096549fc)" d="M 213.669625 288.430125 
L 214.697308 288.430125 
L 214.697308 172.969941 
L 213.669625 172.969941 
z
" style="fill:#1f77b4;"/>
   </g>
   <g id="patch_129">
    <path clip-path="url(#p7f096549fc)" d="M 214.954229 288.430125 
L 215.981913 288.430125 
L 215.981913 172.969941 
L 214.954229 172.969941 
z
" style="fill:#1f77b4;"/>
   </g>
   <g id="patch_130">
    <path clip-path="url(#p7f096549fc)" d="M 216.238834 288.430125 
L 217.266517 288.430125 
L 217.266517 172.969941 
L 216.238834 172.969941 
z
" style="fill:#1f77b4;"/>
   </g>
   <g id="patch_131">
    <path clip-path="url(#p7f096549fc)" d="M 217.523438 288.430125 
L 218.551121 288.430125 
L 218.551121 172.969941 
L 217.523438 172.969941 
z
" style="fill:#1f77b4;"/>
   </g>
   <g id="patch_132">
    <path clip-path="url(#p7f096549fc)" d="M 218.808042 288.430125 
L 219.835726 288.430125 
L 219.835726 172.969941 
L 218.808042 172.969941 
z
" style="fill:#1f77b4;"/>
   </g>
   <g id="patch_133">
    <path clip-path="url(#p7f096549fc)" d="M 220.092647 288.430125 
L 221.12033 288.430125 
L 221.12033 172.969941 
L 220.092647 172.969941 
z
" style="fill:#1f77b4;"/>
   </g>
   <g id="patch_134">
    <path clip-path="url(#p7f096549fc)" d="M 221.377251 288.430125 
L 222.404934 288.430125 
L 222.404934 172.969941 
L 221.377251 172.969941 
z
" style="fill:#1f77b4;"/>
   </g>
   <g id="patch_135">
    <path clip-path="url(#p7f096549fc)" d="M 222.661855 288.430125 
L 223.689539 288.430125 
L 223.689539 172.969941 
L 222.661855 172.969941 
z
" style="fill:#1f77b4;"/>
   </g>
   <g id="patch_136">
    <path clip-path="url(#p7f096549fc)" d="M 223.94646 288.430125 
L 224.974143 288.430125 
L 224.974143 172.969941 
L 223.94646 172.969941 
z
" style="fill:#1f77b4;"/>
   </g>
   <g id="patch_137">
    <path clip-path="url(#p7f096549fc)" d="M 225.231064 288.430125 
L 226.258747 288.430125 
L 226.258747 172.969941 
L 225.231064 172.969941 
z
" style="fill:#1f77b4;"/>
   </g>
   <g id="patch_138">
    <path clip-path="url(#p7f096549fc)" d="M 226.515668 288.430125 
L 227.543352 288.430125 
L 227.543352 172.969941 
L 226.515668 172.969941 
z
" style="fill:#1f77b4;"/>
   </g>
   <g id="patch_139">
    <path clip-path="url(#p7f096549fc)" d="M 227.800272 288.430125 
L 228.827956 288.430125 
L 228.827956 172.969941 
L 227.800272 172.969941 
z
" style="fill:#1f77b4;"/>
   </g>
   <g id="patch_140">
    <path clip-path="url(#p7f096549fc)" d="M 229.084877 288.430125 
L 230.11256 288.430125 
L 230.11256 172.969941 
L 229.084877 172.969941 
z
" style="fill:#1f77b4;"/>
   </g>
   <g id="patch_141">
    <path clip-path="url(#p7f096549fc)" d="M 230.369481 288.430125 
L 231.397165 288.430125 
L 231.397165 172.969941 
L 230.369481 172.969941 
z
" style="fill:#1f77b4;"/>
   </g>
   <g id="patch_142">
    <path clip-path="url(#p7f096549fc)" d="M 231.654085 288.430125 
L 232.681769 288.430125 
L 232.681769 172.969941 
L 231.654085 172.969941 
z
" style="fill:#1f77b4;"/>
   </g>
   <g id="patch_143">
    <path clip-path="url(#p7f096549fc)" d="M 232.93869 288.430125 
L 233.966373 288.430125 
L 233.966373 172.969941 
L 232.93869 172.969941 
z
" style="fill:#1f77b4;"/>
   </g>
   <g id="patch_144">
    <path clip-path="url(#p7f096549fc)" d="M 234.223294 288.430125 
L 235.250978 288.430125 
L 235.250978 172.969941 
L 234.223294 172.969941 
z
" style="fill:#1f77b4;"/>
   </g>
   <g id="patch_145">
    <path clip-path="url(#p7f096549fc)" d="M 235.507898 288.430125 
L 236.535582 288.430125 
L 236.535582 172.969941 
L 235.507898 172.969941 
z
" style="fill:#1f77b4;"/>
   </g>
   <g id="patch_146">
    <path clip-path="url(#p7f096549fc)" d="M 236.792503 288.430125 
L 237.820186 288.430125 
L 237.820186 172.969941 
L 236.792503 172.969941 
z
" style="fill:#1f77b4;"/>
   </g>
   <g id="patch_147">
    <path clip-path="url(#p7f096549fc)" d="M 238.077107 288.430125 
L 239.10479 288.430125 
L 239.10479 172.969941 
L 238.077107 172.969941 
z
" style="fill:#1f77b4;"/>
   </g>
   <g id="patch_148">
    <path clip-path="url(#p7f096549fc)" d="M 239.361711 288.430125 
L 240.389395 288.430125 
L 240.389395 172.969941 
L 239.361711 172.969941 
z
" style="fill:#1f77b4;"/>
   </g>
   <g id="patch_149">
    <path clip-path="url(#p7f096549fc)" d="M 240.646316 288.430125 
L 241.673999 288.430125 
L 241.673999 172.969941 
L 240.646316 172.969941 
z
" style="fill:#1f77b4;"/>
   </g>
   <g id="patch_150">
    <path clip-path="url(#p7f096549fc)" d="M 241.93092 288.430125 
L 242.958603 288.430125 
L 242.958603 172.969941 
L 241.93092 172.969941 
z
" style="fill:#1f77b4;"/>
   </g>
   <g id="patch_151">
    <path clip-path="url(#p7f096549fc)" d="M 243.215524 288.430125 
L 244.243208 288.430125 
L 244.243208 172.969941 
L 243.215524 172.969941 
z
" style="fill:#1f77b4;"/>
   </g>
   <g id="patch_152">
    <path clip-path="url(#p7f096549fc)" d="M 244.500129 288.430125 
L 245.527812 288.430125 
L 245.527812 172.969941 
L 244.500129 172.969941 
z
" style="fill:#1f77b4;"/>
   </g>
   <g id="patch_153">
    <path clip-path="url(#p7f096549fc)" d="M 245.784733 288.430125 
L 246.812416 288.430125 
L 246.812416 172.969941 
L 245.784733 172.969941 
z
" style="fill:#1f77b4;"/>
   </g>
   <g id="patch_154">
    <path clip-path="url(#p7f096549fc)" d="M 247.069337 288.430125 
L 248.097021 288.430125 
L 248.097021 172.969941 
L 247.069337 172.969941 
z
" style="fill:#1f77b4;"/>
   </g>
   <g id="patch_155">
    <path clip-path="url(#p7f096549fc)" d="M 248.353942 288.430125 
L 249.381625 288.430125 
L 249.381625 172.969941 
L 248.353942 172.969941 
z
" style="fill:#1f77b4;"/>
   </g>
   <g id="patch_156">
    <path clip-path="url(#p7f096549fc)" d="M 249.638546 288.430125 
L 250.666229 288.430125 
L 250.666229 172.969941 
L 249.638546 172.969941 
z
" style="fill:#1f77b4;"/>
   </g>
   <g id="patch_157">
    <path clip-path="url(#p7f096549fc)" d="M 250.92315 288.430125 
L 251.950834 288.430125 
L 251.950834 172.969941 
L 250.92315 172.969941 
z
" style="fill:#1f77b4;"/>
   </g>
   <g id="patch_158">
    <path clip-path="url(#p7f096549fc)" d="M 252.207754 288.430125 
L 253.235438 288.430125 
L 253.235438 172.969941 
L 252.207754 172.969941 
z
" style="fill:#1f77b4;"/>
   </g>
   <g id="patch_159">
    <path clip-path="url(#p7f096549fc)" d="M 253.492359 288.430125 
L 254.520042 288.430125 
L 254.520042 172.969941 
L 253.492359 172.969941 
z
" style="fill:#1f77b4;"/>
   </g>
   <g id="patch_160">
    <path clip-path="url(#p7f096549fc)" d="M 254.776963 288.430125 
L 255.804647 288.430125 
L 255.804647 172.969941 
L 254.776963 172.969941 
z
" style="fill:#1f77b4;"/>
   </g>
   <g id="patch_161">
    <path clip-path="url(#p7f096549fc)" d="M 256.061567 288.430125 
L 257.089251 288.430125 
L 257.089251 172.969941 
L 256.061567 172.969941 
z
" style="fill:#1f77b4;"/>
   </g>
   <g id="patch_162">
    <path clip-path="url(#p7f096549fc)" d="M 257.346172 288.430125 
L 258.373855 288.430125 
L 258.373855 172.969941 
L 257.346172 172.969941 
z
" style="fill:#1f77b4;"/>
   </g>
   <g id="patch_163">
    <path clip-path="url(#p7f096549fc)" d="M 258.630776 288.430125 
L 259.65846 288.430125 
L 259.65846 172.969941 
L 258.630776 172.969941 
z
" style="fill:#1f77b4;"/>
   </g>
   <g id="patch_164">
    <path clip-path="url(#p7f096549fc)" d="M 259.91538 288.430125 
L 260.943064 288.430125 
L 260.943064 172.969941 
L 259.91538 172.969941 
z
" style="fill:#1f77b4;"/>
   </g>
   <g id="patch_165">
    <path clip-path="url(#p7f096549fc)" d="M 261.199985 288.430125 
L 262.227668 288.430125 
L 262.227668 172.969941 
L 261.199985 172.969941 
z
" style="fill:#1f77b4;"/>
   </g>
   <g id="patch_166">
    <path clip-path="url(#p7f096549fc)" d="M 262.484589 288.430125 
L 263.512272 288.430125 
L 263.512272 173.760764 
L 262.484589 173.760764 
z
" style="fill:#1f77b4;"/>
   </g>
   <g id="patch_167">
    <path clip-path="url(#p7f096549fc)" d="M 263.769193 288.430125 
L 264.796877 288.430125 
L 264.796877 172.969941 
L 263.769193 172.969941 
z
" style="fill:#1f77b4;"/>
   </g>
   <g id="patch_168">
    <path clip-path="url(#p7f096549fc)" d="M 265.053798 288.430125 
L 266.081481 288.430125 
L 266.081481 172.969941 
L 265.053798 172.969941 
z
" style="fill:#1f77b4;"/>
   </g>
   <g id="patch_169">
    <path clip-path="url(#p7f096549fc)" d="M 266.338402 288.430125 
L 267.366085 288.430125 
L 267.366085 172.969941 
L 266.338402 172.969941 
z
" style="fill:#1f77b4;"/>
   </g>
   <g id="patch_170">
    <path clip-path="url(#p7f096549fc)" d="M 267.623006 288.430125 
L 268.65069 288.430125 
L 268.65069 172.969941 
L 267.623006 172.969941 
z
" style="fill:#1f77b4;"/>
   </g>
   <g id="patch_171">
    <path clip-path="url(#p7f096549fc)" d="M 268.907611 288.430125 
L 269.935294 288.430125 
L 269.935294 172.969941 
L 268.907611 172.969941 
z
" style="fill:#1f77b4;"/>
   </g>
   <g id="patch_172">
    <path clip-path="url(#p7f096549fc)" d="M 270.192215 288.430125 
L 271.219898 288.430125 
L 271.219898 172.969941 
L 270.192215 172.969941 
z
" style="fill:#1f77b4;"/>
   </g>
   <g id="patch_173">
    <path clip-path="url(#p7f096549fc)" d="M 271.476819 288.430125 
L 272.504503 288.430125 
L 272.504503 172.969941 
L 271.476819 172.969941 
z
" style="fill:#1f77b4;"/>
   </g>
   <g id="patch_174">
    <path clip-path="url(#p7f096549fc)" d="M 272.761424 288.430125 
L 273.789107 288.430125 
L 273.789107 172.969941 
L 272.761424 172.969941 
z
" style="fill:#1f77b4;"/>
   </g>
   <g id="patch_175">
    <path clip-path="url(#p7f096549fc)" d="M 274.046028 288.430125 
L 275.073711 288.430125 
L 275.073711 172.969941 
L 274.046028 172.969941 
z
" style="fill:#1f77b4;"/>
   </g>
   <g id="patch_176">
    <path clip-path="url(#p7f096549fc)" d="M 275.330632 288.430125 
L 276.358316 288.430125 
L 276.358316 172.969941 
L 275.330632 172.969941 
z
" style="fill:#1f77b4;"/>
   </g>
   <g id="patch_177">
    <path clip-path="url(#p7f096549fc)" d="M 276.615237 288.430125 
L 277.64292 288.430125 
L 277.64292 172.969941 
L 276.615237 172.969941 
z
" style="fill:#1f77b4;"/>
   </g>
   <g id="patch_178">
    <path clip-path="url(#p7f096549fc)" d="M 277.899841 288.430125 
L 278.927524 288.430125 
L 278.927524 172.969941 
L 277.899841 172.969941 
z
" style="fill:#1f77b4;"/>
   </g>
   <g id="patch_179">
    <path clip-path="url(#p7f096549fc)" d="M 279.184445 288.430125 
L 280.212129 288.430125 
L 280.212129 172.969941 
L 279.184445 172.969941 
z
" style="fill:#1f77b4;"/>
   </g>
   <g id="patch_180">
    <path clip-path="url(#p7f096549fc)" d="M 280.469049 288.430125 
L 281.496733 288.430125 
L 281.496733 172.969941 
L 280.469049 172.969941 
z
" style="fill:#1f77b4;"/>
   </g>
   <g id="patch_181">
    <path clip-path="url(#p7f096549fc)" d="M 281.753654 288.430125 
L 282.781337 288.430125 
L 282.781337 172.969941 
L 281.753654 172.969941 
z
" style="fill:#1f77b4;"/>
   </g>
   <g id="patch_182">
    <path clip-path="url(#p7f096549fc)" d="M 283.038258 288.430125 
L 284.065942 288.430125 
L 284.065942 172.969941 
L 283.038258 172.969941 
z
" style="fill:#1f77b4;"/>
   </g>
   <g id="patch_183">
    <path clip-path="url(#p7f096549fc)" d="M 284.322862 288.430125 
L 285.350546 288.430125 
L 285.350546 172.969941 
L 284.322862 172.969941 
z
" style="fill:#1f77b4;"/>
   </g>
   <g id="patch_184">
    <path clip-path="url(#p7f096549fc)" d="M 285.607467 288.430125 
L 286.63515 288.430125 
L 286.63515 172.969941 
L 285.607467 172.969941 
z
" style="fill:#1f77b4;"/>
   </g>
   <g id="patch_185">
    <path clip-path="url(#p7f096549fc)" d="M 286.892071 288.430125 
L 287.919754 288.430125 
L 287.919754 172.969941 
L 286.892071 172.969941 
z
" style="fill:#1f77b4;"/>
   </g>
   <g id="patch_186">
    <path clip-path="url(#p7f096549fc)" d="M 288.176675 288.430125 
L 289.204359 288.430125 
L 289.204359 172.969941 
L 288.176675 172.969941 
z
" style="fill:#1f77b4;"/>
   </g>
   <g id="patch_187">
    <path clip-path="url(#p7f096549fc)" d="M 289.46128 288.430125 
L 290.488963 288.430125 
L 290.488963 172.969941 
L 289.46128 172.969941 
z
" style="fill:#1f77b4;"/>
   </g>
   <g id="patch_188">
    <path clip-path="url(#p7f096549fc)" d="M 290.745884 288.430125 
L 291.773567 288.430125 
L 291.773567 172.969941 
L 290.745884 172.969941 
z
" style="fill:#1f77b4;"/>
   </g>
   <g id="patch_189">
    <path clip-path="url(#p7f096549fc)" d="M 292.030488 288.430125 
L 293.058172 288.430125 
L 293.058172 172.969941 
L 292.030488 172.969941 
z
" style="fill:#1f77b4;"/>
   </g>
   <g id="patch_190">
    <path clip-path="url(#p7f096549fc)" d="M 293.315093 288.430125 
L 294.342776 288.430125 
L 294.342776 172.969941 
L 293.315093 172.969941 
z
" style="fill:#1f77b4;"/>
   </g>
   <g id="patch_191">
    <path clip-path="url(#p7f096549fc)" d="M 294.599697 288.430125 
L 295.62738 288.430125 
L 295.62738 172.969941 
L 294.599697 172.969941 
z
" style="fill:#1f77b4;"/>
   </g>
   <g id="patch_192">
    <path clip-path="url(#p7f096549fc)" d="M 295.884301 288.430125 
L 296.911985 288.430125 
L 296.911985 172.969941 
L 295.884301 172.969941 
z
" style="fill:#1f77b4;"/>
   </g>
   <g id="patch_193">
    <path clip-path="url(#p7f096549fc)" d="M 297.168906 288.430125 
L 298.196589 288.430125 
L 298.196589 172.969941 
L 297.168906 172.969941 
z
" style="fill:#1f77b4;"/>
   </g>
   <g id="patch_194">
    <path clip-path="url(#p7f096549fc)" d="M 298.45351 288.430125 
L 299.481193 288.430125 
L 299.481193 172.969941 
L 298.45351 172.969941 
z
" style="fill:#1f77b4;"/>
   </g>
   <g id="patch_195">
    <path clip-path="url(#p7f096549fc)" d="M 299.738114 288.430125 
L 300.765798 288.430125 
L 300.765798 172.969941 
L 299.738114 172.969941 
z
" style="fill:#1f77b4;"/>
   </g>
   <g id="patch_196">
    <path clip-path="url(#p7f096549fc)" d="M 301.022719 288.430125 
L 302.050402 288.430125 
L 302.050402 172.969941 
L 301.022719 172.969941 
z
" style="fill:#1f77b4;"/>
   </g>
   <g id="patch_197">
    <path clip-path="url(#p7f096549fc)" d="M 302.307323 288.430125 
L 303.335006 288.430125 
L 303.335006 172.969941 
L 302.307323 172.969941 
z
" style="fill:#1f77b4;"/>
   </g>
   <g id="patch_198">
    <path clip-path="url(#p7f096549fc)" d="M 303.591927 288.430125 
L 304.619611 288.430125 
L 304.619611 172.969941 
L 303.591927 172.969941 
z
" style="fill:#1f77b4;"/>
   </g>
   <g id="patch_199">
    <path clip-path="url(#p7f096549fc)" d="M 304.876531 288.430125 
L 305.904215 288.430125 
L 305.904215 172.969941 
L 304.876531 172.969941 
z
" style="fill:#1f77b4;"/>
   </g>
   <g id="patch_200">
    <path clip-path="url(#p7f096549fc)" d="M 306.161136 288.430125 
L 307.188819 288.430125 
L 307.188819 172.969941 
L 306.161136 172.969941 
z
" style="fill:#1f77b4;"/>
   </g>
   <g id="patch_201">
    <path clip-path="url(#p7f096549fc)" d="M 307.44574 288.430125 
L 308.473424 288.430125 
L 308.473424 172.969941 
L 307.44574 172.969941 
z
" style="fill:#1f77b4;"/>
   </g>
   <g id="patch_202">
    <path clip-path="url(#p7f096549fc)" d="M 308.730344 288.430125 
L 309.758028 288.430125 
L 309.758028 172.969941 
L 308.730344 172.969941 
z
" style="fill:#1f77b4;"/>
   </g>
   <g id="patch_203">
    <path clip-path="url(#p7f096549fc)" d="M 310.014949 288.430125 
L 311.042632 288.430125 
L 311.042632 172.969941 
L 310.014949 172.969941 
z
" style="fill:#1f77b4;"/>
   </g>
   <g id="patch_204">
    <path clip-path="url(#p7f096549fc)" d="M 311.299553 288.430125 
L 312.327237 288.430125 
L 312.327237 172.969941 
L 311.299553 172.969941 
z
" style="fill:#1f77b4;"/>
   </g>
   <g id="patch_205">
    <path clip-path="url(#p7f096549fc)" d="M 312.584157 288.430125 
L 313.611841 288.430125 
L 313.611841 172.969941 
L 312.584157 172.969941 
z
" style="fill:#1f77b4;"/>
   </g>
   <g id="patch_206">
    <path clip-path="url(#p7f096549fc)" d="M 313.868762 288.430125 
L 314.896445 288.430125 
L 314.896445 172.969941 
L 313.868762 172.969941 
z
" style="fill:#1f77b4;"/>
   </g>
   <g id="patch_207">
    <path clip-path="url(#p7f096549fc)" d="M 315.153366 288.430125 
L 316.181049 288.430125 
L 316.181049 172.969941 
L 315.153366 172.969941 
z
" style="fill:#1f77b4;"/>
   </g>
   <g id="patch_208">
    <path clip-path="url(#p7f096549fc)" d="M 316.43797 288.430125 
L 317.465654 288.430125 
L 317.465654 172.969941 
L 316.43797 172.969941 
z
" style="fill:#1f77b4;"/>
   </g>
   <g id="patch_209">
    <path clip-path="url(#p7f096549fc)" d="M 317.722575 288.430125 
L 318.750258 288.430125 
L 318.750258 172.969941 
L 317.722575 172.969941 
z
" style="fill:#1f77b4;"/>
   </g>
   <g id="patch_210">
    <path clip-path="url(#p7f096549fc)" d="M 319.007179 288.430125 
L 320.034862 288.430125 
L 320.034862 172.969941 
L 319.007179 172.969941 
z
" style="fill:#1f77b4;"/>
   </g>
   <g id="patch_211">
    <path clip-path="url(#p7f096549fc)" d="M 320.291783 288.430125 
L 321.319467 288.430125 
L 321.319467 172.969941 
L 320.291783 172.969941 
z
" style="fill:#1f77b4;"/>
   </g>
   <g id="patch_212">
    <path clip-path="url(#p7f096549fc)" d="M 321.576388 288.430125 
L 322.604071 288.430125 
L 322.604071 172.969941 
L 321.576388 172.969941 
z
" style="fill:#1f77b4;"/>
   </g>
   <g id="patch_213">
    <path clip-path="url(#p7f096549fc)" d="M 322.860992 288.430125 
L 323.888675 288.430125 
L 323.888675 172.574529 
L 322.860992 172.574529 
z
" style="fill:#1f77b4;"/>
   </g>
   <g id="patch_214">
    <path clip-path="url(#p7f096549fc)" d="M 324.145596 288.430125 
L 325.17328 288.430125 
L 325.17328 172.574529 
L 324.145596 172.574529 
z
" style="fill:#1f77b4;"/>
   </g>
   <g id="patch_215">
    <path clip-path="url(#p7f096549fc)" d="M 325.430201 288.430125 
L 326.457884 288.430125 
L 326.457884 172.574529 
L 325.430201 172.574529 
z
" style="fill:#1f77b4;"/>
   </g>
   <g id="patch_216">
    <path clip-path="url(#p7f096549fc)" d="M 326.714805 288.430125 
L 327.742488 288.430125 
L 327.742488 172.574529 
L 326.714805 172.574529 
z
" style="fill:#1f77b4;"/>
   </g>
   <g id="patch_217">
    <path clip-path="url(#p7f096549fc)" d="M 327.999409 288.430125 
L 329.027093 288.430125 
L 329.027093 172.574529 
L 327.999409 172.574529 
z
" style="fill:#1f77b4;"/>
   </g>
   <g id="patch_218">
    <path clip-path="url(#p7f096549fc)" d="M 329.284013 288.430125 
L 330.311697 288.430125 
L 330.311697 172.574529 
L 329.284013 172.574529 
z
" style="fill:#1f77b4;"/>
   </g>
   <g id="patch_219">
    <path clip-path="url(#p7f096549fc)" d="M 330.568618 288.430125 
L 331.596301 288.430125 
L 331.596301 172.574529 
L 330.568618 172.574529 
z
" style="fill:#1f77b4;"/>
   </g>
   <g id="patch_220">
    <path clip-path="url(#p7f096549fc)" d="M 331.853222 288.430125 
L 332.880906 288.430125 
L 332.880906 172.574529 
L 331.853222 172.574529 
z
" style="fill:#1f77b4;"/>
   </g>
   <g id="patch_221">
    <path clip-path="url(#p7f096549fc)" d="M 333.137826 288.430125 
L 334.16551 288.430125 
L 334.16551 172.179118 
L 333.137826 172.179118 
z
" style="fill:#1f77b4;"/>
   </g>
   <g id="patch_222">
    <path clip-path="url(#p7f096549fc)" d="M 334.422431 288.430125 
L 335.450114 288.430125 
L 335.450114 172.179118 
L 334.422431 172.179118 
z
" style="fill:#1f77b4;"/>
   </g>
   <g id="patch_223">
    <path clip-path="url(#p7f096549fc)" d="M 335.707035 288.430125 
L 336.734719 288.430125 
L 336.734719 171.388294 
L 335.707035 171.388294 
z
" style="fill:#1f77b4;"/>
   </g>
   <g id="patch_224">
    <path clip-path="url(#p7f096549fc)" d="M 336.991639 288.430125 
L 338.019323 288.430125 
L 338.019323 171.388294 
L 336.991639 171.388294 
z
" style="fill:#1f77b4;"/>
   </g>
   <g id="patch_225">
    <path clip-path="url(#p7f096549fc)" d="M 338.276244 288.430125 
L 339.303927 288.430125 
L 339.303927 171.388294 
L 338.276244 171.388294 
z
" style="fill:#1f77b4;"/>
   </g>
   <g id="patch_226">
    <path clip-path="url(#p7f096549fc)" d="M 339.560848 288.430125 
L 340.588531 288.430125 
L 340.588531 171.388294 
L 339.560848 171.388294 
z
" style="fill:#1f77b4;"/>
   </g>
   <g id="patch_227">
    <path clip-path="url(#p7f096549fc)" d="M 340.845452 288.430125 
L 341.873136 288.430125 
L 341.873136 171.388294 
L 340.845452 171.388294 
z
" style="fill:#1f77b4;"/>
   </g>
   <g id="patch_228">
    <path clip-path="url(#p7f096549fc)" d="M 342.130057 288.430125 
L 343.15774 288.430125 
L 343.15774 170.20206 
L 342.130057 170.20206 
z
" style="fill:#1f77b4;"/>
   </g>
   <g id="patch_229">
    <path clip-path="url(#p7f096549fc)" d="M 343.414661 288.430125 
L 344.442344 288.430125 
L 344.442344 169.806648 
L 343.414661 169.806648 
z
" style="fill:#1f77b4;"/>
   </g>
   <g id="patch_230">
    <path clip-path="url(#p7f096549fc)" d="M 344.699265 288.430125 
L 345.726949 288.430125 
L 345.726949 168.225002 
L 344.699265 168.225002 
z
" style="fill:#1f77b4;"/>
   </g>
   <g id="patch_231">
    <path clip-path="url(#p7f096549fc)" d="M 345.98387 288.430125 
L 347.011553 288.430125 
L 347.011553 167.434178 
L 345.98387 167.434178 
z
" style="fill:#1f77b4;"/>
   </g>
   <g id="patch_232">
    <path clip-path="url(#p7f096549fc)" d="M 347.268474 288.430125 
L 348.296157 288.430125 
L 348.296157 166.643355 
L 347.268474 166.643355 
z
" style="fill:#1f77b4;"/>
   </g>
   <g id="patch_233">
    <path clip-path="url(#p7f096549fc)" d="M 348.553078 288.430125 
L 349.580762 288.430125 
L 349.580762 165.061709 
L 348.553078 165.061709 
z
" style="fill:#1f77b4;"/>
   </g>
   <g id="patch_234">
    <path clip-path="url(#p7f096549fc)" d="M 349.837683 288.430125 
L 350.865366 288.430125 
L 350.865366 163.875474 
L 349.837683 163.875474 
z
" style="fill:#1f77b4;"/>
   </g>
   <g id="patch_235">
    <path clip-path="url(#p7f096549fc)" d="M 351.122287 288.430125 
L 352.14997 288.430125 
L 352.14997 162.293828 
L 351.122287 162.293828 
z
" style="fill:#1f77b4;"/>
   </g>
   <g id="patch_236">
    <path clip-path="url(#p7f096549fc)" d="M 352.406891 288.430125 
L 353.434575 288.430125 
L 353.434575 161.898416 
L 352.406891 161.898416 
z
" style="fill:#1f77b4;"/>
   </g>
   <g id="patch_237">
    <path clip-path="url(#p7f096549fc)" d="M 353.691496 288.430125 
L 354.719179 288.430125 
L 354.719179 161.107593 
L 353.691496 161.107593 
z
" style="fill:#1f77b4;"/>
   </g>
   <g id="patch_238">
    <path clip-path="url(#p7f096549fc)" d="M 354.9761 288.430125 
L 356.003783 288.430125 
L 356.003783 159.525947 
L 354.9761 159.525947 
z
" style="fill:#1f77b4;"/>
   </g>
   <g id="patch_239">
    <path clip-path="url(#p7f096549fc)" d="M 356.260704 288.430125 
L 357.288388 288.430125 
L 357.288388 157.9443 
L 356.260704 157.9443 
z
" style="fill:#1f77b4;"/>
   </g>
   <g id="patch_240">
    <path clip-path="url(#p7f096549fc)" d="M 357.545308 288.430125 
L 358.572992 288.430125 
L 358.572992 155.176419 
L 357.545308 155.176419 
z
" style="fill:#1f77b4;"/>
   </g>
   <g id="patch_241">
    <path clip-path="url(#p7f096549fc)" d="M 358.829913 288.430125 
L 359.857596 288.430125 
L 359.857596 153.594773 
L 358.829913 153.594773 
z
" style="fill:#1f77b4;"/>
   </g>
   <g id="patch_242">
    <path clip-path="url(#p7f096549fc)" d="M 360.114517 288.430125 
L 361.142201 288.430125 
L 361.142201 152.013126 
L 360.114517 152.013126 
z
" style="fill:#1f77b4;"/>
   </g>
   <g id="patch_243">
    <path clip-path="url(#p7f096549fc)" d="M 361.399121 288.430125 
L 362.426805 288.430125 
L 362.426805 150.036069 
L 361.399121 150.036069 
z
" style="fill:#1f77b4;"/>
   </g>
   <g id="patch_244">
    <path clip-path="url(#p7f096549fc)" d="M 362.683726 288.430125 
L 363.711409 288.430125 
L 363.711409 146.477364 
L 362.683726 146.477364 
z
" style="fill:#1f77b4;"/>
   </g>
   <g id="patch_245">
    <path clip-path="url(#p7f096549fc)" d="M 363.96833 288.430125 
L 364.996013 288.430125 
L 364.996013 144.104895 
L 363.96833 144.104895 
z
" style="fill:#1f77b4;"/>
   </g>
   <g id="patch_246">
    <path clip-path="url(#p7f096549fc)" d="M 365.252934 288.430125 
L 366.280618 288.430125 
L 366.280618 140.54619 
L 365.252934 140.54619 
z
" style="fill:#1f77b4;"/>
   </g>
   <g id="patch_247">
    <path clip-path="url(#p7f096549fc)" d="M 366.537539 288.430125 
L 367.565222 288.430125 
L 367.565222 138.569132 
L 366.537539 138.569132 
z
" style="fill:#1f77b4;"/>
   </g>
   <g id="patch_248">
    <path clip-path="url(#p7f096549fc)" d="M 367.822143 288.430125 
L 368.849826 288.430125 
L 368.849826 131.056312 
L 367.822143 131.056312 
z
" style="fill:#1f77b4;"/>
   </g>
   <g id="patch_249">
    <path clip-path="url(#p7f096549fc)" d="M 369.106747 288.430125 
L 370.134431 288.430125 
L 370.134431 128.288431 
L 369.106747 128.288431 
z
" style="fill:#1f77b4;"/>
   </g>
   <g id="patch_250">
    <path clip-path="url(#p7f096549fc)" d="M 370.391352 288.430125 
L 371.419035 288.430125 
L 371.419035 124.729727 
L 370.391352 124.729727 
z
" style="fill:#1f77b4;"/>
   </g>
   <g id="patch_251">
    <path clip-path="url(#p7f096549fc)" d="M 371.675956 288.430125 
L 372.703639 288.430125 
L 372.703639 120.380199 
L 371.675956 120.380199 
z
" style="fill:#1f77b4;"/>
   </g>
   <g id="patch_252">
    <path clip-path="url(#p7f096549fc)" d="M 372.96056 288.430125 
L 373.988244 288.430125 
L 373.988244 115.239849 
L 372.96056 115.239849 
z
" style="fill:#1f77b4;"/>
   </g>
   <g id="patch_253">
    <path clip-path="url(#p7f096549fc)" d="M 374.245165 288.430125 
L 375.272848 288.430125 
L 375.272848 112.076556 
L 374.245165 112.076556 
z
" style="fill:#1f77b4;"/>
   </g>
   <g id="patch_254">
    <path clip-path="url(#p7f096549fc)" d="M 375.529769 288.430125 
L 376.557452 288.430125 
L 376.557452 105.74997 
L 375.529769 105.74997 
z
" style="fill:#1f77b4;"/>
   </g>
   <g id="patch_255">
    <path clip-path="url(#p7f096549fc)" d="M 376.814373 288.430125 
L 377.842057 288.430125 
L 377.842057 102.982089 
L 376.814373 102.982089 
z
" style="fill:#1f77b4;"/>
   </g>
   <g id="patch_256">
    <path clip-path="url(#p7f096549fc)" d="M 378.098978 288.430125 
L 379.126661 288.430125 
L 379.126661 101.005031 
L 378.098978 101.005031 
z
" style="fill:#1f77b4;"/>
   </g>
   <g id="patch_257">
    <path clip-path="url(#p7f096549fc)" d="M 379.383582 288.430125 
L 380.411265 288.430125 
L 380.411265 94.678446 
L 379.383582 94.678446 
z
" style="fill:#1f77b4;"/>
   </g>
   <g id="patch_258">
    <path clip-path="url(#p7f096549fc)" d="M 380.668186 288.430125 
L 381.69587 288.430125 
L 381.69587 91.515153 
L 380.668186 91.515153 
z
" style="fill:#1f77b4;"/>
   </g>
   <g id="patch_259">
    <path clip-path="url(#p7f096549fc)" d="M 381.95279 288.430125 
L 382.980474 288.430125 
L 382.980474 87.165626 
L 381.95279 87.165626 
z
" style="fill:#1f77b4;"/>
   </g>
   <g id="patch_260">
    <path clip-path="url(#p7f096549fc)" d="M 383.237395 288.430125 
L 384.265078 288.430125 
L 384.265078 82.816098 
L 383.237395 82.816098 
z
" style="fill:#1f77b4;"/>
   </g>
   <g id="patch_261">
    <path clip-path="url(#p7f096549fc)" d="M 384.521999 288.430125 
L 385.549683 288.430125 
L 385.549683 81.629863 
L 384.521999 81.629863 
z
" style="fill:#1f77b4;"/>
   </g>
   <g id="patch_262">
    <path clip-path="url(#p7f096549fc)" d="M 385.806603 288.430125 
L 386.834287 288.430125 
L 386.834287 78.861982 
L 385.806603 78.861982 
z
" style="fill:#1f77b4;"/>
   </g>
   <g id="patch_263">
    <path clip-path="url(#p7f096549fc)" d="M 387.091208 288.430125 
L 388.118891 288.430125 
L 388.118891 78.466571 
L 387.091208 78.466571 
z
" style="fill:#1f77b4;"/>
   </g>
   <g id="patch_264">
    <path clip-path="url(#p7f096549fc)" d="M 388.375812 288.430125 
L 389.403496 288.430125 
L 389.403496 76.884924 
L 388.375812 76.884924 
z
" style="fill:#1f77b4;"/>
   </g>
   <g id="patch_265">
    <path clip-path="url(#p7f096549fc)" d="M 389.660416 288.430125 
L 390.6881 288.430125 
L 390.6881 74.117043 
L 389.660416 74.117043 
z
" style="fill:#1f77b4;"/>
   </g>
   <g id="patch_266">
    <path clip-path="url(#p7f096549fc)" d="M 390.945021 288.430125 
L 391.972704 288.430125 
L 391.972704 67.790458 
L 390.945021 67.790458 
z
" style="fill:#1f77b4;"/>
   </g>
   <g id="patch_267">
    <path clip-path="url(#p7f096549fc)" d="M 392.229625 288.430125 
L 393.257308 288.430125 
L 393.257308 63.44093 
L 392.229625 63.44093 
z
" style="fill:#1f77b4;"/>
   </g>
   <g id="patch_268">
    <path clip-path="url(#p7f096549fc)" d="M 393.514229 288.430125 
L 394.541913 288.430125 
L 394.541913 62.254696 
L 393.514229 62.254696 
z
" style="fill:#1f77b4;"/>
   </g>
   <g id="patch_269">
    <path clip-path="url(#p7f096549fc)" d="M 394.798834 288.430125 
L 395.826517 288.430125 
L 395.826517 59.882226 
L 394.798834 59.882226 
z
" style="fill:#1f77b4;"/>
   </g>
   <g id="patch_270">
    <path clip-path="url(#p7f096549fc)" d="M 396.083438 288.430125 
L 397.111121 288.430125 
L 397.111121 57.905168 
L 396.083438 57.905168 
z
" style="fill:#1f77b4;"/>
   </g>
   <g id="patch_271">
    <path clip-path="url(#p7f096549fc)" d="M 397.368042 288.430125 
L 398.395726 288.430125 
L 398.395726 53.555641 
L 397.368042 53.555641 
z
" style="fill:#1f77b4;"/>
   </g>
   <g id="patch_272">
    <path clip-path="url(#p7f096549fc)" d="M 398.652647 288.430125 
L 399.68033 288.430125 
L 399.68033 49.601525 
L 398.652647 49.601525 
z
" style="fill:#1f77b4;"/>
   </g>
   <g id="patch_273">
    <path clip-path="url(#p7f096549fc)" d="M 399.937251 288.430125 
L 400.964934 288.430125 
L 400.964934 46.438232 
L 399.937251 46.438232 
z
" style="fill:#1f77b4;"/>
   </g>
   <g id="patch_274">
    <path clip-path="url(#p7f096549fc)" d="M 401.221855 288.430125 
L 402.249539 288.430125 
L 402.249539 39.716235 
L 401.221855 39.716235 
z
" style="fill:#1f77b4;"/>
   </g>
   <g id="patch_275">
    <path clip-path="url(#p7f096549fc)" d="M 402.50646 288.430125 
L 403.534143 288.430125 
L 403.534143 37.739177 
L 402.50646 37.739177 
z
" style="fill:#1f77b4;"/>
   </g>
   <g id="patch_276">
    <path clip-path="url(#p7f096549fc)" d="M 403.791064 288.430125 
L 404.818747 288.430125 
L 404.818747 36.157531 
L 403.791064 36.157531 
z
" style="fill:#1f77b4;"/>
   </g>
   <g id="patch_277">
    <path clip-path="url(#p7f096549fc)" d="M 405.075668 288.430125 
L 406.103352 288.430125 
L 406.103352 32.598826 
L 405.075668 32.598826 
z
" style="fill:#1f77b4;"/>
   </g>
   <g id="patch_278">
    <path clip-path="url(#p7f096549fc)" d="M 406.360272 288.430125 
L 407.387956 288.430125 
L 407.387956 28.64471 
L 406.360272 28.64471 
z
" style="fill:#1f77b4;"/>
   </g>
   <g id="patch_279">
    <path clip-path="url(#p7f096549fc)" d="M 407.644877 288.430125 
L 408.67256 288.430125 
L 408.67256 24.295183 
L 407.644877 24.295183 
z
" style="fill:#1f77b4;"/>
   </g>
   <g id="patch_280">
    <path clip-path="url(#p7f096549fc)" d="M 408.929481 288.430125 
L 409.957165 288.430125 
L 409.957165 22.318125 
L 408.929481 22.318125 
z
" style="fill:#1f77b4;"/>
   </g>
   <g id="matplotlib.axis_1">
    <g id="xtick_1">
     <g id="line2d_1">
      <defs>
       <path d="M 0 0 
L 0 3.5 
" id="m924f103f36" style="stroke:#000000;stroke-width:0.8;"/>
      </defs>
      <g>
       <use style="stroke:#000000;stroke-width:0.8;" x="75.446201" xlink:href="#m924f103f36" y="288.430125"/>
      </g>
     </g>
     <g id="text_1">
      <!-- 2020-04 -->
      <g transform="translate(78.205576 337.212937)rotate(-90)scale(0.1 -0.1)">
       <defs>
        <path d="M 19.1875 8.296875 
L 53.609375 8.296875 
L 53.609375 0 
L 7.328125 0 
L 7.328125 8.296875 
Q 12.9375 14.109375 22.625 23.890625 
Q 32.328125 33.6875 34.8125 36.53125 
Q 39.546875 41.84375 41.421875 45.53125 
Q 43.3125 49.21875 43.3125 52.78125 
Q 43.3125 58.59375 39.234375 62.25 
Q 35.15625 65.921875 28.609375 65.921875 
Q 23.96875 65.921875 18.8125 64.3125 
Q 13.671875 62.703125 7.8125 59.421875 
L 7.8125 69.390625 
Q 13.765625 71.78125 18.9375 73 
Q 24.125 74.21875 28.421875 74.21875 
Q 39.75 74.21875 46.484375 68.546875 
Q 53.21875 62.890625 53.21875 53.421875 
Q 53.21875 48.921875 51.53125 44.890625 
Q 49.859375 40.875 45.40625 35.40625 
Q 44.1875 33.984375 37.640625 27.21875 
Q 31.109375 20.453125 19.1875 8.296875 
z
" id="DejaVuSans-50"/>
        <path d="M 31.78125 66.40625 
Q 24.171875 66.40625 20.328125 58.90625 
Q 16.5 51.421875 16.5 36.375 
Q 16.5 21.390625 20.328125 13.890625 
Q 24.171875 6.390625 31.78125 6.390625 
Q 39.453125 6.390625 43.28125 13.890625 
Q 47.125 21.390625 47.125 36.375 
Q 47.125 51.421875 43.28125 58.90625 
Q 39.453125 66.40625 31.78125 66.40625 
z
M 31.78125 74.21875 
Q 44.046875 74.21875 50.515625 64.515625 
Q 56.984375 54.828125 56.984375 36.375 
Q 56.984375 17.96875 50.515625 8.265625 
Q 44.046875 -1.421875 31.78125 -1.421875 
Q 19.53125 -1.421875 13.0625 8.265625 
Q 6.59375 17.96875 6.59375 36.375 
Q 6.59375 54.828125 13.0625 64.515625 
Q 19.53125 74.21875 31.78125 74.21875 
z
" id="DejaVuSans-48"/>
        <path d="M 4.890625 31.390625 
L 31.203125 31.390625 
L 31.203125 23.390625 
L 4.890625 23.390625 
z
" id="DejaVuSans-45"/>
        <path d="M 37.796875 64.3125 
L 12.890625 25.390625 
L 37.796875 25.390625 
z
M 35.203125 72.90625 
L 47.609375 72.90625 
L 47.609375 25.390625 
L 58.015625 25.390625 
L 58.015625 17.1875 
L 47.609375 17.1875 
L 47.609375 0 
L 37.796875 0 
L 37.796875 17.1875 
L 4.890625 17.1875 
L 4.890625 26.703125 
z
" id="DejaVuSans-52"/>
       </defs>
       <use xlink:href="#DejaVuSans-50"/>
       <use x="63.623047" xlink:href="#DejaVuSans-48"/>
       <use x="127.246094" xlink:href="#DejaVuSans-50"/>
       <use x="190.869141" xlink:href="#DejaVuSans-48"/>
       <use x="254.492188" xlink:href="#DejaVuSans-45"/>
       <use x="290.576172" xlink:href="#DejaVuSans-48"/>
       <use x="354.199219" xlink:href="#DejaVuSans-52"/>
      </g>
     </g>
    </g>
    <g id="xtick_2">
     <g id="line2d_2">
      <g>
       <use style="stroke:#000000;stroke-width:0.8;" x="113.98433" xlink:href="#m924f103f36" y="288.430125"/>
      </g>
     </g>
     <g id="text_2">
      <!-- 2020-05 -->
      <g transform="translate(116.743705 337.212937)rotate(-90)scale(0.1 -0.1)">
       <defs>
        <path d="M 10.796875 72.90625 
L 49.515625 72.90625 
L 49.515625 64.59375 
L 19.828125 64.59375 
L 19.828125 46.734375 
Q 21.96875 47.46875 24.109375 47.828125 
Q 26.265625 48.1875 28.421875 48.1875 
Q 40.625 48.1875 47.75 41.5 
Q 54.890625 34.8125 54.890625 23.390625 
Q 54.890625 11.625 47.5625 5.09375 
Q 40.234375 -1.421875 26.90625 -1.421875 
Q 22.3125 -1.421875 17.546875 -0.640625 
Q 12.796875 0.140625 7.71875 1.703125 
L 7.71875 11.625 
Q 12.109375 9.234375 16.796875 8.0625 
Q 21.484375 6.890625 26.703125 6.890625 
Q 35.15625 6.890625 40.078125 11.328125 
Q 45.015625 15.765625 45.015625 23.390625 
Q 45.015625 31 40.078125 35.4375 
Q 35.15625 39.890625 26.703125 39.890625 
Q 22.75 39.890625 18.8125 39.015625 
Q 14.890625 38.140625 10.796875 36.28125 
z
" id="DejaVuSans-53"/>
       </defs>
       <use xlink:href="#DejaVuSans-50"/>
       <use x="63.623047" xlink:href="#DejaVuSans-48"/>
       <use x="127.246094" xlink:href="#DejaVuSans-50"/>
       <use x="190.869141" xlink:href="#DejaVuSans-48"/>
       <use x="254.492188" xlink:href="#DejaVuSans-45"/>
       <use x="290.576172" xlink:href="#DejaVuSans-48"/>
       <use x="354.199219" xlink:href="#DejaVuSans-53"/>
      </g>
     </g>
    </g>
    <g id="xtick_3">
     <g id="line2d_3">
      <g>
       <use style="stroke:#000000;stroke-width:0.8;" x="153.807064" xlink:href="#m924f103f36" y="288.430125"/>
      </g>
     </g>
     <g id="text_3">
      <!-- 2020-06 -->
      <g transform="translate(156.566439 337.212937)rotate(-90)scale(0.1 -0.1)">
       <defs>
        <path d="M 33.015625 40.375 
Q 26.375 40.375 22.484375 35.828125 
Q 18.609375 31.296875 18.609375 23.390625 
Q 18.609375 15.53125 22.484375 10.953125 
Q 26.375 6.390625 33.015625 6.390625 
Q 39.65625 6.390625 43.53125 10.953125 
Q 47.40625 15.53125 47.40625 23.390625 
Q 47.40625 31.296875 43.53125 35.828125 
Q 39.65625 40.375 33.015625 40.375 
z
M 52.59375 71.296875 
L 52.59375 62.3125 
Q 48.875 64.0625 45.09375 64.984375 
Q 41.3125 65.921875 37.59375 65.921875 
Q 27.828125 65.921875 22.671875 59.328125 
Q 17.53125 52.734375 16.796875 39.40625 
Q 19.671875 43.65625 24.015625 45.921875 
Q 28.375 48.1875 33.59375 48.1875 
Q 44.578125 48.1875 50.953125 41.515625 
Q 57.328125 34.859375 57.328125 23.390625 
Q 57.328125 12.15625 50.6875 5.359375 
Q 44.046875 -1.421875 33.015625 -1.421875 
Q 20.359375 -1.421875 13.671875 8.265625 
Q 6.984375 17.96875 6.984375 36.375 
Q 6.984375 53.65625 15.1875 63.9375 
Q 23.390625 74.21875 37.203125 74.21875 
Q 40.921875 74.21875 44.703125 73.484375 
Q 48.484375 72.75 52.59375 71.296875 
z
" id="DejaVuSans-54"/>
       </defs>
       <use xlink:href="#DejaVuSans-50"/>
       <use x="63.623047" xlink:href="#DejaVuSans-48"/>
       <use x="127.246094" xlink:href="#DejaVuSans-50"/>
       <use x="190.869141" xlink:href="#DejaVuSans-48"/>
       <use x="254.492188" xlink:href="#DejaVuSans-45"/>
       <use x="290.576172" xlink:href="#DejaVuSans-48"/>
       <use x="354.199219" xlink:href="#DejaVuSans-54"/>
      </g>
     </g>
    </g>
    <g id="xtick_4">
     <g id="line2d_4">
      <g>
       <use style="stroke:#000000;stroke-width:0.8;" x="192.345193" xlink:href="#m924f103f36" y="288.430125"/>
      </g>
     </g>
     <g id="text_4">
      <!-- 2020-07 -->
      <g transform="translate(195.104568 337.212937)rotate(-90)scale(0.1 -0.1)">
       <defs>
        <path d="M 8.203125 72.90625 
L 55.078125 72.90625 
L 55.078125 68.703125 
L 28.609375 0 
L 18.3125 0 
L 43.21875 64.59375 
L 8.203125 64.59375 
z
" id="DejaVuSans-55"/>
       </defs>
       <use xlink:href="#DejaVuSans-50"/>
       <use x="63.623047" xlink:href="#DejaVuSans-48"/>
       <use x="127.246094" xlink:href="#DejaVuSans-50"/>
       <use x="190.869141" xlink:href="#DejaVuSans-48"/>
       <use x="254.492188" xlink:href="#DejaVuSans-45"/>
       <use x="290.576172" xlink:href="#DejaVuSans-48"/>
       <use x="354.199219" xlink:href="#DejaVuSans-55"/>
      </g>
     </g>
    </g>
    <g id="xtick_5">
     <g id="line2d_5">
      <g>
       <use style="stroke:#000000;stroke-width:0.8;" x="232.167927" xlink:href="#m924f103f36" y="288.430125"/>
      </g>
     </g>
     <g id="text_5">
      <!-- 2020-08 -->
      <g transform="translate(234.927302 337.212937)rotate(-90)scale(0.1 -0.1)">
       <defs>
        <path d="M 31.78125 34.625 
Q 24.75 34.625 20.71875 30.859375 
Q 16.703125 27.09375 16.703125 20.515625 
Q 16.703125 13.921875 20.71875 10.15625 
Q 24.75 6.390625 31.78125 6.390625 
Q 38.8125 6.390625 42.859375 10.171875 
Q 46.921875 13.96875 46.921875 20.515625 
Q 46.921875 27.09375 42.890625 30.859375 
Q 38.875 34.625 31.78125 34.625 
z
M 21.921875 38.8125 
Q 15.578125 40.375 12.03125 44.71875 
Q 8.5 49.078125 8.5 55.328125 
Q 8.5 64.0625 14.71875 69.140625 
Q 20.953125 74.21875 31.78125 74.21875 
Q 42.671875 74.21875 48.875 69.140625 
Q 55.078125 64.0625 55.078125 55.328125 
Q 55.078125 49.078125 51.53125 44.71875 
Q 48 40.375 41.703125 38.8125 
Q 48.828125 37.15625 52.796875 32.3125 
Q 56.78125 27.484375 56.78125 20.515625 
Q 56.78125 9.90625 50.3125 4.234375 
Q 43.84375 -1.421875 31.78125 -1.421875 
Q 19.734375 -1.421875 13.25 4.234375 
Q 6.78125 9.90625 6.78125 20.515625 
Q 6.78125 27.484375 10.78125 32.3125 
Q 14.796875 37.15625 21.921875 38.8125 
z
M 18.3125 54.390625 
Q 18.3125 48.734375 21.84375 45.5625 
Q 25.390625 42.390625 31.78125 42.390625 
Q 38.140625 42.390625 41.71875 45.5625 
Q 45.3125 48.734375 45.3125 54.390625 
Q 45.3125 60.0625 41.71875 63.234375 
Q 38.140625 66.40625 31.78125 66.40625 
Q 25.390625 66.40625 21.84375 63.234375 
Q 18.3125 60.0625 18.3125 54.390625 
z
" id="DejaVuSans-56"/>
       </defs>
       <use xlink:href="#DejaVuSans-50"/>
       <use x="63.623047" xlink:href="#DejaVuSans-48"/>
       <use x="127.246094" xlink:href="#DejaVuSans-50"/>
       <use x="190.869141" xlink:href="#DejaVuSans-48"/>
       <use x="254.492188" xlink:href="#DejaVuSans-45"/>
       <use x="290.576172" xlink:href="#DejaVuSans-48"/>
       <use x="354.199219" xlink:href="#DejaVuSans-56"/>
      </g>
     </g>
    </g>
    <g id="xtick_6">
     <g id="line2d_6">
      <g>
       <use style="stroke:#000000;stroke-width:0.8;" x="271.990661" xlink:href="#m924f103f36" y="288.430125"/>
      </g>
     </g>
     <g id="text_6">
      <!-- 2020-09 -->
      <g transform="translate(274.750036 337.212937)rotate(-90)scale(0.1 -0.1)">
       <defs>
        <path d="M 10.984375 1.515625 
L 10.984375 10.5 
Q 14.703125 8.734375 18.5 7.8125 
Q 22.3125 6.890625 25.984375 6.890625 
Q 35.75 6.890625 40.890625 13.453125 
Q 46.046875 20.015625 46.78125 33.40625 
Q 43.953125 29.203125 39.59375 26.953125 
Q 35.25 24.703125 29.984375 24.703125 
Q 19.046875 24.703125 12.671875 31.3125 
Q 6.296875 37.9375 6.296875 49.421875 
Q 6.296875 60.640625 12.9375 67.421875 
Q 19.578125 74.21875 30.609375 74.21875 
Q 43.265625 74.21875 49.921875 64.515625 
Q 56.59375 54.828125 56.59375 36.375 
Q 56.59375 19.140625 48.40625 8.859375 
Q 40.234375 -1.421875 26.421875 -1.421875 
Q 22.703125 -1.421875 18.890625 -0.6875 
Q 15.09375 0.046875 10.984375 1.515625 
z
M 30.609375 32.421875 
Q 37.25 32.421875 41.125 36.953125 
Q 45.015625 41.5 45.015625 49.421875 
Q 45.015625 57.28125 41.125 61.84375 
Q 37.25 66.40625 30.609375 66.40625 
Q 23.96875 66.40625 20.09375 61.84375 
Q 16.21875 57.28125 16.21875 49.421875 
Q 16.21875 41.5 20.09375 36.953125 
Q 23.96875 32.421875 30.609375 32.421875 
z
" id="DejaVuSans-57"/>
       </defs>
       <use xlink:href="#DejaVuSans-50"/>
       <use x="63.623047" xlink:href="#DejaVuSans-48"/>
       <use x="127.246094" xlink:href="#DejaVuSans-50"/>
       <use x="190.869141" xlink:href="#DejaVuSans-48"/>
       <use x="254.492188" xlink:href="#DejaVuSans-45"/>
       <use x="290.576172" xlink:href="#DejaVuSans-48"/>
       <use x="354.199219" xlink:href="#DejaVuSans-57"/>
      </g>
     </g>
    </g>
    <g id="xtick_7">
     <g id="line2d_7">
      <g>
       <use style="stroke:#000000;stroke-width:0.8;" x="310.52879" xlink:href="#m924f103f36" y="288.430125"/>
      </g>
     </g>
     <g id="text_7">
      <!-- 2020-10 -->
      <g transform="translate(313.288165 337.212937)rotate(-90)scale(0.1 -0.1)">
       <defs>
        <path d="M 12.40625 8.296875 
L 28.515625 8.296875 
L 28.515625 63.921875 
L 10.984375 60.40625 
L 10.984375 69.390625 
L 28.421875 72.90625 
L 38.28125 72.90625 
L 38.28125 8.296875 
L 54.390625 8.296875 
L 54.390625 0 
L 12.40625 0 
z
" id="DejaVuSans-49"/>
       </defs>
       <use xlink:href="#DejaVuSans-50"/>
       <use x="63.623047" xlink:href="#DejaVuSans-48"/>
       <use x="127.246094" xlink:href="#DejaVuSans-50"/>
       <use x="190.869141" xlink:href="#DejaVuSans-48"/>
       <use x="254.492188" xlink:href="#DejaVuSans-45"/>
       <use x="290.576172" xlink:href="#DejaVuSans-49"/>
       <use x="354.199219" xlink:href="#DejaVuSans-48"/>
      </g>
     </g>
    </g>
    <g id="xtick_8">
     <g id="line2d_8">
      <g>
       <use style="stroke:#000000;stroke-width:0.8;" x="350.351524" xlink:href="#m924f103f36" y="288.430125"/>
      </g>
     </g>
     <g id="text_8">
      <!-- 2020-11 -->
      <g transform="translate(353.110899 337.212937)rotate(-90)scale(0.1 -0.1)">
       <use xlink:href="#DejaVuSans-50"/>
       <use x="63.623047" xlink:href="#DejaVuSans-48"/>
       <use x="127.246094" xlink:href="#DejaVuSans-50"/>
       <use x="190.869141" xlink:href="#DejaVuSans-48"/>
       <use x="254.492188" xlink:href="#DejaVuSans-45"/>
       <use x="290.576172" xlink:href="#DejaVuSans-49"/>
       <use x="354.199219" xlink:href="#DejaVuSans-49"/>
      </g>
     </g>
    </g>
    <g id="xtick_9">
     <g id="line2d_9">
      <g>
       <use style="stroke:#000000;stroke-width:0.8;" x="388.889654" xlink:href="#m924f103f36" y="288.430125"/>
      </g>
     </g>
     <g id="text_9">
      <!-- 2020-12 -->
      <g transform="translate(391.649029 337.212937)rotate(-90)scale(0.1 -0.1)">
       <use xlink:href="#DejaVuSans-50"/>
       <use x="63.623047" xlink:href="#DejaVuSans-48"/>
       <use x="127.246094" xlink:href="#DejaVuSans-50"/>
       <use x="190.869141" xlink:href="#DejaVuSans-48"/>
       <use x="254.492188" xlink:href="#DejaVuSans-45"/>
       <use x="290.576172" xlink:href="#DejaVuSans-49"/>
       <use x="354.199219" xlink:href="#DejaVuSans-50"/>
      </g>
     </g>
    </g>
    <g id="text_10">
     <!-- date -->
     <g transform="translate(220.250625 354.811375)scale(0.1 -0.1)">
      <defs>
       <path d="M 45.40625 46.390625 
L 45.40625 75.984375 
L 54.390625 75.984375 
L 54.390625 0 
L 45.40625 0 
L 45.40625 8.203125 
Q 42.578125 3.328125 38.25 0.953125 
Q 33.9375 -1.421875 27.875 -1.421875 
Q 17.96875 -1.421875 11.734375 6.484375 
Q 5.515625 14.40625 5.515625 27.296875 
Q 5.515625 40.1875 11.734375 48.09375 
Q 17.96875 56 27.875 56 
Q 33.9375 56 38.25 53.625 
Q 42.578125 51.265625 45.40625 46.390625 
z
M 14.796875 27.296875 
Q 14.796875 17.390625 18.875 11.75 
Q 22.953125 6.109375 30.078125 6.109375 
Q 37.203125 6.109375 41.296875 11.75 
Q 45.40625 17.390625 45.40625 27.296875 
Q 45.40625 37.203125 41.296875 42.84375 
Q 37.203125 48.484375 30.078125 48.484375 
Q 22.953125 48.484375 18.875 42.84375 
Q 14.796875 37.203125 14.796875 27.296875 
z
" id="DejaVuSans-100"/>
       <path d="M 34.28125 27.484375 
Q 23.390625 27.484375 19.1875 25 
Q 14.984375 22.515625 14.984375 16.5 
Q 14.984375 11.71875 18.140625 8.90625 
Q 21.296875 6.109375 26.703125 6.109375 
Q 34.1875 6.109375 38.703125 11.40625 
Q 43.21875 16.703125 43.21875 25.484375 
L 43.21875 27.484375 
z
M 52.203125 31.203125 
L 52.203125 0 
L 43.21875 0 
L 43.21875 8.296875 
Q 40.140625 3.328125 35.546875 0.953125 
Q 30.953125 -1.421875 24.3125 -1.421875 
Q 15.921875 -1.421875 10.953125 3.296875 
Q 6 8.015625 6 15.921875 
Q 6 25.140625 12.171875 29.828125 
Q 18.359375 34.515625 30.609375 34.515625 
L 43.21875 34.515625 
L 43.21875 35.40625 
Q 43.21875 41.609375 39.140625 45 
Q 35.0625 48.390625 27.6875 48.390625 
Q 23 48.390625 18.546875 47.265625 
Q 14.109375 46.140625 10.015625 43.890625 
L 10.015625 52.203125 
Q 14.9375 54.109375 19.578125 55.046875 
Q 24.21875 56 28.609375 56 
Q 40.484375 56 46.34375 49.84375 
Q 52.203125 43.703125 52.203125 31.203125 
z
" id="DejaVuSans-97"/>
       <path d="M 18.3125 70.21875 
L 18.3125 54.6875 
L 36.8125 54.6875 
L 36.8125 47.703125 
L 18.3125 47.703125 
L 18.3125 18.015625 
Q 18.3125 11.328125 20.140625 9.421875 
Q 21.96875 7.515625 27.59375 7.515625 
L 36.8125 7.515625 
L 36.8125 0 
L 27.59375 0 
Q 17.1875 0 13.234375 3.875 
Q 9.28125 7.765625 9.28125 18.015625 
L 9.28125 47.703125 
L 2.6875 47.703125 
L 2.6875 54.6875 
L 9.28125 54.6875 
L 9.28125 70.21875 
z
" id="DejaVuSans-116"/>
       <path d="M 56.203125 29.59375 
L 56.203125 25.203125 
L 14.890625 25.203125 
Q 15.484375 15.921875 20.484375 11.0625 
Q 25.484375 6.203125 34.421875 6.203125 
Q 39.59375 6.203125 44.453125 7.46875 
Q 49.3125 8.734375 54.109375 11.28125 
L 54.109375 2.78125 
Q 49.265625 0.734375 44.1875 -0.34375 
Q 39.109375 -1.421875 33.890625 -1.421875 
Q 20.796875 -1.421875 13.15625 6.1875 
Q 5.515625 13.8125 5.515625 26.8125 
Q 5.515625 40.234375 12.765625 48.109375 
Q 20.015625 56 32.328125 56 
Q 43.359375 56 49.78125 48.890625 
Q 56.203125 41.796875 56.203125 29.59375 
z
M 47.21875 32.234375 
Q 47.125 39.59375 43.09375 43.984375 
Q 39.0625 48.390625 32.421875 48.390625 
Q 24.90625 48.390625 20.390625 44.140625 
Q 15.875 39.890625 15.1875 32.171875 
z
" id="DejaVuSans-101"/>
      </defs>
      <use xlink:href="#DejaVuSans-100"/>
      <use x="63.476562" xlink:href="#DejaVuSans-97"/>
      <use x="124.755859" xlink:href="#DejaVuSans-116"/>
      <use x="163.964844" xlink:href="#DejaVuSans-101"/>
     </g>
    </g>
   </g>
   <g id="matplotlib.axis_2">
    <g id="ytick_1">
     <g id="line2d_10">
      <defs>
       <path d="M 0 0 
L -3.5 0 
" id="me29b8a3f02" style="stroke:#000000;stroke-width:0.8;"/>
      </defs>
      <g>
       <use style="stroke:#000000;stroke-width:0.8;" x="52.965625" xlink:href="#me29b8a3f02" y="288.430125"/>
      </g>
     </g>
     <g id="text_11">
      <!-- 0 -->
      <g transform="translate(39.603125 292.229344)scale(0.1 -0.1)">
       <use xlink:href="#DejaVuSans-48"/>
      </g>
     </g>
    </g>
    <g id="ytick_2">
     <g id="line2d_11">
      <g>
       <use style="stroke:#000000;stroke-width:0.8;" x="52.965625" xlink:href="#me29b8a3f02" y="248.888966"/>
      </g>
     </g>
     <g id="text_12">
      <!-- 100 -->
      <g transform="translate(26.878125 252.688185)scale(0.1 -0.1)">
       <use xlink:href="#DejaVuSans-49"/>
       <use x="63.623047" xlink:href="#DejaVuSans-48"/>
       <use x="127.246094" xlink:href="#DejaVuSans-48"/>
      </g>
     </g>
    </g>
    <g id="ytick_3">
     <g id="line2d_12">
      <g>
       <use style="stroke:#000000;stroke-width:0.8;" x="52.965625" xlink:href="#me29b8a3f02" y="209.347807"/>
      </g>
     </g>
     <g id="text_13">
      <!-- 200 -->
      <g transform="translate(26.878125 213.147026)scale(0.1 -0.1)">
       <use xlink:href="#DejaVuSans-50"/>
       <use x="63.623047" xlink:href="#DejaVuSans-48"/>
       <use x="127.246094" xlink:href="#DejaVuSans-48"/>
      </g>
     </g>
    </g>
    <g id="ytick_4">
     <g id="line2d_13">
      <g>
       <use style="stroke:#000000;stroke-width:0.8;" x="52.965625" xlink:href="#me29b8a3f02" y="169.806648"/>
      </g>
     </g>
     <g id="text_14">
      <!-- 300 -->
      <g transform="translate(26.878125 173.605867)scale(0.1 -0.1)">
       <defs>
        <path d="M 40.578125 39.3125 
Q 47.65625 37.796875 51.625 33 
Q 55.609375 28.21875 55.609375 21.1875 
Q 55.609375 10.40625 48.1875 4.484375 
Q 40.765625 -1.421875 27.09375 -1.421875 
Q 22.515625 -1.421875 17.65625 -0.515625 
Q 12.796875 0.390625 7.625 2.203125 
L 7.625 11.71875 
Q 11.71875 9.328125 16.59375 8.109375 
Q 21.484375 6.890625 26.8125 6.890625 
Q 36.078125 6.890625 40.9375 10.546875 
Q 45.796875 14.203125 45.796875 21.1875 
Q 45.796875 27.640625 41.28125 31.265625 
Q 36.765625 34.90625 28.71875 34.90625 
L 20.21875 34.90625 
L 20.21875 43.015625 
L 29.109375 43.015625 
Q 36.375 43.015625 40.234375 45.921875 
Q 44.09375 48.828125 44.09375 54.296875 
Q 44.09375 59.90625 40.109375 62.90625 
Q 36.140625 65.921875 28.71875 65.921875 
Q 24.65625 65.921875 20.015625 65.03125 
Q 15.375 64.15625 9.8125 62.3125 
L 9.8125 71.09375 
Q 15.4375 72.65625 20.34375 73.4375 
Q 25.25 74.21875 29.59375 74.21875 
Q 40.828125 74.21875 47.359375 69.109375 
Q 53.90625 64.015625 53.90625 55.328125 
Q 53.90625 49.265625 50.4375 45.09375 
Q 46.96875 40.921875 40.578125 39.3125 
z
" id="DejaVuSans-51"/>
       </defs>
       <use xlink:href="#DejaVuSans-51"/>
       <use x="63.623047" xlink:href="#DejaVuSans-48"/>
       <use x="127.246094" xlink:href="#DejaVuSans-48"/>
      </g>
     </g>
    </g>
    <g id="ytick_5">
     <g id="line2d_14">
      <g>
       <use style="stroke:#000000;stroke-width:0.8;" x="52.965625" xlink:href="#me29b8a3f02" y="130.265489"/>
      </g>
     </g>
     <g id="text_15">
      <!-- 400 -->
      <g transform="translate(26.878125 134.064708)scale(0.1 -0.1)">
       <use xlink:href="#DejaVuSans-52"/>
       <use x="63.623047" xlink:href="#DejaVuSans-48"/>
       <use x="127.246094" xlink:href="#DejaVuSans-48"/>
      </g>
     </g>
    </g>
    <g id="ytick_6">
     <g id="line2d_15">
      <g>
       <use style="stroke:#000000;stroke-width:0.8;" x="52.965625" xlink:href="#me29b8a3f02" y="90.72433"/>
      </g>
     </g>
     <g id="text_16">
      <!-- 500 -->
      <g transform="translate(26.878125 94.523549)scale(0.1 -0.1)">
       <use xlink:href="#DejaVuSans-53"/>
       <use x="63.623047" xlink:href="#DejaVuSans-48"/>
       <use x="127.246094" xlink:href="#DejaVuSans-48"/>
      </g>
     </g>
    </g>
    <g id="ytick_7">
     <g id="line2d_16">
      <g>
       <use style="stroke:#000000;stroke-width:0.8;" x="52.965625" xlink:href="#me29b8a3f02" y="51.183171"/>
      </g>
     </g>
     <g id="text_17">
      <!-- 600 -->
      <g transform="translate(26.878125 54.98239)scale(0.1 -0.1)">
       <use xlink:href="#DejaVuSans-54"/>
       <use x="63.623047" xlink:href="#DejaVuSans-48"/>
       <use x="127.246094" xlink:href="#DejaVuSans-48"/>
      </g>
     </g>
    </g>
    <g id="text_18">
     <!-- cumulative number of corona fatalities -->
     <g transform="translate(14.798438 252.560062)rotate(-90)scale(0.1 -0.1)">
      <defs>
       <path d="M 48.78125 52.59375 
L 48.78125 44.1875 
Q 44.96875 46.296875 41.140625 47.34375 
Q 37.3125 48.390625 33.40625 48.390625 
Q 24.65625 48.390625 19.8125 42.84375 
Q 14.984375 37.3125 14.984375 27.296875 
Q 14.984375 17.28125 19.8125 11.734375 
Q 24.65625 6.203125 33.40625 6.203125 
Q 37.3125 6.203125 41.140625 7.25 
Q 44.96875 8.296875 48.78125 10.40625 
L 48.78125 2.09375 
Q 45.015625 0.34375 40.984375 -0.53125 
Q 36.96875 -1.421875 32.421875 -1.421875 
Q 20.0625 -1.421875 12.78125 6.34375 
Q 5.515625 14.109375 5.515625 27.296875 
Q 5.515625 40.671875 12.859375 48.328125 
Q 20.21875 56 33.015625 56 
Q 37.15625 56 41.109375 55.140625 
Q 45.0625 54.296875 48.78125 52.59375 
z
" id="DejaVuSans-99"/>
       <path d="M 8.5 21.578125 
L 8.5 54.6875 
L 17.484375 54.6875 
L 17.484375 21.921875 
Q 17.484375 14.15625 20.5 10.265625 
Q 23.53125 6.390625 29.59375 6.390625 
Q 36.859375 6.390625 41.078125 11.03125 
Q 45.3125 15.671875 45.3125 23.6875 
L 45.3125 54.6875 
L 54.296875 54.6875 
L 54.296875 0 
L 45.3125 0 
L 45.3125 8.40625 
Q 42.046875 3.421875 37.71875 1 
Q 33.40625 -1.421875 27.6875 -1.421875 
Q 18.265625 -1.421875 13.375 4.4375 
Q 8.5 10.296875 8.5 21.578125 
z
M 31.109375 56 
z
" id="DejaVuSans-117"/>
       <path d="M 52 44.1875 
Q 55.375 50.25 60.0625 53.125 
Q 64.75 56 71.09375 56 
Q 79.640625 56 84.28125 50.015625 
Q 88.921875 44.046875 88.921875 33.015625 
L 88.921875 0 
L 79.890625 0 
L 79.890625 32.71875 
Q 79.890625 40.578125 77.09375 44.375 
Q 74.3125 48.1875 68.609375 48.1875 
Q 61.625 48.1875 57.5625 43.546875 
Q 53.515625 38.921875 53.515625 30.90625 
L 53.515625 0 
L 44.484375 0 
L 44.484375 32.71875 
Q 44.484375 40.625 41.703125 44.40625 
Q 38.921875 48.1875 33.109375 48.1875 
Q 26.21875 48.1875 22.15625 43.53125 
Q 18.109375 38.875 18.109375 30.90625 
L 18.109375 0 
L 9.078125 0 
L 9.078125 54.6875 
L 18.109375 54.6875 
L 18.109375 46.1875 
Q 21.1875 51.21875 25.484375 53.609375 
Q 29.78125 56 35.6875 56 
Q 41.65625 56 45.828125 52.96875 
Q 50 49.953125 52 44.1875 
z
" id="DejaVuSans-109"/>
       <path d="M 9.421875 75.984375 
L 18.40625 75.984375 
L 18.40625 0 
L 9.421875 0 
z
" id="DejaVuSans-108"/>
       <path d="M 9.421875 54.6875 
L 18.40625 54.6875 
L 18.40625 0 
L 9.421875 0 
z
M 9.421875 75.984375 
L 18.40625 75.984375 
L 18.40625 64.59375 
L 9.421875 64.59375 
z
" id="DejaVuSans-105"/>
       <path d="M 2.984375 54.6875 
L 12.5 54.6875 
L 29.59375 8.796875 
L 46.6875 54.6875 
L 56.203125 54.6875 
L 35.6875 0 
L 23.484375 0 
z
" id="DejaVuSans-118"/>
       <path id="DejaVuSans-32"/>
       <path d="M 54.890625 33.015625 
L 54.890625 0 
L 45.90625 0 
L 45.90625 32.71875 
Q 45.90625 40.484375 42.875 44.328125 
Q 39.84375 48.1875 33.796875 48.1875 
Q 26.515625 48.1875 22.3125 43.546875 
Q 18.109375 38.921875 18.109375 30.90625 
L 18.109375 0 
L 9.078125 0 
L 9.078125 54.6875 
L 18.109375 54.6875 
L 18.109375 46.1875 
Q 21.34375 51.125 25.703125 53.5625 
Q 30.078125 56 35.796875 56 
Q 45.21875 56 50.046875 50.171875 
Q 54.890625 44.34375 54.890625 33.015625 
z
" id="DejaVuSans-110"/>
       <path d="M 48.6875 27.296875 
Q 48.6875 37.203125 44.609375 42.84375 
Q 40.53125 48.484375 33.40625 48.484375 
Q 26.265625 48.484375 22.1875 42.84375 
Q 18.109375 37.203125 18.109375 27.296875 
Q 18.109375 17.390625 22.1875 11.75 
Q 26.265625 6.109375 33.40625 6.109375 
Q 40.53125 6.109375 44.609375 11.75 
Q 48.6875 17.390625 48.6875 27.296875 
z
M 18.109375 46.390625 
Q 20.953125 51.265625 25.265625 53.625 
Q 29.59375 56 35.59375 56 
Q 45.5625 56 51.78125 48.09375 
Q 58.015625 40.1875 58.015625 27.296875 
Q 58.015625 14.40625 51.78125 6.484375 
Q 45.5625 -1.421875 35.59375 -1.421875 
Q 29.59375 -1.421875 25.265625 0.953125 
Q 20.953125 3.328125 18.109375 8.203125 
L 18.109375 0 
L 9.078125 0 
L 9.078125 75.984375 
L 18.109375 75.984375 
z
" id="DejaVuSans-98"/>
       <path d="M 41.109375 46.296875 
Q 39.59375 47.171875 37.8125 47.578125 
Q 36.03125 48 33.890625 48 
Q 26.265625 48 22.1875 43.046875 
Q 18.109375 38.09375 18.109375 28.8125 
L 18.109375 0 
L 9.078125 0 
L 9.078125 54.6875 
L 18.109375 54.6875 
L 18.109375 46.1875 
Q 20.953125 51.171875 25.484375 53.578125 
Q 30.03125 56 36.53125 56 
Q 37.453125 56 38.578125 55.875 
Q 39.703125 55.765625 41.0625 55.515625 
z
" id="DejaVuSans-114"/>
       <path d="M 30.609375 48.390625 
Q 23.390625 48.390625 19.1875 42.75 
Q 14.984375 37.109375 14.984375 27.296875 
Q 14.984375 17.484375 19.15625 11.84375 
Q 23.34375 6.203125 30.609375 6.203125 
Q 37.796875 6.203125 41.984375 11.859375 
Q 46.1875 17.53125 46.1875 27.296875 
Q 46.1875 37.015625 41.984375 42.703125 
Q 37.796875 48.390625 30.609375 48.390625 
z
M 30.609375 56 
Q 42.328125 56 49.015625 48.375 
Q 55.71875 40.765625 55.71875 27.296875 
Q 55.71875 13.875 49.015625 6.21875 
Q 42.328125 -1.421875 30.609375 -1.421875 
Q 18.84375 -1.421875 12.171875 6.21875 
Q 5.515625 13.875 5.515625 27.296875 
Q 5.515625 40.765625 12.171875 48.375 
Q 18.84375 56 30.609375 56 
z
" id="DejaVuSans-111"/>
       <path d="M 37.109375 75.984375 
L 37.109375 68.5 
L 28.515625 68.5 
Q 23.6875 68.5 21.796875 66.546875 
Q 19.921875 64.59375 19.921875 59.515625 
L 19.921875 54.6875 
L 34.71875 54.6875 
L 34.71875 47.703125 
L 19.921875 47.703125 
L 19.921875 0 
L 10.890625 0 
L 10.890625 47.703125 
L 2.296875 47.703125 
L 2.296875 54.6875 
L 10.890625 54.6875 
L 10.890625 58.5 
Q 10.890625 67.625 15.140625 71.796875 
Q 19.390625 75.984375 28.609375 75.984375 
z
" id="DejaVuSans-102"/>
       <path d="M 44.28125 53.078125 
L 44.28125 44.578125 
Q 40.484375 46.53125 36.375 47.5 
Q 32.28125 48.484375 27.875 48.484375 
Q 21.1875 48.484375 17.84375 46.4375 
Q 14.5 44.390625 14.5 40.28125 
Q 14.5 37.15625 16.890625 35.375 
Q 19.28125 33.59375 26.515625 31.984375 
L 29.59375 31.296875 
Q 39.15625 29.25 43.1875 25.515625 
Q 47.21875 21.78125 47.21875 15.09375 
Q 47.21875 7.46875 41.1875 3.015625 
Q 35.15625 -1.421875 24.609375 -1.421875 
Q 20.21875 -1.421875 15.453125 -0.5625 
Q 10.6875 0.296875 5.421875 2 
L 5.421875 11.28125 
Q 10.40625 8.6875 15.234375 7.390625 
Q 20.0625 6.109375 24.8125 6.109375 
Q 31.15625 6.109375 34.5625 8.28125 
Q 37.984375 10.453125 37.984375 14.40625 
Q 37.984375 18.0625 35.515625 20.015625 
Q 33.0625 21.96875 24.703125 23.78125 
L 21.578125 24.515625 
Q 13.234375 26.265625 9.515625 29.90625 
Q 5.8125 33.546875 5.8125 39.890625 
Q 5.8125 47.609375 11.28125 51.796875 
Q 16.75 56 26.8125 56 
Q 31.78125 56 36.171875 55.265625 
Q 40.578125 54.546875 44.28125 53.078125 
z
" id="DejaVuSans-115"/>
      </defs>
      <use xlink:href="#DejaVuSans-99"/>
      <use x="54.980469" xlink:href="#DejaVuSans-117"/>
      <use x="118.359375" xlink:href="#DejaVuSans-109"/>
      <use x="215.771484" xlink:href="#DejaVuSans-117"/>
      <use x="279.150391" xlink:href="#DejaVuSans-108"/>
      <use x="306.933594" xlink:href="#DejaVuSans-97"/>
      <use x="368.212891" xlink:href="#DejaVuSans-116"/>
      <use x="407.421875" xlink:href="#DejaVuSans-105"/>
      <use x="435.205078" xlink:href="#DejaVuSans-118"/>
      <use x="494.384766" xlink:href="#DejaVuSans-101"/>
      <use x="555.908203" xlink:href="#DejaVuSans-32"/>
      <use x="587.695312" xlink:href="#DejaVuSans-110"/>
      <use x="651.074219" xlink:href="#DejaVuSans-117"/>
      <use x="714.453125" xlink:href="#DejaVuSans-109"/>
      <use x="811.865234" xlink:href="#DejaVuSans-98"/>
      <use x="875.341797" xlink:href="#DejaVuSans-101"/>
      <use x="936.865234" xlink:href="#DejaVuSans-114"/>
      <use x="977.978516" xlink:href="#DejaVuSans-32"/>
      <use x="1009.765625" xlink:href="#DejaVuSans-111"/>
      <use x="1070.947266" xlink:href="#DejaVuSans-102"/>
      <use x="1106.152344" xlink:href="#DejaVuSans-32"/>
      <use x="1137.939453" xlink:href="#DejaVuSans-99"/>
      <use x="1192.919922" xlink:href="#DejaVuSans-111"/>
      <use x="1254.101562" xlink:href="#DejaVuSans-114"/>
      <use x="1292.964844" xlink:href="#DejaVuSans-111"/>
      <use x="1354.146484" xlink:href="#DejaVuSans-110"/>
      <use x="1417.525391" xlink:href="#DejaVuSans-97"/>
      <use x="1478.804688" xlink:href="#DejaVuSans-32"/>
      <use x="1510.591797" xlink:href="#DejaVuSans-102"/>
      <use x="1545.796875" xlink:href="#DejaVuSans-97"/>
      <use x="1607.076172" xlink:href="#DejaVuSans-116"/>
      <use x="1646.285156" xlink:href="#DejaVuSans-97"/>
      <use x="1707.564453" xlink:href="#DejaVuSans-108"/>
      <use x="1735.347656" xlink:href="#DejaVuSans-105"/>
      <use x="1763.130859" xlink:href="#DejaVuSans-116"/>
      <use x="1802.339844" xlink:href="#DejaVuSans-105"/>
      <use x="1830.123047" xlink:href="#DejaVuSans-101"/>
      <use x="1891.646484" xlink:href="#DejaVuSans-115"/>
     </g>
    </g>
   </g>
   <g id="patch_281">
    <path d="M 52.965625 288.430125 
L 52.965625 22.318125 
" style="fill:none;stroke:#000000;stroke-linecap:square;stroke-linejoin:miter;stroke-width:0.8;"/>
   </g>
   <g id="patch_282">
    <path d="M 52.965625 288.430125 
L 410.085625 288.430125 
" style="fill:none;stroke:#000000;stroke-linecap:square;stroke-linejoin:miter;stroke-width:0.8;"/>
   </g>
   <g id="text_19">
    <!-- South Tyrol -->
    <g transform="translate(198.233125 16.318125)scale(0.12 -0.12)">
     <defs>
      <path d="M 53.515625 70.515625 
L 53.515625 60.890625 
Q 47.90625 63.578125 42.921875 64.890625 
Q 37.9375 66.21875 33.296875 66.21875 
Q 25.25 66.21875 20.875 63.09375 
Q 16.5 59.96875 16.5 54.203125 
Q 16.5 49.359375 19.40625 46.890625 
Q 22.3125 44.4375 30.421875 42.921875 
L 36.375 41.703125 
Q 47.40625 39.59375 52.65625 34.296875 
Q 57.90625 29 57.90625 20.125 
Q 57.90625 9.515625 50.796875 4.046875 
Q 43.703125 -1.421875 29.984375 -1.421875 
Q 24.8125 -1.421875 18.96875 -0.25 
Q 13.140625 0.921875 6.890625 3.21875 
L 6.890625 13.375 
Q 12.890625 10.015625 18.65625 8.296875 
Q 24.421875 6.59375 29.984375 6.59375 
Q 38.421875 6.59375 43.015625 9.90625 
Q 47.609375 13.234375 47.609375 19.390625 
Q 47.609375 24.75 44.3125 27.78125 
Q 41.015625 30.8125 33.5 32.328125 
L 27.484375 33.5 
Q 16.453125 35.6875 11.515625 40.375 
Q 6.59375 45.0625 6.59375 53.421875 
Q 6.59375 63.09375 13.40625 68.65625 
Q 20.21875 74.21875 32.171875 74.21875 
Q 37.3125 74.21875 42.625 73.28125 
Q 47.953125 72.359375 53.515625 70.515625 
z
" id="DejaVuSans-83"/>
      <path d="M 54.890625 33.015625 
L 54.890625 0 
L 45.90625 0 
L 45.90625 32.71875 
Q 45.90625 40.484375 42.875 44.328125 
Q 39.84375 48.1875 33.796875 48.1875 
Q 26.515625 48.1875 22.3125 43.546875 
Q 18.109375 38.921875 18.109375 30.90625 
L 18.109375 0 
L 9.078125 0 
L 9.078125 75.984375 
L 18.109375 75.984375 
L 18.109375 46.1875 
Q 21.34375 51.125 25.703125 53.5625 
Q 30.078125 56 35.796875 56 
Q 45.21875 56 50.046875 50.171875 
Q 54.890625 44.34375 54.890625 33.015625 
z
" id="DejaVuSans-104"/>
      <path d="M -0.296875 72.90625 
L 61.375 72.90625 
L 61.375 64.59375 
L 35.5 64.59375 
L 35.5 0 
L 25.59375 0 
L 25.59375 64.59375 
L -0.296875 64.59375 
z
" id="DejaVuSans-84"/>
      <path d="M 32.171875 -5.078125 
Q 28.375 -14.84375 24.75 -17.8125 
Q 21.140625 -20.796875 15.09375 -20.796875 
L 7.90625 -20.796875 
L 7.90625 -13.28125 
L 13.1875 -13.28125 
Q 16.890625 -13.28125 18.9375 -11.515625 
Q 21 -9.765625 23.484375 -3.21875 
L 25.09375 0.875 
L 2.984375 54.6875 
L 12.5 54.6875 
L 29.59375 11.921875 
L 46.6875 54.6875 
L 56.203125 54.6875 
z
" id="DejaVuSans-121"/>
     </defs>
     <use xlink:href="#DejaVuSans-83"/>
     <use x="63.476562" xlink:href="#DejaVuSans-111"/>
     <use x="124.658203" xlink:href="#DejaVuSans-117"/>
     <use x="188.037109" xlink:href="#DejaVuSans-116"/>
     <use x="227.246094" xlink:href="#DejaVuSans-104"/>
     <use x="290.625" xlink:href="#DejaVuSans-32"/>
     <use x="322.412109" xlink:href="#DejaVuSans-84"/>
     <use x="367.871094" xlink:href="#DejaVuSans-121"/>
     <use x="427.050781" xlink:href="#DejaVuSans-114"/>
     <use x="465.914062" xlink:href="#DejaVuSans-111"/>
     <use x="527.095703" xlink:href="#DejaVuSans-108"/>
    </g>
   </g>
  </g>
 </g>
 <defs>
  <clipPath id="p7f096549fc">
   <rect height="266.112" width="357.12" x="52.965625" y="22.318125"/>
  </clipPath>
 </defs>
</svg>
