<?xml version="1.0" encoding="utf-8" standalone="no"?>
<!DOCTYPE svg PUBLIC "-//W3C//DTD SVG 1.1//EN"
  "http://www.w3.org/Graphics/SVG/1.1/DTD/svg11.dtd">
<!-- Created with matplotlib (https://matplotlib.org/) -->
<svg height="315.419062pt" version="1.1" viewBox="0 0 396.967399 315.419062" width="396.967399pt" xmlns="http://www.w3.org/2000/svg" xmlns:xlink="http://www.w3.org/1999/xlink">
 <metadata>
  <rdf:RDF xmlns:cc="http://creativecommons.org/ns#" xmlns:dc="http://purl.org/dc/elements/1.1/" xmlns:rdf="http://www.w3.org/1999/02/22-rdf-syntax-ns#">
   <cc:Work>
    <dc:type rdf:resource="http://purl.org/dc/dcmitype/StillImage"/>
    <dc:date>2021-01-03T13:02:22.681664</dc:date>
    <dc:format>image/svg+xml</dc:format>
    <dc:creator>
     <cc:Agent>
      <dc:title>Matplotlib v3.3.3, https://matplotlib.org/</dc:title>
     </cc:Agent>
    </dc:creator>
   </cc:Work>
  </rdf:RDF>
 </metadata>
 <defs>
  <style type="text/css">*{stroke-linecap:butt;stroke-linejoin:round;}</style>
 </defs>
 <g id="figure_1">
  <g id="patch_1">
   <path d="M 0 315.419062 
L 396.967399 315.419062 
L 396.967399 0 
L 0 0 
z
" style="fill:#ffffff;"/>
  </g>
  <g id="axes_1">
   <g id="patch_2">
    <path d="M 52.965625 239.758125 
L 387.765625 239.758125 
L 387.765625 22.318125 
L 52.965625 22.318125 
z
" style="fill:#ffffff;"/>
   </g>
   <g id="patch_3">
    <path clip-path="url(#pa236ee221d)" d="M 53.079117 239.758125 
L 53.987049 239.758125 
L 53.987049 238.310455 
L 53.079117 238.310455 
z
" style="fill:#1f77b4;"/>
   </g>
   <g id="patch_4">
    <path clip-path="url(#pa236ee221d)" d="M 54.214032 239.758125 
L 55.121964 239.758125 
L 55.121964 238.020921 
L 54.214032 238.020921 
z
" style="fill:#1f77b4;"/>
   </g>
   <g id="patch_5">
    <path clip-path="url(#pa236ee221d)" d="M 55.348947 239.758125 
L 56.256879 239.758125 
L 56.256879 237.152319 
L 55.348947 237.152319 
z
" style="fill:#1f77b4;"/>
   </g>
   <g id="patch_6">
    <path clip-path="url(#pa236ee221d)" d="M 56.483862 239.758125 
L 57.391794 239.758125 
L 57.391794 236.283718 
L 56.483862 236.283718 
z
" style="fill:#1f77b4;"/>
   </g>
   <g id="patch_7">
    <path clip-path="url(#pa236ee221d)" d="M 57.618778 239.758125 
L 58.52671 239.758125 
L 58.52671 235.125582 
L 57.618778 235.125582 
z
" style="fill:#1f77b4;"/>
   </g>
   <g id="patch_8">
    <path clip-path="url(#pa236ee221d)" d="M 58.753693 239.758125 
L 59.661625 239.758125 
L 59.661625 234.25698 
L 58.753693 234.25698 
z
" style="fill:#1f77b4;"/>
   </g>
   <g id="patch_9">
    <path clip-path="url(#pa236ee221d)" d="M 59.888608 239.758125 
L 60.79654 239.758125 
L 60.79654 232.80931 
L 59.888608 232.80931 
z
" style="fill:#1f77b4;"/>
   </g>
   <g id="patch_10">
    <path clip-path="url(#pa236ee221d)" d="M 61.023523 239.758125 
L 61.931456 239.758125 
L 61.931456 230.782572 
L 61.023523 230.782572 
z
" style="fill:#1f77b4;"/>
   </g>
   <g id="patch_11">
    <path clip-path="url(#pa236ee221d)" d="M 62.158439 239.758125 
L 63.066371 239.758125 
L 63.066371 229.624437 
L 62.158439 229.624437 
z
" style="fill:#1f77b4;"/>
   </g>
   <g id="patch_12">
    <path clip-path="url(#pa236ee221d)" d="M 63.293354 239.758125 
L 64.201286 239.758125 
L 64.201286 227.018631 
L 63.293354 227.018631 
z
" style="fill:#1f77b4;"/>
   </g>
   <g id="patch_13">
    <path clip-path="url(#pa236ee221d)" d="M 64.428269 239.758125 
L 65.336201 239.758125 
L 65.336201 226.729097 
L 64.428269 226.729097 
z
" style="fill:#1f77b4;"/>
   </g>
   <g id="patch_14">
    <path clip-path="url(#pa236ee221d)" d="M 65.563184 239.758125 
L 66.471117 239.758125 
L 66.471117 224.412825 
L 65.563184 224.412825 
z
" style="fill:#1f77b4;"/>
   </g>
   <g id="patch_15">
    <path clip-path="url(#pa236ee221d)" d="M 66.6981 239.758125 
L 67.606032 239.758125 
L 67.606032 222.386088 
L 66.6981 222.386088 
z
" style="fill:#1f77b4;"/>
   </g>
   <g id="patch_16">
    <path clip-path="url(#pa236ee221d)" d="M 67.833015 239.758125 
L 68.740947 239.758125 
L 68.740947 221.227952 
L 67.833015 221.227952 
z
" style="fill:#1f77b4;"/>
   </g>
   <g id="patch_17">
    <path clip-path="url(#pa236ee221d)" d="M 68.96793 239.758125 
L 69.875862 239.758125 
L 69.875862 219.201214 
L 68.96793 219.201214 
z
" style="fill:#1f77b4;"/>
   </g>
   <g id="patch_18">
    <path clip-path="url(#pa236ee221d)" d="M 70.102845 239.758125 
L 71.010778 239.758125 
L 71.010778 218.332612 
L 70.102845 218.332612 
z
" style="fill:#1f77b4;"/>
   </g>
   <g id="patch_19">
    <path clip-path="url(#pa236ee221d)" d="M 71.237761 239.758125 
L 72.145693 239.758125 
L 72.145693 207.90939 
L 71.237761 207.90939 
z
" style="fill:#1f77b4;"/>
   </g>
   <g id="patch_20">
    <path clip-path="url(#pa236ee221d)" d="M 72.372676 239.758125 
L 73.280608 239.758125 
L 73.280608 205.01405 
L 72.372676 205.01405 
z
" style="fill:#1f77b4;"/>
   </g>
   <g id="patch_21">
    <path clip-path="url(#pa236ee221d)" d="M 73.507591 239.758125 
L 74.415523 239.758125 
L 74.415523 202.697779 
L 73.507591 202.697779 
z
" style="fill:#1f77b4;"/>
   </g>
   <g id="patch_22">
    <path clip-path="url(#pa236ee221d)" d="M 74.642506 239.758125 
L 75.550439 239.758125 
L 75.550439 198.644303 
L 74.642506 198.644303 
z
" style="fill:#1f77b4;"/>
   </g>
   <g id="patch_23">
    <path clip-path="url(#pa236ee221d)" d="M 75.777422 239.758125 
L 76.685354 239.758125 
L 76.685354 197.486168 
L 75.777422 197.486168 
z
" style="fill:#1f77b4;"/>
   </g>
   <g id="patch_24">
    <path clip-path="url(#pa236ee221d)" d="M 76.912337 239.758125 
L 77.820269 239.758125 
L 77.820269 194.590828 
L 76.912337 194.590828 
z
" style="fill:#1f77b4;"/>
   </g>
   <g id="patch_25">
    <path clip-path="url(#pa236ee221d)" d="M 78.047252 239.758125 
L 78.955184 239.758125 
L 78.955184 192.274556 
L 78.047252 192.274556 
z
" style="fill:#1f77b4;"/>
   </g>
   <g id="patch_26">
    <path clip-path="url(#pa236ee221d)" d="M 79.182167 239.758125 
L 80.0901 239.758125 
L 80.0901 189.958285 
L 79.182167 189.958285 
z
" style="fill:#1f77b4;"/>
   </g>
   <g id="patch_27">
    <path clip-path="url(#pa236ee221d)" d="M 80.317083 239.758125 
L 81.225015 239.758125 
L 81.225015 188.221081 
L 80.317083 188.221081 
z
" style="fill:#1f77b4;"/>
   </g>
   <g id="patch_28">
    <path clip-path="url(#pa236ee221d)" d="M 81.451998 239.758125 
L 82.35993 239.758125 
L 82.35993 185.615275 
L 81.451998 185.615275 
z
" style="fill:#1f77b4;"/>
   </g>
   <g id="patch_29">
    <path clip-path="url(#pa236ee221d)" d="M 82.586913 239.758125 
L 83.494845 239.758125 
L 83.494845 184.167606 
L 82.586913 184.167606 
z
" style="fill:#1f77b4;"/>
   </g>
   <g id="patch_30">
    <path clip-path="url(#pa236ee221d)" d="M 83.721828 239.758125 
L 84.629761 239.758125 
L 84.629761 181.851334 
L 83.721828 181.851334 
z
" style="fill:#1f77b4;"/>
   </g>
   <g id="patch_31">
    <path clip-path="url(#pa236ee221d)" d="M 84.856744 239.758125 
L 85.764676 239.758125 
L 85.764676 180.693198 
L 84.856744 180.693198 
z
" style="fill:#1f77b4;"/>
   </g>
   <g id="patch_32">
    <path clip-path="url(#pa236ee221d)" d="M 85.991659 239.758125 
L 86.899591 239.758125 
L 86.899591 177.508325 
L 85.991659 177.508325 
z
" style="fill:#1f77b4;"/>
   </g>
   <g id="patch_33">
    <path clip-path="url(#pa236ee221d)" d="M 87.126574 239.758125 
L 88.034506 239.758125 
L 88.034506 176.929257 
L 87.126574 176.929257 
z
" style="fill:#1f77b4;"/>
   </g>
   <g id="patch_34">
    <path clip-path="url(#pa236ee221d)" d="M 88.261489 239.758125 
L 89.169422 239.758125 
L 89.169422 175.771121 
L 88.261489 175.771121 
z
" style="fill:#1f77b4;"/>
   </g>
   <g id="patch_35">
    <path clip-path="url(#pa236ee221d)" d="M 89.396405 239.758125 
L 90.304337 239.758125 
L 90.304337 173.744383 
L 89.396405 173.744383 
z
" style="fill:#1f77b4;"/>
   </g>
   <g id="patch_36">
    <path clip-path="url(#pa236ee221d)" d="M 90.53132 239.758125 
L 91.439252 239.758125 
L 91.439252 172.586248 
L 90.53132 172.586248 
z
" style="fill:#1f77b4;"/>
   </g>
   <g id="patch_37">
    <path clip-path="url(#pa236ee221d)" d="M 91.666235 239.758125 
L 92.574167 239.758125 
L 92.574167 170.55951 
L 91.666235 170.55951 
z
" style="fill:#1f77b4;"/>
   </g>
   <g id="patch_38">
    <path clip-path="url(#pa236ee221d)" d="M 92.80115 239.758125 
L 93.709083 239.758125 
L 93.709083 168.822306 
L 92.80115 168.822306 
z
" style="fill:#1f77b4;"/>
   </g>
   <g id="patch_39">
    <path clip-path="url(#pa236ee221d)" d="M 93.936066 239.758125 
L 94.843998 239.758125 
L 94.843998 167.66417 
L 93.936066 167.66417 
z
" style="fill:#1f77b4;"/>
   </g>
   <g id="patch_40">
    <path clip-path="url(#pa236ee221d)" d="M 95.070981 239.758125 
L 95.978913 239.758125 
L 95.978913 166.795568 
L 95.070981 166.795568 
z
" style="fill:#1f77b4;"/>
   </g>
   <g id="patch_41">
    <path clip-path="url(#pa236ee221d)" d="M 96.205896 239.758125 
L 97.113828 239.758125 
L 97.113828 165.637433 
L 96.205896 165.637433 
z
" style="fill:#1f77b4;"/>
   </g>
   <g id="patch_42">
    <path clip-path="url(#pa236ee221d)" d="M 97.340811 239.758125 
L 98.248744 239.758125 
L 98.248744 164.189763 
L 97.340811 164.189763 
z
" style="fill:#1f77b4;"/>
   </g>
   <g id="patch_43">
    <path clip-path="url(#pa236ee221d)" d="M 98.475727 239.758125 
L 99.383659 239.758125 
L 99.383659 163.610695 
L 98.475727 163.610695 
z
" style="fill:#1f77b4;"/>
   </g>
   <g id="patch_44">
    <path clip-path="url(#pa236ee221d)" d="M 99.610642 239.758125 
L 100.518574 239.758125 
L 100.518574 163.031627 
L 99.610642 163.031627 
z
" style="fill:#1f77b4;"/>
   </g>
   <g id="patch_45">
    <path clip-path="url(#pa236ee221d)" d="M 100.745557 239.758125 
L 101.653489 239.758125 
L 101.653489 161.873491 
L 100.745557 161.873491 
z
" style="fill:#1f77b4;"/>
   </g>
   <g id="patch_46">
    <path clip-path="url(#pa236ee221d)" d="M 101.880472 239.758125 
L 102.788405 239.758125 
L 102.788405 161.583957 
L 101.880472 161.583957 
z
" style="fill:#1f77b4;"/>
   </g>
   <g id="patch_47">
    <path clip-path="url(#pa236ee221d)" d="M 103.015388 239.758125 
L 103.92332 239.758125 
L 103.92332 161.004889 
L 103.015388 161.004889 
z
" style="fill:#1f77b4;"/>
   </g>
   <g id="patch_48">
    <path clip-path="url(#pa236ee221d)" d="M 104.150303 239.758125 
L 105.058235 239.758125 
L 105.058235 160.425821 
L 104.150303 160.425821 
z
" style="fill:#1f77b4;"/>
   </g>
   <g id="patch_49">
    <path clip-path="url(#pa236ee221d)" d="M 105.285218 239.758125 
L 106.19315 239.758125 
L 106.19315 160.136287 
L 105.285218 160.136287 
z
" style="fill:#1f77b4;"/>
   </g>
   <g id="patch_50">
    <path clip-path="url(#pa236ee221d)" d="M 106.420133 239.758125 
L 107.328066 239.758125 
L 107.328066 159.267686 
L 106.420133 159.267686 
z
" style="fill:#1f77b4;"/>
   </g>
   <g id="patch_51">
    <path clip-path="url(#pa236ee221d)" d="M 107.555049 239.758125 
L 108.462981 239.758125 
L 108.462981 158.978152 
L 107.555049 158.978152 
z
" style="fill:#1f77b4;"/>
   </g>
   <g id="patch_52">
    <path clip-path="url(#pa236ee221d)" d="M 108.689964 239.758125 
L 109.597896 239.758125 
L 109.597896 158.399084 
L 108.689964 158.399084 
z
" style="fill:#1f77b4;"/>
   </g>
   <g id="patch_53">
    <path clip-path="url(#pa236ee221d)" d="M 109.824879 239.758125 
L 110.732811 239.758125 
L 110.732811 157.530482 
L 109.824879 157.530482 
z
" style="fill:#1f77b4;"/>
   </g>
   <g id="patch_54">
    <path clip-path="url(#pa236ee221d)" d="M 110.959794 239.758125 
L 111.867727 239.758125 
L 111.867727 156.951414 
L 110.959794 156.951414 
z
" style="fill:#1f77b4;"/>
   </g>
   <g id="patch_55">
    <path clip-path="url(#pa236ee221d)" d="M 112.09471 239.758125 
L 113.002642 239.758125 
L 113.002642 156.951414 
L 112.09471 156.951414 
z
" style="fill:#1f77b4;"/>
   </g>
   <g id="patch_56">
    <path clip-path="url(#pa236ee221d)" d="M 113.229625 239.758125 
L 114.137557 239.758125 
L 114.137557 156.951414 
L 113.229625 156.951414 
z
" style="fill:#1f77b4;"/>
   </g>
   <g id="patch_57">
    <path clip-path="url(#pa236ee221d)" d="M 114.36454 239.758125 
L 115.272472 239.758125 
L 115.272472 156.082812 
L 114.36454 156.082812 
z
" style="fill:#1f77b4;"/>
   </g>
   <g id="patch_58">
    <path clip-path="url(#pa236ee221d)" d="M 115.499456 239.758125 
L 116.407388 239.758125 
L 116.407388 155.793278 
L 115.499456 155.793278 
z
" style="fill:#1f77b4;"/>
   </g>
   <g id="patch_59">
    <path clip-path="url(#pa236ee221d)" d="M 116.634371 239.758125 
L 117.542303 239.758125 
L 117.542303 155.793278 
L 116.634371 155.793278 
z
" style="fill:#1f77b4;"/>
   </g>
   <g id="patch_60">
    <path clip-path="url(#pa236ee221d)" d="M 117.769286 239.758125 
L 118.677218 239.758125 
L 118.677218 155.793278 
L 117.769286 155.793278 
z
" style="fill:#1f77b4;"/>
   </g>
   <g id="patch_61">
    <path clip-path="url(#pa236ee221d)" d="M 118.904201 239.758125 
L 119.812133 239.758125 
L 119.812133 155.793278 
L 118.904201 155.793278 
z
" style="fill:#1f77b4;"/>
   </g>
   <g id="patch_62">
    <path clip-path="url(#pa236ee221d)" d="M 120.039117 239.758125 
L 120.947049 239.758125 
L 120.947049 155.793278 
L 120.039117 155.793278 
z
" style="fill:#1f77b4;"/>
   </g>
   <g id="patch_63">
    <path clip-path="url(#pa236ee221d)" d="M 121.174032 239.758125 
L 122.081964 239.758125 
L 122.081964 155.793278 
L 121.174032 155.793278 
z
" style="fill:#1f77b4;"/>
   </g>
   <g id="patch_64">
    <path clip-path="url(#pa236ee221d)" d="M 122.308947 239.758125 
L 123.216879 239.758125 
L 123.216879 155.793278 
L 122.308947 155.793278 
z
" style="fill:#1f77b4;"/>
   </g>
   <g id="patch_65">
    <path clip-path="url(#pa236ee221d)" d="M 123.443862 239.758125 
L 124.351794 239.758125 
L 124.351794 155.793278 
L 123.443862 155.793278 
z
" style="fill:#1f77b4;"/>
   </g>
   <g id="patch_66">
    <path clip-path="url(#pa236ee221d)" d="M 124.578778 239.758125 
L 125.48671 239.758125 
L 125.48671 155.793278 
L 124.578778 155.793278 
z
" style="fill:#1f77b4;"/>
   </g>
   <g id="patch_67">
    <path clip-path="url(#pa236ee221d)" d="M 125.713693 239.758125 
L 126.621625 239.758125 
L 126.621625 155.503744 
L 125.713693 155.503744 
z
" style="fill:#1f77b4;"/>
   </g>
   <g id="patch_68">
    <path clip-path="url(#pa236ee221d)" d="M 126.848608 239.758125 
L 127.75654 239.758125 
L 127.75654 155.503744 
L 126.848608 155.503744 
z
" style="fill:#1f77b4;"/>
   </g>
   <g id="patch_69">
    <path clip-path="url(#pa236ee221d)" d="M 127.983523 239.758125 
L 128.891456 239.758125 
L 128.891456 155.503744 
L 127.983523 155.503744 
z
" style="fill:#1f77b4;"/>
   </g>
   <g id="patch_70">
    <path clip-path="url(#pa236ee221d)" d="M 129.118439 239.758125 
L 130.026371 239.758125 
L 130.026371 155.503744 
L 129.118439 155.503744 
z
" style="fill:#1f77b4;"/>
   </g>
   <g id="patch_71">
    <path clip-path="url(#pa236ee221d)" d="M 130.253354 239.758125 
L 131.161286 239.758125 
L 131.161286 155.503744 
L 130.253354 155.503744 
z
" style="fill:#1f77b4;"/>
   </g>
   <g id="patch_72">
    <path clip-path="url(#pa236ee221d)" d="M 131.388269 239.758125 
L 132.296201 239.758125 
L 132.296201 155.503744 
L 131.388269 155.503744 
z
" style="fill:#1f77b4;"/>
   </g>
   <g id="patch_73">
    <path clip-path="url(#pa236ee221d)" d="M 132.523184 239.758125 
L 133.431117 239.758125 
L 133.431117 155.503744 
L 132.523184 155.503744 
z
" style="fill:#1f77b4;"/>
   </g>
   <g id="patch_74">
    <path clip-path="url(#pa236ee221d)" d="M 133.6581 239.758125 
L 134.566032 239.758125 
L 134.566032 155.503744 
L 133.6581 155.503744 
z
" style="fill:#1f77b4;"/>
   </g>
   <g id="patch_75">
    <path clip-path="url(#pa236ee221d)" d="M 134.793015 239.758125 
L 135.700947 239.758125 
L 135.700947 155.503744 
L 134.793015 155.503744 
z
" style="fill:#1f77b4;"/>
   </g>
   <g id="patch_76">
    <path clip-path="url(#pa236ee221d)" d="M 135.92793 239.758125 
L 136.835862 239.758125 
L 136.835862 155.503744 
L 135.92793 155.503744 
z
" style="fill:#1f77b4;"/>
   </g>
   <g id="patch_77">
    <path clip-path="url(#pa236ee221d)" d="M 137.062845 239.758125 
L 137.970778 239.758125 
L 137.970778 155.503744 
L 137.062845 155.503744 
z
" style="fill:#1f77b4;"/>
   </g>
   <g id="patch_78">
    <path clip-path="url(#pa236ee221d)" d="M 138.197761 239.758125 
L 139.105693 239.758125 
L 139.105693 155.503744 
L 138.197761 155.503744 
z
" style="fill:#1f77b4;"/>
   </g>
   <g id="patch_79">
    <path clip-path="url(#pa236ee221d)" d="M 139.332676 239.758125 
L 140.240608 239.758125 
L 140.240608 155.503744 
L 139.332676 155.503744 
z
" style="fill:#1f77b4;"/>
   </g>
   <g id="patch_80">
    <path clip-path="url(#pa236ee221d)" d="M 140.467591 239.758125 
L 141.375523 239.758125 
L 141.375523 155.503744 
L 140.467591 155.503744 
z
" style="fill:#1f77b4;"/>
   </g>
   <g id="patch_81">
    <path clip-path="url(#pa236ee221d)" d="M 141.602506 239.758125 
L 142.510439 239.758125 
L 142.510439 155.503744 
L 141.602506 155.503744 
z
" style="fill:#1f77b4;"/>
   </g>
   <g id="patch_82">
    <path clip-path="url(#pa236ee221d)" d="M 142.737422 239.758125 
L 143.645354 239.758125 
L 143.645354 155.503744 
L 142.737422 155.503744 
z
" style="fill:#1f77b4;"/>
   </g>
   <g id="patch_83">
    <path clip-path="url(#pa236ee221d)" d="M 143.872337 239.758125 
L 144.780269 239.758125 
L 144.780269 155.503744 
L 143.872337 155.503744 
z
" style="fill:#1f77b4;"/>
   </g>
   <g id="patch_84">
    <path clip-path="url(#pa236ee221d)" d="M 145.007252 239.758125 
L 145.915184 239.758125 
L 145.915184 155.21421 
L 145.007252 155.21421 
z
" style="fill:#1f77b4;"/>
   </g>
   <g id="patch_85">
    <path clip-path="url(#pa236ee221d)" d="M 146.142167 239.758125 
L 147.0501 239.758125 
L 147.0501 155.21421 
L 146.142167 155.21421 
z
" style="fill:#1f77b4;"/>
   </g>
   <g id="patch_86">
    <path clip-path="url(#pa236ee221d)" d="M 147.277083 239.758125 
L 148.185015 239.758125 
L 148.185015 155.21421 
L 147.277083 155.21421 
z
" style="fill:#1f77b4;"/>
   </g>
   <g id="patch_87">
    <path clip-path="url(#pa236ee221d)" d="M 148.411998 239.758125 
L 149.31993 239.758125 
L 149.31993 155.21421 
L 148.411998 155.21421 
z
" style="fill:#1f77b4;"/>
   </g>
   <g id="patch_88">
    <path clip-path="url(#pa236ee221d)" d="M 149.546913 239.758125 
L 150.454845 239.758125 
L 150.454845 155.21421 
L 149.546913 155.21421 
z
" style="fill:#1f77b4;"/>
   </g>
   <g id="patch_89">
    <path clip-path="url(#pa236ee221d)" d="M 150.681828 239.758125 
L 151.589761 239.758125 
L 151.589761 155.21421 
L 150.681828 155.21421 
z
" style="fill:#1f77b4;"/>
   </g>
   <g id="patch_90">
    <path clip-path="url(#pa236ee221d)" d="M 151.816744 239.758125 
L 152.724676 239.758125 
L 152.724676 155.21421 
L 151.816744 155.21421 
z
" style="fill:#1f77b4;"/>
   </g>
   <g id="patch_91">
    <path clip-path="url(#pa236ee221d)" d="M 152.951659 239.758125 
L 153.859591 239.758125 
L 153.859591 155.21421 
L 152.951659 155.21421 
z
" style="fill:#1f77b4;"/>
   </g>
   <g id="patch_92">
    <path clip-path="url(#pa236ee221d)" d="M 154.086574 239.758125 
L 154.994506 239.758125 
L 154.994506 155.503744 
L 154.086574 155.503744 
z
" style="fill:#1f77b4;"/>
   </g>
   <g id="patch_93">
    <path clip-path="url(#pa236ee221d)" d="M 155.221489 239.758125 
L 156.129422 239.758125 
L 156.129422 155.503744 
L 155.221489 155.503744 
z
" style="fill:#1f77b4;"/>
   </g>
   <g id="patch_94">
    <path clip-path="url(#pa236ee221d)" d="M 156.356405 239.758125 
L 157.264337 239.758125 
L 157.264337 155.503744 
L 156.356405 155.503744 
z
" style="fill:#1f77b4;"/>
   </g>
   <g id="patch_95">
    <path clip-path="url(#pa236ee221d)" d="M 157.49132 239.758125 
L 158.399252 239.758125 
L 158.399252 155.21421 
L 157.49132 155.21421 
z
" style="fill:#1f77b4;"/>
   </g>
   <g id="patch_96">
    <path clip-path="url(#pa236ee221d)" d="M 158.626235 239.758125 
L 159.534167 239.758125 
L 159.534167 155.21421 
L 158.626235 155.21421 
z
" style="fill:#1f77b4;"/>
   </g>
   <g id="patch_97">
    <path clip-path="url(#pa236ee221d)" d="M 159.76115 239.758125 
L 160.669083 239.758125 
L 160.669083 155.21421 
L 159.76115 155.21421 
z
" style="fill:#1f77b4;"/>
   </g>
   <g id="patch_98">
    <path clip-path="url(#pa236ee221d)" d="M 160.896066 239.758125 
L 161.803998 239.758125 
L 161.803998 155.21421 
L 160.896066 155.21421 
z
" style="fill:#1f77b4;"/>
   </g>
   <g id="patch_99">
    <path clip-path="url(#pa236ee221d)" d="M 162.030981 239.758125 
L 162.938913 239.758125 
L 162.938913 155.21421 
L 162.030981 155.21421 
z
" style="fill:#1f77b4;"/>
   </g>
   <g id="patch_100">
    <path clip-path="url(#pa236ee221d)" d="M 163.165896 239.758125 
L 164.073828 239.758125 
L 164.073828 155.21421 
L 163.165896 155.21421 
z
" style="fill:#1f77b4;"/>
   </g>
   <g id="patch_101">
    <path clip-path="url(#pa236ee221d)" d="M 164.300811 239.758125 
L 165.208744 239.758125 
L 165.208744 155.21421 
L 164.300811 155.21421 
z
" style="fill:#1f77b4;"/>
   </g>
   <g id="patch_102">
    <path clip-path="url(#pa236ee221d)" d="M 165.435727 239.758125 
L 166.343659 239.758125 
L 166.343659 155.21421 
L 165.435727 155.21421 
z
" style="fill:#1f77b4;"/>
   </g>
   <g id="patch_103">
    <path clip-path="url(#pa236ee221d)" d="M 166.570642 239.758125 
L 167.478574 239.758125 
L 167.478574 155.21421 
L 166.570642 155.21421 
z
" style="fill:#1f77b4;"/>
   </g>
   <g id="patch_104">
    <path clip-path="url(#pa236ee221d)" d="M 167.705557 239.758125 
L 168.613489 239.758125 
L 168.613489 155.21421 
L 167.705557 155.21421 
z
" style="fill:#1f77b4;"/>
   </g>
   <g id="patch_105">
    <path clip-path="url(#pa236ee221d)" d="M 168.840472 239.758125 
L 169.748405 239.758125 
L 169.748405 155.21421 
L 168.840472 155.21421 
z
" style="fill:#1f77b4;"/>
   </g>
   <g id="patch_106">
    <path clip-path="url(#pa236ee221d)" d="M 169.975388 239.758125 
L 170.88332 239.758125 
L 170.88332 155.21421 
L 169.975388 155.21421 
z
" style="fill:#1f77b4;"/>
   </g>
   <g id="patch_107">
    <path clip-path="url(#pa236ee221d)" d="M 171.110303 239.758125 
L 172.018235 239.758125 
L 172.018235 155.21421 
L 171.110303 155.21421 
z
" style="fill:#1f77b4;"/>
   </g>
   <g id="patch_108">
    <path clip-path="url(#pa236ee221d)" d="M 172.245218 239.758125 
L 173.15315 239.758125 
L 173.15315 155.21421 
L 172.245218 155.21421 
z
" style="fill:#1f77b4;"/>
   </g>
   <g id="patch_109">
    <path clip-path="url(#pa236ee221d)" d="M 173.380133 239.758125 
L 174.288066 239.758125 
L 174.288066 155.21421 
L 173.380133 155.21421 
z
" style="fill:#1f77b4;"/>
   </g>
   <g id="patch_110">
    <path clip-path="url(#pa236ee221d)" d="M 174.515049 239.758125 
L 175.422981 239.758125 
L 175.422981 155.21421 
L 174.515049 155.21421 
z
" style="fill:#1f77b4;"/>
   </g>
   <g id="patch_111">
    <path clip-path="url(#pa236ee221d)" d="M 175.649964 239.758125 
L 176.557896 239.758125 
L 176.557896 155.21421 
L 175.649964 155.21421 
z
" style="fill:#1f77b4;"/>
   </g>
   <g id="patch_112">
    <path clip-path="url(#pa236ee221d)" d="M 176.784879 239.758125 
L 177.692811 239.758125 
L 177.692811 155.21421 
L 176.784879 155.21421 
z
" style="fill:#1f77b4;"/>
   </g>
   <g id="patch_113">
    <path clip-path="url(#pa236ee221d)" d="M 177.919794 239.758125 
L 178.827727 239.758125 
L 178.827727 155.21421 
L 177.919794 155.21421 
z
" style="fill:#1f77b4;"/>
   </g>
   <g id="patch_114">
    <path clip-path="url(#pa236ee221d)" d="M 179.05471 239.758125 
L 179.962642 239.758125 
L 179.962642 155.21421 
L 179.05471 155.21421 
z
" style="fill:#1f77b4;"/>
   </g>
   <g id="patch_115">
    <path clip-path="url(#pa236ee221d)" d="M 180.189625 239.758125 
L 181.097557 239.758125 
L 181.097557 155.21421 
L 180.189625 155.21421 
z
" style="fill:#1f77b4;"/>
   </g>
   <g id="patch_116">
    <path clip-path="url(#pa236ee221d)" d="M 181.32454 239.758125 
L 182.232472 239.758125 
L 182.232472 155.21421 
L 181.32454 155.21421 
z
" style="fill:#1f77b4;"/>
   </g>
   <g id="patch_117">
    <path clip-path="url(#pa236ee221d)" d="M 182.459456 239.758125 
L 183.367388 239.758125 
L 183.367388 155.21421 
L 182.459456 155.21421 
z
" style="fill:#1f77b4;"/>
   </g>
   <g id="patch_118">
    <path clip-path="url(#pa236ee221d)" d="M 183.594371 239.758125 
L 184.502303 239.758125 
L 184.502303 155.21421 
L 183.594371 155.21421 
z
" style="fill:#1f77b4;"/>
   </g>
   <g id="patch_119">
    <path clip-path="url(#pa236ee221d)" d="M 184.729286 239.758125 
L 185.637218 239.758125 
L 185.637218 155.21421 
L 184.729286 155.21421 
z
" style="fill:#1f77b4;"/>
   </g>
   <g id="patch_120">
    <path clip-path="url(#pa236ee221d)" d="M 185.864201 239.758125 
L 186.772133 239.758125 
L 186.772133 155.21421 
L 185.864201 155.21421 
z
" style="fill:#1f77b4;"/>
   </g>
   <g id="patch_121">
    <path clip-path="url(#pa236ee221d)" d="M 186.999117 239.758125 
L 187.907049 239.758125 
L 187.907049 155.21421 
L 186.999117 155.21421 
z
" style="fill:#1f77b4;"/>
   </g>
   <g id="patch_122">
    <path clip-path="url(#pa236ee221d)" d="M 188.134032 239.758125 
L 189.041964 239.758125 
L 189.041964 155.21421 
L 188.134032 155.21421 
z
" style="fill:#1f77b4;"/>
   </g>
   <g id="patch_123">
    <path clip-path="url(#pa236ee221d)" d="M 189.268947 239.758125 
L 190.176879 239.758125 
L 190.176879 155.21421 
L 189.268947 155.21421 
z
" style="fill:#1f77b4;"/>
   </g>
   <g id="patch_124">
    <path clip-path="url(#pa236ee221d)" d="M 190.403862 239.758125 
L 191.311794 239.758125 
L 191.311794 155.21421 
L 190.403862 155.21421 
z
" style="fill:#1f77b4;"/>
   </g>
   <g id="patch_125">
    <path clip-path="url(#pa236ee221d)" d="M 191.538778 239.758125 
L 192.44671 239.758125 
L 192.44671 155.21421 
L 191.538778 155.21421 
z
" style="fill:#1f77b4;"/>
   </g>
   <g id="patch_126">
    <path clip-path="url(#pa236ee221d)" d="M 192.673693 239.758125 
L 193.581625 239.758125 
L 193.581625 155.21421 
L 192.673693 155.21421 
z
" style="fill:#1f77b4;"/>
   </g>
   <g id="patch_127">
    <path clip-path="url(#pa236ee221d)" d="M 193.808608 239.758125 
L 194.71654 239.758125 
L 194.71654 155.21421 
L 193.808608 155.21421 
z
" style="fill:#1f77b4;"/>
   </g>
   <g id="patch_128">
    <path clip-path="url(#pa236ee221d)" d="M 194.943523 239.758125 
L 195.851456 239.758125 
L 195.851456 155.21421 
L 194.943523 155.21421 
z
" style="fill:#1f77b4;"/>
   </g>
   <g id="patch_129">
    <path clip-path="url(#pa236ee221d)" d="M 196.078439 239.758125 
L 196.986371 239.758125 
L 196.986371 155.21421 
L 196.078439 155.21421 
z
" style="fill:#1f77b4;"/>
   </g>
   <g id="patch_130">
    <path clip-path="url(#pa236ee221d)" d="M 197.213354 239.758125 
L 198.121286 239.758125 
L 198.121286 155.21421 
L 197.213354 155.21421 
z
" style="fill:#1f77b4;"/>
   </g>
   <g id="patch_131">
    <path clip-path="url(#pa236ee221d)" d="M 198.348269 239.758125 
L 199.256201 239.758125 
L 199.256201 155.21421 
L 198.348269 155.21421 
z
" style="fill:#1f77b4;"/>
   </g>
   <g id="patch_132">
    <path clip-path="url(#pa236ee221d)" d="M 199.483184 239.758125 
L 200.391117 239.758125 
L 200.391117 155.21421 
L 199.483184 155.21421 
z
" style="fill:#1f77b4;"/>
   </g>
   <g id="patch_133">
    <path clip-path="url(#pa236ee221d)" d="M 200.6181 239.758125 
L 201.526032 239.758125 
L 201.526032 155.21421 
L 200.6181 155.21421 
z
" style="fill:#1f77b4;"/>
   </g>
   <g id="patch_134">
    <path clip-path="url(#pa236ee221d)" d="M 201.753015 239.758125 
L 202.660947 239.758125 
L 202.660947 155.21421 
L 201.753015 155.21421 
z
" style="fill:#1f77b4;"/>
   </g>
   <g id="patch_135">
    <path clip-path="url(#pa236ee221d)" d="M 202.88793 239.758125 
L 203.795862 239.758125 
L 203.795862 155.21421 
L 202.88793 155.21421 
z
" style="fill:#1f77b4;"/>
   </g>
   <g id="patch_136">
    <path clip-path="url(#pa236ee221d)" d="M 204.022845 239.758125 
L 204.930778 239.758125 
L 204.930778 155.21421 
L 204.022845 155.21421 
z
" style="fill:#1f77b4;"/>
   </g>
   <g id="patch_137">
    <path clip-path="url(#pa236ee221d)" d="M 205.157761 239.758125 
L 206.065693 239.758125 
L 206.065693 155.21421 
L 205.157761 155.21421 
z
" style="fill:#1f77b4;"/>
   </g>
   <g id="patch_138">
    <path clip-path="url(#pa236ee221d)" d="M 206.292676 239.758125 
L 207.200608 239.758125 
L 207.200608 155.21421 
L 206.292676 155.21421 
z
" style="fill:#1f77b4;"/>
   </g>
   <g id="patch_139">
    <path clip-path="url(#pa236ee221d)" d="M 207.427591 239.758125 
L 208.335523 239.758125 
L 208.335523 155.21421 
L 207.427591 155.21421 
z
" style="fill:#1f77b4;"/>
   </g>
   <g id="patch_140">
    <path clip-path="url(#pa236ee221d)" d="M 208.562506 239.758125 
L 209.470439 239.758125 
L 209.470439 155.21421 
L 208.562506 155.21421 
z
" style="fill:#1f77b4;"/>
   </g>
   <g id="patch_141">
    <path clip-path="url(#pa236ee221d)" d="M 209.697422 239.758125 
L 210.605354 239.758125 
L 210.605354 155.21421 
L 209.697422 155.21421 
z
" style="fill:#1f77b4;"/>
   </g>
   <g id="patch_142">
    <path clip-path="url(#pa236ee221d)" d="M 210.832337 239.758125 
L 211.740269 239.758125 
L 211.740269 155.21421 
L 210.832337 155.21421 
z
" style="fill:#1f77b4;"/>
   </g>
   <g id="patch_143">
    <path clip-path="url(#pa236ee221d)" d="M 211.967252 239.758125 
L 212.875184 239.758125 
L 212.875184 155.21421 
L 211.967252 155.21421 
z
" style="fill:#1f77b4;"/>
   </g>
   <g id="patch_144">
    <path clip-path="url(#pa236ee221d)" d="M 213.102167 239.758125 
L 214.0101 239.758125 
L 214.0101 155.21421 
L 213.102167 155.21421 
z
" style="fill:#1f77b4;"/>
   </g>
   <g id="patch_145">
    <path clip-path="url(#pa236ee221d)" d="M 214.237083 239.758125 
L 215.145015 239.758125 
L 215.145015 155.21421 
L 214.237083 155.21421 
z
" style="fill:#1f77b4;"/>
   </g>
   <g id="patch_146">
    <path clip-path="url(#pa236ee221d)" d="M 215.371998 239.758125 
L 216.27993 239.758125 
L 216.27993 155.21421 
L 215.371998 155.21421 
z
" style="fill:#1f77b4;"/>
   </g>
   <g id="patch_147">
    <path clip-path="url(#pa236ee221d)" d="M 216.506913 239.758125 
L 217.414845 239.758125 
L 217.414845 155.21421 
L 216.506913 155.21421 
z
" style="fill:#1f77b4;"/>
   </g>
   <g id="patch_148">
    <path clip-path="url(#pa236ee221d)" d="M 217.641828 239.758125 
L 218.549761 239.758125 
L 218.549761 155.21421 
L 217.641828 155.21421 
z
" style="fill:#1f77b4;"/>
   </g>
   <g id="patch_149">
    <path clip-path="url(#pa236ee221d)" d="M 218.776744 239.758125 
L 219.684676 239.758125 
L 219.684676 155.21421 
L 218.776744 155.21421 
z
" style="fill:#1f77b4;"/>
   </g>
   <g id="patch_150">
    <path clip-path="url(#pa236ee221d)" d="M 219.911659 239.758125 
L 220.819591 239.758125 
L 220.819591 155.21421 
L 219.911659 155.21421 
z
" style="fill:#1f77b4;"/>
   </g>
   <g id="patch_151">
    <path clip-path="url(#pa236ee221d)" d="M 221.046574 239.758125 
L 221.954506 239.758125 
L 221.954506 155.21421 
L 221.046574 155.21421 
z
" style="fill:#1f77b4;"/>
   </g>
   <g id="patch_152">
    <path clip-path="url(#pa236ee221d)" d="M 222.181489 239.758125 
L 223.089422 239.758125 
L 223.089422 155.21421 
L 222.181489 155.21421 
z
" style="fill:#1f77b4;"/>
   </g>
   <g id="patch_153">
    <path clip-path="url(#pa236ee221d)" d="M 223.316405 239.758125 
L 224.224337 239.758125 
L 224.224337 155.21421 
L 223.316405 155.21421 
z
" style="fill:#1f77b4;"/>
   </g>
   <g id="patch_154">
    <path clip-path="url(#pa236ee221d)" d="M 224.45132 239.758125 
L 225.359252 239.758125 
L 225.359252 155.21421 
L 224.45132 155.21421 
z
" style="fill:#1f77b4;"/>
   </g>
   <g id="patch_155">
    <path clip-path="url(#pa236ee221d)" d="M 225.586235 239.758125 
L 226.494167 239.758125 
L 226.494167 155.21421 
L 225.586235 155.21421 
z
" style="fill:#1f77b4;"/>
   </g>
   <g id="patch_156">
    <path clip-path="url(#pa236ee221d)" d="M 226.72115 239.758125 
L 227.629083 239.758125 
L 227.629083 155.21421 
L 226.72115 155.21421 
z
" style="fill:#1f77b4;"/>
   </g>
   <g id="patch_157">
    <path clip-path="url(#pa236ee221d)" d="M 227.856066 239.758125 
L 228.763998 239.758125 
L 228.763998 155.21421 
L 227.856066 155.21421 
z
" style="fill:#1f77b4;"/>
   </g>
   <g id="patch_158">
    <path clip-path="url(#pa236ee221d)" d="M 228.990981 239.758125 
L 229.898913 239.758125 
L 229.898913 155.21421 
L 228.990981 155.21421 
z
" style="fill:#1f77b4;"/>
   </g>
   <g id="patch_159">
    <path clip-path="url(#pa236ee221d)" d="M 230.125896 239.758125 
L 231.033828 239.758125 
L 231.033828 155.21421 
L 230.125896 155.21421 
z
" style="fill:#1f77b4;"/>
   </g>
   <g id="patch_160">
    <path clip-path="url(#pa236ee221d)" d="M 231.260811 239.758125 
L 232.168744 239.758125 
L 232.168744 155.21421 
L 231.260811 155.21421 
z
" style="fill:#1f77b4;"/>
   </g>
   <g id="patch_161">
    <path clip-path="url(#pa236ee221d)" d="M 232.395727 239.758125 
L 233.303659 239.758125 
L 233.303659 155.21421 
L 232.395727 155.21421 
z
" style="fill:#1f77b4;"/>
   </g>
   <g id="patch_162">
    <path clip-path="url(#pa236ee221d)" d="M 233.530642 239.758125 
L 234.438574 239.758125 
L 234.438574 155.21421 
L 233.530642 155.21421 
z
" style="fill:#1f77b4;"/>
   </g>
   <g id="patch_163">
    <path clip-path="url(#pa236ee221d)" d="M 234.665557 239.758125 
L 235.573489 239.758125 
L 235.573489 155.21421 
L 234.665557 155.21421 
z
" style="fill:#1f77b4;"/>
   </g>
   <g id="patch_164">
    <path clip-path="url(#pa236ee221d)" d="M 235.800472 239.758125 
L 236.708405 239.758125 
L 236.708405 155.21421 
L 235.800472 155.21421 
z
" style="fill:#1f77b4;"/>
   </g>
   <g id="patch_165">
    <path clip-path="url(#pa236ee221d)" d="M 236.935388 239.758125 
L 237.84332 239.758125 
L 237.84332 155.21421 
L 236.935388 155.21421 
z
" style="fill:#1f77b4;"/>
   </g>
   <g id="patch_166">
    <path clip-path="url(#pa236ee221d)" d="M 238.070303 239.758125 
L 238.978235 239.758125 
L 238.978235 155.793278 
L 238.070303 155.793278 
z
" style="fill:#1f77b4;"/>
   </g>
   <g id="patch_167">
    <path clip-path="url(#pa236ee221d)" d="M 239.205218 239.758125 
L 240.11315 239.758125 
L 240.11315 155.21421 
L 239.205218 155.21421 
z
" style="fill:#1f77b4;"/>
   </g>
   <g id="patch_168">
    <path clip-path="url(#pa236ee221d)" d="M 240.340133 239.758125 
L 241.248066 239.758125 
L 241.248066 155.21421 
L 240.340133 155.21421 
z
" style="fill:#1f77b4;"/>
   </g>
   <g id="patch_169">
    <path clip-path="url(#pa236ee221d)" d="M 241.475049 239.758125 
L 242.382981 239.758125 
L 242.382981 155.21421 
L 241.475049 155.21421 
z
" style="fill:#1f77b4;"/>
   </g>
   <g id="patch_170">
    <path clip-path="url(#pa236ee221d)" d="M 242.609964 239.758125 
L 243.517896 239.758125 
L 243.517896 155.21421 
L 242.609964 155.21421 
z
" style="fill:#1f77b4;"/>
   </g>
   <g id="patch_171">
    <path clip-path="url(#pa236ee221d)" d="M 243.744879 239.758125 
L 244.652811 239.758125 
L 244.652811 155.21421 
L 243.744879 155.21421 
z
" style="fill:#1f77b4;"/>
   </g>
   <g id="patch_172">
    <path clip-path="url(#pa236ee221d)" d="M 244.879794 239.758125 
L 245.787727 239.758125 
L 245.787727 155.21421 
L 244.879794 155.21421 
z
" style="fill:#1f77b4;"/>
   </g>
   <g id="patch_173">
    <path clip-path="url(#pa236ee221d)" d="M 246.01471 239.758125 
L 246.922642 239.758125 
L 246.922642 155.21421 
L 246.01471 155.21421 
z
" style="fill:#1f77b4;"/>
   </g>
   <g id="patch_174">
    <path clip-path="url(#pa236ee221d)" d="M 247.149625 239.758125 
L 248.057557 239.758125 
L 248.057557 155.21421 
L 247.149625 155.21421 
z
" style="fill:#1f77b4;"/>
   </g>
   <g id="patch_175">
    <path clip-path="url(#pa236ee221d)" d="M 248.28454 239.758125 
L 249.192472 239.758125 
L 249.192472 155.21421 
L 248.28454 155.21421 
z
" style="fill:#1f77b4;"/>
   </g>
   <g id="patch_176">
    <path clip-path="url(#pa236ee221d)" d="M 249.419456 239.758125 
L 250.327388 239.758125 
L 250.327388 155.21421 
L 249.419456 155.21421 
z
" style="fill:#1f77b4;"/>
   </g>
   <g id="patch_177">
    <path clip-path="url(#pa236ee221d)" d="M 250.554371 239.758125 
L 251.462303 239.758125 
L 251.462303 155.21421 
L 250.554371 155.21421 
z
" style="fill:#1f77b4;"/>
   </g>
   <g id="patch_178">
    <path clip-path="url(#pa236ee221d)" d="M 251.689286 239.758125 
L 252.597218 239.758125 
L 252.597218 155.21421 
L 251.689286 155.21421 
z
" style="fill:#1f77b4;"/>
   </g>
   <g id="patch_179">
    <path clip-path="url(#pa236ee221d)" d="M 252.824201 239.758125 
L 253.732133 239.758125 
L 253.732133 155.21421 
L 252.824201 155.21421 
z
" style="fill:#1f77b4;"/>
   </g>
   <g id="patch_180">
    <path clip-path="url(#pa236ee221d)" d="M 253.959117 239.758125 
L 254.867049 239.758125 
L 254.867049 155.21421 
L 253.959117 155.21421 
z
" style="fill:#1f77b4;"/>
   </g>
   <g id="patch_181">
    <path clip-path="url(#pa236ee221d)" d="M 255.094032 239.758125 
L 256.001964 239.758125 
L 256.001964 155.21421 
L 255.094032 155.21421 
z
" style="fill:#1f77b4;"/>
   </g>
   <g id="patch_182">
    <path clip-path="url(#pa236ee221d)" d="M 256.228947 239.758125 
L 257.136879 239.758125 
L 257.136879 155.21421 
L 256.228947 155.21421 
z
" style="fill:#1f77b4;"/>
   </g>
   <g id="patch_183">
    <path clip-path="url(#pa236ee221d)" d="M 257.363862 239.758125 
L 258.271794 239.758125 
L 258.271794 155.21421 
L 257.363862 155.21421 
z
" style="fill:#1f77b4;"/>
   </g>
   <g id="patch_184">
    <path clip-path="url(#pa236ee221d)" d="M 258.498778 239.758125 
L 259.40671 239.758125 
L 259.40671 155.21421 
L 258.498778 155.21421 
z
" style="fill:#1f77b4;"/>
   </g>
   <g id="patch_185">
    <path clip-path="url(#pa236ee221d)" d="M 259.633693 239.758125 
L 260.541625 239.758125 
L 260.541625 155.21421 
L 259.633693 155.21421 
z
" style="fill:#1f77b4;"/>
   </g>
   <g id="patch_186">
    <path clip-path="url(#pa236ee221d)" d="M 260.768608 239.758125 
L 261.67654 239.758125 
L 261.67654 155.21421 
L 260.768608 155.21421 
z
" style="fill:#1f77b4;"/>
   </g>
   <g id="patch_187">
    <path clip-path="url(#pa236ee221d)" d="M 261.903523 239.758125 
L 262.811456 239.758125 
L 262.811456 155.21421 
L 261.903523 155.21421 
z
" style="fill:#1f77b4;"/>
   </g>
   <g id="patch_188">
    <path clip-path="url(#pa236ee221d)" d="M 263.038439 239.758125 
L 263.946371 239.758125 
L 263.946371 155.21421 
L 263.038439 155.21421 
z
" style="fill:#1f77b4;"/>
   </g>
   <g id="patch_189">
    <path clip-path="url(#pa236ee221d)" d="M 264.173354 239.758125 
L 265.081286 239.758125 
L 265.081286 155.21421 
L 264.173354 155.21421 
z
" style="fill:#1f77b4;"/>
   </g>
   <g id="patch_190">
    <path clip-path="url(#pa236ee221d)" d="M 265.308269 239.758125 
L 266.216201 239.758125 
L 266.216201 155.21421 
L 265.308269 155.21421 
z
" style="fill:#1f77b4;"/>
   </g>
   <g id="patch_191">
    <path clip-path="url(#pa236ee221d)" d="M 266.443184 239.758125 
L 267.351117 239.758125 
L 267.351117 155.21421 
L 266.443184 155.21421 
z
" style="fill:#1f77b4;"/>
   </g>
   <g id="patch_192">
    <path clip-path="url(#pa236ee221d)" d="M 267.5781 239.758125 
L 268.486032 239.758125 
L 268.486032 155.21421 
L 267.5781 155.21421 
z
" style="fill:#1f77b4;"/>
   </g>
   <g id="patch_193">
    <path clip-path="url(#pa236ee221d)" d="M 268.713015 239.758125 
L 269.620947 239.758125 
L 269.620947 155.21421 
L 268.713015 155.21421 
z
" style="fill:#1f77b4;"/>
   </g>
   <g id="patch_194">
    <path clip-path="url(#pa236ee221d)" d="M 269.84793 239.758125 
L 270.755862 239.758125 
L 270.755862 155.21421 
L 269.84793 155.21421 
z
" style="fill:#1f77b4;"/>
   </g>
   <g id="patch_195">
    <path clip-path="url(#pa236ee221d)" d="M 270.982845 239.758125 
L 271.890778 239.758125 
L 271.890778 155.21421 
L 270.982845 155.21421 
z
" style="fill:#1f77b4;"/>
   </g>
   <g id="patch_196">
    <path clip-path="url(#pa236ee221d)" d="M 272.117761 239.758125 
L 273.025693 239.758125 
L 273.025693 155.21421 
L 272.117761 155.21421 
z
" style="fill:#1f77b4;"/>
   </g>
   <g id="patch_197">
    <path clip-path="url(#pa236ee221d)" d="M 273.252676 239.758125 
L 274.160608 239.758125 
L 274.160608 155.21421 
L 273.252676 155.21421 
z
" style="fill:#1f77b4;"/>
   </g>
   <g id="patch_198">
    <path clip-path="url(#pa236ee221d)" d="M 274.387591 239.758125 
L 275.295523 239.758125 
L 275.295523 155.21421 
L 274.387591 155.21421 
z
" style="fill:#1f77b4;"/>
   </g>
   <g id="patch_199">
    <path clip-path="url(#pa236ee221d)" d="M 275.522506 239.758125 
L 276.430439 239.758125 
L 276.430439 155.21421 
L 275.522506 155.21421 
z
" style="fill:#1f77b4;"/>
   </g>
   <g id="patch_200">
    <path clip-path="url(#pa236ee221d)" d="M 276.657422 239.758125 
L 277.565354 239.758125 
L 277.565354 155.21421 
L 276.657422 155.21421 
z
" style="fill:#1f77b4;"/>
   </g>
   <g id="patch_201">
    <path clip-path="url(#pa236ee221d)" d="M 277.792337 239.758125 
L 278.700269 239.758125 
L 278.700269 155.21421 
L 277.792337 155.21421 
z
" style="fill:#1f77b4;"/>
   </g>
   <g id="patch_202">
    <path clip-path="url(#pa236ee221d)" d="M 278.927252 239.758125 
L 279.835184 239.758125 
L 279.835184 155.21421 
L 278.927252 155.21421 
z
" style="fill:#1f77b4;"/>
   </g>
   <g id="patch_203">
    <path clip-path="url(#pa236ee221d)" d="M 280.062167 239.758125 
L 280.9701 239.758125 
L 280.9701 155.21421 
L 280.062167 155.21421 
z
" style="fill:#1f77b4;"/>
   </g>
   <g id="patch_204">
    <path clip-path="url(#pa236ee221d)" d="M 281.197083 239.758125 
L 282.105015 239.758125 
L 282.105015 155.21421 
L 281.197083 155.21421 
z
" style="fill:#1f77b4;"/>
   </g>
   <g id="patch_205">
    <path clip-path="url(#pa236ee221d)" d="M 282.331998 239.758125 
L 283.23993 239.758125 
L 283.23993 155.21421 
L 282.331998 155.21421 
z
" style="fill:#1f77b4;"/>
   </g>
   <g id="patch_206">
    <path clip-path="url(#pa236ee221d)" d="M 283.466913 239.758125 
L 284.374845 239.758125 
L 284.374845 155.21421 
L 283.466913 155.21421 
z
" style="fill:#1f77b4;"/>
   </g>
   <g id="patch_207">
    <path clip-path="url(#pa236ee221d)" d="M 284.601828 239.758125 
L 285.509761 239.758125 
L 285.509761 155.21421 
L 284.601828 155.21421 
z
" style="fill:#1f77b4;"/>
   </g>
   <g id="patch_208">
    <path clip-path="url(#pa236ee221d)" d="M 285.736744 239.758125 
L 286.644676 239.758125 
L 286.644676 155.21421 
L 285.736744 155.21421 
z
" style="fill:#1f77b4;"/>
   </g>
   <g id="patch_209">
    <path clip-path="url(#pa236ee221d)" d="M 286.871659 239.758125 
L 287.779591 239.758125 
L 287.779591 155.21421 
L 286.871659 155.21421 
z
" style="fill:#1f77b4;"/>
   </g>
   <g id="patch_210">
    <path clip-path="url(#pa236ee221d)" d="M 288.006574 239.758125 
L 288.914506 239.758125 
L 288.914506 155.21421 
L 288.006574 155.21421 
z
" style="fill:#1f77b4;"/>
   </g>
   <g id="patch_211">
    <path clip-path="url(#pa236ee221d)" d="M 289.141489 239.758125 
L 290.049422 239.758125 
L 290.049422 155.21421 
L 289.141489 155.21421 
z
" style="fill:#1f77b4;"/>
   </g>
   <g id="patch_212">
    <path clip-path="url(#pa236ee221d)" d="M 290.276405 239.758125 
L 291.184337 239.758125 
L 291.184337 155.21421 
L 290.276405 155.21421 
z
" style="fill:#1f77b4;"/>
   </g>
   <g id="patch_213">
    <path clip-path="url(#pa236ee221d)" d="M 291.41132 239.758125 
L 292.319252 239.758125 
L 292.319252 154.924676 
L 291.41132 154.924676 
z
" style="fill:#1f77b4;"/>
   </g>
   <g id="patch_214">
    <path clip-path="url(#pa236ee221d)" d="M 292.546235 239.758125 
L 293.454167 239.758125 
L 293.454167 154.924676 
L 292.546235 154.924676 
z
" style="fill:#1f77b4;"/>
   </g>
   <g id="patch_215">
    <path clip-path="url(#pa236ee221d)" d="M 293.68115 239.758125 
L 294.589083 239.758125 
L 294.589083 154.924676 
L 293.68115 154.924676 
z
" style="fill:#1f77b4;"/>
   </g>
   <g id="patch_216">
    <path clip-path="url(#pa236ee221d)" d="M 294.816066 239.758125 
L 295.723998 239.758125 
L 295.723998 154.924676 
L 294.816066 154.924676 
z
" style="fill:#1f77b4;"/>
   </g>
   <g id="patch_217">
    <path clip-path="url(#pa236ee221d)" d="M 295.950981 239.758125 
L 296.858913 239.758125 
L 296.858913 154.924676 
L 295.950981 154.924676 
z
" style="fill:#1f77b4;"/>
   </g>
   <g id="patch_218">
    <path clip-path="url(#pa236ee221d)" d="M 297.085896 239.758125 
L 297.993828 239.758125 
L 297.993828 154.924676 
L 297.085896 154.924676 
z
" style="fill:#1f77b4;"/>
   </g>
   <g id="patch_219">
    <path clip-path="url(#pa236ee221d)" d="M 298.220811 239.758125 
L 299.128744 239.758125 
L 299.128744 154.924676 
L 298.220811 154.924676 
z
" style="fill:#1f77b4;"/>
   </g>
   <g id="patch_220">
    <path clip-path="url(#pa236ee221d)" d="M 299.355727 239.758125 
L 300.263659 239.758125 
L 300.263659 154.924676 
L 299.355727 154.924676 
z
" style="fill:#1f77b4;"/>
   </g>
   <g id="patch_221">
    <path clip-path="url(#pa236ee221d)" d="M 300.490642 239.758125 
L 301.398574 239.758125 
L 301.398574 154.635142 
L 300.490642 154.635142 
z
" style="fill:#1f77b4;"/>
   </g>
   <g id="patch_222">
    <path clip-path="url(#pa236ee221d)" d="M 301.625557 239.758125 
L 302.533489 239.758125 
L 302.533489 154.635142 
L 301.625557 154.635142 
z
" style="fill:#1f77b4;"/>
   </g>
   <g id="patch_223">
    <path clip-path="url(#pa236ee221d)" d="M 302.760472 239.758125 
L 303.668405 239.758125 
L 303.668405 154.056074 
L 302.760472 154.056074 
z
" style="fill:#1f77b4;"/>
   </g>
   <g id="patch_224">
    <path clip-path="url(#pa236ee221d)" d="M 303.895388 239.758125 
L 304.80332 239.758125 
L 304.80332 154.056074 
L 303.895388 154.056074 
z
" style="fill:#1f77b4;"/>
   </g>
   <g id="patch_225">
    <path clip-path="url(#pa236ee221d)" d="M 305.030303 239.758125 
L 305.938235 239.758125 
L 305.938235 154.056074 
L 305.030303 154.056074 
z
" style="fill:#1f77b4;"/>
   </g>
   <g id="patch_226">
    <path clip-path="url(#pa236ee221d)" d="M 306.165218 239.758125 
L 307.07315 239.758125 
L 307.07315 154.056074 
L 306.165218 154.056074 
z
" style="fill:#1f77b4;"/>
   </g>
   <g id="patch_227">
    <path clip-path="url(#pa236ee221d)" d="M 307.300133 239.758125 
L 308.208066 239.758125 
L 308.208066 154.056074 
L 307.300133 154.056074 
z
" style="fill:#1f77b4;"/>
   </g>
   <g id="patch_228">
    <path clip-path="url(#pa236ee221d)" d="M 308.435049 239.758125 
L 309.342981 239.758125 
L 309.342981 153.187473 
L 308.435049 153.187473 
z
" style="fill:#1f77b4;"/>
   </g>
   <g id="patch_229">
    <path clip-path="url(#pa236ee221d)" d="M 309.569964 239.758125 
L 310.477896 239.758125 
L 310.477896 152.897939 
L 309.569964 152.897939 
z
" style="fill:#1f77b4;"/>
   </g>
   <g id="patch_230">
    <path clip-path="url(#pa236ee221d)" d="M 310.704879 239.758125 
L 311.612811 239.758125 
L 311.612811 151.739803 
L 310.704879 151.739803 
z
" style="fill:#1f77b4;"/>
   </g>
   <g id="patch_231">
    <path clip-path="url(#pa236ee221d)" d="M 311.839794 239.758125 
L 312.747727 239.758125 
L 312.747727 151.160735 
L 311.839794 151.160735 
z
" style="fill:#1f77b4;"/>
   </g>
   <g id="patch_232">
    <path clip-path="url(#pa236ee221d)" d="M 312.97471 239.758125 
L 313.882642 239.758125 
L 313.882642 150.581667 
L 312.97471 150.581667 
z
" style="fill:#1f77b4;"/>
   </g>
   <g id="patch_233">
    <path clip-path="url(#pa236ee221d)" d="M 314.109625 239.758125 
L 315.017557 239.758125 
L 315.017557 149.423531 
L 314.109625 149.423531 
z
" style="fill:#1f77b4;"/>
   </g>
   <g id="patch_234">
    <path clip-path="url(#pa236ee221d)" d="M 315.24454 239.758125 
L 316.152472 239.758125 
L 316.152472 148.554929 
L 315.24454 148.554929 
z
" style="fill:#1f77b4;"/>
   </g>
   <g id="patch_235">
    <path clip-path="url(#pa236ee221d)" d="M 316.379456 239.758125 
L 317.287388 239.758125 
L 317.287388 147.396793 
L 316.379456 147.396793 
z
" style="fill:#1f77b4;"/>
   </g>
   <g id="patch_236">
    <path clip-path="url(#pa236ee221d)" d="M 317.514371 239.758125 
L 318.422303 239.758125 
L 318.422303 147.107259 
L 317.514371 147.107259 
z
" style="fill:#1f77b4;"/>
   </g>
   <g id="patch_237">
    <path clip-path="url(#pa236ee221d)" d="M 318.649286 239.758125 
L 319.557218 239.758125 
L 319.557218 146.528192 
L 318.649286 146.528192 
z
" style="fill:#1f77b4;"/>
   </g>
   <g id="patch_238">
    <path clip-path="url(#pa236ee221d)" d="M 319.784201 239.758125 
L 320.692133 239.758125 
L 320.692133 145.370056 
L 319.784201 145.370056 
z
" style="fill:#1f77b4;"/>
   </g>
   <g id="patch_239">
    <path clip-path="url(#pa236ee221d)" d="M 320.919117 239.758125 
L 321.827049 239.758125 
L 321.827049 144.21192 
L 320.919117 144.21192 
z
" style="fill:#1f77b4;"/>
   </g>
   <g id="patch_240">
    <path clip-path="url(#pa236ee221d)" d="M 322.054032 239.758125 
L 322.961964 239.758125 
L 322.961964 142.185182 
L 322.054032 142.185182 
z
" style="fill:#1f77b4;"/>
   </g>
   <g id="patch_241">
    <path clip-path="url(#pa236ee221d)" d="M 323.188947 239.758125 
L 324.096879 239.758125 
L 324.096879 141.027046 
L 323.188947 141.027046 
z
" style="fill:#1f77b4;"/>
   </g>
   <g id="patch_242">
    <path clip-path="url(#pa236ee221d)" d="M 324.323862 239.758125 
L 325.231794 239.758125 
L 325.231794 139.868911 
L 324.323862 139.868911 
z
" style="fill:#1f77b4;"/>
   </g>
   <g id="patch_243">
    <path clip-path="url(#pa236ee221d)" d="M 325.458778 239.758125 
L 326.36671 239.758125 
L 326.36671 138.421241 
L 325.458778 138.421241 
z
" style="fill:#1f77b4;"/>
   </g>
   <g id="patch_244">
    <path clip-path="url(#pa236ee221d)" d="M 326.593693 239.758125 
L 327.501625 239.758125 
L 327.501625 135.815435 
L 326.593693 135.815435 
z
" style="fill:#1f77b4;"/>
   </g>
   <g id="patch_245">
    <path clip-path="url(#pa236ee221d)" d="M 327.728608 239.758125 
L 328.63654 239.758125 
L 328.63654 134.078232 
L 327.728608 134.078232 
z
" style="fill:#1f77b4;"/>
   </g>
   <g id="patch_246">
    <path clip-path="url(#pa236ee221d)" d="M 328.863523 239.758125 
L 329.771456 239.758125 
L 329.771456 131.472426 
L 328.863523 131.472426 
z
" style="fill:#1f77b4;"/>
   </g>
   <g id="patch_247">
    <path clip-path="url(#pa236ee221d)" d="M 329.998439 239.758125 
L 330.906371 239.758125 
L 330.906371 130.024756 
L 329.998439 130.024756 
z
" style="fill:#1f77b4;"/>
   </g>
   <g id="patch_248">
    <path clip-path="url(#pa236ee221d)" d="M 331.133354 239.758125 
L 332.041286 239.758125 
L 332.041286 124.523611 
L 331.133354 124.523611 
z
" style="fill:#1f77b4;"/>
   </g>
   <g id="patch_249">
    <path clip-path="url(#pa236ee221d)" d="M 332.268269 239.758125 
L 333.176201 239.758125 
L 333.176201 122.496873 
L 332.268269 122.496873 
z
" style="fill:#1f77b4;"/>
   </g>
   <g id="patch_250">
    <path clip-path="url(#pa236ee221d)" d="M 333.403184 239.758125 
L 334.311117 239.758125 
L 334.311117 119.891068 
L 333.403184 119.891068 
z
" style="fill:#1f77b4;"/>
   </g>
   <g id="patch_251">
    <path clip-path="url(#pa236ee221d)" d="M 334.5381 239.758125 
L 335.446032 239.758125 
L 335.446032 116.706194 
L 334.5381 116.706194 
z
" style="fill:#1f77b4;"/>
   </g>
   <g id="patch_252">
    <path clip-path="url(#pa236ee221d)" d="M 335.673015 239.758125 
L 336.580947 239.758125 
L 336.580947 112.942253 
L 335.673015 112.942253 
z
" style="fill:#1f77b4;"/>
   </g>
   <g id="patch_253">
    <path clip-path="url(#pa236ee221d)" d="M 336.80793 239.758125 
L 337.715862 239.758125 
L 337.715862 110.625981 
L 336.80793 110.625981 
z
" style="fill:#1f77b4;"/>
   </g>
   <g id="patch_254">
    <path clip-path="url(#pa236ee221d)" d="M 337.942845 239.758125 
L 338.850778 239.758125 
L 338.850778 105.993438 
L 337.942845 105.993438 
z
" style="fill:#1f77b4;"/>
   </g>
   <g id="patch_255">
    <path clip-path="url(#pa236ee221d)" d="M 339.077761 239.758125 
L 339.985693 239.758125 
L 339.985693 103.9667 
L 339.077761 103.9667 
z
" style="fill:#1f77b4;"/>
   </g>
   <g id="patch_256">
    <path clip-path="url(#pa236ee221d)" d="M 340.212676 239.758125 
L 341.120608 239.758125 
L 341.120608 102.51903 
L 340.212676 102.51903 
z
" style="fill:#1f77b4;"/>
   </g>
   <g id="patch_257">
    <path clip-path="url(#pa236ee221d)" d="M 341.347591 239.758125 
L 342.255523 239.758125 
L 342.255523 97.886487 
L 341.347591 97.886487 
z
" style="fill:#1f77b4;"/>
   </g>
   <g id="patch_258">
    <path clip-path="url(#pa236ee221d)" d="M 342.482506 239.758125 
L 343.390439 239.758125 
L 343.390439 95.570216 
L 342.482506 95.570216 
z
" style="fill:#1f77b4;"/>
   </g>
   <g id="patch_259">
    <path clip-path="url(#pa236ee221d)" d="M 343.617422 239.758125 
L 344.525354 239.758125 
L 344.525354 92.385342 
L 343.617422 92.385342 
z
" style="fill:#1f77b4;"/>
   </g>
   <g id="patch_260">
    <path clip-path="url(#pa236ee221d)" d="M 344.752337 239.758125 
L 345.660269 239.758125 
L 345.660269 89.200469 
L 344.752337 89.200469 
z
" style="fill:#1f77b4;"/>
   </g>
   <g id="patch_261">
    <path clip-path="url(#pa236ee221d)" d="M 345.887252 239.758125 
L 346.795184 239.758125 
L 346.795184 88.331867 
L 345.887252 88.331867 
z
" style="fill:#1f77b4;"/>
   </g>
   <g id="patch_262">
    <path clip-path="url(#pa236ee221d)" d="M 347.022167 239.758125 
L 347.9301 239.758125 
L 347.9301 86.305129 
L 347.022167 86.305129 
z
" style="fill:#1f77b4;"/>
   </g>
   <g id="patch_263">
    <path clip-path="url(#pa236ee221d)" d="M 348.157083 239.758125 
L 349.065015 239.758125 
L 349.065015 86.015595 
L 348.157083 86.015595 
z
" style="fill:#1f77b4;"/>
   </g>
   <g id="patch_264">
    <path clip-path="url(#pa236ee221d)" d="M 349.291998 239.758125 
L 350.19993 239.758125 
L 350.19993 84.857459 
L 349.291998 84.857459 
z
" style="fill:#1f77b4;"/>
   </g>
   <g id="patch_265">
    <path clip-path="url(#pa236ee221d)" d="M 350.426913 239.758125 
L 351.334845 239.758125 
L 351.334845 82.830722 
L 350.426913 82.830722 
z
" style="fill:#1f77b4;"/>
   </g>
   <g id="patch_266">
    <path clip-path="url(#pa236ee221d)" d="M 351.561828 239.758125 
L 352.469761 239.758125 
L 352.469761 78.198178 
L 351.561828 78.198178 
z
" style="fill:#1f77b4;"/>
   </g>
   <g id="patch_267">
    <path clip-path="url(#pa236ee221d)" d="M 352.696744 239.758125 
L 353.604676 239.758125 
L 353.604676 75.013305 
L 352.696744 75.013305 
z
" style="fill:#1f77b4;"/>
   </g>
   <g id="patch_268">
    <path clip-path="url(#pa236ee221d)" d="M 353.831659 239.758125 
L 354.739591 239.758125 
L 354.739591 74.144703 
L 353.831659 74.144703 
z
" style="fill:#1f77b4;"/>
   </g>
   <g id="patch_269">
    <path clip-path="url(#pa236ee221d)" d="M 354.966574 239.758125 
L 355.874506 239.758125 
L 355.874506 72.407499 
L 354.966574 72.407499 
z
" style="fill:#1f77b4;"/>
   </g>
   <g id="patch_270">
    <path clip-path="url(#pa236ee221d)" d="M 356.101489 239.758125 
L 357.009422 239.758125 
L 357.009422 70.959829 
L 356.101489 70.959829 
z
" style="fill:#1f77b4;"/>
   </g>
   <g id="patch_271">
    <path clip-path="url(#pa236ee221d)" d="M 357.236405 239.758125 
L 358.144337 239.758125 
L 358.144337 67.774956 
L 357.236405 67.774956 
z
" style="fill:#1f77b4;"/>
   </g>
   <g id="patch_272">
    <path clip-path="url(#pa236ee221d)" d="M 358.37132 239.758125 
L 359.279252 239.758125 
L 359.279252 64.879616 
L 358.37132 64.879616 
z
" style="fill:#1f77b4;"/>
   </g>
   <g id="patch_273">
    <path clip-path="url(#pa236ee221d)" d="M 359.506235 239.758125 
L 360.414167 239.758125 
L 360.414167 62.563345 
L 359.506235 62.563345 
z
" style="fill:#1f77b4;"/>
   </g>
   <g id="patch_274">
    <path clip-path="url(#pa236ee221d)" d="M 360.64115 239.758125 
L 361.549083 239.758125 
L 361.549083 57.641267 
L 360.64115 57.641267 
z
" style="fill:#1f77b4;"/>
   </g>
   <g id="patch_275">
    <path clip-path="url(#pa236ee221d)" d="M 361.776066 239.758125 
L 362.683998 239.758125 
L 362.683998 56.193598 
L 361.776066 56.193598 
z
" style="fill:#1f77b4;"/>
   </g>
   <g id="patch_276">
    <path clip-path="url(#pa236ee221d)" d="M 362.910981 239.758125 
L 363.818913 239.758125 
L 363.818913 55.035462 
L 362.910981 55.035462 
z
" style="fill:#1f77b4;"/>
   </g>
   <g id="patch_277">
    <path clip-path="url(#pa236ee221d)" d="M 364.045896 239.758125 
L 364.953828 239.758125 
L 364.953828 52.429656 
L 364.045896 52.429656 
z
" style="fill:#1f77b4;"/>
   </g>
   <g id="patch_278">
    <path clip-path="url(#pa236ee221d)" d="M 365.180811 239.758125 
L 366.088744 239.758125 
L 366.088744 49.534317 
L 365.180811 49.534317 
z
" style="fill:#1f77b4;"/>
   </g>
   <g id="patch_279">
    <path clip-path="url(#pa236ee221d)" d="M 366.315727 239.758125 
L 367.223659 239.758125 
L 367.223659 46.349443 
L 366.315727 46.349443 
z
" style="fill:#1f77b4;"/>
   </g>
   <g id="patch_280">
    <path clip-path="url(#pa236ee221d)" d="M 367.450642 239.758125 
L 368.358574 239.758125 
L 368.358574 44.901773 
L 367.450642 44.901773 
z
" style="fill:#1f77b4;"/>
   </g>
   <g id="patch_281">
    <path clip-path="url(#pa236ee221d)" d="M 368.585557 239.758125 
L 369.493489 239.758125 
L 369.493489 43.16457 
L 368.585557 43.16457 
z
" style="fill:#1f77b4;"/>
   </g>
   <g id="patch_282">
    <path clip-path="url(#pa236ee221d)" d="M 369.720472 239.758125 
L 370.628405 239.758125 
L 370.628405 40.848298 
L 369.720472 40.848298 
z
" style="fill:#1f77b4;"/>
   </g>
   <g id="patch_283">
    <path clip-path="url(#pa236ee221d)" d="M 370.855388 239.758125 
L 371.76332 239.758125 
L 371.76332 39.979696 
L 370.855388 39.979696 
z
" style="fill:#1f77b4;"/>
   </g>
   <g id="patch_284">
    <path clip-path="url(#pa236ee221d)" d="M 371.990303 239.758125 
L 372.898235 239.758125 
L 372.898235 39.400628 
L 371.990303 39.400628 
z
" style="fill:#1f77b4;"/>
   </g>
   <g id="patch_285">
    <path clip-path="url(#pa236ee221d)" d="M 373.125218 239.758125 
L 374.03315 239.758125 
L 374.03315 37.663425 
L 373.125218 37.663425 
z
" style="fill:#1f77b4;"/>
   </g>
   <g id="patch_286">
    <path clip-path="url(#pa236ee221d)" d="M 374.260133 239.758125 
L 375.168066 239.758125 
L 375.168066 37.373891 
L 374.260133 37.373891 
z
" style="fill:#1f77b4;"/>
   </g>
   <g id="patch_287">
    <path clip-path="url(#pa236ee221d)" d="M 375.395049 239.758125 
L 376.302981 239.758125 
L 376.302981 35.926221 
L 375.395049 35.926221 
z
" style="fill:#1f77b4;"/>
   </g>
   <g id="patch_288">
    <path clip-path="url(#pa236ee221d)" d="M 376.529964 239.758125 
L 377.437896 239.758125 
L 377.437896 33.899483 
L 376.529964 33.899483 
z
" style="fill:#1f77b4;"/>
   </g>
   <g id="patch_289">
    <path clip-path="url(#pa236ee221d)" d="M 377.664879 239.758125 
L 378.572811 239.758125 
L 378.572811 31.872746 
L 377.664879 31.872746 
z
" style="fill:#1f77b4;"/>
   </g>
   <g id="patch_290">
    <path clip-path="url(#pa236ee221d)" d="M 378.799794 239.758125 
L 379.707727 239.758125 
L 379.707727 31.293678 
L 378.799794 31.293678 
z
" style="fill:#1f77b4;"/>
   </g>
   <g id="patch_291">
    <path clip-path="url(#pa236ee221d)" d="M 379.93471 239.758125 
L 380.842642 239.758125 
L 380.842642 30.71461 
L 379.93471 30.71461 
z
" style="fill:#1f77b4;"/>
   </g>
   <g id="patch_292">
    <path clip-path="url(#pa236ee221d)" d="M 381.069625 239.758125 
L 381.977557 239.758125 
L 381.977557 28.687872 
L 381.069625 28.687872 
z
" style="fill:#1f77b4;"/>
   </g>
   <g id="patch_293">
    <path clip-path="url(#pa236ee221d)" d="M 382.20454 239.758125 
L 383.112472 239.758125 
L 383.112472 28.108804 
L 382.20454 28.108804 
z
" style="fill:#1f77b4;"/>
   </g>
   <g id="patch_294">
    <path clip-path="url(#pa236ee221d)" d="M 383.339456 239.758125 
L 384.247388 239.758125 
L 384.247388 25.792532 
L 383.339456 25.792532 
z
" style="fill:#1f77b4;"/>
   </g>
   <g id="patch_295">
    <path clip-path="url(#pa236ee221d)" d="M 384.474371 239.758125 
L 385.382303 239.758125 
L 385.382303 24.923931 
L 384.474371 24.923931 
z
" style="fill:#1f77b4;"/>
   </g>
   <g id="patch_296">
    <path clip-path="url(#pa236ee221d)" d="M 385.609286 239.758125 
L 386.517218 239.758125 
L 386.517218 23.765795 
L 385.609286 23.765795 
z
" style="fill:#1f77b4;"/>
   </g>
   <g id="patch_297">
    <path clip-path="url(#pa236ee221d)" d="M 386.744201 239.758125 
L 387.652133 239.758125 
L 387.652133 22.318125 
L 386.744201 22.318125 
z
" style="fill:#1f77b4;"/>
   </g>
   <g id="matplotlib.axis_1">
    <g id="xtick_1">
     <g id="line2d_1">
      <defs>
       <path d="M 0 0 
L 0 3.5 
" id="mcbc181ea74" style="stroke:#000000;stroke-width:0.8;"/>
      </defs>
      <g>
       <use style="stroke:#000000;stroke-width:0.8;" x="72.826642" xlink:href="#mcbc181ea74" y="239.758125"/>
      </g>
     </g>
     <g id="text_1">
      <!-- 2020-04 -->
      <g transform="translate(75.586017 288.540937)rotate(-90)scale(0.1 -0.1)">
       <defs>
        <path d="M 19.1875 8.296875 
L 53.609375 8.296875 
L 53.609375 0 
L 7.328125 0 
L 7.328125 8.296875 
Q 12.9375 14.109375 22.625 23.890625 
Q 32.328125 33.6875 34.8125 36.53125 
Q 39.546875 41.84375 41.421875 45.53125 
Q 43.3125 49.21875 43.3125 52.78125 
Q 43.3125 58.59375 39.234375 62.25 
Q 35.15625 65.921875 28.609375 65.921875 
Q 23.96875 65.921875 18.8125 64.3125 
Q 13.671875 62.703125 7.8125 59.421875 
L 7.8125 69.390625 
Q 13.765625 71.78125 18.9375 73 
Q 24.125 74.21875 28.421875 74.21875 
Q 39.75 74.21875 46.484375 68.546875 
Q 53.21875 62.890625 53.21875 53.421875 
Q 53.21875 48.921875 51.53125 44.890625 
Q 49.859375 40.875 45.40625 35.40625 
Q 44.1875 33.984375 37.640625 27.21875 
Q 31.109375 20.453125 19.1875 8.296875 
z
" id="DejaVuSans-50"/>
        <path d="M 31.78125 66.40625 
Q 24.171875 66.40625 20.328125 58.90625 
Q 16.5 51.421875 16.5 36.375 
Q 16.5 21.390625 20.328125 13.890625 
Q 24.171875 6.390625 31.78125 6.390625 
Q 39.453125 6.390625 43.28125 13.890625 
Q 47.125 21.390625 47.125 36.375 
Q 47.125 51.421875 43.28125 58.90625 
Q 39.453125 66.40625 31.78125 66.40625 
z
M 31.78125 74.21875 
Q 44.046875 74.21875 50.515625 64.515625 
Q 56.984375 54.828125 56.984375 36.375 
Q 56.984375 17.96875 50.515625 8.265625 
Q 44.046875 -1.421875 31.78125 -1.421875 
Q 19.53125 -1.421875 13.0625 8.265625 
Q 6.59375 17.96875 6.59375 36.375 
Q 6.59375 54.828125 13.0625 64.515625 
Q 19.53125 74.21875 31.78125 74.21875 
z
" id="DejaVuSans-48"/>
        <path d="M 4.890625 31.390625 
L 31.203125 31.390625 
L 31.203125 23.390625 
L 4.890625 23.390625 
z
" id="DejaVuSans-45"/>
        <path d="M 37.796875 64.3125 
L 12.890625 25.390625 
L 37.796875 25.390625 
z
M 35.203125 72.90625 
L 47.609375 72.90625 
L 47.609375 25.390625 
L 58.015625 25.390625 
L 58.015625 17.1875 
L 47.609375 17.1875 
L 47.609375 0 
L 37.796875 0 
L 37.796875 17.1875 
L 4.890625 17.1875 
L 4.890625 26.703125 
z
" id="DejaVuSans-52"/>
       </defs>
       <use xlink:href="#DejaVuSans-50"/>
       <use x="63.623047" xlink:href="#DejaVuSans-48"/>
       <use x="127.246094" xlink:href="#DejaVuSans-50"/>
       <use x="190.869141" xlink:href="#DejaVuSans-48"/>
       <use x="254.492188" xlink:href="#DejaVuSans-45"/>
       <use x="290.576172" xlink:href="#DejaVuSans-48"/>
       <use x="354.199219" xlink:href="#DejaVuSans-52"/>
      </g>
     </g>
    </g>
    <g id="xtick_2">
     <g id="line2d_2">
      <g>
       <use style="stroke:#000000;stroke-width:0.8;" x="106.8741" xlink:href="#mcbc181ea74" y="239.758125"/>
      </g>
     </g>
     <g id="text_2">
      <!-- 2020-05 -->
      <g transform="translate(109.633475 288.540937)rotate(-90)scale(0.1 -0.1)">
       <defs>
        <path d="M 10.796875 72.90625 
L 49.515625 72.90625 
L 49.515625 64.59375 
L 19.828125 64.59375 
L 19.828125 46.734375 
Q 21.96875 47.46875 24.109375 47.828125 
Q 26.265625 48.1875 28.421875 48.1875 
Q 40.625 48.1875 47.75 41.5 
Q 54.890625 34.8125 54.890625 23.390625 
Q 54.890625 11.625 47.5625 5.09375 
Q 40.234375 -1.421875 26.90625 -1.421875 
Q 22.3125 -1.421875 17.546875 -0.640625 
Q 12.796875 0.140625 7.71875 1.703125 
L 7.71875 11.625 
Q 12.109375 9.234375 16.796875 8.0625 
Q 21.484375 6.890625 26.703125 6.890625 
Q 35.15625 6.890625 40.078125 11.328125 
Q 45.015625 15.765625 45.015625 23.390625 
Q 45.015625 31 40.078125 35.4375 
Q 35.15625 39.890625 26.703125 39.890625 
Q 22.75 39.890625 18.8125 39.015625 
Q 14.890625 38.140625 10.796875 36.28125 
z
" id="DejaVuSans-53"/>
       </defs>
       <use xlink:href="#DejaVuSans-50"/>
       <use x="63.623047" xlink:href="#DejaVuSans-48"/>
       <use x="127.246094" xlink:href="#DejaVuSans-50"/>
       <use x="190.869141" xlink:href="#DejaVuSans-48"/>
       <use x="254.492188" xlink:href="#DejaVuSans-45"/>
       <use x="290.576172" xlink:href="#DejaVuSans-48"/>
       <use x="354.199219" xlink:href="#DejaVuSans-53"/>
      </g>
     </g>
    </g>
    <g id="xtick_3">
     <g id="line2d_3">
      <g>
       <use style="stroke:#000000;stroke-width:0.8;" x="142.056472" xlink:href="#mcbc181ea74" y="239.758125"/>
      </g>
     </g>
     <g id="text_3">
      <!-- 2020-06 -->
      <g transform="translate(144.815847 288.540937)rotate(-90)scale(0.1 -0.1)">
       <defs>
        <path d="M 33.015625 40.375 
Q 26.375 40.375 22.484375 35.828125 
Q 18.609375 31.296875 18.609375 23.390625 
Q 18.609375 15.53125 22.484375 10.953125 
Q 26.375 6.390625 33.015625 6.390625 
Q 39.65625 6.390625 43.53125 10.953125 
Q 47.40625 15.53125 47.40625 23.390625 
Q 47.40625 31.296875 43.53125 35.828125 
Q 39.65625 40.375 33.015625 40.375 
z
M 52.59375 71.296875 
L 52.59375 62.3125 
Q 48.875 64.0625 45.09375 64.984375 
Q 41.3125 65.921875 37.59375 65.921875 
Q 27.828125 65.921875 22.671875 59.328125 
Q 17.53125 52.734375 16.796875 39.40625 
Q 19.671875 43.65625 24.015625 45.921875 
Q 28.375 48.1875 33.59375 48.1875 
Q 44.578125 48.1875 50.953125 41.515625 
Q 57.328125 34.859375 57.328125 23.390625 
Q 57.328125 12.15625 50.6875 5.359375 
Q 44.046875 -1.421875 33.015625 -1.421875 
Q 20.359375 -1.421875 13.671875 8.265625 
Q 6.984375 17.96875 6.984375 36.375 
Q 6.984375 53.65625 15.1875 63.9375 
Q 23.390625 74.21875 37.203125 74.21875 
Q 40.921875 74.21875 44.703125 73.484375 
Q 48.484375 72.75 52.59375 71.296875 
z
" id="DejaVuSans-54"/>
       </defs>
       <use xlink:href="#DejaVuSans-50"/>
       <use x="63.623047" xlink:href="#DejaVuSans-48"/>
       <use x="127.246094" xlink:href="#DejaVuSans-50"/>
       <use x="190.869141" xlink:href="#DejaVuSans-48"/>
       <use x="254.492188" xlink:href="#DejaVuSans-45"/>
       <use x="290.576172" xlink:href="#DejaVuSans-48"/>
       <use x="354.199219" xlink:href="#DejaVuSans-54"/>
      </g>
     </g>
    </g>
    <g id="xtick_4">
     <g id="line2d_4">
      <g>
       <use style="stroke:#000000;stroke-width:0.8;" x="176.10393" xlink:href="#mcbc181ea74" y="239.758125"/>
      </g>
     </g>
     <g id="text_4">
      <!-- 2020-07 -->
      <g transform="translate(178.863305 288.540937)rotate(-90)scale(0.1 -0.1)">
       <defs>
        <path d="M 8.203125 72.90625 
L 55.078125 72.90625 
L 55.078125 68.703125 
L 28.609375 0 
L 18.3125 0 
L 43.21875 64.59375 
L 8.203125 64.59375 
z
" id="DejaVuSans-55"/>
       </defs>
       <use xlink:href="#DejaVuSans-50"/>
       <use x="63.623047" xlink:href="#DejaVuSans-48"/>
       <use x="127.246094" xlink:href="#DejaVuSans-50"/>
       <use x="190.869141" xlink:href="#DejaVuSans-48"/>
       <use x="254.492188" xlink:href="#DejaVuSans-45"/>
       <use x="290.576172" xlink:href="#DejaVuSans-48"/>
       <use x="354.199219" xlink:href="#DejaVuSans-55"/>
      </g>
     </g>
    </g>
    <g id="xtick_5">
     <g id="line2d_5">
      <g>
       <use style="stroke:#000000;stroke-width:0.8;" x="211.286303" xlink:href="#mcbc181ea74" y="239.758125"/>
      </g>
     </g>
     <g id="text_5">
      <!-- 2020-08 -->
      <g transform="translate(214.045678 288.540937)rotate(-90)scale(0.1 -0.1)">
       <defs>
        <path d="M 31.78125 34.625 
Q 24.75 34.625 20.71875 30.859375 
Q 16.703125 27.09375 16.703125 20.515625 
Q 16.703125 13.921875 20.71875 10.15625 
Q 24.75 6.390625 31.78125 6.390625 
Q 38.8125 6.390625 42.859375 10.171875 
Q 46.921875 13.96875 46.921875 20.515625 
Q 46.921875 27.09375 42.890625 30.859375 
Q 38.875 34.625 31.78125 34.625 
z
M 21.921875 38.8125 
Q 15.578125 40.375 12.03125 44.71875 
Q 8.5 49.078125 8.5 55.328125 
Q 8.5 64.0625 14.71875 69.140625 
Q 20.953125 74.21875 31.78125 74.21875 
Q 42.671875 74.21875 48.875 69.140625 
Q 55.078125 64.0625 55.078125 55.328125 
Q 55.078125 49.078125 51.53125 44.71875 
Q 48 40.375 41.703125 38.8125 
Q 48.828125 37.15625 52.796875 32.3125 
Q 56.78125 27.484375 56.78125 20.515625 
Q 56.78125 9.90625 50.3125 4.234375 
Q 43.84375 -1.421875 31.78125 -1.421875 
Q 19.734375 -1.421875 13.25 4.234375 
Q 6.78125 9.90625 6.78125 20.515625 
Q 6.78125 27.484375 10.78125 32.3125 
Q 14.796875 37.15625 21.921875 38.8125 
z
M 18.3125 54.390625 
Q 18.3125 48.734375 21.84375 45.5625 
Q 25.390625 42.390625 31.78125 42.390625 
Q 38.140625 42.390625 41.71875 45.5625 
Q 45.3125 48.734375 45.3125 54.390625 
Q 45.3125 60.0625 41.71875 63.234375 
Q 38.140625 66.40625 31.78125 66.40625 
Q 25.390625 66.40625 21.84375 63.234375 
Q 18.3125 60.0625 18.3125 54.390625 
z
" id="DejaVuSans-56"/>
       </defs>
       <use xlink:href="#DejaVuSans-50"/>
       <use x="63.623047" xlink:href="#DejaVuSans-48"/>
       <use x="127.246094" xlink:href="#DejaVuSans-50"/>
       <use x="190.869141" xlink:href="#DejaVuSans-48"/>
       <use x="254.492188" xlink:href="#DejaVuSans-45"/>
       <use x="290.576172" xlink:href="#DejaVuSans-48"/>
       <use x="354.199219" xlink:href="#DejaVuSans-56"/>
      </g>
     </g>
    </g>
    <g id="xtick_6">
     <g id="line2d_6">
      <g>
       <use style="stroke:#000000;stroke-width:0.8;" x="246.468676" xlink:href="#mcbc181ea74" y="239.758125"/>
      </g>
     </g>
     <g id="text_6">
      <!-- 2020-09 -->
      <g transform="translate(249.228051 288.540937)rotate(-90)scale(0.1 -0.1)">
       <defs>
        <path d="M 10.984375 1.515625 
L 10.984375 10.5 
Q 14.703125 8.734375 18.5 7.8125 
Q 22.3125 6.890625 25.984375 6.890625 
Q 35.75 6.890625 40.890625 13.453125 
Q 46.046875 20.015625 46.78125 33.40625 
Q 43.953125 29.203125 39.59375 26.953125 
Q 35.25 24.703125 29.984375 24.703125 
Q 19.046875 24.703125 12.671875 31.3125 
Q 6.296875 37.9375 6.296875 49.421875 
Q 6.296875 60.640625 12.9375 67.421875 
Q 19.578125 74.21875 30.609375 74.21875 
Q 43.265625 74.21875 49.921875 64.515625 
Q 56.59375 54.828125 56.59375 36.375 
Q 56.59375 19.140625 48.40625 8.859375 
Q 40.234375 -1.421875 26.421875 -1.421875 
Q 22.703125 -1.421875 18.890625 -0.6875 
Q 15.09375 0.046875 10.984375 1.515625 
z
M 30.609375 32.421875 
Q 37.25 32.421875 41.125 36.953125 
Q 45.015625 41.5 45.015625 49.421875 
Q 45.015625 57.28125 41.125 61.84375 
Q 37.25 66.40625 30.609375 66.40625 
Q 23.96875 66.40625 20.09375 61.84375 
Q 16.21875 57.28125 16.21875 49.421875 
Q 16.21875 41.5 20.09375 36.953125 
Q 23.96875 32.421875 30.609375 32.421875 
z
" id="DejaVuSans-57"/>
       </defs>
       <use xlink:href="#DejaVuSans-50"/>
       <use x="63.623047" xlink:href="#DejaVuSans-48"/>
       <use x="127.246094" xlink:href="#DejaVuSans-50"/>
       <use x="190.869141" xlink:href="#DejaVuSans-48"/>
       <use x="254.492188" xlink:href="#DejaVuSans-45"/>
       <use x="290.576172" xlink:href="#DejaVuSans-48"/>
       <use x="354.199219" xlink:href="#DejaVuSans-57"/>
      </g>
     </g>
    </g>
    <g id="xtick_7">
     <g id="line2d_7">
      <g>
       <use style="stroke:#000000;stroke-width:0.8;" x="280.516133" xlink:href="#mcbc181ea74" y="239.758125"/>
      </g>
     </g>
     <g id="text_7">
      <!-- 2020-10 -->
      <g transform="translate(283.275508 288.540937)rotate(-90)scale(0.1 -0.1)">
       <defs>
        <path d="M 12.40625 8.296875 
L 28.515625 8.296875 
L 28.515625 63.921875 
L 10.984375 60.40625 
L 10.984375 69.390625 
L 28.421875 72.90625 
L 38.28125 72.90625 
L 38.28125 8.296875 
L 54.390625 8.296875 
L 54.390625 0 
L 12.40625 0 
z
" id="DejaVuSans-49"/>
       </defs>
       <use xlink:href="#DejaVuSans-50"/>
       <use x="63.623047" xlink:href="#DejaVuSans-48"/>
       <use x="127.246094" xlink:href="#DejaVuSans-50"/>
       <use x="190.869141" xlink:href="#DejaVuSans-48"/>
       <use x="254.492188" xlink:href="#DejaVuSans-45"/>
       <use x="290.576172" xlink:href="#DejaVuSans-49"/>
       <use x="354.199219" xlink:href="#DejaVuSans-48"/>
      </g>
     </g>
    </g>
    <g id="xtick_8">
     <g id="line2d_8">
      <g>
       <use style="stroke:#000000;stroke-width:0.8;" x="315.698506" xlink:href="#mcbc181ea74" y="239.758125"/>
      </g>
     </g>
     <g id="text_8">
      <!-- 2020-11 -->
      <g transform="translate(318.457881 288.540937)rotate(-90)scale(0.1 -0.1)">
       <use xlink:href="#DejaVuSans-50"/>
       <use x="63.623047" xlink:href="#DejaVuSans-48"/>
       <use x="127.246094" xlink:href="#DejaVuSans-50"/>
       <use x="190.869141" xlink:href="#DejaVuSans-48"/>
       <use x="254.492188" xlink:href="#DejaVuSans-45"/>
       <use x="290.576172" xlink:href="#DejaVuSans-49"/>
       <use x="354.199219" xlink:href="#DejaVuSans-49"/>
      </g>
     </g>
    </g>
    <g id="xtick_9">
     <g id="line2d_9">
      <g>
       <use style="stroke:#000000;stroke-width:0.8;" x="349.745964" xlink:href="#mcbc181ea74" y="239.758125"/>
      </g>
     </g>
     <g id="text_9">
      <!-- 2020-12 -->
      <g transform="translate(352.505339 288.540937)rotate(-90)scale(0.1 -0.1)">
       <use xlink:href="#DejaVuSans-50"/>
       <use x="63.623047" xlink:href="#DejaVuSans-48"/>
       <use x="127.246094" xlink:href="#DejaVuSans-50"/>
       <use x="190.869141" xlink:href="#DejaVuSans-48"/>
       <use x="254.492188" xlink:href="#DejaVuSans-45"/>
       <use x="290.576172" xlink:href="#DejaVuSans-49"/>
       <use x="354.199219" xlink:href="#DejaVuSans-50"/>
      </g>
     </g>
    </g>
    <g id="xtick_10">
     <g id="line2d_10">
      <g>
       <use style="stroke:#000000;stroke-width:0.8;" x="384.928337" xlink:href="#mcbc181ea74" y="239.758125"/>
      </g>
     </g>
     <g id="text_10">
      <!-- 2021-01 -->
      <g transform="translate(387.687712 288.540937)rotate(-90)scale(0.1 -0.1)">
       <use xlink:href="#DejaVuSans-50"/>
       <use x="63.623047" xlink:href="#DejaVuSans-48"/>
       <use x="127.246094" xlink:href="#DejaVuSans-50"/>
       <use x="190.869141" xlink:href="#DejaVuSans-49"/>
       <use x="254.492188" xlink:href="#DejaVuSans-45"/>
       <use x="290.576172" xlink:href="#DejaVuSans-48"/>
       <use x="354.199219" xlink:href="#DejaVuSans-49"/>
      </g>
     </g>
    </g>
    <g id="text_11">
     <!-- date -->
     <g transform="translate(209.090625 306.139375)scale(0.1 -0.1)">
      <defs>
       <path d="M 45.40625 46.390625 
L 45.40625 75.984375 
L 54.390625 75.984375 
L 54.390625 0 
L 45.40625 0 
L 45.40625 8.203125 
Q 42.578125 3.328125 38.25 0.953125 
Q 33.9375 -1.421875 27.875 -1.421875 
Q 17.96875 -1.421875 11.734375 6.484375 
Q 5.515625 14.40625 5.515625 27.296875 
Q 5.515625 40.1875 11.734375 48.09375 
Q 17.96875 56 27.875 56 
Q 33.9375 56 38.25 53.625 
Q 42.578125 51.265625 45.40625 46.390625 
z
M 14.796875 27.296875 
Q 14.796875 17.390625 18.875 11.75 
Q 22.953125 6.109375 30.078125 6.109375 
Q 37.203125 6.109375 41.296875 11.75 
Q 45.40625 17.390625 45.40625 27.296875 
Q 45.40625 37.203125 41.296875 42.84375 
Q 37.203125 48.484375 30.078125 48.484375 
Q 22.953125 48.484375 18.875 42.84375 
Q 14.796875 37.203125 14.796875 27.296875 
z
" id="DejaVuSans-100"/>
       <path d="M 34.28125 27.484375 
Q 23.390625 27.484375 19.1875 25 
Q 14.984375 22.515625 14.984375 16.5 
Q 14.984375 11.71875 18.140625 8.90625 
Q 21.296875 6.109375 26.703125 6.109375 
Q 34.1875 6.109375 38.703125 11.40625 
Q 43.21875 16.703125 43.21875 25.484375 
L 43.21875 27.484375 
z
M 52.203125 31.203125 
L 52.203125 0 
L 43.21875 0 
L 43.21875 8.296875 
Q 40.140625 3.328125 35.546875 0.953125 
Q 30.953125 -1.421875 24.3125 -1.421875 
Q 15.921875 -1.421875 10.953125 3.296875 
Q 6 8.015625 6 15.921875 
Q 6 25.140625 12.171875 29.828125 
Q 18.359375 34.515625 30.609375 34.515625 
L 43.21875 34.515625 
L 43.21875 35.40625 
Q 43.21875 41.609375 39.140625 45 
Q 35.0625 48.390625 27.6875 48.390625 
Q 23 48.390625 18.546875 47.265625 
Q 14.109375 46.140625 10.015625 43.890625 
L 10.015625 52.203125 
Q 14.9375 54.109375 19.578125 55.046875 
Q 24.21875 56 28.609375 56 
Q 40.484375 56 46.34375 49.84375 
Q 52.203125 43.703125 52.203125 31.203125 
z
" id="DejaVuSans-97"/>
       <path d="M 18.3125 70.21875 
L 18.3125 54.6875 
L 36.8125 54.6875 
L 36.8125 47.703125 
L 18.3125 47.703125 
L 18.3125 18.015625 
Q 18.3125 11.328125 20.140625 9.421875 
Q 21.96875 7.515625 27.59375 7.515625 
L 36.8125 7.515625 
L 36.8125 0 
L 27.59375 0 
Q 17.1875 0 13.234375 3.875 
Q 9.28125 7.765625 9.28125 18.015625 
L 9.28125 47.703125 
L 2.6875 47.703125 
L 2.6875 54.6875 
L 9.28125 54.6875 
L 9.28125 70.21875 
z
" id="DejaVuSans-116"/>
       <path d="M 56.203125 29.59375 
L 56.203125 25.203125 
L 14.890625 25.203125 
Q 15.484375 15.921875 20.484375 11.0625 
Q 25.484375 6.203125 34.421875 6.203125 
Q 39.59375 6.203125 44.453125 7.46875 
Q 49.3125 8.734375 54.109375 11.28125 
L 54.109375 2.78125 
Q 49.265625 0.734375 44.1875 -0.34375 
Q 39.109375 -1.421875 33.890625 -1.421875 
Q 20.796875 -1.421875 13.15625 6.1875 
Q 5.515625 13.8125 5.515625 26.8125 
Q 5.515625 40.234375 12.765625 48.109375 
Q 20.015625 56 32.328125 56 
Q 43.359375 56 49.78125 48.890625 
Q 56.203125 41.796875 56.203125 29.59375 
z
M 47.21875 32.234375 
Q 47.125 39.59375 43.09375 43.984375 
Q 39.0625 48.390625 32.421875 48.390625 
Q 24.90625 48.390625 20.390625 44.140625 
Q 15.875 39.890625 15.1875 32.171875 
z
" id="DejaVuSans-101"/>
      </defs>
      <use xlink:href="#DejaVuSans-100"/>
      <use x="63.476562" xlink:href="#DejaVuSans-97"/>
      <use x="124.755859" xlink:href="#DejaVuSans-116"/>
      <use x="163.964844" xlink:href="#DejaVuSans-101"/>
     </g>
    </g>
   </g>
   <g id="matplotlib.axis_2">
    <g id="ytick_1">
     <g id="line2d_11">
      <defs>
       <path d="M 0 0 
L -3.5 0 
" id="m02a66a886a" style="stroke:#000000;stroke-width:0.8;"/>
      </defs>
      <g>
       <use style="stroke:#000000;stroke-width:0.8;" x="52.965625" xlink:href="#m02a66a886a" y="239.758125"/>
      </g>
     </g>
     <g id="text_12">
      <!-- 0 -->
      <g transform="translate(39.603125 243.557344)scale(0.1 -0.1)">
       <use xlink:href="#DejaVuSans-48"/>
      </g>
     </g>
    </g>
    <g id="ytick_2">
     <g id="line2d_12">
      <g>
       <use style="stroke:#000000;stroke-width:0.8;" x="52.965625" xlink:href="#m02a66a886a" y="210.80473"/>
      </g>
     </g>
     <g id="text_13">
      <!-- 100 -->
      <g transform="translate(26.878125 214.603948)scale(0.1 -0.1)">
       <use xlink:href="#DejaVuSans-49"/>
       <use x="63.623047" xlink:href="#DejaVuSans-48"/>
       <use x="127.246094" xlink:href="#DejaVuSans-48"/>
      </g>
     </g>
    </g>
    <g id="ytick_3">
     <g id="line2d_13">
      <g>
       <use style="stroke:#000000;stroke-width:0.8;" x="52.965625" xlink:href="#m02a66a886a" y="181.851334"/>
      </g>
     </g>
     <g id="text_14">
      <!-- 200 -->
      <g transform="translate(26.878125 185.650553)scale(0.1 -0.1)">
       <use xlink:href="#DejaVuSans-50"/>
       <use x="63.623047" xlink:href="#DejaVuSans-48"/>
       <use x="127.246094" xlink:href="#DejaVuSans-48"/>
      </g>
     </g>
    </g>
    <g id="ytick_4">
     <g id="line2d_14">
      <g>
       <use style="stroke:#000000;stroke-width:0.8;" x="52.965625" xlink:href="#m02a66a886a" y="152.897939"/>
      </g>
     </g>
     <g id="text_15">
      <!-- 300 -->
      <g transform="translate(26.878125 156.697157)scale(0.1 -0.1)">
       <defs>
        <path d="M 40.578125 39.3125 
Q 47.65625 37.796875 51.625 33 
Q 55.609375 28.21875 55.609375 21.1875 
Q 55.609375 10.40625 48.1875 4.484375 
Q 40.765625 -1.421875 27.09375 -1.421875 
Q 22.515625 -1.421875 17.65625 -0.515625 
Q 12.796875 0.390625 7.625 2.203125 
L 7.625 11.71875 
Q 11.71875 9.328125 16.59375 8.109375 
Q 21.484375 6.890625 26.8125 6.890625 
Q 36.078125 6.890625 40.9375 10.546875 
Q 45.796875 14.203125 45.796875 21.1875 
Q 45.796875 27.640625 41.28125 31.265625 
Q 36.765625 34.90625 28.71875 34.90625 
L 20.21875 34.90625 
L 20.21875 43.015625 
L 29.109375 43.015625 
Q 36.375 43.015625 40.234375 45.921875 
Q 44.09375 48.828125 44.09375 54.296875 
Q 44.09375 59.90625 40.109375 62.90625 
Q 36.140625 65.921875 28.71875 65.921875 
Q 24.65625 65.921875 20.015625 65.03125 
Q 15.375 64.15625 9.8125 62.3125 
L 9.8125 71.09375 
Q 15.4375 72.65625 20.34375 73.4375 
Q 25.25 74.21875 29.59375 74.21875 
Q 40.828125 74.21875 47.359375 69.109375 
Q 53.90625 64.015625 53.90625 55.328125 
Q 53.90625 49.265625 50.4375 45.09375 
Q 46.96875 40.921875 40.578125 39.3125 
z
" id="DejaVuSans-51"/>
       </defs>
       <use xlink:href="#DejaVuSans-51"/>
       <use x="63.623047" xlink:href="#DejaVuSans-48"/>
       <use x="127.246094" xlink:href="#DejaVuSans-48"/>
      </g>
     </g>
    </g>
    <g id="ytick_5">
     <g id="line2d_15">
      <g>
       <use style="stroke:#000000;stroke-width:0.8;" x="52.965625" xlink:href="#m02a66a886a" y="123.944543"/>
      </g>
     </g>
     <g id="text_16">
      <!-- 400 -->
      <g transform="translate(26.878125 127.743762)scale(0.1 -0.1)">
       <use xlink:href="#DejaVuSans-52"/>
       <use x="63.623047" xlink:href="#DejaVuSans-48"/>
       <use x="127.246094" xlink:href="#DejaVuSans-48"/>
      </g>
     </g>
    </g>
    <g id="ytick_6">
     <g id="line2d_16">
      <g>
       <use style="stroke:#000000;stroke-width:0.8;" x="52.965625" xlink:href="#m02a66a886a" y="94.991148"/>
      </g>
     </g>
     <g id="text_17">
      <!-- 500 -->
      <g transform="translate(26.878125 98.790366)scale(0.1 -0.1)">
       <use xlink:href="#DejaVuSans-53"/>
       <use x="63.623047" xlink:href="#DejaVuSans-48"/>
       <use x="127.246094" xlink:href="#DejaVuSans-48"/>
      </g>
     </g>
    </g>
    <g id="ytick_7">
     <g id="line2d_17">
      <g>
       <use style="stroke:#000000;stroke-width:0.8;" x="52.965625" xlink:href="#m02a66a886a" y="66.037752"/>
      </g>
     </g>
     <g id="text_18">
      <!-- 600 -->
      <g transform="translate(26.878125 69.836971)scale(0.1 -0.1)">
       <use xlink:href="#DejaVuSans-54"/>
       <use x="63.623047" xlink:href="#DejaVuSans-48"/>
       <use x="127.246094" xlink:href="#DejaVuSans-48"/>
      </g>
     </g>
    </g>
    <g id="ytick_8">
     <g id="line2d_18">
      <g>
       <use style="stroke:#000000;stroke-width:0.8;" x="52.965625" xlink:href="#m02a66a886a" y="37.084357"/>
      </g>
     </g>
     <g id="text_19">
      <!-- 700 -->
      <g transform="translate(26.878125 40.883575)scale(0.1 -0.1)">
       <use xlink:href="#DejaVuSans-55"/>
       <use x="63.623047" xlink:href="#DejaVuSans-48"/>
       <use x="127.246094" xlink:href="#DejaVuSans-48"/>
      </g>
     </g>
    </g>
    <g id="text_20">
     <!-- cumulative corona fatalities -->
     <g transform="translate(14.798438 200.712344)rotate(-90)scale(0.1 -0.1)">
      <defs>
       <path d="M 48.78125 52.59375 
L 48.78125 44.1875 
Q 44.96875 46.296875 41.140625 47.34375 
Q 37.3125 48.390625 33.40625 48.390625 
Q 24.65625 48.390625 19.8125 42.84375 
Q 14.984375 37.3125 14.984375 27.296875 
Q 14.984375 17.28125 19.8125 11.734375 
Q 24.65625 6.203125 33.40625 6.203125 
Q 37.3125 6.203125 41.140625 7.25 
Q 44.96875 8.296875 48.78125 10.40625 
L 48.78125 2.09375 
Q 45.015625 0.34375 40.984375 -0.53125 
Q 36.96875 -1.421875 32.421875 -1.421875 
Q 20.0625 -1.421875 12.78125 6.34375 
Q 5.515625 14.109375 5.515625 27.296875 
Q 5.515625 40.671875 12.859375 48.328125 
Q 20.21875 56 33.015625 56 
Q 37.15625 56 41.109375 55.140625 
Q 45.0625 54.296875 48.78125 52.59375 
z
" id="DejaVuSans-99"/>
       <path d="M 8.5 21.578125 
L 8.5 54.6875 
L 17.484375 54.6875 
L 17.484375 21.921875 
Q 17.484375 14.15625 20.5 10.265625 
Q 23.53125 6.390625 29.59375 6.390625 
Q 36.859375 6.390625 41.078125 11.03125 
Q 45.3125 15.671875 45.3125 23.6875 
L 45.3125 54.6875 
L 54.296875 54.6875 
L 54.296875 0 
L 45.3125 0 
L 45.3125 8.40625 
Q 42.046875 3.421875 37.71875 1 
Q 33.40625 -1.421875 27.6875 -1.421875 
Q 18.265625 -1.421875 13.375 4.4375 
Q 8.5 10.296875 8.5 21.578125 
z
M 31.109375 56 
z
" id="DejaVuSans-117"/>
       <path d="M 52 44.1875 
Q 55.375 50.25 60.0625 53.125 
Q 64.75 56 71.09375 56 
Q 79.640625 56 84.28125 50.015625 
Q 88.921875 44.046875 88.921875 33.015625 
L 88.921875 0 
L 79.890625 0 
L 79.890625 32.71875 
Q 79.890625 40.578125 77.09375 44.375 
Q 74.3125 48.1875 68.609375 48.1875 
Q 61.625 48.1875 57.5625 43.546875 
Q 53.515625 38.921875 53.515625 30.90625 
L 53.515625 0 
L 44.484375 0 
L 44.484375 32.71875 
Q 44.484375 40.625 41.703125 44.40625 
Q 38.921875 48.1875 33.109375 48.1875 
Q 26.21875 48.1875 22.15625 43.53125 
Q 18.109375 38.875 18.109375 30.90625 
L 18.109375 0 
L 9.078125 0 
L 9.078125 54.6875 
L 18.109375 54.6875 
L 18.109375 46.1875 
Q 21.1875 51.21875 25.484375 53.609375 
Q 29.78125 56 35.6875 56 
Q 41.65625 56 45.828125 52.96875 
Q 50 49.953125 52 44.1875 
z
" id="DejaVuSans-109"/>
       <path d="M 9.421875 75.984375 
L 18.40625 75.984375 
L 18.40625 0 
L 9.421875 0 
z
" id="DejaVuSans-108"/>
       <path d="M 9.421875 54.6875 
L 18.40625 54.6875 
L 18.40625 0 
L 9.421875 0 
z
M 9.421875 75.984375 
L 18.40625 75.984375 
L 18.40625 64.59375 
L 9.421875 64.59375 
z
" id="DejaVuSans-105"/>
       <path d="M 2.984375 54.6875 
L 12.5 54.6875 
L 29.59375 8.796875 
L 46.6875 54.6875 
L 56.203125 54.6875 
L 35.6875 0 
L 23.484375 0 
z
" id="DejaVuSans-118"/>
       <path id="DejaVuSans-32"/>
       <path d="M 30.609375 48.390625 
Q 23.390625 48.390625 19.1875 42.75 
Q 14.984375 37.109375 14.984375 27.296875 
Q 14.984375 17.484375 19.15625 11.84375 
Q 23.34375 6.203125 30.609375 6.203125 
Q 37.796875 6.203125 41.984375 11.859375 
Q 46.1875 17.53125 46.1875 27.296875 
Q 46.1875 37.015625 41.984375 42.703125 
Q 37.796875 48.390625 30.609375 48.390625 
z
M 30.609375 56 
Q 42.328125 56 49.015625 48.375 
Q 55.71875 40.765625 55.71875 27.296875 
Q 55.71875 13.875 49.015625 6.21875 
Q 42.328125 -1.421875 30.609375 -1.421875 
Q 18.84375 -1.421875 12.171875 6.21875 
Q 5.515625 13.875 5.515625 27.296875 
Q 5.515625 40.765625 12.171875 48.375 
Q 18.84375 56 30.609375 56 
z
" id="DejaVuSans-111"/>
       <path d="M 41.109375 46.296875 
Q 39.59375 47.171875 37.8125 47.578125 
Q 36.03125 48 33.890625 48 
Q 26.265625 48 22.1875 43.046875 
Q 18.109375 38.09375 18.109375 28.8125 
L 18.109375 0 
L 9.078125 0 
L 9.078125 54.6875 
L 18.109375 54.6875 
L 18.109375 46.1875 
Q 20.953125 51.171875 25.484375 53.578125 
Q 30.03125 56 36.53125 56 
Q 37.453125 56 38.578125 55.875 
Q 39.703125 55.765625 41.0625 55.515625 
z
" id="DejaVuSans-114"/>
       <path d="M 54.890625 33.015625 
L 54.890625 0 
L 45.90625 0 
L 45.90625 32.71875 
Q 45.90625 40.484375 42.875 44.328125 
Q 39.84375 48.1875 33.796875 48.1875 
Q 26.515625 48.1875 22.3125 43.546875 
Q 18.109375 38.921875 18.109375 30.90625 
L 18.109375 0 
L 9.078125 0 
L 9.078125 54.6875 
L 18.109375 54.6875 
L 18.109375 46.1875 
Q 21.34375 51.125 25.703125 53.5625 
Q 30.078125 56 35.796875 56 
Q 45.21875 56 50.046875 50.171875 
Q 54.890625 44.34375 54.890625 33.015625 
z
" id="DejaVuSans-110"/>
       <path d="M 37.109375 75.984375 
L 37.109375 68.5 
L 28.515625 68.5 
Q 23.6875 68.5 21.796875 66.546875 
Q 19.921875 64.59375 19.921875 59.515625 
L 19.921875 54.6875 
L 34.71875 54.6875 
L 34.71875 47.703125 
L 19.921875 47.703125 
L 19.921875 0 
L 10.890625 0 
L 10.890625 47.703125 
L 2.296875 47.703125 
L 2.296875 54.6875 
L 10.890625 54.6875 
L 10.890625 58.5 
Q 10.890625 67.625 15.140625 71.796875 
Q 19.390625 75.984375 28.609375 75.984375 
z
" id="DejaVuSans-102"/>
       <path d="M 44.28125 53.078125 
L 44.28125 44.578125 
Q 40.484375 46.53125 36.375 47.5 
Q 32.28125 48.484375 27.875 48.484375 
Q 21.1875 48.484375 17.84375 46.4375 
Q 14.5 44.390625 14.5 40.28125 
Q 14.5 37.15625 16.890625 35.375 
Q 19.28125 33.59375 26.515625 31.984375 
L 29.59375 31.296875 
Q 39.15625 29.25 43.1875 25.515625 
Q 47.21875 21.78125 47.21875 15.09375 
Q 47.21875 7.46875 41.1875 3.015625 
Q 35.15625 -1.421875 24.609375 -1.421875 
Q 20.21875 -1.421875 15.453125 -0.5625 
Q 10.6875 0.296875 5.421875 2 
L 5.421875 11.28125 
Q 10.40625 8.6875 15.234375 7.390625 
Q 20.0625 6.109375 24.8125 6.109375 
Q 31.15625 6.109375 34.5625 8.28125 
Q 37.984375 10.453125 37.984375 14.40625 
Q 37.984375 18.0625 35.515625 20.015625 
Q 33.0625 21.96875 24.703125 23.78125 
L 21.578125 24.515625 
Q 13.234375 26.265625 9.515625 29.90625 
Q 5.8125 33.546875 5.8125 39.890625 
Q 5.8125 47.609375 11.28125 51.796875 
Q 16.75 56 26.8125 56 
Q 31.78125 56 36.171875 55.265625 
Q 40.578125 54.546875 44.28125 53.078125 
z
" id="DejaVuSans-115"/>
      </defs>
      <use xlink:href="#DejaVuSans-99"/>
      <use x="54.980469" xlink:href="#DejaVuSans-117"/>
      <use x="118.359375" xlink:href="#DejaVuSans-109"/>
      <use x="215.771484" xlink:href="#DejaVuSans-117"/>
      <use x="279.150391" xlink:href="#DejaVuSans-108"/>
      <use x="306.933594" xlink:href="#DejaVuSans-97"/>
      <use x="368.212891" xlink:href="#DejaVuSans-116"/>
      <use x="407.421875" xlink:href="#DejaVuSans-105"/>
      <use x="435.205078" xlink:href="#DejaVuSans-118"/>
      <use x="494.384766" xlink:href="#DejaVuSans-101"/>
      <use x="555.908203" xlink:href="#DejaVuSans-32"/>
      <use x="587.695312" xlink:href="#DejaVuSans-99"/>
      <use x="642.675781" xlink:href="#DejaVuSans-111"/>
      <use x="703.857422" xlink:href="#DejaVuSans-114"/>
      <use x="742.720703" xlink:href="#DejaVuSans-111"/>
      <use x="803.902344" xlink:href="#DejaVuSans-110"/>
      <use x="867.28125" xlink:href="#DejaVuSans-97"/>
      <use x="928.560547" xlink:href="#DejaVuSans-32"/>
      <use x="960.347656" xlink:href="#DejaVuSans-102"/>
      <use x="995.552734" xlink:href="#DejaVuSans-97"/>
      <use x="1056.832031" xlink:href="#DejaVuSans-116"/>
      <use x="1096.041016" xlink:href="#DejaVuSans-97"/>
      <use x="1157.320312" xlink:href="#DejaVuSans-108"/>
      <use x="1185.103516" xlink:href="#DejaVuSans-105"/>
      <use x="1212.886719" xlink:href="#DejaVuSans-116"/>
      <use x="1252.095703" xlink:href="#DejaVuSans-105"/>
      <use x="1279.878906" xlink:href="#DejaVuSans-101"/>
      <use x="1341.402344" xlink:href="#DejaVuSans-115"/>
     </g>
    </g>
   </g>
   <g id="patch_298">
    <path d="M 52.965625 239.758125 
L 52.965625 22.318125 
" style="fill:none;stroke:#000000;stroke-linecap:square;stroke-linejoin:miter;stroke-width:0.8;"/>
   </g>
   <g id="patch_299">
    <path d="M 52.965625 239.758125 
L 387.765625 239.758125 
" style="fill:none;stroke:#000000;stroke-linecap:square;stroke-linejoin:miter;stroke-width:0.8;"/>
   </g>
   <g id="text_21">
    <!-- South Tyrol -->
    <g transform="translate(187.073125 16.318125)scale(0.12 -0.12)">
     <defs>
      <path d="M 53.515625 70.515625 
L 53.515625 60.890625 
Q 47.90625 63.578125 42.921875 64.890625 
Q 37.9375 66.21875 33.296875 66.21875 
Q 25.25 66.21875 20.875 63.09375 
Q 16.5 59.96875 16.5 54.203125 
Q 16.5 49.359375 19.40625 46.890625 
Q 22.3125 44.4375 30.421875 42.921875 
L 36.375 41.703125 
Q 47.40625 39.59375 52.65625 34.296875 
Q 57.90625 29 57.90625 20.125 
Q 57.90625 9.515625 50.796875 4.046875 
Q 43.703125 -1.421875 29.984375 -1.421875 
Q 24.8125 -1.421875 18.96875 -0.25 
Q 13.140625 0.921875 6.890625 3.21875 
L 6.890625 13.375 
Q 12.890625 10.015625 18.65625 8.296875 
Q 24.421875 6.59375 29.984375 6.59375 
Q 38.421875 6.59375 43.015625 9.90625 
Q 47.609375 13.234375 47.609375 19.390625 
Q 47.609375 24.75 44.3125 27.78125 
Q 41.015625 30.8125 33.5 32.328125 
L 27.484375 33.5 
Q 16.453125 35.6875 11.515625 40.375 
Q 6.59375 45.0625 6.59375 53.421875 
Q 6.59375 63.09375 13.40625 68.65625 
Q 20.21875 74.21875 32.171875 74.21875 
Q 37.3125 74.21875 42.625 73.28125 
Q 47.953125 72.359375 53.515625 70.515625 
z
" id="DejaVuSans-83"/>
      <path d="M 54.890625 33.015625 
L 54.890625 0 
L 45.90625 0 
L 45.90625 32.71875 
Q 45.90625 40.484375 42.875 44.328125 
Q 39.84375 48.1875 33.796875 48.1875 
Q 26.515625 48.1875 22.3125 43.546875 
Q 18.109375 38.921875 18.109375 30.90625 
L 18.109375 0 
L 9.078125 0 
L 9.078125 75.984375 
L 18.109375 75.984375 
L 18.109375 46.1875 
Q 21.34375 51.125 25.703125 53.5625 
Q 30.078125 56 35.796875 56 
Q 45.21875 56 50.046875 50.171875 
Q 54.890625 44.34375 54.890625 33.015625 
z
" id="DejaVuSans-104"/>
      <path d="M -0.296875 72.90625 
L 61.375 72.90625 
L 61.375 64.59375 
L 35.5 64.59375 
L 35.5 0 
L 25.59375 0 
L 25.59375 64.59375 
L -0.296875 64.59375 
z
" id="DejaVuSans-84"/>
      <path d="M 32.171875 -5.078125 
Q 28.375 -14.84375 24.75 -17.8125 
Q 21.140625 -20.796875 15.09375 -20.796875 
L 7.90625 -20.796875 
L 7.90625 -13.28125 
L 13.1875 -13.28125 
Q 16.890625 -13.28125 18.9375 -11.515625 
Q 21 -9.765625 23.484375 -3.21875 
L 25.09375 0.875 
L 2.984375 54.6875 
L 12.5 54.6875 
L 29.59375 11.921875 
L 46.6875 54.6875 
L 56.203125 54.6875 
z
" id="DejaVuSans-121"/>
     </defs>
     <use xlink:href="#DejaVuSans-83"/>
     <use x="63.476562" xlink:href="#DejaVuSans-111"/>
     <use x="124.658203" xlink:href="#DejaVuSans-117"/>
     <use x="188.037109" xlink:href="#DejaVuSans-116"/>
     <use x="227.246094" xlink:href="#DejaVuSans-104"/>
     <use x="290.625" xlink:href="#DejaVuSans-32"/>
     <use x="322.412109" xlink:href="#DejaVuSans-84"/>
     <use x="367.871094" xlink:href="#DejaVuSans-121"/>
     <use x="427.050781" xlink:href="#DejaVuSans-114"/>
     <use x="465.914062" xlink:href="#DejaVuSans-111"/>
     <use x="527.095703" xlink:href="#DejaVuSans-108"/>
    </g>
   </g>
  </g>
 </g>
 <defs>
  <clipPath id="pa236ee221d">
   <rect height="217.44" width="334.8" x="52.965625" y="22.318125"/>
  </clipPath>
 </defs>
</svg>
