<?xml version="1.0" encoding="utf-8" standalone="no"?>
<!DOCTYPE svg PUBLIC "-//W3C//DTD SVG 1.1//EN"
  "http://www.w3.org/Graphics/SVG/1.1/DTD/svg11.dtd">
<!-- Created with matplotlib (https://matplotlib.org/) -->
<svg height="364.091062pt" version="1.1" viewBox="0 0 410.923125 364.091062" width="410.923125pt" xmlns="http://www.w3.org/2000/svg" xmlns:xlink="http://www.w3.org/1999/xlink">
 <metadata>
  <rdf:RDF xmlns:cc="http://creativecommons.org/ns#" xmlns:dc="http://purl.org/dc/elements/1.1/" xmlns:rdf="http://www.w3.org/1999/02/22-rdf-syntax-ns#">
   <cc:Work>
    <dc:type rdf:resource="http://purl.org/dc/dcmitype/StillImage"/>
    <dc:date>2020-12-06T11:24:58.362989</dc:date>
    <dc:format>image/svg+xml</dc:format>
    <dc:creator>
     <cc:Agent>
      <dc:title>Matplotlib v3.3.3, https://matplotlib.org/</dc:title>
     </cc:Agent>
    </dc:creator>
   </cc:Work>
  </rdf:RDF>
 </metadata>
 <defs>
  <style type="text/css">*{stroke-linecap:butt;stroke-linejoin:round;}</style>
 </defs>
 <g id="figure_1">
  <g id="patch_1">
   <path d="M 0 364.091062 
L 410.923125 364.091062 
L 410.923125 0 
L 0 0 
z
" style="fill:#ffffff;"/>
  </g>
  <g id="axes_1">
   <g id="patch_2">
    <path d="M 46.603125 288.430125 
L 403.723125 288.430125 
L 403.723125 22.318125 
L 46.603125 22.318125 
z
" style="fill:#ffffff;"/>
   </g>
   <g id="patch_3">
    <path clip-path="url(#pb47df3e05c)" d="M 46.736878 288.430125 
L 47.8069 288.430125 
L 47.8069 34.990125 
L 46.736878 34.990125 
z
" style="fill:#1f77b4;"/>
   </g>
   <g id="patch_4">
    <path clip-path="url(#pb47df3e05c)" d="M 48.074406 288.430125 
L 49.144428 288.430125 
L 49.144428 22.318125 
L 48.074406 22.318125 
z
" style="fill:#1f77b4;"/>
   </g>
   <g id="patch_5">
    <path clip-path="url(#pb47df3e05c)" d="M 49.411934 288.430125 
L 50.481956 288.430125 
L 50.481956 22.318125 
L 49.411934 22.318125 
z
" style="fill:#1f77b4;"/>
   </g>
   <g id="patch_6">
    <path clip-path="url(#pb47df3e05c)" d="M 50.749462 288.430125 
L 51.819485 288.430125 
L 51.819485 64.335809 
L 50.749462 64.335809 
z
" style="fill:#1f77b4;"/>
   </g>
   <g id="patch_7">
    <path clip-path="url(#pb47df3e05c)" d="M 52.08699 288.430125 
L 53.157013 288.430125 
L 53.157013 51.886125 
L 52.08699 51.886125 
z
" style="fill:#1f77b4;"/>
   </g>
   <g id="patch_8">
    <path clip-path="url(#pb47df3e05c)" d="M 53.424518 288.430125 
L 54.494541 288.430125 
L 54.494541 63.713325 
L 53.424518 63.713325 
z
" style="fill:#1f77b4;"/>
   </g>
   <g id="patch_9">
    <path clip-path="url(#pb47df3e05c)" d="M 54.762046 288.430125 
L 55.832069 288.430125 
L 55.832069 58.279206 
L 54.762046 58.279206 
z
" style="fill:#1f77b4;"/>
   </g>
   <g id="patch_10">
    <path clip-path="url(#pb47df3e05c)" d="M 56.099574 288.430125 
L 57.169597 288.430125 
L 57.169597 76.905202 
L 56.099574 76.905202 
z
" style="fill:#1f77b4;"/>
   </g>
   <g id="patch_11">
    <path clip-path="url(#pb47df3e05c)" d="M 57.437103 288.430125 
L 58.507125 288.430125 
L 58.507125 77.946057 
L 57.437103 77.946057 
z
" style="fill:#1f77b4;"/>
   </g>
   <g id="patch_12">
    <path clip-path="url(#pb47df3e05c)" d="M 58.774631 288.430125 
L 59.844653 288.430125 
L 59.844653 58.843301 
L 58.774631 58.843301 
z
" style="fill:#1f77b4;"/>
   </g>
   <g id="patch_13">
    <path clip-path="url(#pb47df3e05c)" d="M 60.112159 288.430125 
L 61.182181 288.430125 
L 61.182181 78.341704 
L 60.112159 78.341704 
z
" style="fill:#1f77b4;"/>
   </g>
   <g id="patch_14">
    <path clip-path="url(#pb47df3e05c)" d="M 61.449687 288.430125 
L 62.519709 288.430125 
L 62.519709 84.025255 
L 61.449687 84.025255 
z
" style="fill:#1f77b4;"/>
   </g>
   <g id="patch_15">
    <path clip-path="url(#pb47df3e05c)" d="M 62.787215 288.430125 
L 63.857237 288.430125 
L 63.857237 85.678125 
L 62.787215 85.678125 
z
" style="fill:#1f77b4;"/>
   </g>
   <g id="patch_16">
    <path clip-path="url(#pb47df3e05c)" d="M 64.124743 288.430125 
L 65.194765 288.430125 
L 65.194765 87.47239 
L 64.124743 87.47239 
z
" style="fill:#1f77b4;"/>
   </g>
   <g id="patch_17">
    <path clip-path="url(#pb47df3e05c)" d="M 65.462271 288.430125 
L 66.532294 288.430125 
L 66.532294 91.618125 
L 65.462271 91.618125 
z
" style="fill:#1f77b4;"/>
   </g>
   <g id="patch_18">
    <path clip-path="url(#pb47df3e05c)" d="M 66.799799 288.430125 
L 67.869822 288.430125 
L 67.869822 111.022125 
L 66.799799 111.022125 
z
" style="fill:#1f77b4;"/>
   </g>
   <g id="patch_19">
    <path clip-path="url(#pb47df3e05c)" d="M 68.137327 288.430125 
L 69.20735 288.430125 
L 69.20735 95.213491 
L 68.137327 95.213491 
z
" style="fill:#1f77b4;"/>
   </g>
   <g id="patch_20">
    <path clip-path="url(#pb47df3e05c)" d="M 69.474855 288.430125 
L 70.544878 288.430125 
L 70.544878 100.032249 
L 69.474855 100.032249 
z
" style="fill:#1f77b4;"/>
   </g>
   <g id="patch_21">
    <path clip-path="url(#pb47df3e05c)" d="M 70.812383 288.430125 
L 71.882406 288.430125 
L 71.882406 106.034752 
L 70.812383 106.034752 
z
" style="fill:#1f77b4;"/>
   </g>
   <g id="patch_22">
    <path clip-path="url(#pb47df3e05c)" d="M 72.149912 288.430125 
L 73.219934 288.430125 
L 73.219934 112.876564 
L 72.149912 112.876564 
z
" style="fill:#1f77b4;"/>
   </g>
   <g id="patch_23">
    <path clip-path="url(#pb47df3e05c)" d="M 73.48744 288.430125 
L 74.557462 288.430125 
L 74.557462 115.753005 
L 73.48744 115.753005 
z
" style="fill:#1f77b4;"/>
   </g>
   <g id="patch_24">
    <path clip-path="url(#pb47df3e05c)" d="M 74.824968 288.430125 
L 75.89499 288.430125 
L 75.89499 117.592792 
L 74.824968 117.592792 
z
" style="fill:#1f77b4;"/>
   </g>
   <g id="patch_25">
    <path clip-path="url(#pb47df3e05c)" d="M 76.162496 288.430125 
L 77.232518 288.430125 
L 77.232518 124.052091 
L 76.162496 124.052091 
z
" style="fill:#1f77b4;"/>
   </g>
   <g id="patch_26">
    <path clip-path="url(#pb47df3e05c)" d="M 77.500024 288.430125 
L 78.570046 288.430125 
L 78.570046 127.40545 
L 77.500024 127.40545 
z
" style="fill:#1f77b4;"/>
   </g>
   <g id="patch_27">
    <path clip-path="url(#pb47df3e05c)" d="M 78.837552 288.430125 
L 79.907574 288.430125 
L 79.907574 140.866461 
L 78.837552 140.866461 
z
" style="fill:#1f77b4;"/>
   </g>
   <g id="patch_28">
    <path clip-path="url(#pb47df3e05c)" d="M 80.17508 288.430125 
L 81.245103 288.430125 
L 81.245103 145.433159 
L 80.17508 145.433159 
z
" style="fill:#1f77b4;"/>
   </g>
   <g id="patch_29">
    <path clip-path="url(#pb47df3e05c)" d="M 81.512608 288.430125 
L 82.582631 288.430125 
L 82.582631 152.993401 
L 81.512608 152.993401 
z
" style="fill:#1f77b4;"/>
   </g>
   <g id="patch_30">
    <path clip-path="url(#pb47df3e05c)" d="M 82.850136 288.430125 
L 83.920159 288.430125 
L 83.920159 159.873603 
L 82.850136 159.873603 
z
" style="fill:#1f77b4;"/>
   </g>
   <g id="patch_31">
    <path clip-path="url(#pb47df3e05c)" d="M 84.187664 288.430125 
L 85.257687 288.430125 
L 85.257687 161.66574 
L 84.187664 161.66574 
z
" style="fill:#1f77b4;"/>
   </g>
   <g id="patch_32">
    <path clip-path="url(#pb47df3e05c)" d="M 85.525192 288.430125 
L 86.595215 288.430125 
L 86.595215 158.913249 
L 85.525192 158.913249 
z
" style="fill:#1f77b4;"/>
   </g>
   <g id="patch_33">
    <path clip-path="url(#pb47df3e05c)" d="M 86.862721 288.430125 
L 87.932743 288.430125 
L 87.932743 160.743438 
L 86.862721 160.743438 
z
" style="fill:#1f77b4;"/>
   </g>
   <g id="patch_34">
    <path clip-path="url(#pb47df3e05c)" d="M 88.200249 288.430125 
L 89.270271 288.430125 
L 89.270271 165.137144 
L 88.200249 165.137144 
z
" style="fill:#1f77b4;"/>
   </g>
   <g id="patch_35">
    <path clip-path="url(#pb47df3e05c)" d="M 89.537777 288.430125 
L 90.607799 288.430125 
L 90.607799 168.758456 
L 89.537777 168.758456 
z
" style="fill:#1f77b4;"/>
   </g>
   <g id="patch_36">
    <path clip-path="url(#pb47df3e05c)" d="M 90.875305 288.430125 
L 91.945327 288.430125 
L 91.945327 172.815923 
L 90.875305 172.815923 
z
" style="fill:#1f77b4;"/>
   </g>
   <g id="patch_37">
    <path clip-path="url(#pb47df3e05c)" d="M 92.212833 288.430125 
L 93.282855 288.430125 
L 93.282855 178.155711 
L 92.212833 178.155711 
z
" style="fill:#1f77b4;"/>
   </g>
   <g id="patch_38">
    <path clip-path="url(#pb47df3e05c)" d="M 93.550361 288.430125 
L 94.620383 288.430125 
L 94.620383 181.636611 
L 93.550361 181.636611 
z
" style="fill:#1f77b4;"/>
   </g>
   <g id="patch_39">
    <path clip-path="url(#pb47df3e05c)" d="M 94.887889 288.430125 
L 95.957912 288.430125 
L 95.957912 184.855466 
L 94.887889 184.855466 
z
" style="fill:#1f77b4;"/>
   </g>
   <g id="patch_40">
    <path clip-path="url(#pb47df3e05c)" d="M 96.225417 288.430125 
L 97.29544 288.430125 
L 97.29544 186.243117 
L 96.225417 186.243117 
z
" style="fill:#1f77b4;"/>
   </g>
   <g id="patch_41">
    <path clip-path="url(#pb47df3e05c)" d="M 97.562945 288.430125 
L 98.632968 288.430125 
L 98.632968 187.951258 
L 97.562945 187.951258 
z
" style="fill:#1f77b4;"/>
   </g>
   <g id="patch_42">
    <path clip-path="url(#pb47df3e05c)" d="M 98.900473 288.430125 
L 99.970496 288.430125 
L 99.970496 190.01676 
L 98.900473 190.01676 
z
" style="fill:#1f77b4;"/>
   </g>
   <g id="patch_43">
    <path clip-path="url(#pb47df3e05c)" d="M 100.238001 288.430125 
L 101.308024 288.430125 
L 101.308024 219.965996 
L 100.238001 219.965996 
z
" style="fill:#1f77b4;"/>
   </g>
   <g id="patch_44">
    <path clip-path="url(#pb47df3e05c)" d="M 101.575529 288.430125 
L 102.645552 288.430125 
L 102.645552 223.179438 
L 101.575529 223.179438 
z
" style="fill:#1f77b4;"/>
   </g>
   <g id="patch_45">
    <path clip-path="url(#pb47df3e05c)" d="M 102.913058 288.430125 
L 103.98308 288.430125 
L 103.98308 224.243505 
L 102.913058 224.243505 
z
" style="fill:#1f77b4;"/>
   </g>
   <g id="patch_46">
    <path clip-path="url(#pb47df3e05c)" d="M 104.250586 288.430125 
L 105.320608 288.430125 
L 105.320608 226.861796 
L 104.250586 226.861796 
z
" style="fill:#1f77b4;"/>
   </g>
   <g id="patch_47">
    <path clip-path="url(#pb47df3e05c)" d="M 105.588114 288.430125 
L 106.658136 288.430125 
L 106.658136 227.655596 
L 105.588114 227.655596 
z
" style="fill:#1f77b4;"/>
   </g>
   <g id="patch_48">
    <path clip-path="url(#pb47df3e05c)" d="M 106.925642 288.430125 
L 107.995664 288.430125 
L 107.995664 229.934587 
L 106.925642 229.934587 
z
" style="fill:#1f77b4;"/>
   </g>
   <g id="patch_49">
    <path clip-path="url(#pb47df3e05c)" d="M 108.26317 288.430125 
L 109.333192 288.430125 
L 109.333192 231.568587 
L 108.26317 231.568587 
z
" style="fill:#1f77b4;"/>
   </g>
   <g id="patch_50">
    <path clip-path="url(#pb47df3e05c)" d="M 109.600698 288.430125 
L 110.670721 288.430125 
L 110.670721 232.733429 
L 109.600698 232.733429 
z
" style="fill:#1f77b4;"/>
   </g>
   <g id="patch_51">
    <path clip-path="url(#pb47df3e05c)" d="M 110.938226 288.430125 
L 112.008249 288.430125 
L 112.008249 234.394282 
L 110.938226 234.394282 
z
" style="fill:#1f77b4;"/>
   </g>
   <g id="patch_52">
    <path clip-path="url(#pb47df3e05c)" d="M 112.275754 288.430125 
L 113.345777 288.430125 
L 113.345777 235.141351 
L 112.275754 235.141351 
z
" style="fill:#1f77b4;"/>
   </g>
   <g id="patch_53">
    <path clip-path="url(#pb47df3e05c)" d="M 113.613282 288.430125 
L 114.683305 288.430125 
L 114.683305 235.533671 
L 113.613282 235.533671 
z
" style="fill:#1f77b4;"/>
   </g>
   <g id="patch_54">
    <path clip-path="url(#pb47df3e05c)" d="M 114.95081 288.430125 
L 116.020833 288.430125 
L 116.020833 235.851174 
L 114.95081 235.851174 
z
" style="fill:#1f77b4;"/>
   </g>
   <g id="patch_55">
    <path clip-path="url(#pb47df3e05c)" d="M 116.288338 288.430125 
L 117.358361 288.430125 
L 117.358361 236.7614 
L 116.288338 236.7614 
z
" style="fill:#1f77b4;"/>
   </g>
   <g id="patch_56">
    <path clip-path="url(#pb47df3e05c)" d="M 117.625867 288.430125 
L 118.695889 288.430125 
L 118.695889 237.716794 
L 117.625867 237.716794 
z
" style="fill:#1f77b4;"/>
   </g>
   <g id="patch_57">
    <path clip-path="url(#pb47df3e05c)" d="M 118.963395 288.430125 
L 120.033417 288.430125 
L 120.033417 238.555697 
L 118.963395 238.555697 
z
" style="fill:#1f77b4;"/>
   </g>
   <g id="patch_58">
    <path clip-path="url(#pb47df3e05c)" d="M 120.300923 288.430125 
L 121.370945 288.430125 
L 121.370945 239.291328 
L 120.300923 239.291328 
z
" style="fill:#1f77b4;"/>
   </g>
   <g id="patch_59">
    <path clip-path="url(#pb47df3e05c)" d="M 121.638451 288.430125 
L 122.708473 288.430125 
L 122.708473 239.663945 
L 121.638451 239.663945 
z
" style="fill:#1f77b4;"/>
   </g>
   <g id="patch_60">
    <path clip-path="url(#pb47df3e05c)" d="M 122.975979 288.430125 
L 124.046001 288.430125 
L 124.046001 240.008177 
L 122.975979 240.008177 
z
" style="fill:#1f77b4;"/>
   </g>
   <g id="patch_61">
    <path clip-path="url(#pb47df3e05c)" d="M 124.313507 288.430125 
L 125.383529 288.430125 
L 125.383529 240.234977 
L 124.313507 240.234977 
z
" style="fill:#1f77b4;"/>
   </g>
   <g id="patch_62">
    <path clip-path="url(#pb47df3e05c)" d="M 125.651035 288.430125 
L 126.721058 288.430125 
L 126.721058 240.83686 
L 125.651035 240.83686 
z
" style="fill:#1f77b4;"/>
   </g>
   <g id="patch_63">
    <path clip-path="url(#pb47df3e05c)" d="M 126.988563 288.430125 
L 128.058586 288.430125 
L 128.058586 241.616367 
L 126.988563 241.616367 
z
" style="fill:#1f77b4;"/>
   </g>
   <g id="patch_64">
    <path clip-path="url(#pb47df3e05c)" d="M 128.326091 288.430125 
L 129.396114 288.430125 
L 129.396114 242.059399 
L 128.326091 242.059399 
z
" style="fill:#1f77b4;"/>
   </g>
   <g id="patch_65">
    <path clip-path="url(#pb47df3e05c)" d="M 129.663619 288.430125 
L 130.733642 288.430125 
L 130.733642 242.494125 
L 129.663619 242.494125 
z
" style="fill:#1f77b4;"/>
   </g>
   <g id="patch_66">
    <path clip-path="url(#pb47df3e05c)" d="M 131.001147 288.430125 
L 132.07117 288.430125 
L 132.07117 243.041223 
L 131.001147 243.041223 
z
" style="fill:#1f77b4;"/>
   </g>
   <g id="patch_67">
    <path clip-path="url(#pb47df3e05c)" d="M 132.338676 288.430125 
L 133.408698 288.430125 
L 133.408698 243.04487 
L 132.338676 243.04487 
z
" style="fill:#1f77b4;"/>
   </g>
   <g id="patch_68">
    <path clip-path="url(#pb47df3e05c)" d="M 133.676204 288.430125 
L 134.746226 288.430125 
L 134.746226 243.124528 
L 133.676204 243.124528 
z
" style="fill:#1f77b4;"/>
   </g>
   <g id="patch_69">
    <path clip-path="url(#pb47df3e05c)" d="M 135.013732 288.430125 
L 136.083754 288.430125 
L 136.083754 243.829064 
L 135.013732 243.829064 
z
" style="fill:#1f77b4;"/>
   </g>
   <g id="patch_70">
    <path clip-path="url(#pb47df3e05c)" d="M 136.35126 288.430125 
L 137.421282 288.430125 
L 137.421282 244.248929 
L 136.35126 244.248929 
z
" style="fill:#1f77b4;"/>
   </g>
   <g id="patch_71">
    <path clip-path="url(#pb47df3e05c)" d="M 137.688788 288.430125 
L 138.75881 288.430125 
L 138.75881 244.790456 
L 137.688788 244.790456 
z
" style="fill:#1f77b4;"/>
   </g>
   <g id="patch_72">
    <path clip-path="url(#pb47df3e05c)" d="M 139.026316 288.430125 
L 140.096338 288.430125 
L 140.096338 244.974125 
L 139.026316 244.974125 
z
" style="fill:#1f77b4;"/>
   </g>
   <g id="patch_73">
    <path clip-path="url(#pb47df3e05c)" d="M 140.363844 288.430125 
L 141.433867 288.430125 
L 141.433867 245.372804 
L 140.363844 245.372804 
z
" style="fill:#1f77b4;"/>
   </g>
   <g id="patch_74">
    <path clip-path="url(#pb47df3e05c)" d="M 141.701372 288.430125 
L 142.771395 288.430125 
L 142.771395 245.569413 
L 141.701372 245.569413 
z
" style="fill:#1f77b4;"/>
   </g>
   <g id="patch_75">
    <path clip-path="url(#pb47df3e05c)" d="M 143.0389 288.430125 
L 144.108923 288.430125 
L 144.108923 245.658188 
L 143.0389 245.658188 
z
" style="fill:#1f77b4;"/>
   </g>
   <g id="patch_76">
    <path clip-path="url(#pb47df3e05c)" d="M 144.376428 288.430125 
L 145.446451 288.430125 
L 145.446451 245.799466 
L 144.376428 245.799466 
z
" style="fill:#1f77b4;"/>
   </g>
   <g id="patch_77">
    <path clip-path="url(#pb47df3e05c)" d="M 145.713956 288.430125 
L 146.783979 288.430125 
L 146.783979 246.079241 
L 145.713956 246.079241 
z
" style="fill:#1f77b4;"/>
   </g>
   <g id="patch_78">
    <path clip-path="url(#pb47df3e05c)" d="M 147.051485 288.430125 
L 148.121507 288.430125 
L 148.121507 246.13129 
L 147.051485 246.13129 
z
" style="fill:#1f77b4;"/>
   </g>
   <g id="patch_79">
    <path clip-path="url(#pb47df3e05c)" d="M 148.389013 288.430125 
L 149.459035 288.430125 
L 149.459035 246.44092 
L 148.389013 246.44092 
z
" style="fill:#1f77b4;"/>
   </g>
   <g id="patch_80">
    <path clip-path="url(#pb47df3e05c)" d="M 149.726541 288.430125 
L 150.796563 288.430125 
L 150.796563 246.627916 
L 149.726541 246.627916 
z
" style="fill:#1f77b4;"/>
   </g>
   <g id="patch_81">
    <path clip-path="url(#pb47df3e05c)" d="M 151.064069 288.430125 
L 152.134091 288.430125 
L 152.134091 246.712365 
L 151.064069 246.712365 
z
" style="fill:#1f77b4;"/>
   </g>
   <g id="patch_82">
    <path clip-path="url(#pb47df3e05c)" d="M 152.401597 288.430125 
L 153.471619 288.430125 
L 153.471619 246.762871 
L 152.401597 246.762871 
z
" style="fill:#1f77b4;"/>
   </g>
   <g id="patch_83">
    <path clip-path="url(#pb47df3e05c)" d="M 153.739125 288.430125 
L 154.809147 288.430125 
L 154.809147 246.762871 
L 153.739125 246.762871 
z
" style="fill:#1f77b4;"/>
   </g>
   <g id="patch_84">
    <path clip-path="url(#pb47df3e05c)" d="M 155.076653 288.430125 
L 156.146676 288.430125 
L 156.146676 246.754231 
L 155.076653 246.754231 
z
" style="fill:#1f77b4;"/>
   </g>
   <g id="patch_85">
    <path clip-path="url(#pb47df3e05c)" d="M 156.414181 288.430125 
L 157.484204 288.430125 
L 157.484204 246.954436 
L 156.414181 246.954436 
z
" style="fill:#1f77b4;"/>
   </g>
   <g id="patch_86">
    <path clip-path="url(#pb47df3e05c)" d="M 157.751709 288.430125 
L 158.821732 288.430125 
L 158.821732 246.987616 
L 157.751709 246.987616 
z
" style="fill:#1f77b4;"/>
   </g>
   <g id="patch_87">
    <path clip-path="url(#pb47df3e05c)" d="M 159.089237 288.430125 
L 160.15926 288.430125 
L 160.15926 247.08684 
L 159.089237 247.08684 
z
" style="fill:#1f77b4;"/>
   </g>
   <g id="patch_88">
    <path clip-path="url(#pb47df3e05c)" d="M 160.426765 288.430125 
L 161.496788 288.430125 
L 161.496788 247.103331 
L 160.426765 247.103331 
z
" style="fill:#1f77b4;"/>
   </g>
   <g id="patch_89">
    <path clip-path="url(#pb47df3e05c)" d="M 161.764294 288.430125 
L 162.834316 288.430125 
L 162.834316 247.136274 
L 161.764294 247.136274 
z
" style="fill:#1f77b4;"/>
   </g>
   <g id="patch_90">
    <path clip-path="url(#pb47df3e05c)" d="M 163.101822 288.430125 
L 164.171844 288.430125 
L 164.171844 247.152726 
L 163.101822 247.152726 
z
" style="fill:#1f77b4;"/>
   </g>
   <g id="patch_91">
    <path clip-path="url(#pb47df3e05c)" d="M 164.43935 288.430125 
L 165.509372 288.430125 
L 165.509372 247.103331 
L 164.43935 247.103331 
z
" style="fill:#1f77b4;"/>
   </g>
   <g id="patch_92">
    <path clip-path="url(#pb47df3e05c)" d="M 165.776878 288.430125 
L 166.8469 288.430125 
L 166.8469 247.244861 
L 165.776878 247.244861 
z
" style="fill:#1f77b4;"/>
   </g>
   <g id="patch_93">
    <path clip-path="url(#pb47df3e05c)" d="M 167.114406 288.430125 
L 168.184428 288.430125 
L 168.184428 247.375868 
L 167.114406 247.375868 
z
" style="fill:#1f77b4;"/>
   </g>
   <g id="patch_94">
    <path clip-path="url(#pb47df3e05c)" d="M 168.451934 288.430125 
L 169.521956 288.430125 
L 169.521956 247.392185 
L 168.451934 247.392185 
z
" style="fill:#1f77b4;"/>
   </g>
   <g id="patch_95">
    <path clip-path="url(#pb47df3e05c)" d="M 169.789462 288.430125 
L 170.859485 288.430125 
L 170.859485 247.267522 
L 169.789462 247.267522 
z
" style="fill:#1f77b4;"/>
   </g>
   <g id="patch_96">
    <path clip-path="url(#pb47df3e05c)" d="M 171.12699 288.430125 
L 172.197013 288.430125 
L 172.197013 247.283869 
L 171.12699 247.283869 
z
" style="fill:#1f77b4;"/>
   </g>
   <g id="patch_97">
    <path clip-path="url(#pb47df3e05c)" d="M 172.464518 288.430125 
L 173.534541 288.430125 
L 173.534541 247.381681 
L 172.464518 247.381681 
z
" style="fill:#1f77b4;"/>
   </g>
   <g id="patch_98">
    <path clip-path="url(#pb47df3e05c)" d="M 173.802046 288.430125 
L 174.872069 288.430125 
L 174.872069 247.446631 
L 173.802046 247.446631 
z
" style="fill:#1f77b4;"/>
   </g>
   <g id="patch_99">
    <path clip-path="url(#pb47df3e05c)" d="M 175.139574 288.430125 
L 176.209597 288.430125 
L 176.209597 247.640254 
L 175.139574 247.640254 
z
" style="fill:#1f77b4;"/>
   </g>
   <g id="patch_100">
    <path clip-path="url(#pb47df3e05c)" d="M 176.477103 288.430125 
L 177.547125 288.430125 
L 177.547125 247.672347 
L 176.477103 247.672347 
z
" style="fill:#1f77b4;"/>
   </g>
   <g id="patch_101">
    <path clip-path="url(#pb47df3e05c)" d="M 177.814631 288.430125 
L 178.884653 288.430125 
L 178.884653 247.752358 
L 177.814631 247.752358 
z
" style="fill:#1f77b4;"/>
   </g>
   <g id="patch_102">
    <path clip-path="url(#pb47df3e05c)" d="M 179.152159 288.430125 
L 180.222181 288.430125 
L 180.222181 247.704389 
L 179.152159 247.704389 
z
" style="fill:#1f77b4;"/>
   </g>
   <g id="patch_103">
    <path clip-path="url(#pb47df3e05c)" d="M 180.489687 288.430125 
L 181.559709 288.430125 
L 181.559709 247.704389 
L 180.489687 247.704389 
z
" style="fill:#1f77b4;"/>
   </g>
   <g id="patch_104">
    <path clip-path="url(#pb47df3e05c)" d="M 181.827215 288.430125 
L 182.897237 288.430125 
L 182.897237 247.704389 
L 181.827215 247.704389 
z
" style="fill:#1f77b4;"/>
   </g>
   <g id="patch_105">
    <path clip-path="url(#pb47df3e05c)" d="M 183.164743 288.430125 
L 184.234765 288.430125 
L 184.234765 247.752358 
L 183.164743 247.752358 
z
" style="fill:#1f77b4;"/>
   </g>
   <g id="patch_106">
    <path clip-path="url(#pb47df3e05c)" d="M 184.502271 288.430125 
L 185.572294 288.430125 
L 185.572294 247.784275 
L 184.502271 247.784275 
z
" style="fill:#1f77b4;"/>
   </g>
   <g id="patch_107">
    <path clip-path="url(#pb47df3e05c)" d="M 185.839799 288.430125 
L 186.909822 288.430125 
L 186.909822 247.784275 
L 185.839799 247.784275 
z
" style="fill:#1f77b4;"/>
   </g>
   <g id="patch_108">
    <path clip-path="url(#pb47df3e05c)" d="M 187.177327 288.430125 
L 188.24735 288.430125 
L 188.24735 247.832056 
L 187.177327 247.832056 
z
" style="fill:#1f77b4;"/>
   </g>
   <g id="patch_109">
    <path clip-path="url(#pb47df3e05c)" d="M 188.514855 288.430125 
L 189.584878 288.430125 
L 189.584878 247.863848 
L 188.514855 247.863848 
z
" style="fill:#1f77b4;"/>
   </g>
   <g id="patch_110">
    <path clip-path="url(#pb47df3e05c)" d="M 189.852383 288.430125 
L 190.922406 288.430125 
L 190.922406 247.879725 
L 189.852383 247.879725 
z
" style="fill:#1f77b4;"/>
   </g>
   <g id="patch_111">
    <path clip-path="url(#pb47df3e05c)" d="M 191.189912 288.430125 
L 192.259934 288.430125 
L 192.259934 247.927282 
L 191.189912 247.927282 
z
" style="fill:#1f77b4;"/>
   </g>
   <g id="patch_112">
    <path clip-path="url(#pb47df3e05c)" d="M 192.52744 288.430125 
L 193.597462 288.430125 
L 193.597462 247.927282 
L 192.52744 247.927282 
z
" style="fill:#1f77b4;"/>
   </g>
   <g id="patch_113">
    <path clip-path="url(#pb47df3e05c)" d="M 193.864968 288.430125 
L 194.93499 288.430125 
L 194.93499 247.94311 
L 193.864968 247.94311 
z
" style="fill:#1f77b4;"/>
   </g>
   <g id="patch_114">
    <path clip-path="url(#pb47df3e05c)" d="M 195.202496 288.430125 
L 196.272518 288.430125 
L 196.272518 247.958925 
L 195.202496 247.958925 
z
" style="fill:#1f77b4;"/>
   </g>
   <g id="patch_115">
    <path clip-path="url(#pb47df3e05c)" d="M 196.540024 288.430125 
L 197.610046 288.430125 
L 197.610046 247.990518 
L 196.540024 247.990518 
z
" style="fill:#1f77b4;"/>
   </g>
   <g id="patch_116">
    <path clip-path="url(#pb47df3e05c)" d="M 197.877552 288.430125 
L 198.947574 288.430125 
L 198.947574 248.022063 
L 197.877552 248.022063 
z
" style="fill:#1f77b4;"/>
   </g>
   <g id="patch_117">
    <path clip-path="url(#pb47df3e05c)" d="M 199.21508 288.430125 
L 200.285103 288.430125 
L 200.285103 248.037816 
L 199.21508 248.037816 
z
" style="fill:#1f77b4;"/>
   </g>
   <g id="patch_118">
    <path clip-path="url(#pb47df3e05c)" d="M 200.552608 288.430125 
L 201.622631 288.430125 
L 201.622631 248.069287 
L 200.552608 248.069287 
z
" style="fill:#1f77b4;"/>
   </g>
   <g id="patch_119">
    <path clip-path="url(#pb47df3e05c)" d="M 201.890136 288.430125 
L 202.960159 288.430125 
L 202.960159 248.100708 
L 201.890136 248.100708 
z
" style="fill:#1f77b4;"/>
   </g>
   <g id="patch_120">
    <path clip-path="url(#pb47df3e05c)" d="M 203.227664 288.430125 
L 204.297687 288.430125 
L 204.297687 248.147749 
L 203.227664 248.147749 
z
" style="fill:#1f77b4;"/>
   </g>
   <g id="patch_121">
    <path clip-path="url(#pb47df3e05c)" d="M 204.565192 288.430125 
L 205.635215 288.430125 
L 205.635215 248.257084 
L 204.565192 248.257084 
z
" style="fill:#1f77b4;"/>
   </g>
   <g id="patch_122">
    <path clip-path="url(#pb47df3e05c)" d="M 205.902721 288.430125 
L 206.972743 288.430125 
L 206.972743 248.241501 
L 205.902721 248.241501 
z
" style="fill:#1f77b4;"/>
   </g>
   <g id="patch_123">
    <path clip-path="url(#pb47df3e05c)" d="M 207.240249 288.430125 
L 208.310271 288.430125 
L 208.310271 248.241501 
L 207.240249 248.241501 
z
" style="fill:#1f77b4;"/>
   </g>
   <g id="patch_124">
    <path clip-path="url(#pb47df3e05c)" d="M 208.577777 288.430125 
L 209.647799 288.430125 
L 209.647799 248.257084 
L 208.577777 248.257084 
z
" style="fill:#1f77b4;"/>
   </g>
   <g id="patch_125">
    <path clip-path="url(#pb47df3e05c)" d="M 209.915305 288.430125 
L 210.985327 288.430125 
L 210.985327 248.272655 
L 209.915305 248.272655 
z
" style="fill:#1f77b4;"/>
   </g>
   <g id="patch_126">
    <path clip-path="url(#pb47df3e05c)" d="M 211.252833 288.430125 
L 212.322855 288.430125 
L 212.322855 248.241501 
L 211.252833 248.241501 
z
" style="fill:#1f77b4;"/>
   </g>
   <g id="patch_127">
    <path clip-path="url(#pb47df3e05c)" d="M 212.590361 288.430125 
L 213.660383 288.430125 
L 213.660383 248.288214 
L 212.590361 248.288214 
z
" style="fill:#1f77b4;"/>
   </g>
   <g id="patch_128">
    <path clip-path="url(#pb47df3e05c)" d="M 213.927889 288.430125 
L 214.997912 288.430125 
L 214.997912 248.303761 
L 213.927889 248.303761 
z
" style="fill:#1f77b4;"/>
   </g>
   <g id="patch_129">
    <path clip-path="url(#pb47df3e05c)" d="M 215.265417 288.430125 
L 216.33544 288.430125 
L 216.33544 248.319296 
L 215.265417 248.319296 
z
" style="fill:#1f77b4;"/>
   </g>
   <g id="patch_130">
    <path clip-path="url(#pb47df3e05c)" d="M 216.602945 288.430125 
L 217.672968 288.430125 
L 217.672968 248.334818 
L 216.602945 248.334818 
z
" style="fill:#1f77b4;"/>
   </g>
   <g id="patch_131">
    <path clip-path="url(#pb47df3e05c)" d="M 217.940473 288.430125 
L 219.010496 288.430125 
L 219.010496 248.365828 
L 217.940473 248.365828 
z
" style="fill:#1f77b4;"/>
   </g>
   <g id="patch_132">
    <path clip-path="url(#pb47df3e05c)" d="M 219.278001 288.430125 
L 220.348024 288.430125 
L 220.348024 248.412252 
L 219.278001 248.412252 
z
" style="fill:#1f77b4;"/>
   </g>
   <g id="patch_133">
    <path clip-path="url(#pb47df3e05c)" d="M 220.615529 288.430125 
L 221.685552 288.430125 
L 221.685552 248.535527 
L 220.615529 248.535527 
z
" style="fill:#1f77b4;"/>
   </g>
   <g id="patch_134">
    <path clip-path="url(#pb47df3e05c)" d="M 221.953058 288.430125 
L 223.02308 288.430125 
L 223.02308 248.64277 
L 221.953058 248.64277 
z
" style="fill:#1f77b4;"/>
   </g>
   <g id="patch_135">
    <path clip-path="url(#pb47df3e05c)" d="M 223.290586 288.430125 
L 224.360608 288.430125 
L 224.360608 248.673305 
L 223.290586 248.673305 
z
" style="fill:#1f77b4;"/>
   </g>
   <g id="patch_136">
    <path clip-path="url(#pb47df3e05c)" d="M 224.628114 288.430125 
L 225.698136 288.430125 
L 225.698136 248.673305 
L 224.628114 248.673305 
z
" style="fill:#1f77b4;"/>
   </g>
   <g id="patch_137">
    <path clip-path="url(#pb47df3e05c)" d="M 225.965642 288.430125 
L 227.035664 288.430125 
L 227.035664 248.673305 
L 225.965642 248.673305 
z
" style="fill:#1f77b4;"/>
   </g>
   <g id="patch_138">
    <path clip-path="url(#pb47df3e05c)" d="M 227.30317 288.430125 
L 228.373192 288.430125 
L 228.373192 248.688555 
L 227.30317 248.688555 
z
" style="fill:#1f77b4;"/>
   </g>
   <g id="patch_139">
    <path clip-path="url(#pb47df3e05c)" d="M 228.640698 288.430125 
L 229.710721 288.430125 
L 229.710721 248.734235 
L 228.640698 248.734235 
z
" style="fill:#1f77b4;"/>
   </g>
   <g id="patch_140">
    <path clip-path="url(#pb47df3e05c)" d="M 229.978226 288.430125 
L 231.048249 288.430125 
L 231.048249 248.734235 
L 229.978226 248.734235 
z
" style="fill:#1f77b4;"/>
   </g>
   <g id="patch_141">
    <path clip-path="url(#pb47df3e05c)" d="M 231.315754 288.430125 
L 232.385777 288.430125 
L 232.385777 248.810136 
L 231.315754 248.810136 
z
" style="fill:#1f77b4;"/>
   </g>
   <g id="patch_142">
    <path clip-path="url(#pb47df3e05c)" d="M 232.653282 288.430125 
L 233.723305 288.430125 
L 233.723305 248.855537 
L 232.653282 248.855537 
z
" style="fill:#1f77b4;"/>
   </g>
   <g id="patch_143">
    <path clip-path="url(#pb47df3e05c)" d="M 233.99081 288.430125 
L 235.060833 288.430125 
L 235.060833 248.900834 
L 233.99081 248.900834 
z
" style="fill:#1f77b4;"/>
   </g>
   <g id="patch_144">
    <path clip-path="url(#pb47df3e05c)" d="M 235.328338 288.430125 
L 236.398361 288.430125 
L 236.398361 248.91591 
L 235.328338 248.91591 
z
" style="fill:#1f77b4;"/>
   </g>
   <g id="patch_145">
    <path clip-path="url(#pb47df3e05c)" d="M 236.665867 288.430125 
L 237.735889 288.430125 
L 237.735889 248.91591 
L 236.665867 248.91591 
z
" style="fill:#1f77b4;"/>
   </g>
   <g id="patch_146">
    <path clip-path="url(#pb47df3e05c)" d="M 238.003395 288.430125 
L 239.073417 288.430125 
L 239.073417 249.021121 
L 238.003395 249.021121 
z
" style="fill:#1f77b4;"/>
   </g>
   <g id="patch_147">
    <path clip-path="url(#pb47df3e05c)" d="M 239.340923 288.430125 
L 240.410945 288.430125 
L 240.410945 249.08099 
L 239.340923 249.08099 
z
" style="fill:#1f77b4;"/>
   </g>
   <g id="patch_148">
    <path clip-path="url(#pb47df3e05c)" d="M 240.678451 288.430125 
L 241.748473 288.430125 
L 241.748473 249.08099 
L 240.678451 249.08099 
z
" style="fill:#1f77b4;"/>
   </g>
   <g id="patch_149">
    <path clip-path="url(#pb47df3e05c)" d="M 242.015979 288.430125 
L 243.086001 288.430125 
L 243.086001 249.229871 
L 242.015979 249.229871 
z
" style="fill:#1f77b4;"/>
   </g>
   <g id="patch_150">
    <path clip-path="url(#pb47df3e05c)" d="M 243.353507 288.430125 
L 244.423529 288.430125 
L 244.423529 249.259512 
L 243.353507 249.259512 
z
" style="fill:#1f77b4;"/>
   </g>
   <g id="patch_151">
    <path clip-path="url(#pb47df3e05c)" d="M 244.691035 288.430125 
L 245.761058 288.430125 
L 245.761058 249.274315 
L 244.691035 249.274315 
z
" style="fill:#1f77b4;"/>
   </g>
   <g id="patch_152">
    <path clip-path="url(#pb47df3e05c)" d="M 246.028563 288.430125 
L 247.098586 288.430125 
L 247.098586 249.289108 
L 246.028563 249.289108 
z
" style="fill:#1f77b4;"/>
   </g>
   <g id="patch_153">
    <path clip-path="url(#pb47df3e05c)" d="M 247.366091 288.430125 
L 248.436114 288.430125 
L 248.436114 249.31866 
L 247.366091 249.31866 
z
" style="fill:#1f77b4;"/>
   </g>
   <g id="patch_154">
    <path clip-path="url(#pb47df3e05c)" d="M 248.703619 288.430125 
L 249.773642 288.430125 
L 249.773642 249.46575 
L 248.703619 249.46575 
z
" style="fill:#1f77b4;"/>
   </g>
   <g id="patch_155">
    <path clip-path="url(#pb47df3e05c)" d="M 250.041147 288.430125 
L 251.11117 288.430125 
L 251.11117 249.495036 
L 250.041147 249.495036 
z
" style="fill:#1f77b4;"/>
   </g>
   <g id="patch_156">
    <path clip-path="url(#pb47df3e05c)" d="M 251.378676 288.430125 
L 252.448698 288.430125 
L 252.448698 249.582629 
L 251.378676 249.582629 
z
" style="fill:#1f77b4;"/>
   </g>
   <g id="patch_157">
    <path clip-path="url(#pb47df3e05c)" d="M 252.716204 288.430125 
L 253.786226 288.430125 
L 253.786226 249.669829 
L 252.716204 249.669829 
z
" style="fill:#1f77b4;"/>
   </g>
   <g id="patch_158">
    <path clip-path="url(#pb47df3e05c)" d="M 254.053732 288.430125 
L 255.123754 288.430125 
L 255.123754 249.727745 
L 254.053732 249.727745 
z
" style="fill:#1f77b4;"/>
   </g>
   <g id="patch_159">
    <path clip-path="url(#pb47df3e05c)" d="M 255.39126 288.430125 
L 256.461282 288.430125 
L 256.461282 249.727745 
L 255.39126 249.727745 
z
" style="fill:#1f77b4;"/>
   </g>
   <g id="patch_160">
    <path clip-path="url(#pb47df3e05c)" d="M 256.728788 288.430125 
L 257.79881 288.430125 
L 257.79881 249.900459 
L 256.728788 249.900459 
z
" style="fill:#1f77b4;"/>
   </g>
   <g id="patch_161">
    <path clip-path="url(#pb47df3e05c)" d="M 258.066316 288.430125 
L 259.136338 288.430125 
L 259.136338 249.957688 
L 258.066316 249.957688 
z
" style="fill:#1f77b4;"/>
   </g>
   <g id="patch_162">
    <path clip-path="url(#pb47df3e05c)" d="M 259.403844 288.430125 
L 260.473867 288.430125 
L 260.473867 250.000499 
L 259.403844 250.000499 
z
" style="fill:#1f77b4;"/>
   </g>
   <g id="patch_163">
    <path clip-path="url(#pb47df3e05c)" d="M 260.741372 288.430125 
L 261.811395 288.430125 
L 261.811395 250.213131 
L 260.741372 250.213131 
z
" style="fill:#1f77b4;"/>
   </g>
   <g id="patch_164">
    <path clip-path="url(#pb47df3e05c)" d="M 262.0789 288.430125 
L 263.148923 288.430125 
L 263.148923 250.227222 
L 262.0789 250.227222 
z
" style="fill:#1f77b4;"/>
   </g>
   <g id="patch_165">
    <path clip-path="url(#pb47df3e05c)" d="M 263.416428 288.430125 
L 264.486451 288.430125 
L 264.486451 250.227222 
L 263.416428 250.227222 
z
" style="fill:#1f77b4;"/>
   </g>
   <g id="patch_166">
    <path clip-path="url(#pb47df3e05c)" d="M 264.753956 288.430125 
L 265.823979 288.430125 
L 265.823979 250.516846 
L 264.753956 250.516846 
z
" style="fill:#1f77b4;"/>
   </g>
   <g id="patch_167">
    <path clip-path="url(#pb47df3e05c)" d="M 266.091485 288.430125 
L 267.161507 288.430125 
L 267.161507 250.339584 
L 266.091485 250.339584 
z
" style="fill:#1f77b4;"/>
   </g>
   <g id="patch_168">
    <path clip-path="url(#pb47df3e05c)" d="M 267.429013 288.430125 
L 268.499035 288.430125 
L 268.499035 250.367571 
L 267.429013 250.367571 
z
" style="fill:#1f77b4;"/>
   </g>
   <g id="patch_169">
    <path clip-path="url(#pb47df3e05c)" d="M 268.766541 288.430125 
L 269.836563 288.430125 
L 269.836563 250.423422 
L 268.766541 250.423422 
z
" style="fill:#1f77b4;"/>
   </g>
   <g id="patch_170">
    <path clip-path="url(#pb47df3e05c)" d="M 270.104069 288.430125 
L 271.174091 288.430125 
L 271.174091 250.534634 
L 270.104069 250.534634 
z
" style="fill:#1f77b4;"/>
   </g>
   <g id="patch_171">
    <path clip-path="url(#pb47df3e05c)" d="M 271.441597 288.430125 
L 272.511619 288.430125 
L 272.511619 250.645197 
L 271.441597 250.645197 
z
" style="fill:#1f77b4;"/>
   </g>
   <g id="patch_172">
    <path clip-path="url(#pb47df3e05c)" d="M 272.779125 288.430125 
L 273.849147 288.430125 
L 273.849147 250.686492 
L 272.779125 250.686492 
z
" style="fill:#1f77b4;"/>
   </g>
   <g id="patch_173">
    <path clip-path="url(#pb47df3e05c)" d="M 274.116653 288.430125 
L 275.186676 288.430125 
L 275.186676 250.713972 
L 274.116653 250.713972 
z
" style="fill:#1f77b4;"/>
   </g>
   <g id="patch_174">
    <path clip-path="url(#pb47df3e05c)" d="M 275.454181 288.430125 
L 276.524204 288.430125 
L 276.524204 250.782497 
L 275.454181 250.782497 
z
" style="fill:#1f77b4;"/>
   </g>
   <g id="patch_175">
    <path clip-path="url(#pb47df3e05c)" d="M 276.791709 288.430125 
L 277.861732 288.430125 
L 277.861732 250.837138 
L 276.791709 250.837138 
z
" style="fill:#1f77b4;"/>
   </g>
   <g id="patch_176">
    <path clip-path="url(#pb47df3e05c)" d="M 278.129237 288.430125 
L 279.19926 288.430125 
L 279.19926 250.945946 
L 278.129237 250.945946 
z
" style="fill:#1f77b4;"/>
   </g>
   <g id="patch_177">
    <path clip-path="url(#pb47df3e05c)" d="M 279.466765 288.430125 
L 280.536788 288.430125 
L 280.536788 251.134851 
L 279.466765 251.134851 
z
" style="fill:#1f77b4;"/>
   </g>
   <g id="patch_178">
    <path clip-path="url(#pb47df3e05c)" d="M 280.804294 288.430125 
L 281.874316 288.430125 
L 281.874316 251.228591 
L 280.804294 251.228591 
z
" style="fill:#1f77b4;"/>
   </g>
   <g id="patch_179">
    <path clip-path="url(#pb47df3e05c)" d="M 282.141822 288.430125 
L 283.211844 288.430125 
L 283.211844 251.268621 
L 282.141822 251.268621 
z
" style="fill:#1f77b4;"/>
   </g>
   <g id="patch_180">
    <path clip-path="url(#pb47df3e05c)" d="M 283.47935 288.430125 
L 284.549372 288.430125 
L 284.549372 251.281946 
L 283.47935 251.281946 
z
" style="fill:#1f77b4;"/>
   </g>
   <g id="patch_181">
    <path clip-path="url(#pb47df3e05c)" d="M 284.816878 288.430125 
L 285.8869 288.430125 
L 285.8869 251.348424 
L 284.816878 251.348424 
z
" style="fill:#1f77b4;"/>
   </g>
   <g id="patch_182">
    <path clip-path="url(#pb47df3e05c)" d="M 286.154406 288.430125 
L 287.224428 288.430125 
L 287.224428 251.401436 
L 286.154406 251.401436 
z
" style="fill:#1f77b4;"/>
   </g>
   <g id="patch_183">
    <path clip-path="url(#pb47df3e05c)" d="M 287.491934 288.430125 
L 288.561956 288.430125 
L 288.561956 251.533304 
L 287.491934 251.533304 
z
" style="fill:#1f77b4;"/>
   </g>
   <g id="patch_184">
    <path clip-path="url(#pb47df3e05c)" d="M 288.829462 288.430125 
L 289.899485 288.430125 
L 289.899485 251.71635 
L 288.829462 251.71635 
z
" style="fill:#1f77b4;"/>
   </g>
   <g id="patch_185">
    <path clip-path="url(#pb47df3e05c)" d="M 290.16699 288.430125 
L 291.237013 288.430125 
L 291.237013 251.845989 
L 290.16699 251.845989 
z
" style="fill:#1f77b4;"/>
   </g>
   <g id="patch_186">
    <path clip-path="url(#pb47df3e05c)" d="M 291.504518 288.430125 
L 292.574541 288.430125 
L 292.574541 251.845989 
L 291.504518 251.845989 
z
" style="fill:#1f77b4;"/>
   </g>
   <g id="patch_187">
    <path clip-path="url(#pb47df3e05c)" d="M 292.842046 288.430125 
L 293.912069 288.430125 
L 293.912069 251.897589 
L 292.842046 251.897589 
z
" style="fill:#1f77b4;"/>
   </g>
   <g id="patch_188">
    <path clip-path="url(#pb47df3e05c)" d="M 294.179574 288.430125 
L 295.249597 288.430125 
L 295.249597 252.013158 
L 294.179574 252.013158 
z
" style="fill:#1f77b4;"/>
   </g>
   <g id="patch_189">
    <path clip-path="url(#pb47df3e05c)" d="M 295.517103 288.430125 
L 296.587125 288.430125 
L 296.587125 252.166117 
L 295.517103 252.166117 
z
" style="fill:#1f77b4;"/>
   </g>
   <g id="patch_190">
    <path clip-path="url(#pb47df3e05c)" d="M 296.854631 288.430125 
L 297.924653 288.430125 
L 297.924653 252.330379 
L 296.854631 252.330379 
z
" style="fill:#1f77b4;"/>
   </g>
   <g id="patch_191">
    <path clip-path="url(#pb47df3e05c)" d="M 298.192159 288.430125 
L 299.262181 288.430125 
L 299.262181 252.405691 
L 298.192159 252.405691 
z
" style="fill:#1f77b4;"/>
   </g>
   <g id="patch_192">
    <path clip-path="url(#pb47df3e05c)" d="M 299.529687 288.430125 
L 300.599709 288.430125 
L 300.599709 252.44323 
L 299.529687 252.44323 
z
" style="fill:#1f77b4;"/>
   </g>
   <g id="patch_193">
    <path clip-path="url(#pb47df3e05c)" d="M 300.867215 288.430125 
L 301.937237 288.430125 
L 301.937237 252.468212 
L 300.867215 252.468212 
z
" style="fill:#1f77b4;"/>
   </g>
   <g id="patch_194">
    <path clip-path="url(#pb47df3e05c)" d="M 302.204743 288.430125 
L 303.274765 288.430125 
L 303.274765 252.468212 
L 302.204743 252.468212 
z
" style="fill:#1f77b4;"/>
   </g>
   <g id="patch_195">
    <path clip-path="url(#pb47df3e05c)" d="M 303.542271 288.430125 
L 304.612294 288.430125 
L 304.612294 252.580204 
L 303.542271 252.580204 
z
" style="fill:#1f77b4;"/>
   </g>
   <g id="patch_196">
    <path clip-path="url(#pb47df3e05c)" d="M 304.879799 288.430125 
L 305.949822 288.430125 
L 305.949822 252.716139 
L 304.879799 252.716139 
z
" style="fill:#1f77b4;"/>
   </g>
   <g id="patch_197">
    <path clip-path="url(#pb47df3e05c)" d="M 306.217327 288.430125 
L 307.28735 288.430125 
L 307.28735 252.997063 
L 306.217327 252.997063 
z
" style="fill:#1f77b4;"/>
   </g>
   <g id="patch_198">
    <path clip-path="url(#pb47df3e05c)" d="M 307.554855 288.430125 
L 308.624878 288.430125 
L 308.624878 253.03338 
L 307.554855 253.03338 
z
" style="fill:#1f77b4;"/>
   </g>
   <g id="patch_199">
    <path clip-path="url(#pb47df3e05c)" d="M 308.892383 288.430125 
L 309.962406 288.430125 
L 309.962406 253.213853 
L 308.892383 253.213853 
z
" style="fill:#1f77b4;"/>
   </g>
   <g id="patch_200">
    <path clip-path="url(#pb47df3e05c)" d="M 310.229912 288.430125 
L 311.299934 288.430125 
L 311.299934 253.356912 
L 310.229912 253.356912 
z
" style="fill:#1f77b4;"/>
   </g>
   <g id="patch_201">
    <path clip-path="url(#pb47df3e05c)" d="M 311.56744 288.430125 
L 312.637462 288.430125 
L 312.637462 253.380642 
L 311.56744 253.380642 
z
" style="fill:#1f77b4;"/>
   </g>
   <g id="patch_202">
    <path clip-path="url(#pb47df3e05c)" d="M 312.904968 288.430125 
L 313.97499 288.430125 
L 313.97499 253.63957 
L 312.904968 253.63957 
z
" style="fill:#1f77b4;"/>
   </g>
   <g id="patch_203">
    <path clip-path="url(#pb47df3e05c)" d="M 314.242496 288.430125 
L 315.312518 288.430125 
L 315.312518 253.73278 
L 314.242496 253.73278 
z
" style="fill:#1f77b4;"/>
   </g>
   <g id="patch_204">
    <path clip-path="url(#pb47df3e05c)" d="M 315.580024 288.430125 
L 316.650046 288.430125 
L 316.650046 253.917709 
L 315.580024 253.917709 
z
" style="fill:#1f77b4;"/>
   </g>
   <g id="patch_205">
    <path clip-path="url(#pb47df3e05c)" d="M 316.917552 288.430125 
L 317.987574 288.430125 
L 317.987574 253.997997 
L 316.917552 253.997997 
z
" style="fill:#1f77b4;"/>
   </g>
   <g id="patch_206">
    <path clip-path="url(#pb47df3e05c)" d="M 318.25508 288.430125 
L 319.325103 288.430125 
L 319.325103 254.225347 
L 318.25508 254.225347 
z
" style="fill:#1f77b4;"/>
   </g>
   <g id="patch_207">
    <path clip-path="url(#pb47df3e05c)" d="M 319.592608 288.430125 
L 320.662631 288.430125 
L 320.662631 254.292968 
L 319.592608 254.292968 
z
" style="fill:#1f77b4;"/>
   </g>
   <g id="patch_208">
    <path clip-path="url(#pb47df3e05c)" d="M 320.930136 288.430125 
L 322.000159 288.430125 
L 322.000159 254.449714 
L 320.930136 254.449714 
z
" style="fill:#1f77b4;"/>
   </g>
   <g id="patch_209">
    <path clip-path="url(#pb47df3e05c)" d="M 322.267664 288.430125 
L 323.337687 288.430125 
L 323.337687 254.649143 
L 322.267664 254.649143 
z
" style="fill:#1f77b4;"/>
   </g>
   <g id="patch_210">
    <path clip-path="url(#pb47df3e05c)" d="M 323.605192 288.430125 
L 324.675215 288.430125 
L 324.675215 254.758928 
L 323.605192 254.758928 
z
" style="fill:#1f77b4;"/>
   </g>
   <g id="patch_211">
    <path clip-path="url(#pb47df3e05c)" d="M 324.942721 288.430125 
L 326.012743 288.430125 
L 326.012743 254.911435 
L 324.942721 254.911435 
z
" style="fill:#1f77b4;"/>
   </g>
   <g id="patch_212">
    <path clip-path="url(#pb47df3e05c)" d="M 326.280249 288.430125 
L 327.350271 288.430125 
L 327.350271 255.084045 
L 326.280249 255.084045 
z
" style="fill:#1f77b4;"/>
   </g>
   <g id="patch_213">
    <path clip-path="url(#pb47df3e05c)" d="M 327.617777 288.430125 
L 328.687799 288.430125 
L 328.687799 255.151928 
L 327.617777 255.151928 
z
" style="fill:#1f77b4;"/>
   </g>
   <g id="patch_214">
    <path clip-path="url(#pb47df3e05c)" d="M 328.955305 288.430125 
L 330.025327 288.430125 
L 330.025327 255.279268 
L 328.955305 255.279268 
z
" style="fill:#1f77b4;"/>
   </g>
   <g id="patch_215">
    <path clip-path="url(#pb47df3e05c)" d="M 330.292833 288.430125 
L 331.362855 288.430125 
L 331.362855 255.416124 
L 330.292833 255.416124 
z
" style="fill:#1f77b4;"/>
   </g>
   <g id="patch_216">
    <path clip-path="url(#pb47df3e05c)" d="M 331.630361 288.430125 
L 332.700383 288.430125 
L 332.700383 255.416124 
L 331.630361 255.416124 
z
" style="fill:#1f77b4;"/>
   </g>
   <g id="patch_217">
    <path clip-path="url(#pb47df3e05c)" d="M 332.967889 288.430125 
L 334.037912 288.430125 
L 334.037912 255.655507 
L 332.967889 255.655507 
z
" style="fill:#1f77b4;"/>
   </g>
   <g id="patch_218">
    <path clip-path="url(#pb47df3e05c)" d="M 334.305417 288.430125 
L 335.37544 288.430125 
L 335.37544 255.840442 
L 334.305417 255.840442 
z
" style="fill:#1f77b4;"/>
   </g>
   <g id="patch_219">
    <path clip-path="url(#pb47df3e05c)" d="M 335.642945 288.430125 
L 336.712968 288.430125 
L 336.712968 255.982844 
L 335.642945 255.982844 
z
" style="fill:#1f77b4;"/>
   </g>
   <g id="patch_220">
    <path clip-path="url(#pb47df3e05c)" d="M 336.980473 288.430125 
L 338.050496 288.430125 
L 338.050496 256.063659 
L 336.980473 256.063659 
z
" style="fill:#1f77b4;"/>
   </g>
   <g id="patch_221">
    <path clip-path="url(#pb47df3e05c)" d="M 338.318001 288.430125 
L 339.388024 288.430125 
L 339.388024 255.973403 
L 338.318001 255.973403 
z
" style="fill:#1f77b4;"/>
   </g>
   <g id="patch_222">
    <path clip-path="url(#pb47df3e05c)" d="M 339.655529 288.430125 
L 340.725552 288.430125 
L 340.725552 256.013747 
L 339.655529 256.013747 
z
" style="fill:#1f77b4;"/>
   </g>
   <g id="patch_223">
    <path clip-path="url(#pb47df3e05c)" d="M 340.993058 288.430125 
L 342.06308 288.430125 
L 342.06308 255.833745 
L 340.993058 255.833745 
z
" style="fill:#1f77b4;"/>
   </g>
   <g id="patch_224">
    <path clip-path="url(#pb47df3e05c)" d="M 342.330586 288.430125 
L 343.400608 288.430125 
L 343.400608 255.924543 
L 342.330586 255.924543 
z
" style="fill:#1f77b4;"/>
   </g>
   <g id="patch_225">
    <path clip-path="url(#pb47df3e05c)" d="M 343.668114 288.430125 
L 344.738136 288.430125 
L 344.738136 255.974768 
L 343.668114 255.974768 
z
" style="fill:#1f77b4;"/>
   </g>
   <g id="patch_226">
    <path clip-path="url(#pb47df3e05c)" d="M 345.005642 288.430125 
L 346.075664 288.430125 
L 346.075664 256.004828 
L 345.005642 256.004828 
z
" style="fill:#1f77b4;"/>
   </g>
   <g id="patch_227">
    <path clip-path="url(#pb47df3e05c)" d="M 346.34317 288.430125 
L 347.413192 288.430125 
L 347.413192 256.084718 
L 346.34317 256.084718 
z
" style="fill:#1f77b4;"/>
   </g>
   <g id="patch_228">
    <path clip-path="url(#pb47df3e05c)" d="M 347.680698 288.430125 
L 348.750721 288.430125 
L 348.750721 255.82718 
L 347.680698 255.82718 
z
" style="fill:#1f77b4;"/>
   </g>
   <g id="patch_229">
    <path clip-path="url(#pb47df3e05c)" d="M 349.018226 288.430125 
L 350.088249 288.430125 
L 350.088249 255.768327 
L 349.018226 255.768327 
z
" style="fill:#1f77b4;"/>
   </g>
   <g id="patch_230">
    <path clip-path="url(#pb47df3e05c)" d="M 350.355754 288.430125 
L 351.425777 288.430125 
L 351.425777 255.403773 
L 350.355754 255.403773 
z
" style="fill:#1f77b4;"/>
   </g>
   <g id="patch_231">
    <path clip-path="url(#pb47df3e05c)" d="M 351.693282 288.430125 
L 352.763305 288.430125 
L 352.763305 255.20684 
L 351.693282 255.20684 
z
" style="fill:#1f77b4;"/>
   </g>
   <g id="patch_232">
    <path clip-path="url(#pb47df3e05c)" d="M 353.03081 288.430125 
L 354.100833 288.430125 
L 354.100833 255.050978 
L 353.03081 255.050978 
z
" style="fill:#1f77b4;"/>
   </g>
   <g id="patch_233">
    <path clip-path="url(#pb47df3e05c)" d="M 354.368338 288.430125 
L 355.438361 288.430125 
L 355.438361 254.699902 
L 354.368338 254.699902 
z
" style="fill:#1f77b4;"/>
   </g>
   <g id="patch_234">
    <path clip-path="url(#pb47df3e05c)" d="M 355.705867 288.430125 
L 356.775889 288.430125 
L 356.775889 254.406673 
L 355.705867 254.406673 
z
" style="fill:#1f77b4;"/>
   </g>
   <g id="patch_235">
    <path clip-path="url(#pb47df3e05c)" d="M 357.043395 288.430125 
L 358.113417 288.430125 
L 358.113417 254.058335 
L 357.043395 254.058335 
z
" style="fill:#1f77b4;"/>
   </g>
   <g id="patch_236">
    <path clip-path="url(#pb47df3e05c)" d="M 358.380923 288.430125 
L 359.450945 288.430125 
L 359.450945 253.98197 
L 358.380923 253.98197 
z
" style="fill:#1f77b4;"/>
   </g>
   <g id="patch_237">
    <path clip-path="url(#pb47df3e05c)" d="M 359.718451 288.430125 
L 360.788473 288.430125 
L 360.788473 253.819173 
L 359.718451 253.819173 
z
" style="fill:#1f77b4;"/>
   </g>
   <g id="patch_238">
    <path clip-path="url(#pb47df3e05c)" d="M 361.055979 288.430125 
L 362.126001 288.430125 
L 362.126001 253.495055 
L 361.055979 253.495055 
z
" style="fill:#1f77b4;"/>
   </g>
   <g id="patch_239">
    <path clip-path="url(#pb47df3e05c)" d="M 362.393507 288.430125 
L 363.463529 288.430125 
L 363.463529 262.559758 
L 362.393507 262.559758 
z
" style="fill:#1f77b4;"/>
   </g>
   <g id="patch_240">
    <path clip-path="url(#pb47df3e05c)" d="M 363.731035 288.430125 
L 364.801058 288.430125 
L 364.801058 263.851915 
L 363.731035 263.851915 
z
" style="fill:#1f77b4;"/>
   </g>
   <g id="patch_241">
    <path clip-path="url(#pb47df3e05c)" d="M 365.068563 288.430125 
L 366.138586 288.430125 
L 366.138586 264.886195 
L 365.068563 264.886195 
z
" style="fill:#1f77b4;"/>
   </g>
   <g id="patch_242">
    <path clip-path="url(#pb47df3e05c)" d="M 366.406091 288.430125 
L 367.476114 288.430125 
L 367.476114 265.311802 
L 366.406091 265.311802 
z
" style="fill:#1f77b4;"/>
   </g>
   <g id="patch_243">
    <path clip-path="url(#pb47df3e05c)" d="M 367.743619 288.430125 
L 368.813642 288.430125 
L 368.813642 265.521879 
L 367.743619 265.521879 
z
" style="fill:#1f77b4;"/>
   </g>
   <g id="patch_244">
    <path clip-path="url(#pb47df3e05c)" d="M 369.081147 288.430125 
L 370.15117 288.430125 
L 370.15117 265.622794 
L 369.081147 265.622794 
z
" style="fill:#1f77b4;"/>
   </g>
   <g id="patch_245">
    <path clip-path="url(#pb47df3e05c)" d="M 370.418676 288.430125 
L 371.488698 288.430125 
L 371.488698 266.587008 
L 370.418676 266.587008 
z
" style="fill:#1f77b4;"/>
   </g>
   <g id="patch_246">
    <path clip-path="url(#pb47df3e05c)" d="M 371.756204 288.430125 
L 372.826226 288.430125 
L 372.826226 267.265662 
L 371.756204 267.265662 
z
" style="fill:#1f77b4;"/>
   </g>
   <g id="patch_247">
    <path clip-path="url(#pb47df3e05c)" d="M 373.093732 288.430125 
L 374.163754 288.430125 
L 374.163754 268.101287 
L 373.093732 268.101287 
z
" style="fill:#1f77b4;"/>
   </g>
   <g id="patch_248">
    <path clip-path="url(#pb47df3e05c)" d="M 374.43126 288.430125 
L 375.501282 288.430125 
L 375.501282 268.290826 
L 374.43126 268.290826 
z
" style="fill:#1f77b4;"/>
   </g>
   <g id="patch_249">
    <path clip-path="url(#pb47df3e05c)" d="M 375.768788 288.430125 
L 376.83881 288.430125 
L 376.83881 268.685624 
L 375.768788 268.685624 
z
" style="fill:#1f77b4;"/>
   </g>
   <g id="patch_250">
    <path clip-path="url(#pb47df3e05c)" d="M 377.106316 288.430125 
L 378.176338 288.430125 
L 378.176338 268.587652 
L 377.106316 268.587652 
z
" style="fill:#1f77b4;"/>
   </g>
   <g id="patch_251">
    <path clip-path="url(#pb47df3e05c)" d="M 378.443844 288.430125 
L 379.513867 288.430125 
L 379.513867 269.057463 
L 378.443844 269.057463 
z
" style="fill:#1f77b4;"/>
   </g>
   <g id="patch_252">
    <path clip-path="url(#pb47df3e05c)" d="M 379.781372 288.430125 
L 380.851395 288.430125 
L 380.851395 269.42445 
L 379.781372 269.42445 
z
" style="fill:#1f77b4;"/>
   </g>
   <g id="patch_253">
    <path clip-path="url(#pb47df3e05c)" d="M 381.1189 288.430125 
L 382.188923 288.430125 
L 382.188923 270.042031 
L 381.1189 270.042031 
z
" style="fill:#1f77b4;"/>
   </g>
   <g id="patch_254">
    <path clip-path="url(#pb47df3e05c)" d="M 382.456428 288.430125 
L 383.526451 288.430125 
L 383.526451 270.195977 
L 382.456428 270.195977 
z
" style="fill:#1f77b4;"/>
   </g>
   <g id="patch_255">
    <path clip-path="url(#pb47df3e05c)" d="M 383.793956 288.430125 
L 384.863979 288.430125 
L 384.863979 271.052441 
L 383.793956 271.052441 
z
" style="fill:#1f77b4;"/>
   </g>
   <g id="patch_256">
    <path clip-path="url(#pb47df3e05c)" d="M 385.131485 288.430125 
L 386.201507 288.430125 
L 386.201507 271.347059 
L 385.131485 271.347059 
z
" style="fill:#1f77b4;"/>
   </g>
   <g id="patch_257">
    <path clip-path="url(#pb47df3e05c)" d="M 386.469013 288.430125 
L 387.539035 288.430125 
L 387.539035 270.981325 
L 386.469013 270.981325 
z
" style="fill:#1f77b4;"/>
   </g>
   <g id="patch_258">
    <path clip-path="url(#pb47df3e05c)" d="M 387.806541 288.430125 
L 388.876563 288.430125 
L 388.876563 271.375944 
L 387.806541 271.375944 
z
" style="fill:#1f77b4;"/>
   </g>
   <g id="patch_259">
    <path clip-path="url(#pb47df3e05c)" d="M 389.144069 288.430125 
L 390.214091 288.430125 
L 390.214091 271.712422 
L 389.144069 271.712422 
z
" style="fill:#1f77b4;"/>
   </g>
   <g id="patch_260">
    <path clip-path="url(#pb47df3e05c)" d="M 390.481597 288.430125 
L 391.551619 288.430125 
L 391.551619 271.927055 
L 390.481597 271.927055 
z
" style="fill:#1f77b4;"/>
   </g>
   <g id="patch_261">
    <path clip-path="url(#pb47df3e05c)" d="M 391.819125 288.430125 
L 392.889147 288.430125 
L 392.889147 272.431438 
L 391.819125 272.431438 
z
" style="fill:#1f77b4;"/>
   </g>
   <g id="patch_262">
    <path clip-path="url(#pb47df3e05c)" d="M 393.156653 288.430125 
L 394.226676 288.430125 
L 394.226676 273.087669 
L 393.156653 273.087669 
z
" style="fill:#1f77b4;"/>
   </g>
   <g id="patch_263">
    <path clip-path="url(#pb47df3e05c)" d="M 394.494181 288.430125 
L 395.564204 288.430125 
L 395.564204 273.303084 
L 394.494181 273.303084 
z
" style="fill:#1f77b4;"/>
   </g>
   <g id="patch_264">
    <path clip-path="url(#pb47df3e05c)" d="M 395.831709 288.430125 
L 396.901732 288.430125 
L 396.901732 273.332172 
L 395.831709 273.332172 
z
" style="fill:#1f77b4;"/>
   </g>
   <g id="patch_265">
    <path clip-path="url(#pb47df3e05c)" d="M 397.169237 288.430125 
L 398.23926 288.430125 
L 398.23926 273.47482 
L 397.169237 273.47482 
z
" style="fill:#1f77b4;"/>
   </g>
   <g id="patch_266">
    <path clip-path="url(#pb47df3e05c)" d="M 398.506765 288.430125 
L 399.576788 288.430125 
L 399.576788 273.59628 
L 398.506765 273.59628 
z
" style="fill:#1f77b4;"/>
   </g>
   <g id="patch_267">
    <path clip-path="url(#pb47df3e05c)" d="M 399.844294 288.430125 
L 400.914316 288.430125 
L 400.914316 273.651536 
L 399.844294 273.651536 
z
" style="fill:#1f77b4;"/>
   </g>
   <g id="patch_268">
    <path clip-path="url(#pb47df3e05c)" d="M 401.181822 288.430125 
L 402.251844 288.430125 
L 402.251844 273.934392 
L 401.181822 273.934392 
z
" style="fill:#1f77b4;"/>
   </g>
   <g id="patch_269">
    <path clip-path="url(#pb47df3e05c)" d="M 402.51935 288.430125 
L 403.589372 288.430125 
L 403.589372 274.227656 
L 402.51935 274.227656 
z
" style="fill:#1f77b4;"/>
   </g>
   <g id="matplotlib.axis_1">
    <g id="xtick_1">
     <g id="line2d_1">
      <defs>
       <path d="M 0 0 
L 0 3.5 
" id="m10f02e7c73" style="stroke:#000000;stroke-width:0.8;"/>
      </defs>
      <g>
       <use style="stroke:#000000;stroke-width:0.8;" x="70.009867" xlink:href="#m10f02e7c73" y="288.430125"/>
      </g>
     </g>
     <g id="text_1">
      <!-- 2020-04 -->
      <g transform="translate(72.769242 337.212937)rotate(-90)scale(0.1 -0.1)">
       <defs>
        <path d="M 19.1875 8.296875 
L 53.609375 8.296875 
L 53.609375 0 
L 7.328125 0 
L 7.328125 8.296875 
Q 12.9375 14.109375 22.625 23.890625 
Q 32.328125 33.6875 34.8125 36.53125 
Q 39.546875 41.84375 41.421875 45.53125 
Q 43.3125 49.21875 43.3125 52.78125 
Q 43.3125 58.59375 39.234375 62.25 
Q 35.15625 65.921875 28.609375 65.921875 
Q 23.96875 65.921875 18.8125 64.3125 
Q 13.671875 62.703125 7.8125 59.421875 
L 7.8125 69.390625 
Q 13.765625 71.78125 18.9375 73 
Q 24.125 74.21875 28.421875 74.21875 
Q 39.75 74.21875 46.484375 68.546875 
Q 53.21875 62.890625 53.21875 53.421875 
Q 53.21875 48.921875 51.53125 44.890625 
Q 49.859375 40.875 45.40625 35.40625 
Q 44.1875 33.984375 37.640625 27.21875 
Q 31.109375 20.453125 19.1875 8.296875 
z
" id="DejaVuSans-50"/>
        <path d="M 31.78125 66.40625 
Q 24.171875 66.40625 20.328125 58.90625 
Q 16.5 51.421875 16.5 36.375 
Q 16.5 21.390625 20.328125 13.890625 
Q 24.171875 6.390625 31.78125 6.390625 
Q 39.453125 6.390625 43.28125 13.890625 
Q 47.125 21.390625 47.125 36.375 
Q 47.125 51.421875 43.28125 58.90625 
Q 39.453125 66.40625 31.78125 66.40625 
z
M 31.78125 74.21875 
Q 44.046875 74.21875 50.515625 64.515625 
Q 56.984375 54.828125 56.984375 36.375 
Q 56.984375 17.96875 50.515625 8.265625 
Q 44.046875 -1.421875 31.78125 -1.421875 
Q 19.53125 -1.421875 13.0625 8.265625 
Q 6.59375 17.96875 6.59375 36.375 
Q 6.59375 54.828125 13.0625 64.515625 
Q 19.53125 74.21875 31.78125 74.21875 
z
" id="DejaVuSans-48"/>
        <path d="M 4.890625 31.390625 
L 31.203125 31.390625 
L 31.203125 23.390625 
L 4.890625 23.390625 
z
" id="DejaVuSans-45"/>
        <path d="M 37.796875 64.3125 
L 12.890625 25.390625 
L 37.796875 25.390625 
z
M 35.203125 72.90625 
L 47.609375 72.90625 
L 47.609375 25.390625 
L 58.015625 25.390625 
L 58.015625 17.1875 
L 47.609375 17.1875 
L 47.609375 0 
L 37.796875 0 
L 37.796875 17.1875 
L 4.890625 17.1875 
L 4.890625 26.703125 
z
" id="DejaVuSans-52"/>
       </defs>
       <use xlink:href="#DejaVuSans-50"/>
       <use x="63.623047" xlink:href="#DejaVuSans-48"/>
       <use x="127.246094" xlink:href="#DejaVuSans-50"/>
       <use x="190.869141" xlink:href="#DejaVuSans-48"/>
       <use x="254.492188" xlink:href="#DejaVuSans-45"/>
       <use x="290.576172" xlink:href="#DejaVuSans-48"/>
       <use x="354.199219" xlink:href="#DejaVuSans-52"/>
      </g>
     </g>
    </g>
    <g id="xtick_2">
     <g id="line2d_2">
      <g>
       <use style="stroke:#000000;stroke-width:0.8;" x="110.135709" xlink:href="#m10f02e7c73" y="288.430125"/>
      </g>
     </g>
     <g id="text_2">
      <!-- 2020-05 -->
      <g transform="translate(112.895084 337.212937)rotate(-90)scale(0.1 -0.1)">
       <defs>
        <path d="M 10.796875 72.90625 
L 49.515625 72.90625 
L 49.515625 64.59375 
L 19.828125 64.59375 
L 19.828125 46.734375 
Q 21.96875 47.46875 24.109375 47.828125 
Q 26.265625 48.1875 28.421875 48.1875 
Q 40.625 48.1875 47.75 41.5 
Q 54.890625 34.8125 54.890625 23.390625 
Q 54.890625 11.625 47.5625 5.09375 
Q 40.234375 -1.421875 26.90625 -1.421875 
Q 22.3125 -1.421875 17.546875 -0.640625 
Q 12.796875 0.140625 7.71875 1.703125 
L 7.71875 11.625 
Q 12.109375 9.234375 16.796875 8.0625 
Q 21.484375 6.890625 26.703125 6.890625 
Q 35.15625 6.890625 40.078125 11.328125 
Q 45.015625 15.765625 45.015625 23.390625 
Q 45.015625 31 40.078125 35.4375 
Q 35.15625 39.890625 26.703125 39.890625 
Q 22.75 39.890625 18.8125 39.015625 
Q 14.890625 38.140625 10.796875 36.28125 
z
" id="DejaVuSans-53"/>
       </defs>
       <use xlink:href="#DejaVuSans-50"/>
       <use x="63.623047" xlink:href="#DejaVuSans-48"/>
       <use x="127.246094" xlink:href="#DejaVuSans-50"/>
       <use x="190.869141" xlink:href="#DejaVuSans-48"/>
       <use x="254.492188" xlink:href="#DejaVuSans-45"/>
       <use x="290.576172" xlink:href="#DejaVuSans-48"/>
       <use x="354.199219" xlink:href="#DejaVuSans-53"/>
      </g>
     </g>
    </g>
    <g id="xtick_3">
     <g id="line2d_3">
      <g>
       <use style="stroke:#000000;stroke-width:0.8;" x="151.59908" xlink:href="#m10f02e7c73" y="288.430125"/>
      </g>
     </g>
     <g id="text_3">
      <!-- 2020-06 -->
      <g transform="translate(154.358455 337.212937)rotate(-90)scale(0.1 -0.1)">
       <defs>
        <path d="M 33.015625 40.375 
Q 26.375 40.375 22.484375 35.828125 
Q 18.609375 31.296875 18.609375 23.390625 
Q 18.609375 15.53125 22.484375 10.953125 
Q 26.375 6.390625 33.015625 6.390625 
Q 39.65625 6.390625 43.53125 10.953125 
Q 47.40625 15.53125 47.40625 23.390625 
Q 47.40625 31.296875 43.53125 35.828125 
Q 39.65625 40.375 33.015625 40.375 
z
M 52.59375 71.296875 
L 52.59375 62.3125 
Q 48.875 64.0625 45.09375 64.984375 
Q 41.3125 65.921875 37.59375 65.921875 
Q 27.828125 65.921875 22.671875 59.328125 
Q 17.53125 52.734375 16.796875 39.40625 
Q 19.671875 43.65625 24.015625 45.921875 
Q 28.375 48.1875 33.59375 48.1875 
Q 44.578125 48.1875 50.953125 41.515625 
Q 57.328125 34.859375 57.328125 23.390625 
Q 57.328125 12.15625 50.6875 5.359375 
Q 44.046875 -1.421875 33.015625 -1.421875 
Q 20.359375 -1.421875 13.671875 8.265625 
Q 6.984375 17.96875 6.984375 36.375 
Q 6.984375 53.65625 15.1875 63.9375 
Q 23.390625 74.21875 37.203125 74.21875 
Q 40.921875 74.21875 44.703125 73.484375 
Q 48.484375 72.75 52.59375 71.296875 
z
" id="DejaVuSans-54"/>
       </defs>
       <use xlink:href="#DejaVuSans-50"/>
       <use x="63.623047" xlink:href="#DejaVuSans-48"/>
       <use x="127.246094" xlink:href="#DejaVuSans-50"/>
       <use x="190.869141" xlink:href="#DejaVuSans-48"/>
       <use x="254.492188" xlink:href="#DejaVuSans-45"/>
       <use x="290.576172" xlink:href="#DejaVuSans-48"/>
       <use x="354.199219" xlink:href="#DejaVuSans-54"/>
      </g>
     </g>
    </g>
    <g id="xtick_4">
     <g id="line2d_4">
      <g>
       <use style="stroke:#000000;stroke-width:0.8;" x="191.724923" xlink:href="#m10f02e7c73" y="288.430125"/>
      </g>
     </g>
     <g id="text_4">
      <!-- 2020-07 -->
      <g transform="translate(194.484298 337.212937)rotate(-90)scale(0.1 -0.1)">
       <defs>
        <path d="M 8.203125 72.90625 
L 55.078125 72.90625 
L 55.078125 68.703125 
L 28.609375 0 
L 18.3125 0 
L 43.21875 64.59375 
L 8.203125 64.59375 
z
" id="DejaVuSans-55"/>
       </defs>
       <use xlink:href="#DejaVuSans-50"/>
       <use x="63.623047" xlink:href="#DejaVuSans-48"/>
       <use x="127.246094" xlink:href="#DejaVuSans-50"/>
       <use x="190.869141" xlink:href="#DejaVuSans-48"/>
       <use x="254.492188" xlink:href="#DejaVuSans-45"/>
       <use x="290.576172" xlink:href="#DejaVuSans-48"/>
       <use x="354.199219" xlink:href="#DejaVuSans-55"/>
      </g>
     </g>
    </g>
    <g id="xtick_5">
     <g id="line2d_5">
      <g>
       <use style="stroke:#000000;stroke-width:0.8;" x="233.188294" xlink:href="#m10f02e7c73" y="288.430125"/>
      </g>
     </g>
     <g id="text_5">
      <!-- 2020-08 -->
      <g transform="translate(235.947669 337.212937)rotate(-90)scale(0.1 -0.1)">
       <defs>
        <path d="M 31.78125 34.625 
Q 24.75 34.625 20.71875 30.859375 
Q 16.703125 27.09375 16.703125 20.515625 
Q 16.703125 13.921875 20.71875 10.15625 
Q 24.75 6.390625 31.78125 6.390625 
Q 38.8125 6.390625 42.859375 10.171875 
Q 46.921875 13.96875 46.921875 20.515625 
Q 46.921875 27.09375 42.890625 30.859375 
Q 38.875 34.625 31.78125 34.625 
z
M 21.921875 38.8125 
Q 15.578125 40.375 12.03125 44.71875 
Q 8.5 49.078125 8.5 55.328125 
Q 8.5 64.0625 14.71875 69.140625 
Q 20.953125 74.21875 31.78125 74.21875 
Q 42.671875 74.21875 48.875 69.140625 
Q 55.078125 64.0625 55.078125 55.328125 
Q 55.078125 49.078125 51.53125 44.71875 
Q 48 40.375 41.703125 38.8125 
Q 48.828125 37.15625 52.796875 32.3125 
Q 56.78125 27.484375 56.78125 20.515625 
Q 56.78125 9.90625 50.3125 4.234375 
Q 43.84375 -1.421875 31.78125 -1.421875 
Q 19.734375 -1.421875 13.25 4.234375 
Q 6.78125 9.90625 6.78125 20.515625 
Q 6.78125 27.484375 10.78125 32.3125 
Q 14.796875 37.15625 21.921875 38.8125 
z
M 18.3125 54.390625 
Q 18.3125 48.734375 21.84375 45.5625 
Q 25.390625 42.390625 31.78125 42.390625 
Q 38.140625 42.390625 41.71875 45.5625 
Q 45.3125 48.734375 45.3125 54.390625 
Q 45.3125 60.0625 41.71875 63.234375 
Q 38.140625 66.40625 31.78125 66.40625 
Q 25.390625 66.40625 21.84375 63.234375 
Q 18.3125 60.0625 18.3125 54.390625 
z
" id="DejaVuSans-56"/>
       </defs>
       <use xlink:href="#DejaVuSans-50"/>
       <use x="63.623047" xlink:href="#DejaVuSans-48"/>
       <use x="127.246094" xlink:href="#DejaVuSans-50"/>
       <use x="190.869141" xlink:href="#DejaVuSans-48"/>
       <use x="254.492188" xlink:href="#DejaVuSans-45"/>
       <use x="290.576172" xlink:href="#DejaVuSans-48"/>
       <use x="354.199219" xlink:href="#DejaVuSans-56"/>
      </g>
     </g>
    </g>
    <g id="xtick_6">
     <g id="line2d_6">
      <g>
       <use style="stroke:#000000;stroke-width:0.8;" x="274.651664" xlink:href="#m10f02e7c73" y="288.430125"/>
      </g>
     </g>
     <g id="text_6">
      <!-- 2020-09 -->
      <g transform="translate(277.411039 337.212937)rotate(-90)scale(0.1 -0.1)">
       <defs>
        <path d="M 10.984375 1.515625 
L 10.984375 10.5 
Q 14.703125 8.734375 18.5 7.8125 
Q 22.3125 6.890625 25.984375 6.890625 
Q 35.75 6.890625 40.890625 13.453125 
Q 46.046875 20.015625 46.78125 33.40625 
Q 43.953125 29.203125 39.59375 26.953125 
Q 35.25 24.703125 29.984375 24.703125 
Q 19.046875 24.703125 12.671875 31.3125 
Q 6.296875 37.9375 6.296875 49.421875 
Q 6.296875 60.640625 12.9375 67.421875 
Q 19.578125 74.21875 30.609375 74.21875 
Q 43.265625 74.21875 49.921875 64.515625 
Q 56.59375 54.828125 56.59375 36.375 
Q 56.59375 19.140625 48.40625 8.859375 
Q 40.234375 -1.421875 26.421875 -1.421875 
Q 22.703125 -1.421875 18.890625 -0.6875 
Q 15.09375 0.046875 10.984375 1.515625 
z
M 30.609375 32.421875 
Q 37.25 32.421875 41.125 36.953125 
Q 45.015625 41.5 45.015625 49.421875 
Q 45.015625 57.28125 41.125 61.84375 
Q 37.25 66.40625 30.609375 66.40625 
Q 23.96875 66.40625 20.09375 61.84375 
Q 16.21875 57.28125 16.21875 49.421875 
Q 16.21875 41.5 20.09375 36.953125 
Q 23.96875 32.421875 30.609375 32.421875 
z
" id="DejaVuSans-57"/>
       </defs>
       <use xlink:href="#DejaVuSans-50"/>
       <use x="63.623047" xlink:href="#DejaVuSans-48"/>
       <use x="127.246094" xlink:href="#DejaVuSans-50"/>
       <use x="190.869141" xlink:href="#DejaVuSans-48"/>
       <use x="254.492188" xlink:href="#DejaVuSans-45"/>
       <use x="290.576172" xlink:href="#DejaVuSans-48"/>
       <use x="354.199219" xlink:href="#DejaVuSans-57"/>
      </g>
     </g>
    </g>
    <g id="xtick_7">
     <g id="line2d_7">
      <g>
       <use style="stroke:#000000;stroke-width:0.8;" x="314.777507" xlink:href="#m10f02e7c73" y="288.430125"/>
      </g>
     </g>
     <g id="text_7">
      <!-- 2020-10 -->
      <g transform="translate(317.536882 337.212937)rotate(-90)scale(0.1 -0.1)">
       <defs>
        <path d="M 12.40625 8.296875 
L 28.515625 8.296875 
L 28.515625 63.921875 
L 10.984375 60.40625 
L 10.984375 69.390625 
L 28.421875 72.90625 
L 38.28125 72.90625 
L 38.28125 8.296875 
L 54.390625 8.296875 
L 54.390625 0 
L 12.40625 0 
z
" id="DejaVuSans-49"/>
       </defs>
       <use xlink:href="#DejaVuSans-50"/>
       <use x="63.623047" xlink:href="#DejaVuSans-48"/>
       <use x="127.246094" xlink:href="#DejaVuSans-50"/>
       <use x="190.869141" xlink:href="#DejaVuSans-48"/>
       <use x="254.492188" xlink:href="#DejaVuSans-45"/>
       <use x="290.576172" xlink:href="#DejaVuSans-49"/>
       <use x="354.199219" xlink:href="#DejaVuSans-48"/>
      </g>
     </g>
    </g>
    <g id="xtick_8">
     <g id="line2d_8">
      <g>
       <use style="stroke:#000000;stroke-width:0.8;" x="356.240878" xlink:href="#m10f02e7c73" y="288.430125"/>
      </g>
     </g>
     <g id="text_8">
      <!-- 2020-11 -->
      <g transform="translate(359.000253 337.212937)rotate(-90)scale(0.1 -0.1)">
       <use xlink:href="#DejaVuSans-50"/>
       <use x="63.623047" xlink:href="#DejaVuSans-48"/>
       <use x="127.246094" xlink:href="#DejaVuSans-50"/>
       <use x="190.869141" xlink:href="#DejaVuSans-48"/>
       <use x="254.492188" xlink:href="#DejaVuSans-45"/>
       <use x="290.576172" xlink:href="#DejaVuSans-49"/>
       <use x="354.199219" xlink:href="#DejaVuSans-49"/>
      </g>
     </g>
    </g>
    <g id="xtick_9">
     <g id="line2d_9">
      <g>
       <use style="stroke:#000000;stroke-width:0.8;" x="396.366721" xlink:href="#m10f02e7c73" y="288.430125"/>
      </g>
     </g>
     <g id="text_9">
      <!-- 2020-12 -->
      <g transform="translate(399.126096 337.212937)rotate(-90)scale(0.1 -0.1)">
       <use xlink:href="#DejaVuSans-50"/>
       <use x="63.623047" xlink:href="#DejaVuSans-48"/>
       <use x="127.246094" xlink:href="#DejaVuSans-50"/>
       <use x="190.869141" xlink:href="#DejaVuSans-48"/>
       <use x="254.492188" xlink:href="#DejaVuSans-45"/>
       <use x="290.576172" xlink:href="#DejaVuSans-49"/>
       <use x="354.199219" xlink:href="#DejaVuSans-50"/>
      </g>
     </g>
    </g>
    <g id="text_10">
     <!-- date -->
     <g transform="translate(213.888125 354.811375)scale(0.1 -0.1)">
      <defs>
       <path d="M 45.40625 46.390625 
L 45.40625 75.984375 
L 54.390625 75.984375 
L 54.390625 0 
L 45.40625 0 
L 45.40625 8.203125 
Q 42.578125 3.328125 38.25 0.953125 
Q 33.9375 -1.421875 27.875 -1.421875 
Q 17.96875 -1.421875 11.734375 6.484375 
Q 5.515625 14.40625 5.515625 27.296875 
Q 5.515625 40.1875 11.734375 48.09375 
Q 17.96875 56 27.875 56 
Q 33.9375 56 38.25 53.625 
Q 42.578125 51.265625 45.40625 46.390625 
z
M 14.796875 27.296875 
Q 14.796875 17.390625 18.875 11.75 
Q 22.953125 6.109375 30.078125 6.109375 
Q 37.203125 6.109375 41.296875 11.75 
Q 45.40625 17.390625 45.40625 27.296875 
Q 45.40625 37.203125 41.296875 42.84375 
Q 37.203125 48.484375 30.078125 48.484375 
Q 22.953125 48.484375 18.875 42.84375 
Q 14.796875 37.203125 14.796875 27.296875 
z
" id="DejaVuSans-100"/>
       <path d="M 34.28125 27.484375 
Q 23.390625 27.484375 19.1875 25 
Q 14.984375 22.515625 14.984375 16.5 
Q 14.984375 11.71875 18.140625 8.90625 
Q 21.296875 6.109375 26.703125 6.109375 
Q 34.1875 6.109375 38.703125 11.40625 
Q 43.21875 16.703125 43.21875 25.484375 
L 43.21875 27.484375 
z
M 52.203125 31.203125 
L 52.203125 0 
L 43.21875 0 
L 43.21875 8.296875 
Q 40.140625 3.328125 35.546875 0.953125 
Q 30.953125 -1.421875 24.3125 -1.421875 
Q 15.921875 -1.421875 10.953125 3.296875 
Q 6 8.015625 6 15.921875 
Q 6 25.140625 12.171875 29.828125 
Q 18.359375 34.515625 30.609375 34.515625 
L 43.21875 34.515625 
L 43.21875 35.40625 
Q 43.21875 41.609375 39.140625 45 
Q 35.0625 48.390625 27.6875 48.390625 
Q 23 48.390625 18.546875 47.265625 
Q 14.109375 46.140625 10.015625 43.890625 
L 10.015625 52.203125 
Q 14.9375 54.109375 19.578125 55.046875 
Q 24.21875 56 28.609375 56 
Q 40.484375 56 46.34375 49.84375 
Q 52.203125 43.703125 52.203125 31.203125 
z
" id="DejaVuSans-97"/>
       <path d="M 18.3125 70.21875 
L 18.3125 54.6875 
L 36.8125 54.6875 
L 36.8125 47.703125 
L 18.3125 47.703125 
L 18.3125 18.015625 
Q 18.3125 11.328125 20.140625 9.421875 
Q 21.96875 7.515625 27.59375 7.515625 
L 36.8125 7.515625 
L 36.8125 0 
L 27.59375 0 
Q 17.1875 0 13.234375 3.875 
Q 9.28125 7.765625 9.28125 18.015625 
L 9.28125 47.703125 
L 2.6875 47.703125 
L 2.6875 54.6875 
L 9.28125 54.6875 
L 9.28125 70.21875 
z
" id="DejaVuSans-116"/>
       <path d="M 56.203125 29.59375 
L 56.203125 25.203125 
L 14.890625 25.203125 
Q 15.484375 15.921875 20.484375 11.0625 
Q 25.484375 6.203125 34.421875 6.203125 
Q 39.59375 6.203125 44.453125 7.46875 
Q 49.3125 8.734375 54.109375 11.28125 
L 54.109375 2.78125 
Q 49.265625 0.734375 44.1875 -0.34375 
Q 39.109375 -1.421875 33.890625 -1.421875 
Q 20.796875 -1.421875 13.15625 6.1875 
Q 5.515625 13.8125 5.515625 26.8125 
Q 5.515625 40.234375 12.765625 48.109375 
Q 20.015625 56 32.328125 56 
Q 43.359375 56 49.78125 48.890625 
Q 56.203125 41.796875 56.203125 29.59375 
z
M 47.21875 32.234375 
Q 47.125 39.59375 43.09375 43.984375 
Q 39.0625 48.390625 32.421875 48.390625 
Q 24.90625 48.390625 20.390625 44.140625 
Q 15.875 39.890625 15.1875 32.171875 
z
" id="DejaVuSans-101"/>
      </defs>
      <use xlink:href="#DejaVuSans-100"/>
      <use x="63.476562" xlink:href="#DejaVuSans-97"/>
      <use x="124.755859" xlink:href="#DejaVuSans-116"/>
      <use x="163.964844" xlink:href="#DejaVuSans-101"/>
     </g>
    </g>
   </g>
   <g id="matplotlib.axis_2">
    <g id="ytick_1">
     <g id="line2d_10">
      <defs>
       <path d="M 0 0 
L -3.5 0 
" id="m887c6d040e" style="stroke:#000000;stroke-width:0.8;"/>
      </defs>
      <g>
       <use style="stroke:#000000;stroke-width:0.8;" x="46.603125" xlink:href="#m887c6d040e" y="288.430125"/>
      </g>
     </g>
     <g id="text_11">
      <!-- 0 -->
      <g transform="translate(33.240625 292.229344)scale(0.1 -0.1)">
       <use xlink:href="#DejaVuSans-48"/>
      </g>
     </g>
    </g>
    <g id="ytick_2">
     <g id="line2d_11">
      <g>
       <use style="stroke:#000000;stroke-width:0.8;" x="46.603125" xlink:href="#m887c6d040e" y="252.948525"/>
      </g>
     </g>
     <g id="text_12">
      <!-- 10 -->
      <g transform="translate(26.878125 256.747744)scale(0.1 -0.1)">
       <use xlink:href="#DejaVuSans-49"/>
       <use x="63.623047" xlink:href="#DejaVuSans-48"/>
      </g>
     </g>
    </g>
    <g id="ytick_3">
     <g id="line2d_12">
      <g>
       <use style="stroke:#000000;stroke-width:0.8;" x="46.603125" xlink:href="#m887c6d040e" y="217.466925"/>
      </g>
     </g>
     <g id="text_13">
      <!-- 20 -->
      <g transform="translate(26.878125 221.266144)scale(0.1 -0.1)">
       <use xlink:href="#DejaVuSans-50"/>
       <use x="63.623047" xlink:href="#DejaVuSans-48"/>
      </g>
     </g>
    </g>
    <g id="ytick_4">
     <g id="line2d_13">
      <g>
       <use style="stroke:#000000;stroke-width:0.8;" x="46.603125" xlink:href="#m887c6d040e" y="181.985325"/>
      </g>
     </g>
     <g id="text_14">
      <!-- 30 -->
      <g transform="translate(26.878125 185.784544)scale(0.1 -0.1)">
       <defs>
        <path d="M 40.578125 39.3125 
Q 47.65625 37.796875 51.625 33 
Q 55.609375 28.21875 55.609375 21.1875 
Q 55.609375 10.40625 48.1875 4.484375 
Q 40.765625 -1.421875 27.09375 -1.421875 
Q 22.515625 -1.421875 17.65625 -0.515625 
Q 12.796875 0.390625 7.625 2.203125 
L 7.625 11.71875 
Q 11.71875 9.328125 16.59375 8.109375 
Q 21.484375 6.890625 26.8125 6.890625 
Q 36.078125 6.890625 40.9375 10.546875 
Q 45.796875 14.203125 45.796875 21.1875 
Q 45.796875 27.640625 41.28125 31.265625 
Q 36.765625 34.90625 28.71875 34.90625 
L 20.21875 34.90625 
L 20.21875 43.015625 
L 29.109375 43.015625 
Q 36.375 43.015625 40.234375 45.921875 
Q 44.09375 48.828125 44.09375 54.296875 
Q 44.09375 59.90625 40.109375 62.90625 
Q 36.140625 65.921875 28.71875 65.921875 
Q 24.65625 65.921875 20.015625 65.03125 
Q 15.375 64.15625 9.8125 62.3125 
L 9.8125 71.09375 
Q 15.4375 72.65625 20.34375 73.4375 
Q 25.25 74.21875 29.59375 74.21875 
Q 40.828125 74.21875 47.359375 69.109375 
Q 53.90625 64.015625 53.90625 55.328125 
Q 53.90625 49.265625 50.4375 45.09375 
Q 46.96875 40.921875 40.578125 39.3125 
z
" id="DejaVuSans-51"/>
       </defs>
       <use xlink:href="#DejaVuSans-51"/>
       <use x="63.623047" xlink:href="#DejaVuSans-48"/>
      </g>
     </g>
    </g>
    <g id="ytick_5">
     <g id="line2d_14">
      <g>
       <use style="stroke:#000000;stroke-width:0.8;" x="46.603125" xlink:href="#m887c6d040e" y="146.503725"/>
      </g>
     </g>
     <g id="text_15">
      <!-- 40 -->
      <g transform="translate(26.878125 150.302944)scale(0.1 -0.1)">
       <use xlink:href="#DejaVuSans-52"/>
       <use x="63.623047" xlink:href="#DejaVuSans-48"/>
      </g>
     </g>
    </g>
    <g id="ytick_6">
     <g id="line2d_15">
      <g>
       <use style="stroke:#000000;stroke-width:0.8;" x="46.603125" xlink:href="#m887c6d040e" y="111.022125"/>
      </g>
     </g>
     <g id="text_16">
      <!-- 50 -->
      <g transform="translate(26.878125 114.821344)scale(0.1 -0.1)">
       <use xlink:href="#DejaVuSans-53"/>
       <use x="63.623047" xlink:href="#DejaVuSans-48"/>
      </g>
     </g>
    </g>
    <g id="ytick_7">
     <g id="line2d_16">
      <g>
       <use style="stroke:#000000;stroke-width:0.8;" x="46.603125" xlink:href="#m887c6d040e" y="75.540525"/>
      </g>
     </g>
     <g id="text_17">
      <!-- 60 -->
      <g transform="translate(26.878125 79.339744)scale(0.1 -0.1)">
       <use xlink:href="#DejaVuSans-54"/>
       <use x="63.623047" xlink:href="#DejaVuSans-48"/>
      </g>
     </g>
    </g>
    <g id="ytick_8">
     <g id="line2d_17">
      <g>
       <use style="stroke:#000000;stroke-width:0.8;" x="46.603125" xlink:href="#m887c6d040e" y="40.058925"/>
      </g>
     </g>
     <g id="text_18">
      <!-- 70 -->
      <g transform="translate(26.878125 43.858144)scale(0.1 -0.1)">
       <use xlink:href="#DejaVuSans-55"/>
       <use x="63.623047" xlink:href="#DejaVuSans-48"/>
      </g>
     </g>
    </g>
    <g id="text_19">
     <!-- case fatality rate [%] -->
     <g transform="translate(14.798438 207.990531)rotate(-90)scale(0.1 -0.1)">
      <defs>
       <path d="M 48.78125 52.59375 
L 48.78125 44.1875 
Q 44.96875 46.296875 41.140625 47.34375 
Q 37.3125 48.390625 33.40625 48.390625 
Q 24.65625 48.390625 19.8125 42.84375 
Q 14.984375 37.3125 14.984375 27.296875 
Q 14.984375 17.28125 19.8125 11.734375 
Q 24.65625 6.203125 33.40625 6.203125 
Q 37.3125 6.203125 41.140625 7.25 
Q 44.96875 8.296875 48.78125 10.40625 
L 48.78125 2.09375 
Q 45.015625 0.34375 40.984375 -0.53125 
Q 36.96875 -1.421875 32.421875 -1.421875 
Q 20.0625 -1.421875 12.78125 6.34375 
Q 5.515625 14.109375 5.515625 27.296875 
Q 5.515625 40.671875 12.859375 48.328125 
Q 20.21875 56 33.015625 56 
Q 37.15625 56 41.109375 55.140625 
Q 45.0625 54.296875 48.78125 52.59375 
z
" id="DejaVuSans-99"/>
       <path d="M 44.28125 53.078125 
L 44.28125 44.578125 
Q 40.484375 46.53125 36.375 47.5 
Q 32.28125 48.484375 27.875 48.484375 
Q 21.1875 48.484375 17.84375 46.4375 
Q 14.5 44.390625 14.5 40.28125 
Q 14.5 37.15625 16.890625 35.375 
Q 19.28125 33.59375 26.515625 31.984375 
L 29.59375 31.296875 
Q 39.15625 29.25 43.1875 25.515625 
Q 47.21875 21.78125 47.21875 15.09375 
Q 47.21875 7.46875 41.1875 3.015625 
Q 35.15625 -1.421875 24.609375 -1.421875 
Q 20.21875 -1.421875 15.453125 -0.5625 
Q 10.6875 0.296875 5.421875 2 
L 5.421875 11.28125 
Q 10.40625 8.6875 15.234375 7.390625 
Q 20.0625 6.109375 24.8125 6.109375 
Q 31.15625 6.109375 34.5625 8.28125 
Q 37.984375 10.453125 37.984375 14.40625 
Q 37.984375 18.0625 35.515625 20.015625 
Q 33.0625 21.96875 24.703125 23.78125 
L 21.578125 24.515625 
Q 13.234375 26.265625 9.515625 29.90625 
Q 5.8125 33.546875 5.8125 39.890625 
Q 5.8125 47.609375 11.28125 51.796875 
Q 16.75 56 26.8125 56 
Q 31.78125 56 36.171875 55.265625 
Q 40.578125 54.546875 44.28125 53.078125 
z
" id="DejaVuSans-115"/>
       <path id="DejaVuSans-32"/>
       <path d="M 37.109375 75.984375 
L 37.109375 68.5 
L 28.515625 68.5 
Q 23.6875 68.5 21.796875 66.546875 
Q 19.921875 64.59375 19.921875 59.515625 
L 19.921875 54.6875 
L 34.71875 54.6875 
L 34.71875 47.703125 
L 19.921875 47.703125 
L 19.921875 0 
L 10.890625 0 
L 10.890625 47.703125 
L 2.296875 47.703125 
L 2.296875 54.6875 
L 10.890625 54.6875 
L 10.890625 58.5 
Q 10.890625 67.625 15.140625 71.796875 
Q 19.390625 75.984375 28.609375 75.984375 
z
" id="DejaVuSans-102"/>
       <path d="M 9.421875 75.984375 
L 18.40625 75.984375 
L 18.40625 0 
L 9.421875 0 
z
" id="DejaVuSans-108"/>
       <path d="M 9.421875 54.6875 
L 18.40625 54.6875 
L 18.40625 0 
L 9.421875 0 
z
M 9.421875 75.984375 
L 18.40625 75.984375 
L 18.40625 64.59375 
L 9.421875 64.59375 
z
" id="DejaVuSans-105"/>
       <path d="M 32.171875 -5.078125 
Q 28.375 -14.84375 24.75 -17.8125 
Q 21.140625 -20.796875 15.09375 -20.796875 
L 7.90625 -20.796875 
L 7.90625 -13.28125 
L 13.1875 -13.28125 
Q 16.890625 -13.28125 18.9375 -11.515625 
Q 21 -9.765625 23.484375 -3.21875 
L 25.09375 0.875 
L 2.984375 54.6875 
L 12.5 54.6875 
L 29.59375 11.921875 
L 46.6875 54.6875 
L 56.203125 54.6875 
z
" id="DejaVuSans-121"/>
       <path d="M 41.109375 46.296875 
Q 39.59375 47.171875 37.8125 47.578125 
Q 36.03125 48 33.890625 48 
Q 26.265625 48 22.1875 43.046875 
Q 18.109375 38.09375 18.109375 28.8125 
L 18.109375 0 
L 9.078125 0 
L 9.078125 54.6875 
L 18.109375 54.6875 
L 18.109375 46.1875 
Q 20.953125 51.171875 25.484375 53.578125 
Q 30.03125 56 36.53125 56 
Q 37.453125 56 38.578125 55.875 
Q 39.703125 55.765625 41.0625 55.515625 
z
" id="DejaVuSans-114"/>
       <path d="M 8.59375 75.984375 
L 29.296875 75.984375 
L 29.296875 69 
L 17.578125 69 
L 17.578125 -6.203125 
L 29.296875 -6.203125 
L 29.296875 -13.1875 
L 8.59375 -13.1875 
z
" id="DejaVuSans-91"/>
       <path d="M 72.703125 32.078125 
Q 68.453125 32.078125 66.03125 28.46875 
Q 63.625 24.859375 63.625 18.40625 
Q 63.625 12.0625 66.03125 8.421875 
Q 68.453125 4.78125 72.703125 4.78125 
Q 76.859375 4.78125 79.265625 8.421875 
Q 81.6875 12.0625 81.6875 18.40625 
Q 81.6875 24.8125 79.265625 28.4375 
Q 76.859375 32.078125 72.703125 32.078125 
z
M 72.703125 38.28125 
Q 80.421875 38.28125 84.953125 32.90625 
Q 89.5 27.546875 89.5 18.40625 
Q 89.5 9.28125 84.9375 3.921875 
Q 80.375 -1.421875 72.703125 -1.421875 
Q 64.890625 -1.421875 60.34375 3.921875 
Q 55.8125 9.28125 55.8125 18.40625 
Q 55.8125 27.59375 60.375 32.9375 
Q 64.9375 38.28125 72.703125 38.28125 
z
M 22.3125 68.015625 
Q 18.109375 68.015625 15.6875 64.375 
Q 13.28125 60.75 13.28125 54.390625 
Q 13.28125 47.953125 15.671875 44.328125 
Q 18.0625 40.71875 22.3125 40.71875 
Q 26.5625 40.71875 28.96875 44.328125 
Q 31.390625 47.953125 31.390625 54.390625 
Q 31.390625 60.6875 28.953125 64.34375 
Q 26.515625 68.015625 22.3125 68.015625 
z
M 66.40625 74.21875 
L 74.21875 74.21875 
L 28.609375 -1.421875 
L 20.796875 -1.421875 
z
M 22.3125 74.21875 
Q 30.03125 74.21875 34.609375 68.875 
Q 39.203125 63.53125 39.203125 54.390625 
Q 39.203125 45.171875 34.640625 39.84375 
Q 30.078125 34.515625 22.3125 34.515625 
Q 14.546875 34.515625 10.03125 39.859375 
Q 5.515625 45.21875 5.515625 54.390625 
Q 5.515625 63.484375 10.046875 68.84375 
Q 14.59375 74.21875 22.3125 74.21875 
z
" id="DejaVuSans-37"/>
       <path d="M 30.421875 75.984375 
L 30.421875 -13.1875 
L 9.71875 -13.1875 
L 9.71875 -6.203125 
L 21.390625 -6.203125 
L 21.390625 69 
L 9.71875 69 
L 9.71875 75.984375 
z
" id="DejaVuSans-93"/>
      </defs>
      <use xlink:href="#DejaVuSans-99"/>
      <use x="54.980469" xlink:href="#DejaVuSans-97"/>
      <use x="116.259766" xlink:href="#DejaVuSans-115"/>
      <use x="168.359375" xlink:href="#DejaVuSans-101"/>
      <use x="229.882812" xlink:href="#DejaVuSans-32"/>
      <use x="261.669922" xlink:href="#DejaVuSans-102"/>
      <use x="296.875" xlink:href="#DejaVuSans-97"/>
      <use x="358.154297" xlink:href="#DejaVuSans-116"/>
      <use x="397.363281" xlink:href="#DejaVuSans-97"/>
      <use x="458.642578" xlink:href="#DejaVuSans-108"/>
      <use x="486.425781" xlink:href="#DejaVuSans-105"/>
      <use x="514.208984" xlink:href="#DejaVuSans-116"/>
      <use x="553.417969" xlink:href="#DejaVuSans-121"/>
      <use x="612.597656" xlink:href="#DejaVuSans-32"/>
      <use x="644.384766" xlink:href="#DejaVuSans-114"/>
      <use x="685.498047" xlink:href="#DejaVuSans-97"/>
      <use x="746.777344" xlink:href="#DejaVuSans-116"/>
      <use x="785.986328" xlink:href="#DejaVuSans-101"/>
      <use x="847.509766" xlink:href="#DejaVuSans-32"/>
      <use x="879.296875" xlink:href="#DejaVuSans-91"/>
      <use x="918.310547" xlink:href="#DejaVuSans-37"/>
      <use x="1013.330078" xlink:href="#DejaVuSans-93"/>
     </g>
    </g>
   </g>
   <g id="patch_270">
    <path d="M 46.603125 288.430125 
L 46.603125 22.318125 
" style="fill:none;stroke:#000000;stroke-linecap:square;stroke-linejoin:miter;stroke-width:0.8;"/>
   </g>
   <g id="patch_271">
    <path d="M 46.603125 288.430125 
L 403.723125 288.430125 
" style="fill:none;stroke:#000000;stroke-linecap:square;stroke-linejoin:miter;stroke-width:0.8;"/>
   </g>
   <g id="text_20">
    <!-- South Tyrol -->
    <g transform="translate(191.870625 16.318125)scale(0.12 -0.12)">
     <defs>
      <path d="M 53.515625 70.515625 
L 53.515625 60.890625 
Q 47.90625 63.578125 42.921875 64.890625 
Q 37.9375 66.21875 33.296875 66.21875 
Q 25.25 66.21875 20.875 63.09375 
Q 16.5 59.96875 16.5 54.203125 
Q 16.5 49.359375 19.40625 46.890625 
Q 22.3125 44.4375 30.421875 42.921875 
L 36.375 41.703125 
Q 47.40625 39.59375 52.65625 34.296875 
Q 57.90625 29 57.90625 20.125 
Q 57.90625 9.515625 50.796875 4.046875 
Q 43.703125 -1.421875 29.984375 -1.421875 
Q 24.8125 -1.421875 18.96875 -0.25 
Q 13.140625 0.921875 6.890625 3.21875 
L 6.890625 13.375 
Q 12.890625 10.015625 18.65625 8.296875 
Q 24.421875 6.59375 29.984375 6.59375 
Q 38.421875 6.59375 43.015625 9.90625 
Q 47.609375 13.234375 47.609375 19.390625 
Q 47.609375 24.75 44.3125 27.78125 
Q 41.015625 30.8125 33.5 32.328125 
L 27.484375 33.5 
Q 16.453125 35.6875 11.515625 40.375 
Q 6.59375 45.0625 6.59375 53.421875 
Q 6.59375 63.09375 13.40625 68.65625 
Q 20.21875 74.21875 32.171875 74.21875 
Q 37.3125 74.21875 42.625 73.28125 
Q 47.953125 72.359375 53.515625 70.515625 
z
" id="DejaVuSans-83"/>
      <path d="M 30.609375 48.390625 
Q 23.390625 48.390625 19.1875 42.75 
Q 14.984375 37.109375 14.984375 27.296875 
Q 14.984375 17.484375 19.15625 11.84375 
Q 23.34375 6.203125 30.609375 6.203125 
Q 37.796875 6.203125 41.984375 11.859375 
Q 46.1875 17.53125 46.1875 27.296875 
Q 46.1875 37.015625 41.984375 42.703125 
Q 37.796875 48.390625 30.609375 48.390625 
z
M 30.609375 56 
Q 42.328125 56 49.015625 48.375 
Q 55.71875 40.765625 55.71875 27.296875 
Q 55.71875 13.875 49.015625 6.21875 
Q 42.328125 -1.421875 30.609375 -1.421875 
Q 18.84375 -1.421875 12.171875 6.21875 
Q 5.515625 13.875 5.515625 27.296875 
Q 5.515625 40.765625 12.171875 48.375 
Q 18.84375 56 30.609375 56 
z
" id="DejaVuSans-111"/>
      <path d="M 8.5 21.578125 
L 8.5 54.6875 
L 17.484375 54.6875 
L 17.484375 21.921875 
Q 17.484375 14.15625 20.5 10.265625 
Q 23.53125 6.390625 29.59375 6.390625 
Q 36.859375 6.390625 41.078125 11.03125 
Q 45.3125 15.671875 45.3125 23.6875 
L 45.3125 54.6875 
L 54.296875 54.6875 
L 54.296875 0 
L 45.3125 0 
L 45.3125 8.40625 
Q 42.046875 3.421875 37.71875 1 
Q 33.40625 -1.421875 27.6875 -1.421875 
Q 18.265625 -1.421875 13.375 4.4375 
Q 8.5 10.296875 8.5 21.578125 
z
M 31.109375 56 
z
" id="DejaVuSans-117"/>
      <path d="M 54.890625 33.015625 
L 54.890625 0 
L 45.90625 0 
L 45.90625 32.71875 
Q 45.90625 40.484375 42.875 44.328125 
Q 39.84375 48.1875 33.796875 48.1875 
Q 26.515625 48.1875 22.3125 43.546875 
Q 18.109375 38.921875 18.109375 30.90625 
L 18.109375 0 
L 9.078125 0 
L 9.078125 75.984375 
L 18.109375 75.984375 
L 18.109375 46.1875 
Q 21.34375 51.125 25.703125 53.5625 
Q 30.078125 56 35.796875 56 
Q 45.21875 56 50.046875 50.171875 
Q 54.890625 44.34375 54.890625 33.015625 
z
" id="DejaVuSans-104"/>
      <path d="M -0.296875 72.90625 
L 61.375 72.90625 
L 61.375 64.59375 
L 35.5 64.59375 
L 35.5 0 
L 25.59375 0 
L 25.59375 64.59375 
L -0.296875 64.59375 
z
" id="DejaVuSans-84"/>
     </defs>
     <use xlink:href="#DejaVuSans-83"/>
     <use x="63.476562" xlink:href="#DejaVuSans-111"/>
     <use x="124.658203" xlink:href="#DejaVuSans-117"/>
     <use x="188.037109" xlink:href="#DejaVuSans-116"/>
     <use x="227.246094" xlink:href="#DejaVuSans-104"/>
     <use x="290.625" xlink:href="#DejaVuSans-32"/>
     <use x="322.412109" xlink:href="#DejaVuSans-84"/>
     <use x="367.871094" xlink:href="#DejaVuSans-121"/>
     <use x="427.050781" xlink:href="#DejaVuSans-114"/>
     <use x="465.914062" xlink:href="#DejaVuSans-111"/>
     <use x="527.095703" xlink:href="#DejaVuSans-108"/>
    </g>
   </g>
  </g>
 </g>
 <defs>
  <clipPath id="pb47df3e05c">
   <rect height="266.112" width="357.12" x="46.603125" y="22.318125"/>
  </clipPath>
 </defs>
</svg>
