<?xml version="1.0" encoding="utf-8" standalone="no"?>
<!DOCTYPE svg PUBLIC "-//W3C//DTD SVG 1.1//EN"
  "http://www.w3.org/Graphics/SVG/1.1/DTD/svg11.dtd">
<!-- Created with matplotlib (https://matplotlib.org/) -->
<svg height="364.091062pt" version="1.1" viewBox="0 0 410.923125 364.091062" width="410.923125pt" xmlns="http://www.w3.org/2000/svg" xmlns:xlink="http://www.w3.org/1999/xlink">
 <metadata>
  <rdf:RDF xmlns:cc="http://creativecommons.org/ns#" xmlns:dc="http://purl.org/dc/elements/1.1/" xmlns:rdf="http://www.w3.org/1999/02/22-rdf-syntax-ns#">
   <cc:Work>
    <dc:type rdf:resource="http://purl.org/dc/dcmitype/StillImage"/>
    <dc:date>2020-12-10T12:22:48.527224</dc:date>
    <dc:format>image/svg+xml</dc:format>
    <dc:creator>
     <cc:Agent>
      <dc:title>Matplotlib v3.3.3, https://matplotlib.org/</dc:title>
     </cc:Agent>
    </dc:creator>
   </cc:Work>
  </rdf:RDF>
 </metadata>
 <defs>
  <style type="text/css">*{stroke-linecap:butt;stroke-linejoin:round;}</style>
 </defs>
 <g id="figure_1">
  <g id="patch_1">
   <path d="M 0 364.091062 
L 410.923125 364.091062 
L 410.923125 0 
L 0 0 
z
" style="fill:#ffffff;"/>
  </g>
  <g id="axes_1">
   <g id="patch_2">
    <path d="M 46.603125 288.430125 
L 403.723125 288.430125 
L 403.723125 22.318125 
L 46.603125 22.318125 
z
" style="fill:#ffffff;"/>
   </g>
   <g id="patch_3">
    <path clip-path="url(#pa81805bc24)" d="M 46.734904 288.430125 
L 47.789132 288.430125 
L 47.789132 34.990125 
L 46.734904 34.990125 
z
" style="fill:#1f77b4;"/>
   </g>
   <g id="patch_4">
    <path clip-path="url(#pa81805bc24)" d="M 48.05269 288.430125 
L 49.106918 288.430125 
L 49.106918 22.318125 
L 48.05269 22.318125 
z
" style="fill:#1f77b4;"/>
   </g>
   <g id="patch_5">
    <path clip-path="url(#pa81805bc24)" d="M 49.370476 288.430125 
L 50.424704 288.430125 
L 50.424704 22.318125 
L 49.370476 22.318125 
z
" style="fill:#1f77b4;"/>
   </g>
   <g id="patch_6">
    <path clip-path="url(#pa81805bc24)" d="M 50.688262 288.430125 
L 51.74249 288.430125 
L 51.74249 64.335809 
L 50.688262 64.335809 
z
" style="fill:#1f77b4;"/>
   </g>
   <g id="patch_7">
    <path clip-path="url(#pa81805bc24)" d="M 52.006048 288.430125 
L 53.060276 288.430125 
L 53.060276 51.886125 
L 52.006048 51.886125 
z
" style="fill:#1f77b4;"/>
   </g>
   <g id="patch_8">
    <path clip-path="url(#pa81805bc24)" d="M 53.323833 288.430125 
L 54.378062 288.430125 
L 54.378062 63.713325 
L 53.323833 63.713325 
z
" style="fill:#1f77b4;"/>
   </g>
   <g id="patch_9">
    <path clip-path="url(#pa81805bc24)" d="M 54.641619 288.430125 
L 55.695848 288.430125 
L 55.695848 58.279206 
L 54.641619 58.279206 
z
" style="fill:#1f77b4;"/>
   </g>
   <g id="patch_10">
    <path clip-path="url(#pa81805bc24)" d="M 55.959405 288.430125 
L 57.013634 288.430125 
L 57.013634 76.905202 
L 55.959405 76.905202 
z
" style="fill:#1f77b4;"/>
   </g>
   <g id="patch_11">
    <path clip-path="url(#pa81805bc24)" d="M 57.277191 288.430125 
L 58.33142 288.430125 
L 58.33142 77.946057 
L 57.277191 77.946057 
z
" style="fill:#1f77b4;"/>
   </g>
   <g id="patch_12">
    <path clip-path="url(#pa81805bc24)" d="M 58.594977 288.430125 
L 59.649206 288.430125 
L 59.649206 58.843301 
L 58.594977 58.843301 
z
" style="fill:#1f77b4;"/>
   </g>
   <g id="patch_13">
    <path clip-path="url(#pa81805bc24)" d="M 59.912763 288.430125 
L 60.966992 288.430125 
L 60.966992 78.341704 
L 59.912763 78.341704 
z
" style="fill:#1f77b4;"/>
   </g>
   <g id="patch_14">
    <path clip-path="url(#pa81805bc24)" d="M 61.230549 288.430125 
L 62.284778 288.430125 
L 62.284778 84.025255 
L 61.230549 84.025255 
z
" style="fill:#1f77b4;"/>
   </g>
   <g id="patch_15">
    <path clip-path="url(#pa81805bc24)" d="M 62.548335 288.430125 
L 63.602564 288.430125 
L 63.602564 85.678125 
L 62.548335 85.678125 
z
" style="fill:#1f77b4;"/>
   </g>
   <g id="patch_16">
    <path clip-path="url(#pa81805bc24)" d="M 63.866121 288.430125 
L 64.92035 288.430125 
L 64.92035 87.47239 
L 63.866121 87.47239 
z
" style="fill:#1f77b4;"/>
   </g>
   <g id="patch_17">
    <path clip-path="url(#pa81805bc24)" d="M 65.183907 288.430125 
L 66.238136 288.430125 
L 66.238136 91.618125 
L 65.183907 91.618125 
z
" style="fill:#1f77b4;"/>
   </g>
   <g id="patch_18">
    <path clip-path="url(#pa81805bc24)" d="M 66.501693 288.430125 
L 67.555922 288.430125 
L 67.555922 111.022125 
L 66.501693 111.022125 
z
" style="fill:#1f77b4;"/>
   </g>
   <g id="patch_19">
    <path clip-path="url(#pa81805bc24)" d="M 67.819479 288.430125 
L 68.873708 288.430125 
L 68.873708 95.213491 
L 67.819479 95.213491 
z
" style="fill:#1f77b4;"/>
   </g>
   <g id="patch_20">
    <path clip-path="url(#pa81805bc24)" d="M 69.137265 288.430125 
L 70.191494 288.430125 
L 70.191494 100.032249 
L 69.137265 100.032249 
z
" style="fill:#1f77b4;"/>
   </g>
   <g id="patch_21">
    <path clip-path="url(#pa81805bc24)" d="M 70.455051 288.430125 
L 71.50928 288.430125 
L 71.50928 106.034752 
L 70.455051 106.034752 
z
" style="fill:#1f77b4;"/>
   </g>
   <g id="patch_22">
    <path clip-path="url(#pa81805bc24)" d="M 71.772837 288.430125 
L 72.827066 288.430125 
L 72.827066 112.876564 
L 71.772837 112.876564 
z
" style="fill:#1f77b4;"/>
   </g>
   <g id="patch_23">
    <path clip-path="url(#pa81805bc24)" d="M 73.090623 288.430125 
L 74.144852 288.430125 
L 74.144852 115.753005 
L 73.090623 115.753005 
z
" style="fill:#1f77b4;"/>
   </g>
   <g id="patch_24">
    <path clip-path="url(#pa81805bc24)" d="M 74.408409 288.430125 
L 75.462638 288.430125 
L 75.462638 117.592792 
L 74.408409 117.592792 
z
" style="fill:#1f77b4;"/>
   </g>
   <g id="patch_25">
    <path clip-path="url(#pa81805bc24)" d="M 75.726195 288.430125 
L 76.780424 288.430125 
L 76.780424 124.052091 
L 75.726195 124.052091 
z
" style="fill:#1f77b4;"/>
   </g>
   <g id="patch_26">
    <path clip-path="url(#pa81805bc24)" d="M 77.043981 288.430125 
L 78.09821 288.430125 
L 78.09821 127.40545 
L 77.043981 127.40545 
z
" style="fill:#1f77b4;"/>
   </g>
   <g id="patch_27">
    <path clip-path="url(#pa81805bc24)" d="M 78.361767 288.430125 
L 79.415996 288.430125 
L 79.415996 140.866461 
L 78.361767 140.866461 
z
" style="fill:#1f77b4;"/>
   </g>
   <g id="patch_28">
    <path clip-path="url(#pa81805bc24)" d="M 79.679553 288.430125 
L 80.733782 288.430125 
L 80.733782 145.433159 
L 79.679553 145.433159 
z
" style="fill:#1f77b4;"/>
   </g>
   <g id="patch_29">
    <path clip-path="url(#pa81805bc24)" d="M 80.997339 288.430125 
L 82.051568 288.430125 
L 82.051568 152.993401 
L 80.997339 152.993401 
z
" style="fill:#1f77b4;"/>
   </g>
   <g id="patch_30">
    <path clip-path="url(#pa81805bc24)" d="M 82.315125 288.430125 
L 83.369354 288.430125 
L 83.369354 159.873603 
L 82.315125 159.873603 
z
" style="fill:#1f77b4;"/>
   </g>
   <g id="patch_31">
    <path clip-path="url(#pa81805bc24)" d="M 83.632911 288.430125 
L 84.68714 288.430125 
L 84.68714 161.66574 
L 83.632911 161.66574 
z
" style="fill:#1f77b4;"/>
   </g>
   <g id="patch_32">
    <path clip-path="url(#pa81805bc24)" d="M 84.950697 288.430125 
L 86.004926 288.430125 
L 86.004926 158.913249 
L 84.950697 158.913249 
z
" style="fill:#1f77b4;"/>
   </g>
   <g id="patch_33">
    <path clip-path="url(#pa81805bc24)" d="M 86.268483 288.430125 
L 87.322712 288.430125 
L 87.322712 160.743438 
L 86.268483 160.743438 
z
" style="fill:#1f77b4;"/>
   </g>
   <g id="patch_34">
    <path clip-path="url(#pa81805bc24)" d="M 87.586269 288.430125 
L 88.640498 288.430125 
L 88.640498 165.137144 
L 87.586269 165.137144 
z
" style="fill:#1f77b4;"/>
   </g>
   <g id="patch_35">
    <path clip-path="url(#pa81805bc24)" d="M 88.904055 288.430125 
L 89.958284 288.430125 
L 89.958284 168.758456 
L 88.904055 168.758456 
z
" style="fill:#1f77b4;"/>
   </g>
   <g id="patch_36">
    <path clip-path="url(#pa81805bc24)" d="M 90.221841 288.430125 
L 91.27607 288.430125 
L 91.27607 172.815923 
L 90.221841 172.815923 
z
" style="fill:#1f77b4;"/>
   </g>
   <g id="patch_37">
    <path clip-path="url(#pa81805bc24)" d="M 91.539627 288.430125 
L 92.593856 288.430125 
L 92.593856 178.155711 
L 91.539627 178.155711 
z
" style="fill:#1f77b4;"/>
   </g>
   <g id="patch_38">
    <path clip-path="url(#pa81805bc24)" d="M 92.857413 288.430125 
L 93.911642 288.430125 
L 93.911642 181.636611 
L 92.857413 181.636611 
z
" style="fill:#1f77b4;"/>
   </g>
   <g id="patch_39">
    <path clip-path="url(#pa81805bc24)" d="M 94.175199 288.430125 
L 95.229428 288.430125 
L 95.229428 184.855466 
L 94.175199 184.855466 
z
" style="fill:#1f77b4;"/>
   </g>
   <g id="patch_40">
    <path clip-path="url(#pa81805bc24)" d="M 95.492985 288.430125 
L 96.547214 288.430125 
L 96.547214 186.243117 
L 95.492985 186.243117 
z
" style="fill:#1f77b4;"/>
   </g>
   <g id="patch_41">
    <path clip-path="url(#pa81805bc24)" d="M 96.810771 288.430125 
L 97.865 288.430125 
L 97.865 187.951258 
L 96.810771 187.951258 
z
" style="fill:#1f77b4;"/>
   </g>
   <g id="patch_42">
    <path clip-path="url(#pa81805bc24)" d="M 98.128557 288.430125 
L 99.182786 288.430125 
L 99.182786 190.01676 
L 98.128557 190.01676 
z
" style="fill:#1f77b4;"/>
   </g>
   <g id="patch_43">
    <path clip-path="url(#pa81805bc24)" d="M 99.446343 288.430125 
L 100.500571 288.430125 
L 100.500571 219.965996 
L 99.446343 219.965996 
z
" style="fill:#1f77b4;"/>
   </g>
   <g id="patch_44">
    <path clip-path="url(#pa81805bc24)" d="M 100.764129 288.430125 
L 101.818357 288.430125 
L 101.818357 223.179438 
L 100.764129 223.179438 
z
" style="fill:#1f77b4;"/>
   </g>
   <g id="patch_45">
    <path clip-path="url(#pa81805bc24)" d="M 102.081915 288.430125 
L 103.136143 288.430125 
L 103.136143 224.243505 
L 102.081915 224.243505 
z
" style="fill:#1f77b4;"/>
   </g>
   <g id="patch_46">
    <path clip-path="url(#pa81805bc24)" d="M 103.399701 288.430125 
L 104.453929 288.430125 
L 104.453929 226.861796 
L 103.399701 226.861796 
z
" style="fill:#1f77b4;"/>
   </g>
   <g id="patch_47">
    <path clip-path="url(#pa81805bc24)" d="M 104.717487 288.430125 
L 105.771715 288.430125 
L 105.771715 227.655596 
L 104.717487 227.655596 
z
" style="fill:#1f77b4;"/>
   </g>
   <g id="patch_48">
    <path clip-path="url(#pa81805bc24)" d="M 106.035273 288.430125 
L 107.089501 288.430125 
L 107.089501 229.934587 
L 106.035273 229.934587 
z
" style="fill:#1f77b4;"/>
   </g>
   <g id="patch_49">
    <path clip-path="url(#pa81805bc24)" d="M 107.353059 288.430125 
L 108.407287 288.430125 
L 108.407287 231.568587 
L 107.353059 231.568587 
z
" style="fill:#1f77b4;"/>
   </g>
   <g id="patch_50">
    <path clip-path="url(#pa81805bc24)" d="M 108.670845 288.430125 
L 109.725073 288.430125 
L 109.725073 232.733429 
L 108.670845 232.733429 
z
" style="fill:#1f77b4;"/>
   </g>
   <g id="patch_51">
    <path clip-path="url(#pa81805bc24)" d="M 109.988631 288.430125 
L 111.042859 288.430125 
L 111.042859 234.394282 
L 109.988631 234.394282 
z
" style="fill:#1f77b4;"/>
   </g>
   <g id="patch_52">
    <path clip-path="url(#pa81805bc24)" d="M 111.306417 288.430125 
L 112.360645 288.430125 
L 112.360645 235.141351 
L 111.306417 235.141351 
z
" style="fill:#1f77b4;"/>
   </g>
   <g id="patch_53">
    <path clip-path="url(#pa81805bc24)" d="M 112.624202 288.430125 
L 113.678431 288.430125 
L 113.678431 235.533671 
L 112.624202 235.533671 
z
" style="fill:#1f77b4;"/>
   </g>
   <g id="patch_54">
    <path clip-path="url(#pa81805bc24)" d="M 113.941988 288.430125 
L 114.996217 288.430125 
L 114.996217 235.851174 
L 113.941988 235.851174 
z
" style="fill:#1f77b4;"/>
   </g>
   <g id="patch_55">
    <path clip-path="url(#pa81805bc24)" d="M 115.259774 288.430125 
L 116.314003 288.430125 
L 116.314003 236.7614 
L 115.259774 236.7614 
z
" style="fill:#1f77b4;"/>
   </g>
   <g id="patch_56">
    <path clip-path="url(#pa81805bc24)" d="M 116.57756 288.430125 
L 117.631789 288.430125 
L 117.631789 237.716794 
L 116.57756 237.716794 
z
" style="fill:#1f77b4;"/>
   </g>
   <g id="patch_57">
    <path clip-path="url(#pa81805bc24)" d="M 117.895346 288.430125 
L 118.949575 288.430125 
L 118.949575 238.555697 
L 117.895346 238.555697 
z
" style="fill:#1f77b4;"/>
   </g>
   <g id="patch_58">
    <path clip-path="url(#pa81805bc24)" d="M 119.213132 288.430125 
L 120.267361 288.430125 
L 120.267361 239.291328 
L 119.213132 239.291328 
z
" style="fill:#1f77b4;"/>
   </g>
   <g id="patch_59">
    <path clip-path="url(#pa81805bc24)" d="M 120.530918 288.430125 
L 121.585147 288.430125 
L 121.585147 239.663945 
L 120.530918 239.663945 
z
" style="fill:#1f77b4;"/>
   </g>
   <g id="patch_60">
    <path clip-path="url(#pa81805bc24)" d="M 121.848704 288.430125 
L 122.902933 288.430125 
L 122.902933 240.008177 
L 121.848704 240.008177 
z
" style="fill:#1f77b4;"/>
   </g>
   <g id="patch_61">
    <path clip-path="url(#pa81805bc24)" d="M 123.16649 288.430125 
L 124.220719 288.430125 
L 124.220719 240.234977 
L 123.16649 240.234977 
z
" style="fill:#1f77b4;"/>
   </g>
   <g id="patch_62">
    <path clip-path="url(#pa81805bc24)" d="M 124.484276 288.430125 
L 125.538505 288.430125 
L 125.538505 240.83686 
L 124.484276 240.83686 
z
" style="fill:#1f77b4;"/>
   </g>
   <g id="patch_63">
    <path clip-path="url(#pa81805bc24)" d="M 125.802062 288.430125 
L 126.856291 288.430125 
L 126.856291 241.616367 
L 125.802062 241.616367 
z
" style="fill:#1f77b4;"/>
   </g>
   <g id="patch_64">
    <path clip-path="url(#pa81805bc24)" d="M 127.119848 288.430125 
L 128.174077 288.430125 
L 128.174077 242.059399 
L 127.119848 242.059399 
z
" style="fill:#1f77b4;"/>
   </g>
   <g id="patch_65">
    <path clip-path="url(#pa81805bc24)" d="M 128.437634 288.430125 
L 129.491863 288.430125 
L 129.491863 242.494125 
L 128.437634 242.494125 
z
" style="fill:#1f77b4;"/>
   </g>
   <g id="patch_66">
    <path clip-path="url(#pa81805bc24)" d="M 129.75542 288.430125 
L 130.809649 288.430125 
L 130.809649 243.041223 
L 129.75542 243.041223 
z
" style="fill:#1f77b4;"/>
   </g>
   <g id="patch_67">
    <path clip-path="url(#pa81805bc24)" d="M 131.073206 288.430125 
L 132.127435 288.430125 
L 132.127435 243.04487 
L 131.073206 243.04487 
z
" style="fill:#1f77b4;"/>
   </g>
   <g id="patch_68">
    <path clip-path="url(#pa81805bc24)" d="M 132.390992 288.430125 
L 133.445221 288.430125 
L 133.445221 243.124528 
L 132.390992 243.124528 
z
" style="fill:#1f77b4;"/>
   </g>
   <g id="patch_69">
    <path clip-path="url(#pa81805bc24)" d="M 133.708778 288.430125 
L 134.763007 288.430125 
L 134.763007 243.829064 
L 133.708778 243.829064 
z
" style="fill:#1f77b4;"/>
   </g>
   <g id="patch_70">
    <path clip-path="url(#pa81805bc24)" d="M 135.026564 288.430125 
L 136.080793 288.430125 
L 136.080793 244.248929 
L 135.026564 244.248929 
z
" style="fill:#1f77b4;"/>
   </g>
   <g id="patch_71">
    <path clip-path="url(#pa81805bc24)" d="M 136.34435 288.430125 
L 137.398579 288.430125 
L 137.398579 244.790456 
L 136.34435 244.790456 
z
" style="fill:#1f77b4;"/>
   </g>
   <g id="patch_72">
    <path clip-path="url(#pa81805bc24)" d="M 137.662136 288.430125 
L 138.716365 288.430125 
L 138.716365 244.974125 
L 137.662136 244.974125 
z
" style="fill:#1f77b4;"/>
   </g>
   <g id="patch_73">
    <path clip-path="url(#pa81805bc24)" d="M 138.979922 288.430125 
L 140.034151 288.430125 
L 140.034151 245.372804 
L 138.979922 245.372804 
z
" style="fill:#1f77b4;"/>
   </g>
   <g id="patch_74">
    <path clip-path="url(#pa81805bc24)" d="M 140.297708 288.430125 
L 141.351937 288.430125 
L 141.351937 245.569413 
L 140.297708 245.569413 
z
" style="fill:#1f77b4;"/>
   </g>
   <g id="patch_75">
    <path clip-path="url(#pa81805bc24)" d="M 141.615494 288.430125 
L 142.669723 288.430125 
L 142.669723 245.658188 
L 141.615494 245.658188 
z
" style="fill:#1f77b4;"/>
   </g>
   <g id="patch_76">
    <path clip-path="url(#pa81805bc24)" d="M 142.93328 288.430125 
L 143.987509 288.430125 
L 143.987509 245.799466 
L 142.93328 245.799466 
z
" style="fill:#1f77b4;"/>
   </g>
   <g id="patch_77">
    <path clip-path="url(#pa81805bc24)" d="M 144.251066 288.430125 
L 145.305295 288.430125 
L 145.305295 246.079241 
L 144.251066 246.079241 
z
" style="fill:#1f77b4;"/>
   </g>
   <g id="patch_78">
    <path clip-path="url(#pa81805bc24)" d="M 145.568852 288.430125 
L 146.623081 288.430125 
L 146.623081 246.13129 
L 145.568852 246.13129 
z
" style="fill:#1f77b4;"/>
   </g>
   <g id="patch_79">
    <path clip-path="url(#pa81805bc24)" d="M 146.886638 288.430125 
L 147.940867 288.430125 
L 147.940867 246.44092 
L 146.886638 246.44092 
z
" style="fill:#1f77b4;"/>
   </g>
   <g id="patch_80">
    <path clip-path="url(#pa81805bc24)" d="M 148.204424 288.430125 
L 149.258653 288.430125 
L 149.258653 246.627916 
L 148.204424 246.627916 
z
" style="fill:#1f77b4;"/>
   </g>
   <g id="patch_81">
    <path clip-path="url(#pa81805bc24)" d="M 149.52221 288.430125 
L 150.576439 288.430125 
L 150.576439 246.712365 
L 149.52221 246.712365 
z
" style="fill:#1f77b4;"/>
   </g>
   <g id="patch_82">
    <path clip-path="url(#pa81805bc24)" d="M 150.839996 288.430125 
L 151.894225 288.430125 
L 151.894225 246.762871 
L 150.839996 246.762871 
z
" style="fill:#1f77b4;"/>
   </g>
   <g id="patch_83">
    <path clip-path="url(#pa81805bc24)" d="M 152.157782 288.430125 
L 153.212011 288.430125 
L 153.212011 246.762871 
L 152.157782 246.762871 
z
" style="fill:#1f77b4;"/>
   </g>
   <g id="patch_84">
    <path clip-path="url(#pa81805bc24)" d="M 153.475568 288.430125 
L 154.529797 288.430125 
L 154.529797 246.754231 
L 153.475568 246.754231 
z
" style="fill:#1f77b4;"/>
   </g>
   <g id="patch_85">
    <path clip-path="url(#pa81805bc24)" d="M 154.793354 288.430125 
L 155.847583 288.430125 
L 155.847583 246.954436 
L 154.793354 246.954436 
z
" style="fill:#1f77b4;"/>
   </g>
   <g id="patch_86">
    <path clip-path="url(#pa81805bc24)" d="M 156.11114 288.430125 
L 157.165369 288.430125 
L 157.165369 246.987616 
L 156.11114 246.987616 
z
" style="fill:#1f77b4;"/>
   </g>
   <g id="patch_87">
    <path clip-path="url(#pa81805bc24)" d="M 157.428926 288.430125 
L 158.483155 288.430125 
L 158.483155 247.08684 
L 157.428926 247.08684 
z
" style="fill:#1f77b4;"/>
   </g>
   <g id="patch_88">
    <path clip-path="url(#pa81805bc24)" d="M 158.746712 288.430125 
L 159.80094 288.430125 
L 159.80094 247.103331 
L 158.746712 247.103331 
z
" style="fill:#1f77b4;"/>
   </g>
   <g id="patch_89">
    <path clip-path="url(#pa81805bc24)" d="M 160.064498 288.430125 
L 161.118726 288.430125 
L 161.118726 247.136274 
L 160.064498 247.136274 
z
" style="fill:#1f77b4;"/>
   </g>
   <g id="patch_90">
    <path clip-path="url(#pa81805bc24)" d="M 161.382284 288.430125 
L 162.436512 288.430125 
L 162.436512 247.152726 
L 161.382284 247.152726 
z
" style="fill:#1f77b4;"/>
   </g>
   <g id="patch_91">
    <path clip-path="url(#pa81805bc24)" d="M 162.70007 288.430125 
L 163.754298 288.430125 
L 163.754298 247.103331 
L 162.70007 247.103331 
z
" style="fill:#1f77b4;"/>
   </g>
   <g id="patch_92">
    <path clip-path="url(#pa81805bc24)" d="M 164.017856 288.430125 
L 165.072084 288.430125 
L 165.072084 247.244861 
L 164.017856 247.244861 
z
" style="fill:#1f77b4;"/>
   </g>
   <g id="patch_93">
    <path clip-path="url(#pa81805bc24)" d="M 165.335642 288.430125 
L 166.38987 288.430125 
L 166.38987 247.375868 
L 165.335642 247.375868 
z
" style="fill:#1f77b4;"/>
   </g>
   <g id="patch_94">
    <path clip-path="url(#pa81805bc24)" d="M 166.653428 288.430125 
L 167.707656 288.430125 
L 167.707656 247.392185 
L 166.653428 247.392185 
z
" style="fill:#1f77b4;"/>
   </g>
   <g id="patch_95">
    <path clip-path="url(#pa81805bc24)" d="M 167.971214 288.430125 
L 169.025442 288.430125 
L 169.025442 247.267522 
L 167.971214 247.267522 
z
" style="fill:#1f77b4;"/>
   </g>
   <g id="patch_96">
    <path clip-path="url(#pa81805bc24)" d="M 169.289 288.430125 
L 170.343228 288.430125 
L 170.343228 247.283869 
L 169.289 247.283869 
z
" style="fill:#1f77b4;"/>
   </g>
   <g id="patch_97">
    <path clip-path="url(#pa81805bc24)" d="M 170.606786 288.430125 
L 171.661014 288.430125 
L 171.661014 247.381681 
L 170.606786 247.381681 
z
" style="fill:#1f77b4;"/>
   </g>
   <g id="patch_98">
    <path clip-path="url(#pa81805bc24)" d="M 171.924571 288.430125 
L 172.9788 288.430125 
L 172.9788 247.446631 
L 171.924571 247.446631 
z
" style="fill:#1f77b4;"/>
   </g>
   <g id="patch_99">
    <path clip-path="url(#pa81805bc24)" d="M 173.242357 288.430125 
L 174.296586 288.430125 
L 174.296586 247.640254 
L 173.242357 247.640254 
z
" style="fill:#1f77b4;"/>
   </g>
   <g id="patch_100">
    <path clip-path="url(#pa81805bc24)" d="M 174.560143 288.430125 
L 175.614372 288.430125 
L 175.614372 247.672347 
L 174.560143 247.672347 
z
" style="fill:#1f77b4;"/>
   </g>
   <g id="patch_101">
    <path clip-path="url(#pa81805bc24)" d="M 175.877929 288.430125 
L 176.932158 288.430125 
L 176.932158 247.752358 
L 175.877929 247.752358 
z
" style="fill:#1f77b4;"/>
   </g>
   <g id="patch_102">
    <path clip-path="url(#pa81805bc24)" d="M 177.195715 288.430125 
L 178.249944 288.430125 
L 178.249944 247.704389 
L 177.195715 247.704389 
z
" style="fill:#1f77b4;"/>
   </g>
   <g id="patch_103">
    <path clip-path="url(#pa81805bc24)" d="M 178.513501 288.430125 
L 179.56773 288.430125 
L 179.56773 247.704389 
L 178.513501 247.704389 
z
" style="fill:#1f77b4;"/>
   </g>
   <g id="patch_104">
    <path clip-path="url(#pa81805bc24)" d="M 179.831287 288.430125 
L 180.885516 288.430125 
L 180.885516 247.704389 
L 179.831287 247.704389 
z
" style="fill:#1f77b4;"/>
   </g>
   <g id="patch_105">
    <path clip-path="url(#pa81805bc24)" d="M 181.149073 288.430125 
L 182.203302 288.430125 
L 182.203302 247.752358 
L 181.149073 247.752358 
z
" style="fill:#1f77b4;"/>
   </g>
   <g id="patch_106">
    <path clip-path="url(#pa81805bc24)" d="M 182.466859 288.430125 
L 183.521088 288.430125 
L 183.521088 247.784275 
L 182.466859 247.784275 
z
" style="fill:#1f77b4;"/>
   </g>
   <g id="patch_107">
    <path clip-path="url(#pa81805bc24)" d="M 183.784645 288.430125 
L 184.838874 288.430125 
L 184.838874 247.784275 
L 183.784645 247.784275 
z
" style="fill:#1f77b4;"/>
   </g>
   <g id="patch_108">
    <path clip-path="url(#pa81805bc24)" d="M 185.102431 288.430125 
L 186.15666 288.430125 
L 186.15666 247.832056 
L 185.102431 247.832056 
z
" style="fill:#1f77b4;"/>
   </g>
   <g id="patch_109">
    <path clip-path="url(#pa81805bc24)" d="M 186.420217 288.430125 
L 187.474446 288.430125 
L 187.474446 247.863848 
L 186.420217 247.863848 
z
" style="fill:#1f77b4;"/>
   </g>
   <g id="patch_110">
    <path clip-path="url(#pa81805bc24)" d="M 187.738003 288.430125 
L 188.792232 288.430125 
L 188.792232 247.879725 
L 187.738003 247.879725 
z
" style="fill:#1f77b4;"/>
   </g>
   <g id="patch_111">
    <path clip-path="url(#pa81805bc24)" d="M 189.055789 288.430125 
L 190.110018 288.430125 
L 190.110018 247.927282 
L 189.055789 247.927282 
z
" style="fill:#1f77b4;"/>
   </g>
   <g id="patch_112">
    <path clip-path="url(#pa81805bc24)" d="M 190.373575 288.430125 
L 191.427804 288.430125 
L 191.427804 247.927282 
L 190.373575 247.927282 
z
" style="fill:#1f77b4;"/>
   </g>
   <g id="patch_113">
    <path clip-path="url(#pa81805bc24)" d="M 191.691361 288.430125 
L 192.74559 288.430125 
L 192.74559 247.94311 
L 191.691361 247.94311 
z
" style="fill:#1f77b4;"/>
   </g>
   <g id="patch_114">
    <path clip-path="url(#pa81805bc24)" d="M 193.009147 288.430125 
L 194.063376 288.430125 
L 194.063376 247.958925 
L 193.009147 247.958925 
z
" style="fill:#1f77b4;"/>
   </g>
   <g id="patch_115">
    <path clip-path="url(#pa81805bc24)" d="M 194.326933 288.430125 
L 195.381162 288.430125 
L 195.381162 247.990518 
L 194.326933 247.990518 
z
" style="fill:#1f77b4;"/>
   </g>
   <g id="patch_116">
    <path clip-path="url(#pa81805bc24)" d="M 195.644719 288.430125 
L 196.698948 288.430125 
L 196.698948 248.022063 
L 195.644719 248.022063 
z
" style="fill:#1f77b4;"/>
   </g>
   <g id="patch_117">
    <path clip-path="url(#pa81805bc24)" d="M 196.962505 288.430125 
L 198.016734 288.430125 
L 198.016734 248.037816 
L 196.962505 248.037816 
z
" style="fill:#1f77b4;"/>
   </g>
   <g id="patch_118">
    <path clip-path="url(#pa81805bc24)" d="M 198.280291 288.430125 
L 199.33452 288.430125 
L 199.33452 248.069287 
L 198.280291 248.069287 
z
" style="fill:#1f77b4;"/>
   </g>
   <g id="patch_119">
    <path clip-path="url(#pa81805bc24)" d="M 199.598077 288.430125 
L 200.652306 288.430125 
L 200.652306 248.100708 
L 199.598077 248.100708 
z
" style="fill:#1f77b4;"/>
   </g>
   <g id="patch_120">
    <path clip-path="url(#pa81805bc24)" d="M 200.915863 288.430125 
L 201.970092 288.430125 
L 201.970092 248.147749 
L 200.915863 248.147749 
z
" style="fill:#1f77b4;"/>
   </g>
   <g id="patch_121">
    <path clip-path="url(#pa81805bc24)" d="M 202.233649 288.430125 
L 203.287878 288.430125 
L 203.287878 248.257084 
L 202.233649 248.257084 
z
" style="fill:#1f77b4;"/>
   </g>
   <g id="patch_122">
    <path clip-path="url(#pa81805bc24)" d="M 203.551435 288.430125 
L 204.605664 288.430125 
L 204.605664 248.241501 
L 203.551435 248.241501 
z
" style="fill:#1f77b4;"/>
   </g>
   <g id="patch_123">
    <path clip-path="url(#pa81805bc24)" d="M 204.869221 288.430125 
L 205.92345 288.430125 
L 205.92345 248.241501 
L 204.869221 248.241501 
z
" style="fill:#1f77b4;"/>
   </g>
   <g id="patch_124">
    <path clip-path="url(#pa81805bc24)" d="M 206.187007 288.430125 
L 207.241236 288.430125 
L 207.241236 248.257084 
L 206.187007 248.257084 
z
" style="fill:#1f77b4;"/>
   </g>
   <g id="patch_125">
    <path clip-path="url(#pa81805bc24)" d="M 207.504793 288.430125 
L 208.559022 288.430125 
L 208.559022 248.272655 
L 207.504793 248.272655 
z
" style="fill:#1f77b4;"/>
   </g>
   <g id="patch_126">
    <path clip-path="url(#pa81805bc24)" d="M 208.822579 288.430125 
L 209.876808 288.430125 
L 209.876808 248.241501 
L 208.822579 248.241501 
z
" style="fill:#1f77b4;"/>
   </g>
   <g id="patch_127">
    <path clip-path="url(#pa81805bc24)" d="M 210.140365 288.430125 
L 211.194594 288.430125 
L 211.194594 248.288214 
L 210.140365 248.288214 
z
" style="fill:#1f77b4;"/>
   </g>
   <g id="patch_128">
    <path clip-path="url(#pa81805bc24)" d="M 211.458151 288.430125 
L 212.51238 288.430125 
L 212.51238 248.303761 
L 211.458151 248.303761 
z
" style="fill:#1f77b4;"/>
   </g>
   <g id="patch_129">
    <path clip-path="url(#pa81805bc24)" d="M 212.775937 288.430125 
L 213.830166 288.430125 
L 213.830166 248.319296 
L 212.775937 248.319296 
z
" style="fill:#1f77b4;"/>
   </g>
   <g id="patch_130">
    <path clip-path="url(#pa81805bc24)" d="M 214.093723 288.430125 
L 215.147952 288.430125 
L 215.147952 248.334818 
L 214.093723 248.334818 
z
" style="fill:#1f77b4;"/>
   </g>
   <g id="patch_131">
    <path clip-path="url(#pa81805bc24)" d="M 215.411509 288.430125 
L 216.465738 288.430125 
L 216.465738 248.365828 
L 215.411509 248.365828 
z
" style="fill:#1f77b4;"/>
   </g>
   <g id="patch_132">
    <path clip-path="url(#pa81805bc24)" d="M 216.729295 288.430125 
L 217.783524 288.430125 
L 217.783524 248.412252 
L 216.729295 248.412252 
z
" style="fill:#1f77b4;"/>
   </g>
   <g id="patch_133">
    <path clip-path="url(#pa81805bc24)" d="M 218.047081 288.430125 
L 219.10131 288.430125 
L 219.10131 248.535527 
L 218.047081 248.535527 
z
" style="fill:#1f77b4;"/>
   </g>
   <g id="patch_134">
    <path clip-path="url(#pa81805bc24)" d="M 219.364867 288.430125 
L 220.419095 288.430125 
L 220.419095 248.64277 
L 219.364867 248.64277 
z
" style="fill:#1f77b4;"/>
   </g>
   <g id="patch_135">
    <path clip-path="url(#pa81805bc24)" d="M 220.682653 288.430125 
L 221.736881 288.430125 
L 221.736881 248.673305 
L 220.682653 248.673305 
z
" style="fill:#1f77b4;"/>
   </g>
   <g id="patch_136">
    <path clip-path="url(#pa81805bc24)" d="M 222.000439 288.430125 
L 223.054667 288.430125 
L 223.054667 248.673305 
L 222.000439 248.673305 
z
" style="fill:#1f77b4;"/>
   </g>
   <g id="patch_137">
    <path clip-path="url(#pa81805bc24)" d="M 223.318225 288.430125 
L 224.372453 288.430125 
L 224.372453 248.673305 
L 223.318225 248.673305 
z
" style="fill:#1f77b4;"/>
   </g>
   <g id="patch_138">
    <path clip-path="url(#pa81805bc24)" d="M 224.636011 288.430125 
L 225.690239 288.430125 
L 225.690239 248.688555 
L 224.636011 248.688555 
z
" style="fill:#1f77b4;"/>
   </g>
   <g id="patch_139">
    <path clip-path="url(#pa81805bc24)" d="M 225.953797 288.430125 
L 227.008025 288.430125 
L 227.008025 248.734235 
L 225.953797 248.734235 
z
" style="fill:#1f77b4;"/>
   </g>
   <g id="patch_140">
    <path clip-path="url(#pa81805bc24)" d="M 227.271583 288.430125 
L 228.325811 288.430125 
L 228.325811 248.734235 
L 227.271583 248.734235 
z
" style="fill:#1f77b4;"/>
   </g>
   <g id="patch_141">
    <path clip-path="url(#pa81805bc24)" d="M 228.589369 288.430125 
L 229.643597 288.430125 
L 229.643597 248.810136 
L 228.589369 248.810136 
z
" style="fill:#1f77b4;"/>
   </g>
   <g id="patch_142">
    <path clip-path="url(#pa81805bc24)" d="M 229.907155 288.430125 
L 230.961383 288.430125 
L 230.961383 248.855537 
L 229.907155 248.855537 
z
" style="fill:#1f77b4;"/>
   </g>
   <g id="patch_143">
    <path clip-path="url(#pa81805bc24)" d="M 231.22494 288.430125 
L 232.279169 288.430125 
L 232.279169 248.900834 
L 231.22494 248.900834 
z
" style="fill:#1f77b4;"/>
   </g>
   <g id="patch_144">
    <path clip-path="url(#pa81805bc24)" d="M 232.542726 288.430125 
L 233.596955 288.430125 
L 233.596955 248.91591 
L 232.542726 248.91591 
z
" style="fill:#1f77b4;"/>
   </g>
   <g id="patch_145">
    <path clip-path="url(#pa81805bc24)" d="M 233.860512 288.430125 
L 234.914741 288.430125 
L 234.914741 248.91591 
L 233.860512 248.91591 
z
" style="fill:#1f77b4;"/>
   </g>
   <g id="patch_146">
    <path clip-path="url(#pa81805bc24)" d="M 235.178298 288.430125 
L 236.232527 288.430125 
L 236.232527 249.021121 
L 235.178298 249.021121 
z
" style="fill:#1f77b4;"/>
   </g>
   <g id="patch_147">
    <path clip-path="url(#pa81805bc24)" d="M 236.496084 288.430125 
L 237.550313 288.430125 
L 237.550313 249.08099 
L 236.496084 249.08099 
z
" style="fill:#1f77b4;"/>
   </g>
   <g id="patch_148">
    <path clip-path="url(#pa81805bc24)" d="M 237.81387 288.430125 
L 238.868099 288.430125 
L 238.868099 249.08099 
L 237.81387 249.08099 
z
" style="fill:#1f77b4;"/>
   </g>
   <g id="patch_149">
    <path clip-path="url(#pa81805bc24)" d="M 239.131656 288.430125 
L 240.185885 288.430125 
L 240.185885 249.229871 
L 239.131656 249.229871 
z
" style="fill:#1f77b4;"/>
   </g>
   <g id="patch_150">
    <path clip-path="url(#pa81805bc24)" d="M 240.449442 288.430125 
L 241.503671 288.430125 
L 241.503671 249.259512 
L 240.449442 249.259512 
z
" style="fill:#1f77b4;"/>
   </g>
   <g id="patch_151">
    <path clip-path="url(#pa81805bc24)" d="M 241.767228 288.430125 
L 242.821457 288.430125 
L 242.821457 249.274315 
L 241.767228 249.274315 
z
" style="fill:#1f77b4;"/>
   </g>
   <g id="patch_152">
    <path clip-path="url(#pa81805bc24)" d="M 243.085014 288.430125 
L 244.139243 288.430125 
L 244.139243 249.289108 
L 243.085014 249.289108 
z
" style="fill:#1f77b4;"/>
   </g>
   <g id="patch_153">
    <path clip-path="url(#pa81805bc24)" d="M 244.4028 288.430125 
L 245.457029 288.430125 
L 245.457029 249.31866 
L 244.4028 249.31866 
z
" style="fill:#1f77b4;"/>
   </g>
   <g id="patch_154">
    <path clip-path="url(#pa81805bc24)" d="M 245.720586 288.430125 
L 246.774815 288.430125 
L 246.774815 249.46575 
L 245.720586 249.46575 
z
" style="fill:#1f77b4;"/>
   </g>
   <g id="patch_155">
    <path clip-path="url(#pa81805bc24)" d="M 247.038372 288.430125 
L 248.092601 288.430125 
L 248.092601 249.495036 
L 247.038372 249.495036 
z
" style="fill:#1f77b4;"/>
   </g>
   <g id="patch_156">
    <path clip-path="url(#pa81805bc24)" d="M 248.356158 288.430125 
L 249.410387 288.430125 
L 249.410387 249.582629 
L 248.356158 249.582629 
z
" style="fill:#1f77b4;"/>
   </g>
   <g id="patch_157">
    <path clip-path="url(#pa81805bc24)" d="M 249.673944 288.430125 
L 250.728173 288.430125 
L 250.728173 249.669829 
L 249.673944 249.669829 
z
" style="fill:#1f77b4;"/>
   </g>
   <g id="patch_158">
    <path clip-path="url(#pa81805bc24)" d="M 250.99173 288.430125 
L 252.045959 288.430125 
L 252.045959 249.727745 
L 250.99173 249.727745 
z
" style="fill:#1f77b4;"/>
   </g>
   <g id="patch_159">
    <path clip-path="url(#pa81805bc24)" d="M 252.309516 288.430125 
L 253.363745 288.430125 
L 253.363745 249.727745 
L 252.309516 249.727745 
z
" style="fill:#1f77b4;"/>
   </g>
   <g id="patch_160">
    <path clip-path="url(#pa81805bc24)" d="M 253.627302 288.430125 
L 254.681531 288.430125 
L 254.681531 249.900459 
L 253.627302 249.900459 
z
" style="fill:#1f77b4;"/>
   </g>
   <g id="patch_161">
    <path clip-path="url(#pa81805bc24)" d="M 254.945088 288.430125 
L 255.999317 288.430125 
L 255.999317 249.957688 
L 254.945088 249.957688 
z
" style="fill:#1f77b4;"/>
   </g>
   <g id="patch_162">
    <path clip-path="url(#pa81805bc24)" d="M 256.262874 288.430125 
L 257.317103 288.430125 
L 257.317103 250.000499 
L 256.262874 250.000499 
z
" style="fill:#1f77b4;"/>
   </g>
   <g id="patch_163">
    <path clip-path="url(#pa81805bc24)" d="M 257.58066 288.430125 
L 258.634889 288.430125 
L 258.634889 250.213131 
L 257.58066 250.213131 
z
" style="fill:#1f77b4;"/>
   </g>
   <g id="patch_164">
    <path clip-path="url(#pa81805bc24)" d="M 258.898446 288.430125 
L 259.952675 288.430125 
L 259.952675 250.227222 
L 258.898446 250.227222 
z
" style="fill:#1f77b4;"/>
   </g>
   <g id="patch_165">
    <path clip-path="url(#pa81805bc24)" d="M 260.216232 288.430125 
L 261.270461 288.430125 
L 261.270461 250.227222 
L 260.216232 250.227222 
z
" style="fill:#1f77b4;"/>
   </g>
   <g id="patch_166">
    <path clip-path="url(#pa81805bc24)" d="M 261.534018 288.430125 
L 262.588247 288.430125 
L 262.588247 250.516846 
L 261.534018 250.516846 
z
" style="fill:#1f77b4;"/>
   </g>
   <g id="patch_167">
    <path clip-path="url(#pa81805bc24)" d="M 262.851804 288.430125 
L 263.906033 288.430125 
L 263.906033 250.339584 
L 262.851804 250.339584 
z
" style="fill:#1f77b4;"/>
   </g>
   <g id="patch_168">
    <path clip-path="url(#pa81805bc24)" d="M 264.16959 288.430125 
L 265.223819 288.430125 
L 265.223819 250.367571 
L 264.16959 250.367571 
z
" style="fill:#1f77b4;"/>
   </g>
   <g id="patch_169">
    <path clip-path="url(#pa81805bc24)" d="M 265.487376 288.430125 
L 266.541605 288.430125 
L 266.541605 250.423422 
L 265.487376 250.423422 
z
" style="fill:#1f77b4;"/>
   </g>
   <g id="patch_170">
    <path clip-path="url(#pa81805bc24)" d="M 266.805162 288.430125 
L 267.859391 288.430125 
L 267.859391 250.534634 
L 266.805162 250.534634 
z
" style="fill:#1f77b4;"/>
   </g>
   <g id="patch_171">
    <path clip-path="url(#pa81805bc24)" d="M 268.122948 288.430125 
L 269.177177 288.430125 
L 269.177177 250.645197 
L 268.122948 250.645197 
z
" style="fill:#1f77b4;"/>
   </g>
   <g id="patch_172">
    <path clip-path="url(#pa81805bc24)" d="M 269.440734 288.430125 
L 270.494963 288.430125 
L 270.494963 250.686492 
L 269.440734 250.686492 
z
" style="fill:#1f77b4;"/>
   </g>
   <g id="patch_173">
    <path clip-path="url(#pa81805bc24)" d="M 270.75852 288.430125 
L 271.812749 288.430125 
L 271.812749 250.713972 
L 270.75852 250.713972 
z
" style="fill:#1f77b4;"/>
   </g>
   <g id="patch_174">
    <path clip-path="url(#pa81805bc24)" d="M 272.076306 288.430125 
L 273.130535 288.430125 
L 273.130535 250.782497 
L 272.076306 250.782497 
z
" style="fill:#1f77b4;"/>
   </g>
   <g id="patch_175">
    <path clip-path="url(#pa81805bc24)" d="M 273.394092 288.430125 
L 274.448321 288.430125 
L 274.448321 250.837138 
L 273.394092 250.837138 
z
" style="fill:#1f77b4;"/>
   </g>
   <g id="patch_176">
    <path clip-path="url(#pa81805bc24)" d="M 274.711878 288.430125 
L 275.766107 288.430125 
L 275.766107 250.945946 
L 274.711878 250.945946 
z
" style="fill:#1f77b4;"/>
   </g>
   <g id="patch_177">
    <path clip-path="url(#pa81805bc24)" d="M 276.029664 288.430125 
L 277.083893 288.430125 
L 277.083893 251.134851 
L 276.029664 251.134851 
z
" style="fill:#1f77b4;"/>
   </g>
   <g id="patch_178">
    <path clip-path="url(#pa81805bc24)" d="M 277.34745 288.430125 
L 278.401679 288.430125 
L 278.401679 251.228591 
L 277.34745 251.228591 
z
" style="fill:#1f77b4;"/>
   </g>
   <g id="patch_179">
    <path clip-path="url(#pa81805bc24)" d="M 278.665236 288.430125 
L 279.719464 288.430125 
L 279.719464 251.268621 
L 278.665236 251.268621 
z
" style="fill:#1f77b4;"/>
   </g>
   <g id="patch_180">
    <path clip-path="url(#pa81805bc24)" d="M 279.983022 288.430125 
L 281.03725 288.430125 
L 281.03725 251.281946 
L 279.983022 251.281946 
z
" style="fill:#1f77b4;"/>
   </g>
   <g id="patch_181">
    <path clip-path="url(#pa81805bc24)" d="M 281.300808 288.430125 
L 282.355036 288.430125 
L 282.355036 251.348424 
L 281.300808 251.348424 
z
" style="fill:#1f77b4;"/>
   </g>
   <g id="patch_182">
    <path clip-path="url(#pa81805bc24)" d="M 282.618594 288.430125 
L 283.672822 288.430125 
L 283.672822 251.401436 
L 282.618594 251.401436 
z
" style="fill:#1f77b4;"/>
   </g>
   <g id="patch_183">
    <path clip-path="url(#pa81805bc24)" d="M 283.93638 288.430125 
L 284.990608 288.430125 
L 284.990608 251.533304 
L 283.93638 251.533304 
z
" style="fill:#1f77b4;"/>
   </g>
   <g id="patch_184">
    <path clip-path="url(#pa81805bc24)" d="M 285.254166 288.430125 
L 286.308394 288.430125 
L 286.308394 251.71635 
L 285.254166 251.71635 
z
" style="fill:#1f77b4;"/>
   </g>
   <g id="patch_185">
    <path clip-path="url(#pa81805bc24)" d="M 286.571952 288.430125 
L 287.62618 288.430125 
L 287.62618 251.845989 
L 286.571952 251.845989 
z
" style="fill:#1f77b4;"/>
   </g>
   <g id="patch_186">
    <path clip-path="url(#pa81805bc24)" d="M 287.889738 288.430125 
L 288.943966 288.430125 
L 288.943966 251.845989 
L 287.889738 251.845989 
z
" style="fill:#1f77b4;"/>
   </g>
   <g id="patch_187">
    <path clip-path="url(#pa81805bc24)" d="M 289.207524 288.430125 
L 290.261752 288.430125 
L 290.261752 251.897589 
L 289.207524 251.897589 
z
" style="fill:#1f77b4;"/>
   </g>
   <g id="patch_188">
    <path clip-path="url(#pa81805bc24)" d="M 290.52531 288.430125 
L 291.579538 288.430125 
L 291.579538 252.013158 
L 290.52531 252.013158 
z
" style="fill:#1f77b4;"/>
   </g>
   <g id="patch_189">
    <path clip-path="url(#pa81805bc24)" d="M 291.843095 288.430125 
L 292.897324 288.430125 
L 292.897324 252.166117 
L 291.843095 252.166117 
z
" style="fill:#1f77b4;"/>
   </g>
   <g id="patch_190">
    <path clip-path="url(#pa81805bc24)" d="M 293.160881 288.430125 
L 294.21511 288.430125 
L 294.21511 252.330379 
L 293.160881 252.330379 
z
" style="fill:#1f77b4;"/>
   </g>
   <g id="patch_191">
    <path clip-path="url(#pa81805bc24)" d="M 294.478667 288.430125 
L 295.532896 288.430125 
L 295.532896 252.405691 
L 294.478667 252.405691 
z
" style="fill:#1f77b4;"/>
   </g>
   <g id="patch_192">
    <path clip-path="url(#pa81805bc24)" d="M 295.796453 288.430125 
L 296.850682 288.430125 
L 296.850682 252.44323 
L 295.796453 252.44323 
z
" style="fill:#1f77b4;"/>
   </g>
   <g id="patch_193">
    <path clip-path="url(#pa81805bc24)" d="M 297.114239 288.430125 
L 298.168468 288.430125 
L 298.168468 252.468212 
L 297.114239 252.468212 
z
" style="fill:#1f77b4;"/>
   </g>
   <g id="patch_194">
    <path clip-path="url(#pa81805bc24)" d="M 298.432025 288.430125 
L 299.486254 288.430125 
L 299.486254 252.468212 
L 298.432025 252.468212 
z
" style="fill:#1f77b4;"/>
   </g>
   <g id="patch_195">
    <path clip-path="url(#pa81805bc24)" d="M 299.749811 288.430125 
L 300.80404 288.430125 
L 300.80404 252.580204 
L 299.749811 252.580204 
z
" style="fill:#1f77b4;"/>
   </g>
   <g id="patch_196">
    <path clip-path="url(#pa81805bc24)" d="M 301.067597 288.430125 
L 302.121826 288.430125 
L 302.121826 252.716139 
L 301.067597 252.716139 
z
" style="fill:#1f77b4;"/>
   </g>
   <g id="patch_197">
    <path clip-path="url(#pa81805bc24)" d="M 302.385383 288.430125 
L 303.439612 288.430125 
L 303.439612 252.997063 
L 302.385383 252.997063 
z
" style="fill:#1f77b4;"/>
   </g>
   <g id="patch_198">
    <path clip-path="url(#pa81805bc24)" d="M 303.703169 288.430125 
L 304.757398 288.430125 
L 304.757398 253.03338 
L 303.703169 253.03338 
z
" style="fill:#1f77b4;"/>
   </g>
   <g id="patch_199">
    <path clip-path="url(#pa81805bc24)" d="M 305.020955 288.430125 
L 306.075184 288.430125 
L 306.075184 253.213853 
L 305.020955 253.213853 
z
" style="fill:#1f77b4;"/>
   </g>
   <g id="patch_200">
    <path clip-path="url(#pa81805bc24)" d="M 306.338741 288.430125 
L 307.39297 288.430125 
L 307.39297 253.356912 
L 306.338741 253.356912 
z
" style="fill:#1f77b4;"/>
   </g>
   <g id="patch_201">
    <path clip-path="url(#pa81805bc24)" d="M 307.656527 288.430125 
L 308.710756 288.430125 
L 308.710756 253.380642 
L 307.656527 253.380642 
z
" style="fill:#1f77b4;"/>
   </g>
   <g id="patch_202">
    <path clip-path="url(#pa81805bc24)" d="M 308.974313 288.430125 
L 310.028542 288.430125 
L 310.028542 253.63957 
L 308.974313 253.63957 
z
" style="fill:#1f77b4;"/>
   </g>
   <g id="patch_203">
    <path clip-path="url(#pa81805bc24)" d="M 310.292099 288.430125 
L 311.346328 288.430125 
L 311.346328 253.73278 
L 310.292099 253.73278 
z
" style="fill:#1f77b4;"/>
   </g>
   <g id="patch_204">
    <path clip-path="url(#pa81805bc24)" d="M 311.609885 288.430125 
L 312.664114 288.430125 
L 312.664114 253.917709 
L 311.609885 253.917709 
z
" style="fill:#1f77b4;"/>
   </g>
   <g id="patch_205">
    <path clip-path="url(#pa81805bc24)" d="M 312.927671 288.430125 
L 313.9819 288.430125 
L 313.9819 253.997997 
L 312.927671 253.997997 
z
" style="fill:#1f77b4;"/>
   </g>
   <g id="patch_206">
    <path clip-path="url(#pa81805bc24)" d="M 314.245457 288.430125 
L 315.299686 288.430125 
L 315.299686 254.225347 
L 314.245457 254.225347 
z
" style="fill:#1f77b4;"/>
   </g>
   <g id="patch_207">
    <path clip-path="url(#pa81805bc24)" d="M 315.563243 288.430125 
L 316.617472 288.430125 
L 316.617472 254.292968 
L 315.563243 254.292968 
z
" style="fill:#1f77b4;"/>
   </g>
   <g id="patch_208">
    <path clip-path="url(#pa81805bc24)" d="M 316.881029 288.430125 
L 317.935258 288.430125 
L 317.935258 254.449714 
L 316.881029 254.449714 
z
" style="fill:#1f77b4;"/>
   </g>
   <g id="patch_209">
    <path clip-path="url(#pa81805bc24)" d="M 318.198815 288.430125 
L 319.253044 288.430125 
L 319.253044 254.649143 
L 318.198815 254.649143 
z
" style="fill:#1f77b4;"/>
   </g>
   <g id="patch_210">
    <path clip-path="url(#pa81805bc24)" d="M 319.516601 288.430125 
L 320.57083 288.430125 
L 320.57083 254.758928 
L 319.516601 254.758928 
z
" style="fill:#1f77b4;"/>
   </g>
   <g id="patch_211">
    <path clip-path="url(#pa81805bc24)" d="M 320.834387 288.430125 
L 321.888616 288.430125 
L 321.888616 254.911435 
L 320.834387 254.911435 
z
" style="fill:#1f77b4;"/>
   </g>
   <g id="patch_212">
    <path clip-path="url(#pa81805bc24)" d="M 322.152173 288.430125 
L 323.206402 288.430125 
L 323.206402 255.084045 
L 322.152173 255.084045 
z
" style="fill:#1f77b4;"/>
   </g>
   <g id="patch_213">
    <path clip-path="url(#pa81805bc24)" d="M 323.469959 288.430125 
L 324.524188 288.430125 
L 324.524188 255.151928 
L 323.469959 255.151928 
z
" style="fill:#1f77b4;"/>
   </g>
   <g id="patch_214">
    <path clip-path="url(#pa81805bc24)" d="M 324.787745 288.430125 
L 325.841974 288.430125 
L 325.841974 255.279268 
L 324.787745 255.279268 
z
" style="fill:#1f77b4;"/>
   </g>
   <g id="patch_215">
    <path clip-path="url(#pa81805bc24)" d="M 326.105531 288.430125 
L 327.15976 288.430125 
L 327.15976 255.416124 
L 326.105531 255.416124 
z
" style="fill:#1f77b4;"/>
   </g>
   <g id="patch_216">
    <path clip-path="url(#pa81805bc24)" d="M 327.423317 288.430125 
L 328.477546 288.430125 
L 328.477546 255.416124 
L 327.423317 255.416124 
z
" style="fill:#1f77b4;"/>
   </g>
   <g id="patch_217">
    <path clip-path="url(#pa81805bc24)" d="M 328.741103 288.430125 
L 329.795332 288.430125 
L 329.795332 255.655507 
L 328.741103 255.655507 
z
" style="fill:#1f77b4;"/>
   </g>
   <g id="patch_218">
    <path clip-path="url(#pa81805bc24)" d="M 330.058889 288.430125 
L 331.113118 288.430125 
L 331.113118 255.840442 
L 330.058889 255.840442 
z
" style="fill:#1f77b4;"/>
   </g>
   <g id="patch_219">
    <path clip-path="url(#pa81805bc24)" d="M 331.376675 288.430125 
L 332.430904 288.430125 
L 332.430904 255.982844 
L 331.376675 255.982844 
z
" style="fill:#1f77b4;"/>
   </g>
   <g id="patch_220">
    <path clip-path="url(#pa81805bc24)" d="M 332.694461 288.430125 
L 333.74869 288.430125 
L 333.74869 256.063659 
L 332.694461 256.063659 
z
" style="fill:#1f77b4;"/>
   </g>
   <g id="patch_221">
    <path clip-path="url(#pa81805bc24)" d="M 334.012247 288.430125 
L 335.066476 288.430125 
L 335.066476 255.973403 
L 334.012247 255.973403 
z
" style="fill:#1f77b4;"/>
   </g>
   <g id="patch_222">
    <path clip-path="url(#pa81805bc24)" d="M 335.330033 288.430125 
L 336.384262 288.430125 
L 336.384262 256.013747 
L 335.330033 256.013747 
z
" style="fill:#1f77b4;"/>
   </g>
   <g id="patch_223">
    <path clip-path="url(#pa81805bc24)" d="M 336.647819 288.430125 
L 337.702048 288.430125 
L 337.702048 255.833745 
L 336.647819 255.833745 
z
" style="fill:#1f77b4;"/>
   </g>
   <g id="patch_224">
    <path clip-path="url(#pa81805bc24)" d="M 337.965605 288.430125 
L 339.019833 288.430125 
L 339.019833 255.924543 
L 337.965605 255.924543 
z
" style="fill:#1f77b4;"/>
   </g>
   <g id="patch_225">
    <path clip-path="url(#pa81805bc24)" d="M 339.283391 288.430125 
L 340.337619 288.430125 
L 340.337619 255.974768 
L 339.283391 255.974768 
z
" style="fill:#1f77b4;"/>
   </g>
   <g id="patch_226">
    <path clip-path="url(#pa81805bc24)" d="M 340.601177 288.430125 
L 341.655405 288.430125 
L 341.655405 256.004828 
L 340.601177 256.004828 
z
" style="fill:#1f77b4;"/>
   </g>
   <g id="patch_227">
    <path clip-path="url(#pa81805bc24)" d="M 341.918963 288.430125 
L 342.973191 288.430125 
L 342.973191 256.084718 
L 341.918963 256.084718 
z
" style="fill:#1f77b4;"/>
   </g>
   <g id="patch_228">
    <path clip-path="url(#pa81805bc24)" d="M 343.236749 288.430125 
L 344.290977 288.430125 
L 344.290977 255.82718 
L 343.236749 255.82718 
z
" style="fill:#1f77b4;"/>
   </g>
   <g id="patch_229">
    <path clip-path="url(#pa81805bc24)" d="M 344.554535 288.430125 
L 345.608763 288.430125 
L 345.608763 255.768327 
L 344.554535 255.768327 
z
" style="fill:#1f77b4;"/>
   </g>
   <g id="patch_230">
    <path clip-path="url(#pa81805bc24)" d="M 345.872321 288.430125 
L 346.926549 288.430125 
L 346.926549 255.403773 
L 345.872321 255.403773 
z
" style="fill:#1f77b4;"/>
   </g>
   <g id="patch_231">
    <path clip-path="url(#pa81805bc24)" d="M 347.190107 288.430125 
L 348.244335 288.430125 
L 348.244335 255.20684 
L 347.190107 255.20684 
z
" style="fill:#1f77b4;"/>
   </g>
   <g id="patch_232">
    <path clip-path="url(#pa81805bc24)" d="M 348.507893 288.430125 
L 349.562121 288.430125 
L 349.562121 255.050978 
L 348.507893 255.050978 
z
" style="fill:#1f77b4;"/>
   </g>
   <g id="patch_233">
    <path clip-path="url(#pa81805bc24)" d="M 349.825679 288.430125 
L 350.879907 288.430125 
L 350.879907 254.699902 
L 349.825679 254.699902 
z
" style="fill:#1f77b4;"/>
   </g>
   <g id="patch_234">
    <path clip-path="url(#pa81805bc24)" d="M 351.143464 288.430125 
L 352.197693 288.430125 
L 352.197693 254.406673 
L 351.143464 254.406673 
z
" style="fill:#1f77b4;"/>
   </g>
   <g id="patch_235">
    <path clip-path="url(#pa81805bc24)" d="M 352.46125 288.430125 
L 353.515479 288.430125 
L 353.515479 254.058335 
L 352.46125 254.058335 
z
" style="fill:#1f77b4;"/>
   </g>
   <g id="patch_236">
    <path clip-path="url(#pa81805bc24)" d="M 353.779036 288.430125 
L 354.833265 288.430125 
L 354.833265 253.98197 
L 353.779036 253.98197 
z
" style="fill:#1f77b4;"/>
   </g>
   <g id="patch_237">
    <path clip-path="url(#pa81805bc24)" d="M 355.096822 288.430125 
L 356.151051 288.430125 
L 356.151051 253.819173 
L 355.096822 253.819173 
z
" style="fill:#1f77b4;"/>
   </g>
   <g id="patch_238">
    <path clip-path="url(#pa81805bc24)" d="M 356.414608 288.430125 
L 357.468837 288.430125 
L 357.468837 253.495055 
L 356.414608 253.495055 
z
" style="fill:#1f77b4;"/>
   </g>
   <g id="patch_239">
    <path clip-path="url(#pa81805bc24)" d="M 357.732394 288.430125 
L 358.786623 288.430125 
L 358.786623 262.559758 
L 357.732394 262.559758 
z
" style="fill:#1f77b4;"/>
   </g>
   <g id="patch_240">
    <path clip-path="url(#pa81805bc24)" d="M 359.05018 288.430125 
L 360.104409 288.430125 
L 360.104409 263.851915 
L 359.05018 263.851915 
z
" style="fill:#1f77b4;"/>
   </g>
   <g id="patch_241">
    <path clip-path="url(#pa81805bc24)" d="M 360.367966 288.430125 
L 361.422195 288.430125 
L 361.422195 264.886195 
L 360.367966 264.886195 
z
" style="fill:#1f77b4;"/>
   </g>
   <g id="patch_242">
    <path clip-path="url(#pa81805bc24)" d="M 361.685752 288.430125 
L 362.739981 288.430125 
L 362.739981 265.311802 
L 361.685752 265.311802 
z
" style="fill:#1f77b4;"/>
   </g>
   <g id="patch_243">
    <path clip-path="url(#pa81805bc24)" d="M 363.003538 288.430125 
L 364.057767 288.430125 
L 364.057767 265.521879 
L 363.003538 265.521879 
z
" style="fill:#1f77b4;"/>
   </g>
   <g id="patch_244">
    <path clip-path="url(#pa81805bc24)" d="M 364.321324 288.430125 
L 365.375553 288.430125 
L 365.375553 265.622794 
L 364.321324 265.622794 
z
" style="fill:#1f77b4;"/>
   </g>
   <g id="patch_245">
    <path clip-path="url(#pa81805bc24)" d="M 365.63911 288.430125 
L 366.693339 288.430125 
L 366.693339 266.587008 
L 365.63911 266.587008 
z
" style="fill:#1f77b4;"/>
   </g>
   <g id="patch_246">
    <path clip-path="url(#pa81805bc24)" d="M 366.956896 288.430125 
L 368.011125 288.430125 
L 368.011125 267.265662 
L 366.956896 267.265662 
z
" style="fill:#1f77b4;"/>
   </g>
   <g id="patch_247">
    <path clip-path="url(#pa81805bc24)" d="M 368.274682 288.430125 
L 369.328911 288.430125 
L 369.328911 268.101287 
L 368.274682 268.101287 
z
" style="fill:#1f77b4;"/>
   </g>
   <g id="patch_248">
    <path clip-path="url(#pa81805bc24)" d="M 369.592468 288.430125 
L 370.646697 288.430125 
L 370.646697 268.290826 
L 369.592468 268.290826 
z
" style="fill:#1f77b4;"/>
   </g>
   <g id="patch_249">
    <path clip-path="url(#pa81805bc24)" d="M 370.910254 288.430125 
L 371.964483 288.430125 
L 371.964483 268.685624 
L 370.910254 268.685624 
z
" style="fill:#1f77b4;"/>
   </g>
   <g id="patch_250">
    <path clip-path="url(#pa81805bc24)" d="M 372.22804 288.430125 
L 373.282269 288.430125 
L 373.282269 268.587652 
L 372.22804 268.587652 
z
" style="fill:#1f77b4;"/>
   </g>
   <g id="patch_251">
    <path clip-path="url(#pa81805bc24)" d="M 373.545826 288.430125 
L 374.600055 288.430125 
L 374.600055 269.057463 
L 373.545826 269.057463 
z
" style="fill:#1f77b4;"/>
   </g>
   <g id="patch_252">
    <path clip-path="url(#pa81805bc24)" d="M 374.863612 288.430125 
L 375.917841 288.430125 
L 375.917841 269.42445 
L 374.863612 269.42445 
z
" style="fill:#1f77b4;"/>
   </g>
   <g id="patch_253">
    <path clip-path="url(#pa81805bc24)" d="M 376.181398 288.430125 
L 377.235627 288.430125 
L 377.235627 270.042031 
L 376.181398 270.042031 
z
" style="fill:#1f77b4;"/>
   </g>
   <g id="patch_254">
    <path clip-path="url(#pa81805bc24)" d="M 377.499184 288.430125 
L 378.553413 288.430125 
L 378.553413 270.195977 
L 377.499184 270.195977 
z
" style="fill:#1f77b4;"/>
   </g>
   <g id="patch_255">
    <path clip-path="url(#pa81805bc24)" d="M 378.81697 288.430125 
L 379.871199 288.430125 
L 379.871199 271.052441 
L 378.81697 271.052441 
z
" style="fill:#1f77b4;"/>
   </g>
   <g id="patch_256">
    <path clip-path="url(#pa81805bc24)" d="M 380.134756 288.430125 
L 381.188985 288.430125 
L 381.188985 271.347059 
L 380.134756 271.347059 
z
" style="fill:#1f77b4;"/>
   </g>
   <g id="patch_257">
    <path clip-path="url(#pa81805bc24)" d="M 381.452542 288.430125 
L 382.506771 288.430125 
L 382.506771 270.981325 
L 381.452542 270.981325 
z
" style="fill:#1f77b4;"/>
   </g>
   <g id="patch_258">
    <path clip-path="url(#pa81805bc24)" d="M 382.770328 288.430125 
L 383.824557 288.430125 
L 383.824557 271.375944 
L 382.770328 271.375944 
z
" style="fill:#1f77b4;"/>
   </g>
   <g id="patch_259">
    <path clip-path="url(#pa81805bc24)" d="M 384.088114 288.430125 
L 385.142343 288.430125 
L 385.142343 271.712422 
L 384.088114 271.712422 
z
" style="fill:#1f77b4;"/>
   </g>
   <g id="patch_260">
    <path clip-path="url(#pa81805bc24)" d="M 385.4059 288.430125 
L 386.460129 288.430125 
L 386.460129 271.927055 
L 385.4059 271.927055 
z
" style="fill:#1f77b4;"/>
   </g>
   <g id="patch_261">
    <path clip-path="url(#pa81805bc24)" d="M 386.723686 288.430125 
L 387.777915 288.430125 
L 387.777915 272.431438 
L 386.723686 272.431438 
z
" style="fill:#1f77b4;"/>
   </g>
   <g id="patch_262">
    <path clip-path="url(#pa81805bc24)" d="M 388.041472 288.430125 
L 389.095701 288.430125 
L 389.095701 273.087669 
L 388.041472 273.087669 
z
" style="fill:#1f77b4;"/>
   </g>
   <g id="patch_263">
    <path clip-path="url(#pa81805bc24)" d="M 389.359258 288.430125 
L 390.413487 288.430125 
L 390.413487 273.303084 
L 389.359258 273.303084 
z
" style="fill:#1f77b4;"/>
   </g>
   <g id="patch_264">
    <path clip-path="url(#pa81805bc24)" d="M 390.677044 288.430125 
L 391.731273 288.430125 
L 391.731273 273.332172 
L 390.677044 273.332172 
z
" style="fill:#1f77b4;"/>
   </g>
   <g id="patch_265">
    <path clip-path="url(#pa81805bc24)" d="M 391.99483 288.430125 
L 393.049059 288.430125 
L 393.049059 273.47482 
L 391.99483 273.47482 
z
" style="fill:#1f77b4;"/>
   </g>
   <g id="patch_266">
    <path clip-path="url(#pa81805bc24)" d="M 393.312616 288.430125 
L 394.366845 288.430125 
L 394.366845 273.59628 
L 393.312616 273.59628 
z
" style="fill:#1f77b4;"/>
   </g>
   <g id="patch_267">
    <path clip-path="url(#pa81805bc24)" d="M 394.630402 288.430125 
L 395.684631 288.430125 
L 395.684631 273.651536 
L 394.630402 273.651536 
z
" style="fill:#1f77b4;"/>
   </g>
   <g id="patch_268">
    <path clip-path="url(#pa81805bc24)" d="M 395.948188 288.430125 
L 397.002417 288.430125 
L 397.002417 273.934392 
L 395.948188 273.934392 
z
" style="fill:#1f77b4;"/>
   </g>
   <g id="patch_269">
    <path clip-path="url(#pa81805bc24)" d="M 397.265974 288.430125 
L 398.320202 288.430125 
L 398.320202 274.227656 
L 397.265974 274.227656 
z
" style="fill:#1f77b4;"/>
   </g>
   <g id="patch_270">
    <path clip-path="url(#pa81805bc24)" d="M 398.58376 288.430125 
L 399.637988 288.430125 
L 399.637988 274.221888 
L 398.58376 274.221888 
z
" style="fill:#1f77b4;"/>
   </g>
   <g id="patch_271">
    <path clip-path="url(#pa81805bc24)" d="M 399.901546 288.430125 
L 400.955774 288.430125 
L 400.955774 274.065301 
L 399.901546 274.065301 
z
" style="fill:#1f77b4;"/>
   </g>
   <g id="patch_272">
    <path clip-path="url(#pa81805bc24)" d="M 401.219332 288.430125 
L 402.27356 288.430125 
L 402.27356 274.049875 
L 401.219332 274.049875 
z
" style="fill:#1f77b4;"/>
   </g>
   <g id="patch_273">
    <path clip-path="url(#pa81805bc24)" d="M 402.537118 288.430125 
L 403.591346 288.430125 
L 403.591346 274.246755 
L 402.537118 274.246755 
z
" style="fill:#1f77b4;"/>
   </g>
   <g id="matplotlib.axis_1">
    <g id="xtick_1">
     <g id="line2d_1">
      <defs>
       <path d="M 0 0 
L 0 3.5 
" id="mbbf2c4acf5" style="stroke:#000000;stroke-width:0.8;"/>
      </defs>
      <g>
       <use style="stroke:#000000;stroke-width:0.8;" x="69.66438" xlink:href="#mbbf2c4acf5" y="288.430125"/>
      </g>
     </g>
     <g id="text_1">
      <!-- 2020-04 -->
      <g transform="translate(72.423755 337.212937)rotate(-90)scale(0.1 -0.1)">
       <defs>
        <path d="M 19.1875 8.296875 
L 53.609375 8.296875 
L 53.609375 0 
L 7.328125 0 
L 7.328125 8.296875 
Q 12.9375 14.109375 22.625 23.890625 
Q 32.328125 33.6875 34.8125 36.53125 
Q 39.546875 41.84375 41.421875 45.53125 
Q 43.3125 49.21875 43.3125 52.78125 
Q 43.3125 58.59375 39.234375 62.25 
Q 35.15625 65.921875 28.609375 65.921875 
Q 23.96875 65.921875 18.8125 64.3125 
Q 13.671875 62.703125 7.8125 59.421875 
L 7.8125 69.390625 
Q 13.765625 71.78125 18.9375 73 
Q 24.125 74.21875 28.421875 74.21875 
Q 39.75 74.21875 46.484375 68.546875 
Q 53.21875 62.890625 53.21875 53.421875 
Q 53.21875 48.921875 51.53125 44.890625 
Q 49.859375 40.875 45.40625 35.40625 
Q 44.1875 33.984375 37.640625 27.21875 
Q 31.109375 20.453125 19.1875 8.296875 
z
" id="DejaVuSans-50"/>
        <path d="M 31.78125 66.40625 
Q 24.171875 66.40625 20.328125 58.90625 
Q 16.5 51.421875 16.5 36.375 
Q 16.5 21.390625 20.328125 13.890625 
Q 24.171875 6.390625 31.78125 6.390625 
Q 39.453125 6.390625 43.28125 13.890625 
Q 47.125 21.390625 47.125 36.375 
Q 47.125 51.421875 43.28125 58.90625 
Q 39.453125 66.40625 31.78125 66.40625 
z
M 31.78125 74.21875 
Q 44.046875 74.21875 50.515625 64.515625 
Q 56.984375 54.828125 56.984375 36.375 
Q 56.984375 17.96875 50.515625 8.265625 
Q 44.046875 -1.421875 31.78125 -1.421875 
Q 19.53125 -1.421875 13.0625 8.265625 
Q 6.59375 17.96875 6.59375 36.375 
Q 6.59375 54.828125 13.0625 64.515625 
Q 19.53125 74.21875 31.78125 74.21875 
z
" id="DejaVuSans-48"/>
        <path d="M 4.890625 31.390625 
L 31.203125 31.390625 
L 31.203125 23.390625 
L 4.890625 23.390625 
z
" id="DejaVuSans-45"/>
        <path d="M 37.796875 64.3125 
L 12.890625 25.390625 
L 37.796875 25.390625 
z
M 35.203125 72.90625 
L 47.609375 72.90625 
L 47.609375 25.390625 
L 58.015625 25.390625 
L 58.015625 17.1875 
L 47.609375 17.1875 
L 47.609375 0 
L 37.796875 0 
L 37.796875 17.1875 
L 4.890625 17.1875 
L 4.890625 26.703125 
z
" id="DejaVuSans-52"/>
       </defs>
       <use xlink:href="#DejaVuSans-50"/>
       <use x="63.623047" xlink:href="#DejaVuSans-48"/>
       <use x="127.246094" xlink:href="#DejaVuSans-50"/>
       <use x="190.869141" xlink:href="#DejaVuSans-48"/>
       <use x="254.492188" xlink:href="#DejaVuSans-45"/>
       <use x="290.576172" xlink:href="#DejaVuSans-48"/>
       <use x="354.199219" xlink:href="#DejaVuSans-52"/>
      </g>
     </g>
    </g>
    <g id="xtick_2">
     <g id="line2d_2">
      <g>
       <use style="stroke:#000000;stroke-width:0.8;" x="109.197959" xlink:href="#mbbf2c4acf5" y="288.430125"/>
      </g>
     </g>
     <g id="text_2">
      <!-- 2020-05 -->
      <g transform="translate(111.957334 337.212937)rotate(-90)scale(0.1 -0.1)">
       <defs>
        <path d="M 10.796875 72.90625 
L 49.515625 72.90625 
L 49.515625 64.59375 
L 19.828125 64.59375 
L 19.828125 46.734375 
Q 21.96875 47.46875 24.109375 47.828125 
Q 26.265625 48.1875 28.421875 48.1875 
Q 40.625 48.1875 47.75 41.5 
Q 54.890625 34.8125 54.890625 23.390625 
Q 54.890625 11.625 47.5625 5.09375 
Q 40.234375 -1.421875 26.90625 -1.421875 
Q 22.3125 -1.421875 17.546875 -0.640625 
Q 12.796875 0.140625 7.71875 1.703125 
L 7.71875 11.625 
Q 12.109375 9.234375 16.796875 8.0625 
Q 21.484375 6.890625 26.703125 6.890625 
Q 35.15625 6.890625 40.078125 11.328125 
Q 45.015625 15.765625 45.015625 23.390625 
Q 45.015625 31 40.078125 35.4375 
Q 35.15625 39.890625 26.703125 39.890625 
Q 22.75 39.890625 18.8125 39.015625 
Q 14.890625 38.140625 10.796875 36.28125 
z
" id="DejaVuSans-53"/>
       </defs>
       <use xlink:href="#DejaVuSans-50"/>
       <use x="63.623047" xlink:href="#DejaVuSans-48"/>
       <use x="127.246094" xlink:href="#DejaVuSans-50"/>
       <use x="190.869141" xlink:href="#DejaVuSans-48"/>
       <use x="254.492188" xlink:href="#DejaVuSans-45"/>
       <use x="290.576172" xlink:href="#DejaVuSans-48"/>
       <use x="354.199219" xlink:href="#DejaVuSans-53"/>
      </g>
     </g>
    </g>
    <g id="xtick_3">
     <g id="line2d_3">
      <g>
       <use style="stroke:#000000;stroke-width:0.8;" x="150.049324" xlink:href="#mbbf2c4acf5" y="288.430125"/>
      </g>
     </g>
     <g id="text_3">
      <!-- 2020-06 -->
      <g transform="translate(152.808699 337.212937)rotate(-90)scale(0.1 -0.1)">
       <defs>
        <path d="M 33.015625 40.375 
Q 26.375 40.375 22.484375 35.828125 
Q 18.609375 31.296875 18.609375 23.390625 
Q 18.609375 15.53125 22.484375 10.953125 
Q 26.375 6.390625 33.015625 6.390625 
Q 39.65625 6.390625 43.53125 10.953125 
Q 47.40625 15.53125 47.40625 23.390625 
Q 47.40625 31.296875 43.53125 35.828125 
Q 39.65625 40.375 33.015625 40.375 
z
M 52.59375 71.296875 
L 52.59375 62.3125 
Q 48.875 64.0625 45.09375 64.984375 
Q 41.3125 65.921875 37.59375 65.921875 
Q 27.828125 65.921875 22.671875 59.328125 
Q 17.53125 52.734375 16.796875 39.40625 
Q 19.671875 43.65625 24.015625 45.921875 
Q 28.375 48.1875 33.59375 48.1875 
Q 44.578125 48.1875 50.953125 41.515625 
Q 57.328125 34.859375 57.328125 23.390625 
Q 57.328125 12.15625 50.6875 5.359375 
Q 44.046875 -1.421875 33.015625 -1.421875 
Q 20.359375 -1.421875 13.671875 8.265625 
Q 6.984375 17.96875 6.984375 36.375 
Q 6.984375 53.65625 15.1875 63.9375 
Q 23.390625 74.21875 37.203125 74.21875 
Q 40.921875 74.21875 44.703125 73.484375 
Q 48.484375 72.75 52.59375 71.296875 
z
" id="DejaVuSans-54"/>
       </defs>
       <use xlink:href="#DejaVuSans-50"/>
       <use x="63.623047" xlink:href="#DejaVuSans-48"/>
       <use x="127.246094" xlink:href="#DejaVuSans-50"/>
       <use x="190.869141" xlink:href="#DejaVuSans-48"/>
       <use x="254.492188" xlink:href="#DejaVuSans-45"/>
       <use x="290.576172" xlink:href="#DejaVuSans-48"/>
       <use x="354.199219" xlink:href="#DejaVuSans-54"/>
      </g>
     </g>
    </g>
    <g id="xtick_4">
     <g id="line2d_4">
      <g>
       <use style="stroke:#000000;stroke-width:0.8;" x="189.582904" xlink:href="#mbbf2c4acf5" y="288.430125"/>
      </g>
     </g>
     <g id="text_4">
      <!-- 2020-07 -->
      <g transform="translate(192.342279 337.212937)rotate(-90)scale(0.1 -0.1)">
       <defs>
        <path d="M 8.203125 72.90625 
L 55.078125 72.90625 
L 55.078125 68.703125 
L 28.609375 0 
L 18.3125 0 
L 43.21875 64.59375 
L 8.203125 64.59375 
z
" id="DejaVuSans-55"/>
       </defs>
       <use xlink:href="#DejaVuSans-50"/>
       <use x="63.623047" xlink:href="#DejaVuSans-48"/>
       <use x="127.246094" xlink:href="#DejaVuSans-50"/>
       <use x="190.869141" xlink:href="#DejaVuSans-48"/>
       <use x="254.492188" xlink:href="#DejaVuSans-45"/>
       <use x="290.576172" xlink:href="#DejaVuSans-48"/>
       <use x="354.199219" xlink:href="#DejaVuSans-55"/>
      </g>
     </g>
    </g>
    <g id="xtick_5">
     <g id="line2d_5">
      <g>
       <use style="stroke:#000000;stroke-width:0.8;" x="230.434269" xlink:href="#mbbf2c4acf5" y="288.430125"/>
      </g>
     </g>
     <g id="text_5">
      <!-- 2020-08 -->
      <g transform="translate(233.193644 337.212937)rotate(-90)scale(0.1 -0.1)">
       <defs>
        <path d="M 31.78125 34.625 
Q 24.75 34.625 20.71875 30.859375 
Q 16.703125 27.09375 16.703125 20.515625 
Q 16.703125 13.921875 20.71875 10.15625 
Q 24.75 6.390625 31.78125 6.390625 
Q 38.8125 6.390625 42.859375 10.171875 
Q 46.921875 13.96875 46.921875 20.515625 
Q 46.921875 27.09375 42.890625 30.859375 
Q 38.875 34.625 31.78125 34.625 
z
M 21.921875 38.8125 
Q 15.578125 40.375 12.03125 44.71875 
Q 8.5 49.078125 8.5 55.328125 
Q 8.5 64.0625 14.71875 69.140625 
Q 20.953125 74.21875 31.78125 74.21875 
Q 42.671875 74.21875 48.875 69.140625 
Q 55.078125 64.0625 55.078125 55.328125 
Q 55.078125 49.078125 51.53125 44.71875 
Q 48 40.375 41.703125 38.8125 
Q 48.828125 37.15625 52.796875 32.3125 
Q 56.78125 27.484375 56.78125 20.515625 
Q 56.78125 9.90625 50.3125 4.234375 
Q 43.84375 -1.421875 31.78125 -1.421875 
Q 19.734375 -1.421875 13.25 4.234375 
Q 6.78125 9.90625 6.78125 20.515625 
Q 6.78125 27.484375 10.78125 32.3125 
Q 14.796875 37.15625 21.921875 38.8125 
z
M 18.3125 54.390625 
Q 18.3125 48.734375 21.84375 45.5625 
Q 25.390625 42.390625 31.78125 42.390625 
Q 38.140625 42.390625 41.71875 45.5625 
Q 45.3125 48.734375 45.3125 54.390625 
Q 45.3125 60.0625 41.71875 63.234375 
Q 38.140625 66.40625 31.78125 66.40625 
Q 25.390625 66.40625 21.84375 63.234375 
Q 18.3125 60.0625 18.3125 54.390625 
z
" id="DejaVuSans-56"/>
       </defs>
       <use xlink:href="#DejaVuSans-50"/>
       <use x="63.623047" xlink:href="#DejaVuSans-48"/>
       <use x="127.246094" xlink:href="#DejaVuSans-50"/>
       <use x="190.869141" xlink:href="#DejaVuSans-48"/>
       <use x="254.492188" xlink:href="#DejaVuSans-45"/>
       <use x="290.576172" xlink:href="#DejaVuSans-48"/>
       <use x="354.199219" xlink:href="#DejaVuSans-56"/>
      </g>
     </g>
    </g>
    <g id="xtick_6">
     <g id="line2d_6">
      <g>
       <use style="stroke:#000000;stroke-width:0.8;" x="271.285634" xlink:href="#mbbf2c4acf5" y="288.430125"/>
      </g>
     </g>
     <g id="text_6">
      <!-- 2020-09 -->
      <g transform="translate(274.045009 337.212937)rotate(-90)scale(0.1 -0.1)">
       <defs>
        <path d="M 10.984375 1.515625 
L 10.984375 10.5 
Q 14.703125 8.734375 18.5 7.8125 
Q 22.3125 6.890625 25.984375 6.890625 
Q 35.75 6.890625 40.890625 13.453125 
Q 46.046875 20.015625 46.78125 33.40625 
Q 43.953125 29.203125 39.59375 26.953125 
Q 35.25 24.703125 29.984375 24.703125 
Q 19.046875 24.703125 12.671875 31.3125 
Q 6.296875 37.9375 6.296875 49.421875 
Q 6.296875 60.640625 12.9375 67.421875 
Q 19.578125 74.21875 30.609375 74.21875 
Q 43.265625 74.21875 49.921875 64.515625 
Q 56.59375 54.828125 56.59375 36.375 
Q 56.59375 19.140625 48.40625 8.859375 
Q 40.234375 -1.421875 26.421875 -1.421875 
Q 22.703125 -1.421875 18.890625 -0.6875 
Q 15.09375 0.046875 10.984375 1.515625 
z
M 30.609375 32.421875 
Q 37.25 32.421875 41.125 36.953125 
Q 45.015625 41.5 45.015625 49.421875 
Q 45.015625 57.28125 41.125 61.84375 
Q 37.25 66.40625 30.609375 66.40625 
Q 23.96875 66.40625 20.09375 61.84375 
Q 16.21875 57.28125 16.21875 49.421875 
Q 16.21875 41.5 20.09375 36.953125 
Q 23.96875 32.421875 30.609375 32.421875 
z
" id="DejaVuSans-57"/>
       </defs>
       <use xlink:href="#DejaVuSans-50"/>
       <use x="63.623047" xlink:href="#DejaVuSans-48"/>
       <use x="127.246094" xlink:href="#DejaVuSans-50"/>
       <use x="190.869141" xlink:href="#DejaVuSans-48"/>
       <use x="254.492188" xlink:href="#DejaVuSans-45"/>
       <use x="290.576172" xlink:href="#DejaVuSans-48"/>
       <use x="354.199219" xlink:href="#DejaVuSans-57"/>
      </g>
     </g>
    </g>
    <g id="xtick_7">
     <g id="line2d_7">
      <g>
       <use style="stroke:#000000;stroke-width:0.8;" x="310.819214" xlink:href="#mbbf2c4acf5" y="288.430125"/>
      </g>
     </g>
     <g id="text_7">
      <!-- 2020-10 -->
      <g transform="translate(313.578589 337.212937)rotate(-90)scale(0.1 -0.1)">
       <defs>
        <path d="M 12.40625 8.296875 
L 28.515625 8.296875 
L 28.515625 63.921875 
L 10.984375 60.40625 
L 10.984375 69.390625 
L 28.421875 72.90625 
L 38.28125 72.90625 
L 38.28125 8.296875 
L 54.390625 8.296875 
L 54.390625 0 
L 12.40625 0 
z
" id="DejaVuSans-49"/>
       </defs>
       <use xlink:href="#DejaVuSans-50"/>
       <use x="63.623047" xlink:href="#DejaVuSans-48"/>
       <use x="127.246094" xlink:href="#DejaVuSans-50"/>
       <use x="190.869141" xlink:href="#DejaVuSans-48"/>
       <use x="254.492188" xlink:href="#DejaVuSans-45"/>
       <use x="290.576172" xlink:href="#DejaVuSans-49"/>
       <use x="354.199219" xlink:href="#DejaVuSans-48"/>
      </g>
     </g>
    </g>
    <g id="xtick_8">
     <g id="line2d_8">
      <g>
       <use style="stroke:#000000;stroke-width:0.8;" x="351.670579" xlink:href="#mbbf2c4acf5" y="288.430125"/>
      </g>
     </g>
     <g id="text_8">
      <!-- 2020-11 -->
      <g transform="translate(354.429954 337.212937)rotate(-90)scale(0.1 -0.1)">
       <use xlink:href="#DejaVuSans-50"/>
       <use x="63.623047" xlink:href="#DejaVuSans-48"/>
       <use x="127.246094" xlink:href="#DejaVuSans-50"/>
       <use x="190.869141" xlink:href="#DejaVuSans-48"/>
       <use x="254.492188" xlink:href="#DejaVuSans-45"/>
       <use x="290.576172" xlink:href="#DejaVuSans-49"/>
       <use x="354.199219" xlink:href="#DejaVuSans-49"/>
      </g>
     </g>
    </g>
    <g id="xtick_9">
     <g id="line2d_9">
      <g>
       <use style="stroke:#000000;stroke-width:0.8;" x="391.204158" xlink:href="#mbbf2c4acf5" y="288.430125"/>
      </g>
     </g>
     <g id="text_9">
      <!-- 2020-12 -->
      <g transform="translate(393.963533 337.212937)rotate(-90)scale(0.1 -0.1)">
       <use xlink:href="#DejaVuSans-50"/>
       <use x="63.623047" xlink:href="#DejaVuSans-48"/>
       <use x="127.246094" xlink:href="#DejaVuSans-50"/>
       <use x="190.869141" xlink:href="#DejaVuSans-48"/>
       <use x="254.492188" xlink:href="#DejaVuSans-45"/>
       <use x="290.576172" xlink:href="#DejaVuSans-49"/>
       <use x="354.199219" xlink:href="#DejaVuSans-50"/>
      </g>
     </g>
    </g>
    <g id="text_10">
     <!-- date -->
     <g transform="translate(213.888125 354.811375)scale(0.1 -0.1)">
      <defs>
       <path d="M 45.40625 46.390625 
L 45.40625 75.984375 
L 54.390625 75.984375 
L 54.390625 0 
L 45.40625 0 
L 45.40625 8.203125 
Q 42.578125 3.328125 38.25 0.953125 
Q 33.9375 -1.421875 27.875 -1.421875 
Q 17.96875 -1.421875 11.734375 6.484375 
Q 5.515625 14.40625 5.515625 27.296875 
Q 5.515625 40.1875 11.734375 48.09375 
Q 17.96875 56 27.875 56 
Q 33.9375 56 38.25 53.625 
Q 42.578125 51.265625 45.40625 46.390625 
z
M 14.796875 27.296875 
Q 14.796875 17.390625 18.875 11.75 
Q 22.953125 6.109375 30.078125 6.109375 
Q 37.203125 6.109375 41.296875 11.75 
Q 45.40625 17.390625 45.40625 27.296875 
Q 45.40625 37.203125 41.296875 42.84375 
Q 37.203125 48.484375 30.078125 48.484375 
Q 22.953125 48.484375 18.875 42.84375 
Q 14.796875 37.203125 14.796875 27.296875 
z
" id="DejaVuSans-100"/>
       <path d="M 34.28125 27.484375 
Q 23.390625 27.484375 19.1875 25 
Q 14.984375 22.515625 14.984375 16.5 
Q 14.984375 11.71875 18.140625 8.90625 
Q 21.296875 6.109375 26.703125 6.109375 
Q 34.1875 6.109375 38.703125 11.40625 
Q 43.21875 16.703125 43.21875 25.484375 
L 43.21875 27.484375 
z
M 52.203125 31.203125 
L 52.203125 0 
L 43.21875 0 
L 43.21875 8.296875 
Q 40.140625 3.328125 35.546875 0.953125 
Q 30.953125 -1.421875 24.3125 -1.421875 
Q 15.921875 -1.421875 10.953125 3.296875 
Q 6 8.015625 6 15.921875 
Q 6 25.140625 12.171875 29.828125 
Q 18.359375 34.515625 30.609375 34.515625 
L 43.21875 34.515625 
L 43.21875 35.40625 
Q 43.21875 41.609375 39.140625 45 
Q 35.0625 48.390625 27.6875 48.390625 
Q 23 48.390625 18.546875 47.265625 
Q 14.109375 46.140625 10.015625 43.890625 
L 10.015625 52.203125 
Q 14.9375 54.109375 19.578125 55.046875 
Q 24.21875 56 28.609375 56 
Q 40.484375 56 46.34375 49.84375 
Q 52.203125 43.703125 52.203125 31.203125 
z
" id="DejaVuSans-97"/>
       <path d="M 18.3125 70.21875 
L 18.3125 54.6875 
L 36.8125 54.6875 
L 36.8125 47.703125 
L 18.3125 47.703125 
L 18.3125 18.015625 
Q 18.3125 11.328125 20.140625 9.421875 
Q 21.96875 7.515625 27.59375 7.515625 
L 36.8125 7.515625 
L 36.8125 0 
L 27.59375 0 
Q 17.1875 0 13.234375 3.875 
Q 9.28125 7.765625 9.28125 18.015625 
L 9.28125 47.703125 
L 2.6875 47.703125 
L 2.6875 54.6875 
L 9.28125 54.6875 
L 9.28125 70.21875 
z
" id="DejaVuSans-116"/>
       <path d="M 56.203125 29.59375 
L 56.203125 25.203125 
L 14.890625 25.203125 
Q 15.484375 15.921875 20.484375 11.0625 
Q 25.484375 6.203125 34.421875 6.203125 
Q 39.59375 6.203125 44.453125 7.46875 
Q 49.3125 8.734375 54.109375 11.28125 
L 54.109375 2.78125 
Q 49.265625 0.734375 44.1875 -0.34375 
Q 39.109375 -1.421875 33.890625 -1.421875 
Q 20.796875 -1.421875 13.15625 6.1875 
Q 5.515625 13.8125 5.515625 26.8125 
Q 5.515625 40.234375 12.765625 48.109375 
Q 20.015625 56 32.328125 56 
Q 43.359375 56 49.78125 48.890625 
Q 56.203125 41.796875 56.203125 29.59375 
z
M 47.21875 32.234375 
Q 47.125 39.59375 43.09375 43.984375 
Q 39.0625 48.390625 32.421875 48.390625 
Q 24.90625 48.390625 20.390625 44.140625 
Q 15.875 39.890625 15.1875 32.171875 
z
" id="DejaVuSans-101"/>
      </defs>
      <use xlink:href="#DejaVuSans-100"/>
      <use x="63.476562" xlink:href="#DejaVuSans-97"/>
      <use x="124.755859" xlink:href="#DejaVuSans-116"/>
      <use x="163.964844" xlink:href="#DejaVuSans-101"/>
     </g>
    </g>
   </g>
   <g id="matplotlib.axis_2">
    <g id="ytick_1">
     <g id="line2d_10">
      <defs>
       <path d="M 0 0 
L -3.5 0 
" id="m0836bdd2f8" style="stroke:#000000;stroke-width:0.8;"/>
      </defs>
      <g>
       <use style="stroke:#000000;stroke-width:0.8;" x="46.603125" xlink:href="#m0836bdd2f8" y="288.430125"/>
      </g>
     </g>
     <g id="text_11">
      <!-- 0 -->
      <g transform="translate(33.240625 292.229344)scale(0.1 -0.1)">
       <use xlink:href="#DejaVuSans-48"/>
      </g>
     </g>
    </g>
    <g id="ytick_2">
     <g id="line2d_11">
      <g>
       <use style="stroke:#000000;stroke-width:0.8;" x="46.603125" xlink:href="#m0836bdd2f8" y="252.948525"/>
      </g>
     </g>
     <g id="text_12">
      <!-- 10 -->
      <g transform="translate(26.878125 256.747744)scale(0.1 -0.1)">
       <use xlink:href="#DejaVuSans-49"/>
       <use x="63.623047" xlink:href="#DejaVuSans-48"/>
      </g>
     </g>
    </g>
    <g id="ytick_3">
     <g id="line2d_12">
      <g>
       <use style="stroke:#000000;stroke-width:0.8;" x="46.603125" xlink:href="#m0836bdd2f8" y="217.466925"/>
      </g>
     </g>
     <g id="text_13">
      <!-- 20 -->
      <g transform="translate(26.878125 221.266144)scale(0.1 -0.1)">
       <use xlink:href="#DejaVuSans-50"/>
       <use x="63.623047" xlink:href="#DejaVuSans-48"/>
      </g>
     </g>
    </g>
    <g id="ytick_4">
     <g id="line2d_13">
      <g>
       <use style="stroke:#000000;stroke-width:0.8;" x="46.603125" xlink:href="#m0836bdd2f8" y="181.985325"/>
      </g>
     </g>
     <g id="text_14">
      <!-- 30 -->
      <g transform="translate(26.878125 185.784544)scale(0.1 -0.1)">
       <defs>
        <path d="M 40.578125 39.3125 
Q 47.65625 37.796875 51.625 33 
Q 55.609375 28.21875 55.609375 21.1875 
Q 55.609375 10.40625 48.1875 4.484375 
Q 40.765625 -1.421875 27.09375 -1.421875 
Q 22.515625 -1.421875 17.65625 -0.515625 
Q 12.796875 0.390625 7.625 2.203125 
L 7.625 11.71875 
Q 11.71875 9.328125 16.59375 8.109375 
Q 21.484375 6.890625 26.8125 6.890625 
Q 36.078125 6.890625 40.9375 10.546875 
Q 45.796875 14.203125 45.796875 21.1875 
Q 45.796875 27.640625 41.28125 31.265625 
Q 36.765625 34.90625 28.71875 34.90625 
L 20.21875 34.90625 
L 20.21875 43.015625 
L 29.109375 43.015625 
Q 36.375 43.015625 40.234375 45.921875 
Q 44.09375 48.828125 44.09375 54.296875 
Q 44.09375 59.90625 40.109375 62.90625 
Q 36.140625 65.921875 28.71875 65.921875 
Q 24.65625 65.921875 20.015625 65.03125 
Q 15.375 64.15625 9.8125 62.3125 
L 9.8125 71.09375 
Q 15.4375 72.65625 20.34375 73.4375 
Q 25.25 74.21875 29.59375 74.21875 
Q 40.828125 74.21875 47.359375 69.109375 
Q 53.90625 64.015625 53.90625 55.328125 
Q 53.90625 49.265625 50.4375 45.09375 
Q 46.96875 40.921875 40.578125 39.3125 
z
" id="DejaVuSans-51"/>
       </defs>
       <use xlink:href="#DejaVuSans-51"/>
       <use x="63.623047" xlink:href="#DejaVuSans-48"/>
      </g>
     </g>
    </g>
    <g id="ytick_5">
     <g id="line2d_14">
      <g>
       <use style="stroke:#000000;stroke-width:0.8;" x="46.603125" xlink:href="#m0836bdd2f8" y="146.503725"/>
      </g>
     </g>
     <g id="text_15">
      <!-- 40 -->
      <g transform="translate(26.878125 150.302944)scale(0.1 -0.1)">
       <use xlink:href="#DejaVuSans-52"/>
       <use x="63.623047" xlink:href="#DejaVuSans-48"/>
      </g>
     </g>
    </g>
    <g id="ytick_6">
     <g id="line2d_15">
      <g>
       <use style="stroke:#000000;stroke-width:0.8;" x="46.603125" xlink:href="#m0836bdd2f8" y="111.022125"/>
      </g>
     </g>
     <g id="text_16">
      <!-- 50 -->
      <g transform="translate(26.878125 114.821344)scale(0.1 -0.1)">
       <use xlink:href="#DejaVuSans-53"/>
       <use x="63.623047" xlink:href="#DejaVuSans-48"/>
      </g>
     </g>
    </g>
    <g id="ytick_7">
     <g id="line2d_16">
      <g>
       <use style="stroke:#000000;stroke-width:0.8;" x="46.603125" xlink:href="#m0836bdd2f8" y="75.540525"/>
      </g>
     </g>
     <g id="text_17">
      <!-- 60 -->
      <g transform="translate(26.878125 79.339744)scale(0.1 -0.1)">
       <use xlink:href="#DejaVuSans-54"/>
       <use x="63.623047" xlink:href="#DejaVuSans-48"/>
      </g>
     </g>
    </g>
    <g id="ytick_8">
     <g id="line2d_17">
      <g>
       <use style="stroke:#000000;stroke-width:0.8;" x="46.603125" xlink:href="#m0836bdd2f8" y="40.058925"/>
      </g>
     </g>
     <g id="text_18">
      <!-- 70 -->
      <g transform="translate(26.878125 43.858144)scale(0.1 -0.1)">
       <use xlink:href="#DejaVuSans-55"/>
       <use x="63.623047" xlink:href="#DejaVuSans-48"/>
      </g>
     </g>
    </g>
    <g id="text_19">
     <!-- case fatality rate [%] -->
     <g transform="translate(14.798438 207.990531)rotate(-90)scale(0.1 -0.1)">
      <defs>
       <path d="M 48.78125 52.59375 
L 48.78125 44.1875 
Q 44.96875 46.296875 41.140625 47.34375 
Q 37.3125 48.390625 33.40625 48.390625 
Q 24.65625 48.390625 19.8125 42.84375 
Q 14.984375 37.3125 14.984375 27.296875 
Q 14.984375 17.28125 19.8125 11.734375 
Q 24.65625 6.203125 33.40625 6.203125 
Q 37.3125 6.203125 41.140625 7.25 
Q 44.96875 8.296875 48.78125 10.40625 
L 48.78125 2.09375 
Q 45.015625 0.34375 40.984375 -0.53125 
Q 36.96875 -1.421875 32.421875 -1.421875 
Q 20.0625 -1.421875 12.78125 6.34375 
Q 5.515625 14.109375 5.515625 27.296875 
Q 5.515625 40.671875 12.859375 48.328125 
Q 20.21875 56 33.015625 56 
Q 37.15625 56 41.109375 55.140625 
Q 45.0625 54.296875 48.78125 52.59375 
z
" id="DejaVuSans-99"/>
       <path d="M 44.28125 53.078125 
L 44.28125 44.578125 
Q 40.484375 46.53125 36.375 47.5 
Q 32.28125 48.484375 27.875 48.484375 
Q 21.1875 48.484375 17.84375 46.4375 
Q 14.5 44.390625 14.5 40.28125 
Q 14.5 37.15625 16.890625 35.375 
Q 19.28125 33.59375 26.515625 31.984375 
L 29.59375 31.296875 
Q 39.15625 29.25 43.1875 25.515625 
Q 47.21875 21.78125 47.21875 15.09375 
Q 47.21875 7.46875 41.1875 3.015625 
Q 35.15625 -1.421875 24.609375 -1.421875 
Q 20.21875 -1.421875 15.453125 -0.5625 
Q 10.6875 0.296875 5.421875 2 
L 5.421875 11.28125 
Q 10.40625 8.6875 15.234375 7.390625 
Q 20.0625 6.109375 24.8125 6.109375 
Q 31.15625 6.109375 34.5625 8.28125 
Q 37.984375 10.453125 37.984375 14.40625 
Q 37.984375 18.0625 35.515625 20.015625 
Q 33.0625 21.96875 24.703125 23.78125 
L 21.578125 24.515625 
Q 13.234375 26.265625 9.515625 29.90625 
Q 5.8125 33.546875 5.8125 39.890625 
Q 5.8125 47.609375 11.28125 51.796875 
Q 16.75 56 26.8125 56 
Q 31.78125 56 36.171875 55.265625 
Q 40.578125 54.546875 44.28125 53.078125 
z
" id="DejaVuSans-115"/>
       <path id="DejaVuSans-32"/>
       <path d="M 37.109375 75.984375 
L 37.109375 68.5 
L 28.515625 68.5 
Q 23.6875 68.5 21.796875 66.546875 
Q 19.921875 64.59375 19.921875 59.515625 
L 19.921875 54.6875 
L 34.71875 54.6875 
L 34.71875 47.703125 
L 19.921875 47.703125 
L 19.921875 0 
L 10.890625 0 
L 10.890625 47.703125 
L 2.296875 47.703125 
L 2.296875 54.6875 
L 10.890625 54.6875 
L 10.890625 58.5 
Q 10.890625 67.625 15.140625 71.796875 
Q 19.390625 75.984375 28.609375 75.984375 
z
" id="DejaVuSans-102"/>
       <path d="M 9.421875 75.984375 
L 18.40625 75.984375 
L 18.40625 0 
L 9.421875 0 
z
" id="DejaVuSans-108"/>
       <path d="M 9.421875 54.6875 
L 18.40625 54.6875 
L 18.40625 0 
L 9.421875 0 
z
M 9.421875 75.984375 
L 18.40625 75.984375 
L 18.40625 64.59375 
L 9.421875 64.59375 
z
" id="DejaVuSans-105"/>
       <path d="M 32.171875 -5.078125 
Q 28.375 -14.84375 24.75 -17.8125 
Q 21.140625 -20.796875 15.09375 -20.796875 
L 7.90625 -20.796875 
L 7.90625 -13.28125 
L 13.1875 -13.28125 
Q 16.890625 -13.28125 18.9375 -11.515625 
Q 21 -9.765625 23.484375 -3.21875 
L 25.09375 0.875 
L 2.984375 54.6875 
L 12.5 54.6875 
L 29.59375 11.921875 
L 46.6875 54.6875 
L 56.203125 54.6875 
z
" id="DejaVuSans-121"/>
       <path d="M 41.109375 46.296875 
Q 39.59375 47.171875 37.8125 47.578125 
Q 36.03125 48 33.890625 48 
Q 26.265625 48 22.1875 43.046875 
Q 18.109375 38.09375 18.109375 28.8125 
L 18.109375 0 
L 9.078125 0 
L 9.078125 54.6875 
L 18.109375 54.6875 
L 18.109375 46.1875 
Q 20.953125 51.171875 25.484375 53.578125 
Q 30.03125 56 36.53125 56 
Q 37.453125 56 38.578125 55.875 
Q 39.703125 55.765625 41.0625 55.515625 
z
" id="DejaVuSans-114"/>
       <path d="M 8.59375 75.984375 
L 29.296875 75.984375 
L 29.296875 69 
L 17.578125 69 
L 17.578125 -6.203125 
L 29.296875 -6.203125 
L 29.296875 -13.1875 
L 8.59375 -13.1875 
z
" id="DejaVuSans-91"/>
       <path d="M 72.703125 32.078125 
Q 68.453125 32.078125 66.03125 28.46875 
Q 63.625 24.859375 63.625 18.40625 
Q 63.625 12.0625 66.03125 8.421875 
Q 68.453125 4.78125 72.703125 4.78125 
Q 76.859375 4.78125 79.265625 8.421875 
Q 81.6875 12.0625 81.6875 18.40625 
Q 81.6875 24.8125 79.265625 28.4375 
Q 76.859375 32.078125 72.703125 32.078125 
z
M 72.703125 38.28125 
Q 80.421875 38.28125 84.953125 32.90625 
Q 89.5 27.546875 89.5 18.40625 
Q 89.5 9.28125 84.9375 3.921875 
Q 80.375 -1.421875 72.703125 -1.421875 
Q 64.890625 -1.421875 60.34375 3.921875 
Q 55.8125 9.28125 55.8125 18.40625 
Q 55.8125 27.59375 60.375 32.9375 
Q 64.9375 38.28125 72.703125 38.28125 
z
M 22.3125 68.015625 
Q 18.109375 68.015625 15.6875 64.375 
Q 13.28125 60.75 13.28125 54.390625 
Q 13.28125 47.953125 15.671875 44.328125 
Q 18.0625 40.71875 22.3125 40.71875 
Q 26.5625 40.71875 28.96875 44.328125 
Q 31.390625 47.953125 31.390625 54.390625 
Q 31.390625 60.6875 28.953125 64.34375 
Q 26.515625 68.015625 22.3125 68.015625 
z
M 66.40625 74.21875 
L 74.21875 74.21875 
L 28.609375 -1.421875 
L 20.796875 -1.421875 
z
M 22.3125 74.21875 
Q 30.03125 74.21875 34.609375 68.875 
Q 39.203125 63.53125 39.203125 54.390625 
Q 39.203125 45.171875 34.640625 39.84375 
Q 30.078125 34.515625 22.3125 34.515625 
Q 14.546875 34.515625 10.03125 39.859375 
Q 5.515625 45.21875 5.515625 54.390625 
Q 5.515625 63.484375 10.046875 68.84375 
Q 14.59375 74.21875 22.3125 74.21875 
z
" id="DejaVuSans-37"/>
       <path d="M 30.421875 75.984375 
L 30.421875 -13.1875 
L 9.71875 -13.1875 
L 9.71875 -6.203125 
L 21.390625 -6.203125 
L 21.390625 69 
L 9.71875 69 
L 9.71875 75.984375 
z
" id="DejaVuSans-93"/>
      </defs>
      <use xlink:href="#DejaVuSans-99"/>
      <use x="54.980469" xlink:href="#DejaVuSans-97"/>
      <use x="116.259766" xlink:href="#DejaVuSans-115"/>
      <use x="168.359375" xlink:href="#DejaVuSans-101"/>
      <use x="229.882812" xlink:href="#DejaVuSans-32"/>
      <use x="261.669922" xlink:href="#DejaVuSans-102"/>
      <use x="296.875" xlink:href="#DejaVuSans-97"/>
      <use x="358.154297" xlink:href="#DejaVuSans-116"/>
      <use x="397.363281" xlink:href="#DejaVuSans-97"/>
      <use x="458.642578" xlink:href="#DejaVuSans-108"/>
      <use x="486.425781" xlink:href="#DejaVuSans-105"/>
      <use x="514.208984" xlink:href="#DejaVuSans-116"/>
      <use x="553.417969" xlink:href="#DejaVuSans-121"/>
      <use x="612.597656" xlink:href="#DejaVuSans-32"/>
      <use x="644.384766" xlink:href="#DejaVuSans-114"/>
      <use x="685.498047" xlink:href="#DejaVuSans-97"/>
      <use x="746.777344" xlink:href="#DejaVuSans-116"/>
      <use x="785.986328" xlink:href="#DejaVuSans-101"/>
      <use x="847.509766" xlink:href="#DejaVuSans-32"/>
      <use x="879.296875" xlink:href="#DejaVuSans-91"/>
      <use x="918.310547" xlink:href="#DejaVuSans-37"/>
      <use x="1013.330078" xlink:href="#DejaVuSans-93"/>
     </g>
    </g>
   </g>
   <g id="patch_274">
    <path d="M 46.603125 288.430125 
L 46.603125 22.318125 
" style="fill:none;stroke:#000000;stroke-linecap:square;stroke-linejoin:miter;stroke-width:0.8;"/>
   </g>
   <g id="patch_275">
    <path d="M 46.603125 288.430125 
L 403.723125 288.430125 
" style="fill:none;stroke:#000000;stroke-linecap:square;stroke-linejoin:miter;stroke-width:0.8;"/>
   </g>
   <g id="text_20">
    <!-- South Tyrol -->
    <g transform="translate(191.870625 16.318125)scale(0.12 -0.12)">
     <defs>
      <path d="M 53.515625 70.515625 
L 53.515625 60.890625 
Q 47.90625 63.578125 42.921875 64.890625 
Q 37.9375 66.21875 33.296875 66.21875 
Q 25.25 66.21875 20.875 63.09375 
Q 16.5 59.96875 16.5 54.203125 
Q 16.5 49.359375 19.40625 46.890625 
Q 22.3125 44.4375 30.421875 42.921875 
L 36.375 41.703125 
Q 47.40625 39.59375 52.65625 34.296875 
Q 57.90625 29 57.90625 20.125 
Q 57.90625 9.515625 50.796875 4.046875 
Q 43.703125 -1.421875 29.984375 -1.421875 
Q 24.8125 -1.421875 18.96875 -0.25 
Q 13.140625 0.921875 6.890625 3.21875 
L 6.890625 13.375 
Q 12.890625 10.015625 18.65625 8.296875 
Q 24.421875 6.59375 29.984375 6.59375 
Q 38.421875 6.59375 43.015625 9.90625 
Q 47.609375 13.234375 47.609375 19.390625 
Q 47.609375 24.75 44.3125 27.78125 
Q 41.015625 30.8125 33.5 32.328125 
L 27.484375 33.5 
Q 16.453125 35.6875 11.515625 40.375 
Q 6.59375 45.0625 6.59375 53.421875 
Q 6.59375 63.09375 13.40625 68.65625 
Q 20.21875 74.21875 32.171875 74.21875 
Q 37.3125 74.21875 42.625 73.28125 
Q 47.953125 72.359375 53.515625 70.515625 
z
" id="DejaVuSans-83"/>
      <path d="M 30.609375 48.390625 
Q 23.390625 48.390625 19.1875 42.75 
Q 14.984375 37.109375 14.984375 27.296875 
Q 14.984375 17.484375 19.15625 11.84375 
Q 23.34375 6.203125 30.609375 6.203125 
Q 37.796875 6.203125 41.984375 11.859375 
Q 46.1875 17.53125 46.1875 27.296875 
Q 46.1875 37.015625 41.984375 42.703125 
Q 37.796875 48.390625 30.609375 48.390625 
z
M 30.609375 56 
Q 42.328125 56 49.015625 48.375 
Q 55.71875 40.765625 55.71875 27.296875 
Q 55.71875 13.875 49.015625 6.21875 
Q 42.328125 -1.421875 30.609375 -1.421875 
Q 18.84375 -1.421875 12.171875 6.21875 
Q 5.515625 13.875 5.515625 27.296875 
Q 5.515625 40.765625 12.171875 48.375 
Q 18.84375 56 30.609375 56 
z
" id="DejaVuSans-111"/>
      <path d="M 8.5 21.578125 
L 8.5 54.6875 
L 17.484375 54.6875 
L 17.484375 21.921875 
Q 17.484375 14.15625 20.5 10.265625 
Q 23.53125 6.390625 29.59375 6.390625 
Q 36.859375 6.390625 41.078125 11.03125 
Q 45.3125 15.671875 45.3125 23.6875 
L 45.3125 54.6875 
L 54.296875 54.6875 
L 54.296875 0 
L 45.3125 0 
L 45.3125 8.40625 
Q 42.046875 3.421875 37.71875 1 
Q 33.40625 -1.421875 27.6875 -1.421875 
Q 18.265625 -1.421875 13.375 4.4375 
Q 8.5 10.296875 8.5 21.578125 
z
M 31.109375 56 
z
" id="DejaVuSans-117"/>
      <path d="M 54.890625 33.015625 
L 54.890625 0 
L 45.90625 0 
L 45.90625 32.71875 
Q 45.90625 40.484375 42.875 44.328125 
Q 39.84375 48.1875 33.796875 48.1875 
Q 26.515625 48.1875 22.3125 43.546875 
Q 18.109375 38.921875 18.109375 30.90625 
L 18.109375 0 
L 9.078125 0 
L 9.078125 75.984375 
L 18.109375 75.984375 
L 18.109375 46.1875 
Q 21.34375 51.125 25.703125 53.5625 
Q 30.078125 56 35.796875 56 
Q 45.21875 56 50.046875 50.171875 
Q 54.890625 44.34375 54.890625 33.015625 
z
" id="DejaVuSans-104"/>
      <path d="M -0.296875 72.90625 
L 61.375 72.90625 
L 61.375 64.59375 
L 35.5 64.59375 
L 35.5 0 
L 25.59375 0 
L 25.59375 64.59375 
L -0.296875 64.59375 
z
" id="DejaVuSans-84"/>
     </defs>
     <use xlink:href="#DejaVuSans-83"/>
     <use x="63.476562" xlink:href="#DejaVuSans-111"/>
     <use x="124.658203" xlink:href="#DejaVuSans-117"/>
     <use x="188.037109" xlink:href="#DejaVuSans-116"/>
     <use x="227.246094" xlink:href="#DejaVuSans-104"/>
     <use x="290.625" xlink:href="#DejaVuSans-32"/>
     <use x="322.412109" xlink:href="#DejaVuSans-84"/>
     <use x="367.871094" xlink:href="#DejaVuSans-121"/>
     <use x="427.050781" xlink:href="#DejaVuSans-114"/>
     <use x="465.914062" xlink:href="#DejaVuSans-111"/>
     <use x="527.095703" xlink:href="#DejaVuSans-108"/>
    </g>
   </g>
  </g>
 </g>
 <defs>
  <clipPath id="pa81805bc24">
   <rect height="266.112" width="357.12" x="46.603125" y="22.318125"/>
  </clipPath>
 </defs>
</svg>
