<?xml version="1.0" encoding="utf-8" standalone="no"?>
<!DOCTYPE svg PUBLIC "-//W3C//DTD SVG 1.1//EN"
  "http://www.w3.org/Graphics/SVG/1.1/DTD/svg11.dtd">
<!-- Created with matplotlib (https://matplotlib.org/) -->
<svg height="364.091062pt" version="1.1" viewBox="0 0 410.923125 364.091062" width="410.923125pt" xmlns="http://www.w3.org/2000/svg" xmlns:xlink="http://www.w3.org/1999/xlink">
 <metadata>
  <rdf:RDF xmlns:cc="http://creativecommons.org/ns#" xmlns:dc="http://purl.org/dc/elements/1.1/" xmlns:rdf="http://www.w3.org/1999/02/22-rdf-syntax-ns#">
   <cc:Work>
    <dc:type rdf:resource="http://purl.org/dc/dcmitype/StillImage"/>
    <dc:date>2020-12-19T21:45:35.939354</dc:date>
    <dc:format>image/svg+xml</dc:format>
    <dc:creator>
     <cc:Agent>
      <dc:title>Matplotlib v3.3.3, https://matplotlib.org/</dc:title>
     </cc:Agent>
    </dc:creator>
   </cc:Work>
  </rdf:RDF>
 </metadata>
 <defs>
  <style type="text/css">*{stroke-linecap:butt;stroke-linejoin:round;}</style>
 </defs>
 <g id="figure_1">
  <g id="patch_1">
   <path d="M 0 364.091062 
L 410.923125 364.091062 
L 410.923125 0 
L 0 0 
z
" style="fill:#ffffff;"/>
  </g>
  <g id="axes_1">
   <g id="patch_2">
    <path d="M 46.603125 288.430125 
L 403.723125 288.430125 
L 403.723125 22.318125 
L 46.603125 22.318125 
z
" style="fill:#ffffff;"/>
   </g>
   <g id="patch_3">
    <path clip-path="url(#pe93985440a)" d="M 46.730668 288.430125 
L 47.751011 288.430125 
L 47.751011 34.990125 
L 46.730668 34.990125 
z
" style="fill:#1f77b4;"/>
   </g>
   <g id="patch_4">
    <path clip-path="url(#pe93985440a)" d="M 48.006096 288.430125 
L 49.026439 288.430125 
L 49.026439 22.318125 
L 48.006096 22.318125 
z
" style="fill:#1f77b4;"/>
   </g>
   <g id="patch_5">
    <path clip-path="url(#pe93985440a)" d="M 49.281525 288.430125 
L 50.301868 288.430125 
L 50.301868 22.318125 
L 49.281525 22.318125 
z
" style="fill:#1f77b4;"/>
   </g>
   <g id="patch_6">
    <path clip-path="url(#pe93985440a)" d="M 50.556954 288.430125 
L 51.577296 288.430125 
L 51.577296 64.335809 
L 50.556954 64.335809 
z
" style="fill:#1f77b4;"/>
   </g>
   <g id="patch_7">
    <path clip-path="url(#pe93985440a)" d="M 51.832382 288.430125 
L 52.852725 288.430125 
L 52.852725 51.886125 
L 51.832382 51.886125 
z
" style="fill:#1f77b4;"/>
   </g>
   <g id="patch_8">
    <path clip-path="url(#pe93985440a)" d="M 53.107811 288.430125 
L 54.128154 288.430125 
L 54.128154 63.713325 
L 53.107811 63.713325 
z
" style="fill:#1f77b4;"/>
   </g>
   <g id="patch_9">
    <path clip-path="url(#pe93985440a)" d="M 54.383239 288.430125 
L 55.403582 288.430125 
L 55.403582 58.279206 
L 54.383239 58.279206 
z
" style="fill:#1f77b4;"/>
   </g>
   <g id="patch_10">
    <path clip-path="url(#pe93985440a)" d="M 55.658668 288.430125 
L 56.679011 288.430125 
L 56.679011 76.905202 
L 55.658668 76.905202 
z
" style="fill:#1f77b4;"/>
   </g>
   <g id="patch_11">
    <path clip-path="url(#pe93985440a)" d="M 56.934096 288.430125 
L 57.954439 288.430125 
L 57.954439 77.946057 
L 56.934096 77.946057 
z
" style="fill:#1f77b4;"/>
   </g>
   <g id="patch_12">
    <path clip-path="url(#pe93985440a)" d="M 58.209525 288.430125 
L 59.229868 288.430125 
L 59.229868 58.843301 
L 58.209525 58.843301 
z
" style="fill:#1f77b4;"/>
   </g>
   <g id="patch_13">
    <path clip-path="url(#pe93985440a)" d="M 59.484954 288.430125 
L 60.505296 288.430125 
L 60.505296 78.341704 
L 59.484954 78.341704 
z
" style="fill:#1f77b4;"/>
   </g>
   <g id="patch_14">
    <path clip-path="url(#pe93985440a)" d="M 60.760382 288.430125 
L 61.780725 288.430125 
L 61.780725 84.025255 
L 60.760382 84.025255 
z
" style="fill:#1f77b4;"/>
   </g>
   <g id="patch_15">
    <path clip-path="url(#pe93985440a)" d="M 62.035811 288.430125 
L 63.056154 288.430125 
L 63.056154 85.678125 
L 62.035811 85.678125 
z
" style="fill:#1f77b4;"/>
   </g>
   <g id="patch_16">
    <path clip-path="url(#pe93985440a)" d="M 63.311239 288.430125 
L 64.331582 288.430125 
L 64.331582 87.47239 
L 63.311239 87.47239 
z
" style="fill:#1f77b4;"/>
   </g>
   <g id="patch_17">
    <path clip-path="url(#pe93985440a)" d="M 64.586668 288.430125 
L 65.607011 288.430125 
L 65.607011 91.618125 
L 64.586668 91.618125 
z
" style="fill:#1f77b4;"/>
   </g>
   <g id="patch_18">
    <path clip-path="url(#pe93985440a)" d="M 65.862096 288.430125 
L 66.882439 288.430125 
L 66.882439 111.022125 
L 65.862096 111.022125 
z
" style="fill:#1f77b4;"/>
   </g>
   <g id="patch_19">
    <path clip-path="url(#pe93985440a)" d="M 67.137525 288.430125 
L 68.157868 288.430125 
L 68.157868 95.213491 
L 67.137525 95.213491 
z
" style="fill:#1f77b4;"/>
   </g>
   <g id="patch_20">
    <path clip-path="url(#pe93985440a)" d="M 68.412954 288.430125 
L 69.433296 288.430125 
L 69.433296 100.032249 
L 68.412954 100.032249 
z
" style="fill:#1f77b4;"/>
   </g>
   <g id="patch_21">
    <path clip-path="url(#pe93985440a)" d="M 69.688382 288.430125 
L 70.708725 288.430125 
L 70.708725 106.034752 
L 69.688382 106.034752 
z
" style="fill:#1f77b4;"/>
   </g>
   <g id="patch_22">
    <path clip-path="url(#pe93985440a)" d="M 70.963811 288.430125 
L 71.984154 288.430125 
L 71.984154 112.876564 
L 70.963811 112.876564 
z
" style="fill:#1f77b4;"/>
   </g>
   <g id="patch_23">
    <path clip-path="url(#pe93985440a)" d="M 72.239239 288.430125 
L 73.259582 288.430125 
L 73.259582 115.753005 
L 72.239239 115.753005 
z
" style="fill:#1f77b4;"/>
   </g>
   <g id="patch_24">
    <path clip-path="url(#pe93985440a)" d="M 73.514668 288.430125 
L 74.535011 288.430125 
L 74.535011 117.592792 
L 73.514668 117.592792 
z
" style="fill:#1f77b4;"/>
   </g>
   <g id="patch_25">
    <path clip-path="url(#pe93985440a)" d="M 74.790096 288.430125 
L 75.810439 288.430125 
L 75.810439 124.052091 
L 74.790096 124.052091 
z
" style="fill:#1f77b4;"/>
   </g>
   <g id="patch_26">
    <path clip-path="url(#pe93985440a)" d="M 76.065525 288.430125 
L 77.085868 288.430125 
L 77.085868 127.40545 
L 76.065525 127.40545 
z
" style="fill:#1f77b4;"/>
   </g>
   <g id="patch_27">
    <path clip-path="url(#pe93985440a)" d="M 77.340954 288.430125 
L 78.361296 288.430125 
L 78.361296 140.866461 
L 77.340954 140.866461 
z
" style="fill:#1f77b4;"/>
   </g>
   <g id="patch_28">
    <path clip-path="url(#pe93985440a)" d="M 78.616382 288.430125 
L 79.636725 288.430125 
L 79.636725 145.433159 
L 78.616382 145.433159 
z
" style="fill:#1f77b4;"/>
   </g>
   <g id="patch_29">
    <path clip-path="url(#pe93985440a)" d="M 79.891811 288.430125 
L 80.912154 288.430125 
L 80.912154 152.993401 
L 79.891811 152.993401 
z
" style="fill:#1f77b4;"/>
   </g>
   <g id="patch_30">
    <path clip-path="url(#pe93985440a)" d="M 81.167239 288.430125 
L 82.187582 288.430125 
L 82.187582 159.873603 
L 81.167239 159.873603 
z
" style="fill:#1f77b4;"/>
   </g>
   <g id="patch_31">
    <path clip-path="url(#pe93985440a)" d="M 82.442668 288.430125 
L 83.463011 288.430125 
L 83.463011 161.66574 
L 82.442668 161.66574 
z
" style="fill:#1f77b4;"/>
   </g>
   <g id="patch_32">
    <path clip-path="url(#pe93985440a)" d="M 83.718096 288.430125 
L 84.738439 288.430125 
L 84.738439 158.913249 
L 83.718096 158.913249 
z
" style="fill:#1f77b4;"/>
   </g>
   <g id="patch_33">
    <path clip-path="url(#pe93985440a)" d="M 84.993525 288.430125 
L 86.013868 288.430125 
L 86.013868 160.743438 
L 84.993525 160.743438 
z
" style="fill:#1f77b4;"/>
   </g>
   <g id="patch_34">
    <path clip-path="url(#pe93985440a)" d="M 86.268954 288.430125 
L 87.289296 288.430125 
L 87.289296 165.137144 
L 86.268954 165.137144 
z
" style="fill:#1f77b4;"/>
   </g>
   <g id="patch_35">
    <path clip-path="url(#pe93985440a)" d="M 87.544382 288.430125 
L 88.564725 288.430125 
L 88.564725 168.758456 
L 87.544382 168.758456 
z
" style="fill:#1f77b4;"/>
   </g>
   <g id="patch_36">
    <path clip-path="url(#pe93985440a)" d="M 88.819811 288.430125 
L 89.840154 288.430125 
L 89.840154 172.815923 
L 88.819811 172.815923 
z
" style="fill:#1f77b4;"/>
   </g>
   <g id="patch_37">
    <path clip-path="url(#pe93985440a)" d="M 90.095239 288.430125 
L 91.115582 288.430125 
L 91.115582 178.155711 
L 90.095239 178.155711 
z
" style="fill:#1f77b4;"/>
   </g>
   <g id="patch_38">
    <path clip-path="url(#pe93985440a)" d="M 91.370668 288.430125 
L 92.391011 288.430125 
L 92.391011 181.636611 
L 91.370668 181.636611 
z
" style="fill:#1f77b4;"/>
   </g>
   <g id="patch_39">
    <path clip-path="url(#pe93985440a)" d="M 92.646096 288.430125 
L 93.666439 288.430125 
L 93.666439 184.855466 
L 92.646096 184.855466 
z
" style="fill:#1f77b4;"/>
   </g>
   <g id="patch_40">
    <path clip-path="url(#pe93985440a)" d="M 93.921525 288.430125 
L 94.941868 288.430125 
L 94.941868 186.243117 
L 93.921525 186.243117 
z
" style="fill:#1f77b4;"/>
   </g>
   <g id="patch_41">
    <path clip-path="url(#pe93985440a)" d="M 95.196954 288.430125 
L 96.217296 288.430125 
L 96.217296 187.951258 
L 95.196954 187.951258 
z
" style="fill:#1f77b4;"/>
   </g>
   <g id="patch_42">
    <path clip-path="url(#pe93985440a)" d="M 96.472382 288.430125 
L 97.492725 288.430125 
L 97.492725 190.01676 
L 96.472382 190.01676 
z
" style="fill:#1f77b4;"/>
   </g>
   <g id="patch_43">
    <path clip-path="url(#pe93985440a)" d="M 97.747811 288.430125 
L 98.768154 288.430125 
L 98.768154 219.965996 
L 97.747811 219.965996 
z
" style="fill:#1f77b4;"/>
   </g>
   <g id="patch_44">
    <path clip-path="url(#pe93985440a)" d="M 99.023239 288.430125 
L 100.043582 288.430125 
L 100.043582 223.179438 
L 99.023239 223.179438 
z
" style="fill:#1f77b4;"/>
   </g>
   <g id="patch_45">
    <path clip-path="url(#pe93985440a)" d="M 100.298668 288.430125 
L 101.319011 288.430125 
L 101.319011 224.243505 
L 100.298668 224.243505 
z
" style="fill:#1f77b4;"/>
   </g>
   <g id="patch_46">
    <path clip-path="url(#pe93985440a)" d="M 101.574096 288.430125 
L 102.594439 288.430125 
L 102.594439 226.861796 
L 101.574096 226.861796 
z
" style="fill:#1f77b4;"/>
   </g>
   <g id="patch_47">
    <path clip-path="url(#pe93985440a)" d="M 102.849525 288.430125 
L 103.869868 288.430125 
L 103.869868 227.655596 
L 102.849525 227.655596 
z
" style="fill:#1f77b4;"/>
   </g>
   <g id="patch_48">
    <path clip-path="url(#pe93985440a)" d="M 104.124954 288.430125 
L 105.145296 288.430125 
L 105.145296 229.934587 
L 104.124954 229.934587 
z
" style="fill:#1f77b4;"/>
   </g>
   <g id="patch_49">
    <path clip-path="url(#pe93985440a)" d="M 105.400382 288.430125 
L 106.420725 288.430125 
L 106.420725 231.568587 
L 105.400382 231.568587 
z
" style="fill:#1f77b4;"/>
   </g>
   <g id="patch_50">
    <path clip-path="url(#pe93985440a)" d="M 106.675811 288.430125 
L 107.696154 288.430125 
L 107.696154 232.733429 
L 106.675811 232.733429 
z
" style="fill:#1f77b4;"/>
   </g>
   <g id="patch_51">
    <path clip-path="url(#pe93985440a)" d="M 107.951239 288.430125 
L 108.971582 288.430125 
L 108.971582 234.394282 
L 107.951239 234.394282 
z
" style="fill:#1f77b4;"/>
   </g>
   <g id="patch_52">
    <path clip-path="url(#pe93985440a)" d="M 109.226668 288.430125 
L 110.247011 288.430125 
L 110.247011 235.141351 
L 109.226668 235.141351 
z
" style="fill:#1f77b4;"/>
   </g>
   <g id="patch_53">
    <path clip-path="url(#pe93985440a)" d="M 110.502096 288.430125 
L 111.522439 288.430125 
L 111.522439 235.533671 
L 110.502096 235.533671 
z
" style="fill:#1f77b4;"/>
   </g>
   <g id="patch_54">
    <path clip-path="url(#pe93985440a)" d="M 111.777525 288.430125 
L 112.797868 288.430125 
L 112.797868 235.851174 
L 111.777525 235.851174 
z
" style="fill:#1f77b4;"/>
   </g>
   <g id="patch_55">
    <path clip-path="url(#pe93985440a)" d="M 113.052954 288.430125 
L 114.073296 288.430125 
L 114.073296 236.7614 
L 113.052954 236.7614 
z
" style="fill:#1f77b4;"/>
   </g>
   <g id="patch_56">
    <path clip-path="url(#pe93985440a)" d="M 114.328382 288.430125 
L 115.348725 288.430125 
L 115.348725 237.716794 
L 114.328382 237.716794 
z
" style="fill:#1f77b4;"/>
   </g>
   <g id="patch_57">
    <path clip-path="url(#pe93985440a)" d="M 115.603811 288.430125 
L 116.624154 288.430125 
L 116.624154 238.555697 
L 115.603811 238.555697 
z
" style="fill:#1f77b4;"/>
   </g>
   <g id="patch_58">
    <path clip-path="url(#pe93985440a)" d="M 116.879239 288.430125 
L 117.899582 288.430125 
L 117.899582 239.291328 
L 116.879239 239.291328 
z
" style="fill:#1f77b4;"/>
   </g>
   <g id="patch_59">
    <path clip-path="url(#pe93985440a)" d="M 118.154668 288.430125 
L 119.175011 288.430125 
L 119.175011 239.663945 
L 118.154668 239.663945 
z
" style="fill:#1f77b4;"/>
   </g>
   <g id="patch_60">
    <path clip-path="url(#pe93985440a)" d="M 119.430096 288.430125 
L 120.450439 288.430125 
L 120.450439 240.008177 
L 119.430096 240.008177 
z
" style="fill:#1f77b4;"/>
   </g>
   <g id="patch_61">
    <path clip-path="url(#pe93985440a)" d="M 120.705525 288.430125 
L 121.725868 288.430125 
L 121.725868 240.234977 
L 120.705525 240.234977 
z
" style="fill:#1f77b4;"/>
   </g>
   <g id="patch_62">
    <path clip-path="url(#pe93985440a)" d="M 121.980954 288.430125 
L 123.001296 288.430125 
L 123.001296 240.83686 
L 121.980954 240.83686 
z
" style="fill:#1f77b4;"/>
   </g>
   <g id="patch_63">
    <path clip-path="url(#pe93985440a)" d="M 123.256382 288.430125 
L 124.276725 288.430125 
L 124.276725 241.616367 
L 123.256382 241.616367 
z
" style="fill:#1f77b4;"/>
   </g>
   <g id="patch_64">
    <path clip-path="url(#pe93985440a)" d="M 124.531811 288.430125 
L 125.552154 288.430125 
L 125.552154 242.059399 
L 124.531811 242.059399 
z
" style="fill:#1f77b4;"/>
   </g>
   <g id="patch_65">
    <path clip-path="url(#pe93985440a)" d="M 125.807239 288.430125 
L 126.827582 288.430125 
L 126.827582 242.494125 
L 125.807239 242.494125 
z
" style="fill:#1f77b4;"/>
   </g>
   <g id="patch_66">
    <path clip-path="url(#pe93985440a)" d="M 127.082668 288.430125 
L 128.103011 288.430125 
L 128.103011 243.041223 
L 127.082668 243.041223 
z
" style="fill:#1f77b4;"/>
   </g>
   <g id="patch_67">
    <path clip-path="url(#pe93985440a)" d="M 128.358096 288.430125 
L 129.378439 288.430125 
L 129.378439 243.04487 
L 128.358096 243.04487 
z
" style="fill:#1f77b4;"/>
   </g>
   <g id="patch_68">
    <path clip-path="url(#pe93985440a)" d="M 129.633525 288.430125 
L 130.653868 288.430125 
L 130.653868 243.124528 
L 129.633525 243.124528 
z
" style="fill:#1f77b4;"/>
   </g>
   <g id="patch_69">
    <path clip-path="url(#pe93985440a)" d="M 130.908954 288.430125 
L 131.929296 288.430125 
L 131.929296 243.829064 
L 130.908954 243.829064 
z
" style="fill:#1f77b4;"/>
   </g>
   <g id="patch_70">
    <path clip-path="url(#pe93985440a)" d="M 132.184382 288.430125 
L 133.204725 288.430125 
L 133.204725 244.248929 
L 132.184382 244.248929 
z
" style="fill:#1f77b4;"/>
   </g>
   <g id="patch_71">
    <path clip-path="url(#pe93985440a)" d="M 133.459811 288.430125 
L 134.480154 288.430125 
L 134.480154 244.790456 
L 133.459811 244.790456 
z
" style="fill:#1f77b4;"/>
   </g>
   <g id="patch_72">
    <path clip-path="url(#pe93985440a)" d="M 134.735239 288.430125 
L 135.755582 288.430125 
L 135.755582 244.974125 
L 134.735239 244.974125 
z
" style="fill:#1f77b4;"/>
   </g>
   <g id="patch_73">
    <path clip-path="url(#pe93985440a)" d="M 136.010668 288.430125 
L 137.031011 288.430125 
L 137.031011 245.372804 
L 136.010668 245.372804 
z
" style="fill:#1f77b4;"/>
   </g>
   <g id="patch_74">
    <path clip-path="url(#pe93985440a)" d="M 137.286096 288.430125 
L 138.306439 288.430125 
L 138.306439 245.569413 
L 137.286096 245.569413 
z
" style="fill:#1f77b4;"/>
   </g>
   <g id="patch_75">
    <path clip-path="url(#pe93985440a)" d="M 138.561525 288.430125 
L 139.581868 288.430125 
L 139.581868 245.658188 
L 138.561525 245.658188 
z
" style="fill:#1f77b4;"/>
   </g>
   <g id="patch_76">
    <path clip-path="url(#pe93985440a)" d="M 139.836954 288.430125 
L 140.857296 288.430125 
L 140.857296 245.799466 
L 139.836954 245.799466 
z
" style="fill:#1f77b4;"/>
   </g>
   <g id="patch_77">
    <path clip-path="url(#pe93985440a)" d="M 141.112382 288.430125 
L 142.132725 288.430125 
L 142.132725 246.079241 
L 141.112382 246.079241 
z
" style="fill:#1f77b4;"/>
   </g>
   <g id="patch_78">
    <path clip-path="url(#pe93985440a)" d="M 142.387811 288.430125 
L 143.408154 288.430125 
L 143.408154 246.13129 
L 142.387811 246.13129 
z
" style="fill:#1f77b4;"/>
   </g>
   <g id="patch_79">
    <path clip-path="url(#pe93985440a)" d="M 143.663239 288.430125 
L 144.683582 288.430125 
L 144.683582 246.44092 
L 143.663239 246.44092 
z
" style="fill:#1f77b4;"/>
   </g>
   <g id="patch_80">
    <path clip-path="url(#pe93985440a)" d="M 144.938668 288.430125 
L 145.959011 288.430125 
L 145.959011 246.627916 
L 144.938668 246.627916 
z
" style="fill:#1f77b4;"/>
   </g>
   <g id="patch_81">
    <path clip-path="url(#pe93985440a)" d="M 146.214096 288.430125 
L 147.234439 288.430125 
L 147.234439 246.712365 
L 146.214096 246.712365 
z
" style="fill:#1f77b4;"/>
   </g>
   <g id="patch_82">
    <path clip-path="url(#pe93985440a)" d="M 147.489525 288.430125 
L 148.509868 288.430125 
L 148.509868 246.762871 
L 147.489525 246.762871 
z
" style="fill:#1f77b4;"/>
   </g>
   <g id="patch_83">
    <path clip-path="url(#pe93985440a)" d="M 148.764954 288.430125 
L 149.785296 288.430125 
L 149.785296 246.762871 
L 148.764954 246.762871 
z
" style="fill:#1f77b4;"/>
   </g>
   <g id="patch_84">
    <path clip-path="url(#pe93985440a)" d="M 150.040382 288.430125 
L 151.060725 288.430125 
L 151.060725 246.754231 
L 150.040382 246.754231 
z
" style="fill:#1f77b4;"/>
   </g>
   <g id="patch_85">
    <path clip-path="url(#pe93985440a)" d="M 151.315811 288.430125 
L 152.336154 288.430125 
L 152.336154 246.954436 
L 151.315811 246.954436 
z
" style="fill:#1f77b4;"/>
   </g>
   <g id="patch_86">
    <path clip-path="url(#pe93985440a)" d="M 152.591239 288.430125 
L 153.611582 288.430125 
L 153.611582 246.987616 
L 152.591239 246.987616 
z
" style="fill:#1f77b4;"/>
   </g>
   <g id="patch_87">
    <path clip-path="url(#pe93985440a)" d="M 153.866668 288.430125 
L 154.887011 288.430125 
L 154.887011 247.08684 
L 153.866668 247.08684 
z
" style="fill:#1f77b4;"/>
   </g>
   <g id="patch_88">
    <path clip-path="url(#pe93985440a)" d="M 155.142096 288.430125 
L 156.162439 288.430125 
L 156.162439 247.103331 
L 155.142096 247.103331 
z
" style="fill:#1f77b4;"/>
   </g>
   <g id="patch_89">
    <path clip-path="url(#pe93985440a)" d="M 156.417525 288.430125 
L 157.437868 288.430125 
L 157.437868 247.136274 
L 156.417525 247.136274 
z
" style="fill:#1f77b4;"/>
   </g>
   <g id="patch_90">
    <path clip-path="url(#pe93985440a)" d="M 157.692954 288.430125 
L 158.713296 288.430125 
L 158.713296 247.152726 
L 157.692954 247.152726 
z
" style="fill:#1f77b4;"/>
   </g>
   <g id="patch_91">
    <path clip-path="url(#pe93985440a)" d="M 158.968382 288.430125 
L 159.988725 288.430125 
L 159.988725 247.103331 
L 158.968382 247.103331 
z
" style="fill:#1f77b4;"/>
   </g>
   <g id="patch_92">
    <path clip-path="url(#pe93985440a)" d="M 160.243811 288.430125 
L 161.264154 288.430125 
L 161.264154 247.244861 
L 160.243811 247.244861 
z
" style="fill:#1f77b4;"/>
   </g>
   <g id="patch_93">
    <path clip-path="url(#pe93985440a)" d="M 161.519239 288.430125 
L 162.539582 288.430125 
L 162.539582 247.375868 
L 161.519239 247.375868 
z
" style="fill:#1f77b4;"/>
   </g>
   <g id="patch_94">
    <path clip-path="url(#pe93985440a)" d="M 162.794668 288.430125 
L 163.815011 288.430125 
L 163.815011 247.392185 
L 162.794668 247.392185 
z
" style="fill:#1f77b4;"/>
   </g>
   <g id="patch_95">
    <path clip-path="url(#pe93985440a)" d="M 164.070096 288.430125 
L 165.090439 288.430125 
L 165.090439 247.267522 
L 164.070096 247.267522 
z
" style="fill:#1f77b4;"/>
   </g>
   <g id="patch_96">
    <path clip-path="url(#pe93985440a)" d="M 165.345525 288.430125 
L 166.365868 288.430125 
L 166.365868 247.283869 
L 165.345525 247.283869 
z
" style="fill:#1f77b4;"/>
   </g>
   <g id="patch_97">
    <path clip-path="url(#pe93985440a)" d="M 166.620954 288.430125 
L 167.641296 288.430125 
L 167.641296 247.381681 
L 166.620954 247.381681 
z
" style="fill:#1f77b4;"/>
   </g>
   <g id="patch_98">
    <path clip-path="url(#pe93985440a)" d="M 167.896382 288.430125 
L 168.916725 288.430125 
L 168.916725 247.446631 
L 167.896382 247.446631 
z
" style="fill:#1f77b4;"/>
   </g>
   <g id="patch_99">
    <path clip-path="url(#pe93985440a)" d="M 169.171811 288.430125 
L 170.192154 288.430125 
L 170.192154 247.640254 
L 169.171811 247.640254 
z
" style="fill:#1f77b4;"/>
   </g>
   <g id="patch_100">
    <path clip-path="url(#pe93985440a)" d="M 170.447239 288.430125 
L 171.467582 288.430125 
L 171.467582 247.672347 
L 170.447239 247.672347 
z
" style="fill:#1f77b4;"/>
   </g>
   <g id="patch_101">
    <path clip-path="url(#pe93985440a)" d="M 171.722668 288.430125 
L 172.743011 288.430125 
L 172.743011 247.752358 
L 171.722668 247.752358 
z
" style="fill:#1f77b4;"/>
   </g>
   <g id="patch_102">
    <path clip-path="url(#pe93985440a)" d="M 172.998096 288.430125 
L 174.018439 288.430125 
L 174.018439 247.704389 
L 172.998096 247.704389 
z
" style="fill:#1f77b4;"/>
   </g>
   <g id="patch_103">
    <path clip-path="url(#pe93985440a)" d="M 174.273525 288.430125 
L 175.293868 288.430125 
L 175.293868 247.704389 
L 174.273525 247.704389 
z
" style="fill:#1f77b4;"/>
   </g>
   <g id="patch_104">
    <path clip-path="url(#pe93985440a)" d="M 175.548954 288.430125 
L 176.569296 288.430125 
L 176.569296 247.704389 
L 175.548954 247.704389 
z
" style="fill:#1f77b4;"/>
   </g>
   <g id="patch_105">
    <path clip-path="url(#pe93985440a)" d="M 176.824382 288.430125 
L 177.844725 288.430125 
L 177.844725 247.752358 
L 176.824382 247.752358 
z
" style="fill:#1f77b4;"/>
   </g>
   <g id="patch_106">
    <path clip-path="url(#pe93985440a)" d="M 178.099811 288.430125 
L 179.120154 288.430125 
L 179.120154 247.784275 
L 178.099811 247.784275 
z
" style="fill:#1f77b4;"/>
   </g>
   <g id="patch_107">
    <path clip-path="url(#pe93985440a)" d="M 179.375239 288.430125 
L 180.395582 288.430125 
L 180.395582 247.784275 
L 179.375239 247.784275 
z
" style="fill:#1f77b4;"/>
   </g>
   <g id="patch_108">
    <path clip-path="url(#pe93985440a)" d="M 180.650668 288.430125 
L 181.671011 288.430125 
L 181.671011 247.832056 
L 180.650668 247.832056 
z
" style="fill:#1f77b4;"/>
   </g>
   <g id="patch_109">
    <path clip-path="url(#pe93985440a)" d="M 181.926096 288.430125 
L 182.946439 288.430125 
L 182.946439 247.863848 
L 181.926096 247.863848 
z
" style="fill:#1f77b4;"/>
   </g>
   <g id="patch_110">
    <path clip-path="url(#pe93985440a)" d="M 183.201525 288.430125 
L 184.221868 288.430125 
L 184.221868 247.879725 
L 183.201525 247.879725 
z
" style="fill:#1f77b4;"/>
   </g>
   <g id="patch_111">
    <path clip-path="url(#pe93985440a)" d="M 184.476954 288.430125 
L 185.497296 288.430125 
L 185.497296 247.927282 
L 184.476954 247.927282 
z
" style="fill:#1f77b4;"/>
   </g>
   <g id="patch_112">
    <path clip-path="url(#pe93985440a)" d="M 185.752382 288.430125 
L 186.772725 288.430125 
L 186.772725 247.927282 
L 185.752382 247.927282 
z
" style="fill:#1f77b4;"/>
   </g>
   <g id="patch_113">
    <path clip-path="url(#pe93985440a)" d="M 187.027811 288.430125 
L 188.048154 288.430125 
L 188.048154 247.94311 
L 187.027811 247.94311 
z
" style="fill:#1f77b4;"/>
   </g>
   <g id="patch_114">
    <path clip-path="url(#pe93985440a)" d="M 188.303239 288.430125 
L 189.323582 288.430125 
L 189.323582 247.958925 
L 188.303239 247.958925 
z
" style="fill:#1f77b4;"/>
   </g>
   <g id="patch_115">
    <path clip-path="url(#pe93985440a)" d="M 189.578668 288.430125 
L 190.599011 288.430125 
L 190.599011 247.990518 
L 189.578668 247.990518 
z
" style="fill:#1f77b4;"/>
   </g>
   <g id="patch_116">
    <path clip-path="url(#pe93985440a)" d="M 190.854096 288.430125 
L 191.874439 288.430125 
L 191.874439 248.022063 
L 190.854096 248.022063 
z
" style="fill:#1f77b4;"/>
   </g>
   <g id="patch_117">
    <path clip-path="url(#pe93985440a)" d="M 192.129525 288.430125 
L 193.149868 288.430125 
L 193.149868 248.037816 
L 192.129525 248.037816 
z
" style="fill:#1f77b4;"/>
   </g>
   <g id="patch_118">
    <path clip-path="url(#pe93985440a)" d="M 193.404954 288.430125 
L 194.425296 288.430125 
L 194.425296 248.069287 
L 193.404954 248.069287 
z
" style="fill:#1f77b4;"/>
   </g>
   <g id="patch_119">
    <path clip-path="url(#pe93985440a)" d="M 194.680382 288.430125 
L 195.700725 288.430125 
L 195.700725 248.100708 
L 194.680382 248.100708 
z
" style="fill:#1f77b4;"/>
   </g>
   <g id="patch_120">
    <path clip-path="url(#pe93985440a)" d="M 195.955811 288.430125 
L 196.976154 288.430125 
L 196.976154 248.147749 
L 195.955811 248.147749 
z
" style="fill:#1f77b4;"/>
   </g>
   <g id="patch_121">
    <path clip-path="url(#pe93985440a)" d="M 197.231239 288.430125 
L 198.251582 288.430125 
L 198.251582 248.257084 
L 197.231239 248.257084 
z
" style="fill:#1f77b4;"/>
   </g>
   <g id="patch_122">
    <path clip-path="url(#pe93985440a)" d="M 198.506668 288.430125 
L 199.527011 288.430125 
L 199.527011 248.241501 
L 198.506668 248.241501 
z
" style="fill:#1f77b4;"/>
   </g>
   <g id="patch_123">
    <path clip-path="url(#pe93985440a)" d="M 199.782096 288.430125 
L 200.802439 288.430125 
L 200.802439 248.241501 
L 199.782096 248.241501 
z
" style="fill:#1f77b4;"/>
   </g>
   <g id="patch_124">
    <path clip-path="url(#pe93985440a)" d="M 201.057525 288.430125 
L 202.077868 288.430125 
L 202.077868 248.257084 
L 201.057525 248.257084 
z
" style="fill:#1f77b4;"/>
   </g>
   <g id="patch_125">
    <path clip-path="url(#pe93985440a)" d="M 202.332954 288.430125 
L 203.353296 288.430125 
L 203.353296 248.272655 
L 202.332954 248.272655 
z
" style="fill:#1f77b4;"/>
   </g>
   <g id="patch_126">
    <path clip-path="url(#pe93985440a)" d="M 203.608382 288.430125 
L 204.628725 288.430125 
L 204.628725 248.241501 
L 203.608382 248.241501 
z
" style="fill:#1f77b4;"/>
   </g>
   <g id="patch_127">
    <path clip-path="url(#pe93985440a)" d="M 204.883811 288.430125 
L 205.904154 288.430125 
L 205.904154 248.288214 
L 204.883811 248.288214 
z
" style="fill:#1f77b4;"/>
   </g>
   <g id="patch_128">
    <path clip-path="url(#pe93985440a)" d="M 206.159239 288.430125 
L 207.179582 288.430125 
L 207.179582 248.303761 
L 206.159239 248.303761 
z
" style="fill:#1f77b4;"/>
   </g>
   <g id="patch_129">
    <path clip-path="url(#pe93985440a)" d="M 207.434668 288.430125 
L 208.455011 288.430125 
L 208.455011 248.319296 
L 207.434668 248.319296 
z
" style="fill:#1f77b4;"/>
   </g>
   <g id="patch_130">
    <path clip-path="url(#pe93985440a)" d="M 208.710096 288.430125 
L 209.730439 288.430125 
L 209.730439 248.334818 
L 208.710096 248.334818 
z
" style="fill:#1f77b4;"/>
   </g>
   <g id="patch_131">
    <path clip-path="url(#pe93985440a)" d="M 209.985525 288.430125 
L 211.005868 288.430125 
L 211.005868 248.365828 
L 209.985525 248.365828 
z
" style="fill:#1f77b4;"/>
   </g>
   <g id="patch_132">
    <path clip-path="url(#pe93985440a)" d="M 211.260954 288.430125 
L 212.281296 288.430125 
L 212.281296 248.412252 
L 211.260954 248.412252 
z
" style="fill:#1f77b4;"/>
   </g>
   <g id="patch_133">
    <path clip-path="url(#pe93985440a)" d="M 212.536382 288.430125 
L 213.556725 288.430125 
L 213.556725 248.535527 
L 212.536382 248.535527 
z
" style="fill:#1f77b4;"/>
   </g>
   <g id="patch_134">
    <path clip-path="url(#pe93985440a)" d="M 213.811811 288.430125 
L 214.832154 288.430125 
L 214.832154 248.64277 
L 213.811811 248.64277 
z
" style="fill:#1f77b4;"/>
   </g>
   <g id="patch_135">
    <path clip-path="url(#pe93985440a)" d="M 215.087239 288.430125 
L 216.107582 288.430125 
L 216.107582 248.673305 
L 215.087239 248.673305 
z
" style="fill:#1f77b4;"/>
   </g>
   <g id="patch_136">
    <path clip-path="url(#pe93985440a)" d="M 216.362668 288.430125 
L 217.383011 288.430125 
L 217.383011 248.673305 
L 216.362668 248.673305 
z
" style="fill:#1f77b4;"/>
   </g>
   <g id="patch_137">
    <path clip-path="url(#pe93985440a)" d="M 217.638096 288.430125 
L 218.658439 288.430125 
L 218.658439 248.673305 
L 217.638096 248.673305 
z
" style="fill:#1f77b4;"/>
   </g>
   <g id="patch_138">
    <path clip-path="url(#pe93985440a)" d="M 218.913525 288.430125 
L 219.933868 288.430125 
L 219.933868 248.688555 
L 218.913525 248.688555 
z
" style="fill:#1f77b4;"/>
   </g>
   <g id="patch_139">
    <path clip-path="url(#pe93985440a)" d="M 220.188954 288.430125 
L 221.209296 288.430125 
L 221.209296 248.734235 
L 220.188954 248.734235 
z
" style="fill:#1f77b4;"/>
   </g>
   <g id="patch_140">
    <path clip-path="url(#pe93985440a)" d="M 221.464382 288.430125 
L 222.484725 288.430125 
L 222.484725 248.734235 
L 221.464382 248.734235 
z
" style="fill:#1f77b4;"/>
   </g>
   <g id="patch_141">
    <path clip-path="url(#pe93985440a)" d="M 222.739811 288.430125 
L 223.760154 288.430125 
L 223.760154 248.810136 
L 222.739811 248.810136 
z
" style="fill:#1f77b4;"/>
   </g>
   <g id="patch_142">
    <path clip-path="url(#pe93985440a)" d="M 224.015239 288.430125 
L 225.035582 288.430125 
L 225.035582 248.855537 
L 224.015239 248.855537 
z
" style="fill:#1f77b4;"/>
   </g>
   <g id="patch_143">
    <path clip-path="url(#pe93985440a)" d="M 225.290668 288.430125 
L 226.311011 288.430125 
L 226.311011 248.900834 
L 225.290668 248.900834 
z
" style="fill:#1f77b4;"/>
   </g>
   <g id="patch_144">
    <path clip-path="url(#pe93985440a)" d="M 226.566096 288.430125 
L 227.586439 288.430125 
L 227.586439 248.91591 
L 226.566096 248.91591 
z
" style="fill:#1f77b4;"/>
   </g>
   <g id="patch_145">
    <path clip-path="url(#pe93985440a)" d="M 227.841525 288.430125 
L 228.861868 288.430125 
L 228.861868 248.91591 
L 227.841525 248.91591 
z
" style="fill:#1f77b4;"/>
   </g>
   <g id="patch_146">
    <path clip-path="url(#pe93985440a)" d="M 229.116954 288.430125 
L 230.137296 288.430125 
L 230.137296 249.021121 
L 229.116954 249.021121 
z
" style="fill:#1f77b4;"/>
   </g>
   <g id="patch_147">
    <path clip-path="url(#pe93985440a)" d="M 230.392382 288.430125 
L 231.412725 288.430125 
L 231.412725 249.08099 
L 230.392382 249.08099 
z
" style="fill:#1f77b4;"/>
   </g>
   <g id="patch_148">
    <path clip-path="url(#pe93985440a)" d="M 231.667811 288.430125 
L 232.688154 288.430125 
L 232.688154 249.08099 
L 231.667811 249.08099 
z
" style="fill:#1f77b4;"/>
   </g>
   <g id="patch_149">
    <path clip-path="url(#pe93985440a)" d="M 232.943239 288.430125 
L 233.963582 288.430125 
L 233.963582 249.229871 
L 232.943239 249.229871 
z
" style="fill:#1f77b4;"/>
   </g>
   <g id="patch_150">
    <path clip-path="url(#pe93985440a)" d="M 234.218668 288.430125 
L 235.239011 288.430125 
L 235.239011 249.259512 
L 234.218668 249.259512 
z
" style="fill:#1f77b4;"/>
   </g>
   <g id="patch_151">
    <path clip-path="url(#pe93985440a)" d="M 235.494096 288.430125 
L 236.514439 288.430125 
L 236.514439 249.274315 
L 235.494096 249.274315 
z
" style="fill:#1f77b4;"/>
   </g>
   <g id="patch_152">
    <path clip-path="url(#pe93985440a)" d="M 236.769525 288.430125 
L 237.789868 288.430125 
L 237.789868 249.289108 
L 236.769525 249.289108 
z
" style="fill:#1f77b4;"/>
   </g>
   <g id="patch_153">
    <path clip-path="url(#pe93985440a)" d="M 238.044954 288.430125 
L 239.065296 288.430125 
L 239.065296 249.31866 
L 238.044954 249.31866 
z
" style="fill:#1f77b4;"/>
   </g>
   <g id="patch_154">
    <path clip-path="url(#pe93985440a)" d="M 239.320382 288.430125 
L 240.340725 288.430125 
L 240.340725 249.46575 
L 239.320382 249.46575 
z
" style="fill:#1f77b4;"/>
   </g>
   <g id="patch_155">
    <path clip-path="url(#pe93985440a)" d="M 240.595811 288.430125 
L 241.616154 288.430125 
L 241.616154 249.495036 
L 240.595811 249.495036 
z
" style="fill:#1f77b4;"/>
   </g>
   <g id="patch_156">
    <path clip-path="url(#pe93985440a)" d="M 241.871239 288.430125 
L 242.891582 288.430125 
L 242.891582 249.582629 
L 241.871239 249.582629 
z
" style="fill:#1f77b4;"/>
   </g>
   <g id="patch_157">
    <path clip-path="url(#pe93985440a)" d="M 243.146668 288.430125 
L 244.167011 288.430125 
L 244.167011 249.669829 
L 243.146668 249.669829 
z
" style="fill:#1f77b4;"/>
   </g>
   <g id="patch_158">
    <path clip-path="url(#pe93985440a)" d="M 244.422096 288.430125 
L 245.442439 288.430125 
L 245.442439 249.727745 
L 244.422096 249.727745 
z
" style="fill:#1f77b4;"/>
   </g>
   <g id="patch_159">
    <path clip-path="url(#pe93985440a)" d="M 245.697525 288.430125 
L 246.717868 288.430125 
L 246.717868 249.727745 
L 245.697525 249.727745 
z
" style="fill:#1f77b4;"/>
   </g>
   <g id="patch_160">
    <path clip-path="url(#pe93985440a)" d="M 246.972954 288.430125 
L 247.993296 288.430125 
L 247.993296 249.900459 
L 246.972954 249.900459 
z
" style="fill:#1f77b4;"/>
   </g>
   <g id="patch_161">
    <path clip-path="url(#pe93985440a)" d="M 248.248382 288.430125 
L 249.268725 288.430125 
L 249.268725 249.957688 
L 248.248382 249.957688 
z
" style="fill:#1f77b4;"/>
   </g>
   <g id="patch_162">
    <path clip-path="url(#pe93985440a)" d="M 249.523811 288.430125 
L 250.544154 288.430125 
L 250.544154 250.000499 
L 249.523811 250.000499 
z
" style="fill:#1f77b4;"/>
   </g>
   <g id="patch_163">
    <path clip-path="url(#pe93985440a)" d="M 250.799239 288.430125 
L 251.819582 288.430125 
L 251.819582 250.213131 
L 250.799239 250.213131 
z
" style="fill:#1f77b4;"/>
   </g>
   <g id="patch_164">
    <path clip-path="url(#pe93985440a)" d="M 252.074668 288.430125 
L 253.095011 288.430125 
L 253.095011 250.227222 
L 252.074668 250.227222 
z
" style="fill:#1f77b4;"/>
   </g>
   <g id="patch_165">
    <path clip-path="url(#pe93985440a)" d="M 253.350096 288.430125 
L 254.370439 288.430125 
L 254.370439 250.227222 
L 253.350096 250.227222 
z
" style="fill:#1f77b4;"/>
   </g>
   <g id="patch_166">
    <path clip-path="url(#pe93985440a)" d="M 254.625525 288.430125 
L 255.645868 288.430125 
L 255.645868 250.516846 
L 254.625525 250.516846 
z
" style="fill:#1f77b4;"/>
   </g>
   <g id="patch_167">
    <path clip-path="url(#pe93985440a)" d="M 255.900954 288.430125 
L 256.921296 288.430125 
L 256.921296 250.339584 
L 255.900954 250.339584 
z
" style="fill:#1f77b4;"/>
   </g>
   <g id="patch_168">
    <path clip-path="url(#pe93985440a)" d="M 257.176382 288.430125 
L 258.196725 288.430125 
L 258.196725 250.367571 
L 257.176382 250.367571 
z
" style="fill:#1f77b4;"/>
   </g>
   <g id="patch_169">
    <path clip-path="url(#pe93985440a)" d="M 258.451811 288.430125 
L 259.472154 288.430125 
L 259.472154 250.423422 
L 258.451811 250.423422 
z
" style="fill:#1f77b4;"/>
   </g>
   <g id="patch_170">
    <path clip-path="url(#pe93985440a)" d="M 259.727239 288.430125 
L 260.747582 288.430125 
L 260.747582 250.534634 
L 259.727239 250.534634 
z
" style="fill:#1f77b4;"/>
   </g>
   <g id="patch_171">
    <path clip-path="url(#pe93985440a)" d="M 261.002668 288.430125 
L 262.023011 288.430125 
L 262.023011 250.645197 
L 261.002668 250.645197 
z
" style="fill:#1f77b4;"/>
   </g>
   <g id="patch_172">
    <path clip-path="url(#pe93985440a)" d="M 262.278096 288.430125 
L 263.298439 288.430125 
L 263.298439 250.686492 
L 262.278096 250.686492 
z
" style="fill:#1f77b4;"/>
   </g>
   <g id="patch_173">
    <path clip-path="url(#pe93985440a)" d="M 263.553525 288.430125 
L 264.573868 288.430125 
L 264.573868 250.713972 
L 263.553525 250.713972 
z
" style="fill:#1f77b4;"/>
   </g>
   <g id="patch_174">
    <path clip-path="url(#pe93985440a)" d="M 264.828954 288.430125 
L 265.849296 288.430125 
L 265.849296 250.782497 
L 264.828954 250.782497 
z
" style="fill:#1f77b4;"/>
   </g>
   <g id="patch_175">
    <path clip-path="url(#pe93985440a)" d="M 266.104382 288.430125 
L 267.124725 288.430125 
L 267.124725 250.837138 
L 266.104382 250.837138 
z
" style="fill:#1f77b4;"/>
   </g>
   <g id="patch_176">
    <path clip-path="url(#pe93985440a)" d="M 267.379811 288.430125 
L 268.400154 288.430125 
L 268.400154 250.945946 
L 267.379811 250.945946 
z
" style="fill:#1f77b4;"/>
   </g>
   <g id="patch_177">
    <path clip-path="url(#pe93985440a)" d="M 268.655239 288.430125 
L 269.675582 288.430125 
L 269.675582 251.134851 
L 268.655239 251.134851 
z
" style="fill:#1f77b4;"/>
   </g>
   <g id="patch_178">
    <path clip-path="url(#pe93985440a)" d="M 269.930668 288.430125 
L 270.951011 288.430125 
L 270.951011 251.228591 
L 269.930668 251.228591 
z
" style="fill:#1f77b4;"/>
   </g>
   <g id="patch_179">
    <path clip-path="url(#pe93985440a)" d="M 271.206096 288.430125 
L 272.226439 288.430125 
L 272.226439 251.268621 
L 271.206096 251.268621 
z
" style="fill:#1f77b4;"/>
   </g>
   <g id="patch_180">
    <path clip-path="url(#pe93985440a)" d="M 272.481525 288.430125 
L 273.501868 288.430125 
L 273.501868 251.281946 
L 272.481525 251.281946 
z
" style="fill:#1f77b4;"/>
   </g>
   <g id="patch_181">
    <path clip-path="url(#pe93985440a)" d="M 273.756954 288.430125 
L 274.777296 288.430125 
L 274.777296 251.348424 
L 273.756954 251.348424 
z
" style="fill:#1f77b4;"/>
   </g>
   <g id="patch_182">
    <path clip-path="url(#pe93985440a)" d="M 275.032382 288.430125 
L 276.052725 288.430125 
L 276.052725 251.401436 
L 275.032382 251.401436 
z
" style="fill:#1f77b4;"/>
   </g>
   <g id="patch_183">
    <path clip-path="url(#pe93985440a)" d="M 276.307811 288.430125 
L 277.328154 288.430125 
L 277.328154 251.533304 
L 276.307811 251.533304 
z
" style="fill:#1f77b4;"/>
   </g>
   <g id="patch_184">
    <path clip-path="url(#pe93985440a)" d="M 277.583239 288.430125 
L 278.603582 288.430125 
L 278.603582 251.71635 
L 277.583239 251.71635 
z
" style="fill:#1f77b4;"/>
   </g>
   <g id="patch_185">
    <path clip-path="url(#pe93985440a)" d="M 278.858668 288.430125 
L 279.879011 288.430125 
L 279.879011 251.845989 
L 278.858668 251.845989 
z
" style="fill:#1f77b4;"/>
   </g>
   <g id="patch_186">
    <path clip-path="url(#pe93985440a)" d="M 280.134096 288.430125 
L 281.154439 288.430125 
L 281.154439 251.845989 
L 280.134096 251.845989 
z
" style="fill:#1f77b4;"/>
   </g>
   <g id="patch_187">
    <path clip-path="url(#pe93985440a)" d="M 281.409525 288.430125 
L 282.429868 288.430125 
L 282.429868 251.897589 
L 281.409525 251.897589 
z
" style="fill:#1f77b4;"/>
   </g>
   <g id="patch_188">
    <path clip-path="url(#pe93985440a)" d="M 282.684954 288.430125 
L 283.705296 288.430125 
L 283.705296 252.013158 
L 282.684954 252.013158 
z
" style="fill:#1f77b4;"/>
   </g>
   <g id="patch_189">
    <path clip-path="url(#pe93985440a)" d="M 283.960382 288.430125 
L 284.980725 288.430125 
L 284.980725 252.166117 
L 283.960382 252.166117 
z
" style="fill:#1f77b4;"/>
   </g>
   <g id="patch_190">
    <path clip-path="url(#pe93985440a)" d="M 285.235811 288.430125 
L 286.256154 288.430125 
L 286.256154 252.330379 
L 285.235811 252.330379 
z
" style="fill:#1f77b4;"/>
   </g>
   <g id="patch_191">
    <path clip-path="url(#pe93985440a)" d="M 286.511239 288.430125 
L 287.531582 288.430125 
L 287.531582 252.405691 
L 286.511239 252.405691 
z
" style="fill:#1f77b4;"/>
   </g>
   <g id="patch_192">
    <path clip-path="url(#pe93985440a)" d="M 287.786668 288.430125 
L 288.807011 288.430125 
L 288.807011 252.44323 
L 287.786668 252.44323 
z
" style="fill:#1f77b4;"/>
   </g>
   <g id="patch_193">
    <path clip-path="url(#pe93985440a)" d="M 289.062096 288.430125 
L 290.082439 288.430125 
L 290.082439 252.468212 
L 289.062096 252.468212 
z
" style="fill:#1f77b4;"/>
   </g>
   <g id="patch_194">
    <path clip-path="url(#pe93985440a)" d="M 290.337525 288.430125 
L 291.357868 288.430125 
L 291.357868 252.468212 
L 290.337525 252.468212 
z
" style="fill:#1f77b4;"/>
   </g>
   <g id="patch_195">
    <path clip-path="url(#pe93985440a)" d="M 291.612954 288.430125 
L 292.633296 288.430125 
L 292.633296 252.580204 
L 291.612954 252.580204 
z
" style="fill:#1f77b4;"/>
   </g>
   <g id="patch_196">
    <path clip-path="url(#pe93985440a)" d="M 292.888382 288.430125 
L 293.908725 288.430125 
L 293.908725 252.716139 
L 292.888382 252.716139 
z
" style="fill:#1f77b4;"/>
   </g>
   <g id="patch_197">
    <path clip-path="url(#pe93985440a)" d="M 294.163811 288.430125 
L 295.184154 288.430125 
L 295.184154 252.997063 
L 294.163811 252.997063 
z
" style="fill:#1f77b4;"/>
   </g>
   <g id="patch_198">
    <path clip-path="url(#pe93985440a)" d="M 295.439239 288.430125 
L 296.459582 288.430125 
L 296.459582 253.03338 
L 295.439239 253.03338 
z
" style="fill:#1f77b4;"/>
   </g>
   <g id="patch_199">
    <path clip-path="url(#pe93985440a)" d="M 296.714668 288.430125 
L 297.735011 288.430125 
L 297.735011 253.213853 
L 296.714668 253.213853 
z
" style="fill:#1f77b4;"/>
   </g>
   <g id="patch_200">
    <path clip-path="url(#pe93985440a)" d="M 297.990096 288.430125 
L 299.010439 288.430125 
L 299.010439 253.356912 
L 297.990096 253.356912 
z
" style="fill:#1f77b4;"/>
   </g>
   <g id="patch_201">
    <path clip-path="url(#pe93985440a)" d="M 299.265525 288.430125 
L 300.285868 288.430125 
L 300.285868 253.380642 
L 299.265525 253.380642 
z
" style="fill:#1f77b4;"/>
   </g>
   <g id="patch_202">
    <path clip-path="url(#pe93985440a)" d="M 300.540954 288.430125 
L 301.561296 288.430125 
L 301.561296 253.63957 
L 300.540954 253.63957 
z
" style="fill:#1f77b4;"/>
   </g>
   <g id="patch_203">
    <path clip-path="url(#pe93985440a)" d="M 301.816382 288.430125 
L 302.836725 288.430125 
L 302.836725 253.73278 
L 301.816382 253.73278 
z
" style="fill:#1f77b4;"/>
   </g>
   <g id="patch_204">
    <path clip-path="url(#pe93985440a)" d="M 303.091811 288.430125 
L 304.112154 288.430125 
L 304.112154 253.917709 
L 303.091811 253.917709 
z
" style="fill:#1f77b4;"/>
   </g>
   <g id="patch_205">
    <path clip-path="url(#pe93985440a)" d="M 304.367239 288.430125 
L 305.387582 288.430125 
L 305.387582 253.997997 
L 304.367239 253.997997 
z
" style="fill:#1f77b4;"/>
   </g>
   <g id="patch_206">
    <path clip-path="url(#pe93985440a)" d="M 305.642668 288.430125 
L 306.663011 288.430125 
L 306.663011 254.225347 
L 305.642668 254.225347 
z
" style="fill:#1f77b4;"/>
   </g>
   <g id="patch_207">
    <path clip-path="url(#pe93985440a)" d="M 306.918096 288.430125 
L 307.938439 288.430125 
L 307.938439 254.292968 
L 306.918096 254.292968 
z
" style="fill:#1f77b4;"/>
   </g>
   <g id="patch_208">
    <path clip-path="url(#pe93985440a)" d="M 308.193525 288.430125 
L 309.213868 288.430125 
L 309.213868 254.449714 
L 308.193525 254.449714 
z
" style="fill:#1f77b4;"/>
   </g>
   <g id="patch_209">
    <path clip-path="url(#pe93985440a)" d="M 309.468954 288.430125 
L 310.489296 288.430125 
L 310.489296 254.649143 
L 309.468954 254.649143 
z
" style="fill:#1f77b4;"/>
   </g>
   <g id="patch_210">
    <path clip-path="url(#pe93985440a)" d="M 310.744382 288.430125 
L 311.764725 288.430125 
L 311.764725 254.758928 
L 310.744382 254.758928 
z
" style="fill:#1f77b4;"/>
   </g>
   <g id="patch_211">
    <path clip-path="url(#pe93985440a)" d="M 312.019811 288.430125 
L 313.040154 288.430125 
L 313.040154 254.911435 
L 312.019811 254.911435 
z
" style="fill:#1f77b4;"/>
   </g>
   <g id="patch_212">
    <path clip-path="url(#pe93985440a)" d="M 313.295239 288.430125 
L 314.315582 288.430125 
L 314.315582 255.084045 
L 313.295239 255.084045 
z
" style="fill:#1f77b4;"/>
   </g>
   <g id="patch_213">
    <path clip-path="url(#pe93985440a)" d="M 314.570668 288.430125 
L 315.591011 288.430125 
L 315.591011 255.151928 
L 314.570668 255.151928 
z
" style="fill:#1f77b4;"/>
   </g>
   <g id="patch_214">
    <path clip-path="url(#pe93985440a)" d="M 315.846096 288.430125 
L 316.866439 288.430125 
L 316.866439 255.279268 
L 315.846096 255.279268 
z
" style="fill:#1f77b4;"/>
   </g>
   <g id="patch_215">
    <path clip-path="url(#pe93985440a)" d="M 317.121525 288.430125 
L 318.141868 288.430125 
L 318.141868 255.416124 
L 317.121525 255.416124 
z
" style="fill:#1f77b4;"/>
   </g>
   <g id="patch_216">
    <path clip-path="url(#pe93985440a)" d="M 318.396954 288.430125 
L 319.417296 288.430125 
L 319.417296 255.416124 
L 318.396954 255.416124 
z
" style="fill:#1f77b4;"/>
   </g>
   <g id="patch_217">
    <path clip-path="url(#pe93985440a)" d="M 319.672382 288.430125 
L 320.692725 288.430125 
L 320.692725 255.655507 
L 319.672382 255.655507 
z
" style="fill:#1f77b4;"/>
   </g>
   <g id="patch_218">
    <path clip-path="url(#pe93985440a)" d="M 320.947811 288.430125 
L 321.968154 288.430125 
L 321.968154 255.840442 
L 320.947811 255.840442 
z
" style="fill:#1f77b4;"/>
   </g>
   <g id="patch_219">
    <path clip-path="url(#pe93985440a)" d="M 322.223239 288.430125 
L 323.243582 288.430125 
L 323.243582 255.982844 
L 322.223239 255.982844 
z
" style="fill:#1f77b4;"/>
   </g>
   <g id="patch_220">
    <path clip-path="url(#pe93985440a)" d="M 323.498668 288.430125 
L 324.519011 288.430125 
L 324.519011 256.063659 
L 323.498668 256.063659 
z
" style="fill:#1f77b4;"/>
   </g>
   <g id="patch_221">
    <path clip-path="url(#pe93985440a)" d="M 324.774096 288.430125 
L 325.794439 288.430125 
L 325.794439 255.973403 
L 324.774096 255.973403 
z
" style="fill:#1f77b4;"/>
   </g>
   <g id="patch_222">
    <path clip-path="url(#pe93985440a)" d="M 326.049525 288.430125 
L 327.069868 288.430125 
L 327.069868 256.013747 
L 326.049525 256.013747 
z
" style="fill:#1f77b4;"/>
   </g>
   <g id="patch_223">
    <path clip-path="url(#pe93985440a)" d="M 327.324954 288.430125 
L 328.345296 288.430125 
L 328.345296 255.833745 
L 327.324954 255.833745 
z
" style="fill:#1f77b4;"/>
   </g>
   <g id="patch_224">
    <path clip-path="url(#pe93985440a)" d="M 328.600382 288.430125 
L 329.620725 288.430125 
L 329.620725 255.924543 
L 328.600382 255.924543 
z
" style="fill:#1f77b4;"/>
   </g>
   <g id="patch_225">
    <path clip-path="url(#pe93985440a)" d="M 329.875811 288.430125 
L 330.896154 288.430125 
L 330.896154 255.974768 
L 329.875811 255.974768 
z
" style="fill:#1f77b4;"/>
   </g>
   <g id="patch_226">
    <path clip-path="url(#pe93985440a)" d="M 331.151239 288.430125 
L 332.171582 288.430125 
L 332.171582 256.004828 
L 331.151239 256.004828 
z
" style="fill:#1f77b4;"/>
   </g>
   <g id="patch_227">
    <path clip-path="url(#pe93985440a)" d="M 332.426668 288.430125 
L 333.447011 288.430125 
L 333.447011 256.084718 
L 332.426668 256.084718 
z
" style="fill:#1f77b4;"/>
   </g>
   <g id="patch_228">
    <path clip-path="url(#pe93985440a)" d="M 333.702096 288.430125 
L 334.722439 288.430125 
L 334.722439 255.82718 
L 333.702096 255.82718 
z
" style="fill:#1f77b4;"/>
   </g>
   <g id="patch_229">
    <path clip-path="url(#pe93985440a)" d="M 334.977525 288.430125 
L 335.997868 288.430125 
L 335.997868 255.768327 
L 334.977525 255.768327 
z
" style="fill:#1f77b4;"/>
   </g>
   <g id="patch_230">
    <path clip-path="url(#pe93985440a)" d="M 336.252954 288.430125 
L 337.273296 288.430125 
L 337.273296 255.403773 
L 336.252954 255.403773 
z
" style="fill:#1f77b4;"/>
   </g>
   <g id="patch_231">
    <path clip-path="url(#pe93985440a)" d="M 337.528382 288.430125 
L 338.548725 288.430125 
L 338.548725 255.20684 
L 337.528382 255.20684 
z
" style="fill:#1f77b4;"/>
   </g>
   <g id="patch_232">
    <path clip-path="url(#pe93985440a)" d="M 338.803811 288.430125 
L 339.824154 288.430125 
L 339.824154 255.050978 
L 338.803811 255.050978 
z
" style="fill:#1f77b4;"/>
   </g>
   <g id="patch_233">
    <path clip-path="url(#pe93985440a)" d="M 340.079239 288.430125 
L 341.099582 288.430125 
L 341.099582 254.699902 
L 340.079239 254.699902 
z
" style="fill:#1f77b4;"/>
   </g>
   <g id="patch_234">
    <path clip-path="url(#pe93985440a)" d="M 341.354668 288.430125 
L 342.375011 288.430125 
L 342.375011 254.406673 
L 341.354668 254.406673 
z
" style="fill:#1f77b4;"/>
   </g>
   <g id="patch_235">
    <path clip-path="url(#pe93985440a)" d="M 342.630096 288.430125 
L 343.650439 288.430125 
L 343.650439 254.058335 
L 342.630096 254.058335 
z
" style="fill:#1f77b4;"/>
   </g>
   <g id="patch_236">
    <path clip-path="url(#pe93985440a)" d="M 343.905525 288.430125 
L 344.925868 288.430125 
L 344.925868 253.98197 
L 343.905525 253.98197 
z
" style="fill:#1f77b4;"/>
   </g>
   <g id="patch_237">
    <path clip-path="url(#pe93985440a)" d="M 345.180954 288.430125 
L 346.201296 288.430125 
L 346.201296 253.819173 
L 345.180954 253.819173 
z
" style="fill:#1f77b4;"/>
   </g>
   <g id="patch_238">
    <path clip-path="url(#pe93985440a)" d="M 346.456382 288.430125 
L 347.476725 288.430125 
L 347.476725 253.495055 
L 346.456382 253.495055 
z
" style="fill:#1f77b4;"/>
   </g>
   <g id="patch_239">
    <path clip-path="url(#pe93985440a)" d="M 347.731811 288.430125 
L 348.752154 288.430125 
L 348.752154 262.559758 
L 347.731811 262.559758 
z
" style="fill:#1f77b4;"/>
   </g>
   <g id="patch_240">
    <path clip-path="url(#pe93985440a)" d="M 349.007239 288.430125 
L 350.027582 288.430125 
L 350.027582 263.851915 
L 349.007239 263.851915 
z
" style="fill:#1f77b4;"/>
   </g>
   <g id="patch_241">
    <path clip-path="url(#pe93985440a)" d="M 350.282668 288.430125 
L 351.303011 288.430125 
L 351.303011 264.886195 
L 350.282668 264.886195 
z
" style="fill:#1f77b4;"/>
   </g>
   <g id="patch_242">
    <path clip-path="url(#pe93985440a)" d="M 351.558096 288.430125 
L 352.578439 288.430125 
L 352.578439 265.311802 
L 351.558096 265.311802 
z
" style="fill:#1f77b4;"/>
   </g>
   <g id="patch_243">
    <path clip-path="url(#pe93985440a)" d="M 352.833525 288.430125 
L 353.853868 288.430125 
L 353.853868 265.521879 
L 352.833525 265.521879 
z
" style="fill:#1f77b4;"/>
   </g>
   <g id="patch_244">
    <path clip-path="url(#pe93985440a)" d="M 354.108954 288.430125 
L 355.129296 288.430125 
L 355.129296 265.622794 
L 354.108954 265.622794 
z
" style="fill:#1f77b4;"/>
   </g>
   <g id="patch_245">
    <path clip-path="url(#pe93985440a)" d="M 355.384382 288.430125 
L 356.404725 288.430125 
L 356.404725 266.587008 
L 355.384382 266.587008 
z
" style="fill:#1f77b4;"/>
   </g>
   <g id="patch_246">
    <path clip-path="url(#pe93985440a)" d="M 356.659811 288.430125 
L 357.680154 288.430125 
L 357.680154 267.265662 
L 356.659811 267.265662 
z
" style="fill:#1f77b4;"/>
   </g>
   <g id="patch_247">
    <path clip-path="url(#pe93985440a)" d="M 357.935239 288.430125 
L 358.955582 288.430125 
L 358.955582 268.101287 
L 357.935239 268.101287 
z
" style="fill:#1f77b4;"/>
   </g>
   <g id="patch_248">
    <path clip-path="url(#pe93985440a)" d="M 359.210668 288.430125 
L 360.231011 288.430125 
L 360.231011 268.290826 
L 359.210668 268.290826 
z
" style="fill:#1f77b4;"/>
   </g>
   <g id="patch_249">
    <path clip-path="url(#pe93985440a)" d="M 360.486096 288.430125 
L 361.506439 288.430125 
L 361.506439 268.685624 
L 360.486096 268.685624 
z
" style="fill:#1f77b4;"/>
   </g>
   <g id="patch_250">
    <path clip-path="url(#pe93985440a)" d="M 361.761525 288.430125 
L 362.781868 288.430125 
L 362.781868 268.587652 
L 361.761525 268.587652 
z
" style="fill:#1f77b4;"/>
   </g>
   <g id="patch_251">
    <path clip-path="url(#pe93985440a)" d="M 363.036954 288.430125 
L 364.057296 288.430125 
L 364.057296 269.057463 
L 363.036954 269.057463 
z
" style="fill:#1f77b4;"/>
   </g>
   <g id="patch_252">
    <path clip-path="url(#pe93985440a)" d="M 364.312382 288.430125 
L 365.332725 288.430125 
L 365.332725 269.42445 
L 364.312382 269.42445 
z
" style="fill:#1f77b4;"/>
   </g>
   <g id="patch_253">
    <path clip-path="url(#pe93985440a)" d="M 365.587811 288.430125 
L 366.608154 288.430125 
L 366.608154 270.042031 
L 365.587811 270.042031 
z
" style="fill:#1f77b4;"/>
   </g>
   <g id="patch_254">
    <path clip-path="url(#pe93985440a)" d="M 366.863239 288.430125 
L 367.883582 288.430125 
L 367.883582 270.195977 
L 366.863239 270.195977 
z
" style="fill:#1f77b4;"/>
   </g>
   <g id="patch_255">
    <path clip-path="url(#pe93985440a)" d="M 368.138668 288.430125 
L 369.159011 288.430125 
L 369.159011 271.052441 
L 368.138668 271.052441 
z
" style="fill:#1f77b4;"/>
   </g>
   <g id="patch_256">
    <path clip-path="url(#pe93985440a)" d="M 369.414096 288.430125 
L 370.434439 288.430125 
L 370.434439 271.347059 
L 369.414096 271.347059 
z
" style="fill:#1f77b4;"/>
   </g>
   <g id="patch_257">
    <path clip-path="url(#pe93985440a)" d="M 370.689525 288.430125 
L 371.709868 288.430125 
L 371.709868 270.981325 
L 370.689525 270.981325 
z
" style="fill:#1f77b4;"/>
   </g>
   <g id="patch_258">
    <path clip-path="url(#pe93985440a)" d="M 371.964954 288.430125 
L 372.985296 288.430125 
L 372.985296 271.375944 
L 371.964954 271.375944 
z
" style="fill:#1f77b4;"/>
   </g>
   <g id="patch_259">
    <path clip-path="url(#pe93985440a)" d="M 373.240382 288.430125 
L 374.260725 288.430125 
L 374.260725 271.712422 
L 373.240382 271.712422 
z
" style="fill:#1f77b4;"/>
   </g>
   <g id="patch_260">
    <path clip-path="url(#pe93985440a)" d="M 374.515811 288.430125 
L 375.536154 288.430125 
L 375.536154 271.927055 
L 374.515811 271.927055 
z
" style="fill:#1f77b4;"/>
   </g>
   <g id="patch_261">
    <path clip-path="url(#pe93985440a)" d="M 375.791239 288.430125 
L 376.811582 288.430125 
L 376.811582 272.431438 
L 375.791239 272.431438 
z
" style="fill:#1f77b4;"/>
   </g>
   <g id="patch_262">
    <path clip-path="url(#pe93985440a)" d="M 377.066668 288.430125 
L 378.087011 288.430125 
L 378.087011 273.087669 
L 377.066668 273.087669 
z
" style="fill:#1f77b4;"/>
   </g>
   <g id="patch_263">
    <path clip-path="url(#pe93985440a)" d="M 378.342096 288.430125 
L 379.362439 288.430125 
L 379.362439 273.303084 
L 378.342096 273.303084 
z
" style="fill:#1f77b4;"/>
   </g>
   <g id="patch_264">
    <path clip-path="url(#pe93985440a)" d="M 379.617525 288.430125 
L 380.637868 288.430125 
L 380.637868 273.332172 
L 379.617525 273.332172 
z
" style="fill:#1f77b4;"/>
   </g>
   <g id="patch_265">
    <path clip-path="url(#pe93985440a)" d="M 380.892954 288.430125 
L 381.913296 288.430125 
L 381.913296 273.47482 
L 380.892954 273.47482 
z
" style="fill:#1f77b4;"/>
   </g>
   <g id="patch_266">
    <path clip-path="url(#pe93985440a)" d="M 382.168382 288.430125 
L 383.188725 288.430125 
L 383.188725 273.59628 
L 382.168382 273.59628 
z
" style="fill:#1f77b4;"/>
   </g>
   <g id="patch_267">
    <path clip-path="url(#pe93985440a)" d="M 383.443811 288.430125 
L 384.464154 288.430125 
L 384.464154 273.651536 
L 383.443811 273.651536 
z
" style="fill:#1f77b4;"/>
   </g>
   <g id="patch_268">
    <path clip-path="url(#pe93985440a)" d="M 384.719239 288.430125 
L 385.739582 288.430125 
L 385.739582 273.934392 
L 384.719239 273.934392 
z
" style="fill:#1f77b4;"/>
   </g>
   <g id="patch_269">
    <path clip-path="url(#pe93985440a)" d="M 385.994668 288.430125 
L 387.015011 288.430125 
L 387.015011 274.227656 
L 385.994668 274.227656 
z
" style="fill:#1f77b4;"/>
   </g>
   <g id="patch_270">
    <path clip-path="url(#pe93985440a)" d="M 387.270096 288.430125 
L 388.290439 288.430125 
L 388.290439 274.221888 
L 387.270096 274.221888 
z
" style="fill:#1f77b4;"/>
   </g>
   <g id="patch_271">
    <path clip-path="url(#pe93985440a)" d="M 388.545525 288.430125 
L 389.565868 288.430125 
L 389.565868 274.065301 
L 388.545525 274.065301 
z
" style="fill:#1f77b4;"/>
   </g>
   <g id="patch_272">
    <path clip-path="url(#pe93985440a)" d="M 389.820954 288.430125 
L 390.841296 288.430125 
L 390.841296 274.049875 
L 389.820954 274.049875 
z
" style="fill:#1f77b4;"/>
   </g>
   <g id="patch_273">
    <path clip-path="url(#pe93985440a)" d="M 391.096382 288.430125 
L 392.116725 288.430125 
L 392.116725 274.246755 
L 391.096382 274.246755 
z
" style="fill:#1f77b4;"/>
   </g>
   <g id="patch_274">
    <path clip-path="url(#pe93985440a)" d="M 392.371811 288.430125 
L 393.392154 288.430125 
L 393.392154 274.153048 
L 392.371811 274.153048 
z
" style="fill:#1f77b4;"/>
   </g>
   <g id="patch_275">
    <path clip-path="url(#pe93985440a)" d="M 393.647239 288.430125 
L 394.667582 288.430125 
L 394.667582 274.291897 
L 393.647239 274.291897 
z
" style="fill:#1f77b4;"/>
   </g>
   <g id="patch_276">
    <path clip-path="url(#pe93985440a)" d="M 394.922668 288.430125 
L 395.943011 288.430125 
L 395.943011 274.443557 
L 394.922668 274.443557 
z
" style="fill:#1f77b4;"/>
   </g>
   <g id="patch_277">
    <path clip-path="url(#pe93985440a)" d="M 396.198096 288.430125 
L 397.218439 288.430125 
L 397.218439 274.292549 
L 396.198096 274.292549 
z
" style="fill:#1f77b4;"/>
   </g>
   <g id="patch_278">
    <path clip-path="url(#pe93985440a)" d="M 397.473525 288.430125 
L 398.493868 288.430125 
L 398.493868 274.137414 
L 397.473525 274.137414 
z
" style="fill:#1f77b4;"/>
   </g>
   <g id="patch_279">
    <path clip-path="url(#pe93985440a)" d="M 398.748954 288.430125 
L 399.769296 288.430125 
L 399.769296 274.127 
L 398.748954 274.127 
z
" style="fill:#1f77b4;"/>
   </g>
   <g id="patch_280">
    <path clip-path="url(#pe93985440a)" d="M 400.024382 288.430125 
L 401.044725 288.430125 
L 401.044725 274.216365 
L 400.024382 274.216365 
z
" style="fill:#1f77b4;"/>
   </g>
   <g id="patch_281">
    <path clip-path="url(#pe93985440a)" d="M 401.299811 288.430125 
L 402.320154 288.430125 
L 402.320154 274.206482 
L 401.299811 274.206482 
z
" style="fill:#1f77b4;"/>
   </g>
   <g id="patch_282">
    <path clip-path="url(#pe93985440a)" d="M 402.575239 288.430125 
L 403.595582 288.430125 
L 403.595582 274.146837 
L 402.575239 274.146837 
z
" style="fill:#1f77b4;"/>
   </g>
   <g id="matplotlib.axis_1">
    <g id="xtick_1">
     <g id="line2d_1">
      <defs>
       <path d="M 0 0 
L 0 3.5 
" id="m101b490d05" style="stroke:#000000;stroke-width:0.8;"/>
      </defs>
      <g>
       <use style="stroke:#000000;stroke-width:0.8;" x="68.923125" xlink:href="#m101b490d05" y="288.430125"/>
      </g>
     </g>
     <g id="text_1">
      <!-- 2020-04 -->
      <g transform="translate(71.6825 337.212937)rotate(-90)scale(0.1 -0.1)">
       <defs>
        <path d="M 19.1875 8.296875 
L 53.609375 8.296875 
L 53.609375 0 
L 7.328125 0 
L 7.328125 8.296875 
Q 12.9375 14.109375 22.625 23.890625 
Q 32.328125 33.6875 34.8125 36.53125 
Q 39.546875 41.84375 41.421875 45.53125 
Q 43.3125 49.21875 43.3125 52.78125 
Q 43.3125 58.59375 39.234375 62.25 
Q 35.15625 65.921875 28.609375 65.921875 
Q 23.96875 65.921875 18.8125 64.3125 
Q 13.671875 62.703125 7.8125 59.421875 
L 7.8125 69.390625 
Q 13.765625 71.78125 18.9375 73 
Q 24.125 74.21875 28.421875 74.21875 
Q 39.75 74.21875 46.484375 68.546875 
Q 53.21875 62.890625 53.21875 53.421875 
Q 53.21875 48.921875 51.53125 44.890625 
Q 49.859375 40.875 45.40625 35.40625 
Q 44.1875 33.984375 37.640625 27.21875 
Q 31.109375 20.453125 19.1875 8.296875 
z
" id="DejaVuSans-50"/>
        <path d="M 31.78125 66.40625 
Q 24.171875 66.40625 20.328125 58.90625 
Q 16.5 51.421875 16.5 36.375 
Q 16.5 21.390625 20.328125 13.890625 
Q 24.171875 6.390625 31.78125 6.390625 
Q 39.453125 6.390625 43.28125 13.890625 
Q 47.125 21.390625 47.125 36.375 
Q 47.125 51.421875 43.28125 58.90625 
Q 39.453125 66.40625 31.78125 66.40625 
z
M 31.78125 74.21875 
Q 44.046875 74.21875 50.515625 64.515625 
Q 56.984375 54.828125 56.984375 36.375 
Q 56.984375 17.96875 50.515625 8.265625 
Q 44.046875 -1.421875 31.78125 -1.421875 
Q 19.53125 -1.421875 13.0625 8.265625 
Q 6.59375 17.96875 6.59375 36.375 
Q 6.59375 54.828125 13.0625 64.515625 
Q 19.53125 74.21875 31.78125 74.21875 
z
" id="DejaVuSans-48"/>
        <path d="M 4.890625 31.390625 
L 31.203125 31.390625 
L 31.203125 23.390625 
L 4.890625 23.390625 
z
" id="DejaVuSans-45"/>
        <path d="M 37.796875 64.3125 
L 12.890625 25.390625 
L 37.796875 25.390625 
z
M 35.203125 72.90625 
L 47.609375 72.90625 
L 47.609375 25.390625 
L 58.015625 25.390625 
L 58.015625 17.1875 
L 47.609375 17.1875 
L 47.609375 0 
L 37.796875 0 
L 37.796875 17.1875 
L 4.890625 17.1875 
L 4.890625 26.703125 
z
" id="DejaVuSans-52"/>
       </defs>
       <use xlink:href="#DejaVuSans-50"/>
       <use x="63.623047" xlink:href="#DejaVuSans-48"/>
       <use x="127.246094" xlink:href="#DejaVuSans-50"/>
       <use x="190.869141" xlink:href="#DejaVuSans-48"/>
       <use x="254.492188" xlink:href="#DejaVuSans-45"/>
       <use x="290.576172" xlink:href="#DejaVuSans-48"/>
       <use x="354.199219" xlink:href="#DejaVuSans-52"/>
      </g>
     </g>
    </g>
    <g id="xtick_2">
     <g id="line2d_2">
      <g>
       <use style="stroke:#000000;stroke-width:0.8;" x="107.185982" xlink:href="#m101b490d05" y="288.430125"/>
      </g>
     </g>
     <g id="text_2">
      <!-- 2020-05 -->
      <g transform="translate(109.945357 337.212937)rotate(-90)scale(0.1 -0.1)">
       <defs>
        <path d="M 10.796875 72.90625 
L 49.515625 72.90625 
L 49.515625 64.59375 
L 19.828125 64.59375 
L 19.828125 46.734375 
Q 21.96875 47.46875 24.109375 47.828125 
Q 26.265625 48.1875 28.421875 48.1875 
Q 40.625 48.1875 47.75 41.5 
Q 54.890625 34.8125 54.890625 23.390625 
Q 54.890625 11.625 47.5625 5.09375 
Q 40.234375 -1.421875 26.90625 -1.421875 
Q 22.3125 -1.421875 17.546875 -0.640625 
Q 12.796875 0.140625 7.71875 1.703125 
L 7.71875 11.625 
Q 12.109375 9.234375 16.796875 8.0625 
Q 21.484375 6.890625 26.703125 6.890625 
Q 35.15625 6.890625 40.078125 11.328125 
Q 45.015625 15.765625 45.015625 23.390625 
Q 45.015625 31 40.078125 35.4375 
Q 35.15625 39.890625 26.703125 39.890625 
Q 22.75 39.890625 18.8125 39.015625 
Q 14.890625 38.140625 10.796875 36.28125 
z
" id="DejaVuSans-53"/>
       </defs>
       <use xlink:href="#DejaVuSans-50"/>
       <use x="63.623047" xlink:href="#DejaVuSans-48"/>
       <use x="127.246094" xlink:href="#DejaVuSans-50"/>
       <use x="190.869141" xlink:href="#DejaVuSans-48"/>
       <use x="254.492188" xlink:href="#DejaVuSans-45"/>
       <use x="290.576172" xlink:href="#DejaVuSans-48"/>
       <use x="354.199219" xlink:href="#DejaVuSans-53"/>
      </g>
     </g>
    </g>
    <g id="xtick_3">
     <g id="line2d_3">
      <g>
       <use style="stroke:#000000;stroke-width:0.8;" x="146.724268" xlink:href="#m101b490d05" y="288.430125"/>
      </g>
     </g>
     <g id="text_3">
      <!-- 2020-06 -->
      <g transform="translate(149.483643 337.212937)rotate(-90)scale(0.1 -0.1)">
       <defs>
        <path d="M 33.015625 40.375 
Q 26.375 40.375 22.484375 35.828125 
Q 18.609375 31.296875 18.609375 23.390625 
Q 18.609375 15.53125 22.484375 10.953125 
Q 26.375 6.390625 33.015625 6.390625 
Q 39.65625 6.390625 43.53125 10.953125 
Q 47.40625 15.53125 47.40625 23.390625 
Q 47.40625 31.296875 43.53125 35.828125 
Q 39.65625 40.375 33.015625 40.375 
z
M 52.59375 71.296875 
L 52.59375 62.3125 
Q 48.875 64.0625 45.09375 64.984375 
Q 41.3125 65.921875 37.59375 65.921875 
Q 27.828125 65.921875 22.671875 59.328125 
Q 17.53125 52.734375 16.796875 39.40625 
Q 19.671875 43.65625 24.015625 45.921875 
Q 28.375 48.1875 33.59375 48.1875 
Q 44.578125 48.1875 50.953125 41.515625 
Q 57.328125 34.859375 57.328125 23.390625 
Q 57.328125 12.15625 50.6875 5.359375 
Q 44.046875 -1.421875 33.015625 -1.421875 
Q 20.359375 -1.421875 13.671875 8.265625 
Q 6.984375 17.96875 6.984375 36.375 
Q 6.984375 53.65625 15.1875 63.9375 
Q 23.390625 74.21875 37.203125 74.21875 
Q 40.921875 74.21875 44.703125 73.484375 
Q 48.484375 72.75 52.59375 71.296875 
z
" id="DejaVuSans-54"/>
       </defs>
       <use xlink:href="#DejaVuSans-50"/>
       <use x="63.623047" xlink:href="#DejaVuSans-48"/>
       <use x="127.246094" xlink:href="#DejaVuSans-50"/>
       <use x="190.869141" xlink:href="#DejaVuSans-48"/>
       <use x="254.492188" xlink:href="#DejaVuSans-45"/>
       <use x="290.576172" xlink:href="#DejaVuSans-48"/>
       <use x="354.199219" xlink:href="#DejaVuSans-54"/>
      </g>
     </g>
    </g>
    <g id="xtick_4">
     <g id="line2d_4">
      <g>
       <use style="stroke:#000000;stroke-width:0.8;" x="184.987125" xlink:href="#m101b490d05" y="288.430125"/>
      </g>
     </g>
     <g id="text_4">
      <!-- 2020-07 -->
      <g transform="translate(187.7465 337.212937)rotate(-90)scale(0.1 -0.1)">
       <defs>
        <path d="M 8.203125 72.90625 
L 55.078125 72.90625 
L 55.078125 68.703125 
L 28.609375 0 
L 18.3125 0 
L 43.21875 64.59375 
L 8.203125 64.59375 
z
" id="DejaVuSans-55"/>
       </defs>
       <use xlink:href="#DejaVuSans-50"/>
       <use x="63.623047" xlink:href="#DejaVuSans-48"/>
       <use x="127.246094" xlink:href="#DejaVuSans-50"/>
       <use x="190.869141" xlink:href="#DejaVuSans-48"/>
       <use x="254.492188" xlink:href="#DejaVuSans-45"/>
       <use x="290.576172" xlink:href="#DejaVuSans-48"/>
       <use x="354.199219" xlink:href="#DejaVuSans-55"/>
      </g>
     </g>
    </g>
    <g id="xtick_5">
     <g id="line2d_5">
      <g>
       <use style="stroke:#000000;stroke-width:0.8;" x="224.525411" xlink:href="#m101b490d05" y="288.430125"/>
      </g>
     </g>
     <g id="text_5">
      <!-- 2020-08 -->
      <g transform="translate(227.284786 337.212937)rotate(-90)scale(0.1 -0.1)">
       <defs>
        <path d="M 31.78125 34.625 
Q 24.75 34.625 20.71875 30.859375 
Q 16.703125 27.09375 16.703125 20.515625 
Q 16.703125 13.921875 20.71875 10.15625 
Q 24.75 6.390625 31.78125 6.390625 
Q 38.8125 6.390625 42.859375 10.171875 
Q 46.921875 13.96875 46.921875 20.515625 
Q 46.921875 27.09375 42.890625 30.859375 
Q 38.875 34.625 31.78125 34.625 
z
M 21.921875 38.8125 
Q 15.578125 40.375 12.03125 44.71875 
Q 8.5 49.078125 8.5 55.328125 
Q 8.5 64.0625 14.71875 69.140625 
Q 20.953125 74.21875 31.78125 74.21875 
Q 42.671875 74.21875 48.875 69.140625 
Q 55.078125 64.0625 55.078125 55.328125 
Q 55.078125 49.078125 51.53125 44.71875 
Q 48 40.375 41.703125 38.8125 
Q 48.828125 37.15625 52.796875 32.3125 
Q 56.78125 27.484375 56.78125 20.515625 
Q 56.78125 9.90625 50.3125 4.234375 
Q 43.84375 -1.421875 31.78125 -1.421875 
Q 19.734375 -1.421875 13.25 4.234375 
Q 6.78125 9.90625 6.78125 20.515625 
Q 6.78125 27.484375 10.78125 32.3125 
Q 14.796875 37.15625 21.921875 38.8125 
z
M 18.3125 54.390625 
Q 18.3125 48.734375 21.84375 45.5625 
Q 25.390625 42.390625 31.78125 42.390625 
Q 38.140625 42.390625 41.71875 45.5625 
Q 45.3125 48.734375 45.3125 54.390625 
Q 45.3125 60.0625 41.71875 63.234375 
Q 38.140625 66.40625 31.78125 66.40625 
Q 25.390625 66.40625 21.84375 63.234375 
Q 18.3125 60.0625 18.3125 54.390625 
z
" id="DejaVuSans-56"/>
       </defs>
       <use xlink:href="#DejaVuSans-50"/>
       <use x="63.623047" xlink:href="#DejaVuSans-48"/>
       <use x="127.246094" xlink:href="#DejaVuSans-50"/>
       <use x="190.869141" xlink:href="#DejaVuSans-48"/>
       <use x="254.492188" xlink:href="#DejaVuSans-45"/>
       <use x="290.576172" xlink:href="#DejaVuSans-48"/>
       <use x="354.199219" xlink:href="#DejaVuSans-56"/>
      </g>
     </g>
    </g>
    <g id="xtick_6">
     <g id="line2d_6">
      <g>
       <use style="stroke:#000000;stroke-width:0.8;" x="264.063696" xlink:href="#m101b490d05" y="288.430125"/>
      </g>
     </g>
     <g id="text_6">
      <!-- 2020-09 -->
      <g transform="translate(266.823071 337.212937)rotate(-90)scale(0.1 -0.1)">
       <defs>
        <path d="M 10.984375 1.515625 
L 10.984375 10.5 
Q 14.703125 8.734375 18.5 7.8125 
Q 22.3125 6.890625 25.984375 6.890625 
Q 35.75 6.890625 40.890625 13.453125 
Q 46.046875 20.015625 46.78125 33.40625 
Q 43.953125 29.203125 39.59375 26.953125 
Q 35.25 24.703125 29.984375 24.703125 
Q 19.046875 24.703125 12.671875 31.3125 
Q 6.296875 37.9375 6.296875 49.421875 
Q 6.296875 60.640625 12.9375 67.421875 
Q 19.578125 74.21875 30.609375 74.21875 
Q 43.265625 74.21875 49.921875 64.515625 
Q 56.59375 54.828125 56.59375 36.375 
Q 56.59375 19.140625 48.40625 8.859375 
Q 40.234375 -1.421875 26.421875 -1.421875 
Q 22.703125 -1.421875 18.890625 -0.6875 
Q 15.09375 0.046875 10.984375 1.515625 
z
M 30.609375 32.421875 
Q 37.25 32.421875 41.125 36.953125 
Q 45.015625 41.5 45.015625 49.421875 
Q 45.015625 57.28125 41.125 61.84375 
Q 37.25 66.40625 30.609375 66.40625 
Q 23.96875 66.40625 20.09375 61.84375 
Q 16.21875 57.28125 16.21875 49.421875 
Q 16.21875 41.5 20.09375 36.953125 
Q 23.96875 32.421875 30.609375 32.421875 
z
" id="DejaVuSans-57"/>
       </defs>
       <use xlink:href="#DejaVuSans-50"/>
       <use x="63.623047" xlink:href="#DejaVuSans-48"/>
       <use x="127.246094" xlink:href="#DejaVuSans-50"/>
       <use x="190.869141" xlink:href="#DejaVuSans-48"/>
       <use x="254.492188" xlink:href="#DejaVuSans-45"/>
       <use x="290.576172" xlink:href="#DejaVuSans-48"/>
       <use x="354.199219" xlink:href="#DejaVuSans-57"/>
      </g>
     </g>
    </g>
    <g id="xtick_7">
     <g id="line2d_7">
      <g>
       <use style="stroke:#000000;stroke-width:0.8;" x="302.326554" xlink:href="#m101b490d05" y="288.430125"/>
      </g>
     </g>
     <g id="text_7">
      <!-- 2020-10 -->
      <g transform="translate(305.085929 337.212937)rotate(-90)scale(0.1 -0.1)">
       <defs>
        <path d="M 12.40625 8.296875 
L 28.515625 8.296875 
L 28.515625 63.921875 
L 10.984375 60.40625 
L 10.984375 69.390625 
L 28.421875 72.90625 
L 38.28125 72.90625 
L 38.28125 8.296875 
L 54.390625 8.296875 
L 54.390625 0 
L 12.40625 0 
z
" id="DejaVuSans-49"/>
       </defs>
       <use xlink:href="#DejaVuSans-50"/>
       <use x="63.623047" xlink:href="#DejaVuSans-48"/>
       <use x="127.246094" xlink:href="#DejaVuSans-50"/>
       <use x="190.869141" xlink:href="#DejaVuSans-48"/>
       <use x="254.492188" xlink:href="#DejaVuSans-45"/>
       <use x="290.576172" xlink:href="#DejaVuSans-49"/>
       <use x="354.199219" xlink:href="#DejaVuSans-48"/>
      </g>
     </g>
    </g>
    <g id="xtick_8">
     <g id="line2d_8">
      <g>
       <use style="stroke:#000000;stroke-width:0.8;" x="341.864839" xlink:href="#m101b490d05" y="288.430125"/>
      </g>
     </g>
     <g id="text_8">
      <!-- 2020-11 -->
      <g transform="translate(344.624214 337.212937)rotate(-90)scale(0.1 -0.1)">
       <use xlink:href="#DejaVuSans-50"/>
       <use x="63.623047" xlink:href="#DejaVuSans-48"/>
       <use x="127.246094" xlink:href="#DejaVuSans-50"/>
       <use x="190.869141" xlink:href="#DejaVuSans-48"/>
       <use x="254.492188" xlink:href="#DejaVuSans-45"/>
       <use x="290.576172" xlink:href="#DejaVuSans-49"/>
       <use x="354.199219" xlink:href="#DejaVuSans-49"/>
      </g>
     </g>
    </g>
    <g id="xtick_9">
     <g id="line2d_9">
      <g>
       <use style="stroke:#000000;stroke-width:0.8;" x="380.127696" xlink:href="#m101b490d05" y="288.430125"/>
      </g>
     </g>
     <g id="text_9">
      <!-- 2020-12 -->
      <g transform="translate(382.887071 337.212937)rotate(-90)scale(0.1 -0.1)">
       <use xlink:href="#DejaVuSans-50"/>
       <use x="63.623047" xlink:href="#DejaVuSans-48"/>
       <use x="127.246094" xlink:href="#DejaVuSans-50"/>
       <use x="190.869141" xlink:href="#DejaVuSans-48"/>
       <use x="254.492188" xlink:href="#DejaVuSans-45"/>
       <use x="290.576172" xlink:href="#DejaVuSans-49"/>
       <use x="354.199219" xlink:href="#DejaVuSans-50"/>
      </g>
     </g>
    </g>
    <g id="text_10">
     <!-- date -->
     <g transform="translate(213.888125 354.811375)scale(0.1 -0.1)">
      <defs>
       <path d="M 45.40625 46.390625 
L 45.40625 75.984375 
L 54.390625 75.984375 
L 54.390625 0 
L 45.40625 0 
L 45.40625 8.203125 
Q 42.578125 3.328125 38.25 0.953125 
Q 33.9375 -1.421875 27.875 -1.421875 
Q 17.96875 -1.421875 11.734375 6.484375 
Q 5.515625 14.40625 5.515625 27.296875 
Q 5.515625 40.1875 11.734375 48.09375 
Q 17.96875 56 27.875 56 
Q 33.9375 56 38.25 53.625 
Q 42.578125 51.265625 45.40625 46.390625 
z
M 14.796875 27.296875 
Q 14.796875 17.390625 18.875 11.75 
Q 22.953125 6.109375 30.078125 6.109375 
Q 37.203125 6.109375 41.296875 11.75 
Q 45.40625 17.390625 45.40625 27.296875 
Q 45.40625 37.203125 41.296875 42.84375 
Q 37.203125 48.484375 30.078125 48.484375 
Q 22.953125 48.484375 18.875 42.84375 
Q 14.796875 37.203125 14.796875 27.296875 
z
" id="DejaVuSans-100"/>
       <path d="M 34.28125 27.484375 
Q 23.390625 27.484375 19.1875 25 
Q 14.984375 22.515625 14.984375 16.5 
Q 14.984375 11.71875 18.140625 8.90625 
Q 21.296875 6.109375 26.703125 6.109375 
Q 34.1875 6.109375 38.703125 11.40625 
Q 43.21875 16.703125 43.21875 25.484375 
L 43.21875 27.484375 
z
M 52.203125 31.203125 
L 52.203125 0 
L 43.21875 0 
L 43.21875 8.296875 
Q 40.140625 3.328125 35.546875 0.953125 
Q 30.953125 -1.421875 24.3125 -1.421875 
Q 15.921875 -1.421875 10.953125 3.296875 
Q 6 8.015625 6 15.921875 
Q 6 25.140625 12.171875 29.828125 
Q 18.359375 34.515625 30.609375 34.515625 
L 43.21875 34.515625 
L 43.21875 35.40625 
Q 43.21875 41.609375 39.140625 45 
Q 35.0625 48.390625 27.6875 48.390625 
Q 23 48.390625 18.546875 47.265625 
Q 14.109375 46.140625 10.015625 43.890625 
L 10.015625 52.203125 
Q 14.9375 54.109375 19.578125 55.046875 
Q 24.21875 56 28.609375 56 
Q 40.484375 56 46.34375 49.84375 
Q 52.203125 43.703125 52.203125 31.203125 
z
" id="DejaVuSans-97"/>
       <path d="M 18.3125 70.21875 
L 18.3125 54.6875 
L 36.8125 54.6875 
L 36.8125 47.703125 
L 18.3125 47.703125 
L 18.3125 18.015625 
Q 18.3125 11.328125 20.140625 9.421875 
Q 21.96875 7.515625 27.59375 7.515625 
L 36.8125 7.515625 
L 36.8125 0 
L 27.59375 0 
Q 17.1875 0 13.234375 3.875 
Q 9.28125 7.765625 9.28125 18.015625 
L 9.28125 47.703125 
L 2.6875 47.703125 
L 2.6875 54.6875 
L 9.28125 54.6875 
L 9.28125 70.21875 
z
" id="DejaVuSans-116"/>
       <path d="M 56.203125 29.59375 
L 56.203125 25.203125 
L 14.890625 25.203125 
Q 15.484375 15.921875 20.484375 11.0625 
Q 25.484375 6.203125 34.421875 6.203125 
Q 39.59375 6.203125 44.453125 7.46875 
Q 49.3125 8.734375 54.109375 11.28125 
L 54.109375 2.78125 
Q 49.265625 0.734375 44.1875 -0.34375 
Q 39.109375 -1.421875 33.890625 -1.421875 
Q 20.796875 -1.421875 13.15625 6.1875 
Q 5.515625 13.8125 5.515625 26.8125 
Q 5.515625 40.234375 12.765625 48.109375 
Q 20.015625 56 32.328125 56 
Q 43.359375 56 49.78125 48.890625 
Q 56.203125 41.796875 56.203125 29.59375 
z
M 47.21875 32.234375 
Q 47.125 39.59375 43.09375 43.984375 
Q 39.0625 48.390625 32.421875 48.390625 
Q 24.90625 48.390625 20.390625 44.140625 
Q 15.875 39.890625 15.1875 32.171875 
z
" id="DejaVuSans-101"/>
      </defs>
      <use xlink:href="#DejaVuSans-100"/>
      <use x="63.476562" xlink:href="#DejaVuSans-97"/>
      <use x="124.755859" xlink:href="#DejaVuSans-116"/>
      <use x="163.964844" xlink:href="#DejaVuSans-101"/>
     </g>
    </g>
   </g>
   <g id="matplotlib.axis_2">
    <g id="ytick_1">
     <g id="line2d_10">
      <defs>
       <path d="M 0 0 
L -3.5 0 
" id="m41a106a10f" style="stroke:#000000;stroke-width:0.8;"/>
      </defs>
      <g>
       <use style="stroke:#000000;stroke-width:0.8;" x="46.603125" xlink:href="#m41a106a10f" y="288.430125"/>
      </g>
     </g>
     <g id="text_11">
      <!-- 0 -->
      <g transform="translate(33.240625 292.229344)scale(0.1 -0.1)">
       <use xlink:href="#DejaVuSans-48"/>
      </g>
     </g>
    </g>
    <g id="ytick_2">
     <g id="line2d_11">
      <g>
       <use style="stroke:#000000;stroke-width:0.8;" x="46.603125" xlink:href="#m41a106a10f" y="252.948525"/>
      </g>
     </g>
     <g id="text_12">
      <!-- 10 -->
      <g transform="translate(26.878125 256.747744)scale(0.1 -0.1)">
       <use xlink:href="#DejaVuSans-49"/>
       <use x="63.623047" xlink:href="#DejaVuSans-48"/>
      </g>
     </g>
    </g>
    <g id="ytick_3">
     <g id="line2d_12">
      <g>
       <use style="stroke:#000000;stroke-width:0.8;" x="46.603125" xlink:href="#m41a106a10f" y="217.466925"/>
      </g>
     </g>
     <g id="text_13">
      <!-- 20 -->
      <g transform="translate(26.878125 221.266144)scale(0.1 -0.1)">
       <use xlink:href="#DejaVuSans-50"/>
       <use x="63.623047" xlink:href="#DejaVuSans-48"/>
      </g>
     </g>
    </g>
    <g id="ytick_4">
     <g id="line2d_13">
      <g>
       <use style="stroke:#000000;stroke-width:0.8;" x="46.603125" xlink:href="#m41a106a10f" y="181.985325"/>
      </g>
     </g>
     <g id="text_14">
      <!-- 30 -->
      <g transform="translate(26.878125 185.784544)scale(0.1 -0.1)">
       <defs>
        <path d="M 40.578125 39.3125 
Q 47.65625 37.796875 51.625 33 
Q 55.609375 28.21875 55.609375 21.1875 
Q 55.609375 10.40625 48.1875 4.484375 
Q 40.765625 -1.421875 27.09375 -1.421875 
Q 22.515625 -1.421875 17.65625 -0.515625 
Q 12.796875 0.390625 7.625 2.203125 
L 7.625 11.71875 
Q 11.71875 9.328125 16.59375 8.109375 
Q 21.484375 6.890625 26.8125 6.890625 
Q 36.078125 6.890625 40.9375 10.546875 
Q 45.796875 14.203125 45.796875 21.1875 
Q 45.796875 27.640625 41.28125 31.265625 
Q 36.765625 34.90625 28.71875 34.90625 
L 20.21875 34.90625 
L 20.21875 43.015625 
L 29.109375 43.015625 
Q 36.375 43.015625 40.234375 45.921875 
Q 44.09375 48.828125 44.09375 54.296875 
Q 44.09375 59.90625 40.109375 62.90625 
Q 36.140625 65.921875 28.71875 65.921875 
Q 24.65625 65.921875 20.015625 65.03125 
Q 15.375 64.15625 9.8125 62.3125 
L 9.8125 71.09375 
Q 15.4375 72.65625 20.34375 73.4375 
Q 25.25 74.21875 29.59375 74.21875 
Q 40.828125 74.21875 47.359375 69.109375 
Q 53.90625 64.015625 53.90625 55.328125 
Q 53.90625 49.265625 50.4375 45.09375 
Q 46.96875 40.921875 40.578125 39.3125 
z
" id="DejaVuSans-51"/>
       </defs>
       <use xlink:href="#DejaVuSans-51"/>
       <use x="63.623047" xlink:href="#DejaVuSans-48"/>
      </g>
     </g>
    </g>
    <g id="ytick_5">
     <g id="line2d_14">
      <g>
       <use style="stroke:#000000;stroke-width:0.8;" x="46.603125" xlink:href="#m41a106a10f" y="146.503725"/>
      </g>
     </g>
     <g id="text_15">
      <!-- 40 -->
      <g transform="translate(26.878125 150.302944)scale(0.1 -0.1)">
       <use xlink:href="#DejaVuSans-52"/>
       <use x="63.623047" xlink:href="#DejaVuSans-48"/>
      </g>
     </g>
    </g>
    <g id="ytick_6">
     <g id="line2d_15">
      <g>
       <use style="stroke:#000000;stroke-width:0.8;" x="46.603125" xlink:href="#m41a106a10f" y="111.022125"/>
      </g>
     </g>
     <g id="text_16">
      <!-- 50 -->
      <g transform="translate(26.878125 114.821344)scale(0.1 -0.1)">
       <use xlink:href="#DejaVuSans-53"/>
       <use x="63.623047" xlink:href="#DejaVuSans-48"/>
      </g>
     </g>
    </g>
    <g id="ytick_7">
     <g id="line2d_16">
      <g>
       <use style="stroke:#000000;stroke-width:0.8;" x="46.603125" xlink:href="#m41a106a10f" y="75.540525"/>
      </g>
     </g>
     <g id="text_17">
      <!-- 60 -->
      <g transform="translate(26.878125 79.339744)scale(0.1 -0.1)">
       <use xlink:href="#DejaVuSans-54"/>
       <use x="63.623047" xlink:href="#DejaVuSans-48"/>
      </g>
     </g>
    </g>
    <g id="ytick_8">
     <g id="line2d_17">
      <g>
       <use style="stroke:#000000;stroke-width:0.8;" x="46.603125" xlink:href="#m41a106a10f" y="40.058925"/>
      </g>
     </g>
     <g id="text_18">
      <!-- 70 -->
      <g transform="translate(26.878125 43.858144)scale(0.1 -0.1)">
       <use xlink:href="#DejaVuSans-55"/>
       <use x="63.623047" xlink:href="#DejaVuSans-48"/>
      </g>
     </g>
    </g>
    <g id="text_19">
     <!-- case fatality rate [%] -->
     <g transform="translate(14.798438 207.990531)rotate(-90)scale(0.1 -0.1)">
      <defs>
       <path d="M 48.78125 52.59375 
L 48.78125 44.1875 
Q 44.96875 46.296875 41.140625 47.34375 
Q 37.3125 48.390625 33.40625 48.390625 
Q 24.65625 48.390625 19.8125 42.84375 
Q 14.984375 37.3125 14.984375 27.296875 
Q 14.984375 17.28125 19.8125 11.734375 
Q 24.65625 6.203125 33.40625 6.203125 
Q 37.3125 6.203125 41.140625 7.25 
Q 44.96875 8.296875 48.78125 10.40625 
L 48.78125 2.09375 
Q 45.015625 0.34375 40.984375 -0.53125 
Q 36.96875 -1.421875 32.421875 -1.421875 
Q 20.0625 -1.421875 12.78125 6.34375 
Q 5.515625 14.109375 5.515625 27.296875 
Q 5.515625 40.671875 12.859375 48.328125 
Q 20.21875 56 33.015625 56 
Q 37.15625 56 41.109375 55.140625 
Q 45.0625 54.296875 48.78125 52.59375 
z
" id="DejaVuSans-99"/>
       <path d="M 44.28125 53.078125 
L 44.28125 44.578125 
Q 40.484375 46.53125 36.375 47.5 
Q 32.28125 48.484375 27.875 48.484375 
Q 21.1875 48.484375 17.84375 46.4375 
Q 14.5 44.390625 14.5 40.28125 
Q 14.5 37.15625 16.890625 35.375 
Q 19.28125 33.59375 26.515625 31.984375 
L 29.59375 31.296875 
Q 39.15625 29.25 43.1875 25.515625 
Q 47.21875 21.78125 47.21875 15.09375 
Q 47.21875 7.46875 41.1875 3.015625 
Q 35.15625 -1.421875 24.609375 -1.421875 
Q 20.21875 -1.421875 15.453125 -0.5625 
Q 10.6875 0.296875 5.421875 2 
L 5.421875 11.28125 
Q 10.40625 8.6875 15.234375 7.390625 
Q 20.0625 6.109375 24.8125 6.109375 
Q 31.15625 6.109375 34.5625 8.28125 
Q 37.984375 10.453125 37.984375 14.40625 
Q 37.984375 18.0625 35.515625 20.015625 
Q 33.0625 21.96875 24.703125 23.78125 
L 21.578125 24.515625 
Q 13.234375 26.265625 9.515625 29.90625 
Q 5.8125 33.546875 5.8125 39.890625 
Q 5.8125 47.609375 11.28125 51.796875 
Q 16.75 56 26.8125 56 
Q 31.78125 56 36.171875 55.265625 
Q 40.578125 54.546875 44.28125 53.078125 
z
" id="DejaVuSans-115"/>
       <path id="DejaVuSans-32"/>
       <path d="M 37.109375 75.984375 
L 37.109375 68.5 
L 28.515625 68.5 
Q 23.6875 68.5 21.796875 66.546875 
Q 19.921875 64.59375 19.921875 59.515625 
L 19.921875 54.6875 
L 34.71875 54.6875 
L 34.71875 47.703125 
L 19.921875 47.703125 
L 19.921875 0 
L 10.890625 0 
L 10.890625 47.703125 
L 2.296875 47.703125 
L 2.296875 54.6875 
L 10.890625 54.6875 
L 10.890625 58.5 
Q 10.890625 67.625 15.140625 71.796875 
Q 19.390625 75.984375 28.609375 75.984375 
z
" id="DejaVuSans-102"/>
       <path d="M 9.421875 75.984375 
L 18.40625 75.984375 
L 18.40625 0 
L 9.421875 0 
z
" id="DejaVuSans-108"/>
       <path d="M 9.421875 54.6875 
L 18.40625 54.6875 
L 18.40625 0 
L 9.421875 0 
z
M 9.421875 75.984375 
L 18.40625 75.984375 
L 18.40625 64.59375 
L 9.421875 64.59375 
z
" id="DejaVuSans-105"/>
       <path d="M 32.171875 -5.078125 
Q 28.375 -14.84375 24.75 -17.8125 
Q 21.140625 -20.796875 15.09375 -20.796875 
L 7.90625 -20.796875 
L 7.90625 -13.28125 
L 13.1875 -13.28125 
Q 16.890625 -13.28125 18.9375 -11.515625 
Q 21 -9.765625 23.484375 -3.21875 
L 25.09375 0.875 
L 2.984375 54.6875 
L 12.5 54.6875 
L 29.59375 11.921875 
L 46.6875 54.6875 
L 56.203125 54.6875 
z
" id="DejaVuSans-121"/>
       <path d="M 41.109375 46.296875 
Q 39.59375 47.171875 37.8125 47.578125 
Q 36.03125 48 33.890625 48 
Q 26.265625 48 22.1875 43.046875 
Q 18.109375 38.09375 18.109375 28.8125 
L 18.109375 0 
L 9.078125 0 
L 9.078125 54.6875 
L 18.109375 54.6875 
L 18.109375 46.1875 
Q 20.953125 51.171875 25.484375 53.578125 
Q 30.03125 56 36.53125 56 
Q 37.453125 56 38.578125 55.875 
Q 39.703125 55.765625 41.0625 55.515625 
z
" id="DejaVuSans-114"/>
       <path d="M 8.59375 75.984375 
L 29.296875 75.984375 
L 29.296875 69 
L 17.578125 69 
L 17.578125 -6.203125 
L 29.296875 -6.203125 
L 29.296875 -13.1875 
L 8.59375 -13.1875 
z
" id="DejaVuSans-91"/>
       <path d="M 72.703125 32.078125 
Q 68.453125 32.078125 66.03125 28.46875 
Q 63.625 24.859375 63.625 18.40625 
Q 63.625 12.0625 66.03125 8.421875 
Q 68.453125 4.78125 72.703125 4.78125 
Q 76.859375 4.78125 79.265625 8.421875 
Q 81.6875 12.0625 81.6875 18.40625 
Q 81.6875 24.8125 79.265625 28.4375 
Q 76.859375 32.078125 72.703125 32.078125 
z
M 72.703125 38.28125 
Q 80.421875 38.28125 84.953125 32.90625 
Q 89.5 27.546875 89.5 18.40625 
Q 89.5 9.28125 84.9375 3.921875 
Q 80.375 -1.421875 72.703125 -1.421875 
Q 64.890625 -1.421875 60.34375 3.921875 
Q 55.8125 9.28125 55.8125 18.40625 
Q 55.8125 27.59375 60.375 32.9375 
Q 64.9375 38.28125 72.703125 38.28125 
z
M 22.3125 68.015625 
Q 18.109375 68.015625 15.6875 64.375 
Q 13.28125 60.75 13.28125 54.390625 
Q 13.28125 47.953125 15.671875 44.328125 
Q 18.0625 40.71875 22.3125 40.71875 
Q 26.5625 40.71875 28.96875 44.328125 
Q 31.390625 47.953125 31.390625 54.390625 
Q 31.390625 60.6875 28.953125 64.34375 
Q 26.515625 68.015625 22.3125 68.015625 
z
M 66.40625 74.21875 
L 74.21875 74.21875 
L 28.609375 -1.421875 
L 20.796875 -1.421875 
z
M 22.3125 74.21875 
Q 30.03125 74.21875 34.609375 68.875 
Q 39.203125 63.53125 39.203125 54.390625 
Q 39.203125 45.171875 34.640625 39.84375 
Q 30.078125 34.515625 22.3125 34.515625 
Q 14.546875 34.515625 10.03125 39.859375 
Q 5.515625 45.21875 5.515625 54.390625 
Q 5.515625 63.484375 10.046875 68.84375 
Q 14.59375 74.21875 22.3125 74.21875 
z
" id="DejaVuSans-37"/>
       <path d="M 30.421875 75.984375 
L 30.421875 -13.1875 
L 9.71875 -13.1875 
L 9.71875 -6.203125 
L 21.390625 -6.203125 
L 21.390625 69 
L 9.71875 69 
L 9.71875 75.984375 
z
" id="DejaVuSans-93"/>
      </defs>
      <use xlink:href="#DejaVuSans-99"/>
      <use x="54.980469" xlink:href="#DejaVuSans-97"/>
      <use x="116.259766" xlink:href="#DejaVuSans-115"/>
      <use x="168.359375" xlink:href="#DejaVuSans-101"/>
      <use x="229.882812" xlink:href="#DejaVuSans-32"/>
      <use x="261.669922" xlink:href="#DejaVuSans-102"/>
      <use x="296.875" xlink:href="#DejaVuSans-97"/>
      <use x="358.154297" xlink:href="#DejaVuSans-116"/>
      <use x="397.363281" xlink:href="#DejaVuSans-97"/>
      <use x="458.642578" xlink:href="#DejaVuSans-108"/>
      <use x="486.425781" xlink:href="#DejaVuSans-105"/>
      <use x="514.208984" xlink:href="#DejaVuSans-116"/>
      <use x="553.417969" xlink:href="#DejaVuSans-121"/>
      <use x="612.597656" xlink:href="#DejaVuSans-32"/>
      <use x="644.384766" xlink:href="#DejaVuSans-114"/>
      <use x="685.498047" xlink:href="#DejaVuSans-97"/>
      <use x="746.777344" xlink:href="#DejaVuSans-116"/>
      <use x="785.986328" xlink:href="#DejaVuSans-101"/>
      <use x="847.509766" xlink:href="#DejaVuSans-32"/>
      <use x="879.296875" xlink:href="#DejaVuSans-91"/>
      <use x="918.310547" xlink:href="#DejaVuSans-37"/>
      <use x="1013.330078" xlink:href="#DejaVuSans-93"/>
     </g>
    </g>
   </g>
   <g id="patch_283">
    <path d="M 46.603125 288.430125 
L 46.603125 22.318125 
" style="fill:none;stroke:#000000;stroke-linecap:square;stroke-linejoin:miter;stroke-width:0.8;"/>
   </g>
   <g id="patch_284">
    <path d="M 46.603125 288.430125 
L 403.723125 288.430125 
" style="fill:none;stroke:#000000;stroke-linecap:square;stroke-linejoin:miter;stroke-width:0.8;"/>
   </g>
   <g id="text_20">
    <!-- South Tyrol -->
    <g transform="translate(191.870625 16.318125)scale(0.12 -0.12)">
     <defs>
      <path d="M 53.515625 70.515625 
L 53.515625 60.890625 
Q 47.90625 63.578125 42.921875 64.890625 
Q 37.9375 66.21875 33.296875 66.21875 
Q 25.25 66.21875 20.875 63.09375 
Q 16.5 59.96875 16.5 54.203125 
Q 16.5 49.359375 19.40625 46.890625 
Q 22.3125 44.4375 30.421875 42.921875 
L 36.375 41.703125 
Q 47.40625 39.59375 52.65625 34.296875 
Q 57.90625 29 57.90625 20.125 
Q 57.90625 9.515625 50.796875 4.046875 
Q 43.703125 -1.421875 29.984375 -1.421875 
Q 24.8125 -1.421875 18.96875 -0.25 
Q 13.140625 0.921875 6.890625 3.21875 
L 6.890625 13.375 
Q 12.890625 10.015625 18.65625 8.296875 
Q 24.421875 6.59375 29.984375 6.59375 
Q 38.421875 6.59375 43.015625 9.90625 
Q 47.609375 13.234375 47.609375 19.390625 
Q 47.609375 24.75 44.3125 27.78125 
Q 41.015625 30.8125 33.5 32.328125 
L 27.484375 33.5 
Q 16.453125 35.6875 11.515625 40.375 
Q 6.59375 45.0625 6.59375 53.421875 
Q 6.59375 63.09375 13.40625 68.65625 
Q 20.21875 74.21875 32.171875 74.21875 
Q 37.3125 74.21875 42.625 73.28125 
Q 47.953125 72.359375 53.515625 70.515625 
z
" id="DejaVuSans-83"/>
      <path d="M 30.609375 48.390625 
Q 23.390625 48.390625 19.1875 42.75 
Q 14.984375 37.109375 14.984375 27.296875 
Q 14.984375 17.484375 19.15625 11.84375 
Q 23.34375 6.203125 30.609375 6.203125 
Q 37.796875 6.203125 41.984375 11.859375 
Q 46.1875 17.53125 46.1875 27.296875 
Q 46.1875 37.015625 41.984375 42.703125 
Q 37.796875 48.390625 30.609375 48.390625 
z
M 30.609375 56 
Q 42.328125 56 49.015625 48.375 
Q 55.71875 40.765625 55.71875 27.296875 
Q 55.71875 13.875 49.015625 6.21875 
Q 42.328125 -1.421875 30.609375 -1.421875 
Q 18.84375 -1.421875 12.171875 6.21875 
Q 5.515625 13.875 5.515625 27.296875 
Q 5.515625 40.765625 12.171875 48.375 
Q 18.84375 56 30.609375 56 
z
" id="DejaVuSans-111"/>
      <path d="M 8.5 21.578125 
L 8.5 54.6875 
L 17.484375 54.6875 
L 17.484375 21.921875 
Q 17.484375 14.15625 20.5 10.265625 
Q 23.53125 6.390625 29.59375 6.390625 
Q 36.859375 6.390625 41.078125 11.03125 
Q 45.3125 15.671875 45.3125 23.6875 
L 45.3125 54.6875 
L 54.296875 54.6875 
L 54.296875 0 
L 45.3125 0 
L 45.3125 8.40625 
Q 42.046875 3.421875 37.71875 1 
Q 33.40625 -1.421875 27.6875 -1.421875 
Q 18.265625 -1.421875 13.375 4.4375 
Q 8.5 10.296875 8.5 21.578125 
z
M 31.109375 56 
z
" id="DejaVuSans-117"/>
      <path d="M 54.890625 33.015625 
L 54.890625 0 
L 45.90625 0 
L 45.90625 32.71875 
Q 45.90625 40.484375 42.875 44.328125 
Q 39.84375 48.1875 33.796875 48.1875 
Q 26.515625 48.1875 22.3125 43.546875 
Q 18.109375 38.921875 18.109375 30.90625 
L 18.109375 0 
L 9.078125 0 
L 9.078125 75.984375 
L 18.109375 75.984375 
L 18.109375 46.1875 
Q 21.34375 51.125 25.703125 53.5625 
Q 30.078125 56 35.796875 56 
Q 45.21875 56 50.046875 50.171875 
Q 54.890625 44.34375 54.890625 33.015625 
z
" id="DejaVuSans-104"/>
      <path d="M -0.296875 72.90625 
L 61.375 72.90625 
L 61.375 64.59375 
L 35.5 64.59375 
L 35.5 0 
L 25.59375 0 
L 25.59375 64.59375 
L -0.296875 64.59375 
z
" id="DejaVuSans-84"/>
     </defs>
     <use xlink:href="#DejaVuSans-83"/>
     <use x="63.476562" xlink:href="#DejaVuSans-111"/>
     <use x="124.658203" xlink:href="#DejaVuSans-117"/>
     <use x="188.037109" xlink:href="#DejaVuSans-116"/>
     <use x="227.246094" xlink:href="#DejaVuSans-104"/>
     <use x="290.625" xlink:href="#DejaVuSans-32"/>
     <use x="322.412109" xlink:href="#DejaVuSans-84"/>
     <use x="367.871094" xlink:href="#DejaVuSans-121"/>
     <use x="427.050781" xlink:href="#DejaVuSans-114"/>
     <use x="465.914062" xlink:href="#DejaVuSans-111"/>
     <use x="527.095703" xlink:href="#DejaVuSans-108"/>
    </g>
   </g>
  </g>
 </g>
 <defs>
  <clipPath id="pe93985440a">
   <rect height="266.112" width="357.12" x="46.603125" y="22.318125"/>
  </clipPath>
 </defs>
</svg>
