<?xml version="1.0" encoding="utf-8" standalone="no"?>
<!DOCTYPE svg PUBLIC "-//W3C//DTD SVG 1.1//EN"
  "http://www.w3.org/Graphics/SVG/1.1/DTD/svg11.dtd">
<!-- Created with matplotlib (https://matplotlib.org/) -->
<svg height="364.091062pt" version="1.1" viewBox="0 0 410.923125 364.091062" width="410.923125pt" xmlns="http://www.w3.org/2000/svg" xmlns:xlink="http://www.w3.org/1999/xlink">
 <metadata>
  <rdf:RDF xmlns:cc="http://creativecommons.org/ns#" xmlns:dc="http://purl.org/dc/elements/1.1/" xmlns:rdf="http://www.w3.org/1999/02/22-rdf-syntax-ns#">
   <cc:Work>
    <dc:type rdf:resource="http://purl.org/dc/dcmitype/StillImage"/>
    <dc:date>2020-12-28T14:24:53.717308</dc:date>
    <dc:format>image/svg+xml</dc:format>
    <dc:creator>
     <cc:Agent>
      <dc:title>Matplotlib v3.3.3, https://matplotlib.org/</dc:title>
     </cc:Agent>
    </dc:creator>
   </cc:Work>
  </rdf:RDF>
 </metadata>
 <defs>
  <style type="text/css">*{stroke-linecap:butt;stroke-linejoin:round;}</style>
 </defs>
 <g id="figure_1">
  <g id="patch_1">
   <path d="M 0 364.091062 
L 410.923125 364.091062 
L 410.923125 0 
L 0 0 
z
" style="fill:#ffffff;"/>
  </g>
  <g id="axes_1">
   <g id="patch_2">
    <path d="M 46.603125 288.430125 
L 403.723125 288.430125 
L 403.723125 22.318125 
L 46.603125 22.318125 
z
" style="fill:#ffffff;"/>
   </g>
   <g id="patch_3">
    <path clip-path="url(#p570ce8a572)" d="M 46.726696 288.430125 
L 47.715263 288.430125 
L 47.715263 34.990125 
L 46.726696 34.990125 
z
" style="fill:#1f77b4;"/>
   </g>
   <g id="patch_4">
    <path clip-path="url(#p570ce8a572)" d="M 47.962405 288.430125 
L 48.950973 288.430125 
L 48.950973 22.318125 
L 47.962405 22.318125 
z
" style="fill:#1f77b4;"/>
   </g>
   <g id="patch_5">
    <path clip-path="url(#p570ce8a572)" d="M 49.198115 288.430125 
L 50.186682 288.430125 
L 50.186682 22.318125 
L 49.198115 22.318125 
z
" style="fill:#1f77b4;"/>
   </g>
   <g id="patch_6">
    <path clip-path="url(#p570ce8a572)" d="M 50.433824 288.430125 
L 51.422391 288.430125 
L 51.422391 64.335809 
L 50.433824 64.335809 
z
" style="fill:#1f77b4;"/>
   </g>
   <g id="patch_7">
    <path clip-path="url(#p570ce8a572)" d="M 51.669533 288.430125 
L 52.658101 288.430125 
L 52.658101 51.886125 
L 51.669533 51.886125 
z
" style="fill:#1f77b4;"/>
   </g>
   <g id="patch_8">
    <path clip-path="url(#p570ce8a572)" d="M 52.905243 288.430125 
L 53.89381 288.430125 
L 53.89381 63.713325 
L 52.905243 63.713325 
z
" style="fill:#1f77b4;"/>
   </g>
   <g id="patch_9">
    <path clip-path="url(#p570ce8a572)" d="M 54.140952 288.430125 
L 55.129519 288.430125 
L 55.129519 58.279206 
L 54.140952 58.279206 
z
" style="fill:#1f77b4;"/>
   </g>
   <g id="patch_10">
    <path clip-path="url(#p570ce8a572)" d="M 55.376661 288.430125 
L 56.365229 288.430125 
L 56.365229 76.905202 
L 55.376661 76.905202 
z
" style="fill:#1f77b4;"/>
   </g>
   <g id="patch_11">
    <path clip-path="url(#p570ce8a572)" d="M 56.612371 288.430125 
L 57.600938 288.430125 
L 57.600938 77.946057 
L 56.612371 77.946057 
z
" style="fill:#1f77b4;"/>
   </g>
   <g id="patch_12">
    <path clip-path="url(#p570ce8a572)" d="M 57.84808 288.430125 
L 58.836647 288.430125 
L 58.836647 58.843301 
L 57.84808 58.843301 
z
" style="fill:#1f77b4;"/>
   </g>
   <g id="patch_13">
    <path clip-path="url(#p570ce8a572)" d="M 59.083789 288.430125 
L 60.072357 288.430125 
L 60.072357 78.341704 
L 59.083789 78.341704 
z
" style="fill:#1f77b4;"/>
   </g>
   <g id="patch_14">
    <path clip-path="url(#p570ce8a572)" d="M 60.319499 288.430125 
L 61.308066 288.430125 
L 61.308066 84.025255 
L 60.319499 84.025255 
z
" style="fill:#1f77b4;"/>
   </g>
   <g id="patch_15">
    <path clip-path="url(#p570ce8a572)" d="M 61.555208 288.430125 
L 62.543776 288.430125 
L 62.543776 85.678125 
L 61.555208 85.678125 
z
" style="fill:#1f77b4;"/>
   </g>
   <g id="patch_16">
    <path clip-path="url(#p570ce8a572)" d="M 62.790917 288.430125 
L 63.779485 288.430125 
L 63.779485 87.47239 
L 62.790917 87.47239 
z
" style="fill:#1f77b4;"/>
   </g>
   <g id="patch_17">
    <path clip-path="url(#p570ce8a572)" d="M 64.026627 288.430125 
L 65.015194 288.430125 
L 65.015194 91.618125 
L 64.026627 91.618125 
z
" style="fill:#1f77b4;"/>
   </g>
   <g id="patch_18">
    <path clip-path="url(#p570ce8a572)" d="M 65.262336 288.430125 
L 66.250904 288.430125 
L 66.250904 111.022125 
L 65.262336 111.022125 
z
" style="fill:#1f77b4;"/>
   </g>
   <g id="patch_19">
    <path clip-path="url(#p570ce8a572)" d="M 66.498045 288.430125 
L 67.486613 288.430125 
L 67.486613 95.213491 
L 66.498045 95.213491 
z
" style="fill:#1f77b4;"/>
   </g>
   <g id="patch_20">
    <path clip-path="url(#p570ce8a572)" d="M 67.733755 288.430125 
L 68.722322 288.430125 
L 68.722322 100.032249 
L 67.733755 100.032249 
z
" style="fill:#1f77b4;"/>
   </g>
   <g id="patch_21">
    <path clip-path="url(#p570ce8a572)" d="M 68.969464 288.430125 
L 69.958032 288.430125 
L 69.958032 106.034752 
L 68.969464 106.034752 
z
" style="fill:#1f77b4;"/>
   </g>
   <g id="patch_22">
    <path clip-path="url(#p570ce8a572)" d="M 70.205173 288.430125 
L 71.193741 288.430125 
L 71.193741 112.876564 
L 70.205173 112.876564 
z
" style="fill:#1f77b4;"/>
   </g>
   <g id="patch_23">
    <path clip-path="url(#p570ce8a572)" d="M 71.440883 288.430125 
L 72.42945 288.430125 
L 72.42945 115.753005 
L 71.440883 115.753005 
z
" style="fill:#1f77b4;"/>
   </g>
   <g id="patch_24">
    <path clip-path="url(#p570ce8a572)" d="M 72.676592 288.430125 
L 73.66516 288.430125 
L 73.66516 117.592792 
L 72.676592 117.592792 
z
" style="fill:#1f77b4;"/>
   </g>
   <g id="patch_25">
    <path clip-path="url(#p570ce8a572)" d="M 73.912301 288.430125 
L 74.900869 288.430125 
L 74.900869 124.052091 
L 73.912301 124.052091 
z
" style="fill:#1f77b4;"/>
   </g>
   <g id="patch_26">
    <path clip-path="url(#p570ce8a572)" d="M 75.148011 288.430125 
L 76.136578 288.430125 
L 76.136578 127.40545 
L 75.148011 127.40545 
z
" style="fill:#1f77b4;"/>
   </g>
   <g id="patch_27">
    <path clip-path="url(#p570ce8a572)" d="M 76.38372 288.430125 
L 77.372288 288.430125 
L 77.372288 140.866461 
L 76.38372 140.866461 
z
" style="fill:#1f77b4;"/>
   </g>
   <g id="patch_28">
    <path clip-path="url(#p570ce8a572)" d="M 77.619429 288.430125 
L 78.607997 288.430125 
L 78.607997 145.433159 
L 77.619429 145.433159 
z
" style="fill:#1f77b4;"/>
   </g>
   <g id="patch_29">
    <path clip-path="url(#p570ce8a572)" d="M 78.855139 288.430125 
L 79.843706 288.430125 
L 79.843706 152.993401 
L 78.855139 152.993401 
z
" style="fill:#1f77b4;"/>
   </g>
   <g id="patch_30">
    <path clip-path="url(#p570ce8a572)" d="M 80.090848 288.430125 
L 81.079416 288.430125 
L 81.079416 159.873603 
L 80.090848 159.873603 
z
" style="fill:#1f77b4;"/>
   </g>
   <g id="patch_31">
    <path clip-path="url(#p570ce8a572)" d="M 81.326558 288.430125 
L 82.315125 288.430125 
L 82.315125 161.66574 
L 81.326558 161.66574 
z
" style="fill:#1f77b4;"/>
   </g>
   <g id="patch_32">
    <path clip-path="url(#p570ce8a572)" d="M 82.562267 288.430125 
L 83.550834 288.430125 
L 83.550834 158.913249 
L 82.562267 158.913249 
z
" style="fill:#1f77b4;"/>
   </g>
   <g id="patch_33">
    <path clip-path="url(#p570ce8a572)" d="M 83.797976 288.430125 
L 84.786544 288.430125 
L 84.786544 160.743438 
L 83.797976 160.743438 
z
" style="fill:#1f77b4;"/>
   </g>
   <g id="patch_34">
    <path clip-path="url(#p570ce8a572)" d="M 85.033686 288.430125 
L 86.022253 288.430125 
L 86.022253 165.137144 
L 85.033686 165.137144 
z
" style="fill:#1f77b4;"/>
   </g>
   <g id="patch_35">
    <path clip-path="url(#p570ce8a572)" d="M 86.269395 288.430125 
L 87.257962 288.430125 
L 87.257962 168.758456 
L 86.269395 168.758456 
z
" style="fill:#1f77b4;"/>
   </g>
   <g id="patch_36">
    <path clip-path="url(#p570ce8a572)" d="M 87.505104 288.430125 
L 88.493672 288.430125 
L 88.493672 172.815923 
L 87.505104 172.815923 
z
" style="fill:#1f77b4;"/>
   </g>
   <g id="patch_37">
    <path clip-path="url(#p570ce8a572)" d="M 88.740814 288.430125 
L 89.729381 288.430125 
L 89.729381 178.155711 
L 88.740814 178.155711 
z
" style="fill:#1f77b4;"/>
   </g>
   <g id="patch_38">
    <path clip-path="url(#p570ce8a572)" d="M 89.976523 288.430125 
L 90.96509 288.430125 
L 90.96509 181.636611 
L 89.976523 181.636611 
z
" style="fill:#1f77b4;"/>
   </g>
   <g id="patch_39">
    <path clip-path="url(#p570ce8a572)" d="M 91.212232 288.430125 
L 92.2008 288.430125 
L 92.2008 184.855466 
L 91.212232 184.855466 
z
" style="fill:#1f77b4;"/>
   </g>
   <g id="patch_40">
    <path clip-path="url(#p570ce8a572)" d="M 92.447942 288.430125 
L 93.436509 288.430125 
L 93.436509 186.243117 
L 92.447942 186.243117 
z
" style="fill:#1f77b4;"/>
   </g>
   <g id="patch_41">
    <path clip-path="url(#p570ce8a572)" d="M 93.683651 288.430125 
L 94.672218 288.430125 
L 94.672218 187.951258 
L 93.683651 187.951258 
z
" style="fill:#1f77b4;"/>
   </g>
   <g id="patch_42">
    <path clip-path="url(#p570ce8a572)" d="M 94.91936 288.430125 
L 95.907928 288.430125 
L 95.907928 190.01676 
L 94.91936 190.01676 
z
" style="fill:#1f77b4;"/>
   </g>
   <g id="patch_43">
    <path clip-path="url(#p570ce8a572)" d="M 96.15507 288.430125 
L 97.143637 288.430125 
L 97.143637 219.965996 
L 96.15507 219.965996 
z
" style="fill:#1f77b4;"/>
   </g>
   <g id="patch_44">
    <path clip-path="url(#p570ce8a572)" d="M 97.390779 288.430125 
L 98.379346 288.430125 
L 98.379346 223.179438 
L 97.390779 223.179438 
z
" style="fill:#1f77b4;"/>
   </g>
   <g id="patch_45">
    <path clip-path="url(#p570ce8a572)" d="M 98.626488 288.430125 
L 99.615056 288.430125 
L 99.615056 224.243505 
L 98.626488 224.243505 
z
" style="fill:#1f77b4;"/>
   </g>
   <g id="patch_46">
    <path clip-path="url(#p570ce8a572)" d="M 99.862198 288.430125 
L 100.850765 288.430125 
L 100.850765 226.861796 
L 99.862198 226.861796 
z
" style="fill:#1f77b4;"/>
   </g>
   <g id="patch_47">
    <path clip-path="url(#p570ce8a572)" d="M 101.097907 288.430125 
L 102.086474 288.430125 
L 102.086474 227.655596 
L 101.097907 227.655596 
z
" style="fill:#1f77b4;"/>
   </g>
   <g id="patch_48">
    <path clip-path="url(#p570ce8a572)" d="M 102.333616 288.430125 
L 103.322184 288.430125 
L 103.322184 229.934587 
L 102.333616 229.934587 
z
" style="fill:#1f77b4;"/>
   </g>
   <g id="patch_49">
    <path clip-path="url(#p570ce8a572)" d="M 103.569326 288.430125 
L 104.557893 288.430125 
L 104.557893 231.568587 
L 103.569326 231.568587 
z
" style="fill:#1f77b4;"/>
   </g>
   <g id="patch_50">
    <path clip-path="url(#p570ce8a572)" d="M 104.805035 288.430125 
L 105.793603 288.430125 
L 105.793603 232.733429 
L 104.805035 232.733429 
z
" style="fill:#1f77b4;"/>
   </g>
   <g id="patch_51">
    <path clip-path="url(#p570ce8a572)" d="M 106.040744 288.430125 
L 107.029312 288.430125 
L 107.029312 234.394282 
L 106.040744 234.394282 
z
" style="fill:#1f77b4;"/>
   </g>
   <g id="patch_52">
    <path clip-path="url(#p570ce8a572)" d="M 107.276454 288.430125 
L 108.265021 288.430125 
L 108.265021 235.141351 
L 107.276454 235.141351 
z
" style="fill:#1f77b4;"/>
   </g>
   <g id="patch_53">
    <path clip-path="url(#p570ce8a572)" d="M 108.512163 288.430125 
L 109.500731 288.430125 
L 109.500731 235.533671 
L 108.512163 235.533671 
z
" style="fill:#1f77b4;"/>
   </g>
   <g id="patch_54">
    <path clip-path="url(#p570ce8a572)" d="M 109.747872 288.430125 
L 110.73644 288.430125 
L 110.73644 235.851174 
L 109.747872 235.851174 
z
" style="fill:#1f77b4;"/>
   </g>
   <g id="patch_55">
    <path clip-path="url(#p570ce8a572)" d="M 110.983582 288.430125 
L 111.972149 288.430125 
L 111.972149 236.7614 
L 110.983582 236.7614 
z
" style="fill:#1f77b4;"/>
   </g>
   <g id="patch_56">
    <path clip-path="url(#p570ce8a572)" d="M 112.219291 288.430125 
L 113.207859 288.430125 
L 113.207859 237.716794 
L 112.219291 237.716794 
z
" style="fill:#1f77b4;"/>
   </g>
   <g id="patch_57">
    <path clip-path="url(#p570ce8a572)" d="M 113.455 288.430125 
L 114.443568 288.430125 
L 114.443568 238.555697 
L 113.455 238.555697 
z
" style="fill:#1f77b4;"/>
   </g>
   <g id="patch_58">
    <path clip-path="url(#p570ce8a572)" d="M 114.69071 288.430125 
L 115.679277 288.430125 
L 115.679277 239.291328 
L 114.69071 239.291328 
z
" style="fill:#1f77b4;"/>
   </g>
   <g id="patch_59">
    <path clip-path="url(#p570ce8a572)" d="M 115.926419 288.430125 
L 116.914987 288.430125 
L 116.914987 239.663945 
L 115.926419 239.663945 
z
" style="fill:#1f77b4;"/>
   </g>
   <g id="patch_60">
    <path clip-path="url(#p570ce8a572)" d="M 117.162128 288.430125 
L 118.150696 288.430125 
L 118.150696 240.008177 
L 117.162128 240.008177 
z
" style="fill:#1f77b4;"/>
   </g>
   <g id="patch_61">
    <path clip-path="url(#p570ce8a572)" d="M 118.397838 288.430125 
L 119.386405 288.430125 
L 119.386405 240.234977 
L 118.397838 240.234977 
z
" style="fill:#1f77b4;"/>
   </g>
   <g id="patch_62">
    <path clip-path="url(#p570ce8a572)" d="M 119.633547 288.430125 
L 120.622115 288.430125 
L 120.622115 240.83686 
L 119.633547 240.83686 
z
" style="fill:#1f77b4;"/>
   </g>
   <g id="patch_63">
    <path clip-path="url(#p570ce8a572)" d="M 120.869256 288.430125 
L 121.857824 288.430125 
L 121.857824 241.616367 
L 120.869256 241.616367 
z
" style="fill:#1f77b4;"/>
   </g>
   <g id="patch_64">
    <path clip-path="url(#p570ce8a572)" d="M 122.104966 288.430125 
L 123.093533 288.430125 
L 123.093533 242.059399 
L 122.104966 242.059399 
z
" style="fill:#1f77b4;"/>
   </g>
   <g id="patch_65">
    <path clip-path="url(#p570ce8a572)" d="M 123.340675 288.430125 
L 124.329243 288.430125 
L 124.329243 242.494125 
L 123.340675 242.494125 
z
" style="fill:#1f77b4;"/>
   </g>
   <g id="patch_66">
    <path clip-path="url(#p570ce8a572)" d="M 124.576385 288.430125 
L 125.564952 288.430125 
L 125.564952 243.041223 
L 124.576385 243.041223 
z
" style="fill:#1f77b4;"/>
   </g>
   <g id="patch_67">
    <path clip-path="url(#p570ce8a572)" d="M 125.812094 288.430125 
L 126.800661 288.430125 
L 126.800661 243.04487 
L 125.812094 243.04487 
z
" style="fill:#1f77b4;"/>
   </g>
   <g id="patch_68">
    <path clip-path="url(#p570ce8a572)" d="M 127.047803 288.430125 
L 128.036371 288.430125 
L 128.036371 243.124528 
L 127.047803 243.124528 
z
" style="fill:#1f77b4;"/>
   </g>
   <g id="patch_69">
    <path clip-path="url(#p570ce8a572)" d="M 128.283513 288.430125 
L 129.27208 288.430125 
L 129.27208 243.829064 
L 128.283513 243.829064 
z
" style="fill:#1f77b4;"/>
   </g>
   <g id="patch_70">
    <path clip-path="url(#p570ce8a572)" d="M 129.519222 288.430125 
L 130.507789 288.430125 
L 130.507789 244.248929 
L 129.519222 244.248929 
z
" style="fill:#1f77b4;"/>
   </g>
   <g id="patch_71">
    <path clip-path="url(#p570ce8a572)" d="M 130.754931 288.430125 
L 131.743499 288.430125 
L 131.743499 244.790456 
L 130.754931 244.790456 
z
" style="fill:#1f77b4;"/>
   </g>
   <g id="patch_72">
    <path clip-path="url(#p570ce8a572)" d="M 131.990641 288.430125 
L 132.979208 288.430125 
L 132.979208 244.974125 
L 131.990641 244.974125 
z
" style="fill:#1f77b4;"/>
   </g>
   <g id="patch_73">
    <path clip-path="url(#p570ce8a572)" d="M 133.22635 288.430125 
L 134.214917 288.430125 
L 134.214917 245.372804 
L 133.22635 245.372804 
z
" style="fill:#1f77b4;"/>
   </g>
   <g id="patch_74">
    <path clip-path="url(#p570ce8a572)" d="M 134.462059 288.430125 
L 135.450627 288.430125 
L 135.450627 245.569413 
L 134.462059 245.569413 
z
" style="fill:#1f77b4;"/>
   </g>
   <g id="patch_75">
    <path clip-path="url(#p570ce8a572)" d="M 135.697769 288.430125 
L 136.686336 288.430125 
L 136.686336 245.658188 
L 135.697769 245.658188 
z
" style="fill:#1f77b4;"/>
   </g>
   <g id="patch_76">
    <path clip-path="url(#p570ce8a572)" d="M 136.933478 288.430125 
L 137.922045 288.430125 
L 137.922045 245.799466 
L 136.933478 245.799466 
z
" style="fill:#1f77b4;"/>
   </g>
   <g id="patch_77">
    <path clip-path="url(#p570ce8a572)" d="M 138.169187 288.430125 
L 139.157755 288.430125 
L 139.157755 246.079241 
L 138.169187 246.079241 
z
" style="fill:#1f77b4;"/>
   </g>
   <g id="patch_78">
    <path clip-path="url(#p570ce8a572)" d="M 139.404897 288.430125 
L 140.393464 288.430125 
L 140.393464 246.13129 
L 139.404897 246.13129 
z
" style="fill:#1f77b4;"/>
   </g>
   <g id="patch_79">
    <path clip-path="url(#p570ce8a572)" d="M 140.640606 288.430125 
L 141.629173 288.430125 
L 141.629173 246.44092 
L 140.640606 246.44092 
z
" style="fill:#1f77b4;"/>
   </g>
   <g id="patch_80">
    <path clip-path="url(#p570ce8a572)" d="M 141.876315 288.430125 
L 142.864883 288.430125 
L 142.864883 246.627916 
L 141.876315 246.627916 
z
" style="fill:#1f77b4;"/>
   </g>
   <g id="patch_81">
    <path clip-path="url(#p570ce8a572)" d="M 143.112025 288.430125 
L 144.100592 288.430125 
L 144.100592 246.712365 
L 143.112025 246.712365 
z
" style="fill:#1f77b4;"/>
   </g>
   <g id="patch_82">
    <path clip-path="url(#p570ce8a572)" d="M 144.347734 288.430125 
L 145.336301 288.430125 
L 145.336301 246.762871 
L 144.347734 246.762871 
z
" style="fill:#1f77b4;"/>
   </g>
   <g id="patch_83">
    <path clip-path="url(#p570ce8a572)" d="M 145.583443 288.430125 
L 146.572011 288.430125 
L 146.572011 246.762871 
L 145.583443 246.762871 
z
" style="fill:#1f77b4;"/>
   </g>
   <g id="patch_84">
    <path clip-path="url(#p570ce8a572)" d="M 146.819153 288.430125 
L 147.80772 288.430125 
L 147.80772 246.754231 
L 146.819153 246.754231 
z
" style="fill:#1f77b4;"/>
   </g>
   <g id="patch_85">
    <path clip-path="url(#p570ce8a572)" d="M 148.054862 288.430125 
L 149.043429 288.430125 
L 149.043429 246.954436 
L 148.054862 246.954436 
z
" style="fill:#1f77b4;"/>
   </g>
   <g id="patch_86">
    <path clip-path="url(#p570ce8a572)" d="M 149.290571 288.430125 
L 150.279139 288.430125 
L 150.279139 246.987616 
L 149.290571 246.987616 
z
" style="fill:#1f77b4;"/>
   </g>
   <g id="patch_87">
    <path clip-path="url(#p570ce8a572)" d="M 150.526281 288.430125 
L 151.514848 288.430125 
L 151.514848 247.08684 
L 150.526281 247.08684 
z
" style="fill:#1f77b4;"/>
   </g>
   <g id="patch_88">
    <path clip-path="url(#p570ce8a572)" d="M 151.76199 288.430125 
L 152.750558 288.430125 
L 152.750558 247.103331 
L 151.76199 247.103331 
z
" style="fill:#1f77b4;"/>
   </g>
   <g id="patch_89">
    <path clip-path="url(#p570ce8a572)" d="M 152.997699 288.430125 
L 153.986267 288.430125 
L 153.986267 247.136274 
L 152.997699 247.136274 
z
" style="fill:#1f77b4;"/>
   </g>
   <g id="patch_90">
    <path clip-path="url(#p570ce8a572)" d="M 154.233409 288.430125 
L 155.221976 288.430125 
L 155.221976 247.152726 
L 154.233409 247.152726 
z
" style="fill:#1f77b4;"/>
   </g>
   <g id="patch_91">
    <path clip-path="url(#p570ce8a572)" d="M 155.469118 288.430125 
L 156.457686 288.430125 
L 156.457686 247.103331 
L 155.469118 247.103331 
z
" style="fill:#1f77b4;"/>
   </g>
   <g id="patch_92">
    <path clip-path="url(#p570ce8a572)" d="M 156.704827 288.430125 
L 157.693395 288.430125 
L 157.693395 247.244861 
L 156.704827 247.244861 
z
" style="fill:#1f77b4;"/>
   </g>
   <g id="patch_93">
    <path clip-path="url(#p570ce8a572)" d="M 157.940537 288.430125 
L 158.929104 288.430125 
L 158.929104 247.375868 
L 157.940537 247.375868 
z
" style="fill:#1f77b4;"/>
   </g>
   <g id="patch_94">
    <path clip-path="url(#p570ce8a572)" d="M 159.176246 288.430125 
L 160.164814 288.430125 
L 160.164814 247.392185 
L 159.176246 247.392185 
z
" style="fill:#1f77b4;"/>
   </g>
   <g id="patch_95">
    <path clip-path="url(#p570ce8a572)" d="M 160.411955 288.430125 
L 161.400523 288.430125 
L 161.400523 247.267522 
L 160.411955 247.267522 
z
" style="fill:#1f77b4;"/>
   </g>
   <g id="patch_96">
    <path clip-path="url(#p570ce8a572)" d="M 161.647665 288.430125 
L 162.636232 288.430125 
L 162.636232 247.283869 
L 161.647665 247.283869 
z
" style="fill:#1f77b4;"/>
   </g>
   <g id="patch_97">
    <path clip-path="url(#p570ce8a572)" d="M 162.883374 288.430125 
L 163.871942 288.430125 
L 163.871942 247.381681 
L 162.883374 247.381681 
z
" style="fill:#1f77b4;"/>
   </g>
   <g id="patch_98">
    <path clip-path="url(#p570ce8a572)" d="M 164.119083 288.430125 
L 165.107651 288.430125 
L 165.107651 247.446631 
L 164.119083 247.446631 
z
" style="fill:#1f77b4;"/>
   </g>
   <g id="patch_99">
    <path clip-path="url(#p570ce8a572)" d="M 165.354793 288.430125 
L 166.34336 288.430125 
L 166.34336 247.640254 
L 165.354793 247.640254 
z
" style="fill:#1f77b4;"/>
   </g>
   <g id="patch_100">
    <path clip-path="url(#p570ce8a572)" d="M 166.590502 288.430125 
L 167.57907 288.430125 
L 167.57907 247.672347 
L 166.590502 247.672347 
z
" style="fill:#1f77b4;"/>
   </g>
   <g id="patch_101">
    <path clip-path="url(#p570ce8a572)" d="M 167.826212 288.430125 
L 168.814779 288.430125 
L 168.814779 247.752358 
L 167.826212 247.752358 
z
" style="fill:#1f77b4;"/>
   </g>
   <g id="patch_102">
    <path clip-path="url(#p570ce8a572)" d="M 169.061921 288.430125 
L 170.050488 288.430125 
L 170.050488 247.704389 
L 169.061921 247.704389 
z
" style="fill:#1f77b4;"/>
   </g>
   <g id="patch_103">
    <path clip-path="url(#p570ce8a572)" d="M 170.29763 288.430125 
L 171.286198 288.430125 
L 171.286198 247.704389 
L 170.29763 247.704389 
z
" style="fill:#1f77b4;"/>
   </g>
   <g id="patch_104">
    <path clip-path="url(#p570ce8a572)" d="M 171.53334 288.430125 
L 172.521907 288.430125 
L 172.521907 247.704389 
L 171.53334 247.704389 
z
" style="fill:#1f77b4;"/>
   </g>
   <g id="patch_105">
    <path clip-path="url(#p570ce8a572)" d="M 172.769049 288.430125 
L 173.757616 288.430125 
L 173.757616 247.752358 
L 172.769049 247.752358 
z
" style="fill:#1f77b4;"/>
   </g>
   <g id="patch_106">
    <path clip-path="url(#p570ce8a572)" d="M 174.004758 288.430125 
L 174.993326 288.430125 
L 174.993326 247.784275 
L 174.004758 247.784275 
z
" style="fill:#1f77b4;"/>
   </g>
   <g id="patch_107">
    <path clip-path="url(#p570ce8a572)" d="M 175.240468 288.430125 
L 176.229035 288.430125 
L 176.229035 247.784275 
L 175.240468 247.784275 
z
" style="fill:#1f77b4;"/>
   </g>
   <g id="patch_108">
    <path clip-path="url(#p570ce8a572)" d="M 176.476177 288.430125 
L 177.464744 288.430125 
L 177.464744 247.832056 
L 176.476177 247.832056 
z
" style="fill:#1f77b4;"/>
   </g>
   <g id="patch_109">
    <path clip-path="url(#p570ce8a572)" d="M 177.711886 288.430125 
L 178.700454 288.430125 
L 178.700454 247.863848 
L 177.711886 247.863848 
z
" style="fill:#1f77b4;"/>
   </g>
   <g id="patch_110">
    <path clip-path="url(#p570ce8a572)" d="M 178.947596 288.430125 
L 179.936163 288.430125 
L 179.936163 247.879725 
L 178.947596 247.879725 
z
" style="fill:#1f77b4;"/>
   </g>
   <g id="patch_111">
    <path clip-path="url(#p570ce8a572)" d="M 180.183305 288.430125 
L 181.171872 288.430125 
L 181.171872 247.927282 
L 180.183305 247.927282 
z
" style="fill:#1f77b4;"/>
   </g>
   <g id="patch_112">
    <path clip-path="url(#p570ce8a572)" d="M 181.419014 288.430125 
L 182.407582 288.430125 
L 182.407582 247.927282 
L 181.419014 247.927282 
z
" style="fill:#1f77b4;"/>
   </g>
   <g id="patch_113">
    <path clip-path="url(#p570ce8a572)" d="M 182.654724 288.430125 
L 183.643291 288.430125 
L 183.643291 247.94311 
L 182.654724 247.94311 
z
" style="fill:#1f77b4;"/>
   </g>
   <g id="patch_114">
    <path clip-path="url(#p570ce8a572)" d="M 183.890433 288.430125 
L 184.879 288.430125 
L 184.879 247.958925 
L 183.890433 247.958925 
z
" style="fill:#1f77b4;"/>
   </g>
   <g id="patch_115">
    <path clip-path="url(#p570ce8a572)" d="M 185.126142 288.430125 
L 186.11471 288.430125 
L 186.11471 247.990518 
L 185.126142 247.990518 
z
" style="fill:#1f77b4;"/>
   </g>
   <g id="patch_116">
    <path clip-path="url(#p570ce8a572)" d="M 186.361852 288.430125 
L 187.350419 288.430125 
L 187.350419 248.022063 
L 186.361852 248.022063 
z
" style="fill:#1f77b4;"/>
   </g>
   <g id="patch_117">
    <path clip-path="url(#p570ce8a572)" d="M 187.597561 288.430125 
L 188.586128 288.430125 
L 188.586128 248.037816 
L 187.597561 248.037816 
z
" style="fill:#1f77b4;"/>
   </g>
   <g id="patch_118">
    <path clip-path="url(#p570ce8a572)" d="M 188.83327 288.430125 
L 189.821838 288.430125 
L 189.821838 248.069287 
L 188.83327 248.069287 
z
" style="fill:#1f77b4;"/>
   </g>
   <g id="patch_119">
    <path clip-path="url(#p570ce8a572)" d="M 190.06898 288.430125 
L 191.057547 288.430125 
L 191.057547 248.100708 
L 190.06898 248.100708 
z
" style="fill:#1f77b4;"/>
   </g>
   <g id="patch_120">
    <path clip-path="url(#p570ce8a572)" d="M 191.304689 288.430125 
L 192.293256 288.430125 
L 192.293256 248.147749 
L 191.304689 248.147749 
z
" style="fill:#1f77b4;"/>
   </g>
   <g id="patch_121">
    <path clip-path="url(#p570ce8a572)" d="M 192.540398 288.430125 
L 193.528966 288.430125 
L 193.528966 248.257084 
L 192.540398 248.257084 
z
" style="fill:#1f77b4;"/>
   </g>
   <g id="patch_122">
    <path clip-path="url(#p570ce8a572)" d="M 193.776108 288.430125 
L 194.764675 288.430125 
L 194.764675 248.241501 
L 193.776108 248.241501 
z
" style="fill:#1f77b4;"/>
   </g>
   <g id="patch_123">
    <path clip-path="url(#p570ce8a572)" d="M 195.011817 288.430125 
L 196.000385 288.430125 
L 196.000385 248.241501 
L 195.011817 248.241501 
z
" style="fill:#1f77b4;"/>
   </g>
   <g id="patch_124">
    <path clip-path="url(#p570ce8a572)" d="M 196.247526 288.430125 
L 197.236094 288.430125 
L 197.236094 248.257084 
L 196.247526 248.257084 
z
" style="fill:#1f77b4;"/>
   </g>
   <g id="patch_125">
    <path clip-path="url(#p570ce8a572)" d="M 197.483236 288.430125 
L 198.471803 288.430125 
L 198.471803 248.272655 
L 197.483236 248.272655 
z
" style="fill:#1f77b4;"/>
   </g>
   <g id="patch_126">
    <path clip-path="url(#p570ce8a572)" d="M 198.718945 288.430125 
L 199.707513 288.430125 
L 199.707513 248.241501 
L 198.718945 248.241501 
z
" style="fill:#1f77b4;"/>
   </g>
   <g id="patch_127">
    <path clip-path="url(#p570ce8a572)" d="M 199.954654 288.430125 
L 200.943222 288.430125 
L 200.943222 248.288214 
L 199.954654 248.288214 
z
" style="fill:#1f77b4;"/>
   </g>
   <g id="patch_128">
    <path clip-path="url(#p570ce8a572)" d="M 201.190364 288.430125 
L 202.178931 288.430125 
L 202.178931 248.303761 
L 201.190364 248.303761 
z
" style="fill:#1f77b4;"/>
   </g>
   <g id="patch_129">
    <path clip-path="url(#p570ce8a572)" d="M 202.426073 288.430125 
L 203.414641 288.430125 
L 203.414641 248.319296 
L 202.426073 248.319296 
z
" style="fill:#1f77b4;"/>
   </g>
   <g id="patch_130">
    <path clip-path="url(#p570ce8a572)" d="M 203.661782 288.430125 
L 204.65035 288.430125 
L 204.65035 248.334818 
L 203.661782 248.334818 
z
" style="fill:#1f77b4;"/>
   </g>
   <g id="patch_131">
    <path clip-path="url(#p570ce8a572)" d="M 204.897492 288.430125 
L 205.886059 288.430125 
L 205.886059 248.365828 
L 204.897492 248.365828 
z
" style="fill:#1f77b4;"/>
   </g>
   <g id="patch_132">
    <path clip-path="url(#p570ce8a572)" d="M 206.133201 288.430125 
L 207.121769 288.430125 
L 207.121769 248.412252 
L 206.133201 248.412252 
z
" style="fill:#1f77b4;"/>
   </g>
   <g id="patch_133">
    <path clip-path="url(#p570ce8a572)" d="M 207.36891 288.430125 
L 208.357478 288.430125 
L 208.357478 248.535527 
L 207.36891 248.535527 
z
" style="fill:#1f77b4;"/>
   </g>
   <g id="patch_134">
    <path clip-path="url(#p570ce8a572)" d="M 208.60462 288.430125 
L 209.593187 288.430125 
L 209.593187 248.64277 
L 208.60462 248.64277 
z
" style="fill:#1f77b4;"/>
   </g>
   <g id="patch_135">
    <path clip-path="url(#p570ce8a572)" d="M 209.840329 288.430125 
L 210.828897 288.430125 
L 210.828897 248.673305 
L 209.840329 248.673305 
z
" style="fill:#1f77b4;"/>
   </g>
   <g id="patch_136">
    <path clip-path="url(#p570ce8a572)" d="M 211.076038 288.430125 
L 212.064606 288.430125 
L 212.064606 248.673305 
L 211.076038 248.673305 
z
" style="fill:#1f77b4;"/>
   </g>
   <g id="patch_137">
    <path clip-path="url(#p570ce8a572)" d="M 212.311748 288.430125 
L 213.300315 288.430125 
L 213.300315 248.673305 
L 212.311748 248.673305 
z
" style="fill:#1f77b4;"/>
   </g>
   <g id="patch_138">
    <path clip-path="url(#p570ce8a572)" d="M 213.547457 288.430125 
L 214.536025 288.430125 
L 214.536025 248.688555 
L 213.547457 248.688555 
z
" style="fill:#1f77b4;"/>
   </g>
   <g id="patch_139">
    <path clip-path="url(#p570ce8a572)" d="M 214.783167 288.430125 
L 215.771734 288.430125 
L 215.771734 248.734235 
L 214.783167 248.734235 
z
" style="fill:#1f77b4;"/>
   </g>
   <g id="patch_140">
    <path clip-path="url(#p570ce8a572)" d="M 216.018876 288.430125 
L 217.007443 288.430125 
L 217.007443 248.734235 
L 216.018876 248.734235 
z
" style="fill:#1f77b4;"/>
   </g>
   <g id="patch_141">
    <path clip-path="url(#p570ce8a572)" d="M 217.254585 288.430125 
L 218.243153 288.430125 
L 218.243153 248.810136 
L 217.254585 248.810136 
z
" style="fill:#1f77b4;"/>
   </g>
   <g id="patch_142">
    <path clip-path="url(#p570ce8a572)" d="M 218.490295 288.430125 
L 219.478862 288.430125 
L 219.478862 248.855537 
L 218.490295 248.855537 
z
" style="fill:#1f77b4;"/>
   </g>
   <g id="patch_143">
    <path clip-path="url(#p570ce8a572)" d="M 219.726004 288.430125 
L 220.714571 288.430125 
L 220.714571 248.900834 
L 219.726004 248.900834 
z
" style="fill:#1f77b4;"/>
   </g>
   <g id="patch_144">
    <path clip-path="url(#p570ce8a572)" d="M 220.961713 288.430125 
L 221.950281 288.430125 
L 221.950281 248.91591 
L 220.961713 248.91591 
z
" style="fill:#1f77b4;"/>
   </g>
   <g id="patch_145">
    <path clip-path="url(#p570ce8a572)" d="M 222.197423 288.430125 
L 223.18599 288.430125 
L 223.18599 248.91591 
L 222.197423 248.91591 
z
" style="fill:#1f77b4;"/>
   </g>
   <g id="patch_146">
    <path clip-path="url(#p570ce8a572)" d="M 223.433132 288.430125 
L 224.421699 288.430125 
L 224.421699 249.021121 
L 223.433132 249.021121 
z
" style="fill:#1f77b4;"/>
   </g>
   <g id="patch_147">
    <path clip-path="url(#p570ce8a572)" d="M 224.668841 288.430125 
L 225.657409 288.430125 
L 225.657409 249.08099 
L 224.668841 249.08099 
z
" style="fill:#1f77b4;"/>
   </g>
   <g id="patch_148">
    <path clip-path="url(#p570ce8a572)" d="M 225.904551 288.430125 
L 226.893118 288.430125 
L 226.893118 249.08099 
L 225.904551 249.08099 
z
" style="fill:#1f77b4;"/>
   </g>
   <g id="patch_149">
    <path clip-path="url(#p570ce8a572)" d="M 227.14026 288.430125 
L 228.128827 288.430125 
L 228.128827 249.229871 
L 227.14026 249.229871 
z
" style="fill:#1f77b4;"/>
   </g>
   <g id="patch_150">
    <path clip-path="url(#p570ce8a572)" d="M 228.375969 288.430125 
L 229.364537 288.430125 
L 229.364537 249.259512 
L 228.375969 249.259512 
z
" style="fill:#1f77b4;"/>
   </g>
   <g id="patch_151">
    <path clip-path="url(#p570ce8a572)" d="M 229.611679 288.430125 
L 230.600246 288.430125 
L 230.600246 249.274315 
L 229.611679 249.274315 
z
" style="fill:#1f77b4;"/>
   </g>
   <g id="patch_152">
    <path clip-path="url(#p570ce8a572)" d="M 230.847388 288.430125 
L 231.835955 288.430125 
L 231.835955 249.289108 
L 230.847388 249.289108 
z
" style="fill:#1f77b4;"/>
   </g>
   <g id="patch_153">
    <path clip-path="url(#p570ce8a572)" d="M 232.083097 288.430125 
L 233.071665 288.430125 
L 233.071665 249.31866 
L 232.083097 249.31866 
z
" style="fill:#1f77b4;"/>
   </g>
   <g id="patch_154">
    <path clip-path="url(#p570ce8a572)" d="M 233.318807 288.430125 
L 234.307374 288.430125 
L 234.307374 249.46575 
L 233.318807 249.46575 
z
" style="fill:#1f77b4;"/>
   </g>
   <g id="patch_155">
    <path clip-path="url(#p570ce8a572)" d="M 234.554516 288.430125 
L 235.543083 288.430125 
L 235.543083 249.495036 
L 234.554516 249.495036 
z
" style="fill:#1f77b4;"/>
   </g>
   <g id="patch_156">
    <path clip-path="url(#p570ce8a572)" d="M 235.790225 288.430125 
L 236.778793 288.430125 
L 236.778793 249.582629 
L 235.790225 249.582629 
z
" style="fill:#1f77b4;"/>
   </g>
   <g id="patch_157">
    <path clip-path="url(#p570ce8a572)" d="M 237.025935 288.430125 
L 238.014502 288.430125 
L 238.014502 249.669829 
L 237.025935 249.669829 
z
" style="fill:#1f77b4;"/>
   </g>
   <g id="patch_158">
    <path clip-path="url(#p570ce8a572)" d="M 238.261644 288.430125 
L 239.250212 288.430125 
L 239.250212 249.727745 
L 238.261644 249.727745 
z
" style="fill:#1f77b4;"/>
   </g>
   <g id="patch_159">
    <path clip-path="url(#p570ce8a572)" d="M 239.497353 288.430125 
L 240.485921 288.430125 
L 240.485921 249.727745 
L 239.497353 249.727745 
z
" style="fill:#1f77b4;"/>
   </g>
   <g id="patch_160">
    <path clip-path="url(#p570ce8a572)" d="M 240.733063 288.430125 
L 241.72163 288.430125 
L 241.72163 249.900459 
L 240.733063 249.900459 
z
" style="fill:#1f77b4;"/>
   </g>
   <g id="patch_161">
    <path clip-path="url(#p570ce8a572)" d="M 241.968772 288.430125 
L 242.95734 288.430125 
L 242.95734 249.957688 
L 241.968772 249.957688 
z
" style="fill:#1f77b4;"/>
   </g>
   <g id="patch_162">
    <path clip-path="url(#p570ce8a572)" d="M 243.204481 288.430125 
L 244.193049 288.430125 
L 244.193049 250.000499 
L 243.204481 250.000499 
z
" style="fill:#1f77b4;"/>
   </g>
   <g id="patch_163">
    <path clip-path="url(#p570ce8a572)" d="M 244.440191 288.430125 
L 245.428758 288.430125 
L 245.428758 250.213131 
L 244.440191 250.213131 
z
" style="fill:#1f77b4;"/>
   </g>
   <g id="patch_164">
    <path clip-path="url(#p570ce8a572)" d="M 245.6759 288.430125 
L 246.664468 288.430125 
L 246.664468 250.227222 
L 245.6759 250.227222 
z
" style="fill:#1f77b4;"/>
   </g>
   <g id="patch_165">
    <path clip-path="url(#p570ce8a572)" d="M 246.911609 288.430125 
L 247.900177 288.430125 
L 247.900177 250.227222 
L 246.911609 250.227222 
z
" style="fill:#1f77b4;"/>
   </g>
   <g id="patch_166">
    <path clip-path="url(#p570ce8a572)" d="M 248.147319 288.430125 
L 249.135886 288.430125 
L 249.135886 250.516846 
L 248.147319 250.516846 
z
" style="fill:#1f77b4;"/>
   </g>
   <g id="patch_167">
    <path clip-path="url(#p570ce8a572)" d="M 249.383028 288.430125 
L 250.371596 288.430125 
L 250.371596 250.339584 
L 249.383028 250.339584 
z
" style="fill:#1f77b4;"/>
   </g>
   <g id="patch_168">
    <path clip-path="url(#p570ce8a572)" d="M 250.618737 288.430125 
L 251.607305 288.430125 
L 251.607305 250.367571 
L 250.618737 250.367571 
z
" style="fill:#1f77b4;"/>
   </g>
   <g id="patch_169">
    <path clip-path="url(#p570ce8a572)" d="M 251.854447 288.430125 
L 252.843014 288.430125 
L 252.843014 250.423422 
L 251.854447 250.423422 
z
" style="fill:#1f77b4;"/>
   </g>
   <g id="patch_170">
    <path clip-path="url(#p570ce8a572)" d="M 253.090156 288.430125 
L 254.078724 288.430125 
L 254.078724 250.534634 
L 253.090156 250.534634 
z
" style="fill:#1f77b4;"/>
   </g>
   <g id="patch_171">
    <path clip-path="url(#p570ce8a572)" d="M 254.325865 288.430125 
L 255.314433 288.430125 
L 255.314433 250.645197 
L 254.325865 250.645197 
z
" style="fill:#1f77b4;"/>
   </g>
   <g id="patch_172">
    <path clip-path="url(#p570ce8a572)" d="M 255.561575 288.430125 
L 256.550142 288.430125 
L 256.550142 250.686492 
L 255.561575 250.686492 
z
" style="fill:#1f77b4;"/>
   </g>
   <g id="patch_173">
    <path clip-path="url(#p570ce8a572)" d="M 256.797284 288.430125 
L 257.785852 288.430125 
L 257.785852 250.713972 
L 256.797284 250.713972 
z
" style="fill:#1f77b4;"/>
   </g>
   <g id="patch_174">
    <path clip-path="url(#p570ce8a572)" d="M 258.032994 288.430125 
L 259.021561 288.430125 
L 259.021561 250.782497 
L 258.032994 250.782497 
z
" style="fill:#1f77b4;"/>
   </g>
   <g id="patch_175">
    <path clip-path="url(#p570ce8a572)" d="M 259.268703 288.430125 
L 260.25727 288.430125 
L 260.25727 250.837138 
L 259.268703 250.837138 
z
" style="fill:#1f77b4;"/>
   </g>
   <g id="patch_176">
    <path clip-path="url(#p570ce8a572)" d="M 260.504412 288.430125 
L 261.49298 288.430125 
L 261.49298 250.945946 
L 260.504412 250.945946 
z
" style="fill:#1f77b4;"/>
   </g>
   <g id="patch_177">
    <path clip-path="url(#p570ce8a572)" d="M 261.740122 288.430125 
L 262.728689 288.430125 
L 262.728689 251.134851 
L 261.740122 251.134851 
z
" style="fill:#1f77b4;"/>
   </g>
   <g id="patch_178">
    <path clip-path="url(#p570ce8a572)" d="M 262.975831 288.430125 
L 263.964398 288.430125 
L 263.964398 251.228591 
L 262.975831 251.228591 
z
" style="fill:#1f77b4;"/>
   </g>
   <g id="patch_179">
    <path clip-path="url(#p570ce8a572)" d="M 264.21154 288.430125 
L 265.200108 288.430125 
L 265.200108 251.268621 
L 264.21154 251.268621 
z
" style="fill:#1f77b4;"/>
   </g>
   <g id="patch_180">
    <path clip-path="url(#p570ce8a572)" d="M 265.44725 288.430125 
L 266.435817 288.430125 
L 266.435817 251.281946 
L 265.44725 251.281946 
z
" style="fill:#1f77b4;"/>
   </g>
   <g id="patch_181">
    <path clip-path="url(#p570ce8a572)" d="M 266.682959 288.430125 
L 267.671526 288.430125 
L 267.671526 251.348424 
L 266.682959 251.348424 
z
" style="fill:#1f77b4;"/>
   </g>
   <g id="patch_182">
    <path clip-path="url(#p570ce8a572)" d="M 267.918668 288.430125 
L 268.907236 288.430125 
L 268.907236 251.401436 
L 267.918668 251.401436 
z
" style="fill:#1f77b4;"/>
   </g>
   <g id="patch_183">
    <path clip-path="url(#p570ce8a572)" d="M 269.154378 288.430125 
L 270.142945 288.430125 
L 270.142945 251.533304 
L 269.154378 251.533304 
z
" style="fill:#1f77b4;"/>
   </g>
   <g id="patch_184">
    <path clip-path="url(#p570ce8a572)" d="M 270.390087 288.430125 
L 271.378654 288.430125 
L 271.378654 251.71635 
L 270.390087 251.71635 
z
" style="fill:#1f77b4;"/>
   </g>
   <g id="patch_185">
    <path clip-path="url(#p570ce8a572)" d="M 271.625796 288.430125 
L 272.614364 288.430125 
L 272.614364 251.845989 
L 271.625796 251.845989 
z
" style="fill:#1f77b4;"/>
   </g>
   <g id="patch_186">
    <path clip-path="url(#p570ce8a572)" d="M 272.861506 288.430125 
L 273.850073 288.430125 
L 273.850073 251.845989 
L 272.861506 251.845989 
z
" style="fill:#1f77b4;"/>
   </g>
   <g id="patch_187">
    <path clip-path="url(#p570ce8a572)" d="M 274.097215 288.430125 
L 275.085782 288.430125 
L 275.085782 251.897589 
L 274.097215 251.897589 
z
" style="fill:#1f77b4;"/>
   </g>
   <g id="patch_188">
    <path clip-path="url(#p570ce8a572)" d="M 275.332924 288.430125 
L 276.321492 288.430125 
L 276.321492 252.013158 
L 275.332924 252.013158 
z
" style="fill:#1f77b4;"/>
   </g>
   <g id="patch_189">
    <path clip-path="url(#p570ce8a572)" d="M 276.568634 288.430125 
L 277.557201 288.430125 
L 277.557201 252.166117 
L 276.568634 252.166117 
z
" style="fill:#1f77b4;"/>
   </g>
   <g id="patch_190">
    <path clip-path="url(#p570ce8a572)" d="M 277.804343 288.430125 
L 278.79291 288.430125 
L 278.79291 252.330379 
L 277.804343 252.330379 
z
" style="fill:#1f77b4;"/>
   </g>
   <g id="patch_191">
    <path clip-path="url(#p570ce8a572)" d="M 279.040052 288.430125 
L 280.02862 288.430125 
L 280.02862 252.405691 
L 279.040052 252.405691 
z
" style="fill:#1f77b4;"/>
   </g>
   <g id="patch_192">
    <path clip-path="url(#p570ce8a572)" d="M 280.275762 288.430125 
L 281.264329 288.430125 
L 281.264329 252.44323 
L 280.275762 252.44323 
z
" style="fill:#1f77b4;"/>
   </g>
   <g id="patch_193">
    <path clip-path="url(#p570ce8a572)" d="M 281.511471 288.430125 
L 282.500038 288.430125 
L 282.500038 252.468212 
L 281.511471 252.468212 
z
" style="fill:#1f77b4;"/>
   </g>
   <g id="patch_194">
    <path clip-path="url(#p570ce8a572)" d="M 282.74718 288.430125 
L 283.735748 288.430125 
L 283.735748 252.468212 
L 282.74718 252.468212 
z
" style="fill:#1f77b4;"/>
   </g>
   <g id="patch_195">
    <path clip-path="url(#p570ce8a572)" d="M 283.98289 288.430125 
L 284.971457 288.430125 
L 284.971457 252.580204 
L 283.98289 252.580204 
z
" style="fill:#1f77b4;"/>
   </g>
   <g id="patch_196">
    <path clip-path="url(#p570ce8a572)" d="M 285.218599 288.430125 
L 286.207167 288.430125 
L 286.207167 252.716139 
L 285.218599 252.716139 
z
" style="fill:#1f77b4;"/>
   </g>
   <g id="patch_197">
    <path clip-path="url(#p570ce8a572)" d="M 286.454308 288.430125 
L 287.442876 288.430125 
L 287.442876 252.997063 
L 286.454308 252.997063 
z
" style="fill:#1f77b4;"/>
   </g>
   <g id="patch_198">
    <path clip-path="url(#p570ce8a572)" d="M 287.690018 288.430125 
L 288.678585 288.430125 
L 288.678585 253.03338 
L 287.690018 253.03338 
z
" style="fill:#1f77b4;"/>
   </g>
   <g id="patch_199">
    <path clip-path="url(#p570ce8a572)" d="M 288.925727 288.430125 
L 289.914295 288.430125 
L 289.914295 253.213853 
L 288.925727 253.213853 
z
" style="fill:#1f77b4;"/>
   </g>
   <g id="patch_200">
    <path clip-path="url(#p570ce8a572)" d="M 290.161436 288.430125 
L 291.150004 288.430125 
L 291.150004 253.356912 
L 290.161436 253.356912 
z
" style="fill:#1f77b4;"/>
   </g>
   <g id="patch_201">
    <path clip-path="url(#p570ce8a572)" d="M 291.397146 288.430125 
L 292.385713 288.430125 
L 292.385713 253.380642 
L 291.397146 253.380642 
z
" style="fill:#1f77b4;"/>
   </g>
   <g id="patch_202">
    <path clip-path="url(#p570ce8a572)" d="M 292.632855 288.430125 
L 293.621423 288.430125 
L 293.621423 253.63957 
L 292.632855 253.63957 
z
" style="fill:#1f77b4;"/>
   </g>
   <g id="patch_203">
    <path clip-path="url(#p570ce8a572)" d="M 293.868564 288.430125 
L 294.857132 288.430125 
L 294.857132 253.73278 
L 293.868564 253.73278 
z
" style="fill:#1f77b4;"/>
   </g>
   <g id="patch_204">
    <path clip-path="url(#p570ce8a572)" d="M 295.104274 288.430125 
L 296.092841 288.430125 
L 296.092841 253.917709 
L 295.104274 253.917709 
z
" style="fill:#1f77b4;"/>
   </g>
   <g id="patch_205">
    <path clip-path="url(#p570ce8a572)" d="M 296.339983 288.430125 
L 297.328551 288.430125 
L 297.328551 253.997997 
L 296.339983 253.997997 
z
" style="fill:#1f77b4;"/>
   </g>
   <g id="patch_206">
    <path clip-path="url(#p570ce8a572)" d="M 297.575692 288.430125 
L 298.56426 288.430125 
L 298.56426 254.225347 
L 297.575692 254.225347 
z
" style="fill:#1f77b4;"/>
   </g>
   <g id="patch_207">
    <path clip-path="url(#p570ce8a572)" d="M 298.811402 288.430125 
L 299.799969 288.430125 
L 299.799969 254.292968 
L 298.811402 254.292968 
z
" style="fill:#1f77b4;"/>
   </g>
   <g id="patch_208">
    <path clip-path="url(#p570ce8a572)" d="M 300.047111 288.430125 
L 301.035679 288.430125 
L 301.035679 254.449714 
L 300.047111 254.449714 
z
" style="fill:#1f77b4;"/>
   </g>
   <g id="patch_209">
    <path clip-path="url(#p570ce8a572)" d="M 301.282821 288.430125 
L 302.271388 288.430125 
L 302.271388 254.649143 
L 301.282821 254.649143 
z
" style="fill:#1f77b4;"/>
   </g>
   <g id="patch_210">
    <path clip-path="url(#p570ce8a572)" d="M 302.51853 288.430125 
L 303.507097 288.430125 
L 303.507097 254.758928 
L 302.51853 254.758928 
z
" style="fill:#1f77b4;"/>
   </g>
   <g id="patch_211">
    <path clip-path="url(#p570ce8a572)" d="M 303.754239 288.430125 
L 304.742807 288.430125 
L 304.742807 254.911435 
L 303.754239 254.911435 
z
" style="fill:#1f77b4;"/>
   </g>
   <g id="patch_212">
    <path clip-path="url(#p570ce8a572)" d="M 304.989949 288.430125 
L 305.978516 288.430125 
L 305.978516 255.084045 
L 304.989949 255.084045 
z
" style="fill:#1f77b4;"/>
   </g>
   <g id="patch_213">
    <path clip-path="url(#p570ce8a572)" d="M 306.225658 288.430125 
L 307.214225 288.430125 
L 307.214225 255.151928 
L 306.225658 255.151928 
z
" style="fill:#1f77b4;"/>
   </g>
   <g id="patch_214">
    <path clip-path="url(#p570ce8a572)" d="M 307.461367 288.430125 
L 308.449935 288.430125 
L 308.449935 255.279268 
L 307.461367 255.279268 
z
" style="fill:#1f77b4;"/>
   </g>
   <g id="patch_215">
    <path clip-path="url(#p570ce8a572)" d="M 308.697077 288.430125 
L 309.685644 288.430125 
L 309.685644 255.416124 
L 308.697077 255.416124 
z
" style="fill:#1f77b4;"/>
   </g>
   <g id="patch_216">
    <path clip-path="url(#p570ce8a572)" d="M 309.932786 288.430125 
L 310.921353 288.430125 
L 310.921353 255.416124 
L 309.932786 255.416124 
z
" style="fill:#1f77b4;"/>
   </g>
   <g id="patch_217">
    <path clip-path="url(#p570ce8a572)" d="M 311.168495 288.430125 
L 312.157063 288.430125 
L 312.157063 255.655507 
L 311.168495 255.655507 
z
" style="fill:#1f77b4;"/>
   </g>
   <g id="patch_218">
    <path clip-path="url(#p570ce8a572)" d="M 312.404205 288.430125 
L 313.392772 288.430125 
L 313.392772 255.840442 
L 312.404205 255.840442 
z
" style="fill:#1f77b4;"/>
   </g>
   <g id="patch_219">
    <path clip-path="url(#p570ce8a572)" d="M 313.639914 288.430125 
L 314.628481 288.430125 
L 314.628481 255.982844 
L 313.639914 255.982844 
z
" style="fill:#1f77b4;"/>
   </g>
   <g id="patch_220">
    <path clip-path="url(#p570ce8a572)" d="M 314.875623 288.430125 
L 315.864191 288.430125 
L 315.864191 256.063659 
L 314.875623 256.063659 
z
" style="fill:#1f77b4;"/>
   </g>
   <g id="patch_221">
    <path clip-path="url(#p570ce8a572)" d="M 316.111333 288.430125 
L 317.0999 288.430125 
L 317.0999 255.973403 
L 316.111333 255.973403 
z
" style="fill:#1f77b4;"/>
   </g>
   <g id="patch_222">
    <path clip-path="url(#p570ce8a572)" d="M 317.347042 288.430125 
L 318.335609 288.430125 
L 318.335609 256.013747 
L 317.347042 256.013747 
z
" style="fill:#1f77b4;"/>
   </g>
   <g id="patch_223">
    <path clip-path="url(#p570ce8a572)" d="M 318.582751 288.430125 
L 319.571319 288.430125 
L 319.571319 255.833745 
L 318.582751 255.833745 
z
" style="fill:#1f77b4;"/>
   </g>
   <g id="patch_224">
    <path clip-path="url(#p570ce8a572)" d="M 319.818461 288.430125 
L 320.807028 288.430125 
L 320.807028 255.924543 
L 319.818461 255.924543 
z
" style="fill:#1f77b4;"/>
   </g>
   <g id="patch_225">
    <path clip-path="url(#p570ce8a572)" d="M 321.05417 288.430125 
L 322.042737 288.430125 
L 322.042737 255.974768 
L 321.05417 255.974768 
z
" style="fill:#1f77b4;"/>
   </g>
   <g id="patch_226">
    <path clip-path="url(#p570ce8a572)" d="M 322.289879 288.430125 
L 323.278447 288.430125 
L 323.278447 256.004828 
L 322.289879 256.004828 
z
" style="fill:#1f77b4;"/>
   </g>
   <g id="patch_227">
    <path clip-path="url(#p570ce8a572)" d="M 323.525589 288.430125 
L 324.514156 288.430125 
L 324.514156 256.084718 
L 323.525589 256.084718 
z
" style="fill:#1f77b4;"/>
   </g>
   <g id="patch_228">
    <path clip-path="url(#p570ce8a572)" d="M 324.761298 288.430125 
L 325.749865 288.430125 
L 325.749865 255.82718 
L 324.761298 255.82718 
z
" style="fill:#1f77b4;"/>
   </g>
   <g id="patch_229">
    <path clip-path="url(#p570ce8a572)" d="M 325.997007 288.430125 
L 326.985575 288.430125 
L 326.985575 255.768327 
L 325.997007 255.768327 
z
" style="fill:#1f77b4;"/>
   </g>
   <g id="patch_230">
    <path clip-path="url(#p570ce8a572)" d="M 327.232717 288.430125 
L 328.221284 288.430125 
L 328.221284 255.403773 
L 327.232717 255.403773 
z
" style="fill:#1f77b4;"/>
   </g>
   <g id="patch_231">
    <path clip-path="url(#p570ce8a572)" d="M 328.468426 288.430125 
L 329.456994 288.430125 
L 329.456994 255.20684 
L 328.468426 255.20684 
z
" style="fill:#1f77b4;"/>
   </g>
   <g id="patch_232">
    <path clip-path="url(#p570ce8a572)" d="M 329.704135 288.430125 
L 330.692703 288.430125 
L 330.692703 255.050978 
L 329.704135 255.050978 
z
" style="fill:#1f77b4;"/>
   </g>
   <g id="patch_233">
    <path clip-path="url(#p570ce8a572)" d="M 330.939845 288.430125 
L 331.928412 288.430125 
L 331.928412 254.699902 
L 330.939845 254.699902 
z
" style="fill:#1f77b4;"/>
   </g>
   <g id="patch_234">
    <path clip-path="url(#p570ce8a572)" d="M 332.175554 288.430125 
L 333.164122 288.430125 
L 333.164122 254.406673 
L 332.175554 254.406673 
z
" style="fill:#1f77b4;"/>
   </g>
   <g id="patch_235">
    <path clip-path="url(#p570ce8a572)" d="M 333.411263 288.430125 
L 334.399831 288.430125 
L 334.399831 254.058335 
L 333.411263 254.058335 
z
" style="fill:#1f77b4;"/>
   </g>
   <g id="patch_236">
    <path clip-path="url(#p570ce8a572)" d="M 334.646973 288.430125 
L 335.63554 288.430125 
L 335.63554 253.98197 
L 334.646973 253.98197 
z
" style="fill:#1f77b4;"/>
   </g>
   <g id="patch_237">
    <path clip-path="url(#p570ce8a572)" d="M 335.882682 288.430125 
L 336.87125 288.430125 
L 336.87125 253.819173 
L 335.882682 253.819173 
z
" style="fill:#1f77b4;"/>
   </g>
   <g id="patch_238">
    <path clip-path="url(#p570ce8a572)" d="M 337.118391 288.430125 
L 338.106959 288.430125 
L 338.106959 253.495055 
L 337.118391 253.495055 
z
" style="fill:#1f77b4;"/>
   </g>
   <g id="patch_239">
    <path clip-path="url(#p570ce8a572)" d="M 338.354101 288.430125 
L 339.342668 288.430125 
L 339.342668 262.559758 
L 338.354101 262.559758 
z
" style="fill:#1f77b4;"/>
   </g>
   <g id="patch_240">
    <path clip-path="url(#p570ce8a572)" d="M 339.58981 288.430125 
L 340.578378 288.430125 
L 340.578378 263.851915 
L 339.58981 263.851915 
z
" style="fill:#1f77b4;"/>
   </g>
   <g id="patch_241">
    <path clip-path="url(#p570ce8a572)" d="M 340.825519 288.430125 
L 341.814087 288.430125 
L 341.814087 264.886195 
L 340.825519 264.886195 
z
" style="fill:#1f77b4;"/>
   </g>
   <g id="patch_242">
    <path clip-path="url(#p570ce8a572)" d="M 342.061229 288.430125 
L 343.049796 288.430125 
L 343.049796 265.311802 
L 342.061229 265.311802 
z
" style="fill:#1f77b4;"/>
   </g>
   <g id="patch_243">
    <path clip-path="url(#p570ce8a572)" d="M 343.296938 288.430125 
L 344.285506 288.430125 
L 344.285506 265.521879 
L 343.296938 265.521879 
z
" style="fill:#1f77b4;"/>
   </g>
   <g id="patch_244">
    <path clip-path="url(#p570ce8a572)" d="M 344.532647 288.430125 
L 345.521215 288.430125 
L 345.521215 265.622794 
L 344.532647 265.622794 
z
" style="fill:#1f77b4;"/>
   </g>
   <g id="patch_245">
    <path clip-path="url(#p570ce8a572)" d="M 345.768357 288.430125 
L 346.756924 288.430125 
L 346.756924 266.587008 
L 345.768357 266.587008 
z
" style="fill:#1f77b4;"/>
   </g>
   <g id="patch_246">
    <path clip-path="url(#p570ce8a572)" d="M 347.004066 288.430125 
L 347.992634 288.430125 
L 347.992634 267.265662 
L 347.004066 267.265662 
z
" style="fill:#1f77b4;"/>
   </g>
   <g id="patch_247">
    <path clip-path="url(#p570ce8a572)" d="M 348.239776 288.430125 
L 349.228343 288.430125 
L 349.228343 268.101287 
L 348.239776 268.101287 
z
" style="fill:#1f77b4;"/>
   </g>
   <g id="patch_248">
    <path clip-path="url(#p570ce8a572)" d="M 349.475485 288.430125 
L 350.464052 288.430125 
L 350.464052 268.290826 
L 349.475485 268.290826 
z
" style="fill:#1f77b4;"/>
   </g>
   <g id="patch_249">
    <path clip-path="url(#p570ce8a572)" d="M 350.711194 288.430125 
L 351.699762 288.430125 
L 351.699762 268.685624 
L 350.711194 268.685624 
z
" style="fill:#1f77b4;"/>
   </g>
   <g id="patch_250">
    <path clip-path="url(#p570ce8a572)" d="M 351.946904 288.430125 
L 352.935471 288.430125 
L 352.935471 268.587652 
L 351.946904 268.587652 
z
" style="fill:#1f77b4;"/>
   </g>
   <g id="patch_251">
    <path clip-path="url(#p570ce8a572)" d="M 353.182613 288.430125 
L 354.17118 288.430125 
L 354.17118 269.057463 
L 353.182613 269.057463 
z
" style="fill:#1f77b4;"/>
   </g>
   <g id="patch_252">
    <path clip-path="url(#p570ce8a572)" d="M 354.418322 288.430125 
L 355.40689 288.430125 
L 355.40689 269.42445 
L 354.418322 269.42445 
z
" style="fill:#1f77b4;"/>
   </g>
   <g id="patch_253">
    <path clip-path="url(#p570ce8a572)" d="M 355.654032 288.430125 
L 356.642599 288.430125 
L 356.642599 270.042031 
L 355.654032 270.042031 
z
" style="fill:#1f77b4;"/>
   </g>
   <g id="patch_254">
    <path clip-path="url(#p570ce8a572)" d="M 356.889741 288.430125 
L 357.878308 288.430125 
L 357.878308 270.195977 
L 356.889741 270.195977 
z
" style="fill:#1f77b4;"/>
   </g>
   <g id="patch_255">
    <path clip-path="url(#p570ce8a572)" d="M 358.12545 288.430125 
L 359.114018 288.430125 
L 359.114018 271.052441 
L 358.12545 271.052441 
z
" style="fill:#1f77b4;"/>
   </g>
   <g id="patch_256">
    <path clip-path="url(#p570ce8a572)" d="M 359.36116 288.430125 
L 360.349727 288.430125 
L 360.349727 271.347059 
L 359.36116 271.347059 
z
" style="fill:#1f77b4;"/>
   </g>
   <g id="patch_257">
    <path clip-path="url(#p570ce8a572)" d="M 360.596869 288.430125 
L 361.585436 288.430125 
L 361.585436 270.981325 
L 360.596869 270.981325 
z
" style="fill:#1f77b4;"/>
   </g>
   <g id="patch_258">
    <path clip-path="url(#p570ce8a572)" d="M 361.832578 288.430125 
L 362.821146 288.430125 
L 362.821146 271.375944 
L 361.832578 271.375944 
z
" style="fill:#1f77b4;"/>
   </g>
   <g id="patch_259">
    <path clip-path="url(#p570ce8a572)" d="M 363.068288 288.430125 
L 364.056855 288.430125 
L 364.056855 271.712422 
L 363.068288 271.712422 
z
" style="fill:#1f77b4;"/>
   </g>
   <g id="patch_260">
    <path clip-path="url(#p570ce8a572)" d="M 364.303997 288.430125 
L 365.292564 288.430125 
L 365.292564 271.927055 
L 364.303997 271.927055 
z
" style="fill:#1f77b4;"/>
   </g>
   <g id="patch_261">
    <path clip-path="url(#p570ce8a572)" d="M 365.539706 288.430125 
L 366.528274 288.430125 
L 366.528274 272.431438 
L 365.539706 272.431438 
z
" style="fill:#1f77b4;"/>
   </g>
   <g id="patch_262">
    <path clip-path="url(#p570ce8a572)" d="M 366.775416 288.430125 
L 367.763983 288.430125 
L 367.763983 273.087669 
L 366.775416 273.087669 
z
" style="fill:#1f77b4;"/>
   </g>
   <g id="patch_263">
    <path clip-path="url(#p570ce8a572)" d="M 368.011125 288.430125 
L 368.999692 288.430125 
L 368.999692 273.303084 
L 368.011125 273.303084 
z
" style="fill:#1f77b4;"/>
   </g>
   <g id="patch_264">
    <path clip-path="url(#p570ce8a572)" d="M 369.246834 288.430125 
L 370.235402 288.430125 
L 370.235402 273.332172 
L 369.246834 273.332172 
z
" style="fill:#1f77b4;"/>
   </g>
   <g id="patch_265">
    <path clip-path="url(#p570ce8a572)" d="M 370.482544 288.430125 
L 371.471111 288.430125 
L 371.471111 273.47482 
L 370.482544 273.47482 
z
" style="fill:#1f77b4;"/>
   </g>
   <g id="patch_266">
    <path clip-path="url(#p570ce8a572)" d="M 371.718253 288.430125 
L 372.706821 288.430125 
L 372.706821 273.59628 
L 371.718253 273.59628 
z
" style="fill:#1f77b4;"/>
   </g>
   <g id="patch_267">
    <path clip-path="url(#p570ce8a572)" d="M 372.953962 288.430125 
L 373.94253 288.430125 
L 373.94253 273.651536 
L 372.953962 273.651536 
z
" style="fill:#1f77b4;"/>
   </g>
   <g id="patch_268">
    <path clip-path="url(#p570ce8a572)" d="M 374.189672 288.430125 
L 375.178239 288.430125 
L 375.178239 273.934392 
L 374.189672 273.934392 
z
" style="fill:#1f77b4;"/>
   </g>
   <g id="patch_269">
    <path clip-path="url(#p570ce8a572)" d="M 375.425381 288.430125 
L 376.413949 288.430125 
L 376.413949 274.227656 
L 375.425381 274.227656 
z
" style="fill:#1f77b4;"/>
   </g>
   <g id="patch_270">
    <path clip-path="url(#p570ce8a572)" d="M 376.66109 288.430125 
L 377.649658 288.430125 
L 377.649658 274.221888 
L 376.66109 274.221888 
z
" style="fill:#1f77b4;"/>
   </g>
   <g id="patch_271">
    <path clip-path="url(#p570ce8a572)" d="M 377.8968 288.430125 
L 378.885367 288.430125 
L 378.885367 274.065301 
L 377.8968 274.065301 
z
" style="fill:#1f77b4;"/>
   </g>
   <g id="patch_272">
    <path clip-path="url(#p570ce8a572)" d="M 379.132509 288.430125 
L 380.121077 288.430125 
L 380.121077 274.049875 
L 379.132509 274.049875 
z
" style="fill:#1f77b4;"/>
   </g>
   <g id="patch_273">
    <path clip-path="url(#p570ce8a572)" d="M 380.368218 288.430125 
L 381.356786 288.430125 
L 381.356786 274.246755 
L 380.368218 274.246755 
z
" style="fill:#1f77b4;"/>
   </g>
   <g id="patch_274">
    <path clip-path="url(#p570ce8a572)" d="M 381.603928 288.430125 
L 382.592495 288.430125 
L 382.592495 274.153048 
L 381.603928 274.153048 
z
" style="fill:#1f77b4;"/>
   </g>
   <g id="patch_275">
    <path clip-path="url(#p570ce8a572)" d="M 382.839637 288.430125 
L 383.828205 288.430125 
L 383.828205 274.291897 
L 382.839637 274.291897 
z
" style="fill:#1f77b4;"/>
   </g>
   <g id="patch_276">
    <path clip-path="url(#p570ce8a572)" d="M 384.075346 288.430125 
L 385.063914 288.430125 
L 385.063914 274.443557 
L 384.075346 274.443557 
z
" style="fill:#1f77b4;"/>
   </g>
   <g id="patch_277">
    <path clip-path="url(#p570ce8a572)" d="M 385.311056 288.430125 
L 386.299623 288.430125 
L 386.299623 274.292549 
L 385.311056 274.292549 
z
" style="fill:#1f77b4;"/>
   </g>
   <g id="patch_278">
    <path clip-path="url(#p570ce8a572)" d="M 386.546765 288.430125 
L 387.535333 288.430125 
L 387.535333 274.137414 
L 386.546765 274.137414 
z
" style="fill:#1f77b4;"/>
   </g>
   <g id="patch_279">
    <path clip-path="url(#p570ce8a572)" d="M 387.782474 288.430125 
L 388.771042 288.430125 
L 388.771042 274.127 
L 387.782474 274.127 
z
" style="fill:#1f77b4;"/>
   </g>
   <g id="patch_280">
    <path clip-path="url(#p570ce8a572)" d="M 389.018184 288.430125 
L 390.006751 288.430125 
L 390.006751 274.216365 
L 389.018184 274.216365 
z
" style="fill:#1f77b4;"/>
   </g>
   <g id="patch_281">
    <path clip-path="url(#p570ce8a572)" d="M 390.253893 288.430125 
L 391.242461 288.430125 
L 391.242461 274.206482 
L 390.253893 274.206482 
z
" style="fill:#1f77b4;"/>
   </g>
   <g id="patch_282">
    <path clip-path="url(#p570ce8a572)" d="M 391.489603 288.430125 
L 392.47817 288.430125 
L 392.47817 274.146837 
L 391.489603 274.146837 
z
" style="fill:#1f77b4;"/>
   </g>
   <g id="patch_283">
    <path clip-path="url(#p570ce8a572)" d="M 392.725312 288.430125 
L 393.713879 288.430125 
L 393.713879 275.360349 
L 392.725312 275.360349 
z
" style="fill:#1f77b4;"/>
   </g>
   <g id="patch_284">
    <path clip-path="url(#p570ce8a572)" d="M 393.961021 288.430125 
L 394.949589 288.430125 
L 394.949589 274.262054 
L 393.961021 274.262054 
z
" style="fill:#1f77b4;"/>
   </g>
   <g id="patch_285">
    <path clip-path="url(#p570ce8a572)" d="M 395.196731 288.430125 
L 396.185298 288.430125 
L 396.185298 274.213859 
L 395.196731 274.213859 
z
" style="fill:#1f77b4;"/>
   </g>
   <g id="patch_286">
    <path clip-path="url(#p570ce8a572)" d="M 396.43244 288.430125 
L 397.421007 288.430125 
L 397.421007 274.409186 
L 396.43244 274.409186 
z
" style="fill:#1f77b4;"/>
   </g>
   <g id="patch_287">
    <path clip-path="url(#p570ce8a572)" d="M 397.668149 288.430125 
L 398.656717 288.430125 
L 398.656717 274.500253 
L 397.668149 274.500253 
z
" style="fill:#1f77b4;"/>
   </g>
   <g id="patch_288">
    <path clip-path="url(#p570ce8a572)" d="M 398.903859 288.430125 
L 399.892426 288.430125 
L 399.892426 274.536845 
L 398.903859 274.536845 
z
" style="fill:#1f77b4;"/>
   </g>
   <g id="patch_289">
    <path clip-path="url(#p570ce8a572)" d="M 400.139568 288.430125 
L 401.128135 288.430125 
L 401.128135 274.41704 
L 400.139568 274.41704 
z
" style="fill:#1f77b4;"/>
   </g>
   <g id="patch_290">
    <path clip-path="url(#p570ce8a572)" d="M 401.375277 288.430125 
L 402.363845 288.430125 
L 402.363845 274.411164 
L 401.375277 274.411164 
z
" style="fill:#1f77b4;"/>
   </g>
   <g id="patch_291">
    <path clip-path="url(#p570ce8a572)" d="M 402.610987 288.430125 
L 403.599554 288.430125 
L 403.599554 274.443602 
L 402.610987 274.443602 
z
" style="fill:#1f77b4;"/>
   </g>
   <g id="matplotlib.axis_1">
    <g id="xtick_1">
     <g id="line2d_1">
      <defs>
       <path d="M 0 0 
L 0 3.5 
" id="m1008681f66" style="stroke:#000000;stroke-width:0.8;"/>
      </defs>
      <g>
       <use style="stroke:#000000;stroke-width:0.8;" x="68.228038" xlink:href="#m1008681f66" y="288.430125"/>
      </g>
     </g>
     <g id="text_1">
      <!-- 2020-04 -->
      <g transform="translate(70.987413 337.212937)rotate(-90)scale(0.1 -0.1)">
       <defs>
        <path d="M 19.1875 8.296875 
L 53.609375 8.296875 
L 53.609375 0 
L 7.328125 0 
L 7.328125 8.296875 
Q 12.9375 14.109375 22.625 23.890625 
Q 32.328125 33.6875 34.8125 36.53125 
Q 39.546875 41.84375 41.421875 45.53125 
Q 43.3125 49.21875 43.3125 52.78125 
Q 43.3125 58.59375 39.234375 62.25 
Q 35.15625 65.921875 28.609375 65.921875 
Q 23.96875 65.921875 18.8125 64.3125 
Q 13.671875 62.703125 7.8125 59.421875 
L 7.8125 69.390625 
Q 13.765625 71.78125 18.9375 73 
Q 24.125 74.21875 28.421875 74.21875 
Q 39.75 74.21875 46.484375 68.546875 
Q 53.21875 62.890625 53.21875 53.421875 
Q 53.21875 48.921875 51.53125 44.890625 
Q 49.859375 40.875 45.40625 35.40625 
Q 44.1875 33.984375 37.640625 27.21875 
Q 31.109375 20.453125 19.1875 8.296875 
z
" id="DejaVuSans-50"/>
        <path d="M 31.78125 66.40625 
Q 24.171875 66.40625 20.328125 58.90625 
Q 16.5 51.421875 16.5 36.375 
Q 16.5 21.390625 20.328125 13.890625 
Q 24.171875 6.390625 31.78125 6.390625 
Q 39.453125 6.390625 43.28125 13.890625 
Q 47.125 21.390625 47.125 36.375 
Q 47.125 51.421875 43.28125 58.90625 
Q 39.453125 66.40625 31.78125 66.40625 
z
M 31.78125 74.21875 
Q 44.046875 74.21875 50.515625 64.515625 
Q 56.984375 54.828125 56.984375 36.375 
Q 56.984375 17.96875 50.515625 8.265625 
Q 44.046875 -1.421875 31.78125 -1.421875 
Q 19.53125 -1.421875 13.0625 8.265625 
Q 6.59375 17.96875 6.59375 36.375 
Q 6.59375 54.828125 13.0625 64.515625 
Q 19.53125 74.21875 31.78125 74.21875 
z
" id="DejaVuSans-48"/>
        <path d="M 4.890625 31.390625 
L 31.203125 31.390625 
L 31.203125 23.390625 
L 4.890625 23.390625 
z
" id="DejaVuSans-45"/>
        <path d="M 37.796875 64.3125 
L 12.890625 25.390625 
L 37.796875 25.390625 
z
M 35.203125 72.90625 
L 47.609375 72.90625 
L 47.609375 25.390625 
L 58.015625 25.390625 
L 58.015625 17.1875 
L 47.609375 17.1875 
L 47.609375 0 
L 37.796875 0 
L 37.796875 17.1875 
L 4.890625 17.1875 
L 4.890625 26.703125 
z
" id="DejaVuSans-52"/>
       </defs>
       <use xlink:href="#DejaVuSans-50"/>
       <use x="63.623047" xlink:href="#DejaVuSans-48"/>
       <use x="127.246094" xlink:href="#DejaVuSans-50"/>
       <use x="190.869141" xlink:href="#DejaVuSans-48"/>
       <use x="254.492188" xlink:href="#DejaVuSans-45"/>
       <use x="290.576172" xlink:href="#DejaVuSans-48"/>
       <use x="354.199219" xlink:href="#DejaVuSans-52"/>
      </g>
     </g>
    </g>
    <g id="xtick_2">
     <g id="line2d_2">
      <g>
       <use style="stroke:#000000;stroke-width:0.8;" x="105.299319" xlink:href="#m1008681f66" y="288.430125"/>
      </g>
     </g>
     <g id="text_2">
      <!-- 2020-05 -->
      <g transform="translate(108.058694 337.212937)rotate(-90)scale(0.1 -0.1)">
       <defs>
        <path d="M 10.796875 72.90625 
L 49.515625 72.90625 
L 49.515625 64.59375 
L 19.828125 64.59375 
L 19.828125 46.734375 
Q 21.96875 47.46875 24.109375 47.828125 
Q 26.265625 48.1875 28.421875 48.1875 
Q 40.625 48.1875 47.75 41.5 
Q 54.890625 34.8125 54.890625 23.390625 
Q 54.890625 11.625 47.5625 5.09375 
Q 40.234375 -1.421875 26.90625 -1.421875 
Q 22.3125 -1.421875 17.546875 -0.640625 
Q 12.796875 0.140625 7.71875 1.703125 
L 7.71875 11.625 
Q 12.109375 9.234375 16.796875 8.0625 
Q 21.484375 6.890625 26.703125 6.890625 
Q 35.15625 6.890625 40.078125 11.328125 
Q 45.015625 15.765625 45.015625 23.390625 
Q 45.015625 31 40.078125 35.4375 
Q 35.15625 39.890625 26.703125 39.890625 
Q 22.75 39.890625 18.8125 39.015625 
Q 14.890625 38.140625 10.796875 36.28125 
z
" id="DejaVuSans-53"/>
       </defs>
       <use xlink:href="#DejaVuSans-50"/>
       <use x="63.623047" xlink:href="#DejaVuSans-48"/>
       <use x="127.246094" xlink:href="#DejaVuSans-50"/>
       <use x="190.869141" xlink:href="#DejaVuSans-48"/>
       <use x="254.492188" xlink:href="#DejaVuSans-45"/>
       <use x="290.576172" xlink:href="#DejaVuSans-48"/>
       <use x="354.199219" xlink:href="#DejaVuSans-53"/>
      </g>
     </g>
    </g>
    <g id="xtick_3">
     <g id="line2d_3">
      <g>
       <use style="stroke:#000000;stroke-width:0.8;" x="143.606308" xlink:href="#m1008681f66" y="288.430125"/>
      </g>
     </g>
     <g id="text_3">
      <!-- 2020-06 -->
      <g transform="translate(146.365683 337.212937)rotate(-90)scale(0.1 -0.1)">
       <defs>
        <path d="M 33.015625 40.375 
Q 26.375 40.375 22.484375 35.828125 
Q 18.609375 31.296875 18.609375 23.390625 
Q 18.609375 15.53125 22.484375 10.953125 
Q 26.375 6.390625 33.015625 6.390625 
Q 39.65625 6.390625 43.53125 10.953125 
Q 47.40625 15.53125 47.40625 23.390625 
Q 47.40625 31.296875 43.53125 35.828125 
Q 39.65625 40.375 33.015625 40.375 
z
M 52.59375 71.296875 
L 52.59375 62.3125 
Q 48.875 64.0625 45.09375 64.984375 
Q 41.3125 65.921875 37.59375 65.921875 
Q 27.828125 65.921875 22.671875 59.328125 
Q 17.53125 52.734375 16.796875 39.40625 
Q 19.671875 43.65625 24.015625 45.921875 
Q 28.375 48.1875 33.59375 48.1875 
Q 44.578125 48.1875 50.953125 41.515625 
Q 57.328125 34.859375 57.328125 23.390625 
Q 57.328125 12.15625 50.6875 5.359375 
Q 44.046875 -1.421875 33.015625 -1.421875 
Q 20.359375 -1.421875 13.671875 8.265625 
Q 6.984375 17.96875 6.984375 36.375 
Q 6.984375 53.65625 15.1875 63.9375 
Q 23.390625 74.21875 37.203125 74.21875 
Q 40.921875 74.21875 44.703125 73.484375 
Q 48.484375 72.75 52.59375 71.296875 
z
" id="DejaVuSans-54"/>
       </defs>
       <use xlink:href="#DejaVuSans-50"/>
       <use x="63.623047" xlink:href="#DejaVuSans-48"/>
       <use x="127.246094" xlink:href="#DejaVuSans-50"/>
       <use x="190.869141" xlink:href="#DejaVuSans-48"/>
       <use x="254.492188" xlink:href="#DejaVuSans-45"/>
       <use x="290.576172" xlink:href="#DejaVuSans-48"/>
       <use x="354.199219" xlink:href="#DejaVuSans-54"/>
      </g>
     </g>
    </g>
    <g id="xtick_4">
     <g id="line2d_4">
      <g>
       <use style="stroke:#000000;stroke-width:0.8;" x="180.677589" xlink:href="#m1008681f66" y="288.430125"/>
      </g>
     </g>
     <g id="text_4">
      <!-- 2020-07 -->
      <g transform="translate(183.436964 337.212937)rotate(-90)scale(0.1 -0.1)">
       <defs>
        <path d="M 8.203125 72.90625 
L 55.078125 72.90625 
L 55.078125 68.703125 
L 28.609375 0 
L 18.3125 0 
L 43.21875 64.59375 
L 8.203125 64.59375 
z
" id="DejaVuSans-55"/>
       </defs>
       <use xlink:href="#DejaVuSans-50"/>
       <use x="63.623047" xlink:href="#DejaVuSans-48"/>
       <use x="127.246094" xlink:href="#DejaVuSans-50"/>
       <use x="190.869141" xlink:href="#DejaVuSans-48"/>
       <use x="254.492188" xlink:href="#DejaVuSans-45"/>
       <use x="290.576172" xlink:href="#DejaVuSans-48"/>
       <use x="354.199219" xlink:href="#DejaVuSans-55"/>
      </g>
     </g>
    </g>
    <g id="xtick_5">
     <g id="line2d_5">
      <g>
       <use style="stroke:#000000;stroke-width:0.8;" x="218.984578" xlink:href="#m1008681f66" y="288.430125"/>
      </g>
     </g>
     <g id="text_5">
      <!-- 2020-08 -->
      <g transform="translate(221.743953 337.212937)rotate(-90)scale(0.1 -0.1)">
       <defs>
        <path d="M 31.78125 34.625 
Q 24.75 34.625 20.71875 30.859375 
Q 16.703125 27.09375 16.703125 20.515625 
Q 16.703125 13.921875 20.71875 10.15625 
Q 24.75 6.390625 31.78125 6.390625 
Q 38.8125 6.390625 42.859375 10.171875 
Q 46.921875 13.96875 46.921875 20.515625 
Q 46.921875 27.09375 42.890625 30.859375 
Q 38.875 34.625 31.78125 34.625 
z
M 21.921875 38.8125 
Q 15.578125 40.375 12.03125 44.71875 
Q 8.5 49.078125 8.5 55.328125 
Q 8.5 64.0625 14.71875 69.140625 
Q 20.953125 74.21875 31.78125 74.21875 
Q 42.671875 74.21875 48.875 69.140625 
Q 55.078125 64.0625 55.078125 55.328125 
Q 55.078125 49.078125 51.53125 44.71875 
Q 48 40.375 41.703125 38.8125 
Q 48.828125 37.15625 52.796875 32.3125 
Q 56.78125 27.484375 56.78125 20.515625 
Q 56.78125 9.90625 50.3125 4.234375 
Q 43.84375 -1.421875 31.78125 -1.421875 
Q 19.734375 -1.421875 13.25 4.234375 
Q 6.78125 9.90625 6.78125 20.515625 
Q 6.78125 27.484375 10.78125 32.3125 
Q 14.796875 37.15625 21.921875 38.8125 
z
M 18.3125 54.390625 
Q 18.3125 48.734375 21.84375 45.5625 
Q 25.390625 42.390625 31.78125 42.390625 
Q 38.140625 42.390625 41.71875 45.5625 
Q 45.3125 48.734375 45.3125 54.390625 
Q 45.3125 60.0625 41.71875 63.234375 
Q 38.140625 66.40625 31.78125 66.40625 
Q 25.390625 66.40625 21.84375 63.234375 
Q 18.3125 60.0625 18.3125 54.390625 
z
" id="DejaVuSans-56"/>
       </defs>
       <use xlink:href="#DejaVuSans-50"/>
       <use x="63.623047" xlink:href="#DejaVuSans-48"/>
       <use x="127.246094" xlink:href="#DejaVuSans-50"/>
       <use x="190.869141" xlink:href="#DejaVuSans-48"/>
       <use x="254.492188" xlink:href="#DejaVuSans-45"/>
       <use x="290.576172" xlink:href="#DejaVuSans-48"/>
       <use x="354.199219" xlink:href="#DejaVuSans-56"/>
      </g>
     </g>
    </g>
    <g id="xtick_6">
     <g id="line2d_6">
      <g>
       <use style="stroke:#000000;stroke-width:0.8;" x="257.291568" xlink:href="#m1008681f66" y="288.430125"/>
      </g>
     </g>
     <g id="text_6">
      <!-- 2020-09 -->
      <g transform="translate(260.050943 337.212937)rotate(-90)scale(0.1 -0.1)">
       <defs>
        <path d="M 10.984375 1.515625 
L 10.984375 10.5 
Q 14.703125 8.734375 18.5 7.8125 
Q 22.3125 6.890625 25.984375 6.890625 
Q 35.75 6.890625 40.890625 13.453125 
Q 46.046875 20.015625 46.78125 33.40625 
Q 43.953125 29.203125 39.59375 26.953125 
Q 35.25 24.703125 29.984375 24.703125 
Q 19.046875 24.703125 12.671875 31.3125 
Q 6.296875 37.9375 6.296875 49.421875 
Q 6.296875 60.640625 12.9375 67.421875 
Q 19.578125 74.21875 30.609375 74.21875 
Q 43.265625 74.21875 49.921875 64.515625 
Q 56.59375 54.828125 56.59375 36.375 
Q 56.59375 19.140625 48.40625 8.859375 
Q 40.234375 -1.421875 26.421875 -1.421875 
Q 22.703125 -1.421875 18.890625 -0.6875 
Q 15.09375 0.046875 10.984375 1.515625 
z
M 30.609375 32.421875 
Q 37.25 32.421875 41.125 36.953125 
Q 45.015625 41.5 45.015625 49.421875 
Q 45.015625 57.28125 41.125 61.84375 
Q 37.25 66.40625 30.609375 66.40625 
Q 23.96875 66.40625 20.09375 61.84375 
Q 16.21875 57.28125 16.21875 49.421875 
Q 16.21875 41.5 20.09375 36.953125 
Q 23.96875 32.421875 30.609375 32.421875 
z
" id="DejaVuSans-57"/>
       </defs>
       <use xlink:href="#DejaVuSans-50"/>
       <use x="63.623047" xlink:href="#DejaVuSans-48"/>
       <use x="127.246094" xlink:href="#DejaVuSans-50"/>
       <use x="190.869141" xlink:href="#DejaVuSans-48"/>
       <use x="254.492188" xlink:href="#DejaVuSans-45"/>
       <use x="290.576172" xlink:href="#DejaVuSans-48"/>
       <use x="354.199219" xlink:href="#DejaVuSans-57"/>
      </g>
     </g>
    </g>
    <g id="xtick_7">
     <g id="line2d_7">
      <g>
       <use style="stroke:#000000;stroke-width:0.8;" x="294.362848" xlink:href="#m1008681f66" y="288.430125"/>
      </g>
     </g>
     <g id="text_7">
      <!-- 2020-10 -->
      <g transform="translate(297.122223 337.212937)rotate(-90)scale(0.1 -0.1)">
       <defs>
        <path d="M 12.40625 8.296875 
L 28.515625 8.296875 
L 28.515625 63.921875 
L 10.984375 60.40625 
L 10.984375 69.390625 
L 28.421875 72.90625 
L 38.28125 72.90625 
L 38.28125 8.296875 
L 54.390625 8.296875 
L 54.390625 0 
L 12.40625 0 
z
" id="DejaVuSans-49"/>
       </defs>
       <use xlink:href="#DejaVuSans-50"/>
       <use x="63.623047" xlink:href="#DejaVuSans-48"/>
       <use x="127.246094" xlink:href="#DejaVuSans-50"/>
       <use x="190.869141" xlink:href="#DejaVuSans-48"/>
       <use x="254.492188" xlink:href="#DejaVuSans-45"/>
       <use x="290.576172" xlink:href="#DejaVuSans-49"/>
       <use x="354.199219" xlink:href="#DejaVuSans-48"/>
      </g>
     </g>
    </g>
    <g id="xtick_8">
     <g id="line2d_8">
      <g>
       <use style="stroke:#000000;stroke-width:0.8;" x="332.669838" xlink:href="#m1008681f66" y="288.430125"/>
      </g>
     </g>
     <g id="text_8">
      <!-- 2020-11 -->
      <g transform="translate(335.429213 337.212937)rotate(-90)scale(0.1 -0.1)">
       <use xlink:href="#DejaVuSans-50"/>
       <use x="63.623047" xlink:href="#DejaVuSans-48"/>
       <use x="127.246094" xlink:href="#DejaVuSans-50"/>
       <use x="190.869141" xlink:href="#DejaVuSans-48"/>
       <use x="254.492188" xlink:href="#DejaVuSans-45"/>
       <use x="290.576172" xlink:href="#DejaVuSans-49"/>
       <use x="354.199219" xlink:href="#DejaVuSans-49"/>
      </g>
     </g>
    </g>
    <g id="xtick_9">
     <g id="line2d_9">
      <g>
       <use style="stroke:#000000;stroke-width:0.8;" x="369.741118" xlink:href="#m1008681f66" y="288.430125"/>
      </g>
     </g>
     <g id="text_9">
      <!-- 2020-12 -->
      <g transform="translate(372.500493 337.212937)rotate(-90)scale(0.1 -0.1)">
       <use xlink:href="#DejaVuSans-50"/>
       <use x="63.623047" xlink:href="#DejaVuSans-48"/>
       <use x="127.246094" xlink:href="#DejaVuSans-50"/>
       <use x="190.869141" xlink:href="#DejaVuSans-48"/>
       <use x="254.492188" xlink:href="#DejaVuSans-45"/>
       <use x="290.576172" xlink:href="#DejaVuSans-49"/>
       <use x="354.199219" xlink:href="#DejaVuSans-50"/>
      </g>
     </g>
    </g>
    <g id="text_10">
     <!-- date -->
     <g transform="translate(213.888125 354.811375)scale(0.1 -0.1)">
      <defs>
       <path d="M 45.40625 46.390625 
L 45.40625 75.984375 
L 54.390625 75.984375 
L 54.390625 0 
L 45.40625 0 
L 45.40625 8.203125 
Q 42.578125 3.328125 38.25 0.953125 
Q 33.9375 -1.421875 27.875 -1.421875 
Q 17.96875 -1.421875 11.734375 6.484375 
Q 5.515625 14.40625 5.515625 27.296875 
Q 5.515625 40.1875 11.734375 48.09375 
Q 17.96875 56 27.875 56 
Q 33.9375 56 38.25 53.625 
Q 42.578125 51.265625 45.40625 46.390625 
z
M 14.796875 27.296875 
Q 14.796875 17.390625 18.875 11.75 
Q 22.953125 6.109375 30.078125 6.109375 
Q 37.203125 6.109375 41.296875 11.75 
Q 45.40625 17.390625 45.40625 27.296875 
Q 45.40625 37.203125 41.296875 42.84375 
Q 37.203125 48.484375 30.078125 48.484375 
Q 22.953125 48.484375 18.875 42.84375 
Q 14.796875 37.203125 14.796875 27.296875 
z
" id="DejaVuSans-100"/>
       <path d="M 34.28125 27.484375 
Q 23.390625 27.484375 19.1875 25 
Q 14.984375 22.515625 14.984375 16.5 
Q 14.984375 11.71875 18.140625 8.90625 
Q 21.296875 6.109375 26.703125 6.109375 
Q 34.1875 6.109375 38.703125 11.40625 
Q 43.21875 16.703125 43.21875 25.484375 
L 43.21875 27.484375 
z
M 52.203125 31.203125 
L 52.203125 0 
L 43.21875 0 
L 43.21875 8.296875 
Q 40.140625 3.328125 35.546875 0.953125 
Q 30.953125 -1.421875 24.3125 -1.421875 
Q 15.921875 -1.421875 10.953125 3.296875 
Q 6 8.015625 6 15.921875 
Q 6 25.140625 12.171875 29.828125 
Q 18.359375 34.515625 30.609375 34.515625 
L 43.21875 34.515625 
L 43.21875 35.40625 
Q 43.21875 41.609375 39.140625 45 
Q 35.0625 48.390625 27.6875 48.390625 
Q 23 48.390625 18.546875 47.265625 
Q 14.109375 46.140625 10.015625 43.890625 
L 10.015625 52.203125 
Q 14.9375 54.109375 19.578125 55.046875 
Q 24.21875 56 28.609375 56 
Q 40.484375 56 46.34375 49.84375 
Q 52.203125 43.703125 52.203125 31.203125 
z
" id="DejaVuSans-97"/>
       <path d="M 18.3125 70.21875 
L 18.3125 54.6875 
L 36.8125 54.6875 
L 36.8125 47.703125 
L 18.3125 47.703125 
L 18.3125 18.015625 
Q 18.3125 11.328125 20.140625 9.421875 
Q 21.96875 7.515625 27.59375 7.515625 
L 36.8125 7.515625 
L 36.8125 0 
L 27.59375 0 
Q 17.1875 0 13.234375 3.875 
Q 9.28125 7.765625 9.28125 18.015625 
L 9.28125 47.703125 
L 2.6875 47.703125 
L 2.6875 54.6875 
L 9.28125 54.6875 
L 9.28125 70.21875 
z
" id="DejaVuSans-116"/>
       <path d="M 56.203125 29.59375 
L 56.203125 25.203125 
L 14.890625 25.203125 
Q 15.484375 15.921875 20.484375 11.0625 
Q 25.484375 6.203125 34.421875 6.203125 
Q 39.59375 6.203125 44.453125 7.46875 
Q 49.3125 8.734375 54.109375 11.28125 
L 54.109375 2.78125 
Q 49.265625 0.734375 44.1875 -0.34375 
Q 39.109375 -1.421875 33.890625 -1.421875 
Q 20.796875 -1.421875 13.15625 6.1875 
Q 5.515625 13.8125 5.515625 26.8125 
Q 5.515625 40.234375 12.765625 48.109375 
Q 20.015625 56 32.328125 56 
Q 43.359375 56 49.78125 48.890625 
Q 56.203125 41.796875 56.203125 29.59375 
z
M 47.21875 32.234375 
Q 47.125 39.59375 43.09375 43.984375 
Q 39.0625 48.390625 32.421875 48.390625 
Q 24.90625 48.390625 20.390625 44.140625 
Q 15.875 39.890625 15.1875 32.171875 
z
" id="DejaVuSans-101"/>
      </defs>
      <use xlink:href="#DejaVuSans-100"/>
      <use x="63.476562" xlink:href="#DejaVuSans-97"/>
      <use x="124.755859" xlink:href="#DejaVuSans-116"/>
      <use x="163.964844" xlink:href="#DejaVuSans-101"/>
     </g>
    </g>
   </g>
   <g id="matplotlib.axis_2">
    <g id="ytick_1">
     <g id="line2d_10">
      <defs>
       <path d="M 0 0 
L -3.5 0 
" id="mc60e24121e" style="stroke:#000000;stroke-width:0.8;"/>
      </defs>
      <g>
       <use style="stroke:#000000;stroke-width:0.8;" x="46.603125" xlink:href="#mc60e24121e" y="288.430125"/>
      </g>
     </g>
     <g id="text_11">
      <!-- 0 -->
      <g transform="translate(33.240625 292.229344)scale(0.1 -0.1)">
       <use xlink:href="#DejaVuSans-48"/>
      </g>
     </g>
    </g>
    <g id="ytick_2">
     <g id="line2d_11">
      <g>
       <use style="stroke:#000000;stroke-width:0.8;" x="46.603125" xlink:href="#mc60e24121e" y="252.948525"/>
      </g>
     </g>
     <g id="text_12">
      <!-- 10 -->
      <g transform="translate(26.878125 256.747744)scale(0.1 -0.1)">
       <use xlink:href="#DejaVuSans-49"/>
       <use x="63.623047" xlink:href="#DejaVuSans-48"/>
      </g>
     </g>
    </g>
    <g id="ytick_3">
     <g id="line2d_12">
      <g>
       <use style="stroke:#000000;stroke-width:0.8;" x="46.603125" xlink:href="#mc60e24121e" y="217.466925"/>
      </g>
     </g>
     <g id="text_13">
      <!-- 20 -->
      <g transform="translate(26.878125 221.266144)scale(0.1 -0.1)">
       <use xlink:href="#DejaVuSans-50"/>
       <use x="63.623047" xlink:href="#DejaVuSans-48"/>
      </g>
     </g>
    </g>
    <g id="ytick_4">
     <g id="line2d_13">
      <g>
       <use style="stroke:#000000;stroke-width:0.8;" x="46.603125" xlink:href="#mc60e24121e" y="181.985325"/>
      </g>
     </g>
     <g id="text_14">
      <!-- 30 -->
      <g transform="translate(26.878125 185.784544)scale(0.1 -0.1)">
       <defs>
        <path d="M 40.578125 39.3125 
Q 47.65625 37.796875 51.625 33 
Q 55.609375 28.21875 55.609375 21.1875 
Q 55.609375 10.40625 48.1875 4.484375 
Q 40.765625 -1.421875 27.09375 -1.421875 
Q 22.515625 -1.421875 17.65625 -0.515625 
Q 12.796875 0.390625 7.625 2.203125 
L 7.625 11.71875 
Q 11.71875 9.328125 16.59375 8.109375 
Q 21.484375 6.890625 26.8125 6.890625 
Q 36.078125 6.890625 40.9375 10.546875 
Q 45.796875 14.203125 45.796875 21.1875 
Q 45.796875 27.640625 41.28125 31.265625 
Q 36.765625 34.90625 28.71875 34.90625 
L 20.21875 34.90625 
L 20.21875 43.015625 
L 29.109375 43.015625 
Q 36.375 43.015625 40.234375 45.921875 
Q 44.09375 48.828125 44.09375 54.296875 
Q 44.09375 59.90625 40.109375 62.90625 
Q 36.140625 65.921875 28.71875 65.921875 
Q 24.65625 65.921875 20.015625 65.03125 
Q 15.375 64.15625 9.8125 62.3125 
L 9.8125 71.09375 
Q 15.4375 72.65625 20.34375 73.4375 
Q 25.25 74.21875 29.59375 74.21875 
Q 40.828125 74.21875 47.359375 69.109375 
Q 53.90625 64.015625 53.90625 55.328125 
Q 53.90625 49.265625 50.4375 45.09375 
Q 46.96875 40.921875 40.578125 39.3125 
z
" id="DejaVuSans-51"/>
       </defs>
       <use xlink:href="#DejaVuSans-51"/>
       <use x="63.623047" xlink:href="#DejaVuSans-48"/>
      </g>
     </g>
    </g>
    <g id="ytick_5">
     <g id="line2d_14">
      <g>
       <use style="stroke:#000000;stroke-width:0.8;" x="46.603125" xlink:href="#mc60e24121e" y="146.503725"/>
      </g>
     </g>
     <g id="text_15">
      <!-- 40 -->
      <g transform="translate(26.878125 150.302944)scale(0.1 -0.1)">
       <use xlink:href="#DejaVuSans-52"/>
       <use x="63.623047" xlink:href="#DejaVuSans-48"/>
      </g>
     </g>
    </g>
    <g id="ytick_6">
     <g id="line2d_15">
      <g>
       <use style="stroke:#000000;stroke-width:0.8;" x="46.603125" xlink:href="#mc60e24121e" y="111.022125"/>
      </g>
     </g>
     <g id="text_16">
      <!-- 50 -->
      <g transform="translate(26.878125 114.821344)scale(0.1 -0.1)">
       <use xlink:href="#DejaVuSans-53"/>
       <use x="63.623047" xlink:href="#DejaVuSans-48"/>
      </g>
     </g>
    </g>
    <g id="ytick_7">
     <g id="line2d_16">
      <g>
       <use style="stroke:#000000;stroke-width:0.8;" x="46.603125" xlink:href="#mc60e24121e" y="75.540525"/>
      </g>
     </g>
     <g id="text_17">
      <!-- 60 -->
      <g transform="translate(26.878125 79.339744)scale(0.1 -0.1)">
       <use xlink:href="#DejaVuSans-54"/>
       <use x="63.623047" xlink:href="#DejaVuSans-48"/>
      </g>
     </g>
    </g>
    <g id="ytick_8">
     <g id="line2d_17">
      <g>
       <use style="stroke:#000000;stroke-width:0.8;" x="46.603125" xlink:href="#mc60e24121e" y="40.058925"/>
      </g>
     </g>
     <g id="text_18">
      <!-- 70 -->
      <g transform="translate(26.878125 43.858144)scale(0.1 -0.1)">
       <use xlink:href="#DejaVuSans-55"/>
       <use x="63.623047" xlink:href="#DejaVuSans-48"/>
      </g>
     </g>
    </g>
    <g id="text_19">
     <!-- case fatality rate [%] -->
     <g transform="translate(14.798438 207.990531)rotate(-90)scale(0.1 -0.1)">
      <defs>
       <path d="M 48.78125 52.59375 
L 48.78125 44.1875 
Q 44.96875 46.296875 41.140625 47.34375 
Q 37.3125 48.390625 33.40625 48.390625 
Q 24.65625 48.390625 19.8125 42.84375 
Q 14.984375 37.3125 14.984375 27.296875 
Q 14.984375 17.28125 19.8125 11.734375 
Q 24.65625 6.203125 33.40625 6.203125 
Q 37.3125 6.203125 41.140625 7.25 
Q 44.96875 8.296875 48.78125 10.40625 
L 48.78125 2.09375 
Q 45.015625 0.34375 40.984375 -0.53125 
Q 36.96875 -1.421875 32.421875 -1.421875 
Q 20.0625 -1.421875 12.78125 6.34375 
Q 5.515625 14.109375 5.515625 27.296875 
Q 5.515625 40.671875 12.859375 48.328125 
Q 20.21875 56 33.015625 56 
Q 37.15625 56 41.109375 55.140625 
Q 45.0625 54.296875 48.78125 52.59375 
z
" id="DejaVuSans-99"/>
       <path d="M 44.28125 53.078125 
L 44.28125 44.578125 
Q 40.484375 46.53125 36.375 47.5 
Q 32.28125 48.484375 27.875 48.484375 
Q 21.1875 48.484375 17.84375 46.4375 
Q 14.5 44.390625 14.5 40.28125 
Q 14.5 37.15625 16.890625 35.375 
Q 19.28125 33.59375 26.515625 31.984375 
L 29.59375 31.296875 
Q 39.15625 29.25 43.1875 25.515625 
Q 47.21875 21.78125 47.21875 15.09375 
Q 47.21875 7.46875 41.1875 3.015625 
Q 35.15625 -1.421875 24.609375 -1.421875 
Q 20.21875 -1.421875 15.453125 -0.5625 
Q 10.6875 0.296875 5.421875 2 
L 5.421875 11.28125 
Q 10.40625 8.6875 15.234375 7.390625 
Q 20.0625 6.109375 24.8125 6.109375 
Q 31.15625 6.109375 34.5625 8.28125 
Q 37.984375 10.453125 37.984375 14.40625 
Q 37.984375 18.0625 35.515625 20.015625 
Q 33.0625 21.96875 24.703125 23.78125 
L 21.578125 24.515625 
Q 13.234375 26.265625 9.515625 29.90625 
Q 5.8125 33.546875 5.8125 39.890625 
Q 5.8125 47.609375 11.28125 51.796875 
Q 16.75 56 26.8125 56 
Q 31.78125 56 36.171875 55.265625 
Q 40.578125 54.546875 44.28125 53.078125 
z
" id="DejaVuSans-115"/>
       <path id="DejaVuSans-32"/>
       <path d="M 37.109375 75.984375 
L 37.109375 68.5 
L 28.515625 68.5 
Q 23.6875 68.5 21.796875 66.546875 
Q 19.921875 64.59375 19.921875 59.515625 
L 19.921875 54.6875 
L 34.71875 54.6875 
L 34.71875 47.703125 
L 19.921875 47.703125 
L 19.921875 0 
L 10.890625 0 
L 10.890625 47.703125 
L 2.296875 47.703125 
L 2.296875 54.6875 
L 10.890625 54.6875 
L 10.890625 58.5 
Q 10.890625 67.625 15.140625 71.796875 
Q 19.390625 75.984375 28.609375 75.984375 
z
" id="DejaVuSans-102"/>
       <path d="M 9.421875 75.984375 
L 18.40625 75.984375 
L 18.40625 0 
L 9.421875 0 
z
" id="DejaVuSans-108"/>
       <path d="M 9.421875 54.6875 
L 18.40625 54.6875 
L 18.40625 0 
L 9.421875 0 
z
M 9.421875 75.984375 
L 18.40625 75.984375 
L 18.40625 64.59375 
L 9.421875 64.59375 
z
" id="DejaVuSans-105"/>
       <path d="M 32.171875 -5.078125 
Q 28.375 -14.84375 24.75 -17.8125 
Q 21.140625 -20.796875 15.09375 -20.796875 
L 7.90625 -20.796875 
L 7.90625 -13.28125 
L 13.1875 -13.28125 
Q 16.890625 -13.28125 18.9375 -11.515625 
Q 21 -9.765625 23.484375 -3.21875 
L 25.09375 0.875 
L 2.984375 54.6875 
L 12.5 54.6875 
L 29.59375 11.921875 
L 46.6875 54.6875 
L 56.203125 54.6875 
z
" id="DejaVuSans-121"/>
       <path d="M 41.109375 46.296875 
Q 39.59375 47.171875 37.8125 47.578125 
Q 36.03125 48 33.890625 48 
Q 26.265625 48 22.1875 43.046875 
Q 18.109375 38.09375 18.109375 28.8125 
L 18.109375 0 
L 9.078125 0 
L 9.078125 54.6875 
L 18.109375 54.6875 
L 18.109375 46.1875 
Q 20.953125 51.171875 25.484375 53.578125 
Q 30.03125 56 36.53125 56 
Q 37.453125 56 38.578125 55.875 
Q 39.703125 55.765625 41.0625 55.515625 
z
" id="DejaVuSans-114"/>
       <path d="M 8.59375 75.984375 
L 29.296875 75.984375 
L 29.296875 69 
L 17.578125 69 
L 17.578125 -6.203125 
L 29.296875 -6.203125 
L 29.296875 -13.1875 
L 8.59375 -13.1875 
z
" id="DejaVuSans-91"/>
       <path d="M 72.703125 32.078125 
Q 68.453125 32.078125 66.03125 28.46875 
Q 63.625 24.859375 63.625 18.40625 
Q 63.625 12.0625 66.03125 8.421875 
Q 68.453125 4.78125 72.703125 4.78125 
Q 76.859375 4.78125 79.265625 8.421875 
Q 81.6875 12.0625 81.6875 18.40625 
Q 81.6875 24.8125 79.265625 28.4375 
Q 76.859375 32.078125 72.703125 32.078125 
z
M 72.703125 38.28125 
Q 80.421875 38.28125 84.953125 32.90625 
Q 89.5 27.546875 89.5 18.40625 
Q 89.5 9.28125 84.9375 3.921875 
Q 80.375 -1.421875 72.703125 -1.421875 
Q 64.890625 -1.421875 60.34375 3.921875 
Q 55.8125 9.28125 55.8125 18.40625 
Q 55.8125 27.59375 60.375 32.9375 
Q 64.9375 38.28125 72.703125 38.28125 
z
M 22.3125 68.015625 
Q 18.109375 68.015625 15.6875 64.375 
Q 13.28125 60.75 13.28125 54.390625 
Q 13.28125 47.953125 15.671875 44.328125 
Q 18.0625 40.71875 22.3125 40.71875 
Q 26.5625 40.71875 28.96875 44.328125 
Q 31.390625 47.953125 31.390625 54.390625 
Q 31.390625 60.6875 28.953125 64.34375 
Q 26.515625 68.015625 22.3125 68.015625 
z
M 66.40625 74.21875 
L 74.21875 74.21875 
L 28.609375 -1.421875 
L 20.796875 -1.421875 
z
M 22.3125 74.21875 
Q 30.03125 74.21875 34.609375 68.875 
Q 39.203125 63.53125 39.203125 54.390625 
Q 39.203125 45.171875 34.640625 39.84375 
Q 30.078125 34.515625 22.3125 34.515625 
Q 14.546875 34.515625 10.03125 39.859375 
Q 5.515625 45.21875 5.515625 54.390625 
Q 5.515625 63.484375 10.046875 68.84375 
Q 14.59375 74.21875 22.3125 74.21875 
z
" id="DejaVuSans-37"/>
       <path d="M 30.421875 75.984375 
L 30.421875 -13.1875 
L 9.71875 -13.1875 
L 9.71875 -6.203125 
L 21.390625 -6.203125 
L 21.390625 69 
L 9.71875 69 
L 9.71875 75.984375 
z
" id="DejaVuSans-93"/>
      </defs>
      <use xlink:href="#DejaVuSans-99"/>
      <use x="54.980469" xlink:href="#DejaVuSans-97"/>
      <use x="116.259766" xlink:href="#DejaVuSans-115"/>
      <use x="168.359375" xlink:href="#DejaVuSans-101"/>
      <use x="229.882812" xlink:href="#DejaVuSans-32"/>
      <use x="261.669922" xlink:href="#DejaVuSans-102"/>
      <use x="296.875" xlink:href="#DejaVuSans-97"/>
      <use x="358.154297" xlink:href="#DejaVuSans-116"/>
      <use x="397.363281" xlink:href="#DejaVuSans-97"/>
      <use x="458.642578" xlink:href="#DejaVuSans-108"/>
      <use x="486.425781" xlink:href="#DejaVuSans-105"/>
      <use x="514.208984" xlink:href="#DejaVuSans-116"/>
      <use x="553.417969" xlink:href="#DejaVuSans-121"/>
      <use x="612.597656" xlink:href="#DejaVuSans-32"/>
      <use x="644.384766" xlink:href="#DejaVuSans-114"/>
      <use x="685.498047" xlink:href="#DejaVuSans-97"/>
      <use x="746.777344" xlink:href="#DejaVuSans-116"/>
      <use x="785.986328" xlink:href="#DejaVuSans-101"/>
      <use x="847.509766" xlink:href="#DejaVuSans-32"/>
      <use x="879.296875" xlink:href="#DejaVuSans-91"/>
      <use x="918.310547" xlink:href="#DejaVuSans-37"/>
      <use x="1013.330078" xlink:href="#DejaVuSans-93"/>
     </g>
    </g>
   </g>
   <g id="patch_292">
    <path d="M 46.603125 288.430125 
L 46.603125 22.318125 
" style="fill:none;stroke:#000000;stroke-linecap:square;stroke-linejoin:miter;stroke-width:0.8;"/>
   </g>
   <g id="patch_293">
    <path d="M 46.603125 288.430125 
L 403.723125 288.430125 
" style="fill:none;stroke:#000000;stroke-linecap:square;stroke-linejoin:miter;stroke-width:0.8;"/>
   </g>
   <g id="text_20">
    <!-- South Tyrol -->
    <g transform="translate(191.870625 16.318125)scale(0.12 -0.12)">
     <defs>
      <path d="M 53.515625 70.515625 
L 53.515625 60.890625 
Q 47.90625 63.578125 42.921875 64.890625 
Q 37.9375 66.21875 33.296875 66.21875 
Q 25.25 66.21875 20.875 63.09375 
Q 16.5 59.96875 16.5 54.203125 
Q 16.5 49.359375 19.40625 46.890625 
Q 22.3125 44.4375 30.421875 42.921875 
L 36.375 41.703125 
Q 47.40625 39.59375 52.65625 34.296875 
Q 57.90625 29 57.90625 20.125 
Q 57.90625 9.515625 50.796875 4.046875 
Q 43.703125 -1.421875 29.984375 -1.421875 
Q 24.8125 -1.421875 18.96875 -0.25 
Q 13.140625 0.921875 6.890625 3.21875 
L 6.890625 13.375 
Q 12.890625 10.015625 18.65625 8.296875 
Q 24.421875 6.59375 29.984375 6.59375 
Q 38.421875 6.59375 43.015625 9.90625 
Q 47.609375 13.234375 47.609375 19.390625 
Q 47.609375 24.75 44.3125 27.78125 
Q 41.015625 30.8125 33.5 32.328125 
L 27.484375 33.5 
Q 16.453125 35.6875 11.515625 40.375 
Q 6.59375 45.0625 6.59375 53.421875 
Q 6.59375 63.09375 13.40625 68.65625 
Q 20.21875 74.21875 32.171875 74.21875 
Q 37.3125 74.21875 42.625 73.28125 
Q 47.953125 72.359375 53.515625 70.515625 
z
" id="DejaVuSans-83"/>
      <path d="M 30.609375 48.390625 
Q 23.390625 48.390625 19.1875 42.75 
Q 14.984375 37.109375 14.984375 27.296875 
Q 14.984375 17.484375 19.15625 11.84375 
Q 23.34375 6.203125 30.609375 6.203125 
Q 37.796875 6.203125 41.984375 11.859375 
Q 46.1875 17.53125 46.1875 27.296875 
Q 46.1875 37.015625 41.984375 42.703125 
Q 37.796875 48.390625 30.609375 48.390625 
z
M 30.609375 56 
Q 42.328125 56 49.015625 48.375 
Q 55.71875 40.765625 55.71875 27.296875 
Q 55.71875 13.875 49.015625 6.21875 
Q 42.328125 -1.421875 30.609375 -1.421875 
Q 18.84375 -1.421875 12.171875 6.21875 
Q 5.515625 13.875 5.515625 27.296875 
Q 5.515625 40.765625 12.171875 48.375 
Q 18.84375 56 30.609375 56 
z
" id="DejaVuSans-111"/>
      <path d="M 8.5 21.578125 
L 8.5 54.6875 
L 17.484375 54.6875 
L 17.484375 21.921875 
Q 17.484375 14.15625 20.5 10.265625 
Q 23.53125 6.390625 29.59375 6.390625 
Q 36.859375 6.390625 41.078125 11.03125 
Q 45.3125 15.671875 45.3125 23.6875 
L 45.3125 54.6875 
L 54.296875 54.6875 
L 54.296875 0 
L 45.3125 0 
L 45.3125 8.40625 
Q 42.046875 3.421875 37.71875 1 
Q 33.40625 -1.421875 27.6875 -1.421875 
Q 18.265625 -1.421875 13.375 4.4375 
Q 8.5 10.296875 8.5 21.578125 
z
M 31.109375 56 
z
" id="DejaVuSans-117"/>
      <path d="M 54.890625 33.015625 
L 54.890625 0 
L 45.90625 0 
L 45.90625 32.71875 
Q 45.90625 40.484375 42.875 44.328125 
Q 39.84375 48.1875 33.796875 48.1875 
Q 26.515625 48.1875 22.3125 43.546875 
Q 18.109375 38.921875 18.109375 30.90625 
L 18.109375 0 
L 9.078125 0 
L 9.078125 75.984375 
L 18.109375 75.984375 
L 18.109375 46.1875 
Q 21.34375 51.125 25.703125 53.5625 
Q 30.078125 56 35.796875 56 
Q 45.21875 56 50.046875 50.171875 
Q 54.890625 44.34375 54.890625 33.015625 
z
" id="DejaVuSans-104"/>
      <path d="M -0.296875 72.90625 
L 61.375 72.90625 
L 61.375 64.59375 
L 35.5 64.59375 
L 35.5 0 
L 25.59375 0 
L 25.59375 64.59375 
L -0.296875 64.59375 
z
" id="DejaVuSans-84"/>
     </defs>
     <use xlink:href="#DejaVuSans-83"/>
     <use x="63.476562" xlink:href="#DejaVuSans-111"/>
     <use x="124.658203" xlink:href="#DejaVuSans-117"/>
     <use x="188.037109" xlink:href="#DejaVuSans-116"/>
     <use x="227.246094" xlink:href="#DejaVuSans-104"/>
     <use x="290.625" xlink:href="#DejaVuSans-32"/>
     <use x="322.412109" xlink:href="#DejaVuSans-84"/>
     <use x="367.871094" xlink:href="#DejaVuSans-121"/>
     <use x="427.050781" xlink:href="#DejaVuSans-114"/>
     <use x="465.914062" xlink:href="#DejaVuSans-111"/>
     <use x="527.095703" xlink:href="#DejaVuSans-108"/>
    </g>
   </g>
  </g>
 </g>
 <defs>
  <clipPath id="p570ce8a572">
   <rect height="266.112" width="357.12" x="46.603125" y="22.318125"/>
  </clipPath>
 </defs>
</svg>
