<?xml version="1.0" encoding="utf-8" standalone="no"?>
<!DOCTYPE svg PUBLIC "-//W3C//DTD SVG 1.1//EN"
  "http://www.w3.org/Graphics/SVG/1.1/DTD/svg11.dtd">
<!-- Created with matplotlib (https://matplotlib.org/) -->
<svg height="364.091062pt" version="1.1" viewBox="0 0 410.923125 364.091062" width="410.923125pt" xmlns="http://www.w3.org/2000/svg" xmlns:xlink="http://www.w3.org/1999/xlink">
 <metadata>
  <rdf:RDF xmlns:cc="http://creativecommons.org/ns#" xmlns:dc="http://purl.org/dc/elements/1.1/" xmlns:rdf="http://www.w3.org/1999/02/22-rdf-syntax-ns#">
   <cc:Work>
    <dc:type rdf:resource="http://purl.org/dc/dcmitype/StillImage"/>
    <dc:date>2020-12-18T12:05:50.519743</dc:date>
    <dc:format>image/svg+xml</dc:format>
    <dc:creator>
     <cc:Agent>
      <dc:title>Matplotlib v3.3.3, https://matplotlib.org/</dc:title>
     </cc:Agent>
    </dc:creator>
   </cc:Work>
  </rdf:RDF>
 </metadata>
 <defs>
  <style type="text/css">*{stroke-linecap:butt;stroke-linejoin:round;}</style>
 </defs>
 <g id="figure_1">
  <g id="patch_1">
   <path d="M 0 364.091062 
L 410.923125 364.091062 
L 410.923125 0 
L 0 0 
z
" style="fill:#ffffff;"/>
  </g>
  <g id="axes_1">
   <g id="patch_2">
    <path d="M 46.603125 288.430125 
L 403.723125 288.430125 
L 403.723125 22.318125 
L 46.603125 22.318125 
z
" style="fill:#ffffff;"/>
   </g>
   <g id="patch_3">
    <path clip-path="url(#p40461a489d)" d="M 46.731125 288.430125 
L 47.755125 288.430125 
L 47.755125 34.990125 
L 46.731125 34.990125 
z
" style="fill:#1f77b4;"/>
   </g>
   <g id="patch_4">
    <path clip-path="url(#p40461a489d)" d="M 48.011125 288.430125 
L 49.035125 288.430125 
L 49.035125 22.318125 
L 48.011125 22.318125 
z
" style="fill:#1f77b4;"/>
   </g>
   <g id="patch_5">
    <path clip-path="url(#p40461a489d)" d="M 49.291125 288.430125 
L 50.315125 288.430125 
L 50.315125 22.318125 
L 49.291125 22.318125 
z
" style="fill:#1f77b4;"/>
   </g>
   <g id="patch_6">
    <path clip-path="url(#p40461a489d)" d="M 50.571125 288.430125 
L 51.595125 288.430125 
L 51.595125 64.335809 
L 50.571125 64.335809 
z
" style="fill:#1f77b4;"/>
   </g>
   <g id="patch_7">
    <path clip-path="url(#p40461a489d)" d="M 51.851125 288.430125 
L 52.875125 288.430125 
L 52.875125 51.886125 
L 51.851125 51.886125 
z
" style="fill:#1f77b4;"/>
   </g>
   <g id="patch_8">
    <path clip-path="url(#p40461a489d)" d="M 53.131125 288.430125 
L 54.155125 288.430125 
L 54.155125 63.713325 
L 53.131125 63.713325 
z
" style="fill:#1f77b4;"/>
   </g>
   <g id="patch_9">
    <path clip-path="url(#p40461a489d)" d="M 54.411125 288.430125 
L 55.435125 288.430125 
L 55.435125 58.279206 
L 54.411125 58.279206 
z
" style="fill:#1f77b4;"/>
   </g>
   <g id="patch_10">
    <path clip-path="url(#p40461a489d)" d="M 55.691125 288.430125 
L 56.715125 288.430125 
L 56.715125 76.905202 
L 55.691125 76.905202 
z
" style="fill:#1f77b4;"/>
   </g>
   <g id="patch_11">
    <path clip-path="url(#p40461a489d)" d="M 56.971125 288.430125 
L 57.995125 288.430125 
L 57.995125 77.946057 
L 56.971125 77.946057 
z
" style="fill:#1f77b4;"/>
   </g>
   <g id="patch_12">
    <path clip-path="url(#p40461a489d)" d="M 58.251125 288.430125 
L 59.275125 288.430125 
L 59.275125 58.843301 
L 58.251125 58.843301 
z
" style="fill:#1f77b4;"/>
   </g>
   <g id="patch_13">
    <path clip-path="url(#p40461a489d)" d="M 59.531125 288.430125 
L 60.555125 288.430125 
L 60.555125 78.341704 
L 59.531125 78.341704 
z
" style="fill:#1f77b4;"/>
   </g>
   <g id="patch_14">
    <path clip-path="url(#p40461a489d)" d="M 60.811125 288.430125 
L 61.835125 288.430125 
L 61.835125 84.025255 
L 60.811125 84.025255 
z
" style="fill:#1f77b4;"/>
   </g>
   <g id="patch_15">
    <path clip-path="url(#p40461a489d)" d="M 62.091125 288.430125 
L 63.115125 288.430125 
L 63.115125 85.678125 
L 62.091125 85.678125 
z
" style="fill:#1f77b4;"/>
   </g>
   <g id="patch_16">
    <path clip-path="url(#p40461a489d)" d="M 63.371125 288.430125 
L 64.395125 288.430125 
L 64.395125 87.47239 
L 63.371125 87.47239 
z
" style="fill:#1f77b4;"/>
   </g>
   <g id="patch_17">
    <path clip-path="url(#p40461a489d)" d="M 64.651125 288.430125 
L 65.675125 288.430125 
L 65.675125 91.618125 
L 64.651125 91.618125 
z
" style="fill:#1f77b4;"/>
   </g>
   <g id="patch_18">
    <path clip-path="url(#p40461a489d)" d="M 65.931125 288.430125 
L 66.955125 288.430125 
L 66.955125 111.022125 
L 65.931125 111.022125 
z
" style="fill:#1f77b4;"/>
   </g>
   <g id="patch_19">
    <path clip-path="url(#p40461a489d)" d="M 67.211125 288.430125 
L 68.235125 288.430125 
L 68.235125 95.213491 
L 67.211125 95.213491 
z
" style="fill:#1f77b4;"/>
   </g>
   <g id="patch_20">
    <path clip-path="url(#p40461a489d)" d="M 68.491125 288.430125 
L 69.515125 288.430125 
L 69.515125 100.032249 
L 68.491125 100.032249 
z
" style="fill:#1f77b4;"/>
   </g>
   <g id="patch_21">
    <path clip-path="url(#p40461a489d)" d="M 69.771125 288.430125 
L 70.795125 288.430125 
L 70.795125 106.034752 
L 69.771125 106.034752 
z
" style="fill:#1f77b4;"/>
   </g>
   <g id="patch_22">
    <path clip-path="url(#p40461a489d)" d="M 71.051125 288.430125 
L 72.075125 288.430125 
L 72.075125 112.876564 
L 71.051125 112.876564 
z
" style="fill:#1f77b4;"/>
   </g>
   <g id="patch_23">
    <path clip-path="url(#p40461a489d)" d="M 72.331125 288.430125 
L 73.355125 288.430125 
L 73.355125 115.753005 
L 72.331125 115.753005 
z
" style="fill:#1f77b4;"/>
   </g>
   <g id="patch_24">
    <path clip-path="url(#p40461a489d)" d="M 73.611125 288.430125 
L 74.635125 288.430125 
L 74.635125 117.592792 
L 73.611125 117.592792 
z
" style="fill:#1f77b4;"/>
   </g>
   <g id="patch_25">
    <path clip-path="url(#p40461a489d)" d="M 74.891125 288.430125 
L 75.915125 288.430125 
L 75.915125 124.052091 
L 74.891125 124.052091 
z
" style="fill:#1f77b4;"/>
   </g>
   <g id="patch_26">
    <path clip-path="url(#p40461a489d)" d="M 76.171125 288.430125 
L 77.195125 288.430125 
L 77.195125 127.40545 
L 76.171125 127.40545 
z
" style="fill:#1f77b4;"/>
   </g>
   <g id="patch_27">
    <path clip-path="url(#p40461a489d)" d="M 77.451125 288.430125 
L 78.475125 288.430125 
L 78.475125 140.866461 
L 77.451125 140.866461 
z
" style="fill:#1f77b4;"/>
   </g>
   <g id="patch_28">
    <path clip-path="url(#p40461a489d)" d="M 78.731125 288.430125 
L 79.755125 288.430125 
L 79.755125 145.433159 
L 78.731125 145.433159 
z
" style="fill:#1f77b4;"/>
   </g>
   <g id="patch_29">
    <path clip-path="url(#p40461a489d)" d="M 80.011125 288.430125 
L 81.035125 288.430125 
L 81.035125 152.993401 
L 80.011125 152.993401 
z
" style="fill:#1f77b4;"/>
   </g>
   <g id="patch_30">
    <path clip-path="url(#p40461a489d)" d="M 81.291125 288.430125 
L 82.315125 288.430125 
L 82.315125 159.873603 
L 81.291125 159.873603 
z
" style="fill:#1f77b4;"/>
   </g>
   <g id="patch_31">
    <path clip-path="url(#p40461a489d)" d="M 82.571125 288.430125 
L 83.595125 288.430125 
L 83.595125 161.66574 
L 82.571125 161.66574 
z
" style="fill:#1f77b4;"/>
   </g>
   <g id="patch_32">
    <path clip-path="url(#p40461a489d)" d="M 83.851125 288.430125 
L 84.875125 288.430125 
L 84.875125 158.913249 
L 83.851125 158.913249 
z
" style="fill:#1f77b4;"/>
   </g>
   <g id="patch_33">
    <path clip-path="url(#p40461a489d)" d="M 85.131125 288.430125 
L 86.155125 288.430125 
L 86.155125 160.743438 
L 85.131125 160.743438 
z
" style="fill:#1f77b4;"/>
   </g>
   <g id="patch_34">
    <path clip-path="url(#p40461a489d)" d="M 86.411125 288.430125 
L 87.435125 288.430125 
L 87.435125 165.137144 
L 86.411125 165.137144 
z
" style="fill:#1f77b4;"/>
   </g>
   <g id="patch_35">
    <path clip-path="url(#p40461a489d)" d="M 87.691125 288.430125 
L 88.715125 288.430125 
L 88.715125 168.758456 
L 87.691125 168.758456 
z
" style="fill:#1f77b4;"/>
   </g>
   <g id="patch_36">
    <path clip-path="url(#p40461a489d)" d="M 88.971125 288.430125 
L 89.995125 288.430125 
L 89.995125 172.815923 
L 88.971125 172.815923 
z
" style="fill:#1f77b4;"/>
   </g>
   <g id="patch_37">
    <path clip-path="url(#p40461a489d)" d="M 90.251125 288.430125 
L 91.275125 288.430125 
L 91.275125 178.155711 
L 90.251125 178.155711 
z
" style="fill:#1f77b4;"/>
   </g>
   <g id="patch_38">
    <path clip-path="url(#p40461a489d)" d="M 91.531125 288.430125 
L 92.555125 288.430125 
L 92.555125 181.636611 
L 91.531125 181.636611 
z
" style="fill:#1f77b4;"/>
   </g>
   <g id="patch_39">
    <path clip-path="url(#p40461a489d)" d="M 92.811125 288.430125 
L 93.835125 288.430125 
L 93.835125 184.855466 
L 92.811125 184.855466 
z
" style="fill:#1f77b4;"/>
   </g>
   <g id="patch_40">
    <path clip-path="url(#p40461a489d)" d="M 94.091125 288.430125 
L 95.115125 288.430125 
L 95.115125 186.243117 
L 94.091125 186.243117 
z
" style="fill:#1f77b4;"/>
   </g>
   <g id="patch_41">
    <path clip-path="url(#p40461a489d)" d="M 95.371125 288.430125 
L 96.395125 288.430125 
L 96.395125 187.951258 
L 95.371125 187.951258 
z
" style="fill:#1f77b4;"/>
   </g>
   <g id="patch_42">
    <path clip-path="url(#p40461a489d)" d="M 96.651125 288.430125 
L 97.675125 288.430125 
L 97.675125 190.01676 
L 96.651125 190.01676 
z
" style="fill:#1f77b4;"/>
   </g>
   <g id="patch_43">
    <path clip-path="url(#p40461a489d)" d="M 97.931125 288.430125 
L 98.955125 288.430125 
L 98.955125 219.965996 
L 97.931125 219.965996 
z
" style="fill:#1f77b4;"/>
   </g>
   <g id="patch_44">
    <path clip-path="url(#p40461a489d)" d="M 99.211125 288.430125 
L 100.235125 288.430125 
L 100.235125 223.179438 
L 99.211125 223.179438 
z
" style="fill:#1f77b4;"/>
   </g>
   <g id="patch_45">
    <path clip-path="url(#p40461a489d)" d="M 100.491125 288.430125 
L 101.515125 288.430125 
L 101.515125 224.243505 
L 100.491125 224.243505 
z
" style="fill:#1f77b4;"/>
   </g>
   <g id="patch_46">
    <path clip-path="url(#p40461a489d)" d="M 101.771125 288.430125 
L 102.795125 288.430125 
L 102.795125 226.861796 
L 101.771125 226.861796 
z
" style="fill:#1f77b4;"/>
   </g>
   <g id="patch_47">
    <path clip-path="url(#p40461a489d)" d="M 103.051125 288.430125 
L 104.075125 288.430125 
L 104.075125 227.655596 
L 103.051125 227.655596 
z
" style="fill:#1f77b4;"/>
   </g>
   <g id="patch_48">
    <path clip-path="url(#p40461a489d)" d="M 104.331125 288.430125 
L 105.355125 288.430125 
L 105.355125 229.934587 
L 104.331125 229.934587 
z
" style="fill:#1f77b4;"/>
   </g>
   <g id="patch_49">
    <path clip-path="url(#p40461a489d)" d="M 105.611125 288.430125 
L 106.635125 288.430125 
L 106.635125 231.568587 
L 105.611125 231.568587 
z
" style="fill:#1f77b4;"/>
   </g>
   <g id="patch_50">
    <path clip-path="url(#p40461a489d)" d="M 106.891125 288.430125 
L 107.915125 288.430125 
L 107.915125 232.733429 
L 106.891125 232.733429 
z
" style="fill:#1f77b4;"/>
   </g>
   <g id="patch_51">
    <path clip-path="url(#p40461a489d)" d="M 108.171125 288.430125 
L 109.195125 288.430125 
L 109.195125 234.394282 
L 108.171125 234.394282 
z
" style="fill:#1f77b4;"/>
   </g>
   <g id="patch_52">
    <path clip-path="url(#p40461a489d)" d="M 109.451125 288.430125 
L 110.475125 288.430125 
L 110.475125 235.141351 
L 109.451125 235.141351 
z
" style="fill:#1f77b4;"/>
   </g>
   <g id="patch_53">
    <path clip-path="url(#p40461a489d)" d="M 110.731125 288.430125 
L 111.755125 288.430125 
L 111.755125 235.533671 
L 110.731125 235.533671 
z
" style="fill:#1f77b4;"/>
   </g>
   <g id="patch_54">
    <path clip-path="url(#p40461a489d)" d="M 112.011125 288.430125 
L 113.035125 288.430125 
L 113.035125 235.851174 
L 112.011125 235.851174 
z
" style="fill:#1f77b4;"/>
   </g>
   <g id="patch_55">
    <path clip-path="url(#p40461a489d)" d="M 113.291125 288.430125 
L 114.315125 288.430125 
L 114.315125 236.7614 
L 113.291125 236.7614 
z
" style="fill:#1f77b4;"/>
   </g>
   <g id="patch_56">
    <path clip-path="url(#p40461a489d)" d="M 114.571125 288.430125 
L 115.595125 288.430125 
L 115.595125 237.716794 
L 114.571125 237.716794 
z
" style="fill:#1f77b4;"/>
   </g>
   <g id="patch_57">
    <path clip-path="url(#p40461a489d)" d="M 115.851125 288.430125 
L 116.875125 288.430125 
L 116.875125 238.555697 
L 115.851125 238.555697 
z
" style="fill:#1f77b4;"/>
   </g>
   <g id="patch_58">
    <path clip-path="url(#p40461a489d)" d="M 117.131125 288.430125 
L 118.155125 288.430125 
L 118.155125 239.291328 
L 117.131125 239.291328 
z
" style="fill:#1f77b4;"/>
   </g>
   <g id="patch_59">
    <path clip-path="url(#p40461a489d)" d="M 118.411125 288.430125 
L 119.435125 288.430125 
L 119.435125 239.663945 
L 118.411125 239.663945 
z
" style="fill:#1f77b4;"/>
   </g>
   <g id="patch_60">
    <path clip-path="url(#p40461a489d)" d="M 119.691125 288.430125 
L 120.715125 288.430125 
L 120.715125 240.008177 
L 119.691125 240.008177 
z
" style="fill:#1f77b4;"/>
   </g>
   <g id="patch_61">
    <path clip-path="url(#p40461a489d)" d="M 120.971125 288.430125 
L 121.995125 288.430125 
L 121.995125 240.234977 
L 120.971125 240.234977 
z
" style="fill:#1f77b4;"/>
   </g>
   <g id="patch_62">
    <path clip-path="url(#p40461a489d)" d="M 122.251125 288.430125 
L 123.275125 288.430125 
L 123.275125 240.83686 
L 122.251125 240.83686 
z
" style="fill:#1f77b4;"/>
   </g>
   <g id="patch_63">
    <path clip-path="url(#p40461a489d)" d="M 123.531125 288.430125 
L 124.555125 288.430125 
L 124.555125 241.616367 
L 123.531125 241.616367 
z
" style="fill:#1f77b4;"/>
   </g>
   <g id="patch_64">
    <path clip-path="url(#p40461a489d)" d="M 124.811125 288.430125 
L 125.835125 288.430125 
L 125.835125 242.059399 
L 124.811125 242.059399 
z
" style="fill:#1f77b4;"/>
   </g>
   <g id="patch_65">
    <path clip-path="url(#p40461a489d)" d="M 126.091125 288.430125 
L 127.115125 288.430125 
L 127.115125 242.494125 
L 126.091125 242.494125 
z
" style="fill:#1f77b4;"/>
   </g>
   <g id="patch_66">
    <path clip-path="url(#p40461a489d)" d="M 127.371125 288.430125 
L 128.395125 288.430125 
L 128.395125 243.041223 
L 127.371125 243.041223 
z
" style="fill:#1f77b4;"/>
   </g>
   <g id="patch_67">
    <path clip-path="url(#p40461a489d)" d="M 128.651125 288.430125 
L 129.675125 288.430125 
L 129.675125 243.04487 
L 128.651125 243.04487 
z
" style="fill:#1f77b4;"/>
   </g>
   <g id="patch_68">
    <path clip-path="url(#p40461a489d)" d="M 129.931125 288.430125 
L 130.955125 288.430125 
L 130.955125 243.124528 
L 129.931125 243.124528 
z
" style="fill:#1f77b4;"/>
   </g>
   <g id="patch_69">
    <path clip-path="url(#p40461a489d)" d="M 131.211125 288.430125 
L 132.235125 288.430125 
L 132.235125 243.829064 
L 131.211125 243.829064 
z
" style="fill:#1f77b4;"/>
   </g>
   <g id="patch_70">
    <path clip-path="url(#p40461a489d)" d="M 132.491125 288.430125 
L 133.515125 288.430125 
L 133.515125 244.248929 
L 132.491125 244.248929 
z
" style="fill:#1f77b4;"/>
   </g>
   <g id="patch_71">
    <path clip-path="url(#p40461a489d)" d="M 133.771125 288.430125 
L 134.795125 288.430125 
L 134.795125 244.790456 
L 133.771125 244.790456 
z
" style="fill:#1f77b4;"/>
   </g>
   <g id="patch_72">
    <path clip-path="url(#p40461a489d)" d="M 135.051125 288.430125 
L 136.075125 288.430125 
L 136.075125 244.974125 
L 135.051125 244.974125 
z
" style="fill:#1f77b4;"/>
   </g>
   <g id="patch_73">
    <path clip-path="url(#p40461a489d)" d="M 136.331125 288.430125 
L 137.355125 288.430125 
L 137.355125 245.372804 
L 136.331125 245.372804 
z
" style="fill:#1f77b4;"/>
   </g>
   <g id="patch_74">
    <path clip-path="url(#p40461a489d)" d="M 137.611125 288.430125 
L 138.635125 288.430125 
L 138.635125 245.569413 
L 137.611125 245.569413 
z
" style="fill:#1f77b4;"/>
   </g>
   <g id="patch_75">
    <path clip-path="url(#p40461a489d)" d="M 138.891125 288.430125 
L 139.915125 288.430125 
L 139.915125 245.658188 
L 138.891125 245.658188 
z
" style="fill:#1f77b4;"/>
   </g>
   <g id="patch_76">
    <path clip-path="url(#p40461a489d)" d="M 140.171125 288.430125 
L 141.195125 288.430125 
L 141.195125 245.799466 
L 140.171125 245.799466 
z
" style="fill:#1f77b4;"/>
   </g>
   <g id="patch_77">
    <path clip-path="url(#p40461a489d)" d="M 141.451125 288.430125 
L 142.475125 288.430125 
L 142.475125 246.079241 
L 141.451125 246.079241 
z
" style="fill:#1f77b4;"/>
   </g>
   <g id="patch_78">
    <path clip-path="url(#p40461a489d)" d="M 142.731125 288.430125 
L 143.755125 288.430125 
L 143.755125 246.13129 
L 142.731125 246.13129 
z
" style="fill:#1f77b4;"/>
   </g>
   <g id="patch_79">
    <path clip-path="url(#p40461a489d)" d="M 144.011125 288.430125 
L 145.035125 288.430125 
L 145.035125 246.44092 
L 144.011125 246.44092 
z
" style="fill:#1f77b4;"/>
   </g>
   <g id="patch_80">
    <path clip-path="url(#p40461a489d)" d="M 145.291125 288.430125 
L 146.315125 288.430125 
L 146.315125 246.627916 
L 145.291125 246.627916 
z
" style="fill:#1f77b4;"/>
   </g>
   <g id="patch_81">
    <path clip-path="url(#p40461a489d)" d="M 146.571125 288.430125 
L 147.595125 288.430125 
L 147.595125 246.712365 
L 146.571125 246.712365 
z
" style="fill:#1f77b4;"/>
   </g>
   <g id="patch_82">
    <path clip-path="url(#p40461a489d)" d="M 147.851125 288.430125 
L 148.875125 288.430125 
L 148.875125 246.762871 
L 147.851125 246.762871 
z
" style="fill:#1f77b4;"/>
   </g>
   <g id="patch_83">
    <path clip-path="url(#p40461a489d)" d="M 149.131125 288.430125 
L 150.155125 288.430125 
L 150.155125 246.762871 
L 149.131125 246.762871 
z
" style="fill:#1f77b4;"/>
   </g>
   <g id="patch_84">
    <path clip-path="url(#p40461a489d)" d="M 150.411125 288.430125 
L 151.435125 288.430125 
L 151.435125 246.754231 
L 150.411125 246.754231 
z
" style="fill:#1f77b4;"/>
   </g>
   <g id="patch_85">
    <path clip-path="url(#p40461a489d)" d="M 151.691125 288.430125 
L 152.715125 288.430125 
L 152.715125 246.954436 
L 151.691125 246.954436 
z
" style="fill:#1f77b4;"/>
   </g>
   <g id="patch_86">
    <path clip-path="url(#p40461a489d)" d="M 152.971125 288.430125 
L 153.995125 288.430125 
L 153.995125 246.987616 
L 152.971125 246.987616 
z
" style="fill:#1f77b4;"/>
   </g>
   <g id="patch_87">
    <path clip-path="url(#p40461a489d)" d="M 154.251125 288.430125 
L 155.275125 288.430125 
L 155.275125 247.08684 
L 154.251125 247.08684 
z
" style="fill:#1f77b4;"/>
   </g>
   <g id="patch_88">
    <path clip-path="url(#p40461a489d)" d="M 155.531125 288.430125 
L 156.555125 288.430125 
L 156.555125 247.103331 
L 155.531125 247.103331 
z
" style="fill:#1f77b4;"/>
   </g>
   <g id="patch_89">
    <path clip-path="url(#p40461a489d)" d="M 156.811125 288.430125 
L 157.835125 288.430125 
L 157.835125 247.136274 
L 156.811125 247.136274 
z
" style="fill:#1f77b4;"/>
   </g>
   <g id="patch_90">
    <path clip-path="url(#p40461a489d)" d="M 158.091125 288.430125 
L 159.115125 288.430125 
L 159.115125 247.152726 
L 158.091125 247.152726 
z
" style="fill:#1f77b4;"/>
   </g>
   <g id="patch_91">
    <path clip-path="url(#p40461a489d)" d="M 159.371125 288.430125 
L 160.395125 288.430125 
L 160.395125 247.103331 
L 159.371125 247.103331 
z
" style="fill:#1f77b4;"/>
   </g>
   <g id="patch_92">
    <path clip-path="url(#p40461a489d)" d="M 160.651125 288.430125 
L 161.675125 288.430125 
L 161.675125 247.244861 
L 160.651125 247.244861 
z
" style="fill:#1f77b4;"/>
   </g>
   <g id="patch_93">
    <path clip-path="url(#p40461a489d)" d="M 161.931125 288.430125 
L 162.955125 288.430125 
L 162.955125 247.375868 
L 161.931125 247.375868 
z
" style="fill:#1f77b4;"/>
   </g>
   <g id="patch_94">
    <path clip-path="url(#p40461a489d)" d="M 163.211125 288.430125 
L 164.235125 288.430125 
L 164.235125 247.392185 
L 163.211125 247.392185 
z
" style="fill:#1f77b4;"/>
   </g>
   <g id="patch_95">
    <path clip-path="url(#p40461a489d)" d="M 164.491125 288.430125 
L 165.515125 288.430125 
L 165.515125 247.267522 
L 164.491125 247.267522 
z
" style="fill:#1f77b4;"/>
   </g>
   <g id="patch_96">
    <path clip-path="url(#p40461a489d)" d="M 165.771125 288.430125 
L 166.795125 288.430125 
L 166.795125 247.283869 
L 165.771125 247.283869 
z
" style="fill:#1f77b4;"/>
   </g>
   <g id="patch_97">
    <path clip-path="url(#p40461a489d)" d="M 167.051125 288.430125 
L 168.075125 288.430125 
L 168.075125 247.381681 
L 167.051125 247.381681 
z
" style="fill:#1f77b4;"/>
   </g>
   <g id="patch_98">
    <path clip-path="url(#p40461a489d)" d="M 168.331125 288.430125 
L 169.355125 288.430125 
L 169.355125 247.446631 
L 168.331125 247.446631 
z
" style="fill:#1f77b4;"/>
   </g>
   <g id="patch_99">
    <path clip-path="url(#p40461a489d)" d="M 169.611125 288.430125 
L 170.635125 288.430125 
L 170.635125 247.640254 
L 169.611125 247.640254 
z
" style="fill:#1f77b4;"/>
   </g>
   <g id="patch_100">
    <path clip-path="url(#p40461a489d)" d="M 170.891125 288.430125 
L 171.915125 288.430125 
L 171.915125 247.672347 
L 170.891125 247.672347 
z
" style="fill:#1f77b4;"/>
   </g>
   <g id="patch_101">
    <path clip-path="url(#p40461a489d)" d="M 172.171125 288.430125 
L 173.195125 288.430125 
L 173.195125 247.752358 
L 172.171125 247.752358 
z
" style="fill:#1f77b4;"/>
   </g>
   <g id="patch_102">
    <path clip-path="url(#p40461a489d)" d="M 173.451125 288.430125 
L 174.475125 288.430125 
L 174.475125 247.704389 
L 173.451125 247.704389 
z
" style="fill:#1f77b4;"/>
   </g>
   <g id="patch_103">
    <path clip-path="url(#p40461a489d)" d="M 174.731125 288.430125 
L 175.755125 288.430125 
L 175.755125 247.704389 
L 174.731125 247.704389 
z
" style="fill:#1f77b4;"/>
   </g>
   <g id="patch_104">
    <path clip-path="url(#p40461a489d)" d="M 176.011125 288.430125 
L 177.035125 288.430125 
L 177.035125 247.704389 
L 176.011125 247.704389 
z
" style="fill:#1f77b4;"/>
   </g>
   <g id="patch_105">
    <path clip-path="url(#p40461a489d)" d="M 177.291125 288.430125 
L 178.315125 288.430125 
L 178.315125 247.752358 
L 177.291125 247.752358 
z
" style="fill:#1f77b4;"/>
   </g>
   <g id="patch_106">
    <path clip-path="url(#p40461a489d)" d="M 178.571125 288.430125 
L 179.595125 288.430125 
L 179.595125 247.784275 
L 178.571125 247.784275 
z
" style="fill:#1f77b4;"/>
   </g>
   <g id="patch_107">
    <path clip-path="url(#p40461a489d)" d="M 179.851125 288.430125 
L 180.875125 288.430125 
L 180.875125 247.784275 
L 179.851125 247.784275 
z
" style="fill:#1f77b4;"/>
   </g>
   <g id="patch_108">
    <path clip-path="url(#p40461a489d)" d="M 181.131125 288.430125 
L 182.155125 288.430125 
L 182.155125 247.832056 
L 181.131125 247.832056 
z
" style="fill:#1f77b4;"/>
   </g>
   <g id="patch_109">
    <path clip-path="url(#p40461a489d)" d="M 182.411125 288.430125 
L 183.435125 288.430125 
L 183.435125 247.863848 
L 182.411125 247.863848 
z
" style="fill:#1f77b4;"/>
   </g>
   <g id="patch_110">
    <path clip-path="url(#p40461a489d)" d="M 183.691125 288.430125 
L 184.715125 288.430125 
L 184.715125 247.879725 
L 183.691125 247.879725 
z
" style="fill:#1f77b4;"/>
   </g>
   <g id="patch_111">
    <path clip-path="url(#p40461a489d)" d="M 184.971125 288.430125 
L 185.995125 288.430125 
L 185.995125 247.927282 
L 184.971125 247.927282 
z
" style="fill:#1f77b4;"/>
   </g>
   <g id="patch_112">
    <path clip-path="url(#p40461a489d)" d="M 186.251125 288.430125 
L 187.275125 288.430125 
L 187.275125 247.927282 
L 186.251125 247.927282 
z
" style="fill:#1f77b4;"/>
   </g>
   <g id="patch_113">
    <path clip-path="url(#p40461a489d)" d="M 187.531125 288.430125 
L 188.555125 288.430125 
L 188.555125 247.94311 
L 187.531125 247.94311 
z
" style="fill:#1f77b4;"/>
   </g>
   <g id="patch_114">
    <path clip-path="url(#p40461a489d)" d="M 188.811125 288.430125 
L 189.835125 288.430125 
L 189.835125 247.958925 
L 188.811125 247.958925 
z
" style="fill:#1f77b4;"/>
   </g>
   <g id="patch_115">
    <path clip-path="url(#p40461a489d)" d="M 190.091125 288.430125 
L 191.115125 288.430125 
L 191.115125 247.990518 
L 190.091125 247.990518 
z
" style="fill:#1f77b4;"/>
   </g>
   <g id="patch_116">
    <path clip-path="url(#p40461a489d)" d="M 191.371125 288.430125 
L 192.395125 288.430125 
L 192.395125 248.022063 
L 191.371125 248.022063 
z
" style="fill:#1f77b4;"/>
   </g>
   <g id="patch_117">
    <path clip-path="url(#p40461a489d)" d="M 192.651125 288.430125 
L 193.675125 288.430125 
L 193.675125 248.037816 
L 192.651125 248.037816 
z
" style="fill:#1f77b4;"/>
   </g>
   <g id="patch_118">
    <path clip-path="url(#p40461a489d)" d="M 193.931125 288.430125 
L 194.955125 288.430125 
L 194.955125 248.069287 
L 193.931125 248.069287 
z
" style="fill:#1f77b4;"/>
   </g>
   <g id="patch_119">
    <path clip-path="url(#p40461a489d)" d="M 195.211125 288.430125 
L 196.235125 288.430125 
L 196.235125 248.100708 
L 195.211125 248.100708 
z
" style="fill:#1f77b4;"/>
   </g>
   <g id="patch_120">
    <path clip-path="url(#p40461a489d)" d="M 196.491125 288.430125 
L 197.515125 288.430125 
L 197.515125 248.147749 
L 196.491125 248.147749 
z
" style="fill:#1f77b4;"/>
   </g>
   <g id="patch_121">
    <path clip-path="url(#p40461a489d)" d="M 197.771125 288.430125 
L 198.795125 288.430125 
L 198.795125 248.257084 
L 197.771125 248.257084 
z
" style="fill:#1f77b4;"/>
   </g>
   <g id="patch_122">
    <path clip-path="url(#p40461a489d)" d="M 199.051125 288.430125 
L 200.075125 288.430125 
L 200.075125 248.241501 
L 199.051125 248.241501 
z
" style="fill:#1f77b4;"/>
   </g>
   <g id="patch_123">
    <path clip-path="url(#p40461a489d)" d="M 200.331125 288.430125 
L 201.355125 288.430125 
L 201.355125 248.241501 
L 200.331125 248.241501 
z
" style="fill:#1f77b4;"/>
   </g>
   <g id="patch_124">
    <path clip-path="url(#p40461a489d)" d="M 201.611125 288.430125 
L 202.635125 288.430125 
L 202.635125 248.257084 
L 201.611125 248.257084 
z
" style="fill:#1f77b4;"/>
   </g>
   <g id="patch_125">
    <path clip-path="url(#p40461a489d)" d="M 202.891125 288.430125 
L 203.915125 288.430125 
L 203.915125 248.272655 
L 202.891125 248.272655 
z
" style="fill:#1f77b4;"/>
   </g>
   <g id="patch_126">
    <path clip-path="url(#p40461a489d)" d="M 204.171125 288.430125 
L 205.195125 288.430125 
L 205.195125 248.241501 
L 204.171125 248.241501 
z
" style="fill:#1f77b4;"/>
   </g>
   <g id="patch_127">
    <path clip-path="url(#p40461a489d)" d="M 205.451125 288.430125 
L 206.475125 288.430125 
L 206.475125 248.288214 
L 205.451125 248.288214 
z
" style="fill:#1f77b4;"/>
   </g>
   <g id="patch_128">
    <path clip-path="url(#p40461a489d)" d="M 206.731125 288.430125 
L 207.755125 288.430125 
L 207.755125 248.303761 
L 206.731125 248.303761 
z
" style="fill:#1f77b4;"/>
   </g>
   <g id="patch_129">
    <path clip-path="url(#p40461a489d)" d="M 208.011125 288.430125 
L 209.035125 288.430125 
L 209.035125 248.319296 
L 208.011125 248.319296 
z
" style="fill:#1f77b4;"/>
   </g>
   <g id="patch_130">
    <path clip-path="url(#p40461a489d)" d="M 209.291125 288.430125 
L 210.315125 288.430125 
L 210.315125 248.334818 
L 209.291125 248.334818 
z
" style="fill:#1f77b4;"/>
   </g>
   <g id="patch_131">
    <path clip-path="url(#p40461a489d)" d="M 210.571125 288.430125 
L 211.595125 288.430125 
L 211.595125 248.365828 
L 210.571125 248.365828 
z
" style="fill:#1f77b4;"/>
   </g>
   <g id="patch_132">
    <path clip-path="url(#p40461a489d)" d="M 211.851125 288.430125 
L 212.875125 288.430125 
L 212.875125 248.412252 
L 211.851125 248.412252 
z
" style="fill:#1f77b4;"/>
   </g>
   <g id="patch_133">
    <path clip-path="url(#p40461a489d)" d="M 213.131125 288.430125 
L 214.155125 288.430125 
L 214.155125 248.535527 
L 213.131125 248.535527 
z
" style="fill:#1f77b4;"/>
   </g>
   <g id="patch_134">
    <path clip-path="url(#p40461a489d)" d="M 214.411125 288.430125 
L 215.435125 288.430125 
L 215.435125 248.64277 
L 214.411125 248.64277 
z
" style="fill:#1f77b4;"/>
   </g>
   <g id="patch_135">
    <path clip-path="url(#p40461a489d)" d="M 215.691125 288.430125 
L 216.715125 288.430125 
L 216.715125 248.673305 
L 215.691125 248.673305 
z
" style="fill:#1f77b4;"/>
   </g>
   <g id="patch_136">
    <path clip-path="url(#p40461a489d)" d="M 216.971125 288.430125 
L 217.995125 288.430125 
L 217.995125 248.673305 
L 216.971125 248.673305 
z
" style="fill:#1f77b4;"/>
   </g>
   <g id="patch_137">
    <path clip-path="url(#p40461a489d)" d="M 218.251125 288.430125 
L 219.275125 288.430125 
L 219.275125 248.673305 
L 218.251125 248.673305 
z
" style="fill:#1f77b4;"/>
   </g>
   <g id="patch_138">
    <path clip-path="url(#p40461a489d)" d="M 219.531125 288.430125 
L 220.555125 288.430125 
L 220.555125 248.688555 
L 219.531125 248.688555 
z
" style="fill:#1f77b4;"/>
   </g>
   <g id="patch_139">
    <path clip-path="url(#p40461a489d)" d="M 220.811125 288.430125 
L 221.835125 288.430125 
L 221.835125 248.734235 
L 220.811125 248.734235 
z
" style="fill:#1f77b4;"/>
   </g>
   <g id="patch_140">
    <path clip-path="url(#p40461a489d)" d="M 222.091125 288.430125 
L 223.115125 288.430125 
L 223.115125 248.734235 
L 222.091125 248.734235 
z
" style="fill:#1f77b4;"/>
   </g>
   <g id="patch_141">
    <path clip-path="url(#p40461a489d)" d="M 223.371125 288.430125 
L 224.395125 288.430125 
L 224.395125 248.810136 
L 223.371125 248.810136 
z
" style="fill:#1f77b4;"/>
   </g>
   <g id="patch_142">
    <path clip-path="url(#p40461a489d)" d="M 224.651125 288.430125 
L 225.675125 288.430125 
L 225.675125 248.855537 
L 224.651125 248.855537 
z
" style="fill:#1f77b4;"/>
   </g>
   <g id="patch_143">
    <path clip-path="url(#p40461a489d)" d="M 225.931125 288.430125 
L 226.955125 288.430125 
L 226.955125 248.900834 
L 225.931125 248.900834 
z
" style="fill:#1f77b4;"/>
   </g>
   <g id="patch_144">
    <path clip-path="url(#p40461a489d)" d="M 227.211125 288.430125 
L 228.235125 288.430125 
L 228.235125 248.91591 
L 227.211125 248.91591 
z
" style="fill:#1f77b4;"/>
   </g>
   <g id="patch_145">
    <path clip-path="url(#p40461a489d)" d="M 228.491125 288.430125 
L 229.515125 288.430125 
L 229.515125 248.91591 
L 228.491125 248.91591 
z
" style="fill:#1f77b4;"/>
   </g>
   <g id="patch_146">
    <path clip-path="url(#p40461a489d)" d="M 229.771125 288.430125 
L 230.795125 288.430125 
L 230.795125 249.021121 
L 229.771125 249.021121 
z
" style="fill:#1f77b4;"/>
   </g>
   <g id="patch_147">
    <path clip-path="url(#p40461a489d)" d="M 231.051125 288.430125 
L 232.075125 288.430125 
L 232.075125 249.08099 
L 231.051125 249.08099 
z
" style="fill:#1f77b4;"/>
   </g>
   <g id="patch_148">
    <path clip-path="url(#p40461a489d)" d="M 232.331125 288.430125 
L 233.355125 288.430125 
L 233.355125 249.08099 
L 232.331125 249.08099 
z
" style="fill:#1f77b4;"/>
   </g>
   <g id="patch_149">
    <path clip-path="url(#p40461a489d)" d="M 233.611125 288.430125 
L 234.635125 288.430125 
L 234.635125 249.229871 
L 233.611125 249.229871 
z
" style="fill:#1f77b4;"/>
   </g>
   <g id="patch_150">
    <path clip-path="url(#p40461a489d)" d="M 234.891125 288.430125 
L 235.915125 288.430125 
L 235.915125 249.259512 
L 234.891125 249.259512 
z
" style="fill:#1f77b4;"/>
   </g>
   <g id="patch_151">
    <path clip-path="url(#p40461a489d)" d="M 236.171125 288.430125 
L 237.195125 288.430125 
L 237.195125 249.274315 
L 236.171125 249.274315 
z
" style="fill:#1f77b4;"/>
   </g>
   <g id="patch_152">
    <path clip-path="url(#p40461a489d)" d="M 237.451125 288.430125 
L 238.475125 288.430125 
L 238.475125 249.289108 
L 237.451125 249.289108 
z
" style="fill:#1f77b4;"/>
   </g>
   <g id="patch_153">
    <path clip-path="url(#p40461a489d)" d="M 238.731125 288.430125 
L 239.755125 288.430125 
L 239.755125 249.31866 
L 238.731125 249.31866 
z
" style="fill:#1f77b4;"/>
   </g>
   <g id="patch_154">
    <path clip-path="url(#p40461a489d)" d="M 240.011125 288.430125 
L 241.035125 288.430125 
L 241.035125 249.46575 
L 240.011125 249.46575 
z
" style="fill:#1f77b4;"/>
   </g>
   <g id="patch_155">
    <path clip-path="url(#p40461a489d)" d="M 241.291125 288.430125 
L 242.315125 288.430125 
L 242.315125 249.495036 
L 241.291125 249.495036 
z
" style="fill:#1f77b4;"/>
   </g>
   <g id="patch_156">
    <path clip-path="url(#p40461a489d)" d="M 242.571125 288.430125 
L 243.595125 288.430125 
L 243.595125 249.582629 
L 242.571125 249.582629 
z
" style="fill:#1f77b4;"/>
   </g>
   <g id="patch_157">
    <path clip-path="url(#p40461a489d)" d="M 243.851125 288.430125 
L 244.875125 288.430125 
L 244.875125 249.669829 
L 243.851125 249.669829 
z
" style="fill:#1f77b4;"/>
   </g>
   <g id="patch_158">
    <path clip-path="url(#p40461a489d)" d="M 245.131125 288.430125 
L 246.155125 288.430125 
L 246.155125 249.727745 
L 245.131125 249.727745 
z
" style="fill:#1f77b4;"/>
   </g>
   <g id="patch_159">
    <path clip-path="url(#p40461a489d)" d="M 246.411125 288.430125 
L 247.435125 288.430125 
L 247.435125 249.727745 
L 246.411125 249.727745 
z
" style="fill:#1f77b4;"/>
   </g>
   <g id="patch_160">
    <path clip-path="url(#p40461a489d)" d="M 247.691125 288.430125 
L 248.715125 288.430125 
L 248.715125 249.900459 
L 247.691125 249.900459 
z
" style="fill:#1f77b4;"/>
   </g>
   <g id="patch_161">
    <path clip-path="url(#p40461a489d)" d="M 248.971125 288.430125 
L 249.995125 288.430125 
L 249.995125 249.957688 
L 248.971125 249.957688 
z
" style="fill:#1f77b4;"/>
   </g>
   <g id="patch_162">
    <path clip-path="url(#p40461a489d)" d="M 250.251125 288.430125 
L 251.275125 288.430125 
L 251.275125 250.000499 
L 250.251125 250.000499 
z
" style="fill:#1f77b4;"/>
   </g>
   <g id="patch_163">
    <path clip-path="url(#p40461a489d)" d="M 251.531125 288.430125 
L 252.555125 288.430125 
L 252.555125 250.213131 
L 251.531125 250.213131 
z
" style="fill:#1f77b4;"/>
   </g>
   <g id="patch_164">
    <path clip-path="url(#p40461a489d)" d="M 252.811125 288.430125 
L 253.835125 288.430125 
L 253.835125 250.227222 
L 252.811125 250.227222 
z
" style="fill:#1f77b4;"/>
   </g>
   <g id="patch_165">
    <path clip-path="url(#p40461a489d)" d="M 254.091125 288.430125 
L 255.115125 288.430125 
L 255.115125 250.227222 
L 254.091125 250.227222 
z
" style="fill:#1f77b4;"/>
   </g>
   <g id="patch_166">
    <path clip-path="url(#p40461a489d)" d="M 255.371125 288.430125 
L 256.395125 288.430125 
L 256.395125 250.516846 
L 255.371125 250.516846 
z
" style="fill:#1f77b4;"/>
   </g>
   <g id="patch_167">
    <path clip-path="url(#p40461a489d)" d="M 256.651125 288.430125 
L 257.675125 288.430125 
L 257.675125 250.339584 
L 256.651125 250.339584 
z
" style="fill:#1f77b4;"/>
   </g>
   <g id="patch_168">
    <path clip-path="url(#p40461a489d)" d="M 257.931125 288.430125 
L 258.955125 288.430125 
L 258.955125 250.367571 
L 257.931125 250.367571 
z
" style="fill:#1f77b4;"/>
   </g>
   <g id="patch_169">
    <path clip-path="url(#p40461a489d)" d="M 259.211125 288.430125 
L 260.235125 288.430125 
L 260.235125 250.423422 
L 259.211125 250.423422 
z
" style="fill:#1f77b4;"/>
   </g>
   <g id="patch_170">
    <path clip-path="url(#p40461a489d)" d="M 260.491125 288.430125 
L 261.515125 288.430125 
L 261.515125 250.534634 
L 260.491125 250.534634 
z
" style="fill:#1f77b4;"/>
   </g>
   <g id="patch_171">
    <path clip-path="url(#p40461a489d)" d="M 261.771125 288.430125 
L 262.795125 288.430125 
L 262.795125 250.645197 
L 261.771125 250.645197 
z
" style="fill:#1f77b4;"/>
   </g>
   <g id="patch_172">
    <path clip-path="url(#p40461a489d)" d="M 263.051125 288.430125 
L 264.075125 288.430125 
L 264.075125 250.686492 
L 263.051125 250.686492 
z
" style="fill:#1f77b4;"/>
   </g>
   <g id="patch_173">
    <path clip-path="url(#p40461a489d)" d="M 264.331125 288.430125 
L 265.355125 288.430125 
L 265.355125 250.713972 
L 264.331125 250.713972 
z
" style="fill:#1f77b4;"/>
   </g>
   <g id="patch_174">
    <path clip-path="url(#p40461a489d)" d="M 265.611125 288.430125 
L 266.635125 288.430125 
L 266.635125 250.782497 
L 265.611125 250.782497 
z
" style="fill:#1f77b4;"/>
   </g>
   <g id="patch_175">
    <path clip-path="url(#p40461a489d)" d="M 266.891125 288.430125 
L 267.915125 288.430125 
L 267.915125 250.837138 
L 266.891125 250.837138 
z
" style="fill:#1f77b4;"/>
   </g>
   <g id="patch_176">
    <path clip-path="url(#p40461a489d)" d="M 268.171125 288.430125 
L 269.195125 288.430125 
L 269.195125 250.945946 
L 268.171125 250.945946 
z
" style="fill:#1f77b4;"/>
   </g>
   <g id="patch_177">
    <path clip-path="url(#p40461a489d)" d="M 269.451125 288.430125 
L 270.475125 288.430125 
L 270.475125 251.134851 
L 269.451125 251.134851 
z
" style="fill:#1f77b4;"/>
   </g>
   <g id="patch_178">
    <path clip-path="url(#p40461a489d)" d="M 270.731125 288.430125 
L 271.755125 288.430125 
L 271.755125 251.228591 
L 270.731125 251.228591 
z
" style="fill:#1f77b4;"/>
   </g>
   <g id="patch_179">
    <path clip-path="url(#p40461a489d)" d="M 272.011125 288.430125 
L 273.035125 288.430125 
L 273.035125 251.268621 
L 272.011125 251.268621 
z
" style="fill:#1f77b4;"/>
   </g>
   <g id="patch_180">
    <path clip-path="url(#p40461a489d)" d="M 273.291125 288.430125 
L 274.315125 288.430125 
L 274.315125 251.281946 
L 273.291125 251.281946 
z
" style="fill:#1f77b4;"/>
   </g>
   <g id="patch_181">
    <path clip-path="url(#p40461a489d)" d="M 274.571125 288.430125 
L 275.595125 288.430125 
L 275.595125 251.348424 
L 274.571125 251.348424 
z
" style="fill:#1f77b4;"/>
   </g>
   <g id="patch_182">
    <path clip-path="url(#p40461a489d)" d="M 275.851125 288.430125 
L 276.875125 288.430125 
L 276.875125 251.401436 
L 275.851125 251.401436 
z
" style="fill:#1f77b4;"/>
   </g>
   <g id="patch_183">
    <path clip-path="url(#p40461a489d)" d="M 277.131125 288.430125 
L 278.155125 288.430125 
L 278.155125 251.533304 
L 277.131125 251.533304 
z
" style="fill:#1f77b4;"/>
   </g>
   <g id="patch_184">
    <path clip-path="url(#p40461a489d)" d="M 278.411125 288.430125 
L 279.435125 288.430125 
L 279.435125 251.71635 
L 278.411125 251.71635 
z
" style="fill:#1f77b4;"/>
   </g>
   <g id="patch_185">
    <path clip-path="url(#p40461a489d)" d="M 279.691125 288.430125 
L 280.715125 288.430125 
L 280.715125 251.845989 
L 279.691125 251.845989 
z
" style="fill:#1f77b4;"/>
   </g>
   <g id="patch_186">
    <path clip-path="url(#p40461a489d)" d="M 280.971125 288.430125 
L 281.995125 288.430125 
L 281.995125 251.845989 
L 280.971125 251.845989 
z
" style="fill:#1f77b4;"/>
   </g>
   <g id="patch_187">
    <path clip-path="url(#p40461a489d)" d="M 282.251125 288.430125 
L 283.275125 288.430125 
L 283.275125 251.897589 
L 282.251125 251.897589 
z
" style="fill:#1f77b4;"/>
   </g>
   <g id="patch_188">
    <path clip-path="url(#p40461a489d)" d="M 283.531125 288.430125 
L 284.555125 288.430125 
L 284.555125 252.013158 
L 283.531125 252.013158 
z
" style="fill:#1f77b4;"/>
   </g>
   <g id="patch_189">
    <path clip-path="url(#p40461a489d)" d="M 284.811125 288.430125 
L 285.835125 288.430125 
L 285.835125 252.166117 
L 284.811125 252.166117 
z
" style="fill:#1f77b4;"/>
   </g>
   <g id="patch_190">
    <path clip-path="url(#p40461a489d)" d="M 286.091125 288.430125 
L 287.115125 288.430125 
L 287.115125 252.330379 
L 286.091125 252.330379 
z
" style="fill:#1f77b4;"/>
   </g>
   <g id="patch_191">
    <path clip-path="url(#p40461a489d)" d="M 287.371125 288.430125 
L 288.395125 288.430125 
L 288.395125 252.405691 
L 287.371125 252.405691 
z
" style="fill:#1f77b4;"/>
   </g>
   <g id="patch_192">
    <path clip-path="url(#p40461a489d)" d="M 288.651125 288.430125 
L 289.675125 288.430125 
L 289.675125 252.44323 
L 288.651125 252.44323 
z
" style="fill:#1f77b4;"/>
   </g>
   <g id="patch_193">
    <path clip-path="url(#p40461a489d)" d="M 289.931125 288.430125 
L 290.955125 288.430125 
L 290.955125 252.468212 
L 289.931125 252.468212 
z
" style="fill:#1f77b4;"/>
   </g>
   <g id="patch_194">
    <path clip-path="url(#p40461a489d)" d="M 291.211125 288.430125 
L 292.235125 288.430125 
L 292.235125 252.468212 
L 291.211125 252.468212 
z
" style="fill:#1f77b4;"/>
   </g>
   <g id="patch_195">
    <path clip-path="url(#p40461a489d)" d="M 292.491125 288.430125 
L 293.515125 288.430125 
L 293.515125 252.580204 
L 292.491125 252.580204 
z
" style="fill:#1f77b4;"/>
   </g>
   <g id="patch_196">
    <path clip-path="url(#p40461a489d)" d="M 293.771125 288.430125 
L 294.795125 288.430125 
L 294.795125 252.716139 
L 293.771125 252.716139 
z
" style="fill:#1f77b4;"/>
   </g>
   <g id="patch_197">
    <path clip-path="url(#p40461a489d)" d="M 295.051125 288.430125 
L 296.075125 288.430125 
L 296.075125 252.997063 
L 295.051125 252.997063 
z
" style="fill:#1f77b4;"/>
   </g>
   <g id="patch_198">
    <path clip-path="url(#p40461a489d)" d="M 296.331125 288.430125 
L 297.355125 288.430125 
L 297.355125 253.03338 
L 296.331125 253.03338 
z
" style="fill:#1f77b4;"/>
   </g>
   <g id="patch_199">
    <path clip-path="url(#p40461a489d)" d="M 297.611125 288.430125 
L 298.635125 288.430125 
L 298.635125 253.213853 
L 297.611125 253.213853 
z
" style="fill:#1f77b4;"/>
   </g>
   <g id="patch_200">
    <path clip-path="url(#p40461a489d)" d="M 298.891125 288.430125 
L 299.915125 288.430125 
L 299.915125 253.356912 
L 298.891125 253.356912 
z
" style="fill:#1f77b4;"/>
   </g>
   <g id="patch_201">
    <path clip-path="url(#p40461a489d)" d="M 300.171125 288.430125 
L 301.195125 288.430125 
L 301.195125 253.380642 
L 300.171125 253.380642 
z
" style="fill:#1f77b4;"/>
   </g>
   <g id="patch_202">
    <path clip-path="url(#p40461a489d)" d="M 301.451125 288.430125 
L 302.475125 288.430125 
L 302.475125 253.63957 
L 301.451125 253.63957 
z
" style="fill:#1f77b4;"/>
   </g>
   <g id="patch_203">
    <path clip-path="url(#p40461a489d)" d="M 302.731125 288.430125 
L 303.755125 288.430125 
L 303.755125 253.73278 
L 302.731125 253.73278 
z
" style="fill:#1f77b4;"/>
   </g>
   <g id="patch_204">
    <path clip-path="url(#p40461a489d)" d="M 304.011125 288.430125 
L 305.035125 288.430125 
L 305.035125 253.917709 
L 304.011125 253.917709 
z
" style="fill:#1f77b4;"/>
   </g>
   <g id="patch_205">
    <path clip-path="url(#p40461a489d)" d="M 305.291125 288.430125 
L 306.315125 288.430125 
L 306.315125 253.997997 
L 305.291125 253.997997 
z
" style="fill:#1f77b4;"/>
   </g>
   <g id="patch_206">
    <path clip-path="url(#p40461a489d)" d="M 306.571125 288.430125 
L 307.595125 288.430125 
L 307.595125 254.225347 
L 306.571125 254.225347 
z
" style="fill:#1f77b4;"/>
   </g>
   <g id="patch_207">
    <path clip-path="url(#p40461a489d)" d="M 307.851125 288.430125 
L 308.875125 288.430125 
L 308.875125 254.292968 
L 307.851125 254.292968 
z
" style="fill:#1f77b4;"/>
   </g>
   <g id="patch_208">
    <path clip-path="url(#p40461a489d)" d="M 309.131125 288.430125 
L 310.155125 288.430125 
L 310.155125 254.449714 
L 309.131125 254.449714 
z
" style="fill:#1f77b4;"/>
   </g>
   <g id="patch_209">
    <path clip-path="url(#p40461a489d)" d="M 310.411125 288.430125 
L 311.435125 288.430125 
L 311.435125 254.649143 
L 310.411125 254.649143 
z
" style="fill:#1f77b4;"/>
   </g>
   <g id="patch_210">
    <path clip-path="url(#p40461a489d)" d="M 311.691125 288.430125 
L 312.715125 288.430125 
L 312.715125 254.758928 
L 311.691125 254.758928 
z
" style="fill:#1f77b4;"/>
   </g>
   <g id="patch_211">
    <path clip-path="url(#p40461a489d)" d="M 312.971125 288.430125 
L 313.995125 288.430125 
L 313.995125 254.911435 
L 312.971125 254.911435 
z
" style="fill:#1f77b4;"/>
   </g>
   <g id="patch_212">
    <path clip-path="url(#p40461a489d)" d="M 314.251125 288.430125 
L 315.275125 288.430125 
L 315.275125 255.084045 
L 314.251125 255.084045 
z
" style="fill:#1f77b4;"/>
   </g>
   <g id="patch_213">
    <path clip-path="url(#p40461a489d)" d="M 315.531125 288.430125 
L 316.555125 288.430125 
L 316.555125 255.151928 
L 315.531125 255.151928 
z
" style="fill:#1f77b4;"/>
   </g>
   <g id="patch_214">
    <path clip-path="url(#p40461a489d)" d="M 316.811125 288.430125 
L 317.835125 288.430125 
L 317.835125 255.279268 
L 316.811125 255.279268 
z
" style="fill:#1f77b4;"/>
   </g>
   <g id="patch_215">
    <path clip-path="url(#p40461a489d)" d="M 318.091125 288.430125 
L 319.115125 288.430125 
L 319.115125 255.416124 
L 318.091125 255.416124 
z
" style="fill:#1f77b4;"/>
   </g>
   <g id="patch_216">
    <path clip-path="url(#p40461a489d)" d="M 319.371125 288.430125 
L 320.395125 288.430125 
L 320.395125 255.416124 
L 319.371125 255.416124 
z
" style="fill:#1f77b4;"/>
   </g>
   <g id="patch_217">
    <path clip-path="url(#p40461a489d)" d="M 320.651125 288.430125 
L 321.675125 288.430125 
L 321.675125 255.655507 
L 320.651125 255.655507 
z
" style="fill:#1f77b4;"/>
   </g>
   <g id="patch_218">
    <path clip-path="url(#p40461a489d)" d="M 321.931125 288.430125 
L 322.955125 288.430125 
L 322.955125 255.840442 
L 321.931125 255.840442 
z
" style="fill:#1f77b4;"/>
   </g>
   <g id="patch_219">
    <path clip-path="url(#p40461a489d)" d="M 323.211125 288.430125 
L 324.235125 288.430125 
L 324.235125 255.982844 
L 323.211125 255.982844 
z
" style="fill:#1f77b4;"/>
   </g>
   <g id="patch_220">
    <path clip-path="url(#p40461a489d)" d="M 324.491125 288.430125 
L 325.515125 288.430125 
L 325.515125 256.063659 
L 324.491125 256.063659 
z
" style="fill:#1f77b4;"/>
   </g>
   <g id="patch_221">
    <path clip-path="url(#p40461a489d)" d="M 325.771125 288.430125 
L 326.795125 288.430125 
L 326.795125 255.973403 
L 325.771125 255.973403 
z
" style="fill:#1f77b4;"/>
   </g>
   <g id="patch_222">
    <path clip-path="url(#p40461a489d)" d="M 327.051125 288.430125 
L 328.075125 288.430125 
L 328.075125 256.013747 
L 327.051125 256.013747 
z
" style="fill:#1f77b4;"/>
   </g>
   <g id="patch_223">
    <path clip-path="url(#p40461a489d)" d="M 328.331125 288.430125 
L 329.355125 288.430125 
L 329.355125 255.833745 
L 328.331125 255.833745 
z
" style="fill:#1f77b4;"/>
   </g>
   <g id="patch_224">
    <path clip-path="url(#p40461a489d)" d="M 329.611125 288.430125 
L 330.635125 288.430125 
L 330.635125 255.924543 
L 329.611125 255.924543 
z
" style="fill:#1f77b4;"/>
   </g>
   <g id="patch_225">
    <path clip-path="url(#p40461a489d)" d="M 330.891125 288.430125 
L 331.915125 288.430125 
L 331.915125 255.974768 
L 330.891125 255.974768 
z
" style="fill:#1f77b4;"/>
   </g>
   <g id="patch_226">
    <path clip-path="url(#p40461a489d)" d="M 332.171125 288.430125 
L 333.195125 288.430125 
L 333.195125 256.004828 
L 332.171125 256.004828 
z
" style="fill:#1f77b4;"/>
   </g>
   <g id="patch_227">
    <path clip-path="url(#p40461a489d)" d="M 333.451125 288.430125 
L 334.475125 288.430125 
L 334.475125 256.084718 
L 333.451125 256.084718 
z
" style="fill:#1f77b4;"/>
   </g>
   <g id="patch_228">
    <path clip-path="url(#p40461a489d)" d="M 334.731125 288.430125 
L 335.755125 288.430125 
L 335.755125 255.82718 
L 334.731125 255.82718 
z
" style="fill:#1f77b4;"/>
   </g>
   <g id="patch_229">
    <path clip-path="url(#p40461a489d)" d="M 336.011125 288.430125 
L 337.035125 288.430125 
L 337.035125 255.768327 
L 336.011125 255.768327 
z
" style="fill:#1f77b4;"/>
   </g>
   <g id="patch_230">
    <path clip-path="url(#p40461a489d)" d="M 337.291125 288.430125 
L 338.315125 288.430125 
L 338.315125 255.403773 
L 337.291125 255.403773 
z
" style="fill:#1f77b4;"/>
   </g>
   <g id="patch_231">
    <path clip-path="url(#p40461a489d)" d="M 338.571125 288.430125 
L 339.595125 288.430125 
L 339.595125 255.20684 
L 338.571125 255.20684 
z
" style="fill:#1f77b4;"/>
   </g>
   <g id="patch_232">
    <path clip-path="url(#p40461a489d)" d="M 339.851125 288.430125 
L 340.875125 288.430125 
L 340.875125 255.050978 
L 339.851125 255.050978 
z
" style="fill:#1f77b4;"/>
   </g>
   <g id="patch_233">
    <path clip-path="url(#p40461a489d)" d="M 341.131125 288.430125 
L 342.155125 288.430125 
L 342.155125 254.699902 
L 341.131125 254.699902 
z
" style="fill:#1f77b4;"/>
   </g>
   <g id="patch_234">
    <path clip-path="url(#p40461a489d)" d="M 342.411125 288.430125 
L 343.435125 288.430125 
L 343.435125 254.406673 
L 342.411125 254.406673 
z
" style="fill:#1f77b4;"/>
   </g>
   <g id="patch_235">
    <path clip-path="url(#p40461a489d)" d="M 343.691125 288.430125 
L 344.715125 288.430125 
L 344.715125 254.058335 
L 343.691125 254.058335 
z
" style="fill:#1f77b4;"/>
   </g>
   <g id="patch_236">
    <path clip-path="url(#p40461a489d)" d="M 344.971125 288.430125 
L 345.995125 288.430125 
L 345.995125 253.98197 
L 344.971125 253.98197 
z
" style="fill:#1f77b4;"/>
   </g>
   <g id="patch_237">
    <path clip-path="url(#p40461a489d)" d="M 346.251125 288.430125 
L 347.275125 288.430125 
L 347.275125 253.819173 
L 346.251125 253.819173 
z
" style="fill:#1f77b4;"/>
   </g>
   <g id="patch_238">
    <path clip-path="url(#p40461a489d)" d="M 347.531125 288.430125 
L 348.555125 288.430125 
L 348.555125 253.495055 
L 347.531125 253.495055 
z
" style="fill:#1f77b4;"/>
   </g>
   <g id="patch_239">
    <path clip-path="url(#p40461a489d)" d="M 348.811125 288.430125 
L 349.835125 288.430125 
L 349.835125 262.559758 
L 348.811125 262.559758 
z
" style="fill:#1f77b4;"/>
   </g>
   <g id="patch_240">
    <path clip-path="url(#p40461a489d)" d="M 350.091125 288.430125 
L 351.115125 288.430125 
L 351.115125 263.851915 
L 350.091125 263.851915 
z
" style="fill:#1f77b4;"/>
   </g>
   <g id="patch_241">
    <path clip-path="url(#p40461a489d)" d="M 351.371125 288.430125 
L 352.395125 288.430125 
L 352.395125 264.886195 
L 351.371125 264.886195 
z
" style="fill:#1f77b4;"/>
   </g>
   <g id="patch_242">
    <path clip-path="url(#p40461a489d)" d="M 352.651125 288.430125 
L 353.675125 288.430125 
L 353.675125 265.311802 
L 352.651125 265.311802 
z
" style="fill:#1f77b4;"/>
   </g>
   <g id="patch_243">
    <path clip-path="url(#p40461a489d)" d="M 353.931125 288.430125 
L 354.955125 288.430125 
L 354.955125 265.521879 
L 353.931125 265.521879 
z
" style="fill:#1f77b4;"/>
   </g>
   <g id="patch_244">
    <path clip-path="url(#p40461a489d)" d="M 355.211125 288.430125 
L 356.235125 288.430125 
L 356.235125 265.622794 
L 355.211125 265.622794 
z
" style="fill:#1f77b4;"/>
   </g>
   <g id="patch_245">
    <path clip-path="url(#p40461a489d)" d="M 356.491125 288.430125 
L 357.515125 288.430125 
L 357.515125 266.587008 
L 356.491125 266.587008 
z
" style="fill:#1f77b4;"/>
   </g>
   <g id="patch_246">
    <path clip-path="url(#p40461a489d)" d="M 357.771125 288.430125 
L 358.795125 288.430125 
L 358.795125 267.265662 
L 357.771125 267.265662 
z
" style="fill:#1f77b4;"/>
   </g>
   <g id="patch_247">
    <path clip-path="url(#p40461a489d)" d="M 359.051125 288.430125 
L 360.075125 288.430125 
L 360.075125 268.101287 
L 359.051125 268.101287 
z
" style="fill:#1f77b4;"/>
   </g>
   <g id="patch_248">
    <path clip-path="url(#p40461a489d)" d="M 360.331125 288.430125 
L 361.355125 288.430125 
L 361.355125 268.290826 
L 360.331125 268.290826 
z
" style="fill:#1f77b4;"/>
   </g>
   <g id="patch_249">
    <path clip-path="url(#p40461a489d)" d="M 361.611125 288.430125 
L 362.635125 288.430125 
L 362.635125 268.685624 
L 361.611125 268.685624 
z
" style="fill:#1f77b4;"/>
   </g>
   <g id="patch_250">
    <path clip-path="url(#p40461a489d)" d="M 362.891125 288.430125 
L 363.915125 288.430125 
L 363.915125 268.587652 
L 362.891125 268.587652 
z
" style="fill:#1f77b4;"/>
   </g>
   <g id="patch_251">
    <path clip-path="url(#p40461a489d)" d="M 364.171125 288.430125 
L 365.195125 288.430125 
L 365.195125 269.057463 
L 364.171125 269.057463 
z
" style="fill:#1f77b4;"/>
   </g>
   <g id="patch_252">
    <path clip-path="url(#p40461a489d)" d="M 365.451125 288.430125 
L 366.475125 288.430125 
L 366.475125 269.42445 
L 365.451125 269.42445 
z
" style="fill:#1f77b4;"/>
   </g>
   <g id="patch_253">
    <path clip-path="url(#p40461a489d)" d="M 366.731125 288.430125 
L 367.755125 288.430125 
L 367.755125 270.042031 
L 366.731125 270.042031 
z
" style="fill:#1f77b4;"/>
   </g>
   <g id="patch_254">
    <path clip-path="url(#p40461a489d)" d="M 368.011125 288.430125 
L 369.035125 288.430125 
L 369.035125 270.195977 
L 368.011125 270.195977 
z
" style="fill:#1f77b4;"/>
   </g>
   <g id="patch_255">
    <path clip-path="url(#p40461a489d)" d="M 369.291125 288.430125 
L 370.315125 288.430125 
L 370.315125 271.052441 
L 369.291125 271.052441 
z
" style="fill:#1f77b4;"/>
   </g>
   <g id="patch_256">
    <path clip-path="url(#p40461a489d)" d="M 370.571125 288.430125 
L 371.595125 288.430125 
L 371.595125 271.347059 
L 370.571125 271.347059 
z
" style="fill:#1f77b4;"/>
   </g>
   <g id="patch_257">
    <path clip-path="url(#p40461a489d)" d="M 371.851125 288.430125 
L 372.875125 288.430125 
L 372.875125 270.981325 
L 371.851125 270.981325 
z
" style="fill:#1f77b4;"/>
   </g>
   <g id="patch_258">
    <path clip-path="url(#p40461a489d)" d="M 373.131125 288.430125 
L 374.155125 288.430125 
L 374.155125 271.375944 
L 373.131125 271.375944 
z
" style="fill:#1f77b4;"/>
   </g>
   <g id="patch_259">
    <path clip-path="url(#p40461a489d)" d="M 374.411125 288.430125 
L 375.435125 288.430125 
L 375.435125 271.712422 
L 374.411125 271.712422 
z
" style="fill:#1f77b4;"/>
   </g>
   <g id="patch_260">
    <path clip-path="url(#p40461a489d)" d="M 375.691125 288.430125 
L 376.715125 288.430125 
L 376.715125 271.927055 
L 375.691125 271.927055 
z
" style="fill:#1f77b4;"/>
   </g>
   <g id="patch_261">
    <path clip-path="url(#p40461a489d)" d="M 376.971125 288.430125 
L 377.995125 288.430125 
L 377.995125 272.431438 
L 376.971125 272.431438 
z
" style="fill:#1f77b4;"/>
   </g>
   <g id="patch_262">
    <path clip-path="url(#p40461a489d)" d="M 378.251125 288.430125 
L 379.275125 288.430125 
L 379.275125 273.087669 
L 378.251125 273.087669 
z
" style="fill:#1f77b4;"/>
   </g>
   <g id="patch_263">
    <path clip-path="url(#p40461a489d)" d="M 379.531125 288.430125 
L 380.555125 288.430125 
L 380.555125 273.303084 
L 379.531125 273.303084 
z
" style="fill:#1f77b4;"/>
   </g>
   <g id="patch_264">
    <path clip-path="url(#p40461a489d)" d="M 380.811125 288.430125 
L 381.835125 288.430125 
L 381.835125 273.332172 
L 380.811125 273.332172 
z
" style="fill:#1f77b4;"/>
   </g>
   <g id="patch_265">
    <path clip-path="url(#p40461a489d)" d="M 382.091125 288.430125 
L 383.115125 288.430125 
L 383.115125 273.47482 
L 382.091125 273.47482 
z
" style="fill:#1f77b4;"/>
   </g>
   <g id="patch_266">
    <path clip-path="url(#p40461a489d)" d="M 383.371125 288.430125 
L 384.395125 288.430125 
L 384.395125 273.59628 
L 383.371125 273.59628 
z
" style="fill:#1f77b4;"/>
   </g>
   <g id="patch_267">
    <path clip-path="url(#p40461a489d)" d="M 384.651125 288.430125 
L 385.675125 288.430125 
L 385.675125 273.651536 
L 384.651125 273.651536 
z
" style="fill:#1f77b4;"/>
   </g>
   <g id="patch_268">
    <path clip-path="url(#p40461a489d)" d="M 385.931125 288.430125 
L 386.955125 288.430125 
L 386.955125 273.934392 
L 385.931125 273.934392 
z
" style="fill:#1f77b4;"/>
   </g>
   <g id="patch_269">
    <path clip-path="url(#p40461a489d)" d="M 387.211125 288.430125 
L 388.235125 288.430125 
L 388.235125 274.227656 
L 387.211125 274.227656 
z
" style="fill:#1f77b4;"/>
   </g>
   <g id="patch_270">
    <path clip-path="url(#p40461a489d)" d="M 388.491125 288.430125 
L 389.515125 288.430125 
L 389.515125 274.221888 
L 388.491125 274.221888 
z
" style="fill:#1f77b4;"/>
   </g>
   <g id="patch_271">
    <path clip-path="url(#p40461a489d)" d="M 389.771125 288.430125 
L 390.795125 288.430125 
L 390.795125 274.065301 
L 389.771125 274.065301 
z
" style="fill:#1f77b4;"/>
   </g>
   <g id="patch_272">
    <path clip-path="url(#p40461a489d)" d="M 391.051125 288.430125 
L 392.075125 288.430125 
L 392.075125 274.049875 
L 391.051125 274.049875 
z
" style="fill:#1f77b4;"/>
   </g>
   <g id="patch_273">
    <path clip-path="url(#p40461a489d)" d="M 392.331125 288.430125 
L 393.355125 288.430125 
L 393.355125 274.246755 
L 392.331125 274.246755 
z
" style="fill:#1f77b4;"/>
   </g>
   <g id="patch_274">
    <path clip-path="url(#p40461a489d)" d="M 393.611125 288.430125 
L 394.635125 288.430125 
L 394.635125 274.153048 
L 393.611125 274.153048 
z
" style="fill:#1f77b4;"/>
   </g>
   <g id="patch_275">
    <path clip-path="url(#p40461a489d)" d="M 394.891125 288.430125 
L 395.915125 288.430125 
L 395.915125 274.291897 
L 394.891125 274.291897 
z
" style="fill:#1f77b4;"/>
   </g>
   <g id="patch_276">
    <path clip-path="url(#p40461a489d)" d="M 396.171125 288.430125 
L 397.195125 288.430125 
L 397.195125 274.443557 
L 396.171125 274.443557 
z
" style="fill:#1f77b4;"/>
   </g>
   <g id="patch_277">
    <path clip-path="url(#p40461a489d)" d="M 397.451125 288.430125 
L 398.475125 288.430125 
L 398.475125 274.292549 
L 397.451125 274.292549 
z
" style="fill:#1f77b4;"/>
   </g>
   <g id="patch_278">
    <path clip-path="url(#p40461a489d)" d="M 398.731125 288.430125 
L 399.755125 288.430125 
L 399.755125 274.137414 
L 398.731125 274.137414 
z
" style="fill:#1f77b4;"/>
   </g>
   <g id="patch_279">
    <path clip-path="url(#p40461a489d)" d="M 400.011125 288.430125 
L 401.035125 288.430125 
L 401.035125 274.127 
L 400.011125 274.127 
z
" style="fill:#1f77b4;"/>
   </g>
   <g id="patch_280">
    <path clip-path="url(#p40461a489d)" d="M 401.291125 288.430125 
L 402.315125 288.430125 
L 402.315125 274.216365 
L 401.291125 274.216365 
z
" style="fill:#1f77b4;"/>
   </g>
   <g id="patch_281">
    <path clip-path="url(#p40461a489d)" d="M 402.571125 288.430125 
L 403.595125 288.430125 
L 403.595125 274.094765 
L 402.571125 274.094765 
z
" style="fill:#1f77b4;"/>
   </g>
   <g id="matplotlib.axis_1">
    <g id="xtick_1">
     <g id="line2d_1">
      <defs>
       <path d="M 0 0 
L 0 3.5 
" id="mbc7ff696ce" style="stroke:#000000;stroke-width:0.8;"/>
      </defs>
      <g>
       <use style="stroke:#000000;stroke-width:0.8;" x="69.003125" xlink:href="#mbc7ff696ce" y="288.430125"/>
      </g>
     </g>
     <g id="text_1">
      <!-- 2020-04 -->
      <g transform="translate(71.7625 337.212937)rotate(-90)scale(0.1 -0.1)">
       <defs>
        <path d="M 19.1875 8.296875 
L 53.609375 8.296875 
L 53.609375 0 
L 7.328125 0 
L 7.328125 8.296875 
Q 12.9375 14.109375 22.625 23.890625 
Q 32.328125 33.6875 34.8125 36.53125 
Q 39.546875 41.84375 41.421875 45.53125 
Q 43.3125 49.21875 43.3125 52.78125 
Q 43.3125 58.59375 39.234375 62.25 
Q 35.15625 65.921875 28.609375 65.921875 
Q 23.96875 65.921875 18.8125 64.3125 
Q 13.671875 62.703125 7.8125 59.421875 
L 7.8125 69.390625 
Q 13.765625 71.78125 18.9375 73 
Q 24.125 74.21875 28.421875 74.21875 
Q 39.75 74.21875 46.484375 68.546875 
Q 53.21875 62.890625 53.21875 53.421875 
Q 53.21875 48.921875 51.53125 44.890625 
Q 49.859375 40.875 45.40625 35.40625 
Q 44.1875 33.984375 37.640625 27.21875 
Q 31.109375 20.453125 19.1875 8.296875 
z
" id="DejaVuSans-50"/>
        <path d="M 31.78125 66.40625 
Q 24.171875 66.40625 20.328125 58.90625 
Q 16.5 51.421875 16.5 36.375 
Q 16.5 21.390625 20.328125 13.890625 
Q 24.171875 6.390625 31.78125 6.390625 
Q 39.453125 6.390625 43.28125 13.890625 
Q 47.125 21.390625 47.125 36.375 
Q 47.125 51.421875 43.28125 58.90625 
Q 39.453125 66.40625 31.78125 66.40625 
z
M 31.78125 74.21875 
Q 44.046875 74.21875 50.515625 64.515625 
Q 56.984375 54.828125 56.984375 36.375 
Q 56.984375 17.96875 50.515625 8.265625 
Q 44.046875 -1.421875 31.78125 -1.421875 
Q 19.53125 -1.421875 13.0625 8.265625 
Q 6.59375 17.96875 6.59375 36.375 
Q 6.59375 54.828125 13.0625 64.515625 
Q 19.53125 74.21875 31.78125 74.21875 
z
" id="DejaVuSans-48"/>
        <path d="M 4.890625 31.390625 
L 31.203125 31.390625 
L 31.203125 23.390625 
L 4.890625 23.390625 
z
" id="DejaVuSans-45"/>
        <path d="M 37.796875 64.3125 
L 12.890625 25.390625 
L 37.796875 25.390625 
z
M 35.203125 72.90625 
L 47.609375 72.90625 
L 47.609375 25.390625 
L 58.015625 25.390625 
L 58.015625 17.1875 
L 47.609375 17.1875 
L 47.609375 0 
L 37.796875 0 
L 37.796875 17.1875 
L 4.890625 17.1875 
L 4.890625 26.703125 
z
" id="DejaVuSans-52"/>
       </defs>
       <use xlink:href="#DejaVuSans-50"/>
       <use x="63.623047" xlink:href="#DejaVuSans-48"/>
       <use x="127.246094" xlink:href="#DejaVuSans-50"/>
       <use x="190.869141" xlink:href="#DejaVuSans-48"/>
       <use x="254.492188" xlink:href="#DejaVuSans-45"/>
       <use x="290.576172" xlink:href="#DejaVuSans-48"/>
       <use x="354.199219" xlink:href="#DejaVuSans-52"/>
      </g>
     </g>
    </g>
    <g id="xtick_2">
     <g id="line2d_2">
      <g>
       <use style="stroke:#000000;stroke-width:0.8;" x="107.403125" xlink:href="#mbc7ff696ce" y="288.430125"/>
      </g>
     </g>
     <g id="text_2">
      <!-- 2020-05 -->
      <g transform="translate(110.1625 337.212937)rotate(-90)scale(0.1 -0.1)">
       <defs>
        <path d="M 10.796875 72.90625 
L 49.515625 72.90625 
L 49.515625 64.59375 
L 19.828125 64.59375 
L 19.828125 46.734375 
Q 21.96875 47.46875 24.109375 47.828125 
Q 26.265625 48.1875 28.421875 48.1875 
Q 40.625 48.1875 47.75 41.5 
Q 54.890625 34.8125 54.890625 23.390625 
Q 54.890625 11.625 47.5625 5.09375 
Q 40.234375 -1.421875 26.90625 -1.421875 
Q 22.3125 -1.421875 17.546875 -0.640625 
Q 12.796875 0.140625 7.71875 1.703125 
L 7.71875 11.625 
Q 12.109375 9.234375 16.796875 8.0625 
Q 21.484375 6.890625 26.703125 6.890625 
Q 35.15625 6.890625 40.078125 11.328125 
Q 45.015625 15.765625 45.015625 23.390625 
Q 45.015625 31 40.078125 35.4375 
Q 35.15625 39.890625 26.703125 39.890625 
Q 22.75 39.890625 18.8125 39.015625 
Q 14.890625 38.140625 10.796875 36.28125 
z
" id="DejaVuSans-53"/>
       </defs>
       <use xlink:href="#DejaVuSans-50"/>
       <use x="63.623047" xlink:href="#DejaVuSans-48"/>
       <use x="127.246094" xlink:href="#DejaVuSans-50"/>
       <use x="190.869141" xlink:href="#DejaVuSans-48"/>
       <use x="254.492188" xlink:href="#DejaVuSans-45"/>
       <use x="290.576172" xlink:href="#DejaVuSans-48"/>
       <use x="354.199219" xlink:href="#DejaVuSans-53"/>
      </g>
     </g>
    </g>
    <g id="xtick_3">
     <g id="line2d_3">
      <g>
       <use style="stroke:#000000;stroke-width:0.8;" x="147.083125" xlink:href="#mbc7ff696ce" y="288.430125"/>
      </g>
     </g>
     <g id="text_3">
      <!-- 2020-06 -->
      <g transform="translate(149.8425 337.212937)rotate(-90)scale(0.1 -0.1)">
       <defs>
        <path d="M 33.015625 40.375 
Q 26.375 40.375 22.484375 35.828125 
Q 18.609375 31.296875 18.609375 23.390625 
Q 18.609375 15.53125 22.484375 10.953125 
Q 26.375 6.390625 33.015625 6.390625 
Q 39.65625 6.390625 43.53125 10.953125 
Q 47.40625 15.53125 47.40625 23.390625 
Q 47.40625 31.296875 43.53125 35.828125 
Q 39.65625 40.375 33.015625 40.375 
z
M 52.59375 71.296875 
L 52.59375 62.3125 
Q 48.875 64.0625 45.09375 64.984375 
Q 41.3125 65.921875 37.59375 65.921875 
Q 27.828125 65.921875 22.671875 59.328125 
Q 17.53125 52.734375 16.796875 39.40625 
Q 19.671875 43.65625 24.015625 45.921875 
Q 28.375 48.1875 33.59375 48.1875 
Q 44.578125 48.1875 50.953125 41.515625 
Q 57.328125 34.859375 57.328125 23.390625 
Q 57.328125 12.15625 50.6875 5.359375 
Q 44.046875 -1.421875 33.015625 -1.421875 
Q 20.359375 -1.421875 13.671875 8.265625 
Q 6.984375 17.96875 6.984375 36.375 
Q 6.984375 53.65625 15.1875 63.9375 
Q 23.390625 74.21875 37.203125 74.21875 
Q 40.921875 74.21875 44.703125 73.484375 
Q 48.484375 72.75 52.59375 71.296875 
z
" id="DejaVuSans-54"/>
       </defs>
       <use xlink:href="#DejaVuSans-50"/>
       <use x="63.623047" xlink:href="#DejaVuSans-48"/>
       <use x="127.246094" xlink:href="#DejaVuSans-50"/>
       <use x="190.869141" xlink:href="#DejaVuSans-48"/>
       <use x="254.492188" xlink:href="#DejaVuSans-45"/>
       <use x="290.576172" xlink:href="#DejaVuSans-48"/>
       <use x="354.199219" xlink:href="#DejaVuSans-54"/>
      </g>
     </g>
    </g>
    <g id="xtick_4">
     <g id="line2d_4">
      <g>
       <use style="stroke:#000000;stroke-width:0.8;" x="185.483125" xlink:href="#mbc7ff696ce" y="288.430125"/>
      </g>
     </g>
     <g id="text_4">
      <!-- 2020-07 -->
      <g transform="translate(188.2425 337.212937)rotate(-90)scale(0.1 -0.1)">
       <defs>
        <path d="M 8.203125 72.90625 
L 55.078125 72.90625 
L 55.078125 68.703125 
L 28.609375 0 
L 18.3125 0 
L 43.21875 64.59375 
L 8.203125 64.59375 
z
" id="DejaVuSans-55"/>
       </defs>
       <use xlink:href="#DejaVuSans-50"/>
       <use x="63.623047" xlink:href="#DejaVuSans-48"/>
       <use x="127.246094" xlink:href="#DejaVuSans-50"/>
       <use x="190.869141" xlink:href="#DejaVuSans-48"/>
       <use x="254.492188" xlink:href="#DejaVuSans-45"/>
       <use x="290.576172" xlink:href="#DejaVuSans-48"/>
       <use x="354.199219" xlink:href="#DejaVuSans-55"/>
      </g>
     </g>
    </g>
    <g id="xtick_5">
     <g id="line2d_5">
      <g>
       <use style="stroke:#000000;stroke-width:0.8;" x="225.163125" xlink:href="#mbc7ff696ce" y="288.430125"/>
      </g>
     </g>
     <g id="text_5">
      <!-- 2020-08 -->
      <g transform="translate(227.9225 337.212937)rotate(-90)scale(0.1 -0.1)">
       <defs>
        <path d="M 31.78125 34.625 
Q 24.75 34.625 20.71875 30.859375 
Q 16.703125 27.09375 16.703125 20.515625 
Q 16.703125 13.921875 20.71875 10.15625 
Q 24.75 6.390625 31.78125 6.390625 
Q 38.8125 6.390625 42.859375 10.171875 
Q 46.921875 13.96875 46.921875 20.515625 
Q 46.921875 27.09375 42.890625 30.859375 
Q 38.875 34.625 31.78125 34.625 
z
M 21.921875 38.8125 
Q 15.578125 40.375 12.03125 44.71875 
Q 8.5 49.078125 8.5 55.328125 
Q 8.5 64.0625 14.71875 69.140625 
Q 20.953125 74.21875 31.78125 74.21875 
Q 42.671875 74.21875 48.875 69.140625 
Q 55.078125 64.0625 55.078125 55.328125 
Q 55.078125 49.078125 51.53125 44.71875 
Q 48 40.375 41.703125 38.8125 
Q 48.828125 37.15625 52.796875 32.3125 
Q 56.78125 27.484375 56.78125 20.515625 
Q 56.78125 9.90625 50.3125 4.234375 
Q 43.84375 -1.421875 31.78125 -1.421875 
Q 19.734375 -1.421875 13.25 4.234375 
Q 6.78125 9.90625 6.78125 20.515625 
Q 6.78125 27.484375 10.78125 32.3125 
Q 14.796875 37.15625 21.921875 38.8125 
z
M 18.3125 54.390625 
Q 18.3125 48.734375 21.84375 45.5625 
Q 25.390625 42.390625 31.78125 42.390625 
Q 38.140625 42.390625 41.71875 45.5625 
Q 45.3125 48.734375 45.3125 54.390625 
Q 45.3125 60.0625 41.71875 63.234375 
Q 38.140625 66.40625 31.78125 66.40625 
Q 25.390625 66.40625 21.84375 63.234375 
Q 18.3125 60.0625 18.3125 54.390625 
z
" id="DejaVuSans-56"/>
       </defs>
       <use xlink:href="#DejaVuSans-50"/>
       <use x="63.623047" xlink:href="#DejaVuSans-48"/>
       <use x="127.246094" xlink:href="#DejaVuSans-50"/>
       <use x="190.869141" xlink:href="#DejaVuSans-48"/>
       <use x="254.492188" xlink:href="#DejaVuSans-45"/>
       <use x="290.576172" xlink:href="#DejaVuSans-48"/>
       <use x="354.199219" xlink:href="#DejaVuSans-56"/>
      </g>
     </g>
    </g>
    <g id="xtick_6">
     <g id="line2d_6">
      <g>
       <use style="stroke:#000000;stroke-width:0.8;" x="264.843125" xlink:href="#mbc7ff696ce" y="288.430125"/>
      </g>
     </g>
     <g id="text_6">
      <!-- 2020-09 -->
      <g transform="translate(267.6025 337.212937)rotate(-90)scale(0.1 -0.1)">
       <defs>
        <path d="M 10.984375 1.515625 
L 10.984375 10.5 
Q 14.703125 8.734375 18.5 7.8125 
Q 22.3125 6.890625 25.984375 6.890625 
Q 35.75 6.890625 40.890625 13.453125 
Q 46.046875 20.015625 46.78125 33.40625 
Q 43.953125 29.203125 39.59375 26.953125 
Q 35.25 24.703125 29.984375 24.703125 
Q 19.046875 24.703125 12.671875 31.3125 
Q 6.296875 37.9375 6.296875 49.421875 
Q 6.296875 60.640625 12.9375 67.421875 
Q 19.578125 74.21875 30.609375 74.21875 
Q 43.265625 74.21875 49.921875 64.515625 
Q 56.59375 54.828125 56.59375 36.375 
Q 56.59375 19.140625 48.40625 8.859375 
Q 40.234375 -1.421875 26.421875 -1.421875 
Q 22.703125 -1.421875 18.890625 -0.6875 
Q 15.09375 0.046875 10.984375 1.515625 
z
M 30.609375 32.421875 
Q 37.25 32.421875 41.125 36.953125 
Q 45.015625 41.5 45.015625 49.421875 
Q 45.015625 57.28125 41.125 61.84375 
Q 37.25 66.40625 30.609375 66.40625 
Q 23.96875 66.40625 20.09375 61.84375 
Q 16.21875 57.28125 16.21875 49.421875 
Q 16.21875 41.5 20.09375 36.953125 
Q 23.96875 32.421875 30.609375 32.421875 
z
" id="DejaVuSans-57"/>
       </defs>
       <use xlink:href="#DejaVuSans-50"/>
       <use x="63.623047" xlink:href="#DejaVuSans-48"/>
       <use x="127.246094" xlink:href="#DejaVuSans-50"/>
       <use x="190.869141" xlink:href="#DejaVuSans-48"/>
       <use x="254.492188" xlink:href="#DejaVuSans-45"/>
       <use x="290.576172" xlink:href="#DejaVuSans-48"/>
       <use x="354.199219" xlink:href="#DejaVuSans-57"/>
      </g>
     </g>
    </g>
    <g id="xtick_7">
     <g id="line2d_7">
      <g>
       <use style="stroke:#000000;stroke-width:0.8;" x="303.243125" xlink:href="#mbc7ff696ce" y="288.430125"/>
      </g>
     </g>
     <g id="text_7">
      <!-- 2020-10 -->
      <g transform="translate(306.0025 337.212937)rotate(-90)scale(0.1 -0.1)">
       <defs>
        <path d="M 12.40625 8.296875 
L 28.515625 8.296875 
L 28.515625 63.921875 
L 10.984375 60.40625 
L 10.984375 69.390625 
L 28.421875 72.90625 
L 38.28125 72.90625 
L 38.28125 8.296875 
L 54.390625 8.296875 
L 54.390625 0 
L 12.40625 0 
z
" id="DejaVuSans-49"/>
       </defs>
       <use xlink:href="#DejaVuSans-50"/>
       <use x="63.623047" xlink:href="#DejaVuSans-48"/>
       <use x="127.246094" xlink:href="#DejaVuSans-50"/>
       <use x="190.869141" xlink:href="#DejaVuSans-48"/>
       <use x="254.492188" xlink:href="#DejaVuSans-45"/>
       <use x="290.576172" xlink:href="#DejaVuSans-49"/>
       <use x="354.199219" xlink:href="#DejaVuSans-48"/>
      </g>
     </g>
    </g>
    <g id="xtick_8">
     <g id="line2d_8">
      <g>
       <use style="stroke:#000000;stroke-width:0.8;" x="342.923125" xlink:href="#mbc7ff696ce" y="288.430125"/>
      </g>
     </g>
     <g id="text_8">
      <!-- 2020-11 -->
      <g transform="translate(345.6825 337.212937)rotate(-90)scale(0.1 -0.1)">
       <use xlink:href="#DejaVuSans-50"/>
       <use x="63.623047" xlink:href="#DejaVuSans-48"/>
       <use x="127.246094" xlink:href="#DejaVuSans-50"/>
       <use x="190.869141" xlink:href="#DejaVuSans-48"/>
       <use x="254.492188" xlink:href="#DejaVuSans-45"/>
       <use x="290.576172" xlink:href="#DejaVuSans-49"/>
       <use x="354.199219" xlink:href="#DejaVuSans-49"/>
      </g>
     </g>
    </g>
    <g id="xtick_9">
     <g id="line2d_9">
      <g>
       <use style="stroke:#000000;stroke-width:0.8;" x="381.323125" xlink:href="#mbc7ff696ce" y="288.430125"/>
      </g>
     </g>
     <g id="text_9">
      <!-- 2020-12 -->
      <g transform="translate(384.0825 337.212937)rotate(-90)scale(0.1 -0.1)">
       <use xlink:href="#DejaVuSans-50"/>
       <use x="63.623047" xlink:href="#DejaVuSans-48"/>
       <use x="127.246094" xlink:href="#DejaVuSans-50"/>
       <use x="190.869141" xlink:href="#DejaVuSans-48"/>
       <use x="254.492188" xlink:href="#DejaVuSans-45"/>
       <use x="290.576172" xlink:href="#DejaVuSans-49"/>
       <use x="354.199219" xlink:href="#DejaVuSans-50"/>
      </g>
     </g>
    </g>
    <g id="text_10">
     <!-- date -->
     <g transform="translate(213.888125 354.811375)scale(0.1 -0.1)">
      <defs>
       <path d="M 45.40625 46.390625 
L 45.40625 75.984375 
L 54.390625 75.984375 
L 54.390625 0 
L 45.40625 0 
L 45.40625 8.203125 
Q 42.578125 3.328125 38.25 0.953125 
Q 33.9375 -1.421875 27.875 -1.421875 
Q 17.96875 -1.421875 11.734375 6.484375 
Q 5.515625 14.40625 5.515625 27.296875 
Q 5.515625 40.1875 11.734375 48.09375 
Q 17.96875 56 27.875 56 
Q 33.9375 56 38.25 53.625 
Q 42.578125 51.265625 45.40625 46.390625 
z
M 14.796875 27.296875 
Q 14.796875 17.390625 18.875 11.75 
Q 22.953125 6.109375 30.078125 6.109375 
Q 37.203125 6.109375 41.296875 11.75 
Q 45.40625 17.390625 45.40625 27.296875 
Q 45.40625 37.203125 41.296875 42.84375 
Q 37.203125 48.484375 30.078125 48.484375 
Q 22.953125 48.484375 18.875 42.84375 
Q 14.796875 37.203125 14.796875 27.296875 
z
" id="DejaVuSans-100"/>
       <path d="M 34.28125 27.484375 
Q 23.390625 27.484375 19.1875 25 
Q 14.984375 22.515625 14.984375 16.5 
Q 14.984375 11.71875 18.140625 8.90625 
Q 21.296875 6.109375 26.703125 6.109375 
Q 34.1875 6.109375 38.703125 11.40625 
Q 43.21875 16.703125 43.21875 25.484375 
L 43.21875 27.484375 
z
M 52.203125 31.203125 
L 52.203125 0 
L 43.21875 0 
L 43.21875 8.296875 
Q 40.140625 3.328125 35.546875 0.953125 
Q 30.953125 -1.421875 24.3125 -1.421875 
Q 15.921875 -1.421875 10.953125 3.296875 
Q 6 8.015625 6 15.921875 
Q 6 25.140625 12.171875 29.828125 
Q 18.359375 34.515625 30.609375 34.515625 
L 43.21875 34.515625 
L 43.21875 35.40625 
Q 43.21875 41.609375 39.140625 45 
Q 35.0625 48.390625 27.6875 48.390625 
Q 23 48.390625 18.546875 47.265625 
Q 14.109375 46.140625 10.015625 43.890625 
L 10.015625 52.203125 
Q 14.9375 54.109375 19.578125 55.046875 
Q 24.21875 56 28.609375 56 
Q 40.484375 56 46.34375 49.84375 
Q 52.203125 43.703125 52.203125 31.203125 
z
" id="DejaVuSans-97"/>
       <path d="M 18.3125 70.21875 
L 18.3125 54.6875 
L 36.8125 54.6875 
L 36.8125 47.703125 
L 18.3125 47.703125 
L 18.3125 18.015625 
Q 18.3125 11.328125 20.140625 9.421875 
Q 21.96875 7.515625 27.59375 7.515625 
L 36.8125 7.515625 
L 36.8125 0 
L 27.59375 0 
Q 17.1875 0 13.234375 3.875 
Q 9.28125 7.765625 9.28125 18.015625 
L 9.28125 47.703125 
L 2.6875 47.703125 
L 2.6875 54.6875 
L 9.28125 54.6875 
L 9.28125 70.21875 
z
" id="DejaVuSans-116"/>
       <path d="M 56.203125 29.59375 
L 56.203125 25.203125 
L 14.890625 25.203125 
Q 15.484375 15.921875 20.484375 11.0625 
Q 25.484375 6.203125 34.421875 6.203125 
Q 39.59375 6.203125 44.453125 7.46875 
Q 49.3125 8.734375 54.109375 11.28125 
L 54.109375 2.78125 
Q 49.265625 0.734375 44.1875 -0.34375 
Q 39.109375 -1.421875 33.890625 -1.421875 
Q 20.796875 -1.421875 13.15625 6.1875 
Q 5.515625 13.8125 5.515625 26.8125 
Q 5.515625 40.234375 12.765625 48.109375 
Q 20.015625 56 32.328125 56 
Q 43.359375 56 49.78125 48.890625 
Q 56.203125 41.796875 56.203125 29.59375 
z
M 47.21875 32.234375 
Q 47.125 39.59375 43.09375 43.984375 
Q 39.0625 48.390625 32.421875 48.390625 
Q 24.90625 48.390625 20.390625 44.140625 
Q 15.875 39.890625 15.1875 32.171875 
z
" id="DejaVuSans-101"/>
      </defs>
      <use xlink:href="#DejaVuSans-100"/>
      <use x="63.476562" xlink:href="#DejaVuSans-97"/>
      <use x="124.755859" xlink:href="#DejaVuSans-116"/>
      <use x="163.964844" xlink:href="#DejaVuSans-101"/>
     </g>
    </g>
   </g>
   <g id="matplotlib.axis_2">
    <g id="ytick_1">
     <g id="line2d_10">
      <defs>
       <path d="M 0 0 
L -3.5 0 
" id="m1c3501d8ee" style="stroke:#000000;stroke-width:0.8;"/>
      </defs>
      <g>
       <use style="stroke:#000000;stroke-width:0.8;" x="46.603125" xlink:href="#m1c3501d8ee" y="288.430125"/>
      </g>
     </g>
     <g id="text_11">
      <!-- 0 -->
      <g transform="translate(33.240625 292.229344)scale(0.1 -0.1)">
       <use xlink:href="#DejaVuSans-48"/>
      </g>
     </g>
    </g>
    <g id="ytick_2">
     <g id="line2d_11">
      <g>
       <use style="stroke:#000000;stroke-width:0.8;" x="46.603125" xlink:href="#m1c3501d8ee" y="252.948525"/>
      </g>
     </g>
     <g id="text_12">
      <!-- 10 -->
      <g transform="translate(26.878125 256.747744)scale(0.1 -0.1)">
       <use xlink:href="#DejaVuSans-49"/>
       <use x="63.623047" xlink:href="#DejaVuSans-48"/>
      </g>
     </g>
    </g>
    <g id="ytick_3">
     <g id="line2d_12">
      <g>
       <use style="stroke:#000000;stroke-width:0.8;" x="46.603125" xlink:href="#m1c3501d8ee" y="217.466925"/>
      </g>
     </g>
     <g id="text_13">
      <!-- 20 -->
      <g transform="translate(26.878125 221.266144)scale(0.1 -0.1)">
       <use xlink:href="#DejaVuSans-50"/>
       <use x="63.623047" xlink:href="#DejaVuSans-48"/>
      </g>
     </g>
    </g>
    <g id="ytick_4">
     <g id="line2d_13">
      <g>
       <use style="stroke:#000000;stroke-width:0.8;" x="46.603125" xlink:href="#m1c3501d8ee" y="181.985325"/>
      </g>
     </g>
     <g id="text_14">
      <!-- 30 -->
      <g transform="translate(26.878125 185.784544)scale(0.1 -0.1)">
       <defs>
        <path d="M 40.578125 39.3125 
Q 47.65625 37.796875 51.625 33 
Q 55.609375 28.21875 55.609375 21.1875 
Q 55.609375 10.40625 48.1875 4.484375 
Q 40.765625 -1.421875 27.09375 -1.421875 
Q 22.515625 -1.421875 17.65625 -0.515625 
Q 12.796875 0.390625 7.625 2.203125 
L 7.625 11.71875 
Q 11.71875 9.328125 16.59375 8.109375 
Q 21.484375 6.890625 26.8125 6.890625 
Q 36.078125 6.890625 40.9375 10.546875 
Q 45.796875 14.203125 45.796875 21.1875 
Q 45.796875 27.640625 41.28125 31.265625 
Q 36.765625 34.90625 28.71875 34.90625 
L 20.21875 34.90625 
L 20.21875 43.015625 
L 29.109375 43.015625 
Q 36.375 43.015625 40.234375 45.921875 
Q 44.09375 48.828125 44.09375 54.296875 
Q 44.09375 59.90625 40.109375 62.90625 
Q 36.140625 65.921875 28.71875 65.921875 
Q 24.65625 65.921875 20.015625 65.03125 
Q 15.375 64.15625 9.8125 62.3125 
L 9.8125 71.09375 
Q 15.4375 72.65625 20.34375 73.4375 
Q 25.25 74.21875 29.59375 74.21875 
Q 40.828125 74.21875 47.359375 69.109375 
Q 53.90625 64.015625 53.90625 55.328125 
Q 53.90625 49.265625 50.4375 45.09375 
Q 46.96875 40.921875 40.578125 39.3125 
z
" id="DejaVuSans-51"/>
       </defs>
       <use xlink:href="#DejaVuSans-51"/>
       <use x="63.623047" xlink:href="#DejaVuSans-48"/>
      </g>
     </g>
    </g>
    <g id="ytick_5">
     <g id="line2d_14">
      <g>
       <use style="stroke:#000000;stroke-width:0.8;" x="46.603125" xlink:href="#m1c3501d8ee" y="146.503725"/>
      </g>
     </g>
     <g id="text_15">
      <!-- 40 -->
      <g transform="translate(26.878125 150.302944)scale(0.1 -0.1)">
       <use xlink:href="#DejaVuSans-52"/>
       <use x="63.623047" xlink:href="#DejaVuSans-48"/>
      </g>
     </g>
    </g>
    <g id="ytick_6">
     <g id="line2d_15">
      <g>
       <use style="stroke:#000000;stroke-width:0.8;" x="46.603125" xlink:href="#m1c3501d8ee" y="111.022125"/>
      </g>
     </g>
     <g id="text_16">
      <!-- 50 -->
      <g transform="translate(26.878125 114.821344)scale(0.1 -0.1)">
       <use xlink:href="#DejaVuSans-53"/>
       <use x="63.623047" xlink:href="#DejaVuSans-48"/>
      </g>
     </g>
    </g>
    <g id="ytick_7">
     <g id="line2d_16">
      <g>
       <use style="stroke:#000000;stroke-width:0.8;" x="46.603125" xlink:href="#m1c3501d8ee" y="75.540525"/>
      </g>
     </g>
     <g id="text_17">
      <!-- 60 -->
      <g transform="translate(26.878125 79.339744)scale(0.1 -0.1)">
       <use xlink:href="#DejaVuSans-54"/>
       <use x="63.623047" xlink:href="#DejaVuSans-48"/>
      </g>
     </g>
    </g>
    <g id="ytick_8">
     <g id="line2d_17">
      <g>
       <use style="stroke:#000000;stroke-width:0.8;" x="46.603125" xlink:href="#m1c3501d8ee" y="40.058925"/>
      </g>
     </g>
     <g id="text_18">
      <!-- 70 -->
      <g transform="translate(26.878125 43.858144)scale(0.1 -0.1)">
       <use xlink:href="#DejaVuSans-55"/>
       <use x="63.623047" xlink:href="#DejaVuSans-48"/>
      </g>
     </g>
    </g>
    <g id="text_19">
     <!-- case fatality rate [%] -->
     <g transform="translate(14.798438 207.990531)rotate(-90)scale(0.1 -0.1)">
      <defs>
       <path d="M 48.78125 52.59375 
L 48.78125 44.1875 
Q 44.96875 46.296875 41.140625 47.34375 
Q 37.3125 48.390625 33.40625 48.390625 
Q 24.65625 48.390625 19.8125 42.84375 
Q 14.984375 37.3125 14.984375 27.296875 
Q 14.984375 17.28125 19.8125 11.734375 
Q 24.65625 6.203125 33.40625 6.203125 
Q 37.3125 6.203125 41.140625 7.25 
Q 44.96875 8.296875 48.78125 10.40625 
L 48.78125 2.09375 
Q 45.015625 0.34375 40.984375 -0.53125 
Q 36.96875 -1.421875 32.421875 -1.421875 
Q 20.0625 -1.421875 12.78125 6.34375 
Q 5.515625 14.109375 5.515625 27.296875 
Q 5.515625 40.671875 12.859375 48.328125 
Q 20.21875 56 33.015625 56 
Q 37.15625 56 41.109375 55.140625 
Q 45.0625 54.296875 48.78125 52.59375 
z
" id="DejaVuSans-99"/>
       <path d="M 44.28125 53.078125 
L 44.28125 44.578125 
Q 40.484375 46.53125 36.375 47.5 
Q 32.28125 48.484375 27.875 48.484375 
Q 21.1875 48.484375 17.84375 46.4375 
Q 14.5 44.390625 14.5 40.28125 
Q 14.5 37.15625 16.890625 35.375 
Q 19.28125 33.59375 26.515625 31.984375 
L 29.59375 31.296875 
Q 39.15625 29.25 43.1875 25.515625 
Q 47.21875 21.78125 47.21875 15.09375 
Q 47.21875 7.46875 41.1875 3.015625 
Q 35.15625 -1.421875 24.609375 -1.421875 
Q 20.21875 -1.421875 15.453125 -0.5625 
Q 10.6875 0.296875 5.421875 2 
L 5.421875 11.28125 
Q 10.40625 8.6875 15.234375 7.390625 
Q 20.0625 6.109375 24.8125 6.109375 
Q 31.15625 6.109375 34.5625 8.28125 
Q 37.984375 10.453125 37.984375 14.40625 
Q 37.984375 18.0625 35.515625 20.015625 
Q 33.0625 21.96875 24.703125 23.78125 
L 21.578125 24.515625 
Q 13.234375 26.265625 9.515625 29.90625 
Q 5.8125 33.546875 5.8125 39.890625 
Q 5.8125 47.609375 11.28125 51.796875 
Q 16.75 56 26.8125 56 
Q 31.78125 56 36.171875 55.265625 
Q 40.578125 54.546875 44.28125 53.078125 
z
" id="DejaVuSans-115"/>
       <path id="DejaVuSans-32"/>
       <path d="M 37.109375 75.984375 
L 37.109375 68.5 
L 28.515625 68.5 
Q 23.6875 68.5 21.796875 66.546875 
Q 19.921875 64.59375 19.921875 59.515625 
L 19.921875 54.6875 
L 34.71875 54.6875 
L 34.71875 47.703125 
L 19.921875 47.703125 
L 19.921875 0 
L 10.890625 0 
L 10.890625 47.703125 
L 2.296875 47.703125 
L 2.296875 54.6875 
L 10.890625 54.6875 
L 10.890625 58.5 
Q 10.890625 67.625 15.140625 71.796875 
Q 19.390625 75.984375 28.609375 75.984375 
z
" id="DejaVuSans-102"/>
       <path d="M 9.421875 75.984375 
L 18.40625 75.984375 
L 18.40625 0 
L 9.421875 0 
z
" id="DejaVuSans-108"/>
       <path d="M 9.421875 54.6875 
L 18.40625 54.6875 
L 18.40625 0 
L 9.421875 0 
z
M 9.421875 75.984375 
L 18.40625 75.984375 
L 18.40625 64.59375 
L 9.421875 64.59375 
z
" id="DejaVuSans-105"/>
       <path d="M 32.171875 -5.078125 
Q 28.375 -14.84375 24.75 -17.8125 
Q 21.140625 -20.796875 15.09375 -20.796875 
L 7.90625 -20.796875 
L 7.90625 -13.28125 
L 13.1875 -13.28125 
Q 16.890625 -13.28125 18.9375 -11.515625 
Q 21 -9.765625 23.484375 -3.21875 
L 25.09375 0.875 
L 2.984375 54.6875 
L 12.5 54.6875 
L 29.59375 11.921875 
L 46.6875 54.6875 
L 56.203125 54.6875 
z
" id="DejaVuSans-121"/>
       <path d="M 41.109375 46.296875 
Q 39.59375 47.171875 37.8125 47.578125 
Q 36.03125 48 33.890625 48 
Q 26.265625 48 22.1875 43.046875 
Q 18.109375 38.09375 18.109375 28.8125 
L 18.109375 0 
L 9.078125 0 
L 9.078125 54.6875 
L 18.109375 54.6875 
L 18.109375 46.1875 
Q 20.953125 51.171875 25.484375 53.578125 
Q 30.03125 56 36.53125 56 
Q 37.453125 56 38.578125 55.875 
Q 39.703125 55.765625 41.0625 55.515625 
z
" id="DejaVuSans-114"/>
       <path d="M 8.59375 75.984375 
L 29.296875 75.984375 
L 29.296875 69 
L 17.578125 69 
L 17.578125 -6.203125 
L 29.296875 -6.203125 
L 29.296875 -13.1875 
L 8.59375 -13.1875 
z
" id="DejaVuSans-91"/>
       <path d="M 72.703125 32.078125 
Q 68.453125 32.078125 66.03125 28.46875 
Q 63.625 24.859375 63.625 18.40625 
Q 63.625 12.0625 66.03125 8.421875 
Q 68.453125 4.78125 72.703125 4.78125 
Q 76.859375 4.78125 79.265625 8.421875 
Q 81.6875 12.0625 81.6875 18.40625 
Q 81.6875 24.8125 79.265625 28.4375 
Q 76.859375 32.078125 72.703125 32.078125 
z
M 72.703125 38.28125 
Q 80.421875 38.28125 84.953125 32.90625 
Q 89.5 27.546875 89.5 18.40625 
Q 89.5 9.28125 84.9375 3.921875 
Q 80.375 -1.421875 72.703125 -1.421875 
Q 64.890625 -1.421875 60.34375 3.921875 
Q 55.8125 9.28125 55.8125 18.40625 
Q 55.8125 27.59375 60.375 32.9375 
Q 64.9375 38.28125 72.703125 38.28125 
z
M 22.3125 68.015625 
Q 18.109375 68.015625 15.6875 64.375 
Q 13.28125 60.75 13.28125 54.390625 
Q 13.28125 47.953125 15.671875 44.328125 
Q 18.0625 40.71875 22.3125 40.71875 
Q 26.5625 40.71875 28.96875 44.328125 
Q 31.390625 47.953125 31.390625 54.390625 
Q 31.390625 60.6875 28.953125 64.34375 
Q 26.515625 68.015625 22.3125 68.015625 
z
M 66.40625 74.21875 
L 74.21875 74.21875 
L 28.609375 -1.421875 
L 20.796875 -1.421875 
z
M 22.3125 74.21875 
Q 30.03125 74.21875 34.609375 68.875 
Q 39.203125 63.53125 39.203125 54.390625 
Q 39.203125 45.171875 34.640625 39.84375 
Q 30.078125 34.515625 22.3125 34.515625 
Q 14.546875 34.515625 10.03125 39.859375 
Q 5.515625 45.21875 5.515625 54.390625 
Q 5.515625 63.484375 10.046875 68.84375 
Q 14.59375 74.21875 22.3125 74.21875 
z
" id="DejaVuSans-37"/>
       <path d="M 30.421875 75.984375 
L 30.421875 -13.1875 
L 9.71875 -13.1875 
L 9.71875 -6.203125 
L 21.390625 -6.203125 
L 21.390625 69 
L 9.71875 69 
L 9.71875 75.984375 
z
" id="DejaVuSans-93"/>
      </defs>
      <use xlink:href="#DejaVuSans-99"/>
      <use x="54.980469" xlink:href="#DejaVuSans-97"/>
      <use x="116.259766" xlink:href="#DejaVuSans-115"/>
      <use x="168.359375" xlink:href="#DejaVuSans-101"/>
      <use x="229.882812" xlink:href="#DejaVuSans-32"/>
      <use x="261.669922" xlink:href="#DejaVuSans-102"/>
      <use x="296.875" xlink:href="#DejaVuSans-97"/>
      <use x="358.154297" xlink:href="#DejaVuSans-116"/>
      <use x="397.363281" xlink:href="#DejaVuSans-97"/>
      <use x="458.642578" xlink:href="#DejaVuSans-108"/>
      <use x="486.425781" xlink:href="#DejaVuSans-105"/>
      <use x="514.208984" xlink:href="#DejaVuSans-116"/>
      <use x="553.417969" xlink:href="#DejaVuSans-121"/>
      <use x="612.597656" xlink:href="#DejaVuSans-32"/>
      <use x="644.384766" xlink:href="#DejaVuSans-114"/>
      <use x="685.498047" xlink:href="#DejaVuSans-97"/>
      <use x="746.777344" xlink:href="#DejaVuSans-116"/>
      <use x="785.986328" xlink:href="#DejaVuSans-101"/>
      <use x="847.509766" xlink:href="#DejaVuSans-32"/>
      <use x="879.296875" xlink:href="#DejaVuSans-91"/>
      <use x="918.310547" xlink:href="#DejaVuSans-37"/>
      <use x="1013.330078" xlink:href="#DejaVuSans-93"/>
     </g>
    </g>
   </g>
   <g id="patch_282">
    <path d="M 46.603125 288.430125 
L 46.603125 22.318125 
" style="fill:none;stroke:#000000;stroke-linecap:square;stroke-linejoin:miter;stroke-width:0.8;"/>
   </g>
   <g id="patch_283">
    <path d="M 46.603125 288.430125 
L 403.723125 288.430125 
" style="fill:none;stroke:#000000;stroke-linecap:square;stroke-linejoin:miter;stroke-width:0.8;"/>
   </g>
   <g id="text_20">
    <!-- South Tyrol -->
    <g transform="translate(191.870625 16.318125)scale(0.12 -0.12)">
     <defs>
      <path d="M 53.515625 70.515625 
L 53.515625 60.890625 
Q 47.90625 63.578125 42.921875 64.890625 
Q 37.9375 66.21875 33.296875 66.21875 
Q 25.25 66.21875 20.875 63.09375 
Q 16.5 59.96875 16.5 54.203125 
Q 16.5 49.359375 19.40625 46.890625 
Q 22.3125 44.4375 30.421875 42.921875 
L 36.375 41.703125 
Q 47.40625 39.59375 52.65625 34.296875 
Q 57.90625 29 57.90625 20.125 
Q 57.90625 9.515625 50.796875 4.046875 
Q 43.703125 -1.421875 29.984375 -1.421875 
Q 24.8125 -1.421875 18.96875 -0.25 
Q 13.140625 0.921875 6.890625 3.21875 
L 6.890625 13.375 
Q 12.890625 10.015625 18.65625 8.296875 
Q 24.421875 6.59375 29.984375 6.59375 
Q 38.421875 6.59375 43.015625 9.90625 
Q 47.609375 13.234375 47.609375 19.390625 
Q 47.609375 24.75 44.3125 27.78125 
Q 41.015625 30.8125 33.5 32.328125 
L 27.484375 33.5 
Q 16.453125 35.6875 11.515625 40.375 
Q 6.59375 45.0625 6.59375 53.421875 
Q 6.59375 63.09375 13.40625 68.65625 
Q 20.21875 74.21875 32.171875 74.21875 
Q 37.3125 74.21875 42.625 73.28125 
Q 47.953125 72.359375 53.515625 70.515625 
z
" id="DejaVuSans-83"/>
      <path d="M 30.609375 48.390625 
Q 23.390625 48.390625 19.1875 42.75 
Q 14.984375 37.109375 14.984375 27.296875 
Q 14.984375 17.484375 19.15625 11.84375 
Q 23.34375 6.203125 30.609375 6.203125 
Q 37.796875 6.203125 41.984375 11.859375 
Q 46.1875 17.53125 46.1875 27.296875 
Q 46.1875 37.015625 41.984375 42.703125 
Q 37.796875 48.390625 30.609375 48.390625 
z
M 30.609375 56 
Q 42.328125 56 49.015625 48.375 
Q 55.71875 40.765625 55.71875 27.296875 
Q 55.71875 13.875 49.015625 6.21875 
Q 42.328125 -1.421875 30.609375 -1.421875 
Q 18.84375 -1.421875 12.171875 6.21875 
Q 5.515625 13.875 5.515625 27.296875 
Q 5.515625 40.765625 12.171875 48.375 
Q 18.84375 56 30.609375 56 
z
" id="DejaVuSans-111"/>
      <path d="M 8.5 21.578125 
L 8.5 54.6875 
L 17.484375 54.6875 
L 17.484375 21.921875 
Q 17.484375 14.15625 20.5 10.265625 
Q 23.53125 6.390625 29.59375 6.390625 
Q 36.859375 6.390625 41.078125 11.03125 
Q 45.3125 15.671875 45.3125 23.6875 
L 45.3125 54.6875 
L 54.296875 54.6875 
L 54.296875 0 
L 45.3125 0 
L 45.3125 8.40625 
Q 42.046875 3.421875 37.71875 1 
Q 33.40625 -1.421875 27.6875 -1.421875 
Q 18.265625 -1.421875 13.375 4.4375 
Q 8.5 10.296875 8.5 21.578125 
z
M 31.109375 56 
z
" id="DejaVuSans-117"/>
      <path d="M 54.890625 33.015625 
L 54.890625 0 
L 45.90625 0 
L 45.90625 32.71875 
Q 45.90625 40.484375 42.875 44.328125 
Q 39.84375 48.1875 33.796875 48.1875 
Q 26.515625 48.1875 22.3125 43.546875 
Q 18.109375 38.921875 18.109375 30.90625 
L 18.109375 0 
L 9.078125 0 
L 9.078125 75.984375 
L 18.109375 75.984375 
L 18.109375 46.1875 
Q 21.34375 51.125 25.703125 53.5625 
Q 30.078125 56 35.796875 56 
Q 45.21875 56 50.046875 50.171875 
Q 54.890625 44.34375 54.890625 33.015625 
z
" id="DejaVuSans-104"/>
      <path d="M -0.296875 72.90625 
L 61.375 72.90625 
L 61.375 64.59375 
L 35.5 64.59375 
L 35.5 0 
L 25.59375 0 
L 25.59375 64.59375 
L -0.296875 64.59375 
z
" id="DejaVuSans-84"/>
     </defs>
     <use xlink:href="#DejaVuSans-83"/>
     <use x="63.476562" xlink:href="#DejaVuSans-111"/>
     <use x="124.658203" xlink:href="#DejaVuSans-117"/>
     <use x="188.037109" xlink:href="#DejaVuSans-116"/>
     <use x="227.246094" xlink:href="#DejaVuSans-104"/>
     <use x="290.625" xlink:href="#DejaVuSans-32"/>
     <use x="322.412109" xlink:href="#DejaVuSans-84"/>
     <use x="367.871094" xlink:href="#DejaVuSans-121"/>
     <use x="427.050781" xlink:href="#DejaVuSans-114"/>
     <use x="465.914062" xlink:href="#DejaVuSans-111"/>
     <use x="527.095703" xlink:href="#DejaVuSans-108"/>
    </g>
   </g>
  </g>
 </g>
 <defs>
  <clipPath id="p40461a489d">
   <rect height="266.112" width="357.12" x="46.603125" y="22.318125"/>
  </clipPath>
 </defs>
</svg>
