<?xml version="1.0" encoding="utf-8" standalone="no"?>
<!DOCTYPE svg PUBLIC "-//W3C//DTD SVG 1.1//EN"
  "http://www.w3.org/Graphics/SVG/1.1/DTD/svg11.dtd">
<svg xmlns:xlink="http://www.w3.org/1999/xlink" width="576.112836pt" height="372.605886pt" viewBox="0 0 576.112836 372.605886" xmlns="http://www.w3.org/2000/svg" version="1.1">
 <metadata>
  <rdf:RDF xmlns:dc="http://purl.org/dc/elements/1.1/" xmlns:cc="http://creativecommons.org/ns#" xmlns:rdf="http://www.w3.org/1999/02/22-rdf-syntax-ns#">
   <cc:Work>
    <dc:type rdf:resource="http://purl.org/dc/dcmitype/StillImage"/>
    <dc:format>image/svg+xml</dc:format>
    <dc:creator>
     <cc:Agent>
      <dc:title>Matplotlib v3.5.1, https://matplotlib.org/</dc:title>
     </cc:Agent>
    </dc:creator>
   </cc:Work>
  </rdf:RDF>
 </metadata>
 <defs>
  <style type="text/css">*{stroke-linejoin: round; stroke-linecap: butt}</style>
 </defs>
 <g id="figure_1">
  <g id="patch_1">
   <path d="M 0 372.605886 
L 576.112836 372.605886 
L 576.112836 0 
L 0 0 
z
" style="fill: #ffffff"/>
  </g>
  <g id="axes_1">
   <g id="patch_2">
    <path d="M 122.512836 365.405886 
L 568.912836 365.405886 
L 568.912836 32.765886 
L 122.512836 32.765886 
z
" style="fill: #ffffff"/>
   </g>
   <g id="patch_3">
    <path d="M 122.512836 362.243909 
L 287.043122 362.243909 
L 287.043122 352.125582 
L 122.512836 352.125582 
z
" clip-path="url(#pfc3ba2e50e)" style="fill: #d62728; stroke: #d62728; stroke-linejoin: miter"/>
   </g>
   <g id="patch_4">
    <path d="M 122.512836 349.596 
L 288.197081 349.596 
L 288.197081 339.477673 
L 122.512836 339.477673 
z
" clip-path="url(#pfc3ba2e50e)" style="fill: #1f77b4"/>
   </g>
   <g id="patch_5">
    <path d="M 122.512836 336.948091 
L 291.719693 336.948091 
L 291.719693 326.829764 
L 122.512836 326.829764 
z
" clip-path="url(#pfc3ba2e50e)" style="fill: #1f77b4"/>
   </g>
   <g id="patch_6">
    <path d="M 122.512836 324.300182 
L 292.812918 324.300182 
L 292.812918 314.181855 
L 122.512836 314.181855 
z
" clip-path="url(#pfc3ba2e50e)" style="fill: #1f77b4"/>
   </g>
   <g id="patch_7">
    <path d="M 122.512836 311.652274 
L 294.756428 311.652274 
L 294.756428 301.533947 
L 122.512836 301.533947 
z
" clip-path="url(#pfc3ba2e50e)" style="fill: #1f77b4"/>
   </g>
   <g id="patch_8">
    <path d="M 122.512836 299.004365 
L 297.428755 299.004365 
L 297.428755 288.886038 
L 122.512836 288.886038 
z
" clip-path="url(#pfc3ba2e50e)" style="fill: #1f77b4"/>
   </g>
   <g id="patch_9">
    <path d="M 122.512836 286.356456 
L 298.704183 286.356456 
L 298.704183 276.238129 
L 122.512836 276.238129 
z
" clip-path="url(#pfc3ba2e50e)" style="fill: #1f77b4"/>
   </g>
   <g id="patch_10">
    <path d="M 122.512836 273.708547 
L 299.858142 273.708547 
L 299.858142 263.59022 
L 122.512836 263.59022 
z
" clip-path="url(#pfc3ba2e50e)" style="fill: #1f77b4"/>
   </g>
   <g id="patch_11">
    <path d="M 122.512836 261.060639 
L 304.777653 261.060639 
L 304.777653 250.942312 
L 122.512836 250.942312 
z
" clip-path="url(#pfc3ba2e50e)" style="fill: #1f77b4"/>
   </g>
   <g id="patch_12">
    <path d="M 122.512836 248.41273 
L 309.757897 248.41273 
L 309.757897 238.294403 
L 122.512836 238.294403 
z
" clip-path="url(#pfc3ba2e50e)" style="fill: #1f77b4"/>
   </g>
   <g id="patch_13">
    <path d="M 122.512836 235.764821 
L 311.21553 235.764821 
L 311.21553 225.646494 
L 122.512836 225.646494 
z
" clip-path="url(#pfc3ba2e50e)" style="fill: #1f77b4"/>
   </g>
   <g id="patch_14">
    <path d="M 122.512836 223.116912 
L 311.276265 223.116912 
L 311.276265 212.998585 
L 122.512836 212.998585 
z
" clip-path="url(#pfc3ba2e50e)" style="fill: #1f77b4"/>
   </g>
   <g id="patch_15">
    <path d="M 122.512836 210.469004 
L 315.22402 210.469004 
L 315.22402 200.350677 
L 122.512836 200.350677 
z
" clip-path="url(#pfc3ba2e50e)" style="fill: #1f77b4"/>
   </g>
   <g id="patch_16">
    <path d="M 122.512836 197.821095 
L 316.681653 197.821095 
L 316.681653 187.702768 
L 122.512836 187.702768 
z
" clip-path="url(#pfc3ba2e50e)" style="fill: #1f77b4"/>
   </g>
   <g id="patch_17">
    <path d="M 122.512836 185.173186 
L 332.715612 185.173186 
L 332.715612 175.054859 
L 122.512836 175.054859 
z
" clip-path="url(#pfc3ba2e50e)" style="fill: #1f77b4"/>
   </g>
   <g id="patch_18">
    <path d="M 122.512836 172.525277 
L 332.776346 172.525277 
L 332.776346 162.40695 
L 122.512836 162.40695 
z
" clip-path="url(#pfc3ba2e50e)" style="fill: #1f77b4"/>
   </g>
   <g id="patch_19">
    <path d="M 122.512836 159.877369 
L 346.380918 159.877369 
L 346.380918 149.759042 
L 122.512836 149.759042 
z
" clip-path="url(#pfc3ba2e50e)" style="fill: #1f77b4"/>
   </g>
   <g id="patch_20">
    <path d="M 122.512836 147.22946 
L 350.328673 147.22946 
L 350.328673 137.111133 
L 122.512836 137.111133 
z
" clip-path="url(#pfc3ba2e50e)" style="fill: #1f77b4"/>
   </g>
   <g id="patch_21">
    <path d="M 122.512836 134.581551 
L 362.84002 134.581551 
L 362.84002 124.463224 
L 122.512836 124.463224 
z
" clip-path="url(#pfc3ba2e50e)" style="fill: #1f77b4"/>
   </g>
   <g id="patch_22">
    <path d="M 122.512836 121.933642 
L 379.845734 121.933642 
L 379.845734 111.815315 
L 122.512836 111.815315 
z
" clip-path="url(#pfc3ba2e50e)" style="fill: #1f77b4"/>
   </g>
   <g id="patch_23">
    <path d="M 122.512836 109.285734 
L 385.737 109.285734 
L 385.737 99.167407 
L 122.512836 99.167407 
z
" clip-path="url(#pfc3ba2e50e)" style="fill: #1f77b4"/>
   </g>
   <g id="patch_24">
    <path d="M 122.512836 96.637825 
L 394.300591 96.637825 
L 394.300591 86.519498 
L 122.512836 86.519498 
z
" clip-path="url(#pfc3ba2e50e)" style="fill: #1f77b4"/>
   </g>
   <g id="patch_25">
    <path d="M 122.512836 83.989916 
L 417.136836 83.989916 
L 417.136836 73.871589 
L 122.512836 73.871589 
z
" clip-path="url(#pfc3ba2e50e)" style="fill: #1f77b4"/>
   </g>
   <g id="patch_26">
    <path d="M 122.512836 71.342007 
L 418.594469 71.342007 
L 418.594469 61.22368 
L 122.512836 61.22368 
z
" clip-path="url(#pfc3ba2e50e)" style="fill: #1f77b4"/>
   </g>
   <g id="patch_27">
    <path d="M 122.512836 58.694099 
L 452.909571 58.694099 
L 452.909571 48.575772 
L 122.512836 48.575772 
z
" clip-path="url(#pfc3ba2e50e)" style="fill: #1f77b4"/>
   </g>
   <g id="patch_28">
    <path d="M 122.512836 46.04619 
L 505.141408 46.04619 
L 505.141408 35.927863 
L 122.512836 35.927863 
z
" clip-path="url(#pfc3ba2e50e)" style="fill: #1f77b4"/>
   </g>
   <g id="matplotlib.axis_1">
    <g id="xtick_1">
     <g id="text_1">
      <!-- $\mathdefault{0}$ -->
      <g transform="translate(120.022176 31.456475)scale(0.1 -0.1)">
       <defs>
        <path id="URWPalladioL-Roma-30" d="M 1683 4416 
C 691 4416 186 3628 186 2076 
C 186 1326 320 679 544 365 
C 768 51 1126 -128 1523 -128 
C 2490 -128 2976 704 2976 2345 
C 2976 3749 2560 4416 1683 4416 
z
M 1568 4191 
C 2189 4191 2438 3563 2438 2025 
C 2438 660 2195 96 1606 96 
C 986 96 723 743 723 2307 
C 723 3660 960 4191 1568 4191 
z
" transform="scale(0.015625)"/>
       </defs>
       <use xlink:href="#URWPalladioL-Roma-30" transform="scale(0.996264)"/>
      </g>
     </g>
    </g>
    <g id="xtick_2">
     <g id="text_2">
      <!-- $\mathdefault{1000}$ -->
      <g transform="translate(173.28489 31.456475)scale(0.1 -0.1)">
       <defs>
        <path id="URWPalladioL-Roma-31" d="M 429 3571 
L 493 3571 
L 1318 3942 
C 1325 3949 1331 3949 1338 3949 
C 1376 3949 1389 3891 1389 3737 
L 1389 633 
C 1389 300 1318 230 973 211 
L 614 192 
L 614 0 
C 1600 0 1600 0 1670 0 
C 1754 0 1894 0 2112 -7 
C 2189 6 2413 6 2675 0 
L 2675 192 
L 2342 211 
C 1990 229 1926 299 1926 628 
L 1926 4383 
L 1837 4416 
C 1421 4199 966 4009 384 3807 
L 429 3571 
z
" transform="scale(0.015625)"/>
       </defs>
       <use xlink:href="#URWPalladioL-Roma-31" transform="scale(0.996264)"/>
       <use xlink:href="#URWPalladioL-Roma-30" transform="translate(49.8132 0)scale(0.996264)"/>
       <use xlink:href="#URWPalladioL-Roma-30" transform="translate(99.626401 0)scale(0.996264)"/>
       <use xlink:href="#URWPalladioL-Roma-30" transform="translate(149.439601 0)scale(0.996264)"/>
      </g>
     </g>
    </g>
    <g id="xtick_3">
     <g id="text_3">
      <!-- $\mathdefault{2000}$ -->
      <g transform="translate(234.019584 31.456475)scale(0.1 -0.1)">
       <defs>
        <path id="URWPalladioL-Roma-32" d="M 102 166 
L 102 0 
C 1299 0 1299 0 1530 0 
C 1760 19 1760 19 2995 0 
C 2982 134 2982 198 2982 287 
C 2982 370 2982 434 2995 574 
C 2259 542 1965 536 781 510 
L 1946 1741 
C 2566 2398 2758 2749 2758 3228 
C 2758 3961 2259 4416 1446 4416 
C 986 4416 672 4287 358 3967 
L 250 3100 
L 435 3100 
L 518 3394 
C 621 3763 851 3923 1280 3923 
C 1830 3923 2182 3578 2182 3036 
C 2182 2558 1914 2086 1190 1320 
L 102 166 
z
" transform="scale(0.015625)"/>
       </defs>
       <use xlink:href="#URWPalladioL-Roma-32" transform="scale(0.996264)"/>
       <use xlink:href="#URWPalladioL-Roma-30" transform="translate(49.8132 0)scale(0.996264)"/>
       <use xlink:href="#URWPalladioL-Roma-30" transform="translate(99.626401 0)scale(0.996264)"/>
       <use xlink:href="#URWPalladioL-Roma-30" transform="translate(149.439601 0)scale(0.996264)"/>
      </g>
     </g>
    </g>
    <g id="xtick_4">
     <g id="text_4">
      <!-- $\mathdefault{3000}$ -->
      <g transform="translate(294.754278 31.456475)scale(0.1 -0.1)">
       <defs>
        <path id="URWPalladioL-Roma-33" d="M 275 3196 
L 474 3196 
L 589 3553 
C 659 3770 1062 3987 1395 3987 
C 1811 3987 2150 3649 2150 3247 
C 2150 2769 1773 2368 1318 2368 
C 1267 2368 1197 2374 1114 2380 
L 1018 2387 
L 941 2047 
L 986 2008 
C 1229 2118 1350 2150 1523 2150 
C 2054 2150 2362 1808 2362 1222 
C 2362 565 1971 134 1376 134 
C 1082 134 819 231 627 411 
C 474 553 390 701 269 1048 
L 96 984 
C 230 591 282 359 320 38 
C 659 -77 941 -128 1178 -128 
C 1690 -128 2278 160 2630 591 
C 2848 855 2957 1139 2957 1441 
C 2957 1750 2829 2021 2598 2182 
C 2438 2297 2291 2348 1971 2406 
C 2483 2801 2675 3094 2675 3470 
C 2675 4038 2202 4416 1491 4416 
C 1056 4416 768 4294 461 3987 
L 275 3196 
z
" transform="scale(0.015625)"/>
       </defs>
       <use xlink:href="#URWPalladioL-Roma-33" transform="scale(0.996264)"/>
       <use xlink:href="#URWPalladioL-Roma-30" transform="translate(49.8132 0)scale(0.996264)"/>
       <use xlink:href="#URWPalladioL-Roma-30" transform="translate(99.626401 0)scale(0.996264)"/>
       <use xlink:href="#URWPalladioL-Roma-30" transform="translate(149.439601 0)scale(0.996264)"/>
      </g>
     </g>
    </g>
    <g id="xtick_5">
     <g id="text_5">
      <!-- $\mathdefault{4000}$ -->
      <g transform="translate(355.488972 31.456475)scale(0.1 -0.1)">
       <defs>
        <path id="URWPalladioL-Roma-34" d="M 1792 1152 
L 1792 684 
C 1792 310 1722 223 1408 210 
L 1011 192 
L 1011 0 
C 1862 0 1862 0 2016 0 
C 2170 19 2170 19 3021 0 
L 3021 192 
L 2714 210 
C 2400 229 2330 310 2330 684 
L 2330 1152 
C 2707 1152 2842 1145 3021 1127 
L 3021 1580 
C 2720 1555 2598 1555 2502 1561 
L 2483 1561 
L 2330 1561 
L 2330 2445 
C 2330 3576 2342 4122 2374 4383 
L 2298 4416 
L 1824 4243 
L 13 1299 
L 83 1152 
L 1792 1152 
z
M 1792 1561 
L 416 1561 
L 1792 3798 
L 1792 1561 
z
" transform="scale(0.015625)"/>
       </defs>
       <use xlink:href="#URWPalladioL-Roma-34" transform="scale(0.996264)"/>
       <use xlink:href="#URWPalladioL-Roma-30" transform="translate(49.8132 0)scale(0.996264)"/>
       <use xlink:href="#URWPalladioL-Roma-30" transform="translate(99.626401 0)scale(0.996264)"/>
       <use xlink:href="#URWPalladioL-Roma-30" transform="translate(149.439601 0)scale(0.996264)"/>
      </g>
     </g>
    </g>
    <g id="xtick_6">
     <g id="text_6">
      <!-- $\mathdefault{5000}$ -->
      <g transform="translate(416.223666 31.456475)scale(0.1 -0.1)">
       <defs>
        <path id="URWPalladioL-Roma-35" d="M 813 3891 
C 1638 3865 1997 3859 2765 3859 
L 2797 3891 
C 2784 4006 2784 4057 2784 4140 
C 2784 4230 2784 4281 2797 4396 
L 2765 4428 
C 2285 4403 1997 4396 1651 4396 
C 1299 4396 1018 4403 538 4428 
L 506 4396 
C 512 4006 518 3724 518 3520 
C 518 2976 499 2360 480 2076 
L 608 2038 
C 909 2341 1082 2432 1395 2432 
C 2010 2432 2394 1992 2394 1295 
C 2394 579 1984 160 1286 160 
C 941 160 621 276 531 443 
L 237 973 
L 83 882 
C 230 514 307 308 397 25 
C 576 -71 832 -128 1107 -128 
C 1536 -128 1990 57 2342 366 
C 2733 715 2938 1153 2938 1631 
C 2938 2360 2419 2873 1690 2873 
C 1382 2873 1152 2790 755 2553 
L 813 3891 
z
" transform="scale(0.015625)"/>
       </defs>
       <use xlink:href="#URWPalladioL-Roma-35" transform="scale(0.996264)"/>
       <use xlink:href="#URWPalladioL-Roma-30" transform="translate(49.8132 0)scale(0.996264)"/>
       <use xlink:href="#URWPalladioL-Roma-30" transform="translate(99.626401 0)scale(0.996264)"/>
       <use xlink:href="#URWPalladioL-Roma-30" transform="translate(149.439601 0)scale(0.996264)"/>
      </g>
     </g>
    </g>
    <g id="xtick_7">
     <g id="text_7">
      <!-- $\mathdefault{6000}$ -->
      <g transform="translate(476.958359 31.456475)scale(0.1 -0.1)">
       <defs>
        <path id="URWPalladioL-Roma-36" d="M 2662 4287 
L 2426 4396 
C 1811 4193 1549 4066 1222 3788 
C 563 3237 205 2463 205 1585 
C 205 526 717 -128 1542 -128 
C 2374 -128 2995 532 2995 1405 
C 2995 2143 2554 2624 1875 2624 
C 1555 2624 1363 2540 986 2239 
C 915 2182 909 2175 838 2124 
C 973 3275 1510 3895 2662 4237 
L 2662 4287 
z
M 1632 2239 
C 2118 2239 2445 1816 2445 1180 
C 2445 513 2118 83 1626 83 
C 1082 83 787 551 787 1411 
C 787 1636 813 1758 883 1867 
C 1024 2085 1325 2239 1632 2239 
z
" transform="scale(0.015625)"/>
       </defs>
       <use xlink:href="#URWPalladioL-Roma-36" transform="scale(0.996264)"/>
       <use xlink:href="#URWPalladioL-Roma-30" transform="translate(49.8132 0)scale(0.996264)"/>
       <use xlink:href="#URWPalladioL-Roma-30" transform="translate(99.626401 0)scale(0.996264)"/>
       <use xlink:href="#URWPalladioL-Roma-30" transform="translate(149.439601 0)scale(0.996264)"/>
      </g>
     </g>
    </g>
    <g id="xtick_8">
     <g id="text_8">
      <!-- $\mathdefault{7000}$ -->
      <g transform="translate(537.693053 31.456475)scale(0.1 -0.1)">
       <defs>
        <path id="URWPalladioL-Roma-37" d="M 358 83 
L 416 0 
C 666 0 666 0 710 0 
C 755 19 755 19 1005 0 
C 1274 700 1587 1369 2010 2141 
L 3181 4255 
L 3181 4448 
C 2490 4422 2266 4416 1747 4416 
C 1280 4416 966 4422 346 4448 
L 282 4416 
C 301 3807 301 3807 301 3743 
C 301 3672 301 3672 282 3087 
L 474 3087 
L 518 3447 
C 570 3846 614 3897 909 3897 
L 2618 3897 
C 2362 3370 2163 2996 1920 2604 
L 358 83 
z
" transform="scale(0.015625)"/>
       </defs>
       <use xlink:href="#URWPalladioL-Roma-37" transform="scale(0.996264)"/>
       <use xlink:href="#URWPalladioL-Roma-30" transform="translate(49.8132 0)scale(0.996264)"/>
       <use xlink:href="#URWPalladioL-Roma-30" transform="translate(99.626401 0)scale(0.996264)"/>
       <use xlink:href="#URWPalladioL-Roma-30" transform="translate(149.439601 0)scale(0.996264)"/>
      </g>
     </g>
    </g>
    <g id="text_9">
     <!-- corona fatalities per one million inhabitants -->
     <g transform="translate(249.973181 14.328237)scale(0.1 -0.1)">
      <defs>
       <path id="URWPalladioL-Roma-63" d="M 2554 1995 
C 2554 2290 2586 2553 2643 2783 
C 2387 2937 2163 3008 1901 3008 
C 1594 3008 1235 2886 851 2643 
C 403 2360 166 1911 166 1347 
C 166 480 774 -128 1632 -128 
C 1965 -128 2445 -7 2509 89 
L 2643 294 
L 2579 390 
C 2342 262 2138 204 1907 204 
C 1197 204 730 756 730 1603 
C 730 2290 1050 2675 1626 2675 
C 1907 2675 2214 2547 2330 2386 
L 2374 1995 
L 2554 1995 
z
" transform="scale(0.015625)"/>
       <path id="URWPalladioL-Roma-6f" d="M 1786 3008 
C 851 3008 205 2347 205 1391 
C 205 487 774 -128 1600 -128 
C 2586 -128 3290 557 3290 1520 
C 3290 2386 2662 3008 1786 3008 
z
M 1670 2796 
C 2259 2796 2694 2155 2694 1282 
C 2694 545 2368 83 1850 83 
C 1222 83 800 699 800 1609 
C 800 2379 1107 2796 1670 2796 
z
" transform="scale(0.015625)"/>
       <path id="URWPalladioL-Roma-72" d="M 147 2579 
L 384 2579 
C 640 2579 666 2534 666 2112 
L 666 672 
C 666 268 646 224 429 211 
L 134 192 
L 134 0 
C 595 -7 762 0 922 0 
C 1050 19 1050 19 1837 0 
L 1837 192 
L 1504 211 
C 1216 230 1203 249 1203 669 
L 1203 1763 
C 1203 2145 1459 2463 1773 2463 
C 1965 2463 2099 2374 2202 2171 
L 2336 2171 
L 2394 2937 
C 2323 2982 2208 3008 2093 3008 
C 1901 3008 1696 2905 1562 2745 
L 1203 2324 
L 1203 2982 
L 1146 3008 
C 819 2873 486 2783 147 2745 
L 147 2579 
z
" transform="scale(0.015625)"/>
       <path id="URWPalladioL-Roma-6e" d="M 2624 0 
C 3014 0 3021 0 3130 0 
C 3219 19 3219 19 3661 0 
L 3661 192 
L 3398 211 
C 3181 223 3162 262 3162 670 
L 3162 1902 
C 3162 2649 2810 3014 2093 3014 
C 1856 3014 1722 2969 1587 2854 
L 1101 2432 
L 1101 2988 
L 1043 3008 
C 717 2873 384 2784 45 2746 
L 45 2568 
L 282 2568 
C 538 2568 563 2523 563 2103 
L 563 669 
C 563 268 544 223 326 211 
L 38 192 
L 38 0 
C 474 -7 646 0 832 0 
C 1018 19 1190 12 1626 0 
L 1626 192 
L 1338 211 
C 1120 223 1101 268 1101 670 
L 1101 2023 
C 1101 2311 1523 2624 1914 2624 
C 2342 2624 2624 2304 2624 1813 
L 2624 0 
z
" transform="scale(0.015625)"/>
       <path id="URWPalladioL-Roma-61" d="M 2074 544 
L 2042 0 
C 2458 0 2458 0 2541 0 
C 2573 19 2733 12 3014 0 
L 3014 192 
L 2765 204 
C 2611 211 2586 262 2586 576 
L 2586 1751 
C 2586 2688 2317 3027 1574 3027 
C 1299 3027 1043 2956 800 2809 
L 461 2604 
L 461 2187 
L 627 2142 
L 710 2341 
C 845 2642 909 2688 1203 2688 
C 1805 2688 2054 2450 2074 1866 
L 1440 1751 
C 570 1590 205 1289 205 730 
C 205 224 506 -64 1011 -64 
C 1126 -64 1235 -45 1280 -13 
L 2074 544 
z
M 2074 806 
C 1888 544 1485 300 1235 300 
C 979 300 755 537 755 812 
C 755 1049 883 1273 1075 1395 
C 1235 1491 1587 1580 2074 1651 
L 2074 806 
z
" transform="scale(0.015625)"/>
       <path id="URWPalladioL-Roma-66" d="M 2182 4601 
C 2048 4652 1971 4672 1888 4672 
C 1683 4672 1459 4563 1318 4403 
L 947 3981 
C 762 3770 678 3482 678 3060 
L 678 2792 
L 237 2594 
L 237 2453 
L 678 2479 
L 678 671 
C 678 268 659 223 442 211 
L 147 192 
L 147 0 
C 787 0 787 0 947 0 
C 1107 19 1107 19 1747 0 
L 1747 192 
L 1453 211 
C 1235 223 1216 268 1216 671 
L 1216 2479 
L 2010 2479 
L 2054 2818 
L 1216 2792 
L 1216 3335 
C 1216 4070 1299 4249 1664 4249 
C 1837 4249 1952 4204 2106 4070 
L 2182 4108 
L 2182 4601 
z
" transform="scale(0.015625)"/>
       <path id="URWPalladioL-Roma-74" d="M 627 2457 
L 627 614 
C 627 140 838 -64 1331 -64 
C 1478 -64 1632 -32 1670 12 
L 1978 352 
L 1894 460 
C 1734 371 1638 339 1517 339 
C 1267 339 1165 467 1165 780 
L 1165 2457 
L 1984 2457 
L 2042 2803 
L 1165 2764 
L 1165 3008 
C 1165 3277 1184 3507 1235 3917 
L 1158 3987 
C 1005 3891 813 3808 614 3744 
C 634 3552 640 3430 640 3238 
L 640 2790 
L 141 2566 
L 141 2432 
L 627 2457 
z
" transform="scale(0.015625)"/>
       <path id="URWPalladioL-Roma-6c" d="M 147 4249 
L 506 4249 
C 621 4249 666 4179 666 3987 
L 666 672 
C 666 268 646 224 429 211 
L 134 192 
L 134 0 
C 774 0 774 0 934 0 
C 1094 19 1094 19 1734 0 
L 1734 192 
L 1440 211 
C 1222 224 1203 268 1203 672 
L 1203 4614 
L 1146 4665 
C 864 4557 653 4505 147 4429 
L 147 4249 
z
" transform="scale(0.015625)"/>
       <path id="URWPalladioL-Roma-69" d="M 1203 2982 
L 1146 3008 
C 819 2873 486 2784 147 2746 
L 147 2568 
L 384 2568 
C 640 2568 666 2523 666 2103 
L 666 669 
C 666 268 646 223 429 211 
L 134 192 
L 134 0 
C 774 0 774 0 934 0 
C 1094 19 1094 19 1734 0 
L 1734 192 
L 1440 211 
C 1222 224 1203 268 1203 671 
L 1203 2982 
z
M 909 4416 
C 717 4416 550 4249 550 4057 
C 550 3871 717 3705 902 3705 
C 1088 3705 1261 3871 1261 4057 
C 1261 4236 1088 4416 909 4416 
z
" transform="scale(0.015625)"/>
       <path id="URWPalladioL-Roma-65" d="M 2797 447 
L 2714 511 
C 2304 268 2157 211 1882 211 
C 1466 211 1120 396 941 710 
C 819 921 774 1100 762 1472 
L 1696 1472 
C 2138 1472 2413 1491 2854 1561 
C 2861 1651 2867 1708 2867 1786 
C 2867 2526 2394 3008 1677 3008 
C 1440 3008 1165 2924 902 2771 
C 378 2468 166 2069 166 1401 
C 166 998 262 652 435 409 
C 691 70 1120 -128 1600 -128 
C 1837 -128 2074 -77 2336 38 
C 2509 108 2643 192 2669 230 
L 2797 447 
z
M 2298 1708 
C 1965 1696 1811 1689 1581 1689 
C 1286 1689 1120 1696 774 1728 
C 774 2030 800 2172 883 2339 
C 1018 2623 1293 2796 1600 2796 
C 1811 2796 1978 2713 2093 2539 
C 2234 2326 2278 2140 2298 1708 
z
" transform="scale(0.015625)"/>
       <path id="URWPalladioL-Roma-73" d="M 262 917 
C 262 474 243 282 192 25 
C 525 -84 774 -128 1069 -128 
C 1907 -128 2502 320 2502 949 
C 2502 1148 2445 1295 2323 1423 
C 2157 1584 1946 1661 1382 1770 
C 858 1872 685 2001 685 2296 
C 685 2617 909 2796 1299 2796 
C 1728 2796 2054 2572 2054 2270 
L 2054 2123 
L 2234 2123 
C 2240 2495 2246 2649 2266 2847 
C 1926 2963 1696 3008 1434 3008 
C 691 3008 237 2655 237 2078 
C 237 1770 378 1552 672 1417 
C 845 1340 1184 1237 1619 1141 
C 1907 1077 2029 942 2029 698 
C 2029 352 1709 108 1254 108 
C 787 108 454 333 454 654 
L 454 917 
L 262 917 
z
" transform="scale(0.015625)"/>
       <path id="URWPalladioL-Roma-70" d="M 64 2566 
L 301 2566 
C 557 2566 582 2521 582 2100 
L 582 -1118 
C 582 -1523 563 -1568 346 -1581 
L 51 -1600 
L 51 -1792 
C 691 -1773 691 -1773 851 -1773 
C 1011 -1773 1011 -1773 1651 -1792 
L 1651 -1600 
L 1357 -1581 
C 1139 -1568 1120 -1523 1120 -1118 
L 1120 96 
C 1312 -20 1517 -64 1805 -64 
C 1990 -64 2157 -26 2259 38 
L 2989 511 
C 3245 677 3546 1334 3546 1743 
C 3546 2451 2957 3008 2214 3008 
C 1978 3008 1747 2943 1645 2847 
L 1120 2368 
L 1120 2982 
L 1062 3008 
C 736 2873 403 2783 64 2745 
L 64 2566 
z
M 1120 1966 
C 1120 2055 1152 2126 1235 2234 
C 1421 2470 1683 2591 2003 2591 
C 2605 2591 2989 2170 2989 1507 
C 2989 792 2560 262 1984 262 
C 1632 262 1370 377 1120 639 
L 1120 1966 
z
" transform="scale(0.015625)"/>
       <path id="URWPalladioL-Roma-6d" d="M 115 2579 
L 352 2579 
C 608 2579 634 2534 634 2112 
L 634 672 
C 634 268 614 224 397 211 
L 102 192 
L 102 0 
C 717 0 736 0 915 0 
C 1094 19 1261 12 1677 0 
L 1677 192 
L 1408 211 
C 1190 223 1171 268 1171 670 
L 1171 2023 
C 1171 2311 1594 2624 1978 2624 
C 2323 2624 2560 2298 2560 1813 
L 2560 670 
C 2560 268 2541 223 2323 211 
L 2029 192 
L 2029 0 
C 2669 0 2669 0 2829 0 
C 2989 19 2989 19 3629 0 
L 3629 192 
L 3334 211 
C 3117 223 3098 268 3098 670 
L 3098 2023 
C 3098 2311 3520 2624 3904 2624 
C 4250 2624 4486 2298 4486 1813 
L 4486 0 
C 4877 0 4883 0 4992 0 
C 5075 19 5075 19 5562 0 
L 5562 192 
L 5261 211 
C 5043 223 5024 268 5024 670 
L 5024 1985 
C 5024 2617 4653 3014 4064 3014 
C 3840 3014 3654 2956 3539 2854 
L 3053 2419 
C 2848 2841 2586 3014 2144 3014 
C 1907 3014 1728 2956 1613 2854 
L 1171 2445 
L 1171 2988 
L 1114 3008 
C 787 2873 454 2783 115 2745 
L 115 2579 
z
" transform="scale(0.015625)"/>
       <path id="URWPalladioL-Roma-68" d="M 45 4249 
L 403 4249 
C 518 4249 563 4179 563 3987 
L 563 672 
C 563 268 544 224 326 211 
L 38 192 
L 38 0 
C 474 -7 646 0 832 0 
C 1018 19 1190 12 1626 0 
L 1626 192 
L 1338 211 
C 1120 223 1101 268 1101 670 
L 1101 2023 
C 1101 2311 1523 2624 1914 2624 
C 2342 2624 2624 2304 2624 1813 
L 2624 0 
C 3014 0 3021 0 3130 0 
C 3219 19 3219 19 3661 0 
L 3661 192 
L 3398 211 
C 3181 223 3162 262 3162 670 
L 3162 1902 
C 3162 2649 2810 3014 2093 3014 
C 1856 3014 1722 2969 1587 2854 
L 1101 2432 
L 1101 4608 
L 1043 4659 
C 762 4550 550 4499 45 4422 
L 45 4249 
z
" transform="scale(0.015625)"/>
       <path id="URWPalladioL-Roma-62" d="M 960 4601 
L 902 4652 
C 621 4544 410 4492 -96 4416 
L -96 4236 
L 262 4236 
C 378 4236 422 4166 422 3974 
L 422 990 
C 422 594 416 421 371 -26 
L 474 -64 
L 730 166 
C 986 0 1216 -64 1555 -64 
C 1805 -64 1971 -20 2106 76 
L 2746 536 
C 3027 741 3251 1270 3251 1736 
C 3251 2477 2771 3008 2093 3008 
C 1792 3008 1478 2892 1312 2726 
L 960 2368 
L 960 4601 
z
M 960 1979 
C 960 2068 1024 2183 1126 2298 
C 1306 2483 1555 2591 1818 2591 
C 2355 2591 2694 2158 2694 1475 
C 2694 760 2310 262 1766 262 
C 1434 262 960 466 960 607 
L 960 1979 
z
" transform="scale(0.015625)"/>
      </defs>
      <use xlink:href="#URWPalladioL-Roma-63" transform="scale(0.996264)"/>
      <use xlink:href="#URWPalladioL-Roma-6f" transform="translate(44.233569 0)scale(0.996264)"/>
      <use xlink:href="#URWPalladioL-Roma-72" transform="translate(98.629149 0)scale(0.996264)"/>
      <use xlink:href="#URWPalladioL-Roma-6f" transform="translate(136.188466 0)scale(0.996264)"/>
      <use xlink:href="#URWPalladioL-Roma-6e" transform="translate(190.584046 0)scale(0.996264)"/>
      <use xlink:href="#URWPalladioL-Roma-61" transform="translate(248.566107 0)scale(0.996264)"/>
      <use xlink:href="#URWPalladioL-Roma-66" transform="translate(323.285908 0)scale(0.996264)"/>
      <use xlink:href="#URWPalladioL-Roma-61" transform="translate(356.461138 0)scale(0.996264)"/>
      <use xlink:href="#URWPalladioL-Roma-74" transform="translate(406.274338 0)scale(0.996264)"/>
      <use xlink:href="#URWPalladioL-Roma-61" transform="translate(438.751426 0)scale(0.996264)"/>
      <use xlink:href="#URWPalladioL-Roma-6c" transform="translate(488.564626 0)scale(0.996264)"/>
      <use xlink:href="#URWPalladioL-Roma-69" transform="translate(517.554988 0)scale(0.996264)"/>
      <use xlink:href="#URWPalladioL-Roma-74" transform="translate(546.545349 0)scale(0.996264)"/>
      <use xlink:href="#URWPalladioL-Roma-69" transform="translate(579.022437 0)scale(0.996264)"/>
      <use xlink:href="#URWPalladioL-Roma-65" transform="translate(608.012799 0)scale(0.996264)"/>
      <use xlink:href="#URWPalladioL-Roma-73" transform="translate(655.733094 0)scale(0.996264)"/>
      <use xlink:href="#URWPalladioL-Roma-70" transform="translate(722.88116 0)scale(0.996264)"/>
      <use xlink:href="#URWPalladioL-Roma-65" transform="translate(782.755554 0)scale(0.996264)"/>
      <use xlink:href="#URWPalladioL-Roma-72" transform="translate(830.475849 0)scale(0.996264)"/>
      <use xlink:href="#URWPalladioL-Roma-6f" transform="translate(894.734346 0)scale(0.996264)"/>
      <use xlink:href="#URWPalladioL-Roma-6e" transform="translate(949.129926 0)scale(0.996264)"/>
      <use xlink:href="#URWPalladioL-Roma-65" transform="translate(1007.111987 0)scale(0.996264)"/>
      <use xlink:href="#URWPalladioL-Roma-6d" transform="translate(1079.738882 0)scale(0.996264)"/>
      <use xlink:href="#URWPalladioL-Roma-69" transform="translate(1167.708556 0)scale(0.996264)"/>
      <use xlink:href="#URWPalladioL-Roma-6c" transform="translate(1196.698918 0)scale(0.996264)"/>
      <use xlink:href="#URWPalladioL-Roma-6c" transform="translate(1225.689279 0)scale(0.996264)"/>
      <use xlink:href="#URWPalladioL-Roma-69" transform="translate(1254.679641 0)scale(0.996264)"/>
      <use xlink:href="#URWPalladioL-Roma-6f" transform="translate(1283.670002 0)scale(0.996264)"/>
      <use xlink:href="#URWPalladioL-Roma-6e" transform="translate(1338.065582 0)scale(0.996264)"/>
      <use xlink:href="#URWPalladioL-Roma-69" transform="translate(1420.954243 0)scale(0.996264)"/>
      <use xlink:href="#URWPalladioL-Roma-6e" transform="translate(1449.944605 0)scale(0.996264)"/>
      <use xlink:href="#URWPalladioL-Roma-68" transform="translate(1507.926665 0)scale(0.996264)"/>
      <use xlink:href="#URWPalladioL-Roma-61" transform="translate(1565.908726 0)scale(0.996264)"/>
      <use xlink:href="#URWPalladioL-Roma-62" transform="translate(1615.721927 0)scale(0.996264)"/>
      <use xlink:href="#URWPalladioL-Roma-69" transform="translate(1670.814326 0)scale(0.996264)"/>
      <use xlink:href="#URWPalladioL-Roma-74" transform="translate(1699.804688 0)scale(0.996264)"/>
      <use xlink:href="#URWPalladioL-Roma-61" transform="translate(1732.281775 0)scale(0.996264)"/>
      <use xlink:href="#URWPalladioL-Roma-6e" transform="translate(1782.094976 0)scale(0.996264)"/>
      <use xlink:href="#URWPalladioL-Roma-74" transform="translate(1840.077037 0)scale(0.996264)"/>
      <use xlink:href="#URWPalladioL-Roma-73" transform="translate(1872.554124 0)scale(0.996264)"/>
     </g>
    </g>
   </g>
   <g id="matplotlib.axis_2">
    <g id="ytick_1">
     <g id="text_10">
      <!-- South Tyrol -->
      <g style="fill: #d62728" transform="translate(64.454883 360.748864)scale(0.1 -0.1)">
       <defs>
        <path id="URWPalladioL-Roma-53" d="M 2861 3371 
C 2861 3711 2886 3929 2950 4275 
C 2438 4479 2150 4544 1798 4544 
C 845 4544 154 3942 154 3102 
C 154 2788 237 2557 422 2384 
C 640 2185 934 2083 1555 1999 
C 2048 1929 2272 1858 2438 1711 
C 2605 1576 2682 1390 2682 1147 
C 2682 570 2202 153 1536 153 
C 1024 153 525 403 493 666 
L 442 1095 
L 237 1095 
C 243 980 243 877 243 839 
C 243 544 230 403 192 115 
C 557 -45 928 -128 1299 -128 
C 2413 -128 3219 544 3219 1474 
C 3219 1775 3136 1986 2957 2153 
C 2733 2365 2464 2448 1747 2544 
C 966 2647 691 2858 691 3352 
C 691 3890 1094 4275 1658 4275 
C 1907 4275 2144 4224 2317 4127 
C 2528 4018 2598 3922 2618 3736 
L 2656 3371 
L 2861 3371 
z
" transform="scale(0.015625)"/>
        <path id="URWPalladioL-Roma-75" d="M 3219 2982 
L 3162 3008 
C 2835 2873 2502 2784 2163 2745 
L 2163 2567 
L 2400 2567 
C 2656 2567 2682 2522 2682 2101 
L 2682 1060 
C 2682 920 2592 741 2445 594 
C 2266 415 2061 326 1811 326 
C 1587 326 1408 396 1306 517 
C 1216 620 1171 817 1171 1098 
L 1171 2982 
L 1114 3008 
C 787 2873 454 2784 115 2745 
L 115 2567 
L 352 2567 
C 608 2567 634 2522 634 2101 
L 634 1028 
C 634 581 672 383 787 224 
C 928 32 1171 -64 1536 -64 
C 1824 -58 2080 32 2253 192 
L 2682 588 
C 2682 403 2675 300 2656 0 
C 3085 0 3091 0 3187 0 
C 3277 19 3277 19 3718 0 
L 3718 192 
L 3456 211 
C 3238 224 3219 262 3219 672 
L 3219 2982 
z
" transform="scale(0.015625)"/>
        <path id="URWPalladioL-Roma-54" d="M 1632 4096 
C 1651 3880 1658 3734 1658 3462 
L 1658 781 
C 1658 280 1626 230 1331 211 
L 1024 192 
L 1024 0 
C 1402 -7 1626 0 1958 0 
C 2291 19 2522 12 2899 0 
L 2899 192 
L 2592 211 
C 2298 230 2266 280 2266 781 
L 2266 3462 
C 2266 3747 2272 3887 2291 4096 
L 3283 4096 
C 3462 4096 3533 4039 3539 3887 
L 3565 3386 
L 3763 3386 
C 3763 3801 3776 4051 3808 4416 
C 3347 4409 3136 4409 2957 4403 
C 2707 4390 2522 4390 2426 4390 
L 1414 4390 
C 1350 4390 1005 4396 550 4403 
L 115 4416 
C 147 4051 160 3801 160 3385 
L 358 3385 
L 384 3891 
C 390 4038 461 4096 640 4096 
L 1632 4096 
z
" transform="scale(0.015625)"/>
        <path id="URWPalladioL-Roma-79" d="M 1901 569 
C 1760 812 1690 960 1574 1273 
L 1165 2349 
C 1126 2457 1101 2553 1101 2617 
C 1101 2707 1171 2758 1318 2765 
L 1562 2777 
L 1562 2957 
C 941 2937 941 2937 819 2937 
C 698 2937 698 2937 77 2957 
L 77 2777 
L 192 2765 
C 352 2745 429 2675 525 2451 
L 1222 774 
C 1402 339 1466 185 1581 -135 
L 1434 -525 
C 1229 -1063 979 -1364 736 -1364 
C 634 -1364 518 -1312 410 -1216 
L 326 -1216 
L 173 -1696 
C 294 -1760 397 -1792 518 -1792 
C 947 -1792 1222 -1562 1466 -1005 
L 2765 1990 
C 3021 2573 3142 2745 3302 2765 
L 3482 2777 
L 3482 2957 
C 2976 2937 2976 2937 2874 2937 
C 2771 2937 2771 2937 2266 2957 
L 2266 2777 
L 2432 2765 
C 2611 2752 2701 2694 2701 2605 
C 2701 2560 2688 2502 2662 2438 
L 1901 569 
z
" transform="scale(0.015625)"/>
       </defs>
       <use xlink:href="#URWPalladioL-Roma-53" transform="scale(0.996264)"/>
       <use xlink:href="#URWPalladioL-Roma-6f" transform="translate(52.303815 0)scale(0.996264)"/>
       <use xlink:href="#URWPalladioL-Roma-75" transform="translate(106.699395 0)scale(0.996264)"/>
       <use xlink:href="#URWPalladioL-Roma-74" transform="translate(166.77313 0)scale(0.996264)"/>
       <use xlink:href="#URWPalladioL-Roma-68" transform="translate(199.250218 0)scale(0.996264)"/>
       <use xlink:href="#URWPalladioL-Roma-54" transform="translate(282.138879 0)scale(0.996264)"/>
       <use xlink:href="#URWPalladioL-Roma-79" transform="translate(334.243353 0)scale(0.996264)"/>
       <use xlink:href="#URWPalladioL-Roma-72" transform="translate(389.63503 0)scale(0.996264)"/>
       <use xlink:href="#URWPalladioL-Roma-6f" transform="translate(427.194347 0)scale(0.996264)"/>
       <use xlink:href="#URWPalladioL-Roma-6c" transform="translate(481.589927 0)scale(0.996264)"/>
      </g>
     </g>
    </g>
    <g id="ytick_2">
     <g id="text_11">
      <!-- Belgium -->
      <g transform="translate(78.512108 348.100955)scale(0.1 -0.1)">
       <defs>
        <path id="URWPalladioL-Roma-42" d="M 2163 4416 
C 1274 4396 1274 4396 1178 4396 
C 1056 4396 1056 4396 166 4416 
L 166 4223 
L 397 4205 
C 698 4179 723 4135 723 3633 
L 723 623 
C 723 388 672 248 582 210 
L 416 147 
L 416 0 
C 858 -7 992 0 1114 0 
C 1184 0 1254 0 1331 -7 
C 1843 0 1843 0 1907 0 
C 2374 0 2797 115 3085 325 
C 3462 592 3686 1024 3686 1468 
C 3686 1792 3558 2052 3315 2223 
C 3072 2401 2854 2458 2362 2496 
C 2675 2560 2822 2617 3002 2738 
C 3309 2947 3469 3220 3469 3550 
C 3469 4109 3066 4416 2323 4416 
L 2163 4416 
z
M 1331 2319 
C 1581 2335 1638 2335 1760 2335 
C 2624 2335 3027 2024 3027 1343 
C 3027 669 2586 268 1824 268 
C 1638 268 1491 281 1331 319 
L 1331 2319 
z
M 1331 4110 
C 1498 4147 1645 4159 1850 4159 
C 2534 4159 2835 3932 2835 3407 
C 2835 2857 2451 2560 1722 2560 
C 1613 2560 1530 2560 1331 2572 
L 1331 4110 
z
" transform="scale(0.015625)"/>
        <path id="URWPalladioL-Roma-67" d="M 3322 2452 
L 3482 2713 
L 3456 2790 
L 2547 2764 
C 2310 2956 2080 3033 1766 3033 
C 1485 3033 1158 2944 896 2790 
C 538 2586 352 2274 352 1885 
C 352 1413 646 1087 1120 1036 
L 614 638 
C 550 540 518 455 518 358 
C 518 179 634 76 941 -13 
L 384 -315 
C 294 -367 205 -604 205 -804 
C 205 -1388 774 -1792 1587 -1792 
C 2554 -1792 3315 -1183 3315 -399 
C 3315 64 3008 384 2560 384 
L 1536 384 
C 1203 384 1050 462 1050 638 
C 1050 723 1101 795 1267 939 
C 1306 972 1318 985 1344 1011 
C 1408 1004 1446 998 1498 998 
C 1773 998 2112 1119 2374 1305 
C 2662 1515 2803 1770 2803 2108 
C 2803 2235 2784 2318 2733 2452 
L 3322 2452 
z
M 1536 2816 
C 1971 2816 2266 2458 2266 1917 
C 2266 1502 1997 1216 1606 1216 
C 1178 1216 890 1547 890 2038 
C 890 2529 1126 2816 1536 2816 
z
M 1837 -64 
C 2560 -64 2810 -212 2810 -630 
C 2810 -1183 2304 -1594 1632 -1594 
C 1075 -1594 691 -1266 691 -791 
C 691 -502 858 -238 1114 -129 
C 1216 -77 1395 -64 1837 -64 
z
" transform="scale(0.015625)"/>
       </defs>
       <use xlink:href="#URWPalladioL-Roma-42" transform="scale(0.996264)"/>
       <use xlink:href="#URWPalladioL-Roma-65" transform="translate(60.871631 0)scale(0.996264)"/>
       <use xlink:href="#URWPalladioL-Roma-6c" transform="translate(108.591926 0)scale(0.996264)"/>
       <use xlink:href="#URWPalladioL-Roma-67" transform="translate(137.582287 0)scale(0.996264)"/>
       <use xlink:href="#URWPalladioL-Roma-69" transform="translate(192.973964 0)scale(0.996264)"/>
       <use xlink:href="#URWPalladioL-Roma-75" transform="translate(221.964326 0)scale(0.996264)"/>
       <use xlink:href="#URWPalladioL-Roma-6d" transform="translate(282.03806 0)scale(0.996264)"/>
      </g>
     </g>
    </g>
    <g id="ytick_3">
     <g id="text_12">
      <!-- Italy -->
      <g transform="translate(95.488212 335.453046)scale(0.1 -0.1)">
       <defs>
        <path id="URWPalladioL-Roma-49" d="M 1382 3633 
C 1382 4135 1414 4185 1709 4204 
L 2016 4223 
L 2016 4416 
C 1549 4396 1408 4396 1075 4396 
C 755 4396 602 4403 141 4416 
L 141 4223 
L 448 4204 
C 742 4185 774 4135 774 3633 
L 774 782 
C 774 280 742 230 448 211 
L 141 192 
L 141 0 
C 518 -7 742 0 1075 0 
C 1408 19 1638 12 2016 0 
L 2016 192 
L 1709 211 
C 1414 230 1382 281 1382 787 
L 1382 3633 
z
" transform="scale(0.015625)"/>
       </defs>
       <use xlink:href="#URWPalladioL-Roma-49" transform="scale(0.996264)"/>
       <use xlink:href="#URWPalladioL-Roma-74" transform="translate(33.574079 0)scale(0.996264)"/>
       <use xlink:href="#URWPalladioL-Roma-61" transform="translate(66.051167 0)scale(0.996264)"/>
       <use xlink:href="#URWPalladioL-Roma-6c" transform="translate(115.864367 0)scale(0.996264)"/>
       <use xlink:href="#URWPalladioL-Roma-79" transform="translate(144.854729 0)scale(0.996264)"/>
      </g>
     </g>
    </g>
    <g id="ytick_4">
     <g id="text_13">
      <!-- Argentina -->
      <g transform="translate(70.970443 322.805138)scale(0.1 -0.1)">
       <defs>
        <path id="URWPalladioL-Roma-41" d="M 2611 4480 
L 2406 4480 
C 2291 4205 2195 3969 2157 3874 
L 1818 3103 
L 678 523 
C 602 338 474 223 333 210 
L 96 191 
L 96 0 
C 691 0 691 0 794 0 
C 877 19 877 19 1568 0 
L 1568 191 
L 1331 210 
C 1107 229 1024 273 1024 375 
C 1024 457 1114 730 1248 1047 
L 1427 1472 
L 3270 1472 
L 3565 742 
C 3674 476 3699 394 3699 337 
C 3699 267 3597 223 3437 210 
L 3136 191 
L 3136 0 
C 3923 0 3923 0 4026 0 
C 4147 19 4147 19 4838 0 
L 4838 191 
L 4621 210 
C 4454 235 4384 343 4160 857 
L 2611 4480 
z
M 1536 1728 
L 2349 3630 
L 3155 1728 
L 1536 1728 
z
" transform="scale(0.015625)"/>
       </defs>
       <use xlink:href="#URWPalladioL-Roma-41" transform="scale(0.996264)"/>
       <use xlink:href="#URWPalladioL-Roma-72" transform="translate(77.50837 0)scale(0.996264)"/>
       <use xlink:href="#URWPalladioL-Roma-67" transform="translate(115.067687 0)scale(0.996264)"/>
       <use xlink:href="#URWPalladioL-Roma-65" transform="translate(170.459364 0)scale(0.996264)"/>
       <use xlink:href="#URWPalladioL-Roma-6e" transform="translate(218.17966 0)scale(0.996264)"/>
       <use xlink:href="#URWPalladioL-Roma-74" transform="translate(276.16172 0)scale(0.996264)"/>
       <use xlink:href="#URWPalladioL-Roma-69" transform="translate(308.638808 0)scale(0.996264)"/>
       <use xlink:href="#URWPalladioL-Roma-6e" transform="translate(337.62917 0)scale(0.996264)"/>
       <use xlink:href="#URWPalladioL-Roma-61" transform="translate(395.61123 0)scale(0.996264)"/>
      </g>
     </g>
    </g>
    <g id="ytick_5">
     <g id="text_14">
      <!-- Trinidad and Tobago -->
      <g transform="translate(23.66803 310.157229)scale(0.1 -0.1)">
       <defs>
        <path id="URWPalladioL-Roma-64" d="M 2637 2803 
C 2278 2956 2099 3008 1875 3008 
C 1702 3008 1549 2969 1389 2886 
L 826 2592 
C 461 2400 224 1934 224 1392 
C 224 881 397 460 710 204 
C 928 19 1229 -64 1645 -64 
C 1773 -64 1920 -39 1952 -13 
L 2662 581 
L 2630 0 
C 2944 -7 3046 0 3123 0 
C 3174 0 3264 0 3398 -7 
C 3443 6 3571 6 3706 0 
L 3706 192 
L 3411 211 
C 3194 224 3174 268 3174 672 
L 3174 4614 
L 3117 4665 
C 2835 4557 2624 4505 2118 4429 
L 2118 4249 
L 2477 4249 
C 2592 4249 2637 4179 2637 3987 
L 2637 2803 
z
M 2637 1424 
C 2637 1009 2624 945 2541 798 
C 2362 498 2048 300 1747 300 
C 1184 300 781 843 781 1602 
C 781 2298 1126 2707 1702 2707 
C 1946 2707 2202 2624 2426 2470 
C 2560 2381 2637 2298 2637 2247 
L 2637 1424 
z
" transform="scale(0.015625)"/>
       </defs>
       <use xlink:href="#URWPalladioL-Roma-54" transform="scale(0.996264)"/>
       <use xlink:href="#URWPalladioL-Roma-72" transform="translate(52.104474 0)scale(0.996264)"/>
       <use xlink:href="#URWPalladioL-Roma-69" transform="translate(91.45637 0)scale(0.996264)"/>
       <use xlink:href="#URWPalladioL-Roma-6e" transform="translate(120.446732 0)scale(0.996264)"/>
       <use xlink:href="#URWPalladioL-Roma-69" transform="translate(178.428792 0)scale(0.996264)"/>
       <use xlink:href="#URWPalladioL-Roma-64" transform="translate(207.419154 0)scale(0.996264)"/>
       <use xlink:href="#URWPalladioL-Roma-61" transform="translate(268.290785 0)scale(0.996264)"/>
       <use xlink:href="#URWPalladioL-Roma-64" transform="translate(318.103985 0)scale(0.996264)"/>
       <use xlink:href="#URWPalladioL-Roma-61" transform="translate(403.882216 0)scale(0.996264)"/>
       <use xlink:href="#URWPalladioL-Roma-6e" transform="translate(453.695416 0)scale(0.996264)"/>
       <use xlink:href="#URWPalladioL-Roma-64" transform="translate(511.677477 0)scale(0.996264)"/>
       <use xlink:href="#URWPalladioL-Roma-54" transform="translate(597.455708 0)scale(0.996264)"/>
       <use xlink:href="#URWPalladioL-Roma-6f" transform="translate(649.360659 0)scale(0.996264)"/>
       <use xlink:href="#URWPalladioL-Roma-62" transform="translate(703.756239 0)scale(0.996264)"/>
       <use xlink:href="#URWPalladioL-Roma-61" transform="translate(758.848638 0)scale(0.996264)"/>
       <use xlink:href="#URWPalladioL-Roma-67" transform="translate(808.661839 0)scale(0.996264)"/>
       <use xlink:href="#URWPalladioL-Roma-6f" transform="translate(864.053516 0)scale(0.996264)"/>
      </g>
     </g>
    </g>
    <g id="ytick_6">
     <g id="text_15">
      <!-- Moldova -->
      <g transform="translate(75.61284 297.50932)scale(0.1 -0.1)">
       <defs>
        <path id="URWPalladioL-Roma-4d" d="M 4685 787 
C 4685 281 4659 236 4358 211 
L 4141 192 
L 4141 0 
C 4435 -7 4627 0 4960 0 
C 5318 19 5549 12 5926 0 
L 5926 192 
L 5619 211 
C 5325 230 5293 280 5293 782 
L 5293 3633 
C 5293 4128 5325 4185 5619 4204 
L 5888 4223 
L 5888 4416 
C 5402 4396 5402 4396 5293 4396 
C 5197 4396 5197 4396 4685 4416 
L 3008 884 
L 1318 4416 
C 806 4396 806 4396 710 4396 
C 614 4396 614 4396 102 4416 
L 102 4223 
L 384 4204 
C 678 4185 710 4128 710 3633 
L 710 782 
C 710 287 678 230 384 211 
L 102 192 
L 102 0 
C 736 0 736 0 845 0 
C 941 19 941 19 1613 0 
L 1613 192 
L 1331 211 
C 1037 230 1005 288 1005 787 
L 1005 3718 
L 2790 -64 
L 2918 -64 
C 2963 32 3002 134 3040 230 
C 3142 480 3219 659 3264 748 
L 4403 3168 
C 4493 3353 4570 3501 4685 3718 
L 4685 787 
z
" transform="scale(0.015625)"/>
        <path id="URWPalladioL-Roma-76" d="M 3450 2739 
L 3450 2918 
C 3066 2905 2950 2899 2848 2899 
C 2746 2899 2630 2905 2246 2918 
L 2246 2739 
L 2509 2726 
C 2611 2720 2662 2662 2662 2560 
C 2662 2457 2618 2284 2541 2092 
L 2272 1414 
C 2195 1228 2118 1049 1875 518 
L 1114 2361 
C 1075 2451 1056 2534 1056 2604 
C 1056 2675 1114 2720 1216 2726 
L 1530 2739 
L 1530 2918 
C 902 2899 902 2899 781 2899 
C 659 2899 352 2905 38 2918 
L 38 2739 
L 256 2726 
C 352 2713 384 2675 454 2515 
L 1555 -64 
L 1875 -64 
C 1914 44 1978 211 1978 224 
C 2048 416 2131 633 2138 633 
L 2893 2297 
C 3034 2598 3123 2713 3251 2726 
L 3450 2739 
z
" transform="scale(0.015625)"/>
       </defs>
       <use xlink:href="#URWPalladioL-Roma-4d" transform="scale(0.996264)"/>
       <use xlink:href="#URWPalladioL-Roma-6f" transform="translate(94.246201 0)scale(0.996264)"/>
       <use xlink:href="#URWPalladioL-Roma-6c" transform="translate(148.641782 0)scale(0.996264)"/>
       <use xlink:href="#URWPalladioL-Roma-64" transform="translate(177.632143 0)scale(0.996264)"/>
       <use xlink:href="#URWPalladioL-Roma-6f" transform="translate(238.503774 0)scale(0.996264)"/>
       <use xlink:href="#URWPalladioL-Roma-76" transform="translate(292.899354 0)scale(0.996264)"/>
       <use xlink:href="#URWPalladioL-Roma-61" transform="translate(349.187267 0)scale(0.996264)"/>
      </g>
     </g>
    </g>
    <g id="ytick_7">
     <g id="text_16">
      <!-- Armenia -->
      <g transform="translate(76.579293 284.861411)scale(0.1 -0.1)">
       <use xlink:href="#URWPalladioL-Roma-41" transform="scale(0.996264)"/>
       <use xlink:href="#URWPalladioL-Roma-72" transform="translate(77.50837 0)scale(0.996264)"/>
       <use xlink:href="#URWPalladioL-Roma-6d" transform="translate(116.860266 0)scale(0.996264)"/>
       <use xlink:href="#URWPalladioL-Roma-65" transform="translate(204.829941 0)scale(0.996264)"/>
       <use xlink:href="#URWPalladioL-Roma-6e" transform="translate(252.550236 0)scale(0.996264)"/>
       <use xlink:href="#URWPalladioL-Roma-69" transform="translate(310.532296 0)scale(0.996264)"/>
       <use xlink:href="#URWPalladioL-Roma-61" transform="translate(339.522658 0)scale(0.996264)"/>
      </g>
     </g>
    </g>
    <g id="ytick_8">
     <g id="text_17">
      <!-- Greece -->
      <g transform="translate(85.416135 272.213503)scale(0.1 -0.1)">
       <defs>
        <path id="URWPalladioL-Roma-47" d="M 4102 3307 
L 4301 3307 
C 4301 3634 4339 3935 4429 4281 
C 3718 4486 3392 4544 2880 4544 
C 1229 4544 141 3608 141 2185 
C 141 1538 358 961 762 570 
C 1203 128 1894 -128 2637 -128 
C 3091 -128 3533 -45 4403 198 
L 4403 1275 
C 4403 1474 4410 1486 4474 1512 
L 4659 1576 
L 4634 1736 
C 4064 1724 4045 1724 3846 1724 
C 3661 1724 3622 1724 3066 1736 
L 3066 1544 
L 3597 1499 
C 3757 1486 3814 1429 3814 1275 
L 3814 627 
C 3814 474 3802 397 3776 352 
C 3706 230 3322 140 2899 140 
C 1632 140 826 986 826 2320 
C 826 3557 1517 4275 2714 4275 
C 3046 4275 3328 4236 3571 4159 
C 3942 4038 4102 3890 4102 3647 
L 4102 3307 
z
" transform="scale(0.015625)"/>
       </defs>
       <use xlink:href="#URWPalladioL-Roma-47" transform="scale(0.996264)"/>
       <use xlink:href="#URWPalladioL-Roma-72" transform="translate(76.013746 0)scale(0.996264)"/>
       <use xlink:href="#URWPalladioL-Roma-65" transform="translate(113.573063 0)scale(0.996264)"/>
       <use xlink:href="#URWPalladioL-Roma-65" transform="translate(161.293359 0)scale(0.996264)"/>
       <use xlink:href="#URWPalladioL-Roma-63" transform="translate(209.013654 0)scale(0.996264)"/>
       <use xlink:href="#URWPalladioL-Roma-65" transform="translate(253.247222 0)scale(0.996264)"/>
      </g>
     </g>
    </g>
    <g id="ytick_9">
     <g id="text_18">
      <!-- Chile -->
      <g transform="translate(92.081083 259.565594)scale(0.1 -0.1)">
       <defs>
        <path id="URWPalladioL-Roma-43" d="M 4288 538 
L 4230 602 
C 3834 345 3392 217 2906 217 
C 1658 217 826 1050 826 2313 
C 826 3493 1555 4275 2656 4275 
C 3283 4275 3930 4018 3930 3768 
L 3930 3307 
L 4128 3307 
C 4134 3627 4160 3858 4250 4281 
C 3706 4460 3238 4544 2771 4544 
C 2214 4544 1683 4409 1254 4159 
C 525 3730 141 3057 141 2191 
C 141 807 1152 -128 2656 -128 
C 3187 -128 3667 -13 4109 217 
L 4288 538 
z
" transform="scale(0.015625)"/>
       </defs>
       <use xlink:href="#URWPalladioL-Roma-43" transform="scale(0.996264)"/>
       <use xlink:href="#URWPalladioL-Roma-68" transform="translate(70.634793 0)scale(0.996264)"/>
       <use xlink:href="#URWPalladioL-Roma-69" transform="translate(128.616854 0)scale(0.996264)"/>
       <use xlink:href="#URWPalladioL-Roma-6c" transform="translate(157.607215 0)scale(0.996264)"/>
       <use xlink:href="#URWPalladioL-Roma-65" transform="translate(186.597577 0)scale(0.996264)"/>
      </g>
     </g>
    </g>
    <g id="ytick_10">
     <g id="text_19">
      <!-- Poland -->
      <g transform="translate(84.29023 246.917685)scale(0.1 -0.1)">
       <defs>
        <path id="URWPalladioL-Roma-50" d="M 1382 4097 
C 1606 4147 1792 4172 2010 4172 
C 2701 4172 3072 3859 3072 3263 
C 3072 2699 2682 2304 2125 2304 
C 1990 2304 1894 2316 1728 2366 
L 1792 2137 
C 1946 2105 2035 2099 2163 2099 
C 3040 2099 3712 2686 3712 3439 
C 3712 4041 3213 4416 2400 4416 
C 2368 4416 2304 4416 2221 4409 
C 1984 4403 1498 4396 1312 4396 
C 1171 4396 1171 4396 147 4416 
L 147 4223 
L 435 4204 
C 723 4185 774 4103 774 3633 
L 774 782 
C 774 280 742 230 448 211 
L 141 192 
L 141 0 
C 518 -7 742 0 1075 0 
C 1408 19 1638 12 2016 0 
L 2016 192 
L 1709 211 
C 1414 230 1382 281 1382 787 
L 1382 4097 
z
" transform="scale(0.015625)"/>
       </defs>
       <use xlink:href="#URWPalladioL-Roma-50" transform="scale(0.996264)"/>
       <use xlink:href="#URWPalladioL-Roma-6f" transform="translate(60.173595 0)scale(0.996264)"/>
       <use xlink:href="#URWPalladioL-Roma-6c" transform="translate(114.569175 0)scale(0.996264)"/>
       <use xlink:href="#URWPalladioL-Roma-61" transform="translate(143.559537 0)scale(0.996264)"/>
       <use xlink:href="#URWPalladioL-Roma-6e" transform="translate(193.372737 0)scale(0.996264)"/>
       <use xlink:href="#URWPalladioL-Roma-64" transform="translate(251.354798 0)scale(0.996264)"/>
      </g>
     </g>
    </g>
    <g id="ytick_11">
     <g id="text_20">
      <!-- USA -->
      <g transform="translate(94.780813 234.269776)scale(0.1 -0.1)">
       <defs>
        <path id="URWPalladioL-Roma-55" d="M 4250 3630 
C 4250 4128 4282 4185 4576 4204 
L 4858 4223 
L 4858 4416 
C 4186 4396 4186 4396 4090 4396 
C 3981 4396 3981 4396 3347 4416 
L 3347 4223 
L 3629 4204 
C 3923 4185 3955 4128 3955 3630 
L 3955 1589 
C 3955 689 3520 268 2592 268 
C 1702 268 1318 619 1318 1436 
L 1318 3630 
C 1318 4134 1350 4185 1645 4204 
L 1952 4223 
L 1952 4416 
C 1485 4396 1344 4396 1011 4396 
C 691 4396 538 4403 77 4416 
L 77 4223 
L 384 4204 
C 678 4185 710 4134 710 3630 
L 710 1365 
C 710 868 826 517 1069 268 
C 1325 6 1779 -128 2419 -128 
C 3078 -128 3520 6 3808 300 
C 4109 600 4250 1078 4250 1787 
L 4250 3630 
z
" transform="scale(0.015625)"/>
       </defs>
       <use xlink:href="#URWPalladioL-Roma-55" transform="scale(0.996264)"/>
       <use xlink:href="#URWPalladioL-Roma-53" transform="translate(77.50837 0)scale(0.996264)"/>
       <use xlink:href="#URWPalladioL-Roma-41" transform="translate(129.812185 0)scale(0.996264)"/>
      </g>
     </g>
    </g>
    <g id="ytick_12">
     <g id="text_21">
      <!-- Brazil -->
      <g transform="translate(89.729808 221.621868)scale(0.1 -0.1)">
       <defs>
        <path id="URWPalladioL-Roma-7a" d="M 2912 2771 
L 2912 2963 
C 2464 2950 2272 2944 2029 2944 
L 442 2963 
C 429 2637 422 2560 384 2121 
L 576 2121 
L 653 2554 
C 678 2688 794 2719 1267 2719 
L 2182 2719 
C 2048 2509 1939 2363 1766 2146 
L 678 796 
C 525 611 435 503 102 128 
L 141 0 
C 806 0 845 0 1120 0 
L 2886 0 
C 2886 147 2899 300 2944 608 
L 2982 908 
L 2790 908 
L 2675 403 
C 2650 268 2381 224 1766 224 
L 902 224 
L 2912 2771 
z
" transform="scale(0.015625)"/>
       </defs>
       <use xlink:href="#URWPalladioL-Roma-42" transform="scale(0.996264)"/>
       <use xlink:href="#URWPalladioL-Roma-72" transform="translate(60.871631 0)scale(0.996264)"/>
       <use xlink:href="#URWPalladioL-Roma-61" transform="translate(100.223527 0)scale(0.996264)"/>
       <use xlink:href="#URWPalladioL-Roma-7a" transform="translate(150.036728 0)scale(0.996264)"/>
       <use xlink:href="#URWPalladioL-Roma-69" transform="translate(199.849928 0)scale(0.996264)"/>
       <use xlink:href="#URWPalladioL-Roma-6c" transform="translate(228.840289 0)scale(0.996264)"/>
      </g>
     </g>
    </g>
    <g id="ytick_13">
     <g id="text_22">
      <!-- Latvia -->
      <g transform="translate(87.687524 208.973959)scale(0.1 -0.1)">
       <defs>
        <path id="URWPalladioL-Roma-4c" d="M 1382 3630 
C 1382 4134 1414 4185 1709 4204 
L 2016 4223 
L 2016 4416 
C 1549 4396 1408 4396 1075 4396 
C 755 4396 602 4403 141 4416 
L 141 4223 
L 448 4204 
C 742 4185 774 4134 774 3630 
L 774 606 
C 774 421 717 281 614 230 
L 416 128 
L 416 -20 
C 838 0 883 0 1050 0 
C 1107 0 1210 0 1350 -7 
C 1664 6 2362 0 2541 0 
C 2746 -20 2746 -20 3616 0 
C 3661 275 3686 480 3750 1100 
L 3546 1100 
L 3469 780 
C 3462 761 3456 716 3450 710 
C 3411 524 3366 396 3328 364 
C 3245 313 2688 268 1926 268 
C 1696 268 1549 281 1382 320 
L 1382 3630 
z
" transform="scale(0.015625)"/>
       </defs>
       <use xlink:href="#URWPalladioL-Roma-4c" transform="scale(0.996264)"/>
       <use xlink:href="#URWPalladioL-Roma-61" transform="translate(60.871631 0)scale(0.996264)"/>
       <use xlink:href="#URWPalladioL-Roma-74" transform="translate(110.684831 0)scale(0.996264)"/>
       <use xlink:href="#URWPalladioL-Roma-76" transform="translate(143.161919 0)scale(0.996264)"/>
       <use xlink:href="#URWPalladioL-Roma-69" transform="translate(199.449832 0)scale(0.996264)"/>
       <use xlink:href="#URWPalladioL-Roma-61" transform="translate(228.440194 0)scale(0.996264)"/>
      </g>
     </g>
    </g>
    <g id="ytick_14">
     <g id="text_23">
      <!-- Slovenia -->
      <g transform="translate(77.864543 196.32605)scale(0.1 -0.1)">
       <use xlink:href="#URWPalladioL-Roma-53" transform="scale(0.996264)"/>
       <use xlink:href="#URWPalladioL-Roma-6c" transform="translate(52.303815 0)scale(0.996264)"/>
       <use xlink:href="#URWPalladioL-Roma-6f" transform="translate(81.294176 0)scale(0.996264)"/>
       <use xlink:href="#URWPalladioL-Roma-76" transform="translate(135.689757 0)scale(0.996264)"/>
       <use xlink:href="#URWPalladioL-Roma-65" transform="translate(191.97767 0)scale(0.996264)"/>
       <use xlink:href="#URWPalladioL-Roma-6e" transform="translate(239.697965 0)scale(0.996264)"/>
       <use xlink:href="#URWPalladioL-Roma-69" transform="translate(297.680026 0)scale(0.996264)"/>
       <use xlink:href="#URWPalladioL-Roma-61" transform="translate(326.670387 0)scale(0.996264)"/>
      </g>
     </g>
    </g>
    <g id="ytick_15">
     <g id="text_24">
      <!-- Lithuania -->
      <g transform="translate(72.813507 183.678141)scale(0.1 -0.1)">
       <use xlink:href="#URWPalladioL-Roma-4c" transform="scale(0.996264)"/>
       <use xlink:href="#URWPalladioL-Roma-69" transform="translate(60.871631 0)scale(0.996264)"/>
       <use xlink:href="#URWPalladioL-Roma-74" transform="translate(89.861992 0)scale(0.996264)"/>
       <use xlink:href="#URWPalladioL-Roma-68" transform="translate(122.33908 0)scale(0.996264)"/>
       <use xlink:href="#URWPalladioL-Roma-75" transform="translate(180.321141 0)scale(0.996264)"/>
       <use xlink:href="#URWPalladioL-Roma-61" transform="translate(240.394875 0)scale(0.996264)"/>
       <use xlink:href="#URWPalladioL-Roma-6e" transform="translate(290.208076 0)scale(0.996264)"/>
       <use xlink:href="#URWPalladioL-Roma-69" transform="translate(348.190137 0)scale(0.996264)"/>
       <use xlink:href="#URWPalladioL-Roma-61" transform="translate(377.180498 0)scale(0.996264)"/>
      </g>
     </g>
    </g>
    <g id="ytick_16">
     <g id="text_25">
      <!-- Romania -->
      <g transform="translate(75.961493 171.030233)scale(0.1 -0.1)">
       <defs>
        <path id="URWPalladioL-Roma-52" d="M 1382 4096 
C 1600 4147 1792 4172 2010 4172 
C 2675 4172 3046 3867 3046 3328 
C 3046 2744 2579 2375 1837 2375 
C 1792 2375 1734 2375 1651 2382 
L 1613 2306 
C 1683 2223 1702 2198 1779 2115 
C 1869 2014 1888 1988 1946 1912 
L 3123 344 
C 3162 293 3200 242 3238 198 
C 3283 140 3322 83 3386 0 
C 3686 0 3750 0 3821 0 
C 3878 19 3878 19 4282 0 
L 4282 192 
C 4077 211 3974 249 3891 357 
L 2438 2236 
C 2797 2325 2963 2394 3174 2541 
C 3507 2775 3686 3093 3686 3461 
C 3686 4071 3238 4416 2445 4416 
L 2342 4416 
C 1510 4396 1510 4396 1293 4396 
C 1082 4396 1082 4396 186 4416 
L 186 4223 
L 448 4204 
C 742 4185 774 4128 774 3633 
L 774 782 
C 774 280 742 230 448 211 
L 141 192 
L 141 0 
C 518 -7 742 0 1075 0 
C 1408 19 1638 12 2016 0 
L 2016 192 
L 1709 211 
C 1414 230 1382 281 1382 787 
L 1382 4096 
z
" transform="scale(0.015625)"/>
       </defs>
       <use xlink:href="#URWPalladioL-Roma-52" transform="scale(0.996264)"/>
       <use xlink:href="#URWPalladioL-Roma-6f" transform="translate(66.549694 0)scale(0.996264)"/>
       <use xlink:href="#URWPalladioL-Roma-6d" transform="translate(120.945274 0)scale(0.996264)"/>
       <use xlink:href="#URWPalladioL-Roma-61" transform="translate(208.914948 0)scale(0.996264)"/>
       <use xlink:href="#URWPalladioL-Roma-6e" transform="translate(258.728149 0)scale(0.996264)"/>
       <use xlink:href="#URWPalladioL-Roma-69" transform="translate(316.71021 0)scale(0.996264)"/>
       <use xlink:href="#URWPalladioL-Roma-61" transform="translate(345.700571 0)scale(0.996264)"/>
      </g>
     </g>
    </g>
    <g id="ytick_17">
     <g id="text_26">
      <!-- Slovakia -->
      <g transform="translate(77.914283 158.382324)scale(0.1 -0.1)">
       <defs>
        <path id="URWPalladioL-Roma-6b" d="M 147 4249 
L 506 4249 
C 621 4249 666 4179 666 3987 
L 666 672 
C 666 268 646 224 429 211 
L 134 192 
L 134 0 
C 774 0 774 0 941 0 
C 1120 19 1152 19 1722 0 
L 1722 192 
L 1440 211 
C 1222 224 1203 268 1203 672 
L 1203 1555 
L 2899 -64 
L 3514 121 
L 3514 268 
C 3360 268 3174 377 2970 576 
L 2163 1376 
C 1933 1600 1862 1683 1754 1811 
L 2579 2457 
C 2880 2688 3053 2764 3270 2758 
L 3270 2950 
L 2630 2950 
C 2221 2540 1920 2259 1670 2060 
L 1203 1683 
L 1203 4608 
L 1146 4659 
C 864 4550 653 4499 147 4422 
L 147 4249 
z
" transform="scale(0.015625)"/>
       </defs>
       <use xlink:href="#URWPalladioL-Roma-53" transform="scale(0.996264)"/>
       <use xlink:href="#URWPalladioL-Roma-6c" transform="translate(52.303815 0)scale(0.996264)"/>
       <use xlink:href="#URWPalladioL-Roma-6f" transform="translate(81.294176 0)scale(0.996264)"/>
       <use xlink:href="#URWPalladioL-Roma-76" transform="translate(135.689757 0)scale(0.996264)"/>
       <use xlink:href="#URWPalladioL-Roma-61" transform="translate(191.97767 0)scale(0.996264)"/>
       <use xlink:href="#URWPalladioL-Roma-6b" transform="translate(241.79087 0)scale(0.996264)"/>
       <use xlink:href="#URWPalladioL-Roma-69" transform="translate(297.182547 0)scale(0.996264)"/>
       <use xlink:href="#URWPalladioL-Roma-61" transform="translate(326.172909 0)scale(0.996264)"/>
      </g>
     </g>
    </g>
    <g id="ytick_18">
     <g id="text_27">
      <!-- Czechia -->
      <g transform="translate(80.594114 145.734415)scale(0.1 -0.1)">
       <use xlink:href="#URWPalladioL-Roma-43" transform="scale(0.996264)"/>
       <use xlink:href="#URWPalladioL-Roma-7a" transform="translate(70.634793 0)scale(0.996264)"/>
       <use xlink:href="#URWPalladioL-Roma-65" transform="translate(120.447993 0)scale(0.996264)"/>
       <use xlink:href="#URWPalladioL-Roma-63" transform="translate(168.168289 0)scale(0.996264)"/>
       <use xlink:href="#URWPalladioL-Roma-68" transform="translate(212.401857 0)scale(0.996264)"/>
       <use xlink:href="#URWPalladioL-Roma-69" transform="translate(270.383918 0)scale(0.996264)"/>
       <use xlink:href="#URWPalladioL-Roma-61" transform="translate(299.374279 0)scale(0.996264)"/>
      </g>
     </g>
    </g>
    <g id="ytick_19">
     <g id="text_28">
      <!-- Croatia -->
      <g transform="translate(83.144517 133.086506)scale(0.1 -0.1)">
       <use xlink:href="#URWPalladioL-Roma-43" transform="scale(0.996264)"/>
       <use xlink:href="#URWPalladioL-Roma-72" transform="translate(70.634793 0)scale(0.996264)"/>
       <use xlink:href="#URWPalladioL-Roma-6f" transform="translate(108.19411 0)scale(0.996264)"/>
       <use xlink:href="#URWPalladioL-Roma-61" transform="translate(162.589691 0)scale(0.996264)"/>
       <use xlink:href="#URWPalladioL-Roma-74" transform="translate(212.402891 0)scale(0.996264)"/>
       <use xlink:href="#URWPalladioL-Roma-69" transform="translate(244.879979 0)scale(0.996264)"/>
       <use xlink:href="#URWPalladioL-Roma-61" transform="translate(273.87034 0)scale(0.996264)"/>
      </g>
     </g>
    </g>
    <g id="ytick_20">
     <g id="text_29">
      <!-- Georgia -->
      <g transform="translate(80.524475 120.438598)scale(0.1 -0.1)">
       <use xlink:href="#URWPalladioL-Roma-47" transform="scale(0.996264)"/>
       <use xlink:href="#URWPalladioL-Roma-65" transform="translate(76.013746 0)scale(0.996264)"/>
       <use xlink:href="#URWPalladioL-Roma-6f" transform="translate(123.734041 0)scale(0.996264)"/>
       <use xlink:href="#URWPalladioL-Roma-72" transform="translate(178.129621 0)scale(0.996264)"/>
       <use xlink:href="#URWPalladioL-Roma-67" transform="translate(215.688939 0)scale(0.996264)"/>
       <use xlink:href="#URWPalladioL-Roma-69" transform="translate(271.080616 0)scale(0.996264)"/>
       <use xlink:href="#URWPalladioL-Roma-61" transform="translate(300.070977 0)scale(0.996264)"/>
      </g>
     </g>
    </g>
    <g id="ytick_21">
     <g id="text_30">
      <!-- Montenegro -->
      <g transform="translate(61.52588 107.790689)scale(0.1 -0.1)">
       <use xlink:href="#URWPalladioL-Roma-4d" transform="scale(0.996264)"/>
       <use xlink:href="#URWPalladioL-Roma-6f" transform="translate(94.246201 0)scale(0.996264)"/>
       <use xlink:href="#URWPalladioL-Roma-6e" transform="translate(148.641782 0)scale(0.996264)"/>
       <use xlink:href="#URWPalladioL-Roma-74" transform="translate(206.623842 0)scale(0.996264)"/>
       <use xlink:href="#URWPalladioL-Roma-65" transform="translate(239.10093 0)scale(0.996264)"/>
       <use xlink:href="#URWPalladioL-Roma-6e" transform="translate(286.821225 0)scale(0.996264)"/>
       <use xlink:href="#URWPalladioL-Roma-65" transform="translate(344.803286 0)scale(0.996264)"/>
       <use xlink:href="#URWPalladioL-Roma-67" transform="translate(392.523581 0)scale(0.996264)"/>
       <use xlink:href="#URWPalladioL-Roma-72" transform="translate(447.915258 0)scale(0.996264)"/>
       <use xlink:href="#URWPalladioL-Roma-6f" transform="translate(485.474575 0)scale(0.996264)"/>
      </g>
     </g>
    </g>
    <g id="ytick_22">
     <g id="text_31">
      <!-- North Macedonia -->
      <g transform="translate(37.516078 95.14278)scale(0.1 -0.1)">
       <defs>
        <path id="URWPalladioL-Roma-4e" d="M 877 4396 
C 518 4403 461 4403 109 4416 
L 109 4223 
L 390 4204 
C 685 4185 717 4128 717 3633 
L 717 782 
C 717 287 685 230 390 211 
L 109 192 
L 109 0 
C 742 0 742 0 851 0 
C 947 19 947 19 1619 0 
L 1619 192 
L 1338 211 
C 1043 230 1011 287 1011 782 
L 1011 3722 
L 4038 -7 
L 4614 -109 
C 4614 -84 4614 -77 4608 -33 
C 4602 38 4595 89 4595 128 
L 4595 3633 
C 4595 4128 4627 4185 4922 4204 
L 5203 4223 
L 5203 4416 
C 4531 4396 4531 4396 4435 4396 
C 4326 4396 4326 4396 3693 4416 
L 3693 4223 
L 3974 4204 
C 4269 4185 4301 4128 4301 3633 
L 4301 642 
L 1222 4416 
L 877 4396 
z
" transform="scale(0.015625)"/>
       </defs>
       <use xlink:href="#URWPalladioL-Roma-4e" transform="scale(0.996264)"/>
       <use xlink:href="#URWPalladioL-Roma-6f" transform="translate(82.788907 0)scale(0.996264)"/>
       <use xlink:href="#URWPalladioL-Roma-72" transform="translate(137.184487 0)scale(0.996264)"/>
       <use xlink:href="#URWPalladioL-Roma-74" transform="translate(176.536383 0)scale(0.996264)"/>
       <use xlink:href="#URWPalladioL-Roma-68" transform="translate(209.013471 0)scale(0.996264)"/>
       <use xlink:href="#URWPalladioL-Roma-4d" transform="translate(291.902132 0)scale(0.996264)"/>
       <use xlink:href="#URWPalladioL-Roma-61" transform="translate(386.148334 0)scale(0.996264)"/>
       <use xlink:href="#URWPalladioL-Roma-63" transform="translate(435.961534 0)scale(0.996264)"/>
       <use xlink:href="#URWPalladioL-Roma-65" transform="translate(480.195103 0)scale(0.996264)"/>
       <use xlink:href="#URWPalladioL-Roma-64" transform="translate(527.915398 0)scale(0.996264)"/>
       <use xlink:href="#URWPalladioL-Roma-6f" transform="translate(588.787029 0)scale(0.996264)"/>
       <use xlink:href="#URWPalladioL-Roma-6e" transform="translate(643.182609 0)scale(0.996264)"/>
       <use xlink:href="#URWPalladioL-Roma-69" transform="translate(701.164669 0)scale(0.996264)"/>
       <use xlink:href="#URWPalladioL-Roma-61" transform="translate(730.155031 0)scale(0.996264)"/>
      </g>
     </g>
    </g>
    <g id="ytick_23">
     <g id="text_32">
      <!-- Hungary -->
      <g transform="translate(75.423577 82.494871)scale(0.1 -0.1)">
       <defs>
        <path id="URWPalladioL-Roma-48" d="M 3942 787 
C 3942 281 3910 230 3616 211 
L 3309 192 
L 3309 0 
C 3686 -7 3910 0 4243 0 
C 4576 19 4806 12 5184 0 
L 5184 192 
L 4877 211 
C 4582 230 4550 281 4550 783 
L 4550 3635 
C 4550 4135 4582 4186 4877 4205 
L 5184 4223 
L 5184 4416 
C 4717 4396 4576 4396 4243 4396 
C 3923 4396 3770 4403 3309 4416 
L 3309 4223 
L 3616 4205 
C 3910 4186 3942 4135 3942 3635 
L 3942 2508 
C 3808 2502 3674 2496 3411 2496 
L 1914 2496 
C 1651 2496 1510 2502 1382 2508 
L 1382 3635 
C 1382 4135 1414 4186 1709 4205 
L 2016 4223 
L 2016 4416 
C 1549 4396 1408 4396 1075 4396 
C 755 4396 602 4403 141 4416 
L 141 4223 
L 448 4205 
C 742 4186 774 4135 774 3635 
L 774 783 
C 774 281 742 230 448 211 
L 141 192 
L 141 0 
C 518 -7 742 0 1075 0 
C 1408 19 1638 12 2016 0 
L 2016 192 
L 1709 211 
C 1414 230 1382 281 1382 783 
L 1382 2201 
C 1555 2214 1658 2214 1914 2214 
L 3411 2214 
C 3667 2214 3770 2214 3942 2201 
L 3942 787 
z
" transform="scale(0.015625)"/>
       </defs>
       <use xlink:href="#URWPalladioL-Roma-48" transform="scale(0.996264)"/>
       <use xlink:href="#URWPalladioL-Roma-75" transform="translate(82.888661 0)scale(0.996264)"/>
       <use xlink:href="#URWPalladioL-Roma-6e" transform="translate(142.962396 0)scale(0.996264)"/>
       <use xlink:href="#URWPalladioL-Roma-67" transform="translate(200.944456 0)scale(0.996264)"/>
       <use xlink:href="#URWPalladioL-Roma-61" transform="translate(256.336133 0)scale(0.996264)"/>
       <use xlink:href="#URWPalladioL-Roma-72" transform="translate(306.149334 0)scale(0.996264)"/>
       <use xlink:href="#URWPalladioL-Roma-79" transform="translate(345.50123 0)scale(0.996264)"/>
      </g>
     </g>
    </g>
    <g id="ytick_24">
     <g id="text_33">
      <!-- Bosnia and Herzegovina -->
      <g transform="translate(7.2 69.846963)scale(0.1 -0.1)">
       <use xlink:href="#URWPalladioL-Roma-42" transform="scale(0.996264)"/>
       <use xlink:href="#URWPalladioL-Roma-6f" transform="translate(60.871631 0)scale(0.996264)"/>
       <use xlink:href="#URWPalladioL-Roma-73" transform="translate(115.267211 0)scale(0.996264)"/>
       <use xlink:href="#URWPalladioL-Roma-6e" transform="translate(157.508677 0)scale(0.996264)"/>
       <use xlink:href="#URWPalladioL-Roma-69" transform="translate(215.490738 0)scale(0.996264)"/>
       <use xlink:href="#URWPalladioL-Roma-61" transform="translate(244.481099 0)scale(0.996264)"/>
       <use xlink:href="#URWPalladioL-Roma-61" transform="translate(319.2009 0)scale(0.996264)"/>
       <use xlink:href="#URWPalladioL-Roma-6e" transform="translate(369.014101 0)scale(0.996264)"/>
       <use xlink:href="#URWPalladioL-Roma-64" transform="translate(426.996161 0)scale(0.996264)"/>
       <use xlink:href="#URWPalladioL-Roma-48" transform="translate(512.774392 0)scale(0.996264)"/>
       <use xlink:href="#URWPalladioL-Roma-65" transform="translate(595.663053 0)scale(0.996264)"/>
       <use xlink:href="#URWPalladioL-Roma-72" transform="translate(643.383348 0)scale(0.996264)"/>
       <use xlink:href="#URWPalladioL-Roma-7a" transform="translate(682.735245 0)scale(0.996264)"/>
       <use xlink:href="#URWPalladioL-Roma-65" transform="translate(732.548445 0)scale(0.996264)"/>
       <use xlink:href="#URWPalladioL-Roma-67" transform="translate(780.26874 0)scale(0.996264)"/>
       <use xlink:href="#URWPalladioL-Roma-6f" transform="translate(835.660417 0)scale(0.996264)"/>
       <use xlink:href="#URWPalladioL-Roma-76" transform="translate(890.055997 0)scale(0.996264)"/>
       <use xlink:href="#URWPalladioL-Roma-69" transform="translate(946.343911 0)scale(0.996264)"/>
       <use xlink:href="#URWPalladioL-Roma-6e" transform="translate(975.334272 0)scale(0.996264)"/>
       <use xlink:href="#URWPalladioL-Roma-61" transform="translate(1033.316333 0)scale(0.996264)"/>
      </g>
     </g>
    </g>
    <g id="ytick_25">
     <g id="text_34">
      <!-- Bulgaria -->
      <g transform="translate(78.183279 57.199054)scale(0.1 -0.1)">
       <use xlink:href="#URWPalladioL-Roma-42" transform="scale(0.996264)"/>
       <use xlink:href="#URWPalladioL-Roma-75" transform="translate(60.871631 0)scale(0.996264)"/>
       <use xlink:href="#URWPalladioL-Roma-6c" transform="translate(120.945365 0)scale(0.996264)"/>
       <use xlink:href="#URWPalladioL-Roma-67" transform="translate(149.935727 0)scale(0.996264)"/>
       <use xlink:href="#URWPalladioL-Roma-61" transform="translate(205.327404 0)scale(0.996264)"/>
       <use xlink:href="#URWPalladioL-Roma-72" transform="translate(255.140604 0)scale(0.996264)"/>
       <use xlink:href="#URWPalladioL-Roma-69" transform="translate(294.492501 0)scale(0.996264)"/>
       <use xlink:href="#URWPalladioL-Roma-61" transform="translate(323.482862 0)scale(0.996264)"/>
      </g>
     </g>
    </g>
    <g id="ytick_26">
     <g id="text_35">
      <!-- Peru -->
      <g transform="translate(94.860576 44.551145)scale(0.1 -0.1)">
       <use xlink:href="#URWPalladioL-Roma-50" transform="scale(0.996264)"/>
       <use xlink:href="#URWPalladioL-Roma-65" transform="translate(60.173595 0)scale(0.996264)"/>
       <use xlink:href="#URWPalladioL-Roma-72" transform="translate(107.89389 0)scale(0.996264)"/>
       <use xlink:href="#URWPalladioL-Roma-75" transform="translate(146.449213 0)scale(0.996264)"/>
      </g>
     </g>
    </g>
   </g>
   <g id="line2d_1">
    <path d="M 122.512836 365.405886 
L 122.512836 32.765886 
" clip-path="url(#pfc3ba2e50e)" style="fill: none; stroke: #ffffff; stroke-opacity: 0.4; stroke-width: 1.5; stroke-linecap: square"/>
   </g>
   <g id="line2d_2">
    <path d="M 183.24753 365.405886 
L 183.24753 32.765886 
" clip-path="url(#pfc3ba2e50e)" style="fill: none; stroke: #ffffff; stroke-opacity: 0.4; stroke-width: 1.5; stroke-linecap: square"/>
   </g>
   <g id="line2d_3">
    <path d="M 243.982224 365.405886 
L 243.982224 32.765886 
" clip-path="url(#pfc3ba2e50e)" style="fill: none; stroke: #ffffff; stroke-opacity: 0.4; stroke-width: 1.5; stroke-linecap: square"/>
   </g>
   <g id="line2d_4">
    <path d="M 304.716918 365.405886 
L 304.716918 32.765886 
" clip-path="url(#pfc3ba2e50e)" style="fill: none; stroke: #ffffff; stroke-opacity: 0.4; stroke-width: 1.5; stroke-linecap: square"/>
   </g>
   <g id="line2d_5">
    <path d="M 365.451612 365.405886 
L 365.451612 32.765886 
" clip-path="url(#pfc3ba2e50e)" style="fill: none; stroke: #ffffff; stroke-opacity: 0.4; stroke-width: 1.5; stroke-linecap: square"/>
   </g>
   <g id="line2d_6">
    <path d="M 426.186306 365.405886 
L 426.186306 32.765886 
" clip-path="url(#pfc3ba2e50e)" style="fill: none; stroke: #ffffff; stroke-opacity: 0.4; stroke-width: 1.5; stroke-linecap: square"/>
   </g>
   <g id="line2d_7">
    <path d="M 486.921 365.405886 
L 486.921 32.765886 
" clip-path="url(#pfc3ba2e50e)" style="fill: none; stroke: #ffffff; stroke-opacity: 0.4; stroke-width: 1.5; stroke-linecap: square"/>
   </g>
   <g id="line2d_8">
    <path d="M 547.655693 365.405886 
L 547.655693 32.765886 
" clip-path="url(#pfc3ba2e50e)" style="fill: none; stroke: #ffffff; stroke-opacity: 0.4; stroke-width: 1.5; stroke-linecap: square"/>
   </g>
   <g id="text_36">
    <!-- worst 25 countries -->
    <g transform="translate(335.084265 334.458153)scale(0.1 -0.1)">
     <defs>
      <path id="URWPalladioL-Roma-77" d="M 2643 3008 
C 2118 1775 2022 1556 1626 651 
L 1088 2434 
C 1069 2492 1062 2544 1062 2595 
C 1062 2692 1146 2744 1306 2750 
L 1562 2763 
L 1562 2943 
C 928 2924 928 2924 800 2924 
C 672 2924 672 2924 38 2943 
L 38 2763 
L 218 2750 
C 397 2738 480 2608 640 2105 
L 1293 -64 
L 1594 -64 
L 2221 1420 
C 2253 1497 2323 1652 2426 1872 
L 2554 2143 
L 3424 -64 
L 3718 -64 
C 3763 70 3814 219 3866 361 
C 3994 742 4134 1142 4160 1181 
L 4595 2189 
C 4787 2621 4864 2731 5005 2750 
L 5171 2763 
L 5171 2943 
C 4646 2924 4646 2924 4544 2924 
C 4442 2924 4442 2924 3917 2943 
L 3917 2763 
L 4134 2750 
C 4294 2744 4384 2666 4384 2550 
C 4384 2479 4371 2402 4339 2318 
L 4019 1413 
C 3968 1271 3917 1142 3712 613 
L 2976 2486 
C 2886 2705 2842 2834 2790 3008 
L 2643 3008 
z
" transform="scale(0.015625)"/>
     </defs>
     <use xlink:href="#URWPalladioL-Roma-77" transform="scale(0.996264)"/>
     <use xlink:href="#URWPalladioL-Roma-6f" transform="translate(83.088093 0)scale(0.996264)"/>
     <use xlink:href="#URWPalladioL-Roma-72" transform="translate(137.483673 0)scale(0.996264)"/>
     <use xlink:href="#URWPalladioL-Roma-73" transform="translate(176.83557 0)scale(0.996264)"/>
     <use xlink:href="#URWPalladioL-Roma-74" transform="translate(219.077036 0)scale(0.996264)"/>
     <use xlink:href="#URWPalladioL-Roma-32" transform="translate(276.460724 0)scale(0.996264)"/>
     <use xlink:href="#URWPalladioL-Roma-35" transform="translate(326.273925 0)scale(0.996264)"/>
     <use xlink:href="#URWPalladioL-Roma-63" transform="translate(400.993725 0)scale(0.996264)"/>
     <use xlink:href="#URWPalladioL-Roma-6f" transform="translate(445.227294 0)scale(0.996264)"/>
     <use xlink:href="#URWPalladioL-Roma-75" transform="translate(499.622874 0)scale(0.996264)"/>
     <use xlink:href="#URWPalladioL-Roma-6e" transform="translate(559.696609 0)scale(0.996264)"/>
     <use xlink:href="#URWPalladioL-Roma-74" transform="translate(617.67867 0)scale(0.996264)"/>
     <use xlink:href="#URWPalladioL-Roma-72" transform="translate(650.155757 0)scale(0.996264)"/>
     <use xlink:href="#URWPalladioL-Roma-69" transform="translate(689.507654 0)scale(0.996264)"/>
     <use xlink:href="#URWPalladioL-Roma-65" transform="translate(718.498015 0)scale(0.996264)"/>
     <use xlink:href="#URWPalladioL-Roma-73" transform="translate(766.21831 0)scale(0.996264)"/>
    </g>
    <!-- and South Tyrol -->
    <g transform="translate(335.084265 345.821449)scale(0.1 -0.1)">
     <use xlink:href="#URWPalladioL-Roma-61" transform="scale(0.996264)"/>
     <use xlink:href="#URWPalladioL-Roma-6e" transform="translate(49.8132 0)scale(0.996264)"/>
     <use xlink:href="#URWPalladioL-Roma-64" transform="translate(107.795261 0)scale(0.996264)"/>
     <use xlink:href="#URWPalladioL-Roma-53" transform="translate(193.573492 0)scale(0.996264)"/>
     <use xlink:href="#URWPalladioL-Roma-6f" transform="translate(245.877307 0)scale(0.996264)"/>
     <use xlink:href="#URWPalladioL-Roma-75" transform="translate(300.272887 0)scale(0.996264)"/>
     <use xlink:href="#URWPalladioL-Roma-74" transform="translate(360.346622 0)scale(0.996264)"/>
     <use xlink:href="#URWPalladioL-Roma-68" transform="translate(392.82371 0)scale(0.996264)"/>
     <use xlink:href="#URWPalladioL-Roma-54" transform="translate(475.712371 0)scale(0.996264)"/>
     <use xlink:href="#URWPalladioL-Roma-79" transform="translate(527.816845 0)scale(0.996264)"/>
     <use xlink:href="#URWPalladioL-Roma-72" transform="translate(583.208522 0)scale(0.996264)"/>
     <use xlink:href="#URWPalladioL-Roma-6f" transform="translate(620.767839 0)scale(0.996264)"/>
     <use xlink:href="#URWPalladioL-Roma-6c" transform="translate(675.163419 0)scale(0.996264)"/>
    </g>
    <!-- Friday, 24 June 2022 -->
    <g transform="translate(335.084265 357.184745)scale(0.1 -0.1)">
     <defs>
      <path id="URWPalladioL-Roma-46" d="M 1382 2092 
C 1562 2105 1754 2112 2042 2112 
C 2515 2112 2688 2092 2803 2035 
L 2854 1875 
L 2886 1497 
L 3078 1497 
C 3059 2092 3059 2092 3059 2208 
C 3059 2310 3059 2310 3078 2946 
L 2886 2946 
L 2854 2615 
C 2848 2558 2829 2501 2803 2450 
C 2688 2399 2509 2380 2086 2380 
C 1818 2380 1600 2387 1382 2399 
L 1382 4096 
C 1574 4140 1690 4147 2067 4147 
C 2374 4147 2733 4108 2931 4058 
C 3085 4020 3104 3988 3104 3842 
L 3104 3429 
L 3328 3429 
C 3328 3810 3360 4115 3430 4396 
C 3117 4409 2925 4416 2650 4416 
L 1965 4409 
C 1651 4396 1427 4396 1267 4396 
C 1082 4396 1082 4396 141 4416 
L 141 4223 
L 448 4204 
C 742 4185 774 4135 774 3633 
L 774 782 
C 774 280 742 230 448 211 
L 141 192 
L 141 0 
C 518 -7 742 0 1075 0 
C 1408 19 1638 12 2016 0 
L 2016 192 
L 1709 211 
C 1414 230 1382 281 1382 787 
L 1382 2092 
z
" transform="scale(0.015625)"/>
      <path id="URWPalladioL-Roma-2c" d="M 1306 787 
C 1133 729 1018 691 678 595 
C 634 108 474 -308 102 -922 
L 192 -993 
L 454 -871 
C 973 -199 1216 204 1395 697 
L 1306 787 
z
" transform="scale(0.015625)"/>
      <path id="URWPalladioL-Roma-4a" d="M -64 -1229 
L 45 -1242 
L 90 -1249 
C 307 -1281 710 -1044 960 -730 
C 1274 -347 1357 -28 1357 744 
L 1357 3630 
C 1357 4134 1389 4185 1683 4204 
L 1990 4223 
L 1990 4416 
C 1523 4396 1382 4396 1050 4396 
C 730 4396 576 4403 115 4416 
L 115 4223 
L 422 4204 
C 717 4185 749 4134 749 3630 
L 749 -111 
C 749 -647 659 -832 403 -832 
C 250 -832 122 -794 -26 -705 
L -96 -743 
L -64 -1229 
z
" transform="scale(0.015625)"/>
     </defs>
     <use xlink:href="#URWPalladioL-Roma-46" transform="scale(0.996264)"/>
     <use xlink:href="#URWPalladioL-Roma-72" transform="translate(55.391677 0)scale(0.996264)"/>
     <use xlink:href="#URWPalladioL-Roma-69" transform="translate(94.743573 0)scale(0.996264)"/>
     <use xlink:href="#URWPalladioL-Roma-64" transform="translate(123.733935 0)scale(0.996264)"/>
     <use xlink:href="#URWPalladioL-Roma-61" transform="translate(184.605565 0)scale(0.996264)"/>
     <use xlink:href="#URWPalladioL-Roma-79" transform="translate(234.418766 0)scale(0.996264)"/>
     <use xlink:href="#URWPalladioL-Roma-2c" transform="translate(278.751998 0)scale(0.996264)"/>
     <use xlink:href="#URWPalladioL-Roma-32" transform="translate(328.565198 0)scale(0.996264)"/>
     <use xlink:href="#URWPalladioL-Roma-34" transform="translate(378.378399 0)scale(0.996264)"/>
     <use xlink:href="#URWPalladioL-Roma-4a" transform="translate(453.098199 0)scale(0.996264)"/>
     <use xlink:href="#URWPalladioL-Roma-75" transform="translate(486.273429 0)scale(0.996264)"/>
     <use xlink:href="#URWPalladioL-Roma-6e" transform="translate(546.347164 0)scale(0.996264)"/>
     <use xlink:href="#URWPalladioL-Roma-65" transform="translate(604.329224 0)scale(0.996264)"/>
     <use xlink:href="#URWPalladioL-Roma-32" transform="translate(676.95612 0)scale(0.996264)"/>
     <use xlink:href="#URWPalladioL-Roma-30" transform="translate(726.76932 0)scale(0.996264)"/>
     <use xlink:href="#URWPalladioL-Roma-32" transform="translate(776.582521 0)scale(0.996264)"/>
     <use xlink:href="#URWPalladioL-Roma-32" transform="translate(826.395721 0)scale(0.996264)"/>
    </g>
   </g>
  </g>
 </g>
 <defs>
  <clipPath id="pfc3ba2e50e">
   <rect x="122.512836" y="32.765886" width="446.4" height="332.64"/>
  </clipPath>
 </defs>
</svg>
