<?xml version="1.0" encoding="utf-8" standalone="no"?>
<!DOCTYPE svg PUBLIC "-//W3C//DTD SVG 1.1//EN"
  "http://www.w3.org/Graphics/SVG/1.1/DTD/svg11.dtd">
<!-- Created with matplotlib (https://matplotlib.org/) -->
<svg height="320.717436pt" version="1.1" viewBox="0 0 408.420288 320.717436" width="408.420288pt" xmlns="http://www.w3.org/2000/svg" xmlns:xlink="http://www.w3.org/1999/xlink">
 <metadata>
  <rdf:RDF xmlns:cc="http://creativecommons.org/ns#" xmlns:dc="http://purl.org/dc/elements/1.1/" xmlns:rdf="http://www.w3.org/1999/02/22-rdf-syntax-ns#">
   <cc:Work>
    <dc:type rdf:resource="http://purl.org/dc/dcmitype/StillImage"/>
    <dc:date>2021-01-27T15:06:40.732047</dc:date>
    <dc:format>image/svg+xml</dc:format>
    <dc:creator>
     <cc:Agent>
      <dc:title>Matplotlib v3.3.3, https://matplotlib.org/</dc:title>
     </cc:Agent>
    </dc:creator>
   </cc:Work>
  </rdf:RDF>
 </metadata>
 <defs>
  <style type="text/css">*{stroke-linecap:butt;stroke-linejoin:round;}</style>
 </defs>
 <g id="figure_1">
  <g id="patch_1">
   <path d="M 0 320.717436 
L 408.420288 320.717436 
L 408.420288 0 
L 0 0 
z
" style="fill:#ffffff;"/>
  </g>
  <g id="axes_1">
   <g id="patch_2">
    <path d="M 44.100288 273.312 
L 401.220288 273.312 
L 401.220288 7.2 
L 44.100288 7.2 
z
" style="fill:#ffffff;"/>
   </g>
   <g id="patch_3">
    <path clip-path="url(#p2a783bdea6)" d="M 44.212238 273.312 
L 45.107837 273.312 
L 45.107837 19.872 
L 44.212238 19.872 
z
" style="fill:#1f77b4;"/>
   </g>
   <g id="patch_4">
    <path clip-path="url(#p2a783bdea6)" d="M 45.331737 273.312 
L 46.227335 273.312 
L 46.227335 7.2 
L 45.331737 7.2 
z
" style="fill:#1f77b4;"/>
   </g>
   <g id="patch_5">
    <path clip-path="url(#p2a783bdea6)" d="M 46.451235 273.312 
L 47.346834 273.312 
L 47.346834 7.2 
L 46.451235 7.2 
z
" style="fill:#1f77b4;"/>
   </g>
   <g id="patch_6">
    <path clip-path="url(#p2a783bdea6)" d="M 47.570734 273.312 
L 48.466332 273.312 
L 48.466332 49.217684 
L 47.570734 49.217684 
z
" style="fill:#1f77b4;"/>
   </g>
   <g id="patch_7">
    <path clip-path="url(#p2a783bdea6)" d="M 48.690232 273.312 
L 49.585831 273.312 
L 49.585831 36.768 
L 48.690232 36.768 
z
" style="fill:#1f77b4;"/>
   </g>
   <g id="patch_8">
    <path clip-path="url(#p2a783bdea6)" d="M 49.80973 273.312 
L 50.705329 273.312 
L 50.705329 48.5952 
L 49.80973 48.5952 
z
" style="fill:#1f77b4;"/>
   </g>
   <g id="patch_9">
    <path clip-path="url(#p2a783bdea6)" d="M 50.929229 273.312 
L 51.824828 273.312 
L 51.824828 43.161081 
L 50.929229 43.161081 
z
" style="fill:#1f77b4;"/>
   </g>
   <g id="patch_10">
    <path clip-path="url(#p2a783bdea6)" d="M 52.048727 273.312 
L 52.944326 273.312 
L 52.944326 61.787077 
L 52.048727 61.787077 
z
" style="fill:#1f77b4;"/>
   </g>
   <g id="patch_11">
    <path clip-path="url(#p2a783bdea6)" d="M 53.168226 273.312 
L 54.063825 273.312 
L 54.063825 62.827932 
L 53.168226 62.827932 
z
" style="fill:#1f77b4;"/>
   </g>
   <g id="patch_12">
    <path clip-path="url(#p2a783bdea6)" d="M 54.287724 273.312 
L 55.183323 273.312 
L 55.183323 43.725176 
L 54.287724 43.725176 
z
" style="fill:#1f77b4;"/>
   </g>
   <g id="patch_13">
    <path clip-path="url(#p2a783bdea6)" d="M 55.407223 273.312 
L 56.302821 273.312 
L 56.302821 63.223579 
L 55.407223 63.223579 
z
" style="fill:#1f77b4;"/>
   </g>
   <g id="patch_14">
    <path clip-path="url(#p2a783bdea6)" d="M 56.526721 273.312 
L 57.42232 273.312 
L 57.42232 68.90713 
L 56.526721 68.90713 
z
" style="fill:#1f77b4;"/>
   </g>
   <g id="patch_15">
    <path clip-path="url(#p2a783bdea6)" d="M 57.64622 273.312 
L 58.541818 273.312 
L 58.541818 70.56 
L 57.64622 70.56 
z
" style="fill:#1f77b4;"/>
   </g>
   <g id="patch_16">
    <path clip-path="url(#p2a783bdea6)" d="M 58.765718 273.312 
L 59.661317 273.312 
L 59.661317 72.354265 
L 58.765718 72.354265 
z
" style="fill:#1f77b4;"/>
   </g>
   <g id="patch_17">
    <path clip-path="url(#p2a783bdea6)" d="M 59.885216 273.312 
L 60.780815 273.312 
L 60.780815 76.5 
L 59.885216 76.5 
z
" style="fill:#1f77b4;"/>
   </g>
   <g id="patch_18">
    <path clip-path="url(#p2a783bdea6)" d="M 61.004715 273.312 
L 61.900314 273.312 
L 61.900314 95.904 
L 61.004715 95.904 
z
" style="fill:#1f77b4;"/>
   </g>
   <g id="patch_19">
    <path clip-path="url(#p2a783bdea6)" d="M 62.124213 273.312 
L 63.019812 273.312 
L 63.019812 80.095366 
L 62.124213 80.095366 
z
" style="fill:#1f77b4;"/>
   </g>
   <g id="patch_20">
    <path clip-path="url(#p2a783bdea6)" d="M 63.243712 273.312 
L 64.13931 273.312 
L 64.13931 84.914124 
L 63.243712 84.914124 
z
" style="fill:#1f77b4;"/>
   </g>
   <g id="patch_21">
    <path clip-path="url(#p2a783bdea6)" d="M 64.36321 273.312 
L 65.258809 273.312 
L 65.258809 90.916627 
L 64.36321 90.916627 
z
" style="fill:#1f77b4;"/>
   </g>
   <g id="patch_22">
    <path clip-path="url(#p2a783bdea6)" d="M 65.482709 273.312 
L 66.378307 273.312 
L 66.378307 97.758439 
L 65.482709 97.758439 
z
" style="fill:#1f77b4;"/>
   </g>
   <g id="patch_23">
    <path clip-path="url(#p2a783bdea6)" d="M 66.602207 273.312 
L 67.497806 273.312 
L 67.497806 100.63488 
L 66.602207 100.63488 
z
" style="fill:#1f77b4;"/>
   </g>
   <g id="patch_24">
    <path clip-path="url(#p2a783bdea6)" d="M 67.721705 273.312 
L 68.617304 273.312 
L 68.617304 102.474667 
L 67.721705 102.474667 
z
" style="fill:#1f77b4;"/>
   </g>
   <g id="patch_25">
    <path clip-path="url(#p2a783bdea6)" d="M 68.841204 273.312 
L 69.736803 273.312 
L 69.736803 108.933966 
L 68.841204 108.933966 
z
" style="fill:#1f77b4;"/>
   </g>
   <g id="patch_26">
    <path clip-path="url(#p2a783bdea6)" d="M 69.960702 273.312 
L 70.856301 273.312 
L 70.856301 112.287325 
L 69.960702 112.287325 
z
" style="fill:#1f77b4;"/>
   </g>
   <g id="patch_27">
    <path clip-path="url(#p2a783bdea6)" d="M 71.080201 273.312 
L 71.975799 273.312 
L 71.975799 125.748336 
L 71.080201 125.748336 
z
" style="fill:#1f77b4;"/>
   </g>
   <g id="patch_28">
    <path clip-path="url(#p2a783bdea6)" d="M 72.199699 273.312 
L 73.095298 273.312 
L 73.095298 130.315034 
L 72.199699 130.315034 
z
" style="fill:#1f77b4;"/>
   </g>
   <g id="patch_29">
    <path clip-path="url(#p2a783bdea6)" d="M 73.319198 273.312 
L 74.214796 273.312 
L 74.214796 137.875276 
L 73.319198 137.875276 
z
" style="fill:#1f77b4;"/>
   </g>
   <g id="patch_30">
    <path clip-path="url(#p2a783bdea6)" d="M 74.438696 273.312 
L 75.334295 273.312 
L 75.334295 144.755478 
L 74.438696 144.755478 
z
" style="fill:#1f77b4;"/>
   </g>
   <g id="patch_31">
    <path clip-path="url(#p2a783bdea6)" d="M 75.558194 273.312 
L 76.453793 273.312 
L 76.453793 146.547615 
L 75.558194 146.547615 
z
" style="fill:#1f77b4;"/>
   </g>
   <g id="patch_32">
    <path clip-path="url(#p2a783bdea6)" d="M 76.677693 273.312 
L 77.573292 273.312 
L 77.573292 143.795124 
L 76.677693 143.795124 
z
" style="fill:#1f77b4;"/>
   </g>
   <g id="patch_33">
    <path clip-path="url(#p2a783bdea6)" d="M 77.797191 273.312 
L 78.69279 273.312 
L 78.69279 145.625313 
L 77.797191 145.625313 
z
" style="fill:#1f77b4;"/>
   </g>
   <g id="patch_34">
    <path clip-path="url(#p2a783bdea6)" d="M 78.91669 273.312 
L 79.812288 273.312 
L 79.812288 150.019019 
L 78.91669 150.019019 
z
" style="fill:#1f77b4;"/>
   </g>
   <g id="patch_35">
    <path clip-path="url(#p2a783bdea6)" d="M 80.036188 273.312 
L 80.931787 273.312 
L 80.931787 153.640331 
L 80.036188 153.640331 
z
" style="fill:#1f77b4;"/>
   </g>
   <g id="patch_36">
    <path clip-path="url(#p2a783bdea6)" d="M 81.155687 273.312 
L 82.051285 273.312 
L 82.051285 157.697798 
L 81.155687 157.697798 
z
" style="fill:#1f77b4;"/>
   </g>
   <g id="patch_37">
    <path clip-path="url(#p2a783bdea6)" d="M 82.275185 273.312 
L 83.170784 273.312 
L 83.170784 163.037586 
L 82.275185 163.037586 
z
" style="fill:#1f77b4;"/>
   </g>
   <g id="patch_38">
    <path clip-path="url(#p2a783bdea6)" d="M 83.394683 273.312 
L 84.290282 273.312 
L 84.290282 166.518486 
L 83.394683 166.518486 
z
" style="fill:#1f77b4;"/>
   </g>
   <g id="patch_39">
    <path clip-path="url(#p2a783bdea6)" d="M 84.514182 273.312 
L 85.409781 273.312 
L 85.409781 169.737341 
L 84.514182 169.737341 
z
" style="fill:#1f77b4;"/>
   </g>
   <g id="patch_40">
    <path clip-path="url(#p2a783bdea6)" d="M 85.63368 273.312 
L 86.529279 273.312 
L 86.529279 171.124992 
L 85.63368 171.124992 
z
" style="fill:#1f77b4;"/>
   </g>
   <g id="patch_41">
    <path clip-path="url(#p2a783bdea6)" d="M 86.753179 273.312 
L 87.648777 273.312 
L 87.648777 172.833133 
L 86.753179 172.833133 
z
" style="fill:#1f77b4;"/>
   </g>
   <g id="patch_42">
    <path clip-path="url(#p2a783bdea6)" d="M 87.872677 273.312 
L 88.768276 273.312 
L 88.768276 174.898635 
L 87.872677 174.898635 
z
" style="fill:#1f77b4;"/>
   </g>
   <g id="patch_43">
    <path clip-path="url(#p2a783bdea6)" d="M 88.992176 273.312 
L 89.887774 273.312 
L 89.887774 204.847871 
L 88.992176 204.847871 
z
" style="fill:#1f77b4;"/>
   </g>
   <g id="patch_44">
    <path clip-path="url(#p2a783bdea6)" d="M 90.111674 273.312 
L 91.007273 273.312 
L 91.007273 208.061313 
L 90.111674 208.061313 
z
" style="fill:#1f77b4;"/>
   </g>
   <g id="patch_45">
    <path clip-path="url(#p2a783bdea6)" d="M 91.231172 273.312 
L 92.126771 273.312 
L 92.126771 209.12538 
L 91.231172 209.12538 
z
" style="fill:#1f77b4;"/>
   </g>
   <g id="patch_46">
    <path clip-path="url(#p2a783bdea6)" d="M 92.350671 273.312 
L 93.24627 273.312 
L 93.24627 211.743671 
L 92.350671 211.743671 
z
" style="fill:#1f77b4;"/>
   </g>
   <g id="patch_47">
    <path clip-path="url(#p2a783bdea6)" d="M 93.470169 273.312 
L 94.365768 273.312 
L 94.365768 212.537471 
L 93.470169 212.537471 
z
" style="fill:#1f77b4;"/>
   </g>
   <g id="patch_48">
    <path clip-path="url(#p2a783bdea6)" d="M 94.589668 273.312 
L 95.485267 273.312 
L 95.485267 214.816462 
L 94.589668 214.816462 
z
" style="fill:#1f77b4;"/>
   </g>
   <g id="patch_49">
    <path clip-path="url(#p2a783bdea6)" d="M 95.709166 273.312 
L 96.604765 273.312 
L 96.604765 216.450462 
L 95.709166 216.450462 
z
" style="fill:#1f77b4;"/>
   </g>
   <g id="patch_50">
    <path clip-path="url(#p2a783bdea6)" d="M 96.828665 273.312 
L 97.724263 273.312 
L 97.724263 217.615304 
L 96.828665 217.615304 
z
" style="fill:#1f77b4;"/>
   </g>
   <g id="patch_51">
    <path clip-path="url(#p2a783bdea6)" d="M 97.948163 273.312 
L 98.843762 273.312 
L 98.843762 219.276157 
L 97.948163 219.276157 
z
" style="fill:#1f77b4;"/>
   </g>
   <g id="patch_52">
    <path clip-path="url(#p2a783bdea6)" d="M 99.067662 273.312 
L 99.96326 273.312 
L 99.96326 220.023226 
L 99.067662 220.023226 
z
" style="fill:#1f77b4;"/>
   </g>
   <g id="patch_53">
    <path clip-path="url(#p2a783bdea6)" d="M 100.18716 273.312 
L 101.082759 273.312 
L 101.082759 220.415546 
L 100.18716 220.415546 
z
" style="fill:#1f77b4;"/>
   </g>
   <g id="patch_54">
    <path clip-path="url(#p2a783bdea6)" d="M 101.306658 273.312 
L 102.202257 273.312 
L 102.202257 220.733049 
L 101.306658 220.733049 
z
" style="fill:#1f77b4;"/>
   </g>
   <g id="patch_55">
    <path clip-path="url(#p2a783bdea6)" d="M 102.426157 273.312 
L 103.321756 273.312 
L 103.321756 221.643275 
L 102.426157 221.643275 
z
" style="fill:#1f77b4;"/>
   </g>
   <g id="patch_56">
    <path clip-path="url(#p2a783bdea6)" d="M 103.545655 273.312 
L 104.441254 273.312 
L 104.441254 222.598669 
L 103.545655 222.598669 
z
" style="fill:#1f77b4;"/>
   </g>
   <g id="patch_57">
    <path clip-path="url(#p2a783bdea6)" d="M 104.665154 273.312 
L 105.560752 273.312 
L 105.560752 223.437572 
L 104.665154 223.437572 
z
" style="fill:#1f77b4;"/>
   </g>
   <g id="patch_58">
    <path clip-path="url(#p2a783bdea6)" d="M 105.784652 273.312 
L 106.680251 273.312 
L 106.680251 224.173203 
L 105.784652 224.173203 
z
" style="fill:#1f77b4;"/>
   </g>
   <g id="patch_59">
    <path clip-path="url(#p2a783bdea6)" d="M 106.904151 273.312 
L 107.799749 273.312 
L 107.799749 224.54582 
L 106.904151 224.54582 
z
" style="fill:#1f77b4;"/>
   </g>
   <g id="patch_60">
    <path clip-path="url(#p2a783bdea6)" d="M 108.023649 273.312 
L 108.919248 273.312 
L 108.919248 224.890052 
L 108.023649 224.890052 
z
" style="fill:#1f77b4;"/>
   </g>
   <g id="patch_61">
    <path clip-path="url(#p2a783bdea6)" d="M 109.143147 273.312 
L 110.038746 273.312 
L 110.038746 225.116852 
L 109.143147 225.116852 
z
" style="fill:#1f77b4;"/>
   </g>
   <g id="patch_62">
    <path clip-path="url(#p2a783bdea6)" d="M 110.262646 273.312 
L 111.158245 273.312 
L 111.158245 225.718735 
L 110.262646 225.718735 
z
" style="fill:#1f77b4;"/>
   </g>
   <g id="patch_63">
    <path clip-path="url(#p2a783bdea6)" d="M 111.382144 273.312 
L 112.277743 273.312 
L 112.277743 226.498242 
L 111.382144 226.498242 
z
" style="fill:#1f77b4;"/>
   </g>
   <g id="patch_64">
    <path clip-path="url(#p2a783bdea6)" d="M 112.501643 273.312 
L 113.397241 273.312 
L 113.397241 226.941274 
L 112.501643 226.941274 
z
" style="fill:#1f77b4;"/>
   </g>
   <g id="patch_65">
    <path clip-path="url(#p2a783bdea6)" d="M 113.621141 273.312 
L 114.51674 273.312 
L 114.51674 227.376 
L 113.621141 227.376 
z
" style="fill:#1f77b4;"/>
   </g>
   <g id="patch_66">
    <path clip-path="url(#p2a783bdea6)" d="M 114.74064 273.312 
L 115.636238 273.312 
L 115.636238 227.923098 
L 114.74064 227.923098 
z
" style="fill:#1f77b4;"/>
   </g>
   <g id="patch_67">
    <path clip-path="url(#p2a783bdea6)" d="M 115.860138 273.312 
L 116.755737 273.312 
L 116.755737 227.926745 
L 115.860138 227.926745 
z
" style="fill:#1f77b4;"/>
   </g>
   <g id="patch_68">
    <path clip-path="url(#p2a783bdea6)" d="M 116.979636 273.312 
L 117.875235 273.312 
L 117.875235 228.006403 
L 116.979636 228.006403 
z
" style="fill:#1f77b4;"/>
   </g>
   <g id="patch_69">
    <path clip-path="url(#p2a783bdea6)" d="M 118.099135 273.312 
L 118.994734 273.312 
L 118.994734 228.710939 
L 118.099135 228.710939 
z
" style="fill:#1f77b4;"/>
   </g>
   <g id="patch_70">
    <path clip-path="url(#p2a783bdea6)" d="M 119.218633 273.312 
L 120.114232 273.312 
L 120.114232 229.130804 
L 119.218633 229.130804 
z
" style="fill:#1f77b4;"/>
   </g>
   <g id="patch_71">
    <path clip-path="url(#p2a783bdea6)" d="M 120.338132 273.312 
L 121.23373 273.312 
L 121.23373 229.672331 
L 120.338132 229.672331 
z
" style="fill:#1f77b4;"/>
   </g>
   <g id="patch_72">
    <path clip-path="url(#p2a783bdea6)" d="M 121.45763 273.312 
L 122.353229 273.312 
L 122.353229 229.856 
L 121.45763 229.856 
z
" style="fill:#1f77b4;"/>
   </g>
   <g id="patch_73">
    <path clip-path="url(#p2a783bdea6)" d="M 122.577129 273.312 
L 123.472727 273.312 
L 123.472727 230.254679 
L 122.577129 230.254679 
z
" style="fill:#1f77b4;"/>
   </g>
   <g id="patch_74">
    <path clip-path="url(#p2a783bdea6)" d="M 123.696627 273.312 
L 124.592226 273.312 
L 124.592226 230.451288 
L 123.696627 230.451288 
z
" style="fill:#1f77b4;"/>
   </g>
   <g id="patch_75">
    <path clip-path="url(#p2a783bdea6)" d="M 124.816125 273.312 
L 125.711724 273.312 
L 125.711724 230.540063 
L 124.816125 230.540063 
z
" style="fill:#1f77b4;"/>
   </g>
   <g id="patch_76">
    <path clip-path="url(#p2a783bdea6)" d="M 125.935624 273.312 
L 126.831223 273.312 
L 126.831223 230.681341 
L 125.935624 230.681341 
z
" style="fill:#1f77b4;"/>
   </g>
   <g id="patch_77">
    <path clip-path="url(#p2a783bdea6)" d="M 127.055122 273.312 
L 127.950721 273.312 
L 127.950721 230.961116 
L 127.055122 230.961116 
z
" style="fill:#1f77b4;"/>
   </g>
   <g id="patch_78">
    <path clip-path="url(#p2a783bdea6)" d="M 128.174621 273.312 
L 129.07022 273.312 
L 129.07022 231.013165 
L 128.174621 231.013165 
z
" style="fill:#1f77b4;"/>
   </g>
   <g id="patch_79">
    <path clip-path="url(#p2a783bdea6)" d="M 129.294119 273.312 
L 130.189718 273.312 
L 130.189718 231.322795 
L 129.294119 231.322795 
z
" style="fill:#1f77b4;"/>
   </g>
   <g id="patch_80">
    <path clip-path="url(#p2a783bdea6)" d="M 130.413618 273.312 
L 131.309216 273.312 
L 131.309216 231.509791 
L 130.413618 231.509791 
z
" style="fill:#1f77b4;"/>
   </g>
   <g id="patch_81">
    <path clip-path="url(#p2a783bdea6)" d="M 131.533116 273.312 
L 132.428715 273.312 
L 132.428715 231.59424 
L 131.533116 231.59424 
z
" style="fill:#1f77b4;"/>
   </g>
   <g id="patch_82">
    <path clip-path="url(#p2a783bdea6)" d="M 132.652614 273.312 
L 133.548213 273.312 
L 133.548213 231.644746 
L 132.652614 231.644746 
z
" style="fill:#1f77b4;"/>
   </g>
   <g id="patch_83">
    <path clip-path="url(#p2a783bdea6)" d="M 133.772113 273.312 
L 134.667712 273.312 
L 134.667712 231.644746 
L 133.772113 231.644746 
z
" style="fill:#1f77b4;"/>
   </g>
   <g id="patch_84">
    <path clip-path="url(#p2a783bdea6)" d="M 134.891611 273.312 
L 135.78721 273.312 
L 135.78721 231.636106 
L 134.891611 231.636106 
z
" style="fill:#1f77b4;"/>
   </g>
   <g id="patch_85">
    <path clip-path="url(#p2a783bdea6)" d="M 136.01111 273.312 
L 136.906709 273.312 
L 136.906709 231.836311 
L 136.01111 231.836311 
z
" style="fill:#1f77b4;"/>
   </g>
   <g id="patch_86">
    <path clip-path="url(#p2a783bdea6)" d="M 137.130608 273.312 
L 138.026207 273.312 
L 138.026207 231.869491 
L 137.130608 231.869491 
z
" style="fill:#1f77b4;"/>
   </g>
   <g id="patch_87">
    <path clip-path="url(#p2a783bdea6)" d="M 138.250107 273.312 
L 139.145705 273.312 
L 139.145705 231.968715 
L 138.250107 231.968715 
z
" style="fill:#1f77b4;"/>
   </g>
   <g id="patch_88">
    <path clip-path="url(#p2a783bdea6)" d="M 139.369605 273.312 
L 140.265204 273.312 
L 140.265204 231.985206 
L 139.369605 231.985206 
z
" style="fill:#1f77b4;"/>
   </g>
   <g id="patch_89">
    <path clip-path="url(#p2a783bdea6)" d="M 140.489104 273.312 
L 141.384702 273.312 
L 141.384702 232.018149 
L 140.489104 232.018149 
z
" style="fill:#1f77b4;"/>
   </g>
   <g id="patch_90">
    <path clip-path="url(#p2a783bdea6)" d="M 141.608602 273.312 
L 142.504201 273.312 
L 142.504201 232.034601 
L 141.608602 232.034601 
z
" style="fill:#1f77b4;"/>
   </g>
   <g id="patch_91">
    <path clip-path="url(#p2a783bdea6)" d="M 142.7281 273.312 
L 143.623699 273.312 
L 143.623699 231.985206 
L 142.7281 231.985206 
z
" style="fill:#1f77b4;"/>
   </g>
   <g id="patch_92">
    <path clip-path="url(#p2a783bdea6)" d="M 143.847599 273.312 
L 144.743198 273.312 
L 144.743198 232.126736 
L 143.847599 232.126736 
z
" style="fill:#1f77b4;"/>
   </g>
   <g id="patch_93">
    <path clip-path="url(#p2a783bdea6)" d="M 144.967097 273.312 
L 145.862696 273.312 
L 145.862696 232.257743 
L 144.967097 232.257743 
z
" style="fill:#1f77b4;"/>
   </g>
   <g id="patch_94">
    <path clip-path="url(#p2a783bdea6)" d="M 146.086596 273.312 
L 146.982194 273.312 
L 146.982194 232.27406 
L 146.086596 232.27406 
z
" style="fill:#1f77b4;"/>
   </g>
   <g id="patch_95">
    <path clip-path="url(#p2a783bdea6)" d="M 147.206094 273.312 
L 148.101693 273.312 
L 148.101693 232.149397 
L 147.206094 232.149397 
z
" style="fill:#1f77b4;"/>
   </g>
   <g id="patch_96">
    <path clip-path="url(#p2a783bdea6)" d="M 148.325593 273.312 
L 149.221191 273.312 
L 149.221191 232.165744 
L 148.325593 232.165744 
z
" style="fill:#1f77b4;"/>
   </g>
   <g id="patch_97">
    <path clip-path="url(#p2a783bdea6)" d="M 149.445091 273.312 
L 150.34069 273.312 
L 150.34069 232.263556 
L 149.445091 232.263556 
z
" style="fill:#1f77b4;"/>
   </g>
   <g id="patch_98">
    <path clip-path="url(#p2a783bdea6)" d="M 150.564589 273.312 
L 151.460188 273.312 
L 151.460188 232.328506 
L 150.564589 232.328506 
z
" style="fill:#1f77b4;"/>
   </g>
   <g id="patch_99">
    <path clip-path="url(#p2a783bdea6)" d="M 151.684088 273.312 
L 152.579687 273.312 
L 152.579687 232.522129 
L 151.684088 232.522129 
z
" style="fill:#1f77b4;"/>
   </g>
   <g id="patch_100">
    <path clip-path="url(#p2a783bdea6)" d="M 152.803586 273.312 
L 153.699185 273.312 
L 153.699185 232.554222 
L 152.803586 232.554222 
z
" style="fill:#1f77b4;"/>
   </g>
   <g id="patch_101">
    <path clip-path="url(#p2a783bdea6)" d="M 153.923085 273.312 
L 154.818683 273.312 
L 154.818683 232.634233 
L 153.923085 232.634233 
z
" style="fill:#1f77b4;"/>
   </g>
   <g id="patch_102">
    <path clip-path="url(#p2a783bdea6)" d="M 155.042583 273.312 
L 155.938182 273.312 
L 155.938182 232.586264 
L 155.042583 232.586264 
z
" style="fill:#1f77b4;"/>
   </g>
   <g id="patch_103">
    <path clip-path="url(#p2a783bdea6)" d="M 156.162082 273.312 
L 157.05768 273.312 
L 157.05768 232.586264 
L 156.162082 232.586264 
z
" style="fill:#1f77b4;"/>
   </g>
   <g id="patch_104">
    <path clip-path="url(#p2a783bdea6)" d="M 157.28158 273.312 
L 158.177179 273.312 
L 158.177179 232.586264 
L 157.28158 232.586264 
z
" style="fill:#1f77b4;"/>
   </g>
   <g id="patch_105">
    <path clip-path="url(#p2a783bdea6)" d="M 158.401078 273.312 
L 159.296677 273.312 
L 159.296677 232.634233 
L 158.401078 232.634233 
z
" style="fill:#1f77b4;"/>
   </g>
   <g id="patch_106">
    <path clip-path="url(#p2a783bdea6)" d="M 159.520577 273.312 
L 160.416176 273.312 
L 160.416176 232.66615 
L 159.520577 232.66615 
z
" style="fill:#1f77b4;"/>
   </g>
   <g id="patch_107">
    <path clip-path="url(#p2a783bdea6)" d="M 160.640075 273.312 
L 161.535674 273.312 
L 161.535674 232.66615 
L 160.640075 232.66615 
z
" style="fill:#1f77b4;"/>
   </g>
   <g id="patch_108">
    <path clip-path="url(#p2a783bdea6)" d="M 161.759574 273.312 
L 162.655172 273.312 
L 162.655172 232.713931 
L 161.759574 232.713931 
z
" style="fill:#1f77b4;"/>
   </g>
   <g id="patch_109">
    <path clip-path="url(#p2a783bdea6)" d="M 162.879072 273.312 
L 163.774671 273.312 
L 163.774671 232.745723 
L 162.879072 232.745723 
z
" style="fill:#1f77b4;"/>
   </g>
   <g id="patch_110">
    <path clip-path="url(#p2a783bdea6)" d="M 163.998571 273.312 
L 164.894169 273.312 
L 164.894169 232.7616 
L 163.998571 232.7616 
z
" style="fill:#1f77b4;"/>
   </g>
   <g id="patch_111">
    <path clip-path="url(#p2a783bdea6)" d="M 165.118069 273.312 
L 166.013668 273.312 
L 166.013668 232.809157 
L 165.118069 232.809157 
z
" style="fill:#1f77b4;"/>
   </g>
   <g id="patch_112">
    <path clip-path="url(#p2a783bdea6)" d="M 166.237567 273.312 
L 167.133166 273.312 
L 167.133166 232.809157 
L 166.237567 232.809157 
z
" style="fill:#1f77b4;"/>
   </g>
   <g id="patch_113">
    <path clip-path="url(#p2a783bdea6)" d="M 167.357066 273.312 
L 168.252665 273.312 
L 168.252665 232.824985 
L 167.357066 232.824985 
z
" style="fill:#1f77b4;"/>
   </g>
   <g id="patch_114">
    <path clip-path="url(#p2a783bdea6)" d="M 168.476564 273.312 
L 169.372163 273.312 
L 169.372163 232.8408 
L 168.476564 232.8408 
z
" style="fill:#1f77b4;"/>
   </g>
   <g id="patch_115">
    <path clip-path="url(#p2a783bdea6)" d="M 169.596063 273.312 
L 170.491662 273.312 
L 170.491662 232.872393 
L 169.596063 232.872393 
z
" style="fill:#1f77b4;"/>
   </g>
   <g id="patch_116">
    <path clip-path="url(#p2a783bdea6)" d="M 170.715561 273.312 
L 171.61116 273.312 
L 171.61116 232.903938 
L 170.715561 232.903938 
z
" style="fill:#1f77b4;"/>
   </g>
   <g id="patch_117">
    <path clip-path="url(#p2a783bdea6)" d="M 171.83506 273.312 
L 172.730658 273.312 
L 172.730658 232.919691 
L 171.83506 232.919691 
z
" style="fill:#1f77b4;"/>
   </g>
   <g id="patch_118">
    <path clip-path="url(#p2a783bdea6)" d="M 172.954558 273.312 
L 173.850157 273.312 
L 173.850157 232.951162 
L 172.954558 232.951162 
z
" style="fill:#1f77b4;"/>
   </g>
   <g id="patch_119">
    <path clip-path="url(#p2a783bdea6)" d="M 174.074056 273.312 
L 174.969655 273.312 
L 174.969655 232.982583 
L 174.074056 232.982583 
z
" style="fill:#1f77b4;"/>
   </g>
   <g id="patch_120">
    <path clip-path="url(#p2a783bdea6)" d="M 175.193555 273.312 
L 176.089154 273.312 
L 176.089154 233.029624 
L 175.193555 233.029624 
z
" style="fill:#1f77b4;"/>
   </g>
   <g id="patch_121">
    <path clip-path="url(#p2a783bdea6)" d="M 176.313053 273.312 
L 177.208652 273.312 
L 177.208652 233.138959 
L 176.313053 233.138959 
z
" style="fill:#1f77b4;"/>
   </g>
   <g id="patch_122">
    <path clip-path="url(#p2a783bdea6)" d="M 177.432552 273.312 
L 178.328151 273.312 
L 178.328151 233.123376 
L 177.432552 233.123376 
z
" style="fill:#1f77b4;"/>
   </g>
   <g id="patch_123">
    <path clip-path="url(#p2a783bdea6)" d="M 178.55205 273.312 
L 179.447649 273.312 
L 179.447649 233.123376 
L 178.55205 233.123376 
z
" style="fill:#1f77b4;"/>
   </g>
   <g id="patch_124">
    <path clip-path="url(#p2a783bdea6)" d="M 179.671549 273.312 
L 180.567147 273.312 
L 180.567147 233.138959 
L 179.671549 233.138959 
z
" style="fill:#1f77b4;"/>
   </g>
   <g id="patch_125">
    <path clip-path="url(#p2a783bdea6)" d="M 180.791047 273.312 
L 181.686646 273.312 
L 181.686646 233.15453 
L 180.791047 233.15453 
z
" style="fill:#1f77b4;"/>
   </g>
   <g id="patch_126">
    <path clip-path="url(#p2a783bdea6)" d="M 181.910546 273.312 
L 182.806144 273.312 
L 182.806144 233.123376 
L 181.910546 233.123376 
z
" style="fill:#1f77b4;"/>
   </g>
   <g id="patch_127">
    <path clip-path="url(#p2a783bdea6)" d="M 183.030044 273.312 
L 183.925643 273.312 
L 183.925643 233.170089 
L 183.030044 233.170089 
z
" style="fill:#1f77b4;"/>
   </g>
   <g id="patch_128">
    <path clip-path="url(#p2a783bdea6)" d="M 184.149542 273.312 
L 185.045141 273.312 
L 185.045141 233.185636 
L 184.149542 233.185636 
z
" style="fill:#1f77b4;"/>
   </g>
   <g id="patch_129">
    <path clip-path="url(#p2a783bdea6)" d="M 185.269041 273.312 
L 186.16464 273.312 
L 186.16464 233.201171 
L 185.269041 233.201171 
z
" style="fill:#1f77b4;"/>
   </g>
   <g id="patch_130">
    <path clip-path="url(#p2a783bdea6)" d="M 186.388539 273.312 
L 187.284138 273.312 
L 187.284138 233.216693 
L 186.388539 233.216693 
z
" style="fill:#1f77b4;"/>
   </g>
   <g id="patch_131">
    <path clip-path="url(#p2a783bdea6)" d="M 187.508038 273.312 
L 188.403636 273.312 
L 188.403636 233.247703 
L 187.508038 233.247703 
z
" style="fill:#1f77b4;"/>
   </g>
   <g id="patch_132">
    <path clip-path="url(#p2a783bdea6)" d="M 188.627536 273.312 
L 189.523135 273.312 
L 189.523135 233.294127 
L 188.627536 233.294127 
z
" style="fill:#1f77b4;"/>
   </g>
   <g id="patch_133">
    <path clip-path="url(#p2a783bdea6)" d="M 189.747035 273.312 
L 190.642633 273.312 
L 190.642633 233.417402 
L 189.747035 233.417402 
z
" style="fill:#1f77b4;"/>
   </g>
   <g id="patch_134">
    <path clip-path="url(#p2a783bdea6)" d="M 190.866533 273.312 
L 191.762132 273.312 
L 191.762132 233.524645 
L 190.866533 233.524645 
z
" style="fill:#1f77b4;"/>
   </g>
   <g id="patch_135">
    <path clip-path="url(#p2a783bdea6)" d="M 191.986031 273.312 
L 192.88163 273.312 
L 192.88163 233.55518 
L 191.986031 233.55518 
z
" style="fill:#1f77b4;"/>
   </g>
   <g id="patch_136">
    <path clip-path="url(#p2a783bdea6)" d="M 193.10553 273.312 
L 194.001129 273.312 
L 194.001129 233.55518 
L 193.10553 233.55518 
z
" style="fill:#1f77b4;"/>
   </g>
   <g id="patch_137">
    <path clip-path="url(#p2a783bdea6)" d="M 194.225028 273.312 
L 195.120627 273.312 
L 195.120627 233.55518 
L 194.225028 233.55518 
z
" style="fill:#1f77b4;"/>
   </g>
   <g id="patch_138">
    <path clip-path="url(#p2a783bdea6)" d="M 195.344527 273.312 
L 196.240125 273.312 
L 196.240125 233.57043 
L 195.344527 233.57043 
z
" style="fill:#1f77b4;"/>
   </g>
   <g id="patch_139">
    <path clip-path="url(#p2a783bdea6)" d="M 196.464025 273.312 
L 197.359624 273.312 
L 197.359624 233.61611 
L 196.464025 233.61611 
z
" style="fill:#1f77b4;"/>
   </g>
   <g id="patch_140">
    <path clip-path="url(#p2a783bdea6)" d="M 197.583524 273.312 
L 198.479122 273.312 
L 198.479122 233.61611 
L 197.583524 233.61611 
z
" style="fill:#1f77b4;"/>
   </g>
   <g id="patch_141">
    <path clip-path="url(#p2a783bdea6)" d="M 198.703022 273.312 
L 199.598621 273.312 
L 199.598621 233.692011 
L 198.703022 233.692011 
z
" style="fill:#1f77b4;"/>
   </g>
   <g id="patch_142">
    <path clip-path="url(#p2a783bdea6)" d="M 199.82252 273.312 
L 200.718119 273.312 
L 200.718119 233.737412 
L 199.82252 233.737412 
z
" style="fill:#1f77b4;"/>
   </g>
   <g id="patch_143">
    <path clip-path="url(#p2a783bdea6)" d="M 200.942019 273.312 
L 201.837618 273.312 
L 201.837618 233.782709 
L 200.942019 233.782709 
z
" style="fill:#1f77b4;"/>
   </g>
   <g id="patch_144">
    <path clip-path="url(#p2a783bdea6)" d="M 202.061517 273.312 
L 202.957116 273.312 
L 202.957116 233.797785 
L 202.061517 233.797785 
z
" style="fill:#1f77b4;"/>
   </g>
   <g id="patch_145">
    <path clip-path="url(#p2a783bdea6)" d="M 203.181016 273.312 
L 204.076614 273.312 
L 204.076614 233.797785 
L 203.181016 233.797785 
z
" style="fill:#1f77b4;"/>
   </g>
   <g id="patch_146">
    <path clip-path="url(#p2a783bdea6)" d="M 204.300514 273.312 
L 205.196113 273.312 
L 205.196113 233.902996 
L 204.300514 233.902996 
z
" style="fill:#1f77b4;"/>
   </g>
   <g id="patch_147">
    <path clip-path="url(#p2a783bdea6)" d="M 205.420013 273.312 
L 206.315611 273.312 
L 206.315611 233.962865 
L 205.420013 233.962865 
z
" style="fill:#1f77b4;"/>
   </g>
   <g id="patch_148">
    <path clip-path="url(#p2a783bdea6)" d="M 206.539511 273.312 
L 207.43511 273.312 
L 207.43511 233.962865 
L 206.539511 233.962865 
z
" style="fill:#1f77b4;"/>
   </g>
   <g id="patch_149">
    <path clip-path="url(#p2a783bdea6)" d="M 207.659009 273.312 
L 208.554608 273.312 
L 208.554608 234.111746 
L 207.659009 234.111746 
z
" style="fill:#1f77b4;"/>
   </g>
   <g id="patch_150">
    <path clip-path="url(#p2a783bdea6)" d="M 208.778508 273.312 
L 209.674107 273.312 
L 209.674107 234.141387 
L 208.778508 234.141387 
z
" style="fill:#1f77b4;"/>
   </g>
   <g id="patch_151">
    <path clip-path="url(#p2a783bdea6)" d="M 209.898006 273.312 
L 210.793605 273.312 
L 210.793605 234.15619 
L 209.898006 234.15619 
z
" style="fill:#1f77b4;"/>
   </g>
   <g id="patch_152">
    <path clip-path="url(#p2a783bdea6)" d="M 211.017505 273.312 
L 211.913104 273.312 
L 211.913104 234.170983 
L 211.017505 234.170983 
z
" style="fill:#1f77b4;"/>
   </g>
   <g id="patch_153">
    <path clip-path="url(#p2a783bdea6)" d="M 212.137003 273.312 
L 213.032602 273.312 
L 213.032602 234.200535 
L 212.137003 234.200535 
z
" style="fill:#1f77b4;"/>
   </g>
   <g id="patch_154">
    <path clip-path="url(#p2a783bdea6)" d="M 213.256502 273.312 
L 214.1521 273.312 
L 214.1521 234.347625 
L 213.256502 234.347625 
z
" style="fill:#1f77b4;"/>
   </g>
   <g id="patch_155">
    <path clip-path="url(#p2a783bdea6)" d="M 214.376 273.312 
L 215.271599 273.312 
L 215.271599 234.376911 
L 214.376 234.376911 
z
" style="fill:#1f77b4;"/>
   </g>
   <g id="patch_156">
    <path clip-path="url(#p2a783bdea6)" d="M 215.495499 273.312 
L 216.391097 273.312 
L 216.391097 234.464504 
L 215.495499 234.464504 
z
" style="fill:#1f77b4;"/>
   </g>
   <g id="patch_157">
    <path clip-path="url(#p2a783bdea6)" d="M 216.614997 273.312 
L 217.510596 273.312 
L 217.510596 234.551704 
L 216.614997 234.551704 
z
" style="fill:#1f77b4;"/>
   </g>
   <g id="patch_158">
    <path clip-path="url(#p2a783bdea6)" d="M 217.734495 273.312 
L 218.630094 273.312 
L 218.630094 234.60962 
L 217.734495 234.60962 
z
" style="fill:#1f77b4;"/>
   </g>
   <g id="patch_159">
    <path clip-path="url(#p2a783bdea6)" d="M 218.853994 273.312 
L 219.749593 273.312 
L 219.749593 234.60962 
L 218.853994 234.60962 
z
" style="fill:#1f77b4;"/>
   </g>
   <g id="patch_160">
    <path clip-path="url(#p2a783bdea6)" d="M 219.973492 273.312 
L 220.869091 273.312 
L 220.869091 234.782334 
L 219.973492 234.782334 
z
" style="fill:#1f77b4;"/>
   </g>
   <g id="patch_161">
    <path clip-path="url(#p2a783bdea6)" d="M 221.092991 273.312 
L 221.988589 273.312 
L 221.988589 234.839563 
L 221.092991 234.839563 
z
" style="fill:#1f77b4;"/>
   </g>
   <g id="patch_162">
    <path clip-path="url(#p2a783bdea6)" d="M 222.212489 273.312 
L 223.108088 273.312 
L 223.108088 234.882374 
L 222.212489 234.882374 
z
" style="fill:#1f77b4;"/>
   </g>
   <g id="patch_163">
    <path clip-path="url(#p2a783bdea6)" d="M 223.331988 273.312 
L 224.227586 273.312 
L 224.227586 235.095006 
L 223.331988 235.095006 
z
" style="fill:#1f77b4;"/>
   </g>
   <g id="patch_164">
    <path clip-path="url(#p2a783bdea6)" d="M 224.451486 273.312 
L 225.347085 273.312 
L 225.347085 235.109097 
L 224.451486 235.109097 
z
" style="fill:#1f77b4;"/>
   </g>
   <g id="patch_165">
    <path clip-path="url(#p2a783bdea6)" d="M 225.570984 273.312 
L 226.466583 273.312 
L 226.466583 235.109097 
L 225.570984 235.109097 
z
" style="fill:#1f77b4;"/>
   </g>
   <g id="patch_166">
    <path clip-path="url(#p2a783bdea6)" d="M 226.690483 273.312 
L 227.586082 273.312 
L 227.586082 235.398721 
L 226.690483 235.398721 
z
" style="fill:#1f77b4;"/>
   </g>
   <g id="patch_167">
    <path clip-path="url(#p2a783bdea6)" d="M 227.809981 273.312 
L 228.70558 273.312 
L 228.70558 235.221459 
L 227.809981 235.221459 
z
" style="fill:#1f77b4;"/>
   </g>
   <g id="patch_168">
    <path clip-path="url(#p2a783bdea6)" d="M 228.92948 273.312 
L 229.825078 273.312 
L 229.825078 235.249446 
L 228.92948 235.249446 
z
" style="fill:#1f77b4;"/>
   </g>
   <g id="patch_169">
    <path clip-path="url(#p2a783bdea6)" d="M 230.048978 273.312 
L 230.944577 273.312 
L 230.944577 235.305297 
L 230.048978 235.305297 
z
" style="fill:#1f77b4;"/>
   </g>
   <g id="patch_170">
    <path clip-path="url(#p2a783bdea6)" d="M 231.168477 273.312 
L 232.064075 273.312 
L 232.064075 235.416509 
L 231.168477 235.416509 
z
" style="fill:#1f77b4;"/>
   </g>
   <g id="patch_171">
    <path clip-path="url(#p2a783bdea6)" d="M 232.287975 273.312 
L 233.183574 273.312 
L 233.183574 235.527072 
L 232.287975 235.527072 
z
" style="fill:#1f77b4;"/>
   </g>
   <g id="patch_172">
    <path clip-path="url(#p2a783bdea6)" d="M 233.407473 273.312 
L 234.303072 273.312 
L 234.303072 235.568367 
L 233.407473 235.568367 
z
" style="fill:#1f77b4;"/>
   </g>
   <g id="patch_173">
    <path clip-path="url(#p2a783bdea6)" d="M 234.526972 273.312 
L 235.422571 273.312 
L 235.422571 235.595847 
L 234.526972 235.595847 
z
" style="fill:#1f77b4;"/>
   </g>
   <g id="patch_174">
    <path clip-path="url(#p2a783bdea6)" d="M 235.64647 273.312 
L 236.542069 273.312 
L 236.542069 235.664372 
L 235.64647 235.664372 
z
" style="fill:#1f77b4;"/>
   </g>
   <g id="patch_175">
    <path clip-path="url(#p2a783bdea6)" d="M 236.765969 273.312 
L 237.661567 273.312 
L 237.661567 235.719013 
L 236.765969 235.719013 
z
" style="fill:#1f77b4;"/>
   </g>
   <g id="patch_176">
    <path clip-path="url(#p2a783bdea6)" d="M 237.885467 273.312 
L 238.781066 273.312 
L 238.781066 235.827821 
L 237.885467 235.827821 
z
" style="fill:#1f77b4;"/>
   </g>
   <g id="patch_177">
    <path clip-path="url(#p2a783bdea6)" d="M 239.004966 273.312 
L 239.900564 273.312 
L 239.900564 236.016726 
L 239.004966 236.016726 
z
" style="fill:#1f77b4;"/>
   </g>
   <g id="patch_178">
    <path clip-path="url(#p2a783bdea6)" d="M 240.124464 273.312 
L 241.020063 273.312 
L 241.020063 236.110466 
L 240.124464 236.110466 
z
" style="fill:#1f77b4;"/>
   </g>
   <g id="patch_179">
    <path clip-path="url(#p2a783bdea6)" d="M 241.243962 273.312 
L 242.139561 273.312 
L 242.139561 236.150496 
L 241.243962 236.150496 
z
" style="fill:#1f77b4;"/>
   </g>
   <g id="patch_180">
    <path clip-path="url(#p2a783bdea6)" d="M 242.363461 273.312 
L 243.25906 273.312 
L 243.25906 236.163821 
L 242.363461 236.163821 
z
" style="fill:#1f77b4;"/>
   </g>
   <g id="patch_181">
    <path clip-path="url(#p2a783bdea6)" d="M 243.482959 273.312 
L 244.378558 273.312 
L 244.378558 236.230299 
L 243.482959 236.230299 
z
" style="fill:#1f77b4;"/>
   </g>
   <g id="patch_182">
    <path clip-path="url(#p2a783bdea6)" d="M 244.602458 273.312 
L 245.498056 273.312 
L 245.498056 236.283311 
L 244.602458 236.283311 
z
" style="fill:#1f77b4;"/>
   </g>
   <g id="patch_183">
    <path clip-path="url(#p2a783bdea6)" d="M 245.721956 273.312 
L 246.617555 273.312 
L 246.617555 236.415179 
L 245.721956 236.415179 
z
" style="fill:#1f77b4;"/>
   </g>
   <g id="patch_184">
    <path clip-path="url(#p2a783bdea6)" d="M 246.841455 273.312 
L 247.737053 273.312 
L 247.737053 236.598225 
L 246.841455 236.598225 
z
" style="fill:#1f77b4;"/>
   </g>
   <g id="patch_185">
    <path clip-path="url(#p2a783bdea6)" d="M 247.960953 273.312 
L 248.856552 273.312 
L 248.856552 236.727864 
L 247.960953 236.727864 
z
" style="fill:#1f77b4;"/>
   </g>
   <g id="patch_186">
    <path clip-path="url(#p2a783bdea6)" d="M 249.080451 273.312 
L 249.97605 273.312 
L 249.97605 236.727864 
L 249.080451 236.727864 
z
" style="fill:#1f77b4;"/>
   </g>
   <g id="patch_187">
    <path clip-path="url(#p2a783bdea6)" d="M 250.19995 273.312 
L 251.095549 273.312 
L 251.095549 236.779464 
L 250.19995 236.779464 
z
" style="fill:#1f77b4;"/>
   </g>
   <g id="patch_188">
    <path clip-path="url(#p2a783bdea6)" d="M 251.319448 273.312 
L 252.215047 273.312 
L 252.215047 236.895033 
L 251.319448 236.895033 
z
" style="fill:#1f77b4;"/>
   </g>
   <g id="patch_189">
    <path clip-path="url(#p2a783bdea6)" d="M 252.438947 273.312 
L 253.334546 273.312 
L 253.334546 237.047992 
L 252.438947 237.047992 
z
" style="fill:#1f77b4;"/>
   </g>
   <g id="patch_190">
    <path clip-path="url(#p2a783bdea6)" d="M 253.558445 273.312 
L 254.454044 273.312 
L 254.454044 237.212254 
L 253.558445 237.212254 
z
" style="fill:#1f77b4;"/>
   </g>
   <g id="patch_191">
    <path clip-path="url(#p2a783bdea6)" d="M 254.677944 273.312 
L 255.573542 273.312 
L 255.573542 237.287566 
L 254.677944 237.287566 
z
" style="fill:#1f77b4;"/>
   </g>
   <g id="patch_192">
    <path clip-path="url(#p2a783bdea6)" d="M 255.797442 273.312 
L 256.693041 273.312 
L 256.693041 237.325105 
L 255.797442 237.325105 
z
" style="fill:#1f77b4;"/>
   </g>
   <g id="patch_193">
    <path clip-path="url(#p2a783bdea6)" d="M 256.916941 273.312 
L 257.812539 273.312 
L 257.812539 237.350087 
L 256.916941 237.350087 
z
" style="fill:#1f77b4;"/>
   </g>
   <g id="patch_194">
    <path clip-path="url(#p2a783bdea6)" d="M 258.036439 273.312 
L 258.932038 273.312 
L 258.932038 237.350087 
L 258.036439 237.350087 
z
" style="fill:#1f77b4;"/>
   </g>
   <g id="patch_195">
    <path clip-path="url(#p2a783bdea6)" d="M 259.155937 273.312 
L 260.051536 273.312 
L 260.051536 237.462079 
L 259.155937 237.462079 
z
" style="fill:#1f77b4;"/>
   </g>
   <g id="patch_196">
    <path clip-path="url(#p2a783bdea6)" d="M 260.275436 273.312 
L 261.171035 273.312 
L 261.171035 237.598014 
L 260.275436 237.598014 
z
" style="fill:#1f77b4;"/>
   </g>
   <g id="patch_197">
    <path clip-path="url(#p2a783bdea6)" d="M 261.394934 273.312 
L 262.290533 273.312 
L 262.290533 237.878938 
L 261.394934 237.878938 
z
" style="fill:#1f77b4;"/>
   </g>
   <g id="patch_198">
    <path clip-path="url(#p2a783bdea6)" d="M 262.514433 273.312 
L 263.410031 273.312 
L 263.410031 237.915255 
L 262.514433 237.915255 
z
" style="fill:#1f77b4;"/>
   </g>
   <g id="patch_199">
    <path clip-path="url(#p2a783bdea6)" d="M 263.633931 273.312 
L 264.52953 273.312 
L 264.52953 238.095728 
L 263.633931 238.095728 
z
" style="fill:#1f77b4;"/>
   </g>
   <g id="patch_200">
    <path clip-path="url(#p2a783bdea6)" d="M 264.75343 273.312 
L 265.649028 273.312 
L 265.649028 238.238787 
L 264.75343 238.238787 
z
" style="fill:#1f77b4;"/>
   </g>
   <g id="patch_201">
    <path clip-path="url(#p2a783bdea6)" d="M 265.872928 273.312 
L 266.768527 273.312 
L 266.768527 238.262517 
L 265.872928 238.262517 
z
" style="fill:#1f77b4;"/>
   </g>
   <g id="patch_202">
    <path clip-path="url(#p2a783bdea6)" d="M 266.992426 273.312 
L 267.888025 273.312 
L 267.888025 238.521445 
L 266.992426 238.521445 
z
" style="fill:#1f77b4;"/>
   </g>
   <g id="patch_203">
    <path clip-path="url(#p2a783bdea6)" d="M 268.111925 273.312 
L 269.007524 273.312 
L 269.007524 238.614655 
L 268.111925 238.614655 
z
" style="fill:#1f77b4;"/>
   </g>
   <g id="patch_204">
    <path clip-path="url(#p2a783bdea6)" d="M 269.231423 273.312 
L 270.127022 273.312 
L 270.127022 238.799584 
L 269.231423 238.799584 
z
" style="fill:#1f77b4;"/>
   </g>
   <g id="patch_205">
    <path clip-path="url(#p2a783bdea6)" d="M 270.350922 273.312 
L 271.24652 273.312 
L 271.24652 238.879872 
L 270.350922 238.879872 
z
" style="fill:#1f77b4;"/>
   </g>
   <g id="patch_206">
    <path clip-path="url(#p2a783bdea6)" d="M 271.47042 273.312 
L 272.366019 273.312 
L 272.366019 239.107222 
L 271.47042 239.107222 
z
" style="fill:#1f77b4;"/>
   </g>
   <g id="patch_207">
    <path clip-path="url(#p2a783bdea6)" d="M 272.589919 273.312 
L 273.485517 273.312 
L 273.485517 239.174843 
L 272.589919 239.174843 
z
" style="fill:#1f77b4;"/>
   </g>
   <g id="patch_208">
    <path clip-path="url(#p2a783bdea6)" d="M 273.709417 273.312 
L 274.605016 273.312 
L 274.605016 239.331589 
L 273.709417 239.331589 
z
" style="fill:#1f77b4;"/>
   </g>
   <g id="patch_209">
    <path clip-path="url(#p2a783bdea6)" d="M 274.828915 273.312 
L 275.724514 273.312 
L 275.724514 239.531018 
L 274.828915 239.531018 
z
" style="fill:#1f77b4;"/>
   </g>
   <g id="patch_210">
    <path clip-path="url(#p2a783bdea6)" d="M 275.948414 273.312 
L 276.844013 273.312 
L 276.844013 239.640803 
L 275.948414 239.640803 
z
" style="fill:#1f77b4;"/>
   </g>
   <g id="patch_211">
    <path clip-path="url(#p2a783bdea6)" d="M 277.067912 273.312 
L 277.963511 273.312 
L 277.963511 239.79331 
L 277.067912 239.79331 
z
" style="fill:#1f77b4;"/>
   </g>
   <g id="patch_212">
    <path clip-path="url(#p2a783bdea6)" d="M 278.187411 273.312 
L 279.083009 273.312 
L 279.083009 239.96592 
L 278.187411 239.96592 
z
" style="fill:#1f77b4;"/>
   </g>
   <g id="patch_213">
    <path clip-path="url(#p2a783bdea6)" d="M 279.306909 273.312 
L 280.202508 273.312 
L 280.202508 240.033803 
L 279.306909 240.033803 
z
" style="fill:#1f77b4;"/>
   </g>
   <g id="patch_214">
    <path clip-path="url(#p2a783bdea6)" d="M 280.426408 273.312 
L 281.322006 273.312 
L 281.322006 240.161143 
L 280.426408 240.161143 
z
" style="fill:#1f77b4;"/>
   </g>
   <g id="patch_215">
    <path clip-path="url(#p2a783bdea6)" d="M 281.545906 273.312 
L 282.441505 273.312 
L 282.441505 240.297999 
L 281.545906 240.297999 
z
" style="fill:#1f77b4;"/>
   </g>
   <g id="patch_216">
    <path clip-path="url(#p2a783bdea6)" d="M 282.665404 273.312 
L 283.561003 273.312 
L 283.561003 240.297999 
L 282.665404 240.297999 
z
" style="fill:#1f77b4;"/>
   </g>
   <g id="patch_217">
    <path clip-path="url(#p2a783bdea6)" d="M 283.784903 273.312 
L 284.680502 273.312 
L 284.680502 240.537382 
L 283.784903 240.537382 
z
" style="fill:#1f77b4;"/>
   </g>
   <g id="patch_218">
    <path clip-path="url(#p2a783bdea6)" d="M 284.904401 273.312 
L 285.8 273.312 
L 285.8 240.722317 
L 284.904401 240.722317 
z
" style="fill:#1f77b4;"/>
   </g>
   <g id="patch_219">
    <path clip-path="url(#p2a783bdea6)" d="M 286.0239 273.312 
L 286.919499 273.312 
L 286.919499 240.864719 
L 286.0239 240.864719 
z
" style="fill:#1f77b4;"/>
   </g>
   <g id="patch_220">
    <path clip-path="url(#p2a783bdea6)" d="M 287.143398 273.312 
L 288.038997 273.312 
L 288.038997 240.945534 
L 287.143398 240.945534 
z
" style="fill:#1f77b4;"/>
   </g>
   <g id="patch_221">
    <path clip-path="url(#p2a783bdea6)" d="M 288.262897 273.312 
L 289.158495 273.312 
L 289.158495 240.855278 
L 288.262897 240.855278 
z
" style="fill:#1f77b4;"/>
   </g>
   <g id="patch_222">
    <path clip-path="url(#p2a783bdea6)" d="M 289.382395 273.312 
L 290.277994 273.312 
L 290.277994 240.895622 
L 289.382395 240.895622 
z
" style="fill:#1f77b4;"/>
   </g>
   <g id="patch_223">
    <path clip-path="url(#p2a783bdea6)" d="M 290.501893 273.312 
L 291.397492 273.312 
L 291.397492 240.71562 
L 290.501893 240.71562 
z
" style="fill:#1f77b4;"/>
   </g>
   <g id="patch_224">
    <path clip-path="url(#p2a783bdea6)" d="M 291.621392 273.312 
L 292.516991 273.312 
L 292.516991 240.806418 
L 291.621392 240.806418 
z
" style="fill:#1f77b4;"/>
   </g>
   <g id="patch_225">
    <path clip-path="url(#p2a783bdea6)" d="M 292.74089 273.312 
L 293.636489 273.312 
L 293.636489 240.856643 
L 292.74089 240.856643 
z
" style="fill:#1f77b4;"/>
   </g>
   <g id="patch_226">
    <path clip-path="url(#p2a783bdea6)" d="M 293.860389 273.312 
L 294.755988 273.312 
L 294.755988 240.886703 
L 293.860389 240.886703 
z
" style="fill:#1f77b4;"/>
   </g>
   <g id="patch_227">
    <path clip-path="url(#p2a783bdea6)" d="M 294.979887 273.312 
L 295.875486 273.312 
L 295.875486 240.966593 
L 294.979887 240.966593 
z
" style="fill:#1f77b4;"/>
   </g>
   <g id="patch_228">
    <path clip-path="url(#p2a783bdea6)" d="M 296.099386 273.312 
L 296.994984 273.312 
L 296.994984 240.709055 
L 296.099386 240.709055 
z
" style="fill:#1f77b4;"/>
   </g>
   <g id="patch_229">
    <path clip-path="url(#p2a783bdea6)" d="M 297.218884 273.312 
L 298.114483 273.312 
L 298.114483 240.650202 
L 297.218884 240.650202 
z
" style="fill:#1f77b4;"/>
   </g>
   <g id="patch_230">
    <path clip-path="url(#p2a783bdea6)" d="M 298.338383 273.312 
L 299.233981 273.312 
L 299.233981 240.285648 
L 298.338383 240.285648 
z
" style="fill:#1f77b4;"/>
   </g>
   <g id="patch_231">
    <path clip-path="url(#p2a783bdea6)" d="M 299.457881 273.312 
L 300.35348 273.312 
L 300.35348 240.088715 
L 299.457881 240.088715 
z
" style="fill:#1f77b4;"/>
   </g>
   <g id="patch_232">
    <path clip-path="url(#p2a783bdea6)" d="M 300.577379 273.312 
L 301.472978 273.312 
L 301.472978 239.932853 
L 300.577379 239.932853 
z
" style="fill:#1f77b4;"/>
   </g>
   <g id="patch_233">
    <path clip-path="url(#p2a783bdea6)" d="M 301.696878 273.312 
L 302.592477 273.312 
L 302.592477 239.581777 
L 301.696878 239.581777 
z
" style="fill:#1f77b4;"/>
   </g>
   <g id="patch_234">
    <path clip-path="url(#p2a783bdea6)" d="M 302.816376 273.312 
L 303.711975 273.312 
L 303.711975 239.288548 
L 302.816376 239.288548 
z
" style="fill:#1f77b4;"/>
   </g>
   <g id="patch_235">
    <path clip-path="url(#p2a783bdea6)" d="M 303.935875 273.312 
L 304.831473 273.312 
L 304.831473 238.94021 
L 303.935875 238.94021 
z
" style="fill:#1f77b4;"/>
   </g>
   <g id="patch_236">
    <path clip-path="url(#p2a783bdea6)" d="M 305.055373 273.312 
L 305.950972 273.312 
L 305.950972 238.863845 
L 305.055373 238.863845 
z
" style="fill:#1f77b4;"/>
   </g>
   <g id="patch_237">
    <path clip-path="url(#p2a783bdea6)" d="M 306.174872 273.312 
L 307.07047 273.312 
L 307.07047 238.701048 
L 306.174872 238.701048 
z
" style="fill:#1f77b4;"/>
   </g>
   <g id="patch_238">
    <path clip-path="url(#p2a783bdea6)" d="M 307.29437 273.312 
L 308.189969 273.312 
L 308.189969 238.37693 
L 307.29437 238.37693 
z
" style="fill:#1f77b4;"/>
   </g>
   <g id="patch_239">
    <path clip-path="url(#p2a783bdea6)" d="M 308.413868 273.312 
L 309.309467 273.312 
L 309.309467 247.441633 
L 308.413868 247.441633 
z
" style="fill:#1f77b4;"/>
   </g>
   <g id="patch_240">
    <path clip-path="url(#p2a783bdea6)" d="M 309.533367 273.312 
L 310.428966 273.312 
L 310.428966 248.73379 
L 309.533367 248.73379 
z
" style="fill:#1f77b4;"/>
   </g>
   <g id="patch_241">
    <path clip-path="url(#p2a783bdea6)" d="M 310.652865 273.312 
L 311.548464 273.312 
L 311.548464 249.76807 
L 310.652865 249.76807 
z
" style="fill:#1f77b4;"/>
   </g>
   <g id="patch_242">
    <path clip-path="url(#p2a783bdea6)" d="M 311.772364 273.312 
L 312.667962 273.312 
L 312.667962 250.193677 
L 311.772364 250.193677 
z
" style="fill:#1f77b4;"/>
   </g>
   <g id="patch_243">
    <path clip-path="url(#p2a783bdea6)" d="M 312.891862 273.312 
L 313.787461 273.312 
L 313.787461 250.403754 
L 312.891862 250.403754 
z
" style="fill:#1f77b4;"/>
   </g>
   <g id="patch_244">
    <path clip-path="url(#p2a783bdea6)" d="M 314.011361 273.312 
L 314.906959 273.312 
L 314.906959 250.504669 
L 314.011361 250.504669 
z
" style="fill:#1f77b4;"/>
   </g>
   <g id="patch_245">
    <path clip-path="url(#p2a783bdea6)" d="M 315.130859 273.312 
L 316.026458 273.312 
L 316.026458 251.468883 
L 315.130859 251.468883 
z
" style="fill:#1f77b4;"/>
   </g>
   <g id="patch_246">
    <path clip-path="url(#p2a783bdea6)" d="M 316.250357 273.312 
L 317.145956 273.312 
L 317.145956 252.147537 
L 316.250357 252.147537 
z
" style="fill:#1f77b4;"/>
   </g>
   <g id="patch_247">
    <path clip-path="url(#p2a783bdea6)" d="M 317.369856 273.312 
L 318.265455 273.312 
L 318.265455 252.983162 
L 317.369856 252.983162 
z
" style="fill:#1f77b4;"/>
   </g>
   <g id="patch_248">
    <path clip-path="url(#p2a783bdea6)" d="M 318.489354 273.312 
L 319.384953 273.312 
L 319.384953 253.172701 
L 318.489354 253.172701 
z
" style="fill:#1f77b4;"/>
   </g>
   <g id="patch_249">
    <path clip-path="url(#p2a783bdea6)" d="M 319.608853 273.312 
L 320.504451 273.312 
L 320.504451 253.567499 
L 319.608853 253.567499 
z
" style="fill:#1f77b4;"/>
   </g>
   <g id="patch_250">
    <path clip-path="url(#p2a783bdea6)" d="M 320.728351 273.312 
L 321.62395 273.312 
L 321.62395 253.469527 
L 320.728351 253.469527 
z
" style="fill:#1f77b4;"/>
   </g>
   <g id="patch_251">
    <path clip-path="url(#p2a783bdea6)" d="M 321.84785 273.312 
L 322.743448 273.312 
L 322.743448 253.939338 
L 321.84785 253.939338 
z
" style="fill:#1f77b4;"/>
   </g>
   <g id="patch_252">
    <path clip-path="url(#p2a783bdea6)" d="M 322.967348 273.312 
L 323.862947 273.312 
L 323.862947 254.306325 
L 322.967348 254.306325 
z
" style="fill:#1f77b4;"/>
   </g>
   <g id="patch_253">
    <path clip-path="url(#p2a783bdea6)" d="M 324.086846 273.312 
L 324.982445 273.312 
L 324.982445 254.923906 
L 324.086846 254.923906 
z
" style="fill:#1f77b4;"/>
   </g>
   <g id="patch_254">
    <path clip-path="url(#p2a783bdea6)" d="M 325.206345 273.312 
L 326.101944 273.312 
L 326.101944 255.077852 
L 325.206345 255.077852 
z
" style="fill:#1f77b4;"/>
   </g>
   <g id="patch_255">
    <path clip-path="url(#p2a783bdea6)" d="M 326.325843 273.312 
L 327.221442 273.312 
L 327.221442 255.934316 
L 326.325843 255.934316 
z
" style="fill:#1f77b4;"/>
   </g>
   <g id="patch_256">
    <path clip-path="url(#p2a783bdea6)" d="M 327.445342 273.312 
L 328.340941 273.312 
L 328.340941 256.228934 
L 327.445342 256.228934 
z
" style="fill:#1f77b4;"/>
   </g>
   <g id="patch_257">
    <path clip-path="url(#p2a783bdea6)" d="M 328.56484 273.312 
L 329.460439 273.312 
L 329.460439 255.8632 
L 328.56484 255.8632 
z
" style="fill:#1f77b4;"/>
   </g>
   <g id="patch_258">
    <path clip-path="url(#p2a783bdea6)" d="M 329.684339 273.312 
L 330.579937 273.312 
L 330.579937 256.257819 
L 329.684339 256.257819 
z
" style="fill:#1f77b4;"/>
   </g>
   <g id="patch_259">
    <path clip-path="url(#p2a783bdea6)" d="M 330.803837 273.312 
L 331.699436 273.312 
L 331.699436 256.594297 
L 330.803837 256.594297 
z
" style="fill:#1f77b4;"/>
   </g>
   <g id="patch_260">
    <path clip-path="url(#p2a783bdea6)" d="M 331.923335 273.312 
L 332.818934 273.312 
L 332.818934 256.80893 
L 331.923335 256.80893 
z
" style="fill:#1f77b4;"/>
   </g>
   <g id="patch_261">
    <path clip-path="url(#p2a783bdea6)" d="M 333.042834 273.312 
L 333.938433 273.312 
L 333.938433 257.313313 
L 333.042834 257.313313 
z
" style="fill:#1f77b4;"/>
   </g>
   <g id="patch_262">
    <path clip-path="url(#p2a783bdea6)" d="M 334.162332 273.312 
L 335.057931 273.312 
L 335.057931 257.969544 
L 334.162332 257.969544 
z
" style="fill:#1f77b4;"/>
   </g>
   <g id="patch_263">
    <path clip-path="url(#p2a783bdea6)" d="M 335.281831 273.312 
L 336.17743 273.312 
L 336.17743 258.184959 
L 335.281831 258.184959 
z
" style="fill:#1f77b4;"/>
   </g>
   <g id="patch_264">
    <path clip-path="url(#p2a783bdea6)" d="M 336.401329 273.312 
L 337.296928 273.312 
L 337.296928 258.214047 
L 336.401329 258.214047 
z
" style="fill:#1f77b4;"/>
   </g>
   <g id="patch_265">
    <path clip-path="url(#p2a783bdea6)" d="M 337.520828 273.312 
L 338.416426 273.312 
L 338.416426 258.356695 
L 337.520828 258.356695 
z
" style="fill:#1f77b4;"/>
   </g>
   <g id="patch_266">
    <path clip-path="url(#p2a783bdea6)" d="M 338.640326 273.312 
L 339.535925 273.312 
L 339.535925 258.478155 
L 338.640326 258.478155 
z
" style="fill:#1f77b4;"/>
   </g>
   <g id="patch_267">
    <path clip-path="url(#p2a783bdea6)" d="M 339.759825 273.312 
L 340.655423 273.312 
L 340.655423 258.533411 
L 339.759825 258.533411 
z
" style="fill:#1f77b4;"/>
   </g>
   <g id="patch_268">
    <path clip-path="url(#p2a783bdea6)" d="M 340.879323 273.312 
L 341.774922 273.312 
L 341.774922 258.816267 
L 340.879323 258.816267 
z
" style="fill:#1f77b4;"/>
   </g>
   <g id="patch_269">
    <path clip-path="url(#p2a783bdea6)" d="M 341.998821 273.312 
L 342.89442 273.312 
L 342.89442 259.109531 
L 341.998821 259.109531 
z
" style="fill:#1f77b4;"/>
   </g>
   <g id="patch_270">
    <path clip-path="url(#p2a783bdea6)" d="M 343.11832 273.312 
L 344.013919 273.312 
L 344.013919 259.103763 
L 343.11832 259.103763 
z
" style="fill:#1f77b4;"/>
   </g>
   <g id="patch_271">
    <path clip-path="url(#p2a783bdea6)" d="M 344.237818 273.312 
L 345.133417 273.312 
L 345.133417 258.947176 
L 344.237818 258.947176 
z
" style="fill:#1f77b4;"/>
   </g>
   <g id="patch_272">
    <path clip-path="url(#p2a783bdea6)" d="M 345.357317 273.312 
L 346.252915 273.312 
L 346.252915 258.93175 
L 345.357317 258.93175 
z
" style="fill:#1f77b4;"/>
   </g>
   <g id="patch_273">
    <path clip-path="url(#p2a783bdea6)" d="M 346.476815 273.312 
L 347.372414 273.312 
L 347.372414 259.12863 
L 346.476815 259.12863 
z
" style="fill:#1f77b4;"/>
   </g>
   <g id="patch_274">
    <path clip-path="url(#p2a783bdea6)" d="M 347.596314 273.312 
L 348.491912 273.312 
L 348.491912 259.034923 
L 347.596314 259.034923 
z
" style="fill:#1f77b4;"/>
   </g>
   <g id="patch_275">
    <path clip-path="url(#p2a783bdea6)" d="M 348.715812 273.312 
L 349.611411 273.312 
L 349.611411 259.173772 
L 348.715812 259.173772 
z
" style="fill:#1f77b4;"/>
   </g>
   <g id="patch_276">
    <path clip-path="url(#p2a783bdea6)" d="M 349.83531 273.312 
L 350.730909 273.312 
L 350.730909 259.325432 
L 349.83531 259.325432 
z
" style="fill:#1f77b4;"/>
   </g>
   <g id="patch_277">
    <path clip-path="url(#p2a783bdea6)" d="M 350.954809 273.312 
L 351.850408 273.312 
L 351.850408 259.174424 
L 350.954809 259.174424 
z
" style="fill:#1f77b4;"/>
   </g>
   <g id="patch_278">
    <path clip-path="url(#p2a783bdea6)" d="M 352.074307 273.312 
L 352.969906 273.312 
L 352.969906 259.019289 
L 352.074307 259.019289 
z
" style="fill:#1f77b4;"/>
   </g>
   <g id="patch_279">
    <path clip-path="url(#p2a783bdea6)" d="M 353.193806 273.312 
L 354.089404 273.312 
L 354.089404 259.008875 
L 353.193806 259.008875 
z
" style="fill:#1f77b4;"/>
   </g>
   <g id="patch_280">
    <path clip-path="url(#p2a783bdea6)" d="M 354.313304 273.312 
L 355.208903 273.312 
L 355.208903 259.09824 
L 354.313304 259.09824 
z
" style="fill:#1f77b4;"/>
   </g>
   <g id="patch_281">
    <path clip-path="url(#p2a783bdea6)" d="M 355.432803 273.312 
L 356.328401 273.312 
L 356.328401 259.088357 
L 355.432803 259.088357 
z
" style="fill:#1f77b4;"/>
   </g>
   <g id="patch_282">
    <path clip-path="url(#p2a783bdea6)" d="M 356.552301 273.312 
L 357.4479 273.312 
L 357.4479 259.028712 
L 356.552301 259.028712 
z
" style="fill:#1f77b4;"/>
   </g>
   <g id="patch_283">
    <path clip-path="url(#p2a783bdea6)" d="M 357.671799 273.312 
L 358.567398 273.312 
L 358.567398 260.242224 
L 357.671799 260.242224 
z
" style="fill:#1f77b4;"/>
   </g>
   <g id="patch_284">
    <path clip-path="url(#p2a783bdea6)" d="M 358.791298 273.312 
L 359.686897 273.312 
L 359.686897 259.143929 
L 358.791298 259.143929 
z
" style="fill:#1f77b4;"/>
   </g>
   <g id="patch_285">
    <path clip-path="url(#p2a783bdea6)" d="M 359.910796 273.312 
L 360.806395 273.312 
L 360.806395 259.095734 
L 359.910796 259.095734 
z
" style="fill:#1f77b4;"/>
   </g>
   <g id="patch_286">
    <path clip-path="url(#p2a783bdea6)" d="M 361.030295 273.312 
L 361.925893 273.312 
L 361.925893 259.291061 
L 361.030295 259.291061 
z
" style="fill:#1f77b4;"/>
   </g>
   <g id="patch_287">
    <path clip-path="url(#p2a783bdea6)" d="M 362.149793 273.312 
L 363.045392 273.312 
L 363.045392 259.382128 
L 362.149793 259.382128 
z
" style="fill:#1f77b4;"/>
   </g>
   <g id="patch_288">
    <path clip-path="url(#p2a783bdea6)" d="M 363.269292 273.312 
L 364.16489 273.312 
L 364.16489 259.41872 
L 363.269292 259.41872 
z
" style="fill:#1f77b4;"/>
   </g>
   <g id="patch_289">
    <path clip-path="url(#p2a783bdea6)" d="M 364.38879 273.312 
L 365.284389 273.312 
L 365.284389 259.298915 
L 364.38879 259.298915 
z
" style="fill:#1f77b4;"/>
   </g>
   <g id="patch_290">
    <path clip-path="url(#p2a783bdea6)" d="M 365.508288 273.312 
L 366.403887 273.312 
L 366.403887 259.293039 
L 365.508288 259.293039 
z
" style="fill:#1f77b4;"/>
   </g>
   <g id="patch_291">
    <path clip-path="url(#p2a783bdea6)" d="M 366.627787 273.312 
L 367.523386 273.312 
L 367.523386 259.325477 
L 366.627787 259.325477 
z
" style="fill:#1f77b4;"/>
   </g>
   <g id="patch_292">
    <path clip-path="url(#p2a783bdea6)" d="M 367.747285 273.312 
L 368.642884 273.312 
L 368.642884 259.205277 
L 367.747285 259.205277 
z
" style="fill:#1f77b4;"/>
   </g>
   <g id="patch_293">
    <path clip-path="url(#p2a783bdea6)" d="M 368.866784 273.312 
L 369.762383 273.312 
L 369.762383 259.391299 
L 368.866784 259.391299 
z
" style="fill:#1f77b4;"/>
   </g>
   <g id="patch_294">
    <path clip-path="url(#p2a783bdea6)" d="M 369.986282 273.312 
L 370.881881 273.312 
L 370.881881 259.383234 
L 369.986282 259.383234 
z
" style="fill:#1f77b4;"/>
   </g>
   <g id="patch_295">
    <path clip-path="url(#p2a783bdea6)" d="M 371.105781 273.312 
L 372.001379 273.312 
L 372.001379 259.43432 
L 371.105781 259.43432 
z
" style="fill:#1f77b4;"/>
   </g>
   <g id="patch_296">
    <path clip-path="url(#p2a783bdea6)" d="M 372.225279 273.312 
L 373.120878 273.312 
L 373.120878 259.389596 
L 372.225279 259.389596 
z
" style="fill:#1f77b4;"/>
   </g>
   <g id="patch_297">
    <path clip-path="url(#p2a783bdea6)" d="M 373.344777 273.312 
L 374.240376 273.312 
L 374.240376 259.357935 
L 373.344777 259.357935 
z
" style="fill:#1f77b4;"/>
   </g>
   <g id="patch_298">
    <path clip-path="url(#p2a783bdea6)" d="M 374.464276 273.312 
L 375.359875 273.312 
L 375.359875 259.311223 
L 374.464276 259.311223 
z
" style="fill:#1f77b4;"/>
   </g>
   <g id="patch_299">
    <path clip-path="url(#p2a783bdea6)" d="M 375.583774 273.312 
L 376.479373 273.312 
L 376.479373 259.31728 
L 375.583774 259.31728 
z
" style="fill:#1f77b4;"/>
   </g>
   <g id="patch_300">
    <path clip-path="url(#p2a783bdea6)" d="M 376.703273 273.312 
L 377.598872 273.312 
L 377.598872 259.336512 
L 376.703273 259.336512 
z
" style="fill:#1f77b4;"/>
   </g>
   <g id="patch_301">
    <path clip-path="url(#p2a783bdea6)" d="M 377.822771 273.312 
L 378.71837 273.312 
L 378.71837 259.402294 
L 377.822771 259.402294 
z
" style="fill:#1f77b4;"/>
   </g>
   <g id="patch_302">
    <path clip-path="url(#p2a783bdea6)" d="M 378.94227 273.312 
L 379.837868 273.312 
L 379.837868 259.338144 
L 378.94227 259.338144 
z
" style="fill:#1f77b4;"/>
   </g>
   <g id="patch_303">
    <path clip-path="url(#p2a783bdea6)" d="M 380.061768 273.312 
L 380.957367 273.312 
L 380.957367 259.323612 
L 380.061768 259.323612 
z
" style="fill:#1f77b4;"/>
   </g>
   <g id="patch_304">
    <path clip-path="url(#p2a783bdea6)" d="M 381.181267 273.312 
L 382.076865 273.312 
L 382.076865 259.41166 
L 381.181267 259.41166 
z
" style="fill:#1f77b4;"/>
   </g>
   <g id="patch_305">
    <path clip-path="url(#p2a783bdea6)" d="M 382.300765 273.312 
L 383.196364 273.312 
L 383.196364 259.44616 
L 382.300765 259.44616 
z
" style="fill:#1f77b4;"/>
   </g>
   <g id="patch_306">
    <path clip-path="url(#p2a783bdea6)" d="M 383.420263 273.312 
L 384.315862 273.312 
L 384.315862 259.453521 
L 383.420263 259.453521 
z
" style="fill:#1f77b4;"/>
   </g>
   <g id="patch_307">
    <path clip-path="url(#p2a783bdea6)" d="M 384.539762 273.312 
L 385.435361 273.312 
L 385.435361 259.563905 
L 384.539762 259.563905 
z
" style="fill:#1f77b4;"/>
   </g>
   <g id="patch_308">
    <path clip-path="url(#p2a783bdea6)" d="M 385.65926 273.312 
L 386.554859 273.312 
L 386.554859 259.588977 
L 385.65926 259.588977 
z
" style="fill:#1f77b4;"/>
   </g>
   <g id="patch_309">
    <path clip-path="url(#p2a783bdea6)" d="M 386.778759 273.312 
L 387.674357 273.312 
L 387.674357 259.701782 
L 386.778759 259.701782 
z
" style="fill:#1f77b4;"/>
   </g>
   <g id="patch_310">
    <path clip-path="url(#p2a783bdea6)" d="M 387.898257 273.312 
L 388.793856 273.312 
L 388.793856 259.75825 
L 387.898257 259.75825 
z
" style="fill:#1f77b4;"/>
   </g>
   <g id="patch_311">
    <path clip-path="url(#p2a783bdea6)" d="M 389.017756 273.312 
L 389.913354 273.312 
L 389.913354 259.911153 
L 389.017756 259.911153 
z
" style="fill:#1f77b4;"/>
   </g>
   <g id="patch_312">
    <path clip-path="url(#p2a783bdea6)" d="M 390.137254 273.312 
L 391.032853 273.312 
L 391.032853 259.972063 
L 390.137254 259.972063 
z
" style="fill:#1f77b4;"/>
   </g>
   <g id="patch_313">
    <path clip-path="url(#p2a783bdea6)" d="M 391.256752 273.312 
L 392.152351 273.312 
L 392.152351 259.875724 
L 391.256752 259.875724 
z
" style="fill:#1f77b4;"/>
   </g>
   <g id="patch_314">
    <path clip-path="url(#p2a783bdea6)" d="M 392.376251 273.312 
L 393.27185 273.312 
L 393.27185 260.040023 
L 392.376251 260.040023 
z
" style="fill:#1f77b4;"/>
   </g>
   <g id="patch_315">
    <path clip-path="url(#p2a783bdea6)" d="M 393.495749 273.312 
L 394.391348 273.312 
L 394.391348 260.092304 
L 393.495749 260.092304 
z
" style="fill:#1f77b4;"/>
   </g>
   <g id="patch_316">
    <path clip-path="url(#p2a783bdea6)" d="M 394.615248 273.312 
L 395.510846 273.312 
L 395.510846 260.21603 
L 394.615248 260.21603 
z
" style="fill:#1f77b4;"/>
   </g>
   <g id="patch_317">
    <path clip-path="url(#p2a783bdea6)" d="M 395.734746 273.312 
L 396.630345 273.312 
L 396.630345 260.288232 
L 395.734746 260.288232 
z
" style="fill:#1f77b4;"/>
   </g>
   <g id="patch_318">
    <path clip-path="url(#p2a783bdea6)" d="M 396.854245 273.312 
L 397.749843 273.312 
L 397.749843 260.395358 
L 396.854245 260.395358 
z
" style="fill:#1f77b4;"/>
   </g>
   <g id="patch_319">
    <path clip-path="url(#p2a783bdea6)" d="M 397.973743 273.312 
L 398.869342 273.312 
L 398.869342 260.403212 
L 397.973743 260.403212 
z
" style="fill:#1f77b4;"/>
   </g>
   <g id="patch_320">
    <path clip-path="url(#p2a783bdea6)" d="M 399.093241 273.312 
L 399.98884 273.312 
L 399.98884 260.352974 
L 399.093241 260.352974 
z
" style="fill:#1f77b4;"/>
   </g>
   <g id="patch_321">
    <path clip-path="url(#p2a783bdea6)" d="M 400.21274 273.312 
L 401.108339 273.312 
L 401.108339 260.492203 
L 400.21274 260.492203 
z
" style="fill:#1f77b4;"/>
   </g>
   <g id="matplotlib.axis_1">
    <g id="xtick_1">
     <g id="line2d_1">
      <defs>
       <path d="M 0 0 
L 0 3.5 
" id="m7502b1e644" style="stroke:#000000;stroke-width:0.8;"/>
      </defs>
      <g>
       <use style="stroke:#000000;stroke-width:0.8;" x="63.691511" xlink:href="#m7502b1e644" y="273.312"/>
      </g>
     </g>
     <g id="text_1">
      <!-- 2020-04 -->
      <g transform="translate(65.850924 313.517436)rotate(-90)scale(0.1 -0.1)">
       <defs>
        <path d="M 1.59375 2.5 
L 1.59375 0 
C 20.296875 0 20.296875 0 23.90625 0 
C 27.5 0 27.5 0 46.796875 0 
C 46.59375 1.953125 46.59375 2.90625 46.59375 4.203125 
C 46.59375 5.4375 46.59375 6.359375 46.796875 8.421875 
C 35.296875 8.421875 30.703125 8.421875 12.203125 8.421875 
L 30.40625 27.515625 
C 40.09375 37.71875 43.09375 43.171875 43.09375 50.59375 
C 43.09375 61.96875 35.296875 69 22.59375 69 
C 15.40625 69 10.5 67 5.59375 62.015625 
L 3.90625 48.421875 
L 6.796875 48.421875 
L 8.09375 53.015625 
C 9.703125 58.796875 13.296875 61.296875 20 61.296875 
C 28.59375 61.296875 34.09375 55.890625 34.09375 47.421875 
C 34.09375 39.921875 29.90625 32.546875 18.59375 20.5625 
z
" id="URW_Palladio_L_Roman-50"/>
        <path d="M 26.296875 69 
C 10.796875 69 2.90625 56.6875 2.90625 32.453125 
C 2.90625 20.71875 5 10.625 8.5 5.71875 
C 12 0.796875 17.59375 -2 23.796875 -2 
C 38.90625 -2 46.5 11.015625 46.5 36.65625 
C 46.5 58.578125 40 69 26.296875 69 
z
M 24.5 65.5 
C 34.203125 65.5 38.09375 55.6875 38.09375 31.640625 
C 38.09375 10.328125 34.296875 1.5 25.09375 1.5 
C 15.40625 1.5 11.296875 11.625 11.296875 36.0625 
C 11.296875 57.1875 15 65.5 24.5 65.5 
z
" id="URW_Palladio_L_Roman-48"/>
        <path d="M 28.203125 22 
L 31.203125 28.703125 
L 30.703125 29.203125 
L 4.40625 29.203125 
L 1.703125 22.5 
L 2.203125 22 
z
" id="URW_Palladio_L_Roman-45"/>
        <path d="M 28 18 
L 28 10.515625 
C 28 4.515625 26.90625 3.109375 22 3.109375 
L 15.796875 3.109375 
L 15.796875 0 
C 29.09375 0 29.09375 0 31.5 0 
C 33.90625 0 33.90625 0 47.203125 0 
L 47.203125 3.109375 
L 42.40625 3.109375 
C 37.5 3.109375 36.40625 4.40625 36.40625 10.453125 
L 36.40625 18 
C 42.296875 18 44.40625 18 47.203125 17.703125 
L 47.203125 24.8125 
C 42.5 24.421875 40.59375 24.421875 39.09375 24.421875 
L 38.796875 24.421875 
L 36.40625 24.421875 
L 36.40625 38.390625 
C 36.40625 56.25 36.59375 64.875 37.09375 69 
L 35.90625 69.5 
L 28.5 66.796875 
L 0.203125 20.296875 
L 1.296875 18 
z
M 28 24.421875 
L 6.5 24.421875 
L 28 59.78125 
z
" id="URW_Palladio_L_Roman-52"/>
       </defs>
       <use transform="scale(0.996264)" xlink:href="#URW_Palladio_L_Roman-50"/>
       <use transform="translate(49.8132 0)scale(0.996264)" xlink:href="#URW_Palladio_L_Roman-48"/>
       <use transform="translate(99.626401 0)scale(0.996264)" xlink:href="#URW_Palladio_L_Roman-50"/>
       <use transform="translate(149.439601 0)scale(0.996264)" xlink:href="#URW_Palladio_L_Roman-48"/>
       <use transform="translate(199.252802 0)scale(0.996264)" xlink:href="#URW_Palladio_L_Roman-45"/>
       <use transform="translate(232.428032 0)scale(0.996264)" xlink:href="#URW_Palladio_L_Roman-48"/>
       <use transform="translate(282.241232 0)scale(0.996264)" xlink:href="#URW_Palladio_L_Roman-52"/>
      </g>
     </g>
    </g>
    <g id="xtick_2">
     <g id="line2d_2">
      <g>
       <use style="stroke:#000000;stroke-width:0.8;" x="97.276464" xlink:href="#m7502b1e644" y="273.312"/>
      </g>
     </g>
     <g id="text_2">
      <!-- 2020-05 -->
      <g transform="translate(99.435877 313.517436)rotate(-90)scale(0.1 -0.1)">
       <defs>
        <path d="M 12.703125 60.578125 
C 25.59375 60.578125 31.203125 60.578125 43.203125 60.578125 
L 43.703125 61.046875 
C 43.5 62.75 43.5 63.5 43.5 64.75 
C 43.5 66.078125 43.5 66.828125 43.703125 68.53125 
L 43.203125 69 
C 35.703125 69 31.203125 69 25.796875 69 
C 20.296875 69 15.90625 69 8.40625 69 
L 7.90625 68.796875 
C 8 62.671875 8.09375 58.265625 8.09375 55.046875 
C 8.09375 46.515625 7.796875 36.875 7.5 32.453125 
L 9.5 31.84375 
C 14.203125 36.578125 16.90625 38 21.796875 38 
C 31.40625 38 37.40625 31.140625 37.40625 20.25 
C 37.40625 9.0625 31 2.5 20.09375 2.5 
C 14.703125 2.5 9.703125 4.328125 8.296875 6.9375 
L 3.703125 15.203125 
L 1.296875 13.796875 
C 3.59375 8.0625 4.796875 4.84375 6.203125 0.421875 
C 9 -1.109375 13 -2 17.296875 -2 
C 24 -2 31.09375 0.921875 36.59375 5.75 
C 42.703125 11.1875 45.90625 18.03125 45.90625 25.46875 
C 45.90625 36.859375 37.796875 44.90625 26.40625 44.90625 
C 21.59375 44.90625 18 43.609375 11.796875 39.90625 
z
" id="URW_Palladio_L_Roman-53"/>
       </defs>
       <use transform="scale(0.996264)" xlink:href="#URW_Palladio_L_Roman-50"/>
       <use transform="translate(49.8132 0)scale(0.996264)" xlink:href="#URW_Palladio_L_Roman-48"/>
       <use transform="translate(99.626401 0)scale(0.996264)" xlink:href="#URW_Palladio_L_Roman-50"/>
       <use transform="translate(149.439601 0)scale(0.996264)" xlink:href="#URW_Palladio_L_Roman-48"/>
       <use transform="translate(199.252802 0)scale(0.996264)" xlink:href="#URW_Palladio_L_Roman-45"/>
       <use transform="translate(232.428032 0)scale(0.996264)" xlink:href="#URW_Palladio_L_Roman-48"/>
       <use transform="translate(282.241232 0)scale(0.996264)" xlink:href="#URW_Palladio_L_Roman-53"/>
      </g>
     </g>
    </g>
    <g id="xtick_3">
     <g id="line2d_3">
      <g>
       <use style="stroke:#000000;stroke-width:0.8;" x="131.980915" xlink:href="#m7502b1e644" y="273.312"/>
      </g>
     </g>
     <g id="text_3">
      <!-- 2020-06 -->
      <g transform="translate(134.140329 313.517436)rotate(-90)scale(0.1 -0.1)">
       <defs>
        <path d="M 41.59375 67.34375 
L 37.90625 69.046875 
C 28.296875 65.84375 24.203125 63.84375 19.09375 59.4375 
C 8.796875 50.71875 3.203125 38.5 3.203125 24.765625 
C 3.203125 8.21875 11.203125 -2 24.09375 -2 
C 37.09375 -2 46.796875 8.3125 46.796875 21.953125 
C 46.796875 33.484375 39.90625 41 29.296875 41 
C 24.296875 41 21.296875 39.6875 15.40625 34.984375 
C 14.296875 34.078125 14.203125 33.984375 13.09375 33.1875 
C 15.203125 51.3125 23.59375 61.140625 41.59375 66.546875 
z
M 25.5 34.984375 
C 33.09375 34.984375 38.203125 28.375 38.203125 18.453125 
C 38.203125 8.015625 33.09375 1.296875 25.40625 1.296875 
C 16.90625 1.296875 12.296875 8.609375 12.296875 22.0625 
C 12.296875 25.5625 12.703125 27.46875 13.796875 29.171875 
C 16 32.578125 20.703125 34.984375 25.5 34.984375 
z
" id="URW_Palladio_L_Roman-54"/>
       </defs>
       <use transform="scale(0.996264)" xlink:href="#URW_Palladio_L_Roman-50"/>
       <use transform="translate(49.8132 0)scale(0.996264)" xlink:href="#URW_Palladio_L_Roman-48"/>
       <use transform="translate(99.626401 0)scale(0.996264)" xlink:href="#URW_Palladio_L_Roman-50"/>
       <use transform="translate(149.439601 0)scale(0.996264)" xlink:href="#URW_Palladio_L_Roman-48"/>
       <use transform="translate(199.252802 0)scale(0.996264)" xlink:href="#URW_Palladio_L_Roman-45"/>
       <use transform="translate(232.428032 0)scale(0.996264)" xlink:href="#URW_Palladio_L_Roman-48"/>
       <use transform="translate(282.241232 0)scale(0.996264)" xlink:href="#URW_Palladio_L_Roman-54"/>
      </g>
     </g>
    </g>
    <g id="xtick_4">
     <g id="line2d_4">
      <g>
       <use style="stroke:#000000;stroke-width:0.8;" x="165.565868" xlink:href="#m7502b1e644" y="273.312"/>
      </g>
     </g>
     <g id="text_4">
      <!-- 2020-07 -->
      <g transform="translate(167.725282 313.517436)rotate(-90)scale(0.1 -0.1)">
       <defs>
        <path d="M 5.59375 0.5 
L 6.5 -0.796875 
C 10.40625 -0.5 10.40625 -0.5 11.09375 -0.5 
C 11.796875 -0.5 11.796875 -0.5 15.703125 -0.796875 
C 19.90625 10.140625 24.796875 20.578125 31.40625 32.609375 
L 49.703125 65.609375 
L 49.703125 68.3125 
C 38.90625 68.3125 35.40625 68.3125 27.296875 68.3125 
C 20 68.3125 15.09375 68.3125 5.40625 68.3125 
L 4.40625 68.109375 
C 4.703125 58.59375 4.703125 58.59375 4.703125 57.578125 
C 4.703125 56.46875 4.703125 56.46875 4.40625 47.359375 
L 7.40625 47.359375 
L 8.09375 52.96875 
C 8.90625 59.203125 9.59375 60 14.203125 60 
L 40.90625 60 
C 36.90625 51.765625 33.796875 45.953125 30 39.828125 
z
" id="URW_Palladio_L_Roman-55"/>
       </defs>
       <use transform="scale(0.996264)" xlink:href="#URW_Palladio_L_Roman-50"/>
       <use transform="translate(49.8132 0)scale(0.996264)" xlink:href="#URW_Palladio_L_Roman-48"/>
       <use transform="translate(99.626401 0)scale(0.996264)" xlink:href="#URW_Palladio_L_Roman-50"/>
       <use transform="translate(149.439601 0)scale(0.996264)" xlink:href="#URW_Palladio_L_Roman-48"/>
       <use transform="translate(199.252802 0)scale(0.996264)" xlink:href="#URW_Palladio_L_Roman-45"/>
       <use transform="translate(232.428032 0)scale(0.996264)" xlink:href="#URW_Palladio_L_Roman-48"/>
       <use transform="translate(282.241232 0)scale(0.996264)" xlink:href="#URW_Palladio_L_Roman-55"/>
      </g>
     </g>
    </g>
    <g id="xtick_5">
     <g id="line2d_5">
      <g>
       <use style="stroke:#000000;stroke-width:0.8;" x="200.27032" xlink:href="#m7502b1e644" y="273.312"/>
      </g>
     </g>
     <g id="text_5">
      <!-- 2020-08 -->
      <g transform="translate(202.429733 313.517436)rotate(-90)scale(0.1 -0.1)">
       <defs>
        <path d="M 16.796875 34.546875 
C 12.703125 32.65625 11 31.546875 8.796875 29.4375 
C 5 25.640625 3 21.125 3 15.921875 
C 3 5.609375 11.296875 -2 22.59375 -2 
C 35.59375 -2 46.40625 8.21875 46.40625 20.625 
C 46.40625 28.640625 42.703125 32.953125 31.296875 38.15625 
C 40.40625 44.375 43.59375 48.578125 43.59375 54.578125 
C 43.59375 63.1875 36.5 69 25.90625 69 
C 14 69 5.296875 61.390625 5.296875 50.890625 
C 5.296875 44.078125 8 40.265625 16.796875 34.546875 
z
M 28.40625 29.546875 
C 34.703125 26.734375 38.5 21.828125 38.5 16.4375 
C 38.5 8.015625 32.203125 1.40625 24.09375 1.40625 
C 15.59375 1.40625 10.09375 7.421875 10.09375 16.734375 
C 10.09375 24.03125 13 28.640625 20.40625 33.15625 
z
M 22.296875 42.375 
C 16 45.46875 12.796875 49.484375 12.796875 54.484375 
C 12.796875 61.09375 17.59375 65.59375 24.703125 65.59375 
C 32 65.59375 36.796875 60.796875 36.796875 53.46875 
C 36.796875 47.78125 34.296875 43.875 27.796875 39.65625 
z
" id="URW_Palladio_L_Roman-56"/>
       </defs>
       <use transform="scale(0.996264)" xlink:href="#URW_Palladio_L_Roman-50"/>
       <use transform="translate(49.8132 0)scale(0.996264)" xlink:href="#URW_Palladio_L_Roman-48"/>
       <use transform="translate(99.626401 0)scale(0.996264)" xlink:href="#URW_Palladio_L_Roman-50"/>
       <use transform="translate(149.439601 0)scale(0.996264)" xlink:href="#URW_Palladio_L_Roman-48"/>
       <use transform="translate(199.252802 0)scale(0.996264)" xlink:href="#URW_Palladio_L_Roman-45"/>
       <use transform="translate(232.428032 0)scale(0.996264)" xlink:href="#URW_Palladio_L_Roman-48"/>
       <use transform="translate(282.241232 0)scale(0.996264)" xlink:href="#URW_Palladio_L_Roman-56"/>
      </g>
     </g>
    </g>
    <g id="xtick_6">
     <g id="line2d_6">
      <g>
       <use style="stroke:#000000;stroke-width:0.8;" x="234.974771" xlink:href="#m7502b1e644" y="273.312"/>
      </g>
     </g>
     <g id="text_6">
      <!-- 2020-09 -->
      <g transform="translate(237.134184 313.517436)rotate(-90)scale(0.1 -0.1)">
       <defs>
        <path d="M 9.59375 -1.65625 
C 20.703125 1.953125 25.5 4.25 30.90625 8.84375 
C 40.59375 17.15625 45.703125 28.671875 45.703125 42.078125 
C 45.703125 59 37.59375 69.296875 24.40625 69.296875 
C 11.59375 69.296875 2 59.296875 2 45.90625 
C 2 34.390625 9.5 26 19.90625 26 
C 23.296875 26 27.203125 27.09375 29 28.59375 
L 36 34.40625 
C 35.203125 17.578125 24.296875 5.25 6.203125 0.84375 
L 6.203125 0.046875 
z
M 24 66 
C 28.5 66 31.796875 64.09375 34 60.09375 
C 35.796875 56.890625 37 52 37 47.5 
C 37 38.296875 31.703125 32.109375 24 32.109375 
C 16 32.109375 10.59375 39.203125 10.59375 49.59375 
C 10.59375 59.703125 15.796875 66 24 66 
z
" id="URW_Palladio_L_Roman-57"/>
       </defs>
       <use transform="scale(0.996264)" xlink:href="#URW_Palladio_L_Roman-50"/>
       <use transform="translate(49.8132 0)scale(0.996264)" xlink:href="#URW_Palladio_L_Roman-48"/>
       <use transform="translate(99.626401 0)scale(0.996264)" xlink:href="#URW_Palladio_L_Roman-50"/>
       <use transform="translate(149.439601 0)scale(0.996264)" xlink:href="#URW_Palladio_L_Roman-48"/>
       <use transform="translate(199.252802 0)scale(0.996264)" xlink:href="#URW_Palladio_L_Roman-45"/>
       <use transform="translate(232.428032 0)scale(0.996264)" xlink:href="#URW_Palladio_L_Roman-48"/>
       <use transform="translate(282.241232 0)scale(0.996264)" xlink:href="#URW_Palladio_L_Roman-57"/>
      </g>
     </g>
    </g>
    <g id="xtick_7">
     <g id="line2d_7">
      <g>
       <use style="stroke:#000000;stroke-width:0.8;" x="268.559724" xlink:href="#m7502b1e644" y="273.312"/>
      </g>
     </g>
     <g id="text_7">
      <!-- 2020-10 -->
      <g transform="translate(270.719137 313.517436)rotate(-90)scale(0.1 -0.1)">
       <defs>
        <path d="M 6.703125 56 
L 7.703125 56 
L 20.59375 61.8125 
C 20.703125 61.90625 20.796875 61.90625 20.90625 61.90625 
C 21.5 61.90625 21.703125 61.015625 21.703125 58.609375 
L 21.703125 9.578125 
C 21.703125 4.3125 20.59375 3.203125 15.203125 3.203125 
L 9.59375 3.203125 
L 9.59375 0 
C 25 0 25 0 26.09375 0 
C 27.40625 0 29.59375 0 33 0 
C 34.203125 0 37.703125 0 41.796875 0 
L 41.796875 3.203125 
L 36.59375 3.203125 
C 31.09375 3.203125 30.09375 4.3125 30.09375 9.5625 
L 30.09375 69.421875 
L 28.703125 69.921875 
C 22.203125 66.515625 15.09375 63.515625 6 60.3125 
z
" id="URW_Palladio_L_Roman-49"/>
       </defs>
       <use transform="scale(0.996264)" xlink:href="#URW_Palladio_L_Roman-50"/>
       <use transform="translate(49.8132 0)scale(0.996264)" xlink:href="#URW_Palladio_L_Roman-48"/>
       <use transform="translate(99.626401 0)scale(0.996264)" xlink:href="#URW_Palladio_L_Roman-50"/>
       <use transform="translate(149.439601 0)scale(0.996264)" xlink:href="#URW_Palladio_L_Roman-48"/>
       <use transform="translate(199.252802 0)scale(0.996264)" xlink:href="#URW_Palladio_L_Roman-45"/>
       <use transform="translate(232.428032 0)scale(0.996264)" xlink:href="#URW_Palladio_L_Roman-49"/>
       <use transform="translate(282.241232 0)scale(0.996264)" xlink:href="#URW_Palladio_L_Roman-48"/>
      </g>
     </g>
    </g>
    <g id="xtick_8">
     <g id="line2d_8">
      <g>
       <use style="stroke:#000000;stroke-width:0.8;" x="303.264176" xlink:href="#m7502b1e644" y="273.312"/>
      </g>
     </g>
     <g id="text_8">
      <!-- 2020-11 -->
      <g transform="translate(305.423589 313.517436)rotate(-90)scale(0.1 -0.1)">
       <use transform="scale(0.996264)" xlink:href="#URW_Palladio_L_Roman-50"/>
       <use transform="translate(49.8132 0)scale(0.996264)" xlink:href="#URW_Palladio_L_Roman-48"/>
       <use transform="translate(99.626401 0)scale(0.996264)" xlink:href="#URW_Palladio_L_Roman-50"/>
       <use transform="translate(149.439601 0)scale(0.996264)" xlink:href="#URW_Palladio_L_Roman-48"/>
       <use transform="translate(199.252802 0)scale(0.996264)" xlink:href="#URW_Palladio_L_Roman-45"/>
       <use transform="translate(232.428032 0)scale(0.996264)" xlink:href="#URW_Palladio_L_Roman-49"/>
       <use transform="translate(282.241232 0)scale(0.996264)" xlink:href="#URW_Palladio_L_Roman-49"/>
      </g>
     </g>
    </g>
    <g id="xtick_9">
     <g id="line2d_9">
      <g>
       <use style="stroke:#000000;stroke-width:0.8;" x="336.849129" xlink:href="#m7502b1e644" y="273.312"/>
      </g>
     </g>
     <g id="text_9">
      <!-- 2020-12 -->
      <g transform="translate(339.008542 313.517436)rotate(-90)scale(0.1 -0.1)">
       <use transform="scale(0.996264)" xlink:href="#URW_Palladio_L_Roman-50"/>
       <use transform="translate(49.8132 0)scale(0.996264)" xlink:href="#URW_Palladio_L_Roman-48"/>
       <use transform="translate(99.626401 0)scale(0.996264)" xlink:href="#URW_Palladio_L_Roman-50"/>
       <use transform="translate(149.439601 0)scale(0.996264)" xlink:href="#URW_Palladio_L_Roman-48"/>
       <use transform="translate(199.252802 0)scale(0.996264)" xlink:href="#URW_Palladio_L_Roman-45"/>
       <use transform="translate(232.428032 0)scale(0.996264)" xlink:href="#URW_Palladio_L_Roman-49"/>
       <use transform="translate(282.241232 0)scale(0.996264)" xlink:href="#URW_Palladio_L_Roman-50"/>
      </g>
     </g>
    </g>
    <g id="xtick_10">
     <g id="line2d_10">
      <g>
       <use style="stroke:#000000;stroke-width:0.8;" x="371.55358" xlink:href="#m7502b1e644" y="273.312"/>
      </g>
     </g>
     <g id="text_10">
      <!-- 2021-01 -->
      <g transform="translate(373.712993 313.517436)rotate(-90)scale(0.1 -0.1)">
       <use transform="scale(0.996264)" xlink:href="#URW_Palladio_L_Roman-50"/>
       <use transform="translate(49.8132 0)scale(0.996264)" xlink:href="#URW_Palladio_L_Roman-48"/>
       <use transform="translate(99.626401 0)scale(0.996264)" xlink:href="#URW_Palladio_L_Roman-50"/>
       <use transform="translate(149.439601 0)scale(0.996264)" xlink:href="#URW_Palladio_L_Roman-49"/>
       <use transform="translate(199.252802 0)scale(0.996264)" xlink:href="#URW_Palladio_L_Roman-45"/>
       <use transform="translate(232.428032 0)scale(0.996264)" xlink:href="#URW_Palladio_L_Roman-48"/>
       <use transform="translate(282.241232 0)scale(0.996264)" xlink:href="#URW_Palladio_L_Roman-49"/>
      </g>
     </g>
    </g>
   </g>
   <g id="matplotlib.axis_2">
    <g id="ytick_1">
     <g id="line2d_11">
      <defs>
       <path d="M 0 0 
L -3.5 0 
" id="m7475ddab6b" style="stroke:#000000;stroke-width:0.8;"/>
      </defs>
      <g>
       <use style="stroke:#000000;stroke-width:0.8;" x="44.100288" xlink:href="#m7475ddab6b" y="273.312"/>
      </g>
     </g>
     <g id="text_11">
      <!-- $\mathdefault{0}$ -->
      <g transform="translate(32.118968 276.876119)scale(0.1 -0.1)">
       <use transform="scale(0.996264)" xlink:href="#URW_Palladio_L_Roman-48"/>
      </g>
     </g>
    </g>
    <g id="ytick_2">
     <g id="line2d_12">
      <g>
       <use style="stroke:#000000;stroke-width:0.8;" x="44.100288" xlink:href="#m7475ddab6b" y="237.8304"/>
      </g>
     </g>
     <g id="text_12">
      <!-- $\mathdefault{10}$ -->
      <g transform="translate(27.137648 241.394519)scale(0.1 -0.1)">
       <use transform="scale(0.996264)" xlink:href="#URW_Palladio_L_Roman-49"/>
       <use transform="translate(49.8132 0)scale(0.996264)" xlink:href="#URW_Palladio_L_Roman-48"/>
      </g>
     </g>
    </g>
    <g id="ytick_3">
     <g id="line2d_13">
      <g>
       <use style="stroke:#000000;stroke-width:0.8;" x="44.100288" xlink:href="#m7475ddab6b" y="202.3488"/>
      </g>
     </g>
     <g id="text_13">
      <!-- $\mathdefault{20}$ -->
      <g transform="translate(27.137648 205.912919)scale(0.1 -0.1)">
       <use transform="scale(0.996264)" xlink:href="#URW_Palladio_L_Roman-50"/>
       <use transform="translate(49.8132 0)scale(0.996264)" xlink:href="#URW_Palladio_L_Roman-48"/>
      </g>
     </g>
    </g>
    <g id="ytick_4">
     <g id="line2d_14">
      <g>
       <use style="stroke:#000000;stroke-width:0.8;" x="44.100288" xlink:href="#m7475ddab6b" y="166.8672"/>
      </g>
     </g>
     <g id="text_14">
      <!-- $\mathdefault{30}$ -->
      <g transform="translate(27.137648 170.431319)scale(0.1 -0.1)">
       <defs>
        <path d="M 4.296875 49.953125 
L 7.40625 49.953125 
L 9.203125 55.53125 
C 10.296875 58.90625 16.59375 62.296875 21.796875 62.296875 
C 28.296875 62.296875 33.59375 57.015625 33.59375 50.75 
C 33.59375 43.28125 27.703125 37 20.59375 37 
C 19.796875 37 18.703125 37 17.40625 37.203125 
L 15.90625 37.203125 
L 14.703125 31.984375 
L 15.40625 31.375 
C 19.203125 33.09375 21.09375 33.59375 23.796875 33.59375 
C 32.09375 33.59375 36.90625 28.265625 36.90625 19.09375 
C 36.90625 8.84375 30.796875 2.109375 21.5 2.109375 
C 16.90625 2.109375 12.796875 3.609375 9.796875 6.421875 
C 7.40625 8.640625 6.09375 10.953125 4.203125 16.390625 
L 1.5 15.390625 
C 3.59375 9.265625 4.40625 5.640625 5 0.609375 
C 10.296875 -1.203125 14.703125 -2 18.40625 -2 
C 26.40625 -2 35.59375 2.515625 41.09375 9.265625 
C 44.5 13.390625 46.203125 17.8125 46.203125 22.53125 
C 46.203125 27.359375 44.203125 31.59375 40.59375 34.09375 
C 38.09375 35.90625 35.796875 36.71875 30.796875 37.609375 
C 38.796875 43.796875 41.796875 48.375 41.796875 54.25 
C 41.796875 63.125 34.40625 69 23.296875 69 
C 16.5 69 12 67.109375 7.203125 62.328125 
z
" id="URW_Palladio_L_Roman-51"/>
       </defs>
       <use transform="scale(0.996264)" xlink:href="#URW_Palladio_L_Roman-51"/>
       <use transform="translate(49.8132 0)scale(0.996264)" xlink:href="#URW_Palladio_L_Roman-48"/>
      </g>
     </g>
    </g>
    <g id="ytick_5">
     <g id="line2d_15">
      <g>
       <use style="stroke:#000000;stroke-width:0.8;" x="44.100288" xlink:href="#m7475ddab6b" y="131.3856"/>
      </g>
     </g>
     <g id="text_15">
      <!-- $\mathdefault{40}$ -->
      <g transform="translate(27.137648 134.949719)scale(0.1 -0.1)">
       <use transform="scale(0.996264)" xlink:href="#URW_Palladio_L_Roman-52"/>
       <use transform="translate(49.8132 0)scale(0.996264)" xlink:href="#URW_Palladio_L_Roman-48"/>
      </g>
     </g>
    </g>
    <g id="ytick_6">
     <g id="line2d_16">
      <g>
       <use style="stroke:#000000;stroke-width:0.8;" x="44.100288" xlink:href="#m7475ddab6b" y="95.904"/>
      </g>
     </g>
     <g id="text_16">
      <!-- $\mathdefault{50}$ -->
      <g transform="translate(27.137648 99.468119)scale(0.1 -0.1)">
       <use transform="scale(0.996264)" xlink:href="#URW_Palladio_L_Roman-53"/>
       <use transform="translate(49.8132 0)scale(0.996264)" xlink:href="#URW_Palladio_L_Roman-48"/>
      </g>
     </g>
    </g>
    <g id="ytick_7">
     <g id="line2d_17">
      <g>
       <use style="stroke:#000000;stroke-width:0.8;" x="44.100288" xlink:href="#m7475ddab6b" y="60.4224"/>
      </g>
     </g>
     <g id="text_17">
      <!-- $\mathdefault{60}$ -->
      <g transform="translate(27.137648 63.986519)scale(0.1 -0.1)">
       <use transform="scale(0.996264)" xlink:href="#URW_Palladio_L_Roman-54"/>
       <use transform="translate(49.8132 0)scale(0.996264)" xlink:href="#URW_Palladio_L_Roman-48"/>
      </g>
     </g>
    </g>
    <g id="ytick_8">
     <g id="line2d_18">
      <g>
       <use style="stroke:#000000;stroke-width:0.8;" x="44.100288" xlink:href="#m7475ddab6b" y="24.9408"/>
      </g>
     </g>
     <g id="text_18">
      <!-- $\mathdefault{70}$ -->
      <g transform="translate(27.137648 28.504919)scale(0.1 -0.1)">
       <use transform="scale(0.996264)" xlink:href="#URW_Palladio_L_Roman-55"/>
       <use transform="translate(49.8132 0)scale(0.996264)" xlink:href="#URW_Palladio_L_Roman-48"/>
      </g>
     </g>
    </g>
    <g id="text_19">
     <!-- case fatality rate [\%] -->
     <g transform="translate(14.328237 184.718682)rotate(-90)scale(0.1 -0.1)">
      <defs>
       <path d="M 39.90625 31.15625 
C 39.90625 35.765625 40.40625 39.875 41.296875 43.484375 
C 37.296875 45.890625 33.796875 47 29.703125 47 
C 24.90625 47 19.296875 45.09375 13.296875 41.28125 
C 6.296875 36.875 2.59375 29.859375 2.59375 21.046875 
C 2.59375 7.515625 12.09375 -2 25.5 -2 
C 30.703125 -2 38.203125 -0.09375 39.203125 1.40625 
L 41.296875 4.609375 
L 40.296875 6.109375 
C 36.59375 4.109375 33.40625 3.203125 29.796875 3.203125 
C 18.703125 3.203125 11.40625 11.828125 11.40625 25.046875 
C 11.40625 35.765625 16.40625 41.78125 25.40625 41.78125 
C 29.796875 41.78125 34.59375 39.78125 36.40625 37.28125 
L 37.09375 31.15625 
z
" id="URW_Palladio_L_Roman-99"/>
       <path d="M 32.40625 8.40625 
L 31.90625 -0.015625 
C 38.40625 -0.015625 38.40625 -0.015625 39.703125 -0.015625 
C 40.203125 -0.015625 42.703125 -0.015625 47.09375 -0.015625 
L 47.09375 3 
L 43.203125 3 
C 40.796875 3 40.40625 3.8125 40.40625 8.71875 
L 40.40625 27.046875 
C 40.40625 41.6875 36.203125 47 24.59375 47 
C 20.296875 47 16.296875 45.890625 12.5 43.609375 
L 7.203125 40.390625 
L 7.203125 33.921875 
L 9.796875 33.21875 
L 11.09375 36.296875 
C 13.203125 40.984375 14.203125 41.6875 18.796875 41.6875 
C 28.203125 41.6875 32.09375 37.984375 32.40625 28.9375 
L 22.5 27.125 
C 8.90625 24.640625 3.203125 19.953125 3.203125 11.28125 
C 3.203125 3.5 7.90625 -1 15.796875 -1 
C 17.59375 -1 19.296875 -0.703125 20 -0.203125 
z
M 32.40625 12.59375 
C 29.5 8.5 23.203125 4.71875 19.296875 4.71875 
C 15.296875 4.71875 11.796875 8.40625 11.796875 12.6875 
C 11.796875 16.375 13.796875 19.859375 16.796875 21.75 
C 19.296875 23.25 24.796875 24.640625 32.40625 25.75 
z
" id="URW_Palladio_L_Roman-97"/>
       <path d="M 4.09375 14.328125 
C 4.09375 7.421875 3.796875 4.40625 3 0.40625 
C 8.203125 -1.296875 12.09375 -2 16.703125 -2 
C 29.796875 -2 39.09375 5.015625 39.09375 14.828125 
C 39.09375 17.9375 38.203125 20.234375 36.296875 22.25 
C 33.703125 24.75 30.40625 25.953125 21.59375 27.65625 
C 13.40625 29.265625 10.703125 31.265625 10.703125 35.875 
C 10.703125 40.875 14.203125 43.6875 20.296875 43.6875 
C 27 43.6875 32.09375 40.1875 32.09375 35.46875 
L 32.09375 33.171875 
L 34.90625 33.171875 
C 35 38.984375 35.09375 41.375 35.40625 44.484375 
C 30.09375 46.296875 26.5 47 22.40625 47 
C 10.796875 47 3.703125 41.484375 3.703125 32.46875 
C 3.703125 27.65625 5.90625 24.25 10.5 22.140625 
C 13.203125 20.9375 18.5 19.34375 25.296875 17.828125 
C 29.796875 16.828125 31.703125 14.734375 31.703125 10.921875 
C 31.703125 5.515625 26.703125 1.703125 19.59375 1.703125 
C 12.296875 1.703125 7.09375 5.203125 7.09375 10.21875 
L 7.09375 14.328125 
z
" id="URW_Palladio_L_Roman-115"/>
       <path d="M 43.703125 6.984375 
L 42.40625 7.984375 
C 36 4.203125 33.703125 3.3125 29.40625 3.3125 
C 22.90625 3.3125 17.5 6.21875 14.703125 11.109375 
C 12.796875 14.390625 12.09375 17.203125 11.90625 23 
L 26.5 23 
C 33.40625 23 37.703125 23 44.59375 24.125 
C 44.703125 25.53125 44.796875 26.453125 44.796875 27.671875 
C 44.796875 39.375 37.40625 47 26.203125 47 
C 22.5 47 18.203125 45.6875 14.09375 43.28125 
C 5.90625 38.578125 2.59375 32.359375 2.59375 21.9375 
C 2.59375 15.625 4.09375 10.21875 6.796875 6.40625 
C 10.796875 1.109375 17.5 -2 25 -2 
C 28.703125 -2 32.40625 -1.203125 36.5 0.578125 
C 39.203125 1.6875 41.296875 2.984375 41.703125 3.59375 
z
M 35.90625 26.40625 
C 30.703125 26.40625 28.296875 26.40625 24.703125 26.40625 
C 20.09375 26.40625 17.5 26.40625 12.09375 26.90625 
C 12.09375 31.671875 12.5 33.890625 13.796875 36.515625 
C 15.90625 40.96875 20.203125 43.6875 25 43.6875 
C 28.296875 43.6875 30.90625 42.359375 32.703125 39.59375 
C 34.90625 36.234375 35.59375 33.265625 35.90625 26.40625 
z
" id="URW_Palladio_L_Roman-101"/>
       <path d="M 34.09375 71.890625 
C 32 72.6875 30.796875 73 29.5 73 
C 26.296875 73 22.796875 71.296875 20.59375 68.8125 
L 14.796875 62.265625 
C 11.90625 58.984375 10.59375 54.53125 10.59375 47.96875 
L 10.59375 43.796875 
L 3.703125 40.6875 
L 3.703125 38.6875 
L 10.59375 38.6875 
L 10.59375 10.171875 
C 10.59375 3.8125 10.296875 3.109375 6.90625 3.109375 
L 2.296875 3.109375 
L 2.296875 0 
C 12.296875 0 12.296875 0 14.796875 0 
C 17.296875 0 17.296875 0 27.296875 0 
L 27.296875 3.109375 
L 22.703125 3.109375 
C 19.296875 3.109375 19 3.828125 19 10.203125 
L 19 38.890625 
L 31.40625 38.890625 
L 32.09375 44 
L 19 44 
L 19 52.34375 
C 19 63.640625 20.296875 66.375 26 66.375 
C 28.703125 66.375 30.5 65.6875 32.90625 63.609375 
L 34.09375 64.203125 
z
" id="URW_Palladio_L_Roman-102"/>
       <path d="M 9.796875 38.6875 
L 9.796875 9.671875 
C 9.796875 2.21875 13.09375 -1 20.796875 -1 
C 23.09375 -1 25.5 -0.5 26.09375 0.203125 
L 30.90625 5.515625 
L 29.59375 7.234375 
C 27.09375 5.8125 25.59375 5.3125 23.703125 5.3125 
C 19.796875 5.3125 18.203125 7.34375 18.203125 12.3125 
L 18.203125 38.890625 
L 31 38.890625 
L 31.90625 44 
L 18.203125 44 
L 18.203125 47.75 
C 18.203125 51.890625 18.5 55.421875 19.296875 61.734375 
L 18.09375 62.828125 
C 15.703125 61.328125 12.703125 60.03125 9.59375 59.03125 
C 9.90625 56.015625 10 54.109375 10 51.109375 
L 10 44.09375 
L 2.203125 40.59375 
L 2.203125 38.6875 
z
" id="URW_Palladio_L_Roman-116"/>
       <path d="M 2.296875 66.5 
L 7.90625 66.5 
C 9.703125 66.5 10.40625 65.390625 10.40625 62.375 
L 10.40625 10.171875 
C 10.40625 3.8125 10.09375 3.109375 6.703125 3.109375 
L 2.09375 3.109375 
L 2.09375 0 
C 12.09375 0 12.09375 0 14.59375 0 
C 17.09375 0 17.09375 0 27.09375 0 
L 27.09375 3.109375 
L 22.5 3.109375 
C 19.09375 3.109375 18.796875 3.8125 18.796875 10.15625 
L 18.796875 72.203125 
L 17.90625 73.015625 
C 13.5 71.3125 10.203125 70.5 2.296875 69.296875 
z
" id="URW_Palladio_L_Roman-108"/>
       <path d="M 18.796875 46.765625 
L 17.90625 47.171875 
C 12.796875 45.0625 7.59375 43.640625 2.296875 43.046875 
L 2.296875 40.25 
L 6 40.25 
C 10 40.25 10.40625 39.546875 10.40625 32.890625 
L 10.40625 10.171875 
C 10.40625 3.8125 10.09375 3.109375 6.703125 3.109375 
L 2.09375 3.109375 
L 2.09375 0 
C 12.09375 0 12.09375 0 14.59375 0 
C 17.09375 0 17.09375 0 27.09375 0 
L 27.09375 3.109375 
L 22.5 3.109375 
C 19.09375 3.109375 18.796875 3.8125 18.796875 10.171875 
z
M 14.203125 69 
C 11.203125 69 8.59375 66.390625 8.59375 63.375 
C 8.59375 60.46875 11.203125 57.875 14.09375 57.875 
C 17 57.875 19.703125 60.46875 19.703125 63.375 
C 19.703125 66.1875 17 69 14.203125 69 
z
" id="URW_Palladio_L_Roman-105"/>
       <path d="M 29.703125 8.8125 
C 27.5 12.625 26.40625 14.9375 24.59375 19.84375 
L 18.203125 36.671875 
C 17.59375 38.375 17.203125 39.875 17.203125 40.90625 
C 17.203125 42.34375 18.296875 43.1875 20.59375 43.1875 
L 24.40625 43.1875 
L 24.40625 46 
C 14.703125 46 14.703125 46 12.796875 46 
C 10.90625 46 10.90625 46 1.203125 46 
L 1.203125 43.390625 
L 3 43.1875 
C 5.5 42.890625 6.703125 41.78125 8.203125 38.296875 
L 19.09375 12.109375 
C 21.90625 5.3125 22.90625 2.90625 24.703125 -2.09375 
L 22.40625 -8.1875 
C 19.203125 -16.59375 15.296875 -21.28125 11.5 -21.28125 
C 9.90625 -21.28125 8.09375 -20.484375 6.40625 -18.984375 
L 5.09375 -18.984375 
L 2.703125 -26.5 
C 4.59375 -27.5 6.203125 -28 8.09375 -28 
C 14.796875 -28 19.09375 -24.40625 22.90625 -15.703125 
L 43.203125 31.09375 
C 47.203125 40.1875 49.09375 42.890625 51.59375 43.1875 
L 54.40625 43.390625 
L 54.40625 46 
C 46.5 46 46.5 46 44.90625 46 
C 43.296875 46 43.296875 46 35.40625 46 
L 35.40625 43.390625 
L 38 43.1875 
C 40.796875 42.984375 42.203125 42.09375 42.203125 40.6875 
C 42.203125 39.984375 42 39.078125 41.59375 38.078125 
z
" id="URW_Palladio_L_Roman-121"/>
       <path d="M 2.296875 40.078125 
L 6 40.078125 
C 10 40.078125 10.40625 39.375 10.40625 32.71875 
L 10.40625 10.046875 
C 10.40625 3.703125 10.09375 3 6.703125 3 
L 2.09375 3 
L 2.09375 -0.109375 
C 9.296875 -0.109375 11.90625 -0.109375 14.40625 -0.109375 
C 16.40625 -0.109375 16.40625 -0.109375 28.703125 -0.109375 
L 28.703125 3 
L 23.5 3 
C 19 3 18.796875 3.296875 18.796875 9.96875 
L 18.796875 27.359375 
C 18.796875 33.421875 22.796875 38.484375 27.703125 38.484375 
C 30.703125 38.484375 32.796875 37.078125 34.40625 33.890625 
L 36.5 33.890625 
L 37.40625 45.890625 
C 36.296875 46.59375 34.5 47 32.703125 47 
C 29.703125 47 26.5 45.390625 24.40625 42.890625 
L 18.796875 36.28125 
L 18.796875 46.59375 
L 17.90625 47 
C 12.796875 44.890625 7.59375 43.484375 2.296875 42.890625 
z
" id="URW_Palladio_L_Roman-114"/>
       <path d="M 8.796875 -18 
C 15.90625 -18 16.09375 -18 18.5 -18 
C 20.90625 -18 21.40625 -18 28.203125 -18 
L 28.796875 -17.5 
L 28.796875 -14.890625 
L 28.40625 -14.390625 
L 24.59375 -14.390625 
C 21.90625 -14.390625 19.703125 -13.78125 18.5 -12.78125 
C 17.59375 -11.875 17.296875 -10.484375 17.296875 -7.171875 
C 17.296875 -7.078125 17.296875 -4.96875 17.203125 -1.953125 
L 17.203125 1.75 
L 17.203125 53.265625 
L 17.203125 56.96875 
C 17.296875 59.78125 17.296875 61.984375 17.296875 62.078125 
C 17.296875 65.390625 17.59375 66.890625 18.5 67.796875 
C 19.703125 68.796875 21.90625 69.390625 24.59375 69.390625 
L 28.40625 69.390625 
L 28.796875 69.890625 
L 28.796875 72.5 
L 28.203125 73 
C 21.203125 73 20.90625 73 18.5 73 
C 16.203125 73 15.703125 73 8.796875 73 
L 7.90625 71.796875 
C 8.5 69.296875 8.703125 65.984375 8.703125 58.28125 
C 8.703125 56.765625 8.703125 55.5625 8.796875 54.5625 
L 8.796875 53.265625 
L 8.796875 1.75 
L 8.796875 0.4375 
C 8.703125 -1.15625 8.703125 -1.265625 8.703125 -2.96875 
L 8.703125 -4.0625 
C 8.703125 -10.875 8.5 -13.6875 7.90625 -16.796875 
z
" id="URW_Palladio_L_Roman-91"/>
       <path d="M 20.296875 69 
C 10.796875 69 3.90625 61.96875 3.90625 52.1875 
C 3.90625 43.25 10.40625 36.703125 19.296875 36.703125 
C 28.59375 36.703125 35.5 43.84375 35.5 53.515625 
C 35.5 62.359375 29 69 20.296875 69 
z
M 20 66.703125 
C 25.09375 66.703125 28.296875 61.5625 28.296875 53.3125 
C 28.296875 44.65625 24.796875 39 19.40625 39 
C 14.09375 39 11.09375 43.953125 11.09375 52.59375 
C 11.09375 61.265625 14.5 66.703125 20 66.703125 
z
M 65 32 
C 55.5 32 48.59375 25.015625 48.59375 15.359375 
C 48.59375 6.484375 55.09375 0 64 0 
C 73.296875 0 80.203125 7.078125 80.203125 16.640625 
C 80.203125 25.40625 73.703125 32 65 32 
z
M 64.703125 29.6875 
C 69.796875 29.6875 73 24.609375 73 16.4375 
C 73 7.890625 69.5 2.296875 64.09375 2.296875 
C 58.796875 2.296875 55.796875 7.1875 55.796875 15.75 
C 55.796875 24.3125 59.203125 29.6875 64.703125 29.6875 
z
M 25 -2 
L 61.59375 71 
L 57.59375 71 
L 21 -2 
z
" id="URW_Palladio_L_Roman-37"/>
       <path d="M 24.5 73 
C 17.40625 73 17.09375 73 14.796875 73 
C 12.40625 73 11.90625 73 5.09375 73 
L 4.5 72.5 
L 4.5 69.890625 
L 4.90625 69.390625 
L 8.703125 69.390625 
C 11.40625 69.390625 13.5 68.796875 14.703125 67.796875 
C 15.703125 66.890625 16 65.484375 16 62.078125 
C 16 61.78125 16 59.78125 16.09375 56.96875 
L 16.09375 53.265625 
L 16.09375 1.75 
L 16.09375 -1.953125 
C 16 -4.859375 16 -6.671875 16 -6.96875 
C 16 -10.375 15.703125 -11.875 14.703125 -12.78125 
C 13.5 -13.78125 11.40625 -14.390625 8.703125 -14.390625 
L 4.90625 -14.390625 
L 4.5 -14.890625 
L 4.5 -17.5 
L 5.09375 -18 
C 12.09375 -18 12.296875 -18 14.796875 -18 
C 17.09375 -18 17.59375 -18 24.5 -18 
L 25.40625 -16.796875 
C 24.796875 -14.390625 24.703125 -11.28125 24.59375 -3.5625 
C 24.59375 -2.15625 24.59375 -0.859375 24.5 0.4375 
L 24.5 1.75 
L 24.5 53.265625 
L 24.5 54.5625 
C 24.59375 55.671875 24.59375 56.96875 24.59375 58.375 
C 24.59375 66.09375 24.796875 69.390625 25.40625 71.796875 
z
" id="URW_Palladio_L_Roman-93"/>
      </defs>
      <use transform="scale(0.996264)" xlink:href="#URW_Palladio_L_Roman-99"/>
      <use transform="translate(44.233569 0)scale(0.996264)" xlink:href="#URW_Palladio_L_Roman-97"/>
      <use transform="translate(94.046769 0)scale(0.996264)" xlink:href="#URW_Palladio_L_Roman-115"/>
      <use transform="translate(136.288236 0)scale(0.996264)" xlink:href="#URW_Palladio_L_Roman-101"/>
      <use transform="translate(208.915131 0)scale(0.996264)" xlink:href="#URW_Palladio_L_Roman-102"/>
      <use transform="translate(242.090361 0)scale(0.996264)" xlink:href="#URW_Palladio_L_Roman-97"/>
      <use transform="translate(291.903561 0)scale(0.996264)" xlink:href="#URW_Palladio_L_Roman-116"/>
      <use transform="translate(324.380649 0)scale(0.996264)" xlink:href="#URW_Palladio_L_Roman-97"/>
      <use transform="translate(374.193849 0)scale(0.996264)" xlink:href="#URW_Palladio_L_Roman-108"/>
      <use transform="translate(403.184211 0)scale(0.996264)" xlink:href="#URW_Palladio_L_Roman-105"/>
      <use transform="translate(432.174572 0)scale(0.996264)" xlink:href="#URW_Palladio_L_Roman-116"/>
      <use transform="translate(464.65166 0)scale(0.996264)" xlink:href="#URW_Palladio_L_Roman-121"/>
      <use transform="translate(544.949937 0)scale(0.996264)" xlink:href="#URW_Palladio_L_Roman-114"/>
      <use transform="translate(584.301834 0)scale(0.996264)" xlink:href="#URW_Palladio_L_Roman-97"/>
      <use transform="translate(634.115034 0)scale(0.996264)" xlink:href="#URW_Palladio_L_Roman-116"/>
      <use transform="translate(666.592122 0)scale(0.996264)" xlink:href="#URW_Palladio_L_Roman-101"/>
      <use transform="translate(739.219018 0)scale(0.996264)" xlink:href="#URW_Palladio_L_Roman-91"/>
      <use transform="translate(772.394247 0)scale(0.996264)" xlink:href="#URW_Palladio_L_Roman-37"/>
      <use transform="translate(856.07939 0)scale(0.996264)" xlink:href="#URW_Palladio_L_Roman-93"/>
     </g>
    </g>
   </g>
   <g id="patch_322">
    <path d="M 44.100288 273.312 
L 44.100288 7.2 
" style="fill:none;stroke:#000000;stroke-linecap:square;stroke-linejoin:miter;stroke-width:0.8;"/>
   </g>
   <g id="patch_323">
    <path d="M 44.100288 273.312 
L 401.220288 273.312 
" style="fill:none;stroke:#000000;stroke-linecap:square;stroke-linejoin:miter;stroke-width:0.8;"/>
   </g>
  </g>
 </g>
 <defs>
  <clipPath id="p2a783bdea6">
   <rect height="266.112" width="357.12" x="44.100288" y="7.2"/>
  </clipPath>
 </defs>
</svg>
