<?xml version="1.0" encoding="utf-8" standalone="no"?>
<!DOCTYPE svg PUBLIC "-//W3C//DTD SVG 1.1//EN"
  "http://www.w3.org/Graphics/SVG/1.1/DTD/svg11.dtd">
<!-- Created with matplotlib (https://matplotlib.org/) -->
<svg height="364.091062pt" version="1.1" viewBox="0 0 410.923125 364.091062" width="410.923125pt" xmlns="http://www.w3.org/2000/svg" xmlns:xlink="http://www.w3.org/1999/xlink">
 <metadata>
  <rdf:RDF xmlns:cc="http://creativecommons.org/ns#" xmlns:dc="http://purl.org/dc/elements/1.1/" xmlns:rdf="http://www.w3.org/1999/02/22-rdf-syntax-ns#">
   <cc:Work>
    <dc:type rdf:resource="http://purl.org/dc/dcmitype/StillImage"/>
    <dc:date>2020-12-21T11:52:59.725772</dc:date>
    <dc:format>image/svg+xml</dc:format>
    <dc:creator>
     <cc:Agent>
      <dc:title>Matplotlib v3.3.3, https://matplotlib.org/</dc:title>
     </cc:Agent>
    </dc:creator>
   </cc:Work>
  </rdf:RDF>
 </metadata>
 <defs>
  <style type="text/css">*{stroke-linecap:butt;stroke-linejoin:round;}</style>
 </defs>
 <g id="figure_1">
  <g id="patch_1">
   <path d="M 0 364.091062 
L 410.923125 364.091062 
L 410.923125 0 
L 0 0 
z
" style="fill:#ffffff;"/>
  </g>
  <g id="axes_1">
   <g id="patch_2">
    <path d="M 46.603125 288.430125 
L 403.723125 288.430125 
L 403.723125 22.318125 
L 46.603125 22.318125 
z
" style="fill:#ffffff;"/>
   </g>
   <g id="patch_3">
    <path clip-path="url(#p21b6e12acf)" d="M 46.729763 288.430125 
L 47.74287 288.430125 
L 47.74287 34.990125 
L 46.729763 34.990125 
z
" style="fill:#1f77b4;"/>
   </g>
   <g id="patch_4">
    <path clip-path="url(#p21b6e12acf)" d="M 47.996146 288.430125 
L 49.009253 288.430125 
L 49.009253 22.318125 
L 47.996146 22.318125 
z
" style="fill:#1f77b4;"/>
   </g>
   <g id="patch_5">
    <path clip-path="url(#p21b6e12acf)" d="M 49.262529 288.430125 
L 50.275636 288.430125 
L 50.275636 22.318125 
L 49.262529 22.318125 
z
" style="fill:#1f77b4;"/>
   </g>
   <g id="patch_6">
    <path clip-path="url(#p21b6e12acf)" d="M 50.528912 288.430125 
L 51.542019 288.430125 
L 51.542019 64.335809 
L 50.528912 64.335809 
z
" style="fill:#1f77b4;"/>
   </g>
   <g id="patch_7">
    <path clip-path="url(#p21b6e12acf)" d="M 51.795295 288.430125 
L 52.808402 288.430125 
L 52.808402 51.886125 
L 51.795295 51.886125 
z
" style="fill:#1f77b4;"/>
   </g>
   <g id="patch_8">
    <path clip-path="url(#p21b6e12acf)" d="M 53.061678 288.430125 
L 54.074785 288.430125 
L 54.074785 63.713325 
L 53.061678 63.713325 
z
" style="fill:#1f77b4;"/>
   </g>
   <g id="patch_9">
    <path clip-path="url(#p21b6e12acf)" d="M 54.328061 288.430125 
L 55.341168 288.430125 
L 55.341168 58.279206 
L 54.328061 58.279206 
z
" style="fill:#1f77b4;"/>
   </g>
   <g id="patch_10">
    <path clip-path="url(#p21b6e12acf)" d="M 55.594444 288.430125 
L 56.607551 288.430125 
L 56.607551 76.905202 
L 55.594444 76.905202 
z
" style="fill:#1f77b4;"/>
   </g>
   <g id="patch_11">
    <path clip-path="url(#p21b6e12acf)" d="M 56.860827 288.430125 
L 57.873934 288.430125 
L 57.873934 77.946057 
L 56.860827 77.946057 
z
" style="fill:#1f77b4;"/>
   </g>
   <g id="patch_12">
    <path clip-path="url(#p21b6e12acf)" d="M 58.12721 288.430125 
L 59.140316 288.430125 
L 59.140316 58.843301 
L 58.12721 58.843301 
z
" style="fill:#1f77b4;"/>
   </g>
   <g id="patch_13">
    <path clip-path="url(#p21b6e12acf)" d="M 59.393593 288.430125 
L 60.406699 288.430125 
L 60.406699 78.341704 
L 59.393593 78.341704 
z
" style="fill:#1f77b4;"/>
   </g>
   <g id="patch_14">
    <path clip-path="url(#p21b6e12acf)" d="M 60.659976 288.430125 
L 61.673082 288.430125 
L 61.673082 84.025255 
L 60.659976 84.025255 
z
" style="fill:#1f77b4;"/>
   </g>
   <g id="patch_15">
    <path clip-path="url(#p21b6e12acf)" d="M 61.926359 288.430125 
L 62.939465 288.430125 
L 62.939465 85.678125 
L 61.926359 85.678125 
z
" style="fill:#1f77b4;"/>
   </g>
   <g id="patch_16">
    <path clip-path="url(#p21b6e12acf)" d="M 63.192742 288.430125 
L 64.205848 288.430125 
L 64.205848 87.47239 
L 63.192742 87.47239 
z
" style="fill:#1f77b4;"/>
   </g>
   <g id="patch_17">
    <path clip-path="url(#p21b6e12acf)" d="M 64.459125 288.430125 
L 65.472231 288.430125 
L 65.472231 91.618125 
L 64.459125 91.618125 
z
" style="fill:#1f77b4;"/>
   </g>
   <g id="patch_18">
    <path clip-path="url(#p21b6e12acf)" d="M 65.725508 288.430125 
L 66.738614 288.430125 
L 66.738614 111.022125 
L 65.725508 111.022125 
z
" style="fill:#1f77b4;"/>
   </g>
   <g id="patch_19">
    <path clip-path="url(#p21b6e12acf)" d="M 66.991891 288.430125 
L 68.004997 288.430125 
L 68.004997 95.213491 
L 66.991891 95.213491 
z
" style="fill:#1f77b4;"/>
   </g>
   <g id="patch_20">
    <path clip-path="url(#p21b6e12acf)" d="M 68.258274 288.430125 
L 69.27138 288.430125 
L 69.27138 100.032249 
L 68.258274 100.032249 
z
" style="fill:#1f77b4;"/>
   </g>
   <g id="patch_21">
    <path clip-path="url(#p21b6e12acf)" d="M 69.524657 288.430125 
L 70.537763 288.430125 
L 70.537763 106.034752 
L 69.524657 106.034752 
z
" style="fill:#1f77b4;"/>
   </g>
   <g id="patch_22">
    <path clip-path="url(#p21b6e12acf)" d="M 70.79104 288.430125 
L 71.804146 288.430125 
L 71.804146 112.876564 
L 70.79104 112.876564 
z
" style="fill:#1f77b4;"/>
   </g>
   <g id="patch_23">
    <path clip-path="url(#p21b6e12acf)" d="M 72.057423 288.430125 
L 73.070529 288.430125 
L 73.070529 115.753005 
L 72.057423 115.753005 
z
" style="fill:#1f77b4;"/>
   </g>
   <g id="patch_24">
    <path clip-path="url(#p21b6e12acf)" d="M 73.323806 288.430125 
L 74.336912 288.430125 
L 74.336912 117.592792 
L 73.323806 117.592792 
z
" style="fill:#1f77b4;"/>
   </g>
   <g id="patch_25">
    <path clip-path="url(#p21b6e12acf)" d="M 74.590189 288.430125 
L 75.603295 288.430125 
L 75.603295 124.052091 
L 74.590189 124.052091 
z
" style="fill:#1f77b4;"/>
   </g>
   <g id="patch_26">
    <path clip-path="url(#p21b6e12acf)" d="M 75.856572 288.430125 
L 76.869678 288.430125 
L 76.869678 127.40545 
L 75.856572 127.40545 
z
" style="fill:#1f77b4;"/>
   </g>
   <g id="patch_27">
    <path clip-path="url(#p21b6e12acf)" d="M 77.122955 288.430125 
L 78.136061 288.430125 
L 78.136061 140.866461 
L 77.122955 140.866461 
z
" style="fill:#1f77b4;"/>
   </g>
   <g id="patch_28">
    <path clip-path="url(#p21b6e12acf)" d="M 78.389338 288.430125 
L 79.402444 288.430125 
L 79.402444 145.433159 
L 78.389338 145.433159 
z
" style="fill:#1f77b4;"/>
   </g>
   <g id="patch_29">
    <path clip-path="url(#p21b6e12acf)" d="M 79.655721 288.430125 
L 80.668827 288.430125 
L 80.668827 152.993401 
L 79.655721 152.993401 
z
" style="fill:#1f77b4;"/>
   </g>
   <g id="patch_30">
    <path clip-path="url(#p21b6e12acf)" d="M 80.922104 288.430125 
L 81.93521 288.430125 
L 81.93521 159.873603 
L 80.922104 159.873603 
z
" style="fill:#1f77b4;"/>
   </g>
   <g id="patch_31">
    <path clip-path="url(#p21b6e12acf)" d="M 82.188487 288.430125 
L 83.201593 288.430125 
L 83.201593 161.66574 
L 82.188487 161.66574 
z
" style="fill:#1f77b4;"/>
   </g>
   <g id="patch_32">
    <path clip-path="url(#p21b6e12acf)" d="M 83.45487 288.430125 
L 84.467976 288.430125 
L 84.467976 158.913249 
L 83.45487 158.913249 
z
" style="fill:#1f77b4;"/>
   </g>
   <g id="patch_33">
    <path clip-path="url(#p21b6e12acf)" d="M 84.721253 288.430125 
L 85.734359 288.430125 
L 85.734359 160.743438 
L 84.721253 160.743438 
z
" style="fill:#1f77b4;"/>
   </g>
   <g id="patch_34">
    <path clip-path="url(#p21b6e12acf)" d="M 85.987636 288.430125 
L 87.000742 288.430125 
L 87.000742 165.137144 
L 85.987636 165.137144 
z
" style="fill:#1f77b4;"/>
   </g>
   <g id="patch_35">
    <path clip-path="url(#p21b6e12acf)" d="M 87.254019 288.430125 
L 88.267125 288.430125 
L 88.267125 168.758456 
L 87.254019 168.758456 
z
" style="fill:#1f77b4;"/>
   </g>
   <g id="patch_36">
    <path clip-path="url(#p21b6e12acf)" d="M 88.520402 288.430125 
L 89.533508 288.430125 
L 89.533508 172.815923 
L 88.520402 172.815923 
z
" style="fill:#1f77b4;"/>
   </g>
   <g id="patch_37">
    <path clip-path="url(#p21b6e12acf)" d="M 89.786785 288.430125 
L 90.799891 288.430125 
L 90.799891 178.155711 
L 89.786785 178.155711 
z
" style="fill:#1f77b4;"/>
   </g>
   <g id="patch_38">
    <path clip-path="url(#p21b6e12acf)" d="M 91.053168 288.430125 
L 92.066274 288.430125 
L 92.066274 181.636611 
L 91.053168 181.636611 
z
" style="fill:#1f77b4;"/>
   </g>
   <g id="patch_39">
    <path clip-path="url(#p21b6e12acf)" d="M 92.319551 288.430125 
L 93.332657 288.430125 
L 93.332657 184.855466 
L 92.319551 184.855466 
z
" style="fill:#1f77b4;"/>
   </g>
   <g id="patch_40">
    <path clip-path="url(#p21b6e12acf)" d="M 93.585934 288.430125 
L 94.59904 288.430125 
L 94.59904 186.243117 
L 93.585934 186.243117 
z
" style="fill:#1f77b4;"/>
   </g>
   <g id="patch_41">
    <path clip-path="url(#p21b6e12acf)" d="M 94.852316 288.430125 
L 95.865423 288.430125 
L 95.865423 187.951258 
L 94.852316 187.951258 
z
" style="fill:#1f77b4;"/>
   </g>
   <g id="patch_42">
    <path clip-path="url(#p21b6e12acf)" d="M 96.118699 288.430125 
L 97.131806 288.430125 
L 97.131806 190.01676 
L 96.118699 190.01676 
z
" style="fill:#1f77b4;"/>
   </g>
   <g id="patch_43">
    <path clip-path="url(#p21b6e12acf)" d="M 97.385082 288.430125 
L 98.398189 288.430125 
L 98.398189 219.965996 
L 97.385082 219.965996 
z
" style="fill:#1f77b4;"/>
   </g>
   <g id="patch_44">
    <path clip-path="url(#p21b6e12acf)" d="M 98.651465 288.430125 
L 99.664572 288.430125 
L 99.664572 223.179438 
L 98.651465 223.179438 
z
" style="fill:#1f77b4;"/>
   </g>
   <g id="patch_45">
    <path clip-path="url(#p21b6e12acf)" d="M 99.917848 288.430125 
L 100.930955 288.430125 
L 100.930955 224.243505 
L 99.917848 224.243505 
z
" style="fill:#1f77b4;"/>
   </g>
   <g id="patch_46">
    <path clip-path="url(#p21b6e12acf)" d="M 101.184231 288.430125 
L 102.197338 288.430125 
L 102.197338 226.861796 
L 101.184231 226.861796 
z
" style="fill:#1f77b4;"/>
   </g>
   <g id="patch_47">
    <path clip-path="url(#p21b6e12acf)" d="M 102.450614 288.430125 
L 103.463721 288.430125 
L 103.463721 227.655596 
L 102.450614 227.655596 
z
" style="fill:#1f77b4;"/>
   </g>
   <g id="patch_48">
    <path clip-path="url(#p21b6e12acf)" d="M 103.716997 288.430125 
L 104.730104 288.430125 
L 104.730104 229.934587 
L 103.716997 229.934587 
z
" style="fill:#1f77b4;"/>
   </g>
   <g id="patch_49">
    <path clip-path="url(#p21b6e12acf)" d="M 104.98338 288.430125 
L 105.996487 288.430125 
L 105.996487 231.568587 
L 104.98338 231.568587 
z
" style="fill:#1f77b4;"/>
   </g>
   <g id="patch_50">
    <path clip-path="url(#p21b6e12acf)" d="M 106.249763 288.430125 
L 107.26287 288.430125 
L 107.26287 232.733429 
L 106.249763 232.733429 
z
" style="fill:#1f77b4;"/>
   </g>
   <g id="patch_51">
    <path clip-path="url(#p21b6e12acf)" d="M 107.516146 288.430125 
L 108.529253 288.430125 
L 108.529253 234.394282 
L 107.516146 234.394282 
z
" style="fill:#1f77b4;"/>
   </g>
   <g id="patch_52">
    <path clip-path="url(#p21b6e12acf)" d="M 108.782529 288.430125 
L 109.795636 288.430125 
L 109.795636 235.141351 
L 108.782529 235.141351 
z
" style="fill:#1f77b4;"/>
   </g>
   <g id="patch_53">
    <path clip-path="url(#p21b6e12acf)" d="M 110.048912 288.430125 
L 111.062019 288.430125 
L 111.062019 235.533671 
L 110.048912 235.533671 
z
" style="fill:#1f77b4;"/>
   </g>
   <g id="patch_54">
    <path clip-path="url(#p21b6e12acf)" d="M 111.315295 288.430125 
L 112.328402 288.430125 
L 112.328402 235.851174 
L 111.315295 235.851174 
z
" style="fill:#1f77b4;"/>
   </g>
   <g id="patch_55">
    <path clip-path="url(#p21b6e12acf)" d="M 112.581678 288.430125 
L 113.594785 288.430125 
L 113.594785 236.7614 
L 112.581678 236.7614 
z
" style="fill:#1f77b4;"/>
   </g>
   <g id="patch_56">
    <path clip-path="url(#p21b6e12acf)" d="M 113.848061 288.430125 
L 114.861168 288.430125 
L 114.861168 237.716794 
L 113.848061 237.716794 
z
" style="fill:#1f77b4;"/>
   </g>
   <g id="patch_57">
    <path clip-path="url(#p21b6e12acf)" d="M 115.114444 288.430125 
L 116.127551 288.430125 
L 116.127551 238.555697 
L 115.114444 238.555697 
z
" style="fill:#1f77b4;"/>
   </g>
   <g id="patch_58">
    <path clip-path="url(#p21b6e12acf)" d="M 116.380827 288.430125 
L 117.393934 288.430125 
L 117.393934 239.291328 
L 116.380827 239.291328 
z
" style="fill:#1f77b4;"/>
   </g>
   <g id="patch_59">
    <path clip-path="url(#p21b6e12acf)" d="M 117.64721 288.430125 
L 118.660316 288.430125 
L 118.660316 239.663945 
L 117.64721 239.663945 
z
" style="fill:#1f77b4;"/>
   </g>
   <g id="patch_60">
    <path clip-path="url(#p21b6e12acf)" d="M 118.913593 288.430125 
L 119.926699 288.430125 
L 119.926699 240.008177 
L 118.913593 240.008177 
z
" style="fill:#1f77b4;"/>
   </g>
   <g id="patch_61">
    <path clip-path="url(#p21b6e12acf)" d="M 120.179976 288.430125 
L 121.193082 288.430125 
L 121.193082 240.234977 
L 120.179976 240.234977 
z
" style="fill:#1f77b4;"/>
   </g>
   <g id="patch_62">
    <path clip-path="url(#p21b6e12acf)" d="M 121.446359 288.430125 
L 122.459465 288.430125 
L 122.459465 240.83686 
L 121.446359 240.83686 
z
" style="fill:#1f77b4;"/>
   </g>
   <g id="patch_63">
    <path clip-path="url(#p21b6e12acf)" d="M 122.712742 288.430125 
L 123.725848 288.430125 
L 123.725848 241.616367 
L 122.712742 241.616367 
z
" style="fill:#1f77b4;"/>
   </g>
   <g id="patch_64">
    <path clip-path="url(#p21b6e12acf)" d="M 123.979125 288.430125 
L 124.992231 288.430125 
L 124.992231 242.059399 
L 123.979125 242.059399 
z
" style="fill:#1f77b4;"/>
   </g>
   <g id="patch_65">
    <path clip-path="url(#p21b6e12acf)" d="M 125.245508 288.430125 
L 126.258614 288.430125 
L 126.258614 242.494125 
L 125.245508 242.494125 
z
" style="fill:#1f77b4;"/>
   </g>
   <g id="patch_66">
    <path clip-path="url(#p21b6e12acf)" d="M 126.511891 288.430125 
L 127.524997 288.430125 
L 127.524997 243.041223 
L 126.511891 243.041223 
z
" style="fill:#1f77b4;"/>
   </g>
   <g id="patch_67">
    <path clip-path="url(#p21b6e12acf)" d="M 127.778274 288.430125 
L 128.79138 288.430125 
L 128.79138 243.04487 
L 127.778274 243.04487 
z
" style="fill:#1f77b4;"/>
   </g>
   <g id="patch_68">
    <path clip-path="url(#p21b6e12acf)" d="M 129.044657 288.430125 
L 130.057763 288.430125 
L 130.057763 243.124528 
L 129.044657 243.124528 
z
" style="fill:#1f77b4;"/>
   </g>
   <g id="patch_69">
    <path clip-path="url(#p21b6e12acf)" d="M 130.31104 288.430125 
L 131.324146 288.430125 
L 131.324146 243.829064 
L 130.31104 243.829064 
z
" style="fill:#1f77b4;"/>
   </g>
   <g id="patch_70">
    <path clip-path="url(#p21b6e12acf)" d="M 131.577423 288.430125 
L 132.590529 288.430125 
L 132.590529 244.248929 
L 131.577423 244.248929 
z
" style="fill:#1f77b4;"/>
   </g>
   <g id="patch_71">
    <path clip-path="url(#p21b6e12acf)" d="M 132.843806 288.430125 
L 133.856912 288.430125 
L 133.856912 244.790456 
L 132.843806 244.790456 
z
" style="fill:#1f77b4;"/>
   </g>
   <g id="patch_72">
    <path clip-path="url(#p21b6e12acf)" d="M 134.110189 288.430125 
L 135.123295 288.430125 
L 135.123295 244.974125 
L 134.110189 244.974125 
z
" style="fill:#1f77b4;"/>
   </g>
   <g id="patch_73">
    <path clip-path="url(#p21b6e12acf)" d="M 135.376572 288.430125 
L 136.389678 288.430125 
L 136.389678 245.372804 
L 135.376572 245.372804 
z
" style="fill:#1f77b4;"/>
   </g>
   <g id="patch_74">
    <path clip-path="url(#p21b6e12acf)" d="M 136.642955 288.430125 
L 137.656061 288.430125 
L 137.656061 245.569413 
L 136.642955 245.569413 
z
" style="fill:#1f77b4;"/>
   </g>
   <g id="patch_75">
    <path clip-path="url(#p21b6e12acf)" d="M 137.909338 288.430125 
L 138.922444 288.430125 
L 138.922444 245.658188 
L 137.909338 245.658188 
z
" style="fill:#1f77b4;"/>
   </g>
   <g id="patch_76">
    <path clip-path="url(#p21b6e12acf)" d="M 139.175721 288.430125 
L 140.188827 288.430125 
L 140.188827 245.799466 
L 139.175721 245.799466 
z
" style="fill:#1f77b4;"/>
   </g>
   <g id="patch_77">
    <path clip-path="url(#p21b6e12acf)" d="M 140.442104 288.430125 
L 141.45521 288.430125 
L 141.45521 246.079241 
L 140.442104 246.079241 
z
" style="fill:#1f77b4;"/>
   </g>
   <g id="patch_78">
    <path clip-path="url(#p21b6e12acf)" d="M 141.708487 288.430125 
L 142.721593 288.430125 
L 142.721593 246.13129 
L 141.708487 246.13129 
z
" style="fill:#1f77b4;"/>
   </g>
   <g id="patch_79">
    <path clip-path="url(#p21b6e12acf)" d="M 142.97487 288.430125 
L 143.987976 288.430125 
L 143.987976 246.44092 
L 142.97487 246.44092 
z
" style="fill:#1f77b4;"/>
   </g>
   <g id="patch_80">
    <path clip-path="url(#p21b6e12acf)" d="M 144.241253 288.430125 
L 145.254359 288.430125 
L 145.254359 246.627916 
L 144.241253 246.627916 
z
" style="fill:#1f77b4;"/>
   </g>
   <g id="patch_81">
    <path clip-path="url(#p21b6e12acf)" d="M 145.507636 288.430125 
L 146.520742 288.430125 
L 146.520742 246.712365 
L 145.507636 246.712365 
z
" style="fill:#1f77b4;"/>
   </g>
   <g id="patch_82">
    <path clip-path="url(#p21b6e12acf)" d="M 146.774019 288.430125 
L 147.787125 288.430125 
L 147.787125 246.762871 
L 146.774019 246.762871 
z
" style="fill:#1f77b4;"/>
   </g>
   <g id="patch_83">
    <path clip-path="url(#p21b6e12acf)" d="M 148.040402 288.430125 
L 149.053508 288.430125 
L 149.053508 246.762871 
L 148.040402 246.762871 
z
" style="fill:#1f77b4;"/>
   </g>
   <g id="patch_84">
    <path clip-path="url(#p21b6e12acf)" d="M 149.306785 288.430125 
L 150.319891 288.430125 
L 150.319891 246.754231 
L 149.306785 246.754231 
z
" style="fill:#1f77b4;"/>
   </g>
   <g id="patch_85">
    <path clip-path="url(#p21b6e12acf)" d="M 150.573168 288.430125 
L 151.586274 288.430125 
L 151.586274 246.954436 
L 150.573168 246.954436 
z
" style="fill:#1f77b4;"/>
   </g>
   <g id="patch_86">
    <path clip-path="url(#p21b6e12acf)" d="M 151.839551 288.430125 
L 152.852657 288.430125 
L 152.852657 246.987616 
L 151.839551 246.987616 
z
" style="fill:#1f77b4;"/>
   </g>
   <g id="patch_87">
    <path clip-path="url(#p21b6e12acf)" d="M 153.105934 288.430125 
L 154.11904 288.430125 
L 154.11904 247.08684 
L 153.105934 247.08684 
z
" style="fill:#1f77b4;"/>
   </g>
   <g id="patch_88">
    <path clip-path="url(#p21b6e12acf)" d="M 154.372316 288.430125 
L 155.385423 288.430125 
L 155.385423 247.103331 
L 154.372316 247.103331 
z
" style="fill:#1f77b4;"/>
   </g>
   <g id="patch_89">
    <path clip-path="url(#p21b6e12acf)" d="M 155.638699 288.430125 
L 156.651806 288.430125 
L 156.651806 247.136274 
L 155.638699 247.136274 
z
" style="fill:#1f77b4;"/>
   </g>
   <g id="patch_90">
    <path clip-path="url(#p21b6e12acf)" d="M 156.905082 288.430125 
L 157.918189 288.430125 
L 157.918189 247.152726 
L 156.905082 247.152726 
z
" style="fill:#1f77b4;"/>
   </g>
   <g id="patch_91">
    <path clip-path="url(#p21b6e12acf)" d="M 158.171465 288.430125 
L 159.184572 288.430125 
L 159.184572 247.103331 
L 158.171465 247.103331 
z
" style="fill:#1f77b4;"/>
   </g>
   <g id="patch_92">
    <path clip-path="url(#p21b6e12acf)" d="M 159.437848 288.430125 
L 160.450955 288.430125 
L 160.450955 247.244861 
L 159.437848 247.244861 
z
" style="fill:#1f77b4;"/>
   </g>
   <g id="patch_93">
    <path clip-path="url(#p21b6e12acf)" d="M 160.704231 288.430125 
L 161.717338 288.430125 
L 161.717338 247.375868 
L 160.704231 247.375868 
z
" style="fill:#1f77b4;"/>
   </g>
   <g id="patch_94">
    <path clip-path="url(#p21b6e12acf)" d="M 161.970614 288.430125 
L 162.983721 288.430125 
L 162.983721 247.392185 
L 161.970614 247.392185 
z
" style="fill:#1f77b4;"/>
   </g>
   <g id="patch_95">
    <path clip-path="url(#p21b6e12acf)" d="M 163.236997 288.430125 
L 164.250104 288.430125 
L 164.250104 247.267522 
L 163.236997 247.267522 
z
" style="fill:#1f77b4;"/>
   </g>
   <g id="patch_96">
    <path clip-path="url(#p21b6e12acf)" d="M 164.50338 288.430125 
L 165.516487 288.430125 
L 165.516487 247.283869 
L 164.50338 247.283869 
z
" style="fill:#1f77b4;"/>
   </g>
   <g id="patch_97">
    <path clip-path="url(#p21b6e12acf)" d="M 165.769763 288.430125 
L 166.78287 288.430125 
L 166.78287 247.381681 
L 165.769763 247.381681 
z
" style="fill:#1f77b4;"/>
   </g>
   <g id="patch_98">
    <path clip-path="url(#p21b6e12acf)" d="M 167.036146 288.430125 
L 168.049253 288.430125 
L 168.049253 247.446631 
L 167.036146 247.446631 
z
" style="fill:#1f77b4;"/>
   </g>
   <g id="patch_99">
    <path clip-path="url(#p21b6e12acf)" d="M 168.302529 288.430125 
L 169.315636 288.430125 
L 169.315636 247.640254 
L 168.302529 247.640254 
z
" style="fill:#1f77b4;"/>
   </g>
   <g id="patch_100">
    <path clip-path="url(#p21b6e12acf)" d="M 169.568912 288.430125 
L 170.582019 288.430125 
L 170.582019 247.672347 
L 169.568912 247.672347 
z
" style="fill:#1f77b4;"/>
   </g>
   <g id="patch_101">
    <path clip-path="url(#p21b6e12acf)" d="M 170.835295 288.430125 
L 171.848402 288.430125 
L 171.848402 247.752358 
L 170.835295 247.752358 
z
" style="fill:#1f77b4;"/>
   </g>
   <g id="patch_102">
    <path clip-path="url(#p21b6e12acf)" d="M 172.101678 288.430125 
L 173.114785 288.430125 
L 173.114785 247.704389 
L 172.101678 247.704389 
z
" style="fill:#1f77b4;"/>
   </g>
   <g id="patch_103">
    <path clip-path="url(#p21b6e12acf)" d="M 173.368061 288.430125 
L 174.381168 288.430125 
L 174.381168 247.704389 
L 173.368061 247.704389 
z
" style="fill:#1f77b4;"/>
   </g>
   <g id="patch_104">
    <path clip-path="url(#p21b6e12acf)" d="M 174.634444 288.430125 
L 175.647551 288.430125 
L 175.647551 247.704389 
L 174.634444 247.704389 
z
" style="fill:#1f77b4;"/>
   </g>
   <g id="patch_105">
    <path clip-path="url(#p21b6e12acf)" d="M 175.900827 288.430125 
L 176.913934 288.430125 
L 176.913934 247.752358 
L 175.900827 247.752358 
z
" style="fill:#1f77b4;"/>
   </g>
   <g id="patch_106">
    <path clip-path="url(#p21b6e12acf)" d="M 177.16721 288.430125 
L 178.180316 288.430125 
L 178.180316 247.784275 
L 177.16721 247.784275 
z
" style="fill:#1f77b4;"/>
   </g>
   <g id="patch_107">
    <path clip-path="url(#p21b6e12acf)" d="M 178.433593 288.430125 
L 179.446699 288.430125 
L 179.446699 247.784275 
L 178.433593 247.784275 
z
" style="fill:#1f77b4;"/>
   </g>
   <g id="patch_108">
    <path clip-path="url(#p21b6e12acf)" d="M 179.699976 288.430125 
L 180.713082 288.430125 
L 180.713082 247.832056 
L 179.699976 247.832056 
z
" style="fill:#1f77b4;"/>
   </g>
   <g id="patch_109">
    <path clip-path="url(#p21b6e12acf)" d="M 180.966359 288.430125 
L 181.979465 288.430125 
L 181.979465 247.863848 
L 180.966359 247.863848 
z
" style="fill:#1f77b4;"/>
   </g>
   <g id="patch_110">
    <path clip-path="url(#p21b6e12acf)" d="M 182.232742 288.430125 
L 183.245848 288.430125 
L 183.245848 247.879725 
L 182.232742 247.879725 
z
" style="fill:#1f77b4;"/>
   </g>
   <g id="patch_111">
    <path clip-path="url(#p21b6e12acf)" d="M 183.499125 288.430125 
L 184.512231 288.430125 
L 184.512231 247.927282 
L 183.499125 247.927282 
z
" style="fill:#1f77b4;"/>
   </g>
   <g id="patch_112">
    <path clip-path="url(#p21b6e12acf)" d="M 184.765508 288.430125 
L 185.778614 288.430125 
L 185.778614 247.927282 
L 184.765508 247.927282 
z
" style="fill:#1f77b4;"/>
   </g>
   <g id="patch_113">
    <path clip-path="url(#p21b6e12acf)" d="M 186.031891 288.430125 
L 187.044997 288.430125 
L 187.044997 247.94311 
L 186.031891 247.94311 
z
" style="fill:#1f77b4;"/>
   </g>
   <g id="patch_114">
    <path clip-path="url(#p21b6e12acf)" d="M 187.298274 288.430125 
L 188.31138 288.430125 
L 188.31138 247.958925 
L 187.298274 247.958925 
z
" style="fill:#1f77b4;"/>
   </g>
   <g id="patch_115">
    <path clip-path="url(#p21b6e12acf)" d="M 188.564657 288.430125 
L 189.577763 288.430125 
L 189.577763 247.990518 
L 188.564657 247.990518 
z
" style="fill:#1f77b4;"/>
   </g>
   <g id="patch_116">
    <path clip-path="url(#p21b6e12acf)" d="M 189.83104 288.430125 
L 190.844146 288.430125 
L 190.844146 248.022063 
L 189.83104 248.022063 
z
" style="fill:#1f77b4;"/>
   </g>
   <g id="patch_117">
    <path clip-path="url(#p21b6e12acf)" d="M 191.097423 288.430125 
L 192.110529 288.430125 
L 192.110529 248.037816 
L 191.097423 248.037816 
z
" style="fill:#1f77b4;"/>
   </g>
   <g id="patch_118">
    <path clip-path="url(#p21b6e12acf)" d="M 192.363806 288.430125 
L 193.376912 288.430125 
L 193.376912 248.069287 
L 192.363806 248.069287 
z
" style="fill:#1f77b4;"/>
   </g>
   <g id="patch_119">
    <path clip-path="url(#p21b6e12acf)" d="M 193.630189 288.430125 
L 194.643295 288.430125 
L 194.643295 248.100708 
L 193.630189 248.100708 
z
" style="fill:#1f77b4;"/>
   </g>
   <g id="patch_120">
    <path clip-path="url(#p21b6e12acf)" d="M 194.896572 288.430125 
L 195.909678 288.430125 
L 195.909678 248.147749 
L 194.896572 248.147749 
z
" style="fill:#1f77b4;"/>
   </g>
   <g id="patch_121">
    <path clip-path="url(#p21b6e12acf)" d="M 196.162955 288.430125 
L 197.176061 288.430125 
L 197.176061 248.257084 
L 196.162955 248.257084 
z
" style="fill:#1f77b4;"/>
   </g>
   <g id="patch_122">
    <path clip-path="url(#p21b6e12acf)" d="M 197.429338 288.430125 
L 198.442444 288.430125 
L 198.442444 248.241501 
L 197.429338 248.241501 
z
" style="fill:#1f77b4;"/>
   </g>
   <g id="patch_123">
    <path clip-path="url(#p21b6e12acf)" d="M 198.695721 288.430125 
L 199.708827 288.430125 
L 199.708827 248.241501 
L 198.695721 248.241501 
z
" style="fill:#1f77b4;"/>
   </g>
   <g id="patch_124">
    <path clip-path="url(#p21b6e12acf)" d="M 199.962104 288.430125 
L 200.97521 288.430125 
L 200.97521 248.257084 
L 199.962104 248.257084 
z
" style="fill:#1f77b4;"/>
   </g>
   <g id="patch_125">
    <path clip-path="url(#p21b6e12acf)" d="M 201.228487 288.430125 
L 202.241593 288.430125 
L 202.241593 248.272655 
L 201.228487 248.272655 
z
" style="fill:#1f77b4;"/>
   </g>
   <g id="patch_126">
    <path clip-path="url(#p21b6e12acf)" d="M 202.49487 288.430125 
L 203.507976 288.430125 
L 203.507976 248.241501 
L 202.49487 248.241501 
z
" style="fill:#1f77b4;"/>
   </g>
   <g id="patch_127">
    <path clip-path="url(#p21b6e12acf)" d="M 203.761253 288.430125 
L 204.774359 288.430125 
L 204.774359 248.288214 
L 203.761253 248.288214 
z
" style="fill:#1f77b4;"/>
   </g>
   <g id="patch_128">
    <path clip-path="url(#p21b6e12acf)" d="M 205.027636 288.430125 
L 206.040742 288.430125 
L 206.040742 248.303761 
L 205.027636 248.303761 
z
" style="fill:#1f77b4;"/>
   </g>
   <g id="patch_129">
    <path clip-path="url(#p21b6e12acf)" d="M 206.294019 288.430125 
L 207.307125 288.430125 
L 207.307125 248.319296 
L 206.294019 248.319296 
z
" style="fill:#1f77b4;"/>
   </g>
   <g id="patch_130">
    <path clip-path="url(#p21b6e12acf)" d="M 207.560402 288.430125 
L 208.573508 288.430125 
L 208.573508 248.334818 
L 207.560402 248.334818 
z
" style="fill:#1f77b4;"/>
   </g>
   <g id="patch_131">
    <path clip-path="url(#p21b6e12acf)" d="M 208.826785 288.430125 
L 209.839891 288.430125 
L 209.839891 248.365828 
L 208.826785 248.365828 
z
" style="fill:#1f77b4;"/>
   </g>
   <g id="patch_132">
    <path clip-path="url(#p21b6e12acf)" d="M 210.093168 288.430125 
L 211.106274 288.430125 
L 211.106274 248.412252 
L 210.093168 248.412252 
z
" style="fill:#1f77b4;"/>
   </g>
   <g id="patch_133">
    <path clip-path="url(#p21b6e12acf)" d="M 211.359551 288.430125 
L 212.372657 288.430125 
L 212.372657 248.535527 
L 211.359551 248.535527 
z
" style="fill:#1f77b4;"/>
   </g>
   <g id="patch_134">
    <path clip-path="url(#p21b6e12acf)" d="M 212.625934 288.430125 
L 213.63904 288.430125 
L 213.63904 248.64277 
L 212.625934 248.64277 
z
" style="fill:#1f77b4;"/>
   </g>
   <g id="patch_135">
    <path clip-path="url(#p21b6e12acf)" d="M 213.892316 288.430125 
L 214.905423 288.430125 
L 214.905423 248.673305 
L 213.892316 248.673305 
z
" style="fill:#1f77b4;"/>
   </g>
   <g id="patch_136">
    <path clip-path="url(#p21b6e12acf)" d="M 215.158699 288.430125 
L 216.171806 288.430125 
L 216.171806 248.673305 
L 215.158699 248.673305 
z
" style="fill:#1f77b4;"/>
   </g>
   <g id="patch_137">
    <path clip-path="url(#p21b6e12acf)" d="M 216.425082 288.430125 
L 217.438189 288.430125 
L 217.438189 248.673305 
L 216.425082 248.673305 
z
" style="fill:#1f77b4;"/>
   </g>
   <g id="patch_138">
    <path clip-path="url(#p21b6e12acf)" d="M 217.691465 288.430125 
L 218.704572 288.430125 
L 218.704572 248.688555 
L 217.691465 248.688555 
z
" style="fill:#1f77b4;"/>
   </g>
   <g id="patch_139">
    <path clip-path="url(#p21b6e12acf)" d="M 218.957848 288.430125 
L 219.970955 288.430125 
L 219.970955 248.734235 
L 218.957848 248.734235 
z
" style="fill:#1f77b4;"/>
   </g>
   <g id="patch_140">
    <path clip-path="url(#p21b6e12acf)" d="M 220.224231 288.430125 
L 221.237338 288.430125 
L 221.237338 248.734235 
L 220.224231 248.734235 
z
" style="fill:#1f77b4;"/>
   </g>
   <g id="patch_141">
    <path clip-path="url(#p21b6e12acf)" d="M 221.490614 288.430125 
L 222.503721 288.430125 
L 222.503721 248.810136 
L 221.490614 248.810136 
z
" style="fill:#1f77b4;"/>
   </g>
   <g id="patch_142">
    <path clip-path="url(#p21b6e12acf)" d="M 222.756997 288.430125 
L 223.770104 288.430125 
L 223.770104 248.855537 
L 222.756997 248.855537 
z
" style="fill:#1f77b4;"/>
   </g>
   <g id="patch_143">
    <path clip-path="url(#p21b6e12acf)" d="M 224.02338 288.430125 
L 225.036487 288.430125 
L 225.036487 248.900834 
L 224.02338 248.900834 
z
" style="fill:#1f77b4;"/>
   </g>
   <g id="patch_144">
    <path clip-path="url(#p21b6e12acf)" d="M 225.289763 288.430125 
L 226.30287 288.430125 
L 226.30287 248.91591 
L 225.289763 248.91591 
z
" style="fill:#1f77b4;"/>
   </g>
   <g id="patch_145">
    <path clip-path="url(#p21b6e12acf)" d="M 226.556146 288.430125 
L 227.569253 288.430125 
L 227.569253 248.91591 
L 226.556146 248.91591 
z
" style="fill:#1f77b4;"/>
   </g>
   <g id="patch_146">
    <path clip-path="url(#p21b6e12acf)" d="M 227.822529 288.430125 
L 228.835636 288.430125 
L 228.835636 249.021121 
L 227.822529 249.021121 
z
" style="fill:#1f77b4;"/>
   </g>
   <g id="patch_147">
    <path clip-path="url(#p21b6e12acf)" d="M 229.088912 288.430125 
L 230.102019 288.430125 
L 230.102019 249.08099 
L 229.088912 249.08099 
z
" style="fill:#1f77b4;"/>
   </g>
   <g id="patch_148">
    <path clip-path="url(#p21b6e12acf)" d="M 230.355295 288.430125 
L 231.368402 288.430125 
L 231.368402 249.08099 
L 230.355295 249.08099 
z
" style="fill:#1f77b4;"/>
   </g>
   <g id="patch_149">
    <path clip-path="url(#p21b6e12acf)" d="M 231.621678 288.430125 
L 232.634785 288.430125 
L 232.634785 249.229871 
L 231.621678 249.229871 
z
" style="fill:#1f77b4;"/>
   </g>
   <g id="patch_150">
    <path clip-path="url(#p21b6e12acf)" d="M 232.888061 288.430125 
L 233.901168 288.430125 
L 233.901168 249.259512 
L 232.888061 249.259512 
z
" style="fill:#1f77b4;"/>
   </g>
   <g id="patch_151">
    <path clip-path="url(#p21b6e12acf)" d="M 234.154444 288.430125 
L 235.167551 288.430125 
L 235.167551 249.274315 
L 234.154444 249.274315 
z
" style="fill:#1f77b4;"/>
   </g>
   <g id="patch_152">
    <path clip-path="url(#p21b6e12acf)" d="M 235.420827 288.430125 
L 236.433934 288.430125 
L 236.433934 249.289108 
L 235.420827 249.289108 
z
" style="fill:#1f77b4;"/>
   </g>
   <g id="patch_153">
    <path clip-path="url(#p21b6e12acf)" d="M 236.68721 288.430125 
L 237.700316 288.430125 
L 237.700316 249.31866 
L 236.68721 249.31866 
z
" style="fill:#1f77b4;"/>
   </g>
   <g id="patch_154">
    <path clip-path="url(#p21b6e12acf)" d="M 237.953593 288.430125 
L 238.966699 288.430125 
L 238.966699 249.46575 
L 237.953593 249.46575 
z
" style="fill:#1f77b4;"/>
   </g>
   <g id="patch_155">
    <path clip-path="url(#p21b6e12acf)" d="M 239.219976 288.430125 
L 240.233082 288.430125 
L 240.233082 249.495036 
L 239.219976 249.495036 
z
" style="fill:#1f77b4;"/>
   </g>
   <g id="patch_156">
    <path clip-path="url(#p21b6e12acf)" d="M 240.486359 288.430125 
L 241.499465 288.430125 
L 241.499465 249.582629 
L 240.486359 249.582629 
z
" style="fill:#1f77b4;"/>
   </g>
   <g id="patch_157">
    <path clip-path="url(#p21b6e12acf)" d="M 241.752742 288.430125 
L 242.765848 288.430125 
L 242.765848 249.669829 
L 241.752742 249.669829 
z
" style="fill:#1f77b4;"/>
   </g>
   <g id="patch_158">
    <path clip-path="url(#p21b6e12acf)" d="M 243.019125 288.430125 
L 244.032231 288.430125 
L 244.032231 249.727745 
L 243.019125 249.727745 
z
" style="fill:#1f77b4;"/>
   </g>
   <g id="patch_159">
    <path clip-path="url(#p21b6e12acf)" d="M 244.285508 288.430125 
L 245.298614 288.430125 
L 245.298614 249.727745 
L 244.285508 249.727745 
z
" style="fill:#1f77b4;"/>
   </g>
   <g id="patch_160">
    <path clip-path="url(#p21b6e12acf)" d="M 245.551891 288.430125 
L 246.564997 288.430125 
L 246.564997 249.900459 
L 245.551891 249.900459 
z
" style="fill:#1f77b4;"/>
   </g>
   <g id="patch_161">
    <path clip-path="url(#p21b6e12acf)" d="M 246.818274 288.430125 
L 247.83138 288.430125 
L 247.83138 249.957688 
L 246.818274 249.957688 
z
" style="fill:#1f77b4;"/>
   </g>
   <g id="patch_162">
    <path clip-path="url(#p21b6e12acf)" d="M 248.084657 288.430125 
L 249.097763 288.430125 
L 249.097763 250.000499 
L 248.084657 250.000499 
z
" style="fill:#1f77b4;"/>
   </g>
   <g id="patch_163">
    <path clip-path="url(#p21b6e12acf)" d="M 249.35104 288.430125 
L 250.364146 288.430125 
L 250.364146 250.213131 
L 249.35104 250.213131 
z
" style="fill:#1f77b4;"/>
   </g>
   <g id="patch_164">
    <path clip-path="url(#p21b6e12acf)" d="M 250.617423 288.430125 
L 251.630529 288.430125 
L 251.630529 250.227222 
L 250.617423 250.227222 
z
" style="fill:#1f77b4;"/>
   </g>
   <g id="patch_165">
    <path clip-path="url(#p21b6e12acf)" d="M 251.883806 288.430125 
L 252.896912 288.430125 
L 252.896912 250.227222 
L 251.883806 250.227222 
z
" style="fill:#1f77b4;"/>
   </g>
   <g id="patch_166">
    <path clip-path="url(#p21b6e12acf)" d="M 253.150189 288.430125 
L 254.163295 288.430125 
L 254.163295 250.516846 
L 253.150189 250.516846 
z
" style="fill:#1f77b4;"/>
   </g>
   <g id="patch_167">
    <path clip-path="url(#p21b6e12acf)" d="M 254.416572 288.430125 
L 255.429678 288.430125 
L 255.429678 250.339584 
L 254.416572 250.339584 
z
" style="fill:#1f77b4;"/>
   </g>
   <g id="patch_168">
    <path clip-path="url(#p21b6e12acf)" d="M 255.682955 288.430125 
L 256.696061 288.430125 
L 256.696061 250.367571 
L 255.682955 250.367571 
z
" style="fill:#1f77b4;"/>
   </g>
   <g id="patch_169">
    <path clip-path="url(#p21b6e12acf)" d="M 256.949338 288.430125 
L 257.962444 288.430125 
L 257.962444 250.423422 
L 256.949338 250.423422 
z
" style="fill:#1f77b4;"/>
   </g>
   <g id="patch_170">
    <path clip-path="url(#p21b6e12acf)" d="M 258.215721 288.430125 
L 259.228827 288.430125 
L 259.228827 250.534634 
L 258.215721 250.534634 
z
" style="fill:#1f77b4;"/>
   </g>
   <g id="patch_171">
    <path clip-path="url(#p21b6e12acf)" d="M 259.482104 288.430125 
L 260.49521 288.430125 
L 260.49521 250.645197 
L 259.482104 250.645197 
z
" style="fill:#1f77b4;"/>
   </g>
   <g id="patch_172">
    <path clip-path="url(#p21b6e12acf)" d="M 260.748487 288.430125 
L 261.761593 288.430125 
L 261.761593 250.686492 
L 260.748487 250.686492 
z
" style="fill:#1f77b4;"/>
   </g>
   <g id="patch_173">
    <path clip-path="url(#p21b6e12acf)" d="M 262.01487 288.430125 
L 263.027976 288.430125 
L 263.027976 250.713972 
L 262.01487 250.713972 
z
" style="fill:#1f77b4;"/>
   </g>
   <g id="patch_174">
    <path clip-path="url(#p21b6e12acf)" d="M 263.281253 288.430125 
L 264.294359 288.430125 
L 264.294359 250.782497 
L 263.281253 250.782497 
z
" style="fill:#1f77b4;"/>
   </g>
   <g id="patch_175">
    <path clip-path="url(#p21b6e12acf)" d="M 264.547636 288.430125 
L 265.560742 288.430125 
L 265.560742 250.837138 
L 264.547636 250.837138 
z
" style="fill:#1f77b4;"/>
   </g>
   <g id="patch_176">
    <path clip-path="url(#p21b6e12acf)" d="M 265.814019 288.430125 
L 266.827125 288.430125 
L 266.827125 250.945946 
L 265.814019 250.945946 
z
" style="fill:#1f77b4;"/>
   </g>
   <g id="patch_177">
    <path clip-path="url(#p21b6e12acf)" d="M 267.080402 288.430125 
L 268.093508 288.430125 
L 268.093508 251.134851 
L 267.080402 251.134851 
z
" style="fill:#1f77b4;"/>
   </g>
   <g id="patch_178">
    <path clip-path="url(#p21b6e12acf)" d="M 268.346785 288.430125 
L 269.359891 288.430125 
L 269.359891 251.228591 
L 268.346785 251.228591 
z
" style="fill:#1f77b4;"/>
   </g>
   <g id="patch_179">
    <path clip-path="url(#p21b6e12acf)" d="M 269.613168 288.430125 
L 270.626274 288.430125 
L 270.626274 251.268621 
L 269.613168 251.268621 
z
" style="fill:#1f77b4;"/>
   </g>
   <g id="patch_180">
    <path clip-path="url(#p21b6e12acf)" d="M 270.879551 288.430125 
L 271.892657 288.430125 
L 271.892657 251.281946 
L 270.879551 251.281946 
z
" style="fill:#1f77b4;"/>
   </g>
   <g id="patch_181">
    <path clip-path="url(#p21b6e12acf)" d="M 272.145934 288.430125 
L 273.15904 288.430125 
L 273.15904 251.348424 
L 272.145934 251.348424 
z
" style="fill:#1f77b4;"/>
   </g>
   <g id="patch_182">
    <path clip-path="url(#p21b6e12acf)" d="M 273.412316 288.430125 
L 274.425423 288.430125 
L 274.425423 251.401436 
L 273.412316 251.401436 
z
" style="fill:#1f77b4;"/>
   </g>
   <g id="patch_183">
    <path clip-path="url(#p21b6e12acf)" d="M 274.678699 288.430125 
L 275.691806 288.430125 
L 275.691806 251.533304 
L 274.678699 251.533304 
z
" style="fill:#1f77b4;"/>
   </g>
   <g id="patch_184">
    <path clip-path="url(#p21b6e12acf)" d="M 275.945082 288.430125 
L 276.958189 288.430125 
L 276.958189 251.71635 
L 275.945082 251.71635 
z
" style="fill:#1f77b4;"/>
   </g>
   <g id="patch_185">
    <path clip-path="url(#p21b6e12acf)" d="M 277.211465 288.430125 
L 278.224572 288.430125 
L 278.224572 251.845989 
L 277.211465 251.845989 
z
" style="fill:#1f77b4;"/>
   </g>
   <g id="patch_186">
    <path clip-path="url(#p21b6e12acf)" d="M 278.477848 288.430125 
L 279.490955 288.430125 
L 279.490955 251.845989 
L 278.477848 251.845989 
z
" style="fill:#1f77b4;"/>
   </g>
   <g id="patch_187">
    <path clip-path="url(#p21b6e12acf)" d="M 279.744231 288.430125 
L 280.757338 288.430125 
L 280.757338 251.897589 
L 279.744231 251.897589 
z
" style="fill:#1f77b4;"/>
   </g>
   <g id="patch_188">
    <path clip-path="url(#p21b6e12acf)" d="M 281.010614 288.430125 
L 282.023721 288.430125 
L 282.023721 252.013158 
L 281.010614 252.013158 
z
" style="fill:#1f77b4;"/>
   </g>
   <g id="patch_189">
    <path clip-path="url(#p21b6e12acf)" d="M 282.276997 288.430125 
L 283.290104 288.430125 
L 283.290104 252.166117 
L 282.276997 252.166117 
z
" style="fill:#1f77b4;"/>
   </g>
   <g id="patch_190">
    <path clip-path="url(#p21b6e12acf)" d="M 283.54338 288.430125 
L 284.556487 288.430125 
L 284.556487 252.330379 
L 283.54338 252.330379 
z
" style="fill:#1f77b4;"/>
   </g>
   <g id="patch_191">
    <path clip-path="url(#p21b6e12acf)" d="M 284.809763 288.430125 
L 285.82287 288.430125 
L 285.82287 252.405691 
L 284.809763 252.405691 
z
" style="fill:#1f77b4;"/>
   </g>
   <g id="patch_192">
    <path clip-path="url(#p21b6e12acf)" d="M 286.076146 288.430125 
L 287.089253 288.430125 
L 287.089253 252.44323 
L 286.076146 252.44323 
z
" style="fill:#1f77b4;"/>
   </g>
   <g id="patch_193">
    <path clip-path="url(#p21b6e12acf)" d="M 287.342529 288.430125 
L 288.355636 288.430125 
L 288.355636 252.468212 
L 287.342529 252.468212 
z
" style="fill:#1f77b4;"/>
   </g>
   <g id="patch_194">
    <path clip-path="url(#p21b6e12acf)" d="M 288.608912 288.430125 
L 289.622019 288.430125 
L 289.622019 252.468212 
L 288.608912 252.468212 
z
" style="fill:#1f77b4;"/>
   </g>
   <g id="patch_195">
    <path clip-path="url(#p21b6e12acf)" d="M 289.875295 288.430125 
L 290.888402 288.430125 
L 290.888402 252.580204 
L 289.875295 252.580204 
z
" style="fill:#1f77b4;"/>
   </g>
   <g id="patch_196">
    <path clip-path="url(#p21b6e12acf)" d="M 291.141678 288.430125 
L 292.154785 288.430125 
L 292.154785 252.716139 
L 291.141678 252.716139 
z
" style="fill:#1f77b4;"/>
   </g>
   <g id="patch_197">
    <path clip-path="url(#p21b6e12acf)" d="M 292.408061 288.430125 
L 293.421168 288.430125 
L 293.421168 252.997063 
L 292.408061 252.997063 
z
" style="fill:#1f77b4;"/>
   </g>
   <g id="patch_198">
    <path clip-path="url(#p21b6e12acf)" d="M 293.674444 288.430125 
L 294.687551 288.430125 
L 294.687551 253.03338 
L 293.674444 253.03338 
z
" style="fill:#1f77b4;"/>
   </g>
   <g id="patch_199">
    <path clip-path="url(#p21b6e12acf)" d="M 294.940827 288.430125 
L 295.953934 288.430125 
L 295.953934 253.213853 
L 294.940827 253.213853 
z
" style="fill:#1f77b4;"/>
   </g>
   <g id="patch_200">
    <path clip-path="url(#p21b6e12acf)" d="M 296.20721 288.430125 
L 297.220316 288.430125 
L 297.220316 253.356912 
L 296.20721 253.356912 
z
" style="fill:#1f77b4;"/>
   </g>
   <g id="patch_201">
    <path clip-path="url(#p21b6e12acf)" d="M 297.473593 288.430125 
L 298.486699 288.430125 
L 298.486699 253.380642 
L 297.473593 253.380642 
z
" style="fill:#1f77b4;"/>
   </g>
   <g id="patch_202">
    <path clip-path="url(#p21b6e12acf)" d="M 298.739976 288.430125 
L 299.753082 288.430125 
L 299.753082 253.63957 
L 298.739976 253.63957 
z
" style="fill:#1f77b4;"/>
   </g>
   <g id="patch_203">
    <path clip-path="url(#p21b6e12acf)" d="M 300.006359 288.430125 
L 301.019465 288.430125 
L 301.019465 253.73278 
L 300.006359 253.73278 
z
" style="fill:#1f77b4;"/>
   </g>
   <g id="patch_204">
    <path clip-path="url(#p21b6e12acf)" d="M 301.272742 288.430125 
L 302.285848 288.430125 
L 302.285848 253.917709 
L 301.272742 253.917709 
z
" style="fill:#1f77b4;"/>
   </g>
   <g id="patch_205">
    <path clip-path="url(#p21b6e12acf)" d="M 302.539125 288.430125 
L 303.552231 288.430125 
L 303.552231 253.997997 
L 302.539125 253.997997 
z
" style="fill:#1f77b4;"/>
   </g>
   <g id="patch_206">
    <path clip-path="url(#p21b6e12acf)" d="M 303.805508 288.430125 
L 304.818614 288.430125 
L 304.818614 254.225347 
L 303.805508 254.225347 
z
" style="fill:#1f77b4;"/>
   </g>
   <g id="patch_207">
    <path clip-path="url(#p21b6e12acf)" d="M 305.071891 288.430125 
L 306.084997 288.430125 
L 306.084997 254.292968 
L 305.071891 254.292968 
z
" style="fill:#1f77b4;"/>
   </g>
   <g id="patch_208">
    <path clip-path="url(#p21b6e12acf)" d="M 306.338274 288.430125 
L 307.35138 288.430125 
L 307.35138 254.449714 
L 306.338274 254.449714 
z
" style="fill:#1f77b4;"/>
   </g>
   <g id="patch_209">
    <path clip-path="url(#p21b6e12acf)" d="M 307.604657 288.430125 
L 308.617763 288.430125 
L 308.617763 254.649143 
L 307.604657 254.649143 
z
" style="fill:#1f77b4;"/>
   </g>
   <g id="patch_210">
    <path clip-path="url(#p21b6e12acf)" d="M 308.87104 288.430125 
L 309.884146 288.430125 
L 309.884146 254.758928 
L 308.87104 254.758928 
z
" style="fill:#1f77b4;"/>
   </g>
   <g id="patch_211">
    <path clip-path="url(#p21b6e12acf)" d="M 310.137423 288.430125 
L 311.150529 288.430125 
L 311.150529 254.911435 
L 310.137423 254.911435 
z
" style="fill:#1f77b4;"/>
   </g>
   <g id="patch_212">
    <path clip-path="url(#p21b6e12acf)" d="M 311.403806 288.430125 
L 312.416912 288.430125 
L 312.416912 255.084045 
L 311.403806 255.084045 
z
" style="fill:#1f77b4;"/>
   </g>
   <g id="patch_213">
    <path clip-path="url(#p21b6e12acf)" d="M 312.670189 288.430125 
L 313.683295 288.430125 
L 313.683295 255.151928 
L 312.670189 255.151928 
z
" style="fill:#1f77b4;"/>
   </g>
   <g id="patch_214">
    <path clip-path="url(#p21b6e12acf)" d="M 313.936572 288.430125 
L 314.949678 288.430125 
L 314.949678 255.279268 
L 313.936572 255.279268 
z
" style="fill:#1f77b4;"/>
   </g>
   <g id="patch_215">
    <path clip-path="url(#p21b6e12acf)" d="M 315.202955 288.430125 
L 316.216061 288.430125 
L 316.216061 255.416124 
L 315.202955 255.416124 
z
" style="fill:#1f77b4;"/>
   </g>
   <g id="patch_216">
    <path clip-path="url(#p21b6e12acf)" d="M 316.469338 288.430125 
L 317.482444 288.430125 
L 317.482444 255.416124 
L 316.469338 255.416124 
z
" style="fill:#1f77b4;"/>
   </g>
   <g id="patch_217">
    <path clip-path="url(#p21b6e12acf)" d="M 317.735721 288.430125 
L 318.748827 288.430125 
L 318.748827 255.655507 
L 317.735721 255.655507 
z
" style="fill:#1f77b4;"/>
   </g>
   <g id="patch_218">
    <path clip-path="url(#p21b6e12acf)" d="M 319.002104 288.430125 
L 320.01521 288.430125 
L 320.01521 255.840442 
L 319.002104 255.840442 
z
" style="fill:#1f77b4;"/>
   </g>
   <g id="patch_219">
    <path clip-path="url(#p21b6e12acf)" d="M 320.268487 288.430125 
L 321.281593 288.430125 
L 321.281593 255.982844 
L 320.268487 255.982844 
z
" style="fill:#1f77b4;"/>
   </g>
   <g id="patch_220">
    <path clip-path="url(#p21b6e12acf)" d="M 321.53487 288.430125 
L 322.547976 288.430125 
L 322.547976 256.063659 
L 321.53487 256.063659 
z
" style="fill:#1f77b4;"/>
   </g>
   <g id="patch_221">
    <path clip-path="url(#p21b6e12acf)" d="M 322.801253 288.430125 
L 323.814359 288.430125 
L 323.814359 255.973403 
L 322.801253 255.973403 
z
" style="fill:#1f77b4;"/>
   </g>
   <g id="patch_222">
    <path clip-path="url(#p21b6e12acf)" d="M 324.067636 288.430125 
L 325.080742 288.430125 
L 325.080742 256.013747 
L 324.067636 256.013747 
z
" style="fill:#1f77b4;"/>
   </g>
   <g id="patch_223">
    <path clip-path="url(#p21b6e12acf)" d="M 325.334019 288.430125 
L 326.347125 288.430125 
L 326.347125 255.833745 
L 325.334019 255.833745 
z
" style="fill:#1f77b4;"/>
   </g>
   <g id="patch_224">
    <path clip-path="url(#p21b6e12acf)" d="M 326.600402 288.430125 
L 327.613508 288.430125 
L 327.613508 255.924543 
L 326.600402 255.924543 
z
" style="fill:#1f77b4;"/>
   </g>
   <g id="patch_225">
    <path clip-path="url(#p21b6e12acf)" d="M 327.866785 288.430125 
L 328.879891 288.430125 
L 328.879891 255.974768 
L 327.866785 255.974768 
z
" style="fill:#1f77b4;"/>
   </g>
   <g id="patch_226">
    <path clip-path="url(#p21b6e12acf)" d="M 329.133168 288.430125 
L 330.146274 288.430125 
L 330.146274 256.004828 
L 329.133168 256.004828 
z
" style="fill:#1f77b4;"/>
   </g>
   <g id="patch_227">
    <path clip-path="url(#p21b6e12acf)" d="M 330.399551 288.430125 
L 331.412657 288.430125 
L 331.412657 256.084718 
L 330.399551 256.084718 
z
" style="fill:#1f77b4;"/>
   </g>
   <g id="patch_228">
    <path clip-path="url(#p21b6e12acf)" d="M 331.665934 288.430125 
L 332.67904 288.430125 
L 332.67904 255.82718 
L 331.665934 255.82718 
z
" style="fill:#1f77b4;"/>
   </g>
   <g id="patch_229">
    <path clip-path="url(#p21b6e12acf)" d="M 332.932316 288.430125 
L 333.945423 288.430125 
L 333.945423 255.768327 
L 332.932316 255.768327 
z
" style="fill:#1f77b4;"/>
   </g>
   <g id="patch_230">
    <path clip-path="url(#p21b6e12acf)" d="M 334.198699 288.430125 
L 335.211806 288.430125 
L 335.211806 255.403773 
L 334.198699 255.403773 
z
" style="fill:#1f77b4;"/>
   </g>
   <g id="patch_231">
    <path clip-path="url(#p21b6e12acf)" d="M 335.465082 288.430125 
L 336.478189 288.430125 
L 336.478189 255.20684 
L 335.465082 255.20684 
z
" style="fill:#1f77b4;"/>
   </g>
   <g id="patch_232">
    <path clip-path="url(#p21b6e12acf)" d="M 336.731465 288.430125 
L 337.744572 288.430125 
L 337.744572 255.050978 
L 336.731465 255.050978 
z
" style="fill:#1f77b4;"/>
   </g>
   <g id="patch_233">
    <path clip-path="url(#p21b6e12acf)" d="M 337.997848 288.430125 
L 339.010955 288.430125 
L 339.010955 254.699902 
L 337.997848 254.699902 
z
" style="fill:#1f77b4;"/>
   </g>
   <g id="patch_234">
    <path clip-path="url(#p21b6e12acf)" d="M 339.264231 288.430125 
L 340.277338 288.430125 
L 340.277338 254.406673 
L 339.264231 254.406673 
z
" style="fill:#1f77b4;"/>
   </g>
   <g id="patch_235">
    <path clip-path="url(#p21b6e12acf)" d="M 340.530614 288.430125 
L 341.543721 288.430125 
L 341.543721 254.058335 
L 340.530614 254.058335 
z
" style="fill:#1f77b4;"/>
   </g>
   <g id="patch_236">
    <path clip-path="url(#p21b6e12acf)" d="M 341.796997 288.430125 
L 342.810104 288.430125 
L 342.810104 253.98197 
L 341.796997 253.98197 
z
" style="fill:#1f77b4;"/>
   </g>
   <g id="patch_237">
    <path clip-path="url(#p21b6e12acf)" d="M 343.06338 288.430125 
L 344.076487 288.430125 
L 344.076487 253.819173 
L 343.06338 253.819173 
z
" style="fill:#1f77b4;"/>
   </g>
   <g id="patch_238">
    <path clip-path="url(#p21b6e12acf)" d="M 344.329763 288.430125 
L 345.34287 288.430125 
L 345.34287 253.495055 
L 344.329763 253.495055 
z
" style="fill:#1f77b4;"/>
   </g>
   <g id="patch_239">
    <path clip-path="url(#p21b6e12acf)" d="M 345.596146 288.430125 
L 346.609253 288.430125 
L 346.609253 262.559758 
L 345.596146 262.559758 
z
" style="fill:#1f77b4;"/>
   </g>
   <g id="patch_240">
    <path clip-path="url(#p21b6e12acf)" d="M 346.862529 288.430125 
L 347.875636 288.430125 
L 347.875636 263.851915 
L 346.862529 263.851915 
z
" style="fill:#1f77b4;"/>
   </g>
   <g id="patch_241">
    <path clip-path="url(#p21b6e12acf)" d="M 348.128912 288.430125 
L 349.142019 288.430125 
L 349.142019 264.886195 
L 348.128912 264.886195 
z
" style="fill:#1f77b4;"/>
   </g>
   <g id="patch_242">
    <path clip-path="url(#p21b6e12acf)" d="M 349.395295 288.430125 
L 350.408402 288.430125 
L 350.408402 265.311802 
L 349.395295 265.311802 
z
" style="fill:#1f77b4;"/>
   </g>
   <g id="patch_243">
    <path clip-path="url(#p21b6e12acf)" d="M 350.661678 288.430125 
L 351.674785 288.430125 
L 351.674785 265.521879 
L 350.661678 265.521879 
z
" style="fill:#1f77b4;"/>
   </g>
   <g id="patch_244">
    <path clip-path="url(#p21b6e12acf)" d="M 351.928061 288.430125 
L 352.941168 288.430125 
L 352.941168 265.622794 
L 351.928061 265.622794 
z
" style="fill:#1f77b4;"/>
   </g>
   <g id="patch_245">
    <path clip-path="url(#p21b6e12acf)" d="M 353.194444 288.430125 
L 354.207551 288.430125 
L 354.207551 266.587008 
L 353.194444 266.587008 
z
" style="fill:#1f77b4;"/>
   </g>
   <g id="patch_246">
    <path clip-path="url(#p21b6e12acf)" d="M 354.460827 288.430125 
L 355.473934 288.430125 
L 355.473934 267.265662 
L 354.460827 267.265662 
z
" style="fill:#1f77b4;"/>
   </g>
   <g id="patch_247">
    <path clip-path="url(#p21b6e12acf)" d="M 355.72721 288.430125 
L 356.740316 288.430125 
L 356.740316 268.101287 
L 355.72721 268.101287 
z
" style="fill:#1f77b4;"/>
   </g>
   <g id="patch_248">
    <path clip-path="url(#p21b6e12acf)" d="M 356.993593 288.430125 
L 358.006699 288.430125 
L 358.006699 268.290826 
L 356.993593 268.290826 
z
" style="fill:#1f77b4;"/>
   </g>
   <g id="patch_249">
    <path clip-path="url(#p21b6e12acf)" d="M 358.259976 288.430125 
L 359.273082 288.430125 
L 359.273082 268.685624 
L 358.259976 268.685624 
z
" style="fill:#1f77b4;"/>
   </g>
   <g id="patch_250">
    <path clip-path="url(#p21b6e12acf)" d="M 359.526359 288.430125 
L 360.539465 288.430125 
L 360.539465 268.587652 
L 359.526359 268.587652 
z
" style="fill:#1f77b4;"/>
   </g>
   <g id="patch_251">
    <path clip-path="url(#p21b6e12acf)" d="M 360.792742 288.430125 
L 361.805848 288.430125 
L 361.805848 269.057463 
L 360.792742 269.057463 
z
" style="fill:#1f77b4;"/>
   </g>
   <g id="patch_252">
    <path clip-path="url(#p21b6e12acf)" d="M 362.059125 288.430125 
L 363.072231 288.430125 
L 363.072231 269.42445 
L 362.059125 269.42445 
z
" style="fill:#1f77b4;"/>
   </g>
   <g id="patch_253">
    <path clip-path="url(#p21b6e12acf)" d="M 363.325508 288.430125 
L 364.338614 288.430125 
L 364.338614 270.042031 
L 363.325508 270.042031 
z
" style="fill:#1f77b4;"/>
   </g>
   <g id="patch_254">
    <path clip-path="url(#p21b6e12acf)" d="M 364.591891 288.430125 
L 365.604997 288.430125 
L 365.604997 270.195977 
L 364.591891 270.195977 
z
" style="fill:#1f77b4;"/>
   </g>
   <g id="patch_255">
    <path clip-path="url(#p21b6e12acf)" d="M 365.858274 288.430125 
L 366.87138 288.430125 
L 366.87138 271.052441 
L 365.858274 271.052441 
z
" style="fill:#1f77b4;"/>
   </g>
   <g id="patch_256">
    <path clip-path="url(#p21b6e12acf)" d="M 367.124657 288.430125 
L 368.137763 288.430125 
L 368.137763 271.347059 
L 367.124657 271.347059 
z
" style="fill:#1f77b4;"/>
   </g>
   <g id="patch_257">
    <path clip-path="url(#p21b6e12acf)" d="M 368.39104 288.430125 
L 369.404146 288.430125 
L 369.404146 270.981325 
L 368.39104 270.981325 
z
" style="fill:#1f77b4;"/>
   </g>
   <g id="patch_258">
    <path clip-path="url(#p21b6e12acf)" d="M 369.657423 288.430125 
L 370.670529 288.430125 
L 370.670529 271.375944 
L 369.657423 271.375944 
z
" style="fill:#1f77b4;"/>
   </g>
   <g id="patch_259">
    <path clip-path="url(#p21b6e12acf)" d="M 370.923806 288.430125 
L 371.936912 288.430125 
L 371.936912 271.712422 
L 370.923806 271.712422 
z
" style="fill:#1f77b4;"/>
   </g>
   <g id="patch_260">
    <path clip-path="url(#p21b6e12acf)" d="M 372.190189 288.430125 
L 373.203295 288.430125 
L 373.203295 271.927055 
L 372.190189 271.927055 
z
" style="fill:#1f77b4;"/>
   </g>
   <g id="patch_261">
    <path clip-path="url(#p21b6e12acf)" d="M 373.456572 288.430125 
L 374.469678 288.430125 
L 374.469678 272.431438 
L 373.456572 272.431438 
z
" style="fill:#1f77b4;"/>
   </g>
   <g id="patch_262">
    <path clip-path="url(#p21b6e12acf)" d="M 374.722955 288.430125 
L 375.736061 288.430125 
L 375.736061 273.087669 
L 374.722955 273.087669 
z
" style="fill:#1f77b4;"/>
   </g>
   <g id="patch_263">
    <path clip-path="url(#p21b6e12acf)" d="M 375.989338 288.430125 
L 377.002444 288.430125 
L 377.002444 273.303084 
L 375.989338 273.303084 
z
" style="fill:#1f77b4;"/>
   </g>
   <g id="patch_264">
    <path clip-path="url(#p21b6e12acf)" d="M 377.255721 288.430125 
L 378.268827 288.430125 
L 378.268827 273.332172 
L 377.255721 273.332172 
z
" style="fill:#1f77b4;"/>
   </g>
   <g id="patch_265">
    <path clip-path="url(#p21b6e12acf)" d="M 378.522104 288.430125 
L 379.53521 288.430125 
L 379.53521 273.47482 
L 378.522104 273.47482 
z
" style="fill:#1f77b4;"/>
   </g>
   <g id="patch_266">
    <path clip-path="url(#p21b6e12acf)" d="M 379.788487 288.430125 
L 380.801593 288.430125 
L 380.801593 273.59628 
L 379.788487 273.59628 
z
" style="fill:#1f77b4;"/>
   </g>
   <g id="patch_267">
    <path clip-path="url(#p21b6e12acf)" d="M 381.05487 288.430125 
L 382.067976 288.430125 
L 382.067976 273.651536 
L 381.05487 273.651536 
z
" style="fill:#1f77b4;"/>
   </g>
   <g id="patch_268">
    <path clip-path="url(#p21b6e12acf)" d="M 382.321253 288.430125 
L 383.334359 288.430125 
L 383.334359 273.934392 
L 382.321253 273.934392 
z
" style="fill:#1f77b4;"/>
   </g>
   <g id="patch_269">
    <path clip-path="url(#p21b6e12acf)" d="M 383.587636 288.430125 
L 384.600742 288.430125 
L 384.600742 274.227656 
L 383.587636 274.227656 
z
" style="fill:#1f77b4;"/>
   </g>
   <g id="patch_270">
    <path clip-path="url(#p21b6e12acf)" d="M 384.854019 288.430125 
L 385.867125 288.430125 
L 385.867125 274.221888 
L 384.854019 274.221888 
z
" style="fill:#1f77b4;"/>
   </g>
   <g id="patch_271">
    <path clip-path="url(#p21b6e12acf)" d="M 386.120402 288.430125 
L 387.133508 288.430125 
L 387.133508 274.065301 
L 386.120402 274.065301 
z
" style="fill:#1f77b4;"/>
   </g>
   <g id="patch_272">
    <path clip-path="url(#p21b6e12acf)" d="M 387.386785 288.430125 
L 388.399891 288.430125 
L 388.399891 274.049875 
L 387.386785 274.049875 
z
" style="fill:#1f77b4;"/>
   </g>
   <g id="patch_273">
    <path clip-path="url(#p21b6e12acf)" d="M 388.653168 288.430125 
L 389.666274 288.430125 
L 389.666274 274.246755 
L 388.653168 274.246755 
z
" style="fill:#1f77b4;"/>
   </g>
   <g id="patch_274">
    <path clip-path="url(#p21b6e12acf)" d="M 389.919551 288.430125 
L 390.932657 288.430125 
L 390.932657 274.153048 
L 389.919551 274.153048 
z
" style="fill:#1f77b4;"/>
   </g>
   <g id="patch_275">
    <path clip-path="url(#p21b6e12acf)" d="M 391.185934 288.430125 
L 392.19904 288.430125 
L 392.19904 274.291897 
L 391.185934 274.291897 
z
" style="fill:#1f77b4;"/>
   </g>
   <g id="patch_276">
    <path clip-path="url(#p21b6e12acf)" d="M 392.452316 288.430125 
L 393.465423 288.430125 
L 393.465423 274.443557 
L 392.452316 274.443557 
z
" style="fill:#1f77b4;"/>
   </g>
   <g id="patch_277">
    <path clip-path="url(#p21b6e12acf)" d="M 393.718699 288.430125 
L 394.731806 288.430125 
L 394.731806 274.292549 
L 393.718699 274.292549 
z
" style="fill:#1f77b4;"/>
   </g>
   <g id="patch_278">
    <path clip-path="url(#p21b6e12acf)" d="M 394.985082 288.430125 
L 395.998189 288.430125 
L 395.998189 274.137414 
L 394.985082 274.137414 
z
" style="fill:#1f77b4;"/>
   </g>
   <g id="patch_279">
    <path clip-path="url(#p21b6e12acf)" d="M 396.251465 288.430125 
L 397.264572 288.430125 
L 397.264572 274.127 
L 396.251465 274.127 
z
" style="fill:#1f77b4;"/>
   </g>
   <g id="patch_280">
    <path clip-path="url(#p21b6e12acf)" d="M 397.517848 288.430125 
L 398.530955 288.430125 
L 398.530955 274.216365 
L 397.517848 274.216365 
z
" style="fill:#1f77b4;"/>
   </g>
   <g id="patch_281">
    <path clip-path="url(#p21b6e12acf)" d="M 398.784231 288.430125 
L 399.797338 288.430125 
L 399.797338 274.206482 
L 398.784231 274.206482 
z
" style="fill:#1f77b4;"/>
   </g>
   <g id="patch_282">
    <path clip-path="url(#p21b6e12acf)" d="M 400.050614 288.430125 
L 401.063721 288.430125 
L 401.063721 274.146837 
L 400.050614 274.146837 
z
" style="fill:#1f77b4;"/>
   </g>
   <g id="patch_283">
    <path clip-path="url(#p21b6e12acf)" d="M 401.316997 288.430125 
L 402.330104 288.430125 
L 402.330104 275.360349 
L 401.316997 275.360349 
z
" style="fill:#1f77b4;"/>
   </g>
   <g id="patch_284">
    <path clip-path="url(#p21b6e12acf)" d="M 402.58338 288.430125 
L 403.596487 288.430125 
L 403.596487 275.382369 
L 402.58338 275.382369 
z
" style="fill:#1f77b4;"/>
   </g>
   <g id="matplotlib.axis_1">
    <g id="xtick_1">
     <g id="line2d_1">
      <defs>
       <path d="M 0 0 
L 0 3.5 
" id="m1947be799f" style="stroke:#000000;stroke-width:0.8;"/>
      </defs>
      <g>
       <use style="stroke:#000000;stroke-width:0.8;" x="68.764827" xlink:href="#m1947be799f" y="288.430125"/>
      </g>
     </g>
     <g id="text_1">
      <!-- 2020-04 -->
      <g transform="translate(71.524202 337.212937)rotate(-90)scale(0.1 -0.1)">
       <defs>
        <path d="M 19.1875 8.296875 
L 53.609375 8.296875 
L 53.609375 0 
L 7.328125 0 
L 7.328125 8.296875 
Q 12.9375 14.109375 22.625 23.890625 
Q 32.328125 33.6875 34.8125 36.53125 
Q 39.546875 41.84375 41.421875 45.53125 
Q 43.3125 49.21875 43.3125 52.78125 
Q 43.3125 58.59375 39.234375 62.25 
Q 35.15625 65.921875 28.609375 65.921875 
Q 23.96875 65.921875 18.8125 64.3125 
Q 13.671875 62.703125 7.8125 59.421875 
L 7.8125 69.390625 
Q 13.765625 71.78125 18.9375 73 
Q 24.125 74.21875 28.421875 74.21875 
Q 39.75 74.21875 46.484375 68.546875 
Q 53.21875 62.890625 53.21875 53.421875 
Q 53.21875 48.921875 51.53125 44.890625 
Q 49.859375 40.875 45.40625 35.40625 
Q 44.1875 33.984375 37.640625 27.21875 
Q 31.109375 20.453125 19.1875 8.296875 
z
" id="DejaVuSans-50"/>
        <path d="M 31.78125 66.40625 
Q 24.171875 66.40625 20.328125 58.90625 
Q 16.5 51.421875 16.5 36.375 
Q 16.5 21.390625 20.328125 13.890625 
Q 24.171875 6.390625 31.78125 6.390625 
Q 39.453125 6.390625 43.28125 13.890625 
Q 47.125 21.390625 47.125 36.375 
Q 47.125 51.421875 43.28125 58.90625 
Q 39.453125 66.40625 31.78125 66.40625 
z
M 31.78125 74.21875 
Q 44.046875 74.21875 50.515625 64.515625 
Q 56.984375 54.828125 56.984375 36.375 
Q 56.984375 17.96875 50.515625 8.265625 
Q 44.046875 -1.421875 31.78125 -1.421875 
Q 19.53125 -1.421875 13.0625 8.265625 
Q 6.59375 17.96875 6.59375 36.375 
Q 6.59375 54.828125 13.0625 64.515625 
Q 19.53125 74.21875 31.78125 74.21875 
z
" id="DejaVuSans-48"/>
        <path d="M 4.890625 31.390625 
L 31.203125 31.390625 
L 31.203125 23.390625 
L 4.890625 23.390625 
z
" id="DejaVuSans-45"/>
        <path d="M 37.796875 64.3125 
L 12.890625 25.390625 
L 37.796875 25.390625 
z
M 35.203125 72.90625 
L 47.609375 72.90625 
L 47.609375 25.390625 
L 58.015625 25.390625 
L 58.015625 17.1875 
L 47.609375 17.1875 
L 47.609375 0 
L 37.796875 0 
L 37.796875 17.1875 
L 4.890625 17.1875 
L 4.890625 26.703125 
z
" id="DejaVuSans-52"/>
       </defs>
       <use xlink:href="#DejaVuSans-50"/>
       <use x="63.623047" xlink:href="#DejaVuSans-48"/>
       <use x="127.246094" xlink:href="#DejaVuSans-50"/>
       <use x="190.869141" xlink:href="#DejaVuSans-48"/>
       <use x="254.492188" xlink:href="#DejaVuSans-45"/>
       <use x="290.576172" xlink:href="#DejaVuSans-48"/>
       <use x="354.199219" xlink:href="#DejaVuSans-52"/>
      </g>
     </g>
    </g>
    <g id="xtick_2">
     <g id="line2d_2">
      <g>
       <use style="stroke:#000000;stroke-width:0.8;" x="106.756316" xlink:href="#m1947be799f" y="288.430125"/>
      </g>
     </g>
     <g id="text_2">
      <!-- 2020-05 -->
      <g transform="translate(109.515691 337.212937)rotate(-90)scale(0.1 -0.1)">
       <defs>
        <path d="M 10.796875 72.90625 
L 49.515625 72.90625 
L 49.515625 64.59375 
L 19.828125 64.59375 
L 19.828125 46.734375 
Q 21.96875 47.46875 24.109375 47.828125 
Q 26.265625 48.1875 28.421875 48.1875 
Q 40.625 48.1875 47.75 41.5 
Q 54.890625 34.8125 54.890625 23.390625 
Q 54.890625 11.625 47.5625 5.09375 
Q 40.234375 -1.421875 26.90625 -1.421875 
Q 22.3125 -1.421875 17.546875 -0.640625 
Q 12.796875 0.140625 7.71875 1.703125 
L 7.71875 11.625 
Q 12.109375 9.234375 16.796875 8.0625 
Q 21.484375 6.890625 26.703125 6.890625 
Q 35.15625 6.890625 40.078125 11.328125 
Q 45.015625 15.765625 45.015625 23.390625 
Q 45.015625 31 40.078125 35.4375 
Q 35.15625 39.890625 26.703125 39.890625 
Q 22.75 39.890625 18.8125 39.015625 
Q 14.890625 38.140625 10.796875 36.28125 
z
" id="DejaVuSans-53"/>
       </defs>
       <use xlink:href="#DejaVuSans-50"/>
       <use x="63.623047" xlink:href="#DejaVuSans-48"/>
       <use x="127.246094" xlink:href="#DejaVuSans-50"/>
       <use x="190.869141" xlink:href="#DejaVuSans-48"/>
       <use x="254.492188" xlink:href="#DejaVuSans-45"/>
       <use x="290.576172" xlink:href="#DejaVuSans-48"/>
       <use x="354.199219" xlink:href="#DejaVuSans-53"/>
      </g>
     </g>
    </g>
    <g id="xtick_3">
     <g id="line2d_3">
      <g>
       <use style="stroke:#000000;stroke-width:0.8;" x="146.014189" xlink:href="#m1947be799f" y="288.430125"/>
      </g>
     </g>
     <g id="text_3">
      <!-- 2020-06 -->
      <g transform="translate(148.773564 337.212937)rotate(-90)scale(0.1 -0.1)">
       <defs>
        <path d="M 33.015625 40.375 
Q 26.375 40.375 22.484375 35.828125 
Q 18.609375 31.296875 18.609375 23.390625 
Q 18.609375 15.53125 22.484375 10.953125 
Q 26.375 6.390625 33.015625 6.390625 
Q 39.65625 6.390625 43.53125 10.953125 
Q 47.40625 15.53125 47.40625 23.390625 
Q 47.40625 31.296875 43.53125 35.828125 
Q 39.65625 40.375 33.015625 40.375 
z
M 52.59375 71.296875 
L 52.59375 62.3125 
Q 48.875 64.0625 45.09375 64.984375 
Q 41.3125 65.921875 37.59375 65.921875 
Q 27.828125 65.921875 22.671875 59.328125 
Q 17.53125 52.734375 16.796875 39.40625 
Q 19.671875 43.65625 24.015625 45.921875 
Q 28.375 48.1875 33.59375 48.1875 
Q 44.578125 48.1875 50.953125 41.515625 
Q 57.328125 34.859375 57.328125 23.390625 
Q 57.328125 12.15625 50.6875 5.359375 
Q 44.046875 -1.421875 33.015625 -1.421875 
Q 20.359375 -1.421875 13.671875 8.265625 
Q 6.984375 17.96875 6.984375 36.375 
Q 6.984375 53.65625 15.1875 63.9375 
Q 23.390625 74.21875 37.203125 74.21875 
Q 40.921875 74.21875 44.703125 73.484375 
Q 48.484375 72.75 52.59375 71.296875 
z
" id="DejaVuSans-54"/>
       </defs>
       <use xlink:href="#DejaVuSans-50"/>
       <use x="63.623047" xlink:href="#DejaVuSans-48"/>
       <use x="127.246094" xlink:href="#DejaVuSans-50"/>
       <use x="190.869141" xlink:href="#DejaVuSans-48"/>
       <use x="254.492188" xlink:href="#DejaVuSans-45"/>
       <use x="290.576172" xlink:href="#DejaVuSans-48"/>
       <use x="354.199219" xlink:href="#DejaVuSans-54"/>
      </g>
     </g>
    </g>
    <g id="xtick_4">
     <g id="line2d_4">
      <g>
       <use style="stroke:#000000;stroke-width:0.8;" x="184.005678" xlink:href="#m1947be799f" y="288.430125"/>
      </g>
     </g>
     <g id="text_4">
      <!-- 2020-07 -->
      <g transform="translate(186.765053 337.212937)rotate(-90)scale(0.1 -0.1)">
       <defs>
        <path d="M 8.203125 72.90625 
L 55.078125 72.90625 
L 55.078125 68.703125 
L 28.609375 0 
L 18.3125 0 
L 43.21875 64.59375 
L 8.203125 64.59375 
z
" id="DejaVuSans-55"/>
       </defs>
       <use xlink:href="#DejaVuSans-50"/>
       <use x="63.623047" xlink:href="#DejaVuSans-48"/>
       <use x="127.246094" xlink:href="#DejaVuSans-50"/>
       <use x="190.869141" xlink:href="#DejaVuSans-48"/>
       <use x="254.492188" xlink:href="#DejaVuSans-45"/>
       <use x="290.576172" xlink:href="#DejaVuSans-48"/>
       <use x="354.199219" xlink:href="#DejaVuSans-55"/>
      </g>
     </g>
    </g>
    <g id="xtick_5">
     <g id="line2d_5">
      <g>
       <use style="stroke:#000000;stroke-width:0.8;" x="223.263551" xlink:href="#m1947be799f" y="288.430125"/>
      </g>
     </g>
     <g id="text_5">
      <!-- 2020-08 -->
      <g transform="translate(226.022926 337.212937)rotate(-90)scale(0.1 -0.1)">
       <defs>
        <path d="M 31.78125 34.625 
Q 24.75 34.625 20.71875 30.859375 
Q 16.703125 27.09375 16.703125 20.515625 
Q 16.703125 13.921875 20.71875 10.15625 
Q 24.75 6.390625 31.78125 6.390625 
Q 38.8125 6.390625 42.859375 10.171875 
Q 46.921875 13.96875 46.921875 20.515625 
Q 46.921875 27.09375 42.890625 30.859375 
Q 38.875 34.625 31.78125 34.625 
z
M 21.921875 38.8125 
Q 15.578125 40.375 12.03125 44.71875 
Q 8.5 49.078125 8.5 55.328125 
Q 8.5 64.0625 14.71875 69.140625 
Q 20.953125 74.21875 31.78125 74.21875 
Q 42.671875 74.21875 48.875 69.140625 
Q 55.078125 64.0625 55.078125 55.328125 
Q 55.078125 49.078125 51.53125 44.71875 
Q 48 40.375 41.703125 38.8125 
Q 48.828125 37.15625 52.796875 32.3125 
Q 56.78125 27.484375 56.78125 20.515625 
Q 56.78125 9.90625 50.3125 4.234375 
Q 43.84375 -1.421875 31.78125 -1.421875 
Q 19.734375 -1.421875 13.25 4.234375 
Q 6.78125 9.90625 6.78125 20.515625 
Q 6.78125 27.484375 10.78125 32.3125 
Q 14.796875 37.15625 21.921875 38.8125 
z
M 18.3125 54.390625 
Q 18.3125 48.734375 21.84375 45.5625 
Q 25.390625 42.390625 31.78125 42.390625 
Q 38.140625 42.390625 41.71875 45.5625 
Q 45.3125 48.734375 45.3125 54.390625 
Q 45.3125 60.0625 41.71875 63.234375 
Q 38.140625 66.40625 31.78125 66.40625 
Q 25.390625 66.40625 21.84375 63.234375 
Q 18.3125 60.0625 18.3125 54.390625 
z
" id="DejaVuSans-56"/>
       </defs>
       <use xlink:href="#DejaVuSans-50"/>
       <use x="63.623047" xlink:href="#DejaVuSans-48"/>
       <use x="127.246094" xlink:href="#DejaVuSans-50"/>
       <use x="190.869141" xlink:href="#DejaVuSans-48"/>
       <use x="254.492188" xlink:href="#DejaVuSans-45"/>
       <use x="290.576172" xlink:href="#DejaVuSans-48"/>
       <use x="354.199219" xlink:href="#DejaVuSans-56"/>
      </g>
     </g>
    </g>
    <g id="xtick_6">
     <g id="line2d_6">
      <g>
       <use style="stroke:#000000;stroke-width:0.8;" x="262.521423" xlink:href="#m1947be799f" y="288.430125"/>
      </g>
     </g>
     <g id="text_6">
      <!-- 2020-09 -->
      <g transform="translate(265.280798 337.212937)rotate(-90)scale(0.1 -0.1)">
       <defs>
        <path d="M 10.984375 1.515625 
L 10.984375 10.5 
Q 14.703125 8.734375 18.5 7.8125 
Q 22.3125 6.890625 25.984375 6.890625 
Q 35.75 6.890625 40.890625 13.453125 
Q 46.046875 20.015625 46.78125 33.40625 
Q 43.953125 29.203125 39.59375 26.953125 
Q 35.25 24.703125 29.984375 24.703125 
Q 19.046875 24.703125 12.671875 31.3125 
Q 6.296875 37.9375 6.296875 49.421875 
Q 6.296875 60.640625 12.9375 67.421875 
Q 19.578125 74.21875 30.609375 74.21875 
Q 43.265625 74.21875 49.921875 64.515625 
Q 56.59375 54.828125 56.59375 36.375 
Q 56.59375 19.140625 48.40625 8.859375 
Q 40.234375 -1.421875 26.421875 -1.421875 
Q 22.703125 -1.421875 18.890625 -0.6875 
Q 15.09375 0.046875 10.984375 1.515625 
z
M 30.609375 32.421875 
Q 37.25 32.421875 41.125 36.953125 
Q 45.015625 41.5 45.015625 49.421875 
Q 45.015625 57.28125 41.125 61.84375 
Q 37.25 66.40625 30.609375 66.40625 
Q 23.96875 66.40625 20.09375 61.84375 
Q 16.21875 57.28125 16.21875 49.421875 
Q 16.21875 41.5 20.09375 36.953125 
Q 23.96875 32.421875 30.609375 32.421875 
z
" id="DejaVuSans-57"/>
       </defs>
       <use xlink:href="#DejaVuSans-50"/>
       <use x="63.623047" xlink:href="#DejaVuSans-48"/>
       <use x="127.246094" xlink:href="#DejaVuSans-50"/>
       <use x="190.869141" xlink:href="#DejaVuSans-48"/>
       <use x="254.492188" xlink:href="#DejaVuSans-45"/>
       <use x="290.576172" xlink:href="#DejaVuSans-48"/>
       <use x="354.199219" xlink:href="#DejaVuSans-57"/>
      </g>
     </g>
    </g>
    <g id="xtick_7">
     <g id="line2d_7">
      <g>
       <use style="stroke:#000000;stroke-width:0.8;" x="300.512912" xlink:href="#m1947be799f" y="288.430125"/>
      </g>
     </g>
     <g id="text_7">
      <!-- 2020-10 -->
      <g transform="translate(303.272287 337.212937)rotate(-90)scale(0.1 -0.1)">
       <defs>
        <path d="M 12.40625 8.296875 
L 28.515625 8.296875 
L 28.515625 63.921875 
L 10.984375 60.40625 
L 10.984375 69.390625 
L 28.421875 72.90625 
L 38.28125 72.90625 
L 38.28125 8.296875 
L 54.390625 8.296875 
L 54.390625 0 
L 12.40625 0 
z
" id="DejaVuSans-49"/>
       </defs>
       <use xlink:href="#DejaVuSans-50"/>
       <use x="63.623047" xlink:href="#DejaVuSans-48"/>
       <use x="127.246094" xlink:href="#DejaVuSans-50"/>
       <use x="190.869141" xlink:href="#DejaVuSans-48"/>
       <use x="254.492188" xlink:href="#DejaVuSans-45"/>
       <use x="290.576172" xlink:href="#DejaVuSans-49"/>
       <use x="354.199219" xlink:href="#DejaVuSans-48"/>
      </g>
     </g>
    </g>
    <g id="xtick_8">
     <g id="line2d_8">
      <g>
       <use style="stroke:#000000;stroke-width:0.8;" x="339.770785" xlink:href="#m1947be799f" y="288.430125"/>
      </g>
     </g>
     <g id="text_8">
      <!-- 2020-11 -->
      <g transform="translate(342.53016 337.212937)rotate(-90)scale(0.1 -0.1)">
       <use xlink:href="#DejaVuSans-50"/>
       <use x="63.623047" xlink:href="#DejaVuSans-48"/>
       <use x="127.246094" xlink:href="#DejaVuSans-50"/>
       <use x="190.869141" xlink:href="#DejaVuSans-48"/>
       <use x="254.492188" xlink:href="#DejaVuSans-45"/>
       <use x="290.576172" xlink:href="#DejaVuSans-49"/>
       <use x="354.199219" xlink:href="#DejaVuSans-49"/>
      </g>
     </g>
    </g>
    <g id="xtick_9">
     <g id="line2d_9">
      <g>
       <use style="stroke:#000000;stroke-width:0.8;" x="377.762274" xlink:href="#m1947be799f" y="288.430125"/>
      </g>
     </g>
     <g id="text_9">
      <!-- 2020-12 -->
      <g transform="translate(380.521649 337.212937)rotate(-90)scale(0.1 -0.1)">
       <use xlink:href="#DejaVuSans-50"/>
       <use x="63.623047" xlink:href="#DejaVuSans-48"/>
       <use x="127.246094" xlink:href="#DejaVuSans-50"/>
       <use x="190.869141" xlink:href="#DejaVuSans-48"/>
       <use x="254.492188" xlink:href="#DejaVuSans-45"/>
       <use x="290.576172" xlink:href="#DejaVuSans-49"/>
       <use x="354.199219" xlink:href="#DejaVuSans-50"/>
      </g>
     </g>
    </g>
    <g id="text_10">
     <!-- date -->
     <g transform="translate(213.888125 354.811375)scale(0.1 -0.1)">
      <defs>
       <path d="M 45.40625 46.390625 
L 45.40625 75.984375 
L 54.390625 75.984375 
L 54.390625 0 
L 45.40625 0 
L 45.40625 8.203125 
Q 42.578125 3.328125 38.25 0.953125 
Q 33.9375 -1.421875 27.875 -1.421875 
Q 17.96875 -1.421875 11.734375 6.484375 
Q 5.515625 14.40625 5.515625 27.296875 
Q 5.515625 40.1875 11.734375 48.09375 
Q 17.96875 56 27.875 56 
Q 33.9375 56 38.25 53.625 
Q 42.578125 51.265625 45.40625 46.390625 
z
M 14.796875 27.296875 
Q 14.796875 17.390625 18.875 11.75 
Q 22.953125 6.109375 30.078125 6.109375 
Q 37.203125 6.109375 41.296875 11.75 
Q 45.40625 17.390625 45.40625 27.296875 
Q 45.40625 37.203125 41.296875 42.84375 
Q 37.203125 48.484375 30.078125 48.484375 
Q 22.953125 48.484375 18.875 42.84375 
Q 14.796875 37.203125 14.796875 27.296875 
z
" id="DejaVuSans-100"/>
       <path d="M 34.28125 27.484375 
Q 23.390625 27.484375 19.1875 25 
Q 14.984375 22.515625 14.984375 16.5 
Q 14.984375 11.71875 18.140625 8.90625 
Q 21.296875 6.109375 26.703125 6.109375 
Q 34.1875 6.109375 38.703125 11.40625 
Q 43.21875 16.703125 43.21875 25.484375 
L 43.21875 27.484375 
z
M 52.203125 31.203125 
L 52.203125 0 
L 43.21875 0 
L 43.21875 8.296875 
Q 40.140625 3.328125 35.546875 0.953125 
Q 30.953125 -1.421875 24.3125 -1.421875 
Q 15.921875 -1.421875 10.953125 3.296875 
Q 6 8.015625 6 15.921875 
Q 6 25.140625 12.171875 29.828125 
Q 18.359375 34.515625 30.609375 34.515625 
L 43.21875 34.515625 
L 43.21875 35.40625 
Q 43.21875 41.609375 39.140625 45 
Q 35.0625 48.390625 27.6875 48.390625 
Q 23 48.390625 18.546875 47.265625 
Q 14.109375 46.140625 10.015625 43.890625 
L 10.015625 52.203125 
Q 14.9375 54.109375 19.578125 55.046875 
Q 24.21875 56 28.609375 56 
Q 40.484375 56 46.34375 49.84375 
Q 52.203125 43.703125 52.203125 31.203125 
z
" id="DejaVuSans-97"/>
       <path d="M 18.3125 70.21875 
L 18.3125 54.6875 
L 36.8125 54.6875 
L 36.8125 47.703125 
L 18.3125 47.703125 
L 18.3125 18.015625 
Q 18.3125 11.328125 20.140625 9.421875 
Q 21.96875 7.515625 27.59375 7.515625 
L 36.8125 7.515625 
L 36.8125 0 
L 27.59375 0 
Q 17.1875 0 13.234375 3.875 
Q 9.28125 7.765625 9.28125 18.015625 
L 9.28125 47.703125 
L 2.6875 47.703125 
L 2.6875 54.6875 
L 9.28125 54.6875 
L 9.28125 70.21875 
z
" id="DejaVuSans-116"/>
       <path d="M 56.203125 29.59375 
L 56.203125 25.203125 
L 14.890625 25.203125 
Q 15.484375 15.921875 20.484375 11.0625 
Q 25.484375 6.203125 34.421875 6.203125 
Q 39.59375 6.203125 44.453125 7.46875 
Q 49.3125 8.734375 54.109375 11.28125 
L 54.109375 2.78125 
Q 49.265625 0.734375 44.1875 -0.34375 
Q 39.109375 -1.421875 33.890625 -1.421875 
Q 20.796875 -1.421875 13.15625 6.1875 
Q 5.515625 13.8125 5.515625 26.8125 
Q 5.515625 40.234375 12.765625 48.109375 
Q 20.015625 56 32.328125 56 
Q 43.359375 56 49.78125 48.890625 
Q 56.203125 41.796875 56.203125 29.59375 
z
M 47.21875 32.234375 
Q 47.125 39.59375 43.09375 43.984375 
Q 39.0625 48.390625 32.421875 48.390625 
Q 24.90625 48.390625 20.390625 44.140625 
Q 15.875 39.890625 15.1875 32.171875 
z
" id="DejaVuSans-101"/>
      </defs>
      <use xlink:href="#DejaVuSans-100"/>
      <use x="63.476562" xlink:href="#DejaVuSans-97"/>
      <use x="124.755859" xlink:href="#DejaVuSans-116"/>
      <use x="163.964844" xlink:href="#DejaVuSans-101"/>
     </g>
    </g>
   </g>
   <g id="matplotlib.axis_2">
    <g id="ytick_1">
     <g id="line2d_10">
      <defs>
       <path d="M 0 0 
L -3.5 0 
" id="me00285bf7a" style="stroke:#000000;stroke-width:0.8;"/>
      </defs>
      <g>
       <use style="stroke:#000000;stroke-width:0.8;" x="46.603125" xlink:href="#me00285bf7a" y="288.430125"/>
      </g>
     </g>
     <g id="text_11">
      <!-- 0 -->
      <g transform="translate(33.240625 292.229344)scale(0.1 -0.1)">
       <use xlink:href="#DejaVuSans-48"/>
      </g>
     </g>
    </g>
    <g id="ytick_2">
     <g id="line2d_11">
      <g>
       <use style="stroke:#000000;stroke-width:0.8;" x="46.603125" xlink:href="#me00285bf7a" y="252.948525"/>
      </g>
     </g>
     <g id="text_12">
      <!-- 10 -->
      <g transform="translate(26.878125 256.747744)scale(0.1 -0.1)">
       <use xlink:href="#DejaVuSans-49"/>
       <use x="63.623047" xlink:href="#DejaVuSans-48"/>
      </g>
     </g>
    </g>
    <g id="ytick_3">
     <g id="line2d_12">
      <g>
       <use style="stroke:#000000;stroke-width:0.8;" x="46.603125" xlink:href="#me00285bf7a" y="217.466925"/>
      </g>
     </g>
     <g id="text_13">
      <!-- 20 -->
      <g transform="translate(26.878125 221.266144)scale(0.1 -0.1)">
       <use xlink:href="#DejaVuSans-50"/>
       <use x="63.623047" xlink:href="#DejaVuSans-48"/>
      </g>
     </g>
    </g>
    <g id="ytick_4">
     <g id="line2d_13">
      <g>
       <use style="stroke:#000000;stroke-width:0.8;" x="46.603125" xlink:href="#me00285bf7a" y="181.985325"/>
      </g>
     </g>
     <g id="text_14">
      <!-- 30 -->
      <g transform="translate(26.878125 185.784544)scale(0.1 -0.1)">
       <defs>
        <path d="M 40.578125 39.3125 
Q 47.65625 37.796875 51.625 33 
Q 55.609375 28.21875 55.609375 21.1875 
Q 55.609375 10.40625 48.1875 4.484375 
Q 40.765625 -1.421875 27.09375 -1.421875 
Q 22.515625 -1.421875 17.65625 -0.515625 
Q 12.796875 0.390625 7.625 2.203125 
L 7.625 11.71875 
Q 11.71875 9.328125 16.59375 8.109375 
Q 21.484375 6.890625 26.8125 6.890625 
Q 36.078125 6.890625 40.9375 10.546875 
Q 45.796875 14.203125 45.796875 21.1875 
Q 45.796875 27.640625 41.28125 31.265625 
Q 36.765625 34.90625 28.71875 34.90625 
L 20.21875 34.90625 
L 20.21875 43.015625 
L 29.109375 43.015625 
Q 36.375 43.015625 40.234375 45.921875 
Q 44.09375 48.828125 44.09375 54.296875 
Q 44.09375 59.90625 40.109375 62.90625 
Q 36.140625 65.921875 28.71875 65.921875 
Q 24.65625 65.921875 20.015625 65.03125 
Q 15.375 64.15625 9.8125 62.3125 
L 9.8125 71.09375 
Q 15.4375 72.65625 20.34375 73.4375 
Q 25.25 74.21875 29.59375 74.21875 
Q 40.828125 74.21875 47.359375 69.109375 
Q 53.90625 64.015625 53.90625 55.328125 
Q 53.90625 49.265625 50.4375 45.09375 
Q 46.96875 40.921875 40.578125 39.3125 
z
" id="DejaVuSans-51"/>
       </defs>
       <use xlink:href="#DejaVuSans-51"/>
       <use x="63.623047" xlink:href="#DejaVuSans-48"/>
      </g>
     </g>
    </g>
    <g id="ytick_5">
     <g id="line2d_14">
      <g>
       <use style="stroke:#000000;stroke-width:0.8;" x="46.603125" xlink:href="#me00285bf7a" y="146.503725"/>
      </g>
     </g>
     <g id="text_15">
      <!-- 40 -->
      <g transform="translate(26.878125 150.302944)scale(0.1 -0.1)">
       <use xlink:href="#DejaVuSans-52"/>
       <use x="63.623047" xlink:href="#DejaVuSans-48"/>
      </g>
     </g>
    </g>
    <g id="ytick_6">
     <g id="line2d_15">
      <g>
       <use style="stroke:#000000;stroke-width:0.8;" x="46.603125" xlink:href="#me00285bf7a" y="111.022125"/>
      </g>
     </g>
     <g id="text_16">
      <!-- 50 -->
      <g transform="translate(26.878125 114.821344)scale(0.1 -0.1)">
       <use xlink:href="#DejaVuSans-53"/>
       <use x="63.623047" xlink:href="#DejaVuSans-48"/>
      </g>
     </g>
    </g>
    <g id="ytick_7">
     <g id="line2d_16">
      <g>
       <use style="stroke:#000000;stroke-width:0.8;" x="46.603125" xlink:href="#me00285bf7a" y="75.540525"/>
      </g>
     </g>
     <g id="text_17">
      <!-- 60 -->
      <g transform="translate(26.878125 79.339744)scale(0.1 -0.1)">
       <use xlink:href="#DejaVuSans-54"/>
       <use x="63.623047" xlink:href="#DejaVuSans-48"/>
      </g>
     </g>
    </g>
    <g id="ytick_8">
     <g id="line2d_17">
      <g>
       <use style="stroke:#000000;stroke-width:0.8;" x="46.603125" xlink:href="#me00285bf7a" y="40.058925"/>
      </g>
     </g>
     <g id="text_18">
      <!-- 70 -->
      <g transform="translate(26.878125 43.858144)scale(0.1 -0.1)">
       <use xlink:href="#DejaVuSans-55"/>
       <use x="63.623047" xlink:href="#DejaVuSans-48"/>
      </g>
     </g>
    </g>
    <g id="text_19">
     <!-- case fatality rate [%] -->
     <g transform="translate(14.798438 207.990531)rotate(-90)scale(0.1 -0.1)">
      <defs>
       <path d="M 48.78125 52.59375 
L 48.78125 44.1875 
Q 44.96875 46.296875 41.140625 47.34375 
Q 37.3125 48.390625 33.40625 48.390625 
Q 24.65625 48.390625 19.8125 42.84375 
Q 14.984375 37.3125 14.984375 27.296875 
Q 14.984375 17.28125 19.8125 11.734375 
Q 24.65625 6.203125 33.40625 6.203125 
Q 37.3125 6.203125 41.140625 7.25 
Q 44.96875 8.296875 48.78125 10.40625 
L 48.78125 2.09375 
Q 45.015625 0.34375 40.984375 -0.53125 
Q 36.96875 -1.421875 32.421875 -1.421875 
Q 20.0625 -1.421875 12.78125 6.34375 
Q 5.515625 14.109375 5.515625 27.296875 
Q 5.515625 40.671875 12.859375 48.328125 
Q 20.21875 56 33.015625 56 
Q 37.15625 56 41.109375 55.140625 
Q 45.0625 54.296875 48.78125 52.59375 
z
" id="DejaVuSans-99"/>
       <path d="M 44.28125 53.078125 
L 44.28125 44.578125 
Q 40.484375 46.53125 36.375 47.5 
Q 32.28125 48.484375 27.875 48.484375 
Q 21.1875 48.484375 17.84375 46.4375 
Q 14.5 44.390625 14.5 40.28125 
Q 14.5 37.15625 16.890625 35.375 
Q 19.28125 33.59375 26.515625 31.984375 
L 29.59375 31.296875 
Q 39.15625 29.25 43.1875 25.515625 
Q 47.21875 21.78125 47.21875 15.09375 
Q 47.21875 7.46875 41.1875 3.015625 
Q 35.15625 -1.421875 24.609375 -1.421875 
Q 20.21875 -1.421875 15.453125 -0.5625 
Q 10.6875 0.296875 5.421875 2 
L 5.421875 11.28125 
Q 10.40625 8.6875 15.234375 7.390625 
Q 20.0625 6.109375 24.8125 6.109375 
Q 31.15625 6.109375 34.5625 8.28125 
Q 37.984375 10.453125 37.984375 14.40625 
Q 37.984375 18.0625 35.515625 20.015625 
Q 33.0625 21.96875 24.703125 23.78125 
L 21.578125 24.515625 
Q 13.234375 26.265625 9.515625 29.90625 
Q 5.8125 33.546875 5.8125 39.890625 
Q 5.8125 47.609375 11.28125 51.796875 
Q 16.75 56 26.8125 56 
Q 31.78125 56 36.171875 55.265625 
Q 40.578125 54.546875 44.28125 53.078125 
z
" id="DejaVuSans-115"/>
       <path id="DejaVuSans-32"/>
       <path d="M 37.109375 75.984375 
L 37.109375 68.5 
L 28.515625 68.5 
Q 23.6875 68.5 21.796875 66.546875 
Q 19.921875 64.59375 19.921875 59.515625 
L 19.921875 54.6875 
L 34.71875 54.6875 
L 34.71875 47.703125 
L 19.921875 47.703125 
L 19.921875 0 
L 10.890625 0 
L 10.890625 47.703125 
L 2.296875 47.703125 
L 2.296875 54.6875 
L 10.890625 54.6875 
L 10.890625 58.5 
Q 10.890625 67.625 15.140625 71.796875 
Q 19.390625 75.984375 28.609375 75.984375 
z
" id="DejaVuSans-102"/>
       <path d="M 9.421875 75.984375 
L 18.40625 75.984375 
L 18.40625 0 
L 9.421875 0 
z
" id="DejaVuSans-108"/>
       <path d="M 9.421875 54.6875 
L 18.40625 54.6875 
L 18.40625 0 
L 9.421875 0 
z
M 9.421875 75.984375 
L 18.40625 75.984375 
L 18.40625 64.59375 
L 9.421875 64.59375 
z
" id="DejaVuSans-105"/>
       <path d="M 32.171875 -5.078125 
Q 28.375 -14.84375 24.75 -17.8125 
Q 21.140625 -20.796875 15.09375 -20.796875 
L 7.90625 -20.796875 
L 7.90625 -13.28125 
L 13.1875 -13.28125 
Q 16.890625 -13.28125 18.9375 -11.515625 
Q 21 -9.765625 23.484375 -3.21875 
L 25.09375 0.875 
L 2.984375 54.6875 
L 12.5 54.6875 
L 29.59375 11.921875 
L 46.6875 54.6875 
L 56.203125 54.6875 
z
" id="DejaVuSans-121"/>
       <path d="M 41.109375 46.296875 
Q 39.59375 47.171875 37.8125 47.578125 
Q 36.03125 48 33.890625 48 
Q 26.265625 48 22.1875 43.046875 
Q 18.109375 38.09375 18.109375 28.8125 
L 18.109375 0 
L 9.078125 0 
L 9.078125 54.6875 
L 18.109375 54.6875 
L 18.109375 46.1875 
Q 20.953125 51.171875 25.484375 53.578125 
Q 30.03125 56 36.53125 56 
Q 37.453125 56 38.578125 55.875 
Q 39.703125 55.765625 41.0625 55.515625 
z
" id="DejaVuSans-114"/>
       <path d="M 8.59375 75.984375 
L 29.296875 75.984375 
L 29.296875 69 
L 17.578125 69 
L 17.578125 -6.203125 
L 29.296875 -6.203125 
L 29.296875 -13.1875 
L 8.59375 -13.1875 
z
" id="DejaVuSans-91"/>
       <path d="M 72.703125 32.078125 
Q 68.453125 32.078125 66.03125 28.46875 
Q 63.625 24.859375 63.625 18.40625 
Q 63.625 12.0625 66.03125 8.421875 
Q 68.453125 4.78125 72.703125 4.78125 
Q 76.859375 4.78125 79.265625 8.421875 
Q 81.6875 12.0625 81.6875 18.40625 
Q 81.6875 24.8125 79.265625 28.4375 
Q 76.859375 32.078125 72.703125 32.078125 
z
M 72.703125 38.28125 
Q 80.421875 38.28125 84.953125 32.90625 
Q 89.5 27.546875 89.5 18.40625 
Q 89.5 9.28125 84.9375 3.921875 
Q 80.375 -1.421875 72.703125 -1.421875 
Q 64.890625 -1.421875 60.34375 3.921875 
Q 55.8125 9.28125 55.8125 18.40625 
Q 55.8125 27.59375 60.375 32.9375 
Q 64.9375 38.28125 72.703125 38.28125 
z
M 22.3125 68.015625 
Q 18.109375 68.015625 15.6875 64.375 
Q 13.28125 60.75 13.28125 54.390625 
Q 13.28125 47.953125 15.671875 44.328125 
Q 18.0625 40.71875 22.3125 40.71875 
Q 26.5625 40.71875 28.96875 44.328125 
Q 31.390625 47.953125 31.390625 54.390625 
Q 31.390625 60.6875 28.953125 64.34375 
Q 26.515625 68.015625 22.3125 68.015625 
z
M 66.40625 74.21875 
L 74.21875 74.21875 
L 28.609375 -1.421875 
L 20.796875 -1.421875 
z
M 22.3125 74.21875 
Q 30.03125 74.21875 34.609375 68.875 
Q 39.203125 63.53125 39.203125 54.390625 
Q 39.203125 45.171875 34.640625 39.84375 
Q 30.078125 34.515625 22.3125 34.515625 
Q 14.546875 34.515625 10.03125 39.859375 
Q 5.515625 45.21875 5.515625 54.390625 
Q 5.515625 63.484375 10.046875 68.84375 
Q 14.59375 74.21875 22.3125 74.21875 
z
" id="DejaVuSans-37"/>
       <path d="M 30.421875 75.984375 
L 30.421875 -13.1875 
L 9.71875 -13.1875 
L 9.71875 -6.203125 
L 21.390625 -6.203125 
L 21.390625 69 
L 9.71875 69 
L 9.71875 75.984375 
z
" id="DejaVuSans-93"/>
      </defs>
      <use xlink:href="#DejaVuSans-99"/>
      <use x="54.980469" xlink:href="#DejaVuSans-97"/>
      <use x="116.259766" xlink:href="#DejaVuSans-115"/>
      <use x="168.359375" xlink:href="#DejaVuSans-101"/>
      <use x="229.882812" xlink:href="#DejaVuSans-32"/>
      <use x="261.669922" xlink:href="#DejaVuSans-102"/>
      <use x="296.875" xlink:href="#DejaVuSans-97"/>
      <use x="358.154297" xlink:href="#DejaVuSans-116"/>
      <use x="397.363281" xlink:href="#DejaVuSans-97"/>
      <use x="458.642578" xlink:href="#DejaVuSans-108"/>
      <use x="486.425781" xlink:href="#DejaVuSans-105"/>
      <use x="514.208984" xlink:href="#DejaVuSans-116"/>
      <use x="553.417969" xlink:href="#DejaVuSans-121"/>
      <use x="612.597656" xlink:href="#DejaVuSans-32"/>
      <use x="644.384766" xlink:href="#DejaVuSans-114"/>
      <use x="685.498047" xlink:href="#DejaVuSans-97"/>
      <use x="746.777344" xlink:href="#DejaVuSans-116"/>
      <use x="785.986328" xlink:href="#DejaVuSans-101"/>
      <use x="847.509766" xlink:href="#DejaVuSans-32"/>
      <use x="879.296875" xlink:href="#DejaVuSans-91"/>
      <use x="918.310547" xlink:href="#DejaVuSans-37"/>
      <use x="1013.330078" xlink:href="#DejaVuSans-93"/>
     </g>
    </g>
   </g>
   <g id="patch_285">
    <path d="M 46.603125 288.430125 
L 46.603125 22.318125 
" style="fill:none;stroke:#000000;stroke-linecap:square;stroke-linejoin:miter;stroke-width:0.8;"/>
   </g>
   <g id="patch_286">
    <path d="M 46.603125 288.430125 
L 403.723125 288.430125 
" style="fill:none;stroke:#000000;stroke-linecap:square;stroke-linejoin:miter;stroke-width:0.8;"/>
   </g>
   <g id="text_20">
    <!-- South Tyrol -->
    <g transform="translate(191.870625 16.318125)scale(0.12 -0.12)">
     <defs>
      <path d="M 53.515625 70.515625 
L 53.515625 60.890625 
Q 47.90625 63.578125 42.921875 64.890625 
Q 37.9375 66.21875 33.296875 66.21875 
Q 25.25 66.21875 20.875 63.09375 
Q 16.5 59.96875 16.5 54.203125 
Q 16.5 49.359375 19.40625 46.890625 
Q 22.3125 44.4375 30.421875 42.921875 
L 36.375 41.703125 
Q 47.40625 39.59375 52.65625 34.296875 
Q 57.90625 29 57.90625 20.125 
Q 57.90625 9.515625 50.796875 4.046875 
Q 43.703125 -1.421875 29.984375 -1.421875 
Q 24.8125 -1.421875 18.96875 -0.25 
Q 13.140625 0.921875 6.890625 3.21875 
L 6.890625 13.375 
Q 12.890625 10.015625 18.65625 8.296875 
Q 24.421875 6.59375 29.984375 6.59375 
Q 38.421875 6.59375 43.015625 9.90625 
Q 47.609375 13.234375 47.609375 19.390625 
Q 47.609375 24.75 44.3125 27.78125 
Q 41.015625 30.8125 33.5 32.328125 
L 27.484375 33.5 
Q 16.453125 35.6875 11.515625 40.375 
Q 6.59375 45.0625 6.59375 53.421875 
Q 6.59375 63.09375 13.40625 68.65625 
Q 20.21875 74.21875 32.171875 74.21875 
Q 37.3125 74.21875 42.625 73.28125 
Q 47.953125 72.359375 53.515625 70.515625 
z
" id="DejaVuSans-83"/>
      <path d="M 30.609375 48.390625 
Q 23.390625 48.390625 19.1875 42.75 
Q 14.984375 37.109375 14.984375 27.296875 
Q 14.984375 17.484375 19.15625 11.84375 
Q 23.34375 6.203125 30.609375 6.203125 
Q 37.796875 6.203125 41.984375 11.859375 
Q 46.1875 17.53125 46.1875 27.296875 
Q 46.1875 37.015625 41.984375 42.703125 
Q 37.796875 48.390625 30.609375 48.390625 
z
M 30.609375 56 
Q 42.328125 56 49.015625 48.375 
Q 55.71875 40.765625 55.71875 27.296875 
Q 55.71875 13.875 49.015625 6.21875 
Q 42.328125 -1.421875 30.609375 -1.421875 
Q 18.84375 -1.421875 12.171875 6.21875 
Q 5.515625 13.875 5.515625 27.296875 
Q 5.515625 40.765625 12.171875 48.375 
Q 18.84375 56 30.609375 56 
z
" id="DejaVuSans-111"/>
      <path d="M 8.5 21.578125 
L 8.5 54.6875 
L 17.484375 54.6875 
L 17.484375 21.921875 
Q 17.484375 14.15625 20.5 10.265625 
Q 23.53125 6.390625 29.59375 6.390625 
Q 36.859375 6.390625 41.078125 11.03125 
Q 45.3125 15.671875 45.3125 23.6875 
L 45.3125 54.6875 
L 54.296875 54.6875 
L 54.296875 0 
L 45.3125 0 
L 45.3125 8.40625 
Q 42.046875 3.421875 37.71875 1 
Q 33.40625 -1.421875 27.6875 -1.421875 
Q 18.265625 -1.421875 13.375 4.4375 
Q 8.5 10.296875 8.5 21.578125 
z
M 31.109375 56 
z
" id="DejaVuSans-117"/>
      <path d="M 54.890625 33.015625 
L 54.890625 0 
L 45.90625 0 
L 45.90625 32.71875 
Q 45.90625 40.484375 42.875 44.328125 
Q 39.84375 48.1875 33.796875 48.1875 
Q 26.515625 48.1875 22.3125 43.546875 
Q 18.109375 38.921875 18.109375 30.90625 
L 18.109375 0 
L 9.078125 0 
L 9.078125 75.984375 
L 18.109375 75.984375 
L 18.109375 46.1875 
Q 21.34375 51.125 25.703125 53.5625 
Q 30.078125 56 35.796875 56 
Q 45.21875 56 50.046875 50.171875 
Q 54.890625 44.34375 54.890625 33.015625 
z
" id="DejaVuSans-104"/>
      <path d="M -0.296875 72.90625 
L 61.375 72.90625 
L 61.375 64.59375 
L 35.5 64.59375 
L 35.5 0 
L 25.59375 0 
L 25.59375 64.59375 
L -0.296875 64.59375 
z
" id="DejaVuSans-84"/>
     </defs>
     <use xlink:href="#DejaVuSans-83"/>
     <use x="63.476562" xlink:href="#DejaVuSans-111"/>
     <use x="124.658203" xlink:href="#DejaVuSans-117"/>
     <use x="188.037109" xlink:href="#DejaVuSans-116"/>
     <use x="227.246094" xlink:href="#DejaVuSans-104"/>
     <use x="290.625" xlink:href="#DejaVuSans-32"/>
     <use x="322.412109" xlink:href="#DejaVuSans-84"/>
     <use x="367.871094" xlink:href="#DejaVuSans-121"/>
     <use x="427.050781" xlink:href="#DejaVuSans-114"/>
     <use x="465.914062" xlink:href="#DejaVuSans-111"/>
     <use x="527.095703" xlink:href="#DejaVuSans-108"/>
    </g>
   </g>
  </g>
 </g>
 <defs>
  <clipPath id="p21b6e12acf">
   <rect height="266.112" width="357.12" x="46.603125" y="22.318125"/>
  </clipPath>
 </defs>
</svg>
