<?xml version="1.0" encoding="utf-8" standalone="no"?>
<!DOCTYPE svg PUBLIC "-//W3C//DTD SVG 1.1//EN"
  "http://www.w3.org/Graphics/SVG/1.1/DTD/svg11.dtd">
<!-- Created with matplotlib (https://matplotlib.org/) -->
<svg height="320.717436pt" version="1.1" viewBox="0 0 408.420288 320.717436" width="408.420288pt" xmlns="http://www.w3.org/2000/svg" xmlns:xlink="http://www.w3.org/1999/xlink">
 <metadata>
  <rdf:RDF xmlns:cc="http://creativecommons.org/ns#" xmlns:dc="http://purl.org/dc/elements/1.1/" xmlns:rdf="http://www.w3.org/1999/02/22-rdf-syntax-ns#">
   <cc:Work>
    <dc:type rdf:resource="http://purl.org/dc/dcmitype/StillImage"/>
    <dc:date>2021-01-28T20:59:00.901166</dc:date>
    <dc:format>image/svg+xml</dc:format>
    <dc:creator>
     <cc:Agent>
      <dc:title>Matplotlib v3.3.3, https://matplotlib.org/</dc:title>
     </cc:Agent>
    </dc:creator>
   </cc:Work>
  </rdf:RDF>
 </metadata>
 <defs>
  <style type="text/css">*{stroke-linecap:butt;stroke-linejoin:round;}</style>
 </defs>
 <g id="figure_1">
  <g id="patch_1">
   <path d="M 0 320.717436 
L 408.420288 320.717436 
L 408.420288 0 
L 0 0 
z
" style="fill:#ffffff;"/>
  </g>
  <g id="axes_1">
   <g id="patch_2">
    <path d="M 44.100288 273.312 
L 401.220288 273.312 
L 401.220288 7.2 
L 44.100288 7.2 
z
" style="fill:#ffffff;"/>
   </g>
   <g id="patch_3">
    <path clip-path="url(#p04928f32bf)" d="M 44.211888 273.312 
L 45.104688 273.312 
L 45.104688 256.935877 
L 44.211888 256.935877 
z
" style="fill:#1f77b4;"/>
   </g>
   <g id="patch_4">
    <path clip-path="url(#p04928f32bf)" d="M 45.327888 273.312 
L 46.220688 273.312 
L 46.220688 228.277662 
L 45.327888 228.277662 
z
" style="fill:#1f77b4;"/>
   </g>
   <g id="patch_5">
    <path clip-path="url(#p04928f32bf)" d="M 46.443888 273.312 
L 47.336688 273.312 
L 47.336688 228.277662 
L 46.443888 228.277662 
z
" style="fill:#1f77b4;"/>
   </g>
   <g id="patch_6">
    <path clip-path="url(#p04928f32bf)" d="M 47.559888 273.312 
L 48.452688 273.312 
L 48.452688 199.619446 
L 47.559888 199.619446 
z
" style="fill:#1f77b4;"/>
   </g>
   <g id="patch_7">
    <path clip-path="url(#p04928f32bf)" d="M 48.675888 273.312 
L 49.568688 273.312 
L 49.568688 199.619446 
L 48.675888 199.619446 
z
" style="fill:#1f77b4;"/>
   </g>
   <g id="patch_8">
    <path clip-path="url(#p04928f32bf)" d="M 49.791888 273.312 
L 50.684688 273.312 
L 50.684688 175.055262 
L 49.791888 175.055262 
z
" style="fill:#1f77b4;"/>
   </g>
   <g id="patch_9">
    <path clip-path="url(#p04928f32bf)" d="M 50.907888 273.312 
L 51.800688 273.312 
L 51.800688 150.491077 
L 50.907888 150.491077 
z
" style="fill:#1f77b4;"/>
   </g>
   <g id="patch_10">
    <path clip-path="url(#p04928f32bf)" d="M 52.023888 273.312 
L 52.916688 273.312 
L 52.916688 142.303015 
L 52.023888 142.303015 
z
" style="fill:#1f77b4;"/>
   </g>
   <g id="patch_11">
    <path clip-path="url(#p04928f32bf)" d="M 53.139888 273.312 
L 54.032688 273.312 
L 54.032688 138.208985 
L 53.139888 138.208985 
z
" style="fill:#1f77b4;"/>
   </g>
   <g id="patch_12">
    <path clip-path="url(#p04928f32bf)" d="M 54.255888 273.312 
L 55.148688 273.312 
L 55.148688 117.738831 
L 54.255888 117.738831 
z
" style="fill:#1f77b4;"/>
   </g>
   <g id="patch_13">
    <path clip-path="url(#p04928f32bf)" d="M 55.371888 273.312 
L 56.264688 273.312 
L 56.264688 109.550769 
L 55.371888 109.550769 
z
" style="fill:#1f77b4;"/>
   </g>
   <g id="patch_14">
    <path clip-path="url(#p04928f32bf)" d="M 56.487888 273.312 
L 57.380688 273.312 
L 57.380688 97.268677 
L 56.487888 97.268677 
z
" style="fill:#1f77b4;"/>
   </g>
   <g id="patch_15">
    <path clip-path="url(#p04928f32bf)" d="M 57.603888 273.312 
L 58.496688 273.312 
L 58.496688 89.080615 
L 57.603888 89.080615 
z
" style="fill:#1f77b4;"/>
   </g>
   <g id="patch_16">
    <path clip-path="url(#p04928f32bf)" d="M 58.719888 273.312 
L 59.612688 273.312 
L 59.612688 64.516431 
L 58.719888 64.516431 
z
" style="fill:#1f77b4;"/>
   </g>
   <g id="patch_17">
    <path clip-path="url(#p04928f32bf)" d="M 59.835888 273.312 
L 60.728688 273.312 
L 60.728688 44.046277 
L 59.835888 44.046277 
z
" style="fill:#1f77b4;"/>
   </g>
   <g id="patch_18">
    <path clip-path="url(#p04928f32bf)" d="M 60.951888 273.312 
L 61.844688 273.312 
L 61.844688 19.482092 
L 60.951888 19.482092 
z
" style="fill:#1f77b4;"/>
   </g>
   <g id="patch_19">
    <path clip-path="url(#p04928f32bf)" d="M 62.067888 273.312 
L 62.960688 273.312 
L 62.960688 19.482092 
L 62.067888 19.482092 
z
" style="fill:#1f77b4;"/>
   </g>
   <g id="patch_20">
    <path clip-path="url(#p04928f32bf)" d="M 63.183888 273.312 
L 64.076688 273.312 
L 64.076688 39.952246 
L 63.183888 39.952246 
z
" style="fill:#1f77b4;"/>
   </g>
   <g id="patch_21">
    <path clip-path="url(#p04928f32bf)" d="M 64.299888 273.312 
L 65.192688 273.312 
L 65.192688 27.670154 
L 64.299888 27.670154 
z
" style="fill:#1f77b4;"/>
   </g>
   <g id="patch_22">
    <path clip-path="url(#p04928f32bf)" d="M 65.415888 273.312 
L 66.308688 273.312 
L 66.308688 27.670154 
L 65.415888 27.670154 
z
" style="fill:#1f77b4;"/>
   </g>
   <g id="patch_23">
    <path clip-path="url(#p04928f32bf)" d="M 66.531888 273.312 
L 67.424688 273.312 
L 67.424688 23.576123 
L 66.531888 23.576123 
z
" style="fill:#1f77b4;"/>
   </g>
   <g id="patch_24">
    <path clip-path="url(#p04928f32bf)" d="M 67.647888 273.312 
L 68.540688 273.312 
L 68.540688 56.328369 
L 67.647888 56.328369 
z
" style="fill:#1f77b4;"/>
   </g>
   <g id="patch_25">
    <path clip-path="url(#p04928f32bf)" d="M 68.763888 273.312 
L 69.656688 273.312 
L 69.656688 60.4224 
L 68.763888 60.4224 
z
" style="fill:#1f77b4;"/>
   </g>
   <g id="patch_26">
    <path clip-path="url(#p04928f32bf)" d="M 69.879888 273.312 
L 70.772688 273.312 
L 70.772688 11.294031 
L 69.879888 11.294031 
z
" style="fill:#1f77b4;"/>
   </g>
   <g id="patch_27">
    <path clip-path="url(#p04928f32bf)" d="M 70.995888 273.312 
L 71.888688 273.312 
L 71.888688 7.2 
L 70.995888 7.2 
z
" style="fill:#1f77b4;"/>
   </g>
   <g id="patch_28">
    <path clip-path="url(#p04928f32bf)" d="M 72.111888 273.312 
L 73.004688 273.312 
L 73.004688 11.294031 
L 72.111888 11.294031 
z
" style="fill:#1f77b4;"/>
   </g>
   <g id="patch_29">
    <path clip-path="url(#p04928f32bf)" d="M 73.227888 273.312 
L 74.120688 273.312 
L 74.120688 35.858215 
L 73.227888 35.858215 
z
" style="fill:#1f77b4;"/>
   </g>
   <g id="patch_30">
    <path clip-path="url(#p04928f32bf)" d="M 74.343888 273.312 
L 75.236688 273.312 
L 75.236688 44.046277 
L 74.343888 44.046277 
z
" style="fill:#1f77b4;"/>
   </g>
   <g id="patch_31">
    <path clip-path="url(#p04928f32bf)" d="M 75.459888 273.312 
L 76.352688 273.312 
L 76.352688 89.080615 
L 75.459888 89.080615 
z
" style="fill:#1f77b4;"/>
   </g>
   <g id="patch_32">
    <path clip-path="url(#p04928f32bf)" d="M 76.575888 273.312 
L 77.468688 273.312 
L 77.468688 105.456738 
L 76.575888 105.456738 
z
" style="fill:#1f77b4;"/>
   </g>
   <g id="patch_33">
    <path clip-path="url(#p04928f32bf)" d="M 77.691888 273.312 
L 78.584688 273.312 
L 78.584688 113.6448 
L 77.691888 113.6448 
z
" style="fill:#1f77b4;"/>
   </g>
   <g id="patch_34">
    <path clip-path="url(#p04928f32bf)" d="M 78.807888 273.312 
L 79.700688 273.312 
L 79.700688 142.303015 
L 78.807888 142.303015 
z
" style="fill:#1f77b4;"/>
   </g>
   <g id="patch_35">
    <path clip-path="url(#p04928f32bf)" d="M 79.923888 273.312 
L 80.816688 273.312 
L 80.816688 134.114954 
L 79.923888 134.114954 
z
" style="fill:#1f77b4;"/>
   </g>
   <g id="patch_36">
    <path clip-path="url(#p04928f32bf)" d="M 81.039888 273.312 
L 81.932688 273.312 
L 81.932688 142.303015 
L 81.039888 142.303015 
z
" style="fill:#1f77b4;"/>
   </g>
   <g id="patch_37">
    <path clip-path="url(#p04928f32bf)" d="M 82.155888 273.312 
L 83.048688 273.312 
L 83.048688 158.679138 
L 82.155888 158.679138 
z
" style="fill:#1f77b4;"/>
   </g>
   <g id="patch_38">
    <path clip-path="url(#p04928f32bf)" d="M 83.271888 273.312 
L 84.164688 273.312 
L 84.164688 179.149292 
L 83.271888 179.149292 
z
" style="fill:#1f77b4;"/>
   </g>
   <g id="patch_39">
    <path clip-path="url(#p04928f32bf)" d="M 84.387888 273.312 
L 85.280688 273.312 
L 85.280688 195.525415 
L 84.387888 195.525415 
z
" style="fill:#1f77b4;"/>
   </g>
   <g id="patch_40">
    <path clip-path="url(#p04928f32bf)" d="M 85.503888 273.312 
L 86.396688 273.312 
L 86.396688 191.431385 
L 85.503888 191.431385 
z
" style="fill:#1f77b4;"/>
   </g>
   <g id="patch_41">
    <path clip-path="url(#p04928f32bf)" d="M 86.619888 273.312 
L 87.512688 273.312 
L 87.512688 195.525415 
L 86.619888 195.525415 
z
" style="fill:#1f77b4;"/>
   </g>
   <g id="patch_42">
    <path clip-path="url(#p04928f32bf)" d="M 87.735888 273.312 
L 88.628688 273.312 
L 88.628688 203.713477 
L 87.735888 203.713477 
z
" style="fill:#1f77b4;"/>
   </g>
   <g id="patch_43">
    <path clip-path="url(#p04928f32bf)" d="M 88.851888 273.312 
L 89.744688 273.312 
L 89.744688 207.807508 
L 88.851888 207.807508 
z
" style="fill:#1f77b4;"/>
   </g>
   <g id="patch_44">
    <path clip-path="url(#p04928f32bf)" d="M 89.967888 273.312 
L 90.860688 273.312 
L 90.860688 215.995569 
L 89.967888 215.995569 
z
" style="fill:#1f77b4;"/>
   </g>
   <g id="patch_45">
    <path clip-path="url(#p04928f32bf)" d="M 91.083888 273.312 
L 91.976688 273.312 
L 91.976688 215.995569 
L 91.083888 215.995569 
z
" style="fill:#1f77b4;"/>
   </g>
   <g id="patch_46">
    <path clip-path="url(#p04928f32bf)" d="M 92.199888 273.312 
L 93.092688 273.312 
L 93.092688 207.807508 
L 92.199888 207.807508 
z
" style="fill:#1f77b4;"/>
   </g>
   <g id="patch_47">
    <path clip-path="url(#p04928f32bf)" d="M 93.315888 273.312 
L 94.208688 273.312 
L 94.208688 211.901538 
L 93.315888 211.901538 
z
" style="fill:#1f77b4;"/>
   </g>
   <g id="patch_48">
    <path clip-path="url(#p04928f32bf)" d="M 94.431888 273.312 
L 95.324688 273.312 
L 95.324688 215.995569 
L 94.431888 215.995569 
z
" style="fill:#1f77b4;"/>
   </g>
   <g id="patch_49">
    <path clip-path="url(#p04928f32bf)" d="M 95.547888 273.312 
L 96.440688 273.312 
L 96.440688 220.0896 
L 95.547888 220.0896 
z
" style="fill:#1f77b4;"/>
   </g>
   <g id="patch_50">
    <path clip-path="url(#p04928f32bf)" d="M 96.663888 273.312 
L 97.556688 273.312 
L 97.556688 228.277662 
L 96.663888 228.277662 
z
" style="fill:#1f77b4;"/>
   </g>
   <g id="patch_51">
    <path clip-path="url(#p04928f32bf)" d="M 97.779888 273.312 
L 98.672688 273.312 
L 98.672688 232.371692 
L 97.779888 232.371692 
z
" style="fill:#1f77b4;"/>
   </g>
   <g id="patch_52">
    <path clip-path="url(#p04928f32bf)" d="M 98.895888 273.312 
L 99.788688 273.312 
L 99.788688 228.277662 
L 98.895888 228.277662 
z
" style="fill:#1f77b4;"/>
   </g>
   <g id="patch_53">
    <path clip-path="url(#p04928f32bf)" d="M 100.011888 273.312 
L 100.904688 273.312 
L 100.904688 232.371692 
L 100.011888 232.371692 
z
" style="fill:#1f77b4;"/>
   </g>
   <g id="patch_54">
    <path clip-path="url(#p04928f32bf)" d="M 101.127888 273.312 
L 102.020688 273.312 
L 102.020688 228.277662 
L 101.127888 228.277662 
z
" style="fill:#1f77b4;"/>
   </g>
   <g id="patch_55">
    <path clip-path="url(#p04928f32bf)" d="M 102.243888 273.312 
L 103.136688 273.312 
L 103.136688 228.277662 
L 102.243888 228.277662 
z
" style="fill:#1f77b4;"/>
   </g>
   <g id="patch_56">
    <path clip-path="url(#p04928f32bf)" d="M 103.359888 273.312 
L 104.252688 273.312 
L 104.252688 228.277662 
L 103.359888 228.277662 
z
" style="fill:#1f77b4;"/>
   </g>
   <g id="patch_57">
    <path clip-path="url(#p04928f32bf)" d="M 104.475888 273.312 
L 105.368688 273.312 
L 105.368688 236.465723 
L 104.475888 236.465723 
z
" style="fill:#1f77b4;"/>
   </g>
   <g id="patch_58">
    <path clip-path="url(#p04928f32bf)" d="M 105.591888 273.312 
L 106.484688 273.312 
L 106.484688 236.465723 
L 105.591888 236.465723 
z
" style="fill:#1f77b4;"/>
   </g>
   <g id="patch_59">
    <path clip-path="url(#p04928f32bf)" d="M 106.707888 273.312 
L 107.600688 273.312 
L 107.600688 240.559754 
L 106.707888 240.559754 
z
" style="fill:#1f77b4;"/>
   </g>
   <g id="patch_60">
    <path clip-path="url(#p04928f32bf)" d="M 107.823888 273.312 
L 108.716688 273.312 
L 108.716688 244.653785 
L 107.823888 244.653785 
z
" style="fill:#1f77b4;"/>
   </g>
   <g id="patch_61">
    <path clip-path="url(#p04928f32bf)" d="M 108.939888 273.312 
L 109.832688 273.312 
L 109.832688 244.653785 
L 108.939888 244.653785 
z
" style="fill:#1f77b4;"/>
   </g>
   <g id="patch_62">
    <path clip-path="url(#p04928f32bf)" d="M 110.055888 273.312 
L 110.948688 273.312 
L 110.948688 244.653785 
L 110.055888 244.653785 
z
" style="fill:#1f77b4;"/>
   </g>
   <g id="patch_63">
    <path clip-path="url(#p04928f32bf)" d="M 111.171888 273.312 
L 112.064688 273.312 
L 112.064688 244.653785 
L 111.171888 244.653785 
z
" style="fill:#1f77b4;"/>
   </g>
   <g id="patch_64">
    <path clip-path="url(#p04928f32bf)" d="M 112.287888 273.312 
L 113.180688 273.312 
L 113.180688 252.841846 
L 112.287888 252.841846 
z
" style="fill:#1f77b4;"/>
   </g>
   <g id="patch_65">
    <path clip-path="url(#p04928f32bf)" d="M 113.403888 273.312 
L 114.296688 273.312 
L 114.296688 252.841846 
L 113.403888 252.841846 
z
" style="fill:#1f77b4;"/>
   </g>
   <g id="patch_66">
    <path clip-path="url(#p04928f32bf)" d="M 114.519888 273.312 
L 115.412688 273.312 
L 115.412688 252.841846 
L 114.519888 252.841846 
z
" style="fill:#1f77b4;"/>
   </g>
   <g id="patch_67">
    <path clip-path="url(#p04928f32bf)" d="M 115.635888 273.312 
L 116.528688 273.312 
L 116.528688 248.747815 
L 115.635888 248.747815 
z
" style="fill:#1f77b4;"/>
   </g>
   <g id="patch_68">
    <path clip-path="url(#p04928f32bf)" d="M 116.751888 273.312 
L 117.644688 273.312 
L 117.644688 248.747815 
L 116.751888 248.747815 
z
" style="fill:#1f77b4;"/>
   </g>
   <g id="patch_69">
    <path clip-path="url(#p04928f32bf)" d="M 117.867888 273.312 
L 118.760688 273.312 
L 118.760688 252.841846 
L 117.867888 252.841846 
z
" style="fill:#1f77b4;"/>
   </g>
   <g id="patch_70">
    <path clip-path="url(#p04928f32bf)" d="M 118.983888 273.312 
L 119.876688 273.312 
L 119.876688 252.841846 
L 118.983888 252.841846 
z
" style="fill:#1f77b4;"/>
   </g>
   <g id="patch_71">
    <path clip-path="url(#p04928f32bf)" d="M 120.099888 273.312 
L 120.992688 273.312 
L 120.992688 252.841846 
L 120.099888 252.841846 
z
" style="fill:#1f77b4;"/>
   </g>
   <g id="patch_72">
    <path clip-path="url(#p04928f32bf)" d="M 121.215888 273.312 
L 122.108688 273.312 
L 122.108688 252.841846 
L 121.215888 252.841846 
z
" style="fill:#1f77b4;"/>
   </g>
   <g id="patch_73">
    <path clip-path="url(#p04928f32bf)" d="M 122.331888 273.312 
L 123.224688 273.312 
L 123.224688 252.841846 
L 122.331888 252.841846 
z
" style="fill:#1f77b4;"/>
   </g>
   <g id="patch_74">
    <path clip-path="url(#p04928f32bf)" d="M 123.447888 273.312 
L 124.340688 273.312 
L 124.340688 252.841846 
L 123.447888 252.841846 
z
" style="fill:#1f77b4;"/>
   </g>
   <g id="patch_75">
    <path clip-path="url(#p04928f32bf)" d="M 124.563888 273.312 
L 125.456688 273.312 
L 125.456688 252.841846 
L 124.563888 252.841846 
z
" style="fill:#1f77b4;"/>
   </g>
   <g id="patch_76">
    <path clip-path="url(#p04928f32bf)" d="M 125.679888 273.312 
L 126.572688 273.312 
L 126.572688 252.841846 
L 125.679888 252.841846 
z
" style="fill:#1f77b4;"/>
   </g>
   <g id="patch_77">
    <path clip-path="url(#p04928f32bf)" d="M 126.795888 273.312 
L 127.688688 273.312 
L 127.688688 252.841846 
L 126.795888 252.841846 
z
" style="fill:#1f77b4;"/>
   </g>
   <g id="patch_78">
    <path clip-path="url(#p04928f32bf)" d="M 127.911888 273.312 
L 128.804688 273.312 
L 128.804688 252.841846 
L 127.911888 252.841846 
z
" style="fill:#1f77b4;"/>
   </g>
   <g id="patch_79">
    <path clip-path="url(#p04928f32bf)" d="M 129.027888 273.312 
L 129.920688 273.312 
L 129.920688 256.935877 
L 129.027888 256.935877 
z
" style="fill:#1f77b4;"/>
   </g>
   <g id="patch_80">
    <path clip-path="url(#p04928f32bf)" d="M 130.143888 273.312 
L 131.036688 273.312 
L 131.036688 256.935877 
L 130.143888 256.935877 
z
" style="fill:#1f77b4;"/>
   </g>
   <g id="patch_81">
    <path clip-path="url(#p04928f32bf)" d="M 131.259888 273.312 
L 132.152688 273.312 
L 132.152688 256.935877 
L 131.259888 256.935877 
z
" style="fill:#1f77b4;"/>
   </g>
   <g id="patch_82">
    <path clip-path="url(#p04928f32bf)" d="M 132.375888 273.312 
L 133.268688 273.312 
L 133.268688 261.029908 
L 132.375888 261.029908 
z
" style="fill:#1f77b4;"/>
   </g>
   <g id="patch_83">
    <path clip-path="url(#p04928f32bf)" d="M 133.491888 273.312 
L 134.384688 273.312 
L 134.384688 261.029908 
L 133.491888 261.029908 
z
" style="fill:#1f77b4;"/>
   </g>
   <g id="patch_84">
    <path clip-path="url(#p04928f32bf)" d="M 134.607888 273.312 
L 135.500688 273.312 
L 135.500688 265.123938 
L 134.607888 265.123938 
z
" style="fill:#1f77b4;"/>
   </g>
   <g id="patch_85">
    <path clip-path="url(#p04928f32bf)" d="M 135.723888 273.312 
L 136.616688 273.312 
L 136.616688 265.123938 
L 135.723888 265.123938 
z
" style="fill:#1f77b4;"/>
   </g>
   <g id="patch_86">
    <path clip-path="url(#p04928f32bf)" d="M 136.839888 273.312 
L 137.732688 273.312 
L 137.732688 265.123938 
L 136.839888 265.123938 
z
" style="fill:#1f77b4;"/>
   </g>
   <g id="patch_87">
    <path clip-path="url(#p04928f32bf)" d="M 137.955888 273.312 
L 138.848688 273.312 
L 138.848688 265.123938 
L 137.955888 265.123938 
z
" style="fill:#1f77b4;"/>
   </g>
   <g id="patch_88">
    <path clip-path="url(#p04928f32bf)" d="M 139.071888 273.312 
L 139.964688 273.312 
L 139.964688 265.123938 
L 139.071888 265.123938 
z
" style="fill:#1f77b4;"/>
   </g>
   <g id="patch_89">
    <path clip-path="url(#p04928f32bf)" d="M 140.187888 273.312 
L 141.080688 273.312 
L 141.080688 265.123938 
L 140.187888 265.123938 
z
" style="fill:#1f77b4;"/>
   </g>
   <g id="patch_90">
    <path clip-path="url(#p04928f32bf)" d="M 141.303888 273.312 
L 142.196688 273.312 
L 142.196688 265.123938 
L 141.303888 265.123938 
z
" style="fill:#1f77b4;"/>
   </g>
   <g id="patch_91">
    <path clip-path="url(#p04928f32bf)" d="M 142.419888 273.312 
L 143.312688 273.312 
L 143.312688 265.123938 
L 142.419888 265.123938 
z
" style="fill:#1f77b4;"/>
   </g>
   <g id="patch_92">
    <path clip-path="url(#p04928f32bf)" d="M 143.535888 273.312 
L 144.428688 273.312 
L 144.428688 265.123938 
L 143.535888 265.123938 
z
" style="fill:#1f77b4;"/>
   </g>
   <g id="patch_93">
    <path clip-path="url(#p04928f32bf)" d="M 144.651888 273.312 
L 145.544688 273.312 
L 145.544688 265.123938 
L 144.651888 265.123938 
z
" style="fill:#1f77b4;"/>
   </g>
   <g id="patch_94">
    <path clip-path="url(#p04928f32bf)" d="M 145.767888 273.312 
L 146.660688 273.312 
L 146.660688 265.123938 
L 145.767888 265.123938 
z
" style="fill:#1f77b4;"/>
   </g>
   <g id="patch_95">
    <path clip-path="url(#p04928f32bf)" d="M 146.883888 273.312 
L 147.776688 273.312 
L 147.776688 269.217969 
L 146.883888 269.217969 
z
" style="fill:#1f77b4;"/>
   </g>
   <g id="patch_96">
    <path clip-path="url(#p04928f32bf)" d="M 147.999888 273.312 
L 148.892688 273.312 
L 148.892688 269.217969 
L 147.999888 269.217969 
z
" style="fill:#1f77b4;"/>
   </g>
   <g id="patch_97">
    <path clip-path="url(#p04928f32bf)" d="M 149.115888 273.312 
L 150.008688 273.312 
L 150.008688 269.217969 
L 149.115888 269.217969 
z
" style="fill:#1f77b4;"/>
   </g>
   <g id="patch_98">
    <path clip-path="url(#p04928f32bf)" d="M 150.231888 273.312 
L 151.124688 273.312 
L 151.124688 265.123938 
L 150.231888 265.123938 
z
" style="fill:#1f77b4;"/>
   </g>
   <g id="patch_99">
    <path clip-path="url(#p04928f32bf)" d="M 151.347888 273.312 
L 152.240688 273.312 
L 152.240688 269.217969 
L 151.347888 269.217969 
z
" style="fill:#1f77b4;"/>
   </g>
   <g id="patch_100">
    <path clip-path="url(#p04928f32bf)" d="M 152.463888 273.312 
L 153.356688 273.312 
L 153.356688 269.217969 
L 152.463888 269.217969 
z
" style="fill:#1f77b4;"/>
   </g>
   <g id="patch_101">
    <path clip-path="url(#p04928f32bf)" d="M 153.579888 273.312 
L 154.472688 273.312 
L 154.472688 269.217969 
L 153.579888 269.217969 
z
" style="fill:#1f77b4;"/>
   </g>
   <g id="patch_102">
    <path clip-path="url(#p04928f32bf)" d="M 154.695888 273.312 
L 155.588688 273.312 
L 155.588688 269.217969 
L 154.695888 269.217969 
z
" style="fill:#1f77b4;"/>
   </g>
   <g id="patch_103">
    <path clip-path="url(#p04928f32bf)" d="M 155.811888 273.312 
L 156.704688 273.312 
L 156.704688 269.217969 
L 155.811888 269.217969 
z
" style="fill:#1f77b4;"/>
   </g>
   <g id="patch_104">
    <path clip-path="url(#p04928f32bf)" d="M 156.927888 273.312 
L 157.820688 273.312 
L 157.820688 269.217969 
L 156.927888 269.217969 
z
" style="fill:#1f77b4;"/>
   </g>
   <g id="patch_105">
    <path clip-path="url(#p04928f32bf)" d="M 158.043888 273.312 
L 158.936688 273.312 
L 158.936688 269.217969 
L 158.043888 269.217969 
z
" style="fill:#1f77b4;"/>
   </g>
   <g id="patch_106">
    <path clip-path="url(#p04928f32bf)" d="M 159.159888 273.312 
L 160.052688 273.312 
L 160.052688 269.217969 
L 159.159888 269.217969 
z
" style="fill:#1f77b4;"/>
   </g>
   <g id="patch_107">
    <path clip-path="url(#p04928f32bf)" d="M 160.275888 273.312 
L 161.168688 273.312 
L 161.168688 269.217969 
L 160.275888 269.217969 
z
" style="fill:#1f77b4;"/>
   </g>
   <g id="patch_108">
    <path clip-path="url(#p04928f32bf)" d="M 161.391888 273.312 
L 162.284688 273.312 
L 162.284688 269.217969 
L 161.391888 269.217969 
z
" style="fill:#1f77b4;"/>
   </g>
   <g id="patch_109">
    <path clip-path="url(#p04928f32bf)" d="M 162.507888 273.312 
L 163.400688 273.312 
L 163.400688 269.217969 
L 162.507888 269.217969 
z
" style="fill:#1f77b4;"/>
   </g>
   <g id="patch_110">
    <path clip-path="url(#p04928f32bf)" d="M 163.623888 273.312 
L 164.516688 273.312 
L 164.516688 269.217969 
L 163.623888 269.217969 
z
" style="fill:#1f77b4;"/>
   </g>
   <g id="patch_111">
    <path clip-path="url(#p04928f32bf)" d="M 164.739888 273.312 
L 165.632688 273.312 
L 165.632688 269.217969 
L 164.739888 269.217969 
z
" style="fill:#1f77b4;"/>
   </g>
   <g id="patch_112">
    <path clip-path="url(#p04928f32bf)" d="M 165.855888 273.312 
L 166.748688 273.312 
L 166.748688 273.312 
L 165.855888 273.312 
z
" style="fill:#1f77b4;"/>
   </g>
   <g id="patch_113">
    <path clip-path="url(#p04928f32bf)" d="M 166.971888 273.312 
L 167.864688 273.312 
L 167.864688 273.312 
L 166.971888 273.312 
z
" style="fill:#1f77b4;"/>
   </g>
   <g id="patch_114">
    <path clip-path="url(#p04928f32bf)" d="M 168.087888 273.312 
L 168.980688 273.312 
L 168.980688 273.312 
L 168.087888 273.312 
z
" style="fill:#1f77b4;"/>
   </g>
   <g id="patch_115">
    <path clip-path="url(#p04928f32bf)" d="M 169.203888 273.312 
L 170.096688 273.312 
L 170.096688 273.312 
L 169.203888 273.312 
z
" style="fill:#1f77b4;"/>
   </g>
   <g id="patch_116">
    <path clip-path="url(#p04928f32bf)" d="M 170.319888 273.312 
L 171.212688 273.312 
L 171.212688 273.312 
L 170.319888 273.312 
z
" style="fill:#1f77b4;"/>
   </g>
   <g id="patch_117">
    <path clip-path="url(#p04928f32bf)" d="M 171.435888 273.312 
L 172.328688 273.312 
L 172.328688 273.312 
L 171.435888 273.312 
z
" style="fill:#1f77b4;"/>
   </g>
   <g id="patch_118">
    <path clip-path="url(#p04928f32bf)" d="M 172.551888 273.312 
L 173.444688 273.312 
L 173.444688 273.312 
L 172.551888 273.312 
z
" style="fill:#1f77b4;"/>
   </g>
   <g id="patch_119">
    <path clip-path="url(#p04928f32bf)" d="M 173.667888 273.312 
L 174.560688 273.312 
L 174.560688 273.312 
L 173.667888 273.312 
z
" style="fill:#1f77b4;"/>
   </g>
   <g id="patch_120">
    <path clip-path="url(#p04928f32bf)" d="M 174.783888 273.312 
L 175.676688 273.312 
L 175.676688 273.312 
L 174.783888 273.312 
z
" style="fill:#1f77b4;"/>
   </g>
   <g id="patch_121">
    <path clip-path="url(#p04928f32bf)" d="M 175.899888 273.312 
L 176.792688 273.312 
L 176.792688 273.312 
L 175.899888 273.312 
z
" style="fill:#1f77b4;"/>
   </g>
   <g id="patch_122">
    <path clip-path="url(#p04928f32bf)" d="M 177.015888 273.312 
L 177.908688 273.312 
L 177.908688 273.312 
L 177.015888 273.312 
z
" style="fill:#1f77b4;"/>
   </g>
   <g id="patch_123">
    <path clip-path="url(#p04928f32bf)" d="M 178.131888 273.312 
L 179.024688 273.312 
L 179.024688 273.312 
L 178.131888 273.312 
z
" style="fill:#1f77b4;"/>
   </g>
   <g id="patch_124">
    <path clip-path="url(#p04928f32bf)" d="M 179.247888 273.312 
L 180.140688 273.312 
L 180.140688 273.312 
L 179.247888 273.312 
z
" style="fill:#1f77b4;"/>
   </g>
   <g id="patch_125">
    <path clip-path="url(#p04928f32bf)" d="M 180.363888 273.312 
L 181.256688 273.312 
L 181.256688 273.312 
L 180.363888 273.312 
z
" style="fill:#1f77b4;"/>
   </g>
   <g id="patch_126">
    <path clip-path="url(#p04928f32bf)" d="M 181.479888 273.312 
L 182.372688 273.312 
L 182.372688 273.312 
L 181.479888 273.312 
z
" style="fill:#1f77b4;"/>
   </g>
   <g id="patch_127">
    <path clip-path="url(#p04928f32bf)" d="M 182.595888 273.312 
L 183.488688 273.312 
L 183.488688 273.312 
L 182.595888 273.312 
z
" style="fill:#1f77b4;"/>
   </g>
   <g id="patch_128">
    <path clip-path="url(#p04928f32bf)" d="M 183.711888 273.312 
L 184.604688 273.312 
L 184.604688 273.312 
L 183.711888 273.312 
z
" style="fill:#1f77b4;"/>
   </g>
   <g id="patch_129">
    <path clip-path="url(#p04928f32bf)" d="M 184.827888 273.312 
L 185.720688 273.312 
L 185.720688 273.312 
L 184.827888 273.312 
z
" style="fill:#1f77b4;"/>
   </g>
   <g id="patch_130">
    <path clip-path="url(#p04928f32bf)" d="M 185.943888 273.312 
L 186.836688 273.312 
L 186.836688 273.312 
L 185.943888 273.312 
z
" style="fill:#1f77b4;"/>
   </g>
   <g id="patch_131">
    <path clip-path="url(#p04928f32bf)" d="M 187.059888 273.312 
L 187.952688 273.312 
L 187.952688 273.312 
L 187.059888 273.312 
z
" style="fill:#1f77b4;"/>
   </g>
   <g id="patch_132">
    <path clip-path="url(#p04928f32bf)" d="M 188.175888 273.312 
L 189.068688 273.312 
L 189.068688 273.312 
L 188.175888 273.312 
z
" style="fill:#1f77b4;"/>
   </g>
   <g id="patch_133">
    <path clip-path="url(#p04928f32bf)" d="M 189.291888 273.312 
L 190.184688 273.312 
L 190.184688 273.312 
L 189.291888 273.312 
z
" style="fill:#1f77b4;"/>
   </g>
   <g id="patch_134">
    <path clip-path="url(#p04928f32bf)" d="M 190.407888 273.312 
L 191.300688 273.312 
L 191.300688 273.312 
L 190.407888 273.312 
z
" style="fill:#1f77b4;"/>
   </g>
   <g id="patch_135">
    <path clip-path="url(#p04928f32bf)" d="M 191.523888 273.312 
L 192.416688 273.312 
L 192.416688 273.312 
L 191.523888 273.312 
z
" style="fill:#1f77b4;"/>
   </g>
   <g id="patch_136">
    <path clip-path="url(#p04928f32bf)" d="M 192.639888 273.312 
L 193.532688 273.312 
L 193.532688 273.312 
L 192.639888 273.312 
z
" style="fill:#1f77b4;"/>
   </g>
   <g id="patch_137">
    <path clip-path="url(#p04928f32bf)" d="M 193.755888 273.312 
L 194.648688 273.312 
L 194.648688 273.312 
L 193.755888 273.312 
z
" style="fill:#1f77b4;"/>
   </g>
   <g id="patch_138">
    <path clip-path="url(#p04928f32bf)" d="M 194.871888 273.312 
L 195.764688 273.312 
L 195.764688 273.312 
L 194.871888 273.312 
z
" style="fill:#1f77b4;"/>
   </g>
   <g id="patch_139">
    <path clip-path="url(#p04928f32bf)" d="M 195.987888 273.312 
L 196.880688 273.312 
L 196.880688 269.217969 
L 195.987888 269.217969 
z
" style="fill:#1f77b4;"/>
   </g>
   <g id="patch_140">
    <path clip-path="url(#p04928f32bf)" d="M 197.103888 273.312 
L 197.996688 273.312 
L 197.996688 269.217969 
L 197.103888 269.217969 
z
" style="fill:#1f77b4;"/>
   </g>
   <g id="patch_141">
    <path clip-path="url(#p04928f32bf)" d="M 198.219888 273.312 
L 199.112688 273.312 
L 199.112688 269.217969 
L 198.219888 269.217969 
z
" style="fill:#1f77b4;"/>
   </g>
   <g id="patch_142">
    <path clip-path="url(#p04928f32bf)" d="M 199.335888 273.312 
L 200.228688 273.312 
L 200.228688 269.217969 
L 199.335888 269.217969 
z
" style="fill:#1f77b4;"/>
   </g>
   <g id="patch_143">
    <path clip-path="url(#p04928f32bf)" d="M 200.451888 273.312 
L 201.344688 273.312 
L 201.344688 273.312 
L 200.451888 273.312 
z
" style="fill:#1f77b4;"/>
   </g>
   <g id="patch_144">
    <path clip-path="url(#p04928f32bf)" d="M 201.567888 273.312 
L 202.460688 273.312 
L 202.460688 273.312 
L 201.567888 273.312 
z
" style="fill:#1f77b4;"/>
   </g>
   <g id="patch_145">
    <path clip-path="url(#p04928f32bf)" d="M 202.683888 273.312 
L 203.576688 273.312 
L 203.576688 273.312 
L 202.683888 273.312 
z
" style="fill:#1f77b4;"/>
   </g>
   <g id="patch_146">
    <path clip-path="url(#p04928f32bf)" d="M 203.799888 273.312 
L 204.692688 273.312 
L 204.692688 273.312 
L 203.799888 273.312 
z
" style="fill:#1f77b4;"/>
   </g>
   <g id="patch_147">
    <path clip-path="url(#p04928f32bf)" d="M 204.915888 273.312 
L 205.808688 273.312 
L 205.808688 273.312 
L 204.915888 273.312 
z
" style="fill:#1f77b4;"/>
   </g>
   <g id="patch_148">
    <path clip-path="url(#p04928f32bf)" d="M 206.031888 273.312 
L 206.924688 273.312 
L 206.924688 273.312 
L 206.031888 273.312 
z
" style="fill:#1f77b4;"/>
   </g>
   <g id="patch_149">
    <path clip-path="url(#p04928f32bf)" d="M 207.147888 273.312 
L 208.040688 273.312 
L 208.040688 273.312 
L 207.147888 273.312 
z
" style="fill:#1f77b4;"/>
   </g>
   <g id="patch_150">
    <path clip-path="url(#p04928f32bf)" d="M 208.263888 273.312 
L 209.156688 273.312 
L 209.156688 273.312 
L 208.263888 273.312 
z
" style="fill:#1f77b4;"/>
   </g>
   <g id="patch_151">
    <path clip-path="url(#p04928f32bf)" d="M 209.379888 273.312 
L 210.272688 273.312 
L 210.272688 273.312 
L 209.379888 273.312 
z
" style="fill:#1f77b4;"/>
   </g>
   <g id="patch_152">
    <path clip-path="url(#p04928f32bf)" d="M 210.495888 273.312 
L 211.388688 273.312 
L 211.388688 273.312 
L 210.495888 273.312 
z
" style="fill:#1f77b4;"/>
   </g>
   <g id="patch_153">
    <path clip-path="url(#p04928f32bf)" d="M 211.611888 273.312 
L 212.504688 273.312 
L 212.504688 273.312 
L 211.611888 273.312 
z
" style="fill:#1f77b4;"/>
   </g>
   <g id="patch_154">
    <path clip-path="url(#p04928f32bf)" d="M 212.727888 273.312 
L 213.620688 273.312 
L 213.620688 269.217969 
L 212.727888 269.217969 
z
" style="fill:#1f77b4;"/>
   </g>
   <g id="patch_155">
    <path clip-path="url(#p04928f32bf)" d="M 213.843888 273.312 
L 214.736688 273.312 
L 214.736688 269.217969 
L 213.843888 269.217969 
z
" style="fill:#1f77b4;"/>
   </g>
   <g id="patch_156">
    <path clip-path="url(#p04928f32bf)" d="M 214.959888 273.312 
L 215.852688 273.312 
L 215.852688 269.217969 
L 214.959888 269.217969 
z
" style="fill:#1f77b4;"/>
   </g>
   <g id="patch_157">
    <path clip-path="url(#p04928f32bf)" d="M 216.075888 273.312 
L 216.968688 273.312 
L 216.968688 269.217969 
L 216.075888 269.217969 
z
" style="fill:#1f77b4;"/>
   </g>
   <g id="patch_158">
    <path clip-path="url(#p04928f32bf)" d="M 217.191888 273.312 
L 218.084688 273.312 
L 218.084688 269.217969 
L 217.191888 269.217969 
z
" style="fill:#1f77b4;"/>
   </g>
   <g id="patch_159">
    <path clip-path="url(#p04928f32bf)" d="M 218.307888 273.312 
L 219.200688 273.312 
L 219.200688 269.217969 
L 218.307888 269.217969 
z
" style="fill:#1f77b4;"/>
   </g>
   <g id="patch_160">
    <path clip-path="url(#p04928f32bf)" d="M 219.423888 273.312 
L 220.316688 273.312 
L 220.316688 269.217969 
L 219.423888 269.217969 
z
" style="fill:#1f77b4;"/>
   </g>
   <g id="patch_161">
    <path clip-path="url(#p04928f32bf)" d="M 220.539888 273.312 
L 221.432688 273.312 
L 221.432688 269.217969 
L 220.539888 269.217969 
z
" style="fill:#1f77b4;"/>
   </g>
   <g id="patch_162">
    <path clip-path="url(#p04928f32bf)" d="M 221.655888 273.312 
L 222.548688 273.312 
L 222.548688 269.217969 
L 221.655888 269.217969 
z
" style="fill:#1f77b4;"/>
   </g>
   <g id="patch_163">
    <path clip-path="url(#p04928f32bf)" d="M 222.771888 273.312 
L 223.664688 273.312 
L 223.664688 269.217969 
L 222.771888 269.217969 
z
" style="fill:#1f77b4;"/>
   </g>
   <g id="patch_164">
    <path clip-path="url(#p04928f32bf)" d="M 223.887888 273.312 
L 224.780688 273.312 
L 224.780688 269.217969 
L 223.887888 269.217969 
z
" style="fill:#1f77b4;"/>
   </g>
   <g id="patch_165">
    <path clip-path="url(#p04928f32bf)" d="M 225.003888 273.312 
L 225.896688 273.312 
L 225.896688 269.217969 
L 225.003888 269.217969 
z
" style="fill:#1f77b4;"/>
   </g>
   <g id="patch_166">
    <path clip-path="url(#p04928f32bf)" d="M 226.119888 273.312 
L 227.012688 273.312 
L 227.012688 269.217969 
L 226.119888 269.217969 
z
" style="fill:#1f77b4;"/>
   </g>
   <g id="patch_167">
    <path clip-path="url(#p04928f32bf)" d="M 227.235888 273.312 
L 228.128688 273.312 
L 228.128688 269.217969 
L 227.235888 269.217969 
z
" style="fill:#1f77b4;"/>
   </g>
   <g id="patch_168">
    <path clip-path="url(#p04928f32bf)" d="M 228.351888 273.312 
L 229.244688 273.312 
L 229.244688 269.217969 
L 228.351888 269.217969 
z
" style="fill:#1f77b4;"/>
   </g>
   <g id="patch_169">
    <path clip-path="url(#p04928f32bf)" d="M 229.467888 273.312 
L 230.360688 273.312 
L 230.360688 269.217969 
L 229.467888 269.217969 
z
" style="fill:#1f77b4;"/>
   </g>
   <g id="patch_170">
    <path clip-path="url(#p04928f32bf)" d="M 230.583888 273.312 
L 231.476688 273.312 
L 231.476688 265.123938 
L 230.583888 265.123938 
z
" style="fill:#1f77b4;"/>
   </g>
   <g id="patch_171">
    <path clip-path="url(#p04928f32bf)" d="M 231.699888 273.312 
L 232.592688 273.312 
L 232.592688 265.123938 
L 231.699888 265.123938 
z
" style="fill:#1f77b4;"/>
   </g>
   <g id="patch_172">
    <path clip-path="url(#p04928f32bf)" d="M 232.815888 273.312 
L 233.708688 273.312 
L 233.708688 265.123938 
L 232.815888 265.123938 
z
" style="fill:#1f77b4;"/>
   </g>
   <g id="patch_173">
    <path clip-path="url(#p04928f32bf)" d="M 233.931888 273.312 
L 234.824688 273.312 
L 234.824688 265.123938 
L 233.931888 265.123938 
z
" style="fill:#1f77b4;"/>
   </g>
   <g id="patch_174">
    <path clip-path="url(#p04928f32bf)" d="M 235.047888 273.312 
L 235.940688 273.312 
L 235.940688 265.123938 
L 235.047888 265.123938 
z
" style="fill:#1f77b4;"/>
   </g>
   <g id="patch_175">
    <path clip-path="url(#p04928f32bf)" d="M 236.163888 273.312 
L 237.056688 273.312 
L 237.056688 265.123938 
L 236.163888 265.123938 
z
" style="fill:#1f77b4;"/>
   </g>
   <g id="patch_176">
    <path clip-path="url(#p04928f32bf)" d="M 237.279888 273.312 
L 238.172688 273.312 
L 238.172688 265.123938 
L 237.279888 265.123938 
z
" style="fill:#1f77b4;"/>
   </g>
   <g id="patch_177">
    <path clip-path="url(#p04928f32bf)" d="M 238.395888 273.312 
L 239.288688 273.312 
L 239.288688 265.123938 
L 238.395888 265.123938 
z
" style="fill:#1f77b4;"/>
   </g>
   <g id="patch_178">
    <path clip-path="url(#p04928f32bf)" d="M 239.511888 273.312 
L 240.404688 273.312 
L 240.404688 265.123938 
L 239.511888 265.123938 
z
" style="fill:#1f77b4;"/>
   </g>
   <g id="patch_179">
    <path clip-path="url(#p04928f32bf)" d="M 240.627888 273.312 
L 241.520688 273.312 
L 241.520688 265.123938 
L 240.627888 265.123938 
z
" style="fill:#1f77b4;"/>
   </g>
   <g id="patch_180">
    <path clip-path="url(#p04928f32bf)" d="M 241.743888 273.312 
L 242.636688 273.312 
L 242.636688 273.312 
L 241.743888 273.312 
z
" style="fill:#1f77b4;"/>
   </g>
   <g id="patch_181">
    <path clip-path="url(#p04928f32bf)" d="M 242.859888 273.312 
L 243.752688 273.312 
L 243.752688 273.312 
L 242.859888 273.312 
z
" style="fill:#1f77b4;"/>
   </g>
   <g id="patch_182">
    <path clip-path="url(#p04928f32bf)" d="M 243.975888 273.312 
L 244.868688 273.312 
L 244.868688 273.312 
L 243.975888 273.312 
z
" style="fill:#1f77b4;"/>
   </g>
   <g id="patch_183">
    <path clip-path="url(#p04928f32bf)" d="M 245.091888 273.312 
L 245.984688 273.312 
L 245.984688 273.312 
L 245.091888 273.312 
z
" style="fill:#1f77b4;"/>
   </g>
   <g id="patch_184">
    <path clip-path="url(#p04928f32bf)" d="M 246.207888 273.312 
L 247.100688 273.312 
L 247.100688 273.312 
L 246.207888 273.312 
z
" style="fill:#1f77b4;"/>
   </g>
   <g id="patch_185">
    <path clip-path="url(#p04928f32bf)" d="M 247.323888 273.312 
L 248.216688 273.312 
L 248.216688 273.312 
L 247.323888 273.312 
z
" style="fill:#1f77b4;"/>
   </g>
   <g id="patch_186">
    <path clip-path="url(#p04928f32bf)" d="M 248.439888 273.312 
L 249.332688 273.312 
L 249.332688 273.312 
L 248.439888 273.312 
z
" style="fill:#1f77b4;"/>
   </g>
   <g id="patch_187">
    <path clip-path="url(#p04928f32bf)" d="M 249.555888 273.312 
L 250.448688 273.312 
L 250.448688 269.217969 
L 249.555888 269.217969 
z
" style="fill:#1f77b4;"/>
   </g>
   <g id="patch_188">
    <path clip-path="url(#p04928f32bf)" d="M 250.671888 273.312 
L 251.564688 273.312 
L 251.564688 265.123938 
L 250.671888 265.123938 
z
" style="fill:#1f77b4;"/>
   </g>
   <g id="patch_189">
    <path clip-path="url(#p04928f32bf)" d="M 251.787888 273.312 
L 252.680688 273.312 
L 252.680688 265.123938 
L 251.787888 265.123938 
z
" style="fill:#1f77b4;"/>
   </g>
   <g id="patch_190">
    <path clip-path="url(#p04928f32bf)" d="M 252.903888 273.312 
L 253.796688 273.312 
L 253.796688 265.123938 
L 252.903888 265.123938 
z
" style="fill:#1f77b4;"/>
   </g>
   <g id="patch_191">
    <path clip-path="url(#p04928f32bf)" d="M 254.019888 273.312 
L 254.912688 273.312 
L 254.912688 265.123938 
L 254.019888 265.123938 
z
" style="fill:#1f77b4;"/>
   </g>
   <g id="patch_192">
    <path clip-path="url(#p04928f32bf)" d="M 255.135888 273.312 
L 256.028688 273.312 
L 256.028688 265.123938 
L 255.135888 265.123938 
z
" style="fill:#1f77b4;"/>
   </g>
   <g id="patch_193">
    <path clip-path="url(#p04928f32bf)" d="M 256.251888 273.312 
L 257.144688 273.312 
L 257.144688 269.217969 
L 256.251888 269.217969 
z
" style="fill:#1f77b4;"/>
   </g>
   <g id="patch_194">
    <path clip-path="url(#p04928f32bf)" d="M 257.367888 273.312 
L 258.260688 273.312 
L 258.260688 269.217969 
L 257.367888 269.217969 
z
" style="fill:#1f77b4;"/>
   </g>
   <g id="patch_195">
    <path clip-path="url(#p04928f32bf)" d="M 258.483888 273.312 
L 259.376688 273.312 
L 259.376688 269.217969 
L 258.483888 269.217969 
z
" style="fill:#1f77b4;"/>
   </g>
   <g id="patch_196">
    <path clip-path="url(#p04928f32bf)" d="M 259.599888 273.312 
L 260.492688 273.312 
L 260.492688 269.217969 
L 259.599888 269.217969 
z
" style="fill:#1f77b4;"/>
   </g>
   <g id="patch_197">
    <path clip-path="url(#p04928f32bf)" d="M 260.715888 273.312 
L 261.608688 273.312 
L 261.608688 269.217969 
L 260.715888 269.217969 
z
" style="fill:#1f77b4;"/>
   </g>
   <g id="patch_198">
    <path clip-path="url(#p04928f32bf)" d="M 261.831888 273.312 
L 262.724688 273.312 
L 262.724688 273.312 
L 261.831888 273.312 
z
" style="fill:#1f77b4;"/>
   </g>
   <g id="patch_199">
    <path clip-path="url(#p04928f32bf)" d="M 262.947888 273.312 
L 263.840688 273.312 
L 263.840688 273.312 
L 262.947888 273.312 
z
" style="fill:#1f77b4;"/>
   </g>
   <g id="patch_200">
    <path clip-path="url(#p04928f32bf)" d="M 264.063888 273.312 
L 264.956688 273.312 
L 264.956688 273.312 
L 264.063888 273.312 
z
" style="fill:#1f77b4;"/>
   </g>
   <g id="patch_201">
    <path clip-path="url(#p04928f32bf)" d="M 265.179888 273.312 
L 266.072688 273.312 
L 266.072688 273.312 
L 265.179888 273.312 
z
" style="fill:#1f77b4;"/>
   </g>
   <g id="patch_202">
    <path clip-path="url(#p04928f32bf)" d="M 266.295888 273.312 
L 267.188688 273.312 
L 267.188688 273.312 
L 266.295888 273.312 
z
" style="fill:#1f77b4;"/>
   </g>
   <g id="patch_203">
    <path clip-path="url(#p04928f32bf)" d="M 267.411888 273.312 
L 268.304688 273.312 
L 268.304688 273.312 
L 267.411888 273.312 
z
" style="fill:#1f77b4;"/>
   </g>
   <g id="patch_204">
    <path clip-path="url(#p04928f32bf)" d="M 268.527888 273.312 
L 269.420688 273.312 
L 269.420688 273.312 
L 268.527888 273.312 
z
" style="fill:#1f77b4;"/>
   </g>
   <g id="patch_205">
    <path clip-path="url(#p04928f32bf)" d="M 269.643888 273.312 
L 270.536688 273.312 
L 270.536688 273.312 
L 269.643888 273.312 
z
" style="fill:#1f77b4;"/>
   </g>
   <g id="patch_206">
    <path clip-path="url(#p04928f32bf)" d="M 270.759888 273.312 
L 271.652688 273.312 
L 271.652688 273.312 
L 270.759888 273.312 
z
" style="fill:#1f77b4;"/>
   </g>
   <g id="patch_207">
    <path clip-path="url(#p04928f32bf)" d="M 271.875888 273.312 
L 272.768688 273.312 
L 272.768688 273.312 
L 271.875888 273.312 
z
" style="fill:#1f77b4;"/>
   </g>
   <g id="patch_208">
    <path clip-path="url(#p04928f32bf)" d="M 272.991888 273.312 
L 273.884688 273.312 
L 273.884688 273.312 
L 272.991888 273.312 
z
" style="fill:#1f77b4;"/>
   </g>
   <g id="patch_209">
    <path clip-path="url(#p04928f32bf)" d="M 274.107888 273.312 
L 275.000688 273.312 
L 275.000688 269.217969 
L 274.107888 269.217969 
z
" style="fill:#1f77b4;"/>
   </g>
   <g id="patch_210">
    <path clip-path="url(#p04928f32bf)" d="M 275.223888 273.312 
L 276.116688 273.312 
L 276.116688 269.217969 
L 275.223888 269.217969 
z
" style="fill:#1f77b4;"/>
   </g>
   <g id="patch_211">
    <path clip-path="url(#p04928f32bf)" d="M 276.339888 273.312 
L 277.232688 273.312 
L 277.232688 265.123938 
L 276.339888 265.123938 
z
" style="fill:#1f77b4;"/>
   </g>
   <g id="patch_212">
    <path clip-path="url(#p04928f32bf)" d="M 277.455888 273.312 
L 278.348688 273.312 
L 278.348688 265.123938 
L 277.455888 265.123938 
z
" style="fill:#1f77b4;"/>
   </g>
   <g id="patch_213">
    <path clip-path="url(#p04928f32bf)" d="M 278.571888 273.312 
L 279.464688 273.312 
L 279.464688 269.217969 
L 278.571888 269.217969 
z
" style="fill:#1f77b4;"/>
   </g>
   <g id="patch_214">
    <path clip-path="url(#p04928f32bf)" d="M 279.687888 273.312 
L 280.580688 273.312 
L 280.580688 265.123938 
L 279.687888 265.123938 
z
" style="fill:#1f77b4;"/>
   </g>
   <g id="patch_215">
    <path clip-path="url(#p04928f32bf)" d="M 280.803888 273.312 
L 281.696688 273.312 
L 281.696688 261.029908 
L 280.803888 261.029908 
z
" style="fill:#1f77b4;"/>
   </g>
   <g id="patch_216">
    <path clip-path="url(#p04928f32bf)" d="M 281.919888 273.312 
L 282.812688 273.312 
L 282.812688 261.029908 
L 281.919888 261.029908 
z
" style="fill:#1f77b4;"/>
   </g>
   <g id="patch_217">
    <path clip-path="url(#p04928f32bf)" d="M 283.035888 273.312 
L 283.928688 273.312 
L 283.928688 261.029908 
L 283.035888 261.029908 
z
" style="fill:#1f77b4;"/>
   </g>
   <g id="patch_218">
    <path clip-path="url(#p04928f32bf)" d="M 284.151888 273.312 
L 285.044688 273.312 
L 285.044688 248.747815 
L 284.151888 248.747815 
z
" style="fill:#1f77b4;"/>
   </g>
   <g id="patch_219">
    <path clip-path="url(#p04928f32bf)" d="M 285.267888 273.312 
L 286.160688 273.312 
L 286.160688 244.653785 
L 285.267888 244.653785 
z
" style="fill:#1f77b4;"/>
   </g>
   <g id="patch_220">
    <path clip-path="url(#p04928f32bf)" d="M 286.383888 273.312 
L 287.276688 273.312 
L 287.276688 244.653785 
L 286.383888 244.653785 
z
" style="fill:#1f77b4;"/>
   </g>
   <g id="patch_221">
    <path clip-path="url(#p04928f32bf)" d="M 287.499888 273.312 
L 288.392688 273.312 
L 288.392688 244.653785 
L 287.499888 244.653785 
z
" style="fill:#1f77b4;"/>
   </g>
   <g id="patch_222">
    <path clip-path="url(#p04928f32bf)" d="M 288.615888 273.312 
L 289.508688 273.312 
L 289.508688 244.653785 
L 288.615888 244.653785 
z
" style="fill:#1f77b4;"/>
   </g>
   <g id="patch_223">
    <path clip-path="url(#p04928f32bf)" d="M 289.731888 273.312 
L 290.624688 273.312 
L 290.624688 240.559754 
L 289.731888 240.559754 
z
" style="fill:#1f77b4;"/>
   </g>
   <g id="patch_224">
    <path clip-path="url(#p04928f32bf)" d="M 290.847888 273.312 
L 291.740688 273.312 
L 291.740688 240.559754 
L 290.847888 240.559754 
z
" style="fill:#1f77b4;"/>
   </g>
   <g id="patch_225">
    <path clip-path="url(#p04928f32bf)" d="M 291.963888 273.312 
L 292.856688 273.312 
L 292.856688 228.277662 
L 291.963888 228.277662 
z
" style="fill:#1f77b4;"/>
   </g>
   <g id="patch_226">
    <path clip-path="url(#p04928f32bf)" d="M 293.079888 273.312 
L 293.972688 273.312 
L 293.972688 224.183631 
L 293.079888 224.183631 
z
" style="fill:#1f77b4;"/>
   </g>
   <g id="patch_227">
    <path clip-path="url(#p04928f32bf)" d="M 294.195888 273.312 
L 295.088688 273.312 
L 295.088688 228.277662 
L 294.195888 228.277662 
z
" style="fill:#1f77b4;"/>
   </g>
   <g id="patch_228">
    <path clip-path="url(#p04928f32bf)" d="M 295.311888 273.312 
L 296.204688 273.312 
L 296.204688 224.183631 
L 295.311888 224.183631 
z
" style="fill:#1f77b4;"/>
   </g>
   <g id="patch_229">
    <path clip-path="url(#p04928f32bf)" d="M 296.427888 273.312 
L 297.320688 273.312 
L 297.320688 224.183631 
L 296.427888 224.183631 
z
" style="fill:#1f77b4;"/>
   </g>
   <g id="patch_230">
    <path clip-path="url(#p04928f32bf)" d="M 297.543888 273.312 
L 298.436688 273.312 
L 298.436688 211.901538 
L 297.543888 211.901538 
z
" style="fill:#1f77b4;"/>
   </g>
   <g id="patch_231">
    <path clip-path="url(#p04928f32bf)" d="M 298.659888 273.312 
L 299.552688 273.312 
L 299.552688 211.901538 
L 298.659888 211.901538 
z
" style="fill:#1f77b4;"/>
   </g>
   <g id="patch_232">
    <path clip-path="url(#p04928f32bf)" d="M 299.775888 273.312 
L 300.668688 273.312 
L 300.668688 195.525415 
L 299.775888 195.525415 
z
" style="fill:#1f77b4;"/>
   </g>
   <g id="patch_233">
    <path clip-path="url(#p04928f32bf)" d="M 300.891888 273.312 
L 301.784688 273.312 
L 301.784688 199.619446 
L 300.891888 199.619446 
z
" style="fill:#1f77b4;"/>
   </g>
   <g id="patch_234">
    <path clip-path="url(#p04928f32bf)" d="M 302.007888 273.312 
L 302.900688 273.312 
L 302.900688 203.713477 
L 302.007888 203.713477 
z
" style="fill:#1f77b4;"/>
   </g>
   <g id="patch_235">
    <path clip-path="url(#p04928f32bf)" d="M 303.123888 273.312 
L 304.016688 273.312 
L 304.016688 179.149292 
L 303.123888 179.149292 
z
" style="fill:#1f77b4;"/>
   </g>
   <g id="patch_236">
    <path clip-path="url(#p04928f32bf)" d="M 304.239888 273.312 
L 305.132688 273.312 
L 305.132688 158.679138 
L 304.239888 158.679138 
z
" style="fill:#1f77b4;"/>
   </g>
   <g id="patch_237">
    <path clip-path="url(#p04928f32bf)" d="M 305.355888 273.312 
L 306.248688 273.312 
L 306.248688 138.208985 
L 305.355888 138.208985 
z
" style="fill:#1f77b4;"/>
   </g>
   <g id="patch_238">
    <path clip-path="url(#p04928f32bf)" d="M 306.471888 273.312 
L 307.364688 273.312 
L 307.364688 138.208985 
L 306.471888 138.208985 
z
" style="fill:#1f77b4;"/>
   </g>
   <g id="patch_239">
    <path clip-path="url(#p04928f32bf)" d="M 307.587888 273.312 
L 308.480688 273.312 
L 308.480688 130.020923 
L 307.587888 130.020923 
z
" style="fill:#1f77b4;"/>
   </g>
   <g id="patch_240">
    <path clip-path="url(#p04928f32bf)" d="M 308.703888 273.312 
L 309.596688 273.312 
L 309.596688 125.926892 
L 308.703888 125.926892 
z
" style="fill:#1f77b4;"/>
   </g>
   <g id="patch_241">
    <path clip-path="url(#p04928f32bf)" d="M 309.819888 273.312 
L 310.712688 273.312 
L 310.712688 113.6448 
L 309.819888 113.6448 
z
" style="fill:#1f77b4;"/>
   </g>
   <g id="patch_242">
    <path clip-path="url(#p04928f32bf)" d="M 310.935888 273.312 
L 311.828688 273.312 
L 311.828688 105.456738 
L 310.935888 105.456738 
z
" style="fill:#1f77b4;"/>
   </g>
   <g id="patch_243">
    <path clip-path="url(#p04928f32bf)" d="M 312.051888 273.312 
L 312.944688 273.312 
L 312.944688 121.832862 
L 312.051888 121.832862 
z
" style="fill:#1f77b4;"/>
   </g>
   <g id="patch_244">
    <path clip-path="url(#p04928f32bf)" d="M 313.167888 273.312 
L 314.060688 273.312 
L 314.060688 101.362708 
L 313.167888 101.362708 
z
" style="fill:#1f77b4;"/>
   </g>
   <g id="patch_245">
    <path clip-path="url(#p04928f32bf)" d="M 314.283888 273.312 
L 315.176688 273.312 
L 315.176688 101.362708 
L 314.283888 101.362708 
z
" style="fill:#1f77b4;"/>
   </g>
   <g id="patch_246">
    <path clip-path="url(#p04928f32bf)" d="M 315.399888 273.312 
L 316.292688 273.312 
L 316.292688 105.456738 
L 315.399888 105.456738 
z
" style="fill:#1f77b4;"/>
   </g>
   <g id="patch_247">
    <path clip-path="url(#p04928f32bf)" d="M 316.515888 273.312 
L 317.408688 273.312 
L 317.408688 93.174646 
L 316.515888 93.174646 
z
" style="fill:#1f77b4;"/>
   </g>
   <g id="patch_248">
    <path clip-path="url(#p04928f32bf)" d="M 317.631888 273.312 
L 318.524688 273.312 
L 318.524688 97.268677 
L 317.631888 97.268677 
z
" style="fill:#1f77b4;"/>
   </g>
   <g id="patch_249">
    <path clip-path="url(#p04928f32bf)" d="M 318.747888 273.312 
L 319.640688 273.312 
L 319.640688 97.268677 
L 318.747888 97.268677 
z
" style="fill:#1f77b4;"/>
   </g>
   <g id="patch_250">
    <path clip-path="url(#p04928f32bf)" d="M 319.863888 273.312 
L 320.756688 273.312 
L 320.756688 93.174646 
L 319.863888 93.174646 
z
" style="fill:#1f77b4;"/>
   </g>
   <g id="patch_251">
    <path clip-path="url(#p04928f32bf)" d="M 320.979888 273.312 
L 321.872688 273.312 
L 321.872688 113.6448 
L 320.979888 113.6448 
z
" style="fill:#1f77b4;"/>
   </g>
   <g id="patch_252">
    <path clip-path="url(#p04928f32bf)" d="M 322.095888 273.312 
L 322.988688 273.312 
L 322.988688 113.6448 
L 322.095888 113.6448 
z
" style="fill:#1f77b4;"/>
   </g>
   <g id="patch_253">
    <path clip-path="url(#p04928f32bf)" d="M 323.211888 273.312 
L 324.104688 273.312 
L 324.104688 117.738831 
L 323.211888 117.738831 
z
" style="fill:#1f77b4;"/>
   </g>
   <g id="patch_254">
    <path clip-path="url(#p04928f32bf)" d="M 324.327888 273.312 
L 325.220688 273.312 
L 325.220688 113.6448 
L 324.327888 113.6448 
z
" style="fill:#1f77b4;"/>
   </g>
   <g id="patch_255">
    <path clip-path="url(#p04928f32bf)" d="M 325.443888 273.312 
L 326.336688 273.312 
L 326.336688 117.738831 
L 325.443888 117.738831 
z
" style="fill:#1f77b4;"/>
   </g>
   <g id="patch_256">
    <path clip-path="url(#p04928f32bf)" d="M 326.559888 273.312 
L 327.452688 273.312 
L 327.452688 117.738831 
L 326.559888 117.738831 
z
" style="fill:#1f77b4;"/>
   </g>
   <g id="patch_257">
    <path clip-path="url(#p04928f32bf)" d="M 327.675888 273.312 
L 328.568688 273.312 
L 328.568688 109.550769 
L 327.675888 109.550769 
z
" style="fill:#1f77b4;"/>
   </g>
   <g id="patch_258">
    <path clip-path="url(#p04928f32bf)" d="M 328.791888 273.312 
L 329.684688 273.312 
L 329.684688 105.456738 
L 328.791888 105.456738 
z
" style="fill:#1f77b4;"/>
   </g>
   <g id="patch_259">
    <path clip-path="url(#p04928f32bf)" d="M 329.907888 273.312 
L 330.800688 273.312 
L 330.800688 109.550769 
L 329.907888 109.550769 
z
" style="fill:#1f77b4;"/>
   </g>
   <g id="patch_260">
    <path clip-path="url(#p04928f32bf)" d="M 331.023888 273.312 
L 331.916688 273.312 
L 331.916688 101.362708 
L 331.023888 101.362708 
z
" style="fill:#1f77b4;"/>
   </g>
   <g id="patch_261">
    <path clip-path="url(#p04928f32bf)" d="M 332.139888 273.312 
L 333.032688 273.312 
L 333.032688 125.926892 
L 332.139888 125.926892 
z
" style="fill:#1f77b4;"/>
   </g>
   <g id="patch_262">
    <path clip-path="url(#p04928f32bf)" d="M 333.255888 273.312 
L 334.148688 273.312 
L 334.148688 125.926892 
L 333.255888 125.926892 
z
" style="fill:#1f77b4;"/>
   </g>
   <g id="patch_263">
    <path clip-path="url(#p04928f32bf)" d="M 334.371888 273.312 
L 335.264688 273.312 
L 335.264688 121.832862 
L 334.371888 121.832862 
z
" style="fill:#1f77b4;"/>
   </g>
   <g id="patch_264">
    <path clip-path="url(#p04928f32bf)" d="M 335.487888 273.312 
L 336.380688 273.312 
L 336.380688 134.114954 
L 335.487888 134.114954 
z
" style="fill:#1f77b4;"/>
   </g>
   <g id="patch_265">
    <path clip-path="url(#p04928f32bf)" d="M 336.603888 273.312 
L 337.496688 273.312 
L 337.496688 138.208985 
L 336.603888 138.208985 
z
" style="fill:#1f77b4;"/>
   </g>
   <g id="patch_266">
    <path clip-path="url(#p04928f32bf)" d="M 337.719888 273.312 
L 338.612688 273.312 
L 338.612688 130.020923 
L 337.719888 130.020923 
z
" style="fill:#1f77b4;"/>
   </g>
   <g id="patch_267">
    <path clip-path="url(#p04928f32bf)" d="M 338.835888 273.312 
L 339.728688 273.312 
L 339.728688 142.303015 
L 338.835888 142.303015 
z
" style="fill:#1f77b4;"/>
   </g>
   <g id="patch_268">
    <path clip-path="url(#p04928f32bf)" d="M 339.951888 273.312 
L 340.844688 273.312 
L 340.844688 146.397046 
L 339.951888 146.397046 
z
" style="fill:#1f77b4;"/>
   </g>
   <g id="patch_269">
    <path clip-path="url(#p04928f32bf)" d="M 341.067888 273.312 
L 341.960688 273.312 
L 341.960688 142.303015 
L 341.067888 142.303015 
z
" style="fill:#1f77b4;"/>
   </g>
   <g id="patch_270">
    <path clip-path="url(#p04928f32bf)" d="M 342.183888 273.312 
L 343.076688 273.312 
L 343.076688 138.208985 
L 342.183888 138.208985 
z
" style="fill:#1f77b4;"/>
   </g>
   <g id="patch_271">
    <path clip-path="url(#p04928f32bf)" d="M 343.299888 273.312 
L 344.192688 273.312 
L 344.192688 150.491077 
L 343.299888 150.491077 
z
" style="fill:#1f77b4;"/>
   </g>
   <g id="patch_272">
    <path clip-path="url(#p04928f32bf)" d="M 344.415888 273.312 
L 345.308688 273.312 
L 345.308688 150.491077 
L 344.415888 150.491077 
z
" style="fill:#1f77b4;"/>
   </g>
   <g id="patch_273">
    <path clip-path="url(#p04928f32bf)" d="M 345.531888 273.312 
L 346.424688 273.312 
L 346.424688 146.397046 
L 345.531888 146.397046 
z
" style="fill:#1f77b4;"/>
   </g>
   <g id="patch_274">
    <path clip-path="url(#p04928f32bf)" d="M 346.647888 273.312 
L 347.540688 273.312 
L 347.540688 162.773169 
L 346.647888 162.773169 
z
" style="fill:#1f77b4;"/>
   </g>
   <g id="patch_275">
    <path clip-path="url(#p04928f32bf)" d="M 347.763888 273.312 
L 348.656688 273.312 
L 348.656688 166.8672 
L 347.763888 166.8672 
z
" style="fill:#1f77b4;"/>
   </g>
   <g id="patch_276">
    <path clip-path="url(#p04928f32bf)" d="M 348.879888 273.312 
L 349.772688 273.312 
L 349.772688 166.8672 
L 348.879888 166.8672 
z
" style="fill:#1f77b4;"/>
   </g>
   <g id="patch_277">
    <path clip-path="url(#p04928f32bf)" d="M 349.995888 273.312 
L 350.888688 273.312 
L 350.888688 175.055262 
L 349.995888 175.055262 
z
" style="fill:#1f77b4;"/>
   </g>
   <g id="patch_278">
    <path clip-path="url(#p04928f32bf)" d="M 351.111888 273.312 
L 352.004688 273.312 
L 352.004688 175.055262 
L 351.111888 175.055262 
z
" style="fill:#1f77b4;"/>
   </g>
   <g id="patch_279">
    <path clip-path="url(#p04928f32bf)" d="M 352.227888 273.312 
L 353.120688 273.312 
L 353.120688 183.243323 
L 352.227888 183.243323 
z
" style="fill:#1f77b4;"/>
   </g>
   <g id="patch_280">
    <path clip-path="url(#p04928f32bf)" d="M 353.343888 273.312 
L 354.236688 273.312 
L 354.236688 183.243323 
L 353.343888 183.243323 
z
" style="fill:#1f77b4;"/>
   </g>
   <g id="patch_281">
    <path clip-path="url(#p04928f32bf)" d="M 354.459888 273.312 
L 355.352688 273.312 
L 355.352688 179.149292 
L 354.459888 179.149292 
z
" style="fill:#1f77b4;"/>
   </g>
   <g id="patch_282">
    <path clip-path="url(#p04928f32bf)" d="M 355.575888 273.312 
L 356.468688 273.312 
L 356.468688 179.149292 
L 355.575888 179.149292 
z
" style="fill:#1f77b4;"/>
   </g>
   <g id="patch_283">
    <path clip-path="url(#p04928f32bf)" d="M 356.691888 273.312 
L 357.584688 273.312 
L 357.584688 191.431385 
L 356.691888 191.431385 
z
" style="fill:#1f77b4;"/>
   </g>
   <g id="patch_284">
    <path clip-path="url(#p04928f32bf)" d="M 357.807888 273.312 
L 358.700688 273.312 
L 358.700688 183.243323 
L 357.807888 183.243323 
z
" style="fill:#1f77b4;"/>
   </g>
   <g id="patch_285">
    <path clip-path="url(#p04928f32bf)" d="M 358.923888 273.312 
L 359.816688 273.312 
L 359.816688 179.149292 
L 358.923888 179.149292 
z
" style="fill:#1f77b4;"/>
   </g>
   <g id="patch_286">
    <path clip-path="url(#p04928f32bf)" d="M 360.039888 273.312 
L 360.932688 273.312 
L 360.932688 195.525415 
L 360.039888 195.525415 
z
" style="fill:#1f77b4;"/>
   </g>
   <g id="patch_287">
    <path clip-path="url(#p04928f32bf)" d="M 361.155888 273.312 
L 362.048688 273.312 
L 362.048688 203.713477 
L 361.155888 203.713477 
z
" style="fill:#1f77b4;"/>
   </g>
   <g id="patch_288">
    <path clip-path="url(#p04928f32bf)" d="M 362.271888 273.312 
L 363.164688 273.312 
L 363.164688 195.525415 
L 362.271888 195.525415 
z
" style="fill:#1f77b4;"/>
   </g>
   <g id="patch_289">
    <path clip-path="url(#p04928f32bf)" d="M 363.387888 273.312 
L 364.280688 273.312 
L 364.280688 203.713477 
L 363.387888 203.713477 
z
" style="fill:#1f77b4;"/>
   </g>
   <g id="patch_290">
    <path clip-path="url(#p04928f32bf)" d="M 364.503888 273.312 
L 365.396688 273.312 
L 365.396688 191.431385 
L 364.503888 191.431385 
z
" style="fill:#1f77b4;"/>
   </g>
   <g id="patch_291">
    <path clip-path="url(#p04928f32bf)" d="M 365.619888 273.312 
L 366.512688 273.312 
L 366.512688 191.431385 
L 365.619888 191.431385 
z
" style="fill:#1f77b4;"/>
   </g>
   <g id="patch_292">
    <path clip-path="url(#p04928f32bf)" d="M 366.735888 273.312 
L 367.628688 273.312 
L 367.628688 183.243323 
L 366.735888 183.243323 
z
" style="fill:#1f77b4;"/>
   </g>
   <g id="patch_293">
    <path clip-path="url(#p04928f32bf)" d="M 367.851888 273.312 
L 368.744688 273.312 
L 368.744688 183.243323 
L 367.851888 183.243323 
z
" style="fill:#1f77b4;"/>
   </g>
   <g id="patch_294">
    <path clip-path="url(#p04928f32bf)" d="M 368.967888 273.312 
L 369.860688 273.312 
L 369.860688 166.8672 
L 368.967888 166.8672 
z
" style="fill:#1f77b4;"/>
   </g>
   <g id="patch_295">
    <path clip-path="url(#p04928f32bf)" d="M 370.083888 273.312 
L 370.976688 273.312 
L 370.976688 162.773169 
L 370.083888 162.773169 
z
" style="fill:#1f77b4;"/>
   </g>
   <g id="patch_296">
    <path clip-path="url(#p04928f32bf)" d="M 371.199888 273.312 
L 372.092688 273.312 
L 372.092688 175.055262 
L 371.199888 175.055262 
z
" style="fill:#1f77b4;"/>
   </g>
   <g id="patch_297">
    <path clip-path="url(#p04928f32bf)" d="M 372.315888 273.312 
L 373.208688 273.312 
L 373.208688 175.055262 
L 372.315888 175.055262 
z
" style="fill:#1f77b4;"/>
   </g>
   <g id="patch_298">
    <path clip-path="url(#p04928f32bf)" d="M 373.431888 273.312 
L 374.324688 273.312 
L 374.324688 170.961231 
L 373.431888 170.961231 
z
" style="fill:#1f77b4;"/>
   </g>
   <g id="patch_299">
    <path clip-path="url(#p04928f32bf)" d="M 374.547888 273.312 
L 375.440688 273.312 
L 375.440688 162.773169 
L 374.547888 162.773169 
z
" style="fill:#1f77b4;"/>
   </g>
   <g id="patch_300">
    <path clip-path="url(#p04928f32bf)" d="M 375.663888 273.312 
L 376.556688 273.312 
L 376.556688 179.149292 
L 375.663888 179.149292 
z
" style="fill:#1f77b4;"/>
   </g>
   <g id="patch_301">
    <path clip-path="url(#p04928f32bf)" d="M 376.779888 273.312 
L 377.672688 273.312 
L 377.672688 170.961231 
L 376.779888 170.961231 
z
" style="fill:#1f77b4;"/>
   </g>
   <g id="patch_302">
    <path clip-path="url(#p04928f32bf)" d="M 377.895888 273.312 
L 378.788688 273.312 
L 378.788688 175.055262 
L 377.895888 175.055262 
z
" style="fill:#1f77b4;"/>
   </g>
   <g id="patch_303">
    <path clip-path="url(#p04928f32bf)" d="M 379.011888 273.312 
L 379.904688 273.312 
L 379.904688 170.961231 
L 379.011888 170.961231 
z
" style="fill:#1f77b4;"/>
   </g>
   <g id="patch_304">
    <path clip-path="url(#p04928f32bf)" d="M 380.127888 273.312 
L 381.020688 273.312 
L 381.020688 175.055262 
L 380.127888 175.055262 
z
" style="fill:#1f77b4;"/>
   </g>
   <g id="patch_305">
    <path clip-path="url(#p04928f32bf)" d="M 381.243888 273.312 
L 382.136688 273.312 
L 382.136688 175.055262 
L 381.243888 175.055262 
z
" style="fill:#1f77b4;"/>
   </g>
   <g id="patch_306">
    <path clip-path="url(#p04928f32bf)" d="M 382.359888 273.312 
L 383.252688 273.312 
L 383.252688 170.961231 
L 382.359888 170.961231 
z
" style="fill:#1f77b4;"/>
   </g>
   <g id="patch_307">
    <path clip-path="url(#p04928f32bf)" d="M 383.475888 273.312 
L 384.368688 273.312 
L 384.368688 179.149292 
L 383.475888 179.149292 
z
" style="fill:#1f77b4;"/>
   </g>
   <g id="patch_308">
    <path clip-path="url(#p04928f32bf)" d="M 384.591888 273.312 
L 385.484688 273.312 
L 385.484688 187.337354 
L 384.591888 187.337354 
z
" style="fill:#1f77b4;"/>
   </g>
   <g id="patch_309">
    <path clip-path="url(#p04928f32bf)" d="M 385.707888 273.312 
L 386.600688 273.312 
L 386.600688 179.149292 
L 385.707888 179.149292 
z
" style="fill:#1f77b4;"/>
   </g>
   <g id="patch_310">
    <path clip-path="url(#p04928f32bf)" d="M 386.823888 273.312 
L 387.716688 273.312 
L 387.716688 166.8672 
L 386.823888 166.8672 
z
" style="fill:#1f77b4;"/>
   </g>
   <g id="patch_311">
    <path clip-path="url(#p04928f32bf)" d="M 387.939888 273.312 
L 388.832688 273.312 
L 388.832688 154.585108 
L 387.939888 154.585108 
z
" style="fill:#1f77b4;"/>
   </g>
   <g id="patch_312">
    <path clip-path="url(#p04928f32bf)" d="M 389.055888 273.312 
L 389.948688 273.312 
L 389.948688 150.491077 
L 389.055888 150.491077 
z
" style="fill:#1f77b4;"/>
   </g>
   <g id="patch_313">
    <path clip-path="url(#p04928f32bf)" d="M 390.171888 273.312 
L 391.064688 273.312 
L 391.064688 150.491077 
L 390.171888 150.491077 
z
" style="fill:#1f77b4;"/>
   </g>
   <g id="patch_314">
    <path clip-path="url(#p04928f32bf)" d="M 391.287888 273.312 
L 392.180688 273.312 
L 392.180688 150.491077 
L 391.287888 150.491077 
z
" style="fill:#1f77b4;"/>
   </g>
   <g id="patch_315">
    <path clip-path="url(#p04928f32bf)" d="M 392.403888 273.312 
L 393.296688 273.312 
L 393.296688 158.679138 
L 392.403888 158.679138 
z
" style="fill:#1f77b4;"/>
   </g>
   <g id="patch_316">
    <path clip-path="url(#p04928f32bf)" d="M 393.519888 273.312 
L 394.412688 273.312 
L 394.412688 175.055262 
L 393.519888 175.055262 
z
" style="fill:#1f77b4;"/>
   </g>
   <g id="patch_317">
    <path clip-path="url(#p04928f32bf)" d="M 394.635888 273.312 
L 395.528688 273.312 
L 395.528688 175.055262 
L 394.635888 175.055262 
z
" style="fill:#1f77b4;"/>
   </g>
   <g id="patch_318">
    <path clip-path="url(#p04928f32bf)" d="M 395.751888 273.312 
L 396.644688 273.312 
L 396.644688 170.961231 
L 395.751888 170.961231 
z
" style="fill:#1f77b4;"/>
   </g>
   <g id="patch_319">
    <path clip-path="url(#p04928f32bf)" d="M 396.867888 273.312 
L 397.760688 273.312 
L 397.760688 158.679138 
L 396.867888 158.679138 
z
" style="fill:#1f77b4;"/>
   </g>
   <g id="patch_320">
    <path clip-path="url(#p04928f32bf)" d="M 397.983888 273.312 
L 398.876688 273.312 
L 398.876688 150.491077 
L 397.983888 150.491077 
z
" style="fill:#1f77b4;"/>
   </g>
   <g id="patch_321">
    <path clip-path="url(#p04928f32bf)" d="M 399.099888 273.312 
L 399.992688 273.312 
L 399.992688 142.303015 
L 399.099888 142.303015 
z
" style="fill:#1f77b4;"/>
   </g>
   <g id="patch_322">
    <path clip-path="url(#p04928f32bf)" d="M 400.215888 273.312 
L 401.108688 273.312 
L 401.108688 150.491077 
L 400.215888 150.491077 
z
" style="fill:#1f77b4;"/>
   </g>
   <g id="matplotlib.axis_1">
    <g id="xtick_1">
     <g id="line2d_1">
      <defs>
       <path d="M 0 0 
L 0 3.5 
" id="md78ace2a90" style="stroke:#000000;stroke-width:0.8;"/>
      </defs>
      <g>
       <use style="stroke:#000000;stroke-width:0.8;" x="63.630288" xlink:href="#md78ace2a90" y="273.312"/>
      </g>
     </g>
     <g id="text_1">
      <!-- 2020-04 -->
      <g transform="translate(65.789702 313.517436)rotate(-90)scale(0.1 -0.1)">
       <defs>
        <path d="M 1.59375 2.5 
L 1.59375 0 
C 20.296875 0 20.296875 0 23.90625 0 
C 27.5 0 27.5 0 46.796875 0 
C 46.59375 1.953125 46.59375 2.90625 46.59375 4.203125 
C 46.59375 5.4375 46.59375 6.359375 46.796875 8.421875 
C 35.296875 8.421875 30.703125 8.421875 12.203125 8.421875 
L 30.40625 27.515625 
C 40.09375 37.71875 43.09375 43.171875 43.09375 50.59375 
C 43.09375 61.96875 35.296875 69 22.59375 69 
C 15.40625 69 10.5 67 5.59375 62.015625 
L 3.90625 48.421875 
L 6.796875 48.421875 
L 8.09375 53.015625 
C 9.703125 58.796875 13.296875 61.296875 20 61.296875 
C 28.59375 61.296875 34.09375 55.890625 34.09375 47.421875 
C 34.09375 39.921875 29.90625 32.546875 18.59375 20.5625 
z
" id="URW_Palladio_L_Roman-50"/>
        <path d="M 26.296875 69 
C 10.796875 69 2.90625 56.6875 2.90625 32.453125 
C 2.90625 20.71875 5 10.625 8.5 5.71875 
C 12 0.796875 17.59375 -2 23.796875 -2 
C 38.90625 -2 46.5 11.015625 46.5 36.65625 
C 46.5 58.578125 40 69 26.296875 69 
z
M 24.5 65.5 
C 34.203125 65.5 38.09375 55.6875 38.09375 31.640625 
C 38.09375 10.328125 34.296875 1.5 25.09375 1.5 
C 15.40625 1.5 11.296875 11.625 11.296875 36.0625 
C 11.296875 57.1875 15 65.5 24.5 65.5 
z
" id="URW_Palladio_L_Roman-48"/>
        <path d="M 28.203125 22 
L 31.203125 28.703125 
L 30.703125 29.203125 
L 4.40625 29.203125 
L 1.703125 22.5 
L 2.203125 22 
z
" id="URW_Palladio_L_Roman-45"/>
        <path d="M 28 18 
L 28 10.515625 
C 28 4.515625 26.90625 3.109375 22 3.109375 
L 15.796875 3.109375 
L 15.796875 0 
C 29.09375 0 29.09375 0 31.5 0 
C 33.90625 0 33.90625 0 47.203125 0 
L 47.203125 3.109375 
L 42.40625 3.109375 
C 37.5 3.109375 36.40625 4.40625 36.40625 10.453125 
L 36.40625 18 
C 42.296875 18 44.40625 18 47.203125 17.703125 
L 47.203125 24.8125 
C 42.5 24.421875 40.59375 24.421875 39.09375 24.421875 
L 38.796875 24.421875 
L 36.40625 24.421875 
L 36.40625 38.390625 
C 36.40625 56.25 36.59375 64.875 37.09375 69 
L 35.90625 69.5 
L 28.5 66.796875 
L 0.203125 20.296875 
L 1.296875 18 
z
M 28 24.421875 
L 6.5 24.421875 
L 28 59.78125 
z
" id="URW_Palladio_L_Roman-52"/>
       </defs>
       <use transform="scale(0.996264)" xlink:href="#URW_Palladio_L_Roman-50"/>
       <use transform="translate(49.8132 0)scale(0.996264)" xlink:href="#URW_Palladio_L_Roman-48"/>
       <use transform="translate(99.626401 0)scale(0.996264)" xlink:href="#URW_Palladio_L_Roman-50"/>
       <use transform="translate(149.439601 0)scale(0.996264)" xlink:href="#URW_Palladio_L_Roman-48"/>
       <use transform="translate(199.252802 0)scale(0.996264)" xlink:href="#URW_Palladio_L_Roman-45"/>
       <use transform="translate(232.428032 0)scale(0.996264)" xlink:href="#URW_Palladio_L_Roman-48"/>
       <use transform="translate(282.241232 0)scale(0.996264)" xlink:href="#URW_Palladio_L_Roman-52"/>
      </g>
     </g>
    </g>
    <g id="xtick_2">
     <g id="line2d_2">
      <g>
       <use style="stroke:#000000;stroke-width:0.8;" x="97.110288" xlink:href="#md78ace2a90" y="273.312"/>
      </g>
     </g>
     <g id="text_2">
      <!-- 2020-05 -->
      <g transform="translate(99.269702 313.517436)rotate(-90)scale(0.1 -0.1)">
       <defs>
        <path d="M 12.703125 60.578125 
C 25.59375 60.578125 31.203125 60.578125 43.203125 60.578125 
L 43.703125 61.046875 
C 43.5 62.75 43.5 63.5 43.5 64.75 
C 43.5 66.078125 43.5 66.828125 43.703125 68.53125 
L 43.203125 69 
C 35.703125 69 31.203125 69 25.796875 69 
C 20.296875 69 15.90625 69 8.40625 69 
L 7.90625 68.796875 
C 8 62.671875 8.09375 58.265625 8.09375 55.046875 
C 8.09375 46.515625 7.796875 36.875 7.5 32.453125 
L 9.5 31.84375 
C 14.203125 36.578125 16.90625 38 21.796875 38 
C 31.40625 38 37.40625 31.140625 37.40625 20.25 
C 37.40625 9.0625 31 2.5 20.09375 2.5 
C 14.703125 2.5 9.703125 4.328125 8.296875 6.9375 
L 3.703125 15.203125 
L 1.296875 13.796875 
C 3.59375 8.0625 4.796875 4.84375 6.203125 0.421875 
C 9 -1.109375 13 -2 17.296875 -2 
C 24 -2 31.09375 0.921875 36.59375 5.75 
C 42.703125 11.1875 45.90625 18.03125 45.90625 25.46875 
C 45.90625 36.859375 37.796875 44.90625 26.40625 44.90625 
C 21.59375 44.90625 18 43.609375 11.796875 39.90625 
z
" id="URW_Palladio_L_Roman-53"/>
       </defs>
       <use transform="scale(0.996264)" xlink:href="#URW_Palladio_L_Roman-50"/>
       <use transform="translate(49.8132 0)scale(0.996264)" xlink:href="#URW_Palladio_L_Roman-48"/>
       <use transform="translate(99.626401 0)scale(0.996264)" xlink:href="#URW_Palladio_L_Roman-50"/>
       <use transform="translate(149.439601 0)scale(0.996264)" xlink:href="#URW_Palladio_L_Roman-48"/>
       <use transform="translate(199.252802 0)scale(0.996264)" xlink:href="#URW_Palladio_L_Roman-45"/>
       <use transform="translate(232.428032 0)scale(0.996264)" xlink:href="#URW_Palladio_L_Roman-48"/>
       <use transform="translate(282.241232 0)scale(0.996264)" xlink:href="#URW_Palladio_L_Roman-53"/>
      </g>
     </g>
    </g>
    <g id="xtick_3">
     <g id="line2d_3">
      <g>
       <use style="stroke:#000000;stroke-width:0.8;" x="131.706288" xlink:href="#md78ace2a90" y="273.312"/>
      </g>
     </g>
     <g id="text_3">
      <!-- 2020-06 -->
      <g transform="translate(133.865702 313.517436)rotate(-90)scale(0.1 -0.1)">
       <defs>
        <path d="M 41.59375 67.34375 
L 37.90625 69.046875 
C 28.296875 65.84375 24.203125 63.84375 19.09375 59.4375 
C 8.796875 50.71875 3.203125 38.5 3.203125 24.765625 
C 3.203125 8.21875 11.203125 -2 24.09375 -2 
C 37.09375 -2 46.796875 8.3125 46.796875 21.953125 
C 46.796875 33.484375 39.90625 41 29.296875 41 
C 24.296875 41 21.296875 39.6875 15.40625 34.984375 
C 14.296875 34.078125 14.203125 33.984375 13.09375 33.1875 
C 15.203125 51.3125 23.59375 61.140625 41.59375 66.546875 
z
M 25.5 34.984375 
C 33.09375 34.984375 38.203125 28.375 38.203125 18.453125 
C 38.203125 8.015625 33.09375 1.296875 25.40625 1.296875 
C 16.90625 1.296875 12.296875 8.609375 12.296875 22.0625 
C 12.296875 25.5625 12.703125 27.46875 13.796875 29.171875 
C 16 32.578125 20.703125 34.984375 25.5 34.984375 
z
" id="URW_Palladio_L_Roman-54"/>
       </defs>
       <use transform="scale(0.996264)" xlink:href="#URW_Palladio_L_Roman-50"/>
       <use transform="translate(49.8132 0)scale(0.996264)" xlink:href="#URW_Palladio_L_Roman-48"/>
       <use transform="translate(99.626401 0)scale(0.996264)" xlink:href="#URW_Palladio_L_Roman-50"/>
       <use transform="translate(149.439601 0)scale(0.996264)" xlink:href="#URW_Palladio_L_Roman-48"/>
       <use transform="translate(199.252802 0)scale(0.996264)" xlink:href="#URW_Palladio_L_Roman-45"/>
       <use transform="translate(232.428032 0)scale(0.996264)" xlink:href="#URW_Palladio_L_Roman-48"/>
       <use transform="translate(282.241232 0)scale(0.996264)" xlink:href="#URW_Palladio_L_Roman-54"/>
      </g>
     </g>
    </g>
    <g id="xtick_4">
     <g id="line2d_4">
      <g>
       <use style="stroke:#000000;stroke-width:0.8;" x="165.186288" xlink:href="#md78ace2a90" y="273.312"/>
      </g>
     </g>
     <g id="text_4">
      <!-- 2020-07 -->
      <g transform="translate(167.345702 313.517436)rotate(-90)scale(0.1 -0.1)">
       <defs>
        <path d="M 5.59375 0.5 
L 6.5 -0.796875 
C 10.40625 -0.5 10.40625 -0.5 11.09375 -0.5 
C 11.796875 -0.5 11.796875 -0.5 15.703125 -0.796875 
C 19.90625 10.140625 24.796875 20.578125 31.40625 32.609375 
L 49.703125 65.609375 
L 49.703125 68.3125 
C 38.90625 68.3125 35.40625 68.3125 27.296875 68.3125 
C 20 68.3125 15.09375 68.3125 5.40625 68.3125 
L 4.40625 68.109375 
C 4.703125 58.59375 4.703125 58.59375 4.703125 57.578125 
C 4.703125 56.46875 4.703125 56.46875 4.40625 47.359375 
L 7.40625 47.359375 
L 8.09375 52.96875 
C 8.90625 59.203125 9.59375 60 14.203125 60 
L 40.90625 60 
C 36.90625 51.765625 33.796875 45.953125 30 39.828125 
z
" id="URW_Palladio_L_Roman-55"/>
       </defs>
       <use transform="scale(0.996264)" xlink:href="#URW_Palladio_L_Roman-50"/>
       <use transform="translate(49.8132 0)scale(0.996264)" xlink:href="#URW_Palladio_L_Roman-48"/>
       <use transform="translate(99.626401 0)scale(0.996264)" xlink:href="#URW_Palladio_L_Roman-50"/>
       <use transform="translate(149.439601 0)scale(0.996264)" xlink:href="#URW_Palladio_L_Roman-48"/>
       <use transform="translate(199.252802 0)scale(0.996264)" xlink:href="#URW_Palladio_L_Roman-45"/>
       <use transform="translate(232.428032 0)scale(0.996264)" xlink:href="#URW_Palladio_L_Roman-48"/>
       <use transform="translate(282.241232 0)scale(0.996264)" xlink:href="#URW_Palladio_L_Roman-55"/>
      </g>
     </g>
    </g>
    <g id="xtick_5">
     <g id="line2d_5">
      <g>
       <use style="stroke:#000000;stroke-width:0.8;" x="199.782288" xlink:href="#md78ace2a90" y="273.312"/>
      </g>
     </g>
     <g id="text_5">
      <!-- 2020-08 -->
      <g transform="translate(201.941702 313.517436)rotate(-90)scale(0.1 -0.1)">
       <defs>
        <path d="M 16.796875 34.546875 
C 12.703125 32.65625 11 31.546875 8.796875 29.4375 
C 5 25.640625 3 21.125 3 15.921875 
C 3 5.609375 11.296875 -2 22.59375 -2 
C 35.59375 -2 46.40625 8.21875 46.40625 20.625 
C 46.40625 28.640625 42.703125 32.953125 31.296875 38.15625 
C 40.40625 44.375 43.59375 48.578125 43.59375 54.578125 
C 43.59375 63.1875 36.5 69 25.90625 69 
C 14 69 5.296875 61.390625 5.296875 50.890625 
C 5.296875 44.078125 8 40.265625 16.796875 34.546875 
z
M 28.40625 29.546875 
C 34.703125 26.734375 38.5 21.828125 38.5 16.4375 
C 38.5 8.015625 32.203125 1.40625 24.09375 1.40625 
C 15.59375 1.40625 10.09375 7.421875 10.09375 16.734375 
C 10.09375 24.03125 13 28.640625 20.40625 33.15625 
z
M 22.296875 42.375 
C 16 45.46875 12.796875 49.484375 12.796875 54.484375 
C 12.796875 61.09375 17.59375 65.59375 24.703125 65.59375 
C 32 65.59375 36.796875 60.796875 36.796875 53.46875 
C 36.796875 47.78125 34.296875 43.875 27.796875 39.65625 
z
" id="URW_Palladio_L_Roman-56"/>
       </defs>
       <use transform="scale(0.996264)" xlink:href="#URW_Palladio_L_Roman-50"/>
       <use transform="translate(49.8132 0)scale(0.996264)" xlink:href="#URW_Palladio_L_Roman-48"/>
       <use transform="translate(99.626401 0)scale(0.996264)" xlink:href="#URW_Palladio_L_Roman-50"/>
       <use transform="translate(149.439601 0)scale(0.996264)" xlink:href="#URW_Palladio_L_Roman-48"/>
       <use transform="translate(199.252802 0)scale(0.996264)" xlink:href="#URW_Palladio_L_Roman-45"/>
       <use transform="translate(232.428032 0)scale(0.996264)" xlink:href="#URW_Palladio_L_Roman-48"/>
       <use transform="translate(282.241232 0)scale(0.996264)" xlink:href="#URW_Palladio_L_Roman-56"/>
      </g>
     </g>
    </g>
    <g id="xtick_6">
     <g id="line2d_6">
      <g>
       <use style="stroke:#000000;stroke-width:0.8;" x="234.378288" xlink:href="#md78ace2a90" y="273.312"/>
      </g>
     </g>
     <g id="text_6">
      <!-- 2020-09 -->
      <g transform="translate(236.537702 313.517436)rotate(-90)scale(0.1 -0.1)">
       <defs>
        <path d="M 9.59375 -1.65625 
C 20.703125 1.953125 25.5 4.25 30.90625 8.84375 
C 40.59375 17.15625 45.703125 28.671875 45.703125 42.078125 
C 45.703125 59 37.59375 69.296875 24.40625 69.296875 
C 11.59375 69.296875 2 59.296875 2 45.90625 
C 2 34.390625 9.5 26 19.90625 26 
C 23.296875 26 27.203125 27.09375 29 28.59375 
L 36 34.40625 
C 35.203125 17.578125 24.296875 5.25 6.203125 0.84375 
L 6.203125 0.046875 
z
M 24 66 
C 28.5 66 31.796875 64.09375 34 60.09375 
C 35.796875 56.890625 37 52 37 47.5 
C 37 38.296875 31.703125 32.109375 24 32.109375 
C 16 32.109375 10.59375 39.203125 10.59375 49.59375 
C 10.59375 59.703125 15.796875 66 24 66 
z
" id="URW_Palladio_L_Roman-57"/>
       </defs>
       <use transform="scale(0.996264)" xlink:href="#URW_Palladio_L_Roman-50"/>
       <use transform="translate(49.8132 0)scale(0.996264)" xlink:href="#URW_Palladio_L_Roman-48"/>
       <use transform="translate(99.626401 0)scale(0.996264)" xlink:href="#URW_Palladio_L_Roman-50"/>
       <use transform="translate(149.439601 0)scale(0.996264)" xlink:href="#URW_Palladio_L_Roman-48"/>
       <use transform="translate(199.252802 0)scale(0.996264)" xlink:href="#URW_Palladio_L_Roman-45"/>
       <use transform="translate(232.428032 0)scale(0.996264)" xlink:href="#URW_Palladio_L_Roman-48"/>
       <use transform="translate(282.241232 0)scale(0.996264)" xlink:href="#URW_Palladio_L_Roman-57"/>
      </g>
     </g>
    </g>
    <g id="xtick_7">
     <g id="line2d_7">
      <g>
       <use style="stroke:#000000;stroke-width:0.8;" x="267.858288" xlink:href="#md78ace2a90" y="273.312"/>
      </g>
     </g>
     <g id="text_7">
      <!-- 2020-10 -->
      <g transform="translate(270.017702 313.517436)rotate(-90)scale(0.1 -0.1)">
       <defs>
        <path d="M 6.703125 56 
L 7.703125 56 
L 20.59375 61.8125 
C 20.703125 61.90625 20.796875 61.90625 20.90625 61.90625 
C 21.5 61.90625 21.703125 61.015625 21.703125 58.609375 
L 21.703125 9.578125 
C 21.703125 4.3125 20.59375 3.203125 15.203125 3.203125 
L 9.59375 3.203125 
L 9.59375 0 
C 25 0 25 0 26.09375 0 
C 27.40625 0 29.59375 0 33 0 
C 34.203125 0 37.703125 0 41.796875 0 
L 41.796875 3.203125 
L 36.59375 3.203125 
C 31.09375 3.203125 30.09375 4.3125 30.09375 9.5625 
L 30.09375 69.421875 
L 28.703125 69.921875 
C 22.203125 66.515625 15.09375 63.515625 6 60.3125 
z
" id="URW_Palladio_L_Roman-49"/>
       </defs>
       <use transform="scale(0.996264)" xlink:href="#URW_Palladio_L_Roman-50"/>
       <use transform="translate(49.8132 0)scale(0.996264)" xlink:href="#URW_Palladio_L_Roman-48"/>
       <use transform="translate(99.626401 0)scale(0.996264)" xlink:href="#URW_Palladio_L_Roman-50"/>
       <use transform="translate(149.439601 0)scale(0.996264)" xlink:href="#URW_Palladio_L_Roman-48"/>
       <use transform="translate(199.252802 0)scale(0.996264)" xlink:href="#URW_Palladio_L_Roman-45"/>
       <use transform="translate(232.428032 0)scale(0.996264)" xlink:href="#URW_Palladio_L_Roman-49"/>
       <use transform="translate(282.241232 0)scale(0.996264)" xlink:href="#URW_Palladio_L_Roman-48"/>
      </g>
     </g>
    </g>
    <g id="xtick_8">
     <g id="line2d_8">
      <g>
       <use style="stroke:#000000;stroke-width:0.8;" x="302.454288" xlink:href="#md78ace2a90" y="273.312"/>
      </g>
     </g>
     <g id="text_8">
      <!-- 2020-11 -->
      <g transform="translate(304.613702 313.517436)rotate(-90)scale(0.1 -0.1)">
       <use transform="scale(0.996264)" xlink:href="#URW_Palladio_L_Roman-50"/>
       <use transform="translate(49.8132 0)scale(0.996264)" xlink:href="#URW_Palladio_L_Roman-48"/>
       <use transform="translate(99.626401 0)scale(0.996264)" xlink:href="#URW_Palladio_L_Roman-50"/>
       <use transform="translate(149.439601 0)scale(0.996264)" xlink:href="#URW_Palladio_L_Roman-48"/>
       <use transform="translate(199.252802 0)scale(0.996264)" xlink:href="#URW_Palladio_L_Roman-45"/>
       <use transform="translate(232.428032 0)scale(0.996264)" xlink:href="#URW_Palladio_L_Roman-49"/>
       <use transform="translate(282.241232 0)scale(0.996264)" xlink:href="#URW_Palladio_L_Roman-49"/>
      </g>
     </g>
    </g>
    <g id="xtick_9">
     <g id="line2d_9">
      <g>
       <use style="stroke:#000000;stroke-width:0.8;" x="335.934288" xlink:href="#md78ace2a90" y="273.312"/>
      </g>
     </g>
     <g id="text_9">
      <!-- 2020-12 -->
      <g transform="translate(338.093702 313.517436)rotate(-90)scale(0.1 -0.1)">
       <use transform="scale(0.996264)" xlink:href="#URW_Palladio_L_Roman-50"/>
       <use transform="translate(49.8132 0)scale(0.996264)" xlink:href="#URW_Palladio_L_Roman-48"/>
       <use transform="translate(99.626401 0)scale(0.996264)" xlink:href="#URW_Palladio_L_Roman-50"/>
       <use transform="translate(149.439601 0)scale(0.996264)" xlink:href="#URW_Palladio_L_Roman-48"/>
       <use transform="translate(199.252802 0)scale(0.996264)" xlink:href="#URW_Palladio_L_Roman-45"/>
       <use transform="translate(232.428032 0)scale(0.996264)" xlink:href="#URW_Palladio_L_Roman-49"/>
       <use transform="translate(282.241232 0)scale(0.996264)" xlink:href="#URW_Palladio_L_Roman-50"/>
      </g>
     </g>
    </g>
    <g id="xtick_10">
     <g id="line2d_10">
      <g>
       <use style="stroke:#000000;stroke-width:0.8;" x="370.530288" xlink:href="#md78ace2a90" y="273.312"/>
      </g>
     </g>
     <g id="text_10">
      <!-- 2021-01 -->
      <g transform="translate(372.689702 313.517436)rotate(-90)scale(0.1 -0.1)">
       <use transform="scale(0.996264)" xlink:href="#URW_Palladio_L_Roman-50"/>
       <use transform="translate(49.8132 0)scale(0.996264)" xlink:href="#URW_Palladio_L_Roman-48"/>
       <use transform="translate(99.626401 0)scale(0.996264)" xlink:href="#URW_Palladio_L_Roman-50"/>
       <use transform="translate(149.439601 0)scale(0.996264)" xlink:href="#URW_Palladio_L_Roman-49"/>
       <use transform="translate(199.252802 0)scale(0.996264)" xlink:href="#URW_Palladio_L_Roman-45"/>
       <use transform="translate(232.428032 0)scale(0.996264)" xlink:href="#URW_Palladio_L_Roman-48"/>
       <use transform="translate(282.241232 0)scale(0.996264)" xlink:href="#URW_Palladio_L_Roman-49"/>
      </g>
     </g>
    </g>
   </g>
   <g id="matplotlib.axis_2">
    <g id="ytick_1">
     <g id="line2d_11">
      <defs>
       <path d="M 0 0 
L -3.5 0 
" id="mc4899d4390" style="stroke:#000000;stroke-width:0.8;"/>
      </defs>
      <g>
       <use style="stroke:#000000;stroke-width:0.8;" x="44.100288" xlink:href="#mc4899d4390" y="273.312"/>
      </g>
     </g>
     <g id="text_11">
      <!-- $\mathdefault{0}$ -->
      <g transform="translate(32.118968 276.876119)scale(0.1 -0.1)">
       <use transform="scale(0.996264)" xlink:href="#URW_Palladio_L_Roman-48"/>
      </g>
     </g>
    </g>
    <g id="ytick_2">
     <g id="line2d_12">
      <g>
       <use style="stroke:#000000;stroke-width:0.8;" x="44.100288" xlink:href="#mc4899d4390" y="236.465723"/>
      </g>
     </g>
     <g id="text_12">
      <!-- $\mathdefault{10}$ -->
      <g transform="translate(27.137648 240.029842)scale(0.1 -0.1)">
       <use transform="scale(0.996264)" xlink:href="#URW_Palladio_L_Roman-49"/>
       <use transform="translate(49.8132 0)scale(0.996264)" xlink:href="#URW_Palladio_L_Roman-48"/>
      </g>
     </g>
    </g>
    <g id="ytick_3">
     <g id="line2d_13">
      <g>
       <use style="stroke:#000000;stroke-width:0.8;" x="44.100288" xlink:href="#mc4899d4390" y="199.619446"/>
      </g>
     </g>
     <g id="text_13">
      <!-- $\mathdefault{20}$ -->
      <g transform="translate(27.137648 203.183565)scale(0.1 -0.1)">
       <use transform="scale(0.996264)" xlink:href="#URW_Palladio_L_Roman-50"/>
       <use transform="translate(49.8132 0)scale(0.996264)" xlink:href="#URW_Palladio_L_Roman-48"/>
      </g>
     </g>
    </g>
    <g id="ytick_4">
     <g id="line2d_14">
      <g>
       <use style="stroke:#000000;stroke-width:0.8;" x="44.100288" xlink:href="#mc4899d4390" y="162.773169"/>
      </g>
     </g>
     <g id="text_14">
      <!-- $\mathdefault{30}$ -->
      <g transform="translate(27.137648 166.337288)scale(0.1 -0.1)">
       <defs>
        <path d="M 4.296875 49.953125 
L 7.40625 49.953125 
L 9.203125 55.53125 
C 10.296875 58.90625 16.59375 62.296875 21.796875 62.296875 
C 28.296875 62.296875 33.59375 57.015625 33.59375 50.75 
C 33.59375 43.28125 27.703125 37 20.59375 37 
C 19.796875 37 18.703125 37 17.40625 37.203125 
L 15.90625 37.203125 
L 14.703125 31.984375 
L 15.40625 31.375 
C 19.203125 33.09375 21.09375 33.59375 23.796875 33.59375 
C 32.09375 33.59375 36.90625 28.265625 36.90625 19.09375 
C 36.90625 8.84375 30.796875 2.109375 21.5 2.109375 
C 16.90625 2.109375 12.796875 3.609375 9.796875 6.421875 
C 7.40625 8.640625 6.09375 10.953125 4.203125 16.390625 
L 1.5 15.390625 
C 3.59375 9.265625 4.40625 5.640625 5 0.609375 
C 10.296875 -1.203125 14.703125 -2 18.40625 -2 
C 26.40625 -2 35.59375 2.515625 41.09375 9.265625 
C 44.5 13.390625 46.203125 17.8125 46.203125 22.53125 
C 46.203125 27.359375 44.203125 31.59375 40.59375 34.09375 
C 38.09375 35.90625 35.796875 36.71875 30.796875 37.609375 
C 38.796875 43.796875 41.796875 48.375 41.796875 54.25 
C 41.796875 63.125 34.40625 69 23.296875 69 
C 16.5 69 12 67.109375 7.203125 62.328125 
z
" id="URW_Palladio_L_Roman-51"/>
       </defs>
       <use transform="scale(0.996264)" xlink:href="#URW_Palladio_L_Roman-51"/>
       <use transform="translate(49.8132 0)scale(0.996264)" xlink:href="#URW_Palladio_L_Roman-48"/>
      </g>
     </g>
    </g>
    <g id="ytick_5">
     <g id="line2d_15">
      <g>
       <use style="stroke:#000000;stroke-width:0.8;" x="44.100288" xlink:href="#mc4899d4390" y="125.926892"/>
      </g>
     </g>
     <g id="text_15">
      <!-- $\mathdefault{40}$ -->
      <g transform="translate(27.137648 129.491011)scale(0.1 -0.1)">
       <use transform="scale(0.996264)" xlink:href="#URW_Palladio_L_Roman-52"/>
       <use transform="translate(49.8132 0)scale(0.996264)" xlink:href="#URW_Palladio_L_Roman-48"/>
      </g>
     </g>
    </g>
    <g id="ytick_6">
     <g id="line2d_16">
      <g>
       <use style="stroke:#000000;stroke-width:0.8;" x="44.100288" xlink:href="#mc4899d4390" y="89.080615"/>
      </g>
     </g>
     <g id="text_16">
      <!-- $\mathdefault{50}$ -->
      <g transform="translate(27.137648 92.644734)scale(0.1 -0.1)">
       <use transform="scale(0.996264)" xlink:href="#URW_Palladio_L_Roman-53"/>
       <use transform="translate(49.8132 0)scale(0.996264)" xlink:href="#URW_Palladio_L_Roman-48"/>
      </g>
     </g>
    </g>
    <g id="ytick_7">
     <g id="line2d_17">
      <g>
       <use style="stroke:#000000;stroke-width:0.8;" x="44.100288" xlink:href="#mc4899d4390" y="52.234338"/>
      </g>
     </g>
     <g id="text_17">
      <!-- $\mathdefault{60}$ -->
      <g transform="translate(27.137648 55.798457)scale(0.1 -0.1)">
       <use transform="scale(0.996264)" xlink:href="#URW_Palladio_L_Roman-54"/>
       <use transform="translate(49.8132 0)scale(0.996264)" xlink:href="#URW_Palladio_L_Roman-48"/>
      </g>
     </g>
    </g>
    <g id="ytick_8">
     <g id="line2d_18">
      <g>
       <use style="stroke:#000000;stroke-width:0.8;" x="44.100288" xlink:href="#mc4899d4390" y="15.388062"/>
      </g>
     </g>
     <g id="text_18">
      <!-- $\mathdefault{70}$ -->
      <g transform="translate(27.137648 18.95218)scale(0.1 -0.1)">
       <use transform="scale(0.996264)" xlink:href="#URW_Palladio_L_Roman-55"/>
       <use transform="translate(49.8132 0)scale(0.996264)" xlink:href="#URW_Palladio_L_Roman-48"/>
      </g>
     </g>
    </g>
    <g id="text_19">
     <!-- ICU corona load [\%] -->
     <g transform="translate(14.328237 185.202084)rotate(-90)scale(0.1 -0.1)">
      <defs>
       <path d="M 21.59375 57.234375 
C 21.59375 65.1875 22.09375 66 26.703125 66 
L 31.5 66 
L 31.5 69.109375 
C 24.203125 69.109375 22 69.109375 16.796875 69.109375 
C 11.796875 69.109375 9.40625 69.109375 2.203125 69.109375 
L 2.203125 66 
L 7 66 
C 11.59375 66 12.09375 65.1875 12.09375 57.234375 
L 12.09375 11.96875 
C 12.09375 4 11.59375 3.203125 7 3.203125 
L 2.203125 3.203125 
L 2.203125 0 
C 8.09375 0 11.59375 0 16.796875 0 
C 22 0 25.59375 0 31.5 0 
L 31.5 3.203125 
L 26.703125 3.203125 
C 22.09375 3.203125 21.59375 4 21.59375 11.96875 
z
" id="URW_Palladio_L_Roman-73"/>
       <path d="M 67 8.421875 
L 66.09375 9.421875 
C 59.90625 5.40625 53 3.40625 45.40625 3.40625 
C 25.90625 3.40625 12.90625 16.421875 12.90625 36.140625 
C 12.90625 54.578125 24.296875 66.78125 41.5 66.78125 
C 51.296875 66.78125 61.40625 62.78125 61.40625 58.890625 
L 61.40625 51.671875 
L 64.5 51.671875 
C 64.59375 56.671875 65 60.265625 66.40625 66.875 
C 57.90625 69.6875 50.59375 71 43.296875 71 
C 34.59375 71 26.296875 68.890625 19.59375 64.984375 
C 8.203125 58.28125 2.203125 47.765625 2.203125 34.25 
C 2.203125 12.609375 18 -2 41.5 -2 
C 49.796875 -2 57.296875 -0.203125 64.203125 3.40625 
z
" id="URW_Palladio_L_Roman-67"/>
       <path d="M 66.40625 57.25 
C 66.40625 65.09375 66.90625 66 71.5 66 
L 75.90625 66 
L 75.90625 69.109375 
C 65.40625 69.109375 65.40625 69.109375 63.90625 69.109375 
C 62.203125 69.109375 62.203125 69.109375 52.296875 69.109375 
L 52.296875 66 
L 56.703125 66 
C 61.296875 66 61.796875 65.09375 61.796875 57.25 
L 61.796875 25.046875 
C 61.796875 10.859375 55 4.203125 40.5 4.203125 
C 26.59375 4.203125 20.59375 9.75 20.59375 22.625 
L 20.59375 57.25 
C 20.59375 65.1875 21.09375 66 25.703125 66 
L 30.5 66 
L 30.5 69.109375 
C 23.203125 69.109375 21 69.109375 15.796875 69.109375 
C 10.796875 69.109375 8.40625 69.109375 1.203125 69.109375 
L 1.203125 66 
L 6 66 
C 10.59375 66 11.09375 65.1875 11.09375 57.25 
L 11.09375 21.53125 
C 11.09375 13.6875 12.90625 8.15625 16.703125 4.234375 
C 20.703125 0.109375 27.796875 -2 37.796875 -2 
C 48.09375 -2 55 0.109375 59.5 4.734375 
C 64.203125 9.46875 66.40625 17.015625 66.40625 28.1875 
z
" id="URW_Palladio_L_Roman-85"/>
       <path d="M 39.90625 31.15625 
C 39.90625 35.765625 40.40625 39.875 41.296875 43.484375 
C 37.296875 45.890625 33.796875 47 29.703125 47 
C 24.90625 47 19.296875 45.09375 13.296875 41.28125 
C 6.296875 36.875 2.59375 29.859375 2.59375 21.046875 
C 2.59375 7.515625 12.09375 -2 25.5 -2 
C 30.703125 -2 38.203125 -0.09375 39.203125 1.40625 
L 41.296875 4.609375 
L 40.296875 6.109375 
C 36.59375 4.109375 33.40625 3.203125 29.796875 3.203125 
C 18.703125 3.203125 11.40625 11.828125 11.40625 25.046875 
C 11.40625 35.765625 16.40625 41.78125 25.40625 41.78125 
C 29.796875 41.78125 34.59375 39.78125 36.40625 37.28125 
L 37.09375 31.15625 
z
" id="URW_Palladio_L_Roman-99"/>
       <path d="M 27.90625 47 
C 13.296875 47 3.203125 36.671875 3.203125 21.75 
C 3.203125 7.609375 12.09375 -2 25 -2 
C 40.40625 -2 51.40625 8.71875 51.40625 23.75 
C 51.40625 37.28125 41.59375 47 27.90625 47 
z
M 26.09375 43.6875 
C 35.296875 43.6875 42.09375 33.671875 42.09375 20.046875 
C 42.09375 8.515625 37 1.296875 28.90625 1.296875 
C 19.09375 1.296875 12.5 10.921875 12.5 25.15625 
C 12.5 37.171875 17.296875 43.6875 26.09375 43.6875 
z
" id="URW_Palladio_L_Roman-111"/>
       <path d="M 2.296875 40.078125 
L 6 40.078125 
C 10 40.078125 10.40625 39.375 10.40625 32.71875 
L 10.40625 10.046875 
C 10.40625 3.703125 10.09375 3 6.703125 3 
L 2.09375 3 
L 2.09375 -0.109375 
C 9.296875 -0.109375 11.90625 -0.109375 14.40625 -0.109375 
C 16.40625 -0.109375 16.40625 -0.109375 28.703125 -0.109375 
L 28.703125 3 
L 23.5 3 
C 19 3 18.796875 3.296875 18.796875 9.96875 
L 18.796875 27.359375 
C 18.796875 33.421875 22.796875 38.484375 27.703125 38.484375 
C 30.703125 38.484375 32.796875 37.078125 34.40625 33.890625 
L 36.5 33.890625 
L 37.40625 45.890625 
C 36.296875 46.59375 34.5 47 32.703125 47 
C 29.703125 47 26.5 45.390625 24.40625 42.890625 
L 18.796875 36.28125 
L 18.796875 46.59375 
L 17.90625 47 
C 12.796875 44.890625 7.59375 43.484375 2.296875 42.890625 
z
" id="URW_Palladio_L_Roman-114"/>
       <path d="M 41 -0.109375 
C 47.09375 -0.109375 47.203125 -0.109375 48.90625 -0.109375 
C 50.296875 -0.109375 50.296875 -0.109375 57.203125 -0.109375 
L 57.203125 2.796875 
L 53.09375 3.203125 
C 49.703125 3.203125 49.40625 3.8125 49.40625 10.21875 
L 49.40625 29.5625 
C 49.40625 41.28125 43.90625 47 32.703125 47 
C 29 47 26.90625 46.296875 24.796875 44.484375 
L 17.203125 37.875 
L 17.203125 46.59375 
L 16.296875 47 
C 11.203125 44.890625 6 43.484375 0.703125 42.890625 
L 0.703125 40.078125 
L 4.40625 40.078125 
C 8.40625 40.078125 8.796875 39.375 8.796875 32.71875 
L 8.796875 10.046875 
C 8.796875 3.703125 8.5 3 5.09375 3 
L 0.59375 3 
L 0.59375 -0.109375 
C 7.40625 -0.109375 10.09375 -0.109375 13 -0.109375 
C 15.90625 -0.109375 18.59375 -0.109375 25.40625 -0.109375 
L 25.40625 3 
L 20.90625 3 
C 17.5 3 17.203125 3.703125 17.203125 10.046875 
L 17.203125 31.421875 
C 17.203125 35.9375 23.796875 40.875 29.90625 40.875 
C 36.59375 40.875 41 35.890625 41 28.21875 
z
" id="URW_Palladio_L_Roman-110"/>
       <path d="M 32.40625 8.40625 
L 31.90625 -0.015625 
C 38.40625 -0.015625 38.40625 -0.015625 39.703125 -0.015625 
C 40.203125 -0.015625 42.703125 -0.015625 47.09375 -0.015625 
L 47.09375 3 
L 43.203125 3 
C 40.796875 3 40.40625 3.8125 40.40625 8.71875 
L 40.40625 27.046875 
C 40.40625 41.6875 36.203125 47 24.59375 47 
C 20.296875 47 16.296875 45.890625 12.5 43.609375 
L 7.203125 40.390625 
L 7.203125 33.921875 
L 9.796875 33.21875 
L 11.09375 36.296875 
C 13.203125 40.984375 14.203125 41.6875 18.796875 41.6875 
C 28.203125 41.6875 32.09375 37.984375 32.40625 28.9375 
L 22.5 27.125 
C 8.90625 24.640625 3.203125 19.953125 3.203125 11.28125 
C 3.203125 3.5 7.90625 -1 15.796875 -1 
C 17.59375 -1 19.296875 -0.703125 20 -0.203125 
z
M 32.40625 12.59375 
C 29.5 8.5 23.203125 4.71875 19.296875 4.71875 
C 15.296875 4.71875 11.796875 8.40625 11.796875 12.6875 
C 11.796875 16.375 13.796875 19.859375 16.796875 21.75 
C 19.296875 23.25 24.796875 24.640625 32.40625 25.75 
z
" id="URW_Palladio_L_Roman-97"/>
       <path d="M 2.296875 66.5 
L 7.90625 66.5 
C 9.703125 66.5 10.40625 65.390625 10.40625 62.375 
L 10.40625 10.171875 
C 10.40625 3.8125 10.09375 3.109375 6.703125 3.109375 
L 2.09375 3.109375 
L 2.09375 0 
C 12.09375 0 12.09375 0 14.59375 0 
C 17.09375 0 17.09375 0 27.09375 0 
L 27.09375 3.109375 
L 22.5 3.109375 
C 19.09375 3.109375 18.796875 3.8125 18.796875 10.15625 
L 18.796875 72.203125 
L 17.90625 73.015625 
C 13.5 71.3125 10.203125 70.5 2.296875 69.296875 
z
" id="URW_Palladio_L_Roman-108"/>
       <path d="M 41.203125 43.78125 
C 35.59375 46.1875 32.796875 47 29.296875 47 
C 26.59375 47 24.203125 46.390625 21.703125 45.109375 
L 12.90625 40.515625 
C 7.203125 37.515625 3.5 30.234375 3.5 21.75 
C 3.5 13.765625 6.203125 7.1875 11.09375 3.1875 
C 14.5 0.296875 19.203125 -1 25.703125 -1 
C 27.703125 -1 30 -0.59375 30.5 -0.203125 
L 41.59375 9.109375 
L 41.09375 -0.109375 
C 46 -0.109375 47.59375 -0.109375 48.796875 -0.109375 
C 49.59375 -0.109375 51 -0.109375 53.09375 -0.109375 
C 53.796875 -0.109375 55.796875 -0.109375 57.90625 -0.109375 
L 57.90625 3 
L 53.296875 3 
C 49.90625 3 49.59375 3.703125 49.59375 10.046875 
L 49.59375 71.984375 
L 48.703125 72.796875 
C 44.296875 71.09375 41 70.28125 33.09375 69.078125 
L 33.09375 66.28125 
L 38.703125 66.28125 
C 40.5 66.28125 41.203125 65.171875 41.203125 62.15625 
z
M 41.203125 22.25 
C 41.203125 15.765625 41 14.78125 39.703125 12.484375 
C 36.90625 7.796875 32 4.71875 27.296875 4.71875 
C 18.5 4.71875 12.203125 13.1875 12.203125 25.046875 
C 12.203125 35.90625 17.59375 42.28125 26.59375 42.28125 
C 30.40625 42.28125 34.40625 40.984375 37.90625 38.59375 
C 40 37.203125 41.203125 35.90625 41.203125 35.09375 
z
" id="URW_Palladio_L_Roman-100"/>
       <path d="M 8.796875 -18 
C 15.90625 -18 16.09375 -18 18.5 -18 
C 20.90625 -18 21.40625 -18 28.203125 -18 
L 28.796875 -17.5 
L 28.796875 -14.890625 
L 28.40625 -14.390625 
L 24.59375 -14.390625 
C 21.90625 -14.390625 19.703125 -13.78125 18.5 -12.78125 
C 17.59375 -11.875 17.296875 -10.484375 17.296875 -7.171875 
C 17.296875 -7.078125 17.296875 -4.96875 17.203125 -1.953125 
L 17.203125 1.75 
L 17.203125 53.265625 
L 17.203125 56.96875 
C 17.296875 59.78125 17.296875 61.984375 17.296875 62.078125 
C 17.296875 65.390625 17.59375 66.890625 18.5 67.796875 
C 19.703125 68.796875 21.90625 69.390625 24.59375 69.390625 
L 28.40625 69.390625 
L 28.796875 69.890625 
L 28.796875 72.5 
L 28.203125 73 
C 21.203125 73 20.90625 73 18.5 73 
C 16.203125 73 15.703125 73 8.796875 73 
L 7.90625 71.796875 
C 8.5 69.296875 8.703125 65.984375 8.703125 58.28125 
C 8.703125 56.765625 8.703125 55.5625 8.796875 54.5625 
L 8.796875 53.265625 
L 8.796875 1.75 
L 8.796875 0.4375 
C 8.703125 -1.15625 8.703125 -1.265625 8.703125 -2.96875 
L 8.703125 -4.0625 
C 8.703125 -10.875 8.5 -13.6875 7.90625 -16.796875 
z
" id="URW_Palladio_L_Roman-91"/>
       <path d="M 20.296875 69 
C 10.796875 69 3.90625 61.96875 3.90625 52.1875 
C 3.90625 43.25 10.40625 36.703125 19.296875 36.703125 
C 28.59375 36.703125 35.5 43.84375 35.5 53.515625 
C 35.5 62.359375 29 69 20.296875 69 
z
M 20 66.703125 
C 25.09375 66.703125 28.296875 61.5625 28.296875 53.3125 
C 28.296875 44.65625 24.796875 39 19.40625 39 
C 14.09375 39 11.09375 43.953125 11.09375 52.59375 
C 11.09375 61.265625 14.5 66.703125 20 66.703125 
z
M 65 32 
C 55.5 32 48.59375 25.015625 48.59375 15.359375 
C 48.59375 6.484375 55.09375 0 64 0 
C 73.296875 0 80.203125 7.078125 80.203125 16.640625 
C 80.203125 25.40625 73.703125 32 65 32 
z
M 64.703125 29.6875 
C 69.796875 29.6875 73 24.609375 73 16.4375 
C 73 7.890625 69.5 2.296875 64.09375 2.296875 
C 58.796875 2.296875 55.796875 7.1875 55.796875 15.75 
C 55.796875 24.3125 59.203125 29.6875 64.703125 29.6875 
z
M 25 -2 
L 61.59375 71 
L 57.59375 71 
L 21 -2 
z
" id="URW_Palladio_L_Roman-37"/>
       <path d="M 24.5 73 
C 17.40625 73 17.09375 73 14.796875 73 
C 12.40625 73 11.90625 73 5.09375 73 
L 4.5 72.5 
L 4.5 69.890625 
L 4.90625 69.390625 
L 8.703125 69.390625 
C 11.40625 69.390625 13.5 68.796875 14.703125 67.796875 
C 15.703125 66.890625 16 65.484375 16 62.078125 
C 16 61.78125 16 59.78125 16.09375 56.96875 
L 16.09375 53.265625 
L 16.09375 1.75 
L 16.09375 -1.953125 
C 16 -4.859375 16 -6.671875 16 -6.96875 
C 16 -10.375 15.703125 -11.875 14.703125 -12.78125 
C 13.5 -13.78125 11.40625 -14.390625 8.703125 -14.390625 
L 4.90625 -14.390625 
L 4.5 -14.890625 
L 4.5 -17.5 
L 5.09375 -18 
C 12.09375 -18 12.296875 -18 14.796875 -18 
C 17.09375 -18 17.59375 -18 24.5 -18 
L 25.40625 -16.796875 
C 24.796875 -14.390625 24.703125 -11.28125 24.59375 -3.5625 
C 24.59375 -2.15625 24.59375 -0.859375 24.5 0.4375 
L 24.5 1.75 
L 24.5 53.265625 
L 24.5 54.5625 
C 24.59375 55.671875 24.59375 56.96875 24.59375 58.375 
C 24.59375 66.09375 24.796875 69.390625 25.40625 71.796875 
z
" id="URW_Palladio_L_Roman-93"/>
      </defs>
      <use transform="scale(0.996264)" xlink:href="#URW_Palladio_L_Roman-73"/>
      <use transform="translate(33.574079 0)scale(0.996264)" xlink:href="#URW_Palladio_L_Roman-67"/>
      <use transform="translate(104.208872 0)scale(0.996264)" xlink:href="#URW_Palladio_L_Roman-85"/>
      <use transform="translate(206.623842 0)scale(0.996264)" xlink:href="#URW_Palladio_L_Roman-99"/>
      <use transform="translate(250.857411 0)scale(0.996264)" xlink:href="#URW_Palladio_L_Roman-111"/>
      <use transform="translate(305.252991 0)scale(0.996264)" xlink:href="#URW_Palladio_L_Roman-114"/>
      <use transform="translate(342.812308 0)scale(0.996264)" xlink:href="#URW_Palladio_L_Roman-111"/>
      <use transform="translate(397.207889 0)scale(0.996264)" xlink:href="#URW_Palladio_L_Roman-110"/>
      <use transform="translate(455.189949 0)scale(0.996264)" xlink:href="#URW_Palladio_L_Roman-97"/>
      <use transform="translate(529.90975 0)scale(0.996264)" xlink:href="#URW_Palladio_L_Roman-108"/>
      <use transform="translate(558.900112 0)scale(0.996264)" xlink:href="#URW_Palladio_L_Roman-111"/>
      <use transform="translate(613.295692 0)scale(0.996264)" xlink:href="#URW_Palladio_L_Roman-97"/>
      <use transform="translate(663.108892 0)scale(0.996264)" xlink:href="#URW_Palladio_L_Roman-100"/>
      <use transform="translate(748.887123 0)scale(0.996264)" xlink:href="#URW_Palladio_L_Roman-91"/>
      <use transform="translate(782.062353 0)scale(0.996264)" xlink:href="#URW_Palladio_L_Roman-37"/>
      <use transform="translate(865.747496 0)scale(0.996264)" xlink:href="#URW_Palladio_L_Roman-93"/>
     </g>
    </g>
   </g>
   <g id="patch_323">
    <path d="M 44.100288 273.312 
L 44.100288 7.2 
" style="fill:none;stroke:#000000;stroke-linecap:square;stroke-linejoin:miter;stroke-width:0.8;"/>
   </g>
   <g id="patch_324">
    <path d="M 44.100288 273.312 
L 401.220288 273.312 
" style="fill:none;stroke:#000000;stroke-linecap:square;stroke-linejoin:miter;stroke-width:0.8;"/>
   </g>
  </g>
 </g>
 <defs>
  <clipPath id="p04928f32bf">
   <rect height="266.112" width="357.12" x="44.100288" y="7.2"/>
  </clipPath>
 </defs>
</svg>
