<?xml version="1.0" encoding="utf-8" standalone="no"?>
<!DOCTYPE svg PUBLIC "-//W3C//DTD SVG 1.1//EN"
  "http://www.w3.org/Graphics/SVG/1.1/DTD/svg11.dtd">
<!-- Created with matplotlib (https://matplotlib.org/) -->
<svg height="315.419062pt" version="1.1" viewBox="0 0 388.603125 315.419062" width="388.603125pt" xmlns="http://www.w3.org/2000/svg" xmlns:xlink="http://www.w3.org/1999/xlink">
 <metadata>
  <rdf:RDF xmlns:cc="http://creativecommons.org/ns#" xmlns:dc="http://purl.org/dc/elements/1.1/" xmlns:rdf="http://www.w3.org/1999/02/22-rdf-syntax-ns#">
   <cc:Work>
    <dc:type rdf:resource="http://purl.org/dc/dcmitype/StillImage"/>
    <dc:date>2020-12-07T12:15:21.932474</dc:date>
    <dc:format>image/svg+xml</dc:format>
    <dc:creator>
     <cc:Agent>
      <dc:title>Matplotlib v3.3.3, https://matplotlib.org/</dc:title>
     </cc:Agent>
    </dc:creator>
   </cc:Work>
  </rdf:RDF>
 </metadata>
 <defs>
  <style type="text/css">*{stroke-linecap:butt;stroke-linejoin:round;}</style>
 </defs>
 <g id="figure_1">
  <g id="patch_1">
   <path d="M -0 315.419062 
L 388.603125 315.419062 
L 388.603125 0 
L -0 0 
z
" style="fill:#ffffff;"/>
  </g>
  <g id="axes_1">
   <g id="patch_2">
    <path d="M 46.603125 239.758125 
L 381.403125 239.758125 
L 381.403125 22.318125 
L 46.603125 22.318125 
z
" style="fill:#ffffff;"/>
   </g>
   <g id="patch_3">
    <path clip-path="url(#p77317ed29b)" d="M 46.72805 239.758125 
L 47.727453 239.758125 
L 47.727453 226.377202 
L 46.72805 226.377202 
z
" style="fill:#1f77b4;"/>
   </g>
   <g id="patch_4">
    <path clip-path="url(#p77317ed29b)" d="M 47.977304 239.758125 
L 48.976707 239.758125 
L 48.976707 202.960587 
L 47.977304 202.960587 
z
" style="fill:#1f77b4;"/>
   </g>
   <g id="patch_5">
    <path clip-path="url(#p77317ed29b)" d="M 49.226558 239.758125 
L 50.225961 239.758125 
L 50.225961 202.960587 
L 49.226558 202.960587 
z
" style="fill:#1f77b4;"/>
   </g>
   <g id="patch_6">
    <path clip-path="url(#p77317ed29b)" d="M 50.475812 239.758125 
L 51.475215 239.758125 
L 51.475215 179.543971 
L 50.475812 179.543971 
z
" style="fill:#1f77b4;"/>
   </g>
   <g id="patch_7">
    <path clip-path="url(#p77317ed29b)" d="M 51.725065 239.758125 
L 52.724468 239.758125 
L 52.724468 179.543971 
L 51.725065 179.543971 
z
" style="fill:#1f77b4;"/>
   </g>
   <g id="patch_8">
    <path clip-path="url(#p77317ed29b)" d="M 52.974319 239.758125 
L 53.973722 239.758125 
L 53.973722 159.472587 
L 52.974319 159.472587 
z
" style="fill:#1f77b4;"/>
   </g>
   <g id="patch_9">
    <path clip-path="url(#p77317ed29b)" d="M 54.223573 239.758125 
L 55.222976 239.758125 
L 55.222976 139.401202 
L 54.223573 139.401202 
z
" style="fill:#1f77b4;"/>
   </g>
   <g id="patch_10">
    <path clip-path="url(#p77317ed29b)" d="M 55.472826 239.758125 
L 56.472229 239.758125 
L 56.472229 132.71074 
L 55.472826 132.71074 
z
" style="fill:#1f77b4;"/>
   </g>
   <g id="patch_11">
    <path clip-path="url(#p77317ed29b)" d="M 56.72208 239.758125 
L 57.721483 239.758125 
L 57.721483 129.36551 
L 56.72208 129.36551 
z
" style="fill:#1f77b4;"/>
   </g>
   <g id="patch_12">
    <path clip-path="url(#p77317ed29b)" d="M 57.971334 239.758125 
L 58.970737 239.758125 
L 58.970737 112.639356 
L 57.971334 112.639356 
z
" style="fill:#1f77b4;"/>
   </g>
   <g id="patch_13">
    <path clip-path="url(#p77317ed29b)" d="M 59.220588 239.758125 
L 60.219991 239.758125 
L 60.219991 105.948894 
L 59.220588 105.948894 
z
" style="fill:#1f77b4;"/>
   </g>
   <g id="patch_14">
    <path clip-path="url(#p77317ed29b)" d="M 60.469841 239.758125 
L 61.469244 239.758125 
L 61.469244 95.913202 
L 60.469841 95.913202 
z
" style="fill:#1f77b4;"/>
   </g>
   <g id="patch_15">
    <path clip-path="url(#p77317ed29b)" d="M 61.719095 239.758125 
L 62.718498 239.758125 
L 62.718498 89.22274 
L 61.719095 89.22274 
z
" style="fill:#1f77b4;"/>
   </g>
   <g id="patch_16">
    <path clip-path="url(#p77317ed29b)" d="M 62.968349 239.758125 
L 63.967752 239.758125 
L 63.967752 69.151356 
L 62.968349 69.151356 
z
" style="fill:#1f77b4;"/>
   </g>
   <g id="patch_17">
    <path clip-path="url(#p77317ed29b)" d="M 64.217603 239.758125 
L 65.217006 239.758125 
L 65.217006 52.425202 
L 64.217603 52.425202 
z
" style="fill:#1f77b4;"/>
   </g>
   <g id="patch_18">
    <path clip-path="url(#p77317ed29b)" d="M 65.466856 239.758125 
L 66.466259 239.758125 
L 66.466259 32.353817 
L 65.466856 32.353817 
z
" style="fill:#1f77b4;"/>
   </g>
   <g id="patch_19">
    <path clip-path="url(#p77317ed29b)" d="M 66.71611 239.758125 
L 67.715513 239.758125 
L 67.715513 32.353817 
L 66.71611 32.353817 
z
" style="fill:#1f77b4;"/>
   </g>
   <g id="patch_20">
    <path clip-path="url(#p77317ed29b)" d="M 67.965364 239.758125 
L 68.964767 239.758125 
L 68.964767 49.079971 
L 67.965364 49.079971 
z
" style="fill:#1f77b4;"/>
   </g>
   <g id="patch_21">
    <path clip-path="url(#p77317ed29b)" d="M 69.214618 239.758125 
L 70.214021 239.758125 
L 70.214021 39.044279 
L 69.214618 39.044279 
z
" style="fill:#1f77b4;"/>
   </g>
   <g id="patch_22">
    <path clip-path="url(#p77317ed29b)" d="M 70.463871 239.758125 
L 71.463274 239.758125 
L 71.463274 39.044279 
L 70.463871 39.044279 
z
" style="fill:#1f77b4;"/>
   </g>
   <g id="patch_23">
    <path clip-path="url(#p77317ed29b)" d="M 71.713125 239.758125 
L 72.712528 239.758125 
L 72.712528 35.699048 
L 71.713125 35.699048 
z
" style="fill:#1f77b4;"/>
   </g>
   <g id="patch_24">
    <path clip-path="url(#p77317ed29b)" d="M 72.962379 239.758125 
L 73.961782 239.758125 
L 73.961782 62.460894 
L 72.962379 62.460894 
z
" style="fill:#1f77b4;"/>
   </g>
   <g id="patch_25">
    <path clip-path="url(#p77317ed29b)" d="M 74.211632 239.758125 
L 75.211035 239.758125 
L 75.211035 65.806125 
L 74.211632 65.806125 
z
" style="fill:#1f77b4;"/>
   </g>
   <g id="patch_26">
    <path clip-path="url(#p77317ed29b)" d="M 75.460886 239.758125 
L 76.460289 239.758125 
L 76.460289 25.663356 
L 75.460886 25.663356 
z
" style="fill:#1f77b4;"/>
   </g>
   <g id="patch_27">
    <path clip-path="url(#p77317ed29b)" d="M 76.71014 239.758125 
L 77.709543 239.758125 
L 77.709543 22.318125 
L 76.71014 22.318125 
z
" style="fill:#1f77b4;"/>
   </g>
   <g id="patch_28">
    <path clip-path="url(#p77317ed29b)" d="M 77.959394 239.758125 
L 78.958797 239.758125 
L 78.958797 25.663356 
L 77.959394 25.663356 
z
" style="fill:#1f77b4;"/>
   </g>
   <g id="patch_29">
    <path clip-path="url(#p77317ed29b)" d="M 79.208647 239.758125 
L 80.20805 239.758125 
L 80.20805 45.73474 
L 79.208647 45.73474 
z
" style="fill:#1f77b4;"/>
   </g>
   <g id="patch_30">
    <path clip-path="url(#p77317ed29b)" d="M 80.457901 239.758125 
L 81.457304 239.758125 
L 81.457304 52.425202 
L 80.457901 52.425202 
z
" style="fill:#1f77b4;"/>
   </g>
   <g id="patch_31">
    <path clip-path="url(#p77317ed29b)" d="M 81.707155 239.758125 
L 82.706558 239.758125 
L 82.706558 89.22274 
L 81.707155 89.22274 
z
" style="fill:#1f77b4;"/>
   </g>
   <g id="patch_32">
    <path clip-path="url(#p77317ed29b)" d="M 82.956409 239.758125 
L 83.955812 239.758125 
L 83.955812 102.603663 
L 82.956409 102.603663 
z
" style="fill:#1f77b4;"/>
   </g>
   <g id="patch_33">
    <path clip-path="url(#p77317ed29b)" d="M 84.205662 239.758125 
L 85.205065 239.758125 
L 85.205065 109.294125 
L 84.205662 109.294125 
z
" style="fill:#1f77b4;"/>
   </g>
   <g id="patch_34">
    <path clip-path="url(#p77317ed29b)" d="M 85.454916 239.758125 
L 86.454319 239.758125 
L 86.454319 132.71074 
L 85.454916 132.71074 
z
" style="fill:#1f77b4;"/>
   </g>
   <g id="patch_35">
    <path clip-path="url(#p77317ed29b)" d="M 86.70417 239.758125 
L 87.703573 239.758125 
L 87.703573 126.020279 
L 86.70417 126.020279 
z
" style="fill:#1f77b4;"/>
   </g>
   <g id="patch_36">
    <path clip-path="url(#p77317ed29b)" d="M 87.953424 239.758125 
L 88.952826 239.758125 
L 88.952826 132.71074 
L 87.953424 132.71074 
z
" style="fill:#1f77b4;"/>
   </g>
   <g id="patch_37">
    <path clip-path="url(#p77317ed29b)" d="M 89.202677 239.758125 
L 90.20208 239.758125 
L 90.20208 146.091663 
L 89.202677 146.091663 
z
" style="fill:#1f77b4;"/>
   </g>
   <g id="patch_38">
    <path clip-path="url(#p77317ed29b)" d="M 90.451931 239.758125 
L 91.451334 239.758125 
L 91.451334 162.817817 
L 90.451931 162.817817 
z
" style="fill:#1f77b4;"/>
   </g>
   <g id="patch_39">
    <path clip-path="url(#p77317ed29b)" d="M 91.701185 239.758125 
L 92.700588 239.758125 
L 92.700588 176.19874 
L 91.701185 176.19874 
z
" style="fill:#1f77b4;"/>
   </g>
   <g id="patch_40">
    <path clip-path="url(#p77317ed29b)" d="M 92.950438 239.758125 
L 93.949841 239.758125 
L 93.949841 172.85351 
L 92.950438 172.85351 
z
" style="fill:#1f77b4;"/>
   </g>
   <g id="patch_41">
    <path clip-path="url(#p77317ed29b)" d="M 94.199692 239.758125 
L 95.199095 239.758125 
L 95.199095 176.19874 
L 94.199692 176.19874 
z
" style="fill:#1f77b4;"/>
   </g>
   <g id="patch_42">
    <path clip-path="url(#p77317ed29b)" d="M 95.448946 239.758125 
L 96.448349 239.758125 
L 96.448349 182.889202 
L 95.448946 182.889202 
z
" style="fill:#1f77b4;"/>
   </g>
   <g id="patch_43">
    <path clip-path="url(#p77317ed29b)" d="M 96.6982 239.758125 
L 97.697603 239.758125 
L 97.697603 186.234433 
L 96.6982 186.234433 
z
" style="fill:#1f77b4;"/>
   </g>
   <g id="patch_44">
    <path clip-path="url(#p77317ed29b)" d="M 97.947453 239.758125 
L 98.946856 239.758125 
L 98.946856 192.924894 
L 97.947453 192.924894 
z
" style="fill:#1f77b4;"/>
   </g>
   <g id="patch_45">
    <path clip-path="url(#p77317ed29b)" d="M 99.196707 239.758125 
L 100.19611 239.758125 
L 100.19611 192.924894 
L 99.196707 192.924894 
z
" style="fill:#1f77b4;"/>
   </g>
   <g id="patch_46">
    <path clip-path="url(#p77317ed29b)" d="M 100.445961 239.758125 
L 101.445364 239.758125 
L 101.445364 186.234433 
L 100.445961 186.234433 
z
" style="fill:#1f77b4;"/>
   </g>
   <g id="patch_47">
    <path clip-path="url(#p77317ed29b)" d="M 101.695215 239.758125 
L 102.694618 239.758125 
L 102.694618 189.579663 
L 101.695215 189.579663 
z
" style="fill:#1f77b4;"/>
   </g>
   <g id="patch_48">
    <path clip-path="url(#p77317ed29b)" d="M 102.944468 239.758125 
L 103.943871 239.758125 
L 103.943871 192.924894 
L 102.944468 192.924894 
z
" style="fill:#1f77b4;"/>
   </g>
   <g id="patch_49">
    <path clip-path="url(#p77317ed29b)" d="M 104.193722 239.758125 
L 105.193125 239.758125 
L 105.193125 196.270125 
L 104.193722 196.270125 
z
" style="fill:#1f77b4;"/>
   </g>
   <g id="patch_50">
    <path clip-path="url(#p77317ed29b)" d="M 105.442976 239.758125 
L 106.442379 239.758125 
L 106.442379 202.960587 
L 105.442976 202.960587 
z
" style="fill:#1f77b4;"/>
   </g>
   <g id="patch_51">
    <path clip-path="url(#p77317ed29b)" d="M 106.692229 239.758125 
L 107.691632 239.758125 
L 107.691632 206.305817 
L 106.692229 206.305817 
z
" style="fill:#1f77b4;"/>
   </g>
   <g id="patch_52">
    <path clip-path="url(#p77317ed29b)" d="M 107.941483 239.758125 
L 108.940886 239.758125 
L 108.940886 202.960587 
L 107.941483 202.960587 
z
" style="fill:#1f77b4;"/>
   </g>
   <g id="patch_53">
    <path clip-path="url(#p77317ed29b)" d="M 109.190737 239.758125 
L 110.19014 239.758125 
L 110.19014 206.305817 
L 109.190737 206.305817 
z
" style="fill:#1f77b4;"/>
   </g>
   <g id="patch_54">
    <path clip-path="url(#p77317ed29b)" d="M 110.439991 239.758125 
L 111.439394 239.758125 
L 111.439394 202.960587 
L 110.439991 202.960587 
z
" style="fill:#1f77b4;"/>
   </g>
   <g id="patch_55">
    <path clip-path="url(#p77317ed29b)" d="M 111.689244 239.758125 
L 112.688647 239.758125 
L 112.688647 202.960587 
L 111.689244 202.960587 
z
" style="fill:#1f77b4;"/>
   </g>
   <g id="patch_56">
    <path clip-path="url(#p77317ed29b)" d="M 112.938498 239.758125 
L 113.937901 239.758125 
L 113.937901 202.960587 
L 112.938498 202.960587 
z
" style="fill:#1f77b4;"/>
   </g>
   <g id="patch_57">
    <path clip-path="url(#p77317ed29b)" d="M 114.187752 239.758125 
L 115.187155 239.758125 
L 115.187155 209.651048 
L 114.187752 209.651048 
z
" style="fill:#1f77b4;"/>
   </g>
   <g id="patch_58">
    <path clip-path="url(#p77317ed29b)" d="M 115.437006 239.758125 
L 116.436409 239.758125 
L 116.436409 209.651048 
L 115.437006 209.651048 
z
" style="fill:#1f77b4;"/>
   </g>
   <g id="patch_59">
    <path clip-path="url(#p77317ed29b)" d="M 116.686259 239.758125 
L 117.685662 239.758125 
L 117.685662 212.996279 
L 116.686259 212.996279 
z
" style="fill:#1f77b4;"/>
   </g>
   <g id="patch_60">
    <path clip-path="url(#p77317ed29b)" d="M 117.935513 239.758125 
L 118.934916 239.758125 
L 118.934916 216.34151 
L 117.935513 216.34151 
z
" style="fill:#1f77b4;"/>
   </g>
   <g id="patch_61">
    <path clip-path="url(#p77317ed29b)" d="M 119.184767 239.758125 
L 120.18417 239.758125 
L 120.18417 216.34151 
L 119.184767 216.34151 
z
" style="fill:#1f77b4;"/>
   </g>
   <g id="patch_62">
    <path clip-path="url(#p77317ed29b)" d="M 120.434021 239.758125 
L 121.433424 239.758125 
L 121.433424 216.34151 
L 120.434021 216.34151 
z
" style="fill:#1f77b4;"/>
   </g>
   <g id="patch_63">
    <path clip-path="url(#p77317ed29b)" d="M 121.683274 239.758125 
L 122.682677 239.758125 
L 122.682677 216.34151 
L 121.683274 216.34151 
z
" style="fill:#1f77b4;"/>
   </g>
   <g id="patch_64">
    <path clip-path="url(#p77317ed29b)" d="M 122.932528 239.758125 
L 123.931931 239.758125 
L 123.931931 223.031971 
L 122.932528 223.031971 
z
" style="fill:#1f77b4;"/>
   </g>
   <g id="patch_65">
    <path clip-path="url(#p77317ed29b)" d="M 124.181782 239.758125 
L 125.181185 239.758125 
L 125.181185 223.031971 
L 124.181782 223.031971 
z
" style="fill:#1f77b4;"/>
   </g>
   <g id="patch_66">
    <path clip-path="url(#p77317ed29b)" d="M 125.431035 239.758125 
L 126.430438 239.758125 
L 126.430438 223.031971 
L 125.431035 223.031971 
z
" style="fill:#1f77b4;"/>
   </g>
   <g id="patch_67">
    <path clip-path="url(#p77317ed29b)" d="M 126.680289 239.758125 
L 127.679692 239.758125 
L 127.679692 219.68674 
L 126.680289 219.68674 
z
" style="fill:#1f77b4;"/>
   </g>
   <g id="patch_68">
    <path clip-path="url(#p77317ed29b)" d="M 127.929543 239.758125 
L 128.928946 239.758125 
L 128.928946 219.68674 
L 127.929543 219.68674 
z
" style="fill:#1f77b4;"/>
   </g>
   <g id="patch_69">
    <path clip-path="url(#p77317ed29b)" d="M 129.178797 239.758125 
L 130.1782 239.758125 
L 130.1782 223.031971 
L 129.178797 223.031971 
z
" style="fill:#1f77b4;"/>
   </g>
   <g id="patch_70">
    <path clip-path="url(#p77317ed29b)" d="M 130.42805 239.758125 
L 131.427453 239.758125 
L 131.427453 223.031971 
L 130.42805 223.031971 
z
" style="fill:#1f77b4;"/>
   </g>
   <g id="patch_71">
    <path clip-path="url(#p77317ed29b)" d="M 131.677304 239.758125 
L 132.676707 239.758125 
L 132.676707 223.031971 
L 131.677304 223.031971 
z
" style="fill:#1f77b4;"/>
   </g>
   <g id="patch_72">
    <path clip-path="url(#p77317ed29b)" d="M 132.926558 239.758125 
L 133.925961 239.758125 
L 133.925961 223.031971 
L 132.926558 223.031971 
z
" style="fill:#1f77b4;"/>
   </g>
   <g id="patch_73">
    <path clip-path="url(#p77317ed29b)" d="M 134.175812 239.758125 
L 135.175215 239.758125 
L 135.175215 223.031971 
L 134.175812 223.031971 
z
" style="fill:#1f77b4;"/>
   </g>
   <g id="patch_74">
    <path clip-path="url(#p77317ed29b)" d="M 135.425065 239.758125 
L 136.424468 239.758125 
L 136.424468 223.031971 
L 135.425065 223.031971 
z
" style="fill:#1f77b4;"/>
   </g>
   <g id="patch_75">
    <path clip-path="url(#p77317ed29b)" d="M 136.674319 239.758125 
L 137.673722 239.758125 
L 137.673722 223.031971 
L 136.674319 223.031971 
z
" style="fill:#1f77b4;"/>
   </g>
   <g id="patch_76">
    <path clip-path="url(#p77317ed29b)" d="M 137.923573 239.758125 
L 138.922976 239.758125 
L 138.922976 223.031971 
L 137.923573 223.031971 
z
" style="fill:#1f77b4;"/>
   </g>
   <g id="patch_77">
    <path clip-path="url(#p77317ed29b)" d="M 139.172826 239.758125 
L 140.172229 239.758125 
L 140.172229 223.031971 
L 139.172826 223.031971 
z
" style="fill:#1f77b4;"/>
   </g>
   <g id="patch_78">
    <path clip-path="url(#p77317ed29b)" d="M 140.42208 239.758125 
L 141.421483 239.758125 
L 141.421483 223.031971 
L 140.42208 223.031971 
z
" style="fill:#1f77b4;"/>
   </g>
   <g id="patch_79">
    <path clip-path="url(#p77317ed29b)" d="M 141.671334 239.758125 
L 142.670737 239.758125 
L 142.670737 226.377202 
L 141.671334 226.377202 
z
" style="fill:#1f77b4;"/>
   </g>
   <g id="patch_80">
    <path clip-path="url(#p77317ed29b)" d="M 142.920588 239.758125 
L 143.919991 239.758125 
L 143.919991 226.377202 
L 142.920588 226.377202 
z
" style="fill:#1f77b4;"/>
   </g>
   <g id="patch_81">
    <path clip-path="url(#p77317ed29b)" d="M 144.169841 239.758125 
L 145.169244 239.758125 
L 145.169244 226.377202 
L 144.169841 226.377202 
z
" style="fill:#1f77b4;"/>
   </g>
   <g id="patch_82">
    <path clip-path="url(#p77317ed29b)" d="M 145.419095 239.758125 
L 146.418498 239.758125 
L 146.418498 229.722433 
L 145.419095 229.722433 
z
" style="fill:#1f77b4;"/>
   </g>
   <g id="patch_83">
    <path clip-path="url(#p77317ed29b)" d="M 146.668349 239.758125 
L 147.667752 239.758125 
L 147.667752 229.722433 
L 146.668349 229.722433 
z
" style="fill:#1f77b4;"/>
   </g>
   <g id="patch_84">
    <path clip-path="url(#p77317ed29b)" d="M 147.917603 239.758125 
L 148.917006 239.758125 
L 148.917006 233.067663 
L 147.917603 233.067663 
z
" style="fill:#1f77b4;"/>
   </g>
   <g id="patch_85">
    <path clip-path="url(#p77317ed29b)" d="M 149.166856 239.758125 
L 150.166259 239.758125 
L 150.166259 233.067663 
L 149.166856 233.067663 
z
" style="fill:#1f77b4;"/>
   </g>
   <g id="patch_86">
    <path clip-path="url(#p77317ed29b)" d="M 150.41611 239.758125 
L 151.415513 239.758125 
L 151.415513 233.067663 
L 150.41611 233.067663 
z
" style="fill:#1f77b4;"/>
   </g>
   <g id="patch_87">
    <path clip-path="url(#p77317ed29b)" d="M 151.665364 239.758125 
L 152.664767 239.758125 
L 152.664767 233.067663 
L 151.665364 233.067663 
z
" style="fill:#1f77b4;"/>
   </g>
   <g id="patch_88">
    <path clip-path="url(#p77317ed29b)" d="M 152.914618 239.758125 
L 153.914021 239.758125 
L 153.914021 233.067663 
L 152.914618 233.067663 
z
" style="fill:#1f77b4;"/>
   </g>
   <g id="patch_89">
    <path clip-path="url(#p77317ed29b)" d="M 154.163871 239.758125 
L 155.163274 239.758125 
L 155.163274 233.067663 
L 154.163871 233.067663 
z
" style="fill:#1f77b4;"/>
   </g>
   <g id="patch_90">
    <path clip-path="url(#p77317ed29b)" d="M 155.413125 239.758125 
L 156.412528 239.758125 
L 156.412528 233.067663 
L 155.413125 233.067663 
z
" style="fill:#1f77b4;"/>
   </g>
   <g id="patch_91">
    <path clip-path="url(#p77317ed29b)" d="M 156.662379 239.758125 
L 157.661782 239.758125 
L 157.661782 233.067663 
L 156.662379 233.067663 
z
" style="fill:#1f77b4;"/>
   </g>
   <g id="patch_92">
    <path clip-path="url(#p77317ed29b)" d="M 157.911632 239.758125 
L 158.911035 239.758125 
L 158.911035 233.067663 
L 157.911632 233.067663 
z
" style="fill:#1f77b4;"/>
   </g>
   <g id="patch_93">
    <path clip-path="url(#p77317ed29b)" d="M 159.160886 239.758125 
L 160.160289 239.758125 
L 160.160289 233.067663 
L 159.160886 233.067663 
z
" style="fill:#1f77b4;"/>
   </g>
   <g id="patch_94">
    <path clip-path="url(#p77317ed29b)" d="M 160.41014 239.758125 
L 161.409543 239.758125 
L 161.409543 233.067663 
L 160.41014 233.067663 
z
" style="fill:#1f77b4;"/>
   </g>
   <g id="patch_95">
    <path clip-path="url(#p77317ed29b)" d="M 161.659394 239.758125 
L 162.658797 239.758125 
L 162.658797 236.412894 
L 161.659394 236.412894 
z
" style="fill:#1f77b4;"/>
   </g>
   <g id="patch_96">
    <path clip-path="url(#p77317ed29b)" d="M 162.908647 239.758125 
L 163.90805 239.758125 
L 163.90805 236.412894 
L 162.908647 236.412894 
z
" style="fill:#1f77b4;"/>
   </g>
   <g id="patch_97">
    <path clip-path="url(#p77317ed29b)" d="M 164.157901 239.758125 
L 165.157304 239.758125 
L 165.157304 236.412894 
L 164.157901 236.412894 
z
" style="fill:#1f77b4;"/>
   </g>
   <g id="patch_98">
    <path clip-path="url(#p77317ed29b)" d="M 165.407155 239.758125 
L 166.406558 239.758125 
L 166.406558 233.067663 
L 165.407155 233.067663 
z
" style="fill:#1f77b4;"/>
   </g>
   <g id="patch_99">
    <path clip-path="url(#p77317ed29b)" d="M 166.656409 239.758125 
L 167.655812 239.758125 
L 167.655812 236.412894 
L 166.656409 236.412894 
z
" style="fill:#1f77b4;"/>
   </g>
   <g id="patch_100">
    <path clip-path="url(#p77317ed29b)" d="M 167.905662 239.758125 
L 168.905065 239.758125 
L 168.905065 236.412894 
L 167.905662 236.412894 
z
" style="fill:#1f77b4;"/>
   </g>
   <g id="patch_101">
    <path clip-path="url(#p77317ed29b)" d="M 169.154916 239.758125 
L 170.154319 239.758125 
L 170.154319 236.412894 
L 169.154916 236.412894 
z
" style="fill:#1f77b4;"/>
   </g>
   <g id="patch_102">
    <path clip-path="url(#p77317ed29b)" d="M 170.40417 239.758125 
L 171.403573 239.758125 
L 171.403573 236.412894 
L 170.40417 236.412894 
z
" style="fill:#1f77b4;"/>
   </g>
   <g id="patch_103">
    <path clip-path="url(#p77317ed29b)" d="M 171.653424 239.758125 
L 172.652826 239.758125 
L 172.652826 236.412894 
L 171.653424 236.412894 
z
" style="fill:#1f77b4;"/>
   </g>
   <g id="patch_104">
    <path clip-path="url(#p77317ed29b)" d="M 172.902677 239.758125 
L 173.90208 239.758125 
L 173.90208 236.412894 
L 172.902677 236.412894 
z
" style="fill:#1f77b4;"/>
   </g>
   <g id="patch_105">
    <path clip-path="url(#p77317ed29b)" d="M 174.151931 239.758125 
L 175.151334 239.758125 
L 175.151334 236.412894 
L 174.151931 236.412894 
z
" style="fill:#1f77b4;"/>
   </g>
   <g id="patch_106">
    <path clip-path="url(#p77317ed29b)" d="M 175.401185 239.758125 
L 176.400588 239.758125 
L 176.400588 236.412894 
L 175.401185 236.412894 
z
" style="fill:#1f77b4;"/>
   </g>
   <g id="patch_107">
    <path clip-path="url(#p77317ed29b)" d="M 176.650438 239.758125 
L 177.649841 239.758125 
L 177.649841 236.412894 
L 176.650438 236.412894 
z
" style="fill:#1f77b4;"/>
   </g>
   <g id="patch_108">
    <path clip-path="url(#p77317ed29b)" d="M 177.899692 239.758125 
L 178.899095 239.758125 
L 178.899095 236.412894 
L 177.899692 236.412894 
z
" style="fill:#1f77b4;"/>
   </g>
   <g id="patch_109">
    <path clip-path="url(#p77317ed29b)" d="M 179.148946 239.758125 
L 180.148349 239.758125 
L 180.148349 236.412894 
L 179.148946 236.412894 
z
" style="fill:#1f77b4;"/>
   </g>
   <g id="patch_110">
    <path clip-path="url(#p77317ed29b)" d="M 180.3982 239.758125 
L 181.397603 239.758125 
L 181.397603 236.412894 
L 180.3982 236.412894 
z
" style="fill:#1f77b4;"/>
   </g>
   <g id="patch_111">
    <path clip-path="url(#p77317ed29b)" d="M 181.647453 239.758125 
L 182.646856 239.758125 
L 182.646856 236.412894 
L 181.647453 236.412894 
z
" style="fill:#1f77b4;"/>
   </g>
   <g id="patch_112">
    <path clip-path="url(#p77317ed29b)" d="M 182.896707 239.758125 
L 183.89611 239.758125 
L 183.89611 239.758125 
L 182.896707 239.758125 
z
" style="fill:#1f77b4;"/>
   </g>
   <g id="patch_113">
    <path clip-path="url(#p77317ed29b)" d="M 184.145961 239.758125 
L 185.145364 239.758125 
L 185.145364 239.758125 
L 184.145961 239.758125 
z
" style="fill:#1f77b4;"/>
   </g>
   <g id="patch_114">
    <path clip-path="url(#p77317ed29b)" d="M 185.395215 239.758125 
L 186.394618 239.758125 
L 186.394618 239.758125 
L 185.395215 239.758125 
z
" style="fill:#1f77b4;"/>
   </g>
   <g id="patch_115">
    <path clip-path="url(#p77317ed29b)" d="M 186.644468 239.758125 
L 187.643871 239.758125 
L 187.643871 239.758125 
L 186.644468 239.758125 
z
" style="fill:#1f77b4;"/>
   </g>
   <g id="patch_116">
    <path clip-path="url(#p77317ed29b)" d="M 187.893722 239.758125 
L 188.893125 239.758125 
L 188.893125 239.758125 
L 187.893722 239.758125 
z
" style="fill:#1f77b4;"/>
   </g>
   <g id="patch_117">
    <path clip-path="url(#p77317ed29b)" d="M 189.142976 239.758125 
L 190.142379 239.758125 
L 190.142379 239.758125 
L 189.142976 239.758125 
z
" style="fill:#1f77b4;"/>
   </g>
   <g id="patch_118">
    <path clip-path="url(#p77317ed29b)" d="M 190.392229 239.758125 
L 191.391632 239.758125 
L 191.391632 239.758125 
L 190.392229 239.758125 
z
" style="fill:#1f77b4;"/>
   </g>
   <g id="patch_119">
    <path clip-path="url(#p77317ed29b)" d="M 191.641483 239.758125 
L 192.640886 239.758125 
L 192.640886 239.758125 
L 191.641483 239.758125 
z
" style="fill:#1f77b4;"/>
   </g>
   <g id="patch_120">
    <path clip-path="url(#p77317ed29b)" d="M 192.890737 239.758125 
L 193.89014 239.758125 
L 193.89014 239.758125 
L 192.890737 239.758125 
z
" style="fill:#1f77b4;"/>
   </g>
   <g id="patch_121">
    <path clip-path="url(#p77317ed29b)" d="M 194.139991 239.758125 
L 195.139394 239.758125 
L 195.139394 239.758125 
L 194.139991 239.758125 
z
" style="fill:#1f77b4;"/>
   </g>
   <g id="patch_122">
    <path clip-path="url(#p77317ed29b)" d="M 195.389244 239.758125 
L 196.388647 239.758125 
L 196.388647 239.758125 
L 195.389244 239.758125 
z
" style="fill:#1f77b4;"/>
   </g>
   <g id="patch_123">
    <path clip-path="url(#p77317ed29b)" d="M 196.638498 239.758125 
L 197.637901 239.758125 
L 197.637901 239.758125 
L 196.638498 239.758125 
z
" style="fill:#1f77b4;"/>
   </g>
   <g id="patch_124">
    <path clip-path="url(#p77317ed29b)" d="M 197.887752 239.758125 
L 198.887155 239.758125 
L 198.887155 239.758125 
L 197.887752 239.758125 
z
" style="fill:#1f77b4;"/>
   </g>
   <g id="patch_125">
    <path clip-path="url(#p77317ed29b)" d="M 199.137006 239.758125 
L 200.136409 239.758125 
L 200.136409 239.758125 
L 199.137006 239.758125 
z
" style="fill:#1f77b4;"/>
   </g>
   <g id="patch_126">
    <path clip-path="url(#p77317ed29b)" d="M 200.386259 239.758125 
L 201.385662 239.758125 
L 201.385662 239.758125 
L 200.386259 239.758125 
z
" style="fill:#1f77b4;"/>
   </g>
   <g id="patch_127">
    <path clip-path="url(#p77317ed29b)" d="M 201.635513 239.758125 
L 202.634916 239.758125 
L 202.634916 239.758125 
L 201.635513 239.758125 
z
" style="fill:#1f77b4;"/>
   </g>
   <g id="patch_128">
    <path clip-path="url(#p77317ed29b)" d="M 202.884767 239.758125 
L 203.88417 239.758125 
L 203.88417 239.758125 
L 202.884767 239.758125 
z
" style="fill:#1f77b4;"/>
   </g>
   <g id="patch_129">
    <path clip-path="url(#p77317ed29b)" d="M 204.134021 239.758125 
L 205.133424 239.758125 
L 205.133424 239.758125 
L 204.134021 239.758125 
z
" style="fill:#1f77b4;"/>
   </g>
   <g id="patch_130">
    <path clip-path="url(#p77317ed29b)" d="M 205.383274 239.758125 
L 206.382677 239.758125 
L 206.382677 239.758125 
L 205.383274 239.758125 
z
" style="fill:#1f77b4;"/>
   </g>
   <g id="patch_131">
    <path clip-path="url(#p77317ed29b)" d="M 206.632528 239.758125 
L 207.631931 239.758125 
L 207.631931 239.758125 
L 206.632528 239.758125 
z
" style="fill:#1f77b4;"/>
   </g>
   <g id="patch_132">
    <path clip-path="url(#p77317ed29b)" d="M 207.881782 239.758125 
L 208.881185 239.758125 
L 208.881185 239.758125 
L 207.881782 239.758125 
z
" style="fill:#1f77b4;"/>
   </g>
   <g id="patch_133">
    <path clip-path="url(#p77317ed29b)" d="M 209.131035 239.758125 
L 210.130438 239.758125 
L 210.130438 239.758125 
L 209.131035 239.758125 
z
" style="fill:#1f77b4;"/>
   </g>
   <g id="patch_134">
    <path clip-path="url(#p77317ed29b)" d="M 210.380289 239.758125 
L 211.379692 239.758125 
L 211.379692 239.758125 
L 210.380289 239.758125 
z
" style="fill:#1f77b4;"/>
   </g>
   <g id="patch_135">
    <path clip-path="url(#p77317ed29b)" d="M 211.629543 239.758125 
L 212.628946 239.758125 
L 212.628946 239.758125 
L 211.629543 239.758125 
z
" style="fill:#1f77b4;"/>
   </g>
   <g id="patch_136">
    <path clip-path="url(#p77317ed29b)" d="M 212.878797 239.758125 
L 213.8782 239.758125 
L 213.8782 239.758125 
L 212.878797 239.758125 
z
" style="fill:#1f77b4;"/>
   </g>
   <g id="patch_137">
    <path clip-path="url(#p77317ed29b)" d="M 214.12805 239.758125 
L 215.127453 239.758125 
L 215.127453 239.758125 
L 214.12805 239.758125 
z
" style="fill:#1f77b4;"/>
   </g>
   <g id="patch_138">
    <path clip-path="url(#p77317ed29b)" d="M 215.377304 239.758125 
L 216.376707 239.758125 
L 216.376707 239.758125 
L 215.377304 239.758125 
z
" style="fill:#1f77b4;"/>
   </g>
   <g id="patch_139">
    <path clip-path="url(#p77317ed29b)" d="M 216.626558 239.758125 
L 217.625961 239.758125 
L 217.625961 236.412894 
L 216.626558 236.412894 
z
" style="fill:#1f77b4;"/>
   </g>
   <g id="patch_140">
    <path clip-path="url(#p77317ed29b)" d="M 217.875812 239.758125 
L 218.875215 239.758125 
L 218.875215 236.412894 
L 217.875812 236.412894 
z
" style="fill:#1f77b4;"/>
   </g>
   <g id="patch_141">
    <path clip-path="url(#p77317ed29b)" d="M 219.125065 239.758125 
L 220.124468 239.758125 
L 220.124468 236.412894 
L 219.125065 236.412894 
z
" style="fill:#1f77b4;"/>
   </g>
   <g id="patch_142">
    <path clip-path="url(#p77317ed29b)" d="M 220.374319 239.758125 
L 221.373722 239.758125 
L 221.373722 236.412894 
L 220.374319 236.412894 
z
" style="fill:#1f77b4;"/>
   </g>
   <g id="patch_143">
    <path clip-path="url(#p77317ed29b)" d="M 221.623573 239.758125 
L 222.622976 239.758125 
L 222.622976 239.758125 
L 221.623573 239.758125 
z
" style="fill:#1f77b4;"/>
   </g>
   <g id="patch_144">
    <path clip-path="url(#p77317ed29b)" d="M 222.872826 239.758125 
L 223.872229 239.758125 
L 223.872229 239.758125 
L 222.872826 239.758125 
z
" style="fill:#1f77b4;"/>
   </g>
   <g id="patch_145">
    <path clip-path="url(#p77317ed29b)" d="M 224.12208 239.758125 
L 225.121483 239.758125 
L 225.121483 239.758125 
L 224.12208 239.758125 
z
" style="fill:#1f77b4;"/>
   </g>
   <g id="patch_146">
    <path clip-path="url(#p77317ed29b)" d="M 225.371334 239.758125 
L 226.370737 239.758125 
L 226.370737 239.758125 
L 225.371334 239.758125 
z
" style="fill:#1f77b4;"/>
   </g>
   <g id="patch_147">
    <path clip-path="url(#p77317ed29b)" d="M 226.620588 239.758125 
L 227.619991 239.758125 
L 227.619991 239.758125 
L 226.620588 239.758125 
z
" style="fill:#1f77b4;"/>
   </g>
   <g id="patch_148">
    <path clip-path="url(#p77317ed29b)" d="M 227.869841 239.758125 
L 228.869244 239.758125 
L 228.869244 239.758125 
L 227.869841 239.758125 
z
" style="fill:#1f77b4;"/>
   </g>
   <g id="patch_149">
    <path clip-path="url(#p77317ed29b)" d="M 229.119095 239.758125 
L 230.118498 239.758125 
L 230.118498 239.758125 
L 229.119095 239.758125 
z
" style="fill:#1f77b4;"/>
   </g>
   <g id="patch_150">
    <path clip-path="url(#p77317ed29b)" d="M 230.368349 239.758125 
L 231.367752 239.758125 
L 231.367752 239.758125 
L 230.368349 239.758125 
z
" style="fill:#1f77b4;"/>
   </g>
   <g id="patch_151">
    <path clip-path="url(#p77317ed29b)" d="M 231.617603 239.758125 
L 232.617006 239.758125 
L 232.617006 239.758125 
L 231.617603 239.758125 
z
" style="fill:#1f77b4;"/>
   </g>
   <g id="patch_152">
    <path clip-path="url(#p77317ed29b)" d="M 232.866856 239.758125 
L 233.866259 239.758125 
L 233.866259 239.758125 
L 232.866856 239.758125 
z
" style="fill:#1f77b4;"/>
   </g>
   <g id="patch_153">
    <path clip-path="url(#p77317ed29b)" d="M 234.11611 239.758125 
L 235.115513 239.758125 
L 235.115513 239.758125 
L 234.11611 239.758125 
z
" style="fill:#1f77b4;"/>
   </g>
   <g id="patch_154">
    <path clip-path="url(#p77317ed29b)" d="M 235.365364 239.758125 
L 236.364767 239.758125 
L 236.364767 236.412894 
L 235.365364 236.412894 
z
" style="fill:#1f77b4;"/>
   </g>
   <g id="patch_155">
    <path clip-path="url(#p77317ed29b)" d="M 236.614618 239.758125 
L 237.614021 239.758125 
L 237.614021 236.412894 
L 236.614618 236.412894 
z
" style="fill:#1f77b4;"/>
   </g>
   <g id="patch_156">
    <path clip-path="url(#p77317ed29b)" d="M 237.863871 239.758125 
L 238.863274 239.758125 
L 238.863274 236.412894 
L 237.863871 236.412894 
z
" style="fill:#1f77b4;"/>
   </g>
   <g id="patch_157">
    <path clip-path="url(#p77317ed29b)" d="M 239.113125 239.758125 
L 240.112528 239.758125 
L 240.112528 236.412894 
L 239.113125 236.412894 
z
" style="fill:#1f77b4;"/>
   </g>
   <g id="patch_158">
    <path clip-path="url(#p77317ed29b)" d="M 240.362379 239.758125 
L 241.361782 239.758125 
L 241.361782 236.412894 
L 240.362379 236.412894 
z
" style="fill:#1f77b4;"/>
   </g>
   <g id="patch_159">
    <path clip-path="url(#p77317ed29b)" d="M 241.611632 239.758125 
L 242.611035 239.758125 
L 242.611035 236.412894 
L 241.611632 236.412894 
z
" style="fill:#1f77b4;"/>
   </g>
   <g id="patch_160">
    <path clip-path="url(#p77317ed29b)" d="M 242.860886 239.758125 
L 243.860289 239.758125 
L 243.860289 236.412894 
L 242.860886 236.412894 
z
" style="fill:#1f77b4;"/>
   </g>
   <g id="patch_161">
    <path clip-path="url(#p77317ed29b)" d="M 244.11014 239.758125 
L 245.109543 239.758125 
L 245.109543 236.412894 
L 244.11014 236.412894 
z
" style="fill:#1f77b4;"/>
   </g>
   <g id="patch_162">
    <path clip-path="url(#p77317ed29b)" d="M 245.359394 239.758125 
L 246.358797 239.758125 
L 246.358797 236.412894 
L 245.359394 236.412894 
z
" style="fill:#1f77b4;"/>
   </g>
   <g id="patch_163">
    <path clip-path="url(#p77317ed29b)" d="M 246.608647 239.758125 
L 247.60805 239.758125 
L 247.60805 236.412894 
L 246.608647 236.412894 
z
" style="fill:#1f77b4;"/>
   </g>
   <g id="patch_164">
    <path clip-path="url(#p77317ed29b)" d="M 247.857901 239.758125 
L 248.857304 239.758125 
L 248.857304 236.412894 
L 247.857901 236.412894 
z
" style="fill:#1f77b4;"/>
   </g>
   <g id="patch_165">
    <path clip-path="url(#p77317ed29b)" d="M 249.107155 239.758125 
L 250.106558 239.758125 
L 250.106558 236.412894 
L 249.107155 236.412894 
z
" style="fill:#1f77b4;"/>
   </g>
   <g id="patch_166">
    <path clip-path="url(#p77317ed29b)" d="M 250.356409 239.758125 
L 251.355812 239.758125 
L 251.355812 236.412894 
L 250.356409 236.412894 
z
" style="fill:#1f77b4;"/>
   </g>
   <g id="patch_167">
    <path clip-path="url(#p77317ed29b)" d="M 251.605662 239.758125 
L 252.605065 239.758125 
L 252.605065 236.412894 
L 251.605662 236.412894 
z
" style="fill:#1f77b4;"/>
   </g>
   <g id="patch_168">
    <path clip-path="url(#p77317ed29b)" d="M 252.854916 239.758125 
L 253.854319 239.758125 
L 253.854319 236.412894 
L 252.854916 236.412894 
z
" style="fill:#1f77b4;"/>
   </g>
   <g id="patch_169">
    <path clip-path="url(#p77317ed29b)" d="M 254.10417 239.758125 
L 255.103573 239.758125 
L 255.103573 236.412894 
L 254.10417 236.412894 
z
" style="fill:#1f77b4;"/>
   </g>
   <g id="patch_170">
    <path clip-path="url(#p77317ed29b)" d="M 255.353424 239.758125 
L 256.352826 239.758125 
L 256.352826 233.067663 
L 255.353424 233.067663 
z
" style="fill:#1f77b4;"/>
   </g>
   <g id="patch_171">
    <path clip-path="url(#p77317ed29b)" d="M 256.602677 239.758125 
L 257.60208 239.758125 
L 257.60208 233.067663 
L 256.602677 233.067663 
z
" style="fill:#1f77b4;"/>
   </g>
   <g id="patch_172">
    <path clip-path="url(#p77317ed29b)" d="M 257.851931 239.758125 
L 258.851334 239.758125 
L 258.851334 233.067663 
L 257.851931 233.067663 
z
" style="fill:#1f77b4;"/>
   </g>
   <g id="patch_173">
    <path clip-path="url(#p77317ed29b)" d="M 259.101185 239.758125 
L 260.100588 239.758125 
L 260.100588 233.067663 
L 259.101185 233.067663 
z
" style="fill:#1f77b4;"/>
   </g>
   <g id="patch_174">
    <path clip-path="url(#p77317ed29b)" d="M 260.350438 239.758125 
L 261.349841 239.758125 
L 261.349841 233.067663 
L 260.350438 233.067663 
z
" style="fill:#1f77b4;"/>
   </g>
   <g id="patch_175">
    <path clip-path="url(#p77317ed29b)" d="M 261.599692 239.758125 
L 262.599095 239.758125 
L 262.599095 233.067663 
L 261.599692 233.067663 
z
" style="fill:#1f77b4;"/>
   </g>
   <g id="patch_176">
    <path clip-path="url(#p77317ed29b)" d="M 262.848946 239.758125 
L 263.848349 239.758125 
L 263.848349 233.067663 
L 262.848946 233.067663 
z
" style="fill:#1f77b4;"/>
   </g>
   <g id="patch_177">
    <path clip-path="url(#p77317ed29b)" d="M 264.0982 239.758125 
L 265.097603 239.758125 
L 265.097603 233.067663 
L 264.0982 233.067663 
z
" style="fill:#1f77b4;"/>
   </g>
   <g id="patch_178">
    <path clip-path="url(#p77317ed29b)" d="M 265.347453 239.758125 
L 266.346856 239.758125 
L 266.346856 233.067663 
L 265.347453 233.067663 
z
" style="fill:#1f77b4;"/>
   </g>
   <g id="patch_179">
    <path clip-path="url(#p77317ed29b)" d="M 266.596707 239.758125 
L 267.59611 239.758125 
L 267.59611 233.067663 
L 266.596707 233.067663 
z
" style="fill:#1f77b4;"/>
   </g>
   <g id="patch_180">
    <path clip-path="url(#p77317ed29b)" d="M 267.845961 239.758125 
L 268.845364 239.758125 
L 268.845364 239.758125 
L 267.845961 239.758125 
z
" style="fill:#1f77b4;"/>
   </g>
   <g id="patch_181">
    <path clip-path="url(#p77317ed29b)" d="M 269.095215 239.758125 
L 270.094618 239.758125 
L 270.094618 239.758125 
L 269.095215 239.758125 
z
" style="fill:#1f77b4;"/>
   </g>
   <g id="patch_182">
    <path clip-path="url(#p77317ed29b)" d="M 270.344468 239.758125 
L 271.343871 239.758125 
L 271.343871 239.758125 
L 270.344468 239.758125 
z
" style="fill:#1f77b4;"/>
   </g>
   <g id="patch_183">
    <path clip-path="url(#p77317ed29b)" d="M 271.593722 239.758125 
L 272.593125 239.758125 
L 272.593125 239.758125 
L 271.593722 239.758125 
z
" style="fill:#1f77b4;"/>
   </g>
   <g id="patch_184">
    <path clip-path="url(#p77317ed29b)" d="M 272.842976 239.758125 
L 273.842379 239.758125 
L 273.842379 239.758125 
L 272.842976 239.758125 
z
" style="fill:#1f77b4;"/>
   </g>
   <g id="patch_185">
    <path clip-path="url(#p77317ed29b)" d="M 274.092229 239.758125 
L 275.091632 239.758125 
L 275.091632 239.758125 
L 274.092229 239.758125 
z
" style="fill:#1f77b4;"/>
   </g>
   <g id="patch_186">
    <path clip-path="url(#p77317ed29b)" d="M 275.341483 239.758125 
L 276.340886 239.758125 
L 276.340886 239.758125 
L 275.341483 239.758125 
z
" style="fill:#1f77b4;"/>
   </g>
   <g id="patch_187">
    <path clip-path="url(#p77317ed29b)" d="M 276.590737 239.758125 
L 277.59014 239.758125 
L 277.59014 236.412894 
L 276.590737 236.412894 
z
" style="fill:#1f77b4;"/>
   </g>
   <g id="patch_188">
    <path clip-path="url(#p77317ed29b)" d="M 277.839991 239.758125 
L 278.839394 239.758125 
L 278.839394 233.067663 
L 277.839991 233.067663 
z
" style="fill:#1f77b4;"/>
   </g>
   <g id="patch_189">
    <path clip-path="url(#p77317ed29b)" d="M 279.089244 239.758125 
L 280.088647 239.758125 
L 280.088647 233.067663 
L 279.089244 233.067663 
z
" style="fill:#1f77b4;"/>
   </g>
   <g id="patch_190">
    <path clip-path="url(#p77317ed29b)" d="M 280.338498 239.758125 
L 281.337901 239.758125 
L 281.337901 233.067663 
L 280.338498 233.067663 
z
" style="fill:#1f77b4;"/>
   </g>
   <g id="patch_191">
    <path clip-path="url(#p77317ed29b)" d="M 281.587752 239.758125 
L 282.587155 239.758125 
L 282.587155 233.067663 
L 281.587752 233.067663 
z
" style="fill:#1f77b4;"/>
   </g>
   <g id="patch_192">
    <path clip-path="url(#p77317ed29b)" d="M 282.837006 239.758125 
L 283.836409 239.758125 
L 283.836409 233.067663 
L 282.837006 233.067663 
z
" style="fill:#1f77b4;"/>
   </g>
   <g id="patch_193">
    <path clip-path="url(#p77317ed29b)" d="M 284.086259 239.758125 
L 285.085662 239.758125 
L 285.085662 236.412894 
L 284.086259 236.412894 
z
" style="fill:#1f77b4;"/>
   </g>
   <g id="patch_194">
    <path clip-path="url(#p77317ed29b)" d="M 285.335513 239.758125 
L 286.334916 239.758125 
L 286.334916 236.412894 
L 285.335513 236.412894 
z
" style="fill:#1f77b4;"/>
   </g>
   <g id="patch_195">
    <path clip-path="url(#p77317ed29b)" d="M 286.584767 239.758125 
L 287.58417 239.758125 
L 287.58417 236.412894 
L 286.584767 236.412894 
z
" style="fill:#1f77b4;"/>
   </g>
   <g id="patch_196">
    <path clip-path="url(#p77317ed29b)" d="M 287.834021 239.758125 
L 288.833424 239.758125 
L 288.833424 236.412894 
L 287.834021 236.412894 
z
" style="fill:#1f77b4;"/>
   </g>
   <g id="patch_197">
    <path clip-path="url(#p77317ed29b)" d="M 289.083274 239.758125 
L 290.082677 239.758125 
L 290.082677 236.412894 
L 289.083274 236.412894 
z
" style="fill:#1f77b4;"/>
   </g>
   <g id="patch_198">
    <path clip-path="url(#p77317ed29b)" d="M 290.332528 239.758125 
L 291.331931 239.758125 
L 291.331931 239.758125 
L 290.332528 239.758125 
z
" style="fill:#1f77b4;"/>
   </g>
   <g id="patch_199">
    <path clip-path="url(#p77317ed29b)" d="M 291.581782 239.758125 
L 292.581185 239.758125 
L 292.581185 239.758125 
L 291.581782 239.758125 
z
" style="fill:#1f77b4;"/>
   </g>
   <g id="patch_200">
    <path clip-path="url(#p77317ed29b)" d="M 292.831035 239.758125 
L 293.830438 239.758125 
L 293.830438 239.758125 
L 292.831035 239.758125 
z
" style="fill:#1f77b4;"/>
   </g>
   <g id="patch_201">
    <path clip-path="url(#p77317ed29b)" d="M 294.080289 239.758125 
L 295.079692 239.758125 
L 295.079692 239.758125 
L 294.080289 239.758125 
z
" style="fill:#1f77b4;"/>
   </g>
   <g id="patch_202">
    <path clip-path="url(#p77317ed29b)" d="M 295.329543 239.758125 
L 296.328946 239.758125 
L 296.328946 239.758125 
L 295.329543 239.758125 
z
" style="fill:#1f77b4;"/>
   </g>
   <g id="patch_203">
    <path clip-path="url(#p77317ed29b)" d="M 296.578797 239.758125 
L 297.5782 239.758125 
L 297.5782 239.758125 
L 296.578797 239.758125 
z
" style="fill:#1f77b4;"/>
   </g>
   <g id="patch_204">
    <path clip-path="url(#p77317ed29b)" d="M 297.82805 239.758125 
L 298.827453 239.758125 
L 298.827453 239.758125 
L 297.82805 239.758125 
z
" style="fill:#1f77b4;"/>
   </g>
   <g id="patch_205">
    <path clip-path="url(#p77317ed29b)" d="M 299.077304 239.758125 
L 300.076707 239.758125 
L 300.076707 239.758125 
L 299.077304 239.758125 
z
" style="fill:#1f77b4;"/>
   </g>
   <g id="patch_206">
    <path clip-path="url(#p77317ed29b)" d="M 300.326558 239.758125 
L 301.325961 239.758125 
L 301.325961 239.758125 
L 300.326558 239.758125 
z
" style="fill:#1f77b4;"/>
   </g>
   <g id="patch_207">
    <path clip-path="url(#p77317ed29b)" d="M 301.575812 239.758125 
L 302.575215 239.758125 
L 302.575215 239.758125 
L 301.575812 239.758125 
z
" style="fill:#1f77b4;"/>
   </g>
   <g id="patch_208">
    <path clip-path="url(#p77317ed29b)" d="M 302.825065 239.758125 
L 303.824468 239.758125 
L 303.824468 239.758125 
L 302.825065 239.758125 
z
" style="fill:#1f77b4;"/>
   </g>
   <g id="patch_209">
    <path clip-path="url(#p77317ed29b)" d="M 304.074319 239.758125 
L 305.073722 239.758125 
L 305.073722 236.412894 
L 304.074319 236.412894 
z
" style="fill:#1f77b4;"/>
   </g>
   <g id="patch_210">
    <path clip-path="url(#p77317ed29b)" d="M 305.323573 239.758125 
L 306.322976 239.758125 
L 306.322976 236.412894 
L 305.323573 236.412894 
z
" style="fill:#1f77b4;"/>
   </g>
   <g id="patch_211">
    <path clip-path="url(#p77317ed29b)" d="M 306.572826 239.758125 
L 307.572229 239.758125 
L 307.572229 233.067663 
L 306.572826 233.067663 
z
" style="fill:#1f77b4;"/>
   </g>
   <g id="patch_212">
    <path clip-path="url(#p77317ed29b)" d="M 307.82208 239.758125 
L 308.821483 239.758125 
L 308.821483 233.067663 
L 307.82208 233.067663 
z
" style="fill:#1f77b4;"/>
   </g>
   <g id="patch_213">
    <path clip-path="url(#p77317ed29b)" d="M 309.071334 239.758125 
L 310.070737 239.758125 
L 310.070737 236.412894 
L 309.071334 236.412894 
z
" style="fill:#1f77b4;"/>
   </g>
   <g id="patch_214">
    <path clip-path="url(#p77317ed29b)" d="M 310.320588 239.758125 
L 311.319991 239.758125 
L 311.319991 233.067663 
L 310.320588 233.067663 
z
" style="fill:#1f77b4;"/>
   </g>
   <g id="patch_215">
    <path clip-path="url(#p77317ed29b)" d="M 311.569841 239.758125 
L 312.569244 239.758125 
L 312.569244 229.722433 
L 311.569841 229.722433 
z
" style="fill:#1f77b4;"/>
   </g>
   <g id="patch_216">
    <path clip-path="url(#p77317ed29b)" d="M 312.819095 239.758125 
L 313.818498 239.758125 
L 313.818498 229.722433 
L 312.819095 229.722433 
z
" style="fill:#1f77b4;"/>
   </g>
   <g id="patch_217">
    <path clip-path="url(#p77317ed29b)" d="M 314.068349 239.758125 
L 315.067752 239.758125 
L 315.067752 229.722433 
L 314.068349 229.722433 
z
" style="fill:#1f77b4;"/>
   </g>
   <g id="patch_218">
    <path clip-path="url(#p77317ed29b)" d="M 315.317603 239.758125 
L 316.317006 239.758125 
L 316.317006 219.68674 
L 315.317603 219.68674 
z
" style="fill:#1f77b4;"/>
   </g>
   <g id="patch_219">
    <path clip-path="url(#p77317ed29b)" d="M 316.566856 239.758125 
L 317.566259 239.758125 
L 317.566259 216.34151 
L 316.566856 216.34151 
z
" style="fill:#1f77b4;"/>
   </g>
   <g id="patch_220">
    <path clip-path="url(#p77317ed29b)" d="M 317.81611 239.758125 
L 318.815513 239.758125 
L 318.815513 216.34151 
L 317.81611 216.34151 
z
" style="fill:#1f77b4;"/>
   </g>
   <g id="patch_221">
    <path clip-path="url(#p77317ed29b)" d="M 319.065364 239.758125 
L 320.064767 239.758125 
L 320.064767 216.34151 
L 319.065364 216.34151 
z
" style="fill:#1f77b4;"/>
   </g>
   <g id="patch_222">
    <path clip-path="url(#p77317ed29b)" d="M 320.314618 239.758125 
L 321.314021 239.758125 
L 321.314021 216.34151 
L 320.314618 216.34151 
z
" style="fill:#1f77b4;"/>
   </g>
   <g id="patch_223">
    <path clip-path="url(#p77317ed29b)" d="M 321.563871 239.758125 
L 322.563274 239.758125 
L 322.563274 212.996279 
L 321.563871 212.996279 
z
" style="fill:#1f77b4;"/>
   </g>
   <g id="patch_224">
    <path clip-path="url(#p77317ed29b)" d="M 322.813125 239.758125 
L 323.812528 239.758125 
L 323.812528 212.996279 
L 322.813125 212.996279 
z
" style="fill:#1f77b4;"/>
   </g>
   <g id="patch_225">
    <path clip-path="url(#p77317ed29b)" d="M 324.062379 239.758125 
L 325.061782 239.758125 
L 325.061782 202.960587 
L 324.062379 202.960587 
z
" style="fill:#1f77b4;"/>
   </g>
   <g id="patch_226">
    <path clip-path="url(#p77317ed29b)" d="M 325.311632 239.758125 
L 326.311035 239.758125 
L 326.311035 199.615356 
L 325.311632 199.615356 
z
" style="fill:#1f77b4;"/>
   </g>
   <g id="patch_227">
    <path clip-path="url(#p77317ed29b)" d="M 326.560886 239.758125 
L 327.560289 239.758125 
L 327.560289 202.960587 
L 326.560886 202.960587 
z
" style="fill:#1f77b4;"/>
   </g>
   <g id="patch_228">
    <path clip-path="url(#p77317ed29b)" d="M 327.81014 239.758125 
L 328.809543 239.758125 
L 328.809543 199.615356 
L 327.81014 199.615356 
z
" style="fill:#1f77b4;"/>
   </g>
   <g id="patch_229">
    <path clip-path="url(#p77317ed29b)" d="M 329.059394 239.758125 
L 330.058797 239.758125 
L 330.058797 199.615356 
L 329.059394 199.615356 
z
" style="fill:#1f77b4;"/>
   </g>
   <g id="patch_230">
    <path clip-path="url(#p77317ed29b)" d="M 330.308647 239.758125 
L 331.30805 239.758125 
L 331.30805 189.579663 
L 330.308647 189.579663 
z
" style="fill:#1f77b4;"/>
   </g>
   <g id="patch_231">
    <path clip-path="url(#p77317ed29b)" d="M 331.557901 239.758125 
L 332.557304 239.758125 
L 332.557304 189.579663 
L 331.557901 189.579663 
z
" style="fill:#1f77b4;"/>
   </g>
   <g id="patch_232">
    <path clip-path="url(#p77317ed29b)" d="M 332.807155 239.758125 
L 333.806558 239.758125 
L 333.806558 176.19874 
L 332.807155 176.19874 
z
" style="fill:#1f77b4;"/>
   </g>
   <g id="patch_233">
    <path clip-path="url(#p77317ed29b)" d="M 334.056409 239.758125 
L 335.055812 239.758125 
L 335.055812 179.543971 
L 334.056409 179.543971 
z
" style="fill:#1f77b4;"/>
   </g>
   <g id="patch_234">
    <path clip-path="url(#p77317ed29b)" d="M 335.305662 239.758125 
L 336.305065 239.758125 
L 336.305065 182.889202 
L 335.305662 182.889202 
z
" style="fill:#1f77b4;"/>
   </g>
   <g id="patch_235">
    <path clip-path="url(#p77317ed29b)" d="M 336.554916 239.758125 
L 337.554319 239.758125 
L 337.554319 162.817817 
L 336.554916 162.817817 
z
" style="fill:#1f77b4;"/>
   </g>
   <g id="patch_236">
    <path clip-path="url(#p77317ed29b)" d="M 337.80417 239.758125 
L 338.803573 239.758125 
L 338.803573 146.091663 
L 337.80417 146.091663 
z
" style="fill:#1f77b4;"/>
   </g>
   <g id="patch_237">
    <path clip-path="url(#p77317ed29b)" d="M 339.053424 239.758125 
L 340.052826 239.758125 
L 340.052826 129.36551 
L 339.053424 129.36551 
z
" style="fill:#1f77b4;"/>
   </g>
   <g id="patch_238">
    <path clip-path="url(#p77317ed29b)" d="M 340.302677 239.758125 
L 341.30208 239.758125 
L 341.30208 129.36551 
L 340.302677 129.36551 
z
" style="fill:#1f77b4;"/>
   </g>
   <g id="patch_239">
    <path clip-path="url(#p77317ed29b)" d="M 341.551931 239.758125 
L 342.551334 239.758125 
L 342.551334 122.675048 
L 341.551931 122.675048 
z
" style="fill:#1f77b4;"/>
   </g>
   <g id="patch_240">
    <path clip-path="url(#p77317ed29b)" d="M 342.801185 239.758125 
L 343.800588 239.758125 
L 343.800588 119.329817 
L 342.801185 119.329817 
z
" style="fill:#1f77b4;"/>
   </g>
   <g id="patch_241">
    <path clip-path="url(#p77317ed29b)" d="M 344.050438 239.758125 
L 345.049841 239.758125 
L 345.049841 109.294125 
L 344.050438 109.294125 
z
" style="fill:#1f77b4;"/>
   </g>
   <g id="patch_242">
    <path clip-path="url(#p77317ed29b)" d="M 345.299692 239.758125 
L 346.299095 239.758125 
L 346.299095 102.603663 
L 345.299692 102.603663 
z
" style="fill:#1f77b4;"/>
   </g>
   <g id="patch_243">
    <path clip-path="url(#p77317ed29b)" d="M 346.548946 239.758125 
L 347.548349 239.758125 
L 347.548349 115.984587 
L 346.548946 115.984587 
z
" style="fill:#1f77b4;"/>
   </g>
   <g id="patch_244">
    <path clip-path="url(#p77317ed29b)" d="M 347.7982 239.758125 
L 348.797603 239.758125 
L 348.797603 99.258433 
L 347.7982 99.258433 
z
" style="fill:#1f77b4;"/>
   </g>
   <g id="patch_245">
    <path clip-path="url(#p77317ed29b)" d="M 349.047453 239.758125 
L 350.046856 239.758125 
L 350.046856 99.258433 
L 349.047453 99.258433 
z
" style="fill:#1f77b4;"/>
   </g>
   <g id="patch_246">
    <path clip-path="url(#p77317ed29b)" d="M 350.296707 239.758125 
L 351.29611 239.758125 
L 351.29611 102.603663 
L 350.296707 102.603663 
z
" style="fill:#1f77b4;"/>
   </g>
   <g id="patch_247">
    <path clip-path="url(#p77317ed29b)" d="M 351.545961 239.758125 
L 352.545364 239.758125 
L 352.545364 92.567971 
L 351.545961 92.567971 
z
" style="fill:#1f77b4;"/>
   </g>
   <g id="patch_248">
    <path clip-path="url(#p77317ed29b)" d="M 352.795215 239.758125 
L 353.794618 239.758125 
L 353.794618 95.913202 
L 352.795215 95.913202 
z
" style="fill:#1f77b4;"/>
   </g>
   <g id="patch_249">
    <path clip-path="url(#p77317ed29b)" d="M 354.044468 239.758125 
L 355.043871 239.758125 
L 355.043871 95.913202 
L 354.044468 95.913202 
z
" style="fill:#1f77b4;"/>
   </g>
   <g id="patch_250">
    <path clip-path="url(#p77317ed29b)" d="M 355.293722 239.758125 
L 356.293125 239.758125 
L 356.293125 92.567971 
L 355.293722 92.567971 
z
" style="fill:#1f77b4;"/>
   </g>
   <g id="patch_251">
    <path clip-path="url(#p77317ed29b)" d="M 356.542976 239.758125 
L 357.542379 239.758125 
L 357.542379 109.294125 
L 356.542976 109.294125 
z
" style="fill:#1f77b4;"/>
   </g>
   <g id="patch_252">
    <path clip-path="url(#p77317ed29b)" d="M 357.792229 239.758125 
L 358.791632 239.758125 
L 358.791632 109.294125 
L 357.792229 109.294125 
z
" style="fill:#1f77b4;"/>
   </g>
   <g id="patch_253">
    <path clip-path="url(#p77317ed29b)" d="M 359.041483 239.758125 
L 360.040886 239.758125 
L 360.040886 112.639356 
L 359.041483 112.639356 
z
" style="fill:#1f77b4;"/>
   </g>
   <g id="patch_254">
    <path clip-path="url(#p77317ed29b)" d="M 360.290737 239.758125 
L 361.29014 239.758125 
L 361.29014 109.294125 
L 360.290737 109.294125 
z
" style="fill:#1f77b4;"/>
   </g>
   <g id="patch_255">
    <path clip-path="url(#p77317ed29b)" d="M 361.539991 239.758125 
L 362.539394 239.758125 
L 362.539394 112.639356 
L 361.539991 112.639356 
z
" style="fill:#1f77b4;"/>
   </g>
   <g id="patch_256">
    <path clip-path="url(#p77317ed29b)" d="M 362.789244 239.758125 
L 363.788647 239.758125 
L 363.788647 112.639356 
L 362.789244 112.639356 
z
" style="fill:#1f77b4;"/>
   </g>
   <g id="patch_257">
    <path clip-path="url(#p77317ed29b)" d="M 364.038498 239.758125 
L 365.037901 239.758125 
L 365.037901 105.948894 
L 364.038498 105.948894 
z
" style="fill:#1f77b4;"/>
   </g>
   <g id="patch_258">
    <path clip-path="url(#p77317ed29b)" d="M 365.287752 239.758125 
L 366.287155 239.758125 
L 366.287155 102.603663 
L 365.287752 102.603663 
z
" style="fill:#1f77b4;"/>
   </g>
   <g id="patch_259">
    <path clip-path="url(#p77317ed29b)" d="M 366.537006 239.758125 
L 367.536409 239.758125 
L 367.536409 105.948894 
L 366.537006 105.948894 
z
" style="fill:#1f77b4;"/>
   </g>
   <g id="patch_260">
    <path clip-path="url(#p77317ed29b)" d="M 367.786259 239.758125 
L 368.785662 239.758125 
L 368.785662 99.258433 
L 367.786259 99.258433 
z
" style="fill:#1f77b4;"/>
   </g>
   <g id="patch_261">
    <path clip-path="url(#p77317ed29b)" d="M 369.035513 239.758125 
L 370.034916 239.758125 
L 370.034916 119.329817 
L 369.035513 119.329817 
z
" style="fill:#1f77b4;"/>
   </g>
   <g id="patch_262">
    <path clip-path="url(#p77317ed29b)" d="M 370.284767 239.758125 
L 371.28417 239.758125 
L 371.28417 119.329817 
L 370.284767 119.329817 
z
" style="fill:#1f77b4;"/>
   </g>
   <g id="patch_263">
    <path clip-path="url(#p77317ed29b)" d="M 371.534021 239.758125 
L 372.533424 239.758125 
L 372.533424 115.984587 
L 371.534021 115.984587 
z
" style="fill:#1f77b4;"/>
   </g>
   <g id="patch_264">
    <path clip-path="url(#p77317ed29b)" d="M 372.783274 239.758125 
L 373.782677 239.758125 
L 373.782677 126.020279 
L 372.783274 126.020279 
z
" style="fill:#1f77b4;"/>
   </g>
   <g id="patch_265">
    <path clip-path="url(#p77317ed29b)" d="M 374.032528 239.758125 
L 375.031931 239.758125 
L 375.031931 129.36551 
L 374.032528 129.36551 
z
" style="fill:#1f77b4;"/>
   </g>
   <g id="patch_266">
    <path clip-path="url(#p77317ed29b)" d="M 375.281782 239.758125 
L 376.281185 239.758125 
L 376.281185 122.675048 
L 375.281782 122.675048 
z
" style="fill:#1f77b4;"/>
   </g>
   <g id="patch_267">
    <path clip-path="url(#p77317ed29b)" d="M 376.531035 239.758125 
L 377.530438 239.758125 
L 377.530438 132.71074 
L 376.531035 132.71074 
z
" style="fill:#1f77b4;"/>
   </g>
   <g id="patch_268">
    <path clip-path="url(#p77317ed29b)" d="M 377.780289 239.758125 
L 378.779692 239.758125 
L 378.779692 136.055971 
L 377.780289 136.055971 
z
" style="fill:#1f77b4;"/>
   </g>
   <g id="patch_269">
    <path clip-path="url(#p77317ed29b)" d="M 379.029543 239.758125 
L 380.028946 239.758125 
L 380.028946 132.71074 
L 379.029543 132.71074 
z
" style="fill:#1f77b4;"/>
   </g>
   <g id="patch_270">
    <path clip-path="url(#p77317ed29b)" d="M 380.278797 239.758125 
L 381.2782 239.758125 
L 381.2782 129.36551 
L 380.278797 129.36551 
z
" style="fill:#1f77b4;"/>
   </g>
   <g id="matplotlib.axis_1">
    <g id="xtick_1">
     <g id="line2d_1">
      <defs>
       <path d="M 0 0 
L 0 3.5 
" id="mfc9d7ccfcd" style="stroke:#000000;stroke-width:0.8;"/>
      </defs>
      <g>
       <use style="stroke:#000000;stroke-width:0.8;" x="68.465065" xlink:href="#mfc9d7ccfcd" y="239.758125"/>
      </g>
     </g>
     <g id="text_1">
      <!-- 2020-04 -->
      <g transform="translate(71.22444 288.540937)rotate(-90)scale(0.1 -0.1)">
       <defs>
        <path d="M 19.1875 8.296875 
L 53.609375 8.296875 
L 53.609375 0 
L 7.328125 0 
L 7.328125 8.296875 
Q 12.9375 14.109375 22.625 23.890625 
Q 32.328125 33.6875 34.8125 36.53125 
Q 39.546875 41.84375 41.421875 45.53125 
Q 43.3125 49.21875 43.3125 52.78125 
Q 43.3125 58.59375 39.234375 62.25 
Q 35.15625 65.921875 28.609375 65.921875 
Q 23.96875 65.921875 18.8125 64.3125 
Q 13.671875 62.703125 7.8125 59.421875 
L 7.8125 69.390625 
Q 13.765625 71.78125 18.9375 73 
Q 24.125 74.21875 28.421875 74.21875 
Q 39.75 74.21875 46.484375 68.546875 
Q 53.21875 62.890625 53.21875 53.421875 
Q 53.21875 48.921875 51.53125 44.890625 
Q 49.859375 40.875 45.40625 35.40625 
Q 44.1875 33.984375 37.640625 27.21875 
Q 31.109375 20.453125 19.1875 8.296875 
z
" id="DejaVuSans-50"/>
        <path d="M 31.78125 66.40625 
Q 24.171875 66.40625 20.328125 58.90625 
Q 16.5 51.421875 16.5 36.375 
Q 16.5 21.390625 20.328125 13.890625 
Q 24.171875 6.390625 31.78125 6.390625 
Q 39.453125 6.390625 43.28125 13.890625 
Q 47.125 21.390625 47.125 36.375 
Q 47.125 51.421875 43.28125 58.90625 
Q 39.453125 66.40625 31.78125 66.40625 
z
M 31.78125 74.21875 
Q 44.046875 74.21875 50.515625 64.515625 
Q 56.984375 54.828125 56.984375 36.375 
Q 56.984375 17.96875 50.515625 8.265625 
Q 44.046875 -1.421875 31.78125 -1.421875 
Q 19.53125 -1.421875 13.0625 8.265625 
Q 6.59375 17.96875 6.59375 36.375 
Q 6.59375 54.828125 13.0625 64.515625 
Q 19.53125 74.21875 31.78125 74.21875 
z
" id="DejaVuSans-48"/>
        <path d="M 4.890625 31.390625 
L 31.203125 31.390625 
L 31.203125 23.390625 
L 4.890625 23.390625 
z
" id="DejaVuSans-45"/>
        <path d="M 37.796875 64.3125 
L 12.890625 25.390625 
L 37.796875 25.390625 
z
M 35.203125 72.90625 
L 47.609375 72.90625 
L 47.609375 25.390625 
L 58.015625 25.390625 
L 58.015625 17.1875 
L 47.609375 17.1875 
L 47.609375 0 
L 37.796875 0 
L 37.796875 17.1875 
L 4.890625 17.1875 
L 4.890625 26.703125 
z
" id="DejaVuSans-52"/>
       </defs>
       <use xlink:href="#DejaVuSans-50"/>
       <use x="63.623047" xlink:href="#DejaVuSans-48"/>
       <use x="127.246094" xlink:href="#DejaVuSans-50"/>
       <use x="190.869141" xlink:href="#DejaVuSans-48"/>
       <use x="254.492188" xlink:href="#DejaVuSans-45"/>
       <use x="290.576172" xlink:href="#DejaVuSans-48"/>
       <use x="354.199219" xlink:href="#DejaVuSans-52"/>
      </g>
     </g>
    </g>
    <g id="xtick_2">
     <g id="line2d_2">
      <g>
       <use style="stroke:#000000;stroke-width:0.8;" x="105.942677" xlink:href="#mfc9d7ccfcd" y="239.758125"/>
      </g>
     </g>
     <g id="text_2">
      <!-- 2020-05 -->
      <g transform="translate(108.702052 288.540937)rotate(-90)scale(0.1 -0.1)">
       <defs>
        <path d="M 10.796875 72.90625 
L 49.515625 72.90625 
L 49.515625 64.59375 
L 19.828125 64.59375 
L 19.828125 46.734375 
Q 21.96875 47.46875 24.109375 47.828125 
Q 26.265625 48.1875 28.421875 48.1875 
Q 40.625 48.1875 47.75 41.5 
Q 54.890625 34.8125 54.890625 23.390625 
Q 54.890625 11.625 47.5625 5.09375 
Q 40.234375 -1.421875 26.90625 -1.421875 
Q 22.3125 -1.421875 17.546875 -0.640625 
Q 12.796875 0.140625 7.71875 1.703125 
L 7.71875 11.625 
Q 12.109375 9.234375 16.796875 8.0625 
Q 21.484375 6.890625 26.703125 6.890625 
Q 35.15625 6.890625 40.078125 11.328125 
Q 45.015625 15.765625 45.015625 23.390625 
Q 45.015625 31 40.078125 35.4375 
Q 35.15625 39.890625 26.703125 39.890625 
Q 22.75 39.890625 18.8125 39.015625 
Q 14.890625 38.140625 10.796875 36.28125 
z
" id="DejaVuSans-53"/>
       </defs>
       <use xlink:href="#DejaVuSans-50"/>
       <use x="63.623047" xlink:href="#DejaVuSans-48"/>
       <use x="127.246094" xlink:href="#DejaVuSans-50"/>
       <use x="190.869141" xlink:href="#DejaVuSans-48"/>
       <use x="254.492188" xlink:href="#DejaVuSans-45"/>
       <use x="290.576172" xlink:href="#DejaVuSans-48"/>
       <use x="354.199219" xlink:href="#DejaVuSans-53"/>
      </g>
     </g>
    </g>
    <g id="xtick_3">
     <g id="line2d_3">
      <g>
       <use style="stroke:#000000;stroke-width:0.8;" x="144.669543" xlink:href="#mfc9d7ccfcd" y="239.758125"/>
      </g>
     </g>
     <g id="text_3">
      <!-- 2020-06 -->
      <g transform="translate(147.428918 288.540937)rotate(-90)scale(0.1 -0.1)">
       <defs>
        <path d="M 33.015625 40.375 
Q 26.375 40.375 22.484375 35.828125 
Q 18.609375 31.296875 18.609375 23.390625 
Q 18.609375 15.53125 22.484375 10.953125 
Q 26.375 6.390625 33.015625 6.390625 
Q 39.65625 6.390625 43.53125 10.953125 
Q 47.40625 15.53125 47.40625 23.390625 
Q 47.40625 31.296875 43.53125 35.828125 
Q 39.65625 40.375 33.015625 40.375 
z
M 52.59375 71.296875 
L 52.59375 62.3125 
Q 48.875 64.0625 45.09375 64.984375 
Q 41.3125 65.921875 37.59375 65.921875 
Q 27.828125 65.921875 22.671875 59.328125 
Q 17.53125 52.734375 16.796875 39.40625 
Q 19.671875 43.65625 24.015625 45.921875 
Q 28.375 48.1875 33.59375 48.1875 
Q 44.578125 48.1875 50.953125 41.515625 
Q 57.328125 34.859375 57.328125 23.390625 
Q 57.328125 12.15625 50.6875 5.359375 
Q 44.046875 -1.421875 33.015625 -1.421875 
Q 20.359375 -1.421875 13.671875 8.265625 
Q 6.984375 17.96875 6.984375 36.375 
Q 6.984375 53.65625 15.1875 63.9375 
Q 23.390625 74.21875 37.203125 74.21875 
Q 40.921875 74.21875 44.703125 73.484375 
Q 48.484375 72.75 52.59375 71.296875 
z
" id="DejaVuSans-54"/>
       </defs>
       <use xlink:href="#DejaVuSans-50"/>
       <use x="63.623047" xlink:href="#DejaVuSans-48"/>
       <use x="127.246094" xlink:href="#DejaVuSans-50"/>
       <use x="190.869141" xlink:href="#DejaVuSans-48"/>
       <use x="254.492188" xlink:href="#DejaVuSans-45"/>
       <use x="290.576172" xlink:href="#DejaVuSans-48"/>
       <use x="354.199219" xlink:href="#DejaVuSans-54"/>
      </g>
     </g>
    </g>
    <g id="xtick_4">
     <g id="line2d_4">
      <g>
       <use style="stroke:#000000;stroke-width:0.8;" x="182.147155" xlink:href="#mfc9d7ccfcd" y="239.758125"/>
      </g>
     </g>
     <g id="text_4">
      <!-- 2020-07 -->
      <g transform="translate(184.90653 288.540937)rotate(-90)scale(0.1 -0.1)">
       <defs>
        <path d="M 8.203125 72.90625 
L 55.078125 72.90625 
L 55.078125 68.703125 
L 28.609375 0 
L 18.3125 0 
L 43.21875 64.59375 
L 8.203125 64.59375 
z
" id="DejaVuSans-55"/>
       </defs>
       <use xlink:href="#DejaVuSans-50"/>
       <use x="63.623047" xlink:href="#DejaVuSans-48"/>
       <use x="127.246094" xlink:href="#DejaVuSans-50"/>
       <use x="190.869141" xlink:href="#DejaVuSans-48"/>
       <use x="254.492188" xlink:href="#DejaVuSans-45"/>
       <use x="290.576172" xlink:href="#DejaVuSans-48"/>
       <use x="354.199219" xlink:href="#DejaVuSans-55"/>
      </g>
     </g>
    </g>
    <g id="xtick_5">
     <g id="line2d_5">
      <g>
       <use style="stroke:#000000;stroke-width:0.8;" x="220.874021" xlink:href="#mfc9d7ccfcd" y="239.758125"/>
      </g>
     </g>
     <g id="text_5">
      <!-- 2020-08 -->
      <g transform="translate(223.633396 288.540937)rotate(-90)scale(0.1 -0.1)">
       <defs>
        <path d="M 31.78125 34.625 
Q 24.75 34.625 20.71875 30.859375 
Q 16.703125 27.09375 16.703125 20.515625 
Q 16.703125 13.921875 20.71875 10.15625 
Q 24.75 6.390625 31.78125 6.390625 
Q 38.8125 6.390625 42.859375 10.171875 
Q 46.921875 13.96875 46.921875 20.515625 
Q 46.921875 27.09375 42.890625 30.859375 
Q 38.875 34.625 31.78125 34.625 
z
M 21.921875 38.8125 
Q 15.578125 40.375 12.03125 44.71875 
Q 8.5 49.078125 8.5 55.328125 
Q 8.5 64.0625 14.71875 69.140625 
Q 20.953125 74.21875 31.78125 74.21875 
Q 42.671875 74.21875 48.875 69.140625 
Q 55.078125 64.0625 55.078125 55.328125 
Q 55.078125 49.078125 51.53125 44.71875 
Q 48 40.375 41.703125 38.8125 
Q 48.828125 37.15625 52.796875 32.3125 
Q 56.78125 27.484375 56.78125 20.515625 
Q 56.78125 9.90625 50.3125 4.234375 
Q 43.84375 -1.421875 31.78125 -1.421875 
Q 19.734375 -1.421875 13.25 4.234375 
Q 6.78125 9.90625 6.78125 20.515625 
Q 6.78125 27.484375 10.78125 32.3125 
Q 14.796875 37.15625 21.921875 38.8125 
z
M 18.3125 54.390625 
Q 18.3125 48.734375 21.84375 45.5625 
Q 25.390625 42.390625 31.78125 42.390625 
Q 38.140625 42.390625 41.71875 45.5625 
Q 45.3125 48.734375 45.3125 54.390625 
Q 45.3125 60.0625 41.71875 63.234375 
Q 38.140625 66.40625 31.78125 66.40625 
Q 25.390625 66.40625 21.84375 63.234375 
Q 18.3125 60.0625 18.3125 54.390625 
z
" id="DejaVuSans-56"/>
       </defs>
       <use xlink:href="#DejaVuSans-50"/>
       <use x="63.623047" xlink:href="#DejaVuSans-48"/>
       <use x="127.246094" xlink:href="#DejaVuSans-50"/>
       <use x="190.869141" xlink:href="#DejaVuSans-48"/>
       <use x="254.492188" xlink:href="#DejaVuSans-45"/>
       <use x="290.576172" xlink:href="#DejaVuSans-48"/>
       <use x="354.199219" xlink:href="#DejaVuSans-56"/>
      </g>
     </g>
    </g>
    <g id="xtick_6">
     <g id="line2d_6">
      <g>
       <use style="stroke:#000000;stroke-width:0.8;" x="259.600886" xlink:href="#mfc9d7ccfcd" y="239.758125"/>
      </g>
     </g>
     <g id="text_6">
      <!-- 2020-09 -->
      <g transform="translate(262.360261 288.540937)rotate(-90)scale(0.1 -0.1)">
       <defs>
        <path d="M 10.984375 1.515625 
L 10.984375 10.5 
Q 14.703125 8.734375 18.5 7.8125 
Q 22.3125 6.890625 25.984375 6.890625 
Q 35.75 6.890625 40.890625 13.453125 
Q 46.046875 20.015625 46.78125 33.40625 
Q 43.953125 29.203125 39.59375 26.953125 
Q 35.25 24.703125 29.984375 24.703125 
Q 19.046875 24.703125 12.671875 31.3125 
Q 6.296875 37.9375 6.296875 49.421875 
Q 6.296875 60.640625 12.9375 67.421875 
Q 19.578125 74.21875 30.609375 74.21875 
Q 43.265625 74.21875 49.921875 64.515625 
Q 56.59375 54.828125 56.59375 36.375 
Q 56.59375 19.140625 48.40625 8.859375 
Q 40.234375 -1.421875 26.421875 -1.421875 
Q 22.703125 -1.421875 18.890625 -0.6875 
Q 15.09375 0.046875 10.984375 1.515625 
z
M 30.609375 32.421875 
Q 37.25 32.421875 41.125 36.953125 
Q 45.015625 41.5 45.015625 49.421875 
Q 45.015625 57.28125 41.125 61.84375 
Q 37.25 66.40625 30.609375 66.40625 
Q 23.96875 66.40625 20.09375 61.84375 
Q 16.21875 57.28125 16.21875 49.421875 
Q 16.21875 41.5 20.09375 36.953125 
Q 23.96875 32.421875 30.609375 32.421875 
z
" id="DejaVuSans-57"/>
       </defs>
       <use xlink:href="#DejaVuSans-50"/>
       <use x="63.623047" xlink:href="#DejaVuSans-48"/>
       <use x="127.246094" xlink:href="#DejaVuSans-50"/>
       <use x="190.869141" xlink:href="#DejaVuSans-48"/>
       <use x="254.492188" xlink:href="#DejaVuSans-45"/>
       <use x="290.576172" xlink:href="#DejaVuSans-48"/>
       <use x="354.199219" xlink:href="#DejaVuSans-57"/>
      </g>
     </g>
    </g>
    <g id="xtick_7">
     <g id="line2d_7">
      <g>
       <use style="stroke:#000000;stroke-width:0.8;" x="297.078498" xlink:href="#mfc9d7ccfcd" y="239.758125"/>
      </g>
     </g>
     <g id="text_7">
      <!-- 2020-10 -->
      <g transform="translate(299.837873 288.540937)rotate(-90)scale(0.1 -0.1)">
       <defs>
        <path d="M 12.40625 8.296875 
L 28.515625 8.296875 
L 28.515625 63.921875 
L 10.984375 60.40625 
L 10.984375 69.390625 
L 28.421875 72.90625 
L 38.28125 72.90625 
L 38.28125 8.296875 
L 54.390625 8.296875 
L 54.390625 0 
L 12.40625 0 
z
" id="DejaVuSans-49"/>
       </defs>
       <use xlink:href="#DejaVuSans-50"/>
       <use x="63.623047" xlink:href="#DejaVuSans-48"/>
       <use x="127.246094" xlink:href="#DejaVuSans-50"/>
       <use x="190.869141" xlink:href="#DejaVuSans-48"/>
       <use x="254.492188" xlink:href="#DejaVuSans-45"/>
       <use x="290.576172" xlink:href="#DejaVuSans-49"/>
       <use x="354.199219" xlink:href="#DejaVuSans-48"/>
      </g>
     </g>
    </g>
    <g id="xtick_8">
     <g id="line2d_8">
      <g>
       <use style="stroke:#000000;stroke-width:0.8;" x="335.805364" xlink:href="#mfc9d7ccfcd" y="239.758125"/>
      </g>
     </g>
     <g id="text_8">
      <!-- 2020-11 -->
      <g transform="translate(338.564739 288.540937)rotate(-90)scale(0.1 -0.1)">
       <use xlink:href="#DejaVuSans-50"/>
       <use x="63.623047" xlink:href="#DejaVuSans-48"/>
       <use x="127.246094" xlink:href="#DejaVuSans-50"/>
       <use x="190.869141" xlink:href="#DejaVuSans-48"/>
       <use x="254.492188" xlink:href="#DejaVuSans-45"/>
       <use x="290.576172" xlink:href="#DejaVuSans-49"/>
       <use x="354.199219" xlink:href="#DejaVuSans-49"/>
      </g>
     </g>
    </g>
    <g id="xtick_9">
     <g id="line2d_9">
      <g>
       <use style="stroke:#000000;stroke-width:0.8;" x="373.282976" xlink:href="#mfc9d7ccfcd" y="239.758125"/>
      </g>
     </g>
     <g id="text_9">
      <!-- 2020-12 -->
      <g transform="translate(376.042351 288.540937)rotate(-90)scale(0.1 -0.1)">
       <use xlink:href="#DejaVuSans-50"/>
       <use x="63.623047" xlink:href="#DejaVuSans-48"/>
       <use x="127.246094" xlink:href="#DejaVuSans-50"/>
       <use x="190.869141" xlink:href="#DejaVuSans-48"/>
       <use x="254.492188" xlink:href="#DejaVuSans-45"/>
       <use x="290.576172" xlink:href="#DejaVuSans-49"/>
       <use x="354.199219" xlink:href="#DejaVuSans-50"/>
      </g>
     </g>
    </g>
    <g id="text_10">
     <!-- date -->
     <g transform="translate(202.728125 306.139375)scale(0.1 -0.1)">
      <defs>
       <path d="M 45.40625 46.390625 
L 45.40625 75.984375 
L 54.390625 75.984375 
L 54.390625 0 
L 45.40625 0 
L 45.40625 8.203125 
Q 42.578125 3.328125 38.25 0.953125 
Q 33.9375 -1.421875 27.875 -1.421875 
Q 17.96875 -1.421875 11.734375 6.484375 
Q 5.515625 14.40625 5.515625 27.296875 
Q 5.515625 40.1875 11.734375 48.09375 
Q 17.96875 56 27.875 56 
Q 33.9375 56 38.25 53.625 
Q 42.578125 51.265625 45.40625 46.390625 
z
M 14.796875 27.296875 
Q 14.796875 17.390625 18.875 11.75 
Q 22.953125 6.109375 30.078125 6.109375 
Q 37.203125 6.109375 41.296875 11.75 
Q 45.40625 17.390625 45.40625 27.296875 
Q 45.40625 37.203125 41.296875 42.84375 
Q 37.203125 48.484375 30.078125 48.484375 
Q 22.953125 48.484375 18.875 42.84375 
Q 14.796875 37.203125 14.796875 27.296875 
z
" id="DejaVuSans-100"/>
       <path d="M 34.28125 27.484375 
Q 23.390625 27.484375 19.1875 25 
Q 14.984375 22.515625 14.984375 16.5 
Q 14.984375 11.71875 18.140625 8.90625 
Q 21.296875 6.109375 26.703125 6.109375 
Q 34.1875 6.109375 38.703125 11.40625 
Q 43.21875 16.703125 43.21875 25.484375 
L 43.21875 27.484375 
z
M 52.203125 31.203125 
L 52.203125 0 
L 43.21875 0 
L 43.21875 8.296875 
Q 40.140625 3.328125 35.546875 0.953125 
Q 30.953125 -1.421875 24.3125 -1.421875 
Q 15.921875 -1.421875 10.953125 3.296875 
Q 6 8.015625 6 15.921875 
Q 6 25.140625 12.171875 29.828125 
Q 18.359375 34.515625 30.609375 34.515625 
L 43.21875 34.515625 
L 43.21875 35.40625 
Q 43.21875 41.609375 39.140625 45 
Q 35.0625 48.390625 27.6875 48.390625 
Q 23 48.390625 18.546875 47.265625 
Q 14.109375 46.140625 10.015625 43.890625 
L 10.015625 52.203125 
Q 14.9375 54.109375 19.578125 55.046875 
Q 24.21875 56 28.609375 56 
Q 40.484375 56 46.34375 49.84375 
Q 52.203125 43.703125 52.203125 31.203125 
z
" id="DejaVuSans-97"/>
       <path d="M 18.3125 70.21875 
L 18.3125 54.6875 
L 36.8125 54.6875 
L 36.8125 47.703125 
L 18.3125 47.703125 
L 18.3125 18.015625 
Q 18.3125 11.328125 20.140625 9.421875 
Q 21.96875 7.515625 27.59375 7.515625 
L 36.8125 7.515625 
L 36.8125 0 
L 27.59375 0 
Q 17.1875 0 13.234375 3.875 
Q 9.28125 7.765625 9.28125 18.015625 
L 9.28125 47.703125 
L 2.6875 47.703125 
L 2.6875 54.6875 
L 9.28125 54.6875 
L 9.28125 70.21875 
z
" id="DejaVuSans-116"/>
       <path d="M 56.203125 29.59375 
L 56.203125 25.203125 
L 14.890625 25.203125 
Q 15.484375 15.921875 20.484375 11.0625 
Q 25.484375 6.203125 34.421875 6.203125 
Q 39.59375 6.203125 44.453125 7.46875 
Q 49.3125 8.734375 54.109375 11.28125 
L 54.109375 2.78125 
Q 49.265625 0.734375 44.1875 -0.34375 
Q 39.109375 -1.421875 33.890625 -1.421875 
Q 20.796875 -1.421875 13.15625 6.1875 
Q 5.515625 13.8125 5.515625 26.8125 
Q 5.515625 40.234375 12.765625 48.109375 
Q 20.015625 56 32.328125 56 
Q 43.359375 56 49.78125 48.890625 
Q 56.203125 41.796875 56.203125 29.59375 
z
M 47.21875 32.234375 
Q 47.125 39.59375 43.09375 43.984375 
Q 39.0625 48.390625 32.421875 48.390625 
Q 24.90625 48.390625 20.390625 44.140625 
Q 15.875 39.890625 15.1875 32.171875 
z
" id="DejaVuSans-101"/>
      </defs>
      <use xlink:href="#DejaVuSans-100"/>
      <use x="63.476562" xlink:href="#DejaVuSans-97"/>
      <use x="124.755859" xlink:href="#DejaVuSans-116"/>
      <use x="163.964844" xlink:href="#DejaVuSans-101"/>
     </g>
    </g>
   </g>
   <g id="matplotlib.axis_2">
    <g id="ytick_1">
     <g id="line2d_10">
      <defs>
       <path d="M 0 0 
L -3.5 0 
" id="m4952b9059b" style="stroke:#000000;stroke-width:0.8;"/>
      </defs>
      <g>
       <use style="stroke:#000000;stroke-width:0.8;" x="46.603125" xlink:href="#m4952b9059b" y="239.758125"/>
      </g>
     </g>
     <g id="text_11">
      <!-- 0 -->
      <g transform="translate(33.240625 243.557344)scale(0.1 -0.1)">
       <use xlink:href="#DejaVuSans-48"/>
      </g>
     </g>
    </g>
    <g id="ytick_2">
     <g id="line2d_11">
      <g>
       <use style="stroke:#000000;stroke-width:0.8;" x="46.603125" xlink:href="#m4952b9059b" y="209.651048"/>
      </g>
     </g>
     <g id="text_12">
      <!-- 10 -->
      <g transform="translate(26.878125 213.450267)scale(0.1 -0.1)">
       <use xlink:href="#DejaVuSans-49"/>
       <use x="63.623047" xlink:href="#DejaVuSans-48"/>
      </g>
     </g>
    </g>
    <g id="ytick_3">
     <g id="line2d_12">
      <g>
       <use style="stroke:#000000;stroke-width:0.8;" x="46.603125" xlink:href="#m4952b9059b" y="179.543971"/>
      </g>
     </g>
     <g id="text_13">
      <!-- 20 -->
      <g transform="translate(26.878125 183.34319)scale(0.1 -0.1)">
       <use xlink:href="#DejaVuSans-50"/>
       <use x="63.623047" xlink:href="#DejaVuSans-48"/>
      </g>
     </g>
    </g>
    <g id="ytick_4">
     <g id="line2d_13">
      <g>
       <use style="stroke:#000000;stroke-width:0.8;" x="46.603125" xlink:href="#m4952b9059b" y="149.436894"/>
      </g>
     </g>
     <g id="text_14">
      <!-- 30 -->
      <g transform="translate(26.878125 153.236113)scale(0.1 -0.1)">
       <defs>
        <path d="M 40.578125 39.3125 
Q 47.65625 37.796875 51.625 33 
Q 55.609375 28.21875 55.609375 21.1875 
Q 55.609375 10.40625 48.1875 4.484375 
Q 40.765625 -1.421875 27.09375 -1.421875 
Q 22.515625 -1.421875 17.65625 -0.515625 
Q 12.796875 0.390625 7.625 2.203125 
L 7.625 11.71875 
Q 11.71875 9.328125 16.59375 8.109375 
Q 21.484375 6.890625 26.8125 6.890625 
Q 36.078125 6.890625 40.9375 10.546875 
Q 45.796875 14.203125 45.796875 21.1875 
Q 45.796875 27.640625 41.28125 31.265625 
Q 36.765625 34.90625 28.71875 34.90625 
L 20.21875 34.90625 
L 20.21875 43.015625 
L 29.109375 43.015625 
Q 36.375 43.015625 40.234375 45.921875 
Q 44.09375 48.828125 44.09375 54.296875 
Q 44.09375 59.90625 40.109375 62.90625 
Q 36.140625 65.921875 28.71875 65.921875 
Q 24.65625 65.921875 20.015625 65.03125 
Q 15.375 64.15625 9.8125 62.3125 
L 9.8125 71.09375 
Q 15.4375 72.65625 20.34375 73.4375 
Q 25.25 74.21875 29.59375 74.21875 
Q 40.828125 74.21875 47.359375 69.109375 
Q 53.90625 64.015625 53.90625 55.328125 
Q 53.90625 49.265625 50.4375 45.09375 
Q 46.96875 40.921875 40.578125 39.3125 
z
" id="DejaVuSans-51"/>
       </defs>
       <use xlink:href="#DejaVuSans-51"/>
       <use x="63.623047" xlink:href="#DejaVuSans-48"/>
      </g>
     </g>
    </g>
    <g id="ytick_5">
     <g id="line2d_14">
      <g>
       <use style="stroke:#000000;stroke-width:0.8;" x="46.603125" xlink:href="#m4952b9059b" y="119.329817"/>
      </g>
     </g>
     <g id="text_15">
      <!-- 40 -->
      <g transform="translate(26.878125 123.129036)scale(0.1 -0.1)">
       <use xlink:href="#DejaVuSans-52"/>
       <use x="63.623047" xlink:href="#DejaVuSans-48"/>
      </g>
     </g>
    </g>
    <g id="ytick_6">
     <g id="line2d_15">
      <g>
       <use style="stroke:#000000;stroke-width:0.8;" x="46.603125" xlink:href="#m4952b9059b" y="89.22274"/>
      </g>
     </g>
     <g id="text_16">
      <!-- 50 -->
      <g transform="translate(26.878125 93.021959)scale(0.1 -0.1)">
       <use xlink:href="#DejaVuSans-53"/>
       <use x="63.623047" xlink:href="#DejaVuSans-48"/>
      </g>
     </g>
    </g>
    <g id="ytick_7">
     <g id="line2d_16">
      <g>
       <use style="stroke:#000000;stroke-width:0.8;" x="46.603125" xlink:href="#m4952b9059b" y="59.115663"/>
      </g>
     </g>
     <g id="text_17">
      <!-- 60 -->
      <g transform="translate(26.878125 62.914882)scale(0.1 -0.1)">
       <use xlink:href="#DejaVuSans-54"/>
       <use x="63.623047" xlink:href="#DejaVuSans-48"/>
      </g>
     </g>
    </g>
    <g id="ytick_8">
     <g id="line2d_17">
      <g>
       <use style="stroke:#000000;stroke-width:0.8;" x="46.603125" xlink:href="#m4952b9059b" y="29.008587"/>
      </g>
     </g>
     <g id="text_18">
      <!-- 70 -->
      <g transform="translate(26.878125 32.807805)scale(0.1 -0.1)">
       <use xlink:href="#DejaVuSans-55"/>
       <use x="63.623047" xlink:href="#DejaVuSans-48"/>
      </g>
     </g>
    </g>
    <g id="text_19">
     <!-- percent of corona patients in ICU -->
     <g transform="translate(14.798437 213.576406)rotate(-90)scale(0.1 -0.1)">
      <defs>
       <path d="M 18.109375 8.203125 
L 18.109375 -20.796875 
L 9.078125 -20.796875 
L 9.078125 54.6875 
L 18.109375 54.6875 
L 18.109375 46.390625 
Q 20.953125 51.265625 25.265625 53.625 
Q 29.59375 56 35.59375 56 
Q 45.5625 56 51.78125 48.09375 
Q 58.015625 40.1875 58.015625 27.296875 
Q 58.015625 14.40625 51.78125 6.484375 
Q 45.5625 -1.421875 35.59375 -1.421875 
Q 29.59375 -1.421875 25.265625 0.953125 
Q 20.953125 3.328125 18.109375 8.203125 
z
M 48.6875 27.296875 
Q 48.6875 37.203125 44.609375 42.84375 
Q 40.53125 48.484375 33.40625 48.484375 
Q 26.265625 48.484375 22.1875 42.84375 
Q 18.109375 37.203125 18.109375 27.296875 
Q 18.109375 17.390625 22.1875 11.75 
Q 26.265625 6.109375 33.40625 6.109375 
Q 40.53125 6.109375 44.609375 11.75 
Q 48.6875 17.390625 48.6875 27.296875 
z
" id="DejaVuSans-112"/>
       <path d="M 41.109375 46.296875 
Q 39.59375 47.171875 37.8125 47.578125 
Q 36.03125 48 33.890625 48 
Q 26.265625 48 22.1875 43.046875 
Q 18.109375 38.09375 18.109375 28.8125 
L 18.109375 0 
L 9.078125 0 
L 9.078125 54.6875 
L 18.109375 54.6875 
L 18.109375 46.1875 
Q 20.953125 51.171875 25.484375 53.578125 
Q 30.03125 56 36.53125 56 
Q 37.453125 56 38.578125 55.875 
Q 39.703125 55.765625 41.0625 55.515625 
z
" id="DejaVuSans-114"/>
       <path d="M 48.78125 52.59375 
L 48.78125 44.1875 
Q 44.96875 46.296875 41.140625 47.34375 
Q 37.3125 48.390625 33.40625 48.390625 
Q 24.65625 48.390625 19.8125 42.84375 
Q 14.984375 37.3125 14.984375 27.296875 
Q 14.984375 17.28125 19.8125 11.734375 
Q 24.65625 6.203125 33.40625 6.203125 
Q 37.3125 6.203125 41.140625 7.25 
Q 44.96875 8.296875 48.78125 10.40625 
L 48.78125 2.09375 
Q 45.015625 0.34375 40.984375 -0.53125 
Q 36.96875 -1.421875 32.421875 -1.421875 
Q 20.0625 -1.421875 12.78125 6.34375 
Q 5.515625 14.109375 5.515625 27.296875 
Q 5.515625 40.671875 12.859375 48.328125 
Q 20.21875 56 33.015625 56 
Q 37.15625 56 41.109375 55.140625 
Q 45.0625 54.296875 48.78125 52.59375 
z
" id="DejaVuSans-99"/>
       <path d="M 54.890625 33.015625 
L 54.890625 0 
L 45.90625 0 
L 45.90625 32.71875 
Q 45.90625 40.484375 42.875 44.328125 
Q 39.84375 48.1875 33.796875 48.1875 
Q 26.515625 48.1875 22.3125 43.546875 
Q 18.109375 38.921875 18.109375 30.90625 
L 18.109375 0 
L 9.078125 0 
L 9.078125 54.6875 
L 18.109375 54.6875 
L 18.109375 46.1875 
Q 21.34375 51.125 25.703125 53.5625 
Q 30.078125 56 35.796875 56 
Q 45.21875 56 50.046875 50.171875 
Q 54.890625 44.34375 54.890625 33.015625 
z
" id="DejaVuSans-110"/>
       <path id="DejaVuSans-32"/>
       <path d="M 30.609375 48.390625 
Q 23.390625 48.390625 19.1875 42.75 
Q 14.984375 37.109375 14.984375 27.296875 
Q 14.984375 17.484375 19.15625 11.84375 
Q 23.34375 6.203125 30.609375 6.203125 
Q 37.796875 6.203125 41.984375 11.859375 
Q 46.1875 17.53125 46.1875 27.296875 
Q 46.1875 37.015625 41.984375 42.703125 
Q 37.796875 48.390625 30.609375 48.390625 
z
M 30.609375 56 
Q 42.328125 56 49.015625 48.375 
Q 55.71875 40.765625 55.71875 27.296875 
Q 55.71875 13.875 49.015625 6.21875 
Q 42.328125 -1.421875 30.609375 -1.421875 
Q 18.84375 -1.421875 12.171875 6.21875 
Q 5.515625 13.875 5.515625 27.296875 
Q 5.515625 40.765625 12.171875 48.375 
Q 18.84375 56 30.609375 56 
z
" id="DejaVuSans-111"/>
       <path d="M 37.109375 75.984375 
L 37.109375 68.5 
L 28.515625 68.5 
Q 23.6875 68.5 21.796875 66.546875 
Q 19.921875 64.59375 19.921875 59.515625 
L 19.921875 54.6875 
L 34.71875 54.6875 
L 34.71875 47.703125 
L 19.921875 47.703125 
L 19.921875 0 
L 10.890625 0 
L 10.890625 47.703125 
L 2.296875 47.703125 
L 2.296875 54.6875 
L 10.890625 54.6875 
L 10.890625 58.5 
Q 10.890625 67.625 15.140625 71.796875 
Q 19.390625 75.984375 28.609375 75.984375 
z
" id="DejaVuSans-102"/>
       <path d="M 9.421875 54.6875 
L 18.40625 54.6875 
L 18.40625 0 
L 9.421875 0 
z
M 9.421875 75.984375 
L 18.40625 75.984375 
L 18.40625 64.59375 
L 9.421875 64.59375 
z
" id="DejaVuSans-105"/>
       <path d="M 44.28125 53.078125 
L 44.28125 44.578125 
Q 40.484375 46.53125 36.375 47.5 
Q 32.28125 48.484375 27.875 48.484375 
Q 21.1875 48.484375 17.84375 46.4375 
Q 14.5 44.390625 14.5 40.28125 
Q 14.5 37.15625 16.890625 35.375 
Q 19.28125 33.59375 26.515625 31.984375 
L 29.59375 31.296875 
Q 39.15625 29.25 43.1875 25.515625 
Q 47.21875 21.78125 47.21875 15.09375 
Q 47.21875 7.46875 41.1875 3.015625 
Q 35.15625 -1.421875 24.609375 -1.421875 
Q 20.21875 -1.421875 15.453125 -0.5625 
Q 10.6875 0.296875 5.421875 2 
L 5.421875 11.28125 
Q 10.40625 8.6875 15.234375 7.390625 
Q 20.0625 6.109375 24.8125 6.109375 
Q 31.15625 6.109375 34.5625 8.28125 
Q 37.984375 10.453125 37.984375 14.40625 
Q 37.984375 18.0625 35.515625 20.015625 
Q 33.0625 21.96875 24.703125 23.78125 
L 21.578125 24.515625 
Q 13.234375 26.265625 9.515625 29.90625 
Q 5.8125 33.546875 5.8125 39.890625 
Q 5.8125 47.609375 11.28125 51.796875 
Q 16.75 56 26.8125 56 
Q 31.78125 56 36.171875 55.265625 
Q 40.578125 54.546875 44.28125 53.078125 
z
" id="DejaVuSans-115"/>
       <path d="M 9.8125 72.90625 
L 19.671875 72.90625 
L 19.671875 0 
L 9.8125 0 
z
" id="DejaVuSans-73"/>
       <path d="M 64.40625 67.28125 
L 64.40625 56.890625 
Q 59.421875 61.53125 53.78125 63.8125 
Q 48.140625 66.109375 41.796875 66.109375 
Q 29.296875 66.109375 22.65625 58.46875 
Q 16.015625 50.828125 16.015625 36.375 
Q 16.015625 21.96875 22.65625 14.328125 
Q 29.296875 6.6875 41.796875 6.6875 
Q 48.140625 6.6875 53.78125 8.984375 
Q 59.421875 11.28125 64.40625 15.921875 
L 64.40625 5.609375 
Q 59.234375 2.09375 53.4375 0.328125 
Q 47.65625 -1.421875 41.21875 -1.421875 
Q 24.65625 -1.421875 15.125 8.703125 
Q 5.609375 18.84375 5.609375 36.375 
Q 5.609375 53.953125 15.125 64.078125 
Q 24.65625 74.21875 41.21875 74.21875 
Q 47.75 74.21875 53.53125 72.484375 
Q 59.328125 70.75 64.40625 67.28125 
z
" id="DejaVuSans-67"/>
       <path d="M 8.6875 72.90625 
L 18.609375 72.90625 
L 18.609375 28.609375 
Q 18.609375 16.890625 22.84375 11.734375 
Q 27.09375 6.59375 36.625 6.59375 
Q 46.09375 6.59375 50.34375 11.734375 
Q 54.59375 16.890625 54.59375 28.609375 
L 54.59375 72.90625 
L 64.5 72.90625 
L 64.5 27.390625 
Q 64.5 13.140625 57.4375 5.859375 
Q 50.390625 -1.421875 36.625 -1.421875 
Q 22.796875 -1.421875 15.734375 5.859375 
Q 8.6875 13.140625 8.6875 27.390625 
z
" id="DejaVuSans-85"/>
      </defs>
      <use xlink:href="#DejaVuSans-112"/>
      <use x="63.476562" xlink:href="#DejaVuSans-101"/>
      <use x="125" xlink:href="#DejaVuSans-114"/>
      <use x="163.863281" xlink:href="#DejaVuSans-99"/>
      <use x="218.84375" xlink:href="#DejaVuSans-101"/>
      <use x="280.367188" xlink:href="#DejaVuSans-110"/>
      <use x="343.746094" xlink:href="#DejaVuSans-116"/>
      <use x="382.955078" xlink:href="#DejaVuSans-32"/>
      <use x="414.742188" xlink:href="#DejaVuSans-111"/>
      <use x="475.923828" xlink:href="#DejaVuSans-102"/>
      <use x="511.128906" xlink:href="#DejaVuSans-32"/>
      <use x="542.916016" xlink:href="#DejaVuSans-99"/>
      <use x="597.896484" xlink:href="#DejaVuSans-111"/>
      <use x="659.078125" xlink:href="#DejaVuSans-114"/>
      <use x="697.941406" xlink:href="#DejaVuSans-111"/>
      <use x="759.123047" xlink:href="#DejaVuSans-110"/>
      <use x="822.501953" xlink:href="#DejaVuSans-97"/>
      <use x="883.78125" xlink:href="#DejaVuSans-32"/>
      <use x="915.568359" xlink:href="#DejaVuSans-112"/>
      <use x="979.044922" xlink:href="#DejaVuSans-97"/>
      <use x="1040.324219" xlink:href="#DejaVuSans-116"/>
      <use x="1079.533203" xlink:href="#DejaVuSans-105"/>
      <use x="1107.316406" xlink:href="#DejaVuSans-101"/>
      <use x="1168.839844" xlink:href="#DejaVuSans-110"/>
      <use x="1232.21875" xlink:href="#DejaVuSans-116"/>
      <use x="1271.427734" xlink:href="#DejaVuSans-115"/>
      <use x="1323.527344" xlink:href="#DejaVuSans-32"/>
      <use x="1355.314453" xlink:href="#DejaVuSans-105"/>
      <use x="1383.097656" xlink:href="#DejaVuSans-110"/>
      <use x="1446.476562" xlink:href="#DejaVuSans-32"/>
      <use x="1478.263672" xlink:href="#DejaVuSans-73"/>
      <use x="1507.755859" xlink:href="#DejaVuSans-67"/>
      <use x="1577.580078" xlink:href="#DejaVuSans-85"/>
     </g>
    </g>
   </g>
   <g id="patch_271">
    <path d="M 46.603125 239.758125 
L 46.603125 22.318125 
" style="fill:none;stroke:#000000;stroke-linecap:square;stroke-linejoin:miter;stroke-width:0.8;"/>
   </g>
   <g id="patch_272">
    <path d="M 46.603125 239.758125 
L 381.403125 239.758125 
" style="fill:none;stroke:#000000;stroke-linecap:square;stroke-linejoin:miter;stroke-width:0.8;"/>
   </g>
   <g id="text_20">
    <!-- South Tyrol -->
    <g transform="translate(180.710625 16.318125)scale(0.12 -0.12)">
     <defs>
      <path d="M 53.515625 70.515625 
L 53.515625 60.890625 
Q 47.90625 63.578125 42.921875 64.890625 
Q 37.9375 66.21875 33.296875 66.21875 
Q 25.25 66.21875 20.875 63.09375 
Q 16.5 59.96875 16.5 54.203125 
Q 16.5 49.359375 19.40625 46.890625 
Q 22.3125 44.4375 30.421875 42.921875 
L 36.375 41.703125 
Q 47.40625 39.59375 52.65625 34.296875 
Q 57.90625 29 57.90625 20.125 
Q 57.90625 9.515625 50.796875 4.046875 
Q 43.703125 -1.421875 29.984375 -1.421875 
Q 24.8125 -1.421875 18.96875 -0.25 
Q 13.140625 0.921875 6.890625 3.21875 
L 6.890625 13.375 
Q 12.890625 10.015625 18.65625 8.296875 
Q 24.421875 6.59375 29.984375 6.59375 
Q 38.421875 6.59375 43.015625 9.90625 
Q 47.609375 13.234375 47.609375 19.390625 
Q 47.609375 24.75 44.3125 27.78125 
Q 41.015625 30.8125 33.5 32.328125 
L 27.484375 33.5 
Q 16.453125 35.6875 11.515625 40.375 
Q 6.59375 45.0625 6.59375 53.421875 
Q 6.59375 63.09375 13.40625 68.65625 
Q 20.21875 74.21875 32.171875 74.21875 
Q 37.3125 74.21875 42.625 73.28125 
Q 47.953125 72.359375 53.515625 70.515625 
z
" id="DejaVuSans-83"/>
      <path d="M 8.5 21.578125 
L 8.5 54.6875 
L 17.484375 54.6875 
L 17.484375 21.921875 
Q 17.484375 14.15625 20.5 10.265625 
Q 23.53125 6.390625 29.59375 6.390625 
Q 36.859375 6.390625 41.078125 11.03125 
Q 45.3125 15.671875 45.3125 23.6875 
L 45.3125 54.6875 
L 54.296875 54.6875 
L 54.296875 0 
L 45.3125 0 
L 45.3125 8.40625 
Q 42.046875 3.421875 37.71875 1 
Q 33.40625 -1.421875 27.6875 -1.421875 
Q 18.265625 -1.421875 13.375 4.4375 
Q 8.5 10.296875 8.5 21.578125 
z
M 31.109375 56 
z
" id="DejaVuSans-117"/>
      <path d="M 54.890625 33.015625 
L 54.890625 0 
L 45.90625 0 
L 45.90625 32.71875 
Q 45.90625 40.484375 42.875 44.328125 
Q 39.84375 48.1875 33.796875 48.1875 
Q 26.515625 48.1875 22.3125 43.546875 
Q 18.109375 38.921875 18.109375 30.90625 
L 18.109375 0 
L 9.078125 0 
L 9.078125 75.984375 
L 18.109375 75.984375 
L 18.109375 46.1875 
Q 21.34375 51.125 25.703125 53.5625 
Q 30.078125 56 35.796875 56 
Q 45.21875 56 50.046875 50.171875 
Q 54.890625 44.34375 54.890625 33.015625 
z
" id="DejaVuSans-104"/>
      <path d="M -0.296875 72.90625 
L 61.375 72.90625 
L 61.375 64.59375 
L 35.5 64.59375 
L 35.5 0 
L 25.59375 0 
L 25.59375 64.59375 
L -0.296875 64.59375 
z
" id="DejaVuSans-84"/>
      <path d="M 32.171875 -5.078125 
Q 28.375 -14.84375 24.75 -17.8125 
Q 21.140625 -20.796875 15.09375 -20.796875 
L 7.90625 -20.796875 
L 7.90625 -13.28125 
L 13.1875 -13.28125 
Q 16.890625 -13.28125 18.9375 -11.515625 
Q 21 -9.765625 23.484375 -3.21875 
L 25.09375 0.875 
L 2.984375 54.6875 
L 12.5 54.6875 
L 29.59375 11.921875 
L 46.6875 54.6875 
L 56.203125 54.6875 
z
" id="DejaVuSans-121"/>
      <path d="M 9.421875 75.984375 
L 18.40625 75.984375 
L 18.40625 0 
L 9.421875 0 
z
" id="DejaVuSans-108"/>
     </defs>
     <use xlink:href="#DejaVuSans-83"/>
     <use x="63.476562" xlink:href="#DejaVuSans-111"/>
     <use x="124.658203" xlink:href="#DejaVuSans-117"/>
     <use x="188.037109" xlink:href="#DejaVuSans-116"/>
     <use x="227.246094" xlink:href="#DejaVuSans-104"/>
     <use x="290.625" xlink:href="#DejaVuSans-32"/>
     <use x="322.412109" xlink:href="#DejaVuSans-84"/>
     <use x="367.871094" xlink:href="#DejaVuSans-121"/>
     <use x="427.050781" xlink:href="#DejaVuSans-114"/>
     <use x="465.914062" xlink:href="#DejaVuSans-111"/>
     <use x="527.095703" xlink:href="#DejaVuSans-108"/>
    </g>
   </g>
  </g>
 </g>
 <defs>
  <clipPath id="p77317ed29b">
   <rect height="217.44" width="334.8" x="46.603125" y="22.318125"/>
  </clipPath>
 </defs>
</svg>
