<?xml version="1.0" encoding="utf-8" standalone="no"?>
<!DOCTYPE svg PUBLIC "-//W3C//DTD SVG 1.1//EN"
  "http://www.w3.org/Graphics/SVG/1.1/DTD/svg11.dtd">
<!-- Created with matplotlib (https://matplotlib.org/) -->
<svg height="364.091062pt" version="1.1" viewBox="0 0 410.923125 364.091062" width="410.923125pt" xmlns="http://www.w3.org/2000/svg" xmlns:xlink="http://www.w3.org/1999/xlink">
 <metadata>
  <rdf:RDF xmlns:cc="http://creativecommons.org/ns#" xmlns:dc="http://purl.org/dc/elements/1.1/" xmlns:rdf="http://www.w3.org/1999/02/22-rdf-syntax-ns#">
   <cc:Work>
    <dc:type rdf:resource="http://purl.org/dc/dcmitype/StillImage"/>
    <dc:date>2021-01-06T12:37:43.427931</dc:date>
    <dc:format>image/svg+xml</dc:format>
    <dc:creator>
     <cc:Agent>
      <dc:title>Matplotlib v3.3.3, https://matplotlib.org/</dc:title>
     </cc:Agent>
    </dc:creator>
   </cc:Work>
  </rdf:RDF>
 </metadata>
 <defs>
  <style type="text/css">*{stroke-linecap:butt;stroke-linejoin:round;}</style>
 </defs>
 <g id="figure_1">
  <g id="patch_1">
   <path d="M 0 364.091062 
L 410.923125 364.091062 
L 410.923125 0 
L 0 0 
z
" style="fill:#ffffff;"/>
  </g>
  <g id="axes_1">
   <g id="patch_2">
    <path d="M 46.603125 288.430125 
L 403.723125 288.430125 
L 403.723125 22.318125 
L 46.603125 22.318125 
z
" style="fill:#ffffff;"/>
   </g>
   <g id="patch_3">
    <path clip-path="url(#pf2b4b5d91e)" d="M 46.722964 288.430125 
L 47.681675 288.430125 
L 47.681675 272.054002 
L 46.722964 272.054002 
z
" style="fill:#1f77b4;"/>
   </g>
   <g id="patch_4">
    <path clip-path="url(#pf2b4b5d91e)" d="M 47.921353 288.430125 
L 48.880065 288.430125 
L 48.880065 243.395787 
L 47.921353 243.395787 
z
" style="fill:#1f77b4;"/>
   </g>
   <g id="patch_5">
    <path clip-path="url(#pf2b4b5d91e)" d="M 49.119742 288.430125 
L 50.078454 288.430125 
L 50.078454 243.395787 
L 49.119742 243.395787 
z
" style="fill:#1f77b4;"/>
   </g>
   <g id="patch_6">
    <path clip-path="url(#pf2b4b5d91e)" d="M 50.318132 288.430125 
L 51.276843 288.430125 
L 51.276843 214.737571 
L 50.318132 214.737571 
z
" style="fill:#1f77b4;"/>
   </g>
   <g id="patch_7">
    <path clip-path="url(#pf2b4b5d91e)" d="M 51.516521 288.430125 
L 52.475232 288.430125 
L 52.475232 214.737571 
L 51.516521 214.737571 
z
" style="fill:#1f77b4;"/>
   </g>
   <g id="patch_8">
    <path clip-path="url(#pf2b4b5d91e)" d="M 52.71491 288.430125 
L 53.673622 288.430125 
L 53.673622 190.173387 
L 52.71491 190.173387 
z
" style="fill:#1f77b4;"/>
   </g>
   <g id="patch_9">
    <path clip-path="url(#pf2b4b5d91e)" d="M 53.913299 288.430125 
L 54.872011 288.430125 
L 54.872011 165.609202 
L 53.913299 165.609202 
z
" style="fill:#1f77b4;"/>
   </g>
   <g id="patch_10">
    <path clip-path="url(#pf2b4b5d91e)" d="M 55.111689 288.430125 
L 56.0704 288.430125 
L 56.0704 157.42114 
L 55.111689 157.42114 
z
" style="fill:#1f77b4;"/>
   </g>
   <g id="patch_11">
    <path clip-path="url(#pf2b4b5d91e)" d="M 56.310078 288.430125 
L 57.268789 288.430125 
L 57.268789 153.32711 
L 56.310078 153.32711 
z
" style="fill:#1f77b4;"/>
   </g>
   <g id="patch_12">
    <path clip-path="url(#pf2b4b5d91e)" d="M 57.508467 288.430125 
L 58.467179 288.430125 
L 58.467179 132.856956 
L 57.508467 132.856956 
z
" style="fill:#1f77b4;"/>
   </g>
   <g id="patch_13">
    <path clip-path="url(#pf2b4b5d91e)" d="M 58.706857 288.430125 
L 59.665568 288.430125 
L 59.665568 124.668894 
L 58.706857 124.668894 
z
" style="fill:#1f77b4;"/>
   </g>
   <g id="patch_14">
    <path clip-path="url(#pf2b4b5d91e)" d="M 59.905246 288.430125 
L 60.863957 288.430125 
L 60.863957 112.386802 
L 59.905246 112.386802 
z
" style="fill:#1f77b4;"/>
   </g>
   <g id="patch_15">
    <path clip-path="url(#pf2b4b5d91e)" d="M 61.103635 288.430125 
L 62.062346 288.430125 
L 62.062346 104.19874 
L 61.103635 104.19874 
z
" style="fill:#1f77b4;"/>
   </g>
   <g id="patch_16">
    <path clip-path="url(#pf2b4b5d91e)" d="M 62.302024 288.430125 
L 63.260736 288.430125 
L 63.260736 79.634556 
L 62.302024 79.634556 
z
" style="fill:#1f77b4;"/>
   </g>
   <g id="patch_17">
    <path clip-path="url(#pf2b4b5d91e)" d="M 63.500414 288.430125 
L 64.459125 288.430125 
L 64.459125 59.164402 
L 63.500414 59.164402 
z
" style="fill:#1f77b4;"/>
   </g>
   <g id="patch_18">
    <path clip-path="url(#pf2b4b5d91e)" d="M 64.698803 288.430125 
L 65.657514 288.430125 
L 65.657514 34.600217 
L 64.698803 34.600217 
z
" style="fill:#1f77b4;"/>
   </g>
   <g id="patch_19">
    <path clip-path="url(#pf2b4b5d91e)" d="M 65.897192 288.430125 
L 66.855904 288.430125 
L 66.855904 34.600217 
L 65.897192 34.600217 
z
" style="fill:#1f77b4;"/>
   </g>
   <g id="patch_20">
    <path clip-path="url(#pf2b4b5d91e)" d="M 67.095581 288.430125 
L 68.054293 288.430125 
L 68.054293 55.070371 
L 67.095581 55.070371 
z
" style="fill:#1f77b4;"/>
   </g>
   <g id="patch_21">
    <path clip-path="url(#pf2b4b5d91e)" d="M 68.293971 288.430125 
L 69.252682 288.430125 
L 69.252682 42.788279 
L 68.293971 42.788279 
z
" style="fill:#1f77b4;"/>
   </g>
   <g id="patch_22">
    <path clip-path="url(#pf2b4b5d91e)" d="M 69.49236 288.430125 
L 70.451071 288.430125 
L 70.451071 42.788279 
L 69.49236 42.788279 
z
" style="fill:#1f77b4;"/>
   </g>
   <g id="patch_23">
    <path clip-path="url(#pf2b4b5d91e)" d="M 70.690749 288.430125 
L 71.649461 288.430125 
L 71.649461 38.694248 
L 70.690749 38.694248 
z
" style="fill:#1f77b4;"/>
   </g>
   <g id="patch_24">
    <path clip-path="url(#pf2b4b5d91e)" d="M 71.889138 288.430125 
L 72.84785 288.430125 
L 72.84785 71.446494 
L 71.889138 71.446494 
z
" style="fill:#1f77b4;"/>
   </g>
   <g id="patch_25">
    <path clip-path="url(#pf2b4b5d91e)" d="M 73.087528 288.430125 
L 74.046239 288.430125 
L 74.046239 75.540525 
L 73.087528 75.540525 
z
" style="fill:#1f77b4;"/>
   </g>
   <g id="patch_26">
    <path clip-path="url(#pf2b4b5d91e)" d="M 74.285917 288.430125 
L 75.244628 288.430125 
L 75.244628 26.412156 
L 74.285917 26.412156 
z
" style="fill:#1f77b4;"/>
   </g>
   <g id="patch_27">
    <path clip-path="url(#pf2b4b5d91e)" d="M 75.484306 288.430125 
L 76.443018 288.430125 
L 76.443018 22.318125 
L 75.484306 22.318125 
z
" style="fill:#1f77b4;"/>
   </g>
   <g id="patch_28">
    <path clip-path="url(#pf2b4b5d91e)" d="M 76.682695 288.430125 
L 77.641407 288.430125 
L 77.641407 26.412156 
L 76.682695 26.412156 
z
" style="fill:#1f77b4;"/>
   </g>
   <g id="patch_29">
    <path clip-path="url(#pf2b4b5d91e)" d="M 77.881085 288.430125 
L 78.839796 288.430125 
L 78.839796 50.97634 
L 77.881085 50.97634 
z
" style="fill:#1f77b4;"/>
   </g>
   <g id="patch_30">
    <path clip-path="url(#pf2b4b5d91e)" d="M 79.079474 288.430125 
L 80.038185 288.430125 
L 80.038185 59.164402 
L 79.079474 59.164402 
z
" style="fill:#1f77b4;"/>
   </g>
   <g id="patch_31">
    <path clip-path="url(#pf2b4b5d91e)" d="M 80.277863 288.430125 
L 81.236575 288.430125 
L 81.236575 104.19874 
L 80.277863 104.19874 
z
" style="fill:#1f77b4;"/>
   </g>
   <g id="patch_32">
    <path clip-path="url(#pf2b4b5d91e)" d="M 81.476253 288.430125 
L 82.434964 288.430125 
L 82.434964 120.574863 
L 81.476253 120.574863 
z
" style="fill:#1f77b4;"/>
   </g>
   <g id="patch_33">
    <path clip-path="url(#pf2b4b5d91e)" d="M 82.674642 288.430125 
L 83.633353 288.430125 
L 83.633353 128.762925 
L 82.674642 128.762925 
z
" style="fill:#1f77b4;"/>
   </g>
   <g id="patch_34">
    <path clip-path="url(#pf2b4b5d91e)" d="M 83.873031 288.430125 
L 84.831742 288.430125 
L 84.831742 157.42114 
L 83.873031 157.42114 
z
" style="fill:#1f77b4;"/>
   </g>
   <g id="patch_35">
    <path clip-path="url(#pf2b4b5d91e)" d="M 85.07142 288.430125 
L 86.030132 288.430125 
L 86.030132 149.233079 
L 85.07142 149.233079 
z
" style="fill:#1f77b4;"/>
   </g>
   <g id="patch_36">
    <path clip-path="url(#pf2b4b5d91e)" d="M 86.26981 288.430125 
L 87.228521 288.430125 
L 87.228521 157.42114 
L 86.26981 157.42114 
z
" style="fill:#1f77b4;"/>
   </g>
   <g id="patch_37">
    <path clip-path="url(#pf2b4b5d91e)" d="M 87.468199 288.430125 
L 88.42691 288.430125 
L 88.42691 173.797263 
L 87.468199 173.797263 
z
" style="fill:#1f77b4;"/>
   </g>
   <g id="patch_38">
    <path clip-path="url(#pf2b4b5d91e)" d="M 88.666588 288.430125 
L 89.625299 288.430125 
L 89.625299 194.267417 
L 88.666588 194.267417 
z
" style="fill:#1f77b4;"/>
   </g>
   <g id="patch_39">
    <path clip-path="url(#pf2b4b5d91e)" d="M 89.864977 288.430125 
L 90.823689 288.430125 
L 90.823689 210.64354 
L 89.864977 210.64354 
z
" style="fill:#1f77b4;"/>
   </g>
   <g id="patch_40">
    <path clip-path="url(#pf2b4b5d91e)" d="M 91.063367 288.430125 
L 92.022078 288.430125 
L 92.022078 206.54951 
L 91.063367 206.54951 
z
" style="fill:#1f77b4;"/>
   </g>
   <g id="patch_41">
    <path clip-path="url(#pf2b4b5d91e)" d="M 92.261756 288.430125 
L 93.220467 288.430125 
L 93.220467 210.64354 
L 92.261756 210.64354 
z
" style="fill:#1f77b4;"/>
   </g>
   <g id="patch_42">
    <path clip-path="url(#pf2b4b5d91e)" d="M 93.460145 288.430125 
L 94.418857 288.430125 
L 94.418857 218.831602 
L 93.460145 218.831602 
z
" style="fill:#1f77b4;"/>
   </g>
   <g id="patch_43">
    <path clip-path="url(#pf2b4b5d91e)" d="M 94.658534 288.430125 
L 95.617246 288.430125 
L 95.617246 222.925633 
L 94.658534 222.925633 
z
" style="fill:#1f77b4;"/>
   </g>
   <g id="patch_44">
    <path clip-path="url(#pf2b4b5d91e)" d="M 95.856924 288.430125 
L 96.815635 288.430125 
L 96.815635 231.113694 
L 95.856924 231.113694 
z
" style="fill:#1f77b4;"/>
   </g>
   <g id="patch_45">
    <path clip-path="url(#pf2b4b5d91e)" d="M 97.055313 288.430125 
L 98.014024 288.430125 
L 98.014024 231.113694 
L 97.055313 231.113694 
z
" style="fill:#1f77b4;"/>
   </g>
   <g id="patch_46">
    <path clip-path="url(#pf2b4b5d91e)" d="M 98.253702 288.430125 
L 99.212414 288.430125 
L 99.212414 222.925633 
L 98.253702 222.925633 
z
" style="fill:#1f77b4;"/>
   </g>
   <g id="patch_47">
    <path clip-path="url(#pf2b4b5d91e)" d="M 99.452091 288.430125 
L 100.410803 288.430125 
L 100.410803 227.019663 
L 99.452091 227.019663 
z
" style="fill:#1f77b4;"/>
   </g>
   <g id="patch_48">
    <path clip-path="url(#pf2b4b5d91e)" d="M 100.650481 288.430125 
L 101.609192 288.430125 
L 101.609192 231.113694 
L 100.650481 231.113694 
z
" style="fill:#1f77b4;"/>
   </g>
   <g id="patch_49">
    <path clip-path="url(#pf2b4b5d91e)" d="M 101.84887 288.430125 
L 102.807581 288.430125 
L 102.807581 235.207725 
L 101.84887 235.207725 
z
" style="fill:#1f77b4;"/>
   </g>
   <g id="patch_50">
    <path clip-path="url(#pf2b4b5d91e)" d="M 103.047259 288.430125 
L 104.005971 288.430125 
L 104.005971 243.395787 
L 103.047259 243.395787 
z
" style="fill:#1f77b4;"/>
   </g>
   <g id="patch_51">
    <path clip-path="url(#pf2b4b5d91e)" d="M 104.245648 288.430125 
L 105.20436 288.430125 
L 105.20436 247.489817 
L 104.245648 247.489817 
z
" style="fill:#1f77b4;"/>
   </g>
   <g id="patch_52">
    <path clip-path="url(#pf2b4b5d91e)" d="M 105.444038 288.430125 
L 106.402749 288.430125 
L 106.402749 243.395787 
L 105.444038 243.395787 
z
" style="fill:#1f77b4;"/>
   </g>
   <g id="patch_53">
    <path clip-path="url(#pf2b4b5d91e)" d="M 106.642427 288.430125 
L 107.601138 288.430125 
L 107.601138 247.489817 
L 106.642427 247.489817 
z
" style="fill:#1f77b4;"/>
   </g>
   <g id="patch_54">
    <path clip-path="url(#pf2b4b5d91e)" d="M 107.840816 288.430125 
L 108.799528 288.430125 
L 108.799528 243.395787 
L 107.840816 243.395787 
z
" style="fill:#1f77b4;"/>
   </g>
   <g id="patch_55">
    <path clip-path="url(#pf2b4b5d91e)" d="M 109.039206 288.430125 
L 109.997917 288.430125 
L 109.997917 243.395787 
L 109.039206 243.395787 
z
" style="fill:#1f77b4;"/>
   </g>
   <g id="patch_56">
    <path clip-path="url(#pf2b4b5d91e)" d="M 110.237595 288.430125 
L 111.196306 288.430125 
L 111.196306 243.395787 
L 110.237595 243.395787 
z
" style="fill:#1f77b4;"/>
   </g>
   <g id="patch_57">
    <path clip-path="url(#pf2b4b5d91e)" d="M 111.435984 288.430125 
L 112.394695 288.430125 
L 112.394695 251.583848 
L 111.435984 251.583848 
z
" style="fill:#1f77b4;"/>
   </g>
   <g id="patch_58">
    <path clip-path="url(#pf2b4b5d91e)" d="M 112.634373 288.430125 
L 113.593085 288.430125 
L 113.593085 251.583848 
L 112.634373 251.583848 
z
" style="fill:#1f77b4;"/>
   </g>
   <g id="patch_59">
    <path clip-path="url(#pf2b4b5d91e)" d="M 113.832763 288.430125 
L 114.791474 288.430125 
L 114.791474 255.677879 
L 113.832763 255.677879 
z
" style="fill:#1f77b4;"/>
   </g>
   <g id="patch_60">
    <path clip-path="url(#pf2b4b5d91e)" d="M 115.031152 288.430125 
L 115.989863 288.430125 
L 115.989863 259.77191 
L 115.031152 259.77191 
z
" style="fill:#1f77b4;"/>
   </g>
   <g id="patch_61">
    <path clip-path="url(#pf2b4b5d91e)" d="M 116.229541 288.430125 
L 117.188253 288.430125 
L 117.188253 259.77191 
L 116.229541 259.77191 
z
" style="fill:#1f77b4;"/>
   </g>
   <g id="patch_62">
    <path clip-path="url(#pf2b4b5d91e)" d="M 117.42793 288.430125 
L 118.386642 288.430125 
L 118.386642 259.77191 
L 117.42793 259.77191 
z
" style="fill:#1f77b4;"/>
   </g>
   <g id="patch_63">
    <path clip-path="url(#pf2b4b5d91e)" d="M 118.62632 288.430125 
L 119.585031 288.430125 
L 119.585031 259.77191 
L 118.62632 259.77191 
z
" style="fill:#1f77b4;"/>
   </g>
   <g id="patch_64">
    <path clip-path="url(#pf2b4b5d91e)" d="M 119.824709 288.430125 
L 120.78342 288.430125 
L 120.78342 267.959971 
L 119.824709 267.959971 
z
" style="fill:#1f77b4;"/>
   </g>
   <g id="patch_65">
    <path clip-path="url(#pf2b4b5d91e)" d="M 121.023098 288.430125 
L 121.98181 288.430125 
L 121.98181 267.959971 
L 121.023098 267.959971 
z
" style="fill:#1f77b4;"/>
   </g>
   <g id="patch_66">
    <path clip-path="url(#pf2b4b5d91e)" d="M 122.221487 288.430125 
L 123.180199 288.430125 
L 123.180199 267.959971 
L 122.221487 267.959971 
z
" style="fill:#1f77b4;"/>
   </g>
   <g id="patch_67">
    <path clip-path="url(#pf2b4b5d91e)" d="M 123.419877 288.430125 
L 124.378588 288.430125 
L 124.378588 263.86594 
L 123.419877 263.86594 
z
" style="fill:#1f77b4;"/>
   </g>
   <g id="patch_68">
    <path clip-path="url(#pf2b4b5d91e)" d="M 124.618266 288.430125 
L 125.576977 288.430125 
L 125.576977 263.86594 
L 124.618266 263.86594 
z
" style="fill:#1f77b4;"/>
   </g>
   <g id="patch_69">
    <path clip-path="url(#pf2b4b5d91e)" d="M 125.816655 288.430125 
L 126.775367 288.430125 
L 126.775367 267.959971 
L 125.816655 267.959971 
z
" style="fill:#1f77b4;"/>
   </g>
   <g id="patch_70">
    <path clip-path="url(#pf2b4b5d91e)" d="M 127.015044 288.430125 
L 127.973756 288.430125 
L 127.973756 267.959971 
L 127.015044 267.959971 
z
" style="fill:#1f77b4;"/>
   </g>
   <g id="patch_71">
    <path clip-path="url(#pf2b4b5d91e)" d="M 128.213434 288.430125 
L 129.172145 288.430125 
L 129.172145 267.959971 
L 128.213434 267.959971 
z
" style="fill:#1f77b4;"/>
   </g>
   <g id="patch_72">
    <path clip-path="url(#pf2b4b5d91e)" d="M 129.411823 288.430125 
L 130.370534 288.430125 
L 130.370534 267.959971 
L 129.411823 267.959971 
z
" style="fill:#1f77b4;"/>
   </g>
   <g id="patch_73">
    <path clip-path="url(#pf2b4b5d91e)" d="M 130.610212 288.430125 
L 131.568924 288.430125 
L 131.568924 267.959971 
L 130.610212 267.959971 
z
" style="fill:#1f77b4;"/>
   </g>
   <g id="patch_74">
    <path clip-path="url(#pf2b4b5d91e)" d="M 131.808602 288.430125 
L 132.767313 288.430125 
L 132.767313 267.959971 
L 131.808602 267.959971 
z
" style="fill:#1f77b4;"/>
   </g>
   <g id="patch_75">
    <path clip-path="url(#pf2b4b5d91e)" d="M 133.006991 288.430125 
L 133.965702 288.430125 
L 133.965702 267.959971 
L 133.006991 267.959971 
z
" style="fill:#1f77b4;"/>
   </g>
   <g id="patch_76">
    <path clip-path="url(#pf2b4b5d91e)" d="M 134.20538 288.430125 
L 135.164091 288.430125 
L 135.164091 267.959971 
L 134.20538 267.959971 
z
" style="fill:#1f77b4;"/>
   </g>
   <g id="patch_77">
    <path clip-path="url(#pf2b4b5d91e)" d="M 135.403769 288.430125 
L 136.362481 288.430125 
L 136.362481 267.959971 
L 135.403769 267.959971 
z
" style="fill:#1f77b4;"/>
   </g>
   <g id="patch_78">
    <path clip-path="url(#pf2b4b5d91e)" d="M 136.602159 288.430125 
L 137.56087 288.430125 
L 137.56087 267.959971 
L 136.602159 267.959971 
z
" style="fill:#1f77b4;"/>
   </g>
   <g id="patch_79">
    <path clip-path="url(#pf2b4b5d91e)" d="M 137.800548 288.430125 
L 138.759259 288.430125 
L 138.759259 272.054002 
L 137.800548 272.054002 
z
" style="fill:#1f77b4;"/>
   </g>
   <g id="patch_80">
    <path clip-path="url(#pf2b4b5d91e)" d="M 138.998937 288.430125 
L 139.957648 288.430125 
L 139.957648 272.054002 
L 138.998937 272.054002 
z
" style="fill:#1f77b4;"/>
   </g>
   <g id="patch_81">
    <path clip-path="url(#pf2b4b5d91e)" d="M 140.197326 288.430125 
L 141.156038 288.430125 
L 141.156038 272.054002 
L 140.197326 272.054002 
z
" style="fill:#1f77b4;"/>
   </g>
   <g id="patch_82">
    <path clip-path="url(#pf2b4b5d91e)" d="M 141.395716 288.430125 
L 142.354427 288.430125 
L 142.354427 276.148033 
L 141.395716 276.148033 
z
" style="fill:#1f77b4;"/>
   </g>
   <g id="patch_83">
    <path clip-path="url(#pf2b4b5d91e)" d="M 142.594105 288.430125 
L 143.552816 288.430125 
L 143.552816 276.148033 
L 142.594105 276.148033 
z
" style="fill:#1f77b4;"/>
   </g>
   <g id="patch_84">
    <path clip-path="url(#pf2b4b5d91e)" d="M 143.792494 288.430125 
L 144.751206 288.430125 
L 144.751206 280.242063 
L 143.792494 280.242063 
z
" style="fill:#1f77b4;"/>
   </g>
   <g id="patch_85">
    <path clip-path="url(#pf2b4b5d91e)" d="M 144.990883 288.430125 
L 145.949595 288.430125 
L 145.949595 280.242063 
L 144.990883 280.242063 
z
" style="fill:#1f77b4;"/>
   </g>
   <g id="patch_86">
    <path clip-path="url(#pf2b4b5d91e)" d="M 146.189273 288.430125 
L 147.147984 288.430125 
L 147.147984 280.242063 
L 146.189273 280.242063 
z
" style="fill:#1f77b4;"/>
   </g>
   <g id="patch_87">
    <path clip-path="url(#pf2b4b5d91e)" d="M 147.387662 288.430125 
L 148.346373 288.430125 
L 148.346373 280.242063 
L 147.387662 280.242063 
z
" style="fill:#1f77b4;"/>
   </g>
   <g id="patch_88">
    <path clip-path="url(#pf2b4b5d91e)" d="M 148.586051 288.430125 
L 149.544763 288.430125 
L 149.544763 280.242063 
L 148.586051 280.242063 
z
" style="fill:#1f77b4;"/>
   </g>
   <g id="patch_89">
    <path clip-path="url(#pf2b4b5d91e)" d="M 149.78444 288.430125 
L 150.743152 288.430125 
L 150.743152 280.242063 
L 149.78444 280.242063 
z
" style="fill:#1f77b4;"/>
   </g>
   <g id="patch_90">
    <path clip-path="url(#pf2b4b5d91e)" d="M 150.98283 288.430125 
L 151.941541 288.430125 
L 151.941541 280.242063 
L 150.98283 280.242063 
z
" style="fill:#1f77b4;"/>
   </g>
   <g id="patch_91">
    <path clip-path="url(#pf2b4b5d91e)" d="M 152.181219 288.430125 
L 153.13993 288.430125 
L 153.13993 280.242063 
L 152.181219 280.242063 
z
" style="fill:#1f77b4;"/>
   </g>
   <g id="patch_92">
    <path clip-path="url(#pf2b4b5d91e)" d="M 153.379608 288.430125 
L 154.33832 288.430125 
L 154.33832 280.242063 
L 153.379608 280.242063 
z
" style="fill:#1f77b4;"/>
   </g>
   <g id="patch_93">
    <path clip-path="url(#pf2b4b5d91e)" d="M 154.577997 288.430125 
L 155.536709 288.430125 
L 155.536709 280.242063 
L 154.577997 280.242063 
z
" style="fill:#1f77b4;"/>
   </g>
   <g id="patch_94">
    <path clip-path="url(#pf2b4b5d91e)" d="M 155.776387 288.430125 
L 156.735098 288.430125 
L 156.735098 280.242063 
L 155.776387 280.242063 
z
" style="fill:#1f77b4;"/>
   </g>
   <g id="patch_95">
    <path clip-path="url(#pf2b4b5d91e)" d="M 156.974776 288.430125 
L 157.933487 288.430125 
L 157.933487 284.336094 
L 156.974776 284.336094 
z
" style="fill:#1f77b4;"/>
   </g>
   <g id="patch_96">
    <path clip-path="url(#pf2b4b5d91e)" d="M 158.173165 288.430125 
L 159.131877 288.430125 
L 159.131877 284.336094 
L 158.173165 284.336094 
z
" style="fill:#1f77b4;"/>
   </g>
   <g id="patch_97">
    <path clip-path="url(#pf2b4b5d91e)" d="M 159.371555 288.430125 
L 160.330266 288.430125 
L 160.330266 284.336094 
L 159.371555 284.336094 
z
" style="fill:#1f77b4;"/>
   </g>
   <g id="patch_98">
    <path clip-path="url(#pf2b4b5d91e)" d="M 160.569944 288.430125 
L 161.528655 288.430125 
L 161.528655 280.242063 
L 160.569944 280.242063 
z
" style="fill:#1f77b4;"/>
   </g>
   <g id="patch_99">
    <path clip-path="url(#pf2b4b5d91e)" d="M 161.768333 288.430125 
L 162.727044 288.430125 
L 162.727044 284.336094 
L 161.768333 284.336094 
z
" style="fill:#1f77b4;"/>
   </g>
   <g id="patch_100">
    <path clip-path="url(#pf2b4b5d91e)" d="M 162.966722 288.430125 
L 163.925434 288.430125 
L 163.925434 284.336094 
L 162.966722 284.336094 
z
" style="fill:#1f77b4;"/>
   </g>
   <g id="patch_101">
    <path clip-path="url(#pf2b4b5d91e)" d="M 164.165112 288.430125 
L 165.123823 288.430125 
L 165.123823 284.336094 
L 164.165112 284.336094 
z
" style="fill:#1f77b4;"/>
   </g>
   <g id="patch_102">
    <path clip-path="url(#pf2b4b5d91e)" d="M 165.363501 288.430125 
L 166.322212 288.430125 
L 166.322212 284.336094 
L 165.363501 284.336094 
z
" style="fill:#1f77b4;"/>
   </g>
   <g id="patch_103">
    <path clip-path="url(#pf2b4b5d91e)" d="M 166.56189 288.430125 
L 167.520602 288.430125 
L 167.520602 284.336094 
L 166.56189 284.336094 
z
" style="fill:#1f77b4;"/>
   </g>
   <g id="patch_104">
    <path clip-path="url(#pf2b4b5d91e)" d="M 167.760279 288.430125 
L 168.718991 288.430125 
L 168.718991 284.336094 
L 167.760279 284.336094 
z
" style="fill:#1f77b4;"/>
   </g>
   <g id="patch_105">
    <path clip-path="url(#pf2b4b5d91e)" d="M 168.958669 288.430125 
L 169.91738 288.430125 
L 169.91738 284.336094 
L 168.958669 284.336094 
z
" style="fill:#1f77b4;"/>
   </g>
   <g id="patch_106">
    <path clip-path="url(#pf2b4b5d91e)" d="M 170.157058 288.430125 
L 171.115769 288.430125 
L 171.115769 284.336094 
L 170.157058 284.336094 
z
" style="fill:#1f77b4;"/>
   </g>
   <g id="patch_107">
    <path clip-path="url(#pf2b4b5d91e)" d="M 171.355447 288.430125 
L 172.314159 288.430125 
L 172.314159 284.336094 
L 171.355447 284.336094 
z
" style="fill:#1f77b4;"/>
   </g>
   <g id="patch_108">
    <path clip-path="url(#pf2b4b5d91e)" d="M 172.553836 288.430125 
L 173.512548 288.430125 
L 173.512548 284.336094 
L 172.553836 284.336094 
z
" style="fill:#1f77b4;"/>
   </g>
   <g id="patch_109">
    <path clip-path="url(#pf2b4b5d91e)" d="M 173.752226 288.430125 
L 174.710937 288.430125 
L 174.710937 284.336094 
L 173.752226 284.336094 
z
" style="fill:#1f77b4;"/>
   </g>
   <g id="patch_110">
    <path clip-path="url(#pf2b4b5d91e)" d="M 174.950615 288.430125 
L 175.909326 288.430125 
L 175.909326 284.336094 
L 174.950615 284.336094 
z
" style="fill:#1f77b4;"/>
   </g>
   <g id="patch_111">
    <path clip-path="url(#pf2b4b5d91e)" d="M 176.149004 288.430125 
L 177.107716 288.430125 
L 177.107716 284.336094 
L 176.149004 284.336094 
z
" style="fill:#1f77b4;"/>
   </g>
   <g id="patch_112">
    <path clip-path="url(#pf2b4b5d91e)" d="M 177.347393 288.430125 
L 178.306105 288.430125 
L 178.306105 288.430125 
L 177.347393 288.430125 
z
" style="fill:#1f77b4;"/>
   </g>
   <g id="patch_113">
    <path clip-path="url(#pf2b4b5d91e)" d="M 178.545783 288.430125 
L 179.504494 288.430125 
L 179.504494 288.430125 
L 178.545783 288.430125 
z
" style="fill:#1f77b4;"/>
   </g>
   <g id="patch_114">
    <path clip-path="url(#pf2b4b5d91e)" d="M 179.744172 288.430125 
L 180.702883 288.430125 
L 180.702883 288.430125 
L 179.744172 288.430125 
z
" style="fill:#1f77b4;"/>
   </g>
   <g id="patch_115">
    <path clip-path="url(#pf2b4b5d91e)" d="M 180.942561 288.430125 
L 181.901273 288.430125 
L 181.901273 288.430125 
L 180.942561 288.430125 
z
" style="fill:#1f77b4;"/>
   </g>
   <g id="patch_116">
    <path clip-path="url(#pf2b4b5d91e)" d="M 182.140951 288.430125 
L 183.099662 288.430125 
L 183.099662 288.430125 
L 182.140951 288.430125 
z
" style="fill:#1f77b4;"/>
   </g>
   <g id="patch_117">
    <path clip-path="url(#pf2b4b5d91e)" d="M 183.33934 288.430125 
L 184.298051 288.430125 
L 184.298051 288.430125 
L 183.33934 288.430125 
z
" style="fill:#1f77b4;"/>
   </g>
   <g id="patch_118">
    <path clip-path="url(#pf2b4b5d91e)" d="M 184.537729 288.430125 
L 185.49644 288.430125 
L 185.49644 288.430125 
L 184.537729 288.430125 
z
" style="fill:#1f77b4;"/>
   </g>
   <g id="patch_119">
    <path clip-path="url(#pf2b4b5d91e)" d="M 185.736118 288.430125 
L 186.69483 288.430125 
L 186.69483 288.430125 
L 185.736118 288.430125 
z
" style="fill:#1f77b4;"/>
   </g>
   <g id="patch_120">
    <path clip-path="url(#pf2b4b5d91e)" d="M 186.934508 288.430125 
L 187.893219 288.430125 
L 187.893219 288.430125 
L 186.934508 288.430125 
z
" style="fill:#1f77b4;"/>
   </g>
   <g id="patch_121">
    <path clip-path="url(#pf2b4b5d91e)" d="M 188.132897 288.430125 
L 189.091608 288.430125 
L 189.091608 288.430125 
L 188.132897 288.430125 
z
" style="fill:#1f77b4;"/>
   </g>
   <g id="patch_122">
    <path clip-path="url(#pf2b4b5d91e)" d="M 189.331286 288.430125 
L 190.289997 288.430125 
L 190.289997 288.430125 
L 189.331286 288.430125 
z
" style="fill:#1f77b4;"/>
   </g>
   <g id="patch_123">
    <path clip-path="url(#pf2b4b5d91e)" d="M 190.529675 288.430125 
L 191.488387 288.430125 
L 191.488387 288.430125 
L 190.529675 288.430125 
z
" style="fill:#1f77b4;"/>
   </g>
   <g id="patch_124">
    <path clip-path="url(#pf2b4b5d91e)" d="M 191.728065 288.430125 
L 192.686776 288.430125 
L 192.686776 288.430125 
L 191.728065 288.430125 
z
" style="fill:#1f77b4;"/>
   </g>
   <g id="patch_125">
    <path clip-path="url(#pf2b4b5d91e)" d="M 192.926454 288.430125 
L 193.885165 288.430125 
L 193.885165 288.430125 
L 192.926454 288.430125 
z
" style="fill:#1f77b4;"/>
   </g>
   <g id="patch_126">
    <path clip-path="url(#pf2b4b5d91e)" d="M 194.124843 288.430125 
L 195.083555 288.430125 
L 195.083555 288.430125 
L 194.124843 288.430125 
z
" style="fill:#1f77b4;"/>
   </g>
   <g id="patch_127">
    <path clip-path="url(#pf2b4b5d91e)" d="M 195.323232 288.430125 
L 196.281944 288.430125 
L 196.281944 288.430125 
L 195.323232 288.430125 
z
" style="fill:#1f77b4;"/>
   </g>
   <g id="patch_128">
    <path clip-path="url(#pf2b4b5d91e)" d="M 196.521622 288.430125 
L 197.480333 288.430125 
L 197.480333 288.430125 
L 196.521622 288.430125 
z
" style="fill:#1f77b4;"/>
   </g>
   <g id="patch_129">
    <path clip-path="url(#pf2b4b5d91e)" d="M 197.720011 288.430125 
L 198.678722 288.430125 
L 198.678722 288.430125 
L 197.720011 288.430125 
z
" style="fill:#1f77b4;"/>
   </g>
   <g id="patch_130">
    <path clip-path="url(#pf2b4b5d91e)" d="M 198.9184 288.430125 
L 199.877112 288.430125 
L 199.877112 288.430125 
L 198.9184 288.430125 
z
" style="fill:#1f77b4;"/>
   </g>
   <g id="patch_131">
    <path clip-path="url(#pf2b4b5d91e)" d="M 200.116789 288.430125 
L 201.075501 288.430125 
L 201.075501 288.430125 
L 200.116789 288.430125 
z
" style="fill:#1f77b4;"/>
   </g>
   <g id="patch_132">
    <path clip-path="url(#pf2b4b5d91e)" d="M 201.315179 288.430125 
L 202.27389 288.430125 
L 202.27389 288.430125 
L 201.315179 288.430125 
z
" style="fill:#1f77b4;"/>
   </g>
   <g id="patch_133">
    <path clip-path="url(#pf2b4b5d91e)" d="M 202.513568 288.430125 
L 203.472279 288.430125 
L 203.472279 288.430125 
L 202.513568 288.430125 
z
" style="fill:#1f77b4;"/>
   </g>
   <g id="patch_134">
    <path clip-path="url(#pf2b4b5d91e)" d="M 203.711957 288.430125 
L 204.670669 288.430125 
L 204.670669 288.430125 
L 203.711957 288.430125 
z
" style="fill:#1f77b4;"/>
   </g>
   <g id="patch_135">
    <path clip-path="url(#pf2b4b5d91e)" d="M 204.910346 288.430125 
L 205.869058 288.430125 
L 205.869058 288.430125 
L 204.910346 288.430125 
z
" style="fill:#1f77b4;"/>
   </g>
   <g id="patch_136">
    <path clip-path="url(#pf2b4b5d91e)" d="M 206.108736 288.430125 
L 207.067447 288.430125 
L 207.067447 288.430125 
L 206.108736 288.430125 
z
" style="fill:#1f77b4;"/>
   </g>
   <g id="patch_137">
    <path clip-path="url(#pf2b4b5d91e)" d="M 207.307125 288.430125 
L 208.265836 288.430125 
L 208.265836 288.430125 
L 207.307125 288.430125 
z
" style="fill:#1f77b4;"/>
   </g>
   <g id="patch_138">
    <path clip-path="url(#pf2b4b5d91e)" d="M 208.505514 288.430125 
L 209.464226 288.430125 
L 209.464226 288.430125 
L 208.505514 288.430125 
z
" style="fill:#1f77b4;"/>
   </g>
   <g id="patch_139">
    <path clip-path="url(#pf2b4b5d91e)" d="M 209.703904 288.430125 
L 210.662615 288.430125 
L 210.662615 284.336094 
L 209.703904 284.336094 
z
" style="fill:#1f77b4;"/>
   </g>
   <g id="patch_140">
    <path clip-path="url(#pf2b4b5d91e)" d="M 210.902293 288.430125 
L 211.861004 288.430125 
L 211.861004 284.336094 
L 210.902293 284.336094 
z
" style="fill:#1f77b4;"/>
   </g>
   <g id="patch_141">
    <path clip-path="url(#pf2b4b5d91e)" d="M 212.100682 288.430125 
L 213.059393 288.430125 
L 213.059393 284.336094 
L 212.100682 284.336094 
z
" style="fill:#1f77b4;"/>
   </g>
   <g id="patch_142">
    <path clip-path="url(#pf2b4b5d91e)" d="M 213.299071 288.430125 
L 214.257783 288.430125 
L 214.257783 284.336094 
L 213.299071 284.336094 
z
" style="fill:#1f77b4;"/>
   </g>
   <g id="patch_143">
    <path clip-path="url(#pf2b4b5d91e)" d="M 214.497461 288.430125 
L 215.456172 288.430125 
L 215.456172 288.430125 
L 214.497461 288.430125 
z
" style="fill:#1f77b4;"/>
   </g>
   <g id="patch_144">
    <path clip-path="url(#pf2b4b5d91e)" d="M 215.69585 288.430125 
L 216.654561 288.430125 
L 216.654561 288.430125 
L 215.69585 288.430125 
z
" style="fill:#1f77b4;"/>
   </g>
   <g id="patch_145">
    <path clip-path="url(#pf2b4b5d91e)" d="M 216.894239 288.430125 
L 217.852951 288.430125 
L 217.852951 288.430125 
L 216.894239 288.430125 
z
" style="fill:#1f77b4;"/>
   </g>
   <g id="patch_146">
    <path clip-path="url(#pf2b4b5d91e)" d="M 218.092628 288.430125 
L 219.05134 288.430125 
L 219.05134 288.430125 
L 218.092628 288.430125 
z
" style="fill:#1f77b4;"/>
   </g>
   <g id="patch_147">
    <path clip-path="url(#pf2b4b5d91e)" d="M 219.291018 288.430125 
L 220.249729 288.430125 
L 220.249729 288.430125 
L 219.291018 288.430125 
z
" style="fill:#1f77b4;"/>
   </g>
   <g id="patch_148">
    <path clip-path="url(#pf2b4b5d91e)" d="M 220.489407 288.430125 
L 221.448118 288.430125 
L 221.448118 288.430125 
L 220.489407 288.430125 
z
" style="fill:#1f77b4;"/>
   </g>
   <g id="patch_149">
    <path clip-path="url(#pf2b4b5d91e)" d="M 221.687796 288.430125 
L 222.646508 288.430125 
L 222.646508 288.430125 
L 221.687796 288.430125 
z
" style="fill:#1f77b4;"/>
   </g>
   <g id="patch_150">
    <path clip-path="url(#pf2b4b5d91e)" d="M 222.886185 288.430125 
L 223.844897 288.430125 
L 223.844897 288.430125 
L 222.886185 288.430125 
z
" style="fill:#1f77b4;"/>
   </g>
   <g id="patch_151">
    <path clip-path="url(#pf2b4b5d91e)" d="M 224.084575 288.430125 
L 225.043286 288.430125 
L 225.043286 288.430125 
L 224.084575 288.430125 
z
" style="fill:#1f77b4;"/>
   </g>
   <g id="patch_152">
    <path clip-path="url(#pf2b4b5d91e)" d="M 225.282964 288.430125 
L 226.241675 288.430125 
L 226.241675 288.430125 
L 225.282964 288.430125 
z
" style="fill:#1f77b4;"/>
   </g>
   <g id="patch_153">
    <path clip-path="url(#pf2b4b5d91e)" d="M 226.481353 288.430125 
L 227.440065 288.430125 
L 227.440065 288.430125 
L 226.481353 288.430125 
z
" style="fill:#1f77b4;"/>
   </g>
   <g id="patch_154">
    <path clip-path="url(#pf2b4b5d91e)" d="M 227.679742 288.430125 
L 228.638454 288.430125 
L 228.638454 284.336094 
L 227.679742 284.336094 
z
" style="fill:#1f77b4;"/>
   </g>
   <g id="patch_155">
    <path clip-path="url(#pf2b4b5d91e)" d="M 228.878132 288.430125 
L 229.836843 288.430125 
L 229.836843 284.336094 
L 228.878132 284.336094 
z
" style="fill:#1f77b4;"/>
   </g>
   <g id="patch_156">
    <path clip-path="url(#pf2b4b5d91e)" d="M 230.076521 288.430125 
L 231.035232 288.430125 
L 231.035232 284.336094 
L 230.076521 284.336094 
z
" style="fill:#1f77b4;"/>
   </g>
   <g id="patch_157">
    <path clip-path="url(#pf2b4b5d91e)" d="M 231.27491 288.430125 
L 232.233622 288.430125 
L 232.233622 284.336094 
L 231.27491 284.336094 
z
" style="fill:#1f77b4;"/>
   </g>
   <g id="patch_158">
    <path clip-path="url(#pf2b4b5d91e)" d="M 232.473299 288.430125 
L 233.432011 288.430125 
L 233.432011 284.336094 
L 232.473299 284.336094 
z
" style="fill:#1f77b4;"/>
   </g>
   <g id="patch_159">
    <path clip-path="url(#pf2b4b5d91e)" d="M 233.671689 288.430125 
L 234.6304 288.430125 
L 234.6304 284.336094 
L 233.671689 284.336094 
z
" style="fill:#1f77b4;"/>
   </g>
   <g id="patch_160">
    <path clip-path="url(#pf2b4b5d91e)" d="M 234.870078 288.430125 
L 235.828789 288.430125 
L 235.828789 284.336094 
L 234.870078 284.336094 
z
" style="fill:#1f77b4;"/>
   </g>
   <g id="patch_161">
    <path clip-path="url(#pf2b4b5d91e)" d="M 236.068467 288.430125 
L 237.027179 288.430125 
L 237.027179 284.336094 
L 236.068467 284.336094 
z
" style="fill:#1f77b4;"/>
   </g>
   <g id="patch_162">
    <path clip-path="url(#pf2b4b5d91e)" d="M 237.266857 288.430125 
L 238.225568 288.430125 
L 238.225568 284.336094 
L 237.266857 284.336094 
z
" style="fill:#1f77b4;"/>
   </g>
   <g id="patch_163">
    <path clip-path="url(#pf2b4b5d91e)" d="M 238.465246 288.430125 
L 239.423957 288.430125 
L 239.423957 284.336094 
L 238.465246 284.336094 
z
" style="fill:#1f77b4;"/>
   </g>
   <g id="patch_164">
    <path clip-path="url(#pf2b4b5d91e)" d="M 239.663635 288.430125 
L 240.622346 288.430125 
L 240.622346 284.336094 
L 239.663635 284.336094 
z
" style="fill:#1f77b4;"/>
   </g>
   <g id="patch_165">
    <path clip-path="url(#pf2b4b5d91e)" d="M 240.862024 288.430125 
L 241.820736 288.430125 
L 241.820736 284.336094 
L 240.862024 284.336094 
z
" style="fill:#1f77b4;"/>
   </g>
   <g id="patch_166">
    <path clip-path="url(#pf2b4b5d91e)" d="M 242.060414 288.430125 
L 243.019125 288.430125 
L 243.019125 284.336094 
L 242.060414 284.336094 
z
" style="fill:#1f77b4;"/>
   </g>
   <g id="patch_167">
    <path clip-path="url(#pf2b4b5d91e)" d="M 243.258803 288.430125 
L 244.217514 288.430125 
L 244.217514 284.336094 
L 243.258803 284.336094 
z
" style="fill:#1f77b4;"/>
   </g>
   <g id="patch_168">
    <path clip-path="url(#pf2b4b5d91e)" d="M 244.457192 288.430125 
L 245.415904 288.430125 
L 245.415904 284.336094 
L 244.457192 284.336094 
z
" style="fill:#1f77b4;"/>
   </g>
   <g id="patch_169">
    <path clip-path="url(#pf2b4b5d91e)" d="M 245.655581 288.430125 
L 246.614293 288.430125 
L 246.614293 284.336094 
L 245.655581 284.336094 
z
" style="fill:#1f77b4;"/>
   </g>
   <g id="patch_170">
    <path clip-path="url(#pf2b4b5d91e)" d="M 246.853971 288.430125 
L 247.812682 288.430125 
L 247.812682 280.242063 
L 246.853971 280.242063 
z
" style="fill:#1f77b4;"/>
   </g>
   <g id="patch_171">
    <path clip-path="url(#pf2b4b5d91e)" d="M 248.05236 288.430125 
L 249.011071 288.430125 
L 249.011071 280.242063 
L 248.05236 280.242063 
z
" style="fill:#1f77b4;"/>
   </g>
   <g id="patch_172">
    <path clip-path="url(#pf2b4b5d91e)" d="M 249.250749 288.430125 
L 250.209461 288.430125 
L 250.209461 280.242063 
L 249.250749 280.242063 
z
" style="fill:#1f77b4;"/>
   </g>
   <g id="patch_173">
    <path clip-path="url(#pf2b4b5d91e)" d="M 250.449138 288.430125 
L 251.40785 288.430125 
L 251.40785 280.242063 
L 250.449138 280.242063 
z
" style="fill:#1f77b4;"/>
   </g>
   <g id="patch_174">
    <path clip-path="url(#pf2b4b5d91e)" d="M 251.647528 288.430125 
L 252.606239 288.430125 
L 252.606239 280.242063 
L 251.647528 280.242063 
z
" style="fill:#1f77b4;"/>
   </g>
   <g id="patch_175">
    <path clip-path="url(#pf2b4b5d91e)" d="M 252.845917 288.430125 
L 253.804628 288.430125 
L 253.804628 280.242063 
L 252.845917 280.242063 
z
" style="fill:#1f77b4;"/>
   </g>
   <g id="patch_176">
    <path clip-path="url(#pf2b4b5d91e)" d="M 254.044306 288.430125 
L 255.003018 288.430125 
L 255.003018 280.242063 
L 254.044306 280.242063 
z
" style="fill:#1f77b4;"/>
   </g>
   <g id="patch_177">
    <path clip-path="url(#pf2b4b5d91e)" d="M 255.242695 288.430125 
L 256.201407 288.430125 
L 256.201407 280.242063 
L 255.242695 280.242063 
z
" style="fill:#1f77b4;"/>
   </g>
   <g id="patch_178">
    <path clip-path="url(#pf2b4b5d91e)" d="M 256.441085 288.430125 
L 257.399796 288.430125 
L 257.399796 280.242063 
L 256.441085 280.242063 
z
" style="fill:#1f77b4;"/>
   </g>
   <g id="patch_179">
    <path clip-path="url(#pf2b4b5d91e)" d="M 257.639474 288.430125 
L 258.598185 288.430125 
L 258.598185 280.242063 
L 257.639474 280.242063 
z
" style="fill:#1f77b4;"/>
   </g>
   <g id="patch_180">
    <path clip-path="url(#pf2b4b5d91e)" d="M 258.837863 288.430125 
L 259.796575 288.430125 
L 259.796575 288.430125 
L 258.837863 288.430125 
z
" style="fill:#1f77b4;"/>
   </g>
   <g id="patch_181">
    <path clip-path="url(#pf2b4b5d91e)" d="M 260.036253 288.430125 
L 260.994964 288.430125 
L 260.994964 288.430125 
L 260.036253 288.430125 
z
" style="fill:#1f77b4;"/>
   </g>
   <g id="patch_182">
    <path clip-path="url(#pf2b4b5d91e)" d="M 261.234642 288.430125 
L 262.193353 288.430125 
L 262.193353 288.430125 
L 261.234642 288.430125 
z
" style="fill:#1f77b4;"/>
   </g>
   <g id="patch_183">
    <path clip-path="url(#pf2b4b5d91e)" d="M 262.433031 288.430125 
L 263.391742 288.430125 
L 263.391742 288.430125 
L 262.433031 288.430125 
z
" style="fill:#1f77b4;"/>
   </g>
   <g id="patch_184">
    <path clip-path="url(#pf2b4b5d91e)" d="M 263.63142 288.430125 
L 264.590132 288.430125 
L 264.590132 288.430125 
L 263.63142 288.430125 
z
" style="fill:#1f77b4;"/>
   </g>
   <g id="patch_185">
    <path clip-path="url(#pf2b4b5d91e)" d="M 264.82981 288.430125 
L 265.788521 288.430125 
L 265.788521 288.430125 
L 264.82981 288.430125 
z
" style="fill:#1f77b4;"/>
   </g>
   <g id="patch_186">
    <path clip-path="url(#pf2b4b5d91e)" d="M 266.028199 288.430125 
L 266.98691 288.430125 
L 266.98691 288.430125 
L 266.028199 288.430125 
z
" style="fill:#1f77b4;"/>
   </g>
   <g id="patch_187">
    <path clip-path="url(#pf2b4b5d91e)" d="M 267.226588 288.430125 
L 268.185299 288.430125 
L 268.185299 284.336094 
L 267.226588 284.336094 
z
" style="fill:#1f77b4;"/>
   </g>
   <g id="patch_188">
    <path clip-path="url(#pf2b4b5d91e)" d="M 268.424977 288.430125 
L 269.383689 288.430125 
L 269.383689 280.242063 
L 268.424977 280.242063 
z
" style="fill:#1f77b4;"/>
   </g>
   <g id="patch_189">
    <path clip-path="url(#pf2b4b5d91e)" d="M 269.623367 288.430125 
L 270.582078 288.430125 
L 270.582078 280.242063 
L 269.623367 280.242063 
z
" style="fill:#1f77b4;"/>
   </g>
   <g id="patch_190">
    <path clip-path="url(#pf2b4b5d91e)" d="M 270.821756 288.430125 
L 271.780467 288.430125 
L 271.780467 280.242063 
L 270.821756 280.242063 
z
" style="fill:#1f77b4;"/>
   </g>
   <g id="patch_191">
    <path clip-path="url(#pf2b4b5d91e)" d="M 272.020145 288.430125 
L 272.978857 288.430125 
L 272.978857 280.242063 
L 272.020145 280.242063 
z
" style="fill:#1f77b4;"/>
   </g>
   <g id="patch_192">
    <path clip-path="url(#pf2b4b5d91e)" d="M 273.218534 288.430125 
L 274.177246 288.430125 
L 274.177246 280.242063 
L 273.218534 280.242063 
z
" style="fill:#1f77b4;"/>
   </g>
   <g id="patch_193">
    <path clip-path="url(#pf2b4b5d91e)" d="M 274.416924 288.430125 
L 275.375635 288.430125 
L 275.375635 284.336094 
L 274.416924 284.336094 
z
" style="fill:#1f77b4;"/>
   </g>
   <g id="patch_194">
    <path clip-path="url(#pf2b4b5d91e)" d="M 275.615313 288.430125 
L 276.574024 288.430125 
L 276.574024 284.336094 
L 275.615313 284.336094 
z
" style="fill:#1f77b4;"/>
   </g>
   <g id="patch_195">
    <path clip-path="url(#pf2b4b5d91e)" d="M 276.813702 288.430125 
L 277.772414 288.430125 
L 277.772414 284.336094 
L 276.813702 284.336094 
z
" style="fill:#1f77b4;"/>
   </g>
   <g id="patch_196">
    <path clip-path="url(#pf2b4b5d91e)" d="M 278.012091 288.430125 
L 278.970803 288.430125 
L 278.970803 284.336094 
L 278.012091 284.336094 
z
" style="fill:#1f77b4;"/>
   </g>
   <g id="patch_197">
    <path clip-path="url(#pf2b4b5d91e)" d="M 279.210481 288.430125 
L 280.169192 288.430125 
L 280.169192 284.336094 
L 279.210481 284.336094 
z
" style="fill:#1f77b4;"/>
   </g>
   <g id="patch_198">
    <path clip-path="url(#pf2b4b5d91e)" d="M 280.40887 288.430125 
L 281.367581 288.430125 
L 281.367581 288.430125 
L 280.40887 288.430125 
z
" style="fill:#1f77b4;"/>
   </g>
   <g id="patch_199">
    <path clip-path="url(#pf2b4b5d91e)" d="M 281.607259 288.430125 
L 282.565971 288.430125 
L 282.565971 288.430125 
L 281.607259 288.430125 
z
" style="fill:#1f77b4;"/>
   </g>
   <g id="patch_200">
    <path clip-path="url(#pf2b4b5d91e)" d="M 282.805648 288.430125 
L 283.76436 288.430125 
L 283.76436 288.430125 
L 282.805648 288.430125 
z
" style="fill:#1f77b4;"/>
   </g>
   <g id="patch_201">
    <path clip-path="url(#pf2b4b5d91e)" d="M 284.004038 288.430125 
L 284.962749 288.430125 
L 284.962749 288.430125 
L 284.004038 288.430125 
z
" style="fill:#1f77b4;"/>
   </g>
   <g id="patch_202">
    <path clip-path="url(#pf2b4b5d91e)" d="M 285.202427 288.430125 
L 286.161138 288.430125 
L 286.161138 288.430125 
L 285.202427 288.430125 
z
" style="fill:#1f77b4;"/>
   </g>
   <g id="patch_203">
    <path clip-path="url(#pf2b4b5d91e)" d="M 286.400816 288.430125 
L 287.359528 288.430125 
L 287.359528 288.430125 
L 286.400816 288.430125 
z
" style="fill:#1f77b4;"/>
   </g>
   <g id="patch_204">
    <path clip-path="url(#pf2b4b5d91e)" d="M 287.599206 288.430125 
L 288.557917 288.430125 
L 288.557917 288.430125 
L 287.599206 288.430125 
z
" style="fill:#1f77b4;"/>
   </g>
   <g id="patch_205">
    <path clip-path="url(#pf2b4b5d91e)" d="M 288.797595 288.430125 
L 289.756306 288.430125 
L 289.756306 288.430125 
L 288.797595 288.430125 
z
" style="fill:#1f77b4;"/>
   </g>
   <g id="patch_206">
    <path clip-path="url(#pf2b4b5d91e)" d="M 289.995984 288.430125 
L 290.954695 288.430125 
L 290.954695 288.430125 
L 289.995984 288.430125 
z
" style="fill:#1f77b4;"/>
   </g>
   <g id="patch_207">
    <path clip-path="url(#pf2b4b5d91e)" d="M 291.194373 288.430125 
L 292.153085 288.430125 
L 292.153085 288.430125 
L 291.194373 288.430125 
z
" style="fill:#1f77b4;"/>
   </g>
   <g id="patch_208">
    <path clip-path="url(#pf2b4b5d91e)" d="M 292.392763 288.430125 
L 293.351474 288.430125 
L 293.351474 288.430125 
L 292.392763 288.430125 
z
" style="fill:#1f77b4;"/>
   </g>
   <g id="patch_209">
    <path clip-path="url(#pf2b4b5d91e)" d="M 293.591152 288.430125 
L 294.549863 288.430125 
L 294.549863 284.336094 
L 293.591152 284.336094 
z
" style="fill:#1f77b4;"/>
   </g>
   <g id="patch_210">
    <path clip-path="url(#pf2b4b5d91e)" d="M 294.789541 288.430125 
L 295.748253 288.430125 
L 295.748253 284.336094 
L 294.789541 284.336094 
z
" style="fill:#1f77b4;"/>
   </g>
   <g id="patch_211">
    <path clip-path="url(#pf2b4b5d91e)" d="M 295.98793 288.430125 
L 296.946642 288.430125 
L 296.946642 280.242063 
L 295.98793 280.242063 
z
" style="fill:#1f77b4;"/>
   </g>
   <g id="patch_212">
    <path clip-path="url(#pf2b4b5d91e)" d="M 297.18632 288.430125 
L 298.145031 288.430125 
L 298.145031 280.242063 
L 297.18632 280.242063 
z
" style="fill:#1f77b4;"/>
   </g>
   <g id="patch_213">
    <path clip-path="url(#pf2b4b5d91e)" d="M 298.384709 288.430125 
L 299.34342 288.430125 
L 299.34342 284.336094 
L 298.384709 284.336094 
z
" style="fill:#1f77b4;"/>
   </g>
   <g id="patch_214">
    <path clip-path="url(#pf2b4b5d91e)" d="M 299.583098 288.430125 
L 300.54181 288.430125 
L 300.54181 280.242063 
L 299.583098 280.242063 
z
" style="fill:#1f77b4;"/>
   </g>
   <g id="patch_215">
    <path clip-path="url(#pf2b4b5d91e)" d="M 300.781487 288.430125 
L 301.740199 288.430125 
L 301.740199 276.148033 
L 300.781487 276.148033 
z
" style="fill:#1f77b4;"/>
   </g>
   <g id="patch_216">
    <path clip-path="url(#pf2b4b5d91e)" d="M 301.979877 288.430125 
L 302.938588 288.430125 
L 302.938588 276.148033 
L 301.979877 276.148033 
z
" style="fill:#1f77b4;"/>
   </g>
   <g id="patch_217">
    <path clip-path="url(#pf2b4b5d91e)" d="M 303.178266 288.430125 
L 304.136977 288.430125 
L 304.136977 276.148033 
L 303.178266 276.148033 
z
" style="fill:#1f77b4;"/>
   </g>
   <g id="patch_218">
    <path clip-path="url(#pf2b4b5d91e)" d="M 304.376655 288.430125 
L 305.335367 288.430125 
L 305.335367 263.86594 
L 304.376655 263.86594 
z
" style="fill:#1f77b4;"/>
   </g>
   <g id="patch_219">
    <path clip-path="url(#pf2b4b5d91e)" d="M 305.575044 288.430125 
L 306.533756 288.430125 
L 306.533756 259.77191 
L 305.575044 259.77191 
z
" style="fill:#1f77b4;"/>
   </g>
   <g id="patch_220">
    <path clip-path="url(#pf2b4b5d91e)" d="M 306.773434 288.430125 
L 307.732145 288.430125 
L 307.732145 259.77191 
L 306.773434 259.77191 
z
" style="fill:#1f77b4;"/>
   </g>
   <g id="patch_221">
    <path clip-path="url(#pf2b4b5d91e)" d="M 307.971823 288.430125 
L 308.930534 288.430125 
L 308.930534 259.77191 
L 307.971823 259.77191 
z
" style="fill:#1f77b4;"/>
   </g>
   <g id="patch_222">
    <path clip-path="url(#pf2b4b5d91e)" d="M 309.170212 288.430125 
L 310.128924 288.430125 
L 310.128924 259.77191 
L 309.170212 259.77191 
z
" style="fill:#1f77b4;"/>
   </g>
   <g id="patch_223">
    <path clip-path="url(#pf2b4b5d91e)" d="M 310.368602 288.430125 
L 311.327313 288.430125 
L 311.327313 255.677879 
L 310.368602 255.677879 
z
" style="fill:#1f77b4;"/>
   </g>
   <g id="patch_224">
    <path clip-path="url(#pf2b4b5d91e)" d="M 311.566991 288.430125 
L 312.525702 288.430125 
L 312.525702 255.677879 
L 311.566991 255.677879 
z
" style="fill:#1f77b4;"/>
   </g>
   <g id="patch_225">
    <path clip-path="url(#pf2b4b5d91e)" d="M 312.76538 288.430125 
L 313.724091 288.430125 
L 313.724091 243.395787 
L 312.76538 243.395787 
z
" style="fill:#1f77b4;"/>
   </g>
   <g id="patch_226">
    <path clip-path="url(#pf2b4b5d91e)" d="M 313.963769 288.430125 
L 314.922481 288.430125 
L 314.922481 239.301756 
L 313.963769 239.301756 
z
" style="fill:#1f77b4;"/>
   </g>
   <g id="patch_227">
    <path clip-path="url(#pf2b4b5d91e)" d="M 315.162159 288.430125 
L 316.12087 288.430125 
L 316.12087 243.395787 
L 315.162159 243.395787 
z
" style="fill:#1f77b4;"/>
   </g>
   <g id="patch_228">
    <path clip-path="url(#pf2b4b5d91e)" d="M 316.360548 288.430125 
L 317.319259 288.430125 
L 317.319259 239.301756 
L 316.360548 239.301756 
z
" style="fill:#1f77b4;"/>
   </g>
   <g id="patch_229">
    <path clip-path="url(#pf2b4b5d91e)" d="M 317.558937 288.430125 
L 318.517648 288.430125 
L 318.517648 239.301756 
L 317.558937 239.301756 
z
" style="fill:#1f77b4;"/>
   </g>
   <g id="patch_230">
    <path clip-path="url(#pf2b4b5d91e)" d="M 318.757326 288.430125 
L 319.716038 288.430125 
L 319.716038 227.019663 
L 318.757326 227.019663 
z
" style="fill:#1f77b4;"/>
   </g>
   <g id="patch_231">
    <path clip-path="url(#pf2b4b5d91e)" d="M 319.955716 288.430125 
L 320.914427 288.430125 
L 320.914427 227.019663 
L 319.955716 227.019663 
z
" style="fill:#1f77b4;"/>
   </g>
   <g id="patch_232">
    <path clip-path="url(#pf2b4b5d91e)" d="M 321.154105 288.430125 
L 322.112816 288.430125 
L 322.112816 210.64354 
L 321.154105 210.64354 
z
" style="fill:#1f77b4;"/>
   </g>
   <g id="patch_233">
    <path clip-path="url(#pf2b4b5d91e)" d="M 322.352494 288.430125 
L 323.311206 288.430125 
L 323.311206 214.737571 
L 322.352494 214.737571 
z
" style="fill:#1f77b4;"/>
   </g>
   <g id="patch_234">
    <path clip-path="url(#pf2b4b5d91e)" d="M 323.550883 288.430125 
L 324.509595 288.430125 
L 324.509595 218.831602 
L 323.550883 218.831602 
z
" style="fill:#1f77b4;"/>
   </g>
   <g id="patch_235">
    <path clip-path="url(#pf2b4b5d91e)" d="M 324.749273 288.430125 
L 325.707984 288.430125 
L 325.707984 194.267417 
L 324.749273 194.267417 
z
" style="fill:#1f77b4;"/>
   </g>
   <g id="patch_236">
    <path clip-path="url(#pf2b4b5d91e)" d="M 325.947662 288.430125 
L 326.906373 288.430125 
L 326.906373 173.797263 
L 325.947662 173.797263 
z
" style="fill:#1f77b4;"/>
   </g>
   <g id="patch_237">
    <path clip-path="url(#pf2b4b5d91e)" d="M 327.146051 288.430125 
L 328.104763 288.430125 
L 328.104763 153.32711 
L 327.146051 153.32711 
z
" style="fill:#1f77b4;"/>
   </g>
   <g id="patch_238">
    <path clip-path="url(#pf2b4b5d91e)" d="M 328.34444 288.430125 
L 329.303152 288.430125 
L 329.303152 153.32711 
L 328.34444 153.32711 
z
" style="fill:#1f77b4;"/>
   </g>
   <g id="patch_239">
    <path clip-path="url(#pf2b4b5d91e)" d="M 329.54283 288.430125 
L 330.501541 288.430125 
L 330.501541 145.139048 
L 329.54283 145.139048 
z
" style="fill:#1f77b4;"/>
   </g>
   <g id="patch_240">
    <path clip-path="url(#pf2b4b5d91e)" d="M 330.741219 288.430125 
L 331.69993 288.430125 
L 331.69993 141.045017 
L 330.741219 141.045017 
z
" style="fill:#1f77b4;"/>
   </g>
   <g id="patch_241">
    <path clip-path="url(#pf2b4b5d91e)" d="M 331.939608 288.430125 
L 332.89832 288.430125 
L 332.89832 128.762925 
L 331.939608 128.762925 
z
" style="fill:#1f77b4;"/>
   </g>
   <g id="patch_242">
    <path clip-path="url(#pf2b4b5d91e)" d="M 333.137997 288.430125 
L 334.096709 288.430125 
L 334.096709 120.574863 
L 333.137997 120.574863 
z
" style="fill:#1f77b4;"/>
   </g>
   <g id="patch_243">
    <path clip-path="url(#pf2b4b5d91e)" d="M 334.336387 288.430125 
L 335.295098 288.430125 
L 335.295098 136.950987 
L 334.336387 136.950987 
z
" style="fill:#1f77b4;"/>
   </g>
   <g id="patch_244">
    <path clip-path="url(#pf2b4b5d91e)" d="M 335.534776 288.430125 
L 336.493487 288.430125 
L 336.493487 116.480833 
L 335.534776 116.480833 
z
" style="fill:#1f77b4;"/>
   </g>
   <g id="patch_245">
    <path clip-path="url(#pf2b4b5d91e)" d="M 336.733165 288.430125 
L 337.691877 288.430125 
L 337.691877 116.480833 
L 336.733165 116.480833 
z
" style="fill:#1f77b4;"/>
   </g>
   <g id="patch_246">
    <path clip-path="url(#pf2b4b5d91e)" d="M 337.931555 288.430125 
L 338.890266 288.430125 
L 338.890266 120.574863 
L 337.931555 120.574863 
z
" style="fill:#1f77b4;"/>
   </g>
   <g id="patch_247">
    <path clip-path="url(#pf2b4b5d91e)" d="M 339.129944 288.430125 
L 340.088655 288.430125 
L 340.088655 108.292771 
L 339.129944 108.292771 
z
" style="fill:#1f77b4;"/>
   </g>
   <g id="patch_248">
    <path clip-path="url(#pf2b4b5d91e)" d="M 340.328333 288.430125 
L 341.287044 288.430125 
L 341.287044 112.386802 
L 340.328333 112.386802 
z
" style="fill:#1f77b4;"/>
   </g>
   <g id="patch_249">
    <path clip-path="url(#pf2b4b5d91e)" d="M 341.526722 288.430125 
L 342.485434 288.430125 
L 342.485434 112.386802 
L 341.526722 112.386802 
z
" style="fill:#1f77b4;"/>
   </g>
   <g id="patch_250">
    <path clip-path="url(#pf2b4b5d91e)" d="M 342.725112 288.430125 
L 343.683823 288.430125 
L 343.683823 108.292771 
L 342.725112 108.292771 
z
" style="fill:#1f77b4;"/>
   </g>
   <g id="patch_251">
    <path clip-path="url(#pf2b4b5d91e)" d="M 343.923501 288.430125 
L 344.882212 288.430125 
L 344.882212 128.762925 
L 343.923501 128.762925 
z
" style="fill:#1f77b4;"/>
   </g>
   <g id="patch_252">
    <path clip-path="url(#pf2b4b5d91e)" d="M 345.12189 288.430125 
L 346.080602 288.430125 
L 346.080602 128.762925 
L 345.12189 128.762925 
z
" style="fill:#1f77b4;"/>
   </g>
   <g id="patch_253">
    <path clip-path="url(#pf2b4b5d91e)" d="M 346.320279 288.430125 
L 347.278991 288.430125 
L 347.278991 132.856956 
L 346.320279 132.856956 
z
" style="fill:#1f77b4;"/>
   </g>
   <g id="patch_254">
    <path clip-path="url(#pf2b4b5d91e)" d="M 347.518669 288.430125 
L 348.47738 288.430125 
L 348.47738 128.762925 
L 347.518669 128.762925 
z
" style="fill:#1f77b4;"/>
   </g>
   <g id="patch_255">
    <path clip-path="url(#pf2b4b5d91e)" d="M 348.717058 288.430125 
L 349.675769 288.430125 
L 349.675769 132.856956 
L 348.717058 132.856956 
z
" style="fill:#1f77b4;"/>
   </g>
   <g id="patch_256">
    <path clip-path="url(#pf2b4b5d91e)" d="M 349.915447 288.430125 
L 350.874159 288.430125 
L 350.874159 132.856956 
L 349.915447 132.856956 
z
" style="fill:#1f77b4;"/>
   </g>
   <g id="patch_257">
    <path clip-path="url(#pf2b4b5d91e)" d="M 351.113836 288.430125 
L 352.072548 288.430125 
L 352.072548 124.668894 
L 351.113836 124.668894 
z
" style="fill:#1f77b4;"/>
   </g>
   <g id="patch_258">
    <path clip-path="url(#pf2b4b5d91e)" d="M 352.312226 288.430125 
L 353.270937 288.430125 
L 353.270937 120.574863 
L 352.312226 120.574863 
z
" style="fill:#1f77b4;"/>
   </g>
   <g id="patch_259">
    <path clip-path="url(#pf2b4b5d91e)" d="M 353.510615 288.430125 
L 354.469326 288.430125 
L 354.469326 124.668894 
L 353.510615 124.668894 
z
" style="fill:#1f77b4;"/>
   </g>
   <g id="patch_260">
    <path clip-path="url(#pf2b4b5d91e)" d="M 354.709004 288.430125 
L 355.667716 288.430125 
L 355.667716 116.480833 
L 354.709004 116.480833 
z
" style="fill:#1f77b4;"/>
   </g>
   <g id="patch_261">
    <path clip-path="url(#pf2b4b5d91e)" d="M 355.907393 288.430125 
L 356.866105 288.430125 
L 356.866105 141.045017 
L 355.907393 141.045017 
z
" style="fill:#1f77b4;"/>
   </g>
   <g id="patch_262">
    <path clip-path="url(#pf2b4b5d91e)" d="M 357.105783 288.430125 
L 358.064494 288.430125 
L 358.064494 141.045017 
L 357.105783 141.045017 
z
" style="fill:#1f77b4;"/>
   </g>
   <g id="patch_263">
    <path clip-path="url(#pf2b4b5d91e)" d="M 358.304172 288.430125 
L 359.262883 288.430125 
L 359.262883 136.950987 
L 358.304172 136.950987 
z
" style="fill:#1f77b4;"/>
   </g>
   <g id="patch_264">
    <path clip-path="url(#pf2b4b5d91e)" d="M 359.502561 288.430125 
L 360.461273 288.430125 
L 360.461273 149.233079 
L 359.502561 149.233079 
z
" style="fill:#1f77b4;"/>
   </g>
   <g id="patch_265">
    <path clip-path="url(#pf2b4b5d91e)" d="M 360.700951 288.430125 
L 361.659662 288.430125 
L 361.659662 153.32711 
L 360.700951 153.32711 
z
" style="fill:#1f77b4;"/>
   </g>
   <g id="patch_266">
    <path clip-path="url(#pf2b4b5d91e)" d="M 361.89934 288.430125 
L 362.858051 288.430125 
L 362.858051 145.139048 
L 361.89934 145.139048 
z
" style="fill:#1f77b4;"/>
   </g>
   <g id="patch_267">
    <path clip-path="url(#pf2b4b5d91e)" d="M 363.097729 288.430125 
L 364.05644 288.430125 
L 364.05644 157.42114 
L 363.097729 157.42114 
z
" style="fill:#1f77b4;"/>
   </g>
   <g id="patch_268">
    <path clip-path="url(#pf2b4b5d91e)" d="M 364.296118 288.430125 
L 365.25483 288.430125 
L 365.25483 161.515171 
L 364.296118 161.515171 
z
" style="fill:#1f77b4;"/>
   </g>
   <g id="patch_269">
    <path clip-path="url(#pf2b4b5d91e)" d="M 365.494508 288.430125 
L 366.453219 288.430125 
L 366.453219 157.42114 
L 365.494508 157.42114 
z
" style="fill:#1f77b4;"/>
   </g>
   <g id="patch_270">
    <path clip-path="url(#pf2b4b5d91e)" d="M 366.692897 288.430125 
L 367.651608 288.430125 
L 367.651608 153.32711 
L 366.692897 153.32711 
z
" style="fill:#1f77b4;"/>
   </g>
   <g id="patch_271">
    <path clip-path="url(#pf2b4b5d91e)" d="M 367.891286 288.430125 
L 368.849997 288.430125 
L 368.849997 165.609202 
L 367.891286 165.609202 
z
" style="fill:#1f77b4;"/>
   </g>
   <g id="patch_272">
    <path clip-path="url(#pf2b4b5d91e)" d="M 369.089675 288.430125 
L 370.048387 288.430125 
L 370.048387 165.609202 
L 369.089675 165.609202 
z
" style="fill:#1f77b4;"/>
   </g>
   <g id="patch_273">
    <path clip-path="url(#pf2b4b5d91e)" d="M 370.288065 288.430125 
L 371.246776 288.430125 
L 371.246776 161.515171 
L 370.288065 161.515171 
z
" style="fill:#1f77b4;"/>
   </g>
   <g id="patch_274">
    <path clip-path="url(#pf2b4b5d91e)" d="M 371.486454 288.430125 
L 372.445165 288.430125 
L 372.445165 177.891294 
L 371.486454 177.891294 
z
" style="fill:#1f77b4;"/>
   </g>
   <g id="patch_275">
    <path clip-path="url(#pf2b4b5d91e)" d="M 372.684843 288.430125 
L 373.643555 288.430125 
L 373.643555 181.985325 
L 372.684843 181.985325 
z
" style="fill:#1f77b4;"/>
   </g>
   <g id="patch_276">
    <path clip-path="url(#pf2b4b5d91e)" d="M 373.883232 288.430125 
L 374.841944 288.430125 
L 374.841944 181.985325 
L 373.883232 181.985325 
z
" style="fill:#1f77b4;"/>
   </g>
   <g id="patch_277">
    <path clip-path="url(#pf2b4b5d91e)" d="M 375.081622 288.430125 
L 376.040333 288.430125 
L 376.040333 190.173387 
L 375.081622 190.173387 
z
" style="fill:#1f77b4;"/>
   </g>
   <g id="patch_278">
    <path clip-path="url(#pf2b4b5d91e)" d="M 376.280011 288.430125 
L 377.238722 288.430125 
L 377.238722 190.173387 
L 376.280011 190.173387 
z
" style="fill:#1f77b4;"/>
   </g>
   <g id="patch_279">
    <path clip-path="url(#pf2b4b5d91e)" d="M 377.4784 288.430125 
L 378.437112 288.430125 
L 378.437112 198.361448 
L 377.4784 198.361448 
z
" style="fill:#1f77b4;"/>
   </g>
   <g id="patch_280">
    <path clip-path="url(#pf2b4b5d91e)" d="M 378.676789 288.430125 
L 379.635501 288.430125 
L 379.635501 198.361448 
L 378.676789 198.361448 
z
" style="fill:#1f77b4;"/>
   </g>
   <g id="patch_281">
    <path clip-path="url(#pf2b4b5d91e)" d="M 379.875179 288.430125 
L 380.83389 288.430125 
L 380.83389 194.267417 
L 379.875179 194.267417 
z
" style="fill:#1f77b4;"/>
   </g>
   <g id="patch_282">
    <path clip-path="url(#pf2b4b5d91e)" d="M 381.073568 288.430125 
L 382.032279 288.430125 
L 382.032279 194.267417 
L 381.073568 194.267417 
z
" style="fill:#1f77b4;"/>
   </g>
   <g id="patch_283">
    <path clip-path="url(#pf2b4b5d91e)" d="M 382.271957 288.430125 
L 383.230669 288.430125 
L 383.230669 206.54951 
L 382.271957 206.54951 
z
" style="fill:#1f77b4;"/>
   </g>
   <g id="patch_284">
    <path clip-path="url(#pf2b4b5d91e)" d="M 383.470346 288.430125 
L 384.429058 288.430125 
L 384.429058 198.361448 
L 383.470346 198.361448 
z
" style="fill:#1f77b4;"/>
   </g>
   <g id="patch_285">
    <path clip-path="url(#pf2b4b5d91e)" d="M 384.668736 288.430125 
L 385.627447 288.430125 
L 385.627447 194.267417 
L 384.668736 194.267417 
z
" style="fill:#1f77b4;"/>
   </g>
   <g id="patch_286">
    <path clip-path="url(#pf2b4b5d91e)" d="M 385.867125 288.430125 
L 386.825836 288.430125 
L 386.825836 210.64354 
L 385.867125 210.64354 
z
" style="fill:#1f77b4;"/>
   </g>
   <g id="patch_287">
    <path clip-path="url(#pf2b4b5d91e)" d="M 387.065514 288.430125 
L 388.024226 288.430125 
L 388.024226 218.831602 
L 387.065514 218.831602 
z
" style="fill:#1f77b4;"/>
   </g>
   <g id="patch_288">
    <path clip-path="url(#pf2b4b5d91e)" d="M 388.263904 288.430125 
L 389.222615 288.430125 
L 389.222615 210.64354 
L 388.263904 210.64354 
z
" style="fill:#1f77b4;"/>
   </g>
   <g id="patch_289">
    <path clip-path="url(#pf2b4b5d91e)" d="M 389.462293 288.430125 
L 390.421004 288.430125 
L 390.421004 218.831602 
L 389.462293 218.831602 
z
" style="fill:#1f77b4;"/>
   </g>
   <g id="patch_290">
    <path clip-path="url(#pf2b4b5d91e)" d="M 390.660682 288.430125 
L 391.619393 288.430125 
L 391.619393 206.54951 
L 390.660682 206.54951 
z
" style="fill:#1f77b4;"/>
   </g>
   <g id="patch_291">
    <path clip-path="url(#pf2b4b5d91e)" d="M 391.859071 288.430125 
L 392.817783 288.430125 
L 392.817783 206.54951 
L 391.859071 206.54951 
z
" style="fill:#1f77b4;"/>
   </g>
   <g id="patch_292">
    <path clip-path="url(#pf2b4b5d91e)" d="M 393.057461 288.430125 
L 394.016172 288.430125 
L 394.016172 198.361448 
L 393.057461 198.361448 
z
" style="fill:#1f77b4;"/>
   </g>
   <g id="patch_293">
    <path clip-path="url(#pf2b4b5d91e)" d="M 394.25585 288.430125 
L 395.214561 288.430125 
L 395.214561 198.361448 
L 394.25585 198.361448 
z
" style="fill:#1f77b4;"/>
   </g>
   <g id="patch_294">
    <path clip-path="url(#pf2b4b5d91e)" d="M 395.454239 288.430125 
L 396.412951 288.430125 
L 396.412951 181.985325 
L 395.454239 181.985325 
z
" style="fill:#1f77b4;"/>
   </g>
   <g id="patch_295">
    <path clip-path="url(#pf2b4b5d91e)" d="M 396.652628 288.430125 
L 397.61134 288.430125 
L 397.61134 177.891294 
L 396.652628 177.891294 
z
" style="fill:#1f77b4;"/>
   </g>
   <g id="patch_296">
    <path clip-path="url(#pf2b4b5d91e)" d="M 397.851018 288.430125 
L 398.809729 288.430125 
L 398.809729 190.173387 
L 397.851018 190.173387 
z
" style="fill:#1f77b4;"/>
   </g>
   <g id="patch_297">
    <path clip-path="url(#pf2b4b5d91e)" d="M 399.049407 288.430125 
L 400.008118 288.430125 
L 400.008118 190.173387 
L 399.049407 190.173387 
z
" style="fill:#1f77b4;"/>
   </g>
   <g id="patch_298">
    <path clip-path="url(#pf2b4b5d91e)" d="M 400.247796 288.430125 
L 401.206508 288.430125 
L 401.206508 186.079356 
L 400.247796 186.079356 
z
" style="fill:#1f77b4;"/>
   </g>
   <g id="patch_299">
    <path clip-path="url(#pf2b4b5d91e)" d="M 401.446185 288.430125 
L 402.404897 288.430125 
L 402.404897 177.891294 
L 401.446185 177.891294 
z
" style="fill:#1f77b4;"/>
   </g>
   <g id="patch_300">
    <path clip-path="url(#pf2b4b5d91e)" d="M 402.644575 288.430125 
L 403.603286 288.430125 
L 403.603286 194.267417 
L 402.644575 194.267417 
z
" style="fill:#1f77b4;"/>
   </g>
   <g id="matplotlib.axis_1">
    <g id="xtick_1">
     <g id="line2d_1">
      <defs>
       <path d="M 0 0 
L 0 3.5 
" id="m3e24dbb602" style="stroke:#000000;stroke-width:0.8;"/>
      </defs>
      <g>
       <use style="stroke:#000000;stroke-width:0.8;" x="67.574937" xlink:href="#m3e24dbb602" y="288.430125"/>
      </g>
     </g>
     <g id="text_1">
      <!-- 2020-04 -->
      <g transform="translate(70.334312 337.212937)rotate(-90)scale(0.1 -0.1)">
       <defs>
        <path d="M 19.1875 8.296875 
L 53.609375 8.296875 
L 53.609375 0 
L 7.328125 0 
L 7.328125 8.296875 
Q 12.9375 14.109375 22.625 23.890625 
Q 32.328125 33.6875 34.8125 36.53125 
Q 39.546875 41.84375 41.421875 45.53125 
Q 43.3125 49.21875 43.3125 52.78125 
Q 43.3125 58.59375 39.234375 62.25 
Q 35.15625 65.921875 28.609375 65.921875 
Q 23.96875 65.921875 18.8125 64.3125 
Q 13.671875 62.703125 7.8125 59.421875 
L 7.8125 69.390625 
Q 13.765625 71.78125 18.9375 73 
Q 24.125 74.21875 28.421875 74.21875 
Q 39.75 74.21875 46.484375 68.546875 
Q 53.21875 62.890625 53.21875 53.421875 
Q 53.21875 48.921875 51.53125 44.890625 
Q 49.859375 40.875 45.40625 35.40625 
Q 44.1875 33.984375 37.640625 27.21875 
Q 31.109375 20.453125 19.1875 8.296875 
z
" id="DejaVuSans-50"/>
        <path d="M 31.78125 66.40625 
Q 24.171875 66.40625 20.328125 58.90625 
Q 16.5 51.421875 16.5 36.375 
Q 16.5 21.390625 20.328125 13.890625 
Q 24.171875 6.390625 31.78125 6.390625 
Q 39.453125 6.390625 43.28125 13.890625 
Q 47.125 21.390625 47.125 36.375 
Q 47.125 51.421875 43.28125 58.90625 
Q 39.453125 66.40625 31.78125 66.40625 
z
M 31.78125 74.21875 
Q 44.046875 74.21875 50.515625 64.515625 
Q 56.984375 54.828125 56.984375 36.375 
Q 56.984375 17.96875 50.515625 8.265625 
Q 44.046875 -1.421875 31.78125 -1.421875 
Q 19.53125 -1.421875 13.0625 8.265625 
Q 6.59375 17.96875 6.59375 36.375 
Q 6.59375 54.828125 13.0625 64.515625 
Q 19.53125 74.21875 31.78125 74.21875 
z
" id="DejaVuSans-48"/>
        <path d="M 4.890625 31.390625 
L 31.203125 31.390625 
L 31.203125 23.390625 
L 4.890625 23.390625 
z
" id="DejaVuSans-45"/>
        <path d="M 37.796875 64.3125 
L 12.890625 25.390625 
L 37.796875 25.390625 
z
M 35.203125 72.90625 
L 47.609375 72.90625 
L 47.609375 25.390625 
L 58.015625 25.390625 
L 58.015625 17.1875 
L 47.609375 17.1875 
L 47.609375 0 
L 37.796875 0 
L 37.796875 17.1875 
L 4.890625 17.1875 
L 4.890625 26.703125 
z
" id="DejaVuSans-52"/>
       </defs>
       <use xlink:href="#DejaVuSans-50"/>
       <use x="63.623047" xlink:href="#DejaVuSans-48"/>
       <use x="127.246094" xlink:href="#DejaVuSans-50"/>
       <use x="190.869141" xlink:href="#DejaVuSans-48"/>
       <use x="254.492188" xlink:href="#DejaVuSans-45"/>
       <use x="290.576172" xlink:href="#DejaVuSans-48"/>
       <use x="354.199219" xlink:href="#DejaVuSans-52"/>
      </g>
     </g>
    </g>
    <g id="xtick_2">
     <g id="line2d_2">
      <g>
       <use style="stroke:#000000;stroke-width:0.8;" x="103.526615" xlink:href="#m3e24dbb602" y="288.430125"/>
      </g>
     </g>
     <g id="text_2">
      <!-- 2020-05 -->
      <g transform="translate(106.28599 337.212937)rotate(-90)scale(0.1 -0.1)">
       <defs>
        <path d="M 10.796875 72.90625 
L 49.515625 72.90625 
L 49.515625 64.59375 
L 19.828125 64.59375 
L 19.828125 46.734375 
Q 21.96875 47.46875 24.109375 47.828125 
Q 26.265625 48.1875 28.421875 48.1875 
Q 40.625 48.1875 47.75 41.5 
Q 54.890625 34.8125 54.890625 23.390625 
Q 54.890625 11.625 47.5625 5.09375 
Q 40.234375 -1.421875 26.90625 -1.421875 
Q 22.3125 -1.421875 17.546875 -0.640625 
Q 12.796875 0.140625 7.71875 1.703125 
L 7.71875 11.625 
Q 12.109375 9.234375 16.796875 8.0625 
Q 21.484375 6.890625 26.703125 6.890625 
Q 35.15625 6.890625 40.078125 11.328125 
Q 45.015625 15.765625 45.015625 23.390625 
Q 45.015625 31 40.078125 35.4375 
Q 35.15625 39.890625 26.703125 39.890625 
Q 22.75 39.890625 18.8125 39.015625 
Q 14.890625 38.140625 10.796875 36.28125 
z
" id="DejaVuSans-53"/>
       </defs>
       <use xlink:href="#DejaVuSans-50"/>
       <use x="63.623047" xlink:href="#DejaVuSans-48"/>
       <use x="127.246094" xlink:href="#DejaVuSans-50"/>
       <use x="190.869141" xlink:href="#DejaVuSans-48"/>
       <use x="254.492188" xlink:href="#DejaVuSans-45"/>
       <use x="290.576172" xlink:href="#DejaVuSans-48"/>
       <use x="354.199219" xlink:href="#DejaVuSans-53"/>
      </g>
     </g>
    </g>
    <g id="xtick_3">
     <g id="line2d_3">
      <g>
       <use style="stroke:#000000;stroke-width:0.8;" x="140.676682" xlink:href="#m3e24dbb602" y="288.430125"/>
      </g>
     </g>
     <g id="text_3">
      <!-- 2020-06 -->
      <g transform="translate(143.436057 337.212937)rotate(-90)scale(0.1 -0.1)">
       <defs>
        <path d="M 33.015625 40.375 
Q 26.375 40.375 22.484375 35.828125 
Q 18.609375 31.296875 18.609375 23.390625 
Q 18.609375 15.53125 22.484375 10.953125 
Q 26.375 6.390625 33.015625 6.390625 
Q 39.65625 6.390625 43.53125 10.953125 
Q 47.40625 15.53125 47.40625 23.390625 
Q 47.40625 31.296875 43.53125 35.828125 
Q 39.65625 40.375 33.015625 40.375 
z
M 52.59375 71.296875 
L 52.59375 62.3125 
Q 48.875 64.0625 45.09375 64.984375 
Q 41.3125 65.921875 37.59375 65.921875 
Q 27.828125 65.921875 22.671875 59.328125 
Q 17.53125 52.734375 16.796875 39.40625 
Q 19.671875 43.65625 24.015625 45.921875 
Q 28.375 48.1875 33.59375 48.1875 
Q 44.578125 48.1875 50.953125 41.515625 
Q 57.328125 34.859375 57.328125 23.390625 
Q 57.328125 12.15625 50.6875 5.359375 
Q 44.046875 -1.421875 33.015625 -1.421875 
Q 20.359375 -1.421875 13.671875 8.265625 
Q 6.984375 17.96875 6.984375 36.375 
Q 6.984375 53.65625 15.1875 63.9375 
Q 23.390625 74.21875 37.203125 74.21875 
Q 40.921875 74.21875 44.703125 73.484375 
Q 48.484375 72.75 52.59375 71.296875 
z
" id="DejaVuSans-54"/>
       </defs>
       <use xlink:href="#DejaVuSans-50"/>
       <use x="63.623047" xlink:href="#DejaVuSans-48"/>
       <use x="127.246094" xlink:href="#DejaVuSans-50"/>
       <use x="190.869141" xlink:href="#DejaVuSans-48"/>
       <use x="254.492188" xlink:href="#DejaVuSans-45"/>
       <use x="290.576172" xlink:href="#DejaVuSans-48"/>
       <use x="354.199219" xlink:href="#DejaVuSans-54"/>
      </g>
     </g>
    </g>
    <g id="xtick_4">
     <g id="line2d_4">
      <g>
       <use style="stroke:#000000;stroke-width:0.8;" x="176.62836" xlink:href="#m3e24dbb602" y="288.430125"/>
      </g>
     </g>
     <g id="text_4">
      <!-- 2020-07 -->
      <g transform="translate(179.387735 337.212937)rotate(-90)scale(0.1 -0.1)">
       <defs>
        <path d="M 8.203125 72.90625 
L 55.078125 72.90625 
L 55.078125 68.703125 
L 28.609375 0 
L 18.3125 0 
L 43.21875 64.59375 
L 8.203125 64.59375 
z
" id="DejaVuSans-55"/>
       </defs>
       <use xlink:href="#DejaVuSans-50"/>
       <use x="63.623047" xlink:href="#DejaVuSans-48"/>
       <use x="127.246094" xlink:href="#DejaVuSans-50"/>
       <use x="190.869141" xlink:href="#DejaVuSans-48"/>
       <use x="254.492188" xlink:href="#DejaVuSans-45"/>
       <use x="290.576172" xlink:href="#DejaVuSans-48"/>
       <use x="354.199219" xlink:href="#DejaVuSans-55"/>
      </g>
     </g>
    </g>
    <g id="xtick_5">
     <g id="line2d_5">
      <g>
       <use style="stroke:#000000;stroke-width:0.8;" x="213.778427" xlink:href="#m3e24dbb602" y="288.430125"/>
      </g>
     </g>
     <g id="text_5">
      <!-- 2020-08 -->
      <g transform="translate(216.537802 337.212937)rotate(-90)scale(0.1 -0.1)">
       <defs>
        <path d="M 31.78125 34.625 
Q 24.75 34.625 20.71875 30.859375 
Q 16.703125 27.09375 16.703125 20.515625 
Q 16.703125 13.921875 20.71875 10.15625 
Q 24.75 6.390625 31.78125 6.390625 
Q 38.8125 6.390625 42.859375 10.171875 
Q 46.921875 13.96875 46.921875 20.515625 
Q 46.921875 27.09375 42.890625 30.859375 
Q 38.875 34.625 31.78125 34.625 
z
M 21.921875 38.8125 
Q 15.578125 40.375 12.03125 44.71875 
Q 8.5 49.078125 8.5 55.328125 
Q 8.5 64.0625 14.71875 69.140625 
Q 20.953125 74.21875 31.78125 74.21875 
Q 42.671875 74.21875 48.875 69.140625 
Q 55.078125 64.0625 55.078125 55.328125 
Q 55.078125 49.078125 51.53125 44.71875 
Q 48 40.375 41.703125 38.8125 
Q 48.828125 37.15625 52.796875 32.3125 
Q 56.78125 27.484375 56.78125 20.515625 
Q 56.78125 9.90625 50.3125 4.234375 
Q 43.84375 -1.421875 31.78125 -1.421875 
Q 19.734375 -1.421875 13.25 4.234375 
Q 6.78125 9.90625 6.78125 20.515625 
Q 6.78125 27.484375 10.78125 32.3125 
Q 14.796875 37.15625 21.921875 38.8125 
z
M 18.3125 54.390625 
Q 18.3125 48.734375 21.84375 45.5625 
Q 25.390625 42.390625 31.78125 42.390625 
Q 38.140625 42.390625 41.71875 45.5625 
Q 45.3125 48.734375 45.3125 54.390625 
Q 45.3125 60.0625 41.71875 63.234375 
Q 38.140625 66.40625 31.78125 66.40625 
Q 25.390625 66.40625 21.84375 63.234375 
Q 18.3125 60.0625 18.3125 54.390625 
z
" id="DejaVuSans-56"/>
       </defs>
       <use xlink:href="#DejaVuSans-50"/>
       <use x="63.623047" xlink:href="#DejaVuSans-48"/>
       <use x="127.246094" xlink:href="#DejaVuSans-50"/>
       <use x="190.869141" xlink:href="#DejaVuSans-48"/>
       <use x="254.492188" xlink:href="#DejaVuSans-45"/>
       <use x="290.576172" xlink:href="#DejaVuSans-48"/>
       <use x="354.199219" xlink:href="#DejaVuSans-56"/>
      </g>
     </g>
    </g>
    <g id="xtick_6">
     <g id="line2d_6">
      <g>
       <use style="stroke:#000000;stroke-width:0.8;" x="250.928494" xlink:href="#m3e24dbb602" y="288.430125"/>
      </g>
     </g>
     <g id="text_6">
      <!-- 2020-09 -->
      <g transform="translate(253.687869 337.212937)rotate(-90)scale(0.1 -0.1)">
       <defs>
        <path d="M 10.984375 1.515625 
L 10.984375 10.5 
Q 14.703125 8.734375 18.5 7.8125 
Q 22.3125 6.890625 25.984375 6.890625 
Q 35.75 6.890625 40.890625 13.453125 
Q 46.046875 20.015625 46.78125 33.40625 
Q 43.953125 29.203125 39.59375 26.953125 
Q 35.25 24.703125 29.984375 24.703125 
Q 19.046875 24.703125 12.671875 31.3125 
Q 6.296875 37.9375 6.296875 49.421875 
Q 6.296875 60.640625 12.9375 67.421875 
Q 19.578125 74.21875 30.609375 74.21875 
Q 43.265625 74.21875 49.921875 64.515625 
Q 56.59375 54.828125 56.59375 36.375 
Q 56.59375 19.140625 48.40625 8.859375 
Q 40.234375 -1.421875 26.421875 -1.421875 
Q 22.703125 -1.421875 18.890625 -0.6875 
Q 15.09375 0.046875 10.984375 1.515625 
z
M 30.609375 32.421875 
Q 37.25 32.421875 41.125 36.953125 
Q 45.015625 41.5 45.015625 49.421875 
Q 45.015625 57.28125 41.125 61.84375 
Q 37.25 66.40625 30.609375 66.40625 
Q 23.96875 66.40625 20.09375 61.84375 
Q 16.21875 57.28125 16.21875 49.421875 
Q 16.21875 41.5 20.09375 36.953125 
Q 23.96875 32.421875 30.609375 32.421875 
z
" id="DejaVuSans-57"/>
       </defs>
       <use xlink:href="#DejaVuSans-50"/>
       <use x="63.623047" xlink:href="#DejaVuSans-48"/>
       <use x="127.246094" xlink:href="#DejaVuSans-50"/>
       <use x="190.869141" xlink:href="#DejaVuSans-48"/>
       <use x="254.492188" xlink:href="#DejaVuSans-45"/>
       <use x="290.576172" xlink:href="#DejaVuSans-48"/>
       <use x="354.199219" xlink:href="#DejaVuSans-57"/>
      </g>
     </g>
    </g>
    <g id="xtick_7">
     <g id="line2d_7">
      <g>
       <use style="stroke:#000000;stroke-width:0.8;" x="286.880172" xlink:href="#m3e24dbb602" y="288.430125"/>
      </g>
     </g>
     <g id="text_7">
      <!-- 2020-10 -->
      <g transform="translate(289.639547 337.212937)rotate(-90)scale(0.1 -0.1)">
       <defs>
        <path d="M 12.40625 8.296875 
L 28.515625 8.296875 
L 28.515625 63.921875 
L 10.984375 60.40625 
L 10.984375 69.390625 
L 28.421875 72.90625 
L 38.28125 72.90625 
L 38.28125 8.296875 
L 54.390625 8.296875 
L 54.390625 0 
L 12.40625 0 
z
" id="DejaVuSans-49"/>
       </defs>
       <use xlink:href="#DejaVuSans-50"/>
       <use x="63.623047" xlink:href="#DejaVuSans-48"/>
       <use x="127.246094" xlink:href="#DejaVuSans-50"/>
       <use x="190.869141" xlink:href="#DejaVuSans-48"/>
       <use x="254.492188" xlink:href="#DejaVuSans-45"/>
       <use x="290.576172" xlink:href="#DejaVuSans-49"/>
       <use x="354.199219" xlink:href="#DejaVuSans-48"/>
      </g>
     </g>
    </g>
    <g id="xtick_8">
     <g id="line2d_8">
      <g>
       <use style="stroke:#000000;stroke-width:0.8;" x="324.030239" xlink:href="#m3e24dbb602" y="288.430125"/>
      </g>
     </g>
     <g id="text_8">
      <!-- 2020-11 -->
      <g transform="translate(326.789614 337.212937)rotate(-90)scale(0.1 -0.1)">
       <use xlink:href="#DejaVuSans-50"/>
       <use x="63.623047" xlink:href="#DejaVuSans-48"/>
       <use x="127.246094" xlink:href="#DejaVuSans-50"/>
       <use x="190.869141" xlink:href="#DejaVuSans-48"/>
       <use x="254.492188" xlink:href="#DejaVuSans-45"/>
       <use x="290.576172" xlink:href="#DejaVuSans-49"/>
       <use x="354.199219" xlink:href="#DejaVuSans-49"/>
      </g>
     </g>
    </g>
    <g id="xtick_9">
     <g id="line2d_9">
      <g>
       <use style="stroke:#000000;stroke-width:0.8;" x="359.981917" xlink:href="#m3e24dbb602" y="288.430125"/>
      </g>
     </g>
     <g id="text_9">
      <!-- 2020-12 -->
      <g transform="translate(362.741292 337.212937)rotate(-90)scale(0.1 -0.1)">
       <use xlink:href="#DejaVuSans-50"/>
       <use x="63.623047" xlink:href="#DejaVuSans-48"/>
       <use x="127.246094" xlink:href="#DejaVuSans-50"/>
       <use x="190.869141" xlink:href="#DejaVuSans-48"/>
       <use x="254.492188" xlink:href="#DejaVuSans-45"/>
       <use x="290.576172" xlink:href="#DejaVuSans-49"/>
       <use x="354.199219" xlink:href="#DejaVuSans-50"/>
      </g>
     </g>
    </g>
    <g id="xtick_10">
     <g id="line2d_10">
      <g>
       <use style="stroke:#000000;stroke-width:0.8;" x="397.131984" xlink:href="#m3e24dbb602" y="288.430125"/>
      </g>
     </g>
     <g id="text_10">
      <!-- 2021-01 -->
      <g transform="translate(399.891359 337.212937)rotate(-90)scale(0.1 -0.1)">
       <use xlink:href="#DejaVuSans-50"/>
       <use x="63.623047" xlink:href="#DejaVuSans-48"/>
       <use x="127.246094" xlink:href="#DejaVuSans-50"/>
       <use x="190.869141" xlink:href="#DejaVuSans-49"/>
       <use x="254.492188" xlink:href="#DejaVuSans-45"/>
       <use x="290.576172" xlink:href="#DejaVuSans-48"/>
       <use x="354.199219" xlink:href="#DejaVuSans-49"/>
      </g>
     </g>
    </g>
    <g id="text_11">
     <!-- date -->
     <g transform="translate(213.888125 354.811375)scale(0.1 -0.1)">
      <defs>
       <path d="M 45.40625 46.390625 
L 45.40625 75.984375 
L 54.390625 75.984375 
L 54.390625 0 
L 45.40625 0 
L 45.40625 8.203125 
Q 42.578125 3.328125 38.25 0.953125 
Q 33.9375 -1.421875 27.875 -1.421875 
Q 17.96875 -1.421875 11.734375 6.484375 
Q 5.515625 14.40625 5.515625 27.296875 
Q 5.515625 40.1875 11.734375 48.09375 
Q 17.96875 56 27.875 56 
Q 33.9375 56 38.25 53.625 
Q 42.578125 51.265625 45.40625 46.390625 
z
M 14.796875 27.296875 
Q 14.796875 17.390625 18.875 11.75 
Q 22.953125 6.109375 30.078125 6.109375 
Q 37.203125 6.109375 41.296875 11.75 
Q 45.40625 17.390625 45.40625 27.296875 
Q 45.40625 37.203125 41.296875 42.84375 
Q 37.203125 48.484375 30.078125 48.484375 
Q 22.953125 48.484375 18.875 42.84375 
Q 14.796875 37.203125 14.796875 27.296875 
z
" id="DejaVuSans-100"/>
       <path d="M 34.28125 27.484375 
Q 23.390625 27.484375 19.1875 25 
Q 14.984375 22.515625 14.984375 16.5 
Q 14.984375 11.71875 18.140625 8.90625 
Q 21.296875 6.109375 26.703125 6.109375 
Q 34.1875 6.109375 38.703125 11.40625 
Q 43.21875 16.703125 43.21875 25.484375 
L 43.21875 27.484375 
z
M 52.203125 31.203125 
L 52.203125 0 
L 43.21875 0 
L 43.21875 8.296875 
Q 40.140625 3.328125 35.546875 0.953125 
Q 30.953125 -1.421875 24.3125 -1.421875 
Q 15.921875 -1.421875 10.953125 3.296875 
Q 6 8.015625 6 15.921875 
Q 6 25.140625 12.171875 29.828125 
Q 18.359375 34.515625 30.609375 34.515625 
L 43.21875 34.515625 
L 43.21875 35.40625 
Q 43.21875 41.609375 39.140625 45 
Q 35.0625 48.390625 27.6875 48.390625 
Q 23 48.390625 18.546875 47.265625 
Q 14.109375 46.140625 10.015625 43.890625 
L 10.015625 52.203125 
Q 14.9375 54.109375 19.578125 55.046875 
Q 24.21875 56 28.609375 56 
Q 40.484375 56 46.34375 49.84375 
Q 52.203125 43.703125 52.203125 31.203125 
z
" id="DejaVuSans-97"/>
       <path d="M 18.3125 70.21875 
L 18.3125 54.6875 
L 36.8125 54.6875 
L 36.8125 47.703125 
L 18.3125 47.703125 
L 18.3125 18.015625 
Q 18.3125 11.328125 20.140625 9.421875 
Q 21.96875 7.515625 27.59375 7.515625 
L 36.8125 7.515625 
L 36.8125 0 
L 27.59375 0 
Q 17.1875 0 13.234375 3.875 
Q 9.28125 7.765625 9.28125 18.015625 
L 9.28125 47.703125 
L 2.6875 47.703125 
L 2.6875 54.6875 
L 9.28125 54.6875 
L 9.28125 70.21875 
z
" id="DejaVuSans-116"/>
       <path d="M 56.203125 29.59375 
L 56.203125 25.203125 
L 14.890625 25.203125 
Q 15.484375 15.921875 20.484375 11.0625 
Q 25.484375 6.203125 34.421875 6.203125 
Q 39.59375 6.203125 44.453125 7.46875 
Q 49.3125 8.734375 54.109375 11.28125 
L 54.109375 2.78125 
Q 49.265625 0.734375 44.1875 -0.34375 
Q 39.109375 -1.421875 33.890625 -1.421875 
Q 20.796875 -1.421875 13.15625 6.1875 
Q 5.515625 13.8125 5.515625 26.8125 
Q 5.515625 40.234375 12.765625 48.109375 
Q 20.015625 56 32.328125 56 
Q 43.359375 56 49.78125 48.890625 
Q 56.203125 41.796875 56.203125 29.59375 
z
M 47.21875 32.234375 
Q 47.125 39.59375 43.09375 43.984375 
Q 39.0625 48.390625 32.421875 48.390625 
Q 24.90625 48.390625 20.390625 44.140625 
Q 15.875 39.890625 15.1875 32.171875 
z
" id="DejaVuSans-101"/>
      </defs>
      <use xlink:href="#DejaVuSans-100"/>
      <use x="63.476562" xlink:href="#DejaVuSans-97"/>
      <use x="124.755859" xlink:href="#DejaVuSans-116"/>
      <use x="163.964844" xlink:href="#DejaVuSans-101"/>
     </g>
    </g>
   </g>
   <g id="matplotlib.axis_2">
    <g id="ytick_1">
     <g id="line2d_11">
      <defs>
       <path d="M 0 0 
L -3.5 0 
" id="m68f8d83be6" style="stroke:#000000;stroke-width:0.8;"/>
      </defs>
      <g>
       <use style="stroke:#000000;stroke-width:0.8;" x="46.603125" xlink:href="#m68f8d83be6" y="288.430125"/>
      </g>
     </g>
     <g id="text_12">
      <!-- 0 -->
      <g transform="translate(33.240625 292.229344)scale(0.1 -0.1)">
       <use xlink:href="#DejaVuSans-48"/>
      </g>
     </g>
    </g>
    <g id="ytick_2">
     <g id="line2d_12">
      <g>
       <use style="stroke:#000000;stroke-width:0.8;" x="46.603125" xlink:href="#m68f8d83be6" y="251.583848"/>
      </g>
     </g>
     <g id="text_13">
      <!-- 10 -->
      <g transform="translate(26.878125 255.383067)scale(0.1 -0.1)">
       <use xlink:href="#DejaVuSans-49"/>
       <use x="63.623047" xlink:href="#DejaVuSans-48"/>
      </g>
     </g>
    </g>
    <g id="ytick_3">
     <g id="line2d_13">
      <g>
       <use style="stroke:#000000;stroke-width:0.8;" x="46.603125" xlink:href="#m68f8d83be6" y="214.737571"/>
      </g>
     </g>
     <g id="text_14">
      <!-- 20 -->
      <g transform="translate(26.878125 218.53679)scale(0.1 -0.1)">
       <use xlink:href="#DejaVuSans-50"/>
       <use x="63.623047" xlink:href="#DejaVuSans-48"/>
      </g>
     </g>
    </g>
    <g id="ytick_4">
     <g id="line2d_14">
      <g>
       <use style="stroke:#000000;stroke-width:0.8;" x="46.603125" xlink:href="#m68f8d83be6" y="177.891294"/>
      </g>
     </g>
     <g id="text_15">
      <!-- 30 -->
      <g transform="translate(26.878125 181.690513)scale(0.1 -0.1)">
       <defs>
        <path d="M 40.578125 39.3125 
Q 47.65625 37.796875 51.625 33 
Q 55.609375 28.21875 55.609375 21.1875 
Q 55.609375 10.40625 48.1875 4.484375 
Q 40.765625 -1.421875 27.09375 -1.421875 
Q 22.515625 -1.421875 17.65625 -0.515625 
Q 12.796875 0.390625 7.625 2.203125 
L 7.625 11.71875 
Q 11.71875 9.328125 16.59375 8.109375 
Q 21.484375 6.890625 26.8125 6.890625 
Q 36.078125 6.890625 40.9375 10.546875 
Q 45.796875 14.203125 45.796875 21.1875 
Q 45.796875 27.640625 41.28125 31.265625 
Q 36.765625 34.90625 28.71875 34.90625 
L 20.21875 34.90625 
L 20.21875 43.015625 
L 29.109375 43.015625 
Q 36.375 43.015625 40.234375 45.921875 
Q 44.09375 48.828125 44.09375 54.296875 
Q 44.09375 59.90625 40.109375 62.90625 
Q 36.140625 65.921875 28.71875 65.921875 
Q 24.65625 65.921875 20.015625 65.03125 
Q 15.375 64.15625 9.8125 62.3125 
L 9.8125 71.09375 
Q 15.4375 72.65625 20.34375 73.4375 
Q 25.25 74.21875 29.59375 74.21875 
Q 40.828125 74.21875 47.359375 69.109375 
Q 53.90625 64.015625 53.90625 55.328125 
Q 53.90625 49.265625 50.4375 45.09375 
Q 46.96875 40.921875 40.578125 39.3125 
z
" id="DejaVuSans-51"/>
       </defs>
       <use xlink:href="#DejaVuSans-51"/>
       <use x="63.623047" xlink:href="#DejaVuSans-48"/>
      </g>
     </g>
    </g>
    <g id="ytick_5">
     <g id="line2d_15">
      <g>
       <use style="stroke:#000000;stroke-width:0.8;" x="46.603125" xlink:href="#m68f8d83be6" y="141.045017"/>
      </g>
     </g>
     <g id="text_16">
      <!-- 40 -->
      <g transform="translate(26.878125 144.844236)scale(0.1 -0.1)">
       <use xlink:href="#DejaVuSans-52"/>
       <use x="63.623047" xlink:href="#DejaVuSans-48"/>
      </g>
     </g>
    </g>
    <g id="ytick_6">
     <g id="line2d_16">
      <g>
       <use style="stroke:#000000;stroke-width:0.8;" x="46.603125" xlink:href="#m68f8d83be6" y="104.19874"/>
      </g>
     </g>
     <g id="text_17">
      <!-- 50 -->
      <g transform="translate(26.878125 107.997959)scale(0.1 -0.1)">
       <use xlink:href="#DejaVuSans-53"/>
       <use x="63.623047" xlink:href="#DejaVuSans-48"/>
      </g>
     </g>
    </g>
    <g id="ytick_7">
     <g id="line2d_17">
      <g>
       <use style="stroke:#000000;stroke-width:0.8;" x="46.603125" xlink:href="#m68f8d83be6" y="67.352463"/>
      </g>
     </g>
     <g id="text_18">
      <!-- 60 -->
      <g transform="translate(26.878125 71.151682)scale(0.1 -0.1)">
       <use xlink:href="#DejaVuSans-54"/>
       <use x="63.623047" xlink:href="#DejaVuSans-48"/>
      </g>
     </g>
    </g>
    <g id="ytick_8">
     <g id="line2d_18">
      <g>
       <use style="stroke:#000000;stroke-width:0.8;" x="46.603125" xlink:href="#m68f8d83be6" y="30.506187"/>
      </g>
     </g>
     <g id="text_19">
      <!-- 70 -->
      <g transform="translate(26.878125 34.305405)scale(0.1 -0.1)">
       <use xlink:href="#DejaVuSans-55"/>
       <use x="63.623047" xlink:href="#DejaVuSans-48"/>
      </g>
     </g>
    </g>
    <g id="text_20">
     <!-- ICU corona load [%] -->
     <g transform="translate(14.798438 205.149906)rotate(-90)scale(0.1 -0.1)">
      <defs>
       <path d="M 9.8125 72.90625 
L 19.671875 72.90625 
L 19.671875 0 
L 9.8125 0 
z
" id="DejaVuSans-73"/>
       <path d="M 64.40625 67.28125 
L 64.40625 56.890625 
Q 59.421875 61.53125 53.78125 63.8125 
Q 48.140625 66.109375 41.796875 66.109375 
Q 29.296875 66.109375 22.65625 58.46875 
Q 16.015625 50.828125 16.015625 36.375 
Q 16.015625 21.96875 22.65625 14.328125 
Q 29.296875 6.6875 41.796875 6.6875 
Q 48.140625 6.6875 53.78125 8.984375 
Q 59.421875 11.28125 64.40625 15.921875 
L 64.40625 5.609375 
Q 59.234375 2.09375 53.4375 0.328125 
Q 47.65625 -1.421875 41.21875 -1.421875 
Q 24.65625 -1.421875 15.125 8.703125 
Q 5.609375 18.84375 5.609375 36.375 
Q 5.609375 53.953125 15.125 64.078125 
Q 24.65625 74.21875 41.21875 74.21875 
Q 47.75 74.21875 53.53125 72.484375 
Q 59.328125 70.75 64.40625 67.28125 
z
" id="DejaVuSans-67"/>
       <path d="M 8.6875 72.90625 
L 18.609375 72.90625 
L 18.609375 28.609375 
Q 18.609375 16.890625 22.84375 11.734375 
Q 27.09375 6.59375 36.625 6.59375 
Q 46.09375 6.59375 50.34375 11.734375 
Q 54.59375 16.890625 54.59375 28.609375 
L 54.59375 72.90625 
L 64.5 72.90625 
L 64.5 27.390625 
Q 64.5 13.140625 57.4375 5.859375 
Q 50.390625 -1.421875 36.625 -1.421875 
Q 22.796875 -1.421875 15.734375 5.859375 
Q 8.6875 13.140625 8.6875 27.390625 
z
" id="DejaVuSans-85"/>
       <path id="DejaVuSans-32"/>
       <path d="M 48.78125 52.59375 
L 48.78125 44.1875 
Q 44.96875 46.296875 41.140625 47.34375 
Q 37.3125 48.390625 33.40625 48.390625 
Q 24.65625 48.390625 19.8125 42.84375 
Q 14.984375 37.3125 14.984375 27.296875 
Q 14.984375 17.28125 19.8125 11.734375 
Q 24.65625 6.203125 33.40625 6.203125 
Q 37.3125 6.203125 41.140625 7.25 
Q 44.96875 8.296875 48.78125 10.40625 
L 48.78125 2.09375 
Q 45.015625 0.34375 40.984375 -0.53125 
Q 36.96875 -1.421875 32.421875 -1.421875 
Q 20.0625 -1.421875 12.78125 6.34375 
Q 5.515625 14.109375 5.515625 27.296875 
Q 5.515625 40.671875 12.859375 48.328125 
Q 20.21875 56 33.015625 56 
Q 37.15625 56 41.109375 55.140625 
Q 45.0625 54.296875 48.78125 52.59375 
z
" id="DejaVuSans-99"/>
       <path d="M 30.609375 48.390625 
Q 23.390625 48.390625 19.1875 42.75 
Q 14.984375 37.109375 14.984375 27.296875 
Q 14.984375 17.484375 19.15625 11.84375 
Q 23.34375 6.203125 30.609375 6.203125 
Q 37.796875 6.203125 41.984375 11.859375 
Q 46.1875 17.53125 46.1875 27.296875 
Q 46.1875 37.015625 41.984375 42.703125 
Q 37.796875 48.390625 30.609375 48.390625 
z
M 30.609375 56 
Q 42.328125 56 49.015625 48.375 
Q 55.71875 40.765625 55.71875 27.296875 
Q 55.71875 13.875 49.015625 6.21875 
Q 42.328125 -1.421875 30.609375 -1.421875 
Q 18.84375 -1.421875 12.171875 6.21875 
Q 5.515625 13.875 5.515625 27.296875 
Q 5.515625 40.765625 12.171875 48.375 
Q 18.84375 56 30.609375 56 
z
" id="DejaVuSans-111"/>
       <path d="M 41.109375 46.296875 
Q 39.59375 47.171875 37.8125 47.578125 
Q 36.03125 48 33.890625 48 
Q 26.265625 48 22.1875 43.046875 
Q 18.109375 38.09375 18.109375 28.8125 
L 18.109375 0 
L 9.078125 0 
L 9.078125 54.6875 
L 18.109375 54.6875 
L 18.109375 46.1875 
Q 20.953125 51.171875 25.484375 53.578125 
Q 30.03125 56 36.53125 56 
Q 37.453125 56 38.578125 55.875 
Q 39.703125 55.765625 41.0625 55.515625 
z
" id="DejaVuSans-114"/>
       <path d="M 54.890625 33.015625 
L 54.890625 0 
L 45.90625 0 
L 45.90625 32.71875 
Q 45.90625 40.484375 42.875 44.328125 
Q 39.84375 48.1875 33.796875 48.1875 
Q 26.515625 48.1875 22.3125 43.546875 
Q 18.109375 38.921875 18.109375 30.90625 
L 18.109375 0 
L 9.078125 0 
L 9.078125 54.6875 
L 18.109375 54.6875 
L 18.109375 46.1875 
Q 21.34375 51.125 25.703125 53.5625 
Q 30.078125 56 35.796875 56 
Q 45.21875 56 50.046875 50.171875 
Q 54.890625 44.34375 54.890625 33.015625 
z
" id="DejaVuSans-110"/>
       <path d="M 9.421875 75.984375 
L 18.40625 75.984375 
L 18.40625 0 
L 9.421875 0 
z
" id="DejaVuSans-108"/>
       <path d="M 8.59375 75.984375 
L 29.296875 75.984375 
L 29.296875 69 
L 17.578125 69 
L 17.578125 -6.203125 
L 29.296875 -6.203125 
L 29.296875 -13.1875 
L 8.59375 -13.1875 
z
" id="DejaVuSans-91"/>
       <path d="M 72.703125 32.078125 
Q 68.453125 32.078125 66.03125 28.46875 
Q 63.625 24.859375 63.625 18.40625 
Q 63.625 12.0625 66.03125 8.421875 
Q 68.453125 4.78125 72.703125 4.78125 
Q 76.859375 4.78125 79.265625 8.421875 
Q 81.6875 12.0625 81.6875 18.40625 
Q 81.6875 24.8125 79.265625 28.4375 
Q 76.859375 32.078125 72.703125 32.078125 
z
M 72.703125 38.28125 
Q 80.421875 38.28125 84.953125 32.90625 
Q 89.5 27.546875 89.5 18.40625 
Q 89.5 9.28125 84.9375 3.921875 
Q 80.375 -1.421875 72.703125 -1.421875 
Q 64.890625 -1.421875 60.34375 3.921875 
Q 55.8125 9.28125 55.8125 18.40625 
Q 55.8125 27.59375 60.375 32.9375 
Q 64.9375 38.28125 72.703125 38.28125 
z
M 22.3125 68.015625 
Q 18.109375 68.015625 15.6875 64.375 
Q 13.28125 60.75 13.28125 54.390625 
Q 13.28125 47.953125 15.671875 44.328125 
Q 18.0625 40.71875 22.3125 40.71875 
Q 26.5625 40.71875 28.96875 44.328125 
Q 31.390625 47.953125 31.390625 54.390625 
Q 31.390625 60.6875 28.953125 64.34375 
Q 26.515625 68.015625 22.3125 68.015625 
z
M 66.40625 74.21875 
L 74.21875 74.21875 
L 28.609375 -1.421875 
L 20.796875 -1.421875 
z
M 22.3125 74.21875 
Q 30.03125 74.21875 34.609375 68.875 
Q 39.203125 63.53125 39.203125 54.390625 
Q 39.203125 45.171875 34.640625 39.84375 
Q 30.078125 34.515625 22.3125 34.515625 
Q 14.546875 34.515625 10.03125 39.859375 
Q 5.515625 45.21875 5.515625 54.390625 
Q 5.515625 63.484375 10.046875 68.84375 
Q 14.59375 74.21875 22.3125 74.21875 
z
" id="DejaVuSans-37"/>
       <path d="M 30.421875 75.984375 
L 30.421875 -13.1875 
L 9.71875 -13.1875 
L 9.71875 -6.203125 
L 21.390625 -6.203125 
L 21.390625 69 
L 9.71875 69 
L 9.71875 75.984375 
z
" id="DejaVuSans-93"/>
      </defs>
      <use xlink:href="#DejaVuSans-73"/>
      <use x="29.492188" xlink:href="#DejaVuSans-67"/>
      <use x="99.316406" xlink:href="#DejaVuSans-85"/>
      <use x="172.509766" xlink:href="#DejaVuSans-32"/>
      <use x="204.296875" xlink:href="#DejaVuSans-99"/>
      <use x="259.277344" xlink:href="#DejaVuSans-111"/>
      <use x="320.458984" xlink:href="#DejaVuSans-114"/>
      <use x="359.322266" xlink:href="#DejaVuSans-111"/>
      <use x="420.503906" xlink:href="#DejaVuSans-110"/>
      <use x="483.882812" xlink:href="#DejaVuSans-97"/>
      <use x="545.162109" xlink:href="#DejaVuSans-32"/>
      <use x="576.949219" xlink:href="#DejaVuSans-108"/>
      <use x="604.732422" xlink:href="#DejaVuSans-111"/>
      <use x="665.914062" xlink:href="#DejaVuSans-97"/>
      <use x="727.193359" xlink:href="#DejaVuSans-100"/>
      <use x="790.669922" xlink:href="#DejaVuSans-32"/>
      <use x="822.457031" xlink:href="#DejaVuSans-91"/>
      <use x="861.470703" xlink:href="#DejaVuSans-37"/>
      <use x="956.490234" xlink:href="#DejaVuSans-93"/>
     </g>
    </g>
   </g>
   <g id="patch_301">
    <path d="M 46.603125 288.430125 
L 46.603125 22.318125 
" style="fill:none;stroke:#000000;stroke-linecap:square;stroke-linejoin:miter;stroke-width:0.8;"/>
   </g>
   <g id="patch_302">
    <path d="M 46.603125 288.430125 
L 403.723125 288.430125 
" style="fill:none;stroke:#000000;stroke-linecap:square;stroke-linejoin:miter;stroke-width:0.8;"/>
   </g>
   <g id="text_21">
    <!-- South Tyrol -->
    <g transform="translate(191.870625 16.318125)scale(0.12 -0.12)">
     <defs>
      <path d="M 53.515625 70.515625 
L 53.515625 60.890625 
Q 47.90625 63.578125 42.921875 64.890625 
Q 37.9375 66.21875 33.296875 66.21875 
Q 25.25 66.21875 20.875 63.09375 
Q 16.5 59.96875 16.5 54.203125 
Q 16.5 49.359375 19.40625 46.890625 
Q 22.3125 44.4375 30.421875 42.921875 
L 36.375 41.703125 
Q 47.40625 39.59375 52.65625 34.296875 
Q 57.90625 29 57.90625 20.125 
Q 57.90625 9.515625 50.796875 4.046875 
Q 43.703125 -1.421875 29.984375 -1.421875 
Q 24.8125 -1.421875 18.96875 -0.25 
Q 13.140625 0.921875 6.890625 3.21875 
L 6.890625 13.375 
Q 12.890625 10.015625 18.65625 8.296875 
Q 24.421875 6.59375 29.984375 6.59375 
Q 38.421875 6.59375 43.015625 9.90625 
Q 47.609375 13.234375 47.609375 19.390625 
Q 47.609375 24.75 44.3125 27.78125 
Q 41.015625 30.8125 33.5 32.328125 
L 27.484375 33.5 
Q 16.453125 35.6875 11.515625 40.375 
Q 6.59375 45.0625 6.59375 53.421875 
Q 6.59375 63.09375 13.40625 68.65625 
Q 20.21875 74.21875 32.171875 74.21875 
Q 37.3125 74.21875 42.625 73.28125 
Q 47.953125 72.359375 53.515625 70.515625 
z
" id="DejaVuSans-83"/>
      <path d="M 8.5 21.578125 
L 8.5 54.6875 
L 17.484375 54.6875 
L 17.484375 21.921875 
Q 17.484375 14.15625 20.5 10.265625 
Q 23.53125 6.390625 29.59375 6.390625 
Q 36.859375 6.390625 41.078125 11.03125 
Q 45.3125 15.671875 45.3125 23.6875 
L 45.3125 54.6875 
L 54.296875 54.6875 
L 54.296875 0 
L 45.3125 0 
L 45.3125 8.40625 
Q 42.046875 3.421875 37.71875 1 
Q 33.40625 -1.421875 27.6875 -1.421875 
Q 18.265625 -1.421875 13.375 4.4375 
Q 8.5 10.296875 8.5 21.578125 
z
M 31.109375 56 
z
" id="DejaVuSans-117"/>
      <path d="M 54.890625 33.015625 
L 54.890625 0 
L 45.90625 0 
L 45.90625 32.71875 
Q 45.90625 40.484375 42.875 44.328125 
Q 39.84375 48.1875 33.796875 48.1875 
Q 26.515625 48.1875 22.3125 43.546875 
Q 18.109375 38.921875 18.109375 30.90625 
L 18.109375 0 
L 9.078125 0 
L 9.078125 75.984375 
L 18.109375 75.984375 
L 18.109375 46.1875 
Q 21.34375 51.125 25.703125 53.5625 
Q 30.078125 56 35.796875 56 
Q 45.21875 56 50.046875 50.171875 
Q 54.890625 44.34375 54.890625 33.015625 
z
" id="DejaVuSans-104"/>
      <path d="M -0.296875 72.90625 
L 61.375 72.90625 
L 61.375 64.59375 
L 35.5 64.59375 
L 35.5 0 
L 25.59375 0 
L 25.59375 64.59375 
L -0.296875 64.59375 
z
" id="DejaVuSans-84"/>
      <path d="M 32.171875 -5.078125 
Q 28.375 -14.84375 24.75 -17.8125 
Q 21.140625 -20.796875 15.09375 -20.796875 
L 7.90625 -20.796875 
L 7.90625 -13.28125 
L 13.1875 -13.28125 
Q 16.890625 -13.28125 18.9375 -11.515625 
Q 21 -9.765625 23.484375 -3.21875 
L 25.09375 0.875 
L 2.984375 54.6875 
L 12.5 54.6875 
L 29.59375 11.921875 
L 46.6875 54.6875 
L 56.203125 54.6875 
z
" id="DejaVuSans-121"/>
     </defs>
     <use xlink:href="#DejaVuSans-83"/>
     <use x="63.476562" xlink:href="#DejaVuSans-111"/>
     <use x="124.658203" xlink:href="#DejaVuSans-117"/>
     <use x="188.037109" xlink:href="#DejaVuSans-116"/>
     <use x="227.246094" xlink:href="#DejaVuSans-104"/>
     <use x="290.625" xlink:href="#DejaVuSans-32"/>
     <use x="322.412109" xlink:href="#DejaVuSans-84"/>
     <use x="367.871094" xlink:href="#DejaVuSans-121"/>
     <use x="427.050781" xlink:href="#DejaVuSans-114"/>
     <use x="465.914062" xlink:href="#DejaVuSans-111"/>
     <use x="527.095703" xlink:href="#DejaVuSans-108"/>
    </g>
   </g>
  </g>
 </g>
 <defs>
  <clipPath id="pf2b4b5d91e">
   <rect height="266.112" width="357.12" x="46.603125" y="22.318125"/>
  </clipPath>
 </defs>
</svg>
