<?xml version="1.0" encoding="utf-8" standalone="no"?>
<!DOCTYPE svg PUBLIC "-//W3C//DTD SVG 1.1//EN"
  "http://www.w3.org/Graphics/SVG/1.1/DTD/svg11.dtd">
<!-- Created with matplotlib (https://matplotlib.org/) -->
<svg height="276.365436pt" version="1.1" viewBox="0 0 593.528712 276.365436" width="593.528712pt" xmlns="http://www.w3.org/2000/svg" xmlns:xlink="http://www.w3.org/1999/xlink">
 <metadata>
  <rdf:RDF xmlns:cc="http://creativecommons.org/ns#" xmlns:dc="http://purl.org/dc/elements/1.1/" xmlns:rdf="http://www.w3.org/1999/02/22-rdf-syntax-ns#">
   <cc:Work>
    <dc:type rdf:resource="http://purl.org/dc/dcmitype/StillImage"/>
    <dc:format>image/svg+xml</dc:format>
    <dc:creator>
     <cc:Agent>
      <dc:title>Matplotlib v3.3.4, https://matplotlib.org/</dc:title>
     </cc:Agent>
    </dc:creator>
   </cc:Work>
  </rdf:RDF>
 </metadata>
 <defs>
  <style type="text/css">*{stroke-linecap:butt;stroke-linejoin:round;}</style>
 </defs>
 <g id="figure_1">
  <g id="patch_1">
   <path d="M 0 276.365436 
L 593.528712 276.365436 
L 593.528712 0 
L 0 0 
z
" style="fill:#ffffff;"/>
  </g>
  <g id="axes_1">
   <g id="patch_2">
    <path d="M 54.062929 228.96 
L 277.262929 228.96 
L 277.262929 7.2 
L 54.062929 7.2 
z
" style="fill:#ffffff;"/>
   </g>
   <g id="matplotlib.axis_1">
    <g id="xtick_1">
     <g id="line2d_1">
      <defs>
       <path d="M 0 0 
L 0 3.5 
" id="m4a92883578" style="stroke:#000000;stroke-width:0.8;"/>
      </defs>
      <g>
       <use style="stroke:#000000;stroke-width:0.8;" x="63.449844" xlink:href="#m4a92883578" y="228.96"/>
      </g>
     </g>
     <g id="text_1">
      <!-- 2020-10 -->
      <g transform="translate(65.609258 269.165436)rotate(-90)scale(0.1 -0.1)">
       <defs>
        <path d="M 1.59375 2.5 
L 1.59375 0 
C 20.296875 0 20.296875 0 23.90625 0 
C 27.5 0 27.5 0 46.796875 0 
C 46.59375 1.953125 46.59375 2.90625 46.59375 4.203125 
C 46.59375 5.4375 46.59375 6.359375 46.796875 8.421875 
C 35.296875 8.421875 30.703125 8.421875 12.203125 8.421875 
L 30.40625 27.515625 
C 40.09375 37.71875 43.09375 43.171875 43.09375 50.59375 
C 43.09375 61.96875 35.296875 69 22.59375 69 
C 15.40625 69 10.5 67 5.59375 62.015625 
L 3.90625 48.421875 
L 6.796875 48.421875 
L 8.09375 53.015625 
C 9.703125 58.796875 13.296875 61.296875 20 61.296875 
C 28.59375 61.296875 34.09375 55.890625 34.09375 47.421875 
C 34.09375 39.921875 29.90625 32.546875 18.59375 20.5625 
z
" id="URW_Palladio_L_Roman-50"/>
        <path d="M 26.296875 69 
C 10.796875 69 2.90625 56.6875 2.90625 32.453125 
C 2.90625 20.71875 5 10.625 8.5 5.71875 
C 12 0.796875 17.59375 -2 23.796875 -2 
C 38.90625 -2 46.5 11.015625 46.5 36.65625 
C 46.5 58.578125 40 69 26.296875 69 
z
M 24.5 65.5 
C 34.203125 65.5 38.09375 55.6875 38.09375 31.640625 
C 38.09375 10.328125 34.296875 1.5 25.09375 1.5 
C 15.40625 1.5 11.296875 11.625 11.296875 36.0625 
C 11.296875 57.1875 15 65.5 24.5 65.5 
z
" id="URW_Palladio_L_Roman-48"/>
        <path d="M 28.203125 22 
L 31.203125 28.703125 
L 30.703125 29.203125 
L 4.40625 29.203125 
L 1.703125 22.5 
L 2.203125 22 
z
" id="URW_Palladio_L_Roman-45"/>
        <path d="M 6.703125 56 
L 7.703125 56 
L 20.59375 61.8125 
C 20.703125 61.90625 20.796875 61.90625 20.90625 61.90625 
C 21.5 61.90625 21.703125 61.015625 21.703125 58.609375 
L 21.703125 9.578125 
C 21.703125 4.3125 20.59375 3.203125 15.203125 3.203125 
L 9.59375 3.203125 
L 9.59375 0 
C 25 0 25 0 26.09375 0 
C 27.40625 0 29.59375 0 33 0 
C 34.203125 0 37.703125 0 41.796875 0 
L 41.796875 3.203125 
L 36.59375 3.203125 
C 31.09375 3.203125 30.09375 4.3125 30.09375 9.5625 
L 30.09375 69.421875 
L 28.703125 69.921875 
C 22.203125 66.515625 15.09375 63.515625 6 60.3125 
z
" id="URW_Palladio_L_Roman-49"/>
       </defs>
       <use transform="scale(0.996264)" xlink:href="#URW_Palladio_L_Roman-50"/>
       <use transform="translate(49.8132 0)scale(0.996264)" xlink:href="#URW_Palladio_L_Roman-48"/>
       <use transform="translate(99.626401 0)scale(0.996264)" xlink:href="#URW_Palladio_L_Roman-50"/>
       <use transform="translate(149.439601 0)scale(0.996264)" xlink:href="#URW_Palladio_L_Roman-48"/>
       <use transform="translate(199.252802 0)scale(0.996264)" xlink:href="#URW_Palladio_L_Roman-45"/>
       <use transform="translate(232.428032 0)scale(0.996264)" xlink:href="#URW_Palladio_L_Roman-49"/>
       <use transform="translate(282.241232 0)scale(0.996264)" xlink:href="#URW_Palladio_L_Roman-48"/>
      </g>
     </g>
    </g>
    <g id="xtick_2">
     <g id="line2d_2">
      <g>
       <use style="stroke:#000000;stroke-width:0.8;" x="95.782555" xlink:href="#m4a92883578" y="228.96"/>
      </g>
     </g>
     <g id="text_2">
      <!-- 2020-11 -->
      <g transform="translate(97.941968 269.165436)rotate(-90)scale(0.1 -0.1)">
       <use transform="scale(0.996264)" xlink:href="#URW_Palladio_L_Roman-50"/>
       <use transform="translate(49.8132 0)scale(0.996264)" xlink:href="#URW_Palladio_L_Roman-48"/>
       <use transform="translate(99.626401 0)scale(0.996264)" xlink:href="#URW_Palladio_L_Roman-50"/>
       <use transform="translate(149.439601 0)scale(0.996264)" xlink:href="#URW_Palladio_L_Roman-48"/>
       <use transform="translate(199.252802 0)scale(0.996264)" xlink:href="#URW_Palladio_L_Roman-45"/>
       <use transform="translate(232.428032 0)scale(0.996264)" xlink:href="#URW_Palladio_L_Roman-49"/>
       <use transform="translate(282.241232 0)scale(0.996264)" xlink:href="#URW_Palladio_L_Roman-49"/>
      </g>
     </g>
    </g>
    <g id="xtick_3">
     <g id="line2d_3">
      <g>
       <use style="stroke:#000000;stroke-width:0.8;" x="127.072274" xlink:href="#m4a92883578" y="228.96"/>
      </g>
     </g>
     <g id="text_3">
      <!-- 2020-12 -->
      <g transform="translate(129.231688 269.165436)rotate(-90)scale(0.1 -0.1)">
       <use transform="scale(0.996264)" xlink:href="#URW_Palladio_L_Roman-50"/>
       <use transform="translate(49.8132 0)scale(0.996264)" xlink:href="#URW_Palladio_L_Roman-48"/>
       <use transform="translate(99.626401 0)scale(0.996264)" xlink:href="#URW_Palladio_L_Roman-50"/>
       <use transform="translate(149.439601 0)scale(0.996264)" xlink:href="#URW_Palladio_L_Roman-48"/>
       <use transform="translate(199.252802 0)scale(0.996264)" xlink:href="#URW_Palladio_L_Roman-45"/>
       <use transform="translate(232.428032 0)scale(0.996264)" xlink:href="#URW_Palladio_L_Roman-49"/>
       <use transform="translate(282.241232 0)scale(0.996264)" xlink:href="#URW_Palladio_L_Roman-50"/>
      </g>
     </g>
    </g>
    <g id="xtick_4">
     <g id="line2d_4">
      <g>
       <use style="stroke:#000000;stroke-width:0.8;" x="159.404985" xlink:href="#m4a92883578" y="228.96"/>
      </g>
     </g>
     <g id="text_4">
      <!-- 2021-01 -->
      <g transform="translate(161.564398 269.165436)rotate(-90)scale(0.1 -0.1)">
       <use transform="scale(0.996264)" xlink:href="#URW_Palladio_L_Roman-50"/>
       <use transform="translate(49.8132 0)scale(0.996264)" xlink:href="#URW_Palladio_L_Roman-48"/>
       <use transform="translate(99.626401 0)scale(0.996264)" xlink:href="#URW_Palladio_L_Roman-50"/>
       <use transform="translate(149.439601 0)scale(0.996264)" xlink:href="#URW_Palladio_L_Roman-49"/>
       <use transform="translate(199.252802 0)scale(0.996264)" xlink:href="#URW_Palladio_L_Roman-45"/>
       <use transform="translate(232.428032 0)scale(0.996264)" xlink:href="#URW_Palladio_L_Roman-48"/>
       <use transform="translate(282.241232 0)scale(0.996264)" xlink:href="#URW_Palladio_L_Roman-49"/>
      </g>
     </g>
    </g>
    <g id="xtick_5">
     <g id="line2d_5">
      <g>
       <use style="stroke:#000000;stroke-width:0.8;" x="191.737695" xlink:href="#m4a92883578" y="228.96"/>
      </g>
     </g>
     <g id="text_5">
      <!-- 2021-02 -->
      <g transform="translate(193.897108 269.165436)rotate(-90)scale(0.1 -0.1)">
       <use transform="scale(0.996264)" xlink:href="#URW_Palladio_L_Roman-50"/>
       <use transform="translate(49.8132 0)scale(0.996264)" xlink:href="#URW_Palladio_L_Roman-48"/>
       <use transform="translate(99.626401 0)scale(0.996264)" xlink:href="#URW_Palladio_L_Roman-50"/>
       <use transform="translate(149.439601 0)scale(0.996264)" xlink:href="#URW_Palladio_L_Roman-49"/>
       <use transform="translate(199.252802 0)scale(0.996264)" xlink:href="#URW_Palladio_L_Roman-45"/>
       <use transform="translate(232.428032 0)scale(0.996264)" xlink:href="#URW_Palladio_L_Roman-48"/>
       <use transform="translate(282.241232 0)scale(0.996264)" xlink:href="#URW_Palladio_L_Roman-50"/>
      </g>
     </g>
    </g>
    <g id="xtick_6">
     <g id="line2d_6">
      <g>
       <use style="stroke:#000000;stroke-width:0.8;" x="220.941433" xlink:href="#m4a92883578" y="228.96"/>
      </g>
     </g>
     <g id="text_6">
      <!-- 2021-03 -->
      <g transform="translate(223.100846 269.165436)rotate(-90)scale(0.1 -0.1)">
       <defs>
        <path d="M 4.296875 49.953125 
L 7.40625 49.953125 
L 9.203125 55.53125 
C 10.296875 58.90625 16.59375 62.296875 21.796875 62.296875 
C 28.296875 62.296875 33.59375 57.015625 33.59375 50.75 
C 33.59375 43.28125 27.703125 37 20.59375 37 
C 19.796875 37 18.703125 37 17.40625 37.203125 
L 15.90625 37.203125 
L 14.703125 31.984375 
L 15.40625 31.375 
C 19.203125 33.09375 21.09375 33.59375 23.796875 33.59375 
C 32.09375 33.59375 36.90625 28.265625 36.90625 19.09375 
C 36.90625 8.84375 30.796875 2.109375 21.5 2.109375 
C 16.90625 2.109375 12.796875 3.609375 9.796875 6.421875 
C 7.40625 8.640625 6.09375 10.953125 4.203125 16.390625 
L 1.5 15.390625 
C 3.59375 9.265625 4.40625 5.640625 5 0.609375 
C 10.296875 -1.203125 14.703125 -2 18.40625 -2 
C 26.40625 -2 35.59375 2.515625 41.09375 9.265625 
C 44.5 13.390625 46.203125 17.8125 46.203125 22.53125 
C 46.203125 27.359375 44.203125 31.59375 40.59375 34.09375 
C 38.09375 35.90625 35.796875 36.71875 30.796875 37.609375 
C 38.796875 43.796875 41.796875 48.375 41.796875 54.25 
C 41.796875 63.125 34.40625 69 23.296875 69 
C 16.5 69 12 67.109375 7.203125 62.328125 
z
" id="URW_Palladio_L_Roman-51"/>
       </defs>
       <use transform="scale(0.996264)" xlink:href="#URW_Palladio_L_Roman-50"/>
       <use transform="translate(49.8132 0)scale(0.996264)" xlink:href="#URW_Palladio_L_Roman-48"/>
       <use transform="translate(99.626401 0)scale(0.996264)" xlink:href="#URW_Palladio_L_Roman-50"/>
       <use transform="translate(149.439601 0)scale(0.996264)" xlink:href="#URW_Palladio_L_Roman-49"/>
       <use transform="translate(199.252802 0)scale(0.996264)" xlink:href="#URW_Palladio_L_Roman-45"/>
       <use transform="translate(232.428032 0)scale(0.996264)" xlink:href="#URW_Palladio_L_Roman-48"/>
       <use transform="translate(282.241232 0)scale(0.996264)" xlink:href="#URW_Palladio_L_Roman-51"/>
      </g>
     </g>
    </g>
    <g id="xtick_7">
     <g id="line2d_7">
      <g>
       <use style="stroke:#000000;stroke-width:0.8;" x="253.274144" xlink:href="#m4a92883578" y="228.96"/>
      </g>
     </g>
     <g id="text_7">
      <!-- 2021-04 -->
      <g transform="translate(255.433557 269.165436)rotate(-90)scale(0.1 -0.1)">
       <defs>
        <path d="M 28 18 
L 28 10.515625 
C 28 4.515625 26.90625 3.109375 22 3.109375 
L 15.796875 3.109375 
L 15.796875 0 
C 29.09375 0 29.09375 0 31.5 0 
C 33.90625 0 33.90625 0 47.203125 0 
L 47.203125 3.109375 
L 42.40625 3.109375 
C 37.5 3.109375 36.40625 4.40625 36.40625 10.453125 
L 36.40625 18 
C 42.296875 18 44.40625 18 47.203125 17.703125 
L 47.203125 24.8125 
C 42.5 24.421875 40.59375 24.421875 39.09375 24.421875 
L 38.796875 24.421875 
L 36.40625 24.421875 
L 36.40625 38.390625 
C 36.40625 56.25 36.59375 64.875 37.09375 69 
L 35.90625 69.5 
L 28.5 66.796875 
L 0.203125 20.296875 
L 1.296875 18 
z
M 28 24.421875 
L 6.5 24.421875 
L 28 59.78125 
z
" id="URW_Palladio_L_Roman-52"/>
       </defs>
       <use transform="scale(0.996264)" xlink:href="#URW_Palladio_L_Roman-50"/>
       <use transform="translate(49.8132 0)scale(0.996264)" xlink:href="#URW_Palladio_L_Roman-48"/>
       <use transform="translate(99.626401 0)scale(0.996264)" xlink:href="#URW_Palladio_L_Roman-50"/>
       <use transform="translate(149.439601 0)scale(0.996264)" xlink:href="#URW_Palladio_L_Roman-49"/>
       <use transform="translate(199.252802 0)scale(0.996264)" xlink:href="#URW_Palladio_L_Roman-45"/>
       <use transform="translate(232.428032 0)scale(0.996264)" xlink:href="#URW_Palladio_L_Roman-48"/>
       <use transform="translate(282.241232 0)scale(0.996264)" xlink:href="#URW_Palladio_L_Roman-52"/>
      </g>
     </g>
    </g>
   </g>
   <g id="matplotlib.axis_2">
    <g id="ytick_1">
     <g id="line2d_8">
      <defs>
       <path d="M 0 0 
L -3.5 0 
" id="md64c1e1140" style="stroke:#000000;stroke-width:0.8;"/>
      </defs>
      <g>
       <use style="stroke:#000000;stroke-width:0.8;" x="54.062929" xlink:href="#md64c1e1140" y="228.96"/>
      </g>
     </g>
     <g id="text_8">
      <!-- $\mathdefault{0}$ -->
      <g transform="translate(42.081609 232.524119)scale(0.1 -0.1)">
       <use transform="scale(0.996264)" xlink:href="#URW_Palladio_L_Roman-48"/>
      </g>
     </g>
    </g>
    <g id="ytick_2">
     <g id="line2d_9">
      <g>
       <use style="stroke:#000000;stroke-width:0.8;" x="54.062929" xlink:href="#md64c1e1140" y="196.265414"/>
      </g>
     </g>
     <g id="text_9">
      <!-- $\mathdefault{500}$ -->
      <g transform="translate(32.118968 199.829533)scale(0.1 -0.1)">
       <defs>
        <path d="M 12.703125 60.578125 
C 25.59375 60.578125 31.203125 60.578125 43.203125 60.578125 
L 43.703125 61.046875 
C 43.5 62.75 43.5 63.5 43.5 64.75 
C 43.5 66.078125 43.5 66.828125 43.703125 68.53125 
L 43.203125 69 
C 35.703125 69 31.203125 69 25.796875 69 
C 20.296875 69 15.90625 69 8.40625 69 
L 7.90625 68.796875 
C 8 62.671875 8.09375 58.265625 8.09375 55.046875 
C 8.09375 46.515625 7.796875 36.875 7.5 32.453125 
L 9.5 31.84375 
C 14.203125 36.578125 16.90625 38 21.796875 38 
C 31.40625 38 37.40625 31.140625 37.40625 20.25 
C 37.40625 9.0625 31 2.5 20.09375 2.5 
C 14.703125 2.5 9.703125 4.328125 8.296875 6.9375 
L 3.703125 15.203125 
L 1.296875 13.796875 
C 3.59375 8.0625 4.796875 4.84375 6.203125 0.421875 
C 9 -1.109375 13 -2 17.296875 -2 
C 24 -2 31.09375 0.921875 36.59375 5.75 
C 42.703125 11.1875 45.90625 18.03125 45.90625 25.46875 
C 45.90625 36.859375 37.796875 44.90625 26.40625 44.90625 
C 21.59375 44.90625 18 43.609375 11.796875 39.90625 
z
" id="URW_Palladio_L_Roman-53"/>
       </defs>
       <use transform="scale(0.996264)" xlink:href="#URW_Palladio_L_Roman-53"/>
       <use transform="translate(49.8132 0)scale(0.996264)" xlink:href="#URW_Palladio_L_Roman-48"/>
       <use transform="translate(99.626401 0)scale(0.996264)" xlink:href="#URW_Palladio_L_Roman-48"/>
      </g>
     </g>
    </g>
    <g id="ytick_3">
     <g id="line2d_10">
      <g>
       <use style="stroke:#000000;stroke-width:0.8;" x="54.062929" xlink:href="#md64c1e1140" y="163.570828"/>
      </g>
     </g>
     <g id="text_10">
      <!-- $\mathdefault{1000}$ -->
      <g transform="translate(27.137648 167.134947)scale(0.1 -0.1)">
       <use transform="scale(0.996264)" xlink:href="#URW_Palladio_L_Roman-49"/>
       <use transform="translate(49.8132 0)scale(0.996264)" xlink:href="#URW_Palladio_L_Roman-48"/>
       <use transform="translate(99.626401 0)scale(0.996264)" xlink:href="#URW_Palladio_L_Roman-48"/>
       <use transform="translate(149.439601 0)scale(0.996264)" xlink:href="#URW_Palladio_L_Roman-48"/>
      </g>
     </g>
    </g>
    <g id="ytick_4">
     <g id="line2d_11">
      <g>
       <use style="stroke:#000000;stroke-width:0.8;" x="54.062929" xlink:href="#md64c1e1140" y="130.876242"/>
      </g>
     </g>
     <g id="text_11">
      <!-- $\mathdefault{1500}$ -->
      <g transform="translate(27.137648 134.440361)scale(0.1 -0.1)">
       <use transform="scale(0.996264)" xlink:href="#URW_Palladio_L_Roman-49"/>
       <use transform="translate(49.8132 0)scale(0.996264)" xlink:href="#URW_Palladio_L_Roman-53"/>
       <use transform="translate(99.626401 0)scale(0.996264)" xlink:href="#URW_Palladio_L_Roman-48"/>
       <use transform="translate(149.439601 0)scale(0.996264)" xlink:href="#URW_Palladio_L_Roman-48"/>
      </g>
     </g>
    </g>
    <g id="ytick_5">
     <g id="line2d_12">
      <g>
       <use style="stroke:#000000;stroke-width:0.8;" x="54.062929" xlink:href="#md64c1e1140" y="98.181656"/>
      </g>
     </g>
     <g id="text_12">
      <!-- $\mathdefault{2000}$ -->
      <g transform="translate(27.137648 101.745775)scale(0.1 -0.1)">
       <use transform="scale(0.996264)" xlink:href="#URW_Palladio_L_Roman-50"/>
       <use transform="translate(49.8132 0)scale(0.996264)" xlink:href="#URW_Palladio_L_Roman-48"/>
       <use transform="translate(99.626401 0)scale(0.996264)" xlink:href="#URW_Palladio_L_Roman-48"/>
       <use transform="translate(149.439601 0)scale(0.996264)" xlink:href="#URW_Palladio_L_Roman-48"/>
      </g>
     </g>
    </g>
    <g id="ytick_6">
     <g id="line2d_13">
      <g>
       <use style="stroke:#000000;stroke-width:0.8;" x="54.062929" xlink:href="#md64c1e1140" y="65.487071"/>
      </g>
     </g>
     <g id="text_13">
      <!-- $\mathdefault{2500}$ -->
      <g transform="translate(27.137648 69.051189)scale(0.1 -0.1)">
       <use transform="scale(0.996264)" xlink:href="#URW_Palladio_L_Roman-50"/>
       <use transform="translate(49.8132 0)scale(0.996264)" xlink:href="#URW_Palladio_L_Roman-53"/>
       <use transform="translate(99.626401 0)scale(0.996264)" xlink:href="#URW_Palladio_L_Roman-48"/>
       <use transform="translate(149.439601 0)scale(0.996264)" xlink:href="#URW_Palladio_L_Roman-48"/>
      </g>
     </g>
    </g>
    <g id="ytick_7">
     <g id="line2d_14">
      <g>
       <use style="stroke:#000000;stroke-width:0.8;" x="54.062929" xlink:href="#md64c1e1140" y="32.792485"/>
      </g>
     </g>
     <g id="text_14">
      <!-- $\mathdefault{3000}$ -->
      <g transform="translate(27.137648 36.356603)scale(0.1 -0.1)">
       <use transform="scale(0.996264)" xlink:href="#URW_Palladio_L_Roman-51"/>
       <use transform="translate(49.8132 0)scale(0.996264)" xlink:href="#URW_Palladio_L_Roman-48"/>
       <use transform="translate(99.626401 0)scale(0.996264)" xlink:href="#URW_Palladio_L_Roman-48"/>
       <use transform="translate(149.439601 0)scale(0.996264)" xlink:href="#URW_Palladio_L_Roman-48"/>
      </g>
     </g>
    </g>
    <g id="text_15">
     <!-- daily corona fatalities -->
     <g transform="translate(14.328237 165.426856)rotate(-90)scale(0.1 -0.1)">
      <defs>
       <path d="M 41.203125 43.78125 
C 35.59375 46.1875 32.796875 47 29.296875 47 
C 26.59375 47 24.203125 46.390625 21.703125 45.109375 
L 12.90625 40.515625 
C 7.203125 37.515625 3.5 30.234375 3.5 21.75 
C 3.5 13.765625 6.203125 7.1875 11.09375 3.1875 
C 14.5 0.296875 19.203125 -1 25.703125 -1 
C 27.703125 -1 30 -0.59375 30.5 -0.203125 
L 41.59375 9.109375 
L 41.09375 -0.109375 
C 46 -0.109375 47.59375 -0.109375 48.796875 -0.109375 
C 49.59375 -0.109375 51 -0.109375 53.09375 -0.109375 
C 53.796875 -0.109375 55.796875 -0.109375 57.90625 -0.109375 
L 57.90625 3 
L 53.296875 3 
C 49.90625 3 49.59375 3.703125 49.59375 10.046875 
L 49.59375 71.984375 
L 48.703125 72.796875 
C 44.296875 71.09375 41 70.28125 33.09375 69.078125 
L 33.09375 66.28125 
L 38.703125 66.28125 
C 40.5 66.28125 41.203125 65.171875 41.203125 62.15625 
z
M 41.203125 22.25 
C 41.203125 15.765625 41 14.78125 39.703125 12.484375 
C 36.90625 7.796875 32 4.71875 27.296875 4.71875 
C 18.5 4.71875 12.203125 13.1875 12.203125 25.046875 
C 12.203125 35.90625 17.59375 42.28125 26.59375 42.28125 
C 30.40625 42.28125 34.40625 40.984375 37.90625 38.59375 
C 40 37.203125 41.203125 35.90625 41.203125 35.09375 
z
" id="URW_Palladio_L_Roman-100"/>
       <path d="M 32.40625 8.40625 
L 31.90625 -0.015625 
C 38.40625 -0.015625 38.40625 -0.015625 39.703125 -0.015625 
C 40.203125 -0.015625 42.703125 -0.015625 47.09375 -0.015625 
L 47.09375 3 
L 43.203125 3 
C 40.796875 3 40.40625 3.8125 40.40625 8.71875 
L 40.40625 27.046875 
C 40.40625 41.6875 36.203125 47 24.59375 47 
C 20.296875 47 16.296875 45.890625 12.5 43.609375 
L 7.203125 40.390625 
L 7.203125 33.921875 
L 9.796875 33.21875 
L 11.09375 36.296875 
C 13.203125 40.984375 14.203125 41.6875 18.796875 41.6875 
C 28.203125 41.6875 32.09375 37.984375 32.40625 28.9375 
L 22.5 27.125 
C 8.90625 24.640625 3.203125 19.953125 3.203125 11.28125 
C 3.203125 3.5 7.90625 -1 15.796875 -1 
C 17.59375 -1 19.296875 -0.703125 20 -0.203125 
z
M 32.40625 12.59375 
C 29.5 8.5 23.203125 4.71875 19.296875 4.71875 
C 15.296875 4.71875 11.796875 8.40625 11.796875 12.6875 
C 11.796875 16.375 13.796875 19.859375 16.796875 21.75 
C 19.296875 23.25 24.796875 24.640625 32.40625 25.75 
z
" id="URW_Palladio_L_Roman-97"/>
       <path d="M 18.796875 46.765625 
L 17.90625 47.171875 
C 12.796875 45.0625 7.59375 43.640625 2.296875 43.046875 
L 2.296875 40.25 
L 6 40.25 
C 10 40.25 10.40625 39.546875 10.40625 32.890625 
L 10.40625 10.171875 
C 10.40625 3.8125 10.09375 3.109375 6.703125 3.109375 
L 2.09375 3.109375 
L 2.09375 0 
C 12.09375 0 12.09375 0 14.59375 0 
C 17.09375 0 17.09375 0 27.09375 0 
L 27.09375 3.109375 
L 22.5 3.109375 
C 19.09375 3.109375 18.796875 3.8125 18.796875 10.171875 
z
M 14.203125 69 
C 11.203125 69 8.59375 66.390625 8.59375 63.375 
C 8.59375 60.46875 11.203125 57.875 14.09375 57.875 
C 17 57.875 19.703125 60.46875 19.703125 63.375 
C 19.703125 66.1875 17 69 14.203125 69 
z
" id="URW_Palladio_L_Roman-105"/>
       <path d="M 2.296875 66.5 
L 7.90625 66.5 
C 9.703125 66.5 10.40625 65.390625 10.40625 62.375 
L 10.40625 10.171875 
C 10.40625 3.8125 10.09375 3.109375 6.703125 3.109375 
L 2.09375 3.109375 
L 2.09375 0 
C 12.09375 0 12.09375 0 14.59375 0 
C 17.09375 0 17.09375 0 27.09375 0 
L 27.09375 3.109375 
L 22.5 3.109375 
C 19.09375 3.109375 18.796875 3.8125 18.796875 10.15625 
L 18.796875 72.203125 
L 17.90625 73.015625 
C 13.5 71.3125 10.203125 70.5 2.296875 69.296875 
z
" id="URW_Palladio_L_Roman-108"/>
       <path d="M 29.703125 8.8125 
C 27.5 12.625 26.40625 14.9375 24.59375 19.84375 
L 18.203125 36.671875 
C 17.59375 38.375 17.203125 39.875 17.203125 40.90625 
C 17.203125 42.34375 18.296875 43.1875 20.59375 43.1875 
L 24.40625 43.1875 
L 24.40625 46 
C 14.703125 46 14.703125 46 12.796875 46 
C 10.90625 46 10.90625 46 1.203125 46 
L 1.203125 43.390625 
L 3 43.1875 
C 5.5 42.890625 6.703125 41.78125 8.203125 38.296875 
L 19.09375 12.109375 
C 21.90625 5.3125 22.90625 2.90625 24.703125 -2.09375 
L 22.40625 -8.1875 
C 19.203125 -16.59375 15.296875 -21.28125 11.5 -21.28125 
C 9.90625 -21.28125 8.09375 -20.484375 6.40625 -18.984375 
L 5.09375 -18.984375 
L 2.703125 -26.5 
C 4.59375 -27.5 6.203125 -28 8.09375 -28 
C 14.796875 -28 19.09375 -24.40625 22.90625 -15.703125 
L 43.203125 31.09375 
C 47.203125 40.1875 49.09375 42.890625 51.59375 43.1875 
L 54.40625 43.390625 
L 54.40625 46 
C 46.5 46 46.5 46 44.90625 46 
C 43.296875 46 43.296875 46 35.40625 46 
L 35.40625 43.390625 
L 38 43.1875 
C 40.796875 42.984375 42.203125 42.09375 42.203125 40.6875 
C 42.203125 39.984375 42 39.078125 41.59375 38.078125 
z
" id="URW_Palladio_L_Roman-121"/>
       <path d="M 39.90625 31.15625 
C 39.90625 35.765625 40.40625 39.875 41.296875 43.484375 
C 37.296875 45.890625 33.796875 47 29.703125 47 
C 24.90625 47 19.296875 45.09375 13.296875 41.28125 
C 6.296875 36.875 2.59375 29.859375 2.59375 21.046875 
C 2.59375 7.515625 12.09375 -2 25.5 -2 
C 30.703125 -2 38.203125 -0.09375 39.203125 1.40625 
L 41.296875 4.609375 
L 40.296875 6.109375 
C 36.59375 4.109375 33.40625 3.203125 29.796875 3.203125 
C 18.703125 3.203125 11.40625 11.828125 11.40625 25.046875 
C 11.40625 35.765625 16.40625 41.78125 25.40625 41.78125 
C 29.796875 41.78125 34.59375 39.78125 36.40625 37.28125 
L 37.09375 31.15625 
z
" id="URW_Palladio_L_Roman-99"/>
       <path d="M 27.90625 47 
C 13.296875 47 3.203125 36.671875 3.203125 21.75 
C 3.203125 7.609375 12.09375 -2 25 -2 
C 40.40625 -2 51.40625 8.71875 51.40625 23.75 
C 51.40625 37.28125 41.59375 47 27.90625 47 
z
M 26.09375 43.6875 
C 35.296875 43.6875 42.09375 33.671875 42.09375 20.046875 
C 42.09375 8.515625 37 1.296875 28.90625 1.296875 
C 19.09375 1.296875 12.5 10.921875 12.5 25.15625 
C 12.5 37.171875 17.296875 43.6875 26.09375 43.6875 
z
" id="URW_Palladio_L_Roman-111"/>
       <path d="M 2.296875 40.078125 
L 6 40.078125 
C 10 40.078125 10.40625 39.375 10.40625 32.71875 
L 10.40625 10.046875 
C 10.40625 3.703125 10.09375 3 6.703125 3 
L 2.09375 3 
L 2.09375 -0.109375 
C 9.296875 -0.109375 11.90625 -0.109375 14.40625 -0.109375 
C 16.40625 -0.109375 16.40625 -0.109375 28.703125 -0.109375 
L 28.703125 3 
L 23.5 3 
C 19 3 18.796875 3.296875 18.796875 9.96875 
L 18.796875 27.359375 
C 18.796875 33.421875 22.796875 38.484375 27.703125 38.484375 
C 30.703125 38.484375 32.796875 37.078125 34.40625 33.890625 
L 36.5 33.890625 
L 37.40625 45.890625 
C 36.296875 46.59375 34.5 47 32.703125 47 
C 29.703125 47 26.5 45.390625 24.40625 42.890625 
L 18.796875 36.28125 
L 18.796875 46.59375 
L 17.90625 47 
C 12.796875 44.890625 7.59375 43.484375 2.296875 42.890625 
z
" id="URW_Palladio_L_Roman-114"/>
       <path d="M 41 -0.109375 
C 47.09375 -0.109375 47.203125 -0.109375 48.90625 -0.109375 
C 50.296875 -0.109375 50.296875 -0.109375 57.203125 -0.109375 
L 57.203125 2.796875 
L 53.09375 3.203125 
C 49.703125 3.203125 49.40625 3.8125 49.40625 10.21875 
L 49.40625 29.5625 
C 49.40625 41.28125 43.90625 47 32.703125 47 
C 29 47 26.90625 46.296875 24.796875 44.484375 
L 17.203125 37.875 
L 17.203125 46.59375 
L 16.296875 47 
C 11.203125 44.890625 6 43.484375 0.703125 42.890625 
L 0.703125 40.078125 
L 4.40625 40.078125 
C 8.40625 40.078125 8.796875 39.375 8.796875 32.71875 
L 8.796875 10.046875 
C 8.796875 3.703125 8.5 3 5.09375 3 
L 0.59375 3 
L 0.59375 -0.109375 
C 7.40625 -0.109375 10.09375 -0.109375 13 -0.109375 
C 15.90625 -0.109375 18.59375 -0.109375 25.40625 -0.109375 
L 25.40625 3 
L 20.90625 3 
C 17.5 3 17.203125 3.703125 17.203125 10.046875 
L 17.203125 31.421875 
C 17.203125 35.9375 23.796875 40.875 29.90625 40.875 
C 36.59375 40.875 41 35.890625 41 28.21875 
z
" id="URW_Palladio_L_Roman-110"/>
       <path d="M 34.09375 71.890625 
C 32 72.6875 30.796875 73 29.5 73 
C 26.296875 73 22.796875 71.296875 20.59375 68.8125 
L 14.796875 62.265625 
C 11.90625 58.984375 10.59375 54.53125 10.59375 47.96875 
L 10.59375 43.796875 
L 3.703125 40.6875 
L 3.703125 38.6875 
L 10.59375 38.6875 
L 10.59375 10.171875 
C 10.59375 3.8125 10.296875 3.109375 6.90625 3.109375 
L 2.296875 3.109375 
L 2.296875 0 
C 12.296875 0 12.296875 0 14.796875 0 
C 17.296875 0 17.296875 0 27.296875 0 
L 27.296875 3.109375 
L 22.703125 3.109375 
C 19.296875 3.109375 19 3.828125 19 10.203125 
L 19 38.890625 
L 31.40625 38.890625 
L 32.09375 44 
L 19 44 
L 19 52.34375 
C 19 63.640625 20.296875 66.375 26 66.375 
C 28.703125 66.375 30.5 65.6875 32.90625 63.609375 
L 34.09375 64.203125 
z
" id="URW_Palladio_L_Roman-102"/>
       <path d="M 9.796875 38.6875 
L 9.796875 9.671875 
C 9.796875 2.21875 13.09375 -1 20.796875 -1 
C 23.09375 -1 25.5 -0.5 26.09375 0.203125 
L 30.90625 5.515625 
L 29.59375 7.234375 
C 27.09375 5.8125 25.59375 5.3125 23.703125 5.3125 
C 19.796875 5.3125 18.203125 7.34375 18.203125 12.3125 
L 18.203125 38.890625 
L 31 38.890625 
L 31.90625 44 
L 18.203125 44 
L 18.203125 47.75 
C 18.203125 51.890625 18.5 55.421875 19.296875 61.734375 
L 18.09375 62.828125 
C 15.703125 61.328125 12.703125 60.03125 9.59375 59.03125 
C 9.90625 56.015625 10 54.109375 10 51.109375 
L 10 44.09375 
L 2.203125 40.59375 
L 2.203125 38.6875 
z
" id="URW_Palladio_L_Roman-116"/>
       <path d="M 43.703125 6.984375 
L 42.40625 7.984375 
C 36 4.203125 33.703125 3.3125 29.40625 3.3125 
C 22.90625 3.3125 17.5 6.21875 14.703125 11.109375 
C 12.796875 14.390625 12.09375 17.203125 11.90625 23 
L 26.5 23 
C 33.40625 23 37.703125 23 44.59375 24.125 
C 44.703125 25.53125 44.796875 26.453125 44.796875 27.671875 
C 44.796875 39.375 37.40625 47 26.203125 47 
C 22.5 47 18.203125 45.6875 14.09375 43.28125 
C 5.90625 38.578125 2.59375 32.359375 2.59375 21.9375 
C 2.59375 15.625 4.09375 10.21875 6.796875 6.40625 
C 10.796875 1.109375 17.5 -2 25 -2 
C 28.703125 -2 32.40625 -1.203125 36.5 0.578125 
C 39.203125 1.6875 41.296875 2.984375 41.703125 3.59375 
z
M 35.90625 26.40625 
C 30.703125 26.40625 28.296875 26.40625 24.703125 26.40625 
C 20.09375 26.40625 17.5 26.40625 12.09375 26.90625 
C 12.09375 31.671875 12.5 33.890625 13.796875 36.515625 
C 15.90625 40.96875 20.203125 43.6875 25 43.6875 
C 28.296875 43.6875 30.90625 42.359375 32.703125 39.59375 
C 34.90625 36.234375 35.59375 33.265625 35.90625 26.40625 
z
" id="URW_Palladio_L_Roman-101"/>
       <path d="M 4.09375 14.328125 
C 4.09375 7.421875 3.796875 4.40625 3 0.40625 
C 8.203125 -1.296875 12.09375 -2 16.703125 -2 
C 29.796875 -2 39.09375 5.015625 39.09375 14.828125 
C 39.09375 17.9375 38.203125 20.234375 36.296875 22.25 
C 33.703125 24.75 30.40625 25.953125 21.59375 27.65625 
C 13.40625 29.265625 10.703125 31.265625 10.703125 35.875 
C 10.703125 40.875 14.203125 43.6875 20.296875 43.6875 
C 27 43.6875 32.09375 40.1875 32.09375 35.46875 
L 32.09375 33.171875 
L 34.90625 33.171875 
C 35 38.984375 35.09375 41.375 35.40625 44.484375 
C 30.09375 46.296875 26.5 47 22.40625 47 
C 10.796875 47 3.703125 41.484375 3.703125 32.46875 
C 3.703125 27.65625 5.90625 24.25 10.5 22.140625 
C 13.203125 20.9375 18.5 19.34375 25.296875 17.828125 
C 29.796875 16.828125 31.703125 14.734375 31.703125 10.921875 
C 31.703125 5.515625 26.703125 1.703125 19.59375 1.703125 
C 12.296875 1.703125 7.09375 5.203125 7.09375 10.21875 
L 7.09375 14.328125 
z
" id="URW_Palladio_L_Roman-115"/>
      </defs>
      <use transform="scale(0.996264)" xlink:href="#URW_Palladio_L_Roman-100"/>
      <use transform="translate(60.871631 0)scale(0.996264)" xlink:href="#URW_Palladio_L_Roman-97"/>
      <use transform="translate(110.684831 0)scale(0.996264)" xlink:href="#URW_Palladio_L_Roman-105"/>
      <use transform="translate(139.675193 0)scale(0.996264)" xlink:href="#URW_Palladio_L_Roman-108"/>
      <use transform="translate(168.665554 0)scale(0.996264)" xlink:href="#URW_Palladio_L_Roman-121"/>
      <use transform="translate(248.963831 0)scale(0.996264)" xlink:href="#URW_Palladio_L_Roman-99"/>
      <use transform="translate(293.1974 0)scale(0.996264)" xlink:href="#URW_Palladio_L_Roman-111"/>
      <use transform="translate(347.59298 0)scale(0.996264)" xlink:href="#URW_Palladio_L_Roman-114"/>
      <use transform="translate(385.152298 0)scale(0.996264)" xlink:href="#URW_Palladio_L_Roman-111"/>
      <use transform="translate(439.547878 0)scale(0.996264)" xlink:href="#URW_Palladio_L_Roman-110"/>
      <use transform="translate(497.529938 0)scale(0.996264)" xlink:href="#URW_Palladio_L_Roman-97"/>
      <use transform="translate(572.249739 0)scale(0.996264)" xlink:href="#URW_Palladio_L_Roman-102"/>
      <use transform="translate(605.424969 0)scale(0.996264)" xlink:href="#URW_Palladio_L_Roman-97"/>
      <use transform="translate(655.238169 0)scale(0.996264)" xlink:href="#URW_Palladio_L_Roman-116"/>
      <use transform="translate(687.715257 0)scale(0.996264)" xlink:href="#URW_Palladio_L_Roman-97"/>
      <use transform="translate(737.528458 0)scale(0.996264)" xlink:href="#URW_Palladio_L_Roman-108"/>
      <use transform="translate(766.518819 0)scale(0.996264)" xlink:href="#URW_Palladio_L_Roman-105"/>
      <use transform="translate(795.509181 0)scale(0.996264)" xlink:href="#URW_Palladio_L_Roman-116"/>
      <use transform="translate(827.986269 0)scale(0.996264)" xlink:href="#URW_Palladio_L_Roman-105"/>
      <use transform="translate(856.97663 0)scale(0.996264)" xlink:href="#URW_Palladio_L_Roman-101"/>
      <use transform="translate(904.696925 0)scale(0.996264)" xlink:href="#URW_Palladio_L_Roman-115"/>
     </g>
    </g>
   </g>
   <g id="line2d_15">
    <defs>
     <path d="M -3 0 
L 3 0 
M 0 3 
L 0 -3 
" id="mdf0d21ca66" style="stroke:#000000;"/>
    </defs>
    <g>
     <use style="stroke:#000000;" x="68.664798" xlink:href="#mdf0d21ca66" y="228.96"/>
     <use style="stroke:#000000;" x="69.707788" xlink:href="#mdf0d21ca66" y="226.932936"/>
     <use style="stroke:#000000;" x="70.750779" xlink:href="#mdf0d21ca66" y="227.521438"/>
     <use style="stroke:#000000;" x="71.79377" xlink:href="#mdf0d21ca66" y="227.129103"/>
     <use style="stroke:#000000;" x="72.83676" xlink:href="#mdf0d21ca66" y="227.063714"/>
     <use style="stroke:#000000;" x="73.879751" xlink:href="#mdf0d21ca66" y="227.259882"/>
     <use style="stroke:#000000;" x="74.922742" xlink:href="#mdf0d21ca66" y="226.409822"/>
     <use style="stroke:#000000;" x="75.965732" xlink:href="#mdf0d21ca66" y="226.279044"/>
     <use style="stroke:#000000;" x="77.008723" xlink:href="#mdf0d21ca66" y="226.148266"/>
     <use style="stroke:#000000;" x="78.051714" xlink:href="#mdf0d21ca66" y="223.532699"/>
     <use style="stroke:#000000;" x="79.094704" xlink:href="#mdf0d21ca66" y="225.363596"/>
     <use style="stroke:#000000;" x="80.137695" xlink:href="#mdf0d21ca66" y="225.886709"/>
     <use style="stroke:#000000;" x="81.180686" xlink:href="#mdf0d21ca66" y="224.448147"/>
     <use style="stroke:#000000;" x="82.223676" xlink:href="#mdf0d21ca66" y="224.18659"/>
     <use style="stroke:#000000;" x="83.266667" xlink:href="#mdf0d21ca66" y="223.140364"/>
     <use style="stroke:#000000;" x="84.309658" xlink:href="#mdf0d21ca66" y="220.655575"/>
     <use style="stroke:#000000;" x="85.352648" xlink:href="#mdf0d21ca66" y="220.067073"/>
     <use style="stroke:#000000;" x="86.395639" xlink:href="#mdf0d21ca66" y="223.009585"/>
     <use style="stroke:#000000;" x="87.43863" xlink:href="#mdf0d21ca66" y="219.086235"/>
     <use style="stroke:#000000;" x="88.48162" xlink:href="#mdf0d21ca66" y="220.590186"/>
     <use style="stroke:#000000;" x="89.524611" xlink:href="#mdf0d21ca66" y="219.740127"/>
     <use style="stroke:#000000;" x="90.567601" xlink:href="#mdf0d21ca66" y="214.508993"/>
     <use style="stroke:#000000;" x="91.610592" xlink:href="#mdf0d21ca66" y="215.55522"/>
     <use style="stroke:#000000;" x="92.653583" xlink:href="#mdf0d21ca66" y="214.77055"/>
     <use style="stroke:#000000;" x="93.696573" xlink:href="#mdf0d21ca66" y="215.947555"/>
     <use style="stroke:#000000;" x="94.739564" xlink:href="#mdf0d21ca66" y="209.539416"/>
     <use style="stroke:#000000;" x="95.782555" xlink:href="#mdf0d21ca66" y="215.359052"/>
     <use style="stroke:#000000;" x="96.825545" xlink:href="#mdf0d21ca66" y="213.724323"/>
     <use style="stroke:#000000;" x="97.868536" xlink:href="#mdf0d21ca66" y="205.877622"/>
     <use style="stroke:#000000;" x="98.911527" xlink:href="#mdf0d21ca66" y="207.054627"/>
     <use style="stroke:#000000;" x="99.954517" xlink:href="#mdf0d21ca66" y="199.861819"/>
     <use style="stroke:#000000;" x="100.997508" xlink:href="#mdf0d21ca66" y="199.796429"/>
     <use style="stroke:#000000;" x="102.040499" xlink:href="#mdf0d21ca66" y="201.169602"/>
     <use style="stroke:#000000;" x="103.083489" xlink:href="#mdf0d21ca66" y="207.316184"/>
     <use style="stroke:#000000;" x="104.12648" xlink:href="#mdf0d21ca66" y="205.681455"/>
     <use style="stroke:#000000;" x="105.169471" xlink:href="#mdf0d21ca66" y="191.03428"/>
     <use style="stroke:#000000;" x="106.212461" xlink:href="#mdf0d21ca66" y="188.222546"/>
     <use style="stroke:#000000;" x="107.255452" xlink:href="#mdf0d21ca66" y="187.372487"/>
     <use style="stroke:#000000;" x="108.298443" xlink:href="#mdf0d21ca66" y="192.995956"/>
     <use style="stroke:#000000;" x="109.341433" xlink:href="#mdf0d21ca66" y="193.388291"/>
     <use style="stroke:#000000;" x="110.384424" xlink:href="#mdf0d21ca66" y="193.257512"/>
     <use style="stroke:#000000;" x="111.427415" xlink:href="#mdf0d21ca66" y="196.003857"/>
     <use style="stroke:#000000;" x="112.470405" xlink:href="#mdf0d21ca66" y="181.160515"/>
     <use style="stroke:#000000;" x="113.513396" xlink:href="#mdf0d21ca66" y="179.721954"/>
     <use style="stroke:#000000;" x="114.556387" xlink:href="#mdf0d21ca66" y="186.260871"/>
     <use style="stroke:#000000;" x="115.599377" xlink:href="#mdf0d21ca66" y="183.252969"/>
     <use style="stroke:#000000;" x="116.642368" xlink:href="#mdf0d21ca66" y="183.710693"/>
     <use style="stroke:#000000;" x="117.685358" xlink:href="#mdf0d21ca66" y="192.211285"/>
     <use style="stroke:#000000;" x="118.728349" xlink:href="#mdf0d21ca66" y="187.764822"/>
     <use style="stroke:#000000;" x="119.77134" xlink:href="#mdf0d21ca66" y="173.183036"/>
     <use style="stroke:#000000;" x="120.81433" xlink:href="#mdf0d21ca66" y="181.749018"/>
     <use style="stroke:#000000;" x="121.857321" xlink:href="#mdf0d21ca66" y="175.210101"/>
     <use style="stroke:#000000;" x="122.900312" xlink:href="#mdf0d21ca66" y="174.883155"/>
     <use style="stroke:#000000;" x="123.943302" xlink:href="#mdf0d21ca66" y="184.103028"/>
     <use style="stroke:#000000;" x="124.986293" xlink:href="#mdf0d21ca66" y="193.584458"/>
     <use style="stroke:#000000;" x="126.029284" xlink:href="#mdf0d21ca66" y="185.018477"/>
     <use style="stroke:#000000;" x="127.072274" xlink:href="#mdf0d21ca66" y="177.6295"/>
     <use style="stroke:#000000;" x="128.115265" xlink:href="#mdf0d21ca66" y="184.233807"/>
     <use style="stroke:#000000;" x="129.158256" xlink:href="#mdf0d21ca66" y="164.028552"/>
     <use style="stroke:#000000;" x="130.201246" xlink:href="#mdf0d21ca66" y="175.733214"/>
     <use style="stroke:#000000;" x="131.244237" xlink:href="#mdf0d21ca66" y="185.672368"/>
     <use style="stroke:#000000;" x="132.287228" xlink:href="#mdf0d21ca66" y="192.080507"/>
     <use style="stroke:#000000;" x="133.330218" xlink:href="#mdf0d21ca66" y="194.434517"/>
     <use style="stroke:#000000;" x="134.373209" xlink:href="#mdf0d21ca66" y="187.503265"/>
     <use style="stroke:#000000;" x="135.4162" xlink:href="#mdf0d21ca66" y="196.330803"/>
     <use style="stroke:#000000;" x="136.45919" xlink:href="#mdf0d21ca66" y="170.959805"/>
     <use style="stroke:#000000;" x="137.502181" xlink:href="#mdf0d21ca66" y="179.19884"/>
     <use style="stroke:#000000;" x="138.545172" xlink:href="#mdf0d21ca66" y="186.522428"/>
     <use style="stroke:#000000;" x="139.588162" xlink:href="#mdf0d21ca66" y="197.311641"/>
     <use style="stroke:#000000;" x="140.631153" xlink:href="#mdf0d21ca66" y="196.853917"/>
     <use style="stroke:#000000;" x="141.674144" xlink:href="#mdf0d21ca66" y="173.640761"/>
     <use style="stroke:#000000;" x="142.717134" xlink:href="#mdf0d21ca66" y="184.495363"/>
     <use style="stroke:#000000;" x="143.760125" xlink:href="#mdf0d21ca66" y="184.299196"/>
     <use style="stroke:#000000;" x="144.803115" xlink:href="#mdf0d21ca66" y="184.887698"/>
     <use style="stroke:#000000;" x="145.846106" xlink:href="#mdf0d21ca66" y="192.799788"/>
     <use style="stroke:#000000;" x="146.889097" xlink:href="#mdf0d21ca66" y="205.943012"/>
     <use style="stroke:#000000;" x="147.932087" xlink:href="#mdf0d21ca66" y="201.823494"/>
     <use style="stroke:#000000;" x="148.975078" xlink:href="#mdf0d21ca66" y="187.8956"/>
     <use style="stroke:#000000;" x="150.018069" xlink:href="#mdf0d21ca66" y="192.799788"/>
     <use style="stroke:#000000;" x="151.061059" xlink:href="#mdf0d21ca66" y="195.938468"/>
     <use style="stroke:#000000;" x="152.10405" xlink:href="#mdf0d21ca66" y="198.94637"/>
     <use style="stroke:#000000;" x="153.147041" xlink:href="#mdf0d21ca66" y="211.435702"/>
     <use style="stroke:#000000;" x="154.190031" xlink:href="#mdf0d21ca66" y="209.474027"/>
     <use style="stroke:#000000;" x="155.233022" xlink:href="#mdf0d21ca66" y="199.861819"/>
     <use style="stroke:#000000;" x="156.276013" xlink:href="#mdf0d21ca66" y="185.868536"/>
     <use style="stroke:#000000;" x="157.319003" xlink:href="#mdf0d21ca66" y="191.361226"/>
     <use style="stroke:#000000;" x="158.361994" xlink:href="#mdf0d21ca66" y="192.66901"/>
     <use style="stroke:#000000;" x="159.404985" xlink:href="#mdf0d21ca66" y="198.750203"/>
     <use style="stroke:#000000;" x="160.447975" xlink:href="#mdf0d21ca66" y="205.158341"/>
     <use style="stroke:#000000;" x="161.490966" xlink:href="#mdf0d21ca66" y="206.269957"/>
     <use style="stroke:#000000;" x="162.533957" xlink:href="#mdf0d21ca66" y="206.204568"/>
     <use style="stroke:#000000;" x="163.576947" xlink:href="#mdf0d21ca66" y="186.522428"/>
     <use style="stroke:#000000;" x="164.619938" xlink:href="#mdf0d21ca66" y="193.126734"/>
     <use style="stroke:#000000;" x="165.662929" xlink:href="#mdf0d21ca66" y="201.888883"/>
     <use style="stroke:#000000;" x="166.705919" xlink:href="#mdf0d21ca66" y="188.418714"/>
     <use style="stroke:#000000;" x="167.74891" xlink:href="#mdf0d21ca66" y="197.37703"/>
     <use style="stroke:#000000;" x="168.791901" xlink:href="#mdf0d21ca66" y="205.354509"/>
     <use style="stroke:#000000;" x="169.834891" xlink:href="#mdf0d21ca66" y="199.665651"/>
     <use style="stroke:#000000;" x="170.877882" xlink:href="#mdf0d21ca66" y="188.68027"/>
     <use style="stroke:#000000;" x="171.920872" xlink:href="#mdf0d21ca66" y="195.80769"/>
     <use style="stroke:#000000;" x="172.963863" xlink:href="#mdf0d21ca66" y="194.826852"/>
     <use style="stroke:#000000;" x="174.006854" xlink:href="#mdf0d21ca66" y="197.769365"/>
     <use style="stroke:#000000;" x="175.049844" xlink:href="#mdf0d21ca66" y="197.900143"/>
     <use style="stroke:#000000;" x="176.092835" xlink:href="#mdf0d21ca66" y="204.308282"/>
     <use style="stroke:#000000;" x="177.135826" xlink:href="#mdf0d21ca66" y="204.308282"/>
     <use style="stroke:#000000;" x="178.178816" xlink:href="#mdf0d21ca66" y="189.530329"/>
     <use style="stroke:#000000;" x="179.221807" xlink:href="#mdf0d21ca66" y="194.696074"/>
     <use style="stroke:#000000;" x="180.264798" xlink:href="#mdf0d21ca66" y="194.892242"/>
     <use style="stroke:#000000;" x="181.307788" xlink:href="#mdf0d21ca66" y="198.096311"/>
     <use style="stroke:#000000;" x="182.350779" xlink:href="#mdf0d21ca66" y="197.050084"/>
     <use style="stroke:#000000;" x="183.39377" xlink:href="#mdf0d21ca66" y="209.408638"/>
     <use style="stroke:#000000;" x="184.43676" xlink:href="#mdf0d21ca66" y="201.496548"/>
     <use style="stroke:#000000;" x="185.479751" xlink:href="#mdf0d21ca66" y="193.584458"/>
     <use style="stroke:#000000;" x="186.522742" xlink:href="#mdf0d21ca66" y="198.423257"/>
     <use style="stroke:#000000;" x="187.565732" xlink:href="#mdf0d21ca66" y="196.788527"/>
     <use style="stroke:#000000;" x="188.608723" xlink:href="#mdf0d21ca66" y="197.769365"/>
     <use style="stroke:#000000;" x="189.651714" xlink:href="#mdf0d21ca66" y="201.431159"/>
     <use style="stroke:#000000;" x="190.694704" xlink:href="#mdf0d21ca66" y="213.462766"/>
     <use style="stroke:#000000;" x="191.737695" xlink:href="#mdf0d21ca66" y="207.446962"/>
     <use style="stroke:#000000;" x="192.780686" xlink:href="#mdf0d21ca66" y="196.396192"/>
     <use style="stroke:#000000;" x="193.823676" xlink:href="#mdf0d21ca66" y="197.834754"/>
     <use style="stroke:#000000;" x="194.866667" xlink:href="#mdf0d21ca66" y="201.36577"/>
     <use style="stroke:#000000;" x="195.909658" xlink:href="#mdf0d21ca66" y="204.308282"/>
     <use style="stroke:#000000;" x="196.952648" xlink:href="#mdf0d21ca66" y="203.785169"/>
     <use style="stroke:#000000;" x="197.995639" xlink:href="#mdf0d21ca66" y="211.304924"/>
     <use style="stroke:#000000;" x="199.03863" xlink:href="#mdf0d21ca66" y="208.885524"/>
     <use style="stroke:#000000;" x="200.08162" xlink:href="#mdf0d21ca66" y="201.36577"/>
     <use style="stroke:#000000;" x="201.124611" xlink:href="#mdf0d21ca66" y="206.989238"/>
     <use style="stroke:#000000;" x="202.167601" xlink:href="#mdf0d21ca66" y="203.392834"/>
     <use style="stroke:#000000;" x="203.210592" xlink:href="#mdf0d21ca66" y="208.297022"/>
     <use style="stroke:#000000;" x="204.253583" xlink:href="#mdf0d21ca66" y="208.623968"/>
     <use style="stroke:#000000;" x="205.296573" xlink:href="#mdf0d21ca66" y="214.508993"/>
     <use style="stroke:#000000;" x="206.339564" xlink:href="#mdf0d21ca66" y="212.089594"/>
     <use style="stroke:#000000;" x="207.382555" xlink:href="#mdf0d21ca66" y="206.989238"/>
     <use style="stroke:#000000;" x="208.425545" xlink:href="#mdf0d21ca66" y="204.831396"/>
     <use style="stroke:#000000;" x="209.468536" xlink:href="#mdf0d21ca66" y="206.596903"/>
     <use style="stroke:#000000;" x="210.511527" xlink:href="#mdf0d21ca66" y="205.877622"/>
     <use style="stroke:#000000;" x="211.554517" xlink:href="#mdf0d21ca66" y="212.547318"/>
     <use style="stroke:#000000;" x="212.597508" xlink:href="#mdf0d21ca66" y="213.789712"/>
     <use style="stroke:#000000;" x="213.640499" xlink:href="#mdf0d21ca66" y="211.043367"/>
     <use style="stroke:#000000;" x="214.683489" xlink:href="#mdf0d21ca66" y="205.681455"/>
     <use style="stroke:#000000;" x="215.72648" xlink:href="#mdf0d21ca66" y="208.166243"/>
     <use style="stroke:#000000;" x="216.769471" xlink:href="#mdf0d21ca66" y="208.820135"/>
     <use style="stroke:#000000;" x="217.812461" xlink:href="#mdf0d21ca66" y="212.41654"/>
     <use style="stroke:#000000;" x="218.855452" xlink:href="#mdf0d21ca66" y="210.651032"/>
     <use style="stroke:#000000;" x="219.898443" xlink:href="#mdf0d21ca66" y="216.405279"/>
    </g>
   </g>
   <g id="line2d_16">
    <path clip-path="url(#p27c0f00928)" d="M 235.543302 202.472669 
L 236.586293 201.094008 
L 237.629284 199.643588 
L 238.672274 198.117674 
L 239.715265 196.512337 
L 240.758256 194.823442 
L 241.801246 193.04664 
L 242.844237 191.177356 
L 243.887228 189.210775 
L 244.930218 187.141835 
L 245.973209 184.965207 
L 247.0162 182.675286 
L 248.05919 180.266175 
L 249.102181 177.73167 
L 250.145172 175.065244 
L 251.188162 172.260031 
L 252.231153 169.308808 
L 253.274144 166.203974 
L 254.317134 162.937534 
L 255.360125 159.501076 
L 256.403115 155.885751 
L 257.446106 152.082249 
L 258.489097 148.080776 
L 259.532087 143.871026 
L 260.575078 139.44216 
L 261.618069 134.782772 
L 262.661059 129.880864 
L 263.70405 124.723812 
L 264.747041 119.298337 
L 265.790031 113.590467 
L 266.833022 107.585503 
L 267.876013 101.267981 
L 268.919003 94.621634 
L 269.961994 87.629346 
L 271.004985 80.27311 
L 272.047975 72.533983 
L 273.090966 64.392037 
L 274.133957 55.826303 
L 275.176947 46.814724 
L 276.219938 37.334095 
L 277.262929 27.36 
" style="fill:none;stroke:#000000;stroke-linecap:square;stroke-width:1.5;"/>
   </g>
   <g id="patch_3">
    <path d="M 54.062929 228.96 
L 54.062929 7.2 
" style="fill:none;stroke:#000000;stroke-linecap:square;stroke-linejoin:miter;stroke-width:0.8;"/>
   </g>
   <g id="patch_4">
    <path d="M 54.062929 228.96 
L 277.262929 228.96 
" style="fill:none;stroke:#000000;stroke-linecap:square;stroke-linejoin:miter;stroke-width:0.8;"/>
   </g>
   <g id="text_16">
    <!-- Italy -->
    <g transform="translate(433.502929 14.328237)scale(0.1 -0.1)">
     <defs>
      <path d="M 21.59375 57.234375 
C 21.59375 65.1875 22.09375 66 26.703125 66 
L 31.5 66 
L 31.5 69.109375 
C 24.203125 69.109375 22 69.109375 16.796875 69.109375 
C 11.796875 69.109375 9.40625 69.109375 2.203125 69.109375 
L 2.203125 66 
L 7 66 
C 11.59375 66 12.09375 65.1875 12.09375 57.234375 
L 12.09375 11.96875 
C 12.09375 4 11.59375 3.203125 7 3.203125 
L 2.203125 3.203125 
L 2.203125 0 
C 8.09375 0 11.59375 0 16.796875 0 
C 22 0 25.59375 0 31.5 0 
L 31.5 3.203125 
L 26.703125 3.203125 
C 22.09375 3.203125 21.59375 4 21.59375 11.96875 
z
" id="URW_Palladio_L_Roman-73"/>
     </defs>
     <use transform="scale(0.996264)" xlink:href="#URW_Palladio_L_Roman-73"/>
     <use transform="translate(33.574079 0)scale(0.996264)" xlink:href="#URW_Palladio_L_Roman-116"/>
     <use transform="translate(66.051167 0)scale(0.996264)" xlink:href="#URW_Palladio_L_Roman-97"/>
     <use transform="translate(115.864367 0)scale(0.996264)" xlink:href="#URW_Palladio_L_Roman-108"/>
     <use transform="translate(144.854729 0)scale(0.996264)" xlink:href="#URW_Palladio_L_Roman-121"/>
    </g>
    <!-- Sunday, 28 February 2021 -->
    <g transform="translate(433.502929 25.691533)scale(0.1 -0.1)">
     <defs>
      <path d="M 44.703125 52.671875 
C 44.703125 57.984375 45.09375 61.375 46.09375 66.78125 
C 38.09375 70 33.59375 71 28.09375 71 
C 13.203125 71 2.40625 61.578125 2.40625 48.46875 
C 2.40625 43.5625 3.703125 39.953125 6.59375 37.25 
C 10 34.15625 14.59375 32.546875 24.296875 31.25 
C 32 30.140625 35.5 29.046875 38.09375 26.734375 
C 40.703125 24.640625 41.90625 21.734375 41.90625 17.921875 
C 41.90625 8.921875 34.40625 2.40625 24 2.40625 
C 16 2.40625 8.203125 6.3125 7.703125 10.40625 
L 6.90625 17.125 
L 3.703125 17.125 
C 3.796875 15.3125 3.796875 13.71875 3.796875 13.125 
C 3.796875 8.515625 3.59375 6.3125 3 1.8125 
C 8.703125 -0.703125 14.5 -2 20.296875 -2 
C 37.703125 -2 50.296875 8.515625 50.296875 23.03125 
C 50.296875 27.734375 49 31.046875 46.203125 33.640625 
C 42.703125 36.9375 38.5 38.25 27.296875 39.75 
C 15.09375 41.34375 10.796875 44.65625 10.796875 52.375 
C 10.796875 60.78125 17.09375 66.78125 25.90625 66.78125 
C 29.796875 66.78125 33.5 65.984375 36.203125 64.484375 
C 39.5 62.78125 40.59375 61.28125 40.90625 58.390625 
L 41.5 52.671875 
z
" id="URW_Palladio_L_Roman-83"/>
      <path d="M 50.296875 47.015625 
L 49.40625 47.421875 
C 44.296875 45.3125 39.09375 43.90625 33.796875 43.3125 
L 33.796875 40.5 
L 37.5 40.5 
C 41.5 40.5 41.90625 39.796875 41.90625 33.140625 
L 41.90625 16.71875 
C 41.90625 14.5 40.5 11.671875 38.203125 9.359375 
C 35.40625 6.53125 32.203125 5.109375 28.296875 5.109375 
C 24.796875 5.109375 22 6.21875 20.40625 8.140625 
C 19 9.75 18.296875 12.875 18.296875 17.296875 
L 18.296875 47.015625 
L 17.40625 47.421875 
C 12.296875 45.3125 7.09375 43.90625 1.796875 43.3125 
L 1.796875 40.5 
L 5.5 40.5 
C 9.5 40.5 9.90625 39.796875 9.90625 33.15625 
L 9.90625 16.234375 
C 9.90625 9.171875 10.5 6.046875 12.296875 3.546875 
C 14.5 0.515625 18.296875 -1 24 -1 
C 28.5 -1 32.5 0.40625 35.203125 2.90625 
L 41.90625 9.140625 
C 41.90625 6.265625 41.796875 4.65625 41.5 0 
C 48.203125 0 48.296875 0 49.796875 0 
C 51.203125 0 51.203125 0 58.09375 0 
L 58.09375 2.90625 
L 54 3.3125 
C 50.59375 3.3125 50.296875 3.921875 50.296875 10.375 
z
" id="URW_Palladio_L_Roman-117"/>
      <path d="M 20.40625 12.328125 
C 17.703125 11.421875 15.90625 10.828125 10.59375 9.3125 
C 9.90625 1.703125 7.40625 -4.8125 1.59375 -14.421875 
L 3 -15.53125 
L 7.09375 -13.625 
C 15.203125 -3.109375 19 3.203125 21.796875 10.921875 
z
" id="URW_Palladio_L_Roman-44"/>
      <path d="M 16.796875 34.546875 
C 12.703125 32.65625 11 31.546875 8.796875 29.4375 
C 5 25.640625 3 21.125 3 15.921875 
C 3 5.609375 11.296875 -2 22.59375 -2 
C 35.59375 -2 46.40625 8.21875 46.40625 20.625 
C 46.40625 28.640625 42.703125 32.953125 31.296875 38.15625 
C 40.40625 44.375 43.59375 48.578125 43.59375 54.578125 
C 43.59375 63.1875 36.5 69 25.90625 69 
C 14 69 5.296875 61.390625 5.296875 50.890625 
C 5.296875 44.078125 8 40.265625 16.796875 34.546875 
z
M 28.40625 29.546875 
C 34.703125 26.734375 38.5 21.828125 38.5 16.4375 
C 38.5 8.015625 32.203125 1.40625 24.09375 1.40625 
C 15.59375 1.40625 10.09375 7.421875 10.09375 16.734375 
C 10.09375 24.03125 13 28.640625 20.40625 33.15625 
z
M 22.296875 42.375 
C 16 45.46875 12.796875 49.484375 12.796875 54.484375 
C 12.796875 61.09375 17.59375 65.59375 24.703125 65.59375 
C 32 65.59375 36.796875 60.796875 36.796875 53.46875 
C 36.796875 47.78125 34.296875 43.875 27.796875 39.65625 
z
" id="URW_Palladio_L_Roman-56"/>
      <path d="M 21.59375 32.8125 
C 24.40625 33 27.40625 33 31.90625 33 
C 39.296875 33 42 32.71875 43.796875 31.875 
L 44.59375 29.53125 
L 45.09375 24 
L 48.09375 24 
C 47.796875 33.3125 47.796875 33.3125 47.796875 35.109375 
C 47.796875 36.71875 47.796875 36.71875 48.09375 46.734375 
L 45.09375 46.734375 
L 44.59375 41.28125 
C 44.5 40.328125 44.203125 39.390625 43.796875 38.546875 
C 42 37.71875 39.203125 37.40625 32.59375 37.40625 
C 28.40625 37.40625 25 37.40625 21.59375 37.40625 
L 21.59375 64.328125 
C 24.59375 65 26.40625 65 32.296875 65 
C 37.09375 65 42.703125 64.4375 45.796875 63.6875 
C 48.203125 63.109375 48.5 62.625 48.5 60.4375 
L 48.5 54.140625 
L 52 54.140625 
C 52 60.046875 52.5 64.78125 53.59375 69.109375 
C 48.703125 69.109375 45.703125 69.109375 41.40625 69.109375 
L 30.703125 69.109375 
C 25.796875 69.109375 22.296875 69.109375 19.796875 69.109375 
C 16.90625 69.109375 16.90625 69.109375 2.203125 69.109375 
L 2.203125 66 
L 7 66 
C 11.59375 66 12.09375 65.1875 12.09375 57.234375 
L 12.09375 11.96875 
C 12.09375 4 11.59375 3.203125 7 3.203125 
L 2.203125 3.203125 
L 2.203125 0 
C 8.09375 0 11.59375 0 16.796875 0 
C 22 0 25.59375 0 31.5 0 
L 31.5 3.203125 
L 26.703125 3.203125 
C 22.09375 3.203125 21.59375 4 21.59375 11.96875 
z
" id="URW_Palladio_L_Roman-70"/>
      <path d="M 15 72.1875 
L 14.09375 73 
C 9.703125 71.296875 6.40625 70.484375 -1.5 69.28125 
L -1.5 66.484375 
L 4.09375 66.484375 
C 5.90625 66.484375 6.59375 65.375 6.59375 62.359375 
L 6.59375 15.453125 
C 6.59375 9.234375 6.5 6.5 5.796875 -0.515625 
L 7.40625 -1.109375 
L 11.40625 2.5 
C 15.40625 -0.109375 19 -1.109375 24.296875 -1.109375 
C 28.203125 -1.109375 30.796875 -0.40625 32.90625 1.09375 
L 42.90625 8.296875 
C 47.296875 11.484375 50.796875 19.78125 50.796875 27.078125 
C 50.796875 38.6875 43.296875 47 32.703125 47 
C 28 47 23.09375 45.1875 20.5 42.578125 
L 15 36.984375 
z
M 15 30.890625 
C 15 32.28125 16 34.078125 17.59375 35.890625 
C 20.40625 38.78125 24.296875 40.484375 28.40625 40.484375 
C 36.796875 40.484375 42.09375 33.6875 42.09375 23 
C 42.09375 11.796875 36.09375 4 27.59375 4 
C 22.40625 4 15 7.1875 15 9.390625 
z
" id="URW_Palladio_L_Roman-98"/>
     </defs>
     <use transform="scale(0.996264)" xlink:href="#URW_Palladio_L_Roman-83"/>
     <use transform="translate(52.303815 0)scale(0.996264)" xlink:href="#URW_Palladio_L_Roman-117"/>
     <use transform="translate(112.37755 0)scale(0.996264)" xlink:href="#URW_Palladio_L_Roman-110"/>
     <use transform="translate(170.35961 0)scale(0.996264)" xlink:href="#URW_Palladio_L_Roman-100"/>
     <use transform="translate(231.231241 0)scale(0.996264)" xlink:href="#URW_Palladio_L_Roman-97"/>
     <use transform="translate(281.044441 0)scale(0.996264)" xlink:href="#URW_Palladio_L_Roman-121"/>
     <use transform="translate(325.377673 0)scale(0.996264)" xlink:href="#URW_Palladio_L_Roman-44"/>
     <use transform="translate(375.190874 0)scale(0.996264)" xlink:href="#URW_Palladio_L_Roman-50"/>
     <use transform="translate(425.004074 0)scale(0.996264)" xlink:href="#URW_Palladio_L_Roman-56"/>
     <use transform="translate(499.723875 0)scale(0.996264)" xlink:href="#URW_Palladio_L_Roman-70"/>
     <use transform="translate(555.115552 0)scale(0.996264)" xlink:href="#URW_Palladio_L_Roman-101"/>
     <use transform="translate(602.835847 0)scale(0.996264)" xlink:href="#URW_Palladio_L_Roman-98"/>
     <use transform="translate(657.928246 0)scale(0.996264)" xlink:href="#URW_Palladio_L_Roman-114"/>
     <use transform="translate(696.483569 0)scale(0.996264)" xlink:href="#URW_Palladio_L_Roman-117"/>
     <use transform="translate(756.557304 0)scale(0.996264)" xlink:href="#URW_Palladio_L_Roman-97"/>
     <use transform="translate(806.370505 0)scale(0.996264)" xlink:href="#URW_Palladio_L_Roman-114"/>
     <use transform="translate(845.722401 0)scale(0.996264)" xlink:href="#URW_Palladio_L_Roman-121"/>
     <use transform="translate(926.020678 0)scale(0.996264)" xlink:href="#URW_Palladio_L_Roman-50"/>
     <use transform="translate(975.833879 0)scale(0.996264)" xlink:href="#URW_Palladio_L_Roman-48"/>
     <use transform="translate(1025.647079 0)scale(0.996264)" xlink:href="#URW_Palladio_L_Roman-50"/>
     <use transform="translate(1075.46028 0)scale(0.996264)" xlink:href="#URW_Palladio_L_Roman-49"/>
    </g>
    <!-- 7-day incidence= 116124 -->
    <g transform="translate(433.502929 37.054829)scale(0.1 -0.1)">
     <defs>
      <path d="M 5.59375 0.5 
L 6.5 -0.796875 
C 10.40625 -0.5 10.40625 -0.5 11.09375 -0.5 
C 11.796875 -0.5 11.796875 -0.5 15.703125 -0.796875 
C 19.90625 10.140625 24.796875 20.578125 31.40625 32.609375 
L 49.703125 65.609375 
L 49.703125 68.3125 
C 38.90625 68.3125 35.40625 68.3125 27.296875 68.3125 
C 20 68.3125 15.09375 68.3125 5.40625 68.3125 
L 4.40625 68.109375 
C 4.703125 58.59375 4.703125 58.59375 4.703125 57.578125 
C 4.703125 56.46875 4.703125 56.46875 4.40625 47.359375 
L 7.40625 47.359375 
L 8.09375 52.96875 
C 8.90625 59.203125 9.59375 60 14.203125 60 
L 40.90625 60 
C 36.90625 51.765625 33.796875 45.953125 30 39.828125 
z
" id="URW_Palladio_L_Roman-55"/>
      <path d="M 55.5 39 
L 5.09375 39 
L 5.09375 33.390625 
L 55.5 33.390625 
z
M 55.5 19.609375 
L 5.09375 19.609375 
L 5.09375 14 
L 55.5 14 
z
" id="URW_Palladio_L_Roman-61"/>
      <path d="M 41.59375 67.34375 
L 37.90625 69.046875 
C 28.296875 65.84375 24.203125 63.84375 19.09375 59.4375 
C 8.796875 50.71875 3.203125 38.5 3.203125 24.765625 
C 3.203125 8.21875 11.203125 -2 24.09375 -2 
C 37.09375 -2 46.796875 8.3125 46.796875 21.953125 
C 46.796875 33.484375 39.90625 41 29.296875 41 
C 24.296875 41 21.296875 39.6875 15.40625 34.984375 
C 14.296875 34.078125 14.203125 33.984375 13.09375 33.1875 
C 15.203125 51.3125 23.59375 61.140625 41.59375 66.546875 
z
M 25.5 34.984375 
C 33.09375 34.984375 38.203125 28.375 38.203125 18.453125 
C 38.203125 8.015625 33.09375 1.296875 25.40625 1.296875 
C 16.90625 1.296875 12.296875 8.609375 12.296875 22.0625 
C 12.296875 25.5625 12.703125 27.46875 13.796875 29.171875 
C 16 32.578125 20.703125 34.984375 25.5 34.984375 
z
" id="URW_Palladio_L_Roman-54"/>
     </defs>
     <use transform="scale(0.996264)" xlink:href="#URW_Palladio_L_Roman-55"/>
     <use transform="translate(49.8132 0)scale(0.996264)" xlink:href="#URW_Palladio_L_Roman-45"/>
     <use transform="translate(82.98843 0)scale(0.996264)" xlink:href="#URW_Palladio_L_Roman-100"/>
     <use transform="translate(143.860061 0)scale(0.996264)" xlink:href="#URW_Palladio_L_Roman-97"/>
     <use transform="translate(193.673261 0)scale(0.996264)" xlink:href="#URW_Palladio_L_Roman-121"/>
     <use transform="translate(273.971539 0)scale(0.996264)" xlink:href="#URW_Palladio_L_Roman-105"/>
     <use transform="translate(302.9619 0)scale(0.996264)" xlink:href="#URW_Palladio_L_Roman-110"/>
     <use transform="translate(360.943961 0)scale(0.996264)" xlink:href="#URW_Palladio_L_Roman-99"/>
     <use transform="translate(405.177529 0)scale(0.996264)" xlink:href="#URW_Palladio_L_Roman-105"/>
     <use transform="translate(434.167891 0)scale(0.996264)" xlink:href="#URW_Palladio_L_Roman-100"/>
     <use transform="translate(495.039522 0)scale(0.996264)" xlink:href="#URW_Palladio_L_Roman-101"/>
     <use transform="translate(542.759817 0)scale(0.996264)" xlink:href="#URW_Palladio_L_Roman-110"/>
     <use transform="translate(600.741877 0)scale(0.996264)" xlink:href="#URW_Palladio_L_Roman-99"/>
     <use transform="translate(644.975446 0)scale(0.996264)" xlink:href="#URW_Palladio_L_Roman-101"/>
     <use transform="translate(692.695741 0)scale(0.996264)" xlink:href="#URW_Palladio_L_Roman-61"/>
     <use transform="translate(777.975354 0)scale(0.996264)" xlink:href="#URW_Palladio_L_Roman-49"/>
     <use transform="translate(827.788554 0)scale(0.996264)" xlink:href="#URW_Palladio_L_Roman-49"/>
     <use transform="translate(877.601755 0)scale(0.996264)" xlink:href="#URW_Palladio_L_Roman-54"/>
     <use transform="translate(927.414955 0)scale(0.996264)" xlink:href="#URW_Palladio_L_Roman-49"/>
     <use transform="translate(977.228156 0)scale(0.996264)" xlink:href="#URW_Palladio_L_Roman-50"/>
     <use transform="translate(1027.041356 0)scale(0.996264)" xlink:href="#URW_Palladio_L_Roman-52"/>
    </g>
    <!-- 7-day incidence per 100k = 192.39 -->
    <g transform="translate(433.502929 48.418125)scale(0.1 -0.1)">
     <defs>
      <path d="M 1 40.078125 
L 4.703125 40.078125 
C 8.703125 40.078125 9.09375 39.375 9.09375 32.734375 
L 9.09375 -17.84375 
C 9.09375 -24.1875 8.796875 -24.890625 5.40625 -24.890625 
L 0.796875 -24.890625 
L 0.796875 -28 
C 10.796875 -28 10.796875 -28 13.296875 -28 
C 15.796875 -28 15.796875 -28 25.796875 -28 
L 25.796875 -24.890625 
L 21.203125 -24.890625 
C 17.796875 -24.890625 17.5 -24.171875 17.5 -17.78125 
L 17.5 1.390625 
C 20.5 -0.40625 23.703125 -1.109375 28.203125 -1.109375 
C 31.09375 -1.109375 33.703125 -0.5 35.296875 0.5 
L 46.703125 7.890625 
C 50.703125 10.5 55.40625 20.78125 55.40625 27.1875 
C 55.40625 38.296875 46.203125 47 34.59375 47 
C 30.90625 47 27.296875 45.984375 25.703125 44.484375 
L 17.5 36.984375 
L 17.5 46.59375 
L 16.59375 47 
C 11.5 44.890625 6.296875 43.484375 1 42.890625 
z
M 17.5 30.6875 
C 17.5 32.078125 18 33.1875 19.296875 34.890625 
C 22.203125 38.578125 26.296875 40.484375 31.296875 40.484375 
C 40.703125 40.484375 46.703125 33.890625 46.703125 23.5 
C 46.703125 12.296875 40 4 31 4 
C 25.5 4 21.40625 5.8125 17.5 9.890625 
z
" id="URW_Palladio_L_Roman-112"/>
      <path d="M 2.296875 66.5 
L 7.90625 66.5 
C 9.703125 66.5 10.40625 65.390625 10.40625 62.375 
L 10.40625 10.171875 
C 10.40625 3.8125 10.09375 3.109375 6.703125 3.109375 
L 2.09375 3.109375 
L 2.09375 0 
C 12.09375 0 12.09375 0 14.703125 0 
C 17.5 0 18 0 26.90625 0 
L 26.90625 3.109375 
L 22.5 3.109375 
C 19.09375 3.109375 18.796875 3.8125 18.796875 10.1875 
L 18.796875 24.15625 
L 45.296875 -1 
L 54.90625 1.90625 
L 54.90625 4.21875 
C 52.5 4.21875 49.59375 5.921875 46.40625 9 
L 33.796875 21.46875 
C 30.203125 24.953125 29.09375 26.265625 27.40625 28.25 
L 40.296875 38.265625 
C 45 41.828125 47.703125 43 51.09375 43 
L 51.09375 46 
L 41.09375 46 
C 34.703125 39.625 30 35.234375 26.09375 32.140625 
L 18.796875 26.25 
L 18.796875 72.203125 
L 17.90625 73.015625 
C 13.5 71.3125 10.203125 70.5 2.296875 69.296875 
z
" id="URW_Palladio_L_Roman-107"/>
      <path d="M 9.59375 -1.65625 
C 20.703125 1.953125 25.5 4.25 30.90625 8.84375 
C 40.59375 17.15625 45.703125 28.671875 45.703125 42.078125 
C 45.703125 59 37.59375 69.296875 24.40625 69.296875 
C 11.59375 69.296875 2 59.296875 2 45.90625 
C 2 34.390625 9.5 26 19.90625 26 
C 23.296875 26 27.203125 27.09375 29 28.59375 
L 36 34.40625 
C 35.203125 17.578125 24.296875 5.25 6.203125 0.84375 
L 6.203125 0.046875 
z
M 24 66 
C 28.5 66 31.796875 64.09375 34 60.09375 
C 35.796875 56.890625 37 52 37 47.5 
C 37 38.296875 31.703125 32.109375 24 32.109375 
C 16 32.109375 10.59375 39.203125 10.59375 49.59375 
C 10.59375 59.703125 15.796875 66 24 66 
z
" id="URW_Palladio_L_Roman-57"/>
      <path d="M 12.40625 11.625 
C 9.40625 11.625 6.703125 8.8125 6.703125 5.8125 
C 6.703125 2.796875 9.40625 0 12.296875 0 
C 15.5 0 18.296875 2.703125 18.296875 5.8125 
C 18.296875 8.8125 15.5 11.625 12.40625 11.625 
z
" id="URW_Palladio_L_Roman-46"/>
     </defs>
     <use transform="scale(0.996264)" xlink:href="#URW_Palladio_L_Roman-55"/>
     <use transform="translate(49.8132 0)scale(0.996264)" xlink:href="#URW_Palladio_L_Roman-45"/>
     <use transform="translate(82.98843 0)scale(0.996264)" xlink:href="#URW_Palladio_L_Roman-100"/>
     <use transform="translate(143.860061 0)scale(0.996264)" xlink:href="#URW_Palladio_L_Roman-97"/>
     <use transform="translate(193.673261 0)scale(0.996264)" xlink:href="#URW_Palladio_L_Roman-121"/>
     <use transform="translate(273.971539 0)scale(0.996264)" xlink:href="#URW_Palladio_L_Roman-105"/>
     <use transform="translate(302.9619 0)scale(0.996264)" xlink:href="#URW_Palladio_L_Roman-110"/>
     <use transform="translate(360.943961 0)scale(0.996264)" xlink:href="#URW_Palladio_L_Roman-99"/>
     <use transform="translate(405.177529 0)scale(0.996264)" xlink:href="#URW_Palladio_L_Roman-105"/>
     <use transform="translate(434.167891 0)scale(0.996264)" xlink:href="#URW_Palladio_L_Roman-100"/>
     <use transform="translate(495.039522 0)scale(0.996264)" xlink:href="#URW_Palladio_L_Roman-101"/>
     <use transform="translate(542.759817 0)scale(0.996264)" xlink:href="#URW_Palladio_L_Roman-110"/>
     <use transform="translate(600.741877 0)scale(0.996264)" xlink:href="#URW_Palladio_L_Roman-99"/>
     <use transform="translate(644.975446 0)scale(0.996264)" xlink:href="#URW_Palladio_L_Roman-101"/>
     <use transform="translate(717.602341 0)scale(0.996264)" xlink:href="#URW_Palladio_L_Roman-112"/>
     <use transform="translate(777.476735 0)scale(0.996264)" xlink:href="#URW_Palladio_L_Roman-101"/>
     <use transform="translate(825.19703 0)scale(0.996264)" xlink:href="#URW_Palladio_L_Roman-114"/>
     <use transform="translate(889.455527 0)scale(0.996264)" xlink:href="#URW_Palladio_L_Roman-49"/>
     <use transform="translate(939.268727 0)scale(0.996264)" xlink:href="#URW_Palladio_L_Roman-48"/>
     <use transform="translate(989.081928 0)scale(0.996264)" xlink:href="#URW_Palladio_L_Roman-48"/>
     <use transform="translate(1038.895128 0)scale(0.996264)" xlink:href="#URW_Palladio_L_Roman-107"/>
     <use transform="translate(1119.193406 0)scale(0.996264)" xlink:href="#URW_Palladio_L_Roman-61"/>
     <use transform="translate(1204.473018 0)scale(0.996264)" xlink:href="#URW_Palladio_L_Roman-49"/>
     <use transform="translate(1254.286219 0)scale(0.996264)" xlink:href="#URW_Palladio_L_Roman-57"/>
     <use transform="translate(1304.099419 0)scale(0.996264)" xlink:href="#URW_Palladio_L_Roman-50"/>
     <use transform="translate(1353.91262 0)scale(0.996264)" xlink:href="#URW_Palladio_L_Roman-46"/>
     <use transform="translate(1378.81922 0)scale(0.996264)" xlink:href="#URW_Palladio_L_Roman-51"/>
     <use transform="translate(1428.63242 0)scale(0.996264)" xlink:href="#URW_Palladio_L_Roman-57"/>
    </g>
    <!-- 14-day incidence = 203559 -->
    <g transform="translate(433.502929 59.781421)scale(0.1 -0.1)">
     <use transform="scale(0.996264)" xlink:href="#URW_Palladio_L_Roman-49"/>
     <use transform="translate(49.8132 0)scale(0.996264)" xlink:href="#URW_Palladio_L_Roman-52"/>
     <use transform="translate(99.626401 0)scale(0.996264)" xlink:href="#URW_Palladio_L_Roman-45"/>
     <use transform="translate(132.801631 0)scale(0.996264)" xlink:href="#URW_Palladio_L_Roman-100"/>
     <use transform="translate(193.673261 0)scale(0.996264)" xlink:href="#URW_Palladio_L_Roman-97"/>
     <use transform="translate(243.486462 0)scale(0.996264)" xlink:href="#URW_Palladio_L_Roman-121"/>
     <use transform="translate(323.784739 0)scale(0.996264)" xlink:href="#URW_Palladio_L_Roman-105"/>
     <use transform="translate(352.775101 0)scale(0.996264)" xlink:href="#URW_Palladio_L_Roman-110"/>
     <use transform="translate(410.757161 0)scale(0.996264)" xlink:href="#URW_Palladio_L_Roman-99"/>
     <use transform="translate(454.99073 0)scale(0.996264)" xlink:href="#URW_Palladio_L_Roman-105"/>
     <use transform="translate(483.981091 0)scale(0.996264)" xlink:href="#URW_Palladio_L_Roman-100"/>
     <use transform="translate(544.852722 0)scale(0.996264)" xlink:href="#URW_Palladio_L_Roman-101"/>
     <use transform="translate(592.573017 0)scale(0.996264)" xlink:href="#URW_Palladio_L_Roman-110"/>
     <use transform="translate(650.555078 0)scale(0.996264)" xlink:href="#URW_Palladio_L_Roman-99"/>
     <use transform="translate(694.788647 0)scale(0.996264)" xlink:href="#URW_Palladio_L_Roman-101"/>
     <use transform="translate(767.415542 0)scale(0.996264)" xlink:href="#URW_Palladio_L_Roman-61"/>
     <use transform="translate(852.695154 0)scale(0.996264)" xlink:href="#URW_Palladio_L_Roman-50"/>
     <use transform="translate(902.508355 0)scale(0.996264)" xlink:href="#URW_Palladio_L_Roman-48"/>
     <use transform="translate(952.321555 0)scale(0.996264)" xlink:href="#URW_Palladio_L_Roman-51"/>
     <use transform="translate(1002.134756 0)scale(0.996264)" xlink:href="#URW_Palladio_L_Roman-53"/>
     <use transform="translate(1051.947956 0)scale(0.996264)" xlink:href="#URW_Palladio_L_Roman-53"/>
     <use transform="translate(1101.761157 0)scale(0.996264)" xlink:href="#URW_Palladio_L_Roman-57"/>
    </g>
    <!-- 14-day incidence per 100k = 337.24 -->
    <g transform="translate(433.502929 71.144717)scale(0.1 -0.1)">
     <use transform="scale(0.996264)" xlink:href="#URW_Palladio_L_Roman-49"/>
     <use transform="translate(49.8132 0)scale(0.996264)" xlink:href="#URW_Palladio_L_Roman-52"/>
     <use transform="translate(99.626401 0)scale(0.996264)" xlink:href="#URW_Palladio_L_Roman-45"/>
     <use transform="translate(132.801631 0)scale(0.996264)" xlink:href="#URW_Palladio_L_Roman-100"/>
     <use transform="translate(193.673261 0)scale(0.996264)" xlink:href="#URW_Palladio_L_Roman-97"/>
     <use transform="translate(243.486462 0)scale(0.996264)" xlink:href="#URW_Palladio_L_Roman-121"/>
     <use transform="translate(323.784739 0)scale(0.996264)" xlink:href="#URW_Palladio_L_Roman-105"/>
     <use transform="translate(352.775101 0)scale(0.996264)" xlink:href="#URW_Palladio_L_Roman-110"/>
     <use transform="translate(410.757161 0)scale(0.996264)" xlink:href="#URW_Palladio_L_Roman-99"/>
     <use transform="translate(454.99073 0)scale(0.996264)" xlink:href="#URW_Palladio_L_Roman-105"/>
     <use transform="translate(483.981091 0)scale(0.996264)" xlink:href="#URW_Palladio_L_Roman-100"/>
     <use transform="translate(544.852722 0)scale(0.996264)" xlink:href="#URW_Palladio_L_Roman-101"/>
     <use transform="translate(592.573017 0)scale(0.996264)" xlink:href="#URW_Palladio_L_Roman-110"/>
     <use transform="translate(650.555078 0)scale(0.996264)" xlink:href="#URW_Palladio_L_Roman-99"/>
     <use transform="translate(694.788647 0)scale(0.996264)" xlink:href="#URW_Palladio_L_Roman-101"/>
     <use transform="translate(767.415542 0)scale(0.996264)" xlink:href="#URW_Palladio_L_Roman-112"/>
     <use transform="translate(827.289936 0)scale(0.996264)" xlink:href="#URW_Palladio_L_Roman-101"/>
     <use transform="translate(875.010231 0)scale(0.996264)" xlink:href="#URW_Palladio_L_Roman-114"/>
     <use transform="translate(939.268727 0)scale(0.996264)" xlink:href="#URW_Palladio_L_Roman-49"/>
     <use transform="translate(989.081928 0)scale(0.996264)" xlink:href="#URW_Palladio_L_Roman-48"/>
     <use transform="translate(1038.895128 0)scale(0.996264)" xlink:href="#URW_Palladio_L_Roman-48"/>
     <use transform="translate(1088.708329 0)scale(0.996264)" xlink:href="#URW_Palladio_L_Roman-107"/>
     <use transform="translate(1169.006606 0)scale(0.996264)" xlink:href="#URW_Palladio_L_Roman-61"/>
     <use transform="translate(1254.286219 0)scale(0.996264)" xlink:href="#URW_Palladio_L_Roman-51"/>
     <use transform="translate(1304.099419 0)scale(0.996264)" xlink:href="#URW_Palladio_L_Roman-51"/>
     <use transform="translate(1353.91262 0)scale(0.996264)" xlink:href="#URW_Palladio_L_Roman-55"/>
     <use transform="translate(1403.72582 0)scale(0.996264)" xlink:href="#URW_Palladio_L_Roman-46"/>
     <use transform="translate(1428.63242 0)scale(0.996264)" xlink:href="#URW_Palladio_L_Roman-50"/>
     <use transform="translate(1478.445621 0)scale(0.996264)" xlink:href="#URW_Palladio_L_Roman-52"/>
    </g>
    <!-- $R_{\text{daily}}$ = 1.06 -->
    <g transform="translate(433.502929 82.508012)scale(0.1 -0.1)">
     <defs>
      <path d="M 10.5 66.109375 
L 16.09375 66.109375 
C 18.5 66.109375 19.59375 65.3125 19.59375 63.515625 
C 19.59375 62.125 19.203125 58.9375 18.703125 55.953125 
L 11.203125 12.75 
C 9.59375 3.6875 9.40625 3.484375 5.40625 3.078125 
L 1.296875 2.78125 
L 0.90625 0 
L 5.09375 0 
C 9.796875 0 11.703125 0 14.09375 0 
L 23.796875 0 
L 26.40625 0 
L 26.703125 2.796875 
L 21.796875 2.796875 
C 19.09375 3 18.203125 3.796875 18.203125 5.8125 
C 18.203125 6.703125 18.296875 7.59375 18.59375 9.296875 
L 27.09375 57.921875 
C 27.09375 58.125 27.59375 60.125 28 61.90625 
C 28.203125 62.71875 28.40625 63.421875 28.703125 64.71875 
C 31.59375 65.3125 33.59375 65.515625 36.296875 65.515625 
C 45 65.515625 49.59375 61.625 49.59375 54.265625 
C 49.59375 44.796875 41.796875 37.828125 31.40625 37.828125 
L 27 37.828125 
L 26.703125 36.734375 
C 40.09375 17.375 43.203125 12.609375 50.703125 0 
L 57.296875 0 
L 58.09375 0 
L 59.203125 0 
C 59.296875 0 60.703125 0 62.59375 0 
L 63.90625 0 
L 63.90625 2.59375 
C 59.90625 3.09375 58.796875 3.890625 55.90625 8.0625 
L 37.5 35.4375 
C 43 36.421875 45.90625 37.609375 49.5 40.171875 
C 55.296875 44.328125 58.40625 49.75 58.40625 55.765625 
C 58.40625 64.265625 52 69 40.90625 69 
L 25.90625 69 
C 24.40625 69 22.59375 69 10.796875 69 
z
" id="URW_Palladio_L_Italic-82"/>
     </defs>
     <use transform="scale(0.996264)" xlink:href="#URW_Palladio_L_Italic-82"/>
     <use transform="translate(67.695164 -20.886626)scale(0.757155)" xlink:href="#URW_Palladio_L_Roman-100"/>
     <use transform="translate(113.957273 -20.886626)scale(0.757155)" xlink:href="#URW_Palladio_L_Roman-97"/>
     <use transform="translate(151.815032 -20.886626)scale(0.757155)" xlink:href="#URW_Palladio_L_Roman-105"/>
     <use transform="translate(173.847553 -20.886626)scale(0.757155)" xlink:href="#URW_Palladio_L_Roman-108"/>
     <use transform="translate(195.880074 -20.886626)scale(0.757155)" xlink:href="#URW_Palladio_L_Roman-121"/>
     <use transform="translate(263.382175 0)scale(0.996264)" xlink:href="#URW_Palladio_L_Roman-61"/>
     <use transform="translate(348.661787 0)scale(0.996264)" xlink:href="#URW_Palladio_L_Roman-49"/>
     <use transform="translate(398.474988 0)scale(0.996264)" xlink:href="#URW_Palladio_L_Roman-46"/>
     <use transform="translate(423.381588 0)scale(0.996264)" xlink:href="#URW_Palladio_L_Roman-48"/>
     <use transform="translate(473.194788 0)scale(0.996264)" xlink:href="#URW_Palladio_L_Roman-54"/>
    </g>
    <!-- $R_{\text{model-based}}$ = 1.23 -->
    <g transform="translate(433.502929 95.285743)scale(0.1 -0.1)">
     <defs>
      <path d="M 1.796875 40.078125 
L 5.5 40.078125 
C 9.5 40.078125 9.90625 39.375 9.90625 32.71875 
L 9.90625 10.046875 
C 9.90625 3.703125 9.59375 3 6.203125 3 
L 1.59375 3 
L 1.59375 -0.109375 
C 11.203125 -0.109375 11.5 -0.109375 14.296875 -0.109375 
C 17.09375 -0.109375 19.703125 -0.109375 26.203125 -0.109375 
L 26.203125 2.796875 
L 22 3.203125 
C 18.59375 3.203125 18.296875 3.90625 18.296875 10.21875 
L 18.296875 31.46875 
C 18.296875 35.96875 24.90625 40.875 30.90625 40.875 
C 36.296875 40.875 40 35.734375 40 28.09375 
L 40 10.046875 
C 40 3.703125 39.703125 3 36.296875 3 
L 31.703125 3 
L 31.703125 -0.109375 
C 41.703125 -0.109375 41.703125 -0.109375 44.203125 -0.109375 
C 46.703125 -0.109375 46.703125 -0.109375 56.703125 -0.109375 
L 56.703125 3 
L 52.09375 3 
C 48.703125 3 48.40625 3.703125 48.40625 10.046875 
L 48.40625 31.421875 
C 48.40625 35.9375 55 40.875 61 40.875 
C 66.40625 40.875 70.09375 35.796875 70.09375 28.21875 
L 70.09375 -0.109375 
C 76.203125 -0.109375 76.296875 -0.109375 78 -0.109375 
C 79.296875 -0.109375 79.296875 -0.109375 86.90625 -0.109375 
L 86.90625 3 
L 82.203125 3 
C 78.796875 3 78.5 3.703125 78.5 10.046875 
L 78.5 30.78125 
C 78.5 40.75 72.703125 47 63.5 47 
C 60 47 57.09375 46.09375 55.296875 44.484375 
L 47.703125 37.6875 
C 44.5 44.28125 40.40625 47 33.5 47 
C 29.796875 47 27 46.09375 25.203125 44.484375 
L 18.296875 38.078125 
L 18.296875 46.59375 
L 17.40625 47 
C 12.296875 44.890625 7.09375 43.484375 1.796875 42.890625 
z
" id="URW_Palladio_L_Roman-109"/>
     </defs>
     <use transform="scale(0.996264)" xlink:href="#URW_Palladio_L_Italic-82"/>
     <use transform="translate(67.695164 -20.886626)scale(0.757155)" xlink:href="#URW_Palladio_L_Roman-109"/>
     <use transform="translate(134.55163 -20.886626)scale(0.757155)" xlink:href="#URW_Palladio_L_Roman-111"/>
     <use transform="translate(175.891965 -20.886626)scale(0.757155)" xlink:href="#URW_Palladio_L_Roman-100"/>
     <use transform="translate(222.154074 -20.886626)scale(0.757155)" xlink:href="#URW_Palladio_L_Roman-101"/>
     <use transform="translate(258.421225 -20.886626)scale(0.757155)" xlink:href="#URW_Palladio_L_Roman-108"/>
     <use transform="translate(280.453746 -20.886626)scale(0.757155)" xlink:href="#URW_Palladio_L_Roman-45"/>
     <use transform="translate(305.666738 -20.886626)scale(0.757155)" xlink:href="#URW_Palladio_L_Roman-98"/>
     <use transform="translate(347.536658 -20.886626)scale(0.757155)" xlink:href="#URW_Palladio_L_Roman-97"/>
     <use transform="translate(385.394416 -20.886626)scale(0.757155)" xlink:href="#URW_Palladio_L_Roman-115"/>
     <use transform="translate(417.497692 -20.886626)scale(0.757155)" xlink:href="#URW_Palladio_L_Roman-101"/>
     <use transform="translate(453.764843 -20.886626)scale(0.757155)" xlink:href="#URW_Palladio_L_Roman-100"/>
     <use transform="translate(525.431685 0)scale(0.996264)" xlink:href="#URW_Palladio_L_Roman-61"/>
     <use transform="translate(610.711297 0)scale(0.996264)" xlink:href="#URW_Palladio_L_Roman-49"/>
     <use transform="translate(660.524498 0)scale(0.996264)" xlink:href="#URW_Palladio_L_Roman-46"/>
     <use transform="translate(685.431098 0)scale(0.996264)" xlink:href="#URW_Palladio_L_Roman-50"/>
     <use transform="translate(735.244299 0)scale(0.996264)" xlink:href="#URW_Palladio_L_Roman-51"/>
    </g>
    <!-- $R_{\text{4-day mean}}$ = 1.45 -->
    <g transform="translate(433.502929 106.649039)scale(0.1 -0.1)">
     <use transform="scale(0.996264)" xlink:href="#URW_Palladio_L_Italic-82"/>
     <use transform="translate(67.695164 -20.886626)scale(0.757155)" xlink:href="#URW_Palladio_L_Roman-52"/>
     <use transform="translate(105.552922 -20.886626)scale(0.757155)" xlink:href="#URW_Palladio_L_Roman-45"/>
     <use transform="translate(130.765914 -20.886626)scale(0.757155)" xlink:href="#URW_Palladio_L_Roman-100"/>
     <use transform="translate(177.028024 -20.886626)scale(0.757155)" xlink:href="#URW_Palladio_L_Roman-97"/>
     <use transform="translate(214.885783 -20.886626)scale(0.757155)" xlink:href="#URW_Palladio_L_Roman-121"/>
     <use transform="translate(275.912031 -20.886626)scale(0.757155)" xlink:href="#URW_Palladio_L_Roman-109"/>
     <use transform="translate(342.768497 -20.886626)scale(0.757155)" xlink:href="#URW_Palladio_L_Roman-101"/>
     <use transform="translate(379.035648 -20.886626)scale(0.757155)" xlink:href="#URW_Palladio_L_Roman-97"/>
     <use transform="translate(416.893406 -20.886626)scale(0.757155)" xlink:href="#URW_Palladio_L_Roman-110"/>
     <use transform="translate(486.364184 0)scale(0.996264)" xlink:href="#URW_Palladio_L_Roman-61"/>
     <use transform="translate(571.643796 0)scale(0.996264)" xlink:href="#URW_Palladio_L_Roman-49"/>
     <use transform="translate(621.456997 0)scale(0.996264)" xlink:href="#URW_Palladio_L_Roman-46"/>
     <use transform="translate(646.363597 0)scale(0.996264)" xlink:href="#URW_Palladio_L_Roman-52"/>
     <use transform="translate(696.176797 0)scale(0.996264)" xlink:href="#URW_Palladio_L_Roman-53"/>
    </g>
    <!-- $R_{\text{7-day mean}}$ = 1.2 -->
    <g transform="translate(433.502929 119.426769)scale(0.1 -0.1)">
     <use transform="scale(0.996264)" xlink:href="#URW_Palladio_L_Italic-82"/>
     <use transform="translate(67.695164 -20.886626)scale(0.757155)" xlink:href="#URW_Palladio_L_Roman-55"/>
     <use transform="translate(105.552922 -20.886626)scale(0.757155)" xlink:href="#URW_Palladio_L_Roman-45"/>
     <use transform="translate(130.765914 -20.886626)scale(0.757155)" xlink:href="#URW_Palladio_L_Roman-100"/>
     <use transform="translate(177.028024 -20.886626)scale(0.757155)" xlink:href="#URW_Palladio_L_Roman-97"/>
     <use transform="translate(214.885783 -20.886626)scale(0.757155)" xlink:href="#URW_Palladio_L_Roman-121"/>
     <use transform="translate(275.912031 -20.886626)scale(0.757155)" xlink:href="#URW_Palladio_L_Roman-109"/>
     <use transform="translate(342.768497 -20.886626)scale(0.757155)" xlink:href="#URW_Palladio_L_Roman-101"/>
     <use transform="translate(379.035648 -20.886626)scale(0.757155)" xlink:href="#URW_Palladio_L_Roman-97"/>
     <use transform="translate(416.893406 -20.886626)scale(0.757155)" xlink:href="#URW_Palladio_L_Roman-110"/>
     <use transform="translate(486.364184 0)scale(0.996264)" xlink:href="#URW_Palladio_L_Roman-61"/>
     <use transform="translate(571.643796 0)scale(0.996264)" xlink:href="#URW_Palladio_L_Roman-49"/>
     <use transform="translate(621.456997 0)scale(0.996264)" xlink:href="#URW_Palladio_L_Roman-46"/>
     <use transform="translate(646.363597 0)scale(0.996264)" xlink:href="#URW_Palladio_L_Roman-50"/>
    </g>
    <!-- fatalities = 1 in 617.82 -->
    <g transform="translate(433.502929 132.2045)scale(0.1 -0.1)">
     <use transform="scale(0.996264)" xlink:href="#URW_Palladio_L_Roman-102"/>
     <use transform="translate(33.17523 0)scale(0.996264)" xlink:href="#URW_Palladio_L_Roman-97"/>
     <use transform="translate(82.98843 0)scale(0.996264)" xlink:href="#URW_Palladio_L_Roman-116"/>
     <use transform="translate(115.465518 0)scale(0.996264)" xlink:href="#URW_Palladio_L_Roman-97"/>
     <use transform="translate(165.278719 0)scale(0.996264)" xlink:href="#URW_Palladio_L_Roman-108"/>
     <use transform="translate(194.26908 0)scale(0.996264)" xlink:href="#URW_Palladio_L_Roman-105"/>
     <use transform="translate(223.259442 0)scale(0.996264)" xlink:href="#URW_Palladio_L_Roman-116"/>
     <use transform="translate(255.736529 0)scale(0.996264)" xlink:href="#URW_Palladio_L_Roman-105"/>
     <use transform="translate(284.726891 0)scale(0.996264)" xlink:href="#URW_Palladio_L_Roman-101"/>
     <use transform="translate(332.447186 0)scale(0.996264)" xlink:href="#URW_Palladio_L_Roman-115"/>
     <use transform="translate(399.595253 0)scale(0.996264)" xlink:href="#URW_Palladio_L_Roman-61"/>
     <use transform="translate(484.874865 0)scale(0.996264)" xlink:href="#URW_Palladio_L_Roman-49"/>
     <use transform="translate(559.594666 0)scale(0.996264)" xlink:href="#URW_Palladio_L_Roman-105"/>
     <use transform="translate(588.585027 0)scale(0.996264)" xlink:href="#URW_Palladio_L_Roman-110"/>
     <use transform="translate(671.473688 0)scale(0.996264)" xlink:href="#URW_Palladio_L_Roman-54"/>
     <use transform="translate(721.286889 0)scale(0.996264)" xlink:href="#URW_Palladio_L_Roman-49"/>
     <use transform="translate(771.100089 0)scale(0.996264)" xlink:href="#URW_Palladio_L_Roman-55"/>
     <use transform="translate(820.91329 0)scale(0.996264)" xlink:href="#URW_Palladio_L_Roman-46"/>
     <use transform="translate(845.81989 0)scale(0.996264)" xlink:href="#URW_Palladio_L_Roman-56"/>
     <use transform="translate(895.63309 0)scale(0.996264)" xlink:href="#URW_Palladio_L_Roman-50"/>
    </g>
    <!-- fatalities per 100k =161.86 -->
    <g transform="translate(433.502929 143.567796)scale(0.1 -0.1)">
     <use transform="scale(0.996264)" xlink:href="#URW_Palladio_L_Roman-102"/>
     <use transform="translate(33.17523 0)scale(0.996264)" xlink:href="#URW_Palladio_L_Roman-97"/>
     <use transform="translate(82.98843 0)scale(0.996264)" xlink:href="#URW_Palladio_L_Roman-116"/>
     <use transform="translate(115.465518 0)scale(0.996264)" xlink:href="#URW_Palladio_L_Roman-97"/>
     <use transform="translate(165.278719 0)scale(0.996264)" xlink:href="#URW_Palladio_L_Roman-108"/>
     <use transform="translate(194.26908 0)scale(0.996264)" xlink:href="#URW_Palladio_L_Roman-105"/>
     <use transform="translate(223.259442 0)scale(0.996264)" xlink:href="#URW_Palladio_L_Roman-116"/>
     <use transform="translate(255.736529 0)scale(0.996264)" xlink:href="#URW_Palladio_L_Roman-105"/>
     <use transform="translate(284.726891 0)scale(0.996264)" xlink:href="#URW_Palladio_L_Roman-101"/>
     <use transform="translate(332.447186 0)scale(0.996264)" xlink:href="#URW_Palladio_L_Roman-115"/>
     <use transform="translate(399.595253 0)scale(0.996264)" xlink:href="#URW_Palladio_L_Roman-112"/>
     <use transform="translate(459.469646 0)scale(0.996264)" xlink:href="#URW_Palladio_L_Roman-101"/>
     <use transform="translate(507.189941 0)scale(0.996264)" xlink:href="#URW_Palladio_L_Roman-114"/>
     <use transform="translate(571.448438 0)scale(0.996264)" xlink:href="#URW_Palladio_L_Roman-49"/>
     <use transform="translate(621.261638 0)scale(0.996264)" xlink:href="#URW_Palladio_L_Roman-48"/>
     <use transform="translate(671.074839 0)scale(0.996264)" xlink:href="#URW_Palladio_L_Roman-48"/>
     <use transform="translate(720.888039 0)scale(0.996264)" xlink:href="#URW_Palladio_L_Roman-107"/>
     <use transform="translate(801.186317 0)scale(0.996264)" xlink:href="#URW_Palladio_L_Roman-61"/>
     <use transform="translate(861.559329 0)scale(0.996264)" xlink:href="#URW_Palladio_L_Roman-49"/>
     <use transform="translate(911.372529 0)scale(0.996264)" xlink:href="#URW_Palladio_L_Roman-54"/>
     <use transform="translate(961.18573 0)scale(0.996264)" xlink:href="#URW_Palladio_L_Roman-49"/>
     <use transform="translate(1010.99893 0)scale(0.996264)" xlink:href="#URW_Palladio_L_Roman-46"/>
     <use transform="translate(1035.905531 0)scale(0.996264)" xlink:href="#URW_Palladio_L_Roman-56"/>
     <use transform="translate(1085.718731 0)scale(0.996264)" xlink:href="#URW_Palladio_L_Roman-54"/>
    </g>
    <!-- case fatality rate = 3.9\% -->
    <g transform="translate(433.502929 154.931091)scale(0.1 -0.1)">
     <defs>
      <path d="M 20.296875 69 
C 10.796875 69 3.90625 61.96875 3.90625 52.1875 
C 3.90625 43.25 10.40625 36.703125 19.296875 36.703125 
C 28.59375 36.703125 35.5 43.84375 35.5 53.515625 
C 35.5 62.359375 29 69 20.296875 69 
z
M 20 66.703125 
C 25.09375 66.703125 28.296875 61.5625 28.296875 53.3125 
C 28.296875 44.65625 24.796875 39 19.40625 39 
C 14.09375 39 11.09375 43.953125 11.09375 52.59375 
C 11.09375 61.265625 14.5 66.703125 20 66.703125 
z
M 65 32 
C 55.5 32 48.59375 25.015625 48.59375 15.359375 
C 48.59375 6.484375 55.09375 0 64 0 
C 73.296875 0 80.203125 7.078125 80.203125 16.640625 
C 80.203125 25.40625 73.703125 32 65 32 
z
M 64.703125 29.6875 
C 69.796875 29.6875 73 24.609375 73 16.4375 
C 73 7.890625 69.5 2.296875 64.09375 2.296875 
C 58.796875 2.296875 55.796875 7.1875 55.796875 15.75 
C 55.796875 24.3125 59.203125 29.6875 64.703125 29.6875 
z
M 25 -2 
L 61.59375 71 
L 57.59375 71 
L 21 -2 
z
" id="URW_Palladio_L_Roman-37"/>
     </defs>
     <use transform="scale(0.996264)" xlink:href="#URW_Palladio_L_Roman-99"/>
     <use transform="translate(44.233569 0)scale(0.996264)" xlink:href="#URW_Palladio_L_Roman-97"/>
     <use transform="translate(94.046769 0)scale(0.996264)" xlink:href="#URW_Palladio_L_Roman-115"/>
     <use transform="translate(136.288236 0)scale(0.996264)" xlink:href="#URW_Palladio_L_Roman-101"/>
     <use transform="translate(208.915131 0)scale(0.996264)" xlink:href="#URW_Palladio_L_Roman-102"/>
     <use transform="translate(242.090361 0)scale(0.996264)" xlink:href="#URW_Palladio_L_Roman-97"/>
     <use transform="translate(291.903561 0)scale(0.996264)" xlink:href="#URW_Palladio_L_Roman-116"/>
     <use transform="translate(324.380649 0)scale(0.996264)" xlink:href="#URW_Palladio_L_Roman-97"/>
     <use transform="translate(374.193849 0)scale(0.996264)" xlink:href="#URW_Palladio_L_Roman-108"/>
     <use transform="translate(403.184211 0)scale(0.996264)" xlink:href="#URW_Palladio_L_Roman-105"/>
     <use transform="translate(432.174572 0)scale(0.996264)" xlink:href="#URW_Palladio_L_Roman-116"/>
     <use transform="translate(464.65166 0)scale(0.996264)" xlink:href="#URW_Palladio_L_Roman-121"/>
     <use transform="translate(544.949937 0)scale(0.996264)" xlink:href="#URW_Palladio_L_Roman-114"/>
     <use transform="translate(584.301834 0)scale(0.996264)" xlink:href="#URW_Palladio_L_Roman-97"/>
     <use transform="translate(634.115034 0)scale(0.996264)" xlink:href="#URW_Palladio_L_Roman-116"/>
     <use transform="translate(666.592122 0)scale(0.996264)" xlink:href="#URW_Palladio_L_Roman-101"/>
     <use transform="translate(739.219018 0)scale(0.996264)" xlink:href="#URW_Palladio_L_Roman-61"/>
     <use transform="translate(824.49863 0)scale(0.996264)" xlink:href="#URW_Palladio_L_Roman-51"/>
     <use transform="translate(874.311831 0)scale(0.996264)" xlink:href="#URW_Palladio_L_Roman-46"/>
     <use transform="translate(899.218431 0)scale(0.996264)" xlink:href="#URW_Palladio_L_Roman-57"/>
     <use transform="translate(949.031631 0)scale(0.996264)" xlink:href="#URW_Palladio_L_Roman-37"/>
    </g>
    <!-- ICU patients = 2231 -->
    <g transform="translate(433.502929 166.294387)scale(0.1 -0.1)">
     <defs>
      <path d="M 67 8.421875 
L 66.09375 9.421875 
C 59.90625 5.40625 53 3.40625 45.40625 3.40625 
C 25.90625 3.40625 12.90625 16.421875 12.90625 36.140625 
C 12.90625 54.578125 24.296875 66.78125 41.5 66.78125 
C 51.296875 66.78125 61.40625 62.78125 61.40625 58.890625 
L 61.40625 51.671875 
L 64.5 51.671875 
C 64.59375 56.671875 65 60.265625 66.40625 66.875 
C 57.90625 69.6875 50.59375 71 43.296875 71 
C 34.59375 71 26.296875 68.890625 19.59375 64.984375 
C 8.203125 58.28125 2.203125 47.765625 2.203125 34.25 
C 2.203125 12.609375 18 -2 41.5 -2 
C 49.796875 -2 57.296875 -0.203125 64.203125 3.40625 
z
" id="URW_Palladio_L_Roman-67"/>
      <path d="M 66.40625 57.25 
C 66.40625 65.09375 66.90625 66 71.5 66 
L 75.90625 66 
L 75.90625 69.109375 
C 65.40625 69.109375 65.40625 69.109375 63.90625 69.109375 
C 62.203125 69.109375 62.203125 69.109375 52.296875 69.109375 
L 52.296875 66 
L 56.703125 66 
C 61.296875 66 61.796875 65.09375 61.796875 57.25 
L 61.796875 25.046875 
C 61.796875 10.859375 55 4.203125 40.5 4.203125 
C 26.59375 4.203125 20.59375 9.75 20.59375 22.625 
L 20.59375 57.25 
C 20.59375 65.1875 21.09375 66 25.703125 66 
L 30.5 66 
L 30.5 69.109375 
C 23.203125 69.109375 21 69.109375 15.796875 69.109375 
C 10.796875 69.109375 8.40625 69.109375 1.203125 69.109375 
L 1.203125 66 
L 6 66 
C 10.59375 66 11.09375 65.1875 11.09375 57.25 
L 11.09375 21.53125 
C 11.09375 13.6875 12.90625 8.15625 16.703125 4.234375 
C 20.703125 0.109375 27.796875 -2 37.796875 -2 
C 48.09375 -2 55 0.109375 59.5 4.734375 
C 64.203125 9.46875 66.40625 17.015625 66.40625 28.1875 
z
" id="URW_Palladio_L_Roman-85"/>
     </defs>
     <use transform="scale(0.996264)" xlink:href="#URW_Palladio_L_Roman-73"/>
     <use transform="translate(33.574079 0)scale(0.996264)" xlink:href="#URW_Palladio_L_Roman-67"/>
     <use transform="translate(104.208872 0)scale(0.996264)" xlink:href="#URW_Palladio_L_Roman-85"/>
     <use transform="translate(206.623842 0)scale(0.996264)" xlink:href="#URW_Palladio_L_Roman-112"/>
     <use transform="translate(266.498236 0)scale(0.996264)" xlink:href="#URW_Palladio_L_Roman-97"/>
     <use transform="translate(316.311436 0)scale(0.996264)" xlink:href="#URW_Palladio_L_Roman-116"/>
     <use transform="translate(348.788524 0)scale(0.996264)" xlink:href="#URW_Palladio_L_Roman-105"/>
     <use transform="translate(377.778886 0)scale(0.996264)" xlink:href="#URW_Palladio_L_Roman-101"/>
     <use transform="translate(425.499181 0)scale(0.996264)" xlink:href="#URW_Palladio_L_Roman-110"/>
     <use transform="translate(483.481242 0)scale(0.996264)" xlink:href="#URW_Palladio_L_Roman-116"/>
     <use transform="translate(515.958329 0)scale(0.996264)" xlink:href="#URW_Palladio_L_Roman-115"/>
     <use transform="translate(583.106396 0)scale(0.996264)" xlink:href="#URW_Palladio_L_Roman-61"/>
     <use transform="translate(668.386009 0)scale(0.996264)" xlink:href="#URW_Palladio_L_Roman-50"/>
     <use transform="translate(718.199209 0)scale(0.996264)" xlink:href="#URW_Palladio_L_Roman-50"/>
     <use transform="translate(768.01241 0)scale(0.996264)" xlink:href="#URW_Palladio_L_Roman-51"/>
     <use transform="translate(817.82561 0)scale(0.996264)" xlink:href="#URW_Palladio_L_Roman-49"/>
    </g>
    <!-- ICU corona occupancy = 20.28\% -->
    <g transform="translate(433.502929 177.657683)scale(0.1 -0.1)">
     <use transform="scale(0.996264)" xlink:href="#URW_Palladio_L_Roman-73"/>
     <use transform="translate(33.574079 0)scale(0.996264)" xlink:href="#URW_Palladio_L_Roman-67"/>
     <use transform="translate(104.208872 0)scale(0.996264)" xlink:href="#URW_Palladio_L_Roman-85"/>
     <use transform="translate(206.623842 0)scale(0.996264)" xlink:href="#URW_Palladio_L_Roman-99"/>
     <use transform="translate(250.857411 0)scale(0.996264)" xlink:href="#URW_Palladio_L_Roman-111"/>
     <use transform="translate(305.252991 0)scale(0.996264)" xlink:href="#URW_Palladio_L_Roman-114"/>
     <use transform="translate(342.812308 0)scale(0.996264)" xlink:href="#URW_Palladio_L_Roman-111"/>
     <use transform="translate(397.207889 0)scale(0.996264)" xlink:href="#URW_Palladio_L_Roman-110"/>
     <use transform="translate(455.189949 0)scale(0.996264)" xlink:href="#URW_Palladio_L_Roman-97"/>
     <use transform="translate(529.90975 0)scale(0.996264)" xlink:href="#URW_Palladio_L_Roman-111"/>
     <use transform="translate(584.30533 0)scale(0.996264)" xlink:href="#URW_Palladio_L_Roman-99"/>
     <use transform="translate(628.538899 0)scale(0.996264)" xlink:href="#URW_Palladio_L_Roman-99"/>
     <use transform="translate(672.772468 0)scale(0.996264)" xlink:href="#URW_Palladio_L_Roman-117"/>
     <use transform="translate(732.846202 0)scale(0.996264)" xlink:href="#URW_Palladio_L_Roman-112"/>
     <use transform="translate(792.720596 0)scale(0.996264)" xlink:href="#URW_Palladio_L_Roman-97"/>
     <use transform="translate(842.533797 0)scale(0.996264)" xlink:href="#URW_Palladio_L_Roman-110"/>
     <use transform="translate(900.515857 0)scale(0.996264)" xlink:href="#URW_Palladio_L_Roman-99"/>
     <use transform="translate(944.749426 0)scale(0.996264)" xlink:href="#URW_Palladio_L_Roman-121"/>
     <use transform="translate(1025.047703 0)scale(0.996264)" xlink:href="#URW_Palladio_L_Roman-61"/>
     <use transform="translate(1110.327316 0)scale(0.996264)" xlink:href="#URW_Palladio_L_Roman-50"/>
     <use transform="translate(1160.140516 0)scale(0.996264)" xlink:href="#URW_Palladio_L_Roman-48"/>
     <use transform="translate(1209.953717 0)scale(0.996264)" xlink:href="#URW_Palladio_L_Roman-46"/>
     <use transform="translate(1234.860317 0)scale(0.996264)" xlink:href="#URW_Palladio_L_Roman-50"/>
     <use transform="translate(1284.673517 0)scale(0.996264)" xlink:href="#URW_Palladio_L_Roman-56"/>
     <use transform="translate(1334.486718 0)scale(0.996264)" xlink:href="#URW_Palladio_L_Roman-37"/>
    </g>
   </g>
   <g id="text_17">
    <!-- fatality model: $405.0721e^{0.0507t}$ -->
    <g transform="translate(279.494929 30.339724)scale(0.1 -0.1)">
     <defs>
      <path d="M 12.296875 11.625 
C 9.296875 11.625 6.59375 8.8125 6.59375 5.8125 
C 6.59375 2.796875 9.296875 0 12.203125 0 
C 15.40625 0 18.203125 2.703125 18.203125 5.8125 
C 18.203125 8.8125 15.40625 11.625 12.296875 11.625 
z
M 12.296875 46 
C 9.296875 46 6.59375 43.203125 6.59375 40.1875 
C 6.59375 37.1875 9.296875 34.375 12.203125 34.375 
C 15.40625 34.375 18.203125 37.078125 18.203125 40.09375 
C 18.203125 43.203125 15.40625 46 12.296875 46 
z
" id="URW_Palladio_L_Roman-58"/>
      <path d="M 32.796875 11.125 
L 30.40625 9.4375 
C 25.09375 5.671875 20.296875 3.671875 16.703125 3.671875 
C 12 3.671875 9.09375 7.359375 9.09375 13.328125 
C 9.09375 15.796875 9.40625 18.484375 9.90625 21.375 
L 18.09375 23.34375 
C 19.796875 23.75 22.5 24.75 25 25.84375 
C 33.5 29.515625 37.40625 34.09375 37.40625 40.25 
C 37.40625 44.90625 34 48 29 48 
C 22.5 48 11.40625 41.140625 7.5 34.78125 
C 4.5 29.8125 1.5 17.984375 1.5 11.3125 
C 1.5 3.5625 5.90625 -1 13.09375 -1 
C 18.796875 -1 24.40625 1.78125 33.59375 9.234375 
z
M 11.296875 27.3125 
C 13 34.171875 15 38.453125 17.90625 41.03125 
C 19.703125 42.625 22.796875 43.8125 25.203125 43.8125 
C 28.09375 43.8125 30 41.828125 30 38.65625 
C 30 34.265625 26.5 29.609375 21.296875 27.109375 
C 18.5 25.734375 14.90625 24.640625 10.40625 23.640625 
z
" id="URW_Palladio_L_Italic-101"/>
      <path d="M 12.5 38.515625 
L 6.90625 10.484375 
C 6.796875 9.78125 6.703125 9.609375 6.40625 8.40625 
C 5.796875 5.640625 5.59375 4.140625 5.59375 2.96875 
C 5.59375 0.484375 6.703125 -1 8.59375 -1 
C 12.09375 -1 15.59375 0.96875 23.40625 7.234375 
L 24.90625 8.40625 
L 26.5 9.703125 
L 25.5 11.484375 
L 21 8.40625 
C 18.09375 6.4375 16.09375 5.4375 15 5.4375 
C 14.09375 5.4375 13.59375 6.234375 13.59375 7.40625 
C 13.59375 9.984375 15 18.015625 17.90625 32.375 
L 19.203125 38.515625 
L 29.90625 38.515625 
L 31 43.5 
C 27.203125 43 23.796875 43 20 43 
C 21.59375 52.3125 22.703125 57.171875 24.5 62.515625 
L 23.40625 64.015625 
C 21.40625 62.828125 18.703125 61.625 15.59375 60.4375 
L 13.09375 43.5 
C 8.703125 41.40625 6.09375 40.3125 4.296875 39.8125 
L 4.09375 38.515625 
z
" id="URW_Palladio_L_Italic-116"/>
     </defs>
     <use transform="scale(0.996264)" xlink:href="#URW_Palladio_L_Roman-102"/>
     <use transform="translate(33.17523 0)scale(0.996264)" xlink:href="#URW_Palladio_L_Roman-97"/>
     <use transform="translate(82.98843 0)scale(0.996264)" xlink:href="#URW_Palladio_L_Roman-116"/>
     <use transform="translate(115.465518 0)scale(0.996264)" xlink:href="#URW_Palladio_L_Roman-97"/>
     <use transform="translate(165.278719 0)scale(0.996264)" xlink:href="#URW_Palladio_L_Roman-108"/>
     <use transform="translate(194.26908 0)scale(0.996264)" xlink:href="#URW_Palladio_L_Roman-105"/>
     <use transform="translate(223.259442 0)scale(0.996264)" xlink:href="#URW_Palladio_L_Roman-116"/>
     <use transform="translate(255.736529 0)scale(0.996264)" xlink:href="#URW_Palladio_L_Roman-121"/>
     <use transform="translate(336.034807 0)scale(0.996264)" xlink:href="#URW_Palladio_L_Roman-109"/>
     <use transform="translate(424.004481 0)scale(0.996264)" xlink:href="#URW_Palladio_L_Roman-111"/>
     <use transform="translate(478.400061 0)scale(0.996264)" xlink:href="#URW_Palladio_L_Roman-100"/>
     <use transform="translate(539.271692 0)scale(0.996264)" xlink:href="#URW_Palladio_L_Roman-101"/>
     <use transform="translate(586.991987 0)scale(0.996264)" xlink:href="#URW_Palladio_L_Roman-108"/>
     <use transform="translate(615.982348 0)scale(0.996264)" xlink:href="#URW_Palladio_L_Roman-58"/>
     <use transform="translate(671.772981 0)scale(0.996264)" xlink:href="#URW_Palladio_L_Roman-52"/>
     <use transform="translate(721.586181 0)scale(0.996264)" xlink:href="#URW_Palladio_L_Roman-48"/>
     <use transform="translate(771.399382 0)scale(0.996264)" xlink:href="#URW_Palladio_L_Roman-53"/>
     <use transform="translate(821.212582 0)scale(0.996264)" xlink:href="#URW_Palladio_L_Roman-46"/>
     <use transform="translate(846.119183 0)scale(0.996264)" xlink:href="#URW_Palladio_L_Roman-48"/>
     <use transform="translate(895.932383 0)scale(0.996264)" xlink:href="#URW_Palladio_L_Roman-55"/>
     <use transform="translate(945.745584 0)scale(0.996264)" xlink:href="#URW_Palladio_L_Roman-50"/>
     <use transform="translate(995.558784 0)scale(0.996264)" xlink:href="#URW_Palladio_L_Roman-49"/>
     <use transform="translate(1046.617284 0)scale(0.996264)" xlink:href="#URW_Palladio_L_Italic-101"/>
     <use transform="translate(1086.617354 36.164371)scale(0.757155)" xlink:href="#URW_Palladio_L_Roman-48"/>
     <use transform="translate(1124.475113 36.164371)scale(0.757155)" xlink:href="#URW_Palladio_L_Roman-46"/>
     <use transform="translate(1143.403992 36.164371)scale(0.757155)" xlink:href="#URW_Palladio_L_Roman-48"/>
     <use transform="translate(1181.261751 36.164371)scale(0.757155)" xlink:href="#URW_Palladio_L_Roman-53"/>
     <use transform="translate(1219.11951 36.164371)scale(0.757155)" xlink:href="#URW_Palladio_L_Roman-48"/>
     <use transform="translate(1256.977268 36.164371)scale(0.757155)" xlink:href="#URW_Palladio_L_Roman-55"/>
     <use transform="translate(1295.781445 36.164371)scale(0.757155)" xlink:href="#URW_Palladio_L_Italic-116"/>
    </g>
   </g>
  </g>
 </g>
 <defs>
  <clipPath id="p27c0f00928">
   <rect height="221.76" width="223.2" x="54.062929" y="7.2"/>
  </clipPath>
 </defs>
</svg>
