<?xml version="1.0" encoding="utf-8" standalone="no"?>
<!DOCTYPE svg PUBLIC "-//W3C//DTD SVG 1.1//EN"
  "http://www.w3.org/Graphics/SVG/1.1/DTD/svg11.dtd">
<!-- Created with matplotlib (https://matplotlib.org/) -->
<svg height="333.997591pt" version="1.1" viewBox="0 0 628.413345 333.997591" width="628.413345pt" xmlns="http://www.w3.org/2000/svg" xmlns:xlink="http://www.w3.org/1999/xlink">
 <metadata>
  <rdf:RDF xmlns:cc="http://creativecommons.org/ns#" xmlns:dc="http://purl.org/dc/elements/1.1/" xmlns:rdf="http://www.w3.org/1999/02/22-rdf-syntax-ns#">
   <cc:Work>
    <dc:type rdf:resource="http://purl.org/dc/dcmitype/StillImage"/>
    <dc:date>2021-02-08T13:15:21.190835</dc:date>
    <dc:format>image/svg+xml</dc:format>
    <dc:creator>
     <cc:Agent>
      <dc:title>Matplotlib v3.3.4, https://matplotlib.org/</dc:title>
     </cc:Agent>
    </dc:creator>
   </cc:Work>
  </rdf:RDF>
 </metadata>
 <defs>
  <style type="text/css">*{stroke-linecap:butt;stroke-linejoin:round;}</style>
 </defs>
 <g id="figure_1">
  <g id="patch_1">
   <path d="M 0 333.997591 
L 628.413345 333.997591 
L 628.413345 0 
L 0 0 
z
" style="fill:#ffffff;"/>
  </g>
  <g id="axes_1">
   <g id="patch_2">
    <path d="M 50.482264 273.312 
L 407.602264 273.312 
L 407.602264 7.2 
L 50.482264 7.2 
z
" style="fill:#ffffff;"/>
   </g>
   <g id="patch_3">
    <path clip-path="url(#p9af873948e)" d="M 50.782365 273.312 
L 53.183172 273.312 
L 53.183172 264.335593 
L 50.782365 264.335593 
z
" style="fill:#1f77b4;"/>
   </g>
   <g id="patch_4">
    <path clip-path="url(#p9af873948e)" d="M 53.783374 273.312 
L 56.18418 273.312 
L 56.18418 262.232549 
L 53.783374 262.232549 
z
" style="fill:#1f77b4;"/>
   </g>
   <g id="patch_5">
    <path clip-path="url(#p9af873948e)" d="M 56.784382 273.312 
L 59.185189 273.312 
L 59.185189 261.617024 
L 56.784382 261.617024 
z
" style="fill:#1f77b4;"/>
   </g>
   <g id="patch_6">
    <path clip-path="url(#p9af873948e)" d="M 59.78539 273.312 
L 62.186197 273.312 
L 62.186197 258.488105 
L 59.78539 258.488105 
z
" style="fill:#1f77b4;"/>
   </g>
   <g id="patch_7">
    <path clip-path="url(#p9af873948e)" d="M 62.786399 273.312 
L 65.187205 273.312 
L 65.187205 257.103173 
L 62.786399 257.103173 
z
" style="fill:#1f77b4;"/>
   </g>
   <g id="patch_8">
    <path clip-path="url(#p9af873948e)" d="M 65.787407 273.312 
L 68.188214 273.312 
L 68.188214 256.179886 
L 65.787407 256.179886 
z
" style="fill:#1f77b4;"/>
   </g>
   <g id="patch_9">
    <path clip-path="url(#p9af873948e)" d="M 68.788416 273.312 
L 71.189222 273.312 
L 71.189222 253.974254 
L 68.788416 253.974254 
z
" style="fill:#1f77b4;"/>
   </g>
   <g id="patch_10">
    <path clip-path="url(#p9af873948e)" d="M 71.789424 273.312 
L 74.190231 273.312 
L 74.190231 252.230267 
L 71.789424 252.230267 
z
" style="fill:#1f77b4;"/>
   </g>
   <g id="patch_11">
    <path clip-path="url(#p9af873948e)" d="M 74.790432 273.312 
L 77.191239 273.312 
L 77.191239 249.768167 
L 74.790432 249.768167 
z
" style="fill:#1f77b4;"/>
   </g>
   <g id="patch_12">
    <path clip-path="url(#p9af873948e)" d="M 77.791441 273.312 
L 80.192247 273.312 
L 80.192247 245.459491 
L 77.791441 245.459491 
z
" style="fill:#1f77b4;"/>
   </g>
   <g id="patch_13">
    <path clip-path="url(#p9af873948e)" d="M 80.792449 273.312 
L 83.193256 273.312 
L 83.193256 242.740922 
L 80.792449 242.740922 
z
" style="fill:#1f77b4;"/>
   </g>
   <g id="patch_14">
    <path clip-path="url(#p9af873948e)" d="M 83.793458 273.312 
L 86.194264 273.312 
L 86.194264 240.894347 
L 83.793458 240.894347 
z
" style="fill:#1f77b4;"/>
   </g>
   <g id="patch_15">
    <path clip-path="url(#p9af873948e)" d="M 86.794466 273.312 
L 89.195273 273.312 
L 89.195273 235.559796 
L 86.794466 235.559796 
z
" style="fill:#1f77b4;"/>
   </g>
   <g id="patch_16">
    <path clip-path="url(#p9af873948e)" d="M 89.795474 273.312 
L 92.196281 273.312 
L 92.196281 232.533465 
L 89.795474 232.533465 
z
" style="fill:#1f77b4;"/>
   </g>
   <g id="patch_17">
    <path clip-path="url(#p9af873948e)" d="M 92.796483 273.312 
L 95.197289 273.312 
L 95.197289 229.04549 
L 92.796483 229.04549 
z
" style="fill:#1f77b4;"/>
   </g>
   <g id="patch_18">
    <path clip-path="url(#p9af873948e)" d="M 95.797491 273.312 
L 98.198298 273.312 
L 98.198298 222.274714 
L 95.797491 222.274714 
z
" style="fill:#1f77b4;"/>
   </g>
   <g id="patch_19">
    <path clip-path="url(#p9af873948e)" d="M 98.7985 273.312 
L 101.199306 273.312 
L 101.199306 218.273801 
L 98.7985 218.273801 
z
" style="fill:#1f77b4;"/>
   </g>
   <g id="patch_20">
    <path clip-path="url(#p9af873948e)" d="M 101.799508 273.312 
L 104.200315 273.312 
L 104.200315 214.119007 
L 101.799508 214.119007 
z
" style="fill:#1f77b4;"/>
   </g>
   <g id="patch_21">
    <path clip-path="url(#p9af873948e)" d="M 104.800516 273.312 
L 107.201323 273.312 
L 107.201323 208.579281 
L 104.800516 208.579281 
z
" style="fill:#1f77b4;"/>
   </g>
   <g id="patch_22">
    <path clip-path="url(#p9af873948e)" d="M 107.801525 273.312 
L 110.202331 273.312 
L 110.202331 201.090393 
L 107.801525 201.090393 
z
" style="fill:#1f77b4;"/>
   </g>
   <g id="patch_23">
    <path clip-path="url(#p9af873948e)" d="M 110.802533 273.312 
L 113.20334 273.312 
L 113.20334 196.986893 
L 110.802533 196.986893 
z
" style="fill:#1f77b4;"/>
   </g>
   <g id="patch_24">
    <path clip-path="url(#p9af873948e)" d="M 113.803542 273.312 
L 116.204348 273.312 
L 116.204348 192.267867 
L 113.803542 192.267867 
z
" style="fill:#1f77b4;"/>
   </g>
   <g id="patch_25">
    <path clip-path="url(#p9af873948e)" d="M 116.80455 273.312 
L 119.205357 273.312 
L 119.205357 185.497092 
L 116.80455 185.497092 
z
" style="fill:#1f77b4;"/>
   </g>
   <g id="patch_26">
    <path clip-path="url(#p9af873948e)" d="M 119.805558 273.312 
L 122.206365 273.312 
L 122.206365 178.828904 
L 119.805558 178.828904 
z
" style="fill:#1f77b4;"/>
   </g>
   <g id="patch_27">
    <path clip-path="url(#p9af873948e)" d="M 122.806567 273.312 
L 125.207374 273.312 
L 125.207374 167.133928 
L 122.806567 167.133928 
z
" style="fill:#1f77b4;"/>
   </g>
   <g id="patch_28">
    <path clip-path="url(#p9af873948e)" d="M 125.807575 273.312 
L 128.208382 273.312 
L 128.208382 154.46437 
L 125.807575 154.46437 
z
" style="fill:#1f77b4;"/>
   </g>
   <g id="patch_29">
    <path clip-path="url(#p9af873948e)" d="M 128.808584 273.312 
L 131.20939 273.312 
L 131.20939 147.898769 
L 128.808584 147.898769 
z
" style="fill:#1f77b4;"/>
   </g>
   <g id="patch_30">
    <path clip-path="url(#p9af873948e)" d="M 131.809592 273.312 
L 134.210399 273.312 
L 134.210399 141.589638 
L 131.809592 141.589638 
z
" style="fill:#1f77b4;"/>
   </g>
   <g id="patch_31">
    <path clip-path="url(#p9af873948e)" d="M 134.8106 273.312 
L 137.211407 273.312 
L 137.211407 135.280506 
L 134.8106 135.280506 
z
" style="fill:#1f77b4;"/>
   </g>
   <g id="patch_32">
    <path clip-path="url(#p9af873948e)" d="M 137.811609 273.312 
L 140.212416 273.312 
L 140.212416 123.636823 
L 137.811609 123.636823 
z
" style="fill:#1f77b4;"/>
   </g>
   <g id="patch_33">
    <path clip-path="url(#p9af873948e)" d="M 140.812617 273.312 
L 143.213424 273.312 
L 143.213424 108.864222 
L 140.812617 108.864222 
z
" style="fill:#1f77b4;"/>
   </g>
   <g id="patch_34">
    <path clip-path="url(#p9af873948e)" d="M 143.813626 273.312 
L 146.214432 273.312 
L 146.214432 99.067115 
L 143.813626 99.067115 
z
" style="fill:#1f77b4;"/>
   </g>
   <g id="patch_35">
    <path clip-path="url(#p9af873948e)" d="M 146.814634 273.312 
L 149.215441 273.312 
L 149.215441 93.732564 
L 146.814634 93.732564 
z
" style="fill:#1f77b4;"/>
   </g>
   <g id="patch_36">
    <path clip-path="url(#p9af873948e)" d="M 149.815642 273.312 
L 152.216449 273.312 
L 152.216449 87.628608 
L 149.815642 87.628608 
z
" style="fill:#1f77b4;"/>
   </g>
   <g id="patch_37">
    <path clip-path="url(#p9af873948e)" d="M 152.816651 273.312 
L 155.217458 273.312 
L 155.217458 76.60045 
L 152.816651 76.60045 
z
" style="fill:#1f77b4;"/>
   </g>
   <g id="patch_38">
    <path clip-path="url(#p9af873948e)" d="M 155.817659 273.312 
L 158.218466 273.312 
L 158.218466 69.008975 
L 155.817659 69.008975 
z
" style="fill:#1f77b4;"/>
   </g>
   <g id="patch_39">
    <path clip-path="url(#p9af873948e)" d="M 158.818668 273.312 
L 161.219474 273.312 
L 161.219474 61.263618 
L 158.818668 61.263618 
z
" style="fill:#1f77b4;"/>
   </g>
   <g id="patch_40">
    <path clip-path="url(#p9af873948e)" d="M 161.819676 273.312 
L 164.220483 273.312 
L 164.220483 54.595429 
L 161.819676 54.595429 
z
" style="fill:#1f77b4;"/>
   </g>
   <g id="patch_41">
    <path clip-path="url(#p9af873948e)" d="M 164.820684 273.312 
L 167.221491 273.312 
L 167.221491 53.723436 
L 164.820684 53.723436 
z
" style="fill:#1f77b4;"/>
   </g>
   <g id="patch_42">
    <path clip-path="url(#p9af873948e)" d="M 167.821693 273.312 
L 170.2225 273.312 
L 170.2225 46.080666 
L 167.821693 46.080666 
z
" style="fill:#1f77b4;"/>
   </g>
   <g id="patch_43">
    <path clip-path="url(#p9af873948e)" d="M 170.822701 273.312 
L 173.223508 273.312 
L 173.223508 38.48919 
L 170.822701 38.48919 
z
" style="fill:#1f77b4;"/>
   </g>
   <g id="patch_44">
    <path clip-path="url(#p9af873948e)" d="M 173.82371 273.312 
L 176.224516 273.312 
L 176.224516 37.66849 
L 173.82371 37.66849 
z
" style="fill:#1f77b4;"/>
   </g>
   <g id="patch_45">
    <path clip-path="url(#p9af873948e)" d="M 176.824718 273.312 
L 179.225525 273.312 
L 179.225525 31.205477 
L 176.824718 31.205477 
z
" style="fill:#1f77b4;"/>
   </g>
   <g id="patch_46">
    <path clip-path="url(#p9af873948e)" d="M 179.825726 273.312 
L 182.226533 273.312 
L 182.226533 24.947639 
L 179.825726 24.947639 
z
" style="fill:#1f77b4;"/>
   </g>
   <g id="patch_47">
    <path clip-path="url(#p9af873948e)" d="M 182.826735 273.312 
L 185.227542 273.312 
L 185.227542 26.537746 
L 182.826735 26.537746 
z
" style="fill:#1f77b4;"/>
   </g>
   <g id="patch_48">
    <path clip-path="url(#p9af873948e)" d="M 185.827743 273.312 
L 188.22855 273.312 
L 188.22855 17.869101 
L 185.827743 17.869101 
z
" style="fill:#1f77b4;"/>
   </g>
   <g id="patch_49">
    <path clip-path="url(#p9af873948e)" d="M 188.828752 273.312 
L 191.229558 273.312 
L 191.229558 11.3035 
L 188.828752 11.3035 
z
" style="fill:#1f77b4;"/>
   </g>
   <g id="patch_50">
    <path clip-path="url(#p9af873948e)" d="M 191.82976 273.312 
L 194.230567 273.312 
L 194.230567 11.611263 
L 191.82976 11.611263 
z
" style="fill:#1f77b4;"/>
   </g>
   <g id="patch_51">
    <path clip-path="url(#p9af873948e)" d="M 194.830768 273.312 
L 197.231575 273.312 
L 197.231575 12.688432 
L 194.830768 12.688432 
z
" style="fill:#1f77b4;"/>
   </g>
   <g id="patch_52">
    <path clip-path="url(#p9af873948e)" d="M 197.831777 273.312 
L 200.232584 273.312 
L 200.232584 10.534094 
L 197.831777 10.534094 
z
" style="fill:#1f77b4;"/>
   </g>
   <g id="patch_53">
    <path clip-path="url(#p9af873948e)" d="M 200.832785 273.312 
L 203.233592 273.312 
L 203.233592 14.022069 
L 200.832785 14.022069 
z
" style="fill:#1f77b4;"/>
   </g>
   <g id="patch_54">
    <path clip-path="url(#p9af873948e)" d="M 203.833794 273.312 
L 206.2346 273.312 
L 206.2346 15.971232 
L 203.833794 15.971232 
z
" style="fill:#1f77b4;"/>
   </g>
   <g id="patch_55">
    <path clip-path="url(#p9af873948e)" d="M 206.834802 273.312 
L 209.235609 273.312 
L 209.235609 7.2 
L 206.834802 7.2 
z
" style="fill:#1f77b4;"/>
   </g>
   <g id="patch_56">
    <path clip-path="url(#p9af873948e)" d="M 209.83581 273.312 
L 212.236617 273.312 
L 212.236617 7.866819 
L 209.83581 7.866819 
z
" style="fill:#1f77b4;"/>
   </g>
   <g id="patch_57">
    <path clip-path="url(#p9af873948e)" d="M 212.836819 273.312 
L 215.237626 273.312 
L 215.237626 9.097869 
L 212.836819 9.097869 
z
" style="fill:#1f77b4;"/>
   </g>
   <g id="patch_58">
    <path clip-path="url(#p9af873948e)" d="M 215.837827 273.312 
L 218.238634 273.312 
L 218.238634 7.918113 
L 215.837827 7.918113 
z
" style="fill:#1f77b4;"/>
   </g>
   <g id="patch_59">
    <path clip-path="url(#p9af873948e)" d="M 218.838836 273.312 
L 221.239642 273.312 
L 221.239642 15.304413 
L 218.838836 15.304413 
z
" style="fill:#1f77b4;"/>
   </g>
   <g id="patch_60">
    <path clip-path="url(#p9af873948e)" d="M 221.839844 273.312 
L 224.240651 273.312 
L 224.240651 23.04977 
L 221.839844 23.04977 
z
" style="fill:#1f77b4;"/>
   </g>
   <g id="patch_61">
    <path clip-path="url(#p9af873948e)" d="M 224.840852 273.312 
L 227.241659 273.312 
L 227.241659 32.539115 
L 224.840852 32.539115 
z
" style="fill:#1f77b4;"/>
   </g>
   <g id="patch_62">
    <path clip-path="url(#p9af873948e)" d="M 227.841861 273.312 
L 230.242668 273.312 
L 230.242668 37.976253 
L 227.841861 37.976253 
z
" style="fill:#1f77b4;"/>
   </g>
   <g id="patch_63">
    <path clip-path="url(#p9af873948e)" d="M 230.842869 273.312 
L 233.243676 273.312 
L 233.243676 40.694822 
L 230.842869 40.694822 
z
" style="fill:#1f77b4;"/>
   </g>
   <g id="patch_64">
    <path clip-path="url(#p9af873948e)" d="M 233.843878 273.312 
L 236.244684 273.312 
L 236.244684 41.361641 
L 233.843878 41.361641 
z
" style="fill:#1f77b4;"/>
   </g>
   <g id="patch_65">
    <path clip-path="url(#p9af873948e)" d="M 236.844886 273.312 
L 239.245693 273.312 
L 239.245693 45.465141 
L 236.844886 45.465141 
z
" style="fill:#1f77b4;"/>
   </g>
   <g id="patch_66">
    <path clip-path="url(#p9af873948e)" d="M 239.845895 273.312 
L 242.246701 273.312 
L 242.246701 47.36301 
L 239.845895 47.36301 
z
" style="fill:#1f77b4;"/>
   </g>
   <g id="patch_67">
    <path clip-path="url(#p9af873948e)" d="M 242.846903 273.312 
L 245.24771 273.312 
L 245.24771 36.488734 
L 242.846903 36.488734 
z
" style="fill:#1f77b4;"/>
   </g>
   <g id="patch_68">
    <path clip-path="url(#p9af873948e)" d="M 245.847911 273.312 
L 248.248718 273.312 
L 248.248718 27.204564 
L 245.847911 27.204564 
z
" style="fill:#1f77b4;"/>
   </g>
   <g id="patch_69">
    <path clip-path="url(#p9af873948e)" d="M 248.84892 273.312 
L 251.249726 273.312 
L 251.249726 37.66849 
L 248.84892 37.66849 
z
" style="fill:#1f77b4;"/>
   </g>
   <g id="patch_70">
    <path clip-path="url(#p9af873948e)" d="M 251.849928 273.312 
L 254.250735 273.312 
L 254.250735 42.131047 
L 251.849928 42.131047 
z
" style="fill:#1f77b4;"/>
   </g>
   <g id="patch_71">
    <path clip-path="url(#p9af873948e)" d="M 254.850937 273.312 
L 257.251743 273.312 
L 257.251743 47.055247 
L 254.850937 47.055247 
z
" style="fill:#1f77b4;"/>
   </g>
   <g id="patch_72">
    <path clip-path="url(#p9af873948e)" d="M 257.851945 273.312 
L 260.252752 273.312 
L 260.252752 53.826023 
L 257.851945 53.826023 
z
" style="fill:#1f77b4;"/>
   </g>
   <g id="patch_73">
    <path clip-path="url(#p9af873948e)" d="M 260.852953 273.312 
L 263.25376 273.312 
L 263.25376 57.724348 
L 260.852953 57.724348 
z
" style="fill:#1f77b4;"/>
   </g>
   <g id="patch_74">
    <path clip-path="url(#p9af873948e)" d="M 263.853962 273.312 
L 266.254768 273.312 
L 266.254768 68.906387 
L 263.853962 68.906387 
z
" style="fill:#1f77b4;"/>
   </g>
   <g id="patch_75">
    <path clip-path="url(#p9af873948e)" d="M 266.85497 273.312 
L 269.255777 273.312 
L 269.255777 75.420694 
L 266.85497 75.420694 
z
" style="fill:#1f77b4;"/>
   </g>
   <g id="patch_76">
    <path clip-path="url(#p9af873948e)" d="M 269.855979 273.312 
L 272.256785 273.312 
L 272.256785 84.550982 
L 269.855979 84.550982 
z
" style="fill:#1f77b4;"/>
   </g>
   <g id="patch_77">
    <path clip-path="url(#p9af873948e)" d="M 272.856987 273.312 
L 275.257794 273.312 
L 275.257794 95.57914 
L 272.856987 95.57914 
z
" style="fill:#1f77b4;"/>
   </g>
   <g id="patch_78">
    <path clip-path="url(#p9af873948e)" d="M 275.857995 273.312 
L 278.258802 273.312 
L 278.258802 110.19786 
L 275.857995 110.19786 
z
" style="fill:#1f77b4;"/>
   </g>
   <g id="patch_79">
    <path clip-path="url(#p9af873948e)" d="M 278.859004 273.312 
L 281.25981 273.312 
L 281.25981 112.967722 
L 278.859004 112.967722 
z
" style="fill:#1f77b4;"/>
   </g>
   <g id="patch_80">
    <path clip-path="url(#p9af873948e)" d="M 281.860012 273.312 
L 284.260819 273.312 
L 284.260819 111.42891 
L 281.860012 111.42891 
z
" style="fill:#1f77b4;"/>
   </g>
   <g id="patch_81">
    <path clip-path="url(#p9af873948e)" d="M 284.861021 273.312 
L 287.261827 273.312 
L 287.261827 109.838803 
L 284.861021 109.838803 
z
" style="fill:#1f77b4;"/>
   </g>
   <g id="patch_82">
    <path clip-path="url(#p9af873948e)" d="M 287.862029 273.312 
L 290.262836 273.312 
L 290.262836 108.710341 
L 287.862029 108.710341 
z
" style="fill:#1f77b4;"/>
   </g>
   <g id="patch_83">
    <path clip-path="url(#p9af873948e)" d="M 290.863037 273.312 
L 293.263844 273.312 
L 293.263844 106.145653 
L 290.863037 106.145653 
z
" style="fill:#1f77b4;"/>
   </g>
   <g id="patch_84">
    <path clip-path="url(#p9af873948e)" d="M 293.864046 273.312 
L 296.264852 273.312 
L 296.264852 105.991772 
L 293.864046 105.991772 
z
" style="fill:#1f77b4;"/>
   </g>
   <g id="patch_85">
    <path clip-path="url(#p9af873948e)" d="M 296.865054 273.312 
L 299.265861 273.312 
L 299.265861 101.067571 
L 296.865054 101.067571 
z
" style="fill:#1f77b4;"/>
   </g>
   <g id="patch_86">
    <path clip-path="url(#p9af873948e)" d="M 299.866063 273.312 
L 302.266869 273.312 
L 302.266869 98.554177 
L 299.866063 98.554177 
z
" style="fill:#1f77b4;"/>
   </g>
   <g id="patch_87">
    <path clip-path="url(#p9af873948e)" d="M 302.867071 273.312 
L 305.267878 273.312 
L 305.267878 103.529672 
L 302.867071 103.529672 
z
" style="fill:#1f77b4;"/>
   </g>
   <g id="patch_88">
    <path clip-path="url(#p9af873948e)" d="M 305.868079 273.312 
L 308.268886 273.312 
L 308.268886 104.042609 
L 305.868079 104.042609 
z
" style="fill:#1f77b4;"/>
   </g>
   <g id="patch_89">
    <path clip-path="url(#p9af873948e)" d="M 308.869088 273.312 
L 311.269895 273.312 
L 311.269895 105.42754 
L 308.869088 105.42754 
z
" style="fill:#1f77b4;"/>
   </g>
   <g id="patch_90">
    <path clip-path="url(#p9af873948e)" d="M 311.870096 273.312 
L 314.270903 273.312 
L 314.270903 112.65996 
L 311.870096 112.65996 
z
" style="fill:#1f77b4;"/>
   </g>
   <g id="patch_91">
    <path clip-path="url(#p9af873948e)" d="M 314.871105 273.312 
L 317.271911 273.312 
L 317.271911 104.555547 
L 314.871105 104.555547 
z
" style="fill:#1f77b4;"/>
   </g>
   <g id="patch_92">
    <path clip-path="url(#p9af873948e)" d="M 317.872113 273.312 
L 320.27292 273.312 
L 320.27292 98.45159 
L 317.872113 98.45159 
z
" style="fill:#1f77b4;"/>
   </g>
   <g id="patch_93">
    <path clip-path="url(#p9af873948e)" d="M 320.873121 273.312 
L 323.273928 273.312 
L 323.273928 97.733477 
L 320.873121 97.733477 
z
" style="fill:#1f77b4;"/>
   </g>
   <g id="patch_94">
    <path clip-path="url(#p9af873948e)" d="M 323.87413 273.312 
L 326.274937 273.312 
L 326.274937 92.604102 
L 323.87413 92.604102 
z
" style="fill:#1f77b4;"/>
   </g>
   <g id="patch_95">
    <path clip-path="url(#p9af873948e)" d="M 326.875138 273.312 
L 329.275945 273.312 
L 329.275945 94.296796 
L 326.875138 94.296796 
z
" style="fill:#1f77b4;"/>
   </g>
   <g id="patch_96">
    <path clip-path="url(#p9af873948e)" d="M 329.876147 273.312 
L 332.276953 273.312 
L 332.276953 96.39984 
L 329.876147 96.39984 
z
" style="fill:#1f77b4;"/>
   </g>
   <g id="patch_97">
    <path clip-path="url(#p9af873948e)" d="M 332.877155 273.312 
L 335.277962 273.312 
L 335.277962 90.860114 
L 332.877155 90.860114 
z
" style="fill:#1f77b4;"/>
   </g>
   <g id="patch_98">
    <path clip-path="url(#p9af873948e)" d="M 335.878163 273.312 
L 338.27897 273.312 
L 338.27897 98.195121 
L 335.878163 98.195121 
z
" style="fill:#1f77b4;"/>
   </g>
   <g id="patch_99">
    <path clip-path="url(#p9af873948e)" d="M 338.879172 273.312 
L 341.279979 273.312 
L 341.279979 98.605471 
L 338.879172 98.605471 
z
" style="fill:#1f77b4;"/>
   </g>
   <g id="patch_100">
    <path clip-path="url(#p9af873948e)" d="M 341.88018 273.312 
L 344.280987 273.312 
L 344.280987 97.784771 
L 341.88018 97.784771 
z
" style="fill:#1f77b4;"/>
   </g>
   <g id="patch_101">
    <path clip-path="url(#p9af873948e)" d="M 344.881189 273.312 
L 347.281995 273.312 
L 347.281995 101.426628 
L 344.881189 101.426628 
z
" style="fill:#1f77b4;"/>
   </g>
   <g id="patch_102">
    <path clip-path="url(#p9af873948e)" d="M 347.882197 273.312 
L 350.283004 273.312 
L 350.283004 102.093446 
L 347.882197 102.093446 
z
" style="fill:#1f77b4;"/>
   </g>
   <g id="patch_103">
    <path clip-path="url(#p9af873948e)" d="M 350.883205 273.312 
L 353.284012 273.312 
L 353.284012 101.221453 
L 350.883205 101.221453 
z
" style="fill:#1f77b4;"/>
   </g>
   <g id="patch_104">
    <path clip-path="url(#p9af873948e)" d="M 353.884214 273.312 
L 356.285021 273.312 
L 356.285021 101.272746 
L 353.884214 101.272746 
z
" style="fill:#1f77b4;"/>
   </g>
   <g id="patch_105">
    <path clip-path="url(#p9af873948e)" d="M 356.885222 273.312 
L 359.286029 273.312 
L 359.286029 101.529215 
L 356.885222 101.529215 
z
" style="fill:#1f77b4;"/>
   </g>
   <g id="patch_106">
    <path clip-path="url(#p9af873948e)" d="M 359.886231 273.312 
L 362.287037 273.312 
L 362.287037 100.862396 
L 359.886231 100.862396 
z
" style="fill:#1f77b4;"/>
   </g>
   <g id="patch_107">
    <path clip-path="url(#p9af873948e)" d="M 362.887239 273.312 
L 365.288046 273.312 
L 365.288046 104.863309 
L 362.887239 104.863309 
z
" style="fill:#1f77b4;"/>
   </g>
   <g id="patch_108">
    <path clip-path="url(#p9af873948e)" d="M 365.888247 273.312 
L 368.289054 273.312 
L 368.289054 102.657678 
L 365.888247 102.657678 
z
" style="fill:#1f77b4;"/>
   </g>
   <g id="patch_109">
    <path clip-path="url(#p9af873948e)" d="M 368.889256 273.312 
L 371.290063 273.312 
L 371.290063 105.837891 
L 368.889256 105.837891 
z
" style="fill:#1f77b4;"/>
   </g>
   <g id="patch_110">
    <path clip-path="url(#p9af873948e)" d="M 371.890264 273.312 
L 374.291071 273.312 
L 374.291071 108.761635 
L 371.890264 108.761635 
z
" style="fill:#1f77b4;"/>
   </g>
   <g id="patch_111">
    <path clip-path="url(#p9af873948e)" d="M 374.891273 273.312 
L 377.292079 273.312 
L 377.292079 110.249153 
L 374.891273 110.249153 
z
" style="fill:#1f77b4;"/>
   </g>
   <g id="patch_112">
    <path clip-path="url(#p9af873948e)" d="M 377.892281 273.312 
L 380.293088 273.312 
L 380.293088 109.992685 
L 377.892281 109.992685 
z
" style="fill:#1f77b4;"/>
   </g>
   <g id="patch_113">
    <path clip-path="url(#p9af873948e)" d="M 380.893289 273.312 
L 383.294096 273.312 
L 383.294096 113.429366 
L 380.893289 113.429366 
z
" style="fill:#1f77b4;"/>
   </g>
   <g id="patch_114">
    <path clip-path="url(#p9af873948e)" d="M 383.894298 273.312 
L 386.295105 273.312 
L 386.295105 116.609579 
L 383.894298 116.609579 
z
" style="fill:#1f77b4;"/>
   </g>
   <g id="patch_115">
    <path clip-path="url(#p9af873948e)" d="M 386.895306 273.312 
L 389.296113 273.312 
L 389.296113 121.277311 
L 386.895306 121.277311 
z
" style="fill:#1f77b4;"/>
   </g>
   <g id="patch_116">
    <path clip-path="url(#p9af873948e)" d="M 389.896315 273.312 
L 392.297121 273.312 
L 392.297121 123.482942 
L 389.896315 123.482942 
z
" style="fill:#1f77b4;"/>
   </g>
   <g id="patch_117">
    <path clip-path="url(#p9af873948e)" d="M 392.897323 273.312 
L 395.29813 273.312 
L 395.29813 123.021298 
L 392.897323 123.021298 
z
" style="fill:#1f77b4;"/>
   </g>
   <g id="patch_118">
    <path clip-path="url(#p9af873948e)" d="M 395.898331 273.312 
L 398.299138 273.312 
L 398.299138 126.611861 
L 395.898331 126.611861 
z
" style="fill:#1f77b4;"/>
   </g>
   <g id="patch_119">
    <path clip-path="url(#p9af873948e)" d="M 398.89934 273.312 
L 401.300147 273.312 
L 401.300147 131.741237 
L 398.89934 131.741237 
z
" style="fill:#1f77b4;"/>
   </g>
   <g id="patch_120">
    <path clip-path="url(#p9af873948e)" d="M 401.900348 273.312 
L 404.301155 273.312 
L 404.301155 133.587812 
L 401.900348 133.587812 
z
" style="fill:#1f77b4;"/>
   </g>
   <g id="patch_121">
    <path clip-path="url(#p9af873948e)" d="M 404.901357 273.312 
L 407.302163 273.312 
L 407.302163 131.895118 
L 404.901357 131.895118 
z
" style="fill:#1f77b4;"/>
   </g>
   <g id="matplotlib.axis_1">
    <g id="xtick_1">
     <g id="line2d_1">
      <defs>
       <path d="M 0 0 
L 0 3.5 
" id="m65b2b6c3e3" style="stroke:#000000;stroke-width:0.8;"/>
      </defs>
      <g>
       <use style="stroke:#000000;stroke-width:0.8;" x="60.985794" xlink:href="#m65b2b6c3e3" y="273.312"/>
      </g>
     </g>
     <g id="text_1">
      <!-- 2020-10-15 -->
      <g transform="translate(63.145207 326.797591)rotate(-90)scale(0.1 -0.1)">
       <defs>
        <path d="M 1.59375 2.5 
L 1.59375 0 
C 20.296875 0 20.296875 0 23.90625 0 
C 27.5 0 27.5 0 46.796875 0 
C 46.59375 1.953125 46.59375 2.90625 46.59375 4.203125 
C 46.59375 5.4375 46.59375 6.359375 46.796875 8.421875 
C 35.296875 8.421875 30.703125 8.421875 12.203125 8.421875 
L 30.40625 27.515625 
C 40.09375 37.71875 43.09375 43.171875 43.09375 50.59375 
C 43.09375 61.96875 35.296875 69 22.59375 69 
C 15.40625 69 10.5 67 5.59375 62.015625 
L 3.90625 48.421875 
L 6.796875 48.421875 
L 8.09375 53.015625 
C 9.703125 58.796875 13.296875 61.296875 20 61.296875 
C 28.59375 61.296875 34.09375 55.890625 34.09375 47.421875 
C 34.09375 39.921875 29.90625 32.546875 18.59375 20.5625 
z
" id="URW_Palladio_L_Roman-50"/>
        <path d="M 26.296875 69 
C 10.796875 69 2.90625 56.6875 2.90625 32.453125 
C 2.90625 20.71875 5 10.625 8.5 5.71875 
C 12 0.796875 17.59375 -2 23.796875 -2 
C 38.90625 -2 46.5 11.015625 46.5 36.65625 
C 46.5 58.578125 40 69 26.296875 69 
z
M 24.5 65.5 
C 34.203125 65.5 38.09375 55.6875 38.09375 31.640625 
C 38.09375 10.328125 34.296875 1.5 25.09375 1.5 
C 15.40625 1.5 11.296875 11.625 11.296875 36.0625 
C 11.296875 57.1875 15 65.5 24.5 65.5 
z
" id="URW_Palladio_L_Roman-48"/>
        <path d="M 28.203125 22 
L 31.203125 28.703125 
L 30.703125 29.203125 
L 4.40625 29.203125 
L 1.703125 22.5 
L 2.203125 22 
z
" id="URW_Palladio_L_Roman-45"/>
        <path d="M 6.703125 56 
L 7.703125 56 
L 20.59375 61.8125 
C 20.703125 61.90625 20.796875 61.90625 20.90625 61.90625 
C 21.5 61.90625 21.703125 61.015625 21.703125 58.609375 
L 21.703125 9.578125 
C 21.703125 4.3125 20.59375 3.203125 15.203125 3.203125 
L 9.59375 3.203125 
L 9.59375 0 
C 25 0 25 0 26.09375 0 
C 27.40625 0 29.59375 0 33 0 
C 34.203125 0 37.703125 0 41.796875 0 
L 41.796875 3.203125 
L 36.59375 3.203125 
C 31.09375 3.203125 30.09375 4.3125 30.09375 9.5625 
L 30.09375 69.421875 
L 28.703125 69.921875 
C 22.203125 66.515625 15.09375 63.515625 6 60.3125 
z
" id="URW_Palladio_L_Roman-49"/>
        <path d="M 12.703125 60.578125 
C 25.59375 60.578125 31.203125 60.578125 43.203125 60.578125 
L 43.703125 61.046875 
C 43.5 62.75 43.5 63.5 43.5 64.75 
C 43.5 66.078125 43.5 66.828125 43.703125 68.53125 
L 43.203125 69 
C 35.703125 69 31.203125 69 25.796875 69 
C 20.296875 69 15.90625 69 8.40625 69 
L 7.90625 68.796875 
C 8 62.671875 8.09375 58.265625 8.09375 55.046875 
C 8.09375 46.515625 7.796875 36.875 7.5 32.453125 
L 9.5 31.84375 
C 14.203125 36.578125 16.90625 38 21.796875 38 
C 31.40625 38 37.40625 31.140625 37.40625 20.25 
C 37.40625 9.0625 31 2.5 20.09375 2.5 
C 14.703125 2.5 9.703125 4.328125 8.296875 6.9375 
L 3.703125 15.203125 
L 1.296875 13.796875 
C 3.59375 8.0625 4.796875 4.84375 6.203125 0.421875 
C 9 -1.109375 13 -2 17.296875 -2 
C 24 -2 31.09375 0.921875 36.59375 5.75 
C 42.703125 11.1875 45.90625 18.03125 45.90625 25.46875 
C 45.90625 36.859375 37.796875 44.90625 26.40625 44.90625 
C 21.59375 44.90625 18 43.609375 11.796875 39.90625 
z
" id="URW_Palladio_L_Roman-53"/>
       </defs>
       <use transform="scale(0.996264)" xlink:href="#URW_Palladio_L_Roman-50"/>
       <use transform="translate(49.8132 0)scale(0.996264)" xlink:href="#URW_Palladio_L_Roman-48"/>
       <use transform="translate(99.626401 0)scale(0.996264)" xlink:href="#URW_Palladio_L_Roman-50"/>
       <use transform="translate(149.439601 0)scale(0.996264)" xlink:href="#URW_Palladio_L_Roman-48"/>
       <use transform="translate(199.252802 0)scale(0.996264)" xlink:href="#URW_Palladio_L_Roman-45"/>
       <use transform="translate(232.428032 0)scale(0.996264)" xlink:href="#URW_Palladio_L_Roman-49"/>
       <use transform="translate(282.241232 0)scale(0.996264)" xlink:href="#URW_Palladio_L_Roman-48"/>
       <use transform="translate(332.054433 0)scale(0.996264)" xlink:href="#URW_Palladio_L_Roman-45"/>
       <use transform="translate(365.229662 0)scale(0.996264)" xlink:href="#URW_Palladio_L_Roman-49"/>
       <use transform="translate(415.042863 0)scale(0.996264)" xlink:href="#URW_Palladio_L_Roman-53"/>
      </g>
     </g>
    </g>
    <g id="xtick_2">
     <g id="line2d_2">
      <g>
       <use style="stroke:#000000;stroke-width:0.8;" x="112.002937" xlink:href="#m65b2b6c3e3" y="273.312"/>
      </g>
     </g>
     <g id="text_2">
      <!-- 2020-11-01 -->
      <g transform="translate(114.16235 326.797591)rotate(-90)scale(0.1 -0.1)">
       <use transform="scale(0.996264)" xlink:href="#URW_Palladio_L_Roman-50"/>
       <use transform="translate(49.8132 0)scale(0.996264)" xlink:href="#URW_Palladio_L_Roman-48"/>
       <use transform="translate(99.626401 0)scale(0.996264)" xlink:href="#URW_Palladio_L_Roman-50"/>
       <use transform="translate(149.439601 0)scale(0.996264)" xlink:href="#URW_Palladio_L_Roman-48"/>
       <use transform="translate(199.252802 0)scale(0.996264)" xlink:href="#URW_Palladio_L_Roman-45"/>
       <use transform="translate(232.428032 0)scale(0.996264)" xlink:href="#URW_Palladio_L_Roman-49"/>
       <use transform="translate(282.241232 0)scale(0.996264)" xlink:href="#URW_Palladio_L_Roman-49"/>
       <use transform="translate(332.054433 0)scale(0.996264)" xlink:href="#URW_Palladio_L_Roman-45"/>
       <use transform="translate(365.229662 0)scale(0.996264)" xlink:href="#URW_Palladio_L_Roman-48"/>
       <use transform="translate(415.042863 0)scale(0.996264)" xlink:href="#URW_Palladio_L_Roman-49"/>
      </g>
     </g>
    </g>
    <g id="xtick_3">
     <g id="line2d_3">
      <g>
       <use style="stroke:#000000;stroke-width:0.8;" x="154.017054" xlink:href="#m65b2b6c3e3" y="273.312"/>
      </g>
     </g>
     <g id="text_3">
      <!-- 2020-11-15 -->
      <g transform="translate(156.176467 326.797591)rotate(-90)scale(0.1 -0.1)">
       <use transform="scale(0.996264)" xlink:href="#URW_Palladio_L_Roman-50"/>
       <use transform="translate(49.8132 0)scale(0.996264)" xlink:href="#URW_Palladio_L_Roman-48"/>
       <use transform="translate(99.626401 0)scale(0.996264)" xlink:href="#URW_Palladio_L_Roman-50"/>
       <use transform="translate(149.439601 0)scale(0.996264)" xlink:href="#URW_Palladio_L_Roman-48"/>
       <use transform="translate(199.252802 0)scale(0.996264)" xlink:href="#URW_Palladio_L_Roman-45"/>
       <use transform="translate(232.428032 0)scale(0.996264)" xlink:href="#URW_Palladio_L_Roman-49"/>
       <use transform="translate(282.241232 0)scale(0.996264)" xlink:href="#URW_Palladio_L_Roman-49"/>
       <use transform="translate(332.054433 0)scale(0.996264)" xlink:href="#URW_Palladio_L_Roman-45"/>
       <use transform="translate(365.229662 0)scale(0.996264)" xlink:href="#URW_Palladio_L_Roman-49"/>
       <use transform="translate(415.042863 0)scale(0.996264)" xlink:href="#URW_Palladio_L_Roman-53"/>
      </g>
     </g>
    </g>
    <g id="xtick_4">
     <g id="line2d_4">
      <g>
       <use style="stroke:#000000;stroke-width:0.8;" x="202.033189" xlink:href="#m65b2b6c3e3" y="273.312"/>
      </g>
     </g>
     <g id="text_4">
      <!-- 2020-12-01 -->
      <g transform="translate(204.192602 326.797591)rotate(-90)scale(0.1 -0.1)">
       <use transform="scale(0.996264)" xlink:href="#URW_Palladio_L_Roman-50"/>
       <use transform="translate(49.8132 0)scale(0.996264)" xlink:href="#URW_Palladio_L_Roman-48"/>
       <use transform="translate(99.626401 0)scale(0.996264)" xlink:href="#URW_Palladio_L_Roman-50"/>
       <use transform="translate(149.439601 0)scale(0.996264)" xlink:href="#URW_Palladio_L_Roman-48"/>
       <use transform="translate(199.252802 0)scale(0.996264)" xlink:href="#URW_Palladio_L_Roman-45"/>
       <use transform="translate(232.428032 0)scale(0.996264)" xlink:href="#URW_Palladio_L_Roman-49"/>
       <use transform="translate(282.241232 0)scale(0.996264)" xlink:href="#URW_Palladio_L_Roman-50"/>
       <use transform="translate(332.054433 0)scale(0.996264)" xlink:href="#URW_Palladio_L_Roman-45"/>
       <use transform="translate(365.229662 0)scale(0.996264)" xlink:href="#URW_Palladio_L_Roman-48"/>
       <use transform="translate(415.042863 0)scale(0.996264)" xlink:href="#URW_Palladio_L_Roman-49"/>
      </g>
     </g>
    </g>
    <g id="xtick_5">
     <g id="line2d_5">
      <g>
       <use style="stroke:#000000;stroke-width:0.8;" x="244.047306" xlink:href="#m65b2b6c3e3" y="273.312"/>
      </g>
     </g>
     <g id="text_5">
      <!-- 2020-12-15 -->
      <g transform="translate(246.206719 326.797591)rotate(-90)scale(0.1 -0.1)">
       <use transform="scale(0.996264)" xlink:href="#URW_Palladio_L_Roman-50"/>
       <use transform="translate(49.8132 0)scale(0.996264)" xlink:href="#URW_Palladio_L_Roman-48"/>
       <use transform="translate(99.626401 0)scale(0.996264)" xlink:href="#URW_Palladio_L_Roman-50"/>
       <use transform="translate(149.439601 0)scale(0.996264)" xlink:href="#URW_Palladio_L_Roman-48"/>
       <use transform="translate(199.252802 0)scale(0.996264)" xlink:href="#URW_Palladio_L_Roman-45"/>
       <use transform="translate(232.428032 0)scale(0.996264)" xlink:href="#URW_Palladio_L_Roman-49"/>
       <use transform="translate(282.241232 0)scale(0.996264)" xlink:href="#URW_Palladio_L_Roman-50"/>
       <use transform="translate(332.054433 0)scale(0.996264)" xlink:href="#URW_Palladio_L_Roman-45"/>
       <use transform="translate(365.229662 0)scale(0.996264)" xlink:href="#URW_Palladio_L_Roman-49"/>
       <use transform="translate(415.042863 0)scale(0.996264)" xlink:href="#URW_Palladio_L_Roman-53"/>
      </g>
     </g>
    </g>
    <g id="xtick_6">
     <g id="line2d_6">
      <g>
       <use style="stroke:#000000;stroke-width:0.8;" x="295.064449" xlink:href="#m65b2b6c3e3" y="273.312"/>
      </g>
     </g>
     <g id="text_6">
      <!-- 2021-01-01 -->
      <g transform="translate(297.223862 326.797591)rotate(-90)scale(0.1 -0.1)">
       <use transform="scale(0.996264)" xlink:href="#URW_Palladio_L_Roman-50"/>
       <use transform="translate(49.8132 0)scale(0.996264)" xlink:href="#URW_Palladio_L_Roman-48"/>
       <use transform="translate(99.626401 0)scale(0.996264)" xlink:href="#URW_Palladio_L_Roman-50"/>
       <use transform="translate(149.439601 0)scale(0.996264)" xlink:href="#URW_Palladio_L_Roman-49"/>
       <use transform="translate(199.252802 0)scale(0.996264)" xlink:href="#URW_Palladio_L_Roman-45"/>
       <use transform="translate(232.428032 0)scale(0.996264)" xlink:href="#URW_Palladio_L_Roman-48"/>
       <use transform="translate(282.241232 0)scale(0.996264)" xlink:href="#URW_Palladio_L_Roman-49"/>
       <use transform="translate(332.054433 0)scale(0.996264)" xlink:href="#URW_Palladio_L_Roman-45"/>
       <use transform="translate(365.229662 0)scale(0.996264)" xlink:href="#URW_Palladio_L_Roman-48"/>
       <use transform="translate(415.042863 0)scale(0.996264)" xlink:href="#URW_Palladio_L_Roman-49"/>
      </g>
     </g>
    </g>
    <g id="xtick_7">
     <g id="line2d_7">
      <g>
       <use style="stroke:#000000;stroke-width:0.8;" x="337.078567" xlink:href="#m65b2b6c3e3" y="273.312"/>
      </g>
     </g>
     <g id="text_7">
      <!-- 2021-01-15 -->
      <g transform="translate(339.23798 326.797591)rotate(-90)scale(0.1 -0.1)">
       <use transform="scale(0.996264)" xlink:href="#URW_Palladio_L_Roman-50"/>
       <use transform="translate(49.8132 0)scale(0.996264)" xlink:href="#URW_Palladio_L_Roman-48"/>
       <use transform="translate(99.626401 0)scale(0.996264)" xlink:href="#URW_Palladio_L_Roman-50"/>
       <use transform="translate(149.439601 0)scale(0.996264)" xlink:href="#URW_Palladio_L_Roman-49"/>
       <use transform="translate(199.252802 0)scale(0.996264)" xlink:href="#URW_Palladio_L_Roman-45"/>
       <use transform="translate(232.428032 0)scale(0.996264)" xlink:href="#URW_Palladio_L_Roman-48"/>
       <use transform="translate(282.241232 0)scale(0.996264)" xlink:href="#URW_Palladio_L_Roman-49"/>
       <use transform="translate(332.054433 0)scale(0.996264)" xlink:href="#URW_Palladio_L_Roman-45"/>
       <use transform="translate(365.229662 0)scale(0.996264)" xlink:href="#URW_Palladio_L_Roman-49"/>
       <use transform="translate(415.042863 0)scale(0.996264)" xlink:href="#URW_Palladio_L_Roman-53"/>
      </g>
     </g>
    </g>
    <g id="xtick_8">
     <g id="line2d_8">
      <g>
       <use style="stroke:#000000;stroke-width:0.8;" x="388.09571" xlink:href="#m65b2b6c3e3" y="273.312"/>
      </g>
     </g>
     <g id="text_8">
      <!-- 2021-02-01 -->
      <g transform="translate(390.255123 326.797591)rotate(-90)scale(0.1 -0.1)">
       <use transform="scale(0.996264)" xlink:href="#URW_Palladio_L_Roman-50"/>
       <use transform="translate(49.8132 0)scale(0.996264)" xlink:href="#URW_Palladio_L_Roman-48"/>
       <use transform="translate(99.626401 0)scale(0.996264)" xlink:href="#URW_Palladio_L_Roman-50"/>
       <use transform="translate(149.439601 0)scale(0.996264)" xlink:href="#URW_Palladio_L_Roman-49"/>
       <use transform="translate(199.252802 0)scale(0.996264)" xlink:href="#URW_Palladio_L_Roman-45"/>
       <use transform="translate(232.428032 0)scale(0.996264)" xlink:href="#URW_Palladio_L_Roman-48"/>
       <use transform="translate(282.241232 0)scale(0.996264)" xlink:href="#URW_Palladio_L_Roman-50"/>
       <use transform="translate(332.054433 0)scale(0.996264)" xlink:href="#URW_Palladio_L_Roman-45"/>
       <use transform="translate(365.229662 0)scale(0.996264)" xlink:href="#URW_Palladio_L_Roman-48"/>
       <use transform="translate(415.042863 0)scale(0.996264)" xlink:href="#URW_Palladio_L_Roman-49"/>
      </g>
     </g>
    </g>
   </g>
   <g id="matplotlib.axis_2">
    <g id="ytick_1">
     <g id="line2d_9">
      <defs>
       <path d="M 0 0 
L -3.5 0 
" id="m500c81b7cd" style="stroke:#000000;stroke-width:0.8;"/>
      </defs>
      <g>
       <use style="stroke:#000000;stroke-width:0.8;" x="50.482264" xlink:href="#m500c81b7cd" y="273.312"/>
      </g>
     </g>
     <g id="text_9">
      <!-- $\mathdefault{0}$ -->
      <g transform="translate(38.500944 276.876119)scale(0.1 -0.1)">
       <use transform="scale(0.996264)" xlink:href="#URW_Palladio_L_Roman-48"/>
      </g>
     </g>
    </g>
    <g id="ytick_2">
     <g id="line2d_10">
      <g>
       <use style="stroke:#000000;stroke-width:0.8;" x="50.482264" xlink:href="#m500c81b7cd" y="242.35109"/>
      </g>
     </g>
     <g id="text_10">
      <!-- $\mathdefault{1}$ -->
      <g transform="translate(38.500944 245.915208)scale(0.1 -0.1)">
       <use transform="scale(0.996264)" xlink:href="#URW_Palladio_L_Roman-49"/>
      </g>
     </g>
    </g>
    <g id="ytick_3">
     <g id="line2d_11">
      <g>
       <use style="stroke:#000000;stroke-width:0.8;" x="50.482264" xlink:href="#m500c81b7cd" y="211.390179"/>
      </g>
     </g>
     <g id="text_11">
      <!-- $\mathdefault{2}$ -->
      <g transform="translate(38.500944 214.954298)scale(0.1 -0.1)">
       <use transform="scale(0.996264)" xlink:href="#URW_Palladio_L_Roman-50"/>
      </g>
     </g>
    </g>
    <g id="ytick_4">
     <g id="line2d_12">
      <g>
       <use style="stroke:#000000;stroke-width:0.8;" x="50.482264" xlink:href="#m500c81b7cd" y="180.429269"/>
      </g>
     </g>
     <g id="text_12">
      <!-- $\mathdefault{3}$ -->
      <g transform="translate(38.500944 183.993387)scale(0.1 -0.1)">
       <defs>
        <path d="M 4.296875 49.953125 
L 7.40625 49.953125 
L 9.203125 55.53125 
C 10.296875 58.90625 16.59375 62.296875 21.796875 62.296875 
C 28.296875 62.296875 33.59375 57.015625 33.59375 50.75 
C 33.59375 43.28125 27.703125 37 20.59375 37 
C 19.796875 37 18.703125 37 17.40625 37.203125 
L 15.90625 37.203125 
L 14.703125 31.984375 
L 15.40625 31.375 
C 19.203125 33.09375 21.09375 33.59375 23.796875 33.59375 
C 32.09375 33.59375 36.90625 28.265625 36.90625 19.09375 
C 36.90625 8.84375 30.796875 2.109375 21.5 2.109375 
C 16.90625 2.109375 12.796875 3.609375 9.796875 6.421875 
C 7.40625 8.640625 6.09375 10.953125 4.203125 16.390625 
L 1.5 15.390625 
C 3.59375 9.265625 4.40625 5.640625 5 0.609375 
C 10.296875 -1.203125 14.703125 -2 18.40625 -2 
C 26.40625 -2 35.59375 2.515625 41.09375 9.265625 
C 44.5 13.390625 46.203125 17.8125 46.203125 22.53125 
C 46.203125 27.359375 44.203125 31.59375 40.59375 34.09375 
C 38.09375 35.90625 35.796875 36.71875 30.796875 37.609375 
C 38.796875 43.796875 41.796875 48.375 41.796875 54.25 
C 41.796875 63.125 34.40625 69 23.296875 69 
C 16.5 69 12 67.109375 7.203125 62.328125 
z
" id="URW_Palladio_L_Roman-51"/>
       </defs>
       <use transform="scale(0.996264)" xlink:href="#URW_Palladio_L_Roman-51"/>
      </g>
     </g>
    </g>
    <g id="ytick_5">
     <g id="line2d_13">
      <g>
       <use style="stroke:#000000;stroke-width:0.8;" x="50.482264" xlink:href="#m500c81b7cd" y="149.468358"/>
      </g>
     </g>
     <g id="text_13">
      <!-- $\mathdefault{4}$ -->
      <g transform="translate(38.500944 153.032477)scale(0.1 -0.1)">
       <defs>
        <path d="M 28 18 
L 28 10.515625 
C 28 4.515625 26.90625 3.109375 22 3.109375 
L 15.796875 3.109375 
L 15.796875 0 
C 29.09375 0 29.09375 0 31.5 0 
C 33.90625 0 33.90625 0 47.203125 0 
L 47.203125 3.109375 
L 42.40625 3.109375 
C 37.5 3.109375 36.40625 4.40625 36.40625 10.453125 
L 36.40625 18 
C 42.296875 18 44.40625 18 47.203125 17.703125 
L 47.203125 24.8125 
C 42.5 24.421875 40.59375 24.421875 39.09375 24.421875 
L 38.796875 24.421875 
L 36.40625 24.421875 
L 36.40625 38.390625 
C 36.40625 56.25 36.59375 64.875 37.09375 69 
L 35.90625 69.5 
L 28.5 66.796875 
L 0.203125 20.296875 
L 1.296875 18 
z
M 28 24.421875 
L 6.5 24.421875 
L 28 59.78125 
z
" id="URW_Palladio_L_Roman-52"/>
       </defs>
       <use transform="scale(0.996264)" xlink:href="#URW_Palladio_L_Roman-52"/>
      </g>
     </g>
    </g>
    <g id="ytick_6">
     <g id="line2d_14">
      <g>
       <use style="stroke:#000000;stroke-width:0.8;" x="50.482264" xlink:href="#m500c81b7cd" y="118.507448"/>
      </g>
     </g>
     <g id="text_14">
      <!-- $\mathdefault{5}$ -->
      <g transform="translate(38.500944 122.071567)scale(0.1 -0.1)">
       <use transform="scale(0.996264)" xlink:href="#URW_Palladio_L_Roman-53"/>
      </g>
     </g>
    </g>
    <g id="ytick_7">
     <g id="line2d_15">
      <g>
       <use style="stroke:#000000;stroke-width:0.8;" x="50.482264" xlink:href="#m500c81b7cd" y="87.546538"/>
      </g>
     </g>
     <g id="text_15">
      <!-- $\mathdefault{6}$ -->
      <g transform="translate(38.500944 91.110656)scale(0.1 -0.1)">
       <defs>
        <path d="M 41.59375 67.34375 
L 37.90625 69.046875 
C 28.296875 65.84375 24.203125 63.84375 19.09375 59.4375 
C 8.796875 50.71875 3.203125 38.5 3.203125 24.765625 
C 3.203125 8.21875 11.203125 -2 24.09375 -2 
C 37.09375 -2 46.796875 8.3125 46.796875 21.953125 
C 46.796875 33.484375 39.90625 41 29.296875 41 
C 24.296875 41 21.296875 39.6875 15.40625 34.984375 
C 14.296875 34.078125 14.203125 33.984375 13.09375 33.1875 
C 15.203125 51.3125 23.59375 61.140625 41.59375 66.546875 
z
M 25.5 34.984375 
C 33.09375 34.984375 38.203125 28.375 38.203125 18.453125 
C 38.203125 8.015625 33.09375 1.296875 25.40625 1.296875 
C 16.90625 1.296875 12.296875 8.609375 12.296875 22.0625 
C 12.296875 25.5625 12.703125 27.46875 13.796875 29.171875 
C 16 32.578125 20.703125 34.984375 25.5 34.984375 
z
" id="URW_Palladio_L_Roman-54"/>
       </defs>
       <use transform="scale(0.996264)" xlink:href="#URW_Palladio_L_Roman-54"/>
      </g>
     </g>
    </g>
    <g id="ytick_8">
     <g id="line2d_16">
      <g>
       <use style="stroke:#000000;stroke-width:0.8;" x="50.482264" xlink:href="#m500c81b7cd" y="56.585627"/>
      </g>
     </g>
     <g id="text_16">
      <!-- $\mathdefault{7}$ -->
      <g transform="translate(38.500944 60.149746)scale(0.1 -0.1)">
       <defs>
        <path d="M 5.59375 0.5 
L 6.5 -0.796875 
C 10.40625 -0.5 10.40625 -0.5 11.09375 -0.5 
C 11.796875 -0.5 11.796875 -0.5 15.703125 -0.796875 
C 19.90625 10.140625 24.796875 20.578125 31.40625 32.609375 
L 49.703125 65.609375 
L 49.703125 68.3125 
C 38.90625 68.3125 35.40625 68.3125 27.296875 68.3125 
C 20 68.3125 15.09375 68.3125 5.40625 68.3125 
L 4.40625 68.109375 
C 4.703125 58.59375 4.703125 58.59375 4.703125 57.578125 
C 4.703125 56.46875 4.703125 56.46875 4.40625 47.359375 
L 7.40625 47.359375 
L 8.09375 52.96875 
C 8.90625 59.203125 9.59375 60 14.203125 60 
L 40.90625 60 
C 36.90625 51.765625 33.796875 45.953125 30 39.828125 
z
" id="URW_Palladio_L_Roman-55"/>
       </defs>
       <use transform="scale(0.996264)" xlink:href="#URW_Palladio_L_Roman-55"/>
      </g>
     </g>
    </g>
    <g id="ytick_9">
     <g id="line2d_17">
      <g>
       <use style="stroke:#000000;stroke-width:0.8;" x="50.482264" xlink:href="#m500c81b7cd" y="25.624717"/>
      </g>
     </g>
     <g id="text_17">
      <!-- $\mathdefault{8}$ -->
      <g transform="translate(38.500944 29.188835)scale(0.1 -0.1)">
       <defs>
        <path d="M 16.796875 34.546875 
C 12.703125 32.65625 11 31.546875 8.796875 29.4375 
C 5 25.640625 3 21.125 3 15.921875 
C 3 5.609375 11.296875 -2 22.59375 -2 
C 35.59375 -2 46.40625 8.21875 46.40625 20.625 
C 46.40625 28.640625 42.703125 32.953125 31.296875 38.15625 
C 40.40625 44.375 43.59375 48.578125 43.59375 54.578125 
C 43.59375 63.1875 36.5 69 25.90625 69 
C 14 69 5.296875 61.390625 5.296875 50.890625 
C 5.296875 44.078125 8 40.265625 16.796875 34.546875 
z
M 28.40625 29.546875 
C 34.703125 26.734375 38.5 21.828125 38.5 16.4375 
C 38.5 8.015625 32.203125 1.40625 24.09375 1.40625 
C 15.59375 1.40625 10.09375 7.421875 10.09375 16.734375 
C 10.09375 24.03125 13 28.640625 20.40625 33.15625 
z
M 22.296875 42.375 
C 16 45.46875 12.796875 49.484375 12.796875 54.484375 
C 12.796875 61.09375 17.59375 65.59375 24.703125 65.59375 
C 32 65.59375 36.796875 60.796875 36.796875 53.46875 
C 36.796875 47.78125 34.296875 43.875 27.796875 39.65625 
z
" id="URW_Palladio_L_Roman-56"/>
       </defs>
       <use transform="scale(0.996264)" xlink:href="#URW_Palladio_L_Roman-56"/>
      </g>
     </g>
    </g>
    <g id="text_18">
     <!-- mortality (WHO) -->
     <g transform="translate(14.328237 178.352731)rotate(-90)scale(0.1 -0.1)">
      <defs>
       <path d="M 1.796875 40.078125 
L 5.5 40.078125 
C 9.5 40.078125 9.90625 39.375 9.90625 32.71875 
L 9.90625 10.046875 
C 9.90625 3.703125 9.59375 3 6.203125 3 
L 1.59375 3 
L 1.59375 -0.109375 
C 11.203125 -0.109375 11.5 -0.109375 14.296875 -0.109375 
C 17.09375 -0.109375 19.703125 -0.109375 26.203125 -0.109375 
L 26.203125 2.796875 
L 22 3.203125 
C 18.59375 3.203125 18.296875 3.90625 18.296875 10.21875 
L 18.296875 31.46875 
C 18.296875 35.96875 24.90625 40.875 30.90625 40.875 
C 36.296875 40.875 40 35.734375 40 28.09375 
L 40 10.046875 
C 40 3.703125 39.703125 3 36.296875 3 
L 31.703125 3 
L 31.703125 -0.109375 
C 41.703125 -0.109375 41.703125 -0.109375 44.203125 -0.109375 
C 46.703125 -0.109375 46.703125 -0.109375 56.703125 -0.109375 
L 56.703125 3 
L 52.09375 3 
C 48.703125 3 48.40625 3.703125 48.40625 10.046875 
L 48.40625 31.421875 
C 48.40625 35.9375 55 40.875 61 40.875 
C 66.40625 40.875 70.09375 35.796875 70.09375 28.21875 
L 70.09375 -0.109375 
C 76.203125 -0.109375 76.296875 -0.109375 78 -0.109375 
C 79.296875 -0.109375 79.296875 -0.109375 86.90625 -0.109375 
L 86.90625 3 
L 82.203125 3 
C 78.796875 3 78.5 3.703125 78.5 10.046875 
L 78.5 30.78125 
C 78.5 40.75 72.703125 47 63.5 47 
C 60 47 57.09375 46.09375 55.296875 44.484375 
L 47.703125 37.6875 
C 44.5 44.28125 40.40625 47 33.5 47 
C 29.796875 47 27 46.09375 25.203125 44.484375 
L 18.296875 38.078125 
L 18.296875 46.59375 
L 17.40625 47 
C 12.296875 44.890625 7.09375 43.484375 1.796875 42.890625 
z
" id="URW_Palladio_L_Roman-109"/>
       <path d="M 27.90625 47 
C 13.296875 47 3.203125 36.671875 3.203125 21.75 
C 3.203125 7.609375 12.09375 -2 25 -2 
C 40.40625 -2 51.40625 8.71875 51.40625 23.75 
C 51.40625 37.28125 41.59375 47 27.90625 47 
z
M 26.09375 43.6875 
C 35.296875 43.6875 42.09375 33.671875 42.09375 20.046875 
C 42.09375 8.515625 37 1.296875 28.90625 1.296875 
C 19.09375 1.296875 12.5 10.921875 12.5 25.15625 
C 12.5 37.171875 17.296875 43.6875 26.09375 43.6875 
z
" id="URW_Palladio_L_Roman-111"/>
       <path d="M 2.296875 40.078125 
L 6 40.078125 
C 10 40.078125 10.40625 39.375 10.40625 32.71875 
L 10.40625 10.046875 
C 10.40625 3.703125 10.09375 3 6.703125 3 
L 2.09375 3 
L 2.09375 -0.109375 
C 9.296875 -0.109375 11.90625 -0.109375 14.40625 -0.109375 
C 16.40625 -0.109375 16.40625 -0.109375 28.703125 -0.109375 
L 28.703125 3 
L 23.5 3 
C 19 3 18.796875 3.296875 18.796875 9.96875 
L 18.796875 27.359375 
C 18.796875 33.421875 22.796875 38.484375 27.703125 38.484375 
C 30.703125 38.484375 32.796875 37.078125 34.40625 33.890625 
L 36.5 33.890625 
L 37.40625 45.890625 
C 36.296875 46.59375 34.5 47 32.703125 47 
C 29.703125 47 26.5 45.390625 24.40625 42.890625 
L 18.796875 36.28125 
L 18.796875 46.59375 
L 17.90625 47 
C 12.796875 44.890625 7.59375 43.484375 2.296875 42.890625 
z
" id="URW_Palladio_L_Roman-114"/>
       <path d="M 9.796875 38.6875 
L 9.796875 9.671875 
C 9.796875 2.21875 13.09375 -1 20.796875 -1 
C 23.09375 -1 25.5 -0.5 26.09375 0.203125 
L 30.90625 5.515625 
L 29.59375 7.234375 
C 27.09375 5.8125 25.59375 5.3125 23.703125 5.3125 
C 19.796875 5.3125 18.203125 7.34375 18.203125 12.3125 
L 18.203125 38.890625 
L 31 38.890625 
L 31.90625 44 
L 18.203125 44 
L 18.203125 47.75 
C 18.203125 51.890625 18.5 55.421875 19.296875 61.734375 
L 18.09375 62.828125 
C 15.703125 61.328125 12.703125 60.03125 9.59375 59.03125 
C 9.90625 56.015625 10 54.109375 10 51.109375 
L 10 44.09375 
L 2.203125 40.59375 
L 2.203125 38.6875 
z
" id="URW_Palladio_L_Roman-116"/>
       <path d="M 32.40625 8.40625 
L 31.90625 -0.015625 
C 38.40625 -0.015625 38.40625 -0.015625 39.703125 -0.015625 
C 40.203125 -0.015625 42.703125 -0.015625 47.09375 -0.015625 
L 47.09375 3 
L 43.203125 3 
C 40.796875 3 40.40625 3.8125 40.40625 8.71875 
L 40.40625 27.046875 
C 40.40625 41.6875 36.203125 47 24.59375 47 
C 20.296875 47 16.296875 45.890625 12.5 43.609375 
L 7.203125 40.390625 
L 7.203125 33.921875 
L 9.796875 33.21875 
L 11.09375 36.296875 
C 13.203125 40.984375 14.203125 41.6875 18.796875 41.6875 
C 28.203125 41.6875 32.09375 37.984375 32.40625 28.9375 
L 22.5 27.125 
C 8.90625 24.640625 3.203125 19.953125 3.203125 11.28125 
C 3.203125 3.5 7.90625 -1 15.796875 -1 
C 17.59375 -1 19.296875 -0.703125 20 -0.203125 
z
M 32.40625 12.59375 
C 29.5 8.5 23.203125 4.71875 19.296875 4.71875 
C 15.296875 4.71875 11.796875 8.40625 11.796875 12.6875 
C 11.796875 16.375 13.796875 19.859375 16.796875 21.75 
C 19.296875 23.25 24.796875 24.640625 32.40625 25.75 
z
" id="URW_Palladio_L_Roman-97"/>
       <path d="M 2.296875 66.5 
L 7.90625 66.5 
C 9.703125 66.5 10.40625 65.390625 10.40625 62.375 
L 10.40625 10.171875 
C 10.40625 3.8125 10.09375 3.109375 6.703125 3.109375 
L 2.09375 3.109375 
L 2.09375 0 
C 12.09375 0 12.09375 0 14.59375 0 
C 17.09375 0 17.09375 0 27.09375 0 
L 27.09375 3.109375 
L 22.5 3.109375 
C 19.09375 3.109375 18.796875 3.8125 18.796875 10.15625 
L 18.796875 72.203125 
L 17.90625 73.015625 
C 13.5 71.3125 10.203125 70.5 2.296875 69.296875 
z
" id="URW_Palladio_L_Roman-108"/>
       <path d="M 18.796875 46.765625 
L 17.90625 47.171875 
C 12.796875 45.0625 7.59375 43.640625 2.296875 43.046875 
L 2.296875 40.25 
L 6 40.25 
C 10 40.25 10.40625 39.546875 10.40625 32.890625 
L 10.40625 10.171875 
C 10.40625 3.8125 10.09375 3.109375 6.703125 3.109375 
L 2.09375 3.109375 
L 2.09375 0 
C 12.09375 0 12.09375 0 14.59375 0 
C 17.09375 0 17.09375 0 27.09375 0 
L 27.09375 3.109375 
L 22.5 3.109375 
C 19.09375 3.109375 18.796875 3.8125 18.796875 10.171875 
z
M 14.203125 69 
C 11.203125 69 8.59375 66.390625 8.59375 63.375 
C 8.59375 60.46875 11.203125 57.875 14.09375 57.875 
C 17 57.875 19.703125 60.46875 19.703125 63.375 
C 19.703125 66.1875 17 69 14.203125 69 
z
" id="URW_Palladio_L_Roman-105"/>
       <path d="M 29.703125 8.8125 
C 27.5 12.625 26.40625 14.9375 24.59375 19.84375 
L 18.203125 36.671875 
C 17.59375 38.375 17.203125 39.875 17.203125 40.90625 
C 17.203125 42.34375 18.296875 43.1875 20.59375 43.1875 
L 24.40625 43.1875 
L 24.40625 46 
C 14.703125 46 14.703125 46 12.796875 46 
C 10.90625 46 10.90625 46 1.203125 46 
L 1.203125 43.390625 
L 3 43.1875 
C 5.5 42.890625 6.703125 41.78125 8.203125 38.296875 
L 19.09375 12.109375 
C 21.90625 5.3125 22.90625 2.90625 24.703125 -2.09375 
L 22.40625 -8.1875 
C 19.203125 -16.59375 15.296875 -21.28125 11.5 -21.28125 
C 9.90625 -21.28125 8.09375 -20.484375 6.40625 -18.984375 
L 5.09375 -18.984375 
L 2.703125 -26.5 
C 4.59375 -27.5 6.203125 -28 8.09375 -28 
C 14.796875 -28 19.09375 -24.40625 22.90625 -15.703125 
L 43.203125 31.09375 
C 47.203125 40.1875 49.09375 42.890625 51.59375 43.1875 
L 54.40625 43.390625 
L 54.40625 46 
C 46.5 46 46.5 46 44.90625 46 
C 43.296875 46 43.296875 46 35.40625 46 
L 35.40625 43.390625 
L 38 43.1875 
C 40.796875 42.984375 42.203125 42.09375 42.203125 40.6875 
C 42.203125 39.984375 42 39.078125 41.59375 38.078125 
z
" id="URW_Palladio_L_Roman-121"/>
       <path d="M 30.09375 -19.4375 
C 22.90625 -10.515625 20.296875 -5.71875 17.703125 3.3125 
C 15.59375 10.515625 14.59375 18.140625 14.59375 26.65625 
C 14.59375 34.96875 15.59375 42.078125 17.5 48.59375 
C 20.09375 56.90625 22.796875 61.625 30.09375 70.140625 
L 28.203125 72.75 
C 17.796875 63.421875 13.703125 57.921875 9.90625 48.09375 
C 7.296875 41.375 6 34.265625 6 26.65625 
C 6 15.9375 8.5 5.8125 13.296875 -3.203125 
C 16.796875 -9.921875 20 -13.828125 28.203125 -21.546875 
z
" id="URW_Palladio_L_Roman-40"/>
       <path d="M 73.40625 -1 
C 73.796875 0.5 74.09375 1.90625 74.203125 2.40625 
C 74.5 3.40625 75.296875 6.421875 76.09375 9.125 
L 91.40625 63 
C 92 64.796875 93 65.703125 95.203125 65.90625 
L 98.40625 66.203125 
L 98.40625 69 
L 87.90625 69 
C 86.90625 69 86.90625 69 77.40625 69 
L 77.40625 66.203125 
L 81.40625 65.90625 
C 84.90625 65.609375 86 65.109375 86.09375 63.484375 
C 86.09375 63.1875 86.09375 62.890625 86 62.578125 
L 72.796875 13.625 
L 56.40625 59.78125 
C 54.203125 65.796875 53.90625 66.59375 53.09375 70 
L 49.90625 70 
C 47.796875 63.78125 46.09375 59.296875 40.90625 45.859375 
L 28.5 14.328125 
L 18.5 59.296875 
C 18.203125 60.5 18.09375 61.59375 18.09375 62.59375 
C 18.09375 64.796875 19.09375 65.703125 21.796875 65.90625 
L 26 66.203125 
L 26 69 
L 13.40625 69 
C 12.703125 69 8.5 69 0.796875 69 
L 0.796875 66.203125 
L 3.59375 65.90625 
C 6.5 65.609375 7.703125 64.5 8.59375 60.890625 
L 20.5 9.328125 
C 21.796875 3.609375 21.796875 3.515625 22.796875 -1 
L 27.796875 -1 
C 28.703125 2.203125 29.5 4.609375 31.40625 9.328125 
L 48.796875 53.578125 
L 61.296875 19.625 
C 64.59375 10.734375 64.90625 9.921875 68.40625 -1 
z
" id="URW_Palladio_L_Roman-87"/>
       <path d="M 61.59375 12.078125 
C 61.59375 4.015625 61.09375 3.203125 56.5 3.203125 
L 51.703125 3.203125 
L 51.703125 0 
C 57.59375 0 61.09375 0 66.296875 0 
C 71.5 0 75.09375 0 81 0 
L 81 3.203125 
L 76.203125 3.203125 
C 71.59375 3.203125 71.09375 4 71.09375 11.96875 
L 71.09375 57.234375 
C 71.09375 65.1875 71.59375 66 76.203125 66 
L 81 66 
L 81 69.109375 
C 73.703125 69.109375 71.5 69.109375 66.296875 69.109375 
C 61.296875 69.109375 58.90625 69.109375 51.703125 69.109375 
L 51.703125 66 
L 56.5 66 
C 61.09375 66 61.59375 65.1875 61.59375 57.3125 
L 61.59375 39.515625 
C 59.5 39.515625 57.40625 39.515625 53.296875 39.515625 
L 29.90625 39.515625 
C 25.796875 39.515625 23.59375 39.515625 21.59375 39.515625 
L 21.59375 57.3125 
C 21.59375 65.1875 22.09375 66 26.703125 66 
L 31.5 66 
L 31.5 69.109375 
C 24.203125 69.109375 22 69.109375 16.796875 69.109375 
C 11.796875 69.109375 9.40625 69.109375 2.203125 69.109375 
L 2.203125 66 
L 7 66 
C 11.59375 66 12.09375 65.1875 12.09375 57.234375 
L 12.09375 11.96875 
C 12.09375 4 11.59375 3.203125 7 3.203125 
L 2.203125 3.203125 
L 2.203125 0 
C 8.09375 0 11.59375 0 16.796875 0 
C 22 0 25.59375 0 31.5 0 
L 31.5 3.203125 
L 26.703125 3.203125 
C 22.09375 3.203125 21.59375 4.015625 21.59375 12.078125 
L 21.59375 34.796875 
C 24.296875 35 25.90625 35 29.90625 35 
L 53.296875 35 
C 57.296875 35 58.90625 35 61.59375 34.796875 
z
" id="URW_Palladio_L_Roman-72"/>
       <path d="M 40.203125 71 
C 17.40625 71 2.203125 56.1875 2.203125 34.15625 
C 2.203125 13.109375 16.796875 -2 37 -2 
C 59.40625 -2 76.40625 14.71875 76.40625 36.734375 
C 76.40625 57.78125 62.40625 71 40.203125 71 
z
M 38.5 66.78125 
C 55.59375 66.78125 65.703125 54.578125 65.703125 33.75 
C 65.703125 13.90625 56.5 2.203125 41 2.203125 
C 24.203125 2.203125 12.90625 16.421875 12.90625 37.84375 
C 12.90625 56.359375 22.09375 66.78125 38.5 66.78125 
z
" id="URW_Palladio_L_Roman-79"/>
       <path d="M 5.09375 -21.546875 
C 12 -15.03125 14.90625 -11.71875 18 -6.8125 
C 24.09375 2.90625 27.296875 14.53125 27.296875 26.546875 
C 27.296875 34.265625 26 41.375 23.40625 48.09375 
C 19.59375 57.8125 15.5 63.328125 5.09375 72.75 
L 3.203125 70.140625 
C 10.5 61.515625 13.203125 56.8125 15.703125 48.59375 
C 17.703125 42.078125 18.703125 34.96875 18.703125 26.65625 
C 18.703125 18.140625 17.703125 10.515625 15.59375 3.3125 
C 13 -5.71875 10.40625 -10.515625 3.203125 -19.4375 
z
" id="URW_Palladio_L_Roman-41"/>
      </defs>
      <use transform="scale(0.996264)" xlink:href="#URW_Palladio_L_Roman-109"/>
      <use transform="translate(87.969674 0)scale(0.996264)" xlink:href="#URW_Palladio_L_Roman-111"/>
      <use transform="translate(142.365254 0)scale(0.996264)" xlink:href="#URW_Palladio_L_Roman-114"/>
      <use transform="translate(181.717151 0)scale(0.996264)" xlink:href="#URW_Palladio_L_Roman-116"/>
      <use transform="translate(214.194239 0)scale(0.996264)" xlink:href="#URW_Palladio_L_Roman-97"/>
      <use transform="translate(264.007439 0)scale(0.996264)" xlink:href="#URW_Palladio_L_Roman-108"/>
      <use transform="translate(292.997801 0)scale(0.996264)" xlink:href="#URW_Palladio_L_Roman-105"/>
      <use transform="translate(321.988162 0)scale(0.996264)" xlink:href="#URW_Palladio_L_Roman-116"/>
      <use transform="translate(354.46525 0)scale(0.996264)" xlink:href="#URW_Palladio_L_Roman-121"/>
      <use transform="translate(434.763527 0)scale(0.996264)" xlink:href="#URW_Palladio_L_Roman-40"/>
      <use transform="translate(467.938757 0)scale(0.996264)" xlink:href="#URW_Palladio_L_Roman-87"/>
      <use transform="translate(567.565158 0)scale(0.996264)" xlink:href="#URW_Palladio_L_Roman-72"/>
      <use transform="translate(650.453819 0)scale(0.996264)" xlink:href="#URW_Palladio_L_Roman-79"/>
      <use transform="translate(728.7601 0)scale(0.996264)" xlink:href="#URW_Palladio_L_Roman-41"/>
     </g>
     <!-- fatalities over 7 days per 100000 -->
     <g transform="translate(25.691533 210.302644)rotate(-90)scale(0.1 -0.1)">
      <defs>
       <path d="M 34.09375 71.890625 
C 32 72.6875 30.796875 73 29.5 73 
C 26.296875 73 22.796875 71.296875 20.59375 68.8125 
L 14.796875 62.265625 
C 11.90625 58.984375 10.59375 54.53125 10.59375 47.96875 
L 10.59375 43.796875 
L 3.703125 40.6875 
L 3.703125 38.6875 
L 10.59375 38.6875 
L 10.59375 10.171875 
C 10.59375 3.8125 10.296875 3.109375 6.90625 3.109375 
L 2.296875 3.109375 
L 2.296875 0 
C 12.296875 0 12.296875 0 14.796875 0 
C 17.296875 0 17.296875 0 27.296875 0 
L 27.296875 3.109375 
L 22.703125 3.109375 
C 19.296875 3.109375 19 3.828125 19 10.203125 
L 19 38.890625 
L 31.40625 38.890625 
L 32.09375 44 
L 19 44 
L 19 52.34375 
C 19 63.640625 20.296875 66.375 26 66.375 
C 28.703125 66.375 30.5 65.6875 32.90625 63.609375 
L 34.09375 64.203125 
z
" id="URW_Palladio_L_Roman-102"/>
       <path d="M 43.703125 6.984375 
L 42.40625 7.984375 
C 36 4.203125 33.703125 3.3125 29.40625 3.3125 
C 22.90625 3.3125 17.5 6.21875 14.703125 11.109375 
C 12.796875 14.390625 12.09375 17.203125 11.90625 23 
L 26.5 23 
C 33.40625 23 37.703125 23 44.59375 24.125 
C 44.703125 25.53125 44.796875 26.453125 44.796875 27.671875 
C 44.796875 39.375 37.40625 47 26.203125 47 
C 22.5 47 18.203125 45.6875 14.09375 43.28125 
C 5.90625 38.578125 2.59375 32.359375 2.59375 21.9375 
C 2.59375 15.625 4.09375 10.21875 6.796875 6.40625 
C 10.796875 1.109375 17.5 -2 25 -2 
C 28.703125 -2 32.40625 -1.203125 36.5 0.578125 
C 39.203125 1.6875 41.296875 2.984375 41.703125 3.59375 
z
M 35.90625 26.40625 
C 30.703125 26.40625 28.296875 26.40625 24.703125 26.40625 
C 20.09375 26.40625 17.5 26.40625 12.09375 26.90625 
C 12.09375 31.671875 12.5 33.890625 13.796875 36.515625 
C 15.90625 40.96875 20.203125 43.6875 25 43.6875 
C 28.296875 43.6875 30.90625 42.359375 32.703125 39.59375 
C 34.90625 36.234375 35.59375 33.265625 35.90625 26.40625 
z
" id="URW_Palladio_L_Roman-101"/>
       <path d="M 4.09375 14.328125 
C 4.09375 7.421875 3.796875 4.40625 3 0.40625 
C 8.203125 -1.296875 12.09375 -2 16.703125 -2 
C 29.796875 -2 39.09375 5.015625 39.09375 14.828125 
C 39.09375 17.9375 38.203125 20.234375 36.296875 22.25 
C 33.703125 24.75 30.40625 25.953125 21.59375 27.65625 
C 13.40625 29.265625 10.703125 31.265625 10.703125 35.875 
C 10.703125 40.875 14.203125 43.6875 20.296875 43.6875 
C 27 43.6875 32.09375 40.1875 32.09375 35.46875 
L 32.09375 33.171875 
L 34.90625 33.171875 
C 35 38.984375 35.09375 41.375 35.40625 44.484375 
C 30.09375 46.296875 26.5 47 22.40625 47 
C 10.796875 47 3.703125 41.484375 3.703125 32.46875 
C 3.703125 27.65625 5.90625 24.25 10.5 22.140625 
C 13.203125 20.9375 18.5 19.34375 25.296875 17.828125 
C 29.796875 16.828125 31.703125 14.734375 31.703125 10.921875 
C 31.703125 5.515625 26.703125 1.703125 19.59375 1.703125 
C 12.296875 1.703125 7.09375 5.203125 7.09375 10.21875 
L 7.09375 14.328125 
z
" id="URW_Palladio_L_Roman-115"/>
       <path d="M 53.90625 43 
L 53.90625 45.8125 
C 47.90625 45.8125 46.09375 45.8125 44.5 45.8125 
C 42.90625 45.8125 41.09375 45.8125 35.09375 45.8125 
L 35.09375 43 
L 39.203125 43 
C 40.796875 43 41.59375 42.09375 41.59375 40.484375 
C 41.59375 38.890625 40.90625 36.203125 39.703125 33.1875 
L 35.5 22.578125 
C 34.296875 19.671875 33.09375 16.875 29.296875 8.578125 
L 17.40625 37.390625 
C 16.796875 38.78125 16.5 40.09375 16.5 41.1875 
C 16.5 42.296875 17.40625 43 19 43 
L 23.90625 43 
L 23.90625 45.8125 
C 14.09375 45.8125 14.09375 45.8125 12.203125 45.8125 
C 10.296875 45.8125 5.5 45.8125 0.59375 45.8125 
L 0.59375 43 
L 4 43 
C 5.5 42.796875 6 42.203125 7.09375 39.703125 
L 24.296875 -0.5 
L 29.296875 -0.5 
C 29.90625 1.203125 30.90625 3.796875 30.90625 4 
C 32 6.984375 33.296875 10.375 33.40625 10.375 
L 45.203125 36.3125 
C 47.40625 41.015625 48.796875 42.796875 50.796875 43 
z
" id="URW_Palladio_L_Roman-118"/>
       <path d="M 41.203125 43.78125 
C 35.59375 46.1875 32.796875 47 29.296875 47 
C 26.59375 47 24.203125 46.390625 21.703125 45.109375 
L 12.90625 40.515625 
C 7.203125 37.515625 3.5 30.234375 3.5 21.75 
C 3.5 13.765625 6.203125 7.1875 11.09375 3.1875 
C 14.5 0.296875 19.203125 -1 25.703125 -1 
C 27.703125 -1 30 -0.59375 30.5 -0.203125 
L 41.59375 9.109375 
L 41.09375 -0.109375 
C 46 -0.109375 47.59375 -0.109375 48.796875 -0.109375 
C 49.59375 -0.109375 51 -0.109375 53.09375 -0.109375 
C 53.796875 -0.109375 55.796875 -0.109375 57.90625 -0.109375 
L 57.90625 3 
L 53.296875 3 
C 49.90625 3 49.59375 3.703125 49.59375 10.046875 
L 49.59375 71.984375 
L 48.703125 72.796875 
C 44.296875 71.09375 41 70.28125 33.09375 69.078125 
L 33.09375 66.28125 
L 38.703125 66.28125 
C 40.5 66.28125 41.203125 65.171875 41.203125 62.15625 
z
M 41.203125 22.25 
C 41.203125 15.765625 41 14.78125 39.703125 12.484375 
C 36.90625 7.796875 32 4.71875 27.296875 4.71875 
C 18.5 4.71875 12.203125 13.1875 12.203125 25.046875 
C 12.203125 35.90625 17.59375 42.28125 26.59375 42.28125 
C 30.40625 42.28125 34.40625 40.984375 37.90625 38.59375 
C 40 37.203125 41.203125 35.90625 41.203125 35.09375 
z
" id="URW_Palladio_L_Roman-100"/>
       <path d="M 1 40.078125 
L 4.703125 40.078125 
C 8.703125 40.078125 9.09375 39.375 9.09375 32.734375 
L 9.09375 -17.84375 
C 9.09375 -24.1875 8.796875 -24.890625 5.40625 -24.890625 
L 0.796875 -24.890625 
L 0.796875 -28 
C 10.796875 -28 10.796875 -28 13.296875 -28 
C 15.796875 -28 15.796875 -28 25.796875 -28 
L 25.796875 -24.890625 
L 21.203125 -24.890625 
C 17.796875 -24.890625 17.5 -24.171875 17.5 -17.78125 
L 17.5 1.390625 
C 20.5 -0.40625 23.703125 -1.109375 28.203125 -1.109375 
C 31.09375 -1.109375 33.703125 -0.5 35.296875 0.5 
L 46.703125 7.890625 
C 50.703125 10.5 55.40625 20.78125 55.40625 27.1875 
C 55.40625 38.296875 46.203125 47 34.59375 47 
C 30.90625 47 27.296875 45.984375 25.703125 44.484375 
L 17.5 36.984375 
L 17.5 46.59375 
L 16.59375 47 
C 11.5 44.890625 6.296875 43.484375 1 42.890625 
z
M 17.5 30.6875 
C 17.5 32.078125 18 33.1875 19.296875 34.890625 
C 22.203125 38.578125 26.296875 40.484375 31.296875 40.484375 
C 40.703125 40.484375 46.703125 33.890625 46.703125 23.5 
C 46.703125 12.296875 40 4 31 4 
C 25.5 4 21.40625 5.8125 17.5 9.890625 
z
" id="URW_Palladio_L_Roman-112"/>
      </defs>
      <use transform="scale(0.996264)" xlink:href="#URW_Palladio_L_Roman-102"/>
      <use transform="translate(33.17523 0)scale(0.996264)" xlink:href="#URW_Palladio_L_Roman-97"/>
      <use transform="translate(82.98843 0)scale(0.996264)" xlink:href="#URW_Palladio_L_Roman-116"/>
      <use transform="translate(115.465518 0)scale(0.996264)" xlink:href="#URW_Palladio_L_Roman-97"/>
      <use transform="translate(165.278719 0)scale(0.996264)" xlink:href="#URW_Palladio_L_Roman-108"/>
      <use transform="translate(194.26908 0)scale(0.996264)" xlink:href="#URW_Palladio_L_Roman-105"/>
      <use transform="translate(223.259442 0)scale(0.996264)" xlink:href="#URW_Palladio_L_Roman-116"/>
      <use transform="translate(255.736529 0)scale(0.996264)" xlink:href="#URW_Palladio_L_Roman-105"/>
      <use transform="translate(284.726891 0)scale(0.996264)" xlink:href="#URW_Palladio_L_Roman-101"/>
      <use transform="translate(332.447186 0)scale(0.996264)" xlink:href="#URW_Palladio_L_Roman-115"/>
      <use transform="translate(399.595253 0)scale(0.996264)" xlink:href="#URW_Palladio_L_Roman-111"/>
      <use transform="translate(453.990833 0)scale(0.996264)" xlink:href="#URW_Palladio_L_Roman-118"/>
      <use transform="translate(510.278746 0)scale(0.996264)" xlink:href="#URW_Palladio_L_Roman-101"/>
      <use transform="translate(557.999041 0)scale(0.996264)" xlink:href="#URW_Palladio_L_Roman-114"/>
      <use transform="translate(622.257538 0)scale(0.996264)" xlink:href="#URW_Palladio_L_Roman-55"/>
      <use transform="translate(696.977338 0)scale(0.996264)" xlink:href="#URW_Palladio_L_Roman-100"/>
      <use transform="translate(757.848969 0)scale(0.996264)" xlink:href="#URW_Palladio_L_Roman-97"/>
      <use transform="translate(807.66217 0)scale(0.996264)" xlink:href="#URW_Palladio_L_Roman-121"/>
      <use transform="translate(863.053847 0)scale(0.996264)" xlink:href="#URW_Palladio_L_Roman-115"/>
      <use transform="translate(930.201913 0)scale(0.996264)" xlink:href="#URW_Palladio_L_Roman-112"/>
      <use transform="translate(990.076307 0)scale(0.996264)" xlink:href="#URW_Palladio_L_Roman-101"/>
      <use transform="translate(1037.796602 0)scale(0.996264)" xlink:href="#URW_Palladio_L_Roman-114"/>
      <use transform="translate(1102.055099 0)scale(0.996264)" xlink:href="#URW_Palladio_L_Roman-49"/>
      <use transform="translate(1151.868299 0)scale(0.996264)" xlink:href="#URW_Palladio_L_Roman-48"/>
      <use transform="translate(1201.6815 0)scale(0.996264)" xlink:href="#URW_Palladio_L_Roman-48"/>
      <use transform="translate(1251.4947 0)scale(0.996264)" xlink:href="#URW_Palladio_L_Roman-48"/>
      <use transform="translate(1301.307901 0)scale(0.996264)" xlink:href="#URW_Palladio_L_Roman-48"/>
      <use transform="translate(1351.121101 0)scale(0.996264)" xlink:href="#URW_Palladio_L_Roman-48"/>
     </g>
    </g>
   </g>
   <g id="line2d_18">
    <path clip-path="url(#p9af873948e)" d="M 50.482264 242.35109 
L 407.602264 242.35109 
" style="fill:none;stroke:#ffff00;stroke-linecap:square;stroke-width:1.5;"/>
   </g>
   <g id="line2d_19">
    <path clip-path="url(#p9af873948e)" d="M 50.482264 211.390179 
L 407.602264 211.390179 
" style="fill:none;stroke:#ffa500;stroke-linecap:square;stroke-width:1.5;"/>
   </g>
   <g id="line2d_20">
    <path clip-path="url(#p9af873948e)" d="M 50.482264 118.507448 
L 407.602264 118.507448 
" style="fill:none;stroke:#ff0000;stroke-linecap:square;stroke-width:1.5;"/>
   </g>
   <g id="patch_122">
    <path d="M 50.482264 273.312 
L 50.482264 7.2 
" style="fill:none;stroke:#000000;stroke-linecap:square;stroke-linejoin:miter;stroke-width:0.8;"/>
   </g>
   <g id="patch_123">
    <path d="M 50.482264 273.312 
L 407.602264 273.312 
" style="fill:none;stroke:#000000;stroke-linecap:square;stroke-linejoin:miter;stroke-width:0.8;"/>
   </g>
   <g id="text_19">
    <!-- low incidence of community transmission -->
    <g style="fill:#ffff00;" transform="translate(411.173464 244.510503)scale(0.1 -0.1)">
     <defs>
      <path d="M 41.296875 47 
C 33.09375 27.9375 31.59375 24.546875 25.40625 10.578125 
L 17 38.1875 
C 16.703125 39.09375 16.59375 39.890625 16.59375 40.6875 
C 16.59375 42.1875 17.90625 43 20.40625 43 
L 24.40625 43 
L 24.40625 45.8125 
C 14.5 45.8125 14.5 45.8125 12.5 45.8125 
C 10.5 45.8125 10.5 45.8125 0.59375 45.8125 
L 0.59375 43.203125 
L 3.40625 43 
C 6.203125 42.796875 7.5 40.8125 10 33.03125 
L 20.203125 -0.5 
L 24.90625 -0.5 
L 34.703125 22.453125 
C 35.203125 23.65625 36.296875 26.046875 37.90625 29.4375 
L 39.90625 33.625 
L 53.5 -0.5 
L 58.09375 -0.5 
C 58.796875 1.59375 59.59375 3.890625 60.40625 6.078125 
C 62.40625 11.984375 64.59375 18.15625 65 18.765625 
L 71.796875 34.3125 
C 74.796875 41.015625 76 42.703125 78.203125 43 
L 80.796875 43.203125 
L 80.796875 45.8125 
C 72.59375 45.8125 72.59375 45.8125 71 45.8125 
C 69.40625 45.8125 69.40625 45.8125 61.203125 45.8125 
L 61.203125 43 
L 64.59375 43 
C 67.09375 43 68.5 41.796875 68.5 39.984375 
C 68.5 38.890625 68.296875 37.6875 67.796875 36.390625 
L 62.796875 22.390625 
C 62 20.1875 61.203125 18.171875 58 9.96875 
L 46.5 38.90625 
C 45.09375 42.296875 44.40625 44.296875 43.59375 47 
z
" id="URW_Palladio_L_Roman-119"/>
      <path d="M 41 -0.109375 
C 47.09375 -0.109375 47.203125 -0.109375 48.90625 -0.109375 
C 50.296875 -0.109375 50.296875 -0.109375 57.203125 -0.109375 
L 57.203125 2.796875 
L 53.09375 3.203125 
C 49.703125 3.203125 49.40625 3.8125 49.40625 10.21875 
L 49.40625 29.5625 
C 49.40625 41.28125 43.90625 47 32.703125 47 
C 29 47 26.90625 46.296875 24.796875 44.484375 
L 17.203125 37.875 
L 17.203125 46.59375 
L 16.296875 47 
C 11.203125 44.890625 6 43.484375 0.703125 42.890625 
L 0.703125 40.078125 
L 4.40625 40.078125 
C 8.40625 40.078125 8.796875 39.375 8.796875 32.71875 
L 8.796875 10.046875 
C 8.796875 3.703125 8.5 3 5.09375 3 
L 0.59375 3 
L 0.59375 -0.109375 
C 7.40625 -0.109375 10.09375 -0.109375 13 -0.109375 
C 15.90625 -0.109375 18.59375 -0.109375 25.40625 -0.109375 
L 25.40625 3 
L 20.90625 3 
C 17.5 3 17.203125 3.703125 17.203125 10.046875 
L 17.203125 31.421875 
C 17.203125 35.9375 23.796875 40.875 29.90625 40.875 
C 36.59375 40.875 41 35.890625 41 28.21875 
z
" id="URW_Palladio_L_Roman-110"/>
      <path d="M 39.90625 31.15625 
C 39.90625 35.765625 40.40625 39.875 41.296875 43.484375 
C 37.296875 45.890625 33.796875 47 29.703125 47 
C 24.90625 47 19.296875 45.09375 13.296875 41.28125 
C 6.296875 36.875 2.59375 29.859375 2.59375 21.046875 
C 2.59375 7.515625 12.09375 -2 25.5 -2 
C 30.703125 -2 38.203125 -0.09375 39.203125 1.40625 
L 41.296875 4.609375 
L 40.296875 6.109375 
C 36.59375 4.109375 33.40625 3.203125 29.796875 3.203125 
C 18.703125 3.203125 11.40625 11.828125 11.40625 25.046875 
C 11.40625 35.765625 16.40625 41.78125 25.40625 41.78125 
C 29.796875 41.78125 34.59375 39.78125 36.40625 37.28125 
L 37.09375 31.15625 
z
" id="URW_Palladio_L_Roman-99"/>
      <path d="M 50.296875 47.015625 
L 49.40625 47.421875 
C 44.296875 45.3125 39.09375 43.90625 33.796875 43.3125 
L 33.796875 40.5 
L 37.5 40.5 
C 41.5 40.5 41.90625 39.796875 41.90625 33.140625 
L 41.90625 16.71875 
C 41.90625 14.5 40.5 11.671875 38.203125 9.359375 
C 35.40625 6.53125 32.203125 5.109375 28.296875 5.109375 
C 24.796875 5.109375 22 6.21875 20.40625 8.140625 
C 19 9.75 18.296875 12.875 18.296875 17.296875 
L 18.296875 47.015625 
L 17.40625 47.421875 
C 12.296875 45.3125 7.09375 43.90625 1.796875 43.3125 
L 1.796875 40.5 
L 5.5 40.5 
C 9.5 40.5 9.90625 39.796875 9.90625 33.15625 
L 9.90625 16.234375 
C 9.90625 9.171875 10.5 6.046875 12.296875 3.546875 
C 14.5 0.515625 18.296875 -1 24 -1 
C 28.5 -1 32.5 0.40625 35.203125 2.90625 
L 41.90625 9.140625 
C 41.90625 6.265625 41.796875 4.65625 41.5 0 
C 48.203125 0 48.296875 0 49.796875 0 
C 51.203125 0 51.203125 0 58.09375 0 
L 58.09375 2.90625 
L 54 3.3125 
C 50.59375 3.3125 50.296875 3.921875 50.296875 10.375 
z
" id="URW_Palladio_L_Roman-117"/>
     </defs>
     <use transform="scale(0.996264)" xlink:href="#URW_Palladio_L_Roman-108"/>
     <use transform="translate(28.990361 0)scale(0.996264)" xlink:href="#URW_Palladio_L_Roman-111"/>
     <use transform="translate(83.385942 0)scale(0.996264)" xlink:href="#URW_Palladio_L_Roman-119"/>
     <use transform="translate(191.380635 0)scale(0.996264)" xlink:href="#URW_Palladio_L_Roman-105"/>
     <use transform="translate(220.370996 0)scale(0.996264)" xlink:href="#URW_Palladio_L_Roman-110"/>
     <use transform="translate(278.353057 0)scale(0.996264)" xlink:href="#URW_Palladio_L_Roman-99"/>
     <use transform="translate(322.586626 0)scale(0.996264)" xlink:href="#URW_Palladio_L_Roman-105"/>
     <use transform="translate(351.576987 0)scale(0.996264)" xlink:href="#URW_Palladio_L_Roman-100"/>
     <use transform="translate(412.448618 0)scale(0.996264)" xlink:href="#URW_Palladio_L_Roman-101"/>
     <use transform="translate(460.168913 0)scale(0.996264)" xlink:href="#URW_Palladio_L_Roman-110"/>
     <use transform="translate(518.150974 0)scale(0.996264)" xlink:href="#URW_Palladio_L_Roman-99"/>
     <use transform="translate(562.384542 0)scale(0.996264)" xlink:href="#URW_Palladio_L_Roman-101"/>
     <use transform="translate(635.011438 0)scale(0.996264)" xlink:href="#URW_Palladio_L_Roman-111"/>
     <use transform="translate(689.407018 0)scale(0.996264)" xlink:href="#URW_Palladio_L_Roman-102"/>
     <use transform="translate(747.488848 0)scale(0.996264)" xlink:href="#URW_Palladio_L_Roman-99"/>
     <use transform="translate(791.722417 0)scale(0.996264)" xlink:href="#URW_Palladio_L_Roman-111"/>
     <use transform="translate(846.117997 0)scale(0.996264)" xlink:href="#URW_Palladio_L_Roman-109"/>
     <use transform="translate(934.087671 0)scale(0.996264)" xlink:href="#URW_Palladio_L_Roman-109"/>
     <use transform="translate(1022.057345 0)scale(0.996264)" xlink:href="#URW_Palladio_L_Roman-117"/>
     <use transform="translate(1082.13108 0)scale(0.996264)" xlink:href="#URW_Palladio_L_Roman-110"/>
     <use transform="translate(1140.113141 0)scale(0.996264)" xlink:href="#URW_Palladio_L_Roman-105"/>
     <use transform="translate(1169.103502 0)scale(0.996264)" xlink:href="#URW_Palladio_L_Roman-116"/>
     <use transform="translate(1201.58059 0)scale(0.996264)" xlink:href="#URW_Palladio_L_Roman-121"/>
     <use transform="translate(1281.878867 0)scale(0.996264)" xlink:href="#URW_Palladio_L_Roman-116"/>
     <use transform="translate(1314.355955 0)scale(0.996264)" xlink:href="#URW_Palladio_L_Roman-114"/>
     <use transform="translate(1353.707852 0)scale(0.996264)" xlink:href="#URW_Palladio_L_Roman-97"/>
     <use transform="translate(1403.521052 0)scale(0.996264)" xlink:href="#URW_Palladio_L_Roman-110"/>
     <use transform="translate(1461.503113 0)scale(0.996264)" xlink:href="#URW_Palladio_L_Roman-115"/>
     <use transform="translate(1503.744579 0)scale(0.996264)" xlink:href="#URW_Palladio_L_Roman-109"/>
     <use transform="translate(1591.714253 0)scale(0.996264)" xlink:href="#URW_Palladio_L_Roman-105"/>
     <use transform="translate(1620.704615 0)scale(0.996264)" xlink:href="#URW_Palladio_L_Roman-115"/>
     <use transform="translate(1662.946081 0)scale(0.996264)" xlink:href="#URW_Palladio_L_Roman-115"/>
     <use transform="translate(1705.187547 0)scale(0.996264)" xlink:href="#URW_Palladio_L_Roman-105"/>
     <use transform="translate(1734.177909 0)scale(0.996264)" xlink:href="#URW_Palladio_L_Roman-111"/>
     <use transform="translate(1788.573489 0)scale(0.996264)" xlink:href="#URW_Palladio_L_Roman-110"/>
    </g>
   </g>
   <g id="text_20">
    <!-- moderate incidence of community transmission -->
    <g style="fill:#ffa500;" transform="translate(411.173464 213.549592)scale(0.1 -0.1)">
     <use transform="scale(0.996264)" xlink:href="#URW_Palladio_L_Roman-109"/>
     <use transform="translate(87.969674 0)scale(0.996264)" xlink:href="#URW_Palladio_L_Roman-111"/>
     <use transform="translate(142.365254 0)scale(0.996264)" xlink:href="#URW_Palladio_L_Roman-100"/>
     <use transform="translate(203.236885 0)scale(0.996264)" xlink:href="#URW_Palladio_L_Roman-101"/>
     <use transform="translate(250.95718 0)scale(0.996264)" xlink:href="#URW_Palladio_L_Roman-114"/>
     <use transform="translate(290.309077 0)scale(0.996264)" xlink:href="#URW_Palladio_L_Roman-97"/>
     <use transform="translate(340.122277 0)scale(0.996264)" xlink:href="#URW_Palladio_L_Roman-116"/>
     <use transform="translate(372.599365 0)scale(0.996264)" xlink:href="#URW_Palladio_L_Roman-101"/>
     <use transform="translate(445.22626 0)scale(0.996264)" xlink:href="#URW_Palladio_L_Roman-105"/>
     <use transform="translate(474.216622 0)scale(0.996264)" xlink:href="#URW_Palladio_L_Roman-110"/>
     <use transform="translate(532.198682 0)scale(0.996264)" xlink:href="#URW_Palladio_L_Roman-99"/>
     <use transform="translate(576.432251 0)scale(0.996264)" xlink:href="#URW_Palladio_L_Roman-105"/>
     <use transform="translate(605.422613 0)scale(0.996264)" xlink:href="#URW_Palladio_L_Roman-100"/>
     <use transform="translate(666.294243 0)scale(0.996264)" xlink:href="#URW_Palladio_L_Roman-101"/>
     <use transform="translate(714.014538 0)scale(0.996264)" xlink:href="#URW_Palladio_L_Roman-110"/>
     <use transform="translate(771.996599 0)scale(0.996264)" xlink:href="#URW_Palladio_L_Roman-99"/>
     <use transform="translate(816.230168 0)scale(0.996264)" xlink:href="#URW_Palladio_L_Roman-101"/>
     <use transform="translate(888.857063 0)scale(0.996264)" xlink:href="#URW_Palladio_L_Roman-111"/>
     <use transform="translate(943.252643 0)scale(0.996264)" xlink:href="#URW_Palladio_L_Roman-102"/>
     <use transform="translate(1001.334473 0)scale(0.996264)" xlink:href="#URW_Palladio_L_Roman-99"/>
     <use transform="translate(1045.568042 0)scale(0.996264)" xlink:href="#URW_Palladio_L_Roman-111"/>
     <use transform="translate(1099.963622 0)scale(0.996264)" xlink:href="#URW_Palladio_L_Roman-109"/>
     <use transform="translate(1187.933296 0)scale(0.996264)" xlink:href="#URW_Palladio_L_Roman-109"/>
     <use transform="translate(1275.902971 0)scale(0.996264)" xlink:href="#URW_Palladio_L_Roman-117"/>
     <use transform="translate(1335.976705 0)scale(0.996264)" xlink:href="#URW_Palladio_L_Roman-110"/>
     <use transform="translate(1393.958766 0)scale(0.996264)" xlink:href="#URW_Palladio_L_Roman-105"/>
     <use transform="translate(1422.949128 0)scale(0.996264)" xlink:href="#URW_Palladio_L_Roman-116"/>
     <use transform="translate(1455.426215 0)scale(0.996264)" xlink:href="#URW_Palladio_L_Roman-121"/>
     <use transform="translate(1535.724493 0)scale(0.996264)" xlink:href="#URW_Palladio_L_Roman-116"/>
     <use transform="translate(1568.20158 0)scale(0.996264)" xlink:href="#URW_Palladio_L_Roman-114"/>
     <use transform="translate(1607.553477 0)scale(0.996264)" xlink:href="#URW_Palladio_L_Roman-97"/>
     <use transform="translate(1657.366677 0)scale(0.996264)" xlink:href="#URW_Palladio_L_Roman-110"/>
     <use transform="translate(1715.348738 0)scale(0.996264)" xlink:href="#URW_Palladio_L_Roman-115"/>
     <use transform="translate(1757.590204 0)scale(0.996264)" xlink:href="#URW_Palladio_L_Roman-109"/>
     <use transform="translate(1845.559879 0)scale(0.996264)" xlink:href="#URW_Palladio_L_Roman-105"/>
     <use transform="translate(1874.55024 0)scale(0.996264)" xlink:href="#URW_Palladio_L_Roman-115"/>
     <use transform="translate(1916.791706 0)scale(0.996264)" xlink:href="#URW_Palladio_L_Roman-115"/>
     <use transform="translate(1959.033173 0)scale(0.996264)" xlink:href="#URW_Palladio_L_Roman-105"/>
     <use transform="translate(1988.023534 0)scale(0.996264)" xlink:href="#URW_Palladio_L_Roman-111"/>
     <use transform="translate(2042.419114 0)scale(0.996264)" xlink:href="#URW_Palladio_L_Roman-110"/>
    </g>
   </g>
   <g id="text_21">
    <!-- high incidence of community transmission -->
    <g style="fill:#ff0000;" transform="translate(411.173464 120.666861)scale(0.1 -0.1)">
     <defs>
      <path d="M 0.703125 66.375 
L 6.296875 66.375 
C 8.09375 66.375 8.796875 65.265625 8.796875 62.25 
L 8.796875 10.046875 
C 8.796875 3.703125 8.5 3 5.09375 3 
L 0.59375 3 
L 0.59375 -0.109375 
C 7.40625 -0.109375 10.09375 -0.109375 13 -0.109375 
C 15.90625 -0.109375 18.59375 -0.109375 25.40625 -0.109375 
L 25.40625 3 
L 20.90625 3 
C 17.5 3 17.203125 3.703125 17.203125 10.046875 
L 17.203125 31.421875 
C 17.203125 35.9375 23.796875 40.875 29.90625 40.875 
C 36.59375 40.875 41 35.890625 41 28.21875 
L 41 -0.109375 
C 47.09375 -0.109375 47.203125 -0.109375 48.90625 -0.109375 
C 50.296875 -0.109375 50.296875 -0.109375 57.203125 -0.109375 
L 57.203125 2.796875 
L 53.09375 3.203125 
C 49.703125 3.203125 49.40625 3.8125 49.40625 10.21875 
L 49.40625 29.5625 
C 49.40625 41.28125 43.90625 47 32.703125 47 
C 29 47 26.90625 46.296875 24.796875 44.484375 
L 17.203125 37.875 
L 17.203125 72.078125 
L 16.296875 72.890625 
C 11.90625 71.1875 8.59375 70.375 0.703125 69.171875 
z
" id="URW_Palladio_L_Roman-104"/>
      <path d="M 51.90625 38 
L 54.40625 42.109375 
L 54 43.109375 
L 39.796875 43.109375 
C 36.09375 45.890625 32.5 47 27.59375 47 
C 23.203125 47 18.09375 45.625 14 43.25 
C 8.40625 40.109375 5.5 35.28125 5.5 29.28125 
C 5.5 22 10.09375 16.984375 17.5 16.1875 
L 9.59375 10 
C 8.59375 8.484375 8.09375 7.171875 8.09375 5.640625 
C 8.09375 2.8125 9.90625 1.1875 14.703125 -0.21875 
L 6 -4.9375 
C 4.59375 -5.734375 3.203125 -9.4375 3.203125 -12.546875 
C 3.203125 -21.6875 12.09375 -28 24.796875 -28 
C 39.90625 -28 51.796875 -18.46875 51.796875 -6.234375 
C 51.796875 0.984375 47 6 40 6 
L 24 6 
C 18.796875 6 16.40625 7.21875 16.40625 9.984375 
C 16.40625 11.3125 17.203125 12.421875 19.796875 14.671875 
C 20.40625 15.1875 20.59375 15.390625 21 15.796875 
C 22 15.6875 22.59375 15.59375 23.40625 15.59375 
C 27.703125 15.59375 33 17.46875 37.09375 20.3125 
C 41.59375 23.546875 43.796875 27.484375 43.796875 32.703125 
C 43.796875 34.65625 43.5 35.9375 42.703125 38 
z
M 24 43.59375 
C 30.796875 43.59375 35.40625 38.09375 35.40625 29.765625 
C 35.40625 23.421875 31.203125 19 25.09375 19 
C 18.40625 19 13.90625 24.09375 13.90625 31.640625 
C 13.90625 39.171875 17.59375 43.59375 24 43.59375 
z
M 28.703125 -1.015625 
C 40 -1.015625 43.90625 -3.3125 43.90625 -9.84375 
C 43.90625 -18.46875 36 -24.890625 25.5 -24.890625 
C 16.796875 -24.890625 10.796875 -19.78125 10.796875 -12.34375 
C 10.796875 -7.84375 13.40625 -3.71875 17.40625 -2.015625 
C 19 -1.21875 21.796875 -1.015625 28.703125 -1.015625 
z
" id="URW_Palladio_L_Roman-103"/>
     </defs>
     <use transform="scale(0.996264)" xlink:href="#URW_Palladio_L_Roman-104"/>
     <use transform="translate(57.982061 0)scale(0.996264)" xlink:href="#URW_Palladio_L_Roman-105"/>
     <use transform="translate(86.972422 0)scale(0.996264)" xlink:href="#URW_Palladio_L_Roman-103"/>
     <use transform="translate(142.364099 0)scale(0.996264)" xlink:href="#URW_Palladio_L_Roman-104"/>
     <use transform="translate(225.25276 0)scale(0.996264)" xlink:href="#URW_Palladio_L_Roman-105"/>
     <use transform="translate(254.243121 0)scale(0.996264)" xlink:href="#URW_Palladio_L_Roman-110"/>
     <use transform="translate(312.225182 0)scale(0.996264)" xlink:href="#URW_Palladio_L_Roman-99"/>
     <use transform="translate(356.458751 0)scale(0.996264)" xlink:href="#URW_Palladio_L_Roman-105"/>
     <use transform="translate(385.449112 0)scale(0.996264)" xlink:href="#URW_Palladio_L_Roman-100"/>
     <use transform="translate(446.320743 0)scale(0.996264)" xlink:href="#URW_Palladio_L_Roman-101"/>
     <use transform="translate(494.041038 0)scale(0.996264)" xlink:href="#URW_Palladio_L_Roman-110"/>
     <use transform="translate(552.023099 0)scale(0.996264)" xlink:href="#URW_Palladio_L_Roman-99"/>
     <use transform="translate(596.256668 0)scale(0.996264)" xlink:href="#URW_Palladio_L_Roman-101"/>
     <use transform="translate(668.883563 0)scale(0.996264)" xlink:href="#URW_Palladio_L_Roman-111"/>
     <use transform="translate(723.279143 0)scale(0.996264)" xlink:href="#URW_Palladio_L_Roman-102"/>
     <use transform="translate(781.360973 0)scale(0.996264)" xlink:href="#URW_Palladio_L_Roman-99"/>
     <use transform="translate(825.594542 0)scale(0.996264)" xlink:href="#URW_Palladio_L_Roman-111"/>
     <use transform="translate(879.990122 0)scale(0.996264)" xlink:href="#URW_Palladio_L_Roman-109"/>
     <use transform="translate(967.959796 0)scale(0.996264)" xlink:href="#URW_Palladio_L_Roman-109"/>
     <use transform="translate(1055.92947 0)scale(0.996264)" xlink:href="#URW_Palladio_L_Roman-117"/>
     <use transform="translate(1116.003205 0)scale(0.996264)" xlink:href="#URW_Palladio_L_Roman-110"/>
     <use transform="translate(1173.985266 0)scale(0.996264)" xlink:href="#URW_Palladio_L_Roman-105"/>
     <use transform="translate(1202.975627 0)scale(0.996264)" xlink:href="#URW_Palladio_L_Roman-116"/>
     <use transform="translate(1235.452715 0)scale(0.996264)" xlink:href="#URW_Palladio_L_Roman-121"/>
     <use transform="translate(1315.750992 0)scale(0.996264)" xlink:href="#URW_Palladio_L_Roman-116"/>
     <use transform="translate(1348.22808 0)scale(0.996264)" xlink:href="#URW_Palladio_L_Roman-114"/>
     <use transform="translate(1387.579977 0)scale(0.996264)" xlink:href="#URW_Palladio_L_Roman-97"/>
     <use transform="translate(1437.393177 0)scale(0.996264)" xlink:href="#URW_Palladio_L_Roman-110"/>
     <use transform="translate(1495.375238 0)scale(0.996264)" xlink:href="#URW_Palladio_L_Roman-115"/>
     <use transform="translate(1537.616704 0)scale(0.996264)" xlink:href="#URW_Palladio_L_Roman-109"/>
     <use transform="translate(1625.586378 0)scale(0.996264)" xlink:href="#URW_Palladio_L_Roman-105"/>
     <use transform="translate(1654.57674 0)scale(0.996264)" xlink:href="#URW_Palladio_L_Roman-115"/>
     <use transform="translate(1696.818206 0)scale(0.996264)" xlink:href="#URW_Palladio_L_Roman-115"/>
     <use transform="translate(1739.059672 0)scale(0.996264)" xlink:href="#URW_Palladio_L_Roman-105"/>
     <use transform="translate(1768.050034 0)scale(0.996264)" xlink:href="#URW_Palladio_L_Roman-111"/>
     <use transform="translate(1822.445614 0)scale(0.996264)" xlink:href="#URW_Palladio_L_Roman-110"/>
    </g>
   </g>
  </g>
 </g>
 <defs>
  <clipPath id="p9af873948e">
   <rect height="266.112" width="357.12" x="50.482264" y="7.2"/>
  </clipPath>
 </defs>
</svg>
