<?xml version="1.0" encoding="utf-8" standalone="no"?>
<!DOCTYPE svg PUBLIC "-//W3C//DTD SVG 1.1//EN"
  "http://www.w3.org/Graphics/SVG/1.1/DTD/svg11.dtd">
<!-- Created with matplotlib (https://matplotlib.org/) -->
<svg height="320.717436pt" version="1.1" viewBox="0 0 628.413345 320.717436" width="628.413345pt" xmlns="http://www.w3.org/2000/svg" xmlns:xlink="http://www.w3.org/1999/xlink">
 <metadata>
  <rdf:RDF xmlns:cc="http://creativecommons.org/ns#" xmlns:dc="http://purl.org/dc/elements/1.1/" xmlns:rdf="http://www.w3.org/1999/02/22-rdf-syntax-ns#">
   <cc:Work>
    <dc:type rdf:resource="http://purl.org/dc/dcmitype/StillImage"/>
    <dc:format>image/svg+xml</dc:format>
    <dc:creator>
     <cc:Agent>
      <dc:title>Matplotlib v3.3.4, https://matplotlib.org/</dc:title>
     </cc:Agent>
    </dc:creator>
   </cc:Work>
  </rdf:RDF>
 </metadata>
 <defs>
  <style type="text/css">*{stroke-linecap:butt;stroke-linejoin:round;}</style>
 </defs>
 <g id="figure_1">
  <g id="patch_1">
   <path d="M 0 320.717436 
L 628.413345 320.717436 
L 628.413345 0 
L 0 0 
z
" style="fill:#ffffff;"/>
  </g>
  <g id="axes_1">
   <g id="patch_2">
    <path d="M 50.482264 273.312 
L 407.602264 273.312 
L 407.602264 7.2 
L 50.482264 7.2 
z
" style="fill:#ffffff;"/>
   </g>
   <g id="patch_3">
    <path clip-path="url(#p78d716c638)" d="M 50.70002 273.312 
L 52.442069 273.312 
L 52.442069 264.335593 
L 50.70002 264.335593 
z
" style="fill:#1f77b4;"/>
   </g>
   <g id="patch_4">
    <path clip-path="url(#p78d716c638)" d="M 52.877581 273.312 
L 54.61963 273.312 
L 54.61963 262.232549 
L 52.877581 262.232549 
z
" style="fill:#1f77b4;"/>
   </g>
   <g id="patch_5">
    <path clip-path="url(#p78d716c638)" d="M 55.055142 273.312 
L 56.797191 273.312 
L 56.797191 261.617024 
L 55.055142 261.617024 
z
" style="fill:#1f77b4;"/>
   </g>
   <g id="patch_6">
    <path clip-path="url(#p78d716c638)" d="M 57.232703 273.312 
L 58.974752 273.312 
L 58.974752 258.488105 
L 57.232703 258.488105 
z
" style="fill:#1f77b4;"/>
   </g>
   <g id="patch_7">
    <path clip-path="url(#p78d716c638)" d="M 59.410264 273.312 
L 61.152313 273.312 
L 61.152313 257.103173 
L 59.410264 257.103173 
z
" style="fill:#1f77b4;"/>
   </g>
   <g id="patch_8">
    <path clip-path="url(#p78d716c638)" d="M 61.587825 273.312 
L 63.329874 273.312 
L 63.329874 256.179886 
L 61.587825 256.179886 
z
" style="fill:#1f77b4;"/>
   </g>
   <g id="patch_9">
    <path clip-path="url(#p78d716c638)" d="M 63.765386 273.312 
L 65.507435 273.312 
L 65.507435 253.974254 
L 63.765386 253.974254 
z
" style="fill:#1f77b4;"/>
   </g>
   <g id="patch_10">
    <path clip-path="url(#p78d716c638)" d="M 65.942947 273.312 
L 67.684996 273.312 
L 67.684996 252.230267 
L 65.942947 252.230267 
z
" style="fill:#1f77b4;"/>
   </g>
   <g id="patch_11">
    <path clip-path="url(#p78d716c638)" d="M 68.120508 273.312 
L 69.862557 273.312 
L 69.862557 249.768167 
L 68.120508 249.768167 
z
" style="fill:#1f77b4;"/>
   </g>
   <g id="patch_12">
    <path clip-path="url(#p78d716c638)" d="M 70.298069 273.312 
L 72.040118 273.312 
L 72.040118 245.459491 
L 70.298069 245.459491 
z
" style="fill:#1f77b4;"/>
   </g>
   <g id="patch_13">
    <path clip-path="url(#p78d716c638)" d="M 72.47563 273.312 
L 74.217679 273.312 
L 74.217679 242.740922 
L 72.47563 242.740922 
z
" style="fill:#1f77b4;"/>
   </g>
   <g id="patch_14">
    <path clip-path="url(#p78d716c638)" d="M 74.653191 273.312 
L 76.39524 273.312 
L 76.39524 240.894347 
L 74.653191 240.894347 
z
" style="fill:#1f77b4;"/>
   </g>
   <g id="patch_15">
    <path clip-path="url(#p78d716c638)" d="M 76.830752 273.312 
L 78.572801 273.312 
L 78.572801 235.559796 
L 76.830752 235.559796 
z
" style="fill:#1f77b4;"/>
   </g>
   <g id="patch_16">
    <path clip-path="url(#p78d716c638)" d="M 79.008313 273.312 
L 80.750362 273.312 
L 80.750362 232.533465 
L 79.008313 232.533465 
z
" style="fill:#1f77b4;"/>
   </g>
   <g id="patch_17">
    <path clip-path="url(#p78d716c638)" d="M 81.185874 273.312 
L 82.927923 273.312 
L 82.927923 229.04549 
L 81.185874 229.04549 
z
" style="fill:#1f77b4;"/>
   </g>
   <g id="patch_18">
    <path clip-path="url(#p78d716c638)" d="M 83.363435 273.312 
L 85.105484 273.312 
L 85.105484 222.274714 
L 83.363435 222.274714 
z
" style="fill:#1f77b4;"/>
   </g>
   <g id="patch_19">
    <path clip-path="url(#p78d716c638)" d="M 85.540996 273.312 
L 87.283045 273.312 
L 87.283045 218.273801 
L 85.540996 218.273801 
z
" style="fill:#1f77b4;"/>
   </g>
   <g id="patch_20">
    <path clip-path="url(#p78d716c638)" d="M 87.718557 273.312 
L 89.460606 273.312 
L 89.460606 214.119007 
L 87.718557 214.119007 
z
" style="fill:#1f77b4;"/>
   </g>
   <g id="patch_21">
    <path clip-path="url(#p78d716c638)" d="M 89.896118 273.312 
L 91.638167 273.312 
L 91.638167 208.579281 
L 89.896118 208.579281 
z
" style="fill:#1f77b4;"/>
   </g>
   <g id="patch_22">
    <path clip-path="url(#p78d716c638)" d="M 92.073679 273.312 
L 93.815728 273.312 
L 93.815728 201.090393 
L 92.073679 201.090393 
z
" style="fill:#1f77b4;"/>
   </g>
   <g id="patch_23">
    <path clip-path="url(#p78d716c638)" d="M 94.25124 273.312 
L 95.993289 273.312 
L 95.993289 196.986893 
L 94.25124 196.986893 
z
" style="fill:#1f77b4;"/>
   </g>
   <g id="patch_24">
    <path clip-path="url(#p78d716c638)" d="M 96.428801 273.312 
L 98.17085 273.312 
L 98.17085 192.267867 
L 96.428801 192.267867 
z
" style="fill:#1f77b4;"/>
   </g>
   <g id="patch_25">
    <path clip-path="url(#p78d716c638)" d="M 98.606362 273.312 
L 100.348411 273.312 
L 100.348411 185.497092 
L 98.606362 185.497092 
z
" style="fill:#1f77b4;"/>
   </g>
   <g id="patch_26">
    <path clip-path="url(#p78d716c638)" d="M 100.783923 273.312 
L 102.525972 273.312 
L 102.525972 178.828904 
L 100.783923 178.828904 
z
" style="fill:#1f77b4;"/>
   </g>
   <g id="patch_27">
    <path clip-path="url(#p78d716c638)" d="M 102.961484 273.312 
L 104.703533 273.312 
L 104.703533 167.133928 
L 102.961484 167.133928 
z
" style="fill:#1f77b4;"/>
   </g>
   <g id="patch_28">
    <path clip-path="url(#p78d716c638)" d="M 105.139045 273.312 
L 106.881094 273.312 
L 106.881094 154.46437 
L 105.139045 154.46437 
z
" style="fill:#1f77b4;"/>
   </g>
   <g id="patch_29">
    <path clip-path="url(#p78d716c638)" d="M 107.316606 273.312 
L 109.058655 273.312 
L 109.058655 147.898769 
L 107.316606 147.898769 
z
" style="fill:#1f77b4;"/>
   </g>
   <g id="patch_30">
    <path clip-path="url(#p78d716c638)" d="M 109.494167 273.312 
L 111.236215 273.312 
L 111.236215 141.589638 
L 109.494167 141.589638 
z
" style="fill:#1f77b4;"/>
   </g>
   <g id="patch_31">
    <path clip-path="url(#p78d716c638)" d="M 111.671728 273.312 
L 113.413776 273.312 
L 113.413776 135.280506 
L 111.671728 135.280506 
z
" style="fill:#1f77b4;"/>
   </g>
   <g id="patch_32">
    <path clip-path="url(#p78d716c638)" d="M 113.849289 273.312 
L 115.591337 273.312 
L 115.591337 123.636823 
L 113.849289 123.636823 
z
" style="fill:#1f77b4;"/>
   </g>
   <g id="patch_33">
    <path clip-path="url(#p78d716c638)" d="M 116.02685 273.312 
L 117.768898 273.312 
L 117.768898 108.864222 
L 116.02685 108.864222 
z
" style="fill:#1f77b4;"/>
   </g>
   <g id="patch_34">
    <path clip-path="url(#p78d716c638)" d="M 118.204411 273.312 
L 119.946459 273.312 
L 119.946459 99.067115 
L 118.204411 99.067115 
z
" style="fill:#1f77b4;"/>
   </g>
   <g id="patch_35">
    <path clip-path="url(#p78d716c638)" d="M 120.381972 273.312 
L 122.12402 273.312 
L 122.12402 93.732564 
L 120.381972 93.732564 
z
" style="fill:#1f77b4;"/>
   </g>
   <g id="patch_36">
    <path clip-path="url(#p78d716c638)" d="M 122.559533 273.312 
L 124.301581 273.312 
L 124.301581 87.628608 
L 122.559533 87.628608 
z
" style="fill:#1f77b4;"/>
   </g>
   <g id="patch_37">
    <path clip-path="url(#p78d716c638)" d="M 124.737094 273.312 
L 126.479142 273.312 
L 126.479142 76.60045 
L 124.737094 76.60045 
z
" style="fill:#1f77b4;"/>
   </g>
   <g id="patch_38">
    <path clip-path="url(#p78d716c638)" d="M 126.914655 273.312 
L 128.656703 273.312 
L 128.656703 69.008975 
L 126.914655 69.008975 
z
" style="fill:#1f77b4;"/>
   </g>
   <g id="patch_39">
    <path clip-path="url(#p78d716c638)" d="M 129.092215 273.312 
L 130.834264 273.312 
L 130.834264 61.263618 
L 129.092215 61.263618 
z
" style="fill:#1f77b4;"/>
   </g>
   <g id="patch_40">
    <path clip-path="url(#p78d716c638)" d="M 131.269776 273.312 
L 133.011825 273.312 
L 133.011825 54.595429 
L 131.269776 54.595429 
z
" style="fill:#1f77b4;"/>
   </g>
   <g id="patch_41">
    <path clip-path="url(#p78d716c638)" d="M 133.447337 273.312 
L 135.189386 273.312 
L 135.189386 53.723436 
L 133.447337 53.723436 
z
" style="fill:#1f77b4;"/>
   </g>
   <g id="patch_42">
    <path clip-path="url(#p78d716c638)" d="M 135.624898 273.312 
L 137.366947 273.312 
L 137.366947 46.080666 
L 135.624898 46.080666 
z
" style="fill:#1f77b4;"/>
   </g>
   <g id="patch_43">
    <path clip-path="url(#p78d716c638)" d="M 137.802459 273.312 
L 139.544508 273.312 
L 139.544508 38.48919 
L 137.802459 38.48919 
z
" style="fill:#1f77b4;"/>
   </g>
   <g id="patch_44">
    <path clip-path="url(#p78d716c638)" d="M 139.98002 273.312 
L 141.722069 273.312 
L 141.722069 37.66849 
L 139.98002 37.66849 
z
" style="fill:#1f77b4;"/>
   </g>
   <g id="patch_45">
    <path clip-path="url(#p78d716c638)" d="M 142.157581 273.312 
L 143.89963 273.312 
L 143.89963 31.205477 
L 142.157581 31.205477 
z
" style="fill:#1f77b4;"/>
   </g>
   <g id="patch_46">
    <path clip-path="url(#p78d716c638)" d="M 144.335142 273.312 
L 146.077191 273.312 
L 146.077191 24.947639 
L 144.335142 24.947639 
z
" style="fill:#1f77b4;"/>
   </g>
   <g id="patch_47">
    <path clip-path="url(#p78d716c638)" d="M 146.512703 273.312 
L 148.254752 273.312 
L 148.254752 26.537746 
L 146.512703 26.537746 
z
" style="fill:#1f77b4;"/>
   </g>
   <g id="patch_48">
    <path clip-path="url(#p78d716c638)" d="M 148.690264 273.312 
L 150.432313 273.312 
L 150.432313 17.869101 
L 148.690264 17.869101 
z
" style="fill:#1f77b4;"/>
   </g>
   <g id="patch_49">
    <path clip-path="url(#p78d716c638)" d="M 150.867825 273.312 
L 152.609874 273.312 
L 152.609874 11.3035 
L 150.867825 11.3035 
z
" style="fill:#1f77b4;"/>
   </g>
   <g id="patch_50">
    <path clip-path="url(#p78d716c638)" d="M 153.045386 273.312 
L 154.787435 273.312 
L 154.787435 11.611263 
L 153.045386 11.611263 
z
" style="fill:#1f77b4;"/>
   </g>
   <g id="patch_51">
    <path clip-path="url(#p78d716c638)" d="M 155.222947 273.312 
L 156.964996 273.312 
L 156.964996 12.688432 
L 155.222947 12.688432 
z
" style="fill:#1f77b4;"/>
   </g>
   <g id="patch_52">
    <path clip-path="url(#p78d716c638)" d="M 157.400508 273.312 
L 159.142557 273.312 
L 159.142557 10.534094 
L 157.400508 10.534094 
z
" style="fill:#1f77b4;"/>
   </g>
   <g id="patch_53">
    <path clip-path="url(#p78d716c638)" d="M 159.578069 273.312 
L 161.320118 273.312 
L 161.320118 14.022069 
L 159.578069 14.022069 
z
" style="fill:#1f77b4;"/>
   </g>
   <g id="patch_54">
    <path clip-path="url(#p78d716c638)" d="M 161.75563 273.312 
L 163.497679 273.312 
L 163.497679 15.971232 
L 161.75563 15.971232 
z
" style="fill:#1f77b4;"/>
   </g>
   <g id="patch_55">
    <path clip-path="url(#p78d716c638)" d="M 163.933191 273.312 
L 165.67524 273.312 
L 165.67524 7.2 
L 163.933191 7.2 
z
" style="fill:#1f77b4;"/>
   </g>
   <g id="patch_56">
    <path clip-path="url(#p78d716c638)" d="M 166.110752 273.312 
L 167.852801 273.312 
L 167.852801 7.866819 
L 166.110752 7.866819 
z
" style="fill:#1f77b4;"/>
   </g>
   <g id="patch_57">
    <path clip-path="url(#p78d716c638)" d="M 168.288313 273.312 
L 170.030362 273.312 
L 170.030362 9.097869 
L 168.288313 9.097869 
z
" style="fill:#1f77b4;"/>
   </g>
   <g id="patch_58">
    <path clip-path="url(#p78d716c638)" d="M 170.465874 273.312 
L 172.207923 273.312 
L 172.207923 7.918113 
L 170.465874 7.918113 
z
" style="fill:#1f77b4;"/>
   </g>
   <g id="patch_59">
    <path clip-path="url(#p78d716c638)" d="M 172.643435 273.312 
L 174.385484 273.312 
L 174.385484 15.304413 
L 172.643435 15.304413 
z
" style="fill:#1f77b4;"/>
   </g>
   <g id="patch_60">
    <path clip-path="url(#p78d716c638)" d="M 174.820996 273.312 
L 176.563045 273.312 
L 176.563045 23.04977 
L 174.820996 23.04977 
z
" style="fill:#1f77b4;"/>
   </g>
   <g id="patch_61">
    <path clip-path="url(#p78d716c638)" d="M 176.998557 273.312 
L 178.740606 273.312 
L 178.740606 32.539115 
L 176.998557 32.539115 
z
" style="fill:#1f77b4;"/>
   </g>
   <g id="patch_62">
    <path clip-path="url(#p78d716c638)" d="M 179.176118 273.312 
L 180.918167 273.312 
L 180.918167 37.976253 
L 179.176118 37.976253 
z
" style="fill:#1f77b4;"/>
   </g>
   <g id="patch_63">
    <path clip-path="url(#p78d716c638)" d="M 181.353679 273.312 
L 183.095728 273.312 
L 183.095728 40.694822 
L 181.353679 40.694822 
z
" style="fill:#1f77b4;"/>
   </g>
   <g id="patch_64">
    <path clip-path="url(#p78d716c638)" d="M 183.53124 273.312 
L 185.273289 273.312 
L 185.273289 41.361641 
L 183.53124 41.361641 
z
" style="fill:#1f77b4;"/>
   </g>
   <g id="patch_65">
    <path clip-path="url(#p78d716c638)" d="M 185.708801 273.312 
L 187.45085 273.312 
L 187.45085 45.465141 
L 185.708801 45.465141 
z
" style="fill:#1f77b4;"/>
   </g>
   <g id="patch_66">
    <path clip-path="url(#p78d716c638)" d="M 187.886362 273.312 
L 189.628411 273.312 
L 189.628411 47.36301 
L 187.886362 47.36301 
z
" style="fill:#1f77b4;"/>
   </g>
   <g id="patch_67">
    <path clip-path="url(#p78d716c638)" d="M 190.063923 273.312 
L 191.805972 273.312 
L 191.805972 36.488734 
L 190.063923 36.488734 
z
" style="fill:#1f77b4;"/>
   </g>
   <g id="patch_68">
    <path clip-path="url(#p78d716c638)" d="M 192.241484 273.312 
L 193.983533 273.312 
L 193.983533 27.204564 
L 192.241484 27.204564 
z
" style="fill:#1f77b4;"/>
   </g>
   <g id="patch_69">
    <path clip-path="url(#p78d716c638)" d="M 194.419045 273.312 
L 196.161094 273.312 
L 196.161094 37.66849 
L 194.419045 37.66849 
z
" style="fill:#1f77b4;"/>
   </g>
   <g id="patch_70">
    <path clip-path="url(#p78d716c638)" d="M 196.596606 273.312 
L 198.338655 273.312 
L 198.338655 42.131047 
L 196.596606 42.131047 
z
" style="fill:#1f77b4;"/>
   </g>
   <g id="patch_71">
    <path clip-path="url(#p78d716c638)" d="M 198.774167 273.312 
L 200.516215 273.312 
L 200.516215 47.055247 
L 198.774167 47.055247 
z
" style="fill:#1f77b4;"/>
   </g>
   <g id="patch_72">
    <path clip-path="url(#p78d716c638)" d="M 200.951728 273.312 
L 202.693776 273.312 
L 202.693776 53.826023 
L 200.951728 53.826023 
z
" style="fill:#1f77b4;"/>
   </g>
   <g id="patch_73">
    <path clip-path="url(#p78d716c638)" d="M 203.129289 273.312 
L 204.871337 273.312 
L 204.871337 57.724348 
L 203.129289 57.724348 
z
" style="fill:#1f77b4;"/>
   </g>
   <g id="patch_74">
    <path clip-path="url(#p78d716c638)" d="M 205.30685 273.312 
L 207.048898 273.312 
L 207.048898 68.906387 
L 205.30685 68.906387 
z
" style="fill:#1f77b4;"/>
   </g>
   <g id="patch_75">
    <path clip-path="url(#p78d716c638)" d="M 207.484411 273.312 
L 209.226459 273.312 
L 209.226459 75.420694 
L 207.484411 75.420694 
z
" style="fill:#1f77b4;"/>
   </g>
   <g id="patch_76">
    <path clip-path="url(#p78d716c638)" d="M 209.661972 273.312 
L 211.40402 273.312 
L 211.40402 84.550982 
L 209.661972 84.550982 
z
" style="fill:#1f77b4;"/>
   </g>
   <g id="patch_77">
    <path clip-path="url(#p78d716c638)" d="M 211.839533 273.312 
L 213.581581 273.312 
L 213.581581 95.57914 
L 211.839533 95.57914 
z
" style="fill:#1f77b4;"/>
   </g>
   <g id="patch_78">
    <path clip-path="url(#p78d716c638)" d="M 214.017094 273.312 
L 215.759142 273.312 
L 215.759142 110.19786 
L 214.017094 110.19786 
z
" style="fill:#1f77b4;"/>
   </g>
   <g id="patch_79">
    <path clip-path="url(#p78d716c638)" d="M 216.194655 273.312 
L 217.936703 273.312 
L 217.936703 112.967722 
L 216.194655 112.967722 
z
" style="fill:#1f77b4;"/>
   </g>
   <g id="patch_80">
    <path clip-path="url(#p78d716c638)" d="M 218.372215 273.312 
L 220.114264 273.312 
L 220.114264 111.42891 
L 218.372215 111.42891 
z
" style="fill:#1f77b4;"/>
   </g>
   <g id="patch_81">
    <path clip-path="url(#p78d716c638)" d="M 220.549776 273.312 
L 222.291825 273.312 
L 222.291825 109.838803 
L 220.549776 109.838803 
z
" style="fill:#1f77b4;"/>
   </g>
   <g id="patch_82">
    <path clip-path="url(#p78d716c638)" d="M 222.727337 273.312 
L 224.469386 273.312 
L 224.469386 108.710341 
L 222.727337 108.710341 
z
" style="fill:#1f77b4;"/>
   </g>
   <g id="patch_83">
    <path clip-path="url(#p78d716c638)" d="M 224.904898 273.312 
L 226.646947 273.312 
L 226.646947 106.145653 
L 224.904898 106.145653 
z
" style="fill:#1f77b4;"/>
   </g>
   <g id="patch_84">
    <path clip-path="url(#p78d716c638)" d="M 227.082459 273.312 
L 228.824508 273.312 
L 228.824508 105.991772 
L 227.082459 105.991772 
z
" style="fill:#1f77b4;"/>
   </g>
   <g id="patch_85">
    <path clip-path="url(#p78d716c638)" d="M 229.26002 273.312 
L 231.002069 273.312 
L 231.002069 101.067571 
L 229.26002 101.067571 
z
" style="fill:#1f77b4;"/>
   </g>
   <g id="patch_86">
    <path clip-path="url(#p78d716c638)" d="M 231.437581 273.312 
L 233.17963 273.312 
L 233.17963 98.554177 
L 231.437581 98.554177 
z
" style="fill:#1f77b4;"/>
   </g>
   <g id="patch_87">
    <path clip-path="url(#p78d716c638)" d="M 233.615142 273.312 
L 235.357191 273.312 
L 235.357191 103.529672 
L 233.615142 103.529672 
z
" style="fill:#1f77b4;"/>
   </g>
   <g id="patch_88">
    <path clip-path="url(#p78d716c638)" d="M 235.792703 273.312 
L 237.534752 273.312 
L 237.534752 104.042609 
L 235.792703 104.042609 
z
" style="fill:#1f77b4;"/>
   </g>
   <g id="patch_89">
    <path clip-path="url(#p78d716c638)" d="M 237.970264 273.312 
L 239.712313 273.312 
L 239.712313 105.42754 
L 237.970264 105.42754 
z
" style="fill:#1f77b4;"/>
   </g>
   <g id="patch_90">
    <path clip-path="url(#p78d716c638)" d="M 240.147825 273.312 
L 241.889874 273.312 
L 241.889874 112.65996 
L 240.147825 112.65996 
z
" style="fill:#1f77b4;"/>
   </g>
   <g id="patch_91">
    <path clip-path="url(#p78d716c638)" d="M 242.325386 273.312 
L 244.067435 273.312 
L 244.067435 104.555547 
L 242.325386 104.555547 
z
" style="fill:#1f77b4;"/>
   </g>
   <g id="patch_92">
    <path clip-path="url(#p78d716c638)" d="M 244.502947 273.312 
L 246.244996 273.312 
L 246.244996 98.45159 
L 244.502947 98.45159 
z
" style="fill:#1f77b4;"/>
   </g>
   <g id="patch_93">
    <path clip-path="url(#p78d716c638)" d="M 246.680508 273.312 
L 248.422557 273.312 
L 248.422557 97.733477 
L 246.680508 97.733477 
z
" style="fill:#1f77b4;"/>
   </g>
   <g id="patch_94">
    <path clip-path="url(#p78d716c638)" d="M 248.858069 273.312 
L 250.600118 273.312 
L 250.600118 92.604102 
L 248.858069 92.604102 
z
" style="fill:#1f77b4;"/>
   </g>
   <g id="patch_95">
    <path clip-path="url(#p78d716c638)" d="M 251.03563 273.312 
L 252.777679 273.312 
L 252.777679 94.296796 
L 251.03563 94.296796 
z
" style="fill:#1f77b4;"/>
   </g>
   <g id="patch_96">
    <path clip-path="url(#p78d716c638)" d="M 253.213191 273.312 
L 254.95524 273.312 
L 254.95524 96.39984 
L 253.213191 96.39984 
z
" style="fill:#1f77b4;"/>
   </g>
   <g id="patch_97">
    <path clip-path="url(#p78d716c638)" d="M 255.390752 273.312 
L 257.132801 273.312 
L 257.132801 90.860114 
L 255.390752 90.860114 
z
" style="fill:#1f77b4;"/>
   </g>
   <g id="patch_98">
    <path clip-path="url(#p78d716c638)" d="M 257.568313 273.312 
L 259.310362 273.312 
L 259.310362 98.195121 
L 257.568313 98.195121 
z
" style="fill:#1f77b4;"/>
   </g>
   <g id="patch_99">
    <path clip-path="url(#p78d716c638)" d="M 259.745874 273.312 
L 261.487923 273.312 
L 261.487923 98.605471 
L 259.745874 98.605471 
z
" style="fill:#1f77b4;"/>
   </g>
   <g id="patch_100">
    <path clip-path="url(#p78d716c638)" d="M 261.923435 273.312 
L 263.665484 273.312 
L 263.665484 97.784771 
L 261.923435 97.784771 
z
" style="fill:#1f77b4;"/>
   </g>
   <g id="patch_101">
    <path clip-path="url(#p78d716c638)" d="M 264.100996 273.312 
L 265.843045 273.312 
L 265.843045 101.426628 
L 264.100996 101.426628 
z
" style="fill:#1f77b4;"/>
   </g>
   <g id="patch_102">
    <path clip-path="url(#p78d716c638)" d="M 266.278557 273.312 
L 268.020606 273.312 
L 268.020606 102.093446 
L 266.278557 102.093446 
z
" style="fill:#1f77b4;"/>
   </g>
   <g id="patch_103">
    <path clip-path="url(#p78d716c638)" d="M 268.456118 273.312 
L 270.198167 273.312 
L 270.198167 101.221453 
L 268.456118 101.221453 
z
" style="fill:#1f77b4;"/>
   </g>
   <g id="patch_104">
    <path clip-path="url(#p78d716c638)" d="M 270.633679 273.312 
L 272.375728 273.312 
L 272.375728 101.272746 
L 270.633679 101.272746 
z
" style="fill:#1f77b4;"/>
   </g>
   <g id="patch_105">
    <path clip-path="url(#p78d716c638)" d="M 272.81124 273.312 
L 274.553289 273.312 
L 274.553289 101.529215 
L 272.81124 101.529215 
z
" style="fill:#1f77b4;"/>
   </g>
   <g id="patch_106">
    <path clip-path="url(#p78d716c638)" d="M 274.988801 273.312 
L 276.73085 273.312 
L 276.73085 100.862396 
L 274.988801 100.862396 
z
" style="fill:#1f77b4;"/>
   </g>
   <g id="patch_107">
    <path clip-path="url(#p78d716c638)" d="M 277.166362 273.312 
L 278.908411 273.312 
L 278.908411 104.863309 
L 277.166362 104.863309 
z
" style="fill:#1f77b4;"/>
   </g>
   <g id="patch_108">
    <path clip-path="url(#p78d716c638)" d="M 279.343923 273.312 
L 281.085972 273.312 
L 281.085972 102.657678 
L 279.343923 102.657678 
z
" style="fill:#1f77b4;"/>
   </g>
   <g id="patch_109">
    <path clip-path="url(#p78d716c638)" d="M 281.521484 273.312 
L 283.263533 273.312 
L 283.263533 105.837891 
L 281.521484 105.837891 
z
" style="fill:#1f77b4;"/>
   </g>
   <g id="patch_110">
    <path clip-path="url(#p78d716c638)" d="M 283.699045 273.312 
L 285.441094 273.312 
L 285.441094 108.761635 
L 283.699045 108.761635 
z
" style="fill:#1f77b4;"/>
   </g>
   <g id="patch_111">
    <path clip-path="url(#p78d716c638)" d="M 285.876606 273.312 
L 287.618655 273.312 
L 287.618655 110.249153 
L 285.876606 110.249153 
z
" style="fill:#1f77b4;"/>
   </g>
   <g id="patch_112">
    <path clip-path="url(#p78d716c638)" d="M 288.054167 273.312 
L 289.796215 273.312 
L 289.796215 109.992685 
L 288.054167 109.992685 
z
" style="fill:#1f77b4;"/>
   </g>
   <g id="patch_113">
    <path clip-path="url(#p78d716c638)" d="M 290.231728 273.312 
L 291.973776 273.312 
L 291.973776 113.429366 
L 290.231728 113.429366 
z
" style="fill:#1f77b4;"/>
   </g>
   <g id="patch_114">
    <path clip-path="url(#p78d716c638)" d="M 292.409289 273.312 
L 294.151337 273.312 
L 294.151337 116.609579 
L 292.409289 116.609579 
z
" style="fill:#1f77b4;"/>
   </g>
   <g id="patch_115">
    <path clip-path="url(#p78d716c638)" d="M 294.58685 273.312 
L 296.328898 273.312 
L 296.328898 121.277311 
L 294.58685 121.277311 
z
" style="fill:#1f77b4;"/>
   </g>
   <g id="patch_116">
    <path clip-path="url(#p78d716c638)" d="M 296.764411 273.312 
L 298.506459 273.312 
L 298.506459 123.482942 
L 296.764411 123.482942 
z
" style="fill:#1f77b4;"/>
   </g>
   <g id="patch_117">
    <path clip-path="url(#p78d716c638)" d="M 298.941972 273.312 
L 300.68402 273.312 
L 300.68402 123.021298 
L 298.941972 123.021298 
z
" style="fill:#1f77b4;"/>
   </g>
   <g id="patch_118">
    <path clip-path="url(#p78d716c638)" d="M 301.119533 273.312 
L 302.861581 273.312 
L 302.861581 126.611861 
L 301.119533 126.611861 
z
" style="fill:#1f77b4;"/>
   </g>
   <g id="patch_119">
    <path clip-path="url(#p78d716c638)" d="M 303.297094 273.312 
L 305.039142 273.312 
L 305.039142 131.741237 
L 303.297094 131.741237 
z
" style="fill:#1f77b4;"/>
   </g>
   <g id="patch_120">
    <path clip-path="url(#p78d716c638)" d="M 305.474655 273.312 
L 307.216703 273.312 
L 307.216703 133.587812 
L 305.474655 133.587812 
z
" style="fill:#1f77b4;"/>
   </g>
   <g id="patch_121">
    <path clip-path="url(#p78d716c638)" d="M 307.652215 273.312 
L 309.394264 273.312 
L 309.394264 131.895118 
L 307.652215 131.895118 
z
" style="fill:#1f77b4;"/>
   </g>
   <g id="patch_122">
    <path clip-path="url(#p78d716c638)" d="M 309.829776 273.312 
L 311.571825 273.312 
L 311.571825 133.023581 
L 309.829776 133.023581 
z
" style="fill:#1f77b4;"/>
   </g>
   <g id="patch_123">
    <path clip-path="url(#p78d716c638)" d="M 312.007337 273.312 
L 313.749386 273.312 
L 313.749386 136.921906 
L 312.007337 136.921906 
z
" style="fill:#1f77b4;"/>
   </g>
   <g id="patch_124">
    <path clip-path="url(#p78d716c638)" d="M 314.184898 273.312 
L 315.926947 273.312 
L 315.926947 144.103032 
L 314.184898 144.103032 
z
" style="fill:#1f77b4;"/>
   </g>
   <g id="patch_125">
    <path clip-path="url(#p78d716c638)" d="M 316.362459 273.312 
L 318.104508 273.312 
L 318.104508 145.693138 
L 316.362459 145.693138 
z
" style="fill:#1f77b4;"/>
   </g>
   <g id="patch_126">
    <path clip-path="url(#p78d716c638)" d="M 318.54002 273.312 
L 320.282069 273.312 
L 320.282069 148.822057 
L 318.54002 148.822057 
z
" style="fill:#1f77b4;"/>
   </g>
   <g id="patch_127">
    <path clip-path="url(#p78d716c638)" d="M 320.717581 273.312 
L 322.45963 273.312 
L 322.45963 152.617795 
L 320.717581 152.617795 
z
" style="fill:#1f77b4;"/>
   </g>
   <g id="patch_128">
    <path clip-path="url(#p78d716c638)" d="M 322.895142 273.312 
L 324.637191 273.312 
L 324.637191 155.131189 
L 322.895142 155.131189 
z
" style="fill:#1f77b4;"/>
   </g>
   <g id="patch_129">
    <path clip-path="url(#p78d716c638)" d="M 325.072703 273.312 
L 326.814752 273.312 
L 326.814752 157.644583 
L 325.072703 157.644583 
z
" style="fill:#1f77b4;"/>
   </g>
   <g id="patch_130">
    <path clip-path="url(#p78d716c638)" d="M 327.250264 273.312 
L 328.992313 273.312 
L 328.992313 162.055846 
L 327.250264 162.055846 
z
" style="fill:#1f77b4;"/>
   </g>
   <g id="patch_131">
    <path clip-path="url(#p78d716c638)" d="M 329.427825 273.312 
L 331.169874 273.312 
L 331.169874 160.363152 
L 329.427825 160.363152 
z
" style="fill:#1f77b4;"/>
   </g>
   <g id="patch_132">
    <path clip-path="url(#p78d716c638)" d="M 331.605386 273.312 
L 333.347435 273.312 
L 333.347435 162.876546 
L 331.605386 162.876546 
z
" style="fill:#1f77b4;"/>
   </g>
   <g id="patch_133">
    <path clip-path="url(#p78d716c638)" d="M 333.782947 273.312 
L 335.524996 273.312 
L 335.524996 160.978677 
L 333.782947 160.978677 
z
" style="fill:#1f77b4;"/>
   </g>
   <g id="patch_134">
    <path clip-path="url(#p78d716c638)" d="M 335.960508 273.312 
L 337.702557 273.312 
L 337.702557 164.056302 
L 335.960508 164.056302 
z
" style="fill:#1f77b4;"/>
   </g>
   <g id="patch_135">
    <path clip-path="url(#p78d716c638)" d="M 338.138069 273.312 
L 339.880118 273.312 
L 339.880118 163.492071 
L 338.138069 163.492071 
z
" style="fill:#1f77b4;"/>
   </g>
   <g id="patch_136">
    <path clip-path="url(#p78d716c638)" d="M 340.31563 273.312 
L 342.057679 273.312 
L 342.057679 162.671371 
L 340.31563 162.671371 
z
" style="fill:#1f77b4;"/>
   </g>
   <g id="patch_137">
    <path clip-path="url(#p78d716c638)" d="M 342.493191 273.312 
L 344.23524 273.312 
L 344.23524 161.645496 
L 342.493191 161.645496 
z
" style="fill:#1f77b4;"/>
   </g>
   <g id="patch_138">
    <path clip-path="url(#p78d716c638)" d="M 344.670752 273.312 
L 346.412801 273.312 
L 346.412801 164.261477 
L 344.670752 164.261477 
z
" style="fill:#1f77b4;"/>
   </g>
   <g id="patch_139">
    <path clip-path="url(#p78d716c638)" d="M 346.848313 273.312 
L 348.590362 273.312 
L 348.590362 166.005465 
L 346.848313 166.005465 
z
" style="fill:#1f77b4;"/>
   </g>
   <g id="patch_140">
    <path clip-path="url(#p78d716c638)" d="M 349.025874 273.312 
L 350.767923 273.312 
L 350.767923 171.13484 
L 349.025874 171.13484 
z
" style="fill:#1f77b4;"/>
   </g>
   <g id="patch_141">
    <path clip-path="url(#p78d716c638)" d="M 351.203435 273.312 
L 352.945484 273.312 
L 352.945484 169.647322 
L 351.203435 169.647322 
z
" style="fill:#1f77b4;"/>
   </g>
   <g id="patch_142">
    <path clip-path="url(#p78d716c638)" d="M 353.380996 273.312 
L 355.123045 273.312 
L 355.123045 171.699072 
L 353.380996 171.699072 
z
" style="fill:#1f77b4;"/>
   </g>
   <g id="patch_143">
    <path clip-path="url(#p78d716c638)" d="M 355.558557 273.312 
L 357.300606 273.312 
L 357.300606 173.135297 
L 355.558557 173.135297 
z
" style="fill:#1f77b4;"/>
   </g>
   <g id="patch_144">
    <path clip-path="url(#p78d716c638)" d="M 357.736118 273.312 
L 359.478167 273.312 
L 359.478167 173.802116 
L 357.736118 173.802116 
z
" style="fill:#1f77b4;"/>
   </g>
   <g id="patch_145">
    <path clip-path="url(#p78d716c638)" d="M 359.913679 273.312 
L 361.655728 273.312 
L 361.655728 172.314597 
L 359.913679 172.314597 
z
" style="fill:#1f77b4;"/>
   </g>
   <g id="patch_146">
    <path clip-path="url(#p78d716c638)" d="M 362.09124 273.312 
L 363.833289 273.312 
L 363.833289 170.72449 
L 362.09124 170.72449 
z
" style="fill:#1f77b4;"/>
   </g>
   <g id="patch_147">
    <path clip-path="url(#p78d716c638)" d="M 364.268801 273.312 
L 366.01085 273.312 
L 366.01085 168.467565 
L 364.268801 168.467565 
z
" style="fill:#1f77b4;"/>
   </g>
   <g id="patch_148">
    <path clip-path="url(#p78d716c638)" d="M 366.446362 273.312 
L 368.188411 273.312 
L 368.188411 167.082634 
L 366.446362 167.082634 
z
" style="fill:#1f77b4;"/>
   </g>
   <g id="patch_149">
    <path clip-path="url(#p78d716c638)" d="M 368.623923 273.312 
L 370.365972 273.312 
L 370.365972 166.313227 
L 368.623923 166.313227 
z
" style="fill:#1f77b4;"/>
   </g>
   <g id="patch_150">
    <path clip-path="url(#p78d716c638)" d="M 370.801484 273.312 
L 372.543533 273.312 
L 372.543533 162.620077 
L 370.801484 162.620077 
z
" style="fill:#1f77b4;"/>
   </g>
   <g id="patch_151">
    <path clip-path="url(#p78d716c638)" d="M 372.979045 273.312 
L 374.721094 273.312 
L 374.721094 160.927383 
L 372.979045 160.927383 
z
" style="fill:#1f77b4;"/>
   </g>
   <g id="patch_152">
    <path clip-path="url(#p78d716c638)" d="M 375.156606 273.312 
L 376.898655 273.312 
L 376.898655 161.69679 
L 375.156606 161.69679 
z
" style="fill:#1f77b4;"/>
   </g>
   <g id="patch_153">
    <path clip-path="url(#p78d716c638)" d="M 377.334167 273.312 
L 379.076215 273.312 
L 379.076215 159.952802 
L 377.334167 159.952802 
z
" style="fill:#1f77b4;"/>
   </g>
   <g id="patch_154">
    <path clip-path="url(#p78d716c638)" d="M 379.511728 273.312 
L 381.253776 273.312 
L 381.253776 155.69542 
L 379.511728 155.69542 
z
" style="fill:#1f77b4;"/>
   </g>
   <g id="patch_155">
    <path clip-path="url(#p78d716c638)" d="M 381.689289 273.312 
L 383.431337 273.312 
L 383.431337 155.182483 
L 381.689289 155.182483 
z
" style="fill:#1f77b4;"/>
   </g>
   <g id="patch_156">
    <path clip-path="url(#p78d716c638)" d="M 383.86685 273.312 
L 385.608898 273.312 
L 385.608898 152.258739 
L 383.86685 152.258739 
z
" style="fill:#1f77b4;"/>
   </g>
   <g id="patch_157">
    <path clip-path="url(#p78d716c638)" d="M 386.044411 273.312 
L 387.786459 273.312 
L 387.786459 150.412163 
L 386.044411 150.412163 
z
" style="fill:#1f77b4;"/>
   </g>
   <g id="patch_158">
    <path clip-path="url(#p78d716c638)" d="M 388.221972 273.312 
L 389.96402 273.312 
L 389.96402 143.94915 
L 388.221972 143.94915 
z
" style="fill:#1f77b4;"/>
   </g>
   <g id="patch_159">
    <path clip-path="url(#p78d716c638)" d="M 390.399533 273.312 
L 392.141581 273.312 
L 392.141581 138.871069 
L 390.399533 138.871069 
z
" style="fill:#1f77b4;"/>
   </g>
   <g id="patch_160">
    <path clip-path="url(#p78d716c638)" d="M 392.577094 273.312 
L 394.319142 273.312 
L 394.319142 136.306381 
L 392.577094 136.306381 
z
" style="fill:#1f77b4;"/>
   </g>
   <g id="patch_161">
    <path clip-path="url(#p78d716c638)" d="M 394.754655 273.312 
L 396.496703 273.312 
L 396.496703 135.998618 
L 394.754655 135.998618 
z
" style="fill:#1f77b4;"/>
   </g>
   <g id="patch_162">
    <path clip-path="url(#p78d716c638)" d="M 396.932215 273.312 
L 398.674264 273.312 
L 398.674264 131.689943 
L 396.932215 131.689943 
z
" style="fill:#1f77b4;"/>
   </g>
   <g id="patch_163">
    <path clip-path="url(#p78d716c638)" d="M 399.109776 273.312 
L 400.851825 273.312 
L 400.851825 129.843368 
L 399.109776 129.843368 
z
" style="fill:#1f77b4;"/>
   </g>
   <g id="patch_164">
    <path clip-path="url(#p78d716c638)" d="M 401.287337 273.312 
L 403.029386 273.312 
L 403.029386 128.201968 
L 401.287337 128.201968 
z
" style="fill:#1f77b4;"/>
   </g>
   <g id="patch_165">
    <path clip-path="url(#p78d716c638)" d="M 403.464898 273.312 
L 405.206947 273.312 
L 405.206947 125.688574 
L 403.464898 125.688574 
z
" style="fill:#1f77b4;"/>
   </g>
   <g id="patch_166">
    <path clip-path="url(#p78d716c638)" d="M 405.642459 273.312 
L 407.384508 273.312 
L 407.384508 124.201055 
L 405.642459 124.201055 
z
" style="fill:#1f77b4;"/>
   </g>
   <g id="matplotlib.axis_1">
    <g id="xtick_1">
     <g id="line2d_1">
      <defs>
       <path d="M 0 0 
L 0 3.5 
" id="m0b89fdef84" style="stroke:#000000;stroke-width:0.8;"/>
      </defs>
      <g>
       <use style="stroke:#000000;stroke-width:0.8;" x="95.122264" xlink:href="#m0b89fdef84" y="273.312"/>
      </g>
     </g>
     <g id="text_1">
      <!-- 2020-11 -->
      <g transform="translate(97.281677 313.517436)rotate(-90)scale(0.1 -0.1)">
       <defs>
        <path d="M 1.59375 2.5 
L 1.59375 0 
C 20.296875 0 20.296875 0 23.90625 0 
C 27.5 0 27.5 0 46.796875 0 
C 46.59375 1.953125 46.59375 2.90625 46.59375 4.203125 
C 46.59375 5.4375 46.59375 6.359375 46.796875 8.421875 
C 35.296875 8.421875 30.703125 8.421875 12.203125 8.421875 
L 30.40625 27.515625 
C 40.09375 37.71875 43.09375 43.171875 43.09375 50.59375 
C 43.09375 61.96875 35.296875 69 22.59375 69 
C 15.40625 69 10.5 67 5.59375 62.015625 
L 3.90625 48.421875 
L 6.796875 48.421875 
L 8.09375 53.015625 
C 9.703125 58.796875 13.296875 61.296875 20 61.296875 
C 28.59375 61.296875 34.09375 55.890625 34.09375 47.421875 
C 34.09375 39.921875 29.90625 32.546875 18.59375 20.5625 
z
" id="URW_Palladio_L_Roman-50"/>
        <path d="M 26.296875 69 
C 10.796875 69 2.90625 56.6875 2.90625 32.453125 
C 2.90625 20.71875 5 10.625 8.5 5.71875 
C 12 0.796875 17.59375 -2 23.796875 -2 
C 38.90625 -2 46.5 11.015625 46.5 36.65625 
C 46.5 58.578125 40 69 26.296875 69 
z
M 24.5 65.5 
C 34.203125 65.5 38.09375 55.6875 38.09375 31.640625 
C 38.09375 10.328125 34.296875 1.5 25.09375 1.5 
C 15.40625 1.5 11.296875 11.625 11.296875 36.0625 
C 11.296875 57.1875 15 65.5 24.5 65.5 
z
" id="URW_Palladio_L_Roman-48"/>
        <path d="M 28.203125 22 
L 31.203125 28.703125 
L 30.703125 29.203125 
L 4.40625 29.203125 
L 1.703125 22.5 
L 2.203125 22 
z
" id="URW_Palladio_L_Roman-45"/>
        <path d="M 6.703125 56 
L 7.703125 56 
L 20.59375 61.8125 
C 20.703125 61.90625 20.796875 61.90625 20.90625 61.90625 
C 21.5 61.90625 21.703125 61.015625 21.703125 58.609375 
L 21.703125 9.578125 
C 21.703125 4.3125 20.59375 3.203125 15.203125 3.203125 
L 9.59375 3.203125 
L 9.59375 0 
C 25 0 25 0 26.09375 0 
C 27.40625 0 29.59375 0 33 0 
C 34.203125 0 37.703125 0 41.796875 0 
L 41.796875 3.203125 
L 36.59375 3.203125 
C 31.09375 3.203125 30.09375 4.3125 30.09375 9.5625 
L 30.09375 69.421875 
L 28.703125 69.921875 
C 22.203125 66.515625 15.09375 63.515625 6 60.3125 
z
" id="URW_Palladio_L_Roman-49"/>
       </defs>
       <use transform="scale(0.996264)" xlink:href="#URW_Palladio_L_Roman-50"/>
       <use transform="translate(49.8132 0)scale(0.996264)" xlink:href="#URW_Palladio_L_Roman-48"/>
       <use transform="translate(99.626401 0)scale(0.996264)" xlink:href="#URW_Palladio_L_Roman-50"/>
       <use transform="translate(149.439601 0)scale(0.996264)" xlink:href="#URW_Palladio_L_Roman-48"/>
       <use transform="translate(199.252802 0)scale(0.996264)" xlink:href="#URW_Palladio_L_Roman-45"/>
       <use transform="translate(232.428032 0)scale(0.996264)" xlink:href="#URW_Palladio_L_Roman-49"/>
       <use transform="translate(282.241232 0)scale(0.996264)" xlink:href="#URW_Palladio_L_Roman-49"/>
      </g>
     </g>
    </g>
    <g id="xtick_2">
     <g id="line2d_2">
      <g>
       <use style="stroke:#000000;stroke-width:0.8;" x="160.449094" xlink:href="#m0b89fdef84" y="273.312"/>
      </g>
     </g>
     <g id="text_2">
      <!-- 2020-12 -->
      <g transform="translate(162.608507 313.517436)rotate(-90)scale(0.1 -0.1)">
       <use transform="scale(0.996264)" xlink:href="#URW_Palladio_L_Roman-50"/>
       <use transform="translate(49.8132 0)scale(0.996264)" xlink:href="#URW_Palladio_L_Roman-48"/>
       <use transform="translate(99.626401 0)scale(0.996264)" xlink:href="#URW_Palladio_L_Roman-50"/>
       <use transform="translate(149.439601 0)scale(0.996264)" xlink:href="#URW_Palladio_L_Roman-48"/>
       <use transform="translate(199.252802 0)scale(0.996264)" xlink:href="#URW_Palladio_L_Roman-45"/>
       <use transform="translate(232.428032 0)scale(0.996264)" xlink:href="#URW_Palladio_L_Roman-49"/>
       <use transform="translate(282.241232 0)scale(0.996264)" xlink:href="#URW_Palladio_L_Roman-50"/>
      </g>
     </g>
    </g>
    <g id="xtick_3">
     <g id="line2d_3">
      <g>
       <use style="stroke:#000000;stroke-width:0.8;" x="227.953484" xlink:href="#m0b89fdef84" y="273.312"/>
      </g>
     </g>
     <g id="text_3">
      <!-- 2021-01 -->
      <g transform="translate(230.112897 313.517436)rotate(-90)scale(0.1 -0.1)">
       <use transform="scale(0.996264)" xlink:href="#URW_Palladio_L_Roman-50"/>
       <use transform="translate(49.8132 0)scale(0.996264)" xlink:href="#URW_Palladio_L_Roman-48"/>
       <use transform="translate(99.626401 0)scale(0.996264)" xlink:href="#URW_Palladio_L_Roman-50"/>
       <use transform="translate(149.439601 0)scale(0.996264)" xlink:href="#URW_Palladio_L_Roman-49"/>
       <use transform="translate(199.252802 0)scale(0.996264)" xlink:href="#URW_Palladio_L_Roman-45"/>
       <use transform="translate(232.428032 0)scale(0.996264)" xlink:href="#URW_Palladio_L_Roman-48"/>
       <use transform="translate(282.241232 0)scale(0.996264)" xlink:href="#URW_Palladio_L_Roman-49"/>
      </g>
     </g>
    </g>
    <g id="xtick_4">
     <g id="line2d_4">
      <g>
       <use style="stroke:#000000;stroke-width:0.8;" x="295.457874" xlink:href="#m0b89fdef84" y="273.312"/>
      </g>
     </g>
     <g id="text_4">
      <!-- 2021-02 -->
      <g transform="translate(297.617287 313.517436)rotate(-90)scale(0.1 -0.1)">
       <use transform="scale(0.996264)" xlink:href="#URW_Palladio_L_Roman-50"/>
       <use transform="translate(49.8132 0)scale(0.996264)" xlink:href="#URW_Palladio_L_Roman-48"/>
       <use transform="translate(99.626401 0)scale(0.996264)" xlink:href="#URW_Palladio_L_Roman-50"/>
       <use transform="translate(149.439601 0)scale(0.996264)" xlink:href="#URW_Palladio_L_Roman-49"/>
       <use transform="translate(199.252802 0)scale(0.996264)" xlink:href="#URW_Palladio_L_Roman-45"/>
       <use transform="translate(232.428032 0)scale(0.996264)" xlink:href="#URW_Palladio_L_Roman-48"/>
       <use transform="translate(282.241232 0)scale(0.996264)" xlink:href="#URW_Palladio_L_Roman-50"/>
      </g>
     </g>
    </g>
    <g id="xtick_5">
     <g id="line2d_5">
      <g>
       <use style="stroke:#000000;stroke-width:0.8;" x="356.429581" xlink:href="#m0b89fdef84" y="273.312"/>
      </g>
     </g>
     <g id="text_5">
      <!-- 2021-03 -->
      <g transform="translate(358.588995 313.517436)rotate(-90)scale(0.1 -0.1)">
       <defs>
        <path d="M 4.296875 49.953125 
L 7.40625 49.953125 
L 9.203125 55.53125 
C 10.296875 58.90625 16.59375 62.296875 21.796875 62.296875 
C 28.296875 62.296875 33.59375 57.015625 33.59375 50.75 
C 33.59375 43.28125 27.703125 37 20.59375 37 
C 19.796875 37 18.703125 37 17.40625 37.203125 
L 15.90625 37.203125 
L 14.703125 31.984375 
L 15.40625 31.375 
C 19.203125 33.09375 21.09375 33.59375 23.796875 33.59375 
C 32.09375 33.59375 36.90625 28.265625 36.90625 19.09375 
C 36.90625 8.84375 30.796875 2.109375 21.5 2.109375 
C 16.90625 2.109375 12.796875 3.609375 9.796875 6.421875 
C 7.40625 8.640625 6.09375 10.953125 4.203125 16.390625 
L 1.5 15.390625 
C 3.59375 9.265625 4.40625 5.640625 5 0.609375 
C 10.296875 -1.203125 14.703125 -2 18.40625 -2 
C 26.40625 -2 35.59375 2.515625 41.09375 9.265625 
C 44.5 13.390625 46.203125 17.8125 46.203125 22.53125 
C 46.203125 27.359375 44.203125 31.59375 40.59375 34.09375 
C 38.09375 35.90625 35.796875 36.71875 30.796875 37.609375 
C 38.796875 43.796875 41.796875 48.375 41.796875 54.25 
C 41.796875 63.125 34.40625 69 23.296875 69 
C 16.5 69 12 67.109375 7.203125 62.328125 
z
" id="URW_Palladio_L_Roman-51"/>
       </defs>
       <use transform="scale(0.996264)" xlink:href="#URW_Palladio_L_Roman-50"/>
       <use transform="translate(49.8132 0)scale(0.996264)" xlink:href="#URW_Palladio_L_Roman-48"/>
       <use transform="translate(99.626401 0)scale(0.996264)" xlink:href="#URW_Palladio_L_Roman-50"/>
       <use transform="translate(149.439601 0)scale(0.996264)" xlink:href="#URW_Palladio_L_Roman-49"/>
       <use transform="translate(199.252802 0)scale(0.996264)" xlink:href="#URW_Palladio_L_Roman-45"/>
       <use transform="translate(232.428032 0)scale(0.996264)" xlink:href="#URW_Palladio_L_Roman-48"/>
       <use transform="translate(282.241232 0)scale(0.996264)" xlink:href="#URW_Palladio_L_Roman-51"/>
      </g>
     </g>
    </g>
   </g>
   <g id="matplotlib.axis_2">
    <g id="ytick_1">
     <g id="line2d_6">
      <defs>
       <path d="M 0 0 
L -3.5 0 
" id="m8dfe89bd65" style="stroke:#000000;stroke-width:0.8;"/>
      </defs>
      <g>
       <use style="stroke:#000000;stroke-width:0.8;" x="50.482264" xlink:href="#m8dfe89bd65" y="273.312"/>
      </g>
     </g>
     <g id="text_6">
      <!-- $\mathdefault{0}$ -->
      <g transform="translate(38.500944 276.876119)scale(0.1 -0.1)">
       <use transform="scale(0.996264)" xlink:href="#URW_Palladio_L_Roman-48"/>
      </g>
     </g>
    </g>
    <g id="ytick_2">
     <g id="line2d_7">
      <g>
       <use style="stroke:#000000;stroke-width:0.8;" x="50.482264" xlink:href="#m8dfe89bd65" y="242.35109"/>
      </g>
     </g>
     <g id="text_7">
      <!-- $\mathdefault{1}$ -->
      <g transform="translate(38.500944 245.915208)scale(0.1 -0.1)">
       <use transform="scale(0.996264)" xlink:href="#URW_Palladio_L_Roman-49"/>
      </g>
     </g>
    </g>
    <g id="ytick_3">
     <g id="line2d_8">
      <g>
       <use style="stroke:#000000;stroke-width:0.8;" x="50.482264" xlink:href="#m8dfe89bd65" y="211.390179"/>
      </g>
     </g>
     <g id="text_8">
      <!-- $\mathdefault{2}$ -->
      <g transform="translate(38.500944 214.954298)scale(0.1 -0.1)">
       <use transform="scale(0.996264)" xlink:href="#URW_Palladio_L_Roman-50"/>
      </g>
     </g>
    </g>
    <g id="ytick_4">
     <g id="line2d_9">
      <g>
       <use style="stroke:#000000;stroke-width:0.8;" x="50.482264" xlink:href="#m8dfe89bd65" y="180.429269"/>
      </g>
     </g>
     <g id="text_9">
      <!-- $\mathdefault{3}$ -->
      <g transform="translate(38.500944 183.993387)scale(0.1 -0.1)">
       <use transform="scale(0.996264)" xlink:href="#URW_Palladio_L_Roman-51"/>
      </g>
     </g>
    </g>
    <g id="ytick_5">
     <g id="line2d_10">
      <g>
       <use style="stroke:#000000;stroke-width:0.8;" x="50.482264" xlink:href="#m8dfe89bd65" y="149.468358"/>
      </g>
     </g>
     <g id="text_10">
      <!-- $\mathdefault{4}$ -->
      <g transform="translate(38.500944 153.032477)scale(0.1 -0.1)">
       <defs>
        <path d="M 28 18 
L 28 10.515625 
C 28 4.515625 26.90625 3.109375 22 3.109375 
L 15.796875 3.109375 
L 15.796875 0 
C 29.09375 0 29.09375 0 31.5 0 
C 33.90625 0 33.90625 0 47.203125 0 
L 47.203125 3.109375 
L 42.40625 3.109375 
C 37.5 3.109375 36.40625 4.40625 36.40625 10.453125 
L 36.40625 18 
C 42.296875 18 44.40625 18 47.203125 17.703125 
L 47.203125 24.8125 
C 42.5 24.421875 40.59375 24.421875 39.09375 24.421875 
L 38.796875 24.421875 
L 36.40625 24.421875 
L 36.40625 38.390625 
C 36.40625 56.25 36.59375 64.875 37.09375 69 
L 35.90625 69.5 
L 28.5 66.796875 
L 0.203125 20.296875 
L 1.296875 18 
z
M 28 24.421875 
L 6.5 24.421875 
L 28 59.78125 
z
" id="URW_Palladio_L_Roman-52"/>
       </defs>
       <use transform="scale(0.996264)" xlink:href="#URW_Palladio_L_Roman-52"/>
      </g>
     </g>
    </g>
    <g id="ytick_6">
     <g id="line2d_11">
      <g>
       <use style="stroke:#000000;stroke-width:0.8;" x="50.482264" xlink:href="#m8dfe89bd65" y="118.507448"/>
      </g>
     </g>
     <g id="text_11">
      <!-- $\mathdefault{5}$ -->
      <g transform="translate(38.500944 122.071567)scale(0.1 -0.1)">
       <defs>
        <path d="M 12.703125 60.578125 
C 25.59375 60.578125 31.203125 60.578125 43.203125 60.578125 
L 43.703125 61.046875 
C 43.5 62.75 43.5 63.5 43.5 64.75 
C 43.5 66.078125 43.5 66.828125 43.703125 68.53125 
L 43.203125 69 
C 35.703125 69 31.203125 69 25.796875 69 
C 20.296875 69 15.90625 69 8.40625 69 
L 7.90625 68.796875 
C 8 62.671875 8.09375 58.265625 8.09375 55.046875 
C 8.09375 46.515625 7.796875 36.875 7.5 32.453125 
L 9.5 31.84375 
C 14.203125 36.578125 16.90625 38 21.796875 38 
C 31.40625 38 37.40625 31.140625 37.40625 20.25 
C 37.40625 9.0625 31 2.5 20.09375 2.5 
C 14.703125 2.5 9.703125 4.328125 8.296875 6.9375 
L 3.703125 15.203125 
L 1.296875 13.796875 
C 3.59375 8.0625 4.796875 4.84375 6.203125 0.421875 
C 9 -1.109375 13 -2 17.296875 -2 
C 24 -2 31.09375 0.921875 36.59375 5.75 
C 42.703125 11.1875 45.90625 18.03125 45.90625 25.46875 
C 45.90625 36.859375 37.796875 44.90625 26.40625 44.90625 
C 21.59375 44.90625 18 43.609375 11.796875 39.90625 
z
" id="URW_Palladio_L_Roman-53"/>
       </defs>
       <use transform="scale(0.996264)" xlink:href="#URW_Palladio_L_Roman-53"/>
      </g>
     </g>
    </g>
    <g id="ytick_7">
     <g id="line2d_12">
      <g>
       <use style="stroke:#000000;stroke-width:0.8;" x="50.482264" xlink:href="#m8dfe89bd65" y="87.546538"/>
      </g>
     </g>
     <g id="text_12">
      <!-- $\mathdefault{6}$ -->
      <g transform="translate(38.500944 91.110656)scale(0.1 -0.1)">
       <defs>
        <path d="M 41.59375 67.34375 
L 37.90625 69.046875 
C 28.296875 65.84375 24.203125 63.84375 19.09375 59.4375 
C 8.796875 50.71875 3.203125 38.5 3.203125 24.765625 
C 3.203125 8.21875 11.203125 -2 24.09375 -2 
C 37.09375 -2 46.796875 8.3125 46.796875 21.953125 
C 46.796875 33.484375 39.90625 41 29.296875 41 
C 24.296875 41 21.296875 39.6875 15.40625 34.984375 
C 14.296875 34.078125 14.203125 33.984375 13.09375 33.1875 
C 15.203125 51.3125 23.59375 61.140625 41.59375 66.546875 
z
M 25.5 34.984375 
C 33.09375 34.984375 38.203125 28.375 38.203125 18.453125 
C 38.203125 8.015625 33.09375 1.296875 25.40625 1.296875 
C 16.90625 1.296875 12.296875 8.609375 12.296875 22.0625 
C 12.296875 25.5625 12.703125 27.46875 13.796875 29.171875 
C 16 32.578125 20.703125 34.984375 25.5 34.984375 
z
" id="URW_Palladio_L_Roman-54"/>
       </defs>
       <use transform="scale(0.996264)" xlink:href="#URW_Palladio_L_Roman-54"/>
      </g>
     </g>
    </g>
    <g id="ytick_8">
     <g id="line2d_13">
      <g>
       <use style="stroke:#000000;stroke-width:0.8;" x="50.482264" xlink:href="#m8dfe89bd65" y="56.585627"/>
      </g>
     </g>
     <g id="text_13">
      <!-- $\mathdefault{7}$ -->
      <g transform="translate(38.500944 60.149746)scale(0.1 -0.1)">
       <defs>
        <path d="M 5.59375 0.5 
L 6.5 -0.796875 
C 10.40625 -0.5 10.40625 -0.5 11.09375 -0.5 
C 11.796875 -0.5 11.796875 -0.5 15.703125 -0.796875 
C 19.90625 10.140625 24.796875 20.578125 31.40625 32.609375 
L 49.703125 65.609375 
L 49.703125 68.3125 
C 38.90625 68.3125 35.40625 68.3125 27.296875 68.3125 
C 20 68.3125 15.09375 68.3125 5.40625 68.3125 
L 4.40625 68.109375 
C 4.703125 58.59375 4.703125 58.59375 4.703125 57.578125 
C 4.703125 56.46875 4.703125 56.46875 4.40625 47.359375 
L 7.40625 47.359375 
L 8.09375 52.96875 
C 8.90625 59.203125 9.59375 60 14.203125 60 
L 40.90625 60 
C 36.90625 51.765625 33.796875 45.953125 30 39.828125 
z
" id="URW_Palladio_L_Roman-55"/>
       </defs>
       <use transform="scale(0.996264)" xlink:href="#URW_Palladio_L_Roman-55"/>
      </g>
     </g>
    </g>
    <g id="ytick_9">
     <g id="line2d_14">
      <g>
       <use style="stroke:#000000;stroke-width:0.8;" x="50.482264" xlink:href="#m8dfe89bd65" y="25.624717"/>
      </g>
     </g>
     <g id="text_14">
      <!-- $\mathdefault{8}$ -->
      <g transform="translate(38.500944 29.188835)scale(0.1 -0.1)">
       <defs>
        <path d="M 16.796875 34.546875 
C 12.703125 32.65625 11 31.546875 8.796875 29.4375 
C 5 25.640625 3 21.125 3 15.921875 
C 3 5.609375 11.296875 -2 22.59375 -2 
C 35.59375 -2 46.40625 8.21875 46.40625 20.625 
C 46.40625 28.640625 42.703125 32.953125 31.296875 38.15625 
C 40.40625 44.375 43.59375 48.578125 43.59375 54.578125 
C 43.59375 63.1875 36.5 69 25.90625 69 
C 14 69 5.296875 61.390625 5.296875 50.890625 
C 5.296875 44.078125 8 40.265625 16.796875 34.546875 
z
M 28.40625 29.546875 
C 34.703125 26.734375 38.5 21.828125 38.5 16.4375 
C 38.5 8.015625 32.203125 1.40625 24.09375 1.40625 
C 15.59375 1.40625 10.09375 7.421875 10.09375 16.734375 
C 10.09375 24.03125 13 28.640625 20.40625 33.15625 
z
M 22.296875 42.375 
C 16 45.46875 12.796875 49.484375 12.796875 54.484375 
C 12.796875 61.09375 17.59375 65.59375 24.703125 65.59375 
C 32 65.59375 36.796875 60.796875 36.796875 53.46875 
C 36.796875 47.78125 34.296875 43.875 27.796875 39.65625 
z
" id="URW_Palladio_L_Roman-56"/>
       </defs>
       <use transform="scale(0.996264)" xlink:href="#URW_Palladio_L_Roman-56"/>
      </g>
     </g>
    </g>
    <g id="text_15">
     <!-- mortality (WHO) -->
     <g transform="translate(14.328237 178.352731)rotate(-90)scale(0.1 -0.1)">
      <defs>
       <path d="M 1.796875 40.078125 
L 5.5 40.078125 
C 9.5 40.078125 9.90625 39.375 9.90625 32.71875 
L 9.90625 10.046875 
C 9.90625 3.703125 9.59375 3 6.203125 3 
L 1.59375 3 
L 1.59375 -0.109375 
C 11.203125 -0.109375 11.5 -0.109375 14.296875 -0.109375 
C 17.09375 -0.109375 19.703125 -0.109375 26.203125 -0.109375 
L 26.203125 2.796875 
L 22 3.203125 
C 18.59375 3.203125 18.296875 3.90625 18.296875 10.21875 
L 18.296875 31.46875 
C 18.296875 35.96875 24.90625 40.875 30.90625 40.875 
C 36.296875 40.875 40 35.734375 40 28.09375 
L 40 10.046875 
C 40 3.703125 39.703125 3 36.296875 3 
L 31.703125 3 
L 31.703125 -0.109375 
C 41.703125 -0.109375 41.703125 -0.109375 44.203125 -0.109375 
C 46.703125 -0.109375 46.703125 -0.109375 56.703125 -0.109375 
L 56.703125 3 
L 52.09375 3 
C 48.703125 3 48.40625 3.703125 48.40625 10.046875 
L 48.40625 31.421875 
C 48.40625 35.9375 55 40.875 61 40.875 
C 66.40625 40.875 70.09375 35.796875 70.09375 28.21875 
L 70.09375 -0.109375 
C 76.203125 -0.109375 76.296875 -0.109375 78 -0.109375 
C 79.296875 -0.109375 79.296875 -0.109375 86.90625 -0.109375 
L 86.90625 3 
L 82.203125 3 
C 78.796875 3 78.5 3.703125 78.5 10.046875 
L 78.5 30.78125 
C 78.5 40.75 72.703125 47 63.5 47 
C 60 47 57.09375 46.09375 55.296875 44.484375 
L 47.703125 37.6875 
C 44.5 44.28125 40.40625 47 33.5 47 
C 29.796875 47 27 46.09375 25.203125 44.484375 
L 18.296875 38.078125 
L 18.296875 46.59375 
L 17.40625 47 
C 12.296875 44.890625 7.09375 43.484375 1.796875 42.890625 
z
" id="URW_Palladio_L_Roman-109"/>
       <path d="M 27.90625 47 
C 13.296875 47 3.203125 36.671875 3.203125 21.75 
C 3.203125 7.609375 12.09375 -2 25 -2 
C 40.40625 -2 51.40625 8.71875 51.40625 23.75 
C 51.40625 37.28125 41.59375 47 27.90625 47 
z
M 26.09375 43.6875 
C 35.296875 43.6875 42.09375 33.671875 42.09375 20.046875 
C 42.09375 8.515625 37 1.296875 28.90625 1.296875 
C 19.09375 1.296875 12.5 10.921875 12.5 25.15625 
C 12.5 37.171875 17.296875 43.6875 26.09375 43.6875 
z
" id="URW_Palladio_L_Roman-111"/>
       <path d="M 2.296875 40.078125 
L 6 40.078125 
C 10 40.078125 10.40625 39.375 10.40625 32.71875 
L 10.40625 10.046875 
C 10.40625 3.703125 10.09375 3 6.703125 3 
L 2.09375 3 
L 2.09375 -0.109375 
C 9.296875 -0.109375 11.90625 -0.109375 14.40625 -0.109375 
C 16.40625 -0.109375 16.40625 -0.109375 28.703125 -0.109375 
L 28.703125 3 
L 23.5 3 
C 19 3 18.796875 3.296875 18.796875 9.96875 
L 18.796875 27.359375 
C 18.796875 33.421875 22.796875 38.484375 27.703125 38.484375 
C 30.703125 38.484375 32.796875 37.078125 34.40625 33.890625 
L 36.5 33.890625 
L 37.40625 45.890625 
C 36.296875 46.59375 34.5 47 32.703125 47 
C 29.703125 47 26.5 45.390625 24.40625 42.890625 
L 18.796875 36.28125 
L 18.796875 46.59375 
L 17.90625 47 
C 12.796875 44.890625 7.59375 43.484375 2.296875 42.890625 
z
" id="URW_Palladio_L_Roman-114"/>
       <path d="M 9.796875 38.6875 
L 9.796875 9.671875 
C 9.796875 2.21875 13.09375 -1 20.796875 -1 
C 23.09375 -1 25.5 -0.5 26.09375 0.203125 
L 30.90625 5.515625 
L 29.59375 7.234375 
C 27.09375 5.8125 25.59375 5.3125 23.703125 5.3125 
C 19.796875 5.3125 18.203125 7.34375 18.203125 12.3125 
L 18.203125 38.890625 
L 31 38.890625 
L 31.90625 44 
L 18.203125 44 
L 18.203125 47.75 
C 18.203125 51.890625 18.5 55.421875 19.296875 61.734375 
L 18.09375 62.828125 
C 15.703125 61.328125 12.703125 60.03125 9.59375 59.03125 
C 9.90625 56.015625 10 54.109375 10 51.109375 
L 10 44.09375 
L 2.203125 40.59375 
L 2.203125 38.6875 
z
" id="URW_Palladio_L_Roman-116"/>
       <path d="M 32.40625 8.40625 
L 31.90625 -0.015625 
C 38.40625 -0.015625 38.40625 -0.015625 39.703125 -0.015625 
C 40.203125 -0.015625 42.703125 -0.015625 47.09375 -0.015625 
L 47.09375 3 
L 43.203125 3 
C 40.796875 3 40.40625 3.8125 40.40625 8.71875 
L 40.40625 27.046875 
C 40.40625 41.6875 36.203125 47 24.59375 47 
C 20.296875 47 16.296875 45.890625 12.5 43.609375 
L 7.203125 40.390625 
L 7.203125 33.921875 
L 9.796875 33.21875 
L 11.09375 36.296875 
C 13.203125 40.984375 14.203125 41.6875 18.796875 41.6875 
C 28.203125 41.6875 32.09375 37.984375 32.40625 28.9375 
L 22.5 27.125 
C 8.90625 24.640625 3.203125 19.953125 3.203125 11.28125 
C 3.203125 3.5 7.90625 -1 15.796875 -1 
C 17.59375 -1 19.296875 -0.703125 20 -0.203125 
z
M 32.40625 12.59375 
C 29.5 8.5 23.203125 4.71875 19.296875 4.71875 
C 15.296875 4.71875 11.796875 8.40625 11.796875 12.6875 
C 11.796875 16.375 13.796875 19.859375 16.796875 21.75 
C 19.296875 23.25 24.796875 24.640625 32.40625 25.75 
z
" id="URW_Palladio_L_Roman-97"/>
       <path d="M 2.296875 66.5 
L 7.90625 66.5 
C 9.703125 66.5 10.40625 65.390625 10.40625 62.375 
L 10.40625 10.171875 
C 10.40625 3.8125 10.09375 3.109375 6.703125 3.109375 
L 2.09375 3.109375 
L 2.09375 0 
C 12.09375 0 12.09375 0 14.59375 0 
C 17.09375 0 17.09375 0 27.09375 0 
L 27.09375 3.109375 
L 22.5 3.109375 
C 19.09375 3.109375 18.796875 3.8125 18.796875 10.15625 
L 18.796875 72.203125 
L 17.90625 73.015625 
C 13.5 71.3125 10.203125 70.5 2.296875 69.296875 
z
" id="URW_Palladio_L_Roman-108"/>
       <path d="M 18.796875 46.765625 
L 17.90625 47.171875 
C 12.796875 45.0625 7.59375 43.640625 2.296875 43.046875 
L 2.296875 40.25 
L 6 40.25 
C 10 40.25 10.40625 39.546875 10.40625 32.890625 
L 10.40625 10.171875 
C 10.40625 3.8125 10.09375 3.109375 6.703125 3.109375 
L 2.09375 3.109375 
L 2.09375 0 
C 12.09375 0 12.09375 0 14.59375 0 
C 17.09375 0 17.09375 0 27.09375 0 
L 27.09375 3.109375 
L 22.5 3.109375 
C 19.09375 3.109375 18.796875 3.8125 18.796875 10.171875 
z
M 14.203125 69 
C 11.203125 69 8.59375 66.390625 8.59375 63.375 
C 8.59375 60.46875 11.203125 57.875 14.09375 57.875 
C 17 57.875 19.703125 60.46875 19.703125 63.375 
C 19.703125 66.1875 17 69 14.203125 69 
z
" id="URW_Palladio_L_Roman-105"/>
       <path d="M 29.703125 8.8125 
C 27.5 12.625 26.40625 14.9375 24.59375 19.84375 
L 18.203125 36.671875 
C 17.59375 38.375 17.203125 39.875 17.203125 40.90625 
C 17.203125 42.34375 18.296875 43.1875 20.59375 43.1875 
L 24.40625 43.1875 
L 24.40625 46 
C 14.703125 46 14.703125 46 12.796875 46 
C 10.90625 46 10.90625 46 1.203125 46 
L 1.203125 43.390625 
L 3 43.1875 
C 5.5 42.890625 6.703125 41.78125 8.203125 38.296875 
L 19.09375 12.109375 
C 21.90625 5.3125 22.90625 2.90625 24.703125 -2.09375 
L 22.40625 -8.1875 
C 19.203125 -16.59375 15.296875 -21.28125 11.5 -21.28125 
C 9.90625 -21.28125 8.09375 -20.484375 6.40625 -18.984375 
L 5.09375 -18.984375 
L 2.703125 -26.5 
C 4.59375 -27.5 6.203125 -28 8.09375 -28 
C 14.796875 -28 19.09375 -24.40625 22.90625 -15.703125 
L 43.203125 31.09375 
C 47.203125 40.1875 49.09375 42.890625 51.59375 43.1875 
L 54.40625 43.390625 
L 54.40625 46 
C 46.5 46 46.5 46 44.90625 46 
C 43.296875 46 43.296875 46 35.40625 46 
L 35.40625 43.390625 
L 38 43.1875 
C 40.796875 42.984375 42.203125 42.09375 42.203125 40.6875 
C 42.203125 39.984375 42 39.078125 41.59375 38.078125 
z
" id="URW_Palladio_L_Roman-121"/>
       <path d="M 30.09375 -19.4375 
C 22.90625 -10.515625 20.296875 -5.71875 17.703125 3.3125 
C 15.59375 10.515625 14.59375 18.140625 14.59375 26.65625 
C 14.59375 34.96875 15.59375 42.078125 17.5 48.59375 
C 20.09375 56.90625 22.796875 61.625 30.09375 70.140625 
L 28.203125 72.75 
C 17.796875 63.421875 13.703125 57.921875 9.90625 48.09375 
C 7.296875 41.375 6 34.265625 6 26.65625 
C 6 15.9375 8.5 5.8125 13.296875 -3.203125 
C 16.796875 -9.921875 20 -13.828125 28.203125 -21.546875 
z
" id="URW_Palladio_L_Roman-40"/>
       <path d="M 73.40625 -1 
C 73.796875 0.5 74.09375 1.90625 74.203125 2.40625 
C 74.5 3.40625 75.296875 6.421875 76.09375 9.125 
L 91.40625 63 
C 92 64.796875 93 65.703125 95.203125 65.90625 
L 98.40625 66.203125 
L 98.40625 69 
L 87.90625 69 
C 86.90625 69 86.90625 69 77.40625 69 
L 77.40625 66.203125 
L 81.40625 65.90625 
C 84.90625 65.609375 86 65.109375 86.09375 63.484375 
C 86.09375 63.1875 86.09375 62.890625 86 62.578125 
L 72.796875 13.625 
L 56.40625 59.78125 
C 54.203125 65.796875 53.90625 66.59375 53.09375 70 
L 49.90625 70 
C 47.796875 63.78125 46.09375 59.296875 40.90625 45.859375 
L 28.5 14.328125 
L 18.5 59.296875 
C 18.203125 60.5 18.09375 61.59375 18.09375 62.59375 
C 18.09375 64.796875 19.09375 65.703125 21.796875 65.90625 
L 26 66.203125 
L 26 69 
L 13.40625 69 
C 12.703125 69 8.5 69 0.796875 69 
L 0.796875 66.203125 
L 3.59375 65.90625 
C 6.5 65.609375 7.703125 64.5 8.59375 60.890625 
L 20.5 9.328125 
C 21.796875 3.609375 21.796875 3.515625 22.796875 -1 
L 27.796875 -1 
C 28.703125 2.203125 29.5 4.609375 31.40625 9.328125 
L 48.796875 53.578125 
L 61.296875 19.625 
C 64.59375 10.734375 64.90625 9.921875 68.40625 -1 
z
" id="URW_Palladio_L_Roman-87"/>
       <path d="M 61.59375 12.078125 
C 61.59375 4.015625 61.09375 3.203125 56.5 3.203125 
L 51.703125 3.203125 
L 51.703125 0 
C 57.59375 0 61.09375 0 66.296875 0 
C 71.5 0 75.09375 0 81 0 
L 81 3.203125 
L 76.203125 3.203125 
C 71.59375 3.203125 71.09375 4 71.09375 11.96875 
L 71.09375 57.234375 
C 71.09375 65.1875 71.59375 66 76.203125 66 
L 81 66 
L 81 69.109375 
C 73.703125 69.109375 71.5 69.109375 66.296875 69.109375 
C 61.296875 69.109375 58.90625 69.109375 51.703125 69.109375 
L 51.703125 66 
L 56.5 66 
C 61.09375 66 61.59375 65.1875 61.59375 57.3125 
L 61.59375 39.515625 
C 59.5 39.515625 57.40625 39.515625 53.296875 39.515625 
L 29.90625 39.515625 
C 25.796875 39.515625 23.59375 39.515625 21.59375 39.515625 
L 21.59375 57.3125 
C 21.59375 65.1875 22.09375 66 26.703125 66 
L 31.5 66 
L 31.5 69.109375 
C 24.203125 69.109375 22 69.109375 16.796875 69.109375 
C 11.796875 69.109375 9.40625 69.109375 2.203125 69.109375 
L 2.203125 66 
L 7 66 
C 11.59375 66 12.09375 65.1875 12.09375 57.234375 
L 12.09375 11.96875 
C 12.09375 4 11.59375 3.203125 7 3.203125 
L 2.203125 3.203125 
L 2.203125 0 
C 8.09375 0 11.59375 0 16.796875 0 
C 22 0 25.59375 0 31.5 0 
L 31.5 3.203125 
L 26.703125 3.203125 
C 22.09375 3.203125 21.59375 4.015625 21.59375 12.078125 
L 21.59375 34.796875 
C 24.296875 35 25.90625 35 29.90625 35 
L 53.296875 35 
C 57.296875 35 58.90625 35 61.59375 34.796875 
z
" id="URW_Palladio_L_Roman-72"/>
       <path d="M 40.203125 71 
C 17.40625 71 2.203125 56.1875 2.203125 34.15625 
C 2.203125 13.109375 16.796875 -2 37 -2 
C 59.40625 -2 76.40625 14.71875 76.40625 36.734375 
C 76.40625 57.78125 62.40625 71 40.203125 71 
z
M 38.5 66.78125 
C 55.59375 66.78125 65.703125 54.578125 65.703125 33.75 
C 65.703125 13.90625 56.5 2.203125 41 2.203125 
C 24.203125 2.203125 12.90625 16.421875 12.90625 37.84375 
C 12.90625 56.359375 22.09375 66.78125 38.5 66.78125 
z
" id="URW_Palladio_L_Roman-79"/>
       <path d="M 5.09375 -21.546875 
C 12 -15.03125 14.90625 -11.71875 18 -6.8125 
C 24.09375 2.90625 27.296875 14.53125 27.296875 26.546875 
C 27.296875 34.265625 26 41.375 23.40625 48.09375 
C 19.59375 57.8125 15.5 63.328125 5.09375 72.75 
L 3.203125 70.140625 
C 10.5 61.515625 13.203125 56.8125 15.703125 48.59375 
C 17.703125 42.078125 18.703125 34.96875 18.703125 26.65625 
C 18.703125 18.140625 17.703125 10.515625 15.59375 3.3125 
C 13 -5.71875 10.40625 -10.515625 3.203125 -19.4375 
z
" id="URW_Palladio_L_Roman-41"/>
      </defs>
      <use transform="scale(0.996264)" xlink:href="#URW_Palladio_L_Roman-109"/>
      <use transform="translate(87.969674 0)scale(0.996264)" xlink:href="#URW_Palladio_L_Roman-111"/>
      <use transform="translate(142.365254 0)scale(0.996264)" xlink:href="#URW_Palladio_L_Roman-114"/>
      <use transform="translate(181.717151 0)scale(0.996264)" xlink:href="#URW_Palladio_L_Roman-116"/>
      <use transform="translate(214.194239 0)scale(0.996264)" xlink:href="#URW_Palladio_L_Roman-97"/>
      <use transform="translate(264.007439 0)scale(0.996264)" xlink:href="#URW_Palladio_L_Roman-108"/>
      <use transform="translate(292.997801 0)scale(0.996264)" xlink:href="#URW_Palladio_L_Roman-105"/>
      <use transform="translate(321.988162 0)scale(0.996264)" xlink:href="#URW_Palladio_L_Roman-116"/>
      <use transform="translate(354.46525 0)scale(0.996264)" xlink:href="#URW_Palladio_L_Roman-121"/>
      <use transform="translate(434.763527 0)scale(0.996264)" xlink:href="#URW_Palladio_L_Roman-40"/>
      <use transform="translate(467.938757 0)scale(0.996264)" xlink:href="#URW_Palladio_L_Roman-87"/>
      <use transform="translate(567.565158 0)scale(0.996264)" xlink:href="#URW_Palladio_L_Roman-72"/>
      <use transform="translate(650.453819 0)scale(0.996264)" xlink:href="#URW_Palladio_L_Roman-79"/>
      <use transform="translate(728.7601 0)scale(0.996264)" xlink:href="#URW_Palladio_L_Roman-41"/>
     </g>
     <!-- fatalities over 7 days per 100000 -->
     <g transform="translate(25.691533 210.302644)rotate(-90)scale(0.1 -0.1)">
      <defs>
       <path d="M 34.09375 71.890625 
C 32 72.6875 30.796875 73 29.5 73 
C 26.296875 73 22.796875 71.296875 20.59375 68.8125 
L 14.796875 62.265625 
C 11.90625 58.984375 10.59375 54.53125 10.59375 47.96875 
L 10.59375 43.796875 
L 3.703125 40.6875 
L 3.703125 38.6875 
L 10.59375 38.6875 
L 10.59375 10.171875 
C 10.59375 3.8125 10.296875 3.109375 6.90625 3.109375 
L 2.296875 3.109375 
L 2.296875 0 
C 12.296875 0 12.296875 0 14.796875 0 
C 17.296875 0 17.296875 0 27.296875 0 
L 27.296875 3.109375 
L 22.703125 3.109375 
C 19.296875 3.109375 19 3.828125 19 10.203125 
L 19 38.890625 
L 31.40625 38.890625 
L 32.09375 44 
L 19 44 
L 19 52.34375 
C 19 63.640625 20.296875 66.375 26 66.375 
C 28.703125 66.375 30.5 65.6875 32.90625 63.609375 
L 34.09375 64.203125 
z
" id="URW_Palladio_L_Roman-102"/>
       <path d="M 43.703125 6.984375 
L 42.40625 7.984375 
C 36 4.203125 33.703125 3.3125 29.40625 3.3125 
C 22.90625 3.3125 17.5 6.21875 14.703125 11.109375 
C 12.796875 14.390625 12.09375 17.203125 11.90625 23 
L 26.5 23 
C 33.40625 23 37.703125 23 44.59375 24.125 
C 44.703125 25.53125 44.796875 26.453125 44.796875 27.671875 
C 44.796875 39.375 37.40625 47 26.203125 47 
C 22.5 47 18.203125 45.6875 14.09375 43.28125 
C 5.90625 38.578125 2.59375 32.359375 2.59375 21.9375 
C 2.59375 15.625 4.09375 10.21875 6.796875 6.40625 
C 10.796875 1.109375 17.5 -2 25 -2 
C 28.703125 -2 32.40625 -1.203125 36.5 0.578125 
C 39.203125 1.6875 41.296875 2.984375 41.703125 3.59375 
z
M 35.90625 26.40625 
C 30.703125 26.40625 28.296875 26.40625 24.703125 26.40625 
C 20.09375 26.40625 17.5 26.40625 12.09375 26.90625 
C 12.09375 31.671875 12.5 33.890625 13.796875 36.515625 
C 15.90625 40.96875 20.203125 43.6875 25 43.6875 
C 28.296875 43.6875 30.90625 42.359375 32.703125 39.59375 
C 34.90625 36.234375 35.59375 33.265625 35.90625 26.40625 
z
" id="URW_Palladio_L_Roman-101"/>
       <path d="M 4.09375 14.328125 
C 4.09375 7.421875 3.796875 4.40625 3 0.40625 
C 8.203125 -1.296875 12.09375 -2 16.703125 -2 
C 29.796875 -2 39.09375 5.015625 39.09375 14.828125 
C 39.09375 17.9375 38.203125 20.234375 36.296875 22.25 
C 33.703125 24.75 30.40625 25.953125 21.59375 27.65625 
C 13.40625 29.265625 10.703125 31.265625 10.703125 35.875 
C 10.703125 40.875 14.203125 43.6875 20.296875 43.6875 
C 27 43.6875 32.09375 40.1875 32.09375 35.46875 
L 32.09375 33.171875 
L 34.90625 33.171875 
C 35 38.984375 35.09375 41.375 35.40625 44.484375 
C 30.09375 46.296875 26.5 47 22.40625 47 
C 10.796875 47 3.703125 41.484375 3.703125 32.46875 
C 3.703125 27.65625 5.90625 24.25 10.5 22.140625 
C 13.203125 20.9375 18.5 19.34375 25.296875 17.828125 
C 29.796875 16.828125 31.703125 14.734375 31.703125 10.921875 
C 31.703125 5.515625 26.703125 1.703125 19.59375 1.703125 
C 12.296875 1.703125 7.09375 5.203125 7.09375 10.21875 
L 7.09375 14.328125 
z
" id="URW_Palladio_L_Roman-115"/>
       <path d="M 53.90625 43 
L 53.90625 45.8125 
C 47.90625 45.8125 46.09375 45.8125 44.5 45.8125 
C 42.90625 45.8125 41.09375 45.8125 35.09375 45.8125 
L 35.09375 43 
L 39.203125 43 
C 40.796875 43 41.59375 42.09375 41.59375 40.484375 
C 41.59375 38.890625 40.90625 36.203125 39.703125 33.1875 
L 35.5 22.578125 
C 34.296875 19.671875 33.09375 16.875 29.296875 8.578125 
L 17.40625 37.390625 
C 16.796875 38.78125 16.5 40.09375 16.5 41.1875 
C 16.5 42.296875 17.40625 43 19 43 
L 23.90625 43 
L 23.90625 45.8125 
C 14.09375 45.8125 14.09375 45.8125 12.203125 45.8125 
C 10.296875 45.8125 5.5 45.8125 0.59375 45.8125 
L 0.59375 43 
L 4 43 
C 5.5 42.796875 6 42.203125 7.09375 39.703125 
L 24.296875 -0.5 
L 29.296875 -0.5 
C 29.90625 1.203125 30.90625 3.796875 30.90625 4 
C 32 6.984375 33.296875 10.375 33.40625 10.375 
L 45.203125 36.3125 
C 47.40625 41.015625 48.796875 42.796875 50.796875 43 
z
" id="URW_Palladio_L_Roman-118"/>
       <path d="M 41.203125 43.78125 
C 35.59375 46.1875 32.796875 47 29.296875 47 
C 26.59375 47 24.203125 46.390625 21.703125 45.109375 
L 12.90625 40.515625 
C 7.203125 37.515625 3.5 30.234375 3.5 21.75 
C 3.5 13.765625 6.203125 7.1875 11.09375 3.1875 
C 14.5 0.296875 19.203125 -1 25.703125 -1 
C 27.703125 -1 30 -0.59375 30.5 -0.203125 
L 41.59375 9.109375 
L 41.09375 -0.109375 
C 46 -0.109375 47.59375 -0.109375 48.796875 -0.109375 
C 49.59375 -0.109375 51 -0.109375 53.09375 -0.109375 
C 53.796875 -0.109375 55.796875 -0.109375 57.90625 -0.109375 
L 57.90625 3 
L 53.296875 3 
C 49.90625 3 49.59375 3.703125 49.59375 10.046875 
L 49.59375 71.984375 
L 48.703125 72.796875 
C 44.296875 71.09375 41 70.28125 33.09375 69.078125 
L 33.09375 66.28125 
L 38.703125 66.28125 
C 40.5 66.28125 41.203125 65.171875 41.203125 62.15625 
z
M 41.203125 22.25 
C 41.203125 15.765625 41 14.78125 39.703125 12.484375 
C 36.90625 7.796875 32 4.71875 27.296875 4.71875 
C 18.5 4.71875 12.203125 13.1875 12.203125 25.046875 
C 12.203125 35.90625 17.59375 42.28125 26.59375 42.28125 
C 30.40625 42.28125 34.40625 40.984375 37.90625 38.59375 
C 40 37.203125 41.203125 35.90625 41.203125 35.09375 
z
" id="URW_Palladio_L_Roman-100"/>
       <path d="M 1 40.078125 
L 4.703125 40.078125 
C 8.703125 40.078125 9.09375 39.375 9.09375 32.734375 
L 9.09375 -17.84375 
C 9.09375 -24.1875 8.796875 -24.890625 5.40625 -24.890625 
L 0.796875 -24.890625 
L 0.796875 -28 
C 10.796875 -28 10.796875 -28 13.296875 -28 
C 15.796875 -28 15.796875 -28 25.796875 -28 
L 25.796875 -24.890625 
L 21.203125 -24.890625 
C 17.796875 -24.890625 17.5 -24.171875 17.5 -17.78125 
L 17.5 1.390625 
C 20.5 -0.40625 23.703125 -1.109375 28.203125 -1.109375 
C 31.09375 -1.109375 33.703125 -0.5 35.296875 0.5 
L 46.703125 7.890625 
C 50.703125 10.5 55.40625 20.78125 55.40625 27.1875 
C 55.40625 38.296875 46.203125 47 34.59375 47 
C 30.90625 47 27.296875 45.984375 25.703125 44.484375 
L 17.5 36.984375 
L 17.5 46.59375 
L 16.59375 47 
C 11.5 44.890625 6.296875 43.484375 1 42.890625 
z
M 17.5 30.6875 
C 17.5 32.078125 18 33.1875 19.296875 34.890625 
C 22.203125 38.578125 26.296875 40.484375 31.296875 40.484375 
C 40.703125 40.484375 46.703125 33.890625 46.703125 23.5 
C 46.703125 12.296875 40 4 31 4 
C 25.5 4 21.40625 5.8125 17.5 9.890625 
z
" id="URW_Palladio_L_Roman-112"/>
      </defs>
      <use transform="scale(0.996264)" xlink:href="#URW_Palladio_L_Roman-102"/>
      <use transform="translate(33.17523 0)scale(0.996264)" xlink:href="#URW_Palladio_L_Roman-97"/>
      <use transform="translate(82.98843 0)scale(0.996264)" xlink:href="#URW_Palladio_L_Roman-116"/>
      <use transform="translate(115.465518 0)scale(0.996264)" xlink:href="#URW_Palladio_L_Roman-97"/>
      <use transform="translate(165.278719 0)scale(0.996264)" xlink:href="#URW_Palladio_L_Roman-108"/>
      <use transform="translate(194.26908 0)scale(0.996264)" xlink:href="#URW_Palladio_L_Roman-105"/>
      <use transform="translate(223.259442 0)scale(0.996264)" xlink:href="#URW_Palladio_L_Roman-116"/>
      <use transform="translate(255.736529 0)scale(0.996264)" xlink:href="#URW_Palladio_L_Roman-105"/>
      <use transform="translate(284.726891 0)scale(0.996264)" xlink:href="#URW_Palladio_L_Roman-101"/>
      <use transform="translate(332.447186 0)scale(0.996264)" xlink:href="#URW_Palladio_L_Roman-115"/>
      <use transform="translate(399.595253 0)scale(0.996264)" xlink:href="#URW_Palladio_L_Roman-111"/>
      <use transform="translate(453.990833 0)scale(0.996264)" xlink:href="#URW_Palladio_L_Roman-118"/>
      <use transform="translate(510.278746 0)scale(0.996264)" xlink:href="#URW_Palladio_L_Roman-101"/>
      <use transform="translate(557.999041 0)scale(0.996264)" xlink:href="#URW_Palladio_L_Roman-114"/>
      <use transform="translate(622.257538 0)scale(0.996264)" xlink:href="#URW_Palladio_L_Roman-55"/>
      <use transform="translate(696.977338 0)scale(0.996264)" xlink:href="#URW_Palladio_L_Roman-100"/>
      <use transform="translate(757.848969 0)scale(0.996264)" xlink:href="#URW_Palladio_L_Roman-97"/>
      <use transform="translate(807.66217 0)scale(0.996264)" xlink:href="#URW_Palladio_L_Roman-121"/>
      <use transform="translate(863.053847 0)scale(0.996264)" xlink:href="#URW_Palladio_L_Roman-115"/>
      <use transform="translate(930.201913 0)scale(0.996264)" xlink:href="#URW_Palladio_L_Roman-112"/>
      <use transform="translate(990.076307 0)scale(0.996264)" xlink:href="#URW_Palladio_L_Roman-101"/>
      <use transform="translate(1037.796602 0)scale(0.996264)" xlink:href="#URW_Palladio_L_Roman-114"/>
      <use transform="translate(1102.055099 0)scale(0.996264)" xlink:href="#URW_Palladio_L_Roman-49"/>
      <use transform="translate(1151.868299 0)scale(0.996264)" xlink:href="#URW_Palladio_L_Roman-48"/>
      <use transform="translate(1201.6815 0)scale(0.996264)" xlink:href="#URW_Palladio_L_Roman-48"/>
      <use transform="translate(1251.4947 0)scale(0.996264)" xlink:href="#URW_Palladio_L_Roman-48"/>
      <use transform="translate(1301.307901 0)scale(0.996264)" xlink:href="#URW_Palladio_L_Roman-48"/>
      <use transform="translate(1351.121101 0)scale(0.996264)" xlink:href="#URW_Palladio_L_Roman-48"/>
     </g>
    </g>
   </g>
   <g id="line2d_15">
    <path clip-path="url(#p78d716c638)" d="M 50.482264 242.35109 
L 407.602264 242.35109 
" style="fill:none;stroke:#ffff00;stroke-linecap:square;stroke-width:1.5;"/>
   </g>
   <g id="line2d_16">
    <path clip-path="url(#p78d716c638)" d="M 50.482264 211.390179 
L 407.602264 211.390179 
" style="fill:none;stroke:#ffa500;stroke-linecap:square;stroke-width:1.5;"/>
   </g>
   <g id="line2d_17">
    <path clip-path="url(#p78d716c638)" d="M 50.482264 118.507448 
L 407.602264 118.507448 
" style="fill:none;stroke:#ff0000;stroke-linecap:square;stroke-width:1.5;"/>
   </g>
   <g id="patch_167">
    <path d="M 50.482264 273.312 
L 50.482264 7.2 
" style="fill:none;stroke:#000000;stroke-linecap:square;stroke-linejoin:miter;stroke-width:0.8;"/>
   </g>
   <g id="patch_168">
    <path d="M 50.482264 273.312 
L 407.602264 273.312 
" style="fill:none;stroke:#000000;stroke-linecap:square;stroke-linejoin:miter;stroke-width:0.8;"/>
   </g>
   <g id="text_16">
    <!-- low incidence of community transmission -->
    <g style="fill:#ffff00;" transform="translate(411.173464 244.510503)scale(0.1 -0.1)">
     <defs>
      <path d="M 41.296875 47 
C 33.09375 27.9375 31.59375 24.546875 25.40625 10.578125 
L 17 38.1875 
C 16.703125 39.09375 16.59375 39.890625 16.59375 40.6875 
C 16.59375 42.1875 17.90625 43 20.40625 43 
L 24.40625 43 
L 24.40625 45.8125 
C 14.5 45.8125 14.5 45.8125 12.5 45.8125 
C 10.5 45.8125 10.5 45.8125 0.59375 45.8125 
L 0.59375 43.203125 
L 3.40625 43 
C 6.203125 42.796875 7.5 40.8125 10 33.03125 
L 20.203125 -0.5 
L 24.90625 -0.5 
L 34.703125 22.453125 
C 35.203125 23.65625 36.296875 26.046875 37.90625 29.4375 
L 39.90625 33.625 
L 53.5 -0.5 
L 58.09375 -0.5 
C 58.796875 1.59375 59.59375 3.890625 60.40625 6.078125 
C 62.40625 11.984375 64.59375 18.15625 65 18.765625 
L 71.796875 34.3125 
C 74.796875 41.015625 76 42.703125 78.203125 43 
L 80.796875 43.203125 
L 80.796875 45.8125 
C 72.59375 45.8125 72.59375 45.8125 71 45.8125 
C 69.40625 45.8125 69.40625 45.8125 61.203125 45.8125 
L 61.203125 43 
L 64.59375 43 
C 67.09375 43 68.5 41.796875 68.5 39.984375 
C 68.5 38.890625 68.296875 37.6875 67.796875 36.390625 
L 62.796875 22.390625 
C 62 20.1875 61.203125 18.171875 58 9.96875 
L 46.5 38.90625 
C 45.09375 42.296875 44.40625 44.296875 43.59375 47 
z
" id="URW_Palladio_L_Roman-119"/>
      <path d="M 41 -0.109375 
C 47.09375 -0.109375 47.203125 -0.109375 48.90625 -0.109375 
C 50.296875 -0.109375 50.296875 -0.109375 57.203125 -0.109375 
L 57.203125 2.796875 
L 53.09375 3.203125 
C 49.703125 3.203125 49.40625 3.8125 49.40625 10.21875 
L 49.40625 29.5625 
C 49.40625 41.28125 43.90625 47 32.703125 47 
C 29 47 26.90625 46.296875 24.796875 44.484375 
L 17.203125 37.875 
L 17.203125 46.59375 
L 16.296875 47 
C 11.203125 44.890625 6 43.484375 0.703125 42.890625 
L 0.703125 40.078125 
L 4.40625 40.078125 
C 8.40625 40.078125 8.796875 39.375 8.796875 32.71875 
L 8.796875 10.046875 
C 8.796875 3.703125 8.5 3 5.09375 3 
L 0.59375 3 
L 0.59375 -0.109375 
C 7.40625 -0.109375 10.09375 -0.109375 13 -0.109375 
C 15.90625 -0.109375 18.59375 -0.109375 25.40625 -0.109375 
L 25.40625 3 
L 20.90625 3 
C 17.5 3 17.203125 3.703125 17.203125 10.046875 
L 17.203125 31.421875 
C 17.203125 35.9375 23.796875 40.875 29.90625 40.875 
C 36.59375 40.875 41 35.890625 41 28.21875 
z
" id="URW_Palladio_L_Roman-110"/>
      <path d="M 39.90625 31.15625 
C 39.90625 35.765625 40.40625 39.875 41.296875 43.484375 
C 37.296875 45.890625 33.796875 47 29.703125 47 
C 24.90625 47 19.296875 45.09375 13.296875 41.28125 
C 6.296875 36.875 2.59375 29.859375 2.59375 21.046875 
C 2.59375 7.515625 12.09375 -2 25.5 -2 
C 30.703125 -2 38.203125 -0.09375 39.203125 1.40625 
L 41.296875 4.609375 
L 40.296875 6.109375 
C 36.59375 4.109375 33.40625 3.203125 29.796875 3.203125 
C 18.703125 3.203125 11.40625 11.828125 11.40625 25.046875 
C 11.40625 35.765625 16.40625 41.78125 25.40625 41.78125 
C 29.796875 41.78125 34.59375 39.78125 36.40625 37.28125 
L 37.09375 31.15625 
z
" id="URW_Palladio_L_Roman-99"/>
      <path d="M 50.296875 47.015625 
L 49.40625 47.421875 
C 44.296875 45.3125 39.09375 43.90625 33.796875 43.3125 
L 33.796875 40.5 
L 37.5 40.5 
C 41.5 40.5 41.90625 39.796875 41.90625 33.140625 
L 41.90625 16.71875 
C 41.90625 14.5 40.5 11.671875 38.203125 9.359375 
C 35.40625 6.53125 32.203125 5.109375 28.296875 5.109375 
C 24.796875 5.109375 22 6.21875 20.40625 8.140625 
C 19 9.75 18.296875 12.875 18.296875 17.296875 
L 18.296875 47.015625 
L 17.40625 47.421875 
C 12.296875 45.3125 7.09375 43.90625 1.796875 43.3125 
L 1.796875 40.5 
L 5.5 40.5 
C 9.5 40.5 9.90625 39.796875 9.90625 33.15625 
L 9.90625 16.234375 
C 9.90625 9.171875 10.5 6.046875 12.296875 3.546875 
C 14.5 0.515625 18.296875 -1 24 -1 
C 28.5 -1 32.5 0.40625 35.203125 2.90625 
L 41.90625 9.140625 
C 41.90625 6.265625 41.796875 4.65625 41.5 0 
C 48.203125 0 48.296875 0 49.796875 0 
C 51.203125 0 51.203125 0 58.09375 0 
L 58.09375 2.90625 
L 54 3.3125 
C 50.59375 3.3125 50.296875 3.921875 50.296875 10.375 
z
" id="URW_Palladio_L_Roman-117"/>
     </defs>
     <use transform="scale(0.996264)" xlink:href="#URW_Palladio_L_Roman-108"/>
     <use transform="translate(28.990361 0)scale(0.996264)" xlink:href="#URW_Palladio_L_Roman-111"/>
     <use transform="translate(83.385942 0)scale(0.996264)" xlink:href="#URW_Palladio_L_Roman-119"/>
     <use transform="translate(191.380635 0)scale(0.996264)" xlink:href="#URW_Palladio_L_Roman-105"/>
     <use transform="translate(220.370996 0)scale(0.996264)" xlink:href="#URW_Palladio_L_Roman-110"/>
     <use transform="translate(278.353057 0)scale(0.996264)" xlink:href="#URW_Palladio_L_Roman-99"/>
     <use transform="translate(322.586626 0)scale(0.996264)" xlink:href="#URW_Palladio_L_Roman-105"/>
     <use transform="translate(351.576987 0)scale(0.996264)" xlink:href="#URW_Palladio_L_Roman-100"/>
     <use transform="translate(412.448618 0)scale(0.996264)" xlink:href="#URW_Palladio_L_Roman-101"/>
     <use transform="translate(460.168913 0)scale(0.996264)" xlink:href="#URW_Palladio_L_Roman-110"/>
     <use transform="translate(518.150974 0)scale(0.996264)" xlink:href="#URW_Palladio_L_Roman-99"/>
     <use transform="translate(562.384542 0)scale(0.996264)" xlink:href="#URW_Palladio_L_Roman-101"/>
     <use transform="translate(635.011438 0)scale(0.996264)" xlink:href="#URW_Palladio_L_Roman-111"/>
     <use transform="translate(689.407018 0)scale(0.996264)" xlink:href="#URW_Palladio_L_Roman-102"/>
     <use transform="translate(747.488848 0)scale(0.996264)" xlink:href="#URW_Palladio_L_Roman-99"/>
     <use transform="translate(791.722417 0)scale(0.996264)" xlink:href="#URW_Palladio_L_Roman-111"/>
     <use transform="translate(846.117997 0)scale(0.996264)" xlink:href="#URW_Palladio_L_Roman-109"/>
     <use transform="translate(934.087671 0)scale(0.996264)" xlink:href="#URW_Palladio_L_Roman-109"/>
     <use transform="translate(1022.057345 0)scale(0.996264)" xlink:href="#URW_Palladio_L_Roman-117"/>
     <use transform="translate(1082.13108 0)scale(0.996264)" xlink:href="#URW_Palladio_L_Roman-110"/>
     <use transform="translate(1140.113141 0)scale(0.996264)" xlink:href="#URW_Palladio_L_Roman-105"/>
     <use transform="translate(1169.103502 0)scale(0.996264)" xlink:href="#URW_Palladio_L_Roman-116"/>
     <use transform="translate(1201.58059 0)scale(0.996264)" xlink:href="#URW_Palladio_L_Roman-121"/>
     <use transform="translate(1281.878867 0)scale(0.996264)" xlink:href="#URW_Palladio_L_Roman-116"/>
     <use transform="translate(1314.355955 0)scale(0.996264)" xlink:href="#URW_Palladio_L_Roman-114"/>
     <use transform="translate(1353.707852 0)scale(0.996264)" xlink:href="#URW_Palladio_L_Roman-97"/>
     <use transform="translate(1403.521052 0)scale(0.996264)" xlink:href="#URW_Palladio_L_Roman-110"/>
     <use transform="translate(1461.503113 0)scale(0.996264)" xlink:href="#URW_Palladio_L_Roman-115"/>
     <use transform="translate(1503.744579 0)scale(0.996264)" xlink:href="#URW_Palladio_L_Roman-109"/>
     <use transform="translate(1591.714253 0)scale(0.996264)" xlink:href="#URW_Palladio_L_Roman-105"/>
     <use transform="translate(1620.704615 0)scale(0.996264)" xlink:href="#URW_Palladio_L_Roman-115"/>
     <use transform="translate(1662.946081 0)scale(0.996264)" xlink:href="#URW_Palladio_L_Roman-115"/>
     <use transform="translate(1705.187547 0)scale(0.996264)" xlink:href="#URW_Palladio_L_Roman-105"/>
     <use transform="translate(1734.177909 0)scale(0.996264)" xlink:href="#URW_Palladio_L_Roman-111"/>
     <use transform="translate(1788.573489 0)scale(0.996264)" xlink:href="#URW_Palladio_L_Roman-110"/>
    </g>
   </g>
   <g id="text_17">
    <!-- moderate incidence of community transmission -->
    <g style="fill:#ffa500;" transform="translate(411.173464 213.549592)scale(0.1 -0.1)">
     <use transform="scale(0.996264)" xlink:href="#URW_Palladio_L_Roman-109"/>
     <use transform="translate(87.969674 0)scale(0.996264)" xlink:href="#URW_Palladio_L_Roman-111"/>
     <use transform="translate(142.365254 0)scale(0.996264)" xlink:href="#URW_Palladio_L_Roman-100"/>
     <use transform="translate(203.236885 0)scale(0.996264)" xlink:href="#URW_Palladio_L_Roman-101"/>
     <use transform="translate(250.95718 0)scale(0.996264)" xlink:href="#URW_Palladio_L_Roman-114"/>
     <use transform="translate(290.309077 0)scale(0.996264)" xlink:href="#URW_Palladio_L_Roman-97"/>
     <use transform="translate(340.122277 0)scale(0.996264)" xlink:href="#URW_Palladio_L_Roman-116"/>
     <use transform="translate(372.599365 0)scale(0.996264)" xlink:href="#URW_Palladio_L_Roman-101"/>
     <use transform="translate(445.22626 0)scale(0.996264)" xlink:href="#URW_Palladio_L_Roman-105"/>
     <use transform="translate(474.216622 0)scale(0.996264)" xlink:href="#URW_Palladio_L_Roman-110"/>
     <use transform="translate(532.198682 0)scale(0.996264)" xlink:href="#URW_Palladio_L_Roman-99"/>
     <use transform="translate(576.432251 0)scale(0.996264)" xlink:href="#URW_Palladio_L_Roman-105"/>
     <use transform="translate(605.422613 0)scale(0.996264)" xlink:href="#URW_Palladio_L_Roman-100"/>
     <use transform="translate(666.294243 0)scale(0.996264)" xlink:href="#URW_Palladio_L_Roman-101"/>
     <use transform="translate(714.014538 0)scale(0.996264)" xlink:href="#URW_Palladio_L_Roman-110"/>
     <use transform="translate(771.996599 0)scale(0.996264)" xlink:href="#URW_Palladio_L_Roman-99"/>
     <use transform="translate(816.230168 0)scale(0.996264)" xlink:href="#URW_Palladio_L_Roman-101"/>
     <use transform="translate(888.857063 0)scale(0.996264)" xlink:href="#URW_Palladio_L_Roman-111"/>
     <use transform="translate(943.252643 0)scale(0.996264)" xlink:href="#URW_Palladio_L_Roman-102"/>
     <use transform="translate(1001.334473 0)scale(0.996264)" xlink:href="#URW_Palladio_L_Roman-99"/>
     <use transform="translate(1045.568042 0)scale(0.996264)" xlink:href="#URW_Palladio_L_Roman-111"/>
     <use transform="translate(1099.963622 0)scale(0.996264)" xlink:href="#URW_Palladio_L_Roman-109"/>
     <use transform="translate(1187.933296 0)scale(0.996264)" xlink:href="#URW_Palladio_L_Roman-109"/>
     <use transform="translate(1275.902971 0)scale(0.996264)" xlink:href="#URW_Palladio_L_Roman-117"/>
     <use transform="translate(1335.976705 0)scale(0.996264)" xlink:href="#URW_Palladio_L_Roman-110"/>
     <use transform="translate(1393.958766 0)scale(0.996264)" xlink:href="#URW_Palladio_L_Roman-105"/>
     <use transform="translate(1422.949128 0)scale(0.996264)" xlink:href="#URW_Palladio_L_Roman-116"/>
     <use transform="translate(1455.426215 0)scale(0.996264)" xlink:href="#URW_Palladio_L_Roman-121"/>
     <use transform="translate(1535.724493 0)scale(0.996264)" xlink:href="#URW_Palladio_L_Roman-116"/>
     <use transform="translate(1568.20158 0)scale(0.996264)" xlink:href="#URW_Palladio_L_Roman-114"/>
     <use transform="translate(1607.553477 0)scale(0.996264)" xlink:href="#URW_Palladio_L_Roman-97"/>
     <use transform="translate(1657.366677 0)scale(0.996264)" xlink:href="#URW_Palladio_L_Roman-110"/>
     <use transform="translate(1715.348738 0)scale(0.996264)" xlink:href="#URW_Palladio_L_Roman-115"/>
     <use transform="translate(1757.590204 0)scale(0.996264)" xlink:href="#URW_Palladio_L_Roman-109"/>
     <use transform="translate(1845.559879 0)scale(0.996264)" xlink:href="#URW_Palladio_L_Roman-105"/>
     <use transform="translate(1874.55024 0)scale(0.996264)" xlink:href="#URW_Palladio_L_Roman-115"/>
     <use transform="translate(1916.791706 0)scale(0.996264)" xlink:href="#URW_Palladio_L_Roman-115"/>
     <use transform="translate(1959.033173 0)scale(0.996264)" xlink:href="#URW_Palladio_L_Roman-105"/>
     <use transform="translate(1988.023534 0)scale(0.996264)" xlink:href="#URW_Palladio_L_Roman-111"/>
     <use transform="translate(2042.419114 0)scale(0.996264)" xlink:href="#URW_Palladio_L_Roman-110"/>
    </g>
   </g>
   <g id="text_18">
    <!-- high incidence of community transmission -->
    <g style="fill:#ff0000;" transform="translate(411.173464 120.666861)scale(0.1 -0.1)">
     <defs>
      <path d="M 0.703125 66.375 
L 6.296875 66.375 
C 8.09375 66.375 8.796875 65.265625 8.796875 62.25 
L 8.796875 10.046875 
C 8.796875 3.703125 8.5 3 5.09375 3 
L 0.59375 3 
L 0.59375 -0.109375 
C 7.40625 -0.109375 10.09375 -0.109375 13 -0.109375 
C 15.90625 -0.109375 18.59375 -0.109375 25.40625 -0.109375 
L 25.40625 3 
L 20.90625 3 
C 17.5 3 17.203125 3.703125 17.203125 10.046875 
L 17.203125 31.421875 
C 17.203125 35.9375 23.796875 40.875 29.90625 40.875 
C 36.59375 40.875 41 35.890625 41 28.21875 
L 41 -0.109375 
C 47.09375 -0.109375 47.203125 -0.109375 48.90625 -0.109375 
C 50.296875 -0.109375 50.296875 -0.109375 57.203125 -0.109375 
L 57.203125 2.796875 
L 53.09375 3.203125 
C 49.703125 3.203125 49.40625 3.8125 49.40625 10.21875 
L 49.40625 29.5625 
C 49.40625 41.28125 43.90625 47 32.703125 47 
C 29 47 26.90625 46.296875 24.796875 44.484375 
L 17.203125 37.875 
L 17.203125 72.078125 
L 16.296875 72.890625 
C 11.90625 71.1875 8.59375 70.375 0.703125 69.171875 
z
" id="URW_Palladio_L_Roman-104"/>
      <path d="M 51.90625 38 
L 54.40625 42.109375 
L 54 43.109375 
L 39.796875 43.109375 
C 36.09375 45.890625 32.5 47 27.59375 47 
C 23.203125 47 18.09375 45.625 14 43.25 
C 8.40625 40.109375 5.5 35.28125 5.5 29.28125 
C 5.5 22 10.09375 16.984375 17.5 16.1875 
L 9.59375 10 
C 8.59375 8.484375 8.09375 7.171875 8.09375 5.640625 
C 8.09375 2.8125 9.90625 1.1875 14.703125 -0.21875 
L 6 -4.9375 
C 4.59375 -5.734375 3.203125 -9.4375 3.203125 -12.546875 
C 3.203125 -21.6875 12.09375 -28 24.796875 -28 
C 39.90625 -28 51.796875 -18.46875 51.796875 -6.234375 
C 51.796875 0.984375 47 6 40 6 
L 24 6 
C 18.796875 6 16.40625 7.21875 16.40625 9.984375 
C 16.40625 11.3125 17.203125 12.421875 19.796875 14.671875 
C 20.40625 15.1875 20.59375 15.390625 21 15.796875 
C 22 15.6875 22.59375 15.59375 23.40625 15.59375 
C 27.703125 15.59375 33 17.46875 37.09375 20.3125 
C 41.59375 23.546875 43.796875 27.484375 43.796875 32.703125 
C 43.796875 34.65625 43.5 35.9375 42.703125 38 
z
M 24 43.59375 
C 30.796875 43.59375 35.40625 38.09375 35.40625 29.765625 
C 35.40625 23.421875 31.203125 19 25.09375 19 
C 18.40625 19 13.90625 24.09375 13.90625 31.640625 
C 13.90625 39.171875 17.59375 43.59375 24 43.59375 
z
M 28.703125 -1.015625 
C 40 -1.015625 43.90625 -3.3125 43.90625 -9.84375 
C 43.90625 -18.46875 36 -24.890625 25.5 -24.890625 
C 16.796875 -24.890625 10.796875 -19.78125 10.796875 -12.34375 
C 10.796875 -7.84375 13.40625 -3.71875 17.40625 -2.015625 
C 19 -1.21875 21.796875 -1.015625 28.703125 -1.015625 
z
" id="URW_Palladio_L_Roman-103"/>
     </defs>
     <use transform="scale(0.996264)" xlink:href="#URW_Palladio_L_Roman-104"/>
     <use transform="translate(57.982061 0)scale(0.996264)" xlink:href="#URW_Palladio_L_Roman-105"/>
     <use transform="translate(86.972422 0)scale(0.996264)" xlink:href="#URW_Palladio_L_Roman-103"/>
     <use transform="translate(142.364099 0)scale(0.996264)" xlink:href="#URW_Palladio_L_Roman-104"/>
     <use transform="translate(225.25276 0)scale(0.996264)" xlink:href="#URW_Palladio_L_Roman-105"/>
     <use transform="translate(254.243121 0)scale(0.996264)" xlink:href="#URW_Palladio_L_Roman-110"/>
     <use transform="translate(312.225182 0)scale(0.996264)" xlink:href="#URW_Palladio_L_Roman-99"/>
     <use transform="translate(356.458751 0)scale(0.996264)" xlink:href="#URW_Palladio_L_Roman-105"/>
     <use transform="translate(385.449112 0)scale(0.996264)" xlink:href="#URW_Palladio_L_Roman-100"/>
     <use transform="translate(446.320743 0)scale(0.996264)" xlink:href="#URW_Palladio_L_Roman-101"/>
     <use transform="translate(494.041038 0)scale(0.996264)" xlink:href="#URW_Palladio_L_Roman-110"/>
     <use transform="translate(552.023099 0)scale(0.996264)" xlink:href="#URW_Palladio_L_Roman-99"/>
     <use transform="translate(596.256668 0)scale(0.996264)" xlink:href="#URW_Palladio_L_Roman-101"/>
     <use transform="translate(668.883563 0)scale(0.996264)" xlink:href="#URW_Palladio_L_Roman-111"/>
     <use transform="translate(723.279143 0)scale(0.996264)" xlink:href="#URW_Palladio_L_Roman-102"/>
     <use transform="translate(781.360973 0)scale(0.996264)" xlink:href="#URW_Palladio_L_Roman-99"/>
     <use transform="translate(825.594542 0)scale(0.996264)" xlink:href="#URW_Palladio_L_Roman-111"/>
     <use transform="translate(879.990122 0)scale(0.996264)" xlink:href="#URW_Palladio_L_Roman-109"/>
     <use transform="translate(967.959796 0)scale(0.996264)" xlink:href="#URW_Palladio_L_Roman-109"/>
     <use transform="translate(1055.92947 0)scale(0.996264)" xlink:href="#URW_Palladio_L_Roman-117"/>
     <use transform="translate(1116.003205 0)scale(0.996264)" xlink:href="#URW_Palladio_L_Roman-110"/>
     <use transform="translate(1173.985266 0)scale(0.996264)" xlink:href="#URW_Palladio_L_Roman-105"/>
     <use transform="translate(1202.975627 0)scale(0.996264)" xlink:href="#URW_Palladio_L_Roman-116"/>
     <use transform="translate(1235.452715 0)scale(0.996264)" xlink:href="#URW_Palladio_L_Roman-121"/>
     <use transform="translate(1315.750992 0)scale(0.996264)" xlink:href="#URW_Palladio_L_Roman-116"/>
     <use transform="translate(1348.22808 0)scale(0.996264)" xlink:href="#URW_Palladio_L_Roman-114"/>
     <use transform="translate(1387.579977 0)scale(0.996264)" xlink:href="#URW_Palladio_L_Roman-97"/>
     <use transform="translate(1437.393177 0)scale(0.996264)" xlink:href="#URW_Palladio_L_Roman-110"/>
     <use transform="translate(1495.375238 0)scale(0.996264)" xlink:href="#URW_Palladio_L_Roman-115"/>
     <use transform="translate(1537.616704 0)scale(0.996264)" xlink:href="#URW_Palladio_L_Roman-109"/>
     <use transform="translate(1625.586378 0)scale(0.996264)" xlink:href="#URW_Palladio_L_Roman-105"/>
     <use transform="translate(1654.57674 0)scale(0.996264)" xlink:href="#URW_Palladio_L_Roman-115"/>
     <use transform="translate(1696.818206 0)scale(0.996264)" xlink:href="#URW_Palladio_L_Roman-115"/>
     <use transform="translate(1739.059672 0)scale(0.996264)" xlink:href="#URW_Palladio_L_Roman-105"/>
     <use transform="translate(1768.050034 0)scale(0.996264)" xlink:href="#URW_Palladio_L_Roman-111"/>
     <use transform="translate(1822.445614 0)scale(0.996264)" xlink:href="#URW_Palladio_L_Roman-110"/>
    </g>
   </g>
  </g>
 </g>
 <defs>
  <clipPath id="p78d716c638">
   <rect height="266.112" width="357.12" x="50.482264" y="7.2"/>
  </clipPath>
 </defs>
</svg>
