<?xml version="1.0" encoding="utf-8" standalone="no"?>
<!DOCTYPE svg PUBLIC "-//W3C//DTD SVG 1.1//EN"
  "http://www.w3.org/Graphics/SVG/1.1/DTD/svg11.dtd">
<svg xmlns:xlink="http://www.w3.org/1999/xlink" width="555.092145pt" height="286.335433pt" viewBox="0 0 555.092145 286.335433" xmlns="http://www.w3.org/2000/svg" version="1.1">
 <metadata>
  <rdf:RDF xmlns:dc="http://purl.org/dc/elements/1.1/" xmlns:cc="http://creativecommons.org/ns#" xmlns:rdf="http://www.w3.org/1999/02/22-rdf-syntax-ns#">
   <cc:Work>
    <dc:type rdf:resource="http://purl.org/dc/dcmitype/StillImage"/>
    <dc:format>image/svg+xml</dc:format>
    <dc:creator>
     <cc:Agent>
      <dc:title>Matplotlib v3.5.1, https://matplotlib.org/</dc:title>
     </cc:Agent>
    </dc:creator>
   </cc:Work>
  </rdf:RDF>
 </metadata>
 <defs>
  <style type="text/css">*{stroke-linejoin: round; stroke-linecap: butt}</style>
 </defs>
 <g id="figure_1">
  <g id="patch_1">
   <path d="M 0 286.335433 
L 555.092145 286.335433 
L 555.092145 0 
L 0 0 
z
" style="fill: #ffffff"/>
  </g>
  <g id="axes_1">
   <g id="patch_2">
    <path d="M 50.482264 233.928824 
L 329.482264 233.928824 
L 329.482264 12.168824 
L 50.482264 12.168824 
z
" style="fill: #ffffff"/>
   </g>
   <g id="patch_3">
    <path d="M 50.599986 233.928824 
L 51.541758 233.928824 
L 51.541758 218.667014 
L 50.599986 218.667014 
z
" clip-path="url(#p1c53eaf87e)" style="fill: #1f77b4"/>
   </g>
   <g id="patch_4">
    <path d="M 51.777201 233.928824 
L 52.718973 233.928824 
L 52.718973 216.306071 
L 51.777201 216.306071 
z
" clip-path="url(#p1c53eaf87e)" style="fill: #1f77b4"/>
   </g>
   <g id="patch_5">
    <path d="M 52.954416 233.928824 
L 53.896188 233.928824 
L 53.896188 215.378558 
L 52.954416 215.378558 
z
" clip-path="url(#p1c53eaf87e)" style="fill: #1f77b4"/>
   </g>
   <g id="patch_6">
    <path d="M 54.131631 233.928824 
L 55.073404 233.928824 
L 55.073404 214.366725 
L 54.131631 214.366725 
z
" clip-path="url(#p1c53eaf87e)" style="fill: #1f77b4"/>
   </g>
   <g id="patch_7">
    <path d="M 55.308847 233.928824 
L 56.250619 233.928824 
L 56.250619 214.956961 
L 55.308847 214.956961 
z
" clip-path="url(#p1c53eaf87e)" style="fill: #1f77b4"/>
   </g>
   <g id="patch_8">
    <path d="M 56.486062 233.928824 
L 57.427834 233.928824 
L 57.427834 217.317904 
L 56.486062 217.317904 
z
" clip-path="url(#p1c53eaf87e)" style="fill: #1f77b4"/>
   </g>
   <g id="patch_9">
    <path d="M 57.663277 233.928824 
L 58.605049 233.928824 
L 58.605049 218.835653 
L 57.663277 218.835653 
z
" clip-path="url(#p1c53eaf87e)" style="fill: #1f77b4"/>
   </g>
   <g id="patch_10">
    <path d="M 58.840492 233.928824 
L 59.782264 233.928824 
L 59.782264 219.004292 
L 58.840492 219.004292 
z
" clip-path="url(#p1c53eaf87e)" style="fill: #1f77b4"/>
   </g>
   <g id="patch_11">
    <path d="M 60.017707 233.928824 
L 60.959479 233.928824 
L 60.959479 218.751334 
L 60.017707 218.751334 
z
" clip-path="url(#p1c53eaf87e)" style="fill: #1f77b4"/>
   </g>
   <g id="patch_12">
    <path d="M 61.194922 233.928824 
L 62.136695 233.928824 
L 62.136695 220.269083 
L 61.194922 220.269083 
z
" clip-path="url(#p1c53eaf87e)" style="fill: #1f77b4"/>
   </g>
   <g id="patch_13">
    <path d="M 62.372138 233.928824 
L 63.31391 233.928824 
L 63.31391 221.112277 
L 62.372138 221.112277 
z
" clip-path="url(#p1c53eaf87e)" style="fill: #1f77b4"/>
   </g>
   <g id="patch_14">
    <path d="M 63.549353 233.928824 
L 64.491125 233.928824 
L 64.491125 221.786832 
L 63.549353 221.786832 
z
" clip-path="url(#p1c53eaf87e)" style="fill: #1f77b4"/>
   </g>
   <g id="patch_15">
    <path d="M 64.726568 233.928824 
L 65.66834 233.928824 
L 65.66834 222.03979 
L 64.726568 222.03979 
z
" clip-path="url(#p1c53eaf87e)" style="fill: #1f77b4"/>
   </g>
   <g id="patch_16">
    <path d="M 65.903783 233.928824 
L 66.845555 233.928824 
L 66.845555 222.882984 
L 65.903783 222.882984 
z
" clip-path="url(#p1c53eaf87e)" style="fill: #1f77b4"/>
   </g>
   <g id="patch_17">
    <path d="M 67.080998 233.928824 
L 68.022771 233.928824 
L 68.022771 223.304581 
L 67.080998 223.304581 
z
" clip-path="url(#p1c53eaf87e)" style="fill: #1f77b4"/>
   </g>
   <g id="patch_18">
    <path d="M 68.258214 233.928824 
L 69.199986 233.928824 
L 69.199986 224.82233 
L 68.258214 224.82233 
z
" clip-path="url(#p1c53eaf87e)" style="fill: #1f77b4"/>
   </g>
   <g id="patch_19">
    <path d="M 69.435429 233.928824 
L 70.377201 233.928824 
L 70.377201 225.159607 
L 69.435429 225.159607 
z
" clip-path="url(#p1c53eaf87e)" style="fill: #1f77b4"/>
   </g>
   <g id="patch_20">
    <path d="M 70.612644 233.928824 
L 71.554416 233.928824 
L 71.554416 224.400733 
L 70.612644 224.400733 
z
" clip-path="url(#p1c53eaf87e)" style="fill: #1f77b4"/>
   </g>
   <g id="patch_21">
    <path d="M 71.789859 233.928824 
L 72.731631 233.928824 
L 72.731631 224.73801 
L 71.789859 224.73801 
z
" clip-path="url(#p1c53eaf87e)" style="fill: #1f77b4"/>
   </g>
   <g id="patch_22">
    <path d="M 72.967074 233.928824 
L 73.908847 233.928824 
L 73.908847 225.918482 
L 72.967074 225.918482 
z
" clip-path="url(#p1c53eaf87e)" style="fill: #1f77b4"/>
   </g>
   <g id="patch_23">
    <path d="M 74.14429 233.928824 
L 75.086062 233.928824 
L 75.086062 225.834163 
L 74.14429 225.834163 
z
" clip-path="url(#p1c53eaf87e)" style="fill: #1f77b4"/>
   </g>
   <g id="patch_24">
    <path d="M 75.321505 233.928824 
L 76.263277 233.928824 
L 76.263277 226.17144 
L 75.321505 226.17144 
z
" clip-path="url(#p1c53eaf87e)" style="fill: #1f77b4"/>
   </g>
   <g id="patch_25">
    <path d="M 76.49872 233.928824 
L 77.440492 233.928824 
L 77.440492 226.677357 
L 76.49872 226.677357 
z
" clip-path="url(#p1c53eaf87e)" style="fill: #1f77b4"/>
   </g>
   <g id="patch_26">
    <path d="M 77.675935 233.928824 
L 78.617707 233.928824 
L 78.617707 227.52055 
L 77.675935 227.52055 
z
" clip-path="url(#p1c53eaf87e)" style="fill: #1f77b4"/>
   </g>
   <g id="patch_27">
    <path d="M 78.85315 233.928824 
L 79.794922 233.928824 
L 79.794922 227.689189 
L 78.85315 227.689189 
z
" clip-path="url(#p1c53eaf87e)" style="fill: #1f77b4"/>
   </g>
   <g id="patch_28">
    <path d="M 80.030366 233.928824 
L 80.972138 233.928824 
L 80.972138 227.183273 
L 80.030366 227.183273 
z
" clip-path="url(#p1c53eaf87e)" style="fill: #1f77b4"/>
   </g>
   <g id="patch_29">
    <path d="M 81.207581 233.928824 
L 82.149353 233.928824 
L 82.149353 226.677357 
L 81.207581 226.677357 
z
" clip-path="url(#p1c53eaf87e)" style="fill: #1f77b4"/>
   </g>
   <g id="patch_30">
    <path d="M 82.384796 233.928824 
L 83.326568 233.928824 
L 83.326568 227.351912 
L 82.384796 227.351912 
z
" clip-path="url(#p1c53eaf87e)" style="fill: #1f77b4"/>
   </g>
   <g id="patch_31">
    <path d="M 83.562011 233.928824 
L 84.503783 233.928824 
L 84.503783 227.014634 
L 83.562011 227.014634 
z
" clip-path="url(#p1c53eaf87e)" style="fill: #1f77b4"/>
   </g>
   <g id="patch_32">
    <path d="M 84.739226 233.928824 
L 85.680998 233.928824 
L 85.680998 225.749843 
L 84.739226 225.749843 
z
" clip-path="url(#p1c53eaf87e)" style="fill: #1f77b4"/>
   </g>
   <g id="patch_33">
    <path d="M 85.916441 233.928824 
L 86.858214 233.928824 
L 86.858214 224.569372 
L 85.916441 224.569372 
z
" clip-path="url(#p1c53eaf87e)" style="fill: #1f77b4"/>
   </g>
   <g id="patch_34">
    <path d="M 87.093657 233.928824 
L 88.035429 233.928824 
L 88.035429 225.075288 
L 87.093657 225.075288 
z
" clip-path="url(#p1c53eaf87e)" style="fill: #1f77b4"/>
   </g>
   <g id="patch_35">
    <path d="M 88.270872 233.928824 
L 89.212644 233.928824 
L 89.212644 224.73801 
L 88.270872 224.73801 
z
" clip-path="url(#p1c53eaf87e)" style="fill: #1f77b4"/>
   </g>
   <g id="patch_36">
    <path d="M 89.448087 233.928824 
L 90.389859 233.928824 
L 90.389859 224.653691 
L 89.448087 224.653691 
z
" clip-path="url(#p1c53eaf87e)" style="fill: #1f77b4"/>
   </g>
   <g id="patch_37">
    <path d="M 90.625302 233.928824 
L 91.567074 233.928824 
L 91.567074 223.726178 
L 90.625302 223.726178 
z
" clip-path="url(#p1c53eaf87e)" style="fill: #1f77b4"/>
   </g>
   <g id="patch_38">
    <path d="M 91.802517 233.928824 
L 92.74429 233.928824 
L 92.74429 224.147775 
L 91.802517 224.147775 
z
" clip-path="url(#p1c53eaf87e)" style="fill: #1f77b4"/>
   </g>
   <g id="patch_39">
    <path d="M 92.979733 233.928824 
L 93.921505 233.928824 
L 93.921505 224.063455 
L 92.979733 224.063455 
z
" clip-path="url(#p1c53eaf87e)" style="fill: #1f77b4"/>
   </g>
   <g id="patch_40">
    <path d="M 94.156948 233.928824 
L 95.09872 233.928824 
L 95.09872 223.810497 
L 94.156948 223.810497 
z
" clip-path="url(#p1c53eaf87e)" style="fill: #1f77b4"/>
   </g>
   <g id="patch_41">
    <path d="M 95.334163 233.928824 
L 96.275935 233.928824 
L 96.275935 223.304581 
L 95.334163 223.304581 
z
" clip-path="url(#p1c53eaf87e)" style="fill: #1f77b4"/>
   </g>
   <g id="patch_42">
    <path d="M 96.511378 233.928824 
L 97.45315 233.928824 
L 97.45315 222.630026 
L 96.511378 222.630026 
z
" clip-path="url(#p1c53eaf87e)" style="fill: #1f77b4"/>
   </g>
   <g id="patch_43">
    <path d="M 97.688593 233.928824 
L 98.630366 233.928824 
L 98.630366 222.124109 
L 97.688593 222.124109 
z
" clip-path="url(#p1c53eaf87e)" style="fill: #1f77b4"/>
   </g>
   <g id="patch_44">
    <path d="M 98.865809 233.928824 
L 99.807581 233.928824 
L 99.807581 221.618193 
L 98.865809 221.618193 
z
" clip-path="url(#p1c53eaf87e)" style="fill: #1f77b4"/>
   </g>
   <g id="patch_45">
    <path d="M 100.043024 233.928824 
L 100.984796 233.928824 
L 100.984796 220.859318 
L 100.043024 220.859318 
z
" clip-path="url(#p1c53eaf87e)" style="fill: #1f77b4"/>
   </g>
   <g id="patch_46">
    <path d="M 101.220239 233.928824 
L 102.162011 233.928824 
L 102.162011 220.943638 
L 101.220239 220.943638 
z
" clip-path="url(#p1c53eaf87e)" style="fill: #1f77b4"/>
   </g>
   <g id="patch_47">
    <path d="M 102.397454 233.928824 
L 103.339226 233.928824 
L 103.339226 220.60636 
L 102.397454 220.60636 
z
" clip-path="url(#p1c53eaf87e)" style="fill: #1f77b4"/>
   </g>
   <g id="patch_48">
    <path d="M 103.574669 233.928824 
L 104.516441 233.928824 
L 104.516441 219.763166 
L 103.574669 219.763166 
z
" clip-path="url(#p1c53eaf87e)" style="fill: #1f77b4"/>
   </g>
   <g id="patch_49">
    <path d="M 104.751885 233.928824 
L 105.693657 233.928824 
L 105.693657 219.510208 
L 104.751885 219.510208 
z
" clip-path="url(#p1c53eaf87e)" style="fill: #1f77b4"/>
   </g>
   <g id="patch_50">
    <path d="M 105.9291 233.928824 
L 106.870872 233.928824 
L 106.870872 217.739501 
L 105.9291 217.739501 
z
" clip-path="url(#p1c53eaf87e)" style="fill: #1f77b4"/>
   </g>
   <g id="patch_51">
    <path d="M 107.106315 233.928824 
L 108.048087 233.928824 
L 108.048087 216.727668 
L 107.106315 216.727668 
z
" clip-path="url(#p1c53eaf87e)" style="fill: #1f77b4"/>
   </g>
   <g id="patch_52">
    <path d="M 108.28353 233.928824 
L 109.225302 233.928824 
L 109.225302 216.053113 
L 108.28353 216.053113 
z
" clip-path="url(#p1c53eaf87e)" style="fill: #1f77b4"/>
   </g>
   <g id="patch_53">
    <path d="M 109.460745 233.928824 
L 110.402517 233.928824 
L 110.402517 215.884474 
L 109.460745 215.884474 
z
" clip-path="url(#p1c53eaf87e)" style="fill: #1f77b4"/>
   </g>
   <g id="patch_54">
    <path d="M 110.63796 233.928824 
L 111.579733 233.928824 
L 111.579733 213.945128 
L 110.63796 213.945128 
z
" clip-path="url(#p1c53eaf87e)" style="fill: #1f77b4"/>
   </g>
   <g id="patch_55">
    <path d="M 111.815176 233.928824 
L 112.756948 233.928824 
L 112.756948 210.740991 
L 111.815176 210.740991 
z
" clip-path="url(#p1c53eaf87e)" style="fill: #1f77b4"/>
   </g>
   <g id="patch_56">
    <path d="M 112.992391 233.928824 
L 113.934163 233.928824 
L 113.934163 208.633007 
L 112.992391 208.633007 
z
" clip-path="url(#p1c53eaf87e)" style="fill: #1f77b4"/>
   </g>
   <g id="patch_57">
    <path d="M 114.169606 233.928824 
L 115.111378 233.928824 
L 115.111378 208.295729 
L 114.169606 208.295729 
z
" clip-path="url(#p1c53eaf87e)" style="fill: #1f77b4"/>
   </g>
   <g id="patch_58">
    <path d="M 115.346821 233.928824 
L 116.288593 233.928824 
L 116.288593 207.368216 
L 115.346821 207.368216 
z
" clip-path="url(#p1c53eaf87e)" style="fill: #1f77b4"/>
   </g>
   <g id="patch_59">
    <path d="M 116.524036 233.928824 
L 117.465809 233.928824 
L 117.465809 207.030938 
L 116.524036 207.030938 
z
" clip-path="url(#p1c53eaf87e)" style="fill: #1f77b4"/>
   </g>
   <g id="patch_60">
    <path d="M 117.701252 233.928824 
L 118.643024 233.928824 
L 118.643024 205.34455 
L 117.701252 205.34455 
z
" clip-path="url(#p1c53eaf87e)" style="fill: #1f77b4"/>
   </g>
   <g id="patch_61">
    <path d="M 118.878467 233.928824 
L 119.820239 233.928824 
L 119.820239 204.838634 
L 118.878467 204.838634 
z
" clip-path="url(#p1c53eaf87e)" style="fill: #1f77b4"/>
   </g>
   <g id="patch_62">
    <path d="M 120.055682 233.928824 
L 120.997454 233.928824 
L 120.997454 205.681828 
L 120.055682 205.681828 
z
" clip-path="url(#p1c53eaf87e)" style="fill: #1f77b4"/>
   </g>
   <g id="patch_63">
    <path d="M 121.232897 233.928824 
L 122.174669 233.928824 
L 122.174669 206.693661 
L 121.232897 206.693661 
z
" clip-path="url(#p1c53eaf87e)" style="fill: #1f77b4"/>
   </g>
   <g id="patch_64">
    <path d="M 122.410112 233.928824 
L 123.351885 233.928824 
L 123.351885 207.030938 
L 122.410112 207.030938 
z
" clip-path="url(#p1c53eaf87e)" style="fill: #1f77b4"/>
   </g>
   <g id="patch_65">
    <path d="M 123.587328 233.928824 
L 124.5291 233.928824 
L 124.5291 206.272064 
L 123.587328 206.272064 
z
" clip-path="url(#p1c53eaf87e)" style="fill: #1f77b4"/>
   </g>
   <g id="patch_66">
    <path d="M 124.764543 233.928824 
L 125.706315 233.928824 
L 125.706315 205.091592 
L 124.764543 205.091592 
z
" clip-path="url(#p1c53eaf87e)" style="fill: #1f77b4"/>
   </g>
   <g id="patch_67">
    <path d="M 125.941758 233.928824 
L 126.88353 233.928824 
L 126.88353 204.332718 
L 125.941758 204.332718 
z
" clip-path="url(#p1c53eaf87e)" style="fill: #1f77b4"/>
   </g>
   <g id="patch_68">
    <path d="M 127.118973 233.928824 
L 128.060745 233.928824 
L 128.060745 203.067927 
L 127.118973 203.067927 
z
" clip-path="url(#p1c53eaf87e)" style="fill: #1f77b4"/>
   </g>
   <g id="patch_69">
    <path d="M 128.296188 233.928824 
L 129.23796 233.928824 
L 129.23796 202.224733 
L 128.296188 202.224733 
z
" clip-path="url(#p1c53eaf87e)" style="fill: #1f77b4"/>
   </g>
   <g id="patch_70">
    <path d="M 129.473404 233.928824 
L 130.415176 233.928824 
L 130.415176 200.622664 
L 129.473404 200.622664 
z
" clip-path="url(#p1c53eaf87e)" style="fill: #1f77b4"/>
   </g>
   <g id="patch_71">
    <path d="M 130.650619 233.928824 
L 131.592391 233.928824 
L 131.592391 199.526512 
L 130.650619 199.526512 
z
" clip-path="url(#p1c53eaf87e)" style="fill: #1f77b4"/>
   </g>
   <g id="patch_72">
    <path d="M 131.827834 233.928824 
L 132.769606 233.928824 
L 132.769606 199.357874 
L 131.827834 199.357874 
z
" clip-path="url(#p1c53eaf87e)" style="fill: #1f77b4"/>
   </g>
   <g id="patch_73">
    <path d="M 133.005049 233.928824 
L 133.946821 233.928824 
L 133.946821 198.346041 
L 133.005049 198.346041 
z
" clip-path="url(#p1c53eaf87e)" style="fill: #1f77b4"/>
   </g>
   <g id="patch_74">
    <path d="M 134.182264 233.928824 
L 135.124036 233.928824 
L 135.124036 198.43036 
L 134.182264 198.43036 
z
" clip-path="url(#p1c53eaf87e)" style="fill: #1f77b4"/>
   </g>
   <g id="patch_75">
    <path d="M 135.359479 233.928824 
L 136.301252 233.928824 
L 136.301252 198.767638 
L 135.359479 198.767638 
z
" clip-path="url(#p1c53eaf87e)" style="fill: #1f77b4"/>
   </g>
   <g id="patch_76">
    <path d="M 136.536695 233.928824 
L 137.478467 233.928824 
L 137.478467 198.767638 
L 136.536695 198.767638 
z
" clip-path="url(#p1c53eaf87e)" style="fill: #1f77b4"/>
   </g>
   <g id="patch_77">
    <path d="M 137.71391 233.928824 
L 138.655682 233.928824 
L 138.655682 199.020596 
L 137.71391 199.020596 
z
" clip-path="url(#p1c53eaf87e)" style="fill: #1f77b4"/>
   </g>
   <g id="patch_78">
    <path d="M 138.891125 233.928824 
L 139.832897 233.928824 
L 139.832897 198.683318 
L 138.891125 198.683318 
z
" clip-path="url(#p1c53eaf87e)" style="fill: #1f77b4"/>
   </g>
   <g id="patch_79">
    <path d="M 140.06834 233.928824 
L 141.010112 233.928824 
L 141.010112 198.598999 
L 140.06834 198.598999 
z
" clip-path="url(#p1c53eaf87e)" style="fill: #1f77b4"/>
   </g>
   <g id="patch_80">
    <path d="M 141.245555 233.928824 
L 142.187328 233.928824 
L 142.187328 199.86379 
L 141.245555 199.86379 
z
" clip-path="url(#p1c53eaf87e)" style="fill: #1f77b4"/>
   </g>
   <g id="patch_81">
    <path d="M 142.422771 233.928824 
L 143.364543 233.928824 
L 143.364543 201.2129 
L 142.422771 201.2129 
z
" clip-path="url(#p1c53eaf87e)" style="fill: #1f77b4"/>
   </g>
   <g id="patch_82">
    <path d="M 143.599986 233.928824 
L 144.541758 233.928824 
L 144.541758 201.128581 
L 143.599986 201.128581 
z
" clip-path="url(#p1c53eaf87e)" style="fill: #1f77b4"/>
   </g>
   <g id="patch_83">
    <path d="M 144.777201 233.928824 
L 145.718973 233.928824 
L 145.718973 200.791303 
L 144.777201 200.791303 
z
" clip-path="url(#p1c53eaf87e)" style="fill: #1f77b4"/>
   </g>
   <g id="patch_84">
    <path d="M 145.954416 233.928824 
L 146.896188 233.928824 
L 146.896188 200.116748 
L 145.954416 200.116748 
z
" clip-path="url(#p1c53eaf87e)" style="fill: #1f77b4"/>
   </g>
   <g id="patch_85">
    <path d="M 147.131631 233.928824 
L 148.073404 233.928824 
L 148.073404 199.779471 
L 147.131631 199.779471 
z
" clip-path="url(#p1c53eaf87e)" style="fill: #1f77b4"/>
   </g>
   <g id="patch_86">
    <path d="M 148.308847 233.928824 
L 149.250619 233.928824 
L 149.250619 200.285387 
L 148.308847 200.285387 
z
" clip-path="url(#p1c53eaf87e)" style="fill: #1f77b4"/>
   </g>
   <g id="patch_87">
    <path d="M 149.486062 233.928824 
L 150.427834 233.928824 
L 150.427834 200.959942 
L 149.486062 200.959942 
z
" clip-path="url(#p1c53eaf87e)" style="fill: #1f77b4"/>
   </g>
   <g id="patch_88">
    <path d="M 150.663277 233.928824 
L 151.605049 233.928824 
L 151.605049 200.285387 
L 150.663277 200.285387 
z
" clip-path="url(#p1c53eaf87e)" style="fill: #1f77b4"/>
   </g>
   <g id="patch_89">
    <path d="M 151.840492 233.928824 
L 152.782264 233.928824 
L 152.782264 200.706984 
L 151.840492 200.706984 
z
" clip-path="url(#p1c53eaf87e)" style="fill: #1f77b4"/>
   </g>
   <g id="patch_90">
    <path d="M 153.017707 233.928824 
L 153.959479 233.928824 
L 153.959479 201.2129 
L 153.017707 201.2129 
z
" clip-path="url(#p1c53eaf87e)" style="fill: #1f77b4"/>
   </g>
   <g id="patch_91">
    <path d="M 154.194922 233.928824 
L 155.136695 233.928824 
L 155.136695 201.550178 
L 154.194922 201.550178 
z
" clip-path="url(#p1c53eaf87e)" style="fill: #1f77b4"/>
   </g>
   <g id="patch_92">
    <path d="M 155.372138 233.928824 
L 156.31391 233.928824 
L 156.31391 202.730649 
L 155.372138 202.730649 
z
" clip-path="url(#p1c53eaf87e)" style="fill: #1f77b4"/>
   </g>
   <g id="patch_93">
    <path d="M 156.549353 233.928824 
L 157.491125 233.928824 
L 157.491125 202.814969 
L 156.549353 202.814969 
z
" clip-path="url(#p1c53eaf87e)" style="fill: #1f77b4"/>
   </g>
   <g id="patch_94">
    <path d="M 157.726568 233.928824 
L 158.66834 233.928824 
L 158.66834 201.29722 
L 157.726568 201.29722 
z
" clip-path="url(#p1c53eaf87e)" style="fill: #1f77b4"/>
   </g>
   <g id="patch_95">
    <path d="M 158.903783 233.928824 
L 159.845555 233.928824 
L 159.845555 201.2129 
L 158.903783 201.2129 
z
" clip-path="url(#p1c53eaf87e)" style="fill: #1f77b4"/>
   </g>
   <g id="patch_96">
    <path d="M 160.080998 233.928824 
L 161.022771 233.928824 
L 161.022771 201.381539 
L 160.080998 201.381539 
z
" clip-path="url(#p1c53eaf87e)" style="fill: #1f77b4"/>
   </g>
   <g id="patch_97">
    <path d="M 161.258214 233.928824 
L 162.199986 233.928824 
L 162.199986 201.718817 
L 161.258214 201.718817 
z
" clip-path="url(#p1c53eaf87e)" style="fill: #1f77b4"/>
   </g>
   <g id="patch_98">
    <path d="M 162.435429 233.928824 
L 163.377201 233.928824 
L 163.377201 202.730649 
L 162.435429 202.730649 
z
" clip-path="url(#p1c53eaf87e)" style="fill: #1f77b4"/>
   </g>
   <g id="patch_99">
    <path d="M 163.612644 233.928824 
L 164.554416 233.928824 
L 164.554416 202.730649 
L 163.612644 202.730649 
z
" clip-path="url(#p1c53eaf87e)" style="fill: #1f77b4"/>
   </g>
   <g id="patch_100">
    <path d="M 164.789859 233.928824 
L 165.731631 233.928824 
L 165.731631 204.838634 
L 164.789859 204.838634 
z
" clip-path="url(#p1c53eaf87e)" style="fill: #1f77b4"/>
   </g>
   <g id="patch_101">
    <path d="M 165.967074 233.928824 
L 166.908847 233.928824 
L 166.908847 205.766147 
L 165.967074 205.766147 
z
" clip-path="url(#p1c53eaf87e)" style="fill: #1f77b4"/>
   </g>
   <g id="patch_102">
    <path d="M 167.14429 233.928824 
L 168.086062 233.928824 
L 168.086062 206.440703 
L 167.14429 206.440703 
z
" clip-path="url(#p1c53eaf87e)" style="fill: #1f77b4"/>
   </g>
   <g id="patch_103">
    <path d="M 168.321505 233.928824 
L 169.263277 233.928824 
L 169.263277 207.705493 
L 168.321505 207.705493 
z
" clip-path="url(#p1c53eaf87e)" style="fill: #1f77b4"/>
   </g>
   <g id="patch_104">
    <path d="M 169.49872 233.928824 
L 170.440492 233.928824 
L 170.440492 209.729159 
L 169.49872 209.729159 
z
" clip-path="url(#p1c53eaf87e)" style="fill: #1f77b4"/>
   </g>
   <g id="patch_105">
    <path d="M 170.675935 233.928824 
L 171.617707 233.928824 
L 171.617707 210.572353 
L 170.675935 210.572353 
z
" clip-path="url(#p1c53eaf87e)" style="fill: #1f77b4"/>
   </g>
   <g id="patch_106">
    <path d="M 171.85315 233.928824 
L 172.794922 233.928824 
L 172.794922 212.427379 
L 171.85315 212.427379 
z
" clip-path="url(#p1c53eaf87e)" style="fill: #1f77b4"/>
   </g>
   <g id="patch_107">
    <path d="M 173.030366 233.928824 
L 173.972138 233.928824 
L 173.972138 210.656672 
L 173.030366 210.656672 
z
" clip-path="url(#p1c53eaf87e)" style="fill: #1f77b4"/>
   </g>
   <g id="patch_108">
    <path d="M 174.207581 233.928824 
L 175.149353 233.928824 
L 175.149353 211.162588 
L 174.207581 211.162588 
z
" clip-path="url(#p1c53eaf87e)" style="fill: #1f77b4"/>
   </g>
   <g id="patch_109">
    <path d="M 175.384796 233.928824 
L 176.326568 233.928824 
L 176.326568 211.415547 
L 175.384796 211.415547 
z
" clip-path="url(#p1c53eaf87e)" style="fill: #1f77b4"/>
   </g>
   <g id="patch_110">
    <path d="M 176.562011 233.928824 
L 177.503783 233.928824 
L 177.503783 211.499866 
L 176.562011 211.499866 
z
" clip-path="url(#p1c53eaf87e)" style="fill: #1f77b4"/>
   </g>
   <g id="patch_111">
    <path d="M 177.739226 233.928824 
L 178.680998 233.928824 
L 178.680998 211.668505 
L 177.739226 211.668505 
z
" clip-path="url(#p1c53eaf87e)" style="fill: #1f77b4"/>
   </g>
   <g id="patch_112">
    <path d="M 178.916441 233.928824 
L 179.858214 233.928824 
L 179.858214 211.752824 
L 178.916441 211.752824 
z
" clip-path="url(#p1c53eaf87e)" style="fill: #1f77b4"/>
   </g>
   <g id="patch_113">
    <path d="M 180.093657 233.928824 
L 181.035429 233.928824 
L 181.035429 210.740991 
L 180.093657 210.740991 
z
" clip-path="url(#p1c53eaf87e)" style="fill: #1f77b4"/>
   </g>
   <g id="patch_114">
    <path d="M 181.270872 233.928824 
L 182.212644 233.928824 
L 182.212644 213.439212 
L 181.270872 213.439212 
z
" clip-path="url(#p1c53eaf87e)" style="fill: #1f77b4"/>
   </g>
   <g id="patch_115">
    <path d="M 182.448087 233.928824 
L 183.389859 233.928824 
L 183.389859 213.69217 
L 182.448087 213.69217 
z
" clip-path="url(#p1c53eaf87e)" style="fill: #1f77b4"/>
   </g>
   <g id="patch_116">
    <path d="M 183.625302 233.928824 
L 184.567074 233.928824 
L 184.567074 212.848976 
L 183.625302 212.848976 
z
" clip-path="url(#p1c53eaf87e)" style="fill: #1f77b4"/>
   </g>
   <g id="patch_117">
    <path d="M 184.802517 233.928824 
L 185.74429 233.928824 
L 185.74429 211.078269 
L 184.802517 211.078269 
z
" clip-path="url(#p1c53eaf87e)" style="fill: #1f77b4"/>
   </g>
   <g id="patch_118">
    <path d="M 185.979733 233.928824 
L 186.921505 233.928824 
L 186.921505 211.415547 
L 185.979733 211.415547 
z
" clip-path="url(#p1c53eaf87e)" style="fill: #1f77b4"/>
   </g>
   <g id="patch_119">
    <path d="M 187.156948 233.928824 
L 188.09872 233.928824 
L 188.09872 211.752824 
L 187.156948 211.752824 
z
" clip-path="url(#p1c53eaf87e)" style="fill: #1f77b4"/>
   </g>
   <g id="patch_120">
    <path d="M 188.334163 233.928824 
L 189.275935 233.928824 
L 189.275935 212.005782 
L 188.334163 212.005782 
z
" clip-path="url(#p1c53eaf87e)" style="fill: #1f77b4"/>
   </g>
   <g id="patch_121">
    <path d="M 189.511378 233.928824 
L 190.45315 233.928824 
L 190.45315 209.897798 
L 189.511378 209.897798 
z
" clip-path="url(#p1c53eaf87e)" style="fill: #1f77b4"/>
   </g>
   <g id="patch_122">
    <path d="M 190.688593 233.928824 
L 191.630366 233.928824 
L 191.630366 209.897798 
L 190.688593 209.897798 
z
" clip-path="url(#p1c53eaf87e)" style="fill: #1f77b4"/>
   </g>
   <g id="patch_123">
    <path d="M 191.865809 233.928824 
L 192.807581 233.928824 
L 192.807581 211.078269 
L 191.865809 211.078269 
z
" clip-path="url(#p1c53eaf87e)" style="fill: #1f77b4"/>
   </g>
   <g id="patch_124">
    <path d="M 193.043024 233.928824 
L 193.984796 233.928824 
L 193.984796 212.933296 
L 193.043024 212.933296 
z
" clip-path="url(#p1c53eaf87e)" style="fill: #1f77b4"/>
   </g>
   <g id="patch_125">
    <path d="M 194.220239 233.928824 
L 195.162011 233.928824 
L 195.162011 211.499866 
L 194.220239 211.499866 
z
" clip-path="url(#p1c53eaf87e)" style="fill: #1f77b4"/>
   </g>
   <g id="patch_126">
    <path d="M 195.397454 233.928824 
L 196.339226 233.928824 
L 196.339226 210.319395 
L 195.397454 210.319395 
z
" clip-path="url(#p1c53eaf87e)" style="fill: #1f77b4"/>
   </g>
   <g id="patch_127">
    <path d="M 196.574669 233.928824 
L 197.516441 233.928824 
L 197.516441 210.825311 
L 196.574669 210.825311 
z
" clip-path="url(#p1c53eaf87e)" style="fill: #1f77b4"/>
   </g>
   <g id="patch_128">
    <path d="M 197.751885 233.928824 
L 198.693657 233.928824 
L 198.693657 210.99395 
L 197.751885 210.99395 
z
" clip-path="url(#p1c53eaf87e)" style="fill: #1f77b4"/>
   </g>
   <g id="patch_129">
    <path d="M 198.9291 233.928824 
L 199.870872 233.928824 
L 199.870872 210.825311 
L 198.9291 210.825311 
z
" clip-path="url(#p1c53eaf87e)" style="fill: #1f77b4"/>
   </g>
   <g id="patch_130">
    <path d="M 200.106315 233.928824 
L 201.048087 233.928824 
L 201.048087 211.668505 
L 200.106315 211.668505 
z
" clip-path="url(#p1c53eaf87e)" style="fill: #1f77b4"/>
   </g>
   <g id="patch_131">
    <path d="M 201.28353 233.928824 
L 202.225302 233.928824 
L 202.225302 212.258741 
L 201.28353 212.258741 
z
" clip-path="url(#p1c53eaf87e)" style="fill: #1f77b4"/>
   </g>
   <g id="patch_132">
    <path d="M 202.460745 233.928824 
L 203.402517 233.928824 
L 203.402517 211.162588 
L 202.460745 211.162588 
z
" clip-path="url(#p1c53eaf87e)" style="fill: #1f77b4"/>
   </g>
   <g id="patch_133">
    <path d="M 203.63796 233.928824 
L 204.579733 233.928824 
L 204.579733 210.403714 
L 203.63796 210.403714 
z
" clip-path="url(#p1c53eaf87e)" style="fill: #1f77b4"/>
   </g>
   <g id="patch_134">
    <path d="M 204.815176 233.928824 
L 205.756948 233.928824 
L 205.756948 208.885965 
L 204.815176 208.885965 
z
" clip-path="url(#p1c53eaf87e)" style="fill: #1f77b4"/>
   </g>
   <g id="patch_135">
    <path d="M 205.992391 233.928824 
L 206.934163 233.928824 
L 206.934163 209.391881 
L 205.992391 209.391881 
z
" clip-path="url(#p1c53eaf87e)" style="fill: #1f77b4"/>
   </g>
   <g id="patch_136">
    <path d="M 207.169606 233.928824 
L 208.111378 233.928824 
L 208.111378 209.897798 
L 207.169606 209.897798 
z
" clip-path="url(#p1c53eaf87e)" style="fill: #1f77b4"/>
   </g>
   <g id="patch_137">
    <path d="M 208.346821 233.928824 
L 209.288593 233.928824 
L 209.288593 208.380049 
L 208.346821 208.380049 
z
" clip-path="url(#p1c53eaf87e)" style="fill: #1f77b4"/>
   </g>
   <g id="patch_138">
    <path d="M 209.524036 233.928824 
L 210.465809 233.928824 
L 210.465809 206.103425 
L 209.524036 206.103425 
z
" clip-path="url(#p1c53eaf87e)" style="fill: #1f77b4"/>
   </g>
   <g id="patch_139">
    <path d="M 210.701252 233.928824 
L 211.643024 233.928824 
L 211.643024 206.356383 
L 210.701252 206.356383 
z
" clip-path="url(#p1c53eaf87e)" style="fill: #1f77b4"/>
   </g>
   <g id="patch_140">
    <path d="M 211.878467 233.928824 
L 212.820239 233.928824 
L 212.820239 205.681828 
L 211.878467 205.681828 
z
" clip-path="url(#p1c53eaf87e)" style="fill: #1f77b4"/>
   </g>
   <g id="patch_141">
    <path d="M 213.055682 233.928824 
L 213.997454 233.928824 
L 213.997454 204.248398 
L 213.055682 204.248398 
z
" clip-path="url(#p1c53eaf87e)" style="fill: #1f77b4"/>
   </g>
   <g id="patch_142">
    <path d="M 214.232897 233.928824 
L 215.174669 233.928824 
L 215.174669 202.393372 
L 214.232897 202.393372 
z
" clip-path="url(#p1c53eaf87e)" style="fill: #1f77b4"/>
   </g>
   <g id="patch_143">
    <path d="M 215.410112 233.928824 
L 216.351885 233.928824 
L 216.351885 201.044261 
L 215.410112 201.044261 
z
" clip-path="url(#p1c53eaf87e)" style="fill: #1f77b4"/>
   </g>
   <g id="patch_144">
    <path d="M 216.587328 233.928824 
L 217.5291 233.928824 
L 217.5291 200.538345 
L 216.587328 200.538345 
z
" clip-path="url(#p1c53eaf87e)" style="fill: #1f77b4"/>
   </g>
   <g id="patch_145">
    <path d="M 217.764543 233.928824 
L 218.706315 233.928824 
L 218.706315 200.032429 
L 217.764543 200.032429 
z
" clip-path="url(#p1c53eaf87e)" style="fill: #1f77b4"/>
   </g>
   <g id="patch_146">
    <path d="M 218.941758 233.928824 
L 219.88353 233.928824 
L 219.88353 199.020596 
L 218.941758 199.020596 
z
" clip-path="url(#p1c53eaf87e)" style="fill: #1f77b4"/>
   </g>
   <g id="patch_147">
    <path d="M 220.118973 233.928824 
L 221.060745 233.928824 
L 221.060745 198.851957 
L 220.118973 198.851957 
z
" clip-path="url(#p1c53eaf87e)" style="fill: #1f77b4"/>
   </g>
   <g id="patch_148">
    <path d="M 221.296188 233.928824 
L 222.23796 233.928824 
L 222.23796 200.538345 
L 221.296188 200.538345 
z
" clip-path="url(#p1c53eaf87e)" style="fill: #1f77b4"/>
   </g>
   <g id="patch_149">
    <path d="M 222.473404 233.928824 
L 223.415176 233.928824 
L 223.415176 200.875623 
L 222.473404 200.875623 
z
" clip-path="url(#p1c53eaf87e)" style="fill: #1f77b4"/>
   </g>
   <g id="patch_150">
    <path d="M 223.650619 233.928824 
L 224.592391 233.928824 
L 224.592391 200.032429 
L 223.650619 200.032429 
z
" clip-path="url(#p1c53eaf87e)" style="fill: #1f77b4"/>
   </g>
   <g id="patch_151">
    <path d="M 224.827834 233.928824 
L 225.769606 233.928824 
L 225.769606 197.840125 
L 224.827834 197.840125 
z
" clip-path="url(#p1c53eaf87e)" style="fill: #1f77b4"/>
   </g>
   <g id="patch_152">
    <path d="M 226.005049 233.928824 
L 226.946821 233.928824 
L 226.946821 197.08125 
L 226.005049 197.08125 
z
" clip-path="url(#p1c53eaf87e)" style="fill: #1f77b4"/>
   </g>
   <g id="patch_153">
    <path d="M 227.182264 233.928824 
L 228.124036 233.928824 
L 228.124036 195.985098 
L 227.182264 195.985098 
z
" clip-path="url(#p1c53eaf87e)" style="fill: #1f77b4"/>
   </g>
   <g id="patch_154">
    <path d="M 228.359479 233.928824 
L 229.301252 233.928824 
L 229.301252 195.816459 
L 228.359479 195.816459 
z
" clip-path="url(#p1c53eaf87e)" style="fill: #1f77b4"/>
   </g>
   <g id="patch_155">
    <path d="M 229.536695 233.928824 
L 230.478467 233.928824 
L 230.478467 195.563501 
L 229.536695 195.563501 
z
" clip-path="url(#p1c53eaf87e)" style="fill: #1f77b4"/>
   </g>
   <g id="patch_156">
    <path d="M 230.71391 233.928824 
L 231.655682 233.928824 
L 231.655682 192.106406 
L 230.71391 192.106406 
z
" clip-path="url(#p1c53eaf87e)" style="fill: #1f77b4"/>
   </g>
   <g id="patch_157">
    <path d="M 231.891125 233.928824 
L 232.832897 233.928824 
L 232.832897 192.022087 
L 231.891125 192.022087 
z
" clip-path="url(#p1c53eaf87e)" style="fill: #1f77b4"/>
   </g>
   <g id="patch_158">
    <path d="M 233.06834 233.928824 
L 234.010112 233.928824 
L 234.010112 192.443684 
L 233.06834 192.443684 
z
" clip-path="url(#p1c53eaf87e)" style="fill: #1f77b4"/>
   </g>
   <g id="patch_159">
    <path d="M 234.245555 233.928824 
L 235.187328 233.928824 
L 235.187328 191.937767 
L 234.245555 191.937767 
z
" clip-path="url(#p1c53eaf87e)" style="fill: #1f77b4"/>
   </g>
   <g id="patch_160">
    <path d="M 235.422771 233.928824 
L 236.364543 233.928824 
L 236.364543 190.420018 
L 235.422771 190.420018 
z
" clip-path="url(#p1c53eaf87e)" style="fill: #1f77b4"/>
   </g>
   <g id="patch_161">
    <path d="M 236.599986 233.928824 
L 237.541758 233.928824 
L 237.541758 190.335699 
L 236.599986 190.335699 
z
" clip-path="url(#p1c53eaf87e)" style="fill: #1f77b4"/>
   </g>
   <g id="patch_162">
    <path d="M 237.777201 233.928824 
L 238.718973 233.928824 
L 238.718973 188.396353 
L 237.777201 188.396353 
z
" clip-path="url(#p1c53eaf87e)" style="fill: #1f77b4"/>
   </g>
   <g id="patch_163">
    <path d="M 238.954416 233.928824 
L 239.896188 233.928824 
L 239.896188 189.661144 
L 238.954416 189.661144 
z
" clip-path="url(#p1c53eaf87e)" style="fill: #1f77b4"/>
   </g>
   <g id="patch_164">
    <path d="M 240.131631 233.928824 
L 241.073404 233.928824 
L 241.073404 189.998421 
L 240.131631 189.998421 
z
" clip-path="url(#p1c53eaf87e)" style="fill: #1f77b4"/>
   </g>
   <g id="patch_165">
    <path d="M 241.308847 233.928824 
L 242.250619 233.928824 
L 242.250619 187.721798 
L 241.308847 187.721798 
z
" clip-path="url(#p1c53eaf87e)" style="fill: #1f77b4"/>
   </g>
   <g id="patch_166">
    <path d="M 242.486062 233.928824 
L 243.427834 233.928824 
L 243.427834 186.878604 
L 242.486062 186.878604 
z
" clip-path="url(#p1c53eaf87e)" style="fill: #1f77b4"/>
   </g>
   <g id="patch_167">
    <path d="M 243.663277 233.928824 
L 244.605049 233.928824 
L 244.605049 188.312033 
L 243.663277 188.312033 
z
" clip-path="url(#p1c53eaf87e)" style="fill: #1f77b4"/>
   </g>
   <g id="patch_168">
    <path d="M 244.840492 233.928824 
L 245.782264 233.928824 
L 245.782264 187.721798 
L 244.840492 187.721798 
z
" clip-path="url(#p1c53eaf87e)" style="fill: #1f77b4"/>
   </g>
   <g id="patch_169">
    <path d="M 246.017707 233.928824 
L 246.959479 233.928824 
L 246.959479 184.011744 
L 246.017707 184.011744 
z
" clip-path="url(#p1c53eaf87e)" style="fill: #1f77b4"/>
   </g>
   <g id="patch_170">
    <path d="M 247.194922 233.928824 
L 248.136695 233.928824 
L 248.136695 182.241037 
L 247.194922 182.241037 
z
" clip-path="url(#p1c53eaf87e)" style="fill: #1f77b4"/>
   </g>
   <g id="patch_171">
    <path d="M 248.372138 233.928824 
L 249.31391 233.928824 
L 249.31391 180.301691 
L 248.372138 180.301691 
z
" clip-path="url(#p1c53eaf87e)" style="fill: #1f77b4"/>
   </g>
   <g id="patch_172">
    <path d="M 249.549353 233.928824 
L 250.491125 233.928824 
L 250.491125 179.795775 
L 249.549353 179.795775 
z
" clip-path="url(#p1c53eaf87e)" style="fill: #1f77b4"/>
   </g>
   <g id="patch_173">
    <path d="M 250.726568 233.928824 
L 251.66834 233.928824 
L 251.66834 178.025068 
L 250.726568 178.025068 
z
" clip-path="url(#p1c53eaf87e)" style="fill: #1f77b4"/>
   </g>
   <g id="patch_174">
    <path d="M 251.903783 233.928824 
L 252.845555 233.928824 
L 252.845555 174.399334 
L 251.903783 174.399334 
z
" clip-path="url(#p1c53eaf87e)" style="fill: #1f77b4"/>
   </g>
   <g id="patch_175">
    <path d="M 253.080998 233.928824 
L 254.022771 233.928824 
L 254.022771 170.68928 
L 253.080998 170.68928 
z
" clip-path="url(#p1c53eaf87e)" style="fill: #1f77b4"/>
   </g>
   <g id="patch_176">
    <path d="M 254.258214 233.928824 
L 255.199986 233.928824 
L 255.199986 170.520642 
L 254.258214 170.520642 
z
" clip-path="url(#p1c53eaf87e)" style="fill: #1f77b4"/>
   </g>
   <g id="patch_177">
    <path d="M 255.435429 233.928824 
L 256.377201 233.928824 
L 256.377201 168.244018 
L 255.435429 168.244018 
z
" clip-path="url(#p1c53eaf87e)" style="fill: #1f77b4"/>
   </g>
   <g id="patch_178">
    <path d="M 256.612644 233.928824 
L 257.554416 233.928824 
L 257.554416 165.630117 
L 256.612644 165.630117 
z
" clip-path="url(#p1c53eaf87e)" style="fill: #1f77b4"/>
   </g>
   <g id="patch_179">
    <path d="M 257.789859 233.928824 
L 258.731631 233.928824 
L 258.731631 162.341661 
L 257.789859 162.341661 
z
" clip-path="url(#p1c53eaf87e)" style="fill: #1f77b4"/>
   </g>
   <g id="patch_180">
    <path d="M 258.967074 233.928824 
L 259.908847 233.928824 
L 259.908847 159.559121 
L 258.967074 159.559121 
z
" clip-path="url(#p1c53eaf87e)" style="fill: #1f77b4"/>
   </g>
   <g id="patch_181">
    <path d="M 260.14429 233.928824 
L 261.086062 233.928824 
L 261.086062 158.125691 
L 260.14429 158.125691 
z
" clip-path="url(#p1c53eaf87e)" style="fill: #1f77b4"/>
   </g>
   <g id="patch_182">
    <path d="M 261.321505 233.928824 
L 262.263277 233.928824 
L 262.263277 154.331318 
L 261.321505 154.331318 
z
" clip-path="url(#p1c53eaf87e)" style="fill: #1f77b4"/>
   </g>
   <g id="patch_183">
    <path d="M 262.49872 233.928824 
L 263.440492 233.928824 
L 263.440492 152.560611 
L 262.49872 152.560611 
z
" clip-path="url(#p1c53eaf87e)" style="fill: #1f77b4"/>
   </g>
   <g id="patch_184">
    <path d="M 263.675935 233.928824 
L 264.617707 233.928824 
L 264.617707 150.789904 
L 263.675935 150.789904 
z
" clip-path="url(#p1c53eaf87e)" style="fill: #1f77b4"/>
   </g>
   <g id="patch_185">
    <path d="M 264.85315 233.928824 
L 265.794922 233.928824 
L 265.794922 152.139014 
L 264.85315 152.139014 
z
" clip-path="url(#p1c53eaf87e)" style="fill: #1f77b4"/>
   </g>
   <g id="patch_186">
    <path d="M 266.030366 233.928824 
L 266.972138 233.928824 
L 266.972138 151.717417 
L 266.030366 151.717417 
z
" clip-path="url(#p1c53eaf87e)" style="fill: #1f77b4"/>
   </g>
   <g id="patch_187">
    <path d="M 267.207581 233.928824 
L 268.149353 233.928824 
L 268.149353 148.5976 
L 267.207581 148.5976 
z
" clip-path="url(#p1c53eaf87e)" style="fill: #1f77b4"/>
   </g>
   <g id="patch_188">
    <path d="M 268.384796 233.928824 
L 269.326568 233.928824 
L 269.326568 148.428961 
L 268.384796 148.428961 
z
" clip-path="url(#p1c53eaf87e)" style="fill: #1f77b4"/>
   </g>
   <g id="patch_189">
    <path d="M 269.562011 233.928824 
L 270.503783 233.928824 
L 270.503783 149.440794 
L 269.562011 149.440794 
z
" clip-path="url(#p1c53eaf87e)" style="fill: #1f77b4"/>
   </g>
   <g id="patch_190">
    <path d="M 270.739226 233.928824 
L 271.680998 233.928824 
L 271.680998 148.260322 
L 270.739226 148.260322 
z
" clip-path="url(#p1c53eaf87e)" style="fill: #1f77b4"/>
   </g>
   <g id="patch_191">
    <path d="M 271.916441 233.928824 
L 272.858214 233.928824 
L 272.858214 151.042862 
L 271.916441 151.042862 
z
" clip-path="url(#p1c53eaf87e)" style="fill: #1f77b4"/>
   </g>
   <g id="patch_192">
    <path d="M 273.093657 233.928824 
L 274.035429 233.928824 
L 274.035429 146.658254 
L 273.093657 146.658254 
z
" clip-path="url(#p1c53eaf87e)" style="fill: #1f77b4"/>
   </g>
   <g id="patch_193">
    <path d="M 274.270872 233.928824 
L 275.212644 233.928824 
L 275.212644 146.826893 
L 274.270872 146.826893 
z
" clip-path="url(#p1c53eaf87e)" style="fill: #1f77b4"/>
   </g>
   <g id="patch_194">
    <path d="M 275.448087 233.928824 
L 276.389859 233.928824 
L 276.389859 141.008855 
L 275.448087 141.008855 
z
" clip-path="url(#p1c53eaf87e)" style="fill: #1f77b4"/>
   </g>
   <g id="patch_195">
    <path d="M 276.625302 233.928824 
L 277.567074 233.928824 
L 277.567074 134.010345 
L 276.625302 134.010345 
z
" clip-path="url(#p1c53eaf87e)" style="fill: #1f77b4"/>
   </g>
   <g id="patch_196">
    <path d="M 277.802517 233.928824 
L 278.74429 233.928824 
L 278.74429 130.468931 
L 277.802517 130.468931 
z
" clip-path="url(#p1c53eaf87e)" style="fill: #1f77b4"/>
   </g>
   <g id="patch_197">
    <path d="M 278.979733 233.928824 
L 279.921505 233.928824 
L 279.921505 124.735212 
L 278.979733 124.735212 
z
" clip-path="url(#p1c53eaf87e)" style="fill: #1f77b4"/>
   </g>
   <g id="patch_198">
    <path d="M 280.156948 233.928824 
L 281.09872 233.928824 
L 281.09872 118.579896 
L 280.156948 118.579896 
z
" clip-path="url(#p1c53eaf87e)" style="fill: #1f77b4"/>
   </g>
   <g id="patch_199">
    <path d="M 281.334163 233.928824 
L 282.275935 233.928824 
L 282.275935 116.556231 
L 281.334163 116.556231 
z
" clip-path="url(#p1c53eaf87e)" style="fill: #1f77b4"/>
   </g>
   <g id="patch_200">
    <path d="M 282.511378 233.928824 
L 283.45315 233.928824 
L 283.45315 109.220444 
L 282.511378 109.220444 
z
" clip-path="url(#p1c53eaf87e)" style="fill: #1f77b4"/>
   </g>
   <g id="patch_201">
    <path d="M 283.688593 233.928824 
L 284.630366 233.928824 
L 284.630366 106.269265 
L 283.688593 106.269265 
z
" clip-path="url(#p1c53eaf87e)" style="fill: #1f77b4"/>
   </g>
   <g id="patch_202">
    <path d="M 284.865809 233.928824 
L 285.807581 233.928824 
L 285.807581 99.355075 
L 284.865809 99.355075 
z
" clip-path="url(#p1c53eaf87e)" style="fill: #1f77b4"/>
   </g>
   <g id="patch_203">
    <path d="M 286.043024 233.928824 
L 286.984796 233.928824 
L 286.984796 89.405387 
L 286.043024 89.405387 
z
" clip-path="url(#p1c53eaf87e)" style="fill: #1f77b4"/>
   </g>
   <g id="patch_204">
    <path d="M 287.220239 233.928824 
L 288.162011 233.928824 
L 288.162011 77.85363 
L 287.220239 77.85363 
z
" clip-path="url(#p1c53eaf87e)" style="fill: #1f77b4"/>
   </g>
   <g id="patch_205">
    <path d="M 288.397454 233.928824 
L 289.339226 233.928824 
L 289.339226 67.398026 
L 288.397454 67.398026 
z
" clip-path="url(#p1c53eaf87e)" style="fill: #1f77b4"/>
   </g>
   <g id="patch_206">
    <path d="M 289.574669 233.928824 
L 290.516441 233.928824 
L 290.516441 59.724961 
L 289.574669 59.724961 
z
" clip-path="url(#p1c53eaf87e)" style="fill: #1f77b4"/>
   </g>
   <g id="patch_207">
    <path d="M 290.751885 233.928824 
L 291.693657 233.928824 
L 291.693657 54.665798 
L 290.751885 54.665798 
z
" clip-path="url(#p1c53eaf87e)" style="fill: #1f77b4"/>
   </g>
   <g id="patch_208">
    <path d="M 291.9291 233.928824 
L 292.870872 233.928824 
L 292.870872 42.861083 
L 291.9291 42.861083 
z
" clip-path="url(#p1c53eaf87e)" style="fill: #1f77b4"/>
   </g>
   <g id="patch_209">
    <path d="M 293.106315 233.928824 
L 294.048087 233.928824 
L 294.048087 37.211684 
L 293.106315 37.211684 
z
" clip-path="url(#p1c53eaf87e)" style="fill: #1f77b4"/>
   </g>
   <g id="patch_210">
    <path d="M 294.28353 233.928824 
L 295.225302 233.928824 
L 295.225302 31.393645 
L 294.28353 31.393645 
z
" clip-path="url(#p1c53eaf87e)" style="fill: #1f77b4"/>
   </g>
   <g id="patch_211">
    <path d="M 295.460745 233.928824 
L 296.402517 233.928824 
L 296.402517 30.297493 
L 295.460745 30.297493 
z
" clip-path="url(#p1c53eaf87e)" style="fill: #1f77b4"/>
   </g>
   <g id="patch_212">
    <path d="M 296.63796 233.928824 
L 297.579733 233.928824 
L 297.579733 28.189509 
L 296.63796 28.189509 
z
" clip-path="url(#p1c53eaf87e)" style="fill: #1f77b4"/>
   </g>
   <g id="patch_213">
    <path d="M 297.815176 233.928824 
L 298.756948 233.928824 
L 298.756948 29.960216 
L 297.815176 29.960216 
z
" clip-path="url(#p1c53eaf87e)" style="fill: #1f77b4"/>
   </g>
   <g id="patch_214">
    <path d="M 298.992391 233.928824 
L 299.934163 233.928824 
L 299.934163 24.479455 
L 298.992391 24.479455 
z
" clip-path="url(#p1c53eaf87e)" style="fill: #1f77b4"/>
   </g>
   <g id="patch_215">
    <path d="M 300.169606 233.928824 
L 301.111378 233.928824 
L 301.111378 21.528277 
L 300.169606 21.528277 
z
" clip-path="url(#p1c53eaf87e)" style="fill: #1f77b4"/>
   </g>
   <g id="patch_216">
    <path d="M 301.346821 233.928824 
L 302.288593 233.928824 
L 302.288593 17.649585 
L 301.346821 17.649585 
z
" clip-path="url(#p1c53eaf87e)" style="fill: #1f77b4"/>
   </g>
   <g id="patch_217">
    <path d="M 302.524036 233.928824 
L 303.465809 233.928824 
L 303.465809 17.312307 
L 302.524036 17.312307 
z
" clip-path="url(#p1c53eaf87e)" style="fill: #1f77b4"/>
   </g>
   <g id="patch_218">
    <path d="M 303.701252 233.928824 
L 304.643024 233.928824 
L 304.643024 16.89071 
L 303.701252 16.89071 
z
" clip-path="url(#p1c53eaf87e)" style="fill: #1f77b4"/>
   </g>
   <g id="patch_219">
    <path d="M 304.878467 233.928824 
L 305.820239 233.928824 
L 305.820239 13.180657 
L 304.878467 13.180657 
z
" clip-path="url(#p1c53eaf87e)" style="fill: #1f77b4"/>
   </g>
   <g id="patch_220">
    <path d="M 306.055682 233.928824 
L 306.997454 233.928824 
L 306.997454 12.506102 
L 306.055682 12.506102 
z
" clip-path="url(#p1c53eaf87e)" style="fill: #1f77b4"/>
   </g>
   <g id="patch_221">
    <path d="M 307.232897 233.928824 
L 308.174669 233.928824 
L 308.174669 12.75906 
L 307.232897 12.75906 
z
" clip-path="url(#p1c53eaf87e)" style="fill: #1f77b4"/>
   </g>
   <g id="patch_222">
    <path d="M 308.410112 233.928824 
L 309.351885 233.928824 
L 309.351885 16.300474 
L 308.410112 16.300474 
z
" clip-path="url(#p1c53eaf87e)" style="fill: #1f77b4"/>
   </g>
   <g id="patch_223">
    <path d="M 309.587328 233.928824 
L 310.5291 233.928824 
L 310.5291 18.914376 
L 309.587328 18.914376 
z
" clip-path="url(#p1c53eaf87e)" style="fill: #1f77b4"/>
   </g>
   <g id="patch_224">
    <path d="M 310.764543 233.928824 
L 311.706315 233.928824 
L 311.706315 16.806391 
L 310.764543 16.806391 
z
" clip-path="url(#p1c53eaf87e)" style="fill: #1f77b4"/>
   </g>
   <g id="patch_225">
    <path d="M 311.941758 233.928824 
L 312.88353 233.928824 
L 312.88353 12.168824 
L 311.941758 12.168824 
z
" clip-path="url(#p1c53eaf87e)" style="fill: #1f77b4"/>
   </g>
   <g id="patch_226">
    <path d="M 313.118973 233.928824 
L 314.060745 233.928824 
L 314.060745 12.337463 
L 313.118973 12.337463 
z
" clip-path="url(#p1c53eaf87e)" style="fill: #1f77b4"/>
   </g>
   <g id="patch_227">
    <path d="M 314.296188 233.928824 
L 315.23796 233.928824 
L 315.23796 12.843379 
L 314.296188 12.843379 
z
" clip-path="url(#p1c53eaf87e)" style="fill: #1f77b4"/>
   </g>
   <g id="patch_228">
    <path d="M 315.473404 233.928824 
L 316.415176 233.928824 
L 316.415176 14.782725 
L 315.473404 14.782725 
z
" clip-path="url(#p1c53eaf87e)" style="fill: #1f77b4"/>
   </g>
   <g id="patch_229">
    <path d="M 316.650619 233.928824 
L 317.592391 233.928824 
L 317.592391 15.794558 
L 316.650619 15.794558 
z
" clip-path="url(#p1c53eaf87e)" style="fill: #1f77b4"/>
   </g>
   <g id="patch_230">
    <path d="M 317.827834 233.928824 
L 318.769606 233.928824 
L 318.769606 16.722071 
L 317.827834 16.722071 
z
" clip-path="url(#p1c53eaf87e)" style="fill: #1f77b4"/>
   </g>
   <g id="patch_231">
    <path d="M 319.005049 233.928824 
L 319.946821 233.928824 
L 319.946821 24.226497 
L 319.005049 24.226497 
z
" clip-path="url(#p1c53eaf87e)" style="fill: #1f77b4"/>
   </g>
   <g id="patch_232">
    <path d="M 320.182264 233.928824 
L 321.124036 233.928824 
L 321.124036 32.574117 
L 320.182264 32.574117 
z
" clip-path="url(#p1c53eaf87e)" style="fill: #1f77b4"/>
   </g>
   <g id="patch_233">
    <path d="M 321.359479 233.928824 
L 322.301252 233.928824 
L 322.301252 41.511972 
L 321.359479 41.511972 
z
" clip-path="url(#p1c53eaf87e)" style="fill: #1f77b4"/>
   </g>
   <g id="patch_234">
    <path d="M 322.536695 233.928824 
L 323.478467 233.928824 
L 323.478467 44.716109 
L 322.536695 44.716109 
z
" clip-path="url(#p1c53eaf87e)" style="fill: #1f77b4"/>
   </g>
   <g id="patch_235">
    <path d="M 323.71391 233.928824 
L 324.655682 233.928824 
L 324.655682 48.510482 
L 323.71391 48.510482 
z
" clip-path="url(#p1c53eaf87e)" style="fill: #1f77b4"/>
   </g>
   <g id="patch_236">
    <path d="M 324.891125 233.928824 
L 325.832897 233.928824 
L 325.832897 50.787106 
L 324.891125 50.787106 
z
" clip-path="url(#p1c53eaf87e)" style="fill: #1f77b4"/>
   </g>
   <g id="patch_237">
    <path d="M 326.06834 233.928824 
L 327.010112 233.928824 
L 327.010112 59.724961 
L 326.06834 59.724961 
z
" clip-path="url(#p1c53eaf87e)" style="fill: #1f77b4"/>
   </g>
   <g id="patch_238">
    <path d="M 327.245555 233.928824 
L 328.187328 233.928824 
L 328.187328 60.146558 
L 327.245555 60.146558 
z
" clip-path="url(#p1c53eaf87e)" style="fill: #1f77b4"/>
   </g>
   <g id="patch_239">
    <path d="M 328.422771 233.928824 
L 329.364543 233.928824 
L 329.364543 61.832946 
L 328.422771 61.832946 
z
" clip-path="url(#p1c53eaf87e)" style="fill: #1f77b4"/>
   </g>
   <g id="matplotlib.axis_1">
    <g id="xtick_1">
     <g id="line2d_1">
      <defs>
       <path id="m4127e8ba9c" d="M 0 0 
L 0 3.5 
" style="stroke: #000000; stroke-width: 0.8"/>
      </defs>
      <g>
       <use xlink:href="#m4127e8ba9c" x="55.779733" y="233.928824" style="stroke: #000000; stroke-width: 0.8"/>
      </g>
     </g>
     <g id="text_1">
      <!-- $\mathdefault{2021{-}07}$ -->
      <g transform="translate(57.939146 279.135433)rotate(-90)scale(0.1 -0.1)">
       <defs>
        <path id="URWPalladioL-Roma-32" d="M 102 160 
L 102 0 
C 1299 0 1299 0 1530 0 
C 1760 0 1760 0 2995 0 
C 2982 125 2982 186 2982 269 
C 2982 348 2982 407 2995 539 
C 2259 539 1965 539 781 539 
L 1946 1761 
C 2566 2414 2758 2763 2758 3238 
C 2758 3966 2259 4416 1446 4416 
C 986 4416 672 4288 358 3969 
L 250 3099 
L 435 3099 
L 518 3393 
C 621 3763 851 3923 1280 3923 
C 1830 3923 2182 3577 2182 3035 
C 2182 2555 1914 2083 1190 1316 
L 102 160 
z
" transform="scale(0.015625)"/>
        <path id="URWPalladioL-Roma-30" d="M 1683 4416 
C 691 4416 186 3628 186 2077 
C 186 1326 320 680 544 366 
C 768 51 1126 -128 1523 -128 
C 2490 -128 2976 705 2976 2346 
C 2976 3749 2560 4416 1683 4416 
z
M 1568 4192 
C 2189 4192 2438 3564 2438 2025 
C 2438 661 2195 96 1606 96 
C 986 96 723 744 723 2308 
C 723 3660 960 4192 1568 4192 
z
" transform="scale(0.015625)"/>
        <path id="URWPalladioL-Roma-31" d="M 429 3584 
L 493 3584 
L 1318 3956 
C 1325 3962 1331 3962 1338 3962 
C 1376 3962 1389 3905 1389 3751 
L 1389 613 
C 1389 276 1318 205 973 205 
L 614 205 
L 614 0 
C 1600 0 1600 0 1670 0 
C 1754 0 1894 0 2112 0 
C 2189 0 2413 0 2675 0 
L 2675 205 
L 2342 205 
C 1990 205 1926 276 1926 612 
L 1926 4443 
L 1837 4475 
C 1421 4257 966 4065 384 3860 
L 429 3584 
z
" transform="scale(0.015625)"/>
        <path id="CMSY10-0" d="M 4218 1472 
C 4326 1472 4442 1472 4442 1600 
C 4442 1728 4326 1728 4218 1728 
L 755 1728 
C 646 1728 531 1728 531 1600 
C 531 1472 646 1472 755 1472 
L 4218 1472 
z
" transform="scale(0.015625)"/>
        <path id="URWPalladioL-Roma-37" d="M 358 32 
L 416 -51 
C 666 -32 666 -32 710 -32 
C 755 -32 755 -32 1005 -51 
C 1274 649 1587 1317 2010 2087 
L 3181 4199 
L 3181 4372 
C 2490 4372 2266 4372 1747 4372 
C 1280 4372 966 4372 346 4372 
L 282 4359 
C 301 3750 301 3750 301 3685 
C 301 3614 301 3614 282 3031 
L 474 3031 
L 518 3390 
C 570 3789 614 3840 909 3840 
L 2618 3840 
C 2362 3313 2163 2941 1920 2549 
L 358 32 
z
" transform="scale(0.015625)"/>
       </defs>
       <use xlink:href="#URWPalladioL-Roma-32" transform="scale(0.996264)"/>
       <use xlink:href="#URWPalladioL-Roma-30" transform="translate(49.8132 0)scale(0.996264)"/>
       <use xlink:href="#URWPalladioL-Roma-32" transform="translate(99.626401 0)scale(0.996264)"/>
       <use xlink:href="#URWPalladioL-Roma-31" transform="translate(149.439601 0)scale(0.996264)"/>
       <use xlink:href="#CMSY10-0" transform="translate(200.498102 0)scale(1.038107)"/>
       <use xlink:href="#URWPalladioL-Roma-30" transform="translate(282.439798 0)scale(0.996264)"/>
       <use xlink:href="#URWPalladioL-Roma-37" transform="translate(332.252998 0)scale(0.996264)"/>
      </g>
     </g>
    </g>
    <g id="xtick_2">
     <g id="line2d_2">
      <g>
       <use xlink:href="#m4127e8ba9c" x="92.273404" y="233.928824" style="stroke: #000000; stroke-width: 0.8"/>
      </g>
     </g>
     <g id="text_2">
      <!-- $\mathdefault{2021{-}08}$ -->
      <g transform="translate(94.432817 279.135433)rotate(-90)scale(0.1 -0.1)">
       <defs>
        <path id="URWPalladioL-Roma-38" d="M 1075 2211 
C 813 2090 704 2019 563 1884 
C 320 1641 192 1352 192 1019 
C 192 359 723 -128 1446 -128 
C 2278 -128 2970 526 2970 1320 
C 2970 1833 2733 2109 2003 2442 
C 2586 2840 2790 3109 2790 3493 
C 2790 4044 2336 4416 1658 4416 
C 896 4416 339 3929 339 3257 
C 339 2821 512 2577 1075 2211 
z
M 1818 1891 
C 2221 1711 2464 1397 2464 1052 
C 2464 513 2061 90 1542 90 
C 998 90 646 475 646 1071 
C 646 1538 832 1833 1306 2122 
L 1818 1891 
z
M 1427 2712 
C 1024 2910 819 3167 819 3487 
C 819 3910 1126 4198 1581 4198 
C 2048 4198 2355 3891 2355 3422 
C 2355 3058 2195 2808 1779 2538 
L 1427 2712 
z
" transform="scale(0.015625)"/>
       </defs>
       <use xlink:href="#URWPalladioL-Roma-32" transform="scale(0.996264)"/>
       <use xlink:href="#URWPalladioL-Roma-30" transform="translate(49.8132 0)scale(0.996264)"/>
       <use xlink:href="#URWPalladioL-Roma-32" transform="translate(99.626401 0)scale(0.996264)"/>
       <use xlink:href="#URWPalladioL-Roma-31" transform="translate(149.439601 0)scale(0.996264)"/>
       <use xlink:href="#CMSY10-0" transform="translate(200.498102 0)scale(1.038107)"/>
       <use xlink:href="#URWPalladioL-Roma-30" transform="translate(282.439798 0)scale(0.996264)"/>
       <use xlink:href="#URWPalladioL-Roma-38" transform="translate(332.252998 0)scale(0.996264)"/>
      </g>
     </g>
    </g>
    <g id="xtick_3">
     <g id="line2d_3">
      <g>
       <use xlink:href="#m4127e8ba9c" x="128.767074" y="233.928824" style="stroke: #000000; stroke-width: 0.8"/>
      </g>
     </g>
     <g id="text_3">
      <!-- $\mathdefault{2021{-}09}$ -->
      <g transform="translate(130.926488 279.135433)rotate(-90)scale(0.1 -0.1)">
       <defs>
        <path id="URWPalladioL-Roma-39" d="M 614 -106 
C 1325 125 1632 272 1978 566 
C 2598 1098 2925 1835 2925 2693 
C 2925 3776 2406 4435 1562 4435 
C 742 4435 128 3795 128 2938 
C 128 2201 608 1664 1274 1664 
C 1491 1664 1741 1734 1856 1830 
L 2304 2202 
C 2253 1125 1555 336 397 54 
L 397 3 
L 614 -106 
z
M 1536 4224 
C 1824 4224 2035 4102 2176 3846 
C 2291 3641 2368 3328 2368 3040 
C 2368 2451 2029 2055 1536 2055 
C 1024 2055 678 2509 678 3174 
C 678 3821 1011 4224 1536 4224 
z
" transform="scale(0.015625)"/>
       </defs>
       <use xlink:href="#URWPalladioL-Roma-32" transform="scale(0.996264)"/>
       <use xlink:href="#URWPalladioL-Roma-30" transform="translate(49.8132 0)scale(0.996264)"/>
       <use xlink:href="#URWPalladioL-Roma-32" transform="translate(99.626401 0)scale(0.996264)"/>
       <use xlink:href="#URWPalladioL-Roma-31" transform="translate(149.439601 0)scale(0.996264)"/>
       <use xlink:href="#CMSY10-0" transform="translate(200.498102 0)scale(1.038107)"/>
       <use xlink:href="#URWPalladioL-Roma-30" transform="translate(282.439798 0)scale(0.996264)"/>
       <use xlink:href="#URWPalladioL-Roma-39" transform="translate(332.252998 0)scale(0.996264)"/>
      </g>
     </g>
    </g>
    <g id="xtick_4">
     <g id="line2d_4">
      <g>
       <use xlink:href="#m4127e8ba9c" x="164.08353" y="233.928824" style="stroke: #000000; stroke-width: 0.8"/>
      </g>
     </g>
     <g id="text_4">
      <!-- $\mathdefault{2021{-}10}$ -->
      <g transform="translate(166.242943 279.135433)rotate(-90)scale(0.1 -0.1)">
       <use xlink:href="#URWPalladioL-Roma-32" transform="scale(0.996264)"/>
       <use xlink:href="#URWPalladioL-Roma-30" transform="translate(49.8132 0)scale(0.996264)"/>
       <use xlink:href="#URWPalladioL-Roma-32" transform="translate(99.626401 0)scale(0.996264)"/>
       <use xlink:href="#URWPalladioL-Roma-31" transform="translate(149.439601 0)scale(0.996264)"/>
       <use xlink:href="#CMSY10-0" transform="translate(200.498102 0)scale(1.038107)"/>
       <use xlink:href="#URWPalladioL-Roma-31" transform="translate(282.439798 0)scale(0.996264)"/>
       <use xlink:href="#URWPalladioL-Roma-30" transform="translate(332.252998 0)scale(0.996264)"/>
      </g>
     </g>
    </g>
    <g id="xtick_5">
     <g id="line2d_5">
      <g>
       <use xlink:href="#m4127e8ba9c" x="200.577201" y="233.928824" style="stroke: #000000; stroke-width: 0.8"/>
      </g>
     </g>
     <g id="text_5">
      <!-- $\mathdefault{2021{-}11}$ -->
      <g transform="translate(202.736614 279.135433)rotate(-90)scale(0.1 -0.1)">
       <use xlink:href="#URWPalladioL-Roma-32" transform="scale(0.996264)"/>
       <use xlink:href="#URWPalladioL-Roma-30" transform="translate(49.8132 0)scale(0.996264)"/>
       <use xlink:href="#URWPalladioL-Roma-32" transform="translate(99.626401 0)scale(0.996264)"/>
       <use xlink:href="#URWPalladioL-Roma-31" transform="translate(149.439601 0)scale(0.996264)"/>
       <use xlink:href="#CMSY10-0" transform="translate(200.498102 0)scale(1.038107)"/>
       <use xlink:href="#URWPalladioL-Roma-31" transform="translate(282.439798 0)scale(0.996264)"/>
       <use xlink:href="#URWPalladioL-Roma-31" transform="translate(332.252998 0)scale(0.996264)"/>
      </g>
     </g>
    </g>
    <g id="xtick_6">
     <g id="line2d_6">
      <g>
       <use xlink:href="#m4127e8ba9c" x="235.893657" y="233.928824" style="stroke: #000000; stroke-width: 0.8"/>
      </g>
     </g>
     <g id="text_6">
      <!-- $\mathdefault{2021{-}12}$ -->
      <g transform="translate(238.05307 279.135433)rotate(-90)scale(0.1 -0.1)">
       <use xlink:href="#URWPalladioL-Roma-32" transform="scale(0.996264)"/>
       <use xlink:href="#URWPalladioL-Roma-30" transform="translate(49.8132 0)scale(0.996264)"/>
       <use xlink:href="#URWPalladioL-Roma-32" transform="translate(99.626401 0)scale(0.996264)"/>
       <use xlink:href="#URWPalladioL-Roma-31" transform="translate(149.439601 0)scale(0.996264)"/>
       <use xlink:href="#CMSY10-0" transform="translate(200.498102 0)scale(1.038107)"/>
       <use xlink:href="#URWPalladioL-Roma-31" transform="translate(282.439798 0)scale(0.996264)"/>
       <use xlink:href="#URWPalladioL-Roma-32" transform="translate(332.252998 0)scale(0.996264)"/>
      </g>
     </g>
    </g>
    <g id="xtick_7">
     <g id="line2d_7">
      <g>
       <use xlink:href="#m4127e8ba9c" x="272.387328" y="233.928824" style="stroke: #000000; stroke-width: 0.8"/>
      </g>
     </g>
     <g id="text_7">
      <!-- $\mathdefault{2022{-}01}$ -->
      <g transform="translate(274.546741 279.135433)rotate(-90)scale(0.1 -0.1)">
       <use xlink:href="#URWPalladioL-Roma-32" transform="scale(0.996264)"/>
       <use xlink:href="#URWPalladioL-Roma-30" transform="translate(49.8132 0)scale(0.996264)"/>
       <use xlink:href="#URWPalladioL-Roma-32" transform="translate(99.626401 0)scale(0.996264)"/>
       <use xlink:href="#URWPalladioL-Roma-32" transform="translate(149.439601 0)scale(0.996264)"/>
       <use xlink:href="#CMSY10-0" transform="translate(200.498102 0)scale(1.038107)"/>
       <use xlink:href="#URWPalladioL-Roma-30" transform="translate(282.439798 0)scale(0.996264)"/>
       <use xlink:href="#URWPalladioL-Roma-31" transform="translate(332.252998 0)scale(0.996264)"/>
      </g>
     </g>
    </g>
    <g id="xtick_8">
     <g id="line2d_8">
      <g>
       <use xlink:href="#m4127e8ba9c" x="308.880998" y="233.928824" style="stroke: #000000; stroke-width: 0.8"/>
      </g>
     </g>
     <g id="text_8">
      <!-- $\mathdefault{2022{-}02}$ -->
      <g transform="translate(311.040412 279.135433)rotate(-90)scale(0.1 -0.1)">
       <use xlink:href="#URWPalladioL-Roma-32" transform="scale(0.996264)"/>
       <use xlink:href="#URWPalladioL-Roma-30" transform="translate(49.8132 0)scale(0.996264)"/>
       <use xlink:href="#URWPalladioL-Roma-32" transform="translate(99.626401 0)scale(0.996264)"/>
       <use xlink:href="#URWPalladioL-Roma-32" transform="translate(149.439601 0)scale(0.996264)"/>
       <use xlink:href="#CMSY10-0" transform="translate(200.498102 0)scale(1.038107)"/>
       <use xlink:href="#URWPalladioL-Roma-30" transform="translate(282.439798 0)scale(0.996264)"/>
       <use xlink:href="#URWPalladioL-Roma-32" transform="translate(332.252998 0)scale(0.996264)"/>
      </g>
     </g>
    </g>
   </g>
   <g id="matplotlib.axis_2">
    <g id="ytick_1">
     <g id="line2d_9">
      <defs>
       <path id="m406c7dc041" d="M 0 0 
L -3.5 0 
" style="stroke: #000000; stroke-width: 0.8"/>
      </defs>
      <g>
       <use xlink:href="#m406c7dc041" x="50.482264" y="233.928824" style="stroke: #000000; stroke-width: 0.8"/>
      </g>
     </g>
     <g id="text_9">
      <!-- $\mathdefault{0}$ -->
      <g transform="translate(38.500944 237.492943)scale(0.1 -0.1)">
       <use xlink:href="#URWPalladioL-Roma-30" transform="scale(0.996264)"/>
      </g>
     </g>
    </g>
    <g id="ytick_2">
     <g id="line2d_10">
      <g>
       <use xlink:href="#m406c7dc041" x="50.482264" y="183.033639" style="stroke: #000000; stroke-width: 0.8"/>
      </g>
     </g>
     <g id="text_10">
      <!-- $\mathdefault{1}$ -->
      <g transform="translate(38.500944 186.597758)scale(0.1 -0.1)">
       <use xlink:href="#URWPalladioL-Roma-31" transform="scale(0.996264)"/>
      </g>
     </g>
    </g>
    <g id="ytick_3">
     <g id="line2d_11">
      <g>
       <use xlink:href="#m406c7dc041" x="50.482264" y="132.138455" style="stroke: #000000; stroke-width: 0.8"/>
      </g>
     </g>
     <g id="text_11">
      <!-- $\mathdefault{2}$ -->
      <g transform="translate(38.500944 135.702573)scale(0.1 -0.1)">
       <use xlink:href="#URWPalladioL-Roma-32" transform="scale(0.996264)"/>
      </g>
     </g>
    </g>
    <g id="ytick_4">
     <g id="line2d_12">
      <g>
       <use xlink:href="#m406c7dc041" x="50.482264" y="81.24327" style="stroke: #000000; stroke-width: 0.8"/>
      </g>
     </g>
     <g id="text_12">
      <!-- $\mathdefault{3}$ -->
      <g transform="translate(38.500944 84.807388)scale(0.1 -0.1)">
       <defs>
        <path id="URWPalladioL-Roma-33" d="M 275 3197 
L 474 3197 
L 589 3554 
C 659 3770 1062 3987 1395 3987 
C 1811 3987 2150 3649 2150 3248 
C 2150 2770 1773 2368 1318 2368 
C 1267 2368 1197 2368 1114 2381 
L 1018 2381 
L 941 2047 
L 986 2008 
C 1229 2118 1350 2150 1523 2150 
C 2054 2150 2362 1809 2362 1222 
C 2362 566 1971 135 1376 135 
C 1082 135 819 231 627 411 
C 474 553 390 701 269 1049 
L 96 985 
C 230 593 282 361 320 39 
C 659 -77 941 -128 1178 -128 
C 1690 -128 2278 161 2630 593 
C 2848 857 2957 1140 2957 1442 
C 2957 1751 2829 2022 2598 2182 
C 2438 2298 2291 2350 1971 2407 
C 2483 2803 2675 3096 2675 3472 
C 2675 4040 2202 4416 1491 4416 
C 1056 4416 768 4295 461 3989 
L 275 3197 
z
" transform="scale(0.015625)"/>
       </defs>
       <use xlink:href="#URWPalladioL-Roma-33" transform="scale(0.996264)"/>
      </g>
     </g>
    </g>
    <g id="ytick_5">
     <g id="line2d_13">
      <g>
       <use xlink:href="#m406c7dc041" x="50.482264" y="30.348085" style="stroke: #000000; stroke-width: 0.8"/>
      </g>
     </g>
     <g id="text_13">
      <!-- $\mathdefault{4}$ -->
      <g transform="translate(38.500944 33.912204)scale(0.1 -0.1)">
       <defs>
        <path id="URWPalladioL-Roma-34" d="M 1792 1152 
L 1792 673 
C 1792 289 1722 199 1408 199 
L 1011 199 
L 1011 0 
C 1862 0 1862 0 2016 0 
C 2170 0 2170 0 3021 0 
L 3021 199 
L 2714 199 
C 2400 199 2330 282 2330 669 
L 2330 1152 
C 2707 1152 2842 1152 3021 1133 
L 3021 1588 
C 2720 1563 2598 1563 2502 1563 
L 2483 1563 
L 2330 1563 
L 2330 2457 
C 2330 3600 2342 4152 2374 4416 
L 2298 4448 
L 1824 4275 
L 13 1299 
L 83 1152 
L 1792 1152 
z
M 1792 1563 
L 416 1563 
L 1792 3826 
L 1792 1563 
z
" transform="scale(0.015625)"/>
       </defs>
       <use xlink:href="#URWPalladioL-Roma-34" transform="scale(0.996264)"/>
      </g>
     </g>
    </g>
    <g id="text_14">
     <!-- mortality (WHO) -->
     <g transform="translate(14.328237 161.145555)rotate(-90)scale(0.1 -0.1)">
      <defs>
       <path id="URWPalladioL-Roma-6d" d="M 115 2565 
L 352 2565 
C 608 2565 634 2520 634 2094 
L 634 643 
C 634 237 614 192 397 192 
L 102 192 
L 102 -7 
C 717 -7 736 -7 915 -7 
C 1094 -7 1261 -7 1677 -7 
L 1677 179 
L 1408 205 
C 1190 205 1171 250 1171 654 
L 1171 2014 
C 1171 2302 1594 2616 1978 2616 
C 2323 2616 2560 2287 2560 1798 
L 2560 643 
C 2560 237 2541 192 2323 192 
L 2029 192 
L 2029 -7 
C 2669 -7 2669 -7 2829 -7 
C 2989 -7 2989 -7 3629 -7 
L 3629 192 
L 3334 192 
C 3117 192 3098 237 3098 643 
L 3098 2011 
C 3098 2300 3520 2616 3904 2616 
C 4250 2616 4486 2291 4486 1806 
L 4486 -7 
C 4877 -7 4883 -7 4992 -7 
C 5075 -7 5075 -7 5562 -7 
L 5562 192 
L 5261 192 
C 5043 192 5024 237 5024 643 
L 5024 1970 
C 5024 2608 4653 3008 4064 3008 
C 3840 3008 3654 2950 3539 2847 
L 3053 2412 
C 2848 2834 2586 3008 2144 3008 
C 1907 3008 1728 2950 1613 2847 
L 1171 2437 
L 1171 2982 
L 1114 3008 
C 787 2873 454 2783 115 2745 
L 115 2565 
z
" transform="scale(0.015625)"/>
       <path id="URWPalladioL-Roma-6f" d="M 1786 3008 
C 851 3008 205 2347 205 1392 
C 205 487 774 -128 1600 -128 
C 2586 -128 3290 558 3290 1520 
C 3290 2386 2662 3008 1786 3008 
z
M 1670 2796 
C 2259 2796 2694 2155 2694 1283 
C 2694 545 2368 83 1850 83 
C 1222 83 800 699 800 1610 
C 800 2379 1107 2796 1670 2796 
z
" transform="scale(0.015625)"/>
       <path id="URWPalladioL-Roma-72" d="M 147 2565 
L 384 2565 
C 640 2565 666 2520 666 2094 
L 666 643 
C 666 237 646 192 429 192 
L 134 192 
L 134 -7 
C 595 -7 762 -7 922 -7 
C 1050 -7 1050 -7 1837 -7 
L 1837 192 
L 1504 192 
C 1216 192 1203 211 1203 638 
L 1203 1751 
C 1203 2139 1459 2463 1773 2463 
C 1965 2463 2099 2373 2202 2169 
L 2336 2169 
L 2394 2937 
C 2323 2982 2208 3008 2093 3008 
C 1901 3008 1696 2905 1562 2745 
L 1203 2322 
L 1203 2982 
L 1146 3008 
C 819 2873 486 2783 147 2745 
L 147 2565 
z
" transform="scale(0.015625)"/>
       <path id="URWPalladioL-Roma-74" d="M 627 2476 
L 627 619 
C 627 142 838 -64 1331 -64 
C 1478 -64 1632 -32 1670 13 
L 1978 353 
L 1894 463 
C 1734 372 1638 340 1517 340 
C 1267 340 1165 470 1165 788 
L 1165 2489 
L 1984 2489 
L 2042 2816 
L 1165 2816 
L 1165 3056 
C 1165 3321 1184 3547 1235 3951 
L 1158 4021 
C 1005 3925 813 3842 614 3778 
C 634 3585 640 3463 640 3271 
L 640 2822 
L 141 2598 
L 141 2476 
L 627 2476 
z
" transform="scale(0.015625)"/>
       <path id="URWPalladioL-Roma-61" d="M 2074 538 
L 2042 -1 
C 2458 -1 2458 -1 2541 -1 
C 2573 -1 2733 -1 3014 -1 
L 3014 192 
L 2765 192 
C 2611 192 2586 244 2586 558 
L 2586 1731 
C 2586 2668 2317 3008 1574 3008 
C 1299 3008 1043 2937 800 2791 
L 461 2585 
L 461 2171 
L 627 2126 
L 710 2323 
C 845 2623 909 2668 1203 2668 
C 1805 2668 2054 2431 2074 1852 
L 1440 1736 
C 570 1577 205 1277 205 722 
C 205 224 506 -64 1011 -64 
C 1126 -64 1235 -45 1280 -13 
L 2074 538 
z
M 2074 806 
C 1888 544 1485 302 1235 302 
C 979 302 755 538 755 812 
C 755 1048 883 1271 1075 1392 
C 1235 1488 1587 1577 2074 1648 
L 2074 806 
z
" transform="scale(0.015625)"/>
       <path id="URWPalladioL-Roma-6c" d="M 147 4256 
L 506 4256 
C 621 4256 666 4185 666 3992 
L 666 651 
C 666 244 646 199 429 199 
L 134 199 
L 134 0 
C 774 0 774 0 934 0 
C 1094 0 1094 0 1734 0 
L 1734 199 
L 1440 199 
C 1222 199 1203 244 1203 650 
L 1203 4621 
L 1146 4673 
C 864 4564 653 4512 147 4435 
L 147 4256 
z
" transform="scale(0.015625)"/>
       <path id="URWPalladioL-Roma-69" d="M 1203 2993 
L 1146 3019 
C 819 2884 486 2793 147 2755 
L 147 2576 
L 384 2576 
C 640 2576 666 2531 666 2105 
L 666 651 
C 666 244 646 199 429 199 
L 134 199 
L 134 0 
C 774 0 774 0 934 0 
C 1094 0 1094 0 1734 0 
L 1734 199 
L 1440 199 
C 1222 199 1203 244 1203 651 
L 1203 2993 
z
M 909 4416 
C 717 4416 550 4249 550 4056 
C 550 3870 717 3704 902 3704 
C 1088 3704 1261 3870 1261 4056 
C 1261 4236 1088 4416 909 4416 
z
" transform="scale(0.015625)"/>
       <path id="URWPalladioL-Roma-79" d="M 1901 564 
C 1760 808 1690 956 1574 1270 
L 1165 2347 
C 1126 2456 1101 2552 1101 2618 
C 1101 2710 1171 2764 1318 2764 
L 1562 2764 
L 1562 2944 
C 941 2944 941 2944 819 2944 
C 698 2944 698 2944 77 2944 
L 77 2777 
L 192 2764 
C 352 2745 429 2674 525 2451 
L 1222 775 
C 1402 340 1466 186 1581 -134 
L 1434 -524 
C 1229 -1062 979 -1362 736 -1362 
C 634 -1362 518 -1311 410 -1215 
L 326 -1215 
L 173 -1696 
C 294 -1760 397 -1792 518 -1792 
C 947 -1792 1222 -1562 1466 -1005 
L 2765 1990 
C 3021 2572 3142 2745 3302 2764 
L 3482 2777 
L 3482 2944 
C 2976 2944 2976 2944 2874 2944 
C 2771 2944 2771 2944 2266 2944 
L 2266 2777 
L 2432 2764 
C 2611 2751 2701 2694 2701 2604 
C 2701 2559 2688 2501 2662 2437 
L 1901 564 
z
" transform="scale(0.015625)"/>
       <path id="URWPalladioL-Roma-28" d="M 1926 -1244 
C 1466 -673 1299 -366 1133 212 
C 998 673 934 1161 934 1706 
C 934 2238 998 2693 1120 3110 
C 1286 3642 1459 3944 1926 4489 
L 1805 4656 
C 1139 4059 877 3707 634 3078 
C 467 2648 384 2193 384 1706 
C 384 1020 544 372 851 -205 
C 1075 -635 1280 -885 1805 -1379 
L 1926 -1244 
z
" transform="scale(0.015625)"/>
       <path id="URWPalladioL-Roma-57" d="M 4698 -64 
C 4723 32 4742 122 4749 154 
C 4768 218 4819 411 4870 584 
L 5850 4032 
C 5888 4147 5952 4205 6093 4218 
L 6298 4237 
L 6298 4416 
L 5626 4416 
C 5562 4416 5562 4416 4954 4416 
L 4954 4237 
L 5210 4218 
C 5434 4199 5504 4167 5510 4063 
C 5510 4044 5510 4025 5504 4005 
L 4659 872 
L 3610 3826 
C 3469 4211 3450 4262 3398 4480 
L 3194 4480 
C 3059 4082 2950 3795 2618 2935 
L 1824 917 
L 1184 3795 
C 1165 3872 1158 3942 1158 4006 
C 1158 4147 1222 4205 1395 4218 
L 1664 4237 
L 1664 4416 
L 858 4416 
C 813 4416 544 4416 51 4416 
L 51 4237 
L 230 4218 
C 416 4199 493 4128 550 3897 
L 1312 597 
C 1395 231 1395 225 1459 -64 
L 1779 -64 
C 1837 141 1888 295 2010 597 
L 3123 3429 
L 3923 1256 
C 4134 687 4154 635 4378 -64 
L 4698 -64 
z
" transform="scale(0.015625)"/>
       <path id="URWPalladioL-Roma-48" d="M 3942 773 
C 3942 257 3910 205 3616 205 
L 3309 205 
L 3309 0 
C 3686 0 3910 0 4243 0 
C 4576 0 4806 0 5184 0 
L 5184 205 
L 4877 205 
C 4582 205 4550 256 4550 766 
L 4550 3663 
C 4550 4172 4582 4224 4877 4224 
L 5184 4224 
L 5184 4423 
C 4717 4423 4576 4423 4243 4423 
C 3923 4423 3770 4423 3309 4423 
L 3309 4224 
L 3616 4224 
C 3910 4224 3942 4172 3942 3668 
L 3942 2529 
C 3808 2529 3674 2529 3411 2529 
L 1914 2529 
C 1651 2529 1510 2529 1382 2529 
L 1382 3668 
C 1382 4172 1414 4224 1709 4224 
L 2016 4224 
L 2016 4423 
C 1549 4423 1408 4423 1075 4423 
C 755 4423 602 4423 141 4423 
L 141 4224 
L 448 4224 
C 742 4224 774 4172 774 3663 
L 774 766 
C 774 256 742 205 448 205 
L 141 205 
L 141 0 
C 518 0 742 0 1075 0 
C 1408 0 1638 0 2016 0 
L 2016 205 
L 1709 205 
C 1414 205 1382 257 1382 773 
L 1382 2227 
C 1555 2240 1658 2240 1914 2240 
L 3411 2240 
C 3667 2240 3770 2240 3942 2227 
L 3942 773 
z
" transform="scale(0.015625)"/>
       <path id="URWPalladioL-Roma-4f" d="M 2573 4544 
C 1114 4544 141 3596 141 2186 
C 141 839 1075 -128 2368 -128 
C 3802 -128 4890 942 4890 2351 
C 4890 3698 3994 4544 2573 4544 
z
M 2464 4274 
C 3558 4274 4205 3493 4205 2160 
C 4205 890 3616 141 2624 141 
C 1549 141 826 1051 826 2422 
C 826 3607 1414 4274 2464 4274 
z
" transform="scale(0.015625)"/>
       <path id="URWPalladioL-Roma-29" d="M 326 -1379 
C 768 -962 954 -750 1152 -436 
C 1542 186 1747 930 1747 1699 
C 1747 2193 1664 2648 1498 3078 
C 1254 3700 992 4053 326 4656 
L 205 4489 
C 672 3937 845 3636 1005 3110 
C 1133 2693 1197 2238 1197 1706 
C 1197 1161 1133 673 998 212 
C 832 -366 666 -673 205 -1244 
L 326 -1379 
z
" transform="scale(0.015625)"/>
      </defs>
      <use xlink:href="#URWPalladioL-Roma-6d" transform="scale(0.996264)"/>
      <use xlink:href="#URWPalladioL-Roma-6f" transform="translate(87.969674 0)scale(0.996264)"/>
      <use xlink:href="#URWPalladioL-Roma-72" transform="translate(142.365254 0)scale(0.996264)"/>
      <use xlink:href="#URWPalladioL-Roma-74" transform="translate(181.717151 0)scale(0.996264)"/>
      <use xlink:href="#URWPalladioL-Roma-61" transform="translate(214.194239 0)scale(0.996264)"/>
      <use xlink:href="#URWPalladioL-Roma-6c" transform="translate(264.007439 0)scale(0.996264)"/>
      <use xlink:href="#URWPalladioL-Roma-69" transform="translate(292.997801 0)scale(0.996264)"/>
      <use xlink:href="#URWPalladioL-Roma-74" transform="translate(321.988162 0)scale(0.996264)"/>
      <use xlink:href="#URWPalladioL-Roma-79" transform="translate(354.46525 0)scale(0.996264)"/>
      <use xlink:href="#URWPalladioL-Roma-28" transform="translate(434.763527 0)scale(0.996264)"/>
      <use xlink:href="#URWPalladioL-Roma-57" transform="translate(467.938757 0)scale(0.996264)"/>
      <use xlink:href="#URWPalladioL-Roma-48" transform="translate(567.565158 0)scale(0.996264)"/>
      <use xlink:href="#URWPalladioL-Roma-4f" transform="translate(650.453819 0)scale(0.996264)"/>
      <use xlink:href="#URWPalladioL-Roma-29" transform="translate(728.7601 0)scale(0.996264)"/>
     </g>
     <!-- fatalities over 7 days per 100000 -->
     <g transform="translate(25.691533 193.095468)rotate(-90)scale(0.1 -0.1)">
      <defs>
       <path id="URWPalladioL-Roma-66" d="M 2182 4601 
C 2048 4652 1971 4672 1888 4672 
C 1683 4672 1459 4563 1318 4404 
L 947 3985 
C 762 3775 678 3490 678 3070 
L 678 2803 
L 237 2604 
L 237 2476 
L 678 2476 
L 678 651 
C 678 244 659 199 442 199 
L 147 199 
L 147 0 
C 787 0 787 0 947 0 
C 1107 0 1107 0 1747 0 
L 1747 199 
L 1453 199 
C 1235 199 1216 245 1216 653 
L 1216 2489 
L 2010 2489 
L 2054 2816 
L 1216 2816 
L 1216 3350 
C 1216 4073 1299 4248 1664 4248 
C 1837 4248 1952 4204 2106 4071 
L 2182 4109 
L 2182 4601 
z
" transform="scale(0.015625)"/>
       <path id="URWPalladioL-Roma-65" d="M 2797 447 
L 2714 511 
C 2304 269 2157 212 1882 212 
C 1466 212 1120 398 941 711 
C 819 921 774 1101 762 1472 
L 1696 1472 
C 2138 1472 2413 1472 2854 1544 
C 2861 1634 2867 1693 2867 1771 
C 2867 2520 2394 3008 1677 3008 
C 1440 3008 1165 2924 902 2770 
C 378 2469 166 2071 166 1404 
C 166 1000 262 654 435 410 
C 691 71 1120 -128 1600 -128 
C 1837 -128 2074 -77 2336 37 
C 2509 108 2643 191 2669 230 
L 2797 447 
z
M 2298 1690 
C 1965 1690 1811 1690 1581 1690 
C 1286 1690 1120 1690 774 1722 
C 774 2027 800 2169 883 2337 
C 1018 2622 1293 2796 1600 2796 
C 1811 2796 1978 2711 2093 2534 
C 2234 2319 2278 2129 2298 1690 
z
" transform="scale(0.015625)"/>
       <path id="URWPalladioL-Roma-73" d="M 262 917 
C 262 475 243 282 192 26 
C 525 -83 774 -128 1069 -128 
C 1907 -128 2502 321 2502 949 
C 2502 1148 2445 1295 2323 1424 
C 2157 1584 1946 1661 1382 1770 
C 858 1873 685 2001 685 2296 
C 685 2616 909 2796 1299 2796 
C 1728 2796 2054 2572 2054 2270 
L 2054 2123 
L 2234 2123 
C 2240 2495 2246 2648 2266 2847 
C 1926 2963 1696 3008 1434 3008 
C 691 3008 237 2655 237 2078 
C 237 1770 378 1552 672 1417 
C 845 1340 1184 1238 1619 1141 
C 1907 1077 2029 943 2029 699 
C 2029 353 1709 109 1254 109 
C 787 109 454 333 454 654 
L 454 917 
L 262 917 
z
" transform="scale(0.015625)"/>
       <path id="URWPalladioL-Roma-76" d="M 3450 2752 
L 3450 2932 
C 3066 2932 2950 2932 2848 2932 
C 2746 2932 2630 2932 2246 2932 
L 2246 2752 
L 2509 2752 
C 2611 2752 2662 2694 2662 2591 
C 2662 2489 2618 2317 2541 2124 
L 2272 1445 
C 2195 1259 2118 1080 1875 549 
L 1114 2393 
C 1075 2482 1056 2566 1056 2636 
C 1056 2707 1114 2752 1216 2752 
L 1530 2752 
L 1530 2932 
C 902 2932 902 2932 781 2932 
C 659 2932 352 2932 38 2932 
L 38 2752 
L 256 2752 
C 352 2739 384 2701 454 2541 
L 1555 -32 
L 1875 -32 
C 1914 77 1978 243 1978 256 
C 2048 447 2131 664 2138 664 
L 2893 2324 
C 3034 2625 3123 2739 3251 2752 
L 3450 2752 
z
" transform="scale(0.015625)"/>
       <path id="URWPalladioL-Roma-64" d="M 2637 2802 
C 2278 2956 2099 3008 1875 3008 
C 1702 3008 1549 2969 1389 2887 
L 826 2593 
C 461 2401 224 1935 224 1392 
C 224 881 397 460 710 204 
C 928 19 1229 -64 1645 -64 
C 1773 -64 1920 -38 1952 -13 
L 2662 583 
L 2630 -7 
C 2944 -7 3046 -7 3123 -7 
C 3174 -7 3264 -7 3398 -7 
C 3443 -7 3571 -7 3706 -7 
L 3706 192 
L 3411 192 
C 3194 192 3174 237 3174 643 
L 3174 4607 
L 3117 4659 
C 2835 4550 2624 4498 2118 4421 
L 2118 4242 
L 2477 4242 
C 2592 4242 2637 4171 2637 3978 
L 2637 2802 
z
M 2637 1424 
C 2637 1009 2624 946 2541 799 
C 2362 499 2048 302 1747 302 
C 1184 302 781 844 781 1603 
C 781 2298 1126 2706 1702 2706 
C 1946 2706 2202 2623 2426 2470 
C 2560 2381 2637 2298 2637 2246 
L 2637 1424 
z
" transform="scale(0.015625)"/>
       <path id="URWPalladioL-Roma-70" d="M 64 2565 
L 301 2565 
C 557 2565 582 2520 582 2095 
L 582 -1142 
C 582 -1548 563 -1593 346 -1593 
L 51 -1593 
L 51 -1792 
C 691 -1792 691 -1792 851 -1792 
C 1011 -1792 1011 -1792 1651 -1792 
L 1651 -1593 
L 1357 -1593 
C 1139 -1593 1120 -1547 1120 -1138 
L 1120 89 
C 1312 -26 1517 -71 1805 -71 
C 1990 -71 2157 -32 2259 32 
L 2989 505 
C 3245 672 3546 1330 3546 1740 
C 3546 2451 2957 3008 2214 3008 
C 1978 3008 1747 2943 1645 2847 
L 1120 2367 
L 1120 2982 
L 1062 3008 
C 736 2873 403 2783 64 2745 
L 64 2565 
z
M 1120 1964 
C 1120 2053 1152 2124 1235 2233 
C 1421 2469 1683 2591 2003 2591 
C 2605 2591 2989 2169 2989 1504 
C 2989 787 2560 256 1984 256 
C 1632 256 1370 372 1120 633 
L 1120 1964 
z
" transform="scale(0.015625)"/>
      </defs>
      <use xlink:href="#URWPalladioL-Roma-66" transform="scale(0.996264)"/>
      <use xlink:href="#URWPalladioL-Roma-61" transform="translate(33.17523 0)scale(0.996264)"/>
      <use xlink:href="#URWPalladioL-Roma-74" transform="translate(82.98843 0)scale(0.996264)"/>
      <use xlink:href="#URWPalladioL-Roma-61" transform="translate(115.465518 0)scale(0.996264)"/>
      <use xlink:href="#URWPalladioL-Roma-6c" transform="translate(165.278719 0)scale(0.996264)"/>
      <use xlink:href="#URWPalladioL-Roma-69" transform="translate(194.26908 0)scale(0.996264)"/>
      <use xlink:href="#URWPalladioL-Roma-74" transform="translate(223.259442 0)scale(0.996264)"/>
      <use xlink:href="#URWPalladioL-Roma-69" transform="translate(255.736529 0)scale(0.996264)"/>
      <use xlink:href="#URWPalladioL-Roma-65" transform="translate(284.726891 0)scale(0.996264)"/>
      <use xlink:href="#URWPalladioL-Roma-73" transform="translate(332.447186 0)scale(0.996264)"/>
      <use xlink:href="#URWPalladioL-Roma-6f" transform="translate(399.595253 0)scale(0.996264)"/>
      <use xlink:href="#URWPalladioL-Roma-76" transform="translate(453.990833 0)scale(0.996264)"/>
      <use xlink:href="#URWPalladioL-Roma-65" transform="translate(510.278746 0)scale(0.996264)"/>
      <use xlink:href="#URWPalladioL-Roma-72" transform="translate(557.999041 0)scale(0.996264)"/>
      <use xlink:href="#URWPalladioL-Roma-37" transform="translate(622.257538 0)scale(0.996264)"/>
      <use xlink:href="#URWPalladioL-Roma-64" transform="translate(696.977338 0)scale(0.996264)"/>
      <use xlink:href="#URWPalladioL-Roma-61" transform="translate(757.848969 0)scale(0.996264)"/>
      <use xlink:href="#URWPalladioL-Roma-79" transform="translate(807.66217 0)scale(0.996264)"/>
      <use xlink:href="#URWPalladioL-Roma-73" transform="translate(863.053847 0)scale(0.996264)"/>
      <use xlink:href="#URWPalladioL-Roma-70" transform="translate(930.201913 0)scale(0.996264)"/>
      <use xlink:href="#URWPalladioL-Roma-65" transform="translate(990.076307 0)scale(0.996264)"/>
      <use xlink:href="#URWPalladioL-Roma-72" transform="translate(1037.796602 0)scale(0.996264)"/>
      <use xlink:href="#URWPalladioL-Roma-31" transform="translate(1102.055099 0)scale(0.996264)"/>
      <use xlink:href="#URWPalladioL-Roma-30" transform="translate(1151.868299 0)scale(0.996264)"/>
      <use xlink:href="#URWPalladioL-Roma-30" transform="translate(1201.6815 0)scale(0.996264)"/>
      <use xlink:href="#URWPalladioL-Roma-30" transform="translate(1251.4947 0)scale(0.996264)"/>
      <use xlink:href="#URWPalladioL-Roma-30" transform="translate(1301.307901 0)scale(0.996264)"/>
      <use xlink:href="#URWPalladioL-Roma-30" transform="translate(1351.121101 0)scale(0.996264)"/>
     </g>
    </g>
   </g>
   <g id="line2d_14">
    <path d="M 50.482264 183.033639 
L 329.482264 183.033639 
" clip-path="url(#p1c53eaf87e)" style="fill: none; stroke: #ffff00; stroke-width: 1.5; stroke-linecap: square"/>
   </g>
   <g id="line2d_15">
    <path d="M 50.482264 132.138455 
L 329.482264 132.138455 
" clip-path="url(#p1c53eaf87e)" style="fill: none; stroke: #ffa500; stroke-width: 1.5; stroke-linecap: square"/>
   </g>
   <g id="line2d_16">
    <path clip-path="url(#p1c53eaf87e)" style="fill: none; stroke: #ff0000; stroke-width: 1.5; stroke-linecap: square"/>
   </g>
   <g id="patch_240">
    <path d="M 50.482264 233.928824 
L 50.482264 12.168824 
" style="fill: none; stroke: #000000; stroke-width: 0.8; stroke-linejoin: miter; stroke-linecap: square"/>
   </g>
   <g id="patch_241">
    <path d="M 50.482264 233.928824 
L 329.482264 233.928824 
" style="fill: none; stroke: #000000; stroke-width: 0.8; stroke-linejoin: miter; stroke-linecap: square"/>
   </g>
   <g id="text_15">
    <!-- low incidence of community transmission -->
    <g style="fill: #ffff00" transform="translate(337.852264 185.193053)scale(0.1 -0.1)">
     <defs>
      <path id="URWPalladioL-Roma-77" d="M 2643 3008 
C 2118 1788 2022 1571 1626 677 
L 1088 2444 
C 1069 2502 1062 2553 1062 2604 
C 1062 2700 1146 2752 1306 2752 
L 1562 2752 
L 1562 2932 
C 928 2932 928 2932 800 2932 
C 672 2932 672 2932 38 2932 
L 38 2765 
L 218 2752 
C 397 2739 480 2612 640 2114 
L 1293 -32 
L 1594 -32 
L 2221 1437 
C 2253 1514 2323 1667 2426 1884 
L 2554 2152 
L 3424 -32 
L 3718 -32 
C 3763 102 3814 249 3866 389 
C 3994 767 4134 1162 4160 1201 
L 4595 2196 
C 4787 2625 4864 2733 5005 2752 
L 5171 2765 
L 5171 2932 
C 4646 2932 4646 2932 4544 2932 
C 4442 2932 4442 2932 3917 2932 
L 3917 2752 
L 4134 2752 
C 4294 2752 4384 2675 4384 2559 
C 4384 2489 4371 2412 4339 2329 
L 4019 1433 
C 3968 1292 3917 1163 3712 638 
L 2976 2490 
C 2886 2707 2842 2835 2790 3008 
L 2643 3008 
z
" transform="scale(0.015625)"/>
      <path id="URWPalladioL-Roma-6e" d="M 2624 -7 
C 3014 -7 3021 -7 3130 -7 
C 3219 -7 3219 -7 3661 -7 
L 3661 179 
L 3398 205 
C 3181 205 3162 244 3162 654 
L 3162 1892 
C 3162 2642 2810 3008 2093 3008 
C 1856 3008 1722 2963 1587 2847 
L 1101 2424 
L 1101 2982 
L 1043 3008 
C 717 2873 384 2783 45 2745 
L 45 2565 
L 282 2565 
C 538 2565 563 2520 563 2094 
L 563 643 
C 563 237 544 192 326 192 
L 38 192 
L 38 -7 
C 474 -7 646 -7 832 -7 
C 1018 -7 1190 -7 1626 -7 
L 1626 192 
L 1338 192 
C 1120 192 1101 237 1101 643 
L 1101 2011 
C 1101 2300 1523 2616 1914 2616 
C 2342 2616 2624 2297 2624 1806 
L 2624 -7 
z
" transform="scale(0.015625)"/>
      <path id="URWPalladioL-Roma-63" d="M 2554 1994 
C 2554 2289 2586 2552 2643 2783 
C 2387 2937 2163 3008 1901 3008 
C 1594 3008 1235 2886 851 2642 
C 403 2360 166 1911 166 1347 
C 166 481 774 -128 1632 -128 
C 1965 -128 2445 -6 2509 90 
L 2643 295 
L 2579 391 
C 2342 263 2138 205 1907 205 
C 1197 205 730 757 730 1603 
C 730 2289 1050 2674 1626 2674 
C 1907 2674 2214 2546 2330 2386 
L 2374 1994 
L 2554 1994 
z
" transform="scale(0.015625)"/>
      <path id="URWPalladioL-Roma-75" d="M 3219 3009 
L 3162 3035 
C 2835 2900 2502 2810 2163 2772 
L 2163 2592 
L 2400 2592 
C 2656 2592 2682 2547 2682 2121 
L 2682 1070 
C 2682 928 2592 747 2445 599 
C 2266 418 2061 327 1811 327 
C 1587 327 1408 398 1306 521 
C 1216 624 1171 824 1171 1107 
L 1171 3009 
L 1114 3035 
C 787 2900 454 2810 115 2772 
L 115 2592 
L 352 2592 
C 608 2592 634 2547 634 2122 
L 634 1039 
C 634 587 672 387 787 227 
C 928 33 1171 -64 1536 -64 
C 1824 -64 2080 26 2253 186 
L 2682 585 
C 2682 401 2675 298 2656 0 
C 3085 0 3091 0 3187 0 
C 3277 0 3277 0 3718 0 
L 3718 186 
L 3456 212 
C 3238 212 3219 251 3219 664 
L 3219 3009 
z
" transform="scale(0.015625)"/>
     </defs>
     <use xlink:href="#URWPalladioL-Roma-6c" transform="scale(0.996264)"/>
     <use xlink:href="#URWPalladioL-Roma-6f" transform="translate(28.990361 0)scale(0.996264)"/>
     <use xlink:href="#URWPalladioL-Roma-77" transform="translate(83.385942 0)scale(0.996264)"/>
     <use xlink:href="#URWPalladioL-Roma-69" transform="translate(191.380635 0)scale(0.996264)"/>
     <use xlink:href="#URWPalladioL-Roma-6e" transform="translate(220.370996 0)scale(0.996264)"/>
     <use xlink:href="#URWPalladioL-Roma-63" transform="translate(278.353057 0)scale(0.996264)"/>
     <use xlink:href="#URWPalladioL-Roma-69" transform="translate(322.586626 0)scale(0.996264)"/>
     <use xlink:href="#URWPalladioL-Roma-64" transform="translate(351.576987 0)scale(0.996264)"/>
     <use xlink:href="#URWPalladioL-Roma-65" transform="translate(412.448618 0)scale(0.996264)"/>
     <use xlink:href="#URWPalladioL-Roma-6e" transform="translate(460.168913 0)scale(0.996264)"/>
     <use xlink:href="#URWPalladioL-Roma-63" transform="translate(518.150974 0)scale(0.996264)"/>
     <use xlink:href="#URWPalladioL-Roma-65" transform="translate(562.384542 0)scale(0.996264)"/>
     <use xlink:href="#URWPalladioL-Roma-6f" transform="translate(635.011438 0)scale(0.996264)"/>
     <use xlink:href="#URWPalladioL-Roma-66" transform="translate(689.407018 0)scale(0.996264)"/>
     <use xlink:href="#URWPalladioL-Roma-63" transform="translate(747.488848 0)scale(0.996264)"/>
     <use xlink:href="#URWPalladioL-Roma-6f" transform="translate(791.722417 0)scale(0.996264)"/>
     <use xlink:href="#URWPalladioL-Roma-6d" transform="translate(846.117997 0)scale(0.996264)"/>
     <use xlink:href="#URWPalladioL-Roma-6d" transform="translate(934.087671 0)scale(0.996264)"/>
     <use xlink:href="#URWPalladioL-Roma-75" transform="translate(1022.057345 0)scale(0.996264)"/>
     <use xlink:href="#URWPalladioL-Roma-6e" transform="translate(1082.13108 0)scale(0.996264)"/>
     <use xlink:href="#URWPalladioL-Roma-69" transform="translate(1140.113141 0)scale(0.996264)"/>
     <use xlink:href="#URWPalladioL-Roma-74" transform="translate(1169.103502 0)scale(0.996264)"/>
     <use xlink:href="#URWPalladioL-Roma-79" transform="translate(1201.58059 0)scale(0.996264)"/>
     <use xlink:href="#URWPalladioL-Roma-74" transform="translate(1281.878867 0)scale(0.996264)"/>
     <use xlink:href="#URWPalladioL-Roma-72" transform="translate(1314.355955 0)scale(0.996264)"/>
     <use xlink:href="#URWPalladioL-Roma-61" transform="translate(1353.707852 0)scale(0.996264)"/>
     <use xlink:href="#URWPalladioL-Roma-6e" transform="translate(1403.521052 0)scale(0.996264)"/>
     <use xlink:href="#URWPalladioL-Roma-73" transform="translate(1461.503113 0)scale(0.996264)"/>
     <use xlink:href="#URWPalladioL-Roma-6d" transform="translate(1503.744579 0)scale(0.996264)"/>
     <use xlink:href="#URWPalladioL-Roma-69" transform="translate(1591.714253 0)scale(0.996264)"/>
     <use xlink:href="#URWPalladioL-Roma-73" transform="translate(1620.704615 0)scale(0.996264)"/>
     <use xlink:href="#URWPalladioL-Roma-73" transform="translate(1662.946081 0)scale(0.996264)"/>
     <use xlink:href="#URWPalladioL-Roma-69" transform="translate(1705.187547 0)scale(0.996264)"/>
     <use xlink:href="#URWPalladioL-Roma-6f" transform="translate(1734.177909 0)scale(0.996264)"/>
     <use xlink:href="#URWPalladioL-Roma-6e" transform="translate(1788.573489 0)scale(0.996264)"/>
    </g>
   </g>
   <g id="text_16">
    <!-- moderate incidence of community transmission -->
    <g style="fill: #ffa500" transform="translate(337.852264 134.297868)scale(0.1 -0.1)">
     <use xlink:href="#URWPalladioL-Roma-6d" transform="scale(0.996264)"/>
     <use xlink:href="#URWPalladioL-Roma-6f" transform="translate(87.969674 0)scale(0.996264)"/>
     <use xlink:href="#URWPalladioL-Roma-64" transform="translate(142.365254 0)scale(0.996264)"/>
     <use xlink:href="#URWPalladioL-Roma-65" transform="translate(203.236885 0)scale(0.996264)"/>
     <use xlink:href="#URWPalladioL-Roma-72" transform="translate(250.95718 0)scale(0.996264)"/>
     <use xlink:href="#URWPalladioL-Roma-61" transform="translate(290.309077 0)scale(0.996264)"/>
     <use xlink:href="#URWPalladioL-Roma-74" transform="translate(340.122277 0)scale(0.996264)"/>
     <use xlink:href="#URWPalladioL-Roma-65" transform="translate(372.599365 0)scale(0.996264)"/>
     <use xlink:href="#URWPalladioL-Roma-69" transform="translate(445.22626 0)scale(0.996264)"/>
     <use xlink:href="#URWPalladioL-Roma-6e" transform="translate(474.216622 0)scale(0.996264)"/>
     <use xlink:href="#URWPalladioL-Roma-63" transform="translate(532.198682 0)scale(0.996264)"/>
     <use xlink:href="#URWPalladioL-Roma-69" transform="translate(576.432251 0)scale(0.996264)"/>
     <use xlink:href="#URWPalladioL-Roma-64" transform="translate(605.422613 0)scale(0.996264)"/>
     <use xlink:href="#URWPalladioL-Roma-65" transform="translate(666.294243 0)scale(0.996264)"/>
     <use xlink:href="#URWPalladioL-Roma-6e" transform="translate(714.014538 0)scale(0.996264)"/>
     <use xlink:href="#URWPalladioL-Roma-63" transform="translate(771.996599 0)scale(0.996264)"/>
     <use xlink:href="#URWPalladioL-Roma-65" transform="translate(816.230168 0)scale(0.996264)"/>
     <use xlink:href="#URWPalladioL-Roma-6f" transform="translate(888.857063 0)scale(0.996264)"/>
     <use xlink:href="#URWPalladioL-Roma-66" transform="translate(943.252643 0)scale(0.996264)"/>
     <use xlink:href="#URWPalladioL-Roma-63" transform="translate(1001.334473 0)scale(0.996264)"/>
     <use xlink:href="#URWPalladioL-Roma-6f" transform="translate(1045.568042 0)scale(0.996264)"/>
     <use xlink:href="#URWPalladioL-Roma-6d" transform="translate(1099.963622 0)scale(0.996264)"/>
     <use xlink:href="#URWPalladioL-Roma-6d" transform="translate(1187.933296 0)scale(0.996264)"/>
     <use xlink:href="#URWPalladioL-Roma-75" transform="translate(1275.902971 0)scale(0.996264)"/>
     <use xlink:href="#URWPalladioL-Roma-6e" transform="translate(1335.976705 0)scale(0.996264)"/>
     <use xlink:href="#URWPalladioL-Roma-69" transform="translate(1393.958766 0)scale(0.996264)"/>
     <use xlink:href="#URWPalladioL-Roma-74" transform="translate(1422.949128 0)scale(0.996264)"/>
     <use xlink:href="#URWPalladioL-Roma-79" transform="translate(1455.426215 0)scale(0.996264)"/>
     <use xlink:href="#URWPalladioL-Roma-74" transform="translate(1535.724493 0)scale(0.996264)"/>
     <use xlink:href="#URWPalladioL-Roma-72" transform="translate(1568.20158 0)scale(0.996264)"/>
     <use xlink:href="#URWPalladioL-Roma-61" transform="translate(1607.553477 0)scale(0.996264)"/>
     <use xlink:href="#URWPalladioL-Roma-6e" transform="translate(1657.366677 0)scale(0.996264)"/>
     <use xlink:href="#URWPalladioL-Roma-73" transform="translate(1715.348738 0)scale(0.996264)"/>
     <use xlink:href="#URWPalladioL-Roma-6d" transform="translate(1757.590204 0)scale(0.996264)"/>
     <use xlink:href="#URWPalladioL-Roma-69" transform="translate(1845.559879 0)scale(0.996264)"/>
     <use xlink:href="#URWPalladioL-Roma-73" transform="translate(1874.55024 0)scale(0.996264)"/>
     <use xlink:href="#URWPalladioL-Roma-73" transform="translate(1916.791706 0)scale(0.996264)"/>
     <use xlink:href="#URWPalladioL-Roma-69" transform="translate(1959.033173 0)scale(0.996264)"/>
     <use xlink:href="#URWPalladioL-Roma-6f" transform="translate(1988.023534 0)scale(0.996264)"/>
     <use xlink:href="#URWPalladioL-Roma-6e" transform="translate(2042.419114 0)scale(0.996264)"/>
    </g>
   </g>
   <g id="text_17">
    <!-- high incidence of community transmission -->
    <g style="fill: #ff0000" transform="translate(337.852264 14.328237)scale(0.1 -0.1)">
     <defs>
      <path id="URWPalladioL-Roma-68" d="M 45 4248 
L 403 4248 
C 518 4248 563 4177 563 3984 
L 563 643 
C 563 237 544 192 326 192 
L 38 192 
L 38 -7 
C 474 -7 646 -7 832 -7 
C 1018 -7 1190 -7 1626 -7 
L 1626 192 
L 1338 192 
C 1120 192 1101 237 1101 643 
L 1101 2011 
C 1101 2300 1523 2616 1914 2616 
C 2342 2616 2624 2297 2624 1806 
L 2624 -7 
C 3014 -7 3021 -7 3130 -7 
C 3219 -7 3219 -7 3661 -7 
L 3661 179 
L 3398 205 
C 3181 205 3162 244 3162 654 
L 3162 1892 
C 3162 2642 2810 3008 2093 3008 
C 1856 3008 1722 2963 1587 2847 
L 1101 2424 
L 1101 4613 
L 1043 4665 
C 762 4556 550 4504 45 4427 
L 45 4248 
z
" transform="scale(0.015625)"/>
      <path id="URWPalladioL-Roma-67" d="M 3322 2432 
L 3482 2695 
L 3456 2759 
L 2547 2759 
C 2310 2937 2080 3008 1766 3008 
C 1485 3008 1158 2920 896 2768 
C 538 2567 352 2258 352 1874 
C 352 1408 646 1087 1120 1036 
L 614 640 
C 550 543 518 459 518 361 
C 518 180 634 76 941 -14 
L 384 -316 
C 294 -367 205 -604 205 -803 
C 205 -1388 774 -1792 1587 -1792 
C 2554 -1792 3315 -1182 3315 -399 
C 3315 63 3008 384 2560 384 
L 1536 384 
C 1203 384 1050 462 1050 639 
C 1050 724 1101 795 1267 939 
C 1306 972 1318 985 1344 1011 
C 1408 1004 1446 998 1498 998 
C 1773 998 2112 1118 2374 1300 
C 2662 1507 2803 1759 2803 2093 
C 2803 2218 2784 2300 2733 2432 
L 3322 2432 
z
M 1536 2790 
C 1971 2790 2266 2438 2266 1905 
C 2266 1499 1997 1216 1606 1216 
C 1178 1216 890 1542 890 2025 
C 890 2507 1126 2790 1536 2790 
z
M 1837 -65 
C 2560 -65 2810 -212 2810 -630 
C 2810 -1182 2304 -1593 1632 -1593 
C 1075 -1593 691 -1266 691 -790 
C 691 -502 858 -238 1114 -129 
C 1216 -78 1395 -65 1837 -65 
z
" transform="scale(0.015625)"/>
     </defs>
     <use xlink:href="#URWPalladioL-Roma-68" transform="scale(0.996264)"/>
     <use xlink:href="#URWPalladioL-Roma-69" transform="translate(57.982061 0)scale(0.996264)"/>
     <use xlink:href="#URWPalladioL-Roma-67" transform="translate(86.972422 0)scale(0.996264)"/>
     <use xlink:href="#URWPalladioL-Roma-68" transform="translate(142.364099 0)scale(0.996264)"/>
     <use xlink:href="#URWPalladioL-Roma-69" transform="translate(225.25276 0)scale(0.996264)"/>
     <use xlink:href="#URWPalladioL-Roma-6e" transform="translate(254.243121 0)scale(0.996264)"/>
     <use xlink:href="#URWPalladioL-Roma-63" transform="translate(312.225182 0)scale(0.996264)"/>
     <use xlink:href="#URWPalladioL-Roma-69" transform="translate(356.458751 0)scale(0.996264)"/>
     <use xlink:href="#URWPalladioL-Roma-64" transform="translate(385.449112 0)scale(0.996264)"/>
     <use xlink:href="#URWPalladioL-Roma-65" transform="translate(446.320743 0)scale(0.996264)"/>
     <use xlink:href="#URWPalladioL-Roma-6e" transform="translate(494.041038 0)scale(0.996264)"/>
     <use xlink:href="#URWPalladioL-Roma-63" transform="translate(552.023099 0)scale(0.996264)"/>
     <use xlink:href="#URWPalladioL-Roma-65" transform="translate(596.256668 0)scale(0.996264)"/>
     <use xlink:href="#URWPalladioL-Roma-6f" transform="translate(668.883563 0)scale(0.996264)"/>
     <use xlink:href="#URWPalladioL-Roma-66" transform="translate(723.279143 0)scale(0.996264)"/>
     <use xlink:href="#URWPalladioL-Roma-63" transform="translate(781.360973 0)scale(0.996264)"/>
     <use xlink:href="#URWPalladioL-Roma-6f" transform="translate(825.594542 0)scale(0.996264)"/>
     <use xlink:href="#URWPalladioL-Roma-6d" transform="translate(879.990122 0)scale(0.996264)"/>
     <use xlink:href="#URWPalladioL-Roma-6d" transform="translate(967.959796 0)scale(0.996264)"/>
     <use xlink:href="#URWPalladioL-Roma-75" transform="translate(1055.92947 0)scale(0.996264)"/>
     <use xlink:href="#URWPalladioL-Roma-6e" transform="translate(1116.003205 0)scale(0.996264)"/>
     <use xlink:href="#URWPalladioL-Roma-69" transform="translate(1173.985266 0)scale(0.996264)"/>
     <use xlink:href="#URWPalladioL-Roma-74" transform="translate(1202.975627 0)scale(0.996264)"/>
     <use xlink:href="#URWPalladioL-Roma-79" transform="translate(1235.452715 0)scale(0.996264)"/>
     <use xlink:href="#URWPalladioL-Roma-74" transform="translate(1315.750992 0)scale(0.996264)"/>
     <use xlink:href="#URWPalladioL-Roma-72" transform="translate(1348.22808 0)scale(0.996264)"/>
     <use xlink:href="#URWPalladioL-Roma-61" transform="translate(1387.579977 0)scale(0.996264)"/>
     <use xlink:href="#URWPalladioL-Roma-6e" transform="translate(1437.393177 0)scale(0.996264)"/>
     <use xlink:href="#URWPalladioL-Roma-73" transform="translate(1495.375238 0)scale(0.996264)"/>
     <use xlink:href="#URWPalladioL-Roma-6d" transform="translate(1537.616704 0)scale(0.996264)"/>
     <use xlink:href="#URWPalladioL-Roma-69" transform="translate(1625.586378 0)scale(0.996264)"/>
     <use xlink:href="#URWPalladioL-Roma-73" transform="translate(1654.57674 0)scale(0.996264)"/>
     <use xlink:href="#URWPalladioL-Roma-73" transform="translate(1696.818206 0)scale(0.996264)"/>
     <use xlink:href="#URWPalladioL-Roma-69" transform="translate(1739.059672 0)scale(0.996264)"/>
     <use xlink:href="#URWPalladioL-Roma-6f" transform="translate(1768.050034 0)scale(0.996264)"/>
     <use xlink:href="#URWPalladioL-Roma-6e" transform="translate(1822.445614 0)scale(0.996264)"/>
    </g>
   </g>
  </g>
 </g>
 <defs>
  <clipPath id="p1c53eaf87e">
   <rect x="50.482264" y="12.168824" width="279" height="221.76"/>
  </clipPath>
 </defs>
</svg>
