<?xml version="1.0" encoding="utf-8" standalone="no"?>
<!DOCTYPE svg PUBLIC "-//W3C//DTD SVG 1.1//EN"
  "http://www.w3.org/Graphics/SVG/1.1/DTD/svg11.dtd">
<svg xmlns:xlink="http://www.w3.org/1999/xlink" width="562.564125pt" height="291.335433pt" viewBox="0 0 562.564125 291.335433" xmlns="http://www.w3.org/2000/svg" version="1.1">
 <metadata>
  <rdf:RDF xmlns:dc="http://purl.org/dc/elements/1.1/" xmlns:cc="http://creativecommons.org/ns#" xmlns:rdf="http://www.w3.org/1999/02/22-rdf-syntax-ns#">
   <cc:Work>
    <dc:type rdf:resource="http://purl.org/dc/dcmitype/StillImage"/>
    <dc:format>image/svg+xml</dc:format>
    <dc:creator>
     <cc:Agent>
      <dc:title>Matplotlib v3.5.0, https://matplotlib.org/</dc:title>
     </cc:Agent>
    </dc:creator>
   </cc:Work>
  </rdf:RDF>
 </metadata>
 <defs>
  <style type="text/css">*{stroke-linejoin: round; stroke-linecap: butt}</style>
 </defs>
 <g id="figure_1">
  <g id="patch_1">
   <path d="M 0 291.335433 
L 562.564125 291.335433 
L 562.564125 0 
L 0 0 
z
" style="fill: #ffffff"/>
  </g>
  <g id="axes_1">
   <g id="patch_2">
    <path d="M 57.954244 238.928824 
L 336.954244 238.928824 
L 336.954244 17.168824 
L 57.954244 17.168824 
z
" style="fill: #ffffff"/>
   </g>
   <g id="patch_3">
    <path d="M 58.112767 238.928824 
L 59.380949 238.928824 
L 59.380949 189.375046 
L 58.112767 189.375046 
z
" clip-path="url(#pdfaa9067fa)" style="fill: #1f77b4"/>
   </g>
   <g id="patch_4">
    <path d="M 59.697994 238.928824 
L 60.966176 238.928824 
L 60.966176 181.709269 
L 59.697994 181.709269 
z
" clip-path="url(#pdfaa9067fa)" style="fill: #1f77b4"/>
   </g>
   <g id="patch_5">
    <path d="M 61.283222 238.928824 
L 62.551403 238.928824 
L 62.551403 178.697713 
L 61.283222 178.697713 
z
" clip-path="url(#pdfaa9067fa)" style="fill: #1f77b4"/>
   </g>
   <g id="patch_6">
    <path d="M 62.868449 238.928824 
L 64.136631 238.928824 
L 64.136631 175.41238 
L 62.868449 175.41238 
z
" clip-path="url(#pdfaa9067fa)" style="fill: #1f77b4"/>
   </g>
   <g id="patch_7">
    <path d="M 64.453676 238.928824 
L 65.721858 238.928824 
L 65.721858 177.328824 
L 64.453676 177.328824 
z
" clip-path="url(#pdfaa9067fa)" style="fill: #1f77b4"/>
   </g>
   <g id="patch_8">
    <path d="M 66.038903 238.928824 
L 67.307085 238.928824 
L 67.307085 184.994602 
L 66.038903 184.994602 
z
" clip-path="url(#pdfaa9067fa)" style="fill: #1f77b4"/>
   </g>
   <g id="patch_9">
    <path d="M 67.624131 238.928824 
L 68.892313 238.928824 
L 68.892313 189.922602 
L 67.624131 189.922602 
z
" clip-path="url(#pdfaa9067fa)" style="fill: #1f77b4"/>
   </g>
   <g id="patch_10">
    <path d="M 69.209358 238.928824 
L 70.47754 238.928824 
L 70.47754 190.470158 
L 69.209358 190.470158 
z
" clip-path="url(#pdfaa9067fa)" style="fill: #1f77b4"/>
   </g>
   <g id="patch_11">
    <path d="M 70.794585 238.928824 
L 72.062767 238.928824 
L 72.062767 189.648824 
L 70.794585 189.648824 
z
" clip-path="url(#pdfaa9067fa)" style="fill: #1f77b4"/>
   </g>
   <g id="patch_12">
    <path d="M 72.379813 238.928824 
L 73.647994 238.928824 
L 73.647994 194.576824 
L 72.379813 194.576824 
z
" clip-path="url(#pdfaa9067fa)" style="fill: #1f77b4"/>
   </g>
   <g id="patch_13">
    <path d="M 73.96504 238.928824 
L 75.233222 238.928824 
L 75.233222 197.314602 
L 73.96504 197.314602 
z
" clip-path="url(#pdfaa9067fa)" style="fill: #1f77b4"/>
   </g>
   <g id="patch_14">
    <path d="M 75.550267 238.928824 
L 76.818449 238.928824 
L 76.818449 199.504824 
L 75.550267 199.504824 
z
" clip-path="url(#pdfaa9067fa)" style="fill: #1f77b4"/>
   </g>
   <g id="patch_15">
    <path d="M 77.135494 238.928824 
L 78.403676 238.928824 
L 78.403676 200.326158 
L 77.135494 200.326158 
z
" clip-path="url(#pdfaa9067fa)" style="fill: #1f77b4"/>
   </g>
   <g id="patch_16">
    <path d="M 78.720722 238.928824 
L 79.988903 238.928824 
L 79.988903 203.063935 
L 78.720722 203.063935 
z
" clip-path="url(#pdfaa9067fa)" style="fill: #1f77b4"/>
   </g>
   <g id="patch_17">
    <path d="M 80.305949 238.928824 
L 81.574131 238.928824 
L 81.574131 204.432824 
L 80.305949 204.432824 
z
" clip-path="url(#pdfaa9067fa)" style="fill: #1f77b4"/>
   </g>
   <g id="patch_18">
    <path d="M 81.891176 238.928824 
L 83.159358 238.928824 
L 83.159358 209.360824 
L 81.891176 209.360824 
z
" clip-path="url(#pdfaa9067fa)" style="fill: #1f77b4"/>
   </g>
   <g id="patch_19">
    <path d="M 83.476403 238.928824 
L 84.744585 238.928824 
L 84.744585 210.455935 
L 83.476403 210.455935 
z
" clip-path="url(#pdfaa9067fa)" style="fill: #1f77b4"/>
   </g>
   <g id="patch_20">
    <path d="M 85.061631 238.928824 
L 86.329813 238.928824 
L 86.329813 207.991935 
L 85.061631 207.991935 
z
" clip-path="url(#pdfaa9067fa)" style="fill: #1f77b4"/>
   </g>
   <g id="patch_21">
    <path d="M 86.646858 238.928824 
L 87.91504 238.928824 
L 87.91504 209.087046 
L 86.646858 209.087046 
z
" clip-path="url(#pdfaa9067fa)" style="fill: #1f77b4"/>
   </g>
   <g id="patch_22">
    <path d="M 88.232085 238.928824 
L 89.500267 238.928824 
L 89.500267 212.919935 
L 88.232085 212.919935 
z
" clip-path="url(#pdfaa9067fa)" style="fill: #1f77b4"/>
   </g>
   <g id="patch_23">
    <path d="M 89.817313 238.928824 
L 91.085494 238.928824 
L 91.085494 212.646158 
L 89.817313 212.646158 
z
" clip-path="url(#pdfaa9067fa)" style="fill: #1f77b4"/>
   </g>
   <g id="patch_24">
    <path d="M 91.40254 238.928824 
L 92.670722 238.928824 
L 92.670722 213.741269 
L 91.40254 213.741269 
z
" clip-path="url(#pdfaa9067fa)" style="fill: #1f77b4"/>
   </g>
   <g id="patch_25">
    <path d="M 92.987767 238.928824 
L 94.255949 238.928824 
L 94.255949 215.383935 
L 92.987767 215.383935 
z
" clip-path="url(#pdfaa9067fa)" style="fill: #1f77b4"/>
   </g>
   <g id="patch_26">
    <path d="M 94.572994 238.928824 
L 95.841176 238.928824 
L 95.841176 218.121713 
L 94.572994 218.121713 
z
" clip-path="url(#pdfaa9067fa)" style="fill: #1f77b4"/>
   </g>
   <g id="patch_27">
    <path d="M 96.158222 238.928824 
L 97.426403 238.928824 
L 97.426403 218.669269 
L 96.158222 218.669269 
z
" clip-path="url(#pdfaa9067fa)" style="fill: #1f77b4"/>
   </g>
   <g id="patch_28">
    <path d="M 97.743449 238.928824 
L 99.011631 238.928824 
L 99.011631 217.026602 
L 97.743449 217.026602 
z
" clip-path="url(#pdfaa9067fa)" style="fill: #1f77b4"/>
   </g>
   <g id="patch_29">
    <path d="M 99.328676 238.928824 
L 100.596858 238.928824 
L 100.596858 215.383935 
L 99.328676 215.383935 
z
" clip-path="url(#pdfaa9067fa)" style="fill: #1f77b4"/>
   </g>
   <g id="patch_30">
    <path d="M 100.913903 238.928824 
L 102.182085 238.928824 
L 102.182085 217.574158 
L 100.913903 217.574158 
z
" clip-path="url(#pdfaa9067fa)" style="fill: #1f77b4"/>
   </g>
   <g id="patch_31">
    <path d="M 102.499131 238.928824 
L 103.767313 238.928824 
L 103.767313 216.479046 
L 102.499131 216.479046 
z
" clip-path="url(#pdfaa9067fa)" style="fill: #1f77b4"/>
   </g>
   <g id="patch_32">
    <path d="M 104.084358 238.928824 
L 105.35254 238.928824 
L 105.35254 212.37238 
L 104.084358 212.37238 
z
" clip-path="url(#pdfaa9067fa)" style="fill: #1f77b4"/>
   </g>
   <g id="patch_33">
    <path d="M 105.669585 238.928824 
L 106.937767 238.928824 
L 106.937767 208.539491 
L 105.669585 208.539491 
z
" clip-path="url(#pdfaa9067fa)" style="fill: #1f77b4"/>
   </g>
   <g id="patch_34">
    <path d="M 107.254813 238.928824 
L 108.522994 238.928824 
L 108.522994 210.182158 
L 107.254813 210.182158 
z
" clip-path="url(#pdfaa9067fa)" style="fill: #1f77b4"/>
   </g>
   <g id="patch_35">
    <path d="M 108.84004 238.928824 
L 110.108222 238.928824 
L 110.108222 209.087046 
L 108.84004 209.087046 
z
" clip-path="url(#pdfaa9067fa)" style="fill: #1f77b4"/>
   </g>
   <g id="patch_36">
    <path d="M 110.425267 238.928824 
L 111.693449 238.928824 
L 111.693449 208.813269 
L 110.425267 208.813269 
z
" clip-path="url(#pdfaa9067fa)" style="fill: #1f77b4"/>
   </g>
   <g id="patch_37">
    <path d="M 112.010494 238.928824 
L 113.278676 238.928824 
L 113.278676 205.801713 
L 112.010494 205.801713 
z
" clip-path="url(#pdfaa9067fa)" style="fill: #1f77b4"/>
   </g>
   <g id="patch_38">
    <path d="M 113.595722 238.928824 
L 114.863903 238.928824 
L 114.863903 207.170602 
L 113.595722 207.170602 
z
" clip-path="url(#pdfaa9067fa)" style="fill: #1f77b4"/>
   </g>
   <g id="patch_39">
    <path d="M 115.180949 238.928824 
L 116.449131 238.928824 
L 116.449131 206.896824 
L 115.180949 206.896824 
z
" clip-path="url(#pdfaa9067fa)" style="fill: #1f77b4"/>
   </g>
   <g id="patch_40">
    <path d="M 116.766176 238.928824 
L 118.034358 238.928824 
L 118.034358 206.075491 
L 116.766176 206.075491 
z
" clip-path="url(#pdfaa9067fa)" style="fill: #1f77b4"/>
   </g>
   <g id="patch_41">
    <path d="M 118.351403 238.928824 
L 119.619585 238.928824 
L 119.619585 204.432824 
L 118.351403 204.432824 
z
" clip-path="url(#pdfaa9067fa)" style="fill: #1f77b4"/>
   </g>
   <g id="patch_42">
    <path d="M 119.936631 238.928824 
L 121.204813 238.928824 
L 121.204813 202.242602 
L 119.936631 202.242602 
z
" clip-path="url(#pdfaa9067fa)" style="fill: #1f77b4"/>
   </g>
   <g id="patch_43">
    <path d="M 121.521858 238.928824 
L 122.79004 238.928824 
L 122.79004 200.599935 
L 121.521858 200.599935 
z
" clip-path="url(#pdfaa9067fa)" style="fill: #1f77b4"/>
   </g>
   <g id="patch_44">
    <path d="M 123.107085 238.928824 
L 124.375267 238.928824 
L 124.375267 198.957269 
L 123.107085 198.957269 
z
" clip-path="url(#pdfaa9067fa)" style="fill: #1f77b4"/>
   </g>
   <g id="patch_45">
    <path d="M 124.692313 238.928824 
L 125.960494 238.928824 
L 125.960494 196.493269 
L 124.692313 196.493269 
z
" clip-path="url(#pdfaa9067fa)" style="fill: #1f77b4"/>
   </g>
   <g id="patch_46">
    <path d="M 126.27754 238.928824 
L 127.545722 238.928824 
L 127.545722 196.767046 
L 126.27754 196.767046 
z
" clip-path="url(#pdfaa9067fa)" style="fill: #1f77b4"/>
   </g>
   <g id="patch_47">
    <path d="M 127.862767 238.928824 
L 129.130949 238.928824 
L 129.130949 195.671935 
L 127.862767 195.671935 
z
" clip-path="url(#pdfaa9067fa)" style="fill: #1f77b4"/>
   </g>
   <g id="patch_48">
    <path d="M 129.447994 238.928824 
L 130.716176 238.928824 
L 130.716176 192.934158 
L 129.447994 192.934158 
z
" clip-path="url(#pdfaa9067fa)" style="fill: #1f77b4"/>
   </g>
   <g id="patch_49">
    <path d="M 131.033222 238.928824 
L 132.301403 238.928824 
L 132.301403 192.112824 
L 131.033222 192.112824 
z
" clip-path="url(#pdfaa9067fa)" style="fill: #1f77b4"/>
   </g>
   <g id="patch_50">
    <path d="M 132.618449 238.928824 
L 133.886631 238.928824 
L 133.886631 186.363491 
L 132.618449 186.363491 
z
" clip-path="url(#pdfaa9067fa)" style="fill: #1f77b4"/>
   </g>
   <g id="patch_51">
    <path d="M 134.203676 238.928824 
L 135.471858 238.928824 
L 135.471858 183.078158 
L 134.203676 183.078158 
z
" clip-path="url(#pdfaa9067fa)" style="fill: #1f77b4"/>
   </g>
   <g id="patch_52">
    <path d="M 135.788903 238.928824 
L 137.057085 238.928824 
L 137.057085 180.887935 
L 135.788903 180.887935 
z
" clip-path="url(#pdfaa9067fa)" style="fill: #1f77b4"/>
   </g>
   <g id="patch_53">
    <path d="M 137.374131 238.928824 
L 138.642313 238.928824 
L 138.642313 180.34038 
L 137.374131 180.34038 
z
" clip-path="url(#pdfaa9067fa)" style="fill: #1f77b4"/>
   </g>
   <g id="patch_54">
    <path d="M 138.959358 238.928824 
L 140.22754 238.928824 
L 140.22754 174.043491 
L 138.959358 174.043491 
z
" clip-path="url(#pdfaa9067fa)" style="fill: #1f77b4"/>
   </g>
   <g id="patch_55">
    <path d="M 140.544585 238.928824 
L 141.812767 238.928824 
L 141.812767 163.639935 
L 140.544585 163.639935 
z
" clip-path="url(#pdfaa9067fa)" style="fill: #1f77b4"/>
   </g>
   <g id="patch_56">
    <path d="M 142.129813 238.928824 
L 143.397994 238.928824 
L 143.397994 156.795491 
L 142.129813 156.795491 
z
" clip-path="url(#pdfaa9067fa)" style="fill: #1f77b4"/>
   </g>
   <g id="patch_57">
    <path d="M 143.71504 238.928824 
L 144.983222 238.928824 
L 144.983222 155.70038 
L 143.71504 155.70038 
z
" clip-path="url(#pdfaa9067fa)" style="fill: #1f77b4"/>
   </g>
   <g id="patch_58">
    <path d="M 145.300267 238.928824 
L 146.568449 238.928824 
L 146.568449 152.688824 
L 145.300267 152.688824 
z
" clip-path="url(#pdfaa9067fa)" style="fill: #1f77b4"/>
   </g>
   <g id="patch_59">
    <path d="M 146.885494 238.928824 
L 148.153676 238.928824 
L 148.153676 151.593713 
L 146.885494 151.593713 
z
" clip-path="url(#pdfaa9067fa)" style="fill: #1f77b4"/>
   </g>
   <g id="patch_60">
    <path d="M 148.470722 238.928824 
L 149.738903 238.928824 
L 149.738903 146.118158 
L 148.470722 146.118158 
z
" clip-path="url(#pdfaa9067fa)" style="fill: #1f77b4"/>
   </g>
   <g id="patch_61">
    <path d="M 150.055949 238.928824 
L 151.324131 238.928824 
L 151.324131 144.475491 
L 150.055949 144.475491 
z
" clip-path="url(#pdfaa9067fa)" style="fill: #1f77b4"/>
   </g>
   <g id="patch_62">
    <path d="M 151.641176 238.928824 
L 152.909358 238.928824 
L 152.909358 147.213269 
L 151.641176 147.213269 
z
" clip-path="url(#pdfaa9067fa)" style="fill: #1f77b4"/>
   </g>
   <g id="patch_63">
    <path d="M 153.226403 238.928824 
L 154.494585 238.928824 
L 154.494585 150.498602 
L 153.226403 150.498602 
z
" clip-path="url(#pdfaa9067fa)" style="fill: #1f77b4"/>
   </g>
   <g id="patch_64">
    <path d="M 154.811631 238.928824 
L 156.079813 238.928824 
L 156.079813 151.593713 
L 154.811631 151.593713 
z
" clip-path="url(#pdfaa9067fa)" style="fill: #1f77b4"/>
   </g>
   <g id="patch_65">
    <path d="M 156.396858 238.928824 
L 157.66504 238.928824 
L 157.66504 149.129713 
L 156.396858 149.129713 
z
" clip-path="url(#pdfaa9067fa)" style="fill: #1f77b4"/>
   </g>
   <g id="patch_66">
    <path d="M 157.982085 238.928824 
L 159.250267 238.928824 
L 159.250267 145.296824 
L 157.982085 145.296824 
z
" clip-path="url(#pdfaa9067fa)" style="fill: #1f77b4"/>
   </g>
   <g id="patch_67">
    <path d="M 159.567313 238.928824 
L 160.835494 238.928824 
L 160.835494 142.832824 
L 159.567313 142.832824 
z
" clip-path="url(#pdfaa9067fa)" style="fill: #1f77b4"/>
   </g>
   <g id="patch_68">
    <path d="M 161.15254 238.928824 
L 162.420722 238.928824 
L 162.420722 138.726158 
L 161.15254 138.726158 
z
" clip-path="url(#pdfaa9067fa)" style="fill: #1f77b4"/>
   </g>
   <g id="patch_69">
    <path d="M 162.737767 238.928824 
L 164.005949 238.928824 
L 164.005949 135.98838 
L 162.737767 135.98838 
z
" clip-path="url(#pdfaa9067fa)" style="fill: #1f77b4"/>
   </g>
   <g id="patch_70">
    <path d="M 164.322994 238.928824 
L 165.591176 238.928824 
L 165.591176 130.786602 
L 164.322994 130.786602 
z
" clip-path="url(#pdfaa9067fa)" style="fill: #1f77b4"/>
   </g>
   <g id="patch_71">
    <path d="M 165.908222 238.928824 
L 167.176403 238.928824 
L 167.176403 127.227491 
L 165.908222 127.227491 
z
" clip-path="url(#pdfaa9067fa)" style="fill: #1f77b4"/>
   </g>
   <g id="patch_72">
    <path d="M 167.493449 238.928824 
L 168.761631 238.928824 
L 168.761631 126.679935 
L 167.493449 126.679935 
z
" clip-path="url(#pdfaa9067fa)" style="fill: #1f77b4"/>
   </g>
   <g id="patch_73">
    <path d="M 169.078676 238.928824 
L 170.346858 238.928824 
L 170.346858 123.394602 
L 169.078676 123.394602 
z
" clip-path="url(#pdfaa9067fa)" style="fill: #1f77b4"/>
   </g>
   <g id="patch_74">
    <path d="M 170.663903 238.928824 
L 171.932085 238.928824 
L 171.932085 123.66838 
L 170.663903 123.66838 
z
" clip-path="url(#pdfaa9067fa)" style="fill: #1f77b4"/>
   </g>
   <g id="patch_75">
    <path d="M 172.249131 238.928824 
L 173.517313 238.928824 
L 173.517313 124.763491 
L 172.249131 124.763491 
z
" clip-path="url(#pdfaa9067fa)" style="fill: #1f77b4"/>
   </g>
   <g id="patch_76">
    <path d="M 173.834358 238.928824 
L 175.10254 238.928824 
L 175.10254 124.763491 
L 173.834358 124.763491 
z
" clip-path="url(#pdfaa9067fa)" style="fill: #1f77b4"/>
   </g>
   <g id="patch_77">
    <path d="M 175.419585 238.928824 
L 176.687767 238.928824 
L 176.687767 125.584824 
L 175.419585 125.584824 
z
" clip-path="url(#pdfaa9067fa)" style="fill: #1f77b4"/>
   </g>
   <g id="patch_78">
    <path d="M 177.004813 238.928824 
L 178.272994 238.928824 
L 178.272994 124.489713 
L 177.004813 124.489713 
z
" clip-path="url(#pdfaa9067fa)" style="fill: #1f77b4"/>
   </g>
   <g id="patch_79">
    <path d="M 178.59004 238.928824 
L 179.858222 238.928824 
L 179.858222 124.215935 
L 178.59004 124.215935 
z
" clip-path="url(#pdfaa9067fa)" style="fill: #1f77b4"/>
   </g>
   <g id="patch_80">
    <path d="M 180.175267 238.928824 
L 181.443449 238.928824 
L 181.443449 128.322602 
L 180.175267 128.322602 
z
" clip-path="url(#pdfaa9067fa)" style="fill: #1f77b4"/>
   </g>
   <g id="patch_81">
    <path d="M 181.760494 238.928824 
L 183.028676 238.928824 
L 183.028676 132.703046 
L 181.760494 132.703046 
z
" clip-path="url(#pdfaa9067fa)" style="fill: #1f77b4"/>
   </g>
   <g id="patch_82">
    <path d="M 183.345722 238.928824 
L 184.613903 238.928824 
L 184.613903 132.429269 
L 183.345722 132.429269 
z
" clip-path="url(#pdfaa9067fa)" style="fill: #1f77b4"/>
   </g>
   <g id="patch_83">
    <path d="M 184.930949 238.928824 
L 186.199131 238.928824 
L 186.199131 131.334158 
L 184.930949 131.334158 
z
" clip-path="url(#pdfaa9067fa)" style="fill: #1f77b4"/>
   </g>
   <g id="patch_84">
    <path d="M 186.516176 238.928824 
L 187.784358 238.928824 
L 187.784358 129.143935 
L 186.516176 129.143935 
z
" clip-path="url(#pdfaa9067fa)" style="fill: #1f77b4"/>
   </g>
   <g id="patch_85">
    <path d="M 188.101403 238.928824 
L 189.369585 238.928824 
L 189.369585 128.048824 
L 188.101403 128.048824 
z
" clip-path="url(#pdfaa9067fa)" style="fill: #1f77b4"/>
   </g>
   <g id="patch_86">
    <path d="M 189.686631 238.928824 
L 190.954813 238.928824 
L 190.954813 129.691491 
L 189.686631 129.691491 
z
" clip-path="url(#pdfaa9067fa)" style="fill: #1f77b4"/>
   </g>
   <g id="patch_87">
    <path d="M 191.271858 238.928824 
L 192.54004 238.928824 
L 192.54004 131.881713 
L 191.271858 131.881713 
z
" clip-path="url(#pdfaa9067fa)" style="fill: #1f77b4"/>
   </g>
   <g id="patch_88">
    <path d="M 192.857085 238.928824 
L 194.125267 238.928824 
L 194.125267 129.691491 
L 192.857085 129.691491 
z
" clip-path="url(#pdfaa9067fa)" style="fill: #1f77b4"/>
   </g>
   <g id="patch_89">
    <path d="M 194.442313 238.928824 
L 195.710494 238.928824 
L 195.710494 131.06038 
L 194.442313 131.06038 
z
" clip-path="url(#pdfaa9067fa)" style="fill: #1f77b4"/>
   </g>
   <g id="patch_90">
    <path d="M 196.02754 238.928824 
L 197.295722 238.928824 
L 197.295722 132.703046 
L 196.02754 132.703046 
z
" clip-path="url(#pdfaa9067fa)" style="fill: #1f77b4"/>
   </g>
   <g id="patch_91">
    <path d="M 197.612767 238.928824 
L 198.880949 238.928824 
L 198.880949 133.798158 
L 197.612767 133.798158 
z
" clip-path="url(#pdfaa9067fa)" style="fill: #1f77b4"/>
   </g>
   <g id="patch_92">
    <path d="M 199.197994 238.928824 
L 200.466176 238.928824 
L 200.466176 137.631046 
L 199.197994 137.631046 
z
" clip-path="url(#pdfaa9067fa)" style="fill: #1f77b4"/>
   </g>
   <g id="patch_93">
    <path d="M 200.783222 238.928824 
L 202.051403 238.928824 
L 202.051403 137.904824 
L 200.783222 137.904824 
z
" clip-path="url(#pdfaa9067fa)" style="fill: #1f77b4"/>
   </g>
   <g id="patch_94">
    <path d="M 202.368449 238.928824 
L 203.636631 238.928824 
L 203.636631 132.976824 
L 202.368449 132.976824 
z
" clip-path="url(#pdfaa9067fa)" style="fill: #1f77b4"/>
   </g>
   <g id="patch_95">
    <path d="M 203.953676 238.928824 
L 205.221858 238.928824 
L 205.221858 132.703046 
L 203.953676 132.703046 
z
" clip-path="url(#pdfaa9067fa)" style="fill: #1f77b4"/>
   </g>
   <g id="patch_96">
    <path d="M 205.538903 238.928824 
L 206.807085 238.928824 
L 206.807085 133.250602 
L 205.538903 133.250602 
z
" clip-path="url(#pdfaa9067fa)" style="fill: #1f77b4"/>
   </g>
   <g id="patch_97">
    <path d="M 207.124131 238.928824 
L 208.392313 238.928824 
L 208.392313 134.345713 
L 207.124131 134.345713 
z
" clip-path="url(#pdfaa9067fa)" style="fill: #1f77b4"/>
   </g>
   <g id="patch_98">
    <path d="M 208.709358 238.928824 
L 209.97754 238.928824 
L 209.97754 137.631046 
L 208.709358 137.631046 
z
" clip-path="url(#pdfaa9067fa)" style="fill: #1f77b4"/>
   </g>
   <g id="patch_99">
    <path d="M 210.294585 238.928824 
L 211.562767 238.928824 
L 211.562767 137.631046 
L 210.294585 137.631046 
z
" clip-path="url(#pdfaa9067fa)" style="fill: #1f77b4"/>
   </g>
   <g id="patch_100">
    <path d="M 211.879813 238.928824 
L 213.147994 238.928824 
L 213.147994 144.475491 
L 211.879813 144.475491 
z
" clip-path="url(#pdfaa9067fa)" style="fill: #1f77b4"/>
   </g>
   <g id="patch_101">
    <path d="M 213.46504 238.928824 
L 214.733222 238.928824 
L 214.733222 147.487046 
L 213.46504 147.487046 
z
" clip-path="url(#pdfaa9067fa)" style="fill: #1f77b4"/>
   </g>
   <g id="patch_102">
    <path d="M 215.050267 238.928824 
L 216.318449 238.928824 
L 216.318449 149.677269 
L 215.050267 149.677269 
z
" clip-path="url(#pdfaa9067fa)" style="fill: #1f77b4"/>
   </g>
   <g id="patch_103">
    <path d="M 216.635494 238.928824 
L 217.903676 238.928824 
L 217.903676 153.783935 
L 216.635494 153.783935 
z
" clip-path="url(#pdfaa9067fa)" style="fill: #1f77b4"/>
   </g>
   <g id="patch_104">
    <path d="M 218.220722 238.928824 
L 219.488903 238.928824 
L 219.488903 160.354602 
L 218.220722 160.354602 
z
" clip-path="url(#pdfaa9067fa)" style="fill: #1f77b4"/>
   </g>
   <g id="patch_105">
    <path d="M 219.805949 238.928824 
L 221.074131 238.928824 
L 221.074131 163.09238 
L 219.805949 163.09238 
z
" clip-path="url(#pdfaa9067fa)" style="fill: #1f77b4"/>
   </g>
   <g id="patch_106">
    <path d="M 221.391176 238.928824 
L 222.659358 238.928824 
L 222.659358 169.115491 
L 221.391176 169.115491 
z
" clip-path="url(#pdfaa9067fa)" style="fill: #1f77b4"/>
   </g>
   <g id="patch_107">
    <path d="M 222.976403 238.928824 
L 224.244585 238.928824 
L 224.244585 163.366158 
L 222.976403 163.366158 
z
" clip-path="url(#pdfaa9067fa)" style="fill: #1f77b4"/>
   </g>
   <g id="patch_108">
    <path d="M 224.561631 238.928824 
L 225.829813 238.928824 
L 225.829813 165.008824 
L 224.561631 165.008824 
z
" clip-path="url(#pdfaa9067fa)" style="fill: #1f77b4"/>
   </g>
   <g id="patch_109">
    <path d="M 226.146858 238.928824 
L 227.41504 238.928824 
L 227.41504 165.830158 
L 226.146858 165.830158 
z
" clip-path="url(#pdfaa9067fa)" style="fill: #1f77b4"/>
   </g>
   <g id="patch_110">
    <path d="M 227.732085 238.928824 
L 229.000267 238.928824 
L 229.000267 166.103935 
L 227.732085 166.103935 
z
" clip-path="url(#pdfaa9067fa)" style="fill: #1f77b4"/>
   </g>
   <g id="patch_111">
    <path d="M 229.317313 238.928824 
L 230.585494 238.928824 
L 230.585494 166.651491 
L 229.317313 166.651491 
z
" clip-path="url(#pdfaa9067fa)" style="fill: #1f77b4"/>
   </g>
   <g id="patch_112">
    <path d="M 230.90254 238.928824 
L 232.170722 238.928824 
L 232.170722 166.925269 
L 230.90254 166.925269 
z
" clip-path="url(#pdfaa9067fa)" style="fill: #1f77b4"/>
   </g>
   <g id="patch_113">
    <path d="M 232.487767 238.928824 
L 233.755949 238.928824 
L 233.755949 163.639935 
L 232.487767 163.639935 
z
" clip-path="url(#pdfaa9067fa)" style="fill: #1f77b4"/>
   </g>
   <g id="patch_114">
    <path d="M 234.072994 238.928824 
L 235.341176 238.928824 
L 235.341176 172.400824 
L 234.072994 172.400824 
z
" clip-path="url(#pdfaa9067fa)" style="fill: #1f77b4"/>
   </g>
   <g id="patch_115">
    <path d="M 235.658222 238.928824 
L 236.926403 238.928824 
L 236.926403 173.222158 
L 235.658222 173.222158 
z
" clip-path="url(#pdfaa9067fa)" style="fill: #1f77b4"/>
   </g>
   <g id="patch_116">
    <path d="M 237.243449 238.928824 
L 238.511631 238.928824 
L 238.511631 170.48438 
L 237.243449 170.48438 
z
" clip-path="url(#pdfaa9067fa)" style="fill: #1f77b4"/>
   </g>
   <g id="patch_117">
    <path d="M 238.828676 238.928824 
L 240.096858 238.928824 
L 240.096858 164.735046 
L 238.828676 164.735046 
z
" clip-path="url(#pdfaa9067fa)" style="fill: #1f77b4"/>
   </g>
   <g id="patch_118">
    <path d="M 240.413903 238.928824 
L 241.682085 238.928824 
L 241.682085 165.830158 
L 240.413903 165.830158 
z
" clip-path="url(#pdfaa9067fa)" style="fill: #1f77b4"/>
   </g>
   <g id="patch_119">
    <path d="M 241.999131 238.928824 
L 243.267313 238.928824 
L 243.267313 166.925269 
L 241.999131 166.925269 
z
" clip-path="url(#pdfaa9067fa)" style="fill: #1f77b4"/>
   </g>
   <g id="patch_120">
    <path d="M 243.584358 238.928824 
L 244.85254 238.928824 
L 244.85254 167.746602 
L 243.584358 167.746602 
z
" clip-path="url(#pdfaa9067fa)" style="fill: #1f77b4"/>
   </g>
   <g id="patch_121">
    <path d="M 245.169585 238.928824 
L 246.437767 238.928824 
L 246.437767 160.902158 
L 245.169585 160.902158 
z
" clip-path="url(#pdfaa9067fa)" style="fill: #1f77b4"/>
   </g>
   <g id="patch_122">
    <path d="M 246.754813 238.928824 
L 248.022994 238.928824 
L 248.022994 160.902158 
L 246.754813 160.902158 
z
" clip-path="url(#pdfaa9067fa)" style="fill: #1f77b4"/>
   </g>
   <g id="patch_123">
    <path d="M 248.34004 238.928824 
L 249.608222 238.928824 
L 249.608222 164.735046 
L 248.34004 164.735046 
z
" clip-path="url(#pdfaa9067fa)" style="fill: #1f77b4"/>
   </g>
   <g id="patch_124">
    <path d="M 249.925267 238.928824 
L 251.193449 238.928824 
L 251.193449 170.758158 
L 249.925267 170.758158 
z
" clip-path="url(#pdfaa9067fa)" style="fill: #1f77b4"/>
   </g>
   <g id="patch_125">
    <path d="M 251.510494 238.928824 
L 252.778676 238.928824 
L 252.778676 166.103935 
L 251.510494 166.103935 
z
" clip-path="url(#pdfaa9067fa)" style="fill: #1f77b4"/>
   </g>
   <g id="patch_126">
    <path d="M 253.095722 238.928824 
L 254.363903 238.928824 
L 254.363903 162.271046 
L 253.095722 162.271046 
z
" clip-path="url(#pdfaa9067fa)" style="fill: #1f77b4"/>
   </g>
   <g id="patch_127">
    <path d="M 254.680949 238.928824 
L 255.949131 238.928824 
L 255.949131 163.913713 
L 254.680949 163.913713 
z
" clip-path="url(#pdfaa9067fa)" style="fill: #1f77b4"/>
   </g>
   <g id="patch_128">
    <path d="M 256.266176 238.928824 
L 257.534358 238.928824 
L 257.534358 164.461269 
L 256.266176 164.461269 
z
" clip-path="url(#pdfaa9067fa)" style="fill: #1f77b4"/>
   </g>
   <g id="patch_129">
    <path d="M 257.851403 238.928824 
L 259.119585 238.928824 
L 259.119585 163.913713 
L 257.851403 163.913713 
z
" clip-path="url(#pdfaa9067fa)" style="fill: #1f77b4"/>
   </g>
   <g id="patch_130">
    <path d="M 259.436631 238.928824 
L 260.704813 238.928824 
L 260.704813 166.651491 
L 259.436631 166.651491 
z
" clip-path="url(#pdfaa9067fa)" style="fill: #1f77b4"/>
   </g>
   <g id="patch_131">
    <path d="M 261.021858 238.928824 
L 262.29004 238.928824 
L 262.29004 168.567935 
L 261.021858 168.567935 
z
" clip-path="url(#pdfaa9067fa)" style="fill: #1f77b4"/>
   </g>
   <g id="patch_132">
    <path d="M 262.607085 238.928824 
L 263.875267 238.928824 
L 263.875267 165.008824 
L 262.607085 165.008824 
z
" clip-path="url(#pdfaa9067fa)" style="fill: #1f77b4"/>
   </g>
   <g id="patch_133">
    <path d="M 264.192313 238.928824 
L 265.460494 238.928824 
L 265.460494 162.544824 
L 264.192313 162.544824 
z
" clip-path="url(#pdfaa9067fa)" style="fill: #1f77b4"/>
   </g>
   <g id="patch_134">
    <path d="M 265.77754 238.928824 
L 267.045722 238.928824 
L 267.045722 157.616824 
L 265.77754 157.616824 
z
" clip-path="url(#pdfaa9067fa)" style="fill: #1f77b4"/>
   </g>
   <g id="patch_135">
    <path d="M 267.362767 238.928824 
L 268.630949 238.928824 
L 268.630949 159.259491 
L 267.362767 159.259491 
z
" clip-path="url(#pdfaa9067fa)" style="fill: #1f77b4"/>
   </g>
   <g id="patch_136">
    <path d="M 268.947994 238.928824 
L 270.216176 238.928824 
L 270.216176 160.902158 
L 268.947994 160.902158 
z
" clip-path="url(#pdfaa9067fa)" style="fill: #1f77b4"/>
   </g>
   <g id="patch_137">
    <path d="M 270.533222 238.928824 
L 271.801403 238.928824 
L 271.801403 155.974158 
L 270.533222 155.974158 
z
" clip-path="url(#pdfaa9067fa)" style="fill: #1f77b4"/>
   </g>
   <g id="patch_138">
    <path d="M 272.118449 238.928824 
L 273.386631 238.928824 
L 273.386631 148.582158 
L 272.118449 148.582158 
z
" clip-path="url(#pdfaa9067fa)" style="fill: #1f77b4"/>
   </g>
   <g id="patch_139">
    <path d="M 273.703676 238.928824 
L 274.971858 238.928824 
L 274.971858 149.403491 
L 273.703676 149.403491 
z
" clip-path="url(#pdfaa9067fa)" style="fill: #1f77b4"/>
   </g>
   <g id="patch_140">
    <path d="M 275.288903 238.928824 
L 276.557085 238.928824 
L 276.557085 147.213269 
L 275.288903 147.213269 
z
" clip-path="url(#pdfaa9067fa)" style="fill: #1f77b4"/>
   </g>
   <g id="patch_141">
    <path d="M 276.874131 238.928824 
L 278.142313 238.928824 
L 278.142313 142.559046 
L 276.874131 142.559046 
z
" clip-path="url(#pdfaa9067fa)" style="fill: #1f77b4"/>
   </g>
   <g id="patch_142">
    <path d="M 278.459358 238.928824 
L 279.72754 238.928824 
L 279.72754 136.535935 
L 278.459358 136.535935 
z
" clip-path="url(#pdfaa9067fa)" style="fill: #1f77b4"/>
   </g>
   <g id="patch_143">
    <path d="M 280.044585 238.928824 
L 281.312767 238.928824 
L 281.312767 132.155491 
L 280.044585 132.155491 
z
" clip-path="url(#pdfaa9067fa)" style="fill: #1f77b4"/>
   </g>
   <g id="patch_144">
    <path d="M 281.629813 238.928824 
L 282.897994 238.928824 
L 282.897994 130.512824 
L 281.629813 130.512824 
z
" clip-path="url(#pdfaa9067fa)" style="fill: #1f77b4"/>
   </g>
   <g id="patch_145">
    <path d="M 283.21504 238.928824 
L 284.483222 238.928824 
L 284.483222 128.870158 
L 283.21504 128.870158 
z
" clip-path="url(#pdfaa9067fa)" style="fill: #1f77b4"/>
   </g>
   <g id="patch_146">
    <path d="M 284.800267 238.928824 
L 286.068449 238.928824 
L 286.068449 125.584824 
L 284.800267 125.584824 
z
" clip-path="url(#pdfaa9067fa)" style="fill: #1f77b4"/>
   </g>
   <g id="patch_147">
    <path d="M 286.385494 238.928824 
L 287.653676 238.928824 
L 287.653676 125.037269 
L 286.385494 125.037269 
z
" clip-path="url(#pdfaa9067fa)" style="fill: #1f77b4"/>
   </g>
   <g id="patch_148">
    <path d="M 287.970722 238.928824 
L 289.238903 238.928824 
L 289.238903 130.512824 
L 287.970722 130.512824 
z
" clip-path="url(#pdfaa9067fa)" style="fill: #1f77b4"/>
   </g>
   <g id="patch_149">
    <path d="M 289.555949 238.928824 
L 290.824131 238.928824 
L 290.824131 131.607935 
L 289.555949 131.607935 
z
" clip-path="url(#pdfaa9067fa)" style="fill: #1f77b4"/>
   </g>
   <g id="patch_150">
    <path d="M 291.141176 238.928824 
L 292.409358 238.928824 
L 292.409358 128.870158 
L 291.141176 128.870158 
z
" clip-path="url(#pdfaa9067fa)" style="fill: #1f77b4"/>
   </g>
   <g id="patch_151">
    <path d="M 292.726403 238.928824 
L 293.994585 238.928824 
L 293.994585 121.751935 
L 292.726403 121.751935 
z
" clip-path="url(#pdfaa9067fa)" style="fill: #1f77b4"/>
   </g>
   <g id="patch_152">
    <path d="M 294.311631 238.928824 
L 295.579813 238.928824 
L 295.579813 119.287935 
L 294.311631 119.287935 
z
" clip-path="url(#pdfaa9067fa)" style="fill: #1f77b4"/>
   </g>
   <g id="patch_153">
    <path d="M 295.896858 238.928824 
L 297.16504 238.928824 
L 297.16504 115.728824 
L 295.896858 115.728824 
z
" clip-path="url(#pdfaa9067fa)" style="fill: #1f77b4"/>
   </g>
   <g id="patch_154">
    <path d="M 297.482085 238.928824 
L 298.750267 238.928824 
L 298.750267 115.181269 
L 297.482085 115.181269 
z
" clip-path="url(#pdfaa9067fa)" style="fill: #1f77b4"/>
   </g>
   <g id="patch_155">
    <path d="M 299.067313 238.928824 
L 300.335494 238.928824 
L 300.335494 114.359935 
L 299.067313 114.359935 
z
" clip-path="url(#pdfaa9067fa)" style="fill: #1f77b4"/>
   </g>
   <g id="patch_156">
    <path d="M 300.65254 238.928824 
L 301.920722 238.928824 
L 301.920722 103.135046 
L 300.65254 103.135046 
z
" clip-path="url(#pdfaa9067fa)" style="fill: #1f77b4"/>
   </g>
   <g id="patch_157">
    <path d="M 302.237767 238.928824 
L 303.505949 238.928824 
L 303.505949 102.861269 
L 302.237767 102.861269 
z
" clip-path="url(#pdfaa9067fa)" style="fill: #1f77b4"/>
   </g>
   <g id="patch_158">
    <path d="M 303.822994 238.928824 
L 305.091176 238.928824 
L 305.091176 104.230158 
L 303.822994 104.230158 
z
" clip-path="url(#pdfaa9067fa)" style="fill: #1f77b4"/>
   </g>
   <g id="patch_159">
    <path d="M 305.408222 238.928824 
L 306.676403 238.928824 
L 306.676403 102.587491 
L 305.408222 102.587491 
z
" clip-path="url(#pdfaa9067fa)" style="fill: #1f77b4"/>
   </g>
   <g id="patch_160">
    <path d="M 306.993449 238.928824 
L 308.261631 238.928824 
L 308.261631 97.659491 
L 306.993449 97.659491 
z
" clip-path="url(#pdfaa9067fa)" style="fill: #1f77b4"/>
   </g>
   <g id="patch_161">
    <path d="M 308.578676 238.928824 
L 309.846858 238.928824 
L 309.846858 97.385713 
L 308.578676 97.385713 
z
" clip-path="url(#pdfaa9067fa)" style="fill: #1f77b4"/>
   </g>
   <g id="patch_162">
    <path d="M 310.163903 238.928824 
L 311.432085 238.928824 
L 311.432085 91.088824 
L 310.163903 91.088824 
z
" clip-path="url(#pdfaa9067fa)" style="fill: #1f77b4"/>
   </g>
   <g id="patch_163">
    <path d="M 311.749131 238.928824 
L 313.017313 238.928824 
L 313.017313 95.195491 
L 311.749131 95.195491 
z
" clip-path="url(#pdfaa9067fa)" style="fill: #1f77b4"/>
   </g>
   <g id="patch_164">
    <path d="M 313.334358 238.928824 
L 314.60254 238.928824 
L 314.60254 96.290602 
L 313.334358 96.290602 
z
" clip-path="url(#pdfaa9067fa)" style="fill: #1f77b4"/>
   </g>
   <g id="patch_165">
    <path d="M 314.919585 238.928824 
L 316.187767 238.928824 
L 316.187767 88.898602 
L 314.919585 88.898602 
z
" clip-path="url(#pdfaa9067fa)" style="fill: #1f77b4"/>
   </g>
   <g id="patch_166">
    <path d="M 316.504813 238.928824 
L 317.772994 238.928824 
L 317.772994 86.160824 
L 316.504813 86.160824 
z
" clip-path="url(#pdfaa9067fa)" style="fill: #1f77b4"/>
   </g>
   <g id="patch_167">
    <path d="M 318.09004 238.928824 
L 319.358222 238.928824 
L 319.358222 90.815046 
L 318.09004 90.815046 
z
" clip-path="url(#pdfaa9067fa)" style="fill: #1f77b4"/>
   </g>
   <g id="patch_168">
    <path d="M 319.675267 238.928824 
L 320.943449 238.928824 
L 320.943449 88.898602 
L 319.675267 88.898602 
z
" clip-path="url(#pdfaa9067fa)" style="fill: #1f77b4"/>
   </g>
   <g id="patch_169">
    <path d="M 321.260494 238.928824 
L 322.528676 238.928824 
L 322.528676 76.85238 
L 321.260494 76.85238 
z
" clip-path="url(#pdfaa9067fa)" style="fill: #1f77b4"/>
   </g>
   <g id="patch_170">
    <path d="M 322.845722 238.928824 
L 324.113903 238.928824 
L 324.113903 71.103046 
L 322.845722 71.103046 
z
" clip-path="url(#pdfaa9067fa)" style="fill: #1f77b4"/>
   </g>
   <g id="patch_171">
    <path d="M 324.430949 238.928824 
L 325.699131 238.928824 
L 325.699131 64.806158 
L 324.430949 64.806158 
z
" clip-path="url(#pdfaa9067fa)" style="fill: #1f77b4"/>
   </g>
   <g id="patch_172">
    <path d="M 326.016176 238.928824 
L 327.284358 238.928824 
L 327.284358 63.163491 
L 326.016176 63.163491 
z
" clip-path="url(#pdfaa9067fa)" style="fill: #1f77b4"/>
   </g>
   <g id="patch_173">
    <path d="M 327.601403 238.928824 
L 328.869585 238.928824 
L 328.869585 57.414158 
L 327.601403 57.414158 
z
" clip-path="url(#pdfaa9067fa)" style="fill: #1f77b4"/>
   </g>
   <g id="patch_174">
    <path d="M 329.186631 238.928824 
L 330.454813 238.928824 
L 330.454813 45.641713 
L 329.186631 45.641713 
z
" clip-path="url(#pdfaa9067fa)" style="fill: #1f77b4"/>
   </g>
   <g id="patch_175">
    <path d="M 330.771858 238.928824 
L 332.04004 238.928824 
L 332.04004 33.595491 
L 330.771858 33.595491 
z
" clip-path="url(#pdfaa9067fa)" style="fill: #1f77b4"/>
   </g>
   <g id="patch_176">
    <path d="M 332.357085 238.928824 
L 333.625267 238.928824 
L 333.625267 33.047935 
L 332.357085 33.047935 
z
" clip-path="url(#pdfaa9067fa)" style="fill: #1f77b4"/>
   </g>
   <g id="patch_177">
    <path d="M 333.942313 238.928824 
L 335.210494 238.928824 
L 335.210494 25.655935 
L 333.942313 25.655935 
z
" clip-path="url(#pdfaa9067fa)" style="fill: #1f77b4"/>
   </g>
   <g id="patch_178">
    <path d="M 335.52754 238.928824 
L 336.795722 238.928824 
L 336.795722 17.168824 
L 335.52754 17.168824 
z
" clip-path="url(#pdfaa9067fa)" style="fill: #1f77b4"/>
   </g>
   <g id="matplotlib.axis_1">
    <g id="xtick_1">
     <g id="line2d_1">
      <defs>
       <path id="m255937b040" d="M 0 0 
L 0 3.5 
" style="stroke: #000000; stroke-width: 0.8"/>
      </defs>
      <g>
       <use xlink:href="#m255937b040" x="65.087767" y="238.928824" style="stroke: #000000; stroke-width: 0.8"/>
      </g>
     </g>
     <g id="text_1">
      <!-- $\mathdefault{2021{-}07}$ -->
      <g transform="translate(67.24718 284.135433)rotate(-90)scale(0.1 -0.1)">
       <defs>
        <path id="URWPalladioL-Roma-32" d="M 102 160 
L 102 0 
C 1299 0 1299 0 1530 0 
C 1760 0 1760 0 2995 0 
C 2982 125 2982 186 2982 269 
C 2982 348 2982 407 2995 539 
C 2259 539 1965 539 781 539 
L 1946 1761 
C 2566 2414 2758 2763 2758 3238 
C 2758 3966 2259 4416 1446 4416 
C 986 4416 672 4288 358 3969 
L 250 3099 
L 435 3099 
L 518 3393 
C 621 3763 851 3923 1280 3923 
C 1830 3923 2182 3577 2182 3035 
C 2182 2555 1914 2083 1190 1316 
L 102 160 
z
" transform="scale(0.015625)"/>
        <path id="URWPalladioL-Roma-30" d="M 1683 4416 
C 691 4416 186 3628 186 2077 
C 186 1326 320 680 544 366 
C 768 51 1126 -128 1523 -128 
C 2490 -128 2976 705 2976 2346 
C 2976 3749 2560 4416 1683 4416 
z
M 1568 4192 
C 2189 4192 2438 3564 2438 2025 
C 2438 661 2195 96 1606 96 
C 986 96 723 744 723 2308 
C 723 3660 960 4192 1568 4192 
z
" transform="scale(0.015625)"/>
        <path id="URWPalladioL-Roma-31" d="M 429 3584 
L 493 3584 
L 1318 3956 
C 1325 3962 1331 3962 1338 3962 
C 1376 3962 1389 3905 1389 3751 
L 1389 613 
C 1389 276 1318 205 973 205 
L 614 205 
L 614 0 
C 1600 0 1600 0 1670 0 
C 1754 0 1894 0 2112 0 
C 2189 0 2413 0 2675 0 
L 2675 205 
L 2342 205 
C 1990 205 1926 276 1926 612 
L 1926 4443 
L 1837 4475 
C 1421 4257 966 4065 384 3860 
L 429 3584 
z
" transform="scale(0.015625)"/>
        <path id="CMSY10-0" d="M 4218 1472 
C 4326 1472 4442 1472 4442 1600 
C 4442 1728 4326 1728 4218 1728 
L 755 1728 
C 646 1728 531 1728 531 1600 
C 531 1472 646 1472 755 1472 
L 4218 1472 
z
" transform="scale(0.015625)"/>
        <path id="URWPalladioL-Roma-37" d="M 358 32 
L 416 -51 
C 666 -32 666 -32 710 -32 
C 755 -32 755 -32 1005 -51 
C 1274 649 1587 1317 2010 2087 
L 3181 4199 
L 3181 4372 
C 2490 4372 2266 4372 1747 4372 
C 1280 4372 966 4372 346 4372 
L 282 4359 
C 301 3750 301 3750 301 3685 
C 301 3614 301 3614 282 3031 
L 474 3031 
L 518 3390 
C 570 3789 614 3840 909 3840 
L 2618 3840 
C 2362 3313 2163 2941 1920 2549 
L 358 32 
z
" transform="scale(0.015625)"/>
       </defs>
       <use xlink:href="#URWPalladioL-Roma-32" transform="scale(0.996264)"/>
       <use xlink:href="#URWPalladioL-Roma-30" transform="translate(49.8132 0)scale(0.996264)"/>
       <use xlink:href="#URWPalladioL-Roma-32" transform="translate(99.626401 0)scale(0.996264)"/>
       <use xlink:href="#URWPalladioL-Roma-31" transform="translate(149.439601 0)scale(0.996264)"/>
       <use xlink:href="#CMSY10-0" transform="translate(200.498102 0)scale(1.038107)"/>
       <use xlink:href="#URWPalladioL-Roma-30" transform="translate(282.439798 0)scale(0.996264)"/>
       <use xlink:href="#URWPalladioL-Roma-37" transform="translate(332.252998 0)scale(0.996264)"/>
      </g>
     </g>
    </g>
    <g id="xtick_2">
     <g id="line2d_2">
      <g>
       <use xlink:href="#m255937b040" x="114.229813" y="238.928824" style="stroke: #000000; stroke-width: 0.8"/>
      </g>
     </g>
     <g id="text_2">
      <!-- $\mathdefault{2021{-}08}$ -->
      <g transform="translate(116.389226 284.135433)rotate(-90)scale(0.1 -0.1)">
       <defs>
        <path id="URWPalladioL-Roma-38" d="M 1075 2211 
C 813 2090 704 2019 563 1884 
C 320 1641 192 1352 192 1019 
C 192 359 723 -128 1446 -128 
C 2278 -128 2970 526 2970 1320 
C 2970 1833 2733 2109 2003 2442 
C 2586 2840 2790 3109 2790 3493 
C 2790 4044 2336 4416 1658 4416 
C 896 4416 339 3929 339 3257 
C 339 2821 512 2577 1075 2211 
z
M 1818 1891 
C 2221 1711 2464 1397 2464 1052 
C 2464 513 2061 90 1542 90 
C 998 90 646 475 646 1071 
C 646 1538 832 1833 1306 2122 
L 1818 1891 
z
M 1427 2712 
C 1024 2910 819 3167 819 3487 
C 819 3910 1126 4198 1581 4198 
C 2048 4198 2355 3891 2355 3422 
C 2355 3058 2195 2808 1779 2538 
L 1427 2712 
z
" transform="scale(0.015625)"/>
       </defs>
       <use xlink:href="#URWPalladioL-Roma-32" transform="scale(0.996264)"/>
       <use xlink:href="#URWPalladioL-Roma-30" transform="translate(49.8132 0)scale(0.996264)"/>
       <use xlink:href="#URWPalladioL-Roma-32" transform="translate(99.626401 0)scale(0.996264)"/>
       <use xlink:href="#URWPalladioL-Roma-31" transform="translate(149.439601 0)scale(0.996264)"/>
       <use xlink:href="#CMSY10-0" transform="translate(200.498102 0)scale(1.038107)"/>
       <use xlink:href="#URWPalladioL-Roma-30" transform="translate(282.439798 0)scale(0.996264)"/>
       <use xlink:href="#URWPalladioL-Roma-38" transform="translate(332.252998 0)scale(0.996264)"/>
      </g>
     </g>
    </g>
    <g id="xtick_3">
     <g id="line2d_3">
      <g>
       <use xlink:href="#m255937b040" x="163.371858" y="238.928824" style="stroke: #000000; stroke-width: 0.8"/>
      </g>
     </g>
     <g id="text_3">
      <!-- $\mathdefault{2021{-}09}$ -->
      <g transform="translate(165.531271 284.135433)rotate(-90)scale(0.1 -0.1)">
       <defs>
        <path id="URWPalladioL-Roma-39" d="M 614 -106 
C 1325 125 1632 272 1978 566 
C 2598 1098 2925 1835 2925 2693 
C 2925 3776 2406 4435 1562 4435 
C 742 4435 128 3795 128 2938 
C 128 2201 608 1664 1274 1664 
C 1491 1664 1741 1734 1856 1830 
L 2304 2202 
C 2253 1125 1555 336 397 54 
L 397 3 
L 614 -106 
z
M 1536 4224 
C 1824 4224 2035 4102 2176 3846 
C 2291 3641 2368 3328 2368 3040 
C 2368 2451 2029 2055 1536 2055 
C 1024 2055 678 2509 678 3174 
C 678 3821 1011 4224 1536 4224 
z
" transform="scale(0.015625)"/>
       </defs>
       <use xlink:href="#URWPalladioL-Roma-32" transform="scale(0.996264)"/>
       <use xlink:href="#URWPalladioL-Roma-30" transform="translate(49.8132 0)scale(0.996264)"/>
       <use xlink:href="#URWPalladioL-Roma-32" transform="translate(99.626401 0)scale(0.996264)"/>
       <use xlink:href="#URWPalladioL-Roma-31" transform="translate(149.439601 0)scale(0.996264)"/>
       <use xlink:href="#CMSY10-0" transform="translate(200.498102 0)scale(1.038107)"/>
       <use xlink:href="#URWPalladioL-Roma-30" transform="translate(282.439798 0)scale(0.996264)"/>
       <use xlink:href="#URWPalladioL-Roma-39" transform="translate(332.252998 0)scale(0.996264)"/>
      </g>
     </g>
    </g>
    <g id="xtick_4">
     <g id="line2d_4">
      <g>
       <use xlink:href="#m255937b040" x="210.928676" y="238.928824" style="stroke: #000000; stroke-width: 0.8"/>
      </g>
     </g>
     <g id="text_4">
      <!-- $\mathdefault{2021{-}10}$ -->
      <g transform="translate(213.088089 284.135433)rotate(-90)scale(0.1 -0.1)">
       <use xlink:href="#URWPalladioL-Roma-32" transform="scale(0.996264)"/>
       <use xlink:href="#URWPalladioL-Roma-30" transform="translate(49.8132 0)scale(0.996264)"/>
       <use xlink:href="#URWPalladioL-Roma-32" transform="translate(99.626401 0)scale(0.996264)"/>
       <use xlink:href="#URWPalladioL-Roma-31" transform="translate(149.439601 0)scale(0.996264)"/>
       <use xlink:href="#CMSY10-0" transform="translate(200.498102 0)scale(1.038107)"/>
       <use xlink:href="#URWPalladioL-Roma-31" transform="translate(282.439798 0)scale(0.996264)"/>
       <use xlink:href="#URWPalladioL-Roma-30" transform="translate(332.252998 0)scale(0.996264)"/>
      </g>
     </g>
    </g>
    <g id="xtick_5">
     <g id="line2d_5">
      <g>
       <use xlink:href="#m255937b040" x="260.070722" y="238.928824" style="stroke: #000000; stroke-width: 0.8"/>
      </g>
     </g>
     <g id="text_5">
      <!-- $\mathdefault{2021{-}11}$ -->
      <g transform="translate(262.230135 284.135433)rotate(-90)scale(0.1 -0.1)">
       <use xlink:href="#URWPalladioL-Roma-32" transform="scale(0.996264)"/>
       <use xlink:href="#URWPalladioL-Roma-30" transform="translate(49.8132 0)scale(0.996264)"/>
       <use xlink:href="#URWPalladioL-Roma-32" transform="translate(99.626401 0)scale(0.996264)"/>
       <use xlink:href="#URWPalladioL-Roma-31" transform="translate(149.439601 0)scale(0.996264)"/>
       <use xlink:href="#CMSY10-0" transform="translate(200.498102 0)scale(1.038107)"/>
       <use xlink:href="#URWPalladioL-Roma-31" transform="translate(282.439798 0)scale(0.996264)"/>
       <use xlink:href="#URWPalladioL-Roma-31" transform="translate(332.252998 0)scale(0.996264)"/>
      </g>
     </g>
    </g>
    <g id="xtick_6">
     <g id="line2d_6">
      <g>
       <use xlink:href="#m255937b040" x="307.62754" y="238.928824" style="stroke: #000000; stroke-width: 0.8"/>
      </g>
     </g>
     <g id="text_6">
      <!-- $\mathdefault{2021{-}12}$ -->
      <g transform="translate(309.786953 284.135433)rotate(-90)scale(0.1 -0.1)">
       <use xlink:href="#URWPalladioL-Roma-32" transform="scale(0.996264)"/>
       <use xlink:href="#URWPalladioL-Roma-30" transform="translate(49.8132 0)scale(0.996264)"/>
       <use xlink:href="#URWPalladioL-Roma-32" transform="translate(99.626401 0)scale(0.996264)"/>
       <use xlink:href="#URWPalladioL-Roma-31" transform="translate(149.439601 0)scale(0.996264)"/>
       <use xlink:href="#CMSY10-0" transform="translate(200.498102 0)scale(1.038107)"/>
       <use xlink:href="#URWPalladioL-Roma-31" transform="translate(282.439798 0)scale(0.996264)"/>
       <use xlink:href="#URWPalladioL-Roma-32" transform="translate(332.252998 0)scale(0.996264)"/>
      </g>
     </g>
    </g>
   </g>
   <g id="matplotlib.axis_2">
    <g id="ytick_1">
     <g id="line2d_7">
      <defs>
       <path id="m68ed010c67" d="M 0 0 
L -3.5 0 
" style="stroke: #000000; stroke-width: 0.8"/>
      </defs>
      <g>
       <use xlink:href="#m68ed010c67" x="57.954244" y="238.928824" style="stroke: #000000; stroke-width: 0.8"/>
      </g>
     </g>
     <g id="text_7">
      <!-- $\mathdefault{0.0}$ -->
      <g transform="translate(38.500944 242.492943)scale(0.1 -0.1)">
       <defs>
        <path id="URWPalladioL-Roma-2e" d="M 794 744 
C 602 744 429 564 429 372 
C 429 179 602 0 787 0 
C 992 0 1171 173 1171 372 
C 1171 564 992 744 794 744 
z
" transform="scale(0.015625)"/>
       </defs>
       <use xlink:href="#URWPalladioL-Roma-30" transform="scale(0.996264)"/>
       <use xlink:href="#URWPalladioL-Roma-2e" transform="translate(49.8132 0)scale(0.996264)"/>
       <use xlink:href="#URWPalladioL-Roma-30" transform="translate(74.719801 0)scale(0.996264)"/>
      </g>
     </g>
    </g>
    <g id="ytick_2">
     <g id="line2d_8">
      <g>
       <use xlink:href="#m68ed010c67" x="57.954244" y="205.878371" style="stroke: #000000; stroke-width: 0.8"/>
      </g>
     </g>
     <g id="text_8">
      <!-- $\mathdefault{0.2}$ -->
      <g transform="translate(38.500944 209.44249)scale(0.1 -0.1)">
       <use xlink:href="#URWPalladioL-Roma-30" transform="scale(0.996264)"/>
       <use xlink:href="#URWPalladioL-Roma-2e" transform="translate(49.8132 0)scale(0.996264)"/>
       <use xlink:href="#URWPalladioL-Roma-32" transform="translate(74.719801 0)scale(0.996264)"/>
      </g>
     </g>
    </g>
    <g id="ytick_3">
     <g id="line2d_9">
      <g>
       <use xlink:href="#m68ed010c67" x="57.954244" y="172.827918" style="stroke: #000000; stroke-width: 0.8"/>
      </g>
     </g>
     <g id="text_9">
      <!-- $\mathdefault{0.4}$ -->
      <g transform="translate(38.500944 176.392036)scale(0.1 -0.1)">
       <defs>
        <path id="URWPalladioL-Roma-34" d="M 1792 1152 
L 1792 673 
C 1792 289 1722 199 1408 199 
L 1011 199 
L 1011 0 
C 1862 0 1862 0 2016 0 
C 2170 0 2170 0 3021 0 
L 3021 199 
L 2714 199 
C 2400 199 2330 282 2330 669 
L 2330 1152 
C 2707 1152 2842 1152 3021 1133 
L 3021 1588 
C 2720 1563 2598 1563 2502 1563 
L 2483 1563 
L 2330 1563 
L 2330 2457 
C 2330 3600 2342 4152 2374 4416 
L 2298 4448 
L 1824 4275 
L 13 1299 
L 83 1152 
L 1792 1152 
z
M 1792 1563 
L 416 1563 
L 1792 3826 
L 1792 1563 
z
" transform="scale(0.015625)"/>
       </defs>
       <use xlink:href="#URWPalladioL-Roma-30" transform="scale(0.996264)"/>
       <use xlink:href="#URWPalladioL-Roma-2e" transform="translate(49.8132 0)scale(0.996264)"/>
       <use xlink:href="#URWPalladioL-Roma-34" transform="translate(74.719801 0)scale(0.996264)"/>
      </g>
     </g>
    </g>
    <g id="ytick_4">
     <g id="line2d_10">
      <g>
       <use xlink:href="#m68ed010c67" x="57.954244" y="139.777464" style="stroke: #000000; stroke-width: 0.8"/>
      </g>
     </g>
     <g id="text_10">
      <!-- $\mathdefault{0.6}$ -->
      <g transform="translate(38.500944 143.341583)scale(0.1 -0.1)">
       <defs>
        <path id="URWPalladioL-Roma-36" d="M 2662 4310 
L 2426 4419 
C 1811 4214 1549 4086 1222 3804 
C 563 3246 205 2464 205 1585 
C 205 526 717 -128 1542 -128 
C 2374 -128 2995 532 2995 1405 
C 2995 2143 2554 2624 1875 2624 
C 1555 2624 1363 2540 986 2239 
C 915 2181 909 2175 838 2124 
C 973 3284 1510 3913 2662 4259 
L 2662 4310 
z
M 1632 2239 
C 2118 2239 2445 1816 2445 1181 
C 2445 513 2118 83 1626 83 
C 1082 83 787 551 787 1412 
C 787 1636 813 1758 883 1867 
C 1024 2085 1325 2239 1632 2239 
z
" transform="scale(0.015625)"/>
       </defs>
       <use xlink:href="#URWPalladioL-Roma-30" transform="scale(0.996264)"/>
       <use xlink:href="#URWPalladioL-Roma-2e" transform="translate(49.8132 0)scale(0.996264)"/>
       <use xlink:href="#URWPalladioL-Roma-36" transform="translate(74.719801 0)scale(0.996264)"/>
      </g>
     </g>
    </g>
    <g id="ytick_5">
     <g id="line2d_11">
      <g>
       <use xlink:href="#m68ed010c67" x="57.954244" y="106.727011" style="stroke: #000000; stroke-width: 0.8"/>
      </g>
     </g>
     <g id="text_11">
      <!-- $\mathdefault{0.8}$ -->
      <g transform="translate(38.500944 110.29113)scale(0.1 -0.1)">
       <use xlink:href="#URWPalladioL-Roma-30" transform="scale(0.996264)"/>
       <use xlink:href="#URWPalladioL-Roma-2e" transform="translate(49.8132 0)scale(0.996264)"/>
       <use xlink:href="#URWPalladioL-Roma-38" transform="translate(74.719801 0)scale(0.996264)"/>
      </g>
     </g>
    </g>
    <g id="ytick_6">
     <g id="line2d_12">
      <g>
       <use xlink:href="#m68ed010c67" x="57.954244" y="73.676558" style="stroke: #000000; stroke-width: 0.8"/>
      </g>
     </g>
     <g id="text_12">
      <!-- $\mathdefault{1.0}$ -->
      <g transform="translate(38.500944 77.240676)scale(0.1 -0.1)">
       <use xlink:href="#URWPalladioL-Roma-31" transform="scale(0.996264)"/>
       <use xlink:href="#URWPalladioL-Roma-2e" transform="translate(49.8132 0)scale(0.996264)"/>
       <use xlink:href="#URWPalladioL-Roma-30" transform="translate(74.719801 0)scale(0.996264)"/>
      </g>
     </g>
    </g>
    <g id="ytick_7">
     <g id="line2d_13">
      <g>
       <use xlink:href="#m68ed010c67" x="57.954244" y="40.626104" style="stroke: #000000; stroke-width: 0.8"/>
      </g>
     </g>
     <g id="text_13">
      <!-- $\mathdefault{1.2}$ -->
      <g transform="translate(38.500944 44.190223)scale(0.1 -0.1)">
       <use xlink:href="#URWPalladioL-Roma-31" transform="scale(0.996264)"/>
       <use xlink:href="#URWPalladioL-Roma-2e" transform="translate(49.8132 0)scale(0.996264)"/>
       <use xlink:href="#URWPalladioL-Roma-32" transform="translate(74.719801 0)scale(0.996264)"/>
      </g>
     </g>
    </g>
    <g id="text_14">
     <!-- mortality (WHO) -->
     <g transform="translate(14.328237 166.145555)rotate(-90)scale(0.1 -0.1)">
      <defs>
       <path id="URWPalladioL-Roma-6d" d="M 115 2565 
L 352 2565 
C 608 2565 634 2520 634 2094 
L 634 643 
C 634 237 614 192 397 192 
L 102 192 
L 102 -7 
C 717 -7 736 -7 915 -7 
C 1094 -7 1261 -7 1677 -7 
L 1677 179 
L 1408 205 
C 1190 205 1171 250 1171 654 
L 1171 2014 
C 1171 2302 1594 2616 1978 2616 
C 2323 2616 2560 2287 2560 1798 
L 2560 643 
C 2560 237 2541 192 2323 192 
L 2029 192 
L 2029 -7 
C 2669 -7 2669 -7 2829 -7 
C 2989 -7 2989 -7 3629 -7 
L 3629 192 
L 3334 192 
C 3117 192 3098 237 3098 643 
L 3098 2011 
C 3098 2300 3520 2616 3904 2616 
C 4250 2616 4486 2291 4486 1806 
L 4486 -7 
C 4877 -7 4883 -7 4992 -7 
C 5075 -7 5075 -7 5562 -7 
L 5562 192 
L 5261 192 
C 5043 192 5024 237 5024 643 
L 5024 1970 
C 5024 2608 4653 3008 4064 3008 
C 3840 3008 3654 2950 3539 2847 
L 3053 2412 
C 2848 2834 2586 3008 2144 3008 
C 1907 3008 1728 2950 1613 2847 
L 1171 2437 
L 1171 2982 
L 1114 3008 
C 787 2873 454 2783 115 2745 
L 115 2565 
z
" transform="scale(0.015625)"/>
       <path id="URWPalladioL-Roma-6f" d="M 1786 3008 
C 851 3008 205 2347 205 1392 
C 205 487 774 -128 1600 -128 
C 2586 -128 3290 558 3290 1520 
C 3290 2386 2662 3008 1786 3008 
z
M 1670 2796 
C 2259 2796 2694 2155 2694 1283 
C 2694 545 2368 83 1850 83 
C 1222 83 800 699 800 1610 
C 800 2379 1107 2796 1670 2796 
z
" transform="scale(0.015625)"/>
       <path id="URWPalladioL-Roma-72" d="M 147 2565 
L 384 2565 
C 640 2565 666 2520 666 2094 
L 666 643 
C 666 237 646 192 429 192 
L 134 192 
L 134 -7 
C 595 -7 762 -7 922 -7 
C 1050 -7 1050 -7 1837 -7 
L 1837 192 
L 1504 192 
C 1216 192 1203 211 1203 638 
L 1203 1751 
C 1203 2139 1459 2463 1773 2463 
C 1965 2463 2099 2373 2202 2169 
L 2336 2169 
L 2394 2937 
C 2323 2982 2208 3008 2093 3008 
C 1901 3008 1696 2905 1562 2745 
L 1203 2322 
L 1203 2982 
L 1146 3008 
C 819 2873 486 2783 147 2745 
L 147 2565 
z
" transform="scale(0.015625)"/>
       <path id="URWPalladioL-Roma-74" d="M 627 2476 
L 627 619 
C 627 142 838 -64 1331 -64 
C 1478 -64 1632 -32 1670 13 
L 1978 353 
L 1894 463 
C 1734 372 1638 340 1517 340 
C 1267 340 1165 470 1165 788 
L 1165 2489 
L 1984 2489 
L 2042 2816 
L 1165 2816 
L 1165 3056 
C 1165 3321 1184 3547 1235 3951 
L 1158 4021 
C 1005 3925 813 3842 614 3778 
C 634 3585 640 3463 640 3271 
L 640 2822 
L 141 2598 
L 141 2476 
L 627 2476 
z
" transform="scale(0.015625)"/>
       <path id="URWPalladioL-Roma-61" d="M 2074 538 
L 2042 -1 
C 2458 -1 2458 -1 2541 -1 
C 2573 -1 2733 -1 3014 -1 
L 3014 192 
L 2765 192 
C 2611 192 2586 244 2586 558 
L 2586 1731 
C 2586 2668 2317 3008 1574 3008 
C 1299 3008 1043 2937 800 2791 
L 461 2585 
L 461 2171 
L 627 2126 
L 710 2323 
C 845 2623 909 2668 1203 2668 
C 1805 2668 2054 2431 2074 1852 
L 1440 1736 
C 570 1577 205 1277 205 722 
C 205 224 506 -64 1011 -64 
C 1126 -64 1235 -45 1280 -13 
L 2074 538 
z
M 2074 806 
C 1888 544 1485 302 1235 302 
C 979 302 755 538 755 812 
C 755 1048 883 1271 1075 1392 
C 1235 1488 1587 1577 2074 1648 
L 2074 806 
z
" transform="scale(0.015625)"/>
       <path id="URWPalladioL-Roma-6c" d="M 147 4256 
L 506 4256 
C 621 4256 666 4185 666 3992 
L 666 651 
C 666 244 646 199 429 199 
L 134 199 
L 134 0 
C 774 0 774 0 934 0 
C 1094 0 1094 0 1734 0 
L 1734 199 
L 1440 199 
C 1222 199 1203 244 1203 650 
L 1203 4621 
L 1146 4673 
C 864 4564 653 4512 147 4435 
L 147 4256 
z
" transform="scale(0.015625)"/>
       <path id="URWPalladioL-Roma-69" d="M 1203 2993 
L 1146 3019 
C 819 2884 486 2793 147 2755 
L 147 2576 
L 384 2576 
C 640 2576 666 2531 666 2105 
L 666 651 
C 666 244 646 199 429 199 
L 134 199 
L 134 0 
C 774 0 774 0 934 0 
C 1094 0 1094 0 1734 0 
L 1734 199 
L 1440 199 
C 1222 199 1203 244 1203 651 
L 1203 2993 
z
M 909 4416 
C 717 4416 550 4249 550 4056 
C 550 3870 717 3704 902 3704 
C 1088 3704 1261 3870 1261 4056 
C 1261 4236 1088 4416 909 4416 
z
" transform="scale(0.015625)"/>
       <path id="URWPalladioL-Roma-79" d="M 1901 564 
C 1760 808 1690 956 1574 1270 
L 1165 2347 
C 1126 2456 1101 2552 1101 2618 
C 1101 2710 1171 2764 1318 2764 
L 1562 2764 
L 1562 2944 
C 941 2944 941 2944 819 2944 
C 698 2944 698 2944 77 2944 
L 77 2777 
L 192 2764 
C 352 2745 429 2674 525 2451 
L 1222 775 
C 1402 340 1466 186 1581 -134 
L 1434 -524 
C 1229 -1062 979 -1362 736 -1362 
C 634 -1362 518 -1311 410 -1215 
L 326 -1215 
L 173 -1696 
C 294 -1760 397 -1792 518 -1792 
C 947 -1792 1222 -1562 1466 -1005 
L 2765 1990 
C 3021 2572 3142 2745 3302 2764 
L 3482 2777 
L 3482 2944 
C 2976 2944 2976 2944 2874 2944 
C 2771 2944 2771 2944 2266 2944 
L 2266 2777 
L 2432 2764 
C 2611 2751 2701 2694 2701 2604 
C 2701 2559 2688 2501 2662 2437 
L 1901 564 
z
" transform="scale(0.015625)"/>
       <path id="URWPalladioL-Roma-28" d="M 1926 -1244 
C 1466 -673 1299 -366 1133 212 
C 998 673 934 1161 934 1706 
C 934 2238 998 2693 1120 3110 
C 1286 3642 1459 3944 1926 4489 
L 1805 4656 
C 1139 4059 877 3707 634 3078 
C 467 2648 384 2193 384 1706 
C 384 1020 544 372 851 -205 
C 1075 -635 1280 -885 1805 -1379 
L 1926 -1244 
z
" transform="scale(0.015625)"/>
       <path id="URWPalladioL-Roma-57" d="M 4698 -64 
C 4723 32 4742 122 4749 154 
C 4768 218 4819 411 4870 584 
L 5850 4032 
C 5888 4147 5952 4205 6093 4218 
L 6298 4237 
L 6298 4416 
L 5626 4416 
C 5562 4416 5562 4416 4954 4416 
L 4954 4237 
L 5210 4218 
C 5434 4199 5504 4167 5510 4063 
C 5510 4044 5510 4025 5504 4005 
L 4659 872 
L 3610 3826 
C 3469 4211 3450 4262 3398 4480 
L 3194 4480 
C 3059 4082 2950 3795 2618 2935 
L 1824 917 
L 1184 3795 
C 1165 3872 1158 3942 1158 4006 
C 1158 4147 1222 4205 1395 4218 
L 1664 4237 
L 1664 4416 
L 858 4416 
C 813 4416 544 4416 51 4416 
L 51 4237 
L 230 4218 
C 416 4199 493 4128 550 3897 
L 1312 597 
C 1395 231 1395 225 1459 -64 
L 1779 -64 
C 1837 141 1888 295 2010 597 
L 3123 3429 
L 3923 1256 
C 4134 687 4154 635 4378 -64 
L 4698 -64 
z
" transform="scale(0.015625)"/>
       <path id="URWPalladioL-Roma-48" d="M 3942 773 
C 3942 257 3910 205 3616 205 
L 3309 205 
L 3309 0 
C 3686 0 3910 0 4243 0 
C 4576 0 4806 0 5184 0 
L 5184 205 
L 4877 205 
C 4582 205 4550 256 4550 766 
L 4550 3663 
C 4550 4172 4582 4224 4877 4224 
L 5184 4224 
L 5184 4423 
C 4717 4423 4576 4423 4243 4423 
C 3923 4423 3770 4423 3309 4423 
L 3309 4224 
L 3616 4224 
C 3910 4224 3942 4172 3942 3668 
L 3942 2529 
C 3808 2529 3674 2529 3411 2529 
L 1914 2529 
C 1651 2529 1510 2529 1382 2529 
L 1382 3668 
C 1382 4172 1414 4224 1709 4224 
L 2016 4224 
L 2016 4423 
C 1549 4423 1408 4423 1075 4423 
C 755 4423 602 4423 141 4423 
L 141 4224 
L 448 4224 
C 742 4224 774 4172 774 3663 
L 774 766 
C 774 256 742 205 448 205 
L 141 205 
L 141 0 
C 518 0 742 0 1075 0 
C 1408 0 1638 0 2016 0 
L 2016 205 
L 1709 205 
C 1414 205 1382 257 1382 773 
L 1382 2227 
C 1555 2240 1658 2240 1914 2240 
L 3411 2240 
C 3667 2240 3770 2240 3942 2227 
L 3942 773 
z
" transform="scale(0.015625)"/>
       <path id="URWPalladioL-Roma-4f" d="M 2573 4544 
C 1114 4544 141 3596 141 2186 
C 141 839 1075 -128 2368 -128 
C 3802 -128 4890 942 4890 2351 
C 4890 3698 3994 4544 2573 4544 
z
M 2464 4274 
C 3558 4274 4205 3493 4205 2160 
C 4205 890 3616 141 2624 141 
C 1549 141 826 1051 826 2422 
C 826 3607 1414 4274 2464 4274 
z
" transform="scale(0.015625)"/>
       <path id="URWPalladioL-Roma-29" d="M 326 -1379 
C 768 -962 954 -750 1152 -436 
C 1542 186 1747 930 1747 1699 
C 1747 2193 1664 2648 1498 3078 
C 1254 3700 992 4053 326 4656 
L 205 4489 
C 672 3937 845 3636 1005 3110 
C 1133 2693 1197 2238 1197 1706 
C 1197 1161 1133 673 998 212 
C 832 -366 666 -673 205 -1244 
L 326 -1379 
z
" transform="scale(0.015625)"/>
      </defs>
      <use xlink:href="#URWPalladioL-Roma-6d" transform="scale(0.996264)"/>
      <use xlink:href="#URWPalladioL-Roma-6f" transform="translate(87.969674 0)scale(0.996264)"/>
      <use xlink:href="#URWPalladioL-Roma-72" transform="translate(142.365254 0)scale(0.996264)"/>
      <use xlink:href="#URWPalladioL-Roma-74" transform="translate(181.717151 0)scale(0.996264)"/>
      <use xlink:href="#URWPalladioL-Roma-61" transform="translate(214.194239 0)scale(0.996264)"/>
      <use xlink:href="#URWPalladioL-Roma-6c" transform="translate(264.007439 0)scale(0.996264)"/>
      <use xlink:href="#URWPalladioL-Roma-69" transform="translate(292.997801 0)scale(0.996264)"/>
      <use xlink:href="#URWPalladioL-Roma-74" transform="translate(321.988162 0)scale(0.996264)"/>
      <use xlink:href="#URWPalladioL-Roma-79" transform="translate(354.46525 0)scale(0.996264)"/>
      <use xlink:href="#URWPalladioL-Roma-28" transform="translate(434.763527 0)scale(0.996264)"/>
      <use xlink:href="#URWPalladioL-Roma-57" transform="translate(467.938757 0)scale(0.996264)"/>
      <use xlink:href="#URWPalladioL-Roma-48" transform="translate(567.565158 0)scale(0.996264)"/>
      <use xlink:href="#URWPalladioL-Roma-4f" transform="translate(650.453819 0)scale(0.996264)"/>
      <use xlink:href="#URWPalladioL-Roma-29" transform="translate(728.7601 0)scale(0.996264)"/>
     </g>
     <!-- fatalities over 7 days per 100000 -->
     <g transform="translate(25.691533 198.095468)rotate(-90)scale(0.1 -0.1)">
      <defs>
       <path id="URWPalladioL-Roma-66" d="M 2182 4601 
C 2048 4652 1971 4672 1888 4672 
C 1683 4672 1459 4563 1318 4404 
L 947 3985 
C 762 3775 678 3490 678 3070 
L 678 2803 
L 237 2604 
L 237 2476 
L 678 2476 
L 678 651 
C 678 244 659 199 442 199 
L 147 199 
L 147 0 
C 787 0 787 0 947 0 
C 1107 0 1107 0 1747 0 
L 1747 199 
L 1453 199 
C 1235 199 1216 245 1216 653 
L 1216 2489 
L 2010 2489 
L 2054 2816 
L 1216 2816 
L 1216 3350 
C 1216 4073 1299 4248 1664 4248 
C 1837 4248 1952 4204 2106 4071 
L 2182 4109 
L 2182 4601 
z
" transform="scale(0.015625)"/>
       <path id="URWPalladioL-Roma-65" d="M 2797 447 
L 2714 511 
C 2304 269 2157 212 1882 212 
C 1466 212 1120 398 941 711 
C 819 921 774 1101 762 1472 
L 1696 1472 
C 2138 1472 2413 1472 2854 1544 
C 2861 1634 2867 1693 2867 1771 
C 2867 2520 2394 3008 1677 3008 
C 1440 3008 1165 2924 902 2770 
C 378 2469 166 2071 166 1404 
C 166 1000 262 654 435 410 
C 691 71 1120 -128 1600 -128 
C 1837 -128 2074 -77 2336 37 
C 2509 108 2643 191 2669 230 
L 2797 447 
z
M 2298 1690 
C 1965 1690 1811 1690 1581 1690 
C 1286 1690 1120 1690 774 1722 
C 774 2027 800 2169 883 2337 
C 1018 2622 1293 2796 1600 2796 
C 1811 2796 1978 2711 2093 2534 
C 2234 2319 2278 2129 2298 1690 
z
" transform="scale(0.015625)"/>
       <path id="URWPalladioL-Roma-73" d="M 262 917 
C 262 475 243 282 192 26 
C 525 -83 774 -128 1069 -128 
C 1907 -128 2502 321 2502 949 
C 2502 1148 2445 1295 2323 1424 
C 2157 1584 1946 1661 1382 1770 
C 858 1873 685 2001 685 2296 
C 685 2616 909 2796 1299 2796 
C 1728 2796 2054 2572 2054 2270 
L 2054 2123 
L 2234 2123 
C 2240 2495 2246 2648 2266 2847 
C 1926 2963 1696 3008 1434 3008 
C 691 3008 237 2655 237 2078 
C 237 1770 378 1552 672 1417 
C 845 1340 1184 1238 1619 1141 
C 1907 1077 2029 943 2029 699 
C 2029 353 1709 109 1254 109 
C 787 109 454 333 454 654 
L 454 917 
L 262 917 
z
" transform="scale(0.015625)"/>
       <path id="URWPalladioL-Roma-76" d="M 3450 2752 
L 3450 2932 
C 3066 2932 2950 2932 2848 2932 
C 2746 2932 2630 2932 2246 2932 
L 2246 2752 
L 2509 2752 
C 2611 2752 2662 2694 2662 2591 
C 2662 2489 2618 2317 2541 2124 
L 2272 1445 
C 2195 1259 2118 1080 1875 549 
L 1114 2393 
C 1075 2482 1056 2566 1056 2636 
C 1056 2707 1114 2752 1216 2752 
L 1530 2752 
L 1530 2932 
C 902 2932 902 2932 781 2932 
C 659 2932 352 2932 38 2932 
L 38 2752 
L 256 2752 
C 352 2739 384 2701 454 2541 
L 1555 -32 
L 1875 -32 
C 1914 77 1978 243 1978 256 
C 2048 447 2131 664 2138 664 
L 2893 2324 
C 3034 2625 3123 2739 3251 2752 
L 3450 2752 
z
" transform="scale(0.015625)"/>
       <path id="URWPalladioL-Roma-64" d="M 2637 2802 
C 2278 2956 2099 3008 1875 3008 
C 1702 3008 1549 2969 1389 2887 
L 826 2593 
C 461 2401 224 1935 224 1392 
C 224 881 397 460 710 204 
C 928 19 1229 -64 1645 -64 
C 1773 -64 1920 -38 1952 -13 
L 2662 583 
L 2630 -7 
C 2944 -7 3046 -7 3123 -7 
C 3174 -7 3264 -7 3398 -7 
C 3443 -7 3571 -7 3706 -7 
L 3706 192 
L 3411 192 
C 3194 192 3174 237 3174 643 
L 3174 4607 
L 3117 4659 
C 2835 4550 2624 4498 2118 4421 
L 2118 4242 
L 2477 4242 
C 2592 4242 2637 4171 2637 3978 
L 2637 2802 
z
M 2637 1424 
C 2637 1009 2624 946 2541 799 
C 2362 499 2048 302 1747 302 
C 1184 302 781 844 781 1603 
C 781 2298 1126 2706 1702 2706 
C 1946 2706 2202 2623 2426 2470 
C 2560 2381 2637 2298 2637 2246 
L 2637 1424 
z
" transform="scale(0.015625)"/>
       <path id="URWPalladioL-Roma-70" d="M 64 2565 
L 301 2565 
C 557 2565 582 2520 582 2095 
L 582 -1142 
C 582 -1548 563 -1593 346 -1593 
L 51 -1593 
L 51 -1792 
C 691 -1792 691 -1792 851 -1792 
C 1011 -1792 1011 -1792 1651 -1792 
L 1651 -1593 
L 1357 -1593 
C 1139 -1593 1120 -1547 1120 -1138 
L 1120 89 
C 1312 -26 1517 -71 1805 -71 
C 1990 -71 2157 -32 2259 32 
L 2989 505 
C 3245 672 3546 1330 3546 1740 
C 3546 2451 2957 3008 2214 3008 
C 1978 3008 1747 2943 1645 2847 
L 1120 2367 
L 1120 2982 
L 1062 3008 
C 736 2873 403 2783 64 2745 
L 64 2565 
z
M 1120 1964 
C 1120 2053 1152 2124 1235 2233 
C 1421 2469 1683 2591 2003 2591 
C 2605 2591 2989 2169 2989 1504 
C 2989 787 2560 256 1984 256 
C 1632 256 1370 372 1120 633 
L 1120 1964 
z
" transform="scale(0.015625)"/>
      </defs>
      <use xlink:href="#URWPalladioL-Roma-66" transform="scale(0.996264)"/>
      <use xlink:href="#URWPalladioL-Roma-61" transform="translate(33.17523 0)scale(0.996264)"/>
      <use xlink:href="#URWPalladioL-Roma-74" transform="translate(82.98843 0)scale(0.996264)"/>
      <use xlink:href="#URWPalladioL-Roma-61" transform="translate(115.465518 0)scale(0.996264)"/>
      <use xlink:href="#URWPalladioL-Roma-6c" transform="translate(165.278719 0)scale(0.996264)"/>
      <use xlink:href="#URWPalladioL-Roma-69" transform="translate(194.26908 0)scale(0.996264)"/>
      <use xlink:href="#URWPalladioL-Roma-74" transform="translate(223.259442 0)scale(0.996264)"/>
      <use xlink:href="#URWPalladioL-Roma-69" transform="translate(255.736529 0)scale(0.996264)"/>
      <use xlink:href="#URWPalladioL-Roma-65" transform="translate(284.726891 0)scale(0.996264)"/>
      <use xlink:href="#URWPalladioL-Roma-73" transform="translate(332.447186 0)scale(0.996264)"/>
      <use xlink:href="#URWPalladioL-Roma-6f" transform="translate(399.595253 0)scale(0.996264)"/>
      <use xlink:href="#URWPalladioL-Roma-76" transform="translate(453.990833 0)scale(0.996264)"/>
      <use xlink:href="#URWPalladioL-Roma-65" transform="translate(510.278746 0)scale(0.996264)"/>
      <use xlink:href="#URWPalladioL-Roma-72" transform="translate(557.999041 0)scale(0.996264)"/>
      <use xlink:href="#URWPalladioL-Roma-37" transform="translate(622.257538 0)scale(0.996264)"/>
      <use xlink:href="#URWPalladioL-Roma-64" transform="translate(696.977338 0)scale(0.996264)"/>
      <use xlink:href="#URWPalladioL-Roma-61" transform="translate(757.848969 0)scale(0.996264)"/>
      <use xlink:href="#URWPalladioL-Roma-79" transform="translate(807.66217 0)scale(0.996264)"/>
      <use xlink:href="#URWPalladioL-Roma-73" transform="translate(863.053847 0)scale(0.996264)"/>
      <use xlink:href="#URWPalladioL-Roma-70" transform="translate(930.201913 0)scale(0.996264)"/>
      <use xlink:href="#URWPalladioL-Roma-65" transform="translate(990.076307 0)scale(0.996264)"/>
      <use xlink:href="#URWPalladioL-Roma-72" transform="translate(1037.796602 0)scale(0.996264)"/>
      <use xlink:href="#URWPalladioL-Roma-31" transform="translate(1102.055099 0)scale(0.996264)"/>
      <use xlink:href="#URWPalladioL-Roma-30" transform="translate(1151.868299 0)scale(0.996264)"/>
      <use xlink:href="#URWPalladioL-Roma-30" transform="translate(1201.6815 0)scale(0.996264)"/>
      <use xlink:href="#URWPalladioL-Roma-30" transform="translate(1251.4947 0)scale(0.996264)"/>
      <use xlink:href="#URWPalladioL-Roma-30" transform="translate(1301.307901 0)scale(0.996264)"/>
      <use xlink:href="#URWPalladioL-Roma-30" transform="translate(1351.121101 0)scale(0.996264)"/>
     </g>
    </g>
   </g>
   <g id="line2d_14">
    <path d="M 57.954244 73.676558 
L 336.954244 73.676558 
" clip-path="url(#pdfaa9067fa)" style="fill: none; stroke: #ffff00; stroke-width: 1.5; stroke-linecap: square"/>
   </g>
   <g id="line2d_15">
    <path clip-path="url(#pdfaa9067fa)" style="fill: none; stroke: #ffa500; stroke-width: 1.5; stroke-linecap: square"/>
   </g>
   <g id="line2d_16">
    <path clip-path="url(#pdfaa9067fa)" style="fill: none; stroke: #ff0000; stroke-width: 1.5; stroke-linecap: square"/>
   </g>
   <g id="patch_179">
    <path d="M 57.954244 238.928824 
L 57.954244 17.168824 
" style="fill: none; stroke: #000000; stroke-width: 0.8; stroke-linejoin: miter; stroke-linecap: square"/>
   </g>
   <g id="patch_180">
    <path d="M 57.954244 238.928824 
L 336.954244 238.928824 
" style="fill: none; stroke: #000000; stroke-width: 0.8; stroke-linejoin: miter; stroke-linecap: square"/>
   </g>
   <g id="text_15">
    <!-- low incidence of community transmission -->
    <g style="fill: #ffff00" transform="translate(345.324244 75.835971)scale(0.1 -0.1)">
     <defs>
      <path id="URWPalladioL-Roma-77" d="M 2643 3008 
C 2118 1788 2022 1571 1626 677 
L 1088 2444 
C 1069 2502 1062 2553 1062 2604 
C 1062 2700 1146 2752 1306 2752 
L 1562 2752 
L 1562 2932 
C 928 2932 928 2932 800 2932 
C 672 2932 672 2932 38 2932 
L 38 2765 
L 218 2752 
C 397 2739 480 2612 640 2114 
L 1293 -32 
L 1594 -32 
L 2221 1437 
C 2253 1514 2323 1667 2426 1884 
L 2554 2152 
L 3424 -32 
L 3718 -32 
C 3763 102 3814 249 3866 389 
C 3994 767 4134 1162 4160 1201 
L 4595 2196 
C 4787 2625 4864 2733 5005 2752 
L 5171 2765 
L 5171 2932 
C 4646 2932 4646 2932 4544 2932 
C 4442 2932 4442 2932 3917 2932 
L 3917 2752 
L 4134 2752 
C 4294 2752 4384 2675 4384 2559 
C 4384 2489 4371 2412 4339 2329 
L 4019 1433 
C 3968 1292 3917 1163 3712 638 
L 2976 2490 
C 2886 2707 2842 2835 2790 3008 
L 2643 3008 
z
" transform="scale(0.015625)"/>
      <path id="URWPalladioL-Roma-6e" d="M 2624 -7 
C 3014 -7 3021 -7 3130 -7 
C 3219 -7 3219 -7 3661 -7 
L 3661 179 
L 3398 205 
C 3181 205 3162 244 3162 654 
L 3162 1892 
C 3162 2642 2810 3008 2093 3008 
C 1856 3008 1722 2963 1587 2847 
L 1101 2424 
L 1101 2982 
L 1043 3008 
C 717 2873 384 2783 45 2745 
L 45 2565 
L 282 2565 
C 538 2565 563 2520 563 2094 
L 563 643 
C 563 237 544 192 326 192 
L 38 192 
L 38 -7 
C 474 -7 646 -7 832 -7 
C 1018 -7 1190 -7 1626 -7 
L 1626 192 
L 1338 192 
C 1120 192 1101 237 1101 643 
L 1101 2011 
C 1101 2300 1523 2616 1914 2616 
C 2342 2616 2624 2297 2624 1806 
L 2624 -7 
z
" transform="scale(0.015625)"/>
      <path id="URWPalladioL-Roma-63" d="M 2554 1994 
C 2554 2289 2586 2552 2643 2783 
C 2387 2937 2163 3008 1901 3008 
C 1594 3008 1235 2886 851 2642 
C 403 2360 166 1911 166 1347 
C 166 481 774 -128 1632 -128 
C 1965 -128 2445 -6 2509 90 
L 2643 295 
L 2579 391 
C 2342 263 2138 205 1907 205 
C 1197 205 730 757 730 1603 
C 730 2289 1050 2674 1626 2674 
C 1907 2674 2214 2546 2330 2386 
L 2374 1994 
L 2554 1994 
z
" transform="scale(0.015625)"/>
      <path id="URWPalladioL-Roma-75" d="M 3219 3009 
L 3162 3035 
C 2835 2900 2502 2810 2163 2772 
L 2163 2592 
L 2400 2592 
C 2656 2592 2682 2547 2682 2121 
L 2682 1070 
C 2682 928 2592 747 2445 599 
C 2266 418 2061 327 1811 327 
C 1587 327 1408 398 1306 521 
C 1216 624 1171 824 1171 1107 
L 1171 3009 
L 1114 3035 
C 787 2900 454 2810 115 2772 
L 115 2592 
L 352 2592 
C 608 2592 634 2547 634 2122 
L 634 1039 
C 634 587 672 387 787 227 
C 928 33 1171 -64 1536 -64 
C 1824 -64 2080 26 2253 186 
L 2682 585 
C 2682 401 2675 298 2656 0 
C 3085 0 3091 0 3187 0 
C 3277 0 3277 0 3718 0 
L 3718 186 
L 3456 212 
C 3238 212 3219 251 3219 664 
L 3219 3009 
z
" transform="scale(0.015625)"/>
     </defs>
     <use xlink:href="#URWPalladioL-Roma-6c" transform="scale(0.996264)"/>
     <use xlink:href="#URWPalladioL-Roma-6f" transform="translate(28.990361 0)scale(0.996264)"/>
     <use xlink:href="#URWPalladioL-Roma-77" transform="translate(83.385942 0)scale(0.996264)"/>
     <use xlink:href="#URWPalladioL-Roma-69" transform="translate(191.380635 0)scale(0.996264)"/>
     <use xlink:href="#URWPalladioL-Roma-6e" transform="translate(220.370996 0)scale(0.996264)"/>
     <use xlink:href="#URWPalladioL-Roma-63" transform="translate(278.353057 0)scale(0.996264)"/>
     <use xlink:href="#URWPalladioL-Roma-69" transform="translate(322.586626 0)scale(0.996264)"/>
     <use xlink:href="#URWPalladioL-Roma-64" transform="translate(351.576987 0)scale(0.996264)"/>
     <use xlink:href="#URWPalladioL-Roma-65" transform="translate(412.448618 0)scale(0.996264)"/>
     <use xlink:href="#URWPalladioL-Roma-6e" transform="translate(460.168913 0)scale(0.996264)"/>
     <use xlink:href="#URWPalladioL-Roma-63" transform="translate(518.150974 0)scale(0.996264)"/>
     <use xlink:href="#URWPalladioL-Roma-65" transform="translate(562.384542 0)scale(0.996264)"/>
     <use xlink:href="#URWPalladioL-Roma-6f" transform="translate(635.011438 0)scale(0.996264)"/>
     <use xlink:href="#URWPalladioL-Roma-66" transform="translate(689.407018 0)scale(0.996264)"/>
     <use xlink:href="#URWPalladioL-Roma-63" transform="translate(747.488848 0)scale(0.996264)"/>
     <use xlink:href="#URWPalladioL-Roma-6f" transform="translate(791.722417 0)scale(0.996264)"/>
     <use xlink:href="#URWPalladioL-Roma-6d" transform="translate(846.117997 0)scale(0.996264)"/>
     <use xlink:href="#URWPalladioL-Roma-6d" transform="translate(934.087671 0)scale(0.996264)"/>
     <use xlink:href="#URWPalladioL-Roma-75" transform="translate(1022.057345 0)scale(0.996264)"/>
     <use xlink:href="#URWPalladioL-Roma-6e" transform="translate(1082.13108 0)scale(0.996264)"/>
     <use xlink:href="#URWPalladioL-Roma-69" transform="translate(1140.113141 0)scale(0.996264)"/>
     <use xlink:href="#URWPalladioL-Roma-74" transform="translate(1169.103502 0)scale(0.996264)"/>
     <use xlink:href="#URWPalladioL-Roma-79" transform="translate(1201.58059 0)scale(0.996264)"/>
     <use xlink:href="#URWPalladioL-Roma-74" transform="translate(1281.878867 0)scale(0.996264)"/>
     <use xlink:href="#URWPalladioL-Roma-72" transform="translate(1314.355955 0)scale(0.996264)"/>
     <use xlink:href="#URWPalladioL-Roma-61" transform="translate(1353.707852 0)scale(0.996264)"/>
     <use xlink:href="#URWPalladioL-Roma-6e" transform="translate(1403.521052 0)scale(0.996264)"/>
     <use xlink:href="#URWPalladioL-Roma-73" transform="translate(1461.503113 0)scale(0.996264)"/>
     <use xlink:href="#URWPalladioL-Roma-6d" transform="translate(1503.744579 0)scale(0.996264)"/>
     <use xlink:href="#URWPalladioL-Roma-69" transform="translate(1591.714253 0)scale(0.996264)"/>
     <use xlink:href="#URWPalladioL-Roma-73" transform="translate(1620.704615 0)scale(0.996264)"/>
     <use xlink:href="#URWPalladioL-Roma-73" transform="translate(1662.946081 0)scale(0.996264)"/>
     <use xlink:href="#URWPalladioL-Roma-69" transform="translate(1705.187547 0)scale(0.996264)"/>
     <use xlink:href="#URWPalladioL-Roma-6f" transform="translate(1734.177909 0)scale(0.996264)"/>
     <use xlink:href="#URWPalladioL-Roma-6e" transform="translate(1788.573489 0)scale(0.996264)"/>
    </g>
   </g>
   <g id="text_16">
    <!-- moderate incidence of community transmission -->
    <g style="fill: #ffa500" transform="translate(345.324244 24.328237)scale(0.1 -0.1)">
     <use xlink:href="#URWPalladioL-Roma-6d" transform="scale(0.996264)"/>
     <use xlink:href="#URWPalladioL-Roma-6f" transform="translate(87.969674 0)scale(0.996264)"/>
     <use xlink:href="#URWPalladioL-Roma-64" transform="translate(142.365254 0)scale(0.996264)"/>
     <use xlink:href="#URWPalladioL-Roma-65" transform="translate(203.236885 0)scale(0.996264)"/>
     <use xlink:href="#URWPalladioL-Roma-72" transform="translate(250.95718 0)scale(0.996264)"/>
     <use xlink:href="#URWPalladioL-Roma-61" transform="translate(290.309077 0)scale(0.996264)"/>
     <use xlink:href="#URWPalladioL-Roma-74" transform="translate(340.122277 0)scale(0.996264)"/>
     <use xlink:href="#URWPalladioL-Roma-65" transform="translate(372.599365 0)scale(0.996264)"/>
     <use xlink:href="#URWPalladioL-Roma-69" transform="translate(445.22626 0)scale(0.996264)"/>
     <use xlink:href="#URWPalladioL-Roma-6e" transform="translate(474.216622 0)scale(0.996264)"/>
     <use xlink:href="#URWPalladioL-Roma-63" transform="translate(532.198682 0)scale(0.996264)"/>
     <use xlink:href="#URWPalladioL-Roma-69" transform="translate(576.432251 0)scale(0.996264)"/>
     <use xlink:href="#URWPalladioL-Roma-64" transform="translate(605.422613 0)scale(0.996264)"/>
     <use xlink:href="#URWPalladioL-Roma-65" transform="translate(666.294243 0)scale(0.996264)"/>
     <use xlink:href="#URWPalladioL-Roma-6e" transform="translate(714.014538 0)scale(0.996264)"/>
     <use xlink:href="#URWPalladioL-Roma-63" transform="translate(771.996599 0)scale(0.996264)"/>
     <use xlink:href="#URWPalladioL-Roma-65" transform="translate(816.230168 0)scale(0.996264)"/>
     <use xlink:href="#URWPalladioL-Roma-6f" transform="translate(888.857063 0)scale(0.996264)"/>
     <use xlink:href="#URWPalladioL-Roma-66" transform="translate(943.252643 0)scale(0.996264)"/>
     <use xlink:href="#URWPalladioL-Roma-63" transform="translate(1001.334473 0)scale(0.996264)"/>
     <use xlink:href="#URWPalladioL-Roma-6f" transform="translate(1045.568042 0)scale(0.996264)"/>
     <use xlink:href="#URWPalladioL-Roma-6d" transform="translate(1099.963622 0)scale(0.996264)"/>
     <use xlink:href="#URWPalladioL-Roma-6d" transform="translate(1187.933296 0)scale(0.996264)"/>
     <use xlink:href="#URWPalladioL-Roma-75" transform="translate(1275.902971 0)scale(0.996264)"/>
     <use xlink:href="#URWPalladioL-Roma-6e" transform="translate(1335.976705 0)scale(0.996264)"/>
     <use xlink:href="#URWPalladioL-Roma-69" transform="translate(1393.958766 0)scale(0.996264)"/>
     <use xlink:href="#URWPalladioL-Roma-74" transform="translate(1422.949128 0)scale(0.996264)"/>
     <use xlink:href="#URWPalladioL-Roma-79" transform="translate(1455.426215 0)scale(0.996264)"/>
     <use xlink:href="#URWPalladioL-Roma-74" transform="translate(1535.724493 0)scale(0.996264)"/>
     <use xlink:href="#URWPalladioL-Roma-72" transform="translate(1568.20158 0)scale(0.996264)"/>
     <use xlink:href="#URWPalladioL-Roma-61" transform="translate(1607.553477 0)scale(0.996264)"/>
     <use xlink:href="#URWPalladioL-Roma-6e" transform="translate(1657.366677 0)scale(0.996264)"/>
     <use xlink:href="#URWPalladioL-Roma-73" transform="translate(1715.348738 0)scale(0.996264)"/>
     <use xlink:href="#URWPalladioL-Roma-6d" transform="translate(1757.590204 0)scale(0.996264)"/>
     <use xlink:href="#URWPalladioL-Roma-69" transform="translate(1845.559879 0)scale(0.996264)"/>
     <use xlink:href="#URWPalladioL-Roma-73" transform="translate(1874.55024 0)scale(0.996264)"/>
     <use xlink:href="#URWPalladioL-Roma-73" transform="translate(1916.791706 0)scale(0.996264)"/>
     <use xlink:href="#URWPalladioL-Roma-69" transform="translate(1959.033173 0)scale(0.996264)"/>
     <use xlink:href="#URWPalladioL-Roma-6f" transform="translate(1988.023534 0)scale(0.996264)"/>
     <use xlink:href="#URWPalladioL-Roma-6e" transform="translate(2042.419114 0)scale(0.996264)"/>
    </g>
   </g>
   <g id="text_17">
    <!-- high incidence of community transmission -->
    <g style="fill: #ff0000" transform="translate(345.324244 14.328237)scale(0.1 -0.1)">
     <defs>
      <path id="URWPalladioL-Roma-68" d="M 45 4248 
L 403 4248 
C 518 4248 563 4177 563 3984 
L 563 643 
C 563 237 544 192 326 192 
L 38 192 
L 38 -7 
C 474 -7 646 -7 832 -7 
C 1018 -7 1190 -7 1626 -7 
L 1626 192 
L 1338 192 
C 1120 192 1101 237 1101 643 
L 1101 2011 
C 1101 2300 1523 2616 1914 2616 
C 2342 2616 2624 2297 2624 1806 
L 2624 -7 
C 3014 -7 3021 -7 3130 -7 
C 3219 -7 3219 -7 3661 -7 
L 3661 179 
L 3398 205 
C 3181 205 3162 244 3162 654 
L 3162 1892 
C 3162 2642 2810 3008 2093 3008 
C 1856 3008 1722 2963 1587 2847 
L 1101 2424 
L 1101 4613 
L 1043 4665 
C 762 4556 550 4504 45 4427 
L 45 4248 
z
" transform="scale(0.015625)"/>
      <path id="URWPalladioL-Roma-67" d="M 3322 2432 
L 3482 2695 
L 3456 2759 
L 2547 2759 
C 2310 2937 2080 3008 1766 3008 
C 1485 3008 1158 2920 896 2768 
C 538 2567 352 2258 352 1874 
C 352 1408 646 1087 1120 1036 
L 614 640 
C 550 543 518 459 518 361 
C 518 180 634 76 941 -14 
L 384 -316 
C 294 -367 205 -604 205 -803 
C 205 -1388 774 -1792 1587 -1792 
C 2554 -1792 3315 -1182 3315 -399 
C 3315 63 3008 384 2560 384 
L 1536 384 
C 1203 384 1050 462 1050 639 
C 1050 724 1101 795 1267 939 
C 1306 972 1318 985 1344 1011 
C 1408 1004 1446 998 1498 998 
C 1773 998 2112 1118 2374 1300 
C 2662 1507 2803 1759 2803 2093 
C 2803 2218 2784 2300 2733 2432 
L 3322 2432 
z
M 1536 2790 
C 1971 2790 2266 2438 2266 1905 
C 2266 1499 1997 1216 1606 1216 
C 1178 1216 890 1542 890 2025 
C 890 2507 1126 2790 1536 2790 
z
M 1837 -65 
C 2560 -65 2810 -212 2810 -630 
C 2810 -1182 2304 -1593 1632 -1593 
C 1075 -1593 691 -1266 691 -790 
C 691 -502 858 -238 1114 -129 
C 1216 -78 1395 -65 1837 -65 
z
" transform="scale(0.015625)"/>
     </defs>
     <use xlink:href="#URWPalladioL-Roma-68" transform="scale(0.996264)"/>
     <use xlink:href="#URWPalladioL-Roma-69" transform="translate(57.982061 0)scale(0.996264)"/>
     <use xlink:href="#URWPalladioL-Roma-67" transform="translate(86.972422 0)scale(0.996264)"/>
     <use xlink:href="#URWPalladioL-Roma-68" transform="translate(142.364099 0)scale(0.996264)"/>
     <use xlink:href="#URWPalladioL-Roma-69" transform="translate(225.25276 0)scale(0.996264)"/>
     <use xlink:href="#URWPalladioL-Roma-6e" transform="translate(254.243121 0)scale(0.996264)"/>
     <use xlink:href="#URWPalladioL-Roma-63" transform="translate(312.225182 0)scale(0.996264)"/>
     <use xlink:href="#URWPalladioL-Roma-69" transform="translate(356.458751 0)scale(0.996264)"/>
     <use xlink:href="#URWPalladioL-Roma-64" transform="translate(385.449112 0)scale(0.996264)"/>
     <use xlink:href="#URWPalladioL-Roma-65" transform="translate(446.320743 0)scale(0.996264)"/>
     <use xlink:href="#URWPalladioL-Roma-6e" transform="translate(494.041038 0)scale(0.996264)"/>
     <use xlink:href="#URWPalladioL-Roma-63" transform="translate(552.023099 0)scale(0.996264)"/>
     <use xlink:href="#URWPalladioL-Roma-65" transform="translate(596.256668 0)scale(0.996264)"/>
     <use xlink:href="#URWPalladioL-Roma-6f" transform="translate(668.883563 0)scale(0.996264)"/>
     <use xlink:href="#URWPalladioL-Roma-66" transform="translate(723.279143 0)scale(0.996264)"/>
     <use xlink:href="#URWPalladioL-Roma-63" transform="translate(781.360973 0)scale(0.996264)"/>
     <use xlink:href="#URWPalladioL-Roma-6f" transform="translate(825.594542 0)scale(0.996264)"/>
     <use xlink:href="#URWPalladioL-Roma-6d" transform="translate(879.990122 0)scale(0.996264)"/>
     <use xlink:href="#URWPalladioL-Roma-6d" transform="translate(967.959796 0)scale(0.996264)"/>
     <use xlink:href="#URWPalladioL-Roma-75" transform="translate(1055.92947 0)scale(0.996264)"/>
     <use xlink:href="#URWPalladioL-Roma-6e" transform="translate(1116.003205 0)scale(0.996264)"/>
     <use xlink:href="#URWPalladioL-Roma-69" transform="translate(1173.985266 0)scale(0.996264)"/>
     <use xlink:href="#URWPalladioL-Roma-74" transform="translate(1202.975627 0)scale(0.996264)"/>
     <use xlink:href="#URWPalladioL-Roma-79" transform="translate(1235.452715 0)scale(0.996264)"/>
     <use xlink:href="#URWPalladioL-Roma-74" transform="translate(1315.750992 0)scale(0.996264)"/>
     <use xlink:href="#URWPalladioL-Roma-72" transform="translate(1348.22808 0)scale(0.996264)"/>
     <use xlink:href="#URWPalladioL-Roma-61" transform="translate(1387.579977 0)scale(0.996264)"/>
     <use xlink:href="#URWPalladioL-Roma-6e" transform="translate(1437.393177 0)scale(0.996264)"/>
     <use xlink:href="#URWPalladioL-Roma-73" transform="translate(1495.375238 0)scale(0.996264)"/>
     <use xlink:href="#URWPalladioL-Roma-6d" transform="translate(1537.616704 0)scale(0.996264)"/>
     <use xlink:href="#URWPalladioL-Roma-69" transform="translate(1625.586378 0)scale(0.996264)"/>
     <use xlink:href="#URWPalladioL-Roma-73" transform="translate(1654.57674 0)scale(0.996264)"/>
     <use xlink:href="#URWPalladioL-Roma-73" transform="translate(1696.818206 0)scale(0.996264)"/>
     <use xlink:href="#URWPalladioL-Roma-69" transform="translate(1739.059672 0)scale(0.996264)"/>
     <use xlink:href="#URWPalladioL-Roma-6f" transform="translate(1768.050034 0)scale(0.996264)"/>
     <use xlink:href="#URWPalladioL-Roma-6e" transform="translate(1822.445614 0)scale(0.996264)"/>
    </g>
   </g>
  </g>
 </g>
 <defs>
  <clipPath id="pdfaa9067fa">
   <rect x="57.954244" y="17.168824" width="279" height="221.76"/>
  </clipPath>
 </defs>
</svg>
