<?xml version="1.0" encoding="utf-8" standalone="no"?>
<!DOCTYPE svg PUBLIC "-//W3C//DTD SVG 1.1//EN"
  "http://www.w3.org/Graphics/SVG/1.1/DTD/svg11.dtd">
<svg height="314.616762pt" version="1.1" viewBox="0 0 562.564125 314.616762" width="562.564125pt" xmlns="http://www.w3.org/2000/svg" xmlns:xlink="http://www.w3.org/1999/xlink">
 <metadata>
  <rdf:RDF xmlns:cc="http://creativecommons.org/ns#" xmlns:dc="http://purl.org/dc/elements/1.1/" xmlns:rdf="http://www.w3.org/1999/02/22-rdf-syntax-ns#">
   <cc:Work>
    <dc:type rdf:resource="http://purl.org/dc/dcmitype/StillImage"/>
    <dc:format>image/svg+xml</dc:format>
    <dc:creator>
     <cc:Agent>
      <dc:title>Matplotlib v3.4.3, https://matplotlib.org/</dc:title>
     </cc:Agent>
    </dc:creator>
   </cc:Work>
  </rdf:RDF>
 </metadata>
 <defs>
  <style type="text/css">*{stroke-linecap:butt;stroke-linejoin:round;}</style>
 </defs>
 <g id="figure_1">
  <g id="patch_1">
   <path d="M 0 314.616762 
L 562.564125 314.616762 
L 562.564125 0 
L 0 0 
z
" style="fill:#ffffff;"/>
  </g>
  <g id="axes_1">
   <g id="patch_2">
    <path d="M 57.954244 243.928824 
L 336.954244 243.928824 
L 336.954244 22.168824 
L 57.954244 22.168824 
z
" style="fill:#ffffff;"/>
   </g>
   <g id="patch_3">
    <path clip-path="url(#p2d0f8e3c1c)" d="M 58.172213 243.928824 
L 59.915963 243.928824 
L 59.915963 148.813753 
L 58.172213 148.813753 
z
" style="fill:#1f77b4;"/>
   </g>
   <g id="patch_4">
    <path clip-path="url(#p2d0f8e3c1c)" d="M 60.351901 243.928824 
L 62.095651 243.928824 
L 62.095651 134.099819 
L 60.351901 134.099819 
z
" style="fill:#1f77b4;"/>
   </g>
   <g id="patch_5">
    <path clip-path="url(#p2d0f8e3c1c)" d="M 62.531588 243.928824 
L 64.275338 243.928824 
L 64.275338 128.319346 
L 62.531588 128.319346 
z
" style="fill:#1f77b4;"/>
   </g>
   <g id="patch_6">
    <path clip-path="url(#p2d0f8e3c1c)" d="M 64.711276 243.928824 
L 66.455026 243.928824 
L 66.455026 122.013374 
L 64.711276 122.013374 
z
" style="fill:#1f77b4;"/>
   </g>
   <g id="patch_7">
    <path clip-path="url(#p2d0f8e3c1c)" d="M 66.890963 243.928824 
L 68.634713 243.928824 
L 68.634713 125.691857 
L 66.890963 125.691857 
z
" style="fill:#1f77b4;"/>
   </g>
   <g id="patch_8">
    <path clip-path="url(#p2d0f8e3c1c)" d="M 69.070651 243.928824 
L 70.814401 243.928824 
L 70.814401 140.405791 
L 69.070651 140.405791 
z
" style="fill:#1f77b4;"/>
   </g>
   <g id="patch_9">
    <path clip-path="url(#p2d0f8e3c1c)" d="M 71.250338 243.928824 
L 72.994088 243.928824 
L 72.994088 149.864748 
L 71.250338 149.864748 
z
" style="fill:#1f77b4;"/>
   </g>
   <g id="patch_10">
    <path clip-path="url(#p2d0f8e3c1c)" d="M 73.430026 243.928824 
L 75.173776 243.928824 
L 75.173776 150.915744 
L 73.430026 150.915744 
z
" style="fill:#1f77b4;"/>
   </g>
   <g id="patch_11">
    <path clip-path="url(#p2d0f8e3c1c)" d="M 75.609713 243.928824 
L 77.353463 243.928824 
L 77.353463 149.339251 
L 75.609713 149.339251 
z
" style="fill:#1f77b4;"/>
   </g>
   <g id="patch_12">
    <path clip-path="url(#p2d0f8e3c1c)" d="M 77.789401 243.928824 
L 79.533151 243.928824 
L 79.533151 158.798208 
L 77.789401 158.798208 
z
" style="fill:#1f77b4;"/>
   </g>
   <g id="patch_13">
    <path clip-path="url(#p2d0f8e3c1c)" d="M 79.969088 243.928824 
L 81.712838 243.928824 
L 81.712838 164.053184 
L 79.969088 164.053184 
z
" style="fill:#1f77b4;"/>
   </g>
   <g id="patch_14">
    <path clip-path="url(#p2d0f8e3c1c)" d="M 82.148776 243.928824 
L 83.892526 243.928824 
L 83.892526 168.257165 
L 82.148776 168.257165 
z
" style="fill:#1f77b4;"/>
   </g>
   <g id="patch_15">
    <path clip-path="url(#p2d0f8e3c1c)" d="M 84.328463 243.928824 
L 86.072213 243.928824 
L 86.072213 169.833658 
L 84.328463 169.833658 
z
" style="fill:#1f77b4;"/>
   </g>
   <g id="patch_16">
    <path clip-path="url(#p2d0f8e3c1c)" d="M 86.508151 243.928824 
L 88.251901 243.928824 
L 88.251901 175.088635 
L 86.508151 175.088635 
z
" style="fill:#1f77b4;"/>
   </g>
   <g id="patch_17">
    <path clip-path="url(#p2d0f8e3c1c)" d="M 88.687838 243.928824 
L 90.431588 243.928824 
L 90.431588 177.716123 
L 88.687838 177.716123 
z
" style="fill:#1f77b4;"/>
   </g>
   <g id="patch_18">
    <path clip-path="url(#p2d0f8e3c1c)" d="M 90.867526 243.928824 
L 92.611276 243.928824 
L 92.611276 187.17508 
L 90.867526 187.17508 
z
" style="fill:#1f77b4;"/>
   </g>
   <g id="patch_19">
    <path clip-path="url(#p2d0f8e3c1c)" d="M 93.047213 243.928824 
L 94.790963 243.928824 
L 94.790963 189.277071 
L 93.047213 189.277071 
z
" style="fill:#1f77b4;"/>
   </g>
   <g id="patch_20">
    <path clip-path="url(#p2d0f8e3c1c)" d="M 95.226901 243.928824 
L 96.970651 243.928824 
L 96.970651 184.547592 
L 95.226901 184.547592 
z
" style="fill:#1f77b4;"/>
   </g>
   <g id="patch_21">
    <path clip-path="url(#p2d0f8e3c1c)" d="M 97.406588 243.928824 
L 99.150338 243.928824 
L 99.150338 186.649582 
L 97.406588 186.649582 
z
" style="fill:#1f77b4;"/>
   </g>
   <g id="patch_22">
    <path clip-path="url(#p2d0f8e3c1c)" d="M 99.586276 243.928824 
L 101.330026 243.928824 
L 101.330026 194.006549 
L 99.586276 194.006549 
z
" style="fill:#1f77b4;"/>
   </g>
   <g id="patch_23">
    <path clip-path="url(#p2d0f8e3c1c)" d="M 101.765963 243.928824 
L 103.509713 243.928824 
L 103.509713 193.481052 
L 101.765963 193.481052 
z
" style="fill:#1f77b4;"/>
   </g>
   <g id="patch_24">
    <path clip-path="url(#p2d0f8e3c1c)" d="M 103.945651 243.928824 
L 105.689401 243.928824 
L 105.689401 195.583042 
L 103.945651 195.583042 
z
" style="fill:#1f77b4;"/>
   </g>
   <g id="patch_25">
    <path clip-path="url(#p2d0f8e3c1c)" d="M 106.125338 243.928824 
L 107.869088 243.928824 
L 107.869088 198.736028 
L 106.125338 198.736028 
z
" style="fill:#1f77b4;"/>
   </g>
   <g id="patch_26">
    <path clip-path="url(#p2d0f8e3c1c)" d="M 108.305026 243.928824 
L 110.048776 243.928824 
L 110.048776 203.991004 
L 108.305026 203.991004 
z
" style="fill:#1f77b4;"/>
   </g>
   <g id="patch_27">
    <path clip-path="url(#p2d0f8e3c1c)" d="M 110.484713 243.928824 
L 112.228463 243.928824 
L 112.228463 205.042 
L 110.484713 205.042 
z
" style="fill:#1f77b4;"/>
   </g>
   <g id="patch_28">
    <path clip-path="url(#p2d0f8e3c1c)" d="M 112.664401 243.928824 
L 114.408151 243.928824 
L 114.408151 201.889014 
L 112.664401 201.889014 
z
" style="fill:#1f77b4;"/>
   </g>
   <g id="patch_29">
    <path clip-path="url(#p2d0f8e3c1c)" d="M 114.844088 243.928824 
L 116.587838 243.928824 
L 116.587838 198.736028 
L 114.844088 198.736028 
z
" style="fill:#1f77b4;"/>
   </g>
   <g id="patch_30">
    <path clip-path="url(#p2d0f8e3c1c)" d="M 117.023776 243.928824 
L 118.767526 243.928824 
L 118.767526 202.940009 
L 117.023776 202.940009 
z
" style="fill:#1f77b4;"/>
   </g>
   <g id="patch_31">
    <path clip-path="url(#p2d0f8e3c1c)" d="M 119.203463 243.928824 
L 120.947213 243.928824 
L 120.947213 200.838018 
L 119.203463 200.838018 
z
" style="fill:#1f77b4;"/>
   </g>
   <g id="patch_32">
    <path clip-path="url(#p2d0f8e3c1c)" d="M 121.383151 243.928824 
L 123.126901 243.928824 
L 123.126901 192.955554 
L 121.383151 192.955554 
z
" style="fill:#1f77b4;"/>
   </g>
   <g id="patch_33">
    <path clip-path="url(#p2d0f8e3c1c)" d="M 123.562838 243.928824 
L 125.306588 243.928824 
L 125.306588 185.598587 
L 123.562838 185.598587 
z
" style="fill:#1f77b4;"/>
   </g>
   <g id="patch_34">
    <path clip-path="url(#p2d0f8e3c1c)" d="M 125.742526 243.928824 
L 127.486276 243.928824 
L 127.486276 188.751573 
L 125.742526 188.751573 
z
" style="fill:#1f77b4;"/>
   </g>
   <g id="patch_35">
    <path clip-path="url(#p2d0f8e3c1c)" d="M 127.922213 243.928824 
L 129.665963 243.928824 
L 129.665963 186.649582 
L 127.922213 186.649582 
z
" style="fill:#1f77b4;"/>
   </g>
   <g id="patch_36">
    <path clip-path="url(#p2d0f8e3c1c)" d="M 130.101901 243.928824 
L 131.845651 243.928824 
L 131.845651 186.124085 
L 130.101901 186.124085 
z
" style="fill:#1f77b4;"/>
   </g>
   <g id="patch_37">
    <path clip-path="url(#p2d0f8e3c1c)" d="M 132.281588 243.928824 
L 134.025338 243.928824 
L 134.025338 180.343611 
L 132.281588 180.343611 
z
" style="fill:#1f77b4;"/>
   </g>
   <g id="patch_38">
    <path clip-path="url(#p2d0f8e3c1c)" d="M 134.461276 243.928824 
L 136.205026 243.928824 
L 136.205026 182.971099 
L 134.461276 182.971099 
z
" style="fill:#1f77b4;"/>
   </g>
   <g id="patch_39">
    <path clip-path="url(#p2d0f8e3c1c)" d="M 136.640963 243.928824 
L 138.384713 243.928824 
L 138.384713 182.445601 
L 136.640963 182.445601 
z
" style="fill:#1f77b4;"/>
   </g>
   <g id="patch_40">
    <path clip-path="url(#p2d0f8e3c1c)" d="M 138.820651 243.928824 
L 140.564401 243.928824 
L 140.564401 180.869109 
L 138.820651 180.869109 
z
" style="fill:#1f77b4;"/>
   </g>
   <g id="patch_41">
    <path clip-path="url(#p2d0f8e3c1c)" d="M 141.000338 243.928824 
L 142.744088 243.928824 
L 142.744088 177.716123 
L 141.000338 177.716123 
z
" style="fill:#1f77b4;"/>
   </g>
   <g id="patch_42">
    <path clip-path="url(#p2d0f8e3c1c)" d="M 143.180026 243.928824 
L 144.923776 243.928824 
L 144.923776 173.512142 
L 143.180026 173.512142 
z
" style="fill:#1f77b4;"/>
   </g>
   <g id="patch_43">
    <path clip-path="url(#p2d0f8e3c1c)" d="M 145.359713 243.928824 
L 147.103463 243.928824 
L 147.103463 170.359156 
L 145.359713 170.359156 
z
" style="fill:#1f77b4;"/>
   </g>
   <g id="patch_44">
    <path clip-path="url(#p2d0f8e3c1c)" d="M 147.539401 243.928824 
L 149.283151 243.928824 
L 149.283151 167.20617 
L 147.539401 167.20617 
z
" style="fill:#1f77b4;"/>
   </g>
   <g id="patch_45">
    <path clip-path="url(#p2d0f8e3c1c)" d="M 149.719088 243.928824 
L 151.462838 243.928824 
L 151.462838 162.476691 
L 149.719088 162.476691 
z
" style="fill:#1f77b4;"/>
   </g>
   <g id="patch_46">
    <path clip-path="url(#p2d0f8e3c1c)" d="M 151.898776 243.928824 
L 153.642526 243.928824 
L 153.642526 163.002189 
L 151.898776 163.002189 
z
" style="fill:#1f77b4;"/>
   </g>
   <g id="patch_47">
    <path clip-path="url(#p2d0f8e3c1c)" d="M 154.078463 243.928824 
L 155.822213 243.928824 
L 155.822213 160.900199 
L 154.078463 160.900199 
z
" style="fill:#1f77b4;"/>
   </g>
   <g id="patch_48">
    <path clip-path="url(#p2d0f8e3c1c)" d="M 156.258151 243.928824 
L 158.001901 243.928824 
L 158.001901 155.645222 
L 156.258151 155.645222 
z
" style="fill:#1f77b4;"/>
   </g>
   <g id="patch_49">
    <path clip-path="url(#p2d0f8e3c1c)" d="M 158.437838 243.928824 
L 160.181588 243.928824 
L 160.181588 154.068729 
L 158.437838 154.068729 
z
" style="fill:#1f77b4;"/>
   </g>
   <g id="patch_50">
    <path clip-path="url(#p2d0f8e3c1c)" d="M 160.617526 243.928824 
L 162.361276 243.928824 
L 162.361276 143.033279 
L 160.617526 143.033279 
z
" style="fill:#1f77b4;"/>
   </g>
   <g id="patch_51">
    <path clip-path="url(#p2d0f8e3c1c)" d="M 162.797213 243.928824 
L 164.540963 243.928824 
L 164.540963 136.727308 
L 162.797213 136.727308 
z
" style="fill:#1f77b4;"/>
   </g>
   <g id="patch_52">
    <path clip-path="url(#p2d0f8e3c1c)" d="M 164.976901 243.928824 
L 166.720651 243.928824 
L 166.720651 132.523327 
L 164.976901 132.523327 
z
" style="fill:#1f77b4;"/>
   </g>
   <g id="patch_53">
    <path clip-path="url(#p2d0f8e3c1c)" d="M 167.156588 243.928824 
L 168.900338 243.928824 
L 168.900338 131.472331 
L 167.156588 131.472331 
z
" style="fill:#1f77b4;"/>
   </g>
   <g id="patch_54">
    <path clip-path="url(#p2d0f8e3c1c)" d="M 169.336276 243.928824 
L 171.080026 243.928824 
L 171.080026 119.385886 
L 169.336276 119.385886 
z
" style="fill:#1f77b4;"/>
   </g>
   <g id="patch_55">
    <path clip-path="url(#p2d0f8e3c1c)" d="M 171.515963 243.928824 
L 173.259713 243.928824 
L 173.259713 99.416976 
L 171.515963 99.416976 
z
" style="fill:#1f77b4;"/>
   </g>
   <g id="patch_56">
    <path clip-path="url(#p2d0f8e3c1c)" d="M 173.695651 243.928824 
L 175.439401 243.928824 
L 175.439401 86.279535 
L 173.695651 86.279535 
z
" style="fill:#1f77b4;"/>
   </g>
   <g id="patch_57">
    <path clip-path="url(#p2d0f8e3c1c)" d="M 175.875338 243.928824 
L 177.619088 243.928824 
L 177.619088 84.177545 
L 175.875338 84.177545 
z
" style="fill:#1f77b4;"/>
   </g>
   <g id="patch_58">
    <path clip-path="url(#p2d0f8e3c1c)" d="M 178.055026 243.928824 
L 179.798776 243.928824 
L 179.798776 78.397071 
L 178.055026 78.397071 
z
" style="fill:#1f77b4;"/>
   </g>
   <g id="patch_59">
    <path clip-path="url(#p2d0f8e3c1c)" d="M 180.234713 243.928824 
L 181.978463 243.928824 
L 181.978463 76.29508 
L 180.234713 76.29508 
z
" style="fill:#1f77b4;"/>
   </g>
   <g id="patch_60">
    <path clip-path="url(#p2d0f8e3c1c)" d="M 182.414401 243.928824 
L 184.158151 243.928824 
L 184.158151 65.785128 
L 182.414401 65.785128 
z
" style="fill:#1f77b4;"/>
   </g>
   <g id="patch_61">
    <path clip-path="url(#p2d0f8e3c1c)" d="M 184.594088 243.928824 
L 186.337838 243.928824 
L 186.337838 62.632142 
L 184.594088 62.632142 
z
" style="fill:#1f77b4;"/>
   </g>
   <g id="patch_62">
    <path clip-path="url(#p2d0f8e3c1c)" d="M 186.773776 243.928824 
L 188.517526 243.928824 
L 188.517526 67.887118 
L 186.773776 67.887118 
z
" style="fill:#1f77b4;"/>
   </g>
   <g id="patch_63">
    <path clip-path="url(#p2d0f8e3c1c)" d="M 188.953463 243.928824 
L 190.697213 243.928824 
L 190.697213 74.19309 
L 188.953463 74.19309 
z
" style="fill:#1f77b4;"/>
   </g>
   <g id="patch_64">
    <path clip-path="url(#p2d0f8e3c1c)" d="M 191.133151 243.928824 
L 192.876901 243.928824 
L 192.876901 76.29508 
L 191.133151 76.29508 
z
" style="fill:#1f77b4;"/>
   </g>
   <g id="patch_65">
    <path clip-path="url(#p2d0f8e3c1c)" d="M 193.312838 243.928824 
L 195.056588 243.928824 
L 195.056588 71.565601 
L 193.312838 71.565601 
z
" style="fill:#1f77b4;"/>
   </g>
   <g id="patch_66">
    <path clip-path="url(#p2d0f8e3c1c)" d="M 195.492526 243.928824 
L 197.236276 243.928824 
L 197.236276 64.208635 
L 195.492526 64.208635 
z
" style="fill:#1f77b4;"/>
   </g>
   <g id="patch_67">
    <path clip-path="url(#p2d0f8e3c1c)" d="M 197.672213 243.928824 
L 199.415963 243.928824 
L 199.415963 59.479156 
L 197.672213 59.479156 
z
" style="fill:#1f77b4;"/>
   </g>
   <g id="patch_68">
    <path clip-path="url(#p2d0f8e3c1c)" d="M 199.851901 243.928824 
L 201.595651 243.928824 
L 201.595651 51.596691 
L 199.851901 51.596691 
z
" style="fill:#1f77b4;"/>
   </g>
   <g id="patch_69">
    <path clip-path="url(#p2d0f8e3c1c)" d="M 202.031588 243.928824 
L 203.775338 243.928824 
L 203.775338 46.341715 
L 202.031588 46.341715 
z
" style="fill:#1f77b4;"/>
   </g>
   <g id="patch_70">
    <path clip-path="url(#p2d0f8e3c1c)" d="M 204.211276 243.928824 
L 205.955026 243.928824 
L 205.955026 36.35726 
L 204.211276 36.35726 
z
" style="fill:#1f77b4;"/>
   </g>
   <g id="patch_71">
    <path clip-path="url(#p2d0f8e3c1c)" d="M 206.390963 243.928824 
L 208.134713 243.928824 
L 208.134713 29.525791 
L 206.390963 29.525791 
z
" style="fill:#1f77b4;"/>
   </g>
   <g id="patch_72">
    <path clip-path="url(#p2d0f8e3c1c)" d="M 208.570651 243.928824 
L 210.314401 243.928824 
L 210.314401 28.474796 
L 208.570651 28.474796 
z
" style="fill:#1f77b4;"/>
   </g>
   <g id="patch_73">
    <path clip-path="url(#p2d0f8e3c1c)" d="M 210.750338 243.928824 
L 212.494088 243.928824 
L 212.494088 22.168824 
L 210.750338 22.168824 
z
" style="fill:#1f77b4;"/>
   </g>
   <g id="patch_74">
    <path clip-path="url(#p2d0f8e3c1c)" d="M 212.930026 243.928824 
L 214.673776 243.928824 
L 214.673776 22.694322 
L 212.930026 22.694322 
z
" style="fill:#1f77b4;"/>
   </g>
   <g id="patch_75">
    <path clip-path="url(#p2d0f8e3c1c)" d="M 215.109713 243.928824 
L 216.853463 243.928824 
L 216.853463 24.796312 
L 215.109713 24.796312 
z
" style="fill:#1f77b4;"/>
   </g>
   <g id="patch_76">
    <path clip-path="url(#p2d0f8e3c1c)" d="M 217.289401 243.928824 
L 219.033151 243.928824 
L 219.033151 24.796312 
L 217.289401 24.796312 
z
" style="fill:#1f77b4;"/>
   </g>
   <g id="patch_77">
    <path clip-path="url(#p2d0f8e3c1c)" d="M 219.469088 243.928824 
L 221.212838 243.928824 
L 221.212838 26.372805 
L 219.469088 26.372805 
z
" style="fill:#1f77b4;"/>
   </g>
   <g id="patch_78">
    <path clip-path="url(#p2d0f8e3c1c)" d="M 221.648776 243.928824 
L 223.392526 243.928824 
L 223.392526 24.270815 
L 221.648776 24.270815 
z
" style="fill:#1f77b4;"/>
   </g>
   <g id="patch_79">
    <path clip-path="url(#p2d0f8e3c1c)" d="M 223.828463 243.928824 
L 225.572213 243.928824 
L 225.572213 23.745317 
L 223.828463 23.745317 
z
" style="fill:#1f77b4;"/>
   </g>
   <g id="patch_80">
    <path clip-path="url(#p2d0f8e3c1c)" d="M 226.008151 243.928824 
L 227.751901 243.928824 
L 227.751901 31.627782 
L 226.008151 31.627782 
z
" style="fill:#1f77b4;"/>
   </g>
   <g id="patch_81">
    <path clip-path="url(#p2d0f8e3c1c)" d="M 228.187838 243.928824 
L 229.931588 243.928824 
L 229.931588 40.035744 
L 228.187838 40.035744 
z
" style="fill:#1f77b4;"/>
   </g>
   <g id="patch_82">
    <path clip-path="url(#p2d0f8e3c1c)" d="M 230.367526 243.928824 
L 232.111276 243.928824 
L 232.111276 39.510246 
L 230.367526 39.510246 
z
" style="fill:#1f77b4;"/>
   </g>
   <g id="patch_83">
    <path clip-path="url(#p2d0f8e3c1c)" d="M 232.547213 243.928824 
L 234.290963 243.928824 
L 234.290963 37.408255 
L 232.547213 37.408255 
z
" style="fill:#1f77b4;"/>
   </g>
   <g id="patch_84">
    <path clip-path="url(#p2d0f8e3c1c)" d="M 234.726901 243.928824 
L 236.470651 243.928824 
L 236.470651 33.204274 
L 234.726901 33.204274 
z
" style="fill:#1f77b4;"/>
   </g>
   <g id="patch_85">
    <path clip-path="url(#p2d0f8e3c1c)" d="M 236.906588 243.928824 
L 238.650338 243.928824 
L 238.650338 31.102284 
L 236.906588 31.102284 
z
" style="fill:#1f77b4;"/>
   </g>
   <g id="patch_86">
    <path clip-path="url(#p2d0f8e3c1c)" d="M 239.086276 243.928824 
L 240.830026 243.928824 
L 240.830026 34.25527 
L 239.086276 34.25527 
z
" style="fill:#1f77b4;"/>
   </g>
   <g id="patch_87">
    <path clip-path="url(#p2d0f8e3c1c)" d="M 241.265963 243.928824 
L 243.009713 243.928824 
L 243.009713 38.459251 
L 241.265963 38.459251 
z
" style="fill:#1f77b4;"/>
   </g>
   <g id="patch_88">
    <path clip-path="url(#p2d0f8e3c1c)" d="M 243.445651 243.928824 
L 245.189401 243.928824 
L 245.189401 34.25527 
L 243.445651 34.25527 
z
" style="fill:#1f77b4;"/>
   </g>
   <g id="patch_89">
    <path clip-path="url(#p2d0f8e3c1c)" d="M 245.625338 243.928824 
L 247.369088 243.928824 
L 247.369088 36.882758 
L 245.625338 36.882758 
z
" style="fill:#1f77b4;"/>
   </g>
   <g id="patch_90">
    <path clip-path="url(#p2d0f8e3c1c)" d="M 247.805026 243.928824 
L 249.548776 243.928824 
L 249.548776 40.035744 
L 247.805026 40.035744 
z
" style="fill:#1f77b4;"/>
   </g>
   <g id="patch_91">
    <path clip-path="url(#p2d0f8e3c1c)" d="M 249.984713 243.928824 
L 251.728463 243.928824 
L 251.728463 42.137734 
L 249.984713 42.137734 
z
" style="fill:#1f77b4;"/>
   </g>
   <g id="patch_92">
    <path clip-path="url(#p2d0f8e3c1c)" d="M 252.164401 243.928824 
L 253.908151 243.928824 
L 253.908151 49.494701 
L 252.164401 49.494701 
z
" style="fill:#1f77b4;"/>
   </g>
   <g id="patch_93">
    <path clip-path="url(#p2d0f8e3c1c)" d="M 254.344088 243.928824 
L 256.087838 243.928824 
L 256.087838 50.020199 
L 254.344088 50.020199 
z
" style="fill:#1f77b4;"/>
   </g>
   <g id="patch_94">
    <path clip-path="url(#p2d0f8e3c1c)" d="M 256.523776 243.928824 
L 258.267526 243.928824 
L 258.267526 40.561241 
L 256.523776 40.561241 
z
" style="fill:#1f77b4;"/>
   </g>
   <g id="patch_95">
    <path clip-path="url(#p2d0f8e3c1c)" d="M 258.703463 243.928824 
L 260.447213 243.928824 
L 260.447213 40.035744 
L 258.703463 40.035744 
z
" style="fill:#1f77b4;"/>
   </g>
   <g id="patch_96">
    <path clip-path="url(#p2d0f8e3c1c)" d="M 260.883151 243.928824 
L 262.626901 243.928824 
L 262.626901 41.086739 
L 260.883151 41.086739 
z
" style="fill:#1f77b4;"/>
   </g>
   <g id="patch_97">
    <path clip-path="url(#p2d0f8e3c1c)" d="M 263.062838 243.928824 
L 264.806588 243.928824 
L 264.806588 43.188729 
L 263.062838 43.188729 
z
" style="fill:#1f77b4;"/>
   </g>
   <g id="patch_98">
    <path clip-path="url(#p2d0f8e3c1c)" d="M 265.242526 243.928824 
L 266.986276 243.928824 
L 266.986276 49.494701 
L 265.242526 49.494701 
z
" style="fill:#1f77b4;"/>
   </g>
   <g id="patch_99">
    <path clip-path="url(#p2d0f8e3c1c)" d="M 267.422213 243.928824 
L 269.165963 243.928824 
L 269.165963 49.494701 
L 267.422213 49.494701 
z
" style="fill:#1f77b4;"/>
   </g>
   <g id="patch_100">
    <path clip-path="url(#p2d0f8e3c1c)" d="M 269.601901 243.928824 
L 271.345651 243.928824 
L 271.345651 62.632142 
L 269.601901 62.632142 
z
" style="fill:#1f77b4;"/>
   </g>
   <g id="patch_101">
    <path clip-path="url(#p2d0f8e3c1c)" d="M 271.781588 243.928824 
L 273.525338 243.928824 
L 273.525338 68.412616 
L 271.781588 68.412616 
z
" style="fill:#1f77b4;"/>
   </g>
   <g id="patch_102">
    <path clip-path="url(#p2d0f8e3c1c)" d="M 273.961276 243.928824 
L 275.705026 243.928824 
L 275.705026 72.616597 
L 273.961276 72.616597 
z
" style="fill:#1f77b4;"/>
   </g>
   <g id="patch_103">
    <path clip-path="url(#p2d0f8e3c1c)" d="M 276.140963 243.928824 
L 277.884713 243.928824 
L 277.884713 80.499061 
L 276.140963 80.499061 
z
" style="fill:#1f77b4;"/>
   </g>
   <g id="patch_104">
    <path clip-path="url(#p2d0f8e3c1c)" d="M 278.320651 243.928824 
L 280.064401 243.928824 
L 280.064401 93.111004 
L 278.320651 93.111004 
z
" style="fill:#1f77b4;"/>
   </g>
   <g id="patch_105">
    <path clip-path="url(#p2d0f8e3c1c)" d="M 280.500338 243.928824 
L 282.244088 243.928824 
L 282.244088 98.365981 
L 280.500338 98.365981 
z
" style="fill:#1f77b4;"/>
   </g>
   <g id="patch_106">
    <path clip-path="url(#p2d0f8e3c1c)" d="M 282.680026 243.928824 
L 284.423776 243.928824 
L 284.423776 109.926928 
L 282.680026 109.926928 
z
" style="fill:#1f77b4;"/>
   </g>
   <g id="patch_107">
    <path clip-path="url(#p2d0f8e3c1c)" d="M 284.859713 243.928824 
L 286.603463 243.928824 
L 286.603463 98.891478 
L 284.859713 98.891478 
z
" style="fill:#1f77b4;"/>
   </g>
   <g id="patch_108">
    <path clip-path="url(#p2d0f8e3c1c)" d="M 287.039401 243.928824 
L 288.783151 243.928824 
L 288.783151 102.044464 
L 287.039401 102.044464 
z
" style="fill:#1f77b4;"/>
   </g>
   <g id="patch_109">
    <path clip-path="url(#p2d0f8e3c1c)" d="M 289.219088 243.928824 
L 290.962838 243.928824 
L 290.962838 103.620957 
L 289.219088 103.620957 
z
" style="fill:#1f77b4;"/>
   </g>
   <g id="patch_110">
    <path clip-path="url(#p2d0f8e3c1c)" d="M 291.398776 243.928824 
L 293.142526 243.928824 
L 293.142526 104.146455 
L 291.398776 104.146455 
z
" style="fill:#1f77b4;"/>
   </g>
   <g id="patch_111">
    <path clip-path="url(#p2d0f8e3c1c)" d="M 293.578463 243.928824 
L 295.322213 243.928824 
L 295.322213 105.19745 
L 293.578463 105.19745 
z
" style="fill:#1f77b4;"/>
   </g>
   <g id="patch_112">
    <path clip-path="url(#p2d0f8e3c1c)" d="M 295.758151 243.928824 
L 297.501901 243.928824 
L 297.501901 105.722947 
L 295.758151 105.722947 
z
" style="fill:#1f77b4;"/>
   </g>
   <g id="patch_113">
    <path clip-path="url(#p2d0f8e3c1c)" d="M 297.937838 243.928824 
L 299.681588 243.928824 
L 299.681588 99.416976 
L 297.937838 99.416976 
z
" style="fill:#1f77b4;"/>
   </g>
   <g id="patch_114">
    <path clip-path="url(#p2d0f8e3c1c)" d="M 300.117526 243.928824 
L 301.861276 243.928824 
L 301.861276 116.2329 
L 300.117526 116.2329 
z
" style="fill:#1f77b4;"/>
   </g>
   <g id="patch_115">
    <path clip-path="url(#p2d0f8e3c1c)" d="M 302.297213 243.928824 
L 304.040963 243.928824 
L 304.040963 117.809393 
L 302.297213 117.809393 
z
" style="fill:#1f77b4;"/>
   </g>
   <g id="patch_116">
    <path clip-path="url(#p2d0f8e3c1c)" d="M 304.476901 243.928824 
L 306.220651 243.928824 
L 306.220651 112.554417 
L 304.476901 112.554417 
z
" style="fill:#1f77b4;"/>
   </g>
   <g id="patch_117">
    <path clip-path="url(#p2d0f8e3c1c)" d="M 306.656588 243.928824 
L 308.400338 243.928824 
L 308.400338 101.518966 
L 306.656588 101.518966 
z
" style="fill:#1f77b4;"/>
   </g>
   <g id="patch_118">
    <path clip-path="url(#p2d0f8e3c1c)" d="M 308.836276 243.928824 
L 310.580026 243.928824 
L 310.580026 103.620957 
L 308.836276 103.620957 
z
" style="fill:#1f77b4;"/>
   </g>
   <g id="patch_119">
    <path clip-path="url(#p2d0f8e3c1c)" d="M 311.015963 243.928824 
L 312.759713 243.928824 
L 312.759713 105.722947 
L 311.015963 105.722947 
z
" style="fill:#1f77b4;"/>
   </g>
   <g id="patch_120">
    <path clip-path="url(#p2d0f8e3c1c)" d="M 313.195651 243.928824 
L 314.939401 243.928824 
L 314.939401 107.29944 
L 313.195651 107.29944 
z
" style="fill:#1f77b4;"/>
   </g>
   <g id="patch_121">
    <path clip-path="url(#p2d0f8e3c1c)" d="M 315.375338 243.928824 
L 317.119088 243.928824 
L 317.119088 94.162 
L 315.375338 94.162 
z
" style="fill:#1f77b4;"/>
   </g>
   <g id="patch_122">
    <path clip-path="url(#p2d0f8e3c1c)" d="M 317.555026 243.928824 
L 319.298776 243.928824 
L 319.298776 94.162 
L 317.555026 94.162 
z
" style="fill:#1f77b4;"/>
   </g>
   <g id="patch_123">
    <path clip-path="url(#p2d0f8e3c1c)" d="M 319.734713 243.928824 
L 321.478463 243.928824 
L 321.478463 101.518966 
L 319.734713 101.518966 
z
" style="fill:#1f77b4;"/>
   </g>
   <g id="patch_124">
    <path clip-path="url(#p2d0f8e3c1c)" d="M 321.914401 243.928824 
L 323.658151 243.928824 
L 323.658151 113.079914 
L 321.914401 113.079914 
z
" style="fill:#1f77b4;"/>
   </g>
   <g id="patch_125">
    <path clip-path="url(#p2d0f8e3c1c)" d="M 324.094088 243.928824 
L 325.837838 243.928824 
L 325.837838 104.146455 
L 324.094088 104.146455 
z
" style="fill:#1f77b4;"/>
   </g>
   <g id="patch_126">
    <path clip-path="url(#p2d0f8e3c1c)" d="M 326.273776 243.928824 
L 328.017526 243.928824 
L 328.017526 96.789488 
L 326.273776 96.789488 
z
" style="fill:#1f77b4;"/>
   </g>
   <g id="patch_127">
    <path clip-path="url(#p2d0f8e3c1c)" d="M 328.453463 243.928824 
L 330.197213 243.928824 
L 330.197213 99.942473 
L 328.453463 99.942473 
z
" style="fill:#1f77b4;"/>
   </g>
   <g id="patch_128">
    <path clip-path="url(#p2d0f8e3c1c)" d="M 330.633151 243.928824 
L 332.376901 243.928824 
L 332.376901 100.993469 
L 330.633151 100.993469 
z
" style="fill:#1f77b4;"/>
   </g>
   <g id="patch_129">
    <path clip-path="url(#p2d0f8e3c1c)" d="M 332.812838 243.928824 
L 334.556588 243.928824 
L 334.556588 99.942473 
L 332.812838 99.942473 
z
" style="fill:#1f77b4;"/>
   </g>
   <g id="patch_130">
    <path clip-path="url(#p2d0f8e3c1c)" d="M 334.992526 243.928824 
L 336.736276 243.928824 
L 336.736276 105.19745 
L 334.992526 105.19745 
z
" style="fill:#1f77b4;"/>
   </g>
   <g id="matplotlib.axis_1">
    <g id="xtick_1">
     <g id="line2d_1">
      <defs>
       <path d="M 0 0 
L 0 3.5 
" id="mfb1d1bbd83" style="stroke:#000000;stroke-width:0.8;"/>
      </defs>
      <g>
       <use style="stroke:#000000;stroke-width:0.8;" x="67.762838" xlink:href="#mfb1d1bbd83" y="243.928824"/>
      </g>
     </g>
     <g id="text_1">
      <!-- $\mathdefault{2021{-}07{-}01}$ -->
      <g transform="translate(69.922251 307.416762)rotate(-90)scale(0.1 -0.1)">
       <defs>
        <path d="M 102 160 
L 102 0 
C 1299 0 1299 0 1530 0 
C 1760 0 1760 0 2995 0 
C 2982 125 2982 186 2982 269 
C 2982 348 2982 407 2995 539 
C 2259 539 1965 539 781 539 
L 1946 1761 
C 2566 2414 2758 2763 2758 3238 
C 2758 3966 2259 4416 1446 4416 
C 986 4416 672 4288 358 3969 
L 250 3099 
L 435 3099 
L 518 3393 
C 621 3763 851 3923 1280 3923 
C 1830 3923 2182 3577 2182 3035 
C 2182 2555 1914 2083 1190 1316 
L 102 160 
z
" id="URWPalladioL-Roma-32" transform="scale(0.015625)"/>
        <path d="M 1683 4416 
C 691 4416 186 3628 186 2077 
C 186 1326 320 680 544 366 
C 768 51 1126 -128 1523 -128 
C 2490 -128 2976 705 2976 2346 
C 2976 3749 2560 4416 1683 4416 
z
M 1568 4192 
C 2189 4192 2438 3564 2438 2025 
C 2438 661 2195 96 1606 96 
C 986 96 723 744 723 2308 
C 723 3660 960 4192 1568 4192 
z
" id="URWPalladioL-Roma-30" transform="scale(0.015625)"/>
        <path d="M 429 3584 
L 493 3584 
L 1318 3956 
C 1325 3962 1331 3962 1338 3962 
C 1376 3962 1389 3905 1389 3751 
L 1389 613 
C 1389 276 1318 205 973 205 
L 614 205 
L 614 0 
C 1600 0 1600 0 1670 0 
C 1754 0 1894 0 2112 0 
C 2189 0 2413 0 2675 0 
L 2675 205 
L 2342 205 
C 1990 205 1926 276 1926 612 
L 1926 4443 
L 1837 4475 
C 1421 4257 966 4065 384 3860 
L 429 3584 
z
" id="URWPalladioL-Roma-31" transform="scale(0.015625)"/>
        <path d="M 4218 1472 
C 4326 1472 4442 1472 4442 1600 
C 4442 1728 4326 1728 4218 1728 
L 755 1728 
C 646 1728 531 1728 531 1600 
C 531 1472 646 1472 755 1472 
L 4218 1472 
z
" id="CMSY10-0" transform="scale(0.015625)"/>
        <path d="M 358 32 
L 416 -51 
C 666 -32 666 -32 710 -32 
C 755 -32 755 -32 1005 -51 
C 1274 649 1587 1317 2010 2087 
L 3181 4199 
L 3181 4372 
C 2490 4372 2266 4372 1747 4372 
C 1280 4372 966 4372 346 4372 
L 282 4359 
C 301 3750 301 3750 301 3685 
C 301 3614 301 3614 282 3031 
L 474 3031 
L 518 3390 
C 570 3789 614 3840 909 3840 
L 2618 3840 
C 2362 3313 2163 2941 1920 2549 
L 358 32 
z
" id="URWPalladioL-Roma-37" transform="scale(0.015625)"/>
       </defs>
       <use transform="scale(0.996264)" xlink:href="#URWPalladioL-Roma-32"/>
       <use transform="translate(49.8132 0)scale(0.996264)" xlink:href="#URWPalladioL-Roma-30"/>
       <use transform="translate(99.626401 0)scale(0.996264)" xlink:href="#URWPalladioL-Roma-32"/>
       <use transform="translate(149.439601 0)scale(0.996264)" xlink:href="#URWPalladioL-Roma-31"/>
       <use transform="translate(200.498102 0)scale(1.038107)" xlink:href="#CMSY10-0"/>
       <use transform="translate(282.439798 0)scale(0.996264)" xlink:href="#URWPalladioL-Roma-30"/>
       <use transform="translate(332.252998 0)scale(0.996264)" xlink:href="#URWPalladioL-Roma-37"/>
       <use transform="translate(383.311499 0)scale(1.038107)" xlink:href="#CMSY10-0"/>
       <use transform="translate(465.253195 0)scale(0.996264)" xlink:href="#URWPalladioL-Roma-30"/>
       <use transform="translate(515.066395 0)scale(0.996264)" xlink:href="#URWPalladioL-Roma-31"/>
      </g>
     </g>
    </g>
    <g id="xtick_2">
     <g id="line2d_2">
      <g>
       <use style="stroke:#000000;stroke-width:0.8;" x="98.278463" xlink:href="#mfb1d1bbd83" y="243.928824"/>
      </g>
     </g>
     <g id="text_2">
      <!-- $\mathdefault{2021{-}07{-}15}$ -->
      <g transform="translate(100.437876 307.416762)rotate(-90)scale(0.1 -0.1)">
       <defs>
        <path d="M 813 3877 
C 1638 3877 1997 3877 2765 3877 
L 2797 3907 
C 2784 4016 2784 4064 2784 4144 
C 2784 4229 2784 4277 2797 4386 
L 2765 4416 
C 2285 4416 1997 4416 1651 4416 
C 1299 4416 1018 4416 538 4416 
L 506 4403 
C 512 4011 518 3729 518 3523 
C 518 2977 499 2360 480 2077 
L 608 2038 
C 909 2341 1082 2432 1395 2432 
C 2010 2432 2394 1993 2394 1296 
C 2394 580 1984 160 1286 160 
C 941 160 621 277 531 444 
L 237 973 
L 83 883 
C 230 516 307 310 397 27 
C 576 -71 832 -128 1107 -128 
C 1536 -128 1990 59 2342 368 
C 2733 716 2938 1154 2938 1630 
C 2938 2359 2419 2874 1690 2874 
C 1382 2874 1152 2791 755 2554 
L 813 3877 
z
" id="URWPalladioL-Roma-35" transform="scale(0.015625)"/>
       </defs>
       <use transform="scale(0.996264)" xlink:href="#URWPalladioL-Roma-32"/>
       <use transform="translate(49.8132 0)scale(0.996264)" xlink:href="#URWPalladioL-Roma-30"/>
       <use transform="translate(99.626401 0)scale(0.996264)" xlink:href="#URWPalladioL-Roma-32"/>
       <use transform="translate(149.439601 0)scale(0.996264)" xlink:href="#URWPalladioL-Roma-31"/>
       <use transform="translate(200.498102 0)scale(1.038107)" xlink:href="#CMSY10-0"/>
       <use transform="translate(282.439798 0)scale(0.996264)" xlink:href="#URWPalladioL-Roma-30"/>
       <use transform="translate(332.252998 0)scale(0.996264)" xlink:href="#URWPalladioL-Roma-37"/>
       <use transform="translate(383.311499 0)scale(1.038107)" xlink:href="#CMSY10-0"/>
       <use transform="translate(465.253195 0)scale(0.996264)" xlink:href="#URWPalladioL-Roma-31"/>
       <use transform="translate(515.066395 0)scale(0.996264)" xlink:href="#URWPalladioL-Roma-35"/>
      </g>
     </g>
    </g>
    <g id="xtick_3">
     <g id="line2d_3">
      <g>
       <use style="stroke:#000000;stroke-width:0.8;" x="135.333151" xlink:href="#mfb1d1bbd83" y="243.928824"/>
      </g>
     </g>
     <g id="text_3">
      <!-- $\mathdefault{2021{-}08{-}01}$ -->
      <g transform="translate(137.492564 307.416762)rotate(-90)scale(0.1 -0.1)">
       <defs>
        <path d="M 1075 2211 
C 813 2090 704 2019 563 1884 
C 320 1641 192 1352 192 1019 
C 192 359 723 -128 1446 -128 
C 2278 -128 2970 526 2970 1320 
C 2970 1833 2733 2109 2003 2442 
C 2586 2840 2790 3109 2790 3493 
C 2790 4044 2336 4416 1658 4416 
C 896 4416 339 3929 339 3257 
C 339 2821 512 2577 1075 2211 
z
M 1818 1891 
C 2221 1711 2464 1397 2464 1052 
C 2464 513 2061 90 1542 90 
C 998 90 646 475 646 1071 
C 646 1538 832 1833 1306 2122 
L 1818 1891 
z
M 1427 2712 
C 1024 2910 819 3167 819 3487 
C 819 3910 1126 4198 1581 4198 
C 2048 4198 2355 3891 2355 3422 
C 2355 3058 2195 2808 1779 2538 
L 1427 2712 
z
" id="URWPalladioL-Roma-38" transform="scale(0.015625)"/>
       </defs>
       <use transform="scale(0.996264)" xlink:href="#URWPalladioL-Roma-32"/>
       <use transform="translate(49.8132 0)scale(0.996264)" xlink:href="#URWPalladioL-Roma-30"/>
       <use transform="translate(99.626401 0)scale(0.996264)" xlink:href="#URWPalladioL-Roma-32"/>
       <use transform="translate(149.439601 0)scale(0.996264)" xlink:href="#URWPalladioL-Roma-31"/>
       <use transform="translate(200.498102 0)scale(1.038107)" xlink:href="#CMSY10-0"/>
       <use transform="translate(282.439798 0)scale(0.996264)" xlink:href="#URWPalladioL-Roma-30"/>
       <use transform="translate(332.252998 0)scale(0.996264)" xlink:href="#URWPalladioL-Roma-38"/>
       <use transform="translate(383.311499 0)scale(1.038107)" xlink:href="#CMSY10-0"/>
       <use transform="translate(465.253195 0)scale(0.996264)" xlink:href="#URWPalladioL-Roma-30"/>
       <use transform="translate(515.066395 0)scale(0.996264)" xlink:href="#URWPalladioL-Roma-31"/>
      </g>
     </g>
    </g>
    <g id="xtick_4">
     <g id="line2d_4">
      <g>
       <use style="stroke:#000000;stroke-width:0.8;" x="165.848776" xlink:href="#mfb1d1bbd83" y="243.928824"/>
      </g>
     </g>
     <g id="text_4">
      <!-- $\mathdefault{2021{-}08{-}15}$ -->
      <g transform="translate(168.008189 307.416762)rotate(-90)scale(0.1 -0.1)">
       <use transform="scale(0.996264)" xlink:href="#URWPalladioL-Roma-32"/>
       <use transform="translate(49.8132 0)scale(0.996264)" xlink:href="#URWPalladioL-Roma-30"/>
       <use transform="translate(99.626401 0)scale(0.996264)" xlink:href="#URWPalladioL-Roma-32"/>
       <use transform="translate(149.439601 0)scale(0.996264)" xlink:href="#URWPalladioL-Roma-31"/>
       <use transform="translate(200.498102 0)scale(1.038107)" xlink:href="#CMSY10-0"/>
       <use transform="translate(282.439798 0)scale(0.996264)" xlink:href="#URWPalladioL-Roma-30"/>
       <use transform="translate(332.252998 0)scale(0.996264)" xlink:href="#URWPalladioL-Roma-38"/>
       <use transform="translate(383.311499 0)scale(1.038107)" xlink:href="#CMSY10-0"/>
       <use transform="translate(465.253195 0)scale(0.996264)" xlink:href="#URWPalladioL-Roma-31"/>
       <use transform="translate(515.066395 0)scale(0.996264)" xlink:href="#URWPalladioL-Roma-35"/>
      </g>
     </g>
    </g>
    <g id="xtick_5">
     <g id="line2d_5">
      <g>
       <use style="stroke:#000000;stroke-width:0.8;" x="202.903463" xlink:href="#mfb1d1bbd83" y="243.928824"/>
      </g>
     </g>
     <g id="text_5">
      <!-- $\mathdefault{2021{-}09{-}01}$ -->
      <g transform="translate(205.062876 307.416762)rotate(-90)scale(0.1 -0.1)">
       <defs>
        <path d="M 614 -106 
C 1325 125 1632 272 1978 566 
C 2598 1098 2925 1835 2925 2693 
C 2925 3776 2406 4435 1562 4435 
C 742 4435 128 3795 128 2938 
C 128 2201 608 1664 1274 1664 
C 1491 1664 1741 1734 1856 1830 
L 2304 2202 
C 2253 1125 1555 336 397 54 
L 397 3 
L 614 -106 
z
M 1536 4224 
C 1824 4224 2035 4102 2176 3846 
C 2291 3641 2368 3328 2368 3040 
C 2368 2451 2029 2055 1536 2055 
C 1024 2055 678 2509 678 3174 
C 678 3821 1011 4224 1536 4224 
z
" id="URWPalladioL-Roma-39" transform="scale(0.015625)"/>
       </defs>
       <use transform="scale(0.996264)" xlink:href="#URWPalladioL-Roma-32"/>
       <use transform="translate(49.8132 0)scale(0.996264)" xlink:href="#URWPalladioL-Roma-30"/>
       <use transform="translate(99.626401 0)scale(0.996264)" xlink:href="#URWPalladioL-Roma-32"/>
       <use transform="translate(149.439601 0)scale(0.996264)" xlink:href="#URWPalladioL-Roma-31"/>
       <use transform="translate(200.498102 0)scale(1.038107)" xlink:href="#CMSY10-0"/>
       <use transform="translate(282.439798 0)scale(0.996264)" xlink:href="#URWPalladioL-Roma-30"/>
       <use transform="translate(332.252998 0)scale(0.996264)" xlink:href="#URWPalladioL-Roma-39"/>
       <use transform="translate(383.311499 0)scale(1.038107)" xlink:href="#CMSY10-0"/>
       <use transform="translate(465.253195 0)scale(0.996264)" xlink:href="#URWPalladioL-Roma-30"/>
       <use transform="translate(515.066395 0)scale(0.996264)" xlink:href="#URWPalladioL-Roma-31"/>
      </g>
     </g>
    </g>
    <g id="xtick_6">
     <g id="line2d_6">
      <g>
       <use style="stroke:#000000;stroke-width:0.8;" x="233.419088" xlink:href="#mfb1d1bbd83" y="243.928824"/>
      </g>
     </g>
     <g id="text_6">
      <!-- $\mathdefault{2021{-}09{-}15}$ -->
      <g transform="translate(235.578501 307.416762)rotate(-90)scale(0.1 -0.1)">
       <use transform="scale(0.996264)" xlink:href="#URWPalladioL-Roma-32"/>
       <use transform="translate(49.8132 0)scale(0.996264)" xlink:href="#URWPalladioL-Roma-30"/>
       <use transform="translate(99.626401 0)scale(0.996264)" xlink:href="#URWPalladioL-Roma-32"/>
       <use transform="translate(149.439601 0)scale(0.996264)" xlink:href="#URWPalladioL-Roma-31"/>
       <use transform="translate(200.498102 0)scale(1.038107)" xlink:href="#CMSY10-0"/>
       <use transform="translate(282.439798 0)scale(0.996264)" xlink:href="#URWPalladioL-Roma-30"/>
       <use transform="translate(332.252998 0)scale(0.996264)" xlink:href="#URWPalladioL-Roma-39"/>
       <use transform="translate(383.311499 0)scale(1.038107)" xlink:href="#CMSY10-0"/>
       <use transform="translate(465.253195 0)scale(0.996264)" xlink:href="#URWPalladioL-Roma-31"/>
       <use transform="translate(515.066395 0)scale(0.996264)" xlink:href="#URWPalladioL-Roma-35"/>
      </g>
     </g>
    </g>
    <g id="xtick_7">
     <g id="line2d_7">
      <g>
       <use style="stroke:#000000;stroke-width:0.8;" x="268.294088" xlink:href="#mfb1d1bbd83" y="243.928824"/>
      </g>
     </g>
     <g id="text_7">
      <!-- $\mathdefault{2021{-}10{-}01}$ -->
      <g transform="translate(270.453501 307.416762)rotate(-90)scale(0.1 -0.1)">
       <use transform="scale(0.996264)" xlink:href="#URWPalladioL-Roma-32"/>
       <use transform="translate(49.8132 0)scale(0.996264)" xlink:href="#URWPalladioL-Roma-30"/>
       <use transform="translate(99.626401 0)scale(0.996264)" xlink:href="#URWPalladioL-Roma-32"/>
       <use transform="translate(149.439601 0)scale(0.996264)" xlink:href="#URWPalladioL-Roma-31"/>
       <use transform="translate(200.498102 0)scale(1.038107)" xlink:href="#CMSY10-0"/>
       <use transform="translate(282.439798 0)scale(0.996264)" xlink:href="#URWPalladioL-Roma-31"/>
       <use transform="translate(332.252998 0)scale(0.996264)" xlink:href="#URWPalladioL-Roma-30"/>
       <use transform="translate(383.311499 0)scale(1.038107)" xlink:href="#CMSY10-0"/>
       <use transform="translate(465.253195 0)scale(0.996264)" xlink:href="#URWPalladioL-Roma-30"/>
       <use transform="translate(515.066395 0)scale(0.996264)" xlink:href="#URWPalladioL-Roma-31"/>
      </g>
     </g>
    </g>
    <g id="xtick_8">
     <g id="line2d_8">
      <g>
       <use style="stroke:#000000;stroke-width:0.8;" x="298.809713" xlink:href="#mfb1d1bbd83" y="243.928824"/>
      </g>
     </g>
     <g id="text_8">
      <!-- $\mathdefault{2021{-}10{-}15}$ -->
      <g transform="translate(300.969126 307.416762)rotate(-90)scale(0.1 -0.1)">
       <use transform="scale(0.996264)" xlink:href="#URWPalladioL-Roma-32"/>
       <use transform="translate(49.8132 0)scale(0.996264)" xlink:href="#URWPalladioL-Roma-30"/>
       <use transform="translate(99.626401 0)scale(0.996264)" xlink:href="#URWPalladioL-Roma-32"/>
       <use transform="translate(149.439601 0)scale(0.996264)" xlink:href="#URWPalladioL-Roma-31"/>
       <use transform="translate(200.498102 0)scale(1.038107)" xlink:href="#CMSY10-0"/>
       <use transform="translate(282.439798 0)scale(0.996264)" xlink:href="#URWPalladioL-Roma-31"/>
       <use transform="translate(332.252998 0)scale(0.996264)" xlink:href="#URWPalladioL-Roma-30"/>
       <use transform="translate(383.311499 0)scale(1.038107)" xlink:href="#CMSY10-0"/>
       <use transform="translate(465.253195 0)scale(0.996264)" xlink:href="#URWPalladioL-Roma-31"/>
       <use transform="translate(515.066395 0)scale(0.996264)" xlink:href="#URWPalladioL-Roma-35"/>
      </g>
     </g>
    </g>
    <g id="xtick_9">
     <g id="line2d_9">
      <g>
       <use style="stroke:#000000;stroke-width:0.8;" x="335.864401" xlink:href="#mfb1d1bbd83" y="243.928824"/>
      </g>
     </g>
     <g id="text_9">
      <!-- $\mathdefault{2021{-}11{-}01}$ -->
      <g transform="translate(338.023814 307.416762)rotate(-90)scale(0.1 -0.1)">
       <use transform="scale(0.996264)" xlink:href="#URWPalladioL-Roma-32"/>
       <use transform="translate(49.8132 0)scale(0.996264)" xlink:href="#URWPalladioL-Roma-30"/>
       <use transform="translate(99.626401 0)scale(0.996264)" xlink:href="#URWPalladioL-Roma-32"/>
       <use transform="translate(149.439601 0)scale(0.996264)" xlink:href="#URWPalladioL-Roma-31"/>
       <use transform="translate(200.498102 0)scale(1.038107)" xlink:href="#CMSY10-0"/>
       <use transform="translate(282.439798 0)scale(0.996264)" xlink:href="#URWPalladioL-Roma-31"/>
       <use transform="translate(332.252998 0)scale(0.996264)" xlink:href="#URWPalladioL-Roma-31"/>
       <use transform="translate(383.311499 0)scale(1.038107)" xlink:href="#CMSY10-0"/>
       <use transform="translate(465.253195 0)scale(0.996264)" xlink:href="#URWPalladioL-Roma-30"/>
       <use transform="translate(515.066395 0)scale(0.996264)" xlink:href="#URWPalladioL-Roma-31"/>
      </g>
     </g>
    </g>
   </g>
   <g id="matplotlib.axis_2">
    <g id="ytick_1">
     <g id="line2d_10">
      <defs>
       <path d="M 0 0 
L -3.5 0 
" id="m8512dc7991" style="stroke:#000000;stroke-width:0.8;"/>
      </defs>
      <g>
       <use style="stroke:#000000;stroke-width:0.8;" x="57.954244" xlink:href="#m8512dc7991" y="243.928824"/>
      </g>
     </g>
     <g id="text_10">
      <!-- $\mathdefault{0.0}$ -->
      <g transform="translate(38.500944 247.492943)scale(0.1 -0.1)">
       <defs>
        <path d="M 794 744 
C 602 744 429 564 429 372 
C 429 179 602 0 787 0 
C 992 0 1171 173 1171 372 
C 1171 564 992 744 794 744 
z
" id="URWPalladioL-Roma-2e" transform="scale(0.015625)"/>
       </defs>
       <use transform="scale(0.996264)" xlink:href="#URWPalladioL-Roma-30"/>
       <use transform="translate(49.8132 0)scale(0.996264)" xlink:href="#URWPalladioL-Roma-2e"/>
       <use transform="translate(74.719801 0)scale(0.996264)" xlink:href="#URWPalladioL-Roma-30"/>
      </g>
     </g>
    </g>
    <g id="ytick_2">
     <g id="line2d_11">
      <g>
       <use style="stroke:#000000;stroke-width:0.8;" x="57.954244" xlink:href="#m8512dc7991" y="212.209787"/>
      </g>
     </g>
     <g id="text_11">
      <!-- $\mathdefault{0.1}$ -->
      <g transform="translate(38.500944 215.773906)scale(0.1 -0.1)">
       <use transform="scale(0.996264)" xlink:href="#URWPalladioL-Roma-30"/>
       <use transform="translate(49.8132 0)scale(0.996264)" xlink:href="#URWPalladioL-Roma-2e"/>
       <use transform="translate(74.719801 0)scale(0.996264)" xlink:href="#URWPalladioL-Roma-31"/>
      </g>
     </g>
    </g>
    <g id="ytick_3">
     <g id="line2d_12">
      <g>
       <use style="stroke:#000000;stroke-width:0.8;" x="57.954244" xlink:href="#m8512dc7991" y="180.49075"/>
      </g>
     </g>
     <g id="text_12">
      <!-- $\mathdefault{0.2}$ -->
      <g transform="translate(38.500944 184.054869)scale(0.1 -0.1)">
       <use transform="scale(0.996264)" xlink:href="#URWPalladioL-Roma-30"/>
       <use transform="translate(49.8132 0)scale(0.996264)" xlink:href="#URWPalladioL-Roma-2e"/>
       <use transform="translate(74.719801 0)scale(0.996264)" xlink:href="#URWPalladioL-Roma-32"/>
      </g>
     </g>
    </g>
    <g id="ytick_4">
     <g id="line2d_13">
      <g>
       <use style="stroke:#000000;stroke-width:0.8;" x="57.954244" xlink:href="#m8512dc7991" y="148.771713"/>
      </g>
     </g>
     <g id="text_13">
      <!-- $\mathdefault{0.3}$ -->
      <g transform="translate(38.500944 152.335832)scale(0.1 -0.1)">
       <defs>
        <path d="M 275 3197 
L 474 3197 
L 589 3554 
C 659 3770 1062 3987 1395 3987 
C 1811 3987 2150 3649 2150 3248 
C 2150 2770 1773 2368 1318 2368 
C 1267 2368 1197 2368 1114 2381 
L 1018 2381 
L 941 2047 
L 986 2008 
C 1229 2118 1350 2150 1523 2150 
C 2054 2150 2362 1809 2362 1222 
C 2362 566 1971 135 1376 135 
C 1082 135 819 231 627 411 
C 474 553 390 701 269 1049 
L 96 985 
C 230 593 282 361 320 39 
C 659 -77 941 -128 1178 -128 
C 1690 -128 2278 161 2630 593 
C 2848 857 2957 1140 2957 1442 
C 2957 1751 2829 2022 2598 2182 
C 2438 2298 2291 2350 1971 2407 
C 2483 2803 2675 3096 2675 3472 
C 2675 4040 2202 4416 1491 4416 
C 1056 4416 768 4295 461 3989 
L 275 3197 
z
" id="URWPalladioL-Roma-33" transform="scale(0.015625)"/>
       </defs>
       <use transform="scale(0.996264)" xlink:href="#URWPalladioL-Roma-30"/>
       <use transform="translate(49.8132 0)scale(0.996264)" xlink:href="#URWPalladioL-Roma-2e"/>
       <use transform="translate(74.719801 0)scale(0.996264)" xlink:href="#URWPalladioL-Roma-33"/>
      </g>
     </g>
    </g>
    <g id="ytick_5">
     <g id="line2d_14">
      <g>
       <use style="stroke:#000000;stroke-width:0.8;" x="57.954244" xlink:href="#m8512dc7991" y="117.052676"/>
      </g>
     </g>
     <g id="text_14">
      <!-- $\mathdefault{0.4}$ -->
      <g transform="translate(38.500944 120.616795)scale(0.1 -0.1)">
       <defs>
        <path d="M 1792 1152 
L 1792 673 
C 1792 289 1722 199 1408 199 
L 1011 199 
L 1011 0 
C 1862 0 1862 0 2016 0 
C 2170 0 2170 0 3021 0 
L 3021 199 
L 2714 199 
C 2400 199 2330 282 2330 669 
L 2330 1152 
C 2707 1152 2842 1152 3021 1133 
L 3021 1588 
C 2720 1563 2598 1563 2502 1563 
L 2483 1563 
L 2330 1563 
L 2330 2457 
C 2330 3600 2342 4152 2374 4416 
L 2298 4448 
L 1824 4275 
L 13 1299 
L 83 1152 
L 1792 1152 
z
M 1792 1563 
L 416 1563 
L 1792 3826 
L 1792 1563 
z
" id="URWPalladioL-Roma-34" transform="scale(0.015625)"/>
       </defs>
       <use transform="scale(0.996264)" xlink:href="#URWPalladioL-Roma-30"/>
       <use transform="translate(49.8132 0)scale(0.996264)" xlink:href="#URWPalladioL-Roma-2e"/>
       <use transform="translate(74.719801 0)scale(0.996264)" xlink:href="#URWPalladioL-Roma-34"/>
      </g>
     </g>
    </g>
    <g id="ytick_6">
     <g id="line2d_15">
      <g>
       <use style="stroke:#000000;stroke-width:0.8;" x="57.954244" xlink:href="#m8512dc7991" y="85.333639"/>
      </g>
     </g>
     <g id="text_15">
      <!-- $\mathdefault{0.5}$ -->
      <g transform="translate(38.500944 88.897758)scale(0.1 -0.1)">
       <use transform="scale(0.996264)" xlink:href="#URWPalladioL-Roma-30"/>
       <use transform="translate(49.8132 0)scale(0.996264)" xlink:href="#URWPalladioL-Roma-2e"/>
       <use transform="translate(74.719801 0)scale(0.996264)" xlink:href="#URWPalladioL-Roma-35"/>
      </g>
     </g>
    </g>
    <g id="ytick_7">
     <g id="line2d_16">
      <g>
       <use style="stroke:#000000;stroke-width:0.8;" x="57.954244" xlink:href="#m8512dc7991" y="53.614602"/>
      </g>
     </g>
     <g id="text_16">
      <!-- $\mathdefault{0.6}$ -->
      <g transform="translate(38.500944 57.178721)scale(0.1 -0.1)">
       <defs>
        <path d="M 2662 4310 
L 2426 4419 
C 1811 4214 1549 4086 1222 3804 
C 563 3246 205 2464 205 1585 
C 205 526 717 -128 1542 -128 
C 2374 -128 2995 532 2995 1405 
C 2995 2143 2554 2624 1875 2624 
C 1555 2624 1363 2540 986 2239 
C 915 2181 909 2175 838 2124 
C 973 3284 1510 3913 2662 4259 
L 2662 4310 
z
M 1632 2239 
C 2118 2239 2445 1816 2445 1181 
C 2445 513 2118 83 1626 83 
C 1082 83 787 551 787 1412 
C 787 1636 813 1758 883 1867 
C 1024 2085 1325 2239 1632 2239 
z
" id="URWPalladioL-Roma-36" transform="scale(0.015625)"/>
       </defs>
       <use transform="scale(0.996264)" xlink:href="#URWPalladioL-Roma-30"/>
       <use transform="translate(49.8132 0)scale(0.996264)" xlink:href="#URWPalladioL-Roma-2e"/>
       <use transform="translate(74.719801 0)scale(0.996264)" xlink:href="#URWPalladioL-Roma-36"/>
      </g>
     </g>
    </g>
    <g id="text_17">
     <!-- mortality (WHO) -->
     <g transform="translate(14.328237 171.145555)rotate(-90)scale(0.1 -0.1)">
      <defs>
       <path d="M 115 2565 
L 352 2565 
C 608 2565 634 2520 634 2094 
L 634 643 
C 634 237 614 192 397 192 
L 102 192 
L 102 -7 
C 717 -7 736 -7 915 -7 
C 1094 -7 1261 -7 1677 -7 
L 1677 179 
L 1408 205 
C 1190 205 1171 250 1171 654 
L 1171 2014 
C 1171 2302 1594 2616 1978 2616 
C 2323 2616 2560 2287 2560 1798 
L 2560 643 
C 2560 237 2541 192 2323 192 
L 2029 192 
L 2029 -7 
C 2669 -7 2669 -7 2829 -7 
C 2989 -7 2989 -7 3629 -7 
L 3629 192 
L 3334 192 
C 3117 192 3098 237 3098 643 
L 3098 2011 
C 3098 2300 3520 2616 3904 2616 
C 4250 2616 4486 2291 4486 1806 
L 4486 -7 
C 4877 -7 4883 -7 4992 -7 
C 5075 -7 5075 -7 5562 -7 
L 5562 192 
L 5261 192 
C 5043 192 5024 237 5024 643 
L 5024 1970 
C 5024 2608 4653 3008 4064 3008 
C 3840 3008 3654 2950 3539 2847 
L 3053 2412 
C 2848 2834 2586 3008 2144 3008 
C 1907 3008 1728 2950 1613 2847 
L 1171 2437 
L 1171 2982 
L 1114 3008 
C 787 2873 454 2783 115 2745 
L 115 2565 
z
" id="URWPalladioL-Roma-6d" transform="scale(0.015625)"/>
       <path d="M 1786 3008 
C 851 3008 205 2347 205 1392 
C 205 487 774 -128 1600 -128 
C 2586 -128 3290 558 3290 1520 
C 3290 2386 2662 3008 1786 3008 
z
M 1670 2796 
C 2259 2796 2694 2155 2694 1283 
C 2694 545 2368 83 1850 83 
C 1222 83 800 699 800 1610 
C 800 2379 1107 2796 1670 2796 
z
" id="URWPalladioL-Roma-6f" transform="scale(0.015625)"/>
       <path d="M 147 2565 
L 384 2565 
C 640 2565 666 2520 666 2094 
L 666 643 
C 666 237 646 192 429 192 
L 134 192 
L 134 -7 
C 595 -7 762 -7 922 -7 
C 1050 -7 1050 -7 1837 -7 
L 1837 192 
L 1504 192 
C 1216 192 1203 211 1203 638 
L 1203 1751 
C 1203 2139 1459 2463 1773 2463 
C 1965 2463 2099 2373 2202 2169 
L 2336 2169 
L 2394 2937 
C 2323 2982 2208 3008 2093 3008 
C 1901 3008 1696 2905 1562 2745 
L 1203 2322 
L 1203 2982 
L 1146 3008 
C 819 2873 486 2783 147 2745 
L 147 2565 
z
" id="URWPalladioL-Roma-72" transform="scale(0.015625)"/>
       <path d="M 627 2476 
L 627 619 
C 627 142 838 -64 1331 -64 
C 1478 -64 1632 -32 1670 13 
L 1978 353 
L 1894 463 
C 1734 372 1638 340 1517 340 
C 1267 340 1165 470 1165 788 
L 1165 2489 
L 1984 2489 
L 2042 2816 
L 1165 2816 
L 1165 3056 
C 1165 3321 1184 3547 1235 3951 
L 1158 4021 
C 1005 3925 813 3842 614 3778 
C 634 3585 640 3463 640 3271 
L 640 2822 
L 141 2598 
L 141 2476 
L 627 2476 
z
" id="URWPalladioL-Roma-74" transform="scale(0.015625)"/>
       <path d="M 2074 538 
L 2042 -1 
C 2458 -1 2458 -1 2541 -1 
C 2573 -1 2733 -1 3014 -1 
L 3014 192 
L 2765 192 
C 2611 192 2586 244 2586 558 
L 2586 1731 
C 2586 2668 2317 3008 1574 3008 
C 1299 3008 1043 2937 800 2791 
L 461 2585 
L 461 2171 
L 627 2126 
L 710 2323 
C 845 2623 909 2668 1203 2668 
C 1805 2668 2054 2431 2074 1852 
L 1440 1736 
C 570 1577 205 1277 205 722 
C 205 224 506 -64 1011 -64 
C 1126 -64 1235 -45 1280 -13 
L 2074 538 
z
M 2074 806 
C 1888 544 1485 302 1235 302 
C 979 302 755 538 755 812 
C 755 1048 883 1271 1075 1392 
C 1235 1488 1587 1577 2074 1648 
L 2074 806 
z
" id="URWPalladioL-Roma-61" transform="scale(0.015625)"/>
       <path d="M 147 4256 
L 506 4256 
C 621 4256 666 4185 666 3992 
L 666 651 
C 666 244 646 199 429 199 
L 134 199 
L 134 0 
C 774 0 774 0 934 0 
C 1094 0 1094 0 1734 0 
L 1734 199 
L 1440 199 
C 1222 199 1203 244 1203 650 
L 1203 4621 
L 1146 4673 
C 864 4564 653 4512 147 4435 
L 147 4256 
z
" id="URWPalladioL-Roma-6c" transform="scale(0.015625)"/>
       <path d="M 1203 2993 
L 1146 3019 
C 819 2884 486 2793 147 2755 
L 147 2576 
L 384 2576 
C 640 2576 666 2531 666 2105 
L 666 651 
C 666 244 646 199 429 199 
L 134 199 
L 134 0 
C 774 0 774 0 934 0 
C 1094 0 1094 0 1734 0 
L 1734 199 
L 1440 199 
C 1222 199 1203 244 1203 651 
L 1203 2993 
z
M 909 4416 
C 717 4416 550 4249 550 4056 
C 550 3870 717 3704 902 3704 
C 1088 3704 1261 3870 1261 4056 
C 1261 4236 1088 4416 909 4416 
z
" id="URWPalladioL-Roma-69" transform="scale(0.015625)"/>
       <path d="M 1901 564 
C 1760 808 1690 956 1574 1270 
L 1165 2347 
C 1126 2456 1101 2552 1101 2618 
C 1101 2710 1171 2764 1318 2764 
L 1562 2764 
L 1562 2944 
C 941 2944 941 2944 819 2944 
C 698 2944 698 2944 77 2944 
L 77 2777 
L 192 2764 
C 352 2745 429 2674 525 2451 
L 1222 775 
C 1402 340 1466 186 1581 -134 
L 1434 -524 
C 1229 -1062 979 -1362 736 -1362 
C 634 -1362 518 -1311 410 -1215 
L 326 -1215 
L 173 -1696 
C 294 -1760 397 -1792 518 -1792 
C 947 -1792 1222 -1562 1466 -1005 
L 2765 1990 
C 3021 2572 3142 2745 3302 2764 
L 3482 2777 
L 3482 2944 
C 2976 2944 2976 2944 2874 2944 
C 2771 2944 2771 2944 2266 2944 
L 2266 2777 
L 2432 2764 
C 2611 2751 2701 2694 2701 2604 
C 2701 2559 2688 2501 2662 2437 
L 1901 564 
z
" id="URWPalladioL-Roma-79" transform="scale(0.015625)"/>
       <path d="M 1926 -1244 
C 1466 -673 1299 -366 1133 212 
C 998 673 934 1161 934 1706 
C 934 2238 998 2693 1120 3110 
C 1286 3642 1459 3944 1926 4489 
L 1805 4656 
C 1139 4059 877 3707 634 3078 
C 467 2648 384 2193 384 1706 
C 384 1020 544 372 851 -205 
C 1075 -635 1280 -885 1805 -1379 
L 1926 -1244 
z
" id="URWPalladioL-Roma-28" transform="scale(0.015625)"/>
       <path d="M 4698 -64 
C 4723 32 4742 122 4749 154 
C 4768 218 4819 411 4870 584 
L 5850 4032 
C 5888 4147 5952 4205 6093 4218 
L 6298 4237 
L 6298 4416 
L 5626 4416 
C 5562 4416 5562 4416 4954 4416 
L 4954 4237 
L 5210 4218 
C 5434 4199 5504 4167 5510 4063 
C 5510 4044 5510 4025 5504 4005 
L 4659 872 
L 3610 3826 
C 3469 4211 3450 4262 3398 4480 
L 3194 4480 
C 3059 4082 2950 3795 2618 2935 
L 1824 917 
L 1184 3795 
C 1165 3872 1158 3942 1158 4006 
C 1158 4147 1222 4205 1395 4218 
L 1664 4237 
L 1664 4416 
L 858 4416 
C 813 4416 544 4416 51 4416 
L 51 4237 
L 230 4218 
C 416 4199 493 4128 550 3897 
L 1312 597 
C 1395 231 1395 225 1459 -64 
L 1779 -64 
C 1837 141 1888 295 2010 597 
L 3123 3429 
L 3923 1256 
C 4134 687 4154 635 4378 -64 
L 4698 -64 
z
" id="URWPalladioL-Roma-57" transform="scale(0.015625)"/>
       <path d="M 3942 773 
C 3942 257 3910 205 3616 205 
L 3309 205 
L 3309 0 
C 3686 0 3910 0 4243 0 
C 4576 0 4806 0 5184 0 
L 5184 205 
L 4877 205 
C 4582 205 4550 256 4550 766 
L 4550 3663 
C 4550 4172 4582 4224 4877 4224 
L 5184 4224 
L 5184 4423 
C 4717 4423 4576 4423 4243 4423 
C 3923 4423 3770 4423 3309 4423 
L 3309 4224 
L 3616 4224 
C 3910 4224 3942 4172 3942 3668 
L 3942 2529 
C 3808 2529 3674 2529 3411 2529 
L 1914 2529 
C 1651 2529 1510 2529 1382 2529 
L 1382 3668 
C 1382 4172 1414 4224 1709 4224 
L 2016 4224 
L 2016 4423 
C 1549 4423 1408 4423 1075 4423 
C 755 4423 602 4423 141 4423 
L 141 4224 
L 448 4224 
C 742 4224 774 4172 774 3663 
L 774 766 
C 774 256 742 205 448 205 
L 141 205 
L 141 0 
C 518 0 742 0 1075 0 
C 1408 0 1638 0 2016 0 
L 2016 205 
L 1709 205 
C 1414 205 1382 257 1382 773 
L 1382 2227 
C 1555 2240 1658 2240 1914 2240 
L 3411 2240 
C 3667 2240 3770 2240 3942 2227 
L 3942 773 
z
" id="URWPalladioL-Roma-48" transform="scale(0.015625)"/>
       <path d="M 2573 4544 
C 1114 4544 141 3596 141 2186 
C 141 839 1075 -128 2368 -128 
C 3802 -128 4890 942 4890 2351 
C 4890 3698 3994 4544 2573 4544 
z
M 2464 4274 
C 3558 4274 4205 3493 4205 2160 
C 4205 890 3616 141 2624 141 
C 1549 141 826 1051 826 2422 
C 826 3607 1414 4274 2464 4274 
z
" id="URWPalladioL-Roma-4f" transform="scale(0.015625)"/>
       <path d="M 326 -1379 
C 768 -962 954 -750 1152 -436 
C 1542 186 1747 930 1747 1699 
C 1747 2193 1664 2648 1498 3078 
C 1254 3700 992 4053 326 4656 
L 205 4489 
C 672 3937 845 3636 1005 3110 
C 1133 2693 1197 2238 1197 1706 
C 1197 1161 1133 673 998 212 
C 832 -366 666 -673 205 -1244 
L 326 -1379 
z
" id="URWPalladioL-Roma-29" transform="scale(0.015625)"/>
      </defs>
      <use transform="scale(0.996264)" xlink:href="#URWPalladioL-Roma-6d"/>
      <use transform="translate(87.969674 0)scale(0.996264)" xlink:href="#URWPalladioL-Roma-6f"/>
      <use transform="translate(142.365254 0)scale(0.996264)" xlink:href="#URWPalladioL-Roma-72"/>
      <use transform="translate(181.717151 0)scale(0.996264)" xlink:href="#URWPalladioL-Roma-74"/>
      <use transform="translate(214.194239 0)scale(0.996264)" xlink:href="#URWPalladioL-Roma-61"/>
      <use transform="translate(264.007439 0)scale(0.996264)" xlink:href="#URWPalladioL-Roma-6c"/>
      <use transform="translate(292.997801 0)scale(0.996264)" xlink:href="#URWPalladioL-Roma-69"/>
      <use transform="translate(321.988162 0)scale(0.996264)" xlink:href="#URWPalladioL-Roma-74"/>
      <use transform="translate(354.46525 0)scale(0.996264)" xlink:href="#URWPalladioL-Roma-79"/>
      <use transform="translate(434.763527 0)scale(0.996264)" xlink:href="#URWPalladioL-Roma-28"/>
      <use transform="translate(467.938757 0)scale(0.996264)" xlink:href="#URWPalladioL-Roma-57"/>
      <use transform="translate(567.565158 0)scale(0.996264)" xlink:href="#URWPalladioL-Roma-48"/>
      <use transform="translate(650.453819 0)scale(0.996264)" xlink:href="#URWPalladioL-Roma-4f"/>
      <use transform="translate(728.7601 0)scale(0.996264)" xlink:href="#URWPalladioL-Roma-29"/>
     </g>
     <!-- fatalities over 7 days per 100000 -->
     <g transform="translate(25.691533 203.095468)rotate(-90)scale(0.1 -0.1)">
      <defs>
       <path d="M 2182 4601 
C 2048 4652 1971 4672 1888 4672 
C 1683 4672 1459 4563 1318 4404 
L 947 3985 
C 762 3775 678 3490 678 3070 
L 678 2803 
L 237 2604 
L 237 2476 
L 678 2476 
L 678 651 
C 678 244 659 199 442 199 
L 147 199 
L 147 0 
C 787 0 787 0 947 0 
C 1107 0 1107 0 1747 0 
L 1747 199 
L 1453 199 
C 1235 199 1216 245 1216 653 
L 1216 2489 
L 2010 2489 
L 2054 2816 
L 1216 2816 
L 1216 3350 
C 1216 4073 1299 4248 1664 4248 
C 1837 4248 1952 4204 2106 4071 
L 2182 4109 
L 2182 4601 
z
" id="URWPalladioL-Roma-66" transform="scale(0.015625)"/>
       <path d="M 2797 447 
L 2714 511 
C 2304 269 2157 212 1882 212 
C 1466 212 1120 398 941 711 
C 819 921 774 1101 762 1472 
L 1696 1472 
C 2138 1472 2413 1472 2854 1544 
C 2861 1634 2867 1693 2867 1771 
C 2867 2520 2394 3008 1677 3008 
C 1440 3008 1165 2924 902 2770 
C 378 2469 166 2071 166 1404 
C 166 1000 262 654 435 410 
C 691 71 1120 -128 1600 -128 
C 1837 -128 2074 -77 2336 37 
C 2509 108 2643 191 2669 230 
L 2797 447 
z
M 2298 1690 
C 1965 1690 1811 1690 1581 1690 
C 1286 1690 1120 1690 774 1722 
C 774 2027 800 2169 883 2337 
C 1018 2622 1293 2796 1600 2796 
C 1811 2796 1978 2711 2093 2534 
C 2234 2319 2278 2129 2298 1690 
z
" id="URWPalladioL-Roma-65" transform="scale(0.015625)"/>
       <path d="M 262 917 
C 262 475 243 282 192 26 
C 525 -83 774 -128 1069 -128 
C 1907 -128 2502 321 2502 949 
C 2502 1148 2445 1295 2323 1424 
C 2157 1584 1946 1661 1382 1770 
C 858 1873 685 2001 685 2296 
C 685 2616 909 2796 1299 2796 
C 1728 2796 2054 2572 2054 2270 
L 2054 2123 
L 2234 2123 
C 2240 2495 2246 2648 2266 2847 
C 1926 2963 1696 3008 1434 3008 
C 691 3008 237 2655 237 2078 
C 237 1770 378 1552 672 1417 
C 845 1340 1184 1238 1619 1141 
C 1907 1077 2029 943 2029 699 
C 2029 353 1709 109 1254 109 
C 787 109 454 333 454 654 
L 454 917 
L 262 917 
z
" id="URWPalladioL-Roma-73" transform="scale(0.015625)"/>
       <path d="M 3450 2752 
L 3450 2932 
C 3066 2932 2950 2932 2848 2932 
C 2746 2932 2630 2932 2246 2932 
L 2246 2752 
L 2509 2752 
C 2611 2752 2662 2694 2662 2591 
C 2662 2489 2618 2317 2541 2124 
L 2272 1445 
C 2195 1259 2118 1080 1875 549 
L 1114 2393 
C 1075 2482 1056 2566 1056 2636 
C 1056 2707 1114 2752 1216 2752 
L 1530 2752 
L 1530 2932 
C 902 2932 902 2932 781 2932 
C 659 2932 352 2932 38 2932 
L 38 2752 
L 256 2752 
C 352 2739 384 2701 454 2541 
L 1555 -32 
L 1875 -32 
C 1914 77 1978 243 1978 256 
C 2048 447 2131 664 2138 664 
L 2893 2324 
C 3034 2625 3123 2739 3251 2752 
L 3450 2752 
z
" id="URWPalladioL-Roma-76" transform="scale(0.015625)"/>
       <path d="M 2637 2802 
C 2278 2956 2099 3008 1875 3008 
C 1702 3008 1549 2969 1389 2887 
L 826 2593 
C 461 2401 224 1935 224 1392 
C 224 881 397 460 710 204 
C 928 19 1229 -64 1645 -64 
C 1773 -64 1920 -38 1952 -13 
L 2662 583 
L 2630 -7 
C 2944 -7 3046 -7 3123 -7 
C 3174 -7 3264 -7 3398 -7 
C 3443 -7 3571 -7 3706 -7 
L 3706 192 
L 3411 192 
C 3194 192 3174 237 3174 643 
L 3174 4607 
L 3117 4659 
C 2835 4550 2624 4498 2118 4421 
L 2118 4242 
L 2477 4242 
C 2592 4242 2637 4171 2637 3978 
L 2637 2802 
z
M 2637 1424 
C 2637 1009 2624 946 2541 799 
C 2362 499 2048 302 1747 302 
C 1184 302 781 844 781 1603 
C 781 2298 1126 2706 1702 2706 
C 1946 2706 2202 2623 2426 2470 
C 2560 2381 2637 2298 2637 2246 
L 2637 1424 
z
" id="URWPalladioL-Roma-64" transform="scale(0.015625)"/>
       <path d="M 64 2565 
L 301 2565 
C 557 2565 582 2520 582 2095 
L 582 -1142 
C 582 -1548 563 -1593 346 -1593 
L 51 -1593 
L 51 -1792 
C 691 -1792 691 -1792 851 -1792 
C 1011 -1792 1011 -1792 1651 -1792 
L 1651 -1593 
L 1357 -1593 
C 1139 -1593 1120 -1547 1120 -1138 
L 1120 89 
C 1312 -26 1517 -71 1805 -71 
C 1990 -71 2157 -32 2259 32 
L 2989 505 
C 3245 672 3546 1330 3546 1740 
C 3546 2451 2957 3008 2214 3008 
C 1978 3008 1747 2943 1645 2847 
L 1120 2367 
L 1120 2982 
L 1062 3008 
C 736 2873 403 2783 64 2745 
L 64 2565 
z
M 1120 1964 
C 1120 2053 1152 2124 1235 2233 
C 1421 2469 1683 2591 2003 2591 
C 2605 2591 2989 2169 2989 1504 
C 2989 787 2560 256 1984 256 
C 1632 256 1370 372 1120 633 
L 1120 1964 
z
" id="URWPalladioL-Roma-70" transform="scale(0.015625)"/>
      </defs>
      <use transform="scale(0.996264)" xlink:href="#URWPalladioL-Roma-66"/>
      <use transform="translate(33.17523 0)scale(0.996264)" xlink:href="#URWPalladioL-Roma-61"/>
      <use transform="translate(82.98843 0)scale(0.996264)" xlink:href="#URWPalladioL-Roma-74"/>
      <use transform="translate(115.465518 0)scale(0.996264)" xlink:href="#URWPalladioL-Roma-61"/>
      <use transform="translate(165.278719 0)scale(0.996264)" xlink:href="#URWPalladioL-Roma-6c"/>
      <use transform="translate(194.26908 0)scale(0.996264)" xlink:href="#URWPalladioL-Roma-69"/>
      <use transform="translate(223.259442 0)scale(0.996264)" xlink:href="#URWPalladioL-Roma-74"/>
      <use transform="translate(255.736529 0)scale(0.996264)" xlink:href="#URWPalladioL-Roma-69"/>
      <use transform="translate(284.726891 0)scale(0.996264)" xlink:href="#URWPalladioL-Roma-65"/>
      <use transform="translate(332.447186 0)scale(0.996264)" xlink:href="#URWPalladioL-Roma-73"/>
      <use transform="translate(399.595253 0)scale(0.996264)" xlink:href="#URWPalladioL-Roma-6f"/>
      <use transform="translate(453.990833 0)scale(0.996264)" xlink:href="#URWPalladioL-Roma-76"/>
      <use transform="translate(510.278746 0)scale(0.996264)" xlink:href="#URWPalladioL-Roma-65"/>
      <use transform="translate(557.999041 0)scale(0.996264)" xlink:href="#URWPalladioL-Roma-72"/>
      <use transform="translate(622.257538 0)scale(0.996264)" xlink:href="#URWPalladioL-Roma-37"/>
      <use transform="translate(696.977338 0)scale(0.996264)" xlink:href="#URWPalladioL-Roma-64"/>
      <use transform="translate(757.848969 0)scale(0.996264)" xlink:href="#URWPalladioL-Roma-61"/>
      <use transform="translate(807.66217 0)scale(0.996264)" xlink:href="#URWPalladioL-Roma-79"/>
      <use transform="translate(863.053847 0)scale(0.996264)" xlink:href="#URWPalladioL-Roma-73"/>
      <use transform="translate(930.201913 0)scale(0.996264)" xlink:href="#URWPalladioL-Roma-70"/>
      <use transform="translate(990.076307 0)scale(0.996264)" xlink:href="#URWPalladioL-Roma-65"/>
      <use transform="translate(1037.796602 0)scale(0.996264)" xlink:href="#URWPalladioL-Roma-72"/>
      <use transform="translate(1102.055099 0)scale(0.996264)" xlink:href="#URWPalladioL-Roma-31"/>
      <use transform="translate(1151.868299 0)scale(0.996264)" xlink:href="#URWPalladioL-Roma-30"/>
      <use transform="translate(1201.6815 0)scale(0.996264)" xlink:href="#URWPalladioL-Roma-30"/>
      <use transform="translate(1251.4947 0)scale(0.996264)" xlink:href="#URWPalladioL-Roma-30"/>
      <use transform="translate(1301.307901 0)scale(0.996264)" xlink:href="#URWPalladioL-Roma-30"/>
      <use transform="translate(1351.121101 0)scale(0.996264)" xlink:href="#URWPalladioL-Roma-30"/>
     </g>
    </g>
   </g>
   <g id="line2d_17">
    <path clip-path="url(#p2d0f8e3c1c)" style="fill:none;stroke:#ffff00;stroke-linecap:square;stroke-width:1.5;"/>
   </g>
   <g id="line2d_18">
    <path clip-path="url(#p2d0f8e3c1c)" style="fill:none;stroke:#ffa500;stroke-linecap:square;stroke-width:1.5;"/>
   </g>
   <g id="line2d_19">
    <path clip-path="url(#p2d0f8e3c1c)" style="fill:none;stroke:#ff0000;stroke-linecap:square;stroke-width:1.5;"/>
   </g>
   <g id="patch_131">
    <path d="M 57.954244 243.928824 
L 57.954244 22.168824 
" style="fill:none;stroke:#000000;stroke-linecap:square;stroke-linejoin:miter;stroke-width:0.8;"/>
   </g>
   <g id="patch_132">
    <path d="M 57.954244 243.928824 
L 336.954244 243.928824 
" style="fill:none;stroke:#000000;stroke-linecap:square;stroke-linejoin:miter;stroke-width:0.8;"/>
   </g>
   <g id="text_18">
    <!-- low incidence of community transmission -->
    <g style="fill:#ffff00;" transform="translate(345.324244 34.328237)scale(0.1 -0.1)">
     <defs>
      <path d="M 2643 3008 
C 2118 1788 2022 1571 1626 677 
L 1088 2444 
C 1069 2502 1062 2553 1062 2604 
C 1062 2700 1146 2752 1306 2752 
L 1562 2752 
L 1562 2932 
C 928 2932 928 2932 800 2932 
C 672 2932 672 2932 38 2932 
L 38 2765 
L 218 2752 
C 397 2739 480 2612 640 2114 
L 1293 -32 
L 1594 -32 
L 2221 1437 
C 2253 1514 2323 1667 2426 1884 
L 2554 2152 
L 3424 -32 
L 3718 -32 
C 3763 102 3814 249 3866 389 
C 3994 767 4134 1162 4160 1201 
L 4595 2196 
C 4787 2625 4864 2733 5005 2752 
L 5171 2765 
L 5171 2932 
C 4646 2932 4646 2932 4544 2932 
C 4442 2932 4442 2932 3917 2932 
L 3917 2752 
L 4134 2752 
C 4294 2752 4384 2675 4384 2559 
C 4384 2489 4371 2412 4339 2329 
L 4019 1433 
C 3968 1292 3917 1163 3712 638 
L 2976 2490 
C 2886 2707 2842 2835 2790 3008 
L 2643 3008 
z
" id="URWPalladioL-Roma-77" transform="scale(0.015625)"/>
      <path d="M 2624 -7 
C 3014 -7 3021 -7 3130 -7 
C 3219 -7 3219 -7 3661 -7 
L 3661 179 
L 3398 205 
C 3181 205 3162 244 3162 654 
L 3162 1892 
C 3162 2642 2810 3008 2093 3008 
C 1856 3008 1722 2963 1587 2847 
L 1101 2424 
L 1101 2982 
L 1043 3008 
C 717 2873 384 2783 45 2745 
L 45 2565 
L 282 2565 
C 538 2565 563 2520 563 2094 
L 563 643 
C 563 237 544 192 326 192 
L 38 192 
L 38 -7 
C 474 -7 646 -7 832 -7 
C 1018 -7 1190 -7 1626 -7 
L 1626 192 
L 1338 192 
C 1120 192 1101 237 1101 643 
L 1101 2011 
C 1101 2300 1523 2616 1914 2616 
C 2342 2616 2624 2297 2624 1806 
L 2624 -7 
z
" id="URWPalladioL-Roma-6e" transform="scale(0.015625)"/>
      <path d="M 2554 1994 
C 2554 2289 2586 2552 2643 2783 
C 2387 2937 2163 3008 1901 3008 
C 1594 3008 1235 2886 851 2642 
C 403 2360 166 1911 166 1347 
C 166 481 774 -128 1632 -128 
C 1965 -128 2445 -6 2509 90 
L 2643 295 
L 2579 391 
C 2342 263 2138 205 1907 205 
C 1197 205 730 757 730 1603 
C 730 2289 1050 2674 1626 2674 
C 1907 2674 2214 2546 2330 2386 
L 2374 1994 
L 2554 1994 
z
" id="URWPalladioL-Roma-63" transform="scale(0.015625)"/>
      <path d="M 3219 3009 
L 3162 3035 
C 2835 2900 2502 2810 2163 2772 
L 2163 2592 
L 2400 2592 
C 2656 2592 2682 2547 2682 2121 
L 2682 1070 
C 2682 928 2592 747 2445 599 
C 2266 418 2061 327 1811 327 
C 1587 327 1408 398 1306 521 
C 1216 624 1171 824 1171 1107 
L 1171 3009 
L 1114 3035 
C 787 2900 454 2810 115 2772 
L 115 2592 
L 352 2592 
C 608 2592 634 2547 634 2122 
L 634 1039 
C 634 587 672 387 787 227 
C 928 33 1171 -64 1536 -64 
C 1824 -64 2080 26 2253 186 
L 2682 585 
C 2682 401 2675 298 2656 0 
C 3085 0 3091 0 3187 0 
C 3277 0 3277 0 3718 0 
L 3718 186 
L 3456 212 
C 3238 212 3219 251 3219 664 
L 3219 3009 
z
" id="URWPalladioL-Roma-75" transform="scale(0.015625)"/>
     </defs>
     <use transform="scale(0.996264)" xlink:href="#URWPalladioL-Roma-6c"/>
     <use transform="translate(28.990361 0)scale(0.996264)" xlink:href="#URWPalladioL-Roma-6f"/>
     <use transform="translate(83.385942 0)scale(0.996264)" xlink:href="#URWPalladioL-Roma-77"/>
     <use transform="translate(191.380635 0)scale(0.996264)" xlink:href="#URWPalladioL-Roma-69"/>
     <use transform="translate(220.370996 0)scale(0.996264)" xlink:href="#URWPalladioL-Roma-6e"/>
     <use transform="translate(278.353057 0)scale(0.996264)" xlink:href="#URWPalladioL-Roma-63"/>
     <use transform="translate(322.586626 0)scale(0.996264)" xlink:href="#URWPalladioL-Roma-69"/>
     <use transform="translate(351.576987 0)scale(0.996264)" xlink:href="#URWPalladioL-Roma-64"/>
     <use transform="translate(412.448618 0)scale(0.996264)" xlink:href="#URWPalladioL-Roma-65"/>
     <use transform="translate(460.168913 0)scale(0.996264)" xlink:href="#URWPalladioL-Roma-6e"/>
     <use transform="translate(518.150974 0)scale(0.996264)" xlink:href="#URWPalladioL-Roma-63"/>
     <use transform="translate(562.384542 0)scale(0.996264)" xlink:href="#URWPalladioL-Roma-65"/>
     <use transform="translate(635.011438 0)scale(0.996264)" xlink:href="#URWPalladioL-Roma-6f"/>
     <use transform="translate(689.407018 0)scale(0.996264)" xlink:href="#URWPalladioL-Roma-66"/>
     <use transform="translate(747.488848 0)scale(0.996264)" xlink:href="#URWPalladioL-Roma-63"/>
     <use transform="translate(791.722417 0)scale(0.996264)" xlink:href="#URWPalladioL-Roma-6f"/>
     <use transform="translate(846.117997 0)scale(0.996264)" xlink:href="#URWPalladioL-Roma-6d"/>
     <use transform="translate(934.087671 0)scale(0.996264)" xlink:href="#URWPalladioL-Roma-6d"/>
     <use transform="translate(1022.057345 0)scale(0.996264)" xlink:href="#URWPalladioL-Roma-75"/>
     <use transform="translate(1082.13108 0)scale(0.996264)" xlink:href="#URWPalladioL-Roma-6e"/>
     <use transform="translate(1140.113141 0)scale(0.996264)" xlink:href="#URWPalladioL-Roma-69"/>
     <use transform="translate(1169.103502 0)scale(0.996264)" xlink:href="#URWPalladioL-Roma-74"/>
     <use transform="translate(1201.58059 0)scale(0.996264)" xlink:href="#URWPalladioL-Roma-79"/>
     <use transform="translate(1281.878867 0)scale(0.996264)" xlink:href="#URWPalladioL-Roma-74"/>
     <use transform="translate(1314.355955 0)scale(0.996264)" xlink:href="#URWPalladioL-Roma-72"/>
     <use transform="translate(1353.707852 0)scale(0.996264)" xlink:href="#URWPalladioL-Roma-61"/>
     <use transform="translate(1403.521052 0)scale(0.996264)" xlink:href="#URWPalladioL-Roma-6e"/>
     <use transform="translate(1461.503113 0)scale(0.996264)" xlink:href="#URWPalladioL-Roma-73"/>
     <use transform="translate(1503.744579 0)scale(0.996264)" xlink:href="#URWPalladioL-Roma-6d"/>
     <use transform="translate(1591.714253 0)scale(0.996264)" xlink:href="#URWPalladioL-Roma-69"/>
     <use transform="translate(1620.704615 0)scale(0.996264)" xlink:href="#URWPalladioL-Roma-73"/>
     <use transform="translate(1662.946081 0)scale(0.996264)" xlink:href="#URWPalladioL-Roma-73"/>
     <use transform="translate(1705.187547 0)scale(0.996264)" xlink:href="#URWPalladioL-Roma-69"/>
     <use transform="translate(1734.177909 0)scale(0.996264)" xlink:href="#URWPalladioL-Roma-6f"/>
     <use transform="translate(1788.573489 0)scale(0.996264)" xlink:href="#URWPalladioL-Roma-6e"/>
    </g>
   </g>
   <g id="text_19">
    <!-- moderate incidence of community transmission -->
    <g style="fill:#ffa500;" transform="translate(345.324244 24.328237)scale(0.1 -0.1)">
     <use transform="scale(0.996264)" xlink:href="#URWPalladioL-Roma-6d"/>
     <use transform="translate(87.969674 0)scale(0.996264)" xlink:href="#URWPalladioL-Roma-6f"/>
     <use transform="translate(142.365254 0)scale(0.996264)" xlink:href="#URWPalladioL-Roma-64"/>
     <use transform="translate(203.236885 0)scale(0.996264)" xlink:href="#URWPalladioL-Roma-65"/>
     <use transform="translate(250.95718 0)scale(0.996264)" xlink:href="#URWPalladioL-Roma-72"/>
     <use transform="translate(290.309077 0)scale(0.996264)" xlink:href="#URWPalladioL-Roma-61"/>
     <use transform="translate(340.122277 0)scale(0.996264)" xlink:href="#URWPalladioL-Roma-74"/>
     <use transform="translate(372.599365 0)scale(0.996264)" xlink:href="#URWPalladioL-Roma-65"/>
     <use transform="translate(445.22626 0)scale(0.996264)" xlink:href="#URWPalladioL-Roma-69"/>
     <use transform="translate(474.216622 0)scale(0.996264)" xlink:href="#URWPalladioL-Roma-6e"/>
     <use transform="translate(532.198682 0)scale(0.996264)" xlink:href="#URWPalladioL-Roma-63"/>
     <use transform="translate(576.432251 0)scale(0.996264)" xlink:href="#URWPalladioL-Roma-69"/>
     <use transform="translate(605.422613 0)scale(0.996264)" xlink:href="#URWPalladioL-Roma-64"/>
     <use transform="translate(666.294243 0)scale(0.996264)" xlink:href="#URWPalladioL-Roma-65"/>
     <use transform="translate(714.014538 0)scale(0.996264)" xlink:href="#URWPalladioL-Roma-6e"/>
     <use transform="translate(771.996599 0)scale(0.996264)" xlink:href="#URWPalladioL-Roma-63"/>
     <use transform="translate(816.230168 0)scale(0.996264)" xlink:href="#URWPalladioL-Roma-65"/>
     <use transform="translate(888.857063 0)scale(0.996264)" xlink:href="#URWPalladioL-Roma-6f"/>
     <use transform="translate(943.252643 0)scale(0.996264)" xlink:href="#URWPalladioL-Roma-66"/>
     <use transform="translate(1001.334473 0)scale(0.996264)" xlink:href="#URWPalladioL-Roma-63"/>
     <use transform="translate(1045.568042 0)scale(0.996264)" xlink:href="#URWPalladioL-Roma-6f"/>
     <use transform="translate(1099.963622 0)scale(0.996264)" xlink:href="#URWPalladioL-Roma-6d"/>
     <use transform="translate(1187.933296 0)scale(0.996264)" xlink:href="#URWPalladioL-Roma-6d"/>
     <use transform="translate(1275.902971 0)scale(0.996264)" xlink:href="#URWPalladioL-Roma-75"/>
     <use transform="translate(1335.976705 0)scale(0.996264)" xlink:href="#URWPalladioL-Roma-6e"/>
     <use transform="translate(1393.958766 0)scale(0.996264)" xlink:href="#URWPalladioL-Roma-69"/>
     <use transform="translate(1422.949128 0)scale(0.996264)" xlink:href="#URWPalladioL-Roma-74"/>
     <use transform="translate(1455.426215 0)scale(0.996264)" xlink:href="#URWPalladioL-Roma-79"/>
     <use transform="translate(1535.724493 0)scale(0.996264)" xlink:href="#URWPalladioL-Roma-74"/>
     <use transform="translate(1568.20158 0)scale(0.996264)" xlink:href="#URWPalladioL-Roma-72"/>
     <use transform="translate(1607.553477 0)scale(0.996264)" xlink:href="#URWPalladioL-Roma-61"/>
     <use transform="translate(1657.366677 0)scale(0.996264)" xlink:href="#URWPalladioL-Roma-6e"/>
     <use transform="translate(1715.348738 0)scale(0.996264)" xlink:href="#URWPalladioL-Roma-73"/>
     <use transform="translate(1757.590204 0)scale(0.996264)" xlink:href="#URWPalladioL-Roma-6d"/>
     <use transform="translate(1845.559879 0)scale(0.996264)" xlink:href="#URWPalladioL-Roma-69"/>
     <use transform="translate(1874.55024 0)scale(0.996264)" xlink:href="#URWPalladioL-Roma-73"/>
     <use transform="translate(1916.791706 0)scale(0.996264)" xlink:href="#URWPalladioL-Roma-73"/>
     <use transform="translate(1959.033173 0)scale(0.996264)" xlink:href="#URWPalladioL-Roma-69"/>
     <use transform="translate(1988.023534 0)scale(0.996264)" xlink:href="#URWPalladioL-Roma-6f"/>
     <use transform="translate(2042.419114 0)scale(0.996264)" xlink:href="#URWPalladioL-Roma-6e"/>
    </g>
   </g>
   <g id="text_20">
    <!-- high incidence of community transmission -->
    <g style="fill:#ff0000;" transform="translate(345.324244 14.328237)scale(0.1 -0.1)">
     <defs>
      <path d="M 45 4248 
L 403 4248 
C 518 4248 563 4177 563 3984 
L 563 643 
C 563 237 544 192 326 192 
L 38 192 
L 38 -7 
C 474 -7 646 -7 832 -7 
C 1018 -7 1190 -7 1626 -7 
L 1626 192 
L 1338 192 
C 1120 192 1101 237 1101 643 
L 1101 2011 
C 1101 2300 1523 2616 1914 2616 
C 2342 2616 2624 2297 2624 1806 
L 2624 -7 
C 3014 -7 3021 -7 3130 -7 
C 3219 -7 3219 -7 3661 -7 
L 3661 179 
L 3398 205 
C 3181 205 3162 244 3162 654 
L 3162 1892 
C 3162 2642 2810 3008 2093 3008 
C 1856 3008 1722 2963 1587 2847 
L 1101 2424 
L 1101 4613 
L 1043 4665 
C 762 4556 550 4504 45 4427 
L 45 4248 
z
" id="URWPalladioL-Roma-68" transform="scale(0.015625)"/>
      <path d="M 3322 2432 
L 3482 2695 
L 3456 2759 
L 2547 2759 
C 2310 2937 2080 3008 1766 3008 
C 1485 3008 1158 2920 896 2768 
C 538 2567 352 2258 352 1874 
C 352 1408 646 1087 1120 1036 
L 614 640 
C 550 543 518 459 518 361 
C 518 180 634 76 941 -14 
L 384 -316 
C 294 -367 205 -604 205 -803 
C 205 -1388 774 -1792 1587 -1792 
C 2554 -1792 3315 -1182 3315 -399 
C 3315 63 3008 384 2560 384 
L 1536 384 
C 1203 384 1050 462 1050 639 
C 1050 724 1101 795 1267 939 
C 1306 972 1318 985 1344 1011 
C 1408 1004 1446 998 1498 998 
C 1773 998 2112 1118 2374 1300 
C 2662 1507 2803 1759 2803 2093 
C 2803 2218 2784 2300 2733 2432 
L 3322 2432 
z
M 1536 2790 
C 1971 2790 2266 2438 2266 1905 
C 2266 1499 1997 1216 1606 1216 
C 1178 1216 890 1542 890 2025 
C 890 2507 1126 2790 1536 2790 
z
M 1837 -65 
C 2560 -65 2810 -212 2810 -630 
C 2810 -1182 2304 -1593 1632 -1593 
C 1075 -1593 691 -1266 691 -790 
C 691 -502 858 -238 1114 -129 
C 1216 -78 1395 -65 1837 -65 
z
" id="URWPalladioL-Roma-67" transform="scale(0.015625)"/>
     </defs>
     <use transform="scale(0.996264)" xlink:href="#URWPalladioL-Roma-68"/>
     <use transform="translate(57.982061 0)scale(0.996264)" xlink:href="#URWPalladioL-Roma-69"/>
     <use transform="translate(86.972422 0)scale(0.996264)" xlink:href="#URWPalladioL-Roma-67"/>
     <use transform="translate(142.364099 0)scale(0.996264)" xlink:href="#URWPalladioL-Roma-68"/>
     <use transform="translate(225.25276 0)scale(0.996264)" xlink:href="#URWPalladioL-Roma-69"/>
     <use transform="translate(254.243121 0)scale(0.996264)" xlink:href="#URWPalladioL-Roma-6e"/>
     <use transform="translate(312.225182 0)scale(0.996264)" xlink:href="#URWPalladioL-Roma-63"/>
     <use transform="translate(356.458751 0)scale(0.996264)" xlink:href="#URWPalladioL-Roma-69"/>
     <use transform="translate(385.449112 0)scale(0.996264)" xlink:href="#URWPalladioL-Roma-64"/>
     <use transform="translate(446.320743 0)scale(0.996264)" xlink:href="#URWPalladioL-Roma-65"/>
     <use transform="translate(494.041038 0)scale(0.996264)" xlink:href="#URWPalladioL-Roma-6e"/>
     <use transform="translate(552.023099 0)scale(0.996264)" xlink:href="#URWPalladioL-Roma-63"/>
     <use transform="translate(596.256668 0)scale(0.996264)" xlink:href="#URWPalladioL-Roma-65"/>
     <use transform="translate(668.883563 0)scale(0.996264)" xlink:href="#URWPalladioL-Roma-6f"/>
     <use transform="translate(723.279143 0)scale(0.996264)" xlink:href="#URWPalladioL-Roma-66"/>
     <use transform="translate(781.360973 0)scale(0.996264)" xlink:href="#URWPalladioL-Roma-63"/>
     <use transform="translate(825.594542 0)scale(0.996264)" xlink:href="#URWPalladioL-Roma-6f"/>
     <use transform="translate(879.990122 0)scale(0.996264)" xlink:href="#URWPalladioL-Roma-6d"/>
     <use transform="translate(967.959796 0)scale(0.996264)" xlink:href="#URWPalladioL-Roma-6d"/>
     <use transform="translate(1055.92947 0)scale(0.996264)" xlink:href="#URWPalladioL-Roma-75"/>
     <use transform="translate(1116.003205 0)scale(0.996264)" xlink:href="#URWPalladioL-Roma-6e"/>
     <use transform="translate(1173.985266 0)scale(0.996264)" xlink:href="#URWPalladioL-Roma-69"/>
     <use transform="translate(1202.975627 0)scale(0.996264)" xlink:href="#URWPalladioL-Roma-74"/>
     <use transform="translate(1235.452715 0)scale(0.996264)" xlink:href="#URWPalladioL-Roma-79"/>
     <use transform="translate(1315.750992 0)scale(0.996264)" xlink:href="#URWPalladioL-Roma-74"/>
     <use transform="translate(1348.22808 0)scale(0.996264)" xlink:href="#URWPalladioL-Roma-72"/>
     <use transform="translate(1387.579977 0)scale(0.996264)" xlink:href="#URWPalladioL-Roma-61"/>
     <use transform="translate(1437.393177 0)scale(0.996264)" xlink:href="#URWPalladioL-Roma-6e"/>
     <use transform="translate(1495.375238 0)scale(0.996264)" xlink:href="#URWPalladioL-Roma-73"/>
     <use transform="translate(1537.616704 0)scale(0.996264)" xlink:href="#URWPalladioL-Roma-6d"/>
     <use transform="translate(1625.586378 0)scale(0.996264)" xlink:href="#URWPalladioL-Roma-69"/>
     <use transform="translate(1654.57674 0)scale(0.996264)" xlink:href="#URWPalladioL-Roma-73"/>
     <use transform="translate(1696.818206 0)scale(0.996264)" xlink:href="#URWPalladioL-Roma-73"/>
     <use transform="translate(1739.059672 0)scale(0.996264)" xlink:href="#URWPalladioL-Roma-69"/>
     <use transform="translate(1768.050034 0)scale(0.996264)" xlink:href="#URWPalladioL-Roma-6f"/>
     <use transform="translate(1822.445614 0)scale(0.996264)" xlink:href="#URWPalladioL-Roma-6e"/>
    </g>
   </g>
  </g>
 </g>
 <defs>
  <clipPath id="p2d0f8e3c1c">
   <rect height="221.76" width="279" x="57.954244" y="22.168824"/>
  </clipPath>
 </defs>
</svg>
