<?xml version="1.0" encoding="utf-8" standalone="no"?>
<!DOCTYPE svg PUBLIC "-//W3C//DTD SVG 1.1//EN"
  "http://www.w3.org/Graphics/SVG/1.1/DTD/svg11.dtd">
<!-- Created with matplotlib (https://matplotlib.org/) -->
<svg height="380.423875pt" version="1.1" viewBox="0 0 630.214437 380.423875" width="630.214437pt" xmlns="http://www.w3.org/2000/svg" xmlns:xlink="http://www.w3.org/1999/xlink">
 <metadata>
  <rdf:RDF xmlns:cc="http://creativecommons.org/ns#" xmlns:dc="http://purl.org/dc/elements/1.1/" xmlns:rdf="http://www.w3.org/1999/02/22-rdf-syntax-ns#">
   <cc:Work>
    <dc:type rdf:resource="http://purl.org/dc/dcmitype/StillImage"/>
    <dc:date>2020-12-17T12:32:44.317681</dc:date>
    <dc:format>image/svg+xml</dc:format>
    <dc:creator>
     <cc:Agent>
      <dc:title>Matplotlib v3.3.3, https://matplotlib.org/</dc:title>
     </cc:Agent>
    </dc:creator>
   </cc:Work>
  </rdf:RDF>
 </metadata>
 <defs>
  <style type="text/css">*{stroke-linecap:butt;stroke-linejoin:round;}</style>
 </defs>
 <g id="figure_1">
  <g id="patch_1">
   <path d="M 0 380.423875 
L 630.214437 380.423875 
L 630.214437 0 
L 0 0 
z
" style="fill:#ffffff;"/>
  </g>
  <g id="axes_1">
   <g id="patch_2">
    <path d="M 57.800938 288.430125 
L 414.920938 288.430125 
L 414.920938 22.318125 
L 57.800938 22.318125 
z
" style="fill:#ffffff;"/>
   </g>
   <g id="patch_3">
    <path clip-path="url(#p18f5915c5a)" d="M 58.333952 288.430125 
L 62.598072 288.430125 
L 62.598072 285.223956 
L 58.333952 285.223956 
z
" style="fill:#1f77b4;"/>
   </g>
   <g id="patch_4">
    <path clip-path="url(#p18f5915c5a)" d="M 63.664102 288.430125 
L 67.928221 288.430125 
L 67.928221 285.223956 
L 63.664102 285.223956 
z
" style="fill:#1f77b4;"/>
   </g>
   <g id="patch_5">
    <path clip-path="url(#p18f5915c5a)" d="M 68.994251 288.430125 
L 73.25837 288.430125 
L 73.25837 285.223956 
L 68.994251 285.223956 
z
" style="fill:#1f77b4;"/>
   </g>
   <g id="patch_6">
    <path clip-path="url(#p18f5915c5a)" d="M 74.3244 288.430125 
L 78.58852 288.430125 
L 78.58852 285.223956 
L 74.3244 285.223956 
z
" style="fill:#1f77b4;"/>
   </g>
   <g id="patch_7">
    <path clip-path="url(#p18f5915c5a)" d="M 79.654549 288.430125 
L 83.918669 288.430125 
L 83.918669 285.223956 
L 79.654549 285.223956 
z
" style="fill:#1f77b4;"/>
   </g>
   <g id="patch_8">
    <path clip-path="url(#p18f5915c5a)" d="M 84.984699 288.430125 
L 89.248818 288.430125 
L 89.248818 285.223956 
L 84.984699 285.223956 
z
" style="fill:#1f77b4;"/>
   </g>
   <g id="patch_9">
    <path clip-path="url(#p18f5915c5a)" d="M 90.314848 288.430125 
L 94.578967 288.430125 
L 94.578967 288.430125 
L 90.314848 288.430125 
z
" style="fill:#1f77b4;"/>
   </g>
   <g id="patch_10">
    <path clip-path="url(#p18f5915c5a)" d="M 95.644997 288.430125 
L 99.909117 288.430125 
L 99.909117 285.223956 
L 95.644997 285.223956 
z
" style="fill:#1f77b4;"/>
   </g>
   <g id="patch_11">
    <path clip-path="url(#p18f5915c5a)" d="M 100.975146 288.430125 
L 105.239266 288.430125 
L 105.239266 285.223956 
L 100.975146 285.223956 
z
" style="fill:#1f77b4;"/>
   </g>
   <g id="patch_12">
    <path clip-path="url(#p18f5915c5a)" d="M 106.305296 288.430125 
L 110.569415 288.430125 
L 110.569415 278.811619 
L 106.305296 278.811619 
z
" style="fill:#1f77b4;"/>
   </g>
   <g id="patch_13">
    <path clip-path="url(#p18f5915c5a)" d="M 111.635445 288.430125 
L 115.899564 288.430125 
L 115.899564 278.811619 
L 111.635445 278.811619 
z
" style="fill:#1f77b4;"/>
   </g>
   <g id="patch_14">
    <path clip-path="url(#p18f5915c5a)" d="M 116.965594 288.430125 
L 121.229714 288.430125 
L 121.229714 278.811619 
L 116.965594 278.811619 
z
" style="fill:#1f77b4;"/>
   </g>
   <g id="patch_15">
    <path clip-path="url(#p18f5915c5a)" d="M 122.295743 288.430125 
L 126.559863 288.430125 
L 126.559863 278.811619 
L 122.295743 278.811619 
z
" style="fill:#1f77b4;"/>
   </g>
   <g id="patch_16">
    <path clip-path="url(#p18f5915c5a)" d="M 127.625893 288.430125 
L 131.890012 288.430125 
L 131.890012 278.811619 
L 127.625893 278.811619 
z
" style="fill:#1f77b4;"/>
   </g>
   <g id="patch_17">
    <path clip-path="url(#p18f5915c5a)" d="M 132.956042 288.430125 
L 137.220161 288.430125 
L 137.220161 272.399282 
L 132.956042 272.399282 
z
" style="fill:#1f77b4;"/>
   </g>
   <g id="patch_18">
    <path clip-path="url(#p18f5915c5a)" d="M 138.286191 288.430125 
L 142.550311 288.430125 
L 142.550311 269.193113 
L 138.286191 269.193113 
z
" style="fill:#1f77b4;"/>
   </g>
   <g id="patch_19">
    <path clip-path="url(#p18f5915c5a)" d="M 143.61634 288.430125 
L 147.88046 288.430125 
L 147.88046 262.780776 
L 143.61634 262.780776 
z
" style="fill:#1f77b4;"/>
   </g>
   <g id="patch_20">
    <path clip-path="url(#p18f5915c5a)" d="M 148.94649 288.430125 
L 153.210609 288.430125 
L 153.210609 256.368438 
L 148.94649 256.368438 
z
" style="fill:#1f77b4;"/>
   </g>
   <g id="patch_21">
    <path clip-path="url(#p18f5915c5a)" d="M 154.276639 288.430125 
L 158.540758 288.430125 
L 158.540758 249.956101 
L 154.276639 249.956101 
z
" style="fill:#1f77b4;"/>
   </g>
   <g id="patch_22">
    <path clip-path="url(#p18f5915c5a)" d="M 159.606788 288.430125 
L 163.870908 288.430125 
L 163.870908 237.131426 
L 159.606788 237.131426 
z
" style="fill:#1f77b4;"/>
   </g>
   <g id="patch_23">
    <path clip-path="url(#p18f5915c5a)" d="M 164.936937 288.430125 
L 169.201057 288.430125 
L 169.201057 227.51292 
L 164.936937 227.51292 
z
" style="fill:#1f77b4;"/>
   </g>
   <g id="patch_24">
    <path clip-path="url(#p18f5915c5a)" d="M 170.267087 288.430125 
L 174.531206 288.430125 
L 174.531206 224.306752 
L 170.267087 224.306752 
z
" style="fill:#1f77b4;"/>
   </g>
   <g id="patch_25">
    <path clip-path="url(#p18f5915c5a)" d="M 175.597236 288.430125 
L 179.861355 288.430125 
L 179.861355 224.306752 
L 175.597236 224.306752 
z
" style="fill:#1f77b4;"/>
   </g>
   <g id="patch_26">
    <path clip-path="url(#p18f5915c5a)" d="M 180.927385 288.430125 
L 185.191505 288.430125 
L 185.191505 230.719089 
L 180.927385 230.719089 
z
" style="fill:#1f77b4;"/>
   </g>
   <g id="patch_27">
    <path clip-path="url(#p18f5915c5a)" d="M 186.257535 288.430125 
L 190.521654 288.430125 
L 190.521654 224.306752 
L 186.257535 224.306752 
z
" style="fill:#1f77b4;"/>
   </g>
   <g id="patch_28">
    <path clip-path="url(#p18f5915c5a)" d="M 191.587684 288.430125 
L 195.851803 288.430125 
L 195.851803 217.894414 
L 191.587684 217.894414 
z
" style="fill:#1f77b4;"/>
   </g>
   <g id="patch_29">
    <path clip-path="url(#p18f5915c5a)" d="M 196.917833 288.430125 
L 201.181952 288.430125 
L 201.181952 208.275908 
L 196.917833 208.275908 
z
" style="fill:#1f77b4;"/>
   </g>
   <g id="patch_30">
    <path clip-path="url(#p18f5915c5a)" d="M 202.247982 288.430125 
L 206.512102 288.430125 
L 206.512102 205.069739 
L 202.247982 205.069739 
z
" style="fill:#1f77b4;"/>
   </g>
   <g id="patch_31">
    <path clip-path="url(#p18f5915c5a)" d="M 207.578132 288.430125 
L 211.842251 288.430125 
L 211.842251 205.069739 
L 207.578132 205.069739 
z
" style="fill:#1f77b4;"/>
   </g>
   <g id="patch_32">
    <path clip-path="url(#p18f5915c5a)" d="M 212.908281 288.430125 
L 217.1724 288.430125 
L 217.1724 192.245065 
L 212.908281 192.245065 
z
" style="fill:#1f77b4;"/>
   </g>
   <g id="patch_33">
    <path clip-path="url(#p18f5915c5a)" d="M 218.23843 288.430125 
L 222.502549 288.430125 
L 222.502549 169.801884 
L 218.23843 169.801884 
z
" style="fill:#1f77b4;"/>
   </g>
   <g id="patch_34">
    <path clip-path="url(#p18f5915c5a)" d="M 223.568579 288.430125 
L 227.832699 288.430125 
L 227.832699 163.389547 
L 223.568579 163.389547 
z
" style="fill:#1f77b4;"/>
   </g>
   <g id="patch_35">
    <path clip-path="url(#p18f5915c5a)" d="M 228.898729 288.430125 
L 233.162848 288.430125 
L 233.162848 147.358703 
L 228.898729 147.358703 
z
" style="fill:#1f77b4;"/>
   </g>
   <g id="patch_36">
    <path clip-path="url(#p18f5915c5a)" d="M 234.228878 288.430125 
L 238.492997 288.430125 
L 238.492997 153.771041 
L 234.228878 153.771041 
z
" style="fill:#1f77b4;"/>
   </g>
   <g id="patch_37">
    <path clip-path="url(#p18f5915c5a)" d="M 239.559027 288.430125 
L 243.823146 288.430125 
L 243.823146 105.678511 
L 239.559027 105.678511 
z
" style="fill:#1f77b4;"/>
   </g>
   <g id="patch_38">
    <path clip-path="url(#p18f5915c5a)" d="M 244.889176 288.430125 
L 249.153296 288.430125 
L 249.153296 96.060005 
L 244.889176 96.060005 
z
" style="fill:#1f77b4;"/>
   </g>
   <g id="patch_39">
    <path clip-path="url(#p18f5915c5a)" d="M 250.219326 288.430125 
L 254.483445 288.430125 
L 254.483445 83.23533 
L 250.219326 83.23533 
z
" style="fill:#1f77b4;"/>
   </g>
   <g id="patch_40">
    <path clip-path="url(#p18f5915c5a)" d="M 255.549475 288.430125 
L 259.813594 288.430125 
L 259.813594 76.822992 
L 255.549475 76.822992 
z
" style="fill:#1f77b4;"/>
   </g>
   <g id="patch_41">
    <path clip-path="url(#p18f5915c5a)" d="M 260.879624 288.430125 
L 265.143743 288.430125 
L 265.143743 54.379812 
L 260.879624 54.379812 
z
" style="fill:#1f77b4;"/>
   </g>
   <g id="patch_42">
    <path clip-path="url(#p18f5915c5a)" d="M 266.209773 288.430125 
L 270.473893 288.430125 
L 270.473893 57.58598 
L 266.209773 57.58598 
z
" style="fill:#1f77b4;"/>
   </g>
   <g id="patch_43">
    <path clip-path="url(#p18f5915c5a)" d="M 271.539923 288.430125 
L 275.804042 288.430125 
L 275.804042 22.318125 
L 271.539923 22.318125 
z
" style="fill:#1f77b4;"/>
   </g>
   <g id="patch_44">
    <path clip-path="url(#p18f5915c5a)" d="M 276.870072 288.430125 
L 281.134191 288.430125 
L 281.134191 60.792149 
L 276.870072 60.792149 
z
" style="fill:#1f77b4;"/>
   </g>
   <g id="patch_45">
    <path clip-path="url(#p18f5915c5a)" d="M 282.200221 288.430125 
L 286.46434 288.430125 
L 286.46434 67.204486 
L 282.200221 67.204486 
z
" style="fill:#1f77b4;"/>
   </g>
   <g id="patch_46">
    <path clip-path="url(#p18f5915c5a)" d="M 287.53037 288.430125 
L 291.79449 288.430125 
L 291.79449 44.761306 
L 287.53037 44.761306 
z
" style="fill:#1f77b4;"/>
   </g>
   <g id="patch_47">
    <path clip-path="url(#p18f5915c5a)" d="M 292.86052 288.430125 
L 297.124639 288.430125 
L 297.124639 54.379812 
L 292.86052 54.379812 
z
" style="fill:#1f77b4;"/>
   </g>
   <g id="patch_48">
    <path clip-path="url(#p18f5915c5a)" d="M 298.190669 288.430125 
L 302.454788 288.430125 
L 302.454788 60.792149 
L 298.190669 60.792149 
z
" style="fill:#1f77b4;"/>
   </g>
   <g id="patch_49">
    <path clip-path="url(#p18f5915c5a)" d="M 303.520818 288.430125 
L 307.784937 288.430125 
L 307.784937 51.173643 
L 303.520818 51.173643 
z
" style="fill:#1f77b4;"/>
   </g>
   <g id="patch_50">
    <path clip-path="url(#p18f5915c5a)" d="M 308.850967 288.430125 
L 313.115087 288.430125 
L 313.115087 92.853836 
L 308.850967 92.853836 
z
" style="fill:#1f77b4;"/>
   </g>
   <g id="patch_51">
    <path clip-path="url(#p18f5915c5a)" d="M 314.181117 288.430125 
L 318.445236 288.430125 
L 318.445236 92.853836 
L 314.181117 92.853836 
z
" style="fill:#1f77b4;"/>
   </g>
   <g id="patch_52">
    <path clip-path="url(#p18f5915c5a)" d="M 319.511266 288.430125 
L 323.775385 288.430125 
L 323.775385 105.678511 
L 319.511266 105.678511 
z
" style="fill:#1f77b4;"/>
   </g>
   <g id="patch_53">
    <path clip-path="url(#p18f5915c5a)" d="M 324.841415 288.430125 
L 329.105535 288.430125 
L 329.105535 144.152535 
L 324.841415 144.152535 
z
" style="fill:#1f77b4;"/>
   </g>
   <g id="patch_54">
    <path clip-path="url(#p18f5915c5a)" d="M 330.171564 288.430125 
L 334.435684 288.430125 
L 334.435684 147.358703 
L 330.171564 147.358703 
z
" style="fill:#1f77b4;"/>
   </g>
   <g id="patch_55">
    <path clip-path="url(#p18f5915c5a)" d="M 335.501714 288.430125 
L 339.765833 288.430125 
L 339.765833 131.32786 
L 335.501714 131.32786 
z
" style="fill:#1f77b4;"/>
   </g>
   <g id="patch_56">
    <path clip-path="url(#p18f5915c5a)" d="M 340.831863 288.430125 
L 345.095982 288.430125 
L 345.095982 131.32786 
L 340.831863 131.32786 
z
" style="fill:#1f77b4;"/>
   </g>
   <g id="patch_57">
    <path clip-path="url(#p18f5915c5a)" d="M 346.162012 288.430125 
L 350.426132 288.430125 
L 350.426132 131.32786 
L 346.162012 131.32786 
z
" style="fill:#1f77b4;"/>
   </g>
   <g id="patch_58">
    <path clip-path="url(#p18f5915c5a)" d="M 351.492161 288.430125 
L 355.756281 288.430125 
L 355.756281 134.534029 
L 351.492161 134.534029 
z
" style="fill:#1f77b4;"/>
   </g>
   <g id="patch_59">
    <path clip-path="url(#p18f5915c5a)" d="M 356.822311 288.430125 
L 361.08643 288.430125 
L 361.08643 121.709354 
L 356.822311 121.709354 
z
" style="fill:#1f77b4;"/>
   </g>
   <g id="patch_60">
    <path clip-path="url(#p18f5915c5a)" d="M 362.15246 288.430125 
L 366.416579 288.430125 
L 366.416579 99.266173 
L 362.15246 99.266173 
z
" style="fill:#1f77b4;"/>
   </g>
   <g id="patch_61">
    <path clip-path="url(#p18f5915c5a)" d="M 367.482609 288.430125 
L 371.746729 288.430125 
L 371.746729 89.647667 
L 367.482609 89.647667 
z
" style="fill:#1f77b4;"/>
   </g>
   <g id="patch_62">
    <path clip-path="url(#p18f5915c5a)" d="M 372.812758 288.430125 
L 377.076878 288.430125 
L 377.076878 115.297017 
L 372.812758 115.297017 
z
" style="fill:#1f77b4;"/>
   </g>
   <g id="patch_63">
    <path clip-path="url(#p18f5915c5a)" d="M 378.142908 288.430125 
L 382.407027 288.430125 
L 382.407027 96.060005 
L 378.142908 96.060005 
z
" style="fill:#1f77b4;"/>
   </g>
   <g id="patch_64">
    <path clip-path="url(#p18f5915c5a)" d="M 383.473057 288.430125 
L 387.737176 288.430125 
L 387.737176 89.647667 
L 383.473057 89.647667 
z
" style="fill:#1f77b4;"/>
   </g>
   <g id="patch_65">
    <path clip-path="url(#p18f5915c5a)" d="M 388.803206 288.430125 
L 393.067326 288.430125 
L 393.067326 96.060005 
L 388.803206 96.060005 
z
" style="fill:#1f77b4;"/>
   </g>
   <g id="patch_66">
    <path clip-path="url(#p18f5915c5a)" d="M 394.133355 288.430125 
L 398.397475 288.430125 
L 398.397475 83.23533 
L 394.133355 83.23533 
z
" style="fill:#1f77b4;"/>
   </g>
   <g id="patch_67">
    <path clip-path="url(#p18f5915c5a)" d="M 399.463505 288.430125 
L 403.727624 288.430125 
L 403.727624 86.441498 
L 399.463505 86.441498 
z
" style="fill:#1f77b4;"/>
   </g>
   <g id="patch_68">
    <path clip-path="url(#p18f5915c5a)" d="M 404.793654 288.430125 
L 409.057773 288.430125 
L 409.057773 83.23533 
L 404.793654 83.23533 
z
" style="fill:#1f77b4;"/>
   </g>
   <g id="patch_69">
    <path clip-path="url(#p18f5915c5a)" d="M 410.123803 288.430125 
L 414.387923 288.430125 
L 414.387923 92.853836 
L 410.123803 92.853836 
z
" style="fill:#1f77b4;"/>
   </g>
   <g id="matplotlib.axis_1">
    <g id="xtick_1">
     <g id="line2d_1">
      <defs>
       <path d="M 0 0 
L 0 3.5 
" id="m5a4561f702" style="stroke:#000000;stroke-width:0.8;"/>
      </defs>
      <g>
       <use style="stroke:#000000;stroke-width:0.8;" x="76.45646" xlink:href="#m5a4561f702" y="288.430125"/>
      </g>
     </g>
     <g id="text_1">
      <!-- 2020-10-15 -->
      <g transform="translate(79.215835 353.54575)rotate(-90)scale(0.1 -0.1)">
       <defs>
        <path d="M 19.1875 8.296875 
L 53.609375 8.296875 
L 53.609375 0 
L 7.328125 0 
L 7.328125 8.296875 
Q 12.9375 14.109375 22.625 23.890625 
Q 32.328125 33.6875 34.8125 36.53125 
Q 39.546875 41.84375 41.421875 45.53125 
Q 43.3125 49.21875 43.3125 52.78125 
Q 43.3125 58.59375 39.234375 62.25 
Q 35.15625 65.921875 28.609375 65.921875 
Q 23.96875 65.921875 18.8125 64.3125 
Q 13.671875 62.703125 7.8125 59.421875 
L 7.8125 69.390625 
Q 13.765625 71.78125 18.9375 73 
Q 24.125 74.21875 28.421875 74.21875 
Q 39.75 74.21875 46.484375 68.546875 
Q 53.21875 62.890625 53.21875 53.421875 
Q 53.21875 48.921875 51.53125 44.890625 
Q 49.859375 40.875 45.40625 35.40625 
Q 44.1875 33.984375 37.640625 27.21875 
Q 31.109375 20.453125 19.1875 8.296875 
z
" id="DejaVuSans-50"/>
        <path d="M 31.78125 66.40625 
Q 24.171875 66.40625 20.328125 58.90625 
Q 16.5 51.421875 16.5 36.375 
Q 16.5 21.390625 20.328125 13.890625 
Q 24.171875 6.390625 31.78125 6.390625 
Q 39.453125 6.390625 43.28125 13.890625 
Q 47.125 21.390625 47.125 36.375 
Q 47.125 51.421875 43.28125 58.90625 
Q 39.453125 66.40625 31.78125 66.40625 
z
M 31.78125 74.21875 
Q 44.046875 74.21875 50.515625 64.515625 
Q 56.984375 54.828125 56.984375 36.375 
Q 56.984375 17.96875 50.515625 8.265625 
Q 44.046875 -1.421875 31.78125 -1.421875 
Q 19.53125 -1.421875 13.0625 8.265625 
Q 6.59375 17.96875 6.59375 36.375 
Q 6.59375 54.828125 13.0625 64.515625 
Q 19.53125 74.21875 31.78125 74.21875 
z
" id="DejaVuSans-48"/>
        <path d="M 4.890625 31.390625 
L 31.203125 31.390625 
L 31.203125 23.390625 
L 4.890625 23.390625 
z
" id="DejaVuSans-45"/>
        <path d="M 12.40625 8.296875 
L 28.515625 8.296875 
L 28.515625 63.921875 
L 10.984375 60.40625 
L 10.984375 69.390625 
L 28.421875 72.90625 
L 38.28125 72.90625 
L 38.28125 8.296875 
L 54.390625 8.296875 
L 54.390625 0 
L 12.40625 0 
z
" id="DejaVuSans-49"/>
        <path d="M 10.796875 72.90625 
L 49.515625 72.90625 
L 49.515625 64.59375 
L 19.828125 64.59375 
L 19.828125 46.734375 
Q 21.96875 47.46875 24.109375 47.828125 
Q 26.265625 48.1875 28.421875 48.1875 
Q 40.625 48.1875 47.75 41.5 
Q 54.890625 34.8125 54.890625 23.390625 
Q 54.890625 11.625 47.5625 5.09375 
Q 40.234375 -1.421875 26.90625 -1.421875 
Q 22.3125 -1.421875 17.546875 -0.640625 
Q 12.796875 0.140625 7.71875 1.703125 
L 7.71875 11.625 
Q 12.109375 9.234375 16.796875 8.0625 
Q 21.484375 6.890625 26.703125 6.890625 
Q 35.15625 6.890625 40.078125 11.328125 
Q 45.015625 15.765625 45.015625 23.390625 
Q 45.015625 31 40.078125 35.4375 
Q 35.15625 39.890625 26.703125 39.890625 
Q 22.75 39.890625 18.8125 39.015625 
Q 14.890625 38.140625 10.796875 36.28125 
z
" id="DejaVuSans-53"/>
       </defs>
       <use xlink:href="#DejaVuSans-50"/>
       <use x="63.623047" xlink:href="#DejaVuSans-48"/>
       <use x="127.246094" xlink:href="#DejaVuSans-50"/>
       <use x="190.869141" xlink:href="#DejaVuSans-48"/>
       <use x="254.492188" xlink:href="#DejaVuSans-45"/>
       <use x="290.576172" xlink:href="#DejaVuSans-49"/>
       <use x="354.199219" xlink:href="#DejaVuSans-48"/>
       <use x="417.822266" xlink:href="#DejaVuSans-45"/>
       <use x="453.90625" xlink:href="#DejaVuSans-49"/>
       <use x="517.529297" xlink:href="#DejaVuSans-53"/>
      </g>
     </g>
    </g>
    <g id="xtick_2">
     <g id="line2d_2">
      <g>
       <use style="stroke:#000000;stroke-width:0.8;" x="113.767505" xlink:href="#m5a4561f702" y="288.430125"/>
      </g>
     </g>
     <g id="text_2">
      <!-- 2020-10-22 -->
      <g transform="translate(116.52688 353.54575)rotate(-90)scale(0.1 -0.1)">
       <use xlink:href="#DejaVuSans-50"/>
       <use x="63.623047" xlink:href="#DejaVuSans-48"/>
       <use x="127.246094" xlink:href="#DejaVuSans-50"/>
       <use x="190.869141" xlink:href="#DejaVuSans-48"/>
       <use x="254.492188" xlink:href="#DejaVuSans-45"/>
       <use x="290.576172" xlink:href="#DejaVuSans-49"/>
       <use x="354.199219" xlink:href="#DejaVuSans-48"/>
       <use x="417.822266" xlink:href="#DejaVuSans-45"/>
       <use x="453.90625" xlink:href="#DejaVuSans-50"/>
       <use x="517.529297" xlink:href="#DejaVuSans-50"/>
      </g>
     </g>
    </g>
    <g id="xtick_3">
     <g id="line2d_3">
      <g>
       <use style="stroke:#000000;stroke-width:0.8;" x="167.068997" xlink:href="#m5a4561f702" y="288.430125"/>
      </g>
     </g>
     <g id="text_3">
      <!-- 2020-11-01 -->
      <g transform="translate(169.828372 353.54575)rotate(-90)scale(0.1 -0.1)">
       <use xlink:href="#DejaVuSans-50"/>
       <use x="63.623047" xlink:href="#DejaVuSans-48"/>
       <use x="127.246094" xlink:href="#DejaVuSans-50"/>
       <use x="190.869141" xlink:href="#DejaVuSans-48"/>
       <use x="254.492188" xlink:href="#DejaVuSans-45"/>
       <use x="290.576172" xlink:href="#DejaVuSans-49"/>
       <use x="354.199219" xlink:href="#DejaVuSans-49"/>
       <use x="417.822266" xlink:href="#DejaVuSans-45"/>
       <use x="453.90625" xlink:href="#DejaVuSans-48"/>
       <use x="517.529297" xlink:href="#DejaVuSans-49"/>
      </g>
     </g>
    </g>
    <g id="xtick_4">
     <g id="line2d_4">
      <g>
       <use style="stroke:#000000;stroke-width:0.8;" x="204.380042" xlink:href="#m5a4561f702" y="288.430125"/>
      </g>
     </g>
     <g id="text_4">
      <!-- 2020-11-08 -->
      <g transform="translate(207.139417 353.54575)rotate(-90)scale(0.1 -0.1)">
       <defs>
        <path d="M 31.78125 34.625 
Q 24.75 34.625 20.71875 30.859375 
Q 16.703125 27.09375 16.703125 20.515625 
Q 16.703125 13.921875 20.71875 10.15625 
Q 24.75 6.390625 31.78125 6.390625 
Q 38.8125 6.390625 42.859375 10.171875 
Q 46.921875 13.96875 46.921875 20.515625 
Q 46.921875 27.09375 42.890625 30.859375 
Q 38.875 34.625 31.78125 34.625 
z
M 21.921875 38.8125 
Q 15.578125 40.375 12.03125 44.71875 
Q 8.5 49.078125 8.5 55.328125 
Q 8.5 64.0625 14.71875 69.140625 
Q 20.953125 74.21875 31.78125 74.21875 
Q 42.671875 74.21875 48.875 69.140625 
Q 55.078125 64.0625 55.078125 55.328125 
Q 55.078125 49.078125 51.53125 44.71875 
Q 48 40.375 41.703125 38.8125 
Q 48.828125 37.15625 52.796875 32.3125 
Q 56.78125 27.484375 56.78125 20.515625 
Q 56.78125 9.90625 50.3125 4.234375 
Q 43.84375 -1.421875 31.78125 -1.421875 
Q 19.734375 -1.421875 13.25 4.234375 
Q 6.78125 9.90625 6.78125 20.515625 
Q 6.78125 27.484375 10.78125 32.3125 
Q 14.796875 37.15625 21.921875 38.8125 
z
M 18.3125 54.390625 
Q 18.3125 48.734375 21.84375 45.5625 
Q 25.390625 42.390625 31.78125 42.390625 
Q 38.140625 42.390625 41.71875 45.5625 
Q 45.3125 48.734375 45.3125 54.390625 
Q 45.3125 60.0625 41.71875 63.234375 
Q 38.140625 66.40625 31.78125 66.40625 
Q 25.390625 66.40625 21.84375 63.234375 
Q 18.3125 60.0625 18.3125 54.390625 
z
" id="DejaVuSans-56"/>
       </defs>
       <use xlink:href="#DejaVuSans-50"/>
       <use x="63.623047" xlink:href="#DejaVuSans-48"/>
       <use x="127.246094" xlink:href="#DejaVuSans-50"/>
       <use x="190.869141" xlink:href="#DejaVuSans-48"/>
       <use x="254.492188" xlink:href="#DejaVuSans-45"/>
       <use x="290.576172" xlink:href="#DejaVuSans-49"/>
       <use x="354.199219" xlink:href="#DejaVuSans-49"/>
       <use x="417.822266" xlink:href="#DejaVuSans-45"/>
       <use x="453.90625" xlink:href="#DejaVuSans-48"/>
       <use x="517.529297" xlink:href="#DejaVuSans-56"/>
      </g>
     </g>
    </g>
    <g id="xtick_5">
     <g id="line2d_5">
      <g>
       <use style="stroke:#000000;stroke-width:0.8;" x="241.691087" xlink:href="#m5a4561f702" y="288.430125"/>
      </g>
     </g>
     <g id="text_5">
      <!-- 2020-11-15 -->
      <g transform="translate(244.450462 353.54575)rotate(-90)scale(0.1 -0.1)">
       <use xlink:href="#DejaVuSans-50"/>
       <use x="63.623047" xlink:href="#DejaVuSans-48"/>
       <use x="127.246094" xlink:href="#DejaVuSans-50"/>
       <use x="190.869141" xlink:href="#DejaVuSans-48"/>
       <use x="254.492188" xlink:href="#DejaVuSans-45"/>
       <use x="290.576172" xlink:href="#DejaVuSans-49"/>
       <use x="354.199219" xlink:href="#DejaVuSans-49"/>
       <use x="417.822266" xlink:href="#DejaVuSans-45"/>
       <use x="453.90625" xlink:href="#DejaVuSans-49"/>
       <use x="517.529297" xlink:href="#DejaVuSans-53"/>
      </g>
     </g>
    </g>
    <g id="xtick_6">
     <g id="line2d_6">
      <g>
       <use style="stroke:#000000;stroke-width:0.8;" x="279.002132" xlink:href="#m5a4561f702" y="288.430125"/>
      </g>
     </g>
     <g id="text_6">
      <!-- 2020-11-22 -->
      <g transform="translate(281.761507 353.54575)rotate(-90)scale(0.1 -0.1)">
       <use xlink:href="#DejaVuSans-50"/>
       <use x="63.623047" xlink:href="#DejaVuSans-48"/>
       <use x="127.246094" xlink:href="#DejaVuSans-50"/>
       <use x="190.869141" xlink:href="#DejaVuSans-48"/>
       <use x="254.492188" xlink:href="#DejaVuSans-45"/>
       <use x="290.576172" xlink:href="#DejaVuSans-49"/>
       <use x="354.199219" xlink:href="#DejaVuSans-49"/>
       <use x="417.822266" xlink:href="#DejaVuSans-45"/>
       <use x="453.90625" xlink:href="#DejaVuSans-50"/>
       <use x="517.529297" xlink:href="#DejaVuSans-50"/>
      </g>
     </g>
    </g>
    <g id="xtick_7">
     <g id="line2d_7">
      <g>
       <use style="stroke:#000000;stroke-width:0.8;" x="326.973475" xlink:href="#m5a4561f702" y="288.430125"/>
      </g>
     </g>
     <g id="text_7">
      <!-- 2020-12-01 -->
      <g transform="translate(329.73285 353.54575)rotate(-90)scale(0.1 -0.1)">
       <use xlink:href="#DejaVuSans-50"/>
       <use x="63.623047" xlink:href="#DejaVuSans-48"/>
       <use x="127.246094" xlink:href="#DejaVuSans-50"/>
       <use x="190.869141" xlink:href="#DejaVuSans-48"/>
       <use x="254.492188" xlink:href="#DejaVuSans-45"/>
       <use x="290.576172" xlink:href="#DejaVuSans-49"/>
       <use x="354.199219" xlink:href="#DejaVuSans-50"/>
       <use x="417.822266" xlink:href="#DejaVuSans-45"/>
       <use x="453.90625" xlink:href="#DejaVuSans-48"/>
       <use x="517.529297" xlink:href="#DejaVuSans-49"/>
      </g>
     </g>
    </g>
    <g id="xtick_8">
     <g id="line2d_8">
      <g>
       <use style="stroke:#000000;stroke-width:0.8;" x="364.28452" xlink:href="#m5a4561f702" y="288.430125"/>
      </g>
     </g>
     <g id="text_8">
      <!-- 2020-12-08 -->
      <g transform="translate(367.043895 353.54575)rotate(-90)scale(0.1 -0.1)">
       <use xlink:href="#DejaVuSans-50"/>
       <use x="63.623047" xlink:href="#DejaVuSans-48"/>
       <use x="127.246094" xlink:href="#DejaVuSans-50"/>
       <use x="190.869141" xlink:href="#DejaVuSans-48"/>
       <use x="254.492188" xlink:href="#DejaVuSans-45"/>
       <use x="290.576172" xlink:href="#DejaVuSans-49"/>
       <use x="354.199219" xlink:href="#DejaVuSans-50"/>
       <use x="417.822266" xlink:href="#DejaVuSans-45"/>
       <use x="453.90625" xlink:href="#DejaVuSans-48"/>
       <use x="517.529297" xlink:href="#DejaVuSans-56"/>
      </g>
     </g>
    </g>
    <g id="xtick_9">
     <g id="line2d_9">
      <g>
       <use style="stroke:#000000;stroke-width:0.8;" x="401.595564" xlink:href="#m5a4561f702" y="288.430125"/>
      </g>
     </g>
     <g id="text_9">
      <!-- 2020-12-15 -->
      <g transform="translate(404.354939 353.54575)rotate(-90)scale(0.1 -0.1)">
       <use xlink:href="#DejaVuSans-50"/>
       <use x="63.623047" xlink:href="#DejaVuSans-48"/>
       <use x="127.246094" xlink:href="#DejaVuSans-50"/>
       <use x="190.869141" xlink:href="#DejaVuSans-48"/>
       <use x="254.492188" xlink:href="#DejaVuSans-45"/>
       <use x="290.576172" xlink:href="#DejaVuSans-49"/>
       <use x="354.199219" xlink:href="#DejaVuSans-50"/>
       <use x="417.822266" xlink:href="#DejaVuSans-45"/>
       <use x="453.90625" xlink:href="#DejaVuSans-49"/>
       <use x="517.529297" xlink:href="#DejaVuSans-53"/>
      </g>
     </g>
    </g>
    <g id="text_10">
     <!-- date -->
     <g transform="translate(225.085938 371.144187)scale(0.1 -0.1)">
      <defs>
       <path d="M 45.40625 46.390625 
L 45.40625 75.984375 
L 54.390625 75.984375 
L 54.390625 0 
L 45.40625 0 
L 45.40625 8.203125 
Q 42.578125 3.328125 38.25 0.953125 
Q 33.9375 -1.421875 27.875 -1.421875 
Q 17.96875 -1.421875 11.734375 6.484375 
Q 5.515625 14.40625 5.515625 27.296875 
Q 5.515625 40.1875 11.734375 48.09375 
Q 17.96875 56 27.875 56 
Q 33.9375 56 38.25 53.625 
Q 42.578125 51.265625 45.40625 46.390625 
z
M 14.796875 27.296875 
Q 14.796875 17.390625 18.875 11.75 
Q 22.953125 6.109375 30.078125 6.109375 
Q 37.203125 6.109375 41.296875 11.75 
Q 45.40625 17.390625 45.40625 27.296875 
Q 45.40625 37.203125 41.296875 42.84375 
Q 37.203125 48.484375 30.078125 48.484375 
Q 22.953125 48.484375 18.875 42.84375 
Q 14.796875 37.203125 14.796875 27.296875 
z
" id="DejaVuSans-100"/>
       <path d="M 34.28125 27.484375 
Q 23.390625 27.484375 19.1875 25 
Q 14.984375 22.515625 14.984375 16.5 
Q 14.984375 11.71875 18.140625 8.90625 
Q 21.296875 6.109375 26.703125 6.109375 
Q 34.1875 6.109375 38.703125 11.40625 
Q 43.21875 16.703125 43.21875 25.484375 
L 43.21875 27.484375 
z
M 52.203125 31.203125 
L 52.203125 0 
L 43.21875 0 
L 43.21875 8.296875 
Q 40.140625 3.328125 35.546875 0.953125 
Q 30.953125 -1.421875 24.3125 -1.421875 
Q 15.921875 -1.421875 10.953125 3.296875 
Q 6 8.015625 6 15.921875 
Q 6 25.140625 12.171875 29.828125 
Q 18.359375 34.515625 30.609375 34.515625 
L 43.21875 34.515625 
L 43.21875 35.40625 
Q 43.21875 41.609375 39.140625 45 
Q 35.0625 48.390625 27.6875 48.390625 
Q 23 48.390625 18.546875 47.265625 
Q 14.109375 46.140625 10.015625 43.890625 
L 10.015625 52.203125 
Q 14.9375 54.109375 19.578125 55.046875 
Q 24.21875 56 28.609375 56 
Q 40.484375 56 46.34375 49.84375 
Q 52.203125 43.703125 52.203125 31.203125 
z
" id="DejaVuSans-97"/>
       <path d="M 18.3125 70.21875 
L 18.3125 54.6875 
L 36.8125 54.6875 
L 36.8125 47.703125 
L 18.3125 47.703125 
L 18.3125 18.015625 
Q 18.3125 11.328125 20.140625 9.421875 
Q 21.96875 7.515625 27.59375 7.515625 
L 36.8125 7.515625 
L 36.8125 0 
L 27.59375 0 
Q 17.1875 0 13.234375 3.875 
Q 9.28125 7.765625 9.28125 18.015625 
L 9.28125 47.703125 
L 2.6875 47.703125 
L 2.6875 54.6875 
L 9.28125 54.6875 
L 9.28125 70.21875 
z
" id="DejaVuSans-116"/>
       <path d="M 56.203125 29.59375 
L 56.203125 25.203125 
L 14.890625 25.203125 
Q 15.484375 15.921875 20.484375 11.0625 
Q 25.484375 6.203125 34.421875 6.203125 
Q 39.59375 6.203125 44.453125 7.46875 
Q 49.3125 8.734375 54.109375 11.28125 
L 54.109375 2.78125 
Q 49.265625 0.734375 44.1875 -0.34375 
Q 39.109375 -1.421875 33.890625 -1.421875 
Q 20.796875 -1.421875 13.15625 6.1875 
Q 5.515625 13.8125 5.515625 26.8125 
Q 5.515625 40.234375 12.765625 48.109375 
Q 20.015625 56 32.328125 56 
Q 43.359375 56 49.78125 48.890625 
Q 56.203125 41.796875 56.203125 29.59375 
z
M 47.21875 32.234375 
Q 47.125 39.59375 43.09375 43.984375 
Q 39.0625 48.390625 32.421875 48.390625 
Q 24.90625 48.390625 20.390625 44.140625 
Q 15.875 39.890625 15.1875 32.171875 
z
" id="DejaVuSans-101"/>
      </defs>
      <use xlink:href="#DejaVuSans-100"/>
      <use x="63.476562" xlink:href="#DejaVuSans-97"/>
      <use x="124.755859" xlink:href="#DejaVuSans-116"/>
      <use x="163.964844" xlink:href="#DejaVuSans-101"/>
     </g>
    </g>
   </g>
   <g id="matplotlib.axis_2">
    <g id="ytick_1">
     <g id="line2d_10">
      <defs>
       <path d="M 0 0 
L -3.5 0 
" id="me4cec032a0" style="stroke:#000000;stroke-width:0.8;"/>
      </defs>
      <g>
       <use style="stroke:#000000;stroke-width:0.8;" x="57.800938" xlink:href="#me4cec032a0" y="288.430125"/>
      </g>
     </g>
     <g id="text_11">
      <!-- 0 -->
      <g transform="translate(44.438438 292.229344)scale(0.1 -0.1)">
       <use xlink:href="#DejaVuSans-48"/>
      </g>
     </g>
    </g>
    <g id="ytick_2">
     <g id="line2d_11">
      <g>
       <use style="stroke:#000000;stroke-width:0.8;" x="57.800938" xlink:href="#me4cec032a0" y="254.224217"/>
      </g>
     </g>
     <g id="text_12">
      <!-- 2 -->
      <g transform="translate(44.438438 258.023436)scale(0.1 -0.1)">
       <use xlink:href="#DejaVuSans-50"/>
      </g>
     </g>
    </g>
    <g id="ytick_3">
     <g id="line2d_12">
      <g>
       <use style="stroke:#000000;stroke-width:0.8;" x="57.800938" xlink:href="#me4cec032a0" y="220.018309"/>
      </g>
     </g>
     <g id="text_13">
      <!-- 4 -->
      <g transform="translate(44.438438 223.817527)scale(0.1 -0.1)">
       <defs>
        <path d="M 37.796875 64.3125 
L 12.890625 25.390625 
L 37.796875 25.390625 
z
M 35.203125 72.90625 
L 47.609375 72.90625 
L 47.609375 25.390625 
L 58.015625 25.390625 
L 58.015625 17.1875 
L 47.609375 17.1875 
L 47.609375 0 
L 37.796875 0 
L 37.796875 17.1875 
L 4.890625 17.1875 
L 4.890625 26.703125 
z
" id="DejaVuSans-52"/>
       </defs>
       <use xlink:href="#DejaVuSans-52"/>
      </g>
     </g>
    </g>
    <g id="ytick_4">
     <g id="line2d_13">
      <g>
       <use style="stroke:#000000;stroke-width:0.8;" x="57.800938" xlink:href="#me4cec032a0" y="185.8124"/>
      </g>
     </g>
     <g id="text_14">
      <!-- 6 -->
      <g transform="translate(44.438438 189.611619)scale(0.1 -0.1)">
       <defs>
        <path d="M 33.015625 40.375 
Q 26.375 40.375 22.484375 35.828125 
Q 18.609375 31.296875 18.609375 23.390625 
Q 18.609375 15.53125 22.484375 10.953125 
Q 26.375 6.390625 33.015625 6.390625 
Q 39.65625 6.390625 43.53125 10.953125 
Q 47.40625 15.53125 47.40625 23.390625 
Q 47.40625 31.296875 43.53125 35.828125 
Q 39.65625 40.375 33.015625 40.375 
z
M 52.59375 71.296875 
L 52.59375 62.3125 
Q 48.875 64.0625 45.09375 64.984375 
Q 41.3125 65.921875 37.59375 65.921875 
Q 27.828125 65.921875 22.671875 59.328125 
Q 17.53125 52.734375 16.796875 39.40625 
Q 19.671875 43.65625 24.015625 45.921875 
Q 28.375 48.1875 33.59375 48.1875 
Q 44.578125 48.1875 50.953125 41.515625 
Q 57.328125 34.859375 57.328125 23.390625 
Q 57.328125 12.15625 50.6875 5.359375 
Q 44.046875 -1.421875 33.015625 -1.421875 
Q 20.359375 -1.421875 13.671875 8.265625 
Q 6.984375 17.96875 6.984375 36.375 
Q 6.984375 53.65625 15.1875 63.9375 
Q 23.390625 74.21875 37.203125 74.21875 
Q 40.921875 74.21875 44.703125 73.484375 
Q 48.484375 72.75 52.59375 71.296875 
z
" id="DejaVuSans-54"/>
       </defs>
       <use xlink:href="#DejaVuSans-54"/>
      </g>
     </g>
    </g>
    <g id="ytick_5">
     <g id="line2d_14">
      <g>
       <use style="stroke:#000000;stroke-width:0.8;" x="57.800938" xlink:href="#me4cec032a0" y="151.606492"/>
      </g>
     </g>
     <g id="text_15">
      <!-- 8 -->
      <g transform="translate(44.438438 155.405711)scale(0.1 -0.1)">
       <use xlink:href="#DejaVuSans-56"/>
      </g>
     </g>
    </g>
    <g id="ytick_6">
     <g id="line2d_15">
      <g>
       <use style="stroke:#000000;stroke-width:0.8;" x="57.800938" xlink:href="#me4cec032a0" y="117.400584"/>
      </g>
     </g>
     <g id="text_16">
      <!-- 10 -->
      <g transform="translate(38.075938 121.199803)scale(0.1 -0.1)">
       <use xlink:href="#DejaVuSans-49"/>
       <use x="63.623047" xlink:href="#DejaVuSans-48"/>
      </g>
     </g>
    </g>
    <g id="ytick_7">
     <g id="line2d_16">
      <g>
       <use style="stroke:#000000;stroke-width:0.8;" x="57.800938" xlink:href="#me4cec032a0" y="83.194676"/>
      </g>
     </g>
     <g id="text_17">
      <!-- 12 -->
      <g transform="translate(38.075938 86.993894)scale(0.1 -0.1)">
       <use xlink:href="#DejaVuSans-49"/>
       <use x="63.623047" xlink:href="#DejaVuSans-50"/>
      </g>
     </g>
    </g>
    <g id="ytick_8">
     <g id="line2d_17">
      <g>
       <use style="stroke:#000000;stroke-width:0.8;" x="57.800938" xlink:href="#me4cec032a0" y="48.988767"/>
      </g>
     </g>
     <g id="text_18">
      <!-- 14 -->
      <g transform="translate(38.075938 52.787986)scale(0.1 -0.1)">
       <use xlink:href="#DejaVuSans-49"/>
       <use x="63.623047" xlink:href="#DejaVuSans-52"/>
      </g>
     </g>
    </g>
    <g id="text_19">
     <!-- mortality (WHO) -->
     <g transform="translate(14.798438 196.211625)rotate(-90)scale(0.1 -0.1)">
      <defs>
       <path d="M 52 44.1875 
Q 55.375 50.25 60.0625 53.125 
Q 64.75 56 71.09375 56 
Q 79.640625 56 84.28125 50.015625 
Q 88.921875 44.046875 88.921875 33.015625 
L 88.921875 0 
L 79.890625 0 
L 79.890625 32.71875 
Q 79.890625 40.578125 77.09375 44.375 
Q 74.3125 48.1875 68.609375 48.1875 
Q 61.625 48.1875 57.5625 43.546875 
Q 53.515625 38.921875 53.515625 30.90625 
L 53.515625 0 
L 44.484375 0 
L 44.484375 32.71875 
Q 44.484375 40.625 41.703125 44.40625 
Q 38.921875 48.1875 33.109375 48.1875 
Q 26.21875 48.1875 22.15625 43.53125 
Q 18.109375 38.875 18.109375 30.90625 
L 18.109375 0 
L 9.078125 0 
L 9.078125 54.6875 
L 18.109375 54.6875 
L 18.109375 46.1875 
Q 21.1875 51.21875 25.484375 53.609375 
Q 29.78125 56 35.6875 56 
Q 41.65625 56 45.828125 52.96875 
Q 50 49.953125 52 44.1875 
z
" id="DejaVuSans-109"/>
       <path d="M 30.609375 48.390625 
Q 23.390625 48.390625 19.1875 42.75 
Q 14.984375 37.109375 14.984375 27.296875 
Q 14.984375 17.484375 19.15625 11.84375 
Q 23.34375 6.203125 30.609375 6.203125 
Q 37.796875 6.203125 41.984375 11.859375 
Q 46.1875 17.53125 46.1875 27.296875 
Q 46.1875 37.015625 41.984375 42.703125 
Q 37.796875 48.390625 30.609375 48.390625 
z
M 30.609375 56 
Q 42.328125 56 49.015625 48.375 
Q 55.71875 40.765625 55.71875 27.296875 
Q 55.71875 13.875 49.015625 6.21875 
Q 42.328125 -1.421875 30.609375 -1.421875 
Q 18.84375 -1.421875 12.171875 6.21875 
Q 5.515625 13.875 5.515625 27.296875 
Q 5.515625 40.765625 12.171875 48.375 
Q 18.84375 56 30.609375 56 
z
" id="DejaVuSans-111"/>
       <path d="M 41.109375 46.296875 
Q 39.59375 47.171875 37.8125 47.578125 
Q 36.03125 48 33.890625 48 
Q 26.265625 48 22.1875 43.046875 
Q 18.109375 38.09375 18.109375 28.8125 
L 18.109375 0 
L 9.078125 0 
L 9.078125 54.6875 
L 18.109375 54.6875 
L 18.109375 46.1875 
Q 20.953125 51.171875 25.484375 53.578125 
Q 30.03125 56 36.53125 56 
Q 37.453125 56 38.578125 55.875 
Q 39.703125 55.765625 41.0625 55.515625 
z
" id="DejaVuSans-114"/>
       <path d="M 9.421875 75.984375 
L 18.40625 75.984375 
L 18.40625 0 
L 9.421875 0 
z
" id="DejaVuSans-108"/>
       <path d="M 9.421875 54.6875 
L 18.40625 54.6875 
L 18.40625 0 
L 9.421875 0 
z
M 9.421875 75.984375 
L 18.40625 75.984375 
L 18.40625 64.59375 
L 9.421875 64.59375 
z
" id="DejaVuSans-105"/>
       <path d="M 32.171875 -5.078125 
Q 28.375 -14.84375 24.75 -17.8125 
Q 21.140625 -20.796875 15.09375 -20.796875 
L 7.90625 -20.796875 
L 7.90625 -13.28125 
L 13.1875 -13.28125 
Q 16.890625 -13.28125 18.9375 -11.515625 
Q 21 -9.765625 23.484375 -3.21875 
L 25.09375 0.875 
L 2.984375 54.6875 
L 12.5 54.6875 
L 29.59375 11.921875 
L 46.6875 54.6875 
L 56.203125 54.6875 
z
" id="DejaVuSans-121"/>
       <path id="DejaVuSans-32"/>
       <path d="M 31 75.875 
Q 24.46875 64.65625 21.28125 53.65625 
Q 18.109375 42.671875 18.109375 31.390625 
Q 18.109375 20.125 21.3125 9.0625 
Q 24.515625 -2 31 -13.1875 
L 23.1875 -13.1875 
Q 15.875 -1.703125 12.234375 9.375 
Q 8.59375 20.453125 8.59375 31.390625 
Q 8.59375 42.28125 12.203125 53.3125 
Q 15.828125 64.359375 23.1875 75.875 
z
" id="DejaVuSans-40"/>
       <path d="M 3.328125 72.90625 
L 13.28125 72.90625 
L 28.609375 11.28125 
L 43.890625 72.90625 
L 54.984375 72.90625 
L 70.3125 11.28125 
L 85.59375 72.90625 
L 95.609375 72.90625 
L 77.296875 0 
L 64.890625 0 
L 49.515625 63.28125 
L 33.984375 0 
L 21.578125 0 
z
" id="DejaVuSans-87"/>
       <path d="M 9.8125 72.90625 
L 19.671875 72.90625 
L 19.671875 43.015625 
L 55.515625 43.015625 
L 55.515625 72.90625 
L 65.375 72.90625 
L 65.375 0 
L 55.515625 0 
L 55.515625 34.71875 
L 19.671875 34.71875 
L 19.671875 0 
L 9.8125 0 
z
" id="DejaVuSans-72"/>
       <path d="M 39.40625 66.21875 
Q 28.65625 66.21875 22.328125 58.203125 
Q 16.015625 50.203125 16.015625 36.375 
Q 16.015625 22.609375 22.328125 14.59375 
Q 28.65625 6.59375 39.40625 6.59375 
Q 50.140625 6.59375 56.421875 14.59375 
Q 62.703125 22.609375 62.703125 36.375 
Q 62.703125 50.203125 56.421875 58.203125 
Q 50.140625 66.21875 39.40625 66.21875 
z
M 39.40625 74.21875 
Q 54.734375 74.21875 63.90625 63.9375 
Q 73.09375 53.65625 73.09375 36.375 
Q 73.09375 19.140625 63.90625 8.859375 
Q 54.734375 -1.421875 39.40625 -1.421875 
Q 24.03125 -1.421875 14.8125 8.828125 
Q 5.609375 19.09375 5.609375 36.375 
Q 5.609375 53.65625 14.8125 63.9375 
Q 24.03125 74.21875 39.40625 74.21875 
z
" id="DejaVuSans-79"/>
       <path d="M 8.015625 75.875 
L 15.828125 75.875 
Q 23.140625 64.359375 26.78125 53.3125 
Q 30.421875 42.28125 30.421875 31.390625 
Q 30.421875 20.453125 26.78125 9.375 
Q 23.140625 -1.703125 15.828125 -13.1875 
L 8.015625 -13.1875 
Q 14.5 -2 17.703125 9.0625 
Q 20.90625 20.125 20.90625 31.390625 
Q 20.90625 42.671875 17.703125 53.65625 
Q 14.5 64.65625 8.015625 75.875 
z
" id="DejaVuSans-41"/>
      </defs>
      <use xlink:href="#DejaVuSans-109"/>
      <use x="97.412109" xlink:href="#DejaVuSans-111"/>
      <use x="158.59375" xlink:href="#DejaVuSans-114"/>
      <use x="199.707031" xlink:href="#DejaVuSans-116"/>
      <use x="238.916016" xlink:href="#DejaVuSans-97"/>
      <use x="300.195312" xlink:href="#DejaVuSans-108"/>
      <use x="327.978516" xlink:href="#DejaVuSans-105"/>
      <use x="355.761719" xlink:href="#DejaVuSans-116"/>
      <use x="394.970703" xlink:href="#DejaVuSans-121"/>
      <use x="454.150391" xlink:href="#DejaVuSans-32"/>
      <use x="485.9375" xlink:href="#DejaVuSans-40"/>
      <use x="524.951172" xlink:href="#DejaVuSans-87"/>
      <use x="623.828125" xlink:href="#DejaVuSans-72"/>
      <use x="699.023438" xlink:href="#DejaVuSans-79"/>
      <use x="777.734375" xlink:href="#DejaVuSans-41"/>
     </g>
     <!-- fatalities over 7 days per 100000 -->
     <g transform="translate(25.99625 238.504594)rotate(-90)scale(0.1 -0.1)">
      <defs>
       <path d="M 37.109375 75.984375 
L 37.109375 68.5 
L 28.515625 68.5 
Q 23.6875 68.5 21.796875 66.546875 
Q 19.921875 64.59375 19.921875 59.515625 
L 19.921875 54.6875 
L 34.71875 54.6875 
L 34.71875 47.703125 
L 19.921875 47.703125 
L 19.921875 0 
L 10.890625 0 
L 10.890625 47.703125 
L 2.296875 47.703125 
L 2.296875 54.6875 
L 10.890625 54.6875 
L 10.890625 58.5 
Q 10.890625 67.625 15.140625 71.796875 
Q 19.390625 75.984375 28.609375 75.984375 
z
" id="DejaVuSans-102"/>
       <path d="M 44.28125 53.078125 
L 44.28125 44.578125 
Q 40.484375 46.53125 36.375 47.5 
Q 32.28125 48.484375 27.875 48.484375 
Q 21.1875 48.484375 17.84375 46.4375 
Q 14.5 44.390625 14.5 40.28125 
Q 14.5 37.15625 16.890625 35.375 
Q 19.28125 33.59375 26.515625 31.984375 
L 29.59375 31.296875 
Q 39.15625 29.25 43.1875 25.515625 
Q 47.21875 21.78125 47.21875 15.09375 
Q 47.21875 7.46875 41.1875 3.015625 
Q 35.15625 -1.421875 24.609375 -1.421875 
Q 20.21875 -1.421875 15.453125 -0.5625 
Q 10.6875 0.296875 5.421875 2 
L 5.421875 11.28125 
Q 10.40625 8.6875 15.234375 7.390625 
Q 20.0625 6.109375 24.8125 6.109375 
Q 31.15625 6.109375 34.5625 8.28125 
Q 37.984375 10.453125 37.984375 14.40625 
Q 37.984375 18.0625 35.515625 20.015625 
Q 33.0625 21.96875 24.703125 23.78125 
L 21.578125 24.515625 
Q 13.234375 26.265625 9.515625 29.90625 
Q 5.8125 33.546875 5.8125 39.890625 
Q 5.8125 47.609375 11.28125 51.796875 
Q 16.75 56 26.8125 56 
Q 31.78125 56 36.171875 55.265625 
Q 40.578125 54.546875 44.28125 53.078125 
z
" id="DejaVuSans-115"/>
       <path d="M 2.984375 54.6875 
L 12.5 54.6875 
L 29.59375 8.796875 
L 46.6875 54.6875 
L 56.203125 54.6875 
L 35.6875 0 
L 23.484375 0 
z
" id="DejaVuSans-118"/>
       <path d="M 8.203125 72.90625 
L 55.078125 72.90625 
L 55.078125 68.703125 
L 28.609375 0 
L 18.3125 0 
L 43.21875 64.59375 
L 8.203125 64.59375 
z
" id="DejaVuSans-55"/>
       <path d="M 18.109375 8.203125 
L 18.109375 -20.796875 
L 9.078125 -20.796875 
L 9.078125 54.6875 
L 18.109375 54.6875 
L 18.109375 46.390625 
Q 20.953125 51.265625 25.265625 53.625 
Q 29.59375 56 35.59375 56 
Q 45.5625 56 51.78125 48.09375 
Q 58.015625 40.1875 58.015625 27.296875 
Q 58.015625 14.40625 51.78125 6.484375 
Q 45.5625 -1.421875 35.59375 -1.421875 
Q 29.59375 -1.421875 25.265625 0.953125 
Q 20.953125 3.328125 18.109375 8.203125 
z
M 48.6875 27.296875 
Q 48.6875 37.203125 44.609375 42.84375 
Q 40.53125 48.484375 33.40625 48.484375 
Q 26.265625 48.484375 22.1875 42.84375 
Q 18.109375 37.203125 18.109375 27.296875 
Q 18.109375 17.390625 22.1875 11.75 
Q 26.265625 6.109375 33.40625 6.109375 
Q 40.53125 6.109375 44.609375 11.75 
Q 48.6875 17.390625 48.6875 27.296875 
z
" id="DejaVuSans-112"/>
      </defs>
      <use xlink:href="#DejaVuSans-102"/>
      <use x="35.205078" xlink:href="#DejaVuSans-97"/>
      <use x="96.484375" xlink:href="#DejaVuSans-116"/>
      <use x="135.693359" xlink:href="#DejaVuSans-97"/>
      <use x="196.972656" xlink:href="#DejaVuSans-108"/>
      <use x="224.755859" xlink:href="#DejaVuSans-105"/>
      <use x="252.539062" xlink:href="#DejaVuSans-116"/>
      <use x="291.748047" xlink:href="#DejaVuSans-105"/>
      <use x="319.53125" xlink:href="#DejaVuSans-101"/>
      <use x="381.054688" xlink:href="#DejaVuSans-115"/>
      <use x="433.154297" xlink:href="#DejaVuSans-32"/>
      <use x="464.941406" xlink:href="#DejaVuSans-111"/>
      <use x="526.123047" xlink:href="#DejaVuSans-118"/>
      <use x="585.302734" xlink:href="#DejaVuSans-101"/>
      <use x="646.826172" xlink:href="#DejaVuSans-114"/>
      <use x="687.939453" xlink:href="#DejaVuSans-32"/>
      <use x="719.726562" xlink:href="#DejaVuSans-55"/>
      <use x="783.349609" xlink:href="#DejaVuSans-32"/>
      <use x="815.136719" xlink:href="#DejaVuSans-100"/>
      <use x="878.613281" xlink:href="#DejaVuSans-97"/>
      <use x="939.892578" xlink:href="#DejaVuSans-121"/>
      <use x="999.072266" xlink:href="#DejaVuSans-115"/>
      <use x="1051.171875" xlink:href="#DejaVuSans-32"/>
      <use x="1082.958984" xlink:href="#DejaVuSans-112"/>
      <use x="1146.435547" xlink:href="#DejaVuSans-101"/>
      <use x="1207.958984" xlink:href="#DejaVuSans-114"/>
      <use x="1249.072266" xlink:href="#DejaVuSans-32"/>
      <use x="1280.859375" xlink:href="#DejaVuSans-49"/>
      <use x="1344.482422" xlink:href="#DejaVuSans-48"/>
      <use x="1408.105469" xlink:href="#DejaVuSans-48"/>
      <use x="1471.728516" xlink:href="#DejaVuSans-48"/>
      <use x="1535.351562" xlink:href="#DejaVuSans-48"/>
      <use x="1598.974609" xlink:href="#DejaVuSans-48"/>
     </g>
    </g>
   </g>
   <g id="line2d_18">
    <path clip-path="url(#p18f5915c5a)" d="M 57.800937 271.327171 
L 414.920937 271.327171 
" style="fill:none;stroke:#ffff00;stroke-linecap:square;stroke-width:1.5;"/>
   </g>
   <g id="line2d_19">
    <path clip-path="url(#p18f5915c5a)" d="M 57.800937 254.224217 
L 414.920937 254.224217 
" style="fill:none;stroke:#ffa500;stroke-linecap:square;stroke-width:1.5;"/>
   </g>
   <g id="line2d_20">
    <path clip-path="url(#p18f5915c5a)" d="M 57.800937 202.915354 
L 414.920937 202.915354 
" style="fill:none;stroke:#ff0000;stroke-linecap:square;stroke-width:1.5;"/>
   </g>
   <g id="patch_70">
    <path d="M 57.800938 288.430125 
L 57.800938 22.318125 
" style="fill:none;stroke:#000000;stroke-linecap:square;stroke-linejoin:miter;stroke-width:0.8;"/>
   </g>
   <g id="patch_71">
    <path d="M 57.800937 288.430125 
L 414.920937 288.430125 
" style="fill:none;stroke:#000000;stroke-linecap:square;stroke-linejoin:miter;stroke-width:0.8;"/>
   </g>
   <g id="text_20">
    <!-- Thursday, 17 December 2020: -->
    <g transform="translate(432.776938 29.916562)scale(0.1 -0.1)">
     <defs>
      <path d="M -0.296875 72.90625 
L 61.375 72.90625 
L 61.375 64.59375 
L 35.5 64.59375 
L 35.5 0 
L 25.59375 0 
L 25.59375 64.59375 
L -0.296875 64.59375 
z
" id="DejaVuSans-84"/>
      <path d="M 54.890625 33.015625 
L 54.890625 0 
L 45.90625 0 
L 45.90625 32.71875 
Q 45.90625 40.484375 42.875 44.328125 
Q 39.84375 48.1875 33.796875 48.1875 
Q 26.515625 48.1875 22.3125 43.546875 
Q 18.109375 38.921875 18.109375 30.90625 
L 18.109375 0 
L 9.078125 0 
L 9.078125 75.984375 
L 18.109375 75.984375 
L 18.109375 46.1875 
Q 21.34375 51.125 25.703125 53.5625 
Q 30.078125 56 35.796875 56 
Q 45.21875 56 50.046875 50.171875 
Q 54.890625 44.34375 54.890625 33.015625 
z
" id="DejaVuSans-104"/>
      <path d="M 8.5 21.578125 
L 8.5 54.6875 
L 17.484375 54.6875 
L 17.484375 21.921875 
Q 17.484375 14.15625 20.5 10.265625 
Q 23.53125 6.390625 29.59375 6.390625 
Q 36.859375 6.390625 41.078125 11.03125 
Q 45.3125 15.671875 45.3125 23.6875 
L 45.3125 54.6875 
L 54.296875 54.6875 
L 54.296875 0 
L 45.3125 0 
L 45.3125 8.40625 
Q 42.046875 3.421875 37.71875 1 
Q 33.40625 -1.421875 27.6875 -1.421875 
Q 18.265625 -1.421875 13.375 4.4375 
Q 8.5 10.296875 8.5 21.578125 
z
M 31.109375 56 
z
" id="DejaVuSans-117"/>
      <path d="M 11.71875 12.40625 
L 22.015625 12.40625 
L 22.015625 4 
L 14.015625 -11.625 
L 7.71875 -11.625 
L 11.71875 4 
z
" id="DejaVuSans-44"/>
      <path d="M 19.671875 64.796875 
L 19.671875 8.109375 
L 31.59375 8.109375 
Q 46.6875 8.109375 53.6875 14.9375 
Q 60.6875 21.78125 60.6875 36.53125 
Q 60.6875 51.171875 53.6875 57.984375 
Q 46.6875 64.796875 31.59375 64.796875 
z
M 9.8125 72.90625 
L 30.078125 72.90625 
Q 51.265625 72.90625 61.171875 64.09375 
Q 71.09375 55.28125 71.09375 36.53125 
Q 71.09375 17.671875 61.125 8.828125 
Q 51.171875 0 30.078125 0 
L 9.8125 0 
z
" id="DejaVuSans-68"/>
      <path d="M 48.78125 52.59375 
L 48.78125 44.1875 
Q 44.96875 46.296875 41.140625 47.34375 
Q 37.3125 48.390625 33.40625 48.390625 
Q 24.65625 48.390625 19.8125 42.84375 
Q 14.984375 37.3125 14.984375 27.296875 
Q 14.984375 17.28125 19.8125 11.734375 
Q 24.65625 6.203125 33.40625 6.203125 
Q 37.3125 6.203125 41.140625 7.25 
Q 44.96875 8.296875 48.78125 10.40625 
L 48.78125 2.09375 
Q 45.015625 0.34375 40.984375 -0.53125 
Q 36.96875 -1.421875 32.421875 -1.421875 
Q 20.0625 -1.421875 12.78125 6.34375 
Q 5.515625 14.109375 5.515625 27.296875 
Q 5.515625 40.671875 12.859375 48.328125 
Q 20.21875 56 33.015625 56 
Q 37.15625 56 41.109375 55.140625 
Q 45.0625 54.296875 48.78125 52.59375 
z
" id="DejaVuSans-99"/>
      <path d="M 48.6875 27.296875 
Q 48.6875 37.203125 44.609375 42.84375 
Q 40.53125 48.484375 33.40625 48.484375 
Q 26.265625 48.484375 22.1875 42.84375 
Q 18.109375 37.203125 18.109375 27.296875 
Q 18.109375 17.390625 22.1875 11.75 
Q 26.265625 6.109375 33.40625 6.109375 
Q 40.53125 6.109375 44.609375 11.75 
Q 48.6875 17.390625 48.6875 27.296875 
z
M 18.109375 46.390625 
Q 20.953125 51.265625 25.265625 53.625 
Q 29.59375 56 35.59375 56 
Q 45.5625 56 51.78125 48.09375 
Q 58.015625 40.1875 58.015625 27.296875 
Q 58.015625 14.40625 51.78125 6.484375 
Q 45.5625 -1.421875 35.59375 -1.421875 
Q 29.59375 -1.421875 25.265625 0.953125 
Q 20.953125 3.328125 18.109375 8.203125 
L 18.109375 0 
L 9.078125 0 
L 9.078125 75.984375 
L 18.109375 75.984375 
z
" id="DejaVuSans-98"/>
      <path d="M 11.71875 12.40625 
L 22.015625 12.40625 
L 22.015625 0 
L 11.71875 0 
z
M 11.71875 51.703125 
L 22.015625 51.703125 
L 22.015625 39.3125 
L 11.71875 39.3125 
z
" id="DejaVuSans-58"/>
     </defs>
     <use xlink:href="#DejaVuSans-84"/>
     <use x="61.083984" xlink:href="#DejaVuSans-104"/>
     <use x="124.462891" xlink:href="#DejaVuSans-117"/>
     <use x="187.841797" xlink:href="#DejaVuSans-114"/>
     <use x="228.955078" xlink:href="#DejaVuSans-115"/>
     <use x="281.054688" xlink:href="#DejaVuSans-100"/>
     <use x="344.53125" xlink:href="#DejaVuSans-97"/>
     <use x="405.810547" xlink:href="#DejaVuSans-121"/>
     <use x="464.990234" xlink:href="#DejaVuSans-44"/>
     <use x="496.777344" xlink:href="#DejaVuSans-32"/>
     <use x="528.564453" xlink:href="#DejaVuSans-49"/>
     <use x="592.1875" xlink:href="#DejaVuSans-55"/>
     <use x="655.810547" xlink:href="#DejaVuSans-32"/>
     <use x="687.597656" xlink:href="#DejaVuSans-68"/>
     <use x="764.599609" xlink:href="#DejaVuSans-101"/>
     <use x="826.123047" xlink:href="#DejaVuSans-99"/>
     <use x="881.103516" xlink:href="#DejaVuSans-101"/>
     <use x="942.626953" xlink:href="#DejaVuSans-109"/>
     <use x="1040.039062" xlink:href="#DejaVuSans-98"/>
     <use x="1103.515625" xlink:href="#DejaVuSans-101"/>
     <use x="1165.039062" xlink:href="#DejaVuSans-114"/>
     <use x="1206.152344" xlink:href="#DejaVuSans-32"/>
     <use x="1237.939453" xlink:href="#DejaVuSans-50"/>
     <use x="1301.5625" xlink:href="#DejaVuSans-48"/>
     <use x="1365.185547" xlink:href="#DejaVuSans-50"/>
     <use x="1428.808594" xlink:href="#DejaVuSans-48"/>
     <use x="1492.431641" xlink:href="#DejaVuSans-58"/>
    </g>
    <!-- active cases = 10712 -->
    <g transform="translate(432.776938 41.114375)scale(0.1 -0.1)">
     <defs>
      <path d="M 10.59375 45.40625 
L 73.1875 45.40625 
L 73.1875 37.203125 
L 10.59375 37.203125 
z
M 10.59375 25.484375 
L 73.1875 25.484375 
L 73.1875 17.1875 
L 10.59375 17.1875 
z
" id="DejaVuSans-61"/>
     </defs>
     <use xlink:href="#DejaVuSans-97"/>
     <use x="61.279297" xlink:href="#DejaVuSans-99"/>
     <use x="116.259766" xlink:href="#DejaVuSans-116"/>
     <use x="155.46875" xlink:href="#DejaVuSans-105"/>
     <use x="183.251953" xlink:href="#DejaVuSans-118"/>
     <use x="242.431641" xlink:href="#DejaVuSans-101"/>
     <use x="303.955078" xlink:href="#DejaVuSans-32"/>
     <use x="335.742188" xlink:href="#DejaVuSans-99"/>
     <use x="390.722656" xlink:href="#DejaVuSans-97"/>
     <use x="452.001953" xlink:href="#DejaVuSans-115"/>
     <use x="504.101562" xlink:href="#DejaVuSans-101"/>
     <use x="565.625" xlink:href="#DejaVuSans-115"/>
     <use x="617.724609" xlink:href="#DejaVuSans-32"/>
     <use x="649.511719" xlink:href="#DejaVuSans-61"/>
     <use x="733.300781" xlink:href="#DejaVuSans-32"/>
     <use x="765.087891" xlink:href="#DejaVuSans-49"/>
     <use x="828.710938" xlink:href="#DejaVuSans-48"/>
     <use x="892.333984" xlink:href="#DejaVuSans-55"/>
     <use x="955.957031" xlink:href="#DejaVuSans-49"/>
     <use x="1019.580078" xlink:href="#DejaVuSans-50"/>
    </g>
    <!-- currently infected = 1 in 49.8 (2.01%) -->
    <g transform="translate(432.776938 52.312187)scale(0.1 -0.1)">
     <defs>
      <path d="M 54.890625 33.015625 
L 54.890625 0 
L 45.90625 0 
L 45.90625 32.71875 
Q 45.90625 40.484375 42.875 44.328125 
Q 39.84375 48.1875 33.796875 48.1875 
Q 26.515625 48.1875 22.3125 43.546875 
Q 18.109375 38.921875 18.109375 30.90625 
L 18.109375 0 
L 9.078125 0 
L 9.078125 54.6875 
L 18.109375 54.6875 
L 18.109375 46.1875 
Q 21.34375 51.125 25.703125 53.5625 
Q 30.078125 56 35.796875 56 
Q 45.21875 56 50.046875 50.171875 
Q 54.890625 44.34375 54.890625 33.015625 
z
" id="DejaVuSans-110"/>
      <path d="M 10.984375 1.515625 
L 10.984375 10.5 
Q 14.703125 8.734375 18.5 7.8125 
Q 22.3125 6.890625 25.984375 6.890625 
Q 35.75 6.890625 40.890625 13.453125 
Q 46.046875 20.015625 46.78125 33.40625 
Q 43.953125 29.203125 39.59375 26.953125 
Q 35.25 24.703125 29.984375 24.703125 
Q 19.046875 24.703125 12.671875 31.3125 
Q 6.296875 37.9375 6.296875 49.421875 
Q 6.296875 60.640625 12.9375 67.421875 
Q 19.578125 74.21875 30.609375 74.21875 
Q 43.265625 74.21875 49.921875 64.515625 
Q 56.59375 54.828125 56.59375 36.375 
Q 56.59375 19.140625 48.40625 8.859375 
Q 40.234375 -1.421875 26.421875 -1.421875 
Q 22.703125 -1.421875 18.890625 -0.6875 
Q 15.09375 0.046875 10.984375 1.515625 
z
M 30.609375 32.421875 
Q 37.25 32.421875 41.125 36.953125 
Q 45.015625 41.5 45.015625 49.421875 
Q 45.015625 57.28125 41.125 61.84375 
Q 37.25 66.40625 30.609375 66.40625 
Q 23.96875 66.40625 20.09375 61.84375 
Q 16.21875 57.28125 16.21875 49.421875 
Q 16.21875 41.5 20.09375 36.953125 
Q 23.96875 32.421875 30.609375 32.421875 
z
" id="DejaVuSans-57"/>
      <path d="M 10.6875 12.40625 
L 21 12.40625 
L 21 0 
L 10.6875 0 
z
" id="DejaVuSans-46"/>
      <path d="M 72.703125 32.078125 
Q 68.453125 32.078125 66.03125 28.46875 
Q 63.625 24.859375 63.625 18.40625 
Q 63.625 12.0625 66.03125 8.421875 
Q 68.453125 4.78125 72.703125 4.78125 
Q 76.859375 4.78125 79.265625 8.421875 
Q 81.6875 12.0625 81.6875 18.40625 
Q 81.6875 24.8125 79.265625 28.4375 
Q 76.859375 32.078125 72.703125 32.078125 
z
M 72.703125 38.28125 
Q 80.421875 38.28125 84.953125 32.90625 
Q 89.5 27.546875 89.5 18.40625 
Q 89.5 9.28125 84.9375 3.921875 
Q 80.375 -1.421875 72.703125 -1.421875 
Q 64.890625 -1.421875 60.34375 3.921875 
Q 55.8125 9.28125 55.8125 18.40625 
Q 55.8125 27.59375 60.375 32.9375 
Q 64.9375 38.28125 72.703125 38.28125 
z
M 22.3125 68.015625 
Q 18.109375 68.015625 15.6875 64.375 
Q 13.28125 60.75 13.28125 54.390625 
Q 13.28125 47.953125 15.671875 44.328125 
Q 18.0625 40.71875 22.3125 40.71875 
Q 26.5625 40.71875 28.96875 44.328125 
Q 31.390625 47.953125 31.390625 54.390625 
Q 31.390625 60.6875 28.953125 64.34375 
Q 26.515625 68.015625 22.3125 68.015625 
z
M 66.40625 74.21875 
L 74.21875 74.21875 
L 28.609375 -1.421875 
L 20.796875 -1.421875 
z
M 22.3125 74.21875 
Q 30.03125 74.21875 34.609375 68.875 
Q 39.203125 63.53125 39.203125 54.390625 
Q 39.203125 45.171875 34.640625 39.84375 
Q 30.078125 34.515625 22.3125 34.515625 
Q 14.546875 34.515625 10.03125 39.859375 
Q 5.515625 45.21875 5.515625 54.390625 
Q 5.515625 63.484375 10.046875 68.84375 
Q 14.59375 74.21875 22.3125 74.21875 
z
" id="DejaVuSans-37"/>
     </defs>
     <use xlink:href="#DejaVuSans-99"/>
     <use x="54.980469" xlink:href="#DejaVuSans-117"/>
     <use x="118.359375" xlink:href="#DejaVuSans-114"/>
     <use x="157.722656" xlink:href="#DejaVuSans-114"/>
     <use x="196.585938" xlink:href="#DejaVuSans-101"/>
     <use x="258.109375" xlink:href="#DejaVuSans-110"/>
     <use x="321.488281" xlink:href="#DejaVuSans-116"/>
     <use x="360.697266" xlink:href="#DejaVuSans-108"/>
     <use x="388.480469" xlink:href="#DejaVuSans-121"/>
     <use x="447.660156" xlink:href="#DejaVuSans-32"/>
     <use x="479.447266" xlink:href="#DejaVuSans-105"/>
     <use x="507.230469" xlink:href="#DejaVuSans-110"/>
     <use x="570.609375" xlink:href="#DejaVuSans-102"/>
     <use x="605.814453" xlink:href="#DejaVuSans-101"/>
     <use x="667.337891" xlink:href="#DejaVuSans-99"/>
     <use x="722.318359" xlink:href="#DejaVuSans-116"/>
     <use x="761.527344" xlink:href="#DejaVuSans-101"/>
     <use x="823.050781" xlink:href="#DejaVuSans-100"/>
     <use x="886.527344" xlink:href="#DejaVuSans-32"/>
     <use x="918.314453" xlink:href="#DejaVuSans-61"/>
     <use x="1002.103516" xlink:href="#DejaVuSans-32"/>
     <use x="1033.890625" xlink:href="#DejaVuSans-49"/>
     <use x="1097.513672" xlink:href="#DejaVuSans-32"/>
     <use x="1129.300781" xlink:href="#DejaVuSans-105"/>
     <use x="1157.083984" xlink:href="#DejaVuSans-110"/>
     <use x="1220.462891" xlink:href="#DejaVuSans-32"/>
     <use x="1252.25" xlink:href="#DejaVuSans-52"/>
     <use x="1315.873047" xlink:href="#DejaVuSans-57"/>
     <use x="1379.496094" xlink:href="#DejaVuSans-46"/>
     <use x="1411.283203" xlink:href="#DejaVuSans-56"/>
     <use x="1474.90625" xlink:href="#DejaVuSans-32"/>
     <use x="1506.693359" xlink:href="#DejaVuSans-40"/>
     <use x="1545.707031" xlink:href="#DejaVuSans-50"/>
     <use x="1609.330078" xlink:href="#DejaVuSans-46"/>
     <use x="1641.117188" xlink:href="#DejaVuSans-48"/>
     <use x="1704.740234" xlink:href="#DejaVuSans-49"/>
     <use x="1768.363281" xlink:href="#DejaVuSans-37"/>
     <use x="1863.382812" xlink:href="#DejaVuSans-41"/>
    </g>
    <!-- 7-day incidence per 100k = 277.63 -->
    <g transform="translate(432.776938 63.51)scale(0.1 -0.1)">
     <defs>
      <path d="M 9.078125 75.984375 
L 18.109375 75.984375 
L 18.109375 31.109375 
L 44.921875 54.6875 
L 56.390625 54.6875 
L 27.390625 29.109375 
L 57.625 0 
L 45.90625 0 
L 18.109375 26.703125 
L 18.109375 0 
L 9.078125 0 
z
" id="DejaVuSans-107"/>
      <path d="M 40.578125 39.3125 
Q 47.65625 37.796875 51.625 33 
Q 55.609375 28.21875 55.609375 21.1875 
Q 55.609375 10.40625 48.1875 4.484375 
Q 40.765625 -1.421875 27.09375 -1.421875 
Q 22.515625 -1.421875 17.65625 -0.515625 
Q 12.796875 0.390625 7.625 2.203125 
L 7.625 11.71875 
Q 11.71875 9.328125 16.59375 8.109375 
Q 21.484375 6.890625 26.8125 6.890625 
Q 36.078125 6.890625 40.9375 10.546875 
Q 45.796875 14.203125 45.796875 21.1875 
Q 45.796875 27.640625 41.28125 31.265625 
Q 36.765625 34.90625 28.71875 34.90625 
L 20.21875 34.90625 
L 20.21875 43.015625 
L 29.109375 43.015625 
Q 36.375 43.015625 40.234375 45.921875 
Q 44.09375 48.828125 44.09375 54.296875 
Q 44.09375 59.90625 40.109375 62.90625 
Q 36.140625 65.921875 28.71875 65.921875 
Q 24.65625 65.921875 20.015625 65.03125 
Q 15.375 64.15625 9.8125 62.3125 
L 9.8125 71.09375 
Q 15.4375 72.65625 20.34375 73.4375 
Q 25.25 74.21875 29.59375 74.21875 
Q 40.828125 74.21875 47.359375 69.109375 
Q 53.90625 64.015625 53.90625 55.328125 
Q 53.90625 49.265625 50.4375 45.09375 
Q 46.96875 40.921875 40.578125 39.3125 
z
" id="DejaVuSans-51"/>
     </defs>
     <use xlink:href="#DejaVuSans-55"/>
     <use x="63.623047" xlink:href="#DejaVuSans-45"/>
     <use x="99.707031" xlink:href="#DejaVuSans-100"/>
     <use x="163.183594" xlink:href="#DejaVuSans-97"/>
     <use x="224.462891" xlink:href="#DejaVuSans-121"/>
     <use x="283.642578" xlink:href="#DejaVuSans-32"/>
     <use x="315.429688" xlink:href="#DejaVuSans-105"/>
     <use x="343.212891" xlink:href="#DejaVuSans-110"/>
     <use x="406.591797" xlink:href="#DejaVuSans-99"/>
     <use x="461.572266" xlink:href="#DejaVuSans-105"/>
     <use x="489.355469" xlink:href="#DejaVuSans-100"/>
     <use x="552.832031" xlink:href="#DejaVuSans-101"/>
     <use x="614.355469" xlink:href="#DejaVuSans-110"/>
     <use x="677.734375" xlink:href="#DejaVuSans-99"/>
     <use x="732.714844" xlink:href="#DejaVuSans-101"/>
     <use x="794.238281" xlink:href="#DejaVuSans-32"/>
     <use x="826.025391" xlink:href="#DejaVuSans-112"/>
     <use x="889.501953" xlink:href="#DejaVuSans-101"/>
     <use x="951.025391" xlink:href="#DejaVuSans-114"/>
     <use x="992.138672" xlink:href="#DejaVuSans-32"/>
     <use x="1023.925781" xlink:href="#DejaVuSans-49"/>
     <use x="1087.548828" xlink:href="#DejaVuSans-48"/>
     <use x="1151.171875" xlink:href="#DejaVuSans-48"/>
     <use x="1214.794922" xlink:href="#DejaVuSans-107"/>
     <use x="1272.705078" xlink:href="#DejaVuSans-32"/>
     <use x="1304.492188" xlink:href="#DejaVuSans-61"/>
     <use x="1388.28125" xlink:href="#DejaVuSans-32"/>
     <use x="1420.068359" xlink:href="#DejaVuSans-50"/>
     <use x="1483.691406" xlink:href="#DejaVuSans-55"/>
     <use x="1547.314453" xlink:href="#DejaVuSans-55"/>
     <use x="1610.9375" xlink:href="#DejaVuSans-46"/>
     <use x="1642.724609" xlink:href="#DejaVuSans-54"/>
     <use x="1706.347656" xlink:href="#DejaVuSans-51"/>
    </g>
    <!-- 14-day incidence per 100k = 553.02 -->
    <g transform="translate(432.776938 74.707812)scale(0.1 -0.1)">
     <use xlink:href="#DejaVuSans-49"/>
     <use x="63.623047" xlink:href="#DejaVuSans-52"/>
     <use x="127.246094" xlink:href="#DejaVuSans-45"/>
     <use x="163.330078" xlink:href="#DejaVuSans-100"/>
     <use x="226.806641" xlink:href="#DejaVuSans-97"/>
     <use x="288.085938" xlink:href="#DejaVuSans-121"/>
     <use x="347.265625" xlink:href="#DejaVuSans-32"/>
     <use x="379.052734" xlink:href="#DejaVuSans-105"/>
     <use x="406.835938" xlink:href="#DejaVuSans-110"/>
     <use x="470.214844" xlink:href="#DejaVuSans-99"/>
     <use x="525.195312" xlink:href="#DejaVuSans-105"/>
     <use x="552.978516" xlink:href="#DejaVuSans-100"/>
     <use x="616.455078" xlink:href="#DejaVuSans-101"/>
     <use x="677.978516" xlink:href="#DejaVuSans-110"/>
     <use x="741.357422" xlink:href="#DejaVuSans-99"/>
     <use x="796.337891" xlink:href="#DejaVuSans-101"/>
     <use x="857.861328" xlink:href="#DejaVuSans-32"/>
     <use x="889.648438" xlink:href="#DejaVuSans-112"/>
     <use x="953.125" xlink:href="#DejaVuSans-101"/>
     <use x="1014.648438" xlink:href="#DejaVuSans-114"/>
     <use x="1055.761719" xlink:href="#DejaVuSans-32"/>
     <use x="1087.548828" xlink:href="#DejaVuSans-49"/>
     <use x="1151.171875" xlink:href="#DejaVuSans-48"/>
     <use x="1214.794922" xlink:href="#DejaVuSans-48"/>
     <use x="1278.417969" xlink:href="#DejaVuSans-107"/>
     <use x="1336.328125" xlink:href="#DejaVuSans-32"/>
     <use x="1368.115234" xlink:href="#DejaVuSans-61"/>
     <use x="1451.904297" xlink:href="#DejaVuSans-32"/>
     <use x="1483.691406" xlink:href="#DejaVuSans-53"/>
     <use x="1547.314453" xlink:href="#DejaVuSans-53"/>
     <use x="1610.9375" xlink:href="#DejaVuSans-51"/>
     <use x="1674.560547" xlink:href="#DejaVuSans-46"/>
     <use x="1706.347656" xlink:href="#DejaVuSans-48"/>
     <use x="1769.970703" xlink:href="#DejaVuSans-50"/>
    </g>
    <!-- $R_{\mathrm{daily}}$ = 1.14 -->
    <g transform="translate(432.776938 85.905625)scale(0.1 -0.1)">
     <defs>
      <path d="M 25.203125 64.796875 
L 20.21875 38.921875 
L 32.90625 38.921875 
Q 40.375 38.921875 44.984375 43.046875 
Q 49.609375 47.171875 49.609375 53.8125 
Q 49.609375 59.125 46.5 61.953125 
Q 43.40625 64.796875 37.59375 64.796875 
z
M 43.3125 35.015625 
Q 46.4375 34.28125 48.515625 31.390625 
Q 50.59375 28.515625 53.328125 19.921875 
L 59.515625 0 
L 49.125 0 
L 43.40625 18.703125 
Q 41.21875 25.921875 38.328125 28.359375 
Q 35.453125 30.8125 29.5 30.8125 
L 18.609375 30.8125 
L 12.59375 0 
L 2.6875 0 
L 16.890625 72.90625 
L 39.109375 72.90625 
Q 49.21875 72.90625 54.609375 68.328125 
Q 60.015625 63.765625 60.015625 55.171875 
Q 60.015625 47.5625 55.421875 41.984375 
Q 50.828125 36.421875 43.3125 35.015625 
z
" id="DejaVuSans-Oblique-82"/>
     </defs>
     <use transform="translate(0 0.09375)" xlink:href="#DejaVuSans-Oblique-82"/>
     <use transform="translate(69.482422 -16.3125)scale(0.7)" xlink:href="#DejaVuSans-100"/>
     <use transform="translate(113.916016 -16.3125)scale(0.7)" xlink:href="#DejaVuSans-97"/>
     <use transform="translate(156.811523 -16.3125)scale(0.7)" xlink:href="#DejaVuSans-105"/>
     <use transform="translate(176.259766 -16.3125)scale(0.7)" xlink:href="#DejaVuSans-108"/>
     <use transform="translate(195.708008 -16.3125)scale(0.7)" xlink:href="#DejaVuSans-121"/>
     <use transform="translate(239.868164 0.09375)" xlink:href="#DejaVuSans-32"/>
     <use transform="translate(271.655273 0.09375)" xlink:href="#DejaVuSans-61"/>
     <use transform="translate(355.444336 0.09375)" xlink:href="#DejaVuSans-32"/>
     <use transform="translate(387.231445 0.09375)" xlink:href="#DejaVuSans-49"/>
     <use transform="translate(450.854492 0.09375)" xlink:href="#DejaVuSans-46"/>
     <use transform="translate(482.641602 0.09375)" xlink:href="#DejaVuSans-49"/>
     <use transform="translate(546.264648 0.09375)" xlink:href="#DejaVuSans-52"/>
    </g>
    <!-- $R_{\mathrm{model{\,}based}}$ = 1.05 -->
    <g transform="translate(432.776938 98.12375)scale(0.1 -0.1)">
     <use transform="translate(0 0.78125)" xlink:href="#DejaVuSans-Oblique-82"/>
     <use transform="translate(69.482422 -15.625)scale(0.7)" xlink:href="#DejaVuSans-109"/>
     <use transform="translate(137.670898 -15.625)scale(0.7)" xlink:href="#DejaVuSans-111"/>
     <use transform="translate(180.498047 -15.625)scale(0.7)" xlink:href="#DejaVuSans-100"/>
     <use transform="translate(224.931641 -15.625)scale(0.7)" xlink:href="#DejaVuSans-101"/>
     <use transform="translate(267.998047 -15.625)scale(0.7)" xlink:href="#DejaVuSans-108"/>
     <use transform="translate(298.811262 -15.625)scale(0.7)" xlink:href="#DejaVuSans-98"/>
     <use transform="translate(343.244856 -15.625)scale(0.7)" xlink:href="#DejaVuSans-97"/>
     <use transform="translate(386.140364 -15.625)scale(0.7)" xlink:href="#DejaVuSans-115"/>
     <use transform="translate(422.610091 -15.625)scale(0.7)" xlink:href="#DejaVuSans-101"/>
     <use transform="translate(465.676497 -15.625)scale(0.7)" xlink:href="#DejaVuSans-100"/>
     <use transform="translate(512.844466 0.78125)" xlink:href="#DejaVuSans-32"/>
     <use transform="translate(544.631575 0.78125)" xlink:href="#DejaVuSans-61"/>
     <use transform="translate(628.420637 0.78125)" xlink:href="#DejaVuSans-32"/>
     <use transform="translate(660.207747 0.78125)" xlink:href="#DejaVuSans-49"/>
     <use transform="translate(723.830794 0.78125)" xlink:href="#DejaVuSans-46"/>
     <use transform="translate(755.617903 0.78125)" xlink:href="#DejaVuSans-48"/>
     <use transform="translate(819.24095 0.78125)" xlink:href="#DejaVuSans-53"/>
    </g>
    <!-- $R_{\mathrm{4{\,}day{\,}mean}}$ = 0.73 -->
    <g transform="translate(432.776938 109.321562)scale(0.1 -0.1)">
     <use transform="translate(0 0.78125)" xlink:href="#DejaVuSans-Oblique-82"/>
     <use transform="translate(69.482422 -15.625)scale(0.7)" xlink:href="#DejaVuSans-52"/>
     <use transform="translate(125.383528 -15.625)scale(0.7)" xlink:href="#DejaVuSans-100"/>
     <use transform="translate(169.817122 -15.625)scale(0.7)" xlink:href="#DejaVuSans-97"/>
     <use transform="translate(212.71263 -15.625)scale(0.7)" xlink:href="#DejaVuSans-121"/>
     <use transform="translate(265.503384 -15.625)scale(0.7)" xlink:href="#DejaVuSans-109"/>
     <use transform="translate(333.691861 -15.625)scale(0.7)" xlink:href="#DejaVuSans-101"/>
     <use transform="translate(376.758267 -15.625)scale(0.7)" xlink:href="#DejaVuSans-97"/>
     <use transform="translate(419.653775 -15.625)scale(0.7)" xlink:href="#DejaVuSans-110"/>
     <use transform="translate(466.753384 0.78125)" xlink:href="#DejaVuSans-32"/>
     <use transform="translate(498.540494 0.78125)" xlink:href="#DejaVuSans-61"/>
     <use transform="translate(582.329556 0.78125)" xlink:href="#DejaVuSans-32"/>
     <use transform="translate(614.116666 0.78125)" xlink:href="#DejaVuSans-48"/>
     <use transform="translate(677.739712 0.78125)" xlink:href="#DejaVuSans-46"/>
     <use transform="translate(701.776822 0.78125)" xlink:href="#DejaVuSans-55"/>
     <use transform="translate(765.399869 0.78125)" xlink:href="#DejaVuSans-51"/>
    </g>
    <!-- $R_{\mathrm{7{\,}day{\,}mean}}$ = 1.04 -->
    <g transform="translate(432.776938 121.539687)scale(0.1 -0.1)">
     <use transform="translate(0 0.78125)" xlink:href="#DejaVuSans-Oblique-82"/>
     <use transform="translate(69.482422 -15.625)scale(0.7)" xlink:href="#DejaVuSans-55"/>
     <use transform="translate(125.383528 -15.625)scale(0.7)" xlink:href="#DejaVuSans-100"/>
     <use transform="translate(169.817122 -15.625)scale(0.7)" xlink:href="#DejaVuSans-97"/>
     <use transform="translate(212.71263 -15.625)scale(0.7)" xlink:href="#DejaVuSans-121"/>
     <use transform="translate(265.503384 -15.625)scale(0.7)" xlink:href="#DejaVuSans-109"/>
     <use transform="translate(333.691861 -15.625)scale(0.7)" xlink:href="#DejaVuSans-101"/>
     <use transform="translate(376.758267 -15.625)scale(0.7)" xlink:href="#DejaVuSans-97"/>
     <use transform="translate(419.653775 -15.625)scale(0.7)" xlink:href="#DejaVuSans-110"/>
     <use transform="translate(466.753384 0.78125)" xlink:href="#DejaVuSans-32"/>
     <use transform="translate(498.540494 0.78125)" xlink:href="#DejaVuSans-61"/>
     <use transform="translate(582.329556 0.78125)" xlink:href="#DejaVuSans-32"/>
     <use transform="translate(614.116666 0.78125)" xlink:href="#DejaVuSans-49"/>
     <use transform="translate(677.739712 0.78125)" xlink:href="#DejaVuSans-46"/>
     <use transform="translate(709.526822 0.78125)" xlink:href="#DejaVuSans-48"/>
     <use transform="translate(773.149869 0.78125)" xlink:href="#DejaVuSans-52"/>
    </g>
    <!-- test positivity = 46.74% -->
    <g transform="translate(432.776938 133.757812)scale(0.1 -0.1)">
     <use xlink:href="#DejaVuSans-116"/>
     <use x="39.208984" xlink:href="#DejaVuSans-101"/>
     <use x="100.732422" xlink:href="#DejaVuSans-115"/>
     <use x="152.832031" xlink:href="#DejaVuSans-116"/>
     <use x="192.041016" xlink:href="#DejaVuSans-32"/>
     <use x="223.828125" xlink:href="#DejaVuSans-112"/>
     <use x="287.304688" xlink:href="#DejaVuSans-111"/>
     <use x="348.486328" xlink:href="#DejaVuSans-115"/>
     <use x="400.585938" xlink:href="#DejaVuSans-105"/>
     <use x="428.369141" xlink:href="#DejaVuSans-116"/>
     <use x="467.578125" xlink:href="#DejaVuSans-105"/>
     <use x="495.361328" xlink:href="#DejaVuSans-118"/>
     <use x="554.541016" xlink:href="#DejaVuSans-105"/>
     <use x="582.324219" xlink:href="#DejaVuSans-116"/>
     <use x="621.533203" xlink:href="#DejaVuSans-121"/>
     <use x="680.712891" xlink:href="#DejaVuSans-32"/>
     <use x="712.5" xlink:href="#DejaVuSans-61"/>
     <use x="796.289062" xlink:href="#DejaVuSans-32"/>
     <use x="828.076172" xlink:href="#DejaVuSans-52"/>
     <use x="891.699219" xlink:href="#DejaVuSans-54"/>
     <use x="955.322266" xlink:href="#DejaVuSans-46"/>
     <use x="987.109375" xlink:href="#DejaVuSans-55"/>
     <use x="1050.732422" xlink:href="#DejaVuSans-52"/>
     <use x="1114.355469" xlink:href="#DejaVuSans-37"/>
    </g>
    <!-- case fatality rate = 4.01% -->
    <g transform="translate(432.776938 144.955625)scale(0.1 -0.1)">
     <use xlink:href="#DejaVuSans-99"/>
     <use x="54.980469" xlink:href="#DejaVuSans-97"/>
     <use x="116.259766" xlink:href="#DejaVuSans-115"/>
     <use x="168.359375" xlink:href="#DejaVuSans-101"/>
     <use x="229.882812" xlink:href="#DejaVuSans-32"/>
     <use x="261.669922" xlink:href="#DejaVuSans-102"/>
     <use x="296.875" xlink:href="#DejaVuSans-97"/>
     <use x="358.154297" xlink:href="#DejaVuSans-116"/>
     <use x="397.363281" xlink:href="#DejaVuSans-97"/>
     <use x="458.642578" xlink:href="#DejaVuSans-108"/>
     <use x="486.425781" xlink:href="#DejaVuSans-105"/>
     <use x="514.208984" xlink:href="#DejaVuSans-116"/>
     <use x="553.417969" xlink:href="#DejaVuSans-121"/>
     <use x="612.597656" xlink:href="#DejaVuSans-32"/>
     <use x="644.384766" xlink:href="#DejaVuSans-114"/>
     <use x="685.498047" xlink:href="#DejaVuSans-97"/>
     <use x="746.777344" xlink:href="#DejaVuSans-116"/>
     <use x="785.986328" xlink:href="#DejaVuSans-101"/>
     <use x="847.509766" xlink:href="#DejaVuSans-32"/>
     <use x="879.296875" xlink:href="#DejaVuSans-61"/>
     <use x="963.085938" xlink:href="#DejaVuSans-32"/>
     <use x="994.873047" xlink:href="#DejaVuSans-52"/>
     <use x="1058.496094" xlink:href="#DejaVuSans-46"/>
     <use x="1090.283203" xlink:href="#DejaVuSans-48"/>
     <use x="1153.90625" xlink:href="#DejaVuSans-49"/>
     <use x="1217.529297" xlink:href="#DejaVuSans-37"/>
    </g>
    <!-- ICU patients = 22 -->
    <g transform="translate(432.776938 156.153437)scale(0.1 -0.1)">
     <defs>
      <path d="M 9.8125 72.90625 
L 19.671875 72.90625 
L 19.671875 0 
L 9.8125 0 
z
" id="DejaVuSans-73"/>
      <path d="M 64.40625 67.28125 
L 64.40625 56.890625 
Q 59.421875 61.53125 53.78125 63.8125 
Q 48.140625 66.109375 41.796875 66.109375 
Q 29.296875 66.109375 22.65625 58.46875 
Q 16.015625 50.828125 16.015625 36.375 
Q 16.015625 21.96875 22.65625 14.328125 
Q 29.296875 6.6875 41.796875 6.6875 
Q 48.140625 6.6875 53.78125 8.984375 
Q 59.421875 11.28125 64.40625 15.921875 
L 64.40625 5.609375 
Q 59.234375 2.09375 53.4375 0.328125 
Q 47.65625 -1.421875 41.21875 -1.421875 
Q 24.65625 -1.421875 15.125 8.703125 
Q 5.609375 18.84375 5.609375 36.375 
Q 5.609375 53.953125 15.125 64.078125 
Q 24.65625 74.21875 41.21875 74.21875 
Q 47.75 74.21875 53.53125 72.484375 
Q 59.328125 70.75 64.40625 67.28125 
z
" id="DejaVuSans-67"/>
      <path d="M 8.6875 72.90625 
L 18.609375 72.90625 
L 18.609375 28.609375 
Q 18.609375 16.890625 22.84375 11.734375 
Q 27.09375 6.59375 36.625 6.59375 
Q 46.09375 6.59375 50.34375 11.734375 
Q 54.59375 16.890625 54.59375 28.609375 
L 54.59375 72.90625 
L 64.5 72.90625 
L 64.5 27.390625 
Q 64.5 13.140625 57.4375 5.859375 
Q 50.390625 -1.421875 36.625 -1.421875 
Q 22.796875 -1.421875 15.734375 5.859375 
Q 8.6875 13.140625 8.6875 27.390625 
z
" id="DejaVuSans-85"/>
     </defs>
     <use xlink:href="#DejaVuSans-73"/>
     <use x="29.492188" xlink:href="#DejaVuSans-67"/>
     <use x="99.316406" xlink:href="#DejaVuSans-85"/>
     <use x="172.509766" xlink:href="#DejaVuSans-32"/>
     <use x="204.296875" xlink:href="#DejaVuSans-112"/>
     <use x="267.773438" xlink:href="#DejaVuSans-97"/>
     <use x="329.052734" xlink:href="#DejaVuSans-116"/>
     <use x="368.261719" xlink:href="#DejaVuSans-105"/>
     <use x="396.044922" xlink:href="#DejaVuSans-101"/>
     <use x="457.568359" xlink:href="#DejaVuSans-110"/>
     <use x="520.947266" xlink:href="#DejaVuSans-116"/>
     <use x="560.15625" xlink:href="#DejaVuSans-115"/>
     <use x="612.255859" xlink:href="#DejaVuSans-32"/>
     <use x="644.042969" xlink:href="#DejaVuSans-61"/>
     <use x="727.832031" xlink:href="#DejaVuSans-32"/>
     <use x="759.619141" xlink:href="#DejaVuSans-50"/>
     <use x="823.242188" xlink:href="#DejaVuSans-50"/>
    </g>
    <!-- ICU COVID-19 occupancy = 24.44% -->
    <g transform="translate(432.776938 167.35125)scale(0.1 -0.1)">
     <defs>
      <path d="M 28.609375 0 
L 0.78125 72.90625 
L 11.078125 72.90625 
L 34.1875 11.53125 
L 57.328125 72.90625 
L 67.578125 72.90625 
L 39.796875 0 
z
" id="DejaVuSans-86"/>
     </defs>
     <use xlink:href="#DejaVuSans-73"/>
     <use x="29.492188" xlink:href="#DejaVuSans-67"/>
     <use x="99.316406" xlink:href="#DejaVuSans-85"/>
     <use x="172.509766" xlink:href="#DejaVuSans-32"/>
     <use x="204.296875" xlink:href="#DejaVuSans-67"/>
     <use x="274.121094" xlink:href="#DejaVuSans-79"/>
     <use x="351.082031" xlink:href="#DejaVuSans-86"/>
     <use x="419.490234" xlink:href="#DejaVuSans-73"/>
     <use x="448.982422" xlink:href="#DejaVuSans-68"/>
     <use x="525.984375" xlink:href="#DejaVuSans-45"/>
     <use x="562.068359" xlink:href="#DejaVuSans-49"/>
     <use x="625.691406" xlink:href="#DejaVuSans-57"/>
     <use x="689.314453" xlink:href="#DejaVuSans-32"/>
     <use x="721.101562" xlink:href="#DejaVuSans-111"/>
     <use x="782.283203" xlink:href="#DejaVuSans-99"/>
     <use x="837.263672" xlink:href="#DejaVuSans-99"/>
     <use x="892.244141" xlink:href="#DejaVuSans-117"/>
     <use x="955.623047" xlink:href="#DejaVuSans-112"/>
     <use x="1019.099609" xlink:href="#DejaVuSans-97"/>
     <use x="1080.378906" xlink:href="#DejaVuSans-110"/>
     <use x="1143.757812" xlink:href="#DejaVuSans-99"/>
     <use x="1198.738281" xlink:href="#DejaVuSans-121"/>
     <use x="1257.917969" xlink:href="#DejaVuSans-32"/>
     <use x="1289.705078" xlink:href="#DejaVuSans-61"/>
     <use x="1373.494141" xlink:href="#DejaVuSans-32"/>
     <use x="1405.28125" xlink:href="#DejaVuSans-50"/>
     <use x="1468.904297" xlink:href="#DejaVuSans-52"/>
     <use x="1532.527344" xlink:href="#DejaVuSans-46"/>
     <use x="1564.314453" xlink:href="#DejaVuSans-52"/>
     <use x="1627.9375" xlink:href="#DejaVuSans-52"/>
     <use x="1691.560547" xlink:href="#DejaVuSans-37"/>
    </g>
   </g>
   <g id="text_21">
    <!-- South Tyrol -->
    <g transform="translate(203.068438 16.318125)scale(0.12 -0.12)">
     <defs>
      <path d="M 53.515625 70.515625 
L 53.515625 60.890625 
Q 47.90625 63.578125 42.921875 64.890625 
Q 37.9375 66.21875 33.296875 66.21875 
Q 25.25 66.21875 20.875 63.09375 
Q 16.5 59.96875 16.5 54.203125 
Q 16.5 49.359375 19.40625 46.890625 
Q 22.3125 44.4375 30.421875 42.921875 
L 36.375 41.703125 
Q 47.40625 39.59375 52.65625 34.296875 
Q 57.90625 29 57.90625 20.125 
Q 57.90625 9.515625 50.796875 4.046875 
Q 43.703125 -1.421875 29.984375 -1.421875 
Q 24.8125 -1.421875 18.96875 -0.25 
Q 13.140625 0.921875 6.890625 3.21875 
L 6.890625 13.375 
Q 12.890625 10.015625 18.65625 8.296875 
Q 24.421875 6.59375 29.984375 6.59375 
Q 38.421875 6.59375 43.015625 9.90625 
Q 47.609375 13.234375 47.609375 19.390625 
Q 47.609375 24.75 44.3125 27.78125 
Q 41.015625 30.8125 33.5 32.328125 
L 27.484375 33.5 
Q 16.453125 35.6875 11.515625 40.375 
Q 6.59375 45.0625 6.59375 53.421875 
Q 6.59375 63.09375 13.40625 68.65625 
Q 20.21875 74.21875 32.171875 74.21875 
Q 37.3125 74.21875 42.625 73.28125 
Q 47.953125 72.359375 53.515625 70.515625 
z
" id="DejaVuSans-83"/>
     </defs>
     <use xlink:href="#DejaVuSans-83"/>
     <use x="63.476562" xlink:href="#DejaVuSans-111"/>
     <use x="124.658203" xlink:href="#DejaVuSans-117"/>
     <use x="188.037109" xlink:href="#DejaVuSans-116"/>
     <use x="227.246094" xlink:href="#DejaVuSans-104"/>
     <use x="290.625" xlink:href="#DejaVuSans-32"/>
     <use x="322.412109" xlink:href="#DejaVuSans-84"/>
     <use x="367.871094" xlink:href="#DejaVuSans-121"/>
     <use x="427.050781" xlink:href="#DejaVuSans-114"/>
     <use x="465.914062" xlink:href="#DejaVuSans-111"/>
     <use x="527.095703" xlink:href="#DejaVuSans-108"/>
    </g>
   </g>
   <g id="legend_1">
    <g id="line2d_21">
     <path d="M 138.744375 35.416562 
L 158.744375 35.416562 
" style="fill:none;stroke:#ffff00;stroke-linecap:square;stroke-width:1.5;"/>
    </g>
    <g id="line2d_22"/>
    <g id="text_22">
     <!-- low incidence of community transmission -->
     <g transform="translate(166.744375 38.916562)scale(0.1 -0.1)">
      <defs>
       <path d="M 4.203125 54.6875 
L 13.1875 54.6875 
L 24.421875 12.015625 
L 35.59375 54.6875 
L 46.1875 54.6875 
L 57.421875 12.015625 
L 68.609375 54.6875 
L 77.59375 54.6875 
L 63.28125 0 
L 52.6875 0 
L 40.921875 44.828125 
L 29.109375 0 
L 18.5 0 
z
" id="DejaVuSans-119"/>
      </defs>
      <use xlink:href="#DejaVuSans-108"/>
      <use x="27.783203" xlink:href="#DejaVuSans-111"/>
      <use x="88.964844" xlink:href="#DejaVuSans-119"/>
      <use x="170.751953" xlink:href="#DejaVuSans-32"/>
      <use x="202.539062" xlink:href="#DejaVuSans-105"/>
      <use x="230.322266" xlink:href="#DejaVuSans-110"/>
      <use x="293.701172" xlink:href="#DejaVuSans-99"/>
      <use x="348.681641" xlink:href="#DejaVuSans-105"/>
      <use x="376.464844" xlink:href="#DejaVuSans-100"/>
      <use x="439.941406" xlink:href="#DejaVuSans-101"/>
      <use x="501.464844" xlink:href="#DejaVuSans-110"/>
      <use x="564.84375" xlink:href="#DejaVuSans-99"/>
      <use x="619.824219" xlink:href="#DejaVuSans-101"/>
      <use x="681.347656" xlink:href="#DejaVuSans-32"/>
      <use x="713.134766" xlink:href="#DejaVuSans-111"/>
      <use x="774.316406" xlink:href="#DejaVuSans-102"/>
      <use x="809.521484" xlink:href="#DejaVuSans-32"/>
      <use x="841.308594" xlink:href="#DejaVuSans-99"/>
      <use x="896.289062" xlink:href="#DejaVuSans-111"/>
      <use x="957.470703" xlink:href="#DejaVuSans-109"/>
      <use x="1054.882812" xlink:href="#DejaVuSans-109"/>
      <use x="1152.294922" xlink:href="#DejaVuSans-117"/>
      <use x="1215.673828" xlink:href="#DejaVuSans-110"/>
      <use x="1279.052734" xlink:href="#DejaVuSans-105"/>
      <use x="1306.835938" xlink:href="#DejaVuSans-116"/>
      <use x="1346.044922" xlink:href="#DejaVuSans-121"/>
      <use x="1405.224609" xlink:href="#DejaVuSans-32"/>
      <use x="1437.011719" xlink:href="#DejaVuSans-116"/>
      <use x="1476.220703" xlink:href="#DejaVuSans-114"/>
      <use x="1517.333984" xlink:href="#DejaVuSans-97"/>
      <use x="1578.613281" xlink:href="#DejaVuSans-110"/>
      <use x="1641.992188" xlink:href="#DejaVuSans-115"/>
      <use x="1694.091797" xlink:href="#DejaVuSans-109"/>
      <use x="1791.503906" xlink:href="#DejaVuSans-105"/>
      <use x="1819.287109" xlink:href="#DejaVuSans-115"/>
      <use x="1871.386719" xlink:href="#DejaVuSans-115"/>
      <use x="1923.486328" xlink:href="#DejaVuSans-105"/>
      <use x="1951.269531" xlink:href="#DejaVuSans-111"/>
      <use x="2012.451172" xlink:href="#DejaVuSans-110"/>
     </g>
    </g>
    <g id="line2d_23">
     <path d="M 138.744375 50.094687 
L 158.744375 50.094687 
" style="fill:none;stroke:#ffa500;stroke-linecap:square;stroke-width:1.5;"/>
    </g>
    <g id="line2d_24"/>
    <g id="text_23">
     <!-- moderate incidence of community transmission -->
     <g transform="translate(166.744375 53.594687)scale(0.1 -0.1)">
      <use xlink:href="#DejaVuSans-109"/>
      <use x="97.412109" xlink:href="#DejaVuSans-111"/>
      <use x="158.59375" xlink:href="#DejaVuSans-100"/>
      <use x="222.070312" xlink:href="#DejaVuSans-101"/>
      <use x="283.59375" xlink:href="#DejaVuSans-114"/>
      <use x="324.707031" xlink:href="#DejaVuSans-97"/>
      <use x="385.986328" xlink:href="#DejaVuSans-116"/>
      <use x="425.195312" xlink:href="#DejaVuSans-101"/>
      <use x="486.71875" xlink:href="#DejaVuSans-32"/>
      <use x="518.505859" xlink:href="#DejaVuSans-105"/>
      <use x="546.289062" xlink:href="#DejaVuSans-110"/>
      <use x="609.667969" xlink:href="#DejaVuSans-99"/>
      <use x="664.648438" xlink:href="#DejaVuSans-105"/>
      <use x="692.431641" xlink:href="#DejaVuSans-100"/>
      <use x="755.908203" xlink:href="#DejaVuSans-101"/>
      <use x="817.431641" xlink:href="#DejaVuSans-110"/>
      <use x="880.810547" xlink:href="#DejaVuSans-99"/>
      <use x="935.791016" xlink:href="#DejaVuSans-101"/>
      <use x="997.314453" xlink:href="#DejaVuSans-32"/>
      <use x="1029.101562" xlink:href="#DejaVuSans-111"/>
      <use x="1090.283203" xlink:href="#DejaVuSans-102"/>
      <use x="1125.488281" xlink:href="#DejaVuSans-32"/>
      <use x="1157.275391" xlink:href="#DejaVuSans-99"/>
      <use x="1212.255859" xlink:href="#DejaVuSans-111"/>
      <use x="1273.4375" xlink:href="#DejaVuSans-109"/>
      <use x="1370.849609" xlink:href="#DejaVuSans-109"/>
      <use x="1468.261719" xlink:href="#DejaVuSans-117"/>
      <use x="1531.640625" xlink:href="#DejaVuSans-110"/>
      <use x="1595.019531" xlink:href="#DejaVuSans-105"/>
      <use x="1622.802734" xlink:href="#DejaVuSans-116"/>
      <use x="1662.011719" xlink:href="#DejaVuSans-121"/>
      <use x="1721.191406" xlink:href="#DejaVuSans-32"/>
      <use x="1752.978516" xlink:href="#DejaVuSans-116"/>
      <use x="1792.1875" xlink:href="#DejaVuSans-114"/>
      <use x="1833.300781" xlink:href="#DejaVuSans-97"/>
      <use x="1894.580078" xlink:href="#DejaVuSans-110"/>
      <use x="1957.958984" xlink:href="#DejaVuSans-115"/>
      <use x="2010.058594" xlink:href="#DejaVuSans-109"/>
      <use x="2107.470703" xlink:href="#DejaVuSans-105"/>
      <use x="2135.253906" xlink:href="#DejaVuSans-115"/>
      <use x="2187.353516" xlink:href="#DejaVuSans-115"/>
      <use x="2239.453125" xlink:href="#DejaVuSans-105"/>
      <use x="2267.236328" xlink:href="#DejaVuSans-111"/>
      <use x="2328.417969" xlink:href="#DejaVuSans-110"/>
     </g>
    </g>
    <g id="line2d_25">
     <path d="M 138.744375 64.772812 
L 158.744375 64.772812 
" style="fill:none;stroke:#ff0000;stroke-linecap:square;stroke-width:1.5;"/>
    </g>
    <g id="line2d_26"/>
    <g id="text_24">
     <!-- high incidence of community transmission -->
     <g transform="translate(166.744375 68.272812)scale(0.1 -0.1)">
      <defs>
       <path d="M 45.40625 27.984375 
Q 45.40625 37.75 41.375 43.109375 
Q 37.359375 48.484375 30.078125 48.484375 
Q 22.859375 48.484375 18.828125 43.109375 
Q 14.796875 37.75 14.796875 27.984375 
Q 14.796875 18.265625 18.828125 12.890625 
Q 22.859375 7.515625 30.078125 7.515625 
Q 37.359375 7.515625 41.375 12.890625 
Q 45.40625 18.265625 45.40625 27.984375 
z
M 54.390625 6.78125 
Q 54.390625 -7.171875 48.1875 -13.984375 
Q 42 -20.796875 29.203125 -20.796875 
Q 24.46875 -20.796875 20.265625 -20.09375 
Q 16.0625 -19.390625 12.109375 -17.921875 
L 12.109375 -9.1875 
Q 16.0625 -11.328125 19.921875 -12.34375 
Q 23.78125 -13.375 27.78125 -13.375 
Q 36.625 -13.375 41.015625 -8.765625 
Q 45.40625 -4.15625 45.40625 5.171875 
L 45.40625 9.625 
Q 42.625 4.78125 38.28125 2.390625 
Q 33.9375 0 27.875 0 
Q 17.828125 0 11.671875 7.65625 
Q 5.515625 15.328125 5.515625 27.984375 
Q 5.515625 40.671875 11.671875 48.328125 
Q 17.828125 56 27.875 56 
Q 33.9375 56 38.28125 53.609375 
Q 42.625 51.21875 45.40625 46.390625 
L 45.40625 54.6875 
L 54.390625 54.6875 
z
" id="DejaVuSans-103"/>
      </defs>
      <use xlink:href="#DejaVuSans-104"/>
      <use x="63.378906" xlink:href="#DejaVuSans-105"/>
      <use x="91.162109" xlink:href="#DejaVuSans-103"/>
      <use x="154.638672" xlink:href="#DejaVuSans-104"/>
      <use x="218.017578" xlink:href="#DejaVuSans-32"/>
      <use x="249.804688" xlink:href="#DejaVuSans-105"/>
      <use x="277.587891" xlink:href="#DejaVuSans-110"/>
      <use x="340.966797" xlink:href="#DejaVuSans-99"/>
      <use x="395.947266" xlink:href="#DejaVuSans-105"/>
      <use x="423.730469" xlink:href="#DejaVuSans-100"/>
      <use x="487.207031" xlink:href="#DejaVuSans-101"/>
      <use x="548.730469" xlink:href="#DejaVuSans-110"/>
      <use x="612.109375" xlink:href="#DejaVuSans-99"/>
      <use x="667.089844" xlink:href="#DejaVuSans-101"/>
      <use x="728.613281" xlink:href="#DejaVuSans-32"/>
      <use x="760.400391" xlink:href="#DejaVuSans-111"/>
      <use x="821.582031" xlink:href="#DejaVuSans-102"/>
      <use x="856.787109" xlink:href="#DejaVuSans-32"/>
      <use x="888.574219" xlink:href="#DejaVuSans-99"/>
      <use x="943.554688" xlink:href="#DejaVuSans-111"/>
      <use x="1004.736328" xlink:href="#DejaVuSans-109"/>
      <use x="1102.148438" xlink:href="#DejaVuSans-109"/>
      <use x="1199.560547" xlink:href="#DejaVuSans-117"/>
      <use x="1262.939453" xlink:href="#DejaVuSans-110"/>
      <use x="1326.318359" xlink:href="#DejaVuSans-105"/>
      <use x="1354.101562" xlink:href="#DejaVuSans-116"/>
      <use x="1393.310547" xlink:href="#DejaVuSans-121"/>
      <use x="1452.490234" xlink:href="#DejaVuSans-32"/>
      <use x="1484.277344" xlink:href="#DejaVuSans-116"/>
      <use x="1523.486328" xlink:href="#DejaVuSans-114"/>
      <use x="1564.599609" xlink:href="#DejaVuSans-97"/>
      <use x="1625.878906" xlink:href="#DejaVuSans-110"/>
      <use x="1689.257812" xlink:href="#DejaVuSans-115"/>
      <use x="1741.357422" xlink:href="#DejaVuSans-109"/>
      <use x="1838.769531" xlink:href="#DejaVuSans-105"/>
      <use x="1866.552734" xlink:href="#DejaVuSans-115"/>
      <use x="1918.652344" xlink:href="#DejaVuSans-115"/>
      <use x="1970.751953" xlink:href="#DejaVuSans-105"/>
      <use x="1998.535156" xlink:href="#DejaVuSans-111"/>
      <use x="2059.716797" xlink:href="#DejaVuSans-110"/>
     </g>
    </g>
   </g>
  </g>
 </g>
 <defs>
  <clipPath id="p18f5915c5a">
   <rect height="266.112" width="357.12" x="57.800938" y="22.318125"/>
  </clipPath>
 </defs>
</svg>
