<?xml version="1.0" encoding="utf-8" standalone="no"?>
<!DOCTYPE svg PUBLIC "-//W3C//DTD SVG 1.1//EN"
  "http://www.w3.org/Graphics/SVG/1.1/DTD/svg11.dtd">
<!-- Created with matplotlib (https://matplotlib.org/) -->
<svg height="364.091062pt" version="1.1" viewBox="0 0 415.152768 364.091062" width="415.152768pt" xmlns="http://www.w3.org/2000/svg" xmlns:xlink="http://www.w3.org/1999/xlink">
 <metadata>
  <rdf:RDF xmlns:cc="http://creativecommons.org/ns#" xmlns:dc="http://purl.org/dc/elements/1.1/" xmlns:rdf="http://www.w3.org/1999/02/22-rdf-syntax-ns#">
   <cc:Work>
    <dc:type rdf:resource="http://purl.org/dc/dcmitype/StillImage"/>
    <dc:date>2021-01-01T12:34:01.105234</dc:date>
    <dc:format>image/svg+xml</dc:format>
    <dc:creator>
     <cc:Agent>
      <dc:title>Matplotlib v3.3.3, https://matplotlib.org/</dc:title>
     </cc:Agent>
    </dc:creator>
   </cc:Work>
  </rdf:RDF>
 </metadata>
 <defs>
  <style type="text/css">*{stroke-linecap:butt;stroke-linejoin:round;}</style>
 </defs>
 <g id="figure_1">
  <g id="patch_1">
   <path d="M 0 364.091062 
L 415.152768 364.091062 
L 415.152768 0 
L 0 0 
z
" style="fill:#ffffff;"/>
  </g>
  <g id="axes_1">
   <g id="patch_2">
    <path d="M 46.603125 288.430125 
L 403.723125 288.430125 
L 403.723125 22.318125 
L 46.603125 22.318125 
z
" style="fill:#ffffff;"/>
   </g>
   <g id="patch_3">
    <path clip-path="url(#p169d78d4c1)" d="M 46.725009 288.430125 
L 47.700081 288.430125 
L 47.700081 251.470125 
L 46.725009 251.470125 
z
" style="fill:#1f77b4;"/>
   </g>
   <g id="patch_4">
    <path clip-path="url(#p169d78d4c1)" d="M 47.943849 288.430125 
L 48.91892 288.430125 
L 48.91892 281.038125 
L 47.943849 281.038125 
z
" style="fill:#1f77b4;"/>
   </g>
   <g id="patch_5">
    <path clip-path="url(#p169d78d4c1)" d="M 49.162688 288.430125 
L 50.13776 288.430125 
L 50.13776 266.254125 
L 49.162688 266.254125 
z
" style="fill:#1f77b4;"/>
   </g>
   <g id="patch_6">
    <path clip-path="url(#p169d78d4c1)" d="M 50.381528 288.430125 
L 51.356599 288.430125 
L 51.356599 266.254125 
L 50.381528 266.254125 
z
" style="fill:#1f77b4;"/>
   </g>
   <g id="patch_7">
    <path clip-path="url(#p169d78d4c1)" d="M 51.600367 288.430125 
L 52.575439 288.430125 
L 52.575439 258.862125 
L 51.600367 258.862125 
z
" style="fill:#1f77b4;"/>
   </g>
   <g id="patch_8">
    <path clip-path="url(#p169d78d4c1)" d="M 52.819207 288.430125 
L 53.794279 288.430125 
L 53.794279 266.254125 
L 52.819207 266.254125 
z
" style="fill:#1f77b4;"/>
   </g>
   <g id="patch_9">
    <path clip-path="url(#p169d78d4c1)" d="M 54.038047 288.430125 
L 55.013118 288.430125 
L 55.013118 251.470125 
L 54.038047 251.470125 
z
" style="fill:#1f77b4;"/>
   </g>
   <g id="patch_10">
    <path clip-path="url(#p169d78d4c1)" d="M 55.256886 288.430125 
L 56.231958 288.430125 
L 56.231958 236.686125 
L 55.256886 236.686125 
z
" style="fill:#1f77b4;"/>
   </g>
   <g id="patch_11">
    <path clip-path="url(#p169d78d4c1)" d="M 56.475726 288.430125 
L 57.450797 288.430125 
L 57.450797 258.862125 
L 56.475726 258.862125 
z
" style="fill:#1f77b4;"/>
   </g>
   <g id="patch_12">
    <path clip-path="url(#p169d78d4c1)" d="M 57.694565 288.430125 
L 58.669637 288.430125 
L 58.669637 221.902125 
L 57.694565 221.902125 
z
" style="fill:#1f77b4;"/>
   </g>
   <g id="patch_13">
    <path clip-path="url(#p169d78d4c1)" d="M 58.913405 288.430125 
L 59.888477 288.430125 
L 59.888477 281.038125 
L 58.913405 281.038125 
z
" style="fill:#1f77b4;"/>
   </g>
   <g id="patch_14">
    <path clip-path="url(#p169d78d4c1)" d="M 60.132244 288.430125 
L 61.107316 288.430125 
L 61.107316 229.294125 
L 60.132244 229.294125 
z
" style="fill:#1f77b4;"/>
   </g>
   <g id="patch_15">
    <path clip-path="url(#p169d78d4c1)" d="M 61.351084 288.430125 
L 62.326156 288.430125 
L 62.326156 236.686125 
L 61.351084 236.686125 
z
" style="fill:#1f77b4;"/>
   </g>
   <g id="patch_16">
    <path clip-path="url(#p169d78d4c1)" d="M 62.569924 288.430125 
L 63.544995 288.430125 
L 63.544995 258.862125 
L 62.569924 258.862125 
z
" style="fill:#1f77b4;"/>
   </g>
   <g id="patch_17">
    <path clip-path="url(#p169d78d4c1)" d="M 63.788763 288.430125 
L 64.763835 288.430125 
L 64.763835 236.686125 
L 63.788763 236.686125 
z
" style="fill:#1f77b4;"/>
   </g>
   <g id="patch_18">
    <path clip-path="url(#p169d78d4c1)" d="M 65.007603 288.430125 
L 65.982674 288.430125 
L 65.982674 266.254125 
L 65.007603 266.254125 
z
" style="fill:#1f77b4;"/>
   </g>
   <g id="patch_19">
    <path clip-path="url(#p169d78d4c1)" d="M 66.226442 288.430125 
L 67.201514 288.430125 
L 67.201514 22.318125 
L 66.226442 22.318125 
z
" style="fill:#1f77b4;"/>
   </g>
   <g id="patch_20">
    <path clip-path="url(#p169d78d4c1)" d="M 67.445282 288.430125 
L 68.420354 288.430125 
L 68.420354 214.510125 
L 67.445282 214.510125 
z
" style="fill:#1f77b4;"/>
   </g>
   <g id="patch_21">
    <path clip-path="url(#p169d78d4c1)" d="M 68.664122 288.430125 
L 69.639193 288.430125 
L 69.639193 229.294125 
L 68.664122 229.294125 
z
" style="fill:#1f77b4;"/>
   </g>
   <g id="patch_22">
    <path clip-path="url(#p169d78d4c1)" d="M 69.882961 288.430125 
L 70.858033 288.430125 
L 70.858033 184.942125 
L 69.882961 184.942125 
z
" style="fill:#1f77b4;"/>
   </g>
   <g id="patch_23">
    <path clip-path="url(#p169d78d4c1)" d="M 71.101801 288.430125 
L 72.076872 288.430125 
L 72.076872 258.862125 
L 71.101801 258.862125 
z
" style="fill:#1f77b4;"/>
   </g>
   <g id="patch_24">
    <path clip-path="url(#p169d78d4c1)" d="M 72.32064 288.430125 
L 73.295712 288.430125 
L 73.295712 214.510125 
L 72.32064 214.510125 
z
" style="fill:#1f77b4;"/>
   </g>
   <g id="patch_25">
    <path clip-path="url(#p169d78d4c1)" d="M 73.53948 288.430125 
L 74.514552 288.430125 
L 74.514552 229.294125 
L 73.53948 229.294125 
z
" style="fill:#1f77b4;"/>
   </g>
   <g id="patch_26">
    <path clip-path="url(#p169d78d4c1)" d="M 74.75832 288.430125 
L 75.733391 288.430125 
L 75.733391 229.294125 
L 74.75832 229.294125 
z
" style="fill:#1f77b4;"/>
   </g>
   <g id="patch_27">
    <path clip-path="url(#p169d78d4c1)" d="M 75.977159 288.430125 
L 76.952231 288.430125 
L 76.952231 244.078125 
L 75.977159 244.078125 
z
" style="fill:#1f77b4;"/>
   </g>
   <g id="patch_28">
    <path clip-path="url(#p169d78d4c1)" d="M 77.195999 288.430125 
L 78.17107 288.430125 
L 78.17107 221.902125 
L 77.195999 221.902125 
z
" style="fill:#1f77b4;"/>
   </g>
   <g id="patch_29">
    <path clip-path="url(#p169d78d4c1)" d="M 78.414838 288.430125 
L 79.38991 288.430125 
L 79.38991 251.470125 
L 78.414838 251.470125 
z
" style="fill:#1f77b4;"/>
   </g>
   <g id="patch_30">
    <path clip-path="url(#p169d78d4c1)" d="M 79.633678 288.430125 
L 80.60875 288.430125 
L 80.60875 229.294125 
L 79.633678 229.294125 
z
" style="fill:#1f77b4;"/>
   </g>
   <g id="patch_31">
    <path clip-path="url(#p169d78d4c1)" d="M 80.852517 288.430125 
L 81.827589 288.430125 
L 81.827589 258.862125 
L 80.852517 258.862125 
z
" style="fill:#1f77b4;"/>
   </g>
   <g id="patch_32">
    <path clip-path="url(#p169d78d4c1)" d="M 82.071357 288.430125 
L 83.046429 288.430125 
L 83.046429 207.118125 
L 82.071357 207.118125 
z
" style="fill:#1f77b4;"/>
   </g>
   <g id="patch_33">
    <path clip-path="url(#p169d78d4c1)" d="M 83.290197 288.430125 
L 84.265268 288.430125 
L 84.265268 273.646125 
L 83.290197 273.646125 
z
" style="fill:#1f77b4;"/>
   </g>
   <g id="patch_34">
    <path clip-path="url(#p169d78d4c1)" d="M 84.509036 288.430125 
L 85.484108 288.430125 
L 85.484108 258.862125 
L 84.509036 258.862125 
z
" style="fill:#1f77b4;"/>
   </g>
   <g id="patch_35">
    <path clip-path="url(#p169d78d4c1)" d="M 85.727876 288.430125 
L 86.702948 288.430125 
L 86.702948 236.686125 
L 85.727876 236.686125 
z
" style="fill:#1f77b4;"/>
   </g>
   <g id="patch_36">
    <path clip-path="url(#p169d78d4c1)" d="M 86.946715 288.430125 
L 87.921787 288.430125 
L 87.921787 258.862125 
L 86.946715 258.862125 
z
" style="fill:#1f77b4;"/>
   </g>
   <g id="patch_37">
    <path clip-path="url(#p169d78d4c1)" d="M 88.165555 288.430125 
L 89.140627 288.430125 
L 89.140627 236.686125 
L 88.165555 236.686125 
z
" style="fill:#1f77b4;"/>
   </g>
   <g id="patch_38">
    <path clip-path="url(#p169d78d4c1)" d="M 89.384395 288.430125 
L 90.359466 288.430125 
L 90.359466 244.078125 
L 89.384395 244.078125 
z
" style="fill:#1f77b4;"/>
   </g>
   <g id="patch_39">
    <path clip-path="url(#p169d78d4c1)" d="M 90.603234 288.430125 
L 91.578306 288.430125 
L 91.578306 258.862125 
L 90.603234 258.862125 
z
" style="fill:#1f77b4;"/>
   </g>
   <g id="patch_40">
    <path clip-path="url(#p169d78d4c1)" d="M 91.822074 288.430125 
L 92.797145 288.430125 
L 92.797145 266.254125 
L 91.822074 266.254125 
z
" style="fill:#1f77b4;"/>
   </g>
   <g id="patch_41">
    <path clip-path="url(#p169d78d4c1)" d="M 93.040913 288.430125 
L 94.015985 288.430125 
L 94.015985 258.862125 
L 93.040913 258.862125 
z
" style="fill:#1f77b4;"/>
   </g>
   <g id="patch_42">
    <path clip-path="url(#p169d78d4c1)" d="M 94.259753 288.430125 
L 95.234825 288.430125 
L 95.234825 251.470125 
L 94.259753 251.470125 
z
" style="fill:#1f77b4;"/>
   </g>
   <g id="patch_43">
    <path clip-path="url(#p169d78d4c1)" d="M 95.478593 288.430125 
L 96.453664 288.430125 
L 96.453664 273.646125 
L 95.478593 273.646125 
z
" style="fill:#1f77b4;"/>
   </g>
   <g id="patch_44">
    <path clip-path="url(#p169d78d4c1)" d="M 96.697432 288.430125 
L 97.672504 288.430125 
L 97.672504 273.646125 
L 96.697432 273.646125 
z
" style="fill:#1f77b4;"/>
   </g>
   <g id="patch_45">
    <path clip-path="url(#p169d78d4c1)" d="M 97.916272 288.430125 
L 98.891343 288.430125 
L 98.891343 258.862125 
L 97.916272 258.862125 
z
" style="fill:#1f77b4;"/>
   </g>
   <g id="patch_46">
    <path clip-path="url(#p169d78d4c1)" d="M 99.135111 288.430125 
L 100.110183 288.430125 
L 100.110183 281.038125 
L 99.135111 281.038125 
z
" style="fill:#1f77b4;"/>
   </g>
   <g id="patch_47">
    <path clip-path="url(#p169d78d4c1)" d="M 100.353951 288.430125 
L 101.329023 288.430125 
L 101.329023 273.646125 
L 100.353951 273.646125 
z
" style="fill:#1f77b4;"/>
   </g>
   <g id="patch_48">
    <path clip-path="url(#p169d78d4c1)" d="M 101.572791 288.430125 
L 102.547862 288.430125 
L 102.547862 273.646125 
L 101.572791 273.646125 
z
" style="fill:#1f77b4;"/>
   </g>
   <g id="patch_49">
    <path clip-path="url(#p169d78d4c1)" d="M 102.79163 288.430125 
L 103.766702 288.430125 
L 103.766702 281.038125 
L 102.79163 281.038125 
z
" style="fill:#1f77b4;"/>
   </g>
   <g id="patch_50">
    <path clip-path="url(#p169d78d4c1)" d="M 104.01047 288.430125 
L 104.985541 288.430125 
L 104.985541 266.254125 
L 104.01047 266.254125 
z
" style="fill:#1f77b4;"/>
   </g>
   <g id="patch_51">
    <path clip-path="url(#p169d78d4c1)" d="M 105.229309 288.430125 
L 106.204381 288.430125 
L 106.204381 281.038125 
L 105.229309 281.038125 
z
" style="fill:#1f77b4;"/>
   </g>
   <g id="patch_52">
    <path clip-path="url(#p169d78d4c1)" d="M 106.448149 288.430125 
L 107.423221 288.430125 
L 107.423221 273.646125 
L 106.448149 273.646125 
z
" style="fill:#1f77b4;"/>
   </g>
   <g id="patch_53">
    <path clip-path="url(#p169d78d4c1)" d="M 107.666988 288.430125 
L 108.64206 288.430125 
L 108.64206 266.254125 
L 107.666988 266.254125 
z
" style="fill:#1f77b4;"/>
   </g>
   <g id="patch_54">
    <path clip-path="url(#p169d78d4c1)" d="M 108.885828 288.430125 
L 109.8609 288.430125 
L 109.8609 273.646125 
L 108.885828 273.646125 
z
" style="fill:#1f77b4;"/>
   </g>
   <g id="patch_55">
    <path clip-path="url(#p169d78d4c1)" d="M 110.104668 288.430125 
L 111.079739 288.430125 
L 111.079739 288.430125 
L 110.104668 288.430125 
z
" style="fill:#1f77b4;"/>
   </g>
   <g id="patch_56">
    <path clip-path="url(#p169d78d4c1)" d="M 111.323507 288.430125 
L 112.298579 288.430125 
L 112.298579 288.430125 
L 111.323507 288.430125 
z
" style="fill:#1f77b4;"/>
   </g>
   <g id="patch_57">
    <path clip-path="url(#p169d78d4c1)" d="M 112.542347 288.430125 
L 113.517419 288.430125 
L 113.517419 266.254125 
L 112.542347 266.254125 
z
" style="fill:#1f77b4;"/>
   </g>
   <g id="patch_58">
    <path clip-path="url(#p169d78d4c1)" d="M 113.761186 288.430125 
L 114.736258 288.430125 
L 114.736258 281.038125 
L 113.761186 281.038125 
z
" style="fill:#1f77b4;"/>
   </g>
   <g id="patch_59">
    <path clip-path="url(#p169d78d4c1)" d="M 114.980026 288.430125 
L 115.955098 288.430125 
L 115.955098 288.430125 
L 114.980026 288.430125 
z
" style="fill:#1f77b4;"/>
   </g>
   <g id="patch_60">
    <path clip-path="url(#p169d78d4c1)" d="M 116.198866 288.430125 
L 117.173937 288.430125 
L 117.173937 288.430125 
L 116.198866 288.430125 
z
" style="fill:#1f77b4;"/>
   </g>
   <g id="patch_61">
    <path clip-path="url(#p169d78d4c1)" d="M 117.417705 288.430125 
L 118.392777 288.430125 
L 118.392777 288.430125 
L 117.417705 288.430125 
z
" style="fill:#1f77b4;"/>
   </g>
   <g id="patch_62">
    <path clip-path="url(#p169d78d4c1)" d="M 118.636545 288.430125 
L 119.611616 288.430125 
L 119.611616 288.430125 
L 118.636545 288.430125 
z
" style="fill:#1f77b4;"/>
   </g>
   <g id="patch_63">
    <path clip-path="url(#p169d78d4c1)" d="M 119.855384 288.430125 
L 120.830456 288.430125 
L 120.830456 288.430125 
L 119.855384 288.430125 
z
" style="fill:#1f77b4;"/>
   </g>
   <g id="patch_64">
    <path clip-path="url(#p169d78d4c1)" d="M 121.074224 288.430125 
L 122.049296 288.430125 
L 122.049296 288.430125 
L 121.074224 288.430125 
z
" style="fill:#1f77b4;"/>
   </g>
   <g id="patch_65">
    <path clip-path="url(#p169d78d4c1)" d="M 122.293064 288.430125 
L 123.268135 288.430125 
L 123.268135 288.430125 
L 122.293064 288.430125 
z
" style="fill:#1f77b4;"/>
   </g>
   <g id="patch_66">
    <path clip-path="url(#p169d78d4c1)" d="M 123.511903 288.430125 
L 124.486975 288.430125 
L 124.486975 288.430125 
L 123.511903 288.430125 
z
" style="fill:#1f77b4;"/>
   </g>
   <g id="patch_67">
    <path clip-path="url(#p169d78d4c1)" d="M 124.730743 288.430125 
L 125.705814 288.430125 
L 125.705814 281.038125 
L 124.730743 281.038125 
z
" style="fill:#1f77b4;"/>
   </g>
   <g id="patch_68">
    <path clip-path="url(#p169d78d4c1)" d="M 125.949582 288.430125 
L 126.924654 288.430125 
L 126.924654 288.430125 
L 125.949582 288.430125 
z
" style="fill:#1f77b4;"/>
   </g>
   <g id="patch_69">
    <path clip-path="url(#p169d78d4c1)" d="M 127.168422 288.430125 
L 128.143494 288.430125 
L 128.143494 288.430125 
L 127.168422 288.430125 
z
" style="fill:#1f77b4;"/>
   </g>
   <g id="patch_70">
    <path clip-path="url(#p169d78d4c1)" d="M 128.387262 288.430125 
L 129.362333 288.430125 
L 129.362333 288.430125 
L 128.387262 288.430125 
z
" style="fill:#1f77b4;"/>
   </g>
   <g id="patch_71">
    <path clip-path="url(#p169d78d4c1)" d="M 129.606101 288.430125 
L 130.581173 288.430125 
L 130.581173 288.430125 
L 129.606101 288.430125 
z
" style="fill:#1f77b4;"/>
   </g>
   <g id="patch_72">
    <path clip-path="url(#p169d78d4c1)" d="M 130.824941 288.430125 
L 131.800012 288.430125 
L 131.800012 288.430125 
L 130.824941 288.430125 
z
" style="fill:#1f77b4;"/>
   </g>
   <g id="patch_73">
    <path clip-path="url(#p169d78d4c1)" d="M 132.04378 288.430125 
L 133.018852 288.430125 
L 133.018852 288.430125 
L 132.04378 288.430125 
z
" style="fill:#1f77b4;"/>
   </g>
   <g id="patch_74">
    <path clip-path="url(#p169d78d4c1)" d="M 133.26262 288.430125 
L 134.237692 288.430125 
L 134.237692 288.430125 
L 133.26262 288.430125 
z
" style="fill:#1f77b4;"/>
   </g>
   <g id="patch_75">
    <path clip-path="url(#p169d78d4c1)" d="M 134.481459 288.430125 
L 135.456531 288.430125 
L 135.456531 288.430125 
L 134.481459 288.430125 
z
" style="fill:#1f77b4;"/>
   </g>
   <g id="patch_76">
    <path clip-path="url(#p169d78d4c1)" d="M 135.700299 288.430125 
L 136.675371 288.430125 
L 136.675371 288.430125 
L 135.700299 288.430125 
z
" style="fill:#1f77b4;"/>
   </g>
   <g id="patch_77">
    <path clip-path="url(#p169d78d4c1)" d="M 136.919139 288.430125 
L 137.89421 288.430125 
L 137.89421 288.430125 
L 136.919139 288.430125 
z
" style="fill:#1f77b4;"/>
   </g>
   <g id="patch_78">
    <path clip-path="url(#p169d78d4c1)" d="M 138.137978 288.430125 
L 139.11305 288.430125 
L 139.11305 288.430125 
L 138.137978 288.430125 
z
" style="fill:#1f77b4;"/>
   </g>
   <g id="patch_79">
    <path clip-path="url(#p169d78d4c1)" d="M 139.356818 288.430125 
L 140.33189 288.430125 
L 140.33189 288.430125 
L 139.356818 288.430125 
z
" style="fill:#1f77b4;"/>
   </g>
   <g id="patch_80">
    <path clip-path="url(#p169d78d4c1)" d="M 140.575657 288.430125 
L 141.550729 288.430125 
L 141.550729 288.430125 
L 140.575657 288.430125 
z
" style="fill:#1f77b4;"/>
   </g>
   <g id="patch_81">
    <path clip-path="url(#p169d78d4c1)" d="M 141.794497 288.430125 
L 142.769569 288.430125 
L 142.769569 288.430125 
L 141.794497 288.430125 
z
" style="fill:#1f77b4;"/>
   </g>
   <g id="patch_82">
    <path clip-path="url(#p169d78d4c1)" d="M 143.013337 288.430125 
L 143.988408 288.430125 
L 143.988408 288.430125 
L 143.013337 288.430125 
z
" style="fill:#1f77b4;"/>
   </g>
   <g id="patch_83">
    <path clip-path="url(#p169d78d4c1)" d="M 144.232176 288.430125 
L 145.207248 288.430125 
L 145.207248 288.430125 
L 144.232176 288.430125 
z
" style="fill:#1f77b4;"/>
   </g>
   <g id="patch_84">
    <path clip-path="url(#p169d78d4c1)" d="M 145.451016 288.430125 
L 146.426087 288.430125 
L 146.426087 281.038125 
L 145.451016 281.038125 
z
" style="fill:#1f77b4;"/>
   </g>
   <g id="patch_85">
    <path clip-path="url(#p169d78d4c1)" d="M 146.669855 288.430125 
L 147.644927 288.430125 
L 147.644927 288.430125 
L 146.669855 288.430125 
z
" style="fill:#1f77b4;"/>
   </g>
   <g id="patch_86">
    <path clip-path="url(#p169d78d4c1)" d="M 147.888695 288.430125 
L 148.863767 288.430125 
L 148.863767 288.430125 
L 147.888695 288.430125 
z
" style="fill:#1f77b4;"/>
   </g>
   <g id="patch_87">
    <path clip-path="url(#p169d78d4c1)" d="M 149.107535 288.430125 
L 150.082606 288.430125 
L 150.082606 288.430125 
L 149.107535 288.430125 
z
" style="fill:#1f77b4;"/>
   </g>
   <g id="patch_88">
    <path clip-path="url(#p169d78d4c1)" d="M 150.326374 288.430125 
L 151.301446 288.430125 
L 151.301446 288.430125 
L 150.326374 288.430125 
z
" style="fill:#1f77b4;"/>
   </g>
   <g id="patch_89">
    <path clip-path="url(#p169d78d4c1)" d="M 151.545214 288.430125 
L 152.520285 288.430125 
L 152.520285 288.430125 
L 151.545214 288.430125 
z
" style="fill:#1f77b4;"/>
   </g>
   <g id="patch_90">
    <path clip-path="url(#p169d78d4c1)" d="M 152.764053 288.430125 
L 153.739125 288.430125 
L 153.739125 288.430125 
L 152.764053 288.430125 
z
" style="fill:#1f77b4;"/>
   </g>
   <g id="patch_91">
    <path clip-path="url(#p169d78d4c1)" d="M 153.982893 288.430125 
L 154.957965 288.430125 
L 154.957965 288.430125 
L 153.982893 288.430125 
z
" style="fill:#1f77b4;"/>
   </g>
   <g id="patch_92">
    <path clip-path="url(#p169d78d4c1)" d="M 155.201733 288.430125 
L 156.176804 288.430125 
L 156.176804 295.822125 
L 155.201733 295.822125 
z
" style="fill:#1f77b4;"/>
   </g>
   <g id="patch_93">
    <path clip-path="url(#p169d78d4c1)" d="M 156.420572 288.430125 
L 157.395644 288.430125 
L 157.395644 288.430125 
L 156.420572 288.430125 
z
" style="fill:#1f77b4;"/>
   </g>
   <g id="patch_94">
    <path clip-path="url(#p169d78d4c1)" d="M 157.639412 288.430125 
L 158.614483 288.430125 
L 158.614483 288.430125 
L 157.639412 288.430125 
z
" style="fill:#1f77b4;"/>
   </g>
   <g id="patch_95">
    <path clip-path="url(#p169d78d4c1)" d="M 158.858251 288.430125 
L 159.833323 288.430125 
L 159.833323 281.038125 
L 158.858251 281.038125 
z
" style="fill:#1f77b4;"/>
   </g>
   <g id="patch_96">
    <path clip-path="url(#p169d78d4c1)" d="M 160.077091 288.430125 
L 161.052163 288.430125 
L 161.052163 288.430125 
L 160.077091 288.430125 
z
" style="fill:#1f77b4;"/>
   </g>
   <g id="patch_97">
    <path clip-path="url(#p169d78d4c1)" d="M 161.29593 288.430125 
L 162.271002 288.430125 
L 162.271002 288.430125 
L 161.29593 288.430125 
z
" style="fill:#1f77b4;"/>
   </g>
   <g id="patch_98">
    <path clip-path="url(#p169d78d4c1)" d="M 162.51477 288.430125 
L 163.489842 288.430125 
L 163.489842 288.430125 
L 162.51477 288.430125 
z
" style="fill:#1f77b4;"/>
   </g>
   <g id="patch_99">
    <path clip-path="url(#p169d78d4c1)" d="M 163.73361 288.430125 
L 164.708681 288.430125 
L 164.708681 288.430125 
L 163.73361 288.430125 
z
" style="fill:#1f77b4;"/>
   </g>
   <g id="patch_100">
    <path clip-path="url(#p169d78d4c1)" d="M 164.952449 288.430125 
L 165.927521 288.430125 
L 165.927521 288.430125 
L 164.952449 288.430125 
z
" style="fill:#1f77b4;"/>
   </g>
   <g id="patch_101">
    <path clip-path="url(#p169d78d4c1)" d="M 166.171289 288.430125 
L 167.14636 288.430125 
L 167.14636 288.430125 
L 166.171289 288.430125 
z
" style="fill:#1f77b4;"/>
   </g>
   <g id="patch_102">
    <path clip-path="url(#p169d78d4c1)" d="M 167.390128 288.430125 
L 168.3652 288.430125 
L 168.3652 288.430125 
L 167.390128 288.430125 
z
" style="fill:#1f77b4;"/>
   </g>
   <g id="patch_103">
    <path clip-path="url(#p169d78d4c1)" d="M 168.608968 288.430125 
L 169.58404 288.430125 
L 169.58404 288.430125 
L 168.608968 288.430125 
z
" style="fill:#1f77b4;"/>
   </g>
   <g id="patch_104">
    <path clip-path="url(#p169d78d4c1)" d="M 169.827808 288.430125 
L 170.802879 288.430125 
L 170.802879 288.430125 
L 169.827808 288.430125 
z
" style="fill:#1f77b4;"/>
   </g>
   <g id="patch_105">
    <path clip-path="url(#p169d78d4c1)" d="M 171.046647 288.430125 
L 172.021719 288.430125 
L 172.021719 288.430125 
L 171.046647 288.430125 
z
" style="fill:#1f77b4;"/>
   </g>
   <g id="patch_106">
    <path clip-path="url(#p169d78d4c1)" d="M 172.265487 288.430125 
L 173.240558 288.430125 
L 173.240558 288.430125 
L 172.265487 288.430125 
z
" style="fill:#1f77b4;"/>
   </g>
   <g id="patch_107">
    <path clip-path="url(#p169d78d4c1)" d="M 173.484326 288.430125 
L 174.459398 288.430125 
L 174.459398 288.430125 
L 173.484326 288.430125 
z
" style="fill:#1f77b4;"/>
   </g>
   <g id="patch_108">
    <path clip-path="url(#p169d78d4c1)" d="M 174.703166 288.430125 
L 175.678238 288.430125 
L 175.678238 288.430125 
L 174.703166 288.430125 
z
" style="fill:#1f77b4;"/>
   </g>
   <g id="patch_109">
    <path clip-path="url(#p169d78d4c1)" d="M 175.922006 288.430125 
L 176.897077 288.430125 
L 176.897077 288.430125 
L 175.922006 288.430125 
z
" style="fill:#1f77b4;"/>
   </g>
   <g id="patch_110">
    <path clip-path="url(#p169d78d4c1)" d="M 177.140845 288.430125 
L 178.115917 288.430125 
L 178.115917 288.430125 
L 177.140845 288.430125 
z
" style="fill:#1f77b4;"/>
   </g>
   <g id="patch_111">
    <path clip-path="url(#p169d78d4c1)" d="M 178.359685 288.430125 
L 179.334756 288.430125 
L 179.334756 288.430125 
L 178.359685 288.430125 
z
" style="fill:#1f77b4;"/>
   </g>
   <g id="patch_112">
    <path clip-path="url(#p169d78d4c1)" d="M 179.578524 288.430125 
L 180.553596 288.430125 
L 180.553596 288.430125 
L 179.578524 288.430125 
z
" style="fill:#1f77b4;"/>
   </g>
   <g id="patch_113">
    <path clip-path="url(#p169d78d4c1)" d="M 180.797364 288.430125 
L 181.772436 288.430125 
L 181.772436 288.430125 
L 180.797364 288.430125 
z
" style="fill:#1f77b4;"/>
   </g>
   <g id="patch_114">
    <path clip-path="url(#p169d78d4c1)" d="M 182.016203 288.430125 
L 182.991275 288.430125 
L 182.991275 288.430125 
L 182.016203 288.430125 
z
" style="fill:#1f77b4;"/>
   </g>
   <g id="patch_115">
    <path clip-path="url(#p169d78d4c1)" d="M 183.235043 288.430125 
L 184.210115 288.430125 
L 184.210115 288.430125 
L 183.235043 288.430125 
z
" style="fill:#1f77b4;"/>
   </g>
   <g id="patch_116">
    <path clip-path="url(#p169d78d4c1)" d="M 184.453883 288.430125 
L 185.428954 288.430125 
L 185.428954 288.430125 
L 184.453883 288.430125 
z
" style="fill:#1f77b4;"/>
   </g>
   <g id="patch_117">
    <path clip-path="url(#p169d78d4c1)" d="M 185.672722 288.430125 
L 186.647794 288.430125 
L 186.647794 288.430125 
L 185.672722 288.430125 
z
" style="fill:#1f77b4;"/>
   </g>
   <g id="patch_118">
    <path clip-path="url(#p169d78d4c1)" d="M 186.891562 288.430125 
L 187.866634 288.430125 
L 187.866634 288.430125 
L 186.891562 288.430125 
z
" style="fill:#1f77b4;"/>
   </g>
   <g id="patch_119">
    <path clip-path="url(#p169d78d4c1)" d="M 188.110401 288.430125 
L 189.085473 288.430125 
L 189.085473 288.430125 
L 188.110401 288.430125 
z
" style="fill:#1f77b4;"/>
   </g>
   <g id="patch_120">
    <path clip-path="url(#p169d78d4c1)" d="M 189.329241 288.430125 
L 190.304313 288.430125 
L 190.304313 288.430125 
L 189.329241 288.430125 
z
" style="fill:#1f77b4;"/>
   </g>
   <g id="patch_121">
    <path clip-path="url(#p169d78d4c1)" d="M 190.548081 288.430125 
L 191.523152 288.430125 
L 191.523152 288.430125 
L 190.548081 288.430125 
z
" style="fill:#1f77b4;"/>
   </g>
   <g id="patch_122">
    <path clip-path="url(#p169d78d4c1)" d="M 191.76692 288.430125 
L 192.741992 288.430125 
L 192.741992 288.430125 
L 191.76692 288.430125 
z
" style="fill:#1f77b4;"/>
   </g>
   <g id="patch_123">
    <path clip-path="url(#p169d78d4c1)" d="M 192.98576 288.430125 
L 193.960831 288.430125 
L 193.960831 288.430125 
L 192.98576 288.430125 
z
" style="fill:#1f77b4;"/>
   </g>
   <g id="patch_124">
    <path clip-path="url(#p169d78d4c1)" d="M 194.204599 288.430125 
L 195.179671 288.430125 
L 195.179671 288.430125 
L 194.204599 288.430125 
z
" style="fill:#1f77b4;"/>
   </g>
   <g id="patch_125">
    <path clip-path="url(#p169d78d4c1)" d="M 195.423439 288.430125 
L 196.398511 288.430125 
L 196.398511 288.430125 
L 195.423439 288.430125 
z
" style="fill:#1f77b4;"/>
   </g>
   <g id="patch_126">
    <path clip-path="url(#p169d78d4c1)" d="M 196.642279 288.430125 
L 197.61735 288.430125 
L 197.61735 288.430125 
L 196.642279 288.430125 
z
" style="fill:#1f77b4;"/>
   </g>
   <g id="patch_127">
    <path clip-path="url(#p169d78d4c1)" d="M 197.861118 288.430125 
L 198.83619 288.430125 
L 198.83619 288.430125 
L 197.861118 288.430125 
z
" style="fill:#1f77b4;"/>
   </g>
   <g id="patch_128">
    <path clip-path="url(#p169d78d4c1)" d="M 199.079958 288.430125 
L 200.055029 288.430125 
L 200.055029 288.430125 
L 199.079958 288.430125 
z
" style="fill:#1f77b4;"/>
   </g>
   <g id="patch_129">
    <path clip-path="url(#p169d78d4c1)" d="M 200.298797 288.430125 
L 201.273869 288.430125 
L 201.273869 288.430125 
L 200.298797 288.430125 
z
" style="fill:#1f77b4;"/>
   </g>
   <g id="patch_130">
    <path clip-path="url(#p169d78d4c1)" d="M 201.517637 288.430125 
L 202.492709 288.430125 
L 202.492709 288.430125 
L 201.517637 288.430125 
z
" style="fill:#1f77b4;"/>
   </g>
   <g id="patch_131">
    <path clip-path="url(#p169d78d4c1)" d="M 202.736477 288.430125 
L 203.711548 288.430125 
L 203.711548 288.430125 
L 202.736477 288.430125 
z
" style="fill:#1f77b4;"/>
   </g>
   <g id="patch_132">
    <path clip-path="url(#p169d78d4c1)" d="M 203.955316 288.430125 
L 204.930388 288.430125 
L 204.930388 288.430125 
L 203.955316 288.430125 
z
" style="fill:#1f77b4;"/>
   </g>
   <g id="patch_133">
    <path clip-path="url(#p169d78d4c1)" d="M 205.174156 288.430125 
L 206.149227 288.430125 
L 206.149227 288.430125 
L 205.174156 288.430125 
z
" style="fill:#1f77b4;"/>
   </g>
   <g id="patch_134">
    <path clip-path="url(#p169d78d4c1)" d="M 206.392995 288.430125 
L 207.368067 288.430125 
L 207.368067 288.430125 
L 206.392995 288.430125 
z
" style="fill:#1f77b4;"/>
   </g>
   <g id="patch_135">
    <path clip-path="url(#p169d78d4c1)" d="M 207.611835 288.430125 
L 208.586907 288.430125 
L 208.586907 288.430125 
L 207.611835 288.430125 
z
" style="fill:#1f77b4;"/>
   </g>
   <g id="patch_136">
    <path clip-path="url(#p169d78d4c1)" d="M 208.830674 288.430125 
L 209.805746 288.430125 
L 209.805746 288.430125 
L 208.830674 288.430125 
z
" style="fill:#1f77b4;"/>
   </g>
   <g id="patch_137">
    <path clip-path="url(#p169d78d4c1)" d="M 210.049514 288.430125 
L 211.024586 288.430125 
L 211.024586 288.430125 
L 210.049514 288.430125 
z
" style="fill:#1f77b4;"/>
   </g>
   <g id="patch_138">
    <path clip-path="url(#p169d78d4c1)" d="M 211.268354 288.430125 
L 212.243425 288.430125 
L 212.243425 288.430125 
L 211.268354 288.430125 
z
" style="fill:#1f77b4;"/>
   </g>
   <g id="patch_139">
    <path clip-path="url(#p169d78d4c1)" d="M 212.487193 288.430125 
L 213.462265 288.430125 
L 213.462265 288.430125 
L 212.487193 288.430125 
z
" style="fill:#1f77b4;"/>
   </g>
   <g id="patch_140">
    <path clip-path="url(#p169d78d4c1)" d="M 213.706033 288.430125 
L 214.681105 288.430125 
L 214.681105 288.430125 
L 213.706033 288.430125 
z
" style="fill:#1f77b4;"/>
   </g>
   <g id="patch_141">
    <path clip-path="url(#p169d78d4c1)" d="M 214.924872 288.430125 
L 215.899944 288.430125 
L 215.899944 288.430125 
L 214.924872 288.430125 
z
" style="fill:#1f77b4;"/>
   </g>
   <g id="patch_142">
    <path clip-path="url(#p169d78d4c1)" d="M 216.143712 288.430125 
L 217.118784 288.430125 
L 217.118784 288.430125 
L 216.143712 288.430125 
z
" style="fill:#1f77b4;"/>
   </g>
   <g id="patch_143">
    <path clip-path="url(#p169d78d4c1)" d="M 217.362552 288.430125 
L 218.337623 288.430125 
L 218.337623 288.430125 
L 217.362552 288.430125 
z
" style="fill:#1f77b4;"/>
   </g>
   <g id="patch_144">
    <path clip-path="url(#p169d78d4c1)" d="M 218.581391 288.430125 
L 219.556463 288.430125 
L 219.556463 288.430125 
L 218.581391 288.430125 
z
" style="fill:#1f77b4;"/>
   </g>
   <g id="patch_145">
    <path clip-path="url(#p169d78d4c1)" d="M 219.800231 288.430125 
L 220.775302 288.430125 
L 220.775302 288.430125 
L 219.800231 288.430125 
z
" style="fill:#1f77b4;"/>
   </g>
   <g id="patch_146">
    <path clip-path="url(#p169d78d4c1)" d="M 221.01907 288.430125 
L 221.994142 288.430125 
L 221.994142 288.430125 
L 221.01907 288.430125 
z
" style="fill:#1f77b4;"/>
   </g>
   <g id="patch_147">
    <path clip-path="url(#p169d78d4c1)" d="M 222.23791 288.430125 
L 223.212982 288.430125 
L 223.212982 288.430125 
L 222.23791 288.430125 
z
" style="fill:#1f77b4;"/>
   </g>
   <g id="patch_148">
    <path clip-path="url(#p169d78d4c1)" d="M 223.45675 288.430125 
L 224.431821 288.430125 
L 224.431821 288.430125 
L 223.45675 288.430125 
z
" style="fill:#1f77b4;"/>
   </g>
   <g id="patch_149">
    <path clip-path="url(#p169d78d4c1)" d="M 224.675589 288.430125 
L 225.650661 288.430125 
L 225.650661 288.430125 
L 224.675589 288.430125 
z
" style="fill:#1f77b4;"/>
   </g>
   <g id="patch_150">
    <path clip-path="url(#p169d78d4c1)" d="M 225.894429 288.430125 
L 226.8695 288.430125 
L 226.8695 288.430125 
L 225.894429 288.430125 
z
" style="fill:#1f77b4;"/>
   </g>
   <g id="patch_151">
    <path clip-path="url(#p169d78d4c1)" d="M 227.113268 288.430125 
L 228.08834 288.430125 
L 228.08834 288.430125 
L 227.113268 288.430125 
z
" style="fill:#1f77b4;"/>
   </g>
   <g id="patch_152">
    <path clip-path="url(#p169d78d4c1)" d="M 228.332108 288.430125 
L 229.30718 288.430125 
L 229.30718 288.430125 
L 228.332108 288.430125 
z
" style="fill:#1f77b4;"/>
   </g>
   <g id="patch_153">
    <path clip-path="url(#p169d78d4c1)" d="M 229.550948 288.430125 
L 230.526019 288.430125 
L 230.526019 288.430125 
L 229.550948 288.430125 
z
" style="fill:#1f77b4;"/>
   </g>
   <g id="patch_154">
    <path clip-path="url(#p169d78d4c1)" d="M 230.769787 288.430125 
L 231.744859 288.430125 
L 231.744859 288.430125 
L 230.769787 288.430125 
z
" style="fill:#1f77b4;"/>
   </g>
   <g id="patch_155">
    <path clip-path="url(#p169d78d4c1)" d="M 231.988627 288.430125 
L 232.963698 288.430125 
L 232.963698 288.430125 
L 231.988627 288.430125 
z
" style="fill:#1f77b4;"/>
   </g>
   <g id="patch_156">
    <path clip-path="url(#p169d78d4c1)" d="M 233.207466 288.430125 
L 234.182538 288.430125 
L 234.182538 288.430125 
L 233.207466 288.430125 
z
" style="fill:#1f77b4;"/>
   </g>
   <g id="patch_157">
    <path clip-path="url(#p169d78d4c1)" d="M 234.426306 288.430125 
L 235.401378 288.430125 
L 235.401378 288.430125 
L 234.426306 288.430125 
z
" style="fill:#1f77b4;"/>
   </g>
   <g id="patch_158">
    <path clip-path="url(#p169d78d4c1)" d="M 235.645145 288.430125 
L 236.620217 288.430125 
L 236.620217 288.430125 
L 235.645145 288.430125 
z
" style="fill:#1f77b4;"/>
   </g>
   <g id="patch_159">
    <path clip-path="url(#p169d78d4c1)" d="M 236.863985 288.430125 
L 237.839057 288.430125 
L 237.839057 288.430125 
L 236.863985 288.430125 
z
" style="fill:#1f77b4;"/>
   </g>
   <g id="patch_160">
    <path clip-path="url(#p169d78d4c1)" d="M 238.082825 288.430125 
L 239.057896 288.430125 
L 239.057896 288.430125 
L 238.082825 288.430125 
z
" style="fill:#1f77b4;"/>
   </g>
   <g id="patch_161">
    <path clip-path="url(#p169d78d4c1)" d="M 239.301664 288.430125 
L 240.276736 288.430125 
L 240.276736 288.430125 
L 239.301664 288.430125 
z
" style="fill:#1f77b4;"/>
   </g>
   <g id="patch_162">
    <path clip-path="url(#p169d78d4c1)" d="M 240.520504 288.430125 
L 241.495576 288.430125 
L 241.495576 288.430125 
L 240.520504 288.430125 
z
" style="fill:#1f77b4;"/>
   </g>
   <g id="patch_163">
    <path clip-path="url(#p169d78d4c1)" d="M 241.739343 288.430125 
L 242.714415 288.430125 
L 242.714415 288.430125 
L 241.739343 288.430125 
z
" style="fill:#1f77b4;"/>
   </g>
   <g id="patch_164">
    <path clip-path="url(#p169d78d4c1)" d="M 242.958183 288.430125 
L 243.933255 288.430125 
L 243.933255 288.430125 
L 242.958183 288.430125 
z
" style="fill:#1f77b4;"/>
   </g>
   <g id="patch_165">
    <path clip-path="url(#p169d78d4c1)" d="M 244.177023 288.430125 
L 245.152094 288.430125 
L 245.152094 288.430125 
L 244.177023 288.430125 
z
" style="fill:#1f77b4;"/>
   </g>
   <g id="patch_166">
    <path clip-path="url(#p169d78d4c1)" d="M 245.395862 288.430125 
L 246.370934 288.430125 
L 246.370934 303.214125 
L 245.395862 303.214125 
z
" style="fill:#1f77b4;"/>
   </g>
   <g id="patch_167">
    <path clip-path="url(#p169d78d4c1)" d="M 246.614702 288.430125 
L 247.589773 288.430125 
L 247.589773 273.646125 
L 246.614702 273.646125 
z
" style="fill:#1f77b4;"/>
   </g>
   <g id="patch_168">
    <path clip-path="url(#p169d78d4c1)" d="M 247.833541 288.430125 
L 248.808613 288.430125 
L 248.808613 288.430125 
L 247.833541 288.430125 
z
" style="fill:#1f77b4;"/>
   </g>
   <g id="patch_169">
    <path clip-path="url(#p169d78d4c1)" d="M 249.052381 288.430125 
L 250.027453 288.430125 
L 250.027453 288.430125 
L 249.052381 288.430125 
z
" style="fill:#1f77b4;"/>
   </g>
   <g id="patch_170">
    <path clip-path="url(#p169d78d4c1)" d="M 250.271221 288.430125 
L 251.246292 288.430125 
L 251.246292 288.430125 
L 250.271221 288.430125 
z
" style="fill:#1f77b4;"/>
   </g>
   <g id="patch_171">
    <path clip-path="url(#p169d78d4c1)" d="M 251.49006 288.430125 
L 252.465132 288.430125 
L 252.465132 288.430125 
L 251.49006 288.430125 
z
" style="fill:#1f77b4;"/>
   </g>
   <g id="patch_172">
    <path clip-path="url(#p169d78d4c1)" d="M 252.7089 288.430125 
L 253.683971 288.430125 
L 253.683971 288.430125 
L 252.7089 288.430125 
z
" style="fill:#1f77b4;"/>
   </g>
   <g id="patch_173">
    <path clip-path="url(#p169d78d4c1)" d="M 253.927739 288.430125 
L 254.902811 288.430125 
L 254.902811 288.430125 
L 253.927739 288.430125 
z
" style="fill:#1f77b4;"/>
   </g>
   <g id="patch_174">
    <path clip-path="url(#p169d78d4c1)" d="M 255.146579 288.430125 
L 256.121651 288.430125 
L 256.121651 288.430125 
L 255.146579 288.430125 
z
" style="fill:#1f77b4;"/>
   </g>
   <g id="patch_175">
    <path clip-path="url(#p169d78d4c1)" d="M 256.365419 288.430125 
L 257.34049 288.430125 
L 257.34049 288.430125 
L 256.365419 288.430125 
z
" style="fill:#1f77b4;"/>
   </g>
   <g id="patch_176">
    <path clip-path="url(#p169d78d4c1)" d="M 257.584258 288.430125 
L 258.55933 288.430125 
L 258.55933 288.430125 
L 257.584258 288.430125 
z
" style="fill:#1f77b4;"/>
   </g>
   <g id="patch_177">
    <path clip-path="url(#p169d78d4c1)" d="M 258.803098 288.430125 
L 259.778169 288.430125 
L 259.778169 288.430125 
L 258.803098 288.430125 
z
" style="fill:#1f77b4;"/>
   </g>
   <g id="patch_178">
    <path clip-path="url(#p169d78d4c1)" d="M 260.021937 288.430125 
L 260.997009 288.430125 
L 260.997009 288.430125 
L 260.021937 288.430125 
z
" style="fill:#1f77b4;"/>
   </g>
   <g id="patch_179">
    <path clip-path="url(#p169d78d4c1)" d="M 261.240777 288.430125 
L 262.215849 288.430125 
L 262.215849 288.430125 
L 261.240777 288.430125 
z
" style="fill:#1f77b4;"/>
   </g>
   <g id="patch_180">
    <path clip-path="url(#p169d78d4c1)" d="M 262.459616 288.430125 
L 263.434688 288.430125 
L 263.434688 288.430125 
L 262.459616 288.430125 
z
" style="fill:#1f77b4;"/>
   </g>
   <g id="patch_181">
    <path clip-path="url(#p169d78d4c1)" d="M 263.678456 288.430125 
L 264.653528 288.430125 
L 264.653528 288.430125 
L 263.678456 288.430125 
z
" style="fill:#1f77b4;"/>
   </g>
   <g id="patch_182">
    <path clip-path="url(#p169d78d4c1)" d="M 264.897296 288.430125 
L 265.872367 288.430125 
L 265.872367 288.430125 
L 264.897296 288.430125 
z
" style="fill:#1f77b4;"/>
   </g>
   <g id="patch_183">
    <path clip-path="url(#p169d78d4c1)" d="M 266.116135 288.430125 
L 267.091207 288.430125 
L 267.091207 288.430125 
L 266.116135 288.430125 
z
" style="fill:#1f77b4;"/>
   </g>
   <g id="patch_184">
    <path clip-path="url(#p169d78d4c1)" d="M 267.334975 288.430125 
L 268.310047 288.430125 
L 268.310047 288.430125 
L 267.334975 288.430125 
z
" style="fill:#1f77b4;"/>
   </g>
   <g id="patch_185">
    <path clip-path="url(#p169d78d4c1)" d="M 268.553814 288.430125 
L 269.528886 288.430125 
L 269.528886 288.430125 
L 268.553814 288.430125 
z
" style="fill:#1f77b4;"/>
   </g>
   <g id="patch_186">
    <path clip-path="url(#p169d78d4c1)" d="M 269.772654 288.430125 
L 270.747726 288.430125 
L 270.747726 288.430125 
L 269.772654 288.430125 
z
" style="fill:#1f77b4;"/>
   </g>
   <g id="patch_187">
    <path clip-path="url(#p169d78d4c1)" d="M 270.991494 288.430125 
L 271.966565 288.430125 
L 271.966565 288.430125 
L 270.991494 288.430125 
z
" style="fill:#1f77b4;"/>
   </g>
   <g id="patch_188">
    <path clip-path="url(#p169d78d4c1)" d="M 272.210333 288.430125 
L 273.185405 288.430125 
L 273.185405 288.430125 
L 272.210333 288.430125 
z
" style="fill:#1f77b4;"/>
   </g>
   <g id="patch_189">
    <path clip-path="url(#p169d78d4c1)" d="M 273.429173 288.430125 
L 274.404244 288.430125 
L 274.404244 288.430125 
L 273.429173 288.430125 
z
" style="fill:#1f77b4;"/>
   </g>
   <g id="patch_190">
    <path clip-path="url(#p169d78d4c1)" d="M 274.648012 288.430125 
L 275.623084 288.430125 
L 275.623084 288.430125 
L 274.648012 288.430125 
z
" style="fill:#1f77b4;"/>
   </g>
   <g id="patch_191">
    <path clip-path="url(#p169d78d4c1)" d="M 275.866852 288.430125 
L 276.841924 288.430125 
L 276.841924 288.430125 
L 275.866852 288.430125 
z
" style="fill:#1f77b4;"/>
   </g>
   <g id="patch_192">
    <path clip-path="url(#p169d78d4c1)" d="M 277.085692 288.430125 
L 278.060763 288.430125 
L 278.060763 288.430125 
L 277.085692 288.430125 
z
" style="fill:#1f77b4;"/>
   </g>
   <g id="patch_193">
    <path clip-path="url(#p169d78d4c1)" d="M 278.304531 288.430125 
L 279.279603 288.430125 
L 279.279603 288.430125 
L 278.304531 288.430125 
z
" style="fill:#1f77b4;"/>
   </g>
   <g id="patch_194">
    <path clip-path="url(#p169d78d4c1)" d="M 279.523371 288.430125 
L 280.498442 288.430125 
L 280.498442 288.430125 
L 279.523371 288.430125 
z
" style="fill:#1f77b4;"/>
   </g>
   <g id="patch_195">
    <path clip-path="url(#p169d78d4c1)" d="M 280.74221 288.430125 
L 281.717282 288.430125 
L 281.717282 288.430125 
L 280.74221 288.430125 
z
" style="fill:#1f77b4;"/>
   </g>
   <g id="patch_196">
    <path clip-path="url(#p169d78d4c1)" d="M 281.96105 288.430125 
L 282.936122 288.430125 
L 282.936122 288.430125 
L 281.96105 288.430125 
z
" style="fill:#1f77b4;"/>
   </g>
   <g id="patch_197">
    <path clip-path="url(#p169d78d4c1)" d="M 283.17989 288.430125 
L 284.154961 288.430125 
L 284.154961 288.430125 
L 283.17989 288.430125 
z
" style="fill:#1f77b4;"/>
   </g>
   <g id="patch_198">
    <path clip-path="url(#p169d78d4c1)" d="M 284.398729 288.430125 
L 285.373801 288.430125 
L 285.373801 288.430125 
L 284.398729 288.430125 
z
" style="fill:#1f77b4;"/>
   </g>
   <g id="patch_199">
    <path clip-path="url(#p169d78d4c1)" d="M 285.617569 288.430125 
L 286.59264 288.430125 
L 286.59264 288.430125 
L 285.617569 288.430125 
z
" style="fill:#1f77b4;"/>
   </g>
   <g id="patch_200">
    <path clip-path="url(#p169d78d4c1)" d="M 286.836408 288.430125 
L 287.81148 288.430125 
L 287.81148 288.430125 
L 286.836408 288.430125 
z
" style="fill:#1f77b4;"/>
   </g>
   <g id="patch_201">
    <path clip-path="url(#p169d78d4c1)" d="M 288.055248 288.430125 
L 289.03032 288.430125 
L 289.03032 288.430125 
L 288.055248 288.430125 
z
" style="fill:#1f77b4;"/>
   </g>
   <g id="patch_202">
    <path clip-path="url(#p169d78d4c1)" d="M 289.274087 288.430125 
L 290.249159 288.430125 
L 290.249159 288.430125 
L 289.274087 288.430125 
z
" style="fill:#1f77b4;"/>
   </g>
   <g id="patch_203">
    <path clip-path="url(#p169d78d4c1)" d="M 290.492927 288.430125 
L 291.467999 288.430125 
L 291.467999 288.430125 
L 290.492927 288.430125 
z
" style="fill:#1f77b4;"/>
   </g>
   <g id="patch_204">
    <path clip-path="url(#p169d78d4c1)" d="M 291.711767 288.430125 
L 292.686838 288.430125 
L 292.686838 288.430125 
L 291.711767 288.430125 
z
" style="fill:#1f77b4;"/>
   </g>
   <g id="patch_205">
    <path clip-path="url(#p169d78d4c1)" d="M 292.930606 288.430125 
L 293.905678 288.430125 
L 293.905678 288.430125 
L 292.930606 288.430125 
z
" style="fill:#1f77b4;"/>
   </g>
   <g id="patch_206">
    <path clip-path="url(#p169d78d4c1)" d="M 294.149446 288.430125 
L 295.124517 288.430125 
L 295.124517 288.430125 
L 294.149446 288.430125 
z
" style="fill:#1f77b4;"/>
   </g>
   <g id="patch_207">
    <path clip-path="url(#p169d78d4c1)" d="M 295.368285 288.430125 
L 296.343357 288.430125 
L 296.343357 288.430125 
L 295.368285 288.430125 
z
" style="fill:#1f77b4;"/>
   </g>
   <g id="patch_208">
    <path clip-path="url(#p169d78d4c1)" d="M 296.587125 288.430125 
L 297.562197 288.430125 
L 297.562197 288.430125 
L 296.587125 288.430125 
z
" style="fill:#1f77b4;"/>
   </g>
   <g id="patch_209">
    <path clip-path="url(#p169d78d4c1)" d="M 297.805965 288.430125 
L 298.781036 288.430125 
L 298.781036 288.430125 
L 297.805965 288.430125 
z
" style="fill:#1f77b4;"/>
   </g>
   <g id="patch_210">
    <path clip-path="url(#p169d78d4c1)" d="M 299.024804 288.430125 
L 299.999876 288.430125 
L 299.999876 288.430125 
L 299.024804 288.430125 
z
" style="fill:#1f77b4;"/>
   </g>
   <g id="patch_211">
    <path clip-path="url(#p169d78d4c1)" d="M 300.243644 288.430125 
L 301.218715 288.430125 
L 301.218715 288.430125 
L 300.243644 288.430125 
z
" style="fill:#1f77b4;"/>
   </g>
   <g id="patch_212">
    <path clip-path="url(#p169d78d4c1)" d="M 301.462483 288.430125 
L 302.437555 288.430125 
L 302.437555 288.430125 
L 301.462483 288.430125 
z
" style="fill:#1f77b4;"/>
   </g>
   <g id="patch_213">
    <path clip-path="url(#p169d78d4c1)" d="M 302.681323 288.430125 
L 303.656395 288.430125 
L 303.656395 281.038125 
L 302.681323 281.038125 
z
" style="fill:#1f77b4;"/>
   </g>
   <g id="patch_214">
    <path clip-path="url(#p169d78d4c1)" d="M 303.900163 288.430125 
L 304.875234 288.430125 
L 304.875234 288.430125 
L 303.900163 288.430125 
z
" style="fill:#1f77b4;"/>
   </g>
   <g id="patch_215">
    <path clip-path="url(#p169d78d4c1)" d="M 305.119002 288.430125 
L 306.094074 288.430125 
L 306.094074 288.430125 
L 305.119002 288.430125 
z
" style="fill:#1f77b4;"/>
   </g>
   <g id="patch_216">
    <path clip-path="url(#p169d78d4c1)" d="M 306.337842 288.430125 
L 307.312913 288.430125 
L 307.312913 288.430125 
L 306.337842 288.430125 
z
" style="fill:#1f77b4;"/>
   </g>
   <g id="patch_217">
    <path clip-path="url(#p169d78d4c1)" d="M 307.556681 288.430125 
L 308.531753 288.430125 
L 308.531753 288.430125 
L 307.556681 288.430125 
z
" style="fill:#1f77b4;"/>
   </g>
   <g id="patch_218">
    <path clip-path="url(#p169d78d4c1)" d="M 308.775521 288.430125 
L 309.750593 288.430125 
L 309.750593 288.430125 
L 308.775521 288.430125 
z
" style="fill:#1f77b4;"/>
   </g>
   <g id="patch_219">
    <path clip-path="url(#p169d78d4c1)" d="M 309.99436 288.430125 
L 310.969432 288.430125 
L 310.969432 288.430125 
L 309.99436 288.430125 
z
" style="fill:#1f77b4;"/>
   </g>
   <g id="patch_220">
    <path clip-path="url(#p169d78d4c1)" d="M 311.2132 288.430125 
L 312.188272 288.430125 
L 312.188272 288.430125 
L 311.2132 288.430125 
z
" style="fill:#1f77b4;"/>
   </g>
   <g id="patch_221">
    <path clip-path="url(#p169d78d4c1)" d="M 312.43204 288.430125 
L 313.407111 288.430125 
L 313.407111 281.038125 
L 312.43204 281.038125 
z
" style="fill:#1f77b4;"/>
   </g>
   <g id="patch_222">
    <path clip-path="url(#p169d78d4c1)" d="M 313.650879 288.430125 
L 314.625951 288.430125 
L 314.625951 288.430125 
L 313.650879 288.430125 
z
" style="fill:#1f77b4;"/>
   </g>
   <g id="patch_223">
    <path clip-path="url(#p169d78d4c1)" d="M 314.869719 288.430125 
L 315.844791 288.430125 
L 315.844791 273.646125 
L 314.869719 273.646125 
z
" style="fill:#1f77b4;"/>
   </g>
   <g id="patch_224">
    <path clip-path="url(#p169d78d4c1)" d="M 316.088558 288.430125 
L 317.06363 288.430125 
L 317.06363 288.430125 
L 316.088558 288.430125 
z
" style="fill:#1f77b4;"/>
   </g>
   <g id="patch_225">
    <path clip-path="url(#p169d78d4c1)" d="M 317.307398 288.430125 
L 318.28247 288.430125 
L 318.28247 288.430125 
L 317.307398 288.430125 
z
" style="fill:#1f77b4;"/>
   </g>
   <g id="patch_226">
    <path clip-path="url(#p169d78d4c1)" d="M 318.526238 288.430125 
L 319.501309 288.430125 
L 319.501309 288.430125 
L 318.526238 288.430125 
z
" style="fill:#1f77b4;"/>
   </g>
   <g id="patch_227">
    <path clip-path="url(#p169d78d4c1)" d="M 319.745077 288.430125 
L 320.720149 288.430125 
L 320.720149 288.430125 
L 319.745077 288.430125 
z
" style="fill:#1f77b4;"/>
   </g>
   <g id="patch_228">
    <path clip-path="url(#p169d78d4c1)" d="M 320.963917 288.430125 
L 321.938988 288.430125 
L 321.938988 266.254125 
L 320.963917 266.254125 
z
" style="fill:#1f77b4;"/>
   </g>
   <g id="patch_229">
    <path clip-path="url(#p169d78d4c1)" d="M 322.182756 288.430125 
L 323.157828 288.430125 
L 323.157828 281.038125 
L 322.182756 281.038125 
z
" style="fill:#1f77b4;"/>
   </g>
   <g id="patch_230">
    <path clip-path="url(#p169d78d4c1)" d="M 323.401596 288.430125 
L 324.376668 288.430125 
L 324.376668 258.862125 
L 323.401596 258.862125 
z
" style="fill:#1f77b4;"/>
   </g>
   <g id="patch_231">
    <path clip-path="url(#p169d78d4c1)" d="M 324.620436 288.430125 
L 325.595507 288.430125 
L 325.595507 273.646125 
L 324.620436 273.646125 
z
" style="fill:#1f77b4;"/>
   </g>
   <g id="patch_232">
    <path clip-path="url(#p169d78d4c1)" d="M 325.839275 288.430125 
L 326.814347 288.430125 
L 326.814347 273.646125 
L 325.839275 273.646125 
z
" style="fill:#1f77b4;"/>
   </g>
   <g id="patch_233">
    <path clip-path="url(#p169d78d4c1)" d="M 327.058115 288.430125 
L 328.033186 288.430125 
L 328.033186 258.862125 
L 327.058115 258.862125 
z
" style="fill:#1f77b4;"/>
   </g>
   <g id="patch_234">
    <path clip-path="url(#p169d78d4c1)" d="M 328.276954 288.430125 
L 329.252026 288.430125 
L 329.252026 266.254125 
L 328.276954 266.254125 
z
" style="fill:#1f77b4;"/>
   </g>
   <g id="patch_235">
    <path clip-path="url(#p169d78d4c1)" d="M 329.495794 288.430125 
L 330.470866 288.430125 
L 330.470866 258.862125 
L 329.495794 258.862125 
z
" style="fill:#1f77b4;"/>
   </g>
   <g id="patch_236">
    <path clip-path="url(#p169d78d4c1)" d="M 330.714634 288.430125 
L 331.689705 288.430125 
L 331.689705 281.038125 
L 330.714634 281.038125 
z
" style="fill:#1f77b4;"/>
   </g>
   <g id="patch_237">
    <path clip-path="url(#p169d78d4c1)" d="M 331.933473 288.430125 
L 332.908545 288.430125 
L 332.908545 273.646125 
L 331.933473 273.646125 
z
" style="fill:#1f77b4;"/>
   </g>
   <g id="patch_238">
    <path clip-path="url(#p169d78d4c1)" d="M 333.152313 288.430125 
L 334.127384 288.430125 
L 334.127384 258.862125 
L 333.152313 258.862125 
z
" style="fill:#1f77b4;"/>
   </g>
   <g id="patch_239">
    <path clip-path="url(#p169d78d4c1)" d="M 334.371152 288.430125 
L 335.346224 288.430125 
L 335.346224 258.862125 
L 334.371152 258.862125 
z
" style="fill:#1f77b4;"/>
   </g>
   <g id="patch_240">
    <path clip-path="url(#p169d78d4c1)" d="M 335.589992 288.430125 
L 336.565064 288.430125 
L 336.565064 236.686125 
L 335.589992 236.686125 
z
" style="fill:#1f77b4;"/>
   </g>
   <g id="patch_241">
    <path clip-path="url(#p169d78d4c1)" d="M 336.808831 288.430125 
L 337.783903 288.430125 
L 337.783903 258.862125 
L 336.808831 258.862125 
z
" style="fill:#1f77b4;"/>
   </g>
   <g id="patch_242">
    <path clip-path="url(#p169d78d4c1)" d="M 338.027671 288.430125 
L 339.002743 288.430125 
L 339.002743 258.862125 
L 338.027671 258.862125 
z
" style="fill:#1f77b4;"/>
   </g>
   <g id="patch_243">
    <path clip-path="url(#p169d78d4c1)" d="M 339.246511 288.430125 
L 340.221582 288.430125 
L 340.221582 251.470125 
L 339.246511 251.470125 
z
" style="fill:#1f77b4;"/>
   </g>
   <g id="patch_244">
    <path clip-path="url(#p169d78d4c1)" d="M 340.46535 288.430125 
L 341.440422 288.430125 
L 341.440422 221.902125 
L 340.46535 221.902125 
z
" style="fill:#1f77b4;"/>
   </g>
   <g id="patch_245">
    <path clip-path="url(#p169d78d4c1)" d="M 341.68419 288.430125 
L 342.659262 288.430125 
L 342.659262 244.078125 
L 341.68419 244.078125 
z
" style="fill:#1f77b4;"/>
   </g>
   <g id="patch_246">
    <path clip-path="url(#p169d78d4c1)" d="M 342.903029 288.430125 
L 343.878101 288.430125 
L 343.878101 221.902125 
L 342.903029 221.902125 
z
" style="fill:#1f77b4;"/>
   </g>
   <g id="patch_247">
    <path clip-path="url(#p169d78d4c1)" d="M 344.121869 288.430125 
L 345.096941 288.430125 
L 345.096941 251.470125 
L 344.121869 251.470125 
z
" style="fill:#1f77b4;"/>
   </g>
   <g id="patch_248">
    <path clip-path="url(#p169d78d4c1)" d="M 345.340709 288.430125 
L 346.31578 288.430125 
L 346.31578 147.982125 
L 345.340709 147.982125 
z
" style="fill:#1f77b4;"/>
   </g>
   <g id="patch_249">
    <path clip-path="url(#p169d78d4c1)" d="M 346.559548 288.430125 
L 347.53462 288.430125 
L 347.53462 236.686125 
L 346.559548 236.686125 
z
" style="fill:#1f77b4;"/>
   </g>
   <g id="patch_250">
    <path clip-path="url(#p169d78d4c1)" d="M 347.778388 288.430125 
L 348.753459 288.430125 
L 348.753459 221.902125 
L 347.778388 221.902125 
z
" style="fill:#1f77b4;"/>
   </g>
   <g id="patch_251">
    <path clip-path="url(#p169d78d4c1)" d="M 348.997227 288.430125 
L 349.972299 288.430125 
L 349.972299 207.118125 
L 348.997227 207.118125 
z
" style="fill:#1f77b4;"/>
   </g>
   <g id="patch_252">
    <path clip-path="url(#p169d78d4c1)" d="M 350.216067 288.430125 
L 351.191139 288.430125 
L 351.191139 192.334125 
L 350.216067 192.334125 
z
" style="fill:#1f77b4;"/>
   </g>
   <g id="patch_253">
    <path clip-path="url(#p169d78d4c1)" d="M 351.434907 288.430125 
L 352.409978 288.430125 
L 352.409978 229.294125 
L 351.434907 229.294125 
z
" style="fill:#1f77b4;"/>
   </g>
   <g id="patch_254">
    <path clip-path="url(#p169d78d4c1)" d="M 352.653746 288.430125 
L 353.628818 288.430125 
L 353.628818 170.158125 
L 352.653746 170.158125 
z
" style="fill:#1f77b4;"/>
   </g>
   <g id="patch_255">
    <path clip-path="url(#p169d78d4c1)" d="M 353.872586 288.430125 
L 354.847657 288.430125 
L 354.847657 236.686125 
L 353.872586 236.686125 
z
" style="fill:#1f77b4;"/>
   </g>
   <g id="patch_256">
    <path clip-path="url(#p169d78d4c1)" d="M 355.091425 288.430125 
L 356.066497 288.430125 
L 356.066497 251.470125 
L 355.091425 251.470125 
z
" style="fill:#1f77b4;"/>
   </g>
   <g id="patch_257">
    <path clip-path="url(#p169d78d4c1)" d="M 356.310265 288.430125 
L 357.285337 288.430125 
L 357.285337 170.158125 
L 356.310265 170.158125 
z
" style="fill:#1f77b4;"/>
   </g>
   <g id="patch_258">
    <path clip-path="url(#p169d78d4c1)" d="M 357.529105 288.430125 
L 358.504176 288.430125 
L 358.504176 229.294125 
L 357.529105 229.294125 
z
" style="fill:#1f77b4;"/>
   </g>
   <g id="patch_259">
    <path clip-path="url(#p169d78d4c1)" d="M 358.747944 288.430125 
L 359.723016 288.430125 
L 359.723016 207.118125 
L 358.747944 207.118125 
z
" style="fill:#1f77b4;"/>
   </g>
   <g id="patch_260">
    <path clip-path="url(#p169d78d4c1)" d="M 359.966784 288.430125 
L 360.941855 288.430125 
L 360.941855 207.118125 
L 359.966784 207.118125 
z
" style="fill:#1f77b4;"/>
   </g>
   <g id="patch_261">
    <path clip-path="url(#p169d78d4c1)" d="M 361.185623 288.430125 
L 362.160695 288.430125 
L 362.160695 266.254125 
L 361.185623 266.254125 
z
" style="fill:#1f77b4;"/>
   </g>
   <g id="patch_262">
    <path clip-path="url(#p169d78d4c1)" d="M 362.404463 288.430125 
L 363.379535 288.430125 
L 363.379535 236.686125 
L 362.404463 236.686125 
z
" style="fill:#1f77b4;"/>
   </g>
   <g id="patch_263">
    <path clip-path="url(#p169d78d4c1)" d="M 363.623302 288.430125 
L 364.598374 288.430125 
L 364.598374 281.038125 
L 363.623302 281.038125 
z
" style="fill:#1f77b4;"/>
   </g>
   <g id="patch_264">
    <path clip-path="url(#p169d78d4c1)" d="M 364.842142 288.430125 
L 365.817214 288.430125 
L 365.817214 258.862125 
L 364.842142 258.862125 
z
" style="fill:#1f77b4;"/>
   </g>
   <g id="patch_265">
    <path clip-path="url(#p169d78d4c1)" d="M 366.060982 288.430125 
L 367.036053 288.430125 
L 367.036053 236.686125 
L 366.060982 236.686125 
z
" style="fill:#1f77b4;"/>
   </g>
   <g id="patch_266">
    <path clip-path="url(#p169d78d4c1)" d="M 367.279821 288.430125 
L 368.254893 288.430125 
L 368.254893 170.158125 
L 367.279821 170.158125 
z
" style="fill:#1f77b4;"/>
   </g>
   <g id="patch_267">
    <path clip-path="url(#p169d78d4c1)" d="M 368.498661 288.430125 
L 369.473733 288.430125 
L 369.473733 207.118125 
L 368.498661 207.118125 
z
" style="fill:#1f77b4;"/>
   </g>
   <g id="patch_268">
    <path clip-path="url(#p169d78d4c1)" d="M 369.7175 288.430125 
L 370.692572 288.430125 
L 370.692572 266.254125 
L 369.7175 266.254125 
z
" style="fill:#1f77b4;"/>
   </g>
   <g id="patch_269">
    <path clip-path="url(#p169d78d4c1)" d="M 370.93634 288.430125 
L 371.911412 288.430125 
L 371.911412 244.078125 
L 370.93634 244.078125 
z
" style="fill:#1f77b4;"/>
   </g>
   <g id="patch_270">
    <path clip-path="url(#p169d78d4c1)" d="M 372.15518 288.430125 
L 373.130251 288.430125 
L 373.130251 251.470125 
L 372.15518 251.470125 
z
" style="fill:#1f77b4;"/>
   </g>
   <g id="patch_271">
    <path clip-path="url(#p169d78d4c1)" d="M 373.374019 288.430125 
L 374.349091 288.430125 
L 374.349091 207.118125 
L 373.374019 207.118125 
z
" style="fill:#1f77b4;"/>
   </g>
   <g id="patch_272">
    <path clip-path="url(#p169d78d4c1)" d="M 374.592859 288.430125 
L 375.56793 288.430125 
L 375.56793 214.510125 
L 374.592859 214.510125 
z
" style="fill:#1f77b4;"/>
   </g>
   <g id="patch_273">
    <path clip-path="url(#p169d78d4c1)" d="M 375.811698 288.430125 
L 376.78677 288.430125 
L 376.78677 229.294125 
L 375.811698 229.294125 
z
" style="fill:#1f77b4;"/>
   </g>
   <g id="patch_274">
    <path clip-path="url(#p169d78d4c1)" d="M 377.030538 288.430125 
L 378.00561 288.430125 
L 378.00561 162.766125 
L 377.030538 162.766125 
z
" style="fill:#1f77b4;"/>
   </g>
   <g id="patch_275">
    <path clip-path="url(#p169d78d4c1)" d="M 378.249378 288.430125 
L 379.224449 288.430125 
L 379.224449 251.470125 
L 378.249378 251.470125 
z
" style="fill:#1f77b4;"/>
   </g>
   <g id="patch_276">
    <path clip-path="url(#p169d78d4c1)" d="M 379.468217 288.430125 
L 380.443289 288.430125 
L 380.443289 258.862125 
L 379.468217 258.862125 
z
" style="fill:#1f77b4;"/>
   </g>
   <g id="patch_277">
    <path clip-path="url(#p169d78d4c1)" d="M 380.687057 288.430125 
L 381.662128 288.430125 
L 381.662128 221.902125 
L 380.687057 221.902125 
z
" style="fill:#1f77b4;"/>
   </g>
   <g id="patch_278">
    <path clip-path="url(#p169d78d4c1)" d="M 381.905896 288.430125 
L 382.880968 288.430125 
L 382.880968 214.510125 
L 381.905896 214.510125 
z
" style="fill:#1f77b4;"/>
   </g>
   <g id="patch_279">
    <path clip-path="url(#p169d78d4c1)" d="M 383.124736 288.430125 
L 384.099808 288.430125 
L 384.099808 207.118125 
L 383.124736 207.118125 
z
" style="fill:#1f77b4;"/>
   </g>
   <g id="patch_280">
    <path clip-path="url(#p169d78d4c1)" d="M 384.343576 288.430125 
L 385.318647 288.430125 
L 385.318647 251.470125 
L 384.343576 251.470125 
z
" style="fill:#1f77b4;"/>
   </g>
   <g id="patch_281">
    <path clip-path="url(#p169d78d4c1)" d="M 385.562415 288.430125 
L 386.537487 288.430125 
L 386.537487 244.078125 
L 385.562415 244.078125 
z
" style="fill:#1f77b4;"/>
   </g>
   <g id="patch_282">
    <path clip-path="url(#p169d78d4c1)" d="M 386.781255 288.430125 
L 387.756326 288.430125 
L 387.756326 229.294125 
L 386.781255 229.294125 
z
" style="fill:#1f77b4;"/>
   </g>
   <g id="patch_283">
    <path clip-path="url(#p169d78d4c1)" d="M 388.000094 288.430125 
L 388.975166 288.430125 
L 388.975166 266.254125 
L 388.000094 266.254125 
z
" style="fill:#1f77b4;"/>
   </g>
   <g id="patch_284">
    <path clip-path="url(#p169d78d4c1)" d="M 389.218934 288.430125 
L 390.194006 288.430125 
L 390.194006 273.646125 
L 389.218934 273.646125 
z
" style="fill:#1f77b4;"/>
   </g>
   <g id="patch_285">
    <path clip-path="url(#p169d78d4c1)" d="M 390.437773 288.430125 
L 391.412845 288.430125 
L 391.412845 244.078125 
L 390.437773 244.078125 
z
" style="fill:#1f77b4;"/>
   </g>
   <g id="patch_286">
    <path clip-path="url(#p169d78d4c1)" d="M 391.656613 288.430125 
L 392.631685 288.430125 
L 392.631685 281.038125 
L 391.656613 281.038125 
z
" style="fill:#1f77b4;"/>
   </g>
   <g id="patch_287">
    <path clip-path="url(#p169d78d4c1)" d="M 392.875453 288.430125 
L 393.850524 288.430125 
L 393.850524 251.470125 
L 392.875453 251.470125 
z
" style="fill:#1f77b4;"/>
   </g>
   <g id="patch_288">
    <path clip-path="url(#p169d78d4c1)" d="M 394.094292 288.430125 
L 395.069364 288.430125 
L 395.069364 236.686125 
L 394.094292 236.686125 
z
" style="fill:#1f77b4;"/>
   </g>
   <g id="patch_289">
    <path clip-path="url(#p169d78d4c1)" d="M 395.313132 288.430125 
L 396.288203 288.430125 
L 396.288203 236.686125 
L 395.313132 236.686125 
z
" style="fill:#1f77b4;"/>
   </g>
   <g id="patch_290">
    <path clip-path="url(#p169d78d4c1)" d="M 396.531971 288.430125 
L 397.507043 288.430125 
L 397.507043 273.646125 
L 396.531971 273.646125 
z
" style="fill:#1f77b4;"/>
   </g>
   <g id="patch_291">
    <path clip-path="url(#p169d78d4c1)" d="M 397.750811 288.430125 
L 398.725883 288.430125 
L 398.725883 273.646125 
L 397.750811 273.646125 
z
" style="fill:#1f77b4;"/>
   </g>
   <g id="patch_292">
    <path clip-path="url(#p169d78d4c1)" d="M 398.969651 288.430125 
L 399.944722 288.430125 
L 399.944722 236.686125 
L 398.969651 236.686125 
z
" style="fill:#1f77b4;"/>
   </g>
   <g id="patch_293">
    <path clip-path="url(#p169d78d4c1)" d="M 400.18849 288.430125 
L 401.163562 288.430125 
L 401.163562 273.646125 
L 400.18849 273.646125 
z
" style="fill:#1f77b4;"/>
   </g>
   <g id="patch_294">
    <path clip-path="url(#p169d78d4c1)" d="M 401.40733 288.430125 
L 402.382401 288.430125 
L 402.382401 229.294125 
L 401.40733 229.294125 
z
" style="fill:#1f77b4;"/>
   </g>
   <g id="patch_295">
    <path clip-path="url(#p169d78d4c1)" d="M 402.626169 288.430125 
L 403.601241 288.430125 
L 403.601241 266.254125 
L 402.626169 266.254125 
z
" style="fill:#1f77b4;"/>
   </g>
   <g id="matplotlib.axis_1">
    <g id="xtick_1">
     <g id="line2d_1">
      <defs>
       <path d="M 0 0 
L 0 3.5 
" id="m369f972645" style="stroke:#000000;stroke-width:0.8;"/>
      </defs>
      <g>
       <use style="stroke:#000000;stroke-width:0.8;" x="67.932818" xlink:href="#m369f972645" y="288.430125"/>
      </g>
     </g>
     <g id="text_1">
      <!-- 2020-04 -->
      <g transform="translate(70.692193 337.212937)rotate(-90)scale(0.1 -0.1)">
       <defs>
        <path d="M 19.1875 8.296875 
L 53.609375 8.296875 
L 53.609375 0 
L 7.328125 0 
L 7.328125 8.296875 
Q 12.9375 14.109375 22.625 23.890625 
Q 32.328125 33.6875 34.8125 36.53125 
Q 39.546875 41.84375 41.421875 45.53125 
Q 43.3125 49.21875 43.3125 52.78125 
Q 43.3125 58.59375 39.234375 62.25 
Q 35.15625 65.921875 28.609375 65.921875 
Q 23.96875 65.921875 18.8125 64.3125 
Q 13.671875 62.703125 7.8125 59.421875 
L 7.8125 69.390625 
Q 13.765625 71.78125 18.9375 73 
Q 24.125 74.21875 28.421875 74.21875 
Q 39.75 74.21875 46.484375 68.546875 
Q 53.21875 62.890625 53.21875 53.421875 
Q 53.21875 48.921875 51.53125 44.890625 
Q 49.859375 40.875 45.40625 35.40625 
Q 44.1875 33.984375 37.640625 27.21875 
Q 31.109375 20.453125 19.1875 8.296875 
z
" id="DejaVuSans-50"/>
        <path d="M 31.78125 66.40625 
Q 24.171875 66.40625 20.328125 58.90625 
Q 16.5 51.421875 16.5 36.375 
Q 16.5 21.390625 20.328125 13.890625 
Q 24.171875 6.390625 31.78125 6.390625 
Q 39.453125 6.390625 43.28125 13.890625 
Q 47.125 21.390625 47.125 36.375 
Q 47.125 51.421875 43.28125 58.90625 
Q 39.453125 66.40625 31.78125 66.40625 
z
M 31.78125 74.21875 
Q 44.046875 74.21875 50.515625 64.515625 
Q 56.984375 54.828125 56.984375 36.375 
Q 56.984375 17.96875 50.515625 8.265625 
Q 44.046875 -1.421875 31.78125 -1.421875 
Q 19.53125 -1.421875 13.0625 8.265625 
Q 6.59375 17.96875 6.59375 36.375 
Q 6.59375 54.828125 13.0625 64.515625 
Q 19.53125 74.21875 31.78125 74.21875 
z
" id="DejaVuSans-48"/>
        <path d="M 4.890625 31.390625 
L 31.203125 31.390625 
L 31.203125 23.390625 
L 4.890625 23.390625 
z
" id="DejaVuSans-45"/>
        <path d="M 37.796875 64.3125 
L 12.890625 25.390625 
L 37.796875 25.390625 
z
M 35.203125 72.90625 
L 47.609375 72.90625 
L 47.609375 25.390625 
L 58.015625 25.390625 
L 58.015625 17.1875 
L 47.609375 17.1875 
L 47.609375 0 
L 37.796875 0 
L 37.796875 17.1875 
L 4.890625 17.1875 
L 4.890625 26.703125 
z
" id="DejaVuSans-52"/>
       </defs>
       <use xlink:href="#DejaVuSans-50"/>
       <use x="63.623047" xlink:href="#DejaVuSans-48"/>
       <use x="127.246094" xlink:href="#DejaVuSans-50"/>
       <use x="190.869141" xlink:href="#DejaVuSans-48"/>
       <use x="254.492188" xlink:href="#DejaVuSans-45"/>
       <use x="290.576172" xlink:href="#DejaVuSans-48"/>
       <use x="354.199219" xlink:href="#DejaVuSans-52"/>
      </g>
     </g>
    </g>
    <g id="xtick_2">
     <g id="line2d_2">
      <g>
       <use style="stroke:#000000;stroke-width:0.8;" x="104.498006" xlink:href="#m369f972645" y="288.430125"/>
      </g>
     </g>
     <g id="text_2">
      <!-- 2020-05 -->
      <g transform="translate(107.257381 337.212937)rotate(-90)scale(0.1 -0.1)">
       <defs>
        <path d="M 10.796875 72.90625 
L 49.515625 72.90625 
L 49.515625 64.59375 
L 19.828125 64.59375 
L 19.828125 46.734375 
Q 21.96875 47.46875 24.109375 47.828125 
Q 26.265625 48.1875 28.421875 48.1875 
Q 40.625 48.1875 47.75 41.5 
Q 54.890625 34.8125 54.890625 23.390625 
Q 54.890625 11.625 47.5625 5.09375 
Q 40.234375 -1.421875 26.90625 -1.421875 
Q 22.3125 -1.421875 17.546875 -0.640625 
Q 12.796875 0.140625 7.71875 1.703125 
L 7.71875 11.625 
Q 12.109375 9.234375 16.796875 8.0625 
Q 21.484375 6.890625 26.703125 6.890625 
Q 35.15625 6.890625 40.078125 11.328125 
Q 45.015625 15.765625 45.015625 23.390625 
Q 45.015625 31 40.078125 35.4375 
Q 35.15625 39.890625 26.703125 39.890625 
Q 22.75 39.890625 18.8125 39.015625 
Q 14.890625 38.140625 10.796875 36.28125 
z
" id="DejaVuSans-53"/>
       </defs>
       <use xlink:href="#DejaVuSans-50"/>
       <use x="63.623047" xlink:href="#DejaVuSans-48"/>
       <use x="127.246094" xlink:href="#DejaVuSans-50"/>
       <use x="190.869141" xlink:href="#DejaVuSans-48"/>
       <use x="254.492188" xlink:href="#DejaVuSans-45"/>
       <use x="290.576172" xlink:href="#DejaVuSans-48"/>
       <use x="354.199219" xlink:href="#DejaVuSans-53"/>
      </g>
     </g>
    </g>
    <g id="xtick_3">
     <g id="line2d_3">
      <g>
       <use style="stroke:#000000;stroke-width:0.8;" x="142.282033" xlink:href="#m369f972645" y="288.430125"/>
      </g>
     </g>
     <g id="text_3">
      <!-- 2020-06 -->
      <g transform="translate(145.041408 337.212937)rotate(-90)scale(0.1 -0.1)">
       <defs>
        <path d="M 33.015625 40.375 
Q 26.375 40.375 22.484375 35.828125 
Q 18.609375 31.296875 18.609375 23.390625 
Q 18.609375 15.53125 22.484375 10.953125 
Q 26.375 6.390625 33.015625 6.390625 
Q 39.65625 6.390625 43.53125 10.953125 
Q 47.40625 15.53125 47.40625 23.390625 
Q 47.40625 31.296875 43.53125 35.828125 
Q 39.65625 40.375 33.015625 40.375 
z
M 52.59375 71.296875 
L 52.59375 62.3125 
Q 48.875 64.0625 45.09375 64.984375 
Q 41.3125 65.921875 37.59375 65.921875 
Q 27.828125 65.921875 22.671875 59.328125 
Q 17.53125 52.734375 16.796875 39.40625 
Q 19.671875 43.65625 24.015625 45.921875 
Q 28.375 48.1875 33.59375 48.1875 
Q 44.578125 48.1875 50.953125 41.515625 
Q 57.328125 34.859375 57.328125 23.390625 
Q 57.328125 12.15625 50.6875 5.359375 
Q 44.046875 -1.421875 33.015625 -1.421875 
Q 20.359375 -1.421875 13.671875 8.265625 
Q 6.984375 17.96875 6.984375 36.375 
Q 6.984375 53.65625 15.1875 63.9375 
Q 23.390625 74.21875 37.203125 74.21875 
Q 40.921875 74.21875 44.703125 73.484375 
Q 48.484375 72.75 52.59375 71.296875 
z
" id="DejaVuSans-54"/>
       </defs>
       <use xlink:href="#DejaVuSans-50"/>
       <use x="63.623047" xlink:href="#DejaVuSans-48"/>
       <use x="127.246094" xlink:href="#DejaVuSans-50"/>
       <use x="190.869141" xlink:href="#DejaVuSans-48"/>
       <use x="254.492188" xlink:href="#DejaVuSans-45"/>
       <use x="290.576172" xlink:href="#DejaVuSans-48"/>
       <use x="354.199219" xlink:href="#DejaVuSans-54"/>
      </g>
     </g>
    </g>
    <g id="xtick_4">
     <g id="line2d_4">
      <g>
       <use style="stroke:#000000;stroke-width:0.8;" x="178.847221" xlink:href="#m369f972645" y="288.430125"/>
      </g>
     </g>
     <g id="text_4">
      <!-- 2020-07 -->
      <g transform="translate(181.606596 337.212937)rotate(-90)scale(0.1 -0.1)">
       <defs>
        <path d="M 8.203125 72.90625 
L 55.078125 72.90625 
L 55.078125 68.703125 
L 28.609375 0 
L 18.3125 0 
L 43.21875 64.59375 
L 8.203125 64.59375 
z
" id="DejaVuSans-55"/>
       </defs>
       <use xlink:href="#DejaVuSans-50"/>
       <use x="63.623047" xlink:href="#DejaVuSans-48"/>
       <use x="127.246094" xlink:href="#DejaVuSans-50"/>
       <use x="190.869141" xlink:href="#DejaVuSans-48"/>
       <use x="254.492188" xlink:href="#DejaVuSans-45"/>
       <use x="290.576172" xlink:href="#DejaVuSans-48"/>
       <use x="354.199219" xlink:href="#DejaVuSans-55"/>
      </g>
     </g>
    </g>
    <g id="xtick_5">
     <g id="line2d_5">
      <g>
       <use style="stroke:#000000;stroke-width:0.8;" x="216.631248" xlink:href="#m369f972645" y="288.430125"/>
      </g>
     </g>
     <g id="text_5">
      <!-- 2020-08 -->
      <g transform="translate(219.390623 337.212937)rotate(-90)scale(0.1 -0.1)">
       <defs>
        <path d="M 31.78125 34.625 
Q 24.75 34.625 20.71875 30.859375 
Q 16.703125 27.09375 16.703125 20.515625 
Q 16.703125 13.921875 20.71875 10.15625 
Q 24.75 6.390625 31.78125 6.390625 
Q 38.8125 6.390625 42.859375 10.171875 
Q 46.921875 13.96875 46.921875 20.515625 
Q 46.921875 27.09375 42.890625 30.859375 
Q 38.875 34.625 31.78125 34.625 
z
M 21.921875 38.8125 
Q 15.578125 40.375 12.03125 44.71875 
Q 8.5 49.078125 8.5 55.328125 
Q 8.5 64.0625 14.71875 69.140625 
Q 20.953125 74.21875 31.78125 74.21875 
Q 42.671875 74.21875 48.875 69.140625 
Q 55.078125 64.0625 55.078125 55.328125 
Q 55.078125 49.078125 51.53125 44.71875 
Q 48 40.375 41.703125 38.8125 
Q 48.828125 37.15625 52.796875 32.3125 
Q 56.78125 27.484375 56.78125 20.515625 
Q 56.78125 9.90625 50.3125 4.234375 
Q 43.84375 -1.421875 31.78125 -1.421875 
Q 19.734375 -1.421875 13.25 4.234375 
Q 6.78125 9.90625 6.78125 20.515625 
Q 6.78125 27.484375 10.78125 32.3125 
Q 14.796875 37.15625 21.921875 38.8125 
z
M 18.3125 54.390625 
Q 18.3125 48.734375 21.84375 45.5625 
Q 25.390625 42.390625 31.78125 42.390625 
Q 38.140625 42.390625 41.71875 45.5625 
Q 45.3125 48.734375 45.3125 54.390625 
Q 45.3125 60.0625 41.71875 63.234375 
Q 38.140625 66.40625 31.78125 66.40625 
Q 25.390625 66.40625 21.84375 63.234375 
Q 18.3125 60.0625 18.3125 54.390625 
z
" id="DejaVuSans-56"/>
       </defs>
       <use xlink:href="#DejaVuSans-50"/>
       <use x="63.623047" xlink:href="#DejaVuSans-48"/>
       <use x="127.246094" xlink:href="#DejaVuSans-50"/>
       <use x="190.869141" xlink:href="#DejaVuSans-48"/>
       <use x="254.492188" xlink:href="#DejaVuSans-45"/>
       <use x="290.576172" xlink:href="#DejaVuSans-48"/>
       <use x="354.199219" xlink:href="#DejaVuSans-56"/>
      </g>
     </g>
    </g>
    <g id="xtick_6">
     <g id="line2d_6">
      <g>
       <use style="stroke:#000000;stroke-width:0.8;" x="254.415275" xlink:href="#m369f972645" y="288.430125"/>
      </g>
     </g>
     <g id="text_6">
      <!-- 2020-09 -->
      <g transform="translate(257.17465 337.212937)rotate(-90)scale(0.1 -0.1)">
       <defs>
        <path d="M 10.984375 1.515625 
L 10.984375 10.5 
Q 14.703125 8.734375 18.5 7.8125 
Q 22.3125 6.890625 25.984375 6.890625 
Q 35.75 6.890625 40.890625 13.453125 
Q 46.046875 20.015625 46.78125 33.40625 
Q 43.953125 29.203125 39.59375 26.953125 
Q 35.25 24.703125 29.984375 24.703125 
Q 19.046875 24.703125 12.671875 31.3125 
Q 6.296875 37.9375 6.296875 49.421875 
Q 6.296875 60.640625 12.9375 67.421875 
Q 19.578125 74.21875 30.609375 74.21875 
Q 43.265625 74.21875 49.921875 64.515625 
Q 56.59375 54.828125 56.59375 36.375 
Q 56.59375 19.140625 48.40625 8.859375 
Q 40.234375 -1.421875 26.421875 -1.421875 
Q 22.703125 -1.421875 18.890625 -0.6875 
Q 15.09375 0.046875 10.984375 1.515625 
z
M 30.609375 32.421875 
Q 37.25 32.421875 41.125 36.953125 
Q 45.015625 41.5 45.015625 49.421875 
Q 45.015625 57.28125 41.125 61.84375 
Q 37.25 66.40625 30.609375 66.40625 
Q 23.96875 66.40625 20.09375 61.84375 
Q 16.21875 57.28125 16.21875 49.421875 
Q 16.21875 41.5 20.09375 36.953125 
Q 23.96875 32.421875 30.609375 32.421875 
z
" id="DejaVuSans-57"/>
       </defs>
       <use xlink:href="#DejaVuSans-50"/>
       <use x="63.623047" xlink:href="#DejaVuSans-48"/>
       <use x="127.246094" xlink:href="#DejaVuSans-50"/>
       <use x="190.869141" xlink:href="#DejaVuSans-48"/>
       <use x="254.492188" xlink:href="#DejaVuSans-45"/>
       <use x="290.576172" xlink:href="#DejaVuSans-48"/>
       <use x="354.199219" xlink:href="#DejaVuSans-57"/>
      </g>
     </g>
    </g>
    <g id="xtick_7">
     <g id="line2d_7">
      <g>
       <use style="stroke:#000000;stroke-width:0.8;" x="290.980463" xlink:href="#m369f972645" y="288.430125"/>
      </g>
     </g>
     <g id="text_7">
      <!-- 2020-10 -->
      <g transform="translate(293.739838 337.212937)rotate(-90)scale(0.1 -0.1)">
       <defs>
        <path d="M 12.40625 8.296875 
L 28.515625 8.296875 
L 28.515625 63.921875 
L 10.984375 60.40625 
L 10.984375 69.390625 
L 28.421875 72.90625 
L 38.28125 72.90625 
L 38.28125 8.296875 
L 54.390625 8.296875 
L 54.390625 0 
L 12.40625 0 
z
" id="DejaVuSans-49"/>
       </defs>
       <use xlink:href="#DejaVuSans-50"/>
       <use x="63.623047" xlink:href="#DejaVuSans-48"/>
       <use x="127.246094" xlink:href="#DejaVuSans-50"/>
       <use x="190.869141" xlink:href="#DejaVuSans-48"/>
       <use x="254.492188" xlink:href="#DejaVuSans-45"/>
       <use x="290.576172" xlink:href="#DejaVuSans-49"/>
       <use x="354.199219" xlink:href="#DejaVuSans-48"/>
      </g>
     </g>
    </g>
    <g id="xtick_8">
     <g id="line2d_8">
      <g>
       <use style="stroke:#000000;stroke-width:0.8;" x="328.76449" xlink:href="#m369f972645" y="288.430125"/>
      </g>
     </g>
     <g id="text_8">
      <!-- 2020-11 -->
      <g transform="translate(331.523865 337.212937)rotate(-90)scale(0.1 -0.1)">
       <use xlink:href="#DejaVuSans-50"/>
       <use x="63.623047" xlink:href="#DejaVuSans-48"/>
       <use x="127.246094" xlink:href="#DejaVuSans-50"/>
       <use x="190.869141" xlink:href="#DejaVuSans-48"/>
       <use x="254.492188" xlink:href="#DejaVuSans-45"/>
       <use x="290.576172" xlink:href="#DejaVuSans-49"/>
       <use x="354.199219" xlink:href="#DejaVuSans-49"/>
      </g>
     </g>
    </g>
    <g id="xtick_9">
     <g id="line2d_9">
      <g>
       <use style="stroke:#000000;stroke-width:0.8;" x="365.329678" xlink:href="#m369f972645" y="288.430125"/>
      </g>
     </g>
     <g id="text_9">
      <!-- 2020-12 -->
      <g transform="translate(368.089053 337.212937)rotate(-90)scale(0.1 -0.1)">
       <use xlink:href="#DejaVuSans-50"/>
       <use x="63.623047" xlink:href="#DejaVuSans-48"/>
       <use x="127.246094" xlink:href="#DejaVuSans-50"/>
       <use x="190.869141" xlink:href="#DejaVuSans-48"/>
       <use x="254.492188" xlink:href="#DejaVuSans-45"/>
       <use x="290.576172" xlink:href="#DejaVuSans-49"/>
       <use x="354.199219" xlink:href="#DejaVuSans-50"/>
      </g>
     </g>
    </g>
    <g id="xtick_10">
     <g id="line2d_10">
      <g>
       <use style="stroke:#000000;stroke-width:0.8;" x="403.113705" xlink:href="#m369f972645" y="288.430125"/>
      </g>
     </g>
     <g id="text_10">
      <!-- 2021-01 -->
      <g transform="translate(405.87308 337.212937)rotate(-90)scale(0.1 -0.1)">
       <use xlink:href="#DejaVuSans-50"/>
       <use x="63.623047" xlink:href="#DejaVuSans-48"/>
       <use x="127.246094" xlink:href="#DejaVuSans-50"/>
       <use x="190.869141" xlink:href="#DejaVuSans-49"/>
       <use x="254.492188" xlink:href="#DejaVuSans-45"/>
       <use x="290.576172" xlink:href="#DejaVuSans-48"/>
       <use x="354.199219" xlink:href="#DejaVuSans-49"/>
      </g>
     </g>
    </g>
    <g id="text_11">
     <!-- date -->
     <g transform="translate(213.888125 354.811375)scale(0.1 -0.1)">
      <defs>
       <path d="M 45.40625 46.390625 
L 45.40625 75.984375 
L 54.390625 75.984375 
L 54.390625 0 
L 45.40625 0 
L 45.40625 8.203125 
Q 42.578125 3.328125 38.25 0.953125 
Q 33.9375 -1.421875 27.875 -1.421875 
Q 17.96875 -1.421875 11.734375 6.484375 
Q 5.515625 14.40625 5.515625 27.296875 
Q 5.515625 40.1875 11.734375 48.09375 
Q 17.96875 56 27.875 56 
Q 33.9375 56 38.25 53.625 
Q 42.578125 51.265625 45.40625 46.390625 
z
M 14.796875 27.296875 
Q 14.796875 17.390625 18.875 11.75 
Q 22.953125 6.109375 30.078125 6.109375 
Q 37.203125 6.109375 41.296875 11.75 
Q 45.40625 17.390625 45.40625 27.296875 
Q 45.40625 37.203125 41.296875 42.84375 
Q 37.203125 48.484375 30.078125 48.484375 
Q 22.953125 48.484375 18.875 42.84375 
Q 14.796875 37.203125 14.796875 27.296875 
z
" id="DejaVuSans-100"/>
       <path d="M 34.28125 27.484375 
Q 23.390625 27.484375 19.1875 25 
Q 14.984375 22.515625 14.984375 16.5 
Q 14.984375 11.71875 18.140625 8.90625 
Q 21.296875 6.109375 26.703125 6.109375 
Q 34.1875 6.109375 38.703125 11.40625 
Q 43.21875 16.703125 43.21875 25.484375 
L 43.21875 27.484375 
z
M 52.203125 31.203125 
L 52.203125 0 
L 43.21875 0 
L 43.21875 8.296875 
Q 40.140625 3.328125 35.546875 0.953125 
Q 30.953125 -1.421875 24.3125 -1.421875 
Q 15.921875 -1.421875 10.953125 3.296875 
Q 6 8.015625 6 15.921875 
Q 6 25.140625 12.171875 29.828125 
Q 18.359375 34.515625 30.609375 34.515625 
L 43.21875 34.515625 
L 43.21875 35.40625 
Q 43.21875 41.609375 39.140625 45 
Q 35.0625 48.390625 27.6875 48.390625 
Q 23 48.390625 18.546875 47.265625 
Q 14.109375 46.140625 10.015625 43.890625 
L 10.015625 52.203125 
Q 14.9375 54.109375 19.578125 55.046875 
Q 24.21875 56 28.609375 56 
Q 40.484375 56 46.34375 49.84375 
Q 52.203125 43.703125 52.203125 31.203125 
z
" id="DejaVuSans-97"/>
       <path d="M 18.3125 70.21875 
L 18.3125 54.6875 
L 36.8125 54.6875 
L 36.8125 47.703125 
L 18.3125 47.703125 
L 18.3125 18.015625 
Q 18.3125 11.328125 20.140625 9.421875 
Q 21.96875 7.515625 27.59375 7.515625 
L 36.8125 7.515625 
L 36.8125 0 
L 27.59375 0 
Q 17.1875 0 13.234375 3.875 
Q 9.28125 7.765625 9.28125 18.015625 
L 9.28125 47.703125 
L 2.6875 47.703125 
L 2.6875 54.6875 
L 9.28125 54.6875 
L 9.28125 70.21875 
z
" id="DejaVuSans-116"/>
       <path d="M 56.203125 29.59375 
L 56.203125 25.203125 
L 14.890625 25.203125 
Q 15.484375 15.921875 20.484375 11.0625 
Q 25.484375 6.203125 34.421875 6.203125 
Q 39.59375 6.203125 44.453125 7.46875 
Q 49.3125 8.734375 54.109375 11.28125 
L 54.109375 2.78125 
Q 49.265625 0.734375 44.1875 -0.34375 
Q 39.109375 -1.421875 33.890625 -1.421875 
Q 20.796875 -1.421875 13.15625 6.1875 
Q 5.515625 13.8125 5.515625 26.8125 
Q 5.515625 40.234375 12.765625 48.109375 
Q 20.015625 56 32.328125 56 
Q 43.359375 56 49.78125 48.890625 
Q 56.203125 41.796875 56.203125 29.59375 
z
M 47.21875 32.234375 
Q 47.125 39.59375 43.09375 43.984375 
Q 39.0625 48.390625 32.421875 48.390625 
Q 24.90625 48.390625 20.390625 44.140625 
Q 15.875 39.890625 15.1875 32.171875 
z
" id="DejaVuSans-101"/>
      </defs>
      <use xlink:href="#DejaVuSans-100"/>
      <use x="63.476562" xlink:href="#DejaVuSans-97"/>
      <use x="124.755859" xlink:href="#DejaVuSans-116"/>
      <use x="163.964844" xlink:href="#DejaVuSans-101"/>
     </g>
    </g>
   </g>
   <g id="matplotlib.axis_2">
    <g id="ytick_1">
     <g id="line2d_11">
      <defs>
       <path d="M 0 0 
L -3.5 0 
" id="mee166d6bd2" style="stroke:#000000;stroke-width:0.8;"/>
      </defs>
      <g>
       <use style="stroke:#000000;stroke-width:0.8;" x="46.603125" xlink:href="#mee166d6bd2" y="288.430125"/>
      </g>
     </g>
     <g id="text_12">
      <!-- 0 -->
      <g transform="translate(33.240625 292.229344)scale(0.1 -0.1)">
       <use xlink:href="#DejaVuSans-48"/>
      </g>
     </g>
    </g>
    <g id="ytick_2">
     <g id="line2d_12">
      <g>
       <use style="stroke:#000000;stroke-width:0.8;" x="46.603125" xlink:href="#mee166d6bd2" y="251.470125"/>
      </g>
     </g>
     <g id="text_13">
      <!-- 5 -->
      <g transform="translate(33.240625 255.269344)scale(0.1 -0.1)">
       <use xlink:href="#DejaVuSans-53"/>
      </g>
     </g>
    </g>
    <g id="ytick_3">
     <g id="line2d_13">
      <g>
       <use style="stroke:#000000;stroke-width:0.8;" x="46.603125" xlink:href="#mee166d6bd2" y="214.510125"/>
      </g>
     </g>
     <g id="text_14">
      <!-- 10 -->
      <g transform="translate(26.878125 218.309344)scale(0.1 -0.1)">
       <use xlink:href="#DejaVuSans-49"/>
       <use x="63.623047" xlink:href="#DejaVuSans-48"/>
      </g>
     </g>
    </g>
    <g id="ytick_4">
     <g id="line2d_14">
      <g>
       <use style="stroke:#000000;stroke-width:0.8;" x="46.603125" xlink:href="#mee166d6bd2" y="177.550125"/>
      </g>
     </g>
     <g id="text_15">
      <!-- 15 -->
      <g transform="translate(26.878125 181.349344)scale(0.1 -0.1)">
       <use xlink:href="#DejaVuSans-49"/>
       <use x="63.623047" xlink:href="#DejaVuSans-53"/>
      </g>
     </g>
    </g>
    <g id="ytick_5">
     <g id="line2d_15">
      <g>
       <use style="stroke:#000000;stroke-width:0.8;" x="46.603125" xlink:href="#mee166d6bd2" y="140.590125"/>
      </g>
     </g>
     <g id="text_16">
      <!-- 20 -->
      <g transform="translate(26.878125 144.389344)scale(0.1 -0.1)">
       <use xlink:href="#DejaVuSans-50"/>
       <use x="63.623047" xlink:href="#DejaVuSans-48"/>
      </g>
     </g>
    </g>
    <g id="ytick_6">
     <g id="line2d_16">
      <g>
       <use style="stroke:#000000;stroke-width:0.8;" x="46.603125" xlink:href="#mee166d6bd2" y="103.630125"/>
      </g>
     </g>
     <g id="text_17">
      <!-- 25 -->
      <g transform="translate(26.878125 107.429344)scale(0.1 -0.1)">
       <use xlink:href="#DejaVuSans-50"/>
       <use x="63.623047" xlink:href="#DejaVuSans-53"/>
      </g>
     </g>
    </g>
    <g id="ytick_7">
     <g id="line2d_17">
      <g>
       <use style="stroke:#000000;stroke-width:0.8;" x="46.603125" xlink:href="#mee166d6bd2" y="66.670125"/>
      </g>
     </g>
     <g id="text_18">
      <!-- 30 -->
      <g transform="translate(26.878125 70.469344)scale(0.1 -0.1)">
       <defs>
        <path d="M 40.578125 39.3125 
Q 47.65625 37.796875 51.625 33 
Q 55.609375 28.21875 55.609375 21.1875 
Q 55.609375 10.40625 48.1875 4.484375 
Q 40.765625 -1.421875 27.09375 -1.421875 
Q 22.515625 -1.421875 17.65625 -0.515625 
Q 12.796875 0.390625 7.625 2.203125 
L 7.625 11.71875 
Q 11.71875 9.328125 16.59375 8.109375 
Q 21.484375 6.890625 26.8125 6.890625 
Q 36.078125 6.890625 40.9375 10.546875 
Q 45.796875 14.203125 45.796875 21.1875 
Q 45.796875 27.640625 41.28125 31.265625 
Q 36.765625 34.90625 28.71875 34.90625 
L 20.21875 34.90625 
L 20.21875 43.015625 
L 29.109375 43.015625 
Q 36.375 43.015625 40.234375 45.921875 
Q 44.09375 48.828125 44.09375 54.296875 
Q 44.09375 59.90625 40.109375 62.90625 
Q 36.140625 65.921875 28.71875 65.921875 
Q 24.65625 65.921875 20.015625 65.03125 
Q 15.375 64.15625 9.8125 62.3125 
L 9.8125 71.09375 
Q 15.4375 72.65625 20.34375 73.4375 
Q 25.25 74.21875 29.59375 74.21875 
Q 40.828125 74.21875 47.359375 69.109375 
Q 53.90625 64.015625 53.90625 55.328125 
Q 53.90625 49.265625 50.4375 45.09375 
Q 46.96875 40.921875 40.578125 39.3125 
z
" id="DejaVuSans-51"/>
       </defs>
       <use xlink:href="#DejaVuSans-51"/>
       <use x="63.623047" xlink:href="#DejaVuSans-48"/>
      </g>
     </g>
    </g>
    <g id="ytick_8">
     <g id="line2d_18">
      <g>
       <use style="stroke:#000000;stroke-width:0.8;" x="46.603125" xlink:href="#mee166d6bd2" y="29.710125"/>
      </g>
     </g>
     <g id="text_19">
      <!-- 35 -->
      <g transform="translate(26.878125 33.509344)scale(0.1 -0.1)">
       <use xlink:href="#DejaVuSans-51"/>
       <use x="63.623047" xlink:href="#DejaVuSans-53"/>
      </g>
     </g>
    </g>
    <g id="text_20">
     <!-- number of corona fatalities daily -->
     <g transform="translate(14.798438 236.740531)rotate(-90)scale(0.1 -0.1)">
      <defs>
       <path d="M 54.890625 33.015625 
L 54.890625 0 
L 45.90625 0 
L 45.90625 32.71875 
Q 45.90625 40.484375 42.875 44.328125 
Q 39.84375 48.1875 33.796875 48.1875 
Q 26.515625 48.1875 22.3125 43.546875 
Q 18.109375 38.921875 18.109375 30.90625 
L 18.109375 0 
L 9.078125 0 
L 9.078125 54.6875 
L 18.109375 54.6875 
L 18.109375 46.1875 
Q 21.34375 51.125 25.703125 53.5625 
Q 30.078125 56 35.796875 56 
Q 45.21875 56 50.046875 50.171875 
Q 54.890625 44.34375 54.890625 33.015625 
z
" id="DejaVuSans-110"/>
       <path d="M 8.5 21.578125 
L 8.5 54.6875 
L 17.484375 54.6875 
L 17.484375 21.921875 
Q 17.484375 14.15625 20.5 10.265625 
Q 23.53125 6.390625 29.59375 6.390625 
Q 36.859375 6.390625 41.078125 11.03125 
Q 45.3125 15.671875 45.3125 23.6875 
L 45.3125 54.6875 
L 54.296875 54.6875 
L 54.296875 0 
L 45.3125 0 
L 45.3125 8.40625 
Q 42.046875 3.421875 37.71875 1 
Q 33.40625 -1.421875 27.6875 -1.421875 
Q 18.265625 -1.421875 13.375 4.4375 
Q 8.5 10.296875 8.5 21.578125 
z
M 31.109375 56 
z
" id="DejaVuSans-117"/>
       <path d="M 52 44.1875 
Q 55.375 50.25 60.0625 53.125 
Q 64.75 56 71.09375 56 
Q 79.640625 56 84.28125 50.015625 
Q 88.921875 44.046875 88.921875 33.015625 
L 88.921875 0 
L 79.890625 0 
L 79.890625 32.71875 
Q 79.890625 40.578125 77.09375 44.375 
Q 74.3125 48.1875 68.609375 48.1875 
Q 61.625 48.1875 57.5625 43.546875 
Q 53.515625 38.921875 53.515625 30.90625 
L 53.515625 0 
L 44.484375 0 
L 44.484375 32.71875 
Q 44.484375 40.625 41.703125 44.40625 
Q 38.921875 48.1875 33.109375 48.1875 
Q 26.21875 48.1875 22.15625 43.53125 
Q 18.109375 38.875 18.109375 30.90625 
L 18.109375 0 
L 9.078125 0 
L 9.078125 54.6875 
L 18.109375 54.6875 
L 18.109375 46.1875 
Q 21.1875 51.21875 25.484375 53.609375 
Q 29.78125 56 35.6875 56 
Q 41.65625 56 45.828125 52.96875 
Q 50 49.953125 52 44.1875 
z
" id="DejaVuSans-109"/>
       <path d="M 48.6875 27.296875 
Q 48.6875 37.203125 44.609375 42.84375 
Q 40.53125 48.484375 33.40625 48.484375 
Q 26.265625 48.484375 22.1875 42.84375 
Q 18.109375 37.203125 18.109375 27.296875 
Q 18.109375 17.390625 22.1875 11.75 
Q 26.265625 6.109375 33.40625 6.109375 
Q 40.53125 6.109375 44.609375 11.75 
Q 48.6875 17.390625 48.6875 27.296875 
z
M 18.109375 46.390625 
Q 20.953125 51.265625 25.265625 53.625 
Q 29.59375 56 35.59375 56 
Q 45.5625 56 51.78125 48.09375 
Q 58.015625 40.1875 58.015625 27.296875 
Q 58.015625 14.40625 51.78125 6.484375 
Q 45.5625 -1.421875 35.59375 -1.421875 
Q 29.59375 -1.421875 25.265625 0.953125 
Q 20.953125 3.328125 18.109375 8.203125 
L 18.109375 0 
L 9.078125 0 
L 9.078125 75.984375 
L 18.109375 75.984375 
z
" id="DejaVuSans-98"/>
       <path d="M 41.109375 46.296875 
Q 39.59375 47.171875 37.8125 47.578125 
Q 36.03125 48 33.890625 48 
Q 26.265625 48 22.1875 43.046875 
Q 18.109375 38.09375 18.109375 28.8125 
L 18.109375 0 
L 9.078125 0 
L 9.078125 54.6875 
L 18.109375 54.6875 
L 18.109375 46.1875 
Q 20.953125 51.171875 25.484375 53.578125 
Q 30.03125 56 36.53125 56 
Q 37.453125 56 38.578125 55.875 
Q 39.703125 55.765625 41.0625 55.515625 
z
" id="DejaVuSans-114"/>
       <path id="DejaVuSans-32"/>
       <path d="M 30.609375 48.390625 
Q 23.390625 48.390625 19.1875 42.75 
Q 14.984375 37.109375 14.984375 27.296875 
Q 14.984375 17.484375 19.15625 11.84375 
Q 23.34375 6.203125 30.609375 6.203125 
Q 37.796875 6.203125 41.984375 11.859375 
Q 46.1875 17.53125 46.1875 27.296875 
Q 46.1875 37.015625 41.984375 42.703125 
Q 37.796875 48.390625 30.609375 48.390625 
z
M 30.609375 56 
Q 42.328125 56 49.015625 48.375 
Q 55.71875 40.765625 55.71875 27.296875 
Q 55.71875 13.875 49.015625 6.21875 
Q 42.328125 -1.421875 30.609375 -1.421875 
Q 18.84375 -1.421875 12.171875 6.21875 
Q 5.515625 13.875 5.515625 27.296875 
Q 5.515625 40.765625 12.171875 48.375 
Q 18.84375 56 30.609375 56 
z
" id="DejaVuSans-111"/>
       <path d="M 37.109375 75.984375 
L 37.109375 68.5 
L 28.515625 68.5 
Q 23.6875 68.5 21.796875 66.546875 
Q 19.921875 64.59375 19.921875 59.515625 
L 19.921875 54.6875 
L 34.71875 54.6875 
L 34.71875 47.703125 
L 19.921875 47.703125 
L 19.921875 0 
L 10.890625 0 
L 10.890625 47.703125 
L 2.296875 47.703125 
L 2.296875 54.6875 
L 10.890625 54.6875 
L 10.890625 58.5 
Q 10.890625 67.625 15.140625 71.796875 
Q 19.390625 75.984375 28.609375 75.984375 
z
" id="DejaVuSans-102"/>
       <path d="M 48.78125 52.59375 
L 48.78125 44.1875 
Q 44.96875 46.296875 41.140625 47.34375 
Q 37.3125 48.390625 33.40625 48.390625 
Q 24.65625 48.390625 19.8125 42.84375 
Q 14.984375 37.3125 14.984375 27.296875 
Q 14.984375 17.28125 19.8125 11.734375 
Q 24.65625 6.203125 33.40625 6.203125 
Q 37.3125 6.203125 41.140625 7.25 
Q 44.96875 8.296875 48.78125 10.40625 
L 48.78125 2.09375 
Q 45.015625 0.34375 40.984375 -0.53125 
Q 36.96875 -1.421875 32.421875 -1.421875 
Q 20.0625 -1.421875 12.78125 6.34375 
Q 5.515625 14.109375 5.515625 27.296875 
Q 5.515625 40.671875 12.859375 48.328125 
Q 20.21875 56 33.015625 56 
Q 37.15625 56 41.109375 55.140625 
Q 45.0625 54.296875 48.78125 52.59375 
z
" id="DejaVuSans-99"/>
       <path d="M 9.421875 75.984375 
L 18.40625 75.984375 
L 18.40625 0 
L 9.421875 0 
z
" id="DejaVuSans-108"/>
       <path d="M 9.421875 54.6875 
L 18.40625 54.6875 
L 18.40625 0 
L 9.421875 0 
z
M 9.421875 75.984375 
L 18.40625 75.984375 
L 18.40625 64.59375 
L 9.421875 64.59375 
z
" id="DejaVuSans-105"/>
       <path d="M 44.28125 53.078125 
L 44.28125 44.578125 
Q 40.484375 46.53125 36.375 47.5 
Q 32.28125 48.484375 27.875 48.484375 
Q 21.1875 48.484375 17.84375 46.4375 
Q 14.5 44.390625 14.5 40.28125 
Q 14.5 37.15625 16.890625 35.375 
Q 19.28125 33.59375 26.515625 31.984375 
L 29.59375 31.296875 
Q 39.15625 29.25 43.1875 25.515625 
Q 47.21875 21.78125 47.21875 15.09375 
Q 47.21875 7.46875 41.1875 3.015625 
Q 35.15625 -1.421875 24.609375 -1.421875 
Q 20.21875 -1.421875 15.453125 -0.5625 
Q 10.6875 0.296875 5.421875 2 
L 5.421875 11.28125 
Q 10.40625 8.6875 15.234375 7.390625 
Q 20.0625 6.109375 24.8125 6.109375 
Q 31.15625 6.109375 34.5625 8.28125 
Q 37.984375 10.453125 37.984375 14.40625 
Q 37.984375 18.0625 35.515625 20.015625 
Q 33.0625 21.96875 24.703125 23.78125 
L 21.578125 24.515625 
Q 13.234375 26.265625 9.515625 29.90625 
Q 5.8125 33.546875 5.8125 39.890625 
Q 5.8125 47.609375 11.28125 51.796875 
Q 16.75 56 26.8125 56 
Q 31.78125 56 36.171875 55.265625 
Q 40.578125 54.546875 44.28125 53.078125 
z
" id="DejaVuSans-115"/>
       <path d="M 32.171875 -5.078125 
Q 28.375 -14.84375 24.75 -17.8125 
Q 21.140625 -20.796875 15.09375 -20.796875 
L 7.90625 -20.796875 
L 7.90625 -13.28125 
L 13.1875 -13.28125 
Q 16.890625 -13.28125 18.9375 -11.515625 
Q 21 -9.765625 23.484375 -3.21875 
L 25.09375 0.875 
L 2.984375 54.6875 
L 12.5 54.6875 
L 29.59375 11.921875 
L 46.6875 54.6875 
L 56.203125 54.6875 
z
" id="DejaVuSans-121"/>
      </defs>
      <use xlink:href="#DejaVuSans-110"/>
      <use x="63.378906" xlink:href="#DejaVuSans-117"/>
      <use x="126.757812" xlink:href="#DejaVuSans-109"/>
      <use x="224.169922" xlink:href="#DejaVuSans-98"/>
      <use x="287.646484" xlink:href="#DejaVuSans-101"/>
      <use x="349.169922" xlink:href="#DejaVuSans-114"/>
      <use x="390.283203" xlink:href="#DejaVuSans-32"/>
      <use x="422.070312" xlink:href="#DejaVuSans-111"/>
      <use x="483.251953" xlink:href="#DejaVuSans-102"/>
      <use x="518.457031" xlink:href="#DejaVuSans-32"/>
      <use x="550.244141" xlink:href="#DejaVuSans-99"/>
      <use x="605.224609" xlink:href="#DejaVuSans-111"/>
      <use x="666.40625" xlink:href="#DejaVuSans-114"/>
      <use x="705.269531" xlink:href="#DejaVuSans-111"/>
      <use x="766.451172" xlink:href="#DejaVuSans-110"/>
      <use x="829.830078" xlink:href="#DejaVuSans-97"/>
      <use x="891.109375" xlink:href="#DejaVuSans-32"/>
      <use x="922.896484" xlink:href="#DejaVuSans-102"/>
      <use x="958.101562" xlink:href="#DejaVuSans-97"/>
      <use x="1019.380859" xlink:href="#DejaVuSans-116"/>
      <use x="1058.589844" xlink:href="#DejaVuSans-97"/>
      <use x="1119.869141" xlink:href="#DejaVuSans-108"/>
      <use x="1147.652344" xlink:href="#DejaVuSans-105"/>
      <use x="1175.435547" xlink:href="#DejaVuSans-116"/>
      <use x="1214.644531" xlink:href="#DejaVuSans-105"/>
      <use x="1242.427734" xlink:href="#DejaVuSans-101"/>
      <use x="1303.951172" xlink:href="#DejaVuSans-115"/>
      <use x="1356.050781" xlink:href="#DejaVuSans-32"/>
      <use x="1387.837891" xlink:href="#DejaVuSans-100"/>
      <use x="1451.314453" xlink:href="#DejaVuSans-97"/>
      <use x="1512.59375" xlink:href="#DejaVuSans-105"/>
      <use x="1540.376953" xlink:href="#DejaVuSans-108"/>
      <use x="1568.160156" xlink:href="#DejaVuSans-121"/>
     </g>
    </g>
   </g>
   <g id="patch_296">
    <path d="M 46.603125 288.430125 
L 46.603125 22.318125 
" style="fill:none;stroke:#000000;stroke-linecap:square;stroke-linejoin:miter;stroke-width:0.8;"/>
   </g>
   <g id="patch_297">
    <path d="M 46.603125 288.430125 
L 403.723125 288.430125 
" style="fill:none;stroke:#000000;stroke-linecap:square;stroke-linejoin:miter;stroke-width:0.8;"/>
   </g>
   <g id="text_21">
    <!-- South Tyrol -->
    <g transform="translate(191.870625 16.318125)scale(0.12 -0.12)">
     <defs>
      <path d="M 53.515625 70.515625 
L 53.515625 60.890625 
Q 47.90625 63.578125 42.921875 64.890625 
Q 37.9375 66.21875 33.296875 66.21875 
Q 25.25 66.21875 20.875 63.09375 
Q 16.5 59.96875 16.5 54.203125 
Q 16.5 49.359375 19.40625 46.890625 
Q 22.3125 44.4375 30.421875 42.921875 
L 36.375 41.703125 
Q 47.40625 39.59375 52.65625 34.296875 
Q 57.90625 29 57.90625 20.125 
Q 57.90625 9.515625 50.796875 4.046875 
Q 43.703125 -1.421875 29.984375 -1.421875 
Q 24.8125 -1.421875 18.96875 -0.25 
Q 13.140625 0.921875 6.890625 3.21875 
L 6.890625 13.375 
Q 12.890625 10.015625 18.65625 8.296875 
Q 24.421875 6.59375 29.984375 6.59375 
Q 38.421875 6.59375 43.015625 9.90625 
Q 47.609375 13.234375 47.609375 19.390625 
Q 47.609375 24.75 44.3125 27.78125 
Q 41.015625 30.8125 33.5 32.328125 
L 27.484375 33.5 
Q 16.453125 35.6875 11.515625 40.375 
Q 6.59375 45.0625 6.59375 53.421875 
Q 6.59375 63.09375 13.40625 68.65625 
Q 20.21875 74.21875 32.171875 74.21875 
Q 37.3125 74.21875 42.625 73.28125 
Q 47.953125 72.359375 53.515625 70.515625 
z
" id="DejaVuSans-83"/>
      <path d="M 54.890625 33.015625 
L 54.890625 0 
L 45.90625 0 
L 45.90625 32.71875 
Q 45.90625 40.484375 42.875 44.328125 
Q 39.84375 48.1875 33.796875 48.1875 
Q 26.515625 48.1875 22.3125 43.546875 
Q 18.109375 38.921875 18.109375 30.90625 
L 18.109375 0 
L 9.078125 0 
L 9.078125 75.984375 
L 18.109375 75.984375 
L 18.109375 46.1875 
Q 21.34375 51.125 25.703125 53.5625 
Q 30.078125 56 35.796875 56 
Q 45.21875 56 50.046875 50.171875 
Q 54.890625 44.34375 54.890625 33.015625 
z
" id="DejaVuSans-104"/>
      <path d="M -0.296875 72.90625 
L 61.375 72.90625 
L 61.375 64.59375 
L 35.5 64.59375 
L 35.5 0 
L 25.59375 0 
L 25.59375 64.59375 
L -0.296875 64.59375 
z
" id="DejaVuSans-84"/>
     </defs>
     <use xlink:href="#DejaVuSans-83"/>
     <use x="63.476562" xlink:href="#DejaVuSans-111"/>
     <use x="124.658203" xlink:href="#DejaVuSans-117"/>
     <use x="188.037109" xlink:href="#DejaVuSans-116"/>
     <use x="227.246094" xlink:href="#DejaVuSans-104"/>
     <use x="290.625" xlink:href="#DejaVuSans-32"/>
     <use x="322.412109" xlink:href="#DejaVuSans-84"/>
     <use x="367.871094" xlink:href="#DejaVuSans-121"/>
     <use x="427.050781" xlink:href="#DejaVuSans-114"/>
     <use x="465.914062" xlink:href="#DejaVuSans-111"/>
     <use x="527.095703" xlink:href="#DejaVuSans-108"/>
    </g>
   </g>
  </g>
 </g>
 <defs>
  <clipPath id="p169d78d4c1">
   <rect height="266.112" width="357.12" x="46.603125" y="22.318125"/>
  </clipPath>
 </defs>
</svg>
