<?xml version="1.0" encoding="utf-8" standalone="no"?>
<!DOCTYPE svg PUBLIC "-//W3C//DTD SVG 1.1//EN"
  "http://www.w3.org/Graphics/SVG/1.1/DTD/svg11.dtd">
<!-- Created with matplotlib (https://matplotlib.org/) -->
<svg height="272.045436pt" version="1.1" viewBox="0 0 386.100288 272.045436" width="386.100288pt" xmlns="http://www.w3.org/2000/svg" xmlns:xlink="http://www.w3.org/1999/xlink">
 <metadata>
  <rdf:RDF xmlns:cc="http://creativecommons.org/ns#" xmlns:dc="http://purl.org/dc/elements/1.1/" xmlns:rdf="http://www.w3.org/1999/02/22-rdf-syntax-ns#">
   <cc:Work>
    <dc:type rdf:resource="http://purl.org/dc/dcmitype/StillImage"/>
    <dc:format>image/svg+xml</dc:format>
    <dc:creator>
     <cc:Agent>
      <dc:title>Matplotlib v3.3.4, https://matplotlib.org/</dc:title>
     </cc:Agent>
    </dc:creator>
   </cc:Work>
  </rdf:RDF>
 </metadata>
 <defs>
  <style type="text/css">*{stroke-linecap:butt;stroke-linejoin:round;}</style>
 </defs>
 <g id="figure_1">
  <g id="patch_1">
   <path d="M 0 272.045436 
L 386.100288 272.045436 
L 386.100288 0 
L 0 0 
z
" style="fill:#ffffff;"/>
  </g>
  <g id="axes_1">
   <g id="patch_2">
    <path d="M 44.100288 224.64 
L 378.900288 224.64 
L 378.900288 7.2 
L 44.100288 7.2 
z
" style="fill:#ffffff;"/>
   </g>
   <g id="patch_3">
    <path clip-path="url(#pb217b20e38)" d="M 44.191515 224.64 
L 44.921324 224.64 
L 44.921324 194.44 
L 44.191515 194.44 
z
" style="fill:#1f77b4;"/>
   </g>
   <g id="patch_4">
    <path clip-path="url(#pb217b20e38)" d="M 45.103776 224.64 
L 45.833585 224.64 
L 45.833585 218.6 
L 45.103776 218.6 
z
" style="fill:#1f77b4;"/>
   </g>
   <g id="patch_5">
    <path clip-path="url(#pb217b20e38)" d="M 46.016038 224.64 
L 46.745847 224.64 
L 46.745847 206.52 
L 46.016038 206.52 
z
" style="fill:#1f77b4;"/>
   </g>
   <g id="patch_6">
    <path clip-path="url(#pb217b20e38)" d="M 46.928299 224.64 
L 47.658109 224.64 
L 47.658109 206.52 
L 46.928299 206.52 
z
" style="fill:#1f77b4;"/>
   </g>
   <g id="patch_7">
    <path clip-path="url(#pb217b20e38)" d="M 47.840561 224.64 
L 48.57037 224.64 
L 48.57037 200.48 
L 47.840561 200.48 
z
" style="fill:#1f77b4;"/>
   </g>
   <g id="patch_8">
    <path clip-path="url(#pb217b20e38)" d="M 48.752823 224.64 
L 49.482632 224.64 
L 49.482632 206.52 
L 48.752823 206.52 
z
" style="fill:#1f77b4;"/>
   </g>
   <g id="patch_9">
    <path clip-path="url(#pb217b20e38)" d="M 49.665084 224.64 
L 50.394893 224.64 
L 50.394893 194.44 
L 49.665084 194.44 
z
" style="fill:#1f77b4;"/>
   </g>
   <g id="patch_10">
    <path clip-path="url(#pb217b20e38)" d="M 50.577346 224.64 
L 51.307155 224.64 
L 51.307155 182.36 
L 50.577346 182.36 
z
" style="fill:#1f77b4;"/>
   </g>
   <g id="patch_11">
    <path clip-path="url(#pb217b20e38)" d="M 51.489607 224.64 
L 52.219417 224.64 
L 52.219417 200.48 
L 51.489607 200.48 
z
" style="fill:#1f77b4;"/>
   </g>
   <g id="patch_12">
    <path clip-path="url(#pb217b20e38)" d="M 52.401869 224.64 
L 53.131678 224.64 
L 53.131678 170.28 
L 52.401869 170.28 
z
" style="fill:#1f77b4;"/>
   </g>
   <g id="patch_13">
    <path clip-path="url(#pb217b20e38)" d="M 53.31413 224.64 
L 54.04394 224.64 
L 54.04394 218.6 
L 53.31413 218.6 
z
" style="fill:#1f77b4;"/>
   </g>
   <g id="patch_14">
    <path clip-path="url(#pb217b20e38)" d="M 54.226392 224.64 
L 54.956201 224.64 
L 54.956201 176.32 
L 54.226392 176.32 
z
" style="fill:#1f77b4;"/>
   </g>
   <g id="patch_15">
    <path clip-path="url(#pb217b20e38)" d="M 55.138654 224.64 
L 55.868463 224.64 
L 55.868463 182.36 
L 55.138654 182.36 
z
" style="fill:#1f77b4;"/>
   </g>
   <g id="patch_16">
    <path clip-path="url(#pb217b20e38)" d="M 56.050915 224.64 
L 56.780724 224.64 
L 56.780724 200.48 
L 56.050915 200.48 
z
" style="fill:#1f77b4;"/>
   </g>
   <g id="patch_17">
    <path clip-path="url(#pb217b20e38)" d="M 56.963177 224.64 
L 57.692986 224.64 
L 57.692986 182.36 
L 56.963177 182.36 
z
" style="fill:#1f77b4;"/>
   </g>
   <g id="patch_18">
    <path clip-path="url(#pb217b20e38)" d="M 57.875438 224.64 
L 58.605248 224.64 
L 58.605248 206.52 
L 57.875438 206.52 
z
" style="fill:#1f77b4;"/>
   </g>
   <g id="patch_19">
    <path clip-path="url(#pb217b20e38)" d="M 58.7877 224.64 
L 59.517509 224.64 
L 59.517509 7.2 
L 58.7877 7.2 
z
" style="fill:#1f77b4;"/>
   </g>
   <g id="patch_20">
    <path clip-path="url(#pb217b20e38)" d="M 59.699961 224.64 
L 60.429771 224.64 
L 60.429771 164.24 
L 59.699961 164.24 
z
" style="fill:#1f77b4;"/>
   </g>
   <g id="patch_21">
    <path clip-path="url(#pb217b20e38)" d="M 60.612223 224.64 
L 61.342032 224.64 
L 61.342032 176.32 
L 60.612223 176.32 
z
" style="fill:#1f77b4;"/>
   </g>
   <g id="patch_22">
    <path clip-path="url(#pb217b20e38)" d="M 61.524485 224.64 
L 62.254294 224.64 
L 62.254294 140.08 
L 61.524485 140.08 
z
" style="fill:#1f77b4;"/>
   </g>
   <g id="patch_23">
    <path clip-path="url(#pb217b20e38)" d="M 62.436746 224.64 
L 63.166555 224.64 
L 63.166555 200.48 
L 62.436746 200.48 
z
" style="fill:#1f77b4;"/>
   </g>
   <g id="patch_24">
    <path clip-path="url(#pb217b20e38)" d="M 63.349008 224.64 
L 64.078817 224.64 
L 64.078817 164.24 
L 63.349008 164.24 
z
" style="fill:#1f77b4;"/>
   </g>
   <g id="patch_25">
    <path clip-path="url(#pb217b20e38)" d="M 64.261269 224.64 
L 64.991079 224.64 
L 64.991079 176.32 
L 64.261269 176.32 
z
" style="fill:#1f77b4;"/>
   </g>
   <g id="patch_26">
    <path clip-path="url(#pb217b20e38)" d="M 65.173531 224.64 
L 65.90334 224.64 
L 65.90334 176.32 
L 65.173531 176.32 
z
" style="fill:#1f77b4;"/>
   </g>
   <g id="patch_27">
    <path clip-path="url(#pb217b20e38)" d="M 66.085793 224.64 
L 66.815602 224.64 
L 66.815602 188.4 
L 66.085793 188.4 
z
" style="fill:#1f77b4;"/>
   </g>
   <g id="patch_28">
    <path clip-path="url(#pb217b20e38)" d="M 66.998054 224.64 
L 67.727863 224.64 
L 67.727863 170.28 
L 66.998054 170.28 
z
" style="fill:#1f77b4;"/>
   </g>
   <g id="patch_29">
    <path clip-path="url(#pb217b20e38)" d="M 67.910316 224.64 
L 68.640125 224.64 
L 68.640125 194.44 
L 67.910316 194.44 
z
" style="fill:#1f77b4;"/>
   </g>
   <g id="patch_30">
    <path clip-path="url(#pb217b20e38)" d="M 68.822577 224.64 
L 69.552387 224.64 
L 69.552387 176.32 
L 68.822577 176.32 
z
" style="fill:#1f77b4;"/>
   </g>
   <g id="patch_31">
    <path clip-path="url(#pb217b20e38)" d="M 69.734839 224.64 
L 70.464648 224.64 
L 70.464648 200.48 
L 69.734839 200.48 
z
" style="fill:#1f77b4;"/>
   </g>
   <g id="patch_32">
    <path clip-path="url(#pb217b20e38)" d="M 70.6471 224.64 
L 71.37691 224.64 
L 71.37691 158.2 
L 70.6471 158.2 
z
" style="fill:#1f77b4;"/>
   </g>
   <g id="patch_33">
    <path clip-path="url(#pb217b20e38)" d="M 71.559362 224.64 
L 72.289171 224.64 
L 72.289171 212.56 
L 71.559362 212.56 
z
" style="fill:#1f77b4;"/>
   </g>
   <g id="patch_34">
    <path clip-path="url(#pb217b20e38)" d="M 72.471624 224.64 
L 73.201433 224.64 
L 73.201433 200.48 
L 72.471624 200.48 
z
" style="fill:#1f77b4;"/>
   </g>
   <g id="patch_35">
    <path clip-path="url(#pb217b20e38)" d="M 73.383885 224.64 
L 74.113694 224.64 
L 74.113694 182.36 
L 73.383885 182.36 
z
" style="fill:#1f77b4;"/>
   </g>
   <g id="patch_36">
    <path clip-path="url(#pb217b20e38)" d="M 74.296147 224.64 
L 75.025956 224.64 
L 75.025956 200.48 
L 74.296147 200.48 
z
" style="fill:#1f77b4;"/>
   </g>
   <g id="patch_37">
    <path clip-path="url(#pb217b20e38)" d="M 75.208408 224.64 
L 75.938218 224.64 
L 75.938218 182.36 
L 75.208408 182.36 
z
" style="fill:#1f77b4;"/>
   </g>
   <g id="patch_38">
    <path clip-path="url(#pb217b20e38)" d="M 76.12067 224.64 
L 76.850479 224.64 
L 76.850479 188.4 
L 76.12067 188.4 
z
" style="fill:#1f77b4;"/>
   </g>
   <g id="patch_39">
    <path clip-path="url(#pb217b20e38)" d="M 77.032932 224.64 
L 77.762741 224.64 
L 77.762741 200.48 
L 77.032932 200.48 
z
" style="fill:#1f77b4;"/>
   </g>
   <g id="patch_40">
    <path clip-path="url(#pb217b20e38)" d="M 77.945193 224.64 
L 78.675002 224.64 
L 78.675002 206.52 
L 77.945193 206.52 
z
" style="fill:#1f77b4;"/>
   </g>
   <g id="patch_41">
    <path clip-path="url(#pb217b20e38)" d="M 78.857455 224.64 
L 79.587264 224.64 
L 79.587264 200.48 
L 78.857455 200.48 
z
" style="fill:#1f77b4;"/>
   </g>
   <g id="patch_42">
    <path clip-path="url(#pb217b20e38)" d="M 79.769716 224.64 
L 80.499526 224.64 
L 80.499526 194.44 
L 79.769716 194.44 
z
" style="fill:#1f77b4;"/>
   </g>
   <g id="patch_43">
    <path clip-path="url(#pb217b20e38)" d="M 80.681978 224.64 
L 81.411787 224.64 
L 81.411787 212.56 
L 80.681978 212.56 
z
" style="fill:#1f77b4;"/>
   </g>
   <g id="patch_44">
    <path clip-path="url(#pb217b20e38)" d="M 81.594239 224.64 
L 82.324049 224.64 
L 82.324049 212.56 
L 81.594239 212.56 
z
" style="fill:#1f77b4;"/>
   </g>
   <g id="patch_45">
    <path clip-path="url(#pb217b20e38)" d="M 82.506501 224.64 
L 83.23631 224.64 
L 83.23631 200.48 
L 82.506501 200.48 
z
" style="fill:#1f77b4;"/>
   </g>
   <g id="patch_46">
    <path clip-path="url(#pb217b20e38)" d="M 83.418763 224.64 
L 84.148572 224.64 
L 84.148572 218.6 
L 83.418763 218.6 
z
" style="fill:#1f77b4;"/>
   </g>
   <g id="patch_47">
    <path clip-path="url(#pb217b20e38)" d="M 84.331024 224.64 
L 85.060833 224.64 
L 85.060833 212.56 
L 84.331024 212.56 
z
" style="fill:#1f77b4;"/>
   </g>
   <g id="patch_48">
    <path clip-path="url(#pb217b20e38)" d="M 85.243286 224.64 
L 85.973095 224.64 
L 85.973095 212.56 
L 85.243286 212.56 
z
" style="fill:#1f77b4;"/>
   </g>
   <g id="patch_49">
    <path clip-path="url(#pb217b20e38)" d="M 86.155547 224.64 
L 86.885357 224.64 
L 86.885357 218.6 
L 86.155547 218.6 
z
" style="fill:#1f77b4;"/>
   </g>
   <g id="patch_50">
    <path clip-path="url(#pb217b20e38)" d="M 87.067809 224.64 
L 87.797618 224.64 
L 87.797618 206.52 
L 87.067809 206.52 
z
" style="fill:#1f77b4;"/>
   </g>
   <g id="patch_51">
    <path clip-path="url(#pb217b20e38)" d="M 87.98007 224.64 
L 88.70988 224.64 
L 88.70988 218.6 
L 87.98007 218.6 
z
" style="fill:#1f77b4;"/>
   </g>
   <g id="patch_52">
    <path clip-path="url(#pb217b20e38)" d="M 88.892332 224.64 
L 89.622141 224.64 
L 89.622141 212.56 
L 88.892332 212.56 
z
" style="fill:#1f77b4;"/>
   </g>
   <g id="patch_53">
    <path clip-path="url(#pb217b20e38)" d="M 89.804594 224.64 
L 90.534403 224.64 
L 90.534403 206.52 
L 89.804594 206.52 
z
" style="fill:#1f77b4;"/>
   </g>
   <g id="patch_54">
    <path clip-path="url(#pb217b20e38)" d="M 90.716855 224.64 
L 91.446664 224.64 
L 91.446664 212.56 
L 90.716855 212.56 
z
" style="fill:#1f77b4;"/>
   </g>
   <g id="patch_55">
    <path clip-path="url(#pb217b20e38)" d="M 91.629117 224.64 
L 92.358926 224.64 
L 92.358926 224.64 
L 91.629117 224.64 
z
" style="fill:#1f77b4;"/>
   </g>
   <g id="patch_56">
    <path clip-path="url(#pb217b20e38)" d="M 92.541378 224.64 
L 93.271188 224.64 
L 93.271188 224.64 
L 92.541378 224.64 
z
" style="fill:#1f77b4;"/>
   </g>
   <g id="patch_57">
    <path clip-path="url(#pb217b20e38)" d="M 93.45364 224.64 
L 94.183449 224.64 
L 94.183449 206.52 
L 93.45364 206.52 
z
" style="fill:#1f77b4;"/>
   </g>
   <g id="patch_58">
    <path clip-path="url(#pb217b20e38)" d="M 94.365902 224.64 
L 95.095711 224.64 
L 95.095711 218.6 
L 94.365902 218.6 
z
" style="fill:#1f77b4;"/>
   </g>
   <g id="patch_59">
    <path clip-path="url(#pb217b20e38)" d="M 95.278163 224.64 
L 96.007972 224.64 
L 96.007972 224.64 
L 95.278163 224.64 
z
" style="fill:#1f77b4;"/>
   </g>
   <g id="patch_60">
    <path clip-path="url(#pb217b20e38)" d="M 96.190425 224.64 
L 96.920234 224.64 
L 96.920234 224.64 
L 96.190425 224.64 
z
" style="fill:#1f77b4;"/>
   </g>
   <g id="patch_61">
    <path clip-path="url(#pb217b20e38)" d="M 97.102686 224.64 
L 97.832496 224.64 
L 97.832496 224.64 
L 97.102686 224.64 
z
" style="fill:#1f77b4;"/>
   </g>
   <g id="patch_62">
    <path clip-path="url(#pb217b20e38)" d="M 98.014948 224.64 
L 98.744757 224.64 
L 98.744757 224.64 
L 98.014948 224.64 
z
" style="fill:#1f77b4;"/>
   </g>
   <g id="patch_63">
    <path clip-path="url(#pb217b20e38)" d="M 98.927209 224.64 
L 99.657019 224.64 
L 99.657019 224.64 
L 98.927209 224.64 
z
" style="fill:#1f77b4;"/>
   </g>
   <g id="patch_64">
    <path clip-path="url(#pb217b20e38)" d="M 99.839471 224.64 
L 100.56928 224.64 
L 100.56928 224.64 
L 99.839471 224.64 
z
" style="fill:#1f77b4;"/>
   </g>
   <g id="patch_65">
    <path clip-path="url(#pb217b20e38)" d="M 100.751733 224.64 
L 101.481542 224.64 
L 101.481542 224.64 
L 100.751733 224.64 
z
" style="fill:#1f77b4;"/>
   </g>
   <g id="patch_66">
    <path clip-path="url(#pb217b20e38)" d="M 101.663994 224.64 
L 102.393803 224.64 
L 102.393803 224.64 
L 101.663994 224.64 
z
" style="fill:#1f77b4;"/>
   </g>
   <g id="patch_67">
    <path clip-path="url(#pb217b20e38)" d="M 102.576256 224.64 
L 103.306065 224.64 
L 103.306065 218.6 
L 102.576256 218.6 
z
" style="fill:#1f77b4;"/>
   </g>
   <g id="patch_68">
    <path clip-path="url(#pb217b20e38)" d="M 103.488517 224.64 
L 104.218327 224.64 
L 104.218327 224.64 
L 103.488517 224.64 
z
" style="fill:#1f77b4;"/>
   </g>
   <g id="patch_69">
    <path clip-path="url(#pb217b20e38)" d="M 104.400779 224.64 
L 105.130588 224.64 
L 105.130588 224.64 
L 104.400779 224.64 
z
" style="fill:#1f77b4;"/>
   </g>
   <g id="patch_70">
    <path clip-path="url(#pb217b20e38)" d="M 105.313041 224.64 
L 106.04285 224.64 
L 106.04285 224.64 
L 105.313041 224.64 
z
" style="fill:#1f77b4;"/>
   </g>
   <g id="patch_71">
    <path clip-path="url(#pb217b20e38)" d="M 106.225302 224.64 
L 106.955111 224.64 
L 106.955111 224.64 
L 106.225302 224.64 
z
" style="fill:#1f77b4;"/>
   </g>
   <g id="patch_72">
    <path clip-path="url(#pb217b20e38)" d="M 107.137564 224.64 
L 107.867373 224.64 
L 107.867373 224.64 
L 107.137564 224.64 
z
" style="fill:#1f77b4;"/>
   </g>
   <g id="patch_73">
    <path clip-path="url(#pb217b20e38)" d="M 108.049825 224.64 
L 108.779635 224.64 
L 108.779635 224.64 
L 108.049825 224.64 
z
" style="fill:#1f77b4;"/>
   </g>
   <g id="patch_74">
    <path clip-path="url(#pb217b20e38)" d="M 108.962087 224.64 
L 109.691896 224.64 
L 109.691896 224.64 
L 108.962087 224.64 
z
" style="fill:#1f77b4;"/>
   </g>
   <g id="patch_75">
    <path clip-path="url(#pb217b20e38)" d="M 109.874348 224.64 
L 110.604158 224.64 
L 110.604158 224.64 
L 109.874348 224.64 
z
" style="fill:#1f77b4;"/>
   </g>
   <g id="patch_76">
    <path clip-path="url(#pb217b20e38)" d="M 110.78661 224.64 
L 111.516419 224.64 
L 111.516419 224.64 
L 110.78661 224.64 
z
" style="fill:#1f77b4;"/>
   </g>
   <g id="patch_77">
    <path clip-path="url(#pb217b20e38)" d="M 111.698872 224.64 
L 112.428681 224.64 
L 112.428681 224.64 
L 111.698872 224.64 
z
" style="fill:#1f77b4;"/>
   </g>
   <g id="patch_78">
    <path clip-path="url(#pb217b20e38)" d="M 112.611133 224.64 
L 113.340942 224.64 
L 113.340942 224.64 
L 112.611133 224.64 
z
" style="fill:#1f77b4;"/>
   </g>
   <g id="patch_79">
    <path clip-path="url(#pb217b20e38)" d="M 113.523395 224.64 
L 114.253204 224.64 
L 114.253204 224.64 
L 113.523395 224.64 
z
" style="fill:#1f77b4;"/>
   </g>
   <g id="patch_80">
    <path clip-path="url(#pb217b20e38)" d="M 114.435656 224.64 
L 115.165466 224.64 
L 115.165466 224.64 
L 114.435656 224.64 
z
" style="fill:#1f77b4;"/>
   </g>
   <g id="patch_81">
    <path clip-path="url(#pb217b20e38)" d="M 115.347918 224.64 
L 116.077727 224.64 
L 116.077727 224.64 
L 115.347918 224.64 
z
" style="fill:#1f77b4;"/>
   </g>
   <g id="patch_82">
    <path clip-path="url(#pb217b20e38)" d="M 116.260179 224.64 
L 116.989989 224.64 
L 116.989989 224.64 
L 116.260179 224.64 
z
" style="fill:#1f77b4;"/>
   </g>
   <g id="patch_83">
    <path clip-path="url(#pb217b20e38)" d="M 117.172441 224.64 
L 117.90225 224.64 
L 117.90225 224.64 
L 117.172441 224.64 
z
" style="fill:#1f77b4;"/>
   </g>
   <g id="patch_84">
    <path clip-path="url(#pb217b20e38)" d="M 118.084703 224.64 
L 118.814512 224.64 
L 118.814512 218.6 
L 118.084703 218.6 
z
" style="fill:#1f77b4;"/>
   </g>
   <g id="patch_85">
    <path clip-path="url(#pb217b20e38)" d="M 118.996964 224.64 
L 119.726773 224.64 
L 119.726773 224.64 
L 118.996964 224.64 
z
" style="fill:#1f77b4;"/>
   </g>
   <g id="patch_86">
    <path clip-path="url(#pb217b20e38)" d="M 119.909226 224.64 
L 120.639035 224.64 
L 120.639035 224.64 
L 119.909226 224.64 
z
" style="fill:#1f77b4;"/>
   </g>
   <g id="patch_87">
    <path clip-path="url(#pb217b20e38)" d="M 120.821487 224.64 
L 121.551297 224.64 
L 121.551297 224.64 
L 120.821487 224.64 
z
" style="fill:#1f77b4;"/>
   </g>
   <g id="patch_88">
    <path clip-path="url(#pb217b20e38)" d="M 121.733749 224.64 
L 122.463558 224.64 
L 122.463558 224.64 
L 121.733749 224.64 
z
" style="fill:#1f77b4;"/>
   </g>
   <g id="patch_89">
    <path clip-path="url(#pb217b20e38)" d="M 122.646011 224.64 
L 123.37582 224.64 
L 123.37582 224.64 
L 122.646011 224.64 
z
" style="fill:#1f77b4;"/>
   </g>
   <g id="patch_90">
    <path clip-path="url(#pb217b20e38)" d="M 123.558272 224.64 
L 124.288081 224.64 
L 124.288081 224.64 
L 123.558272 224.64 
z
" style="fill:#1f77b4;"/>
   </g>
   <g id="patch_91">
    <path clip-path="url(#pb217b20e38)" d="M 124.470534 224.64 
L 125.200343 224.64 
L 125.200343 224.64 
L 124.470534 224.64 
z
" style="fill:#1f77b4;"/>
   </g>
   <g id="patch_92">
    <path clip-path="url(#pb217b20e38)" d="M 125.382795 224.64 
L 126.112605 224.64 
L 126.112605 230.68 
L 125.382795 230.68 
z
" style="fill:#1f77b4;"/>
   </g>
   <g id="patch_93">
    <path clip-path="url(#pb217b20e38)" d="M 126.295057 224.64 
L 127.024866 224.64 
L 127.024866 224.64 
L 126.295057 224.64 
z
" style="fill:#1f77b4;"/>
   </g>
   <g id="patch_94">
    <path clip-path="url(#pb217b20e38)" d="M 127.207318 224.64 
L 127.937128 224.64 
L 127.937128 224.64 
L 127.207318 224.64 
z
" style="fill:#1f77b4;"/>
   </g>
   <g id="patch_95">
    <path clip-path="url(#pb217b20e38)" d="M 128.11958 224.64 
L 128.849389 224.64 
L 128.849389 218.6 
L 128.11958 218.6 
z
" style="fill:#1f77b4;"/>
   </g>
   <g id="patch_96">
    <path clip-path="url(#pb217b20e38)" d="M 129.031842 224.64 
L 129.761651 224.64 
L 129.761651 224.64 
L 129.031842 224.64 
z
" style="fill:#1f77b4;"/>
   </g>
   <g id="patch_97">
    <path clip-path="url(#pb217b20e38)" d="M 129.944103 224.64 
L 130.673912 224.64 
L 130.673912 224.64 
L 129.944103 224.64 
z
" style="fill:#1f77b4;"/>
   </g>
   <g id="patch_98">
    <path clip-path="url(#pb217b20e38)" d="M 130.856365 224.64 
L 131.586174 224.64 
L 131.586174 224.64 
L 130.856365 224.64 
z
" style="fill:#1f77b4;"/>
   </g>
   <g id="patch_99">
    <path clip-path="url(#pb217b20e38)" d="M 131.768626 224.64 
L 132.498436 224.64 
L 132.498436 224.64 
L 131.768626 224.64 
z
" style="fill:#1f77b4;"/>
   </g>
   <g id="patch_100">
    <path clip-path="url(#pb217b20e38)" d="M 132.680888 224.64 
L 133.410697 224.64 
L 133.410697 224.64 
L 132.680888 224.64 
z
" style="fill:#1f77b4;"/>
   </g>
   <g id="patch_101">
    <path clip-path="url(#pb217b20e38)" d="M 133.59315 224.64 
L 134.322959 224.64 
L 134.322959 224.64 
L 133.59315 224.64 
z
" style="fill:#1f77b4;"/>
   </g>
   <g id="patch_102">
    <path clip-path="url(#pb217b20e38)" d="M 134.505411 224.64 
L 135.23522 224.64 
L 135.23522 224.64 
L 134.505411 224.64 
z
" style="fill:#1f77b4;"/>
   </g>
   <g id="patch_103">
    <path clip-path="url(#pb217b20e38)" d="M 135.417673 224.64 
L 136.147482 224.64 
L 136.147482 224.64 
L 135.417673 224.64 
z
" style="fill:#1f77b4;"/>
   </g>
   <g id="patch_104">
    <path clip-path="url(#pb217b20e38)" d="M 136.329934 224.64 
L 137.059744 224.64 
L 137.059744 224.64 
L 136.329934 224.64 
z
" style="fill:#1f77b4;"/>
   </g>
   <g id="patch_105">
    <path clip-path="url(#pb217b20e38)" d="M 137.242196 224.64 
L 137.972005 224.64 
L 137.972005 224.64 
L 137.242196 224.64 
z
" style="fill:#1f77b4;"/>
   </g>
   <g id="patch_106">
    <path clip-path="url(#pb217b20e38)" d="M 138.154457 224.64 
L 138.884267 224.64 
L 138.884267 224.64 
L 138.154457 224.64 
z
" style="fill:#1f77b4;"/>
   </g>
   <g id="patch_107">
    <path clip-path="url(#pb217b20e38)" d="M 139.066719 224.64 
L 139.796528 224.64 
L 139.796528 224.64 
L 139.066719 224.64 
z
" style="fill:#1f77b4;"/>
   </g>
   <g id="patch_108">
    <path clip-path="url(#pb217b20e38)" d="M 139.978981 224.64 
L 140.70879 224.64 
L 140.70879 224.64 
L 139.978981 224.64 
z
" style="fill:#1f77b4;"/>
   </g>
   <g id="patch_109">
    <path clip-path="url(#pb217b20e38)" d="M 140.891242 224.64 
L 141.621051 224.64 
L 141.621051 224.64 
L 140.891242 224.64 
z
" style="fill:#1f77b4;"/>
   </g>
   <g id="patch_110">
    <path clip-path="url(#pb217b20e38)" d="M 141.803504 224.64 
L 142.533313 224.64 
L 142.533313 224.64 
L 141.803504 224.64 
z
" style="fill:#1f77b4;"/>
   </g>
   <g id="patch_111">
    <path clip-path="url(#pb217b20e38)" d="M 142.715765 224.64 
L 143.445575 224.64 
L 143.445575 224.64 
L 142.715765 224.64 
z
" style="fill:#1f77b4;"/>
   </g>
   <g id="patch_112">
    <path clip-path="url(#pb217b20e38)" d="M 143.628027 224.64 
L 144.357836 224.64 
L 144.357836 224.64 
L 143.628027 224.64 
z
" style="fill:#1f77b4;"/>
   </g>
   <g id="patch_113">
    <path clip-path="url(#pb217b20e38)" d="M 144.540288 224.64 
L 145.270098 224.64 
L 145.270098 224.64 
L 144.540288 224.64 
z
" style="fill:#1f77b4;"/>
   </g>
   <g id="patch_114">
    <path clip-path="url(#pb217b20e38)" d="M 145.45255 224.64 
L 146.182359 224.64 
L 146.182359 224.64 
L 145.45255 224.64 
z
" style="fill:#1f77b4;"/>
   </g>
   <g id="patch_115">
    <path clip-path="url(#pb217b20e38)" d="M 146.364812 224.64 
L 147.094621 224.64 
L 147.094621 224.64 
L 146.364812 224.64 
z
" style="fill:#1f77b4;"/>
   </g>
   <g id="patch_116">
    <path clip-path="url(#pb217b20e38)" d="M 147.277073 224.64 
L 148.006882 224.64 
L 148.006882 224.64 
L 147.277073 224.64 
z
" style="fill:#1f77b4;"/>
   </g>
   <g id="patch_117">
    <path clip-path="url(#pb217b20e38)" d="M 148.189335 224.64 
L 148.919144 224.64 
L 148.919144 224.64 
L 148.189335 224.64 
z
" style="fill:#1f77b4;"/>
   </g>
   <g id="patch_118">
    <path clip-path="url(#pb217b20e38)" d="M 149.101596 224.64 
L 149.831406 224.64 
L 149.831406 224.64 
L 149.101596 224.64 
z
" style="fill:#1f77b4;"/>
   </g>
   <g id="patch_119">
    <path clip-path="url(#pb217b20e38)" d="M 150.013858 224.64 
L 150.743667 224.64 
L 150.743667 224.64 
L 150.013858 224.64 
z
" style="fill:#1f77b4;"/>
   </g>
   <g id="patch_120">
    <path clip-path="url(#pb217b20e38)" d="M 150.92612 224.64 
L 151.655929 224.64 
L 151.655929 224.64 
L 150.92612 224.64 
z
" style="fill:#1f77b4;"/>
   </g>
   <g id="patch_121">
    <path clip-path="url(#pb217b20e38)" d="M 151.838381 224.64 
L 152.56819 224.64 
L 152.56819 224.64 
L 151.838381 224.64 
z
" style="fill:#1f77b4;"/>
   </g>
   <g id="patch_122">
    <path clip-path="url(#pb217b20e38)" d="M 152.750643 224.64 
L 153.480452 224.64 
L 153.480452 224.64 
L 152.750643 224.64 
z
" style="fill:#1f77b4;"/>
   </g>
   <g id="patch_123">
    <path clip-path="url(#pb217b20e38)" d="M 153.662904 224.64 
L 154.392714 224.64 
L 154.392714 224.64 
L 153.662904 224.64 
z
" style="fill:#1f77b4;"/>
   </g>
   <g id="patch_124">
    <path clip-path="url(#pb217b20e38)" d="M 154.575166 224.64 
L 155.304975 224.64 
L 155.304975 224.64 
L 154.575166 224.64 
z
" style="fill:#1f77b4;"/>
   </g>
   <g id="patch_125">
    <path clip-path="url(#pb217b20e38)" d="M 155.487427 224.64 
L 156.217237 224.64 
L 156.217237 224.64 
L 155.487427 224.64 
z
" style="fill:#1f77b4;"/>
   </g>
   <g id="patch_126">
    <path clip-path="url(#pb217b20e38)" d="M 156.399689 224.64 
L 157.129498 224.64 
L 157.129498 224.64 
L 156.399689 224.64 
z
" style="fill:#1f77b4;"/>
   </g>
   <g id="patch_127">
    <path clip-path="url(#pb217b20e38)" d="M 157.311951 224.64 
L 158.04176 224.64 
L 158.04176 224.64 
L 157.311951 224.64 
z
" style="fill:#1f77b4;"/>
   </g>
   <g id="patch_128">
    <path clip-path="url(#pb217b20e38)" d="M 158.224212 224.64 
L 158.954021 224.64 
L 158.954021 224.64 
L 158.224212 224.64 
z
" style="fill:#1f77b4;"/>
   </g>
   <g id="patch_129">
    <path clip-path="url(#pb217b20e38)" d="M 159.136474 224.64 
L 159.866283 224.64 
L 159.866283 224.64 
L 159.136474 224.64 
z
" style="fill:#1f77b4;"/>
   </g>
   <g id="patch_130">
    <path clip-path="url(#pb217b20e38)" d="M 160.048735 224.64 
L 160.778545 224.64 
L 160.778545 224.64 
L 160.048735 224.64 
z
" style="fill:#1f77b4;"/>
   </g>
   <g id="patch_131">
    <path clip-path="url(#pb217b20e38)" d="M 160.960997 224.64 
L 161.690806 224.64 
L 161.690806 224.64 
L 160.960997 224.64 
z
" style="fill:#1f77b4;"/>
   </g>
   <g id="patch_132">
    <path clip-path="url(#pb217b20e38)" d="M 161.873258 224.64 
L 162.603068 224.64 
L 162.603068 224.64 
L 161.873258 224.64 
z
" style="fill:#1f77b4;"/>
   </g>
   <g id="patch_133">
    <path clip-path="url(#pb217b20e38)" d="M 162.78552 224.64 
L 163.515329 224.64 
L 163.515329 224.64 
L 162.78552 224.64 
z
" style="fill:#1f77b4;"/>
   </g>
   <g id="patch_134">
    <path clip-path="url(#pb217b20e38)" d="M 163.697782 224.64 
L 164.427591 224.64 
L 164.427591 224.64 
L 163.697782 224.64 
z
" style="fill:#1f77b4;"/>
   </g>
   <g id="patch_135">
    <path clip-path="url(#pb217b20e38)" d="M 164.610043 224.64 
L 165.339853 224.64 
L 165.339853 224.64 
L 164.610043 224.64 
z
" style="fill:#1f77b4;"/>
   </g>
   <g id="patch_136">
    <path clip-path="url(#pb217b20e38)" d="M 165.522305 224.64 
L 166.252114 224.64 
L 166.252114 224.64 
L 165.522305 224.64 
z
" style="fill:#1f77b4;"/>
   </g>
   <g id="patch_137">
    <path clip-path="url(#pb217b20e38)" d="M 166.434566 224.64 
L 167.164376 224.64 
L 167.164376 224.64 
L 166.434566 224.64 
z
" style="fill:#1f77b4;"/>
   </g>
   <g id="patch_138">
    <path clip-path="url(#pb217b20e38)" d="M 167.346828 224.64 
L 168.076637 224.64 
L 168.076637 224.64 
L 167.346828 224.64 
z
" style="fill:#1f77b4;"/>
   </g>
   <g id="patch_139">
    <path clip-path="url(#pb217b20e38)" d="M 168.25909 224.64 
L 168.988899 224.64 
L 168.988899 224.64 
L 168.25909 224.64 
z
" style="fill:#1f77b4;"/>
   </g>
   <g id="patch_140">
    <path clip-path="url(#pb217b20e38)" d="M 169.171351 224.64 
L 169.90116 224.64 
L 169.90116 224.64 
L 169.171351 224.64 
z
" style="fill:#1f77b4;"/>
   </g>
   <g id="patch_141">
    <path clip-path="url(#pb217b20e38)" d="M 170.083613 224.64 
L 170.813422 224.64 
L 170.813422 224.64 
L 170.083613 224.64 
z
" style="fill:#1f77b4;"/>
   </g>
   <g id="patch_142">
    <path clip-path="url(#pb217b20e38)" d="M 170.995874 224.64 
L 171.725684 224.64 
L 171.725684 224.64 
L 170.995874 224.64 
z
" style="fill:#1f77b4;"/>
   </g>
   <g id="patch_143">
    <path clip-path="url(#pb217b20e38)" d="M 171.908136 224.64 
L 172.637945 224.64 
L 172.637945 224.64 
L 171.908136 224.64 
z
" style="fill:#1f77b4;"/>
   </g>
   <g id="patch_144">
    <path clip-path="url(#pb217b20e38)" d="M 172.820397 224.64 
L 173.550207 224.64 
L 173.550207 224.64 
L 172.820397 224.64 
z
" style="fill:#1f77b4;"/>
   </g>
   <g id="patch_145">
    <path clip-path="url(#pb217b20e38)" d="M 173.732659 224.64 
L 174.462468 224.64 
L 174.462468 224.64 
L 173.732659 224.64 
z
" style="fill:#1f77b4;"/>
   </g>
   <g id="patch_146">
    <path clip-path="url(#pb217b20e38)" d="M 174.644921 224.64 
L 175.37473 224.64 
L 175.37473 224.64 
L 174.644921 224.64 
z
" style="fill:#1f77b4;"/>
   </g>
   <g id="patch_147">
    <path clip-path="url(#pb217b20e38)" d="M 175.557182 224.64 
L 176.286991 224.64 
L 176.286991 224.64 
L 175.557182 224.64 
z
" style="fill:#1f77b4;"/>
   </g>
   <g id="patch_148">
    <path clip-path="url(#pb217b20e38)" d="M 176.469444 224.64 
L 177.199253 224.64 
L 177.199253 224.64 
L 176.469444 224.64 
z
" style="fill:#1f77b4;"/>
   </g>
   <g id="patch_149">
    <path clip-path="url(#pb217b20e38)" d="M 177.381705 224.64 
L 178.111515 224.64 
L 178.111515 224.64 
L 177.381705 224.64 
z
" style="fill:#1f77b4;"/>
   </g>
   <g id="patch_150">
    <path clip-path="url(#pb217b20e38)" d="M 178.293967 224.64 
L 179.023776 224.64 
L 179.023776 224.64 
L 178.293967 224.64 
z
" style="fill:#1f77b4;"/>
   </g>
   <g id="patch_151">
    <path clip-path="url(#pb217b20e38)" d="M 179.206229 224.64 
L 179.936038 224.64 
L 179.936038 224.64 
L 179.206229 224.64 
z
" style="fill:#1f77b4;"/>
   </g>
   <g id="patch_152">
    <path clip-path="url(#pb217b20e38)" d="M 180.11849 224.64 
L 180.848299 224.64 
L 180.848299 224.64 
L 180.11849 224.64 
z
" style="fill:#1f77b4;"/>
   </g>
   <g id="patch_153">
    <path clip-path="url(#pb217b20e38)" d="M 181.030752 224.64 
L 181.760561 224.64 
L 181.760561 224.64 
L 181.030752 224.64 
z
" style="fill:#1f77b4;"/>
   </g>
   <g id="patch_154">
    <path clip-path="url(#pb217b20e38)" d="M 181.943013 224.64 
L 182.672823 224.64 
L 182.672823 224.64 
L 181.943013 224.64 
z
" style="fill:#1f77b4;"/>
   </g>
   <g id="patch_155">
    <path clip-path="url(#pb217b20e38)" d="M 182.855275 224.64 
L 183.585084 224.64 
L 183.585084 224.64 
L 182.855275 224.64 
z
" style="fill:#1f77b4;"/>
   </g>
   <g id="patch_156">
    <path clip-path="url(#pb217b20e38)" d="M 183.767536 224.64 
L 184.497346 224.64 
L 184.497346 224.64 
L 183.767536 224.64 
z
" style="fill:#1f77b4;"/>
   </g>
   <g id="patch_157">
    <path clip-path="url(#pb217b20e38)" d="M 184.679798 224.64 
L 185.409607 224.64 
L 185.409607 224.64 
L 184.679798 224.64 
z
" style="fill:#1f77b4;"/>
   </g>
   <g id="patch_158">
    <path clip-path="url(#pb217b20e38)" d="M 185.59206 224.64 
L 186.321869 224.64 
L 186.321869 224.64 
L 185.59206 224.64 
z
" style="fill:#1f77b4;"/>
   </g>
   <g id="patch_159">
    <path clip-path="url(#pb217b20e38)" d="M 186.504321 224.64 
L 187.23413 224.64 
L 187.23413 224.64 
L 186.504321 224.64 
z
" style="fill:#1f77b4;"/>
   </g>
   <g id="patch_160">
    <path clip-path="url(#pb217b20e38)" d="M 187.416583 224.64 
L 188.146392 224.64 
L 188.146392 224.64 
L 187.416583 224.64 
z
" style="fill:#1f77b4;"/>
   </g>
   <g id="patch_161">
    <path clip-path="url(#pb217b20e38)" d="M 188.328844 224.64 
L 189.058654 224.64 
L 189.058654 224.64 
L 188.328844 224.64 
z
" style="fill:#1f77b4;"/>
   </g>
   <g id="patch_162">
    <path clip-path="url(#pb217b20e38)" d="M 189.241106 224.64 
L 189.970915 224.64 
L 189.970915 224.64 
L 189.241106 224.64 
z
" style="fill:#1f77b4;"/>
   </g>
   <g id="patch_163">
    <path clip-path="url(#pb217b20e38)" d="M 190.153367 224.64 
L 190.883177 224.64 
L 190.883177 224.64 
L 190.153367 224.64 
z
" style="fill:#1f77b4;"/>
   </g>
   <g id="patch_164">
    <path clip-path="url(#pb217b20e38)" d="M 191.065629 224.64 
L 191.795438 224.64 
L 191.795438 224.64 
L 191.065629 224.64 
z
" style="fill:#1f77b4;"/>
   </g>
   <g id="patch_165">
    <path clip-path="url(#pb217b20e38)" d="M 191.977891 224.64 
L 192.7077 224.64 
L 192.7077 224.64 
L 191.977891 224.64 
z
" style="fill:#1f77b4;"/>
   </g>
   <g id="patch_166">
    <path clip-path="url(#pb217b20e38)" d="M 192.890152 224.64 
L 193.619961 224.64 
L 193.619961 236.72 
L 192.890152 236.72 
z
" style="fill:#1f77b4;"/>
   </g>
   <g id="patch_167">
    <path clip-path="url(#pb217b20e38)" d="M 193.802414 224.64 
L 194.532223 224.64 
L 194.532223 212.56 
L 193.802414 212.56 
z
" style="fill:#1f77b4;"/>
   </g>
   <g id="patch_168">
    <path clip-path="url(#pb217b20e38)" d="M 194.714675 224.64 
L 195.444485 224.64 
L 195.444485 224.64 
L 194.714675 224.64 
z
" style="fill:#1f77b4;"/>
   </g>
   <g id="patch_169">
    <path clip-path="url(#pb217b20e38)" d="M 195.626937 224.64 
L 196.356746 224.64 
L 196.356746 224.64 
L 195.626937 224.64 
z
" style="fill:#1f77b4;"/>
   </g>
   <g id="patch_170">
    <path clip-path="url(#pb217b20e38)" d="M 196.539199 224.64 
L 197.269008 224.64 
L 197.269008 224.64 
L 196.539199 224.64 
z
" style="fill:#1f77b4;"/>
   </g>
   <g id="patch_171">
    <path clip-path="url(#pb217b20e38)" d="M 197.45146 224.64 
L 198.181269 224.64 
L 198.181269 224.64 
L 197.45146 224.64 
z
" style="fill:#1f77b4;"/>
   </g>
   <g id="patch_172">
    <path clip-path="url(#pb217b20e38)" d="M 198.363722 224.64 
L 199.093531 224.64 
L 199.093531 224.64 
L 198.363722 224.64 
z
" style="fill:#1f77b4;"/>
   </g>
   <g id="patch_173">
    <path clip-path="url(#pb217b20e38)" d="M 199.275983 224.64 
L 200.005793 224.64 
L 200.005793 224.64 
L 199.275983 224.64 
z
" style="fill:#1f77b4;"/>
   </g>
   <g id="patch_174">
    <path clip-path="url(#pb217b20e38)" d="M 200.188245 224.64 
L 200.918054 224.64 
L 200.918054 224.64 
L 200.188245 224.64 
z
" style="fill:#1f77b4;"/>
   </g>
   <g id="patch_175">
    <path clip-path="url(#pb217b20e38)" d="M 201.100506 224.64 
L 201.830316 224.64 
L 201.830316 224.64 
L 201.100506 224.64 
z
" style="fill:#1f77b4;"/>
   </g>
   <g id="patch_176">
    <path clip-path="url(#pb217b20e38)" d="M 202.012768 224.64 
L 202.742577 224.64 
L 202.742577 224.64 
L 202.012768 224.64 
z
" style="fill:#1f77b4;"/>
   </g>
   <g id="patch_177">
    <path clip-path="url(#pb217b20e38)" d="M 202.92503 224.64 
L 203.654839 224.64 
L 203.654839 224.64 
L 202.92503 224.64 
z
" style="fill:#1f77b4;"/>
   </g>
   <g id="patch_178">
    <path clip-path="url(#pb217b20e38)" d="M 203.837291 224.64 
L 204.5671 224.64 
L 204.5671 224.64 
L 203.837291 224.64 
z
" style="fill:#1f77b4;"/>
   </g>
   <g id="patch_179">
    <path clip-path="url(#pb217b20e38)" d="M 204.749553 224.64 
L 205.479362 224.64 
L 205.479362 224.64 
L 204.749553 224.64 
z
" style="fill:#1f77b4;"/>
   </g>
   <g id="patch_180">
    <path clip-path="url(#pb217b20e38)" d="M 205.661814 224.64 
L 206.391624 224.64 
L 206.391624 224.64 
L 205.661814 224.64 
z
" style="fill:#1f77b4;"/>
   </g>
   <g id="patch_181">
    <path clip-path="url(#pb217b20e38)" d="M 206.574076 224.64 
L 207.303885 224.64 
L 207.303885 224.64 
L 206.574076 224.64 
z
" style="fill:#1f77b4;"/>
   </g>
   <g id="patch_182">
    <path clip-path="url(#pb217b20e38)" d="M 207.486338 224.64 
L 208.216147 224.64 
L 208.216147 224.64 
L 207.486338 224.64 
z
" style="fill:#1f77b4;"/>
   </g>
   <g id="patch_183">
    <path clip-path="url(#pb217b20e38)" d="M 208.398599 224.64 
L 209.128408 224.64 
L 209.128408 224.64 
L 208.398599 224.64 
z
" style="fill:#1f77b4;"/>
   </g>
   <g id="patch_184">
    <path clip-path="url(#pb217b20e38)" d="M 209.310861 224.64 
L 210.04067 224.64 
L 210.04067 224.64 
L 209.310861 224.64 
z
" style="fill:#1f77b4;"/>
   </g>
   <g id="patch_185">
    <path clip-path="url(#pb217b20e38)" d="M 210.223122 224.64 
L 210.952932 224.64 
L 210.952932 224.64 
L 210.223122 224.64 
z
" style="fill:#1f77b4;"/>
   </g>
   <g id="patch_186">
    <path clip-path="url(#pb217b20e38)" d="M 211.135384 224.64 
L 211.865193 224.64 
L 211.865193 224.64 
L 211.135384 224.64 
z
" style="fill:#1f77b4;"/>
   </g>
   <g id="patch_187">
    <path clip-path="url(#pb217b20e38)" d="M 212.047645 224.64 
L 212.777455 224.64 
L 212.777455 224.64 
L 212.047645 224.64 
z
" style="fill:#1f77b4;"/>
   </g>
   <g id="patch_188">
    <path clip-path="url(#pb217b20e38)" d="M 212.959907 224.64 
L 213.689716 224.64 
L 213.689716 224.64 
L 212.959907 224.64 
z
" style="fill:#1f77b4;"/>
   </g>
   <g id="patch_189">
    <path clip-path="url(#pb217b20e38)" d="M 213.872169 224.64 
L 214.601978 224.64 
L 214.601978 224.64 
L 213.872169 224.64 
z
" style="fill:#1f77b4;"/>
   </g>
   <g id="patch_190">
    <path clip-path="url(#pb217b20e38)" d="M 214.78443 224.64 
L 215.514239 224.64 
L 215.514239 224.64 
L 214.78443 224.64 
z
" style="fill:#1f77b4;"/>
   </g>
   <g id="patch_191">
    <path clip-path="url(#pb217b20e38)" d="M 215.696692 224.64 
L 216.426501 224.64 
L 216.426501 224.64 
L 215.696692 224.64 
z
" style="fill:#1f77b4;"/>
   </g>
   <g id="patch_192">
    <path clip-path="url(#pb217b20e38)" d="M 216.608953 224.64 
L 217.338763 224.64 
L 217.338763 224.64 
L 216.608953 224.64 
z
" style="fill:#1f77b4;"/>
   </g>
   <g id="patch_193">
    <path clip-path="url(#pb217b20e38)" d="M 217.521215 224.64 
L 218.251024 224.64 
L 218.251024 224.64 
L 217.521215 224.64 
z
" style="fill:#1f77b4;"/>
   </g>
   <g id="patch_194">
    <path clip-path="url(#pb217b20e38)" d="M 218.433476 224.64 
L 219.163286 224.64 
L 219.163286 224.64 
L 218.433476 224.64 
z
" style="fill:#1f77b4;"/>
   </g>
   <g id="patch_195">
    <path clip-path="url(#pb217b20e38)" d="M 219.345738 224.64 
L 220.075547 224.64 
L 220.075547 224.64 
L 219.345738 224.64 
z
" style="fill:#1f77b4;"/>
   </g>
   <g id="patch_196">
    <path clip-path="url(#pb217b20e38)" d="M 220.258 224.64 
L 220.987809 224.64 
L 220.987809 224.64 
L 220.258 224.64 
z
" style="fill:#1f77b4;"/>
   </g>
   <g id="patch_197">
    <path clip-path="url(#pb217b20e38)" d="M 221.170261 224.64 
L 221.90007 224.64 
L 221.90007 224.64 
L 221.170261 224.64 
z
" style="fill:#1f77b4;"/>
   </g>
   <g id="patch_198">
    <path clip-path="url(#pb217b20e38)" d="M 222.082523 224.64 
L 222.812332 224.64 
L 222.812332 224.64 
L 222.082523 224.64 
z
" style="fill:#1f77b4;"/>
   </g>
   <g id="patch_199">
    <path clip-path="url(#pb217b20e38)" d="M 222.994784 224.64 
L 223.724594 224.64 
L 223.724594 224.64 
L 222.994784 224.64 
z
" style="fill:#1f77b4;"/>
   </g>
   <g id="patch_200">
    <path clip-path="url(#pb217b20e38)" d="M 223.907046 224.64 
L 224.636855 224.64 
L 224.636855 224.64 
L 223.907046 224.64 
z
" style="fill:#1f77b4;"/>
   </g>
   <g id="patch_201">
    <path clip-path="url(#pb217b20e38)" d="M 224.819308 224.64 
L 225.549117 224.64 
L 225.549117 224.64 
L 224.819308 224.64 
z
" style="fill:#1f77b4;"/>
   </g>
   <g id="patch_202">
    <path clip-path="url(#pb217b20e38)" d="M 225.731569 224.64 
L 226.461378 224.64 
L 226.461378 224.64 
L 225.731569 224.64 
z
" style="fill:#1f77b4;"/>
   </g>
   <g id="patch_203">
    <path clip-path="url(#pb217b20e38)" d="M 226.643831 224.64 
L 227.37364 224.64 
L 227.37364 224.64 
L 226.643831 224.64 
z
" style="fill:#1f77b4;"/>
   </g>
   <g id="patch_204">
    <path clip-path="url(#pb217b20e38)" d="M 227.556092 224.64 
L 228.285902 224.64 
L 228.285902 224.64 
L 227.556092 224.64 
z
" style="fill:#1f77b4;"/>
   </g>
   <g id="patch_205">
    <path clip-path="url(#pb217b20e38)" d="M 228.468354 224.64 
L 229.198163 224.64 
L 229.198163 224.64 
L 228.468354 224.64 
z
" style="fill:#1f77b4;"/>
   </g>
   <g id="patch_206">
    <path clip-path="url(#pb217b20e38)" d="M 229.380615 224.64 
L 230.110425 224.64 
L 230.110425 224.64 
L 229.380615 224.64 
z
" style="fill:#1f77b4;"/>
   </g>
   <g id="patch_207">
    <path clip-path="url(#pb217b20e38)" d="M 230.292877 224.64 
L 231.022686 224.64 
L 231.022686 224.64 
L 230.292877 224.64 
z
" style="fill:#1f77b4;"/>
   </g>
   <g id="patch_208">
    <path clip-path="url(#pb217b20e38)" d="M 231.205139 224.64 
L 231.934948 224.64 
L 231.934948 224.64 
L 231.205139 224.64 
z
" style="fill:#1f77b4;"/>
   </g>
   <g id="patch_209">
    <path clip-path="url(#pb217b20e38)" d="M 232.1174 224.64 
L 232.847209 224.64 
L 232.847209 224.64 
L 232.1174 224.64 
z
" style="fill:#1f77b4;"/>
   </g>
   <g id="patch_210">
    <path clip-path="url(#pb217b20e38)" d="M 233.029662 224.64 
L 233.759471 224.64 
L 233.759471 224.64 
L 233.029662 224.64 
z
" style="fill:#1f77b4;"/>
   </g>
   <g id="patch_211">
    <path clip-path="url(#pb217b20e38)" d="M 233.941923 224.64 
L 234.671733 224.64 
L 234.671733 224.64 
L 233.941923 224.64 
z
" style="fill:#1f77b4;"/>
   </g>
   <g id="patch_212">
    <path clip-path="url(#pb217b20e38)" d="M 234.854185 224.64 
L 235.583994 224.64 
L 235.583994 224.64 
L 234.854185 224.64 
z
" style="fill:#1f77b4;"/>
   </g>
   <g id="patch_213">
    <path clip-path="url(#pb217b20e38)" d="M 235.766447 224.64 
L 236.496256 224.64 
L 236.496256 218.6 
L 235.766447 218.6 
z
" style="fill:#1f77b4;"/>
   </g>
   <g id="patch_214">
    <path clip-path="url(#pb217b20e38)" d="M 236.678708 224.64 
L 237.408517 224.64 
L 237.408517 224.64 
L 236.678708 224.64 
z
" style="fill:#1f77b4;"/>
   </g>
   <g id="patch_215">
    <path clip-path="url(#pb217b20e38)" d="M 237.59097 224.64 
L 238.320779 224.64 
L 238.320779 224.64 
L 237.59097 224.64 
z
" style="fill:#1f77b4;"/>
   </g>
   <g id="patch_216">
    <path clip-path="url(#pb217b20e38)" d="M 238.503231 224.64 
L 239.233041 224.64 
L 239.233041 224.64 
L 238.503231 224.64 
z
" style="fill:#1f77b4;"/>
   </g>
   <g id="patch_217">
    <path clip-path="url(#pb217b20e38)" d="M 239.415493 224.64 
L 240.145302 224.64 
L 240.145302 224.64 
L 239.415493 224.64 
z
" style="fill:#1f77b4;"/>
   </g>
   <g id="patch_218">
    <path clip-path="url(#pb217b20e38)" d="M 240.327754 224.64 
L 241.057564 224.64 
L 241.057564 224.64 
L 240.327754 224.64 
z
" style="fill:#1f77b4;"/>
   </g>
   <g id="patch_219">
    <path clip-path="url(#pb217b20e38)" d="M 241.240016 224.64 
L 241.969825 224.64 
L 241.969825 224.64 
L 241.240016 224.64 
z
" style="fill:#1f77b4;"/>
   </g>
   <g id="patch_220">
    <path clip-path="url(#pb217b20e38)" d="M 242.152278 224.64 
L 242.882087 224.64 
L 242.882087 224.64 
L 242.152278 224.64 
z
" style="fill:#1f77b4;"/>
   </g>
   <g id="patch_221">
    <path clip-path="url(#pb217b20e38)" d="M 243.064539 224.64 
L 243.794348 224.64 
L 243.794348 218.6 
L 243.064539 218.6 
z
" style="fill:#1f77b4;"/>
   </g>
   <g id="patch_222">
    <path clip-path="url(#pb217b20e38)" d="M 243.976801 224.64 
L 244.70661 224.64 
L 244.70661 224.64 
L 243.976801 224.64 
z
" style="fill:#1f77b4;"/>
   </g>
   <g id="patch_223">
    <path clip-path="url(#pb217b20e38)" d="M 244.889062 224.64 
L 245.618872 224.64 
L 245.618872 212.56 
L 244.889062 212.56 
z
" style="fill:#1f77b4;"/>
   </g>
   <g id="patch_224">
    <path clip-path="url(#pb217b20e38)" d="M 245.801324 224.64 
L 246.531133 224.64 
L 246.531133 224.64 
L 245.801324 224.64 
z
" style="fill:#1f77b4;"/>
   </g>
   <g id="patch_225">
    <path clip-path="url(#pb217b20e38)" d="M 246.713585 224.64 
L 247.443395 224.64 
L 247.443395 224.64 
L 246.713585 224.64 
z
" style="fill:#1f77b4;"/>
   </g>
   <g id="patch_226">
    <path clip-path="url(#pb217b20e38)" d="M 247.625847 224.64 
L 248.355656 224.64 
L 248.355656 224.64 
L 247.625847 224.64 
z
" style="fill:#1f77b4;"/>
   </g>
   <g id="patch_227">
    <path clip-path="url(#pb217b20e38)" d="M 248.538109 224.64 
L 249.267918 224.64 
L 249.267918 224.64 
L 248.538109 224.64 
z
" style="fill:#1f77b4;"/>
   </g>
   <g id="patch_228">
    <path clip-path="url(#pb217b20e38)" d="M 249.45037 224.64 
L 250.180179 224.64 
L 250.180179 206.52 
L 249.45037 206.52 
z
" style="fill:#1f77b4;"/>
   </g>
   <g id="patch_229">
    <path clip-path="url(#pb217b20e38)" d="M 250.362632 224.64 
L 251.092441 224.64 
L 251.092441 218.6 
L 250.362632 218.6 
z
" style="fill:#1f77b4;"/>
   </g>
   <g id="patch_230">
    <path clip-path="url(#pb217b20e38)" d="M 251.274893 224.64 
L 252.004703 224.64 
L 252.004703 200.48 
L 251.274893 200.48 
z
" style="fill:#1f77b4;"/>
   </g>
   <g id="patch_231">
    <path clip-path="url(#pb217b20e38)" d="M 252.187155 224.64 
L 252.916964 224.64 
L 252.916964 212.56 
L 252.187155 212.56 
z
" style="fill:#1f77b4;"/>
   </g>
   <g id="patch_232">
    <path clip-path="url(#pb217b20e38)" d="M 253.099417 224.64 
L 253.829226 224.64 
L 253.829226 212.56 
L 253.099417 212.56 
z
" style="fill:#1f77b4;"/>
   </g>
   <g id="patch_233">
    <path clip-path="url(#pb217b20e38)" d="M 254.011678 224.64 
L 254.741487 224.64 
L 254.741487 200.48 
L 254.011678 200.48 
z
" style="fill:#1f77b4;"/>
   </g>
   <g id="patch_234">
    <path clip-path="url(#pb217b20e38)" d="M 254.92394 224.64 
L 255.653749 224.64 
L 255.653749 206.52 
L 254.92394 206.52 
z
" style="fill:#1f77b4;"/>
   </g>
   <g id="patch_235">
    <path clip-path="url(#pb217b20e38)" d="M 255.836201 224.64 
L 256.566011 224.64 
L 256.566011 200.48 
L 255.836201 200.48 
z
" style="fill:#1f77b4;"/>
   </g>
   <g id="patch_236">
    <path clip-path="url(#pb217b20e38)" d="M 256.748463 224.64 
L 257.478272 224.64 
L 257.478272 218.6 
L 256.748463 218.6 
z
" style="fill:#1f77b4;"/>
   </g>
   <g id="patch_237">
    <path clip-path="url(#pb217b20e38)" d="M 257.660724 224.64 
L 258.390534 224.64 
L 258.390534 212.56 
L 257.660724 212.56 
z
" style="fill:#1f77b4;"/>
   </g>
   <g id="patch_238">
    <path clip-path="url(#pb217b20e38)" d="M 258.572986 224.64 
L 259.302795 224.64 
L 259.302795 200.48 
L 258.572986 200.48 
z
" style="fill:#1f77b4;"/>
   </g>
   <g id="patch_239">
    <path clip-path="url(#pb217b20e38)" d="M 259.485248 224.64 
L 260.215057 224.64 
L 260.215057 200.48 
L 259.485248 200.48 
z
" style="fill:#1f77b4;"/>
   </g>
   <g id="patch_240">
    <path clip-path="url(#pb217b20e38)" d="M 260.397509 224.64 
L 261.127318 224.64 
L 261.127318 182.36 
L 260.397509 182.36 
z
" style="fill:#1f77b4;"/>
   </g>
   <g id="patch_241">
    <path clip-path="url(#pb217b20e38)" d="M 261.309771 224.64 
L 262.03958 224.64 
L 262.03958 200.48 
L 261.309771 200.48 
z
" style="fill:#1f77b4;"/>
   </g>
   <g id="patch_242">
    <path clip-path="url(#pb217b20e38)" d="M 262.222032 224.64 
L 262.951842 224.64 
L 262.951842 200.48 
L 262.222032 200.48 
z
" style="fill:#1f77b4;"/>
   </g>
   <g id="patch_243">
    <path clip-path="url(#pb217b20e38)" d="M 263.134294 224.64 
L 263.864103 224.64 
L 263.864103 194.44 
L 263.134294 194.44 
z
" style="fill:#1f77b4;"/>
   </g>
   <g id="patch_244">
    <path clip-path="url(#pb217b20e38)" d="M 264.046555 224.64 
L 264.776365 224.64 
L 264.776365 170.28 
L 264.046555 170.28 
z
" style="fill:#1f77b4;"/>
   </g>
   <g id="patch_245">
    <path clip-path="url(#pb217b20e38)" d="M 264.958817 224.64 
L 265.688626 224.64 
L 265.688626 188.4 
L 264.958817 188.4 
z
" style="fill:#1f77b4;"/>
   </g>
   <g id="patch_246">
    <path clip-path="url(#pb217b20e38)" d="M 265.871079 224.64 
L 266.600888 224.64 
L 266.600888 170.28 
L 265.871079 170.28 
z
" style="fill:#1f77b4;"/>
   </g>
   <g id="patch_247">
    <path clip-path="url(#pb217b20e38)" d="M 266.78334 224.64 
L 267.51315 224.64 
L 267.51315 194.44 
L 266.78334 194.44 
z
" style="fill:#1f77b4;"/>
   </g>
   <g id="patch_248">
    <path clip-path="url(#pb217b20e38)" d="M 267.695602 224.64 
L 268.425411 224.64 
L 268.425411 109.88 
L 267.695602 109.88 
z
" style="fill:#1f77b4;"/>
   </g>
   <g id="patch_249">
    <path clip-path="url(#pb217b20e38)" d="M 268.607863 224.64 
L 269.337673 224.64 
L 269.337673 182.36 
L 268.607863 182.36 
z
" style="fill:#1f77b4;"/>
   </g>
   <g id="patch_250">
    <path clip-path="url(#pb217b20e38)" d="M 269.520125 224.64 
L 270.249934 224.64 
L 270.249934 170.28 
L 269.520125 170.28 
z
" style="fill:#1f77b4;"/>
   </g>
   <g id="patch_251">
    <path clip-path="url(#pb217b20e38)" d="M 270.432387 224.64 
L 271.162196 224.64 
L 271.162196 158.2 
L 270.432387 158.2 
z
" style="fill:#1f77b4;"/>
   </g>
   <g id="patch_252">
    <path clip-path="url(#pb217b20e38)" d="M 271.344648 224.64 
L 272.074457 224.64 
L 272.074457 146.12 
L 271.344648 146.12 
z
" style="fill:#1f77b4;"/>
   </g>
   <g id="patch_253">
    <path clip-path="url(#pb217b20e38)" d="M 272.25691 224.64 
L 272.986719 224.64 
L 272.986719 176.32 
L 272.25691 176.32 
z
" style="fill:#1f77b4;"/>
   </g>
   <g id="patch_254">
    <path clip-path="url(#pb217b20e38)" d="M 273.169171 224.64 
L 273.898981 224.64 
L 273.898981 128 
L 273.169171 128 
z
" style="fill:#1f77b4;"/>
   </g>
   <g id="patch_255">
    <path clip-path="url(#pb217b20e38)" d="M 274.081433 224.64 
L 274.811242 224.64 
L 274.811242 182.36 
L 274.081433 182.36 
z
" style="fill:#1f77b4;"/>
   </g>
   <g id="patch_256">
    <path clip-path="url(#pb217b20e38)" d="M 274.993694 224.64 
L 275.723504 224.64 
L 275.723504 194.44 
L 274.993694 194.44 
z
" style="fill:#1f77b4;"/>
   </g>
   <g id="patch_257">
    <path clip-path="url(#pb217b20e38)" d="M 275.905956 224.64 
L 276.635765 224.64 
L 276.635765 128 
L 275.905956 128 
z
" style="fill:#1f77b4;"/>
   </g>
   <g id="patch_258">
    <path clip-path="url(#pb217b20e38)" d="M 276.818218 224.64 
L 277.548027 224.64 
L 277.548027 176.32 
L 276.818218 176.32 
z
" style="fill:#1f77b4;"/>
   </g>
   <g id="patch_259">
    <path clip-path="url(#pb217b20e38)" d="M 277.730479 224.64 
L 278.460288 224.64 
L 278.460288 158.2 
L 277.730479 158.2 
z
" style="fill:#1f77b4;"/>
   </g>
   <g id="patch_260">
    <path clip-path="url(#pb217b20e38)" d="M 278.642741 224.64 
L 279.37255 224.64 
L 279.37255 158.2 
L 278.642741 158.2 
z
" style="fill:#1f77b4;"/>
   </g>
   <g id="patch_261">
    <path clip-path="url(#pb217b20e38)" d="M 279.555002 224.64 
L 280.284812 224.64 
L 280.284812 206.52 
L 279.555002 206.52 
z
" style="fill:#1f77b4;"/>
   </g>
   <g id="patch_262">
    <path clip-path="url(#pb217b20e38)" d="M 280.467264 224.64 
L 281.197073 224.64 
L 281.197073 182.36 
L 280.467264 182.36 
z
" style="fill:#1f77b4;"/>
   </g>
   <g id="patch_263">
    <path clip-path="url(#pb217b20e38)" d="M 281.379526 224.64 
L 282.109335 224.64 
L 282.109335 218.6 
L 281.379526 218.6 
z
" style="fill:#1f77b4;"/>
   </g>
   <g id="patch_264">
    <path clip-path="url(#pb217b20e38)" d="M 282.291787 224.64 
L 283.021596 224.64 
L 283.021596 200.48 
L 282.291787 200.48 
z
" style="fill:#1f77b4;"/>
   </g>
   <g id="patch_265">
    <path clip-path="url(#pb217b20e38)" d="M 283.204049 224.64 
L 283.933858 224.64 
L 283.933858 182.36 
L 283.204049 182.36 
z
" style="fill:#1f77b4;"/>
   </g>
   <g id="patch_266">
    <path clip-path="url(#pb217b20e38)" d="M 284.11631 224.64 
L 284.84612 224.64 
L 284.84612 128 
L 284.11631 128 
z
" style="fill:#1f77b4;"/>
   </g>
   <g id="patch_267">
    <path clip-path="url(#pb217b20e38)" d="M 285.028572 224.64 
L 285.758381 224.64 
L 285.758381 158.2 
L 285.028572 158.2 
z
" style="fill:#1f77b4;"/>
   </g>
   <g id="patch_268">
    <path clip-path="url(#pb217b20e38)" d="M 285.940833 224.64 
L 286.670643 224.64 
L 286.670643 206.52 
L 285.940833 206.52 
z
" style="fill:#1f77b4;"/>
   </g>
   <g id="patch_269">
    <path clip-path="url(#pb217b20e38)" d="M 286.853095 224.64 
L 287.582904 224.64 
L 287.582904 188.4 
L 286.853095 188.4 
z
" style="fill:#1f77b4;"/>
   </g>
   <g id="patch_270">
    <path clip-path="url(#pb217b20e38)" d="M 287.765357 224.64 
L 288.495166 224.64 
L 288.495166 194.44 
L 287.765357 194.44 
z
" style="fill:#1f77b4;"/>
   </g>
   <g id="patch_271">
    <path clip-path="url(#pb217b20e38)" d="M 288.677618 224.64 
L 289.407427 224.64 
L 289.407427 158.2 
L 288.677618 158.2 
z
" style="fill:#1f77b4;"/>
   </g>
   <g id="patch_272">
    <path clip-path="url(#pb217b20e38)" d="M 289.58988 224.64 
L 290.319689 224.64 
L 290.319689 164.24 
L 289.58988 164.24 
z
" style="fill:#1f77b4;"/>
   </g>
   <g id="patch_273">
    <path clip-path="url(#pb217b20e38)" d="M 290.502141 224.64 
L 291.231951 224.64 
L 291.231951 176.32 
L 290.502141 176.32 
z
" style="fill:#1f77b4;"/>
   </g>
   <g id="patch_274">
    <path clip-path="url(#pb217b20e38)" d="M 291.414403 224.64 
L 292.144212 224.64 
L 292.144212 121.96 
L 291.414403 121.96 
z
" style="fill:#1f77b4;"/>
   </g>
   <g id="patch_275">
    <path clip-path="url(#pb217b20e38)" d="M 292.326664 224.64 
L 293.056474 224.64 
L 293.056474 194.44 
L 292.326664 194.44 
z
" style="fill:#1f77b4;"/>
   </g>
   <g id="patch_276">
    <path clip-path="url(#pb217b20e38)" d="M 293.238926 224.64 
L 293.968735 224.64 
L 293.968735 200.48 
L 293.238926 200.48 
z
" style="fill:#1f77b4;"/>
   </g>
   <g id="patch_277">
    <path clip-path="url(#pb217b20e38)" d="M 294.151188 224.64 
L 294.880997 224.64 
L 294.880997 170.28 
L 294.151188 170.28 
z
" style="fill:#1f77b4;"/>
   </g>
   <g id="patch_278">
    <path clip-path="url(#pb217b20e38)" d="M 295.063449 224.64 
L 295.793258 224.64 
L 295.793258 164.24 
L 295.063449 164.24 
z
" style="fill:#1f77b4;"/>
   </g>
   <g id="patch_279">
    <path clip-path="url(#pb217b20e38)" d="M 295.975711 224.64 
L 296.70552 224.64 
L 296.70552 158.2 
L 295.975711 158.2 
z
" style="fill:#1f77b4;"/>
   </g>
   <g id="patch_280">
    <path clip-path="url(#pb217b20e38)" d="M 296.887972 224.64 
L 297.617782 224.64 
L 297.617782 194.44 
L 296.887972 194.44 
z
" style="fill:#1f77b4;"/>
   </g>
   <g id="patch_281">
    <path clip-path="url(#pb217b20e38)" d="M 297.800234 224.64 
L 298.530043 224.64 
L 298.530043 188.4 
L 297.800234 188.4 
z
" style="fill:#1f77b4;"/>
   </g>
   <g id="patch_282">
    <path clip-path="url(#pb217b20e38)" d="M 298.712496 224.64 
L 299.442305 224.64 
L 299.442305 176.32 
L 298.712496 176.32 
z
" style="fill:#1f77b4;"/>
   </g>
   <g id="patch_283">
    <path clip-path="url(#pb217b20e38)" d="M 299.624757 224.64 
L 300.354566 224.64 
L 300.354566 206.52 
L 299.624757 206.52 
z
" style="fill:#1f77b4;"/>
   </g>
   <g id="patch_284">
    <path clip-path="url(#pb217b20e38)" d="M 300.537019 224.64 
L 301.266828 224.64 
L 301.266828 212.56 
L 300.537019 212.56 
z
" style="fill:#1f77b4;"/>
   </g>
   <g id="patch_285">
    <path clip-path="url(#pb217b20e38)" d="M 301.44928 224.64 
L 302.17909 224.64 
L 302.17909 188.4 
L 301.44928 188.4 
z
" style="fill:#1f77b4;"/>
   </g>
   <g id="patch_286">
    <path clip-path="url(#pb217b20e38)" d="M 302.361542 224.64 
L 303.091351 224.64 
L 303.091351 218.6 
L 302.361542 218.6 
z
" style="fill:#1f77b4;"/>
   </g>
   <g id="patch_287">
    <path clip-path="url(#pb217b20e38)" d="M 303.273803 224.64 
L 304.003613 224.64 
L 304.003613 194.44 
L 303.273803 194.44 
z
" style="fill:#1f77b4;"/>
   </g>
   <g id="patch_288">
    <path clip-path="url(#pb217b20e38)" d="M 304.186065 224.64 
L 304.915874 224.64 
L 304.915874 182.36 
L 304.186065 182.36 
z
" style="fill:#1f77b4;"/>
   </g>
   <g id="patch_289">
    <path clip-path="url(#pb217b20e38)" d="M 305.098327 224.64 
L 305.828136 224.64 
L 305.828136 182.36 
L 305.098327 182.36 
z
" style="fill:#1f77b4;"/>
   </g>
   <g id="patch_290">
    <path clip-path="url(#pb217b20e38)" d="M 306.010588 224.64 
L 306.740397 224.64 
L 306.740397 212.56 
L 306.010588 212.56 
z
" style="fill:#1f77b4;"/>
   </g>
   <g id="patch_291">
    <path clip-path="url(#pb217b20e38)" d="M 306.92285 224.64 
L 307.652659 224.64 
L 307.652659 212.56 
L 306.92285 212.56 
z
" style="fill:#1f77b4;"/>
   </g>
   <g id="patch_292">
    <path clip-path="url(#pb217b20e38)" d="M 307.835111 224.64 
L 308.564921 224.64 
L 308.564921 182.36 
L 307.835111 182.36 
z
" style="fill:#1f77b4;"/>
   </g>
   <g id="patch_293">
    <path clip-path="url(#pb217b20e38)" d="M 308.747373 224.64 
L 309.477182 224.64 
L 309.477182 212.56 
L 308.747373 212.56 
z
" style="fill:#1f77b4;"/>
   </g>
   <g id="patch_294">
    <path clip-path="url(#pb217b20e38)" d="M 309.659635 224.64 
L 310.389444 224.64 
L 310.389444 176.32 
L 309.659635 176.32 
z
" style="fill:#1f77b4;"/>
   </g>
   <g id="patch_295">
    <path clip-path="url(#pb217b20e38)" d="M 310.571896 224.64 
L 311.301705 224.64 
L 311.301705 206.52 
L 310.571896 206.52 
z
" style="fill:#1f77b4;"/>
   </g>
   <g id="patch_296">
    <path clip-path="url(#pb217b20e38)" d="M 311.484158 224.64 
L 312.213967 224.64 
L 312.213967 200.48 
L 311.484158 200.48 
z
" style="fill:#1f77b4;"/>
   </g>
   <g id="patch_297">
    <path clip-path="url(#pb217b20e38)" d="M 312.396419 224.64 
L 313.126229 224.64 
L 313.126229 194.44 
L 312.396419 194.44 
z
" style="fill:#1f77b4;"/>
   </g>
   <g id="patch_298">
    <path clip-path="url(#pb217b20e38)" d="M 313.308681 224.64 
L 314.03849 224.64 
L 314.03849 194.44 
L 313.308681 194.44 
z
" style="fill:#1f77b4;"/>
   </g>
   <g id="patch_299">
    <path clip-path="url(#pb217b20e38)" d="M 314.220942 224.64 
L 314.950752 224.64 
L 314.950752 212.56 
L 314.220942 212.56 
z
" style="fill:#1f77b4;"/>
   </g>
   <g id="patch_300">
    <path clip-path="url(#pb217b20e38)" d="M 315.133204 224.64 
L 315.863013 224.64 
L 315.863013 200.48 
L 315.133204 200.48 
z
" style="fill:#1f77b4;"/>
   </g>
   <g id="patch_301">
    <path clip-path="url(#pb217b20e38)" d="M 316.045466 224.64 
L 316.775275 224.64 
L 316.775275 218.6 
L 316.045466 218.6 
z
" style="fill:#1f77b4;"/>
   </g>
   <g id="patch_302">
    <path clip-path="url(#pb217b20e38)" d="M 316.957727 224.64 
L 317.687536 224.64 
L 317.687536 188.4 
L 316.957727 188.4 
z
" style="fill:#1f77b4;"/>
   </g>
   <g id="patch_303">
    <path clip-path="url(#pb217b20e38)" d="M 317.869989 224.64 
L 318.599798 224.64 
L 318.599798 170.28 
L 317.869989 170.28 
z
" style="fill:#1f77b4;"/>
   </g>
   <g id="patch_304">
    <path clip-path="url(#pb217b20e38)" d="M 318.78225 224.64 
L 319.51206 224.64 
L 319.51206 224.64 
L 318.78225 224.64 
z
" style="fill:#1f77b4;"/>
   </g>
   <g id="patch_305">
    <path clip-path="url(#pb217b20e38)" d="M 319.694512 224.64 
L 320.424321 224.64 
L 320.424321 218.6 
L 319.694512 218.6 
z
" style="fill:#1f77b4;"/>
   </g>
   <g id="patch_306">
    <path clip-path="url(#pb217b20e38)" d="M 320.606773 224.64 
L 321.336583 224.64 
L 321.336583 200.48 
L 320.606773 200.48 
z
" style="fill:#1f77b4;"/>
   </g>
   <g id="patch_307">
    <path clip-path="url(#pb217b20e38)" d="M 321.519035 224.64 
L 322.248844 224.64 
L 322.248844 194.44 
L 321.519035 194.44 
z
" style="fill:#1f77b4;"/>
   </g>
   <g id="patch_308">
    <path clip-path="url(#pb217b20e38)" d="M 322.431297 224.64 
L 323.161106 224.64 
L 323.161106 176.32 
L 322.431297 176.32 
z
" style="fill:#1f77b4;"/>
   </g>
   <g id="patch_309">
    <path clip-path="url(#pb217b20e38)" d="M 323.343558 224.64 
L 324.073367 224.64 
L 324.073367 188.4 
L 323.343558 188.4 
z
" style="fill:#1f77b4;"/>
   </g>
   <g id="patch_310">
    <path clip-path="url(#pb217b20e38)" d="M 324.25582 224.64 
L 324.985629 224.64 
L 324.985629 194.44 
L 324.25582 194.44 
z
" style="fill:#1f77b4;"/>
   </g>
   <g id="patch_311">
    <path clip-path="url(#pb217b20e38)" d="M 325.168081 224.64 
L 325.897891 224.64 
L 325.897891 212.56 
L 325.168081 212.56 
z
" style="fill:#1f77b4;"/>
   </g>
   <g id="patch_312">
    <path clip-path="url(#pb217b20e38)" d="M 326.080343 224.64 
L 326.810152 224.64 
L 326.810152 212.56 
L 326.080343 212.56 
z
" style="fill:#1f77b4;"/>
   </g>
   <g id="patch_313">
    <path clip-path="url(#pb217b20e38)" d="M 326.992605 224.64 
L 327.722414 224.64 
L 327.722414 170.28 
L 326.992605 170.28 
z
" style="fill:#1f77b4;"/>
   </g>
   <g id="patch_314">
    <path clip-path="url(#pb217b20e38)" d="M 327.904866 224.64 
L 328.634675 224.64 
L 328.634675 200.48 
L 327.904866 200.48 
z
" style="fill:#1f77b4;"/>
   </g>
   <g id="patch_315">
    <path clip-path="url(#pb217b20e38)" d="M 328.817128 224.64 
L 329.546937 224.64 
L 329.546937 182.36 
L 328.817128 182.36 
z
" style="fill:#1f77b4;"/>
   </g>
   <g id="patch_316">
    <path clip-path="url(#pb217b20e38)" d="M 329.729389 224.64 
L 330.459199 224.64 
L 330.459199 206.52 
L 329.729389 206.52 
z
" style="fill:#1f77b4;"/>
   </g>
   <g id="patch_317">
    <path clip-path="url(#pb217b20e38)" d="M 330.641651 224.64 
L 331.37146 224.64 
L 331.37146 206.52 
L 330.641651 206.52 
z
" style="fill:#1f77b4;"/>
   </g>
   <g id="patch_318">
    <path clip-path="url(#pb217b20e38)" d="M 331.553912 224.64 
L 332.283722 224.64 
L 332.283722 200.48 
L 331.553912 200.48 
z
" style="fill:#1f77b4;"/>
   </g>
   <g id="patch_319">
    <path clip-path="url(#pb217b20e38)" d="M 332.466174 224.64 
L 333.195983 224.64 
L 333.195983 200.48 
L 332.466174 200.48 
z
" style="fill:#1f77b4;"/>
   </g>
   <g id="patch_320">
    <path clip-path="url(#pb217b20e38)" d="M 333.378436 224.64 
L 334.108245 224.64 
L 334.108245 176.32 
L 333.378436 176.32 
z
" style="fill:#1f77b4;"/>
   </g>
   <g id="patch_321">
    <path clip-path="url(#pb217b20e38)" d="M 334.290697 224.64 
L 335.020506 224.64 
L 335.020506 212.56 
L 334.290697 212.56 
z
" style="fill:#1f77b4;"/>
   </g>
   <g id="patch_322">
    <path clip-path="url(#pb217b20e38)" d="M 335.202959 224.64 
L 335.932768 224.64 
L 335.932768 200.48 
L 335.202959 200.48 
z
" style="fill:#1f77b4;"/>
   </g>
   <g id="patch_323">
    <path clip-path="url(#pb217b20e38)" d="M 336.11522 224.64 
L 336.84503 224.64 
L 336.84503 206.52 
L 336.11522 206.52 
z
" style="fill:#1f77b4;"/>
   </g>
   <g id="patch_324">
    <path clip-path="url(#pb217b20e38)" d="M 337.027482 224.64 
L 337.757291 224.64 
L 337.757291 182.36 
L 337.027482 182.36 
z
" style="fill:#1f77b4;"/>
   </g>
   <g id="patch_325">
    <path clip-path="url(#pb217b20e38)" d="M 337.939744 224.64 
L 338.669553 224.64 
L 338.669553 200.48 
L 337.939744 200.48 
z
" style="fill:#1f77b4;"/>
   </g>
   <g id="patch_326">
    <path clip-path="url(#pb217b20e38)" d="M 338.852005 224.64 
L 339.581814 224.64 
L 339.581814 212.56 
L 338.852005 212.56 
z
" style="fill:#1f77b4;"/>
   </g>
   <g id="patch_327">
    <path clip-path="url(#pb217b20e38)" d="M 339.764267 224.64 
L 340.494076 224.64 
L 340.494076 194.44 
L 339.764267 194.44 
z
" style="fill:#1f77b4;"/>
   </g>
   <g id="patch_328">
    <path clip-path="url(#pb217b20e38)" d="M 340.676528 224.64 
L 341.406338 224.64 
L 341.406338 194.44 
L 340.676528 194.44 
z
" style="fill:#1f77b4;"/>
   </g>
   <g id="patch_329">
    <path clip-path="url(#pb217b20e38)" d="M 341.58879 224.64 
L 342.318599 224.64 
L 342.318599 212.56 
L 341.58879 212.56 
z
" style="fill:#1f77b4;"/>
   </g>
   <g id="patch_330">
    <path clip-path="url(#pb217b20e38)" d="M 342.501051 224.64 
L 343.230861 224.64 
L 343.230861 188.4 
L 342.501051 188.4 
z
" style="fill:#1f77b4;"/>
   </g>
   <g id="patch_331">
    <path clip-path="url(#pb217b20e38)" d="M 343.413313 224.64 
L 344.143122 224.64 
L 344.143122 200.48 
L 343.413313 200.48 
z
" style="fill:#1f77b4;"/>
   </g>
   <g id="patch_332">
    <path clip-path="url(#pb217b20e38)" d="M 344.325575 224.64 
L 345.055384 224.64 
L 345.055384 194.44 
L 344.325575 194.44 
z
" style="fill:#1f77b4;"/>
   </g>
   <g id="patch_333">
    <path clip-path="url(#pb217b20e38)" d="M 345.237836 224.64 
L 345.967645 224.64 
L 345.967645 194.44 
L 345.237836 194.44 
z
" style="fill:#1f77b4;"/>
   </g>
   <g id="patch_334">
    <path clip-path="url(#pb217b20e38)" d="M 346.150098 224.64 
L 346.879907 224.64 
L 346.879907 188.4 
L 346.150098 188.4 
z
" style="fill:#1f77b4;"/>
   </g>
   <g id="patch_335">
    <path clip-path="url(#pb217b20e38)" d="M 347.062359 224.64 
L 347.792169 224.64 
L 347.792169 212.56 
L 347.062359 212.56 
z
" style="fill:#1f77b4;"/>
   </g>
   <g id="patch_336">
    <path clip-path="url(#pb217b20e38)" d="M 347.974621 224.64 
L 348.70443 224.64 
L 348.70443 164.24 
L 347.974621 164.24 
z
" style="fill:#1f77b4;"/>
   </g>
   <g id="patch_337">
    <path clip-path="url(#pb217b20e38)" d="M 348.886882 224.64 
L 349.616692 224.64 
L 349.616692 194.44 
L 348.886882 194.44 
z
" style="fill:#1f77b4;"/>
   </g>
   <g id="patch_338">
    <path clip-path="url(#pb217b20e38)" d="M 349.799144 224.64 
L 350.528953 224.64 
L 350.528953 194.44 
L 349.799144 194.44 
z
" style="fill:#1f77b4;"/>
   </g>
   <g id="patch_339">
    <path clip-path="url(#pb217b20e38)" d="M 350.711406 224.64 
L 351.441215 224.64 
L 351.441215 176.32 
L 350.711406 176.32 
z
" style="fill:#1f77b4;"/>
   </g>
   <g id="patch_340">
    <path clip-path="url(#pb217b20e38)" d="M 351.623667 224.64 
L 352.353476 224.64 
L 352.353476 206.52 
L 351.623667 206.52 
z
" style="fill:#1f77b4;"/>
   </g>
   <g id="patch_341">
    <path clip-path="url(#pb217b20e38)" d="M 352.535929 224.64 
L 353.265738 224.64 
L 353.265738 194.44 
L 352.535929 194.44 
z
" style="fill:#1f77b4;"/>
   </g>
   <g id="patch_342">
    <path clip-path="url(#pb217b20e38)" d="M 353.44819 224.64 
L 354.178 224.64 
L 354.178 194.44 
L 353.44819 194.44 
z
" style="fill:#1f77b4;"/>
   </g>
   <g id="patch_343">
    <path clip-path="url(#pb217b20e38)" d="M 354.360452 224.64 
L 355.090261 224.64 
L 355.090261 194.44 
L 354.360452 194.44 
z
" style="fill:#1f77b4;"/>
   </g>
   <g id="patch_344">
    <path clip-path="url(#pb217b20e38)" d="M 355.272714 224.64 
L 356.002523 224.64 
L 356.002523 170.28 
L 355.272714 170.28 
z
" style="fill:#1f77b4;"/>
   </g>
   <g id="patch_345">
    <path clip-path="url(#pb217b20e38)" d="M 356.184975 224.64 
L 356.914784 224.64 
L 356.914784 200.48 
L 356.184975 200.48 
z
" style="fill:#1f77b4;"/>
   </g>
   <g id="patch_346">
    <path clip-path="url(#pb217b20e38)" d="M 357.097237 224.64 
L 357.827046 224.64 
L 357.827046 188.4 
L 357.097237 188.4 
z
" style="fill:#1f77b4;"/>
   </g>
   <g id="patch_347">
    <path clip-path="url(#pb217b20e38)" d="M 358.009498 224.64 
L 358.739308 224.64 
L 358.739308 146.12 
L 358.009498 146.12 
z
" style="fill:#1f77b4;"/>
   </g>
   <g id="patch_348">
    <path clip-path="url(#pb217b20e38)" d="M 358.92176 224.64 
L 359.651569 224.64 
L 359.651569 146.12 
L 358.92176 146.12 
z
" style="fill:#1f77b4;"/>
   </g>
   <g id="patch_349">
    <path clip-path="url(#pb217b20e38)" d="M 359.834021 224.64 
L 360.563831 224.64 
L 360.563831 188.4 
L 359.834021 188.4 
z
" style="fill:#1f77b4;"/>
   </g>
   <g id="patch_350">
    <path clip-path="url(#pb217b20e38)" d="M 360.746283 224.64 
L 361.476092 224.64 
L 361.476092 206.52 
L 360.746283 206.52 
z
" style="fill:#1f77b4;"/>
   </g>
   <g id="patch_351">
    <path clip-path="url(#pb217b20e38)" d="M 361.658545 224.64 
L 362.388354 224.64 
L 362.388354 182.36 
L 361.658545 182.36 
z
" style="fill:#1f77b4;"/>
   </g>
   <g id="patch_352">
    <path clip-path="url(#pb217b20e38)" d="M 362.570806 224.64 
L 363.300615 224.64 
L 363.300615 200.48 
L 362.570806 200.48 
z
" style="fill:#1f77b4;"/>
   </g>
   <g id="patch_353">
    <path clip-path="url(#pb217b20e38)" d="M 363.483068 224.64 
L 364.212877 224.64 
L 364.212877 194.44 
L 363.483068 194.44 
z
" style="fill:#1f77b4;"/>
   </g>
   <g id="patch_354">
    <path clip-path="url(#pb217b20e38)" d="M 364.395329 224.64 
L 365.125139 224.64 
L 365.125139 176.32 
L 364.395329 176.32 
z
" style="fill:#1f77b4;"/>
   </g>
   <g id="patch_355">
    <path clip-path="url(#pb217b20e38)" d="M 365.307591 224.64 
L 366.0374 224.64 
L 366.0374 200.48 
L 365.307591 200.48 
z
" style="fill:#1f77b4;"/>
   </g>
   <g id="patch_356">
    <path clip-path="url(#pb217b20e38)" d="M 366.219853 224.64 
L 366.949662 224.64 
L 366.949662 218.6 
L 366.219853 218.6 
z
" style="fill:#1f77b4;"/>
   </g>
   <g id="patch_357">
    <path clip-path="url(#pb217b20e38)" d="M 367.132114 224.64 
L 367.861923 224.64 
L 367.861923 200.48 
L 367.132114 200.48 
z
" style="fill:#1f77b4;"/>
   </g>
   <g id="patch_358">
    <path clip-path="url(#pb217b20e38)" d="M 368.044376 224.64 
L 368.774185 224.64 
L 368.774185 200.48 
L 368.044376 200.48 
z
" style="fill:#1f77b4;"/>
   </g>
   <g id="patch_359">
    <path clip-path="url(#pb217b20e38)" d="M 368.956637 224.64 
L 369.686447 224.64 
L 369.686447 200.48 
L 368.956637 200.48 
z
" style="fill:#1f77b4;"/>
   </g>
   <g id="patch_360">
    <path clip-path="url(#pb217b20e38)" d="M 369.868899 224.64 
L 370.598708 224.64 
L 370.598708 206.52 
L 369.868899 206.52 
z
" style="fill:#1f77b4;"/>
   </g>
   <g id="patch_361">
    <path clip-path="url(#pb217b20e38)" d="M 370.78116 224.64 
L 371.51097 224.64 
L 371.51097 200.48 
L 370.78116 200.48 
z
" style="fill:#1f77b4;"/>
   </g>
   <g id="patch_362">
    <path clip-path="url(#pb217b20e38)" d="M 371.693422 224.64 
L 372.423231 224.64 
L 372.423231 194.44 
L 371.693422 194.44 
z
" style="fill:#1f77b4;"/>
   </g>
   <g id="patch_363">
    <path clip-path="url(#pb217b20e38)" d="M 372.605684 224.64 
L 373.335493 224.64 
L 373.335493 212.56 
L 372.605684 212.56 
z
" style="fill:#1f77b4;"/>
   </g>
   <g id="patch_364">
    <path clip-path="url(#pb217b20e38)" d="M 373.517945 224.64 
L 374.247754 224.64 
L 374.247754 218.6 
L 373.517945 218.6 
z
" style="fill:#1f77b4;"/>
   </g>
   <g id="patch_365">
    <path clip-path="url(#pb217b20e38)" d="M 374.430207 224.64 
L 375.160016 224.64 
L 375.160016 188.4 
L 374.430207 188.4 
z
" style="fill:#1f77b4;"/>
   </g>
   <g id="patch_366">
    <path clip-path="url(#pb217b20e38)" d="M 375.342468 224.64 
L 376.072278 224.64 
L 376.072278 212.56 
L 375.342468 212.56 
z
" style="fill:#1f77b4;"/>
   </g>
   <g id="patch_367">
    <path clip-path="url(#pb217b20e38)" d="M 376.25473 224.64 
L 376.984539 224.64 
L 376.984539 206.52 
L 376.25473 206.52 
z
" style="fill:#1f77b4;"/>
   </g>
   <g id="patch_368">
    <path clip-path="url(#pb217b20e38)" d="M 377.166991 224.64 
L 377.896801 224.64 
L 377.896801 224.64 
L 377.166991 224.64 
z
" style="fill:#1f77b4;"/>
   </g>
   <g id="patch_369">
    <path clip-path="url(#pb217b20e38)" d="M 378.079253 224.64 
L 378.809062 224.64 
L 378.809062 176.32 
L 378.079253 176.32 
z
" style="fill:#1f77b4;"/>
   </g>
   <g id="matplotlib.axis_1">
    <g id="xtick_1">
     <g id="line2d_1">
      <defs>
       <path d="M 0 0 
L 0 3.5 
" id="m5056063324" style="stroke:#000000;stroke-width:0.8;"/>
      </defs>
      <g>
       <use style="stroke:#000000;stroke-width:0.8;" x="87.432714" xlink:href="#m5056063324" y="224.64"/>
      </g>
     </g>
     <g id="text_1">
      <!-- 2020-05 -->
      <g transform="translate(89.592127 264.845436)rotate(-90)scale(0.1 -0.1)">
       <defs>
        <path d="M 1.59375 2.5 
L 1.59375 0 
C 20.296875 0 20.296875 0 23.90625 0 
C 27.5 0 27.5 0 46.796875 0 
C 46.59375 1.953125 46.59375 2.90625 46.59375 4.203125 
C 46.59375 5.4375 46.59375 6.359375 46.796875 8.421875 
C 35.296875 8.421875 30.703125 8.421875 12.203125 8.421875 
L 30.40625 27.515625 
C 40.09375 37.71875 43.09375 43.171875 43.09375 50.59375 
C 43.09375 61.96875 35.296875 69 22.59375 69 
C 15.40625 69 10.5 67 5.59375 62.015625 
L 3.90625 48.421875 
L 6.796875 48.421875 
L 8.09375 53.015625 
C 9.703125 58.796875 13.296875 61.296875 20 61.296875 
C 28.59375 61.296875 34.09375 55.890625 34.09375 47.421875 
C 34.09375 39.921875 29.90625 32.546875 18.59375 20.5625 
z
" id="URW_Palladio_L_Roman-50"/>
        <path d="M 26.296875 69 
C 10.796875 69 2.90625 56.6875 2.90625 32.453125 
C 2.90625 20.71875 5 10.625 8.5 5.71875 
C 12 0.796875 17.59375 -2 23.796875 -2 
C 38.90625 -2 46.5 11.015625 46.5 36.65625 
C 46.5 58.578125 40 69 26.296875 69 
z
M 24.5 65.5 
C 34.203125 65.5 38.09375 55.6875 38.09375 31.640625 
C 38.09375 10.328125 34.296875 1.5 25.09375 1.5 
C 15.40625 1.5 11.296875 11.625 11.296875 36.0625 
C 11.296875 57.1875 15 65.5 24.5 65.5 
z
" id="URW_Palladio_L_Roman-48"/>
        <path d="M 28.203125 22 
L 31.203125 28.703125 
L 30.703125 29.203125 
L 4.40625 29.203125 
L 1.703125 22.5 
L 2.203125 22 
z
" id="URW_Palladio_L_Roman-45"/>
        <path d="M 12.703125 60.578125 
C 25.59375 60.578125 31.203125 60.578125 43.203125 60.578125 
L 43.703125 61.046875 
C 43.5 62.75 43.5 63.5 43.5 64.75 
C 43.5 66.078125 43.5 66.828125 43.703125 68.53125 
L 43.203125 69 
C 35.703125 69 31.203125 69 25.796875 69 
C 20.296875 69 15.90625 69 8.40625 69 
L 7.90625 68.796875 
C 8 62.671875 8.09375 58.265625 8.09375 55.046875 
C 8.09375 46.515625 7.796875 36.875 7.5 32.453125 
L 9.5 31.84375 
C 14.203125 36.578125 16.90625 38 21.796875 38 
C 31.40625 38 37.40625 31.140625 37.40625 20.25 
C 37.40625 9.0625 31 2.5 20.09375 2.5 
C 14.703125 2.5 9.703125 4.328125 8.296875 6.9375 
L 3.703125 15.203125 
L 1.296875 13.796875 
C 3.59375 8.0625 4.796875 4.84375 6.203125 0.421875 
C 9 -1.109375 13 -2 17.296875 -2 
C 24 -2 31.09375 0.921875 36.59375 5.75 
C 42.703125 11.1875 45.90625 18.03125 45.90625 25.46875 
C 45.90625 36.859375 37.796875 44.90625 26.40625 44.90625 
C 21.59375 44.90625 18 43.609375 11.796875 39.90625 
z
" id="URW_Palladio_L_Roman-53"/>
       </defs>
       <use transform="scale(0.996264)" xlink:href="#URW_Palladio_L_Roman-50"/>
       <use transform="translate(49.8132 0)scale(0.996264)" xlink:href="#URW_Palladio_L_Roman-48"/>
       <use transform="translate(99.626401 0)scale(0.996264)" xlink:href="#URW_Palladio_L_Roman-50"/>
       <use transform="translate(149.439601 0)scale(0.996264)" xlink:href="#URW_Palladio_L_Roman-48"/>
       <use transform="translate(199.252802 0)scale(0.996264)" xlink:href="#URW_Palladio_L_Roman-45"/>
       <use transform="translate(232.428032 0)scale(0.996264)" xlink:href="#URW_Palladio_L_Roman-48"/>
       <use transform="translate(282.241232 0)scale(0.996264)" xlink:href="#URW_Palladio_L_Roman-53"/>
      </g>
     </g>
    </g>
    <g id="xtick_2">
     <g id="line2d_2">
      <g>
       <use style="stroke:#000000;stroke-width:0.8;" x="143.08067" xlink:href="#m5056063324" y="224.64"/>
      </g>
     </g>
     <g id="text_2">
      <!-- 2020-07 -->
      <g transform="translate(145.240083 264.845436)rotate(-90)scale(0.1 -0.1)">
       <defs>
        <path d="M 5.59375 0.5 
L 6.5 -0.796875 
C 10.40625 -0.5 10.40625 -0.5 11.09375 -0.5 
C 11.796875 -0.5 11.796875 -0.5 15.703125 -0.796875 
C 19.90625 10.140625 24.796875 20.578125 31.40625 32.609375 
L 49.703125 65.609375 
L 49.703125 68.3125 
C 38.90625 68.3125 35.40625 68.3125 27.296875 68.3125 
C 20 68.3125 15.09375 68.3125 5.40625 68.3125 
L 4.40625 68.109375 
C 4.703125 58.59375 4.703125 58.59375 4.703125 57.578125 
C 4.703125 56.46875 4.703125 56.46875 4.40625 47.359375 
L 7.40625 47.359375 
L 8.09375 52.96875 
C 8.90625 59.203125 9.59375 60 14.203125 60 
L 40.90625 60 
C 36.90625 51.765625 33.796875 45.953125 30 39.828125 
z
" id="URW_Palladio_L_Roman-55"/>
       </defs>
       <use transform="scale(0.996264)" xlink:href="#URW_Palladio_L_Roman-50"/>
       <use transform="translate(49.8132 0)scale(0.996264)" xlink:href="#URW_Palladio_L_Roman-48"/>
       <use transform="translate(99.626401 0)scale(0.996264)" xlink:href="#URW_Palladio_L_Roman-50"/>
       <use transform="translate(149.439601 0)scale(0.996264)" xlink:href="#URW_Palladio_L_Roman-48"/>
       <use transform="translate(199.252802 0)scale(0.996264)" xlink:href="#URW_Palladio_L_Roman-45"/>
       <use transform="translate(232.428032 0)scale(0.996264)" xlink:href="#URW_Palladio_L_Roman-48"/>
       <use transform="translate(282.241232 0)scale(0.996264)" xlink:href="#URW_Palladio_L_Roman-55"/>
      </g>
     </g>
    </g>
    <g id="xtick_3">
     <g id="line2d_3">
      <g>
       <use style="stroke:#000000;stroke-width:0.8;" x="199.640888" xlink:href="#m5056063324" y="224.64"/>
      </g>
     </g>
     <g id="text_3">
      <!-- 2020-09 -->
      <g transform="translate(201.800301 264.845436)rotate(-90)scale(0.1 -0.1)">
       <defs>
        <path d="M 9.59375 -1.65625 
C 20.703125 1.953125 25.5 4.25 30.90625 8.84375 
C 40.59375 17.15625 45.703125 28.671875 45.703125 42.078125 
C 45.703125 59 37.59375 69.296875 24.40625 69.296875 
C 11.59375 69.296875 2 59.296875 2 45.90625 
C 2 34.390625 9.5 26 19.90625 26 
C 23.296875 26 27.203125 27.09375 29 28.59375 
L 36 34.40625 
C 35.203125 17.578125 24.296875 5.25 6.203125 0.84375 
L 6.203125 0.046875 
z
M 24 66 
C 28.5 66 31.796875 64.09375 34 60.09375 
C 35.796875 56.890625 37 52 37 47.5 
C 37 38.296875 31.703125 32.109375 24 32.109375 
C 16 32.109375 10.59375 39.203125 10.59375 49.59375 
C 10.59375 59.703125 15.796875 66 24 66 
z
" id="URW_Palladio_L_Roman-57"/>
       </defs>
       <use transform="scale(0.996264)" xlink:href="#URW_Palladio_L_Roman-50"/>
       <use transform="translate(49.8132 0)scale(0.996264)" xlink:href="#URW_Palladio_L_Roman-48"/>
       <use transform="translate(99.626401 0)scale(0.996264)" xlink:href="#URW_Palladio_L_Roman-50"/>
       <use transform="translate(149.439601 0)scale(0.996264)" xlink:href="#URW_Palladio_L_Roman-48"/>
       <use transform="translate(199.252802 0)scale(0.996264)" xlink:href="#URW_Palladio_L_Roman-45"/>
       <use transform="translate(232.428032 0)scale(0.996264)" xlink:href="#URW_Palladio_L_Roman-48"/>
       <use transform="translate(282.241232 0)scale(0.996264)" xlink:href="#URW_Palladio_L_Roman-57"/>
      </g>
     </g>
    </g>
    <g id="xtick_4">
     <g id="line2d_4">
      <g>
       <use style="stroke:#000000;stroke-width:0.8;" x="255.288844" xlink:href="#m5056063324" y="224.64"/>
      </g>
     </g>
     <g id="text_4">
      <!-- 2020-11 -->
      <g transform="translate(257.448258 264.845436)rotate(-90)scale(0.1 -0.1)">
       <defs>
        <path d="M 6.703125 56 
L 7.703125 56 
L 20.59375 61.8125 
C 20.703125 61.90625 20.796875 61.90625 20.90625 61.90625 
C 21.5 61.90625 21.703125 61.015625 21.703125 58.609375 
L 21.703125 9.578125 
C 21.703125 4.3125 20.59375 3.203125 15.203125 3.203125 
L 9.59375 3.203125 
L 9.59375 0 
C 25 0 25 0 26.09375 0 
C 27.40625 0 29.59375 0 33 0 
C 34.203125 0 37.703125 0 41.796875 0 
L 41.796875 3.203125 
L 36.59375 3.203125 
C 31.09375 3.203125 30.09375 4.3125 30.09375 9.5625 
L 30.09375 69.421875 
L 28.703125 69.921875 
C 22.203125 66.515625 15.09375 63.515625 6 60.3125 
z
" id="URW_Palladio_L_Roman-49"/>
       </defs>
       <use transform="scale(0.996264)" xlink:href="#URW_Palladio_L_Roman-50"/>
       <use transform="translate(49.8132 0)scale(0.996264)" xlink:href="#URW_Palladio_L_Roman-48"/>
       <use transform="translate(99.626401 0)scale(0.996264)" xlink:href="#URW_Palladio_L_Roman-50"/>
       <use transform="translate(149.439601 0)scale(0.996264)" xlink:href="#URW_Palladio_L_Roman-48"/>
       <use transform="translate(199.252802 0)scale(0.996264)" xlink:href="#URW_Palladio_L_Roman-45"/>
       <use transform="translate(232.428032 0)scale(0.996264)" xlink:href="#URW_Palladio_L_Roman-49"/>
       <use transform="translate(282.241232 0)scale(0.996264)" xlink:href="#URW_Palladio_L_Roman-49"/>
      </g>
     </g>
    </g>
    <g id="xtick_5">
     <g id="line2d_5">
      <g>
       <use style="stroke:#000000;stroke-width:0.8;" x="310.936801" xlink:href="#m5056063324" y="224.64"/>
      </g>
     </g>
     <g id="text_5">
      <!-- 2021-01 -->
      <g transform="translate(313.096214 264.845436)rotate(-90)scale(0.1 -0.1)">
       <use transform="scale(0.996264)" xlink:href="#URW_Palladio_L_Roman-50"/>
       <use transform="translate(49.8132 0)scale(0.996264)" xlink:href="#URW_Palladio_L_Roman-48"/>
       <use transform="translate(99.626401 0)scale(0.996264)" xlink:href="#URW_Palladio_L_Roman-50"/>
       <use transform="translate(149.439601 0)scale(0.996264)" xlink:href="#URW_Palladio_L_Roman-49"/>
       <use transform="translate(199.252802 0)scale(0.996264)" xlink:href="#URW_Palladio_L_Roman-45"/>
       <use transform="translate(232.428032 0)scale(0.996264)" xlink:href="#URW_Palladio_L_Roman-48"/>
       <use transform="translate(282.241232 0)scale(0.996264)" xlink:href="#URW_Palladio_L_Roman-49"/>
      </g>
     </g>
    </g>
    <g id="xtick_6">
     <g id="line2d_6">
      <g>
       <use style="stroke:#000000;stroke-width:0.8;" x="364.760234" xlink:href="#m5056063324" y="224.64"/>
      </g>
     </g>
     <g id="text_6">
      <!-- 2021-03 -->
      <g transform="translate(366.919647 264.845436)rotate(-90)scale(0.1 -0.1)">
       <defs>
        <path d="M 4.296875 49.953125 
L 7.40625 49.953125 
L 9.203125 55.53125 
C 10.296875 58.90625 16.59375 62.296875 21.796875 62.296875 
C 28.296875 62.296875 33.59375 57.015625 33.59375 50.75 
C 33.59375 43.28125 27.703125 37 20.59375 37 
C 19.796875 37 18.703125 37 17.40625 37.203125 
L 15.90625 37.203125 
L 14.703125 31.984375 
L 15.40625 31.375 
C 19.203125 33.09375 21.09375 33.59375 23.796875 33.59375 
C 32.09375 33.59375 36.90625 28.265625 36.90625 19.09375 
C 36.90625 8.84375 30.796875 2.109375 21.5 2.109375 
C 16.90625 2.109375 12.796875 3.609375 9.796875 6.421875 
C 7.40625 8.640625 6.09375 10.953125 4.203125 16.390625 
L 1.5 15.390625 
C 3.59375 9.265625 4.40625 5.640625 5 0.609375 
C 10.296875 -1.203125 14.703125 -2 18.40625 -2 
C 26.40625 -2 35.59375 2.515625 41.09375 9.265625 
C 44.5 13.390625 46.203125 17.8125 46.203125 22.53125 
C 46.203125 27.359375 44.203125 31.59375 40.59375 34.09375 
C 38.09375 35.90625 35.796875 36.71875 30.796875 37.609375 
C 38.796875 43.796875 41.796875 48.375 41.796875 54.25 
C 41.796875 63.125 34.40625 69 23.296875 69 
C 16.5 69 12 67.109375 7.203125 62.328125 
z
" id="URW_Palladio_L_Roman-51"/>
       </defs>
       <use transform="scale(0.996264)" xlink:href="#URW_Palladio_L_Roman-50"/>
       <use transform="translate(49.8132 0)scale(0.996264)" xlink:href="#URW_Palladio_L_Roman-48"/>
       <use transform="translate(99.626401 0)scale(0.996264)" xlink:href="#URW_Palladio_L_Roman-50"/>
       <use transform="translate(149.439601 0)scale(0.996264)" xlink:href="#URW_Palladio_L_Roman-49"/>
       <use transform="translate(199.252802 0)scale(0.996264)" xlink:href="#URW_Palladio_L_Roman-45"/>
       <use transform="translate(232.428032 0)scale(0.996264)" xlink:href="#URW_Palladio_L_Roman-48"/>
       <use transform="translate(282.241232 0)scale(0.996264)" xlink:href="#URW_Palladio_L_Roman-51"/>
      </g>
     </g>
    </g>
   </g>
   <g id="matplotlib.axis_2">
    <g id="ytick_1">
     <g id="line2d_7">
      <defs>
       <path d="M 0 0 
L -3.5 0 
" id="me45bc37382" style="stroke:#000000;stroke-width:0.8;"/>
      </defs>
      <g>
       <use style="stroke:#000000;stroke-width:0.8;" x="44.100288" xlink:href="#me45bc37382" y="224.64"/>
      </g>
     </g>
     <g id="text_7">
      <!-- $\mathdefault{0}$ -->
      <g transform="translate(32.118968 228.204119)scale(0.1 -0.1)">
       <use transform="scale(0.996264)" xlink:href="#URW_Palladio_L_Roman-48"/>
      </g>
     </g>
    </g>
    <g id="ytick_2">
     <g id="line2d_8">
      <g>
       <use style="stroke:#000000;stroke-width:0.8;" x="44.100288" xlink:href="#me45bc37382" y="194.44"/>
      </g>
     </g>
     <g id="text_8">
      <!-- $\mathdefault{5}$ -->
      <g transform="translate(32.118968 198.004119)scale(0.1 -0.1)">
       <use transform="scale(0.996264)" xlink:href="#URW_Palladio_L_Roman-53"/>
      </g>
     </g>
    </g>
    <g id="ytick_3">
     <g id="line2d_9">
      <g>
       <use style="stroke:#000000;stroke-width:0.8;" x="44.100288" xlink:href="#me45bc37382" y="164.24"/>
      </g>
     </g>
     <g id="text_9">
      <!-- $\mathdefault{10}$ -->
      <g transform="translate(27.137648 167.804119)scale(0.1 -0.1)">
       <use transform="scale(0.996264)" xlink:href="#URW_Palladio_L_Roman-49"/>
       <use transform="translate(49.8132 0)scale(0.996264)" xlink:href="#URW_Palladio_L_Roman-48"/>
      </g>
     </g>
    </g>
    <g id="ytick_4">
     <g id="line2d_10">
      <g>
       <use style="stroke:#000000;stroke-width:0.8;" x="44.100288" xlink:href="#me45bc37382" y="134.04"/>
      </g>
     </g>
     <g id="text_10">
      <!-- $\mathdefault{15}$ -->
      <g transform="translate(27.137648 137.604119)scale(0.1 -0.1)">
       <use transform="scale(0.996264)" xlink:href="#URW_Palladio_L_Roman-49"/>
       <use transform="translate(49.8132 0)scale(0.996264)" xlink:href="#URW_Palladio_L_Roman-53"/>
      </g>
     </g>
    </g>
    <g id="ytick_5">
     <g id="line2d_11">
      <g>
       <use style="stroke:#000000;stroke-width:0.8;" x="44.100288" xlink:href="#me45bc37382" y="103.84"/>
      </g>
     </g>
     <g id="text_11">
      <!-- $\mathdefault{20}$ -->
      <g transform="translate(27.137648 107.404119)scale(0.1 -0.1)">
       <use transform="scale(0.996264)" xlink:href="#URW_Palladio_L_Roman-50"/>
       <use transform="translate(49.8132 0)scale(0.996264)" xlink:href="#URW_Palladio_L_Roman-48"/>
      </g>
     </g>
    </g>
    <g id="ytick_6">
     <g id="line2d_12">
      <g>
       <use style="stroke:#000000;stroke-width:0.8;" x="44.100288" xlink:href="#me45bc37382" y="73.64"/>
      </g>
     </g>
     <g id="text_12">
      <!-- $\mathdefault{25}$ -->
      <g transform="translate(27.137648 77.204119)scale(0.1 -0.1)">
       <use transform="scale(0.996264)" xlink:href="#URW_Palladio_L_Roman-50"/>
       <use transform="translate(49.8132 0)scale(0.996264)" xlink:href="#URW_Palladio_L_Roman-53"/>
      </g>
     </g>
    </g>
    <g id="ytick_7">
     <g id="line2d_13">
      <g>
       <use style="stroke:#000000;stroke-width:0.8;" x="44.100288" xlink:href="#me45bc37382" y="43.44"/>
      </g>
     </g>
     <g id="text_13">
      <!-- $\mathdefault{30}$ -->
      <g transform="translate(27.137648 47.004119)scale(0.1 -0.1)">
       <use transform="scale(0.996264)" xlink:href="#URW_Palladio_L_Roman-51"/>
       <use transform="translate(49.8132 0)scale(0.996264)" xlink:href="#URW_Palladio_L_Roman-48"/>
      </g>
     </g>
    </g>
    <g id="ytick_8">
     <g id="line2d_14">
      <g>
       <use style="stroke:#000000;stroke-width:0.8;" x="44.100288" xlink:href="#me45bc37382" y="13.24"/>
      </g>
     </g>
     <g id="text_14">
      <!-- $\mathdefault{35}$ -->
      <g transform="translate(27.137648 16.804119)scale(0.1 -0.1)">
       <use transform="scale(0.996264)" xlink:href="#URW_Palladio_L_Roman-51"/>
       <use transform="translate(49.8132 0)scale(0.996264)" xlink:href="#URW_Palladio_L_Roman-53"/>
      </g>
     </g>
    </g>
    <g id="text_15">
     <!-- daily corona fatalities -->
     <g transform="translate(14.328237 163.266856)rotate(-90)scale(0.1 -0.1)">
      <defs>
       <path d="M 41.203125 43.78125 
C 35.59375 46.1875 32.796875 47 29.296875 47 
C 26.59375 47 24.203125 46.390625 21.703125 45.109375 
L 12.90625 40.515625 
C 7.203125 37.515625 3.5 30.234375 3.5 21.75 
C 3.5 13.765625 6.203125 7.1875 11.09375 3.1875 
C 14.5 0.296875 19.203125 -1 25.703125 -1 
C 27.703125 -1 30 -0.59375 30.5 -0.203125 
L 41.59375 9.109375 
L 41.09375 -0.109375 
C 46 -0.109375 47.59375 -0.109375 48.796875 -0.109375 
C 49.59375 -0.109375 51 -0.109375 53.09375 -0.109375 
C 53.796875 -0.109375 55.796875 -0.109375 57.90625 -0.109375 
L 57.90625 3 
L 53.296875 3 
C 49.90625 3 49.59375 3.703125 49.59375 10.046875 
L 49.59375 71.984375 
L 48.703125 72.796875 
C 44.296875 71.09375 41 70.28125 33.09375 69.078125 
L 33.09375 66.28125 
L 38.703125 66.28125 
C 40.5 66.28125 41.203125 65.171875 41.203125 62.15625 
z
M 41.203125 22.25 
C 41.203125 15.765625 41 14.78125 39.703125 12.484375 
C 36.90625 7.796875 32 4.71875 27.296875 4.71875 
C 18.5 4.71875 12.203125 13.1875 12.203125 25.046875 
C 12.203125 35.90625 17.59375 42.28125 26.59375 42.28125 
C 30.40625 42.28125 34.40625 40.984375 37.90625 38.59375 
C 40 37.203125 41.203125 35.90625 41.203125 35.09375 
z
" id="URW_Palladio_L_Roman-100"/>
       <path d="M 32.40625 8.40625 
L 31.90625 -0.015625 
C 38.40625 -0.015625 38.40625 -0.015625 39.703125 -0.015625 
C 40.203125 -0.015625 42.703125 -0.015625 47.09375 -0.015625 
L 47.09375 3 
L 43.203125 3 
C 40.796875 3 40.40625 3.8125 40.40625 8.71875 
L 40.40625 27.046875 
C 40.40625 41.6875 36.203125 47 24.59375 47 
C 20.296875 47 16.296875 45.890625 12.5 43.609375 
L 7.203125 40.390625 
L 7.203125 33.921875 
L 9.796875 33.21875 
L 11.09375 36.296875 
C 13.203125 40.984375 14.203125 41.6875 18.796875 41.6875 
C 28.203125 41.6875 32.09375 37.984375 32.40625 28.9375 
L 22.5 27.125 
C 8.90625 24.640625 3.203125 19.953125 3.203125 11.28125 
C 3.203125 3.5 7.90625 -1 15.796875 -1 
C 17.59375 -1 19.296875 -0.703125 20 -0.203125 
z
M 32.40625 12.59375 
C 29.5 8.5 23.203125 4.71875 19.296875 4.71875 
C 15.296875 4.71875 11.796875 8.40625 11.796875 12.6875 
C 11.796875 16.375 13.796875 19.859375 16.796875 21.75 
C 19.296875 23.25 24.796875 24.640625 32.40625 25.75 
z
" id="URW_Palladio_L_Roman-97"/>
       <path d="M 18.796875 46.765625 
L 17.90625 47.171875 
C 12.796875 45.0625 7.59375 43.640625 2.296875 43.046875 
L 2.296875 40.25 
L 6 40.25 
C 10 40.25 10.40625 39.546875 10.40625 32.890625 
L 10.40625 10.171875 
C 10.40625 3.8125 10.09375 3.109375 6.703125 3.109375 
L 2.09375 3.109375 
L 2.09375 0 
C 12.09375 0 12.09375 0 14.59375 0 
C 17.09375 0 17.09375 0 27.09375 0 
L 27.09375 3.109375 
L 22.5 3.109375 
C 19.09375 3.109375 18.796875 3.8125 18.796875 10.171875 
z
M 14.203125 69 
C 11.203125 69 8.59375 66.390625 8.59375 63.375 
C 8.59375 60.46875 11.203125 57.875 14.09375 57.875 
C 17 57.875 19.703125 60.46875 19.703125 63.375 
C 19.703125 66.1875 17 69 14.203125 69 
z
" id="URW_Palladio_L_Roman-105"/>
       <path d="M 2.296875 66.5 
L 7.90625 66.5 
C 9.703125 66.5 10.40625 65.390625 10.40625 62.375 
L 10.40625 10.171875 
C 10.40625 3.8125 10.09375 3.109375 6.703125 3.109375 
L 2.09375 3.109375 
L 2.09375 0 
C 12.09375 0 12.09375 0 14.59375 0 
C 17.09375 0 17.09375 0 27.09375 0 
L 27.09375 3.109375 
L 22.5 3.109375 
C 19.09375 3.109375 18.796875 3.8125 18.796875 10.15625 
L 18.796875 72.203125 
L 17.90625 73.015625 
C 13.5 71.3125 10.203125 70.5 2.296875 69.296875 
z
" id="URW_Palladio_L_Roman-108"/>
       <path d="M 29.703125 8.8125 
C 27.5 12.625 26.40625 14.9375 24.59375 19.84375 
L 18.203125 36.671875 
C 17.59375 38.375 17.203125 39.875 17.203125 40.90625 
C 17.203125 42.34375 18.296875 43.1875 20.59375 43.1875 
L 24.40625 43.1875 
L 24.40625 46 
C 14.703125 46 14.703125 46 12.796875 46 
C 10.90625 46 10.90625 46 1.203125 46 
L 1.203125 43.390625 
L 3 43.1875 
C 5.5 42.890625 6.703125 41.78125 8.203125 38.296875 
L 19.09375 12.109375 
C 21.90625 5.3125 22.90625 2.90625 24.703125 -2.09375 
L 22.40625 -8.1875 
C 19.203125 -16.59375 15.296875 -21.28125 11.5 -21.28125 
C 9.90625 -21.28125 8.09375 -20.484375 6.40625 -18.984375 
L 5.09375 -18.984375 
L 2.703125 -26.5 
C 4.59375 -27.5 6.203125 -28 8.09375 -28 
C 14.796875 -28 19.09375 -24.40625 22.90625 -15.703125 
L 43.203125 31.09375 
C 47.203125 40.1875 49.09375 42.890625 51.59375 43.1875 
L 54.40625 43.390625 
L 54.40625 46 
C 46.5 46 46.5 46 44.90625 46 
C 43.296875 46 43.296875 46 35.40625 46 
L 35.40625 43.390625 
L 38 43.1875 
C 40.796875 42.984375 42.203125 42.09375 42.203125 40.6875 
C 42.203125 39.984375 42 39.078125 41.59375 38.078125 
z
" id="URW_Palladio_L_Roman-121"/>
       <path d="M 39.90625 31.15625 
C 39.90625 35.765625 40.40625 39.875 41.296875 43.484375 
C 37.296875 45.890625 33.796875 47 29.703125 47 
C 24.90625 47 19.296875 45.09375 13.296875 41.28125 
C 6.296875 36.875 2.59375 29.859375 2.59375 21.046875 
C 2.59375 7.515625 12.09375 -2 25.5 -2 
C 30.703125 -2 38.203125 -0.09375 39.203125 1.40625 
L 41.296875 4.609375 
L 40.296875 6.109375 
C 36.59375 4.109375 33.40625 3.203125 29.796875 3.203125 
C 18.703125 3.203125 11.40625 11.828125 11.40625 25.046875 
C 11.40625 35.765625 16.40625 41.78125 25.40625 41.78125 
C 29.796875 41.78125 34.59375 39.78125 36.40625 37.28125 
L 37.09375 31.15625 
z
" id="URW_Palladio_L_Roman-99"/>
       <path d="M 27.90625 47 
C 13.296875 47 3.203125 36.671875 3.203125 21.75 
C 3.203125 7.609375 12.09375 -2 25 -2 
C 40.40625 -2 51.40625 8.71875 51.40625 23.75 
C 51.40625 37.28125 41.59375 47 27.90625 47 
z
M 26.09375 43.6875 
C 35.296875 43.6875 42.09375 33.671875 42.09375 20.046875 
C 42.09375 8.515625 37 1.296875 28.90625 1.296875 
C 19.09375 1.296875 12.5 10.921875 12.5 25.15625 
C 12.5 37.171875 17.296875 43.6875 26.09375 43.6875 
z
" id="URW_Palladio_L_Roman-111"/>
       <path d="M 2.296875 40.078125 
L 6 40.078125 
C 10 40.078125 10.40625 39.375 10.40625 32.71875 
L 10.40625 10.046875 
C 10.40625 3.703125 10.09375 3 6.703125 3 
L 2.09375 3 
L 2.09375 -0.109375 
C 9.296875 -0.109375 11.90625 -0.109375 14.40625 -0.109375 
C 16.40625 -0.109375 16.40625 -0.109375 28.703125 -0.109375 
L 28.703125 3 
L 23.5 3 
C 19 3 18.796875 3.296875 18.796875 9.96875 
L 18.796875 27.359375 
C 18.796875 33.421875 22.796875 38.484375 27.703125 38.484375 
C 30.703125 38.484375 32.796875 37.078125 34.40625 33.890625 
L 36.5 33.890625 
L 37.40625 45.890625 
C 36.296875 46.59375 34.5 47 32.703125 47 
C 29.703125 47 26.5 45.390625 24.40625 42.890625 
L 18.796875 36.28125 
L 18.796875 46.59375 
L 17.90625 47 
C 12.796875 44.890625 7.59375 43.484375 2.296875 42.890625 
z
" id="URW_Palladio_L_Roman-114"/>
       <path d="M 41 -0.109375 
C 47.09375 -0.109375 47.203125 -0.109375 48.90625 -0.109375 
C 50.296875 -0.109375 50.296875 -0.109375 57.203125 -0.109375 
L 57.203125 2.796875 
L 53.09375 3.203125 
C 49.703125 3.203125 49.40625 3.8125 49.40625 10.21875 
L 49.40625 29.5625 
C 49.40625 41.28125 43.90625 47 32.703125 47 
C 29 47 26.90625 46.296875 24.796875 44.484375 
L 17.203125 37.875 
L 17.203125 46.59375 
L 16.296875 47 
C 11.203125 44.890625 6 43.484375 0.703125 42.890625 
L 0.703125 40.078125 
L 4.40625 40.078125 
C 8.40625 40.078125 8.796875 39.375 8.796875 32.71875 
L 8.796875 10.046875 
C 8.796875 3.703125 8.5 3 5.09375 3 
L 0.59375 3 
L 0.59375 -0.109375 
C 7.40625 -0.109375 10.09375 -0.109375 13 -0.109375 
C 15.90625 -0.109375 18.59375 -0.109375 25.40625 -0.109375 
L 25.40625 3 
L 20.90625 3 
C 17.5 3 17.203125 3.703125 17.203125 10.046875 
L 17.203125 31.421875 
C 17.203125 35.9375 23.796875 40.875 29.90625 40.875 
C 36.59375 40.875 41 35.890625 41 28.21875 
z
" id="URW_Palladio_L_Roman-110"/>
       <path d="M 34.09375 71.890625 
C 32 72.6875 30.796875 73 29.5 73 
C 26.296875 73 22.796875 71.296875 20.59375 68.8125 
L 14.796875 62.265625 
C 11.90625 58.984375 10.59375 54.53125 10.59375 47.96875 
L 10.59375 43.796875 
L 3.703125 40.6875 
L 3.703125 38.6875 
L 10.59375 38.6875 
L 10.59375 10.171875 
C 10.59375 3.8125 10.296875 3.109375 6.90625 3.109375 
L 2.296875 3.109375 
L 2.296875 0 
C 12.296875 0 12.296875 0 14.796875 0 
C 17.296875 0 17.296875 0 27.296875 0 
L 27.296875 3.109375 
L 22.703125 3.109375 
C 19.296875 3.109375 19 3.828125 19 10.203125 
L 19 38.890625 
L 31.40625 38.890625 
L 32.09375 44 
L 19 44 
L 19 52.34375 
C 19 63.640625 20.296875 66.375 26 66.375 
C 28.703125 66.375 30.5 65.6875 32.90625 63.609375 
L 34.09375 64.203125 
z
" id="URW_Palladio_L_Roman-102"/>
       <path d="M 9.796875 38.6875 
L 9.796875 9.671875 
C 9.796875 2.21875 13.09375 -1 20.796875 -1 
C 23.09375 -1 25.5 -0.5 26.09375 0.203125 
L 30.90625 5.515625 
L 29.59375 7.234375 
C 27.09375 5.8125 25.59375 5.3125 23.703125 5.3125 
C 19.796875 5.3125 18.203125 7.34375 18.203125 12.3125 
L 18.203125 38.890625 
L 31 38.890625 
L 31.90625 44 
L 18.203125 44 
L 18.203125 47.75 
C 18.203125 51.890625 18.5 55.421875 19.296875 61.734375 
L 18.09375 62.828125 
C 15.703125 61.328125 12.703125 60.03125 9.59375 59.03125 
C 9.90625 56.015625 10 54.109375 10 51.109375 
L 10 44.09375 
L 2.203125 40.59375 
L 2.203125 38.6875 
z
" id="URW_Palladio_L_Roman-116"/>
       <path d="M 43.703125 6.984375 
L 42.40625 7.984375 
C 36 4.203125 33.703125 3.3125 29.40625 3.3125 
C 22.90625 3.3125 17.5 6.21875 14.703125 11.109375 
C 12.796875 14.390625 12.09375 17.203125 11.90625 23 
L 26.5 23 
C 33.40625 23 37.703125 23 44.59375 24.125 
C 44.703125 25.53125 44.796875 26.453125 44.796875 27.671875 
C 44.796875 39.375 37.40625 47 26.203125 47 
C 22.5 47 18.203125 45.6875 14.09375 43.28125 
C 5.90625 38.578125 2.59375 32.359375 2.59375 21.9375 
C 2.59375 15.625 4.09375 10.21875 6.796875 6.40625 
C 10.796875 1.109375 17.5 -2 25 -2 
C 28.703125 -2 32.40625 -1.203125 36.5 0.578125 
C 39.203125 1.6875 41.296875 2.984375 41.703125 3.59375 
z
M 35.90625 26.40625 
C 30.703125 26.40625 28.296875 26.40625 24.703125 26.40625 
C 20.09375 26.40625 17.5 26.40625 12.09375 26.90625 
C 12.09375 31.671875 12.5 33.890625 13.796875 36.515625 
C 15.90625 40.96875 20.203125 43.6875 25 43.6875 
C 28.296875 43.6875 30.90625 42.359375 32.703125 39.59375 
C 34.90625 36.234375 35.59375 33.265625 35.90625 26.40625 
z
" id="URW_Palladio_L_Roman-101"/>
       <path d="M 4.09375 14.328125 
C 4.09375 7.421875 3.796875 4.40625 3 0.40625 
C 8.203125 -1.296875 12.09375 -2 16.703125 -2 
C 29.796875 -2 39.09375 5.015625 39.09375 14.828125 
C 39.09375 17.9375 38.203125 20.234375 36.296875 22.25 
C 33.703125 24.75 30.40625 25.953125 21.59375 27.65625 
C 13.40625 29.265625 10.703125 31.265625 10.703125 35.875 
C 10.703125 40.875 14.203125 43.6875 20.296875 43.6875 
C 27 43.6875 32.09375 40.1875 32.09375 35.46875 
L 32.09375 33.171875 
L 34.90625 33.171875 
C 35 38.984375 35.09375 41.375 35.40625 44.484375 
C 30.09375 46.296875 26.5 47 22.40625 47 
C 10.796875 47 3.703125 41.484375 3.703125 32.46875 
C 3.703125 27.65625 5.90625 24.25 10.5 22.140625 
C 13.203125 20.9375 18.5 19.34375 25.296875 17.828125 
C 29.796875 16.828125 31.703125 14.734375 31.703125 10.921875 
C 31.703125 5.515625 26.703125 1.703125 19.59375 1.703125 
C 12.296875 1.703125 7.09375 5.203125 7.09375 10.21875 
L 7.09375 14.328125 
z
" id="URW_Palladio_L_Roman-115"/>
      </defs>
      <use transform="scale(0.996264)" xlink:href="#URW_Palladio_L_Roman-100"/>
      <use transform="translate(60.871631 0)scale(0.996264)" xlink:href="#URW_Palladio_L_Roman-97"/>
      <use transform="translate(110.684831 0)scale(0.996264)" xlink:href="#URW_Palladio_L_Roman-105"/>
      <use transform="translate(139.675193 0)scale(0.996264)" xlink:href="#URW_Palladio_L_Roman-108"/>
      <use transform="translate(168.665554 0)scale(0.996264)" xlink:href="#URW_Palladio_L_Roman-121"/>
      <use transform="translate(248.963831 0)scale(0.996264)" xlink:href="#URW_Palladio_L_Roman-99"/>
      <use transform="translate(293.1974 0)scale(0.996264)" xlink:href="#URW_Palladio_L_Roman-111"/>
      <use transform="translate(347.59298 0)scale(0.996264)" xlink:href="#URW_Palladio_L_Roman-114"/>
      <use transform="translate(385.152298 0)scale(0.996264)" xlink:href="#URW_Palladio_L_Roman-111"/>
      <use transform="translate(439.547878 0)scale(0.996264)" xlink:href="#URW_Palladio_L_Roman-110"/>
      <use transform="translate(497.529938 0)scale(0.996264)" xlink:href="#URW_Palladio_L_Roman-97"/>
      <use transform="translate(572.249739 0)scale(0.996264)" xlink:href="#URW_Palladio_L_Roman-102"/>
      <use transform="translate(605.424969 0)scale(0.996264)" xlink:href="#URW_Palladio_L_Roman-97"/>
      <use transform="translate(655.238169 0)scale(0.996264)" xlink:href="#URW_Palladio_L_Roman-116"/>
      <use transform="translate(687.715257 0)scale(0.996264)" xlink:href="#URW_Palladio_L_Roman-97"/>
      <use transform="translate(737.528458 0)scale(0.996264)" xlink:href="#URW_Palladio_L_Roman-108"/>
      <use transform="translate(766.518819 0)scale(0.996264)" xlink:href="#URW_Palladio_L_Roman-105"/>
      <use transform="translate(795.509181 0)scale(0.996264)" xlink:href="#URW_Palladio_L_Roman-116"/>
      <use transform="translate(827.986269 0)scale(0.996264)" xlink:href="#URW_Palladio_L_Roman-105"/>
      <use transform="translate(856.97663 0)scale(0.996264)" xlink:href="#URW_Palladio_L_Roman-101"/>
      <use transform="translate(904.696925 0)scale(0.996264)" xlink:href="#URW_Palladio_L_Roman-115"/>
     </g>
    </g>
   </g>
   <g id="patch_370">
    <path d="M 44.100288 224.64 
L 44.100288 7.2 
" style="fill:none;stroke:#000000;stroke-linecap:square;stroke-linejoin:miter;stroke-width:0.8;"/>
   </g>
   <g id="patch_371">
    <path d="M 44.100288 224.64 
L 378.900288 224.64 
" style="fill:none;stroke:#000000;stroke-linecap:square;stroke-linejoin:miter;stroke-width:0.8;"/>
   </g>
  </g>
 </g>
 <defs>
  <clipPath id="pb217b20e38">
   <rect height="217.44" width="334.8" x="44.100288" y="7.2"/>
  </clipPath>
 </defs>
</svg>
