<?xml version="1.0" encoding="utf-8" standalone="no"?>
<!DOCTYPE svg PUBLIC "-//W3C//DTD SVG 1.1//EN"
  "http://www.w3.org/Graphics/SVG/1.1/DTD/svg11.dtd">
<!-- Created with matplotlib (https://matplotlib.org/) -->
<svg height="364.091062pt" version="1.1" viewBox="0 0 412.735747 364.091062" width="412.735747pt" xmlns="http://www.w3.org/2000/svg" xmlns:xlink="http://www.w3.org/1999/xlink">
 <metadata>
  <rdf:RDF xmlns:cc="http://creativecommons.org/ns#" xmlns:dc="http://purl.org/dc/elements/1.1/" xmlns:rdf="http://www.w3.org/1999/02/22-rdf-syntax-ns#">
   <cc:Work>
    <dc:type rdf:resource="http://purl.org/dc/dcmitype/StillImage"/>
    <dc:date>2021-01-03T13:04:24.398870</dc:date>
    <dc:format>image/svg+xml</dc:format>
    <dc:creator>
     <cc:Agent>
      <dc:title>Matplotlib v3.3.3, https://matplotlib.org/</dc:title>
     </cc:Agent>
    </dc:creator>
   </cc:Work>
  </rdf:RDF>
 </metadata>
 <defs>
  <style type="text/css">*{stroke-linecap:butt;stroke-linejoin:round;}</style>
 </defs>
 <g id="figure_1">
  <g id="patch_1">
   <path d="M 0 364.091062 
L 412.735747 364.091062 
L 412.735747 0 
L 0 0 
z
" style="fill:#ffffff;"/>
  </g>
  <g id="axes_1">
   <g id="patch_2">
    <path d="M 46.603125 288.430125 
L 403.723125 288.430125 
L 403.723125 22.318125 
L 46.603125 22.318125 
z
" style="fill:#ffffff;"/>
   </g>
   <g id="patch_3">
    <path clip-path="url(#pc7f8aa624b)" d="M 46.724183 288.430125 
L 47.692644 288.430125 
L 47.692644 251.470125 
L 46.724183 251.470125 
z
" style="fill:#1f77b4;"/>
   </g>
   <g id="patch_4">
    <path clip-path="url(#pc7f8aa624b)" d="M 47.934759 288.430125 
L 48.90322 288.430125 
L 48.90322 281.038125 
L 47.934759 281.038125 
z
" style="fill:#1f77b4;"/>
   </g>
   <g id="patch_5">
    <path clip-path="url(#pc7f8aa624b)" d="M 49.145335 288.430125 
L 50.113796 288.430125 
L 50.113796 266.254125 
L 49.145335 266.254125 
z
" style="fill:#1f77b4;"/>
   </g>
   <g id="patch_6">
    <path clip-path="url(#pc7f8aa624b)" d="M 50.355911 288.430125 
L 51.324372 288.430125 
L 51.324372 266.254125 
L 50.355911 266.254125 
z
" style="fill:#1f77b4;"/>
   </g>
   <g id="patch_7">
    <path clip-path="url(#pc7f8aa624b)" d="M 51.566488 288.430125 
L 52.534949 288.430125 
L 52.534949 258.862125 
L 51.566488 258.862125 
z
" style="fill:#1f77b4;"/>
   </g>
   <g id="patch_8">
    <path clip-path="url(#pc7f8aa624b)" d="M 52.777064 288.430125 
L 53.745525 288.430125 
L 53.745525 266.254125 
L 52.777064 266.254125 
z
" style="fill:#1f77b4;"/>
   </g>
   <g id="patch_9">
    <path clip-path="url(#pc7f8aa624b)" d="M 53.98764 288.430125 
L 54.956101 288.430125 
L 54.956101 251.470125 
L 53.98764 251.470125 
z
" style="fill:#1f77b4;"/>
   </g>
   <g id="patch_10">
    <path clip-path="url(#pc7f8aa624b)" d="M 55.198217 288.430125 
L 56.166678 288.430125 
L 56.166678 236.686125 
L 55.198217 236.686125 
z
" style="fill:#1f77b4;"/>
   </g>
   <g id="patch_11">
    <path clip-path="url(#pc7f8aa624b)" d="M 56.408793 288.430125 
L 57.377254 288.430125 
L 57.377254 258.862125 
L 56.408793 258.862125 
z
" style="fill:#1f77b4;"/>
   </g>
   <g id="patch_12">
    <path clip-path="url(#pc7f8aa624b)" d="M 57.619369 288.430125 
L 58.58783 288.430125 
L 58.58783 221.902125 
L 57.619369 221.902125 
z
" style="fill:#1f77b4;"/>
   </g>
   <g id="patch_13">
    <path clip-path="url(#pc7f8aa624b)" d="M 58.829945 288.430125 
L 59.798406 288.430125 
L 59.798406 281.038125 
L 58.829945 281.038125 
z
" style="fill:#1f77b4;"/>
   </g>
   <g id="patch_14">
    <path clip-path="url(#pc7f8aa624b)" d="M 60.040522 288.430125 
L 61.008983 288.430125 
L 61.008983 229.294125 
L 60.040522 229.294125 
z
" style="fill:#1f77b4;"/>
   </g>
   <g id="patch_15">
    <path clip-path="url(#pc7f8aa624b)" d="M 61.251098 288.430125 
L 62.219559 288.430125 
L 62.219559 236.686125 
L 61.251098 236.686125 
z
" style="fill:#1f77b4;"/>
   </g>
   <g id="patch_16">
    <path clip-path="url(#pc7f8aa624b)" d="M 62.461674 288.430125 
L 63.430135 288.430125 
L 63.430135 258.862125 
L 62.461674 258.862125 
z
" style="fill:#1f77b4;"/>
   </g>
   <g id="patch_17">
    <path clip-path="url(#pc7f8aa624b)" d="M 63.67225 288.430125 
L 64.640711 288.430125 
L 64.640711 236.686125 
L 63.67225 236.686125 
z
" style="fill:#1f77b4;"/>
   </g>
   <g id="patch_18">
    <path clip-path="url(#pc7f8aa624b)" d="M 64.882827 288.430125 
L 65.851288 288.430125 
L 65.851288 266.254125 
L 64.882827 266.254125 
z
" style="fill:#1f77b4;"/>
   </g>
   <g id="patch_19">
    <path clip-path="url(#pc7f8aa624b)" d="M 66.093403 288.430125 
L 67.061864 288.430125 
L 67.061864 22.318125 
L 66.093403 22.318125 
z
" style="fill:#1f77b4;"/>
   </g>
   <g id="patch_20">
    <path clip-path="url(#pc7f8aa624b)" d="M 67.303979 288.430125 
L 68.27244 288.430125 
L 68.27244 214.510125 
L 67.303979 214.510125 
z
" style="fill:#1f77b4;"/>
   </g>
   <g id="patch_21">
    <path clip-path="url(#pc7f8aa624b)" d="M 68.514556 288.430125 
L 69.483017 288.430125 
L 69.483017 229.294125 
L 68.514556 229.294125 
z
" style="fill:#1f77b4;"/>
   </g>
   <g id="patch_22">
    <path clip-path="url(#pc7f8aa624b)" d="M 69.725132 288.430125 
L 70.693593 288.430125 
L 70.693593 184.942125 
L 69.725132 184.942125 
z
" style="fill:#1f77b4;"/>
   </g>
   <g id="patch_23">
    <path clip-path="url(#pc7f8aa624b)" d="M 70.935708 288.430125 
L 71.904169 288.430125 
L 71.904169 258.862125 
L 70.935708 258.862125 
z
" style="fill:#1f77b4;"/>
   </g>
   <g id="patch_24">
    <path clip-path="url(#pc7f8aa624b)" d="M 72.146284 288.430125 
L 73.114745 288.430125 
L 73.114745 214.510125 
L 72.146284 214.510125 
z
" style="fill:#1f77b4;"/>
   </g>
   <g id="patch_25">
    <path clip-path="url(#pc7f8aa624b)" d="M 73.356861 288.430125 
L 74.325322 288.430125 
L 74.325322 229.294125 
L 73.356861 229.294125 
z
" style="fill:#1f77b4;"/>
   </g>
   <g id="patch_26">
    <path clip-path="url(#pc7f8aa624b)" d="M 74.567437 288.430125 
L 75.535898 288.430125 
L 75.535898 229.294125 
L 74.567437 229.294125 
z
" style="fill:#1f77b4;"/>
   </g>
   <g id="patch_27">
    <path clip-path="url(#pc7f8aa624b)" d="M 75.778013 288.430125 
L 76.746474 288.430125 
L 76.746474 244.078125 
L 75.778013 244.078125 
z
" style="fill:#1f77b4;"/>
   </g>
   <g id="patch_28">
    <path clip-path="url(#pc7f8aa624b)" d="M 76.988589 288.430125 
L 77.95705 288.430125 
L 77.95705 221.902125 
L 76.988589 221.902125 
z
" style="fill:#1f77b4;"/>
   </g>
   <g id="patch_29">
    <path clip-path="url(#pc7f8aa624b)" d="M 78.199166 288.430125 
L 79.167627 288.430125 
L 79.167627 251.470125 
L 78.199166 251.470125 
z
" style="fill:#1f77b4;"/>
   </g>
   <g id="patch_30">
    <path clip-path="url(#pc7f8aa624b)" d="M 79.409742 288.430125 
L 80.378203 288.430125 
L 80.378203 229.294125 
L 79.409742 229.294125 
z
" style="fill:#1f77b4;"/>
   </g>
   <g id="patch_31">
    <path clip-path="url(#pc7f8aa624b)" d="M 80.620318 288.430125 
L 81.588779 288.430125 
L 81.588779 258.862125 
L 80.620318 258.862125 
z
" style="fill:#1f77b4;"/>
   </g>
   <g id="patch_32">
    <path clip-path="url(#pc7f8aa624b)" d="M 81.830894 288.430125 
L 82.799356 288.430125 
L 82.799356 207.118125 
L 81.830894 207.118125 
z
" style="fill:#1f77b4;"/>
   </g>
   <g id="patch_33">
    <path clip-path="url(#pc7f8aa624b)" d="M 83.041471 288.430125 
L 84.009932 288.430125 
L 84.009932 273.646125 
L 83.041471 273.646125 
z
" style="fill:#1f77b4;"/>
   </g>
   <g id="patch_34">
    <path clip-path="url(#pc7f8aa624b)" d="M 84.252047 288.430125 
L 85.220508 288.430125 
L 85.220508 258.862125 
L 84.252047 258.862125 
z
" style="fill:#1f77b4;"/>
   </g>
   <g id="patch_35">
    <path clip-path="url(#pc7f8aa624b)" d="M 85.462623 288.430125 
L 86.431084 288.430125 
L 86.431084 236.686125 
L 85.462623 236.686125 
z
" style="fill:#1f77b4;"/>
   </g>
   <g id="patch_36">
    <path clip-path="url(#pc7f8aa624b)" d="M 86.6732 288.430125 
L 87.641661 288.430125 
L 87.641661 258.862125 
L 86.6732 258.862125 
z
" style="fill:#1f77b4;"/>
   </g>
   <g id="patch_37">
    <path clip-path="url(#pc7f8aa624b)" d="M 87.883776 288.430125 
L 88.852237 288.430125 
L 88.852237 236.686125 
L 87.883776 236.686125 
z
" style="fill:#1f77b4;"/>
   </g>
   <g id="patch_38">
    <path clip-path="url(#pc7f8aa624b)" d="M 89.094352 288.430125 
L 90.062813 288.430125 
L 90.062813 244.078125 
L 89.094352 244.078125 
z
" style="fill:#1f77b4;"/>
   </g>
   <g id="patch_39">
    <path clip-path="url(#pc7f8aa624b)" d="M 90.304928 288.430125 
L 91.273389 288.430125 
L 91.273389 258.862125 
L 90.304928 258.862125 
z
" style="fill:#1f77b4;"/>
   </g>
   <g id="patch_40">
    <path clip-path="url(#pc7f8aa624b)" d="M 91.515505 288.430125 
L 92.483966 288.430125 
L 92.483966 266.254125 
L 91.515505 266.254125 
z
" style="fill:#1f77b4;"/>
   </g>
   <g id="patch_41">
    <path clip-path="url(#pc7f8aa624b)" d="M 92.726081 288.430125 
L 93.694542 288.430125 
L 93.694542 258.862125 
L 92.726081 258.862125 
z
" style="fill:#1f77b4;"/>
   </g>
   <g id="patch_42">
    <path clip-path="url(#pc7f8aa624b)" d="M 93.936657 288.430125 
L 94.905118 288.430125 
L 94.905118 251.470125 
L 93.936657 251.470125 
z
" style="fill:#1f77b4;"/>
   </g>
   <g id="patch_43">
    <path clip-path="url(#pc7f8aa624b)" d="M 95.147233 288.430125 
L 96.115694 288.430125 
L 96.115694 273.646125 
L 95.147233 273.646125 
z
" style="fill:#1f77b4;"/>
   </g>
   <g id="patch_44">
    <path clip-path="url(#pc7f8aa624b)" d="M 96.35781 288.430125 
L 97.326271 288.430125 
L 97.326271 273.646125 
L 96.35781 273.646125 
z
" style="fill:#1f77b4;"/>
   </g>
   <g id="patch_45">
    <path clip-path="url(#pc7f8aa624b)" d="M 97.568386 288.430125 
L 98.536847 288.430125 
L 98.536847 258.862125 
L 97.568386 258.862125 
z
" style="fill:#1f77b4;"/>
   </g>
   <g id="patch_46">
    <path clip-path="url(#pc7f8aa624b)" d="M 98.778962 288.430125 
L 99.747423 288.430125 
L 99.747423 281.038125 
L 98.778962 281.038125 
z
" style="fill:#1f77b4;"/>
   </g>
   <g id="patch_47">
    <path clip-path="url(#pc7f8aa624b)" d="M 99.989539 288.430125 
L 100.958 288.430125 
L 100.958 273.646125 
L 99.989539 273.646125 
z
" style="fill:#1f77b4;"/>
   </g>
   <g id="patch_48">
    <path clip-path="url(#pc7f8aa624b)" d="M 101.200115 288.430125 
L 102.168576 288.430125 
L 102.168576 273.646125 
L 101.200115 273.646125 
z
" style="fill:#1f77b4;"/>
   </g>
   <g id="patch_49">
    <path clip-path="url(#pc7f8aa624b)" d="M 102.410691 288.430125 
L 103.379152 288.430125 
L 103.379152 281.038125 
L 102.410691 281.038125 
z
" style="fill:#1f77b4;"/>
   </g>
   <g id="patch_50">
    <path clip-path="url(#pc7f8aa624b)" d="M 103.621267 288.430125 
L 104.589728 288.430125 
L 104.589728 266.254125 
L 103.621267 266.254125 
z
" style="fill:#1f77b4;"/>
   </g>
   <g id="patch_51">
    <path clip-path="url(#pc7f8aa624b)" d="M 104.831844 288.430125 
L 105.800305 288.430125 
L 105.800305 281.038125 
L 104.831844 281.038125 
z
" style="fill:#1f77b4;"/>
   </g>
   <g id="patch_52">
    <path clip-path="url(#pc7f8aa624b)" d="M 106.04242 288.430125 
L 107.010881 288.430125 
L 107.010881 273.646125 
L 106.04242 273.646125 
z
" style="fill:#1f77b4;"/>
   </g>
   <g id="patch_53">
    <path clip-path="url(#pc7f8aa624b)" d="M 107.252996 288.430125 
L 108.221457 288.430125 
L 108.221457 266.254125 
L 107.252996 266.254125 
z
" style="fill:#1f77b4;"/>
   </g>
   <g id="patch_54">
    <path clip-path="url(#pc7f8aa624b)" d="M 108.463572 288.430125 
L 109.432033 288.430125 
L 109.432033 273.646125 
L 108.463572 273.646125 
z
" style="fill:#1f77b4;"/>
   </g>
   <g id="patch_55">
    <path clip-path="url(#pc7f8aa624b)" d="M 109.674149 288.430125 
L 110.64261 288.430125 
L 110.64261 288.430125 
L 109.674149 288.430125 
z
" style="fill:#1f77b4;"/>
   </g>
   <g id="patch_56">
    <path clip-path="url(#pc7f8aa624b)" d="M 110.884725 288.430125 
L 111.853186 288.430125 
L 111.853186 288.430125 
L 110.884725 288.430125 
z
" style="fill:#1f77b4;"/>
   </g>
   <g id="patch_57">
    <path clip-path="url(#pc7f8aa624b)" d="M 112.095301 288.430125 
L 113.063762 288.430125 
L 113.063762 266.254125 
L 112.095301 266.254125 
z
" style="fill:#1f77b4;"/>
   </g>
   <g id="patch_58">
    <path clip-path="url(#pc7f8aa624b)" d="M 113.305878 288.430125 
L 114.274339 288.430125 
L 114.274339 281.038125 
L 113.305878 281.038125 
z
" style="fill:#1f77b4;"/>
   </g>
   <g id="patch_59">
    <path clip-path="url(#pc7f8aa624b)" d="M 114.516454 288.430125 
L 115.484915 288.430125 
L 115.484915 288.430125 
L 114.516454 288.430125 
z
" style="fill:#1f77b4;"/>
   </g>
   <g id="patch_60">
    <path clip-path="url(#pc7f8aa624b)" d="M 115.72703 288.430125 
L 116.695491 288.430125 
L 116.695491 288.430125 
L 115.72703 288.430125 
z
" style="fill:#1f77b4;"/>
   </g>
   <g id="patch_61">
    <path clip-path="url(#pc7f8aa624b)" d="M 116.937606 288.430125 
L 117.906067 288.430125 
L 117.906067 288.430125 
L 116.937606 288.430125 
z
" style="fill:#1f77b4;"/>
   </g>
   <g id="patch_62">
    <path clip-path="url(#pc7f8aa624b)" d="M 118.148183 288.430125 
L 119.116644 288.430125 
L 119.116644 288.430125 
L 118.148183 288.430125 
z
" style="fill:#1f77b4;"/>
   </g>
   <g id="patch_63">
    <path clip-path="url(#pc7f8aa624b)" d="M 119.358759 288.430125 
L 120.32722 288.430125 
L 120.32722 288.430125 
L 119.358759 288.430125 
z
" style="fill:#1f77b4;"/>
   </g>
   <g id="patch_64">
    <path clip-path="url(#pc7f8aa624b)" d="M 120.569335 288.430125 
L 121.537796 288.430125 
L 121.537796 288.430125 
L 120.569335 288.430125 
z
" style="fill:#1f77b4;"/>
   </g>
   <g id="patch_65">
    <path clip-path="url(#pc7f8aa624b)" d="M 121.779911 288.430125 
L 122.748372 288.430125 
L 122.748372 288.430125 
L 121.779911 288.430125 
z
" style="fill:#1f77b4;"/>
   </g>
   <g id="patch_66">
    <path clip-path="url(#pc7f8aa624b)" d="M 122.990488 288.430125 
L 123.958949 288.430125 
L 123.958949 288.430125 
L 122.990488 288.430125 
z
" style="fill:#1f77b4;"/>
   </g>
   <g id="patch_67">
    <path clip-path="url(#pc7f8aa624b)" d="M 124.201064 288.430125 
L 125.169525 288.430125 
L 125.169525 281.038125 
L 124.201064 281.038125 
z
" style="fill:#1f77b4;"/>
   </g>
   <g id="patch_68">
    <path clip-path="url(#pc7f8aa624b)" d="M 125.41164 288.430125 
L 126.380101 288.430125 
L 126.380101 288.430125 
L 125.41164 288.430125 
z
" style="fill:#1f77b4;"/>
   </g>
   <g id="patch_69">
    <path clip-path="url(#pc7f8aa624b)" d="M 126.622217 288.430125 
L 127.590678 288.430125 
L 127.590678 288.430125 
L 126.622217 288.430125 
z
" style="fill:#1f77b4;"/>
   </g>
   <g id="patch_70">
    <path clip-path="url(#pc7f8aa624b)" d="M 127.832793 288.430125 
L 128.801254 288.430125 
L 128.801254 288.430125 
L 127.832793 288.430125 
z
" style="fill:#1f77b4;"/>
   </g>
   <g id="patch_71">
    <path clip-path="url(#pc7f8aa624b)" d="M 129.043369 288.430125 
L 130.01183 288.430125 
L 130.01183 288.430125 
L 129.043369 288.430125 
z
" style="fill:#1f77b4;"/>
   </g>
   <g id="patch_72">
    <path clip-path="url(#pc7f8aa624b)" d="M 130.253945 288.430125 
L 131.222406 288.430125 
L 131.222406 288.430125 
L 130.253945 288.430125 
z
" style="fill:#1f77b4;"/>
   </g>
   <g id="patch_73">
    <path clip-path="url(#pc7f8aa624b)" d="M 131.464522 288.430125 
L 132.432983 288.430125 
L 132.432983 288.430125 
L 131.464522 288.430125 
z
" style="fill:#1f77b4;"/>
   </g>
   <g id="patch_74">
    <path clip-path="url(#pc7f8aa624b)" d="M 132.675098 288.430125 
L 133.643559 288.430125 
L 133.643559 288.430125 
L 132.675098 288.430125 
z
" style="fill:#1f77b4;"/>
   </g>
   <g id="patch_75">
    <path clip-path="url(#pc7f8aa624b)" d="M 133.885674 288.430125 
L 134.854135 288.430125 
L 134.854135 288.430125 
L 133.885674 288.430125 
z
" style="fill:#1f77b4;"/>
   </g>
   <g id="patch_76">
    <path clip-path="url(#pc7f8aa624b)" d="M 135.09625 288.430125 
L 136.064711 288.430125 
L 136.064711 288.430125 
L 135.09625 288.430125 
z
" style="fill:#1f77b4;"/>
   </g>
   <g id="patch_77">
    <path clip-path="url(#pc7f8aa624b)" d="M 136.306827 288.430125 
L 137.275288 288.430125 
L 137.275288 288.430125 
L 136.306827 288.430125 
z
" style="fill:#1f77b4;"/>
   </g>
   <g id="patch_78">
    <path clip-path="url(#pc7f8aa624b)" d="M 137.517403 288.430125 
L 138.485864 288.430125 
L 138.485864 288.430125 
L 137.517403 288.430125 
z
" style="fill:#1f77b4;"/>
   </g>
   <g id="patch_79">
    <path clip-path="url(#pc7f8aa624b)" d="M 138.727979 288.430125 
L 139.69644 288.430125 
L 139.69644 288.430125 
L 138.727979 288.430125 
z
" style="fill:#1f77b4;"/>
   </g>
   <g id="patch_80">
    <path clip-path="url(#pc7f8aa624b)" d="M 139.938556 288.430125 
L 140.907017 288.430125 
L 140.907017 288.430125 
L 139.938556 288.430125 
z
" style="fill:#1f77b4;"/>
   </g>
   <g id="patch_81">
    <path clip-path="url(#pc7f8aa624b)" d="M 141.149132 288.430125 
L 142.117593 288.430125 
L 142.117593 288.430125 
L 141.149132 288.430125 
z
" style="fill:#1f77b4;"/>
   </g>
   <g id="patch_82">
    <path clip-path="url(#pc7f8aa624b)" d="M 142.359708 288.430125 
L 143.328169 288.430125 
L 143.328169 288.430125 
L 142.359708 288.430125 
z
" style="fill:#1f77b4;"/>
   </g>
   <g id="patch_83">
    <path clip-path="url(#pc7f8aa624b)" d="M 143.570284 288.430125 
L 144.538745 288.430125 
L 144.538745 288.430125 
L 143.570284 288.430125 
z
" style="fill:#1f77b4;"/>
   </g>
   <g id="patch_84">
    <path clip-path="url(#pc7f8aa624b)" d="M 144.780861 288.430125 
L 145.749322 288.430125 
L 145.749322 281.038125 
L 144.780861 281.038125 
z
" style="fill:#1f77b4;"/>
   </g>
   <g id="patch_85">
    <path clip-path="url(#pc7f8aa624b)" d="M 145.991437 288.430125 
L 146.959898 288.430125 
L 146.959898 288.430125 
L 145.991437 288.430125 
z
" style="fill:#1f77b4;"/>
   </g>
   <g id="patch_86">
    <path clip-path="url(#pc7f8aa624b)" d="M 147.202013 288.430125 
L 148.170474 288.430125 
L 148.170474 288.430125 
L 147.202013 288.430125 
z
" style="fill:#1f77b4;"/>
   </g>
   <g id="patch_87">
    <path clip-path="url(#pc7f8aa624b)" d="M 148.412589 288.430125 
L 149.38105 288.430125 
L 149.38105 288.430125 
L 148.412589 288.430125 
z
" style="fill:#1f77b4;"/>
   </g>
   <g id="patch_88">
    <path clip-path="url(#pc7f8aa624b)" d="M 149.623166 288.430125 
L 150.591627 288.430125 
L 150.591627 288.430125 
L 149.623166 288.430125 
z
" style="fill:#1f77b4;"/>
   </g>
   <g id="patch_89">
    <path clip-path="url(#pc7f8aa624b)" d="M 150.833742 288.430125 
L 151.802203 288.430125 
L 151.802203 288.430125 
L 150.833742 288.430125 
z
" style="fill:#1f77b4;"/>
   </g>
   <g id="patch_90">
    <path clip-path="url(#pc7f8aa624b)" d="M 152.044318 288.430125 
L 153.012779 288.430125 
L 153.012779 288.430125 
L 152.044318 288.430125 
z
" style="fill:#1f77b4;"/>
   </g>
   <g id="patch_91">
    <path clip-path="url(#pc7f8aa624b)" d="M 153.254894 288.430125 
L 154.223356 288.430125 
L 154.223356 288.430125 
L 153.254894 288.430125 
z
" style="fill:#1f77b4;"/>
   </g>
   <g id="patch_92">
    <path clip-path="url(#pc7f8aa624b)" d="M 154.465471 288.430125 
L 155.433932 288.430125 
L 155.433932 295.822125 
L 154.465471 295.822125 
z
" style="fill:#1f77b4;"/>
   </g>
   <g id="patch_93">
    <path clip-path="url(#pc7f8aa624b)" d="M 155.676047 288.430125 
L 156.644508 288.430125 
L 156.644508 288.430125 
L 155.676047 288.430125 
z
" style="fill:#1f77b4;"/>
   </g>
   <g id="patch_94">
    <path clip-path="url(#pc7f8aa624b)" d="M 156.886623 288.430125 
L 157.855084 288.430125 
L 157.855084 288.430125 
L 156.886623 288.430125 
z
" style="fill:#1f77b4;"/>
   </g>
   <g id="patch_95">
    <path clip-path="url(#pc7f8aa624b)" d="M 158.0972 288.430125 
L 159.065661 288.430125 
L 159.065661 281.038125 
L 158.0972 281.038125 
z
" style="fill:#1f77b4;"/>
   </g>
   <g id="patch_96">
    <path clip-path="url(#pc7f8aa624b)" d="M 159.307776 288.430125 
L 160.276237 288.430125 
L 160.276237 288.430125 
L 159.307776 288.430125 
z
" style="fill:#1f77b4;"/>
   </g>
   <g id="patch_97">
    <path clip-path="url(#pc7f8aa624b)" d="M 160.518352 288.430125 
L 161.486813 288.430125 
L 161.486813 288.430125 
L 160.518352 288.430125 
z
" style="fill:#1f77b4;"/>
   </g>
   <g id="patch_98">
    <path clip-path="url(#pc7f8aa624b)" d="M 161.728928 288.430125 
L 162.697389 288.430125 
L 162.697389 288.430125 
L 161.728928 288.430125 
z
" style="fill:#1f77b4;"/>
   </g>
   <g id="patch_99">
    <path clip-path="url(#pc7f8aa624b)" d="M 162.939505 288.430125 
L 163.907966 288.430125 
L 163.907966 288.430125 
L 162.939505 288.430125 
z
" style="fill:#1f77b4;"/>
   </g>
   <g id="patch_100">
    <path clip-path="url(#pc7f8aa624b)" d="M 164.150081 288.430125 
L 165.118542 288.430125 
L 165.118542 288.430125 
L 164.150081 288.430125 
z
" style="fill:#1f77b4;"/>
   </g>
   <g id="patch_101">
    <path clip-path="url(#pc7f8aa624b)" d="M 165.360657 288.430125 
L 166.329118 288.430125 
L 166.329118 288.430125 
L 165.360657 288.430125 
z
" style="fill:#1f77b4;"/>
   </g>
   <g id="patch_102">
    <path clip-path="url(#pc7f8aa624b)" d="M 166.571233 288.430125 
L 167.539694 288.430125 
L 167.539694 288.430125 
L 166.571233 288.430125 
z
" style="fill:#1f77b4;"/>
   </g>
   <g id="patch_103">
    <path clip-path="url(#pc7f8aa624b)" d="M 167.78181 288.430125 
L 168.750271 288.430125 
L 168.750271 288.430125 
L 167.78181 288.430125 
z
" style="fill:#1f77b4;"/>
   </g>
   <g id="patch_104">
    <path clip-path="url(#pc7f8aa624b)" d="M 168.992386 288.430125 
L 169.960847 288.430125 
L 169.960847 288.430125 
L 168.992386 288.430125 
z
" style="fill:#1f77b4;"/>
   </g>
   <g id="patch_105">
    <path clip-path="url(#pc7f8aa624b)" d="M 170.202962 288.430125 
L 171.171423 288.430125 
L 171.171423 288.430125 
L 170.202962 288.430125 
z
" style="fill:#1f77b4;"/>
   </g>
   <g id="patch_106">
    <path clip-path="url(#pc7f8aa624b)" d="M 171.413539 288.430125 
L 172.382 288.430125 
L 172.382 288.430125 
L 171.413539 288.430125 
z
" style="fill:#1f77b4;"/>
   </g>
   <g id="patch_107">
    <path clip-path="url(#pc7f8aa624b)" d="M 172.624115 288.430125 
L 173.592576 288.430125 
L 173.592576 288.430125 
L 172.624115 288.430125 
z
" style="fill:#1f77b4;"/>
   </g>
   <g id="patch_108">
    <path clip-path="url(#pc7f8aa624b)" d="M 173.834691 288.430125 
L 174.803152 288.430125 
L 174.803152 288.430125 
L 173.834691 288.430125 
z
" style="fill:#1f77b4;"/>
   </g>
   <g id="patch_109">
    <path clip-path="url(#pc7f8aa624b)" d="M 175.045267 288.430125 
L 176.013728 288.430125 
L 176.013728 288.430125 
L 175.045267 288.430125 
z
" style="fill:#1f77b4;"/>
   </g>
   <g id="patch_110">
    <path clip-path="url(#pc7f8aa624b)" d="M 176.255844 288.430125 
L 177.224305 288.430125 
L 177.224305 288.430125 
L 176.255844 288.430125 
z
" style="fill:#1f77b4;"/>
   </g>
   <g id="patch_111">
    <path clip-path="url(#pc7f8aa624b)" d="M 177.46642 288.430125 
L 178.434881 288.430125 
L 178.434881 288.430125 
L 177.46642 288.430125 
z
" style="fill:#1f77b4;"/>
   </g>
   <g id="patch_112">
    <path clip-path="url(#pc7f8aa624b)" d="M 178.676996 288.430125 
L 179.645457 288.430125 
L 179.645457 288.430125 
L 178.676996 288.430125 
z
" style="fill:#1f77b4;"/>
   </g>
   <g id="patch_113">
    <path clip-path="url(#pc7f8aa624b)" d="M 179.887572 288.430125 
L 180.856033 288.430125 
L 180.856033 288.430125 
L 179.887572 288.430125 
z
" style="fill:#1f77b4;"/>
   </g>
   <g id="patch_114">
    <path clip-path="url(#pc7f8aa624b)" d="M 181.098149 288.430125 
L 182.06661 288.430125 
L 182.06661 288.430125 
L 181.098149 288.430125 
z
" style="fill:#1f77b4;"/>
   </g>
   <g id="patch_115">
    <path clip-path="url(#pc7f8aa624b)" d="M 182.308725 288.430125 
L 183.277186 288.430125 
L 183.277186 288.430125 
L 182.308725 288.430125 
z
" style="fill:#1f77b4;"/>
   </g>
   <g id="patch_116">
    <path clip-path="url(#pc7f8aa624b)" d="M 183.519301 288.430125 
L 184.487762 288.430125 
L 184.487762 288.430125 
L 183.519301 288.430125 
z
" style="fill:#1f77b4;"/>
   </g>
   <g id="patch_117">
    <path clip-path="url(#pc7f8aa624b)" d="M 184.729878 288.430125 
L 185.698339 288.430125 
L 185.698339 288.430125 
L 184.729878 288.430125 
z
" style="fill:#1f77b4;"/>
   </g>
   <g id="patch_118">
    <path clip-path="url(#pc7f8aa624b)" d="M 185.940454 288.430125 
L 186.908915 288.430125 
L 186.908915 288.430125 
L 185.940454 288.430125 
z
" style="fill:#1f77b4;"/>
   </g>
   <g id="patch_119">
    <path clip-path="url(#pc7f8aa624b)" d="M 187.15103 288.430125 
L 188.119491 288.430125 
L 188.119491 288.430125 
L 187.15103 288.430125 
z
" style="fill:#1f77b4;"/>
   </g>
   <g id="patch_120">
    <path clip-path="url(#pc7f8aa624b)" d="M 188.361606 288.430125 
L 189.330067 288.430125 
L 189.330067 288.430125 
L 188.361606 288.430125 
z
" style="fill:#1f77b4;"/>
   </g>
   <g id="patch_121">
    <path clip-path="url(#pc7f8aa624b)" d="M 189.572183 288.430125 
L 190.540644 288.430125 
L 190.540644 288.430125 
L 189.572183 288.430125 
z
" style="fill:#1f77b4;"/>
   </g>
   <g id="patch_122">
    <path clip-path="url(#pc7f8aa624b)" d="M 190.782759 288.430125 
L 191.75122 288.430125 
L 191.75122 288.430125 
L 190.782759 288.430125 
z
" style="fill:#1f77b4;"/>
   </g>
   <g id="patch_123">
    <path clip-path="url(#pc7f8aa624b)" d="M 191.993335 288.430125 
L 192.961796 288.430125 
L 192.961796 288.430125 
L 191.993335 288.430125 
z
" style="fill:#1f77b4;"/>
   </g>
   <g id="patch_124">
    <path clip-path="url(#pc7f8aa624b)" d="M 193.203911 288.430125 
L 194.172372 288.430125 
L 194.172372 288.430125 
L 193.203911 288.430125 
z
" style="fill:#1f77b4;"/>
   </g>
   <g id="patch_125">
    <path clip-path="url(#pc7f8aa624b)" d="M 194.414488 288.430125 
L 195.382949 288.430125 
L 195.382949 288.430125 
L 194.414488 288.430125 
z
" style="fill:#1f77b4;"/>
   </g>
   <g id="patch_126">
    <path clip-path="url(#pc7f8aa624b)" d="M 195.625064 288.430125 
L 196.593525 288.430125 
L 196.593525 288.430125 
L 195.625064 288.430125 
z
" style="fill:#1f77b4;"/>
   </g>
   <g id="patch_127">
    <path clip-path="url(#pc7f8aa624b)" d="M 196.83564 288.430125 
L 197.804101 288.430125 
L 197.804101 288.430125 
L 196.83564 288.430125 
z
" style="fill:#1f77b4;"/>
   </g>
   <g id="patch_128">
    <path clip-path="url(#pc7f8aa624b)" d="M 198.046217 288.430125 
L 199.014678 288.430125 
L 199.014678 288.430125 
L 198.046217 288.430125 
z
" style="fill:#1f77b4;"/>
   </g>
   <g id="patch_129">
    <path clip-path="url(#pc7f8aa624b)" d="M 199.256793 288.430125 
L 200.225254 288.430125 
L 200.225254 288.430125 
L 199.256793 288.430125 
z
" style="fill:#1f77b4;"/>
   </g>
   <g id="patch_130">
    <path clip-path="url(#pc7f8aa624b)" d="M 200.467369 288.430125 
L 201.43583 288.430125 
L 201.43583 288.430125 
L 200.467369 288.430125 
z
" style="fill:#1f77b4;"/>
   </g>
   <g id="patch_131">
    <path clip-path="url(#pc7f8aa624b)" d="M 201.677945 288.430125 
L 202.646406 288.430125 
L 202.646406 288.430125 
L 201.677945 288.430125 
z
" style="fill:#1f77b4;"/>
   </g>
   <g id="patch_132">
    <path clip-path="url(#pc7f8aa624b)" d="M 202.888522 288.430125 
L 203.856983 288.430125 
L 203.856983 288.430125 
L 202.888522 288.430125 
z
" style="fill:#1f77b4;"/>
   </g>
   <g id="patch_133">
    <path clip-path="url(#pc7f8aa624b)" d="M 204.099098 288.430125 
L 205.067559 288.430125 
L 205.067559 288.430125 
L 204.099098 288.430125 
z
" style="fill:#1f77b4;"/>
   </g>
   <g id="patch_134">
    <path clip-path="url(#pc7f8aa624b)" d="M 205.309674 288.430125 
L 206.278135 288.430125 
L 206.278135 288.430125 
L 205.309674 288.430125 
z
" style="fill:#1f77b4;"/>
   </g>
   <g id="patch_135">
    <path clip-path="url(#pc7f8aa624b)" d="M 206.52025 288.430125 
L 207.488711 288.430125 
L 207.488711 288.430125 
L 206.52025 288.430125 
z
" style="fill:#1f77b4;"/>
   </g>
   <g id="patch_136">
    <path clip-path="url(#pc7f8aa624b)" d="M 207.730827 288.430125 
L 208.699288 288.430125 
L 208.699288 288.430125 
L 207.730827 288.430125 
z
" style="fill:#1f77b4;"/>
   </g>
   <g id="patch_137">
    <path clip-path="url(#pc7f8aa624b)" d="M 208.941403 288.430125 
L 209.909864 288.430125 
L 209.909864 288.430125 
L 208.941403 288.430125 
z
" style="fill:#1f77b4;"/>
   </g>
   <g id="patch_138">
    <path clip-path="url(#pc7f8aa624b)" d="M 210.151979 288.430125 
L 211.12044 288.430125 
L 211.12044 288.430125 
L 210.151979 288.430125 
z
" style="fill:#1f77b4;"/>
   </g>
   <g id="patch_139">
    <path clip-path="url(#pc7f8aa624b)" d="M 211.362556 288.430125 
L 212.331017 288.430125 
L 212.331017 288.430125 
L 211.362556 288.430125 
z
" style="fill:#1f77b4;"/>
   </g>
   <g id="patch_140">
    <path clip-path="url(#pc7f8aa624b)" d="M 212.573132 288.430125 
L 213.541593 288.430125 
L 213.541593 288.430125 
L 212.573132 288.430125 
z
" style="fill:#1f77b4;"/>
   </g>
   <g id="patch_141">
    <path clip-path="url(#pc7f8aa624b)" d="M 213.783708 288.430125 
L 214.752169 288.430125 
L 214.752169 288.430125 
L 213.783708 288.430125 
z
" style="fill:#1f77b4;"/>
   </g>
   <g id="patch_142">
    <path clip-path="url(#pc7f8aa624b)" d="M 214.994284 288.430125 
L 215.962745 288.430125 
L 215.962745 288.430125 
L 214.994284 288.430125 
z
" style="fill:#1f77b4;"/>
   </g>
   <g id="patch_143">
    <path clip-path="url(#pc7f8aa624b)" d="M 216.204861 288.430125 
L 217.173322 288.430125 
L 217.173322 288.430125 
L 216.204861 288.430125 
z
" style="fill:#1f77b4;"/>
   </g>
   <g id="patch_144">
    <path clip-path="url(#pc7f8aa624b)" d="M 217.415437 288.430125 
L 218.383898 288.430125 
L 218.383898 288.430125 
L 217.415437 288.430125 
z
" style="fill:#1f77b4;"/>
   </g>
   <g id="patch_145">
    <path clip-path="url(#pc7f8aa624b)" d="M 218.626013 288.430125 
L 219.594474 288.430125 
L 219.594474 288.430125 
L 218.626013 288.430125 
z
" style="fill:#1f77b4;"/>
   </g>
   <g id="patch_146">
    <path clip-path="url(#pc7f8aa624b)" d="M 219.836589 288.430125 
L 220.80505 288.430125 
L 220.80505 288.430125 
L 219.836589 288.430125 
z
" style="fill:#1f77b4;"/>
   </g>
   <g id="patch_147">
    <path clip-path="url(#pc7f8aa624b)" d="M 221.047166 288.430125 
L 222.015627 288.430125 
L 222.015627 288.430125 
L 221.047166 288.430125 
z
" style="fill:#1f77b4;"/>
   </g>
   <g id="patch_148">
    <path clip-path="url(#pc7f8aa624b)" d="M 222.257742 288.430125 
L 223.226203 288.430125 
L 223.226203 288.430125 
L 222.257742 288.430125 
z
" style="fill:#1f77b4;"/>
   </g>
   <g id="patch_149">
    <path clip-path="url(#pc7f8aa624b)" d="M 223.468318 288.430125 
L 224.436779 288.430125 
L 224.436779 288.430125 
L 223.468318 288.430125 
z
" style="fill:#1f77b4;"/>
   </g>
   <g id="patch_150">
    <path clip-path="url(#pc7f8aa624b)" d="M 224.678894 288.430125 
L 225.647356 288.430125 
L 225.647356 288.430125 
L 224.678894 288.430125 
z
" style="fill:#1f77b4;"/>
   </g>
   <g id="patch_151">
    <path clip-path="url(#pc7f8aa624b)" d="M 225.889471 288.430125 
L 226.857932 288.430125 
L 226.857932 288.430125 
L 225.889471 288.430125 
z
" style="fill:#1f77b4;"/>
   </g>
   <g id="patch_152">
    <path clip-path="url(#pc7f8aa624b)" d="M 227.100047 288.430125 
L 228.068508 288.430125 
L 228.068508 288.430125 
L 227.100047 288.430125 
z
" style="fill:#1f77b4;"/>
   </g>
   <g id="patch_153">
    <path clip-path="url(#pc7f8aa624b)" d="M 228.310623 288.430125 
L 229.279084 288.430125 
L 229.279084 288.430125 
L 228.310623 288.430125 
z
" style="fill:#1f77b4;"/>
   </g>
   <g id="patch_154">
    <path clip-path="url(#pc7f8aa624b)" d="M 229.5212 288.430125 
L 230.489661 288.430125 
L 230.489661 288.430125 
L 229.5212 288.430125 
z
" style="fill:#1f77b4;"/>
   </g>
   <g id="patch_155">
    <path clip-path="url(#pc7f8aa624b)" d="M 230.731776 288.430125 
L 231.700237 288.430125 
L 231.700237 288.430125 
L 230.731776 288.430125 
z
" style="fill:#1f77b4;"/>
   </g>
   <g id="patch_156">
    <path clip-path="url(#pc7f8aa624b)" d="M 231.942352 288.430125 
L 232.910813 288.430125 
L 232.910813 288.430125 
L 231.942352 288.430125 
z
" style="fill:#1f77b4;"/>
   </g>
   <g id="patch_157">
    <path clip-path="url(#pc7f8aa624b)" d="M 233.152928 288.430125 
L 234.121389 288.430125 
L 234.121389 288.430125 
L 233.152928 288.430125 
z
" style="fill:#1f77b4;"/>
   </g>
   <g id="patch_158">
    <path clip-path="url(#pc7f8aa624b)" d="M 234.363505 288.430125 
L 235.331966 288.430125 
L 235.331966 288.430125 
L 234.363505 288.430125 
z
" style="fill:#1f77b4;"/>
   </g>
   <g id="patch_159">
    <path clip-path="url(#pc7f8aa624b)" d="M 235.574081 288.430125 
L 236.542542 288.430125 
L 236.542542 288.430125 
L 235.574081 288.430125 
z
" style="fill:#1f77b4;"/>
   </g>
   <g id="patch_160">
    <path clip-path="url(#pc7f8aa624b)" d="M 236.784657 288.430125 
L 237.753118 288.430125 
L 237.753118 288.430125 
L 236.784657 288.430125 
z
" style="fill:#1f77b4;"/>
   </g>
   <g id="patch_161">
    <path clip-path="url(#pc7f8aa624b)" d="M 237.995233 288.430125 
L 238.963694 288.430125 
L 238.963694 288.430125 
L 237.995233 288.430125 
z
" style="fill:#1f77b4;"/>
   </g>
   <g id="patch_162">
    <path clip-path="url(#pc7f8aa624b)" d="M 239.20581 288.430125 
L 240.174271 288.430125 
L 240.174271 288.430125 
L 239.20581 288.430125 
z
" style="fill:#1f77b4;"/>
   </g>
   <g id="patch_163">
    <path clip-path="url(#pc7f8aa624b)" d="M 240.416386 288.430125 
L 241.384847 288.430125 
L 241.384847 288.430125 
L 240.416386 288.430125 
z
" style="fill:#1f77b4;"/>
   </g>
   <g id="patch_164">
    <path clip-path="url(#pc7f8aa624b)" d="M 241.626962 288.430125 
L 242.595423 288.430125 
L 242.595423 288.430125 
L 241.626962 288.430125 
z
" style="fill:#1f77b4;"/>
   </g>
   <g id="patch_165">
    <path clip-path="url(#pc7f8aa624b)" d="M 242.837539 288.430125 
L 243.806 288.430125 
L 243.806 288.430125 
L 242.837539 288.430125 
z
" style="fill:#1f77b4;"/>
   </g>
   <g id="patch_166">
    <path clip-path="url(#pc7f8aa624b)" d="M 244.048115 288.430125 
L 245.016576 288.430125 
L 245.016576 303.214125 
L 244.048115 303.214125 
z
" style="fill:#1f77b4;"/>
   </g>
   <g id="patch_167">
    <path clip-path="url(#pc7f8aa624b)" d="M 245.258691 288.430125 
L 246.227152 288.430125 
L 246.227152 273.646125 
L 245.258691 273.646125 
z
" style="fill:#1f77b4;"/>
   </g>
   <g id="patch_168">
    <path clip-path="url(#pc7f8aa624b)" d="M 246.469267 288.430125 
L 247.437728 288.430125 
L 247.437728 288.430125 
L 246.469267 288.430125 
z
" style="fill:#1f77b4;"/>
   </g>
   <g id="patch_169">
    <path clip-path="url(#pc7f8aa624b)" d="M 247.679844 288.430125 
L 248.648305 288.430125 
L 248.648305 288.430125 
L 247.679844 288.430125 
z
" style="fill:#1f77b4;"/>
   </g>
   <g id="patch_170">
    <path clip-path="url(#pc7f8aa624b)" d="M 248.89042 288.430125 
L 249.858881 288.430125 
L 249.858881 288.430125 
L 248.89042 288.430125 
z
" style="fill:#1f77b4;"/>
   </g>
   <g id="patch_171">
    <path clip-path="url(#pc7f8aa624b)" d="M 250.100996 288.430125 
L 251.069457 288.430125 
L 251.069457 288.430125 
L 250.100996 288.430125 
z
" style="fill:#1f77b4;"/>
   </g>
   <g id="patch_172">
    <path clip-path="url(#pc7f8aa624b)" d="M 251.311572 288.430125 
L 252.280033 288.430125 
L 252.280033 288.430125 
L 251.311572 288.430125 
z
" style="fill:#1f77b4;"/>
   </g>
   <g id="patch_173">
    <path clip-path="url(#pc7f8aa624b)" d="M 252.522149 288.430125 
L 253.49061 288.430125 
L 253.49061 288.430125 
L 252.522149 288.430125 
z
" style="fill:#1f77b4;"/>
   </g>
   <g id="patch_174">
    <path clip-path="url(#pc7f8aa624b)" d="M 253.732725 288.430125 
L 254.701186 288.430125 
L 254.701186 288.430125 
L 253.732725 288.430125 
z
" style="fill:#1f77b4;"/>
   </g>
   <g id="patch_175">
    <path clip-path="url(#pc7f8aa624b)" d="M 254.943301 288.430125 
L 255.911762 288.430125 
L 255.911762 288.430125 
L 254.943301 288.430125 
z
" style="fill:#1f77b4;"/>
   </g>
   <g id="patch_176">
    <path clip-path="url(#pc7f8aa624b)" d="M 256.153878 288.430125 
L 257.122339 288.430125 
L 257.122339 288.430125 
L 256.153878 288.430125 
z
" style="fill:#1f77b4;"/>
   </g>
   <g id="patch_177">
    <path clip-path="url(#pc7f8aa624b)" d="M 257.364454 288.430125 
L 258.332915 288.430125 
L 258.332915 288.430125 
L 257.364454 288.430125 
z
" style="fill:#1f77b4;"/>
   </g>
   <g id="patch_178">
    <path clip-path="url(#pc7f8aa624b)" d="M 258.57503 288.430125 
L 259.543491 288.430125 
L 259.543491 288.430125 
L 258.57503 288.430125 
z
" style="fill:#1f77b4;"/>
   </g>
   <g id="patch_179">
    <path clip-path="url(#pc7f8aa624b)" d="M 259.785606 288.430125 
L 260.754067 288.430125 
L 260.754067 288.430125 
L 259.785606 288.430125 
z
" style="fill:#1f77b4;"/>
   </g>
   <g id="patch_180">
    <path clip-path="url(#pc7f8aa624b)" d="M 260.996183 288.430125 
L 261.964644 288.430125 
L 261.964644 288.430125 
L 260.996183 288.430125 
z
" style="fill:#1f77b4;"/>
   </g>
   <g id="patch_181">
    <path clip-path="url(#pc7f8aa624b)" d="M 262.206759 288.430125 
L 263.17522 288.430125 
L 263.17522 288.430125 
L 262.206759 288.430125 
z
" style="fill:#1f77b4;"/>
   </g>
   <g id="patch_182">
    <path clip-path="url(#pc7f8aa624b)" d="M 263.417335 288.430125 
L 264.385796 288.430125 
L 264.385796 288.430125 
L 263.417335 288.430125 
z
" style="fill:#1f77b4;"/>
   </g>
   <g id="patch_183">
    <path clip-path="url(#pc7f8aa624b)" d="M 264.627911 288.430125 
L 265.596372 288.430125 
L 265.596372 288.430125 
L 264.627911 288.430125 
z
" style="fill:#1f77b4;"/>
   </g>
   <g id="patch_184">
    <path clip-path="url(#pc7f8aa624b)" d="M 265.838488 288.430125 
L 266.806949 288.430125 
L 266.806949 288.430125 
L 265.838488 288.430125 
z
" style="fill:#1f77b4;"/>
   </g>
   <g id="patch_185">
    <path clip-path="url(#pc7f8aa624b)" d="M 267.049064 288.430125 
L 268.017525 288.430125 
L 268.017525 288.430125 
L 267.049064 288.430125 
z
" style="fill:#1f77b4;"/>
   </g>
   <g id="patch_186">
    <path clip-path="url(#pc7f8aa624b)" d="M 268.25964 288.430125 
L 269.228101 288.430125 
L 269.228101 288.430125 
L 268.25964 288.430125 
z
" style="fill:#1f77b4;"/>
   </g>
   <g id="patch_187">
    <path clip-path="url(#pc7f8aa624b)" d="M 269.470217 288.430125 
L 270.438678 288.430125 
L 270.438678 288.430125 
L 269.470217 288.430125 
z
" style="fill:#1f77b4;"/>
   </g>
   <g id="patch_188">
    <path clip-path="url(#pc7f8aa624b)" d="M 270.680793 288.430125 
L 271.649254 288.430125 
L 271.649254 288.430125 
L 270.680793 288.430125 
z
" style="fill:#1f77b4;"/>
   </g>
   <g id="patch_189">
    <path clip-path="url(#pc7f8aa624b)" d="M 271.891369 288.430125 
L 272.85983 288.430125 
L 272.85983 288.430125 
L 271.891369 288.430125 
z
" style="fill:#1f77b4;"/>
   </g>
   <g id="patch_190">
    <path clip-path="url(#pc7f8aa624b)" d="M 273.101945 288.430125 
L 274.070406 288.430125 
L 274.070406 288.430125 
L 273.101945 288.430125 
z
" style="fill:#1f77b4;"/>
   </g>
   <g id="patch_191">
    <path clip-path="url(#pc7f8aa624b)" d="M 274.312522 288.430125 
L 275.280983 288.430125 
L 275.280983 288.430125 
L 274.312522 288.430125 
z
" style="fill:#1f77b4;"/>
   </g>
   <g id="patch_192">
    <path clip-path="url(#pc7f8aa624b)" d="M 275.523098 288.430125 
L 276.491559 288.430125 
L 276.491559 288.430125 
L 275.523098 288.430125 
z
" style="fill:#1f77b4;"/>
   </g>
   <g id="patch_193">
    <path clip-path="url(#pc7f8aa624b)" d="M 276.733674 288.430125 
L 277.702135 288.430125 
L 277.702135 288.430125 
L 276.733674 288.430125 
z
" style="fill:#1f77b4;"/>
   </g>
   <g id="patch_194">
    <path clip-path="url(#pc7f8aa624b)" d="M 277.94425 288.430125 
L 278.912711 288.430125 
L 278.912711 288.430125 
L 277.94425 288.430125 
z
" style="fill:#1f77b4;"/>
   </g>
   <g id="patch_195">
    <path clip-path="url(#pc7f8aa624b)" d="M 279.154827 288.430125 
L 280.123288 288.430125 
L 280.123288 288.430125 
L 279.154827 288.430125 
z
" style="fill:#1f77b4;"/>
   </g>
   <g id="patch_196">
    <path clip-path="url(#pc7f8aa624b)" d="M 280.365403 288.430125 
L 281.333864 288.430125 
L 281.333864 288.430125 
L 280.365403 288.430125 
z
" style="fill:#1f77b4;"/>
   </g>
   <g id="patch_197">
    <path clip-path="url(#pc7f8aa624b)" d="M 281.575979 288.430125 
L 282.54444 288.430125 
L 282.54444 288.430125 
L 281.575979 288.430125 
z
" style="fill:#1f77b4;"/>
   </g>
   <g id="patch_198">
    <path clip-path="url(#pc7f8aa624b)" d="M 282.786556 288.430125 
L 283.755017 288.430125 
L 283.755017 288.430125 
L 282.786556 288.430125 
z
" style="fill:#1f77b4;"/>
   </g>
   <g id="patch_199">
    <path clip-path="url(#pc7f8aa624b)" d="M 283.997132 288.430125 
L 284.965593 288.430125 
L 284.965593 288.430125 
L 283.997132 288.430125 
z
" style="fill:#1f77b4;"/>
   </g>
   <g id="patch_200">
    <path clip-path="url(#pc7f8aa624b)" d="M 285.207708 288.430125 
L 286.176169 288.430125 
L 286.176169 288.430125 
L 285.207708 288.430125 
z
" style="fill:#1f77b4;"/>
   </g>
   <g id="patch_201">
    <path clip-path="url(#pc7f8aa624b)" d="M 286.418284 288.430125 
L 287.386745 288.430125 
L 287.386745 288.430125 
L 286.418284 288.430125 
z
" style="fill:#1f77b4;"/>
   </g>
   <g id="patch_202">
    <path clip-path="url(#pc7f8aa624b)" d="M 287.628861 288.430125 
L 288.597322 288.430125 
L 288.597322 288.430125 
L 287.628861 288.430125 
z
" style="fill:#1f77b4;"/>
   </g>
   <g id="patch_203">
    <path clip-path="url(#pc7f8aa624b)" d="M 288.839437 288.430125 
L 289.807898 288.430125 
L 289.807898 288.430125 
L 288.839437 288.430125 
z
" style="fill:#1f77b4;"/>
   </g>
   <g id="patch_204">
    <path clip-path="url(#pc7f8aa624b)" d="M 290.050013 288.430125 
L 291.018474 288.430125 
L 291.018474 288.430125 
L 290.050013 288.430125 
z
" style="fill:#1f77b4;"/>
   </g>
   <g id="patch_205">
    <path clip-path="url(#pc7f8aa624b)" d="M 291.260589 288.430125 
L 292.22905 288.430125 
L 292.22905 288.430125 
L 291.260589 288.430125 
z
" style="fill:#1f77b4;"/>
   </g>
   <g id="patch_206">
    <path clip-path="url(#pc7f8aa624b)" d="M 292.471166 288.430125 
L 293.439627 288.430125 
L 293.439627 288.430125 
L 292.471166 288.430125 
z
" style="fill:#1f77b4;"/>
   </g>
   <g id="patch_207">
    <path clip-path="url(#pc7f8aa624b)" d="M 293.681742 288.430125 
L 294.650203 288.430125 
L 294.650203 288.430125 
L 293.681742 288.430125 
z
" style="fill:#1f77b4;"/>
   </g>
   <g id="patch_208">
    <path clip-path="url(#pc7f8aa624b)" d="M 294.892318 288.430125 
L 295.860779 288.430125 
L 295.860779 288.430125 
L 294.892318 288.430125 
z
" style="fill:#1f77b4;"/>
   </g>
   <g id="patch_209">
    <path clip-path="url(#pc7f8aa624b)" d="M 296.102894 288.430125 
L 297.071356 288.430125 
L 297.071356 288.430125 
L 296.102894 288.430125 
z
" style="fill:#1f77b4;"/>
   </g>
   <g id="patch_210">
    <path clip-path="url(#pc7f8aa624b)" d="M 297.313471 288.430125 
L 298.281932 288.430125 
L 298.281932 288.430125 
L 297.313471 288.430125 
z
" style="fill:#1f77b4;"/>
   </g>
   <g id="patch_211">
    <path clip-path="url(#pc7f8aa624b)" d="M 298.524047 288.430125 
L 299.492508 288.430125 
L 299.492508 288.430125 
L 298.524047 288.430125 
z
" style="fill:#1f77b4;"/>
   </g>
   <g id="patch_212">
    <path clip-path="url(#pc7f8aa624b)" d="M 299.734623 288.430125 
L 300.703084 288.430125 
L 300.703084 288.430125 
L 299.734623 288.430125 
z
" style="fill:#1f77b4;"/>
   </g>
   <g id="patch_213">
    <path clip-path="url(#pc7f8aa624b)" d="M 300.9452 288.430125 
L 301.913661 288.430125 
L 301.913661 281.038125 
L 300.9452 281.038125 
z
" style="fill:#1f77b4;"/>
   </g>
   <g id="patch_214">
    <path clip-path="url(#pc7f8aa624b)" d="M 302.155776 288.430125 
L 303.124237 288.430125 
L 303.124237 288.430125 
L 302.155776 288.430125 
z
" style="fill:#1f77b4;"/>
   </g>
   <g id="patch_215">
    <path clip-path="url(#pc7f8aa624b)" d="M 303.366352 288.430125 
L 304.334813 288.430125 
L 304.334813 288.430125 
L 303.366352 288.430125 
z
" style="fill:#1f77b4;"/>
   </g>
   <g id="patch_216">
    <path clip-path="url(#pc7f8aa624b)" d="M 304.576928 288.430125 
L 305.545389 288.430125 
L 305.545389 288.430125 
L 304.576928 288.430125 
z
" style="fill:#1f77b4;"/>
   </g>
   <g id="patch_217">
    <path clip-path="url(#pc7f8aa624b)" d="M 305.787505 288.430125 
L 306.755966 288.430125 
L 306.755966 288.430125 
L 305.787505 288.430125 
z
" style="fill:#1f77b4;"/>
   </g>
   <g id="patch_218">
    <path clip-path="url(#pc7f8aa624b)" d="M 306.998081 288.430125 
L 307.966542 288.430125 
L 307.966542 288.430125 
L 306.998081 288.430125 
z
" style="fill:#1f77b4;"/>
   </g>
   <g id="patch_219">
    <path clip-path="url(#pc7f8aa624b)" d="M 308.208657 288.430125 
L 309.177118 288.430125 
L 309.177118 288.430125 
L 308.208657 288.430125 
z
" style="fill:#1f77b4;"/>
   </g>
   <g id="patch_220">
    <path clip-path="url(#pc7f8aa624b)" d="M 309.419233 288.430125 
L 310.387694 288.430125 
L 310.387694 288.430125 
L 309.419233 288.430125 
z
" style="fill:#1f77b4;"/>
   </g>
   <g id="patch_221">
    <path clip-path="url(#pc7f8aa624b)" d="M 310.62981 288.430125 
L 311.598271 288.430125 
L 311.598271 281.038125 
L 310.62981 281.038125 
z
" style="fill:#1f77b4;"/>
   </g>
   <g id="patch_222">
    <path clip-path="url(#pc7f8aa624b)" d="M 311.840386 288.430125 
L 312.808847 288.430125 
L 312.808847 288.430125 
L 311.840386 288.430125 
z
" style="fill:#1f77b4;"/>
   </g>
   <g id="patch_223">
    <path clip-path="url(#pc7f8aa624b)" d="M 313.050962 288.430125 
L 314.019423 288.430125 
L 314.019423 273.646125 
L 313.050962 273.646125 
z
" style="fill:#1f77b4;"/>
   </g>
   <g id="patch_224">
    <path clip-path="url(#pc7f8aa624b)" d="M 314.261539 288.430125 
L 315.23 288.430125 
L 315.23 288.430125 
L 314.261539 288.430125 
z
" style="fill:#1f77b4;"/>
   </g>
   <g id="patch_225">
    <path clip-path="url(#pc7f8aa624b)" d="M 315.472115 288.430125 
L 316.440576 288.430125 
L 316.440576 288.430125 
L 315.472115 288.430125 
z
" style="fill:#1f77b4;"/>
   </g>
   <g id="patch_226">
    <path clip-path="url(#pc7f8aa624b)" d="M 316.682691 288.430125 
L 317.651152 288.430125 
L 317.651152 288.430125 
L 316.682691 288.430125 
z
" style="fill:#1f77b4;"/>
   </g>
   <g id="patch_227">
    <path clip-path="url(#pc7f8aa624b)" d="M 317.893267 288.430125 
L 318.861728 288.430125 
L 318.861728 288.430125 
L 317.893267 288.430125 
z
" style="fill:#1f77b4;"/>
   </g>
   <g id="patch_228">
    <path clip-path="url(#pc7f8aa624b)" d="M 319.103844 288.430125 
L 320.072305 288.430125 
L 320.072305 266.254125 
L 319.103844 266.254125 
z
" style="fill:#1f77b4;"/>
   </g>
   <g id="patch_229">
    <path clip-path="url(#pc7f8aa624b)" d="M 320.31442 288.430125 
L 321.282881 288.430125 
L 321.282881 281.038125 
L 320.31442 281.038125 
z
" style="fill:#1f77b4;"/>
   </g>
   <g id="patch_230">
    <path clip-path="url(#pc7f8aa624b)" d="M 321.524996 288.430125 
L 322.493457 288.430125 
L 322.493457 258.862125 
L 321.524996 258.862125 
z
" style="fill:#1f77b4;"/>
   </g>
   <g id="patch_231">
    <path clip-path="url(#pc7f8aa624b)" d="M 322.735572 288.430125 
L 323.704033 288.430125 
L 323.704033 273.646125 
L 322.735572 273.646125 
z
" style="fill:#1f77b4;"/>
   </g>
   <g id="patch_232">
    <path clip-path="url(#pc7f8aa624b)" d="M 323.946149 288.430125 
L 324.91461 288.430125 
L 324.91461 273.646125 
L 323.946149 273.646125 
z
" style="fill:#1f77b4;"/>
   </g>
   <g id="patch_233">
    <path clip-path="url(#pc7f8aa624b)" d="M 325.156725 288.430125 
L 326.125186 288.430125 
L 326.125186 258.862125 
L 325.156725 258.862125 
z
" style="fill:#1f77b4;"/>
   </g>
   <g id="patch_234">
    <path clip-path="url(#pc7f8aa624b)" d="M 326.367301 288.430125 
L 327.335762 288.430125 
L 327.335762 266.254125 
L 326.367301 266.254125 
z
" style="fill:#1f77b4;"/>
   </g>
   <g id="patch_235">
    <path clip-path="url(#pc7f8aa624b)" d="M 327.577878 288.430125 
L 328.546339 288.430125 
L 328.546339 258.862125 
L 327.577878 258.862125 
z
" style="fill:#1f77b4;"/>
   </g>
   <g id="patch_236">
    <path clip-path="url(#pc7f8aa624b)" d="M 328.788454 288.430125 
L 329.756915 288.430125 
L 329.756915 281.038125 
L 328.788454 281.038125 
z
" style="fill:#1f77b4;"/>
   </g>
   <g id="patch_237">
    <path clip-path="url(#pc7f8aa624b)" d="M 329.99903 288.430125 
L 330.967491 288.430125 
L 330.967491 273.646125 
L 329.99903 273.646125 
z
" style="fill:#1f77b4;"/>
   </g>
   <g id="patch_238">
    <path clip-path="url(#pc7f8aa624b)" d="M 331.209606 288.430125 
L 332.178067 288.430125 
L 332.178067 258.862125 
L 331.209606 258.862125 
z
" style="fill:#1f77b4;"/>
   </g>
   <g id="patch_239">
    <path clip-path="url(#pc7f8aa624b)" d="M 332.420183 288.430125 
L 333.388644 288.430125 
L 333.388644 258.862125 
L 332.420183 258.862125 
z
" style="fill:#1f77b4;"/>
   </g>
   <g id="patch_240">
    <path clip-path="url(#pc7f8aa624b)" d="M 333.630759 288.430125 
L 334.59922 288.430125 
L 334.59922 236.686125 
L 333.630759 236.686125 
z
" style="fill:#1f77b4;"/>
   </g>
   <g id="patch_241">
    <path clip-path="url(#pc7f8aa624b)" d="M 334.841335 288.430125 
L 335.809796 288.430125 
L 335.809796 258.862125 
L 334.841335 258.862125 
z
" style="fill:#1f77b4;"/>
   </g>
   <g id="patch_242">
    <path clip-path="url(#pc7f8aa624b)" d="M 336.051911 288.430125 
L 337.020372 288.430125 
L 337.020372 258.862125 
L 336.051911 258.862125 
z
" style="fill:#1f77b4;"/>
   </g>
   <g id="patch_243">
    <path clip-path="url(#pc7f8aa624b)" d="M 337.262488 288.430125 
L 338.230949 288.430125 
L 338.230949 251.470125 
L 337.262488 251.470125 
z
" style="fill:#1f77b4;"/>
   </g>
   <g id="patch_244">
    <path clip-path="url(#pc7f8aa624b)" d="M 338.473064 288.430125 
L 339.441525 288.430125 
L 339.441525 221.902125 
L 338.473064 221.902125 
z
" style="fill:#1f77b4;"/>
   </g>
   <g id="patch_245">
    <path clip-path="url(#pc7f8aa624b)" d="M 339.68364 288.430125 
L 340.652101 288.430125 
L 340.652101 244.078125 
L 339.68364 244.078125 
z
" style="fill:#1f77b4;"/>
   </g>
   <g id="patch_246">
    <path clip-path="url(#pc7f8aa624b)" d="M 340.894217 288.430125 
L 341.862678 288.430125 
L 341.862678 221.902125 
L 340.894217 221.902125 
z
" style="fill:#1f77b4;"/>
   </g>
   <g id="patch_247">
    <path clip-path="url(#pc7f8aa624b)" d="M 342.104793 288.430125 
L 343.073254 288.430125 
L 343.073254 251.470125 
L 342.104793 251.470125 
z
" style="fill:#1f77b4;"/>
   </g>
   <g id="patch_248">
    <path clip-path="url(#pc7f8aa624b)" d="M 343.315369 288.430125 
L 344.28383 288.430125 
L 344.28383 147.982125 
L 343.315369 147.982125 
z
" style="fill:#1f77b4;"/>
   </g>
   <g id="patch_249">
    <path clip-path="url(#pc7f8aa624b)" d="M 344.525945 288.430125 
L 345.494406 288.430125 
L 345.494406 236.686125 
L 344.525945 236.686125 
z
" style="fill:#1f77b4;"/>
   </g>
   <g id="patch_250">
    <path clip-path="url(#pc7f8aa624b)" d="M 345.736522 288.430125 
L 346.704983 288.430125 
L 346.704983 221.902125 
L 345.736522 221.902125 
z
" style="fill:#1f77b4;"/>
   </g>
   <g id="patch_251">
    <path clip-path="url(#pc7f8aa624b)" d="M 346.947098 288.430125 
L 347.915559 288.430125 
L 347.915559 207.118125 
L 346.947098 207.118125 
z
" style="fill:#1f77b4;"/>
   </g>
   <g id="patch_252">
    <path clip-path="url(#pc7f8aa624b)" d="M 348.157674 288.430125 
L 349.126135 288.430125 
L 349.126135 192.334125 
L 348.157674 192.334125 
z
" style="fill:#1f77b4;"/>
   </g>
   <g id="patch_253">
    <path clip-path="url(#pc7f8aa624b)" d="M 349.36825 288.430125 
L 350.336711 288.430125 
L 350.336711 229.294125 
L 349.36825 229.294125 
z
" style="fill:#1f77b4;"/>
   </g>
   <g id="patch_254">
    <path clip-path="url(#pc7f8aa624b)" d="M 350.578827 288.430125 
L 351.547288 288.430125 
L 351.547288 170.158125 
L 350.578827 170.158125 
z
" style="fill:#1f77b4;"/>
   </g>
   <g id="patch_255">
    <path clip-path="url(#pc7f8aa624b)" d="M 351.789403 288.430125 
L 352.757864 288.430125 
L 352.757864 236.686125 
L 351.789403 236.686125 
z
" style="fill:#1f77b4;"/>
   </g>
   <g id="patch_256">
    <path clip-path="url(#pc7f8aa624b)" d="M 352.999979 288.430125 
L 353.96844 288.430125 
L 353.96844 251.470125 
L 352.999979 251.470125 
z
" style="fill:#1f77b4;"/>
   </g>
   <g id="patch_257">
    <path clip-path="url(#pc7f8aa624b)" d="M 354.210556 288.430125 
L 355.179017 288.430125 
L 355.179017 170.158125 
L 354.210556 170.158125 
z
" style="fill:#1f77b4;"/>
   </g>
   <g id="patch_258">
    <path clip-path="url(#pc7f8aa624b)" d="M 355.421132 288.430125 
L 356.389593 288.430125 
L 356.389593 229.294125 
L 355.421132 229.294125 
z
" style="fill:#1f77b4;"/>
   </g>
   <g id="patch_259">
    <path clip-path="url(#pc7f8aa624b)" d="M 356.631708 288.430125 
L 357.600169 288.430125 
L 357.600169 207.118125 
L 356.631708 207.118125 
z
" style="fill:#1f77b4;"/>
   </g>
   <g id="patch_260">
    <path clip-path="url(#pc7f8aa624b)" d="M 357.842284 288.430125 
L 358.810745 288.430125 
L 358.810745 207.118125 
L 357.842284 207.118125 
z
" style="fill:#1f77b4;"/>
   </g>
   <g id="patch_261">
    <path clip-path="url(#pc7f8aa624b)" d="M 359.052861 288.430125 
L 360.021322 288.430125 
L 360.021322 266.254125 
L 359.052861 266.254125 
z
" style="fill:#1f77b4;"/>
   </g>
   <g id="patch_262">
    <path clip-path="url(#pc7f8aa624b)" d="M 360.263437 288.430125 
L 361.231898 288.430125 
L 361.231898 236.686125 
L 360.263437 236.686125 
z
" style="fill:#1f77b4;"/>
   </g>
   <g id="patch_263">
    <path clip-path="url(#pc7f8aa624b)" d="M 361.474013 288.430125 
L 362.442474 288.430125 
L 362.442474 281.038125 
L 361.474013 281.038125 
z
" style="fill:#1f77b4;"/>
   </g>
   <g id="patch_264">
    <path clip-path="url(#pc7f8aa624b)" d="M 362.684589 288.430125 
L 363.65305 288.430125 
L 363.65305 258.862125 
L 362.684589 258.862125 
z
" style="fill:#1f77b4;"/>
   </g>
   <g id="patch_265">
    <path clip-path="url(#pc7f8aa624b)" d="M 363.895166 288.430125 
L 364.863627 288.430125 
L 364.863627 236.686125 
L 363.895166 236.686125 
z
" style="fill:#1f77b4;"/>
   </g>
   <g id="patch_266">
    <path clip-path="url(#pc7f8aa624b)" d="M 365.105742 288.430125 
L 366.074203 288.430125 
L 366.074203 170.158125 
L 365.105742 170.158125 
z
" style="fill:#1f77b4;"/>
   </g>
   <g id="patch_267">
    <path clip-path="url(#pc7f8aa624b)" d="M 366.316318 288.430125 
L 367.284779 288.430125 
L 367.284779 207.118125 
L 366.316318 207.118125 
z
" style="fill:#1f77b4;"/>
   </g>
   <g id="patch_268">
    <path clip-path="url(#pc7f8aa624b)" d="M 367.526894 288.430125 
L 368.495356 288.430125 
L 368.495356 266.254125 
L 367.526894 266.254125 
z
" style="fill:#1f77b4;"/>
   </g>
   <g id="patch_269">
    <path clip-path="url(#pc7f8aa624b)" d="M 368.737471 288.430125 
L 369.705932 288.430125 
L 369.705932 244.078125 
L 368.737471 244.078125 
z
" style="fill:#1f77b4;"/>
   </g>
   <g id="patch_270">
    <path clip-path="url(#pc7f8aa624b)" d="M 369.948047 288.430125 
L 370.916508 288.430125 
L 370.916508 251.470125 
L 369.948047 251.470125 
z
" style="fill:#1f77b4;"/>
   </g>
   <g id="patch_271">
    <path clip-path="url(#pc7f8aa624b)" d="M 371.158623 288.430125 
L 372.127084 288.430125 
L 372.127084 207.118125 
L 371.158623 207.118125 
z
" style="fill:#1f77b4;"/>
   </g>
   <g id="patch_272">
    <path clip-path="url(#pc7f8aa624b)" d="M 372.3692 288.430125 
L 373.337661 288.430125 
L 373.337661 214.510125 
L 372.3692 214.510125 
z
" style="fill:#1f77b4;"/>
   </g>
   <g id="patch_273">
    <path clip-path="url(#pc7f8aa624b)" d="M 373.579776 288.430125 
L 374.548237 288.430125 
L 374.548237 229.294125 
L 373.579776 229.294125 
z
" style="fill:#1f77b4;"/>
   </g>
   <g id="patch_274">
    <path clip-path="url(#pc7f8aa624b)" d="M 374.790352 288.430125 
L 375.758813 288.430125 
L 375.758813 162.766125 
L 374.790352 162.766125 
z
" style="fill:#1f77b4;"/>
   </g>
   <g id="patch_275">
    <path clip-path="url(#pc7f8aa624b)" d="M 376.000928 288.430125 
L 376.969389 288.430125 
L 376.969389 251.470125 
L 376.000928 251.470125 
z
" style="fill:#1f77b4;"/>
   </g>
   <g id="patch_276">
    <path clip-path="url(#pc7f8aa624b)" d="M 377.211505 288.430125 
L 378.179966 288.430125 
L 378.179966 258.862125 
L 377.211505 258.862125 
z
" style="fill:#1f77b4;"/>
   </g>
   <g id="patch_277">
    <path clip-path="url(#pc7f8aa624b)" d="M 378.422081 288.430125 
L 379.390542 288.430125 
L 379.390542 221.902125 
L 378.422081 221.902125 
z
" style="fill:#1f77b4;"/>
   </g>
   <g id="patch_278">
    <path clip-path="url(#pc7f8aa624b)" d="M 379.632657 288.430125 
L 380.601118 288.430125 
L 380.601118 214.510125 
L 379.632657 214.510125 
z
" style="fill:#1f77b4;"/>
   </g>
   <g id="patch_279">
    <path clip-path="url(#pc7f8aa624b)" d="M 380.843233 288.430125 
L 381.811694 288.430125 
L 381.811694 207.118125 
L 380.843233 207.118125 
z
" style="fill:#1f77b4;"/>
   </g>
   <g id="patch_280">
    <path clip-path="url(#pc7f8aa624b)" d="M 382.05381 288.430125 
L 383.022271 288.430125 
L 383.022271 251.470125 
L 382.05381 251.470125 
z
" style="fill:#1f77b4;"/>
   </g>
   <g id="patch_281">
    <path clip-path="url(#pc7f8aa624b)" d="M 383.264386 288.430125 
L 384.232847 288.430125 
L 384.232847 244.078125 
L 383.264386 244.078125 
z
" style="fill:#1f77b4;"/>
   </g>
   <g id="patch_282">
    <path clip-path="url(#pc7f8aa624b)" d="M 384.474962 288.430125 
L 385.443423 288.430125 
L 385.443423 229.294125 
L 384.474962 229.294125 
z
" style="fill:#1f77b4;"/>
   </g>
   <g id="patch_283">
    <path clip-path="url(#pc7f8aa624b)" d="M 385.685539 288.430125 
L 386.654 288.430125 
L 386.654 266.254125 
L 385.685539 266.254125 
z
" style="fill:#1f77b4;"/>
   </g>
   <g id="patch_284">
    <path clip-path="url(#pc7f8aa624b)" d="M 386.896115 288.430125 
L 387.864576 288.430125 
L 387.864576 273.646125 
L 386.896115 273.646125 
z
" style="fill:#1f77b4;"/>
   </g>
   <g id="patch_285">
    <path clip-path="url(#pc7f8aa624b)" d="M 388.106691 288.430125 
L 389.075152 288.430125 
L 389.075152 244.078125 
L 388.106691 244.078125 
z
" style="fill:#1f77b4;"/>
   </g>
   <g id="patch_286">
    <path clip-path="url(#pc7f8aa624b)" d="M 389.317267 288.430125 
L 390.285728 288.430125 
L 390.285728 281.038125 
L 389.317267 281.038125 
z
" style="fill:#1f77b4;"/>
   </g>
   <g id="patch_287">
    <path clip-path="url(#pc7f8aa624b)" d="M 390.527844 288.430125 
L 391.496305 288.430125 
L 391.496305 251.470125 
L 390.527844 251.470125 
z
" style="fill:#1f77b4;"/>
   </g>
   <g id="patch_288">
    <path clip-path="url(#pc7f8aa624b)" d="M 391.73842 288.430125 
L 392.706881 288.430125 
L 392.706881 236.686125 
L 391.73842 236.686125 
z
" style="fill:#1f77b4;"/>
   </g>
   <g id="patch_289">
    <path clip-path="url(#pc7f8aa624b)" d="M 392.948996 288.430125 
L 393.917457 288.430125 
L 393.917457 236.686125 
L 392.948996 236.686125 
z
" style="fill:#1f77b4;"/>
   </g>
   <g id="patch_290">
    <path clip-path="url(#pc7f8aa624b)" d="M 394.159572 288.430125 
L 395.128033 288.430125 
L 395.128033 273.646125 
L 394.159572 273.646125 
z
" style="fill:#1f77b4;"/>
   </g>
   <g id="patch_291">
    <path clip-path="url(#pc7f8aa624b)" d="M 395.370149 288.430125 
L 396.33861 288.430125 
L 396.33861 273.646125 
L 395.370149 273.646125 
z
" style="fill:#1f77b4;"/>
   </g>
   <g id="patch_292">
    <path clip-path="url(#pc7f8aa624b)" d="M 396.580725 288.430125 
L 397.549186 288.430125 
L 397.549186 236.686125 
L 396.580725 236.686125 
z
" style="fill:#1f77b4;"/>
   </g>
   <g id="patch_293">
    <path clip-path="url(#pc7f8aa624b)" d="M 397.791301 288.430125 
L 398.759762 288.430125 
L 398.759762 273.646125 
L 397.791301 273.646125 
z
" style="fill:#1f77b4;"/>
   </g>
   <g id="patch_294">
    <path clip-path="url(#pc7f8aa624b)" d="M 399.001878 288.430125 
L 399.970339 288.430125 
L 399.970339 229.294125 
L 399.001878 229.294125 
z
" style="fill:#1f77b4;"/>
   </g>
   <g id="patch_295">
    <path clip-path="url(#pc7f8aa624b)" d="M 400.212454 288.430125 
L 401.180915 288.430125 
L 401.180915 266.254125 
L 400.212454 266.254125 
z
" style="fill:#1f77b4;"/>
   </g>
   <g id="patch_296">
    <path clip-path="url(#pc7f8aa624b)" d="M 401.42303 288.430125 
L 402.391491 288.430125 
L 402.391491 258.862125 
L 401.42303 258.862125 
z
" style="fill:#1f77b4;"/>
   </g>
   <g id="patch_297">
    <path clip-path="url(#pc7f8aa624b)" d="M 402.633606 288.430125 
L 403.602067 288.430125 
L 403.602067 251.470125 
L 402.633606 251.470125 
z
" style="fill:#1f77b4;"/>
   </g>
   <g id="matplotlib.axis_1">
    <g id="xtick_1">
     <g id="line2d_1">
      <defs>
       <path d="M 0 0 
L 0 3.5 
" id="m61e5af56f5" style="stroke:#000000;stroke-width:0.8;"/>
      </defs>
      <g>
       <use style="stroke:#000000;stroke-width:0.8;" x="67.78821" xlink:href="#m61e5af56f5" y="288.430125"/>
      </g>
     </g>
     <g id="text_1">
      <!-- 2020-04 -->
      <g transform="translate(70.547585 337.212937)rotate(-90)scale(0.1 -0.1)">
       <defs>
        <path d="M 19.1875 8.296875 
L 53.609375 8.296875 
L 53.609375 0 
L 7.328125 0 
L 7.328125 8.296875 
Q 12.9375 14.109375 22.625 23.890625 
Q 32.328125 33.6875 34.8125 36.53125 
Q 39.546875 41.84375 41.421875 45.53125 
Q 43.3125 49.21875 43.3125 52.78125 
Q 43.3125 58.59375 39.234375 62.25 
Q 35.15625 65.921875 28.609375 65.921875 
Q 23.96875 65.921875 18.8125 64.3125 
Q 13.671875 62.703125 7.8125 59.421875 
L 7.8125 69.390625 
Q 13.765625 71.78125 18.9375 73 
Q 24.125 74.21875 28.421875 74.21875 
Q 39.75 74.21875 46.484375 68.546875 
Q 53.21875 62.890625 53.21875 53.421875 
Q 53.21875 48.921875 51.53125 44.890625 
Q 49.859375 40.875 45.40625 35.40625 
Q 44.1875 33.984375 37.640625 27.21875 
Q 31.109375 20.453125 19.1875 8.296875 
z
" id="DejaVuSans-50"/>
        <path d="M 31.78125 66.40625 
Q 24.171875 66.40625 20.328125 58.90625 
Q 16.5 51.421875 16.5 36.375 
Q 16.5 21.390625 20.328125 13.890625 
Q 24.171875 6.390625 31.78125 6.390625 
Q 39.453125 6.390625 43.28125 13.890625 
Q 47.125 21.390625 47.125 36.375 
Q 47.125 51.421875 43.28125 58.90625 
Q 39.453125 66.40625 31.78125 66.40625 
z
M 31.78125 74.21875 
Q 44.046875 74.21875 50.515625 64.515625 
Q 56.984375 54.828125 56.984375 36.375 
Q 56.984375 17.96875 50.515625 8.265625 
Q 44.046875 -1.421875 31.78125 -1.421875 
Q 19.53125 -1.421875 13.0625 8.265625 
Q 6.59375 17.96875 6.59375 36.375 
Q 6.59375 54.828125 13.0625 64.515625 
Q 19.53125 74.21875 31.78125 74.21875 
z
" id="DejaVuSans-48"/>
        <path d="M 4.890625 31.390625 
L 31.203125 31.390625 
L 31.203125 23.390625 
L 4.890625 23.390625 
z
" id="DejaVuSans-45"/>
        <path d="M 37.796875 64.3125 
L 12.890625 25.390625 
L 37.796875 25.390625 
z
M 35.203125 72.90625 
L 47.609375 72.90625 
L 47.609375 25.390625 
L 58.015625 25.390625 
L 58.015625 17.1875 
L 47.609375 17.1875 
L 47.609375 0 
L 37.796875 0 
L 37.796875 17.1875 
L 4.890625 17.1875 
L 4.890625 26.703125 
z
" id="DejaVuSans-52"/>
       </defs>
       <use xlink:href="#DejaVuSans-50"/>
       <use x="63.623047" xlink:href="#DejaVuSans-48"/>
       <use x="127.246094" xlink:href="#DejaVuSans-50"/>
       <use x="190.869141" xlink:href="#DejaVuSans-48"/>
       <use x="254.492188" xlink:href="#DejaVuSans-45"/>
       <use x="290.576172" xlink:href="#DejaVuSans-48"/>
       <use x="354.199219" xlink:href="#DejaVuSans-52"/>
      </g>
     </g>
    </g>
    <g id="xtick_2">
     <g id="line2d_2">
      <g>
       <use style="stroke:#000000;stroke-width:0.8;" x="104.105498" xlink:href="#m61e5af56f5" y="288.430125"/>
      </g>
     </g>
     <g id="text_2">
      <!-- 2020-05 -->
      <g transform="translate(106.864873 337.212937)rotate(-90)scale(0.1 -0.1)">
       <defs>
        <path d="M 10.796875 72.90625 
L 49.515625 72.90625 
L 49.515625 64.59375 
L 19.828125 64.59375 
L 19.828125 46.734375 
Q 21.96875 47.46875 24.109375 47.828125 
Q 26.265625 48.1875 28.421875 48.1875 
Q 40.625 48.1875 47.75 41.5 
Q 54.890625 34.8125 54.890625 23.390625 
Q 54.890625 11.625 47.5625 5.09375 
Q 40.234375 -1.421875 26.90625 -1.421875 
Q 22.3125 -1.421875 17.546875 -0.640625 
Q 12.796875 0.140625 7.71875 1.703125 
L 7.71875 11.625 
Q 12.109375 9.234375 16.796875 8.0625 
Q 21.484375 6.890625 26.703125 6.890625 
Q 35.15625 6.890625 40.078125 11.328125 
Q 45.015625 15.765625 45.015625 23.390625 
Q 45.015625 31 40.078125 35.4375 
Q 35.15625 39.890625 26.703125 39.890625 
Q 22.75 39.890625 18.8125 39.015625 
Q 14.890625 38.140625 10.796875 36.28125 
z
" id="DejaVuSans-53"/>
       </defs>
       <use xlink:href="#DejaVuSans-50"/>
       <use x="63.623047" xlink:href="#DejaVuSans-48"/>
       <use x="127.246094" xlink:href="#DejaVuSans-50"/>
       <use x="190.869141" xlink:href="#DejaVuSans-48"/>
       <use x="254.492188" xlink:href="#DejaVuSans-45"/>
       <use x="290.576172" xlink:href="#DejaVuSans-48"/>
       <use x="354.199219" xlink:href="#DejaVuSans-53"/>
      </g>
     </g>
    </g>
    <g id="xtick_3">
     <g id="line2d_3">
      <g>
       <use style="stroke:#000000;stroke-width:0.8;" x="141.633362" xlink:href="#m61e5af56f5" y="288.430125"/>
      </g>
     </g>
     <g id="text_3">
      <!-- 2020-06 -->
      <g transform="translate(144.392737 337.212937)rotate(-90)scale(0.1 -0.1)">
       <defs>
        <path d="M 33.015625 40.375 
Q 26.375 40.375 22.484375 35.828125 
Q 18.609375 31.296875 18.609375 23.390625 
Q 18.609375 15.53125 22.484375 10.953125 
Q 26.375 6.390625 33.015625 6.390625 
Q 39.65625 6.390625 43.53125 10.953125 
Q 47.40625 15.53125 47.40625 23.390625 
Q 47.40625 31.296875 43.53125 35.828125 
Q 39.65625 40.375 33.015625 40.375 
z
M 52.59375 71.296875 
L 52.59375 62.3125 
Q 48.875 64.0625 45.09375 64.984375 
Q 41.3125 65.921875 37.59375 65.921875 
Q 27.828125 65.921875 22.671875 59.328125 
Q 17.53125 52.734375 16.796875 39.40625 
Q 19.671875 43.65625 24.015625 45.921875 
Q 28.375 48.1875 33.59375 48.1875 
Q 44.578125 48.1875 50.953125 41.515625 
Q 57.328125 34.859375 57.328125 23.390625 
Q 57.328125 12.15625 50.6875 5.359375 
Q 44.046875 -1.421875 33.015625 -1.421875 
Q 20.359375 -1.421875 13.671875 8.265625 
Q 6.984375 17.96875 6.984375 36.375 
Q 6.984375 53.65625 15.1875 63.9375 
Q 23.390625 74.21875 37.203125 74.21875 
Q 40.921875 74.21875 44.703125 73.484375 
Q 48.484375 72.75 52.59375 71.296875 
z
" id="DejaVuSans-54"/>
       </defs>
       <use xlink:href="#DejaVuSans-50"/>
       <use x="63.623047" xlink:href="#DejaVuSans-48"/>
       <use x="127.246094" xlink:href="#DejaVuSans-50"/>
       <use x="190.869141" xlink:href="#DejaVuSans-48"/>
       <use x="254.492188" xlink:href="#DejaVuSans-45"/>
       <use x="290.576172" xlink:href="#DejaVuSans-48"/>
       <use x="354.199219" xlink:href="#DejaVuSans-54"/>
      </g>
     </g>
    </g>
    <g id="xtick_4">
     <g id="line2d_4">
      <g>
       <use style="stroke:#000000;stroke-width:0.8;" x="177.95065" xlink:href="#m61e5af56f5" y="288.430125"/>
      </g>
     </g>
     <g id="text_4">
      <!-- 2020-07 -->
      <g transform="translate(180.710025 337.212937)rotate(-90)scale(0.1 -0.1)">
       <defs>
        <path d="M 8.203125 72.90625 
L 55.078125 72.90625 
L 55.078125 68.703125 
L 28.609375 0 
L 18.3125 0 
L 43.21875 64.59375 
L 8.203125 64.59375 
z
" id="DejaVuSans-55"/>
       </defs>
       <use xlink:href="#DejaVuSans-50"/>
       <use x="63.623047" xlink:href="#DejaVuSans-48"/>
       <use x="127.246094" xlink:href="#DejaVuSans-50"/>
       <use x="190.869141" xlink:href="#DejaVuSans-48"/>
       <use x="254.492188" xlink:href="#DejaVuSans-45"/>
       <use x="290.576172" xlink:href="#DejaVuSans-48"/>
       <use x="354.199219" xlink:href="#DejaVuSans-55"/>
      </g>
     </g>
    </g>
    <g id="xtick_5">
     <g id="line2d_5">
      <g>
       <use style="stroke:#000000;stroke-width:0.8;" x="215.478515" xlink:href="#m61e5af56f5" y="288.430125"/>
      </g>
     </g>
     <g id="text_5">
      <!-- 2020-08 -->
      <g transform="translate(218.23789 337.212937)rotate(-90)scale(0.1 -0.1)">
       <defs>
        <path d="M 31.78125 34.625 
Q 24.75 34.625 20.71875 30.859375 
Q 16.703125 27.09375 16.703125 20.515625 
Q 16.703125 13.921875 20.71875 10.15625 
Q 24.75 6.390625 31.78125 6.390625 
Q 38.8125 6.390625 42.859375 10.171875 
Q 46.921875 13.96875 46.921875 20.515625 
Q 46.921875 27.09375 42.890625 30.859375 
Q 38.875 34.625 31.78125 34.625 
z
M 21.921875 38.8125 
Q 15.578125 40.375 12.03125 44.71875 
Q 8.5 49.078125 8.5 55.328125 
Q 8.5 64.0625 14.71875 69.140625 
Q 20.953125 74.21875 31.78125 74.21875 
Q 42.671875 74.21875 48.875 69.140625 
Q 55.078125 64.0625 55.078125 55.328125 
Q 55.078125 49.078125 51.53125 44.71875 
Q 48 40.375 41.703125 38.8125 
Q 48.828125 37.15625 52.796875 32.3125 
Q 56.78125 27.484375 56.78125 20.515625 
Q 56.78125 9.90625 50.3125 4.234375 
Q 43.84375 -1.421875 31.78125 -1.421875 
Q 19.734375 -1.421875 13.25 4.234375 
Q 6.78125 9.90625 6.78125 20.515625 
Q 6.78125 27.484375 10.78125 32.3125 
Q 14.796875 37.15625 21.921875 38.8125 
z
M 18.3125 54.390625 
Q 18.3125 48.734375 21.84375 45.5625 
Q 25.390625 42.390625 31.78125 42.390625 
Q 38.140625 42.390625 41.71875 45.5625 
Q 45.3125 48.734375 45.3125 54.390625 
Q 45.3125 60.0625 41.71875 63.234375 
Q 38.140625 66.40625 31.78125 66.40625 
Q 25.390625 66.40625 21.84375 63.234375 
Q 18.3125 60.0625 18.3125 54.390625 
z
" id="DejaVuSans-56"/>
       </defs>
       <use xlink:href="#DejaVuSans-50"/>
       <use x="63.623047" xlink:href="#DejaVuSans-48"/>
       <use x="127.246094" xlink:href="#DejaVuSans-50"/>
       <use x="190.869141" xlink:href="#DejaVuSans-48"/>
       <use x="254.492188" xlink:href="#DejaVuSans-45"/>
       <use x="290.576172" xlink:href="#DejaVuSans-48"/>
       <use x="354.199219" xlink:href="#DejaVuSans-56"/>
      </g>
     </g>
    </g>
    <g id="xtick_6">
     <g id="line2d_6">
      <g>
       <use style="stroke:#000000;stroke-width:0.8;" x="253.006379" xlink:href="#m61e5af56f5" y="288.430125"/>
      </g>
     </g>
     <g id="text_6">
      <!-- 2020-09 -->
      <g transform="translate(255.765754 337.212937)rotate(-90)scale(0.1 -0.1)">
       <defs>
        <path d="M 10.984375 1.515625 
L 10.984375 10.5 
Q 14.703125 8.734375 18.5 7.8125 
Q 22.3125 6.890625 25.984375 6.890625 
Q 35.75 6.890625 40.890625 13.453125 
Q 46.046875 20.015625 46.78125 33.40625 
Q 43.953125 29.203125 39.59375 26.953125 
Q 35.25 24.703125 29.984375 24.703125 
Q 19.046875 24.703125 12.671875 31.3125 
Q 6.296875 37.9375 6.296875 49.421875 
Q 6.296875 60.640625 12.9375 67.421875 
Q 19.578125 74.21875 30.609375 74.21875 
Q 43.265625 74.21875 49.921875 64.515625 
Q 56.59375 54.828125 56.59375 36.375 
Q 56.59375 19.140625 48.40625 8.859375 
Q 40.234375 -1.421875 26.421875 -1.421875 
Q 22.703125 -1.421875 18.890625 -0.6875 
Q 15.09375 0.046875 10.984375 1.515625 
z
M 30.609375 32.421875 
Q 37.25 32.421875 41.125 36.953125 
Q 45.015625 41.5 45.015625 49.421875 
Q 45.015625 57.28125 41.125 61.84375 
Q 37.25 66.40625 30.609375 66.40625 
Q 23.96875 66.40625 20.09375 61.84375 
Q 16.21875 57.28125 16.21875 49.421875 
Q 16.21875 41.5 20.09375 36.953125 
Q 23.96875 32.421875 30.609375 32.421875 
z
" id="DejaVuSans-57"/>
       </defs>
       <use xlink:href="#DejaVuSans-50"/>
       <use x="63.623047" xlink:href="#DejaVuSans-48"/>
       <use x="127.246094" xlink:href="#DejaVuSans-50"/>
       <use x="190.869141" xlink:href="#DejaVuSans-48"/>
       <use x="254.492188" xlink:href="#DejaVuSans-45"/>
       <use x="290.576172" xlink:href="#DejaVuSans-48"/>
       <use x="354.199219" xlink:href="#DejaVuSans-57"/>
      </g>
     </g>
    </g>
    <g id="xtick_7">
     <g id="line2d_7">
      <g>
       <use style="stroke:#000000;stroke-width:0.8;" x="289.323667" xlink:href="#m61e5af56f5" y="288.430125"/>
      </g>
     </g>
     <g id="text_7">
      <!-- 2020-10 -->
      <g transform="translate(292.083042 337.212937)rotate(-90)scale(0.1 -0.1)">
       <defs>
        <path d="M 12.40625 8.296875 
L 28.515625 8.296875 
L 28.515625 63.921875 
L 10.984375 60.40625 
L 10.984375 69.390625 
L 28.421875 72.90625 
L 38.28125 72.90625 
L 38.28125 8.296875 
L 54.390625 8.296875 
L 54.390625 0 
L 12.40625 0 
z
" id="DejaVuSans-49"/>
       </defs>
       <use xlink:href="#DejaVuSans-50"/>
       <use x="63.623047" xlink:href="#DejaVuSans-48"/>
       <use x="127.246094" xlink:href="#DejaVuSans-50"/>
       <use x="190.869141" xlink:href="#DejaVuSans-48"/>
       <use x="254.492188" xlink:href="#DejaVuSans-45"/>
       <use x="290.576172" xlink:href="#DejaVuSans-49"/>
       <use x="354.199219" xlink:href="#DejaVuSans-48"/>
      </g>
     </g>
    </g>
    <g id="xtick_8">
     <g id="line2d_8">
      <g>
       <use style="stroke:#000000;stroke-width:0.8;" x="326.851532" xlink:href="#m61e5af56f5" y="288.430125"/>
      </g>
     </g>
     <g id="text_8">
      <!-- 2020-11 -->
      <g transform="translate(329.610907 337.212937)rotate(-90)scale(0.1 -0.1)">
       <use xlink:href="#DejaVuSans-50"/>
       <use x="63.623047" xlink:href="#DejaVuSans-48"/>
       <use x="127.246094" xlink:href="#DejaVuSans-50"/>
       <use x="190.869141" xlink:href="#DejaVuSans-48"/>
       <use x="254.492188" xlink:href="#DejaVuSans-45"/>
       <use x="290.576172" xlink:href="#DejaVuSans-49"/>
       <use x="354.199219" xlink:href="#DejaVuSans-49"/>
      </g>
     </g>
    </g>
    <g id="xtick_9">
     <g id="line2d_9">
      <g>
       <use style="stroke:#000000;stroke-width:0.8;" x="363.16882" xlink:href="#m61e5af56f5" y="288.430125"/>
      </g>
     </g>
     <g id="text_9">
      <!-- 2020-12 -->
      <g transform="translate(365.928195 337.212937)rotate(-90)scale(0.1 -0.1)">
       <use xlink:href="#DejaVuSans-50"/>
       <use x="63.623047" xlink:href="#DejaVuSans-48"/>
       <use x="127.246094" xlink:href="#DejaVuSans-50"/>
       <use x="190.869141" xlink:href="#DejaVuSans-48"/>
       <use x="254.492188" xlink:href="#DejaVuSans-45"/>
       <use x="290.576172" xlink:href="#DejaVuSans-49"/>
       <use x="354.199219" xlink:href="#DejaVuSans-50"/>
      </g>
     </g>
    </g>
    <g id="xtick_10">
     <g id="line2d_10">
      <g>
       <use style="stroke:#000000;stroke-width:0.8;" x="400.696684" xlink:href="#m61e5af56f5" y="288.430125"/>
      </g>
     </g>
     <g id="text_10">
      <!-- 2021-01 -->
      <g transform="translate(403.456059 337.212937)rotate(-90)scale(0.1 -0.1)">
       <use xlink:href="#DejaVuSans-50"/>
       <use x="63.623047" xlink:href="#DejaVuSans-48"/>
       <use x="127.246094" xlink:href="#DejaVuSans-50"/>
       <use x="190.869141" xlink:href="#DejaVuSans-49"/>
       <use x="254.492188" xlink:href="#DejaVuSans-45"/>
       <use x="290.576172" xlink:href="#DejaVuSans-48"/>
       <use x="354.199219" xlink:href="#DejaVuSans-49"/>
      </g>
     </g>
    </g>
    <g id="text_11">
     <!-- date -->
     <g transform="translate(213.888125 354.811375)scale(0.1 -0.1)">
      <defs>
       <path d="M 45.40625 46.390625 
L 45.40625 75.984375 
L 54.390625 75.984375 
L 54.390625 0 
L 45.40625 0 
L 45.40625 8.203125 
Q 42.578125 3.328125 38.25 0.953125 
Q 33.9375 -1.421875 27.875 -1.421875 
Q 17.96875 -1.421875 11.734375 6.484375 
Q 5.515625 14.40625 5.515625 27.296875 
Q 5.515625 40.1875 11.734375 48.09375 
Q 17.96875 56 27.875 56 
Q 33.9375 56 38.25 53.625 
Q 42.578125 51.265625 45.40625 46.390625 
z
M 14.796875 27.296875 
Q 14.796875 17.390625 18.875 11.75 
Q 22.953125 6.109375 30.078125 6.109375 
Q 37.203125 6.109375 41.296875 11.75 
Q 45.40625 17.390625 45.40625 27.296875 
Q 45.40625 37.203125 41.296875 42.84375 
Q 37.203125 48.484375 30.078125 48.484375 
Q 22.953125 48.484375 18.875 42.84375 
Q 14.796875 37.203125 14.796875 27.296875 
z
" id="DejaVuSans-100"/>
       <path d="M 34.28125 27.484375 
Q 23.390625 27.484375 19.1875 25 
Q 14.984375 22.515625 14.984375 16.5 
Q 14.984375 11.71875 18.140625 8.90625 
Q 21.296875 6.109375 26.703125 6.109375 
Q 34.1875 6.109375 38.703125 11.40625 
Q 43.21875 16.703125 43.21875 25.484375 
L 43.21875 27.484375 
z
M 52.203125 31.203125 
L 52.203125 0 
L 43.21875 0 
L 43.21875 8.296875 
Q 40.140625 3.328125 35.546875 0.953125 
Q 30.953125 -1.421875 24.3125 -1.421875 
Q 15.921875 -1.421875 10.953125 3.296875 
Q 6 8.015625 6 15.921875 
Q 6 25.140625 12.171875 29.828125 
Q 18.359375 34.515625 30.609375 34.515625 
L 43.21875 34.515625 
L 43.21875 35.40625 
Q 43.21875 41.609375 39.140625 45 
Q 35.0625 48.390625 27.6875 48.390625 
Q 23 48.390625 18.546875 47.265625 
Q 14.109375 46.140625 10.015625 43.890625 
L 10.015625 52.203125 
Q 14.9375 54.109375 19.578125 55.046875 
Q 24.21875 56 28.609375 56 
Q 40.484375 56 46.34375 49.84375 
Q 52.203125 43.703125 52.203125 31.203125 
z
" id="DejaVuSans-97"/>
       <path d="M 18.3125 70.21875 
L 18.3125 54.6875 
L 36.8125 54.6875 
L 36.8125 47.703125 
L 18.3125 47.703125 
L 18.3125 18.015625 
Q 18.3125 11.328125 20.140625 9.421875 
Q 21.96875 7.515625 27.59375 7.515625 
L 36.8125 7.515625 
L 36.8125 0 
L 27.59375 0 
Q 17.1875 0 13.234375 3.875 
Q 9.28125 7.765625 9.28125 18.015625 
L 9.28125 47.703125 
L 2.6875 47.703125 
L 2.6875 54.6875 
L 9.28125 54.6875 
L 9.28125 70.21875 
z
" id="DejaVuSans-116"/>
       <path d="M 56.203125 29.59375 
L 56.203125 25.203125 
L 14.890625 25.203125 
Q 15.484375 15.921875 20.484375 11.0625 
Q 25.484375 6.203125 34.421875 6.203125 
Q 39.59375 6.203125 44.453125 7.46875 
Q 49.3125 8.734375 54.109375 11.28125 
L 54.109375 2.78125 
Q 49.265625 0.734375 44.1875 -0.34375 
Q 39.109375 -1.421875 33.890625 -1.421875 
Q 20.796875 -1.421875 13.15625 6.1875 
Q 5.515625 13.8125 5.515625 26.8125 
Q 5.515625 40.234375 12.765625 48.109375 
Q 20.015625 56 32.328125 56 
Q 43.359375 56 49.78125 48.890625 
Q 56.203125 41.796875 56.203125 29.59375 
z
M 47.21875 32.234375 
Q 47.125 39.59375 43.09375 43.984375 
Q 39.0625 48.390625 32.421875 48.390625 
Q 24.90625 48.390625 20.390625 44.140625 
Q 15.875 39.890625 15.1875 32.171875 
z
" id="DejaVuSans-101"/>
      </defs>
      <use xlink:href="#DejaVuSans-100"/>
      <use x="63.476562" xlink:href="#DejaVuSans-97"/>
      <use x="124.755859" xlink:href="#DejaVuSans-116"/>
      <use x="163.964844" xlink:href="#DejaVuSans-101"/>
     </g>
    </g>
   </g>
   <g id="matplotlib.axis_2">
    <g id="ytick_1">
     <g id="line2d_11">
      <defs>
       <path d="M 0 0 
L -3.5 0 
" id="m1a6b6b16eb" style="stroke:#000000;stroke-width:0.8;"/>
      </defs>
      <g>
       <use style="stroke:#000000;stroke-width:0.8;" x="46.603125" xlink:href="#m1a6b6b16eb" y="288.430125"/>
      </g>
     </g>
     <g id="text_12">
      <!-- 0 -->
      <g transform="translate(33.240625 292.229344)scale(0.1 -0.1)">
       <use xlink:href="#DejaVuSans-48"/>
      </g>
     </g>
    </g>
    <g id="ytick_2">
     <g id="line2d_12">
      <g>
       <use style="stroke:#000000;stroke-width:0.8;" x="46.603125" xlink:href="#m1a6b6b16eb" y="251.470125"/>
      </g>
     </g>
     <g id="text_13">
      <!-- 5 -->
      <g transform="translate(33.240625 255.269344)scale(0.1 -0.1)">
       <use xlink:href="#DejaVuSans-53"/>
      </g>
     </g>
    </g>
    <g id="ytick_3">
     <g id="line2d_13">
      <g>
       <use style="stroke:#000000;stroke-width:0.8;" x="46.603125" xlink:href="#m1a6b6b16eb" y="214.510125"/>
      </g>
     </g>
     <g id="text_14">
      <!-- 10 -->
      <g transform="translate(26.878125 218.309344)scale(0.1 -0.1)">
       <use xlink:href="#DejaVuSans-49"/>
       <use x="63.623047" xlink:href="#DejaVuSans-48"/>
      </g>
     </g>
    </g>
    <g id="ytick_4">
     <g id="line2d_14">
      <g>
       <use style="stroke:#000000;stroke-width:0.8;" x="46.603125" xlink:href="#m1a6b6b16eb" y="177.550125"/>
      </g>
     </g>
     <g id="text_15">
      <!-- 15 -->
      <g transform="translate(26.878125 181.349344)scale(0.1 -0.1)">
       <use xlink:href="#DejaVuSans-49"/>
       <use x="63.623047" xlink:href="#DejaVuSans-53"/>
      </g>
     </g>
    </g>
    <g id="ytick_5">
     <g id="line2d_15">
      <g>
       <use style="stroke:#000000;stroke-width:0.8;" x="46.603125" xlink:href="#m1a6b6b16eb" y="140.590125"/>
      </g>
     </g>
     <g id="text_16">
      <!-- 20 -->
      <g transform="translate(26.878125 144.389344)scale(0.1 -0.1)">
       <use xlink:href="#DejaVuSans-50"/>
       <use x="63.623047" xlink:href="#DejaVuSans-48"/>
      </g>
     </g>
    </g>
    <g id="ytick_6">
     <g id="line2d_16">
      <g>
       <use style="stroke:#000000;stroke-width:0.8;" x="46.603125" xlink:href="#m1a6b6b16eb" y="103.630125"/>
      </g>
     </g>
     <g id="text_17">
      <!-- 25 -->
      <g transform="translate(26.878125 107.429344)scale(0.1 -0.1)">
       <use xlink:href="#DejaVuSans-50"/>
       <use x="63.623047" xlink:href="#DejaVuSans-53"/>
      </g>
     </g>
    </g>
    <g id="ytick_7">
     <g id="line2d_17">
      <g>
       <use style="stroke:#000000;stroke-width:0.8;" x="46.603125" xlink:href="#m1a6b6b16eb" y="66.670125"/>
      </g>
     </g>
     <g id="text_18">
      <!-- 30 -->
      <g transform="translate(26.878125 70.469344)scale(0.1 -0.1)">
       <defs>
        <path d="M 40.578125 39.3125 
Q 47.65625 37.796875 51.625 33 
Q 55.609375 28.21875 55.609375 21.1875 
Q 55.609375 10.40625 48.1875 4.484375 
Q 40.765625 -1.421875 27.09375 -1.421875 
Q 22.515625 -1.421875 17.65625 -0.515625 
Q 12.796875 0.390625 7.625 2.203125 
L 7.625 11.71875 
Q 11.71875 9.328125 16.59375 8.109375 
Q 21.484375 6.890625 26.8125 6.890625 
Q 36.078125 6.890625 40.9375 10.546875 
Q 45.796875 14.203125 45.796875 21.1875 
Q 45.796875 27.640625 41.28125 31.265625 
Q 36.765625 34.90625 28.71875 34.90625 
L 20.21875 34.90625 
L 20.21875 43.015625 
L 29.109375 43.015625 
Q 36.375 43.015625 40.234375 45.921875 
Q 44.09375 48.828125 44.09375 54.296875 
Q 44.09375 59.90625 40.109375 62.90625 
Q 36.140625 65.921875 28.71875 65.921875 
Q 24.65625 65.921875 20.015625 65.03125 
Q 15.375 64.15625 9.8125 62.3125 
L 9.8125 71.09375 
Q 15.4375 72.65625 20.34375 73.4375 
Q 25.25 74.21875 29.59375 74.21875 
Q 40.828125 74.21875 47.359375 69.109375 
Q 53.90625 64.015625 53.90625 55.328125 
Q 53.90625 49.265625 50.4375 45.09375 
Q 46.96875 40.921875 40.578125 39.3125 
z
" id="DejaVuSans-51"/>
       </defs>
       <use xlink:href="#DejaVuSans-51"/>
       <use x="63.623047" xlink:href="#DejaVuSans-48"/>
      </g>
     </g>
    </g>
    <g id="ytick_8">
     <g id="line2d_18">
      <g>
       <use style="stroke:#000000;stroke-width:0.8;" x="46.603125" xlink:href="#m1a6b6b16eb" y="29.710125"/>
      </g>
     </g>
     <g id="text_19">
      <!-- 35 -->
      <g transform="translate(26.878125 33.509344)scale(0.1 -0.1)">
       <use xlink:href="#DejaVuSans-51"/>
       <use x="63.623047" xlink:href="#DejaVuSans-53"/>
      </g>
     </g>
    </g>
    <g id="text_20">
     <!-- daily corona fatalities -->
     <g transform="translate(14.798438 209.228812)rotate(-90)scale(0.1 -0.1)">
      <defs>
       <path d="M 9.421875 54.6875 
L 18.40625 54.6875 
L 18.40625 0 
L 9.421875 0 
z
M 9.421875 75.984375 
L 18.40625 75.984375 
L 18.40625 64.59375 
L 9.421875 64.59375 
z
" id="DejaVuSans-105"/>
       <path d="M 9.421875 75.984375 
L 18.40625 75.984375 
L 18.40625 0 
L 9.421875 0 
z
" id="DejaVuSans-108"/>
       <path d="M 32.171875 -5.078125 
Q 28.375 -14.84375 24.75 -17.8125 
Q 21.140625 -20.796875 15.09375 -20.796875 
L 7.90625 -20.796875 
L 7.90625 -13.28125 
L 13.1875 -13.28125 
Q 16.890625 -13.28125 18.9375 -11.515625 
Q 21 -9.765625 23.484375 -3.21875 
L 25.09375 0.875 
L 2.984375 54.6875 
L 12.5 54.6875 
L 29.59375 11.921875 
L 46.6875 54.6875 
L 56.203125 54.6875 
z
" id="DejaVuSans-121"/>
       <path id="DejaVuSans-32"/>
       <path d="M 48.78125 52.59375 
L 48.78125 44.1875 
Q 44.96875 46.296875 41.140625 47.34375 
Q 37.3125 48.390625 33.40625 48.390625 
Q 24.65625 48.390625 19.8125 42.84375 
Q 14.984375 37.3125 14.984375 27.296875 
Q 14.984375 17.28125 19.8125 11.734375 
Q 24.65625 6.203125 33.40625 6.203125 
Q 37.3125 6.203125 41.140625 7.25 
Q 44.96875 8.296875 48.78125 10.40625 
L 48.78125 2.09375 
Q 45.015625 0.34375 40.984375 -0.53125 
Q 36.96875 -1.421875 32.421875 -1.421875 
Q 20.0625 -1.421875 12.78125 6.34375 
Q 5.515625 14.109375 5.515625 27.296875 
Q 5.515625 40.671875 12.859375 48.328125 
Q 20.21875 56 33.015625 56 
Q 37.15625 56 41.109375 55.140625 
Q 45.0625 54.296875 48.78125 52.59375 
z
" id="DejaVuSans-99"/>
       <path d="M 30.609375 48.390625 
Q 23.390625 48.390625 19.1875 42.75 
Q 14.984375 37.109375 14.984375 27.296875 
Q 14.984375 17.484375 19.15625 11.84375 
Q 23.34375 6.203125 30.609375 6.203125 
Q 37.796875 6.203125 41.984375 11.859375 
Q 46.1875 17.53125 46.1875 27.296875 
Q 46.1875 37.015625 41.984375 42.703125 
Q 37.796875 48.390625 30.609375 48.390625 
z
M 30.609375 56 
Q 42.328125 56 49.015625 48.375 
Q 55.71875 40.765625 55.71875 27.296875 
Q 55.71875 13.875 49.015625 6.21875 
Q 42.328125 -1.421875 30.609375 -1.421875 
Q 18.84375 -1.421875 12.171875 6.21875 
Q 5.515625 13.875 5.515625 27.296875 
Q 5.515625 40.765625 12.171875 48.375 
Q 18.84375 56 30.609375 56 
z
" id="DejaVuSans-111"/>
       <path d="M 41.109375 46.296875 
Q 39.59375 47.171875 37.8125 47.578125 
Q 36.03125 48 33.890625 48 
Q 26.265625 48 22.1875 43.046875 
Q 18.109375 38.09375 18.109375 28.8125 
L 18.109375 0 
L 9.078125 0 
L 9.078125 54.6875 
L 18.109375 54.6875 
L 18.109375 46.1875 
Q 20.953125 51.171875 25.484375 53.578125 
Q 30.03125 56 36.53125 56 
Q 37.453125 56 38.578125 55.875 
Q 39.703125 55.765625 41.0625 55.515625 
z
" id="DejaVuSans-114"/>
       <path d="M 54.890625 33.015625 
L 54.890625 0 
L 45.90625 0 
L 45.90625 32.71875 
Q 45.90625 40.484375 42.875 44.328125 
Q 39.84375 48.1875 33.796875 48.1875 
Q 26.515625 48.1875 22.3125 43.546875 
Q 18.109375 38.921875 18.109375 30.90625 
L 18.109375 0 
L 9.078125 0 
L 9.078125 54.6875 
L 18.109375 54.6875 
L 18.109375 46.1875 
Q 21.34375 51.125 25.703125 53.5625 
Q 30.078125 56 35.796875 56 
Q 45.21875 56 50.046875 50.171875 
Q 54.890625 44.34375 54.890625 33.015625 
z
" id="DejaVuSans-110"/>
       <path d="M 37.109375 75.984375 
L 37.109375 68.5 
L 28.515625 68.5 
Q 23.6875 68.5 21.796875 66.546875 
Q 19.921875 64.59375 19.921875 59.515625 
L 19.921875 54.6875 
L 34.71875 54.6875 
L 34.71875 47.703125 
L 19.921875 47.703125 
L 19.921875 0 
L 10.890625 0 
L 10.890625 47.703125 
L 2.296875 47.703125 
L 2.296875 54.6875 
L 10.890625 54.6875 
L 10.890625 58.5 
Q 10.890625 67.625 15.140625 71.796875 
Q 19.390625 75.984375 28.609375 75.984375 
z
" id="DejaVuSans-102"/>
       <path d="M 44.28125 53.078125 
L 44.28125 44.578125 
Q 40.484375 46.53125 36.375 47.5 
Q 32.28125 48.484375 27.875 48.484375 
Q 21.1875 48.484375 17.84375 46.4375 
Q 14.5 44.390625 14.5 40.28125 
Q 14.5 37.15625 16.890625 35.375 
Q 19.28125 33.59375 26.515625 31.984375 
L 29.59375 31.296875 
Q 39.15625 29.25 43.1875 25.515625 
Q 47.21875 21.78125 47.21875 15.09375 
Q 47.21875 7.46875 41.1875 3.015625 
Q 35.15625 -1.421875 24.609375 -1.421875 
Q 20.21875 -1.421875 15.453125 -0.5625 
Q 10.6875 0.296875 5.421875 2 
L 5.421875 11.28125 
Q 10.40625 8.6875 15.234375 7.390625 
Q 20.0625 6.109375 24.8125 6.109375 
Q 31.15625 6.109375 34.5625 8.28125 
Q 37.984375 10.453125 37.984375 14.40625 
Q 37.984375 18.0625 35.515625 20.015625 
Q 33.0625 21.96875 24.703125 23.78125 
L 21.578125 24.515625 
Q 13.234375 26.265625 9.515625 29.90625 
Q 5.8125 33.546875 5.8125 39.890625 
Q 5.8125 47.609375 11.28125 51.796875 
Q 16.75 56 26.8125 56 
Q 31.78125 56 36.171875 55.265625 
Q 40.578125 54.546875 44.28125 53.078125 
z
" id="DejaVuSans-115"/>
      </defs>
      <use xlink:href="#DejaVuSans-100"/>
      <use x="63.476562" xlink:href="#DejaVuSans-97"/>
      <use x="124.755859" xlink:href="#DejaVuSans-105"/>
      <use x="152.539062" xlink:href="#DejaVuSans-108"/>
      <use x="180.322266" xlink:href="#DejaVuSans-121"/>
      <use x="239.501953" xlink:href="#DejaVuSans-32"/>
      <use x="271.289062" xlink:href="#DejaVuSans-99"/>
      <use x="326.269531" xlink:href="#DejaVuSans-111"/>
      <use x="387.451172" xlink:href="#DejaVuSans-114"/>
      <use x="426.314453" xlink:href="#DejaVuSans-111"/>
      <use x="487.496094" xlink:href="#DejaVuSans-110"/>
      <use x="550.875" xlink:href="#DejaVuSans-97"/>
      <use x="612.154297" xlink:href="#DejaVuSans-32"/>
      <use x="643.941406" xlink:href="#DejaVuSans-102"/>
      <use x="679.146484" xlink:href="#DejaVuSans-97"/>
      <use x="740.425781" xlink:href="#DejaVuSans-116"/>
      <use x="779.634766" xlink:href="#DejaVuSans-97"/>
      <use x="840.914062" xlink:href="#DejaVuSans-108"/>
      <use x="868.697266" xlink:href="#DejaVuSans-105"/>
      <use x="896.480469" xlink:href="#DejaVuSans-116"/>
      <use x="935.689453" xlink:href="#DejaVuSans-105"/>
      <use x="963.472656" xlink:href="#DejaVuSans-101"/>
      <use x="1024.996094" xlink:href="#DejaVuSans-115"/>
     </g>
    </g>
   </g>
   <g id="patch_298">
    <path d="M 46.603125 288.430125 
L 46.603125 22.318125 
" style="fill:none;stroke:#000000;stroke-linecap:square;stroke-linejoin:miter;stroke-width:0.8;"/>
   </g>
   <g id="patch_299">
    <path d="M 46.603125 288.430125 
L 403.723125 288.430125 
" style="fill:none;stroke:#000000;stroke-linecap:square;stroke-linejoin:miter;stroke-width:0.8;"/>
   </g>
   <g id="text_21">
    <!-- South Tyrol -->
    <g transform="translate(191.870625 16.318125)scale(0.12 -0.12)">
     <defs>
      <path d="M 53.515625 70.515625 
L 53.515625 60.890625 
Q 47.90625 63.578125 42.921875 64.890625 
Q 37.9375 66.21875 33.296875 66.21875 
Q 25.25 66.21875 20.875 63.09375 
Q 16.5 59.96875 16.5 54.203125 
Q 16.5 49.359375 19.40625 46.890625 
Q 22.3125 44.4375 30.421875 42.921875 
L 36.375 41.703125 
Q 47.40625 39.59375 52.65625 34.296875 
Q 57.90625 29 57.90625 20.125 
Q 57.90625 9.515625 50.796875 4.046875 
Q 43.703125 -1.421875 29.984375 -1.421875 
Q 24.8125 -1.421875 18.96875 -0.25 
Q 13.140625 0.921875 6.890625 3.21875 
L 6.890625 13.375 
Q 12.890625 10.015625 18.65625 8.296875 
Q 24.421875 6.59375 29.984375 6.59375 
Q 38.421875 6.59375 43.015625 9.90625 
Q 47.609375 13.234375 47.609375 19.390625 
Q 47.609375 24.75 44.3125 27.78125 
Q 41.015625 30.8125 33.5 32.328125 
L 27.484375 33.5 
Q 16.453125 35.6875 11.515625 40.375 
Q 6.59375 45.0625 6.59375 53.421875 
Q 6.59375 63.09375 13.40625 68.65625 
Q 20.21875 74.21875 32.171875 74.21875 
Q 37.3125 74.21875 42.625 73.28125 
Q 47.953125 72.359375 53.515625 70.515625 
z
" id="DejaVuSans-83"/>
      <path d="M 8.5 21.578125 
L 8.5 54.6875 
L 17.484375 54.6875 
L 17.484375 21.921875 
Q 17.484375 14.15625 20.5 10.265625 
Q 23.53125 6.390625 29.59375 6.390625 
Q 36.859375 6.390625 41.078125 11.03125 
Q 45.3125 15.671875 45.3125 23.6875 
L 45.3125 54.6875 
L 54.296875 54.6875 
L 54.296875 0 
L 45.3125 0 
L 45.3125 8.40625 
Q 42.046875 3.421875 37.71875 1 
Q 33.40625 -1.421875 27.6875 -1.421875 
Q 18.265625 -1.421875 13.375 4.4375 
Q 8.5 10.296875 8.5 21.578125 
z
M 31.109375 56 
z
" id="DejaVuSans-117"/>
      <path d="M 54.890625 33.015625 
L 54.890625 0 
L 45.90625 0 
L 45.90625 32.71875 
Q 45.90625 40.484375 42.875 44.328125 
Q 39.84375 48.1875 33.796875 48.1875 
Q 26.515625 48.1875 22.3125 43.546875 
Q 18.109375 38.921875 18.109375 30.90625 
L 18.109375 0 
L 9.078125 0 
L 9.078125 75.984375 
L 18.109375 75.984375 
L 18.109375 46.1875 
Q 21.34375 51.125 25.703125 53.5625 
Q 30.078125 56 35.796875 56 
Q 45.21875 56 50.046875 50.171875 
Q 54.890625 44.34375 54.890625 33.015625 
z
" id="DejaVuSans-104"/>
      <path d="M -0.296875 72.90625 
L 61.375 72.90625 
L 61.375 64.59375 
L 35.5 64.59375 
L 35.5 0 
L 25.59375 0 
L 25.59375 64.59375 
L -0.296875 64.59375 
z
" id="DejaVuSans-84"/>
     </defs>
     <use xlink:href="#DejaVuSans-83"/>
     <use x="63.476562" xlink:href="#DejaVuSans-111"/>
     <use x="124.658203" xlink:href="#DejaVuSans-117"/>
     <use x="188.037109" xlink:href="#DejaVuSans-116"/>
     <use x="227.246094" xlink:href="#DejaVuSans-104"/>
     <use x="290.625" xlink:href="#DejaVuSans-32"/>
     <use x="322.412109" xlink:href="#DejaVuSans-84"/>
     <use x="367.871094" xlink:href="#DejaVuSans-121"/>
     <use x="427.050781" xlink:href="#DejaVuSans-114"/>
     <use x="465.914062" xlink:href="#DejaVuSans-111"/>
     <use x="527.095703" xlink:href="#DejaVuSans-108"/>
    </g>
   </g>
  </g>
 </g>
 <defs>
  <clipPath id="pc7f8aa624b">
   <rect height="266.112" width="357.12" x="46.603125" y="22.318125"/>
  </clipPath>
 </defs>
</svg>
