<?xml version="1.0" encoding="utf-8" standalone="no"?>
<!DOCTYPE svg PUBLIC "-//W3C//DTD SVG 1.1//EN"
  "http://www.w3.org/Graphics/SVG/1.1/DTD/svg11.dtd">
<!-- Created with matplotlib (https://matplotlib.org/) -->
<svg height="315.419062pt" version="1.1" viewBox="0 0 401.328125 315.419062" width="401.328125pt" xmlns="http://www.w3.org/2000/svg" xmlns:xlink="http://www.w3.org/1999/xlink">
 <metadata>
  <rdf:RDF xmlns:cc="http://creativecommons.org/ns#" xmlns:dc="http://purl.org/dc/elements/1.1/" xmlns:rdf="http://www.w3.org/1999/02/22-rdf-syntax-ns#">
   <cc:Work>
    <dc:type rdf:resource="http://purl.org/dc/dcmitype/StillImage"/>
    <dc:date>2020-12-07T12:15:23.249596</dc:date>
    <dc:format>image/svg+xml</dc:format>
    <dc:creator>
     <cc:Agent>
      <dc:title>Matplotlib v3.3.3, https://matplotlib.org/</dc:title>
     </cc:Agent>
    </dc:creator>
   </cc:Work>
  </rdf:RDF>
 </metadata>
 <defs>
  <style type="text/css">*{stroke-linecap:butt;stroke-linejoin:round;}</style>
 </defs>
 <g id="figure_1">
  <g id="patch_1">
   <path d="M 0 315.419062 
L 401.328125 315.419062 
L 401.328125 0 
L 0 0 
z
" style="fill:#ffffff;"/>
  </g>
  <g id="axes_1">
   <g id="patch_2">
    <path d="M 59.328125 239.758125 
L 394.128125 239.758125 
L 394.128125 22.318125 
L 59.328125 22.318125 
z
" style="fill:#ffffff;"/>
   </g>
   <g id="patch_3">
    <path clip-path="url(#p42baa3d085)" d="M 59.45305 239.758125 
L 60.452453 239.758125 
L 60.452453 99.152961 
L 59.45305 99.152961 
z
" style="fill:#1f77b4;"/>
   </g>
   <g id="patch_4">
    <path clip-path="url(#p42baa3d085)" d="M 60.702304 239.758125 
L 61.701707 239.758125 
L 61.701707 218.80317 
L 60.702304 218.80317 
z
" style="fill:#1f77b4;"/>
   </g>
   <g id="patch_5">
    <path clip-path="url(#p42baa3d085)" d="M 61.951558 239.758125 
L 62.950961 239.758125 
L 62.950961 204.186441 
L 61.951558 204.186441 
z
" style="fill:#1f77b4;"/>
   </g>
   <g id="patch_6">
    <path clip-path="url(#p42baa3d085)" d="M 63.200812 239.758125 
L 64.200215 239.758125 
L 64.200215 178.833532 
L 63.200812 178.833532 
z
" style="fill:#1f77b4;"/>
   </g>
   <g id="patch_7">
    <path clip-path="url(#p42baa3d085)" d="M 64.450065 239.758125 
L 65.449468 239.758125 
L 65.449468 173.918173 
L 64.450065 173.918173 
z
" style="fill:#1f77b4;"/>
   </g>
   <g id="patch_8">
    <path clip-path="url(#p42baa3d085)" d="M 65.699319 239.758125 
L 66.698722 239.758125 
L 66.698722 163.440695 
L 65.699319 163.440695 
z
" style="fill:#1f77b4;"/>
   </g>
   <g id="patch_9">
    <path clip-path="url(#p42baa3d085)" d="M 66.948573 239.758125 
L 67.947976 239.758125 
L 67.947976 187.112033 
L 66.948573 187.112033 
z
" style="fill:#1f77b4;"/>
   </g>
   <g id="patch_10">
    <path clip-path="url(#p42baa3d085)" d="M 68.197826 239.758125 
L 69.197229 239.758125 
L 69.197229 204.05709 
L 68.197826 204.05709 
z
" style="fill:#1f77b4;"/>
   </g>
   <g id="patch_11">
    <path clip-path="url(#p42baa3d085)" d="M 69.44708 239.758125 
L 70.446483 239.758125 
L 70.446483 209.877911 
L 69.44708 209.877911 
z
" style="fill:#1f77b4;"/>
   </g>
   <g id="patch_12">
    <path clip-path="url(#p42baa3d085)" d="M 70.696334 239.758125 
L 71.695737 239.758125 
L 71.695737 203.022277 
L 70.696334 203.022277 
z
" style="fill:#1f77b4;"/>
   </g>
   <g id="patch_13">
    <path clip-path="url(#p42baa3d085)" d="M 71.945588 239.758125 
L 72.944991 239.758125 
L 72.944991 211.947536 
L 71.945588 211.947536 
z
" style="fill:#1f77b4;"/>
   </g>
   <g id="patch_14">
    <path clip-path="url(#p42baa3d085)" d="M 73.194841 239.758125 
L 74.194244 239.758125 
L 74.194244 190.345823 
L 73.194841 190.345823 
z
" style="fill:#1f77b4;"/>
   </g>
   <g id="patch_15">
    <path clip-path="url(#p42baa3d085)" d="M 74.444095 239.758125 
L 75.443498 239.758125 
L 75.443498 197.589511 
L 74.444095 197.589511 
z
" style="fill:#1f77b4;"/>
   </g>
   <g id="patch_16">
    <path clip-path="url(#p42baa3d085)" d="M 75.693349 239.758125 
L 76.692752 239.758125 
L 76.692752 201.728762 
L 75.693349 201.728762 
z
" style="fill:#1f77b4;"/>
   </g>
   <g id="patch_17">
    <path clip-path="url(#p42baa3d085)" d="M 76.942603 239.758125 
L 77.942006 239.758125 
L 77.942006 177.02261 
L 76.942603 177.02261 
z
" style="fill:#1f77b4;"/>
   </g>
   <g id="patch_18">
    <path clip-path="url(#p42baa3d085)" d="M 78.191856 239.758125 
L 79.191259 239.758125 
L 79.191259 206.126715 
L 78.191856 206.126715 
z
" style="fill:#1f77b4;"/>
   </g>
   <g id="patch_19">
    <path clip-path="url(#p42baa3d085)" d="M 79.44111 239.758125 
L 80.440513 239.758125 
L 80.440513 204.05709 
L 79.44111 204.05709 
z
" style="fill:#1f77b4;"/>
   </g>
   <g id="patch_20">
    <path clip-path="url(#p42baa3d085)" d="M 80.690364 239.758125 
L 81.689767 239.758125 
L 81.689767 203.28098 
L 80.690364 203.28098 
z
" style="fill:#1f77b4;"/>
   </g>
   <g id="patch_21">
    <path clip-path="url(#p42baa3d085)" d="M 81.939618 239.758125 
L 82.939021 239.758125 
L 82.939021 204.833199 
L 81.939618 204.833199 
z
" style="fill:#1f77b4;"/>
   </g>
   <g id="patch_22">
    <path clip-path="url(#p42baa3d085)" d="M 83.188871 239.758125 
L 84.188274 239.758125 
L 84.188274 180.385751 
L 83.188871 180.385751 
z
" style="fill:#1f77b4;"/>
   </g>
   <g id="patch_23">
    <path clip-path="url(#p42baa3d085)" d="M 84.438125 239.758125 
L 85.437528 239.758125 
L 85.437528 175.211688 
L 84.438125 175.211688 
z
" style="fill:#1f77b4;"/>
   </g>
   <g id="patch_24">
    <path clip-path="url(#p42baa3d085)" d="M 85.687379 239.758125 
L 86.686782 239.758125 
L 86.686782 201.211355 
L 85.687379 201.211355 
z
" style="fill:#1f77b4;"/>
   </g>
   <g id="patch_25">
    <path clip-path="url(#p42baa3d085)" d="M 86.936632 239.758125 
L 87.936035 239.758125 
L 87.936035 177.540017 
L 86.936632 177.540017 
z
" style="fill:#1f77b4;"/>
   </g>
   <g id="patch_26">
    <path clip-path="url(#p42baa3d085)" d="M 88.185886 239.758125 
L 89.185289 239.758125 
L 89.185289 177.281314 
L 88.185886 177.281314 
z
" style="fill:#1f77b4;"/>
   </g>
   <g id="patch_27">
    <path clip-path="url(#p42baa3d085)" d="M 89.43514 239.758125 
L 90.434543 239.758125 
L 90.434543 181.549916 
L 89.43514 181.549916 
z
" style="fill:#1f77b4;"/>
   </g>
   <g id="patch_28">
    <path clip-path="url(#p42baa3d085)" d="M 90.684394 239.758125 
L 91.683797 239.758125 
L 91.683797 169.649571 
L 90.684394 169.649571 
z
" style="fill:#1f77b4;"/>
   </g>
   <g id="patch_29">
    <path clip-path="url(#p42baa3d085)" d="M 91.933647 239.758125 
L 92.93305 239.758125 
L 92.93305 185.689166 
L 91.933647 185.689166 
z
" style="fill:#1f77b4;"/>
   </g>
   <g id="patch_30">
    <path clip-path="url(#p42baa3d085)" d="M 93.182901 239.758125 
L 94.182304 239.758125 
L 94.182304 168.226703 
L 93.182901 168.226703 
z
" style="fill:#1f77b4;"/>
   </g>
   <g id="patch_31">
    <path clip-path="url(#p42baa3d085)" d="M 94.432155 239.758125 
L 95.431558 239.758125 
L 95.431558 186.465276 
L 94.432155 186.465276 
z
" style="fill:#1f77b4;"/>
   </g>
   <g id="patch_32">
    <path clip-path="url(#p42baa3d085)" d="M 95.681409 239.758125 
L 96.680812 239.758125 
L 96.680812 192.286096 
L 95.681409 192.286096 
z
" style="fill:#1f77b4;"/>
   </g>
   <g id="patch_33">
    <path clip-path="url(#p42baa3d085)" d="M 96.930662 239.758125 
L 97.930065 239.758125 
L 97.930065 220.355389 
L 96.930662 220.355389 
z
" style="fill:#1f77b4;"/>
   </g>
   <g id="patch_34">
    <path clip-path="url(#p42baa3d085)" d="M 98.179916 239.758125 
L 99.179319 239.758125 
L 99.179319 193.579612 
L 98.179916 193.579612 
z
" style="fill:#1f77b4;"/>
   </g>
   <g id="patch_35">
    <path clip-path="url(#p42baa3d085)" d="M 99.42917 239.758125 
L 100.428573 239.758125 
L 100.428573 186.594627 
L 99.42917 186.594627 
z
" style="fill:#1f77b4;"/>
   </g>
   <g id="patch_36">
    <path clip-path="url(#p42baa3d085)" d="M 100.678424 239.758125 
L 101.677826 239.758125 
L 101.677826 168.226703 
L 100.678424 168.226703 
z
" style="fill:#1f77b4;"/>
   </g>
   <g id="patch_37">
    <path clip-path="url(#p42baa3d085)" d="M 101.927677 239.758125 
L 102.92708 239.758125 
L 102.92708 179.997697 
L 101.927677 179.997697 
z
" style="fill:#1f77b4;"/>
   </g>
   <g id="patch_38">
    <path clip-path="url(#p42baa3d085)" d="M 103.176931 239.758125 
L 104.176334 239.758125 
L 104.176334 135.500754 
L 103.176931 135.500754 
z
" style="fill:#1f77b4;"/>
   </g>
   <g id="patch_39">
    <path clip-path="url(#p42baa3d085)" d="M 104.426185 239.758125 
L 105.425588 239.758125 
L 105.425588 200.176543 
L 104.426185 200.176543 
z
" style="fill:#1f77b4;"/>
   </g>
   <g id="patch_40">
    <path clip-path="url(#p42baa3d085)" d="M 105.675438 239.758125 
L 106.674841 239.758125 
L 106.674841 198.883027 
L 105.675438 198.883027 
z
" style="fill:#1f77b4;"/>
   </g>
   <g id="patch_41">
    <path clip-path="url(#p42baa3d085)" d="M 106.924692 239.758125 
L 107.924095 239.758125 
L 107.924095 196.942753 
L 106.924692 196.942753 
z
" style="fill:#1f77b4;"/>
   </g>
   <g id="patch_42">
    <path clip-path="url(#p42baa3d085)" d="M 108.173946 239.758125 
L 109.173349 239.758125 
L 109.173349 148.435912 
L 108.173946 148.435912 
z
" style="fill:#1f77b4;"/>
   </g>
   <g id="patch_43">
    <path clip-path="url(#p42baa3d085)" d="M 109.4232 239.758125 
L 110.422603 239.758125 
L 110.422603 164.475508 
L 109.4232 164.475508 
z
" style="fill:#1f77b4;"/>
   </g>
   <g id="patch_44">
    <path clip-path="url(#p42baa3d085)" d="M 110.672453 239.758125 
L 111.671856 239.758125 
L 111.671856 168.74411 
L 110.672453 168.74411 
z
" style="fill:#1f77b4;"/>
   </g>
   <g id="patch_45">
    <path clip-path="url(#p42baa3d085)" d="M 111.921707 239.758125 
L 112.92111 239.758125 
L 112.92111 198.106917 
L 111.921707 198.106917 
z
" style="fill:#1f77b4;"/>
   </g>
   <g id="patch_46">
    <path clip-path="url(#p42baa3d085)" d="M 113.170961 239.758125 
L 114.170364 239.758125 
L 114.170364 171.460493 
L 113.170961 171.460493 
z
" style="fill:#1f77b4;"/>
   </g>
   <g id="patch_47">
    <path clip-path="url(#p42baa3d085)" d="M 114.420215 239.758125 
L 115.419618 239.758125 
L 115.419618 221.131498 
L 114.420215 221.131498 
z
" style="fill:#1f77b4;"/>
   </g>
   <g id="patch_48">
    <path clip-path="url(#p42baa3d085)" d="M 115.669468 239.758125 
L 116.668871 239.758125 
L 116.668871 203.927738 
L 115.669468 203.927738 
z
" style="fill:#1f77b4;"/>
   </g>
   <g id="patch_49">
    <path clip-path="url(#p42baa3d085)" d="M 116.918722 239.758125 
L 117.918125 239.758125 
L 117.918125 196.554698 
L 116.918722 196.554698 
z
" style="fill:#1f77b4;"/>
   </g>
   <g id="patch_50">
    <path clip-path="url(#p42baa3d085)" d="M 118.167976 239.758125 
L 119.167379 239.758125 
L 119.167379 171.589844 
L 118.167976 171.589844 
z
" style="fill:#1f77b4;"/>
   </g>
   <g id="patch_51">
    <path clip-path="url(#p42baa3d085)" d="M 119.417229 239.758125 
L 120.416632 239.758125 
L 120.416632 196.942753 
L 119.417229 196.942753 
z
" style="fill:#1f77b4;"/>
   </g>
   <g id="patch_52">
    <path clip-path="url(#p42baa3d085)" d="M 120.666483 239.758125 
L 121.665886 239.758125 
L 121.665886 222.94242 
L 120.666483 222.94242 
z
" style="fill:#1f77b4;"/>
   </g>
   <g id="patch_53">
    <path clip-path="url(#p42baa3d085)" d="M 121.915737 239.758125 
L 122.91514 239.758125 
L 122.91514 218.156412 
L 121.915737 218.156412 
z
" style="fill:#1f77b4;"/>
   </g>
   <g id="patch_54">
    <path clip-path="url(#p42baa3d085)" d="M 123.164991 239.758125 
L 124.164394 239.758125 
L 124.164394 210.265966 
L 123.164991 210.265966 
z
" style="fill:#1f77b4;"/>
   </g>
   <g id="patch_55">
    <path clip-path="url(#p42baa3d085)" d="M 124.414244 239.758125 
L 125.413647 239.758125 
L 125.413647 199.529785 
L 124.414244 199.529785 
z
" style="fill:#1f77b4;"/>
   </g>
   <g id="patch_56">
    <path clip-path="url(#p42baa3d085)" d="M 125.663498 239.758125 
L 126.662901 239.758125 
L 126.662901 186.465276 
L 125.663498 186.465276 
z
" style="fill:#1f77b4;"/>
   </g>
   <g id="patch_57">
    <path clip-path="url(#p42baa3d085)" d="M 126.912752 239.758125 
L 127.912155 239.758125 
L 127.912155 202.504871 
L 126.912752 202.504871 
z
" style="fill:#1f77b4;"/>
   </g>
   <g id="patch_58">
    <path clip-path="url(#p42baa3d085)" d="M 128.162006 239.758125 
L 129.161409 239.758125 
L 129.161409 188.405549 
L 128.162006 188.405549 
z
" style="fill:#1f77b4;"/>
   </g>
   <g id="patch_59">
    <path clip-path="url(#p42baa3d085)" d="M 129.411259 239.758125 
L 130.410662 239.758125 
L 130.410662 201.470058 
L 129.411259 201.470058 
z
" style="fill:#1f77b4;"/>
   </g>
   <g id="patch_60">
    <path clip-path="url(#p42baa3d085)" d="M 130.660513 239.758125 
L 131.659916 239.758125 
L 131.659916 209.360505 
L 130.660513 209.360505 
z
" style="fill:#1f77b4;"/>
   </g>
   <g id="patch_61">
    <path clip-path="url(#p42baa3d085)" d="M 131.909767 239.758125 
L 132.90917 239.758125 
L 132.90917 209.877911 
L 131.909767 209.877911 
z
" style="fill:#1f77b4;"/>
   </g>
   <g id="patch_62">
    <path clip-path="url(#p42baa3d085)" d="M 133.159021 239.758125 
L 134.158424 239.758125 
L 134.158424 189.440362 
L 133.159021 189.440362 
z
" style="fill:#1f77b4;"/>
   </g>
   <g id="patch_63">
    <path clip-path="url(#p42baa3d085)" d="M 134.408274 239.758125 
L 135.407677 239.758125 
L 135.407677 192.286096 
L 134.408274 192.286096 
z
" style="fill:#1f77b4;"/>
   </g>
   <g id="patch_64">
    <path clip-path="url(#p42baa3d085)" d="M 135.657528 239.758125 
L 136.656931 239.758125 
L 136.656931 177.410665 
L 135.657528 177.410665 
z
" style="fill:#1f77b4;"/>
   </g>
   <g id="patch_65">
    <path clip-path="url(#p42baa3d085)" d="M 136.906782 239.758125 
L 137.906185 239.758125 
L 137.906185 194.873128 
L 136.906782 194.873128 
z
" style="fill:#1f77b4;"/>
   </g>
   <g id="patch_66">
    <path clip-path="url(#p42baa3d085)" d="M 138.156035 239.758125 
L 139.155438 239.758125 
L 139.155438 193.062206 
L 138.156035 193.062206 
z
" style="fill:#1f77b4;"/>
   </g>
   <g id="patch_67">
    <path clip-path="url(#p42baa3d085)" d="M 139.405289 239.758125 
L 140.404692 239.758125 
L 140.404692 207.032176 
L 139.405289 207.032176 
z
" style="fill:#1f77b4;"/>
   </g>
   <g id="patch_68">
    <path clip-path="url(#p42baa3d085)" d="M 140.654543 239.758125 
L 141.653946 239.758125 
L 141.653946 196.68405 
L 140.654543 196.68405 
z
" style="fill:#1f77b4;"/>
   </g>
   <g id="patch_69">
    <path clip-path="url(#p42baa3d085)" d="M 141.903797 239.758125 
L 142.9032 239.758125 
L 142.9032 196.037292 
L 141.903797 196.037292 
z
" style="fill:#1f77b4;"/>
   </g>
   <g id="patch_70">
    <path clip-path="url(#p42baa3d085)" d="M 143.15305 239.758125 
L 144.152453 239.758125 
L 144.152453 188.276198 
L 143.15305 188.276198 
z
" style="fill:#1f77b4;"/>
   </g>
   <g id="patch_71">
    <path clip-path="url(#p42baa3d085)" d="M 144.402304 239.758125 
L 145.401707 239.758125 
L 145.401707 163.958101 
L 144.402304 163.958101 
z
" style="fill:#1f77b4;"/>
   </g>
   <g id="patch_72">
    <path clip-path="url(#p42baa3d085)" d="M 145.651558 239.758125 
L 146.650961 239.758125 
L 146.650961 115.063205 
L 145.651558 115.063205 
z
" style="fill:#1f77b4;"/>
   </g>
   <g id="patch_73">
    <path clip-path="url(#p42baa3d085)" d="M 146.900812 239.758125 
L 147.900215 239.758125 
L 147.900215 189.440362 
L 146.900812 189.440362 
z
" style="fill:#1f77b4;"/>
   </g>
   <g id="patch_74">
    <path clip-path="url(#p42baa3d085)" d="M 148.150065 239.758125 
L 149.149468 239.758125 
L 149.149468 207.290879 
L 148.150065 207.290879 
z
" style="fill:#1f77b4;"/>
   </g>
   <g id="patch_75">
    <path clip-path="url(#p42baa3d085)" d="M 149.399319 239.758125 
L 150.398722 239.758125 
L 150.398722 212.335591 
L 149.399319 212.335591 
z
" style="fill:#1f77b4;"/>
   </g>
   <g id="patch_76">
    <path clip-path="url(#p42baa3d085)" d="M 150.648573 239.758125 
L 151.647976 239.758125 
L 151.647976 186.982682 
L 150.648573 186.982682 
z
" style="fill:#1f77b4;"/>
   </g>
   <g id="patch_77">
    <path clip-path="url(#p42baa3d085)" d="M 151.897826 239.758125 
L 152.897229 239.758125 
L 152.897229 182.584728 
L 151.897826 182.584728 
z
" style="fill:#1f77b4;"/>
   </g>
   <g id="patch_78">
    <path clip-path="url(#p42baa3d085)" d="M 153.14708 239.758125 
L 154.146483 239.758125 
L 154.146483 184.266299 
L 153.14708 184.266299 
z
" style="fill:#1f77b4;"/>
   </g>
   <g id="patch_79">
    <path clip-path="url(#p42baa3d085)" d="M 154.396334 239.758125 
L 155.395737 239.758125 
L 155.395737 158.525335 
L 154.396334 158.525335 
z
" style="fill:#1f77b4;"/>
   </g>
   <g id="patch_80">
    <path clip-path="url(#p42baa3d085)" d="M 155.645588 239.758125 
L 156.644991 239.758125 
L 156.644991 177.410665 
L 155.645588 177.410665 
z
" style="fill:#1f77b4;"/>
   </g>
   <g id="patch_81">
    <path clip-path="url(#p42baa3d085)" d="M 156.894841 239.758125 
L 157.894244 239.758125 
L 157.894244 179.738994 
L 156.894841 179.738994 
z
" style="fill:#1f77b4;"/>
   </g>
   <g id="patch_82">
    <path clip-path="url(#p42baa3d085)" d="M 158.144095 239.758125 
L 159.143498 239.758125 
L 159.143498 193.708964 
L 158.144095 193.708964 
z
" style="fill:#1f77b4;"/>
   </g>
   <g id="patch_83">
    <path clip-path="url(#p42baa3d085)" d="M 159.393349 239.758125 
L 160.392752 239.758125 
L 160.392752 215.181325 
L 159.393349 215.181325 
z
" style="fill:#1f77b4;"/>
   </g>
   <g id="patch_84">
    <path clip-path="url(#p42baa3d085)" d="M 160.642603 239.758125 
L 161.642006 239.758125 
L 161.642006 196.425347 
L 160.642603 196.425347 
z
" style="fill:#1f77b4;"/>
   </g>
   <g id="patch_85">
    <path clip-path="url(#p42baa3d085)" d="M 161.891856 239.758125 
L 162.891259 239.758125 
L 162.891259 171.201789 
L 161.891856 171.201789 
z
" style="fill:#1f77b4;"/>
   </g>
   <g id="patch_86">
    <path clip-path="url(#p42baa3d085)" d="M 163.14111 239.758125 
L 164.140513 239.758125 
L 164.140513 158.784038 
L 163.14111 158.784038 
z
" style="fill:#1f77b4;"/>
   </g>
   <g id="patch_87">
    <path clip-path="url(#p42baa3d085)" d="M 164.390364 239.758125 
L 165.389767 239.758125 
L 165.389767 155.291546 
L 164.390364 155.291546 
z
" style="fill:#1f77b4;"/>
   </g>
   <g id="patch_88">
    <path clip-path="url(#p42baa3d085)" d="M 165.639618 239.758125 
L 166.639021 239.758125 
L 166.639021 192.803503 
L 165.639618 192.803503 
z
" style="fill:#1f77b4;"/>
   </g>
   <g id="patch_89">
    <path clip-path="url(#p42baa3d085)" d="M 166.888871 239.758125 
L 167.888274 239.758125 
L 167.888274 200.952652 
L 166.888871 200.952652 
z
" style="fill:#1f77b4;"/>
   </g>
   <g id="patch_90">
    <path clip-path="url(#p42baa3d085)" d="M 168.138125 239.758125 
L 169.137528 239.758125 
L 169.137528 169.778922 
L 168.138125 169.778922 
z
" style="fill:#1f77b4;"/>
   </g>
   <g id="patch_91">
    <path clip-path="url(#p42baa3d085)" d="M 169.387379 239.758125 
L 170.386782 239.758125 
L 170.386782 187.370737 
L 169.387379 187.370737 
z
" style="fill:#1f77b4;"/>
   </g>
   <g id="patch_92">
    <path clip-path="url(#p42baa3d085)" d="M 170.636632 239.758125 
L 171.636035 239.758125 
L 171.636035 185.301111 
L 170.636632 185.301111 
z
" style="fill:#1f77b4;"/>
   </g>
   <g id="patch_93">
    <path clip-path="url(#p42baa3d085)" d="M 171.885886 239.758125 
L 172.885289 239.758125 
L 172.885289 185.559814 
L 171.885886 185.559814 
z
" style="fill:#1f77b4;"/>
   </g>
   <g id="patch_94">
    <path clip-path="url(#p42baa3d085)" d="M 173.13514 239.758125 
L 174.134543 239.758125 
L 174.134543 212.076888 
L 173.13514 212.076888 
z
" style="fill:#1f77b4;"/>
   </g>
   <g id="patch_95">
    <path clip-path="url(#p42baa3d085)" d="M 174.384394 239.758125 
L 175.383797 239.758125 
L 175.383797 227.987132 
L 174.384394 227.987132 
z
" style="fill:#1f77b4;"/>
   </g>
   <g id="patch_96">
    <path clip-path="url(#p42baa3d085)" d="M 175.633647 239.758125 
L 176.63305 239.758125 
L 176.63305 209.619208 
L 175.633647 209.619208 
z
" style="fill:#1f77b4;"/>
   </g>
   <g id="patch_97">
    <path clip-path="url(#p42baa3d085)" d="M 176.882901 239.758125 
L 177.882304 239.758125 
L 177.882304 203.669035 
L 176.882901 203.669035 
z
" style="fill:#1f77b4;"/>
   </g>
   <g id="patch_98">
    <path clip-path="url(#p42baa3d085)" d="M 178.132155 239.758125 
L 179.131558 239.758125 
L 179.131558 194.097019 
L 178.132155 194.097019 
z
" style="fill:#1f77b4;"/>
   </g>
   <g id="patch_99">
    <path clip-path="url(#p42baa3d085)" d="M 179.381409 239.758125 
L 180.380812 239.758125 
L 180.380812 201.59941 
L 179.381409 201.59941 
z
" style="fill:#1f77b4;"/>
   </g>
   <g id="patch_100">
    <path clip-path="url(#p42baa3d085)" d="M 180.630662 239.758125 
L 181.630065 239.758125 
L 181.630065 185.689166 
L 180.630662 185.689166 
z
" style="fill:#1f77b4;"/>
   </g>
   <g id="patch_101">
    <path clip-path="url(#p42baa3d085)" d="M 181.879916 239.758125 
L 182.879319 239.758125 
L 182.879319 208.325692 
L 181.879916 208.325692 
z
" style="fill:#1f77b4;"/>
   </g>
   <g id="patch_102">
    <path clip-path="url(#p42baa3d085)" d="M 183.12917 239.758125 
L 184.128573 239.758125 
L 184.128573 224.623991 
L 183.12917 224.623991 
z
" style="fill:#1f77b4;"/>
   </g>
   <g id="patch_103">
    <path clip-path="url(#p42baa3d085)" d="M 184.378424 239.758125 
L 185.377826 239.758125 
L 185.377826 199.271082 
L 184.378424 199.271082 
z
" style="fill:#1f77b4;"/>
   </g>
   <g id="patch_104">
    <path clip-path="url(#p42baa3d085)" d="M 185.627677 239.758125 
L 186.62708 239.758125 
L 186.62708 201.987465 
L 185.627677 201.987465 
z
" style="fill:#1f77b4;"/>
   </g>
   <g id="patch_105">
    <path clip-path="url(#p42baa3d085)" d="M 186.876931 239.758125 
L 187.876334 239.758125 
L 187.876334 193.191557 
L 186.876931 193.191557 
z
" style="fill:#1f77b4;"/>
   </g>
   <g id="patch_106">
    <path clip-path="url(#p42baa3d085)" d="M 188.126185 239.758125 
L 189.125588 239.758125 
L 189.125588 201.987465 
L 188.126185 201.987465 
z
" style="fill:#1f77b4;"/>
   </g>
   <g id="patch_107">
    <path clip-path="url(#p42baa3d085)" d="M 189.375438 239.758125 
L 190.374841 239.758125 
L 190.374841 195.519886 
L 189.375438 195.519886 
z
" style="fill:#1f77b4;"/>
   </g>
   <g id="patch_108">
    <path clip-path="url(#p42baa3d085)" d="M 190.624692 239.758125 
L 191.624095 239.758125 
L 191.624095 207.161528 
L 190.624692 207.161528 
z
" style="fill:#1f77b4;"/>
   </g>
   <g id="patch_109">
    <path clip-path="url(#p42baa3d085)" d="M 191.873946 239.758125 
L 192.873349 239.758125 
L 192.873349 218.02706 
L 191.873946 218.02706 
z
" style="fill:#1f77b4;"/>
   </g>
   <g id="patch_110">
    <path clip-path="url(#p42baa3d085)" d="M 193.1232 239.758125 
L 194.122603 239.758125 
L 194.122603 200.176543 
L 193.1232 200.176543 
z
" style="fill:#1f77b4;"/>
   </g>
   <g id="patch_111">
    <path clip-path="url(#p42baa3d085)" d="M 194.372453 239.758125 
L 195.371856 239.758125 
L 195.371856 184.39565 
L 194.372453 184.39565 
z
" style="fill:#1f77b4;"/>
   </g>
   <g id="patch_112">
    <path clip-path="url(#p42baa3d085)" d="M 195.621707 239.758125 
L 196.62111 239.758125 
L 196.62111 201.340707 
L 195.621707 201.340707 
z
" style="fill:#1f77b4;"/>
   </g>
   <g id="patch_113">
    <path clip-path="url(#p42baa3d085)" d="M 196.870961 239.758125 
L 197.870364 239.758125 
L 197.870364 196.942753 
L 196.870961 196.942753 
z
" style="fill:#1f77b4;"/>
   </g>
   <g id="patch_114">
    <path clip-path="url(#p42baa3d085)" d="M 198.120215 239.758125 
L 199.119618 239.758125 
L 199.119618 192.156745 
L 198.120215 192.156745 
z
" style="fill:#1f77b4;"/>
   </g>
   <g id="patch_115">
    <path clip-path="url(#p42baa3d085)" d="M 199.369468 239.758125 
L 200.368871 239.758125 
L 200.368871 189.699065 
L 199.369468 189.699065 
z
" style="fill:#1f77b4;"/>
   </g>
   <g id="patch_116">
    <path clip-path="url(#p42baa3d085)" d="M 200.618722 239.758125 
L 201.618125 239.758125 
L 201.618125 226.434913 
L 200.618722 226.434913 
z
" style="fill:#1f77b4;"/>
   </g>
   <g id="patch_117">
    <path clip-path="url(#p42baa3d085)" d="M 201.867976 239.758125 
L 202.867379 239.758125 
L 202.867379 215.957435 
L 201.867976 215.957435 
z
" style="fill:#1f77b4;"/>
   </g>
   <g id="patch_118">
    <path clip-path="url(#p42baa3d085)" d="M 203.117229 239.758125 
L 204.116632 239.758125 
L 204.116632 178.316126 
L 203.117229 178.316126 
z
" style="fill:#1f77b4;"/>
   </g>
   <g id="patch_119">
    <path clip-path="url(#p42baa3d085)" d="M 204.366483 239.758125 
L 205.365886 239.758125 
L 205.365886 199.271082 
L 204.366483 199.271082 
z
" style="fill:#1f77b4;"/>
   </g>
   <g id="patch_120">
    <path clip-path="url(#p42baa3d085)" d="M 205.615737 239.758125 
L 206.61514 239.758125 
L 206.61514 191.121932 
L 205.615737 191.121932 
z
" style="fill:#1f77b4;"/>
   </g>
   <g id="patch_121">
    <path clip-path="url(#p42baa3d085)" d="M 206.864991 239.758125 
L 207.864394 239.758125 
L 207.864394 159.430796 
L 206.864991 159.430796 
z
" style="fill:#1f77b4;"/>
   </g>
   <g id="patch_122">
    <path clip-path="url(#p42baa3d085)" d="M 208.114244 239.758125 
L 209.113647 239.758125 
L 209.113647 178.445478 
L 208.114244 178.445478 
z
" style="fill:#1f77b4;"/>
   </g>
   <g id="patch_123">
    <path clip-path="url(#p42baa3d085)" d="M 209.363498 239.758125 
L 210.362901 239.758125 
L 210.362901 224.882694 
L 209.363498 224.882694 
z
" style="fill:#1f77b4;"/>
   </g>
   <g id="patch_124">
    <path clip-path="url(#p42baa3d085)" d="M 210.612752 239.758125 
L 211.612155 239.758125 
L 211.612155 165.251617 
L 210.612752 165.251617 
z
" style="fill:#1f77b4;"/>
   </g>
   <g id="patch_125">
    <path clip-path="url(#p42baa3d085)" d="M 211.862006 239.758125 
L 212.861409 239.758125 
L 212.861409 164.992914 
L 211.862006 164.992914 
z
" style="fill:#1f77b4;"/>
   </g>
   <g id="patch_126">
    <path clip-path="url(#p42baa3d085)" d="M 213.111259 239.758125 
L 214.110662 239.758125 
L 214.110662 165.51032 
L 213.111259 165.51032 
z
" style="fill:#1f77b4;"/>
   </g>
   <g id="patch_127">
    <path clip-path="url(#p42baa3d085)" d="M 214.360513 239.758125 
L 215.359916 239.758125 
L 215.359916 164.216804 
L 214.360513 164.216804 
z
" style="fill:#1f77b4;"/>
   </g>
   <g id="patch_128">
    <path clip-path="url(#p42baa3d085)" d="M 215.609767 239.758125 
L 216.60917 239.758125 
L 216.60917 162.793937 
L 215.609767 162.793937 
z
" style="fill:#1f77b4;"/>
   </g>
   <g id="patch_129">
    <path clip-path="url(#p42baa3d085)" d="M 216.859021 239.758125 
L 217.858424 239.758125 
L 217.858424 203.927738 
L 216.859021 203.927738 
z
" style="fill:#1f77b4;"/>
   </g>
   <g id="patch_130">
    <path clip-path="url(#p42baa3d085)" d="M 218.108274 239.758125 
L 219.107677 239.758125 
L 219.107677 207.420231 
L 218.108274 207.420231 
z
" style="fill:#1f77b4;"/>
   </g>
   <g id="patch_131">
    <path clip-path="url(#p42baa3d085)" d="M 219.357528 239.758125 
L 220.356931 239.758125 
L 220.356931 212.335591 
L 219.357528 212.335591 
z
" style="fill:#1f77b4;"/>
   </g>
   <g id="patch_132">
    <path clip-path="url(#p42baa3d085)" d="M 220.606782 239.758125 
L 221.606185 239.758125 
L 221.606185 168.74411 
L 220.606782 168.74411 
z
" style="fill:#1f77b4;"/>
   </g>
   <g id="patch_133">
    <path clip-path="url(#p42baa3d085)" d="M 221.856035 239.758125 
L 222.855438 239.758125 
L 222.855438 206.902825 
L 221.856035 206.902825 
z
" style="fill:#1f77b4;"/>
   </g>
   <g id="patch_134">
    <path clip-path="url(#p42baa3d085)" d="M 223.105289 239.758125 
L 224.104692 239.758125 
L 224.104692 138.217137 
L 223.105289 138.217137 
z
" style="fill:#1f77b4;"/>
   </g>
   <g id="patch_135">
    <path clip-path="url(#p42baa3d085)" d="M 224.354543 239.758125 
L 225.353946 239.758125 
L 225.353946 155.032842 
L 224.354543 155.032842 
z
" style="fill:#1f77b4;"/>
   </g>
   <g id="patch_136">
    <path clip-path="url(#p42baa3d085)" d="M 225.603797 239.758125 
L 226.6032 239.758125 
L 226.6032 172.236602 
L 225.603797 172.236602 
z
" style="fill:#1f77b4;"/>
   </g>
   <g id="patch_137">
    <path clip-path="url(#p42baa3d085)" d="M 226.85305 239.758125 
L 227.852453 239.758125 
L 227.852453 199.659136 
L 226.85305 199.659136 
z
" style="fill:#1f77b4;"/>
   </g>
   <g id="patch_138">
    <path clip-path="url(#p42baa3d085)" d="M 228.102304 239.758125 
L 229.101707 239.758125 
L 229.101707 212.594294 
L 228.102304 212.594294 
z
" style="fill:#1f77b4;"/>
   </g>
   <g id="patch_139">
    <path clip-path="url(#p42baa3d085)" d="M 229.351558 239.758125 
L 230.350961 239.758125 
L 230.350961 168.74411 
L 229.351558 168.74411 
z
" style="fill:#1f77b4;"/>
   </g>
   <g id="patch_140">
    <path clip-path="url(#p42baa3d085)" d="M 230.600812 239.758125 
L 231.600215 239.758125 
L 231.600215 164.992914 
L 230.600812 164.992914 
z
" style="fill:#1f77b4;"/>
   </g>
   <g id="patch_141">
    <path clip-path="url(#p42baa3d085)" d="M 231.850065 239.758125 
L 232.849468 239.758125 
L 232.849468 147.271748 
L 231.850065 147.271748 
z
" style="fill:#1f77b4;"/>
   </g>
   <g id="patch_142">
    <path clip-path="url(#p42baa3d085)" d="M 233.099319 239.758125 
L 234.098722 239.758125 
L 234.098722 166.157078 
L 233.099319 166.157078 
z
" style="fill:#1f77b4;"/>
   </g>
   <g id="patch_143">
    <path clip-path="url(#p42baa3d085)" d="M 234.348573 239.758125 
L 235.347976 239.758125 
L 235.347976 160.853663 
L 234.348573 160.853663 
z
" style="fill:#1f77b4;"/>
   </g>
   <g id="patch_144">
    <path clip-path="url(#p42baa3d085)" d="M 235.597826 239.758125 
L 236.597229 239.758125 
L 236.597229 191.639339 
L 235.597826 191.639339 
z
" style="fill:#1f77b4;"/>
   </g>
   <g id="patch_145">
    <path clip-path="url(#p42baa3d085)" d="M 236.84708 239.758125 
L 237.846483 239.758125 
L 237.846483 205.221254 
L 236.84708 205.221254 
z
" style="fill:#1f77b4;"/>
   </g>
   <g id="patch_146">
    <path clip-path="url(#p42baa3d085)" d="M 238.096334 239.758125 
L 239.095737 239.758125 
L 239.095737 160.336257 
L 238.096334 160.336257 
z
" style="fill:#1f77b4;"/>
   </g>
   <g id="patch_147">
    <path clip-path="url(#p42baa3d085)" d="M 239.345588 239.758125 
L 240.344991 239.758125 
L 240.344991 148.177209 
L 239.345588 148.177209 
z
" style="fill:#1f77b4;"/>
   </g>
   <g id="patch_148">
    <path clip-path="url(#p42baa3d085)" d="M 240.594841 239.758125 
L 241.594244 239.758125 
L 241.594244 156.843765 
L 240.594841 156.843765 
z
" style="fill:#1f77b4;"/>
   </g>
   <g id="patch_149">
    <path clip-path="url(#p42baa3d085)" d="M 241.844095 239.758125 
L 242.843498 239.758125 
L 242.843498 156.197007 
L 241.844095 156.197007 
z
" style="fill:#1f77b4;"/>
   </g>
   <g id="patch_150">
    <path clip-path="url(#p42baa3d085)" d="M 243.093349 239.758125 
L 244.092752 239.758125 
L 244.092752 158.654687 
L 243.093349 158.654687 
z
" style="fill:#1f77b4;"/>
   </g>
   <g id="patch_151">
    <path clip-path="url(#p42baa3d085)" d="M 244.342603 239.758125 
L 245.342006 239.758125 
L 245.342006 206.773473 
L 244.342603 206.773473 
z
" style="fill:#1f77b4;"/>
   </g>
   <g id="patch_152">
    <path clip-path="url(#p42baa3d085)" d="M 245.591856 239.758125 
L 246.591259 239.758125 
L 246.591259 203.669035 
L 245.591856 203.669035 
z
" style="fill:#1f77b4;"/>
   </g>
   <g id="patch_153">
    <path clip-path="url(#p42baa3d085)" d="M 246.84111 239.758125 
L 247.840513 239.758125 
L 247.840513 123.083003 
L 246.84111 123.083003 
z
" style="fill:#1f77b4;"/>
   </g>
   <g id="patch_154">
    <path clip-path="url(#p42baa3d085)" d="M 248.090364 239.758125 
L 249.089767 239.758125 
L 249.089767 83.372069 
L 248.090364 83.372069 
z
" style="fill:#1f77b4;"/>
   </g>
   <g id="patch_155">
    <path clip-path="url(#p42baa3d085)" d="M 249.339618 239.758125 
L 250.339021 239.758125 
L 250.339021 149.988131 
L 249.339618 149.988131 
z
" style="fill:#1f77b4;"/>
   </g>
   <g id="patch_156">
    <path clip-path="url(#p42baa3d085)" d="M 250.588871 239.758125 
L 251.588274 239.758125 
L 251.588274 133.560481 
L 250.588871 133.560481 
z
" style="fill:#1f77b4;"/>
   </g>
   <g id="patch_157">
    <path clip-path="url(#p42baa3d085)" d="M 251.838125 239.758125 
L 252.837528 239.758125 
L 252.837528 178.962884 
L 251.838125 178.962884 
z
" style="fill:#1f77b4;"/>
   </g>
   <g id="patch_158">
    <path clip-path="url(#p42baa3d085)" d="M 253.087379 239.758125 
L 254.086782 239.758125 
L 254.086782 194.097019 
L 253.087379 194.097019 
z
" style="fill:#1f77b4;"/>
   </g>
   <g id="patch_159">
    <path clip-path="url(#p42baa3d085)" d="M 254.336632 239.758125 
L 255.336035 239.758125 
L 255.336035 191.251284 
L 254.336632 191.251284 
z
" style="fill:#1f77b4;"/>
   </g>
   <g id="patch_160">
    <path clip-path="url(#p42baa3d085)" d="M 255.585886 239.758125 
L 256.585289 239.758125 
L 256.585289 133.689832 
L 255.585886 133.689832 
z
" style="fill:#1f77b4;"/>
   </g>
   <g id="patch_161">
    <path clip-path="url(#p42baa3d085)" d="M 256.83514 239.758125 
L 257.834543 239.758125 
L 257.834543 146.883693 
L 256.83514 146.883693 
z
" style="fill:#1f77b4;"/>
   </g>
   <g id="patch_162">
    <path clip-path="url(#p42baa3d085)" d="M 258.084394 239.758125 
L 259.083797 239.758125 
L 259.083797 132.396317 
L 258.084394 132.396317 
z
" style="fill:#1f77b4;"/>
   </g>
   <g id="patch_163">
    <path clip-path="url(#p42baa3d085)" d="M 259.333647 239.758125 
L 260.33305 239.758125 
L 260.33305 89.063538 
L 259.333647 89.063538 
z
" style="fill:#1f77b4;"/>
   </g>
   <g id="patch_164">
    <path clip-path="url(#p42baa3d085)" d="M 260.582901 239.758125 
L 261.582304 239.758125 
L 261.582304 159.818851 
L 260.582901 159.818851 
z
" style="fill:#1f77b4;"/>
   </g>
   <g id="patch_165">
    <path clip-path="url(#p42baa3d085)" d="M 261.832155 239.758125 
L 262.831558 239.758125 
L 262.831558 194.485073 
L 261.832155 194.485073 
z
" style="fill:#1f77b4;"/>
   </g>
   <g id="patch_166">
    <path clip-path="url(#p42baa3d085)" d="M 263.081409 239.758125 
L 264.080812 239.758125 
L 264.080812 195.00248 
L 263.081409 195.00248 
z
" style="fill:#1f77b4;"/>
   </g>
   <g id="patch_167">
    <path clip-path="url(#p42baa3d085)" d="M 264.330662 239.758125 
L 265.330065 239.758125 
L 265.330065 134.983348 
L 264.330662 134.983348 
z
" style="fill:#1f77b4;"/>
   </g>
   <g id="patch_168">
    <path clip-path="url(#p42baa3d085)" d="M 265.579916 239.758125 
L 266.579319 239.758125 
L 266.579319 179.350939 
L 265.579916 179.350939 
z
" style="fill:#1f77b4;"/>
   </g>
   <g id="patch_169">
    <path clip-path="url(#p42baa3d085)" d="M 266.82917 239.758125 
L 267.828573 239.758125 
L 267.828573 144.296662 
L 266.82917 144.296662 
z
" style="fill:#1f77b4;"/>
   </g>
   <g id="patch_170">
    <path clip-path="url(#p42baa3d085)" d="M 268.078424 239.758125 
L 269.077826 239.758125 
L 269.077826 146.62499 
L 268.078424 146.62499 
z
" style="fill:#1f77b4;"/>
   </g>
   <g id="patch_171">
    <path clip-path="url(#p42baa3d085)" d="M 269.327677 239.758125 
L 270.32708 239.758125 
L 270.32708 177.151962 
L 269.327677 177.151962 
z
" style="fill:#1f77b4;"/>
   </g>
   <g id="patch_172">
    <path clip-path="url(#p42baa3d085)" d="M 270.576931 239.758125 
L 271.576334 239.758125 
L 271.576334 187.112033 
L 270.576931 187.112033 
z
" style="fill:#1f77b4;"/>
   </g>
   <g id="patch_173">
    <path clip-path="url(#p42baa3d085)" d="M 271.826185 239.758125 
L 272.825588 239.758125 
L 272.825588 195.649237 
L 271.826185 195.649237 
z
" style="fill:#1f77b4;"/>
   </g>
   <g id="patch_174">
    <path clip-path="url(#p42baa3d085)" d="M 273.075438 239.758125 
L 274.074841 239.758125 
L 274.074841 163.82875 
L 273.075438 163.82875 
z
" style="fill:#1f77b4;"/>
   </g>
   <g id="patch_175">
    <path clip-path="url(#p42baa3d085)" d="M 274.324692 239.758125 
L 275.324095 239.758125 
L 275.324095 175.858446 
L 274.324692 175.858446 
z
" style="fill:#1f77b4;"/>
   </g>
   <g id="patch_176">
    <path clip-path="url(#p42baa3d085)" d="M 275.573946 239.758125 
L 276.573349 239.758125 
L 276.573349 183.360838 
L 275.573946 183.360838 
z
" style="fill:#1f77b4;"/>
   </g>
   <g id="patch_177">
    <path clip-path="url(#p42baa3d085)" d="M 276.8232 239.758125 
L 277.822603 239.758125 
L 277.822603 151.54035 
L 276.8232 151.54035 
z
" style="fill:#1f77b4;"/>
   </g>
   <g id="patch_178">
    <path clip-path="url(#p42baa3d085)" d="M 278.072453 239.758125 
L 279.071856 239.758125 
L 279.071856 205.221254 
L 278.072453 205.221254 
z
" style="fill:#1f77b4;"/>
   </g>
   <g id="patch_179">
    <path clip-path="url(#p42baa3d085)" d="M 279.321707 239.758125 
L 280.32111 239.758125 
L 280.32111 192.286096 
L 279.321707 192.286096 
z
" style="fill:#1f77b4;"/>
   </g>
   <g id="patch_180">
    <path clip-path="url(#p42baa3d085)" d="M 280.570961 239.758125 
L 281.570364 239.758125 
L 281.570364 183.619541 
L 280.570961 183.619541 
z
" style="fill:#1f77b4;"/>
   </g>
   <g id="patch_181">
    <path clip-path="url(#p42baa3d085)" d="M 281.820215 239.758125 
L 282.819618 239.758125 
L 282.819618 177.79872 
L 281.820215 177.79872 
z
" style="fill:#1f77b4;"/>
   </g>
   <g id="patch_182">
    <path clip-path="url(#p42baa3d085)" d="M 283.069468 239.758125 
L 284.068871 239.758125 
L 284.068871 163.958101 
L 283.069468 163.958101 
z
" style="fill:#1f77b4;"/>
   </g>
   <g id="patch_183">
    <path clip-path="url(#p42baa3d085)" d="M 284.318722 239.758125 
L 285.318125 239.758125 
L 285.318125 168.485406 
L 284.318722 168.485406 
z
" style="fill:#1f77b4;"/>
   </g>
   <g id="patch_184">
    <path clip-path="url(#p42baa3d085)" d="M 285.567976 239.758125 
L 286.567379 239.758125 
L 286.567379 138.863895 
L 285.567976 138.863895 
z
" style="fill:#1f77b4;"/>
   </g>
   <g id="patch_185">
    <path clip-path="url(#p42baa3d085)" d="M 286.817229 239.758125 
L 287.816632 239.758125 
L 287.816632 139.122599 
L 286.817229 139.122599 
z
" style="fill:#1f77b4;"/>
   </g>
   <g id="patch_186">
    <path clip-path="url(#p42baa3d085)" d="M 288.066483 239.758125 
L 289.065886 239.758125 
L 289.065886 185.430463 
L 288.066483 185.430463 
z
" style="fill:#1f77b4;"/>
   </g>
   <g id="patch_187">
    <path clip-path="url(#p42baa3d085)" d="M 289.315737 239.758125 
L 290.31514 239.758125 
L 290.31514 182.455377 
L 289.315737 182.455377 
z
" style="fill:#1f77b4;"/>
   </g>
   <g id="patch_188">
    <path clip-path="url(#p42baa3d085)" d="M 290.564991 239.758125 
L 291.564394 239.758125 
L 291.564394 155.420897 
L 290.564991 155.420897 
z
" style="fill:#1f77b4;"/>
   </g>
   <g id="patch_189">
    <path clip-path="url(#p42baa3d085)" d="M 291.814244 239.758125 
L 292.813647 239.758125 
L 292.813647 119.073104 
L 291.814244 119.073104 
z
" style="fill:#1f77b4;"/>
   </g>
   <g id="patch_190">
    <path clip-path="url(#p42baa3d085)" d="M 293.063498 239.758125 
L 294.062901 239.758125 
L 294.062901 109.889142 
L 293.063498 109.889142 
z
" style="fill:#1f77b4;"/>
   </g>
   <g id="patch_191">
    <path clip-path="url(#p42baa3d085)" d="M 294.312752 239.758125 
L 295.312155 239.758125 
L 295.312155 71.213021 
L 294.312752 71.213021 
z
" style="fill:#1f77b4;"/>
   </g>
   <g id="patch_192">
    <path clip-path="url(#p42baa3d085)" d="M 295.562006 239.758125 
L 296.561409 239.758125 
L 296.561409 150.76424 
L 295.562006 150.76424 
z
" style="fill:#1f77b4;"/>
   </g>
   <g id="patch_193">
    <path clip-path="url(#p42baa3d085)" d="M 296.811259 239.758125 
L 297.810662 239.758125 
L 297.810662 166.803836 
L 296.811259 166.803836 
z
" style="fill:#1f77b4;"/>
   </g>
   <g id="patch_194">
    <path clip-path="url(#p42baa3d085)" d="M 298.060513 239.758125 
L 299.059916 239.758125 
L 299.059916 184.007596 
L 298.060513 184.007596 
z
" style="fill:#1f77b4;"/>
   </g>
   <g id="patch_195">
    <path clip-path="url(#p42baa3d085)" d="M 299.309767 239.758125 
L 300.30917 239.758125 
L 300.30917 153.99803 
L 299.309767 153.99803 
z
" style="fill:#1f77b4;"/>
   </g>
   <g id="patch_196">
    <path clip-path="url(#p42baa3d085)" d="M 300.559021 239.758125 
L 301.558424 239.758125 
L 301.558424 144.555365 
L 300.559021 144.555365 
z
" style="fill:#1f77b4;"/>
   </g>
   <g id="patch_197">
    <path clip-path="url(#p42baa3d085)" d="M 301.808274 239.758125 
L 302.807677 239.758125 
L 302.807677 99.799719 
L 301.808274 99.799719 
z
" style="fill:#1f77b4;"/>
   </g>
   <g id="patch_198">
    <path clip-path="url(#p42baa3d085)" d="M 303.057528 239.758125 
L 304.056931 239.758125 
L 304.056931 149.729428 
L 303.057528 149.729428 
z
" style="fill:#1f77b4;"/>
   </g>
   <g id="patch_199">
    <path clip-path="url(#p42baa3d085)" d="M 304.306782 239.758125 
L 305.306185 239.758125 
L 305.306185 151.281647 
L 304.306782 151.281647 
z
" style="fill:#1f77b4;"/>
   </g>
   <g id="patch_200">
    <path clip-path="url(#p42baa3d085)" d="M 305.556035 239.758125 
L 306.555438 239.758125 
L 306.555438 187.500088 
L 305.556035 187.500088 
z
" style="fill:#1f77b4;"/>
   </g>
   <g id="patch_201">
    <path clip-path="url(#p42baa3d085)" d="M 306.805289 239.758125 
L 307.804692 239.758125 
L 307.804692 176.893259 
L 306.805289 176.893259 
z
" style="fill:#1f77b4;"/>
   </g>
   <g id="patch_202">
    <path clip-path="url(#p42baa3d085)" d="M 308.054543 239.758125 
L 309.053946 239.758125 
L 309.053946 149.341373 
L 308.054543 149.341373 
z
" style="fill:#1f77b4;"/>
   </g>
   <g id="patch_203">
    <path clip-path="url(#p42baa3d085)" d="M 309.303797 239.758125 
L 310.3032 239.758125 
L 310.3032 120.754675 
L 309.303797 120.754675 
z
" style="fill:#1f77b4;"/>
   </g>
   <g id="patch_204">
    <path clip-path="url(#p42baa3d085)" d="M 310.55305 239.758125 
L 311.552453 239.758125 
L 311.552453 141.192224 
L 310.55305 141.192224 
z
" style="fill:#1f77b4;"/>
   </g>
   <g id="patch_205">
    <path clip-path="url(#p42baa3d085)" d="M 311.802304 239.758125 
L 312.801707 239.758125 
L 312.801707 148.953318 
L 311.802304 148.953318 
z
" style="fill:#1f77b4;"/>
   </g>
   <g id="patch_206">
    <path clip-path="url(#p42baa3d085)" d="M 313.051558 239.758125 
L 314.050961 239.758125 
L 314.050961 176.893259 
L 313.051558 176.893259 
z
" style="fill:#1f77b4;"/>
   </g>
   <g id="patch_207">
    <path clip-path="url(#p42baa3d085)" d="M 314.300812 239.758125 
L 315.300215 239.758125 
L 315.300215 197.718863 
L 314.300812 197.718863 
z
" style="fill:#1f77b4;"/>
   </g>
   <g id="patch_208">
    <path clip-path="url(#p42baa3d085)" d="M 315.550065 239.758125 
L 316.549468 239.758125 
L 316.549468 171.072438 
L 315.550065 171.072438 
z
" style="fill:#1f77b4;"/>
   </g>
   <g id="patch_209">
    <path clip-path="url(#p42baa3d085)" d="M 316.799319 239.758125 
L 317.798722 239.758125 
L 317.798722 136.018161 
L 316.799319 136.018161 
z
" style="fill:#1f77b4;"/>
   </g>
   <g id="patch_210">
    <path clip-path="url(#p42baa3d085)" d="M 318.048573 239.758125 
L 319.047976 239.758125 
L 319.047976 96.953985 
L 318.048573 96.953985 
z
" style="fill:#1f77b4;"/>
   </g>
   <g id="patch_211">
    <path clip-path="url(#p42baa3d085)" d="M 319.297826 239.758125 
L 320.297229 239.758125 
L 320.297229 138.475841 
L 319.297826 138.475841 
z
" style="fill:#1f77b4;"/>
   </g>
   <g id="patch_212">
    <path clip-path="url(#p42baa3d085)" d="M 320.54708 239.758125 
L 321.546483 239.758125 
L 321.546483 117.003479 
L 320.54708 117.003479 
z
" style="fill:#1f77b4;"/>
   </g>
   <g id="patch_213">
    <path clip-path="url(#p42baa3d085)" d="M 321.796334 239.758125 
L 322.795737 239.758125 
L 322.795737 137.311676 
L 321.796334 137.311676 
z
" style="fill:#1f77b4;"/>
   </g>
   <g id="patch_214">
    <path clip-path="url(#p42baa3d085)" d="M 323.045588 239.758125 
L 324.044991 239.758125 
L 324.044991 173.788821 
L 323.045588 173.788821 
z
" style="fill:#1f77b4;"/>
   </g>
   <g id="patch_215">
    <path clip-path="url(#p42baa3d085)" d="M 324.294841 239.758125 
L 325.294244 239.758125 
L 325.294244 184.39565 
L 324.294841 184.39565 
z
" style="fill:#1f77b4;"/>
   </g>
   <g id="patch_216">
    <path clip-path="url(#p42baa3d085)" d="M 325.544095 239.758125 
L 326.543498 239.758125 
L 326.543498 147.401099 
L 325.544095 147.401099 
z
" style="fill:#1f77b4;"/>
   </g>
   <g id="patch_217">
    <path clip-path="url(#p42baa3d085)" d="M 326.793349 239.758125 
L 327.792752 239.758125 
L 327.792752 123.600409 
L 326.793349 123.600409 
z
" style="fill:#1f77b4;"/>
   </g>
   <g id="patch_218">
    <path clip-path="url(#p42baa3d085)" d="M 328.042603 239.758125 
L 329.042006 239.758125 
L 329.042006 99.929071 
L 328.042603 99.929071 
z
" style="fill:#1f77b4;"/>
   </g>
   <g id="patch_219">
    <path clip-path="url(#p42baa3d085)" d="M 329.291856 239.758125 
L 330.291259 239.758125 
L 330.291259 116.744776 
L 329.291856 116.744776 
z
" style="fill:#1f77b4;"/>
   </g>
   <g id="patch_220">
    <path clip-path="url(#p42baa3d085)" d="M 330.54111 239.758125 
L 331.540513 239.758125 
L 331.540513 110.277197 
L 330.54111 110.277197 
z
" style="fill:#1f77b4;"/>
   </g>
   <g id="patch_221">
    <path clip-path="url(#p42baa3d085)" d="M 331.790364 239.758125 
L 332.789767 239.758125 
L 332.789767 138.346489 
L 331.790364 138.346489 
z
" style="fill:#1f77b4;"/>
   </g>
   <g id="patch_222">
    <path clip-path="url(#p42baa3d085)" d="M 333.039618 239.758125 
L 334.039021 239.758125 
L 334.039021 108.466275 
L 333.039618 108.466275 
z
" style="fill:#1f77b4;"/>
   </g>
   <g id="patch_223">
    <path clip-path="url(#p42baa3d085)" d="M 334.288871 239.758125 
L 335.288274 239.758125 
L 335.288274 121.660136 
L 334.288871 121.660136 
z
" style="fill:#1f77b4;"/>
   </g>
   <g id="patch_224">
    <path clip-path="url(#p42baa3d085)" d="M 335.538125 239.758125 
L 336.537528 239.758125 
L 336.537528 93.461492 
L 335.538125 93.461492 
z
" style="fill:#1f77b4;"/>
   </g>
   <g id="patch_225">
    <path clip-path="url(#p42baa3d085)" d="M 336.787379 239.758125 
L 337.786782 239.758125 
L 337.786782 34.477173 
L 336.787379 34.477173 
z
" style="fill:#1f77b4;"/>
   </g>
   <g id="patch_226">
    <path clip-path="url(#p42baa3d085)" d="M 338.036632 239.758125 
L 339.036035 239.758125 
L 339.036035 94.10825 
L 338.036632 94.10825 
z
" style="fill:#1f77b4;"/>
   </g>
   <g id="patch_227">
    <path clip-path="url(#p42baa3d085)" d="M 339.285886 239.758125 
L 340.285289 239.758125 
L 340.285289 67.591177 
L 339.285886 67.591177 
z
" style="fill:#1f77b4;"/>
   </g>
   <g id="patch_228">
    <path clip-path="url(#p42baa3d085)" d="M 340.53514 239.758125 
L 341.534543 239.758125 
L 341.534543 88.158077 
L 340.53514 88.158077 
z
" style="fill:#1f77b4;"/>
   </g>
   <g id="patch_229">
    <path clip-path="url(#p42baa3d085)" d="M 341.784394 239.758125 
L 342.783797 239.758125 
L 342.783797 109.889142 
L 341.784394 109.889142 
z
" style="fill:#1f77b4;"/>
   </g>
   <g id="patch_230">
    <path clip-path="url(#p42baa3d085)" d="M 343.033647 239.758125 
L 344.03305 239.758125 
L 344.03305 124.247167 
L 343.033647 124.247167 
z
" style="fill:#1f77b4;"/>
   </g>
   <g id="patch_231">
    <path clip-path="url(#p42baa3d085)" d="M 344.282901 239.758125 
L 345.282304 239.758125 
L 345.282304 84.148179 
L 344.282901 84.148179 
z
" style="fill:#1f77b4;"/>
   </g>
   <g id="patch_232">
    <path clip-path="url(#p42baa3d085)" d="M 345.532155 239.758125 
L 346.531558 239.758125 
L 346.531558 83.501421 
L 345.532155 83.501421 
z
" style="fill:#1f77b4;"/>
   </g>
   <g id="patch_233">
    <path clip-path="url(#p42baa3d085)" d="M 346.781409 239.758125 
L 347.780812 239.758125 
L 347.780812 49.352604 
L 346.781409 49.352604 
z
" style="fill:#1f77b4;"/>
   </g>
   <g id="patch_234">
    <path clip-path="url(#p42baa3d085)" d="M 348.030662 239.758125 
L 349.030065 239.758125 
L 349.030065 48.059089 
L 348.030662 48.059089 
z
" style="fill:#1f77b4;"/>
   </g>
   <g id="patch_235">
    <path clip-path="url(#p42baa3d085)" d="M 349.279916 239.758125 
L 350.279319 239.758125 
L 350.279319 114.287096 
L 349.279916 114.287096 
z
" style="fill:#1f77b4;"/>
   </g>
   <g id="patch_236">
    <path clip-path="url(#p42baa3d085)" d="M 350.52917 239.758125 
L 351.528573 239.758125 
L 351.528573 102.257399 
L 350.52917 102.257399 
z
" style="fill:#1f77b4;"/>
   </g>
   <g id="patch_237">
    <path clip-path="url(#p42baa3d085)" d="M 351.778424 239.758125 
L 352.777826 239.758125 
L 352.777826 146.107584 
L 351.778424 146.107584 
z
" style="fill:#1f77b4;"/>
   </g>
   <g id="patch_238">
    <path clip-path="url(#p42baa3d085)" d="M 353.027677 239.758125 
L 354.02708 239.758125 
L 354.02708 24.129047 
L 353.027677 24.129047 
z
" style="fill:#1f77b4;"/>
   </g>
   <g id="patch_239">
    <path clip-path="url(#p42baa3d085)" d="M 354.276931 239.758125 
L 355.276334 239.758125 
L 355.276334 68.367286 
L 354.276931 68.367286 
z
" style="fill:#1f77b4;"/>
   </g>
   <g id="patch_240">
    <path clip-path="url(#p42baa3d085)" d="M 355.526185 239.758125 
L 356.525588 239.758125 
L 356.525588 22.318125 
L 355.526185 22.318125 
z
" style="fill:#1f77b4;"/>
   </g>
   <g id="patch_241">
    <path clip-path="url(#p42baa3d085)" d="M 356.775438 239.758125 
L 357.774841 239.758125 
L 357.774841 101.093235 
L 356.775438 101.093235 
z
" style="fill:#1f77b4;"/>
   </g>
   <g id="patch_242">
    <path clip-path="url(#p42baa3d085)" d="M 358.024692 239.758125 
L 359.024095 239.758125 
L 359.024095 62.158411 
L 358.024692 62.158411 
z
" style="fill:#1f77b4;"/>
   </g>
   <g id="patch_243">
    <path clip-path="url(#p42baa3d085)" d="M 359.273946 239.758125 
L 360.273349 239.758125 
L 360.273349 137.311676 
L 359.273946 137.311676 
z
" style="fill:#1f77b4;"/>
   </g>
   <g id="patch_244">
    <path clip-path="url(#p42baa3d085)" d="M 360.5232 239.758125 
L 361.522603 239.758125 
L 361.522603 137.958434 
L 360.5232 137.958434 
z
" style="fill:#1f77b4;"/>
   </g>
   <g id="patch_245">
    <path clip-path="url(#p42baa3d085)" d="M 361.772453 239.758125 
L 362.771856 239.758125 
L 362.771856 54.397316 
L 361.772453 54.397316 
z
" style="fill:#1f77b4;"/>
   </g>
   <g id="patch_246">
    <path clip-path="url(#p42baa3d085)" d="M 363.021707 239.758125 
L 364.02111 239.758125 
L 364.02111 82.466608 
L 363.021707 82.466608 
z
" style="fill:#1f77b4;"/>
   </g>
   <g id="patch_247">
    <path clip-path="url(#p42baa3d085)" d="M 364.270961 239.758125 
L 365.270364 239.758125 
L 365.270364 100.187774 
L 364.270961 100.187774 
z
" style="fill:#1f77b4;"/>
   </g>
   <g id="patch_248">
    <path clip-path="url(#p42baa3d085)" d="M 365.520215 239.758125 
L 366.519618 239.758125 
L 366.519618 119.461159 
L 365.520215 119.461159 
z
" style="fill:#1f77b4;"/>
   </g>
   <g id="patch_249">
    <path clip-path="url(#p42baa3d085)" d="M 366.769468 239.758125 
L 367.768871 239.758125 
L 367.768871 130.973449 
L 366.769468 130.973449 
z
" style="fill:#1f77b4;"/>
   </g>
   <g id="patch_250">
    <path clip-path="url(#p42baa3d085)" d="M 368.018722 239.758125 
L 369.018125 239.758125 
L 369.018125 182.455377 
L 368.018722 182.455377 
z
" style="fill:#1f77b4;"/>
   </g>
   <g id="patch_251">
    <path clip-path="url(#p42baa3d085)" d="M 369.267976 239.758125 
L 370.267379 239.758125 
L 370.267379 91.65057 
L 369.267976 91.65057 
z
" style="fill:#1f77b4;"/>
   </g>
   <g id="patch_252">
    <path clip-path="url(#p42baa3d085)" d="M 370.517229 239.758125 
L 371.516632 239.758125 
L 371.516632 85.829749 
L 370.517229 85.829749 
z
" style="fill:#1f77b4;"/>
   </g>
   <g id="patch_253">
    <path clip-path="url(#p42baa3d085)" d="M 371.766483 239.758125 
L 372.765886 239.758125 
L 372.765886 96.695281 
L 371.766483 96.695281 
z
" style="fill:#1f77b4;"/>
   </g>
   <g id="patch_254">
    <path clip-path="url(#p42baa3d085)" d="M 373.015737 239.758125 
L 374.01514 239.758125 
L 374.01514 108.207572 
L 373.015737 108.207572 
z
" style="fill:#1f77b4;"/>
   </g>
   <g id="patch_255">
    <path clip-path="url(#p42baa3d085)" d="M 374.264991 239.758125 
L 375.264394 239.758125 
L 375.264394 118.038292 
L 374.264991 118.038292 
z
" style="fill:#1f77b4;"/>
   </g>
   <g id="patch_256">
    <path clip-path="url(#p42baa3d085)" d="M 375.514244 239.758125 
L 376.513647 239.758125 
L 376.513647 183.231486 
L 375.514244 183.231486 
z
" style="fill:#1f77b4;"/>
   </g>
   <g id="patch_257">
    <path clip-path="url(#p42baa3d085)" d="M 376.763498 239.758125 
L 377.762901 239.758125 
L 377.762901 195.519886 
L 376.763498 195.519886 
z
" style="fill:#1f77b4;"/>
   </g>
   <g id="patch_258">
    <path clip-path="url(#p42baa3d085)" d="M 378.012752 239.758125 
L 379.012155 239.758125 
L 379.012155 160.724312 
L 378.012752 160.724312 
z
" style="fill:#1f77b4;"/>
   </g>
   <g id="patch_259">
    <path clip-path="url(#p42baa3d085)" d="M 379.262006 239.758125 
L 380.261409 239.758125 
L 380.261409 173.918173 
L 379.262006 173.918173 
z
" style="fill:#1f77b4;"/>
   </g>
   <g id="patch_260">
    <path clip-path="url(#p42baa3d085)" d="M 380.511259 239.758125 
L 381.510662 239.758125 
L 381.510662 168.226703 
L 380.511259 168.226703 
z
" style="fill:#1f77b4;"/>
   </g>
   <g id="patch_261">
    <path clip-path="url(#p42baa3d085)" d="M 381.760513 239.758125 
L 382.759916 239.758125 
L 382.759916 170.943086 
L 381.760513 170.943086 
z
" style="fill:#1f77b4;"/>
   </g>
   <g id="patch_262">
    <path clip-path="url(#p42baa3d085)" d="M 383.009767 239.758125 
L 384.00917 239.758125 
L 384.00917 103.93897 
L 383.009767 103.93897 
z
" style="fill:#1f77b4;"/>
   </g>
   <g id="patch_263">
    <path clip-path="url(#p42baa3d085)" d="M 384.259021 239.758125 
L 385.258424 239.758125 
L 385.258424 194.355722 
L 384.259021 194.355722 
z
" style="fill:#1f77b4;"/>
   </g>
   <g id="patch_264">
    <path clip-path="url(#p42baa3d085)" d="M 385.508274 239.758125 
L 386.507677 239.758125 
L 386.507677 207.032176 
L 385.508274 207.032176 
z
" style="fill:#1f77b4;"/>
   </g>
   <g id="patch_265">
    <path clip-path="url(#p42baa3d085)" d="M 386.757528 239.758125 
L 387.756931 239.758125 
L 387.756931 166.674484 
L 386.757528 166.674484 
z
" style="fill:#1f77b4;"/>
   </g>
   <g id="patch_266">
    <path clip-path="url(#p42baa3d085)" d="M 388.006782 239.758125 
L 389.006185 239.758125 
L 389.006185 159.948202 
L 388.006782 159.948202 
z
" style="fill:#1f77b4;"/>
   </g>
   <g id="patch_267">
    <path clip-path="url(#p42baa3d085)" d="M 389.256035 239.758125 
L 390.255438 239.758125 
L 390.255438 160.983015 
L 389.256035 160.983015 
z
" style="fill:#1f77b4;"/>
   </g>
   <g id="patch_268">
    <path clip-path="url(#p42baa3d085)" d="M 390.505289 239.758125 
L 391.504692 239.758125 
L 391.504692 169.261516 
L 390.505289 169.261516 
z
" style="fill:#1f77b4;"/>
   </g>
   <g id="patch_269">
    <path clip-path="url(#p42baa3d085)" d="M 391.754543 239.758125 
L 392.753946 239.758125 
L 392.753946 172.624657 
L 391.754543 172.624657 
z
" style="fill:#1f77b4;"/>
   </g>
   <g id="patch_270">
    <path clip-path="url(#p42baa3d085)" d="M 393.003797 239.758125 
L 394.0032 239.758125 
L 394.0032 202.634223 
L 393.003797 202.634223 
z
" style="fill:#1f77b4;"/>
   </g>
   <g id="matplotlib.axis_1">
    <g id="xtick_1">
     <g id="line2d_1">
      <defs>
       <path d="M 0 0 
L 0 3.5 
" id="me4116ee1ba" style="stroke:#000000;stroke-width:0.8;"/>
      </defs>
      <g>
       <use style="stroke:#000000;stroke-width:0.8;" x="81.190065" xlink:href="#me4116ee1ba" y="239.758125"/>
      </g>
     </g>
     <g id="text_1">
      <!-- 2020-04 -->
      <g transform="translate(83.94944 288.540937)rotate(-90)scale(0.1 -0.1)">
       <defs>
        <path d="M 19.1875 8.296875 
L 53.609375 8.296875 
L 53.609375 0 
L 7.328125 0 
L 7.328125 8.296875 
Q 12.9375 14.109375 22.625 23.890625 
Q 32.328125 33.6875 34.8125 36.53125 
Q 39.546875 41.84375 41.421875 45.53125 
Q 43.3125 49.21875 43.3125 52.78125 
Q 43.3125 58.59375 39.234375 62.25 
Q 35.15625 65.921875 28.609375 65.921875 
Q 23.96875 65.921875 18.8125 64.3125 
Q 13.671875 62.703125 7.8125 59.421875 
L 7.8125 69.390625 
Q 13.765625 71.78125 18.9375 73 
Q 24.125 74.21875 28.421875 74.21875 
Q 39.75 74.21875 46.484375 68.546875 
Q 53.21875 62.890625 53.21875 53.421875 
Q 53.21875 48.921875 51.53125 44.890625 
Q 49.859375 40.875 45.40625 35.40625 
Q 44.1875 33.984375 37.640625 27.21875 
Q 31.109375 20.453125 19.1875 8.296875 
z
" id="DejaVuSans-50"/>
        <path d="M 31.78125 66.40625 
Q 24.171875 66.40625 20.328125 58.90625 
Q 16.5 51.421875 16.5 36.375 
Q 16.5 21.390625 20.328125 13.890625 
Q 24.171875 6.390625 31.78125 6.390625 
Q 39.453125 6.390625 43.28125 13.890625 
Q 47.125 21.390625 47.125 36.375 
Q 47.125 51.421875 43.28125 58.90625 
Q 39.453125 66.40625 31.78125 66.40625 
z
M 31.78125 74.21875 
Q 44.046875 74.21875 50.515625 64.515625 
Q 56.984375 54.828125 56.984375 36.375 
Q 56.984375 17.96875 50.515625 8.265625 
Q 44.046875 -1.421875 31.78125 -1.421875 
Q 19.53125 -1.421875 13.0625 8.265625 
Q 6.59375 17.96875 6.59375 36.375 
Q 6.59375 54.828125 13.0625 64.515625 
Q 19.53125 74.21875 31.78125 74.21875 
z
" id="DejaVuSans-48"/>
        <path d="M 4.890625 31.390625 
L 31.203125 31.390625 
L 31.203125 23.390625 
L 4.890625 23.390625 
z
" id="DejaVuSans-45"/>
        <path d="M 37.796875 64.3125 
L 12.890625 25.390625 
L 37.796875 25.390625 
z
M 35.203125 72.90625 
L 47.609375 72.90625 
L 47.609375 25.390625 
L 58.015625 25.390625 
L 58.015625 17.1875 
L 47.609375 17.1875 
L 47.609375 0 
L 37.796875 0 
L 37.796875 17.1875 
L 4.890625 17.1875 
L 4.890625 26.703125 
z
" id="DejaVuSans-52"/>
       </defs>
       <use xlink:href="#DejaVuSans-50"/>
       <use x="63.623047" xlink:href="#DejaVuSans-48"/>
       <use x="127.246094" xlink:href="#DejaVuSans-50"/>
       <use x="190.869141" xlink:href="#DejaVuSans-48"/>
       <use x="254.492188" xlink:href="#DejaVuSans-45"/>
       <use x="290.576172" xlink:href="#DejaVuSans-48"/>
       <use x="354.199219" xlink:href="#DejaVuSans-52"/>
      </g>
     </g>
    </g>
    <g id="xtick_2">
     <g id="line2d_2">
      <g>
       <use style="stroke:#000000;stroke-width:0.8;" x="118.667677" xlink:href="#me4116ee1ba" y="239.758125"/>
      </g>
     </g>
     <g id="text_2">
      <!-- 2020-05 -->
      <g transform="translate(121.427052 288.540937)rotate(-90)scale(0.1 -0.1)">
       <defs>
        <path d="M 10.796875 72.90625 
L 49.515625 72.90625 
L 49.515625 64.59375 
L 19.828125 64.59375 
L 19.828125 46.734375 
Q 21.96875 47.46875 24.109375 47.828125 
Q 26.265625 48.1875 28.421875 48.1875 
Q 40.625 48.1875 47.75 41.5 
Q 54.890625 34.8125 54.890625 23.390625 
Q 54.890625 11.625 47.5625 5.09375 
Q 40.234375 -1.421875 26.90625 -1.421875 
Q 22.3125 -1.421875 17.546875 -0.640625 
Q 12.796875 0.140625 7.71875 1.703125 
L 7.71875 11.625 
Q 12.109375 9.234375 16.796875 8.0625 
Q 21.484375 6.890625 26.703125 6.890625 
Q 35.15625 6.890625 40.078125 11.328125 
Q 45.015625 15.765625 45.015625 23.390625 
Q 45.015625 31 40.078125 35.4375 
Q 35.15625 39.890625 26.703125 39.890625 
Q 22.75 39.890625 18.8125 39.015625 
Q 14.890625 38.140625 10.796875 36.28125 
z
" id="DejaVuSans-53"/>
       </defs>
       <use xlink:href="#DejaVuSans-50"/>
       <use x="63.623047" xlink:href="#DejaVuSans-48"/>
       <use x="127.246094" xlink:href="#DejaVuSans-50"/>
       <use x="190.869141" xlink:href="#DejaVuSans-48"/>
       <use x="254.492188" xlink:href="#DejaVuSans-45"/>
       <use x="290.576172" xlink:href="#DejaVuSans-48"/>
       <use x="354.199219" xlink:href="#DejaVuSans-53"/>
      </g>
     </g>
    </g>
    <g id="xtick_3">
     <g id="line2d_3">
      <g>
       <use style="stroke:#000000;stroke-width:0.8;" x="157.394543" xlink:href="#me4116ee1ba" y="239.758125"/>
      </g>
     </g>
     <g id="text_3">
      <!-- 2020-06 -->
      <g transform="translate(160.153918 288.540937)rotate(-90)scale(0.1 -0.1)">
       <defs>
        <path d="M 33.015625 40.375 
Q 26.375 40.375 22.484375 35.828125 
Q 18.609375 31.296875 18.609375 23.390625 
Q 18.609375 15.53125 22.484375 10.953125 
Q 26.375 6.390625 33.015625 6.390625 
Q 39.65625 6.390625 43.53125 10.953125 
Q 47.40625 15.53125 47.40625 23.390625 
Q 47.40625 31.296875 43.53125 35.828125 
Q 39.65625 40.375 33.015625 40.375 
z
M 52.59375 71.296875 
L 52.59375 62.3125 
Q 48.875 64.0625 45.09375 64.984375 
Q 41.3125 65.921875 37.59375 65.921875 
Q 27.828125 65.921875 22.671875 59.328125 
Q 17.53125 52.734375 16.796875 39.40625 
Q 19.671875 43.65625 24.015625 45.921875 
Q 28.375 48.1875 33.59375 48.1875 
Q 44.578125 48.1875 50.953125 41.515625 
Q 57.328125 34.859375 57.328125 23.390625 
Q 57.328125 12.15625 50.6875 5.359375 
Q 44.046875 -1.421875 33.015625 -1.421875 
Q 20.359375 -1.421875 13.671875 8.265625 
Q 6.984375 17.96875 6.984375 36.375 
Q 6.984375 53.65625 15.1875 63.9375 
Q 23.390625 74.21875 37.203125 74.21875 
Q 40.921875 74.21875 44.703125 73.484375 
Q 48.484375 72.75 52.59375 71.296875 
z
" id="DejaVuSans-54"/>
       </defs>
       <use xlink:href="#DejaVuSans-50"/>
       <use x="63.623047" xlink:href="#DejaVuSans-48"/>
       <use x="127.246094" xlink:href="#DejaVuSans-50"/>
       <use x="190.869141" xlink:href="#DejaVuSans-48"/>
       <use x="254.492188" xlink:href="#DejaVuSans-45"/>
       <use x="290.576172" xlink:href="#DejaVuSans-48"/>
       <use x="354.199219" xlink:href="#DejaVuSans-54"/>
      </g>
     </g>
    </g>
    <g id="xtick_4">
     <g id="line2d_4">
      <g>
       <use style="stroke:#000000;stroke-width:0.8;" x="194.872155" xlink:href="#me4116ee1ba" y="239.758125"/>
      </g>
     </g>
     <g id="text_4">
      <!-- 2020-07 -->
      <g transform="translate(197.63153 288.540937)rotate(-90)scale(0.1 -0.1)">
       <defs>
        <path d="M 8.203125 72.90625 
L 55.078125 72.90625 
L 55.078125 68.703125 
L 28.609375 0 
L 18.3125 0 
L 43.21875 64.59375 
L 8.203125 64.59375 
z
" id="DejaVuSans-55"/>
       </defs>
       <use xlink:href="#DejaVuSans-50"/>
       <use x="63.623047" xlink:href="#DejaVuSans-48"/>
       <use x="127.246094" xlink:href="#DejaVuSans-50"/>
       <use x="190.869141" xlink:href="#DejaVuSans-48"/>
       <use x="254.492188" xlink:href="#DejaVuSans-45"/>
       <use x="290.576172" xlink:href="#DejaVuSans-48"/>
       <use x="354.199219" xlink:href="#DejaVuSans-55"/>
      </g>
     </g>
    </g>
    <g id="xtick_5">
     <g id="line2d_5">
      <g>
       <use style="stroke:#000000;stroke-width:0.8;" x="233.599021" xlink:href="#me4116ee1ba" y="239.758125"/>
      </g>
     </g>
     <g id="text_5">
      <!-- 2020-08 -->
      <g transform="translate(236.358396 288.540937)rotate(-90)scale(0.1 -0.1)">
       <defs>
        <path d="M 31.78125 34.625 
Q 24.75 34.625 20.71875 30.859375 
Q 16.703125 27.09375 16.703125 20.515625 
Q 16.703125 13.921875 20.71875 10.15625 
Q 24.75 6.390625 31.78125 6.390625 
Q 38.8125 6.390625 42.859375 10.171875 
Q 46.921875 13.96875 46.921875 20.515625 
Q 46.921875 27.09375 42.890625 30.859375 
Q 38.875 34.625 31.78125 34.625 
z
M 21.921875 38.8125 
Q 15.578125 40.375 12.03125 44.71875 
Q 8.5 49.078125 8.5 55.328125 
Q 8.5 64.0625 14.71875 69.140625 
Q 20.953125 74.21875 31.78125 74.21875 
Q 42.671875 74.21875 48.875 69.140625 
Q 55.078125 64.0625 55.078125 55.328125 
Q 55.078125 49.078125 51.53125 44.71875 
Q 48 40.375 41.703125 38.8125 
Q 48.828125 37.15625 52.796875 32.3125 
Q 56.78125 27.484375 56.78125 20.515625 
Q 56.78125 9.90625 50.3125 4.234375 
Q 43.84375 -1.421875 31.78125 -1.421875 
Q 19.734375 -1.421875 13.25 4.234375 
Q 6.78125 9.90625 6.78125 20.515625 
Q 6.78125 27.484375 10.78125 32.3125 
Q 14.796875 37.15625 21.921875 38.8125 
z
M 18.3125 54.390625 
Q 18.3125 48.734375 21.84375 45.5625 
Q 25.390625 42.390625 31.78125 42.390625 
Q 38.140625 42.390625 41.71875 45.5625 
Q 45.3125 48.734375 45.3125 54.390625 
Q 45.3125 60.0625 41.71875 63.234375 
Q 38.140625 66.40625 31.78125 66.40625 
Q 25.390625 66.40625 21.84375 63.234375 
Q 18.3125 60.0625 18.3125 54.390625 
z
" id="DejaVuSans-56"/>
       </defs>
       <use xlink:href="#DejaVuSans-50"/>
       <use x="63.623047" xlink:href="#DejaVuSans-48"/>
       <use x="127.246094" xlink:href="#DejaVuSans-50"/>
       <use x="190.869141" xlink:href="#DejaVuSans-48"/>
       <use x="254.492188" xlink:href="#DejaVuSans-45"/>
       <use x="290.576172" xlink:href="#DejaVuSans-48"/>
       <use x="354.199219" xlink:href="#DejaVuSans-56"/>
      </g>
     </g>
    </g>
    <g id="xtick_6">
     <g id="line2d_6">
      <g>
       <use style="stroke:#000000;stroke-width:0.8;" x="272.325886" xlink:href="#me4116ee1ba" y="239.758125"/>
      </g>
     </g>
     <g id="text_6">
      <!-- 2020-09 -->
      <g transform="translate(275.085261 288.540937)rotate(-90)scale(0.1 -0.1)">
       <defs>
        <path d="M 10.984375 1.515625 
L 10.984375 10.5 
Q 14.703125 8.734375 18.5 7.8125 
Q 22.3125 6.890625 25.984375 6.890625 
Q 35.75 6.890625 40.890625 13.453125 
Q 46.046875 20.015625 46.78125 33.40625 
Q 43.953125 29.203125 39.59375 26.953125 
Q 35.25 24.703125 29.984375 24.703125 
Q 19.046875 24.703125 12.671875 31.3125 
Q 6.296875 37.9375 6.296875 49.421875 
Q 6.296875 60.640625 12.9375 67.421875 
Q 19.578125 74.21875 30.609375 74.21875 
Q 43.265625 74.21875 49.921875 64.515625 
Q 56.59375 54.828125 56.59375 36.375 
Q 56.59375 19.140625 48.40625 8.859375 
Q 40.234375 -1.421875 26.421875 -1.421875 
Q 22.703125 -1.421875 18.890625 -0.6875 
Q 15.09375 0.046875 10.984375 1.515625 
z
M 30.609375 32.421875 
Q 37.25 32.421875 41.125 36.953125 
Q 45.015625 41.5 45.015625 49.421875 
Q 45.015625 57.28125 41.125 61.84375 
Q 37.25 66.40625 30.609375 66.40625 
Q 23.96875 66.40625 20.09375 61.84375 
Q 16.21875 57.28125 16.21875 49.421875 
Q 16.21875 41.5 20.09375 36.953125 
Q 23.96875 32.421875 30.609375 32.421875 
z
" id="DejaVuSans-57"/>
       </defs>
       <use xlink:href="#DejaVuSans-50"/>
       <use x="63.623047" xlink:href="#DejaVuSans-48"/>
       <use x="127.246094" xlink:href="#DejaVuSans-50"/>
       <use x="190.869141" xlink:href="#DejaVuSans-48"/>
       <use x="254.492188" xlink:href="#DejaVuSans-45"/>
       <use x="290.576172" xlink:href="#DejaVuSans-48"/>
       <use x="354.199219" xlink:href="#DejaVuSans-57"/>
      </g>
     </g>
    </g>
    <g id="xtick_7">
     <g id="line2d_7">
      <g>
       <use style="stroke:#000000;stroke-width:0.8;" x="309.803498" xlink:href="#me4116ee1ba" y="239.758125"/>
      </g>
     </g>
     <g id="text_7">
      <!-- 2020-10 -->
      <g transform="translate(312.562873 288.540937)rotate(-90)scale(0.1 -0.1)">
       <defs>
        <path d="M 12.40625 8.296875 
L 28.515625 8.296875 
L 28.515625 63.921875 
L 10.984375 60.40625 
L 10.984375 69.390625 
L 28.421875 72.90625 
L 38.28125 72.90625 
L 38.28125 8.296875 
L 54.390625 8.296875 
L 54.390625 0 
L 12.40625 0 
z
" id="DejaVuSans-49"/>
       </defs>
       <use xlink:href="#DejaVuSans-50"/>
       <use x="63.623047" xlink:href="#DejaVuSans-48"/>
       <use x="127.246094" xlink:href="#DejaVuSans-50"/>
       <use x="190.869141" xlink:href="#DejaVuSans-48"/>
       <use x="254.492188" xlink:href="#DejaVuSans-45"/>
       <use x="290.576172" xlink:href="#DejaVuSans-49"/>
       <use x="354.199219" xlink:href="#DejaVuSans-48"/>
      </g>
     </g>
    </g>
    <g id="xtick_8">
     <g id="line2d_8">
      <g>
       <use style="stroke:#000000;stroke-width:0.8;" x="348.530364" xlink:href="#me4116ee1ba" y="239.758125"/>
      </g>
     </g>
     <g id="text_8">
      <!-- 2020-11 -->
      <g transform="translate(351.289739 288.540937)rotate(-90)scale(0.1 -0.1)">
       <use xlink:href="#DejaVuSans-50"/>
       <use x="63.623047" xlink:href="#DejaVuSans-48"/>
       <use x="127.246094" xlink:href="#DejaVuSans-50"/>
       <use x="190.869141" xlink:href="#DejaVuSans-48"/>
       <use x="254.492188" xlink:href="#DejaVuSans-45"/>
       <use x="290.576172" xlink:href="#DejaVuSans-49"/>
       <use x="354.199219" xlink:href="#DejaVuSans-49"/>
      </g>
     </g>
    </g>
    <g id="xtick_9">
     <g id="line2d_9">
      <g>
       <use style="stroke:#000000;stroke-width:0.8;" x="386.007976" xlink:href="#me4116ee1ba" y="239.758125"/>
      </g>
     </g>
     <g id="text_9">
      <!-- 2020-12 -->
      <g transform="translate(388.767351 288.540937)rotate(-90)scale(0.1 -0.1)">
       <use xlink:href="#DejaVuSans-50"/>
       <use x="63.623047" xlink:href="#DejaVuSans-48"/>
       <use x="127.246094" xlink:href="#DejaVuSans-50"/>
       <use x="190.869141" xlink:href="#DejaVuSans-48"/>
       <use x="254.492188" xlink:href="#DejaVuSans-45"/>
       <use x="290.576172" xlink:href="#DejaVuSans-49"/>
       <use x="354.199219" xlink:href="#DejaVuSans-50"/>
      </g>
     </g>
    </g>
    <g id="text_10">
     <!-- date -->
     <g transform="translate(215.453125 306.139375)scale(0.1 -0.1)">
      <defs>
       <path d="M 45.40625 46.390625 
L 45.40625 75.984375 
L 54.390625 75.984375 
L 54.390625 0 
L 45.40625 0 
L 45.40625 8.203125 
Q 42.578125 3.328125 38.25 0.953125 
Q 33.9375 -1.421875 27.875 -1.421875 
Q 17.96875 -1.421875 11.734375 6.484375 
Q 5.515625 14.40625 5.515625 27.296875 
Q 5.515625 40.1875 11.734375 48.09375 
Q 17.96875 56 27.875 56 
Q 33.9375 56 38.25 53.625 
Q 42.578125 51.265625 45.40625 46.390625 
z
M 14.796875 27.296875 
Q 14.796875 17.390625 18.875 11.75 
Q 22.953125 6.109375 30.078125 6.109375 
Q 37.203125 6.109375 41.296875 11.75 
Q 45.40625 17.390625 45.40625 27.296875 
Q 45.40625 37.203125 41.296875 42.84375 
Q 37.203125 48.484375 30.078125 48.484375 
Q 22.953125 48.484375 18.875 42.84375 
Q 14.796875 37.203125 14.796875 27.296875 
z
" id="DejaVuSans-100"/>
       <path d="M 34.28125 27.484375 
Q 23.390625 27.484375 19.1875 25 
Q 14.984375 22.515625 14.984375 16.5 
Q 14.984375 11.71875 18.140625 8.90625 
Q 21.296875 6.109375 26.703125 6.109375 
Q 34.1875 6.109375 38.703125 11.40625 
Q 43.21875 16.703125 43.21875 25.484375 
L 43.21875 27.484375 
z
M 52.203125 31.203125 
L 52.203125 0 
L 43.21875 0 
L 43.21875 8.296875 
Q 40.140625 3.328125 35.546875 0.953125 
Q 30.953125 -1.421875 24.3125 -1.421875 
Q 15.921875 -1.421875 10.953125 3.296875 
Q 6 8.015625 6 15.921875 
Q 6 25.140625 12.171875 29.828125 
Q 18.359375 34.515625 30.609375 34.515625 
L 43.21875 34.515625 
L 43.21875 35.40625 
Q 43.21875 41.609375 39.140625 45 
Q 35.0625 48.390625 27.6875 48.390625 
Q 23 48.390625 18.546875 47.265625 
Q 14.109375 46.140625 10.015625 43.890625 
L 10.015625 52.203125 
Q 14.9375 54.109375 19.578125 55.046875 
Q 24.21875 56 28.609375 56 
Q 40.484375 56 46.34375 49.84375 
Q 52.203125 43.703125 52.203125 31.203125 
z
" id="DejaVuSans-97"/>
       <path d="M 18.3125 70.21875 
L 18.3125 54.6875 
L 36.8125 54.6875 
L 36.8125 47.703125 
L 18.3125 47.703125 
L 18.3125 18.015625 
Q 18.3125 11.328125 20.140625 9.421875 
Q 21.96875 7.515625 27.59375 7.515625 
L 36.8125 7.515625 
L 36.8125 0 
L 27.59375 0 
Q 17.1875 0 13.234375 3.875 
Q 9.28125 7.765625 9.28125 18.015625 
L 9.28125 47.703125 
L 2.6875 47.703125 
L 2.6875 54.6875 
L 9.28125 54.6875 
L 9.28125 70.21875 
z
" id="DejaVuSans-116"/>
       <path d="M 56.203125 29.59375 
L 56.203125 25.203125 
L 14.890625 25.203125 
Q 15.484375 15.921875 20.484375 11.0625 
Q 25.484375 6.203125 34.421875 6.203125 
Q 39.59375 6.203125 44.453125 7.46875 
Q 49.3125 8.734375 54.109375 11.28125 
L 54.109375 2.78125 
Q 49.265625 0.734375 44.1875 -0.34375 
Q 39.109375 -1.421875 33.890625 -1.421875 
Q 20.796875 -1.421875 13.15625 6.1875 
Q 5.515625 13.8125 5.515625 26.8125 
Q 5.515625 40.234375 12.765625 48.109375 
Q 20.015625 56 32.328125 56 
Q 43.359375 56 49.78125 48.890625 
Q 56.203125 41.796875 56.203125 29.59375 
z
M 47.21875 32.234375 
Q 47.125 39.59375 43.09375 43.984375 
Q 39.0625 48.390625 32.421875 48.390625 
Q 24.90625 48.390625 20.390625 44.140625 
Q 15.875 39.890625 15.1875 32.171875 
z
" id="DejaVuSans-101"/>
      </defs>
      <use xlink:href="#DejaVuSans-100"/>
      <use x="63.476562" xlink:href="#DejaVuSans-97"/>
      <use x="124.755859" xlink:href="#DejaVuSans-116"/>
      <use x="163.964844" xlink:href="#DejaVuSans-101"/>
     </g>
    </g>
   </g>
   <g id="matplotlib.axis_2">
    <g id="ytick_1">
     <g id="line2d_10">
      <defs>
       <path d="M 0 0 
L -3.5 0 
" id="me6ccdf3dc1" style="stroke:#000000;stroke-width:0.8;"/>
      </defs>
      <g>
       <use style="stroke:#000000;stroke-width:0.8;" x="59.328125" xlink:href="#me6ccdf3dc1" y="239.758125"/>
      </g>
     </g>
     <g id="text_11">
      <!-- 0 -->
      <g transform="translate(45.965625 243.557344)scale(0.1 -0.1)">
       <use xlink:href="#DejaVuSans-48"/>
      </g>
     </g>
    </g>
    <g id="ytick_2">
     <g id="line2d_11">
      <g>
       <use style="stroke:#000000;stroke-width:0.8;" x="59.328125" xlink:href="#me6ccdf3dc1" y="213.88781"/>
      </g>
     </g>
     <g id="text_12">
      <!-- 200 -->
      <g transform="translate(33.240625 217.687028)scale(0.1 -0.1)">
       <use xlink:href="#DejaVuSans-50"/>
       <use x="63.623047" xlink:href="#DejaVuSans-48"/>
       <use x="127.246094" xlink:href="#DejaVuSans-48"/>
      </g>
     </g>
    </g>
    <g id="ytick_3">
     <g id="line2d_12">
      <g>
       <use style="stroke:#000000;stroke-width:0.8;" x="59.328125" xlink:href="#me6ccdf3dc1" y="188.017494"/>
      </g>
     </g>
     <g id="text_13">
      <!-- 400 -->
      <g transform="translate(33.240625 191.816713)scale(0.1 -0.1)">
       <use xlink:href="#DejaVuSans-52"/>
       <use x="63.623047" xlink:href="#DejaVuSans-48"/>
       <use x="127.246094" xlink:href="#DejaVuSans-48"/>
      </g>
     </g>
    </g>
    <g id="ytick_4">
     <g id="line2d_13">
      <g>
       <use style="stroke:#000000;stroke-width:0.8;" x="59.328125" xlink:href="#me6ccdf3dc1" y="162.147179"/>
      </g>
     </g>
     <g id="text_14">
      <!-- 600 -->
      <g transform="translate(33.240625 165.946398)scale(0.1 -0.1)">
       <use xlink:href="#DejaVuSans-54"/>
       <use x="63.623047" xlink:href="#DejaVuSans-48"/>
       <use x="127.246094" xlink:href="#DejaVuSans-48"/>
      </g>
     </g>
    </g>
    <g id="ytick_5">
     <g id="line2d_14">
      <g>
       <use style="stroke:#000000;stroke-width:0.8;" x="59.328125" xlink:href="#me6ccdf3dc1" y="136.276864"/>
      </g>
     </g>
     <g id="text_15">
      <!-- 800 -->
      <g transform="translate(33.240625 140.076083)scale(0.1 -0.1)">
       <use xlink:href="#DejaVuSans-56"/>
       <use x="63.623047" xlink:href="#DejaVuSans-48"/>
       <use x="127.246094" xlink:href="#DejaVuSans-48"/>
      </g>
     </g>
    </g>
    <g id="ytick_6">
     <g id="line2d_15">
      <g>
       <use style="stroke:#000000;stroke-width:0.8;" x="59.328125" xlink:href="#me6ccdf3dc1" y="110.406549"/>
      </g>
     </g>
     <g id="text_16">
      <!-- 1000 -->
      <g transform="translate(26.878125 114.205767)scale(0.1 -0.1)">
       <use xlink:href="#DejaVuSans-49"/>
       <use x="63.623047" xlink:href="#DejaVuSans-48"/>
       <use x="127.246094" xlink:href="#DejaVuSans-48"/>
       <use x="190.869141" xlink:href="#DejaVuSans-48"/>
      </g>
     </g>
    </g>
    <g id="ytick_7">
     <g id="line2d_16">
      <g>
       <use style="stroke:#000000;stroke-width:0.8;" x="59.328125" xlink:href="#me6ccdf3dc1" y="84.536233"/>
      </g>
     </g>
     <g id="text_17">
      <!-- 1200 -->
      <g transform="translate(26.878125 88.335452)scale(0.1 -0.1)">
       <use xlink:href="#DejaVuSans-49"/>
       <use x="63.623047" xlink:href="#DejaVuSans-50"/>
       <use x="127.246094" xlink:href="#DejaVuSans-48"/>
       <use x="190.869141" xlink:href="#DejaVuSans-48"/>
      </g>
     </g>
    </g>
    <g id="ytick_8">
     <g id="line2d_17">
      <g>
       <use style="stroke:#000000;stroke-width:0.8;" x="59.328125" xlink:href="#me6ccdf3dc1" y="58.665918"/>
      </g>
     </g>
     <g id="text_18">
      <!-- 1400 -->
      <g transform="translate(26.878125 62.465137)scale(0.1 -0.1)">
       <use xlink:href="#DejaVuSans-49"/>
       <use x="63.623047" xlink:href="#DejaVuSans-52"/>
       <use x="127.246094" xlink:href="#DejaVuSans-48"/>
       <use x="190.869141" xlink:href="#DejaVuSans-48"/>
      </g>
     </g>
    </g>
    <g id="ytick_9">
     <g id="line2d_18">
      <g>
       <use style="stroke:#000000;stroke-width:0.8;" x="59.328125" xlink:href="#me6ccdf3dc1" y="32.795603"/>
      </g>
     </g>
     <g id="text_19">
      <!-- 1600 -->
      <g transform="translate(26.878125 36.594821)scale(0.1 -0.1)">
       <use xlink:href="#DejaVuSans-49"/>
       <use x="63.623047" xlink:href="#DejaVuSans-54"/>
       <use x="127.246094" xlink:href="#DejaVuSans-48"/>
       <use x="190.869141" xlink:href="#DejaVuSans-48"/>
      </g>
     </g>
    </g>
    <g id="text_20">
     <!-- number of tested persons daily -->
     <g transform="translate(14.798437 209.299844)rotate(-90)scale(0.1 -0.1)">
      <defs>
       <path d="M 54.890625 33.015625 
L 54.890625 0 
L 45.90625 0 
L 45.90625 32.71875 
Q 45.90625 40.484375 42.875 44.328125 
Q 39.84375 48.1875 33.796875 48.1875 
Q 26.515625 48.1875 22.3125 43.546875 
Q 18.109375 38.921875 18.109375 30.90625 
L 18.109375 0 
L 9.078125 0 
L 9.078125 54.6875 
L 18.109375 54.6875 
L 18.109375 46.1875 
Q 21.34375 51.125 25.703125 53.5625 
Q 30.078125 56 35.796875 56 
Q 45.21875 56 50.046875 50.171875 
Q 54.890625 44.34375 54.890625 33.015625 
z
" id="DejaVuSans-110"/>
       <path d="M 8.5 21.578125 
L 8.5 54.6875 
L 17.484375 54.6875 
L 17.484375 21.921875 
Q 17.484375 14.15625 20.5 10.265625 
Q 23.53125 6.390625 29.59375 6.390625 
Q 36.859375 6.390625 41.078125 11.03125 
Q 45.3125 15.671875 45.3125 23.6875 
L 45.3125 54.6875 
L 54.296875 54.6875 
L 54.296875 0 
L 45.3125 0 
L 45.3125 8.40625 
Q 42.046875 3.421875 37.71875 1 
Q 33.40625 -1.421875 27.6875 -1.421875 
Q 18.265625 -1.421875 13.375 4.4375 
Q 8.5 10.296875 8.5 21.578125 
z
M 31.109375 56 
z
" id="DejaVuSans-117"/>
       <path d="M 52 44.1875 
Q 55.375 50.25 60.0625 53.125 
Q 64.75 56 71.09375 56 
Q 79.640625 56 84.28125 50.015625 
Q 88.921875 44.046875 88.921875 33.015625 
L 88.921875 0 
L 79.890625 0 
L 79.890625 32.71875 
Q 79.890625 40.578125 77.09375 44.375 
Q 74.3125 48.1875 68.609375 48.1875 
Q 61.625 48.1875 57.5625 43.546875 
Q 53.515625 38.921875 53.515625 30.90625 
L 53.515625 0 
L 44.484375 0 
L 44.484375 32.71875 
Q 44.484375 40.625 41.703125 44.40625 
Q 38.921875 48.1875 33.109375 48.1875 
Q 26.21875 48.1875 22.15625 43.53125 
Q 18.109375 38.875 18.109375 30.90625 
L 18.109375 0 
L 9.078125 0 
L 9.078125 54.6875 
L 18.109375 54.6875 
L 18.109375 46.1875 
Q 21.1875 51.21875 25.484375 53.609375 
Q 29.78125 56 35.6875 56 
Q 41.65625 56 45.828125 52.96875 
Q 50 49.953125 52 44.1875 
z
" id="DejaVuSans-109"/>
       <path d="M 48.6875 27.296875 
Q 48.6875 37.203125 44.609375 42.84375 
Q 40.53125 48.484375 33.40625 48.484375 
Q 26.265625 48.484375 22.1875 42.84375 
Q 18.109375 37.203125 18.109375 27.296875 
Q 18.109375 17.390625 22.1875 11.75 
Q 26.265625 6.109375 33.40625 6.109375 
Q 40.53125 6.109375 44.609375 11.75 
Q 48.6875 17.390625 48.6875 27.296875 
z
M 18.109375 46.390625 
Q 20.953125 51.265625 25.265625 53.625 
Q 29.59375 56 35.59375 56 
Q 45.5625 56 51.78125 48.09375 
Q 58.015625 40.1875 58.015625 27.296875 
Q 58.015625 14.40625 51.78125 6.484375 
Q 45.5625 -1.421875 35.59375 -1.421875 
Q 29.59375 -1.421875 25.265625 0.953125 
Q 20.953125 3.328125 18.109375 8.203125 
L 18.109375 0 
L 9.078125 0 
L 9.078125 75.984375 
L 18.109375 75.984375 
z
" id="DejaVuSans-98"/>
       <path d="M 41.109375 46.296875 
Q 39.59375 47.171875 37.8125 47.578125 
Q 36.03125 48 33.890625 48 
Q 26.265625 48 22.1875 43.046875 
Q 18.109375 38.09375 18.109375 28.8125 
L 18.109375 0 
L 9.078125 0 
L 9.078125 54.6875 
L 18.109375 54.6875 
L 18.109375 46.1875 
Q 20.953125 51.171875 25.484375 53.578125 
Q 30.03125 56 36.53125 56 
Q 37.453125 56 38.578125 55.875 
Q 39.703125 55.765625 41.0625 55.515625 
z
" id="DejaVuSans-114"/>
       <path id="DejaVuSans-32"/>
       <path d="M 30.609375 48.390625 
Q 23.390625 48.390625 19.1875 42.75 
Q 14.984375 37.109375 14.984375 27.296875 
Q 14.984375 17.484375 19.15625 11.84375 
Q 23.34375 6.203125 30.609375 6.203125 
Q 37.796875 6.203125 41.984375 11.859375 
Q 46.1875 17.53125 46.1875 27.296875 
Q 46.1875 37.015625 41.984375 42.703125 
Q 37.796875 48.390625 30.609375 48.390625 
z
M 30.609375 56 
Q 42.328125 56 49.015625 48.375 
Q 55.71875 40.765625 55.71875 27.296875 
Q 55.71875 13.875 49.015625 6.21875 
Q 42.328125 -1.421875 30.609375 -1.421875 
Q 18.84375 -1.421875 12.171875 6.21875 
Q 5.515625 13.875 5.515625 27.296875 
Q 5.515625 40.765625 12.171875 48.375 
Q 18.84375 56 30.609375 56 
z
" id="DejaVuSans-111"/>
       <path d="M 37.109375 75.984375 
L 37.109375 68.5 
L 28.515625 68.5 
Q 23.6875 68.5 21.796875 66.546875 
Q 19.921875 64.59375 19.921875 59.515625 
L 19.921875 54.6875 
L 34.71875 54.6875 
L 34.71875 47.703125 
L 19.921875 47.703125 
L 19.921875 0 
L 10.890625 0 
L 10.890625 47.703125 
L 2.296875 47.703125 
L 2.296875 54.6875 
L 10.890625 54.6875 
L 10.890625 58.5 
Q 10.890625 67.625 15.140625 71.796875 
Q 19.390625 75.984375 28.609375 75.984375 
z
" id="DejaVuSans-102"/>
       <path d="M 44.28125 53.078125 
L 44.28125 44.578125 
Q 40.484375 46.53125 36.375 47.5 
Q 32.28125 48.484375 27.875 48.484375 
Q 21.1875 48.484375 17.84375 46.4375 
Q 14.5 44.390625 14.5 40.28125 
Q 14.5 37.15625 16.890625 35.375 
Q 19.28125 33.59375 26.515625 31.984375 
L 29.59375 31.296875 
Q 39.15625 29.25 43.1875 25.515625 
Q 47.21875 21.78125 47.21875 15.09375 
Q 47.21875 7.46875 41.1875 3.015625 
Q 35.15625 -1.421875 24.609375 -1.421875 
Q 20.21875 -1.421875 15.453125 -0.5625 
Q 10.6875 0.296875 5.421875 2 
L 5.421875 11.28125 
Q 10.40625 8.6875 15.234375 7.390625 
Q 20.0625 6.109375 24.8125 6.109375 
Q 31.15625 6.109375 34.5625 8.28125 
Q 37.984375 10.453125 37.984375 14.40625 
Q 37.984375 18.0625 35.515625 20.015625 
Q 33.0625 21.96875 24.703125 23.78125 
L 21.578125 24.515625 
Q 13.234375 26.265625 9.515625 29.90625 
Q 5.8125 33.546875 5.8125 39.890625 
Q 5.8125 47.609375 11.28125 51.796875 
Q 16.75 56 26.8125 56 
Q 31.78125 56 36.171875 55.265625 
Q 40.578125 54.546875 44.28125 53.078125 
z
" id="DejaVuSans-115"/>
       <path d="M 18.109375 8.203125 
L 18.109375 -20.796875 
L 9.078125 -20.796875 
L 9.078125 54.6875 
L 18.109375 54.6875 
L 18.109375 46.390625 
Q 20.953125 51.265625 25.265625 53.625 
Q 29.59375 56 35.59375 56 
Q 45.5625 56 51.78125 48.09375 
Q 58.015625 40.1875 58.015625 27.296875 
Q 58.015625 14.40625 51.78125 6.484375 
Q 45.5625 -1.421875 35.59375 -1.421875 
Q 29.59375 -1.421875 25.265625 0.953125 
Q 20.953125 3.328125 18.109375 8.203125 
z
M 48.6875 27.296875 
Q 48.6875 37.203125 44.609375 42.84375 
Q 40.53125 48.484375 33.40625 48.484375 
Q 26.265625 48.484375 22.1875 42.84375 
Q 18.109375 37.203125 18.109375 27.296875 
Q 18.109375 17.390625 22.1875 11.75 
Q 26.265625 6.109375 33.40625 6.109375 
Q 40.53125 6.109375 44.609375 11.75 
Q 48.6875 17.390625 48.6875 27.296875 
z
" id="DejaVuSans-112"/>
       <path d="M 9.421875 54.6875 
L 18.40625 54.6875 
L 18.40625 0 
L 9.421875 0 
z
M 9.421875 75.984375 
L 18.40625 75.984375 
L 18.40625 64.59375 
L 9.421875 64.59375 
z
" id="DejaVuSans-105"/>
       <path d="M 9.421875 75.984375 
L 18.40625 75.984375 
L 18.40625 0 
L 9.421875 0 
z
" id="DejaVuSans-108"/>
       <path d="M 32.171875 -5.078125 
Q 28.375 -14.84375 24.75 -17.8125 
Q 21.140625 -20.796875 15.09375 -20.796875 
L 7.90625 -20.796875 
L 7.90625 -13.28125 
L 13.1875 -13.28125 
Q 16.890625 -13.28125 18.9375 -11.515625 
Q 21 -9.765625 23.484375 -3.21875 
L 25.09375 0.875 
L 2.984375 54.6875 
L 12.5 54.6875 
L 29.59375 11.921875 
L 46.6875 54.6875 
L 56.203125 54.6875 
z
" id="DejaVuSans-121"/>
      </defs>
      <use xlink:href="#DejaVuSans-110"/>
      <use x="63.378906" xlink:href="#DejaVuSans-117"/>
      <use x="126.757812" xlink:href="#DejaVuSans-109"/>
      <use x="224.169922" xlink:href="#DejaVuSans-98"/>
      <use x="287.646484" xlink:href="#DejaVuSans-101"/>
      <use x="349.169922" xlink:href="#DejaVuSans-114"/>
      <use x="390.283203" xlink:href="#DejaVuSans-32"/>
      <use x="422.070312" xlink:href="#DejaVuSans-111"/>
      <use x="483.251953" xlink:href="#DejaVuSans-102"/>
      <use x="518.457031" xlink:href="#DejaVuSans-32"/>
      <use x="550.244141" xlink:href="#DejaVuSans-116"/>
      <use x="589.453125" xlink:href="#DejaVuSans-101"/>
      <use x="650.976562" xlink:href="#DejaVuSans-115"/>
      <use x="703.076172" xlink:href="#DejaVuSans-116"/>
      <use x="742.285156" xlink:href="#DejaVuSans-101"/>
      <use x="803.808594" xlink:href="#DejaVuSans-100"/>
      <use x="867.285156" xlink:href="#DejaVuSans-32"/>
      <use x="899.072266" xlink:href="#DejaVuSans-112"/>
      <use x="962.548828" xlink:href="#DejaVuSans-101"/>
      <use x="1024.072266" xlink:href="#DejaVuSans-114"/>
      <use x="1065.185547" xlink:href="#DejaVuSans-115"/>
      <use x="1117.285156" xlink:href="#DejaVuSans-111"/>
      <use x="1178.466797" xlink:href="#DejaVuSans-110"/>
      <use x="1241.845703" xlink:href="#DejaVuSans-115"/>
      <use x="1293.945312" xlink:href="#DejaVuSans-32"/>
      <use x="1325.732422" xlink:href="#DejaVuSans-100"/>
      <use x="1389.208984" xlink:href="#DejaVuSans-97"/>
      <use x="1450.488281" xlink:href="#DejaVuSans-105"/>
      <use x="1478.271484" xlink:href="#DejaVuSans-108"/>
      <use x="1506.054688" xlink:href="#DejaVuSans-121"/>
     </g>
    </g>
   </g>
   <g id="patch_271">
    <path d="M 59.328125 239.758125 
L 59.328125 22.318125 
" style="fill:none;stroke:#000000;stroke-linecap:square;stroke-linejoin:miter;stroke-width:0.8;"/>
   </g>
   <g id="patch_272">
    <path d="M 59.328125 239.758125 
L 394.128125 239.758125 
" style="fill:none;stroke:#000000;stroke-linecap:square;stroke-linejoin:miter;stroke-width:0.8;"/>
   </g>
   <g id="text_21">
    <!-- South Tyrol -->
    <g transform="translate(193.435625 16.318125)scale(0.12 -0.12)">
     <defs>
      <path d="M 53.515625 70.515625 
L 53.515625 60.890625 
Q 47.90625 63.578125 42.921875 64.890625 
Q 37.9375 66.21875 33.296875 66.21875 
Q 25.25 66.21875 20.875 63.09375 
Q 16.5 59.96875 16.5 54.203125 
Q 16.5 49.359375 19.40625 46.890625 
Q 22.3125 44.4375 30.421875 42.921875 
L 36.375 41.703125 
Q 47.40625 39.59375 52.65625 34.296875 
Q 57.90625 29 57.90625 20.125 
Q 57.90625 9.515625 50.796875 4.046875 
Q 43.703125 -1.421875 29.984375 -1.421875 
Q 24.8125 -1.421875 18.96875 -0.25 
Q 13.140625 0.921875 6.890625 3.21875 
L 6.890625 13.375 
Q 12.890625 10.015625 18.65625 8.296875 
Q 24.421875 6.59375 29.984375 6.59375 
Q 38.421875 6.59375 43.015625 9.90625 
Q 47.609375 13.234375 47.609375 19.390625 
Q 47.609375 24.75 44.3125 27.78125 
Q 41.015625 30.8125 33.5 32.328125 
L 27.484375 33.5 
Q 16.453125 35.6875 11.515625 40.375 
Q 6.59375 45.0625 6.59375 53.421875 
Q 6.59375 63.09375 13.40625 68.65625 
Q 20.21875 74.21875 32.171875 74.21875 
Q 37.3125 74.21875 42.625 73.28125 
Q 47.953125 72.359375 53.515625 70.515625 
z
" id="DejaVuSans-83"/>
      <path d="M 54.890625 33.015625 
L 54.890625 0 
L 45.90625 0 
L 45.90625 32.71875 
Q 45.90625 40.484375 42.875 44.328125 
Q 39.84375 48.1875 33.796875 48.1875 
Q 26.515625 48.1875 22.3125 43.546875 
Q 18.109375 38.921875 18.109375 30.90625 
L 18.109375 0 
L 9.078125 0 
L 9.078125 75.984375 
L 18.109375 75.984375 
L 18.109375 46.1875 
Q 21.34375 51.125 25.703125 53.5625 
Q 30.078125 56 35.796875 56 
Q 45.21875 56 50.046875 50.171875 
Q 54.890625 44.34375 54.890625 33.015625 
z
" id="DejaVuSans-104"/>
      <path d="M -0.296875 72.90625 
L 61.375 72.90625 
L 61.375 64.59375 
L 35.5 64.59375 
L 35.5 0 
L 25.59375 0 
L 25.59375 64.59375 
L -0.296875 64.59375 
z
" id="DejaVuSans-84"/>
     </defs>
     <use xlink:href="#DejaVuSans-83"/>
     <use x="63.476562" xlink:href="#DejaVuSans-111"/>
     <use x="124.658203" xlink:href="#DejaVuSans-117"/>
     <use x="188.037109" xlink:href="#DejaVuSans-116"/>
     <use x="227.246094" xlink:href="#DejaVuSans-104"/>
     <use x="290.625" xlink:href="#DejaVuSans-32"/>
     <use x="322.412109" xlink:href="#DejaVuSans-84"/>
     <use x="367.871094" xlink:href="#DejaVuSans-121"/>
     <use x="427.050781" xlink:href="#DejaVuSans-114"/>
     <use x="465.914062" xlink:href="#DejaVuSans-111"/>
     <use x="527.095703" xlink:href="#DejaVuSans-108"/>
    </g>
   </g>
  </g>
 </g>
 <defs>
  <clipPath id="p42baa3d085">
   <rect height="217.44" width="334.8" x="59.328125" y="22.318125"/>
  </clipPath>
 </defs>
</svg>
