<?xml version="1.0" encoding="utf-8" standalone="no"?>
<!DOCTYPE svg PUBLIC "-//W3C//DTD SVG 1.1//EN"
  "http://www.w3.org/Graphics/SVG/1.1/DTD/svg11.dtd">
<!-- Created with matplotlib (https://matplotlib.org/) -->
<svg height="364.091062pt" version="1.1" viewBox="0 0 423.648125 364.091062" width="423.648125pt" xmlns="http://www.w3.org/2000/svg" xmlns:xlink="http://www.w3.org/1999/xlink">
 <metadata>
  <rdf:RDF xmlns:cc="http://creativecommons.org/ns#" xmlns:dc="http://purl.org/dc/elements/1.1/" xmlns:rdf="http://www.w3.org/1999/02/22-rdf-syntax-ns#">
   <cc:Work>
    <dc:type rdf:resource="http://purl.org/dc/dcmitype/StillImage"/>
    <dc:date>2021-01-05T11:08:17.461598</dc:date>
    <dc:format>image/svg+xml</dc:format>
    <dc:creator>
     <cc:Agent>
      <dc:title>Matplotlib v3.3.3, https://matplotlib.org/</dc:title>
     </cc:Agent>
    </dc:creator>
   </cc:Work>
  </rdf:RDF>
 </metadata>
 <defs>
  <style type="text/css">*{stroke-linecap:butt;stroke-linejoin:round;}</style>
 </defs>
 <g id="figure_1">
  <g id="patch_1">
   <path d="M 0 364.091062 
L 423.648125 364.091062 
L 423.648125 0 
L 0 0 
z
" style="fill:#ffffff;"/>
  </g>
  <g id="axes_1">
   <g id="patch_2">
    <path d="M 59.328125 288.430125 
L 416.448125 288.430125 
L 416.448125 22.318125 
L 59.328125 22.318125 
z
" style="fill:#ffffff;"/>
   </g>
   <g id="patch_3">
    <path clip-path="url(#p35ead5b138)" d="M 59.448367 288.430125 
L 60.410307 288.430125 
L 60.410307 116.351753 
L 59.448367 116.351753 
z
" style="fill:#1f77b4;"/>
   </g>
   <g id="patch_4">
    <path clip-path="url(#p35ead5b138)" d="M 60.650792 288.430125 
L 61.612731 288.430125 
L 61.612731 262.78459 
L 60.650792 262.78459 
z
" style="fill:#1f77b4;"/>
   </g>
   <g id="patch_5">
    <path clip-path="url(#p35ead5b138)" d="M 61.853216 288.430125 
L 62.815155 288.430125 
L 62.815155 244.896038 
L 61.853216 244.896038 
z
" style="fill:#1f77b4;"/>
   </g>
   <g id="patch_6">
    <path clip-path="url(#p35ead5b138)" d="M 63.05564 288.430125 
L 64.01758 288.430125 
L 64.01758 213.868107 
L 63.05564 213.868107 
z
" style="fill:#1f77b4;"/>
   </g>
   <g id="patch_7">
    <path clip-path="url(#p35ead5b138)" d="M 64.258064 288.430125 
L 65.220004 288.430125 
L 65.220004 207.852488 
L 64.258064 207.852488 
z
" style="fill:#1f77b4;"/>
   </g>
   <g id="patch_8">
    <path clip-path="url(#p35ead5b138)" d="M 65.460489 288.430125 
L 66.422428 288.430125 
L 66.422428 195.02972 
L 65.460489 195.02972 
z
" style="fill:#1f77b4;"/>
   </g>
   <g id="patch_9">
    <path clip-path="url(#p35ead5b138)" d="M 66.662913 288.430125 
L 67.624852 288.430125 
L 67.624852 223.999676 
L 66.662913 223.999676 
z
" style="fill:#1f77b4;"/>
   </g>
   <g id="patch_10">
    <path clip-path="url(#p35ead5b138)" d="M 67.865337 288.430125 
L 68.827277 288.430125 
L 68.827277 244.737732 
L 67.865337 244.737732 
z
" style="fill:#1f77b4;"/>
   </g>
   <g id="patch_11">
    <path clip-path="url(#p35ead5b138)" d="M 69.067761 288.430125 
L 70.029701 288.430125 
L 70.029701 251.861492 
L 69.067761 251.861492 
z
" style="fill:#1f77b4;"/>
   </g>
   <g id="patch_12">
    <path clip-path="url(#p35ead5b138)" d="M 70.270186 288.430125 
L 71.232125 288.430125 
L 71.232125 243.471286 
L 70.270186 243.471286 
z
" style="fill:#1f77b4;"/>
   </g>
   <g id="patch_13">
    <path clip-path="url(#p35ead5b138)" d="M 71.47261 288.430125 
L 72.434549 288.430125 
L 72.434549 254.394384 
L 71.47261 254.394384 
z
" style="fill:#1f77b4;"/>
   </g>
   <g id="patch_14">
    <path clip-path="url(#p35ead5b138)" d="M 72.675034 288.430125 
L 73.636973 288.430125 
L 73.636973 227.957321 
L 72.675034 227.957321 
z
" style="fill:#1f77b4;"/>
   </g>
   <g id="patch_15">
    <path clip-path="url(#p35ead5b138)" d="M 73.877458 288.430125 
L 74.839398 288.430125 
L 74.839398 236.822444 
L 73.877458 236.822444 
z
" style="fill:#1f77b4;"/>
   </g>
   <g id="patch_16">
    <path clip-path="url(#p35ead5b138)" d="M 75.079883 288.430125 
L 76.041822 288.430125 
L 76.041822 241.888229 
L 75.079883 241.888229 
z
" style="fill:#1f77b4;"/>
   </g>
   <g id="patch_17">
    <path clip-path="url(#p35ead5b138)" d="M 76.282307 288.430125 
L 77.244246 288.430125 
L 77.244246 211.651826 
L 76.282307 211.651826 
z
" style="fill:#1f77b4;"/>
   </g>
   <g id="patch_18">
    <path clip-path="url(#p35ead5b138)" d="M 77.484731 288.430125 
L 78.44667 288.430125 
L 78.44667 247.270625 
L 77.484731 247.270625 
z
" style="fill:#1f77b4;"/>
   </g>
   <g id="patch_19">
    <path clip-path="url(#p35ead5b138)" d="M 78.687155 288.430125 
L 79.649095 288.430125 
L 79.649095 244.737732 
L 78.687155 244.737732 
z
" style="fill:#1f77b4;"/>
   </g>
   <g id="patch_20">
    <path clip-path="url(#p35ead5b138)" d="M 79.88958 288.430125 
L 80.851519 288.430125 
L 80.851519 243.787898 
L 79.88958 243.787898 
z
" style="fill:#1f77b4;"/>
   </g>
   <g id="patch_21">
    <path clip-path="url(#p35ead5b138)" d="M 81.092004 288.430125 
L 82.053943 288.430125 
L 82.053943 245.687567 
L 81.092004 245.687567 
z
" style="fill:#1f77b4;"/>
   </g>
   <g id="patch_22">
    <path clip-path="url(#p35ead5b138)" d="M 82.294428 288.430125 
L 83.256367 288.430125 
L 83.256367 215.767776 
L 82.294428 215.767776 
z
" style="fill:#1f77b4;"/>
   </g>
   <g id="patch_23">
    <path clip-path="url(#p35ead5b138)" d="M 83.496852 288.430125 
L 84.458792 288.430125 
L 84.458792 209.435546 
L 83.496852 209.435546 
z
" style="fill:#1f77b4;"/>
   </g>
   <g id="patch_24">
    <path clip-path="url(#p35ead5b138)" d="M 84.699277 288.430125 
L 85.661216 288.430125 
L 85.661216 241.255005 
L 84.699277 241.255005 
z
" style="fill:#1f77b4;"/>
   </g>
   <g id="patch_25">
    <path clip-path="url(#p35ead5b138)" d="M 85.901701 288.430125 
L 86.86364 288.430125 
L 86.86364 212.285049 
L 85.901701 212.285049 
z
" style="fill:#1f77b4;"/>
   </g>
   <g id="patch_26">
    <path clip-path="url(#p35ead5b138)" d="M 87.104125 288.430125 
L 88.066064 288.430125 
L 88.066064 211.968438 
L 87.104125 211.968438 
z
" style="fill:#1f77b4;"/>
   </g>
   <g id="patch_27">
    <path clip-path="url(#p35ead5b138)" d="M 88.306549 288.430125 
L 89.268489 288.430125 
L 89.268489 217.192528 
L 88.306549 217.192528 
z
" style="fill:#1f77b4;"/>
   </g>
   <g id="patch_28">
    <path clip-path="url(#p35ead5b138)" d="M 89.508973 288.430125 
L 90.470913 288.430125 
L 90.470913 202.628397 
L 89.508973 202.628397 
z
" style="fill:#1f77b4;"/>
   </g>
   <g id="patch_29">
    <path clip-path="url(#p35ead5b138)" d="M 90.711398 288.430125 
L 91.673337 288.430125 
L 91.673337 222.258313 
L 90.711398 222.258313 
z
" style="fill:#1f77b4;"/>
   </g>
   <g id="patch_30">
    <path clip-path="url(#p35ead5b138)" d="M 91.913822 288.430125 
L 92.875761 288.430125 
L 92.875761 200.887034 
L 91.913822 200.887034 
z
" style="fill:#1f77b4;"/>
   </g>
   <g id="patch_31">
    <path clip-path="url(#p35ead5b138)" d="M 93.116246 288.430125 
L 94.078186 288.430125 
L 94.078186 223.208148 
L 93.116246 223.208148 
z
" style="fill:#1f77b4;"/>
   </g>
   <g id="patch_32">
    <path clip-path="url(#p35ead5b138)" d="M 94.31867 288.430125 
L 95.28061 288.430125 
L 95.28061 230.331907 
L 94.31867 230.331907 
z
" style="fill:#1f77b4;"/>
   </g>
   <g id="patch_33">
    <path clip-path="url(#p35ead5b138)" d="M 95.521095 288.430125 
L 96.483034 288.430125 
L 96.483034 264.684259 
L 95.521095 264.684259 
z
" style="fill:#1f77b4;"/>
   </g>
   <g id="patch_34">
    <path clip-path="url(#p35ead5b138)" d="M 96.723519 288.430125 
L 97.685458 288.430125 
L 97.685458 231.914965 
L 96.723519 231.914965 
z
" style="fill:#1f77b4;"/>
   </g>
   <g id="patch_35">
    <path clip-path="url(#p35ead5b138)" d="M 97.925943 288.430125 
L 98.887883 288.430125 
L 98.887883 223.366453 
L 97.925943 223.366453 
z
" style="fill:#1f77b4;"/>
   </g>
   <g id="patch_36">
    <path clip-path="url(#p35ead5b138)" d="M 99.128367 288.430125 
L 100.090307 288.430125 
L 100.090307 200.887034 
L 99.128367 200.887034 
z
" style="fill:#1f77b4;"/>
   </g>
   <g id="patch_37">
    <path clip-path="url(#p35ead5b138)" d="M 100.330792 288.430125 
L 101.292731 288.430125 
L 101.292731 215.292859 
L 100.330792 215.292859 
z
" style="fill:#1f77b4;"/>
   </g>
   <g id="patch_38">
    <path clip-path="url(#p35ead5b138)" d="M 101.533216 288.430125 
L 102.495155 288.430125 
L 102.495155 160.835674 
L 101.533216 160.835674 
z
" style="fill:#1f77b4;"/>
   </g>
   <g id="patch_39">
    <path clip-path="url(#p35ead5b138)" d="M 102.73564 288.430125 
L 103.69758 288.430125 
L 103.69758 239.988559 
L 102.73564 239.988559 
z
" style="fill:#1f77b4;"/>
   </g>
   <g id="patch_40">
    <path clip-path="url(#p35ead5b138)" d="M 103.938064 288.430125 
L 104.900004 288.430125 
L 104.900004 238.405502 
L 103.938064 238.405502 
z
" style="fill:#1f77b4;"/>
   </g>
   <g id="patch_41">
    <path clip-path="url(#p35ead5b138)" d="M 105.140489 288.430125 
L 106.102428 288.430125 
L 106.102428 236.030915 
L 105.140489 236.030915 
z
" style="fill:#1f77b4;"/>
   </g>
   <g id="patch_42">
    <path clip-path="url(#p35ead5b138)" d="M 106.342913 288.430125 
L 107.304852 288.430125 
L 107.304852 176.666251 
L 106.342913 176.666251 
z
" style="fill:#1f77b4;"/>
   </g>
   <g id="patch_43">
    <path clip-path="url(#p35ead5b138)" d="M 107.545337 288.430125 
L 108.507277 288.430125 
L 108.507277 196.296167 
L 107.545337 196.296167 
z
" style="fill:#1f77b4;"/>
   </g>
   <g id="patch_44">
    <path clip-path="url(#p35ead5b138)" d="M 108.747761 288.430125 
L 109.709701 288.430125 
L 109.709701 201.520257 
L 108.747761 201.520257 
z
" style="fill:#1f77b4;"/>
   </g>
   <g id="patch_45">
    <path clip-path="url(#p35ead5b138)" d="M 109.950186 288.430125 
L 110.912125 288.430125 
L 110.912125 237.455667 
L 109.950186 237.455667 
z
" style="fill:#1f77b4;"/>
   </g>
   <g id="patch_46">
    <path clip-path="url(#p35ead5b138)" d="M 111.15261 288.430125 
L 112.114549 288.430125 
L 112.114549 204.844678 
L 111.15261 204.844678 
z
" style="fill:#1f77b4;"/>
   </g>
   <g id="patch_47">
    <path clip-path="url(#p35ead5b138)" d="M 112.355034 288.430125 
L 113.316973 288.430125 
L 113.316973 265.634094 
L 112.355034 265.634094 
z
" style="fill:#1f77b4;"/>
   </g>
   <g id="patch_48">
    <path clip-path="url(#p35ead5b138)" d="M 113.557458 288.430125 
L 114.519398 288.430125 
L 114.519398 244.579427 
L 113.557458 244.579427 
z
" style="fill:#1f77b4;"/>
   </g>
   <g id="patch_49">
    <path clip-path="url(#p35ead5b138)" d="M 114.759883 288.430125 
L 115.721822 288.430125 
L 115.721822 235.555998 
L 114.759883 235.555998 
z
" style="fill:#1f77b4;"/>
   </g>
   <g id="patch_50">
    <path clip-path="url(#p35ead5b138)" d="M 115.962307 288.430125 
L 116.924246 288.430125 
L 116.924246 205.002984 
L 115.962307 205.002984 
z
" style="fill:#1f77b4;"/>
   </g>
   <g id="patch_51">
    <path clip-path="url(#p35ead5b138)" d="M 117.164731 288.430125 
L 118.12667 288.430125 
L 118.12667 236.030915 
L 117.164731 236.030915 
z
" style="fill:#1f77b4;"/>
   </g>
   <g id="patch_52">
    <path clip-path="url(#p35ead5b138)" d="M 118.367155 288.430125 
L 119.329095 288.430125 
L 119.329095 267.850375 
L 118.367155 267.850375 
z
" style="fill:#1f77b4;"/>
   </g>
   <g id="patch_53">
    <path clip-path="url(#p35ead5b138)" d="M 119.56958 288.430125 
L 120.531519 288.430125 
L 120.531519 261.993061 
L 119.56958 261.993061 
z
" style="fill:#1f77b4;"/>
   </g>
   <g id="patch_54">
    <path clip-path="url(#p35ead5b138)" d="M 120.772004 288.430125 
L 121.733943 288.430125 
L 121.733943 252.336409 
L 120.772004 252.336409 
z
" style="fill:#1f77b4;"/>
   </g>
   <g id="patch_55">
    <path clip-path="url(#p35ead5b138)" d="M 121.974428 288.430125 
L 122.936367 288.430125 
L 122.936367 239.19703 
L 121.974428 239.19703 
z
" style="fill:#1f77b4;"/>
   </g>
   <g id="patch_56">
    <path clip-path="url(#p35ead5b138)" d="M 123.176852 288.430125 
L 124.138792 288.430125 
L 124.138792 223.208148 
L 123.176852 223.208148 
z
" style="fill:#1f77b4;"/>
   </g>
   <g id="patch_57">
    <path clip-path="url(#p35ead5b138)" d="M 124.379277 288.430125 
L 125.341216 288.430125 
L 125.341216 242.838063 
L 124.379277 242.838063 
z
" style="fill:#1f77b4;"/>
   </g>
   <g id="patch_58">
    <path clip-path="url(#p35ead5b138)" d="M 125.581701 288.430125 
L 126.54364 288.430125 
L 126.54364 225.582734 
L 125.581701 225.582734 
z
" style="fill:#1f77b4;"/>
   </g>
   <g id="patch_59">
    <path clip-path="url(#p35ead5b138)" d="M 126.784125 288.430125 
L 127.746064 288.430125 
L 127.746064 241.571617 
L 126.784125 241.571617 
z
" style="fill:#1f77b4;"/>
   </g>
   <g id="patch_60">
    <path clip-path="url(#p35ead5b138)" d="M 127.986549 288.430125 
L 128.948489 288.430125 
L 128.948489 251.228269 
L 127.986549 251.228269 
z
" style="fill:#1f77b4;"/>
   </g>
   <g id="patch_61">
    <path clip-path="url(#p35ead5b138)" d="M 129.188973 288.430125 
L 130.150913 288.430125 
L 130.150913 251.861492 
L 129.188973 251.861492 
z
" style="fill:#1f77b4;"/>
   </g>
   <g id="patch_62">
    <path clip-path="url(#p35ead5b138)" d="M 130.391398 288.430125 
L 131.353337 288.430125 
L 131.353337 226.84918 
L 130.391398 226.84918 
z
" style="fill:#1f77b4;"/>
   </g>
   <g id="patch_63">
    <path clip-path="url(#p35ead5b138)" d="M 131.593822 288.430125 
L 132.555761 288.430125 
L 132.555761 230.331907 
L 131.593822 230.331907 
z
" style="fill:#1f77b4;"/>
   </g>
   <g id="patch_64">
    <path clip-path="url(#p35ead5b138)" d="M 132.796246 288.430125 
L 133.758186 288.430125 
L 133.758186 212.126744 
L 132.796246 212.126744 
z
" style="fill:#1f77b4;"/>
   </g>
   <g id="patch_65">
    <path clip-path="url(#p35ead5b138)" d="M 133.99867 288.430125 
L 134.96061 288.430125 
L 134.96061 233.498023 
L 133.99867 233.498023 
z
" style="fill:#1f77b4;"/>
   </g>
   <g id="patch_66">
    <path clip-path="url(#p35ead5b138)" d="M 135.201095 288.430125 
L 136.163034 288.430125 
L 136.163034 231.281742 
L 135.201095 231.281742 
z
" style="fill:#1f77b4;"/>
   </g>
   <g id="patch_67">
    <path clip-path="url(#p35ead5b138)" d="M 136.403519 288.430125 
L 137.365458 288.430125 
L 137.365458 248.378765 
L 136.403519 248.378765 
z
" style="fill:#1f77b4;"/>
   </g>
   <g id="patch_68">
    <path clip-path="url(#p35ead5b138)" d="M 137.605943 288.430125 
L 138.567883 288.430125 
L 138.567883 235.714303 
L 137.605943 235.714303 
z
" style="fill:#1f77b4;"/>
   </g>
   <g id="patch_69">
    <path clip-path="url(#p35ead5b138)" d="M 138.808367 288.430125 
L 139.770307 288.430125 
L 139.770307 234.922775 
L 138.808367 234.922775 
z
" style="fill:#1f77b4;"/>
   </g>
   <g id="patch_70">
    <path clip-path="url(#p35ead5b138)" d="M 140.010792 288.430125 
L 140.972731 288.430125 
L 140.972731 225.424428 
L 140.010792 225.424428 
z
" style="fill:#1f77b4;"/>
   </g>
   <g id="patch_71">
    <path clip-path="url(#p35ead5b138)" d="M 141.213216 288.430125 
L 142.175155 288.430125 
L 142.175155 195.662944 
L 141.213216 195.662944 
z
" style="fill:#1f77b4;"/>
   </g>
   <g id="patch_72">
    <path clip-path="url(#p35ead5b138)" d="M 142.41564 288.430125 
L 143.37758 288.430125 
L 143.37758 135.823362 
L 142.41564 135.823362 
z
" style="fill:#1f77b4;"/>
   </g>
   <g id="patch_73">
    <path clip-path="url(#p35ead5b138)" d="M 143.618064 288.430125 
L 144.580004 288.430125 
L 144.580004 226.84918 
L 143.618064 226.84918 
z
" style="fill:#1f77b4;"/>
   </g>
   <g id="patch_74">
    <path clip-path="url(#p35ead5b138)" d="M 144.820489 288.430125 
L 145.782428 288.430125 
L 145.782428 248.695377 
L 144.820489 248.695377 
z
" style="fill:#1f77b4;"/>
   </g>
   <g id="patch_75">
    <path clip-path="url(#p35ead5b138)" d="M 146.022913 288.430125 
L 146.984852 288.430125 
L 146.984852 254.869302 
L 146.022913 254.869302 
z
" style="fill:#1f77b4;"/>
   </g>
   <g id="patch_76">
    <path clip-path="url(#p35ead5b138)" d="M 147.225337 288.430125 
L 148.187277 288.430125 
L 148.187277 223.841371 
L 147.225337 223.841371 
z
" style="fill:#1f77b4;"/>
   </g>
   <g id="patch_77">
    <path clip-path="url(#p35ead5b138)" d="M 148.427761 288.430125 
L 149.389701 288.430125 
L 149.389701 218.458974 
L 148.427761 218.458974 
z
" style="fill:#1f77b4;"/>
   </g>
   <g id="patch_78">
    <path clip-path="url(#p35ead5b138)" d="M 149.630186 288.430125 
L 150.592125 288.430125 
L 150.592125 220.51695 
L 149.630186 220.51695 
z
" style="fill:#1f77b4;"/>
   </g>
   <g id="patch_79">
    <path clip-path="url(#p35ead5b138)" d="M 150.83261 288.430125 
L 151.794549 288.430125 
L 151.794549 189.014101 
L 150.83261 189.014101 
z
" style="fill:#1f77b4;"/>
   </g>
   <g id="patch_80">
    <path clip-path="url(#p35ead5b138)" d="M 152.035034 288.430125 
L 152.996973 288.430125 
L 152.996973 212.126744 
L 152.035034 212.126744 
z
" style="fill:#1f77b4;"/>
   </g>
   <g id="patch_81">
    <path clip-path="url(#p35ead5b138)" d="M 153.237458 288.430125 
L 154.199398 288.430125 
L 154.199398 214.976248 
L 153.237458 214.976248 
z
" style="fill:#1f77b4;"/>
   </g>
   <g id="patch_82">
    <path clip-path="url(#p35ead5b138)" d="M 154.439883 288.430125 
L 155.401822 288.430125 
L 155.401822 232.073271 
L 154.439883 232.073271 
z
" style="fill:#1f77b4;"/>
   </g>
   <g id="patch_83">
    <path clip-path="url(#p35ead5b138)" d="M 155.642307 288.430125 
L 156.604246 288.430125 
L 156.604246 258.352029 
L 155.642307 258.352029 
z
" style="fill:#1f77b4;"/>
   </g>
   <g id="patch_84">
    <path clip-path="url(#p35ead5b138)" d="M 156.844731 288.430125 
L 157.80667 288.430125 
L 157.80667 235.397692 
L 156.844731 235.397692 
z
" style="fill:#1f77b4;"/>
   </g>
   <g id="patch_85">
    <path clip-path="url(#p35ead5b138)" d="M 158.047155 288.430125 
L 159.009095 288.430125 
L 159.009095 204.528067 
L 158.047155 204.528067 
z
" style="fill:#1f77b4;"/>
   </g>
   <g id="patch_86">
    <path clip-path="url(#p35ead5b138)" d="M 159.24958 288.430125 
L 160.211519 288.430125 
L 160.211519 189.330713 
L 159.24958 189.330713 
z
" style="fill:#1f77b4;"/>
   </g>
   <g id="patch_87">
    <path clip-path="url(#p35ead5b138)" d="M 160.452004 288.430125 
L 161.413943 288.430125 
L 161.413943 185.056457 
L 160.452004 185.056457 
z
" style="fill:#1f77b4;"/>
   </g>
   <g id="patch_88">
    <path clip-path="url(#p35ead5b138)" d="M 161.654428 288.430125 
L 162.616367 288.430125 
L 162.616367 230.96513 
L 161.654428 230.96513 
z
" style="fill:#1f77b4;"/>
   </g>
   <g id="patch_89">
    <path clip-path="url(#p35ead5b138)" d="M 162.856852 288.430125 
L 163.818792 288.430125 
L 163.818792 240.938394 
L 162.856852 240.938394 
z
" style="fill:#1f77b4;"/>
   </g>
   <g id="patch_90">
    <path clip-path="url(#p35ead5b138)" d="M 164.059277 288.430125 
L 165.021216 288.430125 
L 165.021216 202.786703 
L 164.059277 202.786703 
z
" style="fill:#1f77b4;"/>
   </g>
   <g id="patch_91">
    <path clip-path="url(#p35ead5b138)" d="M 165.261701 288.430125 
L 166.22364 288.430125 
L 166.22364 224.316288 
L 165.261701 224.316288 
z
" style="fill:#1f77b4;"/>
   </g>
   <g id="patch_92">
    <path clip-path="url(#p35ead5b138)" d="M 166.464125 288.430125 
L 167.426064 288.430125 
L 167.426064 221.783396 
L 166.464125 221.783396 
z
" style="fill:#1f77b4;"/>
   </g>
   <g id="patch_93">
    <path clip-path="url(#p35ead5b138)" d="M 167.666549 288.430125 
L 168.628489 288.430125 
L 168.628489 222.100007 
L 167.666549 222.100007 
z
" style="fill:#1f77b4;"/>
   </g>
   <g id="patch_94">
    <path clip-path="url(#p35ead5b138)" d="M 168.868973 288.430125 
L 169.830913 288.430125 
L 169.830913 254.55269 
L 168.868973 254.55269 
z
" style="fill:#1f77b4;"/>
   </g>
   <g id="patch_95">
    <path clip-path="url(#p35ead5b138)" d="M 170.071398 288.430125 
L 171.033337 288.430125 
L 171.033337 274.0243 
L 170.071398 274.0243 
z
" style="fill:#1f77b4;"/>
   </g>
   <g id="patch_96">
    <path clip-path="url(#p35ead5b138)" d="M 171.273822 288.430125 
L 172.235761 288.430125 
L 172.235761 251.544881 
L 171.273822 251.544881 
z
" style="fill:#1f77b4;"/>
   </g>
   <g id="patch_97">
    <path clip-path="url(#p35ead5b138)" d="M 172.476246 288.430125 
L 173.438186 288.430125 
L 173.438186 244.262815 
L 172.476246 244.262815 
z
" style="fill:#1f77b4;"/>
   </g>
   <g id="patch_98">
    <path clip-path="url(#p35ead5b138)" d="M 173.67867 288.430125 
L 174.64061 288.430125 
L 174.64061 232.548188 
L 173.67867 232.548188 
z
" style="fill:#1f77b4;"/>
   </g>
   <g id="patch_99">
    <path clip-path="url(#p35ead5b138)" d="M 174.881095 288.430125 
L 175.843034 288.430125 
L 175.843034 241.729923 
L 174.881095 241.729923 
z
" style="fill:#1f77b4;"/>
   </g>
   <g id="patch_100">
    <path clip-path="url(#p35ead5b138)" d="M 176.083519 288.430125 
L 177.045458 288.430125 
L 177.045458 222.258313 
L 176.083519 222.258313 
z
" style="fill:#1f77b4;"/>
   </g>
   <g id="patch_101">
    <path clip-path="url(#p35ead5b138)" d="M 177.285943 288.430125 
L 178.247883 288.430125 
L 178.247883 249.961823 
L 177.285943 249.961823 
z
" style="fill:#1f77b4;"/>
   </g>
   <g id="patch_102">
    <path clip-path="url(#p35ead5b138)" d="M 178.488367 288.430125 
L 179.450307 288.430125 
L 179.450307 269.90835 
L 178.488367 269.90835 
z
" style="fill:#1f77b4;"/>
   </g>
   <g id="patch_103">
    <path clip-path="url(#p35ead5b138)" d="M 179.690792 288.430125 
L 180.652731 288.430125 
L 180.652731 238.880419 
L 179.690792 238.880419 
z
" style="fill:#1f77b4;"/>
   </g>
   <g id="patch_104">
    <path clip-path="url(#p35ead5b138)" d="M 180.893216 288.430125 
L 181.855155 288.430125 
L 181.855155 242.20484 
L 180.893216 242.20484 
z
" style="fill:#1f77b4;"/>
   </g>
   <g id="patch_105">
    <path clip-path="url(#p35ead5b138)" d="M 182.09564 288.430125 
L 183.05758 288.430125 
L 183.05758 231.440048 
L 182.09564 231.440048 
z
" style="fill:#1f77b4;"/>
   </g>
   <g id="patch_106">
    <path clip-path="url(#p35ead5b138)" d="M 183.298064 288.430125 
L 184.260004 288.430125 
L 184.260004 242.20484 
L 183.298064 242.20484 
z
" style="fill:#1f77b4;"/>
   </g>
   <g id="patch_107">
    <path clip-path="url(#p35ead5b138)" d="M 184.500489 288.430125 
L 185.462428 288.430125 
L 185.462428 234.289552 
L 184.500489 234.289552 
z
" style="fill:#1f77b4;"/>
   </g>
   <g id="patch_108">
    <path clip-path="url(#p35ead5b138)" d="M 185.702913 288.430125 
L 186.664852 288.430125 
L 186.664852 248.537071 
L 185.702913 248.537071 
z
" style="fill:#1f77b4;"/>
   </g>
   <g id="patch_109">
    <path clip-path="url(#p35ead5b138)" d="M 186.905337 288.430125 
L 187.867277 288.430125 
L 187.867277 261.834756 
L 186.905337 261.834756 
z
" style="fill:#1f77b4;"/>
   </g>
   <g id="patch_110">
    <path clip-path="url(#p35ead5b138)" d="M 188.107761 288.430125 
L 189.069701 288.430125 
L 189.069701 239.988559 
L 188.107761 239.988559 
z
" style="fill:#1f77b4;"/>
   </g>
   <g id="patch_111">
    <path clip-path="url(#p35ead5b138)" d="M 189.310186 288.430125 
L 190.272125 288.430125 
L 190.272125 220.675255 
L 189.310186 220.675255 
z
" style="fill:#1f77b4;"/>
   </g>
   <g id="patch_112">
    <path clip-path="url(#p35ead5b138)" d="M 190.51261 288.430125 
L 191.474549 288.430125 
L 191.474549 241.413311 
L 190.51261 241.413311 
z
" style="fill:#1f77b4;"/>
   </g>
   <g id="patch_113">
    <path clip-path="url(#p35ead5b138)" d="M 191.715034 288.430125 
L 192.676973 288.430125 
L 192.676973 236.030915 
L 191.715034 236.030915 
z
" style="fill:#1f77b4;"/>
   </g>
   <g id="patch_114">
    <path clip-path="url(#p35ead5b138)" d="M 192.917458 288.430125 
L 193.879398 288.430125 
L 193.879398 230.173602 
L 192.917458 230.173602 
z
" style="fill:#1f77b4;"/>
   </g>
   <g id="patch_115">
    <path clip-path="url(#p35ead5b138)" d="M 194.119883 288.430125 
L 195.081822 288.430125 
L 195.081822 227.165792 
L 194.119883 227.165792 
z
" style="fill:#1f77b4;"/>
   </g>
   <g id="patch_116">
    <path clip-path="url(#p35ead5b138)" d="M 195.322307 288.430125 
L 196.284246 288.430125 
L 196.284246 272.124631 
L 195.322307 272.124631 
z
" style="fill:#1f77b4;"/>
   </g>
   <g id="patch_117">
    <path clip-path="url(#p35ead5b138)" d="M 196.524731 288.430125 
L 197.48667 288.430125 
L 197.48667 259.301863 
L 196.524731 259.301863 
z
" style="fill:#1f77b4;"/>
   </g>
   <g id="patch_118">
    <path clip-path="url(#p35ead5b138)" d="M 197.727155 288.430125 
L 198.689095 288.430125 
L 198.689095 213.234884 
L 197.727155 213.234884 
z
" style="fill:#1f77b4;"/>
   </g>
   <g id="patch_119">
    <path clip-path="url(#p35ead5b138)" d="M 198.92958 288.430125 
L 199.891519 288.430125 
L 199.891519 238.880419 
L 198.92958 238.880419 
z
" style="fill:#1f77b4;"/>
   </g>
   <g id="patch_120">
    <path clip-path="url(#p35ead5b138)" d="M 200.132004 288.430125 
L 201.093943 288.430125 
L 201.093943 228.907155 
L 200.132004 228.907155 
z
" style="fill:#1f77b4;"/>
   </g>
   <g id="patch_121">
    <path clip-path="url(#p35ead5b138)" d="M 201.334428 288.430125 
L 202.296367 288.430125 
L 202.296367 190.122242 
L 201.334428 190.122242 
z
" style="fill:#1f77b4;"/>
   </g>
   <g id="patch_122">
    <path clip-path="url(#p35ead5b138)" d="M 202.536852 288.430125 
L 203.498792 288.430125 
L 203.498792 213.39319 
L 202.536852 213.39319 
z
" style="fill:#1f77b4;"/>
   </g>
   <g id="patch_123">
    <path clip-path="url(#p35ead5b138)" d="M 203.739277 288.430125 
L 204.701216 288.430125 
L 204.701216 270.224961 
L 203.739277 270.224961 
z
" style="fill:#1f77b4;"/>
   </g>
   <g id="patch_124">
    <path clip-path="url(#p35ead5b138)" d="M 204.941701 288.430125 
L 205.90364 288.430125 
L 205.90364 197.246001 
L 204.941701 197.246001 
z
" style="fill:#1f77b4;"/>
   </g>
   <g id="patch_125">
    <path clip-path="url(#p35ead5b138)" d="M 206.144125 288.430125 
L 207.106064 288.430125 
L 207.106064 196.92939 
L 206.144125 196.92939 
z
" style="fill:#1f77b4;"/>
   </g>
   <g id="patch_126">
    <path clip-path="url(#p35ead5b138)" d="M 207.346549 288.430125 
L 208.308489 288.430125 
L 208.308489 197.562613 
L 207.346549 197.562613 
z
" style="fill:#1f77b4;"/>
   </g>
   <g id="patch_127">
    <path clip-path="url(#p35ead5b138)" d="M 208.548973 288.430125 
L 209.510913 288.430125 
L 209.510913 195.979555 
L 208.548973 195.979555 
z
" style="fill:#1f77b4;"/>
   </g>
   <g id="patch_128">
    <path clip-path="url(#p35ead5b138)" d="M 209.751398 288.430125 
L 210.713337 288.430125 
L 210.713337 194.238192 
L 209.751398 194.238192 
z
" style="fill:#1f77b4;"/>
   </g>
   <g id="patch_129">
    <path clip-path="url(#p35ead5b138)" d="M 210.953822 288.430125 
L 211.915761 288.430125 
L 211.915761 244.579427 
L 210.953822 244.579427 
z
" style="fill:#1f77b4;"/>
   </g>
   <g id="patch_130">
    <path clip-path="url(#p35ead5b138)" d="M 212.156246 288.430125 
L 213.118186 288.430125 
L 213.118186 248.853682 
L 212.156246 248.853682 
z
" style="fill:#1f77b4;"/>
   </g>
   <g id="patch_131">
    <path clip-path="url(#p35ead5b138)" d="M 213.35867 288.430125 
L 214.32061 288.430125 
L 214.32061 254.869302 
L 213.35867 254.869302 
z
" style="fill:#1f77b4;"/>
   </g>
   <g id="patch_132">
    <path clip-path="url(#p35ead5b138)" d="M 214.561095 288.430125 
L 215.523034 288.430125 
L 215.523034 201.520257 
L 214.561095 201.520257 
z
" style="fill:#1f77b4;"/>
   </g>
   <g id="patch_133">
    <path clip-path="url(#p35ead5b138)" d="M 215.763519 288.430125 
L 216.725458 288.430125 
L 216.725458 248.220459 
L 215.763519 248.220459 
z
" style="fill:#1f77b4;"/>
   </g>
   <g id="patch_134">
    <path clip-path="url(#p35ead5b138)" d="M 216.965943 288.430125 
L 217.927883 288.430125 
L 217.927883 164.160095 
L 216.965943 164.160095 
z
" style="fill:#1f77b4;"/>
   </g>
   <g id="patch_135">
    <path clip-path="url(#p35ead5b138)" d="M 218.168367 288.430125 
L 219.130307 288.430125 
L 219.130307 184.739845 
L 218.168367 184.739845 
z
" style="fill:#1f77b4;"/>
   </g>
   <g id="patch_136">
    <path clip-path="url(#p35ead5b138)" d="M 219.370792 288.430125 
L 220.332731 288.430125 
L 220.332731 205.794513 
L 219.370792 205.794513 
z
" style="fill:#1f77b4;"/>
   </g>
   <g id="patch_137">
    <path clip-path="url(#p35ead5b138)" d="M 220.573216 288.430125 
L 221.535155 288.430125 
L 221.535155 239.355336 
L 220.573216 239.355336 
z
" style="fill:#1f77b4;"/>
   </g>
   <g id="patch_138">
    <path clip-path="url(#p35ead5b138)" d="M 221.77564 288.430125 
L 222.73758 288.430125 
L 222.73758 255.185913 
L 221.77564 255.185913 
z
" style="fill:#1f77b4;"/>
   </g>
   <g id="patch_139">
    <path clip-path="url(#p35ead5b138)" d="M 222.978064 288.430125 
L 223.940004 288.430125 
L 223.940004 201.520257 
L 222.978064 201.520257 
z
" style="fill:#1f77b4;"/>
   </g>
   <g id="patch_140">
    <path clip-path="url(#p35ead5b138)" d="M 224.180489 288.430125 
L 225.142428 288.430125 
L 225.142428 196.92939 
L 224.180489 196.92939 
z
" style="fill:#1f77b4;"/>
   </g>
   <g id="patch_141">
    <path clip-path="url(#p35ead5b138)" d="M 225.382913 288.430125 
L 226.344852 288.430125 
L 226.344852 175.241499 
L 225.382913 175.241499 
z
" style="fill:#1f77b4;"/>
   </g>
   <g id="patch_142">
    <path clip-path="url(#p35ead5b138)" d="M 226.585337 288.430125 
L 227.547277 288.430125 
L 227.547277 198.354142 
L 226.585337 198.354142 
z
" style="fill:#1f77b4;"/>
   </g>
   <g id="patch_143">
    <path clip-path="url(#p35ead5b138)" d="M 227.787761 288.430125 
L 228.749701 288.430125 
L 228.749701 191.863605 
L 227.787761 191.863605 
z
" style="fill:#1f77b4;"/>
   </g>
   <g id="patch_144">
    <path clip-path="url(#p35ead5b138)" d="M 228.990186 288.430125 
L 229.952125 288.430125 
L 229.952125 229.540378 
L 228.990186 229.540378 
z
" style="fill:#1f77b4;"/>
   </g>
   <g id="patch_145">
    <path clip-path="url(#p35ead5b138)" d="M 230.19261 288.430125 
L 231.154549 288.430125 
L 231.154549 246.162484 
L 230.19261 246.162484 
z
" style="fill:#1f77b4;"/>
   </g>
   <g id="patch_146">
    <path clip-path="url(#p35ead5b138)" d="M 231.395034 288.430125 
L 232.356973 288.430125 
L 232.356973 191.230382 
L 231.395034 191.230382 
z
" style="fill:#1f77b4;"/>
   </g>
   <g id="patch_147">
    <path clip-path="url(#p35ead5b138)" d="M 232.597458 288.430125 
L 233.559398 288.430125 
L 233.559398 176.34964 
L 232.597458 176.34964 
z
" style="fill:#1f77b4;"/>
   </g>
   <g id="patch_148">
    <path clip-path="url(#p35ead5b138)" d="M 233.799883 288.430125 
L 234.761822 288.430125 
L 234.761822 186.956126 
L 233.799883 186.956126 
z
" style="fill:#1f77b4;"/>
   </g>
   <g id="patch_149">
    <path clip-path="url(#p35ead5b138)" d="M 235.002307 288.430125 
L 235.964246 288.430125 
L 235.964246 186.164597 
L 235.002307 186.164597 
z
" style="fill:#1f77b4;"/>
   </g>
   <g id="patch_150">
    <path clip-path="url(#p35ead5b138)" d="M 236.204731 288.430125 
L 237.16667 288.430125 
L 237.16667 189.172407 
L 236.204731 189.172407 
z
" style="fill:#1f77b4;"/>
   </g>
   <g id="patch_151">
    <path clip-path="url(#p35ead5b138)" d="M 237.407155 288.430125 
L 238.369095 288.430125 
L 238.369095 248.062154 
L 237.407155 248.062154 
z
" style="fill:#1f77b4;"/>
   </g>
   <g id="patch_152">
    <path clip-path="url(#p35ead5b138)" d="M 238.60958 288.430125 
L 239.571519 288.430125 
L 239.571519 244.262815 
L 238.60958 244.262815 
z
" style="fill:#1f77b4;"/>
   </g>
   <g id="patch_153">
    <path clip-path="url(#p35ead5b138)" d="M 239.812004 288.430125 
L 240.773943 288.430125 
L 240.773943 145.63832 
L 239.812004 145.63832 
z
" style="fill:#1f77b4;"/>
   </g>
   <g id="patch_154">
    <path clip-path="url(#p35ead5b138)" d="M 241.014428 288.430125 
L 241.976367 288.430125 
L 241.976367 97.038449 
L 241.014428 97.038449 
z
" style="fill:#1f77b4;"/>
   </g>
   <g id="patch_155">
    <path clip-path="url(#p35ead5b138)" d="M 242.216852 288.430125 
L 243.178792 288.430125 
L 243.178792 178.56592 
L 242.216852 178.56592 
z
" style="fill:#1f77b4;"/>
   </g>
   <g id="patch_156">
    <path clip-path="url(#p35ead5b138)" d="M 243.419277 288.430125 
L 244.381216 288.430125 
L 244.381216 158.461088 
L 243.419277 158.461088 
z
" style="fill:#1f77b4;"/>
   </g>
   <g id="patch_157">
    <path clip-path="url(#p35ead5b138)" d="M 244.621701 288.430125 
L 245.58364 288.430125 
L 245.58364 214.026413 
L 244.621701 214.026413 
z
" style="fill:#1f77b4;"/>
   </g>
   <g id="patch_158">
    <path clip-path="url(#p35ead5b138)" d="M 245.824125 288.430125 
L 246.786064 288.430125 
L 246.786064 232.548188 
L 245.824125 232.548188 
z
" style="fill:#1f77b4;"/>
   </g>
   <g id="patch_159">
    <path clip-path="url(#p35ead5b138)" d="M 247.026549 288.430125 
L 247.988489 288.430125 
L 247.988489 229.065461 
L 247.026549 229.065461 
z
" style="fill:#1f77b4;"/>
   </g>
   <g id="patch_160">
    <path clip-path="url(#p35ead5b138)" d="M 248.228973 288.430125 
L 249.190913 288.430125 
L 249.190913 158.619393 
L 248.228973 158.619393 
z
" style="fill:#1f77b4;"/>
   </g>
   <g id="patch_161">
    <path clip-path="url(#p35ead5b138)" d="M 249.431398 288.430125 
L 250.393337 288.430125 
L 250.393337 174.766582 
L 249.431398 174.766582 
z
" style="fill:#1f77b4;"/>
   </g>
   <g id="patch_162">
    <path clip-path="url(#p35ead5b138)" d="M 250.633822 288.430125 
L 251.595761 288.430125 
L 251.595761 157.036336 
L 250.633822 157.036336 
z
" style="fill:#1f77b4;"/>
   </g>
   <g id="patch_163">
    <path clip-path="url(#p35ead5b138)" d="M 251.836246 288.430125 
L 252.798186 288.430125 
L 252.798186 104.003903 
L 251.836246 104.003903 
z
" style="fill:#1f77b4;"/>
   </g>
   <g id="patch_164">
    <path clip-path="url(#p35ead5b138)" d="M 253.03867 288.430125 
L 254.00061 288.430125 
L 254.00061 190.597159 
L 253.03867 190.597159 
z
" style="fill:#1f77b4;"/>
   </g>
   <g id="patch_165">
    <path clip-path="url(#p35ead5b138)" d="M 254.241095 288.430125 
L 255.203034 288.430125 
L 255.203034 233.023105 
L 254.241095 233.023105 
z
" style="fill:#1f77b4;"/>
   </g>
   <g id="patch_166">
    <path clip-path="url(#p35ead5b138)" d="M 255.443519 288.430125 
L 256.405458 288.430125 
L 256.405458 233.656328 
L 255.443519 233.656328 
z
" style="fill:#1f77b4;"/>
   </g>
   <g id="patch_167">
    <path clip-path="url(#p35ead5b138)" d="M 256.645943 288.430125 
L 257.607883 288.430125 
L 257.607883 160.202451 
L 256.645943 160.202451 
z
" style="fill:#1f77b4;"/>
   </g>
   <g id="patch_168">
    <path clip-path="url(#p35ead5b138)" d="M 257.848367 288.430125 
L 258.810307 288.430125 
L 258.810307 214.50133 
L 257.848367 214.50133 
z
" style="fill:#1f77b4;"/>
   </g>
   <g id="patch_169">
    <path clip-path="url(#p35ead5b138)" d="M 259.050792 288.430125 
L 260.012731 288.430125 
L 260.012731 171.600466 
L 259.050792 171.600466 
z
" style="fill:#1f77b4;"/>
   </g>
   <g id="patch_170">
    <path clip-path="url(#p35ead5b138)" d="M 260.253216 288.430125 
L 261.215155 288.430125 
L 261.215155 174.44997 
L 260.253216 174.44997 
z
" style="fill:#1f77b4;"/>
   </g>
   <g id="patch_171">
    <path clip-path="url(#p35ead5b138)" d="M 261.45564 288.430125 
L 262.41758 288.430125 
L 262.41758 211.810132 
L 261.45564 211.810132 
z
" style="fill:#1f77b4;"/>
   </g>
   <g id="patch_172">
    <path clip-path="url(#p35ead5b138)" d="M 262.658064 288.430125 
L 263.620004 288.430125 
L 263.620004 223.999676 
L 262.658064 223.999676 
z
" style="fill:#1f77b4;"/>
   </g>
   <g id="patch_173">
    <path clip-path="url(#p35ead5b138)" d="M 263.860489 288.430125 
L 264.822428 288.430125 
L 264.822428 234.447857 
L 263.860489 234.447857 
z
" style="fill:#1f77b4;"/>
   </g>
   <g id="patch_174">
    <path clip-path="url(#p35ead5b138)" d="M 265.062913 288.430125 
L 266.024852 288.430125 
L 266.024852 195.504638 
L 265.062913 195.504638 
z
" style="fill:#1f77b4;"/>
   </g>
   <g id="patch_175">
    <path clip-path="url(#p35ead5b138)" d="M 266.265337 288.430125 
L 267.227277 288.430125 
L 267.227277 210.227074 
L 266.265337 210.227074 
z
" style="fill:#1f77b4;"/>
   </g>
   <g id="patch_176">
    <path clip-path="url(#p35ead5b138)" d="M 267.467761 288.430125 
L 268.429701 288.430125 
L 268.429701 219.408809 
L 267.467761 219.408809 
z
" style="fill:#1f77b4;"/>
   </g>
   <g id="patch_177">
    <path clip-path="url(#p35ead5b138)" d="M 268.670186 288.430125 
L 269.632125 288.430125 
L 269.632125 180.46559 
L 268.670186 180.46559 
z
" style="fill:#1f77b4;"/>
   </g>
   <g id="patch_178">
    <path clip-path="url(#p35ead5b138)" d="M 269.87261 288.430125 
L 270.834549 288.430125 
L 270.834549 246.162484 
L 269.87261 246.162484 
z
" style="fill:#1f77b4;"/>
   </g>
   <g id="patch_179">
    <path clip-path="url(#p35ead5b138)" d="M 271.075034 288.430125 
L 272.036973 288.430125 
L 272.036973 230.331907 
L 271.075034 230.331907 
z
" style="fill:#1f77b4;"/>
   </g>
   <g id="patch_180">
    <path clip-path="url(#p35ead5b138)" d="M 272.277458 288.430125 
L 273.239398 288.430125 
L 273.239398 219.725421 
L 272.277458 219.725421 
z
" style="fill:#1f77b4;"/>
   </g>
   <g id="patch_181">
    <path clip-path="url(#p35ead5b138)" d="M 273.479883 288.430125 
L 274.441822 288.430125 
L 274.441822 212.601661 
L 273.479883 212.601661 
z
" style="fill:#1f77b4;"/>
   </g>
   <g id="patch_182">
    <path clip-path="url(#p35ead5b138)" d="M 274.682307 288.430125 
L 275.644246 288.430125 
L 275.644246 195.662944 
L 274.682307 195.662944 
z
" style="fill:#1f77b4;"/>
   </g>
   <g id="patch_183">
    <path clip-path="url(#p35ead5b138)" d="M 275.884731 288.430125 
L 276.84667 288.430125 
L 276.84667 201.203646 
L 275.884731 201.203646 
z
" style="fill:#1f77b4;"/>
   </g>
   <g id="patch_184">
    <path clip-path="url(#p35ead5b138)" d="M 277.087155 288.430125 
L 278.049095 288.430125 
L 278.049095 164.951624 
L 277.087155 164.951624 
z
" style="fill:#1f77b4;"/>
   </g>
   <g id="patch_185">
    <path clip-path="url(#p35ead5b138)" d="M 278.28958 288.430125 
L 279.251519 288.430125 
L 279.251519 165.268236 
L 278.28958 165.268236 
z
" style="fill:#1f77b4;"/>
   </g>
   <g id="patch_186">
    <path clip-path="url(#p35ead5b138)" d="M 279.492004 288.430125 
L 280.453943 288.430125 
L 280.453943 221.941701 
L 279.492004 221.941701 
z
" style="fill:#1f77b4;"/>
   </g>
   <g id="patch_187">
    <path clip-path="url(#p35ead5b138)" d="M 280.694428 288.430125 
L 281.656367 288.430125 
L 281.656367 218.300669 
L 280.694428 218.300669 
z
" style="fill:#1f77b4;"/>
   </g>
   <g id="patch_188">
    <path clip-path="url(#p35ead5b138)" d="M 281.896852 288.430125 
L 282.858792 288.430125 
L 282.858792 185.214763 
L 281.896852 185.214763 
z
" style="fill:#1f77b4;"/>
   </g>
   <g id="patch_189">
    <path clip-path="url(#p35ead5b138)" d="M 283.099277 288.430125 
L 284.061216 288.430125 
L 284.061216 140.730841 
L 283.099277 140.730841 
z
" style="fill:#1f77b4;"/>
   </g>
   <g id="patch_190">
    <path clip-path="url(#p35ead5b138)" d="M 284.301701 288.430125 
L 285.26364 288.430125 
L 285.26364 129.491132 
L 284.301701 129.491132 
z
" style="fill:#1f77b4;"/>
   </g>
   <g id="patch_191">
    <path clip-path="url(#p35ead5b138)" d="M 285.504125 288.430125 
L 286.466064 288.430125 
L 286.466064 82.157706 
L 285.504125 82.157706 
z
" style="fill:#1f77b4;"/>
   </g>
   <g id="patch_192">
    <path clip-path="url(#p35ead5b138)" d="M 286.706549 288.430125 
L 287.668489 288.430125 
L 287.668489 179.515755 
L 286.706549 179.515755 
z
" style="fill:#1f77b4;"/>
   </g>
   <g id="patch_193">
    <path clip-path="url(#p35ead5b138)" d="M 287.908973 288.430125 
L 288.870913 288.430125 
L 288.870913 199.145671 
L 287.908973 199.145671 
z
" style="fill:#1f77b4;"/>
   </g>
   <g id="patch_194">
    <path clip-path="url(#p35ead5b138)" d="M 289.111398 288.430125 
L 290.073337 288.430125 
L 290.073337 220.200338 
L 289.111398 220.200338 
z
" style="fill:#1f77b4;"/>
   </g>
   <g id="patch_195">
    <path clip-path="url(#p35ead5b138)" d="M 290.313822 288.430125 
L 291.275761 288.430125 
L 291.275761 183.473399 
L 290.313822 183.473399 
z
" style="fill:#1f77b4;"/>
   </g>
   <g id="patch_196">
    <path clip-path="url(#p35ead5b138)" d="M 291.516246 288.430125 
L 292.478186 288.430125 
L 292.478186 171.917078 
L 291.516246 171.917078 
z
" style="fill:#1f77b4;"/>
   </g>
   <g id="patch_197">
    <path clip-path="url(#p35ead5b138)" d="M 292.71867 288.430125 
L 293.68061 288.430125 
L 293.68061 117.143281 
L 292.71867 117.143281 
z
" style="fill:#1f77b4;"/>
   </g>
   <g id="patch_198">
    <path clip-path="url(#p35ead5b138)" d="M 293.921095 288.430125 
L 294.883034 288.430125 
L 294.883034 178.249309 
L 293.921095 178.249309 
z
" style="fill:#1f77b4;"/>
   </g>
   <g id="patch_199">
    <path clip-path="url(#p35ead5b138)" d="M 295.123519 288.430125 
L 296.085458 288.430125 
L 296.085458 180.148978 
L 295.123519 180.148978 
z
" style="fill:#1f77b4;"/>
   </g>
   <g id="patch_200">
    <path clip-path="url(#p35ead5b138)" d="M 296.325943 288.430125 
L 297.287883 288.430125 
L 297.287883 224.474594 
L 296.325943 224.474594 
z
" style="fill:#1f77b4;"/>
   </g>
   <g id="patch_201">
    <path clip-path="url(#p35ead5b138)" d="M 297.528367 288.430125 
L 298.490307 288.430125 
L 298.490307 211.493521 
L 297.528367 211.493521 
z
" style="fill:#1f77b4;"/>
   </g>
   <g id="patch_202">
    <path clip-path="url(#p35ead5b138)" d="M 298.730792 288.430125 
L 299.692731 288.430125 
L 299.692731 177.774392 
L 298.730792 177.774392 
z
" style="fill:#1f77b4;"/>
   </g>
   <g id="patch_203">
    <path clip-path="url(#p35ead5b138)" d="M 299.933216 288.430125 
L 300.895155 288.430125 
L 300.895155 142.788816 
L 299.933216 142.788816 
z
" style="fill:#1f77b4;"/>
   </g>
   <g id="patch_204">
    <path clip-path="url(#p35ead5b138)" d="M 301.13564 288.430125 
L 302.09758 288.430125 
L 302.09758 167.801128 
L 301.13564 167.801128 
z
" style="fill:#1f77b4;"/>
   </g>
   <g id="patch_205">
    <path clip-path="url(#p35ead5b138)" d="M 302.338064 288.430125 
L 303.300004 288.430125 
L 303.300004 177.299474 
L 302.338064 177.299474 
z
" style="fill:#1f77b4;"/>
   </g>
   <g id="patch_206">
    <path clip-path="url(#p35ead5b138)" d="M 303.540489 288.430125 
L 304.502428 288.430125 
L 304.502428 211.493521 
L 303.540489 211.493521 
z
" style="fill:#1f77b4;"/>
   </g>
   <g id="patch_207">
    <path clip-path="url(#p35ead5b138)" d="M 304.742913 288.430125 
L 305.704852 288.430125 
L 305.704852 236.98075 
L 304.742913 236.98075 
z
" style="fill:#1f77b4;"/>
   </g>
   <g id="patch_208">
    <path clip-path="url(#p35ead5b138)" d="M 305.945337 288.430125 
L 306.907277 288.430125 
L 306.907277 204.369761 
L 305.945337 204.369761 
z
" style="fill:#1f77b4;"/>
   </g>
   <g id="patch_209">
    <path clip-path="url(#p35ead5b138)" d="M 307.147761 288.430125 
L 308.109701 288.430125 
L 308.109701 161.468897 
L 307.147761 161.468897 
z
" style="fill:#1f77b4;"/>
   </g>
   <g id="patch_210">
    <path clip-path="url(#p35ead5b138)" d="M 308.350186 288.430125 
L 309.312125 288.430125 
L 309.312125 113.660555 
L 308.350186 113.660555 
z
" style="fill:#1f77b4;"/>
   </g>
   <g id="patch_211">
    <path clip-path="url(#p35ead5b138)" d="M 309.55261 288.430125 
L 310.514549 288.430125 
L 310.514549 164.476707 
L 309.55261 164.476707 
z
" style="fill:#1f77b4;"/>
   </g>
   <g id="patch_212">
    <path clip-path="url(#p35ead5b138)" d="M 310.755034 288.430125 
L 311.716973 288.430125 
L 311.716973 138.197949 
L 310.755034 138.197949 
z
" style="fill:#1f77b4;"/>
   </g>
   <g id="patch_213">
    <path clip-path="url(#p35ead5b138)" d="M 311.957458 288.430125 
L 312.919398 288.430125 
L 312.919398 163.051955 
L 311.957458 163.051955 
z
" style="fill:#1f77b4;"/>
   </g>
   <g id="patch_214">
    <path clip-path="url(#p35ead5b138)" d="M 313.159883 288.430125 
L 314.121822 288.430125 
L 314.121822 207.694182 
L 313.159883 207.694182 
z
" style="fill:#1f77b4;"/>
   </g>
   <g id="patch_215">
    <path clip-path="url(#p35ead5b138)" d="M 314.362307 288.430125 
L 315.324246 288.430125 
L 315.324246 220.675255 
L 314.362307 220.675255 
z
" style="fill:#1f77b4;"/>
   </g>
   <g id="patch_216">
    <path clip-path="url(#p35ead5b138)" d="M 315.564731 288.430125 
L 316.52667 288.430125 
L 316.52667 175.399805 
L 315.564731 175.399805 
z
" style="fill:#1f77b4;"/>
   </g>
   <g id="patch_217">
    <path clip-path="url(#p35ead5b138)" d="M 316.767155 288.430125 
L 317.729095 288.430125 
L 317.729095 146.271543 
L 316.767155 146.271543 
z
" style="fill:#1f77b4;"/>
   </g>
   <g id="patch_218">
    <path clip-path="url(#p35ead5b138)" d="M 317.96958 288.430125 
L 318.931519 288.430125 
L 318.931519 117.301587 
L 317.96958 117.301587 
z
" style="fill:#1f77b4;"/>
   </g>
   <g id="patch_219">
    <path clip-path="url(#p35ead5b138)" d="M 319.172004 288.430125 
L 320.133943 288.430125 
L 320.133943 137.881337 
L 319.172004 137.881337 
z
" style="fill:#1f77b4;"/>
   </g>
   <g id="patch_220">
    <path clip-path="url(#p35ead5b138)" d="M 320.374428 288.430125 
L 321.336367 288.430125 
L 321.336367 129.966049 
L 320.374428 129.966049 
z
" style="fill:#1f77b4;"/>
   </g>
   <g id="patch_221">
    <path clip-path="url(#p35ead5b138)" d="M 321.576852 288.430125 
L 322.538792 288.430125 
L 322.538792 164.318401 
L 321.576852 164.318401 
z
" style="fill:#1f77b4;"/>
   </g>
   <g id="patch_222">
    <path clip-path="url(#p35ead5b138)" d="M 322.779277 288.430125 
L 323.741216 288.430125 
L 323.741216 127.749768 
L 322.779277 127.749768 
z
" style="fill:#1f77b4;"/>
   </g>
   <g id="patch_223">
    <path clip-path="url(#p35ead5b138)" d="M 323.981701 288.430125 
L 324.94364 288.430125 
L 324.94364 143.896957 
L 323.981701 143.896957 
z
" style="fill:#1f77b4;"/>
   </g>
   <g id="patch_224">
    <path clip-path="url(#p35ead5b138)" d="M 325.184125 288.430125 
L 326.146064 288.430125 
L 326.146064 109.386299 
L 325.184125 109.386299 
z
" style="fill:#1f77b4;"/>
   </g>
   <g id="patch_225">
    <path clip-path="url(#p35ead5b138)" d="M 326.386549 288.430125 
L 327.348489 288.430125 
L 327.348489 37.198867 
L 326.386549 37.198867 
z
" style="fill:#1f77b4;"/>
   </g>
   <g id="patch_226">
    <path clip-path="url(#p35ead5b138)" d="M 327.588973 288.430125 
L 328.550913 288.430125 
L 328.550913 110.177828 
L 327.588973 110.177828 
z
" style="fill:#1f77b4;"/>
   </g>
   <g id="patch_227">
    <path clip-path="url(#p35ead5b138)" d="M 328.791398 288.430125 
L 329.753337 288.430125 
L 329.753337 77.725145 
L 328.791398 77.725145 
z
" style="fill:#1f77b4;"/>
   </g>
   <g id="patch_228">
    <path clip-path="url(#p35ead5b138)" d="M 329.993822 288.430125 
L 330.955761 288.430125 
L 330.955761 102.895762 
L 329.993822 102.895762 
z
" style="fill:#1f77b4;"/>
   </g>
   <g id="patch_229">
    <path clip-path="url(#p35ead5b138)" d="M 331.196246 288.430125 
L 332.158186 288.430125 
L 332.158186 129.491132 
L 331.196246 129.491132 
z
" style="fill:#1f77b4;"/>
   </g>
   <g id="patch_230">
    <path clip-path="url(#p35ead5b138)" d="M 332.39867 288.430125 
L 333.36061 288.430125 
L 333.36061 147.063072 
L 332.39867 147.063072 
z
" style="fill:#1f77b4;"/>
   </g>
   <g id="patch_231">
    <path clip-path="url(#p35ead5b138)" d="M 333.601095 288.430125 
L 334.563034 288.430125 
L 334.563034 97.988283 
L 333.601095 97.988283 
z
" style="fill:#1f77b4;"/>
   </g>
   <g id="patch_232">
    <path clip-path="url(#p35ead5b138)" d="M 334.803519 288.430125 
L 335.765458 288.430125 
L 335.765458 97.196754 
L 334.803519 97.196754 
z
" style="fill:#1f77b4;"/>
   </g>
   <g id="patch_233">
    <path clip-path="url(#p35ead5b138)" d="M 336.005943 288.430125 
L 336.967883 288.430125 
L 336.967883 55.404031 
L 336.005943 55.404031 
z
" style="fill:#1f77b4;"/>
   </g>
   <g id="patch_234">
    <path clip-path="url(#p35ead5b138)" d="M 337.208367 288.430125 
L 338.170307 288.430125 
L 338.170307 53.820973 
L 337.208367 53.820973 
z
" style="fill:#1f77b4;"/>
   </g>
   <g id="patch_235">
    <path clip-path="url(#p35ead5b138)" d="M 338.410792 288.430125 
L 339.372731 288.430125 
L 339.372731 134.873528 
L 338.410792 134.873528 
z
" style="fill:#1f77b4;"/>
   </g>
   <g id="patch_236">
    <path clip-path="url(#p35ead5b138)" d="M 339.613216 288.430125 
L 340.575155 288.430125 
L 340.575155 120.151091 
L 339.613216 120.151091 
z
" style="fill:#1f77b4;"/>
   </g>
   <g id="patch_237">
    <path clip-path="url(#p35ead5b138)" d="M 340.81564 288.430125 
L 341.77758 288.430125 
L 341.77758 173.816747 
L 340.81564 173.816747 
z
" style="fill:#1f77b4;"/>
   </g>
   <g id="patch_238">
    <path clip-path="url(#p35ead5b138)" d="M 342.018064 288.430125 
L 342.980004 288.430125 
L 342.980004 24.534406 
L 342.018064 24.534406 
z
" style="fill:#1f77b4;"/>
   </g>
   <g id="patch_239">
    <path clip-path="url(#p35ead5b138)" d="M 343.220489 288.430125 
L 344.182428 288.430125 
L 344.182428 78.674979 
L 343.220489 78.674979 
z
" style="fill:#1f77b4;"/>
   </g>
   <g id="patch_240">
    <path clip-path="url(#p35ead5b138)" d="M 344.422913 288.430125 
L 345.384852 288.430125 
L 345.384852 22.318125 
L 344.422913 22.318125 
z
" style="fill:#1f77b4;"/>
   </g>
   <g id="patch_241">
    <path clip-path="url(#p35ead5b138)" d="M 345.625337 288.430125 
L 346.587277 288.430125 
L 346.587277 118.726339 
L 345.625337 118.726339 
z
" style="fill:#1f77b4;"/>
   </g>
   <g id="patch_242">
    <path clip-path="url(#p35ead5b138)" d="M 346.827761 288.430125 
L 347.789701 288.430125 
L 347.789701 71.076302 
L 346.827761 71.076302 
z
" style="fill:#1f77b4;"/>
   </g>
   <g id="patch_243">
    <path clip-path="url(#p35ead5b138)" d="M 348.030186 288.430125 
L 348.992125 288.430125 
L 348.992125 163.051955 
L 348.030186 163.051955 
z
" style="fill:#1f77b4;"/>
   </g>
   <g id="patch_244">
    <path clip-path="url(#p35ead5b138)" d="M 349.23261 288.430125 
L 350.194549 288.430125 
L 350.194549 163.843484 
L 349.23261 163.843484 
z
" style="fill:#1f77b4;"/>
   </g>
   <g id="patch_245">
    <path clip-path="url(#p35ead5b138)" d="M 350.435034 288.430125 
L 351.396973 288.430125 
L 351.396973 61.577956 
L 350.435034 61.577956 
z
" style="fill:#1f77b4;"/>
   </g>
   <g id="patch_246">
    <path clip-path="url(#p35ead5b138)" d="M 351.637458 288.430125 
L 352.599398 288.430125 
L 352.599398 95.930308 
L 351.637458 95.930308 
z
" style="fill:#1f77b4;"/>
   </g>
   <g id="patch_247">
    <path clip-path="url(#p35ead5b138)" d="M 352.839883 288.430125 
L 353.801822 288.430125 
L 353.801822 117.618199 
L 352.839883 117.618199 
z
" style="fill:#1f77b4;"/>
   </g>
   <g id="patch_248">
    <path clip-path="url(#p35ead5b138)" d="M 354.042307 288.430125 
L 355.004246 288.430125 
L 355.004246 141.205759 
L 354.042307 141.205759 
z
" style="fill:#1f77b4;"/>
   </g>
   <g id="patch_249">
    <path clip-path="url(#p35ead5b138)" d="M 355.244731 288.430125 
L 356.20667 288.430125 
L 356.20667 155.294972 
L 355.244731 155.294972 
z
" style="fill:#1f77b4;"/>
   </g>
   <g id="patch_250">
    <path clip-path="url(#p35ead5b138)" d="M 356.447155 288.430125 
L 357.409095 288.430125 
L 357.409095 218.300669 
L 356.447155 218.300669 
z
" style="fill:#1f77b4;"/>
   </g>
   <g id="patch_251">
    <path clip-path="url(#p35ead5b138)" d="M 357.64958 288.430125 
L 358.611519 288.430125 
L 358.611519 107.170018 
L 357.64958 107.170018 
z
" style="fill:#1f77b4;"/>
   </g>
   <g id="patch_252">
    <path clip-path="url(#p35ead5b138)" d="M 358.852004 288.430125 
L 359.813943 288.430125 
L 359.813943 100.046258 
L 358.852004 100.046258 
z
" style="fill:#1f77b4;"/>
   </g>
   <g id="patch_253">
    <path clip-path="url(#p35ead5b138)" d="M 360.054428 288.430125 
L 361.016367 288.430125 
L 361.016367 113.343943 
L 360.054428 113.343943 
z
" style="fill:#1f77b4;"/>
   </g>
   <g id="patch_254">
    <path clip-path="url(#p35ead5b138)" d="M 361.256852 288.430125 
L 362.218792 288.430125 
L 362.218792 127.433157 
L 361.256852 127.433157 
z
" style="fill:#1f77b4;"/>
   </g>
   <g id="patch_255">
    <path clip-path="url(#p35ead5b138)" d="M 362.459277 288.430125 
L 363.421216 288.430125 
L 363.421216 139.464395 
L 362.459277 139.464395 
z
" style="fill:#1f77b4;"/>
   </g>
   <g id="patch_256">
    <path clip-path="url(#p35ead5b138)" d="M 363.661701 288.430125 
L 364.62364 288.430125 
L 364.62364 219.250503 
L 363.661701 219.250503 
z
" style="fill:#1f77b4;"/>
   </g>
   <g id="patch_257">
    <path clip-path="url(#p35ead5b138)" d="M 364.864125 288.430125 
L 365.826064 288.430125 
L 365.826064 234.289552 
L 364.864125 234.289552 
z
" style="fill:#1f77b4;"/>
   </g>
   <g id="patch_258">
    <path clip-path="url(#p35ead5b138)" d="M 366.066549 288.430125 
L 367.028489 288.430125 
L 367.028489 191.705299 
L 366.066549 191.705299 
z
" style="fill:#1f77b4;"/>
   </g>
   <g id="patch_259">
    <path clip-path="url(#p35ead5b138)" d="M 367.268973 288.430125 
L 368.230913 288.430125 
L 368.230913 207.852488 
L 367.268973 207.852488 
z
" style="fill:#1f77b4;"/>
   </g>
   <g id="patch_260">
    <path clip-path="url(#p35ead5b138)" d="M 368.471398 288.430125 
L 369.433337 288.430125 
L 369.433337 200.887034 
L 368.471398 200.887034 
z
" style="fill:#1f77b4;"/>
   </g>
   <g id="patch_261">
    <path clip-path="url(#p35ead5b138)" d="M 369.673822 288.430125 
L 370.635761 288.430125 
L 370.635761 204.211455 
L 369.673822 204.211455 
z
" style="fill:#1f77b4;"/>
   </g>
   <g id="patch_262">
    <path clip-path="url(#p35ead5b138)" d="M 370.876246 288.430125 
L 371.838186 288.430125 
L 371.838186 122.209066 
L 370.876246 122.209066 
z
" style="fill:#1f77b4;"/>
   </g>
   <g id="patch_263">
    <path clip-path="url(#p35ead5b138)" d="M 372.07867 288.430125 
L 373.04061 288.430125 
L 373.04061 232.8648 
L 372.07867 232.8648 
z
" style="fill:#1f77b4;"/>
   </g>
   <g id="patch_264">
    <path clip-path="url(#p35ead5b138)" d="M 373.281095 288.430125 
L 374.243034 288.430125 
L 374.243034 248.378765 
L 373.281095 248.378765 
z
" style="fill:#1f77b4;"/>
   </g>
   <g id="patch_265">
    <path clip-path="url(#p35ead5b138)" d="M 374.483519 288.430125 
L 375.445458 288.430125 
L 375.445458 198.987365 
L 374.483519 198.987365 
z
" style="fill:#1f77b4;"/>
   </g>
   <g id="patch_266">
    <path clip-path="url(#p35ead5b138)" d="M 375.685943 288.430125 
L 376.647883 288.430125 
L 376.647883 190.755465 
L 375.685943 190.755465 
z
" style="fill:#1f77b4;"/>
   </g>
   <g id="patch_267">
    <path clip-path="url(#p35ead5b138)" d="M 376.888367 288.430125 
L 377.850307 288.430125 
L 377.850307 192.021911 
L 376.888367 192.021911 
z
" style="fill:#1f77b4;"/>
   </g>
   <g id="patch_268">
    <path clip-path="url(#p35ead5b138)" d="M 378.090792 288.430125 
L 379.052731 288.430125 
L 379.052731 202.15348 
L 378.090792 202.15348 
z
" style="fill:#1f77b4;"/>
   </g>
   <g id="patch_269">
    <path clip-path="url(#p35ead5b138)" d="M 379.293216 288.430125 
L 380.255155 288.430125 
L 380.255155 206.26943 
L 379.293216 206.26943 
z
" style="fill:#1f77b4;"/>
   </g>
   <g id="patch_270">
    <path clip-path="url(#p35ead5b138)" d="M 380.49564 288.430125 
L 381.45758 288.430125 
L 381.45758 242.996369 
L 380.49564 242.996369 
z
" style="fill:#1f77b4;"/>
   </g>
   <g id="patch_271">
    <path clip-path="url(#p35ead5b138)" d="M 381.698064 288.430125 
L 382.660004 288.430125 
L 382.660004 249.961823 
L 381.698064 249.961823 
z
" style="fill:#1f77b4;"/>
   </g>
   <g id="patch_272">
    <path clip-path="url(#p35ead5b138)" d="M 382.900489 288.430125 
L 383.862428 288.430125 
L 383.862428 212.759967 
L 382.900489 212.759967 
z
" style="fill:#1f77b4;"/>
   </g>
   <g id="patch_273">
    <path clip-path="url(#p35ead5b138)" d="M 384.102913 288.430125 
L 385.064852 288.430125 
L 385.064852 200.887034 
L 384.102913 200.887034 
z
" style="fill:#1f77b4;"/>
   </g>
   <g id="patch_274">
    <path clip-path="url(#p35ead5b138)" d="M 385.305337 288.430125 
L 386.267277 288.430125 
L 386.267277 222.891536 
L 385.305337 222.891536 
z
" style="fill:#1f77b4;"/>
   </g>
   <g id="patch_275">
    <path clip-path="url(#p35ead5b138)" d="M 386.507761 288.430125 
L 387.469701 288.430125 
L 387.469701 181.732036 
L 386.507761 181.732036 
z
" style="fill:#1f77b4;"/>
   </g>
   <g id="patch_276">
    <path clip-path="url(#p35ead5b138)" d="M 387.710186 288.430125 
L 388.672125 288.430125 
L 388.672125 204.844678 
L 387.710186 204.844678 
z
" style="fill:#1f77b4;"/>
   </g>
   <g id="patch_277">
    <path clip-path="url(#p35ead5b138)" d="M 388.91261 288.430125 
L 389.874549 288.430125 
L 389.874549 238.247196 
L 388.91261 238.247196 
z
" style="fill:#1f77b4;"/>
   </g>
   <g id="patch_278">
    <path clip-path="url(#p35ead5b138)" d="M 390.115034 288.430125 
L 391.076973 288.430125 
L 391.076973 248.537071 
L 390.115034 248.537071 
z
" style="fill:#1f77b4;"/>
   </g>
   <g id="patch_279">
    <path clip-path="url(#p35ead5b138)" d="M 391.317458 288.430125 
L 392.279398 288.430125 
L 392.279398 206.26943 
L 391.317458 206.26943 
z
" style="fill:#1f77b4;"/>
   </g>
   <g id="patch_280">
    <path clip-path="url(#p35ead5b138)" d="M 392.519883 288.430125 
L 393.481822 288.430125 
L 393.481822 191.230382 
L 392.519883 191.230382 
z
" style="fill:#1f77b4;"/>
   </g>
   <g id="patch_281">
    <path clip-path="url(#p35ead5b138)" d="M 393.722307 288.430125 
L 394.684246 288.430125 
L 394.684246 222.258313 
L 393.722307 222.258313 
z
" style="fill:#1f77b4;"/>
   </g>
   <g id="patch_282">
    <path clip-path="url(#p35ead5b138)" d="M 394.924731 288.430125 
L 395.88667 288.430125 
L 395.88667 217.034223 
L 394.924731 217.034223 
z
" style="fill:#1f77b4;"/>
   </g>
   <g id="patch_283">
    <path clip-path="url(#p35ead5b138)" d="M 396.127155 288.430125 
L 397.089095 288.430125 
L 397.089095 199.303976 
L 396.127155 199.303976 
z
" style="fill:#1f77b4;"/>
   </g>
   <g id="patch_284">
    <path clip-path="url(#p35ead5b138)" d="M 397.32958 288.430125 
L 398.291519 288.430125 
L 398.291519 268.325292 
L 397.32958 268.325292 
z
" style="fill:#1f77b4;"/>
   </g>
   <g id="patch_285">
    <path clip-path="url(#p35ead5b138)" d="M 398.532004 288.430125 
L 399.493943 288.430125 
L 399.493943 229.540378 
L 398.532004 229.540378 
z
" style="fill:#1f77b4;"/>
   </g>
   <g id="patch_286">
    <path clip-path="url(#p35ead5b138)" d="M 399.734428 288.430125 
L 400.696367 288.430125 
L 400.696367 203.261621 
L 399.734428 203.261621 
z
" style="fill:#1f77b4;"/>
   </g>
   <g id="patch_287">
    <path clip-path="url(#p35ead5b138)" d="M 400.936852 288.430125 
L 401.898792 288.430125 
L 401.898792 200.412117 
L 400.936852 200.412117 
z
" style="fill:#1f77b4;"/>
   </g>
   <g id="patch_288">
    <path clip-path="url(#p35ead5b138)" d="M 402.139277 288.430125 
L 403.101216 288.430125 
L 403.101216 196.296167 
L 402.139277 196.296167 
z
" style="fill:#1f77b4;"/>
   </g>
   <g id="patch_289">
    <path clip-path="url(#p35ead5b138)" d="M 403.341701 288.430125 
L 404.30364 288.430125 
L 404.30364 276.240581 
L 403.341701 276.240581 
z
" style="fill:#1f77b4;"/>
   </g>
   <g id="patch_290">
    <path clip-path="url(#p35ead5b138)" d="M 404.544125 288.430125 
L 405.506064 288.430125 
L 405.506064 251.544881 
L 404.544125 251.544881 
z
" style="fill:#1f77b4;"/>
   </g>
   <g id="patch_291">
    <path clip-path="url(#p35ead5b138)" d="M 405.746549 288.430125 
L 406.708489 288.430125 
L 406.708489 224.791205 
L 405.746549 224.791205 
z
" style="fill:#1f77b4;"/>
   </g>
   <g id="patch_292">
    <path clip-path="url(#p35ead5b138)" d="M 406.948973 288.430125 
L 407.910913 288.430125 
L 407.910913 260.251698 
L 406.948973 260.251698 
z
" style="fill:#1f77b4;"/>
   </g>
   <g id="patch_293">
    <path clip-path="url(#p35ead5b138)" d="M 408.151398 288.430125 
L 409.113337 288.430125 
L 409.113337 198.987365 
L 408.151398 198.987365 
z
" style="fill:#1f77b4;"/>
   </g>
   <g id="patch_294">
    <path clip-path="url(#p35ead5b138)" d="M 409.353822 288.430125 
L 410.315761 288.430125 
L 410.315761 198.829059 
L 409.353822 198.829059 
z
" style="fill:#1f77b4;"/>
   </g>
   <g id="patch_295">
    <path clip-path="url(#p35ead5b138)" d="M 410.556246 288.430125 
L 411.518186 288.430125 
L 411.518186 183.948317 
L 410.556246 183.948317 
z
" style="fill:#1f77b4;"/>
   </g>
   <g id="patch_296">
    <path clip-path="url(#p35ead5b138)" d="M 411.75867 288.430125 
L 412.72061 288.430125 
L 412.72061 251.228269 
L 411.75867 251.228269 
z
" style="fill:#1f77b4;"/>
   </g>
   <g id="patch_297">
    <path clip-path="url(#p35ead5b138)" d="M 412.961095 288.430125 
L 413.923034 288.430125 
L 413.923034 259.143557 
L 412.961095 259.143557 
z
" style="fill:#1f77b4;"/>
   </g>
   <g id="patch_298">
    <path clip-path="url(#p35ead5b138)" d="M 414.163519 288.430125 
L 415.125458 288.430125 
L 415.125458 238.405502 
L 414.163519 238.405502 
z
" style="fill:#1f77b4;"/>
   </g>
   <g id="patch_299">
    <path clip-path="url(#p35ead5b138)" d="M 415.365943 288.430125 
L 416.327883 288.430125 
L 416.327883 251.861492 
L 415.365943 251.861492 
z
" style="fill:#1f77b4;"/>
   </g>
   <g id="matplotlib.axis_1">
    <g id="xtick_1">
     <g id="line2d_1">
      <defs>
       <path d="M 0 0 
L 0 3.5 
" id="mcc3e719b1b" style="stroke:#000000;stroke-width:0.8;"/>
      </defs>
      <g>
       <use style="stroke:#000000;stroke-width:0.8;" x="80.370549" xlink:href="#mcc3e719b1b" y="288.430125"/>
      </g>
     </g>
     <g id="text_1">
      <!-- 2020-04 -->
      <g transform="translate(83.129924 337.212937)rotate(-90)scale(0.1 -0.1)">
       <defs>
        <path d="M 19.1875 8.296875 
L 53.609375 8.296875 
L 53.609375 0 
L 7.328125 0 
L 7.328125 8.296875 
Q 12.9375 14.109375 22.625 23.890625 
Q 32.328125 33.6875 34.8125 36.53125 
Q 39.546875 41.84375 41.421875 45.53125 
Q 43.3125 49.21875 43.3125 52.78125 
Q 43.3125 58.59375 39.234375 62.25 
Q 35.15625 65.921875 28.609375 65.921875 
Q 23.96875 65.921875 18.8125 64.3125 
Q 13.671875 62.703125 7.8125 59.421875 
L 7.8125 69.390625 
Q 13.765625 71.78125 18.9375 73 
Q 24.125 74.21875 28.421875 74.21875 
Q 39.75 74.21875 46.484375 68.546875 
Q 53.21875 62.890625 53.21875 53.421875 
Q 53.21875 48.921875 51.53125 44.890625 
Q 49.859375 40.875 45.40625 35.40625 
Q 44.1875 33.984375 37.640625 27.21875 
Q 31.109375 20.453125 19.1875 8.296875 
z
" id="DejaVuSans-50"/>
        <path d="M 31.78125 66.40625 
Q 24.171875 66.40625 20.328125 58.90625 
Q 16.5 51.421875 16.5 36.375 
Q 16.5 21.390625 20.328125 13.890625 
Q 24.171875 6.390625 31.78125 6.390625 
Q 39.453125 6.390625 43.28125 13.890625 
Q 47.125 21.390625 47.125 36.375 
Q 47.125 51.421875 43.28125 58.90625 
Q 39.453125 66.40625 31.78125 66.40625 
z
M 31.78125 74.21875 
Q 44.046875 74.21875 50.515625 64.515625 
Q 56.984375 54.828125 56.984375 36.375 
Q 56.984375 17.96875 50.515625 8.265625 
Q 44.046875 -1.421875 31.78125 -1.421875 
Q 19.53125 -1.421875 13.0625 8.265625 
Q 6.59375 17.96875 6.59375 36.375 
Q 6.59375 54.828125 13.0625 64.515625 
Q 19.53125 74.21875 31.78125 74.21875 
z
" id="DejaVuSans-48"/>
        <path d="M 4.890625 31.390625 
L 31.203125 31.390625 
L 31.203125 23.390625 
L 4.890625 23.390625 
z
" id="DejaVuSans-45"/>
        <path d="M 37.796875 64.3125 
L 12.890625 25.390625 
L 37.796875 25.390625 
z
M 35.203125 72.90625 
L 47.609375 72.90625 
L 47.609375 25.390625 
L 58.015625 25.390625 
L 58.015625 17.1875 
L 47.609375 17.1875 
L 47.609375 0 
L 37.796875 0 
L 37.796875 17.1875 
L 4.890625 17.1875 
L 4.890625 26.703125 
z
" id="DejaVuSans-52"/>
       </defs>
       <use xlink:href="#DejaVuSans-50"/>
       <use x="63.623047" xlink:href="#DejaVuSans-48"/>
       <use x="127.246094" xlink:href="#DejaVuSans-50"/>
       <use x="190.869141" xlink:href="#DejaVuSans-48"/>
       <use x="254.492188" xlink:href="#DejaVuSans-45"/>
       <use x="290.576172" xlink:href="#DejaVuSans-48"/>
       <use x="354.199219" xlink:href="#DejaVuSans-52"/>
      </g>
     </g>
    </g>
    <g id="xtick_2">
     <g id="line2d_2">
      <g>
       <use style="stroke:#000000;stroke-width:0.8;" x="116.443277" xlink:href="#mcc3e719b1b" y="288.430125"/>
      </g>
     </g>
     <g id="text_2">
      <!-- 2020-05 -->
      <g transform="translate(119.202652 337.212937)rotate(-90)scale(0.1 -0.1)">
       <defs>
        <path d="M 10.796875 72.90625 
L 49.515625 72.90625 
L 49.515625 64.59375 
L 19.828125 64.59375 
L 19.828125 46.734375 
Q 21.96875 47.46875 24.109375 47.828125 
Q 26.265625 48.1875 28.421875 48.1875 
Q 40.625 48.1875 47.75 41.5 
Q 54.890625 34.8125 54.890625 23.390625 
Q 54.890625 11.625 47.5625 5.09375 
Q 40.234375 -1.421875 26.90625 -1.421875 
Q 22.3125 -1.421875 17.546875 -0.640625 
Q 12.796875 0.140625 7.71875 1.703125 
L 7.71875 11.625 
Q 12.109375 9.234375 16.796875 8.0625 
Q 21.484375 6.890625 26.703125 6.890625 
Q 35.15625 6.890625 40.078125 11.328125 
Q 45.015625 15.765625 45.015625 23.390625 
Q 45.015625 31 40.078125 35.4375 
Q 35.15625 39.890625 26.703125 39.890625 
Q 22.75 39.890625 18.8125 39.015625 
Q 14.890625 38.140625 10.796875 36.28125 
z
" id="DejaVuSans-53"/>
       </defs>
       <use xlink:href="#DejaVuSans-50"/>
       <use x="63.623047" xlink:href="#DejaVuSans-48"/>
       <use x="127.246094" xlink:href="#DejaVuSans-50"/>
       <use x="190.869141" xlink:href="#DejaVuSans-48"/>
       <use x="254.492188" xlink:href="#DejaVuSans-45"/>
       <use x="290.576172" xlink:href="#DejaVuSans-48"/>
       <use x="354.199219" xlink:href="#DejaVuSans-53"/>
      </g>
     </g>
    </g>
    <g id="xtick_3">
     <g id="line2d_3">
      <g>
       <use style="stroke:#000000;stroke-width:0.8;" x="153.718428" xlink:href="#mcc3e719b1b" y="288.430125"/>
      </g>
     </g>
     <g id="text_3">
      <!-- 2020-06 -->
      <g transform="translate(156.477803 337.212937)rotate(-90)scale(0.1 -0.1)">
       <defs>
        <path d="M 33.015625 40.375 
Q 26.375 40.375 22.484375 35.828125 
Q 18.609375 31.296875 18.609375 23.390625 
Q 18.609375 15.53125 22.484375 10.953125 
Q 26.375 6.390625 33.015625 6.390625 
Q 39.65625 6.390625 43.53125 10.953125 
Q 47.40625 15.53125 47.40625 23.390625 
Q 47.40625 31.296875 43.53125 35.828125 
Q 39.65625 40.375 33.015625 40.375 
z
M 52.59375 71.296875 
L 52.59375 62.3125 
Q 48.875 64.0625 45.09375 64.984375 
Q 41.3125 65.921875 37.59375 65.921875 
Q 27.828125 65.921875 22.671875 59.328125 
Q 17.53125 52.734375 16.796875 39.40625 
Q 19.671875 43.65625 24.015625 45.921875 
Q 28.375 48.1875 33.59375 48.1875 
Q 44.578125 48.1875 50.953125 41.515625 
Q 57.328125 34.859375 57.328125 23.390625 
Q 57.328125 12.15625 50.6875 5.359375 
Q 44.046875 -1.421875 33.015625 -1.421875 
Q 20.359375 -1.421875 13.671875 8.265625 
Q 6.984375 17.96875 6.984375 36.375 
Q 6.984375 53.65625 15.1875 63.9375 
Q 23.390625 74.21875 37.203125 74.21875 
Q 40.921875 74.21875 44.703125 73.484375 
Q 48.484375 72.75 52.59375 71.296875 
z
" id="DejaVuSans-54"/>
       </defs>
       <use xlink:href="#DejaVuSans-50"/>
       <use x="63.623047" xlink:href="#DejaVuSans-48"/>
       <use x="127.246094" xlink:href="#DejaVuSans-50"/>
       <use x="190.869141" xlink:href="#DejaVuSans-48"/>
       <use x="254.492188" xlink:href="#DejaVuSans-45"/>
       <use x="290.576172" xlink:href="#DejaVuSans-48"/>
       <use x="354.199219" xlink:href="#DejaVuSans-54"/>
      </g>
     </g>
    </g>
    <g id="xtick_4">
     <g id="line2d_4">
      <g>
       <use style="stroke:#000000;stroke-width:0.8;" x="189.791155" xlink:href="#mcc3e719b1b" y="288.430125"/>
      </g>
     </g>
     <g id="text_4">
      <!-- 2020-07 -->
      <g transform="translate(192.55053 337.212937)rotate(-90)scale(0.1 -0.1)">
       <defs>
        <path d="M 8.203125 72.90625 
L 55.078125 72.90625 
L 55.078125 68.703125 
L 28.609375 0 
L 18.3125 0 
L 43.21875 64.59375 
L 8.203125 64.59375 
z
" id="DejaVuSans-55"/>
       </defs>
       <use xlink:href="#DejaVuSans-50"/>
       <use x="63.623047" xlink:href="#DejaVuSans-48"/>
       <use x="127.246094" xlink:href="#DejaVuSans-50"/>
       <use x="190.869141" xlink:href="#DejaVuSans-48"/>
       <use x="254.492188" xlink:href="#DejaVuSans-45"/>
       <use x="290.576172" xlink:href="#DejaVuSans-48"/>
       <use x="354.199219" xlink:href="#DejaVuSans-55"/>
      </g>
     </g>
    </g>
    <g id="xtick_5">
     <g id="line2d_5">
      <g>
       <use style="stroke:#000000;stroke-width:0.8;" x="227.066307" xlink:href="#mcc3e719b1b" y="288.430125"/>
      </g>
     </g>
     <g id="text_5">
      <!-- 2020-08 -->
      <g transform="translate(229.825682 337.212937)rotate(-90)scale(0.1 -0.1)">
       <defs>
        <path d="M 31.78125 34.625 
Q 24.75 34.625 20.71875 30.859375 
Q 16.703125 27.09375 16.703125 20.515625 
Q 16.703125 13.921875 20.71875 10.15625 
Q 24.75 6.390625 31.78125 6.390625 
Q 38.8125 6.390625 42.859375 10.171875 
Q 46.921875 13.96875 46.921875 20.515625 
Q 46.921875 27.09375 42.890625 30.859375 
Q 38.875 34.625 31.78125 34.625 
z
M 21.921875 38.8125 
Q 15.578125 40.375 12.03125 44.71875 
Q 8.5 49.078125 8.5 55.328125 
Q 8.5 64.0625 14.71875 69.140625 
Q 20.953125 74.21875 31.78125 74.21875 
Q 42.671875 74.21875 48.875 69.140625 
Q 55.078125 64.0625 55.078125 55.328125 
Q 55.078125 49.078125 51.53125 44.71875 
Q 48 40.375 41.703125 38.8125 
Q 48.828125 37.15625 52.796875 32.3125 
Q 56.78125 27.484375 56.78125 20.515625 
Q 56.78125 9.90625 50.3125 4.234375 
Q 43.84375 -1.421875 31.78125 -1.421875 
Q 19.734375 -1.421875 13.25 4.234375 
Q 6.78125 9.90625 6.78125 20.515625 
Q 6.78125 27.484375 10.78125 32.3125 
Q 14.796875 37.15625 21.921875 38.8125 
z
M 18.3125 54.390625 
Q 18.3125 48.734375 21.84375 45.5625 
Q 25.390625 42.390625 31.78125 42.390625 
Q 38.140625 42.390625 41.71875 45.5625 
Q 45.3125 48.734375 45.3125 54.390625 
Q 45.3125 60.0625 41.71875 63.234375 
Q 38.140625 66.40625 31.78125 66.40625 
Q 25.390625 66.40625 21.84375 63.234375 
Q 18.3125 60.0625 18.3125 54.390625 
z
" id="DejaVuSans-56"/>
       </defs>
       <use xlink:href="#DejaVuSans-50"/>
       <use x="63.623047" xlink:href="#DejaVuSans-48"/>
       <use x="127.246094" xlink:href="#DejaVuSans-50"/>
       <use x="190.869141" xlink:href="#DejaVuSans-48"/>
       <use x="254.492188" xlink:href="#DejaVuSans-45"/>
       <use x="290.576172" xlink:href="#DejaVuSans-48"/>
       <use x="354.199219" xlink:href="#DejaVuSans-56"/>
      </g>
     </g>
    </g>
    <g id="xtick_6">
     <g id="line2d_6">
      <g>
       <use style="stroke:#000000;stroke-width:0.8;" x="264.341458" xlink:href="#mcc3e719b1b" y="288.430125"/>
      </g>
     </g>
     <g id="text_6">
      <!-- 2020-09 -->
      <g transform="translate(267.100833 337.212937)rotate(-90)scale(0.1 -0.1)">
       <defs>
        <path d="M 10.984375 1.515625 
L 10.984375 10.5 
Q 14.703125 8.734375 18.5 7.8125 
Q 22.3125 6.890625 25.984375 6.890625 
Q 35.75 6.890625 40.890625 13.453125 
Q 46.046875 20.015625 46.78125 33.40625 
Q 43.953125 29.203125 39.59375 26.953125 
Q 35.25 24.703125 29.984375 24.703125 
Q 19.046875 24.703125 12.671875 31.3125 
Q 6.296875 37.9375 6.296875 49.421875 
Q 6.296875 60.640625 12.9375 67.421875 
Q 19.578125 74.21875 30.609375 74.21875 
Q 43.265625 74.21875 49.921875 64.515625 
Q 56.59375 54.828125 56.59375 36.375 
Q 56.59375 19.140625 48.40625 8.859375 
Q 40.234375 -1.421875 26.421875 -1.421875 
Q 22.703125 -1.421875 18.890625 -0.6875 
Q 15.09375 0.046875 10.984375 1.515625 
z
M 30.609375 32.421875 
Q 37.25 32.421875 41.125 36.953125 
Q 45.015625 41.5 45.015625 49.421875 
Q 45.015625 57.28125 41.125 61.84375 
Q 37.25 66.40625 30.609375 66.40625 
Q 23.96875 66.40625 20.09375 61.84375 
Q 16.21875 57.28125 16.21875 49.421875 
Q 16.21875 41.5 20.09375 36.953125 
Q 23.96875 32.421875 30.609375 32.421875 
z
" id="DejaVuSans-57"/>
       </defs>
       <use xlink:href="#DejaVuSans-50"/>
       <use x="63.623047" xlink:href="#DejaVuSans-48"/>
       <use x="127.246094" xlink:href="#DejaVuSans-50"/>
       <use x="190.869141" xlink:href="#DejaVuSans-48"/>
       <use x="254.492188" xlink:href="#DejaVuSans-45"/>
       <use x="290.576172" xlink:href="#DejaVuSans-48"/>
       <use x="354.199219" xlink:href="#DejaVuSans-57"/>
      </g>
     </g>
    </g>
    <g id="xtick_7">
     <g id="line2d_7">
      <g>
       <use style="stroke:#000000;stroke-width:0.8;" x="300.414186" xlink:href="#mcc3e719b1b" y="288.430125"/>
      </g>
     </g>
     <g id="text_7">
      <!-- 2020-10 -->
      <g transform="translate(303.173561 337.212937)rotate(-90)scale(0.1 -0.1)">
       <defs>
        <path d="M 12.40625 8.296875 
L 28.515625 8.296875 
L 28.515625 63.921875 
L 10.984375 60.40625 
L 10.984375 69.390625 
L 28.421875 72.90625 
L 38.28125 72.90625 
L 38.28125 8.296875 
L 54.390625 8.296875 
L 54.390625 0 
L 12.40625 0 
z
" id="DejaVuSans-49"/>
       </defs>
       <use xlink:href="#DejaVuSans-50"/>
       <use x="63.623047" xlink:href="#DejaVuSans-48"/>
       <use x="127.246094" xlink:href="#DejaVuSans-50"/>
       <use x="190.869141" xlink:href="#DejaVuSans-48"/>
       <use x="254.492188" xlink:href="#DejaVuSans-45"/>
       <use x="290.576172" xlink:href="#DejaVuSans-49"/>
       <use x="354.199219" xlink:href="#DejaVuSans-48"/>
      </g>
     </g>
    </g>
    <g id="xtick_8">
     <g id="line2d_8">
      <g>
       <use style="stroke:#000000;stroke-width:0.8;" x="337.689337" xlink:href="#mcc3e719b1b" y="288.430125"/>
      </g>
     </g>
     <g id="text_8">
      <!-- 2020-11 -->
      <g transform="translate(340.448712 337.212937)rotate(-90)scale(0.1 -0.1)">
       <use xlink:href="#DejaVuSans-50"/>
       <use x="63.623047" xlink:href="#DejaVuSans-48"/>
       <use x="127.246094" xlink:href="#DejaVuSans-50"/>
       <use x="190.869141" xlink:href="#DejaVuSans-48"/>
       <use x="254.492188" xlink:href="#DejaVuSans-45"/>
       <use x="290.576172" xlink:href="#DejaVuSans-49"/>
       <use x="354.199219" xlink:href="#DejaVuSans-49"/>
      </g>
     </g>
    </g>
    <g id="xtick_9">
     <g id="line2d_9">
      <g>
       <use style="stroke:#000000;stroke-width:0.8;" x="373.762064" xlink:href="#mcc3e719b1b" y="288.430125"/>
      </g>
     </g>
     <g id="text_9">
      <!-- 2020-12 -->
      <g transform="translate(376.521439 337.212937)rotate(-90)scale(0.1 -0.1)">
       <use xlink:href="#DejaVuSans-50"/>
       <use x="63.623047" xlink:href="#DejaVuSans-48"/>
       <use x="127.246094" xlink:href="#DejaVuSans-50"/>
       <use x="190.869141" xlink:href="#DejaVuSans-48"/>
       <use x="254.492188" xlink:href="#DejaVuSans-45"/>
       <use x="290.576172" xlink:href="#DejaVuSans-49"/>
       <use x="354.199219" xlink:href="#DejaVuSans-50"/>
      </g>
     </g>
    </g>
    <g id="xtick_10">
     <g id="line2d_10">
      <g>
       <use style="stroke:#000000;stroke-width:0.8;" x="411.037216" xlink:href="#mcc3e719b1b" y="288.430125"/>
      </g>
     </g>
     <g id="text_10">
      <!-- 2021-01 -->
      <g transform="translate(413.796591 337.212937)rotate(-90)scale(0.1 -0.1)">
       <use xlink:href="#DejaVuSans-50"/>
       <use x="63.623047" xlink:href="#DejaVuSans-48"/>
       <use x="127.246094" xlink:href="#DejaVuSans-50"/>
       <use x="190.869141" xlink:href="#DejaVuSans-49"/>
       <use x="254.492188" xlink:href="#DejaVuSans-45"/>
       <use x="290.576172" xlink:href="#DejaVuSans-48"/>
       <use x="354.199219" xlink:href="#DejaVuSans-49"/>
      </g>
     </g>
    </g>
    <g id="text_11">
     <!-- date -->
     <g transform="translate(226.613125 354.811375)scale(0.1 -0.1)">
      <defs>
       <path d="M 45.40625 46.390625 
L 45.40625 75.984375 
L 54.390625 75.984375 
L 54.390625 0 
L 45.40625 0 
L 45.40625 8.203125 
Q 42.578125 3.328125 38.25 0.953125 
Q 33.9375 -1.421875 27.875 -1.421875 
Q 17.96875 -1.421875 11.734375 6.484375 
Q 5.515625 14.40625 5.515625 27.296875 
Q 5.515625 40.1875 11.734375 48.09375 
Q 17.96875 56 27.875 56 
Q 33.9375 56 38.25 53.625 
Q 42.578125 51.265625 45.40625 46.390625 
z
M 14.796875 27.296875 
Q 14.796875 17.390625 18.875 11.75 
Q 22.953125 6.109375 30.078125 6.109375 
Q 37.203125 6.109375 41.296875 11.75 
Q 45.40625 17.390625 45.40625 27.296875 
Q 45.40625 37.203125 41.296875 42.84375 
Q 37.203125 48.484375 30.078125 48.484375 
Q 22.953125 48.484375 18.875 42.84375 
Q 14.796875 37.203125 14.796875 27.296875 
z
" id="DejaVuSans-100"/>
       <path d="M 34.28125 27.484375 
Q 23.390625 27.484375 19.1875 25 
Q 14.984375 22.515625 14.984375 16.5 
Q 14.984375 11.71875 18.140625 8.90625 
Q 21.296875 6.109375 26.703125 6.109375 
Q 34.1875 6.109375 38.703125 11.40625 
Q 43.21875 16.703125 43.21875 25.484375 
L 43.21875 27.484375 
z
M 52.203125 31.203125 
L 52.203125 0 
L 43.21875 0 
L 43.21875 8.296875 
Q 40.140625 3.328125 35.546875 0.953125 
Q 30.953125 -1.421875 24.3125 -1.421875 
Q 15.921875 -1.421875 10.953125 3.296875 
Q 6 8.015625 6 15.921875 
Q 6 25.140625 12.171875 29.828125 
Q 18.359375 34.515625 30.609375 34.515625 
L 43.21875 34.515625 
L 43.21875 35.40625 
Q 43.21875 41.609375 39.140625 45 
Q 35.0625 48.390625 27.6875 48.390625 
Q 23 48.390625 18.546875 47.265625 
Q 14.109375 46.140625 10.015625 43.890625 
L 10.015625 52.203125 
Q 14.9375 54.109375 19.578125 55.046875 
Q 24.21875 56 28.609375 56 
Q 40.484375 56 46.34375 49.84375 
Q 52.203125 43.703125 52.203125 31.203125 
z
" id="DejaVuSans-97"/>
       <path d="M 18.3125 70.21875 
L 18.3125 54.6875 
L 36.8125 54.6875 
L 36.8125 47.703125 
L 18.3125 47.703125 
L 18.3125 18.015625 
Q 18.3125 11.328125 20.140625 9.421875 
Q 21.96875 7.515625 27.59375 7.515625 
L 36.8125 7.515625 
L 36.8125 0 
L 27.59375 0 
Q 17.1875 0 13.234375 3.875 
Q 9.28125 7.765625 9.28125 18.015625 
L 9.28125 47.703125 
L 2.6875 47.703125 
L 2.6875 54.6875 
L 9.28125 54.6875 
L 9.28125 70.21875 
z
" id="DejaVuSans-116"/>
       <path d="M 56.203125 29.59375 
L 56.203125 25.203125 
L 14.890625 25.203125 
Q 15.484375 15.921875 20.484375 11.0625 
Q 25.484375 6.203125 34.421875 6.203125 
Q 39.59375 6.203125 44.453125 7.46875 
Q 49.3125 8.734375 54.109375 11.28125 
L 54.109375 2.78125 
Q 49.265625 0.734375 44.1875 -0.34375 
Q 39.109375 -1.421875 33.890625 -1.421875 
Q 20.796875 -1.421875 13.15625 6.1875 
Q 5.515625 13.8125 5.515625 26.8125 
Q 5.515625 40.234375 12.765625 48.109375 
Q 20.015625 56 32.328125 56 
Q 43.359375 56 49.78125 48.890625 
Q 56.203125 41.796875 56.203125 29.59375 
z
M 47.21875 32.234375 
Q 47.125 39.59375 43.09375 43.984375 
Q 39.0625 48.390625 32.421875 48.390625 
Q 24.90625 48.390625 20.390625 44.140625 
Q 15.875 39.890625 15.1875 32.171875 
z
" id="DejaVuSans-101"/>
      </defs>
      <use xlink:href="#DejaVuSans-100"/>
      <use x="63.476562" xlink:href="#DejaVuSans-97"/>
      <use x="124.755859" xlink:href="#DejaVuSans-116"/>
      <use x="163.964844" xlink:href="#DejaVuSans-101"/>
     </g>
    </g>
   </g>
   <g id="matplotlib.axis_2">
    <g id="ytick_1">
     <g id="line2d_11">
      <defs>
       <path d="M 0 0 
L -3.5 0 
" id="m4ad17fc3ec" style="stroke:#000000;stroke-width:0.8;"/>
      </defs>
      <g>
       <use style="stroke:#000000;stroke-width:0.8;" x="59.328125" xlink:href="#m4ad17fc3ec" y="288.430125"/>
      </g>
     </g>
     <g id="text_12">
      <!-- 0 -->
      <g transform="translate(45.965625 292.229344)scale(0.1 -0.1)">
       <use xlink:href="#DejaVuSans-48"/>
      </g>
     </g>
    </g>
    <g id="ytick_2">
     <g id="line2d_12">
      <g>
       <use style="stroke:#000000;stroke-width:0.8;" x="59.328125" xlink:href="#m4ad17fc3ec" y="256.768971"/>
      </g>
     </g>
     <g id="text_13">
      <!-- 200 -->
      <g transform="translate(33.240625 260.56819)scale(0.1 -0.1)">
       <use xlink:href="#DejaVuSans-50"/>
       <use x="63.623047" xlink:href="#DejaVuSans-48"/>
       <use x="127.246094" xlink:href="#DejaVuSans-48"/>
      </g>
     </g>
    </g>
    <g id="ytick_3">
     <g id="line2d_13">
      <g>
       <use style="stroke:#000000;stroke-width:0.8;" x="59.328125" xlink:href="#m4ad17fc3ec" y="225.107817"/>
      </g>
     </g>
     <g id="text_14">
      <!-- 400 -->
      <g transform="translate(33.240625 228.907036)scale(0.1 -0.1)">
       <use xlink:href="#DejaVuSans-52"/>
       <use x="63.623047" xlink:href="#DejaVuSans-48"/>
       <use x="127.246094" xlink:href="#DejaVuSans-48"/>
      </g>
     </g>
    </g>
    <g id="ytick_4">
     <g id="line2d_14">
      <g>
       <use style="stroke:#000000;stroke-width:0.8;" x="59.328125" xlink:href="#m4ad17fc3ec" y="193.446663"/>
      </g>
     </g>
     <g id="text_15">
      <!-- 600 -->
      <g transform="translate(33.240625 197.245882)scale(0.1 -0.1)">
       <use xlink:href="#DejaVuSans-54"/>
       <use x="63.623047" xlink:href="#DejaVuSans-48"/>
       <use x="127.246094" xlink:href="#DejaVuSans-48"/>
      </g>
     </g>
    </g>
    <g id="ytick_5">
     <g id="line2d_15">
      <g>
       <use style="stroke:#000000;stroke-width:0.8;" x="59.328125" xlink:href="#m4ad17fc3ec" y="161.785509"/>
      </g>
     </g>
     <g id="text_16">
      <!-- 800 -->
      <g transform="translate(33.240625 165.584727)scale(0.1 -0.1)">
       <use xlink:href="#DejaVuSans-56"/>
       <use x="63.623047" xlink:href="#DejaVuSans-48"/>
       <use x="127.246094" xlink:href="#DejaVuSans-48"/>
      </g>
     </g>
    </g>
    <g id="ytick_6">
     <g id="line2d_16">
      <g>
       <use style="stroke:#000000;stroke-width:0.8;" x="59.328125" xlink:href="#m4ad17fc3ec" y="130.124355"/>
      </g>
     </g>
     <g id="text_17">
      <!-- 1000 -->
      <g transform="translate(26.878125 133.923573)scale(0.1 -0.1)">
       <use xlink:href="#DejaVuSans-49"/>
       <use x="63.623047" xlink:href="#DejaVuSans-48"/>
       <use x="127.246094" xlink:href="#DejaVuSans-48"/>
       <use x="190.869141" xlink:href="#DejaVuSans-48"/>
      </g>
     </g>
    </g>
    <g id="ytick_7">
     <g id="line2d_17">
      <g>
       <use style="stroke:#000000;stroke-width:0.8;" x="59.328125" xlink:href="#m4ad17fc3ec" y="98.463201"/>
      </g>
     </g>
     <g id="text_18">
      <!-- 1200 -->
      <g transform="translate(26.878125 102.262419)scale(0.1 -0.1)">
       <use xlink:href="#DejaVuSans-49"/>
       <use x="63.623047" xlink:href="#DejaVuSans-50"/>
       <use x="127.246094" xlink:href="#DejaVuSans-48"/>
       <use x="190.869141" xlink:href="#DejaVuSans-48"/>
      </g>
     </g>
    </g>
    <g id="ytick_8">
     <g id="line2d_18">
      <g>
       <use style="stroke:#000000;stroke-width:0.8;" x="59.328125" xlink:href="#m4ad17fc3ec" y="66.802046"/>
      </g>
     </g>
     <g id="text_19">
      <!-- 1400 -->
      <g transform="translate(26.878125 70.601265)scale(0.1 -0.1)">
       <use xlink:href="#DejaVuSans-49"/>
       <use x="63.623047" xlink:href="#DejaVuSans-52"/>
       <use x="127.246094" xlink:href="#DejaVuSans-48"/>
       <use x="190.869141" xlink:href="#DejaVuSans-48"/>
      </g>
     </g>
    </g>
    <g id="ytick_9">
     <g id="line2d_19">
      <g>
       <use style="stroke:#000000;stroke-width:0.8;" x="59.328125" xlink:href="#m4ad17fc3ec" y="35.140892"/>
      </g>
     </g>
     <g id="text_20">
      <!-- 1600 -->
      <g transform="translate(26.878125 38.940111)scale(0.1 -0.1)">
       <use xlink:href="#DejaVuSans-49"/>
       <use x="63.623047" xlink:href="#DejaVuSans-54"/>
       <use x="127.246094" xlink:href="#DejaVuSans-48"/>
       <use x="190.869141" xlink:href="#DejaVuSans-48"/>
      </g>
     </g>
    </g>
    <g id="text_21">
     <!-- daily tested persons -->
     <g transform="translate(14.798438 206.124125)rotate(-90)scale(0.1 -0.1)">
      <defs>
       <path d="M 9.421875 54.6875 
L 18.40625 54.6875 
L 18.40625 0 
L 9.421875 0 
z
M 9.421875 75.984375 
L 18.40625 75.984375 
L 18.40625 64.59375 
L 9.421875 64.59375 
z
" id="DejaVuSans-105"/>
       <path d="M 9.421875 75.984375 
L 18.40625 75.984375 
L 18.40625 0 
L 9.421875 0 
z
" id="DejaVuSans-108"/>
       <path d="M 32.171875 -5.078125 
Q 28.375 -14.84375 24.75 -17.8125 
Q 21.140625 -20.796875 15.09375 -20.796875 
L 7.90625 -20.796875 
L 7.90625 -13.28125 
L 13.1875 -13.28125 
Q 16.890625 -13.28125 18.9375 -11.515625 
Q 21 -9.765625 23.484375 -3.21875 
L 25.09375 0.875 
L 2.984375 54.6875 
L 12.5 54.6875 
L 29.59375 11.921875 
L 46.6875 54.6875 
L 56.203125 54.6875 
z
" id="DejaVuSans-121"/>
       <path id="DejaVuSans-32"/>
       <path d="M 44.28125 53.078125 
L 44.28125 44.578125 
Q 40.484375 46.53125 36.375 47.5 
Q 32.28125 48.484375 27.875 48.484375 
Q 21.1875 48.484375 17.84375 46.4375 
Q 14.5 44.390625 14.5 40.28125 
Q 14.5 37.15625 16.890625 35.375 
Q 19.28125 33.59375 26.515625 31.984375 
L 29.59375 31.296875 
Q 39.15625 29.25 43.1875 25.515625 
Q 47.21875 21.78125 47.21875 15.09375 
Q 47.21875 7.46875 41.1875 3.015625 
Q 35.15625 -1.421875 24.609375 -1.421875 
Q 20.21875 -1.421875 15.453125 -0.5625 
Q 10.6875 0.296875 5.421875 2 
L 5.421875 11.28125 
Q 10.40625 8.6875 15.234375 7.390625 
Q 20.0625 6.109375 24.8125 6.109375 
Q 31.15625 6.109375 34.5625 8.28125 
Q 37.984375 10.453125 37.984375 14.40625 
Q 37.984375 18.0625 35.515625 20.015625 
Q 33.0625 21.96875 24.703125 23.78125 
L 21.578125 24.515625 
Q 13.234375 26.265625 9.515625 29.90625 
Q 5.8125 33.546875 5.8125 39.890625 
Q 5.8125 47.609375 11.28125 51.796875 
Q 16.75 56 26.8125 56 
Q 31.78125 56 36.171875 55.265625 
Q 40.578125 54.546875 44.28125 53.078125 
z
" id="DejaVuSans-115"/>
       <path d="M 18.109375 8.203125 
L 18.109375 -20.796875 
L 9.078125 -20.796875 
L 9.078125 54.6875 
L 18.109375 54.6875 
L 18.109375 46.390625 
Q 20.953125 51.265625 25.265625 53.625 
Q 29.59375 56 35.59375 56 
Q 45.5625 56 51.78125 48.09375 
Q 58.015625 40.1875 58.015625 27.296875 
Q 58.015625 14.40625 51.78125 6.484375 
Q 45.5625 -1.421875 35.59375 -1.421875 
Q 29.59375 -1.421875 25.265625 0.953125 
Q 20.953125 3.328125 18.109375 8.203125 
z
M 48.6875 27.296875 
Q 48.6875 37.203125 44.609375 42.84375 
Q 40.53125 48.484375 33.40625 48.484375 
Q 26.265625 48.484375 22.1875 42.84375 
Q 18.109375 37.203125 18.109375 27.296875 
Q 18.109375 17.390625 22.1875 11.75 
Q 26.265625 6.109375 33.40625 6.109375 
Q 40.53125 6.109375 44.609375 11.75 
Q 48.6875 17.390625 48.6875 27.296875 
z
" id="DejaVuSans-112"/>
       <path d="M 41.109375 46.296875 
Q 39.59375 47.171875 37.8125 47.578125 
Q 36.03125 48 33.890625 48 
Q 26.265625 48 22.1875 43.046875 
Q 18.109375 38.09375 18.109375 28.8125 
L 18.109375 0 
L 9.078125 0 
L 9.078125 54.6875 
L 18.109375 54.6875 
L 18.109375 46.1875 
Q 20.953125 51.171875 25.484375 53.578125 
Q 30.03125 56 36.53125 56 
Q 37.453125 56 38.578125 55.875 
Q 39.703125 55.765625 41.0625 55.515625 
z
" id="DejaVuSans-114"/>
       <path d="M 30.609375 48.390625 
Q 23.390625 48.390625 19.1875 42.75 
Q 14.984375 37.109375 14.984375 27.296875 
Q 14.984375 17.484375 19.15625 11.84375 
Q 23.34375 6.203125 30.609375 6.203125 
Q 37.796875 6.203125 41.984375 11.859375 
Q 46.1875 17.53125 46.1875 27.296875 
Q 46.1875 37.015625 41.984375 42.703125 
Q 37.796875 48.390625 30.609375 48.390625 
z
M 30.609375 56 
Q 42.328125 56 49.015625 48.375 
Q 55.71875 40.765625 55.71875 27.296875 
Q 55.71875 13.875 49.015625 6.21875 
Q 42.328125 -1.421875 30.609375 -1.421875 
Q 18.84375 -1.421875 12.171875 6.21875 
Q 5.515625 13.875 5.515625 27.296875 
Q 5.515625 40.765625 12.171875 48.375 
Q 18.84375 56 30.609375 56 
z
" id="DejaVuSans-111"/>
       <path d="M 54.890625 33.015625 
L 54.890625 0 
L 45.90625 0 
L 45.90625 32.71875 
Q 45.90625 40.484375 42.875 44.328125 
Q 39.84375 48.1875 33.796875 48.1875 
Q 26.515625 48.1875 22.3125 43.546875 
Q 18.109375 38.921875 18.109375 30.90625 
L 18.109375 0 
L 9.078125 0 
L 9.078125 54.6875 
L 18.109375 54.6875 
L 18.109375 46.1875 
Q 21.34375 51.125 25.703125 53.5625 
Q 30.078125 56 35.796875 56 
Q 45.21875 56 50.046875 50.171875 
Q 54.890625 44.34375 54.890625 33.015625 
z
" id="DejaVuSans-110"/>
      </defs>
      <use xlink:href="#DejaVuSans-100"/>
      <use x="63.476562" xlink:href="#DejaVuSans-97"/>
      <use x="124.755859" xlink:href="#DejaVuSans-105"/>
      <use x="152.539062" xlink:href="#DejaVuSans-108"/>
      <use x="180.322266" xlink:href="#DejaVuSans-121"/>
      <use x="239.501953" xlink:href="#DejaVuSans-32"/>
      <use x="271.289062" xlink:href="#DejaVuSans-116"/>
      <use x="310.498047" xlink:href="#DejaVuSans-101"/>
      <use x="372.021484" xlink:href="#DejaVuSans-115"/>
      <use x="424.121094" xlink:href="#DejaVuSans-116"/>
      <use x="463.330078" xlink:href="#DejaVuSans-101"/>
      <use x="524.853516" xlink:href="#DejaVuSans-100"/>
      <use x="588.330078" xlink:href="#DejaVuSans-32"/>
      <use x="620.117188" xlink:href="#DejaVuSans-112"/>
      <use x="683.59375" xlink:href="#DejaVuSans-101"/>
      <use x="745.117188" xlink:href="#DejaVuSans-114"/>
      <use x="786.230469" xlink:href="#DejaVuSans-115"/>
      <use x="838.330078" xlink:href="#DejaVuSans-111"/>
      <use x="899.511719" xlink:href="#DejaVuSans-110"/>
      <use x="962.890625" xlink:href="#DejaVuSans-115"/>
     </g>
    </g>
   </g>
   <g id="patch_300">
    <path d="M 59.328125 288.430125 
L 59.328125 22.318125 
" style="fill:none;stroke:#000000;stroke-linecap:square;stroke-linejoin:miter;stroke-width:0.8;"/>
   </g>
   <g id="patch_301">
    <path d="M 59.328125 288.430125 
L 416.448125 288.430125 
" style="fill:none;stroke:#000000;stroke-linecap:square;stroke-linejoin:miter;stroke-width:0.8;"/>
   </g>
   <g id="text_22">
    <!-- South Tyrol -->
    <g transform="translate(204.595625 16.318125)scale(0.12 -0.12)">
     <defs>
      <path d="M 53.515625 70.515625 
L 53.515625 60.890625 
Q 47.90625 63.578125 42.921875 64.890625 
Q 37.9375 66.21875 33.296875 66.21875 
Q 25.25 66.21875 20.875 63.09375 
Q 16.5 59.96875 16.5 54.203125 
Q 16.5 49.359375 19.40625 46.890625 
Q 22.3125 44.4375 30.421875 42.921875 
L 36.375 41.703125 
Q 47.40625 39.59375 52.65625 34.296875 
Q 57.90625 29 57.90625 20.125 
Q 57.90625 9.515625 50.796875 4.046875 
Q 43.703125 -1.421875 29.984375 -1.421875 
Q 24.8125 -1.421875 18.96875 -0.25 
Q 13.140625 0.921875 6.890625 3.21875 
L 6.890625 13.375 
Q 12.890625 10.015625 18.65625 8.296875 
Q 24.421875 6.59375 29.984375 6.59375 
Q 38.421875 6.59375 43.015625 9.90625 
Q 47.609375 13.234375 47.609375 19.390625 
Q 47.609375 24.75 44.3125 27.78125 
Q 41.015625 30.8125 33.5 32.328125 
L 27.484375 33.5 
Q 16.453125 35.6875 11.515625 40.375 
Q 6.59375 45.0625 6.59375 53.421875 
Q 6.59375 63.09375 13.40625 68.65625 
Q 20.21875 74.21875 32.171875 74.21875 
Q 37.3125 74.21875 42.625 73.28125 
Q 47.953125 72.359375 53.515625 70.515625 
z
" id="DejaVuSans-83"/>
      <path d="M 8.5 21.578125 
L 8.5 54.6875 
L 17.484375 54.6875 
L 17.484375 21.921875 
Q 17.484375 14.15625 20.5 10.265625 
Q 23.53125 6.390625 29.59375 6.390625 
Q 36.859375 6.390625 41.078125 11.03125 
Q 45.3125 15.671875 45.3125 23.6875 
L 45.3125 54.6875 
L 54.296875 54.6875 
L 54.296875 0 
L 45.3125 0 
L 45.3125 8.40625 
Q 42.046875 3.421875 37.71875 1 
Q 33.40625 -1.421875 27.6875 -1.421875 
Q 18.265625 -1.421875 13.375 4.4375 
Q 8.5 10.296875 8.5 21.578125 
z
M 31.109375 56 
z
" id="DejaVuSans-117"/>
      <path d="M 54.890625 33.015625 
L 54.890625 0 
L 45.90625 0 
L 45.90625 32.71875 
Q 45.90625 40.484375 42.875 44.328125 
Q 39.84375 48.1875 33.796875 48.1875 
Q 26.515625 48.1875 22.3125 43.546875 
Q 18.109375 38.921875 18.109375 30.90625 
L 18.109375 0 
L 9.078125 0 
L 9.078125 75.984375 
L 18.109375 75.984375 
L 18.109375 46.1875 
Q 21.34375 51.125 25.703125 53.5625 
Q 30.078125 56 35.796875 56 
Q 45.21875 56 50.046875 50.171875 
Q 54.890625 44.34375 54.890625 33.015625 
z
" id="DejaVuSans-104"/>
      <path d="M -0.296875 72.90625 
L 61.375 72.90625 
L 61.375 64.59375 
L 35.5 64.59375 
L 35.5 0 
L 25.59375 0 
L 25.59375 64.59375 
L -0.296875 64.59375 
z
" id="DejaVuSans-84"/>
     </defs>
     <use xlink:href="#DejaVuSans-83"/>
     <use x="63.476562" xlink:href="#DejaVuSans-111"/>
     <use x="124.658203" xlink:href="#DejaVuSans-117"/>
     <use x="188.037109" xlink:href="#DejaVuSans-116"/>
     <use x="227.246094" xlink:href="#DejaVuSans-104"/>
     <use x="290.625" xlink:href="#DejaVuSans-32"/>
     <use x="322.412109" xlink:href="#DejaVuSans-84"/>
     <use x="367.871094" xlink:href="#DejaVuSans-121"/>
     <use x="427.050781" xlink:href="#DejaVuSans-114"/>
     <use x="465.914062" xlink:href="#DejaVuSans-111"/>
     <use x="527.095703" xlink:href="#DejaVuSans-108"/>
    </g>
   </g>
  </g>
 </g>
 <defs>
  <clipPath id="p35ead5b138">
   <rect height="266.112" width="357.12" x="59.328125" y="22.318125"/>
  </clipPath>
 </defs>
</svg>
