<?xml version="1.0" encoding="utf-8" standalone="no"?>
<!DOCTYPE svg PUBLIC "-//W3C//DTD SVG 1.1//EN"
  "http://www.w3.org/Graphics/SVG/1.1/DTD/svg11.dtd">
<!-- Created with matplotlib (https://matplotlib.org/) -->
<svg height="315.419062pt" version="1.1" viewBox="0 0 403.329899 315.419062" width="403.329899pt" xmlns="http://www.w3.org/2000/svg" xmlns:xlink="http://www.w3.org/1999/xlink">
 <metadata>
  <rdf:RDF xmlns:cc="http://creativecommons.org/ns#" xmlns:dc="http://purl.org/dc/elements/1.1/" xmlns:rdf="http://www.w3.org/1999/02/22-rdf-syntax-ns#">
   <cc:Work>
    <dc:type rdf:resource="http://purl.org/dc/dcmitype/StillImage"/>
    <dc:date>2021-01-03T13:02:27.937814</dc:date>
    <dc:format>image/svg+xml</dc:format>
    <dc:creator>
     <cc:Agent>
      <dc:title>Matplotlib v3.3.3, https://matplotlib.org/</dc:title>
     </cc:Agent>
    </dc:creator>
   </cc:Work>
  </rdf:RDF>
 </metadata>
 <defs>
  <style type="text/css">*{stroke-linecap:butt;stroke-linejoin:round;}</style>
 </defs>
 <g id="figure_1">
  <g id="patch_1">
   <path d="M 0 315.419062 
L 403.329899 315.419062 
L 403.329899 0 
L 0 0 
z
" style="fill:#ffffff;"/>
  </g>
  <g id="axes_1">
   <g id="patch_2">
    <path d="M 59.328125 239.758125 
L 394.128125 239.758125 
L 394.128125 22.318125 
L 59.328125 22.318125 
z
" style="fill:#ffffff;"/>
   </g>
   <g id="patch_3">
    <path clip-path="url(#paaccbd22a0)" d="M 59.441617 239.758125 
L 60.349549 239.758125 
L 60.349549 99.152961 
L 59.441617 99.152961 
z
" style="fill:#1f77b4;"/>
   </g>
   <g id="patch_4">
    <path clip-path="url(#paaccbd22a0)" d="M 60.576532 239.758125 
L 61.484464 239.758125 
L 61.484464 218.80317 
L 60.576532 218.80317 
z
" style="fill:#1f77b4;"/>
   </g>
   <g id="patch_5">
    <path clip-path="url(#paaccbd22a0)" d="M 61.711447 239.758125 
L 62.619379 239.758125 
L 62.619379 204.186441 
L 61.711447 204.186441 
z
" style="fill:#1f77b4;"/>
   </g>
   <g id="patch_6">
    <path clip-path="url(#paaccbd22a0)" d="M 62.846362 239.758125 
L 63.754294 239.758125 
L 63.754294 178.833532 
L 62.846362 178.833532 
z
" style="fill:#1f77b4;"/>
   </g>
   <g id="patch_7">
    <path clip-path="url(#paaccbd22a0)" d="M 63.981278 239.758125 
L 64.88921 239.758125 
L 64.88921 173.918173 
L 63.981278 173.918173 
z
" style="fill:#1f77b4;"/>
   </g>
   <g id="patch_8">
    <path clip-path="url(#paaccbd22a0)" d="M 65.116193 239.758125 
L 66.024125 239.758125 
L 66.024125 163.440695 
L 65.116193 163.440695 
z
" style="fill:#1f77b4;"/>
   </g>
   <g id="patch_9">
    <path clip-path="url(#paaccbd22a0)" d="M 66.251108 239.758125 
L 67.15904 239.758125 
L 67.15904 187.112033 
L 66.251108 187.112033 
z
" style="fill:#1f77b4;"/>
   </g>
   <g id="patch_10">
    <path clip-path="url(#paaccbd22a0)" d="M 67.386023 239.758125 
L 68.293956 239.758125 
L 68.293956 204.05709 
L 67.386023 204.05709 
z
" style="fill:#1f77b4;"/>
   </g>
   <g id="patch_11">
    <path clip-path="url(#paaccbd22a0)" d="M 68.520939 239.758125 
L 69.428871 239.758125 
L 69.428871 209.877911 
L 68.520939 209.877911 
z
" style="fill:#1f77b4;"/>
   </g>
   <g id="patch_12">
    <path clip-path="url(#paaccbd22a0)" d="M 69.655854 239.758125 
L 70.563786 239.758125 
L 70.563786 203.022277 
L 69.655854 203.022277 
z
" style="fill:#1f77b4;"/>
   </g>
   <g id="patch_13">
    <path clip-path="url(#paaccbd22a0)" d="M 70.790769 239.758125 
L 71.698701 239.758125 
L 71.698701 211.947536 
L 70.790769 211.947536 
z
" style="fill:#1f77b4;"/>
   </g>
   <g id="patch_14">
    <path clip-path="url(#paaccbd22a0)" d="M 71.925684 239.758125 
L 72.833617 239.758125 
L 72.833617 190.345823 
L 71.925684 190.345823 
z
" style="fill:#1f77b4;"/>
   </g>
   <g id="patch_15">
    <path clip-path="url(#paaccbd22a0)" d="M 73.0606 239.758125 
L 73.968532 239.758125 
L 73.968532 197.589511 
L 73.0606 197.589511 
z
" style="fill:#1f77b4;"/>
   </g>
   <g id="patch_16">
    <path clip-path="url(#paaccbd22a0)" d="M 74.195515 239.758125 
L 75.103447 239.758125 
L 75.103447 201.728762 
L 74.195515 201.728762 
z
" style="fill:#1f77b4;"/>
   </g>
   <g id="patch_17">
    <path clip-path="url(#paaccbd22a0)" d="M 75.33043 239.758125 
L 76.238362 239.758125 
L 76.238362 177.02261 
L 75.33043 177.02261 
z
" style="fill:#1f77b4;"/>
   </g>
   <g id="patch_18">
    <path clip-path="url(#paaccbd22a0)" d="M 76.465345 239.758125 
L 77.373278 239.758125 
L 77.373278 206.126715 
L 76.465345 206.126715 
z
" style="fill:#1f77b4;"/>
   </g>
   <g id="patch_19">
    <path clip-path="url(#paaccbd22a0)" d="M 77.600261 239.758125 
L 78.508193 239.758125 
L 78.508193 204.05709 
L 77.600261 204.05709 
z
" style="fill:#1f77b4;"/>
   </g>
   <g id="patch_20">
    <path clip-path="url(#paaccbd22a0)" d="M 78.735176 239.758125 
L 79.643108 239.758125 
L 79.643108 203.28098 
L 78.735176 203.28098 
z
" style="fill:#1f77b4;"/>
   </g>
   <g id="patch_21">
    <path clip-path="url(#paaccbd22a0)" d="M 79.870091 239.758125 
L 80.778023 239.758125 
L 80.778023 204.833199 
L 79.870091 204.833199 
z
" style="fill:#1f77b4;"/>
   </g>
   <g id="patch_22">
    <path clip-path="url(#paaccbd22a0)" d="M 81.005006 239.758125 
L 81.912939 239.758125 
L 81.912939 180.385751 
L 81.005006 180.385751 
z
" style="fill:#1f77b4;"/>
   </g>
   <g id="patch_23">
    <path clip-path="url(#paaccbd22a0)" d="M 82.139922 239.758125 
L 83.047854 239.758125 
L 83.047854 175.211688 
L 82.139922 175.211688 
z
" style="fill:#1f77b4;"/>
   </g>
   <g id="patch_24">
    <path clip-path="url(#paaccbd22a0)" d="M 83.274837 239.758125 
L 84.182769 239.758125 
L 84.182769 201.211355 
L 83.274837 201.211355 
z
" style="fill:#1f77b4;"/>
   </g>
   <g id="patch_25">
    <path clip-path="url(#paaccbd22a0)" d="M 84.409752 239.758125 
L 85.317684 239.758125 
L 85.317684 177.540017 
L 84.409752 177.540017 
z
" style="fill:#1f77b4;"/>
   </g>
   <g id="patch_26">
    <path clip-path="url(#paaccbd22a0)" d="M 85.544667 239.758125 
L 86.4526 239.758125 
L 86.4526 177.281314 
L 85.544667 177.281314 
z
" style="fill:#1f77b4;"/>
   </g>
   <g id="patch_27">
    <path clip-path="url(#paaccbd22a0)" d="M 86.679583 239.758125 
L 87.587515 239.758125 
L 87.587515 181.549916 
L 86.679583 181.549916 
z
" style="fill:#1f77b4;"/>
   </g>
   <g id="patch_28">
    <path clip-path="url(#paaccbd22a0)" d="M 87.814498 239.758125 
L 88.72243 239.758125 
L 88.72243 169.649571 
L 87.814498 169.649571 
z
" style="fill:#1f77b4;"/>
   </g>
   <g id="patch_29">
    <path clip-path="url(#paaccbd22a0)" d="M 88.949413 239.758125 
L 89.857345 239.758125 
L 89.857345 185.689166 
L 88.949413 185.689166 
z
" style="fill:#1f77b4;"/>
   </g>
   <g id="patch_30">
    <path clip-path="url(#paaccbd22a0)" d="M 90.084328 239.758125 
L 90.992261 239.758125 
L 90.992261 168.226703 
L 90.084328 168.226703 
z
" style="fill:#1f77b4;"/>
   </g>
   <g id="patch_31">
    <path clip-path="url(#paaccbd22a0)" d="M 91.219244 239.758125 
L 92.127176 239.758125 
L 92.127176 186.465276 
L 91.219244 186.465276 
z
" style="fill:#1f77b4;"/>
   </g>
   <g id="patch_32">
    <path clip-path="url(#paaccbd22a0)" d="M 92.354159 239.758125 
L 93.262091 239.758125 
L 93.262091 192.286096 
L 92.354159 192.286096 
z
" style="fill:#1f77b4;"/>
   </g>
   <g id="patch_33">
    <path clip-path="url(#paaccbd22a0)" d="M 93.489074 239.758125 
L 94.397006 239.758125 
L 94.397006 220.355389 
L 93.489074 220.355389 
z
" style="fill:#1f77b4;"/>
   </g>
   <g id="patch_34">
    <path clip-path="url(#paaccbd22a0)" d="M 94.623989 239.758125 
L 95.531922 239.758125 
L 95.531922 193.579612 
L 94.623989 193.579612 
z
" style="fill:#1f77b4;"/>
   </g>
   <g id="patch_35">
    <path clip-path="url(#paaccbd22a0)" d="M 95.758905 239.758125 
L 96.666837 239.758125 
L 96.666837 186.594627 
L 95.758905 186.594627 
z
" style="fill:#1f77b4;"/>
   </g>
   <g id="patch_36">
    <path clip-path="url(#paaccbd22a0)" d="M 96.89382 239.758125 
L 97.801752 239.758125 
L 97.801752 168.226703 
L 96.89382 168.226703 
z
" style="fill:#1f77b4;"/>
   </g>
   <g id="patch_37">
    <path clip-path="url(#paaccbd22a0)" d="M 98.028735 239.758125 
L 98.936667 239.758125 
L 98.936667 179.997697 
L 98.028735 179.997697 
z
" style="fill:#1f77b4;"/>
   </g>
   <g id="patch_38">
    <path clip-path="url(#paaccbd22a0)" d="M 99.16365 239.758125 
L 100.071583 239.758125 
L 100.071583 135.500754 
L 99.16365 135.500754 
z
" style="fill:#1f77b4;"/>
   </g>
   <g id="patch_39">
    <path clip-path="url(#paaccbd22a0)" d="M 100.298566 239.758125 
L 101.206498 239.758125 
L 101.206498 200.176543 
L 100.298566 200.176543 
z
" style="fill:#1f77b4;"/>
   </g>
   <g id="patch_40">
    <path clip-path="url(#paaccbd22a0)" d="M 101.433481 239.758125 
L 102.341413 239.758125 
L 102.341413 198.883027 
L 101.433481 198.883027 
z
" style="fill:#1f77b4;"/>
   </g>
   <g id="patch_41">
    <path clip-path="url(#paaccbd22a0)" d="M 102.568396 239.758125 
L 103.476328 239.758125 
L 103.476328 196.942753 
L 102.568396 196.942753 
z
" style="fill:#1f77b4;"/>
   </g>
   <g id="patch_42">
    <path clip-path="url(#paaccbd22a0)" d="M 103.703311 239.758125 
L 104.611244 239.758125 
L 104.611244 148.435912 
L 103.703311 148.435912 
z
" style="fill:#1f77b4;"/>
   </g>
   <g id="patch_43">
    <path clip-path="url(#paaccbd22a0)" d="M 104.838227 239.758125 
L 105.746159 239.758125 
L 105.746159 164.475508 
L 104.838227 164.475508 
z
" style="fill:#1f77b4;"/>
   </g>
   <g id="patch_44">
    <path clip-path="url(#paaccbd22a0)" d="M 105.973142 239.758125 
L 106.881074 239.758125 
L 106.881074 168.74411 
L 105.973142 168.74411 
z
" style="fill:#1f77b4;"/>
   </g>
   <g id="patch_45">
    <path clip-path="url(#paaccbd22a0)" d="M 107.108057 239.758125 
L 108.015989 239.758125 
L 108.015989 198.106917 
L 107.108057 198.106917 
z
" style="fill:#1f77b4;"/>
   </g>
   <g id="patch_46">
    <path clip-path="url(#paaccbd22a0)" d="M 108.242972 239.758125 
L 109.150905 239.758125 
L 109.150905 171.460493 
L 108.242972 171.460493 
z
" style="fill:#1f77b4;"/>
   </g>
   <g id="patch_47">
    <path clip-path="url(#paaccbd22a0)" d="M 109.377888 239.758125 
L 110.28582 239.758125 
L 110.28582 221.131498 
L 109.377888 221.131498 
z
" style="fill:#1f77b4;"/>
   </g>
   <g id="patch_48">
    <path clip-path="url(#paaccbd22a0)" d="M 110.512803 239.758125 
L 111.420735 239.758125 
L 111.420735 203.927738 
L 110.512803 203.927738 
z
" style="fill:#1f77b4;"/>
   </g>
   <g id="patch_49">
    <path clip-path="url(#paaccbd22a0)" d="M 111.647718 239.758125 
L 112.55565 239.758125 
L 112.55565 196.554698 
L 111.647718 196.554698 
z
" style="fill:#1f77b4;"/>
   </g>
   <g id="patch_50">
    <path clip-path="url(#paaccbd22a0)" d="M 112.782633 239.758125 
L 113.690566 239.758125 
L 113.690566 171.589844 
L 112.782633 171.589844 
z
" style="fill:#1f77b4;"/>
   </g>
   <g id="patch_51">
    <path clip-path="url(#paaccbd22a0)" d="M 113.917549 239.758125 
L 114.825481 239.758125 
L 114.825481 196.942753 
L 113.917549 196.942753 
z
" style="fill:#1f77b4;"/>
   </g>
   <g id="patch_52">
    <path clip-path="url(#paaccbd22a0)" d="M 115.052464 239.758125 
L 115.960396 239.758125 
L 115.960396 222.94242 
L 115.052464 222.94242 
z
" style="fill:#1f77b4;"/>
   </g>
   <g id="patch_53">
    <path clip-path="url(#paaccbd22a0)" d="M 116.187379 239.758125 
L 117.095311 239.758125 
L 117.095311 218.156412 
L 116.187379 218.156412 
z
" style="fill:#1f77b4;"/>
   </g>
   <g id="patch_54">
    <path clip-path="url(#paaccbd22a0)" d="M 117.322294 239.758125 
L 118.230227 239.758125 
L 118.230227 210.265966 
L 117.322294 210.265966 
z
" style="fill:#1f77b4;"/>
   </g>
   <g id="patch_55">
    <path clip-path="url(#paaccbd22a0)" d="M 118.45721 239.758125 
L 119.365142 239.758125 
L 119.365142 199.529785 
L 118.45721 199.529785 
z
" style="fill:#1f77b4;"/>
   </g>
   <g id="patch_56">
    <path clip-path="url(#paaccbd22a0)" d="M 119.592125 239.758125 
L 120.500057 239.758125 
L 120.500057 186.465276 
L 119.592125 186.465276 
z
" style="fill:#1f77b4;"/>
   </g>
   <g id="patch_57">
    <path clip-path="url(#paaccbd22a0)" d="M 120.72704 239.758125 
L 121.634972 239.758125 
L 121.634972 202.504871 
L 120.72704 202.504871 
z
" style="fill:#1f77b4;"/>
   </g>
   <g id="patch_58">
    <path clip-path="url(#paaccbd22a0)" d="M 121.861956 239.758125 
L 122.769888 239.758125 
L 122.769888 188.405549 
L 121.861956 188.405549 
z
" style="fill:#1f77b4;"/>
   </g>
   <g id="patch_59">
    <path clip-path="url(#paaccbd22a0)" d="M 122.996871 239.758125 
L 123.904803 239.758125 
L 123.904803 201.470058 
L 122.996871 201.470058 
z
" style="fill:#1f77b4;"/>
   </g>
   <g id="patch_60">
    <path clip-path="url(#paaccbd22a0)" d="M 124.131786 239.758125 
L 125.039718 239.758125 
L 125.039718 209.360505 
L 124.131786 209.360505 
z
" style="fill:#1f77b4;"/>
   </g>
   <g id="patch_61">
    <path clip-path="url(#paaccbd22a0)" d="M 125.266701 239.758125 
L 126.174633 239.758125 
L 126.174633 209.877911 
L 125.266701 209.877911 
z
" style="fill:#1f77b4;"/>
   </g>
   <g id="patch_62">
    <path clip-path="url(#paaccbd22a0)" d="M 126.401617 239.758125 
L 127.309549 239.758125 
L 127.309549 189.440362 
L 126.401617 189.440362 
z
" style="fill:#1f77b4;"/>
   </g>
   <g id="patch_63">
    <path clip-path="url(#paaccbd22a0)" d="M 127.536532 239.758125 
L 128.444464 239.758125 
L 128.444464 192.286096 
L 127.536532 192.286096 
z
" style="fill:#1f77b4;"/>
   </g>
   <g id="patch_64">
    <path clip-path="url(#paaccbd22a0)" d="M 128.671447 239.758125 
L 129.579379 239.758125 
L 129.579379 177.410665 
L 128.671447 177.410665 
z
" style="fill:#1f77b4;"/>
   </g>
   <g id="patch_65">
    <path clip-path="url(#paaccbd22a0)" d="M 129.806362 239.758125 
L 130.714294 239.758125 
L 130.714294 194.873128 
L 129.806362 194.873128 
z
" style="fill:#1f77b4;"/>
   </g>
   <g id="patch_66">
    <path clip-path="url(#paaccbd22a0)" d="M 130.941278 239.758125 
L 131.84921 239.758125 
L 131.84921 193.062206 
L 130.941278 193.062206 
z
" style="fill:#1f77b4;"/>
   </g>
   <g id="patch_67">
    <path clip-path="url(#paaccbd22a0)" d="M 132.076193 239.758125 
L 132.984125 239.758125 
L 132.984125 207.032176 
L 132.076193 207.032176 
z
" style="fill:#1f77b4;"/>
   </g>
   <g id="patch_68">
    <path clip-path="url(#paaccbd22a0)" d="M 133.211108 239.758125 
L 134.11904 239.758125 
L 134.11904 196.68405 
L 133.211108 196.68405 
z
" style="fill:#1f77b4;"/>
   </g>
   <g id="patch_69">
    <path clip-path="url(#paaccbd22a0)" d="M 134.346023 239.758125 
L 135.253956 239.758125 
L 135.253956 196.037292 
L 134.346023 196.037292 
z
" style="fill:#1f77b4;"/>
   </g>
   <g id="patch_70">
    <path clip-path="url(#paaccbd22a0)" d="M 135.480939 239.758125 
L 136.388871 239.758125 
L 136.388871 188.276198 
L 135.480939 188.276198 
z
" style="fill:#1f77b4;"/>
   </g>
   <g id="patch_71">
    <path clip-path="url(#paaccbd22a0)" d="M 136.615854 239.758125 
L 137.523786 239.758125 
L 137.523786 163.958101 
L 136.615854 163.958101 
z
" style="fill:#1f77b4;"/>
   </g>
   <g id="patch_72">
    <path clip-path="url(#paaccbd22a0)" d="M 137.750769 239.758125 
L 138.658701 239.758125 
L 138.658701 115.063205 
L 137.750769 115.063205 
z
" style="fill:#1f77b4;"/>
   </g>
   <g id="patch_73">
    <path clip-path="url(#paaccbd22a0)" d="M 138.885684 239.758125 
L 139.793617 239.758125 
L 139.793617 189.440362 
L 138.885684 189.440362 
z
" style="fill:#1f77b4;"/>
   </g>
   <g id="patch_74">
    <path clip-path="url(#paaccbd22a0)" d="M 140.0206 239.758125 
L 140.928532 239.758125 
L 140.928532 207.290879 
L 140.0206 207.290879 
z
" style="fill:#1f77b4;"/>
   </g>
   <g id="patch_75">
    <path clip-path="url(#paaccbd22a0)" d="M 141.155515 239.758125 
L 142.063447 239.758125 
L 142.063447 212.335591 
L 141.155515 212.335591 
z
" style="fill:#1f77b4;"/>
   </g>
   <g id="patch_76">
    <path clip-path="url(#paaccbd22a0)" d="M 142.29043 239.758125 
L 143.198362 239.758125 
L 143.198362 186.982682 
L 142.29043 186.982682 
z
" style="fill:#1f77b4;"/>
   </g>
   <g id="patch_77">
    <path clip-path="url(#paaccbd22a0)" d="M 143.425345 239.758125 
L 144.333278 239.758125 
L 144.333278 182.584728 
L 143.425345 182.584728 
z
" style="fill:#1f77b4;"/>
   </g>
   <g id="patch_78">
    <path clip-path="url(#paaccbd22a0)" d="M 144.560261 239.758125 
L 145.468193 239.758125 
L 145.468193 184.266299 
L 144.560261 184.266299 
z
" style="fill:#1f77b4;"/>
   </g>
   <g id="patch_79">
    <path clip-path="url(#paaccbd22a0)" d="M 145.695176 239.758125 
L 146.603108 239.758125 
L 146.603108 158.525335 
L 145.695176 158.525335 
z
" style="fill:#1f77b4;"/>
   </g>
   <g id="patch_80">
    <path clip-path="url(#paaccbd22a0)" d="M 146.830091 239.758125 
L 147.738023 239.758125 
L 147.738023 177.410665 
L 146.830091 177.410665 
z
" style="fill:#1f77b4;"/>
   </g>
   <g id="patch_81">
    <path clip-path="url(#paaccbd22a0)" d="M 147.965006 239.758125 
L 148.872939 239.758125 
L 148.872939 179.738994 
L 147.965006 179.738994 
z
" style="fill:#1f77b4;"/>
   </g>
   <g id="patch_82">
    <path clip-path="url(#paaccbd22a0)" d="M 149.099922 239.758125 
L 150.007854 239.758125 
L 150.007854 193.708964 
L 149.099922 193.708964 
z
" style="fill:#1f77b4;"/>
   </g>
   <g id="patch_83">
    <path clip-path="url(#paaccbd22a0)" d="M 150.234837 239.758125 
L 151.142769 239.758125 
L 151.142769 215.181325 
L 150.234837 215.181325 
z
" style="fill:#1f77b4;"/>
   </g>
   <g id="patch_84">
    <path clip-path="url(#paaccbd22a0)" d="M 151.369752 239.758125 
L 152.277684 239.758125 
L 152.277684 196.425347 
L 151.369752 196.425347 
z
" style="fill:#1f77b4;"/>
   </g>
   <g id="patch_85">
    <path clip-path="url(#paaccbd22a0)" d="M 152.504667 239.758125 
L 153.4126 239.758125 
L 153.4126 171.201789 
L 152.504667 171.201789 
z
" style="fill:#1f77b4;"/>
   </g>
   <g id="patch_86">
    <path clip-path="url(#paaccbd22a0)" d="M 153.639583 239.758125 
L 154.547515 239.758125 
L 154.547515 158.784038 
L 153.639583 158.784038 
z
" style="fill:#1f77b4;"/>
   </g>
   <g id="patch_87">
    <path clip-path="url(#paaccbd22a0)" d="M 154.774498 239.758125 
L 155.68243 239.758125 
L 155.68243 155.291546 
L 154.774498 155.291546 
z
" style="fill:#1f77b4;"/>
   </g>
   <g id="patch_88">
    <path clip-path="url(#paaccbd22a0)" d="M 155.909413 239.758125 
L 156.817345 239.758125 
L 156.817345 192.803503 
L 155.909413 192.803503 
z
" style="fill:#1f77b4;"/>
   </g>
   <g id="patch_89">
    <path clip-path="url(#paaccbd22a0)" d="M 157.044328 239.758125 
L 157.952261 239.758125 
L 157.952261 200.952652 
L 157.044328 200.952652 
z
" style="fill:#1f77b4;"/>
   </g>
   <g id="patch_90">
    <path clip-path="url(#paaccbd22a0)" d="M 158.179244 239.758125 
L 159.087176 239.758125 
L 159.087176 169.778922 
L 158.179244 169.778922 
z
" style="fill:#1f77b4;"/>
   </g>
   <g id="patch_91">
    <path clip-path="url(#paaccbd22a0)" d="M 159.314159 239.758125 
L 160.222091 239.758125 
L 160.222091 187.370737 
L 159.314159 187.370737 
z
" style="fill:#1f77b4;"/>
   </g>
   <g id="patch_92">
    <path clip-path="url(#paaccbd22a0)" d="M 160.449074 239.758125 
L 161.357006 239.758125 
L 161.357006 185.301111 
L 160.449074 185.301111 
z
" style="fill:#1f77b4;"/>
   </g>
   <g id="patch_93">
    <path clip-path="url(#paaccbd22a0)" d="M 161.583989 239.758125 
L 162.491922 239.758125 
L 162.491922 185.559814 
L 161.583989 185.559814 
z
" style="fill:#1f77b4;"/>
   </g>
   <g id="patch_94">
    <path clip-path="url(#paaccbd22a0)" d="M 162.718905 239.758125 
L 163.626837 239.758125 
L 163.626837 212.076888 
L 162.718905 212.076888 
z
" style="fill:#1f77b4;"/>
   </g>
   <g id="patch_95">
    <path clip-path="url(#paaccbd22a0)" d="M 163.85382 239.758125 
L 164.761752 239.758125 
L 164.761752 227.987132 
L 163.85382 227.987132 
z
" style="fill:#1f77b4;"/>
   </g>
   <g id="patch_96">
    <path clip-path="url(#paaccbd22a0)" d="M 164.988735 239.758125 
L 165.896667 239.758125 
L 165.896667 209.619208 
L 164.988735 209.619208 
z
" style="fill:#1f77b4;"/>
   </g>
   <g id="patch_97">
    <path clip-path="url(#paaccbd22a0)" d="M 166.12365 239.758125 
L 167.031583 239.758125 
L 167.031583 203.669035 
L 166.12365 203.669035 
z
" style="fill:#1f77b4;"/>
   </g>
   <g id="patch_98">
    <path clip-path="url(#paaccbd22a0)" d="M 167.258566 239.758125 
L 168.166498 239.758125 
L 168.166498 194.097019 
L 167.258566 194.097019 
z
" style="fill:#1f77b4;"/>
   </g>
   <g id="patch_99">
    <path clip-path="url(#paaccbd22a0)" d="M 168.393481 239.758125 
L 169.301413 239.758125 
L 169.301413 201.59941 
L 168.393481 201.59941 
z
" style="fill:#1f77b4;"/>
   </g>
   <g id="patch_100">
    <path clip-path="url(#paaccbd22a0)" d="M 169.528396 239.758125 
L 170.436328 239.758125 
L 170.436328 185.689166 
L 169.528396 185.689166 
z
" style="fill:#1f77b4;"/>
   </g>
   <g id="patch_101">
    <path clip-path="url(#paaccbd22a0)" d="M 170.663311 239.758125 
L 171.571244 239.758125 
L 171.571244 208.325692 
L 170.663311 208.325692 
z
" style="fill:#1f77b4;"/>
   </g>
   <g id="patch_102">
    <path clip-path="url(#paaccbd22a0)" d="M 171.798227 239.758125 
L 172.706159 239.758125 
L 172.706159 224.623991 
L 171.798227 224.623991 
z
" style="fill:#1f77b4;"/>
   </g>
   <g id="patch_103">
    <path clip-path="url(#paaccbd22a0)" d="M 172.933142 239.758125 
L 173.841074 239.758125 
L 173.841074 199.271082 
L 172.933142 199.271082 
z
" style="fill:#1f77b4;"/>
   </g>
   <g id="patch_104">
    <path clip-path="url(#paaccbd22a0)" d="M 174.068057 239.758125 
L 174.975989 239.758125 
L 174.975989 201.987465 
L 174.068057 201.987465 
z
" style="fill:#1f77b4;"/>
   </g>
   <g id="patch_105">
    <path clip-path="url(#paaccbd22a0)" d="M 175.202972 239.758125 
L 176.110905 239.758125 
L 176.110905 193.191557 
L 175.202972 193.191557 
z
" style="fill:#1f77b4;"/>
   </g>
   <g id="patch_106">
    <path clip-path="url(#paaccbd22a0)" d="M 176.337888 239.758125 
L 177.24582 239.758125 
L 177.24582 201.987465 
L 176.337888 201.987465 
z
" style="fill:#1f77b4;"/>
   </g>
   <g id="patch_107">
    <path clip-path="url(#paaccbd22a0)" d="M 177.472803 239.758125 
L 178.380735 239.758125 
L 178.380735 195.519886 
L 177.472803 195.519886 
z
" style="fill:#1f77b4;"/>
   </g>
   <g id="patch_108">
    <path clip-path="url(#paaccbd22a0)" d="M 178.607718 239.758125 
L 179.51565 239.758125 
L 179.51565 207.161528 
L 178.607718 207.161528 
z
" style="fill:#1f77b4;"/>
   </g>
   <g id="patch_109">
    <path clip-path="url(#paaccbd22a0)" d="M 179.742633 239.758125 
L 180.650566 239.758125 
L 180.650566 218.02706 
L 179.742633 218.02706 
z
" style="fill:#1f77b4;"/>
   </g>
   <g id="patch_110">
    <path clip-path="url(#paaccbd22a0)" d="M 180.877549 239.758125 
L 181.785481 239.758125 
L 181.785481 200.176543 
L 180.877549 200.176543 
z
" style="fill:#1f77b4;"/>
   </g>
   <g id="patch_111">
    <path clip-path="url(#paaccbd22a0)" d="M 182.012464 239.758125 
L 182.920396 239.758125 
L 182.920396 184.39565 
L 182.012464 184.39565 
z
" style="fill:#1f77b4;"/>
   </g>
   <g id="patch_112">
    <path clip-path="url(#paaccbd22a0)" d="M 183.147379 239.758125 
L 184.055311 239.758125 
L 184.055311 201.340707 
L 183.147379 201.340707 
z
" style="fill:#1f77b4;"/>
   </g>
   <g id="patch_113">
    <path clip-path="url(#paaccbd22a0)" d="M 184.282294 239.758125 
L 185.190227 239.758125 
L 185.190227 196.942753 
L 184.282294 196.942753 
z
" style="fill:#1f77b4;"/>
   </g>
   <g id="patch_114">
    <path clip-path="url(#paaccbd22a0)" d="M 185.41721 239.758125 
L 186.325142 239.758125 
L 186.325142 192.156745 
L 185.41721 192.156745 
z
" style="fill:#1f77b4;"/>
   </g>
   <g id="patch_115">
    <path clip-path="url(#paaccbd22a0)" d="M 186.552125 239.758125 
L 187.460057 239.758125 
L 187.460057 189.699065 
L 186.552125 189.699065 
z
" style="fill:#1f77b4;"/>
   </g>
   <g id="patch_116">
    <path clip-path="url(#paaccbd22a0)" d="M 187.68704 239.758125 
L 188.594972 239.758125 
L 188.594972 226.434913 
L 187.68704 226.434913 
z
" style="fill:#1f77b4;"/>
   </g>
   <g id="patch_117">
    <path clip-path="url(#paaccbd22a0)" d="M 188.821956 239.758125 
L 189.729888 239.758125 
L 189.729888 215.957435 
L 188.821956 215.957435 
z
" style="fill:#1f77b4;"/>
   </g>
   <g id="patch_118">
    <path clip-path="url(#paaccbd22a0)" d="M 189.956871 239.758125 
L 190.864803 239.758125 
L 190.864803 178.316126 
L 189.956871 178.316126 
z
" style="fill:#1f77b4;"/>
   </g>
   <g id="patch_119">
    <path clip-path="url(#paaccbd22a0)" d="M 191.091786 239.758125 
L 191.999718 239.758125 
L 191.999718 199.271082 
L 191.091786 199.271082 
z
" style="fill:#1f77b4;"/>
   </g>
   <g id="patch_120">
    <path clip-path="url(#paaccbd22a0)" d="M 192.226701 239.758125 
L 193.134633 239.758125 
L 193.134633 191.121932 
L 192.226701 191.121932 
z
" style="fill:#1f77b4;"/>
   </g>
   <g id="patch_121">
    <path clip-path="url(#paaccbd22a0)" d="M 193.361617 239.758125 
L 194.269549 239.758125 
L 194.269549 159.430796 
L 193.361617 159.430796 
z
" style="fill:#1f77b4;"/>
   </g>
   <g id="patch_122">
    <path clip-path="url(#paaccbd22a0)" d="M 194.496532 239.758125 
L 195.404464 239.758125 
L 195.404464 178.445478 
L 194.496532 178.445478 
z
" style="fill:#1f77b4;"/>
   </g>
   <g id="patch_123">
    <path clip-path="url(#paaccbd22a0)" d="M 195.631447 239.758125 
L 196.539379 239.758125 
L 196.539379 224.882694 
L 195.631447 224.882694 
z
" style="fill:#1f77b4;"/>
   </g>
   <g id="patch_124">
    <path clip-path="url(#paaccbd22a0)" d="M 196.766362 239.758125 
L 197.674294 239.758125 
L 197.674294 165.251617 
L 196.766362 165.251617 
z
" style="fill:#1f77b4;"/>
   </g>
   <g id="patch_125">
    <path clip-path="url(#paaccbd22a0)" d="M 197.901278 239.758125 
L 198.80921 239.758125 
L 198.80921 164.992914 
L 197.901278 164.992914 
z
" style="fill:#1f77b4;"/>
   </g>
   <g id="patch_126">
    <path clip-path="url(#paaccbd22a0)" d="M 199.036193 239.758125 
L 199.944125 239.758125 
L 199.944125 165.51032 
L 199.036193 165.51032 
z
" style="fill:#1f77b4;"/>
   </g>
   <g id="patch_127">
    <path clip-path="url(#paaccbd22a0)" d="M 200.171108 239.758125 
L 201.07904 239.758125 
L 201.07904 164.216804 
L 200.171108 164.216804 
z
" style="fill:#1f77b4;"/>
   </g>
   <g id="patch_128">
    <path clip-path="url(#paaccbd22a0)" d="M 201.306023 239.758125 
L 202.213956 239.758125 
L 202.213956 162.793937 
L 201.306023 162.793937 
z
" style="fill:#1f77b4;"/>
   </g>
   <g id="patch_129">
    <path clip-path="url(#paaccbd22a0)" d="M 202.440939 239.758125 
L 203.348871 239.758125 
L 203.348871 203.927738 
L 202.440939 203.927738 
z
" style="fill:#1f77b4;"/>
   </g>
   <g id="patch_130">
    <path clip-path="url(#paaccbd22a0)" d="M 203.575854 239.758125 
L 204.483786 239.758125 
L 204.483786 207.420231 
L 203.575854 207.420231 
z
" style="fill:#1f77b4;"/>
   </g>
   <g id="patch_131">
    <path clip-path="url(#paaccbd22a0)" d="M 204.710769 239.758125 
L 205.618701 239.758125 
L 205.618701 212.335591 
L 204.710769 212.335591 
z
" style="fill:#1f77b4;"/>
   </g>
   <g id="patch_132">
    <path clip-path="url(#paaccbd22a0)" d="M 205.845684 239.758125 
L 206.753617 239.758125 
L 206.753617 168.74411 
L 205.845684 168.74411 
z
" style="fill:#1f77b4;"/>
   </g>
   <g id="patch_133">
    <path clip-path="url(#paaccbd22a0)" d="M 206.9806 239.758125 
L 207.888532 239.758125 
L 207.888532 206.902825 
L 206.9806 206.902825 
z
" style="fill:#1f77b4;"/>
   </g>
   <g id="patch_134">
    <path clip-path="url(#paaccbd22a0)" d="M 208.115515 239.758125 
L 209.023447 239.758125 
L 209.023447 138.217137 
L 208.115515 138.217137 
z
" style="fill:#1f77b4;"/>
   </g>
   <g id="patch_135">
    <path clip-path="url(#paaccbd22a0)" d="M 209.25043 239.758125 
L 210.158362 239.758125 
L 210.158362 155.032842 
L 209.25043 155.032842 
z
" style="fill:#1f77b4;"/>
   </g>
   <g id="patch_136">
    <path clip-path="url(#paaccbd22a0)" d="M 210.385345 239.758125 
L 211.293278 239.758125 
L 211.293278 172.236602 
L 210.385345 172.236602 
z
" style="fill:#1f77b4;"/>
   </g>
   <g id="patch_137">
    <path clip-path="url(#paaccbd22a0)" d="M 211.520261 239.758125 
L 212.428193 239.758125 
L 212.428193 199.659136 
L 211.520261 199.659136 
z
" style="fill:#1f77b4;"/>
   </g>
   <g id="patch_138">
    <path clip-path="url(#paaccbd22a0)" d="M 212.655176 239.758125 
L 213.563108 239.758125 
L 213.563108 212.594294 
L 212.655176 212.594294 
z
" style="fill:#1f77b4;"/>
   </g>
   <g id="patch_139">
    <path clip-path="url(#paaccbd22a0)" d="M 213.790091 239.758125 
L 214.698023 239.758125 
L 214.698023 168.74411 
L 213.790091 168.74411 
z
" style="fill:#1f77b4;"/>
   </g>
   <g id="patch_140">
    <path clip-path="url(#paaccbd22a0)" d="M 214.925006 239.758125 
L 215.832939 239.758125 
L 215.832939 164.992914 
L 214.925006 164.992914 
z
" style="fill:#1f77b4;"/>
   </g>
   <g id="patch_141">
    <path clip-path="url(#paaccbd22a0)" d="M 216.059922 239.758125 
L 216.967854 239.758125 
L 216.967854 147.271748 
L 216.059922 147.271748 
z
" style="fill:#1f77b4;"/>
   </g>
   <g id="patch_142">
    <path clip-path="url(#paaccbd22a0)" d="M 217.194837 239.758125 
L 218.102769 239.758125 
L 218.102769 166.157078 
L 217.194837 166.157078 
z
" style="fill:#1f77b4;"/>
   </g>
   <g id="patch_143">
    <path clip-path="url(#paaccbd22a0)" d="M 218.329752 239.758125 
L 219.237684 239.758125 
L 219.237684 160.853663 
L 218.329752 160.853663 
z
" style="fill:#1f77b4;"/>
   </g>
   <g id="patch_144">
    <path clip-path="url(#paaccbd22a0)" d="M 219.464667 239.758125 
L 220.3726 239.758125 
L 220.3726 191.639339 
L 219.464667 191.639339 
z
" style="fill:#1f77b4;"/>
   </g>
   <g id="patch_145">
    <path clip-path="url(#paaccbd22a0)" d="M 220.599583 239.758125 
L 221.507515 239.758125 
L 221.507515 205.221254 
L 220.599583 205.221254 
z
" style="fill:#1f77b4;"/>
   </g>
   <g id="patch_146">
    <path clip-path="url(#paaccbd22a0)" d="M 221.734498 239.758125 
L 222.64243 239.758125 
L 222.64243 160.336257 
L 221.734498 160.336257 
z
" style="fill:#1f77b4;"/>
   </g>
   <g id="patch_147">
    <path clip-path="url(#paaccbd22a0)" d="M 222.869413 239.758125 
L 223.777345 239.758125 
L 223.777345 148.177209 
L 222.869413 148.177209 
z
" style="fill:#1f77b4;"/>
   </g>
   <g id="patch_148">
    <path clip-path="url(#paaccbd22a0)" d="M 224.004328 239.758125 
L 224.912261 239.758125 
L 224.912261 156.843765 
L 224.004328 156.843765 
z
" style="fill:#1f77b4;"/>
   </g>
   <g id="patch_149">
    <path clip-path="url(#paaccbd22a0)" d="M 225.139244 239.758125 
L 226.047176 239.758125 
L 226.047176 156.197007 
L 225.139244 156.197007 
z
" style="fill:#1f77b4;"/>
   </g>
   <g id="patch_150">
    <path clip-path="url(#paaccbd22a0)" d="M 226.274159 239.758125 
L 227.182091 239.758125 
L 227.182091 158.654687 
L 226.274159 158.654687 
z
" style="fill:#1f77b4;"/>
   </g>
   <g id="patch_151">
    <path clip-path="url(#paaccbd22a0)" d="M 227.409074 239.758125 
L 228.317006 239.758125 
L 228.317006 206.773473 
L 227.409074 206.773473 
z
" style="fill:#1f77b4;"/>
   </g>
   <g id="patch_152">
    <path clip-path="url(#paaccbd22a0)" d="M 228.543989 239.758125 
L 229.451922 239.758125 
L 229.451922 203.669035 
L 228.543989 203.669035 
z
" style="fill:#1f77b4;"/>
   </g>
   <g id="patch_153">
    <path clip-path="url(#paaccbd22a0)" d="M 229.678905 239.758125 
L 230.586837 239.758125 
L 230.586837 123.083003 
L 229.678905 123.083003 
z
" style="fill:#1f77b4;"/>
   </g>
   <g id="patch_154">
    <path clip-path="url(#paaccbd22a0)" d="M 230.81382 239.758125 
L 231.721752 239.758125 
L 231.721752 83.372069 
L 230.81382 83.372069 
z
" style="fill:#1f77b4;"/>
   </g>
   <g id="patch_155">
    <path clip-path="url(#paaccbd22a0)" d="M 231.948735 239.758125 
L 232.856667 239.758125 
L 232.856667 149.988131 
L 231.948735 149.988131 
z
" style="fill:#1f77b4;"/>
   </g>
   <g id="patch_156">
    <path clip-path="url(#paaccbd22a0)" d="M 233.08365 239.758125 
L 233.991583 239.758125 
L 233.991583 133.560481 
L 233.08365 133.560481 
z
" style="fill:#1f77b4;"/>
   </g>
   <g id="patch_157">
    <path clip-path="url(#paaccbd22a0)" d="M 234.218566 239.758125 
L 235.126498 239.758125 
L 235.126498 178.962884 
L 234.218566 178.962884 
z
" style="fill:#1f77b4;"/>
   </g>
   <g id="patch_158">
    <path clip-path="url(#paaccbd22a0)" d="M 235.353481 239.758125 
L 236.261413 239.758125 
L 236.261413 194.097019 
L 235.353481 194.097019 
z
" style="fill:#1f77b4;"/>
   </g>
   <g id="patch_159">
    <path clip-path="url(#paaccbd22a0)" d="M 236.488396 239.758125 
L 237.396328 239.758125 
L 237.396328 191.251284 
L 236.488396 191.251284 
z
" style="fill:#1f77b4;"/>
   </g>
   <g id="patch_160">
    <path clip-path="url(#paaccbd22a0)" d="M 237.623311 239.758125 
L 238.531244 239.758125 
L 238.531244 133.689832 
L 237.623311 133.689832 
z
" style="fill:#1f77b4;"/>
   </g>
   <g id="patch_161">
    <path clip-path="url(#paaccbd22a0)" d="M 238.758227 239.758125 
L 239.666159 239.758125 
L 239.666159 146.883693 
L 238.758227 146.883693 
z
" style="fill:#1f77b4;"/>
   </g>
   <g id="patch_162">
    <path clip-path="url(#paaccbd22a0)" d="M 239.893142 239.758125 
L 240.801074 239.758125 
L 240.801074 132.396317 
L 239.893142 132.396317 
z
" style="fill:#1f77b4;"/>
   </g>
   <g id="patch_163">
    <path clip-path="url(#paaccbd22a0)" d="M 241.028057 239.758125 
L 241.935989 239.758125 
L 241.935989 89.063538 
L 241.028057 89.063538 
z
" style="fill:#1f77b4;"/>
   </g>
   <g id="patch_164">
    <path clip-path="url(#paaccbd22a0)" d="M 242.162972 239.758125 
L 243.070905 239.758125 
L 243.070905 159.818851 
L 242.162972 159.818851 
z
" style="fill:#1f77b4;"/>
   </g>
   <g id="patch_165">
    <path clip-path="url(#paaccbd22a0)" d="M 243.297888 239.758125 
L 244.20582 239.758125 
L 244.20582 194.485073 
L 243.297888 194.485073 
z
" style="fill:#1f77b4;"/>
   </g>
   <g id="patch_166">
    <path clip-path="url(#paaccbd22a0)" d="M 244.432803 239.758125 
L 245.340735 239.758125 
L 245.340735 195.00248 
L 244.432803 195.00248 
z
" style="fill:#1f77b4;"/>
   </g>
   <g id="patch_167">
    <path clip-path="url(#paaccbd22a0)" d="M 245.567718 239.758125 
L 246.47565 239.758125 
L 246.47565 134.983348 
L 245.567718 134.983348 
z
" style="fill:#1f77b4;"/>
   </g>
   <g id="patch_168">
    <path clip-path="url(#paaccbd22a0)" d="M 246.702633 239.758125 
L 247.610566 239.758125 
L 247.610566 179.350939 
L 246.702633 179.350939 
z
" style="fill:#1f77b4;"/>
   </g>
   <g id="patch_169">
    <path clip-path="url(#paaccbd22a0)" d="M 247.837549 239.758125 
L 248.745481 239.758125 
L 248.745481 144.296662 
L 247.837549 144.296662 
z
" style="fill:#1f77b4;"/>
   </g>
   <g id="patch_170">
    <path clip-path="url(#paaccbd22a0)" d="M 248.972464 239.758125 
L 249.880396 239.758125 
L 249.880396 146.62499 
L 248.972464 146.62499 
z
" style="fill:#1f77b4;"/>
   </g>
   <g id="patch_171">
    <path clip-path="url(#paaccbd22a0)" d="M 250.107379 239.758125 
L 251.015311 239.758125 
L 251.015311 177.151962 
L 250.107379 177.151962 
z
" style="fill:#1f77b4;"/>
   </g>
   <g id="patch_172">
    <path clip-path="url(#paaccbd22a0)" d="M 251.242294 239.758125 
L 252.150227 239.758125 
L 252.150227 187.112033 
L 251.242294 187.112033 
z
" style="fill:#1f77b4;"/>
   </g>
   <g id="patch_173">
    <path clip-path="url(#paaccbd22a0)" d="M 252.37721 239.758125 
L 253.285142 239.758125 
L 253.285142 195.649237 
L 252.37721 195.649237 
z
" style="fill:#1f77b4;"/>
   </g>
   <g id="patch_174">
    <path clip-path="url(#paaccbd22a0)" d="M 253.512125 239.758125 
L 254.420057 239.758125 
L 254.420057 163.82875 
L 253.512125 163.82875 
z
" style="fill:#1f77b4;"/>
   </g>
   <g id="patch_175">
    <path clip-path="url(#paaccbd22a0)" d="M 254.64704 239.758125 
L 255.554972 239.758125 
L 255.554972 175.858446 
L 254.64704 175.858446 
z
" style="fill:#1f77b4;"/>
   </g>
   <g id="patch_176">
    <path clip-path="url(#paaccbd22a0)" d="M 255.781956 239.758125 
L 256.689888 239.758125 
L 256.689888 183.360838 
L 255.781956 183.360838 
z
" style="fill:#1f77b4;"/>
   </g>
   <g id="patch_177">
    <path clip-path="url(#paaccbd22a0)" d="M 256.916871 239.758125 
L 257.824803 239.758125 
L 257.824803 151.54035 
L 256.916871 151.54035 
z
" style="fill:#1f77b4;"/>
   </g>
   <g id="patch_178">
    <path clip-path="url(#paaccbd22a0)" d="M 258.051786 239.758125 
L 258.959718 239.758125 
L 258.959718 205.221254 
L 258.051786 205.221254 
z
" style="fill:#1f77b4;"/>
   </g>
   <g id="patch_179">
    <path clip-path="url(#paaccbd22a0)" d="M 259.186701 239.758125 
L 260.094633 239.758125 
L 260.094633 192.286096 
L 259.186701 192.286096 
z
" style="fill:#1f77b4;"/>
   </g>
   <g id="patch_180">
    <path clip-path="url(#paaccbd22a0)" d="M 260.321617 239.758125 
L 261.229549 239.758125 
L 261.229549 183.619541 
L 260.321617 183.619541 
z
" style="fill:#1f77b4;"/>
   </g>
   <g id="patch_181">
    <path clip-path="url(#paaccbd22a0)" d="M 261.456532 239.758125 
L 262.364464 239.758125 
L 262.364464 177.79872 
L 261.456532 177.79872 
z
" style="fill:#1f77b4;"/>
   </g>
   <g id="patch_182">
    <path clip-path="url(#paaccbd22a0)" d="M 262.591447 239.758125 
L 263.499379 239.758125 
L 263.499379 163.958101 
L 262.591447 163.958101 
z
" style="fill:#1f77b4;"/>
   </g>
   <g id="patch_183">
    <path clip-path="url(#paaccbd22a0)" d="M 263.726362 239.758125 
L 264.634294 239.758125 
L 264.634294 168.485406 
L 263.726362 168.485406 
z
" style="fill:#1f77b4;"/>
   </g>
   <g id="patch_184">
    <path clip-path="url(#paaccbd22a0)" d="M 264.861278 239.758125 
L 265.76921 239.758125 
L 265.76921 138.863895 
L 264.861278 138.863895 
z
" style="fill:#1f77b4;"/>
   </g>
   <g id="patch_185">
    <path clip-path="url(#paaccbd22a0)" d="M 265.996193 239.758125 
L 266.904125 239.758125 
L 266.904125 139.122599 
L 265.996193 139.122599 
z
" style="fill:#1f77b4;"/>
   </g>
   <g id="patch_186">
    <path clip-path="url(#paaccbd22a0)" d="M 267.131108 239.758125 
L 268.03904 239.758125 
L 268.03904 185.430463 
L 267.131108 185.430463 
z
" style="fill:#1f77b4;"/>
   </g>
   <g id="patch_187">
    <path clip-path="url(#paaccbd22a0)" d="M 268.266023 239.758125 
L 269.173956 239.758125 
L 269.173956 182.455377 
L 268.266023 182.455377 
z
" style="fill:#1f77b4;"/>
   </g>
   <g id="patch_188">
    <path clip-path="url(#paaccbd22a0)" d="M 269.400939 239.758125 
L 270.308871 239.758125 
L 270.308871 155.420897 
L 269.400939 155.420897 
z
" style="fill:#1f77b4;"/>
   </g>
   <g id="patch_189">
    <path clip-path="url(#paaccbd22a0)" d="M 270.535854 239.758125 
L 271.443786 239.758125 
L 271.443786 119.073104 
L 270.535854 119.073104 
z
" style="fill:#1f77b4;"/>
   </g>
   <g id="patch_190">
    <path clip-path="url(#paaccbd22a0)" d="M 271.670769 239.758125 
L 272.578701 239.758125 
L 272.578701 109.889142 
L 271.670769 109.889142 
z
" style="fill:#1f77b4;"/>
   </g>
   <g id="patch_191">
    <path clip-path="url(#paaccbd22a0)" d="M 272.805684 239.758125 
L 273.713617 239.758125 
L 273.713617 71.213021 
L 272.805684 71.213021 
z
" style="fill:#1f77b4;"/>
   </g>
   <g id="patch_192">
    <path clip-path="url(#paaccbd22a0)" d="M 273.9406 239.758125 
L 274.848532 239.758125 
L 274.848532 150.76424 
L 273.9406 150.76424 
z
" style="fill:#1f77b4;"/>
   </g>
   <g id="patch_193">
    <path clip-path="url(#paaccbd22a0)" d="M 275.075515 239.758125 
L 275.983447 239.758125 
L 275.983447 166.803836 
L 275.075515 166.803836 
z
" style="fill:#1f77b4;"/>
   </g>
   <g id="patch_194">
    <path clip-path="url(#paaccbd22a0)" d="M 276.21043 239.758125 
L 277.118362 239.758125 
L 277.118362 184.007596 
L 276.21043 184.007596 
z
" style="fill:#1f77b4;"/>
   </g>
   <g id="patch_195">
    <path clip-path="url(#paaccbd22a0)" d="M 277.345345 239.758125 
L 278.253278 239.758125 
L 278.253278 153.99803 
L 277.345345 153.99803 
z
" style="fill:#1f77b4;"/>
   </g>
   <g id="patch_196">
    <path clip-path="url(#paaccbd22a0)" d="M 278.480261 239.758125 
L 279.388193 239.758125 
L 279.388193 144.555365 
L 278.480261 144.555365 
z
" style="fill:#1f77b4;"/>
   </g>
   <g id="patch_197">
    <path clip-path="url(#paaccbd22a0)" d="M 279.615176 239.758125 
L 280.523108 239.758125 
L 280.523108 99.799719 
L 279.615176 99.799719 
z
" style="fill:#1f77b4;"/>
   </g>
   <g id="patch_198">
    <path clip-path="url(#paaccbd22a0)" d="M 280.750091 239.758125 
L 281.658023 239.758125 
L 281.658023 149.729428 
L 280.750091 149.729428 
z
" style="fill:#1f77b4;"/>
   </g>
   <g id="patch_199">
    <path clip-path="url(#paaccbd22a0)" d="M 281.885006 239.758125 
L 282.792939 239.758125 
L 282.792939 151.281647 
L 281.885006 151.281647 
z
" style="fill:#1f77b4;"/>
   </g>
   <g id="patch_200">
    <path clip-path="url(#paaccbd22a0)" d="M 283.019922 239.758125 
L 283.927854 239.758125 
L 283.927854 187.500088 
L 283.019922 187.500088 
z
" style="fill:#1f77b4;"/>
   </g>
   <g id="patch_201">
    <path clip-path="url(#paaccbd22a0)" d="M 284.154837 239.758125 
L 285.062769 239.758125 
L 285.062769 176.893259 
L 284.154837 176.893259 
z
" style="fill:#1f77b4;"/>
   </g>
   <g id="patch_202">
    <path clip-path="url(#paaccbd22a0)" d="M 285.289752 239.758125 
L 286.197684 239.758125 
L 286.197684 149.341373 
L 285.289752 149.341373 
z
" style="fill:#1f77b4;"/>
   </g>
   <g id="patch_203">
    <path clip-path="url(#paaccbd22a0)" d="M 286.424667 239.758125 
L 287.3326 239.758125 
L 287.3326 120.754675 
L 286.424667 120.754675 
z
" style="fill:#1f77b4;"/>
   </g>
   <g id="patch_204">
    <path clip-path="url(#paaccbd22a0)" d="M 287.559583 239.758125 
L 288.467515 239.758125 
L 288.467515 141.192224 
L 287.559583 141.192224 
z
" style="fill:#1f77b4;"/>
   </g>
   <g id="patch_205">
    <path clip-path="url(#paaccbd22a0)" d="M 288.694498 239.758125 
L 289.60243 239.758125 
L 289.60243 148.953318 
L 288.694498 148.953318 
z
" style="fill:#1f77b4;"/>
   </g>
   <g id="patch_206">
    <path clip-path="url(#paaccbd22a0)" d="M 289.829413 239.758125 
L 290.737345 239.758125 
L 290.737345 176.893259 
L 289.829413 176.893259 
z
" style="fill:#1f77b4;"/>
   </g>
   <g id="patch_207">
    <path clip-path="url(#paaccbd22a0)" d="M 290.964328 239.758125 
L 291.872261 239.758125 
L 291.872261 197.718863 
L 290.964328 197.718863 
z
" style="fill:#1f77b4;"/>
   </g>
   <g id="patch_208">
    <path clip-path="url(#paaccbd22a0)" d="M 292.099244 239.758125 
L 293.007176 239.758125 
L 293.007176 171.072438 
L 292.099244 171.072438 
z
" style="fill:#1f77b4;"/>
   </g>
   <g id="patch_209">
    <path clip-path="url(#paaccbd22a0)" d="M 293.234159 239.758125 
L 294.142091 239.758125 
L 294.142091 136.018161 
L 293.234159 136.018161 
z
" style="fill:#1f77b4;"/>
   </g>
   <g id="patch_210">
    <path clip-path="url(#paaccbd22a0)" d="M 294.369074 239.758125 
L 295.277006 239.758125 
L 295.277006 96.953985 
L 294.369074 96.953985 
z
" style="fill:#1f77b4;"/>
   </g>
   <g id="patch_211">
    <path clip-path="url(#paaccbd22a0)" d="M 295.503989 239.758125 
L 296.411922 239.758125 
L 296.411922 138.475841 
L 295.503989 138.475841 
z
" style="fill:#1f77b4;"/>
   </g>
   <g id="patch_212">
    <path clip-path="url(#paaccbd22a0)" d="M 296.638905 239.758125 
L 297.546837 239.758125 
L 297.546837 117.003479 
L 296.638905 117.003479 
z
" style="fill:#1f77b4;"/>
   </g>
   <g id="patch_213">
    <path clip-path="url(#paaccbd22a0)" d="M 297.77382 239.758125 
L 298.681752 239.758125 
L 298.681752 137.311676 
L 297.77382 137.311676 
z
" style="fill:#1f77b4;"/>
   </g>
   <g id="patch_214">
    <path clip-path="url(#paaccbd22a0)" d="M 298.908735 239.758125 
L 299.816667 239.758125 
L 299.816667 173.788821 
L 298.908735 173.788821 
z
" style="fill:#1f77b4;"/>
   </g>
   <g id="patch_215">
    <path clip-path="url(#paaccbd22a0)" d="M 300.04365 239.758125 
L 300.951583 239.758125 
L 300.951583 184.39565 
L 300.04365 184.39565 
z
" style="fill:#1f77b4;"/>
   </g>
   <g id="patch_216">
    <path clip-path="url(#paaccbd22a0)" d="M 301.178566 239.758125 
L 302.086498 239.758125 
L 302.086498 147.401099 
L 301.178566 147.401099 
z
" style="fill:#1f77b4;"/>
   </g>
   <g id="patch_217">
    <path clip-path="url(#paaccbd22a0)" d="M 302.313481 239.758125 
L 303.221413 239.758125 
L 303.221413 123.600409 
L 302.313481 123.600409 
z
" style="fill:#1f77b4;"/>
   </g>
   <g id="patch_218">
    <path clip-path="url(#paaccbd22a0)" d="M 303.448396 239.758125 
L 304.356328 239.758125 
L 304.356328 99.929071 
L 303.448396 99.929071 
z
" style="fill:#1f77b4;"/>
   </g>
   <g id="patch_219">
    <path clip-path="url(#paaccbd22a0)" d="M 304.583311 239.758125 
L 305.491244 239.758125 
L 305.491244 116.744776 
L 304.583311 116.744776 
z
" style="fill:#1f77b4;"/>
   </g>
   <g id="patch_220">
    <path clip-path="url(#paaccbd22a0)" d="M 305.718227 239.758125 
L 306.626159 239.758125 
L 306.626159 110.277197 
L 305.718227 110.277197 
z
" style="fill:#1f77b4;"/>
   </g>
   <g id="patch_221">
    <path clip-path="url(#paaccbd22a0)" d="M 306.853142 239.758125 
L 307.761074 239.758125 
L 307.761074 138.346489 
L 306.853142 138.346489 
z
" style="fill:#1f77b4;"/>
   </g>
   <g id="patch_222">
    <path clip-path="url(#paaccbd22a0)" d="M 307.988057 239.758125 
L 308.895989 239.758125 
L 308.895989 108.466275 
L 307.988057 108.466275 
z
" style="fill:#1f77b4;"/>
   </g>
   <g id="patch_223">
    <path clip-path="url(#paaccbd22a0)" d="M 309.122972 239.758125 
L 310.030905 239.758125 
L 310.030905 121.660136 
L 309.122972 121.660136 
z
" style="fill:#1f77b4;"/>
   </g>
   <g id="patch_224">
    <path clip-path="url(#paaccbd22a0)" d="M 310.257888 239.758125 
L 311.16582 239.758125 
L 311.16582 93.461492 
L 310.257888 93.461492 
z
" style="fill:#1f77b4;"/>
   </g>
   <g id="patch_225">
    <path clip-path="url(#paaccbd22a0)" d="M 311.392803 239.758125 
L 312.300735 239.758125 
L 312.300735 34.477173 
L 311.392803 34.477173 
z
" style="fill:#1f77b4;"/>
   </g>
   <g id="patch_226">
    <path clip-path="url(#paaccbd22a0)" d="M 312.527718 239.758125 
L 313.43565 239.758125 
L 313.43565 94.10825 
L 312.527718 94.10825 
z
" style="fill:#1f77b4;"/>
   </g>
   <g id="patch_227">
    <path clip-path="url(#paaccbd22a0)" d="M 313.662633 239.758125 
L 314.570566 239.758125 
L 314.570566 67.591177 
L 313.662633 67.591177 
z
" style="fill:#1f77b4;"/>
   </g>
   <g id="patch_228">
    <path clip-path="url(#paaccbd22a0)" d="M 314.797549 239.758125 
L 315.705481 239.758125 
L 315.705481 88.158077 
L 314.797549 88.158077 
z
" style="fill:#1f77b4;"/>
   </g>
   <g id="patch_229">
    <path clip-path="url(#paaccbd22a0)" d="M 315.932464 239.758125 
L 316.840396 239.758125 
L 316.840396 109.889142 
L 315.932464 109.889142 
z
" style="fill:#1f77b4;"/>
   </g>
   <g id="patch_230">
    <path clip-path="url(#paaccbd22a0)" d="M 317.067379 239.758125 
L 317.975311 239.758125 
L 317.975311 124.247167 
L 317.067379 124.247167 
z
" style="fill:#1f77b4;"/>
   </g>
   <g id="patch_231">
    <path clip-path="url(#paaccbd22a0)" d="M 318.202294 239.758125 
L 319.110227 239.758125 
L 319.110227 84.148179 
L 318.202294 84.148179 
z
" style="fill:#1f77b4;"/>
   </g>
   <g id="patch_232">
    <path clip-path="url(#paaccbd22a0)" d="M 319.33721 239.758125 
L 320.245142 239.758125 
L 320.245142 83.501421 
L 319.33721 83.501421 
z
" style="fill:#1f77b4;"/>
   </g>
   <g id="patch_233">
    <path clip-path="url(#paaccbd22a0)" d="M 320.472125 239.758125 
L 321.380057 239.758125 
L 321.380057 49.352604 
L 320.472125 49.352604 
z
" style="fill:#1f77b4;"/>
   </g>
   <g id="patch_234">
    <path clip-path="url(#paaccbd22a0)" d="M 321.60704 239.758125 
L 322.514972 239.758125 
L 322.514972 48.059089 
L 321.60704 48.059089 
z
" style="fill:#1f77b4;"/>
   </g>
   <g id="patch_235">
    <path clip-path="url(#paaccbd22a0)" d="M 322.741956 239.758125 
L 323.649888 239.758125 
L 323.649888 114.287096 
L 322.741956 114.287096 
z
" style="fill:#1f77b4;"/>
   </g>
   <g id="patch_236">
    <path clip-path="url(#paaccbd22a0)" d="M 323.876871 239.758125 
L 324.784803 239.758125 
L 324.784803 102.257399 
L 323.876871 102.257399 
z
" style="fill:#1f77b4;"/>
   </g>
   <g id="patch_237">
    <path clip-path="url(#paaccbd22a0)" d="M 325.011786 239.758125 
L 325.919718 239.758125 
L 325.919718 146.107584 
L 325.011786 146.107584 
z
" style="fill:#1f77b4;"/>
   </g>
   <g id="patch_238">
    <path clip-path="url(#paaccbd22a0)" d="M 326.146701 239.758125 
L 327.054633 239.758125 
L 327.054633 24.129047 
L 326.146701 24.129047 
z
" style="fill:#1f77b4;"/>
   </g>
   <g id="patch_239">
    <path clip-path="url(#paaccbd22a0)" d="M 327.281617 239.758125 
L 328.189549 239.758125 
L 328.189549 68.367286 
L 327.281617 68.367286 
z
" style="fill:#1f77b4;"/>
   </g>
   <g id="patch_240">
    <path clip-path="url(#paaccbd22a0)" d="M 328.416532 239.758125 
L 329.324464 239.758125 
L 329.324464 22.318125 
L 328.416532 22.318125 
z
" style="fill:#1f77b4;"/>
   </g>
   <g id="patch_241">
    <path clip-path="url(#paaccbd22a0)" d="M 329.551447 239.758125 
L 330.459379 239.758125 
L 330.459379 101.093235 
L 329.551447 101.093235 
z
" style="fill:#1f77b4;"/>
   </g>
   <g id="patch_242">
    <path clip-path="url(#paaccbd22a0)" d="M 330.686362 239.758125 
L 331.594294 239.758125 
L 331.594294 62.158411 
L 330.686362 62.158411 
z
" style="fill:#1f77b4;"/>
   </g>
   <g id="patch_243">
    <path clip-path="url(#paaccbd22a0)" d="M 331.821278 239.758125 
L 332.72921 239.758125 
L 332.72921 137.311676 
L 331.821278 137.311676 
z
" style="fill:#1f77b4;"/>
   </g>
   <g id="patch_244">
    <path clip-path="url(#paaccbd22a0)" d="M 332.956193 239.758125 
L 333.864125 239.758125 
L 333.864125 137.958434 
L 332.956193 137.958434 
z
" style="fill:#1f77b4;"/>
   </g>
   <g id="patch_245">
    <path clip-path="url(#paaccbd22a0)" d="M 334.091108 239.758125 
L 334.99904 239.758125 
L 334.99904 54.397316 
L 334.091108 54.397316 
z
" style="fill:#1f77b4;"/>
   </g>
   <g id="patch_246">
    <path clip-path="url(#paaccbd22a0)" d="M 335.226023 239.758125 
L 336.133956 239.758125 
L 336.133956 82.466608 
L 335.226023 82.466608 
z
" style="fill:#1f77b4;"/>
   </g>
   <g id="patch_247">
    <path clip-path="url(#paaccbd22a0)" d="M 336.360939 239.758125 
L 337.268871 239.758125 
L 337.268871 100.187774 
L 336.360939 100.187774 
z
" style="fill:#1f77b4;"/>
   </g>
   <g id="patch_248">
    <path clip-path="url(#paaccbd22a0)" d="M 337.495854 239.758125 
L 338.403786 239.758125 
L 338.403786 119.461159 
L 337.495854 119.461159 
z
" style="fill:#1f77b4;"/>
   </g>
   <g id="patch_249">
    <path clip-path="url(#paaccbd22a0)" d="M 338.630769 239.758125 
L 339.538701 239.758125 
L 339.538701 130.973449 
L 338.630769 130.973449 
z
" style="fill:#1f77b4;"/>
   </g>
   <g id="patch_250">
    <path clip-path="url(#paaccbd22a0)" d="M 339.765684 239.758125 
L 340.673617 239.758125 
L 340.673617 182.455377 
L 339.765684 182.455377 
z
" style="fill:#1f77b4;"/>
   </g>
   <g id="patch_251">
    <path clip-path="url(#paaccbd22a0)" d="M 340.9006 239.758125 
L 341.808532 239.758125 
L 341.808532 91.65057 
L 340.9006 91.65057 
z
" style="fill:#1f77b4;"/>
   </g>
   <g id="patch_252">
    <path clip-path="url(#paaccbd22a0)" d="M 342.035515 239.758125 
L 342.943447 239.758125 
L 342.943447 85.829749 
L 342.035515 85.829749 
z
" style="fill:#1f77b4;"/>
   </g>
   <g id="patch_253">
    <path clip-path="url(#paaccbd22a0)" d="M 343.17043 239.758125 
L 344.078362 239.758125 
L 344.078362 96.695281 
L 343.17043 96.695281 
z
" style="fill:#1f77b4;"/>
   </g>
   <g id="patch_254">
    <path clip-path="url(#paaccbd22a0)" d="M 344.305345 239.758125 
L 345.213278 239.758125 
L 345.213278 108.207572 
L 344.305345 108.207572 
z
" style="fill:#1f77b4;"/>
   </g>
   <g id="patch_255">
    <path clip-path="url(#paaccbd22a0)" d="M 345.440261 239.758125 
L 346.348193 239.758125 
L 346.348193 118.038292 
L 345.440261 118.038292 
z
" style="fill:#1f77b4;"/>
   </g>
   <g id="patch_256">
    <path clip-path="url(#paaccbd22a0)" d="M 346.575176 239.758125 
L 347.483108 239.758125 
L 347.483108 183.231486 
L 346.575176 183.231486 
z
" style="fill:#1f77b4;"/>
   </g>
   <g id="patch_257">
    <path clip-path="url(#paaccbd22a0)" d="M 347.710091 239.758125 
L 348.618023 239.758125 
L 348.618023 195.519886 
L 347.710091 195.519886 
z
" style="fill:#1f77b4;"/>
   </g>
   <g id="patch_258">
    <path clip-path="url(#paaccbd22a0)" d="M 348.845006 239.758125 
L 349.752939 239.758125 
L 349.752939 160.724312 
L 348.845006 160.724312 
z
" style="fill:#1f77b4;"/>
   </g>
   <g id="patch_259">
    <path clip-path="url(#paaccbd22a0)" d="M 349.979922 239.758125 
L 350.887854 239.758125 
L 350.887854 173.918173 
L 349.979922 173.918173 
z
" style="fill:#1f77b4;"/>
   </g>
   <g id="patch_260">
    <path clip-path="url(#paaccbd22a0)" d="M 351.114837 239.758125 
L 352.022769 239.758125 
L 352.022769 168.226703 
L 351.114837 168.226703 
z
" style="fill:#1f77b4;"/>
   </g>
   <g id="patch_261">
    <path clip-path="url(#paaccbd22a0)" d="M 352.249752 239.758125 
L 353.157684 239.758125 
L 353.157684 170.943086 
L 352.249752 170.943086 
z
" style="fill:#1f77b4;"/>
   </g>
   <g id="patch_262">
    <path clip-path="url(#paaccbd22a0)" d="M 353.384667 239.758125 
L 354.2926 239.758125 
L 354.2926 103.93897 
L 353.384667 103.93897 
z
" style="fill:#1f77b4;"/>
   </g>
   <g id="patch_263">
    <path clip-path="url(#paaccbd22a0)" d="M 354.519583 239.758125 
L 355.427515 239.758125 
L 355.427515 194.355722 
L 354.519583 194.355722 
z
" style="fill:#1f77b4;"/>
   </g>
   <g id="patch_264">
    <path clip-path="url(#paaccbd22a0)" d="M 355.654498 239.758125 
L 356.56243 239.758125 
L 356.56243 207.032176 
L 355.654498 207.032176 
z
" style="fill:#1f77b4;"/>
   </g>
   <g id="patch_265">
    <path clip-path="url(#paaccbd22a0)" d="M 356.789413 239.758125 
L 357.697345 239.758125 
L 357.697345 166.674484 
L 356.789413 166.674484 
z
" style="fill:#1f77b4;"/>
   </g>
   <g id="patch_266">
    <path clip-path="url(#paaccbd22a0)" d="M 357.924328 239.758125 
L 358.832261 239.758125 
L 358.832261 159.948202 
L 357.924328 159.948202 
z
" style="fill:#1f77b4;"/>
   </g>
   <g id="patch_267">
    <path clip-path="url(#paaccbd22a0)" d="M 359.059244 239.758125 
L 359.967176 239.758125 
L 359.967176 160.983015 
L 359.059244 160.983015 
z
" style="fill:#1f77b4;"/>
   </g>
   <g id="patch_268">
    <path clip-path="url(#paaccbd22a0)" d="M 360.194159 239.758125 
L 361.102091 239.758125 
L 361.102091 169.261516 
L 360.194159 169.261516 
z
" style="fill:#1f77b4;"/>
   </g>
   <g id="patch_269">
    <path clip-path="url(#paaccbd22a0)" d="M 361.329074 239.758125 
L 362.237006 239.758125 
L 362.237006 172.624657 
L 361.329074 172.624657 
z
" style="fill:#1f77b4;"/>
   </g>
   <g id="patch_270">
    <path clip-path="url(#paaccbd22a0)" d="M 362.463989 239.758125 
L 363.371922 239.758125 
L 363.371922 202.634223 
L 362.463989 202.634223 
z
" style="fill:#1f77b4;"/>
   </g>
   <g id="patch_271">
    <path clip-path="url(#paaccbd22a0)" d="M 363.598905 239.758125 
L 364.506837 239.758125 
L 364.506837 208.325692 
L 363.598905 208.325692 
z
" style="fill:#1f77b4;"/>
   </g>
   <g id="patch_272">
    <path clip-path="url(#paaccbd22a0)" d="M 364.73382 239.758125 
L 365.641752 239.758125 
L 365.641752 177.928071 
L 364.73382 177.928071 
z
" style="fill:#1f77b4;"/>
   </g>
   <g id="patch_273">
    <path clip-path="url(#paaccbd22a0)" d="M 365.868735 239.758125 
L 366.776667 239.758125 
L 366.776667 168.226703 
L 365.868735 168.226703 
z
" style="fill:#1f77b4;"/>
   </g>
   <g id="patch_274">
    <path clip-path="url(#paaccbd22a0)" d="M 367.00365 239.758125 
L 367.911583 239.758125 
L 367.911583 186.206572 
L 367.00365 186.206572 
z
" style="fill:#1f77b4;"/>
   </g>
   <g id="patch_275">
    <path clip-path="url(#paaccbd22a0)" d="M 368.138566 239.758125 
L 369.046498 239.758125 
L 369.046498 152.575162 
L 368.138566 152.575162 
z
" style="fill:#1f77b4;"/>
   </g>
   <g id="patch_276">
    <path clip-path="url(#paaccbd22a0)" d="M 369.273481 239.758125 
L 370.181413 239.758125 
L 370.181413 171.460493 
L 369.273481 171.460493 
z
" style="fill:#1f77b4;"/>
   </g>
   <g id="patch_277">
    <path clip-path="url(#paaccbd22a0)" d="M 370.408396 239.758125 
L 371.316328 239.758125 
L 371.316328 198.753675 
L 370.408396 198.753675 
z
" style="fill:#1f77b4;"/>
   </g>
   <g id="patch_278">
    <path clip-path="url(#paaccbd22a0)" d="M 371.543311 239.758125 
L 372.451244 239.758125 
L 372.451244 207.161528 
L 371.543311 207.161528 
z
" style="fill:#1f77b4;"/>
   </g>
   <g id="patch_279">
    <path clip-path="url(#paaccbd22a0)" d="M 372.678227 239.758125 
L 373.586159 239.758125 
L 373.586159 172.624657 
L 372.678227 172.624657 
z
" style="fill:#1f77b4;"/>
   </g>
   <g id="patch_280">
    <path clip-path="url(#paaccbd22a0)" d="M 373.813142 239.758125 
L 374.721074 239.758125 
L 374.721074 160.336257 
L 373.813142 160.336257 
z
" style="fill:#1f77b4;"/>
   </g>
   <g id="patch_281">
    <path clip-path="url(#paaccbd22a0)" d="M 374.948057 239.758125 
L 375.855989 239.758125 
L 375.855989 185.689166 
L 374.948057 185.689166 
z
" style="fill:#1f77b4;"/>
   </g>
   <g id="patch_282">
    <path clip-path="url(#paaccbd22a0)" d="M 376.082972 239.758125 
L 376.990905 239.758125 
L 376.990905 181.420564 
L 376.082972 181.420564 
z
" style="fill:#1f77b4;"/>
   </g>
   <g id="patch_283">
    <path clip-path="url(#paaccbd22a0)" d="M 377.217888 239.758125 
L 378.12582 239.758125 
L 378.12582 166.933187 
L 377.217888 166.933187 
z
" style="fill:#1f77b4;"/>
   </g>
   <g id="patch_284">
    <path clip-path="url(#paaccbd22a0)" d="M 378.352803 239.758125 
L 379.260735 239.758125 
L 379.260735 223.330475 
L 378.352803 223.330475 
z
" style="fill:#1f77b4;"/>
   </g>
   <g id="patch_285">
    <path clip-path="url(#paaccbd22a0)" d="M 379.487718 239.758125 
L 380.39565 239.758125 
L 380.39565 191.639339 
L 379.487718 191.639339 
z
" style="fill:#1f77b4;"/>
   </g>
   <g id="patch_286">
    <path clip-path="url(#paaccbd22a0)" d="M 380.622633 239.758125 
L 381.530566 239.758125 
L 381.530566 170.166977 
L 380.622633 170.166977 
z
" style="fill:#1f77b4;"/>
   </g>
   <g id="patch_287">
    <path clip-path="url(#paaccbd22a0)" d="M 381.757549 239.758125 
L 382.665481 239.758125 
L 382.665481 167.838648 
L 381.757549 167.838648 
z
" style="fill:#1f77b4;"/>
   </g>
   <g id="patch_288">
    <path clip-path="url(#paaccbd22a0)" d="M 382.892464 239.758125 
L 383.800396 239.758125 
L 383.800396 164.475508 
L 382.892464 164.475508 
z
" style="fill:#1f77b4;"/>
   </g>
   <g id="patch_289">
    <path clip-path="url(#paaccbd22a0)" d="M 384.027379 239.758125 
L 384.935311 239.758125 
L 384.935311 229.798054 
L 384.027379 229.798054 
z
" style="fill:#1f77b4;"/>
   </g>
   <g id="patch_290">
    <path clip-path="url(#paaccbd22a0)" d="M 385.162294 239.758125 
L 386.070227 239.758125 
L 386.070227 209.619208 
L 385.162294 209.619208 
z
" style="fill:#1f77b4;"/>
   </g>
   <g id="patch_291">
    <path clip-path="url(#paaccbd22a0)" d="M 386.29721 239.758125 
L 387.205142 239.758125 
L 387.205142 187.758791 
L 386.29721 187.758791 
z
" style="fill:#1f77b4;"/>
   </g>
   <g id="patch_292">
    <path clip-path="url(#paaccbd22a0)" d="M 387.432125 239.758125 
L 388.340057 239.758125 
L 388.340057 216.733544 
L 387.432125 216.733544 
z
" style="fill:#1f77b4;"/>
   </g>
   <g id="patch_293">
    <path clip-path="url(#paaccbd22a0)" d="M 388.56704 239.758125 
L 389.474972 239.758125 
L 389.474972 166.674484 
L 388.56704 166.674484 
z
" style="fill:#1f77b4;"/>
   </g>
   <g id="patch_294">
    <path clip-path="url(#paaccbd22a0)" d="M 389.701956 239.758125 
L 390.609888 239.758125 
L 390.609888 166.545133 
L 389.701956 166.545133 
z
" style="fill:#1f77b4;"/>
   </g>
   <g id="patch_295">
    <path clip-path="url(#paaccbd22a0)" d="M 390.836871 239.758125 
L 391.744803 239.758125 
L 391.744803 154.386085 
L 390.836871 154.386085 
z
" style="fill:#1f77b4;"/>
   </g>
   <g id="patch_296">
    <path clip-path="url(#paaccbd22a0)" d="M 391.971786 239.758125 
L 392.879718 239.758125 
L 392.879718 209.360505 
L 391.971786 209.360505 
z
" style="fill:#1f77b4;"/>
   </g>
   <g id="patch_297">
    <path clip-path="url(#paaccbd22a0)" d="M 393.106701 239.758125 
L 394.014633 239.758125 
L 394.014633 215.828083 
L 393.106701 215.828083 
z
" style="fill:#1f77b4;"/>
   </g>
   <g id="matplotlib.axis_1">
    <g id="xtick_1">
     <g id="line2d_1">
      <defs>
       <path d="M 0 0 
L 0 3.5 
" id="me39ef1572a" style="stroke:#000000;stroke-width:0.8;"/>
      </defs>
      <g>
       <use style="stroke:#000000;stroke-width:0.8;" x="79.189142" xlink:href="#me39ef1572a" y="239.758125"/>
      </g>
     </g>
     <g id="text_1">
      <!-- 2020-04 -->
      <g transform="translate(81.948517 288.540937)rotate(-90)scale(0.1 -0.1)">
       <defs>
        <path d="M 19.1875 8.296875 
L 53.609375 8.296875 
L 53.609375 0 
L 7.328125 0 
L 7.328125 8.296875 
Q 12.9375 14.109375 22.625 23.890625 
Q 32.328125 33.6875 34.8125 36.53125 
Q 39.546875 41.84375 41.421875 45.53125 
Q 43.3125 49.21875 43.3125 52.78125 
Q 43.3125 58.59375 39.234375 62.25 
Q 35.15625 65.921875 28.609375 65.921875 
Q 23.96875 65.921875 18.8125 64.3125 
Q 13.671875 62.703125 7.8125 59.421875 
L 7.8125 69.390625 
Q 13.765625 71.78125 18.9375 73 
Q 24.125 74.21875 28.421875 74.21875 
Q 39.75 74.21875 46.484375 68.546875 
Q 53.21875 62.890625 53.21875 53.421875 
Q 53.21875 48.921875 51.53125 44.890625 
Q 49.859375 40.875 45.40625 35.40625 
Q 44.1875 33.984375 37.640625 27.21875 
Q 31.109375 20.453125 19.1875 8.296875 
z
" id="DejaVuSans-50"/>
        <path d="M 31.78125 66.40625 
Q 24.171875 66.40625 20.328125 58.90625 
Q 16.5 51.421875 16.5 36.375 
Q 16.5 21.390625 20.328125 13.890625 
Q 24.171875 6.390625 31.78125 6.390625 
Q 39.453125 6.390625 43.28125 13.890625 
Q 47.125 21.390625 47.125 36.375 
Q 47.125 51.421875 43.28125 58.90625 
Q 39.453125 66.40625 31.78125 66.40625 
z
M 31.78125 74.21875 
Q 44.046875 74.21875 50.515625 64.515625 
Q 56.984375 54.828125 56.984375 36.375 
Q 56.984375 17.96875 50.515625 8.265625 
Q 44.046875 -1.421875 31.78125 -1.421875 
Q 19.53125 -1.421875 13.0625 8.265625 
Q 6.59375 17.96875 6.59375 36.375 
Q 6.59375 54.828125 13.0625 64.515625 
Q 19.53125 74.21875 31.78125 74.21875 
z
" id="DejaVuSans-48"/>
        <path d="M 4.890625 31.390625 
L 31.203125 31.390625 
L 31.203125 23.390625 
L 4.890625 23.390625 
z
" id="DejaVuSans-45"/>
        <path d="M 37.796875 64.3125 
L 12.890625 25.390625 
L 37.796875 25.390625 
z
M 35.203125 72.90625 
L 47.609375 72.90625 
L 47.609375 25.390625 
L 58.015625 25.390625 
L 58.015625 17.1875 
L 47.609375 17.1875 
L 47.609375 0 
L 37.796875 0 
L 37.796875 17.1875 
L 4.890625 17.1875 
L 4.890625 26.703125 
z
" id="DejaVuSans-52"/>
       </defs>
       <use xlink:href="#DejaVuSans-50"/>
       <use x="63.623047" xlink:href="#DejaVuSans-48"/>
       <use x="127.246094" xlink:href="#DejaVuSans-50"/>
       <use x="190.869141" xlink:href="#DejaVuSans-48"/>
       <use x="254.492188" xlink:href="#DejaVuSans-45"/>
       <use x="290.576172" xlink:href="#DejaVuSans-48"/>
       <use x="354.199219" xlink:href="#DejaVuSans-52"/>
      </g>
     </g>
    </g>
    <g id="xtick_2">
     <g id="line2d_2">
      <g>
       <use style="stroke:#000000;stroke-width:0.8;" x="113.2366" xlink:href="#me39ef1572a" y="239.758125"/>
      </g>
     </g>
     <g id="text_2">
      <!-- 2020-05 -->
      <g transform="translate(115.995975 288.540937)rotate(-90)scale(0.1 -0.1)">
       <defs>
        <path d="M 10.796875 72.90625 
L 49.515625 72.90625 
L 49.515625 64.59375 
L 19.828125 64.59375 
L 19.828125 46.734375 
Q 21.96875 47.46875 24.109375 47.828125 
Q 26.265625 48.1875 28.421875 48.1875 
Q 40.625 48.1875 47.75 41.5 
Q 54.890625 34.8125 54.890625 23.390625 
Q 54.890625 11.625 47.5625 5.09375 
Q 40.234375 -1.421875 26.90625 -1.421875 
Q 22.3125 -1.421875 17.546875 -0.640625 
Q 12.796875 0.140625 7.71875 1.703125 
L 7.71875 11.625 
Q 12.109375 9.234375 16.796875 8.0625 
Q 21.484375 6.890625 26.703125 6.890625 
Q 35.15625 6.890625 40.078125 11.328125 
Q 45.015625 15.765625 45.015625 23.390625 
Q 45.015625 31 40.078125 35.4375 
Q 35.15625 39.890625 26.703125 39.890625 
Q 22.75 39.890625 18.8125 39.015625 
Q 14.890625 38.140625 10.796875 36.28125 
z
" id="DejaVuSans-53"/>
       </defs>
       <use xlink:href="#DejaVuSans-50"/>
       <use x="63.623047" xlink:href="#DejaVuSans-48"/>
       <use x="127.246094" xlink:href="#DejaVuSans-50"/>
       <use x="190.869141" xlink:href="#DejaVuSans-48"/>
       <use x="254.492188" xlink:href="#DejaVuSans-45"/>
       <use x="290.576172" xlink:href="#DejaVuSans-48"/>
       <use x="354.199219" xlink:href="#DejaVuSans-53"/>
      </g>
     </g>
    </g>
    <g id="xtick_3">
     <g id="line2d_3">
      <g>
       <use style="stroke:#000000;stroke-width:0.8;" x="148.418972" xlink:href="#me39ef1572a" y="239.758125"/>
      </g>
     </g>
     <g id="text_3">
      <!-- 2020-06 -->
      <g transform="translate(151.178347 288.540937)rotate(-90)scale(0.1 -0.1)">
       <defs>
        <path d="M 33.015625 40.375 
Q 26.375 40.375 22.484375 35.828125 
Q 18.609375 31.296875 18.609375 23.390625 
Q 18.609375 15.53125 22.484375 10.953125 
Q 26.375 6.390625 33.015625 6.390625 
Q 39.65625 6.390625 43.53125 10.953125 
Q 47.40625 15.53125 47.40625 23.390625 
Q 47.40625 31.296875 43.53125 35.828125 
Q 39.65625 40.375 33.015625 40.375 
z
M 52.59375 71.296875 
L 52.59375 62.3125 
Q 48.875 64.0625 45.09375 64.984375 
Q 41.3125 65.921875 37.59375 65.921875 
Q 27.828125 65.921875 22.671875 59.328125 
Q 17.53125 52.734375 16.796875 39.40625 
Q 19.671875 43.65625 24.015625 45.921875 
Q 28.375 48.1875 33.59375 48.1875 
Q 44.578125 48.1875 50.953125 41.515625 
Q 57.328125 34.859375 57.328125 23.390625 
Q 57.328125 12.15625 50.6875 5.359375 
Q 44.046875 -1.421875 33.015625 -1.421875 
Q 20.359375 -1.421875 13.671875 8.265625 
Q 6.984375 17.96875 6.984375 36.375 
Q 6.984375 53.65625 15.1875 63.9375 
Q 23.390625 74.21875 37.203125 74.21875 
Q 40.921875 74.21875 44.703125 73.484375 
Q 48.484375 72.75 52.59375 71.296875 
z
" id="DejaVuSans-54"/>
       </defs>
       <use xlink:href="#DejaVuSans-50"/>
       <use x="63.623047" xlink:href="#DejaVuSans-48"/>
       <use x="127.246094" xlink:href="#DejaVuSans-50"/>
       <use x="190.869141" xlink:href="#DejaVuSans-48"/>
       <use x="254.492188" xlink:href="#DejaVuSans-45"/>
       <use x="290.576172" xlink:href="#DejaVuSans-48"/>
       <use x="354.199219" xlink:href="#DejaVuSans-54"/>
      </g>
     </g>
    </g>
    <g id="xtick_4">
     <g id="line2d_4">
      <g>
       <use style="stroke:#000000;stroke-width:0.8;" x="182.46643" xlink:href="#me39ef1572a" y="239.758125"/>
      </g>
     </g>
     <g id="text_4">
      <!-- 2020-07 -->
      <g transform="translate(185.225805 288.540937)rotate(-90)scale(0.1 -0.1)">
       <defs>
        <path d="M 8.203125 72.90625 
L 55.078125 72.90625 
L 55.078125 68.703125 
L 28.609375 0 
L 18.3125 0 
L 43.21875 64.59375 
L 8.203125 64.59375 
z
" id="DejaVuSans-55"/>
       </defs>
       <use xlink:href="#DejaVuSans-50"/>
       <use x="63.623047" xlink:href="#DejaVuSans-48"/>
       <use x="127.246094" xlink:href="#DejaVuSans-50"/>
       <use x="190.869141" xlink:href="#DejaVuSans-48"/>
       <use x="254.492188" xlink:href="#DejaVuSans-45"/>
       <use x="290.576172" xlink:href="#DejaVuSans-48"/>
       <use x="354.199219" xlink:href="#DejaVuSans-55"/>
      </g>
     </g>
    </g>
    <g id="xtick_5">
     <g id="line2d_5">
      <g>
       <use style="stroke:#000000;stroke-width:0.8;" x="217.648803" xlink:href="#me39ef1572a" y="239.758125"/>
      </g>
     </g>
     <g id="text_5">
      <!-- 2020-08 -->
      <g transform="translate(220.408178 288.540937)rotate(-90)scale(0.1 -0.1)">
       <defs>
        <path d="M 31.78125 34.625 
Q 24.75 34.625 20.71875 30.859375 
Q 16.703125 27.09375 16.703125 20.515625 
Q 16.703125 13.921875 20.71875 10.15625 
Q 24.75 6.390625 31.78125 6.390625 
Q 38.8125 6.390625 42.859375 10.171875 
Q 46.921875 13.96875 46.921875 20.515625 
Q 46.921875 27.09375 42.890625 30.859375 
Q 38.875 34.625 31.78125 34.625 
z
M 21.921875 38.8125 
Q 15.578125 40.375 12.03125 44.71875 
Q 8.5 49.078125 8.5 55.328125 
Q 8.5 64.0625 14.71875 69.140625 
Q 20.953125 74.21875 31.78125 74.21875 
Q 42.671875 74.21875 48.875 69.140625 
Q 55.078125 64.0625 55.078125 55.328125 
Q 55.078125 49.078125 51.53125 44.71875 
Q 48 40.375 41.703125 38.8125 
Q 48.828125 37.15625 52.796875 32.3125 
Q 56.78125 27.484375 56.78125 20.515625 
Q 56.78125 9.90625 50.3125 4.234375 
Q 43.84375 -1.421875 31.78125 -1.421875 
Q 19.734375 -1.421875 13.25 4.234375 
Q 6.78125 9.90625 6.78125 20.515625 
Q 6.78125 27.484375 10.78125 32.3125 
Q 14.796875 37.15625 21.921875 38.8125 
z
M 18.3125 54.390625 
Q 18.3125 48.734375 21.84375 45.5625 
Q 25.390625 42.390625 31.78125 42.390625 
Q 38.140625 42.390625 41.71875 45.5625 
Q 45.3125 48.734375 45.3125 54.390625 
Q 45.3125 60.0625 41.71875 63.234375 
Q 38.140625 66.40625 31.78125 66.40625 
Q 25.390625 66.40625 21.84375 63.234375 
Q 18.3125 60.0625 18.3125 54.390625 
z
" id="DejaVuSans-56"/>
       </defs>
       <use xlink:href="#DejaVuSans-50"/>
       <use x="63.623047" xlink:href="#DejaVuSans-48"/>
       <use x="127.246094" xlink:href="#DejaVuSans-50"/>
       <use x="190.869141" xlink:href="#DejaVuSans-48"/>
       <use x="254.492188" xlink:href="#DejaVuSans-45"/>
       <use x="290.576172" xlink:href="#DejaVuSans-48"/>
       <use x="354.199219" xlink:href="#DejaVuSans-56"/>
      </g>
     </g>
    </g>
    <g id="xtick_6">
     <g id="line2d_6">
      <g>
       <use style="stroke:#000000;stroke-width:0.8;" x="252.831176" xlink:href="#me39ef1572a" y="239.758125"/>
      </g>
     </g>
     <g id="text_6">
      <!-- 2020-09 -->
      <g transform="translate(255.590551 288.540937)rotate(-90)scale(0.1 -0.1)">
       <defs>
        <path d="M 10.984375 1.515625 
L 10.984375 10.5 
Q 14.703125 8.734375 18.5 7.8125 
Q 22.3125 6.890625 25.984375 6.890625 
Q 35.75 6.890625 40.890625 13.453125 
Q 46.046875 20.015625 46.78125 33.40625 
Q 43.953125 29.203125 39.59375 26.953125 
Q 35.25 24.703125 29.984375 24.703125 
Q 19.046875 24.703125 12.671875 31.3125 
Q 6.296875 37.9375 6.296875 49.421875 
Q 6.296875 60.640625 12.9375 67.421875 
Q 19.578125 74.21875 30.609375 74.21875 
Q 43.265625 74.21875 49.921875 64.515625 
Q 56.59375 54.828125 56.59375 36.375 
Q 56.59375 19.140625 48.40625 8.859375 
Q 40.234375 -1.421875 26.421875 -1.421875 
Q 22.703125 -1.421875 18.890625 -0.6875 
Q 15.09375 0.046875 10.984375 1.515625 
z
M 30.609375 32.421875 
Q 37.25 32.421875 41.125 36.953125 
Q 45.015625 41.5 45.015625 49.421875 
Q 45.015625 57.28125 41.125 61.84375 
Q 37.25 66.40625 30.609375 66.40625 
Q 23.96875 66.40625 20.09375 61.84375 
Q 16.21875 57.28125 16.21875 49.421875 
Q 16.21875 41.5 20.09375 36.953125 
Q 23.96875 32.421875 30.609375 32.421875 
z
" id="DejaVuSans-57"/>
       </defs>
       <use xlink:href="#DejaVuSans-50"/>
       <use x="63.623047" xlink:href="#DejaVuSans-48"/>
       <use x="127.246094" xlink:href="#DejaVuSans-50"/>
       <use x="190.869141" xlink:href="#DejaVuSans-48"/>
       <use x="254.492188" xlink:href="#DejaVuSans-45"/>
       <use x="290.576172" xlink:href="#DejaVuSans-48"/>
       <use x="354.199219" xlink:href="#DejaVuSans-57"/>
      </g>
     </g>
    </g>
    <g id="xtick_7">
     <g id="line2d_7">
      <g>
       <use style="stroke:#000000;stroke-width:0.8;" x="286.878633" xlink:href="#me39ef1572a" y="239.758125"/>
      </g>
     </g>
     <g id="text_7">
      <!-- 2020-10 -->
      <g transform="translate(289.638008 288.540937)rotate(-90)scale(0.1 -0.1)">
       <defs>
        <path d="M 12.40625 8.296875 
L 28.515625 8.296875 
L 28.515625 63.921875 
L 10.984375 60.40625 
L 10.984375 69.390625 
L 28.421875 72.90625 
L 38.28125 72.90625 
L 38.28125 8.296875 
L 54.390625 8.296875 
L 54.390625 0 
L 12.40625 0 
z
" id="DejaVuSans-49"/>
       </defs>
       <use xlink:href="#DejaVuSans-50"/>
       <use x="63.623047" xlink:href="#DejaVuSans-48"/>
       <use x="127.246094" xlink:href="#DejaVuSans-50"/>
       <use x="190.869141" xlink:href="#DejaVuSans-48"/>
       <use x="254.492188" xlink:href="#DejaVuSans-45"/>
       <use x="290.576172" xlink:href="#DejaVuSans-49"/>
       <use x="354.199219" xlink:href="#DejaVuSans-48"/>
      </g>
     </g>
    </g>
    <g id="xtick_8">
     <g id="line2d_8">
      <g>
       <use style="stroke:#000000;stroke-width:0.8;" x="322.061006" xlink:href="#me39ef1572a" y="239.758125"/>
      </g>
     </g>
     <g id="text_8">
      <!-- 2020-11 -->
      <g transform="translate(324.820381 288.540937)rotate(-90)scale(0.1 -0.1)">
       <use xlink:href="#DejaVuSans-50"/>
       <use x="63.623047" xlink:href="#DejaVuSans-48"/>
       <use x="127.246094" xlink:href="#DejaVuSans-50"/>
       <use x="190.869141" xlink:href="#DejaVuSans-48"/>
       <use x="254.492188" xlink:href="#DejaVuSans-45"/>
       <use x="290.576172" xlink:href="#DejaVuSans-49"/>
       <use x="354.199219" xlink:href="#DejaVuSans-49"/>
      </g>
     </g>
    </g>
    <g id="xtick_9">
     <g id="line2d_9">
      <g>
       <use style="stroke:#000000;stroke-width:0.8;" x="356.108464" xlink:href="#me39ef1572a" y="239.758125"/>
      </g>
     </g>
     <g id="text_9">
      <!-- 2020-12 -->
      <g transform="translate(358.867839 288.540937)rotate(-90)scale(0.1 -0.1)">
       <use xlink:href="#DejaVuSans-50"/>
       <use x="63.623047" xlink:href="#DejaVuSans-48"/>
       <use x="127.246094" xlink:href="#DejaVuSans-50"/>
       <use x="190.869141" xlink:href="#DejaVuSans-48"/>
       <use x="254.492188" xlink:href="#DejaVuSans-45"/>
       <use x="290.576172" xlink:href="#DejaVuSans-49"/>
       <use x="354.199219" xlink:href="#DejaVuSans-50"/>
      </g>
     </g>
    </g>
    <g id="xtick_10">
     <g id="line2d_10">
      <g>
       <use style="stroke:#000000;stroke-width:0.8;" x="391.290837" xlink:href="#me39ef1572a" y="239.758125"/>
      </g>
     </g>
     <g id="text_10">
      <!-- 2021-01 -->
      <g transform="translate(394.050212 288.540937)rotate(-90)scale(0.1 -0.1)">
       <use xlink:href="#DejaVuSans-50"/>
       <use x="63.623047" xlink:href="#DejaVuSans-48"/>
       <use x="127.246094" xlink:href="#DejaVuSans-50"/>
       <use x="190.869141" xlink:href="#DejaVuSans-49"/>
       <use x="254.492188" xlink:href="#DejaVuSans-45"/>
       <use x="290.576172" xlink:href="#DejaVuSans-48"/>
       <use x="354.199219" xlink:href="#DejaVuSans-49"/>
      </g>
     </g>
    </g>
    <g id="text_11">
     <!-- date -->
     <g transform="translate(215.453125 306.139375)scale(0.1 -0.1)">
      <defs>
       <path d="M 45.40625 46.390625 
L 45.40625 75.984375 
L 54.390625 75.984375 
L 54.390625 0 
L 45.40625 0 
L 45.40625 8.203125 
Q 42.578125 3.328125 38.25 0.953125 
Q 33.9375 -1.421875 27.875 -1.421875 
Q 17.96875 -1.421875 11.734375 6.484375 
Q 5.515625 14.40625 5.515625 27.296875 
Q 5.515625 40.1875 11.734375 48.09375 
Q 17.96875 56 27.875 56 
Q 33.9375 56 38.25 53.625 
Q 42.578125 51.265625 45.40625 46.390625 
z
M 14.796875 27.296875 
Q 14.796875 17.390625 18.875 11.75 
Q 22.953125 6.109375 30.078125 6.109375 
Q 37.203125 6.109375 41.296875 11.75 
Q 45.40625 17.390625 45.40625 27.296875 
Q 45.40625 37.203125 41.296875 42.84375 
Q 37.203125 48.484375 30.078125 48.484375 
Q 22.953125 48.484375 18.875 42.84375 
Q 14.796875 37.203125 14.796875 27.296875 
z
" id="DejaVuSans-100"/>
       <path d="M 34.28125 27.484375 
Q 23.390625 27.484375 19.1875 25 
Q 14.984375 22.515625 14.984375 16.5 
Q 14.984375 11.71875 18.140625 8.90625 
Q 21.296875 6.109375 26.703125 6.109375 
Q 34.1875 6.109375 38.703125 11.40625 
Q 43.21875 16.703125 43.21875 25.484375 
L 43.21875 27.484375 
z
M 52.203125 31.203125 
L 52.203125 0 
L 43.21875 0 
L 43.21875 8.296875 
Q 40.140625 3.328125 35.546875 0.953125 
Q 30.953125 -1.421875 24.3125 -1.421875 
Q 15.921875 -1.421875 10.953125 3.296875 
Q 6 8.015625 6 15.921875 
Q 6 25.140625 12.171875 29.828125 
Q 18.359375 34.515625 30.609375 34.515625 
L 43.21875 34.515625 
L 43.21875 35.40625 
Q 43.21875 41.609375 39.140625 45 
Q 35.0625 48.390625 27.6875 48.390625 
Q 23 48.390625 18.546875 47.265625 
Q 14.109375 46.140625 10.015625 43.890625 
L 10.015625 52.203125 
Q 14.9375 54.109375 19.578125 55.046875 
Q 24.21875 56 28.609375 56 
Q 40.484375 56 46.34375 49.84375 
Q 52.203125 43.703125 52.203125 31.203125 
z
" id="DejaVuSans-97"/>
       <path d="M 18.3125 70.21875 
L 18.3125 54.6875 
L 36.8125 54.6875 
L 36.8125 47.703125 
L 18.3125 47.703125 
L 18.3125 18.015625 
Q 18.3125 11.328125 20.140625 9.421875 
Q 21.96875 7.515625 27.59375 7.515625 
L 36.8125 7.515625 
L 36.8125 0 
L 27.59375 0 
Q 17.1875 0 13.234375 3.875 
Q 9.28125 7.765625 9.28125 18.015625 
L 9.28125 47.703125 
L 2.6875 47.703125 
L 2.6875 54.6875 
L 9.28125 54.6875 
L 9.28125 70.21875 
z
" id="DejaVuSans-116"/>
       <path d="M 56.203125 29.59375 
L 56.203125 25.203125 
L 14.890625 25.203125 
Q 15.484375 15.921875 20.484375 11.0625 
Q 25.484375 6.203125 34.421875 6.203125 
Q 39.59375 6.203125 44.453125 7.46875 
Q 49.3125 8.734375 54.109375 11.28125 
L 54.109375 2.78125 
Q 49.265625 0.734375 44.1875 -0.34375 
Q 39.109375 -1.421875 33.890625 -1.421875 
Q 20.796875 -1.421875 13.15625 6.1875 
Q 5.515625 13.8125 5.515625 26.8125 
Q 5.515625 40.234375 12.765625 48.109375 
Q 20.015625 56 32.328125 56 
Q 43.359375 56 49.78125 48.890625 
Q 56.203125 41.796875 56.203125 29.59375 
z
M 47.21875 32.234375 
Q 47.125 39.59375 43.09375 43.984375 
Q 39.0625 48.390625 32.421875 48.390625 
Q 24.90625 48.390625 20.390625 44.140625 
Q 15.875 39.890625 15.1875 32.171875 
z
" id="DejaVuSans-101"/>
      </defs>
      <use xlink:href="#DejaVuSans-100"/>
      <use x="63.476562" xlink:href="#DejaVuSans-97"/>
      <use x="124.755859" xlink:href="#DejaVuSans-116"/>
      <use x="163.964844" xlink:href="#DejaVuSans-101"/>
     </g>
    </g>
   </g>
   <g id="matplotlib.axis_2">
    <g id="ytick_1">
     <g id="line2d_11">
      <defs>
       <path d="M 0 0 
L -3.5 0 
" id="m39c7d867c3" style="stroke:#000000;stroke-width:0.8;"/>
      </defs>
      <g>
       <use style="stroke:#000000;stroke-width:0.8;" x="59.328125" xlink:href="#m39c7d867c3" y="239.758125"/>
      </g>
     </g>
     <g id="text_12">
      <!-- 0 -->
      <g transform="translate(45.965625 243.557344)scale(0.1 -0.1)">
       <use xlink:href="#DejaVuSans-48"/>
      </g>
     </g>
    </g>
    <g id="ytick_2">
     <g id="line2d_12">
      <g>
       <use style="stroke:#000000;stroke-width:0.8;" x="59.328125" xlink:href="#m39c7d867c3" y="213.88781"/>
      </g>
     </g>
     <g id="text_13">
      <!-- 200 -->
      <g transform="translate(33.240625 217.687028)scale(0.1 -0.1)">
       <use xlink:href="#DejaVuSans-50"/>
       <use x="63.623047" xlink:href="#DejaVuSans-48"/>
       <use x="127.246094" xlink:href="#DejaVuSans-48"/>
      </g>
     </g>
    </g>
    <g id="ytick_3">
     <g id="line2d_13">
      <g>
       <use style="stroke:#000000;stroke-width:0.8;" x="59.328125" xlink:href="#m39c7d867c3" y="188.017494"/>
      </g>
     </g>
     <g id="text_14">
      <!-- 400 -->
      <g transform="translate(33.240625 191.816713)scale(0.1 -0.1)">
       <use xlink:href="#DejaVuSans-52"/>
       <use x="63.623047" xlink:href="#DejaVuSans-48"/>
       <use x="127.246094" xlink:href="#DejaVuSans-48"/>
      </g>
     </g>
    </g>
    <g id="ytick_4">
     <g id="line2d_14">
      <g>
       <use style="stroke:#000000;stroke-width:0.8;" x="59.328125" xlink:href="#m39c7d867c3" y="162.147179"/>
      </g>
     </g>
     <g id="text_15">
      <!-- 600 -->
      <g transform="translate(33.240625 165.946398)scale(0.1 -0.1)">
       <use xlink:href="#DejaVuSans-54"/>
       <use x="63.623047" xlink:href="#DejaVuSans-48"/>
       <use x="127.246094" xlink:href="#DejaVuSans-48"/>
      </g>
     </g>
    </g>
    <g id="ytick_5">
     <g id="line2d_15">
      <g>
       <use style="stroke:#000000;stroke-width:0.8;" x="59.328125" xlink:href="#m39c7d867c3" y="136.276864"/>
      </g>
     </g>
     <g id="text_16">
      <!-- 800 -->
      <g transform="translate(33.240625 140.076083)scale(0.1 -0.1)">
       <use xlink:href="#DejaVuSans-56"/>
       <use x="63.623047" xlink:href="#DejaVuSans-48"/>
       <use x="127.246094" xlink:href="#DejaVuSans-48"/>
      </g>
     </g>
    </g>
    <g id="ytick_6">
     <g id="line2d_16">
      <g>
       <use style="stroke:#000000;stroke-width:0.8;" x="59.328125" xlink:href="#m39c7d867c3" y="110.406549"/>
      </g>
     </g>
     <g id="text_17">
      <!-- 1000 -->
      <g transform="translate(26.878125 114.205767)scale(0.1 -0.1)">
       <use xlink:href="#DejaVuSans-49"/>
       <use x="63.623047" xlink:href="#DejaVuSans-48"/>
       <use x="127.246094" xlink:href="#DejaVuSans-48"/>
       <use x="190.869141" xlink:href="#DejaVuSans-48"/>
      </g>
     </g>
    </g>
    <g id="ytick_7">
     <g id="line2d_17">
      <g>
       <use style="stroke:#000000;stroke-width:0.8;" x="59.328125" xlink:href="#m39c7d867c3" y="84.536233"/>
      </g>
     </g>
     <g id="text_18">
      <!-- 1200 -->
      <g transform="translate(26.878125 88.335452)scale(0.1 -0.1)">
       <use xlink:href="#DejaVuSans-49"/>
       <use x="63.623047" xlink:href="#DejaVuSans-50"/>
       <use x="127.246094" xlink:href="#DejaVuSans-48"/>
       <use x="190.869141" xlink:href="#DejaVuSans-48"/>
      </g>
     </g>
    </g>
    <g id="ytick_8">
     <g id="line2d_18">
      <g>
       <use style="stroke:#000000;stroke-width:0.8;" x="59.328125" xlink:href="#m39c7d867c3" y="58.665918"/>
      </g>
     </g>
     <g id="text_19">
      <!-- 1400 -->
      <g transform="translate(26.878125 62.465137)scale(0.1 -0.1)">
       <use xlink:href="#DejaVuSans-49"/>
       <use x="63.623047" xlink:href="#DejaVuSans-52"/>
       <use x="127.246094" xlink:href="#DejaVuSans-48"/>
       <use x="190.869141" xlink:href="#DejaVuSans-48"/>
      </g>
     </g>
    </g>
    <g id="ytick_9">
     <g id="line2d_19">
      <g>
       <use style="stroke:#000000;stroke-width:0.8;" x="59.328125" xlink:href="#m39c7d867c3" y="32.795603"/>
      </g>
     </g>
     <g id="text_20">
      <!-- 1600 -->
      <g transform="translate(26.878125 36.594821)scale(0.1 -0.1)">
       <use xlink:href="#DejaVuSans-49"/>
       <use x="63.623047" xlink:href="#DejaVuSans-54"/>
       <use x="127.246094" xlink:href="#DejaVuSans-48"/>
       <use x="190.869141" xlink:href="#DejaVuSans-48"/>
      </g>
     </g>
    </g>
    <g id="text_21">
     <!-- daily tested persons -->
     <g transform="translate(14.798438 181.788125)rotate(-90)scale(0.1 -0.1)">
      <defs>
       <path d="M 9.421875 54.6875 
L 18.40625 54.6875 
L 18.40625 0 
L 9.421875 0 
z
M 9.421875 75.984375 
L 18.40625 75.984375 
L 18.40625 64.59375 
L 9.421875 64.59375 
z
" id="DejaVuSans-105"/>
       <path d="M 9.421875 75.984375 
L 18.40625 75.984375 
L 18.40625 0 
L 9.421875 0 
z
" id="DejaVuSans-108"/>
       <path d="M 32.171875 -5.078125 
Q 28.375 -14.84375 24.75 -17.8125 
Q 21.140625 -20.796875 15.09375 -20.796875 
L 7.90625 -20.796875 
L 7.90625 -13.28125 
L 13.1875 -13.28125 
Q 16.890625 -13.28125 18.9375 -11.515625 
Q 21 -9.765625 23.484375 -3.21875 
L 25.09375 0.875 
L 2.984375 54.6875 
L 12.5 54.6875 
L 29.59375 11.921875 
L 46.6875 54.6875 
L 56.203125 54.6875 
z
" id="DejaVuSans-121"/>
       <path id="DejaVuSans-32"/>
       <path d="M 44.28125 53.078125 
L 44.28125 44.578125 
Q 40.484375 46.53125 36.375 47.5 
Q 32.28125 48.484375 27.875 48.484375 
Q 21.1875 48.484375 17.84375 46.4375 
Q 14.5 44.390625 14.5 40.28125 
Q 14.5 37.15625 16.890625 35.375 
Q 19.28125 33.59375 26.515625 31.984375 
L 29.59375 31.296875 
Q 39.15625 29.25 43.1875 25.515625 
Q 47.21875 21.78125 47.21875 15.09375 
Q 47.21875 7.46875 41.1875 3.015625 
Q 35.15625 -1.421875 24.609375 -1.421875 
Q 20.21875 -1.421875 15.453125 -0.5625 
Q 10.6875 0.296875 5.421875 2 
L 5.421875 11.28125 
Q 10.40625 8.6875 15.234375 7.390625 
Q 20.0625 6.109375 24.8125 6.109375 
Q 31.15625 6.109375 34.5625 8.28125 
Q 37.984375 10.453125 37.984375 14.40625 
Q 37.984375 18.0625 35.515625 20.015625 
Q 33.0625 21.96875 24.703125 23.78125 
L 21.578125 24.515625 
Q 13.234375 26.265625 9.515625 29.90625 
Q 5.8125 33.546875 5.8125 39.890625 
Q 5.8125 47.609375 11.28125 51.796875 
Q 16.75 56 26.8125 56 
Q 31.78125 56 36.171875 55.265625 
Q 40.578125 54.546875 44.28125 53.078125 
z
" id="DejaVuSans-115"/>
       <path d="M 18.109375 8.203125 
L 18.109375 -20.796875 
L 9.078125 -20.796875 
L 9.078125 54.6875 
L 18.109375 54.6875 
L 18.109375 46.390625 
Q 20.953125 51.265625 25.265625 53.625 
Q 29.59375 56 35.59375 56 
Q 45.5625 56 51.78125 48.09375 
Q 58.015625 40.1875 58.015625 27.296875 
Q 58.015625 14.40625 51.78125 6.484375 
Q 45.5625 -1.421875 35.59375 -1.421875 
Q 29.59375 -1.421875 25.265625 0.953125 
Q 20.953125 3.328125 18.109375 8.203125 
z
M 48.6875 27.296875 
Q 48.6875 37.203125 44.609375 42.84375 
Q 40.53125 48.484375 33.40625 48.484375 
Q 26.265625 48.484375 22.1875 42.84375 
Q 18.109375 37.203125 18.109375 27.296875 
Q 18.109375 17.390625 22.1875 11.75 
Q 26.265625 6.109375 33.40625 6.109375 
Q 40.53125 6.109375 44.609375 11.75 
Q 48.6875 17.390625 48.6875 27.296875 
z
" id="DejaVuSans-112"/>
       <path d="M 41.109375 46.296875 
Q 39.59375 47.171875 37.8125 47.578125 
Q 36.03125 48 33.890625 48 
Q 26.265625 48 22.1875 43.046875 
Q 18.109375 38.09375 18.109375 28.8125 
L 18.109375 0 
L 9.078125 0 
L 9.078125 54.6875 
L 18.109375 54.6875 
L 18.109375 46.1875 
Q 20.953125 51.171875 25.484375 53.578125 
Q 30.03125 56 36.53125 56 
Q 37.453125 56 38.578125 55.875 
Q 39.703125 55.765625 41.0625 55.515625 
z
" id="DejaVuSans-114"/>
       <path d="M 30.609375 48.390625 
Q 23.390625 48.390625 19.1875 42.75 
Q 14.984375 37.109375 14.984375 27.296875 
Q 14.984375 17.484375 19.15625 11.84375 
Q 23.34375 6.203125 30.609375 6.203125 
Q 37.796875 6.203125 41.984375 11.859375 
Q 46.1875 17.53125 46.1875 27.296875 
Q 46.1875 37.015625 41.984375 42.703125 
Q 37.796875 48.390625 30.609375 48.390625 
z
M 30.609375 56 
Q 42.328125 56 49.015625 48.375 
Q 55.71875 40.765625 55.71875 27.296875 
Q 55.71875 13.875 49.015625 6.21875 
Q 42.328125 -1.421875 30.609375 -1.421875 
Q 18.84375 -1.421875 12.171875 6.21875 
Q 5.515625 13.875 5.515625 27.296875 
Q 5.515625 40.765625 12.171875 48.375 
Q 18.84375 56 30.609375 56 
z
" id="DejaVuSans-111"/>
       <path d="M 54.890625 33.015625 
L 54.890625 0 
L 45.90625 0 
L 45.90625 32.71875 
Q 45.90625 40.484375 42.875 44.328125 
Q 39.84375 48.1875 33.796875 48.1875 
Q 26.515625 48.1875 22.3125 43.546875 
Q 18.109375 38.921875 18.109375 30.90625 
L 18.109375 0 
L 9.078125 0 
L 9.078125 54.6875 
L 18.109375 54.6875 
L 18.109375 46.1875 
Q 21.34375 51.125 25.703125 53.5625 
Q 30.078125 56 35.796875 56 
Q 45.21875 56 50.046875 50.171875 
Q 54.890625 44.34375 54.890625 33.015625 
z
" id="DejaVuSans-110"/>
      </defs>
      <use xlink:href="#DejaVuSans-100"/>
      <use x="63.476562" xlink:href="#DejaVuSans-97"/>
      <use x="124.755859" xlink:href="#DejaVuSans-105"/>
      <use x="152.539062" xlink:href="#DejaVuSans-108"/>
      <use x="180.322266" xlink:href="#DejaVuSans-121"/>
      <use x="239.501953" xlink:href="#DejaVuSans-32"/>
      <use x="271.289062" xlink:href="#DejaVuSans-116"/>
      <use x="310.498047" xlink:href="#DejaVuSans-101"/>
      <use x="372.021484" xlink:href="#DejaVuSans-115"/>
      <use x="424.121094" xlink:href="#DejaVuSans-116"/>
      <use x="463.330078" xlink:href="#DejaVuSans-101"/>
      <use x="524.853516" xlink:href="#DejaVuSans-100"/>
      <use x="588.330078" xlink:href="#DejaVuSans-32"/>
      <use x="620.117188" xlink:href="#DejaVuSans-112"/>
      <use x="683.59375" xlink:href="#DejaVuSans-101"/>
      <use x="745.117188" xlink:href="#DejaVuSans-114"/>
      <use x="786.230469" xlink:href="#DejaVuSans-115"/>
      <use x="838.330078" xlink:href="#DejaVuSans-111"/>
      <use x="899.511719" xlink:href="#DejaVuSans-110"/>
      <use x="962.890625" xlink:href="#DejaVuSans-115"/>
     </g>
    </g>
   </g>
   <g id="patch_298">
    <path d="M 59.328125 239.758125 
L 59.328125 22.318125 
" style="fill:none;stroke:#000000;stroke-linecap:square;stroke-linejoin:miter;stroke-width:0.8;"/>
   </g>
   <g id="patch_299">
    <path d="M 59.328125 239.758125 
L 394.128125 239.758125 
" style="fill:none;stroke:#000000;stroke-linecap:square;stroke-linejoin:miter;stroke-width:0.8;"/>
   </g>
   <g id="text_22">
    <!-- South Tyrol -->
    <g transform="translate(193.435625 16.318125)scale(0.12 -0.12)">
     <defs>
      <path d="M 53.515625 70.515625 
L 53.515625 60.890625 
Q 47.90625 63.578125 42.921875 64.890625 
Q 37.9375 66.21875 33.296875 66.21875 
Q 25.25 66.21875 20.875 63.09375 
Q 16.5 59.96875 16.5 54.203125 
Q 16.5 49.359375 19.40625 46.890625 
Q 22.3125 44.4375 30.421875 42.921875 
L 36.375 41.703125 
Q 47.40625 39.59375 52.65625 34.296875 
Q 57.90625 29 57.90625 20.125 
Q 57.90625 9.515625 50.796875 4.046875 
Q 43.703125 -1.421875 29.984375 -1.421875 
Q 24.8125 -1.421875 18.96875 -0.25 
Q 13.140625 0.921875 6.890625 3.21875 
L 6.890625 13.375 
Q 12.890625 10.015625 18.65625 8.296875 
Q 24.421875 6.59375 29.984375 6.59375 
Q 38.421875 6.59375 43.015625 9.90625 
Q 47.609375 13.234375 47.609375 19.390625 
Q 47.609375 24.75 44.3125 27.78125 
Q 41.015625 30.8125 33.5 32.328125 
L 27.484375 33.5 
Q 16.453125 35.6875 11.515625 40.375 
Q 6.59375 45.0625 6.59375 53.421875 
Q 6.59375 63.09375 13.40625 68.65625 
Q 20.21875 74.21875 32.171875 74.21875 
Q 37.3125 74.21875 42.625 73.28125 
Q 47.953125 72.359375 53.515625 70.515625 
z
" id="DejaVuSans-83"/>
      <path d="M 8.5 21.578125 
L 8.5 54.6875 
L 17.484375 54.6875 
L 17.484375 21.921875 
Q 17.484375 14.15625 20.5 10.265625 
Q 23.53125 6.390625 29.59375 6.390625 
Q 36.859375 6.390625 41.078125 11.03125 
Q 45.3125 15.671875 45.3125 23.6875 
L 45.3125 54.6875 
L 54.296875 54.6875 
L 54.296875 0 
L 45.3125 0 
L 45.3125 8.40625 
Q 42.046875 3.421875 37.71875 1 
Q 33.40625 -1.421875 27.6875 -1.421875 
Q 18.265625 -1.421875 13.375 4.4375 
Q 8.5 10.296875 8.5 21.578125 
z
M 31.109375 56 
z
" id="DejaVuSans-117"/>
      <path d="M 54.890625 33.015625 
L 54.890625 0 
L 45.90625 0 
L 45.90625 32.71875 
Q 45.90625 40.484375 42.875 44.328125 
Q 39.84375 48.1875 33.796875 48.1875 
Q 26.515625 48.1875 22.3125 43.546875 
Q 18.109375 38.921875 18.109375 30.90625 
L 18.109375 0 
L 9.078125 0 
L 9.078125 75.984375 
L 18.109375 75.984375 
L 18.109375 46.1875 
Q 21.34375 51.125 25.703125 53.5625 
Q 30.078125 56 35.796875 56 
Q 45.21875 56 50.046875 50.171875 
Q 54.890625 44.34375 54.890625 33.015625 
z
" id="DejaVuSans-104"/>
      <path d="M -0.296875 72.90625 
L 61.375 72.90625 
L 61.375 64.59375 
L 35.5 64.59375 
L 35.5 0 
L 25.59375 0 
L 25.59375 64.59375 
L -0.296875 64.59375 
z
" id="DejaVuSans-84"/>
     </defs>
     <use xlink:href="#DejaVuSans-83"/>
     <use x="63.476562" xlink:href="#DejaVuSans-111"/>
     <use x="124.658203" xlink:href="#DejaVuSans-117"/>
     <use x="188.037109" xlink:href="#DejaVuSans-116"/>
     <use x="227.246094" xlink:href="#DejaVuSans-104"/>
     <use x="290.625" xlink:href="#DejaVuSans-32"/>
     <use x="322.412109" xlink:href="#DejaVuSans-84"/>
     <use x="367.871094" xlink:href="#DejaVuSans-121"/>
     <use x="427.050781" xlink:href="#DejaVuSans-114"/>
     <use x="465.914062" xlink:href="#DejaVuSans-111"/>
     <use x="527.095703" xlink:href="#DejaVuSans-108"/>
    </g>
   </g>
  </g>
 </g>
 <defs>
  <clipPath id="paaccbd22a0">
   <rect height="217.44" width="334.8" x="59.328125" y="22.318125"/>
  </clipPath>
 </defs>
</svg>
