<?xml version="1.0" encoding="utf-8" standalone="no"?>
<!DOCTYPE svg PUBLIC "-//W3C//DTD SVG 1.1//EN"
  "http://www.w3.org/Graphics/SVG/1.1/DTD/svg11.dtd">
<!-- Created with matplotlib (https://matplotlib.org/) -->
<svg height="364.091062pt" version="1.1" viewBox="0 0 423.648125 364.091062" width="423.648125pt" xmlns="http://www.w3.org/2000/svg" xmlns:xlink="http://www.w3.org/1999/xlink">
 <metadata>
  <rdf:RDF xmlns:cc="http://creativecommons.org/ns#" xmlns:dc="http://purl.org/dc/elements/1.1/" xmlns:rdf="http://www.w3.org/1999/02/22-rdf-syntax-ns#">
   <cc:Work>
    <dc:type rdf:resource="http://purl.org/dc/dcmitype/StillImage"/>
    <dc:date>2020-12-19T21:45:47.970602</dc:date>
    <dc:format>image/svg+xml</dc:format>
    <dc:creator>
     <cc:Agent>
      <dc:title>Matplotlib v3.3.3, https://matplotlib.org/</dc:title>
     </cc:Agent>
    </dc:creator>
   </cc:Work>
  </rdf:RDF>
 </metadata>
 <defs>
  <style type="text/css">*{stroke-linecap:butt;stroke-linejoin:round;}</style>
 </defs>
 <g id="figure_1">
  <g id="patch_1">
   <path d="M 0 364.091062 
L 423.648125 364.091062 
L 423.648125 0 
L 0 0 
z
" style="fill:#ffffff;"/>
  </g>
  <g id="axes_1">
   <g id="patch_2">
    <path d="M 59.328125 288.430125 
L 416.448125 288.430125 
L 416.448125 22.318125 
L 59.328125 22.318125 
z
" style="fill:#ffffff;"/>
   </g>
   <g id="patch_3">
    <path clip-path="url(#pec005d83ff)" d="M 59.455668 288.430125 
L 60.476011 288.430125 
L 60.476011 116.351753 
L 59.455668 116.351753 
z
" style="fill:#1f77b4;"/>
   </g>
   <g id="patch_4">
    <path clip-path="url(#pec005d83ff)" d="M 60.731096 288.430125 
L 61.751439 288.430125 
L 61.751439 262.78459 
L 60.731096 262.78459 
z
" style="fill:#1f77b4;"/>
   </g>
   <g id="patch_5">
    <path clip-path="url(#pec005d83ff)" d="M 62.006525 288.430125 
L 63.026868 288.430125 
L 63.026868 244.896038 
L 62.006525 244.896038 
z
" style="fill:#1f77b4;"/>
   </g>
   <g id="patch_6">
    <path clip-path="url(#pec005d83ff)" d="M 63.281954 288.430125 
L 64.302296 288.430125 
L 64.302296 213.868107 
L 63.281954 213.868107 
z
" style="fill:#1f77b4;"/>
   </g>
   <g id="patch_7">
    <path clip-path="url(#pec005d83ff)" d="M 64.557382 288.430125 
L 65.577725 288.430125 
L 65.577725 207.852488 
L 64.557382 207.852488 
z
" style="fill:#1f77b4;"/>
   </g>
   <g id="patch_8">
    <path clip-path="url(#pec005d83ff)" d="M 65.832811 288.430125 
L 66.853154 288.430125 
L 66.853154 195.02972 
L 65.832811 195.02972 
z
" style="fill:#1f77b4;"/>
   </g>
   <g id="patch_9">
    <path clip-path="url(#pec005d83ff)" d="M 67.108239 288.430125 
L 68.128582 288.430125 
L 68.128582 223.999676 
L 67.108239 223.999676 
z
" style="fill:#1f77b4;"/>
   </g>
   <g id="patch_10">
    <path clip-path="url(#pec005d83ff)" d="M 68.383668 288.430125 
L 69.404011 288.430125 
L 69.404011 244.737732 
L 68.383668 244.737732 
z
" style="fill:#1f77b4;"/>
   </g>
   <g id="patch_11">
    <path clip-path="url(#pec005d83ff)" d="M 69.659096 288.430125 
L 70.679439 288.430125 
L 70.679439 251.861492 
L 69.659096 251.861492 
z
" style="fill:#1f77b4;"/>
   </g>
   <g id="patch_12">
    <path clip-path="url(#pec005d83ff)" d="M 70.934525 288.430125 
L 71.954868 288.430125 
L 71.954868 243.471286 
L 70.934525 243.471286 
z
" style="fill:#1f77b4;"/>
   </g>
   <g id="patch_13">
    <path clip-path="url(#pec005d83ff)" d="M 72.209954 288.430125 
L 73.230296 288.430125 
L 73.230296 254.394384 
L 72.209954 254.394384 
z
" style="fill:#1f77b4;"/>
   </g>
   <g id="patch_14">
    <path clip-path="url(#pec005d83ff)" d="M 73.485382 288.430125 
L 74.505725 288.430125 
L 74.505725 227.957321 
L 73.485382 227.957321 
z
" style="fill:#1f77b4;"/>
   </g>
   <g id="patch_15">
    <path clip-path="url(#pec005d83ff)" d="M 74.760811 288.430125 
L 75.781154 288.430125 
L 75.781154 236.822444 
L 74.760811 236.822444 
z
" style="fill:#1f77b4;"/>
   </g>
   <g id="patch_16">
    <path clip-path="url(#pec005d83ff)" d="M 76.036239 288.430125 
L 77.056582 288.430125 
L 77.056582 241.888229 
L 76.036239 241.888229 
z
" style="fill:#1f77b4;"/>
   </g>
   <g id="patch_17">
    <path clip-path="url(#pec005d83ff)" d="M 77.311668 288.430125 
L 78.332011 288.430125 
L 78.332011 211.651826 
L 77.311668 211.651826 
z
" style="fill:#1f77b4;"/>
   </g>
   <g id="patch_18">
    <path clip-path="url(#pec005d83ff)" d="M 78.587096 288.430125 
L 79.607439 288.430125 
L 79.607439 247.270625 
L 78.587096 247.270625 
z
" style="fill:#1f77b4;"/>
   </g>
   <g id="patch_19">
    <path clip-path="url(#pec005d83ff)" d="M 79.862525 288.430125 
L 80.882868 288.430125 
L 80.882868 244.737732 
L 79.862525 244.737732 
z
" style="fill:#1f77b4;"/>
   </g>
   <g id="patch_20">
    <path clip-path="url(#pec005d83ff)" d="M 81.137954 288.430125 
L 82.158296 288.430125 
L 82.158296 243.787898 
L 81.137954 243.787898 
z
" style="fill:#1f77b4;"/>
   </g>
   <g id="patch_21">
    <path clip-path="url(#pec005d83ff)" d="M 82.413382 288.430125 
L 83.433725 288.430125 
L 83.433725 245.687567 
L 82.413382 245.687567 
z
" style="fill:#1f77b4;"/>
   </g>
   <g id="patch_22">
    <path clip-path="url(#pec005d83ff)" d="M 83.688811 288.430125 
L 84.709154 288.430125 
L 84.709154 215.767776 
L 83.688811 215.767776 
z
" style="fill:#1f77b4;"/>
   </g>
   <g id="patch_23">
    <path clip-path="url(#pec005d83ff)" d="M 84.964239 288.430125 
L 85.984582 288.430125 
L 85.984582 209.435546 
L 84.964239 209.435546 
z
" style="fill:#1f77b4;"/>
   </g>
   <g id="patch_24">
    <path clip-path="url(#pec005d83ff)" d="M 86.239668 288.430125 
L 87.260011 288.430125 
L 87.260011 241.255005 
L 86.239668 241.255005 
z
" style="fill:#1f77b4;"/>
   </g>
   <g id="patch_25">
    <path clip-path="url(#pec005d83ff)" d="M 87.515096 288.430125 
L 88.535439 288.430125 
L 88.535439 212.285049 
L 87.515096 212.285049 
z
" style="fill:#1f77b4;"/>
   </g>
   <g id="patch_26">
    <path clip-path="url(#pec005d83ff)" d="M 88.790525 288.430125 
L 89.810868 288.430125 
L 89.810868 211.968438 
L 88.790525 211.968438 
z
" style="fill:#1f77b4;"/>
   </g>
   <g id="patch_27">
    <path clip-path="url(#pec005d83ff)" d="M 90.065954 288.430125 
L 91.086296 288.430125 
L 91.086296 217.192528 
L 90.065954 217.192528 
z
" style="fill:#1f77b4;"/>
   </g>
   <g id="patch_28">
    <path clip-path="url(#pec005d83ff)" d="M 91.341382 288.430125 
L 92.361725 288.430125 
L 92.361725 202.628397 
L 91.341382 202.628397 
z
" style="fill:#1f77b4;"/>
   </g>
   <g id="patch_29">
    <path clip-path="url(#pec005d83ff)" d="M 92.616811 288.430125 
L 93.637154 288.430125 
L 93.637154 222.258313 
L 92.616811 222.258313 
z
" style="fill:#1f77b4;"/>
   </g>
   <g id="patch_30">
    <path clip-path="url(#pec005d83ff)" d="M 93.892239 288.430125 
L 94.912582 288.430125 
L 94.912582 200.887034 
L 93.892239 200.887034 
z
" style="fill:#1f77b4;"/>
   </g>
   <g id="patch_31">
    <path clip-path="url(#pec005d83ff)" d="M 95.167668 288.430125 
L 96.188011 288.430125 
L 96.188011 223.208148 
L 95.167668 223.208148 
z
" style="fill:#1f77b4;"/>
   </g>
   <g id="patch_32">
    <path clip-path="url(#pec005d83ff)" d="M 96.443096 288.430125 
L 97.463439 288.430125 
L 97.463439 230.331907 
L 96.443096 230.331907 
z
" style="fill:#1f77b4;"/>
   </g>
   <g id="patch_33">
    <path clip-path="url(#pec005d83ff)" d="M 97.718525 288.430125 
L 98.738868 288.430125 
L 98.738868 264.684259 
L 97.718525 264.684259 
z
" style="fill:#1f77b4;"/>
   </g>
   <g id="patch_34">
    <path clip-path="url(#pec005d83ff)" d="M 98.993954 288.430125 
L 100.014296 288.430125 
L 100.014296 231.914965 
L 98.993954 231.914965 
z
" style="fill:#1f77b4;"/>
   </g>
   <g id="patch_35">
    <path clip-path="url(#pec005d83ff)" d="M 100.269382 288.430125 
L 101.289725 288.430125 
L 101.289725 223.366453 
L 100.269382 223.366453 
z
" style="fill:#1f77b4;"/>
   </g>
   <g id="patch_36">
    <path clip-path="url(#pec005d83ff)" d="M 101.544811 288.430125 
L 102.565154 288.430125 
L 102.565154 200.887034 
L 101.544811 200.887034 
z
" style="fill:#1f77b4;"/>
   </g>
   <g id="patch_37">
    <path clip-path="url(#pec005d83ff)" d="M 102.820239 288.430125 
L 103.840582 288.430125 
L 103.840582 215.292859 
L 102.820239 215.292859 
z
" style="fill:#1f77b4;"/>
   </g>
   <g id="patch_38">
    <path clip-path="url(#pec005d83ff)" d="M 104.095668 288.430125 
L 105.116011 288.430125 
L 105.116011 160.835674 
L 104.095668 160.835674 
z
" style="fill:#1f77b4;"/>
   </g>
   <g id="patch_39">
    <path clip-path="url(#pec005d83ff)" d="M 105.371096 288.430125 
L 106.391439 288.430125 
L 106.391439 239.988559 
L 105.371096 239.988559 
z
" style="fill:#1f77b4;"/>
   </g>
   <g id="patch_40">
    <path clip-path="url(#pec005d83ff)" d="M 106.646525 288.430125 
L 107.666868 288.430125 
L 107.666868 238.405502 
L 106.646525 238.405502 
z
" style="fill:#1f77b4;"/>
   </g>
   <g id="patch_41">
    <path clip-path="url(#pec005d83ff)" d="M 107.921954 288.430125 
L 108.942296 288.430125 
L 108.942296 236.030915 
L 107.921954 236.030915 
z
" style="fill:#1f77b4;"/>
   </g>
   <g id="patch_42">
    <path clip-path="url(#pec005d83ff)" d="M 109.197382 288.430125 
L 110.217725 288.430125 
L 110.217725 176.666251 
L 109.197382 176.666251 
z
" style="fill:#1f77b4;"/>
   </g>
   <g id="patch_43">
    <path clip-path="url(#pec005d83ff)" d="M 110.472811 288.430125 
L 111.493154 288.430125 
L 111.493154 196.296167 
L 110.472811 196.296167 
z
" style="fill:#1f77b4;"/>
   </g>
   <g id="patch_44">
    <path clip-path="url(#pec005d83ff)" d="M 111.748239 288.430125 
L 112.768582 288.430125 
L 112.768582 201.520257 
L 111.748239 201.520257 
z
" style="fill:#1f77b4;"/>
   </g>
   <g id="patch_45">
    <path clip-path="url(#pec005d83ff)" d="M 113.023668 288.430125 
L 114.044011 288.430125 
L 114.044011 237.455667 
L 113.023668 237.455667 
z
" style="fill:#1f77b4;"/>
   </g>
   <g id="patch_46">
    <path clip-path="url(#pec005d83ff)" d="M 114.299096 288.430125 
L 115.319439 288.430125 
L 115.319439 204.844678 
L 114.299096 204.844678 
z
" style="fill:#1f77b4;"/>
   </g>
   <g id="patch_47">
    <path clip-path="url(#pec005d83ff)" d="M 115.574525 288.430125 
L 116.594868 288.430125 
L 116.594868 265.634094 
L 115.574525 265.634094 
z
" style="fill:#1f77b4;"/>
   </g>
   <g id="patch_48">
    <path clip-path="url(#pec005d83ff)" d="M 116.849954 288.430125 
L 117.870296 288.430125 
L 117.870296 244.579427 
L 116.849954 244.579427 
z
" style="fill:#1f77b4;"/>
   </g>
   <g id="patch_49">
    <path clip-path="url(#pec005d83ff)" d="M 118.125382 288.430125 
L 119.145725 288.430125 
L 119.145725 235.555998 
L 118.125382 235.555998 
z
" style="fill:#1f77b4;"/>
   </g>
   <g id="patch_50">
    <path clip-path="url(#pec005d83ff)" d="M 119.400811 288.430125 
L 120.421154 288.430125 
L 120.421154 205.002984 
L 119.400811 205.002984 
z
" style="fill:#1f77b4;"/>
   </g>
   <g id="patch_51">
    <path clip-path="url(#pec005d83ff)" d="M 120.676239 288.430125 
L 121.696582 288.430125 
L 121.696582 236.030915 
L 120.676239 236.030915 
z
" style="fill:#1f77b4;"/>
   </g>
   <g id="patch_52">
    <path clip-path="url(#pec005d83ff)" d="M 121.951668 288.430125 
L 122.972011 288.430125 
L 122.972011 267.850375 
L 121.951668 267.850375 
z
" style="fill:#1f77b4;"/>
   </g>
   <g id="patch_53">
    <path clip-path="url(#pec005d83ff)" d="M 123.227096 288.430125 
L 124.247439 288.430125 
L 124.247439 261.993061 
L 123.227096 261.993061 
z
" style="fill:#1f77b4;"/>
   </g>
   <g id="patch_54">
    <path clip-path="url(#pec005d83ff)" d="M 124.502525 288.430125 
L 125.522868 288.430125 
L 125.522868 252.336409 
L 124.502525 252.336409 
z
" style="fill:#1f77b4;"/>
   </g>
   <g id="patch_55">
    <path clip-path="url(#pec005d83ff)" d="M 125.777954 288.430125 
L 126.798296 288.430125 
L 126.798296 239.19703 
L 125.777954 239.19703 
z
" style="fill:#1f77b4;"/>
   </g>
   <g id="patch_56">
    <path clip-path="url(#pec005d83ff)" d="M 127.053382 288.430125 
L 128.073725 288.430125 
L 128.073725 223.208148 
L 127.053382 223.208148 
z
" style="fill:#1f77b4;"/>
   </g>
   <g id="patch_57">
    <path clip-path="url(#pec005d83ff)" d="M 128.328811 288.430125 
L 129.349154 288.430125 
L 129.349154 242.838063 
L 128.328811 242.838063 
z
" style="fill:#1f77b4;"/>
   </g>
   <g id="patch_58">
    <path clip-path="url(#pec005d83ff)" d="M 129.604239 288.430125 
L 130.624582 288.430125 
L 130.624582 225.582734 
L 129.604239 225.582734 
z
" style="fill:#1f77b4;"/>
   </g>
   <g id="patch_59">
    <path clip-path="url(#pec005d83ff)" d="M 130.879668 288.430125 
L 131.900011 288.430125 
L 131.900011 241.571617 
L 130.879668 241.571617 
z
" style="fill:#1f77b4;"/>
   </g>
   <g id="patch_60">
    <path clip-path="url(#pec005d83ff)" d="M 132.155096 288.430125 
L 133.175439 288.430125 
L 133.175439 251.228269 
L 132.155096 251.228269 
z
" style="fill:#1f77b4;"/>
   </g>
   <g id="patch_61">
    <path clip-path="url(#pec005d83ff)" d="M 133.430525 288.430125 
L 134.450868 288.430125 
L 134.450868 251.861492 
L 133.430525 251.861492 
z
" style="fill:#1f77b4;"/>
   </g>
   <g id="patch_62">
    <path clip-path="url(#pec005d83ff)" d="M 134.705954 288.430125 
L 135.726296 288.430125 
L 135.726296 226.84918 
L 134.705954 226.84918 
z
" style="fill:#1f77b4;"/>
   </g>
   <g id="patch_63">
    <path clip-path="url(#pec005d83ff)" d="M 135.981382 288.430125 
L 137.001725 288.430125 
L 137.001725 230.331907 
L 135.981382 230.331907 
z
" style="fill:#1f77b4;"/>
   </g>
   <g id="patch_64">
    <path clip-path="url(#pec005d83ff)" d="M 137.256811 288.430125 
L 138.277154 288.430125 
L 138.277154 212.126744 
L 137.256811 212.126744 
z
" style="fill:#1f77b4;"/>
   </g>
   <g id="patch_65">
    <path clip-path="url(#pec005d83ff)" d="M 138.532239 288.430125 
L 139.552582 288.430125 
L 139.552582 233.498023 
L 138.532239 233.498023 
z
" style="fill:#1f77b4;"/>
   </g>
   <g id="patch_66">
    <path clip-path="url(#pec005d83ff)" d="M 139.807668 288.430125 
L 140.828011 288.430125 
L 140.828011 231.281742 
L 139.807668 231.281742 
z
" style="fill:#1f77b4;"/>
   </g>
   <g id="patch_67">
    <path clip-path="url(#pec005d83ff)" d="M 141.083096 288.430125 
L 142.103439 288.430125 
L 142.103439 248.378765 
L 141.083096 248.378765 
z
" style="fill:#1f77b4;"/>
   </g>
   <g id="patch_68">
    <path clip-path="url(#pec005d83ff)" d="M 142.358525 288.430125 
L 143.378868 288.430125 
L 143.378868 235.714303 
L 142.358525 235.714303 
z
" style="fill:#1f77b4;"/>
   </g>
   <g id="patch_69">
    <path clip-path="url(#pec005d83ff)" d="M 143.633954 288.430125 
L 144.654296 288.430125 
L 144.654296 234.922775 
L 143.633954 234.922775 
z
" style="fill:#1f77b4;"/>
   </g>
   <g id="patch_70">
    <path clip-path="url(#pec005d83ff)" d="M 144.909382 288.430125 
L 145.929725 288.430125 
L 145.929725 225.424428 
L 144.909382 225.424428 
z
" style="fill:#1f77b4;"/>
   </g>
   <g id="patch_71">
    <path clip-path="url(#pec005d83ff)" d="M 146.184811 288.430125 
L 147.205154 288.430125 
L 147.205154 195.662944 
L 146.184811 195.662944 
z
" style="fill:#1f77b4;"/>
   </g>
   <g id="patch_72">
    <path clip-path="url(#pec005d83ff)" d="M 147.460239 288.430125 
L 148.480582 288.430125 
L 148.480582 135.823362 
L 147.460239 135.823362 
z
" style="fill:#1f77b4;"/>
   </g>
   <g id="patch_73">
    <path clip-path="url(#pec005d83ff)" d="M 148.735668 288.430125 
L 149.756011 288.430125 
L 149.756011 226.84918 
L 148.735668 226.84918 
z
" style="fill:#1f77b4;"/>
   </g>
   <g id="patch_74">
    <path clip-path="url(#pec005d83ff)" d="M 150.011096 288.430125 
L 151.031439 288.430125 
L 151.031439 248.695377 
L 150.011096 248.695377 
z
" style="fill:#1f77b4;"/>
   </g>
   <g id="patch_75">
    <path clip-path="url(#pec005d83ff)" d="M 151.286525 288.430125 
L 152.306868 288.430125 
L 152.306868 254.869302 
L 151.286525 254.869302 
z
" style="fill:#1f77b4;"/>
   </g>
   <g id="patch_76">
    <path clip-path="url(#pec005d83ff)" d="M 152.561954 288.430125 
L 153.582296 288.430125 
L 153.582296 223.841371 
L 152.561954 223.841371 
z
" style="fill:#1f77b4;"/>
   </g>
   <g id="patch_77">
    <path clip-path="url(#pec005d83ff)" d="M 153.837382 288.430125 
L 154.857725 288.430125 
L 154.857725 218.458974 
L 153.837382 218.458974 
z
" style="fill:#1f77b4;"/>
   </g>
   <g id="patch_78">
    <path clip-path="url(#pec005d83ff)" d="M 155.112811 288.430125 
L 156.133154 288.430125 
L 156.133154 220.51695 
L 155.112811 220.51695 
z
" style="fill:#1f77b4;"/>
   </g>
   <g id="patch_79">
    <path clip-path="url(#pec005d83ff)" d="M 156.388239 288.430125 
L 157.408582 288.430125 
L 157.408582 189.014101 
L 156.388239 189.014101 
z
" style="fill:#1f77b4;"/>
   </g>
   <g id="patch_80">
    <path clip-path="url(#pec005d83ff)" d="M 157.663668 288.430125 
L 158.684011 288.430125 
L 158.684011 212.126744 
L 157.663668 212.126744 
z
" style="fill:#1f77b4;"/>
   </g>
   <g id="patch_81">
    <path clip-path="url(#pec005d83ff)" d="M 158.939096 288.430125 
L 159.959439 288.430125 
L 159.959439 214.976248 
L 158.939096 214.976248 
z
" style="fill:#1f77b4;"/>
   </g>
   <g id="patch_82">
    <path clip-path="url(#pec005d83ff)" d="M 160.214525 288.430125 
L 161.234868 288.430125 
L 161.234868 232.073271 
L 160.214525 232.073271 
z
" style="fill:#1f77b4;"/>
   </g>
   <g id="patch_83">
    <path clip-path="url(#pec005d83ff)" d="M 161.489954 288.430125 
L 162.510296 288.430125 
L 162.510296 258.352029 
L 161.489954 258.352029 
z
" style="fill:#1f77b4;"/>
   </g>
   <g id="patch_84">
    <path clip-path="url(#pec005d83ff)" d="M 162.765382 288.430125 
L 163.785725 288.430125 
L 163.785725 235.397692 
L 162.765382 235.397692 
z
" style="fill:#1f77b4;"/>
   </g>
   <g id="patch_85">
    <path clip-path="url(#pec005d83ff)" d="M 164.040811 288.430125 
L 165.061154 288.430125 
L 165.061154 204.528067 
L 164.040811 204.528067 
z
" style="fill:#1f77b4;"/>
   </g>
   <g id="patch_86">
    <path clip-path="url(#pec005d83ff)" d="M 165.316239 288.430125 
L 166.336582 288.430125 
L 166.336582 189.330713 
L 165.316239 189.330713 
z
" style="fill:#1f77b4;"/>
   </g>
   <g id="patch_87">
    <path clip-path="url(#pec005d83ff)" d="M 166.591668 288.430125 
L 167.612011 288.430125 
L 167.612011 185.056457 
L 166.591668 185.056457 
z
" style="fill:#1f77b4;"/>
   </g>
   <g id="patch_88">
    <path clip-path="url(#pec005d83ff)" d="M 167.867096 288.430125 
L 168.887439 288.430125 
L 168.887439 230.96513 
L 167.867096 230.96513 
z
" style="fill:#1f77b4;"/>
   </g>
   <g id="patch_89">
    <path clip-path="url(#pec005d83ff)" d="M 169.142525 288.430125 
L 170.162868 288.430125 
L 170.162868 240.938394 
L 169.142525 240.938394 
z
" style="fill:#1f77b4;"/>
   </g>
   <g id="patch_90">
    <path clip-path="url(#pec005d83ff)" d="M 170.417954 288.430125 
L 171.438296 288.430125 
L 171.438296 202.786703 
L 170.417954 202.786703 
z
" style="fill:#1f77b4;"/>
   </g>
   <g id="patch_91">
    <path clip-path="url(#pec005d83ff)" d="M 171.693382 288.430125 
L 172.713725 288.430125 
L 172.713725 224.316288 
L 171.693382 224.316288 
z
" style="fill:#1f77b4;"/>
   </g>
   <g id="patch_92">
    <path clip-path="url(#pec005d83ff)" d="M 172.968811 288.430125 
L 173.989154 288.430125 
L 173.989154 221.783396 
L 172.968811 221.783396 
z
" style="fill:#1f77b4;"/>
   </g>
   <g id="patch_93">
    <path clip-path="url(#pec005d83ff)" d="M 174.244239 288.430125 
L 175.264582 288.430125 
L 175.264582 222.100007 
L 174.244239 222.100007 
z
" style="fill:#1f77b4;"/>
   </g>
   <g id="patch_94">
    <path clip-path="url(#pec005d83ff)" d="M 175.519668 288.430125 
L 176.540011 288.430125 
L 176.540011 254.55269 
L 175.519668 254.55269 
z
" style="fill:#1f77b4;"/>
   </g>
   <g id="patch_95">
    <path clip-path="url(#pec005d83ff)" d="M 176.795096 288.430125 
L 177.815439 288.430125 
L 177.815439 274.0243 
L 176.795096 274.0243 
z
" style="fill:#1f77b4;"/>
   </g>
   <g id="patch_96">
    <path clip-path="url(#pec005d83ff)" d="M 178.070525 288.430125 
L 179.090868 288.430125 
L 179.090868 251.544881 
L 178.070525 251.544881 
z
" style="fill:#1f77b4;"/>
   </g>
   <g id="patch_97">
    <path clip-path="url(#pec005d83ff)" d="M 179.345954 288.430125 
L 180.366296 288.430125 
L 180.366296 244.262815 
L 179.345954 244.262815 
z
" style="fill:#1f77b4;"/>
   </g>
   <g id="patch_98">
    <path clip-path="url(#pec005d83ff)" d="M 180.621382 288.430125 
L 181.641725 288.430125 
L 181.641725 232.548188 
L 180.621382 232.548188 
z
" style="fill:#1f77b4;"/>
   </g>
   <g id="patch_99">
    <path clip-path="url(#pec005d83ff)" d="M 181.896811 288.430125 
L 182.917154 288.430125 
L 182.917154 241.729923 
L 181.896811 241.729923 
z
" style="fill:#1f77b4;"/>
   </g>
   <g id="patch_100">
    <path clip-path="url(#pec005d83ff)" d="M 183.172239 288.430125 
L 184.192582 288.430125 
L 184.192582 222.258313 
L 183.172239 222.258313 
z
" style="fill:#1f77b4;"/>
   </g>
   <g id="patch_101">
    <path clip-path="url(#pec005d83ff)" d="M 184.447668 288.430125 
L 185.468011 288.430125 
L 185.468011 249.961823 
L 184.447668 249.961823 
z
" style="fill:#1f77b4;"/>
   </g>
   <g id="patch_102">
    <path clip-path="url(#pec005d83ff)" d="M 185.723096 288.430125 
L 186.743439 288.430125 
L 186.743439 269.90835 
L 185.723096 269.90835 
z
" style="fill:#1f77b4;"/>
   </g>
   <g id="patch_103">
    <path clip-path="url(#pec005d83ff)" d="M 186.998525 288.430125 
L 188.018868 288.430125 
L 188.018868 238.880419 
L 186.998525 238.880419 
z
" style="fill:#1f77b4;"/>
   </g>
   <g id="patch_104">
    <path clip-path="url(#pec005d83ff)" d="M 188.273954 288.430125 
L 189.294296 288.430125 
L 189.294296 242.20484 
L 188.273954 242.20484 
z
" style="fill:#1f77b4;"/>
   </g>
   <g id="patch_105">
    <path clip-path="url(#pec005d83ff)" d="M 189.549382 288.430125 
L 190.569725 288.430125 
L 190.569725 231.440048 
L 189.549382 231.440048 
z
" style="fill:#1f77b4;"/>
   </g>
   <g id="patch_106">
    <path clip-path="url(#pec005d83ff)" d="M 190.824811 288.430125 
L 191.845154 288.430125 
L 191.845154 242.20484 
L 190.824811 242.20484 
z
" style="fill:#1f77b4;"/>
   </g>
   <g id="patch_107">
    <path clip-path="url(#pec005d83ff)" d="M 192.100239 288.430125 
L 193.120582 288.430125 
L 193.120582 234.289552 
L 192.100239 234.289552 
z
" style="fill:#1f77b4;"/>
   </g>
   <g id="patch_108">
    <path clip-path="url(#pec005d83ff)" d="M 193.375668 288.430125 
L 194.396011 288.430125 
L 194.396011 248.537071 
L 193.375668 248.537071 
z
" style="fill:#1f77b4;"/>
   </g>
   <g id="patch_109">
    <path clip-path="url(#pec005d83ff)" d="M 194.651096 288.430125 
L 195.671439 288.430125 
L 195.671439 261.834756 
L 194.651096 261.834756 
z
" style="fill:#1f77b4;"/>
   </g>
   <g id="patch_110">
    <path clip-path="url(#pec005d83ff)" d="M 195.926525 288.430125 
L 196.946868 288.430125 
L 196.946868 239.988559 
L 195.926525 239.988559 
z
" style="fill:#1f77b4;"/>
   </g>
   <g id="patch_111">
    <path clip-path="url(#pec005d83ff)" d="M 197.201954 288.430125 
L 198.222296 288.430125 
L 198.222296 220.675255 
L 197.201954 220.675255 
z
" style="fill:#1f77b4;"/>
   </g>
   <g id="patch_112">
    <path clip-path="url(#pec005d83ff)" d="M 198.477382 288.430125 
L 199.497725 288.430125 
L 199.497725 241.413311 
L 198.477382 241.413311 
z
" style="fill:#1f77b4;"/>
   </g>
   <g id="patch_113">
    <path clip-path="url(#pec005d83ff)" d="M 199.752811 288.430125 
L 200.773154 288.430125 
L 200.773154 236.030915 
L 199.752811 236.030915 
z
" style="fill:#1f77b4;"/>
   </g>
   <g id="patch_114">
    <path clip-path="url(#pec005d83ff)" d="M 201.028239 288.430125 
L 202.048582 288.430125 
L 202.048582 230.173602 
L 201.028239 230.173602 
z
" style="fill:#1f77b4;"/>
   </g>
   <g id="patch_115">
    <path clip-path="url(#pec005d83ff)" d="M 202.303668 288.430125 
L 203.324011 288.430125 
L 203.324011 227.165792 
L 202.303668 227.165792 
z
" style="fill:#1f77b4;"/>
   </g>
   <g id="patch_116">
    <path clip-path="url(#pec005d83ff)" d="M 203.579096 288.430125 
L 204.599439 288.430125 
L 204.599439 272.124631 
L 203.579096 272.124631 
z
" style="fill:#1f77b4;"/>
   </g>
   <g id="patch_117">
    <path clip-path="url(#pec005d83ff)" d="M 204.854525 288.430125 
L 205.874868 288.430125 
L 205.874868 259.301863 
L 204.854525 259.301863 
z
" style="fill:#1f77b4;"/>
   </g>
   <g id="patch_118">
    <path clip-path="url(#pec005d83ff)" d="M 206.129954 288.430125 
L 207.150296 288.430125 
L 207.150296 213.234884 
L 206.129954 213.234884 
z
" style="fill:#1f77b4;"/>
   </g>
   <g id="patch_119">
    <path clip-path="url(#pec005d83ff)" d="M 207.405382 288.430125 
L 208.425725 288.430125 
L 208.425725 238.880419 
L 207.405382 238.880419 
z
" style="fill:#1f77b4;"/>
   </g>
   <g id="patch_120">
    <path clip-path="url(#pec005d83ff)" d="M 208.680811 288.430125 
L 209.701154 288.430125 
L 209.701154 228.907155 
L 208.680811 228.907155 
z
" style="fill:#1f77b4;"/>
   </g>
   <g id="patch_121">
    <path clip-path="url(#pec005d83ff)" d="M 209.956239 288.430125 
L 210.976582 288.430125 
L 210.976582 190.122242 
L 209.956239 190.122242 
z
" style="fill:#1f77b4;"/>
   </g>
   <g id="patch_122">
    <path clip-path="url(#pec005d83ff)" d="M 211.231668 288.430125 
L 212.252011 288.430125 
L 212.252011 213.39319 
L 211.231668 213.39319 
z
" style="fill:#1f77b4;"/>
   </g>
   <g id="patch_123">
    <path clip-path="url(#pec005d83ff)" d="M 212.507096 288.430125 
L 213.527439 288.430125 
L 213.527439 270.224961 
L 212.507096 270.224961 
z
" style="fill:#1f77b4;"/>
   </g>
   <g id="patch_124">
    <path clip-path="url(#pec005d83ff)" d="M 213.782525 288.430125 
L 214.802868 288.430125 
L 214.802868 197.246001 
L 213.782525 197.246001 
z
" style="fill:#1f77b4;"/>
   </g>
   <g id="patch_125">
    <path clip-path="url(#pec005d83ff)" d="M 215.057954 288.430125 
L 216.078296 288.430125 
L 216.078296 196.92939 
L 215.057954 196.92939 
z
" style="fill:#1f77b4;"/>
   </g>
   <g id="patch_126">
    <path clip-path="url(#pec005d83ff)" d="M 216.333382 288.430125 
L 217.353725 288.430125 
L 217.353725 197.562613 
L 216.333382 197.562613 
z
" style="fill:#1f77b4;"/>
   </g>
   <g id="patch_127">
    <path clip-path="url(#pec005d83ff)" d="M 217.608811 288.430125 
L 218.629154 288.430125 
L 218.629154 195.979555 
L 217.608811 195.979555 
z
" style="fill:#1f77b4;"/>
   </g>
   <g id="patch_128">
    <path clip-path="url(#pec005d83ff)" d="M 218.884239 288.430125 
L 219.904582 288.430125 
L 219.904582 194.238192 
L 218.884239 194.238192 
z
" style="fill:#1f77b4;"/>
   </g>
   <g id="patch_129">
    <path clip-path="url(#pec005d83ff)" d="M 220.159668 288.430125 
L 221.180011 288.430125 
L 221.180011 244.579427 
L 220.159668 244.579427 
z
" style="fill:#1f77b4;"/>
   </g>
   <g id="patch_130">
    <path clip-path="url(#pec005d83ff)" d="M 221.435096 288.430125 
L 222.455439 288.430125 
L 222.455439 248.853682 
L 221.435096 248.853682 
z
" style="fill:#1f77b4;"/>
   </g>
   <g id="patch_131">
    <path clip-path="url(#pec005d83ff)" d="M 222.710525 288.430125 
L 223.730868 288.430125 
L 223.730868 254.869302 
L 222.710525 254.869302 
z
" style="fill:#1f77b4;"/>
   </g>
   <g id="patch_132">
    <path clip-path="url(#pec005d83ff)" d="M 223.985954 288.430125 
L 225.006296 288.430125 
L 225.006296 201.520257 
L 223.985954 201.520257 
z
" style="fill:#1f77b4;"/>
   </g>
   <g id="patch_133">
    <path clip-path="url(#pec005d83ff)" d="M 225.261382 288.430125 
L 226.281725 288.430125 
L 226.281725 248.220459 
L 225.261382 248.220459 
z
" style="fill:#1f77b4;"/>
   </g>
   <g id="patch_134">
    <path clip-path="url(#pec005d83ff)" d="M 226.536811 288.430125 
L 227.557154 288.430125 
L 227.557154 164.160095 
L 226.536811 164.160095 
z
" style="fill:#1f77b4;"/>
   </g>
   <g id="patch_135">
    <path clip-path="url(#pec005d83ff)" d="M 227.812239 288.430125 
L 228.832582 288.430125 
L 228.832582 184.739845 
L 227.812239 184.739845 
z
" style="fill:#1f77b4;"/>
   </g>
   <g id="patch_136">
    <path clip-path="url(#pec005d83ff)" d="M 229.087668 288.430125 
L 230.108011 288.430125 
L 230.108011 205.794513 
L 229.087668 205.794513 
z
" style="fill:#1f77b4;"/>
   </g>
   <g id="patch_137">
    <path clip-path="url(#pec005d83ff)" d="M 230.363096 288.430125 
L 231.383439 288.430125 
L 231.383439 239.355336 
L 230.363096 239.355336 
z
" style="fill:#1f77b4;"/>
   </g>
   <g id="patch_138">
    <path clip-path="url(#pec005d83ff)" d="M 231.638525 288.430125 
L 232.658868 288.430125 
L 232.658868 255.185913 
L 231.638525 255.185913 
z
" style="fill:#1f77b4;"/>
   </g>
   <g id="patch_139">
    <path clip-path="url(#pec005d83ff)" d="M 232.913954 288.430125 
L 233.934296 288.430125 
L 233.934296 201.520257 
L 232.913954 201.520257 
z
" style="fill:#1f77b4;"/>
   </g>
   <g id="patch_140">
    <path clip-path="url(#pec005d83ff)" d="M 234.189382 288.430125 
L 235.209725 288.430125 
L 235.209725 196.92939 
L 234.189382 196.92939 
z
" style="fill:#1f77b4;"/>
   </g>
   <g id="patch_141">
    <path clip-path="url(#pec005d83ff)" d="M 235.464811 288.430125 
L 236.485154 288.430125 
L 236.485154 175.241499 
L 235.464811 175.241499 
z
" style="fill:#1f77b4;"/>
   </g>
   <g id="patch_142">
    <path clip-path="url(#pec005d83ff)" d="M 236.740239 288.430125 
L 237.760582 288.430125 
L 237.760582 198.354142 
L 236.740239 198.354142 
z
" style="fill:#1f77b4;"/>
   </g>
   <g id="patch_143">
    <path clip-path="url(#pec005d83ff)" d="M 238.015668 288.430125 
L 239.036011 288.430125 
L 239.036011 191.863605 
L 238.015668 191.863605 
z
" style="fill:#1f77b4;"/>
   </g>
   <g id="patch_144">
    <path clip-path="url(#pec005d83ff)" d="M 239.291096 288.430125 
L 240.311439 288.430125 
L 240.311439 229.540378 
L 239.291096 229.540378 
z
" style="fill:#1f77b4;"/>
   </g>
   <g id="patch_145">
    <path clip-path="url(#pec005d83ff)" d="M 240.566525 288.430125 
L 241.586868 288.430125 
L 241.586868 246.162484 
L 240.566525 246.162484 
z
" style="fill:#1f77b4;"/>
   </g>
   <g id="patch_146">
    <path clip-path="url(#pec005d83ff)" d="M 241.841954 288.430125 
L 242.862296 288.430125 
L 242.862296 191.230382 
L 241.841954 191.230382 
z
" style="fill:#1f77b4;"/>
   </g>
   <g id="patch_147">
    <path clip-path="url(#pec005d83ff)" d="M 243.117382 288.430125 
L 244.137725 288.430125 
L 244.137725 176.34964 
L 243.117382 176.34964 
z
" style="fill:#1f77b4;"/>
   </g>
   <g id="patch_148">
    <path clip-path="url(#pec005d83ff)" d="M 244.392811 288.430125 
L 245.413154 288.430125 
L 245.413154 186.956126 
L 244.392811 186.956126 
z
" style="fill:#1f77b4;"/>
   </g>
   <g id="patch_149">
    <path clip-path="url(#pec005d83ff)" d="M 245.668239 288.430125 
L 246.688582 288.430125 
L 246.688582 186.164597 
L 245.668239 186.164597 
z
" style="fill:#1f77b4;"/>
   </g>
   <g id="patch_150">
    <path clip-path="url(#pec005d83ff)" d="M 246.943668 288.430125 
L 247.964011 288.430125 
L 247.964011 189.172407 
L 246.943668 189.172407 
z
" style="fill:#1f77b4;"/>
   </g>
   <g id="patch_151">
    <path clip-path="url(#pec005d83ff)" d="M 248.219096 288.430125 
L 249.239439 288.430125 
L 249.239439 248.062154 
L 248.219096 248.062154 
z
" style="fill:#1f77b4;"/>
   </g>
   <g id="patch_152">
    <path clip-path="url(#pec005d83ff)" d="M 249.494525 288.430125 
L 250.514868 288.430125 
L 250.514868 244.262815 
L 249.494525 244.262815 
z
" style="fill:#1f77b4;"/>
   </g>
   <g id="patch_153">
    <path clip-path="url(#pec005d83ff)" d="M 250.769954 288.430125 
L 251.790296 288.430125 
L 251.790296 145.63832 
L 250.769954 145.63832 
z
" style="fill:#1f77b4;"/>
   </g>
   <g id="patch_154">
    <path clip-path="url(#pec005d83ff)" d="M 252.045382 288.430125 
L 253.065725 288.430125 
L 253.065725 97.038449 
L 252.045382 97.038449 
z
" style="fill:#1f77b4;"/>
   </g>
   <g id="patch_155">
    <path clip-path="url(#pec005d83ff)" d="M 253.320811 288.430125 
L 254.341154 288.430125 
L 254.341154 178.56592 
L 253.320811 178.56592 
z
" style="fill:#1f77b4;"/>
   </g>
   <g id="patch_156">
    <path clip-path="url(#pec005d83ff)" d="M 254.596239 288.430125 
L 255.616582 288.430125 
L 255.616582 158.461088 
L 254.596239 158.461088 
z
" style="fill:#1f77b4;"/>
   </g>
   <g id="patch_157">
    <path clip-path="url(#pec005d83ff)" d="M 255.871668 288.430125 
L 256.892011 288.430125 
L 256.892011 214.026413 
L 255.871668 214.026413 
z
" style="fill:#1f77b4;"/>
   </g>
   <g id="patch_158">
    <path clip-path="url(#pec005d83ff)" d="M 257.147096 288.430125 
L 258.167439 288.430125 
L 258.167439 232.548188 
L 257.147096 232.548188 
z
" style="fill:#1f77b4;"/>
   </g>
   <g id="patch_159">
    <path clip-path="url(#pec005d83ff)" d="M 258.422525 288.430125 
L 259.442868 288.430125 
L 259.442868 229.065461 
L 258.422525 229.065461 
z
" style="fill:#1f77b4;"/>
   </g>
   <g id="patch_160">
    <path clip-path="url(#pec005d83ff)" d="M 259.697954 288.430125 
L 260.718296 288.430125 
L 260.718296 158.619393 
L 259.697954 158.619393 
z
" style="fill:#1f77b4;"/>
   </g>
   <g id="patch_161">
    <path clip-path="url(#pec005d83ff)" d="M 260.973382 288.430125 
L 261.993725 288.430125 
L 261.993725 174.766582 
L 260.973382 174.766582 
z
" style="fill:#1f77b4;"/>
   </g>
   <g id="patch_162">
    <path clip-path="url(#pec005d83ff)" d="M 262.248811 288.430125 
L 263.269154 288.430125 
L 263.269154 157.036336 
L 262.248811 157.036336 
z
" style="fill:#1f77b4;"/>
   </g>
   <g id="patch_163">
    <path clip-path="url(#pec005d83ff)" d="M 263.524239 288.430125 
L 264.544582 288.430125 
L 264.544582 104.003903 
L 263.524239 104.003903 
z
" style="fill:#1f77b4;"/>
   </g>
   <g id="patch_164">
    <path clip-path="url(#pec005d83ff)" d="M 264.799668 288.430125 
L 265.820011 288.430125 
L 265.820011 190.597159 
L 264.799668 190.597159 
z
" style="fill:#1f77b4;"/>
   </g>
   <g id="patch_165">
    <path clip-path="url(#pec005d83ff)" d="M 266.075096 288.430125 
L 267.095439 288.430125 
L 267.095439 233.023105 
L 266.075096 233.023105 
z
" style="fill:#1f77b4;"/>
   </g>
   <g id="patch_166">
    <path clip-path="url(#pec005d83ff)" d="M 267.350525 288.430125 
L 268.370868 288.430125 
L 268.370868 233.656328 
L 267.350525 233.656328 
z
" style="fill:#1f77b4;"/>
   </g>
   <g id="patch_167">
    <path clip-path="url(#pec005d83ff)" d="M 268.625954 288.430125 
L 269.646296 288.430125 
L 269.646296 160.202451 
L 268.625954 160.202451 
z
" style="fill:#1f77b4;"/>
   </g>
   <g id="patch_168">
    <path clip-path="url(#pec005d83ff)" d="M 269.901382 288.430125 
L 270.921725 288.430125 
L 270.921725 214.50133 
L 269.901382 214.50133 
z
" style="fill:#1f77b4;"/>
   </g>
   <g id="patch_169">
    <path clip-path="url(#pec005d83ff)" d="M 271.176811 288.430125 
L 272.197154 288.430125 
L 272.197154 171.600466 
L 271.176811 171.600466 
z
" style="fill:#1f77b4;"/>
   </g>
   <g id="patch_170">
    <path clip-path="url(#pec005d83ff)" d="M 272.452239 288.430125 
L 273.472582 288.430125 
L 273.472582 174.44997 
L 272.452239 174.44997 
z
" style="fill:#1f77b4;"/>
   </g>
   <g id="patch_171">
    <path clip-path="url(#pec005d83ff)" d="M 273.727668 288.430125 
L 274.748011 288.430125 
L 274.748011 211.810132 
L 273.727668 211.810132 
z
" style="fill:#1f77b4;"/>
   </g>
   <g id="patch_172">
    <path clip-path="url(#pec005d83ff)" d="M 275.003096 288.430125 
L 276.023439 288.430125 
L 276.023439 223.999676 
L 275.003096 223.999676 
z
" style="fill:#1f77b4;"/>
   </g>
   <g id="patch_173">
    <path clip-path="url(#pec005d83ff)" d="M 276.278525 288.430125 
L 277.298868 288.430125 
L 277.298868 234.447857 
L 276.278525 234.447857 
z
" style="fill:#1f77b4;"/>
   </g>
   <g id="patch_174">
    <path clip-path="url(#pec005d83ff)" d="M 277.553954 288.430125 
L 278.574296 288.430125 
L 278.574296 195.504638 
L 277.553954 195.504638 
z
" style="fill:#1f77b4;"/>
   </g>
   <g id="patch_175">
    <path clip-path="url(#pec005d83ff)" d="M 278.829382 288.430125 
L 279.849725 288.430125 
L 279.849725 210.227074 
L 278.829382 210.227074 
z
" style="fill:#1f77b4;"/>
   </g>
   <g id="patch_176">
    <path clip-path="url(#pec005d83ff)" d="M 280.104811 288.430125 
L 281.125154 288.430125 
L 281.125154 219.408809 
L 280.104811 219.408809 
z
" style="fill:#1f77b4;"/>
   </g>
   <g id="patch_177">
    <path clip-path="url(#pec005d83ff)" d="M 281.380239 288.430125 
L 282.400582 288.430125 
L 282.400582 180.46559 
L 281.380239 180.46559 
z
" style="fill:#1f77b4;"/>
   </g>
   <g id="patch_178">
    <path clip-path="url(#pec005d83ff)" d="M 282.655668 288.430125 
L 283.676011 288.430125 
L 283.676011 246.162484 
L 282.655668 246.162484 
z
" style="fill:#1f77b4;"/>
   </g>
   <g id="patch_179">
    <path clip-path="url(#pec005d83ff)" d="M 283.931096 288.430125 
L 284.951439 288.430125 
L 284.951439 230.331907 
L 283.931096 230.331907 
z
" style="fill:#1f77b4;"/>
   </g>
   <g id="patch_180">
    <path clip-path="url(#pec005d83ff)" d="M 285.206525 288.430125 
L 286.226868 288.430125 
L 286.226868 219.725421 
L 285.206525 219.725421 
z
" style="fill:#1f77b4;"/>
   </g>
   <g id="patch_181">
    <path clip-path="url(#pec005d83ff)" d="M 286.481954 288.430125 
L 287.502296 288.430125 
L 287.502296 212.601661 
L 286.481954 212.601661 
z
" style="fill:#1f77b4;"/>
   </g>
   <g id="patch_182">
    <path clip-path="url(#pec005d83ff)" d="M 287.757382 288.430125 
L 288.777725 288.430125 
L 288.777725 195.662944 
L 287.757382 195.662944 
z
" style="fill:#1f77b4;"/>
   </g>
   <g id="patch_183">
    <path clip-path="url(#pec005d83ff)" d="M 289.032811 288.430125 
L 290.053154 288.430125 
L 290.053154 201.203646 
L 289.032811 201.203646 
z
" style="fill:#1f77b4;"/>
   </g>
   <g id="patch_184">
    <path clip-path="url(#pec005d83ff)" d="M 290.308239 288.430125 
L 291.328582 288.430125 
L 291.328582 164.951624 
L 290.308239 164.951624 
z
" style="fill:#1f77b4;"/>
   </g>
   <g id="patch_185">
    <path clip-path="url(#pec005d83ff)" d="M 291.583668 288.430125 
L 292.604011 288.430125 
L 292.604011 165.268236 
L 291.583668 165.268236 
z
" style="fill:#1f77b4;"/>
   </g>
   <g id="patch_186">
    <path clip-path="url(#pec005d83ff)" d="M 292.859096 288.430125 
L 293.879439 288.430125 
L 293.879439 221.941701 
L 292.859096 221.941701 
z
" style="fill:#1f77b4;"/>
   </g>
   <g id="patch_187">
    <path clip-path="url(#pec005d83ff)" d="M 294.134525 288.430125 
L 295.154868 288.430125 
L 295.154868 218.300669 
L 294.134525 218.300669 
z
" style="fill:#1f77b4;"/>
   </g>
   <g id="patch_188">
    <path clip-path="url(#pec005d83ff)" d="M 295.409954 288.430125 
L 296.430296 288.430125 
L 296.430296 185.214763 
L 295.409954 185.214763 
z
" style="fill:#1f77b4;"/>
   </g>
   <g id="patch_189">
    <path clip-path="url(#pec005d83ff)" d="M 296.685382 288.430125 
L 297.705725 288.430125 
L 297.705725 140.730841 
L 296.685382 140.730841 
z
" style="fill:#1f77b4;"/>
   </g>
   <g id="patch_190">
    <path clip-path="url(#pec005d83ff)" d="M 297.960811 288.430125 
L 298.981154 288.430125 
L 298.981154 129.491132 
L 297.960811 129.491132 
z
" style="fill:#1f77b4;"/>
   </g>
   <g id="patch_191">
    <path clip-path="url(#pec005d83ff)" d="M 299.236239 288.430125 
L 300.256582 288.430125 
L 300.256582 82.157706 
L 299.236239 82.157706 
z
" style="fill:#1f77b4;"/>
   </g>
   <g id="patch_192">
    <path clip-path="url(#pec005d83ff)" d="M 300.511668 288.430125 
L 301.532011 288.430125 
L 301.532011 179.515755 
L 300.511668 179.515755 
z
" style="fill:#1f77b4;"/>
   </g>
   <g id="patch_193">
    <path clip-path="url(#pec005d83ff)" d="M 301.787096 288.430125 
L 302.807439 288.430125 
L 302.807439 199.145671 
L 301.787096 199.145671 
z
" style="fill:#1f77b4;"/>
   </g>
   <g id="patch_194">
    <path clip-path="url(#pec005d83ff)" d="M 303.062525 288.430125 
L 304.082868 288.430125 
L 304.082868 220.200338 
L 303.062525 220.200338 
z
" style="fill:#1f77b4;"/>
   </g>
   <g id="patch_195">
    <path clip-path="url(#pec005d83ff)" d="M 304.337954 288.430125 
L 305.358296 288.430125 
L 305.358296 183.473399 
L 304.337954 183.473399 
z
" style="fill:#1f77b4;"/>
   </g>
   <g id="patch_196">
    <path clip-path="url(#pec005d83ff)" d="M 305.613382 288.430125 
L 306.633725 288.430125 
L 306.633725 171.917078 
L 305.613382 171.917078 
z
" style="fill:#1f77b4;"/>
   </g>
   <g id="patch_197">
    <path clip-path="url(#pec005d83ff)" d="M 306.888811 288.430125 
L 307.909154 288.430125 
L 307.909154 117.143281 
L 306.888811 117.143281 
z
" style="fill:#1f77b4;"/>
   </g>
   <g id="patch_198">
    <path clip-path="url(#pec005d83ff)" d="M 308.164239 288.430125 
L 309.184582 288.430125 
L 309.184582 178.249309 
L 308.164239 178.249309 
z
" style="fill:#1f77b4;"/>
   </g>
   <g id="patch_199">
    <path clip-path="url(#pec005d83ff)" d="M 309.439668 288.430125 
L 310.460011 288.430125 
L 310.460011 180.148978 
L 309.439668 180.148978 
z
" style="fill:#1f77b4;"/>
   </g>
   <g id="patch_200">
    <path clip-path="url(#pec005d83ff)" d="M 310.715096 288.430125 
L 311.735439 288.430125 
L 311.735439 224.474594 
L 310.715096 224.474594 
z
" style="fill:#1f77b4;"/>
   </g>
   <g id="patch_201">
    <path clip-path="url(#pec005d83ff)" d="M 311.990525 288.430125 
L 313.010868 288.430125 
L 313.010868 211.493521 
L 311.990525 211.493521 
z
" style="fill:#1f77b4;"/>
   </g>
   <g id="patch_202">
    <path clip-path="url(#pec005d83ff)" d="M 313.265954 288.430125 
L 314.286296 288.430125 
L 314.286296 177.774392 
L 313.265954 177.774392 
z
" style="fill:#1f77b4;"/>
   </g>
   <g id="patch_203">
    <path clip-path="url(#pec005d83ff)" d="M 314.541382 288.430125 
L 315.561725 288.430125 
L 315.561725 142.788816 
L 314.541382 142.788816 
z
" style="fill:#1f77b4;"/>
   </g>
   <g id="patch_204">
    <path clip-path="url(#pec005d83ff)" d="M 315.816811 288.430125 
L 316.837154 288.430125 
L 316.837154 167.801128 
L 315.816811 167.801128 
z
" style="fill:#1f77b4;"/>
   </g>
   <g id="patch_205">
    <path clip-path="url(#pec005d83ff)" d="M 317.092239 288.430125 
L 318.112582 288.430125 
L 318.112582 177.299474 
L 317.092239 177.299474 
z
" style="fill:#1f77b4;"/>
   </g>
   <g id="patch_206">
    <path clip-path="url(#pec005d83ff)" d="M 318.367668 288.430125 
L 319.388011 288.430125 
L 319.388011 211.493521 
L 318.367668 211.493521 
z
" style="fill:#1f77b4;"/>
   </g>
   <g id="patch_207">
    <path clip-path="url(#pec005d83ff)" d="M 319.643096 288.430125 
L 320.663439 288.430125 
L 320.663439 236.98075 
L 319.643096 236.98075 
z
" style="fill:#1f77b4;"/>
   </g>
   <g id="patch_208">
    <path clip-path="url(#pec005d83ff)" d="M 320.918525 288.430125 
L 321.938868 288.430125 
L 321.938868 204.369761 
L 320.918525 204.369761 
z
" style="fill:#1f77b4;"/>
   </g>
   <g id="patch_209">
    <path clip-path="url(#pec005d83ff)" d="M 322.193954 288.430125 
L 323.214296 288.430125 
L 323.214296 161.468897 
L 322.193954 161.468897 
z
" style="fill:#1f77b4;"/>
   </g>
   <g id="patch_210">
    <path clip-path="url(#pec005d83ff)" d="M 323.469382 288.430125 
L 324.489725 288.430125 
L 324.489725 113.660555 
L 323.469382 113.660555 
z
" style="fill:#1f77b4;"/>
   </g>
   <g id="patch_211">
    <path clip-path="url(#pec005d83ff)" d="M 324.744811 288.430125 
L 325.765154 288.430125 
L 325.765154 164.476707 
L 324.744811 164.476707 
z
" style="fill:#1f77b4;"/>
   </g>
   <g id="patch_212">
    <path clip-path="url(#pec005d83ff)" d="M 326.020239 288.430125 
L 327.040582 288.430125 
L 327.040582 138.197949 
L 326.020239 138.197949 
z
" style="fill:#1f77b4;"/>
   </g>
   <g id="patch_213">
    <path clip-path="url(#pec005d83ff)" d="M 327.295668 288.430125 
L 328.316011 288.430125 
L 328.316011 163.051955 
L 327.295668 163.051955 
z
" style="fill:#1f77b4;"/>
   </g>
   <g id="patch_214">
    <path clip-path="url(#pec005d83ff)" d="M 328.571096 288.430125 
L 329.591439 288.430125 
L 329.591439 207.694182 
L 328.571096 207.694182 
z
" style="fill:#1f77b4;"/>
   </g>
   <g id="patch_215">
    <path clip-path="url(#pec005d83ff)" d="M 329.846525 288.430125 
L 330.866868 288.430125 
L 330.866868 220.675255 
L 329.846525 220.675255 
z
" style="fill:#1f77b4;"/>
   </g>
   <g id="patch_216">
    <path clip-path="url(#pec005d83ff)" d="M 331.121954 288.430125 
L 332.142296 288.430125 
L 332.142296 175.399805 
L 331.121954 175.399805 
z
" style="fill:#1f77b4;"/>
   </g>
   <g id="patch_217">
    <path clip-path="url(#pec005d83ff)" d="M 332.397382 288.430125 
L 333.417725 288.430125 
L 333.417725 146.271543 
L 332.397382 146.271543 
z
" style="fill:#1f77b4;"/>
   </g>
   <g id="patch_218">
    <path clip-path="url(#pec005d83ff)" d="M 333.672811 288.430125 
L 334.693154 288.430125 
L 334.693154 117.301587 
L 333.672811 117.301587 
z
" style="fill:#1f77b4;"/>
   </g>
   <g id="patch_219">
    <path clip-path="url(#pec005d83ff)" d="M 334.948239 288.430125 
L 335.968582 288.430125 
L 335.968582 137.881337 
L 334.948239 137.881337 
z
" style="fill:#1f77b4;"/>
   </g>
   <g id="patch_220">
    <path clip-path="url(#pec005d83ff)" d="M 336.223668 288.430125 
L 337.244011 288.430125 
L 337.244011 129.966049 
L 336.223668 129.966049 
z
" style="fill:#1f77b4;"/>
   </g>
   <g id="patch_221">
    <path clip-path="url(#pec005d83ff)" d="M 337.499096 288.430125 
L 338.519439 288.430125 
L 338.519439 164.318401 
L 337.499096 164.318401 
z
" style="fill:#1f77b4;"/>
   </g>
   <g id="patch_222">
    <path clip-path="url(#pec005d83ff)" d="M 338.774525 288.430125 
L 339.794868 288.430125 
L 339.794868 127.749768 
L 338.774525 127.749768 
z
" style="fill:#1f77b4;"/>
   </g>
   <g id="patch_223">
    <path clip-path="url(#pec005d83ff)" d="M 340.049954 288.430125 
L 341.070296 288.430125 
L 341.070296 143.896957 
L 340.049954 143.896957 
z
" style="fill:#1f77b4;"/>
   </g>
   <g id="patch_224">
    <path clip-path="url(#pec005d83ff)" d="M 341.325382 288.430125 
L 342.345725 288.430125 
L 342.345725 109.386299 
L 341.325382 109.386299 
z
" style="fill:#1f77b4;"/>
   </g>
   <g id="patch_225">
    <path clip-path="url(#pec005d83ff)" d="M 342.600811 288.430125 
L 343.621154 288.430125 
L 343.621154 37.198867 
L 342.600811 37.198867 
z
" style="fill:#1f77b4;"/>
   </g>
   <g id="patch_226">
    <path clip-path="url(#pec005d83ff)" d="M 343.876239 288.430125 
L 344.896582 288.430125 
L 344.896582 110.177828 
L 343.876239 110.177828 
z
" style="fill:#1f77b4;"/>
   </g>
   <g id="patch_227">
    <path clip-path="url(#pec005d83ff)" d="M 345.151668 288.430125 
L 346.172011 288.430125 
L 346.172011 77.725145 
L 345.151668 77.725145 
z
" style="fill:#1f77b4;"/>
   </g>
   <g id="patch_228">
    <path clip-path="url(#pec005d83ff)" d="M 346.427096 288.430125 
L 347.447439 288.430125 
L 347.447439 102.895762 
L 346.427096 102.895762 
z
" style="fill:#1f77b4;"/>
   </g>
   <g id="patch_229">
    <path clip-path="url(#pec005d83ff)" d="M 347.702525 288.430125 
L 348.722868 288.430125 
L 348.722868 129.491132 
L 347.702525 129.491132 
z
" style="fill:#1f77b4;"/>
   </g>
   <g id="patch_230">
    <path clip-path="url(#pec005d83ff)" d="M 348.977954 288.430125 
L 349.998296 288.430125 
L 349.998296 147.063072 
L 348.977954 147.063072 
z
" style="fill:#1f77b4;"/>
   </g>
   <g id="patch_231">
    <path clip-path="url(#pec005d83ff)" d="M 350.253382 288.430125 
L 351.273725 288.430125 
L 351.273725 97.988283 
L 350.253382 97.988283 
z
" style="fill:#1f77b4;"/>
   </g>
   <g id="patch_232">
    <path clip-path="url(#pec005d83ff)" d="M 351.528811 288.430125 
L 352.549154 288.430125 
L 352.549154 97.196754 
L 351.528811 97.196754 
z
" style="fill:#1f77b4;"/>
   </g>
   <g id="patch_233">
    <path clip-path="url(#pec005d83ff)" d="M 352.804239 288.430125 
L 353.824582 288.430125 
L 353.824582 55.404031 
L 352.804239 55.404031 
z
" style="fill:#1f77b4;"/>
   </g>
   <g id="patch_234">
    <path clip-path="url(#pec005d83ff)" d="M 354.079668 288.430125 
L 355.100011 288.430125 
L 355.100011 53.820973 
L 354.079668 53.820973 
z
" style="fill:#1f77b4;"/>
   </g>
   <g id="patch_235">
    <path clip-path="url(#pec005d83ff)" d="M 355.355096 288.430125 
L 356.375439 288.430125 
L 356.375439 134.873528 
L 355.355096 134.873528 
z
" style="fill:#1f77b4;"/>
   </g>
   <g id="patch_236">
    <path clip-path="url(#pec005d83ff)" d="M 356.630525 288.430125 
L 357.650868 288.430125 
L 357.650868 120.151091 
L 356.630525 120.151091 
z
" style="fill:#1f77b4;"/>
   </g>
   <g id="patch_237">
    <path clip-path="url(#pec005d83ff)" d="M 357.905954 288.430125 
L 358.926296 288.430125 
L 358.926296 173.816747 
L 357.905954 173.816747 
z
" style="fill:#1f77b4;"/>
   </g>
   <g id="patch_238">
    <path clip-path="url(#pec005d83ff)" d="M 359.181382 288.430125 
L 360.201725 288.430125 
L 360.201725 24.534406 
L 359.181382 24.534406 
z
" style="fill:#1f77b4;"/>
   </g>
   <g id="patch_239">
    <path clip-path="url(#pec005d83ff)" d="M 360.456811 288.430125 
L 361.477154 288.430125 
L 361.477154 78.674979 
L 360.456811 78.674979 
z
" style="fill:#1f77b4;"/>
   </g>
   <g id="patch_240">
    <path clip-path="url(#pec005d83ff)" d="M 361.732239 288.430125 
L 362.752582 288.430125 
L 362.752582 22.318125 
L 361.732239 22.318125 
z
" style="fill:#1f77b4;"/>
   </g>
   <g id="patch_241">
    <path clip-path="url(#pec005d83ff)" d="M 363.007668 288.430125 
L 364.028011 288.430125 
L 364.028011 118.726339 
L 363.007668 118.726339 
z
" style="fill:#1f77b4;"/>
   </g>
   <g id="patch_242">
    <path clip-path="url(#pec005d83ff)" d="M 364.283096 288.430125 
L 365.303439 288.430125 
L 365.303439 71.076302 
L 364.283096 71.076302 
z
" style="fill:#1f77b4;"/>
   </g>
   <g id="patch_243">
    <path clip-path="url(#pec005d83ff)" d="M 365.558525 288.430125 
L 366.578868 288.430125 
L 366.578868 163.051955 
L 365.558525 163.051955 
z
" style="fill:#1f77b4;"/>
   </g>
   <g id="patch_244">
    <path clip-path="url(#pec005d83ff)" d="M 366.833954 288.430125 
L 367.854296 288.430125 
L 367.854296 163.843484 
L 366.833954 163.843484 
z
" style="fill:#1f77b4;"/>
   </g>
   <g id="patch_245">
    <path clip-path="url(#pec005d83ff)" d="M 368.109382 288.430125 
L 369.129725 288.430125 
L 369.129725 61.577956 
L 368.109382 61.577956 
z
" style="fill:#1f77b4;"/>
   </g>
   <g id="patch_246">
    <path clip-path="url(#pec005d83ff)" d="M 369.384811 288.430125 
L 370.405154 288.430125 
L 370.405154 95.930308 
L 369.384811 95.930308 
z
" style="fill:#1f77b4;"/>
   </g>
   <g id="patch_247">
    <path clip-path="url(#pec005d83ff)" d="M 370.660239 288.430125 
L 371.680582 288.430125 
L 371.680582 117.618199 
L 370.660239 117.618199 
z
" style="fill:#1f77b4;"/>
   </g>
   <g id="patch_248">
    <path clip-path="url(#pec005d83ff)" d="M 371.935668 288.430125 
L 372.956011 288.430125 
L 372.956011 141.205759 
L 371.935668 141.205759 
z
" style="fill:#1f77b4;"/>
   </g>
   <g id="patch_249">
    <path clip-path="url(#pec005d83ff)" d="M 373.211096 288.430125 
L 374.231439 288.430125 
L 374.231439 155.294972 
L 373.211096 155.294972 
z
" style="fill:#1f77b4;"/>
   </g>
   <g id="patch_250">
    <path clip-path="url(#pec005d83ff)" d="M 374.486525 288.430125 
L 375.506868 288.430125 
L 375.506868 218.300669 
L 374.486525 218.300669 
z
" style="fill:#1f77b4;"/>
   </g>
   <g id="patch_251">
    <path clip-path="url(#pec005d83ff)" d="M 375.761954 288.430125 
L 376.782296 288.430125 
L 376.782296 107.170018 
L 375.761954 107.170018 
z
" style="fill:#1f77b4;"/>
   </g>
   <g id="patch_252">
    <path clip-path="url(#pec005d83ff)" d="M 377.037382 288.430125 
L 378.057725 288.430125 
L 378.057725 100.046258 
L 377.037382 100.046258 
z
" style="fill:#1f77b4;"/>
   </g>
   <g id="patch_253">
    <path clip-path="url(#pec005d83ff)" d="M 378.312811 288.430125 
L 379.333154 288.430125 
L 379.333154 113.343943 
L 378.312811 113.343943 
z
" style="fill:#1f77b4;"/>
   </g>
   <g id="patch_254">
    <path clip-path="url(#pec005d83ff)" d="M 379.588239 288.430125 
L 380.608582 288.430125 
L 380.608582 127.433157 
L 379.588239 127.433157 
z
" style="fill:#1f77b4;"/>
   </g>
   <g id="patch_255">
    <path clip-path="url(#pec005d83ff)" d="M 380.863668 288.430125 
L 381.884011 288.430125 
L 381.884011 139.464395 
L 380.863668 139.464395 
z
" style="fill:#1f77b4;"/>
   </g>
   <g id="patch_256">
    <path clip-path="url(#pec005d83ff)" d="M 382.139096 288.430125 
L 383.159439 288.430125 
L 383.159439 219.250503 
L 382.139096 219.250503 
z
" style="fill:#1f77b4;"/>
   </g>
   <g id="patch_257">
    <path clip-path="url(#pec005d83ff)" d="M 383.414525 288.430125 
L 384.434868 288.430125 
L 384.434868 234.289552 
L 383.414525 234.289552 
z
" style="fill:#1f77b4;"/>
   </g>
   <g id="patch_258">
    <path clip-path="url(#pec005d83ff)" d="M 384.689954 288.430125 
L 385.710296 288.430125 
L 385.710296 191.705299 
L 384.689954 191.705299 
z
" style="fill:#1f77b4;"/>
   </g>
   <g id="patch_259">
    <path clip-path="url(#pec005d83ff)" d="M 385.965382 288.430125 
L 386.985725 288.430125 
L 386.985725 207.852488 
L 385.965382 207.852488 
z
" style="fill:#1f77b4;"/>
   </g>
   <g id="patch_260">
    <path clip-path="url(#pec005d83ff)" d="M 387.240811 288.430125 
L 388.261154 288.430125 
L 388.261154 200.887034 
L 387.240811 200.887034 
z
" style="fill:#1f77b4;"/>
   </g>
   <g id="patch_261">
    <path clip-path="url(#pec005d83ff)" d="M 388.516239 288.430125 
L 389.536582 288.430125 
L 389.536582 204.211455 
L 388.516239 204.211455 
z
" style="fill:#1f77b4;"/>
   </g>
   <g id="patch_262">
    <path clip-path="url(#pec005d83ff)" d="M 389.791668 288.430125 
L 390.812011 288.430125 
L 390.812011 122.209066 
L 389.791668 122.209066 
z
" style="fill:#1f77b4;"/>
   </g>
   <g id="patch_263">
    <path clip-path="url(#pec005d83ff)" d="M 391.067096 288.430125 
L 392.087439 288.430125 
L 392.087439 232.8648 
L 391.067096 232.8648 
z
" style="fill:#1f77b4;"/>
   </g>
   <g id="patch_264">
    <path clip-path="url(#pec005d83ff)" d="M 392.342525 288.430125 
L 393.362868 288.430125 
L 393.362868 248.378765 
L 392.342525 248.378765 
z
" style="fill:#1f77b4;"/>
   </g>
   <g id="patch_265">
    <path clip-path="url(#pec005d83ff)" d="M 393.617954 288.430125 
L 394.638296 288.430125 
L 394.638296 198.987365 
L 393.617954 198.987365 
z
" style="fill:#1f77b4;"/>
   </g>
   <g id="patch_266">
    <path clip-path="url(#pec005d83ff)" d="M 394.893382 288.430125 
L 395.913725 288.430125 
L 395.913725 190.755465 
L 394.893382 190.755465 
z
" style="fill:#1f77b4;"/>
   </g>
   <g id="patch_267">
    <path clip-path="url(#pec005d83ff)" d="M 396.168811 288.430125 
L 397.189154 288.430125 
L 397.189154 192.021911 
L 396.168811 192.021911 
z
" style="fill:#1f77b4;"/>
   </g>
   <g id="patch_268">
    <path clip-path="url(#pec005d83ff)" d="M 397.444239 288.430125 
L 398.464582 288.430125 
L 398.464582 202.15348 
L 397.444239 202.15348 
z
" style="fill:#1f77b4;"/>
   </g>
   <g id="patch_269">
    <path clip-path="url(#pec005d83ff)" d="M 398.719668 288.430125 
L 399.740011 288.430125 
L 399.740011 206.26943 
L 398.719668 206.26943 
z
" style="fill:#1f77b4;"/>
   </g>
   <g id="patch_270">
    <path clip-path="url(#pec005d83ff)" d="M 399.995096 288.430125 
L 401.015439 288.430125 
L 401.015439 242.996369 
L 399.995096 242.996369 
z
" style="fill:#1f77b4;"/>
   </g>
   <g id="patch_271">
    <path clip-path="url(#pec005d83ff)" d="M 401.270525 288.430125 
L 402.290868 288.430125 
L 402.290868 249.961823 
L 401.270525 249.961823 
z
" style="fill:#1f77b4;"/>
   </g>
   <g id="patch_272">
    <path clip-path="url(#pec005d83ff)" d="M 402.545954 288.430125 
L 403.566296 288.430125 
L 403.566296 212.759967 
L 402.545954 212.759967 
z
" style="fill:#1f77b4;"/>
   </g>
   <g id="patch_273">
    <path clip-path="url(#pec005d83ff)" d="M 403.821382 288.430125 
L 404.841725 288.430125 
L 404.841725 200.887034 
L 403.821382 200.887034 
z
" style="fill:#1f77b4;"/>
   </g>
   <g id="patch_274">
    <path clip-path="url(#pec005d83ff)" d="M 405.096811 288.430125 
L 406.117154 288.430125 
L 406.117154 222.891536 
L 405.096811 222.891536 
z
" style="fill:#1f77b4;"/>
   </g>
   <g id="patch_275">
    <path clip-path="url(#pec005d83ff)" d="M 406.372239 288.430125 
L 407.392582 288.430125 
L 407.392582 181.732036 
L 406.372239 181.732036 
z
" style="fill:#1f77b4;"/>
   </g>
   <g id="patch_276">
    <path clip-path="url(#pec005d83ff)" d="M 407.647668 288.430125 
L 408.668011 288.430125 
L 408.668011 204.844678 
L 407.647668 204.844678 
z
" style="fill:#1f77b4;"/>
   </g>
   <g id="patch_277">
    <path clip-path="url(#pec005d83ff)" d="M 408.923096 288.430125 
L 409.943439 288.430125 
L 409.943439 238.247196 
L 408.923096 238.247196 
z
" style="fill:#1f77b4;"/>
   </g>
   <g id="patch_278">
    <path clip-path="url(#pec005d83ff)" d="M 410.198525 288.430125 
L 411.218868 288.430125 
L 411.218868 248.537071 
L 410.198525 248.537071 
z
" style="fill:#1f77b4;"/>
   </g>
   <g id="patch_279">
    <path clip-path="url(#pec005d83ff)" d="M 411.473954 288.430125 
L 412.494296 288.430125 
L 412.494296 206.26943 
L 411.473954 206.26943 
z
" style="fill:#1f77b4;"/>
   </g>
   <g id="patch_280">
    <path clip-path="url(#pec005d83ff)" d="M 412.749382 288.430125 
L 413.769725 288.430125 
L 413.769725 191.230382 
L 412.749382 191.230382 
z
" style="fill:#1f77b4;"/>
   </g>
   <g id="patch_281">
    <path clip-path="url(#pec005d83ff)" d="M 414.024811 288.430125 
L 415.045154 288.430125 
L 415.045154 222.258313 
L 414.024811 222.258313 
z
" style="fill:#1f77b4;"/>
   </g>
   <g id="patch_282">
    <path clip-path="url(#pec005d83ff)" d="M 415.300239 288.430125 
L 416.320582 288.430125 
L 416.320582 217.034223 
L 415.300239 217.034223 
z
" style="fill:#1f77b4;"/>
   </g>
   <g id="matplotlib.axis_1">
    <g id="xtick_1">
     <g id="line2d_1">
      <defs>
       <path d="M 0 0 
L 0 3.5 
" id="mc4578b37ae" style="stroke:#000000;stroke-width:0.8;"/>
      </defs>
      <g>
       <use style="stroke:#000000;stroke-width:0.8;" x="81.648125" xlink:href="#mc4578b37ae" y="288.430125"/>
      </g>
     </g>
     <g id="text_1">
      <!-- 2020-04 -->
      <g transform="translate(84.4075 337.212937)rotate(-90)scale(0.1 -0.1)">
       <defs>
        <path d="M 19.1875 8.296875 
L 53.609375 8.296875 
L 53.609375 0 
L 7.328125 0 
L 7.328125 8.296875 
Q 12.9375 14.109375 22.625 23.890625 
Q 32.328125 33.6875 34.8125 36.53125 
Q 39.546875 41.84375 41.421875 45.53125 
Q 43.3125 49.21875 43.3125 52.78125 
Q 43.3125 58.59375 39.234375 62.25 
Q 35.15625 65.921875 28.609375 65.921875 
Q 23.96875 65.921875 18.8125 64.3125 
Q 13.671875 62.703125 7.8125 59.421875 
L 7.8125 69.390625 
Q 13.765625 71.78125 18.9375 73 
Q 24.125 74.21875 28.421875 74.21875 
Q 39.75 74.21875 46.484375 68.546875 
Q 53.21875 62.890625 53.21875 53.421875 
Q 53.21875 48.921875 51.53125 44.890625 
Q 49.859375 40.875 45.40625 35.40625 
Q 44.1875 33.984375 37.640625 27.21875 
Q 31.109375 20.453125 19.1875 8.296875 
z
" id="DejaVuSans-50"/>
        <path d="M 31.78125 66.40625 
Q 24.171875 66.40625 20.328125 58.90625 
Q 16.5 51.421875 16.5 36.375 
Q 16.5 21.390625 20.328125 13.890625 
Q 24.171875 6.390625 31.78125 6.390625 
Q 39.453125 6.390625 43.28125 13.890625 
Q 47.125 21.390625 47.125 36.375 
Q 47.125 51.421875 43.28125 58.90625 
Q 39.453125 66.40625 31.78125 66.40625 
z
M 31.78125 74.21875 
Q 44.046875 74.21875 50.515625 64.515625 
Q 56.984375 54.828125 56.984375 36.375 
Q 56.984375 17.96875 50.515625 8.265625 
Q 44.046875 -1.421875 31.78125 -1.421875 
Q 19.53125 -1.421875 13.0625 8.265625 
Q 6.59375 17.96875 6.59375 36.375 
Q 6.59375 54.828125 13.0625 64.515625 
Q 19.53125 74.21875 31.78125 74.21875 
z
" id="DejaVuSans-48"/>
        <path d="M 4.890625 31.390625 
L 31.203125 31.390625 
L 31.203125 23.390625 
L 4.890625 23.390625 
z
" id="DejaVuSans-45"/>
        <path d="M 37.796875 64.3125 
L 12.890625 25.390625 
L 37.796875 25.390625 
z
M 35.203125 72.90625 
L 47.609375 72.90625 
L 47.609375 25.390625 
L 58.015625 25.390625 
L 58.015625 17.1875 
L 47.609375 17.1875 
L 47.609375 0 
L 37.796875 0 
L 37.796875 17.1875 
L 4.890625 17.1875 
L 4.890625 26.703125 
z
" id="DejaVuSans-52"/>
       </defs>
       <use xlink:href="#DejaVuSans-50"/>
       <use x="63.623047" xlink:href="#DejaVuSans-48"/>
       <use x="127.246094" xlink:href="#DejaVuSans-50"/>
       <use x="190.869141" xlink:href="#DejaVuSans-48"/>
       <use x="254.492188" xlink:href="#DejaVuSans-45"/>
       <use x="290.576172" xlink:href="#DejaVuSans-48"/>
       <use x="354.199219" xlink:href="#DejaVuSans-52"/>
      </g>
     </g>
    </g>
    <g id="xtick_2">
     <g id="line2d_2">
      <g>
       <use style="stroke:#000000;stroke-width:0.8;" x="119.910982" xlink:href="#mc4578b37ae" y="288.430125"/>
      </g>
     </g>
     <g id="text_2">
      <!-- 2020-05 -->
      <g transform="translate(122.670357 337.212937)rotate(-90)scale(0.1 -0.1)">
       <defs>
        <path d="M 10.796875 72.90625 
L 49.515625 72.90625 
L 49.515625 64.59375 
L 19.828125 64.59375 
L 19.828125 46.734375 
Q 21.96875 47.46875 24.109375 47.828125 
Q 26.265625 48.1875 28.421875 48.1875 
Q 40.625 48.1875 47.75 41.5 
Q 54.890625 34.8125 54.890625 23.390625 
Q 54.890625 11.625 47.5625 5.09375 
Q 40.234375 -1.421875 26.90625 -1.421875 
Q 22.3125 -1.421875 17.546875 -0.640625 
Q 12.796875 0.140625 7.71875 1.703125 
L 7.71875 11.625 
Q 12.109375 9.234375 16.796875 8.0625 
Q 21.484375 6.890625 26.703125 6.890625 
Q 35.15625 6.890625 40.078125 11.328125 
Q 45.015625 15.765625 45.015625 23.390625 
Q 45.015625 31 40.078125 35.4375 
Q 35.15625 39.890625 26.703125 39.890625 
Q 22.75 39.890625 18.8125 39.015625 
Q 14.890625 38.140625 10.796875 36.28125 
z
" id="DejaVuSans-53"/>
       </defs>
       <use xlink:href="#DejaVuSans-50"/>
       <use x="63.623047" xlink:href="#DejaVuSans-48"/>
       <use x="127.246094" xlink:href="#DejaVuSans-50"/>
       <use x="190.869141" xlink:href="#DejaVuSans-48"/>
       <use x="254.492188" xlink:href="#DejaVuSans-45"/>
       <use x="290.576172" xlink:href="#DejaVuSans-48"/>
       <use x="354.199219" xlink:href="#DejaVuSans-53"/>
      </g>
     </g>
    </g>
    <g id="xtick_3">
     <g id="line2d_3">
      <g>
       <use style="stroke:#000000;stroke-width:0.8;" x="159.449268" xlink:href="#mc4578b37ae" y="288.430125"/>
      </g>
     </g>
     <g id="text_3">
      <!-- 2020-06 -->
      <g transform="translate(162.208643 337.212937)rotate(-90)scale(0.1 -0.1)">
       <defs>
        <path d="M 33.015625 40.375 
Q 26.375 40.375 22.484375 35.828125 
Q 18.609375 31.296875 18.609375 23.390625 
Q 18.609375 15.53125 22.484375 10.953125 
Q 26.375 6.390625 33.015625 6.390625 
Q 39.65625 6.390625 43.53125 10.953125 
Q 47.40625 15.53125 47.40625 23.390625 
Q 47.40625 31.296875 43.53125 35.828125 
Q 39.65625 40.375 33.015625 40.375 
z
M 52.59375 71.296875 
L 52.59375 62.3125 
Q 48.875 64.0625 45.09375 64.984375 
Q 41.3125 65.921875 37.59375 65.921875 
Q 27.828125 65.921875 22.671875 59.328125 
Q 17.53125 52.734375 16.796875 39.40625 
Q 19.671875 43.65625 24.015625 45.921875 
Q 28.375 48.1875 33.59375 48.1875 
Q 44.578125 48.1875 50.953125 41.515625 
Q 57.328125 34.859375 57.328125 23.390625 
Q 57.328125 12.15625 50.6875 5.359375 
Q 44.046875 -1.421875 33.015625 -1.421875 
Q 20.359375 -1.421875 13.671875 8.265625 
Q 6.984375 17.96875 6.984375 36.375 
Q 6.984375 53.65625 15.1875 63.9375 
Q 23.390625 74.21875 37.203125 74.21875 
Q 40.921875 74.21875 44.703125 73.484375 
Q 48.484375 72.75 52.59375 71.296875 
z
" id="DejaVuSans-54"/>
       </defs>
       <use xlink:href="#DejaVuSans-50"/>
       <use x="63.623047" xlink:href="#DejaVuSans-48"/>
       <use x="127.246094" xlink:href="#DejaVuSans-50"/>
       <use x="190.869141" xlink:href="#DejaVuSans-48"/>
       <use x="254.492188" xlink:href="#DejaVuSans-45"/>
       <use x="290.576172" xlink:href="#DejaVuSans-48"/>
       <use x="354.199219" xlink:href="#DejaVuSans-54"/>
      </g>
     </g>
    </g>
    <g id="xtick_4">
     <g id="line2d_4">
      <g>
       <use style="stroke:#000000;stroke-width:0.8;" x="197.712125" xlink:href="#mc4578b37ae" y="288.430125"/>
      </g>
     </g>
     <g id="text_4">
      <!-- 2020-07 -->
      <g transform="translate(200.4715 337.212937)rotate(-90)scale(0.1 -0.1)">
       <defs>
        <path d="M 8.203125 72.90625 
L 55.078125 72.90625 
L 55.078125 68.703125 
L 28.609375 0 
L 18.3125 0 
L 43.21875 64.59375 
L 8.203125 64.59375 
z
" id="DejaVuSans-55"/>
       </defs>
       <use xlink:href="#DejaVuSans-50"/>
       <use x="63.623047" xlink:href="#DejaVuSans-48"/>
       <use x="127.246094" xlink:href="#DejaVuSans-50"/>
       <use x="190.869141" xlink:href="#DejaVuSans-48"/>
       <use x="254.492188" xlink:href="#DejaVuSans-45"/>
       <use x="290.576172" xlink:href="#DejaVuSans-48"/>
       <use x="354.199219" xlink:href="#DejaVuSans-55"/>
      </g>
     </g>
    </g>
    <g id="xtick_5">
     <g id="line2d_5">
      <g>
       <use style="stroke:#000000;stroke-width:0.8;" x="237.250411" xlink:href="#mc4578b37ae" y="288.430125"/>
      </g>
     </g>
     <g id="text_5">
      <!-- 2020-08 -->
      <g transform="translate(240.009786 337.212937)rotate(-90)scale(0.1 -0.1)">
       <defs>
        <path d="M 31.78125 34.625 
Q 24.75 34.625 20.71875 30.859375 
Q 16.703125 27.09375 16.703125 20.515625 
Q 16.703125 13.921875 20.71875 10.15625 
Q 24.75 6.390625 31.78125 6.390625 
Q 38.8125 6.390625 42.859375 10.171875 
Q 46.921875 13.96875 46.921875 20.515625 
Q 46.921875 27.09375 42.890625 30.859375 
Q 38.875 34.625 31.78125 34.625 
z
M 21.921875 38.8125 
Q 15.578125 40.375 12.03125 44.71875 
Q 8.5 49.078125 8.5 55.328125 
Q 8.5 64.0625 14.71875 69.140625 
Q 20.953125 74.21875 31.78125 74.21875 
Q 42.671875 74.21875 48.875 69.140625 
Q 55.078125 64.0625 55.078125 55.328125 
Q 55.078125 49.078125 51.53125 44.71875 
Q 48 40.375 41.703125 38.8125 
Q 48.828125 37.15625 52.796875 32.3125 
Q 56.78125 27.484375 56.78125 20.515625 
Q 56.78125 9.90625 50.3125 4.234375 
Q 43.84375 -1.421875 31.78125 -1.421875 
Q 19.734375 -1.421875 13.25 4.234375 
Q 6.78125 9.90625 6.78125 20.515625 
Q 6.78125 27.484375 10.78125 32.3125 
Q 14.796875 37.15625 21.921875 38.8125 
z
M 18.3125 54.390625 
Q 18.3125 48.734375 21.84375 45.5625 
Q 25.390625 42.390625 31.78125 42.390625 
Q 38.140625 42.390625 41.71875 45.5625 
Q 45.3125 48.734375 45.3125 54.390625 
Q 45.3125 60.0625 41.71875 63.234375 
Q 38.140625 66.40625 31.78125 66.40625 
Q 25.390625 66.40625 21.84375 63.234375 
Q 18.3125 60.0625 18.3125 54.390625 
z
" id="DejaVuSans-56"/>
       </defs>
       <use xlink:href="#DejaVuSans-50"/>
       <use x="63.623047" xlink:href="#DejaVuSans-48"/>
       <use x="127.246094" xlink:href="#DejaVuSans-50"/>
       <use x="190.869141" xlink:href="#DejaVuSans-48"/>
       <use x="254.492188" xlink:href="#DejaVuSans-45"/>
       <use x="290.576172" xlink:href="#DejaVuSans-48"/>
       <use x="354.199219" xlink:href="#DejaVuSans-56"/>
      </g>
     </g>
    </g>
    <g id="xtick_6">
     <g id="line2d_6">
      <g>
       <use style="stroke:#000000;stroke-width:0.8;" x="276.788696" xlink:href="#mc4578b37ae" y="288.430125"/>
      </g>
     </g>
     <g id="text_6">
      <!-- 2020-09 -->
      <g transform="translate(279.548071 337.212937)rotate(-90)scale(0.1 -0.1)">
       <defs>
        <path d="M 10.984375 1.515625 
L 10.984375 10.5 
Q 14.703125 8.734375 18.5 7.8125 
Q 22.3125 6.890625 25.984375 6.890625 
Q 35.75 6.890625 40.890625 13.453125 
Q 46.046875 20.015625 46.78125 33.40625 
Q 43.953125 29.203125 39.59375 26.953125 
Q 35.25 24.703125 29.984375 24.703125 
Q 19.046875 24.703125 12.671875 31.3125 
Q 6.296875 37.9375 6.296875 49.421875 
Q 6.296875 60.640625 12.9375 67.421875 
Q 19.578125 74.21875 30.609375 74.21875 
Q 43.265625 74.21875 49.921875 64.515625 
Q 56.59375 54.828125 56.59375 36.375 
Q 56.59375 19.140625 48.40625 8.859375 
Q 40.234375 -1.421875 26.421875 -1.421875 
Q 22.703125 -1.421875 18.890625 -0.6875 
Q 15.09375 0.046875 10.984375 1.515625 
z
M 30.609375 32.421875 
Q 37.25 32.421875 41.125 36.953125 
Q 45.015625 41.5 45.015625 49.421875 
Q 45.015625 57.28125 41.125 61.84375 
Q 37.25 66.40625 30.609375 66.40625 
Q 23.96875 66.40625 20.09375 61.84375 
Q 16.21875 57.28125 16.21875 49.421875 
Q 16.21875 41.5 20.09375 36.953125 
Q 23.96875 32.421875 30.609375 32.421875 
z
" id="DejaVuSans-57"/>
       </defs>
       <use xlink:href="#DejaVuSans-50"/>
       <use x="63.623047" xlink:href="#DejaVuSans-48"/>
       <use x="127.246094" xlink:href="#DejaVuSans-50"/>
       <use x="190.869141" xlink:href="#DejaVuSans-48"/>
       <use x="254.492188" xlink:href="#DejaVuSans-45"/>
       <use x="290.576172" xlink:href="#DejaVuSans-48"/>
       <use x="354.199219" xlink:href="#DejaVuSans-57"/>
      </g>
     </g>
    </g>
    <g id="xtick_7">
     <g id="line2d_7">
      <g>
       <use style="stroke:#000000;stroke-width:0.8;" x="315.051554" xlink:href="#mc4578b37ae" y="288.430125"/>
      </g>
     </g>
     <g id="text_7">
      <!-- 2020-10 -->
      <g transform="translate(317.810929 337.212937)rotate(-90)scale(0.1 -0.1)">
       <defs>
        <path d="M 12.40625 8.296875 
L 28.515625 8.296875 
L 28.515625 63.921875 
L 10.984375 60.40625 
L 10.984375 69.390625 
L 28.421875 72.90625 
L 38.28125 72.90625 
L 38.28125 8.296875 
L 54.390625 8.296875 
L 54.390625 0 
L 12.40625 0 
z
" id="DejaVuSans-49"/>
       </defs>
       <use xlink:href="#DejaVuSans-50"/>
       <use x="63.623047" xlink:href="#DejaVuSans-48"/>
       <use x="127.246094" xlink:href="#DejaVuSans-50"/>
       <use x="190.869141" xlink:href="#DejaVuSans-48"/>
       <use x="254.492188" xlink:href="#DejaVuSans-45"/>
       <use x="290.576172" xlink:href="#DejaVuSans-49"/>
       <use x="354.199219" xlink:href="#DejaVuSans-48"/>
      </g>
     </g>
    </g>
    <g id="xtick_8">
     <g id="line2d_8">
      <g>
       <use style="stroke:#000000;stroke-width:0.8;" x="354.589839" xlink:href="#mc4578b37ae" y="288.430125"/>
      </g>
     </g>
     <g id="text_8">
      <!-- 2020-11 -->
      <g transform="translate(357.349214 337.212937)rotate(-90)scale(0.1 -0.1)">
       <use xlink:href="#DejaVuSans-50"/>
       <use x="63.623047" xlink:href="#DejaVuSans-48"/>
       <use x="127.246094" xlink:href="#DejaVuSans-50"/>
       <use x="190.869141" xlink:href="#DejaVuSans-48"/>
       <use x="254.492188" xlink:href="#DejaVuSans-45"/>
       <use x="290.576172" xlink:href="#DejaVuSans-49"/>
       <use x="354.199219" xlink:href="#DejaVuSans-49"/>
      </g>
     </g>
    </g>
    <g id="xtick_9">
     <g id="line2d_9">
      <g>
       <use style="stroke:#000000;stroke-width:0.8;" x="392.852696" xlink:href="#mc4578b37ae" y="288.430125"/>
      </g>
     </g>
     <g id="text_9">
      <!-- 2020-12 -->
      <g transform="translate(395.612071 337.212937)rotate(-90)scale(0.1 -0.1)">
       <use xlink:href="#DejaVuSans-50"/>
       <use x="63.623047" xlink:href="#DejaVuSans-48"/>
       <use x="127.246094" xlink:href="#DejaVuSans-50"/>
       <use x="190.869141" xlink:href="#DejaVuSans-48"/>
       <use x="254.492188" xlink:href="#DejaVuSans-45"/>
       <use x="290.576172" xlink:href="#DejaVuSans-49"/>
       <use x="354.199219" xlink:href="#DejaVuSans-50"/>
      </g>
     </g>
    </g>
    <g id="text_10">
     <!-- date -->
     <g transform="translate(226.613125 354.811375)scale(0.1 -0.1)">
      <defs>
       <path d="M 45.40625 46.390625 
L 45.40625 75.984375 
L 54.390625 75.984375 
L 54.390625 0 
L 45.40625 0 
L 45.40625 8.203125 
Q 42.578125 3.328125 38.25 0.953125 
Q 33.9375 -1.421875 27.875 -1.421875 
Q 17.96875 -1.421875 11.734375 6.484375 
Q 5.515625 14.40625 5.515625 27.296875 
Q 5.515625 40.1875 11.734375 48.09375 
Q 17.96875 56 27.875 56 
Q 33.9375 56 38.25 53.625 
Q 42.578125 51.265625 45.40625 46.390625 
z
M 14.796875 27.296875 
Q 14.796875 17.390625 18.875 11.75 
Q 22.953125 6.109375 30.078125 6.109375 
Q 37.203125 6.109375 41.296875 11.75 
Q 45.40625 17.390625 45.40625 27.296875 
Q 45.40625 37.203125 41.296875 42.84375 
Q 37.203125 48.484375 30.078125 48.484375 
Q 22.953125 48.484375 18.875 42.84375 
Q 14.796875 37.203125 14.796875 27.296875 
z
" id="DejaVuSans-100"/>
       <path d="M 34.28125 27.484375 
Q 23.390625 27.484375 19.1875 25 
Q 14.984375 22.515625 14.984375 16.5 
Q 14.984375 11.71875 18.140625 8.90625 
Q 21.296875 6.109375 26.703125 6.109375 
Q 34.1875 6.109375 38.703125 11.40625 
Q 43.21875 16.703125 43.21875 25.484375 
L 43.21875 27.484375 
z
M 52.203125 31.203125 
L 52.203125 0 
L 43.21875 0 
L 43.21875 8.296875 
Q 40.140625 3.328125 35.546875 0.953125 
Q 30.953125 -1.421875 24.3125 -1.421875 
Q 15.921875 -1.421875 10.953125 3.296875 
Q 6 8.015625 6 15.921875 
Q 6 25.140625 12.171875 29.828125 
Q 18.359375 34.515625 30.609375 34.515625 
L 43.21875 34.515625 
L 43.21875 35.40625 
Q 43.21875 41.609375 39.140625 45 
Q 35.0625 48.390625 27.6875 48.390625 
Q 23 48.390625 18.546875 47.265625 
Q 14.109375 46.140625 10.015625 43.890625 
L 10.015625 52.203125 
Q 14.9375 54.109375 19.578125 55.046875 
Q 24.21875 56 28.609375 56 
Q 40.484375 56 46.34375 49.84375 
Q 52.203125 43.703125 52.203125 31.203125 
z
" id="DejaVuSans-97"/>
       <path d="M 18.3125 70.21875 
L 18.3125 54.6875 
L 36.8125 54.6875 
L 36.8125 47.703125 
L 18.3125 47.703125 
L 18.3125 18.015625 
Q 18.3125 11.328125 20.140625 9.421875 
Q 21.96875 7.515625 27.59375 7.515625 
L 36.8125 7.515625 
L 36.8125 0 
L 27.59375 0 
Q 17.1875 0 13.234375 3.875 
Q 9.28125 7.765625 9.28125 18.015625 
L 9.28125 47.703125 
L 2.6875 47.703125 
L 2.6875 54.6875 
L 9.28125 54.6875 
L 9.28125 70.21875 
z
" id="DejaVuSans-116"/>
       <path d="M 56.203125 29.59375 
L 56.203125 25.203125 
L 14.890625 25.203125 
Q 15.484375 15.921875 20.484375 11.0625 
Q 25.484375 6.203125 34.421875 6.203125 
Q 39.59375 6.203125 44.453125 7.46875 
Q 49.3125 8.734375 54.109375 11.28125 
L 54.109375 2.78125 
Q 49.265625 0.734375 44.1875 -0.34375 
Q 39.109375 -1.421875 33.890625 -1.421875 
Q 20.796875 -1.421875 13.15625 6.1875 
Q 5.515625 13.8125 5.515625 26.8125 
Q 5.515625 40.234375 12.765625 48.109375 
Q 20.015625 56 32.328125 56 
Q 43.359375 56 49.78125 48.890625 
Q 56.203125 41.796875 56.203125 29.59375 
z
M 47.21875 32.234375 
Q 47.125 39.59375 43.09375 43.984375 
Q 39.0625 48.390625 32.421875 48.390625 
Q 24.90625 48.390625 20.390625 44.140625 
Q 15.875 39.890625 15.1875 32.171875 
z
" id="DejaVuSans-101"/>
      </defs>
      <use xlink:href="#DejaVuSans-100"/>
      <use x="63.476562" xlink:href="#DejaVuSans-97"/>
      <use x="124.755859" xlink:href="#DejaVuSans-116"/>
      <use x="163.964844" xlink:href="#DejaVuSans-101"/>
     </g>
    </g>
   </g>
   <g id="matplotlib.axis_2">
    <g id="ytick_1">
     <g id="line2d_10">
      <defs>
       <path d="M 0 0 
L -3.5 0 
" id="m77e116f748" style="stroke:#000000;stroke-width:0.8;"/>
      </defs>
      <g>
       <use style="stroke:#000000;stroke-width:0.8;" x="59.328125" xlink:href="#m77e116f748" y="288.430125"/>
      </g>
     </g>
     <g id="text_11">
      <!-- 0 -->
      <g transform="translate(45.965625 292.229344)scale(0.1 -0.1)">
       <use xlink:href="#DejaVuSans-48"/>
      </g>
     </g>
    </g>
    <g id="ytick_2">
     <g id="line2d_11">
      <g>
       <use style="stroke:#000000;stroke-width:0.8;" x="59.328125" xlink:href="#m77e116f748" y="256.768971"/>
      </g>
     </g>
     <g id="text_12">
      <!-- 200 -->
      <g transform="translate(33.240625 260.56819)scale(0.1 -0.1)">
       <use xlink:href="#DejaVuSans-50"/>
       <use x="63.623047" xlink:href="#DejaVuSans-48"/>
       <use x="127.246094" xlink:href="#DejaVuSans-48"/>
      </g>
     </g>
    </g>
    <g id="ytick_3">
     <g id="line2d_12">
      <g>
       <use style="stroke:#000000;stroke-width:0.8;" x="59.328125" xlink:href="#m77e116f748" y="225.107817"/>
      </g>
     </g>
     <g id="text_13">
      <!-- 400 -->
      <g transform="translate(33.240625 228.907036)scale(0.1 -0.1)">
       <use xlink:href="#DejaVuSans-52"/>
       <use x="63.623047" xlink:href="#DejaVuSans-48"/>
       <use x="127.246094" xlink:href="#DejaVuSans-48"/>
      </g>
     </g>
    </g>
    <g id="ytick_4">
     <g id="line2d_13">
      <g>
       <use style="stroke:#000000;stroke-width:0.8;" x="59.328125" xlink:href="#m77e116f748" y="193.446663"/>
      </g>
     </g>
     <g id="text_14">
      <!-- 600 -->
      <g transform="translate(33.240625 197.245882)scale(0.1 -0.1)">
       <use xlink:href="#DejaVuSans-54"/>
       <use x="63.623047" xlink:href="#DejaVuSans-48"/>
       <use x="127.246094" xlink:href="#DejaVuSans-48"/>
      </g>
     </g>
    </g>
    <g id="ytick_5">
     <g id="line2d_14">
      <g>
       <use style="stroke:#000000;stroke-width:0.8;" x="59.328125" xlink:href="#m77e116f748" y="161.785509"/>
      </g>
     </g>
     <g id="text_15">
      <!-- 800 -->
      <g transform="translate(33.240625 165.584727)scale(0.1 -0.1)">
       <use xlink:href="#DejaVuSans-56"/>
       <use x="63.623047" xlink:href="#DejaVuSans-48"/>
       <use x="127.246094" xlink:href="#DejaVuSans-48"/>
      </g>
     </g>
    </g>
    <g id="ytick_6">
     <g id="line2d_15">
      <g>
       <use style="stroke:#000000;stroke-width:0.8;" x="59.328125" xlink:href="#m77e116f748" y="130.124355"/>
      </g>
     </g>
     <g id="text_16">
      <!-- 1000 -->
      <g transform="translate(26.878125 133.923573)scale(0.1 -0.1)">
       <use xlink:href="#DejaVuSans-49"/>
       <use x="63.623047" xlink:href="#DejaVuSans-48"/>
       <use x="127.246094" xlink:href="#DejaVuSans-48"/>
       <use x="190.869141" xlink:href="#DejaVuSans-48"/>
      </g>
     </g>
    </g>
    <g id="ytick_7">
     <g id="line2d_16">
      <g>
       <use style="stroke:#000000;stroke-width:0.8;" x="59.328125" xlink:href="#m77e116f748" y="98.463201"/>
      </g>
     </g>
     <g id="text_17">
      <!-- 1200 -->
      <g transform="translate(26.878125 102.262419)scale(0.1 -0.1)">
       <use xlink:href="#DejaVuSans-49"/>
       <use x="63.623047" xlink:href="#DejaVuSans-50"/>
       <use x="127.246094" xlink:href="#DejaVuSans-48"/>
       <use x="190.869141" xlink:href="#DejaVuSans-48"/>
      </g>
     </g>
    </g>
    <g id="ytick_8">
     <g id="line2d_17">
      <g>
       <use style="stroke:#000000;stroke-width:0.8;" x="59.328125" xlink:href="#m77e116f748" y="66.802046"/>
      </g>
     </g>
     <g id="text_18">
      <!-- 1400 -->
      <g transform="translate(26.878125 70.601265)scale(0.1 -0.1)">
       <use xlink:href="#DejaVuSans-49"/>
       <use x="63.623047" xlink:href="#DejaVuSans-52"/>
       <use x="127.246094" xlink:href="#DejaVuSans-48"/>
       <use x="190.869141" xlink:href="#DejaVuSans-48"/>
      </g>
     </g>
    </g>
    <g id="ytick_9">
     <g id="line2d_18">
      <g>
       <use style="stroke:#000000;stroke-width:0.8;" x="59.328125" xlink:href="#m77e116f748" y="35.140892"/>
      </g>
     </g>
     <g id="text_19">
      <!-- 1600 -->
      <g transform="translate(26.878125 38.940111)scale(0.1 -0.1)">
       <use xlink:href="#DejaVuSans-49"/>
       <use x="63.623047" xlink:href="#DejaVuSans-54"/>
       <use x="127.246094" xlink:href="#DejaVuSans-48"/>
       <use x="190.869141" xlink:href="#DejaVuSans-48"/>
      </g>
     </g>
    </g>
    <g id="text_20">
     <!-- number of tested persons daily -->
     <g transform="translate(14.798438 233.635844)rotate(-90)scale(0.1 -0.1)">
      <defs>
       <path d="M 54.890625 33.015625 
L 54.890625 0 
L 45.90625 0 
L 45.90625 32.71875 
Q 45.90625 40.484375 42.875 44.328125 
Q 39.84375 48.1875 33.796875 48.1875 
Q 26.515625 48.1875 22.3125 43.546875 
Q 18.109375 38.921875 18.109375 30.90625 
L 18.109375 0 
L 9.078125 0 
L 9.078125 54.6875 
L 18.109375 54.6875 
L 18.109375 46.1875 
Q 21.34375 51.125 25.703125 53.5625 
Q 30.078125 56 35.796875 56 
Q 45.21875 56 50.046875 50.171875 
Q 54.890625 44.34375 54.890625 33.015625 
z
" id="DejaVuSans-110"/>
       <path d="M 8.5 21.578125 
L 8.5 54.6875 
L 17.484375 54.6875 
L 17.484375 21.921875 
Q 17.484375 14.15625 20.5 10.265625 
Q 23.53125 6.390625 29.59375 6.390625 
Q 36.859375 6.390625 41.078125 11.03125 
Q 45.3125 15.671875 45.3125 23.6875 
L 45.3125 54.6875 
L 54.296875 54.6875 
L 54.296875 0 
L 45.3125 0 
L 45.3125 8.40625 
Q 42.046875 3.421875 37.71875 1 
Q 33.40625 -1.421875 27.6875 -1.421875 
Q 18.265625 -1.421875 13.375 4.4375 
Q 8.5 10.296875 8.5 21.578125 
z
M 31.109375 56 
z
" id="DejaVuSans-117"/>
       <path d="M 52 44.1875 
Q 55.375 50.25 60.0625 53.125 
Q 64.75 56 71.09375 56 
Q 79.640625 56 84.28125 50.015625 
Q 88.921875 44.046875 88.921875 33.015625 
L 88.921875 0 
L 79.890625 0 
L 79.890625 32.71875 
Q 79.890625 40.578125 77.09375 44.375 
Q 74.3125 48.1875 68.609375 48.1875 
Q 61.625 48.1875 57.5625 43.546875 
Q 53.515625 38.921875 53.515625 30.90625 
L 53.515625 0 
L 44.484375 0 
L 44.484375 32.71875 
Q 44.484375 40.625 41.703125 44.40625 
Q 38.921875 48.1875 33.109375 48.1875 
Q 26.21875 48.1875 22.15625 43.53125 
Q 18.109375 38.875 18.109375 30.90625 
L 18.109375 0 
L 9.078125 0 
L 9.078125 54.6875 
L 18.109375 54.6875 
L 18.109375 46.1875 
Q 21.1875 51.21875 25.484375 53.609375 
Q 29.78125 56 35.6875 56 
Q 41.65625 56 45.828125 52.96875 
Q 50 49.953125 52 44.1875 
z
" id="DejaVuSans-109"/>
       <path d="M 48.6875 27.296875 
Q 48.6875 37.203125 44.609375 42.84375 
Q 40.53125 48.484375 33.40625 48.484375 
Q 26.265625 48.484375 22.1875 42.84375 
Q 18.109375 37.203125 18.109375 27.296875 
Q 18.109375 17.390625 22.1875 11.75 
Q 26.265625 6.109375 33.40625 6.109375 
Q 40.53125 6.109375 44.609375 11.75 
Q 48.6875 17.390625 48.6875 27.296875 
z
M 18.109375 46.390625 
Q 20.953125 51.265625 25.265625 53.625 
Q 29.59375 56 35.59375 56 
Q 45.5625 56 51.78125 48.09375 
Q 58.015625 40.1875 58.015625 27.296875 
Q 58.015625 14.40625 51.78125 6.484375 
Q 45.5625 -1.421875 35.59375 -1.421875 
Q 29.59375 -1.421875 25.265625 0.953125 
Q 20.953125 3.328125 18.109375 8.203125 
L 18.109375 0 
L 9.078125 0 
L 9.078125 75.984375 
L 18.109375 75.984375 
z
" id="DejaVuSans-98"/>
       <path d="M 41.109375 46.296875 
Q 39.59375 47.171875 37.8125 47.578125 
Q 36.03125 48 33.890625 48 
Q 26.265625 48 22.1875 43.046875 
Q 18.109375 38.09375 18.109375 28.8125 
L 18.109375 0 
L 9.078125 0 
L 9.078125 54.6875 
L 18.109375 54.6875 
L 18.109375 46.1875 
Q 20.953125 51.171875 25.484375 53.578125 
Q 30.03125 56 36.53125 56 
Q 37.453125 56 38.578125 55.875 
Q 39.703125 55.765625 41.0625 55.515625 
z
" id="DejaVuSans-114"/>
       <path id="DejaVuSans-32"/>
       <path d="M 30.609375 48.390625 
Q 23.390625 48.390625 19.1875 42.75 
Q 14.984375 37.109375 14.984375 27.296875 
Q 14.984375 17.484375 19.15625 11.84375 
Q 23.34375 6.203125 30.609375 6.203125 
Q 37.796875 6.203125 41.984375 11.859375 
Q 46.1875 17.53125 46.1875 27.296875 
Q 46.1875 37.015625 41.984375 42.703125 
Q 37.796875 48.390625 30.609375 48.390625 
z
M 30.609375 56 
Q 42.328125 56 49.015625 48.375 
Q 55.71875 40.765625 55.71875 27.296875 
Q 55.71875 13.875 49.015625 6.21875 
Q 42.328125 -1.421875 30.609375 -1.421875 
Q 18.84375 -1.421875 12.171875 6.21875 
Q 5.515625 13.875 5.515625 27.296875 
Q 5.515625 40.765625 12.171875 48.375 
Q 18.84375 56 30.609375 56 
z
" id="DejaVuSans-111"/>
       <path d="M 37.109375 75.984375 
L 37.109375 68.5 
L 28.515625 68.5 
Q 23.6875 68.5 21.796875 66.546875 
Q 19.921875 64.59375 19.921875 59.515625 
L 19.921875 54.6875 
L 34.71875 54.6875 
L 34.71875 47.703125 
L 19.921875 47.703125 
L 19.921875 0 
L 10.890625 0 
L 10.890625 47.703125 
L 2.296875 47.703125 
L 2.296875 54.6875 
L 10.890625 54.6875 
L 10.890625 58.5 
Q 10.890625 67.625 15.140625 71.796875 
Q 19.390625 75.984375 28.609375 75.984375 
z
" id="DejaVuSans-102"/>
       <path d="M 44.28125 53.078125 
L 44.28125 44.578125 
Q 40.484375 46.53125 36.375 47.5 
Q 32.28125 48.484375 27.875 48.484375 
Q 21.1875 48.484375 17.84375 46.4375 
Q 14.5 44.390625 14.5 40.28125 
Q 14.5 37.15625 16.890625 35.375 
Q 19.28125 33.59375 26.515625 31.984375 
L 29.59375 31.296875 
Q 39.15625 29.25 43.1875 25.515625 
Q 47.21875 21.78125 47.21875 15.09375 
Q 47.21875 7.46875 41.1875 3.015625 
Q 35.15625 -1.421875 24.609375 -1.421875 
Q 20.21875 -1.421875 15.453125 -0.5625 
Q 10.6875 0.296875 5.421875 2 
L 5.421875 11.28125 
Q 10.40625 8.6875 15.234375 7.390625 
Q 20.0625 6.109375 24.8125 6.109375 
Q 31.15625 6.109375 34.5625 8.28125 
Q 37.984375 10.453125 37.984375 14.40625 
Q 37.984375 18.0625 35.515625 20.015625 
Q 33.0625 21.96875 24.703125 23.78125 
L 21.578125 24.515625 
Q 13.234375 26.265625 9.515625 29.90625 
Q 5.8125 33.546875 5.8125 39.890625 
Q 5.8125 47.609375 11.28125 51.796875 
Q 16.75 56 26.8125 56 
Q 31.78125 56 36.171875 55.265625 
Q 40.578125 54.546875 44.28125 53.078125 
z
" id="DejaVuSans-115"/>
       <path d="M 18.109375 8.203125 
L 18.109375 -20.796875 
L 9.078125 -20.796875 
L 9.078125 54.6875 
L 18.109375 54.6875 
L 18.109375 46.390625 
Q 20.953125 51.265625 25.265625 53.625 
Q 29.59375 56 35.59375 56 
Q 45.5625 56 51.78125 48.09375 
Q 58.015625 40.1875 58.015625 27.296875 
Q 58.015625 14.40625 51.78125 6.484375 
Q 45.5625 -1.421875 35.59375 -1.421875 
Q 29.59375 -1.421875 25.265625 0.953125 
Q 20.953125 3.328125 18.109375 8.203125 
z
M 48.6875 27.296875 
Q 48.6875 37.203125 44.609375 42.84375 
Q 40.53125 48.484375 33.40625 48.484375 
Q 26.265625 48.484375 22.1875 42.84375 
Q 18.109375 37.203125 18.109375 27.296875 
Q 18.109375 17.390625 22.1875 11.75 
Q 26.265625 6.109375 33.40625 6.109375 
Q 40.53125 6.109375 44.609375 11.75 
Q 48.6875 17.390625 48.6875 27.296875 
z
" id="DejaVuSans-112"/>
       <path d="M 9.421875 54.6875 
L 18.40625 54.6875 
L 18.40625 0 
L 9.421875 0 
z
M 9.421875 75.984375 
L 18.40625 75.984375 
L 18.40625 64.59375 
L 9.421875 64.59375 
z
" id="DejaVuSans-105"/>
       <path d="M 9.421875 75.984375 
L 18.40625 75.984375 
L 18.40625 0 
L 9.421875 0 
z
" id="DejaVuSans-108"/>
       <path d="M 32.171875 -5.078125 
Q 28.375 -14.84375 24.75 -17.8125 
Q 21.140625 -20.796875 15.09375 -20.796875 
L 7.90625 -20.796875 
L 7.90625 -13.28125 
L 13.1875 -13.28125 
Q 16.890625 -13.28125 18.9375 -11.515625 
Q 21 -9.765625 23.484375 -3.21875 
L 25.09375 0.875 
L 2.984375 54.6875 
L 12.5 54.6875 
L 29.59375 11.921875 
L 46.6875 54.6875 
L 56.203125 54.6875 
z
" id="DejaVuSans-121"/>
      </defs>
      <use xlink:href="#DejaVuSans-110"/>
      <use x="63.378906" xlink:href="#DejaVuSans-117"/>
      <use x="126.757812" xlink:href="#DejaVuSans-109"/>
      <use x="224.169922" xlink:href="#DejaVuSans-98"/>
      <use x="287.646484" xlink:href="#DejaVuSans-101"/>
      <use x="349.169922" xlink:href="#DejaVuSans-114"/>
      <use x="390.283203" xlink:href="#DejaVuSans-32"/>
      <use x="422.070312" xlink:href="#DejaVuSans-111"/>
      <use x="483.251953" xlink:href="#DejaVuSans-102"/>
      <use x="518.457031" xlink:href="#DejaVuSans-32"/>
      <use x="550.244141" xlink:href="#DejaVuSans-116"/>
      <use x="589.453125" xlink:href="#DejaVuSans-101"/>
      <use x="650.976562" xlink:href="#DejaVuSans-115"/>
      <use x="703.076172" xlink:href="#DejaVuSans-116"/>
      <use x="742.285156" xlink:href="#DejaVuSans-101"/>
      <use x="803.808594" xlink:href="#DejaVuSans-100"/>
      <use x="867.285156" xlink:href="#DejaVuSans-32"/>
      <use x="899.072266" xlink:href="#DejaVuSans-112"/>
      <use x="962.548828" xlink:href="#DejaVuSans-101"/>
      <use x="1024.072266" xlink:href="#DejaVuSans-114"/>
      <use x="1065.185547" xlink:href="#DejaVuSans-115"/>
      <use x="1117.285156" xlink:href="#DejaVuSans-111"/>
      <use x="1178.466797" xlink:href="#DejaVuSans-110"/>
      <use x="1241.845703" xlink:href="#DejaVuSans-115"/>
      <use x="1293.945312" xlink:href="#DejaVuSans-32"/>
      <use x="1325.732422" xlink:href="#DejaVuSans-100"/>
      <use x="1389.208984" xlink:href="#DejaVuSans-97"/>
      <use x="1450.488281" xlink:href="#DejaVuSans-105"/>
      <use x="1478.271484" xlink:href="#DejaVuSans-108"/>
      <use x="1506.054688" xlink:href="#DejaVuSans-121"/>
     </g>
    </g>
   </g>
   <g id="patch_283">
    <path d="M 59.328125 288.430125 
L 59.328125 22.318125 
" style="fill:none;stroke:#000000;stroke-linecap:square;stroke-linejoin:miter;stroke-width:0.8;"/>
   </g>
   <g id="patch_284">
    <path d="M 59.328125 288.430125 
L 416.448125 288.430125 
" style="fill:none;stroke:#000000;stroke-linecap:square;stroke-linejoin:miter;stroke-width:0.8;"/>
   </g>
   <g id="text_21">
    <!-- South Tyrol -->
    <g transform="translate(204.595625 16.318125)scale(0.12 -0.12)">
     <defs>
      <path d="M 53.515625 70.515625 
L 53.515625 60.890625 
Q 47.90625 63.578125 42.921875 64.890625 
Q 37.9375 66.21875 33.296875 66.21875 
Q 25.25 66.21875 20.875 63.09375 
Q 16.5 59.96875 16.5 54.203125 
Q 16.5 49.359375 19.40625 46.890625 
Q 22.3125 44.4375 30.421875 42.921875 
L 36.375 41.703125 
Q 47.40625 39.59375 52.65625 34.296875 
Q 57.90625 29 57.90625 20.125 
Q 57.90625 9.515625 50.796875 4.046875 
Q 43.703125 -1.421875 29.984375 -1.421875 
Q 24.8125 -1.421875 18.96875 -0.25 
Q 13.140625 0.921875 6.890625 3.21875 
L 6.890625 13.375 
Q 12.890625 10.015625 18.65625 8.296875 
Q 24.421875 6.59375 29.984375 6.59375 
Q 38.421875 6.59375 43.015625 9.90625 
Q 47.609375 13.234375 47.609375 19.390625 
Q 47.609375 24.75 44.3125 27.78125 
Q 41.015625 30.8125 33.5 32.328125 
L 27.484375 33.5 
Q 16.453125 35.6875 11.515625 40.375 
Q 6.59375 45.0625 6.59375 53.421875 
Q 6.59375 63.09375 13.40625 68.65625 
Q 20.21875 74.21875 32.171875 74.21875 
Q 37.3125 74.21875 42.625 73.28125 
Q 47.953125 72.359375 53.515625 70.515625 
z
" id="DejaVuSans-83"/>
      <path d="M 54.890625 33.015625 
L 54.890625 0 
L 45.90625 0 
L 45.90625 32.71875 
Q 45.90625 40.484375 42.875 44.328125 
Q 39.84375 48.1875 33.796875 48.1875 
Q 26.515625 48.1875 22.3125 43.546875 
Q 18.109375 38.921875 18.109375 30.90625 
L 18.109375 0 
L 9.078125 0 
L 9.078125 75.984375 
L 18.109375 75.984375 
L 18.109375 46.1875 
Q 21.34375 51.125 25.703125 53.5625 
Q 30.078125 56 35.796875 56 
Q 45.21875 56 50.046875 50.171875 
Q 54.890625 44.34375 54.890625 33.015625 
z
" id="DejaVuSans-104"/>
      <path d="M -0.296875 72.90625 
L 61.375 72.90625 
L 61.375 64.59375 
L 35.5 64.59375 
L 35.5 0 
L 25.59375 0 
L 25.59375 64.59375 
L -0.296875 64.59375 
z
" id="DejaVuSans-84"/>
     </defs>
     <use xlink:href="#DejaVuSans-83"/>
     <use x="63.476562" xlink:href="#DejaVuSans-111"/>
     <use x="124.658203" xlink:href="#DejaVuSans-117"/>
     <use x="188.037109" xlink:href="#DejaVuSans-116"/>
     <use x="227.246094" xlink:href="#DejaVuSans-104"/>
     <use x="290.625" xlink:href="#DejaVuSans-32"/>
     <use x="322.412109" xlink:href="#DejaVuSans-84"/>
     <use x="367.871094" xlink:href="#DejaVuSans-121"/>
     <use x="427.050781" xlink:href="#DejaVuSans-114"/>
     <use x="465.914062" xlink:href="#DejaVuSans-111"/>
     <use x="527.095703" xlink:href="#DejaVuSans-108"/>
    </g>
   </g>
  </g>
 </g>
 <defs>
  <clipPath id="pec005d83ff">
   <rect height="266.112" width="357.12" x="59.328125" y="22.318125"/>
  </clipPath>
 </defs>
</svg>
