<?xml version="1.0" encoding="utf-8" standalone="no"?>
<!DOCTYPE svg PUBLIC "-//W3C//DTD SVG 1.1//EN"
  "http://www.w3.org/Graphics/SVG/1.1/DTD/svg11.dtd">
<!-- Created with matplotlib (https://matplotlib.org/) -->
<svg height="364.091062pt" version="1.1" viewBox="0 0 423.648125 364.091062" width="423.648125pt" xmlns="http://www.w3.org/2000/svg" xmlns:xlink="http://www.w3.org/1999/xlink">
 <metadata>
  <rdf:RDF xmlns:cc="http://creativecommons.org/ns#" xmlns:dc="http://purl.org/dc/elements/1.1/" xmlns:rdf="http://www.w3.org/1999/02/22-rdf-syntax-ns#">
   <cc:Work>
    <dc:type rdf:resource="http://purl.org/dc/dcmitype/StillImage"/>
    <dc:date>2020-12-25T14:27:34.491074</dc:date>
    <dc:format>image/svg+xml</dc:format>
    <dc:creator>
     <cc:Agent>
      <dc:title>Matplotlib v3.3.3, https://matplotlib.org/</dc:title>
     </cc:Agent>
    </dc:creator>
   </cc:Work>
  </rdf:RDF>
 </metadata>
 <defs>
  <style type="text/css">*{stroke-linecap:butt;stroke-linejoin:round;}</style>
 </defs>
 <g id="figure_1">
  <g id="patch_1">
   <path d="M 0 364.091062 
L 423.648125 364.091062 
L 423.648125 0 
L 0 0 
z
" style="fill:#ffffff;"/>
  </g>
  <g id="axes_1">
   <g id="patch_2">
    <path d="M 59.328125 288.430125 
L 416.448125 288.430125 
L 416.448125 22.318125 
L 59.328125 22.318125 
z
" style="fill:#ffffff;"/>
   </g>
   <g id="patch_3">
    <path clip-path="url(#p1009e1459c)" d="M 59.452992 288.430125 
L 60.451929 288.430125 
L 60.451929 116.351753 
L 59.452992 116.351753 
z
" style="fill:#1f77b4;"/>
   </g>
   <g id="patch_4">
    <path clip-path="url(#p1009e1459c)" d="M 60.701663 288.430125 
L 61.700601 288.430125 
L 61.700601 262.78459 
L 60.701663 262.78459 
z
" style="fill:#1f77b4;"/>
   </g>
   <g id="patch_5">
    <path clip-path="url(#p1009e1459c)" d="M 61.950335 288.430125 
L 62.949272 288.430125 
L 62.949272 244.896038 
L 61.950335 244.896038 
z
" style="fill:#1f77b4;"/>
   </g>
   <g id="patch_6">
    <path clip-path="url(#p1009e1459c)" d="M 63.199006 288.430125 
L 64.197943 288.430125 
L 64.197943 213.868107 
L 63.199006 213.868107 
z
" style="fill:#1f77b4;"/>
   </g>
   <g id="patch_7">
    <path clip-path="url(#p1009e1459c)" d="M 64.447677 288.430125 
L 65.446615 288.430125 
L 65.446615 207.852488 
L 64.447677 207.852488 
z
" style="fill:#1f77b4;"/>
   </g>
   <g id="patch_8">
    <path clip-path="url(#p1009e1459c)" d="M 65.696349 288.430125 
L 66.695286 288.430125 
L 66.695286 195.02972 
L 65.696349 195.02972 
z
" style="fill:#1f77b4;"/>
   </g>
   <g id="patch_9">
    <path clip-path="url(#p1009e1459c)" d="M 66.94502 288.430125 
L 67.943957 288.430125 
L 67.943957 223.999676 
L 66.94502 223.999676 
z
" style="fill:#1f77b4;"/>
   </g>
   <g id="patch_10">
    <path clip-path="url(#p1009e1459c)" d="M 68.193691 288.430125 
L 69.192628 288.430125 
L 69.192628 244.737732 
L 68.193691 244.737732 
z
" style="fill:#1f77b4;"/>
   </g>
   <g id="patch_11">
    <path clip-path="url(#p1009e1459c)" d="M 69.442363 288.430125 
L 70.4413 288.430125 
L 70.4413 251.861492 
L 69.442363 251.861492 
z
" style="fill:#1f77b4;"/>
   </g>
   <g id="patch_12">
    <path clip-path="url(#p1009e1459c)" d="M 70.691034 288.430125 
L 71.689971 288.430125 
L 71.689971 243.471286 
L 70.691034 243.471286 
z
" style="fill:#1f77b4;"/>
   </g>
   <g id="patch_13">
    <path clip-path="url(#p1009e1459c)" d="M 71.939705 288.430125 
L 72.938642 288.430125 
L 72.938642 254.394384 
L 71.939705 254.394384 
z
" style="fill:#1f77b4;"/>
   </g>
   <g id="patch_14">
    <path clip-path="url(#p1009e1459c)" d="M 73.188377 288.430125 
L 74.187314 288.430125 
L 74.187314 227.957321 
L 73.188377 227.957321 
z
" style="fill:#1f77b4;"/>
   </g>
   <g id="patch_15">
    <path clip-path="url(#p1009e1459c)" d="M 74.437048 288.430125 
L 75.435985 288.430125 
L 75.435985 236.822444 
L 74.437048 236.822444 
z
" style="fill:#1f77b4;"/>
   </g>
   <g id="patch_16">
    <path clip-path="url(#p1009e1459c)" d="M 75.685719 288.430125 
L 76.684656 288.430125 
L 76.684656 241.888229 
L 75.685719 241.888229 
z
" style="fill:#1f77b4;"/>
   </g>
   <g id="patch_17">
    <path clip-path="url(#p1009e1459c)" d="M 76.934391 288.430125 
L 77.933328 288.430125 
L 77.933328 211.651826 
L 76.934391 211.651826 
z
" style="fill:#1f77b4;"/>
   </g>
   <g id="patch_18">
    <path clip-path="url(#p1009e1459c)" d="M 78.183062 288.430125 
L 79.181999 288.430125 
L 79.181999 247.270625 
L 78.183062 247.270625 
z
" style="fill:#1f77b4;"/>
   </g>
   <g id="patch_19">
    <path clip-path="url(#p1009e1459c)" d="M 79.431733 288.430125 
L 80.43067 288.430125 
L 80.43067 244.737732 
L 79.431733 244.737732 
z
" style="fill:#1f77b4;"/>
   </g>
   <g id="patch_20">
    <path clip-path="url(#p1009e1459c)" d="M 80.680405 288.430125 
L 81.679342 288.430125 
L 81.679342 243.787898 
L 80.680405 243.787898 
z
" style="fill:#1f77b4;"/>
   </g>
   <g id="patch_21">
    <path clip-path="url(#p1009e1459c)" d="M 81.929076 288.430125 
L 82.928013 288.430125 
L 82.928013 245.687567 
L 81.929076 245.687567 
z
" style="fill:#1f77b4;"/>
   </g>
   <g id="patch_22">
    <path clip-path="url(#p1009e1459c)" d="M 83.177747 288.430125 
L 84.176684 288.430125 
L 84.176684 215.767776 
L 83.177747 215.767776 
z
" style="fill:#1f77b4;"/>
   </g>
   <g id="patch_23">
    <path clip-path="url(#p1009e1459c)" d="M 84.426419 288.430125 
L 85.425356 288.430125 
L 85.425356 209.435546 
L 84.426419 209.435546 
z
" style="fill:#1f77b4;"/>
   </g>
   <g id="patch_24">
    <path clip-path="url(#p1009e1459c)" d="M 85.67509 288.430125 
L 86.674027 288.430125 
L 86.674027 241.255005 
L 85.67509 241.255005 
z
" style="fill:#1f77b4;"/>
   </g>
   <g id="patch_25">
    <path clip-path="url(#p1009e1459c)" d="M 86.923761 288.430125 
L 87.922698 288.430125 
L 87.922698 212.285049 
L 86.923761 212.285049 
z
" style="fill:#1f77b4;"/>
   </g>
   <g id="patch_26">
    <path clip-path="url(#p1009e1459c)" d="M 88.172433 288.430125 
L 89.17137 288.430125 
L 89.17137 211.968438 
L 88.172433 211.968438 
z
" style="fill:#1f77b4;"/>
   </g>
   <g id="patch_27">
    <path clip-path="url(#p1009e1459c)" d="M 89.421104 288.430125 
L 90.420041 288.430125 
L 90.420041 217.192528 
L 89.421104 217.192528 
z
" style="fill:#1f77b4;"/>
   </g>
   <g id="patch_28">
    <path clip-path="url(#p1009e1459c)" d="M 90.669775 288.430125 
L 91.668712 288.430125 
L 91.668712 202.628397 
L 90.669775 202.628397 
z
" style="fill:#1f77b4;"/>
   </g>
   <g id="patch_29">
    <path clip-path="url(#p1009e1459c)" d="M 91.918447 288.430125 
L 92.917384 288.430125 
L 92.917384 222.258313 
L 91.918447 222.258313 
z
" style="fill:#1f77b4;"/>
   </g>
   <g id="patch_30">
    <path clip-path="url(#p1009e1459c)" d="M 93.167118 288.430125 
L 94.166055 288.430125 
L 94.166055 200.887034 
L 93.167118 200.887034 
z
" style="fill:#1f77b4;"/>
   </g>
   <g id="patch_31">
    <path clip-path="url(#p1009e1459c)" d="M 94.415789 288.430125 
L 95.414726 288.430125 
L 95.414726 223.208148 
L 94.415789 223.208148 
z
" style="fill:#1f77b4;"/>
   </g>
   <g id="patch_32">
    <path clip-path="url(#p1009e1459c)" d="M 95.664461 288.430125 
L 96.663398 288.430125 
L 96.663398 230.331907 
L 95.664461 230.331907 
z
" style="fill:#1f77b4;"/>
   </g>
   <g id="patch_33">
    <path clip-path="url(#p1009e1459c)" d="M 96.913132 288.430125 
L 97.912069 288.430125 
L 97.912069 264.684259 
L 96.913132 264.684259 
z
" style="fill:#1f77b4;"/>
   </g>
   <g id="patch_34">
    <path clip-path="url(#p1009e1459c)" d="M 98.161803 288.430125 
L 99.16074 288.430125 
L 99.16074 231.914965 
L 98.161803 231.914965 
z
" style="fill:#1f77b4;"/>
   </g>
   <g id="patch_35">
    <path clip-path="url(#p1009e1459c)" d="M 99.410475 288.430125 
L 100.409412 288.430125 
L 100.409412 223.366453 
L 99.410475 223.366453 
z
" style="fill:#1f77b4;"/>
   </g>
   <g id="patch_36">
    <path clip-path="url(#p1009e1459c)" d="M 100.659146 288.430125 
L 101.658083 288.430125 
L 101.658083 200.887034 
L 100.659146 200.887034 
z
" style="fill:#1f77b4;"/>
   </g>
   <g id="patch_37">
    <path clip-path="url(#p1009e1459c)" d="M 101.907817 288.430125 
L 102.906754 288.430125 
L 102.906754 215.292859 
L 101.907817 215.292859 
z
" style="fill:#1f77b4;"/>
   </g>
   <g id="patch_38">
    <path clip-path="url(#p1009e1459c)" d="M 103.156489 288.430125 
L 104.155426 288.430125 
L 104.155426 160.835674 
L 103.156489 160.835674 
z
" style="fill:#1f77b4;"/>
   </g>
   <g id="patch_39">
    <path clip-path="url(#p1009e1459c)" d="M 104.40516 288.430125 
L 105.404097 288.430125 
L 105.404097 239.988559 
L 104.40516 239.988559 
z
" style="fill:#1f77b4;"/>
   </g>
   <g id="patch_40">
    <path clip-path="url(#p1009e1459c)" d="M 105.653831 288.430125 
L 106.652768 288.430125 
L 106.652768 238.405502 
L 105.653831 238.405502 
z
" style="fill:#1f77b4;"/>
   </g>
   <g id="patch_41">
    <path clip-path="url(#p1009e1459c)" d="M 106.902503 288.430125 
L 107.90144 288.430125 
L 107.90144 236.030915 
L 106.902503 236.030915 
z
" style="fill:#1f77b4;"/>
   </g>
   <g id="patch_42">
    <path clip-path="url(#p1009e1459c)" d="M 108.151174 288.430125 
L 109.150111 288.430125 
L 109.150111 176.666251 
L 108.151174 176.666251 
z
" style="fill:#1f77b4;"/>
   </g>
   <g id="patch_43">
    <path clip-path="url(#p1009e1459c)" d="M 109.399845 288.430125 
L 110.398782 288.430125 
L 110.398782 196.296167 
L 109.399845 196.296167 
z
" style="fill:#1f77b4;"/>
   </g>
   <g id="patch_44">
    <path clip-path="url(#p1009e1459c)" d="M 110.648517 288.430125 
L 111.647454 288.430125 
L 111.647454 201.520257 
L 110.648517 201.520257 
z
" style="fill:#1f77b4;"/>
   </g>
   <g id="patch_45">
    <path clip-path="url(#p1009e1459c)" d="M 111.897188 288.430125 
L 112.896125 288.430125 
L 112.896125 237.455667 
L 111.897188 237.455667 
z
" style="fill:#1f77b4;"/>
   </g>
   <g id="patch_46">
    <path clip-path="url(#p1009e1459c)" d="M 113.145859 288.430125 
L 114.144796 288.430125 
L 114.144796 204.844678 
L 113.145859 204.844678 
z
" style="fill:#1f77b4;"/>
   </g>
   <g id="patch_47">
    <path clip-path="url(#p1009e1459c)" d="M 114.394531 288.430125 
L 115.393468 288.430125 
L 115.393468 265.634094 
L 114.394531 265.634094 
z
" style="fill:#1f77b4;"/>
   </g>
   <g id="patch_48">
    <path clip-path="url(#p1009e1459c)" d="M 115.643202 288.430125 
L 116.642139 288.430125 
L 116.642139 244.579427 
L 115.643202 244.579427 
z
" style="fill:#1f77b4;"/>
   </g>
   <g id="patch_49">
    <path clip-path="url(#p1009e1459c)" d="M 116.891873 288.430125 
L 117.89081 288.430125 
L 117.89081 235.555998 
L 116.891873 235.555998 
z
" style="fill:#1f77b4;"/>
   </g>
   <g id="patch_50">
    <path clip-path="url(#p1009e1459c)" d="M 118.140545 288.430125 
L 119.139482 288.430125 
L 119.139482 205.002984 
L 118.140545 205.002984 
z
" style="fill:#1f77b4;"/>
   </g>
   <g id="patch_51">
    <path clip-path="url(#p1009e1459c)" d="M 119.389216 288.430125 
L 120.388153 288.430125 
L 120.388153 236.030915 
L 119.389216 236.030915 
z
" style="fill:#1f77b4;"/>
   </g>
   <g id="patch_52">
    <path clip-path="url(#p1009e1459c)" d="M 120.637887 288.430125 
L 121.636824 288.430125 
L 121.636824 267.850375 
L 120.637887 267.850375 
z
" style="fill:#1f77b4;"/>
   </g>
   <g id="patch_53">
    <path clip-path="url(#p1009e1459c)" d="M 121.886559 288.430125 
L 122.885496 288.430125 
L 122.885496 261.993061 
L 121.886559 261.993061 
z
" style="fill:#1f77b4;"/>
   </g>
   <g id="patch_54">
    <path clip-path="url(#p1009e1459c)" d="M 123.13523 288.430125 
L 124.134167 288.430125 
L 124.134167 252.336409 
L 123.13523 252.336409 
z
" style="fill:#1f77b4;"/>
   </g>
   <g id="patch_55">
    <path clip-path="url(#p1009e1459c)" d="M 124.383901 288.430125 
L 125.382838 288.430125 
L 125.382838 239.19703 
L 124.383901 239.19703 
z
" style="fill:#1f77b4;"/>
   </g>
   <g id="patch_56">
    <path clip-path="url(#p1009e1459c)" d="M 125.632573 288.430125 
L 126.63151 288.430125 
L 126.63151 223.208148 
L 125.632573 223.208148 
z
" style="fill:#1f77b4;"/>
   </g>
   <g id="patch_57">
    <path clip-path="url(#p1009e1459c)" d="M 126.881244 288.430125 
L 127.880181 288.430125 
L 127.880181 242.838063 
L 126.881244 242.838063 
z
" style="fill:#1f77b4;"/>
   </g>
   <g id="patch_58">
    <path clip-path="url(#p1009e1459c)" d="M 128.129915 288.430125 
L 129.128852 288.430125 
L 129.128852 225.582734 
L 128.129915 225.582734 
z
" style="fill:#1f77b4;"/>
   </g>
   <g id="patch_59">
    <path clip-path="url(#p1009e1459c)" d="M 129.378587 288.430125 
L 130.377524 288.430125 
L 130.377524 241.571617 
L 129.378587 241.571617 
z
" style="fill:#1f77b4;"/>
   </g>
   <g id="patch_60">
    <path clip-path="url(#p1009e1459c)" d="M 130.627258 288.430125 
L 131.626195 288.430125 
L 131.626195 251.228269 
L 130.627258 251.228269 
z
" style="fill:#1f77b4;"/>
   </g>
   <g id="patch_61">
    <path clip-path="url(#p1009e1459c)" d="M 131.875929 288.430125 
L 132.874866 288.430125 
L 132.874866 251.861492 
L 131.875929 251.861492 
z
" style="fill:#1f77b4;"/>
   </g>
   <g id="patch_62">
    <path clip-path="url(#p1009e1459c)" d="M 133.124601 288.430125 
L 134.123538 288.430125 
L 134.123538 226.84918 
L 133.124601 226.84918 
z
" style="fill:#1f77b4;"/>
   </g>
   <g id="patch_63">
    <path clip-path="url(#p1009e1459c)" d="M 134.373272 288.430125 
L 135.372209 288.430125 
L 135.372209 230.331907 
L 134.373272 230.331907 
z
" style="fill:#1f77b4;"/>
   </g>
   <g id="patch_64">
    <path clip-path="url(#p1009e1459c)" d="M 135.621943 288.430125 
L 136.62088 288.430125 
L 136.62088 212.126744 
L 135.621943 212.126744 
z
" style="fill:#1f77b4;"/>
   </g>
   <g id="patch_65">
    <path clip-path="url(#p1009e1459c)" d="M 136.870615 288.430125 
L 137.869552 288.430125 
L 137.869552 233.498023 
L 136.870615 233.498023 
z
" style="fill:#1f77b4;"/>
   </g>
   <g id="patch_66">
    <path clip-path="url(#p1009e1459c)" d="M 138.119286 288.430125 
L 139.118223 288.430125 
L 139.118223 231.281742 
L 138.119286 231.281742 
z
" style="fill:#1f77b4;"/>
   </g>
   <g id="patch_67">
    <path clip-path="url(#p1009e1459c)" d="M 139.367957 288.430125 
L 140.366894 288.430125 
L 140.366894 248.378765 
L 139.367957 248.378765 
z
" style="fill:#1f77b4;"/>
   </g>
   <g id="patch_68">
    <path clip-path="url(#p1009e1459c)" d="M 140.616628 288.430125 
L 141.615566 288.430125 
L 141.615566 235.714303 
L 140.616628 235.714303 
z
" style="fill:#1f77b4;"/>
   </g>
   <g id="patch_69">
    <path clip-path="url(#p1009e1459c)" d="M 141.8653 288.430125 
L 142.864237 288.430125 
L 142.864237 234.922775 
L 141.8653 234.922775 
z
" style="fill:#1f77b4;"/>
   </g>
   <g id="patch_70">
    <path clip-path="url(#p1009e1459c)" d="M 143.113971 288.430125 
L 144.112908 288.430125 
L 144.112908 225.424428 
L 143.113971 225.424428 
z
" style="fill:#1f77b4;"/>
   </g>
   <g id="patch_71">
    <path clip-path="url(#p1009e1459c)" d="M 144.362642 288.430125 
L 145.36158 288.430125 
L 145.36158 195.662944 
L 144.362642 195.662944 
z
" style="fill:#1f77b4;"/>
   </g>
   <g id="patch_72">
    <path clip-path="url(#p1009e1459c)" d="M 145.611314 288.430125 
L 146.610251 288.430125 
L 146.610251 135.823362 
L 145.611314 135.823362 
z
" style="fill:#1f77b4;"/>
   </g>
   <g id="patch_73">
    <path clip-path="url(#p1009e1459c)" d="M 146.859985 288.430125 
L 147.858922 288.430125 
L 147.858922 226.84918 
L 146.859985 226.84918 
z
" style="fill:#1f77b4;"/>
   </g>
   <g id="patch_74">
    <path clip-path="url(#p1009e1459c)" d="M 148.108656 288.430125 
L 149.107594 288.430125 
L 149.107594 248.695377 
L 148.108656 248.695377 
z
" style="fill:#1f77b4;"/>
   </g>
   <g id="patch_75">
    <path clip-path="url(#p1009e1459c)" d="M 149.357328 288.430125 
L 150.356265 288.430125 
L 150.356265 254.869302 
L 149.357328 254.869302 
z
" style="fill:#1f77b4;"/>
   </g>
   <g id="patch_76">
    <path clip-path="url(#p1009e1459c)" d="M 150.605999 288.430125 
L 151.604936 288.430125 
L 151.604936 223.841371 
L 150.605999 223.841371 
z
" style="fill:#1f77b4;"/>
   </g>
   <g id="patch_77">
    <path clip-path="url(#p1009e1459c)" d="M 151.85467 288.430125 
L 152.853608 288.430125 
L 152.853608 218.458974 
L 151.85467 218.458974 
z
" style="fill:#1f77b4;"/>
   </g>
   <g id="patch_78">
    <path clip-path="url(#p1009e1459c)" d="M 153.103342 288.430125 
L 154.102279 288.430125 
L 154.102279 220.51695 
L 153.103342 220.51695 
z
" style="fill:#1f77b4;"/>
   </g>
   <g id="patch_79">
    <path clip-path="url(#p1009e1459c)" d="M 154.352013 288.430125 
L 155.35095 288.430125 
L 155.35095 189.014101 
L 154.352013 189.014101 
z
" style="fill:#1f77b4;"/>
   </g>
   <g id="patch_80">
    <path clip-path="url(#p1009e1459c)" d="M 155.600684 288.430125 
L 156.599622 288.430125 
L 156.599622 212.126744 
L 155.600684 212.126744 
z
" style="fill:#1f77b4;"/>
   </g>
   <g id="patch_81">
    <path clip-path="url(#p1009e1459c)" d="M 156.849356 288.430125 
L 157.848293 288.430125 
L 157.848293 214.976248 
L 156.849356 214.976248 
z
" style="fill:#1f77b4;"/>
   </g>
   <g id="patch_82">
    <path clip-path="url(#p1009e1459c)" d="M 158.098027 288.430125 
L 159.096964 288.430125 
L 159.096964 232.073271 
L 158.098027 232.073271 
z
" style="fill:#1f77b4;"/>
   </g>
   <g id="patch_83">
    <path clip-path="url(#p1009e1459c)" d="M 159.346698 288.430125 
L 160.345635 288.430125 
L 160.345635 258.352029 
L 159.346698 258.352029 
z
" style="fill:#1f77b4;"/>
   </g>
   <g id="patch_84">
    <path clip-path="url(#p1009e1459c)" d="M 160.59537 288.430125 
L 161.594307 288.430125 
L 161.594307 235.397692 
L 160.59537 235.397692 
z
" style="fill:#1f77b4;"/>
   </g>
   <g id="patch_85">
    <path clip-path="url(#p1009e1459c)" d="M 161.844041 288.430125 
L 162.842978 288.430125 
L 162.842978 204.528067 
L 161.844041 204.528067 
z
" style="fill:#1f77b4;"/>
   </g>
   <g id="patch_86">
    <path clip-path="url(#p1009e1459c)" d="M 163.092712 288.430125 
L 164.091649 288.430125 
L 164.091649 189.330713 
L 163.092712 189.330713 
z
" style="fill:#1f77b4;"/>
   </g>
   <g id="patch_87">
    <path clip-path="url(#p1009e1459c)" d="M 164.341384 288.430125 
L 165.340321 288.430125 
L 165.340321 185.056457 
L 164.341384 185.056457 
z
" style="fill:#1f77b4;"/>
   </g>
   <g id="patch_88">
    <path clip-path="url(#p1009e1459c)" d="M 165.590055 288.430125 
L 166.588992 288.430125 
L 166.588992 230.96513 
L 165.590055 230.96513 
z
" style="fill:#1f77b4;"/>
   </g>
   <g id="patch_89">
    <path clip-path="url(#p1009e1459c)" d="M 166.838726 288.430125 
L 167.837663 288.430125 
L 167.837663 240.938394 
L 166.838726 240.938394 
z
" style="fill:#1f77b4;"/>
   </g>
   <g id="patch_90">
    <path clip-path="url(#p1009e1459c)" d="M 168.087398 288.430125 
L 169.086335 288.430125 
L 169.086335 202.786703 
L 168.087398 202.786703 
z
" style="fill:#1f77b4;"/>
   </g>
   <g id="patch_91">
    <path clip-path="url(#p1009e1459c)" d="M 169.336069 288.430125 
L 170.335006 288.430125 
L 170.335006 224.316288 
L 169.336069 224.316288 
z
" style="fill:#1f77b4;"/>
   </g>
   <g id="patch_92">
    <path clip-path="url(#p1009e1459c)" d="M 170.58474 288.430125 
L 171.583677 288.430125 
L 171.583677 221.783396 
L 170.58474 221.783396 
z
" style="fill:#1f77b4;"/>
   </g>
   <g id="patch_93">
    <path clip-path="url(#p1009e1459c)" d="M 171.833412 288.430125 
L 172.832349 288.430125 
L 172.832349 222.100007 
L 171.833412 222.100007 
z
" style="fill:#1f77b4;"/>
   </g>
   <g id="patch_94">
    <path clip-path="url(#p1009e1459c)" d="M 173.082083 288.430125 
L 174.08102 288.430125 
L 174.08102 254.55269 
L 173.082083 254.55269 
z
" style="fill:#1f77b4;"/>
   </g>
   <g id="patch_95">
    <path clip-path="url(#p1009e1459c)" d="M 174.330754 288.430125 
L 175.329691 288.430125 
L 175.329691 274.0243 
L 174.330754 274.0243 
z
" style="fill:#1f77b4;"/>
   </g>
   <g id="patch_96">
    <path clip-path="url(#p1009e1459c)" d="M 175.579426 288.430125 
L 176.578363 288.430125 
L 176.578363 251.544881 
L 175.579426 251.544881 
z
" style="fill:#1f77b4;"/>
   </g>
   <g id="patch_97">
    <path clip-path="url(#p1009e1459c)" d="M 176.828097 288.430125 
L 177.827034 288.430125 
L 177.827034 244.262815 
L 176.828097 244.262815 
z
" style="fill:#1f77b4;"/>
   </g>
   <g id="patch_98">
    <path clip-path="url(#p1009e1459c)" d="M 178.076768 288.430125 
L 179.075705 288.430125 
L 179.075705 232.548188 
L 178.076768 232.548188 
z
" style="fill:#1f77b4;"/>
   </g>
   <g id="patch_99">
    <path clip-path="url(#p1009e1459c)" d="M 179.32544 288.430125 
L 180.324377 288.430125 
L 180.324377 241.729923 
L 179.32544 241.729923 
z
" style="fill:#1f77b4;"/>
   </g>
   <g id="patch_100">
    <path clip-path="url(#p1009e1459c)" d="M 180.574111 288.430125 
L 181.573048 288.430125 
L 181.573048 222.258313 
L 180.574111 222.258313 
z
" style="fill:#1f77b4;"/>
   </g>
   <g id="patch_101">
    <path clip-path="url(#p1009e1459c)" d="M 181.822782 288.430125 
L 182.821719 288.430125 
L 182.821719 249.961823 
L 181.822782 249.961823 
z
" style="fill:#1f77b4;"/>
   </g>
   <g id="patch_102">
    <path clip-path="url(#p1009e1459c)" d="M 183.071454 288.430125 
L 184.070391 288.430125 
L 184.070391 269.90835 
L 183.071454 269.90835 
z
" style="fill:#1f77b4;"/>
   </g>
   <g id="patch_103">
    <path clip-path="url(#p1009e1459c)" d="M 184.320125 288.430125 
L 185.319062 288.430125 
L 185.319062 238.880419 
L 184.320125 238.880419 
z
" style="fill:#1f77b4;"/>
   </g>
   <g id="patch_104">
    <path clip-path="url(#p1009e1459c)" d="M 185.568796 288.430125 
L 186.567733 288.430125 
L 186.567733 242.20484 
L 185.568796 242.20484 
z
" style="fill:#1f77b4;"/>
   </g>
   <g id="patch_105">
    <path clip-path="url(#p1009e1459c)" d="M 186.817468 288.430125 
L 187.816405 288.430125 
L 187.816405 231.440048 
L 186.817468 231.440048 
z
" style="fill:#1f77b4;"/>
   </g>
   <g id="patch_106">
    <path clip-path="url(#p1009e1459c)" d="M 188.066139 288.430125 
L 189.065076 288.430125 
L 189.065076 242.20484 
L 188.066139 242.20484 
z
" style="fill:#1f77b4;"/>
   </g>
   <g id="patch_107">
    <path clip-path="url(#p1009e1459c)" d="M 189.31481 288.430125 
L 190.313747 288.430125 
L 190.313747 234.289552 
L 189.31481 234.289552 
z
" style="fill:#1f77b4;"/>
   </g>
   <g id="patch_108">
    <path clip-path="url(#p1009e1459c)" d="M 190.563482 288.430125 
L 191.562419 288.430125 
L 191.562419 248.537071 
L 190.563482 248.537071 
z
" style="fill:#1f77b4;"/>
   </g>
   <g id="patch_109">
    <path clip-path="url(#p1009e1459c)" d="M 191.812153 288.430125 
L 192.81109 288.430125 
L 192.81109 261.834756 
L 191.812153 261.834756 
z
" style="fill:#1f77b4;"/>
   </g>
   <g id="patch_110">
    <path clip-path="url(#p1009e1459c)" d="M 193.060824 288.430125 
L 194.059761 288.430125 
L 194.059761 239.988559 
L 193.060824 239.988559 
z
" style="fill:#1f77b4;"/>
   </g>
   <g id="patch_111">
    <path clip-path="url(#p1009e1459c)" d="M 194.309496 288.430125 
L 195.308433 288.430125 
L 195.308433 220.675255 
L 194.309496 220.675255 
z
" style="fill:#1f77b4;"/>
   </g>
   <g id="patch_112">
    <path clip-path="url(#p1009e1459c)" d="M 195.558167 288.430125 
L 196.557104 288.430125 
L 196.557104 241.413311 
L 195.558167 241.413311 
z
" style="fill:#1f77b4;"/>
   </g>
   <g id="patch_113">
    <path clip-path="url(#p1009e1459c)" d="M 196.806838 288.430125 
L 197.805775 288.430125 
L 197.805775 236.030915 
L 196.806838 236.030915 
z
" style="fill:#1f77b4;"/>
   </g>
   <g id="patch_114">
    <path clip-path="url(#p1009e1459c)" d="M 198.05551 288.430125 
L 199.054447 288.430125 
L 199.054447 230.173602 
L 198.05551 230.173602 
z
" style="fill:#1f77b4;"/>
   </g>
   <g id="patch_115">
    <path clip-path="url(#p1009e1459c)" d="M 199.304181 288.430125 
L 200.303118 288.430125 
L 200.303118 227.165792 
L 199.304181 227.165792 
z
" style="fill:#1f77b4;"/>
   </g>
   <g id="patch_116">
    <path clip-path="url(#p1009e1459c)" d="M 200.552852 288.430125 
L 201.551789 288.430125 
L 201.551789 272.124631 
L 200.552852 272.124631 
z
" style="fill:#1f77b4;"/>
   </g>
   <g id="patch_117">
    <path clip-path="url(#p1009e1459c)" d="M 201.801524 288.430125 
L 202.800461 288.430125 
L 202.800461 259.301863 
L 201.801524 259.301863 
z
" style="fill:#1f77b4;"/>
   </g>
   <g id="patch_118">
    <path clip-path="url(#p1009e1459c)" d="M 203.050195 288.430125 
L 204.049132 288.430125 
L 204.049132 213.234884 
L 203.050195 213.234884 
z
" style="fill:#1f77b4;"/>
   </g>
   <g id="patch_119">
    <path clip-path="url(#p1009e1459c)" d="M 204.298866 288.430125 
L 205.297803 288.430125 
L 205.297803 238.880419 
L 204.298866 238.880419 
z
" style="fill:#1f77b4;"/>
   </g>
   <g id="patch_120">
    <path clip-path="url(#p1009e1459c)" d="M 205.547538 288.430125 
L 206.546475 288.430125 
L 206.546475 228.907155 
L 205.547538 228.907155 
z
" style="fill:#1f77b4;"/>
   </g>
   <g id="patch_121">
    <path clip-path="url(#p1009e1459c)" d="M 206.796209 288.430125 
L 207.795146 288.430125 
L 207.795146 190.122242 
L 206.796209 190.122242 
z
" style="fill:#1f77b4;"/>
   </g>
   <g id="patch_122">
    <path clip-path="url(#p1009e1459c)" d="M 208.04488 288.430125 
L 209.043817 288.430125 
L 209.043817 213.39319 
L 208.04488 213.39319 
z
" style="fill:#1f77b4;"/>
   </g>
   <g id="patch_123">
    <path clip-path="url(#p1009e1459c)" d="M 209.293552 288.430125 
L 210.292489 288.430125 
L 210.292489 270.224961 
L 209.293552 270.224961 
z
" style="fill:#1f77b4;"/>
   </g>
   <g id="patch_124">
    <path clip-path="url(#p1009e1459c)" d="M 210.542223 288.430125 
L 211.54116 288.430125 
L 211.54116 197.246001 
L 210.542223 197.246001 
z
" style="fill:#1f77b4;"/>
   </g>
   <g id="patch_125">
    <path clip-path="url(#p1009e1459c)" d="M 211.790894 288.430125 
L 212.789831 288.430125 
L 212.789831 196.92939 
L 211.790894 196.92939 
z
" style="fill:#1f77b4;"/>
   </g>
   <g id="patch_126">
    <path clip-path="url(#p1009e1459c)" d="M 213.039566 288.430125 
L 214.038503 288.430125 
L 214.038503 197.562613 
L 213.039566 197.562613 
z
" style="fill:#1f77b4;"/>
   </g>
   <g id="patch_127">
    <path clip-path="url(#p1009e1459c)" d="M 214.288237 288.430125 
L 215.287174 288.430125 
L 215.287174 195.979555 
L 214.288237 195.979555 
z
" style="fill:#1f77b4;"/>
   </g>
   <g id="patch_128">
    <path clip-path="url(#p1009e1459c)" d="M 215.536908 288.430125 
L 216.535845 288.430125 
L 216.535845 194.238192 
L 215.536908 194.238192 
z
" style="fill:#1f77b4;"/>
   </g>
   <g id="patch_129">
    <path clip-path="url(#p1009e1459c)" d="M 216.78558 288.430125 
L 217.784517 288.430125 
L 217.784517 244.579427 
L 216.78558 244.579427 
z
" style="fill:#1f77b4;"/>
   </g>
   <g id="patch_130">
    <path clip-path="url(#p1009e1459c)" d="M 218.034251 288.430125 
L 219.033188 288.430125 
L 219.033188 248.853682 
L 218.034251 248.853682 
z
" style="fill:#1f77b4;"/>
   </g>
   <g id="patch_131">
    <path clip-path="url(#p1009e1459c)" d="M 219.282922 288.430125 
L 220.281859 288.430125 
L 220.281859 254.869302 
L 219.282922 254.869302 
z
" style="fill:#1f77b4;"/>
   </g>
   <g id="patch_132">
    <path clip-path="url(#p1009e1459c)" d="M 220.531594 288.430125 
L 221.530531 288.430125 
L 221.530531 201.520257 
L 220.531594 201.520257 
z
" style="fill:#1f77b4;"/>
   </g>
   <g id="patch_133">
    <path clip-path="url(#p1009e1459c)" d="M 221.780265 288.430125 
L 222.779202 288.430125 
L 222.779202 248.220459 
L 221.780265 248.220459 
z
" style="fill:#1f77b4;"/>
   </g>
   <g id="patch_134">
    <path clip-path="url(#p1009e1459c)" d="M 223.028936 288.430125 
L 224.027873 288.430125 
L 224.027873 164.160095 
L 223.028936 164.160095 
z
" style="fill:#1f77b4;"/>
   </g>
   <g id="patch_135">
    <path clip-path="url(#p1009e1459c)" d="M 224.277608 288.430125 
L 225.276545 288.430125 
L 225.276545 184.739845 
L 224.277608 184.739845 
z
" style="fill:#1f77b4;"/>
   </g>
   <g id="patch_136">
    <path clip-path="url(#p1009e1459c)" d="M 225.526279 288.430125 
L 226.525216 288.430125 
L 226.525216 205.794513 
L 225.526279 205.794513 
z
" style="fill:#1f77b4;"/>
   </g>
   <g id="patch_137">
    <path clip-path="url(#p1009e1459c)" d="M 226.77495 288.430125 
L 227.773887 288.430125 
L 227.773887 239.355336 
L 226.77495 239.355336 
z
" style="fill:#1f77b4;"/>
   </g>
   <g id="patch_138">
    <path clip-path="url(#p1009e1459c)" d="M 228.023622 288.430125 
L 229.022559 288.430125 
L 229.022559 255.185913 
L 228.023622 255.185913 
z
" style="fill:#1f77b4;"/>
   </g>
   <g id="patch_139">
    <path clip-path="url(#p1009e1459c)" d="M 229.272293 288.430125 
L 230.27123 288.430125 
L 230.27123 201.520257 
L 229.272293 201.520257 
z
" style="fill:#1f77b4;"/>
   </g>
   <g id="patch_140">
    <path clip-path="url(#p1009e1459c)" d="M 230.520964 288.430125 
L 231.519901 288.430125 
L 231.519901 196.92939 
L 230.520964 196.92939 
z
" style="fill:#1f77b4;"/>
   </g>
   <g id="patch_141">
    <path clip-path="url(#p1009e1459c)" d="M 231.769635 288.430125 
L 232.768573 288.430125 
L 232.768573 175.241499 
L 231.769635 175.241499 
z
" style="fill:#1f77b4;"/>
   </g>
   <g id="patch_142">
    <path clip-path="url(#p1009e1459c)" d="M 233.018307 288.430125 
L 234.017244 288.430125 
L 234.017244 198.354142 
L 233.018307 198.354142 
z
" style="fill:#1f77b4;"/>
   </g>
   <g id="patch_143">
    <path clip-path="url(#p1009e1459c)" d="M 234.266978 288.430125 
L 235.265915 288.430125 
L 235.265915 191.863605 
L 234.266978 191.863605 
z
" style="fill:#1f77b4;"/>
   </g>
   <g id="patch_144">
    <path clip-path="url(#p1009e1459c)" d="M 235.515649 288.430125 
L 236.514587 288.430125 
L 236.514587 229.540378 
L 235.515649 229.540378 
z
" style="fill:#1f77b4;"/>
   </g>
   <g id="patch_145">
    <path clip-path="url(#p1009e1459c)" d="M 236.764321 288.430125 
L 237.763258 288.430125 
L 237.763258 246.162484 
L 236.764321 246.162484 
z
" style="fill:#1f77b4;"/>
   </g>
   <g id="patch_146">
    <path clip-path="url(#p1009e1459c)" d="M 238.012992 288.430125 
L 239.011929 288.430125 
L 239.011929 191.230382 
L 238.012992 191.230382 
z
" style="fill:#1f77b4;"/>
   </g>
   <g id="patch_147">
    <path clip-path="url(#p1009e1459c)" d="M 239.261663 288.430125 
L 240.260601 288.430125 
L 240.260601 176.34964 
L 239.261663 176.34964 
z
" style="fill:#1f77b4;"/>
   </g>
   <g id="patch_148">
    <path clip-path="url(#p1009e1459c)" d="M 240.510335 288.430125 
L 241.509272 288.430125 
L 241.509272 186.956126 
L 240.510335 186.956126 
z
" style="fill:#1f77b4;"/>
   </g>
   <g id="patch_149">
    <path clip-path="url(#p1009e1459c)" d="M 241.759006 288.430125 
L 242.757943 288.430125 
L 242.757943 186.164597 
L 241.759006 186.164597 
z
" style="fill:#1f77b4;"/>
   </g>
   <g id="patch_150">
    <path clip-path="url(#p1009e1459c)" d="M 243.007677 288.430125 
L 244.006615 288.430125 
L 244.006615 189.172407 
L 243.007677 189.172407 
z
" style="fill:#1f77b4;"/>
   </g>
   <g id="patch_151">
    <path clip-path="url(#p1009e1459c)" d="M 244.256349 288.430125 
L 245.255286 288.430125 
L 245.255286 248.062154 
L 244.256349 248.062154 
z
" style="fill:#1f77b4;"/>
   </g>
   <g id="patch_152">
    <path clip-path="url(#p1009e1459c)" d="M 245.50502 288.430125 
L 246.503957 288.430125 
L 246.503957 244.262815 
L 245.50502 244.262815 
z
" style="fill:#1f77b4;"/>
   </g>
   <g id="patch_153">
    <path clip-path="url(#p1009e1459c)" d="M 246.753691 288.430125 
L 247.752628 288.430125 
L 247.752628 145.63832 
L 246.753691 145.63832 
z
" style="fill:#1f77b4;"/>
   </g>
   <g id="patch_154">
    <path clip-path="url(#p1009e1459c)" d="M 248.002363 288.430125 
L 249.0013 288.430125 
L 249.0013 97.038449 
L 248.002363 97.038449 
z
" style="fill:#1f77b4;"/>
   </g>
   <g id="patch_155">
    <path clip-path="url(#p1009e1459c)" d="M 249.251034 288.430125 
L 250.249971 288.430125 
L 250.249971 178.56592 
L 249.251034 178.56592 
z
" style="fill:#1f77b4;"/>
   </g>
   <g id="patch_156">
    <path clip-path="url(#p1009e1459c)" d="M 250.499705 288.430125 
L 251.498642 288.430125 
L 251.498642 158.461088 
L 250.499705 158.461088 
z
" style="fill:#1f77b4;"/>
   </g>
   <g id="patch_157">
    <path clip-path="url(#p1009e1459c)" d="M 251.748377 288.430125 
L 252.747314 288.430125 
L 252.747314 214.026413 
L 251.748377 214.026413 
z
" style="fill:#1f77b4;"/>
   </g>
   <g id="patch_158">
    <path clip-path="url(#p1009e1459c)" d="M 252.997048 288.430125 
L 253.995985 288.430125 
L 253.995985 232.548188 
L 252.997048 232.548188 
z
" style="fill:#1f77b4;"/>
   </g>
   <g id="patch_159">
    <path clip-path="url(#p1009e1459c)" d="M 254.245719 288.430125 
L 255.244656 288.430125 
L 255.244656 229.065461 
L 254.245719 229.065461 
z
" style="fill:#1f77b4;"/>
   </g>
   <g id="patch_160">
    <path clip-path="url(#p1009e1459c)" d="M 255.494391 288.430125 
L 256.493328 288.430125 
L 256.493328 158.619393 
L 255.494391 158.619393 
z
" style="fill:#1f77b4;"/>
   </g>
   <g id="patch_161">
    <path clip-path="url(#p1009e1459c)" d="M 256.743062 288.430125 
L 257.741999 288.430125 
L 257.741999 174.766582 
L 256.743062 174.766582 
z
" style="fill:#1f77b4;"/>
   </g>
   <g id="patch_162">
    <path clip-path="url(#p1009e1459c)" d="M 257.991733 288.430125 
L 258.99067 288.430125 
L 258.99067 157.036336 
L 257.991733 157.036336 
z
" style="fill:#1f77b4;"/>
   </g>
   <g id="patch_163">
    <path clip-path="url(#p1009e1459c)" d="M 259.240405 288.430125 
L 260.239342 288.430125 
L 260.239342 104.003903 
L 259.240405 104.003903 
z
" style="fill:#1f77b4;"/>
   </g>
   <g id="patch_164">
    <path clip-path="url(#p1009e1459c)" d="M 260.489076 288.430125 
L 261.488013 288.430125 
L 261.488013 190.597159 
L 260.489076 190.597159 
z
" style="fill:#1f77b4;"/>
   </g>
   <g id="patch_165">
    <path clip-path="url(#p1009e1459c)" d="M 261.737747 288.430125 
L 262.736684 288.430125 
L 262.736684 233.023105 
L 261.737747 233.023105 
z
" style="fill:#1f77b4;"/>
   </g>
   <g id="patch_166">
    <path clip-path="url(#p1009e1459c)" d="M 262.986419 288.430125 
L 263.985356 288.430125 
L 263.985356 233.656328 
L 262.986419 233.656328 
z
" style="fill:#1f77b4;"/>
   </g>
   <g id="patch_167">
    <path clip-path="url(#p1009e1459c)" d="M 264.23509 288.430125 
L 265.234027 288.430125 
L 265.234027 160.202451 
L 264.23509 160.202451 
z
" style="fill:#1f77b4;"/>
   </g>
   <g id="patch_168">
    <path clip-path="url(#p1009e1459c)" d="M 265.483761 288.430125 
L 266.482698 288.430125 
L 266.482698 214.50133 
L 265.483761 214.50133 
z
" style="fill:#1f77b4;"/>
   </g>
   <g id="patch_169">
    <path clip-path="url(#p1009e1459c)" d="M 266.732433 288.430125 
L 267.73137 288.430125 
L 267.73137 171.600466 
L 266.732433 171.600466 
z
" style="fill:#1f77b4;"/>
   </g>
   <g id="patch_170">
    <path clip-path="url(#p1009e1459c)" d="M 267.981104 288.430125 
L 268.980041 288.430125 
L 268.980041 174.44997 
L 267.981104 174.44997 
z
" style="fill:#1f77b4;"/>
   </g>
   <g id="patch_171">
    <path clip-path="url(#p1009e1459c)" d="M 269.229775 288.430125 
L 270.228712 288.430125 
L 270.228712 211.810132 
L 269.229775 211.810132 
z
" style="fill:#1f77b4;"/>
   </g>
   <g id="patch_172">
    <path clip-path="url(#p1009e1459c)" d="M 270.478447 288.430125 
L 271.477384 288.430125 
L 271.477384 223.999676 
L 270.478447 223.999676 
z
" style="fill:#1f77b4;"/>
   </g>
   <g id="patch_173">
    <path clip-path="url(#p1009e1459c)" d="M 271.727118 288.430125 
L 272.726055 288.430125 
L 272.726055 234.447857 
L 271.727118 234.447857 
z
" style="fill:#1f77b4;"/>
   </g>
   <g id="patch_174">
    <path clip-path="url(#p1009e1459c)" d="M 272.975789 288.430125 
L 273.974726 288.430125 
L 273.974726 195.504638 
L 272.975789 195.504638 
z
" style="fill:#1f77b4;"/>
   </g>
   <g id="patch_175">
    <path clip-path="url(#p1009e1459c)" d="M 274.224461 288.430125 
L 275.223398 288.430125 
L 275.223398 210.227074 
L 274.224461 210.227074 
z
" style="fill:#1f77b4;"/>
   </g>
   <g id="patch_176">
    <path clip-path="url(#p1009e1459c)" d="M 275.473132 288.430125 
L 276.472069 288.430125 
L 276.472069 219.408809 
L 275.473132 219.408809 
z
" style="fill:#1f77b4;"/>
   </g>
   <g id="patch_177">
    <path clip-path="url(#p1009e1459c)" d="M 276.721803 288.430125 
L 277.72074 288.430125 
L 277.72074 180.46559 
L 276.721803 180.46559 
z
" style="fill:#1f77b4;"/>
   </g>
   <g id="patch_178">
    <path clip-path="url(#p1009e1459c)" d="M 277.970475 288.430125 
L 278.969412 288.430125 
L 278.969412 246.162484 
L 277.970475 246.162484 
z
" style="fill:#1f77b4;"/>
   </g>
   <g id="patch_179">
    <path clip-path="url(#p1009e1459c)" d="M 279.219146 288.430125 
L 280.218083 288.430125 
L 280.218083 230.331907 
L 279.219146 230.331907 
z
" style="fill:#1f77b4;"/>
   </g>
   <g id="patch_180">
    <path clip-path="url(#p1009e1459c)" d="M 280.467817 288.430125 
L 281.466754 288.430125 
L 281.466754 219.725421 
L 280.467817 219.725421 
z
" style="fill:#1f77b4;"/>
   </g>
   <g id="patch_181">
    <path clip-path="url(#p1009e1459c)" d="M 281.716489 288.430125 
L 282.715426 288.430125 
L 282.715426 212.601661 
L 281.716489 212.601661 
z
" style="fill:#1f77b4;"/>
   </g>
   <g id="patch_182">
    <path clip-path="url(#p1009e1459c)" d="M 282.96516 288.430125 
L 283.964097 288.430125 
L 283.964097 195.662944 
L 282.96516 195.662944 
z
" style="fill:#1f77b4;"/>
   </g>
   <g id="patch_183">
    <path clip-path="url(#p1009e1459c)" d="M 284.213831 288.430125 
L 285.212768 288.430125 
L 285.212768 201.203646 
L 284.213831 201.203646 
z
" style="fill:#1f77b4;"/>
   </g>
   <g id="patch_184">
    <path clip-path="url(#p1009e1459c)" d="M 285.462503 288.430125 
L 286.46144 288.430125 
L 286.46144 164.951624 
L 285.462503 164.951624 
z
" style="fill:#1f77b4;"/>
   </g>
   <g id="patch_185">
    <path clip-path="url(#p1009e1459c)" d="M 286.711174 288.430125 
L 287.710111 288.430125 
L 287.710111 165.268236 
L 286.711174 165.268236 
z
" style="fill:#1f77b4;"/>
   </g>
   <g id="patch_186">
    <path clip-path="url(#p1009e1459c)" d="M 287.959845 288.430125 
L 288.958782 288.430125 
L 288.958782 221.941701 
L 287.959845 221.941701 
z
" style="fill:#1f77b4;"/>
   </g>
   <g id="patch_187">
    <path clip-path="url(#p1009e1459c)" d="M 289.208517 288.430125 
L 290.207454 288.430125 
L 290.207454 218.300669 
L 289.208517 218.300669 
z
" style="fill:#1f77b4;"/>
   </g>
   <g id="patch_188">
    <path clip-path="url(#p1009e1459c)" d="M 290.457188 288.430125 
L 291.456125 288.430125 
L 291.456125 185.214763 
L 290.457188 185.214763 
z
" style="fill:#1f77b4;"/>
   </g>
   <g id="patch_189">
    <path clip-path="url(#p1009e1459c)" d="M 291.705859 288.430125 
L 292.704796 288.430125 
L 292.704796 140.730841 
L 291.705859 140.730841 
z
" style="fill:#1f77b4;"/>
   </g>
   <g id="patch_190">
    <path clip-path="url(#p1009e1459c)" d="M 292.954531 288.430125 
L 293.953468 288.430125 
L 293.953468 129.491132 
L 292.954531 129.491132 
z
" style="fill:#1f77b4;"/>
   </g>
   <g id="patch_191">
    <path clip-path="url(#p1009e1459c)" d="M 294.203202 288.430125 
L 295.202139 288.430125 
L 295.202139 82.157706 
L 294.203202 82.157706 
z
" style="fill:#1f77b4;"/>
   </g>
   <g id="patch_192">
    <path clip-path="url(#p1009e1459c)" d="M 295.451873 288.430125 
L 296.45081 288.430125 
L 296.45081 179.515755 
L 295.451873 179.515755 
z
" style="fill:#1f77b4;"/>
   </g>
   <g id="patch_193">
    <path clip-path="url(#p1009e1459c)" d="M 296.700545 288.430125 
L 297.699482 288.430125 
L 297.699482 199.145671 
L 296.700545 199.145671 
z
" style="fill:#1f77b4;"/>
   </g>
   <g id="patch_194">
    <path clip-path="url(#p1009e1459c)" d="M 297.949216 288.430125 
L 298.948153 288.430125 
L 298.948153 220.200338 
L 297.949216 220.200338 
z
" style="fill:#1f77b4;"/>
   </g>
   <g id="patch_195">
    <path clip-path="url(#p1009e1459c)" d="M 299.197887 288.430125 
L 300.196824 288.430125 
L 300.196824 183.473399 
L 299.197887 183.473399 
z
" style="fill:#1f77b4;"/>
   </g>
   <g id="patch_196">
    <path clip-path="url(#p1009e1459c)" d="M 300.446559 288.430125 
L 301.445496 288.430125 
L 301.445496 171.917078 
L 300.446559 171.917078 
z
" style="fill:#1f77b4;"/>
   </g>
   <g id="patch_197">
    <path clip-path="url(#p1009e1459c)" d="M 301.69523 288.430125 
L 302.694167 288.430125 
L 302.694167 117.143281 
L 301.69523 117.143281 
z
" style="fill:#1f77b4;"/>
   </g>
   <g id="patch_198">
    <path clip-path="url(#p1009e1459c)" d="M 302.943901 288.430125 
L 303.942838 288.430125 
L 303.942838 178.249309 
L 302.943901 178.249309 
z
" style="fill:#1f77b4;"/>
   </g>
   <g id="patch_199">
    <path clip-path="url(#p1009e1459c)" d="M 304.192573 288.430125 
L 305.19151 288.430125 
L 305.19151 180.148978 
L 304.192573 180.148978 
z
" style="fill:#1f77b4;"/>
   </g>
   <g id="patch_200">
    <path clip-path="url(#p1009e1459c)" d="M 305.441244 288.430125 
L 306.440181 288.430125 
L 306.440181 224.474594 
L 305.441244 224.474594 
z
" style="fill:#1f77b4;"/>
   </g>
   <g id="patch_201">
    <path clip-path="url(#p1009e1459c)" d="M 306.689915 288.430125 
L 307.688852 288.430125 
L 307.688852 211.493521 
L 306.689915 211.493521 
z
" style="fill:#1f77b4;"/>
   </g>
   <g id="patch_202">
    <path clip-path="url(#p1009e1459c)" d="M 307.938587 288.430125 
L 308.937524 288.430125 
L 308.937524 177.774392 
L 307.938587 177.774392 
z
" style="fill:#1f77b4;"/>
   </g>
   <g id="patch_203">
    <path clip-path="url(#p1009e1459c)" d="M 309.187258 288.430125 
L 310.186195 288.430125 
L 310.186195 142.788816 
L 309.187258 142.788816 
z
" style="fill:#1f77b4;"/>
   </g>
   <g id="patch_204">
    <path clip-path="url(#p1009e1459c)" d="M 310.435929 288.430125 
L 311.434866 288.430125 
L 311.434866 167.801128 
L 310.435929 167.801128 
z
" style="fill:#1f77b4;"/>
   </g>
   <g id="patch_205">
    <path clip-path="url(#p1009e1459c)" d="M 311.684601 288.430125 
L 312.683538 288.430125 
L 312.683538 177.299474 
L 311.684601 177.299474 
z
" style="fill:#1f77b4;"/>
   </g>
   <g id="patch_206">
    <path clip-path="url(#p1009e1459c)" d="M 312.933272 288.430125 
L 313.932209 288.430125 
L 313.932209 211.493521 
L 312.933272 211.493521 
z
" style="fill:#1f77b4;"/>
   </g>
   <g id="patch_207">
    <path clip-path="url(#p1009e1459c)" d="M 314.181943 288.430125 
L 315.18088 288.430125 
L 315.18088 236.98075 
L 314.181943 236.98075 
z
" style="fill:#1f77b4;"/>
   </g>
   <g id="patch_208">
    <path clip-path="url(#p1009e1459c)" d="M 315.430615 288.430125 
L 316.429552 288.430125 
L 316.429552 204.369761 
L 315.430615 204.369761 
z
" style="fill:#1f77b4;"/>
   </g>
   <g id="patch_209">
    <path clip-path="url(#p1009e1459c)" d="M 316.679286 288.430125 
L 317.678223 288.430125 
L 317.678223 161.468897 
L 316.679286 161.468897 
z
" style="fill:#1f77b4;"/>
   </g>
   <g id="patch_210">
    <path clip-path="url(#p1009e1459c)" d="M 317.927957 288.430125 
L 318.926894 288.430125 
L 318.926894 113.660555 
L 317.927957 113.660555 
z
" style="fill:#1f77b4;"/>
   </g>
   <g id="patch_211">
    <path clip-path="url(#p1009e1459c)" d="M 319.176628 288.430125 
L 320.175566 288.430125 
L 320.175566 164.476707 
L 319.176628 164.476707 
z
" style="fill:#1f77b4;"/>
   </g>
   <g id="patch_212">
    <path clip-path="url(#p1009e1459c)" d="M 320.4253 288.430125 
L 321.424237 288.430125 
L 321.424237 138.197949 
L 320.4253 138.197949 
z
" style="fill:#1f77b4;"/>
   </g>
   <g id="patch_213">
    <path clip-path="url(#p1009e1459c)" d="M 321.673971 288.430125 
L 322.672908 288.430125 
L 322.672908 163.051955 
L 321.673971 163.051955 
z
" style="fill:#1f77b4;"/>
   </g>
   <g id="patch_214">
    <path clip-path="url(#p1009e1459c)" d="M 322.922642 288.430125 
L 323.92158 288.430125 
L 323.92158 207.694182 
L 322.922642 207.694182 
z
" style="fill:#1f77b4;"/>
   </g>
   <g id="patch_215">
    <path clip-path="url(#p1009e1459c)" d="M 324.171314 288.430125 
L 325.170251 288.430125 
L 325.170251 220.675255 
L 324.171314 220.675255 
z
" style="fill:#1f77b4;"/>
   </g>
   <g id="patch_216">
    <path clip-path="url(#p1009e1459c)" d="M 325.419985 288.430125 
L 326.418922 288.430125 
L 326.418922 175.399805 
L 325.419985 175.399805 
z
" style="fill:#1f77b4;"/>
   </g>
   <g id="patch_217">
    <path clip-path="url(#p1009e1459c)" d="M 326.668656 288.430125 
L 327.667594 288.430125 
L 327.667594 146.271543 
L 326.668656 146.271543 
z
" style="fill:#1f77b4;"/>
   </g>
   <g id="patch_218">
    <path clip-path="url(#p1009e1459c)" d="M 327.917328 288.430125 
L 328.916265 288.430125 
L 328.916265 117.301587 
L 327.917328 117.301587 
z
" style="fill:#1f77b4;"/>
   </g>
   <g id="patch_219">
    <path clip-path="url(#p1009e1459c)" d="M 329.165999 288.430125 
L 330.164936 288.430125 
L 330.164936 137.881337 
L 329.165999 137.881337 
z
" style="fill:#1f77b4;"/>
   </g>
   <g id="patch_220">
    <path clip-path="url(#p1009e1459c)" d="M 330.41467 288.430125 
L 331.413608 288.430125 
L 331.413608 129.966049 
L 330.41467 129.966049 
z
" style="fill:#1f77b4;"/>
   </g>
   <g id="patch_221">
    <path clip-path="url(#p1009e1459c)" d="M 331.663342 288.430125 
L 332.662279 288.430125 
L 332.662279 164.318401 
L 331.663342 164.318401 
z
" style="fill:#1f77b4;"/>
   </g>
   <g id="patch_222">
    <path clip-path="url(#p1009e1459c)" d="M 332.912013 288.430125 
L 333.91095 288.430125 
L 333.91095 127.749768 
L 332.912013 127.749768 
z
" style="fill:#1f77b4;"/>
   </g>
   <g id="patch_223">
    <path clip-path="url(#p1009e1459c)" d="M 334.160684 288.430125 
L 335.159622 288.430125 
L 335.159622 143.896957 
L 334.160684 143.896957 
z
" style="fill:#1f77b4;"/>
   </g>
   <g id="patch_224">
    <path clip-path="url(#p1009e1459c)" d="M 335.409356 288.430125 
L 336.408293 288.430125 
L 336.408293 109.386299 
L 335.409356 109.386299 
z
" style="fill:#1f77b4;"/>
   </g>
   <g id="patch_225">
    <path clip-path="url(#p1009e1459c)" d="M 336.658027 288.430125 
L 337.656964 288.430125 
L 337.656964 37.198867 
L 336.658027 37.198867 
z
" style="fill:#1f77b4;"/>
   </g>
   <g id="patch_226">
    <path clip-path="url(#p1009e1459c)" d="M 337.906698 288.430125 
L 338.905635 288.430125 
L 338.905635 110.177828 
L 337.906698 110.177828 
z
" style="fill:#1f77b4;"/>
   </g>
   <g id="patch_227">
    <path clip-path="url(#p1009e1459c)" d="M 339.15537 288.430125 
L 340.154307 288.430125 
L 340.154307 77.725145 
L 339.15537 77.725145 
z
" style="fill:#1f77b4;"/>
   </g>
   <g id="patch_228">
    <path clip-path="url(#p1009e1459c)" d="M 340.404041 288.430125 
L 341.402978 288.430125 
L 341.402978 102.895762 
L 340.404041 102.895762 
z
" style="fill:#1f77b4;"/>
   </g>
   <g id="patch_229">
    <path clip-path="url(#p1009e1459c)" d="M 341.652712 288.430125 
L 342.651649 288.430125 
L 342.651649 129.491132 
L 341.652712 129.491132 
z
" style="fill:#1f77b4;"/>
   </g>
   <g id="patch_230">
    <path clip-path="url(#p1009e1459c)" d="M 342.901384 288.430125 
L 343.900321 288.430125 
L 343.900321 147.063072 
L 342.901384 147.063072 
z
" style="fill:#1f77b4;"/>
   </g>
   <g id="patch_231">
    <path clip-path="url(#p1009e1459c)" d="M 344.150055 288.430125 
L 345.148992 288.430125 
L 345.148992 97.988283 
L 344.150055 97.988283 
z
" style="fill:#1f77b4;"/>
   </g>
   <g id="patch_232">
    <path clip-path="url(#p1009e1459c)" d="M 345.398726 288.430125 
L 346.397663 288.430125 
L 346.397663 97.196754 
L 345.398726 97.196754 
z
" style="fill:#1f77b4;"/>
   </g>
   <g id="patch_233">
    <path clip-path="url(#p1009e1459c)" d="M 346.647398 288.430125 
L 347.646335 288.430125 
L 347.646335 55.404031 
L 346.647398 55.404031 
z
" style="fill:#1f77b4;"/>
   </g>
   <g id="patch_234">
    <path clip-path="url(#p1009e1459c)" d="M 347.896069 288.430125 
L 348.895006 288.430125 
L 348.895006 53.820973 
L 347.896069 53.820973 
z
" style="fill:#1f77b4;"/>
   </g>
   <g id="patch_235">
    <path clip-path="url(#p1009e1459c)" d="M 349.14474 288.430125 
L 350.143677 288.430125 
L 350.143677 134.873528 
L 349.14474 134.873528 
z
" style="fill:#1f77b4;"/>
   </g>
   <g id="patch_236">
    <path clip-path="url(#p1009e1459c)" d="M 350.393412 288.430125 
L 351.392349 288.430125 
L 351.392349 120.151091 
L 350.393412 120.151091 
z
" style="fill:#1f77b4;"/>
   </g>
   <g id="patch_237">
    <path clip-path="url(#p1009e1459c)" d="M 351.642083 288.430125 
L 352.64102 288.430125 
L 352.64102 173.816747 
L 351.642083 173.816747 
z
" style="fill:#1f77b4;"/>
   </g>
   <g id="patch_238">
    <path clip-path="url(#p1009e1459c)" d="M 352.890754 288.430125 
L 353.889691 288.430125 
L 353.889691 24.534406 
L 352.890754 24.534406 
z
" style="fill:#1f77b4;"/>
   </g>
   <g id="patch_239">
    <path clip-path="url(#p1009e1459c)" d="M 354.139426 288.430125 
L 355.138363 288.430125 
L 355.138363 78.674979 
L 354.139426 78.674979 
z
" style="fill:#1f77b4;"/>
   </g>
   <g id="patch_240">
    <path clip-path="url(#p1009e1459c)" d="M 355.388097 288.430125 
L 356.387034 288.430125 
L 356.387034 22.318125 
L 355.388097 22.318125 
z
" style="fill:#1f77b4;"/>
   </g>
   <g id="patch_241">
    <path clip-path="url(#p1009e1459c)" d="M 356.636768 288.430125 
L 357.635705 288.430125 
L 357.635705 118.726339 
L 356.636768 118.726339 
z
" style="fill:#1f77b4;"/>
   </g>
   <g id="patch_242">
    <path clip-path="url(#p1009e1459c)" d="M 357.88544 288.430125 
L 358.884377 288.430125 
L 358.884377 71.076302 
L 357.88544 71.076302 
z
" style="fill:#1f77b4;"/>
   </g>
   <g id="patch_243">
    <path clip-path="url(#p1009e1459c)" d="M 359.134111 288.430125 
L 360.133048 288.430125 
L 360.133048 163.051955 
L 359.134111 163.051955 
z
" style="fill:#1f77b4;"/>
   </g>
   <g id="patch_244">
    <path clip-path="url(#p1009e1459c)" d="M 360.382782 288.430125 
L 361.381719 288.430125 
L 361.381719 163.843484 
L 360.382782 163.843484 
z
" style="fill:#1f77b4;"/>
   </g>
   <g id="patch_245">
    <path clip-path="url(#p1009e1459c)" d="M 361.631454 288.430125 
L 362.630391 288.430125 
L 362.630391 61.577956 
L 361.631454 61.577956 
z
" style="fill:#1f77b4;"/>
   </g>
   <g id="patch_246">
    <path clip-path="url(#p1009e1459c)" d="M 362.880125 288.430125 
L 363.879062 288.430125 
L 363.879062 95.930308 
L 362.880125 95.930308 
z
" style="fill:#1f77b4;"/>
   </g>
   <g id="patch_247">
    <path clip-path="url(#p1009e1459c)" d="M 364.128796 288.430125 
L 365.127733 288.430125 
L 365.127733 117.618199 
L 364.128796 117.618199 
z
" style="fill:#1f77b4;"/>
   </g>
   <g id="patch_248">
    <path clip-path="url(#p1009e1459c)" d="M 365.377468 288.430125 
L 366.376405 288.430125 
L 366.376405 141.205759 
L 365.377468 141.205759 
z
" style="fill:#1f77b4;"/>
   </g>
   <g id="patch_249">
    <path clip-path="url(#p1009e1459c)" d="M 366.626139 288.430125 
L 367.625076 288.430125 
L 367.625076 155.294972 
L 366.626139 155.294972 
z
" style="fill:#1f77b4;"/>
   </g>
   <g id="patch_250">
    <path clip-path="url(#p1009e1459c)" d="M 367.87481 288.430125 
L 368.873747 288.430125 
L 368.873747 218.300669 
L 367.87481 218.300669 
z
" style="fill:#1f77b4;"/>
   </g>
   <g id="patch_251">
    <path clip-path="url(#p1009e1459c)" d="M 369.123482 288.430125 
L 370.122419 288.430125 
L 370.122419 107.170018 
L 369.123482 107.170018 
z
" style="fill:#1f77b4;"/>
   </g>
   <g id="patch_252">
    <path clip-path="url(#p1009e1459c)" d="M 370.372153 288.430125 
L 371.37109 288.430125 
L 371.37109 100.046258 
L 370.372153 100.046258 
z
" style="fill:#1f77b4;"/>
   </g>
   <g id="patch_253">
    <path clip-path="url(#p1009e1459c)" d="M 371.620824 288.430125 
L 372.619761 288.430125 
L 372.619761 113.343943 
L 371.620824 113.343943 
z
" style="fill:#1f77b4;"/>
   </g>
   <g id="patch_254">
    <path clip-path="url(#p1009e1459c)" d="M 372.869496 288.430125 
L 373.868433 288.430125 
L 373.868433 127.433157 
L 372.869496 127.433157 
z
" style="fill:#1f77b4;"/>
   </g>
   <g id="patch_255">
    <path clip-path="url(#p1009e1459c)" d="M 374.118167 288.430125 
L 375.117104 288.430125 
L 375.117104 139.464395 
L 374.118167 139.464395 
z
" style="fill:#1f77b4;"/>
   </g>
   <g id="patch_256">
    <path clip-path="url(#p1009e1459c)" d="M 375.366838 288.430125 
L 376.365775 288.430125 
L 376.365775 219.250503 
L 375.366838 219.250503 
z
" style="fill:#1f77b4;"/>
   </g>
   <g id="patch_257">
    <path clip-path="url(#p1009e1459c)" d="M 376.61551 288.430125 
L 377.614447 288.430125 
L 377.614447 234.289552 
L 376.61551 234.289552 
z
" style="fill:#1f77b4;"/>
   </g>
   <g id="patch_258">
    <path clip-path="url(#p1009e1459c)" d="M 377.864181 288.430125 
L 378.863118 288.430125 
L 378.863118 191.705299 
L 377.864181 191.705299 
z
" style="fill:#1f77b4;"/>
   </g>
   <g id="patch_259">
    <path clip-path="url(#p1009e1459c)" d="M 379.112852 288.430125 
L 380.111789 288.430125 
L 380.111789 207.852488 
L 379.112852 207.852488 
z
" style="fill:#1f77b4;"/>
   </g>
   <g id="patch_260">
    <path clip-path="url(#p1009e1459c)" d="M 380.361524 288.430125 
L 381.360461 288.430125 
L 381.360461 200.887034 
L 380.361524 200.887034 
z
" style="fill:#1f77b4;"/>
   </g>
   <g id="patch_261">
    <path clip-path="url(#p1009e1459c)" d="M 381.610195 288.430125 
L 382.609132 288.430125 
L 382.609132 204.211455 
L 381.610195 204.211455 
z
" style="fill:#1f77b4;"/>
   </g>
   <g id="patch_262">
    <path clip-path="url(#p1009e1459c)" d="M 382.858866 288.430125 
L 383.857803 288.430125 
L 383.857803 122.209066 
L 382.858866 122.209066 
z
" style="fill:#1f77b4;"/>
   </g>
   <g id="patch_263">
    <path clip-path="url(#p1009e1459c)" d="M 384.107538 288.430125 
L 385.106475 288.430125 
L 385.106475 232.8648 
L 384.107538 232.8648 
z
" style="fill:#1f77b4;"/>
   </g>
   <g id="patch_264">
    <path clip-path="url(#p1009e1459c)" d="M 385.356209 288.430125 
L 386.355146 288.430125 
L 386.355146 248.378765 
L 385.356209 248.378765 
z
" style="fill:#1f77b4;"/>
   </g>
   <g id="patch_265">
    <path clip-path="url(#p1009e1459c)" d="M 386.60488 288.430125 
L 387.603817 288.430125 
L 387.603817 198.987365 
L 386.60488 198.987365 
z
" style="fill:#1f77b4;"/>
   </g>
   <g id="patch_266">
    <path clip-path="url(#p1009e1459c)" d="M 387.853552 288.430125 
L 388.852489 288.430125 
L 388.852489 190.755465 
L 387.853552 190.755465 
z
" style="fill:#1f77b4;"/>
   </g>
   <g id="patch_267">
    <path clip-path="url(#p1009e1459c)" d="M 389.102223 288.430125 
L 390.10116 288.430125 
L 390.10116 192.021911 
L 389.102223 192.021911 
z
" style="fill:#1f77b4;"/>
   </g>
   <g id="patch_268">
    <path clip-path="url(#p1009e1459c)" d="M 390.350894 288.430125 
L 391.349831 288.430125 
L 391.349831 202.15348 
L 390.350894 202.15348 
z
" style="fill:#1f77b4;"/>
   </g>
   <g id="patch_269">
    <path clip-path="url(#p1009e1459c)" d="M 391.599566 288.430125 
L 392.598503 288.430125 
L 392.598503 206.26943 
L 391.599566 206.26943 
z
" style="fill:#1f77b4;"/>
   </g>
   <g id="patch_270">
    <path clip-path="url(#p1009e1459c)" d="M 392.848237 288.430125 
L 393.847174 288.430125 
L 393.847174 242.996369 
L 392.848237 242.996369 
z
" style="fill:#1f77b4;"/>
   </g>
   <g id="patch_271">
    <path clip-path="url(#p1009e1459c)" d="M 394.096908 288.430125 
L 395.095845 288.430125 
L 395.095845 249.961823 
L 394.096908 249.961823 
z
" style="fill:#1f77b4;"/>
   </g>
   <g id="patch_272">
    <path clip-path="url(#p1009e1459c)" d="M 395.34558 288.430125 
L 396.344517 288.430125 
L 396.344517 212.759967 
L 395.34558 212.759967 
z
" style="fill:#1f77b4;"/>
   </g>
   <g id="patch_273">
    <path clip-path="url(#p1009e1459c)" d="M 396.594251 288.430125 
L 397.593188 288.430125 
L 397.593188 200.887034 
L 396.594251 200.887034 
z
" style="fill:#1f77b4;"/>
   </g>
   <g id="patch_274">
    <path clip-path="url(#p1009e1459c)" d="M 397.842922 288.430125 
L 398.841859 288.430125 
L 398.841859 222.891536 
L 397.842922 222.891536 
z
" style="fill:#1f77b4;"/>
   </g>
   <g id="patch_275">
    <path clip-path="url(#p1009e1459c)" d="M 399.091594 288.430125 
L 400.090531 288.430125 
L 400.090531 181.732036 
L 399.091594 181.732036 
z
" style="fill:#1f77b4;"/>
   </g>
   <g id="patch_276">
    <path clip-path="url(#p1009e1459c)" d="M 400.340265 288.430125 
L 401.339202 288.430125 
L 401.339202 204.844678 
L 400.340265 204.844678 
z
" style="fill:#1f77b4;"/>
   </g>
   <g id="patch_277">
    <path clip-path="url(#p1009e1459c)" d="M 401.588936 288.430125 
L 402.587873 288.430125 
L 402.587873 238.247196 
L 401.588936 238.247196 
z
" style="fill:#1f77b4;"/>
   </g>
   <g id="patch_278">
    <path clip-path="url(#p1009e1459c)" d="M 402.837608 288.430125 
L 403.836545 288.430125 
L 403.836545 248.537071 
L 402.837608 248.537071 
z
" style="fill:#1f77b4;"/>
   </g>
   <g id="patch_279">
    <path clip-path="url(#p1009e1459c)" d="M 404.086279 288.430125 
L 405.085216 288.430125 
L 405.085216 206.26943 
L 404.086279 206.26943 
z
" style="fill:#1f77b4;"/>
   </g>
   <g id="patch_280">
    <path clip-path="url(#p1009e1459c)" d="M 405.33495 288.430125 
L 406.333887 288.430125 
L 406.333887 191.230382 
L 405.33495 191.230382 
z
" style="fill:#1f77b4;"/>
   </g>
   <g id="patch_281">
    <path clip-path="url(#p1009e1459c)" d="M 406.583622 288.430125 
L 407.582559 288.430125 
L 407.582559 222.258313 
L 406.583622 222.258313 
z
" style="fill:#1f77b4;"/>
   </g>
   <g id="patch_282">
    <path clip-path="url(#p1009e1459c)" d="M 407.832293 288.430125 
L 408.83123 288.430125 
L 408.83123 217.034223 
L 407.832293 217.034223 
z
" style="fill:#1f77b4;"/>
   </g>
   <g id="patch_283">
    <path clip-path="url(#p1009e1459c)" d="M 409.080964 288.430125 
L 410.079901 288.430125 
L 410.079901 199.303976 
L 409.080964 199.303976 
z
" style="fill:#1f77b4;"/>
   </g>
   <g id="patch_284">
    <path clip-path="url(#p1009e1459c)" d="M 410.329635 288.430125 
L 411.328573 288.430125 
L 411.328573 268.325292 
L 410.329635 268.325292 
z
" style="fill:#1f77b4;"/>
   </g>
   <g id="patch_285">
    <path clip-path="url(#p1009e1459c)" d="M 411.578307 288.430125 
L 412.577244 288.430125 
L 412.577244 229.540378 
L 411.578307 229.540378 
z
" style="fill:#1f77b4;"/>
   </g>
   <g id="patch_286">
    <path clip-path="url(#p1009e1459c)" d="M 412.826978 288.430125 
L 413.825915 288.430125 
L 413.825915 203.261621 
L 412.826978 203.261621 
z
" style="fill:#1f77b4;"/>
   </g>
   <g id="patch_287">
    <path clip-path="url(#p1009e1459c)" d="M 414.075649 288.430125 
L 415.074587 288.430125 
L 415.074587 200.412117 
L 414.075649 200.412117 
z
" style="fill:#1f77b4;"/>
   </g>
   <g id="patch_288">
    <path clip-path="url(#p1009e1459c)" d="M 415.324321 288.430125 
L 416.323258 288.430125 
L 416.323258 47.172131 
L 415.324321 47.172131 
z
" style="fill:#1f77b4;"/>
   </g>
   <g id="matplotlib.axis_1">
    <g id="xtick_1">
     <g id="line2d_1">
      <defs>
       <path d="M 0 0 
L 0 3.5 
" id="me9a7c8c9e4" style="stroke:#000000;stroke-width:0.8;"/>
      </defs>
      <g>
       <use style="stroke:#000000;stroke-width:0.8;" x="81.179873" xlink:href="#me9a7c8c9e4" y="288.430125"/>
      </g>
     </g>
     <g id="text_1">
      <!-- 2020-04 -->
      <g transform="translate(83.939248 337.212937)rotate(-90)scale(0.1 -0.1)">
       <defs>
        <path d="M 19.1875 8.296875 
L 53.609375 8.296875 
L 53.609375 0 
L 7.328125 0 
L 7.328125 8.296875 
Q 12.9375 14.109375 22.625 23.890625 
Q 32.328125 33.6875 34.8125 36.53125 
Q 39.546875 41.84375 41.421875 45.53125 
Q 43.3125 49.21875 43.3125 52.78125 
Q 43.3125 58.59375 39.234375 62.25 
Q 35.15625 65.921875 28.609375 65.921875 
Q 23.96875 65.921875 18.8125 64.3125 
Q 13.671875 62.703125 7.8125 59.421875 
L 7.8125 69.390625 
Q 13.765625 71.78125 18.9375 73 
Q 24.125 74.21875 28.421875 74.21875 
Q 39.75 74.21875 46.484375 68.546875 
Q 53.21875 62.890625 53.21875 53.421875 
Q 53.21875 48.921875 51.53125 44.890625 
Q 49.859375 40.875 45.40625 35.40625 
Q 44.1875 33.984375 37.640625 27.21875 
Q 31.109375 20.453125 19.1875 8.296875 
z
" id="DejaVuSans-50"/>
        <path d="M 31.78125 66.40625 
Q 24.171875 66.40625 20.328125 58.90625 
Q 16.5 51.421875 16.5 36.375 
Q 16.5 21.390625 20.328125 13.890625 
Q 24.171875 6.390625 31.78125 6.390625 
Q 39.453125 6.390625 43.28125 13.890625 
Q 47.125 21.390625 47.125 36.375 
Q 47.125 51.421875 43.28125 58.90625 
Q 39.453125 66.40625 31.78125 66.40625 
z
M 31.78125 74.21875 
Q 44.046875 74.21875 50.515625 64.515625 
Q 56.984375 54.828125 56.984375 36.375 
Q 56.984375 17.96875 50.515625 8.265625 
Q 44.046875 -1.421875 31.78125 -1.421875 
Q 19.53125 -1.421875 13.0625 8.265625 
Q 6.59375 17.96875 6.59375 36.375 
Q 6.59375 54.828125 13.0625 64.515625 
Q 19.53125 74.21875 31.78125 74.21875 
z
" id="DejaVuSans-48"/>
        <path d="M 4.890625 31.390625 
L 31.203125 31.390625 
L 31.203125 23.390625 
L 4.890625 23.390625 
z
" id="DejaVuSans-45"/>
        <path d="M 37.796875 64.3125 
L 12.890625 25.390625 
L 37.796875 25.390625 
z
M 35.203125 72.90625 
L 47.609375 72.90625 
L 47.609375 25.390625 
L 58.015625 25.390625 
L 58.015625 17.1875 
L 47.609375 17.1875 
L 47.609375 0 
L 37.796875 0 
L 37.796875 17.1875 
L 4.890625 17.1875 
L 4.890625 26.703125 
z
" id="DejaVuSans-52"/>
       </defs>
       <use xlink:href="#DejaVuSans-50"/>
       <use x="63.623047" xlink:href="#DejaVuSans-48"/>
       <use x="127.246094" xlink:href="#DejaVuSans-50"/>
       <use x="190.869141" xlink:href="#DejaVuSans-48"/>
       <use x="254.492188" xlink:href="#DejaVuSans-45"/>
       <use x="290.576172" xlink:href="#DejaVuSans-48"/>
       <use x="354.199219" xlink:href="#DejaVuSans-52"/>
      </g>
     </g>
    </g>
    <g id="xtick_2">
     <g id="line2d_2">
      <g>
       <use style="stroke:#000000;stroke-width:0.8;" x="118.640013" xlink:href="#me9a7c8c9e4" y="288.430125"/>
      </g>
     </g>
     <g id="text_2">
      <!-- 2020-05 -->
      <g transform="translate(121.399388 337.212937)rotate(-90)scale(0.1 -0.1)">
       <defs>
        <path d="M 10.796875 72.90625 
L 49.515625 72.90625 
L 49.515625 64.59375 
L 19.828125 64.59375 
L 19.828125 46.734375 
Q 21.96875 47.46875 24.109375 47.828125 
Q 26.265625 48.1875 28.421875 48.1875 
Q 40.625 48.1875 47.75 41.5 
Q 54.890625 34.8125 54.890625 23.390625 
Q 54.890625 11.625 47.5625 5.09375 
Q 40.234375 -1.421875 26.90625 -1.421875 
Q 22.3125 -1.421875 17.546875 -0.640625 
Q 12.796875 0.140625 7.71875 1.703125 
L 7.71875 11.625 
Q 12.109375 9.234375 16.796875 8.0625 
Q 21.484375 6.890625 26.703125 6.890625 
Q 35.15625 6.890625 40.078125 11.328125 
Q 45.015625 15.765625 45.015625 23.390625 
Q 45.015625 31 40.078125 35.4375 
Q 35.15625 39.890625 26.703125 39.890625 
Q 22.75 39.890625 18.8125 39.015625 
Q 14.890625 38.140625 10.796875 36.28125 
z
" id="DejaVuSans-53"/>
       </defs>
       <use xlink:href="#DejaVuSans-50"/>
       <use x="63.623047" xlink:href="#DejaVuSans-48"/>
       <use x="127.246094" xlink:href="#DejaVuSans-50"/>
       <use x="190.869141" xlink:href="#DejaVuSans-48"/>
       <use x="254.492188" xlink:href="#DejaVuSans-45"/>
       <use x="290.576172" xlink:href="#DejaVuSans-48"/>
       <use x="354.199219" xlink:href="#DejaVuSans-53"/>
      </g>
     </g>
    </g>
    <g id="xtick_3">
     <g id="line2d_3">
      <g>
       <use style="stroke:#000000;stroke-width:0.8;" x="157.348824" xlink:href="#me9a7c8c9e4" y="288.430125"/>
      </g>
     </g>
     <g id="text_3">
      <!-- 2020-06 -->
      <g transform="translate(160.108199 337.212937)rotate(-90)scale(0.1 -0.1)">
       <defs>
        <path d="M 33.015625 40.375 
Q 26.375 40.375 22.484375 35.828125 
Q 18.609375 31.296875 18.609375 23.390625 
Q 18.609375 15.53125 22.484375 10.953125 
Q 26.375 6.390625 33.015625 6.390625 
Q 39.65625 6.390625 43.53125 10.953125 
Q 47.40625 15.53125 47.40625 23.390625 
Q 47.40625 31.296875 43.53125 35.828125 
Q 39.65625 40.375 33.015625 40.375 
z
M 52.59375 71.296875 
L 52.59375 62.3125 
Q 48.875 64.0625 45.09375 64.984375 
Q 41.3125 65.921875 37.59375 65.921875 
Q 27.828125 65.921875 22.671875 59.328125 
Q 17.53125 52.734375 16.796875 39.40625 
Q 19.671875 43.65625 24.015625 45.921875 
Q 28.375 48.1875 33.59375 48.1875 
Q 44.578125 48.1875 50.953125 41.515625 
Q 57.328125 34.859375 57.328125 23.390625 
Q 57.328125 12.15625 50.6875 5.359375 
Q 44.046875 -1.421875 33.015625 -1.421875 
Q 20.359375 -1.421875 13.671875 8.265625 
Q 6.984375 17.96875 6.984375 36.375 
Q 6.984375 53.65625 15.1875 63.9375 
Q 23.390625 74.21875 37.203125 74.21875 
Q 40.921875 74.21875 44.703125 73.484375 
Q 48.484375 72.75 52.59375 71.296875 
z
" id="DejaVuSans-54"/>
       </defs>
       <use xlink:href="#DejaVuSans-50"/>
       <use x="63.623047" xlink:href="#DejaVuSans-48"/>
       <use x="127.246094" xlink:href="#DejaVuSans-50"/>
       <use x="190.869141" xlink:href="#DejaVuSans-48"/>
       <use x="254.492188" xlink:href="#DejaVuSans-45"/>
       <use x="290.576172" xlink:href="#DejaVuSans-48"/>
       <use x="354.199219" xlink:href="#DejaVuSans-54"/>
      </g>
     </g>
    </g>
    <g id="xtick_4">
     <g id="line2d_4">
      <g>
       <use style="stroke:#000000;stroke-width:0.8;" x="194.808964" xlink:href="#me9a7c8c9e4" y="288.430125"/>
      </g>
     </g>
     <g id="text_4">
      <!-- 2020-07 -->
      <g transform="translate(197.568339 337.212937)rotate(-90)scale(0.1 -0.1)">
       <defs>
        <path d="M 8.203125 72.90625 
L 55.078125 72.90625 
L 55.078125 68.703125 
L 28.609375 0 
L 18.3125 0 
L 43.21875 64.59375 
L 8.203125 64.59375 
z
" id="DejaVuSans-55"/>
       </defs>
       <use xlink:href="#DejaVuSans-50"/>
       <use x="63.623047" xlink:href="#DejaVuSans-48"/>
       <use x="127.246094" xlink:href="#DejaVuSans-50"/>
       <use x="190.869141" xlink:href="#DejaVuSans-48"/>
       <use x="254.492188" xlink:href="#DejaVuSans-45"/>
       <use x="290.576172" xlink:href="#DejaVuSans-48"/>
       <use x="354.199219" xlink:href="#DejaVuSans-55"/>
      </g>
     </g>
    </g>
    <g id="xtick_5">
     <g id="line2d_5">
      <g>
       <use style="stroke:#000000;stroke-width:0.8;" x="233.517775" xlink:href="#me9a7c8c9e4" y="288.430125"/>
      </g>
     </g>
     <g id="text_5">
      <!-- 2020-08 -->
      <g transform="translate(236.27715 337.212937)rotate(-90)scale(0.1 -0.1)">
       <defs>
        <path d="M 31.78125 34.625 
Q 24.75 34.625 20.71875 30.859375 
Q 16.703125 27.09375 16.703125 20.515625 
Q 16.703125 13.921875 20.71875 10.15625 
Q 24.75 6.390625 31.78125 6.390625 
Q 38.8125 6.390625 42.859375 10.171875 
Q 46.921875 13.96875 46.921875 20.515625 
Q 46.921875 27.09375 42.890625 30.859375 
Q 38.875 34.625 31.78125 34.625 
z
M 21.921875 38.8125 
Q 15.578125 40.375 12.03125 44.71875 
Q 8.5 49.078125 8.5 55.328125 
Q 8.5 64.0625 14.71875 69.140625 
Q 20.953125 74.21875 31.78125 74.21875 
Q 42.671875 74.21875 48.875 69.140625 
Q 55.078125 64.0625 55.078125 55.328125 
Q 55.078125 49.078125 51.53125 44.71875 
Q 48 40.375 41.703125 38.8125 
Q 48.828125 37.15625 52.796875 32.3125 
Q 56.78125 27.484375 56.78125 20.515625 
Q 56.78125 9.90625 50.3125 4.234375 
Q 43.84375 -1.421875 31.78125 -1.421875 
Q 19.734375 -1.421875 13.25 4.234375 
Q 6.78125 9.90625 6.78125 20.515625 
Q 6.78125 27.484375 10.78125 32.3125 
Q 14.796875 37.15625 21.921875 38.8125 
z
M 18.3125 54.390625 
Q 18.3125 48.734375 21.84375 45.5625 
Q 25.390625 42.390625 31.78125 42.390625 
Q 38.140625 42.390625 41.71875 45.5625 
Q 45.3125 48.734375 45.3125 54.390625 
Q 45.3125 60.0625 41.71875 63.234375 
Q 38.140625 66.40625 31.78125 66.40625 
Q 25.390625 66.40625 21.84375 63.234375 
Q 18.3125 60.0625 18.3125 54.390625 
z
" id="DejaVuSans-56"/>
       </defs>
       <use xlink:href="#DejaVuSans-50"/>
       <use x="63.623047" xlink:href="#DejaVuSans-48"/>
       <use x="127.246094" xlink:href="#DejaVuSans-50"/>
       <use x="190.869141" xlink:href="#DejaVuSans-48"/>
       <use x="254.492188" xlink:href="#DejaVuSans-45"/>
       <use x="290.576172" xlink:href="#DejaVuSans-48"/>
       <use x="354.199219" xlink:href="#DejaVuSans-56"/>
      </g>
     </g>
    </g>
    <g id="xtick_6">
     <g id="line2d_6">
      <g>
       <use style="stroke:#000000;stroke-width:0.8;" x="272.226587" xlink:href="#me9a7c8c9e4" y="288.430125"/>
      </g>
     </g>
     <g id="text_6">
      <!-- 2020-09 -->
      <g transform="translate(274.985962 337.212937)rotate(-90)scale(0.1 -0.1)">
       <defs>
        <path d="M 10.984375 1.515625 
L 10.984375 10.5 
Q 14.703125 8.734375 18.5 7.8125 
Q 22.3125 6.890625 25.984375 6.890625 
Q 35.75 6.890625 40.890625 13.453125 
Q 46.046875 20.015625 46.78125 33.40625 
Q 43.953125 29.203125 39.59375 26.953125 
Q 35.25 24.703125 29.984375 24.703125 
Q 19.046875 24.703125 12.671875 31.3125 
Q 6.296875 37.9375 6.296875 49.421875 
Q 6.296875 60.640625 12.9375 67.421875 
Q 19.578125 74.21875 30.609375 74.21875 
Q 43.265625 74.21875 49.921875 64.515625 
Q 56.59375 54.828125 56.59375 36.375 
Q 56.59375 19.140625 48.40625 8.859375 
Q 40.234375 -1.421875 26.421875 -1.421875 
Q 22.703125 -1.421875 18.890625 -0.6875 
Q 15.09375 0.046875 10.984375 1.515625 
z
M 30.609375 32.421875 
Q 37.25 32.421875 41.125 36.953125 
Q 45.015625 41.5 45.015625 49.421875 
Q 45.015625 57.28125 41.125 61.84375 
Q 37.25 66.40625 30.609375 66.40625 
Q 23.96875 66.40625 20.09375 61.84375 
Q 16.21875 57.28125 16.21875 49.421875 
Q 16.21875 41.5 20.09375 36.953125 
Q 23.96875 32.421875 30.609375 32.421875 
z
" id="DejaVuSans-57"/>
       </defs>
       <use xlink:href="#DejaVuSans-50"/>
       <use x="63.623047" xlink:href="#DejaVuSans-48"/>
       <use x="127.246094" xlink:href="#DejaVuSans-50"/>
       <use x="190.869141" xlink:href="#DejaVuSans-48"/>
       <use x="254.492188" xlink:href="#DejaVuSans-45"/>
       <use x="290.576172" xlink:href="#DejaVuSans-48"/>
       <use x="354.199219" xlink:href="#DejaVuSans-57"/>
      </g>
     </g>
    </g>
    <g id="xtick_7">
     <g id="line2d_7">
      <g>
       <use style="stroke:#000000;stroke-width:0.8;" x="309.686726" xlink:href="#me9a7c8c9e4" y="288.430125"/>
      </g>
     </g>
     <g id="text_7">
      <!-- 2020-10 -->
      <g transform="translate(312.446101 337.212937)rotate(-90)scale(0.1 -0.1)">
       <defs>
        <path d="M 12.40625 8.296875 
L 28.515625 8.296875 
L 28.515625 63.921875 
L 10.984375 60.40625 
L 10.984375 69.390625 
L 28.421875 72.90625 
L 38.28125 72.90625 
L 38.28125 8.296875 
L 54.390625 8.296875 
L 54.390625 0 
L 12.40625 0 
z
" id="DejaVuSans-49"/>
       </defs>
       <use xlink:href="#DejaVuSans-50"/>
       <use x="63.623047" xlink:href="#DejaVuSans-48"/>
       <use x="127.246094" xlink:href="#DejaVuSans-50"/>
       <use x="190.869141" xlink:href="#DejaVuSans-48"/>
       <use x="254.492188" xlink:href="#DejaVuSans-45"/>
       <use x="290.576172" xlink:href="#DejaVuSans-49"/>
       <use x="354.199219" xlink:href="#DejaVuSans-48"/>
      </g>
     </g>
    </g>
    <g id="xtick_8">
     <g id="line2d_8">
      <g>
       <use style="stroke:#000000;stroke-width:0.8;" x="348.395538" xlink:href="#me9a7c8c9e4" y="288.430125"/>
      </g>
     </g>
     <g id="text_8">
      <!-- 2020-11 -->
      <g transform="translate(351.154913 337.212937)rotate(-90)scale(0.1 -0.1)">
       <use xlink:href="#DejaVuSans-50"/>
       <use x="63.623047" xlink:href="#DejaVuSans-48"/>
       <use x="127.246094" xlink:href="#DejaVuSans-50"/>
       <use x="190.869141" xlink:href="#DejaVuSans-48"/>
       <use x="254.492188" xlink:href="#DejaVuSans-45"/>
       <use x="290.576172" xlink:href="#DejaVuSans-49"/>
       <use x="354.199219" xlink:href="#DejaVuSans-49"/>
      </g>
     </g>
    </g>
    <g id="xtick_9">
     <g id="line2d_9">
      <g>
       <use style="stroke:#000000;stroke-width:0.8;" x="385.855677" xlink:href="#me9a7c8c9e4" y="288.430125"/>
      </g>
     </g>
     <g id="text_9">
      <!-- 2020-12 -->
      <g transform="translate(388.615052 337.212937)rotate(-90)scale(0.1 -0.1)">
       <use xlink:href="#DejaVuSans-50"/>
       <use x="63.623047" xlink:href="#DejaVuSans-48"/>
       <use x="127.246094" xlink:href="#DejaVuSans-50"/>
       <use x="190.869141" xlink:href="#DejaVuSans-48"/>
       <use x="254.492188" xlink:href="#DejaVuSans-45"/>
       <use x="290.576172" xlink:href="#DejaVuSans-49"/>
       <use x="354.199219" xlink:href="#DejaVuSans-50"/>
      </g>
     </g>
    </g>
    <g id="text_10">
     <!-- date -->
     <g transform="translate(226.613125 354.811375)scale(0.1 -0.1)">
      <defs>
       <path d="M 45.40625 46.390625 
L 45.40625 75.984375 
L 54.390625 75.984375 
L 54.390625 0 
L 45.40625 0 
L 45.40625 8.203125 
Q 42.578125 3.328125 38.25 0.953125 
Q 33.9375 -1.421875 27.875 -1.421875 
Q 17.96875 -1.421875 11.734375 6.484375 
Q 5.515625 14.40625 5.515625 27.296875 
Q 5.515625 40.1875 11.734375 48.09375 
Q 17.96875 56 27.875 56 
Q 33.9375 56 38.25 53.625 
Q 42.578125 51.265625 45.40625 46.390625 
z
M 14.796875 27.296875 
Q 14.796875 17.390625 18.875 11.75 
Q 22.953125 6.109375 30.078125 6.109375 
Q 37.203125 6.109375 41.296875 11.75 
Q 45.40625 17.390625 45.40625 27.296875 
Q 45.40625 37.203125 41.296875 42.84375 
Q 37.203125 48.484375 30.078125 48.484375 
Q 22.953125 48.484375 18.875 42.84375 
Q 14.796875 37.203125 14.796875 27.296875 
z
" id="DejaVuSans-100"/>
       <path d="M 34.28125 27.484375 
Q 23.390625 27.484375 19.1875 25 
Q 14.984375 22.515625 14.984375 16.5 
Q 14.984375 11.71875 18.140625 8.90625 
Q 21.296875 6.109375 26.703125 6.109375 
Q 34.1875 6.109375 38.703125 11.40625 
Q 43.21875 16.703125 43.21875 25.484375 
L 43.21875 27.484375 
z
M 52.203125 31.203125 
L 52.203125 0 
L 43.21875 0 
L 43.21875 8.296875 
Q 40.140625 3.328125 35.546875 0.953125 
Q 30.953125 -1.421875 24.3125 -1.421875 
Q 15.921875 -1.421875 10.953125 3.296875 
Q 6 8.015625 6 15.921875 
Q 6 25.140625 12.171875 29.828125 
Q 18.359375 34.515625 30.609375 34.515625 
L 43.21875 34.515625 
L 43.21875 35.40625 
Q 43.21875 41.609375 39.140625 45 
Q 35.0625 48.390625 27.6875 48.390625 
Q 23 48.390625 18.546875 47.265625 
Q 14.109375 46.140625 10.015625 43.890625 
L 10.015625 52.203125 
Q 14.9375 54.109375 19.578125 55.046875 
Q 24.21875 56 28.609375 56 
Q 40.484375 56 46.34375 49.84375 
Q 52.203125 43.703125 52.203125 31.203125 
z
" id="DejaVuSans-97"/>
       <path d="M 18.3125 70.21875 
L 18.3125 54.6875 
L 36.8125 54.6875 
L 36.8125 47.703125 
L 18.3125 47.703125 
L 18.3125 18.015625 
Q 18.3125 11.328125 20.140625 9.421875 
Q 21.96875 7.515625 27.59375 7.515625 
L 36.8125 7.515625 
L 36.8125 0 
L 27.59375 0 
Q 17.1875 0 13.234375 3.875 
Q 9.28125 7.765625 9.28125 18.015625 
L 9.28125 47.703125 
L 2.6875 47.703125 
L 2.6875 54.6875 
L 9.28125 54.6875 
L 9.28125 70.21875 
z
" id="DejaVuSans-116"/>
       <path d="M 56.203125 29.59375 
L 56.203125 25.203125 
L 14.890625 25.203125 
Q 15.484375 15.921875 20.484375 11.0625 
Q 25.484375 6.203125 34.421875 6.203125 
Q 39.59375 6.203125 44.453125 7.46875 
Q 49.3125 8.734375 54.109375 11.28125 
L 54.109375 2.78125 
Q 49.265625 0.734375 44.1875 -0.34375 
Q 39.109375 -1.421875 33.890625 -1.421875 
Q 20.796875 -1.421875 13.15625 6.1875 
Q 5.515625 13.8125 5.515625 26.8125 
Q 5.515625 40.234375 12.765625 48.109375 
Q 20.015625 56 32.328125 56 
Q 43.359375 56 49.78125 48.890625 
Q 56.203125 41.796875 56.203125 29.59375 
z
M 47.21875 32.234375 
Q 47.125 39.59375 43.09375 43.984375 
Q 39.0625 48.390625 32.421875 48.390625 
Q 24.90625 48.390625 20.390625 44.140625 
Q 15.875 39.890625 15.1875 32.171875 
z
" id="DejaVuSans-101"/>
      </defs>
      <use xlink:href="#DejaVuSans-100"/>
      <use x="63.476562" xlink:href="#DejaVuSans-97"/>
      <use x="124.755859" xlink:href="#DejaVuSans-116"/>
      <use x="163.964844" xlink:href="#DejaVuSans-101"/>
     </g>
    </g>
   </g>
   <g id="matplotlib.axis_2">
    <g id="ytick_1">
     <g id="line2d_10">
      <defs>
       <path d="M 0 0 
L -3.5 0 
" id="m4445b88f8b" style="stroke:#000000;stroke-width:0.8;"/>
      </defs>
      <g>
       <use style="stroke:#000000;stroke-width:0.8;" x="59.328125" xlink:href="#m4445b88f8b" y="288.430125"/>
      </g>
     </g>
     <g id="text_11">
      <!-- 0 -->
      <g transform="translate(45.965625 292.229344)scale(0.1 -0.1)">
       <use xlink:href="#DejaVuSans-48"/>
      </g>
     </g>
    </g>
    <g id="ytick_2">
     <g id="line2d_11">
      <g>
       <use style="stroke:#000000;stroke-width:0.8;" x="59.328125" xlink:href="#m4445b88f8b" y="256.768971"/>
      </g>
     </g>
     <g id="text_12">
      <!-- 200 -->
      <g transform="translate(33.240625 260.56819)scale(0.1 -0.1)">
       <use xlink:href="#DejaVuSans-50"/>
       <use x="63.623047" xlink:href="#DejaVuSans-48"/>
       <use x="127.246094" xlink:href="#DejaVuSans-48"/>
      </g>
     </g>
    </g>
    <g id="ytick_3">
     <g id="line2d_12">
      <g>
       <use style="stroke:#000000;stroke-width:0.8;" x="59.328125" xlink:href="#m4445b88f8b" y="225.107817"/>
      </g>
     </g>
     <g id="text_13">
      <!-- 400 -->
      <g transform="translate(33.240625 228.907036)scale(0.1 -0.1)">
       <use xlink:href="#DejaVuSans-52"/>
       <use x="63.623047" xlink:href="#DejaVuSans-48"/>
       <use x="127.246094" xlink:href="#DejaVuSans-48"/>
      </g>
     </g>
    </g>
    <g id="ytick_4">
     <g id="line2d_13">
      <g>
       <use style="stroke:#000000;stroke-width:0.8;" x="59.328125" xlink:href="#m4445b88f8b" y="193.446663"/>
      </g>
     </g>
     <g id="text_14">
      <!-- 600 -->
      <g transform="translate(33.240625 197.245882)scale(0.1 -0.1)">
       <use xlink:href="#DejaVuSans-54"/>
       <use x="63.623047" xlink:href="#DejaVuSans-48"/>
       <use x="127.246094" xlink:href="#DejaVuSans-48"/>
      </g>
     </g>
    </g>
    <g id="ytick_5">
     <g id="line2d_14">
      <g>
       <use style="stroke:#000000;stroke-width:0.8;" x="59.328125" xlink:href="#m4445b88f8b" y="161.785509"/>
      </g>
     </g>
     <g id="text_15">
      <!-- 800 -->
      <g transform="translate(33.240625 165.584727)scale(0.1 -0.1)">
       <use xlink:href="#DejaVuSans-56"/>
       <use x="63.623047" xlink:href="#DejaVuSans-48"/>
       <use x="127.246094" xlink:href="#DejaVuSans-48"/>
      </g>
     </g>
    </g>
    <g id="ytick_6">
     <g id="line2d_15">
      <g>
       <use style="stroke:#000000;stroke-width:0.8;" x="59.328125" xlink:href="#m4445b88f8b" y="130.124355"/>
      </g>
     </g>
     <g id="text_16">
      <!-- 1000 -->
      <g transform="translate(26.878125 133.923573)scale(0.1 -0.1)">
       <use xlink:href="#DejaVuSans-49"/>
       <use x="63.623047" xlink:href="#DejaVuSans-48"/>
       <use x="127.246094" xlink:href="#DejaVuSans-48"/>
       <use x="190.869141" xlink:href="#DejaVuSans-48"/>
      </g>
     </g>
    </g>
    <g id="ytick_7">
     <g id="line2d_16">
      <g>
       <use style="stroke:#000000;stroke-width:0.8;" x="59.328125" xlink:href="#m4445b88f8b" y="98.463201"/>
      </g>
     </g>
     <g id="text_17">
      <!-- 1200 -->
      <g transform="translate(26.878125 102.262419)scale(0.1 -0.1)">
       <use xlink:href="#DejaVuSans-49"/>
       <use x="63.623047" xlink:href="#DejaVuSans-50"/>
       <use x="127.246094" xlink:href="#DejaVuSans-48"/>
       <use x="190.869141" xlink:href="#DejaVuSans-48"/>
      </g>
     </g>
    </g>
    <g id="ytick_8">
     <g id="line2d_17">
      <g>
       <use style="stroke:#000000;stroke-width:0.8;" x="59.328125" xlink:href="#m4445b88f8b" y="66.802046"/>
      </g>
     </g>
     <g id="text_18">
      <!-- 1400 -->
      <g transform="translate(26.878125 70.601265)scale(0.1 -0.1)">
       <use xlink:href="#DejaVuSans-49"/>
       <use x="63.623047" xlink:href="#DejaVuSans-52"/>
       <use x="127.246094" xlink:href="#DejaVuSans-48"/>
       <use x="190.869141" xlink:href="#DejaVuSans-48"/>
      </g>
     </g>
    </g>
    <g id="ytick_9">
     <g id="line2d_18">
      <g>
       <use style="stroke:#000000;stroke-width:0.8;" x="59.328125" xlink:href="#m4445b88f8b" y="35.140892"/>
      </g>
     </g>
     <g id="text_19">
      <!-- 1600 -->
      <g transform="translate(26.878125 38.940111)scale(0.1 -0.1)">
       <use xlink:href="#DejaVuSans-49"/>
       <use x="63.623047" xlink:href="#DejaVuSans-54"/>
       <use x="127.246094" xlink:href="#DejaVuSans-48"/>
       <use x="190.869141" xlink:href="#DejaVuSans-48"/>
      </g>
     </g>
    </g>
    <g id="text_20">
     <!-- number of tested persons daily -->
     <g transform="translate(14.798438 233.635844)rotate(-90)scale(0.1 -0.1)">
      <defs>
       <path d="M 54.890625 33.015625 
L 54.890625 0 
L 45.90625 0 
L 45.90625 32.71875 
Q 45.90625 40.484375 42.875 44.328125 
Q 39.84375 48.1875 33.796875 48.1875 
Q 26.515625 48.1875 22.3125 43.546875 
Q 18.109375 38.921875 18.109375 30.90625 
L 18.109375 0 
L 9.078125 0 
L 9.078125 54.6875 
L 18.109375 54.6875 
L 18.109375 46.1875 
Q 21.34375 51.125 25.703125 53.5625 
Q 30.078125 56 35.796875 56 
Q 45.21875 56 50.046875 50.171875 
Q 54.890625 44.34375 54.890625 33.015625 
z
" id="DejaVuSans-110"/>
       <path d="M 8.5 21.578125 
L 8.5 54.6875 
L 17.484375 54.6875 
L 17.484375 21.921875 
Q 17.484375 14.15625 20.5 10.265625 
Q 23.53125 6.390625 29.59375 6.390625 
Q 36.859375 6.390625 41.078125 11.03125 
Q 45.3125 15.671875 45.3125 23.6875 
L 45.3125 54.6875 
L 54.296875 54.6875 
L 54.296875 0 
L 45.3125 0 
L 45.3125 8.40625 
Q 42.046875 3.421875 37.71875 1 
Q 33.40625 -1.421875 27.6875 -1.421875 
Q 18.265625 -1.421875 13.375 4.4375 
Q 8.5 10.296875 8.5 21.578125 
z
M 31.109375 56 
z
" id="DejaVuSans-117"/>
       <path d="M 52 44.1875 
Q 55.375 50.25 60.0625 53.125 
Q 64.75 56 71.09375 56 
Q 79.640625 56 84.28125 50.015625 
Q 88.921875 44.046875 88.921875 33.015625 
L 88.921875 0 
L 79.890625 0 
L 79.890625 32.71875 
Q 79.890625 40.578125 77.09375 44.375 
Q 74.3125 48.1875 68.609375 48.1875 
Q 61.625 48.1875 57.5625 43.546875 
Q 53.515625 38.921875 53.515625 30.90625 
L 53.515625 0 
L 44.484375 0 
L 44.484375 32.71875 
Q 44.484375 40.625 41.703125 44.40625 
Q 38.921875 48.1875 33.109375 48.1875 
Q 26.21875 48.1875 22.15625 43.53125 
Q 18.109375 38.875 18.109375 30.90625 
L 18.109375 0 
L 9.078125 0 
L 9.078125 54.6875 
L 18.109375 54.6875 
L 18.109375 46.1875 
Q 21.1875 51.21875 25.484375 53.609375 
Q 29.78125 56 35.6875 56 
Q 41.65625 56 45.828125 52.96875 
Q 50 49.953125 52 44.1875 
z
" id="DejaVuSans-109"/>
       <path d="M 48.6875 27.296875 
Q 48.6875 37.203125 44.609375 42.84375 
Q 40.53125 48.484375 33.40625 48.484375 
Q 26.265625 48.484375 22.1875 42.84375 
Q 18.109375 37.203125 18.109375 27.296875 
Q 18.109375 17.390625 22.1875 11.75 
Q 26.265625 6.109375 33.40625 6.109375 
Q 40.53125 6.109375 44.609375 11.75 
Q 48.6875 17.390625 48.6875 27.296875 
z
M 18.109375 46.390625 
Q 20.953125 51.265625 25.265625 53.625 
Q 29.59375 56 35.59375 56 
Q 45.5625 56 51.78125 48.09375 
Q 58.015625 40.1875 58.015625 27.296875 
Q 58.015625 14.40625 51.78125 6.484375 
Q 45.5625 -1.421875 35.59375 -1.421875 
Q 29.59375 -1.421875 25.265625 0.953125 
Q 20.953125 3.328125 18.109375 8.203125 
L 18.109375 0 
L 9.078125 0 
L 9.078125 75.984375 
L 18.109375 75.984375 
z
" id="DejaVuSans-98"/>
       <path d="M 41.109375 46.296875 
Q 39.59375 47.171875 37.8125 47.578125 
Q 36.03125 48 33.890625 48 
Q 26.265625 48 22.1875 43.046875 
Q 18.109375 38.09375 18.109375 28.8125 
L 18.109375 0 
L 9.078125 0 
L 9.078125 54.6875 
L 18.109375 54.6875 
L 18.109375 46.1875 
Q 20.953125 51.171875 25.484375 53.578125 
Q 30.03125 56 36.53125 56 
Q 37.453125 56 38.578125 55.875 
Q 39.703125 55.765625 41.0625 55.515625 
z
" id="DejaVuSans-114"/>
       <path id="DejaVuSans-32"/>
       <path d="M 30.609375 48.390625 
Q 23.390625 48.390625 19.1875 42.75 
Q 14.984375 37.109375 14.984375 27.296875 
Q 14.984375 17.484375 19.15625 11.84375 
Q 23.34375 6.203125 30.609375 6.203125 
Q 37.796875 6.203125 41.984375 11.859375 
Q 46.1875 17.53125 46.1875 27.296875 
Q 46.1875 37.015625 41.984375 42.703125 
Q 37.796875 48.390625 30.609375 48.390625 
z
M 30.609375 56 
Q 42.328125 56 49.015625 48.375 
Q 55.71875 40.765625 55.71875 27.296875 
Q 55.71875 13.875 49.015625 6.21875 
Q 42.328125 -1.421875 30.609375 -1.421875 
Q 18.84375 -1.421875 12.171875 6.21875 
Q 5.515625 13.875 5.515625 27.296875 
Q 5.515625 40.765625 12.171875 48.375 
Q 18.84375 56 30.609375 56 
z
" id="DejaVuSans-111"/>
       <path d="M 37.109375 75.984375 
L 37.109375 68.5 
L 28.515625 68.5 
Q 23.6875 68.5 21.796875 66.546875 
Q 19.921875 64.59375 19.921875 59.515625 
L 19.921875 54.6875 
L 34.71875 54.6875 
L 34.71875 47.703125 
L 19.921875 47.703125 
L 19.921875 0 
L 10.890625 0 
L 10.890625 47.703125 
L 2.296875 47.703125 
L 2.296875 54.6875 
L 10.890625 54.6875 
L 10.890625 58.5 
Q 10.890625 67.625 15.140625 71.796875 
Q 19.390625 75.984375 28.609375 75.984375 
z
" id="DejaVuSans-102"/>
       <path d="M 44.28125 53.078125 
L 44.28125 44.578125 
Q 40.484375 46.53125 36.375 47.5 
Q 32.28125 48.484375 27.875 48.484375 
Q 21.1875 48.484375 17.84375 46.4375 
Q 14.5 44.390625 14.5 40.28125 
Q 14.5 37.15625 16.890625 35.375 
Q 19.28125 33.59375 26.515625 31.984375 
L 29.59375 31.296875 
Q 39.15625 29.25 43.1875 25.515625 
Q 47.21875 21.78125 47.21875 15.09375 
Q 47.21875 7.46875 41.1875 3.015625 
Q 35.15625 -1.421875 24.609375 -1.421875 
Q 20.21875 -1.421875 15.453125 -0.5625 
Q 10.6875 0.296875 5.421875 2 
L 5.421875 11.28125 
Q 10.40625 8.6875 15.234375 7.390625 
Q 20.0625 6.109375 24.8125 6.109375 
Q 31.15625 6.109375 34.5625 8.28125 
Q 37.984375 10.453125 37.984375 14.40625 
Q 37.984375 18.0625 35.515625 20.015625 
Q 33.0625 21.96875 24.703125 23.78125 
L 21.578125 24.515625 
Q 13.234375 26.265625 9.515625 29.90625 
Q 5.8125 33.546875 5.8125 39.890625 
Q 5.8125 47.609375 11.28125 51.796875 
Q 16.75 56 26.8125 56 
Q 31.78125 56 36.171875 55.265625 
Q 40.578125 54.546875 44.28125 53.078125 
z
" id="DejaVuSans-115"/>
       <path d="M 18.109375 8.203125 
L 18.109375 -20.796875 
L 9.078125 -20.796875 
L 9.078125 54.6875 
L 18.109375 54.6875 
L 18.109375 46.390625 
Q 20.953125 51.265625 25.265625 53.625 
Q 29.59375 56 35.59375 56 
Q 45.5625 56 51.78125 48.09375 
Q 58.015625 40.1875 58.015625 27.296875 
Q 58.015625 14.40625 51.78125 6.484375 
Q 45.5625 -1.421875 35.59375 -1.421875 
Q 29.59375 -1.421875 25.265625 0.953125 
Q 20.953125 3.328125 18.109375 8.203125 
z
M 48.6875 27.296875 
Q 48.6875 37.203125 44.609375 42.84375 
Q 40.53125 48.484375 33.40625 48.484375 
Q 26.265625 48.484375 22.1875 42.84375 
Q 18.109375 37.203125 18.109375 27.296875 
Q 18.109375 17.390625 22.1875 11.75 
Q 26.265625 6.109375 33.40625 6.109375 
Q 40.53125 6.109375 44.609375 11.75 
Q 48.6875 17.390625 48.6875 27.296875 
z
" id="DejaVuSans-112"/>
       <path d="M 9.421875 54.6875 
L 18.40625 54.6875 
L 18.40625 0 
L 9.421875 0 
z
M 9.421875 75.984375 
L 18.40625 75.984375 
L 18.40625 64.59375 
L 9.421875 64.59375 
z
" id="DejaVuSans-105"/>
       <path d="M 9.421875 75.984375 
L 18.40625 75.984375 
L 18.40625 0 
L 9.421875 0 
z
" id="DejaVuSans-108"/>
       <path d="M 32.171875 -5.078125 
Q 28.375 -14.84375 24.75 -17.8125 
Q 21.140625 -20.796875 15.09375 -20.796875 
L 7.90625 -20.796875 
L 7.90625 -13.28125 
L 13.1875 -13.28125 
Q 16.890625 -13.28125 18.9375 -11.515625 
Q 21 -9.765625 23.484375 -3.21875 
L 25.09375 0.875 
L 2.984375 54.6875 
L 12.5 54.6875 
L 29.59375 11.921875 
L 46.6875 54.6875 
L 56.203125 54.6875 
z
" id="DejaVuSans-121"/>
      </defs>
      <use xlink:href="#DejaVuSans-110"/>
      <use x="63.378906" xlink:href="#DejaVuSans-117"/>
      <use x="126.757812" xlink:href="#DejaVuSans-109"/>
      <use x="224.169922" xlink:href="#DejaVuSans-98"/>
      <use x="287.646484" xlink:href="#DejaVuSans-101"/>
      <use x="349.169922" xlink:href="#DejaVuSans-114"/>
      <use x="390.283203" xlink:href="#DejaVuSans-32"/>
      <use x="422.070312" xlink:href="#DejaVuSans-111"/>
      <use x="483.251953" xlink:href="#DejaVuSans-102"/>
      <use x="518.457031" xlink:href="#DejaVuSans-32"/>
      <use x="550.244141" xlink:href="#DejaVuSans-116"/>
      <use x="589.453125" xlink:href="#DejaVuSans-101"/>
      <use x="650.976562" xlink:href="#DejaVuSans-115"/>
      <use x="703.076172" xlink:href="#DejaVuSans-116"/>
      <use x="742.285156" xlink:href="#DejaVuSans-101"/>
      <use x="803.808594" xlink:href="#DejaVuSans-100"/>
      <use x="867.285156" xlink:href="#DejaVuSans-32"/>
      <use x="899.072266" xlink:href="#DejaVuSans-112"/>
      <use x="962.548828" xlink:href="#DejaVuSans-101"/>
      <use x="1024.072266" xlink:href="#DejaVuSans-114"/>
      <use x="1065.185547" xlink:href="#DejaVuSans-115"/>
      <use x="1117.285156" xlink:href="#DejaVuSans-111"/>
      <use x="1178.466797" xlink:href="#DejaVuSans-110"/>
      <use x="1241.845703" xlink:href="#DejaVuSans-115"/>
      <use x="1293.945312" xlink:href="#DejaVuSans-32"/>
      <use x="1325.732422" xlink:href="#DejaVuSans-100"/>
      <use x="1389.208984" xlink:href="#DejaVuSans-97"/>
      <use x="1450.488281" xlink:href="#DejaVuSans-105"/>
      <use x="1478.271484" xlink:href="#DejaVuSans-108"/>
      <use x="1506.054688" xlink:href="#DejaVuSans-121"/>
     </g>
    </g>
   </g>
   <g id="patch_289">
    <path d="M 59.328125 288.430125 
L 59.328125 22.318125 
" style="fill:none;stroke:#000000;stroke-linecap:square;stroke-linejoin:miter;stroke-width:0.8;"/>
   </g>
   <g id="patch_290">
    <path d="M 59.328125 288.430125 
L 416.448125 288.430125 
" style="fill:none;stroke:#000000;stroke-linecap:square;stroke-linejoin:miter;stroke-width:0.8;"/>
   </g>
   <g id="text_21">
    <!-- South Tyrol -->
    <g transform="translate(204.595625 16.318125)scale(0.12 -0.12)">
     <defs>
      <path d="M 53.515625 70.515625 
L 53.515625 60.890625 
Q 47.90625 63.578125 42.921875 64.890625 
Q 37.9375 66.21875 33.296875 66.21875 
Q 25.25 66.21875 20.875 63.09375 
Q 16.5 59.96875 16.5 54.203125 
Q 16.5 49.359375 19.40625 46.890625 
Q 22.3125 44.4375 30.421875 42.921875 
L 36.375 41.703125 
Q 47.40625 39.59375 52.65625 34.296875 
Q 57.90625 29 57.90625 20.125 
Q 57.90625 9.515625 50.796875 4.046875 
Q 43.703125 -1.421875 29.984375 -1.421875 
Q 24.8125 -1.421875 18.96875 -0.25 
Q 13.140625 0.921875 6.890625 3.21875 
L 6.890625 13.375 
Q 12.890625 10.015625 18.65625 8.296875 
Q 24.421875 6.59375 29.984375 6.59375 
Q 38.421875 6.59375 43.015625 9.90625 
Q 47.609375 13.234375 47.609375 19.390625 
Q 47.609375 24.75 44.3125 27.78125 
Q 41.015625 30.8125 33.5 32.328125 
L 27.484375 33.5 
Q 16.453125 35.6875 11.515625 40.375 
Q 6.59375 45.0625 6.59375 53.421875 
Q 6.59375 63.09375 13.40625 68.65625 
Q 20.21875 74.21875 32.171875 74.21875 
Q 37.3125 74.21875 42.625 73.28125 
Q 47.953125 72.359375 53.515625 70.515625 
z
" id="DejaVuSans-83"/>
      <path d="M 54.890625 33.015625 
L 54.890625 0 
L 45.90625 0 
L 45.90625 32.71875 
Q 45.90625 40.484375 42.875 44.328125 
Q 39.84375 48.1875 33.796875 48.1875 
Q 26.515625 48.1875 22.3125 43.546875 
Q 18.109375 38.921875 18.109375 30.90625 
L 18.109375 0 
L 9.078125 0 
L 9.078125 75.984375 
L 18.109375 75.984375 
L 18.109375 46.1875 
Q 21.34375 51.125 25.703125 53.5625 
Q 30.078125 56 35.796875 56 
Q 45.21875 56 50.046875 50.171875 
Q 54.890625 44.34375 54.890625 33.015625 
z
" id="DejaVuSans-104"/>
      <path d="M -0.296875 72.90625 
L 61.375 72.90625 
L 61.375 64.59375 
L 35.5 64.59375 
L 35.5 0 
L 25.59375 0 
L 25.59375 64.59375 
L -0.296875 64.59375 
z
" id="DejaVuSans-84"/>
     </defs>
     <use xlink:href="#DejaVuSans-83"/>
     <use x="63.476562" xlink:href="#DejaVuSans-111"/>
     <use x="124.658203" xlink:href="#DejaVuSans-117"/>
     <use x="188.037109" xlink:href="#DejaVuSans-116"/>
     <use x="227.246094" xlink:href="#DejaVuSans-104"/>
     <use x="290.625" xlink:href="#DejaVuSans-32"/>
     <use x="322.412109" xlink:href="#DejaVuSans-84"/>
     <use x="367.871094" xlink:href="#DejaVuSans-121"/>
     <use x="427.050781" xlink:href="#DejaVuSans-114"/>
     <use x="465.914062" xlink:href="#DejaVuSans-111"/>
     <use x="527.095703" xlink:href="#DejaVuSans-108"/>
    </g>
   </g>
  </g>
 </g>
 <defs>
  <clipPath id="p1009e1459c">
   <rect height="266.112" width="357.12" x="59.328125" y="22.318125"/>
  </clipPath>
 </defs>
</svg>
