<?xml version="1.0" encoding="utf-8" standalone="no"?>
<!DOCTYPE svg PUBLIC "-//W3C//DTD SVG 1.1//EN"
  "http://www.w3.org/Graphics/SVG/1.1/DTD/svg11.dtd">
<!-- Created with matplotlib (https://matplotlib.org/) -->
<svg height="364.091062pt" version="1.1" viewBox="0 0 427.877768 364.091062" width="427.877768pt" xmlns="http://www.w3.org/2000/svg" xmlns:xlink="http://www.w3.org/1999/xlink">
 <metadata>
  <rdf:RDF xmlns:cc="http://creativecommons.org/ns#" xmlns:dc="http://purl.org/dc/elements/1.1/" xmlns:rdf="http://www.w3.org/1999/02/22-rdf-syntax-ns#">
   <cc:Work>
    <dc:type rdf:resource="http://purl.org/dc/dcmitype/StillImage"/>
    <dc:date>2021-01-01T12:34:04.463320</dc:date>
    <dc:format>image/svg+xml</dc:format>
    <dc:creator>
     <cc:Agent>
      <dc:title>Matplotlib v3.3.3, https://matplotlib.org/</dc:title>
     </cc:Agent>
    </dc:creator>
   </cc:Work>
  </rdf:RDF>
 </metadata>
 <defs>
  <style type="text/css">*{stroke-linecap:butt;stroke-linejoin:round;}</style>
 </defs>
 <g id="figure_1">
  <g id="patch_1">
   <path d="M 0 364.091062 
L 427.877768 364.091062 
L 427.877768 0 
L 0 0 
z
" style="fill:#ffffff;"/>
  </g>
  <g id="axes_1">
   <g id="patch_2">
    <path d="M 59.328125 288.430125 
L 416.448125 288.430125 
L 416.448125 22.318125 
L 59.328125 22.318125 
z
" style="fill:#ffffff;"/>
   </g>
   <g id="patch_3">
    <path clip-path="url(#pc10900fada)" d="M 59.450009 288.430125 
L 60.425081 288.430125 
L 60.425081 116.351753 
L 59.450009 116.351753 
z
" style="fill:#1f77b4;"/>
   </g>
   <g id="patch_4">
    <path clip-path="url(#pc10900fada)" d="M 60.668849 288.430125 
L 61.64392 288.430125 
L 61.64392 262.78459 
L 60.668849 262.78459 
z
" style="fill:#1f77b4;"/>
   </g>
   <g id="patch_5">
    <path clip-path="url(#pc10900fada)" d="M 61.887688 288.430125 
L 62.86276 288.430125 
L 62.86276 244.896038 
L 61.887688 244.896038 
z
" style="fill:#1f77b4;"/>
   </g>
   <g id="patch_6">
    <path clip-path="url(#pc10900fada)" d="M 63.106528 288.430125 
L 64.081599 288.430125 
L 64.081599 213.868107 
L 63.106528 213.868107 
z
" style="fill:#1f77b4;"/>
   </g>
   <g id="patch_7">
    <path clip-path="url(#pc10900fada)" d="M 64.325367 288.430125 
L 65.300439 288.430125 
L 65.300439 207.852488 
L 64.325367 207.852488 
z
" style="fill:#1f77b4;"/>
   </g>
   <g id="patch_8">
    <path clip-path="url(#pc10900fada)" d="M 65.544207 288.430125 
L 66.519279 288.430125 
L 66.519279 195.02972 
L 65.544207 195.02972 
z
" style="fill:#1f77b4;"/>
   </g>
   <g id="patch_9">
    <path clip-path="url(#pc10900fada)" d="M 66.763047 288.430125 
L 67.738118 288.430125 
L 67.738118 223.999676 
L 66.763047 223.999676 
z
" style="fill:#1f77b4;"/>
   </g>
   <g id="patch_10">
    <path clip-path="url(#pc10900fada)" d="M 67.981886 288.430125 
L 68.956958 288.430125 
L 68.956958 244.737732 
L 67.981886 244.737732 
z
" style="fill:#1f77b4;"/>
   </g>
   <g id="patch_11">
    <path clip-path="url(#pc10900fada)" d="M 69.200726 288.430125 
L 70.175797 288.430125 
L 70.175797 251.861492 
L 69.200726 251.861492 
z
" style="fill:#1f77b4;"/>
   </g>
   <g id="patch_12">
    <path clip-path="url(#pc10900fada)" d="M 70.419565 288.430125 
L 71.394637 288.430125 
L 71.394637 243.471286 
L 70.419565 243.471286 
z
" style="fill:#1f77b4;"/>
   </g>
   <g id="patch_13">
    <path clip-path="url(#pc10900fada)" d="M 71.638405 288.430125 
L 72.613477 288.430125 
L 72.613477 254.394384 
L 71.638405 254.394384 
z
" style="fill:#1f77b4;"/>
   </g>
   <g id="patch_14">
    <path clip-path="url(#pc10900fada)" d="M 72.857244 288.430125 
L 73.832316 288.430125 
L 73.832316 227.957321 
L 72.857244 227.957321 
z
" style="fill:#1f77b4;"/>
   </g>
   <g id="patch_15">
    <path clip-path="url(#pc10900fada)" d="M 74.076084 288.430125 
L 75.051156 288.430125 
L 75.051156 236.822444 
L 74.076084 236.822444 
z
" style="fill:#1f77b4;"/>
   </g>
   <g id="patch_16">
    <path clip-path="url(#pc10900fada)" d="M 75.294924 288.430125 
L 76.269995 288.430125 
L 76.269995 241.888229 
L 75.294924 241.888229 
z
" style="fill:#1f77b4;"/>
   </g>
   <g id="patch_17">
    <path clip-path="url(#pc10900fada)" d="M 76.513763 288.430125 
L 77.488835 288.430125 
L 77.488835 211.651826 
L 76.513763 211.651826 
z
" style="fill:#1f77b4;"/>
   </g>
   <g id="patch_18">
    <path clip-path="url(#pc10900fada)" d="M 77.732603 288.430125 
L 78.707674 288.430125 
L 78.707674 247.270625 
L 77.732603 247.270625 
z
" style="fill:#1f77b4;"/>
   </g>
   <g id="patch_19">
    <path clip-path="url(#pc10900fada)" d="M 78.951442 288.430125 
L 79.926514 288.430125 
L 79.926514 244.737732 
L 78.951442 244.737732 
z
" style="fill:#1f77b4;"/>
   </g>
   <g id="patch_20">
    <path clip-path="url(#pc10900fada)" d="M 80.170282 288.430125 
L 81.145354 288.430125 
L 81.145354 243.787898 
L 80.170282 243.787898 
z
" style="fill:#1f77b4;"/>
   </g>
   <g id="patch_21">
    <path clip-path="url(#pc10900fada)" d="M 81.389122 288.430125 
L 82.364193 288.430125 
L 82.364193 245.687567 
L 81.389122 245.687567 
z
" style="fill:#1f77b4;"/>
   </g>
   <g id="patch_22">
    <path clip-path="url(#pc10900fada)" d="M 82.607961 288.430125 
L 83.583033 288.430125 
L 83.583033 215.767776 
L 82.607961 215.767776 
z
" style="fill:#1f77b4;"/>
   </g>
   <g id="patch_23">
    <path clip-path="url(#pc10900fada)" d="M 83.826801 288.430125 
L 84.801872 288.430125 
L 84.801872 209.435546 
L 83.826801 209.435546 
z
" style="fill:#1f77b4;"/>
   </g>
   <g id="patch_24">
    <path clip-path="url(#pc10900fada)" d="M 85.04564 288.430125 
L 86.020712 288.430125 
L 86.020712 241.255005 
L 85.04564 241.255005 
z
" style="fill:#1f77b4;"/>
   </g>
   <g id="patch_25">
    <path clip-path="url(#pc10900fada)" d="M 86.26448 288.430125 
L 87.239552 288.430125 
L 87.239552 212.285049 
L 86.26448 212.285049 
z
" style="fill:#1f77b4;"/>
   </g>
   <g id="patch_26">
    <path clip-path="url(#pc10900fada)" d="M 87.48332 288.430125 
L 88.458391 288.430125 
L 88.458391 211.968438 
L 87.48332 211.968438 
z
" style="fill:#1f77b4;"/>
   </g>
   <g id="patch_27">
    <path clip-path="url(#pc10900fada)" d="M 88.702159 288.430125 
L 89.677231 288.430125 
L 89.677231 217.192528 
L 88.702159 217.192528 
z
" style="fill:#1f77b4;"/>
   </g>
   <g id="patch_28">
    <path clip-path="url(#pc10900fada)" d="M 89.920999 288.430125 
L 90.89607 288.430125 
L 90.89607 202.628397 
L 89.920999 202.628397 
z
" style="fill:#1f77b4;"/>
   </g>
   <g id="patch_29">
    <path clip-path="url(#pc10900fada)" d="M 91.139838 288.430125 
L 92.11491 288.430125 
L 92.11491 222.258313 
L 91.139838 222.258313 
z
" style="fill:#1f77b4;"/>
   </g>
   <g id="patch_30">
    <path clip-path="url(#pc10900fada)" d="M 92.358678 288.430125 
L 93.33375 288.430125 
L 93.33375 200.887034 
L 92.358678 200.887034 
z
" style="fill:#1f77b4;"/>
   </g>
   <g id="patch_31">
    <path clip-path="url(#pc10900fada)" d="M 93.577517 288.430125 
L 94.552589 288.430125 
L 94.552589 223.208148 
L 93.577517 223.208148 
z
" style="fill:#1f77b4;"/>
   </g>
   <g id="patch_32">
    <path clip-path="url(#pc10900fada)" d="M 94.796357 288.430125 
L 95.771429 288.430125 
L 95.771429 230.331907 
L 94.796357 230.331907 
z
" style="fill:#1f77b4;"/>
   </g>
   <g id="patch_33">
    <path clip-path="url(#pc10900fada)" d="M 96.015197 288.430125 
L 96.990268 288.430125 
L 96.990268 264.684259 
L 96.015197 264.684259 
z
" style="fill:#1f77b4;"/>
   </g>
   <g id="patch_34">
    <path clip-path="url(#pc10900fada)" d="M 97.234036 288.430125 
L 98.209108 288.430125 
L 98.209108 231.914965 
L 97.234036 231.914965 
z
" style="fill:#1f77b4;"/>
   </g>
   <g id="patch_35">
    <path clip-path="url(#pc10900fada)" d="M 98.452876 288.430125 
L 99.427948 288.430125 
L 99.427948 223.366453 
L 98.452876 223.366453 
z
" style="fill:#1f77b4;"/>
   </g>
   <g id="patch_36">
    <path clip-path="url(#pc10900fada)" d="M 99.671715 288.430125 
L 100.646787 288.430125 
L 100.646787 200.887034 
L 99.671715 200.887034 
z
" style="fill:#1f77b4;"/>
   </g>
   <g id="patch_37">
    <path clip-path="url(#pc10900fada)" d="M 100.890555 288.430125 
L 101.865627 288.430125 
L 101.865627 215.292859 
L 100.890555 215.292859 
z
" style="fill:#1f77b4;"/>
   </g>
   <g id="patch_38">
    <path clip-path="url(#pc10900fada)" d="M 102.109395 288.430125 
L 103.084466 288.430125 
L 103.084466 160.835674 
L 102.109395 160.835674 
z
" style="fill:#1f77b4;"/>
   </g>
   <g id="patch_39">
    <path clip-path="url(#pc10900fada)" d="M 103.328234 288.430125 
L 104.303306 288.430125 
L 104.303306 239.988559 
L 103.328234 239.988559 
z
" style="fill:#1f77b4;"/>
   </g>
   <g id="patch_40">
    <path clip-path="url(#pc10900fada)" d="M 104.547074 288.430125 
L 105.522145 288.430125 
L 105.522145 238.405502 
L 104.547074 238.405502 
z
" style="fill:#1f77b4;"/>
   </g>
   <g id="patch_41">
    <path clip-path="url(#pc10900fada)" d="M 105.765913 288.430125 
L 106.740985 288.430125 
L 106.740985 236.030915 
L 105.765913 236.030915 
z
" style="fill:#1f77b4;"/>
   </g>
   <g id="patch_42">
    <path clip-path="url(#pc10900fada)" d="M 106.984753 288.430125 
L 107.959825 288.430125 
L 107.959825 176.666251 
L 106.984753 176.666251 
z
" style="fill:#1f77b4;"/>
   </g>
   <g id="patch_43">
    <path clip-path="url(#pc10900fada)" d="M 108.203593 288.430125 
L 109.178664 288.430125 
L 109.178664 196.296167 
L 108.203593 196.296167 
z
" style="fill:#1f77b4;"/>
   </g>
   <g id="patch_44">
    <path clip-path="url(#pc10900fada)" d="M 109.422432 288.430125 
L 110.397504 288.430125 
L 110.397504 201.520257 
L 109.422432 201.520257 
z
" style="fill:#1f77b4;"/>
   </g>
   <g id="patch_45">
    <path clip-path="url(#pc10900fada)" d="M 110.641272 288.430125 
L 111.616343 288.430125 
L 111.616343 237.455667 
L 110.641272 237.455667 
z
" style="fill:#1f77b4;"/>
   </g>
   <g id="patch_46">
    <path clip-path="url(#pc10900fada)" d="M 111.860111 288.430125 
L 112.835183 288.430125 
L 112.835183 204.844678 
L 111.860111 204.844678 
z
" style="fill:#1f77b4;"/>
   </g>
   <g id="patch_47">
    <path clip-path="url(#pc10900fada)" d="M 113.078951 288.430125 
L 114.054023 288.430125 
L 114.054023 265.634094 
L 113.078951 265.634094 
z
" style="fill:#1f77b4;"/>
   </g>
   <g id="patch_48">
    <path clip-path="url(#pc10900fada)" d="M 114.297791 288.430125 
L 115.272862 288.430125 
L 115.272862 244.579427 
L 114.297791 244.579427 
z
" style="fill:#1f77b4;"/>
   </g>
   <g id="patch_49">
    <path clip-path="url(#pc10900fada)" d="M 115.51663 288.430125 
L 116.491702 288.430125 
L 116.491702 235.555998 
L 115.51663 235.555998 
z
" style="fill:#1f77b4;"/>
   </g>
   <g id="patch_50">
    <path clip-path="url(#pc10900fada)" d="M 116.73547 288.430125 
L 117.710541 288.430125 
L 117.710541 205.002984 
L 116.73547 205.002984 
z
" style="fill:#1f77b4;"/>
   </g>
   <g id="patch_51">
    <path clip-path="url(#pc10900fada)" d="M 117.954309 288.430125 
L 118.929381 288.430125 
L 118.929381 236.030915 
L 117.954309 236.030915 
z
" style="fill:#1f77b4;"/>
   </g>
   <g id="patch_52">
    <path clip-path="url(#pc10900fada)" d="M 119.173149 288.430125 
L 120.148221 288.430125 
L 120.148221 267.850375 
L 119.173149 267.850375 
z
" style="fill:#1f77b4;"/>
   </g>
   <g id="patch_53">
    <path clip-path="url(#pc10900fada)" d="M 120.391988 288.430125 
L 121.36706 288.430125 
L 121.36706 261.993061 
L 120.391988 261.993061 
z
" style="fill:#1f77b4;"/>
   </g>
   <g id="patch_54">
    <path clip-path="url(#pc10900fada)" d="M 121.610828 288.430125 
L 122.5859 288.430125 
L 122.5859 252.336409 
L 121.610828 252.336409 
z
" style="fill:#1f77b4;"/>
   </g>
   <g id="patch_55">
    <path clip-path="url(#pc10900fada)" d="M 122.829668 288.430125 
L 123.804739 288.430125 
L 123.804739 239.19703 
L 122.829668 239.19703 
z
" style="fill:#1f77b4;"/>
   </g>
   <g id="patch_56">
    <path clip-path="url(#pc10900fada)" d="M 124.048507 288.430125 
L 125.023579 288.430125 
L 125.023579 223.208148 
L 124.048507 223.208148 
z
" style="fill:#1f77b4;"/>
   </g>
   <g id="patch_57">
    <path clip-path="url(#pc10900fada)" d="M 125.267347 288.430125 
L 126.242419 288.430125 
L 126.242419 242.838063 
L 125.267347 242.838063 
z
" style="fill:#1f77b4;"/>
   </g>
   <g id="patch_58">
    <path clip-path="url(#pc10900fada)" d="M 126.486186 288.430125 
L 127.461258 288.430125 
L 127.461258 225.582734 
L 126.486186 225.582734 
z
" style="fill:#1f77b4;"/>
   </g>
   <g id="patch_59">
    <path clip-path="url(#pc10900fada)" d="M 127.705026 288.430125 
L 128.680098 288.430125 
L 128.680098 241.571617 
L 127.705026 241.571617 
z
" style="fill:#1f77b4;"/>
   </g>
   <g id="patch_60">
    <path clip-path="url(#pc10900fada)" d="M 128.923866 288.430125 
L 129.898937 288.430125 
L 129.898937 251.228269 
L 128.923866 251.228269 
z
" style="fill:#1f77b4;"/>
   </g>
   <g id="patch_61">
    <path clip-path="url(#pc10900fada)" d="M 130.142705 288.430125 
L 131.117777 288.430125 
L 131.117777 251.861492 
L 130.142705 251.861492 
z
" style="fill:#1f77b4;"/>
   </g>
   <g id="patch_62">
    <path clip-path="url(#pc10900fada)" d="M 131.361545 288.430125 
L 132.336616 288.430125 
L 132.336616 226.84918 
L 131.361545 226.84918 
z
" style="fill:#1f77b4;"/>
   </g>
   <g id="patch_63">
    <path clip-path="url(#pc10900fada)" d="M 132.580384 288.430125 
L 133.555456 288.430125 
L 133.555456 230.331907 
L 132.580384 230.331907 
z
" style="fill:#1f77b4;"/>
   </g>
   <g id="patch_64">
    <path clip-path="url(#pc10900fada)" d="M 133.799224 288.430125 
L 134.774296 288.430125 
L 134.774296 212.126744 
L 133.799224 212.126744 
z
" style="fill:#1f77b4;"/>
   </g>
   <g id="patch_65">
    <path clip-path="url(#pc10900fada)" d="M 135.018064 288.430125 
L 135.993135 288.430125 
L 135.993135 233.498023 
L 135.018064 233.498023 
z
" style="fill:#1f77b4;"/>
   </g>
   <g id="patch_66">
    <path clip-path="url(#pc10900fada)" d="M 136.236903 288.430125 
L 137.211975 288.430125 
L 137.211975 231.281742 
L 136.236903 231.281742 
z
" style="fill:#1f77b4;"/>
   </g>
   <g id="patch_67">
    <path clip-path="url(#pc10900fada)" d="M 137.455743 288.430125 
L 138.430814 288.430125 
L 138.430814 248.378765 
L 137.455743 248.378765 
z
" style="fill:#1f77b4;"/>
   </g>
   <g id="patch_68">
    <path clip-path="url(#pc10900fada)" d="M 138.674582 288.430125 
L 139.649654 288.430125 
L 139.649654 235.714303 
L 138.674582 235.714303 
z
" style="fill:#1f77b4;"/>
   </g>
   <g id="patch_69">
    <path clip-path="url(#pc10900fada)" d="M 139.893422 288.430125 
L 140.868494 288.430125 
L 140.868494 234.922775 
L 139.893422 234.922775 
z
" style="fill:#1f77b4;"/>
   </g>
   <g id="patch_70">
    <path clip-path="url(#pc10900fada)" d="M 141.112262 288.430125 
L 142.087333 288.430125 
L 142.087333 225.424428 
L 141.112262 225.424428 
z
" style="fill:#1f77b4;"/>
   </g>
   <g id="patch_71">
    <path clip-path="url(#pc10900fada)" d="M 142.331101 288.430125 
L 143.306173 288.430125 
L 143.306173 195.662944 
L 142.331101 195.662944 
z
" style="fill:#1f77b4;"/>
   </g>
   <g id="patch_72">
    <path clip-path="url(#pc10900fada)" d="M 143.549941 288.430125 
L 144.525012 288.430125 
L 144.525012 135.823362 
L 143.549941 135.823362 
z
" style="fill:#1f77b4;"/>
   </g>
   <g id="patch_73">
    <path clip-path="url(#pc10900fada)" d="M 144.76878 288.430125 
L 145.743852 288.430125 
L 145.743852 226.84918 
L 144.76878 226.84918 
z
" style="fill:#1f77b4;"/>
   </g>
   <g id="patch_74">
    <path clip-path="url(#pc10900fada)" d="M 145.98762 288.430125 
L 146.962692 288.430125 
L 146.962692 248.695377 
L 145.98762 248.695377 
z
" style="fill:#1f77b4;"/>
   </g>
   <g id="patch_75">
    <path clip-path="url(#pc10900fada)" d="M 147.206459 288.430125 
L 148.181531 288.430125 
L 148.181531 254.869302 
L 147.206459 254.869302 
z
" style="fill:#1f77b4;"/>
   </g>
   <g id="patch_76">
    <path clip-path="url(#pc10900fada)" d="M 148.425299 288.430125 
L 149.400371 288.430125 
L 149.400371 223.841371 
L 148.425299 223.841371 
z
" style="fill:#1f77b4;"/>
   </g>
   <g id="patch_77">
    <path clip-path="url(#pc10900fada)" d="M 149.644139 288.430125 
L 150.61921 288.430125 
L 150.61921 218.458974 
L 149.644139 218.458974 
z
" style="fill:#1f77b4;"/>
   </g>
   <g id="patch_78">
    <path clip-path="url(#pc10900fada)" d="M 150.862978 288.430125 
L 151.83805 288.430125 
L 151.83805 220.51695 
L 150.862978 220.51695 
z
" style="fill:#1f77b4;"/>
   </g>
   <g id="patch_79">
    <path clip-path="url(#pc10900fada)" d="M 152.081818 288.430125 
L 153.05689 288.430125 
L 153.05689 189.014101 
L 152.081818 189.014101 
z
" style="fill:#1f77b4;"/>
   </g>
   <g id="patch_80">
    <path clip-path="url(#pc10900fada)" d="M 153.300657 288.430125 
L 154.275729 288.430125 
L 154.275729 212.126744 
L 153.300657 212.126744 
z
" style="fill:#1f77b4;"/>
   </g>
   <g id="patch_81">
    <path clip-path="url(#pc10900fada)" d="M 154.519497 288.430125 
L 155.494569 288.430125 
L 155.494569 214.976248 
L 154.519497 214.976248 
z
" style="fill:#1f77b4;"/>
   </g>
   <g id="patch_82">
    <path clip-path="url(#pc10900fada)" d="M 155.738337 288.430125 
L 156.713408 288.430125 
L 156.713408 232.073271 
L 155.738337 232.073271 
z
" style="fill:#1f77b4;"/>
   </g>
   <g id="patch_83">
    <path clip-path="url(#pc10900fada)" d="M 156.957176 288.430125 
L 157.932248 288.430125 
L 157.932248 258.352029 
L 156.957176 258.352029 
z
" style="fill:#1f77b4;"/>
   </g>
   <g id="patch_84">
    <path clip-path="url(#pc10900fada)" d="M 158.176016 288.430125 
L 159.151087 288.430125 
L 159.151087 235.397692 
L 158.176016 235.397692 
z
" style="fill:#1f77b4;"/>
   </g>
   <g id="patch_85">
    <path clip-path="url(#pc10900fada)" d="M 159.394855 288.430125 
L 160.369927 288.430125 
L 160.369927 204.528067 
L 159.394855 204.528067 
z
" style="fill:#1f77b4;"/>
   </g>
   <g id="patch_86">
    <path clip-path="url(#pc10900fada)" d="M 160.613695 288.430125 
L 161.588767 288.430125 
L 161.588767 189.330713 
L 160.613695 189.330713 
z
" style="fill:#1f77b4;"/>
   </g>
   <g id="patch_87">
    <path clip-path="url(#pc10900fada)" d="M 161.832535 288.430125 
L 162.807606 288.430125 
L 162.807606 185.056457 
L 161.832535 185.056457 
z
" style="fill:#1f77b4;"/>
   </g>
   <g id="patch_88">
    <path clip-path="url(#pc10900fada)" d="M 163.051374 288.430125 
L 164.026446 288.430125 
L 164.026446 230.96513 
L 163.051374 230.96513 
z
" style="fill:#1f77b4;"/>
   </g>
   <g id="patch_89">
    <path clip-path="url(#pc10900fada)" d="M 164.270214 288.430125 
L 165.245285 288.430125 
L 165.245285 240.938394 
L 164.270214 240.938394 
z
" style="fill:#1f77b4;"/>
   </g>
   <g id="patch_90">
    <path clip-path="url(#pc10900fada)" d="M 165.489053 288.430125 
L 166.464125 288.430125 
L 166.464125 202.786703 
L 165.489053 202.786703 
z
" style="fill:#1f77b4;"/>
   </g>
   <g id="patch_91">
    <path clip-path="url(#pc10900fada)" d="M 166.707893 288.430125 
L 167.682965 288.430125 
L 167.682965 224.316288 
L 166.707893 224.316288 
z
" style="fill:#1f77b4;"/>
   </g>
   <g id="patch_92">
    <path clip-path="url(#pc10900fada)" d="M 167.926733 288.430125 
L 168.901804 288.430125 
L 168.901804 221.783396 
L 167.926733 221.783396 
z
" style="fill:#1f77b4;"/>
   </g>
   <g id="patch_93">
    <path clip-path="url(#pc10900fada)" d="M 169.145572 288.430125 
L 170.120644 288.430125 
L 170.120644 222.100007 
L 169.145572 222.100007 
z
" style="fill:#1f77b4;"/>
   </g>
   <g id="patch_94">
    <path clip-path="url(#pc10900fada)" d="M 170.364412 288.430125 
L 171.339483 288.430125 
L 171.339483 254.55269 
L 170.364412 254.55269 
z
" style="fill:#1f77b4;"/>
   </g>
   <g id="patch_95">
    <path clip-path="url(#pc10900fada)" d="M 171.583251 288.430125 
L 172.558323 288.430125 
L 172.558323 274.0243 
L 171.583251 274.0243 
z
" style="fill:#1f77b4;"/>
   </g>
   <g id="patch_96">
    <path clip-path="url(#pc10900fada)" d="M 172.802091 288.430125 
L 173.777163 288.430125 
L 173.777163 251.544881 
L 172.802091 251.544881 
z
" style="fill:#1f77b4;"/>
   </g>
   <g id="patch_97">
    <path clip-path="url(#pc10900fada)" d="M 174.02093 288.430125 
L 174.996002 288.430125 
L 174.996002 244.262815 
L 174.02093 244.262815 
z
" style="fill:#1f77b4;"/>
   </g>
   <g id="patch_98">
    <path clip-path="url(#pc10900fada)" d="M 175.23977 288.430125 
L 176.214842 288.430125 
L 176.214842 232.548188 
L 175.23977 232.548188 
z
" style="fill:#1f77b4;"/>
   </g>
   <g id="patch_99">
    <path clip-path="url(#pc10900fada)" d="M 176.45861 288.430125 
L 177.433681 288.430125 
L 177.433681 241.729923 
L 176.45861 241.729923 
z
" style="fill:#1f77b4;"/>
   </g>
   <g id="patch_100">
    <path clip-path="url(#pc10900fada)" d="M 177.677449 288.430125 
L 178.652521 288.430125 
L 178.652521 222.258313 
L 177.677449 222.258313 
z
" style="fill:#1f77b4;"/>
   </g>
   <g id="patch_101">
    <path clip-path="url(#pc10900fada)" d="M 178.896289 288.430125 
L 179.87136 288.430125 
L 179.87136 249.961823 
L 178.896289 249.961823 
z
" style="fill:#1f77b4;"/>
   </g>
   <g id="patch_102">
    <path clip-path="url(#pc10900fada)" d="M 180.115128 288.430125 
L 181.0902 288.430125 
L 181.0902 269.90835 
L 180.115128 269.90835 
z
" style="fill:#1f77b4;"/>
   </g>
   <g id="patch_103">
    <path clip-path="url(#pc10900fada)" d="M 181.333968 288.430125 
L 182.30904 288.430125 
L 182.30904 238.880419 
L 181.333968 238.880419 
z
" style="fill:#1f77b4;"/>
   </g>
   <g id="patch_104">
    <path clip-path="url(#pc10900fada)" d="M 182.552808 288.430125 
L 183.527879 288.430125 
L 183.527879 242.20484 
L 182.552808 242.20484 
z
" style="fill:#1f77b4;"/>
   </g>
   <g id="patch_105">
    <path clip-path="url(#pc10900fada)" d="M 183.771647 288.430125 
L 184.746719 288.430125 
L 184.746719 231.440048 
L 183.771647 231.440048 
z
" style="fill:#1f77b4;"/>
   </g>
   <g id="patch_106">
    <path clip-path="url(#pc10900fada)" d="M 184.990487 288.430125 
L 185.965558 288.430125 
L 185.965558 242.20484 
L 184.990487 242.20484 
z
" style="fill:#1f77b4;"/>
   </g>
   <g id="patch_107">
    <path clip-path="url(#pc10900fada)" d="M 186.209326 288.430125 
L 187.184398 288.430125 
L 187.184398 234.289552 
L 186.209326 234.289552 
z
" style="fill:#1f77b4;"/>
   </g>
   <g id="patch_108">
    <path clip-path="url(#pc10900fada)" d="M 187.428166 288.430125 
L 188.403238 288.430125 
L 188.403238 248.537071 
L 187.428166 248.537071 
z
" style="fill:#1f77b4;"/>
   </g>
   <g id="patch_109">
    <path clip-path="url(#pc10900fada)" d="M 188.647006 288.430125 
L 189.622077 288.430125 
L 189.622077 261.834756 
L 188.647006 261.834756 
z
" style="fill:#1f77b4;"/>
   </g>
   <g id="patch_110">
    <path clip-path="url(#pc10900fada)" d="M 189.865845 288.430125 
L 190.840917 288.430125 
L 190.840917 239.988559 
L 189.865845 239.988559 
z
" style="fill:#1f77b4;"/>
   </g>
   <g id="patch_111">
    <path clip-path="url(#pc10900fada)" d="M 191.084685 288.430125 
L 192.059756 288.430125 
L 192.059756 220.675255 
L 191.084685 220.675255 
z
" style="fill:#1f77b4;"/>
   </g>
   <g id="patch_112">
    <path clip-path="url(#pc10900fada)" d="M 192.303524 288.430125 
L 193.278596 288.430125 
L 193.278596 241.413311 
L 192.303524 241.413311 
z
" style="fill:#1f77b4;"/>
   </g>
   <g id="patch_113">
    <path clip-path="url(#pc10900fada)" d="M 193.522364 288.430125 
L 194.497436 288.430125 
L 194.497436 236.030915 
L 193.522364 236.030915 
z
" style="fill:#1f77b4;"/>
   </g>
   <g id="patch_114">
    <path clip-path="url(#pc10900fada)" d="M 194.741203 288.430125 
L 195.716275 288.430125 
L 195.716275 230.173602 
L 194.741203 230.173602 
z
" style="fill:#1f77b4;"/>
   </g>
   <g id="patch_115">
    <path clip-path="url(#pc10900fada)" d="M 195.960043 288.430125 
L 196.935115 288.430125 
L 196.935115 227.165792 
L 195.960043 227.165792 
z
" style="fill:#1f77b4;"/>
   </g>
   <g id="patch_116">
    <path clip-path="url(#pc10900fada)" d="M 197.178883 288.430125 
L 198.153954 288.430125 
L 198.153954 272.124631 
L 197.178883 272.124631 
z
" style="fill:#1f77b4;"/>
   </g>
   <g id="patch_117">
    <path clip-path="url(#pc10900fada)" d="M 198.397722 288.430125 
L 199.372794 288.430125 
L 199.372794 259.301863 
L 198.397722 259.301863 
z
" style="fill:#1f77b4;"/>
   </g>
   <g id="patch_118">
    <path clip-path="url(#pc10900fada)" d="M 199.616562 288.430125 
L 200.591634 288.430125 
L 200.591634 213.234884 
L 199.616562 213.234884 
z
" style="fill:#1f77b4;"/>
   </g>
   <g id="patch_119">
    <path clip-path="url(#pc10900fada)" d="M 200.835401 288.430125 
L 201.810473 288.430125 
L 201.810473 238.880419 
L 200.835401 238.880419 
z
" style="fill:#1f77b4;"/>
   </g>
   <g id="patch_120">
    <path clip-path="url(#pc10900fada)" d="M 202.054241 288.430125 
L 203.029313 288.430125 
L 203.029313 228.907155 
L 202.054241 228.907155 
z
" style="fill:#1f77b4;"/>
   </g>
   <g id="patch_121">
    <path clip-path="url(#pc10900fada)" d="M 203.273081 288.430125 
L 204.248152 288.430125 
L 204.248152 190.122242 
L 203.273081 190.122242 
z
" style="fill:#1f77b4;"/>
   </g>
   <g id="patch_122">
    <path clip-path="url(#pc10900fada)" d="M 204.49192 288.430125 
L 205.466992 288.430125 
L 205.466992 213.39319 
L 204.49192 213.39319 
z
" style="fill:#1f77b4;"/>
   </g>
   <g id="patch_123">
    <path clip-path="url(#pc10900fada)" d="M 205.71076 288.430125 
L 206.685831 288.430125 
L 206.685831 270.224961 
L 205.71076 270.224961 
z
" style="fill:#1f77b4;"/>
   </g>
   <g id="patch_124">
    <path clip-path="url(#pc10900fada)" d="M 206.929599 288.430125 
L 207.904671 288.430125 
L 207.904671 197.246001 
L 206.929599 197.246001 
z
" style="fill:#1f77b4;"/>
   </g>
   <g id="patch_125">
    <path clip-path="url(#pc10900fada)" d="M 208.148439 288.430125 
L 209.123511 288.430125 
L 209.123511 196.92939 
L 208.148439 196.92939 
z
" style="fill:#1f77b4;"/>
   </g>
   <g id="patch_126">
    <path clip-path="url(#pc10900fada)" d="M 209.367279 288.430125 
L 210.34235 288.430125 
L 210.34235 197.562613 
L 209.367279 197.562613 
z
" style="fill:#1f77b4;"/>
   </g>
   <g id="patch_127">
    <path clip-path="url(#pc10900fada)" d="M 210.586118 288.430125 
L 211.56119 288.430125 
L 211.56119 195.979555 
L 210.586118 195.979555 
z
" style="fill:#1f77b4;"/>
   </g>
   <g id="patch_128">
    <path clip-path="url(#pc10900fada)" d="M 211.804958 288.430125 
L 212.780029 288.430125 
L 212.780029 194.238192 
L 211.804958 194.238192 
z
" style="fill:#1f77b4;"/>
   </g>
   <g id="patch_129">
    <path clip-path="url(#pc10900fada)" d="M 213.023797 288.430125 
L 213.998869 288.430125 
L 213.998869 244.579427 
L 213.023797 244.579427 
z
" style="fill:#1f77b4;"/>
   </g>
   <g id="patch_130">
    <path clip-path="url(#pc10900fada)" d="M 214.242637 288.430125 
L 215.217709 288.430125 
L 215.217709 248.853682 
L 214.242637 248.853682 
z
" style="fill:#1f77b4;"/>
   </g>
   <g id="patch_131">
    <path clip-path="url(#pc10900fada)" d="M 215.461477 288.430125 
L 216.436548 288.430125 
L 216.436548 254.869302 
L 215.461477 254.869302 
z
" style="fill:#1f77b4;"/>
   </g>
   <g id="patch_132">
    <path clip-path="url(#pc10900fada)" d="M 216.680316 288.430125 
L 217.655388 288.430125 
L 217.655388 201.520257 
L 216.680316 201.520257 
z
" style="fill:#1f77b4;"/>
   </g>
   <g id="patch_133">
    <path clip-path="url(#pc10900fada)" d="M 217.899156 288.430125 
L 218.874227 288.430125 
L 218.874227 248.220459 
L 217.899156 248.220459 
z
" style="fill:#1f77b4;"/>
   </g>
   <g id="patch_134">
    <path clip-path="url(#pc10900fada)" d="M 219.117995 288.430125 
L 220.093067 288.430125 
L 220.093067 164.160095 
L 219.117995 164.160095 
z
" style="fill:#1f77b4;"/>
   </g>
   <g id="patch_135">
    <path clip-path="url(#pc10900fada)" d="M 220.336835 288.430125 
L 221.311907 288.430125 
L 221.311907 184.739845 
L 220.336835 184.739845 
z
" style="fill:#1f77b4;"/>
   </g>
   <g id="patch_136">
    <path clip-path="url(#pc10900fada)" d="M 221.555674 288.430125 
L 222.530746 288.430125 
L 222.530746 205.794513 
L 221.555674 205.794513 
z
" style="fill:#1f77b4;"/>
   </g>
   <g id="patch_137">
    <path clip-path="url(#pc10900fada)" d="M 222.774514 288.430125 
L 223.749586 288.430125 
L 223.749586 239.355336 
L 222.774514 239.355336 
z
" style="fill:#1f77b4;"/>
   </g>
   <g id="patch_138">
    <path clip-path="url(#pc10900fada)" d="M 223.993354 288.430125 
L 224.968425 288.430125 
L 224.968425 255.185913 
L 223.993354 255.185913 
z
" style="fill:#1f77b4;"/>
   </g>
   <g id="patch_139">
    <path clip-path="url(#pc10900fada)" d="M 225.212193 288.430125 
L 226.187265 288.430125 
L 226.187265 201.520257 
L 225.212193 201.520257 
z
" style="fill:#1f77b4;"/>
   </g>
   <g id="patch_140">
    <path clip-path="url(#pc10900fada)" d="M 226.431033 288.430125 
L 227.406105 288.430125 
L 227.406105 196.92939 
L 226.431033 196.92939 
z
" style="fill:#1f77b4;"/>
   </g>
   <g id="patch_141">
    <path clip-path="url(#pc10900fada)" d="M 227.649872 288.430125 
L 228.624944 288.430125 
L 228.624944 175.241499 
L 227.649872 175.241499 
z
" style="fill:#1f77b4;"/>
   </g>
   <g id="patch_142">
    <path clip-path="url(#pc10900fada)" d="M 228.868712 288.430125 
L 229.843784 288.430125 
L 229.843784 198.354142 
L 228.868712 198.354142 
z
" style="fill:#1f77b4;"/>
   </g>
   <g id="patch_143">
    <path clip-path="url(#pc10900fada)" d="M 230.087552 288.430125 
L 231.062623 288.430125 
L 231.062623 191.863605 
L 230.087552 191.863605 
z
" style="fill:#1f77b4;"/>
   </g>
   <g id="patch_144">
    <path clip-path="url(#pc10900fada)" d="M 231.306391 288.430125 
L 232.281463 288.430125 
L 232.281463 229.540378 
L 231.306391 229.540378 
z
" style="fill:#1f77b4;"/>
   </g>
   <g id="patch_145">
    <path clip-path="url(#pc10900fada)" d="M 232.525231 288.430125 
L 233.500302 288.430125 
L 233.500302 246.162484 
L 232.525231 246.162484 
z
" style="fill:#1f77b4;"/>
   </g>
   <g id="patch_146">
    <path clip-path="url(#pc10900fada)" d="M 233.74407 288.430125 
L 234.719142 288.430125 
L 234.719142 191.230382 
L 233.74407 191.230382 
z
" style="fill:#1f77b4;"/>
   </g>
   <g id="patch_147">
    <path clip-path="url(#pc10900fada)" d="M 234.96291 288.430125 
L 235.937982 288.430125 
L 235.937982 176.34964 
L 234.96291 176.34964 
z
" style="fill:#1f77b4;"/>
   </g>
   <g id="patch_148">
    <path clip-path="url(#pc10900fada)" d="M 236.18175 288.430125 
L 237.156821 288.430125 
L 237.156821 186.956126 
L 236.18175 186.956126 
z
" style="fill:#1f77b4;"/>
   </g>
   <g id="patch_149">
    <path clip-path="url(#pc10900fada)" d="M 237.400589 288.430125 
L 238.375661 288.430125 
L 238.375661 186.164597 
L 237.400589 186.164597 
z
" style="fill:#1f77b4;"/>
   </g>
   <g id="patch_150">
    <path clip-path="url(#pc10900fada)" d="M 238.619429 288.430125 
L 239.5945 288.430125 
L 239.5945 189.172407 
L 238.619429 189.172407 
z
" style="fill:#1f77b4;"/>
   </g>
   <g id="patch_151">
    <path clip-path="url(#pc10900fada)" d="M 239.838268 288.430125 
L 240.81334 288.430125 
L 240.81334 248.062154 
L 239.838268 248.062154 
z
" style="fill:#1f77b4;"/>
   </g>
   <g id="patch_152">
    <path clip-path="url(#pc10900fada)" d="M 241.057108 288.430125 
L 242.03218 288.430125 
L 242.03218 244.262815 
L 241.057108 244.262815 
z
" style="fill:#1f77b4;"/>
   </g>
   <g id="patch_153">
    <path clip-path="url(#pc10900fada)" d="M 242.275948 288.430125 
L 243.251019 288.430125 
L 243.251019 145.63832 
L 242.275948 145.63832 
z
" style="fill:#1f77b4;"/>
   </g>
   <g id="patch_154">
    <path clip-path="url(#pc10900fada)" d="M 243.494787 288.430125 
L 244.469859 288.430125 
L 244.469859 97.038449 
L 243.494787 97.038449 
z
" style="fill:#1f77b4;"/>
   </g>
   <g id="patch_155">
    <path clip-path="url(#pc10900fada)" d="M 244.713627 288.430125 
L 245.688698 288.430125 
L 245.688698 178.56592 
L 244.713627 178.56592 
z
" style="fill:#1f77b4;"/>
   </g>
   <g id="patch_156">
    <path clip-path="url(#pc10900fada)" d="M 245.932466 288.430125 
L 246.907538 288.430125 
L 246.907538 158.461088 
L 245.932466 158.461088 
z
" style="fill:#1f77b4;"/>
   </g>
   <g id="patch_157">
    <path clip-path="url(#pc10900fada)" d="M 247.151306 288.430125 
L 248.126378 288.430125 
L 248.126378 214.026413 
L 247.151306 214.026413 
z
" style="fill:#1f77b4;"/>
   </g>
   <g id="patch_158">
    <path clip-path="url(#pc10900fada)" d="M 248.370145 288.430125 
L 249.345217 288.430125 
L 249.345217 232.548188 
L 248.370145 232.548188 
z
" style="fill:#1f77b4;"/>
   </g>
   <g id="patch_159">
    <path clip-path="url(#pc10900fada)" d="M 249.588985 288.430125 
L 250.564057 288.430125 
L 250.564057 229.065461 
L 249.588985 229.065461 
z
" style="fill:#1f77b4;"/>
   </g>
   <g id="patch_160">
    <path clip-path="url(#pc10900fada)" d="M 250.807825 288.430125 
L 251.782896 288.430125 
L 251.782896 158.619393 
L 250.807825 158.619393 
z
" style="fill:#1f77b4;"/>
   </g>
   <g id="patch_161">
    <path clip-path="url(#pc10900fada)" d="M 252.026664 288.430125 
L 253.001736 288.430125 
L 253.001736 174.766582 
L 252.026664 174.766582 
z
" style="fill:#1f77b4;"/>
   </g>
   <g id="patch_162">
    <path clip-path="url(#pc10900fada)" d="M 253.245504 288.430125 
L 254.220576 288.430125 
L 254.220576 157.036336 
L 253.245504 157.036336 
z
" style="fill:#1f77b4;"/>
   </g>
   <g id="patch_163">
    <path clip-path="url(#pc10900fada)" d="M 254.464343 288.430125 
L 255.439415 288.430125 
L 255.439415 104.003903 
L 254.464343 104.003903 
z
" style="fill:#1f77b4;"/>
   </g>
   <g id="patch_164">
    <path clip-path="url(#pc10900fada)" d="M 255.683183 288.430125 
L 256.658255 288.430125 
L 256.658255 190.597159 
L 255.683183 190.597159 
z
" style="fill:#1f77b4;"/>
   </g>
   <g id="patch_165">
    <path clip-path="url(#pc10900fada)" d="M 256.902023 288.430125 
L 257.877094 288.430125 
L 257.877094 233.023105 
L 256.902023 233.023105 
z
" style="fill:#1f77b4;"/>
   </g>
   <g id="patch_166">
    <path clip-path="url(#pc10900fada)" d="M 258.120862 288.430125 
L 259.095934 288.430125 
L 259.095934 233.656328 
L 258.120862 233.656328 
z
" style="fill:#1f77b4;"/>
   </g>
   <g id="patch_167">
    <path clip-path="url(#pc10900fada)" d="M 259.339702 288.430125 
L 260.314773 288.430125 
L 260.314773 160.202451 
L 259.339702 160.202451 
z
" style="fill:#1f77b4;"/>
   </g>
   <g id="patch_168">
    <path clip-path="url(#pc10900fada)" d="M 260.558541 288.430125 
L 261.533613 288.430125 
L 261.533613 214.50133 
L 260.558541 214.50133 
z
" style="fill:#1f77b4;"/>
   </g>
   <g id="patch_169">
    <path clip-path="url(#pc10900fada)" d="M 261.777381 288.430125 
L 262.752453 288.430125 
L 262.752453 171.600466 
L 261.777381 171.600466 
z
" style="fill:#1f77b4;"/>
   </g>
   <g id="patch_170">
    <path clip-path="url(#pc10900fada)" d="M 262.996221 288.430125 
L 263.971292 288.430125 
L 263.971292 174.44997 
L 262.996221 174.44997 
z
" style="fill:#1f77b4;"/>
   </g>
   <g id="patch_171">
    <path clip-path="url(#pc10900fada)" d="M 264.21506 288.430125 
L 265.190132 288.430125 
L 265.190132 211.810132 
L 264.21506 211.810132 
z
" style="fill:#1f77b4;"/>
   </g>
   <g id="patch_172">
    <path clip-path="url(#pc10900fada)" d="M 265.4339 288.430125 
L 266.408971 288.430125 
L 266.408971 223.999676 
L 265.4339 223.999676 
z
" style="fill:#1f77b4;"/>
   </g>
   <g id="patch_173">
    <path clip-path="url(#pc10900fada)" d="M 266.652739 288.430125 
L 267.627811 288.430125 
L 267.627811 234.447857 
L 266.652739 234.447857 
z
" style="fill:#1f77b4;"/>
   </g>
   <g id="patch_174">
    <path clip-path="url(#pc10900fada)" d="M 267.871579 288.430125 
L 268.846651 288.430125 
L 268.846651 195.504638 
L 267.871579 195.504638 
z
" style="fill:#1f77b4;"/>
   </g>
   <g id="patch_175">
    <path clip-path="url(#pc10900fada)" d="M 269.090419 288.430125 
L 270.06549 288.430125 
L 270.06549 210.227074 
L 269.090419 210.227074 
z
" style="fill:#1f77b4;"/>
   </g>
   <g id="patch_176">
    <path clip-path="url(#pc10900fada)" d="M 270.309258 288.430125 
L 271.28433 288.430125 
L 271.28433 219.408809 
L 270.309258 219.408809 
z
" style="fill:#1f77b4;"/>
   </g>
   <g id="patch_177">
    <path clip-path="url(#pc10900fada)" d="M 271.528098 288.430125 
L 272.503169 288.430125 
L 272.503169 180.46559 
L 271.528098 180.46559 
z
" style="fill:#1f77b4;"/>
   </g>
   <g id="patch_178">
    <path clip-path="url(#pc10900fada)" d="M 272.746937 288.430125 
L 273.722009 288.430125 
L 273.722009 246.162484 
L 272.746937 246.162484 
z
" style="fill:#1f77b4;"/>
   </g>
   <g id="patch_179">
    <path clip-path="url(#pc10900fada)" d="M 273.965777 288.430125 
L 274.940849 288.430125 
L 274.940849 230.331907 
L 273.965777 230.331907 
z
" style="fill:#1f77b4;"/>
   </g>
   <g id="patch_180">
    <path clip-path="url(#pc10900fada)" d="M 275.184616 288.430125 
L 276.159688 288.430125 
L 276.159688 219.725421 
L 275.184616 219.725421 
z
" style="fill:#1f77b4;"/>
   </g>
   <g id="patch_181">
    <path clip-path="url(#pc10900fada)" d="M 276.403456 288.430125 
L 277.378528 288.430125 
L 277.378528 212.601661 
L 276.403456 212.601661 
z
" style="fill:#1f77b4;"/>
   </g>
   <g id="patch_182">
    <path clip-path="url(#pc10900fada)" d="M 277.622296 288.430125 
L 278.597367 288.430125 
L 278.597367 195.662944 
L 277.622296 195.662944 
z
" style="fill:#1f77b4;"/>
   </g>
   <g id="patch_183">
    <path clip-path="url(#pc10900fada)" d="M 278.841135 288.430125 
L 279.816207 288.430125 
L 279.816207 201.203646 
L 278.841135 201.203646 
z
" style="fill:#1f77b4;"/>
   </g>
   <g id="patch_184">
    <path clip-path="url(#pc10900fada)" d="M 280.059975 288.430125 
L 281.035047 288.430125 
L 281.035047 164.951624 
L 280.059975 164.951624 
z
" style="fill:#1f77b4;"/>
   </g>
   <g id="patch_185">
    <path clip-path="url(#pc10900fada)" d="M 281.278814 288.430125 
L 282.253886 288.430125 
L 282.253886 165.268236 
L 281.278814 165.268236 
z
" style="fill:#1f77b4;"/>
   </g>
   <g id="patch_186">
    <path clip-path="url(#pc10900fada)" d="M 282.497654 288.430125 
L 283.472726 288.430125 
L 283.472726 221.941701 
L 282.497654 221.941701 
z
" style="fill:#1f77b4;"/>
   </g>
   <g id="patch_187">
    <path clip-path="url(#pc10900fada)" d="M 283.716494 288.430125 
L 284.691565 288.430125 
L 284.691565 218.300669 
L 283.716494 218.300669 
z
" style="fill:#1f77b4;"/>
   </g>
   <g id="patch_188">
    <path clip-path="url(#pc10900fada)" d="M 284.935333 288.430125 
L 285.910405 288.430125 
L 285.910405 185.214763 
L 284.935333 185.214763 
z
" style="fill:#1f77b4;"/>
   </g>
   <g id="patch_189">
    <path clip-path="url(#pc10900fada)" d="M 286.154173 288.430125 
L 287.129244 288.430125 
L 287.129244 140.730841 
L 286.154173 140.730841 
z
" style="fill:#1f77b4;"/>
   </g>
   <g id="patch_190">
    <path clip-path="url(#pc10900fada)" d="M 287.373012 288.430125 
L 288.348084 288.430125 
L 288.348084 129.491132 
L 287.373012 129.491132 
z
" style="fill:#1f77b4;"/>
   </g>
   <g id="patch_191">
    <path clip-path="url(#pc10900fada)" d="M 288.591852 288.430125 
L 289.566924 288.430125 
L 289.566924 82.157706 
L 288.591852 82.157706 
z
" style="fill:#1f77b4;"/>
   </g>
   <g id="patch_192">
    <path clip-path="url(#pc10900fada)" d="M 289.810692 288.430125 
L 290.785763 288.430125 
L 290.785763 179.515755 
L 289.810692 179.515755 
z
" style="fill:#1f77b4;"/>
   </g>
   <g id="patch_193">
    <path clip-path="url(#pc10900fada)" d="M 291.029531 288.430125 
L 292.004603 288.430125 
L 292.004603 199.145671 
L 291.029531 199.145671 
z
" style="fill:#1f77b4;"/>
   </g>
   <g id="patch_194">
    <path clip-path="url(#pc10900fada)" d="M 292.248371 288.430125 
L 293.223442 288.430125 
L 293.223442 220.200338 
L 292.248371 220.200338 
z
" style="fill:#1f77b4;"/>
   </g>
   <g id="patch_195">
    <path clip-path="url(#pc10900fada)" d="M 293.46721 288.430125 
L 294.442282 288.430125 
L 294.442282 183.473399 
L 293.46721 183.473399 
z
" style="fill:#1f77b4;"/>
   </g>
   <g id="patch_196">
    <path clip-path="url(#pc10900fada)" d="M 294.68605 288.430125 
L 295.661122 288.430125 
L 295.661122 171.917078 
L 294.68605 171.917078 
z
" style="fill:#1f77b4;"/>
   </g>
   <g id="patch_197">
    <path clip-path="url(#pc10900fada)" d="M 295.90489 288.430125 
L 296.879961 288.430125 
L 296.879961 117.143281 
L 295.90489 117.143281 
z
" style="fill:#1f77b4;"/>
   </g>
   <g id="patch_198">
    <path clip-path="url(#pc10900fada)" d="M 297.123729 288.430125 
L 298.098801 288.430125 
L 298.098801 178.249309 
L 297.123729 178.249309 
z
" style="fill:#1f77b4;"/>
   </g>
   <g id="patch_199">
    <path clip-path="url(#pc10900fada)" d="M 298.342569 288.430125 
L 299.31764 288.430125 
L 299.31764 180.148978 
L 298.342569 180.148978 
z
" style="fill:#1f77b4;"/>
   </g>
   <g id="patch_200">
    <path clip-path="url(#pc10900fada)" d="M 299.561408 288.430125 
L 300.53648 288.430125 
L 300.53648 224.474594 
L 299.561408 224.474594 
z
" style="fill:#1f77b4;"/>
   </g>
   <g id="patch_201">
    <path clip-path="url(#pc10900fada)" d="M 300.780248 288.430125 
L 301.75532 288.430125 
L 301.75532 211.493521 
L 300.780248 211.493521 
z
" style="fill:#1f77b4;"/>
   </g>
   <g id="patch_202">
    <path clip-path="url(#pc10900fada)" d="M 301.999087 288.430125 
L 302.974159 288.430125 
L 302.974159 177.774392 
L 301.999087 177.774392 
z
" style="fill:#1f77b4;"/>
   </g>
   <g id="patch_203">
    <path clip-path="url(#pc10900fada)" d="M 303.217927 288.430125 
L 304.192999 288.430125 
L 304.192999 142.788816 
L 303.217927 142.788816 
z
" style="fill:#1f77b4;"/>
   </g>
   <g id="patch_204">
    <path clip-path="url(#pc10900fada)" d="M 304.436767 288.430125 
L 305.411838 288.430125 
L 305.411838 167.801128 
L 304.436767 167.801128 
z
" style="fill:#1f77b4;"/>
   </g>
   <g id="patch_205">
    <path clip-path="url(#pc10900fada)" d="M 305.655606 288.430125 
L 306.630678 288.430125 
L 306.630678 177.299474 
L 305.655606 177.299474 
z
" style="fill:#1f77b4;"/>
   </g>
   <g id="patch_206">
    <path clip-path="url(#pc10900fada)" d="M 306.874446 288.430125 
L 307.849517 288.430125 
L 307.849517 211.493521 
L 306.874446 211.493521 
z
" style="fill:#1f77b4;"/>
   </g>
   <g id="patch_207">
    <path clip-path="url(#pc10900fada)" d="M 308.093285 288.430125 
L 309.068357 288.430125 
L 309.068357 236.98075 
L 308.093285 236.98075 
z
" style="fill:#1f77b4;"/>
   </g>
   <g id="patch_208">
    <path clip-path="url(#pc10900fada)" d="M 309.312125 288.430125 
L 310.287197 288.430125 
L 310.287197 204.369761 
L 309.312125 204.369761 
z
" style="fill:#1f77b4;"/>
   </g>
   <g id="patch_209">
    <path clip-path="url(#pc10900fada)" d="M 310.530965 288.430125 
L 311.506036 288.430125 
L 311.506036 161.468897 
L 310.530965 161.468897 
z
" style="fill:#1f77b4;"/>
   </g>
   <g id="patch_210">
    <path clip-path="url(#pc10900fada)" d="M 311.749804 288.430125 
L 312.724876 288.430125 
L 312.724876 113.660555 
L 311.749804 113.660555 
z
" style="fill:#1f77b4;"/>
   </g>
   <g id="patch_211">
    <path clip-path="url(#pc10900fada)" d="M 312.968644 288.430125 
L 313.943715 288.430125 
L 313.943715 164.476707 
L 312.968644 164.476707 
z
" style="fill:#1f77b4;"/>
   </g>
   <g id="patch_212">
    <path clip-path="url(#pc10900fada)" d="M 314.187483 288.430125 
L 315.162555 288.430125 
L 315.162555 138.197949 
L 314.187483 138.197949 
z
" style="fill:#1f77b4;"/>
   </g>
   <g id="patch_213">
    <path clip-path="url(#pc10900fada)" d="M 315.406323 288.430125 
L 316.381395 288.430125 
L 316.381395 163.051955 
L 315.406323 163.051955 
z
" style="fill:#1f77b4;"/>
   </g>
   <g id="patch_214">
    <path clip-path="url(#pc10900fada)" d="M 316.625163 288.430125 
L 317.600234 288.430125 
L 317.600234 207.694182 
L 316.625163 207.694182 
z
" style="fill:#1f77b4;"/>
   </g>
   <g id="patch_215">
    <path clip-path="url(#pc10900fada)" d="M 317.844002 288.430125 
L 318.819074 288.430125 
L 318.819074 220.675255 
L 317.844002 220.675255 
z
" style="fill:#1f77b4;"/>
   </g>
   <g id="patch_216">
    <path clip-path="url(#pc10900fada)" d="M 319.062842 288.430125 
L 320.037913 288.430125 
L 320.037913 175.399805 
L 319.062842 175.399805 
z
" style="fill:#1f77b4;"/>
   </g>
   <g id="patch_217">
    <path clip-path="url(#pc10900fada)" d="M 320.281681 288.430125 
L 321.256753 288.430125 
L 321.256753 146.271543 
L 320.281681 146.271543 
z
" style="fill:#1f77b4;"/>
   </g>
   <g id="patch_218">
    <path clip-path="url(#pc10900fada)" d="M 321.500521 288.430125 
L 322.475593 288.430125 
L 322.475593 117.301587 
L 321.500521 117.301587 
z
" style="fill:#1f77b4;"/>
   </g>
   <g id="patch_219">
    <path clip-path="url(#pc10900fada)" d="M 322.71936 288.430125 
L 323.694432 288.430125 
L 323.694432 137.881337 
L 322.71936 137.881337 
z
" style="fill:#1f77b4;"/>
   </g>
   <g id="patch_220">
    <path clip-path="url(#pc10900fada)" d="M 323.9382 288.430125 
L 324.913272 288.430125 
L 324.913272 129.966049 
L 323.9382 129.966049 
z
" style="fill:#1f77b4;"/>
   </g>
   <g id="patch_221">
    <path clip-path="url(#pc10900fada)" d="M 325.15704 288.430125 
L 326.132111 288.430125 
L 326.132111 164.318401 
L 325.15704 164.318401 
z
" style="fill:#1f77b4;"/>
   </g>
   <g id="patch_222">
    <path clip-path="url(#pc10900fada)" d="M 326.375879 288.430125 
L 327.350951 288.430125 
L 327.350951 127.749768 
L 326.375879 127.749768 
z
" style="fill:#1f77b4;"/>
   </g>
   <g id="patch_223">
    <path clip-path="url(#pc10900fada)" d="M 327.594719 288.430125 
L 328.569791 288.430125 
L 328.569791 143.896957 
L 327.594719 143.896957 
z
" style="fill:#1f77b4;"/>
   </g>
   <g id="patch_224">
    <path clip-path="url(#pc10900fada)" d="M 328.813558 288.430125 
L 329.78863 288.430125 
L 329.78863 109.386299 
L 328.813558 109.386299 
z
" style="fill:#1f77b4;"/>
   </g>
   <g id="patch_225">
    <path clip-path="url(#pc10900fada)" d="M 330.032398 288.430125 
L 331.00747 288.430125 
L 331.00747 37.198867 
L 330.032398 37.198867 
z
" style="fill:#1f77b4;"/>
   </g>
   <g id="patch_226">
    <path clip-path="url(#pc10900fada)" d="M 331.251238 288.430125 
L 332.226309 288.430125 
L 332.226309 110.177828 
L 331.251238 110.177828 
z
" style="fill:#1f77b4;"/>
   </g>
   <g id="patch_227">
    <path clip-path="url(#pc10900fada)" d="M 332.470077 288.430125 
L 333.445149 288.430125 
L 333.445149 77.725145 
L 332.470077 77.725145 
z
" style="fill:#1f77b4;"/>
   </g>
   <g id="patch_228">
    <path clip-path="url(#pc10900fada)" d="M 333.688917 288.430125 
L 334.663988 288.430125 
L 334.663988 102.895762 
L 333.688917 102.895762 
z
" style="fill:#1f77b4;"/>
   </g>
   <g id="patch_229">
    <path clip-path="url(#pc10900fada)" d="M 334.907756 288.430125 
L 335.882828 288.430125 
L 335.882828 129.491132 
L 334.907756 129.491132 
z
" style="fill:#1f77b4;"/>
   </g>
   <g id="patch_230">
    <path clip-path="url(#pc10900fada)" d="M 336.126596 288.430125 
L 337.101668 288.430125 
L 337.101668 147.063072 
L 336.126596 147.063072 
z
" style="fill:#1f77b4;"/>
   </g>
   <g id="patch_231">
    <path clip-path="url(#pc10900fada)" d="M 337.345436 288.430125 
L 338.320507 288.430125 
L 338.320507 97.988283 
L 337.345436 97.988283 
z
" style="fill:#1f77b4;"/>
   </g>
   <g id="patch_232">
    <path clip-path="url(#pc10900fada)" d="M 338.564275 288.430125 
L 339.539347 288.430125 
L 339.539347 97.196754 
L 338.564275 97.196754 
z
" style="fill:#1f77b4;"/>
   </g>
   <g id="patch_233">
    <path clip-path="url(#pc10900fada)" d="M 339.783115 288.430125 
L 340.758186 288.430125 
L 340.758186 55.404031 
L 339.783115 55.404031 
z
" style="fill:#1f77b4;"/>
   </g>
   <g id="patch_234">
    <path clip-path="url(#pc10900fada)" d="M 341.001954 288.430125 
L 341.977026 288.430125 
L 341.977026 53.820973 
L 341.001954 53.820973 
z
" style="fill:#1f77b4;"/>
   </g>
   <g id="patch_235">
    <path clip-path="url(#pc10900fada)" d="M 342.220794 288.430125 
L 343.195866 288.430125 
L 343.195866 134.873528 
L 342.220794 134.873528 
z
" style="fill:#1f77b4;"/>
   </g>
   <g id="patch_236">
    <path clip-path="url(#pc10900fada)" d="M 343.439634 288.430125 
L 344.414705 288.430125 
L 344.414705 120.151091 
L 343.439634 120.151091 
z
" style="fill:#1f77b4;"/>
   </g>
   <g id="patch_237">
    <path clip-path="url(#pc10900fada)" d="M 344.658473 288.430125 
L 345.633545 288.430125 
L 345.633545 173.816747 
L 344.658473 173.816747 
z
" style="fill:#1f77b4;"/>
   </g>
   <g id="patch_238">
    <path clip-path="url(#pc10900fada)" d="M 345.877313 288.430125 
L 346.852384 288.430125 
L 346.852384 24.534406 
L 345.877313 24.534406 
z
" style="fill:#1f77b4;"/>
   </g>
   <g id="patch_239">
    <path clip-path="url(#pc10900fada)" d="M 347.096152 288.430125 
L 348.071224 288.430125 
L 348.071224 78.674979 
L 347.096152 78.674979 
z
" style="fill:#1f77b4;"/>
   </g>
   <g id="patch_240">
    <path clip-path="url(#pc10900fada)" d="M 348.314992 288.430125 
L 349.290064 288.430125 
L 349.290064 22.318125 
L 348.314992 22.318125 
z
" style="fill:#1f77b4;"/>
   </g>
   <g id="patch_241">
    <path clip-path="url(#pc10900fada)" d="M 349.533831 288.430125 
L 350.508903 288.430125 
L 350.508903 118.726339 
L 349.533831 118.726339 
z
" style="fill:#1f77b4;"/>
   </g>
   <g id="patch_242">
    <path clip-path="url(#pc10900fada)" d="M 350.752671 288.430125 
L 351.727743 288.430125 
L 351.727743 71.076302 
L 350.752671 71.076302 
z
" style="fill:#1f77b4;"/>
   </g>
   <g id="patch_243">
    <path clip-path="url(#pc10900fada)" d="M 351.971511 288.430125 
L 352.946582 288.430125 
L 352.946582 163.051955 
L 351.971511 163.051955 
z
" style="fill:#1f77b4;"/>
   </g>
   <g id="patch_244">
    <path clip-path="url(#pc10900fada)" d="M 353.19035 288.430125 
L 354.165422 288.430125 
L 354.165422 163.843484 
L 353.19035 163.843484 
z
" style="fill:#1f77b4;"/>
   </g>
   <g id="patch_245">
    <path clip-path="url(#pc10900fada)" d="M 354.40919 288.430125 
L 355.384262 288.430125 
L 355.384262 61.577956 
L 354.40919 61.577956 
z
" style="fill:#1f77b4;"/>
   </g>
   <g id="patch_246">
    <path clip-path="url(#pc10900fada)" d="M 355.628029 288.430125 
L 356.603101 288.430125 
L 356.603101 95.930308 
L 355.628029 95.930308 
z
" style="fill:#1f77b4;"/>
   </g>
   <g id="patch_247">
    <path clip-path="url(#pc10900fada)" d="M 356.846869 288.430125 
L 357.821941 288.430125 
L 357.821941 117.618199 
L 356.846869 117.618199 
z
" style="fill:#1f77b4;"/>
   </g>
   <g id="patch_248">
    <path clip-path="url(#pc10900fada)" d="M 358.065709 288.430125 
L 359.04078 288.430125 
L 359.04078 141.205759 
L 358.065709 141.205759 
z
" style="fill:#1f77b4;"/>
   </g>
   <g id="patch_249">
    <path clip-path="url(#pc10900fada)" d="M 359.284548 288.430125 
L 360.25962 288.430125 
L 360.25962 155.294972 
L 359.284548 155.294972 
z
" style="fill:#1f77b4;"/>
   </g>
   <g id="patch_250">
    <path clip-path="url(#pc10900fada)" d="M 360.503388 288.430125 
L 361.478459 288.430125 
L 361.478459 218.300669 
L 360.503388 218.300669 
z
" style="fill:#1f77b4;"/>
   </g>
   <g id="patch_251">
    <path clip-path="url(#pc10900fada)" d="M 361.722227 288.430125 
L 362.697299 288.430125 
L 362.697299 107.170018 
L 361.722227 107.170018 
z
" style="fill:#1f77b4;"/>
   </g>
   <g id="patch_252">
    <path clip-path="url(#pc10900fada)" d="M 362.941067 288.430125 
L 363.916139 288.430125 
L 363.916139 100.046258 
L 362.941067 100.046258 
z
" style="fill:#1f77b4;"/>
   </g>
   <g id="patch_253">
    <path clip-path="url(#pc10900fada)" d="M 364.159907 288.430125 
L 365.134978 288.430125 
L 365.134978 113.343943 
L 364.159907 113.343943 
z
" style="fill:#1f77b4;"/>
   </g>
   <g id="patch_254">
    <path clip-path="url(#pc10900fada)" d="M 365.378746 288.430125 
L 366.353818 288.430125 
L 366.353818 127.433157 
L 365.378746 127.433157 
z
" style="fill:#1f77b4;"/>
   </g>
   <g id="patch_255">
    <path clip-path="url(#pc10900fada)" d="M 366.597586 288.430125 
L 367.572657 288.430125 
L 367.572657 139.464395 
L 366.597586 139.464395 
z
" style="fill:#1f77b4;"/>
   </g>
   <g id="patch_256">
    <path clip-path="url(#pc10900fada)" d="M 367.816425 288.430125 
L 368.791497 288.430125 
L 368.791497 219.250503 
L 367.816425 219.250503 
z
" style="fill:#1f77b4;"/>
   </g>
   <g id="patch_257">
    <path clip-path="url(#pc10900fada)" d="M 369.035265 288.430125 
L 370.010337 288.430125 
L 370.010337 234.289552 
L 369.035265 234.289552 
z
" style="fill:#1f77b4;"/>
   </g>
   <g id="patch_258">
    <path clip-path="url(#pc10900fada)" d="M 370.254105 288.430125 
L 371.229176 288.430125 
L 371.229176 191.705299 
L 370.254105 191.705299 
z
" style="fill:#1f77b4;"/>
   </g>
   <g id="patch_259">
    <path clip-path="url(#pc10900fada)" d="M 371.472944 288.430125 
L 372.448016 288.430125 
L 372.448016 207.852488 
L 371.472944 207.852488 
z
" style="fill:#1f77b4;"/>
   </g>
   <g id="patch_260">
    <path clip-path="url(#pc10900fada)" d="M 372.691784 288.430125 
L 373.666855 288.430125 
L 373.666855 200.887034 
L 372.691784 200.887034 
z
" style="fill:#1f77b4;"/>
   </g>
   <g id="patch_261">
    <path clip-path="url(#pc10900fada)" d="M 373.910623 288.430125 
L 374.885695 288.430125 
L 374.885695 204.211455 
L 373.910623 204.211455 
z
" style="fill:#1f77b4;"/>
   </g>
   <g id="patch_262">
    <path clip-path="url(#pc10900fada)" d="M 375.129463 288.430125 
L 376.104535 288.430125 
L 376.104535 122.209066 
L 375.129463 122.209066 
z
" style="fill:#1f77b4;"/>
   </g>
   <g id="patch_263">
    <path clip-path="url(#pc10900fada)" d="M 376.348302 288.430125 
L 377.323374 288.430125 
L 377.323374 232.8648 
L 376.348302 232.8648 
z
" style="fill:#1f77b4;"/>
   </g>
   <g id="patch_264">
    <path clip-path="url(#pc10900fada)" d="M 377.567142 288.430125 
L 378.542214 288.430125 
L 378.542214 248.378765 
L 377.567142 248.378765 
z
" style="fill:#1f77b4;"/>
   </g>
   <g id="patch_265">
    <path clip-path="url(#pc10900fada)" d="M 378.785982 288.430125 
L 379.761053 288.430125 
L 379.761053 198.987365 
L 378.785982 198.987365 
z
" style="fill:#1f77b4;"/>
   </g>
   <g id="patch_266">
    <path clip-path="url(#pc10900fada)" d="M 380.004821 288.430125 
L 380.979893 288.430125 
L 380.979893 190.755465 
L 380.004821 190.755465 
z
" style="fill:#1f77b4;"/>
   </g>
   <g id="patch_267">
    <path clip-path="url(#pc10900fada)" d="M 381.223661 288.430125 
L 382.198733 288.430125 
L 382.198733 192.021911 
L 381.223661 192.021911 
z
" style="fill:#1f77b4;"/>
   </g>
   <g id="patch_268">
    <path clip-path="url(#pc10900fada)" d="M 382.4425 288.430125 
L 383.417572 288.430125 
L 383.417572 202.15348 
L 382.4425 202.15348 
z
" style="fill:#1f77b4;"/>
   </g>
   <g id="patch_269">
    <path clip-path="url(#pc10900fada)" d="M 383.66134 288.430125 
L 384.636412 288.430125 
L 384.636412 206.26943 
L 383.66134 206.26943 
z
" style="fill:#1f77b4;"/>
   </g>
   <g id="patch_270">
    <path clip-path="url(#pc10900fada)" d="M 384.88018 288.430125 
L 385.855251 288.430125 
L 385.855251 242.996369 
L 384.88018 242.996369 
z
" style="fill:#1f77b4;"/>
   </g>
   <g id="patch_271">
    <path clip-path="url(#pc10900fada)" d="M 386.099019 288.430125 
L 387.074091 288.430125 
L 387.074091 249.961823 
L 386.099019 249.961823 
z
" style="fill:#1f77b4;"/>
   </g>
   <g id="patch_272">
    <path clip-path="url(#pc10900fada)" d="M 387.317859 288.430125 
L 388.29293 288.430125 
L 388.29293 212.759967 
L 387.317859 212.759967 
z
" style="fill:#1f77b4;"/>
   </g>
   <g id="patch_273">
    <path clip-path="url(#pc10900fada)" d="M 388.536698 288.430125 
L 389.51177 288.430125 
L 389.51177 200.887034 
L 388.536698 200.887034 
z
" style="fill:#1f77b4;"/>
   </g>
   <g id="patch_274">
    <path clip-path="url(#pc10900fada)" d="M 389.755538 288.430125 
L 390.73061 288.430125 
L 390.73061 222.891536 
L 389.755538 222.891536 
z
" style="fill:#1f77b4;"/>
   </g>
   <g id="patch_275">
    <path clip-path="url(#pc10900fada)" d="M 390.974378 288.430125 
L 391.949449 288.430125 
L 391.949449 181.732036 
L 390.974378 181.732036 
z
" style="fill:#1f77b4;"/>
   </g>
   <g id="patch_276">
    <path clip-path="url(#pc10900fada)" d="M 392.193217 288.430125 
L 393.168289 288.430125 
L 393.168289 204.844678 
L 392.193217 204.844678 
z
" style="fill:#1f77b4;"/>
   </g>
   <g id="patch_277">
    <path clip-path="url(#pc10900fada)" d="M 393.412057 288.430125 
L 394.387128 288.430125 
L 394.387128 238.247196 
L 393.412057 238.247196 
z
" style="fill:#1f77b4;"/>
   </g>
   <g id="patch_278">
    <path clip-path="url(#pc10900fada)" d="M 394.630896 288.430125 
L 395.605968 288.430125 
L 395.605968 248.537071 
L 394.630896 248.537071 
z
" style="fill:#1f77b4;"/>
   </g>
   <g id="patch_279">
    <path clip-path="url(#pc10900fada)" d="M 395.849736 288.430125 
L 396.824808 288.430125 
L 396.824808 206.26943 
L 395.849736 206.26943 
z
" style="fill:#1f77b4;"/>
   </g>
   <g id="patch_280">
    <path clip-path="url(#pc10900fada)" d="M 397.068576 288.430125 
L 398.043647 288.430125 
L 398.043647 191.230382 
L 397.068576 191.230382 
z
" style="fill:#1f77b4;"/>
   </g>
   <g id="patch_281">
    <path clip-path="url(#pc10900fada)" d="M 398.287415 288.430125 
L 399.262487 288.430125 
L 399.262487 222.258313 
L 398.287415 222.258313 
z
" style="fill:#1f77b4;"/>
   </g>
   <g id="patch_282">
    <path clip-path="url(#pc10900fada)" d="M 399.506255 288.430125 
L 400.481326 288.430125 
L 400.481326 217.034223 
L 399.506255 217.034223 
z
" style="fill:#1f77b4;"/>
   </g>
   <g id="patch_283">
    <path clip-path="url(#pc10900fada)" d="M 400.725094 288.430125 
L 401.700166 288.430125 
L 401.700166 199.303976 
L 400.725094 199.303976 
z
" style="fill:#1f77b4;"/>
   </g>
   <g id="patch_284">
    <path clip-path="url(#pc10900fada)" d="M 401.943934 288.430125 
L 402.919006 288.430125 
L 402.919006 268.325292 
L 401.943934 268.325292 
z
" style="fill:#1f77b4;"/>
   </g>
   <g id="patch_285">
    <path clip-path="url(#pc10900fada)" d="M 403.162773 288.430125 
L 404.137845 288.430125 
L 404.137845 229.540378 
L 403.162773 229.540378 
z
" style="fill:#1f77b4;"/>
   </g>
   <g id="patch_286">
    <path clip-path="url(#pc10900fada)" d="M 404.381613 288.430125 
L 405.356685 288.430125 
L 405.356685 203.261621 
L 404.381613 203.261621 
z
" style="fill:#1f77b4;"/>
   </g>
   <g id="patch_287">
    <path clip-path="url(#pc10900fada)" d="M 405.600453 288.430125 
L 406.575524 288.430125 
L 406.575524 200.412117 
L 405.600453 200.412117 
z
" style="fill:#1f77b4;"/>
   </g>
   <g id="patch_288">
    <path clip-path="url(#pc10900fada)" d="M 406.819292 288.430125 
L 407.794364 288.430125 
L 407.794364 196.296167 
L 406.819292 196.296167 
z
" style="fill:#1f77b4;"/>
   </g>
   <g id="patch_289">
    <path clip-path="url(#pc10900fada)" d="M 408.038132 288.430125 
L 409.013203 288.430125 
L 409.013203 276.240581 
L 408.038132 276.240581 
z
" style="fill:#1f77b4;"/>
   </g>
   <g id="patch_290">
    <path clip-path="url(#pc10900fada)" d="M 409.256971 288.430125 
L 410.232043 288.430125 
L 410.232043 251.544881 
L 409.256971 251.544881 
z
" style="fill:#1f77b4;"/>
   </g>
   <g id="patch_291">
    <path clip-path="url(#pc10900fada)" d="M 410.475811 288.430125 
L 411.450883 288.430125 
L 411.450883 224.791205 
L 410.475811 224.791205 
z
" style="fill:#1f77b4;"/>
   </g>
   <g id="patch_292">
    <path clip-path="url(#pc10900fada)" d="M 411.694651 288.430125 
L 412.669722 288.430125 
L 412.669722 260.251698 
L 411.694651 260.251698 
z
" style="fill:#1f77b4;"/>
   </g>
   <g id="patch_293">
    <path clip-path="url(#pc10900fada)" d="M 412.91349 288.430125 
L 413.888562 288.430125 
L 413.888562 198.987365 
L 412.91349 198.987365 
z
" style="fill:#1f77b4;"/>
   </g>
   <g id="patch_294">
    <path clip-path="url(#pc10900fada)" d="M 414.13233 288.430125 
L 415.107401 288.430125 
L 415.107401 198.829059 
L 414.13233 198.829059 
z
" style="fill:#1f77b4;"/>
   </g>
   <g id="patch_295">
    <path clip-path="url(#pc10900fada)" d="M 415.351169 288.430125 
L 416.326241 288.430125 
L 416.326241 183.948317 
L 415.351169 183.948317 
z
" style="fill:#1f77b4;"/>
   </g>
   <g id="matplotlib.axis_1">
    <g id="xtick_1">
     <g id="line2d_1">
      <defs>
       <path d="M 0 0 
L 0 3.5 
" id="mde2860023b" style="stroke:#000000;stroke-width:0.8;"/>
      </defs>
      <g>
       <use style="stroke:#000000;stroke-width:0.8;" x="80.657818" xlink:href="#mde2860023b" y="288.430125"/>
      </g>
     </g>
     <g id="text_1">
      <!-- 2020-04 -->
      <g transform="translate(83.417193 337.212937)rotate(-90)scale(0.1 -0.1)">
       <defs>
        <path d="M 19.1875 8.296875 
L 53.609375 8.296875 
L 53.609375 0 
L 7.328125 0 
L 7.328125 8.296875 
Q 12.9375 14.109375 22.625 23.890625 
Q 32.328125 33.6875 34.8125 36.53125 
Q 39.546875 41.84375 41.421875 45.53125 
Q 43.3125 49.21875 43.3125 52.78125 
Q 43.3125 58.59375 39.234375 62.25 
Q 35.15625 65.921875 28.609375 65.921875 
Q 23.96875 65.921875 18.8125 64.3125 
Q 13.671875 62.703125 7.8125 59.421875 
L 7.8125 69.390625 
Q 13.765625 71.78125 18.9375 73 
Q 24.125 74.21875 28.421875 74.21875 
Q 39.75 74.21875 46.484375 68.546875 
Q 53.21875 62.890625 53.21875 53.421875 
Q 53.21875 48.921875 51.53125 44.890625 
Q 49.859375 40.875 45.40625 35.40625 
Q 44.1875 33.984375 37.640625 27.21875 
Q 31.109375 20.453125 19.1875 8.296875 
z
" id="DejaVuSans-50"/>
        <path d="M 31.78125 66.40625 
Q 24.171875 66.40625 20.328125 58.90625 
Q 16.5 51.421875 16.5 36.375 
Q 16.5 21.390625 20.328125 13.890625 
Q 24.171875 6.390625 31.78125 6.390625 
Q 39.453125 6.390625 43.28125 13.890625 
Q 47.125 21.390625 47.125 36.375 
Q 47.125 51.421875 43.28125 58.90625 
Q 39.453125 66.40625 31.78125 66.40625 
z
M 31.78125 74.21875 
Q 44.046875 74.21875 50.515625 64.515625 
Q 56.984375 54.828125 56.984375 36.375 
Q 56.984375 17.96875 50.515625 8.265625 
Q 44.046875 -1.421875 31.78125 -1.421875 
Q 19.53125 -1.421875 13.0625 8.265625 
Q 6.59375 17.96875 6.59375 36.375 
Q 6.59375 54.828125 13.0625 64.515625 
Q 19.53125 74.21875 31.78125 74.21875 
z
" id="DejaVuSans-48"/>
        <path d="M 4.890625 31.390625 
L 31.203125 31.390625 
L 31.203125 23.390625 
L 4.890625 23.390625 
z
" id="DejaVuSans-45"/>
        <path d="M 37.796875 64.3125 
L 12.890625 25.390625 
L 37.796875 25.390625 
z
M 35.203125 72.90625 
L 47.609375 72.90625 
L 47.609375 25.390625 
L 58.015625 25.390625 
L 58.015625 17.1875 
L 47.609375 17.1875 
L 47.609375 0 
L 37.796875 0 
L 37.796875 17.1875 
L 4.890625 17.1875 
L 4.890625 26.703125 
z
" id="DejaVuSans-52"/>
       </defs>
       <use xlink:href="#DejaVuSans-50"/>
       <use x="63.623047" xlink:href="#DejaVuSans-48"/>
       <use x="127.246094" xlink:href="#DejaVuSans-50"/>
       <use x="190.869141" xlink:href="#DejaVuSans-48"/>
       <use x="254.492188" xlink:href="#DejaVuSans-45"/>
       <use x="290.576172" xlink:href="#DejaVuSans-48"/>
       <use x="354.199219" xlink:href="#DejaVuSans-52"/>
      </g>
     </g>
    </g>
    <g id="xtick_2">
     <g id="line2d_2">
      <g>
       <use style="stroke:#000000;stroke-width:0.8;" x="117.223006" xlink:href="#mde2860023b" y="288.430125"/>
      </g>
     </g>
     <g id="text_2">
      <!-- 2020-05 -->
      <g transform="translate(119.982381 337.212937)rotate(-90)scale(0.1 -0.1)">
       <defs>
        <path d="M 10.796875 72.90625 
L 49.515625 72.90625 
L 49.515625 64.59375 
L 19.828125 64.59375 
L 19.828125 46.734375 
Q 21.96875 47.46875 24.109375 47.828125 
Q 26.265625 48.1875 28.421875 48.1875 
Q 40.625 48.1875 47.75 41.5 
Q 54.890625 34.8125 54.890625 23.390625 
Q 54.890625 11.625 47.5625 5.09375 
Q 40.234375 -1.421875 26.90625 -1.421875 
Q 22.3125 -1.421875 17.546875 -0.640625 
Q 12.796875 0.140625 7.71875 1.703125 
L 7.71875 11.625 
Q 12.109375 9.234375 16.796875 8.0625 
Q 21.484375 6.890625 26.703125 6.890625 
Q 35.15625 6.890625 40.078125 11.328125 
Q 45.015625 15.765625 45.015625 23.390625 
Q 45.015625 31 40.078125 35.4375 
Q 35.15625 39.890625 26.703125 39.890625 
Q 22.75 39.890625 18.8125 39.015625 
Q 14.890625 38.140625 10.796875 36.28125 
z
" id="DejaVuSans-53"/>
       </defs>
       <use xlink:href="#DejaVuSans-50"/>
       <use x="63.623047" xlink:href="#DejaVuSans-48"/>
       <use x="127.246094" xlink:href="#DejaVuSans-50"/>
       <use x="190.869141" xlink:href="#DejaVuSans-48"/>
       <use x="254.492188" xlink:href="#DejaVuSans-45"/>
       <use x="290.576172" xlink:href="#DejaVuSans-48"/>
       <use x="354.199219" xlink:href="#DejaVuSans-53"/>
      </g>
     </g>
    </g>
    <g id="xtick_3">
     <g id="line2d_3">
      <g>
       <use style="stroke:#000000;stroke-width:0.8;" x="155.007033" xlink:href="#mde2860023b" y="288.430125"/>
      </g>
     </g>
     <g id="text_3">
      <!-- 2020-06 -->
      <g transform="translate(157.766408 337.212937)rotate(-90)scale(0.1 -0.1)">
       <defs>
        <path d="M 33.015625 40.375 
Q 26.375 40.375 22.484375 35.828125 
Q 18.609375 31.296875 18.609375 23.390625 
Q 18.609375 15.53125 22.484375 10.953125 
Q 26.375 6.390625 33.015625 6.390625 
Q 39.65625 6.390625 43.53125 10.953125 
Q 47.40625 15.53125 47.40625 23.390625 
Q 47.40625 31.296875 43.53125 35.828125 
Q 39.65625 40.375 33.015625 40.375 
z
M 52.59375 71.296875 
L 52.59375 62.3125 
Q 48.875 64.0625 45.09375 64.984375 
Q 41.3125 65.921875 37.59375 65.921875 
Q 27.828125 65.921875 22.671875 59.328125 
Q 17.53125 52.734375 16.796875 39.40625 
Q 19.671875 43.65625 24.015625 45.921875 
Q 28.375 48.1875 33.59375 48.1875 
Q 44.578125 48.1875 50.953125 41.515625 
Q 57.328125 34.859375 57.328125 23.390625 
Q 57.328125 12.15625 50.6875 5.359375 
Q 44.046875 -1.421875 33.015625 -1.421875 
Q 20.359375 -1.421875 13.671875 8.265625 
Q 6.984375 17.96875 6.984375 36.375 
Q 6.984375 53.65625 15.1875 63.9375 
Q 23.390625 74.21875 37.203125 74.21875 
Q 40.921875 74.21875 44.703125 73.484375 
Q 48.484375 72.75 52.59375 71.296875 
z
" id="DejaVuSans-54"/>
       </defs>
       <use xlink:href="#DejaVuSans-50"/>
       <use x="63.623047" xlink:href="#DejaVuSans-48"/>
       <use x="127.246094" xlink:href="#DejaVuSans-50"/>
       <use x="190.869141" xlink:href="#DejaVuSans-48"/>
       <use x="254.492188" xlink:href="#DejaVuSans-45"/>
       <use x="290.576172" xlink:href="#DejaVuSans-48"/>
       <use x="354.199219" xlink:href="#DejaVuSans-54"/>
      </g>
     </g>
    </g>
    <g id="xtick_4">
     <g id="line2d_4">
      <g>
       <use style="stroke:#000000;stroke-width:0.8;" x="191.572221" xlink:href="#mde2860023b" y="288.430125"/>
      </g>
     </g>
     <g id="text_4">
      <!-- 2020-07 -->
      <g transform="translate(194.331596 337.212937)rotate(-90)scale(0.1 -0.1)">
       <defs>
        <path d="M 8.203125 72.90625 
L 55.078125 72.90625 
L 55.078125 68.703125 
L 28.609375 0 
L 18.3125 0 
L 43.21875 64.59375 
L 8.203125 64.59375 
z
" id="DejaVuSans-55"/>
       </defs>
       <use xlink:href="#DejaVuSans-50"/>
       <use x="63.623047" xlink:href="#DejaVuSans-48"/>
       <use x="127.246094" xlink:href="#DejaVuSans-50"/>
       <use x="190.869141" xlink:href="#DejaVuSans-48"/>
       <use x="254.492188" xlink:href="#DejaVuSans-45"/>
       <use x="290.576172" xlink:href="#DejaVuSans-48"/>
       <use x="354.199219" xlink:href="#DejaVuSans-55"/>
      </g>
     </g>
    </g>
    <g id="xtick_5">
     <g id="line2d_5">
      <g>
       <use style="stroke:#000000;stroke-width:0.8;" x="229.356248" xlink:href="#mde2860023b" y="288.430125"/>
      </g>
     </g>
     <g id="text_5">
      <!-- 2020-08 -->
      <g transform="translate(232.115623 337.212937)rotate(-90)scale(0.1 -0.1)">
       <defs>
        <path d="M 31.78125 34.625 
Q 24.75 34.625 20.71875 30.859375 
Q 16.703125 27.09375 16.703125 20.515625 
Q 16.703125 13.921875 20.71875 10.15625 
Q 24.75 6.390625 31.78125 6.390625 
Q 38.8125 6.390625 42.859375 10.171875 
Q 46.921875 13.96875 46.921875 20.515625 
Q 46.921875 27.09375 42.890625 30.859375 
Q 38.875 34.625 31.78125 34.625 
z
M 21.921875 38.8125 
Q 15.578125 40.375 12.03125 44.71875 
Q 8.5 49.078125 8.5 55.328125 
Q 8.5 64.0625 14.71875 69.140625 
Q 20.953125 74.21875 31.78125 74.21875 
Q 42.671875 74.21875 48.875 69.140625 
Q 55.078125 64.0625 55.078125 55.328125 
Q 55.078125 49.078125 51.53125 44.71875 
Q 48 40.375 41.703125 38.8125 
Q 48.828125 37.15625 52.796875 32.3125 
Q 56.78125 27.484375 56.78125 20.515625 
Q 56.78125 9.90625 50.3125 4.234375 
Q 43.84375 -1.421875 31.78125 -1.421875 
Q 19.734375 -1.421875 13.25 4.234375 
Q 6.78125 9.90625 6.78125 20.515625 
Q 6.78125 27.484375 10.78125 32.3125 
Q 14.796875 37.15625 21.921875 38.8125 
z
M 18.3125 54.390625 
Q 18.3125 48.734375 21.84375 45.5625 
Q 25.390625 42.390625 31.78125 42.390625 
Q 38.140625 42.390625 41.71875 45.5625 
Q 45.3125 48.734375 45.3125 54.390625 
Q 45.3125 60.0625 41.71875 63.234375 
Q 38.140625 66.40625 31.78125 66.40625 
Q 25.390625 66.40625 21.84375 63.234375 
Q 18.3125 60.0625 18.3125 54.390625 
z
" id="DejaVuSans-56"/>
       </defs>
       <use xlink:href="#DejaVuSans-50"/>
       <use x="63.623047" xlink:href="#DejaVuSans-48"/>
       <use x="127.246094" xlink:href="#DejaVuSans-50"/>
       <use x="190.869141" xlink:href="#DejaVuSans-48"/>
       <use x="254.492188" xlink:href="#DejaVuSans-45"/>
       <use x="290.576172" xlink:href="#DejaVuSans-48"/>
       <use x="354.199219" xlink:href="#DejaVuSans-56"/>
      </g>
     </g>
    </g>
    <g id="xtick_6">
     <g id="line2d_6">
      <g>
       <use style="stroke:#000000;stroke-width:0.8;" x="267.140275" xlink:href="#mde2860023b" y="288.430125"/>
      </g>
     </g>
     <g id="text_6">
      <!-- 2020-09 -->
      <g transform="translate(269.89965 337.212937)rotate(-90)scale(0.1 -0.1)">
       <defs>
        <path d="M 10.984375 1.515625 
L 10.984375 10.5 
Q 14.703125 8.734375 18.5 7.8125 
Q 22.3125 6.890625 25.984375 6.890625 
Q 35.75 6.890625 40.890625 13.453125 
Q 46.046875 20.015625 46.78125 33.40625 
Q 43.953125 29.203125 39.59375 26.953125 
Q 35.25 24.703125 29.984375 24.703125 
Q 19.046875 24.703125 12.671875 31.3125 
Q 6.296875 37.9375 6.296875 49.421875 
Q 6.296875 60.640625 12.9375 67.421875 
Q 19.578125 74.21875 30.609375 74.21875 
Q 43.265625 74.21875 49.921875 64.515625 
Q 56.59375 54.828125 56.59375 36.375 
Q 56.59375 19.140625 48.40625 8.859375 
Q 40.234375 -1.421875 26.421875 -1.421875 
Q 22.703125 -1.421875 18.890625 -0.6875 
Q 15.09375 0.046875 10.984375 1.515625 
z
M 30.609375 32.421875 
Q 37.25 32.421875 41.125 36.953125 
Q 45.015625 41.5 45.015625 49.421875 
Q 45.015625 57.28125 41.125 61.84375 
Q 37.25 66.40625 30.609375 66.40625 
Q 23.96875 66.40625 20.09375 61.84375 
Q 16.21875 57.28125 16.21875 49.421875 
Q 16.21875 41.5 20.09375 36.953125 
Q 23.96875 32.421875 30.609375 32.421875 
z
" id="DejaVuSans-57"/>
       </defs>
       <use xlink:href="#DejaVuSans-50"/>
       <use x="63.623047" xlink:href="#DejaVuSans-48"/>
       <use x="127.246094" xlink:href="#DejaVuSans-50"/>
       <use x="190.869141" xlink:href="#DejaVuSans-48"/>
       <use x="254.492188" xlink:href="#DejaVuSans-45"/>
       <use x="290.576172" xlink:href="#DejaVuSans-48"/>
       <use x="354.199219" xlink:href="#DejaVuSans-57"/>
      </g>
     </g>
    </g>
    <g id="xtick_7">
     <g id="line2d_7">
      <g>
       <use style="stroke:#000000;stroke-width:0.8;" x="303.705463" xlink:href="#mde2860023b" y="288.430125"/>
      </g>
     </g>
     <g id="text_7">
      <!-- 2020-10 -->
      <g transform="translate(306.464838 337.212937)rotate(-90)scale(0.1 -0.1)">
       <defs>
        <path d="M 12.40625 8.296875 
L 28.515625 8.296875 
L 28.515625 63.921875 
L 10.984375 60.40625 
L 10.984375 69.390625 
L 28.421875 72.90625 
L 38.28125 72.90625 
L 38.28125 8.296875 
L 54.390625 8.296875 
L 54.390625 0 
L 12.40625 0 
z
" id="DejaVuSans-49"/>
       </defs>
       <use xlink:href="#DejaVuSans-50"/>
       <use x="63.623047" xlink:href="#DejaVuSans-48"/>
       <use x="127.246094" xlink:href="#DejaVuSans-50"/>
       <use x="190.869141" xlink:href="#DejaVuSans-48"/>
       <use x="254.492188" xlink:href="#DejaVuSans-45"/>
       <use x="290.576172" xlink:href="#DejaVuSans-49"/>
       <use x="354.199219" xlink:href="#DejaVuSans-48"/>
      </g>
     </g>
    </g>
    <g id="xtick_8">
     <g id="line2d_8">
      <g>
       <use style="stroke:#000000;stroke-width:0.8;" x="341.48949" xlink:href="#mde2860023b" y="288.430125"/>
      </g>
     </g>
     <g id="text_8">
      <!-- 2020-11 -->
      <g transform="translate(344.248865 337.212937)rotate(-90)scale(0.1 -0.1)">
       <use xlink:href="#DejaVuSans-50"/>
       <use x="63.623047" xlink:href="#DejaVuSans-48"/>
       <use x="127.246094" xlink:href="#DejaVuSans-50"/>
       <use x="190.869141" xlink:href="#DejaVuSans-48"/>
       <use x="254.492188" xlink:href="#DejaVuSans-45"/>
       <use x="290.576172" xlink:href="#DejaVuSans-49"/>
       <use x="354.199219" xlink:href="#DejaVuSans-49"/>
      </g>
     </g>
    </g>
    <g id="xtick_9">
     <g id="line2d_9">
      <g>
       <use style="stroke:#000000;stroke-width:0.8;" x="378.054678" xlink:href="#mde2860023b" y="288.430125"/>
      </g>
     </g>
     <g id="text_9">
      <!-- 2020-12 -->
      <g transform="translate(380.814053 337.212937)rotate(-90)scale(0.1 -0.1)">
       <use xlink:href="#DejaVuSans-50"/>
       <use x="63.623047" xlink:href="#DejaVuSans-48"/>
       <use x="127.246094" xlink:href="#DejaVuSans-50"/>
       <use x="190.869141" xlink:href="#DejaVuSans-48"/>
       <use x="254.492188" xlink:href="#DejaVuSans-45"/>
       <use x="290.576172" xlink:href="#DejaVuSans-49"/>
       <use x="354.199219" xlink:href="#DejaVuSans-50"/>
      </g>
     </g>
    </g>
    <g id="xtick_10">
     <g id="line2d_10">
      <g>
       <use style="stroke:#000000;stroke-width:0.8;" x="415.838705" xlink:href="#mde2860023b" y="288.430125"/>
      </g>
     </g>
     <g id="text_10">
      <!-- 2021-01 -->
      <g transform="translate(418.59808 337.212937)rotate(-90)scale(0.1 -0.1)">
       <use xlink:href="#DejaVuSans-50"/>
       <use x="63.623047" xlink:href="#DejaVuSans-48"/>
       <use x="127.246094" xlink:href="#DejaVuSans-50"/>
       <use x="190.869141" xlink:href="#DejaVuSans-49"/>
       <use x="254.492188" xlink:href="#DejaVuSans-45"/>
       <use x="290.576172" xlink:href="#DejaVuSans-48"/>
       <use x="354.199219" xlink:href="#DejaVuSans-49"/>
      </g>
     </g>
    </g>
    <g id="text_11">
     <!-- date -->
     <g transform="translate(226.613125 354.811375)scale(0.1 -0.1)">
      <defs>
       <path d="M 45.40625 46.390625 
L 45.40625 75.984375 
L 54.390625 75.984375 
L 54.390625 0 
L 45.40625 0 
L 45.40625 8.203125 
Q 42.578125 3.328125 38.25 0.953125 
Q 33.9375 -1.421875 27.875 -1.421875 
Q 17.96875 -1.421875 11.734375 6.484375 
Q 5.515625 14.40625 5.515625 27.296875 
Q 5.515625 40.1875 11.734375 48.09375 
Q 17.96875 56 27.875 56 
Q 33.9375 56 38.25 53.625 
Q 42.578125 51.265625 45.40625 46.390625 
z
M 14.796875 27.296875 
Q 14.796875 17.390625 18.875 11.75 
Q 22.953125 6.109375 30.078125 6.109375 
Q 37.203125 6.109375 41.296875 11.75 
Q 45.40625 17.390625 45.40625 27.296875 
Q 45.40625 37.203125 41.296875 42.84375 
Q 37.203125 48.484375 30.078125 48.484375 
Q 22.953125 48.484375 18.875 42.84375 
Q 14.796875 37.203125 14.796875 27.296875 
z
" id="DejaVuSans-100"/>
       <path d="M 34.28125 27.484375 
Q 23.390625 27.484375 19.1875 25 
Q 14.984375 22.515625 14.984375 16.5 
Q 14.984375 11.71875 18.140625 8.90625 
Q 21.296875 6.109375 26.703125 6.109375 
Q 34.1875 6.109375 38.703125 11.40625 
Q 43.21875 16.703125 43.21875 25.484375 
L 43.21875 27.484375 
z
M 52.203125 31.203125 
L 52.203125 0 
L 43.21875 0 
L 43.21875 8.296875 
Q 40.140625 3.328125 35.546875 0.953125 
Q 30.953125 -1.421875 24.3125 -1.421875 
Q 15.921875 -1.421875 10.953125 3.296875 
Q 6 8.015625 6 15.921875 
Q 6 25.140625 12.171875 29.828125 
Q 18.359375 34.515625 30.609375 34.515625 
L 43.21875 34.515625 
L 43.21875 35.40625 
Q 43.21875 41.609375 39.140625 45 
Q 35.0625 48.390625 27.6875 48.390625 
Q 23 48.390625 18.546875 47.265625 
Q 14.109375 46.140625 10.015625 43.890625 
L 10.015625 52.203125 
Q 14.9375 54.109375 19.578125 55.046875 
Q 24.21875 56 28.609375 56 
Q 40.484375 56 46.34375 49.84375 
Q 52.203125 43.703125 52.203125 31.203125 
z
" id="DejaVuSans-97"/>
       <path d="M 18.3125 70.21875 
L 18.3125 54.6875 
L 36.8125 54.6875 
L 36.8125 47.703125 
L 18.3125 47.703125 
L 18.3125 18.015625 
Q 18.3125 11.328125 20.140625 9.421875 
Q 21.96875 7.515625 27.59375 7.515625 
L 36.8125 7.515625 
L 36.8125 0 
L 27.59375 0 
Q 17.1875 0 13.234375 3.875 
Q 9.28125 7.765625 9.28125 18.015625 
L 9.28125 47.703125 
L 2.6875 47.703125 
L 2.6875 54.6875 
L 9.28125 54.6875 
L 9.28125 70.21875 
z
" id="DejaVuSans-116"/>
       <path d="M 56.203125 29.59375 
L 56.203125 25.203125 
L 14.890625 25.203125 
Q 15.484375 15.921875 20.484375 11.0625 
Q 25.484375 6.203125 34.421875 6.203125 
Q 39.59375 6.203125 44.453125 7.46875 
Q 49.3125 8.734375 54.109375 11.28125 
L 54.109375 2.78125 
Q 49.265625 0.734375 44.1875 -0.34375 
Q 39.109375 -1.421875 33.890625 -1.421875 
Q 20.796875 -1.421875 13.15625 6.1875 
Q 5.515625 13.8125 5.515625 26.8125 
Q 5.515625 40.234375 12.765625 48.109375 
Q 20.015625 56 32.328125 56 
Q 43.359375 56 49.78125 48.890625 
Q 56.203125 41.796875 56.203125 29.59375 
z
M 47.21875 32.234375 
Q 47.125 39.59375 43.09375 43.984375 
Q 39.0625 48.390625 32.421875 48.390625 
Q 24.90625 48.390625 20.390625 44.140625 
Q 15.875 39.890625 15.1875 32.171875 
z
" id="DejaVuSans-101"/>
      </defs>
      <use xlink:href="#DejaVuSans-100"/>
      <use x="63.476562" xlink:href="#DejaVuSans-97"/>
      <use x="124.755859" xlink:href="#DejaVuSans-116"/>
      <use x="163.964844" xlink:href="#DejaVuSans-101"/>
     </g>
    </g>
   </g>
   <g id="matplotlib.axis_2">
    <g id="ytick_1">
     <g id="line2d_11">
      <defs>
       <path d="M 0 0 
L -3.5 0 
" id="m0bd9bdfa32" style="stroke:#000000;stroke-width:0.8;"/>
      </defs>
      <g>
       <use style="stroke:#000000;stroke-width:0.8;" x="59.328125" xlink:href="#m0bd9bdfa32" y="288.430125"/>
      </g>
     </g>
     <g id="text_12">
      <!-- 0 -->
      <g transform="translate(45.965625 292.229344)scale(0.1 -0.1)">
       <use xlink:href="#DejaVuSans-48"/>
      </g>
     </g>
    </g>
    <g id="ytick_2">
     <g id="line2d_12">
      <g>
       <use style="stroke:#000000;stroke-width:0.8;" x="59.328125" xlink:href="#m0bd9bdfa32" y="256.768971"/>
      </g>
     </g>
     <g id="text_13">
      <!-- 200 -->
      <g transform="translate(33.240625 260.56819)scale(0.1 -0.1)">
       <use xlink:href="#DejaVuSans-50"/>
       <use x="63.623047" xlink:href="#DejaVuSans-48"/>
       <use x="127.246094" xlink:href="#DejaVuSans-48"/>
      </g>
     </g>
    </g>
    <g id="ytick_3">
     <g id="line2d_13">
      <g>
       <use style="stroke:#000000;stroke-width:0.8;" x="59.328125" xlink:href="#m0bd9bdfa32" y="225.107817"/>
      </g>
     </g>
     <g id="text_14">
      <!-- 400 -->
      <g transform="translate(33.240625 228.907036)scale(0.1 -0.1)">
       <use xlink:href="#DejaVuSans-52"/>
       <use x="63.623047" xlink:href="#DejaVuSans-48"/>
       <use x="127.246094" xlink:href="#DejaVuSans-48"/>
      </g>
     </g>
    </g>
    <g id="ytick_4">
     <g id="line2d_14">
      <g>
       <use style="stroke:#000000;stroke-width:0.8;" x="59.328125" xlink:href="#m0bd9bdfa32" y="193.446663"/>
      </g>
     </g>
     <g id="text_15">
      <!-- 600 -->
      <g transform="translate(33.240625 197.245882)scale(0.1 -0.1)">
       <use xlink:href="#DejaVuSans-54"/>
       <use x="63.623047" xlink:href="#DejaVuSans-48"/>
       <use x="127.246094" xlink:href="#DejaVuSans-48"/>
      </g>
     </g>
    </g>
    <g id="ytick_5">
     <g id="line2d_15">
      <g>
       <use style="stroke:#000000;stroke-width:0.8;" x="59.328125" xlink:href="#m0bd9bdfa32" y="161.785509"/>
      </g>
     </g>
     <g id="text_16">
      <!-- 800 -->
      <g transform="translate(33.240625 165.584727)scale(0.1 -0.1)">
       <use xlink:href="#DejaVuSans-56"/>
       <use x="63.623047" xlink:href="#DejaVuSans-48"/>
       <use x="127.246094" xlink:href="#DejaVuSans-48"/>
      </g>
     </g>
    </g>
    <g id="ytick_6">
     <g id="line2d_16">
      <g>
       <use style="stroke:#000000;stroke-width:0.8;" x="59.328125" xlink:href="#m0bd9bdfa32" y="130.124355"/>
      </g>
     </g>
     <g id="text_17">
      <!-- 1000 -->
      <g transform="translate(26.878125 133.923573)scale(0.1 -0.1)">
       <use xlink:href="#DejaVuSans-49"/>
       <use x="63.623047" xlink:href="#DejaVuSans-48"/>
       <use x="127.246094" xlink:href="#DejaVuSans-48"/>
       <use x="190.869141" xlink:href="#DejaVuSans-48"/>
      </g>
     </g>
    </g>
    <g id="ytick_7">
     <g id="line2d_17">
      <g>
       <use style="stroke:#000000;stroke-width:0.8;" x="59.328125" xlink:href="#m0bd9bdfa32" y="98.463201"/>
      </g>
     </g>
     <g id="text_18">
      <!-- 1200 -->
      <g transform="translate(26.878125 102.262419)scale(0.1 -0.1)">
       <use xlink:href="#DejaVuSans-49"/>
       <use x="63.623047" xlink:href="#DejaVuSans-50"/>
       <use x="127.246094" xlink:href="#DejaVuSans-48"/>
       <use x="190.869141" xlink:href="#DejaVuSans-48"/>
      </g>
     </g>
    </g>
    <g id="ytick_8">
     <g id="line2d_18">
      <g>
       <use style="stroke:#000000;stroke-width:0.8;" x="59.328125" xlink:href="#m0bd9bdfa32" y="66.802046"/>
      </g>
     </g>
     <g id="text_19">
      <!-- 1400 -->
      <g transform="translate(26.878125 70.601265)scale(0.1 -0.1)">
       <use xlink:href="#DejaVuSans-49"/>
       <use x="63.623047" xlink:href="#DejaVuSans-52"/>
       <use x="127.246094" xlink:href="#DejaVuSans-48"/>
       <use x="190.869141" xlink:href="#DejaVuSans-48"/>
      </g>
     </g>
    </g>
    <g id="ytick_9">
     <g id="line2d_19">
      <g>
       <use style="stroke:#000000;stroke-width:0.8;" x="59.328125" xlink:href="#m0bd9bdfa32" y="35.140892"/>
      </g>
     </g>
     <g id="text_20">
      <!-- 1600 -->
      <g transform="translate(26.878125 38.940111)scale(0.1 -0.1)">
       <use xlink:href="#DejaVuSans-49"/>
       <use x="63.623047" xlink:href="#DejaVuSans-54"/>
       <use x="127.246094" xlink:href="#DejaVuSans-48"/>
       <use x="190.869141" xlink:href="#DejaVuSans-48"/>
      </g>
     </g>
    </g>
    <g id="text_21">
     <!-- number of tested persons daily -->
     <g transform="translate(14.798438 233.635844)rotate(-90)scale(0.1 -0.1)">
      <defs>
       <path d="M 54.890625 33.015625 
L 54.890625 0 
L 45.90625 0 
L 45.90625 32.71875 
Q 45.90625 40.484375 42.875 44.328125 
Q 39.84375 48.1875 33.796875 48.1875 
Q 26.515625 48.1875 22.3125 43.546875 
Q 18.109375 38.921875 18.109375 30.90625 
L 18.109375 0 
L 9.078125 0 
L 9.078125 54.6875 
L 18.109375 54.6875 
L 18.109375 46.1875 
Q 21.34375 51.125 25.703125 53.5625 
Q 30.078125 56 35.796875 56 
Q 45.21875 56 50.046875 50.171875 
Q 54.890625 44.34375 54.890625 33.015625 
z
" id="DejaVuSans-110"/>
       <path d="M 8.5 21.578125 
L 8.5 54.6875 
L 17.484375 54.6875 
L 17.484375 21.921875 
Q 17.484375 14.15625 20.5 10.265625 
Q 23.53125 6.390625 29.59375 6.390625 
Q 36.859375 6.390625 41.078125 11.03125 
Q 45.3125 15.671875 45.3125 23.6875 
L 45.3125 54.6875 
L 54.296875 54.6875 
L 54.296875 0 
L 45.3125 0 
L 45.3125 8.40625 
Q 42.046875 3.421875 37.71875 1 
Q 33.40625 -1.421875 27.6875 -1.421875 
Q 18.265625 -1.421875 13.375 4.4375 
Q 8.5 10.296875 8.5 21.578125 
z
M 31.109375 56 
z
" id="DejaVuSans-117"/>
       <path d="M 52 44.1875 
Q 55.375 50.25 60.0625 53.125 
Q 64.75 56 71.09375 56 
Q 79.640625 56 84.28125 50.015625 
Q 88.921875 44.046875 88.921875 33.015625 
L 88.921875 0 
L 79.890625 0 
L 79.890625 32.71875 
Q 79.890625 40.578125 77.09375 44.375 
Q 74.3125 48.1875 68.609375 48.1875 
Q 61.625 48.1875 57.5625 43.546875 
Q 53.515625 38.921875 53.515625 30.90625 
L 53.515625 0 
L 44.484375 0 
L 44.484375 32.71875 
Q 44.484375 40.625 41.703125 44.40625 
Q 38.921875 48.1875 33.109375 48.1875 
Q 26.21875 48.1875 22.15625 43.53125 
Q 18.109375 38.875 18.109375 30.90625 
L 18.109375 0 
L 9.078125 0 
L 9.078125 54.6875 
L 18.109375 54.6875 
L 18.109375 46.1875 
Q 21.1875 51.21875 25.484375 53.609375 
Q 29.78125 56 35.6875 56 
Q 41.65625 56 45.828125 52.96875 
Q 50 49.953125 52 44.1875 
z
" id="DejaVuSans-109"/>
       <path d="M 48.6875 27.296875 
Q 48.6875 37.203125 44.609375 42.84375 
Q 40.53125 48.484375 33.40625 48.484375 
Q 26.265625 48.484375 22.1875 42.84375 
Q 18.109375 37.203125 18.109375 27.296875 
Q 18.109375 17.390625 22.1875 11.75 
Q 26.265625 6.109375 33.40625 6.109375 
Q 40.53125 6.109375 44.609375 11.75 
Q 48.6875 17.390625 48.6875 27.296875 
z
M 18.109375 46.390625 
Q 20.953125 51.265625 25.265625 53.625 
Q 29.59375 56 35.59375 56 
Q 45.5625 56 51.78125 48.09375 
Q 58.015625 40.1875 58.015625 27.296875 
Q 58.015625 14.40625 51.78125 6.484375 
Q 45.5625 -1.421875 35.59375 -1.421875 
Q 29.59375 -1.421875 25.265625 0.953125 
Q 20.953125 3.328125 18.109375 8.203125 
L 18.109375 0 
L 9.078125 0 
L 9.078125 75.984375 
L 18.109375 75.984375 
z
" id="DejaVuSans-98"/>
       <path d="M 41.109375 46.296875 
Q 39.59375 47.171875 37.8125 47.578125 
Q 36.03125 48 33.890625 48 
Q 26.265625 48 22.1875 43.046875 
Q 18.109375 38.09375 18.109375 28.8125 
L 18.109375 0 
L 9.078125 0 
L 9.078125 54.6875 
L 18.109375 54.6875 
L 18.109375 46.1875 
Q 20.953125 51.171875 25.484375 53.578125 
Q 30.03125 56 36.53125 56 
Q 37.453125 56 38.578125 55.875 
Q 39.703125 55.765625 41.0625 55.515625 
z
" id="DejaVuSans-114"/>
       <path id="DejaVuSans-32"/>
       <path d="M 30.609375 48.390625 
Q 23.390625 48.390625 19.1875 42.75 
Q 14.984375 37.109375 14.984375 27.296875 
Q 14.984375 17.484375 19.15625 11.84375 
Q 23.34375 6.203125 30.609375 6.203125 
Q 37.796875 6.203125 41.984375 11.859375 
Q 46.1875 17.53125 46.1875 27.296875 
Q 46.1875 37.015625 41.984375 42.703125 
Q 37.796875 48.390625 30.609375 48.390625 
z
M 30.609375 56 
Q 42.328125 56 49.015625 48.375 
Q 55.71875 40.765625 55.71875 27.296875 
Q 55.71875 13.875 49.015625 6.21875 
Q 42.328125 -1.421875 30.609375 -1.421875 
Q 18.84375 -1.421875 12.171875 6.21875 
Q 5.515625 13.875 5.515625 27.296875 
Q 5.515625 40.765625 12.171875 48.375 
Q 18.84375 56 30.609375 56 
z
" id="DejaVuSans-111"/>
       <path d="M 37.109375 75.984375 
L 37.109375 68.5 
L 28.515625 68.5 
Q 23.6875 68.5 21.796875 66.546875 
Q 19.921875 64.59375 19.921875 59.515625 
L 19.921875 54.6875 
L 34.71875 54.6875 
L 34.71875 47.703125 
L 19.921875 47.703125 
L 19.921875 0 
L 10.890625 0 
L 10.890625 47.703125 
L 2.296875 47.703125 
L 2.296875 54.6875 
L 10.890625 54.6875 
L 10.890625 58.5 
Q 10.890625 67.625 15.140625 71.796875 
Q 19.390625 75.984375 28.609375 75.984375 
z
" id="DejaVuSans-102"/>
       <path d="M 44.28125 53.078125 
L 44.28125 44.578125 
Q 40.484375 46.53125 36.375 47.5 
Q 32.28125 48.484375 27.875 48.484375 
Q 21.1875 48.484375 17.84375 46.4375 
Q 14.5 44.390625 14.5 40.28125 
Q 14.5 37.15625 16.890625 35.375 
Q 19.28125 33.59375 26.515625 31.984375 
L 29.59375 31.296875 
Q 39.15625 29.25 43.1875 25.515625 
Q 47.21875 21.78125 47.21875 15.09375 
Q 47.21875 7.46875 41.1875 3.015625 
Q 35.15625 -1.421875 24.609375 -1.421875 
Q 20.21875 -1.421875 15.453125 -0.5625 
Q 10.6875 0.296875 5.421875 2 
L 5.421875 11.28125 
Q 10.40625 8.6875 15.234375 7.390625 
Q 20.0625 6.109375 24.8125 6.109375 
Q 31.15625 6.109375 34.5625 8.28125 
Q 37.984375 10.453125 37.984375 14.40625 
Q 37.984375 18.0625 35.515625 20.015625 
Q 33.0625 21.96875 24.703125 23.78125 
L 21.578125 24.515625 
Q 13.234375 26.265625 9.515625 29.90625 
Q 5.8125 33.546875 5.8125 39.890625 
Q 5.8125 47.609375 11.28125 51.796875 
Q 16.75 56 26.8125 56 
Q 31.78125 56 36.171875 55.265625 
Q 40.578125 54.546875 44.28125 53.078125 
z
" id="DejaVuSans-115"/>
       <path d="M 18.109375 8.203125 
L 18.109375 -20.796875 
L 9.078125 -20.796875 
L 9.078125 54.6875 
L 18.109375 54.6875 
L 18.109375 46.390625 
Q 20.953125 51.265625 25.265625 53.625 
Q 29.59375 56 35.59375 56 
Q 45.5625 56 51.78125 48.09375 
Q 58.015625 40.1875 58.015625 27.296875 
Q 58.015625 14.40625 51.78125 6.484375 
Q 45.5625 -1.421875 35.59375 -1.421875 
Q 29.59375 -1.421875 25.265625 0.953125 
Q 20.953125 3.328125 18.109375 8.203125 
z
M 48.6875 27.296875 
Q 48.6875 37.203125 44.609375 42.84375 
Q 40.53125 48.484375 33.40625 48.484375 
Q 26.265625 48.484375 22.1875 42.84375 
Q 18.109375 37.203125 18.109375 27.296875 
Q 18.109375 17.390625 22.1875 11.75 
Q 26.265625 6.109375 33.40625 6.109375 
Q 40.53125 6.109375 44.609375 11.75 
Q 48.6875 17.390625 48.6875 27.296875 
z
" id="DejaVuSans-112"/>
       <path d="M 9.421875 54.6875 
L 18.40625 54.6875 
L 18.40625 0 
L 9.421875 0 
z
M 9.421875 75.984375 
L 18.40625 75.984375 
L 18.40625 64.59375 
L 9.421875 64.59375 
z
" id="DejaVuSans-105"/>
       <path d="M 9.421875 75.984375 
L 18.40625 75.984375 
L 18.40625 0 
L 9.421875 0 
z
" id="DejaVuSans-108"/>
       <path d="M 32.171875 -5.078125 
Q 28.375 -14.84375 24.75 -17.8125 
Q 21.140625 -20.796875 15.09375 -20.796875 
L 7.90625 -20.796875 
L 7.90625 -13.28125 
L 13.1875 -13.28125 
Q 16.890625 -13.28125 18.9375 -11.515625 
Q 21 -9.765625 23.484375 -3.21875 
L 25.09375 0.875 
L 2.984375 54.6875 
L 12.5 54.6875 
L 29.59375 11.921875 
L 46.6875 54.6875 
L 56.203125 54.6875 
z
" id="DejaVuSans-121"/>
      </defs>
      <use xlink:href="#DejaVuSans-110"/>
      <use x="63.378906" xlink:href="#DejaVuSans-117"/>
      <use x="126.757812" xlink:href="#DejaVuSans-109"/>
      <use x="224.169922" xlink:href="#DejaVuSans-98"/>
      <use x="287.646484" xlink:href="#DejaVuSans-101"/>
      <use x="349.169922" xlink:href="#DejaVuSans-114"/>
      <use x="390.283203" xlink:href="#DejaVuSans-32"/>
      <use x="422.070312" xlink:href="#DejaVuSans-111"/>
      <use x="483.251953" xlink:href="#DejaVuSans-102"/>
      <use x="518.457031" xlink:href="#DejaVuSans-32"/>
      <use x="550.244141" xlink:href="#DejaVuSans-116"/>
      <use x="589.453125" xlink:href="#DejaVuSans-101"/>
      <use x="650.976562" xlink:href="#DejaVuSans-115"/>
      <use x="703.076172" xlink:href="#DejaVuSans-116"/>
      <use x="742.285156" xlink:href="#DejaVuSans-101"/>
      <use x="803.808594" xlink:href="#DejaVuSans-100"/>
      <use x="867.285156" xlink:href="#DejaVuSans-32"/>
      <use x="899.072266" xlink:href="#DejaVuSans-112"/>
      <use x="962.548828" xlink:href="#DejaVuSans-101"/>
      <use x="1024.072266" xlink:href="#DejaVuSans-114"/>
      <use x="1065.185547" xlink:href="#DejaVuSans-115"/>
      <use x="1117.285156" xlink:href="#DejaVuSans-111"/>
      <use x="1178.466797" xlink:href="#DejaVuSans-110"/>
      <use x="1241.845703" xlink:href="#DejaVuSans-115"/>
      <use x="1293.945312" xlink:href="#DejaVuSans-32"/>
      <use x="1325.732422" xlink:href="#DejaVuSans-100"/>
      <use x="1389.208984" xlink:href="#DejaVuSans-97"/>
      <use x="1450.488281" xlink:href="#DejaVuSans-105"/>
      <use x="1478.271484" xlink:href="#DejaVuSans-108"/>
      <use x="1506.054688" xlink:href="#DejaVuSans-121"/>
     </g>
    </g>
   </g>
   <g id="patch_296">
    <path d="M 59.328125 288.430125 
L 59.328125 22.318125 
" style="fill:none;stroke:#000000;stroke-linecap:square;stroke-linejoin:miter;stroke-width:0.8;"/>
   </g>
   <g id="patch_297">
    <path d="M 59.328125 288.430125 
L 416.448125 288.430125 
" style="fill:none;stroke:#000000;stroke-linecap:square;stroke-linejoin:miter;stroke-width:0.8;"/>
   </g>
   <g id="text_22">
    <!-- South Tyrol -->
    <g transform="translate(204.595625 16.318125)scale(0.12 -0.12)">
     <defs>
      <path d="M 53.515625 70.515625 
L 53.515625 60.890625 
Q 47.90625 63.578125 42.921875 64.890625 
Q 37.9375 66.21875 33.296875 66.21875 
Q 25.25 66.21875 20.875 63.09375 
Q 16.5 59.96875 16.5 54.203125 
Q 16.5 49.359375 19.40625 46.890625 
Q 22.3125 44.4375 30.421875 42.921875 
L 36.375 41.703125 
Q 47.40625 39.59375 52.65625 34.296875 
Q 57.90625 29 57.90625 20.125 
Q 57.90625 9.515625 50.796875 4.046875 
Q 43.703125 -1.421875 29.984375 -1.421875 
Q 24.8125 -1.421875 18.96875 -0.25 
Q 13.140625 0.921875 6.890625 3.21875 
L 6.890625 13.375 
Q 12.890625 10.015625 18.65625 8.296875 
Q 24.421875 6.59375 29.984375 6.59375 
Q 38.421875 6.59375 43.015625 9.90625 
Q 47.609375 13.234375 47.609375 19.390625 
Q 47.609375 24.75 44.3125 27.78125 
Q 41.015625 30.8125 33.5 32.328125 
L 27.484375 33.5 
Q 16.453125 35.6875 11.515625 40.375 
Q 6.59375 45.0625 6.59375 53.421875 
Q 6.59375 63.09375 13.40625 68.65625 
Q 20.21875 74.21875 32.171875 74.21875 
Q 37.3125 74.21875 42.625 73.28125 
Q 47.953125 72.359375 53.515625 70.515625 
z
" id="DejaVuSans-83"/>
      <path d="M 54.890625 33.015625 
L 54.890625 0 
L 45.90625 0 
L 45.90625 32.71875 
Q 45.90625 40.484375 42.875 44.328125 
Q 39.84375 48.1875 33.796875 48.1875 
Q 26.515625 48.1875 22.3125 43.546875 
Q 18.109375 38.921875 18.109375 30.90625 
L 18.109375 0 
L 9.078125 0 
L 9.078125 75.984375 
L 18.109375 75.984375 
L 18.109375 46.1875 
Q 21.34375 51.125 25.703125 53.5625 
Q 30.078125 56 35.796875 56 
Q 45.21875 56 50.046875 50.171875 
Q 54.890625 44.34375 54.890625 33.015625 
z
" id="DejaVuSans-104"/>
      <path d="M -0.296875 72.90625 
L 61.375 72.90625 
L 61.375 64.59375 
L 35.5 64.59375 
L 35.5 0 
L 25.59375 0 
L 25.59375 64.59375 
L -0.296875 64.59375 
z
" id="DejaVuSans-84"/>
     </defs>
     <use xlink:href="#DejaVuSans-83"/>
     <use x="63.476562" xlink:href="#DejaVuSans-111"/>
     <use x="124.658203" xlink:href="#DejaVuSans-117"/>
     <use x="188.037109" xlink:href="#DejaVuSans-116"/>
     <use x="227.246094" xlink:href="#DejaVuSans-104"/>
     <use x="290.625" xlink:href="#DejaVuSans-32"/>
     <use x="322.412109" xlink:href="#DejaVuSans-84"/>
     <use x="367.871094" xlink:href="#DejaVuSans-121"/>
     <use x="427.050781" xlink:href="#DejaVuSans-114"/>
     <use x="465.914062" xlink:href="#DejaVuSans-111"/>
     <use x="527.095703" xlink:href="#DejaVuSans-108"/>
    </g>
   </g>
  </g>
 </g>
 <defs>
  <clipPath id="pc10900fada">
   <rect height="266.112" width="357.12" x="59.328125" y="22.318125"/>
  </clipPath>
 </defs>
</svg>
