<?xml version="1.0" encoding="utf-8" standalone="no"?>
<!DOCTYPE svg PUBLIC "-//W3C//DTD SVG 1.1//EN"
  "http://www.w3.org/Graphics/SVG/1.1/DTD/svg11.dtd">
<!-- Created with matplotlib (https://matplotlib.org/) -->
<svg height="364.091062pt" version="1.1" viewBox="0 0 417.901985 364.091062" width="417.901985pt" xmlns="http://www.w3.org/2000/svg" xmlns:xlink="http://www.w3.org/1999/xlink">
 <metadata>
  <rdf:RDF xmlns:cc="http://creativecommons.org/ns#" xmlns:dc="http://purl.org/dc/elements/1.1/" xmlns:rdf="http://www.w3.org/1999/02/22-rdf-syntax-ns#">
   <cc:Work>
    <dc:type rdf:resource="http://purl.org/dc/dcmitype/StillImage"/>
    <dc:date>2021-01-04T14:19:03.709642</dc:date>
    <dc:format>image/svg+xml</dc:format>
    <dc:creator>
     <cc:Agent>
      <dc:title>Matplotlib v3.3.3, https://matplotlib.org/</dc:title>
     </cc:Agent>
    </dc:creator>
   </cc:Work>
  </rdf:RDF>
 </metadata>
 <defs>
  <style type="text/css">*{stroke-linecap:butt;stroke-linejoin:round;}</style>
 </defs>
 <g id="figure_1">
  <g id="patch_1">
   <path d="M 0 364.091062 
L 417.901985 364.091062 
L 417.901985 0 
L 0 0 
z
" style="fill:#ffffff;"/>
  </g>
  <g id="axes_1">
   <g id="patch_2">
    <path d="M 52.965625 288.430125 
L 410.085625 288.430125 
L 410.085625 22.318125 
L 52.965625 22.318125 
z
" style="fill:#ffffff;"/>
   </g>
   <g id="patch_3">
    <path clip-path="url(#pe007419e5b)" d="M 53.086274 288.430125 
L 54.051463 288.430125 
L 54.051463 221.577598 
L 53.086274 221.577598 
z
" style="fill:#1f77b4;"/>
   </g>
   <g id="patch_4">
    <path clip-path="url(#pe007419e5b)" d="M 54.29276 288.430125 
L 55.257949 288.430125 
L 55.257949 276.098105 
L 54.29276 276.098105 
z
" style="fill:#1f77b4;"/>
   </g>
   <g id="patch_5">
    <path clip-path="url(#pe007419e5b)" d="M 55.499247 288.430125 
L 56.464436 288.430125 
L 56.464436 272.52831 
L 55.499247 272.52831 
z
" style="fill:#1f77b4;"/>
   </g>
   <g id="patch_6">
    <path clip-path="url(#pe007419e5b)" d="M 56.705733 288.430125 
L 57.670922 288.430125 
L 57.670922 259.22271 
L 56.705733 259.22271 
z
" style="fill:#1f77b4;"/>
   </g>
   <g id="patch_7">
    <path clip-path="url(#pe007419e5b)" d="M 57.91222 288.430125 
L 58.877409 288.430125 
L 58.877409 269.607569 
L 57.91222 269.607569 
z
" style="fill:#1f77b4;"/>
   </g>
   <g id="patch_8">
    <path clip-path="url(#pe007419e5b)" d="M 59.118706 288.430125 
L 60.083895 288.430125 
L 60.083895 251.434066 
L 59.118706 251.434066 
z
" style="fill:#1f77b4;"/>
   </g>
   <g id="patch_9">
    <path clip-path="url(#pe007419e5b)" d="M 60.325193 288.430125 
L 61.290382 288.430125 
L 61.290382 266.362301 
L 60.325193 266.362301 
z
" style="fill:#1f77b4;"/>
   </g>
   <g id="patch_10">
    <path clip-path="url(#pe007419e5b)" d="M 61.531679 288.430125 
L 62.496868 288.430125 
L 62.496868 269.283042 
L 61.531679 269.283042 
z
" style="fill:#1f77b4;"/>
   </g>
   <g id="patch_11">
    <path clip-path="url(#pe007419e5b)" d="M 62.738166 288.430125 
L 63.703355 288.430125 
L 63.703355 274.799998 
L 62.738166 274.799998 
z
" style="fill:#1f77b4;"/>
   </g>
   <g id="patch_12">
    <path clip-path="url(#pe007419e5b)" d="M 63.944652 288.430125 
L 64.909841 288.430125 
L 64.909841 267.335881 
L 63.944652 267.335881 
z
" style="fill:#1f77b4;"/>
   </g>
   <g id="patch_13">
    <path clip-path="url(#pe007419e5b)" d="M 65.151139 288.430125 
L 66.116328 288.430125 
L 66.116328 273.177364 
L 65.151139 273.177364 
z
" style="fill:#1f77b4;"/>
   </g>
   <g id="patch_14">
    <path clip-path="url(#pe007419e5b)" d="M 66.357625 288.430125 
L 67.322814 288.430125 
L 67.322814 264.41514 
L 66.357625 264.41514 
z
" style="fill:#1f77b4;"/>
   </g>
   <g id="patch_15">
    <path clip-path="url(#pe007419e5b)" d="M 67.564111 288.430125 
L 68.529301 288.430125 
L 68.529301 258.24913 
L 67.564111 258.24913 
z
" style="fill:#1f77b4;"/>
   </g>
   <g id="patch_16">
    <path clip-path="url(#pe007419e5b)" d="M 68.770598 288.430125 
L 69.735787 288.430125 
L 69.735787 262.792505 
L 68.770598 262.792505 
z
" style="fill:#1f77b4;"/>
   </g>
   <g id="patch_17">
    <path clip-path="url(#pe007419e5b)" d="M 69.977084 288.430125 
L 70.942274 288.430125 
L 70.942274 248.513325 
L 69.977084 248.513325 
z
" style="fill:#1f77b4;"/>
   </g>
   <g id="patch_18">
    <path clip-path="url(#pe007419e5b)" d="M 71.183571 288.430125 
L 72.14876 288.430125 
L 72.14876 260.196291 
L 71.183571 260.196291 
z
" style="fill:#1f77b4;"/>
   </g>
   <g id="patch_19">
    <path clip-path="url(#pe007419e5b)" d="M 72.390057 288.430125 
L 73.355247 288.430125 
L 73.355247 268.958515 
L 72.390057 268.958515 
z
" style="fill:#1f77b4;"/>
   </g>
   <g id="patch_20">
    <path clip-path="url(#pe007419e5b)" d="M 73.596544 288.430125 
L 74.561733 288.430125 
L 74.561733 273.501891 
L 73.596544 273.501891 
z
" style="fill:#1f77b4;"/>
   </g>
   <g id="patch_21">
    <path clip-path="url(#pe007419e5b)" d="M 74.80303 288.430125 
L 75.76822 288.430125 
L 75.76822 273.826418 
L 74.80303 273.826418 
z
" style="fill:#1f77b4;"/>
   </g>
   <g id="patch_22">
    <path clip-path="url(#pe007419e5b)" d="M 76.009517 288.430125 
L 76.974706 288.430125 
L 76.974706 262.792505 
L 76.009517 262.792505 
z
" style="fill:#1f77b4;"/>
   </g>
   <g id="patch_23">
    <path clip-path="url(#pe007419e5b)" d="M 77.216003 288.430125 
L 78.181193 288.430125 
L 78.181193 259.547237 
L 77.216003 259.547237 
z
" style="fill:#1f77b4;"/>
   </g>
   <g id="patch_24">
    <path clip-path="url(#pe007419e5b)" d="M 78.42249 288.430125 
L 79.387679 288.430125 
L 79.387679 274.799998 
L 78.42249 274.799998 
z
" style="fill:#1f77b4;"/>
   </g>
   <g id="patch_25">
    <path clip-path="url(#pe007419e5b)" d="M 79.628976 288.430125 
L 80.594166 288.430125 
L 80.594166 262.792505 
L 79.628976 262.792505 
z
" style="fill:#1f77b4;"/>
   </g>
   <g id="patch_26">
    <path clip-path="url(#pe007419e5b)" d="M 80.835463 288.430125 
L 81.800652 288.430125 
L 81.800652 269.283042 
L 80.835463 269.283042 
z
" style="fill:#1f77b4;"/>
   </g>
   <g id="patch_27">
    <path clip-path="url(#pe007419e5b)" d="M 82.041949 288.430125 
L 83.007139 288.430125 
L 83.007139 266.362301 
L 82.041949 266.362301 
z
" style="fill:#1f77b4;"/>
   </g>
   <g id="patch_28">
    <path clip-path="url(#pe007419e5b)" d="M 83.248436 288.430125 
L 84.213625 288.430125 
L 84.213625 271.55473 
L 83.248436 271.55473 
z
" style="fill:#1f77b4;"/>
   </g>
   <g id="patch_29">
    <path clip-path="url(#pe007419e5b)" d="M 84.454922 288.430125 
L 85.420111 288.430125 
L 85.420111 267.984935 
L 84.454922 267.984935 
z
" style="fill:#1f77b4;"/>
   </g>
   <g id="patch_30">
    <path clip-path="url(#pe007419e5b)" d="M 85.661409 288.430125 
L 86.626598 288.430125 
L 86.626598 266.686827 
L 85.661409 266.686827 
z
" style="fill:#1f77b4;"/>
   </g>
   <g id="patch_31">
    <path clip-path="url(#pe007419e5b)" d="M 86.867895 288.430125 
L 87.833084 288.430125 
L 87.833084 271.230203 
L 86.867895 271.230203 
z
" style="fill:#1f77b4;"/>
   </g>
   <g id="patch_32">
    <path clip-path="url(#pe007419e5b)" d="M 88.074382 288.430125 
L 89.039571 288.430125 
L 89.039571 271.879257 
L 88.074382 271.879257 
z
" style="fill:#1f77b4;"/>
   </g>
   <g id="patch_33">
    <path clip-path="url(#pe007419e5b)" d="M 89.280868 288.430125 
L 90.246057 288.430125 
L 90.246057 277.071686 
L 89.280868 277.071686 
z
" style="fill:#1f77b4;"/>
   </g>
   <g id="patch_34">
    <path clip-path="url(#pe007419e5b)" d="M 90.487355 288.430125 
L 91.452544 288.430125 
L 91.452544 274.150945 
L 90.487355 274.150945 
z
" style="fill:#1f77b4;"/>
   </g>
   <g id="patch_35">
    <path clip-path="url(#pe007419e5b)" d="M 91.693841 288.430125 
L 92.65903 288.430125 
L 92.65903 274.150945 
L 91.693841 274.150945 
z
" style="fill:#1f77b4;"/>
   </g>
   <g id="patch_36">
    <path clip-path="url(#pe007419e5b)" d="M 92.900328 288.430125 
L 93.865517 288.430125 
L 93.865517 279.343374 
L 92.900328 279.343374 
z
" style="fill:#1f77b4;"/>
   </g>
   <g id="patch_37">
    <path clip-path="url(#pe007419e5b)" d="M 94.106814 288.430125 
L 95.072003 288.430125 
L 95.072003 279.018847 
L 94.106814 279.018847 
z
" style="fill:#1f77b4;"/>
   </g>
   <g id="patch_38">
    <path clip-path="url(#pe007419e5b)" d="M 95.313301 288.430125 
L 96.27849 288.430125 
L 96.27849 270.581149 
L 95.313301 270.581149 
z
" style="fill:#1f77b4;"/>
   </g>
   <g id="patch_39">
    <path clip-path="url(#pe007419e5b)" d="M 96.519787 288.430125 
L 97.484976 288.430125 
L 97.484976 283.562223 
L 96.519787 283.562223 
z
" style="fill:#1f77b4;"/>
   </g>
   <g id="patch_40">
    <path clip-path="url(#pe007419e5b)" d="M 97.726274 288.430125 
L 98.691463 288.430125 
L 98.691463 282.913169 
L 97.726274 282.913169 
z
" style="fill:#1f77b4;"/>
   </g>
   <g id="patch_41">
    <path clip-path="url(#pe007419e5b)" d="M 98.93276 288.430125 
L 99.897949 288.430125 
L 99.897949 287.132018 
L 98.93276 287.132018 
z
" style="fill:#1f77b4;"/>
   </g>
   <g id="patch_42">
    <path clip-path="url(#pe007419e5b)" d="M 100.139247 288.430125 
L 101.104436 288.430125 
L 101.104436 282.264115 
L 100.139247 282.264115 
z
" style="fill:#1f77b4;"/>
   </g>
   <g id="patch_43">
    <path clip-path="url(#pe007419e5b)" d="M 101.345733 288.430125 
L 102.310922 288.430125 
L 102.310922 281.615062 
L 101.345733 281.615062 
z
" style="fill:#1f77b4;"/>
   </g>
   <g id="patch_44">
    <path clip-path="url(#pe007419e5b)" d="M 102.55222 288.430125 
L 103.517409 288.430125 
L 103.517409 281.939588 
L 102.55222 281.939588 
z
" style="fill:#1f77b4;"/>
   </g>
   <g id="patch_45">
    <path clip-path="url(#pe007419e5b)" d="M 103.758706 288.430125 
L 104.723895 288.430125 
L 104.723895 286.807491 
L 103.758706 286.807491 
z
" style="fill:#1f77b4;"/>
   </g>
   <g id="patch_46">
    <path clip-path="url(#pe007419e5b)" d="M 104.965193 288.430125 
L 105.930382 288.430125 
L 105.930382 283.562223 
L 104.965193 283.562223 
z
" style="fill:#1f77b4;"/>
   </g>
   <g id="patch_47">
    <path clip-path="url(#pe007419e5b)" d="M 106.171679 288.430125 
L 107.136868 288.430125 
L 107.136868 287.781071 
L 106.171679 287.781071 
z
" style="fill:#1f77b4;"/>
   </g>
   <g id="patch_48">
    <path clip-path="url(#pe007419e5b)" d="M 107.378166 288.430125 
L 108.343355 288.430125 
L 108.343355 285.509384 
L 107.378166 285.509384 
z
" style="fill:#1f77b4;"/>
   </g>
   <g id="patch_49">
    <path clip-path="url(#pe007419e5b)" d="M 108.584652 288.430125 
L 109.549841 288.430125 
L 109.549841 284.86033 
L 108.584652 284.86033 
z
" style="fill:#1f77b4;"/>
   </g>
   <g id="patch_50">
    <path clip-path="url(#pe007419e5b)" d="M 109.791139 288.430125 
L 110.756328 288.430125 
L 110.756328 285.184857 
L 109.791139 285.184857 
z
" style="fill:#1f77b4;"/>
   </g>
   <g id="patch_51">
    <path clip-path="url(#pe007419e5b)" d="M 110.997625 288.430125 
L 111.962814 288.430125 
L 111.962814 286.158437 
L 110.997625 286.158437 
z
" style="fill:#1f77b4;"/>
   </g>
   <g id="patch_52">
    <path clip-path="url(#pe007419e5b)" d="M 112.204111 288.430125 
L 113.169301 288.430125 
L 113.169301 288.105598 
L 112.204111 288.105598 
z
" style="fill:#1f77b4;"/>
   </g>
   <g id="patch_53">
    <path clip-path="url(#pe007419e5b)" d="M 113.410598 288.430125 
L 114.375787 288.430125 
L 114.375787 286.807491 
L 113.410598 286.807491 
z
" style="fill:#1f77b4;"/>
   </g>
   <g id="patch_54">
    <path clip-path="url(#pe007419e5b)" d="M 114.617084 288.430125 
L 115.582274 288.430125 
L 115.582274 288.105598 
L 114.617084 288.105598 
z
" style="fill:#1f77b4;"/>
   </g>
   <g id="patch_55">
    <path clip-path="url(#pe007419e5b)" d="M 115.823571 288.430125 
L 116.78876 288.430125 
L 116.78876 288.105598 
L 115.823571 288.105598 
z
" style="fill:#1f77b4;"/>
   </g>
   <g id="patch_56">
    <path clip-path="url(#pe007419e5b)" d="M 117.030057 288.430125 
L 117.995247 288.430125 
L 117.995247 285.509384 
L 117.030057 285.509384 
z
" style="fill:#1f77b4;"/>
   </g>
   <g id="patch_57">
    <path clip-path="url(#pe007419e5b)" d="M 118.236544 288.430125 
L 119.201733 288.430125 
L 119.201733 286.482964 
L 118.236544 286.482964 
z
" style="fill:#1f77b4;"/>
   </g>
   <g id="patch_58">
    <path clip-path="url(#pe007419e5b)" d="M 119.44303 288.430125 
L 120.40822 288.430125 
L 120.40822 285.509384 
L 119.44303 285.509384 
z
" style="fill:#1f77b4;"/>
   </g>
   <g id="patch_59">
    <path clip-path="url(#pe007419e5b)" d="M 120.649517 288.430125 
L 121.614706 288.430125 
L 121.614706 287.781071 
L 120.649517 287.781071 
z
" style="fill:#1f77b4;"/>
   </g>
   <g id="patch_60">
    <path clip-path="url(#pe007419e5b)" d="M 121.856003 288.430125 
L 122.821193 288.430125 
L 122.821193 287.456545 
L 121.856003 287.456545 
z
" style="fill:#1f77b4;"/>
   </g>
   <g id="patch_61">
    <path clip-path="url(#pe007419e5b)" d="M 123.06249 288.430125 
L 124.027679 288.430125 
L 124.027679 288.430125 
L 123.06249 288.430125 
z
" style="fill:#1f77b4;"/>
   </g>
   <g id="patch_62">
    <path clip-path="url(#pe007419e5b)" d="M 124.268976 288.430125 
L 125.234166 288.430125 
L 125.234166 287.456545 
L 124.268976 287.456545 
z
" style="fill:#1f77b4;"/>
   </g>
   <g id="patch_63">
    <path clip-path="url(#pe007419e5b)" d="M 125.475463 288.430125 
L 126.440652 288.430125 
L 126.440652 287.456545 
L 125.475463 287.456545 
z
" style="fill:#1f77b4;"/>
   </g>
   <g id="patch_64">
    <path clip-path="url(#pe007419e5b)" d="M 126.681949 288.430125 
L 127.647139 288.430125 
L 127.647139 288.430125 
L 126.681949 288.430125 
z
" style="fill:#1f77b4;"/>
   </g>
   <g id="patch_65">
    <path clip-path="url(#pe007419e5b)" d="M 127.888436 288.430125 
L 128.853625 288.430125 
L 128.853625 288.430125 
L 127.888436 288.430125 
z
" style="fill:#1f77b4;"/>
   </g>
   <g id="patch_66">
    <path clip-path="url(#pe007419e5b)" d="M 129.094922 288.430125 
L 130.060111 288.430125 
L 130.060111 287.781071 
L 129.094922 287.781071 
z
" style="fill:#1f77b4;"/>
   </g>
   <g id="patch_67">
    <path clip-path="url(#pe007419e5b)" d="M 130.301409 288.430125 
L 131.266598 288.430125 
L 131.266598 287.781071 
L 130.301409 287.781071 
z
" style="fill:#1f77b4;"/>
   </g>
   <g id="patch_68">
    <path clip-path="url(#pe007419e5b)" d="M 131.507895 288.430125 
L 132.473084 288.430125 
L 132.473084 286.807491 
L 131.507895 286.807491 
z
" style="fill:#1f77b4;"/>
   </g>
   <g id="patch_69">
    <path clip-path="url(#pe007419e5b)" d="M 132.714382 288.430125 
L 133.679571 288.430125 
L 133.679571 288.430125 
L 132.714382 288.430125 
z
" style="fill:#1f77b4;"/>
   </g>
   <g id="patch_70">
    <path clip-path="url(#pe007419e5b)" d="M 133.920868 288.430125 
L 134.886057 288.430125 
L 134.886057 288.430125 
L 133.920868 288.430125 
z
" style="fill:#1f77b4;"/>
   </g>
   <g id="patch_71">
    <path clip-path="url(#pe007419e5b)" d="M 135.127355 288.430125 
L 136.092544 288.430125 
L 136.092544 287.456545 
L 135.127355 287.456545 
z
" style="fill:#1f77b4;"/>
   </g>
   <g id="patch_72">
    <path clip-path="url(#pe007419e5b)" d="M 136.333841 288.430125 
L 137.29903 288.430125 
L 137.29903 288.430125 
L 136.333841 288.430125 
z
" style="fill:#1f77b4;"/>
   </g>
   <g id="patch_73">
    <path clip-path="url(#pe007419e5b)" d="M 137.540328 288.430125 
L 138.505517 288.430125 
L 138.505517 287.781071 
L 137.540328 287.781071 
z
" style="fill:#1f77b4;"/>
   </g>
   <g id="patch_74">
    <path clip-path="url(#pe007419e5b)" d="M 138.746814 288.430125 
L 139.712003 288.430125 
L 139.712003 288.430125 
L 138.746814 288.430125 
z
" style="fill:#1f77b4;"/>
   </g>
   <g id="patch_75">
    <path clip-path="url(#pe007419e5b)" d="M 139.953301 288.430125 
L 140.91849 288.430125 
L 140.91849 288.105598 
L 139.953301 288.105598 
z
" style="fill:#1f77b4;"/>
   </g>
   <g id="patch_76">
    <path clip-path="url(#pe007419e5b)" d="M 141.159787 288.430125 
L 142.124976 288.430125 
L 142.124976 288.430125 
L 141.159787 288.430125 
z
" style="fill:#1f77b4;"/>
   </g>
   <g id="patch_77">
    <path clip-path="url(#pe007419e5b)" d="M 142.366274 288.430125 
L 143.331463 288.430125 
L 143.331463 287.781071 
L 142.366274 287.781071 
z
" style="fill:#1f77b4;"/>
   </g>
   <g id="patch_78">
    <path clip-path="url(#pe007419e5b)" d="M 143.57276 288.430125 
L 144.537949 288.430125 
L 144.537949 288.430125 
L 143.57276 288.430125 
z
" style="fill:#1f77b4;"/>
   </g>
   <g id="patch_79">
    <path clip-path="url(#pe007419e5b)" d="M 144.779247 288.430125 
L 145.744436 288.430125 
L 145.744436 288.105598 
L 144.779247 288.105598 
z
" style="fill:#1f77b4;"/>
   </g>
   <g id="patch_80">
    <path clip-path="url(#pe007419e5b)" d="M 145.985733 288.430125 
L 146.950922 288.430125 
L 146.950922 288.105598 
L 145.985733 288.105598 
z
" style="fill:#1f77b4;"/>
   </g>
   <g id="patch_81">
    <path clip-path="url(#pe007419e5b)" d="M 147.19222 288.430125 
L 148.157409 288.430125 
L 148.157409 288.430125 
L 147.19222 288.430125 
z
" style="fill:#1f77b4;"/>
   </g>
   <g id="patch_82">
    <path clip-path="url(#pe007419e5b)" d="M 148.398706 288.430125 
L 149.363895 288.430125 
L 149.363895 288.430125 
L 148.398706 288.430125 
z
" style="fill:#1f77b4;"/>
   </g>
   <g id="patch_83">
    <path clip-path="url(#pe007419e5b)" d="M 149.605193 288.430125 
L 150.570382 288.430125 
L 150.570382 288.430125 
L 149.605193 288.430125 
z
" style="fill:#1f77b4;"/>
   </g>
   <g id="patch_84">
    <path clip-path="url(#pe007419e5b)" d="M 150.811679 288.430125 
L 151.776868 288.430125 
L 151.776868 288.430125 
L 150.811679 288.430125 
z
" style="fill:#1f77b4;"/>
   </g>
   <g id="patch_85">
    <path clip-path="url(#pe007419e5b)" d="M 152.018166 288.430125 
L 152.983355 288.430125 
L 152.983355 288.105598 
L 152.018166 288.105598 
z
" style="fill:#1f77b4;"/>
   </g>
   <g id="patch_86">
    <path clip-path="url(#pe007419e5b)" d="M 153.224652 288.430125 
L 154.189841 288.430125 
L 154.189841 288.105598 
L 153.224652 288.105598 
z
" style="fill:#1f77b4;"/>
   </g>
   <g id="patch_87">
    <path clip-path="url(#pe007419e5b)" d="M 154.431139 288.430125 
L 155.396328 288.430125 
L 155.396328 287.456545 
L 154.431139 287.456545 
z
" style="fill:#1f77b4;"/>
   </g>
   <g id="patch_88">
    <path clip-path="url(#pe007419e5b)" d="M 155.637625 288.430125 
L 156.602814 288.430125 
L 156.602814 288.430125 
L 155.637625 288.430125 
z
" style="fill:#1f77b4;"/>
   </g>
   <g id="patch_89">
    <path clip-path="url(#pe007419e5b)" d="M 156.844111 288.430125 
L 157.809301 288.430125 
L 157.809301 288.430125 
L 156.844111 288.430125 
z
" style="fill:#1f77b4;"/>
   </g>
   <g id="patch_90">
    <path clip-path="url(#pe007419e5b)" d="M 158.050598 288.430125 
L 159.015787 288.430125 
L 159.015787 288.430125 
L 158.050598 288.430125 
z
" style="fill:#1f77b4;"/>
   </g>
   <g id="patch_91">
    <path clip-path="url(#pe007419e5b)" d="M 159.257084 288.430125 
L 160.222274 288.430125 
L 160.222274 287.132018 
L 159.257084 287.132018 
z
" style="fill:#1f77b4;"/>
   </g>
   <g id="patch_92">
    <path clip-path="url(#pe007419e5b)" d="M 160.463571 288.430125 
L 161.42876 288.430125 
L 161.42876 287.781071 
L 160.463571 287.781071 
z
" style="fill:#1f77b4;"/>
   </g>
   <g id="patch_93">
    <path clip-path="url(#pe007419e5b)" d="M 161.670057 288.430125 
L 162.635247 288.430125 
L 162.635247 287.781071 
L 161.670057 287.781071 
z
" style="fill:#1f77b4;"/>
   </g>
   <g id="patch_94">
    <path clip-path="url(#pe007419e5b)" d="M 162.876544 288.430125 
L 163.841733 288.430125 
L 163.841733 288.105598 
L 162.876544 288.105598 
z
" style="fill:#1f77b4;"/>
   </g>
   <g id="patch_95">
    <path clip-path="url(#pe007419e5b)" d="M 164.08303 288.430125 
L 165.04822 288.430125 
L 165.04822 288.430125 
L 164.08303 288.430125 
z
" style="fill:#1f77b4;"/>
   </g>
   <g id="patch_96">
    <path clip-path="url(#pe007419e5b)" d="M 165.289517 288.430125 
L 166.254706 288.430125 
L 166.254706 288.430125 
L 165.289517 288.430125 
z
" style="fill:#1f77b4;"/>
   </g>
   <g id="patch_97">
    <path clip-path="url(#pe007419e5b)" d="M 166.496003 288.430125 
L 167.461193 288.430125 
L 167.461193 288.430125 
L 166.496003 288.430125 
z
" style="fill:#1f77b4;"/>
   </g>
   <g id="patch_98">
    <path clip-path="url(#pe007419e5b)" d="M 167.70249 288.430125 
L 168.667679 288.430125 
L 168.667679 287.781071 
L 167.70249 287.781071 
z
" style="fill:#1f77b4;"/>
   </g>
   <g id="patch_99">
    <path clip-path="url(#pe007419e5b)" d="M 168.908976 288.430125 
L 169.874166 288.430125 
L 169.874166 287.781071 
L 168.908976 287.781071 
z
" style="fill:#1f77b4;"/>
   </g>
   <g id="patch_100">
    <path clip-path="url(#pe007419e5b)" d="M 170.115463 288.430125 
L 171.080652 288.430125 
L 171.080652 287.456545 
L 170.115463 287.456545 
z
" style="fill:#1f77b4;"/>
   </g>
   <g id="patch_101">
    <path clip-path="url(#pe007419e5b)" d="M 171.321949 288.430125 
L 172.287139 288.430125 
L 172.287139 287.132018 
L 171.321949 287.132018 
z
" style="fill:#1f77b4;"/>
   </g>
   <g id="patch_102">
    <path clip-path="url(#pe007419e5b)" d="M 172.528436 288.430125 
L 173.493625 288.430125 
L 173.493625 284.86033 
L 172.528436 284.86033 
z
" style="fill:#1f77b4;"/>
   </g>
   <g id="patch_103">
    <path clip-path="url(#pe007419e5b)" d="M 173.734922 288.430125 
L 174.700111 288.430125 
L 174.700111 288.430125 
L 173.734922 288.430125 
z
" style="fill:#1f77b4;"/>
   </g>
   <g id="patch_104">
    <path clip-path="url(#pe007419e5b)" d="M 174.941409 288.430125 
L 175.906598 288.430125 
L 175.906598 288.105598 
L 174.941409 288.105598 
z
" style="fill:#1f77b4;"/>
   </g>
   <g id="patch_105">
    <path clip-path="url(#pe007419e5b)" d="M 176.147895 288.430125 
L 177.113084 288.430125 
L 177.113084 288.430125 
L 176.147895 288.430125 
z
" style="fill:#1f77b4;"/>
   </g>
   <g id="patch_106">
    <path clip-path="url(#pe007419e5b)" d="M 177.354382 288.430125 
L 178.319571 288.430125 
L 178.319571 288.430125 
L 177.354382 288.430125 
z
" style="fill:#1f77b4;"/>
   </g>
   <g id="patch_107">
    <path clip-path="url(#pe007419e5b)" d="M 178.560868 288.430125 
L 179.526057 288.430125 
L 179.526057 287.781071 
L 178.560868 287.781071 
z
" style="fill:#1f77b4;"/>
   </g>
   <g id="patch_108">
    <path clip-path="url(#pe007419e5b)" d="M 179.767355 288.430125 
L 180.732544 288.430125 
L 180.732544 288.105598 
L 179.767355 288.105598 
z
" style="fill:#1f77b4;"/>
   </g>
   <g id="patch_109">
    <path clip-path="url(#pe007419e5b)" d="M 180.973841 288.430125 
L 181.93903 288.430125 
L 181.93903 287.781071 
L 180.973841 287.781071 
z
" style="fill:#1f77b4;"/>
   </g>
   <g id="patch_110">
    <path clip-path="url(#pe007419e5b)" d="M 182.180328 288.430125 
L 183.145517 288.430125 
L 183.145517 288.430125 
L 182.180328 288.430125 
z
" style="fill:#1f77b4;"/>
   </g>
   <g id="patch_111">
    <path clip-path="url(#pe007419e5b)" d="M 183.386814 288.430125 
L 184.352003 288.430125 
L 184.352003 287.781071 
L 183.386814 287.781071 
z
" style="fill:#1f77b4;"/>
   </g>
   <g id="patch_112">
    <path clip-path="url(#pe007419e5b)" d="M 184.593301 288.430125 
L 185.55849 288.430125 
L 185.55849 288.105598 
L 184.593301 288.105598 
z
" style="fill:#1f77b4;"/>
   </g>
   <g id="patch_113">
    <path clip-path="url(#pe007419e5b)" d="M 185.799787 288.430125 
L 186.764976 288.430125 
L 186.764976 288.430125 
L 185.799787 288.430125 
z
" style="fill:#1f77b4;"/>
   </g>
   <g id="patch_114">
    <path clip-path="url(#pe007419e5b)" d="M 187.006274 288.430125 
L 187.971463 288.430125 
L 187.971463 287.132018 
L 187.006274 287.132018 
z
" style="fill:#1f77b4;"/>
   </g>
   <g id="patch_115">
    <path clip-path="url(#pe007419e5b)" d="M 188.21276 288.430125 
L 189.177949 288.430125 
L 189.177949 288.105598 
L 188.21276 288.105598 
z
" style="fill:#1f77b4;"/>
   </g>
   <g id="patch_116">
    <path clip-path="url(#pe007419e5b)" d="M 189.419247 288.430125 
L 190.384436 288.430125 
L 190.384436 288.430125 
L 189.419247 288.430125 
z
" style="fill:#1f77b4;"/>
   </g>
   <g id="patch_117">
    <path clip-path="url(#pe007419e5b)" d="M 190.625733 288.430125 
L 191.590922 288.430125 
L 191.590922 288.105598 
L 190.625733 288.105598 
z
" style="fill:#1f77b4;"/>
   </g>
   <g id="patch_118">
    <path clip-path="url(#pe007419e5b)" d="M 191.83222 288.430125 
L 192.797409 288.430125 
L 192.797409 287.781071 
L 191.83222 287.781071 
z
" style="fill:#1f77b4;"/>
   </g>
   <g id="patch_119">
    <path clip-path="url(#pe007419e5b)" d="M 193.038706 288.430125 
L 194.003895 288.430125 
L 194.003895 287.456545 
L 193.038706 287.456545 
z
" style="fill:#1f77b4;"/>
   </g>
   <g id="patch_120">
    <path clip-path="url(#pe007419e5b)" d="M 194.245193 288.430125 
L 195.210382 288.430125 
L 195.210382 286.807491 
L 194.245193 286.807491 
z
" style="fill:#1f77b4;"/>
   </g>
   <g id="patch_121">
    <path clip-path="url(#pe007419e5b)" d="M 195.451679 288.430125 
L 196.416868 288.430125 
L 196.416868 287.456545 
L 195.451679 287.456545 
z
" style="fill:#1f77b4;"/>
   </g>
   <g id="patch_122">
    <path clip-path="url(#pe007419e5b)" d="M 196.658166 288.430125 
L 197.623355 288.430125 
L 197.623355 286.807491 
L 196.658166 286.807491 
z
" style="fill:#1f77b4;"/>
   </g>
   <g id="patch_123">
    <path clip-path="url(#pe007419e5b)" d="M 197.864652 288.430125 
L 198.829841 288.430125 
L 198.829841 286.158437 
L 197.864652 286.158437 
z
" style="fill:#1f77b4;"/>
   </g>
   <g id="patch_124">
    <path clip-path="url(#pe007419e5b)" d="M 199.071139 288.430125 
L 200.036328 288.430125 
L 200.036328 288.105598 
L 199.071139 288.105598 
z
" style="fill:#1f77b4;"/>
   </g>
   <g id="patch_125">
    <path clip-path="url(#pe007419e5b)" d="M 200.277625 288.430125 
L 201.242814 288.430125 
L 201.242814 287.456545 
L 200.277625 287.456545 
z
" style="fill:#1f77b4;"/>
   </g>
   <g id="patch_126">
    <path clip-path="url(#pe007419e5b)" d="M 201.484111 288.430125 
L 202.449301 288.430125 
L 202.449301 288.105598 
L 201.484111 288.105598 
z
" style="fill:#1f77b4;"/>
   </g>
   <g id="patch_127">
    <path clip-path="url(#pe007419e5b)" d="M 202.690598 288.430125 
L 203.655787 288.430125 
L 203.655787 287.132018 
L 202.690598 287.132018 
z
" style="fill:#1f77b4;"/>
   </g>
   <g id="patch_128">
    <path clip-path="url(#pe007419e5b)" d="M 203.897084 288.430125 
L 204.862274 288.430125 
L 204.862274 288.105598 
L 203.897084 288.105598 
z
" style="fill:#1f77b4;"/>
   </g>
   <g id="patch_129">
    <path clip-path="url(#pe007419e5b)" d="M 205.103571 288.430125 
L 206.06876 288.430125 
L 206.06876 288.105598 
L 205.103571 288.105598 
z
" style="fill:#1f77b4;"/>
   </g>
   <g id="patch_130">
    <path clip-path="url(#pe007419e5b)" d="M 206.310057 288.430125 
L 207.275247 288.430125 
L 207.275247 288.430125 
L 206.310057 288.430125 
z
" style="fill:#1f77b4;"/>
   </g>
   <g id="patch_131">
    <path clip-path="url(#pe007419e5b)" d="M 207.516544 288.430125 
L 208.481733 288.430125 
L 208.481733 288.105598 
L 207.516544 288.105598 
z
" style="fill:#1f77b4;"/>
   </g>
   <g id="patch_132">
    <path clip-path="url(#pe007419e5b)" d="M 208.72303 288.430125 
L 209.68822 288.430125 
L 209.68822 288.430125 
L 208.72303 288.430125 
z
" style="fill:#1f77b4;"/>
   </g>
   <g id="patch_133">
    <path clip-path="url(#pe007419e5b)" d="M 209.929517 288.430125 
L 210.894706 288.430125 
L 210.894706 288.105598 
L 209.929517 288.105598 
z
" style="fill:#1f77b4;"/>
   </g>
   <g id="patch_134">
    <path clip-path="url(#pe007419e5b)" d="M 211.136003 288.430125 
L 212.101193 288.430125 
L 212.101193 288.105598 
L 211.136003 288.105598 
z
" style="fill:#1f77b4;"/>
   </g>
   <g id="patch_135">
    <path clip-path="url(#pe007419e5b)" d="M 212.34249 288.430125 
L 213.307679 288.430125 
L 213.307679 286.482964 
L 212.34249 286.482964 
z
" style="fill:#1f77b4;"/>
   </g>
   <g id="patch_136">
    <path clip-path="url(#pe007419e5b)" d="M 213.548976 288.430125 
L 214.514166 288.430125 
L 214.514166 286.807491 
L 213.548976 286.807491 
z
" style="fill:#1f77b4;"/>
   </g>
   <g id="patch_137">
    <path clip-path="url(#pe007419e5b)" d="M 214.755463 288.430125 
L 215.720652 288.430125 
L 215.720652 287.781071 
L 214.755463 287.781071 
z
" style="fill:#1f77b4;"/>
   </g>
   <g id="patch_138">
    <path clip-path="url(#pe007419e5b)" d="M 215.961949 288.430125 
L 216.927139 288.430125 
L 216.927139 291.02634 
L 215.961949 291.02634 
z
" style="fill:#1f77b4;"/>
   </g>
   <g id="patch_139">
    <path clip-path="url(#pe007419e5b)" d="M 217.168436 288.430125 
L 218.133625 288.430125 
L 218.133625 287.132018 
L 217.168436 287.132018 
z
" style="fill:#1f77b4;"/>
   </g>
   <g id="patch_140">
    <path clip-path="url(#pe007419e5b)" d="M 218.374922 288.430125 
L 219.340111 288.430125 
L 219.340111 286.482964 
L 218.374922 286.482964 
z
" style="fill:#1f77b4;"/>
   </g>
   <g id="patch_141">
    <path clip-path="url(#pe007419e5b)" d="M 219.581409 288.430125 
L 220.546598 288.430125 
L 220.546598 283.562223 
L 219.581409 283.562223 
z
" style="fill:#1f77b4;"/>
   </g>
   <g id="patch_142">
    <path clip-path="url(#pe007419e5b)" d="M 220.787895 288.430125 
L 221.753084 288.430125 
L 221.753084 285.83391 
L 220.787895 285.83391 
z
" style="fill:#1f77b4;"/>
   </g>
   <g id="patch_143">
    <path clip-path="url(#pe007419e5b)" d="M 221.994382 288.430125 
L 222.959571 288.430125 
L 222.959571 287.456545 
L 221.994382 287.456545 
z
" style="fill:#1f77b4;"/>
   </g>
   <g id="patch_144">
    <path clip-path="url(#pe007419e5b)" d="M 223.200868 288.430125 
L 224.166057 288.430125 
L 224.166057 286.482964 
L 223.200868 286.482964 
z
" style="fill:#1f77b4;"/>
   </g>
   <g id="patch_145">
    <path clip-path="url(#pe007419e5b)" d="M 224.407355 288.430125 
L 225.372544 288.430125 
L 225.372544 286.158437 
L 224.407355 286.158437 
z
" style="fill:#1f77b4;"/>
   </g>
   <g id="patch_146">
    <path clip-path="url(#pe007419e5b)" d="M 225.613841 288.430125 
L 226.57903 288.430125 
L 226.57903 287.132018 
L 225.613841 287.132018 
z
" style="fill:#1f77b4;"/>
   </g>
   <g id="patch_147">
    <path clip-path="url(#pe007419e5b)" d="M 226.820328 288.430125 
L 227.785517 288.430125 
L 227.785517 284.535803 
L 226.820328 284.535803 
z
" style="fill:#1f77b4;"/>
   </g>
   <g id="patch_148">
    <path clip-path="url(#pe007419e5b)" d="M 228.026814 288.430125 
L 228.992003 288.430125 
L 228.992003 287.132018 
L 228.026814 287.132018 
z
" style="fill:#1f77b4;"/>
   </g>
   <g id="patch_149">
    <path clip-path="url(#pe007419e5b)" d="M 229.233301 288.430125 
L 230.19849 288.430125 
L 230.19849 286.807491 
L 229.233301 286.807491 
z
" style="fill:#1f77b4;"/>
   </g>
   <g id="patch_150">
    <path clip-path="url(#pe007419e5b)" d="M 230.439787 288.430125 
L 231.404976 288.430125 
L 231.404976 286.158437 
L 230.439787 286.158437 
z
" style="fill:#1f77b4;"/>
   </g>
   <g id="patch_151">
    <path clip-path="url(#pe007419e5b)" d="M 231.646274 288.430125 
L 232.611463 288.430125 
L 232.611463 288.105598 
L 231.646274 288.105598 
z
" style="fill:#1f77b4;"/>
   </g>
   <g id="patch_152">
    <path clip-path="url(#pe007419e5b)" d="M 232.85276 288.430125 
L 233.817949 288.430125 
L 233.817949 288.105598 
L 232.85276 288.105598 
z
" style="fill:#1f77b4;"/>
   </g>
   <g id="patch_153">
    <path clip-path="url(#pe007419e5b)" d="M 234.059247 288.430125 
L 235.024436 288.430125 
L 235.024436 287.132018 
L 234.059247 287.132018 
z
" style="fill:#1f77b4;"/>
   </g>
   <g id="patch_154">
    <path clip-path="url(#pe007419e5b)" d="M 235.265733 288.430125 
L 236.230922 288.430125 
L 236.230922 287.781071 
L 235.265733 287.781071 
z
" style="fill:#1f77b4;"/>
   </g>
   <g id="patch_155">
    <path clip-path="url(#pe007419e5b)" d="M 236.47222 288.430125 
L 237.437409 288.430125 
L 237.437409 287.456545 
L 236.47222 287.456545 
z
" style="fill:#1f77b4;"/>
   </g>
   <g id="patch_156">
    <path clip-path="url(#pe007419e5b)" d="M 237.678706 288.430125 
L 238.643895 288.430125 
L 238.643895 285.509384 
L 237.678706 285.509384 
z
" style="fill:#1f77b4;"/>
   </g>
   <g id="patch_157">
    <path clip-path="url(#pe007419e5b)" d="M 238.885193 288.430125 
L 239.850382 288.430125 
L 239.850382 285.509384 
L 238.885193 285.509384 
z
" style="fill:#1f77b4;"/>
   </g>
   <g id="patch_158">
    <path clip-path="url(#pe007419e5b)" d="M 240.091679 288.430125 
L 241.056868 288.430125 
L 241.056868 287.781071 
L 240.091679 287.781071 
z
" style="fill:#1f77b4;"/>
   </g>
   <g id="patch_159">
    <path clip-path="url(#pe007419e5b)" d="M 241.298166 288.430125 
L 242.263355 288.430125 
L 242.263355 288.430125 
L 241.298166 288.430125 
z
" style="fill:#1f77b4;"/>
   </g>
   <g id="patch_160">
    <path clip-path="url(#pe007419e5b)" d="M 242.504652 288.430125 
L 243.469841 288.430125 
L 243.469841 286.158437 
L 242.504652 286.158437 
z
" style="fill:#1f77b4;"/>
   </g>
   <g id="patch_161">
    <path clip-path="url(#pe007419e5b)" d="M 243.711139 288.430125 
L 244.676328 288.430125 
L 244.676328 281.615062 
L 243.711139 281.615062 
z
" style="fill:#1f77b4;"/>
   </g>
   <g id="patch_162">
    <path clip-path="url(#pe007419e5b)" d="M 244.917625 288.430125 
L 245.882814 288.430125 
L 245.882814 286.807491 
L 244.917625 286.807491 
z
" style="fill:#1f77b4;"/>
   </g>
   <g id="patch_163">
    <path clip-path="url(#pe007419e5b)" d="M 246.124111 288.430125 
L 247.089301 288.430125 
L 247.089301 283.237696 
L 246.124111 283.237696 
z
" style="fill:#1f77b4;"/>
   </g>
   <g id="patch_164">
    <path clip-path="url(#pe007419e5b)" d="M 247.330598 288.430125 
L 248.295787 288.430125 
L 248.295787 283.237696 
L 247.330598 283.237696 
z
" style="fill:#1f77b4;"/>
   </g>
   <g id="patch_165">
    <path clip-path="url(#pe007419e5b)" d="M 248.537084 288.430125 
L 249.502274 288.430125 
L 249.502274 283.562223 
L 248.537084 283.562223 
z
" style="fill:#1f77b4;"/>
   </g>
   <g id="patch_166">
    <path clip-path="url(#pe007419e5b)" d="M 249.743571 288.430125 
L 250.70876 288.430125 
L 250.70876 285.509384 
L 249.743571 285.509384 
z
" style="fill:#1f77b4;"/>
   </g>
   <g id="patch_167">
    <path clip-path="url(#pe007419e5b)" d="M 250.950057 288.430125 
L 251.915247 288.430125 
L 251.915247 286.807491 
L 250.950057 286.807491 
z
" style="fill:#1f77b4;"/>
   </g>
   <g id="patch_168">
    <path clip-path="url(#pe007419e5b)" d="M 252.156544 288.430125 
L 253.121733 288.430125 
L 253.121733 285.509384 
L 252.156544 285.509384 
z
" style="fill:#1f77b4;"/>
   </g>
   <g id="patch_169">
    <path clip-path="url(#pe007419e5b)" d="M 253.36303 288.430125 
L 254.32822 288.430125 
L 254.32822 285.83391 
L 253.36303 285.83391 
z
" style="fill:#1f77b4;"/>
   </g>
   <g id="patch_170">
    <path clip-path="url(#pe007419e5b)" d="M 254.569517 288.430125 
L 255.534706 288.430125 
L 255.534706 285.509384 
L 254.569517 285.509384 
z
" style="fill:#1f77b4;"/>
   </g>
   <g id="patch_171">
    <path clip-path="url(#pe007419e5b)" d="M 255.776003 288.430125 
L 256.741193 288.430125 
L 256.741193 285.83391 
L 255.776003 285.83391 
z
" style="fill:#1f77b4;"/>
   </g>
   <g id="patch_172">
    <path clip-path="url(#pe007419e5b)" d="M 256.98249 288.430125 
L 257.947679 288.430125 
L 257.947679 287.456545 
L 256.98249 287.456545 
z
" style="fill:#1f77b4;"/>
   </g>
   <g id="patch_173">
    <path clip-path="url(#pe007419e5b)" d="M 258.188976 288.430125 
L 259.154166 288.430125 
L 259.154166 284.211276 
L 258.188976 284.211276 
z
" style="fill:#1f77b4;"/>
   </g>
   <g id="patch_174">
    <path clip-path="url(#pe007419e5b)" d="M 259.395463 288.430125 
L 260.360652 288.430125 
L 260.360652 285.184857 
L 259.395463 285.184857 
z
" style="fill:#1f77b4;"/>
   </g>
   <g id="patch_175">
    <path clip-path="url(#pe007419e5b)" d="M 260.601949 288.430125 
L 261.567139 288.430125 
L 261.567139 287.132018 
L 260.601949 287.132018 
z
" style="fill:#1f77b4;"/>
   </g>
   <g id="patch_176">
    <path clip-path="url(#pe007419e5b)" d="M 261.808436 288.430125 
L 262.773625 288.430125 
L 262.773625 284.86033 
L 261.808436 284.86033 
z
" style="fill:#1f77b4;"/>
   </g>
   <g id="patch_177">
    <path clip-path="url(#pe007419e5b)" d="M 263.014922 288.430125 
L 263.980111 288.430125 
L 263.980111 280.966008 
L 263.014922 280.966008 
z
" style="fill:#1f77b4;"/>
   </g>
   <g id="patch_178">
    <path clip-path="url(#pe007419e5b)" d="M 264.221409 288.430125 
L 265.186598 288.430125 
L 265.186598 286.158437 
L 264.221409 286.158437 
z
" style="fill:#1f77b4;"/>
   </g>
   <g id="patch_179">
    <path clip-path="url(#pe007419e5b)" d="M 265.427895 288.430125 
L 266.393084 288.430125 
L 266.393084 288.430125 
L 265.427895 288.430125 
z
" style="fill:#1f77b4;"/>
   </g>
   <g id="patch_180">
    <path clip-path="url(#pe007419e5b)" d="M 266.634382 288.430125 
L 267.599571 288.430125 
L 267.599571 287.132018 
L 266.634382 287.132018 
z
" style="fill:#1f77b4;"/>
   </g>
   <g id="patch_181">
    <path clip-path="url(#pe007419e5b)" d="M 267.840868 288.430125 
L 268.806057 288.430125 
L 268.806057 285.184857 
L 267.840868 285.184857 
z
" style="fill:#1f77b4;"/>
   </g>
   <g id="patch_182">
    <path clip-path="url(#pe007419e5b)" d="M 269.047355 288.430125 
L 270.012544 288.430125 
L 270.012544 281.939588 
L 269.047355 281.939588 
z
" style="fill:#1f77b4;"/>
   </g>
   <g id="patch_183">
    <path clip-path="url(#pe007419e5b)" d="M 270.253841 288.430125 
L 271.21903 288.430125 
L 271.21903 279.992427 
L 270.253841 279.992427 
z
" style="fill:#1f77b4;"/>
   </g>
   <g id="patch_184">
    <path clip-path="url(#pe007419e5b)" d="M 271.460328 288.430125 
L 272.425517 288.430125 
L 272.425517 280.316954 
L 271.460328 280.316954 
z
" style="fill:#1f77b4;"/>
   </g>
   <g id="patch_185">
    <path clip-path="url(#pe007419e5b)" d="M 272.666814 288.430125 
L 273.632003 288.430125 
L 273.632003 275.449052 
L 272.666814 275.449052 
z
" style="fill:#1f77b4;"/>
   </g>
   <g id="patch_186">
    <path clip-path="url(#pe007419e5b)" d="M 273.873301 288.430125 
L 274.83849 288.430125 
L 274.83849 286.158437 
L 273.873301 286.158437 
z
" style="fill:#1f77b4;"/>
   </g>
   <g id="patch_187">
    <path clip-path="url(#pe007419e5b)" d="M 275.079787 288.430125 
L 276.044976 288.430125 
L 276.044976 281.615062 
L 275.079787 281.615062 
z
" style="fill:#1f77b4;"/>
   </g>
   <g id="patch_188">
    <path clip-path="url(#pe007419e5b)" d="M 276.286274 288.430125 
L 277.251463 288.430125 
L 277.251463 284.535803 
L 276.286274 284.535803 
z
" style="fill:#1f77b4;"/>
   </g>
   <g id="patch_189">
    <path clip-path="url(#pe007419e5b)" d="M 277.49276 288.430125 
L 278.457949 288.430125 
L 278.457949 283.562223 
L 277.49276 283.562223 
z
" style="fill:#1f77b4;"/>
   </g>
   <g id="patch_190">
    <path clip-path="url(#pe007419e5b)" d="M 278.699247 288.430125 
L 279.664436 288.430125 
L 279.664436 265.064193 
L 278.699247 265.064193 
z
" style="fill:#1f77b4;"/>
   </g>
   <g id="patch_191">
    <path clip-path="url(#pe007419e5b)" d="M 279.905733 288.430125 
L 280.870922 288.430125 
L 280.870922 279.992427 
L 279.905733 279.992427 
z
" style="fill:#1f77b4;"/>
   </g>
   <g id="patch_192">
    <path clip-path="url(#pe007419e5b)" d="M 281.11222 288.430125 
L 282.077409 288.430125 
L 282.077409 281.939588 
L 281.11222 281.939588 
z
" style="fill:#1f77b4;"/>
   </g>
   <g id="patch_193">
    <path clip-path="url(#pe007419e5b)" d="M 282.318706 288.430125 
L 283.283895 288.430125 
L 283.283895 281.939588 
L 282.318706 281.939588 
z
" style="fill:#1f77b4;"/>
   </g>
   <g id="patch_194">
    <path clip-path="url(#pe007419e5b)" d="M 283.525193 288.430125 
L 284.490382 288.430125 
L 284.490382 285.83391 
L 283.525193 285.83391 
z
" style="fill:#1f77b4;"/>
   </g>
   <g id="patch_195">
    <path clip-path="url(#pe007419e5b)" d="M 284.731679 288.430125 
L 285.696868 288.430125 
L 285.696868 278.69432 
L 284.731679 278.69432 
z
" style="fill:#1f77b4;"/>
   </g>
   <g id="patch_196">
    <path clip-path="url(#pe007419e5b)" d="M 285.938166 288.430125 
L 286.903355 288.430125 
L 286.903355 279.667901 
L 285.938166 279.667901 
z
" style="fill:#1f77b4;"/>
   </g>
   <g id="patch_197">
    <path clip-path="url(#pe007419e5b)" d="M 287.144652 288.430125 
L 288.109841 288.430125 
L 288.109841 271.55473 
L 287.144652 271.55473 
z
" style="fill:#1f77b4;"/>
   </g>
   <g id="patch_198">
    <path clip-path="url(#pe007419e5b)" d="M 288.351139 288.430125 
L 289.316328 288.430125 
L 289.316328 279.018847 
L 288.351139 279.018847 
z
" style="fill:#1f77b4;"/>
   </g>
   <g id="patch_199">
    <path clip-path="url(#pe007419e5b)" d="M 289.557625 288.430125 
L 290.522814 288.430125 
L 290.522814 281.290535 
L 289.557625 281.290535 
z
" style="fill:#1f77b4;"/>
   </g>
   <g id="patch_200">
    <path clip-path="url(#pe007419e5b)" d="M 290.764111 288.430125 
L 291.729301 288.430125 
L 291.729301 280.316954 
L 290.764111 280.316954 
z
" style="fill:#1f77b4;"/>
   </g>
   <g id="patch_201">
    <path clip-path="url(#pe007419e5b)" d="M 291.970598 288.430125 
L 292.935787 288.430125 
L 292.935787 285.83391 
L 291.970598 285.83391 
z
" style="fill:#1f77b4;"/>
   </g>
   <g id="patch_202">
    <path clip-path="url(#pe007419e5b)" d="M 293.177084 288.430125 
L 294.142274 288.430125 
L 294.142274 282.913169 
L 293.177084 282.913169 
z
" style="fill:#1f77b4;"/>
   </g>
   <g id="patch_203">
    <path clip-path="url(#pe007419e5b)" d="M 294.383571 288.430125 
L 295.34876 288.430125 
L 295.34876 279.018847 
L 294.383571 279.018847 
z
" style="fill:#1f77b4;"/>
   </g>
   <g id="patch_204">
    <path clip-path="url(#pe007419e5b)" d="M 295.590057 288.430125 
L 296.555247 288.430125 
L 296.555247 282.264115 
L 295.590057 282.264115 
z
" style="fill:#1f77b4;"/>
   </g>
   <g id="patch_205">
    <path clip-path="url(#pe007419e5b)" d="M 296.796544 288.430125 
L 297.761733 288.430125 
L 297.761733 279.992427 
L 296.796544 279.992427 
z
" style="fill:#1f77b4;"/>
   </g>
   <g id="patch_206">
    <path clip-path="url(#pe007419e5b)" d="M 298.00303 288.430125 
L 298.96822 288.430125 
L 298.96822 278.045266 
L 298.00303 278.045266 
z
" style="fill:#1f77b4;"/>
   </g>
   <g id="patch_207">
    <path clip-path="url(#pe007419e5b)" d="M 299.209517 288.430125 
L 300.174706 288.430125 
L 300.174706 282.913169 
L 299.209517 282.913169 
z
" style="fill:#1f77b4;"/>
   </g>
   <g id="patch_208">
    <path clip-path="url(#pe007419e5b)" d="M 300.416003 288.430125 
L 301.381193 288.430125 
L 301.381193 282.913169 
L 300.416003 282.913169 
z
" style="fill:#1f77b4;"/>
   </g>
   <g id="patch_209">
    <path clip-path="url(#pe007419e5b)" d="M 301.62249 288.430125 
L 302.587679 288.430125 
L 302.587679 270.581149 
L 301.62249 270.581149 
z
" style="fill:#1f77b4;"/>
   </g>
   <g id="patch_210">
    <path clip-path="url(#pe007419e5b)" d="M 302.828976 288.430125 
L 303.794166 288.430125 
L 303.794166 266.037774 
L 302.828976 266.037774 
z
" style="fill:#1f77b4;"/>
   </g>
   <g id="patch_211">
    <path clip-path="url(#pe007419e5b)" d="M 304.035463 288.430125 
L 305.000652 288.430125 
L 305.000652 260.845345 
L 304.035463 260.845345 
z
" style="fill:#1f77b4;"/>
   </g>
   <g id="patch_212">
    <path clip-path="url(#pe007419e5b)" d="M 305.241949 288.430125 
L 306.207139 288.430125 
L 306.207139 258.573657 
L 305.241949 258.573657 
z
" style="fill:#1f77b4;"/>
   </g>
   <g id="patch_213">
    <path clip-path="url(#pe007419e5b)" d="M 306.448436 288.430125 
L 307.413625 288.430125 
L 307.413625 261.169871 
L 306.448436 261.169871 
z
" style="fill:#1f77b4;"/>
   </g>
   <g id="patch_214">
    <path clip-path="url(#pe007419e5b)" d="M 307.654922 288.430125 
L 308.620111 288.430125 
L 308.620111 273.826418 
L 307.654922 273.826418 
z
" style="fill:#1f77b4;"/>
   </g>
   <g id="patch_215">
    <path clip-path="url(#pe007419e5b)" d="M 308.861409 288.430125 
L 309.826598 288.430125 
L 309.826598 277.396213 
L 308.861409 277.396213 
z
" style="fill:#1f77b4;"/>
   </g>
   <g id="patch_216">
    <path clip-path="url(#pe007419e5b)" d="M 310.067895 288.430125 
L 311.033084 288.430125 
L 311.033084 248.188798 
L 310.067895 248.188798 
z
" style="fill:#1f77b4;"/>
   </g>
   <g id="patch_217">
    <path clip-path="url(#pe007419e5b)" d="M 311.274382 288.430125 
L 312.239571 288.430125 
L 312.239571 256.626496 
L 311.274382 256.626496 
z
" style="fill:#1f77b4;"/>
   </g>
   <g id="patch_218">
    <path clip-path="url(#pe007419e5b)" d="M 312.480868 288.430125 
L 313.446057 288.430125 
L 313.446057 246.890691 
L 312.480868 246.890691 
z
" style="fill:#1f77b4;"/>
   </g>
   <g id="patch_219">
    <path clip-path="url(#pe007419e5b)" d="M 313.687355 288.430125 
L 314.652544 288.430125 
L 314.652544 238.128466 
L 313.687355 238.128466 
z
" style="fill:#1f77b4;"/>
   </g>
   <g id="patch_220">
    <path clip-path="url(#pe007419e5b)" d="M 314.893841 288.430125 
L 315.85903 288.430125 
L 315.85903 232.936037 
L 314.893841 232.936037 
z
" style="fill:#1f77b4;"/>
   </g>
   <g id="patch_221">
    <path clip-path="url(#pe007419e5b)" d="M 316.100328 288.430125 
L 317.065517 288.430125 
L 317.065517 260.845345 
L 316.100328 260.845345 
z
" style="fill:#1f77b4;"/>
   </g>
   <g id="patch_222">
    <path clip-path="url(#pe007419e5b)" d="M 317.306814 288.430125 
L 318.272003 288.430125 
L 318.272003 220.604018 
L 317.306814 220.604018 
z
" style="fill:#1f77b4;"/>
   </g>
   <g id="patch_223">
    <path clip-path="url(#pe007419e5b)" d="M 318.513301 288.430125 
L 319.47849 288.430125 
L 319.47849 227.094554 
L 318.513301 227.094554 
z
" style="fill:#1f77b4;"/>
   </g>
   <g id="patch_224">
    <path clip-path="url(#pe007419e5b)" d="M 319.719787 288.430125 
L 320.684976 288.430125 
L 320.684976 208.271998 
L 319.719787 208.271998 
z
" style="fill:#1f77b4;"/>
   </g>
   <g id="patch_225">
    <path clip-path="url(#pe007419e5b)" d="M 320.926274 288.430125 
L 321.891463 288.430125 
L 321.891463 201.132408 
L 320.926274 201.132408 
z
" style="fill:#1f77b4;"/>
   </g>
   <g id="patch_226">
    <path clip-path="url(#pe007419e5b)" d="M 322.13276 288.430125 
L 323.097949 288.430125 
L 323.097949 198.536193 
L 322.13276 198.536193 
z
" style="fill:#1f77b4;"/>
   </g>
   <g id="patch_227">
    <path clip-path="url(#pe007419e5b)" d="M 323.339247 288.430125 
L 324.304436 288.430125 
L 324.304436 178.41553 
L 323.339247 178.41553 
z
" style="fill:#1f77b4;"/>
   </g>
   <g id="patch_228">
    <path clip-path="url(#pe007419e5b)" d="M 324.545733 288.430125 
L 325.510922 288.430125 
L 325.510922 184.257013 
L 324.545733 184.257013 
z
" style="fill:#1f77b4;"/>
   </g>
   <g id="patch_229">
    <path clip-path="url(#pe007419e5b)" d="M 325.75222 288.430125 
L 326.717409 288.430125 
L 326.717409 209.894632 
L 325.75222 209.894632 
z
" style="fill:#1f77b4;"/>
   </g>
   <g id="patch_230">
    <path clip-path="url(#pe007419e5b)" d="M 326.958706 288.430125 
L 327.923895 288.430125 
L 327.923895 226.770027 
L 326.958706 226.770027 
z
" style="fill:#1f77b4;"/>
   </g>
   <g id="patch_231">
    <path clip-path="url(#pe007419e5b)" d="M 328.165193 288.430125 
L 329.130382 288.430125 
L 329.130382 191.72113 
L 328.165193 191.72113 
z
" style="fill:#1f77b4;"/>
   </g>
   <g id="patch_232">
    <path clip-path="url(#pe007419e5b)" d="M 329.371679 288.430125 
L 330.336868 288.430125 
L 330.336868 174.845735 
L 329.371679 174.845735 
z
" style="fill:#1f77b4;"/>
   </g>
   <g id="patch_233">
    <path clip-path="url(#pe007419e5b)" d="M 330.578166 288.430125 
L 331.543355 288.430125 
L 331.543355 110.913949 
L 330.578166 110.913949 
z
" style="fill:#1f77b4;"/>
   </g>
   <g id="patch_234">
    <path clip-path="url(#pe007419e5b)" d="M 331.784652 288.430125 
L 332.749841 288.430125 
L 332.749841 115.132798 
L 331.784652 115.132798 
z
" style="fill:#1f77b4;"/>
   </g>
   <g id="patch_235">
    <path clip-path="url(#pe007419e5b)" d="M 332.991139 288.430125 
L 333.956328 288.430125 
L 333.956328 146.611901 
L 332.991139 146.611901 
z
" style="fill:#1f77b4;"/>
   </g>
   <g id="patch_236">
    <path clip-path="url(#pe007419e5b)" d="M 334.197625 288.430125 
L 335.162814 288.430125 
L 335.162814 127.789345 
L 334.197625 127.789345 
z
" style="fill:#1f77b4;"/>
   </g>
   <g id="patch_237">
    <path clip-path="url(#pe007419e5b)" d="M 335.404111 288.430125 
L 336.369301 288.430125 
L 336.369301 207.622945 
L 335.404111 207.622945 
z
" style="fill:#1f77b4;"/>
   </g>
   <g id="patch_238">
    <path clip-path="url(#pe007419e5b)" d="M 336.610598 288.430125 
L 337.575787 288.430125 
L 337.575787 41.140681 
L 336.610598 41.140681 
z
" style="fill:#1f77b4;"/>
   </g>
   <g id="patch_239">
    <path clip-path="url(#pe007419e5b)" d="M 337.817084 288.430125 
L 338.782274 288.430125 
L 338.782274 57.367023 
L 337.817084 57.367023 
z
" style="fill:#1f77b4;"/>
   </g>
   <g id="patch_240">
    <path clip-path="url(#pe007419e5b)" d="M 339.023571 288.430125 
L 339.98876 288.430125 
L 339.98876 37.246359 
L 339.023571 37.246359 
z
" style="fill:#1f77b4;"/>
   </g>
   <g id="patch_241">
    <path clip-path="url(#pe007419e5b)" d="M 340.230057 288.430125 
L 341.195247 288.430125 
L 341.195247 34.974671 
L 340.230057 34.974671 
z
" style="fill:#1f77b4;"/>
   </g>
   <g id="patch_242">
    <path clip-path="url(#pe007419e5b)" d="M 341.436544 288.430125 
L 342.401733 288.430125 
L 342.401733 99.230984 
L 341.436544 99.230984 
z
" style="fill:#1f77b4;"/>
   </g>
   <g id="patch_243">
    <path clip-path="url(#pe007419e5b)" d="M 342.64303 288.430125 
L 343.60822 288.430125 
L 343.60822 166.732564 
L 342.64303 166.732564 
z
" style="fill:#1f77b4;"/>
   </g>
   <g id="patch_244">
    <path clip-path="url(#pe007419e5b)" d="M 343.849517 288.430125 
L 344.814706 288.430125 
L 344.814706 163.162769 
L 343.849517 163.162769 
z
" style="fill:#1f77b4;"/>
   </g>
   <g id="patch_245">
    <path clip-path="url(#pe007419e5b)" d="M 345.056003 288.430125 
L 346.021193 288.430125 
L 346.021193 63.208505 
L 345.056003 63.208505 
z
" style="fill:#1f77b4;"/>
   </g>
   <g id="patch_246">
    <path clip-path="url(#pe007419e5b)" d="M 346.26249 288.430125 
L 347.227679 288.430125 
L 347.227679 22.318125 
L 346.26249 22.318125 
z
" style="fill:#1f77b4;"/>
   </g>
   <g id="patch_247">
    <path clip-path="url(#pe007419e5b)" d="M 347.468976 288.430125 
L 348.434166 288.430125 
L 348.434166 64.506613 
L 347.468976 64.506613 
z
" style="fill:#1f77b4;"/>
   </g>
   <g id="patch_248">
    <path clip-path="url(#pe007419e5b)" d="M 348.675463 288.430125 
L 349.640652 288.430125 
L 349.640652 84.627276 
L 348.675463 84.627276 
z
" style="fill:#1f77b4;"/>
   </g>
   <g id="patch_249">
    <path clip-path="url(#pe007419e5b)" d="M 349.881949 288.430125 
L 350.847139 288.430125 
L 350.847139 111.88753 
L 349.881949 111.88753 
z
" style="fill:#1f77b4;"/>
   </g>
   <g id="patch_250">
    <path clip-path="url(#pe007419e5b)" d="M 351.088436 288.430125 
L 352.053625 288.430125 
L 352.053625 204.702203 
L 351.088436 204.702203 
z
" style="fill:#1f77b4;"/>
   </g>
   <g id="patch_251">
    <path clip-path="url(#pe007419e5b)" d="M 352.294922 288.430125 
L 353.260111 288.430125 
L 353.260111 99.880037 
L 352.294922 99.880037 
z
" style="fill:#1f77b4;"/>
   </g>
   <g id="patch_252">
    <path clip-path="url(#pe007419e5b)" d="M 353.501409 288.430125 
L 354.466598 288.430125 
L 354.466598 62.559452 
L 353.501409 62.559452 
z
" style="fill:#1f77b4;"/>
   </g>
   <g id="patch_253">
    <path clip-path="url(#pe007419e5b)" d="M 354.707895 288.430125 
L 355.673084 288.430125 
L 355.673084 49.578379 
L 354.707895 49.578379 
z
" style="fill:#1f77b4;"/>
   </g>
   <g id="patch_254">
    <path clip-path="url(#pe007419e5b)" d="M 355.914382 288.430125 
L 356.879571 288.430125 
L 356.879571 110.589423 
L 355.914382 110.589423 
z
" style="fill:#1f77b4;"/>
   </g>
   <g id="patch_255">
    <path clip-path="url(#pe007419e5b)" d="M 357.120868 288.430125 
L 358.086057 288.430125 
L 358.086057 114.808271 
L 357.120868 114.808271 
z
" style="fill:#1f77b4;"/>
   </g>
   <g id="patch_256">
    <path clip-path="url(#pe007419e5b)" d="M 358.327355 288.430125 
L 359.292544 288.430125 
L 359.292544 204.053149 
L 358.327355 204.053149 
z
" style="fill:#1f77b4;"/>
   </g>
   <g id="patch_257">
    <path clip-path="url(#pe007419e5b)" d="M 359.533841 288.430125 
L 360.49903 288.430125 
L 360.49903 236.505832 
L 359.533841 236.505832 
z
" style="fill:#1f77b4;"/>
   </g>
   <g id="patch_258">
    <path clip-path="url(#pe007419e5b)" d="M 360.740328 288.430125 
L 361.705517 288.430125 
L 361.705517 177.766476 
L 360.740328 177.766476 
z
" style="fill:#1f77b4;"/>
   </g>
   <g id="patch_259">
    <path clip-path="url(#pe007419e5b)" d="M 361.946814 288.430125 
L 362.912003 288.430125 
L 362.912003 193.668291 
L 361.946814 193.668291 
z
" style="fill:#1f77b4;"/>
   </g>
   <g id="patch_260">
    <path clip-path="url(#pe007419e5b)" d="M 363.153301 288.430125 
L 364.11849 288.430125 
L 364.11849 155.374125 
L 363.153301 155.374125 
z
" style="fill:#1f77b4;"/>
   </g>
   <g id="patch_261">
    <path clip-path="url(#pe007419e5b)" d="M 364.359787 288.430125 
L 365.324976 288.430125 
L 365.324976 128.113871 
L 364.359787 128.113871 
z
" style="fill:#1f77b4;"/>
   </g>
   <g id="patch_262">
    <path clip-path="url(#pe007419e5b)" d="M 365.566274 288.430125 
L 366.531463 288.430125 
L 366.531463 146.611901 
L 365.566274 146.611901 
z
" style="fill:#1f77b4;"/>
   </g>
   <g id="patch_263">
    <path clip-path="url(#pe007419e5b)" d="M 366.77276 288.430125 
L 367.737949 288.430125 
L 367.737949 229.041715 
L 366.77276 229.041715 
z
" style="fill:#1f77b4;"/>
   </g>
   <g id="patch_264">
    <path clip-path="url(#pe007419e5b)" d="M 367.979247 288.430125 
L 368.944436 288.430125 
L 368.944436 257.924603 
L 367.979247 257.924603 
z
" style="fill:#1f77b4;"/>
   </g>
   <g id="patch_265">
    <path clip-path="url(#pe007419e5b)" d="M 369.185733 288.430125 
L 370.150922 288.430125 
L 370.150922 185.55512 
L 369.185733 185.55512 
z
" style="fill:#1f77b4;"/>
   </g>
   <g id="patch_266">
    <path clip-path="url(#pe007419e5b)" d="M 370.39222 288.430125 
L 371.357409 288.430125 
L 371.357409 167.057091 
L 370.39222 167.057091 
z
" style="fill:#1f77b4;"/>
   </g>
   <g id="patch_267">
    <path clip-path="url(#pe007419e5b)" d="M 371.598706 288.430125 
L 372.563895 288.430125 
L 372.563895 195.939979 
L 371.598706 195.939979 
z
" style="fill:#1f77b4;"/>
   </g>
   <g id="patch_268">
    <path clip-path="url(#pe007419e5b)" d="M 372.805193 288.430125 
L 373.770382 288.430125 
L 373.770382 202.105988 
L 372.805193 202.105988 
z
" style="fill:#1f77b4;"/>
   </g>
   <g id="patch_269">
    <path clip-path="url(#pe007419e5b)" d="M 374.011679 288.430125 
L 374.976868 288.430125 
L 374.976868 207.947471 
L 374.011679 207.947471 
z
" style="fill:#1f77b4;"/>
   </g>
   <g id="patch_270">
    <path clip-path="url(#pe007419e5b)" d="M 375.218166 288.430125 
L 376.183355 288.430125 
L 376.183355 251.10954 
L 375.218166 251.10954 
z
" style="fill:#1f77b4;"/>
   </g>
   <g id="patch_271">
    <path clip-path="url(#pe007419e5b)" d="M 376.424652 288.430125 
L 377.389841 288.430125 
L 377.389841 262.792505 
L 376.424652 262.792505 
z
" style="fill:#1f77b4;"/>
   </g>
   <g id="patch_272">
    <path clip-path="url(#pe007419e5b)" d="M 377.631139 288.430125 
L 378.596328 288.430125 
L 378.596328 213.139901 
L 377.631139 213.139901 
z
" style="fill:#1f77b4;"/>
   </g>
   <g id="patch_273">
    <path clip-path="url(#pe007419e5b)" d="M 378.837625 288.430125 
L 379.802814 288.430125 
L 379.802814 209.245579 
L 378.837625 209.245579 
z
" style="fill:#1f77b4;"/>
   </g>
   <g id="patch_274">
    <path clip-path="url(#pe007419e5b)" d="M 380.044111 288.430125 
L 381.009301 288.430125 
L 381.009301 206.649364 
L 380.044111 206.649364 
z
" style="fill:#1f77b4;"/>
   </g>
   <g id="patch_275">
    <path clip-path="url(#pe007419e5b)" d="M 381.250598 288.430125 
L 382.215787 288.430125 
L 382.215787 207.298418 
L 381.250598 207.298418 
z
" style="fill:#1f77b4;"/>
   </g>
   <g id="patch_276">
    <path clip-path="url(#pe007419e5b)" d="M 382.457084 288.430125 
L 383.422274 288.430125 
L 383.422274 206.973891 
L 382.457084 206.973891 
z
" style="fill:#1f77b4;"/>
   </g>
   <g id="patch_277">
    <path clip-path="url(#pe007419e5b)" d="M 383.663571 288.430125 
L 384.62876 288.430125 
L 384.62876 266.686827 
L 383.663571 266.686827 
z
" style="fill:#1f77b4;"/>
   </g>
   <g id="patch_278">
    <path clip-path="url(#pe007419e5b)" d="M 384.870057 288.430125 
L 385.835247 288.430125 
L 385.835247 259.547237 
L 384.870057 259.547237 
z
" style="fill:#1f77b4;"/>
   </g>
   <g id="patch_279">
    <path clip-path="url(#pe007419e5b)" d="M 386.076544 288.430125 
L 387.041733 288.430125 
L 387.041733 195.939979 
L 386.076544 195.939979 
z
" style="fill:#1f77b4;"/>
   </g>
   <g id="patch_280">
    <path clip-path="url(#pe007419e5b)" d="M 387.28303 288.430125 
L 388.24822 288.430125 
L 388.24822 195.290925 
L 387.28303 195.290925 
z
" style="fill:#1f77b4;"/>
   </g>
   <g id="patch_281">
    <path clip-path="url(#pe007419e5b)" d="M 388.489517 288.430125 
L 389.454706 288.430125 
L 389.454706 233.585091 
L 388.489517 233.585091 
z
" style="fill:#1f77b4;"/>
   </g>
   <g id="patch_282">
    <path clip-path="url(#pe007419e5b)" d="M 389.696003 288.430125 
L 390.661193 288.430125 
L 390.661193 225.147393 
L 389.696003 225.147393 
z
" style="fill:#1f77b4;"/>
   </g>
   <g id="patch_283">
    <path clip-path="url(#pe007419e5b)" d="M 390.90249 288.430125 
L 391.867679 288.430125 
L 391.867679 208.596525 
L 390.90249 208.596525 
z
" style="fill:#1f77b4;"/>
   </g>
   <g id="patch_284">
    <path clip-path="url(#pe007419e5b)" d="M 392.108976 288.430125 
L 393.074166 288.430125 
L 393.074166 274.475471 
L 392.108976 274.475471 
z
" style="fill:#1f77b4;"/>
   </g>
   <g id="patch_285">
    <path clip-path="url(#pe007419e5b)" d="M 393.315463 288.430125 
L 394.280652 288.430125 
L 394.280652 255.328388 
L 393.315463 255.328388 
z
" style="fill:#1f77b4;"/>
   </g>
   <g id="patch_286">
    <path clip-path="url(#pe007419e5b)" d="M 394.521949 288.430125 
L 395.487139 288.430125 
L 395.487139 245.91711 
L 394.521949 245.91711 
z
" style="fill:#1f77b4;"/>
   </g>
   <g id="patch_287">
    <path clip-path="url(#pe007419e5b)" d="M 395.728436 288.430125 
L 396.693625 288.430125 
L 396.693625 242.347315 
L 395.728436 242.347315 
z
" style="fill:#1f77b4;"/>
   </g>
   <g id="patch_288">
    <path clip-path="url(#pe007419e5b)" d="M 396.934922 288.430125 
L 397.900111 288.430125 
L 397.900111 229.366242 
L 396.934922 229.366242 
z
" style="fill:#1f77b4;"/>
   </g>
   <g id="patch_289">
    <path clip-path="url(#pe007419e5b)" d="M 398.141409 288.430125 
L 399.106598 288.430125 
L 399.106598 280.641481 
L 398.141409 280.641481 
z
" style="fill:#1f77b4;"/>
   </g>
   <g id="patch_290">
    <path clip-path="url(#pe007419e5b)" d="M 399.347895 288.430125 
L 400.313084 288.430125 
L 400.313084 269.932096 
L 399.347895 269.932096 
z
" style="fill:#1f77b4;"/>
   </g>
   <g id="patch_291">
    <path clip-path="url(#pe007419e5b)" d="M 400.554382 288.430125 
L 401.519571 288.430125 
L 401.519571 249.486905 
L 400.554382 249.486905 
z
" style="fill:#1f77b4;"/>
   </g>
   <g id="patch_292">
    <path clip-path="url(#pe007419e5b)" d="M 401.760868 288.430125 
L 402.726057 288.430125 
L 402.726057 258.898184 
L 401.760868 258.898184 
z
" style="fill:#1f77b4;"/>
   </g>
   <g id="patch_293">
    <path clip-path="url(#pe007419e5b)" d="M 402.967355 288.430125 
L 403.932544 288.430125 
L 403.932544 217.034223 
L 402.967355 217.034223 
z
" style="fill:#1f77b4;"/>
   </g>
   <g id="patch_294">
    <path clip-path="url(#pe007419e5b)" d="M 404.173841 288.430125 
L 405.13903 288.430125 
L 405.13903 204.053149 
L 404.173841 204.053149 
z
" style="fill:#1f77b4;"/>
   </g>
   <g id="patch_295">
    <path clip-path="url(#pe007419e5b)" d="M 405.380328 288.430125 
L 406.345517 288.430125 
L 406.345517 200.807881 
L 405.380328 200.807881 
z
" style="fill:#1f77b4;"/>
   </g>
   <g id="patch_296">
    <path clip-path="url(#pe007419e5b)" d="M 406.586814 288.430125 
L 407.552003 288.430125 
L 407.552003 260.520818 
L 406.586814 260.520818 
z
" style="fill:#1f77b4;"/>
   </g>
   <g id="patch_297">
    <path clip-path="url(#pe007419e5b)" d="M 407.793301 288.430125 
L 408.75849 288.430125 
L 408.75849 257.275549 
L 407.793301 257.275549 
z
" style="fill:#1f77b4;"/>
   </g>
   <g id="patch_298">
    <path clip-path="url(#pe007419e5b)" d="M 408.999787 288.430125 
L 409.964976 288.430125 
L 409.964976 276.422632 
L 408.999787 276.422632 
z
" style="fill:#1f77b4;"/>
   </g>
   <g id="matplotlib.axis_1">
    <g id="xtick_1">
     <g id="line2d_1">
      <defs>
       <path d="M 0 0 
L 0 3.5 
" id="mf87ba29442" style="stroke:#000000;stroke-width:0.8;"/>
      </defs>
      <g>
       <use style="stroke:#000000;stroke-width:0.8;" x="74.079139" xlink:href="#mf87ba29442" y="288.430125"/>
      </g>
     </g>
     <g id="text_1">
      <!-- 2020-04 -->
      <g transform="translate(76.838514 337.212937)rotate(-90)scale(0.1 -0.1)">
       <defs>
        <path d="M 19.1875 8.296875 
L 53.609375 8.296875 
L 53.609375 0 
L 7.328125 0 
L 7.328125 8.296875 
Q 12.9375 14.109375 22.625 23.890625 
Q 32.328125 33.6875 34.8125 36.53125 
Q 39.546875 41.84375 41.421875 45.53125 
Q 43.3125 49.21875 43.3125 52.78125 
Q 43.3125 58.59375 39.234375 62.25 
Q 35.15625 65.921875 28.609375 65.921875 
Q 23.96875 65.921875 18.8125 64.3125 
Q 13.671875 62.703125 7.8125 59.421875 
L 7.8125 69.390625 
Q 13.765625 71.78125 18.9375 73 
Q 24.125 74.21875 28.421875 74.21875 
Q 39.75 74.21875 46.484375 68.546875 
Q 53.21875 62.890625 53.21875 53.421875 
Q 53.21875 48.921875 51.53125 44.890625 
Q 49.859375 40.875 45.40625 35.40625 
Q 44.1875 33.984375 37.640625 27.21875 
Q 31.109375 20.453125 19.1875 8.296875 
z
" id="DejaVuSans-50"/>
        <path d="M 31.78125 66.40625 
Q 24.171875 66.40625 20.328125 58.90625 
Q 16.5 51.421875 16.5 36.375 
Q 16.5 21.390625 20.328125 13.890625 
Q 24.171875 6.390625 31.78125 6.390625 
Q 39.453125 6.390625 43.28125 13.890625 
Q 47.125 21.390625 47.125 36.375 
Q 47.125 51.421875 43.28125 58.90625 
Q 39.453125 66.40625 31.78125 66.40625 
z
M 31.78125 74.21875 
Q 44.046875 74.21875 50.515625 64.515625 
Q 56.984375 54.828125 56.984375 36.375 
Q 56.984375 17.96875 50.515625 8.265625 
Q 44.046875 -1.421875 31.78125 -1.421875 
Q 19.53125 -1.421875 13.0625 8.265625 
Q 6.59375 17.96875 6.59375 36.375 
Q 6.59375 54.828125 13.0625 64.515625 
Q 19.53125 74.21875 31.78125 74.21875 
z
" id="DejaVuSans-48"/>
        <path d="M 4.890625 31.390625 
L 31.203125 31.390625 
L 31.203125 23.390625 
L 4.890625 23.390625 
z
" id="DejaVuSans-45"/>
        <path d="M 37.796875 64.3125 
L 12.890625 25.390625 
L 37.796875 25.390625 
z
M 35.203125 72.90625 
L 47.609375 72.90625 
L 47.609375 25.390625 
L 58.015625 25.390625 
L 58.015625 17.1875 
L 47.609375 17.1875 
L 47.609375 0 
L 37.796875 0 
L 37.796875 17.1875 
L 4.890625 17.1875 
L 4.890625 26.703125 
z
" id="DejaVuSans-52"/>
       </defs>
       <use xlink:href="#DejaVuSans-50"/>
       <use x="63.623047" xlink:href="#DejaVuSans-48"/>
       <use x="127.246094" xlink:href="#DejaVuSans-50"/>
       <use x="190.869141" xlink:href="#DejaVuSans-48"/>
       <use x="254.492188" xlink:href="#DejaVuSans-45"/>
       <use x="290.576172" xlink:href="#DejaVuSans-48"/>
       <use x="354.199219" xlink:href="#DejaVuSans-52"/>
      </g>
     </g>
    </g>
    <g id="xtick_2">
     <g id="line2d_2">
      <g>
       <use style="stroke:#000000;stroke-width:0.8;" x="110.273733" xlink:href="#mf87ba29442" y="288.430125"/>
      </g>
     </g>
     <g id="text_2">
      <!-- 2020-05 -->
      <g transform="translate(113.033108 337.212937)rotate(-90)scale(0.1 -0.1)">
       <defs>
        <path d="M 10.796875 72.90625 
L 49.515625 72.90625 
L 49.515625 64.59375 
L 19.828125 64.59375 
L 19.828125 46.734375 
Q 21.96875 47.46875 24.109375 47.828125 
Q 26.265625 48.1875 28.421875 48.1875 
Q 40.625 48.1875 47.75 41.5 
Q 54.890625 34.8125 54.890625 23.390625 
Q 54.890625 11.625 47.5625 5.09375 
Q 40.234375 -1.421875 26.90625 -1.421875 
Q 22.3125 -1.421875 17.546875 -0.640625 
Q 12.796875 0.140625 7.71875 1.703125 
L 7.71875 11.625 
Q 12.109375 9.234375 16.796875 8.0625 
Q 21.484375 6.890625 26.703125 6.890625 
Q 35.15625 6.890625 40.078125 11.328125 
Q 45.015625 15.765625 45.015625 23.390625 
Q 45.015625 31 40.078125 35.4375 
Q 35.15625 39.890625 26.703125 39.890625 
Q 22.75 39.890625 18.8125 39.015625 
Q 14.890625 38.140625 10.796875 36.28125 
z
" id="DejaVuSans-53"/>
       </defs>
       <use xlink:href="#DejaVuSans-50"/>
       <use x="63.623047" xlink:href="#DejaVuSans-48"/>
       <use x="127.246094" xlink:href="#DejaVuSans-50"/>
       <use x="190.869141" xlink:href="#DejaVuSans-48"/>
       <use x="254.492188" xlink:href="#DejaVuSans-45"/>
       <use x="290.576172" xlink:href="#DejaVuSans-48"/>
       <use x="354.199219" xlink:href="#DejaVuSans-53"/>
      </g>
     </g>
    </g>
    <g id="xtick_3">
     <g id="line2d_3">
      <g>
       <use style="stroke:#000000;stroke-width:0.8;" x="147.674814" xlink:href="#mf87ba29442" y="288.430125"/>
      </g>
     </g>
     <g id="text_3">
      <!-- 2020-06 -->
      <g transform="translate(150.434189 337.212937)rotate(-90)scale(0.1 -0.1)">
       <defs>
        <path d="M 33.015625 40.375 
Q 26.375 40.375 22.484375 35.828125 
Q 18.609375 31.296875 18.609375 23.390625 
Q 18.609375 15.53125 22.484375 10.953125 
Q 26.375 6.390625 33.015625 6.390625 
Q 39.65625 6.390625 43.53125 10.953125 
Q 47.40625 15.53125 47.40625 23.390625 
Q 47.40625 31.296875 43.53125 35.828125 
Q 39.65625 40.375 33.015625 40.375 
z
M 52.59375 71.296875 
L 52.59375 62.3125 
Q 48.875 64.0625 45.09375 64.984375 
Q 41.3125 65.921875 37.59375 65.921875 
Q 27.828125 65.921875 22.671875 59.328125 
Q 17.53125 52.734375 16.796875 39.40625 
Q 19.671875 43.65625 24.015625 45.921875 
Q 28.375 48.1875 33.59375 48.1875 
Q 44.578125 48.1875 50.953125 41.515625 
Q 57.328125 34.859375 57.328125 23.390625 
Q 57.328125 12.15625 50.6875 5.359375 
Q 44.046875 -1.421875 33.015625 -1.421875 
Q 20.359375 -1.421875 13.671875 8.265625 
Q 6.984375 17.96875 6.984375 36.375 
Q 6.984375 53.65625 15.1875 63.9375 
Q 23.390625 74.21875 37.203125 74.21875 
Q 40.921875 74.21875 44.703125 73.484375 
Q 48.484375 72.75 52.59375 71.296875 
z
" id="DejaVuSans-54"/>
       </defs>
       <use xlink:href="#DejaVuSans-50"/>
       <use x="63.623047" xlink:href="#DejaVuSans-48"/>
       <use x="127.246094" xlink:href="#DejaVuSans-50"/>
       <use x="190.869141" xlink:href="#DejaVuSans-48"/>
       <use x="254.492188" xlink:href="#DejaVuSans-45"/>
       <use x="290.576172" xlink:href="#DejaVuSans-48"/>
       <use x="354.199219" xlink:href="#DejaVuSans-54"/>
      </g>
     </g>
    </g>
    <g id="xtick_4">
     <g id="line2d_4">
      <g>
       <use style="stroke:#000000;stroke-width:0.8;" x="183.869409" xlink:href="#mf87ba29442" y="288.430125"/>
      </g>
     </g>
     <g id="text_4">
      <!-- 2020-07 -->
      <g transform="translate(186.628784 337.212937)rotate(-90)scale(0.1 -0.1)">
       <defs>
        <path d="M 8.203125 72.90625 
L 55.078125 72.90625 
L 55.078125 68.703125 
L 28.609375 0 
L 18.3125 0 
L 43.21875 64.59375 
L 8.203125 64.59375 
z
" id="DejaVuSans-55"/>
       </defs>
       <use xlink:href="#DejaVuSans-50"/>
       <use x="63.623047" xlink:href="#DejaVuSans-48"/>
       <use x="127.246094" xlink:href="#DejaVuSans-50"/>
       <use x="190.869141" xlink:href="#DejaVuSans-48"/>
       <use x="254.492188" xlink:href="#DejaVuSans-45"/>
       <use x="290.576172" xlink:href="#DejaVuSans-48"/>
       <use x="354.199219" xlink:href="#DejaVuSans-55"/>
      </g>
     </g>
    </g>
    <g id="xtick_5">
     <g id="line2d_5">
      <g>
       <use style="stroke:#000000;stroke-width:0.8;" x="221.27049" xlink:href="#mf87ba29442" y="288.430125"/>
      </g>
     </g>
     <g id="text_5">
      <!-- 2020-08 -->
      <g transform="translate(224.029865 337.212937)rotate(-90)scale(0.1 -0.1)">
       <defs>
        <path d="M 31.78125 34.625 
Q 24.75 34.625 20.71875 30.859375 
Q 16.703125 27.09375 16.703125 20.515625 
Q 16.703125 13.921875 20.71875 10.15625 
Q 24.75 6.390625 31.78125 6.390625 
Q 38.8125 6.390625 42.859375 10.171875 
Q 46.921875 13.96875 46.921875 20.515625 
Q 46.921875 27.09375 42.890625 30.859375 
Q 38.875 34.625 31.78125 34.625 
z
M 21.921875 38.8125 
Q 15.578125 40.375 12.03125 44.71875 
Q 8.5 49.078125 8.5 55.328125 
Q 8.5 64.0625 14.71875 69.140625 
Q 20.953125 74.21875 31.78125 74.21875 
Q 42.671875 74.21875 48.875 69.140625 
Q 55.078125 64.0625 55.078125 55.328125 
Q 55.078125 49.078125 51.53125 44.71875 
Q 48 40.375 41.703125 38.8125 
Q 48.828125 37.15625 52.796875 32.3125 
Q 56.78125 27.484375 56.78125 20.515625 
Q 56.78125 9.90625 50.3125 4.234375 
Q 43.84375 -1.421875 31.78125 -1.421875 
Q 19.734375 -1.421875 13.25 4.234375 
Q 6.78125 9.90625 6.78125 20.515625 
Q 6.78125 27.484375 10.78125 32.3125 
Q 14.796875 37.15625 21.921875 38.8125 
z
M 18.3125 54.390625 
Q 18.3125 48.734375 21.84375 45.5625 
Q 25.390625 42.390625 31.78125 42.390625 
Q 38.140625 42.390625 41.71875 45.5625 
Q 45.3125 48.734375 45.3125 54.390625 
Q 45.3125 60.0625 41.71875 63.234375 
Q 38.140625 66.40625 31.78125 66.40625 
Q 25.390625 66.40625 21.84375 63.234375 
Q 18.3125 60.0625 18.3125 54.390625 
z
" id="DejaVuSans-56"/>
       </defs>
       <use xlink:href="#DejaVuSans-50"/>
       <use x="63.623047" xlink:href="#DejaVuSans-48"/>
       <use x="127.246094" xlink:href="#DejaVuSans-50"/>
       <use x="190.869141" xlink:href="#DejaVuSans-48"/>
       <use x="254.492188" xlink:href="#DejaVuSans-45"/>
       <use x="290.576172" xlink:href="#DejaVuSans-48"/>
       <use x="354.199219" xlink:href="#DejaVuSans-56"/>
      </g>
     </g>
    </g>
    <g id="xtick_6">
     <g id="line2d_6">
      <g>
       <use style="stroke:#000000;stroke-width:0.8;" x="258.671571" xlink:href="#mf87ba29442" y="288.430125"/>
      </g>
     </g>
     <g id="text_6">
      <!-- 2020-09 -->
      <g transform="translate(261.430946 337.212937)rotate(-90)scale(0.1 -0.1)">
       <defs>
        <path d="M 10.984375 1.515625 
L 10.984375 10.5 
Q 14.703125 8.734375 18.5 7.8125 
Q 22.3125 6.890625 25.984375 6.890625 
Q 35.75 6.890625 40.890625 13.453125 
Q 46.046875 20.015625 46.78125 33.40625 
Q 43.953125 29.203125 39.59375 26.953125 
Q 35.25 24.703125 29.984375 24.703125 
Q 19.046875 24.703125 12.671875 31.3125 
Q 6.296875 37.9375 6.296875 49.421875 
Q 6.296875 60.640625 12.9375 67.421875 
Q 19.578125 74.21875 30.609375 74.21875 
Q 43.265625 74.21875 49.921875 64.515625 
Q 56.59375 54.828125 56.59375 36.375 
Q 56.59375 19.140625 48.40625 8.859375 
Q 40.234375 -1.421875 26.421875 -1.421875 
Q 22.703125 -1.421875 18.890625 -0.6875 
Q 15.09375 0.046875 10.984375 1.515625 
z
M 30.609375 32.421875 
Q 37.25 32.421875 41.125 36.953125 
Q 45.015625 41.5 45.015625 49.421875 
Q 45.015625 57.28125 41.125 61.84375 
Q 37.25 66.40625 30.609375 66.40625 
Q 23.96875 66.40625 20.09375 61.84375 
Q 16.21875 57.28125 16.21875 49.421875 
Q 16.21875 41.5 20.09375 36.953125 
Q 23.96875 32.421875 30.609375 32.421875 
z
" id="DejaVuSans-57"/>
       </defs>
       <use xlink:href="#DejaVuSans-50"/>
       <use x="63.623047" xlink:href="#DejaVuSans-48"/>
       <use x="127.246094" xlink:href="#DejaVuSans-50"/>
       <use x="190.869141" xlink:href="#DejaVuSans-48"/>
       <use x="254.492188" xlink:href="#DejaVuSans-45"/>
       <use x="290.576172" xlink:href="#DejaVuSans-48"/>
       <use x="354.199219" xlink:href="#DejaVuSans-57"/>
      </g>
     </g>
    </g>
    <g id="xtick_7">
     <g id="line2d_7">
      <g>
       <use style="stroke:#000000;stroke-width:0.8;" x="294.866166" xlink:href="#mf87ba29442" y="288.430125"/>
      </g>
     </g>
     <g id="text_7">
      <!-- 2020-10 -->
      <g transform="translate(297.625541 337.212937)rotate(-90)scale(0.1 -0.1)">
       <defs>
        <path d="M 12.40625 8.296875 
L 28.515625 8.296875 
L 28.515625 63.921875 
L 10.984375 60.40625 
L 10.984375 69.390625 
L 28.421875 72.90625 
L 38.28125 72.90625 
L 38.28125 8.296875 
L 54.390625 8.296875 
L 54.390625 0 
L 12.40625 0 
z
" id="DejaVuSans-49"/>
       </defs>
       <use xlink:href="#DejaVuSans-50"/>
       <use x="63.623047" xlink:href="#DejaVuSans-48"/>
       <use x="127.246094" xlink:href="#DejaVuSans-50"/>
       <use x="190.869141" xlink:href="#DejaVuSans-48"/>
       <use x="254.492188" xlink:href="#DejaVuSans-45"/>
       <use x="290.576172" xlink:href="#DejaVuSans-49"/>
       <use x="354.199219" xlink:href="#DejaVuSans-48"/>
      </g>
     </g>
    </g>
    <g id="xtick_8">
     <g id="line2d_8">
      <g>
       <use style="stroke:#000000;stroke-width:0.8;" x="332.267247" xlink:href="#mf87ba29442" y="288.430125"/>
      </g>
     </g>
     <g id="text_8">
      <!-- 2020-11 -->
      <g transform="translate(335.026622 337.212937)rotate(-90)scale(0.1 -0.1)">
       <use xlink:href="#DejaVuSans-50"/>
       <use x="63.623047" xlink:href="#DejaVuSans-48"/>
       <use x="127.246094" xlink:href="#DejaVuSans-50"/>
       <use x="190.869141" xlink:href="#DejaVuSans-48"/>
       <use x="254.492188" xlink:href="#DejaVuSans-45"/>
       <use x="290.576172" xlink:href="#DejaVuSans-49"/>
       <use x="354.199219" xlink:href="#DejaVuSans-49"/>
      </g>
     </g>
    </g>
    <g id="xtick_9">
     <g id="line2d_9">
      <g>
       <use style="stroke:#000000;stroke-width:0.8;" x="368.461841" xlink:href="#mf87ba29442" y="288.430125"/>
      </g>
     </g>
     <g id="text_9">
      <!-- 2020-12 -->
      <g transform="translate(371.221216 337.212937)rotate(-90)scale(0.1 -0.1)">
       <use xlink:href="#DejaVuSans-50"/>
       <use x="63.623047" xlink:href="#DejaVuSans-48"/>
       <use x="127.246094" xlink:href="#DejaVuSans-50"/>
       <use x="190.869141" xlink:href="#DejaVuSans-48"/>
       <use x="254.492188" xlink:href="#DejaVuSans-45"/>
       <use x="290.576172" xlink:href="#DejaVuSans-49"/>
       <use x="354.199219" xlink:href="#DejaVuSans-50"/>
      </g>
     </g>
    </g>
    <g id="xtick_10">
     <g id="line2d_10">
      <g>
       <use style="stroke:#000000;stroke-width:0.8;" x="405.862922" xlink:href="#mf87ba29442" y="288.430125"/>
      </g>
     </g>
     <g id="text_10">
      <!-- 2021-01 -->
      <g transform="translate(408.622297 337.212937)rotate(-90)scale(0.1 -0.1)">
       <use xlink:href="#DejaVuSans-50"/>
       <use x="63.623047" xlink:href="#DejaVuSans-48"/>
       <use x="127.246094" xlink:href="#DejaVuSans-50"/>
       <use x="190.869141" xlink:href="#DejaVuSans-49"/>
       <use x="254.492188" xlink:href="#DejaVuSans-45"/>
       <use x="290.576172" xlink:href="#DejaVuSans-48"/>
       <use x="354.199219" xlink:href="#DejaVuSans-49"/>
      </g>
     </g>
    </g>
    <g id="text_11">
     <!-- date -->
     <g transform="translate(220.250625 354.811375)scale(0.1 -0.1)">
      <defs>
       <path d="M 45.40625 46.390625 
L 45.40625 75.984375 
L 54.390625 75.984375 
L 54.390625 0 
L 45.40625 0 
L 45.40625 8.203125 
Q 42.578125 3.328125 38.25 0.953125 
Q 33.9375 -1.421875 27.875 -1.421875 
Q 17.96875 -1.421875 11.734375 6.484375 
Q 5.515625 14.40625 5.515625 27.296875 
Q 5.515625 40.1875 11.734375 48.09375 
Q 17.96875 56 27.875 56 
Q 33.9375 56 38.25 53.625 
Q 42.578125 51.265625 45.40625 46.390625 
z
M 14.796875 27.296875 
Q 14.796875 17.390625 18.875 11.75 
Q 22.953125 6.109375 30.078125 6.109375 
Q 37.203125 6.109375 41.296875 11.75 
Q 45.40625 17.390625 45.40625 27.296875 
Q 45.40625 37.203125 41.296875 42.84375 
Q 37.203125 48.484375 30.078125 48.484375 
Q 22.953125 48.484375 18.875 42.84375 
Q 14.796875 37.203125 14.796875 27.296875 
z
" id="DejaVuSans-100"/>
       <path d="M 34.28125 27.484375 
Q 23.390625 27.484375 19.1875 25 
Q 14.984375 22.515625 14.984375 16.5 
Q 14.984375 11.71875 18.140625 8.90625 
Q 21.296875 6.109375 26.703125 6.109375 
Q 34.1875 6.109375 38.703125 11.40625 
Q 43.21875 16.703125 43.21875 25.484375 
L 43.21875 27.484375 
z
M 52.203125 31.203125 
L 52.203125 0 
L 43.21875 0 
L 43.21875 8.296875 
Q 40.140625 3.328125 35.546875 0.953125 
Q 30.953125 -1.421875 24.3125 -1.421875 
Q 15.921875 -1.421875 10.953125 3.296875 
Q 6 8.015625 6 15.921875 
Q 6 25.140625 12.171875 29.828125 
Q 18.359375 34.515625 30.609375 34.515625 
L 43.21875 34.515625 
L 43.21875 35.40625 
Q 43.21875 41.609375 39.140625 45 
Q 35.0625 48.390625 27.6875 48.390625 
Q 23 48.390625 18.546875 47.265625 
Q 14.109375 46.140625 10.015625 43.890625 
L 10.015625 52.203125 
Q 14.9375 54.109375 19.578125 55.046875 
Q 24.21875 56 28.609375 56 
Q 40.484375 56 46.34375 49.84375 
Q 52.203125 43.703125 52.203125 31.203125 
z
" id="DejaVuSans-97"/>
       <path d="M 18.3125 70.21875 
L 18.3125 54.6875 
L 36.8125 54.6875 
L 36.8125 47.703125 
L 18.3125 47.703125 
L 18.3125 18.015625 
Q 18.3125 11.328125 20.140625 9.421875 
Q 21.96875 7.515625 27.59375 7.515625 
L 36.8125 7.515625 
L 36.8125 0 
L 27.59375 0 
Q 17.1875 0 13.234375 3.875 
Q 9.28125 7.765625 9.28125 18.015625 
L 9.28125 47.703125 
L 2.6875 47.703125 
L 2.6875 54.6875 
L 9.28125 54.6875 
L 9.28125 70.21875 
z
" id="DejaVuSans-116"/>
       <path d="M 56.203125 29.59375 
L 56.203125 25.203125 
L 14.890625 25.203125 
Q 15.484375 15.921875 20.484375 11.0625 
Q 25.484375 6.203125 34.421875 6.203125 
Q 39.59375 6.203125 44.453125 7.46875 
Q 49.3125 8.734375 54.109375 11.28125 
L 54.109375 2.78125 
Q 49.265625 0.734375 44.1875 -0.34375 
Q 39.109375 -1.421875 33.890625 -1.421875 
Q 20.796875 -1.421875 13.15625 6.1875 
Q 5.515625 13.8125 5.515625 26.8125 
Q 5.515625 40.234375 12.765625 48.109375 
Q 20.015625 56 32.328125 56 
Q 43.359375 56 49.78125 48.890625 
Q 56.203125 41.796875 56.203125 29.59375 
z
M 47.21875 32.234375 
Q 47.125 39.59375 43.09375 43.984375 
Q 39.0625 48.390625 32.421875 48.390625 
Q 24.90625 48.390625 20.390625 44.140625 
Q 15.875 39.890625 15.1875 32.171875 
z
" id="DejaVuSans-101"/>
      </defs>
      <use xlink:href="#DejaVuSans-100"/>
      <use x="63.476562" xlink:href="#DejaVuSans-97"/>
      <use x="124.755859" xlink:href="#DejaVuSans-116"/>
      <use x="163.964844" xlink:href="#DejaVuSans-101"/>
     </g>
    </g>
   </g>
   <g id="matplotlib.axis_2">
    <g id="ytick_1">
     <g id="line2d_11">
      <defs>
       <path d="M 0 0 
L -3.5 0 
" id="m1662d988b3" style="stroke:#000000;stroke-width:0.8;"/>
      </defs>
      <g>
       <use style="stroke:#000000;stroke-width:0.8;" x="52.965625" xlink:href="#m1662d988b3" y="288.430125"/>
      </g>
     </g>
     <g id="text_12">
      <!-- 0 -->
      <g transform="translate(39.603125 292.229344)scale(0.1 -0.1)">
       <use xlink:href="#DejaVuSans-48"/>
      </g>
     </g>
    </g>
    <g id="ytick_2">
     <g id="line2d_12">
      <g>
       <use style="stroke:#000000;stroke-width:0.8;" x="52.965625" xlink:href="#m1662d988b3" y="255.977442"/>
      </g>
     </g>
     <g id="text_13">
      <!-- 100 -->
      <g transform="translate(26.878125 259.776661)scale(0.1 -0.1)">
       <use xlink:href="#DejaVuSans-49"/>
       <use x="63.623047" xlink:href="#DejaVuSans-48"/>
       <use x="127.246094" xlink:href="#DejaVuSans-48"/>
      </g>
     </g>
    </g>
    <g id="ytick_3">
     <g id="line2d_13">
      <g>
       <use style="stroke:#000000;stroke-width:0.8;" x="52.965625" xlink:href="#m1662d988b3" y="223.524759"/>
      </g>
     </g>
     <g id="text_14">
      <!-- 200 -->
      <g transform="translate(26.878125 227.323978)scale(0.1 -0.1)">
       <use xlink:href="#DejaVuSans-50"/>
       <use x="63.623047" xlink:href="#DejaVuSans-48"/>
       <use x="127.246094" xlink:href="#DejaVuSans-48"/>
      </g>
     </g>
    </g>
    <g id="ytick_4">
     <g id="line2d_14">
      <g>
       <use style="stroke:#000000;stroke-width:0.8;" x="52.965625" xlink:href="#m1662d988b3" y="191.072076"/>
      </g>
     </g>
     <g id="text_15">
      <!-- 300 -->
      <g transform="translate(26.878125 194.871295)scale(0.1 -0.1)">
       <defs>
        <path d="M 40.578125 39.3125 
Q 47.65625 37.796875 51.625 33 
Q 55.609375 28.21875 55.609375 21.1875 
Q 55.609375 10.40625 48.1875 4.484375 
Q 40.765625 -1.421875 27.09375 -1.421875 
Q 22.515625 -1.421875 17.65625 -0.515625 
Q 12.796875 0.390625 7.625 2.203125 
L 7.625 11.71875 
Q 11.71875 9.328125 16.59375 8.109375 
Q 21.484375 6.890625 26.8125 6.890625 
Q 36.078125 6.890625 40.9375 10.546875 
Q 45.796875 14.203125 45.796875 21.1875 
Q 45.796875 27.640625 41.28125 31.265625 
Q 36.765625 34.90625 28.71875 34.90625 
L 20.21875 34.90625 
L 20.21875 43.015625 
L 29.109375 43.015625 
Q 36.375 43.015625 40.234375 45.921875 
Q 44.09375 48.828125 44.09375 54.296875 
Q 44.09375 59.90625 40.109375 62.90625 
Q 36.140625 65.921875 28.71875 65.921875 
Q 24.65625 65.921875 20.015625 65.03125 
Q 15.375 64.15625 9.8125 62.3125 
L 9.8125 71.09375 
Q 15.4375 72.65625 20.34375 73.4375 
Q 25.25 74.21875 29.59375 74.21875 
Q 40.828125 74.21875 47.359375 69.109375 
Q 53.90625 64.015625 53.90625 55.328125 
Q 53.90625 49.265625 50.4375 45.09375 
Q 46.96875 40.921875 40.578125 39.3125 
z
" id="DejaVuSans-51"/>
       </defs>
       <use xlink:href="#DejaVuSans-51"/>
       <use x="63.623047" xlink:href="#DejaVuSans-48"/>
       <use x="127.246094" xlink:href="#DejaVuSans-48"/>
      </g>
     </g>
    </g>
    <g id="ytick_5">
     <g id="line2d_15">
      <g>
       <use style="stroke:#000000;stroke-width:0.8;" x="52.965625" xlink:href="#m1662d988b3" y="158.619393"/>
      </g>
     </g>
     <g id="text_16">
      <!-- 400 -->
      <g transform="translate(26.878125 162.418612)scale(0.1 -0.1)">
       <use xlink:href="#DejaVuSans-52"/>
       <use x="63.623047" xlink:href="#DejaVuSans-48"/>
       <use x="127.246094" xlink:href="#DejaVuSans-48"/>
      </g>
     </g>
    </g>
    <g id="ytick_6">
     <g id="line2d_16">
      <g>
       <use style="stroke:#000000;stroke-width:0.8;" x="52.965625" xlink:href="#m1662d988b3" y="126.16671"/>
      </g>
     </g>
     <g id="text_17">
      <!-- 500 -->
      <g transform="translate(26.878125 129.965929)scale(0.1 -0.1)">
       <use xlink:href="#DejaVuSans-53"/>
       <use x="63.623047" xlink:href="#DejaVuSans-48"/>
       <use x="127.246094" xlink:href="#DejaVuSans-48"/>
      </g>
     </g>
    </g>
    <g id="ytick_7">
     <g id="line2d_17">
      <g>
       <use style="stroke:#000000;stroke-width:0.8;" x="52.965625" xlink:href="#m1662d988b3" y="93.714027"/>
      </g>
     </g>
     <g id="text_18">
      <!-- 600 -->
      <g transform="translate(26.878125 97.513246)scale(0.1 -0.1)">
       <use xlink:href="#DejaVuSans-54"/>
       <use x="63.623047" xlink:href="#DejaVuSans-48"/>
       <use x="127.246094" xlink:href="#DejaVuSans-48"/>
      </g>
     </g>
    </g>
    <g id="ytick_8">
     <g id="line2d_18">
      <g>
       <use style="stroke:#000000;stroke-width:0.8;" x="52.965625" xlink:href="#m1662d988b3" y="61.261345"/>
      </g>
     </g>
     <g id="text_19">
      <!-- 700 -->
      <g transform="translate(26.878125 65.060563)scale(0.1 -0.1)">
       <use xlink:href="#DejaVuSans-55"/>
       <use x="63.623047" xlink:href="#DejaVuSans-48"/>
       <use x="127.246094" xlink:href="#DejaVuSans-48"/>
      </g>
     </g>
    </g>
    <g id="ytick_9">
     <g id="line2d_19">
      <g>
       <use style="stroke:#000000;stroke-width:0.8;" x="52.965625" xlink:href="#m1662d988b3" y="28.808662"/>
      </g>
     </g>
     <g id="text_20">
      <!-- 800 -->
      <g transform="translate(26.878125 32.60788)scale(0.1 -0.1)">
       <use xlink:href="#DejaVuSans-56"/>
       <use x="63.623047" xlink:href="#DejaVuSans-48"/>
       <use x="127.246094" xlink:href="#DejaVuSans-48"/>
      </g>
     </g>
    </g>
    <g id="text_21">
     <!-- daily new corona cases -->
     <g transform="translate(14.798438 213.594437)rotate(-90)scale(0.1 -0.1)">
      <defs>
       <path d="M 9.421875 54.6875 
L 18.40625 54.6875 
L 18.40625 0 
L 9.421875 0 
z
M 9.421875 75.984375 
L 18.40625 75.984375 
L 18.40625 64.59375 
L 9.421875 64.59375 
z
" id="DejaVuSans-105"/>
       <path d="M 9.421875 75.984375 
L 18.40625 75.984375 
L 18.40625 0 
L 9.421875 0 
z
" id="DejaVuSans-108"/>
       <path d="M 32.171875 -5.078125 
Q 28.375 -14.84375 24.75 -17.8125 
Q 21.140625 -20.796875 15.09375 -20.796875 
L 7.90625 -20.796875 
L 7.90625 -13.28125 
L 13.1875 -13.28125 
Q 16.890625 -13.28125 18.9375 -11.515625 
Q 21 -9.765625 23.484375 -3.21875 
L 25.09375 0.875 
L 2.984375 54.6875 
L 12.5 54.6875 
L 29.59375 11.921875 
L 46.6875 54.6875 
L 56.203125 54.6875 
z
" id="DejaVuSans-121"/>
       <path id="DejaVuSans-32"/>
       <path d="M 54.890625 33.015625 
L 54.890625 0 
L 45.90625 0 
L 45.90625 32.71875 
Q 45.90625 40.484375 42.875 44.328125 
Q 39.84375 48.1875 33.796875 48.1875 
Q 26.515625 48.1875 22.3125 43.546875 
Q 18.109375 38.921875 18.109375 30.90625 
L 18.109375 0 
L 9.078125 0 
L 9.078125 54.6875 
L 18.109375 54.6875 
L 18.109375 46.1875 
Q 21.34375 51.125 25.703125 53.5625 
Q 30.078125 56 35.796875 56 
Q 45.21875 56 50.046875 50.171875 
Q 54.890625 44.34375 54.890625 33.015625 
z
" id="DejaVuSans-110"/>
       <path d="M 4.203125 54.6875 
L 13.1875 54.6875 
L 24.421875 12.015625 
L 35.59375 54.6875 
L 46.1875 54.6875 
L 57.421875 12.015625 
L 68.609375 54.6875 
L 77.59375 54.6875 
L 63.28125 0 
L 52.6875 0 
L 40.921875 44.828125 
L 29.109375 0 
L 18.5 0 
z
" id="DejaVuSans-119"/>
       <path d="M 48.78125 52.59375 
L 48.78125 44.1875 
Q 44.96875 46.296875 41.140625 47.34375 
Q 37.3125 48.390625 33.40625 48.390625 
Q 24.65625 48.390625 19.8125 42.84375 
Q 14.984375 37.3125 14.984375 27.296875 
Q 14.984375 17.28125 19.8125 11.734375 
Q 24.65625 6.203125 33.40625 6.203125 
Q 37.3125 6.203125 41.140625 7.25 
Q 44.96875 8.296875 48.78125 10.40625 
L 48.78125 2.09375 
Q 45.015625 0.34375 40.984375 -0.53125 
Q 36.96875 -1.421875 32.421875 -1.421875 
Q 20.0625 -1.421875 12.78125 6.34375 
Q 5.515625 14.109375 5.515625 27.296875 
Q 5.515625 40.671875 12.859375 48.328125 
Q 20.21875 56 33.015625 56 
Q 37.15625 56 41.109375 55.140625 
Q 45.0625 54.296875 48.78125 52.59375 
z
" id="DejaVuSans-99"/>
       <path d="M 30.609375 48.390625 
Q 23.390625 48.390625 19.1875 42.75 
Q 14.984375 37.109375 14.984375 27.296875 
Q 14.984375 17.484375 19.15625 11.84375 
Q 23.34375 6.203125 30.609375 6.203125 
Q 37.796875 6.203125 41.984375 11.859375 
Q 46.1875 17.53125 46.1875 27.296875 
Q 46.1875 37.015625 41.984375 42.703125 
Q 37.796875 48.390625 30.609375 48.390625 
z
M 30.609375 56 
Q 42.328125 56 49.015625 48.375 
Q 55.71875 40.765625 55.71875 27.296875 
Q 55.71875 13.875 49.015625 6.21875 
Q 42.328125 -1.421875 30.609375 -1.421875 
Q 18.84375 -1.421875 12.171875 6.21875 
Q 5.515625 13.875 5.515625 27.296875 
Q 5.515625 40.765625 12.171875 48.375 
Q 18.84375 56 30.609375 56 
z
" id="DejaVuSans-111"/>
       <path d="M 41.109375 46.296875 
Q 39.59375 47.171875 37.8125 47.578125 
Q 36.03125 48 33.890625 48 
Q 26.265625 48 22.1875 43.046875 
Q 18.109375 38.09375 18.109375 28.8125 
L 18.109375 0 
L 9.078125 0 
L 9.078125 54.6875 
L 18.109375 54.6875 
L 18.109375 46.1875 
Q 20.953125 51.171875 25.484375 53.578125 
Q 30.03125 56 36.53125 56 
Q 37.453125 56 38.578125 55.875 
Q 39.703125 55.765625 41.0625 55.515625 
z
" id="DejaVuSans-114"/>
       <path d="M 44.28125 53.078125 
L 44.28125 44.578125 
Q 40.484375 46.53125 36.375 47.5 
Q 32.28125 48.484375 27.875 48.484375 
Q 21.1875 48.484375 17.84375 46.4375 
Q 14.5 44.390625 14.5 40.28125 
Q 14.5 37.15625 16.890625 35.375 
Q 19.28125 33.59375 26.515625 31.984375 
L 29.59375 31.296875 
Q 39.15625 29.25 43.1875 25.515625 
Q 47.21875 21.78125 47.21875 15.09375 
Q 47.21875 7.46875 41.1875 3.015625 
Q 35.15625 -1.421875 24.609375 -1.421875 
Q 20.21875 -1.421875 15.453125 -0.5625 
Q 10.6875 0.296875 5.421875 2 
L 5.421875 11.28125 
Q 10.40625 8.6875 15.234375 7.390625 
Q 20.0625 6.109375 24.8125 6.109375 
Q 31.15625 6.109375 34.5625 8.28125 
Q 37.984375 10.453125 37.984375 14.40625 
Q 37.984375 18.0625 35.515625 20.015625 
Q 33.0625 21.96875 24.703125 23.78125 
L 21.578125 24.515625 
Q 13.234375 26.265625 9.515625 29.90625 
Q 5.8125 33.546875 5.8125 39.890625 
Q 5.8125 47.609375 11.28125 51.796875 
Q 16.75 56 26.8125 56 
Q 31.78125 56 36.171875 55.265625 
Q 40.578125 54.546875 44.28125 53.078125 
z
" id="DejaVuSans-115"/>
      </defs>
      <use xlink:href="#DejaVuSans-100"/>
      <use x="63.476562" xlink:href="#DejaVuSans-97"/>
      <use x="124.755859" xlink:href="#DejaVuSans-105"/>
      <use x="152.539062" xlink:href="#DejaVuSans-108"/>
      <use x="180.322266" xlink:href="#DejaVuSans-121"/>
      <use x="239.501953" xlink:href="#DejaVuSans-32"/>
      <use x="271.289062" xlink:href="#DejaVuSans-110"/>
      <use x="334.667969" xlink:href="#DejaVuSans-101"/>
      <use x="396.191406" xlink:href="#DejaVuSans-119"/>
      <use x="477.978516" xlink:href="#DejaVuSans-32"/>
      <use x="509.765625" xlink:href="#DejaVuSans-99"/>
      <use x="564.746094" xlink:href="#DejaVuSans-111"/>
      <use x="625.927734" xlink:href="#DejaVuSans-114"/>
      <use x="664.791016" xlink:href="#DejaVuSans-111"/>
      <use x="725.972656" xlink:href="#DejaVuSans-110"/>
      <use x="789.351562" xlink:href="#DejaVuSans-97"/>
      <use x="850.630859" xlink:href="#DejaVuSans-32"/>
      <use x="882.417969" xlink:href="#DejaVuSans-99"/>
      <use x="937.398438" xlink:href="#DejaVuSans-97"/>
      <use x="998.677734" xlink:href="#DejaVuSans-115"/>
      <use x="1050.777344" xlink:href="#DejaVuSans-101"/>
      <use x="1112.300781" xlink:href="#DejaVuSans-115"/>
     </g>
    </g>
   </g>
   <g id="patch_299">
    <path d="M 52.965625 288.430125 
L 52.965625 22.318125 
" style="fill:none;stroke:#000000;stroke-linecap:square;stroke-linejoin:miter;stroke-width:0.8;"/>
   </g>
   <g id="patch_300">
    <path d="M 52.965625 288.430125 
L 410.085625 288.430125 
" style="fill:none;stroke:#000000;stroke-linecap:square;stroke-linejoin:miter;stroke-width:0.8;"/>
   </g>
   <g id="text_22">
    <!-- South Tyrol -->
    <g transform="translate(198.233125 16.318125)scale(0.12 -0.12)">
     <defs>
      <path d="M 53.515625 70.515625 
L 53.515625 60.890625 
Q 47.90625 63.578125 42.921875 64.890625 
Q 37.9375 66.21875 33.296875 66.21875 
Q 25.25 66.21875 20.875 63.09375 
Q 16.5 59.96875 16.5 54.203125 
Q 16.5 49.359375 19.40625 46.890625 
Q 22.3125 44.4375 30.421875 42.921875 
L 36.375 41.703125 
Q 47.40625 39.59375 52.65625 34.296875 
Q 57.90625 29 57.90625 20.125 
Q 57.90625 9.515625 50.796875 4.046875 
Q 43.703125 -1.421875 29.984375 -1.421875 
Q 24.8125 -1.421875 18.96875 -0.25 
Q 13.140625 0.921875 6.890625 3.21875 
L 6.890625 13.375 
Q 12.890625 10.015625 18.65625 8.296875 
Q 24.421875 6.59375 29.984375 6.59375 
Q 38.421875 6.59375 43.015625 9.90625 
Q 47.609375 13.234375 47.609375 19.390625 
Q 47.609375 24.75 44.3125 27.78125 
Q 41.015625 30.8125 33.5 32.328125 
L 27.484375 33.5 
Q 16.453125 35.6875 11.515625 40.375 
Q 6.59375 45.0625 6.59375 53.421875 
Q 6.59375 63.09375 13.40625 68.65625 
Q 20.21875 74.21875 32.171875 74.21875 
Q 37.3125 74.21875 42.625 73.28125 
Q 47.953125 72.359375 53.515625 70.515625 
z
" id="DejaVuSans-83"/>
      <path d="M 8.5 21.578125 
L 8.5 54.6875 
L 17.484375 54.6875 
L 17.484375 21.921875 
Q 17.484375 14.15625 20.5 10.265625 
Q 23.53125 6.390625 29.59375 6.390625 
Q 36.859375 6.390625 41.078125 11.03125 
Q 45.3125 15.671875 45.3125 23.6875 
L 45.3125 54.6875 
L 54.296875 54.6875 
L 54.296875 0 
L 45.3125 0 
L 45.3125 8.40625 
Q 42.046875 3.421875 37.71875 1 
Q 33.40625 -1.421875 27.6875 -1.421875 
Q 18.265625 -1.421875 13.375 4.4375 
Q 8.5 10.296875 8.5 21.578125 
z
M 31.109375 56 
z
" id="DejaVuSans-117"/>
      <path d="M 54.890625 33.015625 
L 54.890625 0 
L 45.90625 0 
L 45.90625 32.71875 
Q 45.90625 40.484375 42.875 44.328125 
Q 39.84375 48.1875 33.796875 48.1875 
Q 26.515625 48.1875 22.3125 43.546875 
Q 18.109375 38.921875 18.109375 30.90625 
L 18.109375 0 
L 9.078125 0 
L 9.078125 75.984375 
L 18.109375 75.984375 
L 18.109375 46.1875 
Q 21.34375 51.125 25.703125 53.5625 
Q 30.078125 56 35.796875 56 
Q 45.21875 56 50.046875 50.171875 
Q 54.890625 44.34375 54.890625 33.015625 
z
" id="DejaVuSans-104"/>
      <path d="M -0.296875 72.90625 
L 61.375 72.90625 
L 61.375 64.59375 
L 35.5 64.59375 
L 35.5 0 
L 25.59375 0 
L 25.59375 64.59375 
L -0.296875 64.59375 
z
" id="DejaVuSans-84"/>
     </defs>
     <use xlink:href="#DejaVuSans-83"/>
     <use x="63.476562" xlink:href="#DejaVuSans-111"/>
     <use x="124.658203" xlink:href="#DejaVuSans-117"/>
     <use x="188.037109" xlink:href="#DejaVuSans-116"/>
     <use x="227.246094" xlink:href="#DejaVuSans-104"/>
     <use x="290.625" xlink:href="#DejaVuSans-32"/>
     <use x="322.412109" xlink:href="#DejaVuSans-84"/>
     <use x="367.871094" xlink:href="#DejaVuSans-121"/>
     <use x="427.050781" xlink:href="#DejaVuSans-114"/>
     <use x="465.914062" xlink:href="#DejaVuSans-111"/>
     <use x="527.095703" xlink:href="#DejaVuSans-108"/>
    </g>
   </g>
  </g>
 </g>
 <defs>
  <clipPath id="pe007419e5b">
   <rect height="266.112" width="357.12" x="52.965625" y="22.318125"/>
  </clipPath>
 </defs>
</svg>
