<?xml version="1.0" encoding="utf-8" standalone="no"?>
<!DOCTYPE svg PUBLIC "-//W3C//DTD SVG 1.1//EN"
  "http://www.w3.org/Graphics/SVG/1.1/DTD/svg11.dtd">
<!-- Created with matplotlib (https://matplotlib.org/) -->
<svg height="364.091062pt" version="1.1" viewBox="0 0 430.010625 364.091062" width="430.010625pt" xmlns="http://www.w3.org/2000/svg" xmlns:xlink="http://www.w3.org/1999/xlink">
 <metadata>
  <rdf:RDF xmlns:cc="http://creativecommons.org/ns#" xmlns:dc="http://purl.org/dc/elements/1.1/" xmlns:rdf="http://www.w3.org/1999/02/22-rdf-syntax-ns#">
   <cc:Work>
    <dc:type rdf:resource="http://purl.org/dc/dcmitype/StillImage"/>
    <dc:date>2020-12-13T14:47:13.863350</dc:date>
    <dc:format>image/svg+xml</dc:format>
    <dc:creator>
     <cc:Agent>
      <dc:title>Matplotlib v3.3.3, https://matplotlib.org/</dc:title>
     </cc:Agent>
    </dc:creator>
   </cc:Work>
  </rdf:RDF>
 </metadata>
 <defs>
  <style type="text/css">*{stroke-linecap:butt;stroke-linejoin:round;}</style>
 </defs>
 <g id="figure_1">
  <g id="patch_1">
   <path d="M 0 364.091062 
L 430.010625 364.091062 
L 430.010625 0 
L 0 0 
z
" style="fill:#ffffff;"/>
  </g>
  <g id="axes_1">
   <g id="patch_2">
    <path d="M 65.690625 288.430125 
L 422.810625 288.430125 
L 422.810625 22.318125 
L 65.690625 22.318125 
z
" style="fill:#ffffff;"/>
   </g>
   <g id="patch_3">
    <path clip-path="url(#p4a0482df69)" d="M 65.820961 288.430125 
L 66.863647 288.430125 
L 66.863647 286.383415 
L 65.820961 286.383415 
z
" style="fill:#1f77b4;"/>
   </g>
   <g id="patch_4">
    <path clip-path="url(#p4a0482df69)" d="M 67.124318 288.430125 
L 68.167005 288.430125 
L 68.167005 286.005867 
L 67.124318 286.005867 
z
" style="fill:#1f77b4;"/>
   </g>
   <g id="patch_5">
    <path clip-path="url(#p4a0482df69)" d="M 68.427676 288.430125 
L 69.470362 288.430125 
L 69.470362 285.519028 
L 68.427676 285.519028 
z
" style="fill:#1f77b4;"/>
   </g>
   <g id="patch_6">
    <path clip-path="url(#p4a0482df69)" d="M 69.731034 288.430125 
L 70.77372 288.430125 
L 70.77372 284.624835 
L 69.731034 284.624835 
z
" style="fill:#1f77b4;"/>
   </g>
   <g id="patch_7">
    <path clip-path="url(#p4a0482df69)" d="M 71.034391 288.430125 
L 72.077078 288.430125 
L 72.077078 284.048577 
L 71.034391 284.048577 
z
" style="fill:#1f77b4;"/>
   </g>
   <g id="patch_8">
    <path clip-path="url(#p4a0482df69)" d="M 72.337749 288.430125 
L 73.380435 288.430125 
L 73.380435 282.915931 
L 72.337749 282.915931 
z
" style="fill:#1f77b4;"/>
   </g>
   <g id="patch_9">
    <path clip-path="url(#p4a0482df69)" d="M 73.641107 288.430125 
L 74.683793 288.430125 
L 74.683793 282.240319 
L 73.641107 282.240319 
z
" style="fill:#1f77b4;"/>
   </g>
   <g id="patch_10">
    <path clip-path="url(#p4a0482df69)" d="M 74.944464 288.430125 
L 75.987151 288.430125 
L 75.987151 281.654125 
L 74.944464 281.654125 
z
" style="fill:#1f77b4;"/>
   </g>
   <g id="patch_11">
    <path clip-path="url(#p4a0482df69)" d="M 76.247822 288.430125 
L 77.290508 288.430125 
L 77.290508 281.236835 
L 76.247822 281.236835 
z
" style="fill:#1f77b4;"/>
   </g>
   <g id="patch_12">
    <path clip-path="url(#p4a0482df69)" d="M 77.55118 288.430125 
L 78.593866 288.430125 
L 78.593866 280.591028 
L 77.55118 280.591028 
z
" style="fill:#1f77b4;"/>
   </g>
   <g id="patch_13">
    <path clip-path="url(#p4a0482df69)" d="M 78.854537 288.430125 
L 79.897224 288.430125 
L 79.897224 280.12406 
L 78.854537 280.12406 
z
" style="fill:#1f77b4;"/>
   </g>
   <g id="patch_14">
    <path clip-path="url(#p4a0482df69)" d="M 80.157895 288.430125 
L 81.200581 288.430125 
L 81.200581 279.388835 
L 80.157895 279.388835 
z
" style="fill:#1f77b4;"/>
   </g>
   <g id="patch_15">
    <path clip-path="url(#p4a0482df69)" d="M 81.461253 288.430125 
L 82.503939 288.430125 
L 82.503939 278.464835 
L 81.461253 278.464835 
z
" style="fill:#1f77b4;"/>
   </g>
   <g id="patch_16">
    <path clip-path="url(#p4a0482df69)" d="M 82.76461 288.430125 
L 83.807297 288.430125 
L 83.807297 277.679931 
L 82.76461 277.679931 
z
" style="fill:#1f77b4;"/>
   </g>
   <g id="patch_17">
    <path clip-path="url(#p4a0482df69)" d="M 84.067968 288.430125 
L 85.110654 288.430125 
L 85.110654 276.457867 
L 84.067968 276.457867 
z
" style="fill:#1f77b4;"/>
   </g>
   <g id="patch_18">
    <path clip-path="url(#p4a0482df69)" d="M 85.371326 288.430125 
L 86.414012 288.430125 
L 86.414012 275.59348 
L 85.371326 275.59348 
z
" style="fill:#1f77b4;"/>
   </g>
   <g id="patch_19">
    <path clip-path="url(#p4a0482df69)" d="M 86.674683 288.430125 
L 87.71737 288.430125 
L 87.71737 274.997351 
L 86.674683 274.997351 
z
" style="fill:#1f77b4;"/>
   </g>
   <g id="patch_20">
    <path clip-path="url(#p4a0482df69)" d="M 87.978041 288.430125 
L 89.020727 288.430125 
L 89.020727 274.540319 
L 87.978041 274.540319 
z
" style="fill:#1f77b4;"/>
   </g>
   <g id="patch_21">
    <path clip-path="url(#p4a0482df69)" d="M 89.281399 288.430125 
L 90.324085 288.430125 
L 90.324085 274.093222 
L 89.281399 274.093222 
z
" style="fill:#1f77b4;"/>
   </g>
   <g id="patch_22">
    <path clip-path="url(#p4a0482df69)" d="M 90.584756 288.430125 
L 91.627443 288.430125 
L 91.627443 273.308319 
L 90.584756 273.308319 
z
" style="fill:#1f77b4;"/>
   </g>
   <g id="patch_23">
    <path clip-path="url(#p4a0482df69)" d="M 91.888114 288.430125 
L 92.9308 288.430125 
L 92.9308 272.42406 
L 91.888114 272.42406 
z
" style="fill:#1f77b4;"/>
   </g>
   <g id="patch_24">
    <path clip-path="url(#p4a0482df69)" d="M 93.191472 288.430125 
L 94.234158 288.430125 
L 94.234158 272.00677 
L 93.191472 272.00677 
z
" style="fill:#1f77b4;"/>
   </g>
   <g id="patch_25">
    <path clip-path="url(#p4a0482df69)" d="M 94.494829 288.430125 
L 95.537516 288.430125 
L 95.537516 271.221867 
L 94.494829 271.221867 
z
" style="fill:#1f77b4;"/>
   </g>
   <g id="patch_26">
    <path clip-path="url(#p4a0482df69)" d="M 95.798187 288.430125 
L 96.840873 288.430125 
L 96.840873 270.635673 
L 95.798187 270.635673 
z
" style="fill:#1f77b4;"/>
   </g>
   <g id="patch_27">
    <path clip-path="url(#p4a0482df69)" d="M 97.101545 288.430125 
L 98.144231 288.430125 
L 98.144231 269.96006 
L 97.101545 269.96006 
z
" style="fill:#1f77b4;"/>
   </g>
   <g id="patch_28">
    <path clip-path="url(#p4a0482df69)" d="M 98.404902 288.430125 
L 99.447589 288.430125 
L 99.447589 269.443415 
L 98.404902 269.443415 
z
" style="fill:#1f77b4;"/>
   </g>
   <g id="patch_29">
    <path clip-path="url(#p4a0482df69)" d="M 99.70826 288.430125 
L 100.750946 288.430125 
L 100.750946 268.81748 
L 99.70826 268.81748 
z
" style="fill:#1f77b4;"/>
   </g>
   <g id="patch_30">
    <path clip-path="url(#p4a0482df69)" d="M 101.011618 288.430125 
L 102.054304 288.430125 
L 102.054304 268.151802 
L 101.011618 268.151802 
z
" style="fill:#1f77b4;"/>
   </g>
   <g id="patch_31">
    <path clip-path="url(#p4a0482df69)" d="M 102.314975 288.430125 
L 103.357661 288.430125 
L 103.357661 267.625222 
L 102.314975 267.625222 
z
" style="fill:#1f77b4;"/>
   </g>
   <g id="patch_32">
    <path clip-path="url(#p4a0482df69)" d="M 103.618333 288.430125 
L 104.661019 288.430125 
L 104.661019 267.118512 
L 103.618333 267.118512 
z
" style="fill:#1f77b4;"/>
   </g>
   <g id="patch_33">
    <path clip-path="url(#p4a0482df69)" d="M 104.921691 288.430125 
L 105.964377 288.430125 
L 105.964377 266.77077 
L 104.921691 266.77077 
z
" style="fill:#1f77b4;"/>
   </g>
   <g id="patch_34">
    <path clip-path="url(#p4a0482df69)" d="M 106.225048 288.430125 
L 107.267734 288.430125 
L 107.267734 266.333609 
L 106.225048 266.333609 
z
" style="fill:#1f77b4;"/>
   </g>
   <g id="patch_35">
    <path clip-path="url(#p4a0482df69)" d="M 107.528406 288.430125 
L 108.571092 288.430125 
L 108.571092 265.896448 
L 107.528406 265.896448 
z
" style="fill:#1f77b4;"/>
   </g>
   <g id="patch_36">
    <path clip-path="url(#p4a0482df69)" d="M 108.831764 288.430125 
L 109.87445 288.430125 
L 109.87445 265.618254 
L 108.831764 265.618254 
z
" style="fill:#1f77b4;"/>
   </g>
   <g id="patch_37">
    <path clip-path="url(#p4a0482df69)" d="M 110.135121 288.430125 
L 111.177807 288.430125 
L 111.177807 265.330125 
L 110.135121 265.330125 
z
" style="fill:#1f77b4;"/>
   </g>
   <g id="patch_38">
    <path clip-path="url(#p4a0482df69)" d="M 111.438479 288.430125 
L 112.481165 288.430125 
L 112.481165 264.783673 
L 111.438479 264.783673 
z
" style="fill:#1f77b4;"/>
   </g>
   <g id="patch_39">
    <path clip-path="url(#p4a0482df69)" d="M 112.741837 288.430125 
L 113.784523 288.430125 
L 113.784523 264.634641 
L 112.741837 264.634641 
z
" style="fill:#1f77b4;"/>
   </g>
   <g id="patch_40">
    <path clip-path="url(#p4a0482df69)" d="M 114.045194 288.430125 
L 115.08788 288.430125 
L 115.08788 264.465738 
L 114.045194 264.465738 
z
" style="fill:#1f77b4;"/>
   </g>
   <g id="patch_41">
    <path clip-path="url(#p4a0482df69)" d="M 115.348552 288.430125 
L 116.391238 288.430125 
L 116.391238 264.425996 
L 115.348552 264.425996 
z
" style="fill:#1f77b4;"/>
   </g>
   <g id="patch_42">
    <path clip-path="url(#p4a0482df69)" d="M 116.65191 288.430125 
L 117.694596 288.430125 
L 117.694596 264.237222 
L 116.65191 264.237222 
z
" style="fill:#1f77b4;"/>
   </g>
   <g id="patch_43">
    <path clip-path="url(#p4a0482df69)" d="M 117.955267 288.430125 
L 118.997953 288.430125 
L 118.997953 264.028577 
L 117.955267 264.028577 
z
" style="fill:#1f77b4;"/>
   </g>
   <g id="patch_44">
    <path clip-path="url(#p4a0482df69)" d="M 119.258625 288.430125 
L 120.301311 288.430125 
L 120.301311 263.829867 
L 119.258625 263.829867 
z
" style="fill:#1f77b4;"/>
   </g>
   <g id="patch_45">
    <path clip-path="url(#p4a0482df69)" d="M 120.561983 288.430125 
L 121.604669 288.430125 
L 121.604669 263.78019 
L 120.561983 263.78019 
z
" style="fill:#1f77b4;"/>
   </g>
   <g id="patch_46">
    <path clip-path="url(#p4a0482df69)" d="M 121.86534 288.430125 
L 122.908026 288.430125 
L 122.908026 263.631157 
L 121.86534 263.631157 
z
" style="fill:#1f77b4;"/>
   </g>
   <g id="patch_47">
    <path clip-path="url(#p4a0482df69)" d="M 123.168698 288.430125 
L 124.211384 288.430125 
L 124.211384 263.611286 
L 123.168698 263.611286 
z
" style="fill:#1f77b4;"/>
   </g>
   <g id="patch_48">
    <path clip-path="url(#p4a0482df69)" d="M 124.472056 288.430125 
L 125.514742 288.430125 
L 125.514742 263.521867 
L 124.472056 263.521867 
z
" style="fill:#1f77b4;"/>
   </g>
   <g id="patch_49">
    <path clip-path="url(#p4a0482df69)" d="M 125.775413 288.430125 
L 126.818099 288.430125 
L 126.818099 263.412577 
L 125.775413 263.412577 
z
" style="fill:#1f77b4;"/>
   </g>
   <g id="patch_50">
    <path clip-path="url(#p4a0482df69)" d="M 127.078771 288.430125 
L 128.121457 288.430125 
L 128.121457 263.313222 
L 127.078771 263.313222 
z
" style="fill:#1f77b4;"/>
   </g>
   <g id="patch_51">
    <path clip-path="url(#p4a0482df69)" d="M 128.382129 288.430125 
L 129.424815 288.430125 
L 129.424815 263.243673 
L 128.382129 263.243673 
z
" style="fill:#1f77b4;"/>
   </g>
   <g id="patch_52">
    <path clip-path="url(#p4a0482df69)" d="M 129.685486 288.430125 
L 130.728172 288.430125 
L 130.728172 263.233738 
L 129.685486 263.233738 
z
" style="fill:#1f77b4;"/>
   </g>
   <g id="patch_53">
    <path clip-path="url(#p4a0482df69)" d="M 130.988844 288.430125 
L 132.03153 288.430125 
L 132.03153 263.18406 
L 130.988844 263.18406 
z
" style="fill:#1f77b4;"/>
   </g>
   <g id="patch_54">
    <path clip-path="url(#p4a0482df69)" d="M 132.292202 288.430125 
L 133.334888 288.430125 
L 133.334888 263.174125 
L 132.292202 263.174125 
z
" style="fill:#1f77b4;"/>
   </g>
   <g id="patch_55">
    <path clip-path="url(#p4a0482df69)" d="M 133.595559 288.430125 
L 134.638245 288.430125 
L 134.638245 263.16419 
L 133.595559 263.16419 
z
" style="fill:#1f77b4;"/>
   </g>
   <g id="patch_56">
    <path clip-path="url(#p4a0482df69)" d="M 134.898917 288.430125 
L 135.941603 288.430125 
L 135.941603 263.07477 
L 134.898917 263.07477 
z
" style="fill:#1f77b4;"/>
   </g>
   <g id="patch_57">
    <path clip-path="url(#p4a0482df69)" d="M 136.202275 288.430125 
L 137.244961 288.430125 
L 137.244961 263.015157 
L 136.202275 263.015157 
z
" style="fill:#1f77b4;"/>
   </g>
   <g id="patch_58">
    <path clip-path="url(#p4a0482df69)" d="M 137.505632 288.430125 
L 138.548318 288.430125 
L 138.548318 262.925738 
L 137.505632 262.925738 
z
" style="fill:#1f77b4;"/>
   </g>
   <g id="patch_59">
    <path clip-path="url(#p4a0482df69)" d="M 138.80899 288.430125 
L 139.851676 288.430125 
L 139.851676 262.905867 
L 138.80899 262.905867 
z
" style="fill:#1f77b4;"/>
   </g>
   <g id="patch_60">
    <path clip-path="url(#p4a0482df69)" d="M 140.112348 288.430125 
L 141.155034 288.430125 
L 141.155034 262.87606 
L 140.112348 262.87606 
z
" style="fill:#1f77b4;"/>
   </g>
   <g id="patch_61">
    <path clip-path="url(#p4a0482df69)" d="M 141.415705 288.430125 
L 142.458391 288.430125 
L 142.458391 262.87606 
L 141.415705 262.87606 
z
" style="fill:#1f77b4;"/>
   </g>
   <g id="patch_62">
    <path clip-path="url(#p4a0482df69)" d="M 142.719063 288.430125 
L 143.761749 288.430125 
L 143.761749 262.846254 
L 142.719063 262.846254 
z
" style="fill:#1f77b4;"/>
   </g>
   <g id="patch_63">
    <path clip-path="url(#p4a0482df69)" d="M 144.022421 288.430125 
L 145.065107 288.430125 
L 145.065107 262.816448 
L 144.022421 262.816448 
z
" style="fill:#1f77b4;"/>
   </g>
   <g id="patch_64">
    <path clip-path="url(#p4a0482df69)" d="M 145.325778 288.430125 
L 146.368464 288.430125 
L 146.368464 262.816448 
L 145.325778 262.816448 
z
" style="fill:#1f77b4;"/>
   </g>
   <g id="patch_65">
    <path clip-path="url(#p4a0482df69)" d="M 146.629136 288.430125 
L 147.671822 288.430125 
L 147.671822 262.816448 
L 146.629136 262.816448 
z
" style="fill:#1f77b4;"/>
   </g>
   <g id="patch_66">
    <path clip-path="url(#p4a0482df69)" d="M 147.932494 288.430125 
L 148.97518 288.430125 
L 148.97518 262.796577 
L 147.932494 262.796577 
z
" style="fill:#1f77b4;"/>
   </g>
   <g id="patch_67">
    <path clip-path="url(#p4a0482df69)" d="M 149.235851 288.430125 
L 150.278537 288.430125 
L 150.278537 262.776706 
L 149.235851 262.776706 
z
" style="fill:#1f77b4;"/>
   </g>
   <g id="patch_68">
    <path clip-path="url(#p4a0482df69)" d="M 150.539209 288.430125 
L 151.581895 288.430125 
L 151.581895 262.727028 
L 150.539209 262.727028 
z
" style="fill:#1f77b4;"/>
   </g>
   <g id="patch_69">
    <path clip-path="url(#p4a0482df69)" d="M 151.842567 288.430125 
L 152.885253 288.430125 
L 152.885253 262.727028 
L 151.842567 262.727028 
z
" style="fill:#1f77b4;"/>
   </g>
   <g id="patch_70">
    <path clip-path="url(#p4a0482df69)" d="M 153.145924 288.430125 
L 154.18861 288.430125 
L 154.18861 262.727028 
L 153.145924 262.727028 
z
" style="fill:#1f77b4;"/>
   </g>
   <g id="patch_71">
    <path clip-path="url(#p4a0482df69)" d="M 154.449282 288.430125 
L 155.491968 288.430125 
L 155.491968 262.697222 
L 154.449282 262.697222 
z
" style="fill:#1f77b4;"/>
   </g>
   <g id="patch_72">
    <path clip-path="url(#p4a0482df69)" d="M 155.75264 288.430125 
L 156.795326 288.430125 
L 156.795326 262.697222 
L 155.75264 262.697222 
z
" style="fill:#1f77b4;"/>
   </g>
   <g id="patch_73">
    <path clip-path="url(#p4a0482df69)" d="M 157.055997 288.430125 
L 158.098683 288.430125 
L 158.098683 262.677351 
L 157.055997 262.677351 
z
" style="fill:#1f77b4;"/>
   </g>
   <g id="patch_74">
    <path clip-path="url(#p4a0482df69)" d="M 158.359355 288.430125 
L 159.402041 288.430125 
L 159.402041 262.677351 
L 158.359355 262.677351 
z
" style="fill:#1f77b4;"/>
   </g>
   <g id="patch_75">
    <path clip-path="url(#p4a0482df69)" d="M 159.662713 288.430125 
L 160.705399 288.430125 
L 160.705399 262.667415 
L 159.662713 262.667415 
z
" style="fill:#1f77b4;"/>
   </g>
   <g id="patch_76">
    <path clip-path="url(#p4a0482df69)" d="M 160.96607 288.430125 
L 162.008756 288.430125 
L 162.008756 262.667415 
L 160.96607 262.667415 
z
" style="fill:#1f77b4;"/>
   </g>
   <g id="patch_77">
    <path clip-path="url(#p4a0482df69)" d="M 162.269428 288.430125 
L 163.312114 288.430125 
L 163.312114 262.647544 
L 162.269428 262.647544 
z
" style="fill:#1f77b4;"/>
   </g>
   <g id="patch_78">
    <path clip-path="url(#p4a0482df69)" d="M 163.572786 288.430125 
L 164.615472 288.430125 
L 164.615472 262.647544 
L 163.572786 262.647544 
z
" style="fill:#1f77b4;"/>
   </g>
   <g id="patch_79">
    <path clip-path="url(#p4a0482df69)" d="M 164.876143 288.430125 
L 165.918829 288.430125 
L 165.918829 262.637609 
L 164.876143 262.637609 
z
" style="fill:#1f77b4;"/>
   </g>
   <g id="patch_80">
    <path clip-path="url(#p4a0482df69)" d="M 166.179501 288.430125 
L 167.222187 288.430125 
L 167.222187 262.627673 
L 166.179501 262.627673 
z
" style="fill:#1f77b4;"/>
   </g>
   <g id="patch_81">
    <path clip-path="url(#p4a0482df69)" d="M 167.482859 288.430125 
L 168.525545 288.430125 
L 168.525545 262.627673 
L 167.482859 262.627673 
z
" style="fill:#1f77b4;"/>
   </g>
   <g id="patch_82">
    <path clip-path="url(#p4a0482df69)" d="M 168.786216 288.430125 
L 169.828902 288.430125 
L 169.828902 262.627673 
L 168.786216 262.627673 
z
" style="fill:#1f77b4;"/>
   </g>
   <g id="patch_83">
    <path clip-path="url(#p4a0482df69)" d="M 170.089574 288.430125 
L 171.13226 288.430125 
L 171.13226 262.627673 
L 170.089574 262.627673 
z
" style="fill:#1f77b4;"/>
   </g>
   <g id="patch_84">
    <path clip-path="url(#p4a0482df69)" d="M 171.392932 288.430125 
L 172.435618 288.430125 
L 172.435618 262.627673 
L 171.392932 262.627673 
z
" style="fill:#1f77b4;"/>
   </g>
   <g id="patch_85">
    <path clip-path="url(#p4a0482df69)" d="M 172.696289 288.430125 
L 173.738975 288.430125 
L 173.738975 262.617738 
L 172.696289 262.617738 
z
" style="fill:#1f77b4;"/>
   </g>
   <g id="patch_86">
    <path clip-path="url(#p4a0482df69)" d="M 173.999647 288.430125 
L 175.042333 288.430125 
L 175.042333 262.607802 
L 173.999647 262.607802 
z
" style="fill:#1f77b4;"/>
   </g>
   <g id="patch_87">
    <path clip-path="url(#p4a0482df69)" d="M 175.303005 288.430125 
L 176.345691 288.430125 
L 176.345691 262.577996 
L 175.303005 262.577996 
z
" style="fill:#1f77b4;"/>
   </g>
   <g id="patch_88">
    <path clip-path="url(#p4a0482df69)" d="M 176.606362 288.430125 
L 177.649048 288.430125 
L 177.649048 262.577996 
L 176.606362 262.577996 
z
" style="fill:#1f77b4;"/>
   </g>
   <g id="patch_89">
    <path clip-path="url(#p4a0482df69)" d="M 177.90972 288.430125 
L 178.952406 288.430125 
L 178.952406 262.577996 
L 177.90972 262.577996 
z
" style="fill:#1f77b4;"/>
   </g>
   <g id="patch_90">
    <path clip-path="url(#p4a0482df69)" d="M 179.213078 288.430125 
L 180.255764 288.430125 
L 180.255764 262.577996 
L 179.213078 262.577996 
z
" style="fill:#1f77b4;"/>
   </g>
   <g id="patch_91">
    <path clip-path="url(#p4a0482df69)" d="M 180.516435 288.430125 
L 181.559121 288.430125 
L 181.559121 262.538254 
L 180.516435 262.538254 
z
" style="fill:#1f77b4;"/>
   </g>
   <g id="patch_92">
    <path clip-path="url(#p4a0482df69)" d="M 181.819793 288.430125 
L 182.862479 288.430125 
L 182.862479 262.518383 
L 181.819793 262.518383 
z
" style="fill:#1f77b4;"/>
   </g>
   <g id="patch_93">
    <path clip-path="url(#p4a0482df69)" d="M 183.123151 288.430125 
L 184.165837 288.430125 
L 184.165837 262.498512 
L 183.123151 262.498512 
z
" style="fill:#1f77b4;"/>
   </g>
   <g id="patch_94">
    <path clip-path="url(#p4a0482df69)" d="M 184.426508 288.430125 
L 185.469194 288.430125 
L 185.469194 262.488577 
L 184.426508 262.488577 
z
" style="fill:#1f77b4;"/>
   </g>
   <g id="patch_95">
    <path clip-path="url(#p4a0482df69)" d="M 185.729866 288.430125 
L 186.772552 288.430125 
L 186.772552 262.488577 
L 185.729866 262.488577 
z
" style="fill:#1f77b4;"/>
   </g>
   <g id="patch_96">
    <path clip-path="url(#p4a0482df69)" d="M 187.033224 288.430125 
L 188.07591 288.430125 
L 188.07591 262.488577 
L 187.033224 262.488577 
z
" style="fill:#1f77b4;"/>
   </g>
   <g id="patch_97">
    <path clip-path="url(#p4a0482df69)" d="M 188.336581 288.430125 
L 189.379267 288.430125 
L 189.379267 262.488577 
L 188.336581 262.488577 
z
" style="fill:#1f77b4;"/>
   </g>
   <g id="patch_98">
    <path clip-path="url(#p4a0482df69)" d="M 189.639939 288.430125 
L 190.682625 288.430125 
L 190.682625 262.468706 
L 189.639939 262.468706 
z
" style="fill:#1f77b4;"/>
   </g>
   <g id="patch_99">
    <path clip-path="url(#p4a0482df69)" d="M 190.943297 288.430125 
L 191.985983 288.430125 
L 191.985983 262.448835 
L 190.943297 262.448835 
z
" style="fill:#1f77b4;"/>
   </g>
   <g id="patch_100">
    <path clip-path="url(#p4a0482df69)" d="M 192.246654 288.430125 
L 193.28934 288.430125 
L 193.28934 262.419028 
L 192.246654 262.419028 
z
" style="fill:#1f77b4;"/>
   </g>
   <g id="patch_101">
    <path clip-path="url(#p4a0482df69)" d="M 193.550012 288.430125 
L 194.592698 288.430125 
L 194.592698 262.379286 
L 193.550012 262.379286 
z
" style="fill:#1f77b4;"/>
   </g>
   <g id="patch_102">
    <path clip-path="url(#p4a0482df69)" d="M 194.85337 288.430125 
L 195.896056 288.430125 
L 195.896056 262.269996 
L 194.85337 262.269996 
z
" style="fill:#1f77b4;"/>
   </g>
   <g id="patch_103">
    <path clip-path="url(#p4a0482df69)" d="M 196.156727 288.430125 
L 197.199413 288.430125 
L 197.199413 262.269996 
L 196.156727 262.269996 
z
" style="fill:#1f77b4;"/>
   </g>
   <g id="patch_104">
    <path clip-path="url(#p4a0482df69)" d="M 197.460085 288.430125 
L 198.502771 288.430125 
L 198.502771 262.26006 
L 197.460085 262.26006 
z
" style="fill:#1f77b4;"/>
   </g>
   <g id="patch_105">
    <path clip-path="url(#p4a0482df69)" d="M 198.763443 288.430125 
L 199.806129 288.430125 
L 199.806129 262.26006 
L 198.763443 262.26006 
z
" style="fill:#1f77b4;"/>
   </g>
   <g id="patch_106">
    <path clip-path="url(#p4a0482df69)" d="M 200.0668 288.430125 
L 201.109486 288.430125 
L 201.109486 262.26006 
L 200.0668 262.26006 
z
" style="fill:#1f77b4;"/>
   </g>
   <g id="patch_107">
    <path clip-path="url(#p4a0482df69)" d="M 201.370158 288.430125 
L 202.412844 288.430125 
L 202.412844 262.24019 
L 201.370158 262.24019 
z
" style="fill:#1f77b4;"/>
   </g>
   <g id="patch_108">
    <path clip-path="url(#p4a0482df69)" d="M 202.673516 288.430125 
L 203.716202 288.430125 
L 203.716202 262.230254 
L 202.673516 262.230254 
z
" style="fill:#1f77b4;"/>
   </g>
   <g id="patch_109">
    <path clip-path="url(#p4a0482df69)" d="M 203.976873 288.430125 
L 205.019559 288.430125 
L 205.019559 262.210383 
L 203.976873 262.210383 
z
" style="fill:#1f77b4;"/>
   </g>
   <g id="patch_110">
    <path clip-path="url(#p4a0482df69)" d="M 205.280231 288.430125 
L 206.322917 288.430125 
L 206.322917 262.210383 
L 205.280231 262.210383 
z
" style="fill:#1f77b4;"/>
   </g>
   <g id="patch_111">
    <path clip-path="url(#p4a0482df69)" d="M 206.583589 288.430125 
L 207.626275 288.430125 
L 207.626275 262.190512 
L 206.583589 262.190512 
z
" style="fill:#1f77b4;"/>
   </g>
   <g id="patch_112">
    <path clip-path="url(#p4a0482df69)" d="M 207.886946 288.430125 
L 208.929632 288.430125 
L 208.929632 262.180577 
L 207.886946 262.180577 
z
" style="fill:#1f77b4;"/>
   </g>
   <g id="patch_113">
    <path clip-path="url(#p4a0482df69)" d="M 209.190304 288.430125 
L 210.23299 288.430125 
L 210.23299 262.180577 
L 209.190304 262.180577 
z
" style="fill:#1f77b4;"/>
   </g>
   <g id="patch_114">
    <path clip-path="url(#p4a0482df69)" d="M 210.493661 288.430125 
L 211.536348 288.430125 
L 211.536348 262.140835 
L 210.493661 262.140835 
z
" style="fill:#1f77b4;"/>
   </g>
   <g id="patch_115">
    <path clip-path="url(#p4a0482df69)" d="M 211.797019 288.430125 
L 212.839705 288.430125 
L 212.839705 262.130899 
L 211.797019 262.130899 
z
" style="fill:#1f77b4;"/>
   </g>
   <g id="patch_116">
    <path clip-path="url(#p4a0482df69)" d="M 213.100377 288.430125 
L 214.143063 288.430125 
L 214.143063 262.130899 
L 213.100377 262.130899 
z
" style="fill:#1f77b4;"/>
   </g>
   <g id="patch_117">
    <path clip-path="url(#p4a0482df69)" d="M 214.403734 288.430125 
L 215.446421 288.430125 
L 215.446421 262.120964 
L 214.403734 262.120964 
z
" style="fill:#1f77b4;"/>
   </g>
   <g id="patch_118">
    <path clip-path="url(#p4a0482df69)" d="M 215.707092 288.430125 
L 216.749778 288.430125 
L 216.749778 262.101093 
L 215.707092 262.101093 
z
" style="fill:#1f77b4;"/>
   </g>
   <g id="patch_119">
    <path clip-path="url(#p4a0482df69)" d="M 217.01045 288.430125 
L 218.053136 288.430125 
L 218.053136 262.071286 
L 217.01045 262.071286 
z
" style="fill:#1f77b4;"/>
   </g>
   <g id="patch_120">
    <path clip-path="url(#p4a0482df69)" d="M 218.313807 288.430125 
L 219.356494 288.430125 
L 219.356494 262.021609 
L 218.313807 262.021609 
z
" style="fill:#1f77b4;"/>
   </g>
   <g id="patch_121">
    <path clip-path="url(#p4a0482df69)" d="M 219.617165 288.430125 
L 220.659851 288.430125 
L 220.659851 261.991802 
L 219.617165 261.991802 
z
" style="fill:#1f77b4;"/>
   </g>
   <g id="patch_122">
    <path clip-path="url(#p4a0482df69)" d="M 220.920523 288.430125 
L 221.963209 288.430125 
L 221.963209 261.942125 
L 220.920523 261.942125 
z
" style="fill:#1f77b4;"/>
   </g>
   <g id="patch_123">
    <path clip-path="url(#p4a0482df69)" d="M 222.22388 288.430125 
L 223.266567 288.430125 
L 223.266567 261.872577 
L 222.22388 261.872577 
z
" style="fill:#1f77b4;"/>
   </g>
   <g id="patch_124">
    <path clip-path="url(#p4a0482df69)" d="M 223.527238 288.430125 
L 224.569924 288.430125 
L 224.569924 261.862641 
L 223.527238 261.862641 
z
" style="fill:#1f77b4;"/>
   </g>
   <g id="patch_125">
    <path clip-path="url(#p4a0482df69)" d="M 224.830596 288.430125 
L 225.873282 288.430125 
L 225.873282 261.832835 
L 224.830596 261.832835 
z
" style="fill:#1f77b4;"/>
   </g>
   <g id="patch_126">
    <path clip-path="url(#p4a0482df69)" d="M 226.133953 288.430125 
L 227.17664 288.430125 
L 227.17664 261.822899 
L 226.133953 261.822899 
z
" style="fill:#1f77b4;"/>
   </g>
   <g id="patch_127">
    <path clip-path="url(#p4a0482df69)" d="M 227.437311 288.430125 
L 228.479997 288.430125 
L 228.479997 261.783157 
L 227.437311 261.783157 
z
" style="fill:#1f77b4;"/>
   </g>
   <g id="patch_128">
    <path clip-path="url(#p4a0482df69)" d="M 228.740669 288.430125 
L 229.783355 288.430125 
L 229.783355 261.773222 
L 228.740669 261.773222 
z
" style="fill:#1f77b4;"/>
   </g>
   <g id="patch_129">
    <path clip-path="url(#p4a0482df69)" d="M 230.044026 288.430125 
L 231.086713 288.430125 
L 231.086713 261.763286 
L 230.044026 261.763286 
z
" style="fill:#1f77b4;"/>
   </g>
   <g id="patch_130">
    <path clip-path="url(#p4a0482df69)" d="M 231.347384 288.430125 
L 232.39007 288.430125 
L 232.39007 261.763286 
L 231.347384 261.763286 
z
" style="fill:#1f77b4;"/>
   </g>
   <g id="patch_131">
    <path clip-path="url(#p4a0482df69)" d="M 232.650742 288.430125 
L 233.693428 288.430125 
L 233.693428 261.753351 
L 232.650742 261.753351 
z
" style="fill:#1f77b4;"/>
   </g>
   <g id="patch_132">
    <path clip-path="url(#p4a0482df69)" d="M 233.954099 288.430125 
L 234.996786 288.430125 
L 234.996786 261.753351 
L 233.954099 261.753351 
z
" style="fill:#1f77b4;"/>
   </g>
   <g id="patch_133">
    <path clip-path="url(#p4a0482df69)" d="M 235.257457 288.430125 
L 236.300143 288.430125 
L 236.300143 261.743415 
L 235.257457 261.743415 
z
" style="fill:#1f77b4;"/>
   </g>
   <g id="patch_134">
    <path clip-path="url(#p4a0482df69)" d="M 236.560815 288.430125 
L 237.603501 288.430125 
L 237.603501 261.73348 
L 236.560815 261.73348 
z
" style="fill:#1f77b4;"/>
   </g>
   <g id="patch_135">
    <path clip-path="url(#p4a0482df69)" d="M 237.864172 288.430125 
L 238.906859 288.430125 
L 238.906859 261.673867 
L 237.864172 261.673867 
z
" style="fill:#1f77b4;"/>
   </g>
   <g id="patch_136">
    <path clip-path="url(#p4a0482df69)" d="M 239.16753 288.430125 
L 240.210216 288.430125 
L 240.210216 261.62419 
L 239.16753 261.62419 
z
" style="fill:#1f77b4;"/>
   </g>
   <g id="patch_137">
    <path clip-path="url(#p4a0482df69)" d="M 240.470888 288.430125 
L 241.513574 288.430125 
L 241.513574 261.604319 
L 240.470888 261.604319 
z
" style="fill:#1f77b4;"/>
   </g>
   <g id="patch_138">
    <path clip-path="url(#p4a0482df69)" d="M 241.774245 288.430125 
L 242.816932 288.430125 
L 242.816932 261.683802 
L 241.774245 261.683802 
z
" style="fill:#1f77b4;"/>
   </g>
   <g id="patch_139">
    <path clip-path="url(#p4a0482df69)" d="M 243.077603 288.430125 
L 244.120289 288.430125 
L 244.120289 261.64406 
L 243.077603 261.64406 
z
" style="fill:#1f77b4;"/>
   </g>
   <g id="patch_140">
    <path clip-path="url(#p4a0482df69)" d="M 244.380961 288.430125 
L 245.423647 288.430125 
L 245.423647 261.584448 
L 244.380961 261.584448 
z
" style="fill:#1f77b4;"/>
   </g>
   <g id="patch_141">
    <path clip-path="url(#p4a0482df69)" d="M 245.684318 288.430125 
L 246.727005 288.430125 
L 246.727005 261.435415 
L 245.684318 261.435415 
z
" style="fill:#1f77b4;"/>
   </g>
   <g id="patch_142">
    <path clip-path="url(#p4a0482df69)" d="M 246.987676 288.430125 
L 248.030362 288.430125 
L 248.030362 261.355931 
L 246.987676 261.355931 
z
" style="fill:#1f77b4;"/>
   </g>
   <g id="patch_143">
    <path clip-path="url(#p4a0482df69)" d="M 248.291034 288.430125 
L 249.33372 288.430125 
L 249.33372 261.326125 
L 248.291034 261.326125 
z
" style="fill:#1f77b4;"/>
   </g>
   <g id="patch_144">
    <path clip-path="url(#p4a0482df69)" d="M 249.594391 288.430125 
L 250.637078 288.430125 
L 250.637078 261.266512 
L 249.594391 261.266512 
z
" style="fill:#1f77b4;"/>
   </g>
   <g id="patch_145">
    <path clip-path="url(#p4a0482df69)" d="M 250.897749 288.430125 
L 251.940435 288.430125 
L 251.940435 261.196964 
L 250.897749 261.196964 
z
" style="fill:#1f77b4;"/>
   </g>
   <g id="patch_146">
    <path clip-path="url(#p4a0482df69)" d="M 252.201107 288.430125 
L 253.243793 288.430125 
L 253.243793 261.157222 
L 252.201107 261.157222 
z
" style="fill:#1f77b4;"/>
   </g>
   <g id="patch_147">
    <path clip-path="url(#p4a0482df69)" d="M 253.504464 288.430125 
L 254.547151 288.430125 
L 254.547151 261.037996 
L 253.504464 261.037996 
z
" style="fill:#1f77b4;"/>
   </g>
   <g id="patch_148">
    <path clip-path="url(#p4a0482df69)" d="M 254.807822 288.430125 
L 255.850508 288.430125 
L 255.850508 260.998254 
L 254.807822 260.998254 
z
" style="fill:#1f77b4;"/>
   </g>
   <g id="patch_149">
    <path clip-path="url(#p4a0482df69)" d="M 256.11118 288.430125 
L 257.153866 288.430125 
L 257.153866 260.948577 
L 256.11118 260.948577 
z
" style="fill:#1f77b4;"/>
   </g>
   <g id="patch_150">
    <path clip-path="url(#p4a0482df69)" d="M 257.414537 288.430125 
L 258.457224 288.430125 
L 258.457224 260.879028 
L 257.414537 260.879028 
z
" style="fill:#1f77b4;"/>
   </g>
   <g id="patch_151">
    <path clip-path="url(#p4a0482df69)" d="M 258.717895 288.430125 
L 259.760581 288.430125 
L 259.760581 260.869093 
L 258.717895 260.869093 
z
" style="fill:#1f77b4;"/>
   </g>
   <g id="patch_152">
    <path clip-path="url(#p4a0482df69)" d="M 260.021253 288.430125 
L 261.063939 288.430125 
L 261.063939 260.859157 
L 260.021253 260.859157 
z
" style="fill:#1f77b4;"/>
   </g>
   <g id="patch_153">
    <path clip-path="url(#p4a0482df69)" d="M 261.32461 288.430125 
L 262.367297 288.430125 
L 262.367297 260.819415 
L 261.32461 260.819415 
z
" style="fill:#1f77b4;"/>
   </g>
   <g id="patch_154">
    <path clip-path="url(#p4a0482df69)" d="M 262.627968 288.430125 
L 263.670654 288.430125 
L 263.670654 260.799544 
L 262.627968 260.799544 
z
" style="fill:#1f77b4;"/>
   </g>
   <g id="patch_155">
    <path clip-path="url(#p4a0482df69)" d="M 263.931326 288.430125 
L 264.974012 288.430125 
L 264.974012 260.769738 
L 263.931326 260.769738 
z
" style="fill:#1f77b4;"/>
   </g>
   <g id="patch_156">
    <path clip-path="url(#p4a0482df69)" d="M 265.234683 288.430125 
L 266.27737 288.430125 
L 266.27737 260.680319 
L 265.234683 260.680319 
z
" style="fill:#1f77b4;"/>
   </g>
   <g id="patch_157">
    <path clip-path="url(#p4a0482df69)" d="M 266.538041 288.430125 
L 267.580727 288.430125 
L 267.580727 260.590899 
L 266.538041 260.590899 
z
" style="fill:#1f77b4;"/>
   </g>
   <g id="patch_158">
    <path clip-path="url(#p4a0482df69)" d="M 267.841399 288.430125 
L 268.884085 288.430125 
L 268.884085 260.571028 
L 267.841399 260.571028 
z
" style="fill:#1f77b4;"/>
   </g>
   <g id="patch_159">
    <path clip-path="url(#p4a0482df69)" d="M 269.144756 288.430125 
L 270.187443 288.430125 
L 270.187443 260.571028 
L 269.144756 260.571028 
z
" style="fill:#1f77b4;"/>
   </g>
   <g id="patch_160">
    <path clip-path="url(#p4a0482df69)" d="M 270.448114 288.430125 
L 271.4908 288.430125 
L 271.4908 260.50148 
L 270.448114 260.50148 
z
" style="fill:#1f77b4;"/>
   </g>
   <g id="patch_161">
    <path clip-path="url(#p4a0482df69)" d="M 271.751472 288.430125 
L 272.794158 288.430125 
L 272.794158 260.292835 
L 271.751472 260.292835 
z
" style="fill:#1f77b4;"/>
   </g>
   <g id="patch_162">
    <path clip-path="url(#p4a0482df69)" d="M 273.054829 288.430125 
L 274.097516 288.430125 
L 274.097516 260.243157 
L 273.054829 260.243157 
z
" style="fill:#1f77b4;"/>
   </g>
   <g id="patch_163">
    <path clip-path="url(#p4a0482df69)" d="M 274.358187 288.430125 
L 275.400873 288.430125 
L 275.400873 260.08419 
L 274.358187 260.08419 
z
" style="fill:#1f77b4;"/>
   </g>
   <g id="patch_164">
    <path clip-path="url(#p4a0482df69)" d="M 275.661545 288.430125 
L 276.704231 288.430125 
L 276.704231 259.925222 
L 275.661545 259.925222 
z
" style="fill:#1f77b4;"/>
   </g>
   <g id="patch_165">
    <path clip-path="url(#p4a0482df69)" d="M 276.964902 288.430125 
L 278.007589 288.430125 
L 278.007589 259.77619 
L 276.964902 259.77619 
z
" style="fill:#1f77b4;"/>
   </g>
   <g id="patch_166">
    <path clip-path="url(#p4a0482df69)" d="M 278.26826 288.430125 
L 279.310946 288.430125 
L 279.310946 259.68677 
L 278.26826 259.68677 
z
" style="fill:#1f77b4;"/>
   </g>
   <g id="patch_167">
    <path clip-path="url(#p4a0482df69)" d="M 279.571618 288.430125 
L 280.614304 288.430125 
L 280.614304 259.637093 
L 279.571618 259.637093 
z
" style="fill:#1f77b4;"/>
   </g>
   <g id="patch_168">
    <path clip-path="url(#p4a0482df69)" d="M 280.874975 288.430125 
L 281.917661 288.430125 
L 281.917661 259.547673 
L 280.874975 259.547673 
z
" style="fill:#1f77b4;"/>
   </g>
   <g id="patch_169">
    <path clip-path="url(#p4a0482df69)" d="M 282.178333 288.430125 
L 283.221019 288.430125 
L 283.221019 259.46819 
L 282.178333 259.46819 
z
" style="fill:#1f77b4;"/>
   </g>
   <g id="patch_170">
    <path clip-path="url(#p4a0482df69)" d="M 283.481691 288.430125 
L 284.524377 288.430125 
L 284.524377 259.37877 
L 283.481691 259.37877 
z
" style="fill:#1f77b4;"/>
   </g>
   <g id="patch_171">
    <path clip-path="url(#p4a0482df69)" d="M 284.785048 288.430125 
L 285.827734 288.430125 
L 285.827734 259.299286 
L 284.785048 259.299286 
z
" style="fill:#1f77b4;"/>
   </g>
   <g id="patch_172">
    <path clip-path="url(#p4a0482df69)" d="M 286.088406 288.430125 
L 287.131092 288.430125 
L 287.131092 259.26948 
L 286.088406 259.26948 
z
" style="fill:#1f77b4;"/>
   </g>
   <g id="patch_173">
    <path clip-path="url(#p4a0482df69)" d="M 287.391764 288.430125 
L 288.43445 288.430125 
L 288.43445 259.140319 
L 287.391764 259.140319 
z
" style="fill:#1f77b4;"/>
   </g>
   <g id="patch_174">
    <path clip-path="url(#p4a0482df69)" d="M 288.695121 288.430125 
L 289.737807 288.430125 
L 289.737807 259.040964 
L 288.695121 259.040964 
z
" style="fill:#1f77b4;"/>
   </g>
   <g id="patch_175">
    <path clip-path="url(#p4a0482df69)" d="M 289.998479 288.430125 
L 291.041165 288.430125 
L 291.041165 259.001222 
L 289.998479 259.001222 
z
" style="fill:#1f77b4;"/>
   </g>
   <g id="patch_176">
    <path clip-path="url(#p4a0482df69)" d="M 291.301837 288.430125 
L 292.344523 288.430125 
L 292.344523 258.891931 
L 291.301837 258.891931 
z
" style="fill:#1f77b4;"/>
   </g>
   <g id="patch_177">
    <path clip-path="url(#p4a0482df69)" d="M 292.605194 288.430125 
L 293.64788 288.430125 
L 293.64788 258.663415 
L 292.605194 258.663415 
z
" style="fill:#1f77b4;"/>
   </g>
   <g id="patch_178">
    <path clip-path="url(#p4a0482df69)" d="M 293.908552 288.430125 
L 294.951238 288.430125 
L 294.951238 258.593867 
L 293.908552 258.593867 
z
" style="fill:#1f77b4;"/>
   </g>
   <g id="patch_179">
    <path clip-path="url(#p4a0482df69)" d="M 295.21191 288.430125 
L 296.254596 288.430125 
L 296.254596 258.593867 
L 295.21191 258.593867 
z
" style="fill:#1f77b4;"/>
   </g>
   <g id="patch_180">
    <path clip-path="url(#p4a0482df69)" d="M 296.515267 288.430125 
L 297.557953 288.430125 
L 297.557953 258.554125 
L 296.515267 258.554125 
z
" style="fill:#1f77b4;"/>
   </g>
   <g id="patch_181">
    <path clip-path="url(#p4a0482df69)" d="M 297.818625 288.430125 
L 298.861311 288.430125 
L 298.861311 258.45477 
L 297.818625 258.45477 
z
" style="fill:#1f77b4;"/>
   </g>
   <g id="patch_182">
    <path clip-path="url(#p4a0482df69)" d="M 299.121983 288.430125 
L 300.164669 288.430125 
L 300.164669 258.25606 
L 299.121983 258.25606 
z
" style="fill:#1f77b4;"/>
   </g>
   <g id="patch_183">
    <path clip-path="url(#p4a0482df69)" d="M 300.42534 288.430125 
L 301.468026 288.430125 
L 301.468026 257.997738 
L 300.42534 257.997738 
z
" style="fill:#1f77b4;"/>
   </g>
   <g id="patch_184">
    <path clip-path="url(#p4a0482df69)" d="M 301.728698 288.430125 
L 302.771384 288.430125 
L 302.771384 257.749351 
L 301.728698 257.749351 
z
" style="fill:#1f77b4;"/>
   </g>
   <g id="patch_185">
    <path clip-path="url(#p4a0482df69)" d="M 303.032056 288.430125 
L 304.074742 288.430125 
L 304.074742 257.351931 
L 303.032056 257.351931 
z
" style="fill:#1f77b4;"/>
   </g>
   <g id="patch_186">
    <path clip-path="url(#p4a0482df69)" d="M 304.335413 288.430125 
L 305.378099 288.430125 
L 305.378099 257.282383 
L 304.335413 257.282383 
z
" style="fill:#1f77b4;"/>
   </g>
   <g id="patch_187">
    <path clip-path="url(#p4a0482df69)" d="M 305.638771 288.430125 
L 306.681457 288.430125 
L 306.681457 257.073738 
L 305.638771 257.073738 
z
" style="fill:#1f77b4;"/>
   </g>
   <g id="patch_188">
    <path clip-path="url(#p4a0482df69)" d="M 306.942129 288.430125 
L 307.984815 288.430125 
L 307.984815 256.954512 
L 306.942129 256.954512 
z
" style="fill:#1f77b4;"/>
   </g>
   <g id="patch_189">
    <path clip-path="url(#p4a0482df69)" d="M 308.245486 288.430125 
L 309.288172 288.430125 
L 309.288172 256.80548 
L 308.245486 256.80548 
z
" style="fill:#1f77b4;"/>
   </g>
   <g id="patch_190">
    <path clip-path="url(#p4a0482df69)" d="M 309.548844 288.430125 
L 310.59153 288.430125 
L 310.59153 256.090125 
L 309.548844 256.090125 
z
" style="fill:#1f77b4;"/>
   </g>
   <g id="patch_191">
    <path clip-path="url(#p4a0482df69)" d="M 310.852202 288.430125 
L 311.894888 288.430125 
L 311.894888 255.831802 
L 310.852202 255.831802 
z
" style="fill:#1f77b4;"/>
   </g>
   <g id="patch_192">
    <path clip-path="url(#p4a0482df69)" d="M 312.155559 288.430125 
L 313.198245 288.430125 
L 313.198245 255.633093 
L 312.155559 255.633093 
z
" style="fill:#1f77b4;"/>
   </g>
   <g id="patch_193">
    <path clip-path="url(#p4a0482df69)" d="M 313.458917 288.430125 
L 314.501603 288.430125 
L 314.501603 255.434383 
L 313.458917 255.434383 
z
" style="fill:#1f77b4;"/>
   </g>
   <g id="patch_194">
    <path clip-path="url(#p4a0482df69)" d="M 314.762275 288.430125 
L 315.804961 288.430125 
L 315.804961 255.354899 
L 314.762275 255.354899 
z
" style="fill:#1f77b4;"/>
   </g>
   <g id="patch_195">
    <path clip-path="url(#p4a0482df69)" d="M 316.065632 288.430125 
L 317.108318 288.430125 
L 317.108318 255.056835 
L 316.065632 255.056835 
z
" style="fill:#1f77b4;"/>
   </g>
   <g id="patch_196">
    <path clip-path="url(#p4a0482df69)" d="M 317.36899 288.430125 
L 318.411676 288.430125 
L 318.411676 254.788577 
L 317.36899 254.788577 
z
" style="fill:#1f77b4;"/>
   </g>
   <g id="patch_197">
    <path clip-path="url(#p4a0482df69)" d="M 318.672348 288.430125 
L 319.715034 288.430125 
L 319.715034 254.271931 
L 318.672348 254.271931 
z
" style="fill:#1f77b4;"/>
   </g>
   <g id="patch_198">
    <path clip-path="url(#p4a0482df69)" d="M 319.975705 288.430125 
L 321.018391 288.430125 
L 321.018391 253.983802 
L 319.975705 253.983802 
z
" style="fill:#1f77b4;"/>
   </g>
   <g id="patch_199">
    <path clip-path="url(#p4a0482df69)" d="M 321.279063 288.430125 
L 322.321749 288.430125 
L 322.321749 253.765222 
L 321.279063 253.765222 
z
" style="fill:#1f77b4;"/>
   </g>
   <g id="patch_200">
    <path clip-path="url(#p4a0482df69)" d="M 322.582421 288.430125 
L 323.625107 288.430125 
L 323.625107 253.516835 
L 322.582421 253.516835 
z
" style="fill:#1f77b4;"/>
   </g>
   <g id="patch_201">
    <path clip-path="url(#p4a0482df69)" d="M 323.885778 288.430125 
L 324.928464 288.430125 
L 324.928464 253.437351 
L 323.885778 253.437351 
z
" style="fill:#1f77b4;"/>
   </g>
   <g id="patch_202">
    <path clip-path="url(#p4a0482df69)" d="M 325.189136 288.430125 
L 326.231822 288.430125 
L 326.231822 253.268448 
L 325.189136 253.268448 
z
" style="fill:#1f77b4;"/>
   </g>
   <g id="patch_203">
    <path clip-path="url(#p4a0482df69)" d="M 326.492494 288.430125 
L 327.53518 288.430125 
L 327.53518 252.980319 
L 326.492494 252.980319 
z
" style="fill:#1f77b4;"/>
   </g>
   <g id="patch_204">
    <path clip-path="url(#p4a0482df69)" d="M 327.795851 288.430125 
L 328.838537 288.430125 
L 328.838537 252.791544 
L 327.795851 252.791544 
z
" style="fill:#1f77b4;"/>
   </g>
   <g id="patch_205">
    <path clip-path="url(#p4a0482df69)" d="M 329.099209 288.430125 
L 330.141895 288.430125 
L 330.141895 252.533222 
L 329.099209 252.533222 
z
" style="fill:#1f77b4;"/>
   </g>
   <g id="patch_206">
    <path clip-path="url(#p4a0482df69)" d="M 330.402567 288.430125 
L 331.445253 288.430125 
L 331.445253 252.215286 
L 330.402567 252.215286 
z
" style="fill:#1f77b4;"/>
   </g>
   <g id="patch_207">
    <path clip-path="url(#p4a0482df69)" d="M 331.705924 288.430125 
L 332.74861 288.430125 
L 332.74861 252.046383 
L 331.705924 252.046383 
z
" style="fill:#1f77b4;"/>
   </g>
   <g id="patch_208">
    <path clip-path="url(#p4a0482df69)" d="M 333.009282 288.430125 
L 334.051968 288.430125 
L 334.051968 251.87748 
L 333.009282 251.87748 
z
" style="fill:#1f77b4;"/>
   </g>
   <g id="patch_209">
    <path clip-path="url(#p4a0482df69)" d="M 334.31264 288.430125 
L 335.355326 288.430125 
L 335.355326 251.331028 
L 334.31264 251.331028 
z
" style="fill:#1f77b4;"/>
   </g>
   <g id="patch_210">
    <path clip-path="url(#p4a0482df69)" d="M 335.615997 288.430125 
L 336.658683 288.430125 
L 336.658683 250.64548 
L 335.615997 250.64548 
z
" style="fill:#1f77b4;"/>
   </g>
   <g id="patch_211">
    <path clip-path="url(#p4a0482df69)" d="M 336.919355 288.430125 
L 337.962041 288.430125 
L 337.962041 249.800964 
L 336.919355 249.800964 
z
" style="fill:#1f77b4;"/>
   </g>
   <g id="patch_212">
    <path clip-path="url(#p4a0482df69)" d="M 338.222713 288.430125 
L 339.265399 288.430125 
L 339.265399 248.886899 
L 338.222713 248.886899 
z
" style="fill:#1f77b4;"/>
   </g>
   <g id="patch_213">
    <path clip-path="url(#p4a0482df69)" d="M 339.52607 288.430125 
L 340.568756 288.430125 
L 340.568756 248.052319 
L 339.52607 248.052319 
z
" style="fill:#1f77b4;"/>
   </g>
   <g id="patch_214">
    <path clip-path="url(#p4a0482df69)" d="M 340.829428 288.430125 
L 341.872114 288.430125 
L 341.872114 247.605222 
L 340.829428 247.605222 
z
" style="fill:#1f77b4;"/>
   </g>
   <g id="patch_215">
    <path clip-path="url(#p4a0482df69)" d="M 342.132786 288.430125 
L 343.175472 288.430125 
L 343.175472 247.267415 
L 342.132786 247.267415 
z
" style="fill:#1f77b4;"/>
   </g>
   <g id="patch_216">
    <path clip-path="url(#p4a0482df69)" d="M 343.436143 288.430125 
L 344.478829 288.430125 
L 344.478829 246.035415 
L 343.436143 246.035415 
z
" style="fill:#1f77b4;"/>
   </g>
   <g id="patch_217">
    <path clip-path="url(#p4a0482df69)" d="M 344.739501 288.430125 
L 345.782187 288.430125 
L 345.782187 245.061738 
L 344.739501 245.061738 
z
" style="fill:#1f77b4;"/>
   </g>
   <g id="patch_218">
    <path clip-path="url(#p4a0482df69)" d="M 346.042859 288.430125 
L 347.085545 288.430125 
L 347.085545 243.789996 
L 346.042859 243.789996 
z
" style="fill:#1f77b4;"/>
   </g>
   <g id="patch_219">
    <path clip-path="url(#p4a0482df69)" d="M 347.346216 288.430125 
L 348.388902 288.430125 
L 348.388902 242.249996 
L 347.346216 242.249996 
z
" style="fill:#1f77b4;"/>
   </g>
   <g id="patch_220">
    <path clip-path="url(#p4a0482df69)" d="M 348.649574 288.430125 
L 349.69226 288.430125 
L 349.69226 240.551028 
L 348.649574 240.551028 
z
" style="fill:#1f77b4;"/>
   </g>
   <g id="patch_221">
    <path clip-path="url(#p4a0482df69)" d="M 349.952932 288.430125 
L 350.995618 288.430125 
L 350.995618 239.706512 
L 349.952932 239.706512 
z
" style="fill:#1f77b4;"/>
   </g>
   <g id="patch_222">
    <path clip-path="url(#p4a0482df69)" d="M 351.256289 288.430125 
L 352.298975 288.430125 
L 352.298975 237.629996 
L 351.256289 237.629996 
z
" style="fill:#1f77b4;"/>
   </g>
   <g id="patch_223">
    <path clip-path="url(#p4a0482df69)" d="M 352.559647 288.430125 
L 353.602333 288.430125 
L 353.602333 235.75219 
L 352.559647 235.75219 
z
" style="fill:#1f77b4;"/>
   </g>
   <g id="patch_224">
    <path clip-path="url(#p4a0482df69)" d="M 353.863005 288.430125 
L 354.905691 288.430125 
L 354.905691 233.298125 
L 353.863005 233.298125 
z
" style="fill:#1f77b4;"/>
   </g>
   <g id="patch_225">
    <path clip-path="url(#p4a0482df69)" d="M 355.166362 288.430125 
L 356.209048 288.430125 
L 356.209048 230.62548 
L 355.166362 230.62548 
z
" style="fill:#1f77b4;"/>
   </g>
   <g id="patch_226">
    <path clip-path="url(#p4a0482df69)" d="M 356.46972 288.430125 
L 357.512406 288.430125 
L 357.512406 227.873351 
L 356.46972 227.873351 
z
" style="fill:#1f77b4;"/>
   </g>
   <g id="patch_227">
    <path clip-path="url(#p4a0482df69)" d="M 357.773078 288.430125 
L 358.815764 288.430125 
L 358.815764 224.505222 
L 357.773078 224.505222 
z
" style="fill:#1f77b4;"/>
   </g>
   <g id="patch_228">
    <path clip-path="url(#p4a0482df69)" d="M 359.076435 288.430125 
L 360.119121 288.430125 
L 360.119121 221.315931 
L 359.076435 221.315931 
z
" style="fill:#1f77b4;"/>
   </g>
   <g id="patch_229">
    <path clip-path="url(#p4a0482df69)" d="M 360.379793 288.430125 
L 361.422479 288.430125 
L 361.422479 218.911544 
L 360.379793 218.911544 
z
" style="fill:#1f77b4;"/>
   </g>
   <g id="patch_230">
    <path clip-path="url(#p4a0482df69)" d="M 361.683151 288.430125 
L 362.725837 288.430125 
L 362.725837 217.023802 
L 361.683151 217.023802 
z
" style="fill:#1f77b4;"/>
   </g>
   <g id="patch_231">
    <path clip-path="url(#p4a0482df69)" d="M 362.986508 288.430125 
L 364.029194 288.430125 
L 364.029194 214.063028 
L 362.986508 214.063028 
z
" style="fill:#1f77b4;"/>
   </g>
   <g id="patch_232">
    <path clip-path="url(#p4a0482df69)" d="M 364.289866 288.430125 
L 365.332552 288.430125 
L 365.332552 210.585609 
L 364.289866 210.585609 
z
" style="fill:#1f77b4;"/>
   </g>
   <g id="patch_233">
    <path clip-path="url(#p4a0482df69)" d="M 365.593224 288.430125 
L 366.63591 288.430125 
L 366.63591 205.150899 
L 365.593224 205.150899 
z
" style="fill:#1f77b4;"/>
   </g>
   <g id="patch_234">
    <path clip-path="url(#p4a0482df69)" d="M 366.896581 288.430125 
L 367.939267 288.430125 
L 367.939267 199.845351 
L 366.896581 199.845351 
z
" style="fill:#1f77b4;"/>
   </g>
   <g id="patch_235">
    <path clip-path="url(#p4a0482df69)" d="M 368.199939 288.430125 
L 369.242625 288.430125 
L 369.242625 195.503544 
L 368.199939 195.503544 
z
" style="fill:#1f77b4;"/>
   </g>
   <g id="patch_236">
    <path clip-path="url(#p4a0482df69)" d="M 369.503297 288.430125 
L 370.545983 288.430125 
L 370.545983 190.58548 
L 369.503297 190.58548 
z
" style="fill:#1f77b4;"/>
   </g>
   <g id="patch_237">
    <path clip-path="url(#p4a0482df69)" d="M 370.806654 288.430125 
L 371.84934 288.430125 
L 371.84934 188.111544 
L 370.806654 188.111544 
z
" style="fill:#1f77b4;"/>
   </g>
   <g id="patch_238">
    <path clip-path="url(#p4a0482df69)" d="M 372.110012 288.430125 
L 373.152698 288.430125 
L 373.152698 180.540706 
L 372.110012 180.540706 
z
" style="fill:#1f77b4;"/>
   </g>
   <g id="patch_239">
    <path clip-path="url(#p4a0482df69)" d="M 373.41337 288.430125 
L 374.456056 288.430125 
L 374.456056 173.466641 
L 373.41337 173.466641 
z
" style="fill:#1f77b4;"/>
   </g>
   <g id="patch_240">
    <path clip-path="url(#p4a0482df69)" d="M 374.716727 288.430125 
L 375.759413 288.430125 
L 375.759413 165.776577 
L 374.716727 165.776577 
z
" style="fill:#1f77b4;"/>
   </g>
   <g id="patch_241">
    <path clip-path="url(#p4a0482df69)" d="M 376.020085 288.430125 
L 377.062771 288.430125 
L 377.062771 158.016964 
L 376.020085 158.016964 
z
" style="fill:#1f77b4;"/>
   </g>
   <g id="patch_242">
    <path clip-path="url(#p4a0482df69)" d="M 377.323443 288.430125 
L 378.366129 288.430125 
L 378.366129 152.224577 
L 377.323443 152.224577 
z
" style="fill:#1f77b4;"/>
   </g>
   <g id="patch_243">
    <path clip-path="url(#p4a0482df69)" d="M 378.6268 288.430125 
L 379.669486 288.430125 
L 379.669486 148.49877 
L 378.6268 148.49877 
z
" style="fill:#1f77b4;"/>
   </g>
   <g id="patch_244">
    <path clip-path="url(#p4a0482df69)" d="M 379.930158 288.430125 
L 380.972844 288.430125 
L 380.972844 144.663673 
L 379.930158 144.663673 
z
" style="fill:#1f77b4;"/>
   </g>
   <g id="patch_245">
    <path clip-path="url(#p4a0482df69)" d="M 381.233516 288.430125 
L 382.276202 288.430125 
L 382.276202 137.768448 
L 381.233516 137.768448 
z
" style="fill:#1f77b4;"/>
   </g>
   <g id="patch_246">
    <path clip-path="url(#p4a0482df69)" d="M 382.536873 288.430125 
L 383.579559 288.430125 
L 383.579559 129.621351 
L 382.536873 129.621351 
z
" style="fill:#1f77b4;"/>
   </g>
   <g id="patch_247">
    <path clip-path="url(#p4a0482df69)" d="M 383.840231 288.430125 
L 384.882917 288.430125 
L 384.882917 122.765867 
L 383.840231 122.765867 
z
" style="fill:#1f77b4;"/>
   </g>
   <g id="patch_248">
    <path clip-path="url(#p4a0482df69)" d="M 385.143589 288.430125 
L 386.186275 288.430125 
L 386.186275 116.526383 
L 385.143589 116.526383 
z
" style="fill:#1f77b4;"/>
   </g>
   <g id="patch_249">
    <path clip-path="url(#p4a0482df69)" d="M 386.446946 288.430125 
L 387.489632 288.430125 
L 387.489632 111.12148 
L 386.446946 111.12148 
z
" style="fill:#1f77b4;"/>
   </g>
   <g id="patch_250">
    <path clip-path="url(#p4a0482df69)" d="M 387.750304 288.430125 
L 388.79299 288.430125 
L 388.79299 108.558125 
L 387.750304 108.558125 
z
" style="fill:#1f77b4;"/>
   </g>
   <g id="patch_251">
    <path clip-path="url(#p4a0482df69)" d="M 389.053661 288.430125 
L 390.096348 288.430125 
L 390.096348 102.785609 
L 389.053661 102.785609 
z
" style="fill:#1f77b4;"/>
   </g>
   <g id="patch_252">
    <path clip-path="url(#p4a0482df69)" d="M 390.357019 288.430125 
L 391.399705 288.430125 
L 391.399705 95.870512 
L 390.357019 95.870512 
z
" style="fill:#1f77b4;"/>
   </g>
   <g id="patch_253">
    <path clip-path="url(#p4a0482df69)" d="M 391.660377 288.430125 
L 392.703063 288.430125 
L 392.703063 88.557996 
L 391.660377 88.557996 
z
" style="fill:#1f77b4;"/>
   </g>
   <g id="patch_254">
    <path clip-path="url(#p4a0482df69)" d="M 392.963734 288.430125 
L 394.006421 288.430125 
L 394.006421 83.113351 
L 392.963734 83.113351 
z
" style="fill:#1f77b4;"/>
   </g>
   <g id="patch_255">
    <path clip-path="url(#p4a0482df69)" d="M 394.267092 288.430125 
L 395.309778 288.430125 
L 395.309778 77.797867 
L 394.267092 77.797867 
z
" style="fill:#1f77b4;"/>
   </g>
   <g id="patch_256">
    <path clip-path="url(#p4a0482df69)" d="M 395.57045 288.430125 
L 396.613136 288.430125 
L 396.613136 75.214641 
L 395.57045 75.214641 
z
" style="fill:#1f77b4;"/>
   </g>
   <g id="patch_257">
    <path clip-path="url(#p4a0482df69)" d="M 396.873807 288.430125 
L 397.916494 288.430125 
L 397.916494 73.624964 
L 396.873807 73.624964 
z
" style="fill:#1f77b4;"/>
   </g>
   <g id="patch_258">
    <path clip-path="url(#p4a0482df69)" d="M 398.177165 288.430125 
L 399.219851 288.430125 
L 399.219851 70.236964 
L 398.177165 70.236964 
z
" style="fill:#1f77b4;"/>
   </g>
   <g id="patch_259">
    <path clip-path="url(#p4a0482df69)" d="M 399.480523 288.430125 
L 400.523209 288.430125 
L 400.523209 67.335802 
L 399.480523 67.335802 
z
" style="fill:#1f77b4;"/>
   </g>
   <g id="patch_260">
    <path clip-path="url(#p4a0482df69)" d="M 400.78388 288.430125 
L 401.826567 288.430125 
L 401.826567 63.262254 
L 400.78388 63.262254 
z
" style="fill:#1f77b4;"/>
   </g>
   <g id="patch_261">
    <path clip-path="url(#p4a0482df69)" d="M 402.087238 288.430125 
L 403.129924 288.430125 
L 403.129924 58.354125 
L 402.087238 58.354125 
z
" style="fill:#1f77b4;"/>
   </g>
   <g id="patch_262">
    <path clip-path="url(#p4a0482df69)" d="M 403.390596 288.430125 
L 404.433282 288.430125 
L 404.433282 54.012319 
L 403.390596 54.012319 
z
" style="fill:#1f77b4;"/>
   </g>
   <g id="patch_263">
    <path clip-path="url(#p4a0482df69)" d="M 404.693953 288.430125 
L 405.73664 288.430125 
L 405.73664 52.194125 
L 404.693953 52.194125 
z
" style="fill:#1f77b4;"/>
   </g>
   <g id="patch_264">
    <path clip-path="url(#p4a0482df69)" d="M 405.997311 288.430125 
L 407.039997 288.430125 
L 407.039997 51.26019 
L 405.997311 51.26019 
z
" style="fill:#1f77b4;"/>
   </g>
   <g id="patch_265">
    <path clip-path="url(#p4a0482df69)" d="M 407.300669 288.430125 
L 408.343355 288.430125 
L 408.343355 48.110641 
L 407.300669 48.110641 
z
" style="fill:#1f77b4;"/>
   </g>
   <g id="patch_266">
    <path clip-path="url(#p4a0482df69)" d="M 408.604026 288.430125 
L 409.646713 288.430125 
L 409.646713 44.39477 
L 408.604026 44.39477 
z
" style="fill:#1f77b4;"/>
   </g>
   <g id="patch_267">
    <path clip-path="url(#p4a0482df69)" d="M 409.907384 288.430125 
L 410.95007 288.430125 
L 410.95007 41.563157 
L 409.907384 41.563157 
z
" style="fill:#1f77b4;"/>
   </g>
   <g id="patch_268">
    <path clip-path="url(#p4a0482df69)" d="M 411.210742 288.430125 
L 412.253428 288.430125 
L 412.253428 38.920319 
L 411.210742 38.920319 
z
" style="fill:#1f77b4;"/>
   </g>
   <g id="patch_269">
    <path clip-path="url(#p4a0482df69)" d="M 412.514099 288.430125 
L 413.556786 288.430125 
L 413.556786 36.456319 
L 412.514099 36.456319 
z
" style="fill:#1f77b4;"/>
   </g>
   <g id="patch_270">
    <path clip-path="url(#p4a0482df69)" d="M 413.817457 288.430125 
L 414.860143 288.430125 
L 414.860143 35.313738 
L 413.817457 35.313738 
z
" style="fill:#1f77b4;"/>
   </g>
   <g id="patch_271">
    <path clip-path="url(#p4a0482df69)" d="M 415.120815 288.430125 
L 416.163501 288.430125 
L 416.163501 34.528835 
L 415.120815 34.528835 
z
" style="fill:#1f77b4;"/>
   </g>
   <g id="patch_272">
    <path clip-path="url(#p4a0482df69)" d="M 416.424172 288.430125 
L 417.466859 288.430125 
L 417.466859 32.223802 
L 416.424172 32.223802 
z
" style="fill:#1f77b4;"/>
   </g>
   <g id="patch_273">
    <path clip-path="url(#p4a0482df69)" d="M 417.72753 288.430125 
L 418.770216 288.430125 
L 418.770216 29.799544 
L 417.72753 29.799544 
z
" style="fill:#1f77b4;"/>
   </g>
   <g id="patch_274">
    <path clip-path="url(#p4a0482df69)" d="M 419.030888 288.430125 
L 420.073574 288.430125 
L 420.073574 27.295802 
L 419.030888 27.295802 
z
" style="fill:#1f77b4;"/>
   </g>
   <g id="patch_275">
    <path clip-path="url(#p4a0482df69)" d="M 420.334245 288.430125 
L 421.376932 288.430125 
L 421.376932 24.811931 
L 420.334245 24.811931 
z
" style="fill:#1f77b4;"/>
   </g>
   <g id="patch_276">
    <path clip-path="url(#p4a0482df69)" d="M 421.637603 288.430125 
L 422.680289 288.430125 
L 422.680289 22.318125 
L 421.637603 22.318125 
z
" style="fill:#1f77b4;"/>
   </g>
   <g id="matplotlib.axis_1">
    <g id="xtick_1">
     <g id="line2d_1">
      <defs>
       <path d="M 0 0 
L 0 3.5 
" id="m7c350a50f7" style="stroke:#000000;stroke-width:0.8;"/>
      </defs>
      <g>
       <use style="stroke:#000000;stroke-width:0.8;" x="88.499384" xlink:href="#m7c350a50f7" y="288.430125"/>
      </g>
     </g>
     <g id="text_1">
      <!-- 2020-04 -->
      <g transform="translate(91.258759 337.212937)rotate(-90)scale(0.1 -0.1)">
       <defs>
        <path d="M 19.1875 8.296875 
L 53.609375 8.296875 
L 53.609375 0 
L 7.328125 0 
L 7.328125 8.296875 
Q 12.9375 14.109375 22.625 23.890625 
Q 32.328125 33.6875 34.8125 36.53125 
Q 39.546875 41.84375 41.421875 45.53125 
Q 43.3125 49.21875 43.3125 52.78125 
Q 43.3125 58.59375 39.234375 62.25 
Q 35.15625 65.921875 28.609375 65.921875 
Q 23.96875 65.921875 18.8125 64.3125 
Q 13.671875 62.703125 7.8125 59.421875 
L 7.8125 69.390625 
Q 13.765625 71.78125 18.9375 73 
Q 24.125 74.21875 28.421875 74.21875 
Q 39.75 74.21875 46.484375 68.546875 
Q 53.21875 62.890625 53.21875 53.421875 
Q 53.21875 48.921875 51.53125 44.890625 
Q 49.859375 40.875 45.40625 35.40625 
Q 44.1875 33.984375 37.640625 27.21875 
Q 31.109375 20.453125 19.1875 8.296875 
z
" id="DejaVuSans-50"/>
        <path d="M 31.78125 66.40625 
Q 24.171875 66.40625 20.328125 58.90625 
Q 16.5 51.421875 16.5 36.375 
Q 16.5 21.390625 20.328125 13.890625 
Q 24.171875 6.390625 31.78125 6.390625 
Q 39.453125 6.390625 43.28125 13.890625 
Q 47.125 21.390625 47.125 36.375 
Q 47.125 51.421875 43.28125 58.90625 
Q 39.453125 66.40625 31.78125 66.40625 
z
M 31.78125 74.21875 
Q 44.046875 74.21875 50.515625 64.515625 
Q 56.984375 54.828125 56.984375 36.375 
Q 56.984375 17.96875 50.515625 8.265625 
Q 44.046875 -1.421875 31.78125 -1.421875 
Q 19.53125 -1.421875 13.0625 8.265625 
Q 6.59375 17.96875 6.59375 36.375 
Q 6.59375 54.828125 13.0625 64.515625 
Q 19.53125 74.21875 31.78125 74.21875 
z
" id="DejaVuSans-48"/>
        <path d="M 4.890625 31.390625 
L 31.203125 31.390625 
L 31.203125 23.390625 
L 4.890625 23.390625 
z
" id="DejaVuSans-45"/>
        <path d="M 37.796875 64.3125 
L 12.890625 25.390625 
L 37.796875 25.390625 
z
M 35.203125 72.90625 
L 47.609375 72.90625 
L 47.609375 25.390625 
L 58.015625 25.390625 
L 58.015625 17.1875 
L 47.609375 17.1875 
L 47.609375 0 
L 37.796875 0 
L 37.796875 17.1875 
L 4.890625 17.1875 
L 4.890625 26.703125 
z
" id="DejaVuSans-52"/>
       </defs>
       <use xlink:href="#DejaVuSans-50"/>
       <use x="63.623047" xlink:href="#DejaVuSans-48"/>
       <use x="127.246094" xlink:href="#DejaVuSans-50"/>
       <use x="190.869141" xlink:href="#DejaVuSans-48"/>
       <use x="254.492188" xlink:href="#DejaVuSans-45"/>
       <use x="290.576172" xlink:href="#DejaVuSans-48"/>
       <use x="354.199219" xlink:href="#DejaVuSans-52"/>
      </g>
     </g>
    </g>
    <g id="xtick_2">
     <g id="line2d_2">
      <g>
       <use style="stroke:#000000;stroke-width:0.8;" x="127.600114" xlink:href="#m7c350a50f7" y="288.430125"/>
      </g>
     </g>
     <g id="text_2">
      <!-- 2020-05 -->
      <g transform="translate(130.359489 337.212937)rotate(-90)scale(0.1 -0.1)">
       <defs>
        <path d="M 10.796875 72.90625 
L 49.515625 72.90625 
L 49.515625 64.59375 
L 19.828125 64.59375 
L 19.828125 46.734375 
Q 21.96875 47.46875 24.109375 47.828125 
Q 26.265625 48.1875 28.421875 48.1875 
Q 40.625 48.1875 47.75 41.5 
Q 54.890625 34.8125 54.890625 23.390625 
Q 54.890625 11.625 47.5625 5.09375 
Q 40.234375 -1.421875 26.90625 -1.421875 
Q 22.3125 -1.421875 17.546875 -0.640625 
Q 12.796875 0.140625 7.71875 1.703125 
L 7.71875 11.625 
Q 12.109375 9.234375 16.796875 8.0625 
Q 21.484375 6.890625 26.703125 6.890625 
Q 35.15625 6.890625 40.078125 11.328125 
Q 45.015625 15.765625 45.015625 23.390625 
Q 45.015625 31 40.078125 35.4375 
Q 35.15625 39.890625 26.703125 39.890625 
Q 22.75 39.890625 18.8125 39.015625 
Q 14.890625 38.140625 10.796875 36.28125 
z
" id="DejaVuSans-53"/>
       </defs>
       <use xlink:href="#DejaVuSans-50"/>
       <use x="63.623047" xlink:href="#DejaVuSans-48"/>
       <use x="127.246094" xlink:href="#DejaVuSans-50"/>
       <use x="190.869141" xlink:href="#DejaVuSans-48"/>
       <use x="254.492188" xlink:href="#DejaVuSans-45"/>
       <use x="290.576172" xlink:href="#DejaVuSans-48"/>
       <use x="354.199219" xlink:href="#DejaVuSans-53"/>
      </g>
     </g>
    </g>
    <g id="xtick_3">
     <g id="line2d_3">
      <g>
       <use style="stroke:#000000;stroke-width:0.8;" x="168.004202" xlink:href="#m7c350a50f7" y="288.430125"/>
      </g>
     </g>
     <g id="text_3">
      <!-- 2020-06 -->
      <g transform="translate(170.763577 337.212937)rotate(-90)scale(0.1 -0.1)">
       <defs>
        <path d="M 33.015625 40.375 
Q 26.375 40.375 22.484375 35.828125 
Q 18.609375 31.296875 18.609375 23.390625 
Q 18.609375 15.53125 22.484375 10.953125 
Q 26.375 6.390625 33.015625 6.390625 
Q 39.65625 6.390625 43.53125 10.953125 
Q 47.40625 15.53125 47.40625 23.390625 
Q 47.40625 31.296875 43.53125 35.828125 
Q 39.65625 40.375 33.015625 40.375 
z
M 52.59375 71.296875 
L 52.59375 62.3125 
Q 48.875 64.0625 45.09375 64.984375 
Q 41.3125 65.921875 37.59375 65.921875 
Q 27.828125 65.921875 22.671875 59.328125 
Q 17.53125 52.734375 16.796875 39.40625 
Q 19.671875 43.65625 24.015625 45.921875 
Q 28.375 48.1875 33.59375 48.1875 
Q 44.578125 48.1875 50.953125 41.515625 
Q 57.328125 34.859375 57.328125 23.390625 
Q 57.328125 12.15625 50.6875 5.359375 
Q 44.046875 -1.421875 33.015625 -1.421875 
Q 20.359375 -1.421875 13.671875 8.265625 
Q 6.984375 17.96875 6.984375 36.375 
Q 6.984375 53.65625 15.1875 63.9375 
Q 23.390625 74.21875 37.203125 74.21875 
Q 40.921875 74.21875 44.703125 73.484375 
Q 48.484375 72.75 52.59375 71.296875 
z
" id="DejaVuSans-54"/>
       </defs>
       <use xlink:href="#DejaVuSans-50"/>
       <use x="63.623047" xlink:href="#DejaVuSans-48"/>
       <use x="127.246094" xlink:href="#DejaVuSans-50"/>
       <use x="190.869141" xlink:href="#DejaVuSans-48"/>
       <use x="254.492188" xlink:href="#DejaVuSans-45"/>
       <use x="290.576172" xlink:href="#DejaVuSans-48"/>
       <use x="354.199219" xlink:href="#DejaVuSans-54"/>
      </g>
     </g>
    </g>
    <g id="xtick_4">
     <g id="line2d_4">
      <g>
       <use style="stroke:#000000;stroke-width:0.8;" x="207.104932" xlink:href="#m7c350a50f7" y="288.430125"/>
      </g>
     </g>
     <g id="text_4">
      <!-- 2020-07 -->
      <g transform="translate(209.864307 337.212937)rotate(-90)scale(0.1 -0.1)">
       <defs>
        <path d="M 8.203125 72.90625 
L 55.078125 72.90625 
L 55.078125 68.703125 
L 28.609375 0 
L 18.3125 0 
L 43.21875 64.59375 
L 8.203125 64.59375 
z
" id="DejaVuSans-55"/>
       </defs>
       <use xlink:href="#DejaVuSans-50"/>
       <use x="63.623047" xlink:href="#DejaVuSans-48"/>
       <use x="127.246094" xlink:href="#DejaVuSans-50"/>
       <use x="190.869141" xlink:href="#DejaVuSans-48"/>
       <use x="254.492188" xlink:href="#DejaVuSans-45"/>
       <use x="290.576172" xlink:href="#DejaVuSans-48"/>
       <use x="354.199219" xlink:href="#DejaVuSans-55"/>
      </g>
     </g>
    </g>
    <g id="xtick_5">
     <g id="line2d_5">
      <g>
       <use style="stroke:#000000;stroke-width:0.8;" x="247.509019" xlink:href="#m7c350a50f7" y="288.430125"/>
      </g>
     </g>
     <g id="text_5">
      <!-- 2020-08 -->
      <g transform="translate(250.268394 337.212937)rotate(-90)scale(0.1 -0.1)">
       <defs>
        <path d="M 31.78125 34.625 
Q 24.75 34.625 20.71875 30.859375 
Q 16.703125 27.09375 16.703125 20.515625 
Q 16.703125 13.921875 20.71875 10.15625 
Q 24.75 6.390625 31.78125 6.390625 
Q 38.8125 6.390625 42.859375 10.171875 
Q 46.921875 13.96875 46.921875 20.515625 
Q 46.921875 27.09375 42.890625 30.859375 
Q 38.875 34.625 31.78125 34.625 
z
M 21.921875 38.8125 
Q 15.578125 40.375 12.03125 44.71875 
Q 8.5 49.078125 8.5 55.328125 
Q 8.5 64.0625 14.71875 69.140625 
Q 20.953125 74.21875 31.78125 74.21875 
Q 42.671875 74.21875 48.875 69.140625 
Q 55.078125 64.0625 55.078125 55.328125 
Q 55.078125 49.078125 51.53125 44.71875 
Q 48 40.375 41.703125 38.8125 
Q 48.828125 37.15625 52.796875 32.3125 
Q 56.78125 27.484375 56.78125 20.515625 
Q 56.78125 9.90625 50.3125 4.234375 
Q 43.84375 -1.421875 31.78125 -1.421875 
Q 19.734375 -1.421875 13.25 4.234375 
Q 6.78125 9.90625 6.78125 20.515625 
Q 6.78125 27.484375 10.78125 32.3125 
Q 14.796875 37.15625 21.921875 38.8125 
z
M 18.3125 54.390625 
Q 18.3125 48.734375 21.84375 45.5625 
Q 25.390625 42.390625 31.78125 42.390625 
Q 38.140625 42.390625 41.71875 45.5625 
Q 45.3125 48.734375 45.3125 54.390625 
Q 45.3125 60.0625 41.71875 63.234375 
Q 38.140625 66.40625 31.78125 66.40625 
Q 25.390625 66.40625 21.84375 63.234375 
Q 18.3125 60.0625 18.3125 54.390625 
z
" id="DejaVuSans-56"/>
       </defs>
       <use xlink:href="#DejaVuSans-50"/>
       <use x="63.623047" xlink:href="#DejaVuSans-48"/>
       <use x="127.246094" xlink:href="#DejaVuSans-50"/>
       <use x="190.869141" xlink:href="#DejaVuSans-48"/>
       <use x="254.492188" xlink:href="#DejaVuSans-45"/>
       <use x="290.576172" xlink:href="#DejaVuSans-48"/>
       <use x="354.199219" xlink:href="#DejaVuSans-56"/>
      </g>
     </g>
    </g>
    <g id="xtick_6">
     <g id="line2d_6">
      <g>
       <use style="stroke:#000000;stroke-width:0.8;" x="287.913107" xlink:href="#m7c350a50f7" y="288.430125"/>
      </g>
     </g>
     <g id="text_6">
      <!-- 2020-09 -->
      <g transform="translate(290.672482 337.212937)rotate(-90)scale(0.1 -0.1)">
       <defs>
        <path d="M 10.984375 1.515625 
L 10.984375 10.5 
Q 14.703125 8.734375 18.5 7.8125 
Q 22.3125 6.890625 25.984375 6.890625 
Q 35.75 6.890625 40.890625 13.453125 
Q 46.046875 20.015625 46.78125 33.40625 
Q 43.953125 29.203125 39.59375 26.953125 
Q 35.25 24.703125 29.984375 24.703125 
Q 19.046875 24.703125 12.671875 31.3125 
Q 6.296875 37.9375 6.296875 49.421875 
Q 6.296875 60.640625 12.9375 67.421875 
Q 19.578125 74.21875 30.609375 74.21875 
Q 43.265625 74.21875 49.921875 64.515625 
Q 56.59375 54.828125 56.59375 36.375 
Q 56.59375 19.140625 48.40625 8.859375 
Q 40.234375 -1.421875 26.421875 -1.421875 
Q 22.703125 -1.421875 18.890625 -0.6875 
Q 15.09375 0.046875 10.984375 1.515625 
z
M 30.609375 32.421875 
Q 37.25 32.421875 41.125 36.953125 
Q 45.015625 41.5 45.015625 49.421875 
Q 45.015625 57.28125 41.125 61.84375 
Q 37.25 66.40625 30.609375 66.40625 
Q 23.96875 66.40625 20.09375 61.84375 
Q 16.21875 57.28125 16.21875 49.421875 
Q 16.21875 41.5 20.09375 36.953125 
Q 23.96875 32.421875 30.609375 32.421875 
z
" id="DejaVuSans-57"/>
       </defs>
       <use xlink:href="#DejaVuSans-50"/>
       <use x="63.623047" xlink:href="#DejaVuSans-48"/>
       <use x="127.246094" xlink:href="#DejaVuSans-50"/>
       <use x="190.869141" xlink:href="#DejaVuSans-48"/>
       <use x="254.492188" xlink:href="#DejaVuSans-45"/>
       <use x="290.576172" xlink:href="#DejaVuSans-48"/>
       <use x="354.199219" xlink:href="#DejaVuSans-57"/>
      </g>
     </g>
    </g>
    <g id="xtick_7">
     <g id="line2d_7">
      <g>
       <use style="stroke:#000000;stroke-width:0.8;" x="327.013837" xlink:href="#m7c350a50f7" y="288.430125"/>
      </g>
     </g>
     <g id="text_7">
      <!-- 2020-10 -->
      <g transform="translate(329.773212 337.212937)rotate(-90)scale(0.1 -0.1)">
       <defs>
        <path d="M 12.40625 8.296875 
L 28.515625 8.296875 
L 28.515625 63.921875 
L 10.984375 60.40625 
L 10.984375 69.390625 
L 28.421875 72.90625 
L 38.28125 72.90625 
L 38.28125 8.296875 
L 54.390625 8.296875 
L 54.390625 0 
L 12.40625 0 
z
" id="DejaVuSans-49"/>
       </defs>
       <use xlink:href="#DejaVuSans-50"/>
       <use x="63.623047" xlink:href="#DejaVuSans-48"/>
       <use x="127.246094" xlink:href="#DejaVuSans-50"/>
       <use x="190.869141" xlink:href="#DejaVuSans-48"/>
       <use x="254.492188" xlink:href="#DejaVuSans-45"/>
       <use x="290.576172" xlink:href="#DejaVuSans-49"/>
       <use x="354.199219" xlink:href="#DejaVuSans-48"/>
      </g>
     </g>
    </g>
    <g id="xtick_8">
     <g id="line2d_8">
      <g>
       <use style="stroke:#000000;stroke-width:0.8;" x="367.417924" xlink:href="#m7c350a50f7" y="288.430125"/>
      </g>
     </g>
     <g id="text_8">
      <!-- 2020-11 -->
      <g transform="translate(370.177299 337.212937)rotate(-90)scale(0.1 -0.1)">
       <use xlink:href="#DejaVuSans-50"/>
       <use x="63.623047" xlink:href="#DejaVuSans-48"/>
       <use x="127.246094" xlink:href="#DejaVuSans-50"/>
       <use x="190.869141" xlink:href="#DejaVuSans-48"/>
       <use x="254.492188" xlink:href="#DejaVuSans-45"/>
       <use x="290.576172" xlink:href="#DejaVuSans-49"/>
       <use x="354.199219" xlink:href="#DejaVuSans-49"/>
      </g>
     </g>
    </g>
    <g id="xtick_9">
     <g id="line2d_9">
      <g>
       <use style="stroke:#000000;stroke-width:0.8;" x="406.518654" xlink:href="#m7c350a50f7" y="288.430125"/>
      </g>
     </g>
     <g id="text_9">
      <!-- 2020-12 -->
      <g transform="translate(409.278029 337.212937)rotate(-90)scale(0.1 -0.1)">
       <use xlink:href="#DejaVuSans-50"/>
       <use x="63.623047" xlink:href="#DejaVuSans-48"/>
       <use x="127.246094" xlink:href="#DejaVuSans-50"/>
       <use x="190.869141" xlink:href="#DejaVuSans-48"/>
       <use x="254.492188" xlink:href="#DejaVuSans-45"/>
       <use x="290.576172" xlink:href="#DejaVuSans-49"/>
       <use x="354.199219" xlink:href="#DejaVuSans-50"/>
      </g>
     </g>
    </g>
    <g id="text_10">
     <!-- date -->
     <g transform="translate(232.975625 354.811375)scale(0.1 -0.1)">
      <defs>
       <path d="M 45.40625 46.390625 
L 45.40625 75.984375 
L 54.390625 75.984375 
L 54.390625 0 
L 45.40625 0 
L 45.40625 8.203125 
Q 42.578125 3.328125 38.25 0.953125 
Q 33.9375 -1.421875 27.875 -1.421875 
Q 17.96875 -1.421875 11.734375 6.484375 
Q 5.515625 14.40625 5.515625 27.296875 
Q 5.515625 40.1875 11.734375 48.09375 
Q 17.96875 56 27.875 56 
Q 33.9375 56 38.25 53.625 
Q 42.578125 51.265625 45.40625 46.390625 
z
M 14.796875 27.296875 
Q 14.796875 17.390625 18.875 11.75 
Q 22.953125 6.109375 30.078125 6.109375 
Q 37.203125 6.109375 41.296875 11.75 
Q 45.40625 17.390625 45.40625 27.296875 
Q 45.40625 37.203125 41.296875 42.84375 
Q 37.203125 48.484375 30.078125 48.484375 
Q 22.953125 48.484375 18.875 42.84375 
Q 14.796875 37.203125 14.796875 27.296875 
z
" id="DejaVuSans-100"/>
       <path d="M 34.28125 27.484375 
Q 23.390625 27.484375 19.1875 25 
Q 14.984375 22.515625 14.984375 16.5 
Q 14.984375 11.71875 18.140625 8.90625 
Q 21.296875 6.109375 26.703125 6.109375 
Q 34.1875 6.109375 38.703125 11.40625 
Q 43.21875 16.703125 43.21875 25.484375 
L 43.21875 27.484375 
z
M 52.203125 31.203125 
L 52.203125 0 
L 43.21875 0 
L 43.21875 8.296875 
Q 40.140625 3.328125 35.546875 0.953125 
Q 30.953125 -1.421875 24.3125 -1.421875 
Q 15.921875 -1.421875 10.953125 3.296875 
Q 6 8.015625 6 15.921875 
Q 6 25.140625 12.171875 29.828125 
Q 18.359375 34.515625 30.609375 34.515625 
L 43.21875 34.515625 
L 43.21875 35.40625 
Q 43.21875 41.609375 39.140625 45 
Q 35.0625 48.390625 27.6875 48.390625 
Q 23 48.390625 18.546875 47.265625 
Q 14.109375 46.140625 10.015625 43.890625 
L 10.015625 52.203125 
Q 14.9375 54.109375 19.578125 55.046875 
Q 24.21875 56 28.609375 56 
Q 40.484375 56 46.34375 49.84375 
Q 52.203125 43.703125 52.203125 31.203125 
z
" id="DejaVuSans-97"/>
       <path d="M 18.3125 70.21875 
L 18.3125 54.6875 
L 36.8125 54.6875 
L 36.8125 47.703125 
L 18.3125 47.703125 
L 18.3125 18.015625 
Q 18.3125 11.328125 20.140625 9.421875 
Q 21.96875 7.515625 27.59375 7.515625 
L 36.8125 7.515625 
L 36.8125 0 
L 27.59375 0 
Q 17.1875 0 13.234375 3.875 
Q 9.28125 7.765625 9.28125 18.015625 
L 9.28125 47.703125 
L 2.6875 47.703125 
L 2.6875 54.6875 
L 9.28125 54.6875 
L 9.28125 70.21875 
z
" id="DejaVuSans-116"/>
       <path d="M 56.203125 29.59375 
L 56.203125 25.203125 
L 14.890625 25.203125 
Q 15.484375 15.921875 20.484375 11.0625 
Q 25.484375 6.203125 34.421875 6.203125 
Q 39.59375 6.203125 44.453125 7.46875 
Q 49.3125 8.734375 54.109375 11.28125 
L 54.109375 2.78125 
Q 49.265625 0.734375 44.1875 -0.34375 
Q 39.109375 -1.421875 33.890625 -1.421875 
Q 20.796875 -1.421875 13.15625 6.1875 
Q 5.515625 13.8125 5.515625 26.8125 
Q 5.515625 40.234375 12.765625 48.109375 
Q 20.015625 56 32.328125 56 
Q 43.359375 56 49.78125 48.890625 
Q 56.203125 41.796875 56.203125 29.59375 
z
M 47.21875 32.234375 
Q 47.125 39.59375 43.09375 43.984375 
Q 39.0625 48.390625 32.421875 48.390625 
Q 24.90625 48.390625 20.390625 44.140625 
Q 15.875 39.890625 15.1875 32.171875 
z
" id="DejaVuSans-101"/>
      </defs>
      <use xlink:href="#DejaVuSans-100"/>
      <use x="63.476562" xlink:href="#DejaVuSans-97"/>
      <use x="124.755859" xlink:href="#DejaVuSans-116"/>
      <use x="163.964844" xlink:href="#DejaVuSans-101"/>
     </g>
    </g>
   </g>
   <g id="matplotlib.axis_2">
    <g id="ytick_1">
     <g id="line2d_10">
      <defs>
       <path d="M 0 0 
L -3.5 0 
" id="m306fbb5e6f" style="stroke:#000000;stroke-width:0.8;"/>
      </defs>
      <g>
       <use style="stroke:#000000;stroke-width:0.8;" x="65.690625" xlink:href="#m306fbb5e6f" y="288.430125"/>
      </g>
     </g>
     <g id="text_11">
      <!-- 0 -->
      <g transform="translate(52.328125 292.229344)scale(0.1 -0.1)">
       <use xlink:href="#DejaVuSans-48"/>
      </g>
     </g>
    </g>
    <g id="ytick_2">
     <g id="line2d_11">
      <g>
       <use style="stroke:#000000;stroke-width:0.8;" x="65.690625" xlink:href="#m306fbb5e6f" y="238.752706"/>
      </g>
     </g>
     <g id="text_12">
      <!-- 5000 -->
      <g transform="translate(33.240625 242.551924)scale(0.1 -0.1)">
       <use xlink:href="#DejaVuSans-53"/>
       <use x="63.623047" xlink:href="#DejaVuSans-48"/>
       <use x="127.246094" xlink:href="#DejaVuSans-48"/>
       <use x="190.869141" xlink:href="#DejaVuSans-48"/>
      </g>
     </g>
    </g>
    <g id="ytick_3">
     <g id="line2d_12">
      <g>
       <use style="stroke:#000000;stroke-width:0.8;" x="65.690625" xlink:href="#m306fbb5e6f" y="189.075286"/>
      </g>
     </g>
     <g id="text_13">
      <!-- 10000 -->
      <g transform="translate(26.878125 192.874505)scale(0.1 -0.1)">
       <use xlink:href="#DejaVuSans-49"/>
       <use x="63.623047" xlink:href="#DejaVuSans-48"/>
       <use x="127.246094" xlink:href="#DejaVuSans-48"/>
       <use x="190.869141" xlink:href="#DejaVuSans-48"/>
       <use x="254.492188" xlink:href="#DejaVuSans-48"/>
      </g>
     </g>
    </g>
    <g id="ytick_4">
     <g id="line2d_13">
      <g>
       <use style="stroke:#000000;stroke-width:0.8;" x="65.690625" xlink:href="#m306fbb5e6f" y="139.397867"/>
      </g>
     </g>
     <g id="text_14">
      <!-- 15000 -->
      <g transform="translate(26.878125 143.197086)scale(0.1 -0.1)">
       <use xlink:href="#DejaVuSans-49"/>
       <use x="63.623047" xlink:href="#DejaVuSans-53"/>
       <use x="127.246094" xlink:href="#DejaVuSans-48"/>
       <use x="190.869141" xlink:href="#DejaVuSans-48"/>
       <use x="254.492188" xlink:href="#DejaVuSans-48"/>
      </g>
     </g>
    </g>
    <g id="ytick_5">
     <g id="line2d_14">
      <g>
       <use style="stroke:#000000;stroke-width:0.8;" x="65.690625" xlink:href="#m306fbb5e6f" y="89.720448"/>
      </g>
     </g>
     <g id="text_15">
      <!-- 20000 -->
      <g transform="translate(26.878125 93.519666)scale(0.1 -0.1)">
       <use xlink:href="#DejaVuSans-50"/>
       <use x="63.623047" xlink:href="#DejaVuSans-48"/>
       <use x="127.246094" xlink:href="#DejaVuSans-48"/>
       <use x="190.869141" xlink:href="#DejaVuSans-48"/>
       <use x="254.492188" xlink:href="#DejaVuSans-48"/>
      </g>
     </g>
    </g>
    <g id="ytick_6">
     <g id="line2d_15">
      <g>
       <use style="stroke:#000000;stroke-width:0.8;" x="65.690625" xlink:href="#m306fbb5e6f" y="40.043028"/>
      </g>
     </g>
     <g id="text_16">
      <!-- 25000 -->
      <g transform="translate(26.878125 43.842247)scale(0.1 -0.1)">
       <use xlink:href="#DejaVuSans-50"/>
       <use x="63.623047" xlink:href="#DejaVuSans-53"/>
       <use x="127.246094" xlink:href="#DejaVuSans-48"/>
       <use x="190.869141" xlink:href="#DejaVuSans-48"/>
       <use x="254.492188" xlink:href="#DejaVuSans-48"/>
      </g>
     </g>
    </g>
    <g id="text_17">
     <!-- cumulative number of corona cases -->
     <g transform="translate(14.798438 245.00225)rotate(-90)scale(0.1 -0.1)">
      <defs>
       <path d="M 48.78125 52.59375 
L 48.78125 44.1875 
Q 44.96875 46.296875 41.140625 47.34375 
Q 37.3125 48.390625 33.40625 48.390625 
Q 24.65625 48.390625 19.8125 42.84375 
Q 14.984375 37.3125 14.984375 27.296875 
Q 14.984375 17.28125 19.8125 11.734375 
Q 24.65625 6.203125 33.40625 6.203125 
Q 37.3125 6.203125 41.140625 7.25 
Q 44.96875 8.296875 48.78125 10.40625 
L 48.78125 2.09375 
Q 45.015625 0.34375 40.984375 -0.53125 
Q 36.96875 -1.421875 32.421875 -1.421875 
Q 20.0625 -1.421875 12.78125 6.34375 
Q 5.515625 14.109375 5.515625 27.296875 
Q 5.515625 40.671875 12.859375 48.328125 
Q 20.21875 56 33.015625 56 
Q 37.15625 56 41.109375 55.140625 
Q 45.0625 54.296875 48.78125 52.59375 
z
" id="DejaVuSans-99"/>
       <path d="M 8.5 21.578125 
L 8.5 54.6875 
L 17.484375 54.6875 
L 17.484375 21.921875 
Q 17.484375 14.15625 20.5 10.265625 
Q 23.53125 6.390625 29.59375 6.390625 
Q 36.859375 6.390625 41.078125 11.03125 
Q 45.3125 15.671875 45.3125 23.6875 
L 45.3125 54.6875 
L 54.296875 54.6875 
L 54.296875 0 
L 45.3125 0 
L 45.3125 8.40625 
Q 42.046875 3.421875 37.71875 1 
Q 33.40625 -1.421875 27.6875 -1.421875 
Q 18.265625 -1.421875 13.375 4.4375 
Q 8.5 10.296875 8.5 21.578125 
z
M 31.109375 56 
z
" id="DejaVuSans-117"/>
       <path d="M 52 44.1875 
Q 55.375 50.25 60.0625 53.125 
Q 64.75 56 71.09375 56 
Q 79.640625 56 84.28125 50.015625 
Q 88.921875 44.046875 88.921875 33.015625 
L 88.921875 0 
L 79.890625 0 
L 79.890625 32.71875 
Q 79.890625 40.578125 77.09375 44.375 
Q 74.3125 48.1875 68.609375 48.1875 
Q 61.625 48.1875 57.5625 43.546875 
Q 53.515625 38.921875 53.515625 30.90625 
L 53.515625 0 
L 44.484375 0 
L 44.484375 32.71875 
Q 44.484375 40.625 41.703125 44.40625 
Q 38.921875 48.1875 33.109375 48.1875 
Q 26.21875 48.1875 22.15625 43.53125 
Q 18.109375 38.875 18.109375 30.90625 
L 18.109375 0 
L 9.078125 0 
L 9.078125 54.6875 
L 18.109375 54.6875 
L 18.109375 46.1875 
Q 21.1875 51.21875 25.484375 53.609375 
Q 29.78125 56 35.6875 56 
Q 41.65625 56 45.828125 52.96875 
Q 50 49.953125 52 44.1875 
z
" id="DejaVuSans-109"/>
       <path d="M 9.421875 75.984375 
L 18.40625 75.984375 
L 18.40625 0 
L 9.421875 0 
z
" id="DejaVuSans-108"/>
       <path d="M 9.421875 54.6875 
L 18.40625 54.6875 
L 18.40625 0 
L 9.421875 0 
z
M 9.421875 75.984375 
L 18.40625 75.984375 
L 18.40625 64.59375 
L 9.421875 64.59375 
z
" id="DejaVuSans-105"/>
       <path d="M 2.984375 54.6875 
L 12.5 54.6875 
L 29.59375 8.796875 
L 46.6875 54.6875 
L 56.203125 54.6875 
L 35.6875 0 
L 23.484375 0 
z
" id="DejaVuSans-118"/>
       <path id="DejaVuSans-32"/>
       <path d="M 54.890625 33.015625 
L 54.890625 0 
L 45.90625 0 
L 45.90625 32.71875 
Q 45.90625 40.484375 42.875 44.328125 
Q 39.84375 48.1875 33.796875 48.1875 
Q 26.515625 48.1875 22.3125 43.546875 
Q 18.109375 38.921875 18.109375 30.90625 
L 18.109375 0 
L 9.078125 0 
L 9.078125 54.6875 
L 18.109375 54.6875 
L 18.109375 46.1875 
Q 21.34375 51.125 25.703125 53.5625 
Q 30.078125 56 35.796875 56 
Q 45.21875 56 50.046875 50.171875 
Q 54.890625 44.34375 54.890625 33.015625 
z
" id="DejaVuSans-110"/>
       <path d="M 48.6875 27.296875 
Q 48.6875 37.203125 44.609375 42.84375 
Q 40.53125 48.484375 33.40625 48.484375 
Q 26.265625 48.484375 22.1875 42.84375 
Q 18.109375 37.203125 18.109375 27.296875 
Q 18.109375 17.390625 22.1875 11.75 
Q 26.265625 6.109375 33.40625 6.109375 
Q 40.53125 6.109375 44.609375 11.75 
Q 48.6875 17.390625 48.6875 27.296875 
z
M 18.109375 46.390625 
Q 20.953125 51.265625 25.265625 53.625 
Q 29.59375 56 35.59375 56 
Q 45.5625 56 51.78125 48.09375 
Q 58.015625 40.1875 58.015625 27.296875 
Q 58.015625 14.40625 51.78125 6.484375 
Q 45.5625 -1.421875 35.59375 -1.421875 
Q 29.59375 -1.421875 25.265625 0.953125 
Q 20.953125 3.328125 18.109375 8.203125 
L 18.109375 0 
L 9.078125 0 
L 9.078125 75.984375 
L 18.109375 75.984375 
z
" id="DejaVuSans-98"/>
       <path d="M 41.109375 46.296875 
Q 39.59375 47.171875 37.8125 47.578125 
Q 36.03125 48 33.890625 48 
Q 26.265625 48 22.1875 43.046875 
Q 18.109375 38.09375 18.109375 28.8125 
L 18.109375 0 
L 9.078125 0 
L 9.078125 54.6875 
L 18.109375 54.6875 
L 18.109375 46.1875 
Q 20.953125 51.171875 25.484375 53.578125 
Q 30.03125 56 36.53125 56 
Q 37.453125 56 38.578125 55.875 
Q 39.703125 55.765625 41.0625 55.515625 
z
" id="DejaVuSans-114"/>
       <path d="M 30.609375 48.390625 
Q 23.390625 48.390625 19.1875 42.75 
Q 14.984375 37.109375 14.984375 27.296875 
Q 14.984375 17.484375 19.15625 11.84375 
Q 23.34375 6.203125 30.609375 6.203125 
Q 37.796875 6.203125 41.984375 11.859375 
Q 46.1875 17.53125 46.1875 27.296875 
Q 46.1875 37.015625 41.984375 42.703125 
Q 37.796875 48.390625 30.609375 48.390625 
z
M 30.609375 56 
Q 42.328125 56 49.015625 48.375 
Q 55.71875 40.765625 55.71875 27.296875 
Q 55.71875 13.875 49.015625 6.21875 
Q 42.328125 -1.421875 30.609375 -1.421875 
Q 18.84375 -1.421875 12.171875 6.21875 
Q 5.515625 13.875 5.515625 27.296875 
Q 5.515625 40.765625 12.171875 48.375 
Q 18.84375 56 30.609375 56 
z
" id="DejaVuSans-111"/>
       <path d="M 37.109375 75.984375 
L 37.109375 68.5 
L 28.515625 68.5 
Q 23.6875 68.5 21.796875 66.546875 
Q 19.921875 64.59375 19.921875 59.515625 
L 19.921875 54.6875 
L 34.71875 54.6875 
L 34.71875 47.703125 
L 19.921875 47.703125 
L 19.921875 0 
L 10.890625 0 
L 10.890625 47.703125 
L 2.296875 47.703125 
L 2.296875 54.6875 
L 10.890625 54.6875 
L 10.890625 58.5 
Q 10.890625 67.625 15.140625 71.796875 
Q 19.390625 75.984375 28.609375 75.984375 
z
" id="DejaVuSans-102"/>
       <path d="M 44.28125 53.078125 
L 44.28125 44.578125 
Q 40.484375 46.53125 36.375 47.5 
Q 32.28125 48.484375 27.875 48.484375 
Q 21.1875 48.484375 17.84375 46.4375 
Q 14.5 44.390625 14.5 40.28125 
Q 14.5 37.15625 16.890625 35.375 
Q 19.28125 33.59375 26.515625 31.984375 
L 29.59375 31.296875 
Q 39.15625 29.25 43.1875 25.515625 
Q 47.21875 21.78125 47.21875 15.09375 
Q 47.21875 7.46875 41.1875 3.015625 
Q 35.15625 -1.421875 24.609375 -1.421875 
Q 20.21875 -1.421875 15.453125 -0.5625 
Q 10.6875 0.296875 5.421875 2 
L 5.421875 11.28125 
Q 10.40625 8.6875 15.234375 7.390625 
Q 20.0625 6.109375 24.8125 6.109375 
Q 31.15625 6.109375 34.5625 8.28125 
Q 37.984375 10.453125 37.984375 14.40625 
Q 37.984375 18.0625 35.515625 20.015625 
Q 33.0625 21.96875 24.703125 23.78125 
L 21.578125 24.515625 
Q 13.234375 26.265625 9.515625 29.90625 
Q 5.8125 33.546875 5.8125 39.890625 
Q 5.8125 47.609375 11.28125 51.796875 
Q 16.75 56 26.8125 56 
Q 31.78125 56 36.171875 55.265625 
Q 40.578125 54.546875 44.28125 53.078125 
z
" id="DejaVuSans-115"/>
      </defs>
      <use xlink:href="#DejaVuSans-99"/>
      <use x="54.980469" xlink:href="#DejaVuSans-117"/>
      <use x="118.359375" xlink:href="#DejaVuSans-109"/>
      <use x="215.771484" xlink:href="#DejaVuSans-117"/>
      <use x="279.150391" xlink:href="#DejaVuSans-108"/>
      <use x="306.933594" xlink:href="#DejaVuSans-97"/>
      <use x="368.212891" xlink:href="#DejaVuSans-116"/>
      <use x="407.421875" xlink:href="#DejaVuSans-105"/>
      <use x="435.205078" xlink:href="#DejaVuSans-118"/>
      <use x="494.384766" xlink:href="#DejaVuSans-101"/>
      <use x="555.908203" xlink:href="#DejaVuSans-32"/>
      <use x="587.695312" xlink:href="#DejaVuSans-110"/>
      <use x="651.074219" xlink:href="#DejaVuSans-117"/>
      <use x="714.453125" xlink:href="#DejaVuSans-109"/>
      <use x="811.865234" xlink:href="#DejaVuSans-98"/>
      <use x="875.341797" xlink:href="#DejaVuSans-101"/>
      <use x="936.865234" xlink:href="#DejaVuSans-114"/>
      <use x="977.978516" xlink:href="#DejaVuSans-32"/>
      <use x="1009.765625" xlink:href="#DejaVuSans-111"/>
      <use x="1070.947266" xlink:href="#DejaVuSans-102"/>
      <use x="1106.152344" xlink:href="#DejaVuSans-32"/>
      <use x="1137.939453" xlink:href="#DejaVuSans-99"/>
      <use x="1192.919922" xlink:href="#DejaVuSans-111"/>
      <use x="1254.101562" xlink:href="#DejaVuSans-114"/>
      <use x="1292.964844" xlink:href="#DejaVuSans-111"/>
      <use x="1354.146484" xlink:href="#DejaVuSans-110"/>
      <use x="1417.525391" xlink:href="#DejaVuSans-97"/>
      <use x="1478.804688" xlink:href="#DejaVuSans-32"/>
      <use x="1510.591797" xlink:href="#DejaVuSans-99"/>
      <use x="1565.572266" xlink:href="#DejaVuSans-97"/>
      <use x="1626.851562" xlink:href="#DejaVuSans-115"/>
      <use x="1678.951172" xlink:href="#DejaVuSans-101"/>
      <use x="1740.474609" xlink:href="#DejaVuSans-115"/>
     </g>
    </g>
   </g>
   <g id="patch_277">
    <path d="M 65.690625 288.430125 
L 65.690625 22.318125 
" style="fill:none;stroke:#000000;stroke-linecap:square;stroke-linejoin:miter;stroke-width:0.8;"/>
   </g>
   <g id="patch_278">
    <path d="M 65.690625 288.430125 
L 422.810625 288.430125 
" style="fill:none;stroke:#000000;stroke-linecap:square;stroke-linejoin:miter;stroke-width:0.8;"/>
   </g>
   <g id="text_18">
    <!-- South Tyrol -->
    <g transform="translate(210.958125 16.318125)scale(0.12 -0.12)">
     <defs>
      <path d="M 53.515625 70.515625 
L 53.515625 60.890625 
Q 47.90625 63.578125 42.921875 64.890625 
Q 37.9375 66.21875 33.296875 66.21875 
Q 25.25 66.21875 20.875 63.09375 
Q 16.5 59.96875 16.5 54.203125 
Q 16.5 49.359375 19.40625 46.890625 
Q 22.3125 44.4375 30.421875 42.921875 
L 36.375 41.703125 
Q 47.40625 39.59375 52.65625 34.296875 
Q 57.90625 29 57.90625 20.125 
Q 57.90625 9.515625 50.796875 4.046875 
Q 43.703125 -1.421875 29.984375 -1.421875 
Q 24.8125 -1.421875 18.96875 -0.25 
Q 13.140625 0.921875 6.890625 3.21875 
L 6.890625 13.375 
Q 12.890625 10.015625 18.65625 8.296875 
Q 24.421875 6.59375 29.984375 6.59375 
Q 38.421875 6.59375 43.015625 9.90625 
Q 47.609375 13.234375 47.609375 19.390625 
Q 47.609375 24.75 44.3125 27.78125 
Q 41.015625 30.8125 33.5 32.328125 
L 27.484375 33.5 
Q 16.453125 35.6875 11.515625 40.375 
Q 6.59375 45.0625 6.59375 53.421875 
Q 6.59375 63.09375 13.40625 68.65625 
Q 20.21875 74.21875 32.171875 74.21875 
Q 37.3125 74.21875 42.625 73.28125 
Q 47.953125 72.359375 53.515625 70.515625 
z
" id="DejaVuSans-83"/>
      <path d="M 54.890625 33.015625 
L 54.890625 0 
L 45.90625 0 
L 45.90625 32.71875 
Q 45.90625 40.484375 42.875 44.328125 
Q 39.84375 48.1875 33.796875 48.1875 
Q 26.515625 48.1875 22.3125 43.546875 
Q 18.109375 38.921875 18.109375 30.90625 
L 18.109375 0 
L 9.078125 0 
L 9.078125 75.984375 
L 18.109375 75.984375 
L 18.109375 46.1875 
Q 21.34375 51.125 25.703125 53.5625 
Q 30.078125 56 35.796875 56 
Q 45.21875 56 50.046875 50.171875 
Q 54.890625 44.34375 54.890625 33.015625 
z
" id="DejaVuSans-104"/>
      <path d="M -0.296875 72.90625 
L 61.375 72.90625 
L 61.375 64.59375 
L 35.5 64.59375 
L 35.5 0 
L 25.59375 0 
L 25.59375 64.59375 
L -0.296875 64.59375 
z
" id="DejaVuSans-84"/>
      <path d="M 32.171875 -5.078125 
Q 28.375 -14.84375 24.75 -17.8125 
Q 21.140625 -20.796875 15.09375 -20.796875 
L 7.90625 -20.796875 
L 7.90625 -13.28125 
L 13.1875 -13.28125 
Q 16.890625 -13.28125 18.9375 -11.515625 
Q 21 -9.765625 23.484375 -3.21875 
L 25.09375 0.875 
L 2.984375 54.6875 
L 12.5 54.6875 
L 29.59375 11.921875 
L 46.6875 54.6875 
L 56.203125 54.6875 
z
" id="DejaVuSans-121"/>
     </defs>
     <use xlink:href="#DejaVuSans-83"/>
     <use x="63.476562" xlink:href="#DejaVuSans-111"/>
     <use x="124.658203" xlink:href="#DejaVuSans-117"/>
     <use x="188.037109" xlink:href="#DejaVuSans-116"/>
     <use x="227.246094" xlink:href="#DejaVuSans-104"/>
     <use x="290.625" xlink:href="#DejaVuSans-32"/>
     <use x="322.412109" xlink:href="#DejaVuSans-84"/>
     <use x="367.871094" xlink:href="#DejaVuSans-121"/>
     <use x="427.050781" xlink:href="#DejaVuSans-114"/>
     <use x="465.914062" xlink:href="#DejaVuSans-111"/>
     <use x="527.095703" xlink:href="#DejaVuSans-108"/>
    </g>
   </g>
  </g>
 </g>
 <defs>
  <clipPath id="p4a0482df69">
   <rect height="266.112" width="357.12" x="65.690625" y="22.318125"/>
  </clipPath>
 </defs>
</svg>
