<?xml version="1.0" encoding="utf-8" standalone="no"?>
<!DOCTYPE svg PUBLIC "-//W3C//DTD SVG 1.1//EN"
  "http://www.w3.org/Graphics/SVG/1.1/DTD/svg11.dtd">
<!-- Created with matplotlib (https://matplotlib.org/) -->
<svg height="364.091062pt" version="1.1" viewBox="0 0 430.133008 364.091062" width="430.133008pt" xmlns="http://www.w3.org/2000/svg" xmlns:xlink="http://www.w3.org/1999/xlink">
 <metadata>
  <rdf:RDF xmlns:cc="http://creativecommons.org/ns#" xmlns:dc="http://purl.org/dc/elements/1.1/" xmlns:rdf="http://www.w3.org/1999/02/22-rdf-syntax-ns#">
   <cc:Work>
    <dc:type rdf:resource="http://purl.org/dc/dcmitype/StillImage"/>
    <dc:date>2020-12-04T14:34:00.656307</dc:date>
    <dc:format>image/svg+xml</dc:format>
    <dc:creator>
     <cc:Agent>
      <dc:title>Matplotlib v3.3.3, https://matplotlib.org/</dc:title>
     </cc:Agent>
    </dc:creator>
   </cc:Work>
  </rdf:RDF>
 </metadata>
 <defs>
  <style type="text/css">*{stroke-linecap:butt;stroke-linejoin:round;}</style>
 </defs>
 <g id="figure_1">
  <g id="patch_1">
   <path d="M 0 364.091062 
L 430.133008 364.091062 
L 430.133008 0 
L 0 0 
z
" style="fill:#ffffff;"/>
  </g>
  <g id="axes_1">
   <g id="patch_2">
    <path d="M 65.690625 288.430125 
L 422.810625 288.430125 
L 422.810625 22.318125 
L 65.690625 22.318125 
z
" style="fill:#ffffff;"/>
   </g>
   <g id="patch_3">
    <path clip-path="url(#pf59516b381)" d="M 65.825387 288.430125 
L 66.903485 288.430125 
L 66.903485 286.22386 
L 65.825387 286.22386 
z
" style="fill:#1f77b4;"/>
   </g>
   <g id="patch_4">
    <path clip-path="url(#pf59516b381)" d="M 67.17301 288.430125 
L 68.251108 288.430125 
L 68.251108 285.816879 
L 67.17301 285.816879 
z
" style="fill:#1f77b4;"/>
   </g>
   <g id="patch_5">
    <path clip-path="url(#pf59516b381)" d="M 68.520633 288.430125 
L 69.598731 288.430125 
L 69.598731 285.292088 
L 68.520633 285.292088 
z
" style="fill:#1f77b4;"/>
   </g>
   <g id="patch_6">
    <path clip-path="url(#pf59516b381)" d="M 69.868255 288.430125 
L 70.946353 288.430125 
L 70.946353 284.328185 
L 69.868255 284.328185 
z
" style="fill:#1f77b4;"/>
   </g>
   <g id="patch_7">
    <path clip-path="url(#pf59516b381)" d="M 71.215878 288.430125 
L 72.293976 288.430125 
L 72.293976 283.707004 
L 71.215878 283.707004 
z
" style="fill:#1f77b4;"/>
   </g>
   <g id="patch_8">
    <path clip-path="url(#pf59516b381)" d="M 72.5635 288.430125 
L 73.641599 288.430125 
L 73.641599 282.486061 
L 72.5635 282.486061 
z
" style="fill:#1f77b4;"/>
   </g>
   <g id="patch_9">
    <path clip-path="url(#pf59516b381)" d="M 73.911123 288.430125 
L 74.989221 288.430125 
L 74.989221 281.757779 
L 73.911123 281.757779 
z
" style="fill:#1f77b4;"/>
   </g>
   <g id="patch_10">
    <path clip-path="url(#pf59516b381)" d="M 75.258746 288.430125 
L 76.336844 288.430125 
L 76.336844 281.125888 
L 75.258746 281.125888 
z
" style="fill:#1f77b4;"/>
   </g>
   <g id="patch_11">
    <path clip-path="url(#pf59516b381)" d="M 76.606368 288.430125 
L 77.684467 288.430125 
L 77.684467 280.676067 
L 76.606368 280.676067 
z
" style="fill:#1f77b4;"/>
   </g>
   <g id="patch_12">
    <path clip-path="url(#pf59516b381)" d="M 77.953991 288.430125 
L 79.032089 288.430125 
L 79.032089 279.979915 
L 77.953991 279.979915 
z
" style="fill:#1f77b4;"/>
   </g>
   <g id="patch_13">
    <path clip-path="url(#pf59516b381)" d="M 79.301614 288.430125 
L 80.379712 288.430125 
L 80.379712 279.476544 
L 79.301614 279.476544 
z
" style="fill:#1f77b4;"/>
   </g>
   <g id="patch_14">
    <path clip-path="url(#pf59516b381)" d="M 80.649236 288.430125 
L 81.727334 288.430125 
L 81.727334 278.684002 
L 80.649236 278.684002 
z
" style="fill:#1f77b4;"/>
   </g>
   <g id="patch_15">
    <path clip-path="url(#pf59516b381)" d="M 81.996859 288.430125 
L 83.074957 288.430125 
L 83.074957 277.68797 
L 81.996859 277.68797 
z
" style="fill:#1f77b4;"/>
   </g>
   <g id="patch_16">
    <path clip-path="url(#pf59516b381)" d="M 83.344482 288.430125 
L 84.42258 288.430125 
L 84.42258 276.841878 
L 83.344482 276.841878 
z
" style="fill:#1f77b4;"/>
   </g>
   <g id="patch_17">
    <path clip-path="url(#pf59516b381)" d="M 84.692104 288.430125 
L 85.770202 288.430125 
L 85.770202 275.524544 
L 84.692104 275.524544 
z
" style="fill:#1f77b4;"/>
   </g>
   <g id="patch_18">
    <path clip-path="url(#pf59516b381)" d="M 86.039727 288.430125 
L 87.117825 288.430125 
L 87.117825 274.592772 
L 86.039727 274.592772 
z
" style="fill:#1f77b4;"/>
   </g>
   <g id="patch_19">
    <path clip-path="url(#pf59516b381)" d="M 87.38735 288.430125 
L 88.465448 288.430125 
L 88.465448 273.950171 
L 87.38735 273.950171 
z
" style="fill:#1f77b4;"/>
   </g>
   <g id="patch_20">
    <path clip-path="url(#pf59516b381)" d="M 88.734972 288.430125 
L 89.81307 288.430125 
L 89.81307 273.45751 
L 88.734972 273.45751 
z
" style="fill:#1f77b4;"/>
   </g>
   <g id="patch_21">
    <path clip-path="url(#pf59516b381)" d="M 90.082595 288.430125 
L 91.160693 288.430125 
L 91.160693 272.975558 
L 90.082595 272.975558 
z
" style="fill:#1f77b4;"/>
   </g>
   <g id="patch_22">
    <path clip-path="url(#pf59516b381)" d="M 91.430217 288.430125 
L 92.508316 288.430125 
L 92.508316 272.129466 
L 91.430217 272.129466 
z
" style="fill:#1f77b4;"/>
   </g>
   <g id="patch_23">
    <path clip-path="url(#pf59516b381)" d="M 92.77784 288.430125 
L 93.855938 288.430125 
L 93.855938 271.176274 
L 92.77784 271.176274 
z
" style="fill:#1f77b4;"/>
   </g>
   <g id="patch_24">
    <path clip-path="url(#pf59516b381)" d="M 94.125463 288.430125 
L 95.203561 288.430125 
L 95.203561 270.726453 
L 94.125463 270.726453 
z
" style="fill:#1f77b4;"/>
   </g>
   <g id="patch_25">
    <path clip-path="url(#pf59516b381)" d="M 95.473085 288.430125 
L 96.551183 288.430125 
L 96.551183 269.880361 
L 95.473085 269.880361 
z
" style="fill:#1f77b4;"/>
   </g>
   <g id="patch_26">
    <path clip-path="url(#pf59516b381)" d="M 96.820708 288.430125 
L 97.898806 288.430125 
L 97.898806 269.24847 
L 96.820708 269.24847 
z
" style="fill:#1f77b4;"/>
   </g>
   <g id="patch_27">
    <path clip-path="url(#pf59516b381)" d="M 98.168331 288.430125 
L 99.246429 288.430125 
L 99.246429 268.520188 
L 98.168331 268.520188 
z
" style="fill:#1f77b4;"/>
   </g>
   <g id="patch_28">
    <path clip-path="url(#pf59516b381)" d="M 99.515953 288.430125 
L 100.594051 288.430125 
L 100.594051 267.963267 
L 99.515953 267.963267 
z
" style="fill:#1f77b4;"/>
   </g>
   <g id="patch_29">
    <path clip-path="url(#pf59516b381)" d="M 100.863576 288.430125 
L 101.941674 288.430125 
L 101.941674 267.288535 
L 100.863576 267.288535 
z
" style="fill:#1f77b4;"/>
   </g>
   <g id="patch_30">
    <path clip-path="url(#pf59516b381)" d="M 102.211199 288.430125 
L 103.289297 288.430125 
L 103.289297 266.570963 
L 102.211199 266.570963 
z
" style="fill:#1f77b4;"/>
   </g>
   <g id="patch_31">
    <path clip-path="url(#pf59516b381)" d="M 103.558821 288.430125 
L 104.636919 288.430125 
L 104.636919 266.003332 
L 103.558821 266.003332 
z
" style="fill:#1f77b4;"/>
   </g>
   <g id="patch_32">
    <path clip-path="url(#pf59516b381)" d="M 104.906444 288.430125 
L 105.984542 288.430125 
L 105.984542 265.457121 
L 104.906444 265.457121 
z
" style="fill:#1f77b4;"/>
   </g>
   <g id="patch_33">
    <path clip-path="url(#pf59516b381)" d="M 106.254067 288.430125 
L 107.332165 288.430125 
L 107.332165 265.08227 
L 106.254067 265.08227 
z
" style="fill:#1f77b4;"/>
   </g>
   <g id="patch_34">
    <path clip-path="url(#pf59516b381)" d="M 107.601689 288.430125 
L 108.679787 288.430125 
L 108.679787 264.611029 
L 107.601689 264.611029 
z
" style="fill:#1f77b4;"/>
   </g>
   <g id="patch_35">
    <path clip-path="url(#pf59516b381)" d="M 108.949312 288.430125 
L 110.02741 288.430125 
L 110.02741 264.139787 
L 108.949312 264.139787 
z
" style="fill:#1f77b4;"/>
   </g>
   <g id="patch_36">
    <path clip-path="url(#pf59516b381)" d="M 110.296934 288.430125 
L 111.375033 288.430125 
L 111.375033 263.839907 
L 110.296934 263.839907 
z
" style="fill:#1f77b4;"/>
   </g>
   <g id="patch_37">
    <path clip-path="url(#pf59516b381)" d="M 111.644557 288.430125 
L 112.722655 288.430125 
L 112.722655 263.529316 
L 111.644557 263.529316 
z
" style="fill:#1f77b4;"/>
   </g>
   <g id="patch_38">
    <path clip-path="url(#pf59516b381)" d="M 112.99218 288.430125 
L 114.070278 288.430125 
L 114.070278 262.940265 
L 112.99218 262.940265 
z
" style="fill:#1f77b4;"/>
   </g>
   <g id="patch_39">
    <path clip-path="url(#pf59516b381)" d="M 114.339802 288.430125 
L 115.4179 288.430125 
L 115.4179 262.779614 
L 114.339802 262.779614 
z
" style="fill:#1f77b4;"/>
   </g>
   <g id="patch_40">
    <path clip-path="url(#pf59516b381)" d="M 115.687425 288.430125 
L 116.765523 288.430125 
L 116.765523 262.597544 
L 115.687425 262.597544 
z
" style="fill:#1f77b4;"/>
   </g>
   <g id="patch_41">
    <path clip-path="url(#pf59516b381)" d="M 117.035048 288.430125 
L 118.113146 288.430125 
L 118.113146 262.554704 
L 117.035048 262.554704 
z
" style="fill:#1f77b4;"/>
   </g>
   <g id="patch_42">
    <path clip-path="url(#pf59516b381)" d="M 118.38267 288.430125 
L 119.460768 288.430125 
L 119.460768 262.351213 
L 118.38267 262.351213 
z
" style="fill:#1f77b4;"/>
   </g>
   <g id="patch_43">
    <path clip-path="url(#pf59516b381)" d="M 119.730293 288.430125 
L 120.808391 288.430125 
L 120.808391 262.126303 
L 119.730293 262.126303 
z
" style="fill:#1f77b4;"/>
   </g>
   <g id="patch_44">
    <path clip-path="url(#pf59516b381)" d="M 121.077916 288.430125 
L 122.156014 288.430125 
L 122.156014 261.912102 
L 121.077916 261.912102 
z
" style="fill:#1f77b4;"/>
   </g>
   <g id="patch_45">
    <path clip-path="url(#pf59516b381)" d="M 122.425538 288.430125 
L 123.503636 288.430125 
L 123.503636 261.858552 
L 122.425538 261.858552 
z
" style="fill:#1f77b4;"/>
   </g>
   <g id="patch_46">
    <path clip-path="url(#pf59516b381)" d="M 123.773161 288.430125 
L 124.851259 288.430125 
L 124.851259 261.697902 
L 123.773161 261.697902 
z
" style="fill:#1f77b4;"/>
   </g>
   <g id="patch_47">
    <path clip-path="url(#pf59516b381)" d="M 125.120783 288.430125 
L 126.198882 288.430125 
L 126.198882 261.676482 
L 125.120783 261.676482 
z
" style="fill:#1f77b4;"/>
   </g>
   <g id="patch_48">
    <path clip-path="url(#pf59516b381)" d="M 126.468406 288.430125 
L 127.546504 288.430125 
L 127.546504 261.580091 
L 126.468406 261.580091 
z
" style="fill:#1f77b4;"/>
   </g>
   <g id="patch_49">
    <path clip-path="url(#pf59516b381)" d="M 127.816029 288.430125 
L 128.894127 288.430125 
L 128.894127 261.462281 
L 127.816029 261.462281 
z
" style="fill:#1f77b4;"/>
   </g>
   <g id="patch_50">
    <path clip-path="url(#pf59516b381)" d="M 129.163651 288.430125 
L 130.24175 288.430125 
L 130.24175 261.355181 
L 129.163651 261.355181 
z
" style="fill:#1f77b4;"/>
   </g>
   <g id="patch_51">
    <path clip-path="url(#pf59516b381)" d="M 130.511274 288.430125 
L 131.589372 288.430125 
L 131.589372 261.280211 
L 130.511274 261.280211 
z
" style="fill:#1f77b4;"/>
   </g>
   <g id="patch_52">
    <path clip-path="url(#pf59516b381)" d="M 131.858897 288.430125 
L 132.936995 288.430125 
L 132.936995 261.269501 
L 131.858897 261.269501 
z
" style="fill:#1f77b4;"/>
   </g>
   <g id="patch_53">
    <path clip-path="url(#pf59516b381)" d="M 133.206519 288.430125 
L 134.284617 288.430125 
L 134.284617 261.215951 
L 133.206519 261.215951 
z
" style="fill:#1f77b4;"/>
   </g>
   <g id="patch_54">
    <path clip-path="url(#pf59516b381)" d="M 134.554142 288.430125 
L 135.63224 288.430125 
L 135.63224 261.205241 
L 134.554142 261.205241 
z
" style="fill:#1f77b4;"/>
   </g>
   <g id="patch_55">
    <path clip-path="url(#pf59516b381)" d="M 135.901765 288.430125 
L 136.979863 288.430125 
L 136.979863 261.194531 
L 135.901765 261.194531 
z
" style="fill:#1f77b4;"/>
   </g>
   <g id="patch_56">
    <path clip-path="url(#pf59516b381)" d="M 137.249387 288.430125 
L 138.327485 288.430125 
L 138.327485 261.09814 
L 137.249387 261.09814 
z
" style="fill:#1f77b4;"/>
   </g>
   <g id="patch_57">
    <path clip-path="url(#pf59516b381)" d="M 138.59701 288.430125 
L 139.675108 288.430125 
L 139.675108 261.03388 
L 138.59701 261.03388 
z
" style="fill:#1f77b4;"/>
   </g>
   <g id="patch_58">
    <path clip-path="url(#pf59516b381)" d="M 139.944633 288.430125 
L 141.022731 288.430125 
L 141.022731 260.93749 
L 139.944633 260.93749 
z
" style="fill:#1f77b4;"/>
   </g>
   <g id="patch_59">
    <path clip-path="url(#pf59516b381)" d="M 141.292255 288.430125 
L 142.370353 288.430125 
L 142.370353 260.91607 
L 141.292255 260.91607 
z
" style="fill:#1f77b4;"/>
   </g>
   <g id="patch_60">
    <path clip-path="url(#pf59516b381)" d="M 142.639878 288.430125 
L 143.717976 288.430125 
L 143.717976 260.88394 
L 142.639878 260.88394 
z
" style="fill:#1f77b4;"/>
   </g>
   <g id="patch_61">
    <path clip-path="url(#pf59516b381)" d="M 143.9875 288.430125 
L 145.065599 288.430125 
L 145.065599 260.88394 
L 143.9875 260.88394 
z
" style="fill:#1f77b4;"/>
   </g>
   <g id="patch_62">
    <path clip-path="url(#pf59516b381)" d="M 145.335123 288.430125 
L 146.413221 288.430125 
L 146.413221 260.85181 
L 145.335123 260.85181 
z
" style="fill:#1f77b4;"/>
   </g>
   <g id="patch_63">
    <path clip-path="url(#pf59516b381)" d="M 146.682746 288.430125 
L 147.760844 288.430125 
L 147.760844 260.81968 
L 146.682746 260.81968 
z
" style="fill:#1f77b4;"/>
   </g>
   <g id="patch_64">
    <path clip-path="url(#pf59516b381)" d="M 148.030368 288.430125 
L 149.108467 288.430125 
L 149.108467 260.81968 
L 148.030368 260.81968 
z
" style="fill:#1f77b4;"/>
   </g>
   <g id="patch_65">
    <path clip-path="url(#pf59516b381)" d="M 149.377991 288.430125 
L 150.456089 288.430125 
L 150.456089 260.81968 
L 149.377991 260.81968 
z
" style="fill:#1f77b4;"/>
   </g>
   <g id="patch_66">
    <path clip-path="url(#pf59516b381)" d="M 150.725614 288.430125 
L 151.803712 288.430125 
L 151.803712 260.79826 
L 150.725614 260.79826 
z
" style="fill:#1f77b4;"/>
   </g>
   <g id="patch_67">
    <path clip-path="url(#pf59516b381)" d="M 152.073236 288.430125 
L 153.151334 288.430125 
L 153.151334 260.77684 
L 152.073236 260.77684 
z
" style="fill:#1f77b4;"/>
   </g>
   <g id="patch_68">
    <path clip-path="url(#pf59516b381)" d="M 153.420859 288.430125 
L 154.498957 288.430125 
L 154.498957 260.723289 
L 153.420859 260.723289 
z
" style="fill:#1f77b4;"/>
   </g>
   <g id="patch_69">
    <path clip-path="url(#pf59516b381)" d="M 154.768482 288.430125 
L 155.84658 288.430125 
L 155.84658 260.723289 
L 154.768482 260.723289 
z
" style="fill:#1f77b4;"/>
   </g>
   <g id="patch_70">
    <path clip-path="url(#pf59516b381)" d="M 156.116104 288.430125 
L 157.194202 288.430125 
L 157.194202 260.723289 
L 156.116104 260.723289 
z
" style="fill:#1f77b4;"/>
   </g>
   <g id="patch_71">
    <path clip-path="url(#pf59516b381)" d="M 157.463727 288.430125 
L 158.541825 288.430125 
L 158.541825 260.691159 
L 157.463727 260.691159 
z
" style="fill:#1f77b4;"/>
   </g>
   <g id="patch_72">
    <path clip-path="url(#pf59516b381)" d="M 158.81135 288.430125 
L 159.889448 288.430125 
L 159.889448 260.691159 
L 158.81135 260.691159 
z
" style="fill:#1f77b4;"/>
   </g>
   <g id="patch_73">
    <path clip-path="url(#pf59516b381)" d="M 160.158972 288.430125 
L 161.23707 288.430125 
L 161.23707 260.669739 
L 160.158972 260.669739 
z
" style="fill:#1f77b4;"/>
   </g>
   <g id="patch_74">
    <path clip-path="url(#pf59516b381)" d="M 161.506595 288.430125 
L 162.584693 288.430125 
L 162.584693 260.669739 
L 161.506595 260.669739 
z
" style="fill:#1f77b4;"/>
   </g>
   <g id="patch_75">
    <path clip-path="url(#pf59516b381)" d="M 162.854217 288.430125 
L 163.932316 288.430125 
L 163.932316 260.659029 
L 162.854217 260.659029 
z
" style="fill:#1f77b4;"/>
   </g>
   <g id="patch_76">
    <path clip-path="url(#pf59516b381)" d="M 164.20184 288.430125 
L 165.279938 288.430125 
L 165.279938 260.659029 
L 164.20184 260.659029 
z
" style="fill:#1f77b4;"/>
   </g>
   <g id="patch_77">
    <path clip-path="url(#pf59516b381)" d="M 165.549463 288.430125 
L 166.627561 288.430125 
L 166.627561 260.637609 
L 165.549463 260.637609 
z
" style="fill:#1f77b4;"/>
   </g>
   <g id="patch_78">
    <path clip-path="url(#pf59516b381)" d="M 166.897085 288.430125 
L 167.975183 288.430125 
L 167.975183 260.637609 
L 166.897085 260.637609 
z
" style="fill:#1f77b4;"/>
   </g>
   <g id="patch_79">
    <path clip-path="url(#pf59516b381)" d="M 168.244708 288.430125 
L 169.322806 288.430125 
L 169.322806 260.626899 
L 168.244708 260.626899 
z
" style="fill:#1f77b4;"/>
   </g>
   <g id="patch_80">
    <path clip-path="url(#pf59516b381)" d="M 169.592331 288.430125 
L 170.670429 288.430125 
L 170.670429 260.616189 
L 169.592331 260.616189 
z
" style="fill:#1f77b4;"/>
   </g>
   <g id="patch_81">
    <path clip-path="url(#pf59516b381)" d="M 170.939953 288.430125 
L 172.018051 288.430125 
L 172.018051 260.616189 
L 170.939953 260.616189 
z
" style="fill:#1f77b4;"/>
   </g>
   <g id="patch_82">
    <path clip-path="url(#pf59516b381)" d="M 172.287576 288.430125 
L 173.365674 288.430125 
L 173.365674 260.616189 
L 172.287576 260.616189 
z
" style="fill:#1f77b4;"/>
   </g>
   <g id="patch_83">
    <path clip-path="url(#pf59516b381)" d="M 173.635199 288.430125 
L 174.713297 288.430125 
L 174.713297 260.616189 
L 173.635199 260.616189 
z
" style="fill:#1f77b4;"/>
   </g>
   <g id="patch_84">
    <path clip-path="url(#pf59516b381)" d="M 174.982821 288.430125 
L 176.060919 288.430125 
L 176.060919 260.616189 
L 174.982821 260.616189 
z
" style="fill:#1f77b4;"/>
   </g>
   <g id="patch_85">
    <path clip-path="url(#pf59516b381)" d="M 176.330444 288.430125 
L 177.408542 288.430125 
L 177.408542 260.605479 
L 176.330444 260.605479 
z
" style="fill:#1f77b4;"/>
   </g>
   <g id="patch_86">
    <path clip-path="url(#pf59516b381)" d="M 177.678067 288.430125 
L 178.756165 288.430125 
L 178.756165 260.594769 
L 177.678067 260.594769 
z
" style="fill:#1f77b4;"/>
   </g>
   <g id="patch_87">
    <path clip-path="url(#pf59516b381)" d="M 179.025689 288.430125 
L 180.103787 288.430125 
L 180.103787 260.562639 
L 179.025689 260.562639 
z
" style="fill:#1f77b4;"/>
   </g>
   <g id="patch_88">
    <path clip-path="url(#pf59516b381)" d="M 180.373312 288.430125 
L 181.45141 288.430125 
L 181.45141 260.562639 
L 180.373312 260.562639 
z
" style="fill:#1f77b4;"/>
   </g>
   <g id="patch_89">
    <path clip-path="url(#pf59516b381)" d="M 181.720934 288.430125 
L 182.799033 288.430125 
L 182.799033 260.562639 
L 181.720934 260.562639 
z
" style="fill:#1f77b4;"/>
   </g>
   <g id="patch_90">
    <path clip-path="url(#pf59516b381)" d="M 183.068557 288.430125 
L 184.146655 288.430125 
L 184.146655 260.562639 
L 183.068557 260.562639 
z
" style="fill:#1f77b4;"/>
   </g>
   <g id="patch_91">
    <path clip-path="url(#pf59516b381)" d="M 184.41618 288.430125 
L 185.494278 288.430125 
L 185.494278 260.519799 
L 184.41618 260.519799 
z
" style="fill:#1f77b4;"/>
   </g>
   <g id="patch_92">
    <path clip-path="url(#pf59516b381)" d="M 185.763802 288.430125 
L 186.8419 288.430125 
L 186.8419 260.498379 
L 185.763802 260.498379 
z
" style="fill:#1f77b4;"/>
   </g>
   <g id="patch_93">
    <path clip-path="url(#pf59516b381)" d="M 187.111425 288.430125 
L 188.189523 288.430125 
L 188.189523 260.476959 
L 187.111425 260.476959 
z
" style="fill:#1f77b4;"/>
   </g>
   <g id="patch_94">
    <path clip-path="url(#pf59516b381)" d="M 188.459048 288.430125 
L 189.537146 288.430125 
L 189.537146 260.466249 
L 188.459048 260.466249 
z
" style="fill:#1f77b4;"/>
   </g>
   <g id="patch_95">
    <path clip-path="url(#pf59516b381)" d="M 189.80667 288.430125 
L 190.884768 288.430125 
L 190.884768 260.466249 
L 189.80667 260.466249 
z
" style="fill:#1f77b4;"/>
   </g>
   <g id="patch_96">
    <path clip-path="url(#pf59516b381)" d="M 191.154293 288.430125 
L 192.232391 288.430125 
L 192.232391 260.466249 
L 191.154293 260.466249 
z
" style="fill:#1f77b4;"/>
   </g>
   <g id="patch_97">
    <path clip-path="url(#pf59516b381)" d="M 192.501916 288.430125 
L 193.580014 288.430125 
L 193.580014 260.466249 
L 192.501916 260.466249 
z
" style="fill:#1f77b4;"/>
   </g>
   <g id="patch_98">
    <path clip-path="url(#pf59516b381)" d="M 193.849538 288.430125 
L 194.927636 288.430125 
L 194.927636 260.444829 
L 193.849538 260.444829 
z
" style="fill:#1f77b4;"/>
   </g>
   <g id="patch_99">
    <path clip-path="url(#pf59516b381)" d="M 195.197161 288.430125 
L 196.275259 288.430125 
L 196.275259 260.423409 
L 195.197161 260.423409 
z
" style="fill:#1f77b4;"/>
   </g>
   <g id="patch_100">
    <path clip-path="url(#pf59516b381)" d="M 196.544783 288.430125 
L 197.622882 288.430125 
L 197.622882 260.391279 
L 196.544783 260.391279 
z
" style="fill:#1f77b4;"/>
   </g>
   <g id="patch_101">
    <path clip-path="url(#pf59516b381)" d="M 197.892406 288.430125 
L 198.970504 288.430125 
L 198.970504 260.348439 
L 197.892406 260.348439 
z
" style="fill:#1f77b4;"/>
   </g>
   <g id="patch_102">
    <path clip-path="url(#pf59516b381)" d="M 199.240029 288.430125 
L 200.318127 288.430125 
L 200.318127 260.230628 
L 199.240029 260.230628 
z
" style="fill:#1f77b4;"/>
   </g>
   <g id="patch_103">
    <path clip-path="url(#pf59516b381)" d="M 200.587651 288.430125 
L 201.66575 288.430125 
L 201.66575 260.230628 
L 200.587651 260.230628 
z
" style="fill:#1f77b4;"/>
   </g>
   <g id="patch_104">
    <path clip-path="url(#pf59516b381)" d="M 201.935274 288.430125 
L 203.013372 288.430125 
L 203.013372 260.219918 
L 201.935274 260.219918 
z
" style="fill:#1f77b4;"/>
   </g>
   <g id="patch_105">
    <path clip-path="url(#pf59516b381)" d="M 203.282897 288.430125 
L 204.360995 288.430125 
L 204.360995 260.219918 
L 203.282897 260.219918 
z
" style="fill:#1f77b4;"/>
   </g>
   <g id="patch_106">
    <path clip-path="url(#pf59516b381)" d="M 204.630519 288.430125 
L 205.708617 288.430125 
L 205.708617 260.219918 
L 204.630519 260.219918 
z
" style="fill:#1f77b4;"/>
   </g>
   <g id="patch_107">
    <path clip-path="url(#pf59516b381)" d="M 205.978142 288.430125 
L 207.05624 288.430125 
L 207.05624 260.198498 
L 205.978142 260.198498 
z
" style="fill:#1f77b4;"/>
   </g>
   <g id="patch_108">
    <path clip-path="url(#pf59516b381)" d="M 207.325765 288.430125 
L 208.403863 288.430125 
L 208.403863 260.187788 
L 207.325765 260.187788 
z
" style="fill:#1f77b4;"/>
   </g>
   <g id="patch_109">
    <path clip-path="url(#pf59516b381)" d="M 208.673387 288.430125 
L 209.751485 288.430125 
L 209.751485 260.166368 
L 208.673387 260.166368 
z
" style="fill:#1f77b4;"/>
   </g>
   <g id="patch_110">
    <path clip-path="url(#pf59516b381)" d="M 210.02101 288.430125 
L 211.099108 288.430125 
L 211.099108 260.166368 
L 210.02101 260.166368 
z
" style="fill:#1f77b4;"/>
   </g>
   <g id="patch_111">
    <path clip-path="url(#pf59516b381)" d="M 211.368633 288.430125 
L 212.446731 288.430125 
L 212.446731 260.144948 
L 211.368633 260.144948 
z
" style="fill:#1f77b4;"/>
   </g>
   <g id="patch_112">
    <path clip-path="url(#pf59516b381)" d="M 212.716255 288.430125 
L 213.794353 288.430125 
L 213.794353 260.134238 
L 212.716255 260.134238 
z
" style="fill:#1f77b4;"/>
   </g>
   <g id="patch_113">
    <path clip-path="url(#pf59516b381)" d="M 214.063878 288.430125 
L 215.141976 288.430125 
L 215.141976 260.134238 
L 214.063878 260.134238 
z
" style="fill:#1f77b4;"/>
   </g>
   <g id="patch_114">
    <path clip-path="url(#pf59516b381)" d="M 215.4115 288.430125 
L 216.489599 288.430125 
L 216.489599 260.091398 
L 215.4115 260.091398 
z
" style="fill:#1f77b4;"/>
   </g>
   <g id="patch_115">
    <path clip-path="url(#pf59516b381)" d="M 216.759123 288.430125 
L 217.837221 288.430125 
L 217.837221 260.080688 
L 216.759123 260.080688 
z
" style="fill:#1f77b4;"/>
   </g>
   <g id="patch_116">
    <path clip-path="url(#pf59516b381)" d="M 218.106746 288.430125 
L 219.184844 288.430125 
L 219.184844 260.080688 
L 218.106746 260.080688 
z
" style="fill:#1f77b4;"/>
   </g>
   <g id="patch_117">
    <path clip-path="url(#pf59516b381)" d="M 219.454368 288.430125 
L 220.532467 288.430125 
L 220.532467 260.069978 
L 219.454368 260.069978 
z
" style="fill:#1f77b4;"/>
   </g>
   <g id="patch_118">
    <path clip-path="url(#pf59516b381)" d="M 220.801991 288.430125 
L 221.880089 288.430125 
L 221.880089 260.048558 
L 220.801991 260.048558 
z
" style="fill:#1f77b4;"/>
   </g>
   <g id="patch_119">
    <path clip-path="url(#pf59516b381)" d="M 222.149614 288.430125 
L 223.227712 288.430125 
L 223.227712 260.016428 
L 222.149614 260.016428 
z
" style="fill:#1f77b4;"/>
   </g>
   <g id="patch_120">
    <path clip-path="url(#pf59516b381)" d="M 223.497236 288.430125 
L 224.575334 288.430125 
L 224.575334 259.962878 
L 223.497236 259.962878 
z
" style="fill:#1f77b4;"/>
   </g>
   <g id="patch_121">
    <path clip-path="url(#pf59516b381)" d="M 224.844859 288.430125 
L 225.922957 288.430125 
L 225.922957 259.930748 
L 224.844859 259.930748 
z
" style="fill:#1f77b4;"/>
   </g>
   <g id="patch_122">
    <path clip-path="url(#pf59516b381)" d="M 226.192482 288.430125 
L 227.27058 288.430125 
L 227.27058 259.877197 
L 226.192482 259.877197 
z
" style="fill:#1f77b4;"/>
   </g>
   <g id="patch_123">
    <path clip-path="url(#pf59516b381)" d="M 227.540104 288.430125 
L 228.618202 288.430125 
L 228.618202 259.802227 
L 227.540104 259.802227 
z
" style="fill:#1f77b4;"/>
   </g>
   <g id="patch_124">
    <path clip-path="url(#pf59516b381)" d="M 228.887727 288.430125 
L 229.965825 288.430125 
L 229.965825 259.791517 
L 228.887727 259.791517 
z
" style="fill:#1f77b4;"/>
   </g>
   <g id="patch_125">
    <path clip-path="url(#pf59516b381)" d="M 230.23535 288.430125 
L 231.313448 288.430125 
L 231.313448 259.759387 
L 230.23535 259.759387 
z
" style="fill:#1f77b4;"/>
   </g>
   <g id="patch_126">
    <path clip-path="url(#pf59516b381)" d="M 231.582972 288.430125 
L 232.66107 288.430125 
L 232.66107 259.748677 
L 231.582972 259.748677 
z
" style="fill:#1f77b4;"/>
   </g>
   <g id="patch_127">
    <path clip-path="url(#pf59516b381)" d="M 232.930595 288.430125 
L 234.008693 288.430125 
L 234.008693 259.705837 
L 232.930595 259.705837 
z
" style="fill:#1f77b4;"/>
   </g>
   <g id="patch_128">
    <path clip-path="url(#pf59516b381)" d="M 234.278217 288.430125 
L 235.356316 288.430125 
L 235.356316 259.695127 
L 234.278217 259.695127 
z
" style="fill:#1f77b4;"/>
   </g>
   <g id="patch_129">
    <path clip-path="url(#pf59516b381)" d="M 235.62584 288.430125 
L 236.703938 288.430125 
L 236.703938 259.684417 
L 235.62584 259.684417 
z
" style="fill:#1f77b4;"/>
   </g>
   <g id="patch_130">
    <path clip-path="url(#pf59516b381)" d="M 236.973463 288.430125 
L 238.051561 288.430125 
L 238.051561 259.684417 
L 236.973463 259.684417 
z
" style="fill:#1f77b4;"/>
   </g>
   <g id="patch_131">
    <path clip-path="url(#pf59516b381)" d="M 238.321085 288.430125 
L 239.399183 288.430125 
L 239.399183 259.673707 
L 238.321085 259.673707 
z
" style="fill:#1f77b4;"/>
   </g>
   <g id="patch_132">
    <path clip-path="url(#pf59516b381)" d="M 239.668708 288.430125 
L 240.746806 288.430125 
L 240.746806 259.673707 
L 239.668708 259.673707 
z
" style="fill:#1f77b4;"/>
   </g>
   <g id="patch_133">
    <path clip-path="url(#pf59516b381)" d="M 241.016331 288.430125 
L 242.094429 288.430125 
L 242.094429 259.662997 
L 241.016331 259.662997 
z
" style="fill:#1f77b4;"/>
   </g>
   <g id="patch_134">
    <path clip-path="url(#pf59516b381)" d="M 242.363953 288.430125 
L 243.442051 288.430125 
L 243.442051 259.652287 
L 242.363953 259.652287 
z
" style="fill:#1f77b4;"/>
   </g>
   <g id="patch_135">
    <path clip-path="url(#pf59516b381)" d="M 243.711576 288.430125 
L 244.789674 288.430125 
L 244.789674 259.588027 
L 243.711576 259.588027 
z
" style="fill:#1f77b4;"/>
   </g>
   <g id="patch_136">
    <path clip-path="url(#pf59516b381)" d="M 245.059199 288.430125 
L 246.137297 288.430125 
L 246.137297 259.534477 
L 245.059199 259.534477 
z
" style="fill:#1f77b4;"/>
   </g>
   <g id="patch_137">
    <path clip-path="url(#pf59516b381)" d="M 246.406821 288.430125 
L 247.484919 288.430125 
L 247.484919 259.513057 
L 246.406821 259.513057 
z
" style="fill:#1f77b4;"/>
   </g>
   <g id="patch_138">
    <path clip-path="url(#pf59516b381)" d="M 247.754444 288.430125 
L 248.832542 288.430125 
L 248.832542 259.598737 
L 247.754444 259.598737 
z
" style="fill:#1f77b4;"/>
   </g>
   <g id="patch_139">
    <path clip-path="url(#pf59516b381)" d="M 249.102067 288.430125 
L 250.180165 288.430125 
L 250.180165 259.555897 
L 249.102067 259.555897 
z
" style="fill:#1f77b4;"/>
   </g>
   <g id="patch_140">
    <path clip-path="url(#pf59516b381)" d="M 250.449689 288.430125 
L 251.527787 288.430125 
L 251.527787 259.491636 
L 250.449689 259.491636 
z
" style="fill:#1f77b4;"/>
   </g>
   <g id="patch_141">
    <path clip-path="url(#pf59516b381)" d="M 251.797312 288.430125 
L 252.87541 288.430125 
L 252.87541 259.330986 
L 251.797312 259.330986 
z
" style="fill:#1f77b4;"/>
   </g>
   <g id="patch_142">
    <path clip-path="url(#pf59516b381)" d="M 253.144934 288.430125 
L 254.223033 288.430125 
L 254.223033 259.245306 
L 253.144934 259.245306 
z
" style="fill:#1f77b4;"/>
   </g>
   <g id="patch_143">
    <path clip-path="url(#pf59516b381)" d="M 254.492557 288.430125 
L 255.570655 288.430125 
L 255.570655 259.213176 
L 254.492557 259.213176 
z
" style="fill:#1f77b4;"/>
   </g>
   <g id="patch_144">
    <path clip-path="url(#pf59516b381)" d="M 255.84018 288.430125 
L 256.918278 288.430125 
L 256.918278 259.148916 
L 255.84018 259.148916 
z
" style="fill:#1f77b4;"/>
   </g>
   <g id="patch_145">
    <path clip-path="url(#pf59516b381)" d="M 257.187802 288.430125 
L 258.2659 288.430125 
L 258.2659 259.073946 
L 257.187802 259.073946 
z
" style="fill:#1f77b4;"/>
   </g>
   <g id="patch_146">
    <path clip-path="url(#pf59516b381)" d="M 258.535425 288.430125 
L 259.613523 288.430125 
L 259.613523 259.031105 
L 258.535425 259.031105 
z
" style="fill:#1f77b4;"/>
   </g>
   <g id="patch_147">
    <path clip-path="url(#pf59516b381)" d="M 259.883048 288.430125 
L 260.961146 288.430125 
L 260.961146 258.902585 
L 259.883048 258.902585 
z
" style="fill:#1f77b4;"/>
   </g>
   <g id="patch_148">
    <path clip-path="url(#pf59516b381)" d="M 261.23067 288.430125 
L 262.308768 288.430125 
L 262.308768 258.859745 
L 261.23067 258.859745 
z
" style="fill:#1f77b4;"/>
   </g>
   <g id="patch_149">
    <path clip-path="url(#pf59516b381)" d="M 262.578293 288.430125 
L 263.656391 288.430125 
L 263.656391 258.806195 
L 262.578293 258.806195 
z
" style="fill:#1f77b4;"/>
   </g>
   <g id="patch_150">
    <path clip-path="url(#pf59516b381)" d="M 263.925916 288.430125 
L 265.004014 288.430125 
L 265.004014 258.731225 
L 263.925916 258.731225 
z
" style="fill:#1f77b4;"/>
   </g>
   <g id="patch_151">
    <path clip-path="url(#pf59516b381)" d="M 265.273538 288.430125 
L 266.351636 288.430125 
L 266.351636 258.720515 
L 265.273538 258.720515 
z
" style="fill:#1f77b4;"/>
   </g>
   <g id="patch_152">
    <path clip-path="url(#pf59516b381)" d="M 266.621161 288.430125 
L 267.699259 288.430125 
L 267.699259 258.709805 
L 266.621161 258.709805 
z
" style="fill:#1f77b4;"/>
   </g>
   <g id="patch_153">
    <path clip-path="url(#pf59516b381)" d="M 267.968783 288.430125 
L 269.046882 288.430125 
L 269.046882 258.666965 
L 267.968783 258.666965 
z
" style="fill:#1f77b4;"/>
   </g>
   <g id="patch_154">
    <path clip-path="url(#pf59516b381)" d="M 269.316406 288.430125 
L 270.394504 288.430125 
L 270.394504 258.645544 
L 269.316406 258.645544 
z
" style="fill:#1f77b4;"/>
   </g>
   <g id="patch_155">
    <path clip-path="url(#pf59516b381)" d="M 270.664029 288.430125 
L 271.742127 288.430125 
L 271.742127 258.613414 
L 270.664029 258.613414 
z
" style="fill:#1f77b4;"/>
   </g>
   <g id="patch_156">
    <path clip-path="url(#pf59516b381)" d="M 272.011651 288.430125 
L 273.08975 288.430125 
L 273.08975 258.517024 
L 272.011651 258.517024 
z
" style="fill:#1f77b4;"/>
   </g>
   <g id="patch_157">
    <path clip-path="url(#pf59516b381)" d="M 273.359274 288.430125 
L 274.437372 288.430125 
L 274.437372 258.420634 
L 273.359274 258.420634 
z
" style="fill:#1f77b4;"/>
   </g>
   <g id="patch_158">
    <path clip-path="url(#pf59516b381)" d="M 274.706897 288.430125 
L 275.784995 288.430125 
L 275.784995 258.399214 
L 274.706897 258.399214 
z
" style="fill:#1f77b4;"/>
   </g>
   <g id="patch_159">
    <path clip-path="url(#pf59516b381)" d="M 276.054519 288.430125 
L 277.132617 288.430125 
L 277.132617 258.399214 
L 276.054519 258.399214 
z
" style="fill:#1f77b4;"/>
   </g>
   <g id="patch_160">
    <path clip-path="url(#pf59516b381)" d="M 277.402142 288.430125 
L 278.48024 288.430125 
L 278.48024 258.324244 
L 277.402142 258.324244 
z
" style="fill:#1f77b4;"/>
   </g>
   <g id="patch_161">
    <path clip-path="url(#pf59516b381)" d="M 278.749765 288.430125 
L 279.827863 288.430125 
L 279.827863 258.099333 
L 278.749765 258.099333 
z
" style="fill:#1f77b4;"/>
   </g>
   <g id="patch_162">
    <path clip-path="url(#pf59516b381)" d="M 280.097387 288.430125 
L 281.175485 288.430125 
L 281.175485 258.045783 
L 280.097387 258.045783 
z
" style="fill:#1f77b4;"/>
   </g>
   <g id="patch_163">
    <path clip-path="url(#pf59516b381)" d="M 281.44501 288.430125 
L 282.523108 288.430125 
L 282.523108 257.874423 
L 281.44501 257.874423 
z
" style="fill:#1f77b4;"/>
   </g>
   <g id="patch_164">
    <path clip-path="url(#pf59516b381)" d="M 282.792633 288.430125 
L 283.870731 288.430125 
L 283.870731 257.703062 
L 282.792633 257.703062 
z
" style="fill:#1f77b4;"/>
   </g>
   <g id="patch_165">
    <path clip-path="url(#pf59516b381)" d="M 284.140255 288.430125 
L 285.218353 288.430125 
L 285.218353 257.542412 
L 284.140255 257.542412 
z
" style="fill:#1f77b4;"/>
   </g>
   <g id="patch_166">
    <path clip-path="url(#pf59516b381)" d="M 285.487878 288.430125 
L 286.565976 288.430125 
L 286.565976 257.446022 
L 285.487878 257.446022 
z
" style="fill:#1f77b4;"/>
   </g>
   <g id="patch_167">
    <path clip-path="url(#pf59516b381)" d="M 286.8355 288.430125 
L 287.913599 288.430125 
L 287.913599 257.392472 
L 286.8355 257.392472 
z
" style="fill:#1f77b4;"/>
   </g>
   <g id="patch_168">
    <path clip-path="url(#pf59516b381)" d="M 288.183123 288.430125 
L 289.261221 288.430125 
L 289.261221 257.296081 
L 288.183123 257.296081 
z
" style="fill:#1f77b4;"/>
   </g>
   <g id="patch_169">
    <path clip-path="url(#pf59516b381)" d="M 289.530746 288.430125 
L 290.608844 288.430125 
L 290.608844 257.210401 
L 289.530746 257.210401 
z
" style="fill:#1f77b4;"/>
   </g>
   <g id="patch_170">
    <path clip-path="url(#pf59516b381)" d="M 290.878368 288.430125 
L 291.956467 288.430125 
L 291.956467 257.114011 
L 290.878368 257.114011 
z
" style="fill:#1f77b4;"/>
   </g>
   <g id="patch_171">
    <path clip-path="url(#pf59516b381)" d="M 292.225991 288.430125 
L 293.304089 288.430125 
L 293.304089 257.028331 
L 292.225991 257.028331 
z
" style="fill:#1f77b4;"/>
   </g>
   <g id="patch_172">
    <path clip-path="url(#pf59516b381)" d="M 293.573614 288.430125 
L 294.651712 288.430125 
L 294.651712 256.996201 
L 293.573614 256.996201 
z
" style="fill:#1f77b4;"/>
   </g>
   <g id="patch_173">
    <path clip-path="url(#pf59516b381)" d="M 294.921236 288.430125 
L 295.999334 288.430125 
L 295.999334 256.85697 
L 294.921236 256.85697 
z
" style="fill:#1f77b4;"/>
   </g>
   <g id="patch_174">
    <path clip-path="url(#pf59516b381)" d="M 296.268859 288.430125 
L 297.346957 288.430125 
L 297.346957 256.74987 
L 296.268859 256.74987 
z
" style="fill:#1f77b4;"/>
   </g>
   <g id="patch_175">
    <path clip-path="url(#pf59516b381)" d="M 297.616482 288.430125 
L 298.69458 288.430125 
L 298.69458 256.70703 
L 297.616482 256.70703 
z
" style="fill:#1f77b4;"/>
   </g>
   <g id="patch_176">
    <path clip-path="url(#pf59516b381)" d="M 298.964104 288.430125 
L 300.042202 288.430125 
L 300.042202 256.58922 
L 298.964104 256.58922 
z
" style="fill:#1f77b4;"/>
   </g>
   <g id="patch_177">
    <path clip-path="url(#pf59516b381)" d="M 300.311727 288.430125 
L 301.389825 288.430125 
L 301.389825 256.342889 
L 300.311727 256.342889 
z
" style="fill:#1f77b4;"/>
   </g>
   <g id="patch_178">
    <path clip-path="url(#pf59516b381)" d="M 301.65935 288.430125 
L 302.737448 288.430125 
L 302.737448 256.267919 
L 301.65935 256.267919 
z
" style="fill:#1f77b4;"/>
   </g>
   <g id="patch_179">
    <path clip-path="url(#pf59516b381)" d="M 303.006972 288.430125 
L 304.08507 288.430125 
L 304.08507 256.267919 
L 303.006972 256.267919 
z
" style="fill:#1f77b4;"/>
   </g>
   <g id="patch_180">
    <path clip-path="url(#pf59516b381)" d="M 304.354595 288.430125 
L 305.432693 288.430125 
L 305.432693 256.225079 
L 304.354595 256.225079 
z
" style="fill:#1f77b4;"/>
   </g>
   <g id="patch_181">
    <path clip-path="url(#pf59516b381)" d="M 305.702217 288.430125 
L 306.780316 288.430125 
L 306.780316 256.117979 
L 305.702217 256.117979 
z
" style="fill:#1f77b4;"/>
   </g>
   <g id="patch_182">
    <path clip-path="url(#pf59516b381)" d="M 307.04984 288.430125 
L 308.127938 288.430125 
L 308.127938 255.903778 
L 307.04984 255.903778 
z
" style="fill:#1f77b4;"/>
   </g>
   <g id="patch_183">
    <path clip-path="url(#pf59516b381)" d="M 308.397463 288.430125 
L 309.475561 288.430125 
L 309.475561 255.625317 
L 308.397463 255.625317 
z
" style="fill:#1f77b4;"/>
   </g>
   <g id="patch_184">
    <path clip-path="url(#pf59516b381)" d="M 309.745085 288.430125 
L 310.823183 288.430125 
L 310.823183 255.357567 
L 309.745085 255.357567 
z
" style="fill:#1f77b4;"/>
   </g>
   <g id="patch_185">
    <path clip-path="url(#pf59516b381)" d="M 311.092708 288.430125 
L 312.170806 288.430125 
L 312.170806 254.929166 
L 311.092708 254.929166 
z
" style="fill:#1f77b4;"/>
   </g>
   <g id="patch_186">
    <path clip-path="url(#pf59516b381)" d="M 312.440331 288.430125 
L 313.518429 288.430125 
L 313.518429 254.854196 
L 312.440331 254.854196 
z
" style="fill:#1f77b4;"/>
   </g>
   <g id="patch_187">
    <path clip-path="url(#pf59516b381)" d="M 313.787953 288.430125 
L 314.866051 288.430125 
L 314.866051 254.629285 
L 313.787953 254.629285 
z
" style="fill:#1f77b4;"/>
   </g>
   <g id="patch_188">
    <path clip-path="url(#pf59516b381)" d="M 315.135576 288.430125 
L 316.213674 288.430125 
L 316.213674 254.500765 
L 315.135576 254.500765 
z
" style="fill:#1f77b4;"/>
   </g>
   <g id="patch_189">
    <path clip-path="url(#pf59516b381)" d="M 316.483199 288.430125 
L 317.561297 288.430125 
L 317.561297 254.340114 
L 316.483199 254.340114 
z
" style="fill:#1f77b4;"/>
   </g>
   <g id="patch_190">
    <path clip-path="url(#pf59516b381)" d="M 317.830821 288.430125 
L 318.908919 288.430125 
L 318.908919 253.568992 
L 317.830821 253.568992 
z
" style="fill:#1f77b4;"/>
   </g>
   <g id="patch_191">
    <path clip-path="url(#pf59516b381)" d="M 319.178444 288.430125 
L 320.256542 288.430125 
L 320.256542 253.290532 
L 319.178444 253.290532 
z
" style="fill:#1f77b4;"/>
   </g>
   <g id="patch_192">
    <path clip-path="url(#pf59516b381)" d="M 320.526067 288.430125 
L 321.604165 288.430125 
L 321.604165 253.076331 
L 320.526067 253.076331 
z
" style="fill:#1f77b4;"/>
   </g>
   <g id="patch_193">
    <path clip-path="url(#pf59516b381)" d="M 321.873689 288.430125 
L 322.951787 288.430125 
L 322.951787 252.862131 
L 321.873689 252.862131 
z
" style="fill:#1f77b4;"/>
   </g>
   <g id="patch_194">
    <path clip-path="url(#pf59516b381)" d="M 323.221312 288.430125 
L 324.29941 288.430125 
L 324.29941 252.776451 
L 323.221312 252.776451 
z
" style="fill:#1f77b4;"/>
   </g>
   <g id="patch_195">
    <path clip-path="url(#pf59516b381)" d="M 324.568934 288.430125 
L 325.647033 288.430125 
L 325.647033 252.45515 
L 324.568934 252.45515 
z
" style="fill:#1f77b4;"/>
   </g>
   <g id="patch_196">
    <path clip-path="url(#pf59516b381)" d="M 325.916557 288.430125 
L 326.994655 288.430125 
L 326.994655 252.165979 
L 325.916557 252.165979 
z
" style="fill:#1f77b4;"/>
   </g>
   <g id="patch_197">
    <path clip-path="url(#pf59516b381)" d="M 327.26418 288.430125 
L 328.342278 288.430125 
L 328.342278 251.609058 
L 327.26418 251.609058 
z
" style="fill:#1f77b4;"/>
   </g>
   <g id="patch_198">
    <path clip-path="url(#pf59516b381)" d="M 328.611802 288.430125 
L 329.6899 288.430125 
L 329.6899 251.298467 
L 328.611802 251.298467 
z
" style="fill:#1f77b4;"/>
   </g>
   <g id="patch_199">
    <path clip-path="url(#pf59516b381)" d="M 329.959425 288.430125 
L 331.037523 288.430125 
L 331.037523 251.062847 
L 329.959425 251.062847 
z
" style="fill:#1f77b4;"/>
   </g>
   <g id="patch_200">
    <path clip-path="url(#pf59516b381)" d="M 331.307048 288.430125 
L 332.385146 288.430125 
L 332.385146 250.795096 
L 331.307048 250.795096 
z
" style="fill:#1f77b4;"/>
   </g>
   <g id="patch_201">
    <path clip-path="url(#pf59516b381)" d="M 332.65467 288.430125 
L 333.732768 288.430125 
L 333.732768 250.709416 
L 332.65467 250.709416 
z
" style="fill:#1f77b4;"/>
   </g>
   <g id="patch_202">
    <path clip-path="url(#pf59516b381)" d="M 334.002293 288.430125 
L 335.080391 288.430125 
L 335.080391 250.527345 
L 334.002293 250.527345 
z
" style="fill:#1f77b4;"/>
   </g>
   <g id="patch_203">
    <path clip-path="url(#pf59516b381)" d="M 335.349916 288.430125 
L 336.428014 288.430125 
L 336.428014 250.216755 
L 335.349916 250.216755 
z
" style="fill:#1f77b4;"/>
   </g>
   <g id="patch_204">
    <path clip-path="url(#pf59516b381)" d="M 336.697538 288.430125 
L 337.775636 288.430125 
L 337.775636 250.013264 
L 336.697538 250.013264 
z
" style="fill:#1f77b4;"/>
   </g>
   <g id="patch_205">
    <path clip-path="url(#pf59516b381)" d="M 338.045161 288.430125 
L 339.123259 288.430125 
L 339.123259 249.734803 
L 338.045161 249.734803 
z
" style="fill:#1f77b4;"/>
   </g>
   <g id="patch_206">
    <path clip-path="url(#pf59516b381)" d="M 339.392783 288.430125 
L 340.470882 288.430125 
L 340.470882 249.392083 
L 339.392783 249.392083 
z
" style="fill:#1f77b4;"/>
   </g>
   <g id="patch_207">
    <path clip-path="url(#pf59516b381)" d="M 340.740406 288.430125 
L 341.818504 288.430125 
L 341.818504 249.210012 
L 340.740406 249.210012 
z
" style="fill:#1f77b4;"/>
   </g>
   <g id="patch_208">
    <path clip-path="url(#pf59516b381)" d="M 342.088029 288.430125 
L 343.166127 288.430125 
L 343.166127 249.027942 
L 342.088029 249.027942 
z
" style="fill:#1f77b4;"/>
   </g>
   <g id="patch_209">
    <path clip-path="url(#pf59516b381)" d="M 343.435651 288.430125 
L 344.51375 288.430125 
L 344.51375 248.43889 
L 343.435651 248.43889 
z
" style="fill:#1f77b4;"/>
   </g>
   <g id="patch_210">
    <path clip-path="url(#pf59516b381)" d="M 344.783274 288.430125 
L 345.861372 288.430125 
L 345.861372 247.699899 
L 344.783274 247.699899 
z
" style="fill:#1f77b4;"/>
   </g>
   <g id="patch_211">
    <path clip-path="url(#pf59516b381)" d="M 346.130897 288.430125 
L 347.208995 288.430125 
L 347.208995 246.789546 
L 346.130897 246.789546 
z
" style="fill:#1f77b4;"/>
   </g>
   <g id="patch_212">
    <path clip-path="url(#pf59516b381)" d="M 347.478519 288.430125 
L 348.556617 288.430125 
L 348.556617 245.804224 
L 347.478519 245.804224 
z
" style="fill:#1f77b4;"/>
   </g>
   <g id="patch_213">
    <path clip-path="url(#pf59516b381)" d="M 348.826142 288.430125 
L 349.90424 288.430125 
L 349.90424 244.904582 
L 348.826142 244.904582 
z
" style="fill:#1f77b4;"/>
   </g>
   <g id="patch_214">
    <path clip-path="url(#pf59516b381)" d="M 350.173765 288.430125 
L 351.251863 288.430125 
L 351.251863 244.422631 
L 350.173765 244.422631 
z
" style="fill:#1f77b4;"/>
   </g>
   <g id="patch_215">
    <path clip-path="url(#pf59516b381)" d="M 351.521387 288.430125 
L 352.599485 288.430125 
L 352.599485 244.05849 
L 351.521387 244.05849 
z
" style="fill:#1f77b4;"/>
   </g>
   <g id="patch_216">
    <path clip-path="url(#pf59516b381)" d="M 352.86901 288.430125 
L 353.947108 288.430125 
L 353.947108 242.730447 
L 352.86901 242.730447 
z
" style="fill:#1f77b4;"/>
   </g>
   <g id="patch_217">
    <path clip-path="url(#pf59516b381)" d="M 354.216633 288.430125 
L 355.294731 288.430125 
L 355.294731 241.680864 
L 354.216633 241.680864 
z
" style="fill:#1f77b4;"/>
   </g>
   <g id="patch_218">
    <path clip-path="url(#pf59516b381)" d="M 355.564255 288.430125 
L 356.642353 288.430125 
L 356.642353 240.309981 
L 355.564255 240.309981 
z
" style="fill:#1f77b4;"/>
   </g>
   <g id="patch_219">
    <path clip-path="url(#pf59516b381)" d="M 356.911878 288.430125 
L 357.989976 288.430125 
L 357.989976 238.649927 
L 356.911878 238.649927 
z
" style="fill:#1f77b4;"/>
   </g>
   <g id="patch_220">
    <path clip-path="url(#pf59516b381)" d="M 358.2595 288.430125 
L 359.337599 288.430125 
L 359.337599 236.818513 
L 358.2595 236.818513 
z
" style="fill:#1f77b4;"/>
   </g>
   <g id="patch_221">
    <path clip-path="url(#pf59516b381)" d="M 359.607123 288.430125 
L 360.685221 288.430125 
L 360.685221 235.908161 
L 359.607123 235.908161 
z
" style="fill:#1f77b4;"/>
   </g>
   <g id="patch_222">
    <path clip-path="url(#pf59516b381)" d="M 360.954746 288.430125 
L 362.032844 288.430125 
L 362.032844 233.669765 
L 360.954746 233.669765 
z
" style="fill:#1f77b4;"/>
   </g>
   <g id="patch_223">
    <path clip-path="url(#pf59516b381)" d="M 362.302368 288.430125 
L 363.380467 288.430125 
L 363.380467 231.645571 
L 362.302368 231.645571 
z
" style="fill:#1f77b4;"/>
   </g>
   <g id="patch_224">
    <path clip-path="url(#pf59516b381)" d="M 363.649991 288.430125 
L 364.728089 288.430125 
L 364.728089 229.000194 
L 363.649991 229.000194 
z
" style="fill:#1f77b4;"/>
   </g>
   <g id="patch_225">
    <path clip-path="url(#pf59516b381)" d="M 364.997614 288.430125 
L 366.075712 288.430125 
L 366.075712 226.119197 
L 364.997614 226.119197 
z
" style="fill:#1f77b4;"/>
   </g>
   <g id="patch_226">
    <path clip-path="url(#pf59516b381)" d="M 366.345236 288.430125 
L 367.423334 288.430125 
L 367.423334 223.15252 
L 366.345236 223.15252 
z
" style="fill:#1f77b4;"/>
   </g>
   <g id="patch_227">
    <path clip-path="url(#pf59516b381)" d="M 367.692859 288.430125 
L 368.770957 288.430125 
L 368.770957 219.521822 
L 367.692859 219.521822 
z
" style="fill:#1f77b4;"/>
   </g>
   <g id="patch_228">
    <path clip-path="url(#pf59516b381)" d="M 369.040482 288.430125 
L 370.11858 288.430125 
L 370.11858 216.083904 
L 369.040482 216.083904 
z
" style="fill:#1f77b4;"/>
   </g>
   <g id="patch_229">
    <path clip-path="url(#pf59516b381)" d="M 370.388104 288.430125 
L 371.466202 288.430125 
L 371.466202 213.492078 
L 370.388104 213.492078 
z
" style="fill:#1f77b4;"/>
   </g>
   <g id="patch_230">
    <path clip-path="url(#pf59516b381)" d="M 371.735727 288.430125 
L 372.813825 288.430125 
L 372.813825 211.457173 
L 371.735727 211.457173 
z
" style="fill:#1f77b4;"/>
   </g>
   <g id="patch_231">
    <path clip-path="url(#pf59516b381)" d="M 373.08335 288.430125 
L 374.161448 288.430125 
L 374.161448 208.265585 
L 373.08335 208.265585 
z
" style="fill:#1f77b4;"/>
   </g>
   <g id="patch_232">
    <path clip-path="url(#pf59516b381)" d="M 374.430972 288.430125 
L 375.50907 288.430125 
L 375.50907 204.517076 
L 374.430972 204.517076 
z
" style="fill:#1f77b4;"/>
   </g>
   <g id="patch_233">
    <path clip-path="url(#pf59516b381)" d="M 375.778595 288.430125 
L 376.856693 288.430125 
L 376.856693 198.658692 
L 375.778595 198.658692 
z
" style="fill:#1f77b4;"/>
   </g>
   <g id="patch_234">
    <path clip-path="url(#pf59516b381)" d="M 377.126217 288.430125 
L 378.204316 288.430125 
L 378.204316 192.939539 
L 377.126217 192.939539 
z
" style="fill:#1f77b4;"/>
   </g>
   <g id="patch_235">
    <path clip-path="url(#pf59516b381)" d="M 378.47384 288.430125 
L 379.551938 288.430125 
L 379.551938 188.259258 
L 378.47384 188.259258 
z
" style="fill:#1f77b4;"/>
   </g>
   <g id="patch_236">
    <path clip-path="url(#pf59516b381)" d="M 379.821463 288.430125 
L 380.899561 288.430125 
L 380.899561 182.957795 
L 379.821463 182.957795 
z
" style="fill:#1f77b4;"/>
   </g>
   <g id="patch_237">
    <path clip-path="url(#pf59516b381)" d="M 381.169085 288.430125 
L 382.247183 288.430125 
L 382.247183 180.290999 
L 381.169085 180.290999 
z
" style="fill:#1f77b4;"/>
   </g>
   <g id="patch_238">
    <path clip-path="url(#pf59516b381)" d="M 382.516708 288.430125 
L 383.594806 288.430125 
L 383.594806 172.12996 
L 382.516708 172.12996 
z
" style="fill:#1f77b4;"/>
   </g>
   <g id="patch_239">
    <path clip-path="url(#pf59516b381)" d="M 383.864331 288.430125 
L 384.942429 288.430125 
L 384.942429 164.504422 
L 383.864331 164.504422 
z
" style="fill:#1f77b4;"/>
   </g>
   <g id="patch_240">
    <path clip-path="url(#pf59516b381)" d="M 385.211953 288.430125 
L 386.290051 288.430125 
L 386.290051 156.214862 
L 385.211953 156.214862 
z
" style="fill:#1f77b4;"/>
   </g>
   <g id="patch_241">
    <path clip-path="url(#pf59516b381)" d="M 386.559576 288.430125 
L 387.637674 288.430125 
L 387.637674 147.850332 
L 386.559576 147.850332 
z
" style="fill:#1f77b4;"/>
   </g>
   <g id="patch_242">
    <path clip-path="url(#pf59516b381)" d="M 387.907199 288.430125 
L 388.985297 288.430125 
L 388.985297 141.606387 
L 387.907199 141.606387 
z
" style="fill:#1f77b4;"/>
   </g>
   <g id="patch_243">
    <path clip-path="url(#pf59516b381)" d="M 389.254821 288.430125 
L 390.332919 288.430125 
L 390.332919 137.590128 
L 389.254821 137.590128 
z
" style="fill:#1f77b4;"/>
   </g>
   <g id="patch_244">
    <path clip-path="url(#pf59516b381)" d="M 390.602444 288.430125 
L 391.680542 288.430125 
L 391.680542 133.456058 
L 390.602444 133.456058 
z
" style="fill:#1f77b4;"/>
   </g>
   <g id="patch_245">
    <path clip-path="url(#pf59516b381)" d="M 391.950067 288.430125 
L 393.028165 288.430125 
L 393.028165 126.023301 
L 391.950067 126.023301 
z
" style="fill:#1f77b4;"/>
   </g>
   <g id="patch_246">
    <path clip-path="url(#pf59516b381)" d="M 393.297689 288.430125 
L 394.375787 288.430125 
L 394.375787 117.24108 
L 393.297689 117.24108 
z
" style="fill:#1f77b4;"/>
   </g>
   <g id="patch_247">
    <path clip-path="url(#pf59516b381)" d="M 394.645312 288.430125 
L 395.72341 288.430125 
L 395.72341 109.851162 
L 394.645312 109.851162 
z
" style="fill:#1f77b4;"/>
   </g>
   <g id="patch_248">
    <path clip-path="url(#pf59516b381)" d="M 395.992934 288.430125 
L 397.071033 288.430125 
L 397.071033 103.125266 
L 395.992934 103.125266 
z
" style="fill:#1f77b4;"/>
   </g>
   <g id="patch_249">
    <path clip-path="url(#pf59516b381)" d="M 397.340557 288.430125 
L 398.418655 288.430125 
L 398.418655 97.299013 
L 397.340557 97.299013 
z
" style="fill:#1f77b4;"/>
   </g>
   <g id="patch_250">
    <path clip-path="url(#pf59516b381)" d="M 398.68818 288.430125 
L 399.766278 288.430125 
L 399.766278 94.535826 
L 398.68818 94.535826 
z
" style="fill:#1f77b4;"/>
   </g>
   <g id="patch_251">
    <path clip-path="url(#pf59516b381)" d="M 400.035802 288.430125 
L 401.1139 288.430125 
L 401.1139 88.313301 
L 400.035802 88.313301 
z
" style="fill:#1f77b4;"/>
   </g>
   <g id="patch_252">
    <path clip-path="url(#pf59516b381)" d="M 401.383425 288.430125 
L 402.461523 288.430125 
L 402.461523 80.859124 
L 401.383425 80.859124 
z
" style="fill:#1f77b4;"/>
   </g>
   <g id="patch_253">
    <path clip-path="url(#pf59516b381)" d="M 402.731048 288.430125 
L 403.809146 288.430125 
L 403.809146 72.976545 
L 402.731048 72.976545 
z
" style="fill:#1f77b4;"/>
   </g>
   <g id="patch_254">
    <path clip-path="url(#pf59516b381)" d="M 404.07867 288.430125 
L 405.156768 288.430125 
L 405.156768 67.107451 
L 404.07867 67.107451 
z
" style="fill:#1f77b4;"/>
   </g>
   <g id="patch_255">
    <path clip-path="url(#pf59516b381)" d="M 405.426293 288.430125 
L 406.504391 288.430125 
L 406.504391 61.377587 
L 405.426293 61.377587 
z
" style="fill:#1f77b4;"/>
   </g>
   <g id="patch_256">
    <path clip-path="url(#pf59516b381)" d="M 406.773916 288.430125 
L 407.852014 288.430125 
L 407.852014 58.592981 
L 406.773916 58.592981 
z
" style="fill:#1f77b4;"/>
   </g>
   <g id="patch_257">
    <path clip-path="url(#pf59516b381)" d="M 408.121538 288.430125 
L 409.199636 288.430125 
L 409.199636 56.879377 
L 408.121538 56.879377 
z
" style="fill:#1f77b4;"/>
   </g>
   <g id="patch_258">
    <path clip-path="url(#pf59516b381)" d="M 409.469161 288.430125 
L 410.547259 288.430125 
L 410.547259 53.227258 
L 409.469161 53.227258 
z
" style="fill:#1f77b4;"/>
   </g>
   <g id="patch_259">
    <path clip-path="url(#pf59516b381)" d="M 410.816783 288.430125 
L 411.894882 288.430125 
L 411.894882 50.099931 
L 410.816783 50.099931 
z
" style="fill:#1f77b4;"/>
   </g>
   <g id="patch_260">
    <path clip-path="url(#pf59516b381)" d="M 412.164406 288.430125 
L 413.242504 288.430125 
L 413.242504 45.70882 
L 412.164406 45.70882 
z
" style="fill:#1f77b4;"/>
   </g>
   <g id="patch_261">
    <path clip-path="url(#pf59516b381)" d="M 413.512029 288.430125 
L 414.590127 288.430125 
L 414.590127 40.418068 
L 413.512029 40.418068 
z
" style="fill:#1f77b4;"/>
   </g>
   <g id="patch_262">
    <path clip-path="url(#pf59516b381)" d="M 414.859651 288.430125 
L 415.93775 288.430125 
L 415.93775 35.737787 
L 414.859651 35.737787 
z
" style="fill:#1f77b4;"/>
   </g>
   <g id="patch_263">
    <path clip-path="url(#pf59516b381)" d="M 416.207274 288.430125 
L 417.285372 288.430125 
L 417.285372 33.777852 
L 416.207274 33.777852 
z
" style="fill:#1f77b4;"/>
   </g>
   <g id="patch_264">
    <path clip-path="url(#pf59516b381)" d="M 417.554897 288.430125 
L 418.632995 288.430125 
L 418.632995 32.77111 
L 417.554897 32.77111 
z
" style="fill:#1f77b4;"/>
   </g>
   <g id="patch_265">
    <path clip-path="url(#pf59516b381)" d="M 418.902519 288.430125 
L 419.980617 288.430125 
L 419.980617 29.376032 
L 418.902519 29.376032 
z
" style="fill:#1f77b4;"/>
   </g>
   <g id="patch_266">
    <path clip-path="url(#pf59516b381)" d="M 420.250142 288.430125 
L 421.32824 288.430125 
L 421.32824 25.370482 
L 420.250142 25.370482 
z
" style="fill:#1f77b4;"/>
   </g>
   <g id="patch_267">
    <path clip-path="url(#pf59516b381)" d="M 421.597765 288.430125 
L 422.675863 288.430125 
L 422.675863 22.318125 
L 421.597765 22.318125 
z
" style="fill:#1f77b4;"/>
   </g>
   <g id="matplotlib.axis_1">
    <g id="xtick_1">
     <g id="line2d_1">
      <defs>
       <path d="M 0 0 
L 0 3.5 
" id="m3e91e28b1b" style="stroke:#000000;stroke-width:0.8;"/>
      </defs>
      <g>
       <use style="stroke:#000000;stroke-width:0.8;" x="89.274021" xlink:href="#m3e91e28b1b" y="288.430125"/>
      </g>
     </g>
     <g id="text_1">
      <!-- 2020-04 -->
      <g transform="translate(92.033396 337.212937)rotate(-90)scale(0.1 -0.1)">
       <defs>
        <path d="M 19.1875 8.296875 
L 53.609375 8.296875 
L 53.609375 0 
L 7.328125 0 
L 7.328125 8.296875 
Q 12.9375 14.109375 22.625 23.890625 
Q 32.328125 33.6875 34.8125 36.53125 
Q 39.546875 41.84375 41.421875 45.53125 
Q 43.3125 49.21875 43.3125 52.78125 
Q 43.3125 58.59375 39.234375 62.25 
Q 35.15625 65.921875 28.609375 65.921875 
Q 23.96875 65.921875 18.8125 64.3125 
Q 13.671875 62.703125 7.8125 59.421875 
L 7.8125 69.390625 
Q 13.765625 71.78125 18.9375 73 
Q 24.125 74.21875 28.421875 74.21875 
Q 39.75 74.21875 46.484375 68.546875 
Q 53.21875 62.890625 53.21875 53.421875 
Q 53.21875 48.921875 51.53125 44.890625 
Q 49.859375 40.875 45.40625 35.40625 
Q 44.1875 33.984375 37.640625 27.21875 
Q 31.109375 20.453125 19.1875 8.296875 
z
" id="DejaVuSans-50"/>
        <path d="M 31.78125 66.40625 
Q 24.171875 66.40625 20.328125 58.90625 
Q 16.5 51.421875 16.5 36.375 
Q 16.5 21.390625 20.328125 13.890625 
Q 24.171875 6.390625 31.78125 6.390625 
Q 39.453125 6.390625 43.28125 13.890625 
Q 47.125 21.390625 47.125 36.375 
Q 47.125 51.421875 43.28125 58.90625 
Q 39.453125 66.40625 31.78125 66.40625 
z
M 31.78125 74.21875 
Q 44.046875 74.21875 50.515625 64.515625 
Q 56.984375 54.828125 56.984375 36.375 
Q 56.984375 17.96875 50.515625 8.265625 
Q 44.046875 -1.421875 31.78125 -1.421875 
Q 19.53125 -1.421875 13.0625 8.265625 
Q 6.59375 17.96875 6.59375 36.375 
Q 6.59375 54.828125 13.0625 64.515625 
Q 19.53125 74.21875 31.78125 74.21875 
z
" id="DejaVuSans-48"/>
        <path d="M 4.890625 31.390625 
L 31.203125 31.390625 
L 31.203125 23.390625 
L 4.890625 23.390625 
z
" id="DejaVuSans-45"/>
        <path d="M 37.796875 64.3125 
L 12.890625 25.390625 
L 37.796875 25.390625 
z
M 35.203125 72.90625 
L 47.609375 72.90625 
L 47.609375 25.390625 
L 58.015625 25.390625 
L 58.015625 17.1875 
L 47.609375 17.1875 
L 47.609375 0 
L 37.796875 0 
L 37.796875 17.1875 
L 4.890625 17.1875 
L 4.890625 26.703125 
z
" id="DejaVuSans-52"/>
       </defs>
       <use xlink:href="#DejaVuSans-50"/>
       <use x="63.623047" xlink:href="#DejaVuSans-48"/>
       <use x="127.246094" xlink:href="#DejaVuSans-50"/>
       <use x="190.869141" xlink:href="#DejaVuSans-48"/>
       <use x="254.492188" xlink:href="#DejaVuSans-45"/>
       <use x="290.576172" xlink:href="#DejaVuSans-48"/>
       <use x="354.199219" xlink:href="#DejaVuSans-52"/>
      </g>
     </g>
    </g>
    <g id="xtick_2">
     <g id="line2d_2">
      <g>
       <use style="stroke:#000000;stroke-width:0.8;" x="129.7027" xlink:href="#m3e91e28b1b" y="288.430125"/>
      </g>
     </g>
     <g id="text_2">
      <!-- 2020-05 -->
      <g transform="translate(132.462075 337.212937)rotate(-90)scale(0.1 -0.1)">
       <defs>
        <path d="M 10.796875 72.90625 
L 49.515625 72.90625 
L 49.515625 64.59375 
L 19.828125 64.59375 
L 19.828125 46.734375 
Q 21.96875 47.46875 24.109375 47.828125 
Q 26.265625 48.1875 28.421875 48.1875 
Q 40.625 48.1875 47.75 41.5 
Q 54.890625 34.8125 54.890625 23.390625 
Q 54.890625 11.625 47.5625 5.09375 
Q 40.234375 -1.421875 26.90625 -1.421875 
Q 22.3125 -1.421875 17.546875 -0.640625 
Q 12.796875 0.140625 7.71875 1.703125 
L 7.71875 11.625 
Q 12.109375 9.234375 16.796875 8.0625 
Q 21.484375 6.890625 26.703125 6.890625 
Q 35.15625 6.890625 40.078125 11.328125 
Q 45.015625 15.765625 45.015625 23.390625 
Q 45.015625 31 40.078125 35.4375 
Q 35.15625 39.890625 26.703125 39.890625 
Q 22.75 39.890625 18.8125 39.015625 
Q 14.890625 38.140625 10.796875 36.28125 
z
" id="DejaVuSans-53"/>
       </defs>
       <use xlink:href="#DejaVuSans-50"/>
       <use x="63.623047" xlink:href="#DejaVuSans-48"/>
       <use x="127.246094" xlink:href="#DejaVuSans-50"/>
       <use x="190.869141" xlink:href="#DejaVuSans-48"/>
       <use x="254.492188" xlink:href="#DejaVuSans-45"/>
       <use x="290.576172" xlink:href="#DejaVuSans-48"/>
       <use x="354.199219" xlink:href="#DejaVuSans-53"/>
      </g>
     </g>
    </g>
    <g id="xtick_3">
     <g id="line2d_3">
      <g>
       <use style="stroke:#000000;stroke-width:0.8;" x="171.479002" xlink:href="#m3e91e28b1b" y="288.430125"/>
      </g>
     </g>
     <g id="text_3">
      <!-- 2020-06 -->
      <g transform="translate(174.238377 337.212937)rotate(-90)scale(0.1 -0.1)">
       <defs>
        <path d="M 33.015625 40.375 
Q 26.375 40.375 22.484375 35.828125 
Q 18.609375 31.296875 18.609375 23.390625 
Q 18.609375 15.53125 22.484375 10.953125 
Q 26.375 6.390625 33.015625 6.390625 
Q 39.65625 6.390625 43.53125 10.953125 
Q 47.40625 15.53125 47.40625 23.390625 
Q 47.40625 31.296875 43.53125 35.828125 
Q 39.65625 40.375 33.015625 40.375 
z
M 52.59375 71.296875 
L 52.59375 62.3125 
Q 48.875 64.0625 45.09375 64.984375 
Q 41.3125 65.921875 37.59375 65.921875 
Q 27.828125 65.921875 22.671875 59.328125 
Q 17.53125 52.734375 16.796875 39.40625 
Q 19.671875 43.65625 24.015625 45.921875 
Q 28.375 48.1875 33.59375 48.1875 
Q 44.578125 48.1875 50.953125 41.515625 
Q 57.328125 34.859375 57.328125 23.390625 
Q 57.328125 12.15625 50.6875 5.359375 
Q 44.046875 -1.421875 33.015625 -1.421875 
Q 20.359375 -1.421875 13.671875 8.265625 
Q 6.984375 17.96875 6.984375 36.375 
Q 6.984375 53.65625 15.1875 63.9375 
Q 23.390625 74.21875 37.203125 74.21875 
Q 40.921875 74.21875 44.703125 73.484375 
Q 48.484375 72.75 52.59375 71.296875 
z
" id="DejaVuSans-54"/>
       </defs>
       <use xlink:href="#DejaVuSans-50"/>
       <use x="63.623047" xlink:href="#DejaVuSans-48"/>
       <use x="127.246094" xlink:href="#DejaVuSans-50"/>
       <use x="190.869141" xlink:href="#DejaVuSans-48"/>
       <use x="254.492188" xlink:href="#DejaVuSans-45"/>
       <use x="290.576172" xlink:href="#DejaVuSans-48"/>
       <use x="354.199219" xlink:href="#DejaVuSans-54"/>
      </g>
     </g>
    </g>
    <g id="xtick_4">
     <g id="line2d_4">
      <g>
       <use style="stroke:#000000;stroke-width:0.8;" x="211.907682" xlink:href="#m3e91e28b1b" y="288.430125"/>
      </g>
     </g>
     <g id="text_4">
      <!-- 2020-07 -->
      <g transform="translate(214.667057 337.212937)rotate(-90)scale(0.1 -0.1)">
       <defs>
        <path d="M 8.203125 72.90625 
L 55.078125 72.90625 
L 55.078125 68.703125 
L 28.609375 0 
L 18.3125 0 
L 43.21875 64.59375 
L 8.203125 64.59375 
z
" id="DejaVuSans-55"/>
       </defs>
       <use xlink:href="#DejaVuSans-50"/>
       <use x="63.623047" xlink:href="#DejaVuSans-48"/>
       <use x="127.246094" xlink:href="#DejaVuSans-50"/>
       <use x="190.869141" xlink:href="#DejaVuSans-48"/>
       <use x="254.492188" xlink:href="#DejaVuSans-45"/>
       <use x="290.576172" xlink:href="#DejaVuSans-48"/>
       <use x="354.199219" xlink:href="#DejaVuSans-55"/>
      </g>
     </g>
    </g>
    <g id="xtick_5">
     <g id="line2d_5">
      <g>
       <use style="stroke:#000000;stroke-width:0.8;" x="253.683983" xlink:href="#m3e91e28b1b" y="288.430125"/>
      </g>
     </g>
     <g id="text_5">
      <!-- 2020-08 -->
      <g transform="translate(256.443358 337.212937)rotate(-90)scale(0.1 -0.1)">
       <defs>
        <path d="M 31.78125 34.625 
Q 24.75 34.625 20.71875 30.859375 
Q 16.703125 27.09375 16.703125 20.515625 
Q 16.703125 13.921875 20.71875 10.15625 
Q 24.75 6.390625 31.78125 6.390625 
Q 38.8125 6.390625 42.859375 10.171875 
Q 46.921875 13.96875 46.921875 20.515625 
Q 46.921875 27.09375 42.890625 30.859375 
Q 38.875 34.625 31.78125 34.625 
z
M 21.921875 38.8125 
Q 15.578125 40.375 12.03125 44.71875 
Q 8.5 49.078125 8.5 55.328125 
Q 8.5 64.0625 14.71875 69.140625 
Q 20.953125 74.21875 31.78125 74.21875 
Q 42.671875 74.21875 48.875 69.140625 
Q 55.078125 64.0625 55.078125 55.328125 
Q 55.078125 49.078125 51.53125 44.71875 
Q 48 40.375 41.703125 38.8125 
Q 48.828125 37.15625 52.796875 32.3125 
Q 56.78125 27.484375 56.78125 20.515625 
Q 56.78125 9.90625 50.3125 4.234375 
Q 43.84375 -1.421875 31.78125 -1.421875 
Q 19.734375 -1.421875 13.25 4.234375 
Q 6.78125 9.90625 6.78125 20.515625 
Q 6.78125 27.484375 10.78125 32.3125 
Q 14.796875 37.15625 21.921875 38.8125 
z
M 18.3125 54.390625 
Q 18.3125 48.734375 21.84375 45.5625 
Q 25.390625 42.390625 31.78125 42.390625 
Q 38.140625 42.390625 41.71875 45.5625 
Q 45.3125 48.734375 45.3125 54.390625 
Q 45.3125 60.0625 41.71875 63.234375 
Q 38.140625 66.40625 31.78125 66.40625 
Q 25.390625 66.40625 21.84375 63.234375 
Q 18.3125 60.0625 18.3125 54.390625 
z
" id="DejaVuSans-56"/>
       </defs>
       <use xlink:href="#DejaVuSans-50"/>
       <use x="63.623047" xlink:href="#DejaVuSans-48"/>
       <use x="127.246094" xlink:href="#DejaVuSans-50"/>
       <use x="190.869141" xlink:href="#DejaVuSans-48"/>
       <use x="254.492188" xlink:href="#DejaVuSans-45"/>
       <use x="290.576172" xlink:href="#DejaVuSans-48"/>
       <use x="354.199219" xlink:href="#DejaVuSans-56"/>
      </g>
     </g>
    </g>
    <g id="xtick_6">
     <g id="line2d_6">
      <g>
       <use style="stroke:#000000;stroke-width:0.8;" x="295.460285" xlink:href="#m3e91e28b1b" y="288.430125"/>
      </g>
     </g>
     <g id="text_6">
      <!-- 2020-09 -->
      <g transform="translate(298.21966 337.212937)rotate(-90)scale(0.1 -0.1)">
       <defs>
        <path d="M 10.984375 1.515625 
L 10.984375 10.5 
Q 14.703125 8.734375 18.5 7.8125 
Q 22.3125 6.890625 25.984375 6.890625 
Q 35.75 6.890625 40.890625 13.453125 
Q 46.046875 20.015625 46.78125 33.40625 
Q 43.953125 29.203125 39.59375 26.953125 
Q 35.25 24.703125 29.984375 24.703125 
Q 19.046875 24.703125 12.671875 31.3125 
Q 6.296875 37.9375 6.296875 49.421875 
Q 6.296875 60.640625 12.9375 67.421875 
Q 19.578125 74.21875 30.609375 74.21875 
Q 43.265625 74.21875 49.921875 64.515625 
Q 56.59375 54.828125 56.59375 36.375 
Q 56.59375 19.140625 48.40625 8.859375 
Q 40.234375 -1.421875 26.421875 -1.421875 
Q 22.703125 -1.421875 18.890625 -0.6875 
Q 15.09375 0.046875 10.984375 1.515625 
z
M 30.609375 32.421875 
Q 37.25 32.421875 41.125 36.953125 
Q 45.015625 41.5 45.015625 49.421875 
Q 45.015625 57.28125 41.125 61.84375 
Q 37.25 66.40625 30.609375 66.40625 
Q 23.96875 66.40625 20.09375 61.84375 
Q 16.21875 57.28125 16.21875 49.421875 
Q 16.21875 41.5 20.09375 36.953125 
Q 23.96875 32.421875 30.609375 32.421875 
z
" id="DejaVuSans-57"/>
       </defs>
       <use xlink:href="#DejaVuSans-50"/>
       <use x="63.623047" xlink:href="#DejaVuSans-48"/>
       <use x="127.246094" xlink:href="#DejaVuSans-50"/>
       <use x="190.869141" xlink:href="#DejaVuSans-48"/>
       <use x="254.492188" xlink:href="#DejaVuSans-45"/>
       <use x="290.576172" xlink:href="#DejaVuSans-48"/>
       <use x="354.199219" xlink:href="#DejaVuSans-57"/>
      </g>
     </g>
    </g>
    <g id="xtick_7">
     <g id="line2d_7">
      <g>
       <use style="stroke:#000000;stroke-width:0.8;" x="335.888965" xlink:href="#m3e91e28b1b" y="288.430125"/>
      </g>
     </g>
     <g id="text_7">
      <!-- 2020-10 -->
      <g transform="translate(338.64834 337.212937)rotate(-90)scale(0.1 -0.1)">
       <defs>
        <path d="M 12.40625 8.296875 
L 28.515625 8.296875 
L 28.515625 63.921875 
L 10.984375 60.40625 
L 10.984375 69.390625 
L 28.421875 72.90625 
L 38.28125 72.90625 
L 38.28125 8.296875 
L 54.390625 8.296875 
L 54.390625 0 
L 12.40625 0 
z
" id="DejaVuSans-49"/>
       </defs>
       <use xlink:href="#DejaVuSans-50"/>
       <use x="63.623047" xlink:href="#DejaVuSans-48"/>
       <use x="127.246094" xlink:href="#DejaVuSans-50"/>
       <use x="190.869141" xlink:href="#DejaVuSans-48"/>
       <use x="254.492188" xlink:href="#DejaVuSans-45"/>
       <use x="290.576172" xlink:href="#DejaVuSans-49"/>
       <use x="354.199219" xlink:href="#DejaVuSans-48"/>
      </g>
     </g>
    </g>
    <g id="xtick_8">
     <g id="line2d_8">
      <g>
       <use style="stroke:#000000;stroke-width:0.8;" x="377.665267" xlink:href="#m3e91e28b1b" y="288.430125"/>
      </g>
     </g>
     <g id="text_8">
      <!-- 2020-11 -->
      <g transform="translate(380.424642 337.212937)rotate(-90)scale(0.1 -0.1)">
       <use xlink:href="#DejaVuSans-50"/>
       <use x="63.623047" xlink:href="#DejaVuSans-48"/>
       <use x="127.246094" xlink:href="#DejaVuSans-50"/>
       <use x="190.869141" xlink:href="#DejaVuSans-48"/>
       <use x="254.492188" xlink:href="#DejaVuSans-45"/>
       <use x="290.576172" xlink:href="#DejaVuSans-49"/>
       <use x="354.199219" xlink:href="#DejaVuSans-49"/>
      </g>
     </g>
    </g>
    <g id="xtick_9">
     <g id="line2d_9">
      <g>
       <use style="stroke:#000000;stroke-width:0.8;" x="418.093946" xlink:href="#m3e91e28b1b" y="288.430125"/>
      </g>
     </g>
     <g id="text_9">
      <!-- 2020-12 -->
      <g transform="translate(420.853321 337.212937)rotate(-90)scale(0.1 -0.1)">
       <use xlink:href="#DejaVuSans-50"/>
       <use x="63.623047" xlink:href="#DejaVuSans-48"/>
       <use x="127.246094" xlink:href="#DejaVuSans-50"/>
       <use x="190.869141" xlink:href="#DejaVuSans-48"/>
       <use x="254.492188" xlink:href="#DejaVuSans-45"/>
       <use x="290.576172" xlink:href="#DejaVuSans-49"/>
       <use x="354.199219" xlink:href="#DejaVuSans-50"/>
      </g>
     </g>
    </g>
    <g id="text_10">
     <!-- date -->
     <g transform="translate(232.975625 354.811375)scale(0.1 -0.1)">
      <defs>
       <path d="M 45.40625 46.390625 
L 45.40625 75.984375 
L 54.390625 75.984375 
L 54.390625 0 
L 45.40625 0 
L 45.40625 8.203125 
Q 42.578125 3.328125 38.25 0.953125 
Q 33.9375 -1.421875 27.875 -1.421875 
Q 17.96875 -1.421875 11.734375 6.484375 
Q 5.515625 14.40625 5.515625 27.296875 
Q 5.515625 40.1875 11.734375 48.09375 
Q 17.96875 56 27.875 56 
Q 33.9375 56 38.25 53.625 
Q 42.578125 51.265625 45.40625 46.390625 
z
M 14.796875 27.296875 
Q 14.796875 17.390625 18.875 11.75 
Q 22.953125 6.109375 30.078125 6.109375 
Q 37.203125 6.109375 41.296875 11.75 
Q 45.40625 17.390625 45.40625 27.296875 
Q 45.40625 37.203125 41.296875 42.84375 
Q 37.203125 48.484375 30.078125 48.484375 
Q 22.953125 48.484375 18.875 42.84375 
Q 14.796875 37.203125 14.796875 27.296875 
z
" id="DejaVuSans-100"/>
       <path d="M 34.28125 27.484375 
Q 23.390625 27.484375 19.1875 25 
Q 14.984375 22.515625 14.984375 16.5 
Q 14.984375 11.71875 18.140625 8.90625 
Q 21.296875 6.109375 26.703125 6.109375 
Q 34.1875 6.109375 38.703125 11.40625 
Q 43.21875 16.703125 43.21875 25.484375 
L 43.21875 27.484375 
z
M 52.203125 31.203125 
L 52.203125 0 
L 43.21875 0 
L 43.21875 8.296875 
Q 40.140625 3.328125 35.546875 0.953125 
Q 30.953125 -1.421875 24.3125 -1.421875 
Q 15.921875 -1.421875 10.953125 3.296875 
Q 6 8.015625 6 15.921875 
Q 6 25.140625 12.171875 29.828125 
Q 18.359375 34.515625 30.609375 34.515625 
L 43.21875 34.515625 
L 43.21875 35.40625 
Q 43.21875 41.609375 39.140625 45 
Q 35.0625 48.390625 27.6875 48.390625 
Q 23 48.390625 18.546875 47.265625 
Q 14.109375 46.140625 10.015625 43.890625 
L 10.015625 52.203125 
Q 14.9375 54.109375 19.578125 55.046875 
Q 24.21875 56 28.609375 56 
Q 40.484375 56 46.34375 49.84375 
Q 52.203125 43.703125 52.203125 31.203125 
z
" id="DejaVuSans-97"/>
       <path d="M 18.3125 70.21875 
L 18.3125 54.6875 
L 36.8125 54.6875 
L 36.8125 47.703125 
L 18.3125 47.703125 
L 18.3125 18.015625 
Q 18.3125 11.328125 20.140625 9.421875 
Q 21.96875 7.515625 27.59375 7.515625 
L 36.8125 7.515625 
L 36.8125 0 
L 27.59375 0 
Q 17.1875 0 13.234375 3.875 
Q 9.28125 7.765625 9.28125 18.015625 
L 9.28125 47.703125 
L 2.6875 47.703125 
L 2.6875 54.6875 
L 9.28125 54.6875 
L 9.28125 70.21875 
z
" id="DejaVuSans-116"/>
       <path d="M 56.203125 29.59375 
L 56.203125 25.203125 
L 14.890625 25.203125 
Q 15.484375 15.921875 20.484375 11.0625 
Q 25.484375 6.203125 34.421875 6.203125 
Q 39.59375 6.203125 44.453125 7.46875 
Q 49.3125 8.734375 54.109375 11.28125 
L 54.109375 2.78125 
Q 49.265625 0.734375 44.1875 -0.34375 
Q 39.109375 -1.421875 33.890625 -1.421875 
Q 20.796875 -1.421875 13.15625 6.1875 
Q 5.515625 13.8125 5.515625 26.8125 
Q 5.515625 40.234375 12.765625 48.109375 
Q 20.015625 56 32.328125 56 
Q 43.359375 56 49.78125 48.890625 
Q 56.203125 41.796875 56.203125 29.59375 
z
M 47.21875 32.234375 
Q 47.125 39.59375 43.09375 43.984375 
Q 39.0625 48.390625 32.421875 48.390625 
Q 24.90625 48.390625 20.390625 44.140625 
Q 15.875 39.890625 15.1875 32.171875 
z
" id="DejaVuSans-101"/>
      </defs>
      <use xlink:href="#DejaVuSans-100"/>
      <use x="63.476562" xlink:href="#DejaVuSans-97"/>
      <use x="124.755859" xlink:href="#DejaVuSans-116"/>
      <use x="163.964844" xlink:href="#DejaVuSans-101"/>
     </g>
    </g>
   </g>
   <g id="matplotlib.axis_2">
    <g id="ytick_1">
     <g id="line2d_10">
      <defs>
       <path d="M 0 0 
L -3.5 0 
" id="maf1e208395" style="stroke:#000000;stroke-width:0.8;"/>
      </defs>
      <g>
       <use style="stroke:#000000;stroke-width:0.8;" x="65.690625" xlink:href="#maf1e208395" y="288.430125"/>
      </g>
     </g>
     <g id="text_11">
      <!-- 0 -->
      <g transform="translate(52.328125 292.229344)scale(0.1 -0.1)">
       <use xlink:href="#DejaVuSans-48"/>
      </g>
     </g>
    </g>
    <g id="ytick_2">
     <g id="line2d_11">
      <g>
       <use style="stroke:#000000;stroke-width:0.8;" x="65.690625" xlink:href="#maf1e208395" y="234.879998"/>
      </g>
     </g>
     <g id="text_12">
      <!-- 5000 -->
      <g transform="translate(33.240625 238.679217)scale(0.1 -0.1)">
       <use xlink:href="#DejaVuSans-53"/>
       <use x="63.623047" xlink:href="#DejaVuSans-48"/>
       <use x="127.246094" xlink:href="#DejaVuSans-48"/>
       <use x="190.869141" xlink:href="#DejaVuSans-48"/>
      </g>
     </g>
    </g>
    <g id="ytick_3">
     <g id="line2d_12">
      <g>
       <use style="stroke:#000000;stroke-width:0.8;" x="65.690625" xlink:href="#maf1e208395" y="181.329871"/>
      </g>
     </g>
     <g id="text_13">
      <!-- 10000 -->
      <g transform="translate(26.878125 185.12909)scale(0.1 -0.1)">
       <use xlink:href="#DejaVuSans-49"/>
       <use x="63.623047" xlink:href="#DejaVuSans-48"/>
       <use x="127.246094" xlink:href="#DejaVuSans-48"/>
       <use x="190.869141" xlink:href="#DejaVuSans-48"/>
       <use x="254.492188" xlink:href="#DejaVuSans-48"/>
      </g>
     </g>
    </g>
    <g id="ytick_4">
     <g id="line2d_13">
      <g>
       <use style="stroke:#000000;stroke-width:0.8;" x="65.690625" xlink:href="#maf1e208395" y="127.779745"/>
      </g>
     </g>
     <g id="text_14">
      <!-- 15000 -->
      <g transform="translate(26.878125 131.578963)scale(0.1 -0.1)">
       <use xlink:href="#DejaVuSans-49"/>
       <use x="63.623047" xlink:href="#DejaVuSans-53"/>
       <use x="127.246094" xlink:href="#DejaVuSans-48"/>
       <use x="190.869141" xlink:href="#DejaVuSans-48"/>
       <use x="254.492188" xlink:href="#DejaVuSans-48"/>
      </g>
     </g>
    </g>
    <g id="ytick_5">
     <g id="line2d_14">
      <g>
       <use style="stroke:#000000;stroke-width:0.8;" x="65.690625" xlink:href="#maf1e208395" y="74.229618"/>
      </g>
     </g>
     <g id="text_15">
      <!-- 20000 -->
      <g transform="translate(26.878125 78.028837)scale(0.1 -0.1)">
       <use xlink:href="#DejaVuSans-50"/>
       <use x="63.623047" xlink:href="#DejaVuSans-48"/>
       <use x="127.246094" xlink:href="#DejaVuSans-48"/>
       <use x="190.869141" xlink:href="#DejaVuSans-48"/>
       <use x="254.492188" xlink:href="#DejaVuSans-48"/>
      </g>
     </g>
    </g>
    <g id="text_16">
     <!-- cumulative number of corona cases -->
     <g transform="translate(14.798438 245.00225)rotate(-90)scale(0.1 -0.1)">
      <defs>
       <path d="M 48.78125 52.59375 
L 48.78125 44.1875 
Q 44.96875 46.296875 41.140625 47.34375 
Q 37.3125 48.390625 33.40625 48.390625 
Q 24.65625 48.390625 19.8125 42.84375 
Q 14.984375 37.3125 14.984375 27.296875 
Q 14.984375 17.28125 19.8125 11.734375 
Q 24.65625 6.203125 33.40625 6.203125 
Q 37.3125 6.203125 41.140625 7.25 
Q 44.96875 8.296875 48.78125 10.40625 
L 48.78125 2.09375 
Q 45.015625 0.34375 40.984375 -0.53125 
Q 36.96875 -1.421875 32.421875 -1.421875 
Q 20.0625 -1.421875 12.78125 6.34375 
Q 5.515625 14.109375 5.515625 27.296875 
Q 5.515625 40.671875 12.859375 48.328125 
Q 20.21875 56 33.015625 56 
Q 37.15625 56 41.109375 55.140625 
Q 45.0625 54.296875 48.78125 52.59375 
z
" id="DejaVuSans-99"/>
       <path d="M 8.5 21.578125 
L 8.5 54.6875 
L 17.484375 54.6875 
L 17.484375 21.921875 
Q 17.484375 14.15625 20.5 10.265625 
Q 23.53125 6.390625 29.59375 6.390625 
Q 36.859375 6.390625 41.078125 11.03125 
Q 45.3125 15.671875 45.3125 23.6875 
L 45.3125 54.6875 
L 54.296875 54.6875 
L 54.296875 0 
L 45.3125 0 
L 45.3125 8.40625 
Q 42.046875 3.421875 37.71875 1 
Q 33.40625 -1.421875 27.6875 -1.421875 
Q 18.265625 -1.421875 13.375 4.4375 
Q 8.5 10.296875 8.5 21.578125 
z
M 31.109375 56 
z
" id="DejaVuSans-117"/>
       <path d="M 52 44.1875 
Q 55.375 50.25 60.0625 53.125 
Q 64.75 56 71.09375 56 
Q 79.640625 56 84.28125 50.015625 
Q 88.921875 44.046875 88.921875 33.015625 
L 88.921875 0 
L 79.890625 0 
L 79.890625 32.71875 
Q 79.890625 40.578125 77.09375 44.375 
Q 74.3125 48.1875 68.609375 48.1875 
Q 61.625 48.1875 57.5625 43.546875 
Q 53.515625 38.921875 53.515625 30.90625 
L 53.515625 0 
L 44.484375 0 
L 44.484375 32.71875 
Q 44.484375 40.625 41.703125 44.40625 
Q 38.921875 48.1875 33.109375 48.1875 
Q 26.21875 48.1875 22.15625 43.53125 
Q 18.109375 38.875 18.109375 30.90625 
L 18.109375 0 
L 9.078125 0 
L 9.078125 54.6875 
L 18.109375 54.6875 
L 18.109375 46.1875 
Q 21.1875 51.21875 25.484375 53.609375 
Q 29.78125 56 35.6875 56 
Q 41.65625 56 45.828125 52.96875 
Q 50 49.953125 52 44.1875 
z
" id="DejaVuSans-109"/>
       <path d="M 9.421875 75.984375 
L 18.40625 75.984375 
L 18.40625 0 
L 9.421875 0 
z
" id="DejaVuSans-108"/>
       <path d="M 9.421875 54.6875 
L 18.40625 54.6875 
L 18.40625 0 
L 9.421875 0 
z
M 9.421875 75.984375 
L 18.40625 75.984375 
L 18.40625 64.59375 
L 9.421875 64.59375 
z
" id="DejaVuSans-105"/>
       <path d="M 2.984375 54.6875 
L 12.5 54.6875 
L 29.59375 8.796875 
L 46.6875 54.6875 
L 56.203125 54.6875 
L 35.6875 0 
L 23.484375 0 
z
" id="DejaVuSans-118"/>
       <path id="DejaVuSans-32"/>
       <path d="M 54.890625 33.015625 
L 54.890625 0 
L 45.90625 0 
L 45.90625 32.71875 
Q 45.90625 40.484375 42.875 44.328125 
Q 39.84375 48.1875 33.796875 48.1875 
Q 26.515625 48.1875 22.3125 43.546875 
Q 18.109375 38.921875 18.109375 30.90625 
L 18.109375 0 
L 9.078125 0 
L 9.078125 54.6875 
L 18.109375 54.6875 
L 18.109375 46.1875 
Q 21.34375 51.125 25.703125 53.5625 
Q 30.078125 56 35.796875 56 
Q 45.21875 56 50.046875 50.171875 
Q 54.890625 44.34375 54.890625 33.015625 
z
" id="DejaVuSans-110"/>
       <path d="M 48.6875 27.296875 
Q 48.6875 37.203125 44.609375 42.84375 
Q 40.53125 48.484375 33.40625 48.484375 
Q 26.265625 48.484375 22.1875 42.84375 
Q 18.109375 37.203125 18.109375 27.296875 
Q 18.109375 17.390625 22.1875 11.75 
Q 26.265625 6.109375 33.40625 6.109375 
Q 40.53125 6.109375 44.609375 11.75 
Q 48.6875 17.390625 48.6875 27.296875 
z
M 18.109375 46.390625 
Q 20.953125 51.265625 25.265625 53.625 
Q 29.59375 56 35.59375 56 
Q 45.5625 56 51.78125 48.09375 
Q 58.015625 40.1875 58.015625 27.296875 
Q 58.015625 14.40625 51.78125 6.484375 
Q 45.5625 -1.421875 35.59375 -1.421875 
Q 29.59375 -1.421875 25.265625 0.953125 
Q 20.953125 3.328125 18.109375 8.203125 
L 18.109375 0 
L 9.078125 0 
L 9.078125 75.984375 
L 18.109375 75.984375 
z
" id="DejaVuSans-98"/>
       <path d="M 41.109375 46.296875 
Q 39.59375 47.171875 37.8125 47.578125 
Q 36.03125 48 33.890625 48 
Q 26.265625 48 22.1875 43.046875 
Q 18.109375 38.09375 18.109375 28.8125 
L 18.109375 0 
L 9.078125 0 
L 9.078125 54.6875 
L 18.109375 54.6875 
L 18.109375 46.1875 
Q 20.953125 51.171875 25.484375 53.578125 
Q 30.03125 56 36.53125 56 
Q 37.453125 56 38.578125 55.875 
Q 39.703125 55.765625 41.0625 55.515625 
z
" id="DejaVuSans-114"/>
       <path d="M 30.609375 48.390625 
Q 23.390625 48.390625 19.1875 42.75 
Q 14.984375 37.109375 14.984375 27.296875 
Q 14.984375 17.484375 19.15625 11.84375 
Q 23.34375 6.203125 30.609375 6.203125 
Q 37.796875 6.203125 41.984375 11.859375 
Q 46.1875 17.53125 46.1875 27.296875 
Q 46.1875 37.015625 41.984375 42.703125 
Q 37.796875 48.390625 30.609375 48.390625 
z
M 30.609375 56 
Q 42.328125 56 49.015625 48.375 
Q 55.71875 40.765625 55.71875 27.296875 
Q 55.71875 13.875 49.015625 6.21875 
Q 42.328125 -1.421875 30.609375 -1.421875 
Q 18.84375 -1.421875 12.171875 6.21875 
Q 5.515625 13.875 5.515625 27.296875 
Q 5.515625 40.765625 12.171875 48.375 
Q 18.84375 56 30.609375 56 
z
" id="DejaVuSans-111"/>
       <path d="M 37.109375 75.984375 
L 37.109375 68.5 
L 28.515625 68.5 
Q 23.6875 68.5 21.796875 66.546875 
Q 19.921875 64.59375 19.921875 59.515625 
L 19.921875 54.6875 
L 34.71875 54.6875 
L 34.71875 47.703125 
L 19.921875 47.703125 
L 19.921875 0 
L 10.890625 0 
L 10.890625 47.703125 
L 2.296875 47.703125 
L 2.296875 54.6875 
L 10.890625 54.6875 
L 10.890625 58.5 
Q 10.890625 67.625 15.140625 71.796875 
Q 19.390625 75.984375 28.609375 75.984375 
z
" id="DejaVuSans-102"/>
       <path d="M 44.28125 53.078125 
L 44.28125 44.578125 
Q 40.484375 46.53125 36.375 47.5 
Q 32.28125 48.484375 27.875 48.484375 
Q 21.1875 48.484375 17.84375 46.4375 
Q 14.5 44.390625 14.5 40.28125 
Q 14.5 37.15625 16.890625 35.375 
Q 19.28125 33.59375 26.515625 31.984375 
L 29.59375 31.296875 
Q 39.15625 29.25 43.1875 25.515625 
Q 47.21875 21.78125 47.21875 15.09375 
Q 47.21875 7.46875 41.1875 3.015625 
Q 35.15625 -1.421875 24.609375 -1.421875 
Q 20.21875 -1.421875 15.453125 -0.5625 
Q 10.6875 0.296875 5.421875 2 
L 5.421875 11.28125 
Q 10.40625 8.6875 15.234375 7.390625 
Q 20.0625 6.109375 24.8125 6.109375 
Q 31.15625 6.109375 34.5625 8.28125 
Q 37.984375 10.453125 37.984375 14.40625 
Q 37.984375 18.0625 35.515625 20.015625 
Q 33.0625 21.96875 24.703125 23.78125 
L 21.578125 24.515625 
Q 13.234375 26.265625 9.515625 29.90625 
Q 5.8125 33.546875 5.8125 39.890625 
Q 5.8125 47.609375 11.28125 51.796875 
Q 16.75 56 26.8125 56 
Q 31.78125 56 36.171875 55.265625 
Q 40.578125 54.546875 44.28125 53.078125 
z
" id="DejaVuSans-115"/>
      </defs>
      <use xlink:href="#DejaVuSans-99"/>
      <use x="54.980469" xlink:href="#DejaVuSans-117"/>
      <use x="118.359375" xlink:href="#DejaVuSans-109"/>
      <use x="215.771484" xlink:href="#DejaVuSans-117"/>
      <use x="279.150391" xlink:href="#DejaVuSans-108"/>
      <use x="306.933594" xlink:href="#DejaVuSans-97"/>
      <use x="368.212891" xlink:href="#DejaVuSans-116"/>
      <use x="407.421875" xlink:href="#DejaVuSans-105"/>
      <use x="435.205078" xlink:href="#DejaVuSans-118"/>
      <use x="494.384766" xlink:href="#DejaVuSans-101"/>
      <use x="555.908203" xlink:href="#DejaVuSans-32"/>
      <use x="587.695312" xlink:href="#DejaVuSans-110"/>
      <use x="651.074219" xlink:href="#DejaVuSans-117"/>
      <use x="714.453125" xlink:href="#DejaVuSans-109"/>
      <use x="811.865234" xlink:href="#DejaVuSans-98"/>
      <use x="875.341797" xlink:href="#DejaVuSans-101"/>
      <use x="936.865234" xlink:href="#DejaVuSans-114"/>
      <use x="977.978516" xlink:href="#DejaVuSans-32"/>
      <use x="1009.765625" xlink:href="#DejaVuSans-111"/>
      <use x="1070.947266" xlink:href="#DejaVuSans-102"/>
      <use x="1106.152344" xlink:href="#DejaVuSans-32"/>
      <use x="1137.939453" xlink:href="#DejaVuSans-99"/>
      <use x="1192.919922" xlink:href="#DejaVuSans-111"/>
      <use x="1254.101562" xlink:href="#DejaVuSans-114"/>
      <use x="1292.964844" xlink:href="#DejaVuSans-111"/>
      <use x="1354.146484" xlink:href="#DejaVuSans-110"/>
      <use x="1417.525391" xlink:href="#DejaVuSans-97"/>
      <use x="1478.804688" xlink:href="#DejaVuSans-32"/>
      <use x="1510.591797" xlink:href="#DejaVuSans-99"/>
      <use x="1565.572266" xlink:href="#DejaVuSans-97"/>
      <use x="1626.851562" xlink:href="#DejaVuSans-115"/>
      <use x="1678.951172" xlink:href="#DejaVuSans-101"/>
      <use x="1740.474609" xlink:href="#DejaVuSans-115"/>
     </g>
    </g>
   </g>
   <g id="patch_268">
    <path d="M 65.690625 288.430125 
L 65.690625 22.318125 
" style="fill:none;stroke:#000000;stroke-linecap:square;stroke-linejoin:miter;stroke-width:0.8;"/>
   </g>
   <g id="patch_269">
    <path d="M 65.690625 288.430125 
L 422.810625 288.430125 
" style="fill:none;stroke:#000000;stroke-linecap:square;stroke-linejoin:miter;stroke-width:0.8;"/>
   </g>
   <g id="text_17">
    <!-- South Tyrol -->
    <g transform="translate(210.958125 16.318125)scale(0.12 -0.12)">
     <defs>
      <path d="M 53.515625 70.515625 
L 53.515625 60.890625 
Q 47.90625 63.578125 42.921875 64.890625 
Q 37.9375 66.21875 33.296875 66.21875 
Q 25.25 66.21875 20.875 63.09375 
Q 16.5 59.96875 16.5 54.203125 
Q 16.5 49.359375 19.40625 46.890625 
Q 22.3125 44.4375 30.421875 42.921875 
L 36.375 41.703125 
Q 47.40625 39.59375 52.65625 34.296875 
Q 57.90625 29 57.90625 20.125 
Q 57.90625 9.515625 50.796875 4.046875 
Q 43.703125 -1.421875 29.984375 -1.421875 
Q 24.8125 -1.421875 18.96875 -0.25 
Q 13.140625 0.921875 6.890625 3.21875 
L 6.890625 13.375 
Q 12.890625 10.015625 18.65625 8.296875 
Q 24.421875 6.59375 29.984375 6.59375 
Q 38.421875 6.59375 43.015625 9.90625 
Q 47.609375 13.234375 47.609375 19.390625 
Q 47.609375 24.75 44.3125 27.78125 
Q 41.015625 30.8125 33.5 32.328125 
L 27.484375 33.5 
Q 16.453125 35.6875 11.515625 40.375 
Q 6.59375 45.0625 6.59375 53.421875 
Q 6.59375 63.09375 13.40625 68.65625 
Q 20.21875 74.21875 32.171875 74.21875 
Q 37.3125 74.21875 42.625 73.28125 
Q 47.953125 72.359375 53.515625 70.515625 
z
" id="DejaVuSans-83"/>
      <path d="M 54.890625 33.015625 
L 54.890625 0 
L 45.90625 0 
L 45.90625 32.71875 
Q 45.90625 40.484375 42.875 44.328125 
Q 39.84375 48.1875 33.796875 48.1875 
Q 26.515625 48.1875 22.3125 43.546875 
Q 18.109375 38.921875 18.109375 30.90625 
L 18.109375 0 
L 9.078125 0 
L 9.078125 75.984375 
L 18.109375 75.984375 
L 18.109375 46.1875 
Q 21.34375 51.125 25.703125 53.5625 
Q 30.078125 56 35.796875 56 
Q 45.21875 56 50.046875 50.171875 
Q 54.890625 44.34375 54.890625 33.015625 
z
" id="DejaVuSans-104"/>
      <path d="M -0.296875 72.90625 
L 61.375 72.90625 
L 61.375 64.59375 
L 35.5 64.59375 
L 35.5 0 
L 25.59375 0 
L 25.59375 64.59375 
L -0.296875 64.59375 
z
" id="DejaVuSans-84"/>
      <path d="M 32.171875 -5.078125 
Q 28.375 -14.84375 24.75 -17.8125 
Q 21.140625 -20.796875 15.09375 -20.796875 
L 7.90625 -20.796875 
L 7.90625 -13.28125 
L 13.1875 -13.28125 
Q 16.890625 -13.28125 18.9375 -11.515625 
Q 21 -9.765625 23.484375 -3.21875 
L 25.09375 0.875 
L 2.984375 54.6875 
L 12.5 54.6875 
L 29.59375 11.921875 
L 46.6875 54.6875 
L 56.203125 54.6875 
z
" id="DejaVuSans-121"/>
     </defs>
     <use xlink:href="#DejaVuSans-83"/>
     <use x="63.476562" xlink:href="#DejaVuSans-111"/>
     <use x="124.658203" xlink:href="#DejaVuSans-117"/>
     <use x="188.037109" xlink:href="#DejaVuSans-116"/>
     <use x="227.246094" xlink:href="#DejaVuSans-104"/>
     <use x="290.625" xlink:href="#DejaVuSans-32"/>
     <use x="322.412109" xlink:href="#DejaVuSans-84"/>
     <use x="367.871094" xlink:href="#DejaVuSans-121"/>
     <use x="427.050781" xlink:href="#DejaVuSans-114"/>
     <use x="465.914062" xlink:href="#DejaVuSans-111"/>
     <use x="527.095703" xlink:href="#DejaVuSans-108"/>
    </g>
   </g>
  </g>
 </g>
 <defs>
  <clipPath id="pf59516b381">
   <rect height="266.112" width="357.12" x="65.690625" y="22.318125"/>
  </clipPath>
 </defs>
</svg>
