<?xml version="1.0" encoding="utf-8" standalone="no"?>
<!DOCTYPE svg PUBLIC "-//W3C//DTD SVG 1.1//EN"
  "http://www.w3.org/Graphics/SVG/1.1/DTD/svg11.dtd">
<!-- Created with matplotlib (https://matplotlib.org/) -->
<svg height="364.091062pt" version="1.1" viewBox="0 0 430.010625 364.091062" width="430.010625pt" xmlns="http://www.w3.org/2000/svg" xmlns:xlink="http://www.w3.org/1999/xlink">
 <metadata>
  <rdf:RDF xmlns:cc="http://creativecommons.org/ns#" xmlns:dc="http://purl.org/dc/elements/1.1/" xmlns:rdf="http://www.w3.org/1999/02/22-rdf-syntax-ns#">
   <cc:Work>
    <dc:type rdf:resource="http://purl.org/dc/dcmitype/StillImage"/>
    <dc:date>2020-12-20T19:53:28.372411</dc:date>
    <dc:format>image/svg+xml</dc:format>
    <dc:creator>
     <cc:Agent>
      <dc:title>Matplotlib v3.3.3, https://matplotlib.org/</dc:title>
     </cc:Agent>
    </dc:creator>
   </cc:Work>
  </rdf:RDF>
 </metadata>
 <defs>
  <style type="text/css">*{stroke-linecap:butt;stroke-linejoin:round;}</style>
 </defs>
 <g id="figure_1">
  <g id="patch_1">
   <path d="M 0 364.091062 
L 430.010625 364.091062 
L 430.010625 0 
L 0 0 
z
" style="fill:#ffffff;"/>
  </g>
  <g id="axes_1">
   <g id="patch_2">
    <path d="M 65.690625 288.430125 
L 422.810625 288.430125 
L 422.810625 22.318125 
L 65.690625 22.318125 
z
" style="fill:#ffffff;"/>
   </g>
   <g id="patch_3">
    <path clip-path="url(#pe009d900eb)" d="M 65.817714 288.430125 
L 66.834426 288.430125 
L 66.834426 286.480795 
L 65.817714 286.480795 
z
" style="fill:#1f77b4;"/>
   </g>
   <g id="patch_4">
    <path clip-path="url(#pe009d900eb)" d="M 67.088604 288.430125 
L 68.105315 288.430125 
L 68.105315 286.121209 
L 67.088604 286.121209 
z
" style="fill:#1f77b4;"/>
   </g>
   <g id="patch_5">
    <path clip-path="url(#pe009d900eb)" d="M 68.359493 288.430125 
L 69.376205 288.430125 
L 69.376205 285.657534 
L 68.359493 285.657534 
z
" style="fill:#1f77b4;"/>
   </g>
   <g id="patch_6">
    <path clip-path="url(#pe009d900eb)" d="M 69.630383 288.430125 
L 70.647095 288.430125 
L 70.647095 284.805884 
L 69.630383 284.805884 
z
" style="fill:#1f77b4;"/>
   </g>
   <g id="patch_7">
    <path clip-path="url(#pe009d900eb)" d="M 70.901273 288.430125 
L 71.917984 288.430125 
L 71.917984 284.257044 
L 70.901273 284.257044 
z
" style="fill:#1f77b4;"/>
   </g>
   <g id="patch_8">
    <path clip-path="url(#pe009d900eb)" d="M 72.172162 288.430125 
L 73.188874 288.430125 
L 73.188874 283.178288 
L 72.172162 283.178288 
z
" style="fill:#1f77b4;"/>
   </g>
   <g id="patch_9">
    <path clip-path="url(#pe009d900eb)" d="M 73.443052 288.430125 
L 74.459764 288.430125 
L 74.459764 282.53482 
L 73.443052 282.53482 
z
" style="fill:#1f77b4;"/>
   </g>
   <g id="patch_10">
    <path clip-path="url(#pe009d900eb)" d="M 74.713942 288.430125 
L 75.730653 288.430125 
L 75.730653 281.976516 
L 74.713942 281.976516 
z
" style="fill:#1f77b4;"/>
   </g>
   <g id="patch_11">
    <path clip-path="url(#pe009d900eb)" d="M 75.984831 288.430125 
L 77.001543 288.430125 
L 77.001543 281.57908 
L 75.984831 281.57908 
z
" style="fill:#1f77b4;"/>
   </g>
   <g id="patch_12">
    <path clip-path="url(#pe009d900eb)" d="M 77.255721 288.430125 
L 78.272433 288.430125 
L 78.272433 280.964 
L 77.255721 280.964 
z
" style="fill:#1f77b4;"/>
   </g>
   <g id="patch_13">
    <path clip-path="url(#pe009d900eb)" d="M 78.526611 288.430125 
L 79.543323 288.430125 
L 79.543323 280.51925 
L 78.526611 280.51925 
z
" style="fill:#1f77b4;"/>
   </g>
   <g id="patch_14">
    <path clip-path="url(#pe009d900eb)" d="M 79.7975 288.430125 
L 80.814212 288.430125 
L 80.814212 279.819005 
L 79.7975 279.819005 
z
" style="fill:#1f77b4;"/>
   </g>
   <g id="patch_15">
    <path clip-path="url(#pe009d900eb)" d="M 81.06839 288.430125 
L 82.085102 288.430125 
L 82.085102 278.938967 
L 81.06839 278.938967 
z
" style="fill:#1f77b4;"/>
   </g>
   <g id="patch_16">
    <path clip-path="url(#pe009d900eb)" d="M 82.33928 288.430125 
L 83.355992 288.430125 
L 83.355992 278.191409 
L 82.33928 278.191409 
z
" style="fill:#1f77b4;"/>
   </g>
   <g id="patch_17">
    <path clip-path="url(#pe009d900eb)" d="M 83.610169 288.430125 
L 84.626881 288.430125 
L 84.626881 277.027488 
L 83.610169 277.027488 
z
" style="fill:#1f77b4;"/>
   </g>
   <g id="patch_18">
    <path clip-path="url(#pe009d900eb)" d="M 84.881059 288.430125 
L 85.897771 288.430125 
L 85.897771 276.204227 
L 84.881059 276.204227 
z
" style="fill:#1f77b4;"/>
   </g>
   <g id="patch_19">
    <path clip-path="url(#pe009d900eb)" d="M 86.151949 288.430125 
L 87.168661 288.430125 
L 87.168661 275.636461 
L 86.151949 275.636461 
z
" style="fill:#1f77b4;"/>
   </g>
   <g id="patch_20">
    <path clip-path="url(#pe009d900eb)" d="M 87.422839 288.430125 
L 88.43955 288.430125 
L 88.43955 275.201173 
L 87.422839 275.201173 
z
" style="fill:#1f77b4;"/>
   </g>
   <g id="patch_21">
    <path clip-path="url(#pe009d900eb)" d="M 88.693728 288.430125 
L 89.71044 288.430125 
L 89.71044 274.775349 
L 88.693728 274.775349 
z
" style="fill:#1f77b4;"/>
   </g>
   <g id="patch_22">
    <path clip-path="url(#pe009d900eb)" d="M 89.964618 288.430125 
L 90.98133 288.430125 
L 90.98133 274.02779 
L 89.964618 274.02779 
z
" style="fill:#1f77b4;"/>
   </g>
   <g id="patch_23">
    <path clip-path="url(#pe009d900eb)" d="M 91.235508 288.430125 
L 92.252219 288.430125 
L 92.252219 273.185604 
L 91.235508 273.185604 
z
" style="fill:#1f77b4;"/>
   </g>
   <g id="patch_24">
    <path clip-path="url(#pe009d900eb)" d="M 92.506397 288.430125 
L 93.523109 288.430125 
L 93.523109 272.788167 
L 92.506397 272.788167 
z
" style="fill:#1f77b4;"/>
   </g>
   <g id="patch_25">
    <path clip-path="url(#pe009d900eb)" d="M 93.777287 288.430125 
L 94.793999 288.430125 
L 94.793999 272.040608 
L 93.777287 272.040608 
z
" style="fill:#1f77b4;"/>
   </g>
   <g id="patch_26">
    <path clip-path="url(#pe009d900eb)" d="M 95.048177 288.430125 
L 96.064888 288.430125 
L 96.064888 271.482305 
L 95.048177 271.482305 
z
" style="fill:#1f77b4;"/>
   </g>
   <g id="patch_27">
    <path clip-path="url(#pe009d900eb)" d="M 96.319066 288.430125 
L 97.335778 288.430125 
L 97.335778 270.838837 
L 96.319066 270.838837 
z
" style="fill:#1f77b4;"/>
   </g>
   <g id="patch_28">
    <path clip-path="url(#pe009d900eb)" d="M 97.589956 288.430125 
L 98.606668 288.430125 
L 98.606668 270.346773 
L 97.589956 270.346773 
z
" style="fill:#1f77b4;"/>
   </g>
   <g id="patch_29">
    <path clip-path="url(#pe009d900eb)" d="M 98.860846 288.430125 
L 99.877557 288.430125 
L 99.877557 269.750618 
L 98.860846 269.750618 
z
" style="fill:#1f77b4;"/>
   </g>
   <g id="patch_30">
    <path clip-path="url(#pe009d900eb)" d="M 100.131735 288.430125 
L 101.148447 288.430125 
L 101.148447 269.116613 
L 100.131735 269.116613 
z
" style="fill:#1f77b4;"/>
   </g>
   <g id="patch_31">
    <path clip-path="url(#pe009d900eb)" d="M 101.402625 288.430125 
L 102.419337 288.430125 
L 102.419337 268.615086 
L 101.402625 268.615086 
z
" style="fill:#1f77b4;"/>
   </g>
   <g id="patch_32">
    <path clip-path="url(#pe009d900eb)" d="M 102.673515 288.430125 
L 103.690226 288.430125 
L 103.690226 268.132485 
L 102.673515 268.132485 
z
" style="fill:#1f77b4;"/>
   </g>
   <g id="patch_33">
    <path clip-path="url(#pe009d900eb)" d="M 103.944404 288.430125 
L 104.961116 288.430125 
L 104.961116 267.801288 
L 103.944404 267.801288 
z
" style="fill:#1f77b4;"/>
   </g>
   <g id="patch_34">
    <path clip-path="url(#pe009d900eb)" d="M 105.215294 288.430125 
L 106.232006 288.430125 
L 106.232006 267.384926 
L 105.215294 267.384926 
z
" style="fill:#1f77b4;"/>
   </g>
   <g id="patch_35">
    <path clip-path="url(#pe009d900eb)" d="M 106.486184 288.430125 
L 107.502895 288.430125 
L 107.502895 266.968564 
L 106.486184 266.968564 
z
" style="fill:#1f77b4;"/>
   </g>
   <g id="patch_36">
    <path clip-path="url(#pe009d900eb)" d="M 107.757073 288.430125 
L 108.773785 288.430125 
L 108.773785 266.703607 
L 107.757073 266.703607 
z
" style="fill:#1f77b4;"/>
   </g>
   <g id="patch_37">
    <path clip-path="url(#pe009d900eb)" d="M 109.027963 288.430125 
L 110.044675 288.430125 
L 110.044675 266.429186 
L 109.027963 266.429186 
z
" style="fill:#1f77b4;"/>
   </g>
   <g id="patch_38">
    <path clip-path="url(#pe009d900eb)" d="M 110.298853 288.430125 
L 111.315565 288.430125 
L 111.315565 265.908734 
L 110.298853 265.908734 
z
" style="fill:#1f77b4;"/>
   </g>
   <g id="patch_39">
    <path clip-path="url(#pe009d900eb)" d="M 111.569742 288.430125 
L 112.586454 288.430125 
L 112.586454 265.766792 
L 111.569742 265.766792 
z
" style="fill:#1f77b4;"/>
   </g>
   <g id="patch_40">
    <path clip-path="url(#pe009d900eb)" d="M 112.840632 288.430125 
L 113.857344 288.430125 
L 113.857344 265.605925 
L 112.840632 265.605925 
z
" style="fill:#1f77b4;"/>
   </g>
   <g id="patch_41">
    <path clip-path="url(#pe009d900eb)" d="M 114.111522 288.430125 
L 115.128234 288.430125 
L 115.128234 265.568074 
L 114.111522 265.568074 
z
" style="fill:#1f77b4;"/>
   </g>
   <g id="patch_42">
    <path clip-path="url(#pe009d900eb)" d="M 115.382411 288.430125 
L 116.399123 288.430125 
L 116.399123 265.388282 
L 115.382411 265.388282 
z
" style="fill:#1f77b4;"/>
   </g>
   <g id="patch_43">
    <path clip-path="url(#pe009d900eb)" d="M 116.653301 288.430125 
L 117.670013 288.430125 
L 117.670013 265.189563 
L 116.653301 265.189563 
z
" style="fill:#1f77b4;"/>
   </g>
   <g id="patch_44">
    <path clip-path="url(#pe009d900eb)" d="M 117.924191 288.430125 
L 118.940903 288.430125 
L 118.940903 265.000308 
L 117.924191 265.000308 
z
" style="fill:#1f77b4;"/>
   </g>
   <g id="patch_45">
    <path clip-path="url(#pe009d900eb)" d="M 119.195081 288.430125 
L 120.211792 288.430125 
L 120.211792 264.952994 
L 119.195081 264.952994 
z
" style="fill:#1f77b4;"/>
   </g>
   <g id="patch_46">
    <path clip-path="url(#pe009d900eb)" d="M 120.46597 288.430125 
L 121.482682 288.430125 
L 121.482682 264.811053 
L 120.46597 264.811053 
z
" style="fill:#1f77b4;"/>
   </g>
   <g id="patch_47">
    <path clip-path="url(#pe009d900eb)" d="M 121.73686 288.430125 
L 122.753572 288.430125 
L 122.753572 264.792127 
L 121.73686 264.792127 
z
" style="fill:#1f77b4;"/>
   </g>
   <g id="patch_48">
    <path clip-path="url(#pe009d900eb)" d="M 123.00775 288.430125 
L 124.024461 288.430125 
L 124.024461 264.706962 
L 123.00775 264.706962 
z
" style="fill:#1f77b4;"/>
   </g>
   <g id="patch_49">
    <path clip-path="url(#pe009d900eb)" d="M 124.278639 288.430125 
L 125.295351 288.430125 
L 125.295351 264.602872 
L 124.278639 264.602872 
z
" style="fill:#1f77b4;"/>
   </g>
   <g id="patch_50">
    <path clip-path="url(#pe009d900eb)" d="M 125.549529 288.430125 
L 126.566241 288.430125 
L 126.566241 264.508244 
L 125.549529 264.508244 
z
" style="fill:#1f77b4;"/>
   </g>
   <g id="patch_51">
    <path clip-path="url(#pe009d900eb)" d="M 126.820419 288.430125 
L 127.83713 288.430125 
L 127.83713 264.442005 
L 126.820419 264.442005 
z
" style="fill:#1f77b4;"/>
   </g>
   <g id="patch_52">
    <path clip-path="url(#pe009d900eb)" d="M 128.091308 288.430125 
L 129.10802 288.430125 
L 129.10802 264.432542 
L 128.091308 264.432542 
z
" style="fill:#1f77b4;"/>
   </g>
   <g id="patch_53">
    <path clip-path="url(#pe009d900eb)" d="M 129.362198 288.430125 
L 130.37891 288.430125 
L 130.37891 264.385228 
L 129.362198 264.385228 
z
" style="fill:#1f77b4;"/>
   </g>
   <g id="patch_54">
    <path clip-path="url(#pe009d900eb)" d="M 130.633088 288.430125 
L 131.649799 288.430125 
L 131.649799 264.375765 
L 130.633088 264.375765 
z
" style="fill:#1f77b4;"/>
   </g>
   <g id="patch_55">
    <path clip-path="url(#pe009d900eb)" d="M 131.903977 288.430125 
L 132.920689 288.430125 
L 132.920689 264.366303 
L 131.903977 264.366303 
z
" style="fill:#1f77b4;"/>
   </g>
   <g id="patch_56">
    <path clip-path="url(#pe009d900eb)" d="M 133.174867 288.430125 
L 134.191579 288.430125 
L 134.191579 264.281138 
L 133.174867 264.281138 
z
" style="fill:#1f77b4;"/>
   </g>
   <g id="patch_57">
    <path clip-path="url(#pe009d900eb)" d="M 134.445757 288.430125 
L 135.462468 288.430125 
L 135.462468 264.224361 
L 134.445757 264.224361 
z
" style="fill:#1f77b4;"/>
   </g>
   <g id="patch_58">
    <path clip-path="url(#pe009d900eb)" d="M 135.716646 288.430125 
L 136.733358 288.430125 
L 136.733358 264.139196 
L 135.716646 264.139196 
z
" style="fill:#1f77b4;"/>
   </g>
   <g id="patch_59">
    <path clip-path="url(#pe009d900eb)" d="M 136.987536 288.430125 
L 138.004248 288.430125 
L 138.004248 264.120271 
L 136.987536 264.120271 
z
" style="fill:#1f77b4;"/>
   </g>
   <g id="patch_60">
    <path clip-path="url(#pe009d900eb)" d="M 138.258426 288.430125 
L 139.275137 288.430125 
L 139.275137 264.091882 
L 138.258426 264.091882 
z
" style="fill:#1f77b4;"/>
   </g>
   <g id="patch_61">
    <path clip-path="url(#pe009d900eb)" d="M 139.529315 288.430125 
L 140.546027 288.430125 
L 140.546027 264.091882 
L 139.529315 264.091882 
z
" style="fill:#1f77b4;"/>
   </g>
   <g id="patch_62">
    <path clip-path="url(#pe009d900eb)" d="M 140.800205 288.430125 
L 141.816917 288.430125 
L 141.816917 264.063494 
L 140.800205 264.063494 
z
" style="fill:#1f77b4;"/>
   </g>
   <g id="patch_63">
    <path clip-path="url(#pe009d900eb)" d="M 142.071095 288.430125 
L 143.087806 288.430125 
L 143.087806 264.035106 
L 142.071095 264.035106 
z
" style="fill:#1f77b4;"/>
   </g>
   <g id="patch_64">
    <path clip-path="url(#pe009d900eb)" d="M 143.341984 288.430125 
L 144.358696 288.430125 
L 144.358696 264.035106 
L 143.341984 264.035106 
z
" style="fill:#1f77b4;"/>
   </g>
   <g id="patch_65">
    <path clip-path="url(#pe009d900eb)" d="M 144.612874 288.430125 
L 145.629586 288.430125 
L 145.629586 264.035106 
L 144.612874 264.035106 
z
" style="fill:#1f77b4;"/>
   </g>
   <g id="patch_66">
    <path clip-path="url(#pe009d900eb)" d="M 145.883764 288.430125 
L 146.900476 288.430125 
L 146.900476 264.01618 
L 145.883764 264.01618 
z
" style="fill:#1f77b4;"/>
   </g>
   <g id="patch_67">
    <path clip-path="url(#pe009d900eb)" d="M 147.154653 288.430125 
L 148.171365 288.430125 
L 148.171365 263.997255 
L 147.154653 263.997255 
z
" style="fill:#1f77b4;"/>
   </g>
   <g id="patch_68">
    <path clip-path="url(#pe009d900eb)" d="M 148.425543 288.430125 
L 149.442255 288.430125 
L 149.442255 263.949941 
L 148.425543 263.949941 
z
" style="fill:#1f77b4;"/>
   </g>
   <g id="patch_69">
    <path clip-path="url(#pe009d900eb)" d="M 149.696433 288.430125 
L 150.713145 288.430125 
L 150.713145 263.949941 
L 149.696433 263.949941 
z
" style="fill:#1f77b4;"/>
   </g>
   <g id="patch_70">
    <path clip-path="url(#pe009d900eb)" d="M 150.967323 288.430125 
L 151.984034 288.430125 
L 151.984034 263.949941 
L 150.967323 263.949941 
z
" style="fill:#1f77b4;"/>
   </g>
   <g id="patch_71">
    <path clip-path="url(#pe009d900eb)" d="M 152.238212 288.430125 
L 153.254924 288.430125 
L 153.254924 263.921552 
L 152.238212 263.921552 
z
" style="fill:#1f77b4;"/>
   </g>
   <g id="patch_72">
    <path clip-path="url(#pe009d900eb)" d="M 153.509102 288.430125 
L 154.525814 288.430125 
L 154.525814 263.921552 
L 153.509102 263.921552 
z
" style="fill:#1f77b4;"/>
   </g>
   <g id="patch_73">
    <path clip-path="url(#pe009d900eb)" d="M 154.779992 288.430125 
L 155.796703 288.430125 
L 155.796703 263.902627 
L 154.779992 263.902627 
z
" style="fill:#1f77b4;"/>
   </g>
   <g id="patch_74">
    <path clip-path="url(#pe009d900eb)" d="M 156.050881 288.430125 
L 157.067593 288.430125 
L 157.067593 263.902627 
L 156.050881 263.902627 
z
" style="fill:#1f77b4;"/>
   </g>
   <g id="patch_75">
    <path clip-path="url(#pe009d900eb)" d="M 157.321771 288.430125 
L 158.338483 288.430125 
L 158.338483 263.893164 
L 157.321771 263.893164 
z
" style="fill:#1f77b4;"/>
   </g>
   <g id="patch_76">
    <path clip-path="url(#pe009d900eb)" d="M 158.592661 288.430125 
L 159.609372 288.430125 
L 159.609372 263.893164 
L 158.592661 263.893164 
z
" style="fill:#1f77b4;"/>
   </g>
   <g id="patch_77">
    <path clip-path="url(#pe009d900eb)" d="M 159.86355 288.430125 
L 160.880262 288.430125 
L 160.880262 263.874239 
L 159.86355 263.874239 
z
" style="fill:#1f77b4;"/>
   </g>
   <g id="patch_78">
    <path clip-path="url(#pe009d900eb)" d="M 161.13444 288.430125 
L 162.151152 288.430125 
L 162.151152 263.874239 
L 161.13444 263.874239 
z
" style="fill:#1f77b4;"/>
   </g>
   <g id="patch_79">
    <path clip-path="url(#pe009d900eb)" d="M 162.40533 288.430125 
L 163.422041 288.430125 
L 163.422041 263.864776 
L 162.40533 263.864776 
z
" style="fill:#1f77b4;"/>
   </g>
   <g id="patch_80">
    <path clip-path="url(#pe009d900eb)" d="M 163.676219 288.430125 
L 164.692931 288.430125 
L 164.692931 263.855313 
L 163.676219 263.855313 
z
" style="fill:#1f77b4;"/>
   </g>
   <g id="patch_81">
    <path clip-path="url(#pe009d900eb)" d="M 164.947109 288.430125 
L 165.963821 288.430125 
L 165.963821 263.855313 
L 164.947109 263.855313 
z
" style="fill:#1f77b4;"/>
   </g>
   <g id="patch_82">
    <path clip-path="url(#pe009d900eb)" d="M 166.217999 288.430125 
L 167.23471 288.430125 
L 167.23471 263.855313 
L 166.217999 263.855313 
z
" style="fill:#1f77b4;"/>
   </g>
   <g id="patch_83">
    <path clip-path="url(#pe009d900eb)" d="M 167.488888 288.430125 
L 168.5056 288.430125 
L 168.5056 263.855313 
L 167.488888 263.855313 
z
" style="fill:#1f77b4;"/>
   </g>
   <g id="patch_84">
    <path clip-path="url(#pe009d900eb)" d="M 168.759778 288.430125 
L 169.77649 288.430125 
L 169.77649 263.855313 
L 168.759778 263.855313 
z
" style="fill:#1f77b4;"/>
   </g>
   <g id="patch_85">
    <path clip-path="url(#pe009d900eb)" d="M 170.030668 288.430125 
L 171.047379 288.430125 
L 171.047379 263.84585 
L 170.030668 263.84585 
z
" style="fill:#1f77b4;"/>
   </g>
   <g id="patch_86">
    <path clip-path="url(#pe009d900eb)" d="M 171.301557 288.430125 
L 172.318269 288.430125 
L 172.318269 263.836387 
L 171.301557 263.836387 
z
" style="fill:#1f77b4;"/>
   </g>
   <g id="patch_87">
    <path clip-path="url(#pe009d900eb)" d="M 172.572447 288.430125 
L 173.589159 288.430125 
L 173.589159 263.807999 
L 172.572447 263.807999 
z
" style="fill:#1f77b4;"/>
   </g>
   <g id="patch_88">
    <path clip-path="url(#pe009d900eb)" d="M 173.843337 288.430125 
L 174.860048 288.430125 
L 174.860048 263.807999 
L 173.843337 263.807999 
z
" style="fill:#1f77b4;"/>
   </g>
   <g id="patch_89">
    <path clip-path="url(#pe009d900eb)" d="M 175.114226 288.430125 
L 176.130938 288.430125 
L 176.130938 263.807999 
L 175.114226 263.807999 
z
" style="fill:#1f77b4;"/>
   </g>
   <g id="patch_90">
    <path clip-path="url(#pe009d900eb)" d="M 176.385116 288.430125 
L 177.401828 288.430125 
L 177.401828 263.807999 
L 176.385116 263.807999 
z
" style="fill:#1f77b4;"/>
   </g>
   <g id="patch_91">
    <path clip-path="url(#pe009d900eb)" d="M 177.656006 288.430125 
L 178.672718 288.430125 
L 178.672718 263.770148 
L 177.656006 263.770148 
z
" style="fill:#1f77b4;"/>
   </g>
   <g id="patch_92">
    <path clip-path="url(#pe009d900eb)" d="M 178.926895 288.430125 
L 179.943607 288.430125 
L 179.943607 263.751223 
L 178.926895 263.751223 
z
" style="fill:#1f77b4;"/>
   </g>
   <g id="patch_93">
    <path clip-path="url(#pe009d900eb)" d="M 180.197785 288.430125 
L 181.214497 288.430125 
L 181.214497 263.732297 
L 180.197785 263.732297 
z
" style="fill:#1f77b4;"/>
   </g>
   <g id="patch_94">
    <path clip-path="url(#pe009d900eb)" d="M 181.468675 288.430125 
L 182.485387 288.430125 
L 182.485387 263.722834 
L 181.468675 263.722834 
z
" style="fill:#1f77b4;"/>
   </g>
   <g id="patch_95">
    <path clip-path="url(#pe009d900eb)" d="M 182.739565 288.430125 
L 183.756276 288.430125 
L 183.756276 263.722834 
L 182.739565 263.722834 
z
" style="fill:#1f77b4;"/>
   </g>
   <g id="patch_96">
    <path clip-path="url(#pe009d900eb)" d="M 184.010454 288.430125 
L 185.027166 288.430125 
L 185.027166 263.722834 
L 184.010454 263.722834 
z
" style="fill:#1f77b4;"/>
   </g>
   <g id="patch_97">
    <path clip-path="url(#pe009d900eb)" d="M 185.281344 288.430125 
L 186.298056 288.430125 
L 186.298056 263.722834 
L 185.281344 263.722834 
z
" style="fill:#1f77b4;"/>
   </g>
   <g id="patch_98">
    <path clip-path="url(#pe009d900eb)" d="M 186.552234 288.430125 
L 187.568945 288.430125 
L 187.568945 263.703909 
L 186.552234 263.703909 
z
" style="fill:#1f77b4;"/>
   </g>
   <g id="patch_99">
    <path clip-path="url(#pe009d900eb)" d="M 187.823123 288.430125 
L 188.839835 288.430125 
L 188.839835 263.684983 
L 187.823123 263.684983 
z
" style="fill:#1f77b4;"/>
   </g>
   <g id="patch_100">
    <path clip-path="url(#pe009d900eb)" d="M 189.094013 288.430125 
L 190.110725 288.430125 
L 190.110725 263.656595 
L 189.094013 263.656595 
z
" style="fill:#1f77b4;"/>
   </g>
   <g id="patch_101">
    <path clip-path="url(#pe009d900eb)" d="M 190.364903 288.430125 
L 191.381614 288.430125 
L 191.381614 263.618744 
L 190.364903 263.618744 
z
" style="fill:#1f77b4;"/>
   </g>
   <g id="patch_102">
    <path clip-path="url(#pe009d900eb)" d="M 191.635792 288.430125 
L 192.652504 288.430125 
L 192.652504 263.514653 
L 191.635792 263.514653 
z
" style="fill:#1f77b4;"/>
   </g>
   <g id="patch_103">
    <path clip-path="url(#pe009d900eb)" d="M 192.906682 288.430125 
L 193.923394 288.430125 
L 193.923394 263.514653 
L 192.906682 263.514653 
z
" style="fill:#1f77b4;"/>
   </g>
   <g id="patch_104">
    <path clip-path="url(#pe009d900eb)" d="M 194.177572 288.430125 
L 195.194283 288.430125 
L 195.194283 263.505191 
L 194.177572 263.505191 
z
" style="fill:#1f77b4;"/>
   </g>
   <g id="patch_105">
    <path clip-path="url(#pe009d900eb)" d="M 195.448461 288.430125 
L 196.465173 288.430125 
L 196.465173 263.505191 
L 195.448461 263.505191 
z
" style="fill:#1f77b4;"/>
   </g>
   <g id="patch_106">
    <path clip-path="url(#pe009d900eb)" d="M 196.719351 288.430125 
L 197.736063 288.430125 
L 197.736063 263.505191 
L 196.719351 263.505191 
z
" style="fill:#1f77b4;"/>
   </g>
   <g id="patch_107">
    <path clip-path="url(#pe009d900eb)" d="M 197.990241 288.430125 
L 199.006952 288.430125 
L 199.006952 263.486265 
L 197.990241 263.486265 
z
" style="fill:#1f77b4;"/>
   </g>
   <g id="patch_108">
    <path clip-path="url(#pe009d900eb)" d="M 199.26113 288.430125 
L 200.277842 288.430125 
L 200.277842 263.476802 
L 199.26113 263.476802 
z
" style="fill:#1f77b4;"/>
   </g>
   <g id="patch_109">
    <path clip-path="url(#pe009d900eb)" d="M 200.53202 288.430125 
L 201.548732 288.430125 
L 201.548732 263.457877 
L 200.53202 263.457877 
z
" style="fill:#1f77b4;"/>
   </g>
   <g id="patch_110">
    <path clip-path="url(#pe009d900eb)" d="M 201.80291 288.430125 
L 202.819621 288.430125 
L 202.819621 263.457877 
L 201.80291 263.457877 
z
" style="fill:#1f77b4;"/>
   </g>
   <g id="patch_111">
    <path clip-path="url(#pe009d900eb)" d="M 203.073799 288.430125 
L 204.090511 288.430125 
L 204.090511 263.438951 
L 203.073799 263.438951 
z
" style="fill:#1f77b4;"/>
   </g>
   <g id="patch_112">
    <path clip-path="url(#pe009d900eb)" d="M 204.344689 288.430125 
L 205.361401 288.430125 
L 205.361401 263.429488 
L 204.344689 263.429488 
z
" style="fill:#1f77b4;"/>
   </g>
   <g id="patch_113">
    <path clip-path="url(#pe009d900eb)" d="M 205.615579 288.430125 
L 206.63229 288.430125 
L 206.63229 263.429488 
L 205.615579 263.429488 
z
" style="fill:#1f77b4;"/>
   </g>
   <g id="patch_114">
    <path clip-path="url(#pe009d900eb)" d="M 206.886468 288.430125 
L 207.90318 288.430125 
L 207.90318 263.391637 
L 206.886468 263.391637 
z
" style="fill:#1f77b4;"/>
   </g>
   <g id="patch_115">
    <path clip-path="url(#pe009d900eb)" d="M 208.157358 288.430125 
L 209.17407 288.430125 
L 209.17407 263.382174 
L 208.157358 263.382174 
z
" style="fill:#1f77b4;"/>
   </g>
   <g id="patch_116">
    <path clip-path="url(#pe009d900eb)" d="M 209.428248 288.430125 
L 210.44496 288.430125 
L 210.44496 263.382174 
L 209.428248 263.382174 
z
" style="fill:#1f77b4;"/>
   </g>
   <g id="patch_117">
    <path clip-path="url(#pe009d900eb)" d="M 210.699137 288.430125 
L 211.715849 288.430125 
L 211.715849 263.372712 
L 210.699137 263.372712 
z
" style="fill:#1f77b4;"/>
   </g>
   <g id="patch_118">
    <path clip-path="url(#pe009d900eb)" d="M 211.970027 288.430125 
L 212.986739 288.430125 
L 212.986739 263.353786 
L 211.970027 263.353786 
z
" style="fill:#1f77b4;"/>
   </g>
   <g id="patch_119">
    <path clip-path="url(#pe009d900eb)" d="M 213.240917 288.430125 
L 214.257629 288.430125 
L 214.257629 263.325398 
L 213.240917 263.325398 
z
" style="fill:#1f77b4;"/>
   </g>
   <g id="patch_120">
    <path clip-path="url(#pe009d900eb)" d="M 214.511806 288.430125 
L 215.528518 288.430125 
L 215.528518 263.278084 
L 214.511806 263.278084 
z
" style="fill:#1f77b4;"/>
   </g>
   <g id="patch_121">
    <path clip-path="url(#pe009d900eb)" d="M 215.782696 288.430125 
L 216.799408 288.430125 
L 216.799408 263.249696 
L 215.782696 263.249696 
z
" style="fill:#1f77b4;"/>
   </g>
   <g id="patch_122">
    <path clip-path="url(#pe009d900eb)" d="M 217.053586 288.430125 
L 218.070298 288.430125 
L 218.070298 263.202382 
L 217.053586 263.202382 
z
" style="fill:#1f77b4;"/>
   </g>
   <g id="patch_123">
    <path clip-path="url(#pe009d900eb)" d="M 218.324476 288.430125 
L 219.341187 288.430125 
L 219.341187 263.136142 
L 218.324476 263.136142 
z
" style="fill:#1f77b4;"/>
   </g>
   <g id="patch_124">
    <path clip-path="url(#pe009d900eb)" d="M 219.595365 288.430125 
L 220.612077 288.430125 
L 220.612077 263.12668 
L 219.595365 263.12668 
z
" style="fill:#1f77b4;"/>
   </g>
   <g id="patch_125">
    <path clip-path="url(#pe009d900eb)" d="M 220.866255 288.430125 
L 221.882967 288.430125 
L 221.882967 263.098291 
L 220.866255 263.098291 
z
" style="fill:#1f77b4;"/>
   </g>
   <g id="patch_126">
    <path clip-path="url(#pe009d900eb)" d="M 222.137145 288.430125 
L 223.153856 288.430125 
L 223.153856 263.088829 
L 222.137145 263.088829 
z
" style="fill:#1f77b4;"/>
   </g>
   <g id="patch_127">
    <path clip-path="url(#pe009d900eb)" d="M 223.408034 288.430125 
L 224.424746 288.430125 
L 224.424746 263.050978 
L 223.408034 263.050978 
z
" style="fill:#1f77b4;"/>
   </g>
   <g id="patch_128">
    <path clip-path="url(#pe009d900eb)" d="M 224.678924 288.430125 
L 225.695636 288.430125 
L 225.695636 263.041515 
L 224.678924 263.041515 
z
" style="fill:#1f77b4;"/>
   </g>
   <g id="patch_129">
    <path clip-path="url(#pe009d900eb)" d="M 225.949814 288.430125 
L 226.966525 288.430125 
L 226.966525 263.032052 
L 225.949814 263.032052 
z
" style="fill:#1f77b4;"/>
   </g>
   <g id="patch_130">
    <path clip-path="url(#pe009d900eb)" d="M 227.220703 288.430125 
L 228.237415 288.430125 
L 228.237415 263.032052 
L 227.220703 263.032052 
z
" style="fill:#1f77b4;"/>
   </g>
   <g id="patch_131">
    <path clip-path="url(#pe009d900eb)" d="M 228.491593 288.430125 
L 229.508305 288.430125 
L 229.508305 263.022589 
L 228.491593 263.022589 
z
" style="fill:#1f77b4;"/>
   </g>
   <g id="patch_132">
    <path clip-path="url(#pe009d900eb)" d="M 229.762483 288.430125 
L 230.779194 288.430125 
L 230.779194 263.022589 
L 229.762483 263.022589 
z
" style="fill:#1f77b4;"/>
   </g>
   <g id="patch_133">
    <path clip-path="url(#pe009d900eb)" d="M 231.033372 288.430125 
L 232.050084 288.430125 
L 232.050084 263.013126 
L 231.033372 263.013126 
z
" style="fill:#1f77b4;"/>
   </g>
   <g id="patch_134">
    <path clip-path="url(#pe009d900eb)" d="M 232.304262 288.430125 
L 233.320974 288.430125 
L 233.320974 263.003664 
L 232.304262 263.003664 
z
" style="fill:#1f77b4;"/>
   </g>
   <g id="patch_135">
    <path clip-path="url(#pe009d900eb)" d="M 233.575152 288.430125 
L 234.591863 288.430125 
L 234.591863 262.946887 
L 233.575152 262.946887 
z
" style="fill:#1f77b4;"/>
   </g>
   <g id="patch_136">
    <path clip-path="url(#pe009d900eb)" d="M 234.846041 288.430125 
L 235.862753 288.430125 
L 235.862753 262.899573 
L 234.846041 262.899573 
z
" style="fill:#1f77b4;"/>
   </g>
   <g id="patch_137">
    <path clip-path="url(#pe009d900eb)" d="M 236.116931 288.430125 
L 237.133643 288.430125 
L 237.133643 262.880648 
L 236.116931 262.880648 
z
" style="fill:#1f77b4;"/>
   </g>
   <g id="patch_138">
    <path clip-path="url(#pe009d900eb)" d="M 237.387821 288.430125 
L 238.404532 288.430125 
L 238.404532 262.95635 
L 237.387821 262.95635 
z
" style="fill:#1f77b4;"/>
   </g>
   <g id="patch_139">
    <path clip-path="url(#pe009d900eb)" d="M 238.65871 288.430125 
L 239.675422 288.430125 
L 239.675422 262.918499 
L 238.65871 262.918499 
z
" style="fill:#1f77b4;"/>
   </g>
   <g id="patch_140">
    <path clip-path="url(#pe009d900eb)" d="M 239.9296 288.430125 
L 240.946312 288.430125 
L 240.946312 262.861722 
L 239.9296 262.861722 
z
" style="fill:#1f77b4;"/>
   </g>
   <g id="patch_141">
    <path clip-path="url(#pe009d900eb)" d="M 241.20049 288.430125 
L 242.217202 288.430125 
L 242.217202 262.719781 
L 241.20049 262.719781 
z
" style="fill:#1f77b4;"/>
   </g>
   <g id="patch_142">
    <path clip-path="url(#pe009d900eb)" d="M 242.471379 288.430125 
L 243.488091 288.430125 
L 243.488091 262.644078 
L 242.471379 262.644078 
z
" style="fill:#1f77b4;"/>
   </g>
   <g id="patch_143">
    <path clip-path="url(#pe009d900eb)" d="M 243.742269 288.430125 
L 244.758981 288.430125 
L 244.758981 262.61569 
L 243.742269 262.61569 
z
" style="fill:#1f77b4;"/>
   </g>
   <g id="patch_144">
    <path clip-path="url(#pe009d900eb)" d="M 245.013159 288.430125 
L 246.029871 288.430125 
L 246.029871 262.558914 
L 245.013159 262.558914 
z
" style="fill:#1f77b4;"/>
   </g>
   <g id="patch_145">
    <path clip-path="url(#pe009d900eb)" d="M 246.284048 288.430125 
L 247.30076 288.430125 
L 247.30076 262.492674 
L 246.284048 262.492674 
z
" style="fill:#1f77b4;"/>
   </g>
   <g id="patch_146">
    <path clip-path="url(#pe009d900eb)" d="M 247.554938 288.430125 
L 248.57165 288.430125 
L 248.57165 262.454823 
L 247.554938 262.454823 
z
" style="fill:#1f77b4;"/>
   </g>
   <g id="patch_147">
    <path clip-path="url(#pe009d900eb)" d="M 248.825828 288.430125 
L 249.84254 288.430125 
L 249.84254 262.34127 
L 248.825828 262.34127 
z
" style="fill:#1f77b4;"/>
   </g>
   <g id="patch_148">
    <path clip-path="url(#pe009d900eb)" d="M 250.096718 288.430125 
L 251.113429 288.430125 
L 251.113429 262.303419 
L 250.096718 262.303419 
z
" style="fill:#1f77b4;"/>
   </g>
   <g id="patch_149">
    <path clip-path="url(#pe009d900eb)" d="M 251.367607 288.430125 
L 252.384319 288.430125 
L 252.384319 262.256105 
L 251.367607 262.256105 
z
" style="fill:#1f77b4;"/>
   </g>
   <g id="patch_150">
    <path clip-path="url(#pe009d900eb)" d="M 252.638497 288.430125 
L 253.655209 288.430125 
L 253.655209 262.189866 
L 252.638497 262.189866 
z
" style="fill:#1f77b4;"/>
   </g>
   <g id="patch_151">
    <path clip-path="url(#pe009d900eb)" d="M 253.909387 288.430125 
L 254.926098 288.430125 
L 254.926098 262.180403 
L 253.909387 262.180403 
z
" style="fill:#1f77b4;"/>
   </g>
   <g id="patch_152">
    <path clip-path="url(#pe009d900eb)" d="M 255.180276 288.430125 
L 256.196988 288.430125 
L 256.196988 262.17094 
L 255.180276 262.17094 
z
" style="fill:#1f77b4;"/>
   </g>
   <g id="patch_153">
    <path clip-path="url(#pe009d900eb)" d="M 256.451166 288.430125 
L 257.467878 288.430125 
L 257.467878 262.133089 
L 256.451166 262.133089 
z
" style="fill:#1f77b4;"/>
   </g>
   <g id="patch_154">
    <path clip-path="url(#pe009d900eb)" d="M 257.722056 288.430125 
L 258.738767 288.430125 
L 258.738767 262.114163 
L 257.722056 262.114163 
z
" style="fill:#1f77b4;"/>
   </g>
   <g id="patch_155">
    <path clip-path="url(#pe009d900eb)" d="M 258.992945 288.430125 
L 260.009657 288.430125 
L 260.009657 262.085775 
L 258.992945 262.085775 
z
" style="fill:#1f77b4;"/>
   </g>
   <g id="patch_156">
    <path clip-path="url(#pe009d900eb)" d="M 260.263835 288.430125 
L 261.280547 288.430125 
L 261.280547 262.00061 
L 260.263835 262.00061 
z
" style="fill:#1f77b4;"/>
   </g>
   <g id="patch_157">
    <path clip-path="url(#pe009d900eb)" d="M 261.534725 288.430125 
L 262.551436 288.430125 
L 262.551436 261.915445 
L 261.534725 261.915445 
z
" style="fill:#1f77b4;"/>
   </g>
   <g id="patch_158">
    <path clip-path="url(#pe009d900eb)" d="M 262.805614 288.430125 
L 263.822326 288.430125 
L 263.822326 261.89652 
L 262.805614 261.89652 
z
" style="fill:#1f77b4;"/>
   </g>
   <g id="patch_159">
    <path clip-path="url(#pe009d900eb)" d="M 264.076504 288.430125 
L 265.093216 288.430125 
L 265.093216 261.89652 
L 264.076504 261.89652 
z
" style="fill:#1f77b4;"/>
   </g>
   <g id="patch_160">
    <path clip-path="url(#pe009d900eb)" d="M 265.347394 288.430125 
L 266.364105 288.430125 
L 266.364105 261.83028 
L 265.347394 261.83028 
z
" style="fill:#1f77b4;"/>
   </g>
   <g id="patch_161">
    <path clip-path="url(#pe009d900eb)" d="M 266.618283 288.430125 
L 267.634995 288.430125 
L 267.634995 261.631562 
L 266.618283 261.631562 
z
" style="fill:#1f77b4;"/>
   </g>
   <g id="patch_162">
    <path clip-path="url(#pe009d900eb)" d="M 267.889173 288.430125 
L 268.905885 288.430125 
L 268.905885 261.584248 
L 267.889173 261.584248 
z
" style="fill:#1f77b4;"/>
   </g>
   <g id="patch_163">
    <path clip-path="url(#pe009d900eb)" d="M 269.160063 288.430125 
L 270.176774 288.430125 
L 270.176774 261.432844 
L 269.160063 261.432844 
z
" style="fill:#1f77b4;"/>
   </g>
   <g id="patch_164">
    <path clip-path="url(#pe009d900eb)" d="M 270.430952 288.430125 
L 271.447664 288.430125 
L 271.447664 261.28144 
L 270.430952 261.28144 
z
" style="fill:#1f77b4;"/>
   </g>
   <g id="patch_165">
    <path clip-path="url(#pe009d900eb)" d="M 271.701842 288.430125 
L 272.718554 288.430125 
L 272.718554 261.139498 
L 271.701842 261.139498 
z
" style="fill:#1f77b4;"/>
   </g>
   <g id="patch_166">
    <path clip-path="url(#pe009d900eb)" d="M 272.972732 288.430125 
L 273.989444 288.430125 
L 273.989444 261.054333 
L 272.972732 261.054333 
z
" style="fill:#1f77b4;"/>
   </g>
   <g id="patch_167">
    <path clip-path="url(#pe009d900eb)" d="M 274.243621 288.430125 
L 275.260333 288.430125 
L 275.260333 261.007019 
L 274.243621 261.007019 
z
" style="fill:#1f77b4;"/>
   </g>
   <g id="patch_168">
    <path clip-path="url(#pe009d900eb)" d="M 275.514511 288.430125 
L 276.531223 288.430125 
L 276.531223 260.921854 
L 275.514511 260.921854 
z
" style="fill:#1f77b4;"/>
   </g>
   <g id="patch_169">
    <path clip-path="url(#pe009d900eb)" d="M 276.785401 288.430125 
L 277.802113 288.430125 
L 277.802113 260.846152 
L 276.785401 260.846152 
z
" style="fill:#1f77b4;"/>
   </g>
   <g id="patch_170">
    <path clip-path="url(#pe009d900eb)" d="M 278.05629 288.430125 
L 279.073002 288.430125 
L 279.073002 260.760987 
L 278.05629 260.760987 
z
" style="fill:#1f77b4;"/>
   </g>
   <g id="patch_171">
    <path clip-path="url(#pe009d900eb)" d="M 279.32718 288.430125 
L 280.343892 288.430125 
L 280.343892 260.685285 
L 279.32718 260.685285 
z
" style="fill:#1f77b4;"/>
   </g>
   <g id="patch_172">
    <path clip-path="url(#pe009d900eb)" d="M 280.59807 288.430125 
L 281.614782 288.430125 
L 281.614782 260.656897 
L 280.59807 260.656897 
z
" style="fill:#1f77b4;"/>
   </g>
   <g id="patch_173">
    <path clip-path="url(#pe009d900eb)" d="M 281.86896 288.430125 
L 282.885671 288.430125 
L 282.885671 260.533881 
L 281.86896 260.533881 
z
" style="fill:#1f77b4;"/>
   </g>
   <g id="patch_174">
    <path clip-path="url(#pe009d900eb)" d="M 283.139849 288.430125 
L 284.156561 288.430125 
L 284.156561 260.439253 
L 283.139849 260.439253 
z
" style="fill:#1f77b4;"/>
   </g>
   <g id="patch_175">
    <path clip-path="url(#pe009d900eb)" d="M 284.410739 288.430125 
L 285.427451 288.430125 
L 285.427451 260.401402 
L 284.410739 260.401402 
z
" style="fill:#1f77b4;"/>
   </g>
   <g id="patch_176">
    <path clip-path="url(#pe009d900eb)" d="M 285.681629 288.430125 
L 286.69834 288.430125 
L 286.69834 260.297312 
L 285.681629 260.297312 
z
" style="fill:#1f77b4;"/>
   </g>
   <g id="patch_177">
    <path clip-path="url(#pe009d900eb)" d="M 286.952518 288.430125 
L 287.96923 288.430125 
L 287.96923 260.079668 
L 286.952518 260.079668 
z
" style="fill:#1f77b4;"/>
   </g>
   <g id="patch_178">
    <path clip-path="url(#pe009d900eb)" d="M 288.223408 288.430125 
L 289.24012 288.430125 
L 289.24012 260.013429 
L 288.223408 260.013429 
z
" style="fill:#1f77b4;"/>
   </g>
   <g id="patch_179">
    <path clip-path="url(#pe009d900eb)" d="M 289.494298 288.430125 
L 290.511009 288.430125 
L 290.511009 260.013429 
L 289.494298 260.013429 
z
" style="fill:#1f77b4;"/>
   </g>
   <g id="patch_180">
    <path clip-path="url(#pe009d900eb)" d="M 290.765187 288.430125 
L 291.781899 288.430125 
L 291.781899 259.975578 
L 290.765187 259.975578 
z
" style="fill:#1f77b4;"/>
   </g>
   <g id="patch_181">
    <path clip-path="url(#pe009d900eb)" d="M 292.036077 288.430125 
L 293.052789 288.430125 
L 293.052789 259.88095 
L 292.036077 259.88095 
z
" style="fill:#1f77b4;"/>
   </g>
   <g id="patch_182">
    <path clip-path="url(#pe009d900eb)" d="M 293.306967 288.430125 
L 294.323678 288.430125 
L 294.323678 259.691694 
L 293.306967 259.691694 
z
" style="fill:#1f77b4;"/>
   </g>
   <g id="patch_183">
    <path clip-path="url(#pe009d900eb)" d="M 294.577856 288.430125 
L 295.594568 288.430125 
L 295.594568 259.445662 
L 294.577856 259.445662 
z
" style="fill:#1f77b4;"/>
   </g>
   <g id="patch_184">
    <path clip-path="url(#pe009d900eb)" d="M 295.848746 288.430125 
L 296.865458 288.430125 
L 296.865458 259.209093 
L 295.848746 259.209093 
z
" style="fill:#1f77b4;"/>
   </g>
   <g id="patch_185">
    <path clip-path="url(#pe009d900eb)" d="M 297.119636 288.430125 
L 298.136347 288.430125 
L 298.136347 258.830582 
L 297.119636 258.830582 
z
" style="fill:#1f77b4;"/>
   </g>
   <g id="patch_186">
    <path clip-path="url(#pe009d900eb)" d="M 298.390525 288.430125 
L 299.407237 288.430125 
L 299.407237 258.764343 
L 298.390525 258.764343 
z
" style="fill:#1f77b4;"/>
   </g>
   <g id="patch_187">
    <path clip-path="url(#pe009d900eb)" d="M 299.661415 288.430125 
L 300.678127 288.430125 
L 300.678127 258.565625 
L 299.661415 258.565625 
z
" style="fill:#1f77b4;"/>
   </g>
   <g id="patch_188">
    <path clip-path="url(#pe009d900eb)" d="M 300.932305 288.430125 
L 301.949016 288.430125 
L 301.949016 258.452072 
L 300.932305 258.452072 
z
" style="fill:#1f77b4;"/>
   </g>
   <g id="patch_189">
    <path clip-path="url(#pe009d900eb)" d="M 302.203194 288.430125 
L 303.219906 288.430125 
L 303.219906 258.31013 
L 302.203194 258.31013 
z
" style="fill:#1f77b4;"/>
   </g>
   <g id="patch_190">
    <path clip-path="url(#pe009d900eb)" d="M 303.474084 288.430125 
L 304.490796 288.430125 
L 304.490796 257.628811 
L 303.474084 257.628811 
z
" style="fill:#1f77b4;"/>
   </g>
   <g id="patch_191">
    <path clip-path="url(#pe009d900eb)" d="M 304.744974 288.430125 
L 305.761685 288.430125 
L 305.761685 257.382779 
L 304.744974 257.382779 
z
" style="fill:#1f77b4;"/>
   </g>
   <g id="patch_192">
    <path clip-path="url(#pe009d900eb)" d="M 306.015863 288.430125 
L 307.032575 288.430125 
L 307.032575 257.193523 
L 306.015863 257.193523 
z
" style="fill:#1f77b4;"/>
   </g>
   <g id="patch_193">
    <path clip-path="url(#pe009d900eb)" d="M 307.286753 288.430125 
L 308.303465 288.430125 
L 308.303465 257.004268 
L 307.286753 257.004268 
z
" style="fill:#1f77b4;"/>
   </g>
   <g id="patch_194">
    <path clip-path="url(#pe009d900eb)" d="M 308.557643 288.430125 
L 309.574355 288.430125 
L 309.574355 256.928566 
L 308.557643 256.928566 
z
" style="fill:#1f77b4;"/>
   </g>
   <g id="patch_195">
    <path clip-path="url(#pe009d900eb)" d="M 309.828532 288.430125 
L 310.845244 288.430125 
L 310.845244 256.644683 
L 309.828532 256.644683 
z
" style="fill:#1f77b4;"/>
   </g>
   <g id="patch_196">
    <path clip-path="url(#pe009d900eb)" d="M 311.099422 288.430125 
L 312.116134 288.430125 
L 312.116134 256.389188 
L 311.099422 256.389188 
z
" style="fill:#1f77b4;"/>
   </g>
   <g id="patch_197">
    <path clip-path="url(#pe009d900eb)" d="M 312.370312 288.430125 
L 313.387024 288.430125 
L 313.387024 255.897124 
L 312.370312 255.897124 
z
" style="fill:#1f77b4;"/>
   </g>
   <g id="patch_198">
    <path clip-path="url(#pe009d900eb)" d="M 313.641202 288.430125 
L 314.657913 288.430125 
L 314.657913 255.622704 
L 313.641202 255.622704 
z
" style="fill:#1f77b4;"/>
   </g>
   <g id="patch_199">
    <path clip-path="url(#pe009d900eb)" d="M 314.912091 288.430125 
L 315.928803 288.430125 
L 315.928803 255.414523 
L 314.912091 255.414523 
z
" style="fill:#1f77b4;"/>
   </g>
   <g id="patch_200">
    <path clip-path="url(#pe009d900eb)" d="M 316.182981 288.430125 
L 317.199693 288.430125 
L 317.199693 255.177953 
L 316.182981 255.177953 
z
" style="fill:#1f77b4;"/>
   </g>
   <g id="patch_201">
    <path clip-path="url(#pe009d900eb)" d="M 317.453871 288.430125 
L 318.470582 288.430125 
L 318.470582 255.102251 
L 317.453871 255.102251 
z
" style="fill:#1f77b4;"/>
   </g>
   <g id="patch_202">
    <path clip-path="url(#pe009d900eb)" d="M 318.72476 288.430125 
L 319.741472 288.430125 
L 319.741472 254.941384 
L 318.72476 254.941384 
z
" style="fill:#1f77b4;"/>
   </g>
   <g id="patch_203">
    <path clip-path="url(#pe009d900eb)" d="M 319.99565 288.430125 
L 321.012362 288.430125 
L 321.012362 254.666964 
L 319.99565 254.666964 
z
" style="fill:#1f77b4;"/>
   </g>
   <g id="patch_204">
    <path clip-path="url(#pe009d900eb)" d="M 321.26654 288.430125 
L 322.283251 288.430125 
L 322.283251 254.487171 
L 321.26654 254.487171 
z
" style="fill:#1f77b4;"/>
   </g>
   <g id="patch_205">
    <path clip-path="url(#pe009d900eb)" d="M 322.537429 288.430125 
L 323.554141 288.430125 
L 323.554141 254.241139 
L 322.537429 254.241139 
z
" style="fill:#1f77b4;"/>
   </g>
   <g id="patch_206">
    <path clip-path="url(#pe009d900eb)" d="M 323.808319 288.430125 
L 324.825031 288.430125 
L 324.825031 253.938331 
L 323.808319 253.938331 
z
" style="fill:#1f77b4;"/>
   </g>
   <g id="patch_207">
    <path clip-path="url(#pe009d900eb)" d="M 325.079209 288.430125 
L 326.09592 288.430125 
L 326.09592 253.777464 
L 325.079209 253.777464 
z
" style="fill:#1f77b4;"/>
   </g>
   <g id="patch_208">
    <path clip-path="url(#pe009d900eb)" d="M 326.350098 288.430125 
L 327.36681 288.430125 
L 327.36681 253.616597 
L 326.350098 253.616597 
z
" style="fill:#1f77b4;"/>
   </g>
   <g id="patch_209">
    <path clip-path="url(#pe009d900eb)" d="M 327.620988 288.430125 
L 328.6377 288.430125 
L 328.6377 253.096144 
L 327.620988 253.096144 
z
" style="fill:#1f77b4;"/>
   </g>
   <g id="patch_210">
    <path clip-path="url(#pe009d900eb)" d="M 328.891878 288.430125 
L 329.908589 288.430125 
L 329.908589 252.443213 
L 328.891878 252.443213 
z
" style="fill:#1f77b4;"/>
   </g>
   <g id="patch_211">
    <path clip-path="url(#pe009d900eb)" d="M 330.162767 288.430125 
L 331.179479 288.430125 
L 331.179479 251.638878 
L 330.162767 251.638878 
z
" style="fill:#1f77b4;"/>
   </g>
   <g id="patch_212">
    <path clip-path="url(#pe009d900eb)" d="M 331.433657 288.430125 
L 332.450369 288.430125 
L 332.450369 250.768303 
L 331.433657 250.768303 
z
" style="fill:#1f77b4;"/>
   </g>
   <g id="patch_213">
    <path clip-path="url(#pe009d900eb)" d="M 332.704547 288.430125 
L 333.721258 288.430125 
L 333.721258 249.97343 
L 332.704547 249.97343 
z
" style="fill:#1f77b4;"/>
   </g>
   <g id="patch_214">
    <path clip-path="url(#pe009d900eb)" d="M 333.975436 288.430125 
L 334.992148 288.430125 
L 334.992148 249.547606 
L 333.975436 249.547606 
z
" style="fill:#1f77b4;"/>
   </g>
   <g id="patch_215">
    <path clip-path="url(#pe009d900eb)" d="M 335.246326 288.430125 
L 336.263038 288.430125 
L 336.263038 249.225872 
L 335.246326 249.225872 
z
" style="fill:#1f77b4;"/>
   </g>
   <g id="patch_216">
    <path clip-path="url(#pe009d900eb)" d="M 336.517216 288.430125 
L 337.533927 288.430125 
L 337.533927 248.052488 
L 336.517216 248.052488 
z
" style="fill:#1f77b4;"/>
   </g>
   <g id="patch_217">
    <path clip-path="url(#pe009d900eb)" d="M 337.788105 288.430125 
L 338.804817 288.430125 
L 338.804817 247.125137 
L 337.788105 247.125137 
z
" style="fill:#1f77b4;"/>
   </g>
   <g id="patch_218">
    <path clip-path="url(#pe009d900eb)" d="M 339.058995 288.430125 
L 340.075707 288.430125 
L 340.075707 245.913902 
L 339.058995 245.913902 
z
" style="fill:#1f77b4;"/>
   </g>
   <g id="patch_219">
    <path clip-path="url(#pe009d900eb)" d="M 340.329885 288.430125 
L 341.346597 288.430125 
L 341.346597 244.447173 
L 340.329885 244.447173 
z
" style="fill:#1f77b4;"/>
   </g>
   <g id="patch_220">
    <path clip-path="url(#pe009d900eb)" d="M 341.600774 288.430125 
L 342.617486 288.430125 
L 342.617486 242.829039 
L 341.600774 242.829039 
z
" style="fill:#1f77b4;"/>
   </g>
   <g id="patch_221">
    <path clip-path="url(#pe009d900eb)" d="M 342.871664 288.430125 
L 343.888376 288.430125 
L 343.888376 242.024704 
L 342.871664 242.024704 
z
" style="fill:#1f77b4;"/>
   </g>
   <g id="patch_222">
    <path clip-path="url(#pe009d900eb)" d="M 344.142554 288.430125 
L 345.159266 288.430125 
L 345.159266 240.046985 
L 344.142554 240.046985 
z
" style="fill:#1f77b4;"/>
   </g>
   <g id="patch_223">
    <path clip-path="url(#pe009d900eb)" d="M 345.413444 288.430125 
L 346.430155 288.430125 
L 346.430155 238.258522 
L 345.413444 238.258522 
z
" style="fill:#1f77b4;"/>
   </g>
   <g id="patch_224">
    <path clip-path="url(#pe009d900eb)" d="M 346.684333 288.430125 
L 347.701045 288.430125 
L 347.701045 235.921218 
L 346.684333 235.921218 
z
" style="fill:#1f77b4;"/>
   </g>
   <g id="patch_225">
    <path clip-path="url(#pe009d900eb)" d="M 347.955223 288.430125 
L 348.971935 288.430125 
L 348.971935 233.375733 
L 347.955223 233.375733 
z
" style="fill:#1f77b4;"/>
   </g>
   <g id="patch_226">
    <path clip-path="url(#pe009d900eb)" d="M 349.226113 288.430125 
L 350.242824 288.430125 
L 350.242824 230.754546 
L 349.226113 230.754546 
z
" style="fill:#1f77b4;"/>
   </g>
   <g id="patch_227">
    <path clip-path="url(#pe009d900eb)" d="M 350.497002 288.430125 
L 351.513714 288.430125 
L 351.513714 227.546667 
L 350.497002 227.546667 
z
" style="fill:#1f77b4;"/>
   </g>
   <g id="patch_228">
    <path clip-path="url(#pe009d900eb)" d="M 351.767892 288.430125 
L 352.784604 288.430125 
L 352.784604 224.509118 
L 351.767892 224.509118 
z
" style="fill:#1f77b4;"/>
   </g>
   <g id="patch_229">
    <path clip-path="url(#pe009d900eb)" d="M 353.038782 288.430125 
L 354.055493 288.430125 
L 354.055493 222.219128 
L 353.038782 222.219128 
z
" style="fill:#1f77b4;"/>
   </g>
   <g id="patch_230">
    <path clip-path="url(#pe009d900eb)" d="M 354.309671 288.430125 
L 355.326383 288.430125 
L 355.326383 220.421202 
L 354.309671 220.421202 
z
" style="fill:#1f77b4;"/>
   </g>
   <g id="patch_231">
    <path clip-path="url(#pe009d900eb)" d="M 355.580561 288.430125 
L 356.597273 288.430125 
L 356.597273 217.601296 
L 355.580561 217.601296 
z
" style="fill:#1f77b4;"/>
   </g>
   <g id="patch_232">
    <path clip-path="url(#pe009d900eb)" d="M 356.851451 288.430125 
L 357.868162 288.430125 
L 357.868162 214.289327 
L 356.851451 214.289327 
z
" style="fill:#1f77b4;"/>
   </g>
   <g id="patch_233">
    <path clip-path="url(#pe009d900eb)" d="M 358.12234 288.430125 
L 359.139052 288.430125 
L 359.139052 209.113192 
L 358.12234 209.113192 
z
" style="fill:#1f77b4;"/>
   </g>
   <g id="patch_234">
    <path clip-path="url(#pe009d900eb)" d="M 359.39323 288.430125 
L 360.409942 288.430125 
L 360.409942 204.060073 
L 359.39323 204.060073 
z
" style="fill:#1f77b4;"/>
   </g>
   <g id="patch_235">
    <path clip-path="url(#pe009d900eb)" d="M 360.66412 288.430125 
L 361.680831 288.430125 
L 361.680831 199.924843 
L 360.66412 199.924843 
z
" style="fill:#1f77b4;"/>
   </g>
   <g id="patch_236">
    <path clip-path="url(#pe009d900eb)" d="M 361.935009 288.430125 
L 362.951721 288.430125 
L 362.951721 195.240772 
L 361.935009 195.240772 
z
" style="fill:#1f77b4;"/>
   </g>
   <g id="patch_237">
    <path clip-path="url(#pe009d900eb)" d="M 363.205899 288.430125 
L 364.222611 288.430125 
L 364.222611 192.884543 
L 363.205899 192.884543 
z
" style="fill:#1f77b4;"/>
   </g>
   <g id="patch_238">
    <path clip-path="url(#pe009d900eb)" d="M 364.476789 288.430125 
L 365.4935 288.430125 
L 365.4935 185.673912 
L 364.476789 185.673912 
z
" style="fill:#1f77b4;"/>
   </g>
   <g id="patch_239">
    <path clip-path="url(#pe009d900eb)" d="M 365.747678 288.430125 
L 366.76439 288.430125 
L 366.76439 178.936421 
L 365.747678 178.936421 
z
" style="fill:#1f77b4;"/>
   </g>
   <g id="patch_240">
    <path clip-path="url(#pe009d900eb)" d="M 367.018568 288.430125 
L 368.03528 288.430125 
L 368.03528 171.612237 
L 367.018568 171.612237 
z
" style="fill:#1f77b4;"/>
   </g>
   <g id="patch_241">
    <path clip-path="url(#pe009d900eb)" d="M 368.289458 288.430125 
L 369.306169 288.430125 
L 369.306169 164.221814 
L 368.289458 164.221814 
z
" style="fill:#1f77b4;"/>
   </g>
   <g id="patch_242">
    <path clip-path="url(#pe009d900eb)" d="M 369.560347 288.430125 
L 370.577059 288.430125 
L 370.577059 158.70502 
L 369.560347 158.70502 
z
" style="fill:#1f77b4;"/>
   </g>
   <g id="patch_243">
    <path clip-path="url(#pe009d900eb)" d="M 370.831237 288.430125 
L 371.847949 288.430125 
L 371.847949 155.156481 
L 370.831237 155.156481 
z
" style="fill:#1f77b4;"/>
   </g>
   <g id="patch_244">
    <path clip-path="url(#pe009d900eb)" d="M 372.102127 288.430125 
L 373.118839 288.430125 
L 373.118839 151.503852 
L 372.102127 151.503852 
z
" style="fill:#1f77b4;"/>
   </g>
   <g id="patch_245">
    <path clip-path="url(#pe009d900eb)" d="M 373.373016 288.430125 
L 374.389728 288.430125 
L 374.389728 144.93669 
L 373.373016 144.93669 
z
" style="fill:#1f77b4;"/>
   </g>
   <g id="patch_246">
    <path clip-path="url(#pe009d900eb)" d="M 374.643906 288.430125 
L 375.660618 288.430125 
L 375.660618 137.17722 
L 374.643906 137.17722 
z
" style="fill:#1f77b4;"/>
   </g>
   <g id="patch_247">
    <path clip-path="url(#pe009d900eb)" d="M 375.914796 288.430125 
L 376.931508 288.430125 
L 376.931508 130.647909 
L 375.914796 130.647909 
z
" style="fill:#1f77b4;"/>
   </g>
   <g id="patch_248">
    <path clip-path="url(#pe009d900eb)" d="M 377.185685 288.430125 
L 378.202397 288.430125 
L 378.202397 124.705289 
L 377.185685 124.705289 
z
" style="fill:#1f77b4;"/>
   </g>
   <g id="patch_249">
    <path clip-path="url(#pe009d900eb)" d="M 378.456575 288.430125 
L 379.473287 288.430125 
L 379.473287 119.557543 
L 378.456575 119.557543 
z
" style="fill:#1f77b4;"/>
   </g>
   <g id="patch_250">
    <path clip-path="url(#pe009d900eb)" d="M 379.727465 288.430125 
L 380.744177 288.430125 
L 380.744177 117.116148 
L 379.727465 117.116148 
z
" style="fill:#1f77b4;"/>
   </g>
   <g id="patch_251">
    <path clip-path="url(#pe009d900eb)" d="M 380.998355 288.430125 
L 382.015066 288.430125 
L 382.015066 111.618279 
L 380.998355 111.618279 
z
" style="fill:#1f77b4;"/>
   </g>
   <g id="patch_252">
    <path clip-path="url(#pe009d900eb)" d="M 382.269244 288.430125 
L 383.285956 288.430125 
L 383.285956 105.032192 
L 382.269244 105.032192 
z
" style="fill:#1f77b4;"/>
   </g>
   <g id="patch_253">
    <path clip-path="url(#pe009d900eb)" d="M 383.540134 288.430125 
L 384.556846 288.430125 
L 384.556846 98.067594 
L 383.540134 98.067594 
z
" style="fill:#1f77b4;"/>
   </g>
   <g id="patch_254">
    <path clip-path="url(#pe009d900eb)" d="M 384.811024 288.430125 
L 385.827735 288.430125 
L 385.827735 92.881996 
L 384.811024 92.881996 
z
" style="fill:#1f77b4;"/>
   </g>
   <g id="patch_255">
    <path clip-path="url(#pe009d900eb)" d="M 386.081913 288.430125 
L 387.098625 288.430125 
L 387.098625 87.819415 
L 386.081913 87.819415 
z
" style="fill:#1f77b4;"/>
   </g>
   <g id="patch_256">
    <path clip-path="url(#pe009d900eb)" d="M 387.352803 288.430125 
L 388.369515 288.430125 
L 388.369515 85.359094 
L 387.352803 85.359094 
z
" style="fill:#1f77b4;"/>
   </g>
   <g id="patch_257">
    <path clip-path="url(#pe009d900eb)" d="M 388.623693 288.430125 
L 389.640404 288.430125 
L 389.640404 83.845051 
L 388.623693 83.845051 
z
" style="fill:#1f77b4;"/>
   </g>
   <g id="patch_258">
    <path clip-path="url(#pe009d900eb)" d="M 389.894582 288.430125 
L 390.911294 288.430125 
L 390.911294 80.618247 
L 389.894582 80.618247 
z
" style="fill:#1f77b4;"/>
   </g>
   <g id="patch_259">
    <path clip-path="url(#pe009d900eb)" d="M 391.165472 288.430125 
L 392.182184 288.430125 
L 392.182184 77.855118 
L 391.165472 77.855118 
z
" style="fill:#1f77b4;"/>
   </g>
   <g id="patch_260">
    <path clip-path="url(#pe009d900eb)" d="M 392.436362 288.430125 
L 393.453073 288.430125 
L 393.453073 73.975383 
L 392.436362 73.975383 
z
" style="fill:#1f77b4;"/>
   </g>
   <g id="patch_261">
    <path clip-path="url(#pe009d900eb)" d="M 393.707251 288.430125 
L 394.723963 288.430125 
L 394.723963 69.300775 
L 393.707251 69.300775 
z
" style="fill:#1f77b4;"/>
   </g>
   <g id="patch_262">
    <path clip-path="url(#pe009d900eb)" d="M 394.978141 288.430125 
L 395.994853 288.430125 
L 395.994853 65.165545 
L 394.978141 65.165545 
z
" style="fill:#1f77b4;"/>
   </g>
   <g id="patch_263">
    <path clip-path="url(#pe009d900eb)" d="M 396.249031 288.430125 
L 397.265742 288.430125 
L 397.265742 63.433858 
L 396.249031 63.433858 
z
" style="fill:#1f77b4;"/>
   </g>
   <g id="patch_264">
    <path clip-path="url(#pe009d900eb)" d="M 397.51992 288.430125 
L 398.536632 288.430125 
L 398.536632 62.544358 
L 397.51992 62.544358 
z
" style="fill:#1f77b4;"/>
   </g>
   <g id="patch_265">
    <path clip-path="url(#pe009d900eb)" d="M 398.79081 288.430125 
L 399.807522 288.430125 
L 399.807522 59.54466 
L 398.79081 59.54466 
z
" style="fill:#1f77b4;"/>
   </g>
   <g id="patch_266">
    <path clip-path="url(#pe009d900eb)" d="M 400.0617 288.430125 
L 401.078411 288.430125 
L 401.078411 56.005584 
L 400.0617 56.005584 
z
" style="fill:#1f77b4;"/>
   </g>
   <g id="patch_267">
    <path clip-path="url(#pe009d900eb)" d="M 401.332589 288.430125 
L 402.349301 288.430125 
L 402.349301 53.308695 
L 401.332589 53.308695 
z
" style="fill:#1f77b4;"/>
   </g>
   <g id="patch_268">
    <path clip-path="url(#pe009d900eb)" d="M 402.603479 288.430125 
L 403.620191 288.430125 
L 403.620191 50.791598 
L 402.603479 50.791598 
z
" style="fill:#1f77b4;"/>
   </g>
   <g id="patch_269">
    <path clip-path="url(#pe009d900eb)" d="M 403.874369 288.430125 
L 404.891081 288.430125 
L 404.891081 48.444831 
L 403.874369 48.444831 
z
" style="fill:#1f77b4;"/>
   </g>
   <g id="patch_270">
    <path clip-path="url(#pe009d900eb)" d="M 405.145258 288.430125 
L 406.16197 288.430125 
L 406.16197 47.356613 
L 405.145258 47.356613 
z
" style="fill:#1f77b4;"/>
   </g>
   <g id="patch_271">
    <path clip-path="url(#pe009d900eb)" d="M 406.416148 288.430125 
L 407.43286 288.430125 
L 407.43286 46.609054 
L 406.416148 46.609054 
z
" style="fill:#1f77b4;"/>
   </g>
   <g id="patch_272">
    <path clip-path="url(#pe009d900eb)" d="M 407.687038 288.430125 
L 408.70375 288.430125 
L 408.70375 44.413691 
L 407.687038 44.413691 
z
" style="fill:#1f77b4;"/>
   </g>
   <g id="patch_273">
    <path clip-path="url(#pe009d900eb)" d="M 408.957927 288.430125 
L 409.974639 288.430125 
L 409.974639 42.104776 
L 408.957927 42.104776 
z
" style="fill:#1f77b4;"/>
   </g>
   <g id="patch_274">
    <path clip-path="url(#pe009d900eb)" d="M 410.228817 288.430125 
L 411.245529 288.430125 
L 411.245529 39.720158 
L 410.228817 39.720158 
z
" style="fill:#1f77b4;"/>
   </g>
   <g id="patch_275">
    <path clip-path="url(#pe009d900eb)" d="M 411.499707 288.430125 
L 412.516419 288.430125 
L 412.516419 37.354466 
L 411.499707 37.354466 
z
" style="fill:#1f77b4;"/>
   </g>
   <g id="patch_276">
    <path clip-path="url(#pe009d900eb)" d="M 412.770597 288.430125 
L 413.787308 288.430125 
L 413.787308 34.97931 
L 412.770597 34.97931 
z
" style="fill:#1f77b4;"/>
   </g>
   <g id="patch_277">
    <path clip-path="url(#pe009d900eb)" d="M 414.041486 288.430125 
L 415.058198 288.430125 
L 415.058198 34.345305 
L 414.041486 34.345305 
z
" style="fill:#1f77b4;"/>
   </g>
   <g id="patch_278">
    <path clip-path="url(#pe009d900eb)" d="M 415.312376 288.430125 
L 416.329088 288.430125 
L 416.329088 33.503118 
L 415.312376 33.503118 
z
" style="fill:#1f77b4;"/>
   </g>
   <g id="patch_279">
    <path clip-path="url(#pe009d900eb)" d="M 416.583266 288.430125 
L 417.599977 288.430125 
L 417.599977 30.806229 
L 416.583266 30.806229 
z
" style="fill:#1f77b4;"/>
   </g>
   <g id="patch_280">
    <path clip-path="url(#pe009d900eb)" d="M 417.854155 288.430125 
L 418.870867 288.430125 
L 418.870867 28.090414 
L 417.854155 28.090414 
z
" style="fill:#1f77b4;"/>
   </g>
   <g id="patch_281">
    <path clip-path="url(#pe009d900eb)" d="M 419.125045 288.430125 
L 420.141757 288.430125 
L 420.141757 26.491206 
L 419.125045 26.491206 
z
" style="fill:#1f77b4;"/>
   </g>
   <g id="patch_282">
    <path clip-path="url(#pe009d900eb)" d="M 420.395935 288.430125 
L 421.412646 288.430125 
L 421.412646 24.645966 
L 420.395935 24.645966 
z
" style="fill:#1f77b4;"/>
   </g>
   <g id="patch_283">
    <path clip-path="url(#pe009d900eb)" d="M 421.666824 288.430125 
L 422.683536 288.430125 
L 422.683536 22.318125 
L 421.666824 22.318125 
z
" style="fill:#1f77b4;"/>
   </g>
   <g id="matplotlib.axis_1">
    <g id="xtick_1">
     <g id="line2d_1">
      <defs>
       <path d="M 0 0 
L 0 3.5 
" id="m8a8cf46e71" style="stroke:#000000;stroke-width:0.8;"/>
      </defs>
      <g>
       <use style="stroke:#000000;stroke-width:0.8;" x="87.931194" xlink:href="#m8a8cf46e71" y="288.430125"/>
      </g>
     </g>
     <g id="text_1">
      <!-- 2020-04 -->
      <g transform="translate(90.690569 337.212937)rotate(-90)scale(0.1 -0.1)">
       <defs>
        <path d="M 19.1875 8.296875 
L 53.609375 8.296875 
L 53.609375 0 
L 7.328125 0 
L 7.328125 8.296875 
Q 12.9375 14.109375 22.625 23.890625 
Q 32.328125 33.6875 34.8125 36.53125 
Q 39.546875 41.84375 41.421875 45.53125 
Q 43.3125 49.21875 43.3125 52.78125 
Q 43.3125 58.59375 39.234375 62.25 
Q 35.15625 65.921875 28.609375 65.921875 
Q 23.96875 65.921875 18.8125 64.3125 
Q 13.671875 62.703125 7.8125 59.421875 
L 7.8125 69.390625 
Q 13.765625 71.78125 18.9375 73 
Q 24.125 74.21875 28.421875 74.21875 
Q 39.75 74.21875 46.484375 68.546875 
Q 53.21875 62.890625 53.21875 53.421875 
Q 53.21875 48.921875 51.53125 44.890625 
Q 49.859375 40.875 45.40625 35.40625 
Q 44.1875 33.984375 37.640625 27.21875 
Q 31.109375 20.453125 19.1875 8.296875 
z
" id="DejaVuSans-50"/>
        <path d="M 31.78125 66.40625 
Q 24.171875 66.40625 20.328125 58.90625 
Q 16.5 51.421875 16.5 36.375 
Q 16.5 21.390625 20.328125 13.890625 
Q 24.171875 6.390625 31.78125 6.390625 
Q 39.453125 6.390625 43.28125 13.890625 
Q 47.125 21.390625 47.125 36.375 
Q 47.125 51.421875 43.28125 58.90625 
Q 39.453125 66.40625 31.78125 66.40625 
z
M 31.78125 74.21875 
Q 44.046875 74.21875 50.515625 64.515625 
Q 56.984375 54.828125 56.984375 36.375 
Q 56.984375 17.96875 50.515625 8.265625 
Q 44.046875 -1.421875 31.78125 -1.421875 
Q 19.53125 -1.421875 13.0625 8.265625 
Q 6.59375 17.96875 6.59375 36.375 
Q 6.59375 54.828125 13.0625 64.515625 
Q 19.53125 74.21875 31.78125 74.21875 
z
" id="DejaVuSans-48"/>
        <path d="M 4.890625 31.390625 
L 31.203125 31.390625 
L 31.203125 23.390625 
L 4.890625 23.390625 
z
" id="DejaVuSans-45"/>
        <path d="M 37.796875 64.3125 
L 12.890625 25.390625 
L 37.796875 25.390625 
z
M 35.203125 72.90625 
L 47.609375 72.90625 
L 47.609375 25.390625 
L 58.015625 25.390625 
L 58.015625 17.1875 
L 47.609375 17.1875 
L 47.609375 0 
L 37.796875 0 
L 37.796875 17.1875 
L 4.890625 17.1875 
L 4.890625 26.703125 
z
" id="DejaVuSans-52"/>
       </defs>
       <use xlink:href="#DejaVuSans-50"/>
       <use x="63.623047" xlink:href="#DejaVuSans-48"/>
       <use x="127.246094" xlink:href="#DejaVuSans-50"/>
       <use x="190.869141" xlink:href="#DejaVuSans-48"/>
       <use x="254.492188" xlink:href="#DejaVuSans-45"/>
       <use x="290.576172" xlink:href="#DejaVuSans-48"/>
       <use x="354.199219" xlink:href="#DejaVuSans-52"/>
      </g>
     </g>
    </g>
    <g id="xtick_2">
     <g id="line2d_2">
      <g>
       <use style="stroke:#000000;stroke-width:0.8;" x="126.057885" xlink:href="#m8a8cf46e71" y="288.430125"/>
      </g>
     </g>
     <g id="text_2">
      <!-- 2020-05 -->
      <g transform="translate(128.81726 337.212937)rotate(-90)scale(0.1 -0.1)">
       <defs>
        <path d="M 10.796875 72.90625 
L 49.515625 72.90625 
L 49.515625 64.59375 
L 19.828125 64.59375 
L 19.828125 46.734375 
Q 21.96875 47.46875 24.109375 47.828125 
Q 26.265625 48.1875 28.421875 48.1875 
Q 40.625 48.1875 47.75 41.5 
Q 54.890625 34.8125 54.890625 23.390625 
Q 54.890625 11.625 47.5625 5.09375 
Q 40.234375 -1.421875 26.90625 -1.421875 
Q 22.3125 -1.421875 17.546875 -0.640625 
Q 12.796875 0.140625 7.71875 1.703125 
L 7.71875 11.625 
Q 12.109375 9.234375 16.796875 8.0625 
Q 21.484375 6.890625 26.703125 6.890625 
Q 35.15625 6.890625 40.078125 11.328125 
Q 45.015625 15.765625 45.015625 23.390625 
Q 45.015625 31 40.078125 35.4375 
Q 35.15625 39.890625 26.703125 39.890625 
Q 22.75 39.890625 18.8125 39.015625 
Q 14.890625 38.140625 10.796875 36.28125 
z
" id="DejaVuSans-53"/>
       </defs>
       <use xlink:href="#DejaVuSans-50"/>
       <use x="63.623047" xlink:href="#DejaVuSans-48"/>
       <use x="127.246094" xlink:href="#DejaVuSans-50"/>
       <use x="190.869141" xlink:href="#DejaVuSans-48"/>
       <use x="254.492188" xlink:href="#DejaVuSans-45"/>
       <use x="290.576172" xlink:href="#DejaVuSans-48"/>
       <use x="354.199219" xlink:href="#DejaVuSans-53"/>
      </g>
     </g>
    </g>
    <g id="xtick_3">
     <g id="line2d_3">
      <g>
       <use style="stroke:#000000;stroke-width:0.8;" x="165.455465" xlink:href="#m8a8cf46e71" y="288.430125"/>
      </g>
     </g>
     <g id="text_3">
      <!-- 2020-06 -->
      <g transform="translate(168.21484 337.212937)rotate(-90)scale(0.1 -0.1)">
       <defs>
        <path d="M 33.015625 40.375 
Q 26.375 40.375 22.484375 35.828125 
Q 18.609375 31.296875 18.609375 23.390625 
Q 18.609375 15.53125 22.484375 10.953125 
Q 26.375 6.390625 33.015625 6.390625 
Q 39.65625 6.390625 43.53125 10.953125 
Q 47.40625 15.53125 47.40625 23.390625 
Q 47.40625 31.296875 43.53125 35.828125 
Q 39.65625 40.375 33.015625 40.375 
z
M 52.59375 71.296875 
L 52.59375 62.3125 
Q 48.875 64.0625 45.09375 64.984375 
Q 41.3125 65.921875 37.59375 65.921875 
Q 27.828125 65.921875 22.671875 59.328125 
Q 17.53125 52.734375 16.796875 39.40625 
Q 19.671875 43.65625 24.015625 45.921875 
Q 28.375 48.1875 33.59375 48.1875 
Q 44.578125 48.1875 50.953125 41.515625 
Q 57.328125 34.859375 57.328125 23.390625 
Q 57.328125 12.15625 50.6875 5.359375 
Q 44.046875 -1.421875 33.015625 -1.421875 
Q 20.359375 -1.421875 13.671875 8.265625 
Q 6.984375 17.96875 6.984375 36.375 
Q 6.984375 53.65625 15.1875 63.9375 
Q 23.390625 74.21875 37.203125 74.21875 
Q 40.921875 74.21875 44.703125 73.484375 
Q 48.484375 72.75 52.59375 71.296875 
z
" id="DejaVuSans-54"/>
       </defs>
       <use xlink:href="#DejaVuSans-50"/>
       <use x="63.623047" xlink:href="#DejaVuSans-48"/>
       <use x="127.246094" xlink:href="#DejaVuSans-50"/>
       <use x="190.869141" xlink:href="#DejaVuSans-48"/>
       <use x="254.492188" xlink:href="#DejaVuSans-45"/>
       <use x="290.576172" xlink:href="#DejaVuSans-48"/>
       <use x="354.199219" xlink:href="#DejaVuSans-54"/>
      </g>
     </g>
    </g>
    <g id="xtick_4">
     <g id="line2d_4">
      <g>
       <use style="stroke:#000000;stroke-width:0.8;" x="203.582155" xlink:href="#m8a8cf46e71" y="288.430125"/>
      </g>
     </g>
     <g id="text_4">
      <!-- 2020-07 -->
      <g transform="translate(206.34153 337.212937)rotate(-90)scale(0.1 -0.1)">
       <defs>
        <path d="M 8.203125 72.90625 
L 55.078125 72.90625 
L 55.078125 68.703125 
L 28.609375 0 
L 18.3125 0 
L 43.21875 64.59375 
L 8.203125 64.59375 
z
" id="DejaVuSans-55"/>
       </defs>
       <use xlink:href="#DejaVuSans-50"/>
       <use x="63.623047" xlink:href="#DejaVuSans-48"/>
       <use x="127.246094" xlink:href="#DejaVuSans-50"/>
       <use x="190.869141" xlink:href="#DejaVuSans-48"/>
       <use x="254.492188" xlink:href="#DejaVuSans-45"/>
       <use x="290.576172" xlink:href="#DejaVuSans-48"/>
       <use x="354.199219" xlink:href="#DejaVuSans-55"/>
      </g>
     </g>
    </g>
    <g id="xtick_5">
     <g id="line2d_5">
      <g>
       <use style="stroke:#000000;stroke-width:0.8;" x="242.979735" xlink:href="#m8a8cf46e71" y="288.430125"/>
      </g>
     </g>
     <g id="text_5">
      <!-- 2020-08 -->
      <g transform="translate(245.73911 337.212937)rotate(-90)scale(0.1 -0.1)">
       <defs>
        <path d="M 31.78125 34.625 
Q 24.75 34.625 20.71875 30.859375 
Q 16.703125 27.09375 16.703125 20.515625 
Q 16.703125 13.921875 20.71875 10.15625 
Q 24.75 6.390625 31.78125 6.390625 
Q 38.8125 6.390625 42.859375 10.171875 
Q 46.921875 13.96875 46.921875 20.515625 
Q 46.921875 27.09375 42.890625 30.859375 
Q 38.875 34.625 31.78125 34.625 
z
M 21.921875 38.8125 
Q 15.578125 40.375 12.03125 44.71875 
Q 8.5 49.078125 8.5 55.328125 
Q 8.5 64.0625 14.71875 69.140625 
Q 20.953125 74.21875 31.78125 74.21875 
Q 42.671875 74.21875 48.875 69.140625 
Q 55.078125 64.0625 55.078125 55.328125 
Q 55.078125 49.078125 51.53125 44.71875 
Q 48 40.375 41.703125 38.8125 
Q 48.828125 37.15625 52.796875 32.3125 
Q 56.78125 27.484375 56.78125 20.515625 
Q 56.78125 9.90625 50.3125 4.234375 
Q 43.84375 -1.421875 31.78125 -1.421875 
Q 19.734375 -1.421875 13.25 4.234375 
Q 6.78125 9.90625 6.78125 20.515625 
Q 6.78125 27.484375 10.78125 32.3125 
Q 14.796875 37.15625 21.921875 38.8125 
z
M 18.3125 54.390625 
Q 18.3125 48.734375 21.84375 45.5625 
Q 25.390625 42.390625 31.78125 42.390625 
Q 38.140625 42.390625 41.71875 45.5625 
Q 45.3125 48.734375 45.3125 54.390625 
Q 45.3125 60.0625 41.71875 63.234375 
Q 38.140625 66.40625 31.78125 66.40625 
Q 25.390625 66.40625 21.84375 63.234375 
Q 18.3125 60.0625 18.3125 54.390625 
z
" id="DejaVuSans-56"/>
       </defs>
       <use xlink:href="#DejaVuSans-50"/>
       <use x="63.623047" xlink:href="#DejaVuSans-48"/>
       <use x="127.246094" xlink:href="#DejaVuSans-50"/>
       <use x="190.869141" xlink:href="#DejaVuSans-48"/>
       <use x="254.492188" xlink:href="#DejaVuSans-45"/>
       <use x="290.576172" xlink:href="#DejaVuSans-48"/>
       <use x="354.199219" xlink:href="#DejaVuSans-56"/>
      </g>
     </g>
    </g>
    <g id="xtick_6">
     <g id="line2d_6">
      <g>
       <use style="stroke:#000000;stroke-width:0.8;" x="282.377315" xlink:href="#m8a8cf46e71" y="288.430125"/>
      </g>
     </g>
     <g id="text_6">
      <!-- 2020-09 -->
      <g transform="translate(285.13669 337.212937)rotate(-90)scale(0.1 -0.1)">
       <defs>
        <path d="M 10.984375 1.515625 
L 10.984375 10.5 
Q 14.703125 8.734375 18.5 7.8125 
Q 22.3125 6.890625 25.984375 6.890625 
Q 35.75 6.890625 40.890625 13.453125 
Q 46.046875 20.015625 46.78125 33.40625 
Q 43.953125 29.203125 39.59375 26.953125 
Q 35.25 24.703125 29.984375 24.703125 
Q 19.046875 24.703125 12.671875 31.3125 
Q 6.296875 37.9375 6.296875 49.421875 
Q 6.296875 60.640625 12.9375 67.421875 
Q 19.578125 74.21875 30.609375 74.21875 
Q 43.265625 74.21875 49.921875 64.515625 
Q 56.59375 54.828125 56.59375 36.375 
Q 56.59375 19.140625 48.40625 8.859375 
Q 40.234375 -1.421875 26.421875 -1.421875 
Q 22.703125 -1.421875 18.890625 -0.6875 
Q 15.09375 0.046875 10.984375 1.515625 
z
M 30.609375 32.421875 
Q 37.25 32.421875 41.125 36.953125 
Q 45.015625 41.5 45.015625 49.421875 
Q 45.015625 57.28125 41.125 61.84375 
Q 37.25 66.40625 30.609375 66.40625 
Q 23.96875 66.40625 20.09375 61.84375 
Q 16.21875 57.28125 16.21875 49.421875 
Q 16.21875 41.5 20.09375 36.953125 
Q 23.96875 32.421875 30.609375 32.421875 
z
" id="DejaVuSans-57"/>
       </defs>
       <use xlink:href="#DejaVuSans-50"/>
       <use x="63.623047" xlink:href="#DejaVuSans-48"/>
       <use x="127.246094" xlink:href="#DejaVuSans-50"/>
       <use x="190.869141" xlink:href="#DejaVuSans-48"/>
       <use x="254.492188" xlink:href="#DejaVuSans-45"/>
       <use x="290.576172" xlink:href="#DejaVuSans-48"/>
       <use x="354.199219" xlink:href="#DejaVuSans-57"/>
      </g>
     </g>
    </g>
    <g id="xtick_7">
     <g id="line2d_7">
      <g>
       <use style="stroke:#000000;stroke-width:0.8;" x="320.504006" xlink:href="#m8a8cf46e71" y="288.430125"/>
      </g>
     </g>
     <g id="text_7">
      <!-- 2020-10 -->
      <g transform="translate(323.263381 337.212937)rotate(-90)scale(0.1 -0.1)">
       <defs>
        <path d="M 12.40625 8.296875 
L 28.515625 8.296875 
L 28.515625 63.921875 
L 10.984375 60.40625 
L 10.984375 69.390625 
L 28.421875 72.90625 
L 38.28125 72.90625 
L 38.28125 8.296875 
L 54.390625 8.296875 
L 54.390625 0 
L 12.40625 0 
z
" id="DejaVuSans-49"/>
       </defs>
       <use xlink:href="#DejaVuSans-50"/>
       <use x="63.623047" xlink:href="#DejaVuSans-48"/>
       <use x="127.246094" xlink:href="#DejaVuSans-50"/>
       <use x="190.869141" xlink:href="#DejaVuSans-48"/>
       <use x="254.492188" xlink:href="#DejaVuSans-45"/>
       <use x="290.576172" xlink:href="#DejaVuSans-49"/>
       <use x="354.199219" xlink:href="#DejaVuSans-48"/>
      </g>
     </g>
    </g>
    <g id="xtick_8">
     <g id="line2d_8">
      <g>
       <use style="stroke:#000000;stroke-width:0.8;" x="359.901586" xlink:href="#m8a8cf46e71" y="288.430125"/>
      </g>
     </g>
     <g id="text_8">
      <!-- 2020-11 -->
      <g transform="translate(362.660961 337.212937)rotate(-90)scale(0.1 -0.1)">
       <use xlink:href="#DejaVuSans-50"/>
       <use x="63.623047" xlink:href="#DejaVuSans-48"/>
       <use x="127.246094" xlink:href="#DejaVuSans-50"/>
       <use x="190.869141" xlink:href="#DejaVuSans-48"/>
       <use x="254.492188" xlink:href="#DejaVuSans-45"/>
       <use x="290.576172" xlink:href="#DejaVuSans-49"/>
       <use x="354.199219" xlink:href="#DejaVuSans-49"/>
      </g>
     </g>
    </g>
    <g id="xtick_9">
     <g id="line2d_9">
      <g>
       <use style="stroke:#000000;stroke-width:0.8;" x="398.028276" xlink:href="#m8a8cf46e71" y="288.430125"/>
      </g>
     </g>
     <g id="text_9">
      <!-- 2020-12 -->
      <g transform="translate(400.787651 337.212937)rotate(-90)scale(0.1 -0.1)">
       <use xlink:href="#DejaVuSans-50"/>
       <use x="63.623047" xlink:href="#DejaVuSans-48"/>
       <use x="127.246094" xlink:href="#DejaVuSans-50"/>
       <use x="190.869141" xlink:href="#DejaVuSans-48"/>
       <use x="254.492188" xlink:href="#DejaVuSans-45"/>
       <use x="290.576172" xlink:href="#DejaVuSans-49"/>
       <use x="354.199219" xlink:href="#DejaVuSans-50"/>
      </g>
     </g>
    </g>
    <g id="text_10">
     <!-- date -->
     <g transform="translate(232.975625 354.811375)scale(0.1 -0.1)">
      <defs>
       <path d="M 45.40625 46.390625 
L 45.40625 75.984375 
L 54.390625 75.984375 
L 54.390625 0 
L 45.40625 0 
L 45.40625 8.203125 
Q 42.578125 3.328125 38.25 0.953125 
Q 33.9375 -1.421875 27.875 -1.421875 
Q 17.96875 -1.421875 11.734375 6.484375 
Q 5.515625 14.40625 5.515625 27.296875 
Q 5.515625 40.1875 11.734375 48.09375 
Q 17.96875 56 27.875 56 
Q 33.9375 56 38.25 53.625 
Q 42.578125 51.265625 45.40625 46.390625 
z
M 14.796875 27.296875 
Q 14.796875 17.390625 18.875 11.75 
Q 22.953125 6.109375 30.078125 6.109375 
Q 37.203125 6.109375 41.296875 11.75 
Q 45.40625 17.390625 45.40625 27.296875 
Q 45.40625 37.203125 41.296875 42.84375 
Q 37.203125 48.484375 30.078125 48.484375 
Q 22.953125 48.484375 18.875 42.84375 
Q 14.796875 37.203125 14.796875 27.296875 
z
" id="DejaVuSans-100"/>
       <path d="M 34.28125 27.484375 
Q 23.390625 27.484375 19.1875 25 
Q 14.984375 22.515625 14.984375 16.5 
Q 14.984375 11.71875 18.140625 8.90625 
Q 21.296875 6.109375 26.703125 6.109375 
Q 34.1875 6.109375 38.703125 11.40625 
Q 43.21875 16.703125 43.21875 25.484375 
L 43.21875 27.484375 
z
M 52.203125 31.203125 
L 52.203125 0 
L 43.21875 0 
L 43.21875 8.296875 
Q 40.140625 3.328125 35.546875 0.953125 
Q 30.953125 -1.421875 24.3125 -1.421875 
Q 15.921875 -1.421875 10.953125 3.296875 
Q 6 8.015625 6 15.921875 
Q 6 25.140625 12.171875 29.828125 
Q 18.359375 34.515625 30.609375 34.515625 
L 43.21875 34.515625 
L 43.21875 35.40625 
Q 43.21875 41.609375 39.140625 45 
Q 35.0625 48.390625 27.6875 48.390625 
Q 23 48.390625 18.546875 47.265625 
Q 14.109375 46.140625 10.015625 43.890625 
L 10.015625 52.203125 
Q 14.9375 54.109375 19.578125 55.046875 
Q 24.21875 56 28.609375 56 
Q 40.484375 56 46.34375 49.84375 
Q 52.203125 43.703125 52.203125 31.203125 
z
" id="DejaVuSans-97"/>
       <path d="M 18.3125 70.21875 
L 18.3125 54.6875 
L 36.8125 54.6875 
L 36.8125 47.703125 
L 18.3125 47.703125 
L 18.3125 18.015625 
Q 18.3125 11.328125 20.140625 9.421875 
Q 21.96875 7.515625 27.59375 7.515625 
L 36.8125 7.515625 
L 36.8125 0 
L 27.59375 0 
Q 17.1875 0 13.234375 3.875 
Q 9.28125 7.765625 9.28125 18.015625 
L 9.28125 47.703125 
L 2.6875 47.703125 
L 2.6875 54.6875 
L 9.28125 54.6875 
L 9.28125 70.21875 
z
" id="DejaVuSans-116"/>
       <path d="M 56.203125 29.59375 
L 56.203125 25.203125 
L 14.890625 25.203125 
Q 15.484375 15.921875 20.484375 11.0625 
Q 25.484375 6.203125 34.421875 6.203125 
Q 39.59375 6.203125 44.453125 7.46875 
Q 49.3125 8.734375 54.109375 11.28125 
L 54.109375 2.78125 
Q 49.265625 0.734375 44.1875 -0.34375 
Q 39.109375 -1.421875 33.890625 -1.421875 
Q 20.796875 -1.421875 13.15625 6.1875 
Q 5.515625 13.8125 5.515625 26.8125 
Q 5.515625 40.234375 12.765625 48.109375 
Q 20.015625 56 32.328125 56 
Q 43.359375 56 49.78125 48.890625 
Q 56.203125 41.796875 56.203125 29.59375 
z
M 47.21875 32.234375 
Q 47.125 39.59375 43.09375 43.984375 
Q 39.0625 48.390625 32.421875 48.390625 
Q 24.90625 48.390625 20.390625 44.140625 
Q 15.875 39.890625 15.1875 32.171875 
z
" id="DejaVuSans-101"/>
      </defs>
      <use xlink:href="#DejaVuSans-100"/>
      <use x="63.476562" xlink:href="#DejaVuSans-97"/>
      <use x="124.755859" xlink:href="#DejaVuSans-116"/>
      <use x="163.964844" xlink:href="#DejaVuSans-101"/>
     </g>
    </g>
   </g>
   <g id="matplotlib.axis_2">
    <g id="ytick_1">
     <g id="line2d_10">
      <defs>
       <path d="M 0 0 
L -3.5 0 
" id="m5fc8eeaf64" style="stroke:#000000;stroke-width:0.8;"/>
      </defs>
      <g>
       <use style="stroke:#000000;stroke-width:0.8;" x="65.690625" xlink:href="#m5fc8eeaf64" y="288.430125"/>
      </g>
     </g>
     <g id="text_11">
      <!-- 0 -->
      <g transform="translate(52.328125 292.229344)scale(0.1 -0.1)">
       <use xlink:href="#DejaVuSans-48"/>
      </g>
     </g>
    </g>
    <g id="ytick_2">
     <g id="line2d_11">
      <g>
       <use style="stroke:#000000;stroke-width:0.8;" x="65.690625" xlink:href="#m5fc8eeaf64" y="241.116278"/>
      </g>
     </g>
     <g id="text_12">
      <!-- 5000 -->
      <g transform="translate(33.240625 244.915497)scale(0.1 -0.1)">
       <use xlink:href="#DejaVuSans-53"/>
       <use x="63.623047" xlink:href="#DejaVuSans-48"/>
       <use x="127.246094" xlink:href="#DejaVuSans-48"/>
       <use x="190.869141" xlink:href="#DejaVuSans-48"/>
      </g>
     </g>
    </g>
    <g id="ytick_3">
     <g id="line2d_12">
      <g>
       <use style="stroke:#000000;stroke-width:0.8;" x="65.690625" xlink:href="#m5fc8eeaf64" y="193.802431"/>
      </g>
     </g>
     <g id="text_13">
      <!-- 10000 -->
      <g transform="translate(26.878125 197.60165)scale(0.1 -0.1)">
       <use xlink:href="#DejaVuSans-49"/>
       <use x="63.623047" xlink:href="#DejaVuSans-48"/>
       <use x="127.246094" xlink:href="#DejaVuSans-48"/>
       <use x="190.869141" xlink:href="#DejaVuSans-48"/>
       <use x="254.492188" xlink:href="#DejaVuSans-48"/>
      </g>
     </g>
    </g>
    <g id="ytick_4">
     <g id="line2d_13">
      <g>
       <use style="stroke:#000000;stroke-width:0.8;" x="65.690625" xlink:href="#m5fc8eeaf64" y="146.488585"/>
      </g>
     </g>
     <g id="text_14">
      <!-- 15000 -->
      <g transform="translate(26.878125 150.287803)scale(0.1 -0.1)">
       <use xlink:href="#DejaVuSans-49"/>
       <use x="63.623047" xlink:href="#DejaVuSans-53"/>
       <use x="127.246094" xlink:href="#DejaVuSans-48"/>
       <use x="190.869141" xlink:href="#DejaVuSans-48"/>
       <use x="254.492188" xlink:href="#DejaVuSans-48"/>
      </g>
     </g>
    </g>
    <g id="ytick_5">
     <g id="line2d_14">
      <g>
       <use style="stroke:#000000;stroke-width:0.8;" x="65.690625" xlink:href="#m5fc8eeaf64" y="99.174738"/>
      </g>
     </g>
     <g id="text_15">
      <!-- 20000 -->
      <g transform="translate(26.878125 102.973957)scale(0.1 -0.1)">
       <use xlink:href="#DejaVuSans-50"/>
       <use x="63.623047" xlink:href="#DejaVuSans-48"/>
       <use x="127.246094" xlink:href="#DejaVuSans-48"/>
       <use x="190.869141" xlink:href="#DejaVuSans-48"/>
       <use x="254.492188" xlink:href="#DejaVuSans-48"/>
      </g>
     </g>
    </g>
    <g id="ytick_6">
     <g id="line2d_15">
      <g>
       <use style="stroke:#000000;stroke-width:0.8;" x="65.690625" xlink:href="#m5fc8eeaf64" y="51.860891"/>
      </g>
     </g>
     <g id="text_16">
      <!-- 25000 -->
      <g transform="translate(26.878125 55.66011)scale(0.1 -0.1)">
       <use xlink:href="#DejaVuSans-50"/>
       <use x="63.623047" xlink:href="#DejaVuSans-53"/>
       <use x="127.246094" xlink:href="#DejaVuSans-48"/>
       <use x="190.869141" xlink:href="#DejaVuSans-48"/>
       <use x="254.492188" xlink:href="#DejaVuSans-48"/>
      </g>
     </g>
    </g>
    <g id="text_17">
     <!-- cumulative number of corona cases -->
     <g transform="translate(14.798438 245.00225)rotate(-90)scale(0.1 -0.1)">
      <defs>
       <path d="M 48.78125 52.59375 
L 48.78125 44.1875 
Q 44.96875 46.296875 41.140625 47.34375 
Q 37.3125 48.390625 33.40625 48.390625 
Q 24.65625 48.390625 19.8125 42.84375 
Q 14.984375 37.3125 14.984375 27.296875 
Q 14.984375 17.28125 19.8125 11.734375 
Q 24.65625 6.203125 33.40625 6.203125 
Q 37.3125 6.203125 41.140625 7.25 
Q 44.96875 8.296875 48.78125 10.40625 
L 48.78125 2.09375 
Q 45.015625 0.34375 40.984375 -0.53125 
Q 36.96875 -1.421875 32.421875 -1.421875 
Q 20.0625 -1.421875 12.78125 6.34375 
Q 5.515625 14.109375 5.515625 27.296875 
Q 5.515625 40.671875 12.859375 48.328125 
Q 20.21875 56 33.015625 56 
Q 37.15625 56 41.109375 55.140625 
Q 45.0625 54.296875 48.78125 52.59375 
z
" id="DejaVuSans-99"/>
       <path d="M 8.5 21.578125 
L 8.5 54.6875 
L 17.484375 54.6875 
L 17.484375 21.921875 
Q 17.484375 14.15625 20.5 10.265625 
Q 23.53125 6.390625 29.59375 6.390625 
Q 36.859375 6.390625 41.078125 11.03125 
Q 45.3125 15.671875 45.3125 23.6875 
L 45.3125 54.6875 
L 54.296875 54.6875 
L 54.296875 0 
L 45.3125 0 
L 45.3125 8.40625 
Q 42.046875 3.421875 37.71875 1 
Q 33.40625 -1.421875 27.6875 -1.421875 
Q 18.265625 -1.421875 13.375 4.4375 
Q 8.5 10.296875 8.5 21.578125 
z
M 31.109375 56 
z
" id="DejaVuSans-117"/>
       <path d="M 52 44.1875 
Q 55.375 50.25 60.0625 53.125 
Q 64.75 56 71.09375 56 
Q 79.640625 56 84.28125 50.015625 
Q 88.921875 44.046875 88.921875 33.015625 
L 88.921875 0 
L 79.890625 0 
L 79.890625 32.71875 
Q 79.890625 40.578125 77.09375 44.375 
Q 74.3125 48.1875 68.609375 48.1875 
Q 61.625 48.1875 57.5625 43.546875 
Q 53.515625 38.921875 53.515625 30.90625 
L 53.515625 0 
L 44.484375 0 
L 44.484375 32.71875 
Q 44.484375 40.625 41.703125 44.40625 
Q 38.921875 48.1875 33.109375 48.1875 
Q 26.21875 48.1875 22.15625 43.53125 
Q 18.109375 38.875 18.109375 30.90625 
L 18.109375 0 
L 9.078125 0 
L 9.078125 54.6875 
L 18.109375 54.6875 
L 18.109375 46.1875 
Q 21.1875 51.21875 25.484375 53.609375 
Q 29.78125 56 35.6875 56 
Q 41.65625 56 45.828125 52.96875 
Q 50 49.953125 52 44.1875 
z
" id="DejaVuSans-109"/>
       <path d="M 9.421875 75.984375 
L 18.40625 75.984375 
L 18.40625 0 
L 9.421875 0 
z
" id="DejaVuSans-108"/>
       <path d="M 9.421875 54.6875 
L 18.40625 54.6875 
L 18.40625 0 
L 9.421875 0 
z
M 9.421875 75.984375 
L 18.40625 75.984375 
L 18.40625 64.59375 
L 9.421875 64.59375 
z
" id="DejaVuSans-105"/>
       <path d="M 2.984375 54.6875 
L 12.5 54.6875 
L 29.59375 8.796875 
L 46.6875 54.6875 
L 56.203125 54.6875 
L 35.6875 0 
L 23.484375 0 
z
" id="DejaVuSans-118"/>
       <path id="DejaVuSans-32"/>
       <path d="M 54.890625 33.015625 
L 54.890625 0 
L 45.90625 0 
L 45.90625 32.71875 
Q 45.90625 40.484375 42.875 44.328125 
Q 39.84375 48.1875 33.796875 48.1875 
Q 26.515625 48.1875 22.3125 43.546875 
Q 18.109375 38.921875 18.109375 30.90625 
L 18.109375 0 
L 9.078125 0 
L 9.078125 54.6875 
L 18.109375 54.6875 
L 18.109375 46.1875 
Q 21.34375 51.125 25.703125 53.5625 
Q 30.078125 56 35.796875 56 
Q 45.21875 56 50.046875 50.171875 
Q 54.890625 44.34375 54.890625 33.015625 
z
" id="DejaVuSans-110"/>
       <path d="M 48.6875 27.296875 
Q 48.6875 37.203125 44.609375 42.84375 
Q 40.53125 48.484375 33.40625 48.484375 
Q 26.265625 48.484375 22.1875 42.84375 
Q 18.109375 37.203125 18.109375 27.296875 
Q 18.109375 17.390625 22.1875 11.75 
Q 26.265625 6.109375 33.40625 6.109375 
Q 40.53125 6.109375 44.609375 11.75 
Q 48.6875 17.390625 48.6875 27.296875 
z
M 18.109375 46.390625 
Q 20.953125 51.265625 25.265625 53.625 
Q 29.59375 56 35.59375 56 
Q 45.5625 56 51.78125 48.09375 
Q 58.015625 40.1875 58.015625 27.296875 
Q 58.015625 14.40625 51.78125 6.484375 
Q 45.5625 -1.421875 35.59375 -1.421875 
Q 29.59375 -1.421875 25.265625 0.953125 
Q 20.953125 3.328125 18.109375 8.203125 
L 18.109375 0 
L 9.078125 0 
L 9.078125 75.984375 
L 18.109375 75.984375 
z
" id="DejaVuSans-98"/>
       <path d="M 41.109375 46.296875 
Q 39.59375 47.171875 37.8125 47.578125 
Q 36.03125 48 33.890625 48 
Q 26.265625 48 22.1875 43.046875 
Q 18.109375 38.09375 18.109375 28.8125 
L 18.109375 0 
L 9.078125 0 
L 9.078125 54.6875 
L 18.109375 54.6875 
L 18.109375 46.1875 
Q 20.953125 51.171875 25.484375 53.578125 
Q 30.03125 56 36.53125 56 
Q 37.453125 56 38.578125 55.875 
Q 39.703125 55.765625 41.0625 55.515625 
z
" id="DejaVuSans-114"/>
       <path d="M 30.609375 48.390625 
Q 23.390625 48.390625 19.1875 42.75 
Q 14.984375 37.109375 14.984375 27.296875 
Q 14.984375 17.484375 19.15625 11.84375 
Q 23.34375 6.203125 30.609375 6.203125 
Q 37.796875 6.203125 41.984375 11.859375 
Q 46.1875 17.53125 46.1875 27.296875 
Q 46.1875 37.015625 41.984375 42.703125 
Q 37.796875 48.390625 30.609375 48.390625 
z
M 30.609375 56 
Q 42.328125 56 49.015625 48.375 
Q 55.71875 40.765625 55.71875 27.296875 
Q 55.71875 13.875 49.015625 6.21875 
Q 42.328125 -1.421875 30.609375 -1.421875 
Q 18.84375 -1.421875 12.171875 6.21875 
Q 5.515625 13.875 5.515625 27.296875 
Q 5.515625 40.765625 12.171875 48.375 
Q 18.84375 56 30.609375 56 
z
" id="DejaVuSans-111"/>
       <path d="M 37.109375 75.984375 
L 37.109375 68.5 
L 28.515625 68.5 
Q 23.6875 68.5 21.796875 66.546875 
Q 19.921875 64.59375 19.921875 59.515625 
L 19.921875 54.6875 
L 34.71875 54.6875 
L 34.71875 47.703125 
L 19.921875 47.703125 
L 19.921875 0 
L 10.890625 0 
L 10.890625 47.703125 
L 2.296875 47.703125 
L 2.296875 54.6875 
L 10.890625 54.6875 
L 10.890625 58.5 
Q 10.890625 67.625 15.140625 71.796875 
Q 19.390625 75.984375 28.609375 75.984375 
z
" id="DejaVuSans-102"/>
       <path d="M 44.28125 53.078125 
L 44.28125 44.578125 
Q 40.484375 46.53125 36.375 47.5 
Q 32.28125 48.484375 27.875 48.484375 
Q 21.1875 48.484375 17.84375 46.4375 
Q 14.5 44.390625 14.5 40.28125 
Q 14.5 37.15625 16.890625 35.375 
Q 19.28125 33.59375 26.515625 31.984375 
L 29.59375 31.296875 
Q 39.15625 29.25 43.1875 25.515625 
Q 47.21875 21.78125 47.21875 15.09375 
Q 47.21875 7.46875 41.1875 3.015625 
Q 35.15625 -1.421875 24.609375 -1.421875 
Q 20.21875 -1.421875 15.453125 -0.5625 
Q 10.6875 0.296875 5.421875 2 
L 5.421875 11.28125 
Q 10.40625 8.6875 15.234375 7.390625 
Q 20.0625 6.109375 24.8125 6.109375 
Q 31.15625 6.109375 34.5625 8.28125 
Q 37.984375 10.453125 37.984375 14.40625 
Q 37.984375 18.0625 35.515625 20.015625 
Q 33.0625 21.96875 24.703125 23.78125 
L 21.578125 24.515625 
Q 13.234375 26.265625 9.515625 29.90625 
Q 5.8125 33.546875 5.8125 39.890625 
Q 5.8125 47.609375 11.28125 51.796875 
Q 16.75 56 26.8125 56 
Q 31.78125 56 36.171875 55.265625 
Q 40.578125 54.546875 44.28125 53.078125 
z
" id="DejaVuSans-115"/>
      </defs>
      <use xlink:href="#DejaVuSans-99"/>
      <use x="54.980469" xlink:href="#DejaVuSans-117"/>
      <use x="118.359375" xlink:href="#DejaVuSans-109"/>
      <use x="215.771484" xlink:href="#DejaVuSans-117"/>
      <use x="279.150391" xlink:href="#DejaVuSans-108"/>
      <use x="306.933594" xlink:href="#DejaVuSans-97"/>
      <use x="368.212891" xlink:href="#DejaVuSans-116"/>
      <use x="407.421875" xlink:href="#DejaVuSans-105"/>
      <use x="435.205078" xlink:href="#DejaVuSans-118"/>
      <use x="494.384766" xlink:href="#DejaVuSans-101"/>
      <use x="555.908203" xlink:href="#DejaVuSans-32"/>
      <use x="587.695312" xlink:href="#DejaVuSans-110"/>
      <use x="651.074219" xlink:href="#DejaVuSans-117"/>
      <use x="714.453125" xlink:href="#DejaVuSans-109"/>
      <use x="811.865234" xlink:href="#DejaVuSans-98"/>
      <use x="875.341797" xlink:href="#DejaVuSans-101"/>
      <use x="936.865234" xlink:href="#DejaVuSans-114"/>
      <use x="977.978516" xlink:href="#DejaVuSans-32"/>
      <use x="1009.765625" xlink:href="#DejaVuSans-111"/>
      <use x="1070.947266" xlink:href="#DejaVuSans-102"/>
      <use x="1106.152344" xlink:href="#DejaVuSans-32"/>
      <use x="1137.939453" xlink:href="#DejaVuSans-99"/>
      <use x="1192.919922" xlink:href="#DejaVuSans-111"/>
      <use x="1254.101562" xlink:href="#DejaVuSans-114"/>
      <use x="1292.964844" xlink:href="#DejaVuSans-111"/>
      <use x="1354.146484" xlink:href="#DejaVuSans-110"/>
      <use x="1417.525391" xlink:href="#DejaVuSans-97"/>
      <use x="1478.804688" xlink:href="#DejaVuSans-32"/>
      <use x="1510.591797" xlink:href="#DejaVuSans-99"/>
      <use x="1565.572266" xlink:href="#DejaVuSans-97"/>
      <use x="1626.851562" xlink:href="#DejaVuSans-115"/>
      <use x="1678.951172" xlink:href="#DejaVuSans-101"/>
      <use x="1740.474609" xlink:href="#DejaVuSans-115"/>
     </g>
    </g>
   </g>
   <g id="patch_284">
    <path d="M 65.690625 288.430125 
L 65.690625 22.318125 
" style="fill:none;stroke:#000000;stroke-linecap:square;stroke-linejoin:miter;stroke-width:0.8;"/>
   </g>
   <g id="patch_285">
    <path d="M 65.690625 288.430125 
L 422.810625 288.430125 
" style="fill:none;stroke:#000000;stroke-linecap:square;stroke-linejoin:miter;stroke-width:0.8;"/>
   </g>
   <g id="text_18">
    <!-- South Tyrol -->
    <g transform="translate(210.958125 16.318125)scale(0.12 -0.12)">
     <defs>
      <path d="M 53.515625 70.515625 
L 53.515625 60.890625 
Q 47.90625 63.578125 42.921875 64.890625 
Q 37.9375 66.21875 33.296875 66.21875 
Q 25.25 66.21875 20.875 63.09375 
Q 16.5 59.96875 16.5 54.203125 
Q 16.5 49.359375 19.40625 46.890625 
Q 22.3125 44.4375 30.421875 42.921875 
L 36.375 41.703125 
Q 47.40625 39.59375 52.65625 34.296875 
Q 57.90625 29 57.90625 20.125 
Q 57.90625 9.515625 50.796875 4.046875 
Q 43.703125 -1.421875 29.984375 -1.421875 
Q 24.8125 -1.421875 18.96875 -0.25 
Q 13.140625 0.921875 6.890625 3.21875 
L 6.890625 13.375 
Q 12.890625 10.015625 18.65625 8.296875 
Q 24.421875 6.59375 29.984375 6.59375 
Q 38.421875 6.59375 43.015625 9.90625 
Q 47.609375 13.234375 47.609375 19.390625 
Q 47.609375 24.75 44.3125 27.78125 
Q 41.015625 30.8125 33.5 32.328125 
L 27.484375 33.5 
Q 16.453125 35.6875 11.515625 40.375 
Q 6.59375 45.0625 6.59375 53.421875 
Q 6.59375 63.09375 13.40625 68.65625 
Q 20.21875 74.21875 32.171875 74.21875 
Q 37.3125 74.21875 42.625 73.28125 
Q 47.953125 72.359375 53.515625 70.515625 
z
" id="DejaVuSans-83"/>
      <path d="M 54.890625 33.015625 
L 54.890625 0 
L 45.90625 0 
L 45.90625 32.71875 
Q 45.90625 40.484375 42.875 44.328125 
Q 39.84375 48.1875 33.796875 48.1875 
Q 26.515625 48.1875 22.3125 43.546875 
Q 18.109375 38.921875 18.109375 30.90625 
L 18.109375 0 
L 9.078125 0 
L 9.078125 75.984375 
L 18.109375 75.984375 
L 18.109375 46.1875 
Q 21.34375 51.125 25.703125 53.5625 
Q 30.078125 56 35.796875 56 
Q 45.21875 56 50.046875 50.171875 
Q 54.890625 44.34375 54.890625 33.015625 
z
" id="DejaVuSans-104"/>
      <path d="M -0.296875 72.90625 
L 61.375 72.90625 
L 61.375 64.59375 
L 35.5 64.59375 
L 35.5 0 
L 25.59375 0 
L 25.59375 64.59375 
L -0.296875 64.59375 
z
" id="DejaVuSans-84"/>
      <path d="M 32.171875 -5.078125 
Q 28.375 -14.84375 24.75 -17.8125 
Q 21.140625 -20.796875 15.09375 -20.796875 
L 7.90625 -20.796875 
L 7.90625 -13.28125 
L 13.1875 -13.28125 
Q 16.890625 -13.28125 18.9375 -11.515625 
Q 21 -9.765625 23.484375 -3.21875 
L 25.09375 0.875 
L 2.984375 54.6875 
L 12.5 54.6875 
L 29.59375 11.921875 
L 46.6875 54.6875 
L 56.203125 54.6875 
z
" id="DejaVuSans-121"/>
     </defs>
     <use xlink:href="#DejaVuSans-83"/>
     <use x="63.476562" xlink:href="#DejaVuSans-111"/>
     <use x="124.658203" xlink:href="#DejaVuSans-117"/>
     <use x="188.037109" xlink:href="#DejaVuSans-116"/>
     <use x="227.246094" xlink:href="#DejaVuSans-104"/>
     <use x="290.625" xlink:href="#DejaVuSans-32"/>
     <use x="322.412109" xlink:href="#DejaVuSans-84"/>
     <use x="367.871094" xlink:href="#DejaVuSans-121"/>
     <use x="427.050781" xlink:href="#DejaVuSans-114"/>
     <use x="465.914062" xlink:href="#DejaVuSans-111"/>
     <use x="527.095703" xlink:href="#DejaVuSans-108"/>
    </g>
   </g>
  </g>
 </g>
 <defs>
  <clipPath id="pe009d900eb">
   <rect height="266.112" width="357.12" x="65.690625" y="22.318125"/>
  </clipPath>
 </defs>
</svg>
