<?xml version="1.0" encoding="utf-8" standalone="no"?>
<!DOCTYPE svg PUBLIC "-//W3C//DTD SVG 1.1//EN"
  "http://www.w3.org/Graphics/SVG/1.1/DTD/svg11.dtd">
<!-- Created with matplotlib (https://matplotlib.org/) -->
<svg height="364.091062pt" version="1.1" viewBox="0 0 434.240268 364.091062" width="434.240268pt" xmlns="http://www.w3.org/2000/svg" xmlns:xlink="http://www.w3.org/1999/xlink">
 <metadata>
  <rdf:RDF xmlns:cc="http://creativecommons.org/ns#" xmlns:dc="http://purl.org/dc/elements/1.1/" xmlns:rdf="http://www.w3.org/1999/02/22-rdf-syntax-ns#">
   <cc:Work>
    <dc:type rdf:resource="http://purl.org/dc/dcmitype/StillImage"/>
    <dc:date>2021-01-01T12:33:54.413231</dc:date>
    <dc:format>image/svg+xml</dc:format>
    <dc:creator>
     <cc:Agent>
      <dc:title>Matplotlib v3.3.3, https://matplotlib.org/</dc:title>
     </cc:Agent>
    </dc:creator>
   </cc:Work>
  </rdf:RDF>
 </metadata>
 <defs>
  <style type="text/css">*{stroke-linecap:butt;stroke-linejoin:round;}</style>
 </defs>
 <g id="figure_1">
  <g id="patch_1">
   <path d="M 0 364.091062 
L 434.240268 364.091062 
L 434.240268 0 
L 0 0 
z
" style="fill:#ffffff;"/>
  </g>
  <g id="axes_1">
   <g id="patch_2">
    <path d="M 65.690625 288.430125 
L 422.810625 288.430125 
L 422.810625 22.318125 
L 65.690625 22.318125 
z
" style="fill:#ffffff;"/>
   </g>
   <g id="patch_3">
    <path clip-path="url(#pf3b1cfded0)" d="M 65.812509 288.430125 
L 66.787581 288.430125 
L 66.787581 286.588334 
L 65.812509 286.588334 
z
" style="fill:#1f77b4;"/>
   </g>
   <g id="patch_4">
    <path clip-path="url(#pf3b1cfded0)" d="M 67.031349 288.430125 
L 68.00642 288.430125 
L 68.00642 286.248586 
L 67.031349 286.248586 
z
" style="fill:#1f77b4;"/>
   </g>
   <g id="patch_5">
    <path clip-path="url(#pf3b1cfded0)" d="M 68.250188 288.430125 
L 69.22526 288.430125 
L 69.22526 285.81049 
L 68.250188 285.81049 
z
" style="fill:#1f77b4;"/>
   </g>
   <g id="patch_6">
    <path clip-path="url(#pf3b1cfded0)" d="M 69.469028 288.430125 
L 70.444099 288.430125 
L 70.444099 285.005824 
L 69.469028 285.005824 
z
" style="fill:#1f77b4;"/>
   </g>
   <g id="patch_7">
    <path clip-path="url(#pf3b1cfded0)" d="M 70.687867 288.430125 
L 71.662939 288.430125 
L 71.662939 284.487261 
L 70.687867 284.487261 
z
" style="fill:#1f77b4;"/>
   </g>
   <g id="patch_8">
    <path clip-path="url(#pf3b1cfded0)" d="M 71.906707 288.430125 
L 72.881779 288.430125 
L 72.881779 283.468018 
L 71.906707 283.468018 
z
" style="fill:#1f77b4;"/>
   </g>
   <g id="patch_9">
    <path clip-path="url(#pf3b1cfded0)" d="M 73.125547 288.430125 
L 74.100618 288.430125 
L 74.100618 282.860048 
L 73.125547 282.860048 
z
" style="fill:#1f77b4;"/>
   </g>
   <g id="patch_10">
    <path clip-path="url(#pf3b1cfded0)" d="M 74.344386 288.430125 
L 75.319458 288.430125 
L 75.319458 282.332545 
L 74.344386 282.332545 
z
" style="fill:#1f77b4;"/>
   </g>
   <g id="patch_11">
    <path clip-path="url(#pf3b1cfded0)" d="M 75.563226 288.430125 
L 76.538297 288.430125 
L 76.538297 281.957034 
L 75.563226 281.957034 
z
" style="fill:#1f77b4;"/>
   </g>
   <g id="patch_12">
    <path clip-path="url(#pf3b1cfded0)" d="M 76.782065 288.430125 
L 77.757137 288.430125 
L 77.757137 281.375886 
L 76.782065 281.375886 
z
" style="fill:#1f77b4;"/>
   </g>
   <g id="patch_13">
    <path clip-path="url(#pf3b1cfded0)" d="M 78.000905 288.430125 
L 78.975977 288.430125 
L 78.975977 280.955672 
L 78.000905 280.955672 
z
" style="fill:#1f77b4;"/>
   </g>
   <g id="patch_14">
    <path clip-path="url(#pf3b1cfded0)" d="M 79.219744 288.430125 
L 80.194816 288.430125 
L 80.194816 280.294057 
L 79.219744 280.294057 
z
" style="fill:#1f77b4;"/>
   </g>
   <g id="patch_15">
    <path clip-path="url(#pf3b1cfded0)" d="M 80.438584 288.430125 
L 81.413656 288.430125 
L 81.413656 279.462569 
L 80.438584 279.462569 
z
" style="fill:#1f77b4;"/>
   </g>
   <g id="patch_16">
    <path clip-path="url(#pf3b1cfded0)" d="M 81.657424 288.430125 
L 82.632495 288.430125 
L 82.632495 278.756251 
L 81.657424 278.756251 
z
" style="fill:#1f77b4;"/>
   </g>
   <g id="patch_17">
    <path clip-path="url(#pf3b1cfded0)" d="M 82.876263 288.430125 
L 83.851335 288.430125 
L 83.851335 277.656541 
L 82.876263 277.656541 
z
" style="fill:#1f77b4;"/>
   </g>
   <g id="patch_18">
    <path clip-path="url(#pf3b1cfded0)" d="M 84.095103 288.430125 
L 85.070174 288.430125 
L 85.070174 276.878697 
L 84.095103 276.878697 
z
" style="fill:#1f77b4;"/>
   </g>
   <g id="patch_19">
    <path clip-path="url(#pf3b1cfded0)" d="M 85.313942 288.430125 
L 86.289014 288.430125 
L 86.289014 276.342253 
L 85.313942 276.342253 
z
" style="fill:#1f77b4;"/>
   </g>
   <g id="patch_20">
    <path clip-path="url(#pf3b1cfded0)" d="M 86.532782 288.430125 
L 87.507854 288.430125 
L 87.507854 275.930979 
L 86.532782 275.930979 
z
" style="fill:#1f77b4;"/>
   </g>
   <g id="patch_21">
    <path clip-path="url(#pf3b1cfded0)" d="M 87.751622 288.430125 
L 88.726693 288.430125 
L 88.726693 275.528646 
L 87.751622 275.528646 
z
" style="fill:#1f77b4;"/>
   </g>
   <g id="patch_22">
    <path clip-path="url(#pf3b1cfded0)" d="M 88.970461 288.430125 
L 89.945533 288.430125 
L 89.945533 274.822328 
L 88.970461 274.822328 
z
" style="fill:#1f77b4;"/>
   </g>
   <g id="patch_23">
    <path clip-path="url(#pf3b1cfded0)" d="M 90.189301 288.430125 
L 91.164372 288.430125 
L 91.164372 274.026603 
L 90.189301 274.026603 
z
" style="fill:#1f77b4;"/>
   </g>
   <g id="patch_24">
    <path clip-path="url(#pf3b1cfded0)" d="M 91.40814 288.430125 
L 92.383212 288.430125 
L 92.383212 273.651092 
L 91.40814 273.651092 
z
" style="fill:#1f77b4;"/>
   </g>
   <g id="patch_25">
    <path clip-path="url(#pf3b1cfded0)" d="M 92.62698 288.430125 
L 93.602052 288.430125 
L 93.602052 272.944774 
L 92.62698 272.944774 
z
" style="fill:#1f77b4;"/>
   </g>
   <g id="patch_26">
    <path clip-path="url(#pf3b1cfded0)" d="M 93.84582 288.430125 
L 94.820891 288.430125 
L 94.820891 272.417271 
L 93.84582 272.417271 
z
" style="fill:#1f77b4;"/>
   </g>
   <g id="patch_27">
    <path clip-path="url(#pf3b1cfded0)" d="M 95.064659 288.430125 
L 96.039731 288.430125 
L 96.039731 271.809301 
L 95.064659 271.809301 
z
" style="fill:#1f77b4;"/>
   </g>
   <g id="patch_28">
    <path clip-path="url(#pf3b1cfded0)" d="M 96.283499 288.430125 
L 97.25857 288.430125 
L 97.25857 271.344383 
L 96.283499 271.344383 
z
" style="fill:#1f77b4;"/>
   </g>
   <g id="patch_29">
    <path clip-path="url(#pf3b1cfded0)" d="M 97.502338 288.430125 
L 98.47741 288.430125 
L 98.47741 270.781117 
L 97.502338 270.781117 
z
" style="fill:#1f77b4;"/>
   </g>
   <g id="patch_30">
    <path clip-path="url(#pf3b1cfded0)" d="M 98.721178 288.430125 
L 99.69625 288.430125 
L 99.69625 270.182087 
L 98.721178 270.182087 
z
" style="fill:#1f77b4;"/>
   </g>
   <g id="patch_31">
    <path clip-path="url(#pf3b1cfded0)" d="M 99.940017 288.430125 
L 100.915089 288.430125 
L 100.915089 269.708228 
L 99.940017 269.708228 
z
" style="fill:#1f77b4;"/>
   </g>
   <g id="patch_32">
    <path clip-path="url(#pf3b1cfded0)" d="M 101.158857 288.430125 
L 102.133929 288.430125 
L 102.133929 269.252251 
L 101.158857 269.252251 
z
" style="fill:#1f77b4;"/>
   </g>
   <g id="patch_33">
    <path clip-path="url(#pf3b1cfded0)" d="M 102.377697 288.430125 
L 103.352768 288.430125 
L 103.352768 268.939325 
L 102.377697 268.939325 
z
" style="fill:#1f77b4;"/>
   </g>
   <g id="patch_34">
    <path clip-path="url(#pf3b1cfded0)" d="M 103.596536 288.430125 
L 104.571608 288.430125 
L 104.571608 268.545933 
L 103.596536 268.545933 
z
" style="fill:#1f77b4;"/>
   </g>
   <g id="patch_35">
    <path clip-path="url(#pf3b1cfded0)" d="M 104.815376 288.430125 
L 105.790448 288.430125 
L 105.790448 268.152541 
L 104.815376 268.152541 
z
" style="fill:#1f77b4;"/>
   </g>
   <g id="patch_36">
    <path clip-path="url(#pf3b1cfded0)" d="M 106.034215 288.430125 
L 107.009287 288.430125 
L 107.009287 267.9022 
L 106.034215 267.9022 
z
" style="fill:#1f77b4;"/>
   </g>
   <g id="patch_37">
    <path clip-path="url(#pf3b1cfded0)" d="M 107.253055 288.430125 
L 108.228127 288.430125 
L 108.228127 267.642919 
L 107.253055 267.642919 
z
" style="fill:#1f77b4;"/>
   </g>
   <g id="patch_38">
    <path clip-path="url(#pf3b1cfded0)" d="M 108.471895 288.430125 
L 109.446966 288.430125 
L 109.446966 267.151179 
L 108.471895 267.151179 
z
" style="fill:#1f77b4;"/>
   </g>
   <g id="patch_39">
    <path clip-path="url(#pf3b1cfded0)" d="M 109.690734 288.430125 
L 110.665806 288.430125 
L 110.665806 267.017068 
L 109.690734 267.017068 
z
" style="fill:#1f77b4;"/>
   </g>
   <g id="patch_40">
    <path clip-path="url(#pf3b1cfded0)" d="M 110.909574 288.430125 
L 111.884645 288.430125 
L 111.884645 266.865075 
L 110.909574 266.865075 
z
" style="fill:#1f77b4;"/>
   </g>
   <g id="patch_41">
    <path clip-path="url(#pf3b1cfded0)" d="M 112.128413 288.430125 
L 113.103485 288.430125 
L 113.103485 266.829312 
L 112.128413 266.829312 
z
" style="fill:#1f77b4;"/>
   </g>
   <g id="patch_42">
    <path clip-path="url(#pf3b1cfded0)" d="M 113.347253 288.430125 
L 114.322325 288.430125 
L 114.322325 266.659438 
L 113.347253 266.659438 
z
" style="fill:#1f77b4;"/>
   </g>
   <g id="patch_43">
    <path clip-path="url(#pf3b1cfded0)" d="M 114.566093 288.430125 
L 115.541164 288.430125 
L 115.541164 266.471683 
L 114.566093 266.471683 
z
" style="fill:#1f77b4;"/>
   </g>
   <g id="patch_44">
    <path clip-path="url(#pf3b1cfded0)" d="M 115.784932 288.430125 
L 116.760004 288.430125 
L 116.760004 266.292868 
L 115.784932 266.292868 
z
" style="fill:#1f77b4;"/>
   </g>
   <g id="patch_45">
    <path clip-path="url(#pf3b1cfded0)" d="M 117.003772 288.430125 
L 117.978843 288.430125 
L 117.978843 266.248165 
L 117.003772 266.248165 
z
" style="fill:#1f77b4;"/>
   </g>
   <g id="patch_46">
    <path clip-path="url(#pf3b1cfded0)" d="M 118.222611 288.430125 
L 119.197683 288.430125 
L 119.197683 266.114054 
L 118.222611 266.114054 
z
" style="fill:#1f77b4;"/>
   </g>
   <g id="patch_47">
    <path clip-path="url(#pf3b1cfded0)" d="M 119.441451 288.430125 
L 120.416523 288.430125 
L 120.416523 266.096172 
L 119.441451 266.096172 
z
" style="fill:#1f77b4;"/>
   </g>
   <g id="patch_48">
    <path clip-path="url(#pf3b1cfded0)" d="M 120.660291 288.430125 
L 121.635362 288.430125 
L 121.635362 266.015705 
L 120.660291 266.015705 
z
" style="fill:#1f77b4;"/>
   </g>
   <g id="patch_49">
    <path clip-path="url(#pf3b1cfded0)" d="M 121.87913 288.430125 
L 122.854202 288.430125 
L 122.854202 265.917357 
L 121.87913 265.917357 
z
" style="fill:#1f77b4;"/>
   </g>
   <g id="patch_50">
    <path clip-path="url(#pf3b1cfded0)" d="M 123.09797 288.430125 
L 124.073041 288.430125 
L 124.073041 265.82795 
L 123.09797 265.82795 
z
" style="fill:#1f77b4;"/>
   </g>
   <g id="patch_51">
    <path clip-path="url(#pf3b1cfded0)" d="M 124.316809 288.430125 
L 125.291881 288.430125 
L 125.291881 265.765365 
L 124.316809 265.765365 
z
" style="fill:#1f77b4;"/>
   </g>
   <g id="patch_52">
    <path clip-path="url(#pf3b1cfded0)" d="M 125.535649 288.430125 
L 126.510721 288.430125 
L 126.510721 265.756424 
L 125.535649 265.756424 
z
" style="fill:#1f77b4;"/>
   </g>
   <g id="patch_53">
    <path clip-path="url(#pf3b1cfded0)" d="M 126.754488 288.430125 
L 127.72956 288.430125 
L 127.72956 265.71172 
L 126.754488 265.71172 
z
" style="fill:#1f77b4;"/>
   </g>
   <g id="patch_54">
    <path clip-path="url(#pf3b1cfded0)" d="M 127.973328 288.430125 
L 128.9484 288.430125 
L 128.9484 265.70278 
L 127.973328 265.70278 
z
" style="fill:#1f77b4;"/>
   </g>
   <g id="patch_55">
    <path clip-path="url(#pf3b1cfded0)" d="M 129.192168 288.430125 
L 130.167239 288.430125 
L 130.167239 265.693839 
L 129.192168 265.693839 
z
" style="fill:#1f77b4;"/>
   </g>
   <g id="patch_56">
    <path clip-path="url(#pf3b1cfded0)" d="M 130.411007 288.430125 
L 131.386079 288.430125 
L 131.386079 265.613372 
L 130.411007 265.613372 
z
" style="fill:#1f77b4;"/>
   </g>
   <g id="patch_57">
    <path clip-path="url(#pf3b1cfded0)" d="M 131.629847 288.430125 
L 132.604919 288.430125 
L 132.604919 265.559728 
L 131.629847 265.559728 
z
" style="fill:#1f77b4;"/>
   </g>
   <g id="patch_58">
    <path clip-path="url(#pf3b1cfded0)" d="M 132.848686 288.430125 
L 133.823758 288.430125 
L 133.823758 265.479261 
L 132.848686 265.479261 
z
" style="fill:#1f77b4;"/>
   </g>
   <g id="patch_59">
    <path clip-path="url(#pf3b1cfded0)" d="M 134.067526 288.430125 
L 135.042598 288.430125 
L 135.042598 265.46138 
L 134.067526 265.46138 
z
" style="fill:#1f77b4;"/>
   </g>
   <g id="patch_60">
    <path clip-path="url(#pf3b1cfded0)" d="M 135.286366 288.430125 
L 136.261437 288.430125 
L 136.261437 265.434558 
L 135.286366 265.434558 
z
" style="fill:#1f77b4;"/>
   </g>
   <g id="patch_61">
    <path clip-path="url(#pf3b1cfded0)" d="M 136.505205 288.430125 
L 137.480277 288.430125 
L 137.480277 265.434558 
L 136.505205 265.434558 
z
" style="fill:#1f77b4;"/>
   </g>
   <g id="patch_62">
    <path clip-path="url(#pf3b1cfded0)" d="M 137.724045 288.430125 
L 138.699116 288.430125 
L 138.699116 265.407736 
L 137.724045 265.407736 
z
" style="fill:#1f77b4;"/>
   </g>
   <g id="patch_63">
    <path clip-path="url(#pf3b1cfded0)" d="M 138.942884 288.430125 
L 139.917956 288.430125 
L 139.917956 265.380913 
L 138.942884 265.380913 
z
" style="fill:#1f77b4;"/>
   </g>
   <g id="patch_64">
    <path clip-path="url(#pf3b1cfded0)" d="M 140.161724 288.430125 
L 141.136796 288.430125 
L 141.136796 265.380913 
L 140.161724 265.380913 
z
" style="fill:#1f77b4;"/>
   </g>
   <g id="patch_65">
    <path clip-path="url(#pf3b1cfded0)" d="M 141.380564 288.430125 
L 142.355635 288.430125 
L 142.355635 265.380913 
L 141.380564 265.380913 
z
" style="fill:#1f77b4;"/>
   </g>
   <g id="patch_66">
    <path clip-path="url(#pf3b1cfded0)" d="M 142.599403 288.430125 
L 143.574475 288.430125 
L 143.574475 265.363032 
L 142.599403 265.363032 
z
" style="fill:#1f77b4;"/>
   </g>
   <g id="patch_67">
    <path clip-path="url(#pf3b1cfded0)" d="M 143.818243 288.430125 
L 144.793314 288.430125 
L 144.793314 265.34515 
L 143.818243 265.34515 
z
" style="fill:#1f77b4;"/>
   </g>
   <g id="patch_68">
    <path clip-path="url(#pf3b1cfded0)" d="M 145.037082 288.430125 
L 146.012154 288.430125 
L 146.012154 265.300447 
L 145.037082 265.300447 
z
" style="fill:#1f77b4;"/>
   </g>
   <g id="patch_69">
    <path clip-path="url(#pf3b1cfded0)" d="M 146.255922 288.430125 
L 147.230994 288.430125 
L 147.230994 265.300447 
L 146.255922 265.300447 
z
" style="fill:#1f77b4;"/>
   </g>
   <g id="patch_70">
    <path clip-path="url(#pf3b1cfded0)" d="M 147.474762 288.430125 
L 148.449833 288.430125 
L 148.449833 265.300447 
L 147.474762 265.300447 
z
" style="fill:#1f77b4;"/>
   </g>
   <g id="patch_71">
    <path clip-path="url(#pf3b1cfded0)" d="M 148.693601 288.430125 
L 149.668673 288.430125 
L 149.668673 265.273625 
L 148.693601 265.273625 
z
" style="fill:#1f77b4;"/>
   </g>
   <g id="patch_72">
    <path clip-path="url(#pf3b1cfded0)" d="M 149.912441 288.430125 
L 150.887512 288.430125 
L 150.887512 265.273625 
L 149.912441 265.273625 
z
" style="fill:#1f77b4;"/>
   </g>
   <g id="patch_73">
    <path clip-path="url(#pf3b1cfded0)" d="M 151.13128 288.430125 
L 152.106352 288.430125 
L 152.106352 265.255743 
L 151.13128 265.255743 
z
" style="fill:#1f77b4;"/>
   </g>
   <g id="patch_74">
    <path clip-path="url(#pf3b1cfded0)" d="M 152.35012 288.430125 
L 153.325192 288.430125 
L 153.325192 265.255743 
L 152.35012 265.255743 
z
" style="fill:#1f77b4;"/>
   </g>
   <g id="patch_75">
    <path clip-path="url(#pf3b1cfded0)" d="M 153.568959 288.430125 
L 154.544031 288.430125 
L 154.544031 265.246802 
L 153.568959 265.246802 
z
" style="fill:#1f77b4;"/>
   </g>
   <g id="patch_76">
    <path clip-path="url(#pf3b1cfded0)" d="M 154.787799 288.430125 
L 155.762871 288.430125 
L 155.762871 265.246802 
L 154.787799 265.246802 
z
" style="fill:#1f77b4;"/>
   </g>
   <g id="patch_77">
    <path clip-path="url(#pf3b1cfded0)" d="M 156.006639 288.430125 
L 156.98171 288.430125 
L 156.98171 265.228921 
L 156.006639 265.228921 
z
" style="fill:#1f77b4;"/>
   </g>
   <g id="patch_78">
    <path clip-path="url(#pf3b1cfded0)" d="M 157.225478 288.430125 
L 158.20055 288.430125 
L 158.20055 265.228921 
L 157.225478 265.228921 
z
" style="fill:#1f77b4;"/>
   </g>
   <g id="patch_79">
    <path clip-path="url(#pf3b1cfded0)" d="M 158.444318 288.430125 
L 159.41939 288.430125 
L 159.41939 265.21998 
L 158.444318 265.21998 
z
" style="fill:#1f77b4;"/>
   </g>
   <g id="patch_80">
    <path clip-path="url(#pf3b1cfded0)" d="M 159.663157 288.430125 
L 160.638229 288.430125 
L 160.638229 265.211039 
L 159.663157 265.211039 
z
" style="fill:#1f77b4;"/>
   </g>
   <g id="patch_81">
    <path clip-path="url(#pf3b1cfded0)" d="M 160.881997 288.430125 
L 161.857069 288.430125 
L 161.857069 265.211039 
L 160.881997 265.211039 
z
" style="fill:#1f77b4;"/>
   </g>
   <g id="patch_82">
    <path clip-path="url(#pf3b1cfded0)" d="M 162.100837 288.430125 
L 163.075908 288.430125 
L 163.075908 265.211039 
L 162.100837 265.211039 
z
" style="fill:#1f77b4;"/>
   </g>
   <g id="patch_83">
    <path clip-path="url(#pf3b1cfded0)" d="M 163.319676 288.430125 
L 164.294748 288.430125 
L 164.294748 265.211039 
L 163.319676 265.211039 
z
" style="fill:#1f77b4;"/>
   </g>
   <g id="patch_84">
    <path clip-path="url(#pf3b1cfded0)" d="M 164.538516 288.430125 
L 165.513587 288.430125 
L 165.513587 265.211039 
L 164.538516 265.211039 
z
" style="fill:#1f77b4;"/>
   </g>
   <g id="patch_85">
    <path clip-path="url(#pf3b1cfded0)" d="M 165.757355 288.430125 
L 166.732427 288.430125 
L 166.732427 265.202099 
L 165.757355 265.202099 
z
" style="fill:#1f77b4;"/>
   </g>
   <g id="patch_86">
    <path clip-path="url(#pf3b1cfded0)" d="M 166.976195 288.430125 
L 167.951267 288.430125 
L 167.951267 265.193158 
L 166.976195 265.193158 
z
" style="fill:#1f77b4;"/>
   </g>
   <g id="patch_87">
    <path clip-path="url(#pf3b1cfded0)" d="M 168.195035 288.430125 
L 169.170106 288.430125 
L 169.170106 265.166336 
L 168.195035 265.166336 
z
" style="fill:#1f77b4;"/>
   </g>
   <g id="patch_88">
    <path clip-path="url(#pf3b1cfded0)" d="M 169.413874 288.430125 
L 170.388946 288.430125 
L 170.388946 265.166336 
L 169.413874 265.166336 
z
" style="fill:#1f77b4;"/>
   </g>
   <g id="patch_89">
    <path clip-path="url(#pf3b1cfded0)" d="M 170.632714 288.430125 
L 171.607785 288.430125 
L 171.607785 265.166336 
L 170.632714 265.166336 
z
" style="fill:#1f77b4;"/>
   </g>
   <g id="patch_90">
    <path clip-path="url(#pf3b1cfded0)" d="M 171.851553 288.430125 
L 172.826625 288.430125 
L 172.826625 265.166336 
L 171.851553 265.166336 
z
" style="fill:#1f77b4;"/>
   </g>
   <g id="patch_91">
    <path clip-path="url(#pf3b1cfded0)" d="M 173.070393 288.430125 
L 174.045465 288.430125 
L 174.045465 265.130573 
L 173.070393 265.130573 
z
" style="fill:#1f77b4;"/>
   </g>
   <g id="patch_92">
    <path clip-path="url(#pf3b1cfded0)" d="M 174.289233 288.430125 
L 175.264304 288.430125 
L 175.264304 265.112691 
L 174.289233 265.112691 
z
" style="fill:#1f77b4;"/>
   </g>
   <g id="patch_93">
    <path clip-path="url(#pf3b1cfded0)" d="M 175.508072 288.430125 
L 176.483144 288.430125 
L 176.483144 265.09481 
L 175.508072 265.09481 
z
" style="fill:#1f77b4;"/>
   </g>
   <g id="patch_94">
    <path clip-path="url(#pf3b1cfded0)" d="M 176.726912 288.430125 
L 177.701983 288.430125 
L 177.701983 265.085869 
L 176.726912 265.085869 
z
" style="fill:#1f77b4;"/>
   </g>
   <g id="patch_95">
    <path clip-path="url(#pf3b1cfded0)" d="M 177.945751 288.430125 
L 178.920823 288.430125 
L 178.920823 265.085869 
L 177.945751 265.085869 
z
" style="fill:#1f77b4;"/>
   </g>
   <g id="patch_96">
    <path clip-path="url(#pf3b1cfded0)" d="M 179.164591 288.430125 
L 180.139663 288.430125 
L 180.139663 265.085869 
L 179.164591 265.085869 
z
" style="fill:#1f77b4;"/>
   </g>
   <g id="patch_97">
    <path clip-path="url(#pf3b1cfded0)" d="M 180.38343 288.430125 
L 181.358502 288.430125 
L 181.358502 265.085869 
L 180.38343 265.085869 
z
" style="fill:#1f77b4;"/>
   </g>
   <g id="patch_98">
    <path clip-path="url(#pf3b1cfded0)" d="M 181.60227 288.430125 
L 182.577342 288.430125 
L 182.577342 265.067988 
L 181.60227 265.067988 
z
" style="fill:#1f77b4;"/>
   </g>
   <g id="patch_99">
    <path clip-path="url(#pf3b1cfded0)" d="M 182.82111 288.430125 
L 183.796181 288.430125 
L 183.796181 265.050106 
L 182.82111 265.050106 
z
" style="fill:#1f77b4;"/>
   </g>
   <g id="patch_100">
    <path clip-path="url(#pf3b1cfded0)" d="M 184.039949 288.430125 
L 185.015021 288.430125 
L 185.015021 265.023284 
L 184.039949 265.023284 
z
" style="fill:#1f77b4;"/>
   </g>
   <g id="patch_101">
    <path clip-path="url(#pf3b1cfded0)" d="M 185.258789 288.430125 
L 186.23386 288.430125 
L 186.23386 264.987521 
L 185.258789 264.987521 
z
" style="fill:#1f77b4;"/>
   </g>
   <g id="patch_102">
    <path clip-path="url(#pf3b1cfded0)" d="M 186.477628 288.430125 
L 187.4527 288.430125 
L 187.4527 264.889173 
L 186.477628 264.889173 
z
" style="fill:#1f77b4;"/>
   </g>
   <g id="patch_103">
    <path clip-path="url(#pf3b1cfded0)" d="M 187.696468 288.430125 
L 188.67154 288.430125 
L 188.67154 264.889173 
L 187.696468 264.889173 
z
" style="fill:#1f77b4;"/>
   </g>
   <g id="patch_104">
    <path clip-path="url(#pf3b1cfded0)" d="M 188.915308 288.430125 
L 189.890379 288.430125 
L 189.890379 264.880232 
L 188.915308 264.880232 
z
" style="fill:#1f77b4;"/>
   </g>
   <g id="patch_105">
    <path clip-path="url(#pf3b1cfded0)" d="M 190.134147 288.430125 
L 191.109219 288.430125 
L 191.109219 264.880232 
L 190.134147 264.880232 
z
" style="fill:#1f77b4;"/>
   </g>
   <g id="patch_106">
    <path clip-path="url(#pf3b1cfded0)" d="M 191.352987 288.430125 
L 192.328058 288.430125 
L 192.328058 264.880232 
L 191.352987 264.880232 
z
" style="fill:#1f77b4;"/>
   </g>
   <g id="patch_107">
    <path clip-path="url(#pf3b1cfded0)" d="M 192.571826 288.430125 
L 193.546898 288.430125 
L 193.546898 264.862351 
L 192.571826 264.862351 
z
" style="fill:#1f77b4;"/>
   </g>
   <g id="patch_108">
    <path clip-path="url(#pf3b1cfded0)" d="M 193.790666 288.430125 
L 194.765738 288.430125 
L 194.765738 264.85341 
L 193.790666 264.85341 
z
" style="fill:#1f77b4;"/>
   </g>
   <g id="patch_109">
    <path clip-path="url(#pf3b1cfded0)" d="M 195.009506 288.430125 
L 195.984577 288.430125 
L 195.984577 264.835529 
L 195.009506 264.835529 
z
" style="fill:#1f77b4;"/>
   </g>
   <g id="patch_110">
    <path clip-path="url(#pf3b1cfded0)" d="M 196.228345 288.430125 
L 197.203417 288.430125 
L 197.203417 264.835529 
L 196.228345 264.835529 
z
" style="fill:#1f77b4;"/>
   </g>
   <g id="patch_111">
    <path clip-path="url(#pf3b1cfded0)" d="M 197.447185 288.430125 
L 198.422256 288.430125 
L 198.422256 264.817647 
L 197.447185 264.817647 
z
" style="fill:#1f77b4;"/>
   </g>
   <g id="patch_112">
    <path clip-path="url(#pf3b1cfded0)" d="M 198.666024 288.430125 
L 199.641096 288.430125 
L 199.641096 264.808706 
L 198.666024 264.808706 
z
" style="fill:#1f77b4;"/>
   </g>
   <g id="patch_113">
    <path clip-path="url(#pf3b1cfded0)" d="M 199.884864 288.430125 
L 200.859936 288.430125 
L 200.859936 264.808706 
L 199.884864 264.808706 
z
" style="fill:#1f77b4;"/>
   </g>
   <g id="patch_114">
    <path clip-path="url(#pf3b1cfded0)" d="M 201.103703 288.430125 
L 202.078775 288.430125 
L 202.078775 264.772943 
L 201.103703 264.772943 
z
" style="fill:#1f77b4;"/>
   </g>
   <g id="patch_115">
    <path clip-path="url(#pf3b1cfded0)" d="M 202.322543 288.430125 
L 203.297615 288.430125 
L 203.297615 264.764003 
L 202.322543 264.764003 
z
" style="fill:#1f77b4;"/>
   </g>
   <g id="patch_116">
    <path clip-path="url(#pf3b1cfded0)" d="M 203.541383 288.430125 
L 204.516454 288.430125 
L 204.516454 264.764003 
L 203.541383 264.764003 
z
" style="fill:#1f77b4;"/>
   </g>
   <g id="patch_117">
    <path clip-path="url(#pf3b1cfded0)" d="M 204.760222 288.430125 
L 205.735294 288.430125 
L 205.735294 264.755062 
L 204.760222 264.755062 
z
" style="fill:#1f77b4;"/>
   </g>
   <g id="patch_118">
    <path clip-path="url(#pf3b1cfded0)" d="M 205.979062 288.430125 
L 206.954134 288.430125 
L 206.954134 264.737181 
L 205.979062 264.737181 
z
" style="fill:#1f77b4;"/>
   </g>
   <g id="patch_119">
    <path clip-path="url(#pf3b1cfded0)" d="M 207.197901 288.430125 
L 208.172973 288.430125 
L 208.172973 264.710358 
L 207.197901 264.710358 
z
" style="fill:#1f77b4;"/>
   </g>
   <g id="patch_120">
    <path clip-path="url(#pf3b1cfded0)" d="M 208.416741 288.430125 
L 209.391813 288.430125 
L 209.391813 264.665655 
L 208.416741 264.665655 
z
" style="fill:#1f77b4;"/>
   </g>
   <g id="patch_121">
    <path clip-path="url(#pf3b1cfded0)" d="M 209.635581 288.430125 
L 210.610652 288.430125 
L 210.610652 264.638832 
L 209.635581 264.638832 
z
" style="fill:#1f77b4;"/>
   </g>
   <g id="patch_122">
    <path clip-path="url(#pf3b1cfded0)" d="M 210.85442 288.430125 
L 211.829492 288.430125 
L 211.829492 264.594129 
L 210.85442 264.594129 
z
" style="fill:#1f77b4;"/>
   </g>
   <g id="patch_123">
    <path clip-path="url(#pf3b1cfded0)" d="M 212.07326 288.430125 
L 213.048331 288.430125 
L 213.048331 264.531544 
L 212.07326 264.531544 
z
" style="fill:#1f77b4;"/>
   </g>
   <g id="patch_124">
    <path clip-path="url(#pf3b1cfded0)" d="M 213.292099 288.430125 
L 214.267171 288.430125 
L 214.267171 264.522603 
L 213.292099 264.522603 
z
" style="fill:#1f77b4;"/>
   </g>
   <g id="patch_125">
    <path clip-path="url(#pf3b1cfded0)" d="M 214.510939 288.430125 
L 215.486011 288.430125 
L 215.486011 264.495781 
L 214.510939 264.495781 
z
" style="fill:#1f77b4;"/>
   </g>
   <g id="patch_126">
    <path clip-path="url(#pf3b1cfded0)" d="M 215.729779 288.430125 
L 216.70485 288.430125 
L 216.70485 264.48684 
L 215.729779 264.48684 
z
" style="fill:#1f77b4;"/>
   </g>
   <g id="patch_127">
    <path clip-path="url(#pf3b1cfded0)" d="M 216.948618 288.430125 
L 217.92369 288.430125 
L 217.92369 264.451077 
L 216.948618 264.451077 
z
" style="fill:#1f77b4;"/>
   </g>
   <g id="patch_128">
    <path clip-path="url(#pf3b1cfded0)" d="M 218.167458 288.430125 
L 219.142529 288.430125 
L 219.142529 264.442136 
L 218.167458 264.442136 
z
" style="fill:#1f77b4;"/>
   </g>
   <g id="patch_129">
    <path clip-path="url(#pf3b1cfded0)" d="M 219.386297 288.430125 
L 220.361369 288.430125 
L 220.361369 264.433196 
L 219.386297 264.433196 
z
" style="fill:#1f77b4;"/>
   </g>
   <g id="patch_130">
    <path clip-path="url(#pf3b1cfded0)" d="M 220.605137 288.430125 
L 221.580209 288.430125 
L 221.580209 264.433196 
L 220.605137 264.433196 
z
" style="fill:#1f77b4;"/>
   </g>
   <g id="patch_131">
    <path clip-path="url(#pf3b1cfded0)" d="M 221.823977 288.430125 
L 222.799048 288.430125 
L 222.799048 264.424255 
L 221.823977 264.424255 
z
" style="fill:#1f77b4;"/>
   </g>
   <g id="patch_132">
    <path clip-path="url(#pf3b1cfded0)" d="M 223.042816 288.430125 
L 224.017888 288.430125 
L 224.017888 264.424255 
L 223.042816 264.424255 
z
" style="fill:#1f77b4;"/>
   </g>
   <g id="patch_133">
    <path clip-path="url(#pf3b1cfded0)" d="M 224.261656 288.430125 
L 225.236727 288.430125 
L 225.236727 264.415314 
L 224.261656 264.415314 
z
" style="fill:#1f77b4;"/>
   </g>
   <g id="patch_134">
    <path clip-path="url(#pf3b1cfded0)" d="M 225.480495 288.430125 
L 226.455567 288.430125 
L 226.455567 264.406373 
L 225.480495 264.406373 
z
" style="fill:#1f77b4;"/>
   </g>
   <g id="patch_135">
    <path clip-path="url(#pf3b1cfded0)" d="M 226.699335 288.430125 
L 227.674407 288.430125 
L 227.674407 264.352729 
L 226.699335 264.352729 
z
" style="fill:#1f77b4;"/>
   </g>
   <g id="patch_136">
    <path clip-path="url(#pf3b1cfded0)" d="M 227.918174 288.430125 
L 228.893246 288.430125 
L 228.893246 264.308025 
L 227.918174 264.308025 
z
" style="fill:#1f77b4;"/>
   </g>
   <g id="patch_137">
    <path clip-path="url(#pf3b1cfded0)" d="M 229.137014 288.430125 
L 230.112086 288.430125 
L 230.112086 264.290144 
L 229.137014 264.290144 
z
" style="fill:#1f77b4;"/>
   </g>
   <g id="patch_138">
    <path clip-path="url(#pf3b1cfded0)" d="M 230.355854 288.430125 
L 231.330925 288.430125 
L 231.330925 264.36167 
L 230.355854 264.36167 
z
" style="fill:#1f77b4;"/>
   </g>
   <g id="patch_139">
    <path clip-path="url(#pf3b1cfded0)" d="M 231.574693 288.430125 
L 232.549765 288.430125 
L 232.549765 264.325907 
L 231.574693 264.325907 
z
" style="fill:#1f77b4;"/>
   </g>
   <g id="patch_140">
    <path clip-path="url(#pf3b1cfded0)" d="M 232.793533 288.430125 
L 233.768605 288.430125 
L 233.768605 264.272262 
L 232.793533 264.272262 
z
" style="fill:#1f77b4;"/>
   </g>
   <g id="patch_141">
    <path clip-path="url(#pf3b1cfded0)" d="M 234.012372 288.430125 
L 234.987444 288.430125 
L 234.987444 264.138151 
L 234.012372 264.138151 
z
" style="fill:#1f77b4;"/>
   </g>
   <g id="patch_142">
    <path clip-path="url(#pf3b1cfded0)" d="M 235.231212 288.430125 
L 236.206284 288.430125 
L 236.206284 264.066625 
L 235.231212 264.066625 
z
" style="fill:#1f77b4;"/>
   </g>
   <g id="patch_143">
    <path clip-path="url(#pf3b1cfded0)" d="M 236.450052 288.430125 
L 237.425123 288.430125 
L 237.425123 264.039803 
L 236.450052 264.039803 
z
" style="fill:#1f77b4;"/>
   </g>
   <g id="patch_144">
    <path clip-path="url(#pf3b1cfded0)" d="M 237.668891 288.430125 
L 238.643963 288.430125 
L 238.643963 263.986159 
L 237.668891 263.986159 
z
" style="fill:#1f77b4;"/>
   </g>
   <g id="patch_145">
    <path clip-path="url(#pf3b1cfded0)" d="M 238.887731 288.430125 
L 239.862802 288.430125 
L 239.862802 263.923574 
L 238.887731 263.923574 
z
" style="fill:#1f77b4;"/>
   </g>
   <g id="patch_146">
    <path clip-path="url(#pf3b1cfded0)" d="M 240.10657 288.430125 
L 241.081642 288.430125 
L 241.081642 263.887811 
L 240.10657 263.887811 
z
" style="fill:#1f77b4;"/>
   </g>
   <g id="patch_147">
    <path clip-path="url(#pf3b1cfded0)" d="M 241.32541 288.430125 
L 242.300482 288.430125 
L 242.300482 263.780522 
L 241.32541 263.780522 
z
" style="fill:#1f77b4;"/>
   </g>
   <g id="patch_148">
    <path clip-path="url(#pf3b1cfded0)" d="M 242.54425 288.430125 
L 243.519321 288.430125 
L 243.519321 263.744759 
L 242.54425 263.744759 
z
" style="fill:#1f77b4;"/>
   </g>
   <g id="patch_149">
    <path clip-path="url(#pf3b1cfded0)" d="M 243.763089 288.430125 
L 244.738161 288.430125 
L 244.738161 263.700055 
L 243.763089 263.700055 
z
" style="fill:#1f77b4;"/>
   </g>
   <g id="patch_150">
    <path clip-path="url(#pf3b1cfded0)" d="M 244.981929 288.430125 
L 245.957 288.430125 
L 245.957 263.63747 
L 244.981929 263.63747 
z
" style="fill:#1f77b4;"/>
   </g>
   <g id="patch_151">
    <path clip-path="url(#pf3b1cfded0)" d="M 246.200768 288.430125 
L 247.17584 288.430125 
L 247.17584 263.62853 
L 246.200768 263.62853 
z
" style="fill:#1f77b4;"/>
   </g>
   <g id="patch_152">
    <path clip-path="url(#pf3b1cfded0)" d="M 247.419608 288.430125 
L 248.39468 288.430125 
L 248.39468 263.619589 
L 247.419608 263.619589 
z
" style="fill:#1f77b4;"/>
   </g>
   <g id="patch_153">
    <path clip-path="url(#pf3b1cfded0)" d="M 248.638448 288.430125 
L 249.613519 288.430125 
L 249.613519 263.583826 
L 248.638448 263.583826 
z
" style="fill:#1f77b4;"/>
   </g>
   <g id="patch_154">
    <path clip-path="url(#pf3b1cfded0)" d="M 249.857287 288.430125 
L 250.832359 288.430125 
L 250.832359 263.565944 
L 249.857287 263.565944 
z
" style="fill:#1f77b4;"/>
   </g>
   <g id="patch_155">
    <path clip-path="url(#pf3b1cfded0)" d="M 251.076127 288.430125 
L 252.051198 288.430125 
L 252.051198 263.539122 
L 251.076127 263.539122 
z
" style="fill:#1f77b4;"/>
   </g>
   <g id="patch_156">
    <path clip-path="url(#pf3b1cfded0)" d="M 252.294966 288.430125 
L 253.270038 288.430125 
L 253.270038 263.458656 
L 252.294966 263.458656 
z
" style="fill:#1f77b4;"/>
   </g>
   <g id="patch_157">
    <path clip-path="url(#pf3b1cfded0)" d="M 253.513806 288.430125 
L 254.488878 288.430125 
L 254.488878 263.378189 
L 253.513806 263.378189 
z
" style="fill:#1f77b4;"/>
   </g>
   <g id="patch_158">
    <path clip-path="url(#pf3b1cfded0)" d="M 254.732645 288.430125 
L 255.707717 288.430125 
L 255.707717 263.360308 
L 254.732645 263.360308 
z
" style="fill:#1f77b4;"/>
   </g>
   <g id="patch_159">
    <path clip-path="url(#pf3b1cfded0)" d="M 255.951485 288.430125 
L 256.926557 288.430125 
L 256.926557 263.360308 
L 255.951485 263.360308 
z
" style="fill:#1f77b4;"/>
   </g>
   <g id="patch_160">
    <path clip-path="url(#pf3b1cfded0)" d="M 257.170325 288.430125 
L 258.145396 288.430125 
L 258.145396 263.297722 
L 257.170325 263.297722 
z
" style="fill:#1f77b4;"/>
   </g>
   <g id="patch_161">
    <path clip-path="url(#pf3b1cfded0)" d="M 258.389164 288.430125 
L 259.364236 288.430125 
L 259.364236 263.109967 
L 258.389164 263.109967 
z
" style="fill:#1f77b4;"/>
   </g>
   <g id="patch_162">
    <path clip-path="url(#pf3b1cfded0)" d="M 259.608004 288.430125 
L 260.583076 288.430125 
L 260.583076 263.065263 
L 259.608004 263.065263 
z
" style="fill:#1f77b4;"/>
   </g>
   <g id="patch_163">
    <path clip-path="url(#pf3b1cfded0)" d="M 260.826843 288.430125 
L 261.801915 288.430125 
L 261.801915 262.922212 
L 260.826843 262.922212 
z
" style="fill:#1f77b4;"/>
   </g>
   <g id="patch_164">
    <path clip-path="url(#pf3b1cfded0)" d="M 262.045683 288.430125 
L 263.020755 288.430125 
L 263.020755 262.77916 
L 262.045683 262.77916 
z
" style="fill:#1f77b4;"/>
   </g>
   <g id="patch_165">
    <path clip-path="url(#pf3b1cfded0)" d="M 263.264523 288.430125 
L 264.239594 288.430125 
L 264.239594 262.645049 
L 263.264523 262.645049 
z
" style="fill:#1f77b4;"/>
   </g>
   <g id="patch_166">
    <path clip-path="url(#pf3b1cfded0)" d="M 264.483362 288.430125 
L 265.458434 288.430125 
L 265.458434 262.564582 
L 264.483362 262.564582 
z
" style="fill:#1f77b4;"/>
   </g>
   <g id="patch_167">
    <path clip-path="url(#pf3b1cfded0)" d="M 265.702202 288.430125 
L 266.677273 288.430125 
L 266.677273 262.519879 
L 265.702202 262.519879 
z
" style="fill:#1f77b4;"/>
   </g>
   <g id="patch_168">
    <path clip-path="url(#pf3b1cfded0)" d="M 266.921041 288.430125 
L 267.896113 288.430125 
L 267.896113 262.439412 
L 266.921041 262.439412 
z
" style="fill:#1f77b4;"/>
   </g>
   <g id="patch_169">
    <path clip-path="url(#pf3b1cfded0)" d="M 268.139881 288.430125 
L 269.114953 288.430125 
L 269.114953 262.367886 
L 268.139881 262.367886 
z
" style="fill:#1f77b4;"/>
   </g>
   <g id="patch_170">
    <path clip-path="url(#pf3b1cfded0)" d="M 269.358721 288.430125 
L 270.333792 288.430125 
L 270.333792 262.287419 
L 269.358721 262.287419 
z
" style="fill:#1f77b4;"/>
   </g>
   <g id="patch_171">
    <path clip-path="url(#pf3b1cfded0)" d="M 270.57756 288.430125 
L 271.552632 288.430125 
L 271.552632 262.215894 
L 270.57756 262.215894 
z
" style="fill:#1f77b4;"/>
   </g>
   <g id="patch_172">
    <path clip-path="url(#pf3b1cfded0)" d="M 271.7964 288.430125 
L 272.771471 288.430125 
L 272.771471 262.189071 
L 271.7964 262.189071 
z
" style="fill:#1f77b4;"/>
   </g>
   <g id="patch_173">
    <path clip-path="url(#pf3b1cfded0)" d="M 273.015239 288.430125 
L 273.990311 288.430125 
L 273.990311 262.072842 
L 273.015239 262.072842 
z
" style="fill:#1f77b4;"/>
   </g>
   <g id="patch_174">
    <path clip-path="url(#pf3b1cfded0)" d="M 274.234079 288.430125 
L 275.209151 288.430125 
L 275.209151 261.983435 
L 274.234079 261.983435 
z
" style="fill:#1f77b4;"/>
   </g>
   <g id="patch_175">
    <path clip-path="url(#pf3b1cfded0)" d="M 275.452919 288.430125 
L 276.42799 288.430125 
L 276.42799 261.947672 
L 275.452919 261.947672 
z
" style="fill:#1f77b4;"/>
   </g>
   <g id="patch_176">
    <path clip-path="url(#pf3b1cfded0)" d="M 276.671758 288.430125 
L 277.64683 288.430125 
L 277.64683 261.849323 
L 276.671758 261.849323 
z
" style="fill:#1f77b4;"/>
   </g>
   <g id="patch_177">
    <path clip-path="url(#pf3b1cfded0)" d="M 277.890598 288.430125 
L 278.865669 288.430125 
L 278.865669 261.643687 
L 277.890598 261.643687 
z
" style="fill:#1f77b4;"/>
   </g>
   <g id="patch_178">
    <path clip-path="url(#pf3b1cfded0)" d="M 279.109437 288.430125 
L 280.084509 288.430125 
L 280.084509 261.581101 
L 279.109437 261.581101 
z
" style="fill:#1f77b4;"/>
   </g>
   <g id="patch_179">
    <path clip-path="url(#pf3b1cfded0)" d="M 280.328277 288.430125 
L 281.303349 288.430125 
L 281.303349 261.581101 
L 280.328277 261.581101 
z
" style="fill:#1f77b4;"/>
   </g>
   <g id="patch_180">
    <path clip-path="url(#pf3b1cfded0)" d="M 281.547116 288.430125 
L 282.522188 288.430125 
L 282.522188 261.545339 
L 281.547116 261.545339 
z
" style="fill:#1f77b4;"/>
   </g>
   <g id="patch_181">
    <path clip-path="url(#pf3b1cfded0)" d="M 282.765956 288.430125 
L 283.741028 288.430125 
L 283.741028 261.455931 
L 282.765956 261.455931 
z
" style="fill:#1f77b4;"/>
   </g>
   <g id="patch_182">
    <path clip-path="url(#pf3b1cfded0)" d="M 283.984796 288.430125 
L 284.959867 288.430125 
L 284.959867 261.277117 
L 283.984796 261.277117 
z
" style="fill:#1f77b4;"/>
   </g>
   <g id="patch_183">
    <path clip-path="url(#pf3b1cfded0)" d="M 285.203635 288.430125 
L 286.178707 288.430125 
L 286.178707 261.044657 
L 285.203635 261.044657 
z
" style="fill:#1f77b4;"/>
   </g>
   <g id="patch_184">
    <path clip-path="url(#pf3b1cfded0)" d="M 286.422475 288.430125 
L 287.397547 288.430125 
L 287.397547 260.821139 
L 286.422475 260.821139 
z
" style="fill:#1f77b4;"/>
   </g>
   <g id="patch_185">
    <path clip-path="url(#pf3b1cfded0)" d="M 287.641314 288.430125 
L 288.616386 288.430125 
L 288.616386 260.46351 
L 287.641314 260.46351 
z
" style="fill:#1f77b4;"/>
   </g>
   <g id="patch_186">
    <path clip-path="url(#pf3b1cfded0)" d="M 288.860154 288.430125 
L 289.835226 288.430125 
L 289.835226 260.400925 
L 288.860154 260.400925 
z
" style="fill:#1f77b4;"/>
   </g>
   <g id="patch_187">
    <path clip-path="url(#pf3b1cfded0)" d="M 290.078994 288.430125 
L 291.054065 288.430125 
L 291.054065 260.213169 
L 290.078994 260.213169 
z
" style="fill:#1f77b4;"/>
   </g>
   <g id="patch_188">
    <path clip-path="url(#pf3b1cfded0)" d="M 291.297833 288.430125 
L 292.272905 288.430125 
L 292.272905 260.10588 
L 291.297833 260.10588 
z
" style="fill:#1f77b4;"/>
   </g>
   <g id="patch_189">
    <path clip-path="url(#pf3b1cfded0)" d="M 292.516673 288.430125 
L 293.491744 288.430125 
L 293.491744 259.971769 
L 292.516673 259.971769 
z
" style="fill:#1f77b4;"/>
   </g>
   <g id="patch_190">
    <path clip-path="url(#pf3b1cfded0)" d="M 293.735512 288.430125 
L 294.710584 288.430125 
L 294.710584 259.328037 
L 293.735512 259.328037 
z
" style="fill:#1f77b4;"/>
   </g>
   <g id="patch_191">
    <path clip-path="url(#pf3b1cfded0)" d="M 294.954352 288.430125 
L 295.929424 288.430125 
L 295.929424 259.095577 
L 294.954352 259.095577 
z
" style="fill:#1f77b4;"/>
   </g>
   <g id="patch_192">
    <path clip-path="url(#pf3b1cfded0)" d="M 296.173192 288.430125 
L 297.148263 288.430125 
L 297.148263 258.916763 
L 296.173192 258.916763 
z
" style="fill:#1f77b4;"/>
   </g>
   <g id="patch_193">
    <path clip-path="url(#pf3b1cfded0)" d="M 297.392031 288.430125 
L 298.367103 288.430125 
L 298.367103 258.737948 
L 297.392031 258.737948 
z
" style="fill:#1f77b4;"/>
   </g>
   <g id="patch_194">
    <path clip-path="url(#pf3b1cfded0)" d="M 298.610871 288.430125 
L 299.585942 288.430125 
L 299.585942 258.666422 
L 298.610871 258.666422 
z
" style="fill:#1f77b4;"/>
   </g>
   <g id="patch_195">
    <path clip-path="url(#pf3b1cfded0)" d="M 299.82971 288.430125 
L 300.804782 288.430125 
L 300.804782 258.3982 
L 299.82971 258.3982 
z
" style="fill:#1f77b4;"/>
   </g>
   <g id="patch_196">
    <path clip-path="url(#pf3b1cfded0)" d="M 301.04855 288.430125 
L 302.023622 288.430125 
L 302.023622 258.1568 
L 301.04855 258.1568 
z
" style="fill:#1f77b4;"/>
   </g>
   <g id="patch_197">
    <path clip-path="url(#pf3b1cfded0)" d="M 302.26739 288.430125 
L 303.242461 288.430125 
L 303.242461 257.691882 
L 302.26739 257.691882 
z
" style="fill:#1f77b4;"/>
   </g>
   <g id="patch_198">
    <path clip-path="url(#pf3b1cfded0)" d="M 303.486229 288.430125 
L 304.461301 288.430125 
L 304.461301 257.432601 
L 303.486229 257.432601 
z
" style="fill:#1f77b4;"/>
   </g>
   <g id="patch_199">
    <path clip-path="url(#pf3b1cfded0)" d="M 304.705069 288.430125 
L 305.68014 288.430125 
L 305.68014 257.235905 
L 304.705069 257.235905 
z
" style="fill:#1f77b4;"/>
   </g>
   <g id="patch_200">
    <path clip-path="url(#pf3b1cfded0)" d="M 305.923908 288.430125 
L 306.89898 288.430125 
L 306.89898 257.012387 
L 305.923908 257.012387 
z
" style="fill:#1f77b4;"/>
   </g>
   <g id="patch_201">
    <path clip-path="url(#pf3b1cfded0)" d="M 307.142748 288.430125 
L 308.11782 288.430125 
L 308.11782 256.940861 
L 307.142748 256.940861 
z
" style="fill:#1f77b4;"/>
   </g>
   <g id="patch_202">
    <path clip-path="url(#pf3b1cfded0)" d="M 308.361587 288.430125 
L 309.336659 288.430125 
L 309.336659 256.788868 
L 308.361587 256.788868 
z
" style="fill:#1f77b4;"/>
   </g>
   <g id="patch_203">
    <path clip-path="url(#pf3b1cfded0)" d="M 309.580427 288.430125 
L 310.555499 288.430125 
L 310.555499 256.529587 
L 309.580427 256.529587 
z
" style="fill:#1f77b4;"/>
   </g>
   <g id="patch_204">
    <path clip-path="url(#pf3b1cfded0)" d="M 310.799267 288.430125 
L 311.774338 288.430125 
L 311.774338 256.359713 
L 310.799267 256.359713 
z
" style="fill:#1f77b4;"/>
   </g>
   <g id="patch_205">
    <path clip-path="url(#pf3b1cfded0)" d="M 312.018106 288.430125 
L 312.993178 288.430125 
L 312.993178 256.127254 
L 312.018106 256.127254 
z
" style="fill:#1f77b4;"/>
   </g>
   <g id="patch_206">
    <path clip-path="url(#pf3b1cfded0)" d="M 313.236946 288.430125 
L 314.212017 288.430125 
L 314.212017 255.84115 
L 313.236946 255.84115 
z
" style="fill:#1f77b4;"/>
   </g>
   <g id="patch_207">
    <path clip-path="url(#pf3b1cfded0)" d="M 314.455785 288.430125 
L 315.430857 288.430125 
L 315.430857 255.689158 
L 314.455785 255.689158 
z
" style="fill:#1f77b4;"/>
   </g>
   <g id="patch_208">
    <path clip-path="url(#pf3b1cfded0)" d="M 315.674625 288.430125 
L 316.649697 288.430125 
L 316.649697 255.537165 
L 315.674625 255.537165 
z
" style="fill:#1f77b4;"/>
   </g>
   <g id="patch_209">
    <path clip-path="url(#pf3b1cfded0)" d="M 316.893465 288.430125 
L 317.868536 288.430125 
L 317.868536 255.045425 
L 316.893465 255.045425 
z
" style="fill:#1f77b4;"/>
   </g>
   <g id="patch_210">
    <path clip-path="url(#pf3b1cfded0)" d="M 318.112304 288.430125 
L 319.087376 288.430125 
L 319.087376 254.428514 
L 318.112304 254.428514 
z
" style="fill:#1f77b4;"/>
   </g>
   <g id="patch_211">
    <path clip-path="url(#pf3b1cfded0)" d="M 319.331144 288.430125 
L 320.306215 288.430125 
L 320.306215 253.668552 
L 319.331144 253.668552 
z
" style="fill:#1f77b4;"/>
   </g>
   <g id="patch_212">
    <path clip-path="url(#pf3b1cfded0)" d="M 320.549983 288.430125 
L 321.525055 288.430125 
L 321.525055 252.846005 
L 320.549983 252.846005 
z
" style="fill:#1f77b4;"/>
   </g>
   <g id="patch_213">
    <path clip-path="url(#pf3b1cfded0)" d="M 321.768823 288.430125 
L 322.743895 288.430125 
L 322.743895 252.094983 
L 321.768823 252.094983 
z
" style="fill:#1f77b4;"/>
   </g>
   <g id="patch_214">
    <path clip-path="url(#pf3b1cfded0)" d="M 322.987663 288.430125 
L 323.962734 288.430125 
L 323.962734 251.69265 
L 322.987663 251.69265 
z
" style="fill:#1f77b4;"/>
   </g>
   <g id="patch_215">
    <path clip-path="url(#pf3b1cfded0)" d="M 324.206502 288.430125 
L 325.181574 288.430125 
L 325.181574 251.388665 
L 324.206502 251.388665 
z
" style="fill:#1f77b4;"/>
   </g>
   <g id="patch_216">
    <path clip-path="url(#pf3b1cfded0)" d="M 325.425342 288.430125 
L 326.400413 288.430125 
L 326.400413 250.280014 
L 325.425342 250.280014 
z
" style="fill:#1f77b4;"/>
   </g>
   <g id="patch_217">
    <path clip-path="url(#pf3b1cfded0)" d="M 326.644181 288.430125 
L 327.619253 288.430125 
L 327.619253 249.403822 
L 326.644181 249.403822 
z
" style="fill:#1f77b4;"/>
   </g>
   <g id="patch_218">
    <path clip-path="url(#pf3b1cfded0)" d="M 327.863021 288.430125 
L 328.838093 288.430125 
L 328.838093 248.259408 
L 327.863021 248.259408 
z
" style="fill:#1f77b4;"/>
   </g>
   <g id="patch_219">
    <path clip-path="url(#pf3b1cfded0)" d="M 329.08186 288.430125 
L 330.056932 288.430125 
L 330.056932 246.873594 
L 329.08186 246.873594 
z
" style="fill:#1f77b4;"/>
   </g>
   <g id="patch_220">
    <path clip-path="url(#pf3b1cfded0)" d="M 330.3007 288.430125 
L 331.275772 288.430125 
L 331.275772 245.344729 
L 330.3007 245.344729 
z
" style="fill:#1f77b4;"/>
   </g>
   <g id="patch_221">
    <path clip-path="url(#pf3b1cfded0)" d="M 331.51954 288.430125 
L 332.494611 288.430125 
L 332.494611 244.584767 
L 331.51954 244.584767 
z
" style="fill:#1f77b4;"/>
   </g>
   <g id="patch_222">
    <path clip-path="url(#pf3b1cfded0)" d="M 332.738379 288.430125 
L 333.713451 288.430125 
L 333.713451 242.716153 
L 332.738379 242.716153 
z
" style="fill:#1f77b4;"/>
   </g>
   <g id="patch_223">
    <path clip-path="url(#pf3b1cfded0)" d="M 333.957219 288.430125 
L 334.932291 288.430125 
L 334.932291 241.026355 
L 333.957219 241.026355 
z
" style="fill:#1f77b4;"/>
   </g>
   <g id="patch_224">
    <path clip-path="url(#pf3b1cfded0)" d="M 335.176058 288.430125 
L 336.15113 288.430125 
L 336.15113 238.817993 
L 335.176058 238.817993 
z
" style="fill:#1f77b4;"/>
   </g>
   <g id="patch_225">
    <path clip-path="url(#pf3b1cfded0)" d="M 336.394898 288.430125 
L 337.36997 288.430125 
L 337.36997 236.412936 
L 336.394898 236.412936 
z
" style="fill:#1f77b4;"/>
   </g>
   <g id="patch_226">
    <path clip-path="url(#pf3b1cfded0)" d="M 337.613738 288.430125 
L 338.588809 288.430125 
L 338.588809 233.936353 
L 337.613738 233.936353 
z
" style="fill:#1f77b4;"/>
   </g>
   <g id="patch_227">
    <path clip-path="url(#pf3b1cfded0)" d="M 338.832577 288.430125 
L 339.807649 288.430125 
L 339.807649 230.905444 
L 338.832577 230.905444 
z
" style="fill:#1f77b4;"/>
   </g>
   <g id="patch_228">
    <path clip-path="url(#pf3b1cfded0)" d="M 340.051417 288.430125 
L 341.026488 288.430125 
L 341.026488 228.035468 
L 340.051417 228.035468 
z
" style="fill:#1f77b4;"/>
   </g>
   <g id="patch_229">
    <path clip-path="url(#pf3b1cfded0)" d="M 341.270256 288.430125 
L 342.245328 288.430125 
L 342.245328 225.871811 
L 341.270256 225.871811 
z
" style="fill:#1f77b4;"/>
   </g>
   <g id="patch_230">
    <path clip-path="url(#pf3b1cfded0)" d="M 342.489096 288.430125 
L 343.464168 288.430125 
L 343.464168 224.173071 
L 342.489096 224.173071 
z
" style="fill:#1f77b4;"/>
   </g>
   <g id="patch_231">
    <path clip-path="url(#pf3b1cfded0)" d="M 343.707936 288.430125 
L 344.683007 288.430125 
L 344.683007 221.508733 
L 343.707936 221.508733 
z
" style="fill:#1f77b4;"/>
   </g>
   <g id="patch_232">
    <path clip-path="url(#pf3b1cfded0)" d="M 344.926775 288.430125 
L 345.901847 288.430125 
L 345.901847 218.379476 
L 344.926775 218.379476 
z
" style="fill:#1f77b4;"/>
   </g>
   <g id="patch_233">
    <path clip-path="url(#pf3b1cfded0)" d="M 346.145615 288.430125 
L 347.120686 288.430125 
L 347.120686 213.488895 
L 346.145615 213.488895 
z
" style="fill:#1f77b4;"/>
   </g>
   <g id="patch_234">
    <path clip-path="url(#pf3b1cfded0)" d="M 347.364454 288.430125 
L 348.339526 288.430125 
L 348.339526 208.714543 
L 347.364454 208.714543 
z
" style="fill:#1f77b4;"/>
   </g>
   <g id="patch_235">
    <path clip-path="url(#pf3b1cfded0)" d="M 348.583294 288.430125 
L 349.558366 288.430125 
L 349.558366 204.807442 
L 348.583294 204.807442 
z
" style="fill:#1f77b4;"/>
   </g>
   <g id="patch_236">
    <path clip-path="url(#pf3b1cfded0)" d="M 349.802134 288.430125 
L 350.777205 288.430125 
L 350.777205 200.381779 
L 349.802134 200.381779 
z
" style="fill:#1f77b4;"/>
   </g>
   <g id="patch_237">
    <path clip-path="url(#pf3b1cfded0)" d="M 351.020973 288.430125 
L 351.996045 288.430125 
L 351.996045 198.155536 
L 351.020973 198.155536 
z
" style="fill:#1f77b4;"/>
   </g>
   <g id="patch_238">
    <path clip-path="url(#pf3b1cfded0)" d="M 352.239813 288.430125 
L 353.214884 288.430125 
L 353.214884 191.342697 
L 352.239813 191.342697 
z
" style="fill:#1f77b4;"/>
   </g>
   <g id="patch_239">
    <path clip-path="url(#pf3b1cfded0)" d="M 353.458652 288.430125 
L 354.433724 288.430125 
L 354.433724 184.976895 
L 353.458652 184.976895 
z
" style="fill:#1f77b4;"/>
   </g>
   <g id="patch_240">
    <path clip-path="url(#pf3b1cfded0)" d="M 354.677492 288.430125 
L 355.652564 288.430125 
L 355.652564 178.056767 
L 354.677492 178.056767 
z
" style="fill:#1f77b4;"/>
   </g>
   <g id="patch_241">
    <path clip-path="url(#pf3b1cfded0)" d="M 355.896331 288.430125 
L 356.871403 288.430125 
L 356.871403 171.074054 
L 355.896331 171.074054 
z
" style="fill:#1f77b4;"/>
   </g>
   <g id="patch_242">
    <path clip-path="url(#pf3b1cfded0)" d="M 357.115171 288.430125 
L 358.090243 288.430125 
L 358.090243 165.861606 
L 357.115171 165.861606 
z
" style="fill:#1f77b4;"/>
   </g>
   <g id="patch_243">
    <path clip-path="url(#pf3b1cfded0)" d="M 358.334011 288.430125 
L 359.309082 288.430125 
L 359.309082 162.508831 
L 358.334011 162.508831 
z
" style="fill:#1f77b4;"/>
   </g>
   <g id="patch_244">
    <path clip-path="url(#pf3b1cfded0)" d="M 359.55285 288.430125 
L 360.527922 288.430125 
L 360.527922 159.057707 
L 359.55285 159.057707 
z
" style="fill:#1f77b4;"/>
   </g>
   <g id="patch_245">
    <path clip-path="url(#pf3b1cfded0)" d="M 360.77169 288.430125 
L 361.746762 288.430125 
L 361.746762 152.852838 
L 360.77169 152.852838 
z
" style="fill:#1f77b4;"/>
   </g>
   <g id="patch_246">
    <path clip-path="url(#pf3b1cfded0)" d="M 361.990529 288.430125 
L 362.965601 288.430125 
L 362.965601 145.521436 
L 361.990529 145.521436 
z
" style="fill:#1f77b4;"/>
   </g>
   <g id="patch_247">
    <path clip-path="url(#pf3b1cfded0)" d="M 363.209369 288.430125 
L 364.184441 288.430125 
L 364.184441 139.35233 
L 363.209369 139.35233 
z
" style="fill:#1f77b4;"/>
   </g>
   <g id="patch_248">
    <path clip-path="url(#pf3b1cfded0)" d="M 364.428209 288.430125 
L 365.40328 288.430125 
L 365.40328 133.737549 
L 364.428209 133.737549 
z
" style="fill:#1f77b4;"/>
   </g>
   <g id="patch_249">
    <path clip-path="url(#pf3b1cfded0)" d="M 365.647048 288.430125 
L 366.62212 288.430125 
L 366.62212 128.87379 
L 365.647048 128.87379 
z
" style="fill:#1f77b4;"/>
   </g>
   <g id="patch_250">
    <path clip-path="url(#pf3b1cfded0)" d="M 366.865888 288.430125 
L 367.840959 288.430125 
L 367.840959 126.567081 
L 366.865888 126.567081 
z
" style="fill:#1f77b4;"/>
   </g>
   <g id="patch_251">
    <path clip-path="url(#pf3b1cfded0)" d="M 368.084727 288.430125 
L 369.059799 288.430125 
L 369.059799 121.372514 
L 368.084727 121.372514 
z
" style="fill:#1f77b4;"/>
   </g>
   <g id="patch_252">
    <path clip-path="url(#pf3b1cfded0)" d="M 369.303567 288.430125 
L 370.278639 288.430125 
L 370.278639 115.149764 
L 369.303567 115.149764 
z
" style="fill:#1f77b4;"/>
   </g>
   <g id="patch_253">
    <path clip-path="url(#pf3b1cfded0)" d="M 370.522407 288.430125 
L 371.497478 288.430125 
L 371.497478 108.569384 
L 370.522407 108.569384 
z
" style="fill:#1f77b4;"/>
   </g>
   <g id="patch_254">
    <path clip-path="url(#pf3b1cfded0)" d="M 371.741246 288.430125 
L 372.716318 288.430125 
L 372.716318 103.669862 
L 371.741246 103.669862 
z
" style="fill:#1f77b4;"/>
   </g>
   <g id="patch_255">
    <path clip-path="url(#pf3b1cfded0)" d="M 372.960086 288.430125 
L 373.935157 288.430125 
L 373.935157 98.886569 
L 372.960086 98.886569 
z
" style="fill:#1f77b4;"/>
   </g>
   <g id="patch_256">
    <path clip-path="url(#pf3b1cfded0)" d="M 374.178925 288.430125 
L 375.153997 288.430125 
L 375.153997 96.561978 
L 374.178925 96.561978 
z
" style="fill:#1f77b4;"/>
   </g>
   <g id="patch_257">
    <path clip-path="url(#pf3b1cfded0)" d="M 375.397765 288.430125 
L 376.372837 288.430125 
L 376.372837 95.131461 
L 375.397765 95.131461 
z
" style="fill:#1f77b4;"/>
   </g>
   <g id="patch_258">
    <path clip-path="url(#pf3b1cfded0)" d="M 376.616605 288.430125 
L 377.591676 288.430125 
L 377.591676 92.082671 
L 376.616605 92.082671 
z
" style="fill:#1f77b4;"/>
   </g>
   <g id="patch_259">
    <path clip-path="url(#pf3b1cfded0)" d="M 377.835444 288.430125 
L 378.810516 288.430125 
L 378.810516 89.471976 
L 377.835444 89.471976 
z
" style="fill:#1f77b4;"/>
   </g>
   <g id="patch_260">
    <path clip-path="url(#pf3b1cfded0)" d="M 379.054284 288.430125 
L 380.029355 288.430125 
L 380.029355 85.806276 
L 379.054284 85.806276 
z
" style="fill:#1f77b4;"/>
   </g>
   <g id="patch_261">
    <path clip-path="url(#pf3b1cfded0)" d="M 380.273123 288.430125 
L 381.248195 288.430125 
L 381.248195 81.389553 
L 380.273123 81.389553 
z
" style="fill:#1f77b4;"/>
   </g>
   <g id="patch_262">
    <path clip-path="url(#pf3b1cfded0)" d="M 381.491963 288.430125 
L 382.467035 288.430125 
L 382.467035 77.482452 
L 381.491963 77.482452 
z
" style="fill:#1f77b4;"/>
   </g>
   <g id="patch_263">
    <path clip-path="url(#pf3b1cfded0)" d="M 382.710802 288.430125 
L 383.685874 288.430125 
L 383.685874 75.846298 
L 382.710802 75.846298 
z
" style="fill:#1f77b4;"/>
   </g>
   <g id="patch_264">
    <path clip-path="url(#pf3b1cfded0)" d="M 383.929642 288.430125 
L 384.904714 288.430125 
L 384.904714 75.005869 
L 383.929642 75.005869 
z
" style="fill:#1f77b4;"/>
   </g>
   <g id="patch_265">
    <path clip-path="url(#pf3b1cfded0)" d="M 385.148482 288.430125 
L 386.123553 288.430125 
L 386.123553 72.171657 
L 385.148482 72.171657 
z
" style="fill:#1f77b4;"/>
   </g>
   <g id="patch_266">
    <path clip-path="url(#pf3b1cfded0)" d="M 386.367321 288.430125 
L 387.342393 288.430125 
L 387.342393 68.827822 
L 386.367321 68.827822 
z
" style="fill:#1f77b4;"/>
   </g>
   <g id="patch_267">
    <path clip-path="url(#pf3b1cfded0)" d="M 387.586161 288.430125 
L 388.561233 288.430125 
L 388.561233 66.279713 
L 387.586161 66.279713 
z
" style="fill:#1f77b4;"/>
   </g>
   <g id="patch_268">
    <path clip-path="url(#pf3b1cfded0)" d="M 388.805 288.430125 
L 389.780072 288.430125 
L 389.780072 63.901478 
L 388.805 63.901478 
z
" style="fill:#1f77b4;"/>
   </g>
   <g id="patch_269">
    <path clip-path="url(#pf3b1cfded0)" d="M 390.02384 288.430125 
L 390.998912 288.430125 
L 390.998912 61.684176 
L 390.02384 61.684176 
z
" style="fill:#1f77b4;"/>
   </g>
   <g id="patch_270">
    <path clip-path="url(#pf3b1cfded0)" d="M 391.24268 288.430125 
L 392.217751 288.430125 
L 392.217751 60.655991 
L 391.24268 60.655991 
z
" style="fill:#1f77b4;"/>
   </g>
   <g id="patch_271">
    <path clip-path="url(#pf3b1cfded0)" d="M 392.461519 288.430125 
L 393.436591 288.430125 
L 393.436591 59.949673 
L 392.461519 59.949673 
z
" style="fill:#1f77b4;"/>
   </g>
   <g id="patch_272">
    <path clip-path="url(#pf3b1cfded0)" d="M 393.680359 288.430125 
L 394.65543 288.430125 
L 394.65543 57.875423 
L 393.680359 57.875423 
z
" style="fill:#1f77b4;"/>
   </g>
   <g id="patch_273">
    <path clip-path="url(#pf3b1cfded0)" d="M 394.899198 288.430125 
L 395.87427 288.430125 
L 395.87427 55.693884 
L 394.899198 55.693884 
z
" style="fill:#1f77b4;"/>
   </g>
   <g id="patch_274">
    <path clip-path="url(#pf3b1cfded0)" d="M 396.118038 288.430125 
L 397.09311 288.430125 
L 397.09311 53.440819 
L 396.118038 53.440819 
z
" style="fill:#1f77b4;"/>
   </g>
   <g id="patch_275">
    <path clip-path="url(#pf3b1cfded0)" d="M 397.336878 288.430125 
L 398.311949 288.430125 
L 398.311949 51.205636 
L 397.336878 51.205636 
z
" style="fill:#1f77b4;"/>
   </g>
   <g id="patch_276">
    <path clip-path="url(#pf3b1cfded0)" d="M 398.555717 288.430125 
L 399.530789 288.430125 
L 399.530789 48.961512 
L 398.555717 48.961512 
z
" style="fill:#1f77b4;"/>
   </g>
   <g id="patch_277">
    <path clip-path="url(#pf3b1cfded0)" d="M 399.774557 288.430125 
L 400.749628 288.430125 
L 400.749628 48.362482 
L 399.774557 48.362482 
z
" style="fill:#1f77b4;"/>
   </g>
   <g id="patch_278">
    <path clip-path="url(#pf3b1cfded0)" d="M 400.993396 288.430125 
L 401.968468 288.430125 
L 401.968468 47.566757 
L 400.993396 47.566757 
z
" style="fill:#1f77b4;"/>
   </g>
   <g id="patch_279">
    <path clip-path="url(#pf3b1cfded0)" d="M 402.212236 288.430125 
L 403.187308 288.430125 
L 403.187308 45.018648 
L 402.212236 45.018648 
z
" style="fill:#1f77b4;"/>
   </g>
   <g id="patch_280">
    <path clip-path="url(#pf3b1cfded0)" d="M 403.431076 288.430125 
L 404.406147 288.430125 
L 404.406147 42.452657 
L 403.431076 42.452657 
z
" style="fill:#1f77b4;"/>
   </g>
   <g id="patch_281">
    <path clip-path="url(#pf3b1cfded0)" d="M 404.649915 288.430125 
L 405.624987 288.430125 
L 405.624987 40.941673 
L 404.649915 40.941673 
z
" style="fill:#1f77b4;"/>
   </g>
   <g id="patch_282">
    <path clip-path="url(#pf3b1cfded0)" d="M 405.868755 288.430125 
L 406.843826 288.430125 
L 406.843826 39.19823 
L 405.868755 39.19823 
z
" style="fill:#1f77b4;"/>
   </g>
   <g id="patch_283">
    <path clip-path="url(#pf3b1cfded0)" d="M 407.087594 288.430125 
L 408.062666 288.430125 
L 408.062666 36.99881 
L 407.087594 36.99881 
z
" style="fill:#1f77b4;"/>
   </g>
   <g id="patch_284">
    <path clip-path="url(#pf3b1cfded0)" d="M 408.306434 288.430125 
L 409.281506 288.430125 
L 409.281506 36.614358 
L 408.306434 36.614358 
z
" style="fill:#1f77b4;"/>
   </g>
   <g id="patch_285">
    <path clip-path="url(#pf3b1cfded0)" d="M 409.525273 288.430125 
L 410.500345 288.430125 
L 410.500345 35.702403 
L 409.525273 35.702403 
z
" style="fill:#1f77b4;"/>
   </g>
   <g id="patch_286">
    <path clip-path="url(#pf3b1cfded0)" d="M 410.744113 288.430125 
L 411.719185 288.430125 
L 411.719185 34.531167 
L 410.744113 34.531167 
z
" style="fill:#1f77b4;"/>
   </g>
   <g id="patch_287">
    <path clip-path="url(#pf3b1cfded0)" d="M 411.962953 288.430125 
L 412.938024 288.430125 
L 412.938024 33.261583 
L 411.962953 33.261583 
z
" style="fill:#1f77b4;"/>
   </g>
   <g id="patch_288">
    <path clip-path="url(#pf3b1cfded0)" d="M 413.181792 288.430125 
L 414.156864 288.430125 
L 414.156864 31.63437 
L 413.181792 31.63437 
z
" style="fill:#1f77b4;"/>
   </g>
   <g id="patch_289">
    <path clip-path="url(#pf3b1cfded0)" d="M 414.400632 288.430125 
L 415.375703 288.430125 
L 415.375703 31.419792 
L 414.400632 31.419792 
z
" style="fill:#1f77b4;"/>
   </g>
   <g id="patch_290">
    <path clip-path="url(#pf3b1cfded0)" d="M 415.619471 288.430125 
L 416.594543 288.430125 
L 416.594543 30.91017 
L 415.619471 30.91017 
z
" style="fill:#1f77b4;"/>
   </g>
   <g id="patch_291">
    <path clip-path="url(#pf3b1cfded0)" d="M 416.838311 288.430125 
L 417.813383 288.430125 
L 417.813383 29.837282 
L 416.838311 29.837282 
z
" style="fill:#1f77b4;"/>
   </g>
   <g id="patch_292">
    <path clip-path="url(#pf3b1cfded0)" d="M 418.057151 288.430125 
L 419.032222 288.430125 
L 419.032222 29.023675 
L 418.057151 29.023675 
z
" style="fill:#1f77b4;"/>
   </g>
   <g id="patch_293">
    <path clip-path="url(#pf3b1cfded0)" d="M 419.27599 288.430125 
L 420.251062 288.430125 
L 420.251062 27.056714 
L 419.27599 27.056714 
z
" style="fill:#1f77b4;"/>
   </g>
   <g id="patch_294">
    <path clip-path="url(#pf3b1cfded0)" d="M 420.49483 288.430125 
L 421.469901 288.430125 
L 421.469901 24.732123 
L 420.49483 24.732123 
z
" style="fill:#1f77b4;"/>
   </g>
   <g id="patch_295">
    <path clip-path="url(#pf3b1cfded0)" d="M 421.713669 288.430125 
L 422.688741 288.430125 
L 422.688741 22.318125 
L 421.713669 22.318125 
z
" style="fill:#1f77b4;"/>
   </g>
   <g id="matplotlib.axis_1">
    <g id="xtick_1">
     <g id="line2d_1">
      <defs>
       <path d="M 0 0 
L 0 3.5 
" id="m94ea679370" style="stroke:#000000;stroke-width:0.8;"/>
      </defs>
      <g>
       <use style="stroke:#000000;stroke-width:0.8;" x="87.020318" xlink:href="#m94ea679370" y="288.430125"/>
      </g>
     </g>
     <g id="text_1">
      <!-- 2020-04 -->
      <g transform="translate(89.779693 337.212937)rotate(-90)scale(0.1 -0.1)">
       <defs>
        <path d="M 19.1875 8.296875 
L 53.609375 8.296875 
L 53.609375 0 
L 7.328125 0 
L 7.328125 8.296875 
Q 12.9375 14.109375 22.625 23.890625 
Q 32.328125 33.6875 34.8125 36.53125 
Q 39.546875 41.84375 41.421875 45.53125 
Q 43.3125 49.21875 43.3125 52.78125 
Q 43.3125 58.59375 39.234375 62.25 
Q 35.15625 65.921875 28.609375 65.921875 
Q 23.96875 65.921875 18.8125 64.3125 
Q 13.671875 62.703125 7.8125 59.421875 
L 7.8125 69.390625 
Q 13.765625 71.78125 18.9375 73 
Q 24.125 74.21875 28.421875 74.21875 
Q 39.75 74.21875 46.484375 68.546875 
Q 53.21875 62.890625 53.21875 53.421875 
Q 53.21875 48.921875 51.53125 44.890625 
Q 49.859375 40.875 45.40625 35.40625 
Q 44.1875 33.984375 37.640625 27.21875 
Q 31.109375 20.453125 19.1875 8.296875 
z
" id="DejaVuSans-50"/>
        <path d="M 31.78125 66.40625 
Q 24.171875 66.40625 20.328125 58.90625 
Q 16.5 51.421875 16.5 36.375 
Q 16.5 21.390625 20.328125 13.890625 
Q 24.171875 6.390625 31.78125 6.390625 
Q 39.453125 6.390625 43.28125 13.890625 
Q 47.125 21.390625 47.125 36.375 
Q 47.125 51.421875 43.28125 58.90625 
Q 39.453125 66.40625 31.78125 66.40625 
z
M 31.78125 74.21875 
Q 44.046875 74.21875 50.515625 64.515625 
Q 56.984375 54.828125 56.984375 36.375 
Q 56.984375 17.96875 50.515625 8.265625 
Q 44.046875 -1.421875 31.78125 -1.421875 
Q 19.53125 -1.421875 13.0625 8.265625 
Q 6.59375 17.96875 6.59375 36.375 
Q 6.59375 54.828125 13.0625 64.515625 
Q 19.53125 74.21875 31.78125 74.21875 
z
" id="DejaVuSans-48"/>
        <path d="M 4.890625 31.390625 
L 31.203125 31.390625 
L 31.203125 23.390625 
L 4.890625 23.390625 
z
" id="DejaVuSans-45"/>
        <path d="M 37.796875 64.3125 
L 12.890625 25.390625 
L 37.796875 25.390625 
z
M 35.203125 72.90625 
L 47.609375 72.90625 
L 47.609375 25.390625 
L 58.015625 25.390625 
L 58.015625 17.1875 
L 47.609375 17.1875 
L 47.609375 0 
L 37.796875 0 
L 37.796875 17.1875 
L 4.890625 17.1875 
L 4.890625 26.703125 
z
" id="DejaVuSans-52"/>
       </defs>
       <use xlink:href="#DejaVuSans-50"/>
       <use x="63.623047" xlink:href="#DejaVuSans-48"/>
       <use x="127.246094" xlink:href="#DejaVuSans-50"/>
       <use x="190.869141" xlink:href="#DejaVuSans-48"/>
       <use x="254.492188" xlink:href="#DejaVuSans-45"/>
       <use x="290.576172" xlink:href="#DejaVuSans-48"/>
       <use x="354.199219" xlink:href="#DejaVuSans-52"/>
      </g>
     </g>
    </g>
    <g id="xtick_2">
     <g id="line2d_2">
      <g>
       <use style="stroke:#000000;stroke-width:0.8;" x="123.585506" xlink:href="#m94ea679370" y="288.430125"/>
      </g>
     </g>
     <g id="text_2">
      <!-- 2020-05 -->
      <g transform="translate(126.344881 337.212937)rotate(-90)scale(0.1 -0.1)">
       <defs>
        <path d="M 10.796875 72.90625 
L 49.515625 72.90625 
L 49.515625 64.59375 
L 19.828125 64.59375 
L 19.828125 46.734375 
Q 21.96875 47.46875 24.109375 47.828125 
Q 26.265625 48.1875 28.421875 48.1875 
Q 40.625 48.1875 47.75 41.5 
Q 54.890625 34.8125 54.890625 23.390625 
Q 54.890625 11.625 47.5625 5.09375 
Q 40.234375 -1.421875 26.90625 -1.421875 
Q 22.3125 -1.421875 17.546875 -0.640625 
Q 12.796875 0.140625 7.71875 1.703125 
L 7.71875 11.625 
Q 12.109375 9.234375 16.796875 8.0625 
Q 21.484375 6.890625 26.703125 6.890625 
Q 35.15625 6.890625 40.078125 11.328125 
Q 45.015625 15.765625 45.015625 23.390625 
Q 45.015625 31 40.078125 35.4375 
Q 35.15625 39.890625 26.703125 39.890625 
Q 22.75 39.890625 18.8125 39.015625 
Q 14.890625 38.140625 10.796875 36.28125 
z
" id="DejaVuSans-53"/>
       </defs>
       <use xlink:href="#DejaVuSans-50"/>
       <use x="63.623047" xlink:href="#DejaVuSans-48"/>
       <use x="127.246094" xlink:href="#DejaVuSans-50"/>
       <use x="190.869141" xlink:href="#DejaVuSans-48"/>
       <use x="254.492188" xlink:href="#DejaVuSans-45"/>
       <use x="290.576172" xlink:href="#DejaVuSans-48"/>
       <use x="354.199219" xlink:href="#DejaVuSans-53"/>
      </g>
     </g>
    </g>
    <g id="xtick_3">
     <g id="line2d_3">
      <g>
       <use style="stroke:#000000;stroke-width:0.8;" x="161.369533" xlink:href="#m94ea679370" y="288.430125"/>
      </g>
     </g>
     <g id="text_3">
      <!-- 2020-06 -->
      <g transform="translate(164.128908 337.212937)rotate(-90)scale(0.1 -0.1)">
       <defs>
        <path d="M 33.015625 40.375 
Q 26.375 40.375 22.484375 35.828125 
Q 18.609375 31.296875 18.609375 23.390625 
Q 18.609375 15.53125 22.484375 10.953125 
Q 26.375 6.390625 33.015625 6.390625 
Q 39.65625 6.390625 43.53125 10.953125 
Q 47.40625 15.53125 47.40625 23.390625 
Q 47.40625 31.296875 43.53125 35.828125 
Q 39.65625 40.375 33.015625 40.375 
z
M 52.59375 71.296875 
L 52.59375 62.3125 
Q 48.875 64.0625 45.09375 64.984375 
Q 41.3125 65.921875 37.59375 65.921875 
Q 27.828125 65.921875 22.671875 59.328125 
Q 17.53125 52.734375 16.796875 39.40625 
Q 19.671875 43.65625 24.015625 45.921875 
Q 28.375 48.1875 33.59375 48.1875 
Q 44.578125 48.1875 50.953125 41.515625 
Q 57.328125 34.859375 57.328125 23.390625 
Q 57.328125 12.15625 50.6875 5.359375 
Q 44.046875 -1.421875 33.015625 -1.421875 
Q 20.359375 -1.421875 13.671875 8.265625 
Q 6.984375 17.96875 6.984375 36.375 
Q 6.984375 53.65625 15.1875 63.9375 
Q 23.390625 74.21875 37.203125 74.21875 
Q 40.921875 74.21875 44.703125 73.484375 
Q 48.484375 72.75 52.59375 71.296875 
z
" id="DejaVuSans-54"/>
       </defs>
       <use xlink:href="#DejaVuSans-50"/>
       <use x="63.623047" xlink:href="#DejaVuSans-48"/>
       <use x="127.246094" xlink:href="#DejaVuSans-50"/>
       <use x="190.869141" xlink:href="#DejaVuSans-48"/>
       <use x="254.492188" xlink:href="#DejaVuSans-45"/>
       <use x="290.576172" xlink:href="#DejaVuSans-48"/>
       <use x="354.199219" xlink:href="#DejaVuSans-54"/>
      </g>
     </g>
    </g>
    <g id="xtick_4">
     <g id="line2d_4">
      <g>
       <use style="stroke:#000000;stroke-width:0.8;" x="197.934721" xlink:href="#m94ea679370" y="288.430125"/>
      </g>
     </g>
     <g id="text_4">
      <!-- 2020-07 -->
      <g transform="translate(200.694096 337.212937)rotate(-90)scale(0.1 -0.1)">
       <defs>
        <path d="M 8.203125 72.90625 
L 55.078125 72.90625 
L 55.078125 68.703125 
L 28.609375 0 
L 18.3125 0 
L 43.21875 64.59375 
L 8.203125 64.59375 
z
" id="DejaVuSans-55"/>
       </defs>
       <use xlink:href="#DejaVuSans-50"/>
       <use x="63.623047" xlink:href="#DejaVuSans-48"/>
       <use x="127.246094" xlink:href="#DejaVuSans-50"/>
       <use x="190.869141" xlink:href="#DejaVuSans-48"/>
       <use x="254.492188" xlink:href="#DejaVuSans-45"/>
       <use x="290.576172" xlink:href="#DejaVuSans-48"/>
       <use x="354.199219" xlink:href="#DejaVuSans-55"/>
      </g>
     </g>
    </g>
    <g id="xtick_5">
     <g id="line2d_5">
      <g>
       <use style="stroke:#000000;stroke-width:0.8;" x="235.718748" xlink:href="#m94ea679370" y="288.430125"/>
      </g>
     </g>
     <g id="text_5">
      <!-- 2020-08 -->
      <g transform="translate(238.478123 337.212937)rotate(-90)scale(0.1 -0.1)">
       <defs>
        <path d="M 31.78125 34.625 
Q 24.75 34.625 20.71875 30.859375 
Q 16.703125 27.09375 16.703125 20.515625 
Q 16.703125 13.921875 20.71875 10.15625 
Q 24.75 6.390625 31.78125 6.390625 
Q 38.8125 6.390625 42.859375 10.171875 
Q 46.921875 13.96875 46.921875 20.515625 
Q 46.921875 27.09375 42.890625 30.859375 
Q 38.875 34.625 31.78125 34.625 
z
M 21.921875 38.8125 
Q 15.578125 40.375 12.03125 44.71875 
Q 8.5 49.078125 8.5 55.328125 
Q 8.5 64.0625 14.71875 69.140625 
Q 20.953125 74.21875 31.78125 74.21875 
Q 42.671875 74.21875 48.875 69.140625 
Q 55.078125 64.0625 55.078125 55.328125 
Q 55.078125 49.078125 51.53125 44.71875 
Q 48 40.375 41.703125 38.8125 
Q 48.828125 37.15625 52.796875 32.3125 
Q 56.78125 27.484375 56.78125 20.515625 
Q 56.78125 9.90625 50.3125 4.234375 
Q 43.84375 -1.421875 31.78125 -1.421875 
Q 19.734375 -1.421875 13.25 4.234375 
Q 6.78125 9.90625 6.78125 20.515625 
Q 6.78125 27.484375 10.78125 32.3125 
Q 14.796875 37.15625 21.921875 38.8125 
z
M 18.3125 54.390625 
Q 18.3125 48.734375 21.84375 45.5625 
Q 25.390625 42.390625 31.78125 42.390625 
Q 38.140625 42.390625 41.71875 45.5625 
Q 45.3125 48.734375 45.3125 54.390625 
Q 45.3125 60.0625 41.71875 63.234375 
Q 38.140625 66.40625 31.78125 66.40625 
Q 25.390625 66.40625 21.84375 63.234375 
Q 18.3125 60.0625 18.3125 54.390625 
z
" id="DejaVuSans-56"/>
       </defs>
       <use xlink:href="#DejaVuSans-50"/>
       <use x="63.623047" xlink:href="#DejaVuSans-48"/>
       <use x="127.246094" xlink:href="#DejaVuSans-50"/>
       <use x="190.869141" xlink:href="#DejaVuSans-48"/>
       <use x="254.492188" xlink:href="#DejaVuSans-45"/>
       <use x="290.576172" xlink:href="#DejaVuSans-48"/>
       <use x="354.199219" xlink:href="#DejaVuSans-56"/>
      </g>
     </g>
    </g>
    <g id="xtick_6">
     <g id="line2d_6">
      <g>
       <use style="stroke:#000000;stroke-width:0.8;" x="273.502775" xlink:href="#m94ea679370" y="288.430125"/>
      </g>
     </g>
     <g id="text_6">
      <!-- 2020-09 -->
      <g transform="translate(276.26215 337.212937)rotate(-90)scale(0.1 -0.1)">
       <defs>
        <path d="M 10.984375 1.515625 
L 10.984375 10.5 
Q 14.703125 8.734375 18.5 7.8125 
Q 22.3125 6.890625 25.984375 6.890625 
Q 35.75 6.890625 40.890625 13.453125 
Q 46.046875 20.015625 46.78125 33.40625 
Q 43.953125 29.203125 39.59375 26.953125 
Q 35.25 24.703125 29.984375 24.703125 
Q 19.046875 24.703125 12.671875 31.3125 
Q 6.296875 37.9375 6.296875 49.421875 
Q 6.296875 60.640625 12.9375 67.421875 
Q 19.578125 74.21875 30.609375 74.21875 
Q 43.265625 74.21875 49.921875 64.515625 
Q 56.59375 54.828125 56.59375 36.375 
Q 56.59375 19.140625 48.40625 8.859375 
Q 40.234375 -1.421875 26.421875 -1.421875 
Q 22.703125 -1.421875 18.890625 -0.6875 
Q 15.09375 0.046875 10.984375 1.515625 
z
M 30.609375 32.421875 
Q 37.25 32.421875 41.125 36.953125 
Q 45.015625 41.5 45.015625 49.421875 
Q 45.015625 57.28125 41.125 61.84375 
Q 37.25 66.40625 30.609375 66.40625 
Q 23.96875 66.40625 20.09375 61.84375 
Q 16.21875 57.28125 16.21875 49.421875 
Q 16.21875 41.5 20.09375 36.953125 
Q 23.96875 32.421875 30.609375 32.421875 
z
" id="DejaVuSans-57"/>
       </defs>
       <use xlink:href="#DejaVuSans-50"/>
       <use x="63.623047" xlink:href="#DejaVuSans-48"/>
       <use x="127.246094" xlink:href="#DejaVuSans-50"/>
       <use x="190.869141" xlink:href="#DejaVuSans-48"/>
       <use x="254.492188" xlink:href="#DejaVuSans-45"/>
       <use x="290.576172" xlink:href="#DejaVuSans-48"/>
       <use x="354.199219" xlink:href="#DejaVuSans-57"/>
      </g>
     </g>
    </g>
    <g id="xtick_7">
     <g id="line2d_7">
      <g>
       <use style="stroke:#000000;stroke-width:0.8;" x="310.067963" xlink:href="#m94ea679370" y="288.430125"/>
      </g>
     </g>
     <g id="text_7">
      <!-- 2020-10 -->
      <g transform="translate(312.827338 337.212937)rotate(-90)scale(0.1 -0.1)">
       <defs>
        <path d="M 12.40625 8.296875 
L 28.515625 8.296875 
L 28.515625 63.921875 
L 10.984375 60.40625 
L 10.984375 69.390625 
L 28.421875 72.90625 
L 38.28125 72.90625 
L 38.28125 8.296875 
L 54.390625 8.296875 
L 54.390625 0 
L 12.40625 0 
z
" id="DejaVuSans-49"/>
       </defs>
       <use xlink:href="#DejaVuSans-50"/>
       <use x="63.623047" xlink:href="#DejaVuSans-48"/>
       <use x="127.246094" xlink:href="#DejaVuSans-50"/>
       <use x="190.869141" xlink:href="#DejaVuSans-48"/>
       <use x="254.492188" xlink:href="#DejaVuSans-45"/>
       <use x="290.576172" xlink:href="#DejaVuSans-49"/>
       <use x="354.199219" xlink:href="#DejaVuSans-48"/>
      </g>
     </g>
    </g>
    <g id="xtick_8">
     <g id="line2d_8">
      <g>
       <use style="stroke:#000000;stroke-width:0.8;" x="347.85199" xlink:href="#m94ea679370" y="288.430125"/>
      </g>
     </g>
     <g id="text_8">
      <!-- 2020-11 -->
      <g transform="translate(350.611365 337.212937)rotate(-90)scale(0.1 -0.1)">
       <use xlink:href="#DejaVuSans-50"/>
       <use x="63.623047" xlink:href="#DejaVuSans-48"/>
       <use x="127.246094" xlink:href="#DejaVuSans-50"/>
       <use x="190.869141" xlink:href="#DejaVuSans-48"/>
       <use x="254.492188" xlink:href="#DejaVuSans-45"/>
       <use x="290.576172" xlink:href="#DejaVuSans-49"/>
       <use x="354.199219" xlink:href="#DejaVuSans-49"/>
      </g>
     </g>
    </g>
    <g id="xtick_9">
     <g id="line2d_9">
      <g>
       <use style="stroke:#000000;stroke-width:0.8;" x="384.417178" xlink:href="#m94ea679370" y="288.430125"/>
      </g>
     </g>
     <g id="text_9">
      <!-- 2020-12 -->
      <g transform="translate(387.176553 337.212937)rotate(-90)scale(0.1 -0.1)">
       <use xlink:href="#DejaVuSans-50"/>
       <use x="63.623047" xlink:href="#DejaVuSans-48"/>
       <use x="127.246094" xlink:href="#DejaVuSans-50"/>
       <use x="190.869141" xlink:href="#DejaVuSans-48"/>
       <use x="254.492188" xlink:href="#DejaVuSans-45"/>
       <use x="290.576172" xlink:href="#DejaVuSans-49"/>
       <use x="354.199219" xlink:href="#DejaVuSans-50"/>
      </g>
     </g>
    </g>
    <g id="xtick_10">
     <g id="line2d_10">
      <g>
       <use style="stroke:#000000;stroke-width:0.8;" x="422.201205" xlink:href="#m94ea679370" y="288.430125"/>
      </g>
     </g>
     <g id="text_10">
      <!-- 2021-01 -->
      <g transform="translate(424.96058 337.212937)rotate(-90)scale(0.1 -0.1)">
       <use xlink:href="#DejaVuSans-50"/>
       <use x="63.623047" xlink:href="#DejaVuSans-48"/>
       <use x="127.246094" xlink:href="#DejaVuSans-50"/>
       <use x="190.869141" xlink:href="#DejaVuSans-49"/>
       <use x="254.492188" xlink:href="#DejaVuSans-45"/>
       <use x="290.576172" xlink:href="#DejaVuSans-48"/>
       <use x="354.199219" xlink:href="#DejaVuSans-49"/>
      </g>
     </g>
    </g>
    <g id="text_11">
     <!-- date -->
     <g transform="translate(232.975625 354.811375)scale(0.1 -0.1)">
      <defs>
       <path d="M 45.40625 46.390625 
L 45.40625 75.984375 
L 54.390625 75.984375 
L 54.390625 0 
L 45.40625 0 
L 45.40625 8.203125 
Q 42.578125 3.328125 38.25 0.953125 
Q 33.9375 -1.421875 27.875 -1.421875 
Q 17.96875 -1.421875 11.734375 6.484375 
Q 5.515625 14.40625 5.515625 27.296875 
Q 5.515625 40.1875 11.734375 48.09375 
Q 17.96875 56 27.875 56 
Q 33.9375 56 38.25 53.625 
Q 42.578125 51.265625 45.40625 46.390625 
z
M 14.796875 27.296875 
Q 14.796875 17.390625 18.875 11.75 
Q 22.953125 6.109375 30.078125 6.109375 
Q 37.203125 6.109375 41.296875 11.75 
Q 45.40625 17.390625 45.40625 27.296875 
Q 45.40625 37.203125 41.296875 42.84375 
Q 37.203125 48.484375 30.078125 48.484375 
Q 22.953125 48.484375 18.875 42.84375 
Q 14.796875 37.203125 14.796875 27.296875 
z
" id="DejaVuSans-100"/>
       <path d="M 34.28125 27.484375 
Q 23.390625 27.484375 19.1875 25 
Q 14.984375 22.515625 14.984375 16.5 
Q 14.984375 11.71875 18.140625 8.90625 
Q 21.296875 6.109375 26.703125 6.109375 
Q 34.1875 6.109375 38.703125 11.40625 
Q 43.21875 16.703125 43.21875 25.484375 
L 43.21875 27.484375 
z
M 52.203125 31.203125 
L 52.203125 0 
L 43.21875 0 
L 43.21875 8.296875 
Q 40.140625 3.328125 35.546875 0.953125 
Q 30.953125 -1.421875 24.3125 -1.421875 
Q 15.921875 -1.421875 10.953125 3.296875 
Q 6 8.015625 6 15.921875 
Q 6 25.140625 12.171875 29.828125 
Q 18.359375 34.515625 30.609375 34.515625 
L 43.21875 34.515625 
L 43.21875 35.40625 
Q 43.21875 41.609375 39.140625 45 
Q 35.0625 48.390625 27.6875 48.390625 
Q 23 48.390625 18.546875 47.265625 
Q 14.109375 46.140625 10.015625 43.890625 
L 10.015625 52.203125 
Q 14.9375 54.109375 19.578125 55.046875 
Q 24.21875 56 28.609375 56 
Q 40.484375 56 46.34375 49.84375 
Q 52.203125 43.703125 52.203125 31.203125 
z
" id="DejaVuSans-97"/>
       <path d="M 18.3125 70.21875 
L 18.3125 54.6875 
L 36.8125 54.6875 
L 36.8125 47.703125 
L 18.3125 47.703125 
L 18.3125 18.015625 
Q 18.3125 11.328125 20.140625 9.421875 
Q 21.96875 7.515625 27.59375 7.515625 
L 36.8125 7.515625 
L 36.8125 0 
L 27.59375 0 
Q 17.1875 0 13.234375 3.875 
Q 9.28125 7.765625 9.28125 18.015625 
L 9.28125 47.703125 
L 2.6875 47.703125 
L 2.6875 54.6875 
L 9.28125 54.6875 
L 9.28125 70.21875 
z
" id="DejaVuSans-116"/>
       <path d="M 56.203125 29.59375 
L 56.203125 25.203125 
L 14.890625 25.203125 
Q 15.484375 15.921875 20.484375 11.0625 
Q 25.484375 6.203125 34.421875 6.203125 
Q 39.59375 6.203125 44.453125 7.46875 
Q 49.3125 8.734375 54.109375 11.28125 
L 54.109375 2.78125 
Q 49.265625 0.734375 44.1875 -0.34375 
Q 39.109375 -1.421875 33.890625 -1.421875 
Q 20.796875 -1.421875 13.15625 6.1875 
Q 5.515625 13.8125 5.515625 26.8125 
Q 5.515625 40.234375 12.765625 48.109375 
Q 20.015625 56 32.328125 56 
Q 43.359375 56 49.78125 48.890625 
Q 56.203125 41.796875 56.203125 29.59375 
z
M 47.21875 32.234375 
Q 47.125 39.59375 43.09375 43.984375 
Q 39.0625 48.390625 32.421875 48.390625 
Q 24.90625 48.390625 20.390625 44.140625 
Q 15.875 39.890625 15.1875 32.171875 
z
" id="DejaVuSans-101"/>
      </defs>
      <use xlink:href="#DejaVuSans-100"/>
      <use x="63.476562" xlink:href="#DejaVuSans-97"/>
      <use x="124.755859" xlink:href="#DejaVuSans-116"/>
      <use x="163.964844" xlink:href="#DejaVuSans-101"/>
     </g>
    </g>
   </g>
   <g id="matplotlib.axis_2">
    <g id="ytick_1">
     <g id="line2d_11">
      <defs>
       <path d="M 0 0 
L -3.5 0 
" id="mf30e2ee92a" style="stroke:#000000;stroke-width:0.8;"/>
      </defs>
      <g>
       <use style="stroke:#000000;stroke-width:0.8;" x="65.690625" xlink:href="#mf30e2ee92a" y="288.430125"/>
      </g>
     </g>
     <g id="text_12">
      <!-- 0 -->
      <g transform="translate(52.328125 292.229344)scale(0.1 -0.1)">
       <use xlink:href="#DejaVuSans-48"/>
      </g>
     </g>
    </g>
    <g id="ytick_2">
     <g id="line2d_12">
      <g>
       <use style="stroke:#000000;stroke-width:0.8;" x="65.690625" xlink:href="#mf30e2ee92a" y="243.726456"/>
      </g>
     </g>
     <g id="text_13">
      <!-- 5000 -->
      <g transform="translate(33.240625 247.525675)scale(0.1 -0.1)">
       <use xlink:href="#DejaVuSans-53"/>
       <use x="63.623047" xlink:href="#DejaVuSans-48"/>
       <use x="127.246094" xlink:href="#DejaVuSans-48"/>
       <use x="190.869141" xlink:href="#DejaVuSans-48"/>
      </g>
     </g>
    </g>
    <g id="ytick_3">
     <g id="line2d_13">
      <g>
       <use style="stroke:#000000;stroke-width:0.8;" x="65.690625" xlink:href="#mf30e2ee92a" y="199.022787"/>
      </g>
     </g>
     <g id="text_14">
      <!-- 10000 -->
      <g transform="translate(26.878125 202.822006)scale(0.1 -0.1)">
       <use xlink:href="#DejaVuSans-49"/>
       <use x="63.623047" xlink:href="#DejaVuSans-48"/>
       <use x="127.246094" xlink:href="#DejaVuSans-48"/>
       <use x="190.869141" xlink:href="#DejaVuSans-48"/>
       <use x="254.492188" xlink:href="#DejaVuSans-48"/>
      </g>
     </g>
    </g>
    <g id="ytick_4">
     <g id="line2d_14">
      <g>
       <use style="stroke:#000000;stroke-width:0.8;" x="65.690625" xlink:href="#mf30e2ee92a" y="154.319118"/>
      </g>
     </g>
     <g id="text_15">
      <!-- 15000 -->
      <g transform="translate(26.878125 158.118337)scale(0.1 -0.1)">
       <use xlink:href="#DejaVuSans-49"/>
       <use x="63.623047" xlink:href="#DejaVuSans-53"/>
       <use x="127.246094" xlink:href="#DejaVuSans-48"/>
       <use x="190.869141" xlink:href="#DejaVuSans-48"/>
       <use x="254.492188" xlink:href="#DejaVuSans-48"/>
      </g>
     </g>
    </g>
    <g id="ytick_5">
     <g id="line2d_15">
      <g>
       <use style="stroke:#000000;stroke-width:0.8;" x="65.690625" xlink:href="#mf30e2ee92a" y="109.61545"/>
      </g>
     </g>
     <g id="text_16">
      <!-- 20000 -->
      <g transform="translate(26.878125 113.414668)scale(0.1 -0.1)">
       <use xlink:href="#DejaVuSans-50"/>
       <use x="63.623047" xlink:href="#DejaVuSans-48"/>
       <use x="127.246094" xlink:href="#DejaVuSans-48"/>
       <use x="190.869141" xlink:href="#DejaVuSans-48"/>
       <use x="254.492188" xlink:href="#DejaVuSans-48"/>
      </g>
     </g>
    </g>
    <g id="ytick_6">
     <g id="line2d_16">
      <g>
       <use style="stroke:#000000;stroke-width:0.8;" x="65.690625" xlink:href="#mf30e2ee92a" y="64.911781"/>
      </g>
     </g>
     <g id="text_17">
      <!-- 25000 -->
      <g transform="translate(26.878125 68.710999)scale(0.1 -0.1)">
       <use xlink:href="#DejaVuSans-50"/>
       <use x="63.623047" xlink:href="#DejaVuSans-53"/>
       <use x="127.246094" xlink:href="#DejaVuSans-48"/>
       <use x="190.869141" xlink:href="#DejaVuSans-48"/>
       <use x="254.492188" xlink:href="#DejaVuSans-48"/>
      </g>
     </g>
    </g>
    <g id="text_18">
     <!-- cumulative number of corona cases -->
     <g transform="translate(14.798438 245.00225)rotate(-90)scale(0.1 -0.1)">
      <defs>
       <path d="M 48.78125 52.59375 
L 48.78125 44.1875 
Q 44.96875 46.296875 41.140625 47.34375 
Q 37.3125 48.390625 33.40625 48.390625 
Q 24.65625 48.390625 19.8125 42.84375 
Q 14.984375 37.3125 14.984375 27.296875 
Q 14.984375 17.28125 19.8125 11.734375 
Q 24.65625 6.203125 33.40625 6.203125 
Q 37.3125 6.203125 41.140625 7.25 
Q 44.96875 8.296875 48.78125 10.40625 
L 48.78125 2.09375 
Q 45.015625 0.34375 40.984375 -0.53125 
Q 36.96875 -1.421875 32.421875 -1.421875 
Q 20.0625 -1.421875 12.78125 6.34375 
Q 5.515625 14.109375 5.515625 27.296875 
Q 5.515625 40.671875 12.859375 48.328125 
Q 20.21875 56 33.015625 56 
Q 37.15625 56 41.109375 55.140625 
Q 45.0625 54.296875 48.78125 52.59375 
z
" id="DejaVuSans-99"/>
       <path d="M 8.5 21.578125 
L 8.5 54.6875 
L 17.484375 54.6875 
L 17.484375 21.921875 
Q 17.484375 14.15625 20.5 10.265625 
Q 23.53125 6.390625 29.59375 6.390625 
Q 36.859375 6.390625 41.078125 11.03125 
Q 45.3125 15.671875 45.3125 23.6875 
L 45.3125 54.6875 
L 54.296875 54.6875 
L 54.296875 0 
L 45.3125 0 
L 45.3125 8.40625 
Q 42.046875 3.421875 37.71875 1 
Q 33.40625 -1.421875 27.6875 -1.421875 
Q 18.265625 -1.421875 13.375 4.4375 
Q 8.5 10.296875 8.5 21.578125 
z
M 31.109375 56 
z
" id="DejaVuSans-117"/>
       <path d="M 52 44.1875 
Q 55.375 50.25 60.0625 53.125 
Q 64.75 56 71.09375 56 
Q 79.640625 56 84.28125 50.015625 
Q 88.921875 44.046875 88.921875 33.015625 
L 88.921875 0 
L 79.890625 0 
L 79.890625 32.71875 
Q 79.890625 40.578125 77.09375 44.375 
Q 74.3125 48.1875 68.609375 48.1875 
Q 61.625 48.1875 57.5625 43.546875 
Q 53.515625 38.921875 53.515625 30.90625 
L 53.515625 0 
L 44.484375 0 
L 44.484375 32.71875 
Q 44.484375 40.625 41.703125 44.40625 
Q 38.921875 48.1875 33.109375 48.1875 
Q 26.21875 48.1875 22.15625 43.53125 
Q 18.109375 38.875 18.109375 30.90625 
L 18.109375 0 
L 9.078125 0 
L 9.078125 54.6875 
L 18.109375 54.6875 
L 18.109375 46.1875 
Q 21.1875 51.21875 25.484375 53.609375 
Q 29.78125 56 35.6875 56 
Q 41.65625 56 45.828125 52.96875 
Q 50 49.953125 52 44.1875 
z
" id="DejaVuSans-109"/>
       <path d="M 9.421875 75.984375 
L 18.40625 75.984375 
L 18.40625 0 
L 9.421875 0 
z
" id="DejaVuSans-108"/>
       <path d="M 9.421875 54.6875 
L 18.40625 54.6875 
L 18.40625 0 
L 9.421875 0 
z
M 9.421875 75.984375 
L 18.40625 75.984375 
L 18.40625 64.59375 
L 9.421875 64.59375 
z
" id="DejaVuSans-105"/>
       <path d="M 2.984375 54.6875 
L 12.5 54.6875 
L 29.59375 8.796875 
L 46.6875 54.6875 
L 56.203125 54.6875 
L 35.6875 0 
L 23.484375 0 
z
" id="DejaVuSans-118"/>
       <path id="DejaVuSans-32"/>
       <path d="M 54.890625 33.015625 
L 54.890625 0 
L 45.90625 0 
L 45.90625 32.71875 
Q 45.90625 40.484375 42.875 44.328125 
Q 39.84375 48.1875 33.796875 48.1875 
Q 26.515625 48.1875 22.3125 43.546875 
Q 18.109375 38.921875 18.109375 30.90625 
L 18.109375 0 
L 9.078125 0 
L 9.078125 54.6875 
L 18.109375 54.6875 
L 18.109375 46.1875 
Q 21.34375 51.125 25.703125 53.5625 
Q 30.078125 56 35.796875 56 
Q 45.21875 56 50.046875 50.171875 
Q 54.890625 44.34375 54.890625 33.015625 
z
" id="DejaVuSans-110"/>
       <path d="M 48.6875 27.296875 
Q 48.6875 37.203125 44.609375 42.84375 
Q 40.53125 48.484375 33.40625 48.484375 
Q 26.265625 48.484375 22.1875 42.84375 
Q 18.109375 37.203125 18.109375 27.296875 
Q 18.109375 17.390625 22.1875 11.75 
Q 26.265625 6.109375 33.40625 6.109375 
Q 40.53125 6.109375 44.609375 11.75 
Q 48.6875 17.390625 48.6875 27.296875 
z
M 18.109375 46.390625 
Q 20.953125 51.265625 25.265625 53.625 
Q 29.59375 56 35.59375 56 
Q 45.5625 56 51.78125 48.09375 
Q 58.015625 40.1875 58.015625 27.296875 
Q 58.015625 14.40625 51.78125 6.484375 
Q 45.5625 -1.421875 35.59375 -1.421875 
Q 29.59375 -1.421875 25.265625 0.953125 
Q 20.953125 3.328125 18.109375 8.203125 
L 18.109375 0 
L 9.078125 0 
L 9.078125 75.984375 
L 18.109375 75.984375 
z
" id="DejaVuSans-98"/>
       <path d="M 41.109375 46.296875 
Q 39.59375 47.171875 37.8125 47.578125 
Q 36.03125 48 33.890625 48 
Q 26.265625 48 22.1875 43.046875 
Q 18.109375 38.09375 18.109375 28.8125 
L 18.109375 0 
L 9.078125 0 
L 9.078125 54.6875 
L 18.109375 54.6875 
L 18.109375 46.1875 
Q 20.953125 51.171875 25.484375 53.578125 
Q 30.03125 56 36.53125 56 
Q 37.453125 56 38.578125 55.875 
Q 39.703125 55.765625 41.0625 55.515625 
z
" id="DejaVuSans-114"/>
       <path d="M 30.609375 48.390625 
Q 23.390625 48.390625 19.1875 42.75 
Q 14.984375 37.109375 14.984375 27.296875 
Q 14.984375 17.484375 19.15625 11.84375 
Q 23.34375 6.203125 30.609375 6.203125 
Q 37.796875 6.203125 41.984375 11.859375 
Q 46.1875 17.53125 46.1875 27.296875 
Q 46.1875 37.015625 41.984375 42.703125 
Q 37.796875 48.390625 30.609375 48.390625 
z
M 30.609375 56 
Q 42.328125 56 49.015625 48.375 
Q 55.71875 40.765625 55.71875 27.296875 
Q 55.71875 13.875 49.015625 6.21875 
Q 42.328125 -1.421875 30.609375 -1.421875 
Q 18.84375 -1.421875 12.171875 6.21875 
Q 5.515625 13.875 5.515625 27.296875 
Q 5.515625 40.765625 12.171875 48.375 
Q 18.84375 56 30.609375 56 
z
" id="DejaVuSans-111"/>
       <path d="M 37.109375 75.984375 
L 37.109375 68.5 
L 28.515625 68.5 
Q 23.6875 68.5 21.796875 66.546875 
Q 19.921875 64.59375 19.921875 59.515625 
L 19.921875 54.6875 
L 34.71875 54.6875 
L 34.71875 47.703125 
L 19.921875 47.703125 
L 19.921875 0 
L 10.890625 0 
L 10.890625 47.703125 
L 2.296875 47.703125 
L 2.296875 54.6875 
L 10.890625 54.6875 
L 10.890625 58.5 
Q 10.890625 67.625 15.140625 71.796875 
Q 19.390625 75.984375 28.609375 75.984375 
z
" id="DejaVuSans-102"/>
       <path d="M 44.28125 53.078125 
L 44.28125 44.578125 
Q 40.484375 46.53125 36.375 47.5 
Q 32.28125 48.484375 27.875 48.484375 
Q 21.1875 48.484375 17.84375 46.4375 
Q 14.5 44.390625 14.5 40.28125 
Q 14.5 37.15625 16.890625 35.375 
Q 19.28125 33.59375 26.515625 31.984375 
L 29.59375 31.296875 
Q 39.15625 29.25 43.1875 25.515625 
Q 47.21875 21.78125 47.21875 15.09375 
Q 47.21875 7.46875 41.1875 3.015625 
Q 35.15625 -1.421875 24.609375 -1.421875 
Q 20.21875 -1.421875 15.453125 -0.5625 
Q 10.6875 0.296875 5.421875 2 
L 5.421875 11.28125 
Q 10.40625 8.6875 15.234375 7.390625 
Q 20.0625 6.109375 24.8125 6.109375 
Q 31.15625 6.109375 34.5625 8.28125 
Q 37.984375 10.453125 37.984375 14.40625 
Q 37.984375 18.0625 35.515625 20.015625 
Q 33.0625 21.96875 24.703125 23.78125 
L 21.578125 24.515625 
Q 13.234375 26.265625 9.515625 29.90625 
Q 5.8125 33.546875 5.8125 39.890625 
Q 5.8125 47.609375 11.28125 51.796875 
Q 16.75 56 26.8125 56 
Q 31.78125 56 36.171875 55.265625 
Q 40.578125 54.546875 44.28125 53.078125 
z
" id="DejaVuSans-115"/>
      </defs>
      <use xlink:href="#DejaVuSans-99"/>
      <use x="54.980469" xlink:href="#DejaVuSans-117"/>
      <use x="118.359375" xlink:href="#DejaVuSans-109"/>
      <use x="215.771484" xlink:href="#DejaVuSans-117"/>
      <use x="279.150391" xlink:href="#DejaVuSans-108"/>
      <use x="306.933594" xlink:href="#DejaVuSans-97"/>
      <use x="368.212891" xlink:href="#DejaVuSans-116"/>
      <use x="407.421875" xlink:href="#DejaVuSans-105"/>
      <use x="435.205078" xlink:href="#DejaVuSans-118"/>
      <use x="494.384766" xlink:href="#DejaVuSans-101"/>
      <use x="555.908203" xlink:href="#DejaVuSans-32"/>
      <use x="587.695312" xlink:href="#DejaVuSans-110"/>
      <use x="651.074219" xlink:href="#DejaVuSans-117"/>
      <use x="714.453125" xlink:href="#DejaVuSans-109"/>
      <use x="811.865234" xlink:href="#DejaVuSans-98"/>
      <use x="875.341797" xlink:href="#DejaVuSans-101"/>
      <use x="936.865234" xlink:href="#DejaVuSans-114"/>
      <use x="977.978516" xlink:href="#DejaVuSans-32"/>
      <use x="1009.765625" xlink:href="#DejaVuSans-111"/>
      <use x="1070.947266" xlink:href="#DejaVuSans-102"/>
      <use x="1106.152344" xlink:href="#DejaVuSans-32"/>
      <use x="1137.939453" xlink:href="#DejaVuSans-99"/>
      <use x="1192.919922" xlink:href="#DejaVuSans-111"/>
      <use x="1254.101562" xlink:href="#DejaVuSans-114"/>
      <use x="1292.964844" xlink:href="#DejaVuSans-111"/>
      <use x="1354.146484" xlink:href="#DejaVuSans-110"/>
      <use x="1417.525391" xlink:href="#DejaVuSans-97"/>
      <use x="1478.804688" xlink:href="#DejaVuSans-32"/>
      <use x="1510.591797" xlink:href="#DejaVuSans-99"/>
      <use x="1565.572266" xlink:href="#DejaVuSans-97"/>
      <use x="1626.851562" xlink:href="#DejaVuSans-115"/>
      <use x="1678.951172" xlink:href="#DejaVuSans-101"/>
      <use x="1740.474609" xlink:href="#DejaVuSans-115"/>
     </g>
    </g>
   </g>
   <g id="patch_296">
    <path d="M 65.690625 288.430125 
L 65.690625 22.318125 
" style="fill:none;stroke:#000000;stroke-linecap:square;stroke-linejoin:miter;stroke-width:0.8;"/>
   </g>
   <g id="patch_297">
    <path d="M 65.690625 288.430125 
L 422.810625 288.430125 
" style="fill:none;stroke:#000000;stroke-linecap:square;stroke-linejoin:miter;stroke-width:0.8;"/>
   </g>
   <g id="text_19">
    <!-- South Tyrol -->
    <g transform="translate(210.958125 16.318125)scale(0.12 -0.12)">
     <defs>
      <path d="M 53.515625 70.515625 
L 53.515625 60.890625 
Q 47.90625 63.578125 42.921875 64.890625 
Q 37.9375 66.21875 33.296875 66.21875 
Q 25.25 66.21875 20.875 63.09375 
Q 16.5 59.96875 16.5 54.203125 
Q 16.5 49.359375 19.40625 46.890625 
Q 22.3125 44.4375 30.421875 42.921875 
L 36.375 41.703125 
Q 47.40625 39.59375 52.65625 34.296875 
Q 57.90625 29 57.90625 20.125 
Q 57.90625 9.515625 50.796875 4.046875 
Q 43.703125 -1.421875 29.984375 -1.421875 
Q 24.8125 -1.421875 18.96875 -0.25 
Q 13.140625 0.921875 6.890625 3.21875 
L 6.890625 13.375 
Q 12.890625 10.015625 18.65625 8.296875 
Q 24.421875 6.59375 29.984375 6.59375 
Q 38.421875 6.59375 43.015625 9.90625 
Q 47.609375 13.234375 47.609375 19.390625 
Q 47.609375 24.75 44.3125 27.78125 
Q 41.015625 30.8125 33.5 32.328125 
L 27.484375 33.5 
Q 16.453125 35.6875 11.515625 40.375 
Q 6.59375 45.0625 6.59375 53.421875 
Q 6.59375 63.09375 13.40625 68.65625 
Q 20.21875 74.21875 32.171875 74.21875 
Q 37.3125 74.21875 42.625 73.28125 
Q 47.953125 72.359375 53.515625 70.515625 
z
" id="DejaVuSans-83"/>
      <path d="M 54.890625 33.015625 
L 54.890625 0 
L 45.90625 0 
L 45.90625 32.71875 
Q 45.90625 40.484375 42.875 44.328125 
Q 39.84375 48.1875 33.796875 48.1875 
Q 26.515625 48.1875 22.3125 43.546875 
Q 18.109375 38.921875 18.109375 30.90625 
L 18.109375 0 
L 9.078125 0 
L 9.078125 75.984375 
L 18.109375 75.984375 
L 18.109375 46.1875 
Q 21.34375 51.125 25.703125 53.5625 
Q 30.078125 56 35.796875 56 
Q 45.21875 56 50.046875 50.171875 
Q 54.890625 44.34375 54.890625 33.015625 
z
" id="DejaVuSans-104"/>
      <path d="M -0.296875 72.90625 
L 61.375 72.90625 
L 61.375 64.59375 
L 35.5 64.59375 
L 35.5 0 
L 25.59375 0 
L 25.59375 64.59375 
L -0.296875 64.59375 
z
" id="DejaVuSans-84"/>
      <path d="M 32.171875 -5.078125 
Q 28.375 -14.84375 24.75 -17.8125 
Q 21.140625 -20.796875 15.09375 -20.796875 
L 7.90625 -20.796875 
L 7.90625 -13.28125 
L 13.1875 -13.28125 
Q 16.890625 -13.28125 18.9375 -11.515625 
Q 21 -9.765625 23.484375 -3.21875 
L 25.09375 0.875 
L 2.984375 54.6875 
L 12.5 54.6875 
L 29.59375 11.921875 
L 46.6875 54.6875 
L 56.203125 54.6875 
z
" id="DejaVuSans-121"/>
     </defs>
     <use xlink:href="#DejaVuSans-83"/>
     <use x="63.476562" xlink:href="#DejaVuSans-111"/>
     <use x="124.658203" xlink:href="#DejaVuSans-117"/>
     <use x="188.037109" xlink:href="#DejaVuSans-116"/>
     <use x="227.246094" xlink:href="#DejaVuSans-104"/>
     <use x="290.625" xlink:href="#DejaVuSans-32"/>
     <use x="322.412109" xlink:href="#DejaVuSans-84"/>
     <use x="367.871094" xlink:href="#DejaVuSans-121"/>
     <use x="427.050781" xlink:href="#DejaVuSans-114"/>
     <use x="465.914062" xlink:href="#DejaVuSans-111"/>
     <use x="527.095703" xlink:href="#DejaVuSans-108"/>
    </g>
   </g>
  </g>
 </g>
 <defs>
  <clipPath id="pf3b1cfded0">
   <rect height="266.112" width="357.12" x="65.690625" y="22.318125"/>
  </clipPath>
 </defs>
</svg>
