<?xml version="1.0" encoding="utf-8" standalone="no"?>
<!DOCTYPE svg PUBLIC "-//W3C//DTD SVG 1.1//EN"
  "http://www.w3.org/Graphics/SVG/1.1/DTD/svg11.dtd">
<!-- Created with matplotlib (https://matplotlib.org/) -->
<svg height="364.091062pt" version="1.1" viewBox="0 0 430.010625 364.091062" width="430.010625pt" xmlns="http://www.w3.org/2000/svg" xmlns:xlink="http://www.w3.org/1999/xlink">
 <metadata>
  <rdf:RDF xmlns:cc="http://creativecommons.org/ns#" xmlns:dc="http://purl.org/dc/elements/1.1/" xmlns:rdf="http://www.w3.org/1999/02/22-rdf-syntax-ns#">
   <cc:Work>
    <dc:type rdf:resource="http://purl.org/dc/dcmitype/StillImage"/>
    <dc:date>2020-12-09T12:54:26.711826</dc:date>
    <dc:format>image/svg+xml</dc:format>
    <dc:creator>
     <cc:Agent>
      <dc:title>Matplotlib v3.3.3, https://matplotlib.org/</dc:title>
     </cc:Agent>
    </dc:creator>
   </cc:Work>
  </rdf:RDF>
 </metadata>
 <defs>
  <style type="text/css">*{stroke-linecap:butt;stroke-linejoin:round;}</style>
 </defs>
 <g id="figure_1">
  <g id="patch_1">
   <path d="M 0 364.091062 
L 430.010625 364.091062 
L 430.010625 0 
L 0 0 
z
" style="fill:#ffffff;"/>
  </g>
  <g id="axes_1">
   <g id="patch_2">
    <path d="M 65.690625 288.430125 
L 422.810625 288.430125 
L 422.810625 22.318125 
L 65.690625 22.318125 
z
" style="fill:#ffffff;"/>
   </g>
   <g id="patch_3">
    <path clip-path="url(#p394737040c)" d="M 65.822892 288.430125 
L 66.881025 288.430125 
L 66.881025 286.304284 
L 65.822892 286.304284 
z
" style="fill:#1f77b4;"/>
   </g>
   <g id="patch_4">
    <path clip-path="url(#p394737040c)" d="M 67.145558 288.430125 
L 68.203692 288.430125 
L 68.203692 285.912138 
L 67.145558 285.912138 
z
" style="fill:#1f77b4;"/>
   </g>
   <g id="patch_5">
    <path clip-path="url(#p394737040c)" d="M 68.468225 288.430125 
L 69.526358 288.430125 
L 69.526358 285.406477 
L 68.468225 285.406477 
z
" style="fill:#1f77b4;"/>
   </g>
   <g id="patch_6">
    <path clip-path="url(#p394737040c)" d="M 69.790892 288.430125 
L 70.849025 288.430125 
L 70.849025 284.477711 
L 69.790892 284.477711 
z
" style="fill:#1f77b4;"/>
   </g>
   <g id="patch_7">
    <path clip-path="url(#p394737040c)" d="M 71.113558 288.430125 
L 72.171692 288.430125 
L 72.171692 283.879173 
L 71.113558 283.879173 
z
" style="fill:#1f77b4;"/>
   </g>
   <g id="patch_8">
    <path clip-path="url(#p394737040c)" d="M 72.436225 288.430125 
L 73.494358 288.430125 
L 73.494358 282.702737 
L 72.436225 282.702737 
z
" style="fill:#1f77b4;"/>
   </g>
   <g id="patch_9">
    <path clip-path="url(#p394737040c)" d="M 73.758892 288.430125 
L 74.817025 288.430125 
L 74.817025 282.001003 
L 73.758892 282.001003 
z
" style="fill:#1f77b4;"/>
   </g>
   <g id="patch_10">
    <path clip-path="url(#p394737040c)" d="M 75.081558 288.430125 
L 76.139692 288.430125 
L 76.139692 281.392145 
L 75.081558 281.392145 
z
" style="fill:#1f77b4;"/>
   </g>
   <g id="patch_11">
    <path clip-path="url(#p394737040c)" d="M 76.404225 288.430125 
L 77.462358 288.430125 
L 77.462358 280.958721 
L 76.404225 280.958721 
z
" style="fill:#1f77b4;"/>
   </g>
   <g id="patch_12">
    <path clip-path="url(#p394737040c)" d="M 77.726892 288.430125 
L 78.785025 288.430125 
L 78.785025 280.287946 
L 77.726892 280.287946 
z
" style="fill:#1f77b4;"/>
   </g>
   <g id="patch_13">
    <path clip-path="url(#p394737040c)" d="M 79.049558 288.430125 
L 80.107692 288.430125 
L 80.107692 279.802924 
L 79.049558 279.802924 
z
" style="fill:#1f77b4;"/>
   </g>
   <g id="patch_14">
    <path clip-path="url(#p394737040c)" d="M 80.372225 288.430125 
L 81.430358 288.430125 
L 81.430358 279.039272 
L 80.372225 279.039272 
z
" style="fill:#1f77b4;"/>
   </g>
   <g id="patch_15">
    <path clip-path="url(#p394737040c)" d="M 81.694892 288.430125 
L 82.753025 288.430125 
L 82.753025 278.079548 
L 81.694892 278.079548 
z
" style="fill:#1f77b4;"/>
   </g>
   <g id="patch_16">
    <path clip-path="url(#p394737040c)" d="M 83.017558 288.430125 
L 84.075692 288.430125 
L 84.075692 277.264298 
L 83.017558 277.264298 
z
" style="fill:#1f77b4;"/>
   </g>
   <g id="patch_17">
    <path clip-path="url(#p394737040c)" d="M 84.340225 288.430125 
L 85.398358 288.430125 
L 85.398358 275.994985 
L 84.340225 275.994985 
z
" style="fill:#1f77b4;"/>
   </g>
   <g id="patch_18">
    <path clip-path="url(#p394737040c)" d="M 85.662892 288.430125 
L 86.721025 288.430125 
L 86.721025 275.097178 
L 85.662892 275.097178 
z
" style="fill:#1f77b4;"/>
   </g>
   <g id="patch_19">
    <path clip-path="url(#p394737040c)" d="M 86.985558 288.430125 
L 88.043692 288.430125 
L 88.043692 274.478001 
L 86.985558 274.478001 
z
" style="fill:#1f77b4;"/>
   </g>
   <g id="patch_20">
    <path clip-path="url(#p394737040c)" d="M 88.308225 288.430125 
L 89.366358 288.430125 
L 89.366358 274.003298 
L 88.308225 274.003298 
z
" style="fill:#1f77b4;"/>
   </g>
   <g id="patch_21">
    <path clip-path="url(#p394737040c)" d="M 89.630892 288.430125 
L 90.689025 288.430125 
L 90.689025 273.538916 
L 89.630892 273.538916 
z
" style="fill:#1f77b4;"/>
   </g>
   <g id="patch_22">
    <path clip-path="url(#p394737040c)" d="M 90.953558 288.430125 
L 92.011692 288.430125 
L 92.011692 272.723666 
L 90.953558 272.723666 
z
" style="fill:#1f77b4;"/>
   </g>
   <g id="patch_23">
    <path clip-path="url(#p394737040c)" d="M 92.276225 288.430125 
L 93.334358 288.430125 
L 93.334358 271.80522 
L 92.276225 271.80522 
z
" style="fill:#1f77b4;"/>
   </g>
   <g id="patch_24">
    <path clip-path="url(#p394737040c)" d="M 93.598892 288.430125 
L 94.657025 288.430125 
L 94.657025 271.371796 
L 93.598892 271.371796 
z
" style="fill:#1f77b4;"/>
   </g>
   <g id="patch_25">
    <path clip-path="url(#p394737040c)" d="M 94.921558 288.430125 
L 95.979692 288.430125 
L 95.979692 270.556546 
L 94.921558 270.556546 
z
" style="fill:#1f77b4;"/>
   </g>
   <g id="patch_26">
    <path clip-path="url(#p394737040c)" d="M 96.244225 288.430125 
L 97.302358 288.430125 
L 97.302358 269.947688 
L 96.244225 269.947688 
z
" style="fill:#1f77b4;"/>
   </g>
   <g id="patch_27">
    <path clip-path="url(#p394737040c)" d="M 97.566892 288.430125 
L 98.625025 288.430125 
L 98.625025 269.245954 
L 97.566892 269.245954 
z
" style="fill:#1f77b4;"/>
   </g>
   <g id="patch_28">
    <path clip-path="url(#p394737040c)" d="M 98.889558 288.430125 
L 99.947692 288.430125 
L 99.947692 268.709334 
L 98.889558 268.709334 
z
" style="fill:#1f77b4;"/>
   </g>
   <g id="patch_29">
    <path clip-path="url(#p394737040c)" d="M 100.212225 288.430125 
L 101.270358 288.430125 
L 101.270358 268.059198 
L 100.212225 268.059198 
z
" style="fill:#1f77b4;"/>
   </g>
   <g id="patch_30">
    <path clip-path="url(#p394737040c)" d="M 101.534892 288.430125 
L 102.593025 288.430125 
L 102.593025 267.367784 
L 101.534892 267.367784 
z
" style="fill:#1f77b4;"/>
   </g>
   <g id="patch_31">
    <path clip-path="url(#p394737040c)" d="M 102.857558 288.430125 
L 103.915692 288.430125 
L 103.915692 266.820844 
L 102.857558 266.820844 
z
" style="fill:#1f77b4;"/>
   </g>
   <g id="patch_32">
    <path clip-path="url(#p394737040c)" d="M 104.180225 288.430125 
L 105.238358 288.430125 
L 105.238358 266.294544 
L 104.180225 266.294544 
z
" style="fill:#1f77b4;"/>
   </g>
   <g id="patch_33">
    <path clip-path="url(#p394737040c)" d="M 105.502892 288.430125 
L 106.561025 288.430125 
L 106.561025 265.933357 
L 105.502892 265.933357 
z
" style="fill:#1f77b4;"/>
   </g>
   <g id="patch_34">
    <path clip-path="url(#p394737040c)" d="M 106.825558 288.430125 
L 107.883692 288.430125 
L 107.883692 265.479294 
L 106.825558 265.479294 
z
" style="fill:#1f77b4;"/>
   </g>
   <g id="patch_35">
    <path clip-path="url(#p394737040c)" d="M 108.148225 288.430125 
L 109.206358 288.430125 
L 109.206358 265.02523 
L 108.148225 265.02523 
z
" style="fill:#1f77b4;"/>
   </g>
   <g id="patch_36">
    <path clip-path="url(#p394737040c)" d="M 109.470892 288.430125 
L 110.529025 288.430125 
L 110.529025 264.736281 
L 109.470892 264.736281 
z
" style="fill:#1f77b4;"/>
   </g>
   <g id="patch_37">
    <path clip-path="url(#p394737040c)" d="M 110.793558 288.430125 
L 111.851692 288.430125 
L 111.851692 264.437012 
L 110.793558 264.437012 
z
" style="fill:#1f77b4;"/>
   </g>
   <g id="patch_38">
    <path clip-path="url(#p394737040c)" d="M 112.116225 288.430125 
L 113.174358 288.430125 
L 113.174358 263.869433 
L 112.116225 263.869433 
z
" style="fill:#1f77b4;"/>
   </g>
   <g id="patch_39">
    <path clip-path="url(#p394737040c)" d="M 113.438892 288.430125 
L 114.497025 288.430125 
L 114.497025 263.714639 
L 113.438892 263.714639 
z
" style="fill:#1f77b4;"/>
   </g>
   <g id="patch_40">
    <path clip-path="url(#p394737040c)" d="M 114.761558 288.430125 
L 115.819692 288.430125 
L 115.819692 263.539205 
L 114.761558 263.539205 
z
" style="fill:#1f77b4;"/>
   </g>
   <g id="patch_41">
    <path clip-path="url(#p394737040c)" d="M 116.084225 288.430125 
L 117.142358 288.430125 
L 117.142358 263.497927 
L 116.084225 263.497927 
z
" style="fill:#1f77b4;"/>
   </g>
   <g id="patch_42">
    <path clip-path="url(#p394737040c)" d="M 117.406892 288.430125 
L 118.465025 288.430125 
L 118.465025 263.301854 
L 117.406892 263.301854 
z
" style="fill:#1f77b4;"/>
   </g>
   <g id="patch_43">
    <path clip-path="url(#p394737040c)" d="M 118.729558 288.430125 
L 119.787692 288.430125 
L 119.787692 263.085142 
L 118.729558 263.085142 
z
" style="fill:#1f77b4;"/>
   </g>
   <g id="patch_44">
    <path clip-path="url(#p394737040c)" d="M 120.052225 288.430125 
L 121.110358 288.430125 
L 121.110358 262.87875 
L 120.052225 262.87875 
z
" style="fill:#1f77b4;"/>
   </g>
   <g id="patch_45">
    <path clip-path="url(#p394737040c)" d="M 121.374892 288.430125 
L 122.433025 288.430125 
L 122.433025 262.827152 
L 121.374892 262.827152 
z
" style="fill:#1f77b4;"/>
   </g>
   <g id="patch_46">
    <path clip-path="url(#p394737040c)" d="M 122.697558 288.430125 
L 123.755692 288.430125 
L 123.755692 262.672357 
L 122.697558 262.672357 
z
" style="fill:#1f77b4;"/>
   </g>
   <g id="patch_47">
    <path clip-path="url(#p394737040c)" d="M 124.020225 288.430125 
L 125.078358 288.430125 
L 125.078358 262.651718 
L 124.020225 262.651718 
z
" style="fill:#1f77b4;"/>
   </g>
   <g id="patch_48">
    <path clip-path="url(#p394737040c)" d="M 125.342892 288.430125 
L 126.401025 288.430125 
L 126.401025 262.558842 
L 125.342892 262.558842 
z
" style="fill:#1f77b4;"/>
   </g>
   <g id="patch_49">
    <path clip-path="url(#p394737040c)" d="M 126.665558 288.430125 
L 127.723692 288.430125 
L 127.723692 262.445326 
L 126.665558 262.445326 
z
" style="fill:#1f77b4;"/>
   </g>
   <g id="patch_50">
    <path clip-path="url(#p394737040c)" d="M 127.988225 288.430125 
L 129.046358 288.430125 
L 129.046358 262.34213 
L 127.988225 262.34213 
z
" style="fill:#1f77b4;"/>
   </g>
   <g id="patch_51">
    <path clip-path="url(#p394737040c)" d="M 129.310892 288.430125 
L 130.369025 288.430125 
L 130.369025 262.269892 
L 129.310892 262.269892 
z
" style="fill:#1f77b4;"/>
   </g>
   <g id="patch_52">
    <path clip-path="url(#p394737040c)" d="M 130.633558 288.430125 
L 131.691692 288.430125 
L 131.691692 262.259573 
L 130.633558 262.259573 
z
" style="fill:#1f77b4;"/>
   </g>
   <g id="patch_53">
    <path clip-path="url(#p394737040c)" d="M 131.956225 288.430125 
L 133.014358 288.430125 
L 133.014358 262.207975 
L 131.956225 262.207975 
z
" style="fill:#1f77b4;"/>
   </g>
   <g id="patch_54">
    <path clip-path="url(#p394737040c)" d="M 133.278892 288.430125 
L 134.337025 288.430125 
L 134.337025 262.197655 
L 133.278892 262.197655 
z
" style="fill:#1f77b4;"/>
   </g>
   <g id="patch_55">
    <path clip-path="url(#p394737040c)" d="M 134.601558 288.430125 
L 135.659692 288.430125 
L 135.659692 262.187335 
L 134.601558 262.187335 
z
" style="fill:#1f77b4;"/>
   </g>
   <g id="patch_56">
    <path clip-path="url(#p394737040c)" d="M 135.924225 288.430125 
L 136.982358 288.430125 
L 136.982358 262.094459 
L 135.924225 262.094459 
z
" style="fill:#1f77b4;"/>
   </g>
   <g id="patch_57">
    <path clip-path="url(#p394737040c)" d="M 137.246892 288.430125 
L 138.305025 288.430125 
L 138.305025 262.032541 
L 137.246892 262.032541 
z
" style="fill:#1f77b4;"/>
   </g>
   <g id="patch_58">
    <path clip-path="url(#p394737040c)" d="M 138.569558 288.430125 
L 139.627692 288.430125 
L 139.627692 261.939665 
L 138.569558 261.939665 
z
" style="fill:#1f77b4;"/>
   </g>
   <g id="patch_59">
    <path clip-path="url(#p394737040c)" d="M 139.892225 288.430125 
L 140.950358 288.430125 
L 140.950358 261.919025 
L 139.892225 261.919025 
z
" style="fill:#1f77b4;"/>
   </g>
   <g id="patch_60">
    <path clip-path="url(#p394737040c)" d="M 141.214892 288.430125 
L 142.273025 288.430125 
L 142.273025 261.888066 
L 141.214892 261.888066 
z
" style="fill:#1f77b4;"/>
   </g>
   <g id="patch_61">
    <path clip-path="url(#p394737040c)" d="M 142.537558 288.430125 
L 143.595692 288.430125 
L 143.595692 261.888066 
L 142.537558 261.888066 
z
" style="fill:#1f77b4;"/>
   </g>
   <g id="patch_62">
    <path clip-path="url(#p394737040c)" d="M 143.860225 288.430125 
L 144.918358 288.430125 
L 144.918358 261.857108 
L 143.860225 261.857108 
z
" style="fill:#1f77b4;"/>
   </g>
   <g id="patch_63">
    <path clip-path="url(#p394737040c)" d="M 145.182892 288.430125 
L 146.241025 288.430125 
L 146.241025 261.826149 
L 145.182892 261.826149 
z
" style="fill:#1f77b4;"/>
   </g>
   <g id="patch_64">
    <path clip-path="url(#p394737040c)" d="M 146.505558 288.430125 
L 147.563692 288.430125 
L 147.563692 261.826149 
L 146.505558 261.826149 
z
" style="fill:#1f77b4;"/>
   </g>
   <g id="patch_65">
    <path clip-path="url(#p394737040c)" d="M 147.828225 288.430125 
L 148.886358 288.430125 
L 148.886358 261.826149 
L 147.828225 261.826149 
z
" style="fill:#1f77b4;"/>
   </g>
   <g id="patch_66">
    <path clip-path="url(#p394737040c)" d="M 149.150892 288.430125 
L 150.209025 288.430125 
L 150.209025 261.805509 
L 149.150892 261.805509 
z
" style="fill:#1f77b4;"/>
   </g>
   <g id="patch_67">
    <path clip-path="url(#p394737040c)" d="M 150.473558 288.430125 
L 151.531692 288.430125 
L 151.531692 261.78487 
L 150.473558 261.78487 
z
" style="fill:#1f77b4;"/>
   </g>
   <g id="patch_68">
    <path clip-path="url(#p394737040c)" d="M 151.796225 288.430125 
L 152.854358 288.430125 
L 152.854358 261.733272 
L 151.796225 261.733272 
z
" style="fill:#1f77b4;"/>
   </g>
   <g id="patch_69">
    <path clip-path="url(#p394737040c)" d="M 153.118892 288.430125 
L 154.177025 288.430125 
L 154.177025 261.733272 
L 153.118892 261.733272 
z
" style="fill:#1f77b4;"/>
   </g>
   <g id="patch_70">
    <path clip-path="url(#p394737040c)" d="M 154.441558 288.430125 
L 155.499692 288.430125 
L 155.499692 261.733272 
L 154.441558 261.733272 
z
" style="fill:#1f77b4;"/>
   </g>
   <g id="patch_71">
    <path clip-path="url(#p394737040c)" d="M 155.764225 288.430125 
L 156.822358 288.430125 
L 156.822358 261.702313 
L 155.764225 261.702313 
z
" style="fill:#1f77b4;"/>
   </g>
   <g id="patch_72">
    <path clip-path="url(#p394737040c)" d="M 157.086892 288.430125 
L 158.145025 288.430125 
L 158.145025 261.702313 
L 157.086892 261.702313 
z
" style="fill:#1f77b4;"/>
   </g>
   <g id="patch_73">
    <path clip-path="url(#p394737040c)" d="M 158.409558 288.430125 
L 159.467692 288.430125 
L 159.467692 261.681674 
L 158.409558 261.681674 
z
" style="fill:#1f77b4;"/>
   </g>
   <g id="patch_74">
    <path clip-path="url(#p394737040c)" d="M 159.732225 288.430125 
L 160.790358 288.430125 
L 160.790358 261.681674 
L 159.732225 261.681674 
z
" style="fill:#1f77b4;"/>
   </g>
   <g id="patch_75">
    <path clip-path="url(#p394737040c)" d="M 161.054892 288.430125 
L 162.113025 288.430125 
L 162.113025 261.671354 
L 161.054892 261.671354 
z
" style="fill:#1f77b4;"/>
   </g>
   <g id="patch_76">
    <path clip-path="url(#p394737040c)" d="M 162.377558 288.430125 
L 163.435692 288.430125 
L 163.435692 261.671354 
L 162.377558 261.671354 
z
" style="fill:#1f77b4;"/>
   </g>
   <g id="patch_77">
    <path clip-path="url(#p394737040c)" d="M 163.700225 288.430125 
L 164.758358 288.430125 
L 164.758358 261.650715 
L 163.700225 261.650715 
z
" style="fill:#1f77b4;"/>
   </g>
   <g id="patch_78">
    <path clip-path="url(#p394737040c)" d="M 165.022892 288.430125 
L 166.081025 288.430125 
L 166.081025 261.650715 
L 165.022892 261.650715 
z
" style="fill:#1f77b4;"/>
   </g>
   <g id="patch_79">
    <path clip-path="url(#p394737040c)" d="M 166.345558 288.430125 
L 167.403692 288.430125 
L 167.403692 261.640396 
L 166.345558 261.640396 
z
" style="fill:#1f77b4;"/>
   </g>
   <g id="patch_80">
    <path clip-path="url(#p394737040c)" d="M 167.668225 288.430125 
L 168.726358 288.430125 
L 168.726358 261.630076 
L 167.668225 261.630076 
z
" style="fill:#1f77b4;"/>
   </g>
   <g id="patch_81">
    <path clip-path="url(#p394737040c)" d="M 168.990892 288.430125 
L 170.049025 288.430125 
L 170.049025 261.630076 
L 168.990892 261.630076 
z
" style="fill:#1f77b4;"/>
   </g>
   <g id="patch_82">
    <path clip-path="url(#p394737040c)" d="M 170.313558 288.430125 
L 171.371692 288.430125 
L 171.371692 261.630076 
L 170.313558 261.630076 
z
" style="fill:#1f77b4;"/>
   </g>
   <g id="patch_83">
    <path clip-path="url(#p394737040c)" d="M 171.636225 288.430125 
L 172.694358 288.430125 
L 172.694358 261.630076 
L 171.636225 261.630076 
z
" style="fill:#1f77b4;"/>
   </g>
   <g id="patch_84">
    <path clip-path="url(#p394737040c)" d="M 172.958892 288.430125 
L 174.017025 288.430125 
L 174.017025 261.630076 
L 172.958892 261.630076 
z
" style="fill:#1f77b4;"/>
   </g>
   <g id="patch_85">
    <path clip-path="url(#p394737040c)" d="M 174.281558 288.430125 
L 175.339692 288.430125 
L 175.339692 261.619756 
L 174.281558 261.619756 
z
" style="fill:#1f77b4;"/>
   </g>
   <g id="patch_86">
    <path clip-path="url(#p394737040c)" d="M 175.604225 288.430125 
L 176.662358 288.430125 
L 176.662358 261.609437 
L 175.604225 261.609437 
z
" style="fill:#1f77b4;"/>
   </g>
   <g id="patch_87">
    <path clip-path="url(#p394737040c)" d="M 176.926892 288.430125 
L 177.985025 288.430125 
L 177.985025 261.578478 
L 176.926892 261.578478 
z
" style="fill:#1f77b4;"/>
   </g>
   <g id="patch_88">
    <path clip-path="url(#p394737040c)" d="M 178.249558 288.430125 
L 179.307692 288.430125 
L 179.307692 261.578478 
L 178.249558 261.578478 
z
" style="fill:#1f77b4;"/>
   </g>
   <g id="patch_89">
    <path clip-path="url(#p394737040c)" d="M 179.572225 288.430125 
L 180.630358 288.430125 
L 180.630358 261.578478 
L 179.572225 261.578478 
z
" style="fill:#1f77b4;"/>
   </g>
   <g id="patch_90">
    <path clip-path="url(#p394737040c)" d="M 180.894892 288.430125 
L 181.953025 288.430125 
L 181.953025 261.578478 
L 180.894892 261.578478 
z
" style="fill:#1f77b4;"/>
   </g>
   <g id="patch_91">
    <path clip-path="url(#p394737040c)" d="M 182.217558 288.430125 
L 183.275692 288.430125 
L 183.275692 261.537199 
L 182.217558 261.537199 
z
" style="fill:#1f77b4;"/>
   </g>
   <g id="patch_92">
    <path clip-path="url(#p394737040c)" d="M 183.540225 288.430125 
L 184.598358 288.430125 
L 184.598358 261.51656 
L 183.540225 261.51656 
z
" style="fill:#1f77b4;"/>
   </g>
   <g id="patch_93">
    <path clip-path="url(#p394737040c)" d="M 184.862892 288.430125 
L 185.921025 288.430125 
L 185.921025 261.495921 
L 184.862892 261.495921 
z
" style="fill:#1f77b4;"/>
   </g>
   <g id="patch_94">
    <path clip-path="url(#p394737040c)" d="M 186.185558 288.430125 
L 187.243692 288.430125 
L 187.243692 261.485601 
L 186.185558 261.485601 
z
" style="fill:#1f77b4;"/>
   </g>
   <g id="patch_95">
    <path clip-path="url(#p394737040c)" d="M 187.508225 288.430125 
L 188.566358 288.430125 
L 188.566358 261.485601 
L 187.508225 261.485601 
z
" style="fill:#1f77b4;"/>
   </g>
   <g id="patch_96">
    <path clip-path="url(#p394737040c)" d="M 188.830892 288.430125 
L 189.889025 288.430125 
L 189.889025 261.485601 
L 188.830892 261.485601 
z
" style="fill:#1f77b4;"/>
   </g>
   <g id="patch_97">
    <path clip-path="url(#p394737040c)" d="M 190.153558 288.430125 
L 191.211692 288.430125 
L 191.211692 261.485601 
L 190.153558 261.485601 
z
" style="fill:#1f77b4;"/>
   </g>
   <g id="patch_98">
    <path clip-path="url(#p394737040c)" d="M 191.476225 288.430125 
L 192.534358 288.430125 
L 192.534358 261.464962 
L 191.476225 261.464962 
z
" style="fill:#1f77b4;"/>
   </g>
   <g id="patch_99">
    <path clip-path="url(#p394737040c)" d="M 192.798892 288.430125 
L 193.857025 288.430125 
L 193.857025 261.444323 
L 192.798892 261.444323 
z
" style="fill:#1f77b4;"/>
   </g>
   <g id="patch_100">
    <path clip-path="url(#p394737040c)" d="M 194.121558 288.430125 
L 195.179692 288.430125 
L 195.179692 261.413364 
L 194.121558 261.413364 
z
" style="fill:#1f77b4;"/>
   </g>
   <g id="patch_101">
    <path clip-path="url(#p394737040c)" d="M 195.444225 288.430125 
L 196.502358 288.430125 
L 196.502358 261.372086 
L 195.444225 261.372086 
z
" style="fill:#1f77b4;"/>
   </g>
   <g id="patch_102">
    <path clip-path="url(#p394737040c)" d="M 196.766892 288.430125 
L 197.825025 288.430125 
L 197.825025 261.25857 
L 196.766892 261.25857 
z
" style="fill:#1f77b4;"/>
   </g>
   <g id="patch_103">
    <path clip-path="url(#p394737040c)" d="M 198.089558 288.430125 
L 199.147692 288.430125 
L 199.147692 261.25857 
L 198.089558 261.25857 
z
" style="fill:#1f77b4;"/>
   </g>
   <g id="patch_104">
    <path clip-path="url(#p394737040c)" d="M 199.412225 288.430125 
L 200.470358 288.430125 
L 200.470358 261.24825 
L 199.412225 261.24825 
z
" style="fill:#1f77b4;"/>
   </g>
   <g id="patch_105">
    <path clip-path="url(#p394737040c)" d="M 200.734892 288.430125 
L 201.793025 288.430125 
L 201.793025 261.24825 
L 200.734892 261.24825 
z
" style="fill:#1f77b4;"/>
   </g>
   <g id="patch_106">
    <path clip-path="url(#p394737040c)" d="M 202.057558 288.430125 
L 203.115692 288.430125 
L 203.115692 261.24825 
L 202.057558 261.24825 
z
" style="fill:#1f77b4;"/>
   </g>
   <g id="patch_107">
    <path clip-path="url(#p394737040c)" d="M 203.380225 288.430125 
L 204.438358 288.430125 
L 204.438358 261.227611 
L 203.380225 261.227611 
z
" style="fill:#1f77b4;"/>
   </g>
   <g id="patch_108">
    <path clip-path="url(#p394737040c)" d="M 204.702892 288.430125 
L 205.761025 288.430125 
L 205.761025 261.217291 
L 204.702892 261.217291 
z
" style="fill:#1f77b4;"/>
   </g>
   <g id="patch_109">
    <path clip-path="url(#p394737040c)" d="M 206.025558 288.430125 
L 207.083692 288.430125 
L 207.083692 261.196652 
L 206.025558 261.196652 
z
" style="fill:#1f77b4;"/>
   </g>
   <g id="patch_110">
    <path clip-path="url(#p394737040c)" d="M 207.348225 288.430125 
L 208.406358 288.430125 
L 208.406358 261.196652 
L 207.348225 261.196652 
z
" style="fill:#1f77b4;"/>
   </g>
   <g id="patch_111">
    <path clip-path="url(#p394737040c)" d="M 208.670892 288.430125 
L 209.729025 288.430125 
L 209.729025 261.176013 
L 208.670892 261.176013 
z
" style="fill:#1f77b4;"/>
   </g>
   <g id="patch_112">
    <path clip-path="url(#p394737040c)" d="M 209.993558 288.430125 
L 211.051692 288.430125 
L 211.051692 261.165693 
L 209.993558 261.165693 
z
" style="fill:#1f77b4;"/>
   </g>
   <g id="patch_113">
    <path clip-path="url(#p394737040c)" d="M 211.316225 288.430125 
L 212.374358 288.430125 
L 212.374358 261.165693 
L 211.316225 261.165693 
z
" style="fill:#1f77b4;"/>
   </g>
   <g id="patch_114">
    <path clip-path="url(#p394737040c)" d="M 212.638892 288.430125 
L 213.697025 288.430125 
L 213.697025 261.124415 
L 212.638892 261.124415 
z
" style="fill:#1f77b4;"/>
   </g>
   <g id="patch_115">
    <path clip-path="url(#p394737040c)" d="M 213.961558 288.430125 
L 215.019692 288.430125 
L 215.019692 261.114095 
L 213.961558 261.114095 
z
" style="fill:#1f77b4;"/>
   </g>
   <g id="patch_116">
    <path clip-path="url(#p394737040c)" d="M 215.284225 288.430125 
L 216.342358 288.430125 
L 216.342358 261.114095 
L 215.284225 261.114095 
z
" style="fill:#1f77b4;"/>
   </g>
   <g id="patch_117">
    <path clip-path="url(#p394737040c)" d="M 216.606892 288.430125 
L 217.665025 288.430125 
L 217.665025 261.103775 
L 216.606892 261.103775 
z
" style="fill:#1f77b4;"/>
   </g>
   <g id="patch_118">
    <path clip-path="url(#p394737040c)" d="M 217.929558 288.430125 
L 218.987692 288.430125 
L 218.987692 261.083136 
L 217.929558 261.083136 
z
" style="fill:#1f77b4;"/>
   </g>
   <g id="patch_119">
    <path clip-path="url(#p394737040c)" d="M 219.252225 288.430125 
L 220.310358 288.430125 
L 220.310358 261.052177 
L 219.252225 261.052177 
z
" style="fill:#1f77b4;"/>
   </g>
   <g id="patch_120">
    <path clip-path="url(#p394737040c)" d="M 220.574892 288.430125 
L 221.633025 288.430125 
L 221.633025 261.000579 
L 220.574892 261.000579 
z
" style="fill:#1f77b4;"/>
   </g>
   <g id="patch_121">
    <path clip-path="url(#p394737040c)" d="M 221.897558 288.430125 
L 222.955692 288.430125 
L 222.955692 260.96962 
L 221.897558 260.96962 
z
" style="fill:#1f77b4;"/>
   </g>
   <g id="patch_122">
    <path clip-path="url(#p394737040c)" d="M 223.220225 288.430125 
L 224.278358 288.430125 
L 224.278358 260.918022 
L 223.220225 260.918022 
z
" style="fill:#1f77b4;"/>
   </g>
   <g id="patch_123">
    <path clip-path="url(#p394737040c)" d="M 224.542892 288.430125 
L 225.601025 288.430125 
L 225.601025 260.845785 
L 224.542892 260.845785 
z
" style="fill:#1f77b4;"/>
   </g>
   <g id="patch_124">
    <path clip-path="url(#p394737040c)" d="M 225.865558 288.430125 
L 226.923692 288.430125 
L 226.923692 260.835465 
L 225.865558 260.835465 
z
" style="fill:#1f77b4;"/>
   </g>
   <g id="patch_125">
    <path clip-path="url(#p394737040c)" d="M 227.188225 288.430125 
L 228.246358 288.430125 
L 228.246358 260.804507 
L 227.188225 260.804507 
z
" style="fill:#1f77b4;"/>
   </g>
   <g id="patch_126">
    <path clip-path="url(#p394737040c)" d="M 228.510892 288.430125 
L 229.569025 288.430125 
L 229.569025 260.794187 
L 228.510892 260.794187 
z
" style="fill:#1f77b4;"/>
   </g>
   <g id="patch_127">
    <path clip-path="url(#p394737040c)" d="M 229.833558 288.430125 
L 230.891692 288.430125 
L 230.891692 260.752908 
L 229.833558 260.752908 
z
" style="fill:#1f77b4;"/>
   </g>
   <g id="patch_128">
    <path clip-path="url(#p394737040c)" d="M 231.156225 288.430125 
L 232.214358 288.430125 
L 232.214358 260.742589 
L 231.156225 260.742589 
z
" style="fill:#1f77b4;"/>
   </g>
   <g id="patch_129">
    <path clip-path="url(#p394737040c)" d="M 232.478892 288.430125 
L 233.537025 288.430125 
L 233.537025 260.732269 
L 232.478892 260.732269 
z
" style="fill:#1f77b4;"/>
   </g>
   <g id="patch_130">
    <path clip-path="url(#p394737040c)" d="M 233.801558 288.430125 
L 234.859692 288.430125 
L 234.859692 260.732269 
L 233.801558 260.732269 
z
" style="fill:#1f77b4;"/>
   </g>
   <g id="patch_131">
    <path clip-path="url(#p394737040c)" d="M 235.124225 288.430125 
L 236.182358 288.430125 
L 236.182358 260.72195 
L 235.124225 260.72195 
z
" style="fill:#1f77b4;"/>
   </g>
   <g id="patch_132">
    <path clip-path="url(#p394737040c)" d="M 236.446892 288.430125 
L 237.505025 288.430125 
L 237.505025 260.72195 
L 236.446892 260.72195 
z
" style="fill:#1f77b4;"/>
   </g>
   <g id="patch_133">
    <path clip-path="url(#p394737040c)" d="M 237.769558 288.430125 
L 238.827692 288.430125 
L 238.827692 260.71163 
L 237.769558 260.71163 
z
" style="fill:#1f77b4;"/>
   </g>
   <g id="patch_134">
    <path clip-path="url(#p394737040c)" d="M 239.092225 288.430125 
L 240.150358 288.430125 
L 240.150358 260.70131 
L 239.092225 260.70131 
z
" style="fill:#1f77b4;"/>
   </g>
   <g id="patch_135">
    <path clip-path="url(#p394737040c)" d="M 240.414892 288.430125 
L 241.473025 288.430125 
L 241.473025 260.639393 
L 240.414892 260.639393 
z
" style="fill:#1f77b4;"/>
   </g>
   <g id="patch_136">
    <path clip-path="url(#p394737040c)" d="M 241.737558 288.430125 
L 242.795692 288.430125 
L 242.795692 260.587795 
L 241.737558 260.587795 
z
" style="fill:#1f77b4;"/>
   </g>
   <g id="patch_137">
    <path clip-path="url(#p394737040c)" d="M 243.060225 288.430125 
L 244.118358 288.430125 
L 244.118358 260.567155 
L 243.060225 260.567155 
z
" style="fill:#1f77b4;"/>
   </g>
   <g id="patch_138">
    <path clip-path="url(#p394737040c)" d="M 244.382892 288.430125 
L 245.441025 288.430125 
L 245.441025 260.649712 
L 244.382892 260.649712 
z
" style="fill:#1f77b4;"/>
   </g>
   <g id="patch_139">
    <path clip-path="url(#p394737040c)" d="M 245.705558 288.430125 
L 246.763692 288.430125 
L 246.763692 260.608434 
L 245.705558 260.608434 
z
" style="fill:#1f77b4;"/>
   </g>
   <g id="patch_140">
    <path clip-path="url(#p394737040c)" d="M 247.028225 288.430125 
L 248.086358 288.430125 
L 248.086358 260.546516 
L 247.028225 260.546516 
z
" style="fill:#1f77b4;"/>
   </g>
   <g id="patch_141">
    <path clip-path="url(#p394737040c)" d="M 248.350892 288.430125 
L 249.409025 288.430125 
L 249.409025 260.391722 
L 248.350892 260.391722 
z
" style="fill:#1f77b4;"/>
   </g>
   <g id="patch_142">
    <path clip-path="url(#p394737040c)" d="M 249.673558 288.430125 
L 250.731692 288.430125 
L 250.731692 260.309165 
L 249.673558 260.309165 
z
" style="fill:#1f77b4;"/>
   </g>
   <g id="patch_143">
    <path clip-path="url(#p394737040c)" d="M 250.996225 288.430125 
L 252.054358 288.430125 
L 252.054358 260.278206 
L 250.996225 260.278206 
z
" style="fill:#1f77b4;"/>
   </g>
   <g id="patch_144">
    <path clip-path="url(#p394737040c)" d="M 252.318892 288.430125 
L 253.377025 288.430125 
L 253.377025 260.216288 
L 252.318892 260.216288 
z
" style="fill:#1f77b4;"/>
   </g>
   <g id="patch_145">
    <path clip-path="url(#p394737040c)" d="M 253.641558 288.430125 
L 254.699692 288.430125 
L 254.699692 260.144051 
L 253.641558 260.144051 
z
" style="fill:#1f77b4;"/>
   </g>
   <g id="patch_146">
    <path clip-path="url(#p394737040c)" d="M 254.964225 288.430125 
L 256.022358 288.430125 
L 256.022358 260.102772 
L 254.964225 260.102772 
z
" style="fill:#1f77b4;"/>
   </g>
   <g id="patch_147">
    <path clip-path="url(#p394737040c)" d="M 256.286892 288.430125 
L 257.345025 288.430125 
L 257.345025 259.978937 
L 256.286892 259.978937 
z
" style="fill:#1f77b4;"/>
   </g>
   <g id="patch_148">
    <path clip-path="url(#p394737040c)" d="M 257.609558 288.430125 
L 258.667692 288.430125 
L 258.667692 259.937659 
L 257.609558 259.937659 
z
" style="fill:#1f77b4;"/>
   </g>
   <g id="patch_149">
    <path clip-path="url(#p394737040c)" d="M 258.932225 288.430125 
L 259.990358 288.430125 
L 259.990358 259.88606 
L 258.932225 259.88606 
z
" style="fill:#1f77b4;"/>
   </g>
   <g id="patch_150">
    <path clip-path="url(#p394737040c)" d="M 260.254892 288.430125 
L 261.313025 288.430125 
L 261.313025 259.813823 
L 260.254892 259.813823 
z
" style="fill:#1f77b4;"/>
   </g>
   <g id="patch_151">
    <path clip-path="url(#p394737040c)" d="M 261.577558 288.430125 
L 262.635692 288.430125 
L 262.635692 259.803504 
L 261.577558 259.803504 
z
" style="fill:#1f77b4;"/>
   </g>
   <g id="patch_152">
    <path clip-path="url(#p394737040c)" d="M 262.900225 288.430125 
L 263.958358 288.430125 
L 263.958358 259.793184 
L 262.900225 259.793184 
z
" style="fill:#1f77b4;"/>
   </g>
   <g id="patch_153">
    <path clip-path="url(#p394737040c)" d="M 264.222892 288.430125 
L 265.281025 288.430125 
L 265.281025 259.751905 
L 264.222892 259.751905 
z
" style="fill:#1f77b4;"/>
   </g>
   <g id="patch_154">
    <path clip-path="url(#p394737040c)" d="M 265.545558 288.430125 
L 266.603692 288.430125 
L 266.603692 259.731266 
L 265.545558 259.731266 
z
" style="fill:#1f77b4;"/>
   </g>
   <g id="patch_155">
    <path clip-path="url(#p394737040c)" d="M 266.868225 288.430125 
L 267.926358 288.430125 
L 267.926358 259.700307 
L 266.868225 259.700307 
z
" style="fill:#1f77b4;"/>
   </g>
   <g id="patch_156">
    <path clip-path="url(#p394737040c)" d="M 268.190892 288.430125 
L 269.249025 288.430125 
L 269.249025 259.607431 
L 268.190892 259.607431 
z
" style="fill:#1f77b4;"/>
   </g>
   <g id="patch_157">
    <path clip-path="url(#p394737040c)" d="M 269.513558 288.430125 
L 270.571692 288.430125 
L 270.571692 259.514554 
L 269.513558 259.514554 
z
" style="fill:#1f77b4;"/>
   </g>
   <g id="patch_158">
    <path clip-path="url(#p394737040c)" d="M 270.836225 288.430125 
L 271.894358 288.430125 
L 271.894358 259.493915 
L 270.836225 259.493915 
z
" style="fill:#1f77b4;"/>
   </g>
   <g id="patch_159">
    <path clip-path="url(#p394737040c)" d="M 272.158892 288.430125 
L 273.217025 288.430125 
L 273.217025 259.493915 
L 272.158892 259.493915 
z
" style="fill:#1f77b4;"/>
   </g>
   <g id="patch_160">
    <path clip-path="url(#p394737040c)" d="M 273.481558 288.430125 
L 274.539692 288.430125 
L 274.539692 259.421678 
L 273.481558 259.421678 
z
" style="fill:#1f77b4;"/>
   </g>
   <g id="patch_161">
    <path clip-path="url(#p394737040c)" d="M 274.804225 288.430125 
L 275.862358 288.430125 
L 275.862358 259.204966 
L 274.804225 259.204966 
z
" style="fill:#1f77b4;"/>
   </g>
   <g id="patch_162">
    <path clip-path="url(#p394737040c)" d="M 276.126892 288.430125 
L 277.185025 288.430125 
L 277.185025 259.153368 
L 276.126892 259.153368 
z
" style="fill:#1f77b4;"/>
   </g>
   <g id="patch_163">
    <path clip-path="url(#p394737040c)" d="M 277.449558 288.430125 
L 278.507692 288.430125 
L 278.507692 258.988254 
L 277.449558 258.988254 
z
" style="fill:#1f77b4;"/>
   </g>
   <g id="patch_164">
    <path clip-path="url(#p394737040c)" d="M 278.772225 288.430125 
L 279.830358 288.430125 
L 279.830358 258.82314 
L 278.772225 258.82314 
z
" style="fill:#1f77b4;"/>
   </g>
   <g id="patch_165">
    <path clip-path="url(#p394737040c)" d="M 280.094892 288.430125 
L 281.153025 288.430125 
L 281.153025 258.668345 
L 280.094892 258.668345 
z
" style="fill:#1f77b4;"/>
   </g>
   <g id="patch_166">
    <path clip-path="url(#p394737040c)" d="M 281.417558 288.430125 
L 282.475692 288.430125 
L 282.475692 258.575469 
L 281.417558 258.575469 
z
" style="fill:#1f77b4;"/>
   </g>
   <g id="patch_167">
    <path clip-path="url(#p394737040c)" d="M 282.740225 288.430125 
L 283.798358 288.430125 
L 283.798358 258.523871 
L 282.740225 258.523871 
z
" style="fill:#1f77b4;"/>
   </g>
   <g id="patch_168">
    <path clip-path="url(#p394737040c)" d="M 284.062892 288.430125 
L 285.121025 288.430125 
L 285.121025 258.430994 
L 284.062892 258.430994 
z
" style="fill:#1f77b4;"/>
   </g>
   <g id="patch_169">
    <path clip-path="url(#p394737040c)" d="M 285.385558 288.430125 
L 286.443692 288.430125 
L 286.443692 258.348437 
L 285.385558 258.348437 
z
" style="fill:#1f77b4;"/>
   </g>
   <g id="patch_170">
    <path clip-path="url(#p394737040c)" d="M 286.708225 288.430125 
L 287.766358 288.430125 
L 287.766358 258.255561 
L 286.708225 258.255561 
z
" style="fill:#1f77b4;"/>
   </g>
   <g id="patch_171">
    <path clip-path="url(#p394737040c)" d="M 288.030892 288.430125 
L 289.089025 288.430125 
L 289.089025 258.173004 
L 288.030892 258.173004 
z
" style="fill:#1f77b4;"/>
   </g>
   <g id="patch_172">
    <path clip-path="url(#p394737040c)" d="M 289.353558 288.430125 
L 290.411692 288.430125 
L 290.411692 258.142045 
L 289.353558 258.142045 
z
" style="fill:#1f77b4;"/>
   </g>
   <g id="patch_173">
    <path clip-path="url(#p394737040c)" d="M 290.676225 288.430125 
L 291.734358 288.430125 
L 291.734358 258.00789 
L 290.676225 258.00789 
z
" style="fill:#1f77b4;"/>
   </g>
   <g id="patch_174">
    <path clip-path="url(#p394737040c)" d="M 291.998892 288.430125 
L 293.057025 288.430125 
L 293.057025 257.904694 
L 291.998892 257.904694 
z
" style="fill:#1f77b4;"/>
   </g>
   <g id="patch_175">
    <path clip-path="url(#p394737040c)" d="M 293.321558 288.430125 
L 294.379692 288.430125 
L 294.379692 257.863415 
L 293.321558 257.863415 
z
" style="fill:#1f77b4;"/>
   </g>
   <g id="patch_176">
    <path clip-path="url(#p394737040c)" d="M 294.644225 288.430125 
L 295.702358 288.430125 
L 295.702358 257.749899 
L 294.644225 257.749899 
z
" style="fill:#1f77b4;"/>
   </g>
   <g id="patch_177">
    <path clip-path="url(#p394737040c)" d="M 295.966892 288.430125 
L 297.025025 288.430125 
L 297.025025 257.512548 
L 295.966892 257.512548 
z
" style="fill:#1f77b4;"/>
   </g>
   <g id="patch_178">
    <path clip-path="url(#p394737040c)" d="M 297.289558 288.430125 
L 298.347692 288.430125 
L 298.347692 257.440311 
L 297.289558 257.440311 
z
" style="fill:#1f77b4;"/>
   </g>
   <g id="patch_179">
    <path clip-path="url(#p394737040c)" d="M 298.612225 288.430125 
L 299.670358 288.430125 
L 299.670358 257.440311 
L 298.612225 257.440311 
z
" style="fill:#1f77b4;"/>
   </g>
   <g id="patch_180">
    <path clip-path="url(#p394737040c)" d="M 299.934892 288.430125 
L 300.993025 288.430125 
L 300.993025 257.399032 
L 299.934892 257.399032 
z
" style="fill:#1f77b4;"/>
   </g>
   <g id="patch_181">
    <path clip-path="url(#p394737040c)" d="M 301.257558 288.430125 
L 302.315692 288.430125 
L 302.315692 257.295836 
L 301.257558 257.295836 
z
" style="fill:#1f77b4;"/>
   </g>
   <g id="patch_182">
    <path clip-path="url(#p394737040c)" d="M 302.580225 288.430125 
L 303.638358 288.430125 
L 303.638358 257.089444 
L 302.580225 257.089444 
z
" style="fill:#1f77b4;"/>
   </g>
   <g id="patch_183">
    <path clip-path="url(#p394737040c)" d="M 303.902892 288.430125 
L 304.961025 288.430125 
L 304.961025 256.821134 
L 303.902892 256.821134 
z
" style="fill:#1f77b4;"/>
   </g>
   <g id="patch_184">
    <path clip-path="url(#p394737040c)" d="M 305.225558 288.430125 
L 306.283692 288.430125 
L 306.283692 256.563143 
L 305.225558 256.563143 
z
" style="fill:#1f77b4;"/>
   </g>
   <g id="patch_185">
    <path clip-path="url(#p394737040c)" d="M 306.548225 288.430125 
L 307.606358 288.430125 
L 307.606358 256.150359 
L 306.548225 256.150359 
z
" style="fill:#1f77b4;"/>
   </g>
   <g id="patch_186">
    <path clip-path="url(#p394737040c)" d="M 307.870892 288.430125 
L 308.929025 288.430125 
L 308.929025 256.078121 
L 307.870892 256.078121 
z
" style="fill:#1f77b4;"/>
   </g>
   <g id="patch_187">
    <path clip-path="url(#p394737040c)" d="M 309.193558 288.430125 
L 310.251692 288.430125 
L 310.251692 255.861409 
L 309.193558 255.861409 
z
" style="fill:#1f77b4;"/>
   </g>
   <g id="patch_188">
    <path clip-path="url(#p394737040c)" d="M 310.516225 288.430125 
L 311.574358 288.430125 
L 311.574358 255.737574 
L 310.516225 255.737574 
z
" style="fill:#1f77b4;"/>
   </g>
   <g id="patch_189">
    <path clip-path="url(#p394737040c)" d="M 311.838892 288.430125 
L 312.897025 288.430125 
L 312.897025 255.58278 
L 311.838892 255.58278 
z
" style="fill:#1f77b4;"/>
   </g>
   <g id="patch_190">
    <path clip-path="url(#p394737040c)" d="M 313.161558 288.430125 
L 314.219692 288.430125 
L 314.219692 254.839767 
L 313.161558 254.839767 
z
" style="fill:#1f77b4;"/>
   </g>
   <g id="patch_191">
    <path clip-path="url(#p394737040c)" d="M 314.484225 288.430125 
L 315.542358 288.430125 
L 315.542358 254.571457 
L 314.484225 254.571457 
z
" style="fill:#1f77b4;"/>
   </g>
   <g id="patch_192">
    <path clip-path="url(#p394737040c)" d="M 315.806892 288.430125 
L 316.865025 288.430125 
L 316.865025 254.365065 
L 315.806892 254.365065 
z
" style="fill:#1f77b4;"/>
   </g>
   <g id="patch_193">
    <path clip-path="url(#p394737040c)" d="M 317.129558 288.430125 
L 318.187692 288.430125 
L 318.187692 254.158672 
L 317.129558 254.158672 
z
" style="fill:#1f77b4;"/>
   </g>
   <g id="patch_194">
    <path clip-path="url(#p394737040c)" d="M 318.452225 288.430125 
L 319.510358 288.430125 
L 319.510358 254.076115 
L 318.452225 254.076115 
z
" style="fill:#1f77b4;"/>
   </g>
   <g id="patch_195">
    <path clip-path="url(#p394737040c)" d="M 319.774892 288.430125 
L 320.833025 288.430125 
L 320.833025 253.766527 
L 319.774892 253.766527 
z
" style="fill:#1f77b4;"/>
   </g>
   <g id="patch_196">
    <path clip-path="url(#p394737040c)" d="M 321.097558 288.430125 
L 322.155692 288.430125 
L 322.155692 253.487897 
L 321.097558 253.487897 
z
" style="fill:#1f77b4;"/>
   </g>
   <g id="patch_197">
    <path clip-path="url(#p394737040c)" d="M 322.420225 288.430125 
L 323.478358 288.430125 
L 323.478358 252.951277 
L 322.420225 252.951277 
z
" style="fill:#1f77b4;"/>
   </g>
   <g id="patch_198">
    <path clip-path="url(#p394737040c)" d="M 323.742892 288.430125 
L 324.801025 288.430125 
L 324.801025 252.652008 
L 323.742892 252.652008 
z
" style="fill:#1f77b4;"/>
   </g>
   <g id="patch_199">
    <path clip-path="url(#p394737040c)" d="M 325.065558 288.430125 
L 326.123692 288.430125 
L 326.123692 252.424976 
L 325.065558 252.424976 
z
" style="fill:#1f77b4;"/>
   </g>
   <g id="patch_200">
    <path clip-path="url(#p394737040c)" d="M 326.388225 288.430125 
L 327.446358 288.430125 
L 327.446358 252.166986 
L 326.388225 252.166986 
z
" style="fill:#1f77b4;"/>
   </g>
   <g id="patch_201">
    <path clip-path="url(#p394737040c)" d="M 327.710892 288.430125 
L 328.769025 288.430125 
L 328.769025 252.084429 
L 327.710892 252.084429 
z
" style="fill:#1f77b4;"/>
   </g>
   <g id="patch_202">
    <path clip-path="url(#p394737040c)" d="M 329.033558 288.430125 
L 330.091692 288.430125 
L 330.091692 251.908995 
L 329.033558 251.908995 
z
" style="fill:#1f77b4;"/>
   </g>
   <g id="patch_203">
    <path clip-path="url(#p394737040c)" d="M 330.356225 288.430125 
L 331.414358 288.430125 
L 331.414358 251.609727 
L 330.356225 251.609727 
z
" style="fill:#1f77b4;"/>
   </g>
   <g id="patch_204">
    <path clip-path="url(#p394737040c)" d="M 331.678892 288.430125 
L 332.737025 288.430125 
L 332.737025 251.413654 
L 331.678892 251.413654 
z
" style="fill:#1f77b4;"/>
   </g>
   <g id="patch_205">
    <path clip-path="url(#p394737040c)" d="M 333.001558 288.430125 
L 334.059692 288.430125 
L 334.059692 251.145344 
L 333.001558 251.145344 
z
" style="fill:#1f77b4;"/>
   </g>
   <g id="patch_206">
    <path clip-path="url(#p394737040c)" d="M 334.324225 288.430125 
L 335.382358 288.430125 
L 335.382358 250.815116 
L 334.324225 250.815116 
z
" style="fill:#1f77b4;"/>
   </g>
   <g id="patch_207">
    <path clip-path="url(#p394737040c)" d="M 335.646892 288.430125 
L 336.705025 288.430125 
L 336.705025 250.639682 
L 335.646892 250.639682 
z
" style="fill:#1f77b4;"/>
   </g>
   <g id="patch_208">
    <path clip-path="url(#p394737040c)" d="M 336.969558 288.430125 
L 338.027692 288.430125 
L 338.027692 250.464249 
L 336.969558 250.464249 
z
" style="fill:#1f77b4;"/>
   </g>
   <g id="patch_209">
    <path clip-path="url(#p394737040c)" d="M 338.292225 288.430125 
L 339.350358 288.430125 
L 339.350358 249.89667 
L 338.292225 249.89667 
z
" style="fill:#1f77b4;"/>
   </g>
   <g id="patch_210">
    <path clip-path="url(#p394737040c)" d="M 339.614892 288.430125 
L 340.673025 288.430125 
L 340.673025 249.184616 
L 339.614892 249.184616 
z
" style="fill:#1f77b4;"/>
   </g>
   <g id="patch_211">
    <path clip-path="url(#p394737040c)" d="M 340.937558 288.430125 
L 341.995692 288.430125 
L 341.995692 248.307449 
L 340.937558 248.307449 
z
" style="fill:#1f77b4;"/>
   </g>
   <g id="patch_212">
    <path clip-path="url(#p394737040c)" d="M 342.260225 288.430125 
L 343.318358 288.430125 
L 343.318358 247.358044 
L 342.260225 247.358044 
z
" style="fill:#1f77b4;"/>
   </g>
   <g id="patch_213">
    <path clip-path="url(#p394737040c)" d="M 343.582892 288.430125 
L 344.641025 288.430125 
L 344.641025 246.491196 
L 343.582892 246.491196 
z
" style="fill:#1f77b4;"/>
   </g>
   <g id="patch_214">
    <path clip-path="url(#p394737040c)" d="M 344.905558 288.430125 
L 345.963692 288.430125 
L 345.963692 246.026813 
L 344.905558 246.026813 
z
" style="fill:#1f77b4;"/>
   </g>
   <g id="patch_215">
    <path clip-path="url(#p394737040c)" d="M 346.228225 288.430125 
L 347.286358 288.430125 
L 347.286358 245.675946 
L 346.228225 245.675946 
z
" style="fill:#1f77b4;"/>
   </g>
   <g id="patch_216">
    <path clip-path="url(#p394737040c)" d="M 347.550892 288.430125 
L 348.609025 288.430125 
L 348.609025 244.396313 
L 347.550892 244.396313 
z
" style="fill:#1f77b4;"/>
   </g>
   <g id="patch_217">
    <path clip-path="url(#p394737040c)" d="M 348.873558 288.430125 
L 349.931692 288.430125 
L 349.931692 243.384991 
L 348.873558 243.384991 
z
" style="fill:#1f77b4;"/>
   </g>
   <g id="patch_218">
    <path clip-path="url(#p394737040c)" d="M 350.196225 288.430125 
L 351.254358 288.430125 
L 351.254358 242.064079 
L 350.196225 242.064079 
z
" style="fill:#1f77b4;"/>
   </g>
   <g id="patch_219">
    <path clip-path="url(#p394737040c)" d="M 351.518892 288.430125 
L 352.577025 288.430125 
L 352.577025 240.464539 
L 351.518892 240.464539 
z
" style="fill:#1f77b4;"/>
   </g>
   <g id="patch_220">
    <path clip-path="url(#p394737040c)" d="M 352.841558 288.430125 
L 353.899692 288.430125 
L 353.899692 238.699884 
L 352.841558 238.699884 
z
" style="fill:#1f77b4;"/>
   </g>
   <g id="patch_221">
    <path clip-path="url(#p394737040c)" d="M 354.164225 288.430125 
L 355.222358 288.430125 
L 355.222358 237.822716 
L 354.164225 237.822716 
z
" style="fill:#1f77b4;"/>
   </g>
   <g id="patch_222">
    <path clip-path="url(#p394737040c)" d="M 355.486892 288.430125 
L 356.545025 288.430125 
L 356.545025 235.665916 
L 355.486892 235.665916 
z
" style="fill:#1f77b4;"/>
   </g>
   <g id="patch_223">
    <path clip-path="url(#p394737040c)" d="M 356.809558 288.430125 
L 357.867692 288.430125 
L 357.867692 233.715508 
L 356.809558 233.715508 
z
" style="fill:#1f77b4;"/>
   </g>
   <g id="patch_224">
    <path clip-path="url(#p394737040c)" d="M 358.132225 288.430125 
L 359.190358 288.430125 
L 359.190358 231.166562 
L 358.132225 231.166562 
z
" style="fill:#1f77b4;"/>
   </g>
   <g id="patch_225">
    <path clip-path="url(#p394737040c)" d="M 359.454892 288.430125 
L 360.513025 288.430125 
L 360.513025 228.390585 
L 359.454892 228.390585 
z
" style="fill:#1f77b4;"/>
   </g>
   <g id="patch_226">
    <path clip-path="url(#p394737040c)" d="M 360.777558 288.430125 
L 361.835692 288.430125 
L 361.835692 225.532051 
L 360.777558 225.532051 
z
" style="fill:#1f77b4;"/>
   </g>
   <g id="patch_227">
    <path clip-path="url(#p394737040c)" d="M 362.100225 288.430125 
L 363.158358 288.430125 
L 363.158358 222.0337 
L 362.100225 222.0337 
z
" style="fill:#1f77b4;"/>
   </g>
   <g id="patch_228">
    <path clip-path="url(#p394737040c)" d="M 363.422892 288.430125 
L 364.481025 288.430125 
L 364.481025 218.721103 
L 363.422892 218.721103 
z
" style="fill:#1f77b4;"/>
   </g>
   <g id="patch_229">
    <path clip-path="url(#p394737040c)" d="M 364.745558 288.430125 
L 365.803692 288.430125 
L 365.803692 216.223755 
L 364.745558 216.223755 
z
" style="fill:#1f77b4;"/>
   </g>
   <g id="patch_230">
    <path clip-path="url(#p394737040c)" d="M 366.068225 288.430125 
L 367.126358 288.430125 
L 367.126358 214.263027 
L 366.068225 214.263027 
z
" style="fill:#1f77b4;"/>
   </g>
   <g id="patch_231">
    <path clip-path="url(#p394737040c)" d="M 367.390892 288.430125 
L 368.449025 288.430125 
L 368.449025 211.187781 
L 367.390892 211.187781 
z
" style="fill:#1f77b4;"/>
   </g>
   <g id="patch_232">
    <path clip-path="url(#p394737040c)" d="M 368.713558 288.430125 
L 369.771692 288.430125 
L 369.771692 207.575915 
L 368.713558 207.575915 
z
" style="fill:#1f77b4;"/>
   </g>
   <g id="patch_233">
    <path clip-path="url(#p394737040c)" d="M 370.036225 288.430125 
L 371.094358 288.430125 
L 371.094358 201.931083 
L 370.036225 201.931083 
z
" style="fill:#1f77b4;"/>
   </g>
   <g id="patch_234">
    <path clip-path="url(#p394737040c)" d="M 371.358892 288.430125 
L 372.417025 288.430125 
L 372.417025 196.420407 
L 371.358892 196.420407 
z
" style="fill:#1f77b4;"/>
   </g>
   <g id="patch_235">
    <path clip-path="url(#p394737040c)" d="M 372.681558 288.430125 
L 373.739692 288.430125 
L 373.739692 191.910734 
L 372.681558 191.910734 
z
" style="fill:#1f77b4;"/>
   </g>
   <g id="patch_236">
    <path clip-path="url(#p394737040c)" d="M 374.004225 288.430125 
L 375.062358 288.430125 
L 375.062358 186.802523 
L 374.004225 186.802523 
z
" style="fill:#1f77b4;"/>
   </g>
   <g id="patch_237">
    <path clip-path="url(#p394737040c)" d="M 375.326892 288.430125 
L 376.385025 288.430125 
L 376.385025 184.232938 
L 375.326892 184.232938 
z
" style="fill:#1f77b4;"/>
   </g>
   <g id="patch_238">
    <path clip-path="url(#p394737040c)" d="M 376.649558 288.430125 
L 377.707692 288.430125 
L 377.707692 176.369389 
L 376.649558 176.369389 
z
" style="fill:#1f77b4;"/>
   </g>
   <g id="patch_239">
    <path clip-path="url(#p394737040c)" d="M 377.972225 288.430125 
L 379.030358 288.430125 
L 379.030358 169.02182 
L 377.972225 169.02182 
z
" style="fill:#1f77b4;"/>
   </g>
   <g id="patch_240">
    <path clip-path="url(#p394737040c)" d="M 379.294892 288.430125 
L 380.353025 288.430125 
L 380.353025 161.034436 
L 379.294892 161.034436 
z
" style="fill:#1f77b4;"/>
   </g>
   <g id="patch_241">
    <path clip-path="url(#p394737040c)" d="M 380.617558 288.430125 
L 381.675692 288.430125 
L 381.675692 152.974814 
L 380.617558 152.974814 
z
" style="fill:#1f77b4;"/>
   </g>
   <g id="patch_242">
    <path clip-path="url(#p394737040c)" d="M 381.940225 288.430125 
L 382.998358 288.430125 
L 382.998358 146.958476 
L 381.940225 146.958476 
z
" style="fill:#1f77b4;"/>
   </g>
   <g id="patch_243">
    <path clip-path="url(#p394737040c)" d="M 383.262892 288.430125 
L 384.321025 288.430125 
L 384.321025 143.088619 
L 383.262892 143.088619 
z
" style="fill:#1f77b4;"/>
   </g>
   <g id="patch_244">
    <path clip-path="url(#p394737040c)" d="M 384.585558 288.430125 
L 385.643692 288.430125 
L 385.643692 139.105247 
L 384.585558 139.105247 
z
" style="fill:#1f77b4;"/>
   </g>
   <g id="patch_245">
    <path clip-path="url(#p394737040c)" d="M 385.908225 288.430125 
L 386.966358 288.430125 
L 386.966358 131.943431 
L 385.908225 131.943431 
z
" style="fill:#1f77b4;"/>
   </g>
   <g id="patch_246">
    <path clip-path="url(#p394737040c)" d="M 387.230892 288.430125 
L 388.289025 288.430125 
L 388.289025 123.481344 
L 387.230892 123.481344 
z
" style="fill:#1f77b4;"/>
   </g>
   <g id="patch_247">
    <path clip-path="url(#p394737040c)" d="M 388.553558 288.430125 
L 389.611692 288.430125 
L 389.611692 116.360808 
L 388.553558 116.360808 
z
" style="fill:#1f77b4;"/>
   </g>
   <g id="patch_248">
    <path clip-path="url(#p394737040c)" d="M 389.876225 288.430125 
L 390.934358 288.430125 
L 390.934358 109.880087 
L 389.876225 109.880087 
z
" style="fill:#1f77b4;"/>
   </g>
   <g id="patch_249">
    <path clip-path="url(#p394737040c)" d="M 391.198892 288.430125 
L 392.257025 288.430125 
L 392.257025 104.266215 
L 391.198892 104.266215 
z
" style="fill:#1f77b4;"/>
   </g>
   <g id="patch_250">
    <path clip-path="url(#p394737040c)" d="M 392.521558 288.430125 
L 393.579692 288.430125 
L 393.579692 101.603753 
L 392.521558 101.603753 
z
" style="fill:#1f77b4;"/>
   </g>
   <g id="patch_251">
    <path clip-path="url(#p394737040c)" d="M 393.844225 288.430125 
L 394.902358 288.430125 
L 394.902358 95.608055 
L 393.844225 95.608055 
z
" style="fill:#1f77b4;"/>
   </g>
   <g id="patch_252">
    <path clip-path="url(#p394737040c)" d="M 395.166892 288.430125 
L 396.225025 288.430125 
L 396.225025 88.425601 
L 395.166892 88.425601 
z
" style="fill:#1f77b4;"/>
   </g>
   <g id="patch_253">
    <path clip-path="url(#p394737040c)" d="M 396.489558 288.430125 
L 397.547692 288.430125 
L 397.547692 80.830361 
L 396.489558 80.830361 
z
" style="fill:#1f77b4;"/>
   </g>
   <g id="patch_254">
    <path clip-path="url(#p394737040c)" d="M 397.812225 288.430125 
L 398.870358 288.430125 
L 398.870358 75.175211 
L 397.812225 75.175211 
z
" style="fill:#1f77b4;"/>
   </g>
   <g id="patch_255">
    <path clip-path="url(#p394737040c)" d="M 399.134892 288.430125 
L 400.193025 288.430125 
L 400.193025 69.654215 
L 399.134892 69.654215 
z
" style="fill:#1f77b4;"/>
   </g>
   <g id="patch_256">
    <path clip-path="url(#p394737040c)" d="M 400.457558 288.430125 
L 401.515692 288.430125 
L 401.515692 66.971114 
L 400.457558 66.971114 
z
" style="fill:#1f77b4;"/>
   </g>
   <g id="patch_257">
    <path clip-path="url(#p394737040c)" d="M 401.780225 288.430125 
L 402.838358 288.430125 
L 402.838358 65.319975 
L 401.780225 65.319975 
z
" style="fill:#1f77b4;"/>
   </g>
   <g id="patch_258">
    <path clip-path="url(#p394737040c)" d="M 403.102892 288.430125 
L 404.161025 288.430125 
L 404.161025 61.800985 
L 403.102892 61.800985 
z
" style="fill:#1f77b4;"/>
   </g>
   <g id="patch_259">
    <path clip-path="url(#p394737040c)" d="M 404.425558 288.430125 
L 405.483692 288.430125 
L 405.483692 58.787656 
L 404.425558 58.787656 
z
" style="fill:#1f77b4;"/>
   </g>
   <g id="patch_260">
    <path clip-path="url(#p394737040c)" d="M 405.748225 288.430125 
L 406.806358 288.430125 
L 406.806358 54.556613 
L 405.748225 54.556613 
z
" style="fill:#1f77b4;"/>
   </g>
   <g id="patch_261">
    <path clip-path="url(#p394737040c)" d="M 407.070892 288.430125 
L 408.129025 288.430125 
L 408.129025 49.458721 
L 407.070892 49.458721 
z
" style="fill:#1f77b4;"/>
   </g>
   <g id="patch_262">
    <path clip-path="url(#p394737040c)" d="M 408.393558 288.430125 
L 409.451692 288.430125 
L 409.451692 44.949048 
L 408.393558 44.949048 
z
" style="fill:#1f77b4;"/>
   </g>
   <g id="patch_263">
    <path clip-path="url(#p394737040c)" d="M 409.716225 288.430125 
L 410.774358 288.430125 
L 410.774358 43.060558 
L 409.716225 43.060558 
z
" style="fill:#1f77b4;"/>
   </g>
   <g id="patch_264">
    <path clip-path="url(#p394737040c)" d="M 411.038892 288.430125 
L 412.097025 288.430125 
L 412.097025 42.090514 
L 411.038892 42.090514 
z
" style="fill:#1f77b4;"/>
   </g>
   <g id="patch_265">
    <path clip-path="url(#p394737040c)" d="M 412.361558 288.430125 
L 413.419692 288.430125 
L 413.419692 38.819195 
L 412.361558 38.819195 
z
" style="fill:#1f77b4;"/>
   </g>
   <g id="patch_266">
    <path clip-path="url(#p394737040c)" d="M 413.684225 288.430125 
L 414.742358 288.430125 
L 414.742358 34.959658 
L 413.684225 34.959658 
z
" style="fill:#1f77b4;"/>
   </g>
   <g id="patch_267">
    <path clip-path="url(#p394737040c)" d="M 415.006892 288.430125 
L 416.065025 288.430125 
L 416.065025 32.018566 
L 415.006892 32.018566 
z
" style="fill:#1f77b4;"/>
   </g>
   <g id="patch_268">
    <path clip-path="url(#p394737040c)" d="M 416.329558 288.430125 
L 417.387692 288.430125 
L 417.387692 29.273548 
L 416.329558 29.273548 
z
" style="fill:#1f77b4;"/>
   </g>
   <g id="patch_269">
    <path clip-path="url(#p394737040c)" d="M 417.652225 288.430125 
L 418.710358 288.430125 
L 418.710358 26.714282 
L 417.652225 26.714282 
z
" style="fill:#1f77b4;"/>
   </g>
   <g id="patch_270">
    <path clip-path="url(#p394737040c)" d="M 418.974892 288.430125 
L 420.033025 288.430125 
L 420.033025 25.527526 
L 418.974892 25.527526 
z
" style="fill:#1f77b4;"/>
   </g>
   <g id="patch_271">
    <path clip-path="url(#p394737040c)" d="M 420.297558 288.430125 
L 421.355692 288.430125 
L 421.355692 24.712276 
L 420.297558 24.712276 
z
" style="fill:#1f77b4;"/>
   </g>
   <g id="patch_272">
    <path clip-path="url(#p394737040c)" d="M 421.620225 288.430125 
L 422.678358 288.430125 
L 422.678358 22.318125 
L 421.620225 22.318125 
z
" style="fill:#1f77b4;"/>
   </g>
   <g id="matplotlib.axis_1">
    <g id="xtick_1">
     <g id="line2d_1">
      <defs>
       <path d="M 0 0 
L 0 3.5 
" id="m1554eb3f42" style="stroke:#000000;stroke-width:0.8;"/>
      </defs>
      <g>
       <use style="stroke:#000000;stroke-width:0.8;" x="88.837292" xlink:href="#m1554eb3f42" y="288.430125"/>
      </g>
     </g>
     <g id="text_1">
      <!-- 2020-04 -->
      <g transform="translate(91.596667 337.212937)rotate(-90)scale(0.1 -0.1)">
       <defs>
        <path d="M 19.1875 8.296875 
L 53.609375 8.296875 
L 53.609375 0 
L 7.328125 0 
L 7.328125 8.296875 
Q 12.9375 14.109375 22.625 23.890625 
Q 32.328125 33.6875 34.8125 36.53125 
Q 39.546875 41.84375 41.421875 45.53125 
Q 43.3125 49.21875 43.3125 52.78125 
Q 43.3125 58.59375 39.234375 62.25 
Q 35.15625 65.921875 28.609375 65.921875 
Q 23.96875 65.921875 18.8125 64.3125 
Q 13.671875 62.703125 7.8125 59.421875 
L 7.8125 69.390625 
Q 13.765625 71.78125 18.9375 73 
Q 24.125 74.21875 28.421875 74.21875 
Q 39.75 74.21875 46.484375 68.546875 
Q 53.21875 62.890625 53.21875 53.421875 
Q 53.21875 48.921875 51.53125 44.890625 
Q 49.859375 40.875 45.40625 35.40625 
Q 44.1875 33.984375 37.640625 27.21875 
Q 31.109375 20.453125 19.1875 8.296875 
z
" id="DejaVuSans-50"/>
        <path d="M 31.78125 66.40625 
Q 24.171875 66.40625 20.328125 58.90625 
Q 16.5 51.421875 16.5 36.375 
Q 16.5 21.390625 20.328125 13.890625 
Q 24.171875 6.390625 31.78125 6.390625 
Q 39.453125 6.390625 43.28125 13.890625 
Q 47.125 21.390625 47.125 36.375 
Q 47.125 51.421875 43.28125 58.90625 
Q 39.453125 66.40625 31.78125 66.40625 
z
M 31.78125 74.21875 
Q 44.046875 74.21875 50.515625 64.515625 
Q 56.984375 54.828125 56.984375 36.375 
Q 56.984375 17.96875 50.515625 8.265625 
Q 44.046875 -1.421875 31.78125 -1.421875 
Q 19.53125 -1.421875 13.0625 8.265625 
Q 6.59375 17.96875 6.59375 36.375 
Q 6.59375 54.828125 13.0625 64.515625 
Q 19.53125 74.21875 31.78125 74.21875 
z
" id="DejaVuSans-48"/>
        <path d="M 4.890625 31.390625 
L 31.203125 31.390625 
L 31.203125 23.390625 
L 4.890625 23.390625 
z
" id="DejaVuSans-45"/>
        <path d="M 37.796875 64.3125 
L 12.890625 25.390625 
L 37.796875 25.390625 
z
M 35.203125 72.90625 
L 47.609375 72.90625 
L 47.609375 25.390625 
L 58.015625 25.390625 
L 58.015625 17.1875 
L 47.609375 17.1875 
L 47.609375 0 
L 37.796875 0 
L 37.796875 17.1875 
L 4.890625 17.1875 
L 4.890625 26.703125 
z
" id="DejaVuSans-52"/>
       </defs>
       <use xlink:href="#DejaVuSans-50"/>
       <use x="63.623047" xlink:href="#DejaVuSans-48"/>
       <use x="127.246094" xlink:href="#DejaVuSans-50"/>
       <use x="190.869141" xlink:href="#DejaVuSans-48"/>
       <use x="254.492188" xlink:href="#DejaVuSans-45"/>
       <use x="290.576172" xlink:href="#DejaVuSans-48"/>
       <use x="354.199219" xlink:href="#DejaVuSans-52"/>
      </g>
     </g>
    </g>
    <g id="xtick_2">
     <g id="line2d_2">
      <g>
       <use style="stroke:#000000;stroke-width:0.8;" x="128.517292" xlink:href="#m1554eb3f42" y="288.430125"/>
      </g>
     </g>
     <g id="text_2">
      <!-- 2020-05 -->
      <g transform="translate(131.276667 337.212937)rotate(-90)scale(0.1 -0.1)">
       <defs>
        <path d="M 10.796875 72.90625 
L 49.515625 72.90625 
L 49.515625 64.59375 
L 19.828125 64.59375 
L 19.828125 46.734375 
Q 21.96875 47.46875 24.109375 47.828125 
Q 26.265625 48.1875 28.421875 48.1875 
Q 40.625 48.1875 47.75 41.5 
Q 54.890625 34.8125 54.890625 23.390625 
Q 54.890625 11.625 47.5625 5.09375 
Q 40.234375 -1.421875 26.90625 -1.421875 
Q 22.3125 -1.421875 17.546875 -0.640625 
Q 12.796875 0.140625 7.71875 1.703125 
L 7.71875 11.625 
Q 12.109375 9.234375 16.796875 8.0625 
Q 21.484375 6.890625 26.703125 6.890625 
Q 35.15625 6.890625 40.078125 11.328125 
Q 45.015625 15.765625 45.015625 23.390625 
Q 45.015625 31 40.078125 35.4375 
Q 35.15625 39.890625 26.703125 39.890625 
Q 22.75 39.890625 18.8125 39.015625 
Q 14.890625 38.140625 10.796875 36.28125 
z
" id="DejaVuSans-53"/>
       </defs>
       <use xlink:href="#DejaVuSans-50"/>
       <use x="63.623047" xlink:href="#DejaVuSans-48"/>
       <use x="127.246094" xlink:href="#DejaVuSans-50"/>
       <use x="190.869141" xlink:href="#DejaVuSans-48"/>
       <use x="254.492188" xlink:href="#DejaVuSans-45"/>
       <use x="290.576172" xlink:href="#DejaVuSans-48"/>
       <use x="354.199219" xlink:href="#DejaVuSans-53"/>
      </g>
     </g>
    </g>
    <g id="xtick_3">
     <g id="line2d_3">
      <g>
       <use style="stroke:#000000;stroke-width:0.8;" x="169.519958" xlink:href="#m1554eb3f42" y="288.430125"/>
      </g>
     </g>
     <g id="text_3">
      <!-- 2020-06 -->
      <g transform="translate(172.279333 337.212937)rotate(-90)scale(0.1 -0.1)">
       <defs>
        <path d="M 33.015625 40.375 
Q 26.375 40.375 22.484375 35.828125 
Q 18.609375 31.296875 18.609375 23.390625 
Q 18.609375 15.53125 22.484375 10.953125 
Q 26.375 6.390625 33.015625 6.390625 
Q 39.65625 6.390625 43.53125 10.953125 
Q 47.40625 15.53125 47.40625 23.390625 
Q 47.40625 31.296875 43.53125 35.828125 
Q 39.65625 40.375 33.015625 40.375 
z
M 52.59375 71.296875 
L 52.59375 62.3125 
Q 48.875 64.0625 45.09375 64.984375 
Q 41.3125 65.921875 37.59375 65.921875 
Q 27.828125 65.921875 22.671875 59.328125 
Q 17.53125 52.734375 16.796875 39.40625 
Q 19.671875 43.65625 24.015625 45.921875 
Q 28.375 48.1875 33.59375 48.1875 
Q 44.578125 48.1875 50.953125 41.515625 
Q 57.328125 34.859375 57.328125 23.390625 
Q 57.328125 12.15625 50.6875 5.359375 
Q 44.046875 -1.421875 33.015625 -1.421875 
Q 20.359375 -1.421875 13.671875 8.265625 
Q 6.984375 17.96875 6.984375 36.375 
Q 6.984375 53.65625 15.1875 63.9375 
Q 23.390625 74.21875 37.203125 74.21875 
Q 40.921875 74.21875 44.703125 73.484375 
Q 48.484375 72.75 52.59375 71.296875 
z
" id="DejaVuSans-54"/>
       </defs>
       <use xlink:href="#DejaVuSans-50"/>
       <use x="63.623047" xlink:href="#DejaVuSans-48"/>
       <use x="127.246094" xlink:href="#DejaVuSans-50"/>
       <use x="190.869141" xlink:href="#DejaVuSans-48"/>
       <use x="254.492188" xlink:href="#DejaVuSans-45"/>
       <use x="290.576172" xlink:href="#DejaVuSans-48"/>
       <use x="354.199219" xlink:href="#DejaVuSans-54"/>
      </g>
     </g>
    </g>
    <g id="xtick_4">
     <g id="line2d_4">
      <g>
       <use style="stroke:#000000;stroke-width:0.8;" x="209.199958" xlink:href="#m1554eb3f42" y="288.430125"/>
      </g>
     </g>
     <g id="text_4">
      <!-- 2020-07 -->
      <g transform="translate(211.959333 337.212937)rotate(-90)scale(0.1 -0.1)">
       <defs>
        <path d="M 8.203125 72.90625 
L 55.078125 72.90625 
L 55.078125 68.703125 
L 28.609375 0 
L 18.3125 0 
L 43.21875 64.59375 
L 8.203125 64.59375 
z
" id="DejaVuSans-55"/>
       </defs>
       <use xlink:href="#DejaVuSans-50"/>
       <use x="63.623047" xlink:href="#DejaVuSans-48"/>
       <use x="127.246094" xlink:href="#DejaVuSans-50"/>
       <use x="190.869141" xlink:href="#DejaVuSans-48"/>
       <use x="254.492188" xlink:href="#DejaVuSans-45"/>
       <use x="290.576172" xlink:href="#DejaVuSans-48"/>
       <use x="354.199219" xlink:href="#DejaVuSans-55"/>
      </g>
     </g>
    </g>
    <g id="xtick_5">
     <g id="line2d_5">
      <g>
       <use style="stroke:#000000;stroke-width:0.8;" x="250.202625" xlink:href="#m1554eb3f42" y="288.430125"/>
      </g>
     </g>
     <g id="text_5">
      <!-- 2020-08 -->
      <g transform="translate(252.962 337.212937)rotate(-90)scale(0.1 -0.1)">
       <defs>
        <path d="M 31.78125 34.625 
Q 24.75 34.625 20.71875 30.859375 
Q 16.703125 27.09375 16.703125 20.515625 
Q 16.703125 13.921875 20.71875 10.15625 
Q 24.75 6.390625 31.78125 6.390625 
Q 38.8125 6.390625 42.859375 10.171875 
Q 46.921875 13.96875 46.921875 20.515625 
Q 46.921875 27.09375 42.890625 30.859375 
Q 38.875 34.625 31.78125 34.625 
z
M 21.921875 38.8125 
Q 15.578125 40.375 12.03125 44.71875 
Q 8.5 49.078125 8.5 55.328125 
Q 8.5 64.0625 14.71875 69.140625 
Q 20.953125 74.21875 31.78125 74.21875 
Q 42.671875 74.21875 48.875 69.140625 
Q 55.078125 64.0625 55.078125 55.328125 
Q 55.078125 49.078125 51.53125 44.71875 
Q 48 40.375 41.703125 38.8125 
Q 48.828125 37.15625 52.796875 32.3125 
Q 56.78125 27.484375 56.78125 20.515625 
Q 56.78125 9.90625 50.3125 4.234375 
Q 43.84375 -1.421875 31.78125 -1.421875 
Q 19.734375 -1.421875 13.25 4.234375 
Q 6.78125 9.90625 6.78125 20.515625 
Q 6.78125 27.484375 10.78125 32.3125 
Q 14.796875 37.15625 21.921875 38.8125 
z
M 18.3125 54.390625 
Q 18.3125 48.734375 21.84375 45.5625 
Q 25.390625 42.390625 31.78125 42.390625 
Q 38.140625 42.390625 41.71875 45.5625 
Q 45.3125 48.734375 45.3125 54.390625 
Q 45.3125 60.0625 41.71875 63.234375 
Q 38.140625 66.40625 31.78125 66.40625 
Q 25.390625 66.40625 21.84375 63.234375 
Q 18.3125 60.0625 18.3125 54.390625 
z
" id="DejaVuSans-56"/>
       </defs>
       <use xlink:href="#DejaVuSans-50"/>
       <use x="63.623047" xlink:href="#DejaVuSans-48"/>
       <use x="127.246094" xlink:href="#DejaVuSans-50"/>
       <use x="190.869141" xlink:href="#DejaVuSans-48"/>
       <use x="254.492188" xlink:href="#DejaVuSans-45"/>
       <use x="290.576172" xlink:href="#DejaVuSans-48"/>
       <use x="354.199219" xlink:href="#DejaVuSans-56"/>
      </g>
     </g>
    </g>
    <g id="xtick_6">
     <g id="line2d_6">
      <g>
       <use style="stroke:#000000;stroke-width:0.8;" x="291.205292" xlink:href="#m1554eb3f42" y="288.430125"/>
      </g>
     </g>
     <g id="text_6">
      <!-- 2020-09 -->
      <g transform="translate(293.964667 337.212937)rotate(-90)scale(0.1 -0.1)">
       <defs>
        <path d="M 10.984375 1.515625 
L 10.984375 10.5 
Q 14.703125 8.734375 18.5 7.8125 
Q 22.3125 6.890625 25.984375 6.890625 
Q 35.75 6.890625 40.890625 13.453125 
Q 46.046875 20.015625 46.78125 33.40625 
Q 43.953125 29.203125 39.59375 26.953125 
Q 35.25 24.703125 29.984375 24.703125 
Q 19.046875 24.703125 12.671875 31.3125 
Q 6.296875 37.9375 6.296875 49.421875 
Q 6.296875 60.640625 12.9375 67.421875 
Q 19.578125 74.21875 30.609375 74.21875 
Q 43.265625 74.21875 49.921875 64.515625 
Q 56.59375 54.828125 56.59375 36.375 
Q 56.59375 19.140625 48.40625 8.859375 
Q 40.234375 -1.421875 26.421875 -1.421875 
Q 22.703125 -1.421875 18.890625 -0.6875 
Q 15.09375 0.046875 10.984375 1.515625 
z
M 30.609375 32.421875 
Q 37.25 32.421875 41.125 36.953125 
Q 45.015625 41.5 45.015625 49.421875 
Q 45.015625 57.28125 41.125 61.84375 
Q 37.25 66.40625 30.609375 66.40625 
Q 23.96875 66.40625 20.09375 61.84375 
Q 16.21875 57.28125 16.21875 49.421875 
Q 16.21875 41.5 20.09375 36.953125 
Q 23.96875 32.421875 30.609375 32.421875 
z
" id="DejaVuSans-57"/>
       </defs>
       <use xlink:href="#DejaVuSans-50"/>
       <use x="63.623047" xlink:href="#DejaVuSans-48"/>
       <use x="127.246094" xlink:href="#DejaVuSans-50"/>
       <use x="190.869141" xlink:href="#DejaVuSans-48"/>
       <use x="254.492188" xlink:href="#DejaVuSans-45"/>
       <use x="290.576172" xlink:href="#DejaVuSans-48"/>
       <use x="354.199219" xlink:href="#DejaVuSans-57"/>
      </g>
     </g>
    </g>
    <g id="xtick_7">
     <g id="line2d_7">
      <g>
       <use style="stroke:#000000;stroke-width:0.8;" x="330.885292" xlink:href="#m1554eb3f42" y="288.430125"/>
      </g>
     </g>
     <g id="text_7">
      <!-- 2020-10 -->
      <g transform="translate(333.644667 337.212937)rotate(-90)scale(0.1 -0.1)">
       <defs>
        <path d="M 12.40625 8.296875 
L 28.515625 8.296875 
L 28.515625 63.921875 
L 10.984375 60.40625 
L 10.984375 69.390625 
L 28.421875 72.90625 
L 38.28125 72.90625 
L 38.28125 8.296875 
L 54.390625 8.296875 
L 54.390625 0 
L 12.40625 0 
z
" id="DejaVuSans-49"/>
       </defs>
       <use xlink:href="#DejaVuSans-50"/>
       <use x="63.623047" xlink:href="#DejaVuSans-48"/>
       <use x="127.246094" xlink:href="#DejaVuSans-50"/>
       <use x="190.869141" xlink:href="#DejaVuSans-48"/>
       <use x="254.492188" xlink:href="#DejaVuSans-45"/>
       <use x="290.576172" xlink:href="#DejaVuSans-49"/>
       <use x="354.199219" xlink:href="#DejaVuSans-48"/>
      </g>
     </g>
    </g>
    <g id="xtick_8">
     <g id="line2d_8">
      <g>
       <use style="stroke:#000000;stroke-width:0.8;" x="371.887958" xlink:href="#m1554eb3f42" y="288.430125"/>
      </g>
     </g>
     <g id="text_8">
      <!-- 2020-11 -->
      <g transform="translate(374.647333 337.212937)rotate(-90)scale(0.1 -0.1)">
       <use xlink:href="#DejaVuSans-50"/>
       <use x="63.623047" xlink:href="#DejaVuSans-48"/>
       <use x="127.246094" xlink:href="#DejaVuSans-50"/>
       <use x="190.869141" xlink:href="#DejaVuSans-48"/>
       <use x="254.492188" xlink:href="#DejaVuSans-45"/>
       <use x="290.576172" xlink:href="#DejaVuSans-49"/>
       <use x="354.199219" xlink:href="#DejaVuSans-49"/>
      </g>
     </g>
    </g>
    <g id="xtick_9">
     <g id="line2d_9">
      <g>
       <use style="stroke:#000000;stroke-width:0.8;" x="411.567958" xlink:href="#m1554eb3f42" y="288.430125"/>
      </g>
     </g>
     <g id="text_9">
      <!-- 2020-12 -->
      <g transform="translate(414.327333 337.212937)rotate(-90)scale(0.1 -0.1)">
       <use xlink:href="#DejaVuSans-50"/>
       <use x="63.623047" xlink:href="#DejaVuSans-48"/>
       <use x="127.246094" xlink:href="#DejaVuSans-50"/>
       <use x="190.869141" xlink:href="#DejaVuSans-48"/>
       <use x="254.492188" xlink:href="#DejaVuSans-45"/>
       <use x="290.576172" xlink:href="#DejaVuSans-49"/>
       <use x="354.199219" xlink:href="#DejaVuSans-50"/>
      </g>
     </g>
    </g>
    <g id="text_10">
     <!-- date -->
     <g transform="translate(232.975625 354.811375)scale(0.1 -0.1)">
      <defs>
       <path d="M 45.40625 46.390625 
L 45.40625 75.984375 
L 54.390625 75.984375 
L 54.390625 0 
L 45.40625 0 
L 45.40625 8.203125 
Q 42.578125 3.328125 38.25 0.953125 
Q 33.9375 -1.421875 27.875 -1.421875 
Q 17.96875 -1.421875 11.734375 6.484375 
Q 5.515625 14.40625 5.515625 27.296875 
Q 5.515625 40.1875 11.734375 48.09375 
Q 17.96875 56 27.875 56 
Q 33.9375 56 38.25 53.625 
Q 42.578125 51.265625 45.40625 46.390625 
z
M 14.796875 27.296875 
Q 14.796875 17.390625 18.875 11.75 
Q 22.953125 6.109375 30.078125 6.109375 
Q 37.203125 6.109375 41.296875 11.75 
Q 45.40625 17.390625 45.40625 27.296875 
Q 45.40625 37.203125 41.296875 42.84375 
Q 37.203125 48.484375 30.078125 48.484375 
Q 22.953125 48.484375 18.875 42.84375 
Q 14.796875 37.203125 14.796875 27.296875 
z
" id="DejaVuSans-100"/>
       <path d="M 34.28125 27.484375 
Q 23.390625 27.484375 19.1875 25 
Q 14.984375 22.515625 14.984375 16.5 
Q 14.984375 11.71875 18.140625 8.90625 
Q 21.296875 6.109375 26.703125 6.109375 
Q 34.1875 6.109375 38.703125 11.40625 
Q 43.21875 16.703125 43.21875 25.484375 
L 43.21875 27.484375 
z
M 52.203125 31.203125 
L 52.203125 0 
L 43.21875 0 
L 43.21875 8.296875 
Q 40.140625 3.328125 35.546875 0.953125 
Q 30.953125 -1.421875 24.3125 -1.421875 
Q 15.921875 -1.421875 10.953125 3.296875 
Q 6 8.015625 6 15.921875 
Q 6 25.140625 12.171875 29.828125 
Q 18.359375 34.515625 30.609375 34.515625 
L 43.21875 34.515625 
L 43.21875 35.40625 
Q 43.21875 41.609375 39.140625 45 
Q 35.0625 48.390625 27.6875 48.390625 
Q 23 48.390625 18.546875 47.265625 
Q 14.109375 46.140625 10.015625 43.890625 
L 10.015625 52.203125 
Q 14.9375 54.109375 19.578125 55.046875 
Q 24.21875 56 28.609375 56 
Q 40.484375 56 46.34375 49.84375 
Q 52.203125 43.703125 52.203125 31.203125 
z
" id="DejaVuSans-97"/>
       <path d="M 18.3125 70.21875 
L 18.3125 54.6875 
L 36.8125 54.6875 
L 36.8125 47.703125 
L 18.3125 47.703125 
L 18.3125 18.015625 
Q 18.3125 11.328125 20.140625 9.421875 
Q 21.96875 7.515625 27.59375 7.515625 
L 36.8125 7.515625 
L 36.8125 0 
L 27.59375 0 
Q 17.1875 0 13.234375 3.875 
Q 9.28125 7.765625 9.28125 18.015625 
L 9.28125 47.703125 
L 2.6875 47.703125 
L 2.6875 54.6875 
L 9.28125 54.6875 
L 9.28125 70.21875 
z
" id="DejaVuSans-116"/>
       <path d="M 56.203125 29.59375 
L 56.203125 25.203125 
L 14.890625 25.203125 
Q 15.484375 15.921875 20.484375 11.0625 
Q 25.484375 6.203125 34.421875 6.203125 
Q 39.59375 6.203125 44.453125 7.46875 
Q 49.3125 8.734375 54.109375 11.28125 
L 54.109375 2.78125 
Q 49.265625 0.734375 44.1875 -0.34375 
Q 39.109375 -1.421875 33.890625 -1.421875 
Q 20.796875 -1.421875 13.15625 6.1875 
Q 5.515625 13.8125 5.515625 26.8125 
Q 5.515625 40.234375 12.765625 48.109375 
Q 20.015625 56 32.328125 56 
Q 43.359375 56 49.78125 48.890625 
Q 56.203125 41.796875 56.203125 29.59375 
z
M 47.21875 32.234375 
Q 47.125 39.59375 43.09375 43.984375 
Q 39.0625 48.390625 32.421875 48.390625 
Q 24.90625 48.390625 20.390625 44.140625 
Q 15.875 39.890625 15.1875 32.171875 
z
" id="DejaVuSans-101"/>
      </defs>
      <use xlink:href="#DejaVuSans-100"/>
      <use x="63.476562" xlink:href="#DejaVuSans-97"/>
      <use x="124.755859" xlink:href="#DejaVuSans-116"/>
      <use x="163.964844" xlink:href="#DejaVuSans-101"/>
     </g>
    </g>
   </g>
   <g id="matplotlib.axis_2">
    <g id="ytick_1">
     <g id="line2d_10">
      <defs>
       <path d="M 0 0 
L -3.5 0 
" id="m67a7fede00" style="stroke:#000000;stroke-width:0.8;"/>
      </defs>
      <g>
       <use style="stroke:#000000;stroke-width:0.8;" x="65.690625" xlink:href="#m67a7fede00" y="288.430125"/>
      </g>
     </g>
     <g id="text_11">
      <!-- 0 -->
      <g transform="translate(52.328125 292.229344)scale(0.1 -0.1)">
       <use xlink:href="#DejaVuSans-48"/>
      </g>
     </g>
    </g>
    <g id="ytick_2">
     <g id="line2d_11">
      <g>
       <use style="stroke:#000000;stroke-width:0.8;" x="65.690625" xlink:href="#m67a7fede00" y="236.832033"/>
      </g>
     </g>
     <g id="text_12">
      <!-- 5000 -->
      <g transform="translate(33.240625 240.631252)scale(0.1 -0.1)">
       <use xlink:href="#DejaVuSans-53"/>
       <use x="63.623047" xlink:href="#DejaVuSans-48"/>
       <use x="127.246094" xlink:href="#DejaVuSans-48"/>
       <use x="190.869141" xlink:href="#DejaVuSans-48"/>
      </g>
     </g>
    </g>
    <g id="ytick_3">
     <g id="line2d_12">
      <g>
       <use style="stroke:#000000;stroke-width:0.8;" x="65.690625" xlink:href="#m67a7fede00" y="185.233941"/>
      </g>
     </g>
     <g id="text_13">
      <!-- 10000 -->
      <g transform="translate(26.878125 189.03316)scale(0.1 -0.1)">
       <use xlink:href="#DejaVuSans-49"/>
       <use x="63.623047" xlink:href="#DejaVuSans-48"/>
       <use x="127.246094" xlink:href="#DejaVuSans-48"/>
       <use x="190.869141" xlink:href="#DejaVuSans-48"/>
       <use x="254.492188" xlink:href="#DejaVuSans-48"/>
      </g>
     </g>
    </g>
    <g id="ytick_4">
     <g id="line2d_13">
      <g>
       <use style="stroke:#000000;stroke-width:0.8;" x="65.690625" xlink:href="#m67a7fede00" y="133.635849"/>
      </g>
     </g>
     <g id="text_14">
      <!-- 15000 -->
      <g transform="translate(26.878125 137.435068)scale(0.1 -0.1)">
       <use xlink:href="#DejaVuSans-49"/>
       <use x="63.623047" xlink:href="#DejaVuSans-53"/>
       <use x="127.246094" xlink:href="#DejaVuSans-48"/>
       <use x="190.869141" xlink:href="#DejaVuSans-48"/>
       <use x="254.492188" xlink:href="#DejaVuSans-48"/>
      </g>
     </g>
    </g>
    <g id="ytick_5">
     <g id="line2d_14">
      <g>
       <use style="stroke:#000000;stroke-width:0.8;" x="65.690625" xlink:href="#m67a7fede00" y="82.037757"/>
      </g>
     </g>
     <g id="text_15">
      <!-- 20000 -->
      <g transform="translate(26.878125 85.836976)scale(0.1 -0.1)">
       <use xlink:href="#DejaVuSans-50"/>
       <use x="63.623047" xlink:href="#DejaVuSans-48"/>
       <use x="127.246094" xlink:href="#DejaVuSans-48"/>
       <use x="190.869141" xlink:href="#DejaVuSans-48"/>
       <use x="254.492188" xlink:href="#DejaVuSans-48"/>
      </g>
     </g>
    </g>
    <g id="ytick_6">
     <g id="line2d_15">
      <g>
       <use style="stroke:#000000;stroke-width:0.8;" x="65.690625" xlink:href="#m67a7fede00" y="30.439665"/>
      </g>
     </g>
     <g id="text_16">
      <!-- 25000 -->
      <g transform="translate(26.878125 34.238883)scale(0.1 -0.1)">
       <use xlink:href="#DejaVuSans-50"/>
       <use x="63.623047" xlink:href="#DejaVuSans-53"/>
       <use x="127.246094" xlink:href="#DejaVuSans-48"/>
       <use x="190.869141" xlink:href="#DejaVuSans-48"/>
       <use x="254.492188" xlink:href="#DejaVuSans-48"/>
      </g>
     </g>
    </g>
    <g id="text_17">
     <!-- cumulative number of corona cases -->
     <g transform="translate(14.798438 245.00225)rotate(-90)scale(0.1 -0.1)">
      <defs>
       <path d="M 48.78125 52.59375 
L 48.78125 44.1875 
Q 44.96875 46.296875 41.140625 47.34375 
Q 37.3125 48.390625 33.40625 48.390625 
Q 24.65625 48.390625 19.8125 42.84375 
Q 14.984375 37.3125 14.984375 27.296875 
Q 14.984375 17.28125 19.8125 11.734375 
Q 24.65625 6.203125 33.40625 6.203125 
Q 37.3125 6.203125 41.140625 7.25 
Q 44.96875 8.296875 48.78125 10.40625 
L 48.78125 2.09375 
Q 45.015625 0.34375 40.984375 -0.53125 
Q 36.96875 -1.421875 32.421875 -1.421875 
Q 20.0625 -1.421875 12.78125 6.34375 
Q 5.515625 14.109375 5.515625 27.296875 
Q 5.515625 40.671875 12.859375 48.328125 
Q 20.21875 56 33.015625 56 
Q 37.15625 56 41.109375 55.140625 
Q 45.0625 54.296875 48.78125 52.59375 
z
" id="DejaVuSans-99"/>
       <path d="M 8.5 21.578125 
L 8.5 54.6875 
L 17.484375 54.6875 
L 17.484375 21.921875 
Q 17.484375 14.15625 20.5 10.265625 
Q 23.53125 6.390625 29.59375 6.390625 
Q 36.859375 6.390625 41.078125 11.03125 
Q 45.3125 15.671875 45.3125 23.6875 
L 45.3125 54.6875 
L 54.296875 54.6875 
L 54.296875 0 
L 45.3125 0 
L 45.3125 8.40625 
Q 42.046875 3.421875 37.71875 1 
Q 33.40625 -1.421875 27.6875 -1.421875 
Q 18.265625 -1.421875 13.375 4.4375 
Q 8.5 10.296875 8.5 21.578125 
z
M 31.109375 56 
z
" id="DejaVuSans-117"/>
       <path d="M 52 44.1875 
Q 55.375 50.25 60.0625 53.125 
Q 64.75 56 71.09375 56 
Q 79.640625 56 84.28125 50.015625 
Q 88.921875 44.046875 88.921875 33.015625 
L 88.921875 0 
L 79.890625 0 
L 79.890625 32.71875 
Q 79.890625 40.578125 77.09375 44.375 
Q 74.3125 48.1875 68.609375 48.1875 
Q 61.625 48.1875 57.5625 43.546875 
Q 53.515625 38.921875 53.515625 30.90625 
L 53.515625 0 
L 44.484375 0 
L 44.484375 32.71875 
Q 44.484375 40.625 41.703125 44.40625 
Q 38.921875 48.1875 33.109375 48.1875 
Q 26.21875 48.1875 22.15625 43.53125 
Q 18.109375 38.875 18.109375 30.90625 
L 18.109375 0 
L 9.078125 0 
L 9.078125 54.6875 
L 18.109375 54.6875 
L 18.109375 46.1875 
Q 21.1875 51.21875 25.484375 53.609375 
Q 29.78125 56 35.6875 56 
Q 41.65625 56 45.828125 52.96875 
Q 50 49.953125 52 44.1875 
z
" id="DejaVuSans-109"/>
       <path d="M 9.421875 75.984375 
L 18.40625 75.984375 
L 18.40625 0 
L 9.421875 0 
z
" id="DejaVuSans-108"/>
       <path d="M 9.421875 54.6875 
L 18.40625 54.6875 
L 18.40625 0 
L 9.421875 0 
z
M 9.421875 75.984375 
L 18.40625 75.984375 
L 18.40625 64.59375 
L 9.421875 64.59375 
z
" id="DejaVuSans-105"/>
       <path d="M 2.984375 54.6875 
L 12.5 54.6875 
L 29.59375 8.796875 
L 46.6875 54.6875 
L 56.203125 54.6875 
L 35.6875 0 
L 23.484375 0 
z
" id="DejaVuSans-118"/>
       <path id="DejaVuSans-32"/>
       <path d="M 54.890625 33.015625 
L 54.890625 0 
L 45.90625 0 
L 45.90625 32.71875 
Q 45.90625 40.484375 42.875 44.328125 
Q 39.84375 48.1875 33.796875 48.1875 
Q 26.515625 48.1875 22.3125 43.546875 
Q 18.109375 38.921875 18.109375 30.90625 
L 18.109375 0 
L 9.078125 0 
L 9.078125 54.6875 
L 18.109375 54.6875 
L 18.109375 46.1875 
Q 21.34375 51.125 25.703125 53.5625 
Q 30.078125 56 35.796875 56 
Q 45.21875 56 50.046875 50.171875 
Q 54.890625 44.34375 54.890625 33.015625 
z
" id="DejaVuSans-110"/>
       <path d="M 48.6875 27.296875 
Q 48.6875 37.203125 44.609375 42.84375 
Q 40.53125 48.484375 33.40625 48.484375 
Q 26.265625 48.484375 22.1875 42.84375 
Q 18.109375 37.203125 18.109375 27.296875 
Q 18.109375 17.390625 22.1875 11.75 
Q 26.265625 6.109375 33.40625 6.109375 
Q 40.53125 6.109375 44.609375 11.75 
Q 48.6875 17.390625 48.6875 27.296875 
z
M 18.109375 46.390625 
Q 20.953125 51.265625 25.265625 53.625 
Q 29.59375 56 35.59375 56 
Q 45.5625 56 51.78125 48.09375 
Q 58.015625 40.1875 58.015625 27.296875 
Q 58.015625 14.40625 51.78125 6.484375 
Q 45.5625 -1.421875 35.59375 -1.421875 
Q 29.59375 -1.421875 25.265625 0.953125 
Q 20.953125 3.328125 18.109375 8.203125 
L 18.109375 0 
L 9.078125 0 
L 9.078125 75.984375 
L 18.109375 75.984375 
z
" id="DejaVuSans-98"/>
       <path d="M 41.109375 46.296875 
Q 39.59375 47.171875 37.8125 47.578125 
Q 36.03125 48 33.890625 48 
Q 26.265625 48 22.1875 43.046875 
Q 18.109375 38.09375 18.109375 28.8125 
L 18.109375 0 
L 9.078125 0 
L 9.078125 54.6875 
L 18.109375 54.6875 
L 18.109375 46.1875 
Q 20.953125 51.171875 25.484375 53.578125 
Q 30.03125 56 36.53125 56 
Q 37.453125 56 38.578125 55.875 
Q 39.703125 55.765625 41.0625 55.515625 
z
" id="DejaVuSans-114"/>
       <path d="M 30.609375 48.390625 
Q 23.390625 48.390625 19.1875 42.75 
Q 14.984375 37.109375 14.984375 27.296875 
Q 14.984375 17.484375 19.15625 11.84375 
Q 23.34375 6.203125 30.609375 6.203125 
Q 37.796875 6.203125 41.984375 11.859375 
Q 46.1875 17.53125 46.1875 27.296875 
Q 46.1875 37.015625 41.984375 42.703125 
Q 37.796875 48.390625 30.609375 48.390625 
z
M 30.609375 56 
Q 42.328125 56 49.015625 48.375 
Q 55.71875 40.765625 55.71875 27.296875 
Q 55.71875 13.875 49.015625 6.21875 
Q 42.328125 -1.421875 30.609375 -1.421875 
Q 18.84375 -1.421875 12.171875 6.21875 
Q 5.515625 13.875 5.515625 27.296875 
Q 5.515625 40.765625 12.171875 48.375 
Q 18.84375 56 30.609375 56 
z
" id="DejaVuSans-111"/>
       <path d="M 37.109375 75.984375 
L 37.109375 68.5 
L 28.515625 68.5 
Q 23.6875 68.5 21.796875 66.546875 
Q 19.921875 64.59375 19.921875 59.515625 
L 19.921875 54.6875 
L 34.71875 54.6875 
L 34.71875 47.703125 
L 19.921875 47.703125 
L 19.921875 0 
L 10.890625 0 
L 10.890625 47.703125 
L 2.296875 47.703125 
L 2.296875 54.6875 
L 10.890625 54.6875 
L 10.890625 58.5 
Q 10.890625 67.625 15.140625 71.796875 
Q 19.390625 75.984375 28.609375 75.984375 
z
" id="DejaVuSans-102"/>
       <path d="M 44.28125 53.078125 
L 44.28125 44.578125 
Q 40.484375 46.53125 36.375 47.5 
Q 32.28125 48.484375 27.875 48.484375 
Q 21.1875 48.484375 17.84375 46.4375 
Q 14.5 44.390625 14.5 40.28125 
Q 14.5 37.15625 16.890625 35.375 
Q 19.28125 33.59375 26.515625 31.984375 
L 29.59375 31.296875 
Q 39.15625 29.25 43.1875 25.515625 
Q 47.21875 21.78125 47.21875 15.09375 
Q 47.21875 7.46875 41.1875 3.015625 
Q 35.15625 -1.421875 24.609375 -1.421875 
Q 20.21875 -1.421875 15.453125 -0.5625 
Q 10.6875 0.296875 5.421875 2 
L 5.421875 11.28125 
Q 10.40625 8.6875 15.234375 7.390625 
Q 20.0625 6.109375 24.8125 6.109375 
Q 31.15625 6.109375 34.5625 8.28125 
Q 37.984375 10.453125 37.984375 14.40625 
Q 37.984375 18.0625 35.515625 20.015625 
Q 33.0625 21.96875 24.703125 23.78125 
L 21.578125 24.515625 
Q 13.234375 26.265625 9.515625 29.90625 
Q 5.8125 33.546875 5.8125 39.890625 
Q 5.8125 47.609375 11.28125 51.796875 
Q 16.75 56 26.8125 56 
Q 31.78125 56 36.171875 55.265625 
Q 40.578125 54.546875 44.28125 53.078125 
z
" id="DejaVuSans-115"/>
      </defs>
      <use xlink:href="#DejaVuSans-99"/>
      <use x="54.980469" xlink:href="#DejaVuSans-117"/>
      <use x="118.359375" xlink:href="#DejaVuSans-109"/>
      <use x="215.771484" xlink:href="#DejaVuSans-117"/>
      <use x="279.150391" xlink:href="#DejaVuSans-108"/>
      <use x="306.933594" xlink:href="#DejaVuSans-97"/>
      <use x="368.212891" xlink:href="#DejaVuSans-116"/>
      <use x="407.421875" xlink:href="#DejaVuSans-105"/>
      <use x="435.205078" xlink:href="#DejaVuSans-118"/>
      <use x="494.384766" xlink:href="#DejaVuSans-101"/>
      <use x="555.908203" xlink:href="#DejaVuSans-32"/>
      <use x="587.695312" xlink:href="#DejaVuSans-110"/>
      <use x="651.074219" xlink:href="#DejaVuSans-117"/>
      <use x="714.453125" xlink:href="#DejaVuSans-109"/>
      <use x="811.865234" xlink:href="#DejaVuSans-98"/>
      <use x="875.341797" xlink:href="#DejaVuSans-101"/>
      <use x="936.865234" xlink:href="#DejaVuSans-114"/>
      <use x="977.978516" xlink:href="#DejaVuSans-32"/>
      <use x="1009.765625" xlink:href="#DejaVuSans-111"/>
      <use x="1070.947266" xlink:href="#DejaVuSans-102"/>
      <use x="1106.152344" xlink:href="#DejaVuSans-32"/>
      <use x="1137.939453" xlink:href="#DejaVuSans-99"/>
      <use x="1192.919922" xlink:href="#DejaVuSans-111"/>
      <use x="1254.101562" xlink:href="#DejaVuSans-114"/>
      <use x="1292.964844" xlink:href="#DejaVuSans-111"/>
      <use x="1354.146484" xlink:href="#DejaVuSans-110"/>
      <use x="1417.525391" xlink:href="#DejaVuSans-97"/>
      <use x="1478.804688" xlink:href="#DejaVuSans-32"/>
      <use x="1510.591797" xlink:href="#DejaVuSans-99"/>
      <use x="1565.572266" xlink:href="#DejaVuSans-97"/>
      <use x="1626.851562" xlink:href="#DejaVuSans-115"/>
      <use x="1678.951172" xlink:href="#DejaVuSans-101"/>
      <use x="1740.474609" xlink:href="#DejaVuSans-115"/>
     </g>
    </g>
   </g>
   <g id="patch_273">
    <path d="M 65.690625 288.430125 
L 65.690625 22.318125 
" style="fill:none;stroke:#000000;stroke-linecap:square;stroke-linejoin:miter;stroke-width:0.8;"/>
   </g>
   <g id="patch_274">
    <path d="M 65.690625 288.430125 
L 422.810625 288.430125 
" style="fill:none;stroke:#000000;stroke-linecap:square;stroke-linejoin:miter;stroke-width:0.8;"/>
   </g>
   <g id="text_18">
    <!-- South Tyrol -->
    <g transform="translate(210.958125 16.318125)scale(0.12 -0.12)">
     <defs>
      <path d="M 53.515625 70.515625 
L 53.515625 60.890625 
Q 47.90625 63.578125 42.921875 64.890625 
Q 37.9375 66.21875 33.296875 66.21875 
Q 25.25 66.21875 20.875 63.09375 
Q 16.5 59.96875 16.5 54.203125 
Q 16.5 49.359375 19.40625 46.890625 
Q 22.3125 44.4375 30.421875 42.921875 
L 36.375 41.703125 
Q 47.40625 39.59375 52.65625 34.296875 
Q 57.90625 29 57.90625 20.125 
Q 57.90625 9.515625 50.796875 4.046875 
Q 43.703125 -1.421875 29.984375 -1.421875 
Q 24.8125 -1.421875 18.96875 -0.25 
Q 13.140625 0.921875 6.890625 3.21875 
L 6.890625 13.375 
Q 12.890625 10.015625 18.65625 8.296875 
Q 24.421875 6.59375 29.984375 6.59375 
Q 38.421875 6.59375 43.015625 9.90625 
Q 47.609375 13.234375 47.609375 19.390625 
Q 47.609375 24.75 44.3125 27.78125 
Q 41.015625 30.8125 33.5 32.328125 
L 27.484375 33.5 
Q 16.453125 35.6875 11.515625 40.375 
Q 6.59375 45.0625 6.59375 53.421875 
Q 6.59375 63.09375 13.40625 68.65625 
Q 20.21875 74.21875 32.171875 74.21875 
Q 37.3125 74.21875 42.625 73.28125 
Q 47.953125 72.359375 53.515625 70.515625 
z
" id="DejaVuSans-83"/>
      <path d="M 54.890625 33.015625 
L 54.890625 0 
L 45.90625 0 
L 45.90625 32.71875 
Q 45.90625 40.484375 42.875 44.328125 
Q 39.84375 48.1875 33.796875 48.1875 
Q 26.515625 48.1875 22.3125 43.546875 
Q 18.109375 38.921875 18.109375 30.90625 
L 18.109375 0 
L 9.078125 0 
L 9.078125 75.984375 
L 18.109375 75.984375 
L 18.109375 46.1875 
Q 21.34375 51.125 25.703125 53.5625 
Q 30.078125 56 35.796875 56 
Q 45.21875 56 50.046875 50.171875 
Q 54.890625 44.34375 54.890625 33.015625 
z
" id="DejaVuSans-104"/>
      <path d="M -0.296875 72.90625 
L 61.375 72.90625 
L 61.375 64.59375 
L 35.5 64.59375 
L 35.5 0 
L 25.59375 0 
L 25.59375 64.59375 
L -0.296875 64.59375 
z
" id="DejaVuSans-84"/>
      <path d="M 32.171875 -5.078125 
Q 28.375 -14.84375 24.75 -17.8125 
Q 21.140625 -20.796875 15.09375 -20.796875 
L 7.90625 -20.796875 
L 7.90625 -13.28125 
L 13.1875 -13.28125 
Q 16.890625 -13.28125 18.9375 -11.515625 
Q 21 -9.765625 23.484375 -3.21875 
L 25.09375 0.875 
L 2.984375 54.6875 
L 12.5 54.6875 
L 29.59375 11.921875 
L 46.6875 54.6875 
L 56.203125 54.6875 
z
" id="DejaVuSans-121"/>
     </defs>
     <use xlink:href="#DejaVuSans-83"/>
     <use x="63.476562" xlink:href="#DejaVuSans-111"/>
     <use x="124.658203" xlink:href="#DejaVuSans-117"/>
     <use x="188.037109" xlink:href="#DejaVuSans-116"/>
     <use x="227.246094" xlink:href="#DejaVuSans-104"/>
     <use x="290.625" xlink:href="#DejaVuSans-32"/>
     <use x="322.412109" xlink:href="#DejaVuSans-84"/>
     <use x="367.871094" xlink:href="#DejaVuSans-121"/>
     <use x="427.050781" xlink:href="#DejaVuSans-114"/>
     <use x="465.914062" xlink:href="#DejaVuSans-111"/>
     <use x="527.095703" xlink:href="#DejaVuSans-108"/>
    </g>
   </g>
  </g>
 </g>
 <defs>
  <clipPath id="p394737040c">
   <rect height="266.112" width="357.12" x="65.690625" y="22.318125"/>
  </clipPath>
 </defs>
</svg>
