<?xml version="1.0" encoding="utf-8" standalone="no"?>
<!DOCTYPE svg PUBLIC "-//W3C//DTD SVG 1.1//EN"
  "http://www.w3.org/Graphics/SVG/1.1/DTD/svg11.dtd">
<!-- Created with matplotlib (https://matplotlib.org/) -->
<svg height="364.091062pt" version="1.1" viewBox="0 0 430.010625 364.091062" width="430.010625pt" xmlns="http://www.w3.org/2000/svg" xmlns:xlink="http://www.w3.org/1999/xlink">
 <metadata>
  <rdf:RDF xmlns:cc="http://creativecommons.org/ns#" xmlns:dc="http://purl.org/dc/elements/1.1/" xmlns:rdf="http://www.w3.org/1999/02/22-rdf-syntax-ns#">
   <cc:Work>
    <dc:type rdf:resource="http://purl.org/dc/dcmitype/StillImage"/>
    <dc:date>2020-12-29T15:01:17.447686</dc:date>
    <dc:format>image/svg+xml</dc:format>
    <dc:creator>
     <cc:Agent>
      <dc:title>Matplotlib v3.3.3, https://matplotlib.org/</dc:title>
     </cc:Agent>
    </dc:creator>
   </cc:Work>
  </rdf:RDF>
 </metadata>
 <defs>
  <style type="text/css">*{stroke-linecap:butt;stroke-linejoin:round;}</style>
 </defs>
 <g id="figure_1">
  <g id="patch_1">
   <path d="M 0 364.091062 
L 430.010625 364.091062 
L 430.010625 0 
L 0 0 
z
" style="fill:#ffffff;"/>
  </g>
  <g id="axes_1">
   <g id="patch_2">
    <path d="M 65.690625 288.430125 
L 422.810625 288.430125 
L 422.810625 22.318125 
L 65.690625 22.318125 
z
" style="fill:#ffffff;"/>
   </g>
   <g id="patch_3">
    <path clip-path="url(#p9e1d102e86)" d="M 65.81377 288.430125 
L 66.798928 288.430125 
L 66.798928 286.540724 
L 65.81377 286.540724 
z
" style="fill:#1f77b4;"/>
   </g>
   <g id="patch_4">
    <path clip-path="url(#p9e1d102e86)" d="M 67.045218 288.430125 
L 68.030377 288.430125 
L 68.030377 286.192194 
L 67.045218 286.192194 
z
" style="fill:#1f77b4;"/>
   </g>
   <g id="patch_5">
    <path clip-path="url(#p9e1d102e86)" d="M 68.276666 288.430125 
L 69.261825 288.430125 
L 69.261825 285.742774 
L 68.276666 285.742774 
z
" style="fill:#1f77b4;"/>
   </g>
   <g id="patch_6">
    <path clip-path="url(#p9e1d102e86)" d="M 69.508115 288.430125 
L 70.493273 288.430125 
L 70.493273 284.917307 
L 69.508115 284.917307 
z
" style="fill:#1f77b4;"/>
   </g>
   <g id="patch_7">
    <path clip-path="url(#p9e1d102e86)" d="M 70.739563 288.430125 
L 71.724722 288.430125 
L 71.724722 284.38534 
L 70.739563 284.38534 
z
" style="fill:#1f77b4;"/>
   </g>
   <g id="patch_8">
    <path clip-path="url(#p9e1d102e86)" d="M 71.971011 288.430125 
L 72.95617 288.430125 
L 72.95617 283.339749 
L 71.971011 283.339749 
z
" style="fill:#1f77b4;"/>
   </g>
   <g id="patch_9">
    <path clip-path="url(#p9e1d102e86)" d="M 73.202459 288.430125 
L 74.187618 288.430125 
L 74.187618 282.716064 
L 73.202459 282.716064 
z
" style="fill:#1f77b4;"/>
   </g>
   <g id="patch_10">
    <path clip-path="url(#p9e1d102e86)" d="M 74.433908 288.430125 
L 75.419066 288.430125 
L 75.419066 282.174925 
L 74.433908 282.174925 
z
" style="fill:#1f77b4;"/>
   </g>
   <g id="patch_11">
    <path clip-path="url(#p9e1d102e86)" d="M 75.665356 288.430125 
L 76.650515 288.430125 
L 76.650515 281.789707 
L 75.665356 281.789707 
z
" style="fill:#1f77b4;"/>
   </g>
   <g id="patch_12">
    <path clip-path="url(#p9e1d102e86)" d="M 76.896804 288.430125 
L 77.881963 288.430125 
L 77.881963 281.193537 
L 76.896804 281.193537 
z
" style="fill:#1f77b4;"/>
   </g>
   <g id="patch_13">
    <path clip-path="url(#p9e1d102e86)" d="M 78.128253 288.430125 
L 79.113411 288.430125 
L 79.113411 280.76246 
L 78.128253 280.76246 
z
" style="fill:#1f77b4;"/>
   </g>
   <g id="patch_14">
    <path clip-path="url(#p9e1d102e86)" d="M 79.359701 288.430125 
L 80.344859 288.430125 
L 80.344859 280.083743 
L 79.359701 280.083743 
z
" style="fill:#1f77b4;"/>
   </g>
   <g id="patch_15">
    <path clip-path="url(#p9e1d102e86)" d="M 80.591149 288.430125 
L 81.576308 288.430125 
L 81.576308 279.230761 
L 80.591149 279.230761 
z
" style="fill:#1f77b4;"/>
   </g>
   <g id="patch_16">
    <path clip-path="url(#p9e1d102e86)" d="M 81.822597 288.430125 
L 82.807756 288.430125 
L 82.807756 278.506185 
L 81.822597 278.506185 
z
" style="fill:#1f77b4;"/>
   </g>
   <g id="patch_17">
    <path clip-path="url(#p9e1d102e86)" d="M 83.054046 288.430125 
L 84.039204 288.430125 
L 84.039204 277.378048 
L 83.054046 277.378048 
z
" style="fill:#1f77b4;"/>
   </g>
   <g id="patch_18">
    <path clip-path="url(#p9e1d102e86)" d="M 84.285494 288.430125 
L 85.270653 288.430125 
L 85.270653 276.580097 
L 84.285494 276.580097 
z
" style="fill:#1f77b4;"/>
   </g>
   <g id="patch_19">
    <path clip-path="url(#p9e1d102e86)" d="M 85.516942 288.430125 
L 86.502101 288.430125 
L 86.502101 276.029786 
L 85.516942 276.029786 
z
" style="fill:#1f77b4;"/>
   </g>
   <g id="patch_20">
    <path clip-path="url(#p9e1d102e86)" d="M 86.748391 288.430125 
L 87.733549 288.430125 
L 87.733549 275.607881 
L 86.748391 275.607881 
z
" style="fill:#1f77b4;"/>
   </g>
   <g id="patch_21">
    <path clip-path="url(#p9e1d102e86)" d="M 87.979839 288.430125 
L 88.964997 288.430125 
L 88.964997 275.195148 
L 87.979839 275.195148 
z
" style="fill:#1f77b4;"/>
   </g>
   <g id="patch_22">
    <path clip-path="url(#p9e1d102e86)" d="M 89.211287 288.430125 
L 90.196446 288.430125 
L 90.196446 274.470572 
L 89.211287 274.470572 
z
" style="fill:#1f77b4;"/>
   </g>
   <g id="patch_23">
    <path clip-path="url(#p9e1d102e86)" d="M 90.442735 288.430125 
L 91.427894 288.430125 
L 91.427894 273.654278 
L 90.442735 273.654278 
z
" style="fill:#1f77b4;"/>
   </g>
   <g id="patch_24">
    <path clip-path="url(#p9e1d102e86)" d="M 91.674184 288.430125 
L 92.659342 288.430125 
L 92.659342 273.26906 
L 91.674184 273.26906 
z
" style="fill:#1f77b4;"/>
   </g>
   <g id="patch_25">
    <path clip-path="url(#p9e1d102e86)" d="M 92.905632 288.430125 
L 93.890791 288.430125 
L 93.890791 272.544484 
L 92.905632 272.544484 
z
" style="fill:#1f77b4;"/>
   </g>
   <g id="patch_26">
    <path clip-path="url(#p9e1d102e86)" d="M 94.13708 288.430125 
L 95.122239 288.430125 
L 95.122239 272.003345 
L 94.13708 272.003345 
z
" style="fill:#1f77b4;"/>
   </g>
   <g id="patch_27">
    <path clip-path="url(#p9e1d102e86)" d="M 95.368528 288.430125 
L 96.353687 288.430125 
L 96.353687 271.379659 
L 95.368528 271.379659 
z
" style="fill:#1f77b4;"/>
   </g>
   <g id="patch_28">
    <path clip-path="url(#p9e1d102e86)" d="M 96.599977 288.430125 
L 97.585135 288.430125 
L 97.585135 270.902723 
L 96.599977 270.902723 
z
" style="fill:#1f77b4;"/>
   </g>
   <g id="patch_29">
    <path clip-path="url(#p9e1d102e86)" d="M 97.831425 288.430125 
L 98.816584 288.430125 
L 98.816584 270.324897 
L 97.831425 270.324897 
z
" style="fill:#1f77b4;"/>
   </g>
   <g id="patch_30">
    <path clip-path="url(#p9e1d102e86)" d="M 99.062873 288.430125 
L 100.048032 288.430125 
L 100.048032 269.710383 
L 99.062873 269.710383 
z
" style="fill:#1f77b4;"/>
   </g>
   <g id="patch_31">
    <path clip-path="url(#p9e1d102e86)" d="M 100.294322 288.430125 
L 101.27948 288.430125 
L 101.27948 269.224275 
L 100.294322 269.224275 
z
" style="fill:#1f77b4;"/>
   </g>
   <g id="patch_32">
    <path clip-path="url(#p9e1d102e86)" d="M 101.52577 288.430125 
L 102.510928 288.430125 
L 102.510928 268.756511 
L 101.52577 268.756511 
z
" style="fill:#1f77b4;"/>
   </g>
   <g id="patch_33">
    <path clip-path="url(#p9e1d102e86)" d="M 102.757218 288.430125 
L 103.742377 288.430125 
L 103.742377 268.435496 
L 102.757218 268.435496 
z
" style="fill:#1f77b4;"/>
   </g>
   <g id="patch_34">
    <path clip-path="url(#p9e1d102e86)" d="M 103.988666 288.430125 
L 104.973825 288.430125 
L 104.973825 268.031935 
L 103.988666 268.031935 
z
" style="fill:#1f77b4;"/>
   </g>
   <g id="patch_35">
    <path clip-path="url(#p9e1d102e86)" d="M 105.220115 288.430125 
L 106.205273 288.430125 
L 106.205273 267.628374 
L 105.220115 267.628374 
z
" style="fill:#1f77b4;"/>
   </g>
   <g id="patch_36">
    <path clip-path="url(#p9e1d102e86)" d="M 106.451563 288.430125 
L 107.436722 288.430125 
L 107.436722 267.371562 
L 106.451563 267.371562 
z
" style="fill:#1f77b4;"/>
   </g>
   <g id="patch_37">
    <path clip-path="url(#p9e1d102e86)" d="M 107.683011 288.430125 
L 108.66817 288.430125 
L 108.66817 267.105578 
L 107.683011 267.105578 
z
" style="fill:#1f77b4;"/>
   </g>
   <g id="patch_38">
    <path clip-path="url(#p9e1d102e86)" d="M 108.914459 288.430125 
L 109.899618 288.430125 
L 109.899618 266.601127 
L 108.914459 266.601127 
z
" style="fill:#1f77b4;"/>
   </g>
   <g id="patch_39">
    <path clip-path="url(#p9e1d102e86)" d="M 110.145908 288.430125 
L 111.131066 288.430125 
L 111.131066 266.463549 
L 110.145908 266.463549 
z
" style="fill:#1f77b4;"/>
   </g>
   <g id="patch_40">
    <path clip-path="url(#p9e1d102e86)" d="M 111.377356 288.430125 
L 112.362515 288.430125 
L 112.362515 266.307627 
L 111.377356 266.307627 
z
" style="fill:#1f77b4;"/>
   </g>
   <g id="patch_41">
    <path clip-path="url(#p9e1d102e86)" d="M 112.608804 288.430125 
L 113.593963 288.430125 
L 113.593963 266.27094 
L 112.608804 266.27094 
z
" style="fill:#1f77b4;"/>
   </g>
   <g id="patch_42">
    <path clip-path="url(#p9e1d102e86)" d="M 113.840253 288.430125 
L 114.825411 288.430125 
L 114.825411 266.096675 
L 113.840253 266.096675 
z
" style="fill:#1f77b4;"/>
   </g>
   <g id="patch_43">
    <path clip-path="url(#p9e1d102e86)" d="M 115.071701 288.430125 
L 116.056859 288.430125 
L 116.056859 265.904066 
L 115.071701 265.904066 
z
" style="fill:#1f77b4;"/>
   </g>
   <g id="patch_44">
    <path clip-path="url(#p9e1d102e86)" d="M 116.303149 288.430125 
L 117.288308 288.430125 
L 117.288308 265.720629 
L 116.303149 265.720629 
z
" style="fill:#1f77b4;"/>
   </g>
   <g id="patch_45">
    <path clip-path="url(#p9e1d102e86)" d="M 117.534597 288.430125 
L 118.519756 288.430125 
L 118.519756 265.67477 
L 117.534597 265.67477 
z
" style="fill:#1f77b4;"/>
   </g>
   <g id="patch_46">
    <path clip-path="url(#p9e1d102e86)" d="M 118.766046 288.430125 
L 119.751204 288.430125 
L 119.751204 265.537192 
L 118.766046 265.537192 
z
" style="fill:#1f77b4;"/>
   </g>
   <g id="patch_47">
    <path clip-path="url(#p9e1d102e86)" d="M 119.997494 288.430125 
L 120.982653 288.430125 
L 120.982653 265.518849 
L 119.997494 265.518849 
z
" style="fill:#1f77b4;"/>
   </g>
   <g id="patch_48">
    <path clip-path="url(#p9e1d102e86)" d="M 121.228942 288.430125 
L 122.214101 288.430125 
L 122.214101 265.436302 
L 121.228942 265.436302 
z
" style="fill:#1f77b4;"/>
   </g>
   <g id="patch_49">
    <path clip-path="url(#p9e1d102e86)" d="M 122.460391 288.430125 
L 123.445549 288.430125 
L 123.445549 265.335412 
L 122.460391 265.335412 
z
" style="fill:#1f77b4;"/>
   </g>
   <g id="patch_50">
    <path clip-path="url(#p9e1d102e86)" d="M 123.691839 288.430125 
L 124.676997 288.430125 
L 124.676997 265.243693 
L 123.691839 265.243693 
z
" style="fill:#1f77b4;"/>
   </g>
   <g id="patch_51">
    <path clip-path="url(#p9e1d102e86)" d="M 124.923287 288.430125 
L 125.908446 288.430125 
L 125.908446 265.17949 
L 124.923287 265.17949 
z
" style="fill:#1f77b4;"/>
   </g>
   <g id="patch_52">
    <path clip-path="url(#p9e1d102e86)" d="M 126.154735 288.430125 
L 127.139894 288.430125 
L 127.139894 265.170318 
L 126.154735 265.170318 
z
" style="fill:#1f77b4;"/>
   </g>
   <g id="patch_53">
    <path clip-path="url(#p9e1d102e86)" d="M 127.386184 288.430125 
L 128.371342 288.430125 
L 128.371342 265.124459 
L 127.386184 265.124459 
z
" style="fill:#1f77b4;"/>
   </g>
   <g id="patch_54">
    <path clip-path="url(#p9e1d102e86)" d="M 128.617632 288.430125 
L 129.602791 288.430125 
L 129.602791 265.115287 
L 128.617632 265.115287 
z
" style="fill:#1f77b4;"/>
   </g>
   <g id="patch_55">
    <path clip-path="url(#p9e1d102e86)" d="M 129.84908 288.430125 
L 130.834239 288.430125 
L 130.834239 265.106115 
L 129.84908 265.106115 
z
" style="fill:#1f77b4;"/>
   </g>
   <g id="patch_56">
    <path clip-path="url(#p9e1d102e86)" d="M 131.080528 288.430125 
L 132.065687 288.430125 
L 132.065687 265.023569 
L 131.080528 265.023569 
z
" style="fill:#1f77b4;"/>
   </g>
   <g id="patch_57">
    <path clip-path="url(#p9e1d102e86)" d="M 132.311977 288.430125 
L 133.297135 288.430125 
L 133.297135 264.968538 
L 132.311977 264.968538 
z
" style="fill:#1f77b4;"/>
   </g>
   <g id="patch_58">
    <path clip-path="url(#p9e1d102e86)" d="M 133.543425 288.430125 
L 134.528584 288.430125 
L 134.528584 264.885991 
L 133.543425 264.885991 
z
" style="fill:#1f77b4;"/>
   </g>
   <g id="patch_59">
    <path clip-path="url(#p9e1d102e86)" d="M 134.774873 288.430125 
L 135.760032 288.430125 
L 135.760032 264.867647 
L 134.774873 264.867647 
z
" style="fill:#1f77b4;"/>
   </g>
   <g id="patch_60">
    <path clip-path="url(#p9e1d102e86)" d="M 136.006322 288.430125 
L 136.99148 288.430125 
L 136.99148 264.840132 
L 136.006322 264.840132 
z
" style="fill:#1f77b4;"/>
   </g>
   <g id="patch_61">
    <path clip-path="url(#p9e1d102e86)" d="M 137.23777 288.430125 
L 138.222928 288.430125 
L 138.222928 264.840132 
L 137.23777 264.840132 
z
" style="fill:#1f77b4;"/>
   </g>
   <g id="patch_62">
    <path clip-path="url(#p9e1d102e86)" d="M 138.469218 288.430125 
L 139.454377 288.430125 
L 139.454377 264.812616 
L 138.469218 264.812616 
z
" style="fill:#1f77b4;"/>
   </g>
   <g id="patch_63">
    <path clip-path="url(#p9e1d102e86)" d="M 139.700666 288.430125 
L 140.685825 288.430125 
L 140.685825 264.785101 
L 139.700666 264.785101 
z
" style="fill:#1f77b4;"/>
   </g>
   <g id="patch_64">
    <path clip-path="url(#p9e1d102e86)" d="M 140.932115 288.430125 
L 141.917273 288.430125 
L 141.917273 264.785101 
L 140.932115 264.785101 
z
" style="fill:#1f77b4;"/>
   </g>
   <g id="patch_65">
    <path clip-path="url(#p9e1d102e86)" d="M 142.163563 288.430125 
L 143.148722 288.430125 
L 143.148722 264.785101 
L 142.163563 264.785101 
z
" style="fill:#1f77b4;"/>
   </g>
   <g id="patch_66">
    <path clip-path="url(#p9e1d102e86)" d="M 143.395011 288.430125 
L 144.38017 288.430125 
L 144.38017 264.766757 
L 143.395011 264.766757 
z
" style="fill:#1f77b4;"/>
   </g>
   <g id="patch_67">
    <path clip-path="url(#p9e1d102e86)" d="M 144.626459 288.430125 
L 145.611618 288.430125 
L 145.611618 264.748413 
L 144.626459 264.748413 
z
" style="fill:#1f77b4;"/>
   </g>
   <g id="patch_68">
    <path clip-path="url(#p9e1d102e86)" d="M 145.857908 288.430125 
L 146.843066 288.430125 
L 146.843066 264.702554 
L 145.857908 264.702554 
z
" style="fill:#1f77b4;"/>
   </g>
   <g id="patch_69">
    <path clip-path="url(#p9e1d102e86)" d="M 147.089356 288.430125 
L 148.074515 288.430125 
L 148.074515 264.702554 
L 147.089356 264.702554 
z
" style="fill:#1f77b4;"/>
   </g>
   <g id="patch_70">
    <path clip-path="url(#p9e1d102e86)" d="M 148.320804 288.430125 
L 149.305963 288.430125 
L 149.305963 264.702554 
L 148.320804 264.702554 
z
" style="fill:#1f77b4;"/>
   </g>
   <g id="patch_71">
    <path clip-path="url(#p9e1d102e86)" d="M 149.552253 288.430125 
L 150.537411 288.430125 
L 150.537411 264.675038 
L 149.552253 264.675038 
z
" style="fill:#1f77b4;"/>
   </g>
   <g id="patch_72">
    <path clip-path="url(#p9e1d102e86)" d="M 150.783701 288.430125 
L 151.768859 288.430125 
L 151.768859 264.675038 
L 150.783701 264.675038 
z
" style="fill:#1f77b4;"/>
   </g>
   <g id="patch_73">
    <path clip-path="url(#p9e1d102e86)" d="M 152.015149 288.430125 
L 153.000308 288.430125 
L 153.000308 264.656695 
L 152.015149 264.656695 
z
" style="fill:#1f77b4;"/>
   </g>
   <g id="patch_74">
    <path clip-path="url(#p9e1d102e86)" d="M 153.246597 288.430125 
L 154.231756 288.430125 
L 154.231756 264.656695 
L 153.246597 264.656695 
z
" style="fill:#1f77b4;"/>
   </g>
   <g id="patch_75">
    <path clip-path="url(#p9e1d102e86)" d="M 154.478046 288.430125 
L 155.463204 288.430125 
L 155.463204 264.647523 
L 154.478046 264.647523 
z
" style="fill:#1f77b4;"/>
   </g>
   <g id="patch_76">
    <path clip-path="url(#p9e1d102e86)" d="M 155.709494 288.430125 
L 156.694653 288.430125 
L 156.694653 264.647523 
L 155.709494 264.647523 
z
" style="fill:#1f77b4;"/>
   </g>
   <g id="patch_77">
    <path clip-path="url(#p9e1d102e86)" d="M 156.940942 288.430125 
L 157.926101 288.430125 
L 157.926101 264.629179 
L 156.940942 264.629179 
z
" style="fill:#1f77b4;"/>
   </g>
   <g id="patch_78">
    <path clip-path="url(#p9e1d102e86)" d="M 158.172391 288.430125 
L 159.157549 288.430125 
L 159.157549 264.629179 
L 158.172391 264.629179 
z
" style="fill:#1f77b4;"/>
   </g>
   <g id="patch_79">
    <path clip-path="url(#p9e1d102e86)" d="M 159.403839 288.430125 
L 160.388997 288.430125 
L 160.388997 264.620007 
L 159.403839 264.620007 
z
" style="fill:#1f77b4;"/>
   </g>
   <g id="patch_80">
    <path clip-path="url(#p9e1d102e86)" d="M 160.635287 288.430125 
L 161.620446 288.430125 
L 161.620446 264.610836 
L 160.635287 264.610836 
z
" style="fill:#1f77b4;"/>
   </g>
   <g id="patch_81">
    <path clip-path="url(#p9e1d102e86)" d="M 161.866735 288.430125 
L 162.851894 288.430125 
L 162.851894 264.610836 
L 161.866735 264.610836 
z
" style="fill:#1f77b4;"/>
   </g>
   <g id="patch_82">
    <path clip-path="url(#p9e1d102e86)" d="M 163.098184 288.430125 
L 164.083342 288.430125 
L 164.083342 264.610836 
L 163.098184 264.610836 
z
" style="fill:#1f77b4;"/>
   </g>
   <g id="patch_83">
    <path clip-path="url(#p9e1d102e86)" d="M 164.329632 288.430125 
L 165.314791 288.430125 
L 165.314791 264.610836 
L 164.329632 264.610836 
z
" style="fill:#1f77b4;"/>
   </g>
   <g id="patch_84">
    <path clip-path="url(#p9e1d102e86)" d="M 165.56108 288.430125 
L 166.546239 288.430125 
L 166.546239 264.610836 
L 165.56108 264.610836 
z
" style="fill:#1f77b4;"/>
   </g>
   <g id="patch_85">
    <path clip-path="url(#p9e1d102e86)" d="M 166.792528 288.430125 
L 167.777687 288.430125 
L 167.777687 264.601664 
L 166.792528 264.601664 
z
" style="fill:#1f77b4;"/>
   </g>
   <g id="patch_86">
    <path clip-path="url(#p9e1d102e86)" d="M 168.023977 288.430125 
L 169.009135 288.430125 
L 169.009135 264.592492 
L 168.023977 264.592492 
z
" style="fill:#1f77b4;"/>
   </g>
   <g id="patch_87">
    <path clip-path="url(#p9e1d102e86)" d="M 169.255425 288.430125 
L 170.240584 288.430125 
L 170.240584 264.564976 
L 169.255425 264.564976 
z
" style="fill:#1f77b4;"/>
   </g>
   <g id="patch_88">
    <path clip-path="url(#p9e1d102e86)" d="M 170.486873 288.430125 
L 171.472032 288.430125 
L 171.472032 264.564976 
L 170.486873 264.564976 
z
" style="fill:#1f77b4;"/>
   </g>
   <g id="patch_89">
    <path clip-path="url(#p9e1d102e86)" d="M 171.718322 288.430125 
L 172.70348 288.430125 
L 172.70348 264.564976 
L 171.718322 264.564976 
z
" style="fill:#1f77b4;"/>
   </g>
   <g id="patch_90">
    <path clip-path="url(#p9e1d102e86)" d="M 172.94977 288.430125 
L 173.934928 288.430125 
L 173.934928 264.564976 
L 172.94977 264.564976 
z
" style="fill:#1f77b4;"/>
   </g>
   <g id="patch_91">
    <path clip-path="url(#p9e1d102e86)" d="M 174.181218 288.430125 
L 175.166377 288.430125 
L 175.166377 264.528289 
L 174.181218 264.528289 
z
" style="fill:#1f77b4;"/>
   </g>
   <g id="patch_92">
    <path clip-path="url(#p9e1d102e86)" d="M 175.412666 288.430125 
L 176.397825 288.430125 
L 176.397825 264.509945 
L 175.412666 264.509945 
z
" style="fill:#1f77b4;"/>
   </g>
   <g id="patch_93">
    <path clip-path="url(#p9e1d102e86)" d="M 176.644115 288.430125 
L 177.629273 288.430125 
L 177.629273 264.491602 
L 176.644115 264.491602 
z
" style="fill:#1f77b4;"/>
   </g>
   <g id="patch_94">
    <path clip-path="url(#p9e1d102e86)" d="M 177.875563 288.430125 
L 178.860722 288.430125 
L 178.860722 264.48243 
L 177.875563 264.48243 
z
" style="fill:#1f77b4;"/>
   </g>
   <g id="patch_95">
    <path clip-path="url(#p9e1d102e86)" d="M 179.107011 288.430125 
L 180.09217 288.430125 
L 180.09217 264.48243 
L 179.107011 264.48243 
z
" style="fill:#1f77b4;"/>
   </g>
   <g id="patch_96">
    <path clip-path="url(#p9e1d102e86)" d="M 180.338459 288.430125 
L 181.323618 288.430125 
L 181.323618 264.48243 
L 180.338459 264.48243 
z
" style="fill:#1f77b4;"/>
   </g>
   <g id="patch_97">
    <path clip-path="url(#p9e1d102e86)" d="M 181.569908 288.430125 
L 182.555066 288.430125 
L 182.555066 264.48243 
L 181.569908 264.48243 
z
" style="fill:#1f77b4;"/>
   </g>
   <g id="patch_98">
    <path clip-path="url(#p9e1d102e86)" d="M 182.801356 288.430125 
L 183.786515 288.430125 
L 183.786515 264.464086 
L 182.801356 264.464086 
z
" style="fill:#1f77b4;"/>
   </g>
   <g id="patch_99">
    <path clip-path="url(#p9e1d102e86)" d="M 184.032804 288.430125 
L 185.017963 288.430125 
L 185.017963 264.445742 
L 184.032804 264.445742 
z
" style="fill:#1f77b4;"/>
   </g>
   <g id="patch_100">
    <path clip-path="url(#p9e1d102e86)" d="M 185.264253 288.430125 
L 186.249411 288.430125 
L 186.249411 264.418227 
L 185.264253 264.418227 
z
" style="fill:#1f77b4;"/>
   </g>
   <g id="patch_101">
    <path clip-path="url(#p9e1d102e86)" d="M 186.495701 288.430125 
L 187.480859 288.430125 
L 187.480859 264.381539 
L 186.495701 264.381539 
z
" style="fill:#1f77b4;"/>
   </g>
   <g id="patch_102">
    <path clip-path="url(#p9e1d102e86)" d="M 187.727149 288.430125 
L 188.712308 288.430125 
L 188.712308 264.280649 
L 187.727149 264.280649 
z
" style="fill:#1f77b4;"/>
   </g>
   <g id="patch_103">
    <path clip-path="url(#p9e1d102e86)" d="M 188.958597 288.430125 
L 189.943756 288.430125 
L 189.943756 264.280649 
L 188.958597 264.280649 
z
" style="fill:#1f77b4;"/>
   </g>
   <g id="patch_104">
    <path clip-path="url(#p9e1d102e86)" d="M 190.190046 288.430125 
L 191.175204 288.430125 
L 191.175204 264.271477 
L 190.190046 264.271477 
z
" style="fill:#1f77b4;"/>
   </g>
   <g id="patch_105">
    <path clip-path="url(#p9e1d102e86)" d="M 191.421494 288.430125 
L 192.406653 288.430125 
L 192.406653 264.271477 
L 191.421494 264.271477 
z
" style="fill:#1f77b4;"/>
   </g>
   <g id="patch_106">
    <path clip-path="url(#p9e1d102e86)" d="M 192.652942 288.430125 
L 193.638101 288.430125 
L 193.638101 264.271477 
L 192.652942 264.271477 
z
" style="fill:#1f77b4;"/>
   </g>
   <g id="patch_107">
    <path clip-path="url(#p9e1d102e86)" d="M 193.884391 288.430125 
L 194.869549 288.430125 
L 194.869549 264.253133 
L 193.884391 264.253133 
z
" style="fill:#1f77b4;"/>
   </g>
   <g id="patch_108">
    <path clip-path="url(#p9e1d102e86)" d="M 195.115839 288.430125 
L 196.100997 288.430125 
L 196.100997 264.243962 
L 195.115839 264.243962 
z
" style="fill:#1f77b4;"/>
   </g>
   <g id="patch_109">
    <path clip-path="url(#p9e1d102e86)" d="M 196.347287 288.430125 
L 197.332446 288.430125 
L 197.332446 264.225618 
L 196.347287 264.225618 
z
" style="fill:#1f77b4;"/>
   </g>
   <g id="patch_110">
    <path clip-path="url(#p9e1d102e86)" d="M 197.578735 288.430125 
L 198.563894 288.430125 
L 198.563894 264.225618 
L 197.578735 264.225618 
z
" style="fill:#1f77b4;"/>
   </g>
   <g id="patch_111">
    <path clip-path="url(#p9e1d102e86)" d="M 198.810184 288.430125 
L 199.795342 288.430125 
L 199.795342 264.207274 
L 198.810184 264.207274 
z
" style="fill:#1f77b4;"/>
   </g>
   <g id="patch_112">
    <path clip-path="url(#p9e1d102e86)" d="M 200.041632 288.430125 
L 201.026791 288.430125 
L 201.026791 264.198102 
L 200.041632 264.198102 
z
" style="fill:#1f77b4;"/>
   </g>
   <g id="patch_113">
    <path clip-path="url(#p9e1d102e86)" d="M 201.27308 288.430125 
L 202.258239 288.430125 
L 202.258239 264.198102 
L 201.27308 264.198102 
z
" style="fill:#1f77b4;"/>
   </g>
   <g id="patch_114">
    <path clip-path="url(#p9e1d102e86)" d="M 202.504528 288.430125 
L 203.489687 288.430125 
L 203.489687 264.161415 
L 202.504528 264.161415 
z
" style="fill:#1f77b4;"/>
   </g>
   <g id="patch_115">
    <path clip-path="url(#p9e1d102e86)" d="M 203.735977 288.430125 
L 204.721135 288.430125 
L 204.721135 264.152243 
L 203.735977 264.152243 
z
" style="fill:#1f77b4;"/>
   </g>
   <g id="patch_116">
    <path clip-path="url(#p9e1d102e86)" d="M 204.967425 288.430125 
L 205.952584 288.430125 
L 205.952584 264.152243 
L 204.967425 264.152243 
z
" style="fill:#1f77b4;"/>
   </g>
   <g id="patch_117">
    <path clip-path="url(#p9e1d102e86)" d="M 206.198873 288.430125 
L 207.184032 288.430125 
L 207.184032 264.143071 
L 206.198873 264.143071 
z
" style="fill:#1f77b4;"/>
   </g>
   <g id="patch_118">
    <path clip-path="url(#p9e1d102e86)" d="M 207.430322 288.430125 
L 208.41548 288.430125 
L 208.41548 264.124728 
L 207.430322 264.124728 
z
" style="fill:#1f77b4;"/>
   </g>
   <g id="patch_119">
    <path clip-path="url(#p9e1d102e86)" d="M 208.66177 288.430125 
L 209.646928 288.430125 
L 209.646928 264.097212 
L 208.66177 264.097212 
z
" style="fill:#1f77b4;"/>
   </g>
   <g id="patch_120">
    <path clip-path="url(#p9e1d102e86)" d="M 209.893218 288.430125 
L 210.878377 288.430125 
L 210.878377 264.051353 
L 209.893218 264.051353 
z
" style="fill:#1f77b4;"/>
   </g>
   <g id="patch_121">
    <path clip-path="url(#p9e1d102e86)" d="M 211.124666 288.430125 
L 212.109825 288.430125 
L 212.109825 264.023837 
L 211.124666 264.023837 
z
" style="fill:#1f77b4;"/>
   </g>
   <g id="patch_122">
    <path clip-path="url(#p9e1d102e86)" d="M 212.356115 288.430125 
L 213.341273 288.430125 
L 213.341273 263.977978 
L 212.356115 263.977978 
z
" style="fill:#1f77b4;"/>
   </g>
   <g id="patch_123">
    <path clip-path="url(#p9e1d102e86)" d="M 213.587563 288.430125 
L 214.572722 288.430125 
L 214.572722 263.913775 
L 213.587563 263.913775 
z
" style="fill:#1f77b4;"/>
   </g>
   <g id="patch_124">
    <path clip-path="url(#p9e1d102e86)" d="M 214.819011 288.430125 
L 215.80417 288.430125 
L 215.80417 263.904603 
L 214.819011 263.904603 
z
" style="fill:#1f77b4;"/>
   </g>
   <g id="patch_125">
    <path clip-path="url(#p9e1d102e86)" d="M 216.050459 288.430125 
L 217.035618 288.430125 
L 217.035618 263.877088 
L 216.050459 263.877088 
z
" style="fill:#1f77b4;"/>
   </g>
   <g id="patch_126">
    <path clip-path="url(#p9e1d102e86)" d="M 217.281908 288.430125 
L 218.267066 288.430125 
L 218.267066 263.867916 
L 217.281908 263.867916 
z
" style="fill:#1f77b4;"/>
   </g>
   <g id="patch_127">
    <path clip-path="url(#p9e1d102e86)" d="M 218.513356 288.430125 
L 219.498515 288.430125 
L 219.498515 263.831228 
L 218.513356 263.831228 
z
" style="fill:#1f77b4;"/>
   </g>
   <g id="patch_128">
    <path clip-path="url(#p9e1d102e86)" d="M 219.744804 288.430125 
L 220.729963 288.430125 
L 220.729963 263.822057 
L 219.744804 263.822057 
z
" style="fill:#1f77b4;"/>
   </g>
   <g id="patch_129">
    <path clip-path="url(#p9e1d102e86)" d="M 220.976253 288.430125 
L 221.961411 288.430125 
L 221.961411 263.812885 
L 220.976253 263.812885 
z
" style="fill:#1f77b4;"/>
   </g>
   <g id="patch_130">
    <path clip-path="url(#p9e1d102e86)" d="M 222.207701 288.430125 
L 223.192859 288.430125 
L 223.192859 263.812885 
L 222.207701 263.812885 
z
" style="fill:#1f77b4;"/>
   </g>
   <g id="patch_131">
    <path clip-path="url(#p9e1d102e86)" d="M 223.439149 288.430125 
L 224.424308 288.430125 
L 224.424308 263.803713 
L 223.439149 263.803713 
z
" style="fill:#1f77b4;"/>
   </g>
   <g id="patch_132">
    <path clip-path="url(#p9e1d102e86)" d="M 224.670597 288.430125 
L 225.655756 288.430125 
L 225.655756 263.803713 
L 224.670597 263.803713 
z
" style="fill:#1f77b4;"/>
   </g>
   <g id="patch_133">
    <path clip-path="url(#p9e1d102e86)" d="M 225.902046 288.430125 
L 226.887204 288.430125 
L 226.887204 263.794541 
L 225.902046 263.794541 
z
" style="fill:#1f77b4;"/>
   </g>
   <g id="patch_134">
    <path clip-path="url(#p9e1d102e86)" d="M 227.133494 288.430125 
L 228.118653 288.430125 
L 228.118653 263.785369 
L 227.133494 263.785369 
z
" style="fill:#1f77b4;"/>
   </g>
   <g id="patch_135">
    <path clip-path="url(#p9e1d102e86)" d="M 228.364942 288.430125 
L 229.350101 288.430125 
L 229.350101 263.730338 
L 228.364942 263.730338 
z
" style="fill:#1f77b4;"/>
   </g>
   <g id="patch_136">
    <path clip-path="url(#p9e1d102e86)" d="M 229.596391 288.430125 
L 230.581549 288.430125 
L 230.581549 263.684479 
L 229.596391 263.684479 
z
" style="fill:#1f77b4;"/>
   </g>
   <g id="patch_137">
    <path clip-path="url(#p9e1d102e86)" d="M 230.827839 288.430125 
L 231.812997 288.430125 
L 231.812997 263.666135 
L 230.827839 263.666135 
z
" style="fill:#1f77b4;"/>
   </g>
   <g id="patch_138">
    <path clip-path="url(#p9e1d102e86)" d="M 232.059287 288.430125 
L 233.044446 288.430125 
L 233.044446 263.73951 
L 232.059287 263.73951 
z
" style="fill:#1f77b4;"/>
   </g>
   <g id="patch_139">
    <path clip-path="url(#p9e1d102e86)" d="M 233.290735 288.430125 
L 234.275894 288.430125 
L 234.275894 263.702823 
L 233.290735 263.702823 
z
" style="fill:#1f77b4;"/>
   </g>
   <g id="patch_140">
    <path clip-path="url(#p9e1d102e86)" d="M 234.522184 288.430125 
L 235.507342 288.430125 
L 235.507342 263.647792 
L 234.522184 263.647792 
z
" style="fill:#1f77b4;"/>
   </g>
   <g id="patch_141">
    <path clip-path="url(#p9e1d102e86)" d="M 235.753632 288.430125 
L 236.738791 288.430125 
L 236.738791 263.510214 
L 235.753632 263.510214 
z
" style="fill:#1f77b4;"/>
   </g>
   <g id="patch_142">
    <path clip-path="url(#p9e1d102e86)" d="M 236.98508 288.430125 
L 237.970239 288.430125 
L 237.970239 263.436839 
L 236.98508 263.436839 
z
" style="fill:#1f77b4;"/>
   </g>
   <g id="patch_143">
    <path clip-path="url(#p9e1d102e86)" d="M 238.216528 288.430125 
L 239.201687 288.430125 
L 239.201687 263.409323 
L 238.216528 263.409323 
z
" style="fill:#1f77b4;"/>
   </g>
   <g id="patch_144">
    <path clip-path="url(#p9e1d102e86)" d="M 239.447977 288.430125 
L 240.433135 288.430125 
L 240.433135 263.354292 
L 239.447977 263.354292 
z
" style="fill:#1f77b4;"/>
   </g>
   <g id="patch_145">
    <path clip-path="url(#p9e1d102e86)" d="M 240.679425 288.430125 
L 241.664584 288.430125 
L 241.664584 263.290089 
L 240.679425 263.290089 
z
" style="fill:#1f77b4;"/>
   </g>
   <g id="patch_146">
    <path clip-path="url(#p9e1d102e86)" d="M 241.910873 288.430125 
L 242.896032 288.430125 
L 242.896032 263.253402 
L 241.910873 263.253402 
z
" style="fill:#1f77b4;"/>
   </g>
   <g id="patch_147">
    <path clip-path="url(#p9e1d102e86)" d="M 243.142322 288.430125 
L 244.12748 288.430125 
L 244.12748 263.14334 
L 243.142322 263.14334 
z
" style="fill:#1f77b4;"/>
   </g>
   <g id="patch_148">
    <path clip-path="url(#p9e1d102e86)" d="M 244.37377 288.430125 
L 245.358928 288.430125 
L 245.358928 263.106652 
L 244.37377 263.106652 
z
" style="fill:#1f77b4;"/>
   </g>
   <g id="patch_149">
    <path clip-path="url(#p9e1d102e86)" d="M 245.605218 288.430125 
L 246.590377 288.430125 
L 246.590377 263.060793 
L 245.605218 263.060793 
z
" style="fill:#1f77b4;"/>
   </g>
   <g id="patch_150">
    <path clip-path="url(#p9e1d102e86)" d="M 246.836666 288.430125 
L 247.821825 288.430125 
L 247.821825 262.99659 
L 246.836666 262.99659 
z
" style="fill:#1f77b4;"/>
   </g>
   <g id="patch_151">
    <path clip-path="url(#p9e1d102e86)" d="M 248.068115 288.430125 
L 249.053273 288.430125 
L 249.053273 262.987418 
L 248.068115 262.987418 
z
" style="fill:#1f77b4;"/>
   </g>
   <g id="patch_152">
    <path clip-path="url(#p9e1d102e86)" d="M 249.299563 288.430125 
L 250.284722 288.430125 
L 250.284722 262.978247 
L 249.299563 262.978247 
z
" style="fill:#1f77b4;"/>
   </g>
   <g id="patch_153">
    <path clip-path="url(#p9e1d102e86)" d="M 250.531011 288.430125 
L 251.51617 288.430125 
L 251.51617 262.941559 
L 250.531011 262.941559 
z
" style="fill:#1f77b4;"/>
   </g>
   <g id="patch_154">
    <path clip-path="url(#p9e1d102e86)" d="M 251.762459 288.430125 
L 252.747618 288.430125 
L 252.747618 262.923216 
L 251.762459 262.923216 
z
" style="fill:#1f77b4;"/>
   </g>
   <g id="patch_155">
    <path clip-path="url(#p9e1d102e86)" d="M 252.993908 288.430125 
L 253.979066 288.430125 
L 253.979066 262.8957 
L 252.993908 262.8957 
z
" style="fill:#1f77b4;"/>
   </g>
   <g id="patch_156">
    <path clip-path="url(#p9e1d102e86)" d="M 254.225356 288.430125 
L 255.210515 288.430125 
L 255.210515 262.813153 
L 254.225356 262.813153 
z
" style="fill:#1f77b4;"/>
   </g>
   <g id="patch_157">
    <path clip-path="url(#p9e1d102e86)" d="M 255.456804 288.430125 
L 256.441963 288.430125 
L 256.441963 262.730607 
L 255.456804 262.730607 
z
" style="fill:#1f77b4;"/>
   </g>
   <g id="patch_158">
    <path clip-path="url(#p9e1d102e86)" d="M 256.688253 288.430125 
L 257.673411 288.430125 
L 257.673411 262.712263 
L 256.688253 262.712263 
z
" style="fill:#1f77b4;"/>
   </g>
   <g id="patch_159">
    <path clip-path="url(#p9e1d102e86)" d="M 257.919701 288.430125 
L 258.904859 288.430125 
L 258.904859 262.712263 
L 257.919701 262.712263 
z
" style="fill:#1f77b4;"/>
   </g>
   <g id="patch_160">
    <path clip-path="url(#p9e1d102e86)" d="M 259.151149 288.430125 
L 260.136308 288.430125 
L 260.136308 262.64806 
L 259.151149 262.64806 
z
" style="fill:#1f77b4;"/>
   </g>
   <g id="patch_161">
    <path clip-path="url(#p9e1d102e86)" d="M 260.382597 288.430125 
L 261.367756 288.430125 
L 261.367756 262.455451 
L 260.382597 262.455451 
z
" style="fill:#1f77b4;"/>
   </g>
   <g id="patch_162">
    <path clip-path="url(#p9e1d102e86)" d="M 261.614046 288.430125 
L 262.599204 288.430125 
L 262.599204 262.409592 
L 261.614046 262.409592 
z
" style="fill:#1f77b4;"/>
   </g>
   <g id="patch_163">
    <path clip-path="url(#p9e1d102e86)" d="M 262.845494 288.430125 
L 263.830653 288.430125 
L 263.830653 262.262842 
L 262.845494 262.262842 
z
" style="fill:#1f77b4;"/>
   </g>
   <g id="patch_164">
    <path clip-path="url(#p9e1d102e86)" d="M 264.076942 288.430125 
L 265.062101 288.430125 
L 265.062101 262.116093 
L 264.076942 262.116093 
z
" style="fill:#1f77b4;"/>
   </g>
   <g id="patch_165">
    <path clip-path="url(#p9e1d102e86)" d="M 265.308391 288.430125 
L 266.293549 288.430125 
L 266.293549 261.978515 
L 265.308391 261.978515 
z
" style="fill:#1f77b4;"/>
   </g>
   <g id="patch_166">
    <path clip-path="url(#p9e1d102e86)" d="M 266.539839 288.430125 
L 267.524997 288.430125 
L 267.524997 261.895969 
L 266.539839 261.895969 
z
" style="fill:#1f77b4;"/>
   </g>
   <g id="patch_167">
    <path clip-path="url(#p9e1d102e86)" d="M 267.771287 288.430125 
L 268.756446 288.430125 
L 268.756446 261.850109 
L 267.771287 261.850109 
z
" style="fill:#1f77b4;"/>
   </g>
   <g id="patch_168">
    <path clip-path="url(#p9e1d102e86)" d="M 269.002735 288.430125 
L 269.987894 288.430125 
L 269.987894 261.767563 
L 269.002735 261.767563 
z
" style="fill:#1f77b4;"/>
   </g>
   <g id="patch_169">
    <path clip-path="url(#p9e1d102e86)" d="M 270.234184 288.430125 
L 271.219342 288.430125 
L 271.219342 261.694188 
L 270.234184 261.694188 
z
" style="fill:#1f77b4;"/>
   </g>
   <g id="patch_170">
    <path clip-path="url(#p9e1d102e86)" d="M 271.465632 288.430125 
L 272.450791 288.430125 
L 272.450791 261.611641 
L 271.465632 261.611641 
z
" style="fill:#1f77b4;"/>
   </g>
   <g id="patch_171">
    <path clip-path="url(#p9e1d102e86)" d="M 272.69708 288.430125 
L 273.682239 288.430125 
L 273.682239 261.538266 
L 272.69708 261.538266 
z
" style="fill:#1f77b4;"/>
   </g>
   <g id="patch_172">
    <path clip-path="url(#p9e1d102e86)" d="M 273.928528 288.430125 
L 274.913687 288.430125 
L 274.913687 261.510751 
L 273.928528 261.510751 
z
" style="fill:#1f77b4;"/>
   </g>
   <g id="patch_173">
    <path clip-path="url(#p9e1d102e86)" d="M 275.159977 288.430125 
L 276.145135 288.430125 
L 276.145135 261.391517 
L 275.159977 261.391517 
z
" style="fill:#1f77b4;"/>
   </g>
   <g id="patch_174">
    <path clip-path="url(#p9e1d102e86)" d="M 276.391425 288.430125 
L 277.376584 288.430125 
L 277.376584 261.299798 
L 276.391425 261.299798 
z
" style="fill:#1f77b4;"/>
   </g>
   <g id="patch_175">
    <path clip-path="url(#p9e1d102e86)" d="M 277.622873 288.430125 
L 278.608032 288.430125 
L 278.608032 261.263111 
L 277.622873 261.263111 
z
" style="fill:#1f77b4;"/>
   </g>
   <g id="patch_176">
    <path clip-path="url(#p9e1d102e86)" d="M 278.854322 288.430125 
L 279.83948 288.430125 
L 279.83948 261.162221 
L 278.854322 261.162221 
z
" style="fill:#1f77b4;"/>
   </g>
   <g id="patch_177">
    <path clip-path="url(#p9e1d102e86)" d="M 280.08577 288.430125 
L 281.070928 288.430125 
L 281.070928 260.951268 
L 280.08577 260.951268 
z
" style="fill:#1f77b4;"/>
   </g>
   <g id="patch_178">
    <path clip-path="url(#p9e1d102e86)" d="M 281.317218 288.430125 
L 282.302377 288.430125 
L 282.302377 260.887065 
L 281.317218 260.887065 
z
" style="fill:#1f77b4;"/>
   </g>
   <g id="patch_179">
    <path clip-path="url(#p9e1d102e86)" d="M 282.548666 288.430125 
L 283.533825 288.430125 
L 283.533825 260.887065 
L 282.548666 260.887065 
z
" style="fill:#1f77b4;"/>
   </g>
   <g id="patch_180">
    <path clip-path="url(#p9e1d102e86)" d="M 283.780115 288.430125 
L 284.765273 288.430125 
L 284.765273 260.850378 
L 283.780115 260.850378 
z
" style="fill:#1f77b4;"/>
   </g>
   <g id="patch_181">
    <path clip-path="url(#p9e1d102e86)" d="M 285.011563 288.430125 
L 285.996722 288.430125 
L 285.996722 260.758659 
L 285.011563 260.758659 
z
" style="fill:#1f77b4;"/>
   </g>
   <g id="patch_182">
    <path clip-path="url(#p9e1d102e86)" d="M 286.243011 288.430125 
L 287.22817 288.430125 
L 287.22817 260.575222 
L 286.243011 260.575222 
z
" style="fill:#1f77b4;"/>
   </g>
   <g id="patch_183">
    <path clip-path="url(#p9e1d102e86)" d="M 287.474459 288.430125 
L 288.459618 288.430125 
L 288.459618 260.336754 
L 287.474459 260.336754 
z
" style="fill:#1f77b4;"/>
   </g>
   <g id="patch_184">
    <path clip-path="url(#p9e1d102e86)" d="M 288.705908 288.430125 
L 289.691066 288.430125 
L 289.691066 260.107458 
L 288.705908 260.107458 
z
" style="fill:#1f77b4;"/>
   </g>
   <g id="patch_185">
    <path clip-path="url(#p9e1d102e86)" d="M 289.937356 288.430125 
L 290.922515 288.430125 
L 290.922515 259.740584 
L 289.937356 259.740584 
z
" style="fill:#1f77b4;"/>
   </g>
   <g id="patch_186">
    <path clip-path="url(#p9e1d102e86)" d="M 291.168804 288.430125 
L 292.153963 288.430125 
L 292.153963 259.676381 
L 291.168804 259.676381 
z
" style="fill:#1f77b4;"/>
   </g>
   <g id="patch_187">
    <path clip-path="url(#p9e1d102e86)" d="M 292.400253 288.430125 
L 293.385411 288.430125 
L 293.385411 259.483772 
L 292.400253 259.483772 
z
" style="fill:#1f77b4;"/>
   </g>
   <g id="patch_188">
    <path clip-path="url(#p9e1d102e86)" d="M 293.631701 288.430125 
L 294.616859 288.430125 
L 294.616859 259.37371 
L 293.631701 259.37371 
z
" style="fill:#1f77b4;"/>
   </g>
   <g id="patch_189">
    <path clip-path="url(#p9e1d102e86)" d="M 294.863149 288.430125 
L 295.848308 288.430125 
L 295.848308 259.236133 
L 294.863149 259.236133 
z
" style="fill:#1f77b4;"/>
   </g>
   <g id="patch_190">
    <path clip-path="url(#p9e1d102e86)" d="M 296.094597 288.430125 
L 297.079756 288.430125 
L 297.079756 258.57576 
L 296.094597 258.57576 
z
" style="fill:#1f77b4;"/>
   </g>
   <g id="patch_191">
    <path clip-path="url(#p9e1d102e86)" d="M 297.326046 288.430125 
L 298.311204 288.430125 
L 298.311204 258.337291 
L 297.326046 258.337291 
z
" style="fill:#1f77b4;"/>
   </g>
   <g id="patch_192">
    <path clip-path="url(#p9e1d102e86)" d="M 298.557494 288.430125 
L 299.542653 288.430125 
L 299.542653 258.153855 
L 298.557494 258.153855 
z
" style="fill:#1f77b4;"/>
   </g>
   <g id="patch_193">
    <path clip-path="url(#p9e1d102e86)" d="M 299.788942 288.430125 
L 300.774101 288.430125 
L 300.774101 257.970418 
L 299.788942 257.970418 
z
" style="fill:#1f77b4;"/>
   </g>
   <g id="patch_194">
    <path clip-path="url(#p9e1d102e86)" d="M 301.020391 288.430125 
L 302.005549 288.430125 
L 302.005549 257.897043 
L 301.020391 257.897043 
z
" style="fill:#1f77b4;"/>
   </g>
   <g id="patch_195">
    <path clip-path="url(#p9e1d102e86)" d="M 302.251839 288.430125 
L 303.236997 288.430125 
L 303.236997 257.621887 
L 302.251839 257.621887 
z
" style="fill:#1f77b4;"/>
   </g>
   <g id="patch_196">
    <path clip-path="url(#p9e1d102e86)" d="M 303.483287 288.430125 
L 304.468446 288.430125 
L 304.468446 257.374247 
L 303.483287 257.374247 
z
" style="fill:#1f77b4;"/>
   </g>
   <g id="patch_197">
    <path clip-path="url(#p9e1d102e86)" d="M 304.714735 288.430125 
L 305.699894 288.430125 
L 305.699894 256.897311 
L 304.714735 256.897311 
z
" style="fill:#1f77b4;"/>
   </g>
   <g id="patch_198">
    <path clip-path="url(#p9e1d102e86)" d="M 305.946184 288.430125 
L 306.931342 288.430125 
L 306.931342 256.631328 
L 305.946184 256.631328 
z
" style="fill:#1f77b4;"/>
   </g>
   <g id="patch_199">
    <path clip-path="url(#p9e1d102e86)" d="M 307.177632 288.430125 
L 308.162791 288.430125 
L 308.162791 256.429547 
L 307.177632 256.429547 
z
" style="fill:#1f77b4;"/>
   </g>
   <g id="patch_200">
    <path clip-path="url(#p9e1d102e86)" d="M 308.40908 288.430125 
L 309.394239 288.430125 
L 309.394239 256.200251 
L 308.40908 256.200251 
z
" style="fill:#1f77b4;"/>
   </g>
   <g id="patch_201">
    <path clip-path="url(#p9e1d102e86)" d="M 309.640528 288.430125 
L 310.625687 288.430125 
L 310.625687 256.126876 
L 309.640528 256.126876 
z
" style="fill:#1f77b4;"/>
   </g>
   <g id="patch_202">
    <path clip-path="url(#p9e1d102e86)" d="M 310.871977 288.430125 
L 311.857135 288.430125 
L 311.857135 255.970955 
L 310.871977 255.970955 
z
" style="fill:#1f77b4;"/>
   </g>
   <g id="patch_203">
    <path clip-path="url(#p9e1d102e86)" d="M 312.103425 288.430125 
L 313.088584 288.430125 
L 313.088584 255.704971 
L 312.103425 255.704971 
z
" style="fill:#1f77b4;"/>
   </g>
   <g id="patch_204">
    <path clip-path="url(#p9e1d102e86)" d="M 313.334873 288.430125 
L 314.320032 288.430125 
L 314.320032 255.530706 
L 313.334873 255.530706 
z
" style="fill:#1f77b4;"/>
   </g>
   <g id="patch_205">
    <path clip-path="url(#p9e1d102e86)" d="M 314.566322 288.430125 
L 315.55148 288.430125 
L 315.55148 255.292238 
L 314.566322 255.292238 
z
" style="fill:#1f77b4;"/>
   </g>
   <g id="patch_206">
    <path clip-path="url(#p9e1d102e86)" d="M 315.79777 288.430125 
L 316.782928 288.430125 
L 316.782928 254.998739 
L 315.79777 254.998739 
z
" style="fill:#1f77b4;"/>
   </g>
   <g id="patch_207">
    <path clip-path="url(#p9e1d102e86)" d="M 317.029218 288.430125 
L 318.014377 288.430125 
L 318.014377 254.842817 
L 317.029218 254.842817 
z
" style="fill:#1f77b4;"/>
   </g>
   <g id="patch_208">
    <path clip-path="url(#p9e1d102e86)" d="M 318.260666 288.430125 
L 319.245825 288.430125 
L 319.245825 254.686896 
L 318.260666 254.686896 
z
" style="fill:#1f77b4;"/>
   </g>
   <g id="patch_209">
    <path clip-path="url(#p9e1d102e86)" d="M 319.492115 288.430125 
L 320.477273 288.430125 
L 320.477273 254.182444 
L 319.492115 254.182444 
z
" style="fill:#1f77b4;"/>
   </g>
   <g id="patch_210">
    <path clip-path="url(#p9e1d102e86)" d="M 320.723563 288.430125 
L 321.708722 288.430125 
L 321.708722 253.549587 
L 320.723563 253.549587 
z
" style="fill:#1f77b4;"/>
   </g>
   <g id="patch_211">
    <path clip-path="url(#p9e1d102e86)" d="M 321.955011 288.430125 
L 322.94017 288.430125 
L 322.94017 252.76998 
L 321.955011 252.76998 
z
" style="fill:#1f77b4;"/>
   </g>
   <g id="patch_212">
    <path clip-path="url(#p9e1d102e86)" d="M 323.186459 288.430125 
L 324.171618 288.430125 
L 324.171618 251.92617 
L 323.186459 251.92617 
z
" style="fill:#1f77b4;"/>
   </g>
   <g id="patch_213">
    <path clip-path="url(#p9e1d102e86)" d="M 324.417908 288.430125 
L 325.403066 288.430125 
L 325.403066 251.155734 
L 324.417908 251.155734 
z
" style="fill:#1f77b4;"/>
   </g>
   <g id="patch_214">
    <path clip-path="url(#p9e1d102e86)" d="M 325.649356 288.430125 
L 326.634515 288.430125 
L 326.634515 250.743001 
L 325.649356 250.743001 
z
" style="fill:#1f77b4;"/>
   </g>
   <g id="patch_215">
    <path clip-path="url(#p9e1d102e86)" d="M 326.880804 288.430125 
L 327.865963 288.430125 
L 327.865963 250.431158 
L 326.880804 250.431158 
z
" style="fill:#1f77b4;"/>
   </g>
   <g id="patch_216">
    <path clip-path="url(#p9e1d102e86)" d="M 328.112253 288.430125 
L 329.097411 288.430125 
L 329.097411 249.293849 
L 328.112253 249.293849 
z
" style="fill:#1f77b4;"/>
   </g>
   <g id="patch_217">
    <path clip-path="url(#p9e1d102e86)" d="M 329.343701 288.430125 
L 330.328859 288.430125 
L 330.328859 248.395008 
L 329.343701 248.395008 
z
" style="fill:#1f77b4;"/>
   </g>
   <g id="patch_218">
    <path clip-path="url(#p9e1d102e86)" d="M 330.575149 288.430125 
L 331.560308 288.430125 
L 331.560308 247.221012 
L 330.575149 247.221012 
z
" style="fill:#1f77b4;"/>
   </g>
   <g id="patch_219">
    <path clip-path="url(#p9e1d102e86)" d="M 331.806597 288.430125 
L 332.791756 288.430125 
L 332.791756 245.799375 
L 331.806597 245.799375 
z
" style="fill:#1f77b4;"/>
   </g>
   <g id="patch_220">
    <path clip-path="url(#p9e1d102e86)" d="M 333.038046 288.430125 
L 334.023204 288.430125 
L 334.023204 244.230989 
L 333.038046 244.230989 
z
" style="fill:#1f77b4;"/>
   </g>
   <g id="patch_221">
    <path clip-path="url(#p9e1d102e86)" d="M 334.269494 288.430125 
L 335.254653 288.430125 
L 335.254653 243.451382 
L 334.269494 243.451382 
z
" style="fill:#1f77b4;"/>
   </g>
   <g id="patch_222">
    <path clip-path="url(#p9e1d102e86)" d="M 335.500942 288.430125 
L 336.486101 288.430125 
L 336.486101 241.534466 
L 335.500942 241.534466 
z
" style="fill:#1f77b4;"/>
   </g>
   <g id="patch_223">
    <path clip-path="url(#p9e1d102e86)" d="M 336.732391 288.430125 
L 337.717549 288.430125 
L 337.717549 239.800987 
L 336.732391 239.800987 
z
" style="fill:#1f77b4;"/>
   </g>
   <g id="patch_224">
    <path clip-path="url(#p9e1d102e86)" d="M 337.963839 288.430125 
L 338.948997 288.430125 
L 338.948997 237.53554 
L 337.963839 237.53554 
z
" style="fill:#1f77b4;"/>
   </g>
   <g id="patch_225">
    <path clip-path="url(#p9e1d102e86)" d="M 339.195287 288.430125 
L 340.180446 288.430125 
L 340.180446 235.068313 
L 339.195287 235.068313 
z
" style="fill:#1f77b4;"/>
   </g>
   <g id="patch_226">
    <path clip-path="url(#p9e1d102e86)" d="M 340.426735 288.430125 
L 341.411894 288.430125 
L 341.411894 232.527711 
L 340.426735 232.527711 
z
" style="fill:#1f77b4;"/>
   </g>
   <g id="patch_227">
    <path clip-path="url(#p9e1d102e86)" d="M 341.658184 288.430125 
L 342.643342 288.430125 
L 342.643342 229.418454 
L 341.658184 229.418454 
z
" style="fill:#1f77b4;"/>
   </g>
   <g id="patch_228">
    <path clip-path="url(#p9e1d102e86)" d="M 342.889632 288.430125 
L 343.874791 288.430125 
L 343.874791 226.474291 
L 342.889632 226.474291 
z
" style="fill:#1f77b4;"/>
   </g>
   <g id="patch_229">
    <path clip-path="url(#p9e1d102e86)" d="M 344.12108 288.430125 
L 345.106239 288.430125 
L 345.106239 224.254704 
L 344.12108 224.254704 
z
" style="fill:#1f77b4;"/>
   </g>
   <g id="patch_230">
    <path clip-path="url(#p9e1d102e86)" d="M 345.352528 288.430125 
L 346.337687 288.430125 
L 346.337687 222.512053 
L 345.352528 222.512053 
z
" style="fill:#1f77b4;"/>
   </g>
   <g id="patch_231">
    <path clip-path="url(#p9e1d102e86)" d="M 346.583977 288.430125 
L 347.569135 288.430125 
L 347.569135 219.778842 
L 346.583977 219.778842 
z
" style="fill:#1f77b4;"/>
   </g>
   <g id="patch_232">
    <path clip-path="url(#p9e1d102e86)" d="M 347.815425 288.430125 
L 348.800584 288.430125 
L 348.800584 216.568695 
L 347.815425 216.568695 
z
" style="fill:#1f77b4;"/>
   </g>
   <g id="patch_233">
    <path clip-path="url(#p9e1d102e86)" d="M 349.046873 288.430125 
L 350.032032 288.430125 
L 350.032032 211.551694 
L 349.046873 211.551694 
z
" style="fill:#1f77b4;"/>
   </g>
   <g id="patch_234">
    <path clip-path="url(#p9e1d102e86)" d="M 350.278322 288.430125 
L 351.26348 288.430125 
L 351.26348 206.653928 
L 350.278322 206.653928 
z
" style="fill:#1f77b4;"/>
   </g>
   <g id="patch_235">
    <path clip-path="url(#p9e1d102e86)" d="M 351.50977 288.430125 
L 352.494928 288.430125 
L 352.494928 202.64583 
L 351.50977 202.64583 
z
" style="fill:#1f77b4;"/>
   </g>
   <g id="patch_236">
    <path clip-path="url(#p9e1d102e86)" d="M 352.741218 288.430125 
L 353.726377 288.430125 
L 353.726377 198.105765 
L 352.741218 198.105765 
z
" style="fill:#1f77b4;"/>
   </g>
   <g id="patch_237">
    <path clip-path="url(#p9e1d102e86)" d="M 353.972666 288.430125 
L 354.957825 288.430125 
L 354.957825 195.821975 
L 353.972666 195.821975 
z
" style="fill:#1f77b4;"/>
   </g>
   <g id="patch_238">
    <path clip-path="url(#p9e1d102e86)" d="M 355.204115 288.430125 
L 356.189273 288.430125 
L 356.189273 188.833027 
L 355.204115 188.833027 
z
" style="fill:#1f77b4;"/>
   </g>
   <g id="patch_239">
    <path clip-path="url(#p9e1d102e86)" d="M 356.435563 288.430125 
L 357.420722 288.430125 
L 357.420722 182.302671 
L 356.435563 182.302671 
z
" style="fill:#1f77b4;"/>
   </g>
   <g id="patch_240">
    <path clip-path="url(#p9e1d102e86)" d="M 357.667011 288.430125 
L 358.65217 288.430125 
L 358.65217 175.203661 
L 357.667011 175.203661 
z
" style="fill:#1f77b4;"/>
   </g>
   <g id="patch_241">
    <path clip-path="url(#p9e1d102e86)" d="M 358.898459 288.430125 
L 359.883618 288.430125 
L 359.883618 168.040447 
L 358.898459 168.040447 
z
" style="fill:#1f77b4;"/>
   </g>
   <g id="patch_242">
    <path clip-path="url(#p9e1d102e86)" d="M 360.129908 288.430125 
L 361.115066 288.430125 
L 361.115066 162.69326 
L 360.129908 162.69326 
z
" style="fill:#1f77b4;"/>
   </g>
   <g id="patch_243">
    <path clip-path="url(#p9e1d102e86)" d="M 361.361356 288.430125 
L 362.346515 288.430125 
L 362.346515 159.253817 
L 361.361356 159.253817 
z
" style="fill:#1f77b4;"/>
   </g>
   <g id="patch_244">
    <path clip-path="url(#p9e1d102e86)" d="M 362.592804 288.430125 
L 363.577963 288.430125 
L 363.577963 155.713483 
L 362.592804 155.713483 
z
" style="fill:#1f77b4;"/>
   </g>
   <g id="patch_245">
    <path clip-path="url(#p9e1d102e86)" d="M 363.824253 288.430125 
L 364.809411 288.430125 
L 364.809411 149.348221 
L 363.824253 149.348221 
z
" style="fill:#1f77b4;"/>
   </g>
   <g id="patch_246">
    <path clip-path="url(#p9e1d102e86)" d="M 365.055701 288.430125 
L 366.040859 288.430125 
L 366.040859 141.827305 
L 365.055701 141.827305 
z
" style="fill:#1f77b4;"/>
   </g>
   <g id="patch_247">
    <path clip-path="url(#p9e1d102e86)" d="M 366.287149 288.430125 
L 367.272308 288.430125 
L 367.272308 135.49873 
L 366.287149 135.49873 
z
" style="fill:#1f77b4;"/>
   </g>
   <g id="patch_248">
    <path clip-path="url(#p9e1d102e86)" d="M 367.518597 288.430125 
L 368.503756 288.430125 
L 368.503756 129.73881 
L 367.518597 129.73881 
z
" style="fill:#1f77b4;"/>
   </g>
   <g id="patch_249">
    <path clip-path="url(#p9e1d102e86)" d="M 368.750046 288.430125 
L 369.735204 288.430125 
L 369.735204 124.749324 
L 368.750046 124.749324 
z
" style="fill:#1f77b4;"/>
   </g>
   <g id="patch_250">
    <path clip-path="url(#p9e1d102e86)" d="M 369.981494 288.430125 
L 370.966653 288.430125 
L 370.966653 122.382987 
L 369.981494 122.382987 
z
" style="fill:#1f77b4;"/>
   </g>
   <g id="patch_251">
    <path clip-path="url(#p9e1d102e86)" d="M 371.212942 288.430125 
L 372.198101 288.430125 
L 372.198101 117.054144 
L 371.212942 117.054144 
z
" style="fill:#1f77b4;"/>
   </g>
   <g id="patch_252">
    <path clip-path="url(#p9e1d102e86)" d="M 372.444391 288.430125 
L 373.429549 288.430125 
L 373.429549 110.670537 
L 372.444391 110.670537 
z
" style="fill:#1f77b4;"/>
   </g>
   <g id="patch_253">
    <path clip-path="url(#p9e1d102e86)" d="M 373.675839 288.430125 
L 374.660997 288.430125 
L 374.660997 103.920057 
L 373.675839 103.920057 
z
" style="fill:#1f77b4;"/>
   </g>
   <g id="patch_254">
    <path clip-path="url(#p9e1d102e86)" d="M 374.907287 288.430125 
L 375.892446 288.430125 
L 375.892446 98.893885 
L 374.907287 98.893885 
z
" style="fill:#1f77b4;"/>
   </g>
   <g id="patch_255">
    <path clip-path="url(#p9e1d102e86)" d="M 376.138735 288.430125 
L 377.123894 288.430125 
L 377.123894 93.986946 
L 376.138735 93.986946 
z
" style="fill:#1f77b4;"/>
   </g>
   <g id="patch_256">
    <path clip-path="url(#p9e1d102e86)" d="M 377.370184 288.430125 
L 378.355342 288.430125 
L 378.355342 91.602265 
L 377.370184 91.602265 
z
" style="fill:#1f77b4;"/>
   </g>
   <g id="patch_257">
    <path clip-path="url(#p9e1d102e86)" d="M 378.601632 288.430125 
L 379.586791 288.430125 
L 379.586791 90.13477 
L 378.601632 90.13477 
z
" style="fill:#1f77b4;"/>
   </g>
   <g id="patch_258">
    <path clip-path="url(#p9e1d102e86)" d="M 379.83308 288.430125 
L 380.818239 288.430125 
L 380.818239 87.007169 
L 379.83308 87.007169 
z
" style="fill:#1f77b4;"/>
   </g>
   <g id="patch_259">
    <path clip-path="url(#p9e1d102e86)" d="M 381.064528 288.430125 
L 382.049687 288.430125 
L 382.049687 84.32899 
L 381.064528 84.32899 
z
" style="fill:#1f77b4;"/>
   </g>
   <g id="patch_260">
    <path clip-path="url(#p9e1d102e86)" d="M 382.295977 288.430125 
L 383.281135 288.430125 
L 383.281135 80.568532 
L 382.295977 80.568532 
z
" style="fill:#1f77b4;"/>
   </g>
   <g id="patch_261">
    <path clip-path="url(#p9e1d102e86)" d="M 383.527425 288.430125 
L 384.512584 288.430125 
L 384.512584 76.037639 
L 383.527425 76.037639 
z
" style="fill:#1f77b4;"/>
   </g>
   <g id="patch_262">
    <path clip-path="url(#p9e1d102e86)" d="M 384.758873 288.430125 
L 385.744032 288.430125 
L 385.744032 72.029542 
L 384.758873 72.029542 
z
" style="fill:#1f77b4;"/>
   </g>
   <g id="patch_263">
    <path clip-path="url(#p9e1d102e86)" d="M 385.990322 288.430125 
L 386.97548 288.430125 
L 386.97548 70.351093 
L 385.990322 70.351093 
z
" style="fill:#1f77b4;"/>
   </g>
   <g id="patch_264">
    <path clip-path="url(#p9e1d102e86)" d="M 387.22177 288.430125 
L 388.206928 288.430125 
L 388.206928 69.48894 
L 387.22177 69.48894 
z
" style="fill:#1f77b4;"/>
   </g>
   <g id="patch_265">
    <path clip-path="url(#p9e1d102e86)" d="M 388.453218 288.430125 
L 389.438377 288.430125 
L 389.438377 66.581464 
L 388.453218 66.581464 
z
" style="fill:#1f77b4;"/>
   </g>
   <g id="patch_266">
    <path clip-path="url(#p9e1d102e86)" d="M 389.684666 288.430125 
L 390.669825 288.430125 
L 390.669825 63.151193 
L 389.684666 63.151193 
z
" style="fill:#1f77b4;"/>
   </g>
   <g id="patch_267">
    <path clip-path="url(#p9e1d102e86)" d="M 390.916115 288.430125 
L 391.901273 288.430125 
L 391.901273 60.537216 
L 390.916115 60.537216 
z
" style="fill:#1f77b4;"/>
   </g>
   <g id="patch_268">
    <path clip-path="url(#p9e1d102e86)" d="M 392.147563 288.430125 
L 393.132722 288.430125 
L 393.132722 58.097504 
L 392.147563 58.097504 
z
" style="fill:#1f77b4;"/>
   </g>
   <g id="patch_269">
    <path clip-path="url(#p9e1d102e86)" d="M 393.379011 288.430125 
L 394.36417 288.430125 
L 394.36417 55.822886 
L 393.379011 55.822886 
z
" style="fill:#1f77b4;"/>
   </g>
   <g id="patch_270">
    <path clip-path="url(#p9e1d102e86)" d="M 394.610459 288.430125 
L 395.595618 288.430125 
L 395.595618 54.768123 
L 394.610459 54.768123 
z
" style="fill:#1f77b4;"/>
   </g>
   <g id="patch_271">
    <path clip-path="url(#p9e1d102e86)" d="M 395.841908 288.430125 
L 396.827066 288.430125 
L 396.827066 54.043547 
L 395.841908 54.043547 
z
" style="fill:#1f77b4;"/>
   </g>
   <g id="patch_272">
    <path clip-path="url(#p9e1d102e86)" d="M 397.073356 288.430125 
L 398.058515 288.430125 
L 398.058515 51.915679 
L 397.073356 51.915679 
z
" style="fill:#1f77b4;"/>
   </g>
   <g id="patch_273">
    <path clip-path="url(#p9e1d102e86)" d="M 398.304804 288.430125 
L 399.289963 288.430125 
L 399.289963 49.677748 
L 398.304804 49.677748 
z
" style="fill:#1f77b4;"/>
   </g>
   <g id="patch_274">
    <path clip-path="url(#p9e1d102e86)" d="M 399.536253 288.430125 
L 400.521411 288.430125 
L 400.521411 47.366442 
L 399.536253 47.366442 
z
" style="fill:#1f77b4;"/>
   </g>
   <g id="patch_275">
    <path clip-path="url(#p9e1d102e86)" d="M 400.767701 288.430125 
L 401.752859 288.430125 
L 401.752859 45.07348 
L 400.767701 45.07348 
z
" style="fill:#1f77b4;"/>
   </g>
   <g id="patch_276">
    <path clip-path="url(#p9e1d102e86)" d="M 401.999149 288.430125 
L 402.984308 288.430125 
L 402.984308 42.771346 
L 401.999149 42.771346 
z
" style="fill:#1f77b4;"/>
   </g>
   <g id="patch_277">
    <path clip-path="url(#p9e1d102e86)" d="M 403.230597 288.430125 
L 404.215756 288.430125 
L 404.215756 42.156832 
L 403.230597 42.156832 
z
" style="fill:#1f77b4;"/>
   </g>
   <g id="patch_278">
    <path clip-path="url(#p9e1d102e86)" d="M 404.462046 288.430125 
L 405.447204 288.430125 
L 405.447204 41.340538 
L 404.462046 41.340538 
z
" style="fill:#1f77b4;"/>
   </g>
   <g id="patch_279">
    <path clip-path="url(#p9e1d102e86)" d="M 405.693494 288.430125 
L 406.678653 288.430125 
L 406.678653 38.726561 
L 405.693494 38.726561 
z
" style="fill:#1f77b4;"/>
   </g>
   <g id="patch_280">
    <path clip-path="url(#p9e1d102e86)" d="M 406.924942 288.430125 
L 407.910101 288.430125 
L 407.910101 36.094241 
L 406.924942 36.094241 
z
" style="fill:#1f77b4;"/>
   </g>
   <g id="patch_281">
    <path clip-path="url(#p9e1d102e86)" d="M 408.156391 288.430125 
L 409.141549 288.430125 
L 409.141549 34.544198 
L 408.156391 34.544198 
z
" style="fill:#1f77b4;"/>
   </g>
   <g id="patch_282">
    <path clip-path="url(#p9e1d102e86)" d="M 409.387839 288.430125 
L 410.372997 288.430125 
L 410.372997 32.755688 
L 409.387839 32.755688 
z
" style="fill:#1f77b4;"/>
   </g>
   <g id="patch_283">
    <path clip-path="url(#p9e1d102e86)" d="M 410.619287 288.430125 
L 411.604446 288.430125 
L 411.604446 30.499413 
L 410.619287 30.499413 
z
" style="fill:#1f77b4;"/>
   </g>
   <g id="patch_284">
    <path clip-path="url(#p9e1d102e86)" d="M 411.850735 288.430125 
L 412.835894 288.430125 
L 412.835894 30.105024 
L 411.850735 30.105024 
z
" style="fill:#1f77b4;"/>
   </g>
   <g id="patch_285">
    <path clip-path="url(#p9e1d102e86)" d="M 413.082184 288.430125 
L 414.067342 288.430125 
L 414.067342 29.169496 
L 413.082184 29.169496 
z
" style="fill:#1f77b4;"/>
   </g>
   <g id="patch_286">
    <path clip-path="url(#p9e1d102e86)" d="M 414.313632 288.430125 
L 415.298791 288.430125 
L 415.298791 27.967983 
L 414.313632 27.967983 
z
" style="fill:#1f77b4;"/>
   </g>
   <g id="patch_287">
    <path clip-path="url(#p9e1d102e86)" d="M 415.54508 288.430125 
L 416.530239 288.430125 
L 416.530239 26.665581 
L 415.54508 26.665581 
z
" style="fill:#1f77b4;"/>
   </g>
   <g id="patch_288">
    <path clip-path="url(#p9e1d102e86)" d="M 416.776528 288.430125 
L 417.761687 288.430125 
L 417.761687 24.996305 
L 416.776528 24.996305 
z
" style="fill:#1f77b4;"/>
   </g>
   <g id="patch_289">
    <path clip-path="url(#p9e1d102e86)" d="M 418.007977 288.430125 
L 418.993135 288.430125 
L 418.993135 24.77618 
L 418.007977 24.77618 
z
" style="fill:#1f77b4;"/>
   </g>
   <g id="patch_290">
    <path clip-path="url(#p9e1d102e86)" d="M 419.239425 288.430125 
L 420.224584 288.430125 
L 420.224584 24.253385 
L 419.239425 24.253385 
z
" style="fill:#1f77b4;"/>
   </g>
   <g id="patch_291">
    <path clip-path="url(#p9e1d102e86)" d="M 420.470873 288.430125 
L 421.456032 288.430125 
L 421.456032 23.152763 
L 420.470873 23.152763 
z
" style="fill:#1f77b4;"/>
   </g>
   <g id="patch_292">
    <path clip-path="url(#p9e1d102e86)" d="M 421.702322 288.430125 
L 422.68748 288.430125 
L 422.68748 22.318125 
L 421.702322 22.318125 
z
" style="fill:#1f77b4;"/>
   </g>
   <g id="matplotlib.axis_1">
    <g id="xtick_1">
     <g id="line2d_1">
      <defs>
       <path d="M 0 0 
L 0 3.5 
" id="m1c4a09dd54" style="stroke:#000000;stroke-width:0.8;"/>
      </defs>
      <g>
       <use style="stroke:#000000;stroke-width:0.8;" x="87.24097" xlink:href="#m1c4a09dd54" y="288.430125"/>
      </g>
     </g>
     <g id="text_1">
      <!-- 2020-04 -->
      <g transform="translate(90.000345 337.212937)rotate(-90)scale(0.1 -0.1)">
       <defs>
        <path d="M 19.1875 8.296875 
L 53.609375 8.296875 
L 53.609375 0 
L 7.328125 0 
L 7.328125 8.296875 
Q 12.9375 14.109375 22.625 23.890625 
Q 32.328125 33.6875 34.8125 36.53125 
Q 39.546875 41.84375 41.421875 45.53125 
Q 43.3125 49.21875 43.3125 52.78125 
Q 43.3125 58.59375 39.234375 62.25 
Q 35.15625 65.921875 28.609375 65.921875 
Q 23.96875 65.921875 18.8125 64.3125 
Q 13.671875 62.703125 7.8125 59.421875 
L 7.8125 69.390625 
Q 13.765625 71.78125 18.9375 73 
Q 24.125 74.21875 28.421875 74.21875 
Q 39.75 74.21875 46.484375 68.546875 
Q 53.21875 62.890625 53.21875 53.421875 
Q 53.21875 48.921875 51.53125 44.890625 
Q 49.859375 40.875 45.40625 35.40625 
Q 44.1875 33.984375 37.640625 27.21875 
Q 31.109375 20.453125 19.1875 8.296875 
z
" id="DejaVuSans-50"/>
        <path d="M 31.78125 66.40625 
Q 24.171875 66.40625 20.328125 58.90625 
Q 16.5 51.421875 16.5 36.375 
Q 16.5 21.390625 20.328125 13.890625 
Q 24.171875 6.390625 31.78125 6.390625 
Q 39.453125 6.390625 43.28125 13.890625 
Q 47.125 21.390625 47.125 36.375 
Q 47.125 51.421875 43.28125 58.90625 
Q 39.453125 66.40625 31.78125 66.40625 
z
M 31.78125 74.21875 
Q 44.046875 74.21875 50.515625 64.515625 
Q 56.984375 54.828125 56.984375 36.375 
Q 56.984375 17.96875 50.515625 8.265625 
Q 44.046875 -1.421875 31.78125 -1.421875 
Q 19.53125 -1.421875 13.0625 8.265625 
Q 6.59375 17.96875 6.59375 36.375 
Q 6.59375 54.828125 13.0625 64.515625 
Q 19.53125 74.21875 31.78125 74.21875 
z
" id="DejaVuSans-48"/>
        <path d="M 4.890625 31.390625 
L 31.203125 31.390625 
L 31.203125 23.390625 
L 4.890625 23.390625 
z
" id="DejaVuSans-45"/>
        <path d="M 37.796875 64.3125 
L 12.890625 25.390625 
L 37.796875 25.390625 
z
M 35.203125 72.90625 
L 47.609375 72.90625 
L 47.609375 25.390625 
L 58.015625 25.390625 
L 58.015625 17.1875 
L 47.609375 17.1875 
L 47.609375 0 
L 37.796875 0 
L 37.796875 17.1875 
L 4.890625 17.1875 
L 4.890625 26.703125 
z
" id="DejaVuSans-52"/>
       </defs>
       <use xlink:href="#DejaVuSans-50"/>
       <use x="63.623047" xlink:href="#DejaVuSans-48"/>
       <use x="127.246094" xlink:href="#DejaVuSans-50"/>
       <use x="190.869141" xlink:href="#DejaVuSans-48"/>
       <use x="254.492188" xlink:href="#DejaVuSans-45"/>
       <use x="290.576172" xlink:href="#DejaVuSans-48"/>
       <use x="354.199219" xlink:href="#DejaVuSans-52"/>
      </g>
     </g>
    </g>
    <g id="xtick_2">
     <g id="line2d_2">
      <g>
       <use style="stroke:#000000;stroke-width:0.8;" x="124.184418" xlink:href="#m1c4a09dd54" y="288.430125"/>
      </g>
     </g>
     <g id="text_2">
      <!-- 2020-05 -->
      <g transform="translate(126.943793 337.212937)rotate(-90)scale(0.1 -0.1)">
       <defs>
        <path d="M 10.796875 72.90625 
L 49.515625 72.90625 
L 49.515625 64.59375 
L 19.828125 64.59375 
L 19.828125 46.734375 
Q 21.96875 47.46875 24.109375 47.828125 
Q 26.265625 48.1875 28.421875 48.1875 
Q 40.625 48.1875 47.75 41.5 
Q 54.890625 34.8125 54.890625 23.390625 
Q 54.890625 11.625 47.5625 5.09375 
Q 40.234375 -1.421875 26.90625 -1.421875 
Q 22.3125 -1.421875 17.546875 -0.640625 
Q 12.796875 0.140625 7.71875 1.703125 
L 7.71875 11.625 
Q 12.109375 9.234375 16.796875 8.0625 
Q 21.484375 6.890625 26.703125 6.890625 
Q 35.15625 6.890625 40.078125 11.328125 
Q 45.015625 15.765625 45.015625 23.390625 
Q 45.015625 31 40.078125 35.4375 
Q 35.15625 39.890625 26.703125 39.890625 
Q 22.75 39.890625 18.8125 39.015625 
Q 14.890625 38.140625 10.796875 36.28125 
z
" id="DejaVuSans-53"/>
       </defs>
       <use xlink:href="#DejaVuSans-50"/>
       <use x="63.623047" xlink:href="#DejaVuSans-48"/>
       <use x="127.246094" xlink:href="#DejaVuSans-50"/>
       <use x="190.869141" xlink:href="#DejaVuSans-48"/>
       <use x="254.492188" xlink:href="#DejaVuSans-45"/>
       <use x="290.576172" xlink:href="#DejaVuSans-48"/>
       <use x="354.199219" xlink:href="#DejaVuSans-53"/>
      </g>
     </g>
    </g>
    <g id="xtick_3">
     <g id="line2d_3">
      <g>
       <use style="stroke:#000000;stroke-width:0.8;" x="162.359315" xlink:href="#m1c4a09dd54" y="288.430125"/>
      </g>
     </g>
     <g id="text_3">
      <!-- 2020-06 -->
      <g transform="translate(165.11869 337.212937)rotate(-90)scale(0.1 -0.1)">
       <defs>
        <path d="M 33.015625 40.375 
Q 26.375 40.375 22.484375 35.828125 
Q 18.609375 31.296875 18.609375 23.390625 
Q 18.609375 15.53125 22.484375 10.953125 
Q 26.375 6.390625 33.015625 6.390625 
Q 39.65625 6.390625 43.53125 10.953125 
Q 47.40625 15.53125 47.40625 23.390625 
Q 47.40625 31.296875 43.53125 35.828125 
Q 39.65625 40.375 33.015625 40.375 
z
M 52.59375 71.296875 
L 52.59375 62.3125 
Q 48.875 64.0625 45.09375 64.984375 
Q 41.3125 65.921875 37.59375 65.921875 
Q 27.828125 65.921875 22.671875 59.328125 
Q 17.53125 52.734375 16.796875 39.40625 
Q 19.671875 43.65625 24.015625 45.921875 
Q 28.375 48.1875 33.59375 48.1875 
Q 44.578125 48.1875 50.953125 41.515625 
Q 57.328125 34.859375 57.328125 23.390625 
Q 57.328125 12.15625 50.6875 5.359375 
Q 44.046875 -1.421875 33.015625 -1.421875 
Q 20.359375 -1.421875 13.671875 8.265625 
Q 6.984375 17.96875 6.984375 36.375 
Q 6.984375 53.65625 15.1875 63.9375 
Q 23.390625 74.21875 37.203125 74.21875 
Q 40.921875 74.21875 44.703125 73.484375 
Q 48.484375 72.75 52.59375 71.296875 
z
" id="DejaVuSans-54"/>
       </defs>
       <use xlink:href="#DejaVuSans-50"/>
       <use x="63.623047" xlink:href="#DejaVuSans-48"/>
       <use x="127.246094" xlink:href="#DejaVuSans-50"/>
       <use x="190.869141" xlink:href="#DejaVuSans-48"/>
       <use x="254.492188" xlink:href="#DejaVuSans-45"/>
       <use x="290.576172" xlink:href="#DejaVuSans-48"/>
       <use x="354.199219" xlink:href="#DejaVuSans-54"/>
      </g>
     </g>
    </g>
    <g id="xtick_4">
     <g id="line2d_4">
      <g>
       <use style="stroke:#000000;stroke-width:0.8;" x="199.302763" xlink:href="#m1c4a09dd54" y="288.430125"/>
      </g>
     </g>
     <g id="text_4">
      <!-- 2020-07 -->
      <g transform="translate(202.062138 337.212937)rotate(-90)scale(0.1 -0.1)">
       <defs>
        <path d="M 8.203125 72.90625 
L 55.078125 72.90625 
L 55.078125 68.703125 
L 28.609375 0 
L 18.3125 0 
L 43.21875 64.59375 
L 8.203125 64.59375 
z
" id="DejaVuSans-55"/>
       </defs>
       <use xlink:href="#DejaVuSans-50"/>
       <use x="63.623047" xlink:href="#DejaVuSans-48"/>
       <use x="127.246094" xlink:href="#DejaVuSans-50"/>
       <use x="190.869141" xlink:href="#DejaVuSans-48"/>
       <use x="254.492188" xlink:href="#DejaVuSans-45"/>
       <use x="290.576172" xlink:href="#DejaVuSans-48"/>
       <use x="354.199219" xlink:href="#DejaVuSans-55"/>
      </g>
     </g>
    </g>
    <g id="xtick_5">
     <g id="line2d_5">
      <g>
       <use style="stroke:#000000;stroke-width:0.8;" x="237.477659" xlink:href="#m1c4a09dd54" y="288.430125"/>
      </g>
     </g>
     <g id="text_5">
      <!-- 2020-08 -->
      <g transform="translate(240.237034 337.212937)rotate(-90)scale(0.1 -0.1)">
       <defs>
        <path d="M 31.78125 34.625 
Q 24.75 34.625 20.71875 30.859375 
Q 16.703125 27.09375 16.703125 20.515625 
Q 16.703125 13.921875 20.71875 10.15625 
Q 24.75 6.390625 31.78125 6.390625 
Q 38.8125 6.390625 42.859375 10.171875 
Q 46.921875 13.96875 46.921875 20.515625 
Q 46.921875 27.09375 42.890625 30.859375 
Q 38.875 34.625 31.78125 34.625 
z
M 21.921875 38.8125 
Q 15.578125 40.375 12.03125 44.71875 
Q 8.5 49.078125 8.5 55.328125 
Q 8.5 64.0625 14.71875 69.140625 
Q 20.953125 74.21875 31.78125 74.21875 
Q 42.671875 74.21875 48.875 69.140625 
Q 55.078125 64.0625 55.078125 55.328125 
Q 55.078125 49.078125 51.53125 44.71875 
Q 48 40.375 41.703125 38.8125 
Q 48.828125 37.15625 52.796875 32.3125 
Q 56.78125 27.484375 56.78125 20.515625 
Q 56.78125 9.90625 50.3125 4.234375 
Q 43.84375 -1.421875 31.78125 -1.421875 
Q 19.734375 -1.421875 13.25 4.234375 
Q 6.78125 9.90625 6.78125 20.515625 
Q 6.78125 27.484375 10.78125 32.3125 
Q 14.796875 37.15625 21.921875 38.8125 
z
M 18.3125 54.390625 
Q 18.3125 48.734375 21.84375 45.5625 
Q 25.390625 42.390625 31.78125 42.390625 
Q 38.140625 42.390625 41.71875 45.5625 
Q 45.3125 48.734375 45.3125 54.390625 
Q 45.3125 60.0625 41.71875 63.234375 
Q 38.140625 66.40625 31.78125 66.40625 
Q 25.390625 66.40625 21.84375 63.234375 
Q 18.3125 60.0625 18.3125 54.390625 
z
" id="DejaVuSans-56"/>
       </defs>
       <use xlink:href="#DejaVuSans-50"/>
       <use x="63.623047" xlink:href="#DejaVuSans-48"/>
       <use x="127.246094" xlink:href="#DejaVuSans-50"/>
       <use x="190.869141" xlink:href="#DejaVuSans-48"/>
       <use x="254.492188" xlink:href="#DejaVuSans-45"/>
       <use x="290.576172" xlink:href="#DejaVuSans-48"/>
       <use x="354.199219" xlink:href="#DejaVuSans-56"/>
      </g>
     </g>
    </g>
    <g id="xtick_6">
     <g id="line2d_6">
      <g>
       <use style="stroke:#000000;stroke-width:0.8;" x="275.652556" xlink:href="#m1c4a09dd54" y="288.430125"/>
      </g>
     </g>
     <g id="text_6">
      <!-- 2020-09 -->
      <g transform="translate(278.411931 337.212937)rotate(-90)scale(0.1 -0.1)">
       <defs>
        <path d="M 10.984375 1.515625 
L 10.984375 10.5 
Q 14.703125 8.734375 18.5 7.8125 
Q 22.3125 6.890625 25.984375 6.890625 
Q 35.75 6.890625 40.890625 13.453125 
Q 46.046875 20.015625 46.78125 33.40625 
Q 43.953125 29.203125 39.59375 26.953125 
Q 35.25 24.703125 29.984375 24.703125 
Q 19.046875 24.703125 12.671875 31.3125 
Q 6.296875 37.9375 6.296875 49.421875 
Q 6.296875 60.640625 12.9375 67.421875 
Q 19.578125 74.21875 30.609375 74.21875 
Q 43.265625 74.21875 49.921875 64.515625 
Q 56.59375 54.828125 56.59375 36.375 
Q 56.59375 19.140625 48.40625 8.859375 
Q 40.234375 -1.421875 26.421875 -1.421875 
Q 22.703125 -1.421875 18.890625 -0.6875 
Q 15.09375 0.046875 10.984375 1.515625 
z
M 30.609375 32.421875 
Q 37.25 32.421875 41.125 36.953125 
Q 45.015625 41.5 45.015625 49.421875 
Q 45.015625 57.28125 41.125 61.84375 
Q 37.25 66.40625 30.609375 66.40625 
Q 23.96875 66.40625 20.09375 61.84375 
Q 16.21875 57.28125 16.21875 49.421875 
Q 16.21875 41.5 20.09375 36.953125 
Q 23.96875 32.421875 30.609375 32.421875 
z
" id="DejaVuSans-57"/>
       </defs>
       <use xlink:href="#DejaVuSans-50"/>
       <use x="63.623047" xlink:href="#DejaVuSans-48"/>
       <use x="127.246094" xlink:href="#DejaVuSans-50"/>
       <use x="190.869141" xlink:href="#DejaVuSans-48"/>
       <use x="254.492188" xlink:href="#DejaVuSans-45"/>
       <use x="290.576172" xlink:href="#DejaVuSans-48"/>
       <use x="354.199219" xlink:href="#DejaVuSans-57"/>
      </g>
     </g>
    </g>
    <g id="xtick_7">
     <g id="line2d_7">
      <g>
       <use style="stroke:#000000;stroke-width:0.8;" x="312.596004" xlink:href="#m1c4a09dd54" y="288.430125"/>
      </g>
     </g>
     <g id="text_7">
      <!-- 2020-10 -->
      <g transform="translate(315.355379 337.212937)rotate(-90)scale(0.1 -0.1)">
       <defs>
        <path d="M 12.40625 8.296875 
L 28.515625 8.296875 
L 28.515625 63.921875 
L 10.984375 60.40625 
L 10.984375 69.390625 
L 28.421875 72.90625 
L 38.28125 72.90625 
L 38.28125 8.296875 
L 54.390625 8.296875 
L 54.390625 0 
L 12.40625 0 
z
" id="DejaVuSans-49"/>
       </defs>
       <use xlink:href="#DejaVuSans-50"/>
       <use x="63.623047" xlink:href="#DejaVuSans-48"/>
       <use x="127.246094" xlink:href="#DejaVuSans-50"/>
       <use x="190.869141" xlink:href="#DejaVuSans-48"/>
       <use x="254.492188" xlink:href="#DejaVuSans-45"/>
       <use x="290.576172" xlink:href="#DejaVuSans-49"/>
       <use x="354.199219" xlink:href="#DejaVuSans-48"/>
      </g>
     </g>
    </g>
    <g id="xtick_8">
     <g id="line2d_8">
      <g>
       <use style="stroke:#000000;stroke-width:0.8;" x="350.770901" xlink:href="#m1c4a09dd54" y="288.430125"/>
      </g>
     </g>
     <g id="text_8">
      <!-- 2020-11 -->
      <g transform="translate(353.530276 337.212937)rotate(-90)scale(0.1 -0.1)">
       <use xlink:href="#DejaVuSans-50"/>
       <use x="63.623047" xlink:href="#DejaVuSans-48"/>
       <use x="127.246094" xlink:href="#DejaVuSans-50"/>
       <use x="190.869141" xlink:href="#DejaVuSans-48"/>
       <use x="254.492188" xlink:href="#DejaVuSans-45"/>
       <use x="290.576172" xlink:href="#DejaVuSans-49"/>
       <use x="354.199219" xlink:href="#DejaVuSans-49"/>
      </g>
     </g>
    </g>
    <g id="xtick_9">
     <g id="line2d_9">
      <g>
       <use style="stroke:#000000;stroke-width:0.8;" x="387.714349" xlink:href="#m1c4a09dd54" y="288.430125"/>
      </g>
     </g>
     <g id="text_9">
      <!-- 2020-12 -->
      <g transform="translate(390.473724 337.212937)rotate(-90)scale(0.1 -0.1)">
       <use xlink:href="#DejaVuSans-50"/>
       <use x="63.623047" xlink:href="#DejaVuSans-48"/>
       <use x="127.246094" xlink:href="#DejaVuSans-50"/>
       <use x="190.869141" xlink:href="#DejaVuSans-48"/>
       <use x="254.492188" xlink:href="#DejaVuSans-45"/>
       <use x="290.576172" xlink:href="#DejaVuSans-49"/>
       <use x="354.199219" xlink:href="#DejaVuSans-50"/>
      </g>
     </g>
    </g>
    <g id="text_10">
     <!-- date -->
     <g transform="translate(232.975625 354.811375)scale(0.1 -0.1)">
      <defs>
       <path d="M 45.40625 46.390625 
L 45.40625 75.984375 
L 54.390625 75.984375 
L 54.390625 0 
L 45.40625 0 
L 45.40625 8.203125 
Q 42.578125 3.328125 38.25 0.953125 
Q 33.9375 -1.421875 27.875 -1.421875 
Q 17.96875 -1.421875 11.734375 6.484375 
Q 5.515625 14.40625 5.515625 27.296875 
Q 5.515625 40.1875 11.734375 48.09375 
Q 17.96875 56 27.875 56 
Q 33.9375 56 38.25 53.625 
Q 42.578125 51.265625 45.40625 46.390625 
z
M 14.796875 27.296875 
Q 14.796875 17.390625 18.875 11.75 
Q 22.953125 6.109375 30.078125 6.109375 
Q 37.203125 6.109375 41.296875 11.75 
Q 45.40625 17.390625 45.40625 27.296875 
Q 45.40625 37.203125 41.296875 42.84375 
Q 37.203125 48.484375 30.078125 48.484375 
Q 22.953125 48.484375 18.875 42.84375 
Q 14.796875 37.203125 14.796875 27.296875 
z
" id="DejaVuSans-100"/>
       <path d="M 34.28125 27.484375 
Q 23.390625 27.484375 19.1875 25 
Q 14.984375 22.515625 14.984375 16.5 
Q 14.984375 11.71875 18.140625 8.90625 
Q 21.296875 6.109375 26.703125 6.109375 
Q 34.1875 6.109375 38.703125 11.40625 
Q 43.21875 16.703125 43.21875 25.484375 
L 43.21875 27.484375 
z
M 52.203125 31.203125 
L 52.203125 0 
L 43.21875 0 
L 43.21875 8.296875 
Q 40.140625 3.328125 35.546875 0.953125 
Q 30.953125 -1.421875 24.3125 -1.421875 
Q 15.921875 -1.421875 10.953125 3.296875 
Q 6 8.015625 6 15.921875 
Q 6 25.140625 12.171875 29.828125 
Q 18.359375 34.515625 30.609375 34.515625 
L 43.21875 34.515625 
L 43.21875 35.40625 
Q 43.21875 41.609375 39.140625 45 
Q 35.0625 48.390625 27.6875 48.390625 
Q 23 48.390625 18.546875 47.265625 
Q 14.109375 46.140625 10.015625 43.890625 
L 10.015625 52.203125 
Q 14.9375 54.109375 19.578125 55.046875 
Q 24.21875 56 28.609375 56 
Q 40.484375 56 46.34375 49.84375 
Q 52.203125 43.703125 52.203125 31.203125 
z
" id="DejaVuSans-97"/>
       <path d="M 18.3125 70.21875 
L 18.3125 54.6875 
L 36.8125 54.6875 
L 36.8125 47.703125 
L 18.3125 47.703125 
L 18.3125 18.015625 
Q 18.3125 11.328125 20.140625 9.421875 
Q 21.96875 7.515625 27.59375 7.515625 
L 36.8125 7.515625 
L 36.8125 0 
L 27.59375 0 
Q 17.1875 0 13.234375 3.875 
Q 9.28125 7.765625 9.28125 18.015625 
L 9.28125 47.703125 
L 2.6875 47.703125 
L 2.6875 54.6875 
L 9.28125 54.6875 
L 9.28125 70.21875 
z
" id="DejaVuSans-116"/>
       <path d="M 56.203125 29.59375 
L 56.203125 25.203125 
L 14.890625 25.203125 
Q 15.484375 15.921875 20.484375 11.0625 
Q 25.484375 6.203125 34.421875 6.203125 
Q 39.59375 6.203125 44.453125 7.46875 
Q 49.3125 8.734375 54.109375 11.28125 
L 54.109375 2.78125 
Q 49.265625 0.734375 44.1875 -0.34375 
Q 39.109375 -1.421875 33.890625 -1.421875 
Q 20.796875 -1.421875 13.15625 6.1875 
Q 5.515625 13.8125 5.515625 26.8125 
Q 5.515625 40.234375 12.765625 48.109375 
Q 20.015625 56 32.328125 56 
Q 43.359375 56 49.78125 48.890625 
Q 56.203125 41.796875 56.203125 29.59375 
z
M 47.21875 32.234375 
Q 47.125 39.59375 43.09375 43.984375 
Q 39.0625 48.390625 32.421875 48.390625 
Q 24.90625 48.390625 20.390625 44.140625 
Q 15.875 39.890625 15.1875 32.171875 
z
" id="DejaVuSans-101"/>
      </defs>
      <use xlink:href="#DejaVuSans-100"/>
      <use x="63.476562" xlink:href="#DejaVuSans-97"/>
      <use x="124.755859" xlink:href="#DejaVuSans-116"/>
      <use x="163.964844" xlink:href="#DejaVuSans-101"/>
     </g>
    </g>
   </g>
   <g id="matplotlib.axis_2">
    <g id="ytick_1">
     <g id="line2d_10">
      <defs>
       <path d="M 0 0 
L -3.5 0 
" id="m7407c0a72d" style="stroke:#000000;stroke-width:0.8;"/>
      </defs>
      <g>
       <use style="stroke:#000000;stroke-width:0.8;" x="65.690625" xlink:href="#m7407c0a72d" y="288.430125"/>
      </g>
     </g>
     <g id="text_11">
      <!-- 0 -->
      <g transform="translate(52.328125 292.229344)scale(0.1 -0.1)">
       <use xlink:href="#DejaVuSans-48"/>
      </g>
     </g>
    </g>
    <g id="ytick_2">
     <g id="line2d_11">
      <g>
       <use style="stroke:#000000;stroke-width:0.8;" x="65.690625" xlink:href="#m7407c0a72d" y="242.570885"/>
      </g>
     </g>
     <g id="text_12">
      <!-- 5000 -->
      <g transform="translate(33.240625 246.370103)scale(0.1 -0.1)">
       <use xlink:href="#DejaVuSans-53"/>
       <use x="63.623047" xlink:href="#DejaVuSans-48"/>
       <use x="127.246094" xlink:href="#DejaVuSans-48"/>
       <use x="190.869141" xlink:href="#DejaVuSans-48"/>
      </g>
     </g>
    </g>
    <g id="ytick_3">
     <g id="line2d_12">
      <g>
       <use style="stroke:#000000;stroke-width:0.8;" x="65.690625" xlink:href="#m7407c0a72d" y="196.711644"/>
      </g>
     </g>
     <g id="text_13">
      <!-- 10000 -->
      <g transform="translate(26.878125 200.510863)scale(0.1 -0.1)">
       <use xlink:href="#DejaVuSans-49"/>
       <use x="63.623047" xlink:href="#DejaVuSans-48"/>
       <use x="127.246094" xlink:href="#DejaVuSans-48"/>
       <use x="190.869141" xlink:href="#DejaVuSans-48"/>
       <use x="254.492188" xlink:href="#DejaVuSans-48"/>
      </g>
     </g>
    </g>
    <g id="ytick_4">
     <g id="line2d_13">
      <g>
       <use style="stroke:#000000;stroke-width:0.8;" x="65.690625" xlink:href="#m7407c0a72d" y="150.852404"/>
      </g>
     </g>
     <g id="text_14">
      <!-- 15000 -->
      <g transform="translate(26.878125 154.651623)scale(0.1 -0.1)">
       <use xlink:href="#DejaVuSans-49"/>
       <use x="63.623047" xlink:href="#DejaVuSans-53"/>
       <use x="127.246094" xlink:href="#DejaVuSans-48"/>
       <use x="190.869141" xlink:href="#DejaVuSans-48"/>
       <use x="254.492188" xlink:href="#DejaVuSans-48"/>
      </g>
     </g>
    </g>
    <g id="ytick_5">
     <g id="line2d_14">
      <g>
       <use style="stroke:#000000;stroke-width:0.8;" x="65.690625" xlink:href="#m7407c0a72d" y="104.993164"/>
      </g>
     </g>
     <g id="text_15">
      <!-- 20000 -->
      <g transform="translate(26.878125 108.792382)scale(0.1 -0.1)">
       <use xlink:href="#DejaVuSans-50"/>
       <use x="63.623047" xlink:href="#DejaVuSans-48"/>
       <use x="127.246094" xlink:href="#DejaVuSans-48"/>
       <use x="190.869141" xlink:href="#DejaVuSans-48"/>
       <use x="254.492188" xlink:href="#DejaVuSans-48"/>
      </g>
     </g>
    </g>
    <g id="ytick_6">
     <g id="line2d_15">
      <g>
       <use style="stroke:#000000;stroke-width:0.8;" x="65.690625" xlink:href="#m7407c0a72d" y="59.133923"/>
      </g>
     </g>
     <g id="text_16">
      <!-- 25000 -->
      <g transform="translate(26.878125 62.933142)scale(0.1 -0.1)">
       <use xlink:href="#DejaVuSans-50"/>
       <use x="63.623047" xlink:href="#DejaVuSans-53"/>
       <use x="127.246094" xlink:href="#DejaVuSans-48"/>
       <use x="190.869141" xlink:href="#DejaVuSans-48"/>
       <use x="254.492188" xlink:href="#DejaVuSans-48"/>
      </g>
     </g>
    </g>
    <g id="text_17">
     <!-- cumulative number of corona cases -->
     <g transform="translate(14.798438 245.00225)rotate(-90)scale(0.1 -0.1)">
      <defs>
       <path d="M 48.78125 52.59375 
L 48.78125 44.1875 
Q 44.96875 46.296875 41.140625 47.34375 
Q 37.3125 48.390625 33.40625 48.390625 
Q 24.65625 48.390625 19.8125 42.84375 
Q 14.984375 37.3125 14.984375 27.296875 
Q 14.984375 17.28125 19.8125 11.734375 
Q 24.65625 6.203125 33.40625 6.203125 
Q 37.3125 6.203125 41.140625 7.25 
Q 44.96875 8.296875 48.78125 10.40625 
L 48.78125 2.09375 
Q 45.015625 0.34375 40.984375 -0.53125 
Q 36.96875 -1.421875 32.421875 -1.421875 
Q 20.0625 -1.421875 12.78125 6.34375 
Q 5.515625 14.109375 5.515625 27.296875 
Q 5.515625 40.671875 12.859375 48.328125 
Q 20.21875 56 33.015625 56 
Q 37.15625 56 41.109375 55.140625 
Q 45.0625 54.296875 48.78125 52.59375 
z
" id="DejaVuSans-99"/>
       <path d="M 8.5 21.578125 
L 8.5 54.6875 
L 17.484375 54.6875 
L 17.484375 21.921875 
Q 17.484375 14.15625 20.5 10.265625 
Q 23.53125 6.390625 29.59375 6.390625 
Q 36.859375 6.390625 41.078125 11.03125 
Q 45.3125 15.671875 45.3125 23.6875 
L 45.3125 54.6875 
L 54.296875 54.6875 
L 54.296875 0 
L 45.3125 0 
L 45.3125 8.40625 
Q 42.046875 3.421875 37.71875 1 
Q 33.40625 -1.421875 27.6875 -1.421875 
Q 18.265625 -1.421875 13.375 4.4375 
Q 8.5 10.296875 8.5 21.578125 
z
M 31.109375 56 
z
" id="DejaVuSans-117"/>
       <path d="M 52 44.1875 
Q 55.375 50.25 60.0625 53.125 
Q 64.75 56 71.09375 56 
Q 79.640625 56 84.28125 50.015625 
Q 88.921875 44.046875 88.921875 33.015625 
L 88.921875 0 
L 79.890625 0 
L 79.890625 32.71875 
Q 79.890625 40.578125 77.09375 44.375 
Q 74.3125 48.1875 68.609375 48.1875 
Q 61.625 48.1875 57.5625 43.546875 
Q 53.515625 38.921875 53.515625 30.90625 
L 53.515625 0 
L 44.484375 0 
L 44.484375 32.71875 
Q 44.484375 40.625 41.703125 44.40625 
Q 38.921875 48.1875 33.109375 48.1875 
Q 26.21875 48.1875 22.15625 43.53125 
Q 18.109375 38.875 18.109375 30.90625 
L 18.109375 0 
L 9.078125 0 
L 9.078125 54.6875 
L 18.109375 54.6875 
L 18.109375 46.1875 
Q 21.1875 51.21875 25.484375 53.609375 
Q 29.78125 56 35.6875 56 
Q 41.65625 56 45.828125 52.96875 
Q 50 49.953125 52 44.1875 
z
" id="DejaVuSans-109"/>
       <path d="M 9.421875 75.984375 
L 18.40625 75.984375 
L 18.40625 0 
L 9.421875 0 
z
" id="DejaVuSans-108"/>
       <path d="M 9.421875 54.6875 
L 18.40625 54.6875 
L 18.40625 0 
L 9.421875 0 
z
M 9.421875 75.984375 
L 18.40625 75.984375 
L 18.40625 64.59375 
L 9.421875 64.59375 
z
" id="DejaVuSans-105"/>
       <path d="M 2.984375 54.6875 
L 12.5 54.6875 
L 29.59375 8.796875 
L 46.6875 54.6875 
L 56.203125 54.6875 
L 35.6875 0 
L 23.484375 0 
z
" id="DejaVuSans-118"/>
       <path id="DejaVuSans-32"/>
       <path d="M 54.890625 33.015625 
L 54.890625 0 
L 45.90625 0 
L 45.90625 32.71875 
Q 45.90625 40.484375 42.875 44.328125 
Q 39.84375 48.1875 33.796875 48.1875 
Q 26.515625 48.1875 22.3125 43.546875 
Q 18.109375 38.921875 18.109375 30.90625 
L 18.109375 0 
L 9.078125 0 
L 9.078125 54.6875 
L 18.109375 54.6875 
L 18.109375 46.1875 
Q 21.34375 51.125 25.703125 53.5625 
Q 30.078125 56 35.796875 56 
Q 45.21875 56 50.046875 50.171875 
Q 54.890625 44.34375 54.890625 33.015625 
z
" id="DejaVuSans-110"/>
       <path d="M 48.6875 27.296875 
Q 48.6875 37.203125 44.609375 42.84375 
Q 40.53125 48.484375 33.40625 48.484375 
Q 26.265625 48.484375 22.1875 42.84375 
Q 18.109375 37.203125 18.109375 27.296875 
Q 18.109375 17.390625 22.1875 11.75 
Q 26.265625 6.109375 33.40625 6.109375 
Q 40.53125 6.109375 44.609375 11.75 
Q 48.6875 17.390625 48.6875 27.296875 
z
M 18.109375 46.390625 
Q 20.953125 51.265625 25.265625 53.625 
Q 29.59375 56 35.59375 56 
Q 45.5625 56 51.78125 48.09375 
Q 58.015625 40.1875 58.015625 27.296875 
Q 58.015625 14.40625 51.78125 6.484375 
Q 45.5625 -1.421875 35.59375 -1.421875 
Q 29.59375 -1.421875 25.265625 0.953125 
Q 20.953125 3.328125 18.109375 8.203125 
L 18.109375 0 
L 9.078125 0 
L 9.078125 75.984375 
L 18.109375 75.984375 
z
" id="DejaVuSans-98"/>
       <path d="M 41.109375 46.296875 
Q 39.59375 47.171875 37.8125 47.578125 
Q 36.03125 48 33.890625 48 
Q 26.265625 48 22.1875 43.046875 
Q 18.109375 38.09375 18.109375 28.8125 
L 18.109375 0 
L 9.078125 0 
L 9.078125 54.6875 
L 18.109375 54.6875 
L 18.109375 46.1875 
Q 20.953125 51.171875 25.484375 53.578125 
Q 30.03125 56 36.53125 56 
Q 37.453125 56 38.578125 55.875 
Q 39.703125 55.765625 41.0625 55.515625 
z
" id="DejaVuSans-114"/>
       <path d="M 30.609375 48.390625 
Q 23.390625 48.390625 19.1875 42.75 
Q 14.984375 37.109375 14.984375 27.296875 
Q 14.984375 17.484375 19.15625 11.84375 
Q 23.34375 6.203125 30.609375 6.203125 
Q 37.796875 6.203125 41.984375 11.859375 
Q 46.1875 17.53125 46.1875 27.296875 
Q 46.1875 37.015625 41.984375 42.703125 
Q 37.796875 48.390625 30.609375 48.390625 
z
M 30.609375 56 
Q 42.328125 56 49.015625 48.375 
Q 55.71875 40.765625 55.71875 27.296875 
Q 55.71875 13.875 49.015625 6.21875 
Q 42.328125 -1.421875 30.609375 -1.421875 
Q 18.84375 -1.421875 12.171875 6.21875 
Q 5.515625 13.875 5.515625 27.296875 
Q 5.515625 40.765625 12.171875 48.375 
Q 18.84375 56 30.609375 56 
z
" id="DejaVuSans-111"/>
       <path d="M 37.109375 75.984375 
L 37.109375 68.5 
L 28.515625 68.5 
Q 23.6875 68.5 21.796875 66.546875 
Q 19.921875 64.59375 19.921875 59.515625 
L 19.921875 54.6875 
L 34.71875 54.6875 
L 34.71875 47.703125 
L 19.921875 47.703125 
L 19.921875 0 
L 10.890625 0 
L 10.890625 47.703125 
L 2.296875 47.703125 
L 2.296875 54.6875 
L 10.890625 54.6875 
L 10.890625 58.5 
Q 10.890625 67.625 15.140625 71.796875 
Q 19.390625 75.984375 28.609375 75.984375 
z
" id="DejaVuSans-102"/>
       <path d="M 44.28125 53.078125 
L 44.28125 44.578125 
Q 40.484375 46.53125 36.375 47.5 
Q 32.28125 48.484375 27.875 48.484375 
Q 21.1875 48.484375 17.84375 46.4375 
Q 14.5 44.390625 14.5 40.28125 
Q 14.5 37.15625 16.890625 35.375 
Q 19.28125 33.59375 26.515625 31.984375 
L 29.59375 31.296875 
Q 39.15625 29.25 43.1875 25.515625 
Q 47.21875 21.78125 47.21875 15.09375 
Q 47.21875 7.46875 41.1875 3.015625 
Q 35.15625 -1.421875 24.609375 -1.421875 
Q 20.21875 -1.421875 15.453125 -0.5625 
Q 10.6875 0.296875 5.421875 2 
L 5.421875 11.28125 
Q 10.40625 8.6875 15.234375 7.390625 
Q 20.0625 6.109375 24.8125 6.109375 
Q 31.15625 6.109375 34.5625 8.28125 
Q 37.984375 10.453125 37.984375 14.40625 
Q 37.984375 18.0625 35.515625 20.015625 
Q 33.0625 21.96875 24.703125 23.78125 
L 21.578125 24.515625 
Q 13.234375 26.265625 9.515625 29.90625 
Q 5.8125 33.546875 5.8125 39.890625 
Q 5.8125 47.609375 11.28125 51.796875 
Q 16.75 56 26.8125 56 
Q 31.78125 56 36.171875 55.265625 
Q 40.578125 54.546875 44.28125 53.078125 
z
" id="DejaVuSans-115"/>
      </defs>
      <use xlink:href="#DejaVuSans-99"/>
      <use x="54.980469" xlink:href="#DejaVuSans-117"/>
      <use x="118.359375" xlink:href="#DejaVuSans-109"/>
      <use x="215.771484" xlink:href="#DejaVuSans-117"/>
      <use x="279.150391" xlink:href="#DejaVuSans-108"/>
      <use x="306.933594" xlink:href="#DejaVuSans-97"/>
      <use x="368.212891" xlink:href="#DejaVuSans-116"/>
      <use x="407.421875" xlink:href="#DejaVuSans-105"/>
      <use x="435.205078" xlink:href="#DejaVuSans-118"/>
      <use x="494.384766" xlink:href="#DejaVuSans-101"/>
      <use x="555.908203" xlink:href="#DejaVuSans-32"/>
      <use x="587.695312" xlink:href="#DejaVuSans-110"/>
      <use x="651.074219" xlink:href="#DejaVuSans-117"/>
      <use x="714.453125" xlink:href="#DejaVuSans-109"/>
      <use x="811.865234" xlink:href="#DejaVuSans-98"/>
      <use x="875.341797" xlink:href="#DejaVuSans-101"/>
      <use x="936.865234" xlink:href="#DejaVuSans-114"/>
      <use x="977.978516" xlink:href="#DejaVuSans-32"/>
      <use x="1009.765625" xlink:href="#DejaVuSans-111"/>
      <use x="1070.947266" xlink:href="#DejaVuSans-102"/>
      <use x="1106.152344" xlink:href="#DejaVuSans-32"/>
      <use x="1137.939453" xlink:href="#DejaVuSans-99"/>
      <use x="1192.919922" xlink:href="#DejaVuSans-111"/>
      <use x="1254.101562" xlink:href="#DejaVuSans-114"/>
      <use x="1292.964844" xlink:href="#DejaVuSans-111"/>
      <use x="1354.146484" xlink:href="#DejaVuSans-110"/>
      <use x="1417.525391" xlink:href="#DejaVuSans-97"/>
      <use x="1478.804688" xlink:href="#DejaVuSans-32"/>
      <use x="1510.591797" xlink:href="#DejaVuSans-99"/>
      <use x="1565.572266" xlink:href="#DejaVuSans-97"/>
      <use x="1626.851562" xlink:href="#DejaVuSans-115"/>
      <use x="1678.951172" xlink:href="#DejaVuSans-101"/>
      <use x="1740.474609" xlink:href="#DejaVuSans-115"/>
     </g>
    </g>
   </g>
   <g id="patch_293">
    <path d="M 65.690625 288.430125 
L 65.690625 22.318125 
" style="fill:none;stroke:#000000;stroke-linecap:square;stroke-linejoin:miter;stroke-width:0.8;"/>
   </g>
   <g id="patch_294">
    <path d="M 65.690625 288.430125 
L 422.810625 288.430125 
" style="fill:none;stroke:#000000;stroke-linecap:square;stroke-linejoin:miter;stroke-width:0.8;"/>
   </g>
   <g id="text_18">
    <!-- South Tyrol -->
    <g transform="translate(210.958125 16.318125)scale(0.12 -0.12)">
     <defs>
      <path d="M 53.515625 70.515625 
L 53.515625 60.890625 
Q 47.90625 63.578125 42.921875 64.890625 
Q 37.9375 66.21875 33.296875 66.21875 
Q 25.25 66.21875 20.875 63.09375 
Q 16.5 59.96875 16.5 54.203125 
Q 16.5 49.359375 19.40625 46.890625 
Q 22.3125 44.4375 30.421875 42.921875 
L 36.375 41.703125 
Q 47.40625 39.59375 52.65625 34.296875 
Q 57.90625 29 57.90625 20.125 
Q 57.90625 9.515625 50.796875 4.046875 
Q 43.703125 -1.421875 29.984375 -1.421875 
Q 24.8125 -1.421875 18.96875 -0.25 
Q 13.140625 0.921875 6.890625 3.21875 
L 6.890625 13.375 
Q 12.890625 10.015625 18.65625 8.296875 
Q 24.421875 6.59375 29.984375 6.59375 
Q 38.421875 6.59375 43.015625 9.90625 
Q 47.609375 13.234375 47.609375 19.390625 
Q 47.609375 24.75 44.3125 27.78125 
Q 41.015625 30.8125 33.5 32.328125 
L 27.484375 33.5 
Q 16.453125 35.6875 11.515625 40.375 
Q 6.59375 45.0625 6.59375 53.421875 
Q 6.59375 63.09375 13.40625 68.65625 
Q 20.21875 74.21875 32.171875 74.21875 
Q 37.3125 74.21875 42.625 73.28125 
Q 47.953125 72.359375 53.515625 70.515625 
z
" id="DejaVuSans-83"/>
      <path d="M 54.890625 33.015625 
L 54.890625 0 
L 45.90625 0 
L 45.90625 32.71875 
Q 45.90625 40.484375 42.875 44.328125 
Q 39.84375 48.1875 33.796875 48.1875 
Q 26.515625 48.1875 22.3125 43.546875 
Q 18.109375 38.921875 18.109375 30.90625 
L 18.109375 0 
L 9.078125 0 
L 9.078125 75.984375 
L 18.109375 75.984375 
L 18.109375 46.1875 
Q 21.34375 51.125 25.703125 53.5625 
Q 30.078125 56 35.796875 56 
Q 45.21875 56 50.046875 50.171875 
Q 54.890625 44.34375 54.890625 33.015625 
z
" id="DejaVuSans-104"/>
      <path d="M -0.296875 72.90625 
L 61.375 72.90625 
L 61.375 64.59375 
L 35.5 64.59375 
L 35.5 0 
L 25.59375 0 
L 25.59375 64.59375 
L -0.296875 64.59375 
z
" id="DejaVuSans-84"/>
      <path d="M 32.171875 -5.078125 
Q 28.375 -14.84375 24.75 -17.8125 
Q 21.140625 -20.796875 15.09375 -20.796875 
L 7.90625 -20.796875 
L 7.90625 -13.28125 
L 13.1875 -13.28125 
Q 16.890625 -13.28125 18.9375 -11.515625 
Q 21 -9.765625 23.484375 -3.21875 
L 25.09375 0.875 
L 2.984375 54.6875 
L 12.5 54.6875 
L 29.59375 11.921875 
L 46.6875 54.6875 
L 56.203125 54.6875 
z
" id="DejaVuSans-121"/>
     </defs>
     <use xlink:href="#DejaVuSans-83"/>
     <use x="63.476562" xlink:href="#DejaVuSans-111"/>
     <use x="124.658203" xlink:href="#DejaVuSans-117"/>
     <use x="188.037109" xlink:href="#DejaVuSans-116"/>
     <use x="227.246094" xlink:href="#DejaVuSans-104"/>
     <use x="290.625" xlink:href="#DejaVuSans-32"/>
     <use x="322.412109" xlink:href="#DejaVuSans-84"/>
     <use x="367.871094" xlink:href="#DejaVuSans-121"/>
     <use x="427.050781" xlink:href="#DejaVuSans-114"/>
     <use x="465.914062" xlink:href="#DejaVuSans-111"/>
     <use x="527.095703" xlink:href="#DejaVuSans-108"/>
    </g>
   </g>
  </g>
 </g>
 <defs>
  <clipPath id="p9e1d102e86">
   <rect height="266.112" width="357.12" x="65.690625" y="22.318125"/>
  </clipPath>
 </defs>
</svg>
