<?xml version="1.0" encoding="utf-8" standalone="no"?>
<!DOCTYPE svg PUBLIC "-//W3C//DTD SVG 1.1//EN"
  "http://www.w3.org/Graphics/SVG/1.1/DTD/svg11.dtd">
<!-- Created with matplotlib (https://matplotlib.org/) -->
<svg height="364.091062pt" version="1.1" viewBox="0 0 430.010625 364.091062" width="430.010625pt" xmlns="http://www.w3.org/2000/svg" xmlns:xlink="http://www.w3.org/1999/xlink">
 <metadata>
  <rdf:RDF xmlns:cc="http://creativecommons.org/ns#" xmlns:dc="http://purl.org/dc/elements/1.1/" xmlns:rdf="http://www.w3.org/1999/02/22-rdf-syntax-ns#">
   <cc:Work>
    <dc:type rdf:resource="http://purl.org/dc/dcmitype/StillImage"/>
    <dc:date>2020-12-17T12:32:48.712578</dc:date>
    <dc:format>image/svg+xml</dc:format>
    <dc:creator>
     <cc:Agent>
      <dc:title>Matplotlib v3.3.3, https://matplotlib.org/</dc:title>
     </cc:Agent>
    </dc:creator>
   </cc:Work>
  </rdf:RDF>
 </metadata>
 <defs>
  <style type="text/css">*{stroke-linecap:butt;stroke-linejoin:round;}</style>
 </defs>
 <g id="figure_1">
  <g id="patch_1">
   <path d="M 0 364.091062 
L 430.010625 364.091062 
L 430.010625 0 
L 0 0 
z
" style="fill:#ffffff;"/>
  </g>
  <g id="axes_1">
   <g id="patch_2">
    <path d="M 65.690625 288.430125 
L 422.810625 288.430125 
L 422.810625 22.318125 
L 65.690625 22.318125 
z
" style="fill:#ffffff;"/>
   </g>
   <g id="patch_3">
    <path clip-path="url(#p410af96fc3)" d="M 65.819085 288.430125 
L 66.846769 288.430125 
L 66.846769 286.437574 
L 65.819085 286.437574 
z
" style="fill:#1f77b4;"/>
   </g>
   <g id="patch_4">
    <path clip-path="url(#p410af96fc3)" d="M 67.10369 288.430125 
L 68.131373 288.430125 
L 68.131373 286.070016 
L 67.10369 286.070016 
z
" style="fill:#1f77b4;"/>
   </g>
   <g id="patch_5">
    <path clip-path="url(#p410af96fc3)" d="M 68.388294 288.430125 
L 69.415978 288.430125 
L 69.415978 285.596059 
L 68.388294 285.596059 
z
" style="fill:#1f77b4;"/>
   </g>
   <g id="patch_6">
    <path clip-path="url(#p410af96fc3)" d="M 69.672898 288.430125 
L 70.700582 288.430125 
L 70.700582 284.725527 
L 69.672898 284.725527 
z
" style="fill:#1f77b4;"/>
   </g>
   <g id="patch_7">
    <path clip-path="url(#p410af96fc3)" d="M 70.957503 288.430125 
L 71.985186 288.430125 
L 71.985186 284.164518 
L 70.957503 284.164518 
z
" style="fill:#1f77b4;"/>
   </g>
   <g id="patch_8">
    <path clip-path="url(#p410af96fc3)" d="M 72.242107 288.430125 
L 73.26979 288.430125 
L 73.26979 283.061844 
L 72.242107 283.061844 
z
" style="fill:#1f77b4;"/>
   </g>
   <g id="patch_9">
    <path clip-path="url(#p410af96fc3)" d="M 73.526711 288.430125 
L 74.554395 288.430125 
L 74.554395 282.404108 
L 73.526711 282.404108 
z
" style="fill:#1f77b4;"/>
   </g>
   <g id="patch_10">
    <path clip-path="url(#p410af96fc3)" d="M 74.811316 288.430125 
L 75.838999 288.430125 
L 75.838999 281.833426 
L 74.811316 281.833426 
z
" style="fill:#1f77b4;"/>
   </g>
   <g id="patch_11">
    <path clip-path="url(#p410af96fc3)" d="M 76.09592 288.430125 
L 77.123603 288.430125 
L 77.123603 281.427178 
L 76.09592 281.427178 
z
" style="fill:#1f77b4;"/>
   </g>
   <g id="patch_12">
    <path clip-path="url(#p410af96fc3)" d="M 77.380524 288.430125 
L 78.408208 288.430125 
L 78.408208 280.79846 
L 77.380524 280.79846 
z
" style="fill:#1f77b4;"/>
   </g>
   <g id="patch_13">
    <path clip-path="url(#p410af96fc3)" d="M 78.665129 288.430125 
L 79.692812 288.430125 
L 79.692812 280.343849 
L 78.665129 280.343849 
z
" style="fill:#1f77b4;"/>
   </g>
   <g id="patch_14">
    <path clip-path="url(#p410af96fc3)" d="M 79.949733 288.430125 
L 80.977416 288.430125 
L 80.977416 279.628078 
L 79.949733 279.628078 
z
" style="fill:#1f77b4;"/>
   </g>
   <g id="patch_15">
    <path clip-path="url(#p410af96fc3)" d="M 81.234337 288.430125 
L 82.262021 288.430125 
L 82.262021 278.728528 
L 81.234337 278.728528 
z
" style="fill:#1f77b4;"/>
   </g>
   <g id="patch_16">
    <path clip-path="url(#p410af96fc3)" d="M 82.518942 288.430125 
L 83.546625 288.430125 
L 83.546625 277.964394 
L 82.518942 277.964394 
z
" style="fill:#1f77b4;"/>
   </g>
   <g id="patch_17">
    <path clip-path="url(#p410af96fc3)" d="M 83.803546 288.430125 
L 84.831229 288.430125 
L 84.831229 276.774667 
L 83.803546 276.774667 
z
" style="fill:#1f77b4;"/>
   </g>
   <g id="patch_18">
    <path clip-path="url(#p410af96fc3)" d="M 85.08815 288.430125 
L 86.115834 288.430125 
L 86.115834 275.933153 
L 85.08815 275.933153 
z
" style="fill:#1f77b4;"/>
   </g>
   <g id="patch_19">
    <path clip-path="url(#p410af96fc3)" d="M 86.372754 288.430125 
L 87.400438 288.430125 
L 87.400438 275.352798 
L 86.372754 275.352798 
z
" style="fill:#1f77b4;"/>
   </g>
   <g id="patch_20">
    <path clip-path="url(#p410af96fc3)" d="M 87.657359 288.430125 
L 88.685042 288.430125 
L 88.685042 274.907859 
L 87.657359 274.907859 
z
" style="fill:#1f77b4;"/>
   </g>
   <g id="patch_21">
    <path clip-path="url(#p410af96fc3)" d="M 88.941963 288.430125 
L 89.969647 288.430125 
L 89.969647 274.472593 
L 88.941963 274.472593 
z
" style="fill:#1f77b4;"/>
   </g>
   <g id="patch_22">
    <path clip-path="url(#p410af96fc3)" d="M 90.226567 288.430125 
L 91.254251 288.430125 
L 91.254251 273.708459 
L 90.226567 273.708459 
z
" style="fill:#1f77b4;"/>
   </g>
   <g id="patch_23">
    <path clip-path="url(#p410af96fc3)" d="M 91.511172 288.430125 
L 92.538855 288.430125 
L 92.538855 272.8476 
L 91.511172 272.8476 
z
" style="fill:#1f77b4;"/>
   </g>
   <g id="patch_24">
    <path clip-path="url(#p410af96fc3)" d="M 92.795776 288.430125 
L 93.82346 288.430125 
L 93.82346 272.441352 
L 92.795776 272.441352 
z
" style="fill:#1f77b4;"/>
   </g>
   <g id="patch_25">
    <path clip-path="url(#p410af96fc3)" d="M 94.08038 288.430125 
L 95.108064 288.430125 
L 95.108064 271.677218 
L 94.08038 271.677218 
z
" style="fill:#1f77b4;"/>
   </g>
   <g id="patch_26">
    <path clip-path="url(#p410af96fc3)" d="M 95.364985 288.430125 
L 96.392668 288.430125 
L 96.392668 271.106536 
L 95.364985 271.106536 
z
" style="fill:#1f77b4;"/>
   </g>
   <g id="patch_27">
    <path clip-path="url(#p410af96fc3)" d="M 96.649589 288.430125 
L 97.677272 288.430125 
L 97.677272 270.4488 
L 96.649589 270.4488 
z
" style="fill:#1f77b4;"/>
   </g>
   <g id="patch_28">
    <path clip-path="url(#p410af96fc3)" d="M 97.934193 288.430125 
L 98.961877 288.430125 
L 98.961877 269.945826 
L 97.934193 269.945826 
z
" style="fill:#1f77b4;"/>
   </g>
   <g id="patch_29">
    <path clip-path="url(#p410af96fc3)" d="M 99.218798 288.430125 
L 100.246481 288.430125 
L 100.246481 269.336454 
L 99.218798 269.336454 
z
" style="fill:#1f77b4;"/>
   </g>
   <g id="patch_30">
    <path clip-path="url(#p410af96fc3)" d="M 100.503402 288.430125 
L 101.531085 288.430125 
L 101.531085 268.688391 
L 100.503402 268.688391 
z
" style="fill:#1f77b4;"/>
   </g>
   <g id="patch_31">
    <path clip-path="url(#p410af96fc3)" d="M 101.788006 288.430125 
L 102.81569 288.430125 
L 102.81569 268.175744 
L 101.788006 268.175744 
z
" style="fill:#1f77b4;"/>
   </g>
   <g id="patch_32">
    <path clip-path="url(#p410af96fc3)" d="M 103.072611 288.430125 
L 104.100294 288.430125 
L 104.100294 267.682443 
L 103.072611 267.682443 
z
" style="fill:#1f77b4;"/>
   </g>
   <g id="patch_33">
    <path clip-path="url(#p410af96fc3)" d="M 104.357215 288.430125 
L 105.384898 288.430125 
L 105.384898 267.343902 
L 104.357215 267.343902 
z
" style="fill:#1f77b4;"/>
   </g>
   <g id="patch_34">
    <path clip-path="url(#p410af96fc3)" d="M 105.641819 288.430125 
L 106.669503 288.430125 
L 106.669503 266.918309 
L 105.641819 266.918309 
z
" style="fill:#1f77b4;"/>
   </g>
   <g id="patch_35">
    <path clip-path="url(#p410af96fc3)" d="M 106.926424 288.430125 
L 107.954107 288.430125 
L 107.954107 266.492715 
L 106.926424 266.492715 
z
" style="fill:#1f77b4;"/>
   </g>
   <g id="patch_36">
    <path clip-path="url(#p410af96fc3)" d="M 108.211028 288.430125 
L 109.238711 288.430125 
L 109.238711 266.221883 
L 108.211028 266.221883 
z
" style="fill:#1f77b4;"/>
   </g>
   <g id="patch_37">
    <path clip-path="url(#p410af96fc3)" d="M 109.495632 288.430125 
L 110.523316 288.430125 
L 110.523316 265.941378 
L 109.495632 265.941378 
z
" style="fill:#1f77b4;"/>
   </g>
   <g id="patch_38">
    <path clip-path="url(#p410af96fc3)" d="M 110.780237 288.430125 
L 111.80792 288.430125 
L 111.80792 265.409386 
L 110.780237 265.409386 
z
" style="fill:#1f77b4;"/>
   </g>
   <g id="patch_39">
    <path clip-path="url(#p410af96fc3)" d="M 112.064841 288.430125 
L 113.092524 288.430125 
L 113.092524 265.264298 
L 112.064841 265.264298 
z
" style="fill:#1f77b4;"/>
   </g>
   <g id="patch_40">
    <path clip-path="url(#p410af96fc3)" d="M 113.349445 288.430125 
L 114.377129 288.430125 
L 114.377129 265.099864 
L 113.349445 265.099864 
z
" style="fill:#1f77b4;"/>
   </g>
   <g id="patch_41">
    <path clip-path="url(#p410af96fc3)" d="M 114.634049 288.430125 
L 115.661733 288.430125 
L 115.661733 265.061174 
L 114.634049 265.061174 
z
" style="fill:#1f77b4;"/>
   </g>
   <g id="patch_42">
    <path clip-path="url(#p410af96fc3)" d="M 115.918654 288.430125 
L 116.946337 288.430125 
L 116.946337 264.877395 
L 115.918654 264.877395 
z
" style="fill:#1f77b4;"/>
   </g>
   <g id="patch_43">
    <path clip-path="url(#p410af96fc3)" d="M 117.203258 288.430125 
L 118.230942 288.430125 
L 118.230942 264.67427 
L 117.203258 264.67427 
z
" style="fill:#1f77b4;"/>
   </g>
   <g id="patch_44">
    <path clip-path="url(#p410af96fc3)" d="M 118.487862 288.430125 
L 119.515546 288.430125 
L 119.515546 264.480819 
L 118.487862 264.480819 
z
" style="fill:#1f77b4;"/>
   </g>
   <g id="patch_45">
    <path clip-path="url(#p410af96fc3)" d="M 119.772467 288.430125 
L 120.80015 288.430125 
L 120.80015 264.432456 
L 119.772467 264.432456 
z
" style="fill:#1f77b4;"/>
   </g>
   <g id="patch_46">
    <path clip-path="url(#p410af96fc3)" d="M 121.057071 288.430125 
L 122.084754 288.430125 
L 122.084754 264.287367 
L 121.057071 264.287367 
z
" style="fill:#1f77b4;"/>
   </g>
   <g id="patch_47">
    <path clip-path="url(#p410af96fc3)" d="M 122.341675 288.430125 
L 123.369359 288.430125 
L 123.369359 264.268022 
L 122.341675 264.268022 
z
" style="fill:#1f77b4;"/>
   </g>
   <g id="patch_48">
    <path clip-path="url(#p410af96fc3)" d="M 123.62628 288.430125 
L 124.653963 288.430125 
L 124.653963 264.180969 
L 123.62628 264.180969 
z
" style="fill:#1f77b4;"/>
   </g>
   <g id="patch_49">
    <path clip-path="url(#p410af96fc3)" d="M 124.910884 288.430125 
L 125.938567 288.430125 
L 125.938567 264.07457 
L 124.910884 264.07457 
z
" style="fill:#1f77b4;"/>
   </g>
   <g id="patch_50">
    <path clip-path="url(#p410af96fc3)" d="M 126.195488 288.430125 
L 127.223172 288.430125 
L 127.223172 263.977845 
L 126.195488 263.977845 
z
" style="fill:#1f77b4;"/>
   </g>
   <g id="patch_51">
    <path clip-path="url(#p410af96fc3)" d="M 127.480093 288.430125 
L 128.507776 288.430125 
L 128.507776 263.910137 
L 127.480093 263.910137 
z
" style="fill:#1f77b4;"/>
   </g>
   <g id="patch_52">
    <path clip-path="url(#p410af96fc3)" d="M 128.764697 288.430125 
L 129.79238 288.430125 
L 129.79238 263.900464 
L 128.764697 263.900464 
z
" style="fill:#1f77b4;"/>
   </g>
   <g id="patch_53">
    <path clip-path="url(#p410af96fc3)" d="M 130.049301 288.430125 
L 131.076985 288.430125 
L 131.076985 263.852101 
L 130.049301 263.852101 
z
" style="fill:#1f77b4;"/>
   </g>
   <g id="patch_54">
    <path clip-path="url(#p410af96fc3)" d="M 131.333906 288.430125 
L 132.361589 288.430125 
L 132.361589 263.842429 
L 131.333906 263.842429 
z
" style="fill:#1f77b4;"/>
   </g>
   <g id="patch_55">
    <path clip-path="url(#p410af96fc3)" d="M 132.61851 288.430125 
L 133.646193 288.430125 
L 133.646193 263.832756 
L 132.61851 263.832756 
z
" style="fill:#1f77b4;"/>
   </g>
   <g id="patch_56">
    <path clip-path="url(#p410af96fc3)" d="M 133.903114 288.430125 
L 134.930798 288.430125 
L 134.930798 263.745703 
L 133.903114 263.745703 
z
" style="fill:#1f77b4;"/>
   </g>
   <g id="patch_57">
    <path clip-path="url(#p410af96fc3)" d="M 135.187719 288.430125 
L 136.215402 288.430125 
L 136.215402 263.687667 
L 135.187719 263.687667 
z
" style="fill:#1f77b4;"/>
   </g>
   <g id="patch_58">
    <path clip-path="url(#p410af96fc3)" d="M 136.472323 288.430125 
L 137.500006 288.430125 
L 137.500006 263.600614 
L 136.472323 263.600614 
z
" style="fill:#1f77b4;"/>
   </g>
   <g id="patch_59">
    <path clip-path="url(#p410af96fc3)" d="M 137.756927 288.430125 
L 138.784611 288.430125 
L 138.784611 263.581269 
L 137.756927 263.581269 
z
" style="fill:#1f77b4;"/>
   </g>
   <g id="patch_60">
    <path clip-path="url(#p410af96fc3)" d="M 139.041531 288.430125 
L 140.069215 288.430125 
L 140.069215 263.552251 
L 139.041531 263.552251 
z
" style="fill:#1f77b4;"/>
   </g>
   <g id="patch_61">
    <path clip-path="url(#p410af96fc3)" d="M 140.326136 288.430125 
L 141.353819 288.430125 
L 141.353819 263.552251 
L 140.326136 263.552251 
z
" style="fill:#1f77b4;"/>
   </g>
   <g id="patch_62">
    <path clip-path="url(#p410af96fc3)" d="M 141.61074 288.430125 
L 142.638424 288.430125 
L 142.638424 263.523233 
L 141.61074 263.523233 
z
" style="fill:#1f77b4;"/>
   </g>
   <g id="patch_63">
    <path clip-path="url(#p410af96fc3)" d="M 142.895344 288.430125 
L 143.923028 288.430125 
L 143.923028 263.494216 
L 142.895344 263.494216 
z
" style="fill:#1f77b4;"/>
   </g>
   <g id="patch_64">
    <path clip-path="url(#p410af96fc3)" d="M 144.179949 288.430125 
L 145.207632 288.430125 
L 145.207632 263.494216 
L 144.179949 263.494216 
z
" style="fill:#1f77b4;"/>
   </g>
   <g id="patch_65">
    <path clip-path="url(#p410af96fc3)" d="M 145.464553 288.430125 
L 146.492237 288.430125 
L 146.492237 263.494216 
L 145.464553 263.494216 
z
" style="fill:#1f77b4;"/>
   </g>
   <g id="patch_66">
    <path clip-path="url(#p410af96fc3)" d="M 146.749157 288.430125 
L 147.776841 288.430125 
L 147.776841 263.474871 
L 146.749157 263.474871 
z
" style="fill:#1f77b4;"/>
   </g>
   <g id="patch_67">
    <path clip-path="url(#p410af96fc3)" d="M 148.033762 288.430125 
L 149.061445 288.430125 
L 149.061445 263.455525 
L 148.033762 263.455525 
z
" style="fill:#1f77b4;"/>
   </g>
   <g id="patch_68">
    <path clip-path="url(#p410af96fc3)" d="M 149.318366 288.430125 
L 150.346049 288.430125 
L 150.346049 263.407163 
L 149.318366 263.407163 
z
" style="fill:#1f77b4;"/>
   </g>
   <g id="patch_69">
    <path clip-path="url(#p410af96fc3)" d="M 150.60297 288.430125 
L 151.630654 288.430125 
L 151.630654 263.407163 
L 150.60297 263.407163 
z
" style="fill:#1f77b4;"/>
   </g>
   <g id="patch_70">
    <path clip-path="url(#p410af96fc3)" d="M 151.887575 288.430125 
L 152.915258 288.430125 
L 152.915258 263.407163 
L 151.887575 263.407163 
z
" style="fill:#1f77b4;"/>
   </g>
   <g id="patch_71">
    <path clip-path="url(#p410af96fc3)" d="M 153.172179 288.430125 
L 154.199862 288.430125 
L 154.199862 263.378145 
L 153.172179 263.378145 
z
" style="fill:#1f77b4;"/>
   </g>
   <g id="patch_72">
    <path clip-path="url(#p410af96fc3)" d="M 154.456783 288.430125 
L 155.484467 288.430125 
L 155.484467 263.378145 
L 154.456783 263.378145 
z
" style="fill:#1f77b4;"/>
   </g>
   <g id="patch_73">
    <path clip-path="url(#p410af96fc3)" d="M 155.741388 288.430125 
L 156.769071 288.430125 
L 156.769071 263.3588 
L 155.741388 263.3588 
z
" style="fill:#1f77b4;"/>
   </g>
   <g id="patch_74">
    <path clip-path="url(#p410af96fc3)" d="M 157.025992 288.430125 
L 158.053675 288.430125 
L 158.053675 263.3588 
L 157.025992 263.3588 
z
" style="fill:#1f77b4;"/>
   </g>
   <g id="patch_75">
    <path clip-path="url(#p410af96fc3)" d="M 158.310596 288.430125 
L 159.33828 288.430125 
L 159.33828 263.349127 
L 158.310596 263.349127 
z
" style="fill:#1f77b4;"/>
   </g>
   <g id="patch_76">
    <path clip-path="url(#p410af96fc3)" d="M 159.595201 288.430125 
L 160.622884 288.430125 
L 160.622884 263.349127 
L 159.595201 263.349127 
z
" style="fill:#1f77b4;"/>
   </g>
   <g id="patch_77">
    <path clip-path="url(#p410af96fc3)" d="M 160.879805 288.430125 
L 161.907488 288.430125 
L 161.907488 263.329782 
L 160.879805 263.329782 
z
" style="fill:#1f77b4;"/>
   </g>
   <g id="patch_78">
    <path clip-path="url(#p410af96fc3)" d="M 162.164409 288.430125 
L 163.192093 288.430125 
L 163.192093 263.329782 
L 162.164409 263.329782 
z
" style="fill:#1f77b4;"/>
   </g>
   <g id="patch_79">
    <path clip-path="url(#p410af96fc3)" d="M 163.449013 288.430125 
L 164.476697 288.430125 
L 164.476697 263.320109 
L 163.449013 263.320109 
z
" style="fill:#1f77b4;"/>
   </g>
   <g id="patch_80">
    <path clip-path="url(#p410af96fc3)" d="M 164.733618 288.430125 
L 165.761301 288.430125 
L 165.761301 263.310437 
L 164.733618 263.310437 
z
" style="fill:#1f77b4;"/>
   </g>
   <g id="patch_81">
    <path clip-path="url(#p410af96fc3)" d="M 166.018222 288.430125 
L 167.045906 288.430125 
L 167.045906 263.310437 
L 166.018222 263.310437 
z
" style="fill:#1f77b4;"/>
   </g>
   <g id="patch_82">
    <path clip-path="url(#p410af96fc3)" d="M 167.302826 288.430125 
L 168.33051 288.430125 
L 168.33051 263.310437 
L 167.302826 263.310437 
z
" style="fill:#1f77b4;"/>
   </g>
   <g id="patch_83">
    <path clip-path="url(#p410af96fc3)" d="M 168.587431 288.430125 
L 169.615114 288.430125 
L 169.615114 263.310437 
L 168.587431 263.310437 
z
" style="fill:#1f77b4;"/>
   </g>
   <g id="patch_84">
    <path clip-path="url(#p410af96fc3)" d="M 169.872035 288.430125 
L 170.899719 288.430125 
L 170.899719 263.310437 
L 169.872035 263.310437 
z
" style="fill:#1f77b4;"/>
   </g>
   <g id="patch_85">
    <path clip-path="url(#p410af96fc3)" d="M 171.156639 288.430125 
L 172.184323 288.430125 
L 172.184323 263.300764 
L 171.156639 263.300764 
z
" style="fill:#1f77b4;"/>
   </g>
   <g id="patch_86">
    <path clip-path="url(#p410af96fc3)" d="M 172.441244 288.430125 
L 173.468927 288.430125 
L 173.468927 263.291092 
L 172.441244 263.291092 
z
" style="fill:#1f77b4;"/>
   </g>
   <g id="patch_87">
    <path clip-path="url(#p410af96fc3)" d="M 173.725848 288.430125 
L 174.753531 288.430125 
L 174.753531 263.262074 
L 173.725848 263.262074 
z
" style="fill:#1f77b4;"/>
   </g>
   <g id="patch_88">
    <path clip-path="url(#p410af96fc3)" d="M 175.010452 288.430125 
L 176.038136 288.430125 
L 176.038136 263.262074 
L 175.010452 263.262074 
z
" style="fill:#1f77b4;"/>
   </g>
   <g id="patch_89">
    <path clip-path="url(#p410af96fc3)" d="M 176.295057 288.430125 
L 177.32274 288.430125 
L 177.32274 263.262074 
L 176.295057 263.262074 
z
" style="fill:#1f77b4;"/>
   </g>
   <g id="patch_90">
    <path clip-path="url(#p410af96fc3)" d="M 177.579661 288.430125 
L 178.607344 288.430125 
L 178.607344 263.262074 
L 177.579661 263.262074 
z
" style="fill:#1f77b4;"/>
   </g>
   <g id="patch_91">
    <path clip-path="url(#p410af96fc3)" d="M 178.864265 288.430125 
L 179.891949 288.430125 
L 179.891949 263.223384 
L 178.864265 263.223384 
z
" style="fill:#1f77b4;"/>
   </g>
   <g id="patch_92">
    <path clip-path="url(#p410af96fc3)" d="M 180.14887 288.430125 
L 181.176553 288.430125 
L 181.176553 263.204038 
L 180.14887 263.204038 
z
" style="fill:#1f77b4;"/>
   </g>
   <g id="patch_93">
    <path clip-path="url(#p410af96fc3)" d="M 181.433474 288.430125 
L 182.461157 288.430125 
L 182.461157 263.184693 
L 181.433474 263.184693 
z
" style="fill:#1f77b4;"/>
   </g>
   <g id="patch_94">
    <path clip-path="url(#p410af96fc3)" d="M 182.718078 288.430125 
L 183.745762 288.430125 
L 183.745762 263.175021 
L 182.718078 263.175021 
z
" style="fill:#1f77b4;"/>
   </g>
   <g id="patch_95">
    <path clip-path="url(#p410af96fc3)" d="M 184.002683 288.430125 
L 185.030366 288.430125 
L 185.030366 263.175021 
L 184.002683 263.175021 
z
" style="fill:#1f77b4;"/>
   </g>
   <g id="patch_96">
    <path clip-path="url(#p410af96fc3)" d="M 185.287287 288.430125 
L 186.31497 288.430125 
L 186.31497 263.175021 
L 185.287287 263.175021 
z
" style="fill:#1f77b4;"/>
   </g>
   <g id="patch_97">
    <path clip-path="url(#p410af96fc3)" d="M 186.571891 288.430125 
L 187.599575 288.430125 
L 187.599575 263.175021 
L 186.571891 263.175021 
z
" style="fill:#1f77b4;"/>
   </g>
   <g id="patch_98">
    <path clip-path="url(#p410af96fc3)" d="M 187.856496 288.430125 
L 188.884179 288.430125 
L 188.884179 263.155675 
L 187.856496 263.155675 
z
" style="fill:#1f77b4;"/>
   </g>
   <g id="patch_99">
    <path clip-path="url(#p410af96fc3)" d="M 189.1411 288.430125 
L 190.168783 288.430125 
L 190.168783 263.13633 
L 189.1411 263.13633 
z
" style="fill:#1f77b4;"/>
   </g>
   <g id="patch_100">
    <path clip-path="url(#p410af96fc3)" d="M 190.425704 288.430125 
L 191.453388 288.430125 
L 191.453388 263.107313 
L 190.425704 263.107313 
z
" style="fill:#1f77b4;"/>
   </g>
   <g id="patch_101">
    <path clip-path="url(#p410af96fc3)" d="M 191.710308 288.430125 
L 192.737992 288.430125 
L 192.737992 263.068622 
L 191.710308 263.068622 
z
" style="fill:#1f77b4;"/>
   </g>
   <g id="patch_102">
    <path clip-path="url(#p410af96fc3)" d="M 192.994913 288.430125 
L 194.022596 288.430125 
L 194.022596 262.962224 
L 192.994913 262.962224 
z
" style="fill:#1f77b4;"/>
   </g>
   <g id="patch_103">
    <path clip-path="url(#p410af96fc3)" d="M 194.279517 288.430125 
L 195.307201 288.430125 
L 195.307201 262.962224 
L 194.279517 262.962224 
z
" style="fill:#1f77b4;"/>
   </g>
   <g id="patch_104">
    <path clip-path="url(#p410af96fc3)" d="M 195.564121 288.430125 
L 196.591805 288.430125 
L 196.591805 262.952551 
L 195.564121 262.952551 
z
" style="fill:#1f77b4;"/>
   </g>
   <g id="patch_105">
    <path clip-path="url(#p410af96fc3)" d="M 196.848726 288.430125 
L 197.876409 288.430125 
L 197.876409 262.952551 
L 196.848726 262.952551 
z
" style="fill:#1f77b4;"/>
   </g>
   <g id="patch_106">
    <path clip-path="url(#p410af96fc3)" d="M 198.13333 288.430125 
L 199.161013 288.430125 
L 199.161013 262.952551 
L 198.13333 262.952551 
z
" style="fill:#1f77b4;"/>
   </g>
   <g id="patch_107">
    <path clip-path="url(#p410af96fc3)" d="M 199.417934 288.430125 
L 200.445618 288.430125 
L 200.445618 262.933206 
L 199.417934 262.933206 
z
" style="fill:#1f77b4;"/>
   </g>
   <g id="patch_108">
    <path clip-path="url(#p410af96fc3)" d="M 200.702539 288.430125 
L 201.730222 288.430125 
L 201.730222 262.923534 
L 200.702539 262.923534 
z
" style="fill:#1f77b4;"/>
   </g>
   <g id="patch_109">
    <path clip-path="url(#p410af96fc3)" d="M 201.987143 288.430125 
L 203.014826 288.430125 
L 203.014826 262.904188 
L 201.987143 262.904188 
z
" style="fill:#1f77b4;"/>
   </g>
   <g id="patch_110">
    <path clip-path="url(#p410af96fc3)" d="M 203.271747 288.430125 
L 204.299431 288.430125 
L 204.299431 262.904188 
L 203.271747 262.904188 
z
" style="fill:#1f77b4;"/>
   </g>
   <g id="patch_111">
    <path clip-path="url(#p410af96fc3)" d="M 204.556352 288.430125 
L 205.584035 288.430125 
L 205.584035 262.884843 
L 204.556352 262.884843 
z
" style="fill:#1f77b4;"/>
   </g>
   <g id="patch_112">
    <path clip-path="url(#p410af96fc3)" d="M 205.840956 288.430125 
L 206.868639 288.430125 
L 206.868639 262.875171 
L 205.840956 262.875171 
z
" style="fill:#1f77b4;"/>
   </g>
   <g id="patch_113">
    <path clip-path="url(#p410af96fc3)" d="M 207.12556 288.430125 
L 208.153244 288.430125 
L 208.153244 262.875171 
L 207.12556 262.875171 
z
" style="fill:#1f77b4;"/>
   </g>
   <g id="patch_114">
    <path clip-path="url(#p410af96fc3)" d="M 208.410165 288.430125 
L 209.437848 288.430125 
L 209.437848 262.83648 
L 208.410165 262.83648 
z
" style="fill:#1f77b4;"/>
   </g>
   <g id="patch_115">
    <path clip-path="url(#p410af96fc3)" d="M 209.694769 288.430125 
L 210.722452 288.430125 
L 210.722452 262.826808 
L 209.694769 262.826808 
z
" style="fill:#1f77b4;"/>
   </g>
   <g id="patch_116">
    <path clip-path="url(#p410af96fc3)" d="M 210.979373 288.430125 
L 212.007057 288.430125 
L 212.007057 262.826808 
L 210.979373 262.826808 
z
" style="fill:#1f77b4;"/>
   </g>
   <g id="patch_117">
    <path clip-path="url(#p410af96fc3)" d="M 212.263978 288.430125 
L 213.291661 288.430125 
L 213.291661 262.817135 
L 212.263978 262.817135 
z
" style="fill:#1f77b4;"/>
   </g>
   <g id="patch_118">
    <path clip-path="url(#p410af96fc3)" d="M 213.548582 288.430125 
L 214.576265 288.430125 
L 214.576265 262.79779 
L 213.548582 262.79779 
z
" style="fill:#1f77b4;"/>
   </g>
   <g id="patch_119">
    <path clip-path="url(#p410af96fc3)" d="M 214.833186 288.430125 
L 215.86087 288.430125 
L 215.86087 262.768772 
L 214.833186 262.768772 
z
" style="fill:#1f77b4;"/>
   </g>
   <g id="patch_120">
    <path clip-path="url(#p410af96fc3)" d="M 216.11779 288.430125 
L 217.145474 288.430125 
L 217.145474 262.720409 
L 216.11779 262.720409 
z
" style="fill:#1f77b4;"/>
   </g>
   <g id="patch_121">
    <path clip-path="url(#p410af96fc3)" d="M 217.402395 288.430125 
L 218.430078 288.430125 
L 218.430078 262.691392 
L 217.402395 262.691392 
z
" style="fill:#1f77b4;"/>
   </g>
   <g id="patch_122">
    <path clip-path="url(#p410af96fc3)" d="M 218.686999 288.430125 
L 219.714683 288.430125 
L 219.714683 262.643029 
L 218.686999 262.643029 
z
" style="fill:#1f77b4;"/>
   </g>
   <g id="patch_123">
    <path clip-path="url(#p410af96fc3)" d="M 219.971603 288.430125 
L 220.999287 288.430125 
L 220.999287 262.575321 
L 219.971603 262.575321 
z
" style="fill:#1f77b4;"/>
   </g>
   <g id="patch_124">
    <path clip-path="url(#p410af96fc3)" d="M 221.256208 288.430125 
L 222.283891 288.430125 
L 222.283891 262.565648 
L 221.256208 262.565648 
z
" style="fill:#1f77b4;"/>
   </g>
   <g id="patch_125">
    <path clip-path="url(#p410af96fc3)" d="M 222.540812 288.430125 
L 223.568496 288.430125 
L 223.568496 262.53663 
L 222.540812 262.53663 
z
" style="fill:#1f77b4;"/>
   </g>
   <g id="patch_126">
    <path clip-path="url(#p410af96fc3)" d="M 223.825416 288.430125 
L 224.8531 288.430125 
L 224.8531 262.526958 
L 223.825416 262.526958 
z
" style="fill:#1f77b4;"/>
   </g>
   <g id="patch_127">
    <path clip-path="url(#p410af96fc3)" d="M 225.110021 288.430125 
L 226.137704 288.430125 
L 226.137704 262.488267 
L 225.110021 262.488267 
z
" style="fill:#1f77b4;"/>
   </g>
   <g id="patch_128">
    <path clip-path="url(#p410af96fc3)" d="M 226.394625 288.430125 
L 227.422308 288.430125 
L 227.422308 262.478595 
L 226.394625 262.478595 
z
" style="fill:#1f77b4;"/>
   </g>
   <g id="patch_129">
    <path clip-path="url(#p410af96fc3)" d="M 227.679229 288.430125 
L 228.706913 288.430125 
L 228.706913 262.468922 
L 227.679229 262.468922 
z
" style="fill:#1f77b4;"/>
   </g>
   <g id="patch_130">
    <path clip-path="url(#p410af96fc3)" d="M 228.963834 288.430125 
L 229.991517 288.430125 
L 229.991517 262.468922 
L 228.963834 262.468922 
z
" style="fill:#1f77b4;"/>
   </g>
   <g id="patch_131">
    <path clip-path="url(#p410af96fc3)" d="M 230.248438 288.430125 
L 231.276121 288.430125 
L 231.276121 262.45925 
L 230.248438 262.45925 
z
" style="fill:#1f77b4;"/>
   </g>
   <g id="patch_132">
    <path clip-path="url(#p410af96fc3)" d="M 231.533042 288.430125 
L 232.560726 288.430125 
L 232.560726 262.45925 
L 231.533042 262.45925 
z
" style="fill:#1f77b4;"/>
   </g>
   <g id="patch_133">
    <path clip-path="url(#p410af96fc3)" d="M 232.817647 288.430125 
L 233.84533 288.430125 
L 233.84533 262.449577 
L 232.817647 262.449577 
z
" style="fill:#1f77b4;"/>
   </g>
   <g id="patch_134">
    <path clip-path="url(#p410af96fc3)" d="M 234.102251 288.430125 
L 235.129934 288.430125 
L 235.129934 262.439905 
L 234.102251 262.439905 
z
" style="fill:#1f77b4;"/>
   </g>
   <g id="patch_135">
    <path clip-path="url(#p410af96fc3)" d="M 235.386855 288.430125 
L 236.414539 288.430125 
L 236.414539 262.381869 
L 235.386855 262.381869 
z
" style="fill:#1f77b4;"/>
   </g>
   <g id="patch_136">
    <path clip-path="url(#p410af96fc3)" d="M 236.67146 288.430125 
L 237.699143 288.430125 
L 237.699143 262.333506 
L 236.67146 262.333506 
z
" style="fill:#1f77b4;"/>
   </g>
   <g id="patch_137">
    <path clip-path="url(#p410af96fc3)" d="M 237.956064 288.430125 
L 238.983747 288.430125 
L 238.983747 262.314161 
L 237.956064 262.314161 
z
" style="fill:#1f77b4;"/>
   </g>
   <g id="patch_138">
    <path clip-path="url(#p410af96fc3)" d="M 239.240668 288.430125 
L 240.268352 288.430125 
L 240.268352 262.391542 
L 239.240668 262.391542 
z
" style="fill:#1f77b4;"/>
   </g>
   <g id="patch_139">
    <path clip-path="url(#p410af96fc3)" d="M 240.525272 288.430125 
L 241.552956 288.430125 
L 241.552956 262.352851 
L 240.525272 262.352851 
z
" style="fill:#1f77b4;"/>
   </g>
   <g id="patch_140">
    <path clip-path="url(#p410af96fc3)" d="M 241.809877 288.430125 
L 242.83756 288.430125 
L 242.83756 262.294816 
L 241.809877 262.294816 
z
" style="fill:#1f77b4;"/>
   </g>
   <g id="patch_141">
    <path clip-path="url(#p410af96fc3)" d="M 243.094481 288.430125 
L 244.122165 288.430125 
L 244.122165 262.149727 
L 243.094481 262.149727 
z
" style="fill:#1f77b4;"/>
   </g>
   <g id="patch_142">
    <path clip-path="url(#p410af96fc3)" d="M 244.379085 288.430125 
L 245.406769 288.430125 
L 245.406769 262.072347 
L 244.379085 262.072347 
z
" style="fill:#1f77b4;"/>
   </g>
   <g id="patch_143">
    <path clip-path="url(#p410af96fc3)" d="M 245.66369 288.430125 
L 246.691373 288.430125 
L 246.691373 262.043329 
L 245.66369 262.043329 
z
" style="fill:#1f77b4;"/>
   </g>
   <g id="patch_144">
    <path clip-path="url(#p410af96fc3)" d="M 246.948294 288.430125 
L 247.975978 288.430125 
L 247.975978 261.985293 
L 246.948294 261.985293 
z
" style="fill:#1f77b4;"/>
   </g>
   <g id="patch_145">
    <path clip-path="url(#p410af96fc3)" d="M 248.232898 288.430125 
L 249.260582 288.430125 
L 249.260582 261.917585 
L 248.232898 261.917585 
z
" style="fill:#1f77b4;"/>
   </g>
   <g id="patch_146">
    <path clip-path="url(#p410af96fc3)" d="M 249.517503 288.430125 
L 250.545186 288.430125 
L 250.545186 261.878895 
L 249.517503 261.878895 
z
" style="fill:#1f77b4;"/>
   </g>
   <g id="patch_147">
    <path clip-path="url(#p410af96fc3)" d="M 250.802107 288.430125 
L 251.82979 288.430125 
L 251.82979 261.762824 
L 250.802107 261.762824 
z
" style="fill:#1f77b4;"/>
   </g>
   <g id="patch_148">
    <path clip-path="url(#p410af96fc3)" d="M 252.086711 288.430125 
L 253.114395 288.430125 
L 253.114395 261.724134 
L 252.086711 261.724134 
z
" style="fill:#1f77b4;"/>
   </g>
   <g id="patch_149">
    <path clip-path="url(#p410af96fc3)" d="M 253.371316 288.430125 
L 254.398999 288.430125 
L 254.398999 261.675771 
L 253.371316 261.675771 
z
" style="fill:#1f77b4;"/>
   </g>
   <g id="patch_150">
    <path clip-path="url(#p410af96fc3)" d="M 254.65592 288.430125 
L 255.683603 288.430125 
L 255.683603 261.608063 
L 254.65592 261.608063 
z
" style="fill:#1f77b4;"/>
   </g>
   <g id="patch_151">
    <path clip-path="url(#p410af96fc3)" d="M 255.940524 288.430125 
L 256.968208 288.430125 
L 256.968208 261.59839 
L 255.940524 261.59839 
z
" style="fill:#1f77b4;"/>
   </g>
   <g id="patch_152">
    <path clip-path="url(#p410af96fc3)" d="M 257.225129 288.430125 
L 258.252812 288.430125 
L 258.252812 261.588718 
L 257.225129 261.588718 
z
" style="fill:#1f77b4;"/>
   </g>
   <g id="patch_153">
    <path clip-path="url(#p410af96fc3)" d="M 258.509733 288.430125 
L 259.537416 288.430125 
L 259.537416 261.550027 
L 258.509733 261.550027 
z
" style="fill:#1f77b4;"/>
   </g>
   <g id="patch_154">
    <path clip-path="url(#p410af96fc3)" d="M 259.794337 288.430125 
L 260.822021 288.430125 
L 260.822021 261.530682 
L 259.794337 261.530682 
z
" style="fill:#1f77b4;"/>
   </g>
   <g id="patch_155">
    <path clip-path="url(#p410af96fc3)" d="M 261.078942 288.430125 
L 262.106625 288.430125 
L 262.106625 261.501664 
L 261.078942 261.501664 
z
" style="fill:#1f77b4;"/>
   </g>
   <g id="patch_156">
    <path clip-path="url(#p410af96fc3)" d="M 262.363546 288.430125 
L 263.391229 288.430125 
L 263.391229 261.414611 
L 262.363546 261.414611 
z
" style="fill:#1f77b4;"/>
   </g>
   <g id="patch_157">
    <path clip-path="url(#p410af96fc3)" d="M 263.64815 288.430125 
L 264.675834 288.430125 
L 264.675834 261.327558 
L 263.64815 261.327558 
z
" style="fill:#1f77b4;"/>
   </g>
   <g id="patch_158">
    <path clip-path="url(#p410af96fc3)" d="M 264.932754 288.430125 
L 265.960438 288.430125 
L 265.960438 261.308213 
L 264.932754 261.308213 
z
" style="fill:#1f77b4;"/>
   </g>
   <g id="patch_159">
    <path clip-path="url(#p410af96fc3)" d="M 266.217359 288.430125 
L 267.245042 288.430125 
L 267.245042 261.308213 
L 266.217359 261.308213 
z
" style="fill:#1f77b4;"/>
   </g>
   <g id="patch_160">
    <path clip-path="url(#p410af96fc3)" d="M 267.501963 288.430125 
L 268.529647 288.430125 
L 268.529647 261.240505 
L 267.501963 261.240505 
z
" style="fill:#1f77b4;"/>
   </g>
   <g id="patch_161">
    <path clip-path="url(#p410af96fc3)" d="M 268.786567 288.430125 
L 269.814251 288.430125 
L 269.814251 261.037381 
L 268.786567 261.037381 
z
" style="fill:#1f77b4;"/>
   </g>
   <g id="patch_162">
    <path clip-path="url(#p410af96fc3)" d="M 270.071172 288.430125 
L 271.098855 288.430125 
L 271.098855 260.989018 
L 270.071172 260.989018 
z
" style="fill:#1f77b4;"/>
   </g>
   <g id="patch_163">
    <path clip-path="url(#p410af96fc3)" d="M 271.355776 288.430125 
L 272.38346 288.430125 
L 272.38346 260.834256 
L 271.355776 260.834256 
z
" style="fill:#1f77b4;"/>
   </g>
   <g id="patch_164">
    <path clip-path="url(#p410af96fc3)" d="M 272.64038 288.430125 
L 273.668064 288.430125 
L 273.668064 260.679495 
L 272.64038 260.679495 
z
" style="fill:#1f77b4;"/>
   </g>
   <g id="patch_165">
    <path clip-path="url(#p410af96fc3)" d="M 273.924985 288.430125 
L 274.952668 288.430125 
L 274.952668 260.534406 
L 273.924985 260.534406 
z
" style="fill:#1f77b4;"/>
   </g>
   <g id="patch_166">
    <path clip-path="url(#p410af96fc3)" d="M 275.209589 288.430125 
L 276.237272 288.430125 
L 276.237272 260.447353 
L 275.209589 260.447353 
z
" style="fill:#1f77b4;"/>
   </g>
   <g id="patch_167">
    <path clip-path="url(#p410af96fc3)" d="M 276.494193 288.430125 
L 277.521877 288.430125 
L 277.521877 260.39899 
L 276.494193 260.39899 
z
" style="fill:#1f77b4;"/>
   </g>
   <g id="patch_168">
    <path clip-path="url(#p410af96fc3)" d="M 277.778798 288.430125 
L 278.806481 288.430125 
L 278.806481 260.311937 
L 277.778798 260.311937 
z
" style="fill:#1f77b4;"/>
   </g>
   <g id="patch_169">
    <path clip-path="url(#p410af96fc3)" d="M 279.063402 288.430125 
L 280.091085 288.430125 
L 280.091085 260.234557 
L 279.063402 260.234557 
z
" style="fill:#1f77b4;"/>
   </g>
   <g id="patch_170">
    <path clip-path="url(#p410af96fc3)" d="M 280.348006 288.430125 
L 281.37569 288.430125 
L 281.37569 260.147503 
L 280.348006 260.147503 
z
" style="fill:#1f77b4;"/>
   </g>
   <g id="patch_171">
    <path clip-path="url(#p410af96fc3)" d="M 281.632611 288.430125 
L 282.660294 288.430125 
L 282.660294 260.070123 
L 281.632611 260.070123 
z
" style="fill:#1f77b4;"/>
   </g>
   <g id="patch_172">
    <path clip-path="url(#p410af96fc3)" d="M 282.917215 288.430125 
L 283.944898 288.430125 
L 283.944898 260.041105 
L 282.917215 260.041105 
z
" style="fill:#1f77b4;"/>
   </g>
   <g id="patch_173">
    <path clip-path="url(#p410af96fc3)" d="M 284.201819 288.430125 
L 285.229503 288.430125 
L 285.229503 259.915361 
L 284.201819 259.915361 
z
" style="fill:#1f77b4;"/>
   </g>
   <g id="patch_174">
    <path clip-path="url(#p410af96fc3)" d="M 285.486424 288.430125 
L 286.514107 288.430125 
L 286.514107 259.818636 
L 285.486424 259.818636 
z
" style="fill:#1f77b4;"/>
   </g>
   <g id="patch_175">
    <path clip-path="url(#p410af96fc3)" d="M 286.771028 288.430125 
L 287.798711 288.430125 
L 287.798711 259.779945 
L 286.771028 259.779945 
z
" style="fill:#1f77b4;"/>
   </g>
   <g id="patch_176">
    <path clip-path="url(#p410af96fc3)" d="M 288.055632 288.430125 
L 289.083316 288.430125 
L 289.083316 259.673547 
L 288.055632 259.673547 
z
" style="fill:#1f77b4;"/>
   </g>
   <g id="patch_177">
    <path clip-path="url(#p410af96fc3)" d="M 289.340237 288.430125 
L 290.36792 288.430125 
L 290.36792 259.451078 
L 289.340237 259.451078 
z
" style="fill:#1f77b4;"/>
   </g>
   <g id="patch_178">
    <path clip-path="url(#p410af96fc3)" d="M 290.624841 288.430125 
L 291.652524 288.430125 
L 291.652524 259.38337 
L 290.624841 259.38337 
z
" style="fill:#1f77b4;"/>
   </g>
   <g id="patch_179">
    <path clip-path="url(#p410af96fc3)" d="M 291.909445 288.430125 
L 292.937129 288.430125 
L 292.937129 259.38337 
L 291.909445 259.38337 
z
" style="fill:#1f77b4;"/>
   </g>
   <g id="patch_180">
    <path clip-path="url(#p410af96fc3)" d="M 293.194049 288.430125 
L 294.221733 288.430125 
L 294.221733 259.344679 
L 293.194049 259.344679 
z
" style="fill:#1f77b4;"/>
   </g>
   <g id="patch_181">
    <path clip-path="url(#p410af96fc3)" d="M 294.478654 288.430125 
L 295.506337 288.430125 
L 295.506337 259.247953 
L 294.478654 259.247953 
z
" style="fill:#1f77b4;"/>
   </g>
   <g id="patch_182">
    <path clip-path="url(#p410af96fc3)" d="M 295.763258 288.430125 
L 296.790942 288.430125 
L 296.790942 259.054502 
L 295.763258 259.054502 
z
" style="fill:#1f77b4;"/>
   </g>
   <g id="patch_183">
    <path clip-path="url(#p410af96fc3)" d="M 297.047862 288.430125 
L 298.075546 288.430125 
L 298.075546 258.803015 
L 297.047862 258.803015 
z
" style="fill:#1f77b4;"/>
   </g>
   <g id="patch_184">
    <path clip-path="url(#p410af96fc3)" d="M 298.332467 288.430125 
L 299.36015 288.430125 
L 299.36015 258.5612 
L 298.332467 258.5612 
z
" style="fill:#1f77b4;"/>
   </g>
   <g id="patch_185">
    <path clip-path="url(#p410af96fc3)" d="M 299.617071 288.430125 
L 300.644754 288.430125 
L 300.644754 258.174297 
L 299.617071 258.174297 
z
" style="fill:#1f77b4;"/>
   </g>
   <g id="patch_186">
    <path clip-path="url(#p410af96fc3)" d="M 300.901675 288.430125 
L 301.929359 288.430125 
L 301.929359 258.106589 
L 300.901675 258.106589 
z
" style="fill:#1f77b4;"/>
   </g>
   <g id="patch_187">
    <path clip-path="url(#p410af96fc3)" d="M 302.18628 288.430125 
L 303.213963 288.430125 
L 303.213963 257.903465 
L 302.18628 257.903465 
z
" style="fill:#1f77b4;"/>
   </g>
   <g id="patch_188">
    <path clip-path="url(#p410af96fc3)" d="M 303.470884 288.430125 
L 304.498567 288.430125 
L 304.498567 257.787394 
L 303.470884 257.787394 
z
" style="fill:#1f77b4;"/>
   </g>
   <g id="patch_189">
    <path clip-path="url(#p410af96fc3)" d="M 304.755488 288.430125 
L 305.783172 288.430125 
L 305.783172 257.642305 
L 304.755488 257.642305 
z
" style="fill:#1f77b4;"/>
   </g>
   <g id="patch_190">
    <path clip-path="url(#p410af96fc3)" d="M 306.040093 288.430125 
L 307.067776 288.430125 
L 307.067776 256.94588 
L 306.040093 256.94588 
z
" style="fill:#1f77b4;"/>
   </g>
   <g id="patch_191">
    <path clip-path="url(#p410af96fc3)" d="M 307.324697 288.430125 
L 308.35238 288.430125 
L 308.35238 256.694393 
L 307.324697 256.694393 
z
" style="fill:#1f77b4;"/>
   </g>
   <g id="patch_192">
    <path clip-path="url(#p410af96fc3)" d="M 308.609301 288.430125 
L 309.636985 288.430125 
L 309.636985 256.500941 
L 308.609301 256.500941 
z
" style="fill:#1f77b4;"/>
   </g>
   <g id="patch_193">
    <path clip-path="url(#p410af96fc3)" d="M 309.893906 288.430125 
L 310.921589 288.430125 
L 310.921589 256.307489 
L 309.893906 256.307489 
z
" style="fill:#1f77b4;"/>
   </g>
   <g id="patch_194">
    <path clip-path="url(#p410af96fc3)" d="M 311.17851 288.430125 
L 312.206193 288.430125 
L 312.206193 256.230109 
L 311.17851 256.230109 
z
" style="fill:#1f77b4;"/>
   </g>
   <g id="patch_195">
    <path clip-path="url(#p410af96fc3)" d="M 312.463114 288.430125 
L 313.490798 288.430125 
L 313.490798 255.939931 
L 312.463114 255.939931 
z
" style="fill:#1f77b4;"/>
   </g>
   <g id="patch_196">
    <path clip-path="url(#p410af96fc3)" d="M 313.747719 288.430125 
L 314.775402 288.430125 
L 314.775402 255.678772 
L 313.747719 255.678772 
z
" style="fill:#1f77b4;"/>
   </g>
   <g id="patch_197">
    <path clip-path="url(#p410af96fc3)" d="M 315.032323 288.430125 
L 316.060006 288.430125 
L 316.060006 255.175798 
L 315.032323 255.175798 
z
" style="fill:#1f77b4;"/>
   </g>
   <g id="patch_198">
    <path clip-path="url(#p410af96fc3)" d="M 316.316927 288.430125 
L 317.344611 288.430125 
L 317.344611 254.895293 
L 316.316927 254.895293 
z
" style="fill:#1f77b4;"/>
   </g>
   <g id="patch_199">
    <path clip-path="url(#p410af96fc3)" d="M 317.601531 288.430125 
L 318.629215 288.430125 
L 318.629215 254.682496 
L 317.601531 254.682496 
z
" style="fill:#1f77b4;"/>
   </g>
   <g id="patch_200">
    <path clip-path="url(#p410af96fc3)" d="M 318.886136 288.430125 
L 319.913819 288.430125 
L 319.913819 254.440682 
L 318.886136 254.440682 
z
" style="fill:#1f77b4;"/>
   </g>
   <g id="patch_201">
    <path clip-path="url(#p410af96fc3)" d="M 320.17074 288.430125 
L 321.198424 288.430125 
L 321.198424 254.363301 
L 320.17074 254.363301 
z
" style="fill:#1f77b4;"/>
   </g>
   <g id="patch_202">
    <path clip-path="url(#p410af96fc3)" d="M 321.455344 288.430125 
L 322.483028 288.430125 
L 322.483028 254.198867 
L 321.455344 254.198867 
z
" style="fill:#1f77b4;"/>
   </g>
   <g id="patch_203">
    <path clip-path="url(#p410af96fc3)" d="M 322.739949 288.430125 
L 323.767632 288.430125 
L 323.767632 253.918362 
L 322.739949 253.918362 
z
" style="fill:#1f77b4;"/>
   </g>
   <g id="patch_204">
    <path clip-path="url(#p410af96fc3)" d="M 324.024553 288.430125 
L 325.052237 288.430125 
L 325.052237 253.734583 
L 324.024553 253.734583 
z
" style="fill:#1f77b4;"/>
   </g>
   <g id="patch_205">
    <path clip-path="url(#p410af96fc3)" d="M 325.309157 288.430125 
L 326.336841 288.430125 
L 326.336841 253.483096 
L 325.309157 253.483096 
z
" style="fill:#1f77b4;"/>
   </g>
   <g id="patch_206">
    <path clip-path="url(#p410af96fc3)" d="M 326.593762 288.430125 
L 327.621445 288.430125 
L 327.621445 253.173574 
L 326.593762 253.173574 
z
" style="fill:#1f77b4;"/>
   </g>
   <g id="patch_207">
    <path clip-path="url(#p410af96fc3)" d="M 327.878366 288.430125 
L 328.906049 288.430125 
L 328.906049 253.00914 
L 327.878366 253.00914 
z
" style="fill:#1f77b4;"/>
   </g>
   <g id="patch_208">
    <path clip-path="url(#p410af96fc3)" d="M 329.16297 288.430125 
L 330.190654 288.430125 
L 330.190654 252.844706 
L 329.16297 252.844706 
z
" style="fill:#1f77b4;"/>
   </g>
   <g id="patch_209">
    <path clip-path="url(#p410af96fc3)" d="M 330.447575 288.430125 
L 331.475258 288.430125 
L 331.475258 252.312714 
L 330.447575 252.312714 
z
" style="fill:#1f77b4;"/>
   </g>
   <g id="patch_210">
    <path clip-path="url(#p410af96fc3)" d="M 331.732179 288.430125 
L 332.759862 288.430125 
L 332.759862 251.645306 
L 331.732179 251.645306 
z
" style="fill:#1f77b4;"/>
   </g>
   <g id="patch_211">
    <path clip-path="url(#p410af96fc3)" d="M 333.016783 288.430125 
L 334.044467 288.430125 
L 334.044467 250.823137 
L 333.016783 250.823137 
z
" style="fill:#1f77b4;"/>
   </g>
   <g id="patch_212">
    <path clip-path="url(#p410af96fc3)" d="M 334.301388 288.430125 
L 335.329071 288.430125 
L 335.329071 249.93326 
L 334.301388 249.93326 
z
" style="fill:#1f77b4;"/>
   </g>
   <g id="patch_213">
    <path clip-path="url(#p410af96fc3)" d="M 335.585992 288.430125 
L 336.613675 288.430125 
L 336.613675 249.120763 
L 335.585992 249.120763 
z
" style="fill:#1f77b4;"/>
   </g>
   <g id="patch_214">
    <path clip-path="url(#p410af96fc3)" d="M 336.870596 288.430125 
L 337.89828 288.430125 
L 337.89828 248.685497 
L 336.870596 248.685497 
z
" style="fill:#1f77b4;"/>
   </g>
   <g id="patch_215">
    <path clip-path="url(#p410af96fc3)" d="M 338.155201 288.430125 
L 339.182884 288.430125 
L 339.182884 248.356629 
L 338.155201 248.356629 
z
" style="fill:#1f77b4;"/>
   </g>
   <g id="patch_216">
    <path clip-path="url(#p410af96fc3)" d="M 339.439805 288.430125 
L 340.467488 288.430125 
L 340.467488 247.157229 
L 339.439805 247.157229 
z
" style="fill:#1f77b4;"/>
   </g>
   <g id="patch_217">
    <path clip-path="url(#p410af96fc3)" d="M 340.724409 288.430125 
L 341.752093 288.430125 
L 341.752093 246.209317 
L 340.724409 246.209317 
z
" style="fill:#1f77b4;"/>
   </g>
   <g id="patch_218">
    <path clip-path="url(#p410af96fc3)" d="M 342.009013 288.430125 
L 343.036697 288.430125 
L 343.036697 244.971226 
L 342.009013 244.971226 
z
" style="fill:#1f77b4;"/>
   </g>
   <g id="patch_219">
    <path clip-path="url(#p410af96fc3)" d="M 343.293618 288.430125 
L 344.321301 288.430125 
L 344.321301 243.471977 
L 343.293618 243.471977 
z
" style="fill:#1f77b4;"/>
   </g>
   <g id="patch_220">
    <path clip-path="url(#p410af96fc3)" d="M 344.578222 288.430125 
L 345.605906 288.430125 
L 345.605906 241.817966 
L 344.578222 241.817966 
z
" style="fill:#1f77b4;"/>
   </g>
   <g id="patch_221">
    <path clip-path="url(#p410af96fc3)" d="M 345.862826 288.430125 
L 346.89051 288.430125 
L 346.89051 240.995796 
L 345.862826 240.995796 
z
" style="fill:#1f77b4;"/>
   </g>
   <g id="patch_222">
    <path clip-path="url(#p410af96fc3)" d="M 347.147431 288.430125 
L 348.175114 288.430125 
L 348.175114 238.974227 
L 347.147431 238.974227 
z
" style="fill:#1f77b4;"/>
   </g>
   <g id="patch_223">
    <path clip-path="url(#p410af96fc3)" d="M 348.432035 288.430125 
L 349.459719 288.430125 
L 349.459719 237.14611 
L 348.432035 237.14611 
z
" style="fill:#1f77b4;"/>
   </g>
   <g id="patch_224">
    <path clip-path="url(#p410af96fc3)" d="M 349.716639 288.430125 
L 350.744323 288.430125 
L 350.744323 234.756983 
L 349.716639 234.756983 
z
" style="fill:#1f77b4;"/>
   </g>
   <g id="patch_225">
    <path clip-path="url(#p410af96fc3)" d="M 351.001244 288.430125 
L 352.028927 288.430125 
L 352.028927 232.155059 
L 351.001244 232.155059 
z
" style="fill:#1f77b4;"/>
   </g>
   <g id="patch_226">
    <path clip-path="url(#p410af96fc3)" d="M 352.285848 288.430125 
L 353.313531 288.430125 
L 353.313531 229.475755 
L 352.285848 229.475755 
z
" style="fill:#1f77b4;"/>
   </g>
   <g id="patch_227">
    <path clip-path="url(#p410af96fc3)" d="M 353.570452 288.430125 
L 354.598136 288.430125 
L 354.598136 226.19675 
L 353.570452 226.19675 
z
" style="fill:#1f77b4;"/>
   </g>
   <g id="patch_228">
    <path clip-path="url(#p410af96fc3)" d="M 354.855057 288.430125 
L 355.88274 288.430125 
L 355.88274 223.091852 
L 354.855057 223.091852 
z
" style="fill:#1f77b4;"/>
   </g>
   <g id="patch_229">
    <path clip-path="url(#p410af96fc3)" d="M 356.139661 288.430125 
L 357.167344 288.430125 
L 357.167344 220.751088 
L 356.139661 220.751088 
z
" style="fill:#1f77b4;"/>
   </g>
   <g id="patch_230">
    <path clip-path="url(#p410af96fc3)" d="M 357.424265 288.430125 
L 358.451949 288.430125 
L 358.451949 218.913298 
L 357.424265 218.913298 
z
" style="fill:#1f77b4;"/>
   </g>
   <g id="patch_231">
    <path clip-path="url(#p410af96fc3)" d="M 358.70887 288.430125 
L 359.736553 288.430125 
L 359.736553 216.030869 
L 358.70887 216.030869 
z
" style="fill:#1f77b4;"/>
   </g>
   <g id="patch_232">
    <path clip-path="url(#p410af96fc3)" d="M 359.993474 288.430125 
L 361.021157 288.430125 
L 361.021157 212.645467 
L 359.993474 212.645467 
z
" style="fill:#1f77b4;"/>
   </g>
   <g id="patch_233">
    <path clip-path="url(#p410af96fc3)" d="M 361.278078 288.430125 
L 362.305762 288.430125 
L 362.305762 207.354566 
L 361.278078 207.354566 
z
" style="fill:#1f77b4;"/>
   </g>
   <g id="patch_234">
    <path clip-path="url(#p410af96fc3)" d="M 362.562683 288.430125 
L 363.590366 288.430125 
L 363.590366 202.189409 
L 362.562683 202.189409 
z
" style="fill:#1f77b4;"/>
   </g>
   <g id="patch_235">
    <path clip-path="url(#p410af96fc3)" d="M 363.847287 288.430125 
L 364.87497 288.430125 
L 364.87497 197.962491 
L 363.847287 197.962491 
z
" style="fill:#1f77b4;"/>
   </g>
   <g id="patch_236">
    <path clip-path="url(#p410af96fc3)" d="M 365.131891 288.430125 
L 366.159575 288.430125 
L 366.159575 193.174565 
L 365.131891 193.174565 
z
" style="fill:#1f77b4;"/>
   </g>
   <g id="patch_237">
    <path clip-path="url(#p410af96fc3)" d="M 366.416496 288.430125 
L 367.444179 288.430125 
L 367.444179 190.766092 
L 366.416496 190.766092 
z
" style="fill:#1f77b4;"/>
   </g>
   <g id="patch_238">
    <path clip-path="url(#p410af96fc3)" d="M 367.7011 288.430125 
L 368.728783 288.430125 
L 368.728783 183.395587 
L 367.7011 183.395587 
z
" style="fill:#1f77b4;"/>
   </g>
   <g id="patch_239">
    <path clip-path="url(#p410af96fc3)" d="M 368.985704 288.430125 
L 370.013388 288.430125 
L 370.013388 176.508711 
L 368.985704 176.508711 
z
" style="fill:#1f77b4;"/>
   </g>
   <g id="patch_240">
    <path clip-path="url(#p410af96fc3)" d="M 370.270308 288.430125 
L 371.297992 288.430125 
L 371.297992 169.022134 
L 370.270308 169.022134 
z
" style="fill:#1f77b4;"/>
   </g>
   <g id="patch_241">
    <path clip-path="url(#p410af96fc3)" d="M 371.554913 288.430125 
L 372.582596 288.430125 
L 372.582596 161.46785 
L 371.554913 161.46785 
z
" style="fill:#1f77b4;"/>
   </g>
   <g id="patch_242">
    <path clip-path="url(#p410af96fc3)" d="M 372.839517 288.430125 
L 373.867201 288.430125 
L 373.867201 155.828736 
L 372.839517 155.828736 
z
" style="fill:#1f77b4;"/>
   </g>
   <g id="patch_243">
    <path clip-path="url(#p410af96fc3)" d="M 374.124121 288.430125 
L 375.151805 288.430125 
L 375.151805 152.201519 
L 374.124121 152.201519 
z
" style="fill:#1f77b4;"/>
   </g>
   <g id="patch_244">
    <path clip-path="url(#p410af96fc3)" d="M 375.408726 288.430125 
L 376.436409 288.430125 
L 376.436409 148.467903 
L 375.408726 148.467903 
z
" style="fill:#1f77b4;"/>
   </g>
   <g id="patch_245">
    <path clip-path="url(#p410af96fc3)" d="M 376.69333 288.430125 
L 377.721013 288.430125 
L 377.721013 141.755133 
L 376.69333 141.755133 
z
" style="fill:#1f77b4;"/>
   </g>
   <g id="patch_246">
    <path clip-path="url(#p410af96fc3)" d="M 377.977934 288.430125 
L 379.005618 288.430125 
L 379.005618 133.823618 
L 377.977934 133.823618 
z
" style="fill:#1f77b4;"/>
   </g>
   <g id="patch_247">
    <path clip-path="url(#p410af96fc3)" d="M 379.262539 288.430125 
L 380.290222 288.430125 
L 380.290222 127.149539 
L 379.262539 127.149539 
z
" style="fill:#1f77b4;"/>
   </g>
   <g id="patch_248">
    <path clip-path="url(#p410af96fc3)" d="M 380.547143 288.430125 
L 381.574826 288.430125 
L 381.574826 121.075159 
L 380.547143 121.075159 
z
" style="fill:#1f77b4;"/>
   </g>
   <g id="patch_249">
    <path clip-path="url(#p410af96fc3)" d="M 381.831747 288.430125 
L 382.859431 288.430125 
L 382.859431 115.813276 
L 381.831747 115.813276 
z
" style="fill:#1f77b4;"/>
   </g>
   <g id="patch_250">
    <path clip-path="url(#p410af96fc3)" d="M 383.116352 288.430125 
L 384.144035 288.430125 
L 384.144035 113.31775 
L 383.116352 113.31775 
z
" style="fill:#1f77b4;"/>
   </g>
   <g id="patch_251">
    <path clip-path="url(#p410af96fc3)" d="M 384.400956 288.430125 
L 385.428639 288.430125 
L 385.428639 107.697982 
L 384.400956 107.697982 
z
" style="fill:#1f77b4;"/>
   </g>
   <g id="patch_252">
    <path clip-path="url(#p410af96fc3)" d="M 385.68556 288.430125 
L 386.713244 288.430125 
L 386.713244 100.965867 
L 385.68556 100.965867 
z
" style="fill:#1f77b4;"/>
   </g>
   <g id="patch_253">
    <path clip-path="url(#p410af96fc3)" d="M 386.970165 288.430125 
L 387.997848 288.430125 
L 387.997848 93.846848 
L 386.970165 93.846848 
z
" style="fill:#1f77b4;"/>
   </g>
   <g id="patch_254">
    <path clip-path="url(#p410af96fc3)" d="M 388.254769 288.430125 
L 389.282452 288.430125 
L 389.282452 88.546275 
L 388.254769 88.546275 
z
" style="fill:#1f77b4;"/>
   </g>
   <g id="patch_255">
    <path clip-path="url(#p410af96fc3)" d="M 389.539373 288.430125 
L 390.567057 288.430125 
L 390.567057 83.371445 
L 389.539373 83.371445 
z
" style="fill:#1f77b4;"/>
   </g>
   <g id="patch_256">
    <path clip-path="url(#p410af96fc3)" d="M 390.823978 288.430125 
L 391.851661 288.430125 
L 391.851661 80.856575 
L 390.823978 80.856575 
z
" style="fill:#1f77b4;"/>
   </g>
   <g id="patch_257">
    <path clip-path="url(#p410af96fc3)" d="M 392.108582 288.430125 
L 393.136265 288.430125 
L 393.136265 79.308962 
L 392.108582 79.308962 
z
" style="fill:#1f77b4;"/>
   </g>
   <g id="patch_258">
    <path clip-path="url(#p410af96fc3)" d="M 393.393186 288.430125 
L 394.42087 288.430125 
L 394.42087 76.010612 
L 393.393186 76.010612 
z
" style="fill:#1f77b4;"/>
   </g>
   <g id="patch_259">
    <path clip-path="url(#p410af96fc3)" d="M 394.67779 288.430125 
L 395.705474 288.430125 
L 395.705474 73.186219 
L 394.67779 73.186219 
z
" style="fill:#1f77b4;"/>
   </g>
   <g id="patch_260">
    <path clip-path="url(#p410af96fc3)" d="M 395.962395 288.430125 
L 396.990078 288.430125 
L 396.990078 69.220462 
L 395.962395 69.220462 
z
" style="fill:#1f77b4;"/>
   </g>
   <g id="patch_261">
    <path clip-path="url(#p410af96fc3)" d="M 397.246999 288.430125 
L 398.274683 288.430125 
L 398.274683 64.442208 
L 397.246999 64.442208 
z
" style="fill:#1f77b4;"/>
   </g>
   <g id="patch_262">
    <path clip-path="url(#p410af96fc3)" d="M 398.531603 288.430125 
L 399.559287 288.430125 
L 399.559287 60.21529 
L 398.531603 60.21529 
z
" style="fill:#1f77b4;"/>
   </g>
   <g id="patch_263">
    <path clip-path="url(#p410af96fc3)" d="M 399.816208 288.430125 
L 400.843891 288.430125 
L 400.843891 58.445208 
L 399.816208 58.445208 
z
" style="fill:#1f77b4;"/>
   </g>
   <g id="patch_264">
    <path clip-path="url(#p410af96fc3)" d="M 401.100812 288.430125 
L 402.128496 288.430125 
L 402.128496 57.535986 
L 401.100812 57.535986 
z
" style="fill:#1f77b4;"/>
   </g>
   <g id="patch_265">
    <path clip-path="url(#p410af96fc3)" d="M 402.385416 288.430125 
L 403.4131 288.430125 
L 403.4131 54.469778 
L 402.385416 54.469778 
z
" style="fill:#1f77b4;"/>
   </g>
   <g id="patch_266">
    <path clip-path="url(#p410af96fc3)" d="M 403.670021 288.430125 
L 404.697704 288.430125 
L 404.697704 50.852234 
L 403.670021 50.852234 
z
" style="fill:#1f77b4;"/>
   </g>
   <g id="patch_267">
    <path clip-path="url(#p410af96fc3)" d="M 404.954625 288.430125 
L 405.982308 288.430125 
L 405.982308 48.095549 
L 404.954625 48.095549 
z
" style="fill:#1f77b4;"/>
   </g>
   <g id="patch_268">
    <path clip-path="url(#p410af96fc3)" d="M 406.239229 288.430125 
L 407.266913 288.430125 
L 407.266913 45.522643 
L 406.239229 45.522643 
z
" style="fill:#1f77b4;"/>
   </g>
   <g id="patch_269">
    <path clip-path="url(#p410af96fc3)" d="M 407.523834 288.430125 
L 408.551517 288.430125 
L 408.551517 43.123843 
L 407.523834 43.123843 
z
" style="fill:#1f77b4;"/>
   </g>
   <g id="patch_270">
    <path clip-path="url(#p410af96fc3)" d="M 408.808438 288.430125 
L 409.836121 288.430125 
L 409.836121 42.011496 
L 408.808438 42.011496 
z
" style="fill:#1f77b4;"/>
   </g>
   <g id="patch_271">
    <path clip-path="url(#p410af96fc3)" d="M 410.093042 288.430125 
L 411.120726 288.430125 
L 411.120726 41.247363 
L 410.093042 41.247363 
z
" style="fill:#1f77b4;"/>
   </g>
   <g id="patch_272">
    <path clip-path="url(#p410af96fc3)" d="M 411.377647 288.430125 
L 412.40533 288.430125 
L 412.40533 39.003324 
L 411.377647 39.003324 
z
" style="fill:#1f77b4;"/>
   </g>
   <g id="patch_273">
    <path clip-path="url(#p410af96fc3)" d="M 412.662251 288.430125 
L 413.689934 288.430125 
L 413.689934 36.643215 
L 412.662251 36.643215 
z
" style="fill:#1f77b4;"/>
   </g>
   <g id="patch_274">
    <path clip-path="url(#p410af96fc3)" d="M 413.946855 288.430125 
L 414.974539 288.430125 
L 414.974539 34.205725 
L 413.946855 34.205725 
z
" style="fill:#1f77b4;"/>
   </g>
   <g id="patch_275">
    <path clip-path="url(#p410af96fc3)" d="M 415.23146 288.430125 
L 416.259143 288.430125 
L 416.259143 31.78758 
L 415.23146 31.78758 
z
" style="fill:#1f77b4;"/>
   </g>
   <g id="patch_276">
    <path clip-path="url(#p410af96fc3)" d="M 416.516064 288.430125 
L 417.543747 288.430125 
L 417.543747 29.359763 
L 416.516064 29.359763 
z
" style="fill:#1f77b4;"/>
   </g>
   <g id="patch_277">
    <path clip-path="url(#p410af96fc3)" d="M 417.800668 288.430125 
L 418.828352 288.430125 
L 418.828352 28.7117 
L 417.800668 28.7117 
z
" style="fill:#1f77b4;"/>
   </g>
   <g id="patch_278">
    <path clip-path="url(#p410af96fc3)" d="M 419.085272 288.430125 
L 420.112956 288.430125 
L 420.112956 27.85084 
L 419.085272 27.85084 
z
" style="fill:#1f77b4;"/>
   </g>
   <g id="patch_279">
    <path clip-path="url(#p410af96fc3)" d="M 420.369877 288.430125 
L 421.39756 288.430125 
L 421.39756 25.094155 
L 420.369877 25.094155 
z
" style="fill:#1f77b4;"/>
   </g>
   <g id="patch_280">
    <path clip-path="url(#p410af96fc3)" d="M 421.654481 288.430125 
L 422.682165 288.430125 
L 422.682165 22.318125 
L 421.654481 22.318125 
z
" style="fill:#1f77b4;"/>
   </g>
   <g id="matplotlib.axis_1">
    <g id="xtick_1">
     <g id="line2d_1">
      <defs>
       <path d="M 0 0 
L 0 3.5 
" id="m7170bd3822" style="stroke:#000000;stroke-width:0.8;"/>
      </defs>
      <g>
       <use style="stroke:#000000;stroke-width:0.8;" x="88.171201" xlink:href="#m7170bd3822" y="288.430125"/>
      </g>
     </g>
     <g id="text_1">
      <!-- 2020-04 -->
      <g transform="translate(90.930576 337.212937)rotate(-90)scale(0.1 -0.1)">
       <defs>
        <path d="M 19.1875 8.296875 
L 53.609375 8.296875 
L 53.609375 0 
L 7.328125 0 
L 7.328125 8.296875 
Q 12.9375 14.109375 22.625 23.890625 
Q 32.328125 33.6875 34.8125 36.53125 
Q 39.546875 41.84375 41.421875 45.53125 
Q 43.3125 49.21875 43.3125 52.78125 
Q 43.3125 58.59375 39.234375 62.25 
Q 35.15625 65.921875 28.609375 65.921875 
Q 23.96875 65.921875 18.8125 64.3125 
Q 13.671875 62.703125 7.8125 59.421875 
L 7.8125 69.390625 
Q 13.765625 71.78125 18.9375 73 
Q 24.125 74.21875 28.421875 74.21875 
Q 39.75 74.21875 46.484375 68.546875 
Q 53.21875 62.890625 53.21875 53.421875 
Q 53.21875 48.921875 51.53125 44.890625 
Q 49.859375 40.875 45.40625 35.40625 
Q 44.1875 33.984375 37.640625 27.21875 
Q 31.109375 20.453125 19.1875 8.296875 
z
" id="DejaVuSans-50"/>
        <path d="M 31.78125 66.40625 
Q 24.171875 66.40625 20.328125 58.90625 
Q 16.5 51.421875 16.5 36.375 
Q 16.5 21.390625 20.328125 13.890625 
Q 24.171875 6.390625 31.78125 6.390625 
Q 39.453125 6.390625 43.28125 13.890625 
Q 47.125 21.390625 47.125 36.375 
Q 47.125 51.421875 43.28125 58.90625 
Q 39.453125 66.40625 31.78125 66.40625 
z
M 31.78125 74.21875 
Q 44.046875 74.21875 50.515625 64.515625 
Q 56.984375 54.828125 56.984375 36.375 
Q 56.984375 17.96875 50.515625 8.265625 
Q 44.046875 -1.421875 31.78125 -1.421875 
Q 19.53125 -1.421875 13.0625 8.265625 
Q 6.59375 17.96875 6.59375 36.375 
Q 6.59375 54.828125 13.0625 64.515625 
Q 19.53125 74.21875 31.78125 74.21875 
z
" id="DejaVuSans-48"/>
        <path d="M 4.890625 31.390625 
L 31.203125 31.390625 
L 31.203125 23.390625 
L 4.890625 23.390625 
z
" id="DejaVuSans-45"/>
        <path d="M 37.796875 64.3125 
L 12.890625 25.390625 
L 37.796875 25.390625 
z
M 35.203125 72.90625 
L 47.609375 72.90625 
L 47.609375 25.390625 
L 58.015625 25.390625 
L 58.015625 17.1875 
L 47.609375 17.1875 
L 47.609375 0 
L 37.796875 0 
L 37.796875 17.1875 
L 4.890625 17.1875 
L 4.890625 26.703125 
z
" id="DejaVuSans-52"/>
       </defs>
       <use xlink:href="#DejaVuSans-50"/>
       <use x="63.623047" xlink:href="#DejaVuSans-48"/>
       <use x="127.246094" xlink:href="#DejaVuSans-50"/>
       <use x="190.869141" xlink:href="#DejaVuSans-48"/>
       <use x="254.492188" xlink:href="#DejaVuSans-45"/>
       <use x="290.576172" xlink:href="#DejaVuSans-48"/>
       <use x="354.199219" xlink:href="#DejaVuSans-52"/>
      </g>
     </g>
    </g>
    <g id="xtick_2">
     <g id="line2d_2">
      <g>
       <use style="stroke:#000000;stroke-width:0.8;" x="126.70933" xlink:href="#m7170bd3822" y="288.430125"/>
      </g>
     </g>
     <g id="text_2">
      <!-- 2020-05 -->
      <g transform="translate(129.468705 337.212937)rotate(-90)scale(0.1 -0.1)">
       <defs>
        <path d="M 10.796875 72.90625 
L 49.515625 72.90625 
L 49.515625 64.59375 
L 19.828125 64.59375 
L 19.828125 46.734375 
Q 21.96875 47.46875 24.109375 47.828125 
Q 26.265625 48.1875 28.421875 48.1875 
Q 40.625 48.1875 47.75 41.5 
Q 54.890625 34.8125 54.890625 23.390625 
Q 54.890625 11.625 47.5625 5.09375 
Q 40.234375 -1.421875 26.90625 -1.421875 
Q 22.3125 -1.421875 17.546875 -0.640625 
Q 12.796875 0.140625 7.71875 1.703125 
L 7.71875 11.625 
Q 12.109375 9.234375 16.796875 8.0625 
Q 21.484375 6.890625 26.703125 6.890625 
Q 35.15625 6.890625 40.078125 11.328125 
Q 45.015625 15.765625 45.015625 23.390625 
Q 45.015625 31 40.078125 35.4375 
Q 35.15625 39.890625 26.703125 39.890625 
Q 22.75 39.890625 18.8125 39.015625 
Q 14.890625 38.140625 10.796875 36.28125 
z
" id="DejaVuSans-53"/>
       </defs>
       <use xlink:href="#DejaVuSans-50"/>
       <use x="63.623047" xlink:href="#DejaVuSans-48"/>
       <use x="127.246094" xlink:href="#DejaVuSans-50"/>
       <use x="190.869141" xlink:href="#DejaVuSans-48"/>
       <use x="254.492188" xlink:href="#DejaVuSans-45"/>
       <use x="290.576172" xlink:href="#DejaVuSans-48"/>
       <use x="354.199219" xlink:href="#DejaVuSans-53"/>
      </g>
     </g>
    </g>
    <g id="xtick_3">
     <g id="line2d_3">
      <g>
       <use style="stroke:#000000;stroke-width:0.8;" x="166.532064" xlink:href="#m7170bd3822" y="288.430125"/>
      </g>
     </g>
     <g id="text_3">
      <!-- 2020-06 -->
      <g transform="translate(169.291439 337.212937)rotate(-90)scale(0.1 -0.1)">
       <defs>
        <path d="M 33.015625 40.375 
Q 26.375 40.375 22.484375 35.828125 
Q 18.609375 31.296875 18.609375 23.390625 
Q 18.609375 15.53125 22.484375 10.953125 
Q 26.375 6.390625 33.015625 6.390625 
Q 39.65625 6.390625 43.53125 10.953125 
Q 47.40625 15.53125 47.40625 23.390625 
Q 47.40625 31.296875 43.53125 35.828125 
Q 39.65625 40.375 33.015625 40.375 
z
M 52.59375 71.296875 
L 52.59375 62.3125 
Q 48.875 64.0625 45.09375 64.984375 
Q 41.3125 65.921875 37.59375 65.921875 
Q 27.828125 65.921875 22.671875 59.328125 
Q 17.53125 52.734375 16.796875 39.40625 
Q 19.671875 43.65625 24.015625 45.921875 
Q 28.375 48.1875 33.59375 48.1875 
Q 44.578125 48.1875 50.953125 41.515625 
Q 57.328125 34.859375 57.328125 23.390625 
Q 57.328125 12.15625 50.6875 5.359375 
Q 44.046875 -1.421875 33.015625 -1.421875 
Q 20.359375 -1.421875 13.671875 8.265625 
Q 6.984375 17.96875 6.984375 36.375 
Q 6.984375 53.65625 15.1875 63.9375 
Q 23.390625 74.21875 37.203125 74.21875 
Q 40.921875 74.21875 44.703125 73.484375 
Q 48.484375 72.75 52.59375 71.296875 
z
" id="DejaVuSans-54"/>
       </defs>
       <use xlink:href="#DejaVuSans-50"/>
       <use x="63.623047" xlink:href="#DejaVuSans-48"/>
       <use x="127.246094" xlink:href="#DejaVuSans-50"/>
       <use x="190.869141" xlink:href="#DejaVuSans-48"/>
       <use x="254.492188" xlink:href="#DejaVuSans-45"/>
       <use x="290.576172" xlink:href="#DejaVuSans-48"/>
       <use x="354.199219" xlink:href="#DejaVuSans-54"/>
      </g>
     </g>
    </g>
    <g id="xtick_4">
     <g id="line2d_4">
      <g>
       <use style="stroke:#000000;stroke-width:0.8;" x="205.070193" xlink:href="#m7170bd3822" y="288.430125"/>
      </g>
     </g>
     <g id="text_4">
      <!-- 2020-07 -->
      <g transform="translate(207.829568 337.212937)rotate(-90)scale(0.1 -0.1)">
       <defs>
        <path d="M 8.203125 72.90625 
L 55.078125 72.90625 
L 55.078125 68.703125 
L 28.609375 0 
L 18.3125 0 
L 43.21875 64.59375 
L 8.203125 64.59375 
z
" id="DejaVuSans-55"/>
       </defs>
       <use xlink:href="#DejaVuSans-50"/>
       <use x="63.623047" xlink:href="#DejaVuSans-48"/>
       <use x="127.246094" xlink:href="#DejaVuSans-50"/>
       <use x="190.869141" xlink:href="#DejaVuSans-48"/>
       <use x="254.492188" xlink:href="#DejaVuSans-45"/>
       <use x="290.576172" xlink:href="#DejaVuSans-48"/>
       <use x="354.199219" xlink:href="#DejaVuSans-55"/>
      </g>
     </g>
    </g>
    <g id="xtick_5">
     <g id="line2d_5">
      <g>
       <use style="stroke:#000000;stroke-width:0.8;" x="244.892927" xlink:href="#m7170bd3822" y="288.430125"/>
      </g>
     </g>
     <g id="text_5">
      <!-- 2020-08 -->
      <g transform="translate(247.652302 337.212937)rotate(-90)scale(0.1 -0.1)">
       <defs>
        <path d="M 31.78125 34.625 
Q 24.75 34.625 20.71875 30.859375 
Q 16.703125 27.09375 16.703125 20.515625 
Q 16.703125 13.921875 20.71875 10.15625 
Q 24.75 6.390625 31.78125 6.390625 
Q 38.8125 6.390625 42.859375 10.171875 
Q 46.921875 13.96875 46.921875 20.515625 
Q 46.921875 27.09375 42.890625 30.859375 
Q 38.875 34.625 31.78125 34.625 
z
M 21.921875 38.8125 
Q 15.578125 40.375 12.03125 44.71875 
Q 8.5 49.078125 8.5 55.328125 
Q 8.5 64.0625 14.71875 69.140625 
Q 20.953125 74.21875 31.78125 74.21875 
Q 42.671875 74.21875 48.875 69.140625 
Q 55.078125 64.0625 55.078125 55.328125 
Q 55.078125 49.078125 51.53125 44.71875 
Q 48 40.375 41.703125 38.8125 
Q 48.828125 37.15625 52.796875 32.3125 
Q 56.78125 27.484375 56.78125 20.515625 
Q 56.78125 9.90625 50.3125 4.234375 
Q 43.84375 -1.421875 31.78125 -1.421875 
Q 19.734375 -1.421875 13.25 4.234375 
Q 6.78125 9.90625 6.78125 20.515625 
Q 6.78125 27.484375 10.78125 32.3125 
Q 14.796875 37.15625 21.921875 38.8125 
z
M 18.3125 54.390625 
Q 18.3125 48.734375 21.84375 45.5625 
Q 25.390625 42.390625 31.78125 42.390625 
Q 38.140625 42.390625 41.71875 45.5625 
Q 45.3125 48.734375 45.3125 54.390625 
Q 45.3125 60.0625 41.71875 63.234375 
Q 38.140625 66.40625 31.78125 66.40625 
Q 25.390625 66.40625 21.84375 63.234375 
Q 18.3125 60.0625 18.3125 54.390625 
z
" id="DejaVuSans-56"/>
       </defs>
       <use xlink:href="#DejaVuSans-50"/>
       <use x="63.623047" xlink:href="#DejaVuSans-48"/>
       <use x="127.246094" xlink:href="#DejaVuSans-50"/>
       <use x="190.869141" xlink:href="#DejaVuSans-48"/>
       <use x="254.492188" xlink:href="#DejaVuSans-45"/>
       <use x="290.576172" xlink:href="#DejaVuSans-48"/>
       <use x="354.199219" xlink:href="#DejaVuSans-56"/>
      </g>
     </g>
    </g>
    <g id="xtick_6">
     <g id="line2d_6">
      <g>
       <use style="stroke:#000000;stroke-width:0.8;" x="284.715661" xlink:href="#m7170bd3822" y="288.430125"/>
      </g>
     </g>
     <g id="text_6">
      <!-- 2020-09 -->
      <g transform="translate(287.475036 337.212937)rotate(-90)scale(0.1 -0.1)">
       <defs>
        <path d="M 10.984375 1.515625 
L 10.984375 10.5 
Q 14.703125 8.734375 18.5 7.8125 
Q 22.3125 6.890625 25.984375 6.890625 
Q 35.75 6.890625 40.890625 13.453125 
Q 46.046875 20.015625 46.78125 33.40625 
Q 43.953125 29.203125 39.59375 26.953125 
Q 35.25 24.703125 29.984375 24.703125 
Q 19.046875 24.703125 12.671875 31.3125 
Q 6.296875 37.9375 6.296875 49.421875 
Q 6.296875 60.640625 12.9375 67.421875 
Q 19.578125 74.21875 30.609375 74.21875 
Q 43.265625 74.21875 49.921875 64.515625 
Q 56.59375 54.828125 56.59375 36.375 
Q 56.59375 19.140625 48.40625 8.859375 
Q 40.234375 -1.421875 26.421875 -1.421875 
Q 22.703125 -1.421875 18.890625 -0.6875 
Q 15.09375 0.046875 10.984375 1.515625 
z
M 30.609375 32.421875 
Q 37.25 32.421875 41.125 36.953125 
Q 45.015625 41.5 45.015625 49.421875 
Q 45.015625 57.28125 41.125 61.84375 
Q 37.25 66.40625 30.609375 66.40625 
Q 23.96875 66.40625 20.09375 61.84375 
Q 16.21875 57.28125 16.21875 49.421875 
Q 16.21875 41.5 20.09375 36.953125 
Q 23.96875 32.421875 30.609375 32.421875 
z
" id="DejaVuSans-57"/>
       </defs>
       <use xlink:href="#DejaVuSans-50"/>
       <use x="63.623047" xlink:href="#DejaVuSans-48"/>
       <use x="127.246094" xlink:href="#DejaVuSans-50"/>
       <use x="190.869141" xlink:href="#DejaVuSans-48"/>
       <use x="254.492188" xlink:href="#DejaVuSans-45"/>
       <use x="290.576172" xlink:href="#DejaVuSans-48"/>
       <use x="354.199219" xlink:href="#DejaVuSans-57"/>
      </g>
     </g>
    </g>
    <g id="xtick_7">
     <g id="line2d_7">
      <g>
       <use style="stroke:#000000;stroke-width:0.8;" x="323.25379" xlink:href="#m7170bd3822" y="288.430125"/>
      </g>
     </g>
     <g id="text_7">
      <!-- 2020-10 -->
      <g transform="translate(326.013165 337.212937)rotate(-90)scale(0.1 -0.1)">
       <defs>
        <path d="M 12.40625 8.296875 
L 28.515625 8.296875 
L 28.515625 63.921875 
L 10.984375 60.40625 
L 10.984375 69.390625 
L 28.421875 72.90625 
L 38.28125 72.90625 
L 38.28125 8.296875 
L 54.390625 8.296875 
L 54.390625 0 
L 12.40625 0 
z
" id="DejaVuSans-49"/>
       </defs>
       <use xlink:href="#DejaVuSans-50"/>
       <use x="63.623047" xlink:href="#DejaVuSans-48"/>
       <use x="127.246094" xlink:href="#DejaVuSans-50"/>
       <use x="190.869141" xlink:href="#DejaVuSans-48"/>
       <use x="254.492188" xlink:href="#DejaVuSans-45"/>
       <use x="290.576172" xlink:href="#DejaVuSans-49"/>
       <use x="354.199219" xlink:href="#DejaVuSans-48"/>
      </g>
     </g>
    </g>
    <g id="xtick_8">
     <g id="line2d_8">
      <g>
       <use style="stroke:#000000;stroke-width:0.8;" x="363.076524" xlink:href="#m7170bd3822" y="288.430125"/>
      </g>
     </g>
     <g id="text_8">
      <!-- 2020-11 -->
      <g transform="translate(365.835899 337.212937)rotate(-90)scale(0.1 -0.1)">
       <use xlink:href="#DejaVuSans-50"/>
       <use x="63.623047" xlink:href="#DejaVuSans-48"/>
       <use x="127.246094" xlink:href="#DejaVuSans-50"/>
       <use x="190.869141" xlink:href="#DejaVuSans-48"/>
       <use x="254.492188" xlink:href="#DejaVuSans-45"/>
       <use x="290.576172" xlink:href="#DejaVuSans-49"/>
       <use x="354.199219" xlink:href="#DejaVuSans-49"/>
      </g>
     </g>
    </g>
    <g id="xtick_9">
     <g id="line2d_9">
      <g>
       <use style="stroke:#000000;stroke-width:0.8;" x="401.614654" xlink:href="#m7170bd3822" y="288.430125"/>
      </g>
     </g>
     <g id="text_9">
      <!-- 2020-12 -->
      <g transform="translate(404.374029 337.212937)rotate(-90)scale(0.1 -0.1)">
       <use xlink:href="#DejaVuSans-50"/>
       <use x="63.623047" xlink:href="#DejaVuSans-48"/>
       <use x="127.246094" xlink:href="#DejaVuSans-50"/>
       <use x="190.869141" xlink:href="#DejaVuSans-48"/>
       <use x="254.492188" xlink:href="#DejaVuSans-45"/>
       <use x="290.576172" xlink:href="#DejaVuSans-49"/>
       <use x="354.199219" xlink:href="#DejaVuSans-50"/>
      </g>
     </g>
    </g>
    <g id="text_10">
     <!-- date -->
     <g transform="translate(232.975625 354.811375)scale(0.1 -0.1)">
      <defs>
       <path d="M 45.40625 46.390625 
L 45.40625 75.984375 
L 54.390625 75.984375 
L 54.390625 0 
L 45.40625 0 
L 45.40625 8.203125 
Q 42.578125 3.328125 38.25 0.953125 
Q 33.9375 -1.421875 27.875 -1.421875 
Q 17.96875 -1.421875 11.734375 6.484375 
Q 5.515625 14.40625 5.515625 27.296875 
Q 5.515625 40.1875 11.734375 48.09375 
Q 17.96875 56 27.875 56 
Q 33.9375 56 38.25 53.625 
Q 42.578125 51.265625 45.40625 46.390625 
z
M 14.796875 27.296875 
Q 14.796875 17.390625 18.875 11.75 
Q 22.953125 6.109375 30.078125 6.109375 
Q 37.203125 6.109375 41.296875 11.75 
Q 45.40625 17.390625 45.40625 27.296875 
Q 45.40625 37.203125 41.296875 42.84375 
Q 37.203125 48.484375 30.078125 48.484375 
Q 22.953125 48.484375 18.875 42.84375 
Q 14.796875 37.203125 14.796875 27.296875 
z
" id="DejaVuSans-100"/>
       <path d="M 34.28125 27.484375 
Q 23.390625 27.484375 19.1875 25 
Q 14.984375 22.515625 14.984375 16.5 
Q 14.984375 11.71875 18.140625 8.90625 
Q 21.296875 6.109375 26.703125 6.109375 
Q 34.1875 6.109375 38.703125 11.40625 
Q 43.21875 16.703125 43.21875 25.484375 
L 43.21875 27.484375 
z
M 52.203125 31.203125 
L 52.203125 0 
L 43.21875 0 
L 43.21875 8.296875 
Q 40.140625 3.328125 35.546875 0.953125 
Q 30.953125 -1.421875 24.3125 -1.421875 
Q 15.921875 -1.421875 10.953125 3.296875 
Q 6 8.015625 6 15.921875 
Q 6 25.140625 12.171875 29.828125 
Q 18.359375 34.515625 30.609375 34.515625 
L 43.21875 34.515625 
L 43.21875 35.40625 
Q 43.21875 41.609375 39.140625 45 
Q 35.0625 48.390625 27.6875 48.390625 
Q 23 48.390625 18.546875 47.265625 
Q 14.109375 46.140625 10.015625 43.890625 
L 10.015625 52.203125 
Q 14.9375 54.109375 19.578125 55.046875 
Q 24.21875 56 28.609375 56 
Q 40.484375 56 46.34375 49.84375 
Q 52.203125 43.703125 52.203125 31.203125 
z
" id="DejaVuSans-97"/>
       <path d="M 18.3125 70.21875 
L 18.3125 54.6875 
L 36.8125 54.6875 
L 36.8125 47.703125 
L 18.3125 47.703125 
L 18.3125 18.015625 
Q 18.3125 11.328125 20.140625 9.421875 
Q 21.96875 7.515625 27.59375 7.515625 
L 36.8125 7.515625 
L 36.8125 0 
L 27.59375 0 
Q 17.1875 0 13.234375 3.875 
Q 9.28125 7.765625 9.28125 18.015625 
L 9.28125 47.703125 
L 2.6875 47.703125 
L 2.6875 54.6875 
L 9.28125 54.6875 
L 9.28125 70.21875 
z
" id="DejaVuSans-116"/>
       <path d="M 56.203125 29.59375 
L 56.203125 25.203125 
L 14.890625 25.203125 
Q 15.484375 15.921875 20.484375 11.0625 
Q 25.484375 6.203125 34.421875 6.203125 
Q 39.59375 6.203125 44.453125 7.46875 
Q 49.3125 8.734375 54.109375 11.28125 
L 54.109375 2.78125 
Q 49.265625 0.734375 44.1875 -0.34375 
Q 39.109375 -1.421875 33.890625 -1.421875 
Q 20.796875 -1.421875 13.15625 6.1875 
Q 5.515625 13.8125 5.515625 26.8125 
Q 5.515625 40.234375 12.765625 48.109375 
Q 20.015625 56 32.328125 56 
Q 43.359375 56 49.78125 48.890625 
Q 56.203125 41.796875 56.203125 29.59375 
z
M 47.21875 32.234375 
Q 47.125 39.59375 43.09375 43.984375 
Q 39.0625 48.390625 32.421875 48.390625 
Q 24.90625 48.390625 20.390625 44.140625 
Q 15.875 39.890625 15.1875 32.171875 
z
" id="DejaVuSans-101"/>
      </defs>
      <use xlink:href="#DejaVuSans-100"/>
      <use x="63.476562" xlink:href="#DejaVuSans-97"/>
      <use x="124.755859" xlink:href="#DejaVuSans-116"/>
      <use x="163.964844" xlink:href="#DejaVuSans-101"/>
     </g>
    </g>
   </g>
   <g id="matplotlib.axis_2">
    <g id="ytick_1">
     <g id="line2d_10">
      <defs>
       <path d="M 0 0 
L -3.5 0 
" id="m2bc1cfd1be" style="stroke:#000000;stroke-width:0.8;"/>
      </defs>
      <g>
       <use style="stroke:#000000;stroke-width:0.8;" x="65.690625" xlink:href="#m2bc1cfd1be" y="288.430125"/>
      </g>
     </g>
     <g id="text_11">
      <!-- 0 -->
      <g transform="translate(52.328125 292.229344)scale(0.1 -0.1)">
       <use xlink:href="#DejaVuSans-48"/>
      </g>
     </g>
    </g>
    <g id="ytick_2">
     <g id="line2d_11">
      <g>
       <use style="stroke:#000000;stroke-width:0.8;" x="65.690625" xlink:href="#m2bc1cfd1be" y="240.067229"/>
      </g>
     </g>
     <g id="text_12">
      <!-- 5000 -->
      <g transform="translate(33.240625 243.866448)scale(0.1 -0.1)">
       <use xlink:href="#DejaVuSans-53"/>
       <use x="63.623047" xlink:href="#DejaVuSans-48"/>
       <use x="127.246094" xlink:href="#DejaVuSans-48"/>
       <use x="190.869141" xlink:href="#DejaVuSans-48"/>
      </g>
     </g>
    </g>
    <g id="ytick_3">
     <g id="line2d_12">
      <g>
       <use style="stroke:#000000;stroke-width:0.8;" x="65.690625" xlink:href="#m2bc1cfd1be" y="191.704333"/>
      </g>
     </g>
     <g id="text_13">
      <!-- 10000 -->
      <g transform="translate(26.878125 195.503551)scale(0.1 -0.1)">
       <use xlink:href="#DejaVuSans-49"/>
       <use x="63.623047" xlink:href="#DejaVuSans-48"/>
       <use x="127.246094" xlink:href="#DejaVuSans-48"/>
       <use x="190.869141" xlink:href="#DejaVuSans-48"/>
       <use x="254.492188" xlink:href="#DejaVuSans-48"/>
      </g>
     </g>
    </g>
    <g id="ytick_4">
     <g id="line2d_13">
      <g>
       <use style="stroke:#000000;stroke-width:0.8;" x="65.690625" xlink:href="#m2bc1cfd1be" y="143.341436"/>
      </g>
     </g>
     <g id="text_14">
      <!-- 15000 -->
      <g transform="translate(26.878125 147.140655)scale(0.1 -0.1)">
       <use xlink:href="#DejaVuSans-49"/>
       <use x="63.623047" xlink:href="#DejaVuSans-53"/>
       <use x="127.246094" xlink:href="#DejaVuSans-48"/>
       <use x="190.869141" xlink:href="#DejaVuSans-48"/>
       <use x="254.492188" xlink:href="#DejaVuSans-48"/>
      </g>
     </g>
    </g>
    <g id="ytick_5">
     <g id="line2d_14">
      <g>
       <use style="stroke:#000000;stroke-width:0.8;" x="65.690625" xlink:href="#m2bc1cfd1be" y="94.97854"/>
      </g>
     </g>
     <g id="text_15">
      <!-- 20000 -->
      <g transform="translate(26.878125 98.777759)scale(0.1 -0.1)">
       <use xlink:href="#DejaVuSans-50"/>
       <use x="63.623047" xlink:href="#DejaVuSans-48"/>
       <use x="127.246094" xlink:href="#DejaVuSans-48"/>
       <use x="190.869141" xlink:href="#DejaVuSans-48"/>
       <use x="254.492188" xlink:href="#DejaVuSans-48"/>
      </g>
     </g>
    </g>
    <g id="ytick_6">
     <g id="line2d_15">
      <g>
       <use style="stroke:#000000;stroke-width:0.8;" x="65.690625" xlink:href="#m2bc1cfd1be" y="46.615644"/>
      </g>
     </g>
     <g id="text_16">
      <!-- 25000 -->
      <g transform="translate(26.878125 50.414863)scale(0.1 -0.1)">
       <use xlink:href="#DejaVuSans-50"/>
       <use x="63.623047" xlink:href="#DejaVuSans-53"/>
       <use x="127.246094" xlink:href="#DejaVuSans-48"/>
       <use x="190.869141" xlink:href="#DejaVuSans-48"/>
       <use x="254.492188" xlink:href="#DejaVuSans-48"/>
      </g>
     </g>
    </g>
    <g id="text_17">
     <!-- cumulative number of corona cases -->
     <g transform="translate(14.798438 245.00225)rotate(-90)scale(0.1 -0.1)">
      <defs>
       <path d="M 48.78125 52.59375 
L 48.78125 44.1875 
Q 44.96875 46.296875 41.140625 47.34375 
Q 37.3125 48.390625 33.40625 48.390625 
Q 24.65625 48.390625 19.8125 42.84375 
Q 14.984375 37.3125 14.984375 27.296875 
Q 14.984375 17.28125 19.8125 11.734375 
Q 24.65625 6.203125 33.40625 6.203125 
Q 37.3125 6.203125 41.140625 7.25 
Q 44.96875 8.296875 48.78125 10.40625 
L 48.78125 2.09375 
Q 45.015625 0.34375 40.984375 -0.53125 
Q 36.96875 -1.421875 32.421875 -1.421875 
Q 20.0625 -1.421875 12.78125 6.34375 
Q 5.515625 14.109375 5.515625 27.296875 
Q 5.515625 40.671875 12.859375 48.328125 
Q 20.21875 56 33.015625 56 
Q 37.15625 56 41.109375 55.140625 
Q 45.0625 54.296875 48.78125 52.59375 
z
" id="DejaVuSans-99"/>
       <path d="M 8.5 21.578125 
L 8.5 54.6875 
L 17.484375 54.6875 
L 17.484375 21.921875 
Q 17.484375 14.15625 20.5 10.265625 
Q 23.53125 6.390625 29.59375 6.390625 
Q 36.859375 6.390625 41.078125 11.03125 
Q 45.3125 15.671875 45.3125 23.6875 
L 45.3125 54.6875 
L 54.296875 54.6875 
L 54.296875 0 
L 45.3125 0 
L 45.3125 8.40625 
Q 42.046875 3.421875 37.71875 1 
Q 33.40625 -1.421875 27.6875 -1.421875 
Q 18.265625 -1.421875 13.375 4.4375 
Q 8.5 10.296875 8.5 21.578125 
z
M 31.109375 56 
z
" id="DejaVuSans-117"/>
       <path d="M 52 44.1875 
Q 55.375 50.25 60.0625 53.125 
Q 64.75 56 71.09375 56 
Q 79.640625 56 84.28125 50.015625 
Q 88.921875 44.046875 88.921875 33.015625 
L 88.921875 0 
L 79.890625 0 
L 79.890625 32.71875 
Q 79.890625 40.578125 77.09375 44.375 
Q 74.3125 48.1875 68.609375 48.1875 
Q 61.625 48.1875 57.5625 43.546875 
Q 53.515625 38.921875 53.515625 30.90625 
L 53.515625 0 
L 44.484375 0 
L 44.484375 32.71875 
Q 44.484375 40.625 41.703125 44.40625 
Q 38.921875 48.1875 33.109375 48.1875 
Q 26.21875 48.1875 22.15625 43.53125 
Q 18.109375 38.875 18.109375 30.90625 
L 18.109375 0 
L 9.078125 0 
L 9.078125 54.6875 
L 18.109375 54.6875 
L 18.109375 46.1875 
Q 21.1875 51.21875 25.484375 53.609375 
Q 29.78125 56 35.6875 56 
Q 41.65625 56 45.828125 52.96875 
Q 50 49.953125 52 44.1875 
z
" id="DejaVuSans-109"/>
       <path d="M 9.421875 75.984375 
L 18.40625 75.984375 
L 18.40625 0 
L 9.421875 0 
z
" id="DejaVuSans-108"/>
       <path d="M 9.421875 54.6875 
L 18.40625 54.6875 
L 18.40625 0 
L 9.421875 0 
z
M 9.421875 75.984375 
L 18.40625 75.984375 
L 18.40625 64.59375 
L 9.421875 64.59375 
z
" id="DejaVuSans-105"/>
       <path d="M 2.984375 54.6875 
L 12.5 54.6875 
L 29.59375 8.796875 
L 46.6875 54.6875 
L 56.203125 54.6875 
L 35.6875 0 
L 23.484375 0 
z
" id="DejaVuSans-118"/>
       <path id="DejaVuSans-32"/>
       <path d="M 54.890625 33.015625 
L 54.890625 0 
L 45.90625 0 
L 45.90625 32.71875 
Q 45.90625 40.484375 42.875 44.328125 
Q 39.84375 48.1875 33.796875 48.1875 
Q 26.515625 48.1875 22.3125 43.546875 
Q 18.109375 38.921875 18.109375 30.90625 
L 18.109375 0 
L 9.078125 0 
L 9.078125 54.6875 
L 18.109375 54.6875 
L 18.109375 46.1875 
Q 21.34375 51.125 25.703125 53.5625 
Q 30.078125 56 35.796875 56 
Q 45.21875 56 50.046875 50.171875 
Q 54.890625 44.34375 54.890625 33.015625 
z
" id="DejaVuSans-110"/>
       <path d="M 48.6875 27.296875 
Q 48.6875 37.203125 44.609375 42.84375 
Q 40.53125 48.484375 33.40625 48.484375 
Q 26.265625 48.484375 22.1875 42.84375 
Q 18.109375 37.203125 18.109375 27.296875 
Q 18.109375 17.390625 22.1875 11.75 
Q 26.265625 6.109375 33.40625 6.109375 
Q 40.53125 6.109375 44.609375 11.75 
Q 48.6875 17.390625 48.6875 27.296875 
z
M 18.109375 46.390625 
Q 20.953125 51.265625 25.265625 53.625 
Q 29.59375 56 35.59375 56 
Q 45.5625 56 51.78125 48.09375 
Q 58.015625 40.1875 58.015625 27.296875 
Q 58.015625 14.40625 51.78125 6.484375 
Q 45.5625 -1.421875 35.59375 -1.421875 
Q 29.59375 -1.421875 25.265625 0.953125 
Q 20.953125 3.328125 18.109375 8.203125 
L 18.109375 0 
L 9.078125 0 
L 9.078125 75.984375 
L 18.109375 75.984375 
z
" id="DejaVuSans-98"/>
       <path d="M 41.109375 46.296875 
Q 39.59375 47.171875 37.8125 47.578125 
Q 36.03125 48 33.890625 48 
Q 26.265625 48 22.1875 43.046875 
Q 18.109375 38.09375 18.109375 28.8125 
L 18.109375 0 
L 9.078125 0 
L 9.078125 54.6875 
L 18.109375 54.6875 
L 18.109375 46.1875 
Q 20.953125 51.171875 25.484375 53.578125 
Q 30.03125 56 36.53125 56 
Q 37.453125 56 38.578125 55.875 
Q 39.703125 55.765625 41.0625 55.515625 
z
" id="DejaVuSans-114"/>
       <path d="M 30.609375 48.390625 
Q 23.390625 48.390625 19.1875 42.75 
Q 14.984375 37.109375 14.984375 27.296875 
Q 14.984375 17.484375 19.15625 11.84375 
Q 23.34375 6.203125 30.609375 6.203125 
Q 37.796875 6.203125 41.984375 11.859375 
Q 46.1875 17.53125 46.1875 27.296875 
Q 46.1875 37.015625 41.984375 42.703125 
Q 37.796875 48.390625 30.609375 48.390625 
z
M 30.609375 56 
Q 42.328125 56 49.015625 48.375 
Q 55.71875 40.765625 55.71875 27.296875 
Q 55.71875 13.875 49.015625 6.21875 
Q 42.328125 -1.421875 30.609375 -1.421875 
Q 18.84375 -1.421875 12.171875 6.21875 
Q 5.515625 13.875 5.515625 27.296875 
Q 5.515625 40.765625 12.171875 48.375 
Q 18.84375 56 30.609375 56 
z
" id="DejaVuSans-111"/>
       <path d="M 37.109375 75.984375 
L 37.109375 68.5 
L 28.515625 68.5 
Q 23.6875 68.5 21.796875 66.546875 
Q 19.921875 64.59375 19.921875 59.515625 
L 19.921875 54.6875 
L 34.71875 54.6875 
L 34.71875 47.703125 
L 19.921875 47.703125 
L 19.921875 0 
L 10.890625 0 
L 10.890625 47.703125 
L 2.296875 47.703125 
L 2.296875 54.6875 
L 10.890625 54.6875 
L 10.890625 58.5 
Q 10.890625 67.625 15.140625 71.796875 
Q 19.390625 75.984375 28.609375 75.984375 
z
" id="DejaVuSans-102"/>
       <path d="M 44.28125 53.078125 
L 44.28125 44.578125 
Q 40.484375 46.53125 36.375 47.5 
Q 32.28125 48.484375 27.875 48.484375 
Q 21.1875 48.484375 17.84375 46.4375 
Q 14.5 44.390625 14.5 40.28125 
Q 14.5 37.15625 16.890625 35.375 
Q 19.28125 33.59375 26.515625 31.984375 
L 29.59375 31.296875 
Q 39.15625 29.25 43.1875 25.515625 
Q 47.21875 21.78125 47.21875 15.09375 
Q 47.21875 7.46875 41.1875 3.015625 
Q 35.15625 -1.421875 24.609375 -1.421875 
Q 20.21875 -1.421875 15.453125 -0.5625 
Q 10.6875 0.296875 5.421875 2 
L 5.421875 11.28125 
Q 10.40625 8.6875 15.234375 7.390625 
Q 20.0625 6.109375 24.8125 6.109375 
Q 31.15625 6.109375 34.5625 8.28125 
Q 37.984375 10.453125 37.984375 14.40625 
Q 37.984375 18.0625 35.515625 20.015625 
Q 33.0625 21.96875 24.703125 23.78125 
L 21.578125 24.515625 
Q 13.234375 26.265625 9.515625 29.90625 
Q 5.8125 33.546875 5.8125 39.890625 
Q 5.8125 47.609375 11.28125 51.796875 
Q 16.75 56 26.8125 56 
Q 31.78125 56 36.171875 55.265625 
Q 40.578125 54.546875 44.28125 53.078125 
z
" id="DejaVuSans-115"/>
      </defs>
      <use xlink:href="#DejaVuSans-99"/>
      <use x="54.980469" xlink:href="#DejaVuSans-117"/>
      <use x="118.359375" xlink:href="#DejaVuSans-109"/>
      <use x="215.771484" xlink:href="#DejaVuSans-117"/>
      <use x="279.150391" xlink:href="#DejaVuSans-108"/>
      <use x="306.933594" xlink:href="#DejaVuSans-97"/>
      <use x="368.212891" xlink:href="#DejaVuSans-116"/>
      <use x="407.421875" xlink:href="#DejaVuSans-105"/>
      <use x="435.205078" xlink:href="#DejaVuSans-118"/>
      <use x="494.384766" xlink:href="#DejaVuSans-101"/>
      <use x="555.908203" xlink:href="#DejaVuSans-32"/>
      <use x="587.695312" xlink:href="#DejaVuSans-110"/>
      <use x="651.074219" xlink:href="#DejaVuSans-117"/>
      <use x="714.453125" xlink:href="#DejaVuSans-109"/>
      <use x="811.865234" xlink:href="#DejaVuSans-98"/>
      <use x="875.341797" xlink:href="#DejaVuSans-101"/>
      <use x="936.865234" xlink:href="#DejaVuSans-114"/>
      <use x="977.978516" xlink:href="#DejaVuSans-32"/>
      <use x="1009.765625" xlink:href="#DejaVuSans-111"/>
      <use x="1070.947266" xlink:href="#DejaVuSans-102"/>
      <use x="1106.152344" xlink:href="#DejaVuSans-32"/>
      <use x="1137.939453" xlink:href="#DejaVuSans-99"/>
      <use x="1192.919922" xlink:href="#DejaVuSans-111"/>
      <use x="1254.101562" xlink:href="#DejaVuSans-114"/>
      <use x="1292.964844" xlink:href="#DejaVuSans-111"/>
      <use x="1354.146484" xlink:href="#DejaVuSans-110"/>
      <use x="1417.525391" xlink:href="#DejaVuSans-97"/>
      <use x="1478.804688" xlink:href="#DejaVuSans-32"/>
      <use x="1510.591797" xlink:href="#DejaVuSans-99"/>
      <use x="1565.572266" xlink:href="#DejaVuSans-97"/>
      <use x="1626.851562" xlink:href="#DejaVuSans-115"/>
      <use x="1678.951172" xlink:href="#DejaVuSans-101"/>
      <use x="1740.474609" xlink:href="#DejaVuSans-115"/>
     </g>
    </g>
   </g>
   <g id="patch_281">
    <path d="M 65.690625 288.430125 
L 65.690625 22.318125 
" style="fill:none;stroke:#000000;stroke-linecap:square;stroke-linejoin:miter;stroke-width:0.8;"/>
   </g>
   <g id="patch_282">
    <path d="M 65.690625 288.430125 
L 422.810625 288.430125 
" style="fill:none;stroke:#000000;stroke-linecap:square;stroke-linejoin:miter;stroke-width:0.8;"/>
   </g>
   <g id="text_18">
    <!-- South Tyrol -->
    <g transform="translate(210.958125 16.318125)scale(0.12 -0.12)">
     <defs>
      <path d="M 53.515625 70.515625 
L 53.515625 60.890625 
Q 47.90625 63.578125 42.921875 64.890625 
Q 37.9375 66.21875 33.296875 66.21875 
Q 25.25 66.21875 20.875 63.09375 
Q 16.5 59.96875 16.5 54.203125 
Q 16.5 49.359375 19.40625 46.890625 
Q 22.3125 44.4375 30.421875 42.921875 
L 36.375 41.703125 
Q 47.40625 39.59375 52.65625 34.296875 
Q 57.90625 29 57.90625 20.125 
Q 57.90625 9.515625 50.796875 4.046875 
Q 43.703125 -1.421875 29.984375 -1.421875 
Q 24.8125 -1.421875 18.96875 -0.25 
Q 13.140625 0.921875 6.890625 3.21875 
L 6.890625 13.375 
Q 12.890625 10.015625 18.65625 8.296875 
Q 24.421875 6.59375 29.984375 6.59375 
Q 38.421875 6.59375 43.015625 9.90625 
Q 47.609375 13.234375 47.609375 19.390625 
Q 47.609375 24.75 44.3125 27.78125 
Q 41.015625 30.8125 33.5 32.328125 
L 27.484375 33.5 
Q 16.453125 35.6875 11.515625 40.375 
Q 6.59375 45.0625 6.59375 53.421875 
Q 6.59375 63.09375 13.40625 68.65625 
Q 20.21875 74.21875 32.171875 74.21875 
Q 37.3125 74.21875 42.625 73.28125 
Q 47.953125 72.359375 53.515625 70.515625 
z
" id="DejaVuSans-83"/>
      <path d="M 54.890625 33.015625 
L 54.890625 0 
L 45.90625 0 
L 45.90625 32.71875 
Q 45.90625 40.484375 42.875 44.328125 
Q 39.84375 48.1875 33.796875 48.1875 
Q 26.515625 48.1875 22.3125 43.546875 
Q 18.109375 38.921875 18.109375 30.90625 
L 18.109375 0 
L 9.078125 0 
L 9.078125 75.984375 
L 18.109375 75.984375 
L 18.109375 46.1875 
Q 21.34375 51.125 25.703125 53.5625 
Q 30.078125 56 35.796875 56 
Q 45.21875 56 50.046875 50.171875 
Q 54.890625 44.34375 54.890625 33.015625 
z
" id="DejaVuSans-104"/>
      <path d="M -0.296875 72.90625 
L 61.375 72.90625 
L 61.375 64.59375 
L 35.5 64.59375 
L 35.5 0 
L 25.59375 0 
L 25.59375 64.59375 
L -0.296875 64.59375 
z
" id="DejaVuSans-84"/>
      <path d="M 32.171875 -5.078125 
Q 28.375 -14.84375 24.75 -17.8125 
Q 21.140625 -20.796875 15.09375 -20.796875 
L 7.90625 -20.796875 
L 7.90625 -13.28125 
L 13.1875 -13.28125 
Q 16.890625 -13.28125 18.9375 -11.515625 
Q 21 -9.765625 23.484375 -3.21875 
L 25.09375 0.875 
L 2.984375 54.6875 
L 12.5 54.6875 
L 29.59375 11.921875 
L 46.6875 54.6875 
L 56.203125 54.6875 
z
" id="DejaVuSans-121"/>
     </defs>
     <use xlink:href="#DejaVuSans-83"/>
     <use x="63.476562" xlink:href="#DejaVuSans-111"/>
     <use x="124.658203" xlink:href="#DejaVuSans-117"/>
     <use x="188.037109" xlink:href="#DejaVuSans-116"/>
     <use x="227.246094" xlink:href="#DejaVuSans-104"/>
     <use x="290.625" xlink:href="#DejaVuSans-32"/>
     <use x="322.412109" xlink:href="#DejaVuSans-84"/>
     <use x="367.871094" xlink:href="#DejaVuSans-121"/>
     <use x="427.050781" xlink:href="#DejaVuSans-114"/>
     <use x="465.914062" xlink:href="#DejaVuSans-111"/>
     <use x="527.095703" xlink:href="#DejaVuSans-108"/>
    </g>
   </g>
  </g>
 </g>
 <defs>
  <clipPath id="p410af96fc3">
   <rect height="266.112" width="357.12" x="65.690625" y="22.318125"/>
  </clipPath>
 </defs>
</svg>
