<?xml version="1.0" encoding="utf-8" standalone="no"?>
<!DOCTYPE svg PUBLIC "-//W3C//DTD SVG 1.1//EN"
  "http://www.w3.org/Graphics/SVG/1.1/DTD/svg11.dtd">
<!-- Created with matplotlib (https://matplotlib.org/) -->
<svg height="364.091062pt" version="1.1" viewBox="0 0 410.923125 364.091062" width="410.923125pt" xmlns="http://www.w3.org/2000/svg" xmlns:xlink="http://www.w3.org/1999/xlink">
 <metadata>
  <rdf:RDF xmlns:cc="http://creativecommons.org/ns#" xmlns:dc="http://purl.org/dc/elements/1.1/" xmlns:rdf="http://www.w3.org/1999/02/22-rdf-syntax-ns#">
   <cc:Work>
    <dc:type rdf:resource="http://purl.org/dc/dcmitype/StillImage"/>
    <dc:date>2020-12-14T13:17:49.986291</dc:date>
    <dc:format>image/svg+xml</dc:format>
    <dc:creator>
     <cc:Agent>
      <dc:title>Matplotlib v3.3.3, https://matplotlib.org/</dc:title>
     </cc:Agent>
    </dc:creator>
   </cc:Work>
  </rdf:RDF>
 </metadata>
 <defs>
  <style type="text/css">*{stroke-linecap:butt;stroke-linejoin:round;}</style>
 </defs>
 <g id="figure_1">
  <g id="patch_1">
   <path d="M 0 364.091062 
L 410.923125 364.091062 
L 410.923125 0 
L 0 0 
z
" style="fill:#ffffff;"/>
  </g>
  <g id="axes_1">
   <g id="patch_2">
    <path d="M 46.603125 288.430125 
L 403.723125 288.430125 
L 403.723125 22.318125 
L 46.603125 22.318125 
z
" style="fill:#ffffff;"/>
   </g>
   <g id="patch_3">
    <path clip-path="url(#p32ef790b79)" d="M 46.732987 288.430125 
L 47.771881 288.430125 
L 47.771881 234.119248 
L 46.732987 234.119248 
z
" style="fill:#1f77b4;"/>
   </g>
   <g id="patch_4">
    <path clip-path="url(#p32ef790b79)" d="M 48.031605 288.430125 
L 49.0705 288.430125 
L 49.0705 221.207151 
L 48.031605 221.207151 
z
" style="fill:#1f77b4;"/>
   </g>
   <g id="patch_5">
    <path clip-path="url(#p32ef790b79)" d="M 49.330223 288.430125 
L 50.369118 288.430125 
L 50.369118 237.366396 
L 49.330223 237.366396 
z
" style="fill:#1f77b4;"/>
   </g>
   <g id="patch_6">
    <path clip-path="url(#p32ef790b79)" d="M 50.628841 288.430125 
L 51.667736 288.430125 
L 51.667736 233.669204 
L 50.628841 233.669204 
z
" style="fill:#1f77b4;"/>
   </g>
   <g id="patch_7">
    <path clip-path="url(#p32ef790b79)" d="M 51.92746 288.430125 
L 52.966354 288.430125 
L 52.966354 255.774398 
L 51.92746 255.774398 
z
" style="fill:#1f77b4;"/>
   </g>
   <g id="patch_8">
    <path clip-path="url(#p32ef790b79)" d="M 53.226078 288.430125 
L 54.264972 288.430125 
L 54.264972 233.056624 
L 53.226078 233.056624 
z
" style="fill:#1f77b4;"/>
   </g>
   <g id="patch_9">
    <path clip-path="url(#p32ef790b79)" d="M 54.524696 288.430125 
L 55.56359 288.430125 
L 55.56359 240.549077 
L 54.524696 240.549077 
z
" style="fill:#1f77b4;"/>
   </g>
   <g id="patch_10">
    <path clip-path="url(#p32ef790b79)" d="M 55.823314 288.430125 
L 56.862209 288.430125 
L 56.862209 227.167998 
L 55.823314 227.167998 
z
" style="fill:#1f77b4;"/>
   </g>
   <g id="patch_11">
    <path clip-path="url(#p32ef790b79)" d="M 57.121932 288.430125 
L 58.160827 288.430125 
L 58.160827 236.324279 
L 57.121932 236.324279 
z
" style="fill:#1f77b4;"/>
   </g>
   <g id="patch_12">
    <path clip-path="url(#p32ef790b79)" d="M 58.42055 288.430125 
L 59.459445 288.430125 
L 59.459445 222.839139 
L 58.42055 222.839139 
z
" style="fill:#1f77b4;"/>
   </g>
   <g id="patch_13">
    <path clip-path="url(#p32ef790b79)" d="M 59.719169 288.430125 
L 60.758063 288.430125 
L 60.758063 225.781933 
L 59.719169 225.781933 
z
" style="fill:#1f77b4;"/>
   </g>
   <g id="patch_14">
    <path clip-path="url(#p32ef790b79)" d="M 61.017787 288.430125 
L 62.056681 288.430125 
L 62.056681 232.91421 
L 61.017787 232.91421 
z
" style="fill:#1f77b4;"/>
   </g>
   <g id="patch_15">
    <path clip-path="url(#p32ef790b79)" d="M 62.316405 288.430125 
L 63.3553 288.430125 
L 63.3553 206.675093 
L 62.316405 206.675093 
z
" style="fill:#1f77b4;"/>
   </g>
   <g id="patch_16">
    <path clip-path="url(#p32ef790b79)" d="M 63.615023 288.430125 
L 64.653918 288.430125 
L 64.653918 211.423356 
L 63.615023 211.423356 
z
" style="fill:#1f77b4;"/>
   </g>
   <g id="patch_17">
    <path clip-path="url(#p32ef790b79)" d="M 64.913641 288.430125 
L 65.952536 288.430125 
L 65.952536 215.750527 
L 64.913641 215.750527 
z
" style="fill:#1f77b4;"/>
   </g>
   <g id="patch_18">
    <path clip-path="url(#p32ef790b79)" d="M 66.21226 288.430125 
L 67.251154 288.430125 
L 67.251154 192.535327 
L 66.21226 192.535327 
z
" style="fill:#1f77b4;"/>
   </g>
   <g id="patch_19">
    <path clip-path="url(#p32ef790b79)" d="M 67.510878 288.430125 
L 68.549772 288.430125 
L 68.549772 226.129657 
L 67.510878 226.129657 
z
" style="fill:#1f77b4;"/>
   </g>
   <g id="patch_20">
    <path clip-path="url(#p32ef790b79)" d="M 68.809496 288.430125 
L 69.84839 288.430125 
L 69.84839 241.682681 
L 68.809496 241.682681 
z
" style="fill:#1f77b4;"/>
   </g>
   <g id="patch_21">
    <path clip-path="url(#p32ef790b79)" d="M 70.108114 288.430125 
L 71.147009 288.430125 
L 71.147009 240.666433 
L 70.108114 240.666433 
z
" style="fill:#1f77b4;"/>
   </g>
   <g id="patch_22">
    <path clip-path="url(#p32ef790b79)" d="M 71.406732 288.430125 
L 72.445627 288.430125 
L 72.445627 239.105528 
L 71.406732 239.105528 
z
" style="fill:#1f77b4;"/>
   </g>
   <g id="patch_23">
    <path clip-path="url(#p32ef790b79)" d="M 72.70535 288.430125 
L 73.744245 288.430125 
L 73.744245 237.316274 
L 72.70535 237.316274 
z
" style="fill:#1f77b4;"/>
   </g>
   <g id="patch_24">
    <path clip-path="url(#p32ef790b79)" d="M 74.003969 288.430125 
L 75.042863 288.430125 
L 75.042863 248.039352 
L 74.003969 248.039352 
z
" style="fill:#1f77b4;"/>
   </g>
   <g id="patch_25">
    <path clip-path="url(#p32ef790b79)" d="M 75.302587 288.430125 
L 76.341481 288.430125 
L 76.341481 241.361538 
L 75.302587 241.361538 
z
" style="fill:#1f77b4;"/>
   </g>
   <g id="patch_26">
    <path clip-path="url(#p32ef790b79)" d="M 76.601205 288.430125 
L 77.6401 288.430125 
L 77.6401 253.423195 
L 76.601205 253.423195 
z
" style="fill:#1f77b4;"/>
   </g>
   <g id="patch_27">
    <path clip-path="url(#p32ef790b79)" d="M 77.899823 288.430125 
L 78.938718 288.430125 
L 78.938718 245.124377 
L 77.899823 245.124377 
z
" style="fill:#1f77b4;"/>
   </g>
   <g id="patch_28">
    <path clip-path="url(#p32ef790b79)" d="M 79.198441 288.430125 
L 80.237336 288.430125 
L 80.237336 260.935158 
L 79.198441 260.935158 
z
" style="fill:#1f77b4;"/>
   </g>
   <g id="patch_29">
    <path clip-path="url(#p32ef790b79)" d="M 80.49706 288.430125 
L 81.535954 288.430125 
L 81.535954 245.237121 
L 80.49706 245.237121 
z
" style="fill:#1f77b4;"/>
   </g>
   <g id="patch_30">
    <path clip-path="url(#p32ef790b79)" d="M 81.795678 288.430125 
L 82.834572 288.430125 
L 82.834572 253.708598 
L 81.795678 253.708598 
z
" style="fill:#1f77b4;"/>
   </g>
   <g id="patch_31">
    <path clip-path="url(#p32ef790b79)" d="M 83.094296 288.430125 
L 84.13319 288.430125 
L 84.13319 251.563974 
L 83.094296 251.563974 
z
" style="fill:#1f77b4;"/>
   </g>
   <g id="patch_32">
    <path clip-path="url(#p32ef790b79)" d="M 84.392914 288.430125 
L 85.431809 288.430125 
L 85.431809 248.605357 
L 84.392914 248.605357 
z
" style="fill:#1f77b4;"/>
   </g>
   <g id="patch_33">
    <path clip-path="url(#p32ef790b79)" d="M 85.691532 288.430125 
L 86.730427 288.430125 
L 86.730427 221.560956 
L 85.691532 221.560956 
z
" style="fill:#1f77b4;"/>
   </g>
   <g id="patch_34">
    <path clip-path="url(#p32ef790b79)" d="M 86.99015 288.430125 
L 88.029045 288.430125 
L 88.029045 253.109075 
L 86.99015 253.109075 
z
" style="fill:#1f77b4;"/>
   </g>
   <g id="patch_35">
    <path clip-path="url(#p32ef790b79)" d="M 88.288769 288.430125 
L 89.327663 288.430125 
L 89.327663 257.749797 
L 88.288769 257.749797 
z
" style="fill:#1f77b4;"/>
   </g>
   <g id="patch_36">
    <path clip-path="url(#p32ef790b79)" d="M 89.587387 288.430125 
L 90.626281 288.430125 
L 90.626281 273.919636 
L 89.587387 273.919636 
z
" style="fill:#1f77b4;"/>
   </g>
   <g id="patch_37">
    <path clip-path="url(#p32ef790b79)" d="M 90.886005 288.430125 
L 91.9249 288.430125 
L 91.9249 270.441202 
L 90.886005 270.441202 
z
" style="fill:#1f77b4;"/>
   </g>
   <g id="patch_38">
    <path clip-path="url(#p32ef790b79)" d="M 92.184623 288.430125 
L 93.223518 288.430125 
L 93.223518 268.874271 
L 92.184623 268.874271 
z
" style="fill:#1f77b4;"/>
   </g>
   <g id="patch_39">
    <path clip-path="url(#p32ef790b79)" d="M 93.483241 288.430125 
L 94.522136 288.430125 
L 94.522136 274.38198 
L 93.483241 274.38198 
z
" style="fill:#1f77b4;"/>
   </g>
   <g id="patch_40">
    <path clip-path="url(#p32ef790b79)" d="M 94.78186 288.430125 
L 95.820754 288.430125 
L 95.820754 273.012731 
L 94.78186 273.012731 
z
" style="fill:#1f77b4;"/>
   </g>
   <g id="patch_41">
    <path clip-path="url(#p32ef790b79)" d="M 96.080478 288.430125 
L 97.119372 288.430125 
L 97.119372 284.966897 
L 96.080478 284.966897 
z
" style="fill:#1f77b4;"/>
   </g>
   <g id="patch_42">
    <path clip-path="url(#p32ef790b79)" d="M 97.379096 288.430125 
L 98.41799 288.430125 
L 98.41799 280.717574 
L 97.379096 280.717574 
z
" style="fill:#1f77b4;"/>
   </g>
   <g id="patch_43">
    <path clip-path="url(#p32ef790b79)" d="M 98.677714 288.430125 
L 99.716609 288.430125 
L 99.716609 278.089532 
L 98.677714 278.089532 
z
" style="fill:#1f77b4;"/>
   </g>
   <g id="patch_44">
    <path clip-path="url(#p32ef790b79)" d="M 99.976332 288.430125 
L 101.015227 288.430125 
L 101.015227 277.989974 
L 99.976332 277.989974 
z
" style="fill:#1f77b4;"/>
   </g>
   <g id="patch_45">
    <path clip-path="url(#p32ef790b79)" d="M 101.27495 288.430125 
L 102.313845 288.430125 
L 102.313845 283.980092 
L 101.27495 283.980092 
z
" style="fill:#1f77b4;"/>
   </g>
   <g id="patch_46">
    <path clip-path="url(#p32ef790b79)" d="M 102.573569 288.430125 
L 103.612463 288.430125 
L 103.612463 280.288587 
L 102.573569 280.288587 
z
" style="fill:#1f77b4;"/>
   </g>
   <g id="patch_47">
    <path clip-path="url(#p32ef790b79)" d="M 103.872187 288.430125 
L 104.911081 288.430125 
L 104.911081 284.449817 
L 103.872187 284.449817 
z
" style="fill:#1f77b4;"/>
   </g>
   <g id="patch_48">
    <path clip-path="url(#p32ef790b79)" d="M 105.170805 288.430125 
L 106.2097 288.430125 
L 106.2097 279.118791 
L 105.170805 279.118791 
z
" style="fill:#1f77b4;"/>
   </g>
   <g id="patch_49">
    <path clip-path="url(#p32ef790b79)" d="M 106.469423 288.430125 
L 107.508318 288.430125 
L 107.508318 278.991791 
L 106.469423 278.991791 
z
" style="fill:#1f77b4;"/>
   </g>
   <g id="patch_50">
    <path clip-path="url(#p32ef790b79)" d="M 107.768041 288.430125 
L 108.806936 288.430125 
L 108.806936 282.992133 
L 107.768041 282.992133 
z
" style="fill:#1f77b4;"/>
   </g>
   <g id="patch_51">
    <path clip-path="url(#p32ef790b79)" d="M 109.06666 288.430125 
L 110.105554 288.430125 
L 110.105554 282.369475 
L 109.06666 282.369475 
z
" style="fill:#1f77b4;"/>
   </g>
   <g id="patch_52">
    <path clip-path="url(#p32ef790b79)" d="M 110.365278 288.430125 
L 111.404172 288.430125 
L 111.404172 286.225647 
L 110.365278 286.225647 
z
" style="fill:#1f77b4;"/>
   </g>
   <g id="patch_53">
    <path clip-path="url(#p32ef790b79)" d="M 111.663896 288.430125 
L 112.70279 288.430125 
L 112.70279 279.849821 
L 111.663896 279.849821 
z
" style="fill:#1f77b4;"/>
   </g>
   <g id="patch_54">
    <path clip-path="url(#p32ef790b79)" d="M 112.962514 288.430125 
L 114.001409 288.430125 
L 114.001409 287.173186 
L 112.962514 287.173186 
z
" style="fill:#1f77b4;"/>
   </g>
   <g id="patch_55">
    <path clip-path="url(#p32ef790b79)" d="M 114.261132 288.430125 
L 115.300027 288.430125 
L 115.300027 287.508639 
L 114.261132 287.508639 
z
" style="fill:#1f77b4;"/>
   </g>
   <g id="patch_56">
    <path clip-path="url(#p32ef790b79)" d="M 115.55975 288.430125 
L 116.598645 288.430125 
L 116.598645 282.169835 
L 115.55975 282.169835 
z
" style="fill:#1f77b4;"/>
   </g>
   <g id="patch_57">
    <path clip-path="url(#p32ef790b79)" d="M 116.858369 288.430125 
L 117.897263 288.430125 
L 117.897263 282.459663 
L 116.858369 282.459663 
z
" style="fill:#1f77b4;"/>
   </g>
   <g id="patch_58">
    <path clip-path="url(#p32ef790b79)" d="M 118.156987 288.430125 
L 119.195881 288.430125 
L 119.195881 281.9333 
L 118.156987 281.9333 
z
" style="fill:#1f77b4;"/>
   </g>
   <g id="patch_59">
    <path clip-path="url(#p32ef790b79)" d="M 119.455605 288.430125 
L 120.4945 288.430125 
L 120.4945 286.493759 
L 119.455605 286.493759 
z
" style="fill:#1f77b4;"/>
   </g>
   <g id="patch_60">
    <path clip-path="url(#p32ef790b79)" d="M 120.754223 288.430125 
L 121.793118 288.430125 
L 121.793118 284.771629 
L 120.754223 284.771629 
z
" style="fill:#1f77b4;"/>
   </g>
   <g id="patch_61">
    <path clip-path="url(#p32ef790b79)" d="M 122.052841 288.430125 
L 123.091736 288.430125 
L 123.091736 288.430125 
L 122.052841 288.430125 
z
" style="fill:#1f77b4;"/>
   </g>
   <g id="patch_62">
    <path clip-path="url(#p32ef790b79)" d="M 123.35146 288.430125 
L 124.390354 288.430125 
L 124.390354 286.21998 
L 123.35146 286.21998 
z
" style="fill:#1f77b4;"/>
   </g>
   <g id="patch_63">
    <path clip-path="url(#p32ef790b79)" d="M 124.650078 288.430125 
L 125.688972 288.430125 
L 125.688972 286.087492 
L 124.650078 286.087492 
z
" style="fill:#1f77b4;"/>
   </g>
   <g id="patch_64">
    <path clip-path="url(#p32ef790b79)" d="M 125.948696 288.430125 
L 126.98759 288.430125 
L 126.98759 288.430125 
L 125.948696 288.430125 
z
" style="fill:#1f77b4;"/>
   </g>
   <g id="patch_65">
    <path clip-path="url(#p32ef790b79)" d="M 127.247314 288.430125 
L 128.286209 288.430125 
L 128.286209 288.430125 
L 127.247314 288.430125 
z
" style="fill:#1f77b4;"/>
   </g>
   <g id="patch_66">
    <path clip-path="url(#p32ef790b79)" d="M 128.545932 288.430125 
L 129.584827 288.430125 
L 129.584827 286.842412 
L 128.545932 286.842412 
z
" style="fill:#1f77b4;"/>
   </g>
   <g id="patch_67">
    <path clip-path="url(#p32ef790b79)" d="M 129.84455 288.430125 
L 130.883445 288.430125 
L 130.883445 286.164653 
L 129.84455 286.164653 
z
" style="fill:#1f77b4;"/>
   </g>
   <g id="patch_68">
    <path clip-path="url(#p32ef790b79)" d="M 131.143169 288.430125 
L 132.182063 288.430125 
L 132.182063 284.12709 
L 131.143169 284.12709 
z
" style="fill:#1f77b4;"/>
   </g>
   <g id="patch_69">
    <path clip-path="url(#p32ef790b79)" d="M 132.441787 288.430125 
L 133.480681 288.430125 
L 133.480681 288.430125 
L 132.441787 288.430125 
z
" style="fill:#1f77b4;"/>
   </g>
   <g id="patch_70">
    <path clip-path="url(#p32ef790b79)" d="M 133.740405 288.430125 
L 134.7793 288.430125 
L 134.7793 288.430125 
L 133.740405 288.430125 
z
" style="fill:#1f77b4;"/>
   </g>
   <g id="patch_71">
    <path clip-path="url(#p32ef790b79)" d="M 135.039023 288.430125 
L 136.077918 288.430125 
L 136.077918 286.962981 
L 135.039023 286.962981 
z
" style="fill:#1f77b4;"/>
   </g>
   <g id="patch_72">
    <path clip-path="url(#p32ef790b79)" d="M 136.337641 288.430125 
L 137.376536 288.430125 
L 137.376536 288.430125 
L 136.337641 288.430125 
z
" style="fill:#1f77b4;"/>
   </g>
   <g id="patch_73">
    <path clip-path="url(#p32ef790b79)" d="M 137.63626 288.430125 
L 138.675154 288.430125 
L 138.675154 286.956695 
L 137.63626 286.956695 
z
" style="fill:#1f77b4;"/>
   </g>
   <g id="patch_74">
    <path clip-path="url(#p32ef790b79)" d="M 138.934878 288.430125 
L 139.973772 288.430125 
L 139.973772 288.430125 
L 138.934878 288.430125 
z
" style="fill:#1f77b4;"/>
   </g>
   <g id="patch_75">
    <path clip-path="url(#p32ef790b79)" d="M 140.233496 288.430125 
L 141.27239 288.430125 
L 141.27239 287.078322 
L 140.233496 287.078322 
z
" style="fill:#1f77b4;"/>
   </g>
   <g id="patch_76">
    <path clip-path="url(#p32ef790b79)" d="M 141.532114 288.430125 
L 142.571009 288.430125 
L 142.571009 288.430125 
L 141.532114 288.430125 
z
" style="fill:#1f77b4;"/>
   </g>
   <g id="patch_77">
    <path clip-path="url(#p32ef790b79)" d="M 142.830732 288.430125 
L 143.869627 288.430125 
L 143.869627 287.133373 
L 142.830732 287.133373 
z
" style="fill:#1f77b4;"/>
   </g>
   <g id="patch_78">
    <path clip-path="url(#p32ef790b79)" d="M 144.12935 288.430125 
L 145.168245 288.430125 
L 145.168245 288.430125 
L 144.12935 288.430125 
z
" style="fill:#1f77b4;"/>
   </g>
   <g id="patch_79">
    <path clip-path="url(#p32ef790b79)" d="M 145.427969 288.430125 
L 146.466863 288.430125 
L 146.466863 287.973784 
L 145.427969 287.973784 
z
" style="fill:#1f77b4;"/>
   </g>
   <g id="patch_80">
    <path clip-path="url(#p32ef790b79)" d="M 146.726587 288.430125 
L 147.765481 288.430125 
L 147.765481 287.835556 
L 146.726587 287.835556 
z
" style="fill:#1f77b4;"/>
   </g>
   <g id="patch_81">
    <path clip-path="url(#p32ef790b79)" d="M 148.025205 288.430125 
L 149.0641 288.430125 
L 149.0641 288.430125 
L 148.025205 288.430125 
z
" style="fill:#1f77b4;"/>
   </g>
   <g id="patch_82">
    <path clip-path="url(#p32ef790b79)" d="M 149.323823 288.430125 
L 150.362718 288.430125 
L 150.362718 288.430125 
L 149.323823 288.430125 
z
" style="fill:#1f77b4;"/>
   </g>
   <g id="patch_83">
    <path clip-path="url(#p32ef790b79)" d="M 150.622441 288.430125 
L 151.661336 288.430125 
L 151.661336 288.430125 
L 150.622441 288.430125 
z
" style="fill:#1f77b4;"/>
   </g>
   <g id="patch_84">
    <path clip-path="url(#p32ef790b79)" d="M 151.92106 288.430125 
L 152.959954 288.430125 
L 152.959954 288.430125 
L 151.92106 288.430125 
z
" style="fill:#1f77b4;"/>
   </g>
   <g id="patch_85">
    <path clip-path="url(#p32ef790b79)" d="M 153.219678 288.430125 
L 154.258572 288.430125 
L 154.258572 287.889404 
L 153.219678 287.889404 
z
" style="fill:#1f77b4;"/>
   </g>
   <g id="patch_86">
    <path clip-path="url(#p32ef790b79)" d="M 154.518296 288.430125 
L 155.55719 288.430125 
L 155.55719 287.972326 
L 154.518296 287.972326 
z
" style="fill:#1f77b4;"/>
   </g>
   <g id="patch_87">
    <path clip-path="url(#p32ef790b79)" d="M 155.816914 288.430125 
L 156.855809 288.430125 
L 156.855809 287.113515 
L 155.816914 287.113515 
z
" style="fill:#1f77b4;"/>
   </g>
   <g id="patch_88">
    <path clip-path="url(#p32ef790b79)" d="M 157.115532 288.430125 
L 158.154427 288.430125 
L 158.154427 288.430125 
L 157.115532 288.430125 
z
" style="fill:#1f77b4;"/>
   </g>
   <g id="patch_89">
    <path clip-path="url(#p32ef790b79)" d="M 158.41415 288.430125 
L 159.453045 288.430125 
L 159.453045 288.430125 
L 158.41415 288.430125 
z
" style="fill:#1f77b4;"/>
   </g>
   <g id="patch_90">
    <path clip-path="url(#p32ef790b79)" d="M 159.712769 288.430125 
L 160.751663 288.430125 
L 160.751663 288.430125 
L 159.712769 288.430125 
z
" style="fill:#1f77b4;"/>
   </g>
   <g id="patch_91">
    <path clip-path="url(#p32ef790b79)" d="M 161.011387 288.430125 
L 162.050281 288.430125 
L 162.050281 285.599684 
L 161.011387 285.599684 
z
" style="fill:#1f77b4;"/>
   </g>
   <g id="patch_92">
    <path clip-path="url(#p32ef790b79)" d="M 162.310005 288.430125 
L 163.3489 288.430125 
L 163.3489 287.06869 
L 162.310005 287.06869 
z
" style="fill:#1f77b4;"/>
   </g>
   <g id="patch_93">
    <path clip-path="url(#p32ef790b79)" d="M 163.608623 288.430125 
L 164.647518 288.430125 
L 164.647518 287.062191 
L 163.608623 287.062191 
z
" style="fill:#1f77b4;"/>
   </g>
   <g id="patch_94">
    <path clip-path="url(#p32ef790b79)" d="M 164.907241 288.430125 
L 165.946136 288.430125 
L 165.946136 287.090956 
L 164.907241 287.090956 
z
" style="fill:#1f77b4;"/>
   </g>
   <g id="patch_95">
    <path clip-path="url(#p32ef790b79)" d="M 166.20586 288.430125 
L 167.244754 288.430125 
L 167.244754 288.430125 
L 166.20586 288.430125 
z
" style="fill:#1f77b4;"/>
   </g>
   <g id="patch_96">
    <path clip-path="url(#p32ef790b79)" d="M 167.504478 288.430125 
L 168.543372 288.430125 
L 168.543372 288.430125 
L 167.504478 288.430125 
z
" style="fill:#1f77b4;"/>
   </g>
   <g id="patch_97">
    <path clip-path="url(#p32ef790b79)" d="M 168.803096 288.430125 
L 169.84199 288.430125 
L 169.84199 288.430125 
L 168.803096 288.430125 
z
" style="fill:#1f77b4;"/>
   </g>
   <g id="patch_98">
    <path clip-path="url(#p32ef790b79)" d="M 170.101714 288.430125 
L 171.140609 288.430125 
L 171.140609 286.80643 
L 170.101714 286.80643 
z
" style="fill:#1f77b4;"/>
   </g>
   <g id="patch_99">
    <path clip-path="url(#p32ef790b79)" d="M 171.400332 288.430125 
L 172.439227 288.430125 
L 172.439227 286.487195 
L 171.400332 286.487195 
z
" style="fill:#1f77b4;"/>
   </g>
   <g id="patch_100">
    <path clip-path="url(#p32ef790b79)" d="M 172.69895 288.430125 
L 173.737845 288.430125 
L 173.737845 286.373315 
L 172.69895 286.373315 
z
" style="fill:#1f77b4;"/>
   </g>
   <g id="patch_101">
    <path clip-path="url(#p32ef790b79)" d="M 173.997569 288.430125 
L 175.036463 288.430125 
L 175.036463 283.712723 
L 173.997569 283.712723 
z
" style="fill:#1f77b4;"/>
   </g>
   <g id="patch_102">
    <path clip-path="url(#p32ef790b79)" d="M 175.296187 288.430125 
L 176.335081 288.430125 
L 176.335081 261.486504 
L 175.296187 261.486504 
z
" style="fill:#1f77b4;"/>
   </g>
   <g id="patch_103">
    <path clip-path="url(#p32ef790b79)" d="M 176.594805 288.430125 
L 177.6337 288.430125 
L 177.6337 288.430125 
L 176.594805 288.430125 
z
" style="fill:#1f77b4;"/>
   </g>
   <g id="patch_104">
    <path clip-path="url(#p32ef790b79)" d="M 177.893423 288.430125 
L 178.932318 288.430125 
L 178.932318 287.448679 
L 177.893423 287.448679 
z
" style="fill:#1f77b4;"/>
   </g>
   <g id="patch_105">
    <path clip-path="url(#p32ef790b79)" d="M 179.192041 288.430125 
L 180.230936 288.430125 
L 180.230936 288.430125 
L 179.192041 288.430125 
z
" style="fill:#1f77b4;"/>
   </g>
   <g id="patch_106">
    <path clip-path="url(#p32ef790b79)" d="M 180.49066 288.430125 
L 181.529554 288.430125 
L 181.529554 288.430125 
L 180.49066 288.430125 
z
" style="fill:#1f77b4;"/>
   </g>
   <g id="patch_107">
    <path clip-path="url(#p32ef790b79)" d="M 181.789278 288.430125 
L 182.828172 288.430125 
L 182.828172 286.754206 
L 181.789278 286.754206 
z
" style="fill:#1f77b4;"/>
   </g>
   <g id="patch_108">
    <path clip-path="url(#p32ef790b79)" d="M 183.087896 288.430125 
L 184.12679 288.430125 
L 184.12679 287.292894 
L 183.087896 287.292894 
z
" style="fill:#1f77b4;"/>
   </g>
   <g id="patch_109">
    <path clip-path="url(#p32ef790b79)" d="M 184.386514 288.430125 
L 185.425409 288.430125 
L 185.425409 285.018433 
L 184.386514 285.018433 
z
" style="fill:#1f77b4;"/>
   </g>
   <g id="patch_110">
    <path clip-path="url(#p32ef790b79)" d="M 185.685132 288.430125 
L 186.724027 288.430125 
L 186.724027 288.430125 
L 185.685132 288.430125 
z
" style="fill:#1f77b4;"/>
   </g>
   <g id="patch_111">
    <path clip-path="url(#p32ef790b79)" d="M 186.98375 288.430125 
L 188.022645 288.430125 
L 188.022645 287.090956 
L 186.98375 287.090956 
z
" style="fill:#1f77b4;"/>
   </g>
   <g id="patch_112">
    <path clip-path="url(#p32ef790b79)" d="M 188.282369 288.430125 
L 189.321263 288.430125 
L 189.321263 287.465202 
L 188.282369 287.465202 
z
" style="fill:#1f77b4;"/>
   </g>
   <g id="patch_113">
    <path clip-path="url(#p32ef790b79)" d="M 189.580987 288.430125 
L 190.619881 288.430125 
L 190.619881 288.430125 
L 189.580987 288.430125 
z
" style="fill:#1f77b4;"/>
   </g>
   <g id="patch_114">
    <path clip-path="url(#p32ef790b79)" d="M 190.879605 288.430125 
L 191.9185 288.430125 
L 191.9185 285.315102 
L 190.879605 285.315102 
z
" style="fill:#1f77b4;"/>
   </g>
   <g id="patch_115">
    <path clip-path="url(#p32ef790b79)" d="M 192.178223 288.430125 
L 193.217118 288.430125 
L 193.217118 287.689603 
L 192.178223 287.689603 
z
" style="fill:#1f77b4;"/>
   </g>
   <g id="patch_116">
    <path clip-path="url(#p32ef790b79)" d="M 193.476841 288.430125 
L 194.515736 288.430125 
L 194.515736 288.430125 
L 193.476841 288.430125 
z
" style="fill:#1f77b4;"/>
   </g>
   <g id="patch_117">
    <path clip-path="url(#p32ef790b79)" d="M 194.77546 288.430125 
L 195.814354 288.430125 
L 195.814354 286.872613 
L 194.77546 286.872613 
z
" style="fill:#1f77b4;"/>
   </g>
   <g id="patch_118">
    <path clip-path="url(#p32ef790b79)" d="M 196.074078 288.430125 
L 197.112972 288.430125 
L 197.112972 287.223463 
L 196.074078 287.223463 
z
" style="fill:#1f77b4;"/>
   </g>
   <g id="patch_119">
    <path clip-path="url(#p32ef790b79)" d="M 197.372696 288.430125 
L 198.41159 288.430125 
L 198.41159 285.683331 
L 197.372696 285.683331 
z
" style="fill:#1f77b4;"/>
   </g>
   <g id="patch_120">
    <path clip-path="url(#p32ef790b79)" d="M 198.671314 288.430125 
L 199.710209 288.430125 
L 199.710209 284.619192 
L 198.671314 284.619192 
z
" style="fill:#1f77b4;"/>
   </g>
   <g id="patch_121">
    <path clip-path="url(#p32ef790b79)" d="M 199.969932 288.430125 
L 201.008827 288.430125 
L 201.008827 287.04567 
L 199.969932 287.04567 
z
" style="fill:#1f77b4;"/>
   </g>
   <g id="patch_122">
    <path clip-path="url(#p32ef790b79)" d="M 201.26855 288.430125 
L 202.307445 288.430125 
L 202.307445 285.407106 
L 201.26855 285.407106 
z
" style="fill:#1f77b4;"/>
   </g>
   <g id="patch_123">
    <path clip-path="url(#p32ef790b79)" d="M 202.567169 288.430125 
L 203.606063 288.430125 
L 203.606063 270.985994 
L 202.567169 270.985994 
z
" style="fill:#1f77b4;"/>
   </g>
   <g id="patch_124">
    <path clip-path="url(#p32ef790b79)" d="M 203.865787 288.430125 
L 204.904681 288.430125 
L 204.904681 287.932587 
L 203.865787 287.932587 
z
" style="fill:#1f77b4;"/>
   </g>
   <g id="patch_125">
    <path clip-path="url(#p32ef790b79)" d="M 205.164405 288.430125 
L 206.2033 288.430125 
L 206.2033 286.942674 
L 205.164405 286.942674 
z
" style="fill:#1f77b4;"/>
   </g>
   <g id="patch_126">
    <path clip-path="url(#p32ef790b79)" d="M 206.463023 288.430125 
L 207.501918 288.430125 
L 207.501918 287.930853 
L 206.463023 287.930853 
z
" style="fill:#1f77b4;"/>
   </g>
   <g id="patch_127">
    <path clip-path="url(#p32ef790b79)" d="M 207.761641 288.430125 
L 208.800536 288.430125 
L 208.800536 286.467234 
L 207.761641 286.467234 
z
" style="fill:#1f77b4;"/>
   </g>
   <g id="patch_128">
    <path clip-path="url(#p32ef790b79)" d="M 209.06026 288.430125 
L 210.099154 288.430125 
L 210.099154 287.948474 
L 209.06026 287.948474 
z
" style="fill:#1f77b4;"/>
   </g>
   <g id="patch_129">
    <path clip-path="url(#p32ef790b79)" d="M 210.358878 288.430125 
L 211.397772 288.430125 
L 211.397772 287.395532 
L 210.358878 287.395532 
z
" style="fill:#1f77b4;"/>
   </g>
   <g id="patch_130">
    <path clip-path="url(#p32ef790b79)" d="M 211.657496 288.430125 
L 212.69639 288.430125 
L 212.69639 288.430125 
L 211.657496 288.430125 
z
" style="fill:#1f77b4;"/>
   </g>
   <g id="patch_131">
    <path clip-path="url(#p32ef790b79)" d="M 212.956114 288.430125 
L 213.995009 288.430125 
L 213.995009 287.078322 
L 212.956114 287.078322 
z
" style="fill:#1f77b4;"/>
   </g>
   <g id="patch_132">
    <path clip-path="url(#p32ef790b79)" d="M 214.254732 288.430125 
L 215.293627 288.430125 
L 215.293627 288.430125 
L 214.254732 288.430125 
z
" style="fill:#1f77b4;"/>
   </g>
   <g id="patch_133">
    <path clip-path="url(#p32ef790b79)" d="M 215.55335 288.430125 
L 216.592245 288.430125 
L 216.592245 287.301849 
L 215.55335 287.301849 
z
" style="fill:#1f77b4;"/>
   </g>
   <g id="patch_134">
    <path clip-path="url(#p32ef790b79)" d="M 216.851969 288.430125 
L 217.890863 288.430125 
L 217.890863 288.065052 
L 216.851969 288.065052 
z
" style="fill:#1f77b4;"/>
   </g>
   <g id="patch_135">
    <path clip-path="url(#p32ef790b79)" d="M 218.150587 288.430125 
L 219.189481 288.430125 
L 219.189481 285.804945 
L 218.150587 285.804945 
z
" style="fill:#1f77b4;"/>
   </g>
   <g id="patch_136">
    <path clip-path="url(#p32ef790b79)" d="M 219.449205 288.430125 
L 220.4881 288.430125 
L 220.4881 285.685085 
L 219.449205 285.685085 
z
" style="fill:#1f77b4;"/>
   </g>
   <g id="patch_137">
    <path clip-path="url(#p32ef790b79)" d="M 220.747823 288.430125 
L 221.786718 288.430125 
L 221.786718 286.581208 
L 220.747823 286.581208 
z
" style="fill:#1f77b4;"/>
   </g>
   <g id="patch_138">
    <path clip-path="url(#p32ef790b79)" d="M 222.046441 288.430125 
L 223.085336 288.430125 
L 223.085336 299.34754 
L 222.046441 299.34754 
z
" style="fill:#1f77b4;"/>
   </g>
   <g id="patch_139">
    <path clip-path="url(#p32ef790b79)" d="M 223.34506 288.430125 
L 224.383954 288.430125 
L 224.383954 286.342095 
L 223.34506 286.342095 
z
" style="fill:#1f77b4;"/>
   </g>
   <g id="patch_140">
    <path clip-path="url(#p32ef790b79)" d="M 224.643678 288.430125 
L 225.682572 288.430125 
L 225.682572 285.455224 
L 224.643678 285.455224 
z
" style="fill:#1f77b4;"/>
   </g>
   <g id="patch_141">
    <path clip-path="url(#p32ef790b79)" d="M 225.942296 288.430125 
L 226.98119 288.430125 
L 226.98119 282.417912 
L 225.942296 282.417912 
z
" style="fill:#1f77b4;"/>
   </g>
   <g id="patch_142">
    <path clip-path="url(#p32ef790b79)" d="M 227.240914 288.430125 
L 228.279809 288.430125 
L 228.279809 284.40085 
L 227.240914 284.40085 
z
" style="fill:#1f77b4;"/>
   </g>
   <g id="patch_143">
    <path clip-path="url(#p32ef790b79)" d="M 228.539532 288.430125 
L 229.578427 288.430125 
L 229.578427 287.020705 
L 228.539532 287.020705 
z
" style="fill:#1f77b4;"/>
   </g>
   <g id="patch_144">
    <path clip-path="url(#p32ef790b79)" d="M 229.83815 288.430125 
L 230.877045 288.430125 
L 230.877045 283.807832 
L 229.83815 283.807832 
z
" style="fill:#1f77b4;"/>
   </g>
   <g id="patch_145">
    <path clip-path="url(#p32ef790b79)" d="M 231.136769 288.430125 
L 232.175663 288.430125 
L 232.175663 280.916735 
L 231.136769 280.916735 
z
" style="fill:#1f77b4;"/>
   </g>
   <g id="patch_146">
    <path clip-path="url(#p32ef790b79)" d="M 232.435387 288.430125 
L 233.474281 288.430125 
L 233.474281 286.56314 
L 232.435387 286.56314 
z
" style="fill:#1f77b4;"/>
   </g>
   <g id="patch_147">
    <path clip-path="url(#p32ef790b79)" d="M 233.734005 288.430125 
L 234.7729 288.430125 
L 234.7729 283.5728 
L 233.734005 283.5728 
z
" style="fill:#1f77b4;"/>
   </g>
   <g id="patch_148">
    <path clip-path="url(#p32ef790b79)" d="M 235.032623 288.430125 
L 236.071518 288.430125 
L 236.071518 286.641781 
L 235.032623 286.641781 
z
" style="fill:#1f77b4;"/>
   </g>
   <g id="patch_149">
    <path clip-path="url(#p32ef790b79)" d="M 236.331241 288.430125 
L 237.370136 288.430125 
L 237.370136 286.211997 
L 236.331241 286.211997 
z
" style="fill:#1f77b4;"/>
   </g>
   <g id="patch_150">
    <path clip-path="url(#p32ef790b79)" d="M 237.62986 288.430125 
L 238.668754 288.430125 
L 238.668754 285.230643 
L 237.62986 285.230643 
z
" style="fill:#1f77b4;"/>
   </g>
   <g id="patch_151">
    <path clip-path="url(#p32ef790b79)" d="M 238.928478 288.430125 
L 239.967372 288.430125 
L 239.967372 287.306273 
L 238.928478 287.306273 
z
" style="fill:#1f77b4;"/>
   </g>
   <g id="patch_152">
    <path clip-path="url(#p32ef790b79)" d="M 240.227096 288.430125 
L 241.26599 288.430125 
L 241.26599 287.402949 
L 240.227096 287.402949 
z
" style="fill:#1f77b4;"/>
   </g>
   <g id="patch_153">
    <path clip-path="url(#p32ef790b79)" d="M 241.525714 288.430125 
L 242.564609 288.430125 
L 242.564609 287.159251 
L 241.525714 287.159251 
z
" style="fill:#1f77b4;"/>
   </g>
   <g id="patch_154">
    <path clip-path="url(#p32ef790b79)" d="M 242.824332 288.430125 
L 243.863227 288.430125 
L 243.863227 287.956044 
L 242.824332 287.956044 
z
" style="fill:#1f77b4;"/>
   </g>
   <g id="patch_155">
    <path clip-path="url(#p32ef790b79)" d="M 244.12295 288.430125 
L 245.161845 288.430125 
L 245.161845 287.191297 
L 244.12295 287.191297 
z
" style="fill:#1f77b4;"/>
   </g>
   <g id="patch_156">
    <path clip-path="url(#p32ef790b79)" d="M 245.421569 288.430125 
L 246.460463 288.430125 
L 246.460463 285.288542 
L 245.421569 285.288542 
z
" style="fill:#1f77b4;"/>
   </g>
   <g id="patch_157">
    <path clip-path="url(#p32ef790b79)" d="M 246.720187 288.430125 
L 247.759081 288.430125 
L 247.759081 282.942382 
L 246.720187 282.942382 
z
" style="fill:#1f77b4;"/>
   </g>
   <g id="patch_158">
    <path clip-path="url(#p32ef790b79)" d="M 248.018805 288.430125 
L 249.0577 288.430125 
L 249.0577 286.80643 
L 248.018805 286.80643 
z
" style="fill:#1f77b4;"/>
   </g>
   <g id="patch_159">
    <path clip-path="url(#p32ef790b79)" d="M 249.317423 288.430125 
L 250.356318 288.430125 
L 250.356318 288.430125 
L 249.317423 288.430125 
z
" style="fill:#1f77b4;"/>
   </g>
   <g id="patch_160">
    <path clip-path="url(#p32ef790b79)" d="M 250.616041 288.430125 
L 251.654936 288.430125 
L 251.654936 285.983692 
L 250.616041 285.983692 
z
" style="fill:#1f77b4;"/>
   </g>
   <g id="patch_161">
    <path clip-path="url(#p32ef790b79)" d="M 251.91466 288.430125 
L 252.953554 288.430125 
L 252.953554 280.048196 
L 251.91466 280.048196 
z
" style="fill:#1f77b4;"/>
   </g>
   <g id="patch_162">
    <path clip-path="url(#p32ef790b79)" d="M 253.213278 288.430125 
L 254.252172 288.430125 
L 254.252172 286.703726 
L 253.213278 286.703726 
z
" style="fill:#1f77b4;"/>
   </g>
   <g id="patch_163">
    <path clip-path="url(#p32ef790b79)" d="M 254.511896 288.430125 
L 255.55079 288.430125 
L 255.55079 284.494233 
L 254.511896 284.494233 
z
" style="fill:#1f77b4;"/>
   </g>
   <g id="patch_164">
    <path clip-path="url(#p32ef790b79)" d="M 255.810514 288.430125 
L 256.849409 288.430125 
L 256.849409 281.010522 
L 255.810514 281.010522 
z
" style="fill:#1f77b4;"/>
   </g>
   <g id="patch_165">
    <path clip-path="url(#p32ef790b79)" d="M 257.109132 288.430125 
L 258.148027 288.430125 
L 258.148027 276.148033 
L 257.109132 276.148033 
z
" style="fill:#1f77b4;"/>
   </g>
   <g id="patch_166">
    <path clip-path="url(#p32ef790b79)" d="M 258.40775 288.430125 
L 259.446645 288.430125 
L 259.446645 280.975676 
L 258.40775 280.975676 
z
" style="fill:#1f77b4;"/>
   </g>
   <g id="patch_167">
    <path clip-path="url(#p32ef790b79)" d="M 259.706369 288.430125 
L 260.745263 288.430125 
L 260.745263 286.661099 
L 259.706369 286.661099 
z
" style="fill:#1f77b4;"/>
   </g>
   <g id="patch_168">
    <path clip-path="url(#p32ef790b79)" d="M 261.004987 288.430125 
L 262.043881 288.430125 
L 262.043881 282.907128 
L 261.004987 282.907128 
z
" style="fill:#1f77b4;"/>
   </g>
   <g id="patch_169">
    <path clip-path="url(#p32ef790b79)" d="M 262.303605 288.430125 
L 263.3425 288.430125 
L 263.3425 285.323543 
L 262.303605 285.323543 
z
" style="fill:#1f77b4;"/>
   </g>
   <g id="patch_170">
    <path clip-path="url(#p32ef790b79)" d="M 263.602223 288.430125 
L 264.641118 288.430125 
L 264.641118 284.847848 
L 263.602223 284.847848 
z
" style="fill:#1f77b4;"/>
   </g>
   <g id="patch_171">
    <path clip-path="url(#p32ef790b79)" d="M 264.900841 288.430125 
L 265.939736 288.430125 
L 265.939736 283.69323 
L 264.900841 283.69323 
z
" style="fill:#1f77b4;"/>
   </g>
   <g id="patch_172">
    <path clip-path="url(#p32ef790b79)" d="M 266.19946 288.430125 
L 267.238354 288.430125 
L 267.238354 286.317726 
L 266.19946 286.317726 
z
" style="fill:#1f77b4;"/>
   </g>
   <g id="patch_173">
    <path clip-path="url(#p32ef790b79)" d="M 267.498078 288.430125 
L 268.536972 288.430125 
L 268.536972 277.504706 
L 267.498078 277.504706 
z
" style="fill:#1f77b4;"/>
   </g>
   <g id="patch_174">
    <path clip-path="url(#p32ef790b79)" d="M 268.796696 288.430125 
L 269.83559 288.430125 
L 269.83559 283.547976 
L 268.796696 283.547976 
z
" style="fill:#1f77b4;"/>
   </g>
   <g id="patch_175">
    <path clip-path="url(#p32ef790b79)" d="M 270.095314 288.430125 
L 271.134209 288.430125 
L 271.134209 286.109622 
L 270.095314 286.109622 
z
" style="fill:#1f77b4;"/>
   </g>
   <g id="patch_176">
    <path clip-path="url(#p32ef790b79)" d="M 271.393932 288.430125 
L 272.432827 288.430125 
L 272.432827 281.199841 
L 271.393932 281.199841 
z
" style="fill:#1f77b4;"/>
   </g>
   <g id="patch_177">
    <path clip-path="url(#p32ef790b79)" d="M 272.69255 288.430125 
L 273.731445 288.430125 
L 273.731445 278.765331 
L 272.69255 278.765331 
z
" style="fill:#1f77b4;"/>
   </g>
   <g id="patch_178">
    <path clip-path="url(#p32ef790b79)" d="M 273.991169 288.430125 
L 275.030063 288.430125 
L 275.030063 280.916735 
L 273.991169 280.916735 
z
" style="fill:#1f77b4;"/>
   </g>
   <g id="patch_179">
    <path clip-path="url(#p32ef790b79)" d="M 275.289787 288.430125 
L 276.328681 288.430125 
L 276.328681 288.430125 
L 275.289787 288.430125 
z
" style="fill:#1f77b4;"/>
   </g>
   <g id="patch_180">
    <path clip-path="url(#p32ef790b79)" d="M 276.588405 288.430125 
L 277.6273 288.430125 
L 277.6273 285.788815 
L 276.588405 285.788815 
z
" style="fill:#1f77b4;"/>
   </g>
   <g id="patch_181">
    <path clip-path="url(#p32ef790b79)" d="M 277.887023 288.430125 
L 278.925918 288.430125 
L 278.925918 282.447199 
L 277.887023 282.447199 
z
" style="fill:#1f77b4;"/>
   </g>
   <g id="patch_182">
    <path clip-path="url(#p32ef790b79)" d="M 279.185641 288.430125 
L 280.224536 288.430125 
L 280.224536 278.649164 
L 279.185641 278.649164 
z
" style="fill:#1f77b4;"/>
   </g>
   <g id="patch_183">
    <path clip-path="url(#p32ef790b79)" d="M 280.48426 288.430125 
L 281.523154 288.430125 
L 281.523154 274.907192 
L 280.48426 274.907192 
z
" style="fill:#1f77b4;"/>
   </g>
   <g id="patch_184">
    <path clip-path="url(#p32ef790b79)" d="M 281.782878 288.430125 
L 282.821772 288.430125 
L 282.821772 279.2448 
L 281.782878 279.2448 
z
" style="fill:#1f77b4;"/>
   </g>
   <g id="patch_185">
    <path clip-path="url(#p32ef790b79)" d="M 283.081496 288.430125 
L 284.12039 288.430125 
L 284.12039 273.695824 
L 283.081496 273.695824 
z
" style="fill:#1f77b4;"/>
   </g>
   <g id="patch_186">
    <path clip-path="url(#p32ef790b79)" d="M 284.380114 288.430125 
L 285.419009 288.430125 
L 285.419009 283.653756 
L 284.380114 283.653756 
z
" style="fill:#1f77b4;"/>
   </g>
   <g id="patch_187">
    <path clip-path="url(#p32ef790b79)" d="M 285.678732 288.430125 
L 286.717627 288.430125 
L 286.717627 274.844966 
L 285.678732 274.844966 
z
" style="fill:#1f77b4;"/>
   </g>
   <g id="patch_188">
    <path clip-path="url(#p32ef790b79)" d="M 286.97735 288.430125 
L 288.016245 288.430125 
L 288.016245 283.155607 
L 286.97735 283.155607 
z
" style="fill:#1f77b4;"/>
   </g>
   <g id="patch_189">
    <path clip-path="url(#p32ef790b79)" d="M 288.275969 288.430125 
L 289.314863 288.430125 
L 289.314863 283.822695 
L 288.275969 283.822695 
z
" style="fill:#1f77b4;"/>
   </g>
   <g id="patch_190">
    <path clip-path="url(#p32ef790b79)" d="M 289.574587 288.430125 
L 290.613481 288.430125 
L 290.613481 267.878417 
L 289.574587 267.878417 
z
" style="fill:#1f77b4;"/>
   </g>
   <g id="patch_191">
    <path clip-path="url(#p32ef790b79)" d="M 290.873205 288.430125 
L 291.9121 288.430125 
L 291.9121 282.711678 
L 290.873205 282.711678 
z
" style="fill:#1f77b4;"/>
   </g>
   <g id="patch_192">
    <path clip-path="url(#p32ef790b79)" d="M 292.171823 288.430125 
L 293.210718 288.430125 
L 293.210718 280.099248 
L 292.171823 280.099248 
z
" style="fill:#1f77b4;"/>
   </g>
   <g id="patch_193">
    <path clip-path="url(#p32ef790b79)" d="M 293.470441 288.430125 
L 294.509336 288.430125 
L 294.509336 278.267637 
L 293.470441 278.267637 
z
" style="fill:#1f77b4;"/>
   </g>
   <g id="patch_194">
    <path clip-path="url(#p32ef790b79)" d="M 294.76906 288.430125 
L 295.807954 288.430125 
L 295.807954 283.110735 
L 294.76906 283.110735 
z
" style="fill:#1f77b4;"/>
   </g>
   <g id="patch_195">
    <path clip-path="url(#p32ef790b79)" d="M 296.067678 288.430125 
L 297.106572 288.430125 
L 297.106572 275.462607 
L 296.067678 275.462607 
z
" style="fill:#1f77b4;"/>
   </g>
   <g id="patch_196">
    <path clip-path="url(#p32ef790b79)" d="M 297.366296 288.430125 
L 298.40519 288.430125 
L 298.40519 277.916921 
L 297.366296 277.916921 
z
" style="fill:#1f77b4;"/>
   </g>
   <g id="patch_197">
    <path clip-path="url(#p32ef790b79)" d="M 298.664914 288.430125 
L 299.703809 288.430125 
L 299.703809 274.65723 
L 298.664914 274.65723 
z
" style="fill:#1f77b4;"/>
   </g>
   <g id="patch_198">
    <path clip-path="url(#p32ef790b79)" d="M 299.963532 288.430125 
L 301.002427 288.430125 
L 301.002427 276.489202 
L 299.963532 276.489202 
z
" style="fill:#1f77b4;"/>
   </g>
   <g id="patch_199">
    <path clip-path="url(#p32ef790b79)" d="M 301.26215 288.430125 
L 302.301045 288.430125 
L 302.301045 279.21257 
L 301.26215 279.21257 
z
" style="fill:#1f77b4;"/>
   </g>
   <g id="patch_200">
    <path clip-path="url(#p32ef790b79)" d="M 302.560769 288.430125 
L 303.599663 288.430125 
L 303.599663 270.696081 
L 302.560769 270.696081 
z
" style="fill:#1f77b4;"/>
   </g>
   <g id="patch_201">
    <path clip-path="url(#p32ef790b79)" d="M 303.859387 288.430125 
L 304.898281 288.430125 
L 304.898281 283.712723 
L 303.859387 283.712723 
z
" style="fill:#1f77b4;"/>
   </g>
   <g id="patch_202">
    <path clip-path="url(#p32ef790b79)" d="M 305.158005 288.430125 
L 306.1969 288.430125 
L 306.1969 281.460316 
L 305.158005 281.460316 
z
" style="fill:#1f77b4;"/>
   </g>
   <g id="patch_203">
    <path clip-path="url(#p32ef790b79)" d="M 306.456623 288.430125 
L 307.495518 288.430125 
L 307.495518 279.396557 
L 306.456623 279.396557 
z
" style="fill:#1f77b4;"/>
   </g>
   <g id="patch_204">
    <path clip-path="url(#p32ef790b79)" d="M 307.755241 288.430125 
L 308.794136 288.430125 
L 308.794136 281.284376 
L 307.755241 281.284376 
z
" style="fill:#1f77b4;"/>
   </g>
   <g id="patch_205">
    <path clip-path="url(#p32ef790b79)" d="M 309.05386 288.430125 
L 310.092754 288.430125 
L 310.092754 277.815971 
L 309.05386 277.815971 
z
" style="fill:#1f77b4;"/>
   </g>
   <g id="patch_206">
    <path clip-path="url(#p32ef790b79)" d="M 310.352478 288.430125 
L 311.391372 288.430125 
L 311.391372 269.560518 
L 310.352478 269.560518 
z
" style="fill:#1f77b4;"/>
   </g>
   <g id="patch_207">
    <path clip-path="url(#p32ef790b79)" d="M 311.651096 288.430125 
L 312.68999 288.430125 
L 312.68999 273.439674 
L 311.651096 273.439674 
z
" style="fill:#1f77b4;"/>
   </g>
   <g id="patch_208">
    <path clip-path="url(#p32ef790b79)" d="M 312.949714 288.430125 
L 313.988609 288.430125 
L 313.988609 279.255178 
L 312.949714 279.255178 
z
" style="fill:#1f77b4;"/>
   </g>
   <g id="patch_209">
    <path clip-path="url(#p32ef790b79)" d="M 314.248332 288.430125 
L 315.287227 288.430125 
L 315.287227 268.776735 
L 314.248332 268.776735 
z
" style="fill:#1f77b4;"/>
   </g>
   <g id="patch_210">
    <path clip-path="url(#p32ef790b79)" d="M 315.54695 288.430125 
L 316.585845 288.430125 
L 316.585845 270.51874 
L 315.54695 270.51874 
z
" style="fill:#1f77b4;"/>
   </g>
   <g id="patch_211">
    <path clip-path="url(#p32ef790b79)" d="M 316.845569 288.430125 
L 317.884463 288.430125 
L 317.884463 257.319674 
L 316.845569 257.319674 
z
" style="fill:#1f77b4;"/>
   </g>
   <g id="patch_212">
    <path clip-path="url(#p32ef790b79)" d="M 318.144187 288.430125 
L 319.183081 288.430125 
L 319.183081 260.647661 
L 318.144187 260.647661 
z
" style="fill:#1f77b4;"/>
   </g>
   <g id="patch_213">
    <path clip-path="url(#p32ef790b79)" d="M 319.442805 288.430125 
L 320.4817 288.430125 
L 320.4817 258.035048 
L 319.442805 258.035048 
z
" style="fill:#1f77b4;"/>
   </g>
   <g id="patch_214">
    <path clip-path="url(#p32ef790b79)" d="M 320.741423 288.430125 
L 321.780318 288.430125 
L 321.780318 263.143464 
L 320.741423 263.143464 
z
" style="fill:#1f77b4;"/>
   </g>
   <g id="patch_215">
    <path clip-path="url(#p32ef790b79)" d="M 322.040041 288.430125 
L 323.078936 288.430125 
L 323.078936 265.664253 
L 322.040041 265.664253 
z
" style="fill:#1f77b4;"/>
   </g>
   <g id="patch_216">
    <path clip-path="url(#p32ef790b79)" d="M 323.33866 288.430125 
L 324.377554 288.430125 
L 324.377554 238.659555 
L 323.33866 238.659555 
z
" style="fill:#1f77b4;"/>
   </g>
   <g id="patch_217">
    <path clip-path="url(#p32ef790b79)" d="M 324.637278 288.430125 
L 325.676172 288.430125 
L 325.676172 257.155012 
L 324.637278 257.155012 
z
" style="fill:#1f77b4;"/>
   </g>
   <g id="patch_218">
    <path clip-path="url(#p32ef790b79)" d="M 325.935896 288.430125 
L 326.97479 288.430125 
L 326.97479 254.496253 
L 325.935896 254.496253 
z
" style="fill:#1f77b4;"/>
   </g>
   <g id="patch_219">
    <path clip-path="url(#p32ef790b79)" d="M 327.234514 288.430125 
L 328.273409 288.430125 
L 328.273409 241.721151 
L 327.234514 241.721151 
z
" style="fill:#1f77b4;"/>
   </g>
   <g id="patch_220">
    <path clip-path="url(#p32ef790b79)" d="M 328.533132 288.430125 
L 329.572027 288.430125 
L 329.572027 239.473533 
L 328.533132 239.473533 
z
" style="fill:#1f77b4;"/>
   </g>
   <g id="patch_221">
    <path clip-path="url(#p32ef790b79)" d="M 329.83175 288.430125 
L 330.870645 288.430125 
L 330.870645 257.359356 
L 329.83175 257.359356 
z
" style="fill:#1f77b4;"/>
   </g>
   <g id="patch_222">
    <path clip-path="url(#p32ef790b79)" d="M 331.130369 288.430125 
L 332.169263 288.430125 
L 332.169263 229.419613 
L 331.130369 229.419613 
z
" style="fill:#1f77b4;"/>
   </g>
   <g id="patch_223">
    <path clip-path="url(#p32ef790b79)" d="M 332.428987 288.430125 
L 333.467881 288.430125 
L 333.467881 229.104794 
L 332.428987 229.104794 
z
" style="fill:#1f77b4;"/>
   </g>
   <g id="patch_224">
    <path clip-path="url(#p32ef790b79)" d="M 333.727605 288.430125 
L 334.7665 288.430125 
L 334.7665 225.843218 
L 333.727605 225.843218 
z
" style="fill:#1f77b4;"/>
   </g>
   <g id="patch_225">
    <path clip-path="url(#p32ef790b79)" d="M 335.026223 288.430125 
L 336.065118 288.430125 
L 336.065118 239.853818 
L 335.026223 239.853818 
z
" style="fill:#1f77b4;"/>
   </g>
   <g id="patch_226">
    <path clip-path="url(#p32ef790b79)" d="M 336.324841 288.430125 
L 337.363736 288.430125 
L 337.363736 217.929897 
L 336.324841 217.929897 
z
" style="fill:#1f77b4;"/>
   </g>
   <g id="patch_227">
    <path clip-path="url(#p32ef790b79)" d="M 337.62346 288.430125 
L 338.662354 288.430125 
L 338.662354 215.438878 
L 337.62346 215.438878 
z
" style="fill:#1f77b4;"/>
   </g>
   <g id="patch_228">
    <path clip-path="url(#p32ef790b79)" d="M 338.922078 288.430125 
L 339.960972 288.430125 
L 339.960972 209.937914 
L 338.922078 209.937914 
z
" style="fill:#1f77b4;"/>
   </g>
   <g id="patch_229">
    <path clip-path="url(#p32ef790b79)" d="M 340.220696 288.430125 
L 341.25959 288.430125 
L 341.25959 219.35355 
L 340.220696 219.35355 
z
" style="fill:#1f77b4;"/>
   </g>
   <g id="patch_230">
    <path clip-path="url(#p32ef790b79)" d="M 341.519314 288.430125 
L 342.558209 288.430125 
L 342.558209 227.455199 
L 341.519314 227.455199 
z
" style="fill:#1f77b4;"/>
   </g>
   <g id="patch_231">
    <path clip-path="url(#p32ef790b79)" d="M 342.817932 288.430125 
L 343.856827 288.430125 
L 343.856827 217.4397 
L 342.817932 217.4397 
z
" style="fill:#1f77b4;"/>
   </g>
   <g id="patch_232">
    <path clip-path="url(#p32ef790b79)" d="M 344.11655 288.430125 
L 345.155445 288.430125 
L 345.155445 205.397216 
L 344.11655 205.397216 
z
" style="fill:#1f77b4;"/>
   </g>
   <g id="patch_233">
    <path clip-path="url(#p32ef790b79)" d="M 345.415169 288.430125 
L 346.454063 288.430125 
L 346.454063 181.935262 
L 345.415169 181.935262 
z
" style="fill:#1f77b4;"/>
   </g>
   <g id="patch_234">
    <path clip-path="url(#p32ef790b79)" d="M 346.713787 288.430125 
L 347.752681 288.430125 
L 347.752681 185.167729 
L 346.713787 185.167729 
z
" style="fill:#1f77b4;"/>
   </g>
   <g id="patch_235">
    <path clip-path="url(#p32ef790b79)" d="M 348.012405 288.430125 
L 349.0513 288.430125 
L 349.0513 159.320433 
L 348.012405 159.320433 
z
" style="fill:#1f77b4;"/>
   </g>
   <g id="patch_236">
    <path clip-path="url(#p32ef790b79)" d="M 349.311023 288.430125 
L 350.349918 288.430125 
L 350.349918 154.979357 
L 349.311023 154.979357 
z
" style="fill:#1f77b4;"/>
   </g>
   <g id="patch_237">
    <path clip-path="url(#p32ef790b79)" d="M 350.609641 288.430125 
L 351.648536 288.430125 
L 351.648536 189.868031 
L 350.609641 189.868031 
z
" style="fill:#1f77b4;"/>
   </g>
   <g id="patch_238">
    <path clip-path="url(#p32ef790b79)" d="M 351.90826 288.430125 
L 352.947154 288.430125 
L 352.947154 157.430964 
L 351.90826 157.430964 
z
" style="fill:#1f77b4;"/>
   </g>
   <g id="patch_239">
    <path clip-path="url(#p32ef790b79)" d="M 353.206878 288.430125 
L 354.245772 288.430125 
L 354.245772 134.432771 
L 353.206878 134.432771 
z
" style="fill:#1f77b4;"/>
   </g>
   <g id="patch_240">
    <path clip-path="url(#p32ef790b79)" d="M 354.505496 288.430125 
L 355.54439 288.430125 
L 355.54439 156.476177 
L 354.505496 156.476177 
z
" style="fill:#1f77b4;"/>
   </g>
   <g id="patch_241">
    <path clip-path="url(#p32ef790b79)" d="M 355.804114 288.430125 
L 356.843009 288.430125 
L 356.843009 79.642194 
L 355.804114 79.642194 
z
" style="fill:#1f77b4;"/>
   </g>
   <g id="patch_242">
    <path clip-path="url(#p32ef790b79)" d="M 357.102732 288.430125 
L 358.141627 288.430125 
L 358.141627 166.742291 
L 357.102732 166.742291 
z
" style="fill:#1f77b4;"/>
   </g>
   <g id="patch_243">
    <path clip-path="url(#p32ef790b79)" d="M 358.40135 288.430125 
L 359.440245 288.430125 
L 359.440245 152.737817 
L 358.40135 152.737817 
z
" style="fill:#1f77b4;"/>
   </g>
   <g id="patch_244">
    <path clip-path="url(#p32ef790b79)" d="M 359.699969 288.430125 
L 360.738863 288.430125 
L 360.738863 147.870136 
L 359.699969 147.870136 
z
" style="fill:#1f77b4;"/>
   </g>
   <g id="patch_245">
    <path clip-path="url(#p32ef790b79)" d="M 360.998587 288.430125 
L 362.037481 288.430125 
L 362.037481 149.638768 
L 360.998587 149.638768 
z
" style="fill:#1f77b4;"/>
   </g>
   <g id="patch_246">
    <path clip-path="url(#p32ef790b79)" d="M 362.297205 288.430125 
L 363.3361 288.430125 
L 363.3361 95.175712 
L 362.297205 95.175712 
z
" style="fill:#1f77b4;"/>
   </g>
   <g id="patch_247">
    <path clip-path="url(#p32ef790b79)" d="M 363.595823 288.430125 
L 364.634718 288.430125 
L 364.634718 105.166282 
L 363.595823 105.166282 
z
" style="fill:#1f77b4;"/>
   </g>
   <g id="patch_248">
    <path clip-path="url(#p32ef790b79)" d="M 364.894441 288.430125 
L 365.933336 288.430125 
L 365.933336 94.910133 
L 364.894441 94.910133 
z
" style="fill:#1f77b4;"/>
   </g>
   <g id="patch_249">
    <path clip-path="url(#p32ef790b79)" d="M 366.19306 288.430125 
L 367.231954 288.430125 
L 367.231954 103.054748 
L 366.19306 103.054748 
z
" style="fill:#1f77b4;"/>
   </g>
   <g id="patch_250">
    <path clip-path="url(#p32ef790b79)" d="M 367.491678 288.430125 
L 368.530572 288.430125 
L 368.530572 121.526749 
L 367.491678 121.526749 
z
" style="fill:#1f77b4;"/>
   </g>
   <g id="patch_251">
    <path clip-path="url(#p32ef790b79)" d="M 368.790296 288.430125 
L 369.82919 288.430125 
L 369.82919 143.011582 
L 368.790296 143.011582 
z
" style="fill:#1f77b4;"/>
   </g>
   <g id="patch_252">
    <path clip-path="url(#p32ef790b79)" d="M 370.088914 288.430125 
L 371.127809 288.430125 
L 371.127809 120.815689 
L 370.088914 120.815689 
z
" style="fill:#1f77b4;"/>
   </g>
   <g id="patch_253">
    <path clip-path="url(#p32ef790b79)" d="M 371.387532 288.430125 
L 372.426427 288.430125 
L 372.426427 97.720844 
L 371.387532 97.720844 
z
" style="fill:#1f77b4;"/>
   </g>
   <g id="patch_254">
    <path clip-path="url(#p32ef790b79)" d="M 372.68615 288.430125 
L 373.725045 288.430125 
L 373.725045 134.008276 
L 372.68615 134.008276 
z
" style="fill:#1f77b4;"/>
   </g>
   <g id="patch_255">
    <path clip-path="url(#p32ef790b79)" d="M 373.984769 288.430125 
L 375.023663 288.430125 
L 375.023663 125.495532 
L 373.984769 125.495532 
z
" style="fill:#1f77b4;"/>
   </g>
   <g id="patch_256">
    <path clip-path="url(#p32ef790b79)" d="M 375.283387 288.430125 
L 376.322281 288.430125 
L 376.322281 117.92358 
L 375.283387 117.92358 
z
" style="fill:#1f77b4;"/>
   </g>
   <g id="patch_257">
    <path clip-path="url(#p32ef790b79)" d="M 376.582005 288.430125 
L 377.6209 288.430125 
L 377.6209 154.356603 
L 376.582005 154.356603 
z
" style="fill:#1f77b4;"/>
   </g>
   <g id="patch_258">
    <path clip-path="url(#p32ef790b79)" d="M 377.880623 288.430125 
L 378.919518 288.430125 
L 378.919518 128.488203 
L 377.880623 128.488203 
z
" style="fill:#1f77b4;"/>
   </g>
   <g id="patch_259">
    <path clip-path="url(#p32ef790b79)" d="M 379.179241 288.430125 
L 380.218136 288.430125 
L 380.218136 124.025432 
L 379.179241 124.025432 
z
" style="fill:#1f77b4;"/>
   </g>
   <g id="patch_260">
    <path clip-path="url(#p32ef790b79)" d="M 380.47786 288.430125 
L 381.516754 288.430125 
L 381.516754 75.95511 
L 380.47786 75.95511 
z
" style="fill:#1f77b4;"/>
   </g>
   <g id="patch_261">
    <path clip-path="url(#p32ef790b79)" d="M 381.776478 288.430125 
L 382.815372 288.430125 
L 382.815372 22.318125 
L 381.776478 22.318125 
z
" style="fill:#1f77b4;"/>
   </g>
   <g id="patch_262">
    <path clip-path="url(#p32ef790b79)" d="M 383.075096 288.430125 
L 384.11399 288.430125 
L 384.11399 169.157362 
L 383.075096 169.157362 
z
" style="fill:#1f77b4;"/>
   </g>
   <g id="patch_263">
    <path clip-path="url(#p32ef790b79)" d="M 384.373714 288.430125 
L 385.412609 288.430125 
L 385.412609 139.015498 
L 384.373714 139.015498 
z
" style="fill:#1f77b4;"/>
   </g>
   <g id="patch_264">
    <path clip-path="url(#p32ef790b79)" d="M 385.672332 288.430125 
L 386.711227 288.430125 
L 386.711227 181.952961 
L 385.672332 181.952961 
z
" style="fill:#1f77b4;"/>
   </g>
   <g id="patch_265">
    <path clip-path="url(#p32ef790b79)" d="M 386.97095 288.430125 
L 388.009845 288.430125 
L 388.009845 127.639784 
L 386.97095 127.639784 
z
" style="fill:#1f77b4;"/>
   </g>
   <g id="patch_266">
    <path clip-path="url(#p32ef790b79)" d="M 388.269569 288.430125 
L 389.308463 288.430125 
L 389.308463 114.715821 
L 388.269569 114.715821 
z
" style="fill:#1f77b4;"/>
   </g>
   <g id="patch_267">
    <path clip-path="url(#p32ef790b79)" d="M 389.568187 288.430125 
L 390.607081 288.430125 
L 390.607081 154.315324 
L 389.568187 154.315324 
z
" style="fill:#1f77b4;"/>
   </g>
   <g id="patch_268">
    <path clip-path="url(#p32ef790b79)" d="M 390.866805 288.430125 
L 391.9057 288.430125 
L 391.9057 148.557 
L 390.866805 148.557 
z
" style="fill:#1f77b4;"/>
   </g>
   <g id="patch_269">
    <path clip-path="url(#p32ef790b79)" d="M 392.165423 288.430125 
L 393.204318 288.430125 
L 393.204318 151.489134 
L 392.165423 151.489134 
z
" style="fill:#1f77b4;"/>
   </g>
   <g id="patch_270">
    <path clip-path="url(#p32ef790b79)" d="M 393.464041 288.430125 
L 394.502936 288.430125 
L 394.502936 173.597555 
L 393.464041 173.597555 
z
" style="fill:#1f77b4;"/>
   </g>
   <g id="patch_271">
    <path clip-path="url(#p32ef790b79)" d="M 394.76266 288.430125 
L 395.801554 288.430125 
L 395.801554 195.261441 
L 394.76266 195.261441 
z
" style="fill:#1f77b4;"/>
   </g>
   <g id="patch_272">
    <path clip-path="url(#p32ef790b79)" d="M 396.061278 288.430125 
L 397.100172 288.430125 
L 397.100172 149.335858 
L 396.061278 149.335858 
z
" style="fill:#1f77b4;"/>
   </g>
   <g id="patch_273">
    <path clip-path="url(#p32ef790b79)" d="M 397.359896 288.430125 
L 398.39879 288.430125 
L 398.39879 161.98158 
L 397.359896 161.98158 
z
" style="fill:#1f77b4;"/>
   </g>
   <g id="patch_274">
    <path clip-path="url(#p32ef790b79)" d="M 398.658514 288.430125 
L 399.697409 288.430125 
L 399.697409 113.988814 
L 398.658514 113.988814 
z
" style="fill:#1f77b4;"/>
   </g>
   <g id="patch_275">
    <path clip-path="url(#p32ef790b79)" d="M 399.957132 288.430125 
L 400.996027 288.430125 
L 400.996027 182.131107 
L 399.957132 182.131107 
z
" style="fill:#1f77b4;"/>
   </g>
   <g id="patch_276">
    <path clip-path="url(#p32ef790b79)" d="M 401.25575 288.430125 
L 402.294645 288.430125 
L 402.294645 152.195048 
L 401.25575 152.195048 
z
" style="fill:#1f77b4;"/>
   </g>
   <g id="patch_277">
    <path clip-path="url(#p32ef790b79)" d="M 402.554369 288.430125 
L 403.593263 288.430125 
L 403.593263 227.148407 
L 402.554369 227.148407 
z
" style="fill:#1f77b4;"/>
   </g>
   <g id="matplotlib.axis_1">
    <g id="xtick_1">
     <g id="line2d_1">
      <defs>
       <path d="M 0 0 
L 0 3.5 
" id="m8d69a218f8" style="stroke:#000000;stroke-width:0.8;"/>
      </defs>
      <g>
       <use style="stroke:#000000;stroke-width:0.8;" x="69.328943" xlink:href="#m8d69a218f8" y="288.430125"/>
      </g>
     </g>
     <g id="text_1">
      <!-- 2020-04 -->
      <g transform="translate(72.088318 337.212937)rotate(-90)scale(0.1 -0.1)">
       <defs>
        <path d="M 19.1875 8.296875 
L 53.609375 8.296875 
L 53.609375 0 
L 7.328125 0 
L 7.328125 8.296875 
Q 12.9375 14.109375 22.625 23.890625 
Q 32.328125 33.6875 34.8125 36.53125 
Q 39.546875 41.84375 41.421875 45.53125 
Q 43.3125 49.21875 43.3125 52.78125 
Q 43.3125 58.59375 39.234375 62.25 
Q 35.15625 65.921875 28.609375 65.921875 
Q 23.96875 65.921875 18.8125 64.3125 
Q 13.671875 62.703125 7.8125 59.421875 
L 7.8125 69.390625 
Q 13.765625 71.78125 18.9375 73 
Q 24.125 74.21875 28.421875 74.21875 
Q 39.75 74.21875 46.484375 68.546875 
Q 53.21875 62.890625 53.21875 53.421875 
Q 53.21875 48.921875 51.53125 44.890625 
Q 49.859375 40.875 45.40625 35.40625 
Q 44.1875 33.984375 37.640625 27.21875 
Q 31.109375 20.453125 19.1875 8.296875 
z
" id="DejaVuSans-50"/>
        <path d="M 31.78125 66.40625 
Q 24.171875 66.40625 20.328125 58.90625 
Q 16.5 51.421875 16.5 36.375 
Q 16.5 21.390625 20.328125 13.890625 
Q 24.171875 6.390625 31.78125 6.390625 
Q 39.453125 6.390625 43.28125 13.890625 
Q 47.125 21.390625 47.125 36.375 
Q 47.125 51.421875 43.28125 58.90625 
Q 39.453125 66.40625 31.78125 66.40625 
z
M 31.78125 74.21875 
Q 44.046875 74.21875 50.515625 64.515625 
Q 56.984375 54.828125 56.984375 36.375 
Q 56.984375 17.96875 50.515625 8.265625 
Q 44.046875 -1.421875 31.78125 -1.421875 
Q 19.53125 -1.421875 13.0625 8.265625 
Q 6.59375 17.96875 6.59375 36.375 
Q 6.59375 54.828125 13.0625 64.515625 
Q 19.53125 74.21875 31.78125 74.21875 
z
" id="DejaVuSans-48"/>
        <path d="M 4.890625 31.390625 
L 31.203125 31.390625 
L 31.203125 23.390625 
L 4.890625 23.390625 
z
" id="DejaVuSans-45"/>
        <path d="M 37.796875 64.3125 
L 12.890625 25.390625 
L 37.796875 25.390625 
z
M 35.203125 72.90625 
L 47.609375 72.90625 
L 47.609375 25.390625 
L 58.015625 25.390625 
L 58.015625 17.1875 
L 47.609375 17.1875 
L 47.609375 0 
L 37.796875 0 
L 37.796875 17.1875 
L 4.890625 17.1875 
L 4.890625 26.703125 
z
" id="DejaVuSans-52"/>
       </defs>
       <use xlink:href="#DejaVuSans-50"/>
       <use x="63.623047" xlink:href="#DejaVuSans-48"/>
       <use x="127.246094" xlink:href="#DejaVuSans-50"/>
       <use x="190.869141" xlink:href="#DejaVuSans-48"/>
       <use x="254.492188" xlink:href="#DejaVuSans-45"/>
       <use x="290.576172" xlink:href="#DejaVuSans-48"/>
       <use x="354.199219" xlink:href="#DejaVuSans-52"/>
      </g>
     </g>
    </g>
    <g id="xtick_2">
     <g id="line2d_2">
      <g>
       <use style="stroke:#000000;stroke-width:0.8;" x="108.287489" xlink:href="#m8d69a218f8" y="288.430125"/>
      </g>
     </g>
     <g id="text_2">
      <!-- 2020-05 -->
      <g transform="translate(111.046864 337.212937)rotate(-90)scale(0.1 -0.1)">
       <defs>
        <path d="M 10.796875 72.90625 
L 49.515625 72.90625 
L 49.515625 64.59375 
L 19.828125 64.59375 
L 19.828125 46.734375 
Q 21.96875 47.46875 24.109375 47.828125 
Q 26.265625 48.1875 28.421875 48.1875 
Q 40.625 48.1875 47.75 41.5 
Q 54.890625 34.8125 54.890625 23.390625 
Q 54.890625 11.625 47.5625 5.09375 
Q 40.234375 -1.421875 26.90625 -1.421875 
Q 22.3125 -1.421875 17.546875 -0.640625 
Q 12.796875 0.140625 7.71875 1.703125 
L 7.71875 11.625 
Q 12.109375 9.234375 16.796875 8.0625 
Q 21.484375 6.890625 26.703125 6.890625 
Q 35.15625 6.890625 40.078125 11.328125 
Q 45.015625 15.765625 45.015625 23.390625 
Q 45.015625 31 40.078125 35.4375 
Q 35.15625 39.890625 26.703125 39.890625 
Q 22.75 39.890625 18.8125 39.015625 
Q 14.890625 38.140625 10.796875 36.28125 
z
" id="DejaVuSans-53"/>
       </defs>
       <use xlink:href="#DejaVuSans-50"/>
       <use x="63.623047" xlink:href="#DejaVuSans-48"/>
       <use x="127.246094" xlink:href="#DejaVuSans-50"/>
       <use x="190.869141" xlink:href="#DejaVuSans-48"/>
       <use x="254.492188" xlink:href="#DejaVuSans-45"/>
       <use x="290.576172" xlink:href="#DejaVuSans-48"/>
       <use x="354.199219" xlink:href="#DejaVuSans-53"/>
      </g>
     </g>
    </g>
    <g id="xtick_3">
     <g id="line2d_3">
      <g>
       <use style="stroke:#000000;stroke-width:0.8;" x="148.544652" xlink:href="#m8d69a218f8" y="288.430125"/>
      </g>
     </g>
     <g id="text_3">
      <!-- 2020-06 -->
      <g transform="translate(151.304027 337.212937)rotate(-90)scale(0.1 -0.1)">
       <defs>
        <path d="M 33.015625 40.375 
Q 26.375 40.375 22.484375 35.828125 
Q 18.609375 31.296875 18.609375 23.390625 
Q 18.609375 15.53125 22.484375 10.953125 
Q 26.375 6.390625 33.015625 6.390625 
Q 39.65625 6.390625 43.53125 10.953125 
Q 47.40625 15.53125 47.40625 23.390625 
Q 47.40625 31.296875 43.53125 35.828125 
Q 39.65625 40.375 33.015625 40.375 
z
M 52.59375 71.296875 
L 52.59375 62.3125 
Q 48.875 64.0625 45.09375 64.984375 
Q 41.3125 65.921875 37.59375 65.921875 
Q 27.828125 65.921875 22.671875 59.328125 
Q 17.53125 52.734375 16.796875 39.40625 
Q 19.671875 43.65625 24.015625 45.921875 
Q 28.375 48.1875 33.59375 48.1875 
Q 44.578125 48.1875 50.953125 41.515625 
Q 57.328125 34.859375 57.328125 23.390625 
Q 57.328125 12.15625 50.6875 5.359375 
Q 44.046875 -1.421875 33.015625 -1.421875 
Q 20.359375 -1.421875 13.671875 8.265625 
Q 6.984375 17.96875 6.984375 36.375 
Q 6.984375 53.65625 15.1875 63.9375 
Q 23.390625 74.21875 37.203125 74.21875 
Q 40.921875 74.21875 44.703125 73.484375 
Q 48.484375 72.75 52.59375 71.296875 
z
" id="DejaVuSans-54"/>
       </defs>
       <use xlink:href="#DejaVuSans-50"/>
       <use x="63.623047" xlink:href="#DejaVuSans-48"/>
       <use x="127.246094" xlink:href="#DejaVuSans-50"/>
       <use x="190.869141" xlink:href="#DejaVuSans-48"/>
       <use x="254.492188" xlink:href="#DejaVuSans-45"/>
       <use x="290.576172" xlink:href="#DejaVuSans-48"/>
       <use x="354.199219" xlink:href="#DejaVuSans-54"/>
      </g>
     </g>
    </g>
    <g id="xtick_4">
     <g id="line2d_4">
      <g>
       <use style="stroke:#000000;stroke-width:0.8;" x="187.503198" xlink:href="#m8d69a218f8" y="288.430125"/>
      </g>
     </g>
     <g id="text_4">
      <!-- 2020-07 -->
      <g transform="translate(190.262573 337.212937)rotate(-90)scale(0.1 -0.1)">
       <defs>
        <path d="M 8.203125 72.90625 
L 55.078125 72.90625 
L 55.078125 68.703125 
L 28.609375 0 
L 18.3125 0 
L 43.21875 64.59375 
L 8.203125 64.59375 
z
" id="DejaVuSans-55"/>
       </defs>
       <use xlink:href="#DejaVuSans-50"/>
       <use x="63.623047" xlink:href="#DejaVuSans-48"/>
       <use x="127.246094" xlink:href="#DejaVuSans-50"/>
       <use x="190.869141" xlink:href="#DejaVuSans-48"/>
       <use x="254.492188" xlink:href="#DejaVuSans-45"/>
       <use x="290.576172" xlink:href="#DejaVuSans-48"/>
       <use x="354.199219" xlink:href="#DejaVuSans-55"/>
      </g>
     </g>
    </g>
    <g id="xtick_5">
     <g id="line2d_5">
      <g>
       <use style="stroke:#000000;stroke-width:0.8;" x="227.760361" xlink:href="#m8d69a218f8" y="288.430125"/>
      </g>
     </g>
     <g id="text_5">
      <!-- 2020-08 -->
      <g transform="translate(230.519736 337.212937)rotate(-90)scale(0.1 -0.1)">
       <defs>
        <path d="M 31.78125 34.625 
Q 24.75 34.625 20.71875 30.859375 
Q 16.703125 27.09375 16.703125 20.515625 
Q 16.703125 13.921875 20.71875 10.15625 
Q 24.75 6.390625 31.78125 6.390625 
Q 38.8125 6.390625 42.859375 10.171875 
Q 46.921875 13.96875 46.921875 20.515625 
Q 46.921875 27.09375 42.890625 30.859375 
Q 38.875 34.625 31.78125 34.625 
z
M 21.921875 38.8125 
Q 15.578125 40.375 12.03125 44.71875 
Q 8.5 49.078125 8.5 55.328125 
Q 8.5 64.0625 14.71875 69.140625 
Q 20.953125 74.21875 31.78125 74.21875 
Q 42.671875 74.21875 48.875 69.140625 
Q 55.078125 64.0625 55.078125 55.328125 
Q 55.078125 49.078125 51.53125 44.71875 
Q 48 40.375 41.703125 38.8125 
Q 48.828125 37.15625 52.796875 32.3125 
Q 56.78125 27.484375 56.78125 20.515625 
Q 56.78125 9.90625 50.3125 4.234375 
Q 43.84375 -1.421875 31.78125 -1.421875 
Q 19.734375 -1.421875 13.25 4.234375 
Q 6.78125 9.90625 6.78125 20.515625 
Q 6.78125 27.484375 10.78125 32.3125 
Q 14.796875 37.15625 21.921875 38.8125 
z
M 18.3125 54.390625 
Q 18.3125 48.734375 21.84375 45.5625 
Q 25.390625 42.390625 31.78125 42.390625 
Q 38.140625 42.390625 41.71875 45.5625 
Q 45.3125 48.734375 45.3125 54.390625 
Q 45.3125 60.0625 41.71875 63.234375 
Q 38.140625 66.40625 31.78125 66.40625 
Q 25.390625 66.40625 21.84375 63.234375 
Q 18.3125 60.0625 18.3125 54.390625 
z
" id="DejaVuSans-56"/>
       </defs>
       <use xlink:href="#DejaVuSans-50"/>
       <use x="63.623047" xlink:href="#DejaVuSans-48"/>
       <use x="127.246094" xlink:href="#DejaVuSans-50"/>
       <use x="190.869141" xlink:href="#DejaVuSans-48"/>
       <use x="254.492188" xlink:href="#DejaVuSans-45"/>
       <use x="290.576172" xlink:href="#DejaVuSans-48"/>
       <use x="354.199219" xlink:href="#DejaVuSans-56"/>
      </g>
     </g>
    </g>
    <g id="xtick_6">
     <g id="line2d_6">
      <g>
       <use style="stroke:#000000;stroke-width:0.8;" x="268.017525" xlink:href="#m8d69a218f8" y="288.430125"/>
      </g>
     </g>
     <g id="text_6">
      <!-- 2020-09 -->
      <g transform="translate(270.7769 337.212937)rotate(-90)scale(0.1 -0.1)">
       <defs>
        <path d="M 10.984375 1.515625 
L 10.984375 10.5 
Q 14.703125 8.734375 18.5 7.8125 
Q 22.3125 6.890625 25.984375 6.890625 
Q 35.75 6.890625 40.890625 13.453125 
Q 46.046875 20.015625 46.78125 33.40625 
Q 43.953125 29.203125 39.59375 26.953125 
Q 35.25 24.703125 29.984375 24.703125 
Q 19.046875 24.703125 12.671875 31.3125 
Q 6.296875 37.9375 6.296875 49.421875 
Q 6.296875 60.640625 12.9375 67.421875 
Q 19.578125 74.21875 30.609375 74.21875 
Q 43.265625 74.21875 49.921875 64.515625 
Q 56.59375 54.828125 56.59375 36.375 
Q 56.59375 19.140625 48.40625 8.859375 
Q 40.234375 -1.421875 26.421875 -1.421875 
Q 22.703125 -1.421875 18.890625 -0.6875 
Q 15.09375 0.046875 10.984375 1.515625 
z
M 30.609375 32.421875 
Q 37.25 32.421875 41.125 36.953125 
Q 45.015625 41.5 45.015625 49.421875 
Q 45.015625 57.28125 41.125 61.84375 
Q 37.25 66.40625 30.609375 66.40625 
Q 23.96875 66.40625 20.09375 61.84375 
Q 16.21875 57.28125 16.21875 49.421875 
Q 16.21875 41.5 20.09375 36.953125 
Q 23.96875 32.421875 30.609375 32.421875 
z
" id="DejaVuSans-57"/>
       </defs>
       <use xlink:href="#DejaVuSans-50"/>
       <use x="63.623047" xlink:href="#DejaVuSans-48"/>
       <use x="127.246094" xlink:href="#DejaVuSans-50"/>
       <use x="190.869141" xlink:href="#DejaVuSans-48"/>
       <use x="254.492188" xlink:href="#DejaVuSans-45"/>
       <use x="290.576172" xlink:href="#DejaVuSans-48"/>
       <use x="354.199219" xlink:href="#DejaVuSans-57"/>
      </g>
     </g>
    </g>
    <g id="xtick_7">
     <g id="line2d_7">
      <g>
       <use style="stroke:#000000;stroke-width:0.8;" x="306.97607" xlink:href="#m8d69a218f8" y="288.430125"/>
      </g>
     </g>
     <g id="text_7">
      <!-- 2020-10 -->
      <g transform="translate(309.735445 337.212937)rotate(-90)scale(0.1 -0.1)">
       <defs>
        <path d="M 12.40625 8.296875 
L 28.515625 8.296875 
L 28.515625 63.921875 
L 10.984375 60.40625 
L 10.984375 69.390625 
L 28.421875 72.90625 
L 38.28125 72.90625 
L 38.28125 8.296875 
L 54.390625 8.296875 
L 54.390625 0 
L 12.40625 0 
z
" id="DejaVuSans-49"/>
       </defs>
       <use xlink:href="#DejaVuSans-50"/>
       <use x="63.623047" xlink:href="#DejaVuSans-48"/>
       <use x="127.246094" xlink:href="#DejaVuSans-50"/>
       <use x="190.869141" xlink:href="#DejaVuSans-48"/>
       <use x="254.492188" xlink:href="#DejaVuSans-45"/>
       <use x="290.576172" xlink:href="#DejaVuSans-49"/>
       <use x="354.199219" xlink:href="#DejaVuSans-48"/>
      </g>
     </g>
    </g>
    <g id="xtick_8">
     <g id="line2d_8">
      <g>
       <use style="stroke:#000000;stroke-width:0.8;" x="347.233234" xlink:href="#m8d69a218f8" y="288.430125"/>
      </g>
     </g>
     <g id="text_8">
      <!-- 2020-11 -->
      <g transform="translate(349.992609 337.212937)rotate(-90)scale(0.1 -0.1)">
       <use xlink:href="#DejaVuSans-50"/>
       <use x="63.623047" xlink:href="#DejaVuSans-48"/>
       <use x="127.246094" xlink:href="#DejaVuSans-50"/>
       <use x="190.869141" xlink:href="#DejaVuSans-48"/>
       <use x="254.492188" xlink:href="#DejaVuSans-45"/>
       <use x="290.576172" xlink:href="#DejaVuSans-49"/>
       <use x="354.199219" xlink:href="#DejaVuSans-49"/>
      </g>
     </g>
    </g>
    <g id="xtick_9">
     <g id="line2d_9">
      <g>
       <use style="stroke:#000000;stroke-width:0.8;" x="386.19178" xlink:href="#m8d69a218f8" y="288.430125"/>
      </g>
     </g>
     <g id="text_9">
      <!-- 2020-12 -->
      <g transform="translate(388.951155 337.212937)rotate(-90)scale(0.1 -0.1)">
       <use xlink:href="#DejaVuSans-50"/>
       <use x="63.623047" xlink:href="#DejaVuSans-48"/>
       <use x="127.246094" xlink:href="#DejaVuSans-50"/>
       <use x="190.869141" xlink:href="#DejaVuSans-48"/>
       <use x="254.492188" xlink:href="#DejaVuSans-45"/>
       <use x="290.576172" xlink:href="#DejaVuSans-49"/>
       <use x="354.199219" xlink:href="#DejaVuSans-50"/>
      </g>
     </g>
    </g>
    <g id="text_10">
     <!-- date -->
     <g transform="translate(213.888125 354.811375)scale(0.1 -0.1)">
      <defs>
       <path d="M 45.40625 46.390625 
L 45.40625 75.984375 
L 54.390625 75.984375 
L 54.390625 0 
L 45.40625 0 
L 45.40625 8.203125 
Q 42.578125 3.328125 38.25 0.953125 
Q 33.9375 -1.421875 27.875 -1.421875 
Q 17.96875 -1.421875 11.734375 6.484375 
Q 5.515625 14.40625 5.515625 27.296875 
Q 5.515625 40.1875 11.734375 48.09375 
Q 17.96875 56 27.875 56 
Q 33.9375 56 38.25 53.625 
Q 42.578125 51.265625 45.40625 46.390625 
z
M 14.796875 27.296875 
Q 14.796875 17.390625 18.875 11.75 
Q 22.953125 6.109375 30.078125 6.109375 
Q 37.203125 6.109375 41.296875 11.75 
Q 45.40625 17.390625 45.40625 27.296875 
Q 45.40625 37.203125 41.296875 42.84375 
Q 37.203125 48.484375 30.078125 48.484375 
Q 22.953125 48.484375 18.875 42.84375 
Q 14.796875 37.203125 14.796875 27.296875 
z
" id="DejaVuSans-100"/>
       <path d="M 34.28125 27.484375 
Q 23.390625 27.484375 19.1875 25 
Q 14.984375 22.515625 14.984375 16.5 
Q 14.984375 11.71875 18.140625 8.90625 
Q 21.296875 6.109375 26.703125 6.109375 
Q 34.1875 6.109375 38.703125 11.40625 
Q 43.21875 16.703125 43.21875 25.484375 
L 43.21875 27.484375 
z
M 52.203125 31.203125 
L 52.203125 0 
L 43.21875 0 
L 43.21875 8.296875 
Q 40.140625 3.328125 35.546875 0.953125 
Q 30.953125 -1.421875 24.3125 -1.421875 
Q 15.921875 -1.421875 10.953125 3.296875 
Q 6 8.015625 6 15.921875 
Q 6 25.140625 12.171875 29.828125 
Q 18.359375 34.515625 30.609375 34.515625 
L 43.21875 34.515625 
L 43.21875 35.40625 
Q 43.21875 41.609375 39.140625 45 
Q 35.0625 48.390625 27.6875 48.390625 
Q 23 48.390625 18.546875 47.265625 
Q 14.109375 46.140625 10.015625 43.890625 
L 10.015625 52.203125 
Q 14.9375 54.109375 19.578125 55.046875 
Q 24.21875 56 28.609375 56 
Q 40.484375 56 46.34375 49.84375 
Q 52.203125 43.703125 52.203125 31.203125 
z
" id="DejaVuSans-97"/>
       <path d="M 18.3125 70.21875 
L 18.3125 54.6875 
L 36.8125 54.6875 
L 36.8125 47.703125 
L 18.3125 47.703125 
L 18.3125 18.015625 
Q 18.3125 11.328125 20.140625 9.421875 
Q 21.96875 7.515625 27.59375 7.515625 
L 36.8125 7.515625 
L 36.8125 0 
L 27.59375 0 
Q 17.1875 0 13.234375 3.875 
Q 9.28125 7.765625 9.28125 18.015625 
L 9.28125 47.703125 
L 2.6875 47.703125 
L 2.6875 54.6875 
L 9.28125 54.6875 
L 9.28125 70.21875 
z
" id="DejaVuSans-116"/>
       <path d="M 56.203125 29.59375 
L 56.203125 25.203125 
L 14.890625 25.203125 
Q 15.484375 15.921875 20.484375 11.0625 
Q 25.484375 6.203125 34.421875 6.203125 
Q 39.59375 6.203125 44.453125 7.46875 
Q 49.3125 8.734375 54.109375 11.28125 
L 54.109375 2.78125 
Q 49.265625 0.734375 44.1875 -0.34375 
Q 39.109375 -1.421875 33.890625 -1.421875 
Q 20.796875 -1.421875 13.15625 6.1875 
Q 5.515625 13.8125 5.515625 26.8125 
Q 5.515625 40.234375 12.765625 48.109375 
Q 20.015625 56 32.328125 56 
Q 43.359375 56 49.78125 48.890625 
Q 56.203125 41.796875 56.203125 29.59375 
z
M 47.21875 32.234375 
Q 47.125 39.59375 43.09375 43.984375 
Q 39.0625 48.390625 32.421875 48.390625 
Q 24.90625 48.390625 20.390625 44.140625 
Q 15.875 39.890625 15.1875 32.171875 
z
" id="DejaVuSans-101"/>
      </defs>
      <use xlink:href="#DejaVuSans-100"/>
      <use x="63.476562" xlink:href="#DejaVuSans-97"/>
      <use x="124.755859" xlink:href="#DejaVuSans-116"/>
      <use x="163.964844" xlink:href="#DejaVuSans-101"/>
     </g>
    </g>
   </g>
   <g id="matplotlib.axis_2">
    <g id="ytick_1">
     <g id="line2d_10">
      <defs>
       <path d="M 0 0 
L -3.5 0 
" id="mb4cf4b32aa" style="stroke:#000000;stroke-width:0.8;"/>
      </defs>
      <g>
       <use style="stroke:#000000;stroke-width:0.8;" x="46.603125" xlink:href="#mb4cf4b32aa" y="288.430125"/>
      </g>
     </g>
     <g id="text_11">
      <!-- 0 -->
      <g transform="translate(33.240625 292.229344)scale(0.1 -0.1)">
       <use xlink:href="#DejaVuSans-48"/>
      </g>
     </g>
    </g>
    <g id="ytick_2">
     <g id="line2d_11">
      <g>
       <use style="stroke:#000000;stroke-width:0.8;" x="46.603125" xlink:href="#mb4cf4b32aa" y="231.113694"/>
      </g>
     </g>
     <g id="text_12">
      <!-- 20 -->
      <g transform="translate(26.878125 234.912913)scale(0.1 -0.1)">
       <use xlink:href="#DejaVuSans-50"/>
       <use x="63.623047" xlink:href="#DejaVuSans-48"/>
      </g>
     </g>
    </g>
    <g id="ytick_3">
     <g id="line2d_12">
      <g>
       <use style="stroke:#000000;stroke-width:0.8;" x="46.603125" xlink:href="#mb4cf4b32aa" y="173.797263"/>
      </g>
     </g>
     <g id="text_13">
      <!-- 40 -->
      <g transform="translate(26.878125 177.596482)scale(0.1 -0.1)">
       <use xlink:href="#DejaVuSans-52"/>
       <use x="63.623047" xlink:href="#DejaVuSans-48"/>
      </g>
     </g>
    </g>
    <g id="ytick_4">
     <g id="line2d_13">
      <g>
       <use style="stroke:#000000;stroke-width:0.8;" x="46.603125" xlink:href="#mb4cf4b32aa" y="116.480833"/>
      </g>
     </g>
     <g id="text_14">
      <!-- 60 -->
      <g transform="translate(26.878125 120.280051)scale(0.1 -0.1)">
       <use xlink:href="#DejaVuSans-54"/>
       <use x="63.623047" xlink:href="#DejaVuSans-48"/>
      </g>
     </g>
    </g>
    <g id="ytick_5">
     <g id="line2d_14">
      <g>
       <use style="stroke:#000000;stroke-width:0.8;" x="46.603125" xlink:href="#mb4cf4b32aa" y="59.164402"/>
      </g>
     </g>
     <g id="text_15">
      <!-- 80 -->
      <g transform="translate(26.878125 62.963621)scale(0.1 -0.1)">
       <use xlink:href="#DejaVuSans-56"/>
       <use x="63.623047" xlink:href="#DejaVuSans-48"/>
      </g>
     </g>
    </g>
    <g id="text_16">
     <!-- daily test positivity -->
     <g transform="translate(14.798438 202.974125)rotate(-90)scale(0.1 -0.1)">
      <defs>
       <path d="M 9.421875 54.6875 
L 18.40625 54.6875 
L 18.40625 0 
L 9.421875 0 
z
M 9.421875 75.984375 
L 18.40625 75.984375 
L 18.40625 64.59375 
L 9.421875 64.59375 
z
" id="DejaVuSans-105"/>
       <path d="M 9.421875 75.984375 
L 18.40625 75.984375 
L 18.40625 0 
L 9.421875 0 
z
" id="DejaVuSans-108"/>
       <path d="M 32.171875 -5.078125 
Q 28.375 -14.84375 24.75 -17.8125 
Q 21.140625 -20.796875 15.09375 -20.796875 
L 7.90625 -20.796875 
L 7.90625 -13.28125 
L 13.1875 -13.28125 
Q 16.890625 -13.28125 18.9375 -11.515625 
Q 21 -9.765625 23.484375 -3.21875 
L 25.09375 0.875 
L 2.984375 54.6875 
L 12.5 54.6875 
L 29.59375 11.921875 
L 46.6875 54.6875 
L 56.203125 54.6875 
z
" id="DejaVuSans-121"/>
       <path id="DejaVuSans-32"/>
       <path d="M 44.28125 53.078125 
L 44.28125 44.578125 
Q 40.484375 46.53125 36.375 47.5 
Q 32.28125 48.484375 27.875 48.484375 
Q 21.1875 48.484375 17.84375 46.4375 
Q 14.5 44.390625 14.5 40.28125 
Q 14.5 37.15625 16.890625 35.375 
Q 19.28125 33.59375 26.515625 31.984375 
L 29.59375 31.296875 
Q 39.15625 29.25 43.1875 25.515625 
Q 47.21875 21.78125 47.21875 15.09375 
Q 47.21875 7.46875 41.1875 3.015625 
Q 35.15625 -1.421875 24.609375 -1.421875 
Q 20.21875 -1.421875 15.453125 -0.5625 
Q 10.6875 0.296875 5.421875 2 
L 5.421875 11.28125 
Q 10.40625 8.6875 15.234375 7.390625 
Q 20.0625 6.109375 24.8125 6.109375 
Q 31.15625 6.109375 34.5625 8.28125 
Q 37.984375 10.453125 37.984375 14.40625 
Q 37.984375 18.0625 35.515625 20.015625 
Q 33.0625 21.96875 24.703125 23.78125 
L 21.578125 24.515625 
Q 13.234375 26.265625 9.515625 29.90625 
Q 5.8125 33.546875 5.8125 39.890625 
Q 5.8125 47.609375 11.28125 51.796875 
Q 16.75 56 26.8125 56 
Q 31.78125 56 36.171875 55.265625 
Q 40.578125 54.546875 44.28125 53.078125 
z
" id="DejaVuSans-115"/>
       <path d="M 18.109375 8.203125 
L 18.109375 -20.796875 
L 9.078125 -20.796875 
L 9.078125 54.6875 
L 18.109375 54.6875 
L 18.109375 46.390625 
Q 20.953125 51.265625 25.265625 53.625 
Q 29.59375 56 35.59375 56 
Q 45.5625 56 51.78125 48.09375 
Q 58.015625 40.1875 58.015625 27.296875 
Q 58.015625 14.40625 51.78125 6.484375 
Q 45.5625 -1.421875 35.59375 -1.421875 
Q 29.59375 -1.421875 25.265625 0.953125 
Q 20.953125 3.328125 18.109375 8.203125 
z
M 48.6875 27.296875 
Q 48.6875 37.203125 44.609375 42.84375 
Q 40.53125 48.484375 33.40625 48.484375 
Q 26.265625 48.484375 22.1875 42.84375 
Q 18.109375 37.203125 18.109375 27.296875 
Q 18.109375 17.390625 22.1875 11.75 
Q 26.265625 6.109375 33.40625 6.109375 
Q 40.53125 6.109375 44.609375 11.75 
Q 48.6875 17.390625 48.6875 27.296875 
z
" id="DejaVuSans-112"/>
       <path d="M 30.609375 48.390625 
Q 23.390625 48.390625 19.1875 42.75 
Q 14.984375 37.109375 14.984375 27.296875 
Q 14.984375 17.484375 19.15625 11.84375 
Q 23.34375 6.203125 30.609375 6.203125 
Q 37.796875 6.203125 41.984375 11.859375 
Q 46.1875 17.53125 46.1875 27.296875 
Q 46.1875 37.015625 41.984375 42.703125 
Q 37.796875 48.390625 30.609375 48.390625 
z
M 30.609375 56 
Q 42.328125 56 49.015625 48.375 
Q 55.71875 40.765625 55.71875 27.296875 
Q 55.71875 13.875 49.015625 6.21875 
Q 42.328125 -1.421875 30.609375 -1.421875 
Q 18.84375 -1.421875 12.171875 6.21875 
Q 5.515625 13.875 5.515625 27.296875 
Q 5.515625 40.765625 12.171875 48.375 
Q 18.84375 56 30.609375 56 
z
" id="DejaVuSans-111"/>
       <path d="M 2.984375 54.6875 
L 12.5 54.6875 
L 29.59375 8.796875 
L 46.6875 54.6875 
L 56.203125 54.6875 
L 35.6875 0 
L 23.484375 0 
z
" id="DejaVuSans-118"/>
      </defs>
      <use xlink:href="#DejaVuSans-100"/>
      <use x="63.476562" xlink:href="#DejaVuSans-97"/>
      <use x="124.755859" xlink:href="#DejaVuSans-105"/>
      <use x="152.539062" xlink:href="#DejaVuSans-108"/>
      <use x="180.322266" xlink:href="#DejaVuSans-121"/>
      <use x="239.501953" xlink:href="#DejaVuSans-32"/>
      <use x="271.289062" xlink:href="#DejaVuSans-116"/>
      <use x="310.498047" xlink:href="#DejaVuSans-101"/>
      <use x="372.021484" xlink:href="#DejaVuSans-115"/>
      <use x="424.121094" xlink:href="#DejaVuSans-116"/>
      <use x="463.330078" xlink:href="#DejaVuSans-32"/>
      <use x="495.117188" xlink:href="#DejaVuSans-112"/>
      <use x="558.59375" xlink:href="#DejaVuSans-111"/>
      <use x="619.775391" xlink:href="#DejaVuSans-115"/>
      <use x="671.875" xlink:href="#DejaVuSans-105"/>
      <use x="699.658203" xlink:href="#DejaVuSans-116"/>
      <use x="738.867188" xlink:href="#DejaVuSans-105"/>
      <use x="766.650391" xlink:href="#DejaVuSans-118"/>
      <use x="825.830078" xlink:href="#DejaVuSans-105"/>
      <use x="853.613281" xlink:href="#DejaVuSans-116"/>
      <use x="892.822266" xlink:href="#DejaVuSans-121"/>
     </g>
    </g>
   </g>
   <g id="line2d_15">
    <path clip-path="url(#p32ef790b79)" d="M 46.603125 282.698482 
L 403.723125 282.698482 
" style="fill:none;stroke:#ffff00;stroke-linecap:square;stroke-width:1.5;"/>
   </g>
   <g id="line2d_16">
    <path clip-path="url(#p32ef790b79)" d="M 46.603125 274.101017 
L 403.723125 274.101017 
" style="fill:none;stroke:#ffa500;stroke-linecap:square;stroke-width:1.5;"/>
   </g>
   <g id="line2d_17">
    <path clip-path="url(#p32ef790b79)" d="M 46.603125 231.113694 
L 403.723125 231.113694 
" style="fill:none;stroke:#ff0000;stroke-linecap:square;stroke-width:1.5;"/>
   </g>
   <g id="patch_278">
    <path d="M 46.603125 288.430125 
L 46.603125 22.318125 
" style="fill:none;stroke:#000000;stroke-linecap:square;stroke-linejoin:miter;stroke-width:0.8;"/>
   </g>
   <g id="patch_279">
    <path d="M 46.603125 288.430125 
L 403.723125 288.430125 
" style="fill:none;stroke:#000000;stroke-linecap:square;stroke-linejoin:miter;stroke-width:0.8;"/>
   </g>
   <g id="text_17">
    <!-- South Tyrol -->
    <g transform="translate(191.870625 16.318125)scale(0.12 -0.12)">
     <defs>
      <path d="M 53.515625 70.515625 
L 53.515625 60.890625 
Q 47.90625 63.578125 42.921875 64.890625 
Q 37.9375 66.21875 33.296875 66.21875 
Q 25.25 66.21875 20.875 63.09375 
Q 16.5 59.96875 16.5 54.203125 
Q 16.5 49.359375 19.40625 46.890625 
Q 22.3125 44.4375 30.421875 42.921875 
L 36.375 41.703125 
Q 47.40625 39.59375 52.65625 34.296875 
Q 57.90625 29 57.90625 20.125 
Q 57.90625 9.515625 50.796875 4.046875 
Q 43.703125 -1.421875 29.984375 -1.421875 
Q 24.8125 -1.421875 18.96875 -0.25 
Q 13.140625 0.921875 6.890625 3.21875 
L 6.890625 13.375 
Q 12.890625 10.015625 18.65625 8.296875 
Q 24.421875 6.59375 29.984375 6.59375 
Q 38.421875 6.59375 43.015625 9.90625 
Q 47.609375 13.234375 47.609375 19.390625 
Q 47.609375 24.75 44.3125 27.78125 
Q 41.015625 30.8125 33.5 32.328125 
L 27.484375 33.5 
Q 16.453125 35.6875 11.515625 40.375 
Q 6.59375 45.0625 6.59375 53.421875 
Q 6.59375 63.09375 13.40625 68.65625 
Q 20.21875 74.21875 32.171875 74.21875 
Q 37.3125 74.21875 42.625 73.28125 
Q 47.953125 72.359375 53.515625 70.515625 
z
" id="DejaVuSans-83"/>
      <path d="M 8.5 21.578125 
L 8.5 54.6875 
L 17.484375 54.6875 
L 17.484375 21.921875 
Q 17.484375 14.15625 20.5 10.265625 
Q 23.53125 6.390625 29.59375 6.390625 
Q 36.859375 6.390625 41.078125 11.03125 
Q 45.3125 15.671875 45.3125 23.6875 
L 45.3125 54.6875 
L 54.296875 54.6875 
L 54.296875 0 
L 45.3125 0 
L 45.3125 8.40625 
Q 42.046875 3.421875 37.71875 1 
Q 33.40625 -1.421875 27.6875 -1.421875 
Q 18.265625 -1.421875 13.375 4.4375 
Q 8.5 10.296875 8.5 21.578125 
z
M 31.109375 56 
z
" id="DejaVuSans-117"/>
      <path d="M 54.890625 33.015625 
L 54.890625 0 
L 45.90625 0 
L 45.90625 32.71875 
Q 45.90625 40.484375 42.875 44.328125 
Q 39.84375 48.1875 33.796875 48.1875 
Q 26.515625 48.1875 22.3125 43.546875 
Q 18.109375 38.921875 18.109375 30.90625 
L 18.109375 0 
L 9.078125 0 
L 9.078125 75.984375 
L 18.109375 75.984375 
L 18.109375 46.1875 
Q 21.34375 51.125 25.703125 53.5625 
Q 30.078125 56 35.796875 56 
Q 45.21875 56 50.046875 50.171875 
Q 54.890625 44.34375 54.890625 33.015625 
z
" id="DejaVuSans-104"/>
      <path d="M -0.296875 72.90625 
L 61.375 72.90625 
L 61.375 64.59375 
L 35.5 64.59375 
L 35.5 0 
L 25.59375 0 
L 25.59375 64.59375 
L -0.296875 64.59375 
z
" id="DejaVuSans-84"/>
      <path d="M 41.109375 46.296875 
Q 39.59375 47.171875 37.8125 47.578125 
Q 36.03125 48 33.890625 48 
Q 26.265625 48 22.1875 43.046875 
Q 18.109375 38.09375 18.109375 28.8125 
L 18.109375 0 
L 9.078125 0 
L 9.078125 54.6875 
L 18.109375 54.6875 
L 18.109375 46.1875 
Q 20.953125 51.171875 25.484375 53.578125 
Q 30.03125 56 36.53125 56 
Q 37.453125 56 38.578125 55.875 
Q 39.703125 55.765625 41.0625 55.515625 
z
" id="DejaVuSans-114"/>
     </defs>
     <use xlink:href="#DejaVuSans-83"/>
     <use x="63.476562" xlink:href="#DejaVuSans-111"/>
     <use x="124.658203" xlink:href="#DejaVuSans-117"/>
     <use x="188.037109" xlink:href="#DejaVuSans-116"/>
     <use x="227.246094" xlink:href="#DejaVuSans-104"/>
     <use x="290.625" xlink:href="#DejaVuSans-32"/>
     <use x="322.412109" xlink:href="#DejaVuSans-84"/>
     <use x="367.871094" xlink:href="#DejaVuSans-121"/>
     <use x="427.050781" xlink:href="#DejaVuSans-114"/>
     <use x="465.914062" xlink:href="#DejaVuSans-111"/>
     <use x="527.095703" xlink:href="#DejaVuSans-108"/>
    </g>
   </g>
   <g id="legend_1">
    <g id="line2d_18">
     <path d="M 55.603125 35.416562 
L 75.603125 35.416562 
" style="fill:none;stroke:#ffff00;stroke-linecap:square;stroke-width:1.5;"/>
    </g>
    <g id="line2d_19"/>
    <g id="text_18">
     <!-- Low incidence of community transmission -->
     <g transform="translate(83.603125 38.916562)scale(0.1 -0.1)">
      <defs>
       <path d="M 9.8125 72.90625 
L 19.671875 72.90625 
L 19.671875 8.296875 
L 55.171875 8.296875 
L 55.171875 0 
L 9.8125 0 
z
" id="DejaVuSans-76"/>
       <path d="M 4.203125 54.6875 
L 13.1875 54.6875 
L 24.421875 12.015625 
L 35.59375 54.6875 
L 46.1875 54.6875 
L 57.421875 12.015625 
L 68.609375 54.6875 
L 77.59375 54.6875 
L 63.28125 0 
L 52.6875 0 
L 40.921875 44.828125 
L 29.109375 0 
L 18.5 0 
z
" id="DejaVuSans-119"/>
       <path d="M 54.890625 33.015625 
L 54.890625 0 
L 45.90625 0 
L 45.90625 32.71875 
Q 45.90625 40.484375 42.875 44.328125 
Q 39.84375 48.1875 33.796875 48.1875 
Q 26.515625 48.1875 22.3125 43.546875 
Q 18.109375 38.921875 18.109375 30.90625 
L 18.109375 0 
L 9.078125 0 
L 9.078125 54.6875 
L 18.109375 54.6875 
L 18.109375 46.1875 
Q 21.34375 51.125 25.703125 53.5625 
Q 30.078125 56 35.796875 56 
Q 45.21875 56 50.046875 50.171875 
Q 54.890625 44.34375 54.890625 33.015625 
z
" id="DejaVuSans-110"/>
       <path d="M 48.78125 52.59375 
L 48.78125 44.1875 
Q 44.96875 46.296875 41.140625 47.34375 
Q 37.3125 48.390625 33.40625 48.390625 
Q 24.65625 48.390625 19.8125 42.84375 
Q 14.984375 37.3125 14.984375 27.296875 
Q 14.984375 17.28125 19.8125 11.734375 
Q 24.65625 6.203125 33.40625 6.203125 
Q 37.3125 6.203125 41.140625 7.25 
Q 44.96875 8.296875 48.78125 10.40625 
L 48.78125 2.09375 
Q 45.015625 0.34375 40.984375 -0.53125 
Q 36.96875 -1.421875 32.421875 -1.421875 
Q 20.0625 -1.421875 12.78125 6.34375 
Q 5.515625 14.109375 5.515625 27.296875 
Q 5.515625 40.671875 12.859375 48.328125 
Q 20.21875 56 33.015625 56 
Q 37.15625 56 41.109375 55.140625 
Q 45.0625 54.296875 48.78125 52.59375 
z
" id="DejaVuSans-99"/>
       <path d="M 37.109375 75.984375 
L 37.109375 68.5 
L 28.515625 68.5 
Q 23.6875 68.5 21.796875 66.546875 
Q 19.921875 64.59375 19.921875 59.515625 
L 19.921875 54.6875 
L 34.71875 54.6875 
L 34.71875 47.703125 
L 19.921875 47.703125 
L 19.921875 0 
L 10.890625 0 
L 10.890625 47.703125 
L 2.296875 47.703125 
L 2.296875 54.6875 
L 10.890625 54.6875 
L 10.890625 58.5 
Q 10.890625 67.625 15.140625 71.796875 
Q 19.390625 75.984375 28.609375 75.984375 
z
" id="DejaVuSans-102"/>
       <path d="M 52 44.1875 
Q 55.375 50.25 60.0625 53.125 
Q 64.75 56 71.09375 56 
Q 79.640625 56 84.28125 50.015625 
Q 88.921875 44.046875 88.921875 33.015625 
L 88.921875 0 
L 79.890625 0 
L 79.890625 32.71875 
Q 79.890625 40.578125 77.09375 44.375 
Q 74.3125 48.1875 68.609375 48.1875 
Q 61.625 48.1875 57.5625 43.546875 
Q 53.515625 38.921875 53.515625 30.90625 
L 53.515625 0 
L 44.484375 0 
L 44.484375 32.71875 
Q 44.484375 40.625 41.703125 44.40625 
Q 38.921875 48.1875 33.109375 48.1875 
Q 26.21875 48.1875 22.15625 43.53125 
Q 18.109375 38.875 18.109375 30.90625 
L 18.109375 0 
L 9.078125 0 
L 9.078125 54.6875 
L 18.109375 54.6875 
L 18.109375 46.1875 
Q 21.1875 51.21875 25.484375 53.609375 
Q 29.78125 56 35.6875 56 
Q 41.65625 56 45.828125 52.96875 
Q 50 49.953125 52 44.1875 
z
" id="DejaVuSans-109"/>
      </defs>
      <use xlink:href="#DejaVuSans-76"/>
      <use x="53.962891" xlink:href="#DejaVuSans-111"/>
      <use x="115.144531" xlink:href="#DejaVuSans-119"/>
      <use x="196.931641" xlink:href="#DejaVuSans-32"/>
      <use x="228.71875" xlink:href="#DejaVuSans-105"/>
      <use x="256.501953" xlink:href="#DejaVuSans-110"/>
      <use x="319.880859" xlink:href="#DejaVuSans-99"/>
      <use x="374.861328" xlink:href="#DejaVuSans-105"/>
      <use x="402.644531" xlink:href="#DejaVuSans-100"/>
      <use x="466.121094" xlink:href="#DejaVuSans-101"/>
      <use x="527.644531" xlink:href="#DejaVuSans-110"/>
      <use x="591.023438" xlink:href="#DejaVuSans-99"/>
      <use x="646.003906" xlink:href="#DejaVuSans-101"/>
      <use x="707.527344" xlink:href="#DejaVuSans-32"/>
      <use x="739.314453" xlink:href="#DejaVuSans-111"/>
      <use x="800.496094" xlink:href="#DejaVuSans-102"/>
      <use x="835.701172" xlink:href="#DejaVuSans-32"/>
      <use x="867.488281" xlink:href="#DejaVuSans-99"/>
      <use x="922.46875" xlink:href="#DejaVuSans-111"/>
      <use x="983.650391" xlink:href="#DejaVuSans-109"/>
      <use x="1081.0625" xlink:href="#DejaVuSans-109"/>
      <use x="1178.474609" xlink:href="#DejaVuSans-117"/>
      <use x="1241.853516" xlink:href="#DejaVuSans-110"/>
      <use x="1305.232422" xlink:href="#DejaVuSans-105"/>
      <use x="1333.015625" xlink:href="#DejaVuSans-116"/>
      <use x="1372.224609" xlink:href="#DejaVuSans-121"/>
      <use x="1431.404297" xlink:href="#DejaVuSans-32"/>
      <use x="1463.191406" xlink:href="#DejaVuSans-116"/>
      <use x="1502.400391" xlink:href="#DejaVuSans-114"/>
      <use x="1543.513672" xlink:href="#DejaVuSans-97"/>
      <use x="1604.792969" xlink:href="#DejaVuSans-110"/>
      <use x="1668.171875" xlink:href="#DejaVuSans-115"/>
      <use x="1720.271484" xlink:href="#DejaVuSans-109"/>
      <use x="1817.683594" xlink:href="#DejaVuSans-105"/>
      <use x="1845.466797" xlink:href="#DejaVuSans-115"/>
      <use x="1897.566406" xlink:href="#DejaVuSans-115"/>
      <use x="1949.666016" xlink:href="#DejaVuSans-105"/>
      <use x="1977.449219" xlink:href="#DejaVuSans-111"/>
      <use x="2038.630859" xlink:href="#DejaVuSans-110"/>
     </g>
    </g>
    <g id="line2d_20">
     <path d="M 55.603125 50.094688 
L 75.603125 50.094688 
" style="fill:none;stroke:#ffa500;stroke-linecap:square;stroke-width:1.5;"/>
    </g>
    <g id="line2d_21"/>
    <g id="text_19">
     <!-- Moderate incidence of community transmission -->
     <g transform="translate(83.603125 53.594688)scale(0.1 -0.1)">
      <defs>
       <path d="M 9.8125 72.90625 
L 24.515625 72.90625 
L 43.109375 23.296875 
L 61.8125 72.90625 
L 76.515625 72.90625 
L 76.515625 0 
L 66.890625 0 
L 66.890625 64.015625 
L 48.09375 14.015625 
L 38.1875 14.015625 
L 19.390625 64.015625 
L 19.390625 0 
L 9.8125 0 
z
" id="DejaVuSans-77"/>
      </defs>
      <use xlink:href="#DejaVuSans-77"/>
      <use x="86.279297" xlink:href="#DejaVuSans-111"/>
      <use x="147.460938" xlink:href="#DejaVuSans-100"/>
      <use x="210.9375" xlink:href="#DejaVuSans-101"/>
      <use x="272.460938" xlink:href="#DejaVuSans-114"/>
      <use x="313.574219" xlink:href="#DejaVuSans-97"/>
      <use x="374.853516" xlink:href="#DejaVuSans-116"/>
      <use x="414.0625" xlink:href="#DejaVuSans-101"/>
      <use x="475.585938" xlink:href="#DejaVuSans-32"/>
      <use x="507.373047" xlink:href="#DejaVuSans-105"/>
      <use x="535.15625" xlink:href="#DejaVuSans-110"/>
      <use x="598.535156" xlink:href="#DejaVuSans-99"/>
      <use x="653.515625" xlink:href="#DejaVuSans-105"/>
      <use x="681.298828" xlink:href="#DejaVuSans-100"/>
      <use x="744.775391" xlink:href="#DejaVuSans-101"/>
      <use x="806.298828" xlink:href="#DejaVuSans-110"/>
      <use x="869.677734" xlink:href="#DejaVuSans-99"/>
      <use x="924.658203" xlink:href="#DejaVuSans-101"/>
      <use x="986.181641" xlink:href="#DejaVuSans-32"/>
      <use x="1017.96875" xlink:href="#DejaVuSans-111"/>
      <use x="1079.150391" xlink:href="#DejaVuSans-102"/>
      <use x="1114.355469" xlink:href="#DejaVuSans-32"/>
      <use x="1146.142578" xlink:href="#DejaVuSans-99"/>
      <use x="1201.123047" xlink:href="#DejaVuSans-111"/>
      <use x="1262.304688" xlink:href="#DejaVuSans-109"/>
      <use x="1359.716797" xlink:href="#DejaVuSans-109"/>
      <use x="1457.128906" xlink:href="#DejaVuSans-117"/>
      <use x="1520.507812" xlink:href="#DejaVuSans-110"/>
      <use x="1583.886719" xlink:href="#DejaVuSans-105"/>
      <use x="1611.669922" xlink:href="#DejaVuSans-116"/>
      <use x="1650.878906" xlink:href="#DejaVuSans-121"/>
      <use x="1710.058594" xlink:href="#DejaVuSans-32"/>
      <use x="1741.845703" xlink:href="#DejaVuSans-116"/>
      <use x="1781.054688" xlink:href="#DejaVuSans-114"/>
      <use x="1822.167969" xlink:href="#DejaVuSans-97"/>
      <use x="1883.447266" xlink:href="#DejaVuSans-110"/>
      <use x="1946.826172" xlink:href="#DejaVuSans-115"/>
      <use x="1998.925781" xlink:href="#DejaVuSans-109"/>
      <use x="2096.337891" xlink:href="#DejaVuSans-105"/>
      <use x="2124.121094" xlink:href="#DejaVuSans-115"/>
      <use x="2176.220703" xlink:href="#DejaVuSans-115"/>
      <use x="2228.320312" xlink:href="#DejaVuSans-105"/>
      <use x="2256.103516" xlink:href="#DejaVuSans-111"/>
      <use x="2317.285156" xlink:href="#DejaVuSans-110"/>
     </g>
    </g>
    <g id="line2d_22">
     <path d="M 55.603125 64.772812 
L 75.603125 64.772812 
" style="fill:none;stroke:#ff0000;stroke-linecap:square;stroke-width:1.5;"/>
    </g>
    <g id="line2d_23"/>
    <g id="text_20">
     <!-- High incidence of community transmission -->
     <g transform="translate(83.603125 68.272812)scale(0.1 -0.1)">
      <defs>
       <path d="M 9.8125 72.90625 
L 19.671875 72.90625 
L 19.671875 43.015625 
L 55.515625 43.015625 
L 55.515625 72.90625 
L 65.375 72.90625 
L 65.375 0 
L 55.515625 0 
L 55.515625 34.71875 
L 19.671875 34.71875 
L 19.671875 0 
L 9.8125 0 
z
" id="DejaVuSans-72"/>
       <path d="M 45.40625 27.984375 
Q 45.40625 37.75 41.375 43.109375 
Q 37.359375 48.484375 30.078125 48.484375 
Q 22.859375 48.484375 18.828125 43.109375 
Q 14.796875 37.75 14.796875 27.984375 
Q 14.796875 18.265625 18.828125 12.890625 
Q 22.859375 7.515625 30.078125 7.515625 
Q 37.359375 7.515625 41.375 12.890625 
Q 45.40625 18.265625 45.40625 27.984375 
z
M 54.390625 6.78125 
Q 54.390625 -7.171875 48.1875 -13.984375 
Q 42 -20.796875 29.203125 -20.796875 
Q 24.46875 -20.796875 20.265625 -20.09375 
Q 16.0625 -19.390625 12.109375 -17.921875 
L 12.109375 -9.1875 
Q 16.0625 -11.328125 19.921875 -12.34375 
Q 23.78125 -13.375 27.78125 -13.375 
Q 36.625 -13.375 41.015625 -8.765625 
Q 45.40625 -4.15625 45.40625 5.171875 
L 45.40625 9.625 
Q 42.625 4.78125 38.28125 2.390625 
Q 33.9375 0 27.875 0 
Q 17.828125 0 11.671875 7.65625 
Q 5.515625 15.328125 5.515625 27.984375 
Q 5.515625 40.671875 11.671875 48.328125 
Q 17.828125 56 27.875 56 
Q 33.9375 56 38.28125 53.609375 
Q 42.625 51.21875 45.40625 46.390625 
L 45.40625 54.6875 
L 54.390625 54.6875 
z
" id="DejaVuSans-103"/>
      </defs>
      <use xlink:href="#DejaVuSans-72"/>
      <use x="75.195312" xlink:href="#DejaVuSans-105"/>
      <use x="102.978516" xlink:href="#DejaVuSans-103"/>
      <use x="166.455078" xlink:href="#DejaVuSans-104"/>
      <use x="229.833984" xlink:href="#DejaVuSans-32"/>
      <use x="261.621094" xlink:href="#DejaVuSans-105"/>
      <use x="289.404297" xlink:href="#DejaVuSans-110"/>
      <use x="352.783203" xlink:href="#DejaVuSans-99"/>
      <use x="407.763672" xlink:href="#DejaVuSans-105"/>
      <use x="435.546875" xlink:href="#DejaVuSans-100"/>
      <use x="499.023438" xlink:href="#DejaVuSans-101"/>
      <use x="560.546875" xlink:href="#DejaVuSans-110"/>
      <use x="623.925781" xlink:href="#DejaVuSans-99"/>
      <use x="678.90625" xlink:href="#DejaVuSans-101"/>
      <use x="740.429688" xlink:href="#DejaVuSans-32"/>
      <use x="772.216797" xlink:href="#DejaVuSans-111"/>
      <use x="833.398438" xlink:href="#DejaVuSans-102"/>
      <use x="868.603516" xlink:href="#DejaVuSans-32"/>
      <use x="900.390625" xlink:href="#DejaVuSans-99"/>
      <use x="955.371094" xlink:href="#DejaVuSans-111"/>
      <use x="1016.552734" xlink:href="#DejaVuSans-109"/>
      <use x="1113.964844" xlink:href="#DejaVuSans-109"/>
      <use x="1211.376953" xlink:href="#DejaVuSans-117"/>
      <use x="1274.755859" xlink:href="#DejaVuSans-110"/>
      <use x="1338.134766" xlink:href="#DejaVuSans-105"/>
      <use x="1365.917969" xlink:href="#DejaVuSans-116"/>
      <use x="1405.126953" xlink:href="#DejaVuSans-121"/>
      <use x="1464.306641" xlink:href="#DejaVuSans-32"/>
      <use x="1496.09375" xlink:href="#DejaVuSans-116"/>
      <use x="1535.302734" xlink:href="#DejaVuSans-114"/>
      <use x="1576.416016" xlink:href="#DejaVuSans-97"/>
      <use x="1637.695312" xlink:href="#DejaVuSans-110"/>
      <use x="1701.074219" xlink:href="#DejaVuSans-115"/>
      <use x="1753.173828" xlink:href="#DejaVuSans-109"/>
      <use x="1850.585938" xlink:href="#DejaVuSans-105"/>
      <use x="1878.369141" xlink:href="#DejaVuSans-115"/>
      <use x="1930.46875" xlink:href="#DejaVuSans-115"/>
      <use x="1982.568359" xlink:href="#DejaVuSans-105"/>
      <use x="2010.351562" xlink:href="#DejaVuSans-111"/>
      <use x="2071.533203" xlink:href="#DejaVuSans-110"/>
     </g>
    </g>
   </g>
  </g>
 </g>
 <defs>
  <clipPath id="p32ef790b79">
   <rect height="266.112" width="357.12" x="46.603125" y="22.318125"/>
  </clipPath>
 </defs>
</svg>
